<?xml version="1.0" encoding="UTF-8" standalone="no"?>
<!-- Created with Inkscape (http://www.inkscape.org/) -->

<svg
   width="149.75414mm"
   height="149.75417mm"
   viewBox="0 0 149.75413 149.75416"
   version="1.1"
   id="svg1"
   xml:space="preserve"
   sodipodi:docname="template-matricole-a.svg"
   xmlns:inkscape="http://www.inkscape.org/namespaces/inkscape"
   xmlns:sodipodi="http://sodipodi.sourceforge.net/DTD/sodipodi-0.dtd"
   xmlns="http://www.w3.org/2000/svg"
   xmlns:svg="http://www.w3.org/2000/svg"><sodipodi:namedview
     id="namedview1"
     pagecolor="#ffffff"
     bordercolor="#999999"
     borderopacity="1"
     inkscape:showpageshadow="2"
     inkscape:pageopacity="0"
     inkscape:pagecheckerboard="0"
     inkscape:deskcolor="#d1d1d1"
     inkscape:document-units="mm"
     inkscape:zoom="0.9707102"
     inkscape:cx="410.00908"
     inkscape:cy="488.81736"
     inkscape:window-width="1920"
     inkscape:window-height="991"
     inkscape:window-x="-9"
     inkscape:window-y="-9"
     inkscape:window-maximized="1"
     inkscape:current-layer="svg1" /><defs
     id="defs1"><rect
       x="128.7717"
       y="414.12979"
       width="302.87103"
       height="109.1984"
       id="rect1040" /><rect
       x="124.651"
       y="63.870762"
       width="290.50894"
       height="105.07771"
       id="rect3058" /></defs><path
     id="rect1-3"
     style="fill:#e87d7d;fill-opacity:1;stroke-width:0.295148"
     d="M 0,0 H 149.75414 V 149.75416 H 0 Z"
     inkscape:export-filename="..\eng\ENG3.svg"
     inkscape:export-xdpi="347.36404"
     inkscape:export-ydpi="347.36404" /><path
     id="path4574"
     style="font-size:40px;line-height:1.25;font-family:PRIMETIME;-inkscape-font-specification:'PRIMETIME, Normal';letter-spacing:0px;word-spacing:0px;white-space:pre;fill:#000000;fill-opacity:0.31;stroke-width:0.760341"
     d="m 44.964181,19.999813 -9.246465,25.000024 h 0.307475 l -0.09663,0.261483 h 0.308509 l -0.09715,0.261999 h 0.307475 l -0.09663,0.261483 h 0.307991 l -0.09663,0.261483 h 0.307992 l -0.09715,0.262 h 0.307992 l -0.09664,0.261482 h 0.307991 l -0.09715,0.262 h 0.307991 l -0.09663,0.261483 h 0.307992 l -0.09715,0.261999 h 0.307992 l -0.09663,0.261483 h 0.307475 l -0.09663,0.261483 h 0.308508 l -0.09715,0.261999 h 0.307475 l -0.09663,0.261483 h 0.307992 l -0.09664,0.261483 h 0.307991 l -0.09715,0.261999 h 0.307992 l -0.09664,0.261483 h 0.307992 l -0.09715,0.261999 h 0.307991 l -0.09663,0.261483 h 0.307474 l -0.09663,0.261483 h 0.308509 l -0.09715,0.261999 H 40.2472 l -0.09663,0.261483 h 0.308508 l -0.09715,0.262 h 0.307475 l -0.09664,0.261482 h 0.307992 l -0.09664,0.261483 h 0.307991 l -0.09715,0.262 h 0.307475 l -0.09663,0.261482 h 0.308508 l -0.09715,0.262 h 0.307475 l -0.09663,0.261483 h 0.307992 l -0.09663,0.261482 h 0.307991 l -0.09715,0.262 h 0.307992 l -0.09663,0.261483 h 0.307475 l -0.09663,0.261482 h 0.308508 l -0.09715,0.262 h 0.307474 l -0.09663,0.261483 h 5.17e-4 0.307992 l -0.09715,0.261999 h 0.307475 l -0.09663,0.261483 h 5.17e-4 0.307991 l -0.09715,0.261999 h 0.307475 l -0.09663,0.261483 h 0.307992 l -0.09663,0.261483 h 0.307991 l -0.09715,0.261999 h 0.307991 l -0.09663,0.261483 h 0.307475 l -0.09663,0.261483 h 0.308508 l -0.09715,0.261999 h 0.307475 l -0.09663,0.261483 h 0.308508 l -0.09715,0.262 h 0.307475 l -0.09663,0.261482 h 0.307992 l -0.09663,0.261483 h 0.307991 l -0.09715,0.262 h 0.307991 l -0.09663,0.261482 h 0.307992 l -0.09715,0.262 h 0.307992 l -0.09663,0.261483 h 0.307474 l -0.09663,0.261482 h 0.308509 l -0.09715,0.262 h 0.307475 l -0.09663,0.261483 h 0.307991 l -0.09715,0.261999 h 5.17e-4 0.307474 L 47.5387,59.65424 h 0.307992 l -0.09663,0.261483 h 0.307992 l -0.09715,0.261999 h 0.307991 l -0.09663,0.261483 h 0.307992 l -0.09715,0.261999 h 0.307992 l -0.09663,0.261483 h 0.307475 l -0.09663,0.261483 h 0.307991 l -0.09715,0.261999 h 5.16e-4 0.307475 l -0.09663,0.261483 h 0.307992 l -0.09715,0.262 h 5.17e-4 0.307475 l -0.09663,0.261482 h 0.307474 l -0.09663,0.261483 h 5.17e-4 0.307992 l -0.09715,0.262 h 0.307475 l -0.09663,0.261482 h 0.307991 l -0.09663,0.261483 h 0.307991 l -0.09715,0.262 h 0.307992 l -0.09663,0.261482 h 0.307992 l -0.09715,0.262 h 0.307991 l -0.09663,0.261483 h 0.307475 l -0.09663,0.261482 h 0.308509 l -0.09715,0.262 h 0.307475 l -0.09663,0.261483 h 0.308508 l -0.09715,0.261999 h 0.307475 l -0.09663,0.261483 h 0.307992 l -0.09663,0.261483 h 0.307991 l -0.09715,0.261999 h 0.307991 l -0.09663,0.261483 h 0.307475 l -0.09664,0.261483 h 0.308508 l -0.09715,0.261999 h 0.307474 l -0.09663,0.261483 h 0.308508 l -0.09715,0.262 h 0.307475 l -0.09663,0.261482 h 0.308508 l -0.09715,0.262 h 0.307474 l -0.09663,0.261483 h 0.307992 l -0.09663,0.261482 h 0.307992 l -0.09715,0.262 h 0.307475 l -0.09663,0.261483 h 5.16e-4 0.307992 l -0.09715,0.261999 h 0.307475 l -0.09663,0.261483 h 5.17e-4 0.307475 l -0.09663,0.261483 h 0.307991 l -0.09715,0.261999 h 5.16e-4 0.307475 l -0.09663,0.261483 h 0.307475 l -0.09663,0.261483 h 0.308508 l -0.09715,0.261999 h 0.307474 l -0.09663,0.261483 h 0.308508 l -0.09715,0.261999 h 0.307475 l -0.09663,0.261483 h 0.308508 l -0.09715,0.262 h 0.307474 l -0.09663,0.261482 h 0.307992 l -0.09663,0.261483 h 0.307992 l -0.09715,0.262 h 0.307991 l -0.09663,0.261482 h 0.307475 l -0.09663,0.261483 H 58.8238 l -0.09715,0.262 h 0.307475 l -0.09663,0.261482 h 0.307991 l -0.09664,0.261483 h 0.307992 l -0.09715,0.262 h 0.307992 l -0.09663,0.261482 h 0.307991 l -0.09715,0.262 h 0.307991 l -0.09663,0.261483 h 0.307992 l -0.09715,0.261999 h 0.307992 l -0.09663,0.261483 h 0.307475 l -0.09663,0.261483 h 0.308508 l -0.09715,0.261999 h 0.307475 l -0.09663,0.261483 h 0.307992 l -0.09715,0.261999 h 5.17e-4 0.307474 l -0.09663,0.261483 h 0.307474 l -0.09663,0.261483 h 5.17e-4 0.307992 l -0.09715,0.261999 h 0.307475 l -0.09663,0.261483 h 5.17e-4 0.307474 l -0.09663,0.261483 h 0.307992 l -0.09715,0.261999 h 5.17e-4 0.307475 l -0.09663,0.261483 h 0.307991 l -0.09715,0.262 h 0.307991 l -0.09663,0.261482 h 0.307992 l -0.09715,0.262 h 0.307992 l -0.09663,0.261483 h 0.307475 l -0.09663,0.261482 h 0.308508 l -0.09715,0.262 h 0.307475 l -0.09663,0.261483 h 0.307992 l -0.09664,0.261482 h 0.307991 l -0.09715,0.262 h 0.307991 l -0.09664,0.261483 h 0.307475 l -0.09664,0.261482 h 0.308508 l -0.09715,0.262 h 0.307474 l -0.09664,0.261483 h 0.308509 l -0.09715,0.261999 h 0.307475 l -0.09664,0.261483 h 0.308508 l -0.09715,0.261999 h 0.307475 l -0.09664,0.261483 h 0.307992 l -0.09663,0.261483 h 0.307991 l -0.09715,0.261999 h 0.307991 l -0.09663,0.261483 h 0.307992 l -0.09715,0.262 h 0.307475 l -0.09664,0.261482 h 5.17e-4 0.307475 l -0.09663,0.261483 h 0.307991 l -0.09715,0.262 h 5.16e-4 0.307475 l -0.09663,0.261482 h 0.307475 l -0.09664,0.261483 h 5.17e-4 0.307991 l -0.09715,0.262 h 0.307474 l -0.09664,0.261482 h 5.17e-4 0.307992 l -0.09715,0.262 h 0.307475 l -0.09663,0.261483 h 5.17e-4 0.307991 l -0.09715,0.261999 h 0.307475 l -0.09663,0.261483 h 0.307992 l -0.09664,0.261483 h 0.307991 l -0.09715,0.261999 h 0.307991 l -0.09664,0.261483 h 0.307475 l -0.09664,0.261483 h 0.308509 l -0.09715,0.261999 h 0.307475 l -0.09664,0.261483 h 0.308508 l -0.09715,0.261999 h 0.307475 l -0.09664,0.261483 h 0.307992 l -0.09663,0.261483 h 0.307991 l -0.09715,0.262 h 0.307991 l -0.09663,0.261482 h 0.307992 l -0.09715,0.262 h 0.307992 l -0.09664,0.261483 h 0.307474 l -0.09664,0.261482 h 0.308509 l -0.09715,0.262 h 0.307475 l -0.09663,0.261483 h 0.308508 l -0.09715,0.261999 h 0.307474 l -0.09663,0.261483 h 0.307475 l -0.09664,0.261483 h 5.17e-4 0.307992 l -0.09715,0.261999 h 0.307475 l -0.09663,0.261483 h 5.16e-4 0.307475 l -0.09664,0.261483 h 0.307992 l -0.09715,0.261999 h 5.17e-4 0.307475 l -0.09664,0.261483 h 0.307991 l -0.09715,0.261999 h 5.16e-4 0.307475 l -0.09664,0.261483 h 0.307992 l -0.09715,0.262 h 5.17e-4 0.307475 l -0.09664,0.261482 h 0.307474 l -0.09663,0.261483 h 5.17e-4 0.307992 l -0.09715,0.262 h 0.307475 l -0.09664,0.261482 h 0.307991 l -0.09663,0.261483 h 0.307991 l -0.09715,0.262 h 0.307992 l -0.09663,0.261482 h 0.307992 l -0.09715,0.262 h 0.307991 l -0.09663,0.261483 h 0.307475 l -0.09664,0.261482 h 0.308509 l -0.09715,0.262 h 0.307475 l -0.09663,0.261483 h 0.308508 l -0.09715,0.261999 h 0.307475 l -0.09663,0.261483 h 0.307992 l -0.09664,0.261483 h 0.307991 l -0.09715,0.261999 h 0.307991 l -0.09664,0.261483 h 0.307992 l -0.09715,0.261999 h 0.307992 l -0.09664,0.261483 h 0.307474 l -0.09663,0.261483 h 0.307991 l -0.09715,0.261999 h 5.17e-4 0.307475 l -0.09664,0.261483 h 0.307475 l -0.09663,0.261483 h 5.17e-4 0.307991 l -0.09715,0.262521 h 0.307475 l -0.09663,0.26096 h 5.17e-4 0.307992 l -0.09715,0.262 h 0.307991 l -0.09715,0.262 h 5.17e-4 0.307474 l -0.09664,0.26097 h 0.307992 l -0.09715,0.262 h 5.17e-4 0.307992 l -0.09715,0.262 h 0.307475 l -0.09664,0.26096 h 5.16e-4 0.307992 l -0.09715,0.262 h 0.307992 l -0.09715,0.262 h 5.17e-4 0.307475 l -0.09663,0.26097 h 0.307991 l -0.09715,0.262 h 0.308508 l -0.09715,0.262 h 0.307475 l -0.09663,0.26096 h 0.308508 l -0.09715,0.262 H 83.521 l -0.09715,0.262 h 0.308509 l -0.09715,0.262 h 0.307475 l -0.09663,0.26097 h 0.308508 l -0.09715,0.262 h 0.307991 l -0.09715,0.26199 h 5.17e-4 0.307475 l -0.09664,0.26097 h 0.307992 l -0.09715,0.262 h 5.17e-4 0.307991 l -0.09715,0.262 h 0.307475 l -0.09664,0.26097 h 0.308509 l -0.09715,0.262 h 0.307991 l -0.09715,0.26199 h 0.307475 l -0.09663,0.26097 h 5.16e-4 0.307992 l -0.09715,0.262 h 0.307992 l -0.09715,0.262 h 5.17e-4 0.307475 l -0.09664,0.26097 h 0.307991 l -0.09715,0.262 h 5.17e-4 0.307992 l -0.09715,0.26199 h 0.307475 l -0.09664,0.26149 h 5.17e-4 0.307991 l -0.09715,0.262 h 0.122989 v 10.8629 l -0.06511,-0.17622 h -0.114722 l -0.09663,-0.26096 h -0.114205 l -0.09664,-0.262 H 86.74459 l -0.09663,-0.262 h -0.114205 l -0.09664,-0.26097 H 86.32291 l -0.09715,-0.262 h -0.11422 l -0.09664,-0.262 h -0.114722 l -0.09663,-0.26096 h -0.114205 l -0.09663,-0.262 h -0.114205 l -0.09715,-0.262 h -0.114205 l -0.09663,-0.262 H 85.05579 l -0.09664,-0.26097 h -0.1142 l -0.09663,-0.262 h -0.114721 l -0.09664,-0.262 h -0.114205 l -0.09663,-0.26096 h -0.114722 l -0.09664,-0.262 h -0.114205 l -0.09663,-0.262 h -0.114722 l -0.09664,-0.26097 H 83.57836 l -0.09664,-0.262 h -0.114205 l -0.09715,-0.262 h -0.114204 l -0.09664,-0.26096 h -0.114205 l -0.09715,-0.262 h -0.114205 l -0.09664,-0.262 h -0.114722 l -0.09663,-0.26097 H 82.31228 l -0.09715,-0.262 h -0.114205 l -0.09715,-0.262 H 81.88957 l -0.09663,-0.26096 h -0.114205 l -0.09715,-0.262 h -0.113688 l -0.09715,-0.262 h -0.114205 l -0.09664,-0.262 H 81.04518 l -0.09663,-0.26148 h -0.114205 l -0.09663,-0.262 h -0.114722 l -0.09663,-0.262 h -0.114205 l -0.09664,-0.26097 h -0.114205 l -0.09715,-0.262 H 79.98995 l -0.09663,-0.262 h -0.114722 l -0.09664,-0.26096 h -0.114205 l -0.09663,-0.262 h -0.114205 l -0.09715,-0.262 h -0.114205 l -0.09663,-0.26097 H 78.9342 l -0.09664,-0.262 h -0.1142 l -0.09664,-0.262 h -0.114721 l -0.09664,-0.26096 h -0.114205 l -0.09664,-0.262 h -0.114205 l -0.09715,-0.262 h -0.114205 l -0.09664,-0.262 h -0.114721 l -0.09663,-0.26097 h -0.114205 l -0.09664,-0.262 h -0.114722 l -0.0093,-0.0258 -0.08733,-0.23616 h -0.114205 l -0.02687,-0.0729 -0.06976,-0.1881 h -0.114204 l -0.04496,-0.12093 -0.05219,-0.14107 h -0.114722 l -0.0615,-0.16692 -0.03462,-0.0951 h -0.114722 l -0.07906,-0.21394 -0.01757,-0.047 h -0.113688 l -0.09715,-0.262 h -5.565552 l -4.124813,11.15333 c -0.01035,-0.009 -0.02116,-0.0166 -0.03152,-0.0253 l 0.05374,-0.047 c -0.08629,-0.0764 -0.17714,-0.14184 -0.264584,-0.21549 l 0.05323,-0.0465 c -0.08608,-0.0762 -0.176828,-0.1415 -0.264066,-0.21497 l 0.05323,-0.046 c -0.08624,-0.0764 -0.177193,-0.14182 -0.264583,-0.21549 l 0.05323,-0.0465 c -0.08619,-0.0764 -0.177239,-0.14135 -0.264584,-0.21497 l 0.05374,-0.047 c -0.08611,-0.0762 -0.176813,-0.14149 -0.264067,-0.21498 l 0.05271,-0.046 c -0.08621,-0.0763 -0.177231,-0.14136 -0.264583,-0.21497 l 0.05374,-0.047 c -0.08627,-0.0764 -0.177164,-0.14182 -0.264583,-0.21549 l 0.05323,-0.0465 c -0.08621,-0.0763 -0.177235,-0.14137 -0.264583,-0.21497 l 0.05374,-0.047 c -0.08609,-0.0762 -0.17684,-0.14146 -0.264067,-0.21497 l 0.05271,-0.046 c -0.0862,-0.0763 -0.177252,-0.14133 -0.264583,-0.21497 l 0.05374,-0.047 c -0.08626,-0.0764 -0.177185,-0.1418 -0.264584,-0.2155 l 0.05323,-0.0465 c -0.08604,-0.0761 -0.176898,-0.141 -0.264067,-0.21446 l 0.05323,-0.0465 c -0.08628,-0.0764 -0.177177,-0.14179 -0.264583,-0.21549 l 0.05323,-0.0465 c -0.08629,-0.0764 -0.177164,-0.14178 -0.264584,-0.21549 l 0.05374,-0.0465 c -0.08609,-0.0762 -0.176853,-0.14144 -0.264067,-0.21497 l 0.05271,-0.046 c -0.08619,-0.0763 -0.177276,-0.14129 -0.264583,-0.21497 l 0.05374,-0.047 c -0.08626,-0.0764 -0.177202,-0.14177 -0.264583,-0.2155 l 0.05323,-0.0465 c -0.08591,-0.0761 -0.176534,-0.14103 -0.26355,-0.21446 l 0.05271,-0.0465 c -0.08625,-0.0764 -0.177219,-0.14173 -0.264584,-0.21549 l 0.05323,-0.0465 c -0.08629,-0.0764 -0.177176,-0.14175 -0.264583,-0.21549 l 0.05374,-0.0465 c -0.08612,-0.0762 -0.176839,-0.14139 -0.264066,-0.21497 l 0.05271,-0.046 c -0.08627,-0.0764 -0.177204,-0.14172 -0.264584,-0.21549 l 0.05374,-0.0465 c -0.08617,-0.0763 -0.177304,-0.1413 -0.264583,-0.21498 l 0.05323,-0.047 c -0.08628,-0.0764 -0.177201,-0.14174 -0.264583,-0.2155 l 0.05374,-0.0465 c -0.0861,-0.0762 -0.176865,-0.14137 -0.264066,-0.21498 l 0.05271,-0.0465 c -0.08622,-0.0764 -0.17726,-0.14121 -0.264584,-0.21497 l 0.05374,-0.047 c -0.08603,-0.0762 -0.176942,-0.14086 -0.264067,-0.21445 l 0.0047,-0.004 0.04806,-0.0434 c -0.08597,-0.076 -0.176493,-0.14097 -0.263549,-0.21445 l 0.01395,-0.0124 0.03876,-0.0341 c -0.0861,-0.0762 -0.176879,-0.14134 -0.264067,-0.21498 l 0.02377,-0.0207 0.02946,-0.0263 c -0.08619,-0.0763 -0.177309,-0.14127 -0.264584,-0.21498 l 0.03411,-0.03 0.01912,-0.017 c -0.08604,-0.0761 -0.176938,-0.14087 -0.264067,-0.21446 l 0.04341,-0.0382 0.0098,-0.008 c -0.08627,-0.0764 -0.177221,-0.14166 -0.264583,-0.21549 l 0.05323,-0.0465 c -1.236599,-1.095 -2.584699,-1.9259 -4.044198,-2.4939 h -10e-4 c -1.459398,-0.588 -2.979963,-0.88212 -4.560961,-0.88212 h -5.17e-4 -5.17e-4 c -1.743698,0 -3.375643,0.33508 -4.896342,1.00408 -1.499998,0.64899 -2.817948,1.55129 -3.953247,2.70629 l -5.17e-4,0.001 c -1.115099,1.135 -1.997034,2.46271 -2.645833,3.98271 -0.648599,1.50099 -0.973384,3.10187 -0.973584,4.80487 v 0.001 c 0,1.703 0.324568,3.31437 0.973067,4.83537 l 5.17e-4,0.001 c 0.510774,1.18089 1.171693,2.25072 1.971456,3.21841 0.07007,0.0892 0.142017,0.17709 0.214457,0.26458 0.06545,0.0832 0.132983,0.16482 0.200505,0.2465 0.06772,0.0862 0.137281,0.17119 0.207222,0.2558 0.06915,0.0881 0.140397,0.1746 0.211873,0.26096 0.06713,0.0855 0.136352,0.16939 0.205673,0.25322 0.06669,0.0849 0.135262,0.16838 0.204122,0.25166 0.0686,0.0874 0.139416,0.1732 0.210323,0.2589 0.06766,0.0862 0.137317,0.17078 0.207222,0.25528 0.06779,0.0863 0.137698,0.17112 0.207739,0.2558 0.06765,0.0861 0.137319,0.17081 0.207223,0.25528 0.0669,0.0852 0.135534,0.16914 0.204639,0.2527 0.068,0.0867 0.137973,0.17186 0.208256,0.25683 0.06898,0.0879 0.140018,0.17429 0.211356,0.26045 0.06675,0.085 0.13568,0.16836 0.204639,0.25167 0.06719,0.0856 0.136244,0.1698 0.205672,0.25373 0.06844,0.0872 0.139038,0.17288 0.209806,0.25838 0.06831,0.087 0.138655,0.17256 0.20929,0.25787 0.06621,0.0843 0.134692,0.16693 0.203088,0.24959 0.06861,0.0875 0.138836,0.1737 0.209807,0.25942 0.06777,0.0863 0.137657,0.17115 0.207739,0.2558 0.06726,0.0857 0.136649,0.16975 0.206189,0.25373 0.06791,0.0865 0.138014,0.17149 0.208256,0.25631 0.06719,0.0856 0.136205,0.16981 0.205672,0.25373 0.06836,0.0872 0.138558,0.17297 0.20929,0.25839 0.06807,0.0867 0.138353,0.17184 0.208772,0.25683 0.0665,0.0847 0.134857,0.1681 0.203606,0.25115 0.06857,0.0874 0.139355,0.17323 0.210323,0.25889 0.06821,0.0869 0.138706,0.17217 0.209289,0.25735 0.06598,0.084 0.133847,0.1667 0.202055,0.24908 0.06782,0.0865 0.137562,0.17157 0.207739,0.25632 0.06916,0.0882 0.140253,0.17506 0.211874,0.26148 0.067,0.0854 0.136357,0.16902 0.205672,0.2527 0.0667,0.085 0.135642,0.16835 0.204638,0.25166 0.06842,0.0873 0.138444,0.1734 0.20929,0.2589 0.06765,0.0863 0.137714,0.17075 0.207739,0.25528 0.06688,0.0853 0.13544,0.16918 0.204639,0.2527 0.06825,0.0871 0.13861,0.1726 0.20929,0.25787 0.06802,0.0868 0.13833,0.17185 0.208772,0.25683 0.06745,0.086 0.136878,0.17051 0.206706,0.25476 0.06797,0.0867 0.137865,0.17197 0.208256,0.25684 0.06736,0.0859 0.136956,0.17011 0.206706,0.25424 0.06699,0.0854 0.135806,0.16952 0.205155,0.25322 0.06906,0.0881 0.140289,0.17467 0.211874,0.26096 0.06625,0.0845 0.134521,0.16739 0.203088,0.25012 0.06809,0.0869 0.138227,0.17226 0.208773,0.25735 0.06576,0.0839 0.133474,0.16634 0.201538,0.24856 0.0018,0.002 0.0023,0.005 0.0041,0.007 0.0012,0.001 0.0024,0.002 0.0036,0.004 0.06585,0.084 0.133896,0.16628 0.202055,0.24856 0.0024,0.003 0.0032,0.006 0.0057,0.009 0.0016,0.002 0.0035,0.003 0.0052,0.005 0.06243,0.0795 0.126693,0.15768 0.191203,0.23564 0.0059,0.006 0.0084,0.0154 0.01447,0.0217 0.0029,0.003 0.0059,0.005 0.0088,0.008 0.05954,0.0757 0.121502,0.1495 0.182935,0.22376 0.0081,0.009 0.01129,0.0213 0.01964,0.03 0.0033,0.003 0.007,0.006 0.01033,0.009 0.05718,0.0725 0.116267,0.14371 0.175183,0.21497 0.01013,0.0114 0.01474,0.0266 0.02532,0.0377 0.0046,0.005 0.0099,0.008 0.01447,0.0129 0.05479,0.0694 0.112073,0.13694 0.168465,0.20516 0.01143,0.0128 0.01642,0.0305 0.02842,0.0429 0.0047,0.005 0.0098,0.009 0.01447,0.0134 0.05217,0.066 0.107089,0.12993 0.160714,0.19483 0.01415,0.0163 0.02062,0.0381 0.03566,0.0537 0.0064,0.006 0.01373,0.0117 0.02015,0.0181 0.04852,0.0612 0.09957,0.12058 0.149345,0.18086 0.01643,0.0191 0.02424,0.0448 0.04186,0.0631 0.0068,0.007 0.01433,0.0128 0.02119,0.0196 0.04649,0.0586 0.09602,0.11488 0.143661,0.17259 0.01791,0.021 0.02668,0.0488 0.04599,0.0687 0.0073,0.007 0.01545,0.0134 0.02274,0.0207 0.04454,0.056 0.09238,0.10963 0.137976,0.16485 0.01972,0.0235 0.02924,0.0542 0.05064,0.0765 0.0081,0.008 0.01716,0.0152 0.02532,0.0233 0.04131,0.0518 0.08594,0.10128 0.128157,0.15244 0.02205,0.0266 0.0332,0.0613 0.05736,0.0863 0.0094,0.009 0.01999,0.0175 0.02946,0.0269 0.03867,0.0484 0.08094,0.0943 0.120406,0.14211 0.02347,0.0284 0.03566,0.0653 0.0615,0.092 0.0091,0.009 0.0193,0.0168 0.02842,0.0258 0.03717,0.0465 0.07785,0.0905 0.115755,0.13642 0.02526,0.0311 0.03869,0.0706 0.06666,0.0997 0.01092,0.0109 0.02315,0.0202 0.03411,0.031 0.03263,0.0407 0.06913,0.0786 0.102319,0.11886 0.02801,0.0351 0.04304,0.0796 0.07442,0.11214 0.01178,0.0118 0.02487,0.0219 0.03669,0.0336 0.03088,0.0384 0.06628,0.0735 0.09767,0.11162 0.0289,0.0362 0.04457,0.0822 0.077,0.11575 0.01143,0.0114 0.02418,0.0212 0.03566,0.0326 0.02951,0.0367 0.06356,0.0701 0.09353,0.10645 0.03053,0.0385 0.04721,0.0874 0.08165,0.12299 0.01472,0.0147 0.0312,0.0272 0.04599,0.0419 0.0246,0.0305 0.05311,0.0581 0.07803,0.0884 0.03245,0.0415 0.05046,0.0935 0.08733,0.13177 0.01819,0.0182 0.03854,0.0336 0.05684,0.0517 0.01961,0.0242 0.0422,0.0462 0.06201,0.0703 0.03408,0.0438 0.05308,0.0987 0.09198,0.13901 0.02009,0.0201 0.04232,0.0374 0.06253,0.0574 0.01634,0.0201 0.0352,0.0384 0.05168,0.0584 0.03569,0.0463 0.05622,0.10393 0.09715,0.14625 0.02217,0.0222 0.04692,0.0411 0.06925,0.063 0.0123,0.0151 0.02638,0.0289 0.03876,0.0439 0.0376,0.0493 0.05942,0.10995 0.102836,0.15503 0.02598,0.0259 0.05493,0.0482 0.08113,0.0739 0.0069,0.008 0.01483,0.0159 0.0217,0.0243 0.03945,0.0523 0.06271,0.11635 0.10852,0.16382 0.03049,0.0305 0.0643,0.0567 0.09508,0.0868 3.9e-4,4.8e-4 6.44e-4,0.001 10e-4,0.002 0.04136,0.0552 0.06641,0.1226 0.114721,0.1726 0.0303,0.0303 0.06397,0.0564 0.09457,0.0863 0.04209,0.0562 0.06758,0.12456 0.116789,0.1757 0.02996,0.03 0.06328,0.0557 0.09353,0.0853 0.04238,0.0566 0.06786,0.12544 0.117306,0.17673 0.0304,0.0304 0.06438,0.0563 0.09508,0.0863 0.0422,0.0559 0.06721,0.12441 0.116272,0.17519 0.03014,0.0301 0.06361,0.056 0.09405,0.0858 0.04246,0.0561 0.06752,0.125 0.116789,0.17621 0.03032,0.0303 0.06395,0.0564 0.09457,0.0863 0.04248,0.0559 0.06764,0.1247 0.116789,0.1757 0.03042,0.0304 0.06437,0.0563 0.09508,0.0863 0.04237,0.0555 0.06686,0.12406 0.115756,0.17467 0.03048,0.0305 0.0643,0.0567 0.09508,0.0868 0.04256,0.0556 0.06727,0.12454 0.116272,0.17518 0.03015,0.0301 0.0636,0.056 0.09405,0.0858 0.04283,0.0558 0.06754,0.1251 0.116789,0.17622 0.03084,0.0308 0.06497,0.0574 0.09612,0.0878 0.04237,0.0547 0.06671,0.12286 0.115239,0.17312 0.02998,0.03 0.06326,0.0557 0.09353,0.0853 0.04316,0.0559 0.06786,0.12558 0.117306,0.17673 0.0305,0.0305 0.06427,0.0567 0.09508,0.0868 0.04288,0.0553 0.06731,0.12432 0.116272,0.17518 0.03051,0.0305 0.06427,0.0567 0.09509,0.0868 0.0428,0.0549 0.06699,0.12361 0.115755,0.17415 0.03032,0.0303 0.06394,0.0564 0.09457,0.0863 0.04321,0.0554 0.06761,0.1248 0.116789,0.1757 0.02997,0.03 0.06327,0.0557 0.09353,0.0853 0.03079,0.0394 0.04943,0.0878 0.0832,0.12505 0.0094,0.0145 0.01868,0.0291 0.02842,0.0434 0.0023,0.002 0.0033,0.006 0.0057,0.008 0.0015,0.001 0.0032,0.003 0.0047,0.004 0.06271,0.0904 0.129691,0.17742 0.206706,0.25684 0.06381,0.0921 0.132374,0.18076 0.21084,0.26199 l 0.0026,0.003 c 0.06345,0.0909 0.131127,0.17876 0.208773,0.25941 6.09e-4,6.1e-4 0.0015,9.5e-4 0.0021,0.002 0.0638,0.0912 0.130882,0.17967 0.208772,0.26045 0.0015,0.001 0.0032,0.003 0.0047,0.004 0.06332,0.0896 0.129849,0.17724 0.206706,0.25683 l 5.17e-4,5.2e-4 c 0.0644,0.0913 0.132037,0.1801 0.210323,0.26148 9.55e-4,9.5e-4 0.0021,0.002 0.0031,0.003 0.06407,0.0904 0.130232,0.17897 0.20774,0.25942 0.0015,0.001 0.0032,0.003 0.0047,0.004 0.06383,0.0893 0.129812,0.17714 0.206705,0.25683 l 10e-4,0.001 c 0.06483,0.0909 0.132117,0.18006 0.210323,0.26096 7.82e-4,7.9e-4 0.0018,0.001 0.0026,0.002 0.0646,0.0902 0.130639,0.17935 0.208256,0.25993 0.0018,0.002 0.0039,0.003 0.0057,0.005 0.04684,0.0648 0.09686,0.12723 0.150379,0.18707 0.01187,0.0179 0.02796,0.0326 0.04031,0.0501 0.0055,0.006 0.0094,0.0128 0.01499,0.0186 0.06546,0.0909 0.132372,0.1808 0.21084,0.262 l 0.0026,0.003 c 0.06503,0.0897 0.131158,0.17882 0.208773,0.25942 0.0011,0.001 0.0025,0.002 0.0036,0.003 0.04472,0.0614 0.09206,0.12081 0.142627,0.17777 l 5.17e-4,5.1e-4 c 0.01091,0.0164 0.0259,0.0299 0.03721,0.046 0.0098,0.0105 0.01683,0.0232 0.02687,0.0336 l 5.16e-4,5.2e-4 c 0.06582,0.0905 0.132454,0.18034 0.21084,0.26148 l 5.17e-4,5.2e-4 c 0.06589,0.0903 0.132072,0.18017 0.210323,0.26148 0.0011,0.001 0.0025,0.002 0.0036,0.003 0.06534,0.0888 0.129928,0.17806 0.207223,0.25787 4.36e-4,4.4e-4 0.0011,6e-4 0.0016,10e-4 0.06604,0.0899 0.131704,0.18006 0.209807,0.26097 l 0.0016,0.002 c 0.06604,0.0895 0.131377,0.17947 0.209289,0.26045 9.55e-4,9.5e-4 0.0021,0.002 0.0031,0.003 0.06593,0.0891 0.130654,0.17891 0.208256,0.25942 0.0011,0.001 0.0025,0.002 0.0036,0.003 0.06575,0.0884 0.130062,0.17791 0.207223,0.25786 6.09e-4,6.1e-4 0.0015,9.5e-4 0.0021,0.002 0.06641,0.0893 0.131364,0.1798 0.209289,0.26045 6.1e-4,6.1e-4 0.0015,9.5e-4 0.0021,0.002 0.06646,0.0891 0.130908,0.17965 0.208772,0.26045 0.0016,0.002 0.0035,0.003 0.0052,0.005 0.06581,0.0876 0.129397,0.17673 0.206189,0.25632 l 0.001,0.001 c 0.06684,0.0893 0.131746,0.18012 0.209807,0.26097 7.82e-4,7.8e-4 0.0018,10e-4 0.0026,0.002 0.06671,0.0888 0.131024,0.17919 0.208772,0.25993 0.0014,0.001 0.0027,0.003 0.0041,0.004 0.06623,0.0876 0.12978,0.17705 0.206706,0.25683 4.36e-4,4.4e-4 0.0011,6e-4 0.0016,0.001 0.06717,0.089 0.131732,0.18008 0.209806,0.26096 4.36e-4,4.4e-4 0.0011,6e-4 0.0015,0.001 0.06721,0.0889 0.131278,0.17994 0.20929,0.26096 0.0012,0.001 0.0024,0.002 0.0036,0.004 0.06676,0.0877 0.130496,0.17754 0.207739,0.25735 0.06777,0.0892 0.132333,0.18068 0.21084,0.262 l 0.0026,0.003 c 0.06722,0.0882 0.131166,0.17881 0.208773,0.25942 l 0.0026,0.003 c 0.06724,0.0879 0.130752,0.17828 0.208256,0.25838 l 0.0021,0.002 c 0.06761,0.0883 0.131387,0.17923 0.209289,0.25993 0.06814,0.089 0.132374,0.18077 0.21084,0.262 0.0012,0.001 0.0024,0.002 0.0036,0.004 0.06729,0.0873 0.130543,0.17803 0.20774,0.25787 l 10e-4,0.001 c 0.06806,0.0884 0.131674,0.17997 0.209806,0.26097 4.37e-4,4.3e-4 0.0011,5.9e-4 0.0016,0.001 0.06812,0.0883 0.131727,0.18011 0.209806,0.26097 l 10e-4,10e-4 c 0.0682,0.0883 0.131744,0.17991 0.209806,0.26096 0.0018,0.002 0.0039,0.003 0.0057,0.005 0.02075,0.0267 0.04192,0.0531 0.06356,0.0791 0.0052,0.008 0.01235,0.014 0.01757,0.0217 0.04292,0.0506 0.07817,0.10695 0.124541,0.15503 0.06863,0.0885 0.132421,0.18077 0.210839,0.262 8.65e-4,8.6e-4 0.0017,0.002 0.0026,0.003 0.06809,0.0875 0.131187,0.17885 0.208773,0.25942 l 0.0026,0.003 c 0.06809,0.0872 0.130757,0.1783 0.208256,0.25839 9.55e-4,9.5e-4 0.0021,0.002 0.0031,0.003 0.06823,0.0873 0.130685,0.17905 0.208256,0.25942 l 0.0016,0.002 c 0.06851,0.0876 0.131439,0.17958 0.209289,0.26044 0.0011,0.001 0.0025,0.002 0.0036,0.003 0.0681,0.0867 0.129999,0.17801 0.207222,0.25786 l 0.0036,0.004 c 0.06823,0.0868 0.130459,0.17827 0.20774,0.25838 4.36e-4,4.4e-4 0.0011,6e-4 0.0015,0.001 0.06884,0.0877 0.131291,0.17994 0.20929,0.26097 0.0016,0.002 0.0035,0.003 0.0052,0.005 0.06796,0.0859 0.129443,0.17694 0.206189,0.25632 l 0.0015,0.002 c 0.06895,0.0874 0.131355,0.17964 0.20929,0.26045 l 0.0021,0.002 c 0.06892,0.0873 0.131468,0.17935 0.20929,0.25993 9.55e-4,9.6e-4 0.0021,0.002 0.0031,0.003 0.06867,0.0866 0.130341,0.17831 0.207739,0.25838 7.82e-4,7.8e-4 0.0018,0.001 0.0026,0.002 0.06903,0.087 0.130998,0.17928 0.208773,0.25993 l 0.001,0.001 c 0.06938,0.0875 0.131657,0.18001 0.209806,0.26097 0.001,10e-4 0.0021,0.002 0.0031,0.003 0.06887,0.0866 0.130854,0.17852 0.208256,0.2589 0.0014,10e-4 0.0027,0.003 0.0041,0.004 0.06854,0.0859 0.129823,0.17707 0.206705,0.25684 l 0.0026,0.003 c 0.06921,0.0867 0.131098,0.17893 0.208773,0.25941 l 0.001,0.001 c 0.06957,0.0873 0.131752,0.1799 0.209806,0.26096 0.0016,0.002 0.0035,0.003 0.0052,0.005 0.0686,0.0855 0.129441,0.17695 0.206189,0.25631 l 5.17e-4,5.2e-4 c 0.06991,0.0874 0.131998,0.1803 0.210323,0.26148 l 0.0021,0.002 c 0.06956,0.0868 0.131489,0.17911 0.20929,0.25993 9.55e-4,9.5e-4 0.0021,0.002 0.0031,0.003 0.06929,0.0862 0.130343,0.17834 0.20774,0.25839 l 0.0021,0.002 c 0.06971,0.0867 0.131436,0.17923 0.209289,0.25993 l 0.001,0.001 c 0.07,0.087 0.131683,0.18003 0.209806,0.26096 0.0013,0.001 0.0028,0.002 0.0041,0.004 0.06924,0.0856 0.130107,0.17755 0.207223,0.25735 l 0.001,0.001 c 0.07008,0.0869 0.131715,0.17998 0.209807,0.26097 l 0.0026,0.003 c 0.06979,0.0863 0.13112,0.17895 0.208773,0.25942 8.65e-4,8.6e-4 0.0017,0.002 0.0026,0.003 0.06967,0.0859 0.130802,0.17822 0.208256,0.25839 l 0.0026,0.003 c 0.06986,0.0862 0.13115,0.1789 0.208773,0.25941 4.36e-4,4.4e-4 0.0011,6e-4 0.0015,0.001 0.07023,0.0866 0.131279,0.18012 0.20929,0.26096 0.0014,0.001 0.0027,0.003 0.0041,0.004 0.06945,0.0853 0.130238,0.17713 0.207222,0.25683 0.07071,0.087 0.132357,0.18082 0.21084,0.262 l 0.0021,0.002 c 0.07024,0.0863 0.131458,0.17925 0.20929,0.25993 l 0.0016,0.002 c 0.07035,0.0864 0.131378,0.17952 0.209289,0.26045 9.56e-4,9.5e-4 0.0021,0.002 0.0031,0.003 0.06999,0.0856 0.130348,0.17829 0.207739,0.25838 l 0.0021,0.002 c 0.07042,0.0862 0.131416,0.1792 0.20929,0.25993 l 0.0021,0.002 c 0.07036,0.0861 0.13103,0.17917 0.208773,0.25993 0.0015,10e-4 0.0032,0.003 0.0047,0.004 0.06975,0.085 0.129783,0.17721 0.206705,0.25683 2.64e-4,2.6e-4 7.71e-4,2.5e-4 0.001,5.2e-4 0.07085,0.0865 0.131575,0.18036 0.209806,0.26148 9.55e-4,9.5e-4 0.0021,0.002 0.0031,0.003 0.07037,0.0858 0.130674,0.17904 0.208256,0.25942 7.82e-4,7.8e-4 0.0018,0.001 0.0026,0.002 0.07042,0.0857 0.130679,0.1791 0.208256,0.25941 7.81e-4,7.8e-4 0.0018,0.001 0.0026,0.002 0.07061,0.0859 0.13101,0.17929 0.208773,0.25993 l 0.001,0.001 c 0.07095,0.0863 0.131697,0.18001 0.209806,0.26097 0.0018,0.002 0.0039,0.003 0.0057,0.005 0.06973,0.0844 0.129111,0.1765 0.205672,0.2558 l 0.001,0.001 c 0.07101,0.0862 0.131726,0.17996 0.209807,0.26097 l 0.0026,0.003 c 0.0707,0.0856 0.13113,0.17893 0.208773,0.25942 0.0012,10e-4 0.0024,0.002 0.0036,0.004 0.0703,0.0849 0.130113,0.17747 0.207222,0.25735 l 0.0021,0.002 c 0.07093,0.0857 0.131464,0.17939 0.20929,0.25993 4.36e-4,4.4e-4 0.0011,6e-4 0.0015,10e-4 0.07112,0.086 0.131288,0.1801 0.209289,0.26097 0.0011,0.001 0.0025,0.002 0.0036,0.003 0.07063,0.0852 0.130363,0.17855 0.207739,0.2589 0.001,0.001 0.0021,0.002 0.0031,0.003 0.07058,0.0849 0.130477,0.1779 0.207739,0.25787 9.55e-4,9.5e-4 0.0021,0.002 0.0031,0.003 0.07085,0.0853 0.130719,0.17901 0.208257,0.25942 l 0.0015,0.002 c 0.07119,0.0857 0.131386,0.17972 0.209289,0.26045 0.0016,0.002 0.0035,0.003 0.0052,0.005 0.07029,0.0843 0.129419,0.17682 0.206189,0.25631 l 0.001,0.001 c 0.07141,0.0859 0.131743,0.17999 0.209807,0.26097 8.64e-4,8.6e-4 0.0017,0.002 0.0026,0.003 0.07109,0.0853 0.131125,0.17895 0.208772,0.25942 0.0011,0.001 0.0025,0.002 0.0036,0.003 0.07076,0.0847 0.13002,0.17791 0.207222,0.25787 l 0.0021,0.002 c 0.07131,0.0855 0.131481,0.17921 0.20929,0.25994 l 10e-4,0.001 c 0.07157,0.0858 0.131726,0.18003 0.209807,0.26097 0.0017,0.002 0.0034,0.003 0.0052,0.005 0.07041,0.084 0.129544,0.17641 0.206189,0.2558 0.07195,0.0861 0.132392,0.1808 0.21084,0.262 l 0.0021,0.002 c 0.07146,0.0853 0.131465,0.17925 0.20929,0.25993 0.0012,0.001 0.0029,0.002 0.0041,0.004 0.02336,0.0322 0.05076,0.0614 0.07493,0.093 0.04661,0.0528 0.08265,0.11342 0.131775,0.16433 l 5.16e-4,5.1e-4 c 0.07191,0.0858 0.132045,0.18045 0.210323,0.26149 l 0.0021,0.002 c 0.07158,0.0853 0.131448,0.17921 0.209289,0.25994 0.0012,0.001 0.0024,0.002 0.0036,0.004 0.07099,0.0844 0.130129,0.17746 0.207223,0.25735 7.81e-4,7.8e-4 0.0018,0.001 0.0026,0.002 0.07162,0.0852 0.130967,0.17937 0.208773,0.25993 2.63e-4,2.6e-4 7.7e-4,2.5e-4 0.001,5.2e-4 0.07199,0.0856 0.131608,0.18038 0.209806,0.26148 7.82e-4,7.8e-4 0.0018,0.001 0.0026,0.002 0.07165,0.0851 0.131012,0.17933 0.208773,0.25993 0.0013,0.001 0.0028,0.002 0.0041,0.004 0.07107,0.0842 0.129674,0.17757 0.206706,0.25735 7.81e-4,7.8e-4 0.0018,0.001 0.0026,0.002 0.0717,0.0851 0.131035,0.1793 0.208772,0.25994 l 0.001,10e-4 c 0.07203,0.0854 0.131725,0.18001 0.209806,0.26096 0.0016,0.002 0.0035,0.003 0.0052,0.005 0.07092,0.0838 0.129433,0.1768 0.206189,0.25631 l 10e-4,0.001 c 0.07211,0.0855 0.131687,0.17991 0.209807,0.26097 l 0.0021,0.002 c 0.0719,0.0851 0.131464,0.17923 0.209289,0.25993 10e-4,0.001 0.0021,0.002 0.0031,0.003 0.07148,0.0844 0.130441,0.17778 0.207739,0.25787 7.82e-4,7.8e-4 0.0018,0.001 0.0026,0.002 0.0051,0.007 0.01089,0.0133 0.01602,0.0202 0.06679,0.0781 0.120972,0.16545 0.192753,0.23978 l 5.17e-4,5.1e-4 c 0.07236,0.0855 0.132047,0.18032 0.210323,0.26148 0.0016,0.002 0.0035,0.003 0.0052,0.005 0.07111,0.0837 0.129428,0.17677 0.206189,0.25631 h 5.17e-4 c 0.07255,0.0856 0.1319,0.18079 0.210323,0.262 6.12e-4,6.1e-4 0.0015,9.4e-4 0.0021,0.002 0.07214,0.085 0.13138,0.17966 0.20929,0.26045 7.85e-4,7.8e-4 0.0018,0.001 0.0026,0.002 0.07187,0.0845 0.130707,0.17869 0.208256,0.2589 l 0.0015,0.002 c 0.0723,0.0851 0.131786,0.17962 0.209806,0.26045 2.67e-4,2.6e-4 7.67e-4,2.5e-4 10e-4,5.1e-4 l 5.16e-4,5.2e-4 c 0.07235,0.0851 0.131244,0.18001 0.20929,0.26096 l 0.0015,0.002 c 0.07234,0.0851 0.131809,0.17958 0.209807,0.26044 9.58e-4,9.6e-4 0.0021,0.002 0.0031,0.003 0.07181,0.0842 0.130398,0.17825 0.207739,0.25838 6.13e-4,6.1e-4 0.0015,9.4e-4 0.0021,0.002 0.07236,0.085 0.131333,0.17957 0.20929,0.26045 l 5.17e-4,5.2e-4 c 0.07265,0.0853 0.132062,0.18034 0.210323,0.26148 9.58e-4,9.6e-4 0.0021,0.002 0.0031,0.003 0.07201,0.0844 0.130771,0.17861 0.208256,0.2589 l 5.17e-4,5.2e-4 c 0.07273,0.0852 0.132027,0.18042 0.210323,0.26148 6.13e-4,6.1e-4 0.0015,9.4e-4 0.0021,0.002 0.07241,0.0848 0.131394,0.17968 0.20929,0.26045 9.58e-4,9.6e-4 0.0021,0.002 0.0031,0.003 0.07194,0.0841 0.130423,0.17826 0.207739,0.25839 l 0.001,0.001 c 0.07265,0.085 0.131697,0.18007 0.209807,0.26097 7.85e-4,7.8e-4 0.0018,0.001 0.0026,0.002 0.07236,0.0846 0.131038,0.1793 0.208773,0.25994 9.58e-4,9.5e-4 0.0021,0.002 0.0031,0.003 0.07204,0.084 0.130392,0.17822 0.207739,0.25838 6.13e-4,6.1e-4 0.0015,9.4e-4 0.0021,0.002 0.07258,0.0847 0.131344,0.17971 0.20929,0.26045 l 0.001,0.001 c 0.07275,0.0849 0.131701,0.17994 0.209807,0.26096 0.0013,0.001 0.0028,0.002 0.0041,0.004 0.07189,0.0836 0.130133,0.1776 0.207222,0.25735 l 5.17e-4,5.1e-4 c 0.07297,0.0851 0.132008,0.18035 0.210323,0.26149 7.85e-4,7.8e-4 0.0018,0.001 0.0026,0.002 0.07251,0.0845 0.131031,0.17928 0.208773,0.25994 7.85e-4,7.8e-4 0.0018,10e-4 0.0026,0.002 0.07236,0.0841 0.130705,0.17867 0.208256,0.2589 l 0.0016,0.002 c 0.07279,0.0847 0.131796,0.17961 0.209806,0.26045 4.4e-4,4.4e-4 0.0011,6e-4 0.0015,0.001 0.0728,0.0847 0.1313,0.18002 0.20929,0.26096 7.85e-4,7.9e-4 0.0018,0.001 0.0026,0.002 0.0726,0.0844 0.131034,0.17932 0.208772,0.25993 9.59e-4,9.6e-4 0.0021,0.002 0.0031,0.003 0.07227,0.0839 0.130407,0.17824 0.207739,0.25839 6.13e-4,6.1e-4 0.0015,9.3e-4 0.0021,0.002 0.07282,0.0845 0.131343,0.17972 0.20929,0.26045 l 0.001,0.001 c 0.07299,0.0848 0.1317,0.17996 0.209807,0.26097 0.0014,0.001 0.0033,0.002 0.0047,0.004 0.07202,0.0834 0.129736,0.17757 0.206705,0.25735 l 5.17e-4,5.2e-4 c 0.07318,0.0849 0.132038,0.18039 0.210323,0.26148 6.13e-4,6.1e-4 0.0015,9.4e-4 0.0021,0.002 0.07291,0.0845 0.131347,0.17961 0.20929,0.26045 7.85e-4,7.8e-4 0.0018,0.001 0.0026,0.002 0.07257,0.084 0.130735,0.17867 0.208256,0.2589 l 0.0015,0.002 c 0.07302,0.0845 0.131794,0.17962 0.209806,0.26045 2.67e-4,2.6e-4 7.67e-4,2.5e-4 0.001,5.1e-4 0.0732,0.0848 0.131615,0.18036 0.209806,0.26149 0.0013,0.001 0.0028,0.002 0.0041,0.004 0.07226,0.0834 0.130136,0.17757 0.207223,0.25735 l 5.17e-4,5.2e-4 c 0.07331,0.0848 0.132047,0.18037 0.210323,0.26148 l 0.0021,0.002 c 0.07293,0.0843 0.131478,0.17919 0.209289,0.25993 7.86e-4,7.9e-4 0.0018,0.001 0.0026,0.002 0.07272,0.0839 0.130709,0.17862 0.208256,0.2589 l 0.0016,0.002 c 0.07314,0.0845 0.13179,0.17959 0.209807,0.26045 h 5.16e-4 c 0.0735,0.0848 0.13193,0.1808 0.210324,0.262 6.12e-4,6.1e-4 0.0015,9.3e-4 0.0021,0.002 0.07312,0.0844 0.131345,0.17962 0.209289,0.26045 7.85e-4,7.8e-4 0.0018,10e-4 0.0026,0.002 0.07277,0.0838 0.130735,0.17854 0.208256,0.2589 l 5.17e-4,5.2e-4 c 0.07346,0.0847 0.132038,0.18037 0.210323,0.26148 7.85e-4,7.8e-4 0.0018,0.001 0.0026,0.002 0.07302,0.0841 0.131012,0.17927 0.208772,0.25993 9.59e-4,9.6e-4 0.0021,0.002 0.0031,0.003 0.0727,0.0836 0.130366,0.17817 0.207739,0.25839 6.13e-4,6.1e-4 0.0015,9.3e-4 0.0021,0.002 0.07321,0.0843 0.131367,0.1797 0.20929,0.26045 l 0.001,0.001 c 0.07338,0.0845 0.131708,0.17995 0.209807,0.26097 0.0013,0.001 0.0028,0.002 0.0041,0.004 0.07253,0.0832 0.130108,0.17754 0.207222,0.25735 l 5.17e-4,5.2e-4 c 0.07359,0.0846 0.132034,0.18035 0.210323,0.26148 6.13e-4,6.1e-4 0.0015,9.4e-4 0.0021,0.002 0.07329,0.0843 0.131355,0.1796 0.20929,0.26045 9.58e-4,9.6e-4 0.0021,0.002 0.0031,0.003 0.07282,0.0835 0.130363,0.17829 0.20774,0.25839 6.12e-4,6.1e-4 0.0015,9.3e-4 0.0021,0.002 0.07332,0.0842 0.131375,0.17968 0.209289,0.26045 l 5.17e-4,5.1e-4 c 0.07366,0.0846 0.132037,0.18025 0.210323,0.26149 0.0013,10e-4 0.0028,0.002 0.0041,0.004 0.07264,0.0832 0.130119,0.17752 0.207223,0.25735 0.07385,0.0847 0.132376,0.18067 0.21084,0.262 l 0.0015,0.002 c 0.07349,0.0842 0.131779,0.17961 0.209806,0.26045 6.13e-4,6.1e-4 0.0015,9.4e-4 0.0021,0.002 0.07328,0.0839 0.130999,0.1794 0.208773,0.25993 7.85e-4,7.9e-4 0.0018,10e-4 0.0026,0.002 0.07328,0.0839 0.131014,0.17933 0.208773,0.25993 l 5.16e-4,5.2e-4 c 0.07375,0.0844 0.132059,0.18039 0.210323,0.26148 7.85e-4,7.9e-4 0.0018,0.001 0.0026,0.002 0.07329,0.0839 0.131046,0.1793 0.208773,0.25993 9.58e-4,9.6e-4 0.0021,0.002 0.0031,0.003 0.07296,0.0833 0.130401,0.17832 0.207739,0.25838 l 0.0015,0.002 c 0.07356,0.0841 0.131814,0.17962 0.209806,0.26045 2.68e-4,2.6e-4 7.67e-4,2.5e-4 0.001,5.1e-4 0.07374,0.0844 0.131634,0.18037 0.209806,0.26149 0.0014,0.001 0.0033,0.002 0.0047,0.004 0.07271,0.0829 0.129703,0.17763 0.206706,0.25735 l 0.001,0.001 c 0.07371,0.0842 0.1317,0.18 0.209807,0.26096 l 0.0021,0.002 c 0.07345,0.0839 0.131495,0.1792 0.209289,0.25993 8.64e-4,8.6e-4 0.0017,0.002 0.0026,0.003 0.07315,0.0834 0.130814,0.1782 0.208256,0.25838 6.12e-4,6.1e-4 0.0015,9.4e-4 0.0021,0.002 0.07362,0.084 0.131348,0.17965 0.20929,0.26045 l 5.17e-4,5.1e-4 c 0.07392,0.0843 0.132057,0.18041 0.210323,0.26149 0.0013,0.001 0.0028,0.002 0.0041,0.004 0.07288,0.0829 0.130139,0.17753 0.207222,0.25735 2.67e-4,2.7e-4 7.67e-4,2.5e-4 0.001,5.2e-4 0.07389,0.0842 0.131614,0.18041 0.209806,0.26148 l 0.001,0.001 c 0.07381,0.0841 0.131723,0.18005 0.209806,0.26096 0.0014,0.001 0.0033,0.002 0.0047,0.004 0.07285,0.0828 0.129711,0.1776 0.206706,0.25735 l 5.16e-4,5.1e-4 c 0.07403,0.0843 0.132032,0.1803 0.210323,0.26149 l 0.0016,0.002 c 0.0738,0.084 0.131787,0.17959 0.209806,0.26045 l 10e-4,0.001 c 0.07387,0.0841 0.131725,0.17996 0.209806,0.26097 0.0013,0.001 0.0028,0.002 0.0041,0.004 0.073,0.0829 0.130132,0.17753 0.207222,0.25735 l 5.17e-4,5.2e-4 c 0.07403,0.0842 0.132106,0.18035 0.210324,0.26148 9.6e-4,9.6e-4 0.002,0.002 0.003,0.003 0.0735,0.0836 0.13109,0.17886 0.20877,0.25941 7.9e-4,7.9e-4 0.002,0.001 0.003,0.002 0.0735,0.0833 0.13072,0.17864 0.20826,0.2589 l 5.2e-4,5.1e-4 c 0.0741,0.0842 0.13199,0.18037 0.21032,0.26149 6.1e-4,6.1e-4 0.001,9.4e-4 0.002,0.002 0.0738,0.0838 0.13135,0.17962 0.20929,0.26045 9.5e-4,9.5e-4 0.002,0.002 0.003,0.003 0.0733,0.0831 0.13039,0.17829 0.20774,0.25838 l 5.1e-4,5.2e-4 c 0.0742,0.0842 0.13205,0.18031 0.21033,0.26148 l 0.002,0.002 c 0.0739,0.0839 0.13183,0.17961 0.2098,0.26045 9.6e-4,9.6e-4 0.002,0.002 0.003,0.003 0.0733,0.0831 0.13046,0.17827 0.20774,0.25839 l 10e-4,0.001 c 0.074,0.084 0.13178,0.17997 0.2098,0.26097 7.9e-4,7.8e-4 0.002,0.001 0.003,0.002 0.0738,0.0836 0.13099,0.17932 0.20877,0.25994 9.6e-4,9.5e-4 0.002,0.002 0.003,0.003 0.0734,0.0831 0.1304,0.17823 0.20774,0.25838 9.6e-4,9.6e-4 0.002,0.002 0.003,0.003 0.0738,0.0834 0.13101,0.17897 0.20877,0.25941 l 5.2e-4,5.2e-4 c 0.0743,0.0841 0.13202,0.18036 0.21032,0.26148 10e-4,0.001 0.003,0.002 0.004,0.004 0.0732,0.0827 0.13012,0.17748 0.20722,0.25735 0.0744,0.0842 0.13239,0.18075 0.21084,0.262 l 5.2e-4,5.1e-4 c 0.0743,0.0841 0.13207,0.18033 0.21032,0.26149 6.1e-4,6.1e-4 0.001,9.3e-4 0.002,0.002 0.074,0.0837 0.13133,0.1796 0.20929,0.26045 7.8e-4,7.8e-4 0.002,0.001 0.003,0.002 0.0737,0.0832 0.13069,0.17859 0.20826,0.2589 l 5.1e-4,5.2e-4 c 0.0744,0.0841 0.13202,0.1803 0.21033,0.26148 6.9e-4,6.9e-4 10e-4,10e-4 0.002,0.002 0.0739,0.0836 0.13147,0.17925 0.20929,0.25993 9.6e-4,9.6e-4 0.002,0.002 0.003,0.003 0.0735,0.083 0.13041,0.17823 0.20774,0.25839 2.7e-4,2.6e-4 7.7e-4,2.5e-4 0.001,5.1e-4 0.0743,0.084 0.13166,0.18037 0.2098,0.26149 10e-4,0.001 0.002,0.002 0.004,0.003 0.0737,0.0831 0.13073,0.17856 0.20825,0.2589 9.6e-4,9.5e-4 0.002,0.002 0.003,0.003 0.0738,0.0831 0.13068,0.17864 0.20825,0.2589 l 5.2e-4,5.2e-4 c 0.0744,0.0839 0.13201,0.18034 0.21032,0.26148 2.7e-4,2.6e-4 7.7e-4,2.5e-4 0.001,5.1e-4 0.0744,0.0839 0.13158,0.18045 0.20981,0.26149 10e-4,0.001 0.003,0.002 0.004,0.004 0.0734,0.0826 0.13014,0.17751 0.20722,0.25735 l 5.1e-4,5.2e-4 c 0.0745,0.0839 0.13207,0.18043 0.21033,0.26148 2.6e-4,2.7e-4 7.6e-4,2.5e-4 0.001,5.2e-4 0.0744,0.0839 0.13164,0.18041 0.20981,0.26148 10e-4,10e-4 0.003,0.002 0.005,0.004 0.0733,0.0825 0.12974,0.17754 0.2067,0.25735 2.7e-4,2.7e-4 7.7e-4,2.5e-4 0.001,5.2e-4 0.0744,0.0838 0.13167,0.18046 0.2098,0.26148 l 10e-4,0.001 c 0.0743,0.0837 0.13169,0.17999 0.2098,0.26097 7.9e-4,7.8e-4 0.002,0.001 0.003,0.002 0.074,0.0834 0.13106,0.17927 0.20877,0.25994 0.002,0.002 0.004,0.003 0.005,0.005 0.0733,0.0822 0.12984,0.17676 0.2067,0.25631 l 5.2e-4,5.2e-4 c 0.0509,0.0572 0.0911,0.12234 0.14366,0.17828 0.16323,0.24323 0.34222,0.4746 0.53072,0.69919 0.0669,0.0866 0.13574,0.17178 0.20619,0.25579 0.0688,0.0892 0.13987,0.17662 0.21239,0.26304 0.0689,0.0893 0.13977,0.17704 0.21239,0.26355 0.0656,0.0848 0.1331,0.16827 0.20205,0.25063 0.0695,0.0901 0.14118,0.17876 0.21446,0.26613 0.0677,0.0875 0.13755,0.17346 0.20877,0.25838 0.0667,0.0862 0.13506,0.1711 0.20516,0.25477 0.0696,0.0901 0.14115,0.17877 0.21445,0.26613 0.068,0.0879 0.13776,0.1746 0.20929,0.25993 0.068,0.0879 0.13826,0.17413 0.20981,0.25942 0.0673,0.0871 0.13645,0.17284 0.20722,0.25735 0.0681,0.0882 0.13817,0.17486 0.20981,0.26045 0.0689,0.0891 0.13941,0.17705 0.21187,0.26355 0.067,0.0866 0.13586,0.17173 0.20619,0.2558 0.0676,0.0875 0.13722,0.17344 0.20826,0.25838 0.0699,0.0905 0.14191,0.17937 0.21549,0.26716 0.0673,0.0869 0.13653,0.17243 0.20722,0.25684 0.0682,0.0881 0.13868,0.17442 0.21032,0.25993 0.068,0.0879 0.13782,0.17454 0.20929,0.25993 0.0674,0.087 0.13648,0.17281 0.20723,0.25735 0.0671,0.0867 0.13626,0.17202 0.2067,0.25632 0.0697,0.0902 0.14116,0.17907 0.21446,0.26665 0.067,0.0865 0.13585,0.17171 0.20619,0.25579 0.0694,0.0898 0.14097,0.17796 0.21394,0.2651 0.067,0.0864 0.13598,0.17127 0.20619,0.25529 0.0679,0.0877 0.13749,0.17415 0.20877,0.25941 0.069,0.0892 0.13994,0.17694 0.21239,0.26355 0.0684,0.0884 0.13905,0.17509 0.21084,0.26097 0.0671,0.0866 0.13582,0.17208 0.20619,0.25631 0.0677,0.0874 0.13725,0.17341 0.20826,0.25838 0.0689,0.089 0.13958,0.17661 0.21187,0.26304 0.0683,0.0881 0.13869,0.17476 0.21032,0.26045 0.0677,0.0873 0.13727,0.17344 0.20826,0.25838 0.0677,0.0874 0.1373,0.17342 0.20825,0.25838 0.0697,0.09 0.14132,0.17867 0.21446,0.26613 0.0658,0.0848 0.13369,0.16808 0.20257,0.25064 0.0696,0.0899 0.14089,0.17872 0.21394,0.26613 0.0675,0.0871 0.13706,0.17264 0.20774,0.25735 0.0698,0.09 0.1413,0.17867 0.21446,0.26613 0.0667,0.0858 0.13539,0.17018 0.20515,0.25373 0.0678,0.0875 0.13725,0.17379 0.20826,0.2589 0.0689,0.0888 0.13972,0.17616 0.21187,0.26252 0.0668,0.0861 0.13528,0.17096 0.20516,0.25476 0.0701,0.0905 0.14199,0.1797 0.21549,0.26769 0.0668,0.0859 0.13533,0.17058 0.20516,0.25424 0.0684,0.0882 0.13866,0.1751 0.21032,0.26097 0.0683,0.088 0.13834,0.17477 0.20981,0.26045 0.0695,0.0897 0.14111,0.17784 0.21394,0.2651 0.0662,0.0852 0.13395,0.16919 0.20308,0.25218 0.071,0.0916 0.14417,0.1817 0.2186,0.27079 0.065,0.0836 0.13162,0.16604 0.19947,0.24753 0.0696,0.0897 0.1411,0.17785 0.21394,0.2651 0.0676,0.087 0.13653,0.1731 0.20722,0.25786 0.0682,0.0879 0.13847,0.17435 0.20981,0.25993 0.0689,0.0887 0.13933,0.1762 0.21135,0.26252 0.0684,0.0881 0.13879,0.17469 0.21033,0.26045 0.0674,0.0868 0.13677,0.17223 0.20722,0.25683 0.0687,0.0885 0.13899,0.17582 0.21084,0.262 0.0672,0.0864 0.13605,0.17156 0.20619,0.2558 0.07,0.0901 0.14179,0.17889 0.21497,0.26665 0.0678,0.0871 0.13745,0.17294 0.20826,0.25786 0.0667,0.0858 0.13498,0.17058 0.20464,0.25425 0.0698,0.09 0.14143,0.17855 0.21445,0.26614 0.068,0.0874 0.13776,0.17365 0.20878,0.2589 0.0675,0.0867 0.13678,0.17224 0.20722,0.25683 0.0684,0.0881 0.13832,0.1751 0.2098,0.26096 0.0688,0.0885 0.1395,0.1757 0.21136,0.262 0.0675,0.0868 0.1368,0.17224 0.20722,0.25683 0.0694,0.0892 0.14047,0.17711 0.21291,0.26407 0.0674,0.0867 0.13638,0.17228 0.20671,0.25683 0.0688,0.0885 0.13949,0.1757 0.21135,0.262 0.0693,0.0891 0.14056,0.17671 0.21291,0.26355 0.0658,0.0844 0.13305,0.16771 0.20154,0.25012 0.0695,0.0894 0.14084,0.17745 0.21342,0.26458 0.0679,0.0872 0.13743,0.17328 0.20826,0.25838 0.0689,0.0886 0.13943,0.1761 0.21135,0.26252 0.0675,0.0868 0.13682,0.17218 0.20723,0.25683 0.069,0.0886 0.13943,0.17607 0.21135,0.26252 0.0678,0.0872 0.13756,0.17282 0.20826,0.25786 0.0681,0.0875 0.13776,0.17401 0.20877,0.25942 0.0684,0.0879 0.13848,0.17467 0.20981,0.26045 0.0691,0.0888 0.13981,0.17641 0.21187,0.26303 0.0684,0.0878 0.13858,0.17428 0.20981,0.25993 0.0674,0.0865 0.13647,0.17189 0.2067,0.25632 0.0694,0.0891 0.14054,0.1771 0.21291,0.26406 0.0689,0.0885 0.13954,0.17568 0.21136,0.262 0.0659,0.0845 0.13354,0.16762 0.20205,0.25012 0.0693,0.0891 0.14013,0.17712 0.21239,0.26406 0.0691,0.0888 0.13983,0.1764 0.21188,0.26304 0.0672,0.0862 0.13623,0.17109 0.20618,0.25528 0.0694,0.0891 0.14012,0.17714 0.21239,0.26406 0.0678,0.087 0.13717,0.1729 0.20774,0.25787 0.0688,0.0883 0.13923,0.17532 0.21084,0.26148 0.0679,0.0871 0.13763,0.17282 0.20826,0.25787 0.0698,0.0896 0.14121,0.17812 0.21394,0.26562 0.0661,0.0846 0.1339,0.16792 0.20257,0.25063 0.0697,0.0896 0.14077,0.17821 0.21342,0.26561 0.0683,0.0876 0.13825,0.1739 0.20929,0.25942 0.0687,0.0881 0.13889,0.17495 0.21033,0.26096 0.0675,0.0865 0.13654,0.17182 0.2067,0.25632 0.0684,0.0878 0.13864,0.17418 0.20981,0.25993 0.0684,0.0878 0.13812,0.17467 0.20929,0.26045 0.069,0.0884 0.13961,0.17563 0.21136,0.262 0.0672,0.0861 0.13586,0.17111 0.20567,0.25528 0.0705,0.0905 0.14261,0.17984 0.21601,0.2682 0.0684,0.0876 0.13869,0.17383 0.2098,0.25942 0.0663,0.0849 0.13424,0.16864 0.20309,0.25166 0.0705,0.0905 0.1426,0.17985 0.21601,0.2682 0.0663,0.0849 0.13422,0.16863 0.20309,0.25167 0.0687,0.0882 0.13887,0.17533 0.21032,0.26148 0.0692,0.0887 0.13991,0.17633 0.21187,0.26303 0.068,0.0871 0.13764,0.17277 0.20826,0.25787 0.0689,0.0883 0.13919,0.17568 0.21084,0.262 0.0694,0.0889 0.14081,0.17617 0.21291,0.26303 0.0663,0.0848 0.1338,0.16868 0.20257,0.25167 0.0699,0.0896 0.1413,0.17806 0.21394,0.26561 0.0671,0.0859 0.13556,0.17074 0.20515,0.25477 0.0703,0.0902 0.14236,0.17907 0.21549,0.26716 0.0671,0.0859 0.1355,0.17078 0.20516,0.25477 0.0682,0.0873 0.13797,0.17349 0.20877,0.2589 0.07,0.0897 0.14173,0.17797 0.21446,0.26562 0.0671,0.0859 0.13551,0.17075 0.20515,0.25476 0.0686,0.0878 0.13862,0.17455 0.20981,0.26045 0.0692,0.0886 0.14006,0.17587 0.21187,0.26252 0.067,0.0858 0.13564,0.1703 0.20516,0.25424 0.0692,0.0887 0.13953,0.17636 0.21136,0.26304 0.0699,0.0895 0.14139,0.17762 0.21394,0.2651 0.0679,0.0869 0.13725,0.17285 0.20774,0.25786 0.0683,0.0874 0.13843,0.17345 0.20929,0.2589 0.0685,0.0877 0.13871,0.17417 0.2098,0.25993 0.067,0.0857 0.13521,0.17041 0.20464,0.25425 0.0693,0.0887 0.14,0.17629 0.21187,0.26303 0.0693,0.0887 0.14,0.17629 0.21188,0.26304 0.068,0.087 0.13773,0.17271 0.20825,0.25786 0.0697,0.0892 0.14061,0.17739 0.21291,0.26459 0.0665,0.085 0.1347,0.1689 0.20361,0.25218 0.0698,0.0894 0.14101,0.17767 0.21342,0.2651 0.0678,0.0867 0.13694,0.17246 0.20722,0.25735 0.0685,0.0877 0.13877,0.17411 0.20981,0.25993 0.0696,0.089 0.1407,0.17696 0.2129,0.26406 0.0671,0.0857 0.13566,0.17033 0.20516,0.25425 0.0695,0.0888 0.14035,0.17662 0.21239,0.26355 0.0684,0.0875 0.1384,0.17381 0.20929,0.25942 0.0679,0.0868 0.1374,0.17236 0.20774,0.25735 0.0685,0.0876 0.13831,0.17416 0.20929,0.25993 0.0683,0.0874 0.13798,0.17384 0.20877,0.25942 0.0685,0.0876 0.13832,0.17417 0.20929,0.25993 0.0701,0.0896 0.14181,0.17792 0.21446,0.26561 0.067,0.0856 0.13526,0.17038 0.20464,0.25425 0.0694,0.0887 0.14047,0.17619 0.21239,0.26304 0.0684,0.0874 0.13839,0.17379 0.20929,0.25941 0.068,0.0868 0.13734,0.17279 0.20774,0.25787 0.0692,0.0885 0.14015,0.17584 0.21187,0.26251 0.0676,0.0864 0.13671,0.17169 0.2067,0.25632 0.0686,0.0878 0.13871,0.17449 0.20981,0.26045 0.069,0.0882 0.13934,0.17556 0.21084,0.262 0.068,0.0869 0.13735,0.17276 0.20774,0.25786 0.0687,0.0878 0.13872,0.17448 0.20981,0.26045 0.0699,0.0894 0.1415,0.17757 0.21394,0.2651 0.0663,0.0846 0.13402,0.16818 0.20257,0.25115 0.07,0.0895 0.14143,0.17796 0.21394,0.26562 0.0687,0.0878 0.13918,0.1744 0.21032,0.26045 0.0683,0.0871 0.13814,0.17302 0.20877,0.25838 0.0679,0.0867 0.137,0.1724 0.20723,0.25735 0.0695,0.0888 0.14043,0.17655 0.21239,0.26355 0.0676,0.0864 0.13673,0.17167 0.2067,0.25631 0.0679,0.0867 0.13703,0.17236 0.20723,0.25735 0.0709,0.0906 0.14313,0.18002 0.21652,0.26872 0.0668,0.0853 0.13505,0.16956 0.20412,0.25321 0.0688,0.0879 0.13866,0.17488 0.20981,0.26097 0.0695,0.0887 0.14052,0.17612 0.21239,0.26303 0.0686,0.0876 0.13884,0.17406 0.2098,0.25993 0.068,0.0868 0.13742,0.17273 0.20774,0.25787 0.0692,0.0883 0.13983,0.17548 0.21136,0.262 0.0677,0.0864 0.1367,0.17207 0.20671,0.25683 0.0689,0.088 0.13956,0.17474 0.21084,0.26097 0.0682,0.087 0.13776,0.17305 0.20825,0.25838 0.0694,0.0886 0.14011,0.17619 0.21188,0.26303 0.0675,0.0862 0.13639,0.17132 0.20618,0.2558 0.0698,0.0891 0.14119,0.1772 0.21343,0.26458 0.0679,0.0866 0.13707,0.17237 0.20722,0.25735 0.0692,0.0883 0.13985,0.17545 0.21136,0.262 0.0671,0.0856 0.13537,0.17029 0.20464,0.25425 0.0716,0.0915 0.14498,0.18167 0.2191,0.2713 0.0662,0.0842 0.13378,0.16745 0.20206,0.25011 0.068,0.0867 0.13699,0.17279 0.20722,0.25787 0.0701,0.0895 0.14193,0.17784 0.21446,0.26562 0.27873,0.35551 0.57055,0.70103 0.88677,1.02887 h 10e-4 c 1.135,1.135 2.45325,2.03678 3.95325,2.70578 l 10e-4,10e-4 c 1.52,0.64799 3.15179,0.97203 4.89479,0.97203 h 0.001 c 1.94599,0 3.77108,-0.41495 5.47408,-1.24695 h 10e-4 c 1.18013,-0.58356 2.24242,-1.34055 3.20394,-2.24689 l -0.0548,0.14779 h 0.13384 0.17415 l -0.0972,0.262 h 0.12093 0.18758 l -0.0966,0.26097 h 0.10697 0.20102 l -0.0966,0.262 h 0.0935 0.21394 l -0.0966,0.26199 h 0.0811 0.22634 l -0.0966,0.26097 h 0.0672 0.24082 l -0.0972,0.262 h 0.0543 0.25425 l -0.0971,0.262 h 0.0408 0.26665 l -0.0966,0.26097 h 0.0279 0.28008 l -0.0971,0.262 h 0.015 0.293 l -0.0966,0.26199 h 0.001 6.66006 v -0.001 l 1.21595,-3.25355 h 0.002 5.90662 l 0.0429,0.11472 h 0.11472 l 0.0977,0.26097 h 0.11266 l 0.0982,0.262 h 0.11266 l 0.0982,0.262 h 0.11369 l 0.0977,0.26097 h 0.10593 0.007 l 0.0977,0.262 h 0.093 0.0196 l 0.0982,0.26199 h 0.0801 0.0336 l 0.0977,0.26097 h 0.0667 0.0465 l 0.0977,0.262 h 0.0538 0.0594 l 0.0977,0.262 h 0.0403 0.0729 l 0.0977,0.26097 h 0.0274 0.0863 l 0.0977,0.262 h 0.0139 0.0997 l 0.0982,0.26199 h 6.66006 v -0.001 l -2.2257,-6.01772 h 0.10645 v 0.262 h 0.21136 v 0.26097 h 0.21084 v 0.262 h 0.21084 v 0.262 h 0.21135 v 0.26096 h 0.21084 v 0.262 h 0.20981 0.001 v 0.262 h 0.19792 0.0134 v 0.26097 h 0.185 0.0258 v 0.262 h 0.17312 0.0377 v 0.262 h 0.16123 0.0501 v 0.26199 h 0.14882 0.063 v 0.26097 h 0.13488 0.076 v 0.262 h 0.12299 0.0879 v 0.262 h 0.1111 0.10026 v 0.26097 h 0.0987 0.11214 v 0.262 h 0.0858 0.12506 v 0.26199 h 0.0744 0.13694 v 0.26097 h 0.062 0.14883 v 0.262 h 0.0501 0.16071 v 0.262 h 0.0372 0.17415 v 0.26097 h 0.0248 0.18604 v 0.262 h 0.0129 0.19895 v 0.26199 h 6.17327 v -10e-4 -10.06708 c 0.0324,0.0646 0.0803,0.11368 0.13746,0.15399 0.001,0.002 0.0563,0.0935 0.0563,0.0935 0.003,0.006 0.007,0.009 0.0139,0.0109 0.033,0.0659 0.0821,0.1159 0.14004,0.15709 0.001,0.002 0.0568,0.0941 0.0568,0.0941 0.003,0.005 0.007,0.009 0.0129,0.0109 0.0335,0.0659 0.083,0.11566 0.14108,0.15658 0.001,0.002 0.0574,0.0946 0.0574,0.0946 0.003,0.005 0.007,0.008 0.0129,0.01 0.033,0.0661 0.0825,0.11639 0.14108,0.15762 0.001,0.002 0.0568,0.0935 0.0568,0.0935 0.003,0.005 0.007,0.008 0.0119,0.01 0.0337,0.0668 0.0833,0.11728 0.14211,0.15865 0.001,0.002 0.0568,0.0935 0.0568,0.0935 0.003,0.005 0.007,0.008 0.0119,0.009 0.0331,0.0667 0.0831,0.11728 0.14211,0.15864 0.001,0.002 0.0574,0.0946 0.0574,0.0946 0.003,0.004 0.006,0.007 0.0109,0.008 0.0341,0.0681 0.0851,0.11906 0.14521,0.16071 0.001,0.002 0.0558,0.0925 0.0558,0.0925 0.002,0.004 0.005,0.007 0.01,0.009 0.0339,0.0673 0.0845,0.11801 0.14418,0.15968 0.001,0.002 0.0568,0.0935 0.0568,0.0935 0.002,0.004 0.005,0.006 0.009,0.008 0.034,0.068 0.0845,0.11909 0.1447,0.16071 0.001,0.002 0.0568,0.0935 0.0568,0.0935 0.002,0.003 0.005,0.006 0.009,0.007 0.0342,0.0684 0.0856,0.11975 0.14625,0.16175 0.001,0.002 0.0558,0.0925 0.0558,0.0925 0.002,0.004 0.004,0.006 0.008,0.007 0.0342,0.0684 0.0859,0.11956 0.14676,0.16175 0.001,0.002 0.0563,0.0935 0.0563,0.0935 0.002,0.003 0.004,0.005 0.008,0.006 0.034,0.0687 0.0852,0.12024 0.14572,0.16227 0.001,0.002 0.0568,0.0941 0.0568,0.0941 0.001,0.003 0.004,0.005 0.007,0.006 0.0348,0.0685 0.0867,0.12049 0.1478,0.16278 10e-4,0.002 0.0563,0.0925 0.0563,0.0925 l 0.007,0.006 c 0.0343,0.0692 0.0864,0.12096 0.1478,0.1633 l 0.0563,0.093 0.006,0.005 c 0.0348,0.0689 0.0865,0.12042 0.1478,0.16278 0.001,0.002 0.0568,0.0941 0.0568,0.0941 l 0.006,0.004 c 0.0345,0.0702 0.087,0.1218 0.14935,0.16433 0.001,0.002 0.0558,0.0925 0.0558,0.0925 l 0.005,0.004 c 0.035,0.07 0.0877,0.12208 0.14986,0.16485 l 0.0563,0.093 0.005,0.004 c 0.0351,0.0695 0.088,0.12135 0.15038,0.16434 0.001,0.002 0.0563,0.0935 0.0563,0.0935 l 0.003,0.003 c 0.0352,0.0705 0.0888,0.12249 0.15193,0.16536 0.001,0.002 0.0558,0.0925 0.0558,0.0925 l 0.003,0.003 c 0.0352,0.0705 0.0889,0.12322 0.15193,0.16639 0.001,0.002 0.0563,0.0925 0.0563,0.0925 l 0.002,0.002 c 0.0353,0.0712 0.089,0.12371 0.15244,0.16692 l 0.0563,0.093 0.002,0.001 c 0.0352,0.071 0.0887,0.12366 0.15193,0.16691 0.001,0.002 0.0568,0.0941 0.0568,0.0941 l 10e-4,10e-4 c 0.036,0.0715 0.0905,0.12458 0.15452,0.16795 0.001,0.002 0.0558,0.092 0.0558,0.092 l 10e-4,10e-4 c 0.0354,0.0713 0.0895,0.12442 0.15348,0.16795 l 0.0563,0.093 c 0.061,0.122 0.16285,0.20288 0.30385,0.24288 l 0.001,10e-4 c 0.142,0.04 0.27332,0.0599 0.39532,0.0599 0.102,0 0.22284,-0.02 0.36484,-0.061 0.142,-0.04 0.24285,-0.12188 0.30385,-0.24288 l 0.86765,-1.43195 h 0.17053 v 0.262 h 0.21084 v 0.26096 h 0.21084 v 0.262 h 0.20929 0.002 v 0.262 h 0.19689 0.014 v 0.26097 h 0.185 0.0258 v 0.262 h 0.17312 0.0382 v 0.262 h 0.15968 0.0512 v 0.26199 h 0.14779 0.0631 v 0.26097 h 0.13591 0.0754 v 0.262 h 0.12403 0.0868 v 0.262 h 0.11111 0.10077 v 0.26097 h 0.0982 0.11266 v 0.262 h 0.0863 0.12505 v 0.26199 h 0.0739 0.13694 v 0.26097 h 0.061 0.14986 v 0.262 h 0.0491 0.16227 v 0.262 h 0.0367 0.17415 v 0.26097 h 0.0248 0.18604 v 0.262 h 0.0124 0.19896 v 0.26199 h 6.17481 v -10e-4 -23.59959 h -0.002 -0.20981 v -0.262 h -0.0119 -0.19947 v -0.262 h -0.0238 -0.18707 v -0.26097 h -0.0362 -0.17467 v -0.262 h -0.047 -0.16382 v -0.262 h -0.0594 -0.15192 v -0.262 h -0.0708 -0.14004 v -0.26096 h -0.0822 -0.12867 v -0.262 h -0.094 -0.11731 v -0.262 h -0.10594 -0.1049 v -0.26148 h -0.11679 -0.0941 v -0.262 h -0.12919 -0.0832 v -0.262 h -0.13953 -0.0713 v -0.26097 h -0.1509 -0.0599 v -0.262 h -0.1633 -0.0481 v -0.262 h -0.17466 -0.0362 v -0.26096 h -0.18603 -0.0248 v -0.262 h -0.19792 -0.0129 v -0.262 h -0.21032 -0.001 v -0.26097 h -0.21084 v -0.262 h -0.21084 v -0.262 h -0.21136 v -0.26096 H 212.062 v -0.262 h -0.21187 v -0.262 h -0.21136 v -0.262 h -0.21084 v -0.26097 h -0.21084 v -0.262 h -0.21084 v -0.262 h -0.21135 v -0.26096 h -0.21084 v -0.262 h -0.21084 v -0.262 h -0.21136 v -0.26097 h -0.21084 v -0.262 h -0.21084 v -0.262 h -0.21239 v -0.26096 h -0.21084 v -0.262 h -0.21084 v -0.262 h -0.21136 v -0.26097 h -0.21084 v -0.262 h -0.21084 v -0.262 h -0.21084 v -0.262 h -0.21135 v -0.26096 h -0.21084 v -0.262 h -0.21084 v -0.262 h -0.21136 v -0.26097 h -0.21187 v -0.262 h -0.21084 v -0.262 h -0.21136 v -0.26096 h -0.21084 v -0.262 h -0.21084 v -0.262 h -0.21084 v -0.26097 h -0.21136 v -0.262 h -0.21084 v -0.262 h -0.21084 v -0.26096 h -0.21135 v -0.262 h -0.21084 v -0.26252 h -0.21188 v -0.26096 h -0.21135 v -0.262 h -0.21084 v -0.262 h -0.21084 v -0.262 h -0.21136 v -0.26097 h -0.21084 v -0.262 h -0.21084 v -0.262 h -0.21084 v -0.26096 h -0.21135 v -0.262 h -0.21084 v -0.262 h -0.21084 v -0.26097 h -0.21136 v -0.262 h -0.21187 v -0.262 h -0.21084 v -0.26096 h -0.21136 v -0.262 h -0.21084 v -0.262 h -0.21084 v -0.26097 h -0.21084 v -0.262 h -0.21136 v -0.262 h -0.21084 v -0.262 h -0.21084 v -0.26096 h -0.21135 v -0.262 h -0.21084 v -0.262 h -0.21188 v -0.26097 h -0.21135 v -0.262 h -0.21084 v -0.262 h -0.21084 v -0.26096 h -0.21084 v -0.262 h -0.21136 v -0.262 h -0.21084 v -0.26097 h -0.21084 v -0.262 h -0.21135 v -0.262 h -0.21084 v -0.26096 h -0.21084 v -0.262 h -0.21239 v -0.262 h -0.21084 v -0.26097 h -0.21084 v -0.262 h -0.21136 v -0.262 h -0.21084 v -0.262 h -0.21084 v -0.26096 h -0.21084 v -0.262 h -0.21136 v -0.262 h -0.21084 v -0.26097 h -0.21084 v -0.262 h -0.21135 v -0.262 h -0.21188 v -0.26148 h -0.21084 v -0.262 h -0.21135 v -0.262 h -0.21084 v -0.26096 h -0.21084 v -0.262 h -0.21084 v -0.262 h -0.21136 v -0.26097 h -0.21084 v -0.262 h -0.21084 v -0.262 h -0.21136 v -0.262 h -0.21084 v -0.26096 h -0.21084 v -0.262 h -0.21239 v -0.262 h -0.21084 v -0.26097 h -0.21084 v -0.262 h -0.21135 v -0.262 h -0.21084 v -0.26096 h -0.21084 v -0.262 h -0.21084 v -0.262 h -0.21136 v -0.26097 h -0.21084 v -0.262 h -0.21084 v -0.262 h -0.21135 V 204.325 h -0.21188 v -0.262 h -0.21084 v -0.262 h -0.21135 v -0.26097 h -0.21084 v -0.262 h -0.21084 v -0.262 h -0.21084 v -0.262 h -0.21136 v -0.26096 h -0.21084 v -0.262 h -0.21084 v -0.262 h -0.21136 v -0.26097 h -0.21084 v -0.262 h -0.21187 v -0.262 h -0.21136 v -0.26096 h -0.21084 v -0.262 h -0.21084 v -0.262 h -0.21135 v -0.26097 h -0.21084 v -0.262 h -0.21084 v -0.262 h -0.21084 v -0.26096 h -0.21136 v -0.262 h -0.21084 v -0.262 h -0.21084 v -0.262 h -0.21239 v -0.26097 h -0.21084 v -0.262 h -0.21084 v -0.262 h -0.21135 v -0.26148 h -0.21084 v -0.262 h -0.21084 v -0.262 h -0.21084 v -0.26096 h -0.21136 v -0.262 h -0.21084 v -0.262 h -0.21084 v -0.26097 h -0.21136 v -0.262 h -0.21084 v -0.262 h -0.21187 v -0.26096 h -0.21136 v -0.262 h -0.21084 v -0.262 h -0.21084 v -0.26097 h -0.21135 v -0.262 h -0.21084 v -0.262 h -0.21084 v -0.262 h -0.21084 v -0.26096 h -0.21136 v -0.262 h -0.21084 v -0.262 h -0.21084 v -0.26097 h -0.21239 v -0.262 h -0.21084 v -0.262 h -0.21084 v -0.26096 h -0.21136 v -0.262 h -0.21084 v -0.262 h -0.21084 v -0.26097 h -0.21084 v -0.262 h -0.21135 v -0.262 h -0.21084 v -0.26096 h -0.21084 v -0.262 h -0.21136 v -0.262 H 178.709 v -0.262 h -0.21084 v -0.26097 h -0.21136 v -0.262 h -0.21084 v -0.262 h -0.21084 v -0.26096 h -0.21135 v -0.262 h -0.21084 v -0.262 h -0.21084 v -0.26097 h -0.21084 v -0.262 h -0.21136 v -0.262 h -0.21084 v -0.26096 h -0.21187 v -0.262 h -0.21136 v -0.262 h -0.21084 v -0.26097 h -0.21084 v -0.262 h -0.21136 v -0.262 h -0.21084 v -0.262 h -0.21084 v -0.26148 h -0.21084 v -0.262 h -0.21135 v -0.262 h -0.21084 v -0.26097 h -0.21084 v -0.26199 h -0.21239 v -0.262 H 173.854 v -0.26097 h -0.21084 v -0.262 h -0.21136 v -0.262 h -0.21084 v -0.26097 h -0.21084 v -0.26199 h -0.21136 v -0.262 h -0.21083 v -0.26097 h -0.21084 v -0.262 h -0.21084 v -0.262 h -0.21136 v -0.26097 h -0.21084 v -0.26199 h -0.21187 v -0.262 h -0.21136 v -0.262 h -0.21084 v -0.26097 h -0.21084 v -0.262 h -0.21136 v -0.262 h -0.21084 v -0.26096 h -0.21084 v -0.262 h -0.21084 v -0.262 h -0.21135 v -0.26097 h -0.21084 v -0.262 h -0.21084 v -0.262 h -0.21239 v -0.26096 H 168.999 v -0.262 h -0.21084 v -0.262 h -0.21136 v -0.26097 h -0.21084 v -0.262 h -0.21084 v -0.262 h -0.21136 v -0.262 h -0.21084 v -0.26096 h -0.21084 v -0.262 h -0.21084 v -0.262 h -0.21135 v -0.26097 H 166.888 v -0.262 h -0.21084 v -0.262 h -0.21135 v -0.26096 h -0.21084 v -0.262 h -0.21084 v -0.262 h -0.21136 v -0.26149 h -0.21084 v -0.262 h -0.21084 v -0.262 h -0.21084 v -0.26096 h -0.21135 v -0.262 h -0.21084 v -0.262 h -0.21188 v -0.26097 h -0.21135 v -0.262 h -0.154 l -0.0568,-0.15399 v -0.10801 h -0.0398 l -0.46871,-1.26607 h 0.25632 l -0.0966,0.26148 h 0.30799 l -0.0971,0.262 h 0.29714 0.0109 l -0.0971,0.262 h 0.28319 0.0248 l -0.0966,0.26097 h 0.26871 0.0393 l -0.0971,0.262 h 0.25476 0.0532 l -0.0971,0.262 h 0.24133 0.0667 l -0.0966,0.26096 h 0.22686 0.0822 l -0.0971,0.262 h 0.21187 0.0961 l -0.0971,0.262 h 0.19792 0.11007 l -0.0972,0.262 h 0.18396 0.12403 l -0.0966,0.26097 h 0.17002 0.13797 l -0.0971,0.262 h 0.15607 0.15192 l -0.0971,0.262 h 0.14211 0.16588 l -0.0966,0.26096 h 0.12764 0.18035 l -0.0971,0.262 h 0.1142 0.19379 l -0.0971,0.262 h 0.10025 0.20774 l -0.0966,0.26097 h 0.0858 0.22221 l -0.0972,0.262 h 0.0718 0.23719 l -0.0971,0.262 h 0.0568 0.25063 l -0.0966,0.26096 h 0.0434 0.2651 l -0.0972,0.262 h 0.0289 0.27906 l -0.0972,0.262 h 0.015 0.29249 l -0.0966,0.26097 h 0.001 7.05435 10e-4 l 1.28778,-3.44579 h 10e-4 6.22701 l 0.017,0.045 h 0.11318 l 0.0977,0.26097 h 0.11266 l 0.0982,0.262 h 0.11318 l 0.0982,0.262 h 0.11317 l 0.0977,0.26096 h 0.11266 l 0.0982,0.262 h 0.11317 l 0.0982,0.262 h 0.0997 0.0134 l 0.0977,0.26097 h 0.0858 0.0274 l 0.0977,0.262 h 0.0723 0.0408 l 0.0982,0.262 h 0.0579 0.0553 l 0.0977,0.26096 h 0.0439 0.0698 l 0.0982,0.262 h 0.0289 0.0842 l 0.0977,0.262 h 0.015 0.0987 l 0.0977,0.26097 h 0.001 7.05383 v -0.001 l -2.2257,-6.01721 h 0.25528 l -0.0966,0.26148 h 0.30799 l -0.0971,0.262 h 0.29714 0.0114 l -0.0971,0.262 h 0.28267 0.0248 l -0.0966,0.26097 h 0.26923 0.0398 l -0.0971,0.262 h 0.25425 0.0537 l -0.0966,0.262 h 0.23978 0.0677 l -0.0966,0.26096 h 0.22582 0.0816 l -0.0966,0.262 h 0.21187 0.0961 l -0.0966,0.262 h 0.19792 0.10955 l -0.0966,0.262 h 0.18397 0.12351 l -0.0966,0.26097 h 0.17002 0.13798 l -0.0972,0.262 h 0.15607 0.15244 l -0.0971,0.262 h 0.14211 0.16537 l -0.0966,0.26096 h 0.12816 0.17983 l -0.0971,0.262 h 0.11421 0.19482 l -0.0966,0.262 h 0.0987 0.20878 l -0.0966,0.26097 h 0.0847 0.22324 l -0.0971,0.262 h 0.0713 0.23668 l -0.0966,0.262 h 0.0568 0.25063 l -0.0966,0.26096 h 0.0429 0.2651 l -0.0971,0.262 h 0.0289 0.27957 l -0.0972,0.262 h 0.015 0.29249 l -0.0966,0.26097 h 0.001 7.05486 l 1.28778,-3.44579 h 0.002 6.22546 l 0.0165,0.045 h 0.11369 l 0.0977,0.26097 h 0.11317 l 0.0977,0.262 h 0.11369 l 0.0982,0.262 h 0.11317 l 0.0977,0.26096 h 0.11317 l 0.0982,0.262 h 0.11317 l 0.0977,0.262 h 0.10025 0.0129 l 0.0977,0.26097 h 0.0863 0.0269 l 0.0982,0.262 h 0.0718 0.0408 l 0.0982,0.262 h 0.0579 0.0553 l 0.0977,0.26096 h 0.0444 0.0687 l 0.0982,0.262 h 0.03 0.0832 l 0.0977,0.262 h 0.016 0.0971 l 0.0977,0.26097 h 0.002 7.05383 l -9.24595,-25.00002 h -0.1142 l -0.0966,-0.26097 h -0.0119 -0.1018 l -0.0971,-0.262 h -0.0243 -0.0899 l -0.0971,-0.262 h -0.0357 -0.0785 l -0.0966,-0.26097 h -0.0481 -0.0667 l -0.0971,-0.262 h -0.0579 -0.0558 l -0.0971,-0.26199 h -0.0703 -0.0445 l -0.0966,-0.26097 h -0.0816 -0.032 l -0.0971,-0.262 h -0.0941 -0.0196 l -0.0971,-0.262 h -0.10594 -0.009 l -0.0966,-0.26097 h -0.11369 l -0.0971,-0.262 h -0.11369 l -0.0971,-0.26199 h -0.11472 l -0.0966,-0.26097 h -0.11369 l -0.0971,-0.262 h -0.11369 l -0.0971,-0.262 H 207.267 l -0.0971,-0.262 h -0.11472 l -0.0966,-0.26097 h -0.11369 l -0.0971,-0.26199 h -0.11369 l -0.0971,-0.262 h -0.11472 l -0.0966,-0.26097 h -0.11369 l -0.0971,-0.262 h -0.1142 l -0.0966,-0.262 h -0.11472 l -0.0966,-0.26097 h -0.11368 l -0.0972,-0.26199 h -0.11368 l -0.0972,-0.262 h -0.11472 l -0.0966,-0.26149 h -0.11472 l -0.0972,-0.262 h -0.11368 l -0.0972,-0.262 h -0.1142 l -0.0966,-0.26096 h -0.1142 l -0.0971,-0.262 h -0.11369 l -0.0971,-0.262 h -0.11369 l -0.0971,-0.262 h -0.11472 l -0.0966,-0.26097 h -0.11369 l -0.0971,-0.262 h -0.1142 l -0.0966,-0.262 h -0.11472 l -0.0966,-0.26096 h -0.11473 l -0.0971,-0.262 h -0.11369 l -0.0971,-0.262 h -0.1142 l -0.0966,-0.26097 h -0.1142 l -0.0971,-0.262 h -0.11369 l -0.0971,-0.262 h -0.11421 l -0.0966,-0.26096 h -0.11421 l -0.0971,-0.262 h -0.11369 l -0.0971,-0.262 h -0.11421 l -0.0966,-0.26097 h -0.11421 l -0.0971,-0.262 h -0.11368 l -0.0972,-0.262 h -0.11472 l -0.0971,-0.262 h -0.1142 l -0.0966,-0.26096 h -0.1142 l -0.0972,-0.262 h -0.11368 l -0.0972,-0.262 h -0.1142 l -0.0966,-0.26097 h -0.1142 l -0.0971,-0.262 h -0.11369 l -0.0971,-0.262 h -0.11421 l -0.0966,-0.26096 h -0.11421 l -0.0971,-0.262 h -0.11369 l -0.0971,-0.262 h -0.1142 l -0.0966,-0.26097 h -0.11524 l -0.0971,-0.262 h -0.11369 l -0.0971,-0.262 h -0.1142 l -0.0966,-0.26096 h -0.11369 l -0.0972,-0.262 h -0.1142 l -0.0972,-0.262 h -0.1142 l -0.0966,-0.26097 h -0.11369 l -0.0971,-0.262 h -0.11421 l -0.0971,-0.262 h -0.11369 l -0.0971,-0.26199 h -0.11421 l -0.0966,-0.26097 h -0.11421 l -0.0971,-0.262 h -0.11472 l -0.0971,-0.262 H 195.658 l -0.0966,-0.26097 h -0.11369 l -0.0971,-0.262 h -0.11421 l -0.0971,-0.26199 h -0.1142 l -0.0966,-0.26149 h -0.11369 l -0.0971,-0.262 h -0.1142 l -0.0971,-0.262 h -0.11421 l -0.0966,-0.26096 h -0.11369 l -0.0971,-0.262 h -0.11421 l -0.0971,-0.262 h -0.1142 l -0.0966,-0.26097 h -0.11472 l -0.0971,-0.262 h -0.11421 l -0.0971,-0.262 h -0.11369 l -0.0971,-0.262 h -0.1142 l -0.0966,-0.26096 h -0.11369 l -0.0971,-0.262 h -0.1142 l -0.0972,-0.262 h -0.1142 l -0.0966,-0.26097 h -0.11368 l -0.0972,-0.262 h -0.1142 l -0.0971,-0.262 h -0.11421 l -0.0966,-0.26096 h -0.11369 l -0.0971,-0.262 h -0.11524 l -0.0971,-0.262 h -0.11421 l -0.0966,-0.26097 h -0.11369 l -0.0971,-0.262 h -0.11369 l -0.0971,-0.262 h -0.11472 l -0.0966,-0.26096 h -0.11369 l -0.0971,-0.262 h -0.11369 l -0.0971,-0.262 h -0.11472 l -0.0966,-0.26097 h -0.11369 l -0.0971,-0.262 h -0.11369 l -0.0971,-0.262 h -0.11421 l -0.0972,-0.262 h -0.11524 l -0.0966,-0.26096 h -0.11369 l -0.0971,-0.262 h -0.11421 l -0.0971,-0.262 h -0.11421 l -0.0966,-0.26097 h -0.11369 l -0.0971,-0.262 h -0.11369 l -0.0971,-0.262 h -0.11472 l -0.0966,-0.26096 h -0.11368 l -0.0972,-0.262 h -0.11368 l -0.0972,-0.262 h -0.11472 l -0.0966,-0.26097 h -0.11369 l -0.0971,-0.262 h -0.11472 l -0.0972,-0.262 h -0.11472 l -0.0966,-0.26096 h -0.11369 l -0.0971,-0.262 h -0.11369 l -0.0971,-0.262 h -0.11369 l -0.0971,-0.262 h -0.11472 l -0.0966,-0.26097 h -0.11369 l -0.0971,-0.262 h -0.11369 l -0.0971,-0.262 h -0.11472 l -0.0966,-0.26148 h -0.11368 l -0.0972,-0.262 h -0.11368 l -0.0971,-0.262 h -0.11576 l -0.0966,-0.26096 h -0.11368 l -0.0971,-0.262 h -0.11369 l -0.0971,-0.262 h -0.11473 l -0.0966,-0.26097 h -0.11369 l -0.0971,-0.262 h -0.11369 l -0.0971,-0.262 h -0.11421 l -0.0966,-0.26096 h -0.11421 l -0.0971,-0.262 h -0.11369 l -0.0971,-0.262 h -0.1142 l -0.0966,-0.26097 h -0.1142 l -0.0971,-0.262 h -0.11473 l -0.0971,-0.262 h -0.11369 l -0.0972,-0.262 h -0.11472 l -0.0966,-0.26096 h -0.11369 l -0.0971,-0.262 h -0.11369 l -0.0971,-0.262 h -0.11421 l -0.0966,-0.26097 h -0.11421 l -0.0971,-0.262 h -0.1142 l -0.0966,-0.262 h -0.1142 l -0.0966,-0.26096 h -0.1142 l -0.0972,-0.262 h -0.11472 l -0.0971,-0.262 h -0.1142 l -0.0966,-0.26097 h -0.1142 l -0.0972,-0.262 h -0.11368 l -0.0972,-0.262 h -0.1142 l -0.0966,-0.26096 h -0.1142 l -0.0971,-0.262 h -0.11369 l -0.0971,-0.262 h -0.11369 l -0.0971,-0.262 h -0.11421 l -0.0966,-0.26097 h -0.11421 l -0.0971,-0.262 h -0.11369 l -0.0971,-0.262 h -0.11524 l -0.0966,-0.26096 h -0.11421 l -0.0971,-0.262 h -0.11369 l -0.0971,-0.262 h -0.1142 l -0.0966,-0.26097 h -0.1142 l -0.0972,-0.262 h -0.11369 l -0.0971,-0.262 h -0.11421 l -0.0966,-0.26096 h -0.11369 l -0.0972,-0.262 h -0.11421 l -0.0971,-0.262 h -0.11421 l -0.0966,-0.26148 h -0.11369 l -0.0971,-0.262 h -0.11524 l -0.0971,-0.262 h -0.11421 l -0.0966,-0.26097 h -0.11369 l -0.0971,-0.262 h -0.1142 l -0.0972,-0.262 h -0.11368 l -0.0972,-0.262 h -0.1142 l -0.0966,-0.26096 h -0.1142 l -0.0971,-0.262 h -0.11369 l -0.0971,-0.262 h -0.11421 l -0.0966,-0.26097 h -0.11369 l -0.0971,-0.262 h -0.11472 l -0.0966,-0.262 h -0.11524 l -0.0966,-0.26096 h -0.11369 l -0.0971,-0.262 h -0.11421 l -0.0971,-0.262 h -0.1142 l -0.0966,-0.26097 h -0.11369 l -0.0971,-0.262 h -0.1142 l -0.0972,-0.262 h -0.1142 l -0.0966,-0.26096 h -0.11368 l -0.0971,-0.262 h -0.11369 l -0.0971,-0.262 h -0.11421 l -0.0971,-0.262 h -0.11421 l -0.0966,-0.26097 h -0.11472 l -0.0971,-0.262 h -0.11421 l -0.0971,-0.262 h -0.11421 l -0.0966,-0.26096 h -0.11369 l -0.0971,-0.262 h -0.11421 l -0.0971,-0.262 h -0.1142 l -0.0966,-0.26097 h -0.11369 l -0.0971,-0.261998 h -0.1142 l -0.0971,-0.261999 h -0.11421 l -0.0966,-0.261483 h -0.11421 l -0.0966,-0.261483 h -0.11369 l -0.0971,-0.261999 h -0.11576 l -0.0966,-0.261483 h -0.11421 l -0.0966,-0.261483 h -0.11369 l -0.0971,-0.261999 h -0.11472 l -0.0966,-0.261483 h -0.11369 l -0.0971,-0.261999 h -0.1142 l -0.0966,-0.261483 h -0.1142 l -0.0972,-0.262 h -0.1142 l -0.0966,-0.261482 h -0.1142 l -0.0966,-0.261483 h -0.11368 l -0.0972,-0.262 h -0.11472 l -0.0966,-0.261482 h -0.11524 l -0.0966,-0.261483 h -0.11368 l -0.0972,-0.262 h -0.11472 l -0.0966,-0.261482 h -0.11369 l -0.0971,-0.262 h -0.11421 l -0.0966,-0.261483 h -0.11472 l -0.0966,-0.261482 h -0.11369 l -0.0971,-0.262 h -0.1142 l -0.0966,-0.261483 h -0.1142 l -0.0971,-0.261999 h -0.11421 l -0.0966,-0.261483 h -0.11421 l -0.0966,-0.261483 h -0.11473 l -0.0971,-0.261999 h -0.11472 l -0.0966,-0.261483 h -0.11369 L 163.05,92.224862 h -0.11421 l -0.0966,-0.261483 h -0.11473 l -0.0966,-0.261483 h -0.11369 l -0.0971,-0.261999 h -0.11421 l -0.0966,-0.261483 h -0.11472 l -0.0966,-0.261483 h -0.11368 l -0.0972,-0.261999 h -0.1142 l -0.0966,-0.261483 h -0.11368 l -0.0972,-0.262 h -0.11575 l -0.0966,-0.261482 h -0.11368 l -0.0972,-0.262 h -0.1142 l -0.0966,-0.261483 h -0.11472 l -0.0966,-0.261482 h -0.11369 l -0.0971,-0.262 h -0.11421 l -0.0966,-0.261483 h -0.11472 l -0.0966,-0.261482 h -0.11369 l -0.0971,-0.262 h -0.1142 l -0.0966,-0.261483 h -0.1142 l -0.0972,-0.261999 h -0.1142 l -0.0966,-0.261483 h -0.11523 l -0.0966,-0.261483 h -0.11369 l -0.0971,-0.261999 h -0.11472 l -0.0966,-0.261483 h -0.11368 l -0.0971,-0.261999 h -0.11421 l -0.0966,-0.261483 h -0.11473 l -0.0966,-0.261483 h -0.11369 l -0.0971,-0.261999 h -0.11421 l -0.0966,-0.261483 h -0.11421 l -0.0971,-0.262 h -0.1142 l -0.0966,-0.261482 h -0.11524 l -0.0966,-0.261483 h -0.11369 l -0.0971,-0.262 h -0.11472 l -0.0966,-0.261482 h -0.1142 L 156.085,83.58973 h -0.11369 l -0.0971,-0.262 h -0.11472 l -0.0966,-0.261482 h -0.11369 l -0.0971,-0.262 h -0.11421 l -0.0966,-0.261483 h -0.11421 l -0.0971,-0.261999 h -0.1142 l -0.0966,-0.261483 h -0.1142 L 154.6071,81.7578 h -0.11472 l -0.0971,-0.261999 h -0.11472 l -0.0966,-0.261483 h -0.1142 l -0.0966,-0.261483 h -0.11369 l -0.0971,-0.261999 h -0.11472 l -0.0966,-0.261483 h -0.11368 l -0.0972,-0.261999 h -0.1142 l -0.0966,-0.261483 h -0.11472 l -0.0966,-0.261483 h -0.11369 l -0.0971,-0.261999 h -0.11421 l -0.0966,-0.261483 h -0.11421 l -0.0971,-0.262 h -0.11524 l -0.0966,-0.261482 h -0.11421 l -0.0966,-0.261483 h -0.11369 l -0.0971,-0.262 h -0.11472 l -0.0966,-0.261483 h -0.11369 l -0.0971,-0.261999 h -0.1142 l -0.0966,-0.261483 h -0.11472 l -0.0966,-0.261483 h -0.11369 l -0.0971,-0.261999 h -0.11421 l -0.0966,-0.261483 h -0.11473 l -0.0966,-0.261483 h -0.11369 l -0.0971,-0.261999 h -0.11524 l -0.0966,-0.261483 h -0.11369 l -0.0971,-0.261999 h -0.11473 l -0.0966,-0.261483 h -0.11369 l -0.0971,-0.262 h -0.11421 l -0.0966,-0.261482 h -0.11472 l -0.0966,-0.261483 h -0.11368 l -0.0972,-0.262 h -0.1142 l -0.0966,-0.261482 h -0.11472 l -0.0966,-0.261483 h -0.11369 l -0.0971,-0.262 h -0.11421 l -0.0966,-0.261482 h -0.11472 l -0.0972,-0.262 h -0.11472 l -0.0966,-0.261483 h -0.11421 l -0.0966,-0.261482 h -0.11369 l -0.0971,-0.262 h -0.11472 l -0.0966,-0.261483 h -0.11369 l -0.0971,-0.261999 h -0.1142 l -0.0966,-0.261483 h -0.11472 l -0.0966,-0.261483 h -0.11368 l -0.0972,-0.261999 h -0.1142 l -0.0966,-0.261483 h -0.11421 l -0.0971,-0.261999 h -0.11524 l -0.0966,-0.261483 h -0.11421 l -0.0966,-0.261483 h -0.11369 l -0.0971,-0.261999 h -0.11473 l -0.0966,-0.261483 h -0.11421 l -0.0966,-0.261483 h -0.11369 l -0.0971,-0.261999 h -0.11472 l -0.0966,-0.261483 h -0.11369 l -0.0971,-0.262 h -0.1142 l -0.0966,-0.261482 h -0.1142 l -0.0971,-0.262 h -0.11421 l -0.0966,-0.261483 h -0.11524 l -0.0966,-0.261482 h -0.11369 l -0.0971,-0.262 h -0.11472 l -0.0966,-0.261483 h -0.11421 l -0.0966,-0.261482 h -0.11369 l -0.0971,-0.262 h -0.11472 l -0.0966,-0.261483 h -0.11369 l -0.0971,-0.261999 h -0.1142 l -0.0966,-0.261483 h -0.11472 l -0.0966,-0.261483 h -0.11368 l -0.0972,-0.261999 h -0.1142 l -0.0966,-0.261483 h -0.11523 l -0.0972,-0.261999 h -0.1142 l -0.0966,-0.261483 h -0.1142 l -0.0966,-0.261483 h -0.11368 l -0.0972,-0.261999 h -0.11472 l -0.0966,-0.261483 h -0.11369 l -0.0971,-0.262 h -0.11421 l -0.0966,-0.261482 h -0.11472 l -0.0966,-0.261483 h -0.11369 l -0.0971,-0.262 h -0.1142 l -0.0966,-0.261482 h -0.11472 l -0.0966,-0.261483 h -0.11473 l -0.0971,-0.262 h -0.1142 l -0.0966,-0.261482 h -0.11369 l -0.0971,-0.262 h -0.11472 l -0.0966,-0.261483 h -0.11369 l -0.0971,-0.261999 h -0.11421 l -0.0966,-0.261483 h -0.11473 l -0.0966,-0.261483 h -0.11369 l -0.0971,-0.261999 h -0.11421 l -0.0966,-0.261483 h -0.11472 l -0.0966,-0.261483 h -0.11369 l -0.0971,-0.261999 h -0.11524 l -0.0966,-0.261483 h -0.1142 l -0.0972,-0.261999 h -0.1142 l -0.0966,-0.261483 h -0.1142 l -0.0966,-0.261483 h -0.11368 l -0.0972,-0.261999 h -0.11472 l -0.0966,-0.261483 h -0.11369 l -0.0971,-0.262 h -0.11421 l -0.0966,-0.261483 h -0.11472 l -0.0966,-0.261482 h -0.11369 l -0.0971,-0.262 h -0.11524 l -0.0966,-0.261483 h -0.11421 l -0.0971,-0.261999 h -0.1142 l -0.0966,-0.261483 h -0.1142 l -0.0966,-0.261483 h -0.11369 l -0.0971,-0.261999 h -0.11472 l -0.0966,-0.261483 h -0.11368 l -0.0971,-0.261999 h -0.11421 l -0.0966,-0.261483 h -0.11473 l -0.0966,-0.261483 h -0.11369 l -0.0971,-0.261999 h -0.11421 l -0.0966,-0.261483 h -0.11524 l -0.0971,-0.262 h -0.11421 l -0.0966,-0.261482 h -0.11421 l -0.0966,-0.261483 h -0.11421 l -0.0971,-0.262 h -0.1142 l -0.0966,-0.261482 h -0.1142 l -0.0966,-0.261483 h -0.11369 l -0.0971,-0.262 h -0.11472 l -0.0966,-0.261482 h -0.11369 l -0.0971,-0.262 h -0.11421 l -0.0966,-0.261483 h -0.11472 l -0.0966,-0.261482 h -0.11472 l -0.0971,-0.262 h -0.11421 l -0.0966,-0.261483 h -0.11421 l -0.0971,-0.261999 h -0.1142 l -0.0966,-0.261483 h -0.1142 l -0.0966,-0.261483 h -0.11369 l -0.0971,-0.261999 h -0.11472 l -0.0966,-0.261483 h -0.11368 l -0.0972,-0.261999 h -0.1142 l -0.0966,-0.261483 h -0.11472 l -0.0966,-0.261483 h -0.11369 l -0.0971,-0.261999 h -0.11524 l -0.0966,-0.261483 h -0.1142 l -0.0972,-0.262 H 126.421 l -0.0966,-0.261482 h -0.11421 l -0.0966,-0.261483 h -0.11421 l -0.0971,-0.262 h -0.1142 l -0.0966,-0.261482 h -0.11369 l -0.0971,-0.262 h -0.1142 l -0.0966,-0.261483 h -0.11472 l -0.0966,-0.261482 h -0.11369 l -0.0971,-0.262 h -0.11421 l -0.0966,-0.261483 h -0.11576 l -0.0966,-0.261482 h -0.11369 l -0.0971,-0.262 h -0.11421 l -0.0966,-0.261483 h -0.11421 l -0.0971,-0.261999 h -0.11421 l -0.0966,-0.261483 h -0.11421 l -0.0966,-0.261483 h -0.11369 l -0.0971,-0.261999 h -0.11472 l -0.0966,-0.261483 h -0.11368 l -0.0972,-0.261999 h -0.1142 l -0.0966,-0.261483 h -0.11472 l -0.0966,-0.261483 h -0.11472 l -0.0972,-0.261999 h -0.1142 l -0.0966,-0.261483 h -0.1142 l -0.0971,-0.262 h -0.11421 l -0.0966,-0.261482 h -0.11421 l -0.0966,-0.261483 h -0.11369 l -0.0971,-0.262 h -0.11472 l -0.0966,-0.261482 h -0.11369 l -0.0971,-0.262 h -0.1142 l -0.0966,-0.261483 h -0.11472 l -0.0966,-0.261482 h -0.11368 l -0.0972,-0.262 h -0.11523 l -0.0966,-0.261483 h -0.1142 l -0.0972,-0.261999 h -0.1142 l -0.0966,-0.261483 h -0.11421 l -0.0966,-0.261483 h -0.11421 l -0.0971,-0.261999 h -0.11421 l -0.0966,-0.261483 h -0.11421 l -0.0966,-0.261483 h -0.11369 l -0.0971,-0.261999 h -0.11472 l -0.0966,-0.261483 h -0.11369 l -0.0971,-0.261999 h -0.1142 l -0.0966,-0.261483 h -0.11575 l -0.0966,-0.261483 h -0.11369 l -0.0971,-0.261999 h -0.1142 l -0.0966,-0.261483 h -0.1142 l -0.0971,-0.262 h -0.11421 l -0.0966,-0.261483 h -0.11421 l -0.0966,-0.261482 h -0.11369 l -0.0971,-0.262 h -0.11472 l -0.0966,-0.261483 h -0.11369 l -0.0971,-0.261999 h -0.1142 l -0.0966,-0.261483 h -0.11472 l -0.0966,-0.261483 h -0.11472 l -0.0971,-0.261999 h -0.1142 l -0.0966,-0.261483 h -0.1142 l -0.0972,-0.261999 h -0.1142 l -0.0966,-0.261483 h -0.1142 l -0.0966,-0.261483 h -0.1142 l -0.0972,-0.261999 h -0.11421 l -0.0966,-0.261483 h -0.11369 l -0.0971,-0.262 h -0.11421 l -0.0966,-0.261482 h -0.11472 l -0.0966,-0.261483 h -0.11369 l -0.0971,-0.262 h -0.11472 l -0.0971,-0.261482 h -0.11421 l -0.0971,-0.261483 h -0.11369 l -0.0971,-0.262 h -0.1142 l -0.0966,-0.261482 h -0.1142 l -0.0971,-0.262 h -0.11369 l -0.0971,-0.261483 h -0.11421 l -0.0966,-0.261999 h -0.11421 l -0.0966,-0.261483 h -0.11473 l -0.0966,-0.261483 h -0.11369 l -0.0971,-0.261999 h -0.11472 l -0.0971,-0.261483 h -0.11421 l -0.0971,-0.261483 h -0.11369 l -0.0971,-0.261999 h -0.11369 l -0.0972,-0.261483 h -0.11421 l -0.0971,-0.261999 h -0.11368 l -0.0972,-0.261483 h -0.1142 l -0.0966,-0.261483 h -0.1142 l -0.0971,-0.261999 h -0.11369 l -0.0971,-0.261483 h -0.11369 l -0.0971,-0.262 h -0.11421 l -0.0966,-0.261482 h -0.1225 l -0.0971,-0.261483 h -0.11317 l -0.0977,-0.262 h -0.11369 l -0.0971,-0.261482 h -0.11369 l -0.0977,-0.262 h -0.11369 l -0.0971,-0.261483 h -0.11369 l -0.0971,-0.261482 h -0.11369 l -0.0977,-0.262 H 106.9972 L 106.9,22.616707 h -0.11368 l -0.0971,-0.261482 h -0.11369 l -0.0971,-0.262 h -0.11369 l -0.0977,-0.261483 h -0.11369 l -0.0982,-0.261999 h -0.11214 l -0.005,-0.01189 -0.094,-0.249597 h -0.11369 l -0.0227,-0.06201 -0.0749,-0.199987 h -0.11266 l -0.0413,-0.111622 -0.0568,-0.149861 h -0.11317 l -0.06,-0.161747 -0.0377,-0.09974 h -0.11266 l -0.0785,-0.211873 -0.0202,-0.05013 h -0.11317 l -0.0966,-0.261483 h -10e-4 -5.894728 l -6.648173,17.976164 -0.06718,-0.181385 h -0.114722 l -0.09664,-0.261999 H 91.853312 L 91.756682,37.2711 H 91.64196 l -0.09663,-0.261483 h -0.113689 l -0.09715,-0.261999 h -0.114722 l -0.09664,-0.261483 h -0.114205 l -0.09664,-0.261999 h -0.114205 l -0.09663,-0.261483 h -0.114721 l -0.09664,-0.261483 h -0.114205 l -0.09663,-0.261999 h -0.114722 l -0.09664,-0.261483 h -0.114205 l -0.09663,-0.262 h -0.114722 l -0.09664,-0.261483 h -0.114205 l -0.09664,-0.261482 h -0.114205 l -0.09715,-0.262 H 89.10929 L 89.01265,33.86924 h -0.114722 l -0.09663,-0.261999 h -0.114205 l -0.09664,-0.261483 h -0.114722 l -0.09663,-0.261483 h -0.113689 l -0.09715,-0.261999 H 88.05354 L 87.95691,32.560793 H 87.8427 l -0.09663,-0.261999 h -0.114721 l -0.09663,-0.261483 h -0.114205 l -0.09663,-0.261483 h -0.114205 l -0.09715,-0.261999 h -0.114205 l -0.09663,-0.261483 h -0.114205 l -0.09715,-0.262 h -0.114205 l -0.09663,-0.261482 h -0.114722 l -0.09664,-0.261483 h -0.113688 l -0.09715,-0.262 h -0.114721 l -0.09664,-0.261482 h -0.114205 l -0.09664,-0.261483 h -0.114205 l -0.09715,-0.262 h -0.114205 l -0.09663,-0.261482 h -0.114205 l -0.09715,-0.262 h -0.114205 l -0.09664,-0.261483 h -0.114205 l -0.09664,-0.261999 h -0.114721 l -0.09664,-0.261483 h -0.114205 l -0.09664,-0.261483 h -0.114205 l -0.09715,-0.261999 h -0.114205 l -0.09664,-0.261483 h -0.114721 l -0.09663,-0.261483 h -0.114205 l -0.09715,-0.261999 h -0.114205 l -0.09663,-0.261483 H 82.987711 L 82.891071,26.28004 H 82.77635 l -0.09663,-0.261483 h -0.114205 l -0.09664,-0.261483 H 82.35467 l -0.09715,-0.261999 h -0.114205 l -0.09663,-0.261483 H 81.93248 l -0.09715,-0.262 H 81.72111 L 81.62448,24.71011 h -0.114722 l -0.09664,-0.261483 h -0.114204 l -0.09663,-0.262 h -0.114722 l -0.09664,-0.261482 h -0.114205 l -0.09664,-0.262 h -0.114721 l -0.09664,-0.261483 h -0.114205 l -0.09664,-0.261482 h -0.114205 l -0.09715,-0.262 h -0.114205 l -0.09664,-0.261483 H 79.82095 l -0.09663,-0.261482 h -0.113688 l -0.09715,-0.262 H 79.39876 l -0.09663,-0.261483 h -0.114205 l -0.09664,-0.261999 H 78.97708 l -0.0046,-0.01189 -0.0925,-0.249597 h -0.114205 l -0.02274,-0.06201 -0.0739,-0.199987 H 78.55493 l -0.04134,-0.111622 -0.05581,-0.149861 h -0.114205 l -0.05994,-0.161747 -0.03669,-0.09974 h -0.114204 l -0.07855,-0.211873 -0.0186,-0.05013 h -0.114205 l -0.09663,-0.261483 H 71.92946 l -6.65024,17.972029 -0.06563,-0.17725 h -0.114721 c -0.002,-0.0054 -0.09663,-0.261999 -0.09663,-0.261999 h -0.114205 c -0.002,-0.0054 -0.09664,-0.261483 -0.09664,-0.261483 h -0.114722 c -0.002,-0.0054 -0.09663,-0.261483 -0.09663,-0.261483 h -0.114204 c -0.002,-0.0054 -0.09664,-0.261999 -0.09664,-0.261999 h -0.114722 c -0.002,-0.0054 -0.09663,-0.261483 -0.09663,-0.261483 h -0.113688 c -0.002,-0.0054 -0.09715,-0.261999 -0.09715,-0.261999 h -0.114722 c -0.002,-0.0054 -0.09663,-0.261483 -0.09663,-0.261483 H 63.62144 c -0.002,-0.0054 -0.09663,-0.261483 -0.09663,-0.261483 h -0.114722 c -0.002,-0.0054 -0.09663,-0.261999 -0.09663,-0.261999 h -0.114205 c -0.002,-0.0054 -0.09664,-0.261483 -0.09664,-0.261483 h -0.114205 c -0.002,-0.0054 -0.09715,-0.262 -0.09715,-0.262 h -0.114205 c -0.002,-0.0054 -0.09664,-0.261483 -0.09664,-0.261483 H 62.56569 c -0.002,-0.0054 -0.09663,-0.261482 -0.09663,-0.261482 h -0.11421 c -0.002,-0.0054 -0.09663,-0.262 -0.09663,-0.262 h -0.11421 c -0.002,-0.0054 -0.09663,-0.261483 -0.09663,-0.261483 h -5.16e-4 -0.113688 c -0.002,-0.0054 -0.09715,-0.261999 -0.09715,-0.261999 h -0.114205 c -0.002,-0.0054 -0.09663,-0.261483 -0.09663,-0.261483 h -5.17e-4 -0.114205 c -0.002,-0.0054 -0.09663,-0.261483 -0.09663,-0.261483 h -0.113688 c -0.002,-0.0054 -0.09715,-0.261999 -0.09715,-0.261999 h -5.17e-4 -0.114205 c -0.002,-0.0054 -0.09664,-0.261483 -0.09664,-0.261483 h -0.113688 c -0.002,-0.0054 -0.09715,-0.261999 -0.09715,-0.261999 h -5.17e-4 -0.114205 c -0.002,-0.0054 -0.09663,-0.261483 -0.09663,-0.261483 h -0.114205 c -0.002,-0.0054 -0.09663,-0.261483 -0.09663,-0.261483 h -5.17e-4 -0.113688 c -0.002,-0.0054 -0.09715,-0.261999 -0.09715,-0.261999 h -0.114205 c -0.002,-0.0054 -0.09663,-0.261483 -0.09663,-0.261483 h -0.114205 c -0.002,-0.0054 -0.09715,-0.262 -0.09715,-0.262 h -0.114205 c -0.002,-0.0054 -0.09663,-0.261482 -0.09663,-0.261482 h -0.114722 c -0.002,-0.0054 -0.09663,-0.261483 -0.09663,-0.261483 h -0.113688 c -0.002,-0.0054 -0.09715,-0.262 -0.09715,-0.262 h -0.114721 c -0.002,-0.0054 -0.09664,-0.261482 -0.09664,-0.261482 h -0.114205 c -0.002,-0.0054 -0.09663,-0.261483 -0.09663,-0.261483 h -0.114205 c -0.002,-0.0054 -0.09715,-0.262 -0.09715,-0.262 h -0.114205 c -0.002,-0.0054 -0.09663,-0.261482 -0.09663,-0.261482 h -0.114204 c -0.002,-0.0054 -0.09715,-0.262 -0.09715,-0.262 h -0.114205 c -0.002,-0.0054 -0.09663,-0.261483 -0.09663,-0.261483 h -0.114205 c -0.002,-0.0054 -0.09715,-0.261999 -0.09715,-0.261999 h -0.114205 c -0.002,-0.0054 -0.09663,-0.261483 -0.09663,-0.261483 h -0.114722 c -0.002,-0.0054 -0.09663,-0.261483 -0.09663,-0.261483 H 57.07817 c -0.002,-0.0054 -0.09715,-0.261999 -0.09715,-0.261999 h -0.114722 c -0.002,-0.0054 -0.09663,-0.261483 -0.09663,-0.261483 h -0.114204 c -0.002,-0.0054 -0.09663,-0.261483 -0.09663,-0.261483 h -0.114205 c -0.002,-0.0054 -0.09715,-0.261999 -0.09715,-0.261999 H 56.23326 c -0.002,-0.0054 -0.09663,-0.261483 -0.09663,-0.261483 h -0.113688 c -0.002,-0.0054 -0.09715,-0.261999 -0.09715,-0.261999 h -5.16e-4 -0.114205 c -0.002,-0.0054 -0.09663,-0.261483 -0.09663,-0.261483 h -0.114205 c -0.002,-0.0054 -0.09663,-0.261483 -0.09663,-0.261483 h -5.17e-4 -0.113688 c -0.002,-0.0054 -0.09715,-0.261999 -0.09715,-0.261999 h -0.114205 c -0.002,-0.0054 -0.09663,-0.261483 -0.09663,-0.261483 h -0.114205 c -0.002,-0.0054 -0.09715,-0.262 -0.09715,-0.262 h -0.114205 c -0.002,-0.0054 -0.09663,-0.261482 -0.09663,-0.261482 h -0.114722 c -0.002,-0.0054 -0.09663,-0.261483 -0.09663,-0.261483 h -0.113688 c -0.002,-0.0054 -0.09715,-0.262 -0.09715,-0.262 h -0.114722 c -0.002,-0.0054 -0.09663,-0.261482 -0.09663,-0.261482 h -0.113688 c -0.002,-0.0054 -0.09715,-0.262 -0.09715,-0.262 h -0.114722 c -0.002,-0.0054 -0.09663,-0.261483 -0.09663,-0.261483 H 53.48929 c -0.002,-0.0054 -0.09663,-0.261482 -0.09663,-0.261482 h -0.114205 c -0.002,-0.0054 -0.09715,-0.262 -0.09715,-0.262 H 53.0671 c -0.002,-0.0054 -0.09663,-0.261483 -0.09663,-0.261483 h -0.114722 c -0.002,-0.0054 -0.09663,-0.261482 -0.09663,-0.261482 h -0.113689 c -0.002,-0.0054 -0.09715,-0.262 -0.09715,-0.262 h -0.114722 c -0.002,-0.0054 -0.09663,-0.261483 -0.09663,-0.261483 h -0.113688 c -0.002,-0.0054 -0.09715,-0.261999 -0.09715,-0.261999 h -0.114721 c -0.002,-0.0054 -0.09663,-0.261483 -0.09663,-0.261483 h -0.113689 c -0.002,-0.0054 -0.09715,-0.261999 -0.09715,-0.261999 h -0.114722 c -0.002,-0.0054 -0.09663,-0.261483 -0.09663,-0.261483 h -0.114205 c -0.002,-0.0054 -0.09663,-0.261483 -0.09663,-0.261483 h -0.114205 l -0.09715,-0.261999 h -0.114205 l -0.09663,-0.261483 z M 163.4417,169.56174 h 0.0284 l -0.014,0.0382 z m 26.9658,0 h 0.0274 l -0.0134,0.0367 z m -26.86865,0.262 h 0.14212 l -0.0713,0.19172 z m 26.9658,0 h 0.14159 l -0.0708,0.19121 z" /><g
     id="g2"
     transform="translate(0,0.12291611)"><path
       style="fill:#f9f9f9;stroke-width:0.160865"
       d="m 44.767293,59.469755 c -0.03217,0.248113 -0.05478,0.499286 -0.05478,0.756026 v 29.302084 c 0,3.23161 2.629198,5.86063 5.860624,5.86063 h 48.607369 c 3.231464,0 5.860634,-2.62902 5.860634,-5.86063 V 60.225781 c 0,-0.25674 -0.0226,-0.507913 -0.0548,-0.756026 z"
       id="path16" /><path
       id="path5"
       style="fill:#f44336;fill-opacity:1;stroke-width:0.160865"
       d="m 50.573142,54.365671 c -2.974716,0 -5.433052,2.229204 -5.805847,5.104081 h 60.219065 c -0.37279,-2.874877 -2.83112,-5.104081 -5.805854,-5.104081 z" /><g
       id="g1"><path
         style="fill:#798388;fill-opacity:1;stroke-width:0.160865"
         d="m 49.787227,83.040591 h 14.612028 c 0.816296,0 1.477946,0.661665 1.477946,1.477946 0,0.816083 -0.661866,1.477429 -1.477946,1.477429 H 49.787227 c -0.815895,0 -1.477429,-0.661148 -1.477429,-1.477429 0,-0.816281 0.661534,-1.477946 1.477429,-1.477946 z"
         id="path29" /><path
         style="fill:#798388;fill-opacity:1;stroke-width:0.160865"
         d="m 49.787227,77.783547 h 25.239286 c 0.816084,0 1.47743,0.661146 1.47743,1.47743 0,0.81628 -0.661138,1.477946 -1.47743,1.477946 H 49.787227 c -0.815893,0 -1.477429,-0.661666 -1.477429,-1.477946 0,-0.816284 0.661536,-1.47743 1.477429,-1.47743 z"
         id="path28" /><path
         style="fill:#798388;fill-opacity:1;stroke-width:0.160865"
         d="m 63.674235,67.326821 h 1.459859 v 4.985226 h -1.459859 z"
         id="path24" /><path
         style="fill:#798388;fill-opacity:1;stroke-width:0.160865"
         d="m 59.051778,67.326821 h 1.399914 v 3.721737 h 2.586923 v 1.263489 h -3.986837 z"
         id="path23" /><path
         id="path22"
         style="fill:#798388;fill-opacity:1;stroke-width:0.160865"
         d="m 73.856559,67.183161 c -0.36312,10e-7 -0.706103,0.07015 -1.028878,0.211356 -0.322776,0.13617 -0.604899,0.325326 -0.846977,0.567408 -0.237034,0.237032 -0.426188,0.516967 -0.567407,0.839742 -0.136162,0.317726 -0.204122,0.658521 -0.204122,1.021643 0,0.363116 0.06796,0.706102 0.204122,1.028878 0.141219,0.322769 0.330373,0.602704 0.567407,0.839742 0.242078,0.237032 0.524201,0.425676 0.846977,0.56689 0.322775,0.136169 0.665758,0.204639 1.028878,0.204639 0.36312,0 0.706103,-0.06847 1.028878,-0.204639 0.32277,-0.141214 0.602702,-0.329858 0.839742,-0.56689 0.242072,-0.237038 0.431234,-0.516973 0.567407,-0.839742 0.141213,-0.322776 0.211873,-0.665762 0.211873,-1.028878 0,-0.363122 -0.07066,-0.706104 -0.211873,-1.028878 -0.136173,-0.322776 -0.325335,-0.602704 -0.567407,-0.839742 -0.23704,-0.237038 -0.516972,-0.424003 -0.839742,-0.560173 -0.322775,-0.141215 -0.665758,-0.211356 -1.028878,-0.211356 z m 0,1.368909 c 0.171472,0 0.330721,0.03534 0.476973,0.105936 0.151304,0.06556 0.279594,0.156339 0.385507,0.272335 0.11096,0.115997 0.196838,0.252417 0.257348,0.408761 0.06051,0.151296 0.09095,0.312733 0.09095,0.484208 0,0.171473 -0.03044,0.335098 -0.09095,0.491443 -0.06052,0.151295 -0.146403,0.287721 -0.257348,0.40876 -0.105913,0.115999 -0.234203,0.20896 -0.385507,0.27957 -0.146252,0.06556 -0.305501,0.0987 -0.476973,0.0987 -0.171472,0 -0.332905,-0.03313 -0.484208,-0.0987 -0.146258,-0.07061 -0.274562,-0.163572 -0.385506,-0.27957 -0.105914,-0.12104 -0.191779,-0.257465 -0.257349,-0.40876 -0.06051,-0.156345 -0.09095,-0.31997 -0.09095,-0.491443 0,-0.171475 0.03044,-0.332912 0.09095,-0.484208 0.06557,-0.156344 0.151436,-0.292764 0.257349,-0.408761 0.110944,-0.115995 0.239248,-0.206765 0.385506,-0.272335 0.151303,-0.07061 0.312736,-0.105936 0.484208,-0.105936 z" /><path
         id="path21"
         style="fill:#798388;fill-opacity:1;stroke-width:0.160865"
         d="m 55.942924,67.183161 c -0.363121,10e-7 -0.706103,0.07015 -1.028878,0.211356 -0.322774,0.13617 -0.605413,0.325326 -0.847494,0.567408 -0.237032,0.237032 -0.426192,0.516967 -0.567407,0.839742 -0.136172,0.317726 -0.204122,0.658521 -0.204122,1.021643 0,0.363116 0.06795,0.706102 0.204122,1.028878 0.141215,0.322769 0.330375,0.602704 0.567407,0.839742 0.242081,0.237032 0.52472,0.425676 0.847494,0.56689 0.322775,0.136169 0.665757,0.204639 1.028878,0.204639 0.363117,0 0.706107,-0.06847 1.028877,-0.204639 0.322775,-0.141214 0.602188,-0.329858 0.839226,-0.56689 0.242075,-0.237038 0.431236,-0.516973 0.567407,-0.839742 0.141213,-0.322776 0.211873,-0.665762 0.211873,-1.028878 0,-0.363122 -0.07066,-0.706104 -0.211873,-1.028878 -0.136171,-0.322776 -0.325332,-0.602704 -0.567407,-0.839742 -0.237038,-0.237038 -0.516451,-0.424003 -0.839226,-0.560173 -0.32277,-0.141215 -0.66576,-0.211356 -1.028877,-0.211356 z m 0,1.368909 c 0.171469,0 0.330199,0.03534 0.476456,0.105936 0.151302,0.06556 0.279597,0.156339 0.385507,0.272335 0.110949,0.115997 0.196828,0.252417 0.257348,0.408761 0.06052,0.151296 0.09095,0.312733 0.09095,0.484208 0,0.171473 -0.03043,0.335098 -0.09095,0.491443 -0.06052,0.151295 -0.146399,0.287721 -0.257348,0.40876 -0.10591,0.115999 -0.234205,0.20896 -0.385507,0.27957 -0.146257,0.06556 -0.304987,0.0987 -0.476456,0.0987 -0.171474,0 -0.332907,-0.03313 -0.484209,-0.0987 -0.146252,-0.07061 -0.275074,-0.163572 -0.386022,-0.27957 -0.105914,-0.12104 -0.191789,-0.257465 -0.257349,-0.40876 -0.06052,-0.156345 -0.09043,-0.31997 -0.09043,-0.491443 0,-0.171475 0.02991,-0.332912 0.09043,-0.484208 0.06556,-0.156344 0.151438,-0.292764 0.257349,-0.408761 0.110948,-0.115995 0.23977,-0.206765 0.386022,-0.272335 0.151302,-0.07061 0.312735,-0.105936 0.484209,-0.105936 z" /><path
         style="fill:#798388;fill-opacity:1;stroke-width:0.160865"
         d="m 65.822424,66.441604 h 5.031217 v 1.346688 l -0.105936,0.105937 h -1.611788 v 4.417818 h -1.595768 v -4.417818 h -1.611788 l -0.105937,-0.105937 z"
         id="path20" /><path
         id="path19"
         style="fill:#798388;fill-opacity:1;stroke-width:0.160865"
         d="m 48.309798,66.441604 v 5.870443 h 1.573547 v -1.823145 h 1.066602 c 0.282423,0 0.552042,-0.05325 0.809253,-0.159163 0.262249,-0.110954 0.491639,-0.259363 0.68833,-0.445968 0.201734,-0.191648 0.360975,-0.413942 0.476973,-0.666109 0.121045,-0.252168 0.181385,-0.524494 0.181385,-0.817004 0,-0.287472 -0.06034,-0.552187 -0.181385,-0.794267 -0.115998,-0.242081 -0.275239,-0.448649 -0.476973,-0.620117 -0.196691,-0.171474 -0.426081,-0.30519 -0.68833,-0.40101 -0.257211,-0.09582 -0.52683,-0.14366 -0.809253,-0.14366 z m 1.611271,1.301213 h 0.91519 c 0.09078,0 0.176648,0.0174 0.257348,0.05271 0.08069,0.03026 0.151354,0.07591 0.211874,0.136425 0.06052,0.05548 0.10836,0.120721 0.14366,0.196371 0.03531,0.07565 0.05271,0.159334 0.05271,0.250114 0,0.09078 -0.0174,0.173947 -0.05271,0.249597 -0.0353,0.07565 -0.08314,0.143602 -0.14366,0.204122 -0.06052,0.05547 -0.131184,0.100599 -0.211874,0.135909 -0.08069,0.03026 -0.166568,0.04547 -0.257348,0.04547 h -0.91519 z" /></g></g><path
     id="path1"
     style="fill:#5c6bc0;stroke-width:1.09875"
     d="m 90.467346,66.441423 c -3.640942,0 -6.592362,2.951936 -6.592362,6.592879 0,3.640931 2.95142,6.592362 6.592362,6.592362 3.64094,0 6.59236,-2.951431 6.59236,-6.592362 0,-3.640943 -2.95142,-6.592879 -6.59236,-6.592879 z m 0,15.382523 c -3.050901,0 -5.432253,0.243202 -7.217647,0.991671 -1.911551,0.80132 -3.08266,2.159845 -3.707268,4.134631 -0.230858,0.7299 0.31595,1.466577 1.073837,1.466577 h 19.694922 c 0.76099,0 1.31172,-0.739846 1.07901,-1.473811 -0.62651,-1.974897 -1.801884,-3.332816 -3.716574,-4.132048 -1.78382,-0.744623 -4.16163,-0.98702 -7.20628,-0.98702 z" /><text
     xml:space="preserve"
     transform="matrix(0.76034063,0,0,0.76034063,-60.16817,-219.06395)"
     id="text1040"
     style="font-style:normal;font-variant:normal;font-weight:normal;font-stretch:normal;font-size:40px;line-height:1.25;font-family:PRIMETIME;-inkscape-font-specification:'PRIMETIME, Normal';font-variant-ligatures:normal;font-variant-caps:normal;font-variant-numeric:normal;font-variant-east-asian:normal;letter-spacing:0px;word-spacing:0px;white-space:pre;shape-inside:url(#rect1040);fill:#ffd500;fill-opacity:1;stroke:none"><tspan
       x="128.77148"
       y="458.12891"
       id="tspan2">CAM</tspan></text><text
     xml:space="preserve"
     transform="matrix(0.80541237,0,0,0.80541237,-65.901269,-41.880713)"
     id="text3057"
     style="font-style:normal;font-variant:normal;font-weight:normal;font-stretch:normal;font-size:40px;line-height:1.25;font-family:PRIMETIME;-inkscape-font-specification:'PRIMETIME, Normal';font-variant-ligatures:normal;font-variant-caps:normal;font-variant-numeric:normal;font-variant-east-asian:normal;letter-spacing:0px;word-spacing:0px;white-space:pre;shape-inside:url(#rect3058);fill:#ffd500;fill-opacity:1;stroke:none"><tspan
       x="124.65039"
       y="107.87109"
       id="tspan4">AAA</tspan></text></svg>
