<?xml version="1.0" encoding="UTF-8" standalone="no"?>
<!-- Created with Inkscape (http://www.inkscape.org/) -->

<svg
   width="149.75414mm"
   height="149.75417mm"
   viewBox="0 0 149.75413 149.75416"
   version="1.1"
   id="svg1"
   xml:space="preserve"
   sodipodi:docname="template-matricole-a.svg"
   xmlns:inkscape="http://www.inkscape.org/namespaces/inkscape"
   xmlns:sodipodi="http://sodipodi.sourceforge.net/DTD/sodipodi-0.dtd"
   xmlns="http://www.w3.org/2000/svg"
   xmlns:svg="http://www.w3.org/2000/svg"><sodipodi:namedview
     id="namedview1"
     pagecolor="#ffffff"
     bordercolor="#999999"
     borderopacity="1"
     inkscape:showpageshadow="2"
     inkscape:pageopacity="0"
     inkscape:pagecheckerboard="0"
     inkscape:deskcolor="#d1d1d1"
     inkscape:document-units="mm"
     inkscape:zoom="0.9707102"
     inkscape:cx="507.87557"
     inkscape:cy="288.96369"
     inkscape:window-width="1920"
     inkscape:window-height="991"
     inkscape:window-x="-9"
     inkscape:window-y="-9"
     inkscape:window-maximized="1"
     inkscape:current-layer="svg1" /><defs
     id="defs1"><rect
       x="128.7717"
       y="414.12979"
       width="302.87103"
       height="109.1984"
       id="rect1040" /><rect
       x="124.651"
       y="63.870762"
       width="290.50894"
       height="105.07771"
       id="rect3058" /></defs><path
     id="rect1-3"
     style="fill:#e87d7d;fill-opacity:1;stroke-width:0.295148"
     d="M 0,0 H 149.75414 V 149.75416 H 0 Z"
     inkscape:export-filename="..\b\B2.png"
     inkscape:export-xdpi="347.36404"
     inkscape:export-ydpi="347.36404" /><path
     id="path5078"
     style="font-size:40px;line-height:1.25;font-family:PRIMETIME;-inkscape-font-specification:'PRIMETIME, Normal';letter-spacing:0px;word-spacing:0px;white-space:pre;fill:#000000;fill-opacity:0.31;stroke-width:0.805412"
     d="m 52.888245,19.999813 c -1.743699,0 -3.376161,0.334974 -4.896859,1.004073 h -5.17e-4 c -1.500198,0.648799 -2.817848,1.551213 -3.953247,2.706811 l -5.17e-4,5.17e-4 c -1.114899,1.135299 -1.996617,2.462821 -2.645316,3.98322 v 5.16e-4 c -0.6487,1.500299 -0.973584,3.101977 -0.973584,4.804875 v 5.17e-4 c 10e-5,1.702998 0.324884,3.314865 0.973584,4.835364 v 5.16e-4 c 0.498242,1.152071 1.136809,2.200271 1.909961,3.149162 0.06713,0.08674 0.131161,0.175856 0.200504,0.260966 0.06781,0.08763 0.132505,0.177591 0.202572,0.26355 0.06603,0.08529 0.129234,0.172609 0.197404,0.256315 0.06855,0.08862 0.133781,0.179731 0.204638,0.26665 0.0664,0.08575 0.12988,0.173716 0.198438,0.257866 0.0673,0.08697 0.131497,0.176153 0.201021,0.261483 0.06721,0.08684 0.131599,0.175759 0.201022,0.260966 0.06775,0.08754 0.132054,0.177674 0.202054,0.263549 0.06603,0.08529 0.129235,0.172608 0.197404,0.256315 0.06848,0.08853 0.133862,0.179308 0.204639,0.266134 0.06648,0.08586 0.129792,0.174124 0.198438,0.258382 0.0673,0.08697 0.131497,0.176153 0.201021,0.261483 0.06721,0.08684 0.131599,0.175763 0.201021,0.260966 0.06775,0.08754 0.132055,0.17767 0.202055,0.26355 0.06603,0.08529 0.129234,0.172609 0.197404,0.256315 0.06773,0.08756 0.132076,0.17765 0.202055,0.26355 0.06743,0.08714 0.131872,0.176507 0.201538,0.261999 0.067,0.08657 0.130784,0.175506 0.199988,0.260449 0.06811,0.08801 0.133222,0.178257 0.203605,0.264584 0.06618,0.08546 0.129591,0.172958 0.197921,0.256832 0.06753,0.08728 0.131766,0.176894 0.201538,0.262516 0.06699,0.08656 0.13079,0.175514 0.199988,0.260449 0.06781,0.08763 0.132505,0.177591 0.202571,0.26355 0.06588,0.08509 0.128881,0.172281 0.196887,0.255798 0.06862,0.08872 0.134224,0.17964 0.205156,0.266651 0.06648,0.08586 0.129792,0.174124 0.198437,0.258382 0.0673,0.08697 0.131497,0.176154 0.201022,0.261483 0.06728,0.08694 0.131521,0.176185 0.201021,0.261482 0.06714,0.08676 0.131151,0.175845 0.200505,0.260966 0.0672,0.08684 0.131599,0.17576 0.201021,0.260966 0.0679,0.08774 0.132413,0.178003 0.202571,0.264067 0.06587,0.08507 0.128888,0.172301 0.196888,0.255798 0.06847,0.08853 0.133861,0.179305 0.204638,0.266134 0.06663,0.08605 0.130151,0.174458 0.198955,0.258899 0.06714,0.08675 0.13115,0.175845 0.200504,0.260966 0.0672,0.08684 0.131599,0.175759 0.201021,0.260966 0.0679,0.08773 0.132412,0.178004 0.202572,0.264066 0.06587,0.08507 0.128887,0.1723 0.196887,0.255799 0.06848,0.08853 0.133859,0.179307 0.204639,0.266133 0.06663,0.08605 0.130151,0.174456 0.198954,0.258899 0.06632,0.0857 0.129439,0.173765 0.197921,0.257866 0.06877,0.08892 0.134582,0.179967 0.205672,0.267167 0.06634,0.08568 0.12942,0.173784 0.197921,0.257865 0.06743,0.08714 0.131872,0.176509 0.201538,0.262 0.067,0.08657 0.130784,0.175505 0.199988,0.260449 0.06781,0.08763 0.132505,0.177593 0.202571,0.26355 0.06588,0.08509 0.128881,0.172281 0.196888,0.255798 0.06862,0.08872 0.134225,0.179635 0.205155,0.26665 0.06639,0.08575 0.129881,0.173713 0.198438,0.257866 0.06738,0.08708 0.131409,0.176562 0.201021,0.261999 0.06721,0.08684 0.131599,0.175761 0.201021,0.260966 0.06775,0.08754 0.132055,0.17767 0.202055,0.26355 0.06603,0.08529 0.129234,0.172608 0.197404,0.256315 0.06855,0.08863 0.133779,0.179729 0.204639,0.266651 0.06639,0.08575 0.129879,0.173715 0.198437,0.257865 0.0673,0.08697 0.131493,0.176155 0.201022,0.261483 0.06728,0.08694 0.13152,0.176185 0.201021,0.261482 0.06767,0.08743 0.132141,0.177263 0.202055,0.263033 0.06603,0.08529 0.129234,0.172608 0.197404,0.256316 0.06848,0.08853 0.133859,0.179305 0.204638,0.266133 0.06648,0.08586 0.129792,0.174126 0.198438,0.258382 0.0673,0.08697 0.131495,0.176153 0.201021,0.261483 0.06721,0.08684 0.131599,0.175761 0.201021,0.260966 0.067,0.08657 0.130786,0.175503 0.199988,0.260449 0.06753,0.08728 0.131766,0.176895 0.201538,0.262517 0.06699,0.08657 0.13079,0.17551 0.199988,0.260449 0.06796,0.08782 0.132864,0.177924 0.203089,0.264066 0.06575,0.08491 0.128502,0.171937 0.19637,0.255282 0.06884,0.08901 0.134506,0.180394 0.205672,0.267684 0.06618,0.08546 0.129592,0.172958 0.197921,0.256832 0.06738,0.08709 0.131409,0.176559 0.201021,0.261999 0.06712,0.08674 0.131168,0.175859 0.200505,0.260966 0.06781,0.08763 0.132503,0.177593 0.202571,0.26355 0.06603,0.08529 0.129235,0.172608 0.197404,0.256315 0.06855,0.08862 0.13378,0.179733 0.204639,0.266651 0.06639,0.08575 0.12988,0.173714 0.198438,0.257865 0.0673,0.08697 0.131493,0.176153 0.201021,0.261483 0.06728,0.08694 0.131521,0.176182 0.201021,0.261482 0.06767,0.08743 0.132141,0.177262 0.202055,0.263033 0.06603,0.08529 0.129234,0.17261 0.197404,0.256316 0.06855,0.08862 0.133781,0.179731 0.204639,0.26665 0.06587,0.08507 0.128887,0.172301 0.196887,0.255798 0.06848,0.08853 0.133859,0.179303 0.204639,0.266134 0.06663,0.08605 0.13015,0.174456 0.198954,0.258899 0.06714,0.08676 0.131148,0.175847 0.200504,0.260966 0.0672,0.08684 0.131599,0.175759 0.201022,0.260966 0.0679,0.08774 0.132411,0.178004 0.202571,0.264066 0.06587,0.08507 0.128888,0.172297 0.196888,0.255799 0.06848,0.08853 0.133859,0.179305 0.204638,0.266133 0.06663,0.08605 0.130148,0.174454 0.198954,0.258899 0.06714,0.08676 0.131149,0.175845 0.200505,0.260966 0.06721,0.08684 0.131597,0.175761 0.201021,0.260966 0.06775,0.08755 0.132053,0.17767 0.202055,0.26355 0.06574,0.0849 0.128515,0.171945 0.196371,0.255282 0.06801,0.08795 0.132808,0.178317 0.203088,0.264583 0.06796,0.08782 0.132862,0.177924 0.203088,0.264067 0.06572,0.08487 0.128534,0.171974 0.196371,0.255281 0.06862,0.08873 0.134221,0.179635 0.205155,0.26665 0.06663,0.08605 0.130151,0.174458 0.198955,0.258899 0.06714,0.08676 0.131146,0.175843 0.200504,0.260966 0.06721,0.08684 0.131599,0.17576 0.201021,0.260966 0.06775,0.08755 0.132053,0.177668 0.202055,0.26355 0.06603,0.08529 0.129234,0.172607 0.197404,0.256315 0.06848,0.08853 0.133859,0.179307 0.204639,0.266134 0.06648,0.08586 0.129792,0.174121 0.198437,0.258382 0.0673,0.08697 0.131496,0.176155 0.201022,0.261483 0.06728,0.08694 0.131517,0.176182 0.201021,0.261483 0.06767,0.08743 0.132141,0.177261 0.202055,0.263033 0.06603,0.08529 0.12923,0.172609 0.197404,0.256315 0.06855,0.08862 0.133781,0.179731 0.204639,0.26665 0.0664,0.08575 0.129877,0.173717 0.198437,0.257866 0.0673,0.08698 0.131495,0.17615 0.201021,0.261482 0.06721,0.08684 0.131597,0.17576 0.201022,0.260966 0.06775,0.08755 0.132052,0.177668 0.202055,0.26355 0.06603,0.08529 0.129231,0.172607 0.197404,0.256315 0.06848,0.08853 0.133859,0.179307 0.204638,0.266134 0.06648,0.08586 0.12979,0.174121 0.198438,0.258382 0.06648,0.08591 0.129785,0.174074 0.198437,0.258382 0.06869,0.08882 0.134144,0.180059 0.205156,0.267167 0.06631,0.08564 0.129969,0.173302 0.198437,0.257349 0.06739,0.08708 0.131405,0.176563 0.201021,0.261999 0.06728,0.08694 0.131521,0.176183 0.201022,0.261483 0.06767,0.08743 0.13214,0.177263 0.202055,0.263033 0.06603,0.08529 0.129234,0.172605 0.197404,0.256315 0.06855,0.08862 0.133781,0.179731 0.204638,0.266651 0.06632,0.08564 0.129965,0.1733 0.198438,0.257348 0.06738,0.08709 0.131407,0.176562 0.201021,0.262 0.06713,0.08674 0.131164,0.17586 0.200505,0.260966 0.06728,0.08695 0.131513,0.176172 0.201021,0.261483 0.06721,0.08684 0.131595,0.17576 0.201021,0.260966 0.0679,0.08774 0.132412,0.178 0.202572,0.264066 0.06587,0.08507 0.128885,0.172299 0.196887,0.255798 0.06848,0.08853 0.133859,0.179307 0.204639,0.266134 0.06663,0.08605 0.130148,0.174454 0.198954,0.258899 0.06714,0.08676 0.131149,0.175846 0.200505,0.260966 0.06721,0.08685 0.131596,0.175757 0.201021,0.260966 0.0679,0.08774 0.132411,0.178002 0.202572,0.264067 0.06587,0.08507 0.128884,0.172297 0.196887,0.255798 0.06848,0.08853 0.133859,0.179303 0.204638,0.266134 0.06663,0.08605 0.130149,0.174457 0.198955,0.258898 0.06714,0.08676 0.131148,0.175843 0.200504,0.260966 0.06699,0.08656 0.130796,0.175515 0.199988,0.26045 0.06727,0.08694 0.131528,0.176186 0.201021,0.261482 0.06729,0.08695 0.131513,0.176175 0.201022,0.261483 0.06713,0.08675 0.131157,0.175854 0.200504,0.260966 0.06796,0.08782 0.132864,0.177921 0.203089,0.264067 0.06572,0.08487 0.128529,0.171974 0.19637,0.255281 0.06862,0.08873 0.134224,0.179633 0.205155,0.266651 0.0664,0.08575 0.129878,0.173711 0.198438,0.257865 0.06739,0.08709 0.131407,0.176559 0.201021,0.262 0.06713,0.08675 0.131158,0.175849 0.200505,0.260966 0.06796,0.08782 0.132864,0.177925 0.203088,0.264066 0.06587,0.08507 0.128885,0.172297 0.196887,0.255798 0.06848,0.08853 0.13386,0.179305 0.204639,0.266134 0.06663,0.08605 0.130148,0.174454 0.198954,0.258899 0.06714,0.08676 0.131149,0.175843 0.200505,0.260966 0.06721,0.08684 0.131596,0.175761 0.201021,0.260966 0.06775,0.08755 0.132053,0.177668 0.202055,0.26355 0.06603,0.08529 0.129232,0.172609 0.197404,0.256315 0.06855,0.08863 0.133777,0.179729 0.204639,0.26665 0.0664,0.08575 0.129877,0.173715 0.198437,0.257866 0.06731,0.08698 0.131491,0.17615 0.201022,0.261482 0.06728,0.08694 0.131518,0.176183 0.201021,0.261483 0.06767,0.08743 0.132136,0.177263 0.202055,0.263033 0.06603,0.08529 0.129234,0.172605 0.197404,0.256315 0.06848,0.08853 0.133855,0.179305 0.204638,0.266134 0.06625,0.08557 0.129517,0.17337 0.197921,0.257349 0.0667,0.0862 0.130071,0.174824 0.198954,0.259415 0.06869,0.08882 0.134146,0.180059 0.205156,0.267167 0.06631,0.08564 0.129965,0.1733 0.198437,0.257349 0.06739,0.08709 0.131408,0.176563 0.201022,0.262 0.06713,0.08674 0.131163,0.175856 0.200504,0.260966 0.06729,0.08695 0.131513,0.176172 0.201022,0.261482 0.06713,0.08675 0.131159,0.175849 0.200504,0.260966 0.06796,0.08782 0.132864,0.177922 0.203088,0.264067 0.06631,0.08564 0.129967,0.173303 0.198438,0.257348 0.06739,0.08709 0.131407,0.17656 0.201021,0.262 0.06728,0.08694 0.131519,0.176185 0.201022,0.261483 0.06767,0.08743 0.132136,0.177258 0.202054,0.263033 0.06603,0.08529 0.129232,0.172605 0.197404,0.256315 0.06855,0.08863 0.133778,0.179728 0.204639,0.26665 0.06587,0.08507 0.128885,0.172297 0.196887,0.255799 0.06848,0.08853 0.133855,0.179306 0.204639,0.266133 0.06663,0.08606 0.130149,0.174454 0.198954,0.258899 0.06715,0.08676 0.131145,0.175843 0.200505,0.260966 0.06721,0.08685 0.131599,0.175757 0.201021,0.260966 0.0679,0.08774 0.132407,0.178 0.202572,0.264067 0.06587,0.08507 0.128887,0.1723 0.196887,0.255798 0.06848,0.08853 0.133855,0.179302 0.204639,0.266134 0.0664,0.08576 0.129875,0.173702 0.198437,0.257865 0.06654,0.08599 0.129725,0.174517 0.198438,0.258899 0.06862,0.08873 0.134223,0.179633 0.205155,0.26665 0.06648,0.08586 0.129793,0.174128 0.198438,0.258383 0.06728,0.08695 0.131513,0.176172 0.201021,0.261482 0.06713,0.08675 0.131159,0.175853 0.200504,0.260966 0.06796,0.08782 0.13286,0.177921 0.203089,0.264067 0.06572,0.08488 0.128531,0.171971 0.19637,0.255281 0.06862,0.08873 0.13422,0.179633 0.205156,0.266651 0.06647,0.08586 0.129794,0.174127 0.198437,0.258382 0.06729,0.08695 0.131509,0.176176 0.201022,0.261483 0.06721,0.08685 0.131596,0.175756 0.201021,0.260966 0.0679,0.08774 0.132407,0.178 0.202571,0.264066 0.06588,0.08508 0.128885,0.172297 0.196888,0.255799 0.06848,0.08853 0.133855,0.179302 0.204638,0.266133 0.06663,0.08606 0.130149,0.174454 0.198955,0.258899 0.06715,0.08676 0.131144,0.175843 0.200504,0.260966 0.06721,0.08685 0.131599,0.175759 0.201021,0.260966 0.0679,0.08774 0.132408,0.178 0.202572,0.264067 0.06587,0.08507 0.128887,0.172297 0.196887,0.255798 0.06855,0.08863 0.133777,0.179729 0.204639,0.26665 0.06639,0.08575 0.12988,0.173713 0.198437,0.257866 0.06731,0.08697 0.131492,0.176154 0.201022,0.261483 0.06728,0.08694 0.131521,0.176182 0.201021,0.261482 0.06767,0.08743 0.132138,0.177259 0.202055,0.263033 0.06603,0.08529 0.12923,0.172605 0.197404,0.256315 0.06855,0.08863 0.133779,0.179729 0.204639,0.266651 0.06617,0.08546 0.129601,0.172961 0.19792,0.256832 0.0667,0.08621 0.130073,0.174824 0.198955,0.259415 0.06862,0.08873 0.134219,0.179635 0.205155,0.266651 0.0664,0.08576 0.129879,0.173708 0.198438,0.257865 0.06739,0.08709 0.131403,0.176559 0.201021,0.262 0.06713,0.08674 0.131165,0.175856 0.200504,0.260966 0.06781,0.08763 0.132501,0.177588 0.202572,0.263549 0.06588,0.08509 0.128878,0.172281 0.196887,0.255799 0.0687,0.08882 0.134142,0.180054 0.205156,0.267167 0.0664,0.08575 0.129877,0.173713 0.198437,0.257865 0.06731,0.08697 0.131491,0.176159 0.201021,0.261483 0.06721,0.08684 0.131597,0.175769 0.201022,0.260967 0.06715,0.0868 0.131134,0.17584 0.200504,0.26097 0.06736,0.0871 0.131433,0.17657 0.201022,0.26199 0.06782,0.0876 0.132495,0.17758 0.202571,0.26355 0.06639,0.0857 0.129881,0.17372 0.198438,0.25787 0.06781,0.0876 0.132501,0.17758 0.202571,0.26355 0.06589,0.0851 0.128872,0.17227 0.196888,0.2558 0.06849,0.0885 0.133844,0.1793 0.204638,0.26613 0.06597,0.0852 0.128778,0.1727 0.196888,0.25632 0.06869,0.0888 0.134143,0.18004 0.205155,0.26716 0.06654,0.0859 0.13024,0.17404 0.198954,0.25839 0.06714,0.0868 0.131152,0.17583 0.200505,0.26096 0.06728,0.087 0.131517,0.17617 0.201021,0.26148 0.06715,0.0868 0.131146,0.17584 0.200505,0.26097 0.06699,0.0866 0.130793,0.17554 0.199987,0.26045 0.0666,0.0861 0.130173,0.17446 0.198955,0.2589 0.0687,0.0888 0.134141,0.18005 0.205155,0.26717 0.06639,0.0857 0.129883,0.1737 0.198438,0.25786 0.06788,0.0877 0.132943,0.17749 0.203088,0.26355 0.06677,0.0863 0.130512,0.17478 0.199471,0.25942 0.003,0.004 0.0058,0.008 0.0088,0.0119 H 81.964506 v 3.13418 H 81.853402 V 107.873 h -0.200505 v -0.262 h -0.201021 v -0.26096 h -0.200505 v -0.26097 H 81.05035 v -0.26097 h -0.200505 v -0.26096 h -0.200504 v -0.0119 -0.24908 h -0.201022 v -0.062 -0.19895 h -0.200504 v -0.11214 -0.14986 h -0.201021 v -0.16123 -0.0997 h -0.200505 v -0.21136 -0.0501 h -0.201021 v -0.26097 h -6.733439 v 11.41378 c -0.05461,-0.0684 -0.104007,-0.14116 -0.160197,-0.20826 -0.06924,-0.0879 -0.132296,-0.18085 -0.204122,-0.26665 -0.06862,-0.0871 -0.130907,-0.17954 -0.202055,-0.26458 -0.06926,-0.088 -0.132287,-0.18129 -0.204122,-0.26717 -0.06952,-0.0883 -0.133052,-0.18151 -0.205155,-0.26768 -0.07043,-0.0894 -0.134658,-0.18406 -0.20774,-0.27131 -0.06775,-0.0859 -0.129274,-0.17703 -0.199471,-0.26096 -0.07064,-0.0897 -0.134954,-0.18479 -0.208256,-0.27234 -0.06941,-0.0881 -0.132672,-0.18121 -0.204638,-0.26716 -0.06797,-0.0862 -0.129571,-0.17779 -0.199988,-0.262 -0.07083,-0.09 -0.135286,-0.1851 -0.208773,-0.27286 -0.06943,-0.088 -0.13267,-0.18122 -0.204639,-0.26716 -0.06867,-0.0871 -0.130905,-0.17956 -0.202055,-0.26459 -0.07019,-0.089 -0.13445,-0.18284 -0.207222,-0.26975 -0.06886,-0.0873 -0.131233,-0.17985 -0.202572,-0.2651 -0.06921,-0.0878 -0.131891,-0.18093 -0.203605,-0.26665 -0.0694,-0.088 -0.132209,-0.18171 -0.204122,-0.26768 -0.07018,-0.089 -0.134484,-0.18285 -0.207222,-0.26975 -0.06945,-0.088 -0.132684,-0.18119 -0.204639,-0.26717 -0.06869,-0.0871 -0.13092,-0.17953 -0.202055,-0.26458 -0.06953,-0.0882 -0.132608,-0.18158 -0.204638,-0.26769 -0.07005,-0.0888 -0.133607,-0.18303 -0.206189,-0.26975 -0.06894,-0.0874 -0.131701,-0.17977 -0.203089,-0.2651 -0.07006,-0.0888 -0.133603,-0.18303 -0.206189,-0.26975 -0.06933,-0.0878 -0.132326,-0.18086 -0.204122,-0.26665 -0.308492,-0.39076 -0.632434,-0.76882 -0.989603,-1.11931 -1.138299,-1.138 -2.470107,-2.02871 -3.995105,-2.67271 -1.524899,-0.66599 -3.157161,-0.99942 -4.896859,-0.99942 H 46.784224 v 25.00003 h 0.201022 v 0.21135 0.0496 h 0.200504 v 0.16123 0.0997 h 0.200505 v 0.11214 0.14934 h 0.201021 v 0.062 0.19999 h 0.200505 v 0.0109 0.25012 h 0.201021 v 0.26096 h 0.200505 v 0.26097 h 0.201021 v 0.26097 h 0.200505 v 0.26096 h 0.201021 v 0.26097 h 0.200504 v 0.262 h 0.201022 v 0.26096 h 0.200504 v 0.26097 h 0.201022 v 0.26096 h 0.200504 v 0.26097 h 0.201021 v 0.26097 h 0.200505 v 0.26096 h 0.201021 v 0.262 h 0.200505 v 0.26097 h 0.201021 v 0.26096 h 0.200505 v 0.26149 h 0.201021 v 0.26096 h 0.200505 v 0.26097 h 0.201021 v 0.26096 h 0.200505 v 0.262 h 0.200504 v 0.26097 h 0.201021 v 0.26097 h 0.200505 v 0.26096 h 0.201021 v 0.26097 h 0.200505 v 0.26096 h 0.201021 v 0.26097 h 0.200505 v 0.262 h 0.201021 v 0.26097 h 0.200505 v 0.26096 h 0.201021 v 0.26097 h 0.200505 v 0.26096 h 0.201021 v 0.26097 h 0.200504 v 0.26148 h 0.201022 v 0.262 h 0.200504 v 0.26097 h 0.201022 v 0.26096 h 0.200504 v 0.26097 h 0.201021 v 0.26097 h 0.200505 v 0.26096 h 0.201021 v 0.26097 h 0.200505 v 0.262 h 0.201021 v 0.26096 h 0.200505 v 0.26097 h 0.201021 v 0.26097 h 0.200505 v 0.26096 h 0.200504 v 0.26097 h 0.201022 v 0.26096 h 0.200504 v 0.26097 h 0.201021 v 0.262 h 0.200505 v 0.26096 h 0.201021 v 0.26149 h 0.200505 v 0.26096 h 0.201021 v 0.26097 h 0.200505 v 0.26097 h 0.201021 v 0.26096 h 0.200505 v 0.262 h 0.201021 v 0.26097 h 0.200504 v 0.26096 h 0.201022 v 0.26097 h 0.200504 v 0.26096 h 0.201022 v 0.26097 h 0.200504 v 0.26097 h 0.201022 v 0.262 h 0.200504 v 0.26096 h 0.201021 v 0.26097 h 0.200505 v 0.26096 h 0.201021 v 0.26097 h 0.200505 v 0.26148 h 0.200504 v 0.26097 h 0.201022 v 0.262 h 0.200504 v 0.26096 h 0.201022 v 0.26097 H 62.4427 v 0.26097 h 0.201022 v 0.26096 h 0.200504 v 0.26097 h 0.201021 v 0.26096 h 0.200505 v 0.262 h 0.201021 v 0.26097 h 0.200505 v 0.26097 h 0.201021 v 0.26096 h 0.200505 v 0.26097 h 0.201021 v 0.26096 h 0.200505 v 0.26097 h 0.201021 v 0.262 h 0.200504 v 0.26097 h 0.201022 v 0.26148 h 0.200504 v 0.26096 h 0.201022 v 0.26097 h 0.200504 v 0.26097 h 0.201022 v 0.26096 h 0.200504 v 0.262 h 0.201021 v 0.26097 h 0.200505 v 0.26096 h 0.200505 v 0.26097 h 0.201021 v 0.26097 h 0.200504 v 0.26096 h 0.201022 v 0.26097 h 0.200504 v 0.262 h 0.201022 v 0.26096 h 0.200504 v 0.26097 h 0.201021 v 0.26096 h 0.200505 v 0.26097 h 0.201021 v 0.26097 h 0.200505 v 0.26148 h 0.201021 v 0.262 h 0.200505 v 0.26096 h 0.201021 v 0.26097 h 0.200505 v 0.26097 h 0.201021 v 0.26096 h 0.200505 v 0.26097 h 0.201021 v 0.26096 h 0.200504 v 0.262 h 0.201022 v 0.26097 h 0.200504 v 0.26097 h 0.201022 v 0.26096 h 0.200504 v 0.26097 h 0.200505 v 0.26096 h 0.201021 v 0.26097 h 0.200505 v 0.262 H 71.8783 v 0.26097 h 0.201021 v 0.26096 h 0.200505 v 0.26148 h 0.201021 v 0.26097 h 0.200505 v 0.26097 h 0.200504 v 0.26096 h 0.201022 v 0.262 h 0.200504 v 0.26097 h 0.201021 v 0.26096 h 0.200505 v 0.26097 h 0.201021 v 0.26097 h 0.200505 v 0.26096 h 0.201021 v 0.26097 h 0.200505 v 0.262 h 0.201021 v 0.26096 h 0.200505 v 0.26097 h 0.201021 v 0.26097 h 0.200505 v 0.26096 h 0.201021 v 0.26097 h 0.200504 v 0.26148 h 0.201022 v 0.262 h 0.200504 v 0.26097 h 0.201022 v 0.26096 h 0.200504 v 0.26097 h 0.201022 v 0.26096 h 0.200504 v 0.26097 h 0.201021 v 0.26097 h 0.200505 v 0.26096 h 0.200505 v 0.262 h 0.201021 v 0.26097 h 0.200504 v 0.26096 h 0.201022 v 0.26097 h 0.200504 v 0.26096 h 0.201022 v 0.26097 h 0.200504 v 0.26097 h 0.201021 v 0.262 h 0.200505 v 0.26096 h 0.201021 v 0.26148 h 0.200505 v 0.26097 h 0.201021 v 0.26097 h 0.200505 v 0.26096 h 0.201021 v 0.26097 h 0.200505 v 0.262 h 0.201021 v 0.26096 h 0.200505 v 0.26097 h 0.201021 v 0.26097 h 0.200504 v 0.26096 H 81.3139 v 0.26097 h 0.200504 v 0.26096 h 0.201022 v 0.262 h 0.200504 v 0.26097 h 0.201021 v 0.26097 h 0.200505 v 0.26096 h 0.200505 v 0.26097 h 0.201021 v 0.26148 h 0.200504 v 0.26097 h 0.201022 v 0.262 h 0.200504 v 0.26096 h 0.201022 v 0.26097 h 0.200504 v 0.26096 h 0.201022 v 0.26097 h 0.200504 v 0.26097 h 0.201021 v 0.26096 h 0.200505 v 0.262 h 0.201021 v 0.26097 h 0.200505 v 0.26096 h 0.201021 v 0.26097 h 0.200505 v 0.26097 h 0.201021 v 0.26096 h 0.200505 v 0.26097 h 0.201021 v 0.262 h 0.200505 v 0.26096 h 0.201021 v 0.26149 h 0.200504 v 0.26096 h 0.201022 v 0.26097 h 0.200504 v 0.26096 h 0.200505 v 0.26097 h 0.201021 v 0.262 h 0.200505 v 0.26096 h 0.201021 v 0.26097 h 0.200505 v 0.26097 h 0.201021 v 0.26096 h 0.200504 v 0.26097 h 0.201022 v 0.26096 h 0.200504 v 0.262 h 0.201022 v 0.26097 h 0.200504 v 0.26097 h 0.201022 v 0.26096 h 0.200504 v 0.26097 h 0.201021 v 0.26096 h 0.200505 v 0.26149 h 0.201021 v 0.262 h 0.200505 v 0.26096 h 0.201021 v 0.26097 h 0.200505 v 0.26096 h 0.201021 v 0.26097 h 0.200505 v 0.26097 h 0.201021 v 0.26096 h 0.200505 v 0.262 h 0.201021 v 0.26097 h 0.200504 v 0.26096 h 0.200505 v 0.26097 h 0.201021 v 0.26097 h 0.200505 v 0.26096 h 0.201021 v 0.26097 h 0.200505 v 0.262 h 0.201021 v 0.26096 h 0.200505 v 0.26097 h 0.201021 v 0.26148 h 0.200504 v 0.26097 h 0.201022 v 0.26096 h 0.200504 v 0.26097 h 0.201022 v 0.262 h 0.200504 v 0.26097 h 0.201022 v 0.26096 h 0.200504 v 0.26097 h 0.201021 v 0.26096 h 0.200505 v 0.26097 h 0.201021 v 0.26097 h 0.200505 v 0.26199 h 0.201021 v 0.26097 h 0.200505 v 0.26097 h 0.201021 v 0.26096 h 0.200505 v 0.26097 h 0.201021 v 0.26096 h 0.200504 v 0.26149 h 0.201022 v 0.262 h 0.200504 v 0.26096 h 0.201022 v 0.26097 h 0.200504 v 0.26097 h 0.201022 v 0.26096 h 0.200504 v 0.26097 h 0.200505 v 0.26096 h 0.201021 v 0.26097 h 0.200505 v 0.262 h 0.201021 v 0.26096 h 0.200504 v 0.26097 h 0.201022 v 0.26097 h 0.200504 v 0.26096 h 0.201022 v 0.26097 h 0.200504 v 0.26096 h 0.200509 v 0.262 h 0.20102 v 0.26097 h 0.20102 v 0.26148 h 0.20102 v 0.26097 h 0.19999 v 0.26096 h 0.20102 v 0.26097 h 0.20102 v 0.26097 h 0.20102 v 0.262 h 0.19999 v 0.26096 h 0.20102 v 0.26097 h 0.20102 v 0.26096 h 0.20102 v 0.26097 h 0.19999 v 0.26097 h 0.20102 v 0.26096 h 0.20051 v 0.262 h 0.20102 v 0.26097 h 0.19999 v 0.26096 h 0.20102 v 0.26097 h 0.20102 v 0.26097 h 0.20102 v 0.26148 h 0.20102 v 0.26096 h 0.19999 v 0.262 h 0.20102 v 0.26097 h 0.20102 v 0.26097 h 0.20102 v 0.26096 h 0.19999 v 0.26097 h 0.20102 v 0.26096 h 0.20102 v 0.26097 h 0.20102 v 0.262 h 0.19999 v 0.26097 h 0.20102 v 0.26096 h 0.20103 v 0.26097 h 0.20102 v 0.26096 h 0.19998 v 0.26097 h 0.20103 v 0.26097 h 0.20102 v 0.26199 h 0.20102 v 0.26097 h 0.19999 v 0.26148 h 0.20102 v 0.26097 h 0.20102 v 0.26097 h 0.20102 v 0.26096 h 0.19999 v 0.26097 h 0.20102 v 0.262 h 0.20102 v 0.26096 h 0.20102 v 0.26097 h 0.19999 v 0.26096 h 0.20102 v 0.26097 h 0.20102 v 0.26097 h 0.20102 v 0.26096 h 0.19999 v 0.262 h 0.20102 v 0.26097 h 0.20102 v 0.26096 h 0.20103 v 0.26097 h 0.19998 v 0.26097 h 0.20051 v 0.26096 h 0.20102 v 0.26148 h 0.20102 v 0.262 h 0.19999 v 0.26097 h 0.20102 v 0.26097 h 0.20102 v 0.26096 h 0.20102 v 0.26097 h 0.19999 v 0.26096 h 0.20102 v 0.26097 h 0.20102 v 0.262 h 0.20102 v 0.26097 h 0.19999 v 0.26096 h 0.20102 v 0.26097 h 0.20102 v 0.26096 h 0.20103 v 0.26097 h 0.19998 v 0.26097 h 0.20102 v 0.262 h 0.20103 v 0.26096 h 0.20102 v 0.26097 h 0.19999 v 0.26148 h 0.20102 v 0.26097 h 0.20102 v 0.26096 h 0.20102 v 0.26097 h 0.19999 v 0.262 h 0.20102 v 0.26096 h 0.20102 v 0.26097 h 0.20102 v 0.26097 h 0.19999 v 0.26096 h 0.20102 v 0.26097 h 0.20102 v 0.26096 h 0.20102 v 0.262 h 0.19999 v 0.26097 h 0.20102 v 0.26096 h 0.20102 v 0.26097 h 0.20102 v 0.26097 h 0.19999 v 0.26096 h 0.20102 v 0.26149 h 0.20102 v 0.26096 h 0.20103 v 0.262 h 0.19998 v 0.26097 h 0.20051 v 0.26096 h 0.20102 v 0.26097 h 0.20102 v 0.26096 h 0.19999 v 0.26097 h 0.20102 v 0.26097 h 0.20102 v 0.262 h 0.20102 v 0.26096 h 0.19999 v 0.26097 h 0.20102 v 0.26096 h 0.20102 v 0.26097 h 0.20102 v 0.26097 h 0.19999 v 0.26096 h 0.20102 v 0.262 h 0.20103 v 0.26097 h 0.20102 v 0.26148 h 0.20102 v 0.26097 h 0.19999 v 0.26096 h 0.20102 v 0.26097 h 0.20102 v 0.26096 h 0.20102 v 0.262 h 0.19999 v 0.26097 h 0.20102 v 0.26097 h 0.20102 v 0.26096 h 0.20102 v 0.26097 h 0.19999 v 0.26096 h 0.20102 v 0.26097 h 0.20102 v 0.262 h 0.20102 v 0.26097 h 0.19999 v 0.26096 h 0.20102 v 0.26097 h 0.20102 v 0.26096 h 0.20102 v 0.26149 h 0.19999 v 0.26096 h 0.20102 v 0.262 h 0.20103 v 0.26097 h 0.20102 v 0.26096 h 0.19998 v 0.26097 h 0.20103 v 0.26097 h 0.20102 v 0.26096 h 0.2005 v 0.26097 h 0.19999 v 0.262 h 0.20102 v 0.26096 h 0.20102 v 0.26097 h 0.20102 v 0.26096 h 0.19999 v 0.26097 h 0.20102 v 0.26097 h 0.20102 v 0.26096 h 0.20103 v 0.262 h 0.19998 v 0.26097 h 0.20102 v 0.26148 h 0.20103 v 0.26097 h 0.20102 v 0.26096 h 0.19998 v 0.26097 h 0.20103 v 0.26096 h 0.20102 v 0.262 h 0.20102 v 0.26097 h 0.19999 v 0.26097 h 0.20102 v 0.26096 h 0.20102 v 0.26097 h 0.20102 v 0.26096 h 0.19999 v 0.26097 h 0.20102 v 0.262 h 0.20102 v 0.26097 h 0.20102 v 0.26096 h 0.19999 v 0.26097 h 0.20102 v 0.26096 h 0.20102 v 0.26149 h 0.20102 v 0.26096 h 0.19999 v 0.262 h 0.20102 v 0.26097 h 0.20102 v 0.26096 h 0.20103 v 0.26097 h 0.19998 v 0.26097 h 0.20102 v 0.26096 h 0.20103 v 0.26097 h 0.20102 v 0.262 h 0.19999 v 0.26096 h 0.20102 v 0.26097 h 0.20102 v 0.26097 h 0.2005 v 0.26096 h 0.19999 v 0.26097 h 0.20102 v 0.26096 h 0.20102 v 0.262 h 0.20102 v 0.26097 h 0.19999 v 0.26096 h 0.20102 v 0.26149 h 0.20102 v 0.26096 h 0.20103 v 0.26097 h 0.19998 v 0.26097 h 0.20102 v 0.26199 h 0.20103 v 0.26097 h 0.20102 v 0.26097 h 0.19999 v 0.26096 h 0.20102 v 0.26097 h 0.20102 v 0.26096 h 0.20102 v 0.26097 h 0.19999 v 0.26097 h 0.20102 v 0.262 h 0.20102 v 0.26096 h 0.20102 v 0.26097 h 0.19999 v 0.26096 h 0.20102 v 0.26097 h 0.20102 v 0.26148 h 0.20102 v 0.26097 h 0.20102 v 0.262 h 0.19999 v 0.26096 h 0.20102 v 0.26097 h 0.20102 v 0.26097 h 0.20103 v 0.26096 h 0.19998 v 0.26097 h 0.20103 v 0.26096 h 0.20102 v 0.262 h 0.20102 v 0.26097 h 0.19999 v 0.26097 h 0.20102 v 0.26096 h 0.20102 v 0.26097 h 0.20102 v 0.26096 h 0.19999 v 0.26097 h 0.2005 v 0.262 h 0.20102 v 0.26097 h 0.20102 v 0.26148 h 0.19999 v 0.26096 h 0.20102 v 0.26097 h 0.20102 v 0.26097 h 0.20103 v 0.26096 h 0.19998 v 0.262 h 0.20103 v 0.26097 h 0.20102 v 0.26096 h 0.20102 v 0.26097 h 0.19999 v 0.26097 h 0.20102 v 0.26096 h 0.20102 v 0.26097 h 0.20102 v 0.262 h 0.19999 v 0.26096 h 0.17931 0.0217 v 0.26097 h 0.1571 0.0439 v 0.26096 h 0.13384 0.0672 v 0.26097 h 0.11214 0.0878 v 0.26148 h 0.0899 0.1111 v 0.26097 h 0.0682 0.13281 v 0.262 h 0.045 0.15606 v 0.26097 h 0.0217 0.17828 v 0.26096 h 0.001 11.17917 5.1e-4 c 1.739,0 3.37131,-0.32235 4.89531,-0.96635 l 0.001,-10e-4 c 1.52499,-0.666 2.85607,-1.55671 3.99407,-2.67271 l 0.001,-0.001 c 0.63829,-0.63829 1.18989,-1.34426 1.67277,-2.10426 h 0.16691 v 0.26148 h 0.20102 v 0.26096 h 0.20102 v 0.26097 h 0.19999 v 0.26097 h 0.20102 v 0.26096 h 0.20102 v 0.262 h 0.20103 v 0.26097 h 0.19998 v 0.26096 h 0.19017 0.0109 v 0.26097 h 0.17621 0.0248 v 0.26097 h 0.16174 0.0393 v 0.26096 h 0.14883 0.0512 v 0.26097 h 0.1359 0.0651 v 0.262 h 0.12195 0.0791 v 0.26096 h 0.10904 0.092 v 0.26097 h 0.0951 0.10491 v 0.26096 h 0.0822 0.11886 v 0.26097 h 0.0687 0.13229 v 0.26148 h 0.0548 0.14624 v 0.26097 h 0.0408 0.15916 v 0.262 h 0.0289 0.17208 v 0.26097 h 0.015 0.18603 v 0.26096 h 0.001 6.73188 v -10e-4 -4.17701 h 0.0491 v 0.26097 h 0.20102 v 0.26096 h 0.20102 v 0.26097 h 0.20102 v 0.26097 h 0.19999 v 0.26096 h 0.20102 v 0.26097 h 0.2005 v 0.262 h 0.20103 v 0.26096 h 0.19998 v 0.26097 h 0.20103 v 0.26096 h 0.20102 v 0.26097 h 0.20102 v 0.26148 h 0.16226 0.0377 v 0.26097 h 0.12299 0.078 v 0.262 h 0.0822 0.11886 v 0.26097 h 0.0413 0.15968 v 0.26096 h 10e-4 20.26285 v -0.001 -6.40995 h -0.20051 v -0.26096 h -0.0202 -0.17983 v -0.26097 h -0.0413 -0.15968 v -0.262 h -0.0605 -0.14056 v -0.26148 h -0.0801 -0.12093 v -0.26097 h -0.0992 -0.10077 v -0.26096 h -0.1204 -0.0806 v -0.26097 h -0.14004 -0.061 v -0.26097 h -0.15916 -0.0419 v -0.26096 h -0.17932 -0.0207 v -0.262 h -0.19998 -0.001 v -0.26097 h -0.20102 v -0.26096 h -0.20102 v -0.26097 h -0.19999 v -0.26096 h -0.20102 v -0.26097 h -0.20102 v -0.26097 h -0.20102 v -0.262 h -0.19999 v -0.26096 h -0.20102 v -0.26097 h -0.20102 v -0.26096 h -0.20102 v -0.26149 H 199.131 v -0.26096 h -0.20102 v -0.26097 h -0.20102 v -0.262 h -0.20103 v -0.26096 h -0.19998 v -0.26097 h -0.20103 v -0.26097 h -0.20102 v -0.26096 h -0.20102 v -0.10542 l 5.59604,-10.04435 v -1.12706 h -0.001 -0.19999 v -0.26097 h -0.0419 -0.15813 v -0.26097 h -0.0837 -0.11731 v -0.26199 h -0.12505 -0.076 v -0.26097 h -0.16691 -0.0341 v -0.26097 h -0.19999 v -0.26148 h -0.20102 v -0.26097 h -0.20102 v -0.26096 h -0.20102 v -0.26097 h -0.19999 v -0.262 h -0.20102 v -0.26096 h -0.20102 v -0.26097 h -0.20102 v -0.26096 h -0.19999 v -0.26097 h -0.20051 v -0.26097 h -0.20102 v -0.26096 h -0.20102 v -0.262 h -0.19999 v -0.26097 h -0.20102 v -0.26096 h -0.20102 v -0.26097 h -0.20102 v -0.26097 h -0.19999 v -0.26096 h -0.20102 v -0.26149 h -0.20102 v -0.26199 h -0.20102 v -0.26097 H 198.1021 V 229.042 h -0.20102 v -0.26096 h -0.20102 v -0.26097 h -0.20102 v -0.26096 h -0.19999 v -0.26097 h -0.20102 v -0.262 h -0.20102 V 227.475 H 196.696 v -0.26096 h -0.19998 v -0.26097 H 196.295 v -0.26096 h -0.20103 v -0.26097 h -0.20102 v -0.26097 h -0.19999 v -0.262 h -0.20102 v -0.26096 h -0.20102 v -0.26097 h -0.20102 v -0.26148 h -0.19999 v -0.26097 h -0.20102 v -0.26096 h -0.20102 v -0.26097 h -0.20102 v -0.262 h -0.19999 v -0.26096 h -0.20102 v -0.26097 h -0.20102 v -0.26097 H 193.4838 V 223.036 h -0.19999 v -0.26097 h -0.20102 v -0.26096 h -0.20102 v -0.262 h -0.20102 v -0.26097 h -0.19999 v -0.26096 h -0.20051 v -0.26097 h -0.20102 v -0.26097 h -0.20102 v -0.26096 h -0.19999 v -0.26149 h -0.20102 v -0.262 h -0.20102 v -0.26096 h -0.20102 v -0.26097 h -0.19999 v -0.26096 h -0.20102 v -0.26097 h -0.20102 v -0.26097 h -0.20102 v -0.26096 h -0.19999 v -0.26097 h -0.20102 v -0.262 h -0.20102 v -0.26096 h -0.20102 v -0.26097 h -0.19999 v -0.26096 h -0.20102 v -0.26097 h -0.20103 v -0.26097 H 188.666 v -0.26096 h -0.19998 v -0.262 h -0.20103 v -0.26097 h -0.20102 v -0.26148 h -0.20102 v -0.26097 h -0.19999 v -0.26096 h -0.20102 v -0.26097 h -0.20102 v -0.26096 h -0.20102 v -0.262 h -0.19999 v -0.26097 h -0.20102 v -0.26097 h -0.20102 v -0.26096 h -0.20102 v -0.26097 h -0.20102 v -0.26096 h -0.19999 v -0.26097 h -0.20102 v -0.262 h -0.20102 v -0.26097 h -0.20102 v -0.26096 h -0.19999 v -0.26097 h -0.20102 v -0.26096 h -0.20103 v -0.26149 h -0.2005 v -0.26096 h -0.19999 v -0.262 h -0.20102 v -0.26097 h -0.20102 v -0.26096 h -0.20102 v -0.26097 h -0.19999 v -0.26097 h -0.20102 v -0.26096 h -0.20102 v -0.26097 h -0.20102 v -0.262 h -0.19999 v -0.26096 h -0.20102 v -0.26097 h -0.20102 v -0.26097 h -0.20103 v -0.26096 h -0.19998 v -0.26097 h -0.20102 v -0.26096 h -0.20103 v -0.262 h -0.20102 v -0.26097 h -0.19998 v -0.26096 h -0.20103 v -0.26149 H 180.636 v -0.26096 h -0.20102 v -0.26097 h -0.19999 v -0.26097 h -0.20102 v -0.26199 h -0.20102 v -0.26097 h -0.20102 v -0.26097 h -0.19999 v -0.26096 h -0.20102 v -0.26097 h -0.20102 v -0.26096 h -0.20102 v -0.26097 h -0.19999 v -0.262 h -0.20102 v -0.26097 h -0.20102 v -0.26096 h -0.20102 v -0.26097 h -0.19999 v -0.26096 h -0.20102 v -0.26097 h -0.20102 v -0.26148 h -0.20103 v -0.262 h -0.19998 v -0.26097 h -0.20102 v -0.26096 h -0.20103 v -0.26097 h -0.2005 v -0.26097 h -0.19999 v -0.26096 h -0.20102 v -0.26097 h -0.20102 v -0.262 h -0.20102 v -0.26096 h -0.19999 v -0.26097 h -0.20102 v -0.26097 h -0.20102 v -0.26096 h -0.20102 v -0.26097 h -0.19999 v -0.26096 h -0.20102 v -0.262 h -0.20102 v -0.26097 h -0.20103 v -0.26097 h -0.19998 v -0.26148 h -0.20103 v -0.26096 h -0.20102 v -0.26097 h -0.20102 v -0.26097 h -0.19999 v -0.262 h -0.20102 V 196.1379 H 172.606 v -0.26097 h -0.20102 v -0.26096 h -0.19999 V 195.355 h -0.20102 v -0.26097 h -0.20102 v -0.26096 h -0.20102 v -0.262 h -0.19999 v -0.26097 h -0.20102 v -0.26096 h -0.20102 v -0.26097 h -0.20102 v -0.26096 h -0.19999 v -0.26097 h -0.20102 v -0.26148 h -0.20102 v -0.26097 h -0.20102 v -0.262 h -0.19999 v -0.26096 h -0.20102 v -0.26097 h -0.20103 v -0.26097 h -0.20102 v -0.26096 h -0.20102 v -0.26097 h -0.19999 V 190.916 h -0.20102 v -0.262 h -0.2005 v -0.26097 h -0.20102 v -0.26097 h -0.19999 v -0.26096 h -0.20102 v -0.26097 h -0.20102 v -0.26096 h -0.20102 v -0.26097 h -0.19999 v -0.262 h -0.20102 v -0.26097 h -0.20103 v -0.26148 h -0.20102 v -0.26096 h -0.19998 v -0.26097 h -0.20103 v -0.26097 h -0.20102 v -0.26096 h -0.20102 v -0.262 h -0.19999 v -0.26097 h -0.20102 v -0.26096 h -0.20102 v -0.26097 h -0.20102 v -0.26097 h -0.19999 v -0.26096 H 164.576 v -0.26097 h -0.20102 v -0.262 h -0.20102 v -0.26096 h -0.19999 v -0.26097 h -0.20102 v -0.26097 h -0.20102 v -0.26096 h -0.20102 v -0.26148 h -0.19999 v -0.26097 h -0.20102 v -0.262 h -0.20102 v -0.26097 h -0.20103 v -0.26096 h -0.19998 v -0.26097 h -0.20102 v -0.26096 h -0.20103 v -0.26097 h -0.20102 v -0.26097 h -0.19998 v -0.26199 h -0.20103 v -0.26097 h -0.20102 v -0.26097 h -0.20102 v -0.26096 h -0.19999 v -0.26097 h -0.20102 v -0.26096 h -0.2005 v -0.26097 h -0.20102 v -0.262 h -0.19999 v -0.26097 h -0.20102 v -0.26096 h -0.20102 v -0.26148 h -0.20103 v -0.26097 h -0.19998 v -0.26097 h -0.20102 v -0.26096 h -0.20103 v -0.262 h -0.20102 v -0.26097 h -0.19999 v -0.26096 h -0.20102 v -0.26097 h -0.20102 v -0.26097 h -0.20102 v -0.26096 h -0.19999 v -0.26097 h -0.20102 v -0.262 h -0.20102 v -0.26096 h -0.20102 v -0.26097 h -0.19999 v -0.11937 c 0.74992,-0.20195 1.48416,-0.45811 2.19212,-0.80357 1.22932,-0.60753 2.33432,-1.39806 3.32641,-2.35541 h 0.0253 l -0.0966,0.26096 h 0.13385 0.16278 l -0.0966,0.26149 h 0.12092 0.17674 l -0.0966,0.26096 h 0.10801 0.18913 l -0.0966,0.26097 h 0.0941 0.2036 l -0.0966,0.26096 h 0.0811 0.21601 l -0.0971,0.262 h 0.0682 0.22944 l -0.0966,0.26097 h 0.0553 0.24236 l -0.0966,0.26097 h 0.0413 0.25632 l -0.0966,0.26096 h 0.0274 0.26923 l -0.0966,0.26097 h 0.015 0.28268 l -0.0966,0.26096 h 0.001 6.66006 l 1.21595,-3.25406 h 0.001 6.03013 l 0.045,0.12092 h 0.10336 l 0.0977,0.26097 h 0.10336 l 0.0977,0.26096 h 0.10335 l 0.0977,0.26149 h 0.10232 l 0.0977,0.26096 h 0.10335 l 0.0977,0.26097 h 0.094 0.009 l 0.0977,0.26096 h 0.0811 0.0222 l 0.0977,0.262 h 0.0667 0.0357 l 0.0977,0.26097 h 0.0548 0.0486 l 0.0977,0.26097 h 0.0408 0.0625 l 0.0977,0.26096 h 0.0279 0.0754 l 0.0977,0.26097 h 0.014 0.0884 l 0.0977,0.26096 h 0.002 6.65902 v -0.001 l -1.84588,-4.99091 h 0.11782 v 0.26097 h 0.20102 v 0.26096 h 0.20102 v 0.26097 h 0.19999 v 0.262 h 0.18965 0.0114 v 0.26096 h 0.17674 0.0243 v 0.26097 h 0.16382 0.0367 v 0.26097 h 0.15244 0.0481 v 0.26096 h 0.13953 0.061 v 0.26097 h 0.12712 0.0739 v 0.26148 h 0.1142 0.0868 v 0.262 h 0.10129 0.0987 v 0.26097 h 0.0904 0.11059 v 0.26096 h 0.077 0.12402 v 0.26097 h 0.0641 0.13694 v 0.26096 h 0.0512 0.14883 v 0.26097 h 0.0393 0.16175 v 0.26097 h 0.0264 0.17466 v 0.262 h 0.014 0.18706 v 0.26096 h 10e-4 6.29419 v -0.001 -10.67894 l 0.15193,0.2341 h 0.0315 l 0.1695,0.26096 h 0.0305 l 0.16949,0.26097 h 0.0315 l 0.1695,0.26097 h 0.031 l 0.17002,0.26199 h 0.0315 l 0.1695,0.26097 h 0.0305 l 0.1695,0.26097 h 0.0315 l 0.1695,0.26096 h 0.0315 l 0.1695,0.26097 h 0.0315 l 0.1695,0.26096 h 0.0305 l 0.1695,0.26097 h 0.031 l 0.17002,0.262 h 0.0315 l 0.1695,0.26097 h 0.0315 l 0.1695,0.26096 h 0.03 l 0.17002,0.26148 h 0.0315 l 0.1695,0.26097 h 0.031 l 0.1695,0.26097 h 0.0315 l 0.1695,0.26096 h 0.03 l 0.17002,0.262 h 0.0315 l 0.1695,0.26097 h 0.0315 l 0.1695,0.26096 h 0.0315 l 0.1695,0.26097 h 0.0305 l 0.1695,0.26097 h 0.0315 l 0.1695,0.26096 h 0.0315 l 0.1695,0.26097 h 0.031 l 0.17001,0.262 h 0.0305 l 0.1695,0.26096 h 0.0315 l 0.1695,0.26097 h 0.0315 l 0.1695,0.26097 h 0.0315 l 0.1695,0.26096 h 0.0305 l 0.1695,0.26097 h 0.031 l 0.17001,0.26148 h 0.031 l 0.17001,0.262 h 0.0315 l 0.16949,0.26097 h 0.0305 l 0.1695,0.26096 h 0.0315 l 0.1695,0.26097 h 0.0315 l 0.16949,0.26096 h 0.0315 l 0.1695,0.26097 h 0.0305 l 0.16949,0.26097 h 0.0269 0.004 l 0.17002,0.262 h 0.0139 0.0176 l 0.1695,0.26096 h 0.001 6.32468 v -0.001 -23.57014 h -5.2e-4 -0.2005 v -0.26097 h -0.0129 -0.18707 v -0.26096 h -0.0269 -0.17364 v -0.26097 h -0.0393 -0.16175 v -0.26096 h -0.0522 -0.14883 v -0.262 h -0.0641 -0.13591 V 149.934 h -0.077 -0.12403 v -0.26097 h -0.0904 -0.11059 v -0.26096 h -0.10232 -0.0987 v -0.26097 h -0.1142 -0.0858 v -0.26096 h -0.12815 -0.0729 v -0.26097 h -0.14004 -0.061 v -0.262 h -0.15296 -0.0481 v -0.26096 h -0.16537 -0.0346 v -0.26097 h -0.17828 -0.0227 v -0.26148 h -0.1912 -0.01 v -0.26097 h -0.20102 v -0.26097 h -0.19999 v -0.26096 h -0.20102 v -0.262 h -0.20102 v -0.26097 h -0.20102 v -0.26096 h -0.19999 v -0.26097 H 205.296 V 145.495 h -0.20103 v -0.26097 h -0.20102 v -0.26097 h -0.19998 v -0.262 h -0.20103 v -0.26096 h -0.20102 v -0.26097 h -0.20102 v -0.26096 h -0.19999 v -0.26097 h -0.20102 v -0.26097 h -0.20102 v -0.26148 h -0.20102 v -0.262 h -0.19999 v -0.26096 h -0.20102 v -0.26097 h -0.20102 v -0.26097 h -0.20102 v -0.26096 h -0.20102 v -0.26097 h -0.19999 v -0.26096 h -0.20102 v -0.262 h -0.20102 v -0.26097 h -0.20051 v -0.26097 h -0.19999 v -0.26096 h -0.20102 v -0.26097 h -0.20102 v -0.26096 h -0.20102 v -0.26097 h -0.19999 v -0.262 h -0.20102 v -0.26097 h -0.20102 v -0.26096 h -0.20102 v -0.26148 h -0.19999 v -0.26097 h -0.20102 v -0.26097 h -0.20102 v -0.26096 h -0.20102 v -0.262 h -0.19999 v -0.26097 h -0.20102 v -0.26096 h -0.20102 v -0.26097 h -0.20103 v -0.26097 h -0.19998 v -0.26096 h -0.20102 v -0.26097 H 197.667 v -0.262 h -0.20102 v -0.26096 H 197.266 v -0.26097 h -0.20103 v -0.26096 h -0.20102 v -0.26097 h -0.20102 v -0.26097 h -0.19999 v -0.26096 h -0.20102 v -0.262 h -0.20102 v -0.26149 h -0.20102 v -0.26096 h -0.19999 v -0.26097 h -0.20102 v -0.26096 h -0.20102 v -0.26097 h -0.20102 v -0.26097 h -0.19999 v -0.26199 h -0.20102 v -0.26097 h -0.20102 v -0.26097 h -0.20102 v -0.26096 h -0.19999 v -0.26097 h -0.20102 v -0.26096 h -0.20102 v -0.26097 h -0.20051 v -0.262 h -0.19999 v -0.26097 h -0.20102 v -0.26096 h -0.20102 v -0.26097 h -0.20102 v -0.26148 h -0.19999 v -0.26097 h -0.20102 v -0.26096 h -0.20102 v -0.262 h -0.20102 v -0.26097 h -0.19999 v -0.26096 h -0.20102 v -0.26097 h -0.20102 v -0.26097 h -0.20102 v -0.26096 h -0.19999 v -0.26097 h -0.20102 v -0.262 h -0.20102 v -0.26096 h -0.20103 v -0.26097 h -0.19998 v -0.26097 h -0.20103 v -0.26096 H 189.637 v -0.26097 h -0.20102 v -0.26096 h -0.19999 v -0.262 h -0.20102 v -0.26149 h -0.20102 v -0.26096 h -0.20102 v -0.26097 h -0.19999 v -0.26096 h -0.20102 v -0.26097 h -0.20102 v -0.26097 h -0.20102 v -0.262 h -0.19999 v -0.26096 h -0.20102 V 122.253 h -0.20102 v -0.26096 h -0.20102 v -0.26097 h -0.19999 v -0.26097 h -0.20102 v -0.26096 h -0.20102 v -0.262 h -0.20102 v -0.26097 h -0.19999 v -0.26096 h -0.20102 v -0.26097 h -0.20103 v -0.26148 h -0.2005 v -0.26097 h -0.19999 v -0.26096 h -0.20102 v -0.262 h -0.20102 v -0.26097 h -0.20102 v -0.26096 h -0.19999 v -0.26097 h -0.20102 v -0.26097 h -0.20102 V 117.814 h -0.20102 v -0.26097 h -0.20102 v -0.262 h -0.19999 v -0.26096 h -0.20102 v -0.26097 h -0.20103 v -0.26097 h -0.20102 v -0.26096 h -0.19998 v -0.26097 h -0.20103 v -0.26096 h -0.20102 v -0.262 h -0.20102 v -0.26149 h -0.19999 v -0.26096 H 181.607 v -0.26097 h -0.20102 v -0.26096 h -0.20102 v -0.26097 h -0.19999 v -0.26097 h -0.20102 v -0.26096 h -0.20102 v -0.262 h -0.20102 v -0.26097 h -0.19999 v -0.26096 h -0.20102 v -0.26097 h -0.20102 v -0.26097 h -0.20102 v -0.26096 h -0.19999 v -0.26097 h -0.20102 v -0.262 h -0.20102 v -0.26096 h -0.20103 v -0.26097 h -0.19998 v -0.26148 h -0.20102 v -0.26097 h -0.20103 v -0.26096 h -0.20102 v -0.26097 h -0.19998 v -0.262 h -0.20103 v -0.26097 h -0.2005 v -0.26096 h -0.20102 v -0.26097 h -0.19999 v -0.26096 h -0.20102 v -0.26097 h -0.20102 v -0.26097 h -0.20102 v -0.26199 h -0.19999 v -0.26097 h -0.20102 v -0.26097 h -0.20102 v -0.26096 h -0.20103 v -0.26097 h -0.19998 v -0.26096 h -0.20102 v -0.26149 h -0.20103 v -0.262 h -0.20102 v -0.26096 h -0.19998 v -0.26097 h -0.20103 v -0.26096 h -0.20102 v -0.26097 h -0.20102 v -0.26097 h -0.19999 v -0.26096 H 173.577 v -0.262 h -0.20102 v -0.26097 h -0.20102 v -0.26096 h -0.19999 v -0.26097 h -0.20102 v -0.26097 h -0.20102 v -0.26096 h -0.20102 v -0.26097 h -0.19999 v -0.262 h -0.20102 v -0.26096 h -0.20102 v -0.26097 h -0.20102 v -0.26097 h -0.19999 v -0.26148 h -0.20102 v -0.26096 h -0.20102 v -0.26097 h -0.20103 v -0.262 h -0.19998 v -0.26097 h -0.20103 v -0.26096 h -0.20102 v -0.260968 h -0.20102 v -0.260966 h -0.19999 v -0.261483 h -0.20102 v -0.260965 h -0.2005 v -0.260966 h -0.20102 v -0.261483 h -0.19999 v -0.260966 h -0.20102 v -0.260966 h -0.20102 v -0.261483 h -0.20102 v -0.260966 h -0.19999 v -0.260966 h -0.20102 v -0.261483 h -0.20102 v -0.260966 h -0.20103 v -0.260966 h -0.19998 v -0.261482 h -0.20103 v -0.260966 h -0.20102 v -0.260966 h -0.20102 V 95.35542 h -0.19999 v -0.260966 h -0.20102 v -0.260966 h -0.20102 v -0.261483 h -0.20102 v -0.260966 h -0.19999 V 94.050073 H 165.547 V 93.78859 h -0.20102 v -0.260965 h -0.20102 v -0.261483 h -0.20102 v -0.260966 h -0.19999 V 92.74421 h -0.20102 v -0.260966 h -0.20102 v -0.261483 h -0.20102 v -0.260966 h -0.19999 v -0.260966 h -0.20102 v -0.261483 h -0.20103 V 91.17738 h -0.20102 v -0.260966 h -0.19998 v -0.261482 h -0.20103 v -0.260966 h -0.20102 v -0.261483 h -0.20102 v -0.260966 h -0.19999 v -0.260966 h -0.20102 v -0.261483 h -0.20102 v -0.260966 h -0.2005 v -0.260966 h -0.20051 v -0.261483 h -0.2005 v -0.260966 h -0.20102 v -0.260965 h -0.20102 v -0.260966 h -0.19999 v -0.261483 h -0.20102 v -0.260966 h -0.20103 v -0.261483 h -0.20102 v -0.260966 h -0.19998 v -0.260966 h -0.20103 v -0.261483 h -0.20102 v -0.260966 h -0.20102 v -0.260966 h -0.19999 v -0.261482 h -0.20102 v -0.260966 h -0.20102 v -0.260966 h -0.20102 V 84.64858 h -0.19999 v -0.260966 h -0.20102 v -0.260966 h -0.20102 v -0.261483 h -0.20102 V 83.604199 H 157.517 v -0.260966 h -0.20102 V 83.08175 h -0.20102 v -0.260965 h -0.20102 v -0.260966 h -0.19999 v -0.261483 h -0.20102 V 82.03737 h -0.20102 v -0.260966 h -0.20103 v -0.261483 h -0.19998 v -0.260966 h -0.20102 v -0.260966 h -0.20103 v -0.261483 h -0.20102 V 80.47054 h -0.19998 v -0.261482 h -0.20103 v -0.260966 h -0.20102 v -0.260966 h -0.20102 v -0.261483 h -0.19999 v -0.260966 h -0.20102 v -0.260966 h -0.20102 v -0.260966 h -0.2005 v -0.261483 h -0.19999 v -0.260966 h -0.20102 V 77.85933 h -0.20102 v -0.261483 h -0.20103 v -0.260965 h -0.19998 v -0.261483 h -0.20102 v -0.260966 h -0.20103 v -0.260966 h -0.20102 v -0.261483 h -0.19999 v -0.260966 h -0.20102 v -0.260966 h -0.20102 v -0.261483 h -0.20102 v -0.260966 h -0.19999 v -0.260966 h -0.20102 v -0.261482 h -0.20102 v -0.260966 h -0.20102 v -0.260966 h -0.19999 V 73.94174 h -0.20102 v -0.260966 h -0.20102 v -0.260966 h -0.20102 V 73.158325 H 149.487 v -0.260966 h -0.20102 v -0.260966 h -0.20102 V 72.37491 h -0.20102 v -0.260966 h -0.19999 v -0.260965 h -0.20102 v -0.261483 h -0.20102 V 71.33053 h -0.20103 v -0.260966 h -0.19998 v -0.261483 h -0.20103 v -0.260966 h -0.20102 v -0.260966 h -0.20102 v -0.261483 h -0.19999 V 69.7637 h -0.20102 v -0.260966 h -0.20102 v -0.261482 h -0.20102 v -0.260966 h -0.20102 V 68.71932 h -0.19999 v -0.261483 h -0.20102 v -0.260966 h -0.2005 v -0.260966 h -0.20103 v -0.261483 h -0.19998 v -0.260966 h -0.20103 V 67.15249 h -0.20102 v -0.261483 h -0.20102 v -0.260965 h -0.19999 v -0.261483 h -0.20102 v -0.260966 h -0.20102 v -0.260966 h -0.20102 v -0.261483 h -0.19999 v -0.260966 h -0.20102 v -0.260966 h -0.20102 v -0.260966 h -0.20102 v -0.261483 h -0.19999 v -0.260966 h -0.20102 v -0.261482 h -0.20102 v -0.260966 h -0.20102 v -0.260966 h -0.19999 V 63.2349 h -0.20102 v -0.260966 h -0.20102 v -0.260966 h -0.20102 v -0.261483 h -0.19999 v -0.260966 h -0.20102 v -0.260966 h -0.20103 V 61.66807 h -0.20102 v -0.260966 h -0.19998 v -0.260965 h -0.20103 v -0.261483 h -0.20102 V 60.62369 h -0.20102 v -0.260966 h -0.19999 v -0.261483 h -0.20102 v -0.260966 h -0.20102 v -0.260966 h -0.20102 v -0.261483 h -0.19999 V 59.05686 h -0.20102 v -0.260966 h -0.20102 v -0.261482 h -0.20102 v -0.260966 h -0.19999 V 58.01248 h -0.20102 v -0.261483 h -0.20051 v -0.260966 h -0.20102 v -0.260966 h -0.19998 v -0.261483 h -0.20103 v -0.260966 h -0.20102 V 56.44565 h -0.20102 v -0.261483 h -0.19999 v -0.260966 h -0.20102 v -0.260965 h -0.20102 v -0.261483 h -0.20102 v -0.260966 h -0.19999 v -0.260966 h -0.20102 v -0.261483 h -0.20102 v -0.260966 h -0.20102 v -0.260966 h -0.19999 v -0.261483 h -0.20102 v -0.260966 h -0.20102 v -0.261482 h -0.20102 v -0.260966 h -0.19999 v -0.260966 h -0.20102 V 52.52806 h -0.20102 v -0.260966 h -0.20103 v -0.260966 h -0.19998 v -0.261483 h -0.20102 v -0.260966 h -0.20103 v -0.260966 h -0.20102 v -0.260966 h -0.19999 v -0.261483 h -0.20102 v -0.260965 h -0.20102 v -0.261483 h -0.20102 V 49.91685 h -0.19999 v -0.260966 h -0.20102 v -0.261483 h -0.20102 v -0.260966 h -0.20102 v -0.260966 h -0.19999 V 48.610986 H 130.6158 V 48.35002 h -0.20102 v -0.260966 h -0.20102 v -0.261482 h -0.19999 v -0.260966 h -0.20102 V 47.30564 h -0.20051 v -0.261483 h -0.20102 v -0.260966 h -0.19999 v -0.260966 h -0.20102 v -0.261483 h -0.20102 v -0.260966 h -0.20102 V 45.73881 h -0.19999 v -0.261483 h -0.20102 v -0.260966 h -0.20102 v -0.260965 h -0.20102 v -0.261483 h -0.20102 v -0.260966 h -0.19999 v -0.260966 h -0.20102 v -0.261483 h -0.20102 v -0.260966 h -0.20102 v -0.261483 h -0.19999 v -0.260966 h -0.20102 v -0.260966 h -0.20102 v -0.260966 h -0.20103 v -0.261482 h -0.19998 v -0.260966 h -0.20103 v -0.260966 h -0.20102 v -0.261483 h -0.20102 v -0.260966 h -0.19999 v -0.260966 h -0.20102 v -0.261483 h -0.20102 v -0.260966 h -0.20102 V 40.25439 h -0.19999 v -0.260966 h -0.20102 v -0.260966 h -0.20102 v -0.261482 h -0.20102 V 39.21001 h -0.19999 v -0.260966 h -0.20102 v -0.261483 h -0.20102 v -0.260966 h -0.20102 v -0.260966 h -0.19999 v -0.261483 h -0.20102 V 37.64318 h -0.20102 v -0.260966 h -0.20051 v -0.261482 h -0.2005 v -0.260966 h -0.20051 V 36.5988 h -0.20102 v -0.261483 h -0.20102 v -0.260966 h -0.19999 v -0.260966 h -0.20102 v -0.261483 h -0.20102 v -0.260966 h -0.20102 V 35.03197 h -0.19999 v -0.261483 h -0.20102 v -0.260966 h -0.20102 v -0.260965 h -0.20102 v -0.261483 h -0.19999 v -0.260966 h -0.20102 v -0.260966 h -0.20102 v -0.261483 h -0.20103 v -0.260966 h -0.19998 v -0.260966 h -0.20102 v -0.261483 h -0.20103 v -0.260966 h -0.20102 v -0.260966 h -0.19998 v -0.261482 h -0.20103 v -0.260966 h -0.20102 v -0.260966 h -0.20102 v -0.261483 h -0.19999 v -0.260966 h -0.20102 v -0.261483 h -0.20102 v -0.260966 h -0.20102 V 29.809033 H 116.1619 V 29.54755 h -0.20102 v -0.260966 h -0.20102 v -0.260966 h -0.20102 v -0.260965 h -0.19999 V 28.50317 h -0.20102 v -0.260966 h -0.20102 v -0.260966 h -0.20102 v -0.261483 h -0.19999 v -0.260966 h -0.20102 v -0.261483 h -0.20102 V 26.93634 h -0.20051 v -0.260966 h -0.2005 v -0.261482 h -0.20051 v -0.260966 h -0.20102 V 25.89196 h -0.20102 v -0.261483 h -0.19999 v -0.260966 h -0.20102 v -0.260966 h -0.20102 v -0.261483 h -0.20102 v -0.260966 h -0.19999 V 24.32513 h -0.20102 v -0.261483 h -0.20102 v -0.260966 h -0.20102 v -0.260966 h -0.19999 v -0.261482 h -0.20102 v -0.260966 h -0.20102 v -0.260966 h -0.20103 v -0.261483 h -0.19998 v -0.260966 h -0.20103 v -0.02584 -0.235128 h -0.20102 v -0.07338 -0.188103 h -0.20102 V 21.593514 21.452437 H 109.738 v -0.166915 -0.09405 h -0.20102 v -0.214457 -0.04703 h -0.20102 v -0.260966 h -6.32571 v 10.70684 h -0.0139 l -0.16847,-0.260966 h -0.032 L 102.6269,30.85341 h -0.0326 l -0.16846,-0.260966 h -0.031 l -0.16898,-0.261483 h -0.0326 l -0.16847,-0.260966 h -0.0326 l -0.16846,-0.260966 h -0.0315 l -0.16899,-0.261483 h -0.032 l -0.16847,-0.260966 h -0.032 l -0.16846,-0.260966 h -0.0326 l -0.16847,-0.260965 h -0.032 L 100.8202,28.50317 h -0.0315 l -0.16847,-0.260966 h -0.0326 l -0.16847,-0.260966 h -0.032 l -0.16898,-0.261483 h -0.032 l -0.16898,-0.260966 h -0.03204 l -0.168465,-0.261483 h -0.03204 L 99.616142,26.93634 h -0.03256 L 99.41512,26.675374 h -0.03204 l -0.168465,-0.261482 h -0.03256 L 99.01359,26.152926 H 98.98155 L 98.81309,25.89196 h -0.03204 l -0.168982,-0.261483 h -0.03204 l -0.168465,-0.260966 h -0.03256 l -0.168465,-0.260966 h -0.03204 l -0.168465,-0.261483 h -0.03256 l -0.168465,-0.260966 h -0.03204 L 97.608512,24.32513 h -0.03204 L 97.40749,24.063647 h -0.03204 l -0.168466,-0.260966 h -0.03256 l -0.168465,-0.260966 h -0.03152 l -0.0052,-0.0078 -0.163814,-0.253731 h -0.03204 l -0.02119,-0.03256 -0.147795,-0.22841 h -0.032 l -0.03772,-0.0584 -0.130741,-0.202571 h -0.03204 l -0.05426,-0.08372 -0.114722,-0.177767 h -0.03204 l -0.07028,-0.10852 -0.09819,-0.152446 h -0.03204 l -0.08682,-0.134359 -0.08217,-0.126607 h -0.03152 l -0.103353,-0.15968 -0.06563,-0.101803 h -0.03256 l -0.119373,-0.185001 -0.04909,-0.07597 h -0.03204 l -0.135909,-0.210323 -0.03256,-0.05064 h -0.03204 l -0.152446,-0.236161 -0.01602,-0.02532 h -0.03256 L 94.797811,20.66896 h -6.26525 v 13.840498 h -0.07855 l -0.09663,-0.260965 h -0.104386 l -0.09664,-0.261483 h -0.103869 l -0.09664,-0.260966 h -0.104387 l -0.09663,-0.260966 H 87.65096 l -0.09664,-0.261483 h -0.10387 l -0.09663,-0.260966 h -0.104386 l -0.09663,-0.260966 h -0.10387 l -0.09664,-0.261483 h -0.104386 l -0.09663,-0.260966 h -0.10387 l -0.09664,-0.260966 h -0.104386 l -0.09664,-0.261482 h -0.10387 L 86.149242,31.3758 h -0.104387 l -0.09664,-0.260966 h -0.103869 l -0.09664,-0.261483 h -0.104387 l -0.09663,-0.260966 H 85.44282 l -0.09664,-0.261483 h -0.104387 l -0.09664,-0.260966 h -0.103869 l -0.09663,-0.260966 h -0.104387 l -0.09663,-0.261483 h -0.10387 l -0.09664,-0.260966 h -0.104386 l -0.09663,-0.260966 h -0.10387 l -0.09664,-0.260965 h -0.104386 l -0.09664,-0.261483 h -0.10387 l -0.09663,-0.260966 h -0.104386 l -0.09664,-0.260966 h -0.10387 l -0.09663,-0.261483 h -0.104386 l -0.09663,-0.260966 h -0.10387 l -0.09664,-0.261483 h -0.103869 l -0.09663,-0.260966 h -0.104386 l -0.09663,-0.260966 h -0.10387 l -0.09664,-0.261482 H 82.23064 L 82.13401,26.152863 H 82.03014 L 81.9335,25.89196 h -0.104386 l -0.09664,-0.261483 h -0.104387 l -0.09612,-0.260966 h -0.104386 l -0.09664,-0.260966 h -0.10387 l -0.09663,-0.261483 h -0.104386 l -0.09663,-0.260966 h -0.10387 l -0.09663,-0.260966 h -0.104387 l -0.09664,-0.261483 h -0.104386 l -0.09612,-0.260966 H 80.22301 l -0.09664,-0.260966 h -0.103869 l -0.09664,-0.261482 h -0.104387 l -0.09663,-0.260966 h -0.104386 l -0.09612,-0.260966 h -0.104387 l -0.09663,-0.261483 h -0.104387 l -0.09612,-0.260966 h -0.104386 l -0.0093,-0.02584 -0.08733,-0.235128 h -0.10387 l -0.02687,-0.07286 -0.06976,-0.188619 h -0.104386 l -0.04444,-0.119889 -0.05219,-0.141077 h -0.104387 l -0.0615,-0.166915 -0.03462,-0.09405 h -0.104386 l -0.07906,-0.214457 -0.01757,-0.04703 h -0.10387 l -0.09664,-0.260966 H 72.35269 L 68.126074,32.09623 c -0.0211,-0.01805 -0.04292,-0.0343 -0.06408,-0.05219 l 0.05788,-0.05064 c -0.08435,-0.07466 -0.173519,-0.138111 -0.258899,-0.210323 l 0.05788,-0.05064 c -0.08443,-0.07474 -0.173429,-0.138556 -0.258899,-0.21084 l 0.05839,-0.05064 c -0.08424,-0.07457 -0.173106,-0.138195 -0.258382,-0.210323 l 0.05788,-0.05064 c -0.08435,-0.07466 -0.173519,-0.138112 -0.258899,-0.210323 l 0.05788,-0.05064 c -0.08432,-0.07464 -0.173542,-0.13813 -0.258899,-0.210323 l 0.05788,-0.05064 c -0.08443,-0.07474 -0.173435,-0.138555 -0.258899,-0.21084 0.0014,-0.0012 0.05839,-0.05064 0.05839,-0.05064 -0.08437,-0.07469 -0.17349,-0.138089 -0.258899,-0.210324 l 0.05788,-0.05064 c -0.08443,-0.07474 -0.173435,-0.138556 -0.258899,-0.21084 0.0014,-0.0012 0.05839,-0.05064 0.05839,-0.05064 -0.08437,-0.07469 -0.173491,-0.138089 -0.258899,-0.210323 l 0.05788,-0.05064 c -0.08427,-0.0746 -0.173083,-0.138172 -0.258382,-0.210323 l 0.05788,-0.05064 c -0.08443,-0.07473 -0.173429,-0.138562 -0.258899,-0.21084 l 0.05839,-0.05064 c -0.08435,-0.07466 -0.17352,-0.138111 -0.258899,-0.210323 l 0.05788,-0.05064 c -0.08427,-0.0746 -0.173078,-0.138172 -0.258382,-0.210323 l 0.05788,-0.05064 c -0.08441,-0.07472 -0.173457,-0.138578 -0.258899,-0.21084 l 0.05788,-0.05064 c -0.08427,-0.0746 -0.173078,-0.138172 -0.258382,-0.210323 l 0.05788,-0.05064 c -0.08435,-0.07466 -0.173518,-0.138112 -0.258899,-0.210323 l 0.05788,-0.05064 c -0.08443,-0.07474 -0.173429,-0.138555 -0.258899,-0.210839 0.0014,-0.0012 0.05839,-0.05064 0.05839,-0.05064 -0.08435,-0.07466 -0.173518,-0.138112 -0.258898,-0.210323 l 0.05788,-0.05064 c -0.08427,-0.0746 -0.173077,-0.138173 -0.258382,-0.210323 l 0.05788,-0.05064 c -0.08441,-0.07472 -0.173458,-0.138579 -0.258899,-0.21084 l 0.05788,-0.05064 c -0.08427,-0.0746 -0.173077,-0.138172 -0.258382,-0.210323 l 0.05788,-0.05064 c -0.08435,-0.07466 -0.173519,-0.138111 -0.258899,-0.210323 l 0.05788,-0.05064 c -0.08443,-0.07474 -0.173429,-0.138556 -0.258899,-0.21084 0.0014,-0.0012 0.05839,-0.05064 0.05839,-0.05064 -0.08435,-0.07466 -0.173519,-0.138111 -0.258899,-0.210323 l 0.05788,-0.05064 c -0.08427,-0.0746 -0.173077,-0.138172 -0.258382,-0.210323 l 0.05788,-0.05064 c -0.08432,-0.07464 -0.173542,-0.13813 -0.258899,-0.210323 0.0014,-0.0012 0.05839,-0.05116 0.05839,-0.05116 -0.08435,-0.07466 -0.173518,-0.138112 -0.258899,-0.210324 l 0.05788,-0.05064 C 62.615309,24.86811 62.526403,24.804449 62.44115,24.73234 l 0.05788,-0.05064 c -0.08441,-0.07472 -0.173458,-0.138579 -0.258899,-0.21084 l 0.05788,-0.05064 c -0.08425,-0.07458 -0.173111,-0.1382 -0.258387,-0.210328 l 0.05788,-0.05064 c -0.08432,-0.07464 -0.173542,-0.13813 -0.258899,-0.210323 l 0.05788,-0.05064 c -0.08443,-0.07474 -0.173429,-0.138556 -0.258899,-0.21084 l 0.0584,-0.05064 c -0.08435,-0.07466 -0.173519,-0.138111 -0.258899,-0.210323 l 0.05788,-0.05064 C 60.258056,22.280935 58.910139,21.449629 57.45024,20.88193 55.990442,20.29393 54.469743,19.999813 52.888245,19.999813 Z M 185.28171,169.84906 h 0.0134 v 0.0367 z" /><g
     id="g2"
     transform="translate(0,0.12291611)"><path
       style="fill:#f9f9f9;stroke-width:0.160865"
       d="m 44.767293,59.469755 c -0.03217,0.248113 -0.05478,0.499286 -0.05478,0.756026 v 29.302084 c 0,3.23161 2.629198,5.86063 5.860624,5.86063 h 48.607369 c 3.231464,0 5.860634,-2.62902 5.860634,-5.86063 V 60.225781 c 0,-0.25674 -0.0226,-0.507913 -0.0548,-0.756026 z"
       id="path16" /><path
       id="path5"
       style="fill:#f44336;fill-opacity:1;stroke-width:0.160865"
       d="m 50.573142,54.365671 c -2.974716,0 -5.433052,2.229204 -5.805847,5.104081 h 60.219065 c -0.37279,-2.874877 -2.83112,-5.104081 -5.805854,-5.104081 z" /><g
       id="g1"><path
         style="fill:#798388;fill-opacity:1;stroke-width:0.160865"
         d="m 49.787227,83.040591 h 14.612028 c 0.816296,0 1.477946,0.661665 1.477946,1.477946 0,0.816083 -0.661866,1.477429 -1.477946,1.477429 H 49.787227 c -0.815895,0 -1.477429,-0.661148 -1.477429,-1.477429 0,-0.816281 0.661534,-1.477946 1.477429,-1.477946 z"
         id="path29" /><path
         style="fill:#798388;fill-opacity:1;stroke-width:0.160865"
         d="m 49.787227,77.783547 h 25.239286 c 0.816084,0 1.47743,0.661146 1.47743,1.47743 0,0.81628 -0.661138,1.477946 -1.47743,1.477946 H 49.787227 c -0.815893,0 -1.477429,-0.661666 -1.477429,-1.477946 0,-0.816284 0.661536,-1.47743 1.477429,-1.47743 z"
         id="path28" /><path
         style="fill:#798388;fill-opacity:1;stroke-width:0.160865"
         d="m 63.674235,67.326821 h 1.459859 v 4.985226 h -1.459859 z"
         id="path24" /><path
         style="fill:#798388;fill-opacity:1;stroke-width:0.160865"
         d="m 59.051778,67.326821 h 1.399914 v 3.721737 h 2.586923 v 1.263489 h -3.986837 z"
         id="path23" /><path
         id="path22"
         style="fill:#798388;fill-opacity:1;stroke-width:0.160865"
         d="m 73.856559,67.183161 c -0.36312,10e-7 -0.706103,0.07015 -1.028878,0.211356 -0.322776,0.13617 -0.604899,0.325326 -0.846977,0.567408 -0.237034,0.237032 -0.426188,0.516967 -0.567407,0.839742 -0.136162,0.317726 -0.204122,0.658521 -0.204122,1.021643 0,0.363116 0.06796,0.706102 0.204122,1.028878 0.141219,0.322769 0.330373,0.602704 0.567407,0.839742 0.242078,0.237032 0.524201,0.425676 0.846977,0.56689 0.322775,0.136169 0.665758,0.204639 1.028878,0.204639 0.36312,0 0.706103,-0.06847 1.028878,-0.204639 0.32277,-0.141214 0.602702,-0.329858 0.839742,-0.56689 0.242072,-0.237038 0.431234,-0.516973 0.567407,-0.839742 0.141213,-0.322776 0.211873,-0.665762 0.211873,-1.028878 0,-0.363122 -0.07066,-0.706104 -0.211873,-1.028878 -0.136173,-0.322776 -0.325335,-0.602704 -0.567407,-0.839742 -0.23704,-0.237038 -0.516972,-0.424003 -0.839742,-0.560173 -0.322775,-0.141215 -0.665758,-0.211356 -1.028878,-0.211356 z m 0,1.368909 c 0.171472,0 0.330721,0.03534 0.476973,0.105936 0.151304,0.06556 0.279594,0.156339 0.385507,0.272335 0.11096,0.115997 0.196838,0.252417 0.257348,0.408761 0.06051,0.151296 0.09095,0.312733 0.09095,0.484208 0,0.171473 -0.03044,0.335098 -0.09095,0.491443 -0.06052,0.151295 -0.146403,0.287721 -0.257348,0.40876 -0.105913,0.115999 -0.234203,0.20896 -0.385507,0.27957 -0.146252,0.06556 -0.305501,0.0987 -0.476973,0.0987 -0.171472,0 -0.332905,-0.03313 -0.484208,-0.0987 -0.146258,-0.07061 -0.274562,-0.163572 -0.385506,-0.27957 -0.105914,-0.12104 -0.191779,-0.257465 -0.257349,-0.40876 -0.06051,-0.156345 -0.09095,-0.31997 -0.09095,-0.491443 0,-0.171475 0.03044,-0.332912 0.09095,-0.484208 0.06557,-0.156344 0.151436,-0.292764 0.257349,-0.408761 0.110944,-0.115995 0.239248,-0.206765 0.385506,-0.272335 0.151303,-0.07061 0.312736,-0.105936 0.484208,-0.105936 z" /><path
         id="path21"
         style="fill:#798388;fill-opacity:1;stroke-width:0.160865"
         d="m 55.942924,67.183161 c -0.363121,10e-7 -0.706103,0.07015 -1.028878,0.211356 -0.322774,0.13617 -0.605413,0.325326 -0.847494,0.567408 -0.237032,0.237032 -0.426192,0.516967 -0.567407,0.839742 -0.136172,0.317726 -0.204122,0.658521 -0.204122,1.021643 0,0.363116 0.06795,0.706102 0.204122,1.028878 0.141215,0.322769 0.330375,0.602704 0.567407,0.839742 0.242081,0.237032 0.52472,0.425676 0.847494,0.56689 0.322775,0.136169 0.665757,0.204639 1.028878,0.204639 0.363117,0 0.706107,-0.06847 1.028877,-0.204639 0.322775,-0.141214 0.602188,-0.329858 0.839226,-0.56689 0.242075,-0.237038 0.431236,-0.516973 0.567407,-0.839742 0.141213,-0.322776 0.211873,-0.665762 0.211873,-1.028878 0,-0.363122 -0.07066,-0.706104 -0.211873,-1.028878 -0.136171,-0.322776 -0.325332,-0.602704 -0.567407,-0.839742 -0.237038,-0.237038 -0.516451,-0.424003 -0.839226,-0.560173 -0.32277,-0.141215 -0.66576,-0.211356 -1.028877,-0.211356 z m 0,1.368909 c 0.171469,0 0.330199,0.03534 0.476456,0.105936 0.151302,0.06556 0.279597,0.156339 0.385507,0.272335 0.110949,0.115997 0.196828,0.252417 0.257348,0.408761 0.06052,0.151296 0.09095,0.312733 0.09095,0.484208 0,0.171473 -0.03043,0.335098 -0.09095,0.491443 -0.06052,0.151295 -0.146399,0.287721 -0.257348,0.40876 -0.10591,0.115999 -0.234205,0.20896 -0.385507,0.27957 -0.146257,0.06556 -0.304987,0.0987 -0.476456,0.0987 -0.171474,0 -0.332907,-0.03313 -0.484209,-0.0987 -0.146252,-0.07061 -0.275074,-0.163572 -0.386022,-0.27957 -0.105914,-0.12104 -0.191789,-0.257465 -0.257349,-0.40876 -0.06052,-0.156345 -0.09043,-0.31997 -0.09043,-0.491443 0,-0.171475 0.02991,-0.332912 0.09043,-0.484208 0.06556,-0.156344 0.151438,-0.292764 0.257349,-0.408761 0.110948,-0.115995 0.23977,-0.206765 0.386022,-0.272335 0.151302,-0.07061 0.312735,-0.105936 0.484209,-0.105936 z" /><path
         style="fill:#798388;fill-opacity:1;stroke-width:0.160865"
         d="m 65.822424,66.441604 h 5.031217 v 1.346688 l -0.105936,0.105937 h -1.611788 v 4.417818 h -1.595768 v -4.417818 h -1.611788 l -0.105937,-0.105937 z"
         id="path20" /><path
         id="path19"
         style="fill:#798388;fill-opacity:1;stroke-width:0.160865"
         d="m 48.309798,66.441604 v 5.870443 h 1.573547 v -1.823145 h 1.066602 c 0.282423,0 0.552042,-0.05325 0.809253,-0.159163 0.262249,-0.110954 0.491639,-0.259363 0.68833,-0.445968 0.201734,-0.191648 0.360975,-0.413942 0.476973,-0.666109 0.121045,-0.252168 0.181385,-0.524494 0.181385,-0.817004 0,-0.287472 -0.06034,-0.552187 -0.181385,-0.794267 -0.115998,-0.242081 -0.275239,-0.448649 -0.476973,-0.620117 -0.196691,-0.171474 -0.426081,-0.30519 -0.68833,-0.40101 -0.257211,-0.09582 -0.52683,-0.14366 -0.809253,-0.14366 z m 1.611271,1.301213 h 0.91519 c 0.09078,0 0.176648,0.0174 0.257348,0.05271 0.08069,0.03026 0.151354,0.07591 0.211874,0.136425 0.06052,0.05548 0.10836,0.120721 0.14366,0.196371 0.03531,0.07565 0.05271,0.159334 0.05271,0.250114 0,0.09078 -0.0174,0.173947 -0.05271,0.249597 -0.0353,0.07565 -0.08314,0.143602 -0.14366,0.204122 -0.06052,0.05547 -0.131184,0.100599 -0.211874,0.135909 -0.08069,0.03026 -0.166568,0.04547 -0.257348,0.04547 h -0.91519 z" /></g></g><path
     id="path1"
     style="fill:#5c6bc0;stroke-width:1.09875"
     d="m 90.467346,66.441423 c -3.640942,0 -6.592362,2.951936 -6.592362,6.592879 0,3.640931 2.95142,6.592362 6.592362,6.592362 3.64094,0 6.59236,-2.951431 6.59236,-6.592362 0,-3.640943 -2.95142,-6.592879 -6.59236,-6.592879 z m 0,15.382523 c -3.050901,0 -5.432253,0.243202 -7.217647,0.991671 -1.911551,0.80132 -3.08266,2.159845 -3.707268,4.134631 -0.230858,0.7299 0.31595,1.466577 1.073837,1.466577 h 19.694922 c 0.76099,0 1.31172,-0.739846 1.07901,-1.473811 -0.62651,-1.974897 -1.801884,-3.332816 -3.716574,-4.132048 -1.78382,-0.744623 -4.16163,-0.98702 -7.20628,-0.98702 z" /><text
     xml:space="preserve"
     transform="matrix(0.80541237,0,0,0.80541237,-58.540656,-238.98269)"
     id="text1040"
     style="font-style:normal;font-variant:normal;font-weight:normal;font-stretch:normal;font-size:40px;line-height:1.25;font-family:PRIMETIME;-inkscape-font-specification:'PRIMETIME, Normal';font-variant-ligatures:normal;font-variant-caps:normal;font-variant-numeric:normal;font-variant-east-asian:normal;letter-spacing:0px;word-spacing:0px;white-space:pre;shape-inside:url(#rect1040);fill:#ffd500;fill-opacity:1;stroke:none"><tspan
       x="128.77148"
       y="458.12891"
       id="tspan1">DIZ</tspan></text><text
     xml:space="preserve"
     transform="matrix(0.76034063,0,0,0.76034063,-55.209906,-37.748702)"
     id="text3057"
     style="font-style:normal;font-variant:normal;font-weight:normal;font-stretch:normal;font-size:40px;line-height:1.25;font-family:PRIMETIME;-inkscape-font-specification:'PRIMETIME, Normal';font-variant-ligatures:normal;font-variant-caps:normal;font-variant-numeric:normal;font-variant-east-asian:normal;letter-spacing:0px;word-spacing:0px;white-space:pre;shape-inside:url(#rect3058);fill:#ffd500;fill-opacity:1;stroke:none"><tspan
       x="124.65039"
       y="107.87109"
       id="tspan2">CAN</tspan></text></svg>
