<?xml version="1.0" encoding="UTF-8" standalone="no"?>
<!-- Created with Inkscape (http://www.inkscape.org/) -->

<svg
   width="149.75414mm"
   height="149.75417mm"
   viewBox="0 0 149.75413 149.75416"
   version="1.1"
   id="svg1"
   xml:space="preserve"
   sodipodi:docname="template-matricole-a.svg"
   xmlns:inkscape="http://www.inkscape.org/namespaces/inkscape"
   xmlns:sodipodi="http://sodipodi.sourceforge.net/DTD/sodipodi-0.dtd"
   xmlns="http://www.w3.org/2000/svg"
   xmlns:svg="http://www.w3.org/2000/svg"><sodipodi:namedview
     id="namedview1"
     pagecolor="#ffffff"
     bordercolor="#999999"
     borderopacity="1"
     inkscape:showpageshadow="2"
     inkscape:pageopacity="0"
     inkscape:pagecheckerboard="0"
     inkscape:deskcolor="#d1d1d1"
     inkscape:document-units="mm"
     inkscape:zoom="0.9707102"
     inkscape:cx="475.94019"
     inkscape:cy="393.01122"
     inkscape:window-width="1920"
     inkscape:window-height="991"
     inkscape:window-x="-9"
     inkscape:window-y="-9"
     inkscape:window-maximized="1"
     inkscape:current-layer="svg1" /><defs
     id="defs1"><rect
       x="128.7717"
       y="414.12979"
       width="302.87103"
       height="109.1984"
       id="rect1040" /><rect
       x="124.651"
       y="63.870762"
       width="290.50894"
       height="105.07771"
       id="rect3058" /></defs><path
     id="rect1-3"
     style="fill:#e87d7d;fill-opacity:1;stroke-width:0.295148"
     d="M 0,0 H 149.75414 V 149.75416 H 0 Z"
     inkscape:export-filename="..\b\B2.svg"
     inkscape:export-xdpi="347.36404"
     inkscape:export-ydpi="347.36404" /><path
     id="path5582"
     style="font-size:40px;line-height:1.25;font-family:PRIMETIME;-inkscape-font-specification:'PRIMETIME, Normal';letter-spacing:0px;word-spacing:0px;white-space:pre;fill:#000000;fill-opacity:0.31;stroke-width:0.760341"
     d="m 43.25214,19.999813 v 24.250199 h 5.17e-4 0.204639 v 0.263033 h 5.16e-4 0.204639 v 0.262517 h 5.17e-4 0.204639 v 0.262516 h 5.16e-4 0.204122 v 0.263033 h 5.17e-4 0.204639 v 0.263033 h 5.16e-4 0.204639 v 0.262516 h 5.17e-4 0.204639 v 0.262516 h 5.16e-4 0.204639 v 0.263033 h 5.17e-4 0.204638 v 0.263034 h 5.17e-4 0.204639 v 0.262516 h 5.17e-4 0.204638 v 0.262516 h 5.17e-4 0.204639 v 0.263033 h 5.17e-4 0.204638 v 0.263033 H 46.1238 v 0.262516 h 5.16e-4 0.204639 v 0.262517 h 0.204639 v 0.263033 h 5.17e-4 0.204638 v 0.263033 h 5.17e-4 0.204639 v 0.262516 h 5.16e-4 0.204639 v 0.262516 h 5.17e-4 0.204638 v 0.263033 h 5.17e-4 0.204639 v 0.263033 h 5.17e-4 0.204638 v 0.262517 h 5.17e-4 0.204639 v 0.262516 h 5.17e-4 0.204638 v 0.263033 h 5.17e-4 0.204122 v 0.262516 h 5.17e-4 0.204638 v 0.263033 h 5.17e-4 0.204639 v 0.262517 h 5.17e-4 0.204638 v 0.263033 h 5.17e-4 0.204639 v 0.262516 h 5.16e-4 0.204639 v 0.263033 h 5.17e-4 0.204639 v 0.262516 h 5.16e-4 0.204639 v 0.263033 h 5.17e-4 0.204638 v 0.262517 h 5.17e-4 0.204639 v 0.263033 h 0.205155 v 0.262516 h 0.204639 V 53.7099 h 5.17e-4 0.204638 v 0.262516 h 5.17e-4 0.204639 v 0.263033 h 5.17e-4 0.204638 v 0.262516 h 5.17e-4 0.204639 v 0.263034 h 5.16e-4 0.204639 v 0.262516 h 5.17e-4 0.204639 v 0.263033 h 5.16e-4 0.204639 v 0.262516 h 5.17e-4 0.204638 v 0.263033 h 5.17e-4 0.204122 v 0.262516 h 5.17e-4 0.204639 v 0.263033 h 5.16e-4 0.204639 v 0.262517 h 5.17e-4 0.204638 v 0.263033 h 5.17e-4 0.204639 v 0.262516 h 5.17e-4 0.204638 v 0.263033 h 5.17e-4 0.204639 v 0.262516 h 5.16e-4 0.204639 v 0.263033 h 5.17e-4 0.204639 v 0.262517 h 5.16e-4 0.204639 v 0.263033 h 0.205155 v 0.262516 h 0.204639 v 0.263033 h 5.17e-4 0.204639 v 0.262516 h 5.16e-4 0.204639 v 0.263033 h 5.17e-4 0.204638 v 0.262517 h 5.17e-4 0.204639 v 0.263033 h 5.17e-4 0.204638 v 0.262516 h 5.17e-4 0.204639 v 0.263033 h 5.17e-4 0.204638 v 0.262516 h 5.17e-4 0.204639 v 0.263033 h 5.16e-4 0.204639 v 0.262517 h 0.204639 v 0.263033 h 5.17e-4 0.204638 v 0.262516 h 5.17e-4 0.204639 v 0.263033 h 5.16e-4 0.204639 v 0.262516 h 5.17e-4 0.204638 v 0.263033 h 5.17e-4 0.204639 v 0.262517 h 5.17e-4 0.204638 v 0.263033 h 5.17e-4 0.204639 v 0.262516 h 5.17e-4 0.204638 v 0.263033 h 5.17e-4 0.204639 v 0.262516 h 0.205155 v 0.263033 h 0.204639 v 0.262517 h 5.17e-4 0.204638 v 0.263033 h 5.17e-4 0.204639 v 0.262516 h 5.16e-4 0.204639 v 0.263033 h 5.17e-4 0.204639 v 0.262516 h 5.16e-4 0.204639 v 0.263033 h 5.17e-4 0.204638 v 0.262516 h 5.17e-4 0.204639 v 0.263033 h 0.205155 V 66.5856 h 5.17e-4 0.204122 v 0.263033 h 5.17e-4 0.205155 v 0.262516 h 0.204639 v 0.263033 h 5.17e-4 0.204638 v 0.262516 h 5.17e-4 0.204639 v 0.263033 h 5.16e-4 0.204639 v 0.262517 h 5.17e-4 0.204639 v 0.263033 h 5.16e-4 0.204639 v 0.262516 h 5.17e-4 0.204638 v 0.263033 h 5.17e-4 0.204639 v 0.262516 h 0.205155 v 0.263033 h 0.204639 v 0.262517 h 5.17e-4 0.204638 v 0.263033 h 5.17e-4 0.204639 v 0.262516 h 5.17e-4 0.204638 v 0.263033 h 5.17e-4 0.204639 v 0.262516 h 5.16e-4 0.204639 v 0.263033 h 5.17e-4 0.204639 v 0.262517 h 5.16e-4 0.204639 v 0.263033 h 5.17e-4 0.204638 v 0.262516 h 0.205156 v 0.263033 h 0.205155 v 0.262516 h 0.204639 v 0.263033 h 5.17e-4 0.204638 v 0.262517 h 5.17e-4 0.204639 v 0.263033 h 5.17e-4 0.204638 v 0.262516 h 5.17e-4 0.204639 v 0.263033 h 5.17e-4 0.204638 v 0.262516 h 5.17e-4 0.204639 v 0.263033 h 5.16e-4 0.204639 v 0.262517 h 5.17e-4 0.204638 v 0.263033 h 0.205156 v 0.262516 h 0.204639 v 0.263033 h 5.16e-4 0.204639 v 0.262516 h 5.17e-4 0.204638 v 0.263033 h 5.17e-4 0.204639 v 0.262516 h 5.17e-4 0.204638 v 0.263034 h 5.17e-4 0.204639 v 0.262516 h 5.17e-4 0.204638 v 0.263033 h 5.17e-4 0.204639 v 0.262516 h 0.205155 v 0.263033 h 0.205156 v 0.262516 h 0.205155 v 0.263033 h 0.204639 v 0.262517 h 5.16e-4 0.204639 v 0.263033 h 5.17e-4 0.204639 v 0.262516 h 5.16e-4 0.204639 v 0.263033 h 5.17e-4 0.204638 v 0.262516 h 5.17e-4 0.204639 v 0.263033 h 5.17e-4 0.204638 v 0.262517 h 5.17e-4 0.204639 v 0.263033 h 0.205155 v 0.262516 h 0.204639 v 0.263033 h 5.17e-4 0.204638 v 0.262516 h 5.17e-4 0.204639 v 0.263033 h 5.16e-4 0.204639 v 0.262517 h 5.17e-4 0.204639 v 0.263033 h 5.16e-4 0.204639 v 0.262516 h 5.17e-4 0.204638 v 0.263033 h 5.17e-4 0.204639 v 0.262516 h 0.205155 v 0.263033 h 0.205156 v 0.262517 h 0.205155 v 0.263033 h 0.204639 v 0.262516 h 5.17e-4 0.204638 v 0.263033 h 5.17e-4 0.204639 v 0.262516 h 5.16e-4 0.204639 v 0.263033 h 5.17e-4 0.204639 v 0.262517 h 5.16e-4 0.204639 v 0.263033 h 5.17e-4 0.204638 v 0.262516 h 0.205156 v 0.263033 h 5.17e-4 0.204638 v 0.262516 h 0.205156 v 0.263033 h 0.204638 v 0.262516 h 5.17e-4 0.204639 v 0.263034 h 5.17e-4 0.204638 v 0.262516 h 5.17e-4 0.204639 v 0.263033 h 5.16e-4 0.204639 v 0.262516 h 5.17e-4 0.204639 v 0.263033 h 5.16e-4 0.204639 v 0.262516 h 5.17e-4 0.204638 v 0.263033 h 0.205156 v 0.262517 h 0.205155 v 0.263033 h 0.205156 v 0.262516 h 0.204638 v 0.263033 h 5.17e-4 0.204639 v 0.262516 h 5.17e-4 0.204638 v 0.263033 h 5.17e-4 0.204639 v 0.262517 h 5.17e-4 0.204638 v 0.263033 h 5.17e-4 0.204639 v 0.262516 h 0.205155 v 0.263033 h 0.205156 v 0.262516 h 0.205155 v 0.263033 h 0.204639 v 0.262517 h 5.16e-4 0.204639 v 0.263033 h 5.17e-4 0.204638 v 0.262516 h 5.17e-4 0.204639 V 92.075 h 5.17e-4 0.204638 v 0.262516 h 5.17e-4 0.204639 v 0.263033 h 5.17e-4 0.204638 v 0.262517 h 5.17e-4 0.204639 v 0.263033 h 0.205155 v 0.262516 h 0.205156 v 0.263033 h 0.205155 v 0.262516 h 0.204639 v 0.263033 h 5.16e-4 0.204639 v 0.262517 h 5.17e-4 0.204639 v 0.263033 h 5.16e-4 0.204639 v 0.262516 h 5.17e-4 0.204638 v 0.263033 h 5.17e-4 0.204639 v 0.262516 h 5.17e-4 0.204638 v 0.263033 h 0.205156 v 0.262516 h 0.205155 v 0.263034 h 0.205156 v 0.262516 h 0.204638 v 0.263033 h 5.17e-4 0.204639 v 0.262516 h 5.16e-4 0.204639 v 0.263033 h 5.17e-4 0.204639 v 0.262516 h 5.16e-4 0.204639 v 0.263033 h 5.17e-4 0.204638 v 0.262517 h 5.17e-4 0.204639 v 0.263033 h 5.17e-4 0.204638 v 0.262516 h 0.205156 v 0.263033 h 0.205155 v 0.262516 h 0.205156 v 0.263033 h 0.204638 v 0.262517 h 5.17e-4 0.204639 v 0.263033 h 5.16e-4 0.204639 v 0.26252 h 5.17e-4 0.204639 v 0.26303 h 5.16e-4 0.204639 v 0.262 h 5.17e-4 0.204638 v 0.26303 h 0.205156 v 0.26303 h 0.205155 v 0.26304 h 0.205156 v 0.262 h 0.204638 v 0.26303 h 5.17e-4 0.205156 v 0.26303 h 0.204638 v 0.26304 h 5.17e-4 0.204639 v 0.26303 h 5.17e-4 0.204638 v 0.262 h 5.17e-4 0.204639 v 0.26303 H 89.6059 v 0.26303 h 0.205156 v 0.26304 h 0.205155 v 0.262 h 0.205155 v 0.26303 h 0.205156 v 0.26303 h 0.204638 v 0.26304 h 5.17e-4 0.204639 v 0.13436 c -1.210094,0.13504 -2.364611,0.43667 -3.45922,0.91829 h -5.17e-4 c -1.500199,0.64899 -2.817848,1.55133 -3.953247,2.70732 h -5.17e-4 c -0.727293,0.74041 -1.344885,1.57143 -1.873787,2.47582 h -0.136943 v -0.26303 H 81.20693 v -0.262 h -0.205156 v -0.26303 h -0.205155 v -0.26304 h -0.205156 v -0.26303 h -0.202055 -0.0026 v -0.262 h -0.19017 -0.01499 v -0.26303 h -0.17725 -0.02791 v -0.26304 H 79.81164 79.77133 v -0.26303 h -0.151928 -0.05323 v -0.262 h -0.13901 -0.06615 v -0.26303 h -0.126607 -0.07855 v -0.26252 h -0.113688 -0.09147 v -0.26303 h -0.101285 -0.10387 v -0.26303 h -0.08837 -0.116788 v -0.262 h -0.07596 -0.129191 v -0.26304 H 78.272193 78.1306 v -0.26303 h -0.05116 -0.153996 v -0.26303 h -0.03824 -0.166915 v -0.262 h -0.02584 -0.179317 v -0.26303 H 77.502246 77.31001 V 105.669 h -5.17e-4 -6.325195 v 0.001 10.52183 l -0.0078,-0.0119 h -0.03514 l -0.170015,-0.26303 h -0.03514 l -0.170016,-0.26304 h -0.03617 l -0.168982,-0.262 h -0.03462 l -0.170016,-0.26303 h -0.03514 l -0.170015,-0.26303 h -0.03514 l -0.170016,-0.26304 h -0.03617 l -0.168982,-0.262 h -0.03514 l -0.170016,-0.26303 h -0.03514 l -0.170016,-0.26303 h -0.03566 l -0.169498,-0.26252 h -0.03514 l -0.170016,-0.26303 h -0.03617 l -0.168982,-0.262 h -0.03514 l -0.170016,-0.26303 h -0.03514 l -0.170015,-0.26304 h -0.03462 l -0.170016,-0.26303 h -0.03617 l -0.168982,-0.262 h -0.03514 l -0.170016,-0.26303 h -0.03514 l -0.170015,-0.26304 h -0.03514 l -0.170016,-0.26303 h -0.03514 l -0.170015,-0.26303 h -0.03566 l -0.169498,-0.262 h -0.03514 l -0.170016,-0.26303 h -0.03514 l -0.170015,-0.26304 h -0.03514 l -0.170016,-0.26303 h -0.03514 l -0.169498,-0.262 h -0.03514 l -0.170016,-0.26303 h -0.03514 L 65.4389,109.08481 h -0.03514 l -0.170016,-0.26303 h -0.03617 l -0.168982,-0.262 h -0.03514 l -0.170016,-0.26303 h -0.03566 l -0.169499,-0.26252 h -0.03514 l -0.170015,-0.26303 h -0.03514 l -0.170016,-0.26303 h -0.03617 l -0.168982,-0.262 h -0.03514 l -0.170016,-0.26304 h -0.03462 l -0.170015,-0.26303 h -0.03514 l -0.170016,-0.26303 h -0.03566 l -0.169498,-0.262 h -0.02532 -0.0098 l -0.170016,-0.26303 h -0.01292 -0.02222 L 62.772396,105.669 h -5.17e-4 -6.264734 v 0.001 4.99194 h -0.110071 v -0.26303 h -0.205155 v -0.26304 h -0.205155 v -0.26303 h -0.203606 -10e-4 v -0.262 h -0.19172 -0.01344 v -0.26303 h -0.1788 -0.02636 v -0.26304 H 55.20544 55.16668 v -0.26303 h -0.153479 -0.05168 v -0.262 h -0.14056 -0.06459 v -0.26303 h -0.128158 -0.077 v -0.26252 h -0.115238 -0.08992 v -0.26303 h -0.10232 -0.102836 v -0.26303 h -0.08992 -0.115238 v -0.262 h -0.077 -0.128158 v -0.26304 h -0.06408 -0.14056 v -0.26303 h -0.05219 -0.152963 v -0.26303 h -0.03927 -0.165881 v -0.262 h -0.02687 -0.178284 V 105.932 h -0.01397 -0.191203 v -0.263 h -10e-4 -6.355168 v 0.001 0.001 23.59908 h 10e-4 0.204122 v 0.26303 h 0.01395 0.191203 v 0.26303 h 0.02636 0.1788 v 0.262 h 0.03927 0.165882 v 0.26303 h 0.05168 0.152962 v 0.26252 h 0.0646 0.14056 v 0.26303 h 0.07751 0.127641 v 0.262 h 0.08992 0.115239 v 0.26304 h 0.102836 0.102319 v 0.26303 h 0.115238 0.08992 v 0.26303 h 0.128158 0.077 v 0.26304 h 0.14056 0.06459 v 0.26199 h 0.153479 0.05168 v 0.26304 h 0.165881 0.03927 v 0.26303 h 0.178284 0.02687 v 0.26303 h 0.191202 0.01344 v 0.262 h 0.204122 10e-4 v 0.26304 h 0.205155 v 0.26303 h 0.205156 v 0.26303 h 0.205155 v 0.262 h 0.205156 v 0.26304 h 0.205155 v 0.26303 h 0.205155 v 0.26303 h 0.205156 v 0.26303 h 0.204638 v 0.262 H 51.6816 v 0.26252 h 0.205155 v 0.26303 h 0.205156 v 0.26304 h 0.205155 v 0.262 h 0.205156 v 0.26303 h 0.205155 v 0.26303 h 0.205156 v 0.26303 h 0.205155 v 0.26304 h 0.205155 v 0.262 h 0.205156 v 0.26303 h 0.205155 v 0.26303 h 0.204639 v 0.26304 h 0.205155 v 0.262 h 0.205156 v 0.26303 h 0.205155 v 0.26303 h 0.205156 v 0.26304 h 0.205155 v 0.26303 h 0.205156 v 0.262 h 0.205155 v 0.26303 h 0.205155 v 0.26252 h 0.204639 v 0.26303 h 0.205156 v 0.262 h 0.205155 v 0.26303 h 0.205155 v 0.26304 h 0.205156 v 0.26303 h 0.205155 v 0.262 h 0.205156 v 0.26303 h 0.205155 v 0.26303 h 0.205156 v 0.26304 h 0.205155 v 0.26303 h 0.205155 v 0.262 h 0.204639 v 0.26303 h 0.205156 v 0.26304 h 0.205155 v 0.26303 h 0.205155 v 0.262 h 0.205156 v 0.26303 h 0.205155 v 0.26303 h 0.205156 v 0.26304 h 0.205155 v 0.26303 h 0.205156 v 0.262 h 0.204638 v 0.26252 h 0.205156 v 0.26303 h 0.205155 v 0.26303 h 0.205156 v 0.262 h 0.205155 v 0.26303 h 0.205156 v 0.26304 h 0.205155 v 0.26303 h 0.205155 v 0.26303 h 0.205156 v 0.262 h 0.205155 v 0.26304 h 0.205156 v 0.26303 h 0.204638 v 0.26303 h 0.205156 v 0.262 h 0.205155 v 0.26304 h 0.205156 v 0.26303 h 0.205155 v 0.26303 h 0.205156 v 0.262 h 0.205155 v 0.26303 h 0.205155 v 0.26304 h 0.205156 v 0.26303 h 0.205155 v 0.26252 h 0.204639 v 0.262 h 0.205672 v 0.26303 h 0.204639 v 0.26303 h 0.205155 v 0.26303 h 0.205156 v 0.262 h 0.205155 v 0.26304 h 0.205156 v 0.26303 h 0.205155 v 0.26303 h 0.205155 v 0.26304 h 0.205156 v 0.262 h 0.205155 v 0.26303 h 0.204639 v 0.26303 h 0.205155 v 0.26304 h 0.205156 v 0.26199 h 0.205155 v 0.26304 h 0.205156 v 0.26303 h 0.205155 v 0.26303 h 0.205156 v 0.26304 h 0.205155 v 0.262 h 0.205155 v 0.26251 h 0.205156 v 0.26304 h 0.205155 v 0.26303 h 0.204639 v 0.262 h 0.205155 v 0.26303 h 0.205156 v 0.26303 h 0.205155 v 0.26304 h 0.205156 v 0.262 h 0.205155 v 0.26303 H 69.9363 v 0.26303 h 0.205155 v 0.26304 h 0.205156 v 0.26303 h 0.204638 v 0.262 h 0.205156 V 160.54 h 0.205155 v 0.26303 h 0.205155 v 0.26304 h 0.205156 v 0.262 h 0.205155 v 0.26303 h 0.205156 v 0.26303 h 0.205155 v 0.26304 h 0.205156 v 0.26251 h 0.205155 v 0.262 h 0.205156 v 0.26304 h 0.204638 v 0.26303 h 0.205156 v 0.26303 h 0.205155 v 0.262 h 0.205156 v 0.26303 h 0.205155 v 0.26304 h 0.205155 v 0.26303 h 0.205156 v 0.26303 h 0.205155 v 0.262 h 0.205156 v 0.26304 h 0.205155 v 0.26303 h 0.204639 v 0.26303 h 0.205155 v 0.262 h 0.205156 v 0.26303 h 0.205155 v 0.26304 h 0.205156 v 0.26303 h 0.205155 v 0.262 h 0.205155 v 0.26303 h 0.205156 v 0.26304 h 0.205155 v 0.26251 h 0.205156 v 0.26304 h 0.205155 v 0.26199 h 0.204639 v 0.26304 h 0.205155 v 0.26303 h 0.205156 v 0.26303 h 0.205155 v 0.262 h 0.205156 v 0.26304 h 0.205155 v 0.26303 h 0.205155 v 0.26303 h 0.205156 v 0.26304 h 0.205155 v 0.26199 h 0.204639 v 0.26304 h 0.205155 v 0.26303 h 0.205156 v 0.26303 h 0.205155 v 0.262 h 0.205156 v 0.26304 h 0.205155 v 0.26303 h 0.205156 v 0.26303 h 0.205155 v 0.26304 h 0.205156 v 0.262 h 0.205155 v 0.26251 h 0.205155 v 0.26303 h 0.204639 v 0.26304 h 0.205155 v 0.262 h 0.205156 v 0.26303 h 0.205155 v 0.26303 h 0.205156 v 0.26304 h 0.205155 v 0.262 h 0.205156 v 0.26303 h 0.205155 v 0.26303 h 0.205156 v 0.26303 h 0.205155 v 0.26304 h 0.204639 v 0.262 h 0.205155 v 0.26303 h 0.205156 v 0.26303 h 0.205155 v 0.26304 h 0.205155 v 0.262 h 0.205156 v 0.26303 h 0.205155 v 0.26303 h 0.205156 v 0.26252 h 0.205155 v 0.26303 h 0.205156 v 0.262 h 0.205155 v 0.26303 h 0.204639 v 0.26304 h 0.205155 v 0.26303 h 0.205156 v 0.262 h 0.205155 v 0.26303 H 86.3446 v 0.26304 h 0.205156 v 0.26303 h 0.205155 v 0.26303 h 0.205156 v 0.262 h 0.205155 v 0.26303 h 0.204639 v 0.26304 h 0.205155 v 0.26303 h 0.205156 v 0.262 h 0.205155 v 0.26303 h 0.205156 v 0.26304 h 0.205155 v 0.26303 h 0.205155 v 0.262 h 0.205156 v 0.26303 h 0.205155 v 0.26252 h 0.205156 v 0.26303 h 0.205155 v 0.26303 h 0.204639 v 0.262 h 0.205155 v 0.26304 h 0.205156 v 0.26303 h 0.205155 v 0.26303 h 0.205156 v 0.262 h 0.205155 v 0.26304 h 0.205155 v 0.26303 h 0.205156 v 0.26303 h 0.205155 v 0.26303 h 0.205156 v 0.262 h 0.204638 v 0.26304 h 0.205156 v 0.26303 h 0.205155 v 0.26303 h 0.205156 v 0.262 h 0.205155 v 0.26304 h 0.205156 v 0.26303 h 0.205155 v 0.26303 h 0.205156 v 0.26252 h 0.205155 v 0.262 h 0.205155 v 0.26303 h 0.205156 v 0.26303 h 0.204639 v 0.26304 h 0.205155 v 0.262 h 0.205155 v 0.26303 h 0.205156 v 0.26303 h 0.205155 v 0.26304 h 0.205156 v 0.26199 h 0.205155 V 191.81 h 0.205156 v 0.26303 h 0.205155 v 0.26303 h 0.204639 v 0.26304 h 0.205155 v 0.262 h 0.205156 v 0.26303 h 0.205155 v 0.26303 h 0.205155 v 0.26304 h 0.205156 v 0.26199 h 0.205155 v 0.26304 h 0.205156 v 0.26251 h 0.205155 v 0.26304 h 0.205156 v 0.26303 h 0.205155 v 0.262 h 0.204639 v 0.26303 h 0.205155 v 0.26304 h 0.205156 v 0.26303 h 0.205155 v 0.262 h 0.205155 v 0.26303 h 0.205156 v 0.26303 h 0.205155 v 0.26304 h 0.205156 v 0.26303 h 0.205155 v 0.262 h 0.204639 v 0.26303 h 0.205668 v 0.26304 h 0.20516 v 0.26303 h 0.20515 v 0.262 h 0.20464 v 0.26303 h 0.20516 v 0.26303 h 0.20515 v 0.26304 h 0.20464 v 0.262 h 0.20516 v 0.26251 h 0.20515 v 0.26304 h 0.20568 v 0.26303 h 0.20515 v 0.26303 h 0.20516 v 0.262 h 0.20464 v 0.26304 h 0.20515 v 0.26303 h 0.20516 v 0.26303 h 0.20515 v 0.262 h 0.20464 v 0.26303 h 0.20516 v 0.26304 h 0.20619 v 0.26303 h 0.20463 v 0.26303 h 0.20516 v 0.262 h 0.20515 v 0.26304 h 0.20464 v 0.26303 h 0.20516 v 0.26303 h 0.20515 v 0.262 h 0.20516 v 0.26303 h 0.20464 v 0.26304 h 0.20515 v 0.26251 h 0.20619 v 0.26304 h 0.20464 v 0.262 h 0.20516 v 0.26303 h 0.20515 v 0.26303 h 0.20464 v 0.26304 h 0.20516 v 0.26199 h 0.20515 v 0.26304 h 0.20464 v 0.26303 h 0.20516 v 0.26303 h 0.20618 v 0.262 h 0.20464 v 0.26304 h 0.20516 v 0.26303 h 0.20515 v 0.26303 h 0.20516 v 0.26304 h 0.20464 v 0.26199 h 0.20515 v 0.26304 h 0.20516 v 0.26303 h 0.20464 v 0.26303 h 0.20515 v 0.262 h 0.20619 v 0.26304 h 0.20464 v 0.26251 h 0.20516 v 0.26304 h 0.20515 v 0.26303 h 0.20516 v 0.262 h 0.20464 v 0.26303 h 0.20515 v 0.26303 h 0.20516 v 0.26304 h 0.20464 v 0.262 h 0.20618 v 0.26303 h 0.20516 v 0.26303 h 0.20464 v 0.26304 h 0.20515 v 0.26303 h 0.20516 v 0.262 h 0.20464 v 0.26303 h 0.20515 v 0.26303 h 0.20516 v 0.26304 h 0.20515 v 0.262 h 0.20464 v 0.26303 h 0.20619 v 0.26303 h 0.20516 v 0.26252 h 0.20464 v 0.262 h 0.20515 v 0.26303 h 0.20516 v 0.26304 h 0.20464 v 0.26303 h 0.20515 v 0.26303 h 0.20516 v 0.262 h 0.20464 v 0.26303 h 0.20618 v 0.26304 h 0.20516 v 0.26303 h 0.20464 v 0.262 h 0.20515 v 0.26303 h 0.20516 v 0.26304 h 0.20515 v 0.26303 h 0.20464 v 0.26303 h 0.20516 v 0.262 h 0.20515 v 0.26303 h 0.20464 v 0.26304 h 0.20619 v 0.26303 h 0.20516 v 0.262 h 0.20464 v 0.26303 h 0.20515 v 0.26252 h 0.20516 v 0.26303 h 0.20515 v 0.26304 h 0.20464 v 0.26199 h 0.20516 v 0.26304 h 0.20515 v 0.26303 h 0.20567 v 0.26303 h 0.20516 v 0.262 h 0.20516 v 0.26304 h 0.20463 v 0.26303 h 0.20516 v 0.26303 h 0.20515 v 0.262 h 0.20464 v 0.26304 h 0.20516 v 0.26303 h 0.20515 v 0.26303 h 0.20516 v 0.26303 h 0.20567 v 0.262 h 0.20516 v 0.26304 h 0.20515 v 0.26303 h 0.20464 v 0.26303 h 0.20516 v 0.262 h 0.20515 v 0.26252 h 0.20464 v 0.26303 h 0.20516 v 0.26303 h 0.20515 v 0.26304 h 0.20567 v 0.262 h 0.20516 v 0.26303 h 0.20515 v 0.26303 h 0.20464 v 0.26304 h 0.20516 v 0.262 h 0.20515 v 0.26303 h 0.20516 v 0.26303 h 0.20464 v 0.26304 h 0.20515 v 0.26303 h 0.20516 v 0.262 h 0.20567 v 0.26303 h 0.20516 v 0.26303 h 0.20515 v 0.26304 h 0.20464 v 0.262 h 0.20516 v 0.26303 h 0.20515 v 0.26252 h 0.20516 v 0.26303 h 0.20464 v 0.262 h 0.20515 v 0.26303 h 0.20619 v 0.26303 h 0.20464 v 0.26304 h 0.20515 v 0.26303 h 0.20516 v 0.262 h 0.20464 v 0.26303 h 0.20515 v 0.26304 h 0.20516 v 0.26303 h 0.20464 v 0.262 h 0.20515 v 0.26303 h 0.20516 v 0.26303 h 0.20567 v 0.26304 h 0.20516 v 0.26303 h 0.20515 v 0.262 h 0.20516 v 0.26303 h 0.20464 v 0.26304 h 0.20515 v 0.26303 h 0.20516 v 0.262 h 0.20464 v 0.26252 h 0.20515 v 0.26303 h 0.20619 v 0.26303 h 0.20464 v 0.26303 h 0.20515 v 0.262 h 0.20516 v 0.26304 h 0.20516 v 0.26303 h 0.20463 v 0.26303 h 0.20516 v 0.262 h 0.20515 v 0.26304 h 0.20464 v 0.26303 h 0.20516 v 0.26303 h 0.20619 v 0.262 h 0.20464 v 0.26303 h 0.20515 v 0.26304 h 0.20516 v 0.26303 h 0.20464 v 0.26303 h 0.20515 v 0.262 h 0.20516 v 0.26304 h 0.20515 v 0.26303 h 0.20464 v 0.26251 h 0.20619 v 0.262 h 0.20516 v 0.26304 h 0.20463 v 0.26303 h 0.20516 v 0.26303 h 0.20515 v 0.26304 h 0.20464 v 0.262 h 0.20516 v 0.26303 h 0.20515 v 0.26303 h 0.20464 v 0.26304 h 0.20516 v 0.26199 h 0.20619 v 0.26304 h 0.20464 v 0.26303 h 0.20515 v 0.26303 h 0.20516 v 0.26304 h 0.20515 v 0.262 h 0.20464 v 0.26303 h 0.20516 v 0.26303 h 0.20515 v 0.26304 h 0.20464 v 0.262 h 0.20619 v 0.26303 h 0.20516 v 0.26251 h 0.20463 v 0.26304 h 0.20516 v 0.26303 h 0.20515 v 0.262 h 0.20516 v 0.26303 h 0.20464 v 0.26304 h 0.20515 v 0.26303 h 0.20516 v 0.262 h 0.20464 v 0.26303 h 0.20619 v 0.26303 h 0.20515 v 0.26304 h 0.20464 v 0.262 h 0.20516 v 0.26303 h 0.20515 v 0.26303 h 0.20464 v 0.26304 h 0.20516 v 0.26303 h 0.20515 v 0.262 h 0.20516 v 0.26303 h 0.20567 v 0.26304 h 0.20515 v 0.26251 h 0.20516 v 0.262 h 0.20464 v 0.26303 h 0.20515 v 0.26304 h 0.20516 v 0.26303 h 0.20464 v 0.26303 h 0.20515 v 0.262 h 0.20516 v 0.26304 h 0.20464 v 0.26303 h 0.20619 v 0.26303 h 0.20515 v 0.262 h 0.20516 v 0.26303 h 0.20464 v 0.26304 h 0.20515 v 0.26303 h 0.20516 v 0.26303 h 0.20464 v 0.262 h 0.20515 v 0.26304 h 0.20516 v 0.26303 h 0.20567 v 0.26303 h 0.20515 v 0.262 h 0.20516 v 0.26303 h 0.20464 v 0.26252 h 0.20515 v 0.26303 h 0.20516 v 0.262 h 0.20516 v 0.26304 h 0.20463 v 0.0263 0.23668 h 0.20516 v 0.0734 0.18965 h 0.20515 v 0.11989 0.14315 h 0.20568 v 0.16691 0.0951 h 0.20515 v 0.21498 0.0481 h 0.20516 v 0.262 10e-4 h 6.35465 0.001 v -5.02295 h 0.11007 v 0.262 h 0.20516 v 0.26303 h 0.20515 v 0.26304 h 0.20464 v 0.26303 h 0.20516 v 0.26303 h 0.20515 v 0.262 h 0.20568 v 0.26304 h 0.20515 v 0.26303 h 0.20516 v 0.26252 h 0.20464 v 0.26199 h 0.20515 v 0.26304 h 0.20516 v 0.26303 h 0.20463 v 0.26303 h 0.20516 v 0.0264 0.23668 h 0.20516 v 0.0729 0.18914 h 0.20515 v 0.12092 0.14211 h 0.20567 v 0.16795 0.0951 h 0.20516 v 0.21498 0.0481 h 0.20515 v 0.26096 0.001 h 6.29368 0.002 V 250.378 h 0.0109 l 0.17104,0.26303 h 0.0341 l 0.17105,0.26303 h 0.0341 l 0.17105,0.26304 h 0.0341 l 0.17053,0.26303 h 0.0351 l 0.17002,0.262 h 0.0341 l 0.17105,0.26303 h 0.0346 l 0.17105,0.26304 h 0.0341 l 0.17105,0.26303 h 0.0346 l 0.17053,0.262 h 0.0346 l 0.17053,0.26252 h 0.0336 l 0.17105,0.26303 h 0.0346 l 0.17053,0.26303 h 0.0341 l 0.17105,0.26303 h 0.0346 l 0.17001,0.262 h 0.0341 l 0.17105,0.26304 h 0.0346 l 0.17053,0.26303 h 0.0346 l 0.17105,0.26303 h 0.0346 l 0.17053,0.262 h 0.0341 l 0.17105,0.26304 h 0.0336 l 0.17104,0.26303 h 0.0346 l 0.17053,0.26303 h 0.0346 l 0.17054,0.262 h 0.0346 l 0.17053,0.26303 h 0.0341 l 0.17053,0.26304 h 0.0341 l 0.17104,0.26303 h 0.0346 l 0.17053,0.26303 h 0.0346 l 0.17105,0.262 h 0.0341 l 0.17105,0.26304 h 0.0341 l 0.17105,0.26303 h 0.0346 l 0.007,0.0109 0.16278,0.25167 h 0.0351 l 0.0233,0.0362 0.14676,0.22582 h 0.0336 l 0.0403,0.062 0.13126,0.20102 h 0.0341 l 0.0568,0.0873 0.11369,0.1757 h 0.0346 l 0.0729,0.11214 0.0977,0.15089 h 0.0351 l 0.0889,0.13695 0.0811,0.12609 h 0.0346 l 0.10542,0.16226 0.0656,0.0997 h 0.0336 l 0.12248,0.1881 0.0491,0.0749 h 0.0336 l 0.13849,0.21291 0.0331,0.0501 h 0.0351 l 0.15399,0.2372 0.016,0.0258 h 0.0346 l 0.17002,0.262 h 6.32623 v -10.56628 c 0.0463,0.0584 0.0921,0.11712 0.13952,0.17466 0.0692,0.0891 0.13595,0.18002 0.20774,0.26717 0.0691,0.0889 0.13557,0.17966 0.20723,0.26665 0.0698,0.09 0.13681,0.18222 0.20929,0.27027 0.0706,0.091 0.13857,0.18393 0.21187,0.27285 0.0676,0.0871 0.13244,0.17626 0.20257,0.26148 0.0719,0.0926 0.14136,0.18696 0.21601,0.2775 0.0688,0.0886 0.13533,0.17896 0.2067,0.26562 0.0688,0.0885 0.13489,0.179 0.20619,0.26562 0.0697,0.0898 0.13644,0.18187 0.20878,0.26975 0.0701,0.0903 0.1376,0.18249 0.21032,0.27078 0.0689,0.0887 0.13526,0.17935 0.20671,0.26614 0.071,0.0914 0.13923,0.18498 0.2129,0.2744 0.0683,0.0878 0.13389,0.1776 0.20464,0.26355 0.0695,0.0895 0.13618,0.18115 0.20826,0.26872 0.0698,0.0899 0.13688,0.18179 0.20929,0.26975 0.0711,0.0915 0.13965,0.1849 0.21342,0.2744 0.0681,0.0876 0.13354,0.17727 0.20412,0.26303 0.0704,0.0906 0.13834,0.18313 0.21136,0.27182 0.0703,0.0904 0.13794,0.18281 0.21084,0.2713 0.0667,0.0858 0.1304,0.17384 0.19947,0.25787 0.0726,0.0936 0.14269,0.1891 0.21807,0.2806 0.0684,0.088 0.13427,0.17794 0.20516,0.26407 0.0687,0.0883 0.13454,0.17863 0.20567,0.2651 0.0711,0.0915 0.13917,0.18537 0.21291,0.27491 0.29154,0.37482 0.59795,0.73819 0.93379,1.08004 1.115,1.115 2.42228,1.99735 3.92328,2.64635 1.51999,0.648 3.16283,0.97307 4.92683,0.97307 1.90941,0 3.72504,-0.42996 5.45444,-1.25626 h 0.11834 v 0.262 10e-4 h 0.20619 v 0.26303 h 5.38314 V 247.5987 h -0.20516 v -0.23564 -0.0274 h -0.20515 v -0.20981 -0.0532 h -0.20568 v -0.18293 -0.0796 h -0.20515 v -0.15606 -0.10646 h -0.20516 v -0.12971 -0.1328 h -0.20464 v -0.10336 -0.15968 h -0.20515 v -0.077 -0.18603 h -0.20516 v -0.0501 -0.21187 h -0.20464 v -0.0243 -0.23874 h -0.20515 v -0.26304 h -0.20516 v -0.26303 h -0.20619 v -0.26303 h -0.20463 v -0.262 h -0.20516 V 243.92 h -0.20515 v -0.26304 h -0.20464 v -0.26303 h -0.2043 v -0.262 h -0.20515 v -0.26303 h -0.20464 v -0.007 l 2.43654,-1.62006 c -0.0737,-0.087 -0.1557,-0.1614 -0.23099,-0.24598 l 0.015,-0.0103 0.0114,-0.007 c -0.0737,-0.087 -0.15571,-0.16141 -0.23099,-0.24598 l 0.005,-0.003 0.0212,-0.0139 c -0.0736,-0.0868 -0.15533,-0.16108 -0.23048,-0.24547 l 0.0253,-0.0165 c -0.0739,-0.0872 -0.15604,-0.16175 -0.23151,-0.2465 l 0.0258,-0.0165 c -0.0736,-0.087 -0.15574,-0.16138 -0.23099,-0.24598 l 0.0258,-0.0171 c -0.0736,-0.0869 -0.15581,-0.16099 -0.23099,-0.24546 l 0.0258,-0.0176 c -0.0733,-0.0866 -0.15503,-0.16072 -0.22996,-0.24495 l 0.0253,-0.017 c -0.0736,-0.087 -0.15573,-0.1614 -0.23099,-0.24598 l 0.0258,-0.0171 c -0.0737,-0.087 -0.1557,-0.16145 -0.23099,-0.24598 l 0.0258,-0.0171 c -0.0735,-0.0868 -0.15535,-0.16108 -0.23048,-0.24546 l 0.0258,-0.0176 c -0.0735,-0.0868 -0.15534,-0.16112 -0.23048,-0.24546 l 0.0253,-0.0165 c -0.0737,-0.087 -0.15567,-0.16143 -0.23099,-0.24598 l 0.0258,-0.0171 c -0.0737,-0.087 -0.15569,-0.16143 -0.23099,-0.24598 l 0.0253,-0.0171 c -0.0737,-0.087 -0.15571,-0.16143 -0.231,-0.24598 l 0.0258,-0.0171 c -0.0735,-0.0868 -0.15533,-0.1611 -0.23048,-0.24546 l 0.0253,-0.0171 c -0.0735,-0.0867 -0.15535,-0.16115 -0.23048,-0.24546 l 0.0253,-0.0165 c -0.0736,-0.0869 -0.15525,-0.16155 -0.23048,-0.24598 l 0.0258,-0.0171 c -0.0736,-0.0869 -0.15572,-0.16149 -0.23099,-0.24598 l 0.0258,-0.0171 c -0.0737,-0.087 -0.15567,-0.16148 -0.231,-0.24598 l 0.0258,-0.0171 c -0.0734,-0.0866 -0.15493,-0.1608 -0.22996,-0.24495 l 0.0253,-0.017 c -0.0737,-0.087 -0.15569,-0.16147 -0.23099,-0.24598 l 0.0258,-0.0171 c -0.0737,-0.087 -0.15567,-0.16148 -0.231,-0.24598 l 0.0258,-0.017 c -0.0737,-0.0869 -0.15563,-0.16153 -0.23099,-0.24598 l 0.0253,-0.0171 c -0.0736,-0.087 -0.15568,-0.16152 -0.23099,-0.24598 l 0.0258,-0.0171 c -0.0735,-0.0867 -0.15531,-0.1612 -0.23047,-0.24546 l 0.0253,-0.0165 c -0.0737,-0.087 -0.15566,-0.16151 -0.231,-0.24598 l 0.0258,-0.0171 c -0.0736,-0.0869 -0.15519,-0.16156 -0.23047,-0.24598 l 0.0258,-0.017 c -0.0737,-0.087 -0.15563,-0.16152 -0.23099,-0.24598 l 0.0258,-0.0171 c -0.0736,-0.0868 -0.15526,-0.1612 -0.23048,-0.24547 l 0.0253,-0.0165 c -0.0736,-0.0869 -0.1557,-0.16111 -0.23099,-0.24547 l 0.0264,-0.0176 c -0.0737,-0.087 -0.1556,-0.16155 -0.23099,-0.24598 l 0.0258,-0.017 c -0.0738,-0.087 -0.15606,-0.16147 -0.23151,-0.24598 l 0.0253,-0.0171 c -0.0735,-0.0868 -0.15528,-0.1612 -0.23048,-0.24547 l 0.0258,-0.0176 c -0.0735,-0.0868 -0.15526,-0.16122 -0.23048,-0.24546 l 0.0253,-0.0165 c -0.0737,-0.087 -0.15563,-0.16152 -0.231,-0.24598 l 0.0258,-0.0171 c -0.0735,-0.0868 -0.15524,-0.16118 -0.23048,-0.24546 l 0.0258,-0.0171 c -0.0737,-0.087 -0.15561,-0.16157 -0.23099,-0.24598 l 0.0258,-0.017 c -0.0735,-0.0867 -0.15526,-0.16126 -0.23048,-0.24546 l 0.0253,-0.0165 c -0.0737,-0.087 -0.15559,-0.16157 -0.23099,-0.24598 l 0.0258,-0.0171 c -0.0736,-0.0869 -0.15567,-0.16118 -0.231,-0.24546 l 0.0264,-0.0176 c -0.0737,-0.087 -0.1556,-0.16161 -0.231,-0.24598 l 0.0258,-0.0171 c -0.0738,-0.0871 -0.15593,-0.16197 -0.23151,-0.24649 l 0.0253,-0.0165 c -0.0733,-0.0866 -0.15489,-0.1609 -0.22996,-0.24495 l 0.0253,-0.017 c -0.0736,-0.087 -0.1556,-0.16157 -0.23099,-0.24598 l 0.0258,-0.0171 c -0.0737,-0.087 -0.15557,-0.16163 -0.231,-0.24598 l 0.0258,-0.0171 c -0.0735,-0.0868 -0.15521,-0.16126 -0.23047,-0.24546 l 0.0258,-0.0176 c -0.0735,-0.0867 -0.15522,-0.16131 -0.23047,-0.24546 l 0.0253,-0.0165 c -0.0737,-0.087 -0.15556,-0.16163 -0.23099,-0.24598 l 0.0258,-0.0171 c -0.0736,-0.0869 -0.15566,-0.16121 -0.23099,-0.24546 l 0.0264,-0.0176 c -0.0737,-0.087 -0.15553,-0.16165 -0.23099,-0.24598 l 0.0258,-0.0171 c -0.0737,-0.0869 -0.1556,-0.16122 -0.23099,-0.24546 l 0.0248,-0.0165 c -0.0736,-0.0869 -0.15515,-0.16173 -0.23048,-0.24598 l 0.0258,-0.017 c -0.0737,-0.087 -0.15554,-0.16165 -0.23099,-0.24598 l 0.0258,-0.0171 c -0.0736,-0.087 -0.15556,-0.16166 -0.231,-0.24598 l 0.0258,-0.0171 c -0.0735,-0.0868 -0.15518,-0.16131 -0.23048,-0.24546 l 0.0253,-0.017 c -0.0734,-0.0866 -0.15482,-0.16102 -0.22996,-0.24495 l 0.0253,-0.017 c -0.0736,-0.087 -0.15558,-0.16169 -0.231,-0.24598 l 0.0258,-0.0171 c -0.0737,-0.087 -0.15552,-0.16168 -0.23099,-0.24598 l 0.0258,-0.0171 c -0.0736,-0.0868 -0.1556,-0.16132 -0.231,-0.24546 l 0.0264,-0.0176 c -0.0735,-0.0867 -0.15515,-0.16139 -0.23048,-0.24546 l 0.0253,-0.0165 c -0.0738,-0.0871 -0.15585,-0.16207 -0.23151,-0.2465 l 0.0253,-0.0165 c -0.0735,-0.0868 -0.15516,-0.16137 -0.23047,-0.24547 l 0.0258,-0.0176 c -0.0736,-0.087 -0.15552,-0.16171 -0.23099,-0.24598 l 0.0258,-0.017 c -0.0737,-0.087 -0.15552,-0.16174 -0.23099,-0.24598 l 0.0258,-0.0171 c -0.0735,-0.0868 -0.15515,-0.16139 -0.23047,-0.24547 l 0.0253,-0.0165 c -0.0736,-0.0869 -0.15509,-0.16181 -0.23048,-0.24598 l 0.0258,-0.0171 c -0.0737,-0.0869 -0.15548,-0.16177 -0.23099,-0.24597 l 0.0258,-0.0171 c -0.0737,-0.0869 -0.15549,-0.16178 -0.23099,-0.24598 l 0.0258,-0.0171 c -0.0735,-0.0867 -0.15518,-0.161 -0.23048,-0.24495 l 0.0258,-0.0171 c -0.0739,-0.0872 -0.1558,-0.1621 -0.23151,-0.2465 l 0.0253,-0.0165 c -0.0736,-0.087 -0.1555,-0.16175 -0.23099,-0.24598 l 0.0258,-0.0171 c -0.0736,-0.0869 -0.15504,-0.16183 -0.23048,-0.24598 l 0.0258,-0.017 c -0.0737,-0.087 -0.15546,-0.16178 -0.231,-0.24598 l 0.0258,-0.0171 c -0.0735,-0.0868 -0.1551,-0.16148 -0.23048,-0.24547 l 0.0253,-0.0165 c -0.0735,-0.0868 -0.15509,-0.16144 -0.23048,-0.24547 l 0.0258,-0.0176 c -0.0736,-0.0868 -0.15553,-0.1614 -0.231,-0.24546 l 0.0258,-0.017 c -0.0737,-0.087 -0.15544,-0.16182 -0.23099,-0.24598 l 0.0258,-0.0171 c -0.0736,-0.0867 -0.15508,-0.16151 -0.23048,-0.24547 l 0.0253,-0.0165 c -0.0736,-0.0869 -0.15501,-0.16189 -0.23048,-0.24598 l 0.0258,-0.0171 c -0.0738,-0.0872 -0.15578,-0.16217 -0.23151,-0.24649 l 0.0253,-0.0165 c -0.0737,-0.0869 -0.15543,-0.16186 -0.23099,-0.24598 l 0.0258,-0.017 c -0.0734,-0.0866 -0.15473,-0.16117 -0.22996,-0.24495 l 0.0253,-0.017 c -0.0736,-0.087 -0.15546,-0.16186 -0.23099,-0.24598 l 0.0258,-0.0171 c -0.0737,-0.087 -0.1554,-0.16184 -0.23099,-0.24598 l 0.0258,-0.0171 c -0.0736,-0.0869 -0.1555,-0.16142 -0.231,-0.24546 l 0.0264,-0.0176 c -0.0737,-0.087 -0.1554,-0.16188 -0.23099,-0.24598 l 0.0258,-0.0171 c -0.0736,-0.0868 -0.15501,-0.16156 -0.23047,-0.24547 l 0.0253,-0.0165 c -0.0736,-0.0869 -0.15547,-0.16146 -0.231,-0.24547 l 0.0264,-0.0176 c -0.0738,-0.087 -0.1558,-0.16183 -0.23151,-0.24598 l 0.0253,-0.0171 c -0.0736,-0.087 -0.15542,-0.1619 -0.23099,-0.24598 l 0.0258,-0.017 c -0.0734,-0.0866 -0.1547,-0.16123 -0.22996,-0.24495 l 0.0253,-0.017 c -0.0737,-0.087 -0.15538,-0.16188 -0.231,-0.24598 l 0.0258,-0.0171 c -0.0737,-0.087 -0.15539,-0.16188 -0.23099,-0.24598 l 0.0258,-0.0171 c -0.0737,-0.087 -0.15535,-0.16189 -0.231,-0.24598 l 0.0258,-0.0171 c -0.0736,-0.0869 -0.15543,-0.1615 -0.23099,-0.24547 l 0.0264,-0.0176 c -0.0735,-0.0867 -0.15507,-0.16118 -0.23048,-0.24494 l 0.0253,-0.0171 c -0.0736,-0.0869 -0.15543,-0.16154 -0.231,-0.24547 l 0.0258,-0.017 c -0.0736,-0.0868 -0.15542,-0.16156 -0.23099,-0.24546 l 0.0263,-0.0176 c -0.0738,-0.0871 -0.15569,-0.16234 -0.23151,-0.2465 l 0.0253,-0.0165 c -0.0735,-0.0868 -0.15499,-0.16163 -0.23047,-0.24546 l 0.0253,-0.0165 c -0.0736,-0.087 -0.15493,-0.162 -0.23048,-0.24598 l 0.0258,-0.017 c -0.0736,-0.087 -0.15538,-0.16197 -0.23099,-0.24598 l 0.0258,-0.0171 c -0.0737,-0.087 -0.15531,-0.16202 -0.23099,-0.24598 l 0.0258,-0.0171 c -0.0737,-0.0869 -0.15533,-0.16201 -0.231,-0.24598 l 0.0258,-0.0171 c -0.0734,-0.0866 -0.15458,-0.16135 -0.22996,-0.24495 l 0.0253,-0.0171 c -0.0737,-0.087 -0.1553,-0.16202 -0.23099,-0.24598 l 0.0258,-0.017 c -0.0737,-0.087 -0.15532,-0.16203 -0.23099,-0.24598 l 0.0258,-0.0171 c -0.0737,-0.087 -0.15525,-0.16202 -0.23099,-0.24598 l 0.0253,-0.0171 c -0.0735,-0.0868 -0.15493,-0.16167 -0.23048,-0.24546 l 0.0253,-0.0165 c -0.0736,-0.087 -0.15533,-0.16204 -0.231,-0.24598 l 0.0258,-0.0171 c -0.0735,-0.0868 -0.15491,-0.16168 -0.23048,-0.24546 l 0.0258,-0.0176 c -0.0737,-0.087 -0.15529,-0.16206 -0.23099,-0.24598 l 0.0258,-0.0171 c -0.0735,-0.0868 -0.15492,-0.16172 -0.23048,-0.24546 l 0.0253,-0.0165 c -0.0736,-0.0869 -0.15536,-0.16163 -0.23099,-0.24546 l 0.0264,-0.0176 c -0.0737,-0.087 -0.15528,-0.16207 -0.23099,-0.24598 l 0.0258,-0.017 c -0.0737,-0.087 -0.15524,-0.16208 -0.231,-0.24598 l 0.0258,-0.0171 c -0.0737,-0.0868 -0.1553,-0.16172 -0.23099,-0.24547 l 0.0258,-0.0171 c -0.0736,-0.0868 -0.15485,-0.16179 -0.23048,-0.24546 l 0.0248,-0.0165 c -0.0736,-0.087 -0.15527,-0.16212 -0.23099,-0.24598 l 0.0258,-0.0171 c -0.0737,-0.087 -0.15524,-0.16213 -0.231,-0.24598 l 0.0258,-0.0171 c -0.0735,-0.0868 -0.1549,-0.16179 -0.23047,-0.24546 l 0.0258,-0.0176 c -0.0735,-0.0868 -0.15489,-0.16183 -0.23047,-0.24546 l 0.0253,-0.0165 c -0.0736,-0.087 -0.15528,-0.16213 -0.231,-0.24598 l 0.0258,-0.0171 c -0.0735,-0.0868 -0.15487,-0.16178 -0.23047,-0.24547 l 0.0258,-0.0176 c -0.0737,-0.0869 -0.1552,-0.1622 -0.23099,-0.24598 l 0.0258,-0.0171 c -0.0737,-0.087 -0.15519,-0.16219 -0.23099,-0.24598 l 0.0258,-0.017 c -0.0736,-0.0868 -0.15479,-0.16186 -0.23047,-0.24546 l 0.0248,-0.0165 c -0.0737,-0.087 -0.15521,-0.16217 -0.23099,-0.24598 l 0.0258,-0.0171 c -0.0736,-0.087 -0.15522,-0.16218 -0.231,-0.24598 l 0.0258,-0.0171 c -0.0737,-0.087 -0.15518,-0.16218 -0.23099,-0.24598 l 0.0258,-0.017 c -0.0734,-0.0867 -0.15443,-0.16149 -0.22997,-0.24495 l 0.0253,-0.017 c -0.0737,-0.087 -0.15519,-0.16222 -0.231,-0.24598 l 0.0258,-0.0171 c -0.0737,-0.087 -0.15517,-0.16226 -0.23099,-0.24598 l 0.0258,-0.0171 c -0.0737,-0.0869 -0.15519,-0.16181 -0.231,-0.24546 l 0.0264,-0.0176 c -0.0737,-0.087 -0.15512,-0.16224 -0.231,-0.24598 l 0.0258,-0.017 c -0.0735,-0.0867 -0.15484,-0.16151 -0.23048,-0.24495 l 0.0253,-0.017 c -0.0737,-0.087 -0.15512,-0.16223 -0.231,-0.24598 l 0.0253,-0.0165 c -0.0736,-0.087 -0.15519,-0.16228 -0.23099,-0.24598 l 0.0258,-0.0171 c -0.0737,-0.0869 -0.15513,-0.16233 -0.231,-0.24598 l 0.0258,-0.017 c -0.0733,-0.0866 -0.15445,-0.16165 -0.22996,-0.24495 l 0.0253,-0.017 c -0.0736,-0.087 -0.15515,-0.16233 -0.23099,-0.24598 l 0.0258,-0.0171 c -0.0737,-0.087 -0.1551,-0.16231 -0.23099,-0.24598 l 0.0258,-0.017 c -0.0737,-0.087 -0.1551,-0.16232 -0.23099,-0.24598 l 0.0258,-0.0171 c -0.0736,-0.0868 -0.15472,-0.16198 -0.23048,-0.24547 l 0.0258,-0.0176 c -0.0735,-0.0866 -0.15481,-0.16162 -0.23048,-0.24494 l 0.0253,-0.017 c -0.0739,-0.0871 -0.15541,-0.16271 -0.23151,-0.2465 l 0.0253,-0.0165 c -0.0736,-0.0869 -0.15463,-0.16243 -0.23047,-0.24598 l 0.0258,-0.0171 c -0.0736,-0.087 -0.15511,-0.16239 -0.231,-0.24598 l 0.0258,-0.0171 c -0.0735,-0.0868 -0.15472,-0.16205 -0.23048,-0.24547 l 0.0253,-0.0165 c -0.0736,-0.0869 -0.15515,-0.16194 -0.231,-0.24547 l 0.0264,-0.0176 c -0.0737,-0.087 -0.15507,-0.16237 -0.231,-0.24598 l 0.0258,-0.017 c -0.0737,-0.087 -0.15505,-0.16242 -0.23099,-0.24598 l 0.0258,-0.0171 c -0.0734,-0.0866 -0.15432,-0.16174 -0.22996,-0.24495 l 0.0253,-0.0171 c -0.0737,-0.087 -0.15503,-0.16241 -0.231,-0.24598 l 0.0258,-0.017 c -0.0737,-0.087 -0.15501,-0.16246 -0.23099,-0.24598 l 0.0258,-0.0171 c -0.0738,-0.087 -0.15497,-0.16246 -0.231,-0.24598 l 0.0253,-0.017 c -0.0735,-0.0868 -0.15468,-0.1621 -0.23047,-0.24546 l 0.0253,-0.0171 c -0.0735,-0.0868 -0.15467,-0.16214 -0.23048,-0.24546 l 0.0253,-0.0165 c -0.0736,-0.087 -0.15505,-0.16245 -0.23099,-0.24598 l 0.0258,-0.0171 c -0.0736,-0.0869 -0.15459,-0.16255 -0.23048,-0.24598 l 0.0258,-0.017 c -0.0737,-0.0869 -0.15497,-0.16254 -0.23099,-0.24598 l 0.0258,-0.0171 c -0.0735,-0.0867 -0.15463,-0.16219 -0.23047,-0.24546 l 0.0253,-0.0165 c -0.0736,-0.0869 -0.15453,-0.1626 -0.23048,-0.24598 l 0.0258,-0.017 c -0.0737,-0.087 -0.15496,-0.16255 -0.23099,-0.24598 l 0.0258,-0.0171 c -0.0738,-0.0872 -0.15528,-0.16288 -0.23151,-0.2465 l 0.0253,-0.0165 c -0.0735,-0.0868 -0.1546,-0.16218 -0.23048,-0.24547 l 0.0258,-0.0176 c -0.0734,-0.0867 -0.15469,-0.16181 -0.23048,-0.24494 l 0.0253,-0.0171 c -0.0737,-0.087 -0.15494,-0.16255 -0.23099,-0.24598 l 0.0258,-0.0171 c -0.0737,-0.087 -0.15493,-0.16259 -0.231,-0.24598 l 0.0258,-0.017 c -0.0735,-0.0868 -0.15456,-0.16223 -0.23048,-0.24547 l 0.0258,-0.0176 c -0.0735,-0.0868 -0.15455,-0.16227 -0.23048,-0.24546 l 0.0253,-0.0165 c -0.0737,-0.087 -0.15492,-0.16261 -0.231,-0.24598 l 0.0258,-0.017 c -0.0736,-0.0869 -0.15446,-0.16268 -0.23048,-0.24598 l 0.0258,-0.0171 c -0.0737,-0.087 -0.15487,-0.16264 -0.23099,-0.24598 l 0.0258,-0.017 c -0.0738,-0.087 -0.15528,-0.16262 -0.23151,-0.24598 l 0.0253,-0.0171 c -0.0734,-0.0866 -0.15414,-0.16194 -0.22996,-0.24494 l 0.0253,-0.0171 c -0.0737,-0.087 -0.15488,-0.16265 -0.23099,-0.24598 l 0.0258,-0.0171 c -0.0736,-0.0868 -0.15448,-0.16231 -0.23047,-0.24546 l 0.0253,-0.0171 c -0.0736,-0.0869 -0.15445,-0.16279 -0.23048,-0.24598 l 0.0258,-0.0171 c -0.0735,-0.0867 -0.15452,-0.1624 -0.23048,-0.24546 l 0.0253,-0.0165 c -0.0736,-0.087 -0.1549,-0.16272 -0.23099,-0.24598 l 0.0258,-0.017 c -0.0737,-0.087 -0.15484,-0.1627 -0.231,-0.24598 l 0.0258,-0.0171 c -0.0737,-0.0868 -0.15435,-0.16284 -0.23047,-0.24598 l 0.0258,-0.0171 c -0.0736,-0.0868 -0.15488,-0.16236 -0.23099,-0.24546 l 0.0248,-0.0165 c -0.0737,-0.087 -0.15483,-0.16271 -0.231,-0.24598 l 0.0258,-0.017 c -0.0736,-0.0869 -0.15436,-0.16282 -0.23048,-0.24598 l 0.0258,-0.0171 c -0.0736,-0.087 -0.15483,-0.16278 -0.23099,-0.24598 l 0.0258,-0.0171 c -0.0737,-0.087 -0.15482,-0.16281 -0.231,-0.24598 l 0.0258,-0.0171 c -0.0735,-0.0867 -0.15447,-0.16203 -0.23048,-0.24495 l 0.0258,-0.0171 c -0.0737,-0.087 -0.15478,-0.16283 -0.23099,-0.24598 l 0.0258,-0.017 c -0.0737,-0.0869 -0.15477,-0.16287 -0.231,-0.24598 l 0.0258,-0.0171 c -0.0737,-0.0869 -0.15477,-0.16242 -0.23099,-0.24546 l 0.0264,-0.0176 c -0.0735,-0.0866 -0.15448,-0.16212 -0.23047,-0.24495 l 0.0253,-0.0171 c -0.0739,-0.0872 -0.15507,-0.16321 -0.23151,-0.24649 l 0.0253,-0.0165 c -0.0736,-0.0871 -0.15475,-0.16281 -0.231,-0.24598 l 0.0258,-0.0171 c -0.0736,-0.0869 -0.15429,-0.16294 -0.23047,-0.24598 l 0.0258,-0.0171 c -0.0736,-0.0868 -0.15477,-0.1625 -0.23099,-0.24546 l 0.0258,-0.0171 c -0.0735,-0.0867 -0.15438,-0.16263 -0.23048,-0.24547 l 0.0253,-0.0165 c -0.0736,-0.0869 -0.15427,-0.16302 -0.23047,-0.24598 l 0.0258,-0.0171 c -0.0737,-0.087 -0.15467,-0.16296 -0.23099,-0.24598 l 0.0258,-0.0171 c -0.0737,-0.087 -0.15468,-0.16297 -0.23099,-0.24598 l 0.0258,-0.0171 c -0.0734,-0.0866 -0.15393,-0.1623 -0.22996,-0.24495 l 0.0253,-0.0171 c -0.0738,-0.0872 -0.15502,-0.16337 -0.23151,-0.2465 l 0.0253,-0.0165 c -0.0737,-0.087 -0.15468,-0.16299 -0.231,-0.24598 l 0.0258,-0.0171 c -0.0736,-0.0869 -0.15419,-0.16309 -0.23048,-0.24598 l 0.0258,-0.017 c -0.0736,-0.0869 -0.15467,-0.16305 -0.23099,-0.24598 l 0.0258,-0.0171 c -0.0734,-0.0867 -0.15436,-0.16231 -0.23048,-0.24495 l 0.0253,-0.0171 c -0.0737,-0.087 -0.15461,-0.16304 -0.23099,-0.24598 l 0.0258,-0.0171 c -0.0736,-0.087 -0.15416,-0.16309 -0.23048,-0.24598 l 0.0258,-0.0171 c -0.0737,-0.087 -0.1546,-0.1631 -0.231,-0.24598 l 0.0258,-0.017 c -0.0736,-0.0868 -0.15421,-0.16277 -0.23048,-0.24547 l 0.0253,-0.0165 c -0.0737,-0.087 -0.15457,-0.1631 -0.231,-0.24598 l 0.0253,-0.0171 c -0.0736,-0.087 -0.15459,-0.16312 -0.23099,-0.24597 l 0.0258,-0.0171 c -0.0737,-0.087 -0.15454,-0.16313 -0.231,-0.24598 l 0.0258,-0.017 c -0.0734,-0.0866 -0.15384,-0.16243 -0.22996,-0.24495 l 0.0253,-0.017 c -0.0737,-0.087 -0.15454,-0.16312 -0.23099,-0.24598 l 0.0258,-0.0171 c -0.0736,-0.0871 -0.15455,-0.16313 -0.231,-0.24598 l 0.0258,-0.0171 c -0.0735,-0.0868 -0.15415,-0.1628 -0.23047,-0.24546 l 0.0258,-0.0171 c -0.0737,-0.0869 -0.15449,-0.16326 -0.23099,-0.24598 l 0.0258,-0.0171 c -0.0735,-0.0867 -0.15416,-0.16294 -0.23048,-0.24546 l 0.0253,-0.0165 c -0.0737,-0.087 -0.15448,-0.16325 -0.23099,-0.24598 l 0.0258,-0.017 c -0.0737,-0.0869 -0.15448,-0.16329 -0.231,-0.24598 l 0.0253,-0.0171 c -0.0736,-0.087 -0.1545,-0.16325 -0.231,-0.24598 l 0.0258,-0.017 c -0.0735,-0.0868 -0.15409,-0.16292 -0.23048,-0.24547 l 0.0253,-0.0165 c -0.0736,-0.087 -0.15402,-0.16334 -0.23047,-0.24598 l 0.0258,-0.0171 c -0.0737,-0.087 -0.15445,-0.16331 -0.231,-0.24598 l 0.0258,-0.017 c -0.0737,-0.0869 -0.15442,-0.16335 -0.23099,-0.24598 l 0.0258,-0.0171 c -0.0736,-0.0869 -0.15396,-0.16343 -0.23048,-0.24598 l 0.0258,-0.0171 c -0.0734,-0.0866 -0.15415,-0.16265 -0.23048,-0.24494 l 0.0253,-0.0171 c -0.0737,-0.087 -0.1544,-0.16338 -0.23099,-0.24598 l 0.0258,-0.0171 c -0.0737,-0.087 -0.15438,-0.16338 -0.231,-0.24598 l 0.0253,-0.0171 c -0.0736,-0.087 -0.1544,-0.16339 -0.23099,-0.24598 l 0.0258,-0.0171 c -0.0735,-0.0867 -0.15402,-0.16311 -0.23048,-0.24546 l 0.0253,-0.0165 c -0.0737,-0.087 -0.15436,-0.16341 -0.23099,-0.24598 l 0.0258,-0.0171 c -0.0736,-0.0868 -0.15396,-0.16306 -0.23048,-0.24546 l 0.0258,-0.0176 c -0.0737,-0.0869 -0.15432,-0.16352 -0.23099,-0.24598 l 0.0258,-0.0171 c -0.0737,-0.087 -0.15431,-0.1635 -0.23099,-0.24598 l 0.0258,-0.0171 c -0.0734,-0.0866 -0.15356,-0.1628 -0.22996,-0.24494 l 0.0253,-0.0171 c -0.0735,-0.0868 -0.15399,-0.16317 -0.23048,-0.24546 l 0.0253,-0.017 c -0.0737,-0.087 -0.15427,-0.16353 -0.23099,-0.24598 l 0.0258,-0.0171 c -0.0738,-0.087 -0.15466,-0.16354 -0.23151,-0.24598 l 0.0258,-0.017 c -0.0735,-0.0868 -0.15395,-0.16325 -0.23048,-0.24546 l 0.0253,-0.0165 c -0.0736,-0.087 -0.1543,-0.16359 -0.23099,-0.24598 l 0.0258,-0.0171 c -0.0735,-0.0868 -0.15392,-0.16328 -0.23048,-0.24546 l 0.0258,-0.0176 c -0.0736,-0.087 -0.15427,-0.16364 -0.231,-0.24598 l 0.0258,-0.0171 c -0.0736,-0.0869 -0.15424,-0.16368 -0.23099,-0.24598 l 0.0258,-0.0171 c -0.0735,-0.0867 -0.15389,-0.1629 -0.23048,-0.24495 l 0.0253,-0.0171 c -0.0735,-0.0867 -0.15386,-0.16336 -0.23048,-0.24546 l 0.0258,-0.0176 c -0.0522,-0.0615 -0.10957,-0.11499 -0.1633,-0.17415 h 3.18017 c 1.687,0 3.2711,-0.31293 4.7501,-0.93793 1.479,-0.645 2.76967,-1.51012 3.87366,-2.59312 0.15698,-0.15684 0.2982,-0.32599 0.44546,-0.49041 0.0701,0.0129 0.12606,0.0155 0.19482,0.0274 l -0.046,0.22737 c 0.018,0.003 0.0351,0.006 0.0501,0.007 0.0723,0.0134 0.13013,0.0156 0.20102,0.0279 l -0.046,0.22841 c 0.017,0.003 0.032,0.005 0.047,0.006 0.0733,0.0136 0.1318,0.0159 0.20361,0.0284 l -0.046,0.22893 c 0.016,0.003 0.0299,0.005 0.0439,0.006 0.0747,0.0138 0.13409,0.0163 0.20723,0.0289 l -0.046,0.22738 c 0.015,0.003 0.0278,0.005 0.0408,0.006 0.0756,0.0141 0.13579,0.0166 0.2098,0.0295 l -0.0455,0.22737 c 0.014,0.003 0.0257,0.004 0.0377,0.005 0.0767,0.0142 0.13785,0.0169 0.21291,0.03 l -0.046,0.2279 c 0.013,0.002 0.0241,0.004 0.0351,0.005 0.0781,0.0145 0.14057,0.0172 0.21704,0.0305 l -0.046,0.22738 c 0.011,0.002 0.021,0.003 0.031,0.004 0.0792,0.0147 0.14263,0.0171 0.22014,0.0305 l -0.046,0.22841 c 0.01,0.001 0.0189,0.003 0.0279,0.003 0.0802,0.015 0.1443,0.0174 0.22272,0.031 l -0.046,0.22789 c 0.009,0.002 0.0173,0.003 0.0253,0.004 0.0811,0.0149 0.146,0.0179 0.22531,0.0315 l -0.0455,0.22738 c 0.008,0.002 0.0152,0.003 0.0222,0.003 0.0823,0.0153 0.14834,0.0181 0.22892,0.032 l -0.046,0.22789 c 0.007,0.001 0.0131,0.002 0.0191,0.002 0.0835,0.0155 0.15039,0.0185 0.23203,0.0326 l -0.046,0.22841 c 0.006,0.001 0.011,0.001 0.016,0.002 0.0844,0.0156 0.15166,0.0184 0.23409,0.0326 l -0.0455,0.22737 c 0.005,0.001 0.009,0.002 0.0129,0.002 0.0858,0.0158 0.1544,0.0192 0.23823,0.0336 l -0.046,0.22737 c 0.004,0.001 0.007,0.001 0.01,0.001 0.0869,0.0162 0.15644,0.0195 0.24133,0.0341 l -0.046,0.2279 0.007,0.001 c 0.0881,0.0164 0.15888,0.0193 0.24495,0.0341 l -0.046,0.22789 h 0.003 c 0.0891,0.0165 0.16057,0.0197 0.24753,0.0346 l -0.0455,0.22738 c 0.562,0.105 1.08318,0.17711 1.56218,0.21911 0.5,0.063 0.98965,0.0941 1.46865,0.0941 1.91699,0 3.71839,-0.35499 5.40639,-1.06298 1.70799,-0.729 3.19797,-1.71933 4.46897,-2.96933 0.19074,-0.18759 0.36308,-0.38906 0.54157,-0.58601 l -0.0698,0.18913 h 0.30231 l -0.0972,0.26304 h 0.30179 l -0.0972,0.26199 h 0.30231 l -0.0971,0.26304 h 0.30231 l -0.0972,0.26303 h 0.30179 l -0.0971,0.26303 h 0.30283 l -0.0977,0.26304 h 0.30334 l -0.0971,0.262 h 0.30179 l -0.0966,0.26303 h 0.30128 l -0.008,0.0207 -0.0889,0.24236 h 0.30127 l -0.0253,0.0687 -0.0708,0.19379 h 0.3023 l -0.0434,0.1173 -0.0538,0.1447 h 0.30231 l -0.0615,0.1664 -0.0362,0.0966 h 0.30282 l -0.0796,0.21498 -0.0181,0.048 h 0.3023 l -0.0971,0.26304 h 6.84403 l 1.25005,-3.34398 h 6.18619 l 0.0413,0.11007 0.0305,0.0801 h 0.10645 l 0.0713,0.19017 0.0269,0.0729 h 0.10697 l 0.0734,0.19585 0.0248,0.0672 h 0.10697 l 0.076,0.20309 0.0222,0.0599 h 0.10697 l 0.078,0.20878 0.0196,0.0543 h 0.10748 l 0.0806,0.216 0.0171,0.046 h 0.108 l 0.0832,0.22272 0.015,0.0403 h 0.10594 l 0.0858,0.22996 0.0129,0.0331 h 0.10749 l 0.0879,0.23565 0.01,0.0269 h 0.10646 l 0.0904,0.24236 0.008,0.0196 h 0.10645 l 0.0935,0.25011 0.005,0.0129 h 0.10748 l 0.0956,0.25632 0.002,0.007 h 0.10697 l 0.0982,0.26304 h 6.84403 l -8.96897,-24.24969 h -0.10748 l -0.0796,-0.21497 -0.0181,-0.0481 h -0.10749 l -0.0615,-0.1664 -0.0362,-0.0966 h -0.10697 l -0.0439,-0.11834 -0.0538,-0.14469 h -0.10852 l -0.0258,-0.0692 -0.0708,-0.19379 h -0.10904 l -0.007,-0.0202 -0.0889,-0.24185 h -0.10748 l -0.0972,-0.26303 h -0.108 l -0.0971,-0.26303 h -0.10852 l -0.0977,-0.26304 h -0.108 l -0.0966,-0.262 h -0.108 l -0.0971,-0.26303 h -0.10801 l -0.0971,-0.26303 h -0.108 l -0.0971,-0.26303 h -0.10749 l -0.0971,-0.26304 H 197.51 l -0.0966,-0.262 h -0.108 l -0.0971,-0.26303 h -0.10749 l -0.0971,-0.26303 h -0.10904 l -0.0971,-0.26252 H 196.696 l -0.0971,-0.262 h -0.10748 l -0.0972,-0.26303 h -0.108 l -0.0971,-0.26303 h -0.10801 l -0.0971,-0.26304 h -0.108 l -0.0971,-0.262 h -0.10749 l -0.0971,-0.26303 h -0.108 l -0.0972,-0.26303 h -0.108 l -0.0971,-0.26304 h -0.10749 l -0.0971,-0.26303 h -0.10904 l -0.0971,-0.262 h -0.10749 l -0.0977,-0.26303 h -0.10748 l -0.0971,-0.26304 h -0.10801 l -0.0971,-0.26303 h -0.108 l -0.0971,-0.262 h -0.10749 l -0.0971,-0.26303 h -0.10801 l -0.0971,-0.26303 h -0.108 l -0.0971,-0.26304 h -0.10801 l -0.0971,-0.26303 h -0.10852 l -0.0971,-0.262 h -0.10801 l -0.0971,-0.26252 h -0.108 l -0.0971,-0.26303 h -0.10749 l -0.0971,-0.26303 h -0.10801 l -0.0971,-0.262 h -0.108 l -0.0971,-0.26303 h -0.10749 l -0.0971,-0.26304 h -0.108 l -0.0972,-0.26303 h -0.10852 l -0.0966,-0.262 h -0.10749 l -0.0971,-0.26303 h -0.10904 l -0.0971,-0.26304 h -0.108 l -0.0971,-0.26303 h -0.10749 l -0.0971,-0.26303 h -0.10801 l -0.0971,-0.262 h -0.108 l -0.0971,-0.26303 h -0.10801 l -0.0971,-0.26304 h -0.10749 l -0.0971,-0.26303 h -0.10852 l -0.0966,-0.262 h -0.10801 l -0.0972,-0.26303 h -0.10852 l -0.0971,-0.26304 h -0.10801 l -0.0971,-0.26303 h -0.108 l -0.0971,-0.26252 h -0.10801 l -0.0966,-0.262 h -0.108 l -0.0972,-0.26303 h -0.108 l -0.0971,-0.26303 h -0.10801 l -0.0971,-0.26303 h -0.10748 l -0.0972,-0.262 h -0.108 l -0.0971,-0.26304 h -0.10801 l -0.0971,-0.26303 h -0.10852 l -0.0971,-0.26303 h -0.108 l -0.0971,-0.26304 h -0.10801 l -0.0971,-0.262 h -0.10749 l -0.0971,-0.26303 h -0.108 l -0.0971,-0.26303 h -0.10801 l -0.0971,-0.26303 h -0.10749 l -0.0971,-0.262 h -0.108 l -0.0971,-0.26304 h -0.10801 l -0.0971,-0.26303 h -0.10852 l -0.0971,-0.26303 h -0.10801 l -0.0971,-0.262 h -0.108 l -0.0971,-0.26304 h -0.10801 l -0.0971,-0.26303 h -0.10748 l -0.0972,-0.26252 h -0.108 l -0.0971,-0.26303 h -0.10801 l -0.0971,-0.262 h -0.10748 l -0.0972,-0.26303 h -0.108 l -0.0971,-0.26303 h -0.10801 l -0.0971,-0.26304 h -0.10852 l -0.0971,-0.262 h -0.108 l -0.0971,-0.26303 h -0.10801 l -0.0971,-0.26303 h -0.108 l -0.0972,-0.26304 h -0.10748 l -0.0971,-0.26303 h -0.10801 l -0.0971,-0.262 h -0.108 l -0.0971,-0.26303 H 181.727 l -0.0971,-0.26303 h -0.10801 l -0.0971,-0.26304 h -0.10904 l -0.0971,-0.262 h -0.10748 l -0.0972,-0.26303 h -0.108 l -0.0971,-0.26303 h -0.10801 l -0.0971,-0.26304 h -0.10748 l -0.0972,-0.26251 h -0.108 l -0.0971,-0.26252 h -0.10801 l -0.0971,-0.26251 h -0.108 l -0.0972,-0.26304 h -0.10749 l -0.0971,-0.26303 h -0.10852 l -0.0966,-0.262 h -0.10903 l -0.0972,-0.26303 h -0.10748 l -0.0971,-0.26304 h -0.10801 l -0.0971,-0.26303 h -0.108 l -0.0972,-0.262 h -0.10749 l -0.0971,-0.26303 h -0.10801 l -0.0971,-0.26303 h -0.108 l -0.0971,-0.26304 h -0.10749 l -0.0971,-0.26303 h -0.10801 l -0.0971,-0.262 h -0.10904 l -0.0971,-0.26303 h -0.10748 l -0.0972,-0.26304 h -0.108 l -0.0971,-0.26303 h -0.10801 l -0.0971,-0.262 h -0.108 l -0.0971,-0.26303 h -0.10749 l -0.0971,-0.26304 h -0.108 l -0.0972,-0.26251 h -0.108 l -0.0971,-0.26303 h -0.10801 l -0.0966,-0.262 h -0.108 l -0.0972,-0.26304 h -0.10903 l -0.0972,-0.26303 h -0.10748 l -0.0971,-0.26303 h -0.10801 l -0.0971,-0.262 h -0.108 l -0.0971,-0.26304 h -0.10801 l -0.0971,-0.26303 h -0.10749 l -0.0971,-0.26303 h -0.108 l -0.0971,-0.26303 h -0.10801 l -0.0971,-0.262 h -0.10749 l -0.0971,-0.26304 h -0.10904 l -0.0971,-0.26303 h -0.108 l -0.0971,-0.26303 h -0.10749 l -0.0971,-0.262 h -0.10801 l -0.0971,-0.26304 h -0.108 l -0.0971,-0.26303 h -0.10749 l -0.0971,-0.26303 h -0.10852 l -0.0966,-0.262 h -0.108 l -0.0971,-0.26303 h -0.10801 l -0.0971,-0.26252 h -0.10748 l -0.0972,-0.26303 h -0.10903 l -0.0971,-0.26304 h -0.10801 l -0.0971,-0.262 h -0.10749 l -0.0971,-0.26303 h -0.108 l -0.0971,-0.26303 h -0.10801 l -0.0971,-0.26304 h -0.108 l -0.0966,-0.262 h -0.108 l -0.0971,-0.26303 h -0.10801 l -0.0971,-0.26303 h -0.10749 l -0.0971,-0.26303 h -0.10904 l -0.0971,-0.26304 h -0.108 l -0.0971,-0.262 h -0.10801 l -0.0971,-0.26303 h -0.10748 l -0.0972,-0.26303 h -0.108 l -0.0971,-0.26304 h -0.10852 l -0.0966,-0.262 h -0.10748 l -0.0972,-0.26303 h -0.108 l -0.0971,-0.26303 h -0.10801 l -0.0971,-0.26303 h -0.10748 l -0.0972,-0.26252 h -0.10903 l -0.0971,-0.262 h -0.10801 l -0.0971,-0.26303 h -0.10749 l -0.0971,-0.26304 h -0.108 l -0.0971,-0.26303 h -0.10801 l -0.0971,-0.262 h -0.108 l -0.0972,-0.26303 h -0.10748 l -0.0971,-0.26304 h -0.10801 l -0.0971,-0.26303 h -0.108 l -0.0971,-0.262 h -0.10853 l -0.0971,-0.26303 h -0.108 l -0.0971,-0.26303 h -0.10801 l -0.0971,-0.26304 h -0.10748 l -0.0972,-0.26303 h -0.108 l -0.0971,-0.262 h -0.10801 l -0.0971,-0.26303 h -0.10748 l -0.0972,-0.26304 h -0.108 l -0.0971,-0.26303 h -0.10852 l -0.0966,-0.262 h -0.108 l -0.0971,-0.26303 h -0.10852 l -0.0971,-0.26252 h -0.10801 l -0.0971,-0.26303 h -0.108 l -0.0972,-0.26303 h -0.10748 l -0.0971,-0.262 h -0.10801 l -0.0971,-0.26304 h -0.108 l -0.0971,-0.26303 h -0.10749 l -0.0971,-0.26303 h -0.10852 l -0.0966,-0.262 h -0.108 l -0.0971,-0.26303 h -0.10852 l -0.0972,-0.26304 h -0.108 l -0.0971,-0.26303 h -0.10801 l -0.0971,-0.262 h -0.108 l -0.0971,-0.26303 h -0.10749 l -0.0971,-0.26304 h -0.10801 l -0.0971,-0.26303 h -0.108 l -0.0971,-0.26303 h -0.10801 l -0.0966,-0.262 h -0.108 l -0.0972,-0.26303 h -0.108 l -0.0971,-0.262521 h -0.10852 l -0.0971,-0.263033 h -0.10801 l -0.0971,-0.263033 h -0.108 l -0.0972,-0.262516 h -0.10748 l -0.0971,-0.262517 h -0.10801 l -0.0971,-0.263033 h -0.108 l -0.0971,-0.263033 h -0.10801 l -0.0971,-0.262516 h -0.10749 l -0.0972,-0.262516 h -0.108 l -0.0971,-0.263033 h -0.10904 l -0.0971,-0.263033 h -0.10749 l -0.0971,-0.262517 h -0.10801 l -0.0971,-0.262516 h -0.108 l -0.0971,-0.263033 h -0.10749 l -0.0971,-0.262516 h -0.10801 l -0.0971,-0.263033 h -0.108 l -0.0971,-0.262517 h -0.10749 l -0.0971,-0.263033 h -0.108 l -0.0972,-0.262516 h -0.108 l -0.0971,-0.263033 h -0.10852 l -0.0971,-0.262516 h -0.10801 l -0.0971,-0.263033 h -0.108 l -0.0971,-0.262517 h -0.10801 l -0.0971,-0.263033 h -0.10749 l -0.0971,-0.262516 h -0.108 l -0.0971,-0.263033 h -0.10801 l -0.0971,-0.262516 h -0.10749 l -0.0971,-0.263033 h -0.108 l -0.0971,-0.262517 h -0.10904 l -0.0971,-0.263033 h -0.10749 l -0.0971,-0.262516 h -0.10801 l -0.0971,-0.263033 h -0.108 l -0.0971,-0.262516 h -0.10801 l -0.0971,-0.263033 h -0.10748 l -0.0972,-0.262516 h -0.108 l -0.0971,-0.263034 h -0.10801 l -0.0971,-0.262516 h -0.10748 l -0.0972,-0.263033 h -0.108 l -0.0971,-0.262516 h -0.10904 l -0.0971,-0.263033 h -0.10749 l -0.0971,-0.262516 h -0.108 l -0.0971,-0.263033 h -0.10801 l -0.0971,-0.262517 h -0.10749 l -0.0971,-0.263033 h -0.108 l -0.0971,-0.262516 h -0.10801 l -0.0971,-0.263033 h -0.108 l -0.0972,-0.262516 h -0.10748 l -0.0971,-0.263033 h -0.10801 l -0.0971,-0.262517 h -0.10904 l -0.0971,-0.263033 h -0.10749 l -0.0971,-0.262516 h -0.108 l -0.0971,-0.263033 h -0.10801 l -0.0971,-0.262516 h -0.10748 l -0.0972,-0.263033 h -0.108 l -0.0972,-0.262517 h -0.10801 l -0.0971,-0.263033 h -0.10748 l -0.0972,-0.262516 h -0.108 l -0.0971,-0.263033 h -0.10904 l -0.0971,-0.262516 h -0.108 l -0.0972,-0.263033 h -0.10748 l -0.0972,-0.262517 h -0.10801 l -0.0971,-0.263033 h -0.108 l -0.0972,-0.262516 h -0.10748 l -0.0971,-0.263033 h -0.10801 l -0.0972,-0.262516 h -0.108 l -0.0971,-0.263033 h -0.10749 l -0.0971,-0.262517 h -0.10801 l -0.0971,-0.263033 h -0.10904 l -0.0971,-0.262516 h -0.10748 l -0.0972,-0.263033 h -0.108 l -0.0971,-0.262516 h -0.10801 l -0.0971,-0.263033 h -0.108 l -0.0971,-0.262516 h -0.10749 l -0.0971,-0.263034 h -0.10801 l -0.0971,-0.262516 h -0.108 l -0.0971,-0.263033 h -0.10749 l -0.0971,-0.262516 h -0.10904 l -0.0971,-0.263033 h -0.108 l -0.0972,-0.262516 h -0.10748 l -0.0971,-0.263033 h -0.10801 l -0.0971,-0.262517 h -0.108 l -0.0972,-0.263033 h -0.10748 l -0.0971,-0.262516 h -0.10801 l -0.0971,-0.263033 h -0.108 l -0.0971,-0.262516 h -0.10801 l -0.0971,-0.263033 h -0.10749 l -0.0971,-0.262517 h -0.10904 l -0.0971,-0.263033 h -0.108 l -0.0971,-0.262516 h -0.10749 l -0.0971,-0.263033 h -0.10801 l -0.0971,-0.262516 h -0.108 l -0.0971,-0.263033 h -0.10749 l -0.0971,-0.262517 h -0.10801 l -0.0971,-0.263033 h -0.108 l -0.0971,-0.262516 h -0.10749 l -0.0971,-0.263033 h -0.10904 l -0.0971,-0.262516 h -0.108 l -0.0972,-0.263033 h -0.108 l -0.0971,-0.262517 h -0.10749 l -0.0971,-0.263033 h -0.108 l -0.0971,-0.262516 h -0.10801 l -0.0971,-0.263033 H 139.072 l -0.0971,-0.262516 h -0.108 l -0.0971,-0.263033 h -0.1178 l -0.0971,-0.262517 h -0.10749 l -0.0971,-0.263033 h -0.10904 l -0.0971,-0.262516 h -0.108 l -0.0971,-0.263033 h -0.10749 l -0.0971,-0.262516 h -0.10801 l -0.0971,-0.263033 h -0.108 l -0.0971,-0.262516 h -0.10801 l -0.0971,-0.263034 h -0.10748 l -0.0972,-0.262516 h -0.108 l -0.0971,-0.263033 h -0.10801 l -0.0971,-0.262516 h -0.10852 l -0.0971,-0.263033 h -0.108 l -0.0972,-0.262516 h -0.10801 l -0.0971,-0.263033 h -0.10749 l -0.0971,-0.262517 h -0.108 l -0.0971,-0.263033 h -0.10801 l -0.0972,-0.262516 h -0.10749 l -0.0971,-0.263033 h -0.108 l -0.0971,-0.262516 h -0.10801 l -0.0971,-0.263033 h -0.108 l -0.0971,-0.262517 h -0.10853 l -0.0971,-0.263033 h -0.108 l -0.0971,-0.262516 h -0.10801 l -0.0971,-0.263033 h -0.10748 l -0.0972,-0.262516 h -0.108 l -0.098,-0.260613 h -0.10801 l -0.0972,-0.262517 h -0.10748 l -0.0972,-0.263033 h -0.108 l -0.0971,-0.262516 H 132.704 l -0.0971,-0.263033 h -0.10852 l -0.0971,-0.262516 h -0.108 l -0.0971,-0.263033 h -0.10801 l -0.0971,-0.262517 h -0.108 l -0.0972,-0.263033 h -0.10748 l -0.0971,-0.262516 h -0.10801 l -0.0971,-0.263033 h -0.108 l -0.0972,-0.262516 h -0.10748 l -0.0971,-0.263033 h -0.10801 l -0.0971,-0.262517 h -0.108 l -0.0971,-0.263033 h -0.10853 l -0.0971,-0.262516 h -0.108 l -0.0971,-0.263033 h -0.10801 l -0.0971,-0.262516 h -0.10748 l -0.0972,-0.263033 h -0.108 l -0.0971,-0.262516 h -0.10801 l -0.0971,-0.263034 h -0.108 l -0.0971,-0.262516 h -0.10749 l -0.0971,-0.263033 h -0.10801 l -0.0971,-0.262516 h -0.10903 l -0.0972,-0.263033 h -0.10748 l -0.0971,-0.262516 h -0.10801 l -0.0971,-0.263033 h -0.108 l -0.0972,-0.262517 h -0.10748 l -0.0971,-0.263033 h -0.10801 l -0.0971,-0.262516 h -0.108 l -0.0971,-0.263033 h -0.10749 l -0.0971,-0.262516 h -0.10801 l -0.0971,-0.263033 h -0.108 l -0.0971,-0.262517 h -0.10904 l -0.0971,-0.263033 h -0.10749 l -0.0971,-0.262516 h -0.10801 l -0.0971,-0.263033 h -0.108 l -0.0971,-0.262516 h -0.10749 l -0.0971,-0.263033 h -0.10801 l -0.0971,-0.262517 h -0.108 l -0.0971,-0.263033 h -0.10749 l -0.0971,-0.262516 h -0.108 l -0.0972,-0.263033 h -0.10903 l -0.0972,-0.262516 h -0.10748 l -0.0971,-0.263033 h -0.10801 l -0.0971,-0.262517 h -0.108 l -0.0972,-0.263033 h -0.108 l -0.0971,-0.262516 h -0.10749 l -0.0971,-0.263033 h -0.108 l -0.0971,-0.262516 h -0.10801 l -0.0972,-0.263033 h -0.10749 l -0.0971,-0.262517 h -0.108 l -0.0971,-0.263033 h -0.10904 l -0.0971,-0.262516 h -0.10749 l -0.0971,-0.263033 h -0.10801 l -0.0971,-0.262516 h -0.108 l -0.0971,-0.263033 h -0.10749 l -0.0971,-0.262517 h -0.10801 l -0.0971,-0.263033 h -0.108 l -0.0971,-0.262516 h -0.10801 l -0.0972,-0.263033 h -0.10748 l -0.0972,-0.262516 h -0.10903 l -0.0972,-0.263033 h -0.108 l -0.0971,-0.262516 h -0.10749 l -0.0971,-0.263033 h -0.108 l -0.0971,-0.262517 h -0.10801 l -0.0971,-0.263033 h -0.10749 l -0.0971,-0.262516 h -0.108 l -0.0971,-0.263033 h -0.10801 l -0.0971,-0.262516 h -0.10749 l -0.0971,-0.263033 h -0.108 l -0.0971,-0.262517 h -0.10904 l -0.0971,-0.263033 h -0.10801 l -0.0971,-0.262516 h -0.10749 l -0.0971,-0.263033 h -0.108 l -0.0971,-0.262516 h -0.10801 l -0.0971,-0.263033 h -0.10748 l -0.0972,-0.262517 h -0.108 l -0.0971,-0.263033 H 117.321 l -0.0971,-0.262516 h -0.10748 l -0.0972,-0.263033 h -0.10903 l -0.0972,-0.262516 h -0.108 l -0.0971,-0.263033 h -0.10749 l -0.0972,-0.262517 h -0.108 l -0.0971,-0.263033 h -0.10801 l -0.0971,-0.262516 h -0.108 l -0.0972,-0.263033 h -0.10748 l -0.0971,-0.262516 h -0.10801 l -0.0971,-0.263033 h -0.108 l -0.0972,-0.262517 h -0.10748 l -0.0971,-0.263033 h -0.10904 l -0.0971,-0.262516 h -0.10801 l -0.0971,-0.263033 h -0.10749 l -0.0972,-0.262516 h -0.108 l -0.0971,-0.263033 h -0.10801 l -0.0971,-0.262517 h -0.10748 l -0.0972,-0.263033 h -0.108 l -0.0971,-0.262516 h -0.10801 l -0.0971,-0.263033 h -0.108 l -0.0971,-0.262516 h -0.10852 l -0.0971,-0.263033 h -0.10801 l -0.0971,-0.262516 h -0.108 l -0.0972,-0.263034 h -0.10748 l -0.0971,-0.262516 h -0.10801 l -0.0971,-0.263033 h -0.108 l -0.0972,-0.262516 h -0.10748 l -0.0971,-0.263033 h -0.10801 l -0.0971,-0.262516 h -0.108 l -0.0972,-0.263033 h -0.10749 l -0.0971,-0.262517 h -0.10904 l -0.0971,-0.263033 h -0.10801 l -0.0971,-0.262516 h -0.108 l -0.0972,-0.263033 h -0.10749 l -0.0971,-0.262516 h -0.10801 l -0.0971,-0.263033 h -0.108 l -0.0971,-0.262517 h -0.10749 l -0.0971,-0.263033 h -0.10801 l -0.0971,-0.262516 h -0.108 l -0.0971,-0.263033 h -0.10852 l -0.0971,-0.262516 h -0.10801 l -0.0971,-0.263033 h -0.108 l -0.0972,-0.262517 h -0.10748 l -0.0971,-0.263033 h -0.10801 l -0.0971,-0.262516 h -0.108 l -0.0972,-0.263033 h -0.108 l -0.0971,-0.262516 h -0.10749 l -0.0971,-0.263033 h -0.108 l -0.0971,-0.262517 h -0.10801 l -0.0971,-0.263033 h -0.10852 l -0.0971,-0.262516 h -0.10801 l -0.0971,-0.263033 h -0.108 l -0.0971,-0.262516 h -0.10749 l -0.0971,-0.263033 h -0.10801 l -0.0971,-0.262517 h -0.108 l -0.0971,-0.263033 h -0.10749 l -0.0972,-0.262516 h -0.10801 l -0.0971,-0.263033 h -0.108 l -0.0971,-0.262516 h -0.10904 l -0.0971,-0.263033 h -0.10749 l -0.0971,-0.262516 h -0.108 l -0.0972,-0.263034 h -0.108 l -0.0971,-0.262516 h -0.10749 l -0.0971,-0.263033 h -0.108 l -0.0971,-0.262516 H 103.989 l -0.0971,-0.263033 h -0.10749 l -0.0972,-0.262516 h -0.108 l -0.0971,-0.263033 h -0.10801 l -0.0971,-0.262517 h -0.10852 l -0.0971,-0.263033 h -0.10801 l -0.0972,-0.262516 h -0.108 l -0.0971,-0.263033 h -0.10801 l -0.0971,-0.262516 h -0.10749 l -0.0971,-0.263033 h -0.108 l -0.0971,-0.262517 h -0.10801 l -0.0971,-0.262516 h -0.10748 l -0.0972,-0.263033 h -0.108 l -0.0971,-0.263033 h -0.10904 l -0.0971,-0.262516 h -0.10749 l -0.0971,-0.262517 h -0.108 l -0.0972,-0.263033 h -0.108 l -0.0971,-0.263033 h -0.10749 l -0.0971,-0.262516 h -0.108 l -0.0971,-0.262516 h -0.10801 L 99.9955,23.153109 h -0.108004 l -0.09715,-0.263033 h -0.108004 l -0.09715,-0.262517 h -0.108004 l -0.09715,-0.262516 h -0.10387 -0.0041 l -0.09715,-0.263033 h -0.09198 -0.01602 l -0.09715,-0.263033 h -0.08062 -0.02739 l -0.09715,-0.262516 h -0.06925 -0.03876 l -0.09715,-0.262517 h -0.05788 -0.04961 l -0.09715,-0.263033 h -0.04703 -0.06098 l -0.09715,-0.263033 h -0.03566 -0.07235 l -0.09715,-0.262516 h -0.02377 -0.08423 l -0.09715,-0.262516 h -0.0124 -0.0956 l -0.09715,-0.263033 h -0.001 -5.717997 v 5.17e-4 l -2.649968,7.165454 v -0.07131 h -0.205155 v -0.262516 h -0.205156 v -0.263033 h -0.205155 v -0.262516 h -0.204639 l -5.16e-4,-0.263033 h -0.204639 l -5.17e-4,-0.262517 h -0.204639 l -5.16e-4,-0.262516 H 87.729652 L 87.729135,25.25531 H 87.523857 V 24.992273 H 87.318701 V 24.729757 H 87.113546 V 24.46724 H 86.90839 v -0.263033 h -0.204638 l -5.17e-4,-0.263033 h -0.204639 l -5.17e-4,-0.262516 h -0.204638 l -5.17e-4,-0.262516 h -0.204639 l -5.16e-4,-0.263033 H 85.88313 v -0.01705 l -5.17e-4,-0.24598 h -0.204639 v -0.03927 l -5.16e-4,-0.223243 h -0.204639 v -0.06201 -0.200505 h -0.205155 v -0.08423 -0.178801 h -0.205156 v -0.106453 -0.15658 h -0.205155 v -0.128674 -0.133842 h -0.205156 v -0.151412 -0.111105 h -0.205155 v -0.173632 -0.0894 h -0.204639 v -0.195853 l -5.17e-4,-0.06718 h -0.204638 v -0.218074 l -5.17e-4,-0.04444 H 83.832092 V 20.28508 l -5.16e-4,-0.02222 h -0.204639 v -0.263033 h -5.17e-4 -6.436816 v 10.937833 5.17e-4 c -1e-4,1.062199 -0.208686,2.062001 -0.625285,2.9993 -0.3958,0.937499 -0.947931,1.750078 -1.65623,2.437578 l -5.17e-4,5.16e-4 c -0.388903,0.377427 -0.819474,0.709326 -1.283642,1.005107 -0.03839,-0.04707 -0.07559,-0.09514 -0.114722,-0.141593 -0.06815,-0.08585 -0.131473,-0.175572 -0.202055,-0.259416 -0.06968,-0.08786 -0.134991,-0.179342 -0.207222,-0.2651 -0.06829,-0.08605 -0.131844,-0.175904 -0.202572,-0.259933 -0.06966,-0.08784 -0.135014,-0.179357 -0.207222,-0.2651 -0.06857,-0.08641 -0.132572,-0.176587 -0.203605,-0.260966 -0.06952,-0.08766 -0.134648,-0.17902 -0.206706,-0.264583 -0.06857,-0.08641 -0.132572,-0.176586 -0.203605,-0.260966 -0.06884,-0.08679 -0.133318,-0.177261 -0.204639,-0.262 -0.06933,-0.08742 -0.133822,-0.178728 -0.205672,-0.264066 -0.06954,-0.08767 -0.13463,-0.179009 -0.206706,-0.264583 -0.06859,-0.08643 -0.132553,-0.176575 -0.203605,-0.260966 -0.06939,-0.08747 -0.13428,-0.178679 -0.206189,-0.264067 -0.06842,-0.08622 -0.132221,-0.176256 -0.203088,-0.260449 -0.06967,-0.08785 -0.13501,-0.179353 -0.207223,-0.2651 -0.06857,-0.08642 -0.132573,-0.176586 -0.203605,-0.260966 -0.06952,-0.08765 -0.134654,-0.179025 -0.206706,-0.264584 -0.06857,-0.08641 -0.132573,-0.176587 -0.203605,-0.260966 -0.06883,-0.08679 -0.13332,-0.177261 -0.204639,-0.261999 -0.06933,-0.08742 -0.133824,-0.178727 -0.205672,-0.264067 -0.06954,-0.08766 -0.134634,-0.179012 -0.206705,-0.264583 -0.06859,-0.08643 -0.132554,-0.176576 -0.203606,-0.260966 -0.06954,-0.08766 -0.134634,-0.179014 -0.206705,-0.264583 -0.06829,-0.08605 -0.131844,-0.175904 -0.202572,-0.259933 -0.06966,-0.08784 -0.135019,-0.17936 -0.207222,-0.2651 -0.06857,-0.08641 -0.132572,-0.176587 -0.203606,-0.260966 -0.06952,-0.08765 -0.134652,-0.179025 -0.206705,-0.264583 -0.06857,-0.08642 -0.132572,-0.176586 -0.203605,-0.260966 -0.06952,-0.08766 -0.134648,-0.179022 -0.206706,-0.264583 -0.06789,-0.08555 -0.131237,-0.174823 -0.201538,-0.258383 -0.07028,-0.08866 -0.135904,-0.181167 -0.208773,-0.267684 -0.06859,-0.08643 -0.132553,-0.176574 -0.203605,-0.260966 -0.06954,-0.08767 -0.13463,-0.179011 -0.206706,-0.264583 -0.06828,-0.08605 -0.131844,-0.175904 -0.202572,-0.259932 -0.06966,-0.08784 -0.135015,-0.179358 -0.207222,-0.2651 -0.06857,-0.08641 -0.132573,-0.176586 -0.203605,-0.260966 -0.06952,-0.08766 -0.13465,-0.179022 -0.206706,-0.264584 -0.06857,-0.08642 -0.132573,-0.176585 -0.203605,-0.260966 -0.06952,-0.08765 -0.134657,-0.179025 -0.206706,-0.264583 -0.06857,-0.08641 -0.132575,-0.176586 -0.203605,-0.260966 -0.06877,-0.0867 -0.132874,-0.177346 -0.204122,-0.262 -0.06939,-0.0875 -0.134272,-0.178648 -0.206189,-0.264066 -0.06954,-0.08766 -0.134634,-0.179014 -0.206706,-0.264583 -0.06859,-0.08643 -0.132553,-0.176575 -0.203605,-0.260966 -0.06924,-0.08729 -0.13392,-0.178341 -0.205672,-0.26355 -0.06871,-0.08661 -0.132933,-0.176918 -0.204122,-0.261483 -0.06952,-0.08765 -0.134652,-0.179025 -0.206706,-0.264583 -0.06857,-0.08641 -0.132571,-0.176586 -0.203605,-0.260966 -0.06952,-0.08765 -0.134648,-0.179022 -0.206705,-0.264584 C 63.370506,24.255858 63.061143,23.89638 62.720719,23.5624 l -5.16e-4,-5.17e-4 c -1.103999,-1.103999 -2.395184,-1.968224 -3.874182,-2.593123 -1.479099,-0.645799 -3.0626,-0.968933 -4.750098,-0.968933 z" /><g
     id="g2"
     transform="translate(0,0.12291611)"><path
       style="fill:#f9f9f9;stroke-width:0.160865"
       d="m 44.767293,59.469755 c -0.03217,0.248113 -0.05478,0.499286 -0.05478,0.756026 v 29.302084 c 0,3.23161 2.629198,5.86063 5.860624,5.86063 h 48.607369 c 3.231464,0 5.860634,-2.62902 5.860634,-5.86063 V 60.225781 c 0,-0.25674 -0.0226,-0.507913 -0.0548,-0.756026 z"
       id="path16" /><path
       id="path5"
       style="fill:#f44336;fill-opacity:1;stroke-width:0.160865"
       d="m 50.573142,54.365671 c -2.974716,0 -5.433052,2.229204 -5.805847,5.104081 h 60.219065 c -0.37279,-2.874877 -2.83112,-5.104081 -5.805854,-5.104081 z" /><g
       id="g1"><path
         style="fill:#798388;fill-opacity:1;stroke-width:0.160865"
         d="m 49.787227,83.040591 h 14.612028 c 0.816296,0 1.477946,0.661665 1.477946,1.477946 0,0.816083 -0.661866,1.477429 -1.477946,1.477429 H 49.787227 c -0.815895,0 -1.477429,-0.661148 -1.477429,-1.477429 0,-0.816281 0.661534,-1.477946 1.477429,-1.477946 z"
         id="path29" /><path
         style="fill:#798388;fill-opacity:1;stroke-width:0.160865"
         d="m 49.787227,77.783547 h 25.239286 c 0.816084,0 1.47743,0.661146 1.47743,1.47743 0,0.81628 -0.661138,1.477946 -1.47743,1.477946 H 49.787227 c -0.815893,0 -1.477429,-0.661666 -1.477429,-1.477946 0,-0.816284 0.661536,-1.47743 1.477429,-1.47743 z"
         id="path28" /><path
         style="fill:#798388;fill-opacity:1;stroke-width:0.160865"
         d="m 63.674235,67.326821 h 1.459859 v 4.985226 h -1.459859 z"
         id="path24" /><path
         style="fill:#798388;fill-opacity:1;stroke-width:0.160865"
         d="m 59.051778,67.326821 h 1.399914 v 3.721737 h 2.586923 v 1.263489 h -3.986837 z"
         id="path23" /><path
         id="path22"
         style="fill:#798388;fill-opacity:1;stroke-width:0.160865"
         d="m 73.856559,67.183161 c -0.36312,10e-7 -0.706103,0.07015 -1.028878,0.211356 -0.322776,0.13617 -0.604899,0.325326 -0.846977,0.567408 -0.237034,0.237032 -0.426188,0.516967 -0.567407,0.839742 -0.136162,0.317726 -0.204122,0.658521 -0.204122,1.021643 0,0.363116 0.06796,0.706102 0.204122,1.028878 0.141219,0.322769 0.330373,0.602704 0.567407,0.839742 0.242078,0.237032 0.524201,0.425676 0.846977,0.56689 0.322775,0.136169 0.665758,0.204639 1.028878,0.204639 0.36312,0 0.706103,-0.06847 1.028878,-0.204639 0.32277,-0.141214 0.602702,-0.329858 0.839742,-0.56689 0.242072,-0.237038 0.431234,-0.516973 0.567407,-0.839742 0.141213,-0.322776 0.211873,-0.665762 0.211873,-1.028878 0,-0.363122 -0.07066,-0.706104 -0.211873,-1.028878 -0.136173,-0.322776 -0.325335,-0.602704 -0.567407,-0.839742 -0.23704,-0.237038 -0.516972,-0.424003 -0.839742,-0.560173 -0.322775,-0.141215 -0.665758,-0.211356 -1.028878,-0.211356 z m 0,1.368909 c 0.171472,0 0.330721,0.03534 0.476973,0.105936 0.151304,0.06556 0.279594,0.156339 0.385507,0.272335 0.11096,0.115997 0.196838,0.252417 0.257348,0.408761 0.06051,0.151296 0.09095,0.312733 0.09095,0.484208 0,0.171473 -0.03044,0.335098 -0.09095,0.491443 -0.06052,0.151295 -0.146403,0.287721 -0.257348,0.40876 -0.105913,0.115999 -0.234203,0.20896 -0.385507,0.27957 -0.146252,0.06556 -0.305501,0.0987 -0.476973,0.0987 -0.171472,0 -0.332905,-0.03313 -0.484208,-0.0987 -0.146258,-0.07061 -0.274562,-0.163572 -0.385506,-0.27957 -0.105914,-0.12104 -0.191779,-0.257465 -0.257349,-0.40876 -0.06051,-0.156345 -0.09095,-0.31997 -0.09095,-0.491443 0,-0.171475 0.03044,-0.332912 0.09095,-0.484208 0.06557,-0.156344 0.151436,-0.292764 0.257349,-0.408761 0.110944,-0.115995 0.239248,-0.206765 0.385506,-0.272335 0.151303,-0.07061 0.312736,-0.105936 0.484208,-0.105936 z" /><path
         id="path21"
         style="fill:#798388;fill-opacity:1;stroke-width:0.160865"
         d="m 55.942924,67.183161 c -0.363121,10e-7 -0.706103,0.07015 -1.028878,0.211356 -0.322774,0.13617 -0.605413,0.325326 -0.847494,0.567408 -0.237032,0.237032 -0.426192,0.516967 -0.567407,0.839742 -0.136172,0.317726 -0.204122,0.658521 -0.204122,1.021643 0,0.363116 0.06795,0.706102 0.204122,1.028878 0.141215,0.322769 0.330375,0.602704 0.567407,0.839742 0.242081,0.237032 0.52472,0.425676 0.847494,0.56689 0.322775,0.136169 0.665757,0.204639 1.028878,0.204639 0.363117,0 0.706107,-0.06847 1.028877,-0.204639 0.322775,-0.141214 0.602188,-0.329858 0.839226,-0.56689 0.242075,-0.237038 0.431236,-0.516973 0.567407,-0.839742 0.141213,-0.322776 0.211873,-0.665762 0.211873,-1.028878 0,-0.363122 -0.07066,-0.706104 -0.211873,-1.028878 -0.136171,-0.322776 -0.325332,-0.602704 -0.567407,-0.839742 -0.237038,-0.237038 -0.516451,-0.424003 -0.839226,-0.560173 -0.32277,-0.141215 -0.66576,-0.211356 -1.028877,-0.211356 z m 0,1.368909 c 0.171469,0 0.330199,0.03534 0.476456,0.105936 0.151302,0.06556 0.279597,0.156339 0.385507,0.272335 0.110949,0.115997 0.196828,0.252417 0.257348,0.408761 0.06052,0.151296 0.09095,0.312733 0.09095,0.484208 0,0.171473 -0.03043,0.335098 -0.09095,0.491443 -0.06052,0.151295 -0.146399,0.287721 -0.257348,0.40876 -0.10591,0.115999 -0.234205,0.20896 -0.385507,0.27957 -0.146257,0.06556 -0.304987,0.0987 -0.476456,0.0987 -0.171474,0 -0.332907,-0.03313 -0.484209,-0.0987 -0.146252,-0.07061 -0.275074,-0.163572 -0.386022,-0.27957 -0.105914,-0.12104 -0.191789,-0.257465 -0.257349,-0.40876 -0.06052,-0.156345 -0.09043,-0.31997 -0.09043,-0.491443 0,-0.171475 0.02991,-0.332912 0.09043,-0.484208 0.06556,-0.156344 0.151438,-0.292764 0.257349,-0.408761 0.110948,-0.115995 0.23977,-0.206765 0.386022,-0.272335 0.151302,-0.07061 0.312735,-0.105936 0.484209,-0.105936 z" /><path
         style="fill:#798388;fill-opacity:1;stroke-width:0.160865"
         d="m 65.822424,66.441604 h 5.031217 v 1.346688 l -0.105936,0.105937 h -1.611788 v 4.417818 h -1.595768 v -4.417818 h -1.611788 l -0.105937,-0.105937 z"
         id="path20" /><path
         id="path19"
         style="fill:#798388;fill-opacity:1;stroke-width:0.160865"
         d="m 48.309798,66.441604 v 5.870443 h 1.573547 v -1.823145 h 1.066602 c 0.282423,0 0.552042,-0.05325 0.809253,-0.159163 0.262249,-0.110954 0.491639,-0.259363 0.68833,-0.445968 0.201734,-0.191648 0.360975,-0.413942 0.476973,-0.666109 0.121045,-0.252168 0.181385,-0.524494 0.181385,-0.817004 0,-0.287472 -0.06034,-0.552187 -0.181385,-0.794267 -0.115998,-0.242081 -0.275239,-0.448649 -0.476973,-0.620117 -0.196691,-0.171474 -0.426081,-0.30519 -0.68833,-0.40101 -0.257211,-0.09582 -0.52683,-0.14366 -0.809253,-0.14366 z m 1.611271,1.301213 h 0.91519 c 0.09078,0 0.176648,0.0174 0.257348,0.05271 0.08069,0.03026 0.151354,0.07591 0.211874,0.136425 0.06052,0.05548 0.10836,0.120721 0.14366,0.196371 0.03531,0.07565 0.05271,0.159334 0.05271,0.250114 0,0.09078 -0.0174,0.173947 -0.05271,0.249597 -0.0353,0.07565 -0.08314,0.143602 -0.14366,0.204122 -0.06052,0.05547 -0.131184,0.100599 -0.211874,0.135909 -0.08069,0.03026 -0.166568,0.04547 -0.257348,0.04547 h -0.91519 z" /></g></g><path
     id="path1"
     style="fill:#5c6bc0;stroke-width:1.09875"
     d="m 90.467346,66.441423 c -3.640942,0 -6.592362,2.951936 -6.592362,6.592879 0,3.640931 2.95142,6.592362 6.592362,6.592362 3.64094,0 6.59236,-2.951431 6.59236,-6.592362 0,-3.640943 -2.95142,-6.592879 -6.59236,-6.592879 z m 0,15.382523 c -3.050901,0 -5.432253,0.243202 -7.217647,0.991671 -1.911551,0.80132 -3.08266,2.159845 -3.707268,4.134631 -0.230858,0.7299 0.31595,1.466577 1.073837,1.466577 h 19.694922 c 0.76099,0 1.31172,-0.739846 1.07901,-1.473811 -0.62651,-1.974897 -1.801884,-3.332816 -3.716574,-4.132048 -1.78382,-0.744623 -4.16163,-0.98702 -7.20628,-0.98702 z" /><text
     xml:space="preserve"
     transform="matrix(0.76034063,0,0,0.76034063,-53.173042,-219.06395)"
     id="text1040"
     style="font-style:normal;font-variant:normal;font-weight:normal;font-stretch:normal;font-size:40px;line-height:1.25;font-family:PRIMETIME;-inkscape-font-specification:'PRIMETIME, Normal';font-variant-ligatures:normal;font-variant-caps:normal;font-variant-numeric:normal;font-variant-east-asian:normal;letter-spacing:0px;word-spacing:0px;white-space:pre;shape-inside:url(#rect1040);fill:#ffd500;fill-opacity:1;stroke:none"><tspan
       x="128.77148"
       y="458.12891"
       id="tspan2">ING</tspan></text><text
     xml:space="preserve"
     transform="matrix(0.78125,0,0,0.78125,-55.693567,-40.024292)"
     id="text3057"
     style="font-style:normal;font-variant:normal;font-weight:normal;font-stretch:normal;font-size:40px;line-height:1.25;font-family:PRIMETIME;-inkscape-font-specification:'PRIMETIME, Normal';font-variant-ligatures:normal;font-variant-caps:normal;font-variant-numeric:normal;font-variant-east-asian:normal;letter-spacing:0px;word-spacing:0px;white-space:pre;shape-inside:url(#rect3058);fill:#ffd500;fill-opacity:1;stroke:none"><tspan
       x="124.65039"
       y="107.87109"
       id="tspan4">DJA</tspan></text></svg>
