<?xml version="1.0" encoding="UTF-8" standalone="no"?>
<!-- Created with Inkscape (http://www.inkscape.org/) -->

<svg
   width="67.73333mm"
   height="67.73333mm"
   viewBox="0 0 67.733327 67.733327"
   version="1.1"
   id="svg1"
   xml:space="preserve"
   sodipodi:docname="B3.svg"
   inkscape:version="1.3 (0e150ed6c4, 2023-07-21)"
   inkscape:export-filename="B3.png"
   inkscape:export-xdpi="1536.0001"
   inkscape:export-ydpi="1536.0001"
   xmlns:inkscape="http://www.inkscape.org/namespaces/inkscape"
   xmlns:sodipodi="http://sodipodi.sourceforge.net/DTD/sodipodi-0.dtd"
   xmlns="http://www.w3.org/2000/svg"
   xmlns:svg="http://www.w3.org/2000/svg"><sodipodi:namedview
     id="namedview1"
     pagecolor="#ffffff"
     bordercolor="#999999"
     borderopacity="1"
     inkscape:showpageshadow="2"
     inkscape:pageopacity="0"
     inkscape:pagecheckerboard="0"
     inkscape:deskcolor="#d1d1d1"
     inkscape:document-units="mm"
     inkscape:zoom="1.5862247"
     inkscape:cx="267.93178"
     inkscape:cy="127.03118"
     inkscape:window-width="1920"
     inkscape:window-height="1001"
     inkscape:window-x="-9"
     inkscape:window-y="-9"
     inkscape:window-maximized="1"
     inkscape:current-layer="svg1" /><defs
     id="defs1"><rect
       x="128.7717"
       y="414.12979"
       width="302.87103"
       height="109.1984"
       id="rect1040" /><rect
       x="124.651"
       y="63.870762"
       width="290.50894"
       height="105.07771"
       id="rect3058" /></defs><path
     id="rect1-3"
     style="fill:#e87d7d;fill-opacity:1;stroke-width:0.133494"
     d="M 0,0 H 67.73332 V 67.733329 H 0 Z"
     inkscape:export-filename="..\b\B2.svg"
     inkscape:export-xdpi="347.36404"
     inkscape:export-ydpi="347.36404" /><path
     id="path27"
     style="fill:#000001;fill-opacity:0.247059;stroke-width:0.0727587"
     d="M 19.562805,9.0458516 V 20.014139 l 4.63091,4.63091 H 22.87407 c -1.345451,0 -2.457352,1.008266 -2.625966,2.308559 -0.01455,0.112221 -0.02478,0.225826 -0.02478,0.341949 v 13.253241 c 0,0.36541 0.0744,0.713732 0.208722,1.030752 0.06716,0.15851 0.149348,0.309123 0.244716,0.450166 0.04313,0.0638 0.09795,0.117944 0.146316,0.177635 0.05858,0.07229 0.111671,0.149303 0.177402,0.215033 l 4.955327,4.955327 0.416042,0.416041 h -0.813852 v 1.71956 l -1.719557,-1.71956 h -2.87489 v 10.674724 l 9.264857,9.264857 H 67.733333 V 32.665056 L 44.114128,9.0458516 H 41.527429 L 40.527528,11.749183 37.824197,9.0458516 h -2.911585 v 4.9471474 c 0,0.480564 -0.09434,0.93278 -0.282815,1.356807 -0.151937,0.359881 -0.3661,0.67005 -0.619854,0.94848 l -5.606034,-5.606034 c -0.01176,-0.01176 -0.02363,-0.02339 -0.03553,-0.03506 C 28.243529,10.53234 28.113258,10.414158 27.977817,10.302856 27.842378,10.191551 27.701735,10.087181 27.555699,9.9894228 27.263625,9.7939116 26.950377,9.6254392 26.615868,9.4840969 25.946848,9.1919901 25.230658,9.0458516 24.467413,9.0458516 Z" /><path
     style="fill:#f9f9f9;stroke-width:0.0727587"
     d="m 20.248104,26.953575 c -0.01455,0.112221 -0.02478,0.225825 -0.02478,0.341948 v 13.253239 c 0,1.461647 1.189178,2.650744 2.650742,2.650744 h 21.984957 c 1.461581,0 2.650747,-1.189097 2.650747,-2.650744 V 27.295523 c 0,-0.116123 -0.01022,-0.229727 -0.02479,-0.341948 z"
     id="path16" /><path
     id="path5"
     style="fill:#f44336;fill-opacity:1;stroke-width:0.0727587"
     d="m 22.874071,24.645014 c -1.345455,0 -2.457352,1.008262 -2.625966,2.30856 h 27.236891 c -0.168612,-1.300298 -1.280507,-2.30856 -2.62597,-2.30856 z" /><path
     style="fill:#798388;fill-opacity:1;stroke-width:0.0727587"
     d="m 22.518604,37.614589 h 6.608974 c 0.369208,0 0.66847,0.299269 0.66847,0.66847 0,0.369112 -0.29936,0.668237 -0.66847,0.668237 h -6.608974 c -0.369027,0 -0.668236,-0.299036 -0.668236,-0.668237 0,-0.369201 0.299209,-0.66847 0.668236,-0.66847 z"
     id="path29" /><path
     style="fill:#798388;fill-opacity:1;stroke-width:0.0727587"
     d="m 22.518604,35.236845 h 11.415648 c 0.369113,0 0.668237,0.299034 0.668237,0.668237 0,0.3692 -0.29903,0.66847 -0.668237,0.66847 H 22.518604 c -0.369026,0 -0.668236,-0.29927 -0.668236,-0.66847 0,-0.369203 0.29921,-0.668237 0.668236,-0.668237 z"
     id="path28" /><path
     style="fill:#798388;fill-opacity:1;stroke-width:0.0727587"
     d="m 28.799653,30.507301 h 0.66029 v 2.254802 h -0.66029 z"
     id="path24" /><path
     style="fill:#798388;fill-opacity:1;stroke-width:0.0727587"
     d="m 26.708931,30.507301 h 0.633176 v 1.68333 h 1.170057 v 0.571472 h -1.803233 z"
     id="path23" /><path
     id="path22"
     style="fill:#798388;fill-opacity:1;stroke-width:0.0727587"
     d="m 33.405086,30.442324 c -0.164238,0 -0.319368,0.03173 -0.465358,0.0956 -0.145991,0.06159 -0.273594,0.147143 -0.383085,0.256636 -0.10721,0.107209 -0.192764,0.233823 -0.256637,0.379813 -0.06159,0.143706 -0.09232,0.297847 -0.09232,0.462086 0,0.164236 0.03074,0.319368 0.09232,0.465358 0.06387,0.145987 0.149427,0.272601 0.256637,0.379813 0.109491,0.107209 0.237094,0.192532 0.383085,0.256402 0.14599,0.06159 0.30112,0.09256 0.465358,0.09256 0.164238,0 0.319368,-0.03097 0.465358,-0.09256 0.145988,-0.06387 0.2726,-0.149193 0.379813,-0.256402 0.109488,-0.107212 0.195046,-0.233826 0.256636,-0.379813 0.06387,-0.14599 0.09583,-0.301122 0.09583,-0.465358 0,-0.164239 -0.03196,-0.319369 -0.09583,-0.465358 -0.06159,-0.145991 -0.147148,-0.272601 -0.256636,-0.379813 -0.107213,-0.107212 -0.233825,-0.191775 -0.379813,-0.253364 -0.14599,-0.06387 -0.30112,-0.0956 -0.465358,-0.0956 z m 0,0.619153 c 0.07756,0 0.149584,0.01598 0.215733,0.04791 0.06844,0.02965 0.12646,0.07071 0.174364,0.123176 0.05019,0.05246 0.08903,0.114167 0.116398,0.184881 0.02737,0.06843 0.04114,0.141448 0.04114,0.219006 0,0.07756 -0.01377,0.151564 -0.04114,0.222278 -0.02737,0.06843 -0.06622,0.130135 -0.116398,0.184881 -0.0479,0.05247 -0.105929,0.09451 -0.174364,0.126448 -0.06615,0.02965 -0.138177,0.04464 -0.215733,0.04464 -0.07756,0 -0.150572,-0.01498 -0.219006,-0.04464 -0.06615,-0.03194 -0.124183,-0.07398 -0.174363,-0.126448 -0.0479,-0.05475 -0.08674,-0.116451 -0.116398,-0.184881 -0.02737,-0.07071 -0.04114,-0.144721 -0.04114,-0.222278 0,-0.07756 0.01377,-0.150575 0.04114,-0.219006 0.02966,-0.07071 0.06849,-0.132416 0.116398,-0.184881 0.05018,-0.05246 0.108211,-0.09352 0.174363,-0.123176 0.06843,-0.03194 0.14145,-0.04791 0.219006,-0.04791 z" /><path
     id="path21"
     style="fill:#798388;fill-opacity:1;stroke-width:0.0727587"
     d="m 25.302806,30.442324 c -0.164238,0 -0.319368,0.03173 -0.465358,0.0956 -0.14599,0.06159 -0.273827,0.147143 -0.383319,0.256636 -0.107209,0.107209 -0.192765,0.233823 -0.256636,0.379813 -0.06159,0.143706 -0.09232,0.297847 -0.09232,0.462086 0,0.164236 0.03073,0.319368 0.09232,0.465358 0.06387,0.145987 0.149427,0.272601 0.256636,0.379813 0.109492,0.107209 0.237329,0.192532 0.383319,0.256402 0.14599,0.06159 0.30112,0.09256 0.465358,0.09256 0.164237,0 0.31937,-0.03097 0.465358,-0.09256 0.14599,-0.06387 0.272368,-0.149193 0.379579,-0.256402 0.10949,-0.107212 0.195047,-0.233826 0.256636,-0.379813 0.06387,-0.14599 0.09583,-0.301122 0.09583,-0.465358 0,-0.164239 -0.03196,-0.319369 -0.09583,-0.465358 -0.06159,-0.145991 -0.147146,-0.272601 -0.256636,-0.379813 -0.107211,-0.107212 -0.233589,-0.191775 -0.379579,-0.253364 -0.145988,-0.06387 -0.301121,-0.0956 -0.465358,-0.0956 z m 0,0.619153 c 0.07756,0 0.149348,0.01598 0.2155,0.04791 0.06843,0.02965 0.12646,0.07071 0.174363,0.123176 0.05018,0.05246 0.08903,0.114167 0.116398,0.184881 0.02737,0.06843 0.04114,0.141448 0.04114,0.219006 0,0.07756 -0.01376,0.151564 -0.04114,0.222278 -0.02737,0.06843 -0.06622,0.130135 -0.116398,0.184881 -0.0479,0.05247 -0.10593,0.09451 -0.174363,0.126448 -0.06615,0.02965 -0.137945,0.04464 -0.2155,0.04464 -0.07756,0 -0.150573,-0.01498 -0.219006,-0.04464 -0.06615,-0.03194 -0.124415,-0.07398 -0.174597,-0.126448 -0.0479,-0.05475 -0.08675,-0.116451 -0.116398,-0.184881 -0.02737,-0.07071 -0.0409,-0.144721 -0.0409,-0.222278 0,-0.07756 0.01353,-0.150575 0.0409,-0.219006 0.02965,-0.07071 0.06849,-0.132416 0.116398,-0.184881 0.05018,-0.05246 0.108448,-0.09352 0.174597,-0.123176 0.06843,-0.03194 0.141449,-0.04791 0.219006,-0.04791 z" /><path
     style="fill:#798388;fill-opacity:1;stroke-width:0.0727587"
     d="m 29.771272,30.10692 h 2.275604 v 0.609103 l -0.04791,0.04791 H 31.26996 v 1.998165 h -0.721761 v -1.998165 h -0.729007 l -0.04791,-0.04791 z"
     id="path20" /><path
     id="path19"
     style="fill:#798388;fill-opacity:1;stroke-width:0.0727587"
     d="m 21.850368,30.10692 v 2.655183 h 0.71171 V 31.9375 h 0.48242 c 0.12774,0 0.249687,-0.02408 0.366023,-0.07199 0.118614,-0.05018 0.222367,-0.117309 0.311329,-0.20171 0.09124,-0.08668 0.163268,-0.187224 0.215734,-0.301279 0.05475,-0.114055 0.08204,-0.237227 0.08204,-0.369528 0,-0.130023 -0.02729,-0.249753 -0.08204,-0.359245 -0.05247,-0.109492 -0.12449,-0.202922 -0.215734,-0.280476 -0.08896,-0.07756 -0.192715,-0.138037 -0.311329,-0.181376 -0.116336,-0.04334 -0.238283,-0.06498 -0.366023,-0.06498 z m 0.728772,0.588535 h 0.413938 c 0.04106,0 0.0799,0.0079 0.116397,0.02384 0.0365,0.01369 0.06846,0.03433 0.09583,0.0617 0.02737,0.02509 0.04901,0.0546 0.06498,0.08882 0.01597,0.03422 0.02384,0.07207 0.02384,0.113125 0,0.04106 -0.0079,0.07868 -0.02384,0.112892 -0.01597,0.03422 -0.0376,0.06495 -0.06498,0.09232 -0.02737,0.02509 -0.05933,0.0455 -0.09583,0.06147 -0.03649,0.01369 -0.07534,0.02057 -0.116397,0.02057 H 22.57914 Z" /><path
     id="path1"
     style="fill:#5c6bc0;stroke-width:0.496961"
     d="m 40.918092,30.051244 c -1.646786,0 -2.981704,1.335151 -2.981704,2.981938 0,1.646781 1.334918,2.981704 2.981704,2.981704 1.646786,0 2.981703,-1.334923 2.981703,-2.981704 0,-1.646787 -1.334917,-2.981938 -2.981703,-2.981938 z m 0,6.957466 c -1.379913,0 -2.456991,0.109999 -3.264519,0.448529 -0.864588,0.362435 -1.394277,0.976891 -1.676785,1.870081 -0.104417,0.330131 0.142903,0.663328 0.485693,0.663328 h 8.90795 c 0.344194,0 0.593287,-0.33463 0.488033,-0.6666 -0.283368,-0.89324 -0.814986,-1.507422 -1.680995,-1.868912 -0.806816,-0.336791 -1.882292,-0.446426 -3.259377,-0.446426 z" /><path
     d="M 20.963536,58.468442 V 47.793797 h 2.875001 v 10.674645 z m 11.142355,-0.01376 -3.70036,-5.694978 v 5.694978 H 25.558042 V 47.793797 h 2.833733 l 3.714116,5.750002 v -5.750002 h 2.861245 v 10.660889 z m 12.229082,0.01376 V 58.16581 q -1.238039,0.632776 -2.613638,0.632776 -1.19677,0 -2.228469,-0.440192 -1.017943,-0.440191 -1.774523,-1.196771 -0.756579,-0.770335 -1.183014,-1.788278 -0.426436,-1.031699 -0.426436,-2.214713 0,-1.155503 0.426436,-2.187202 0.440191,-1.031699 1.19677,-1.802034 0.770336,-0.784091 1.788279,-1.224283 1.031699,-0.453947 2.214713,-0.453947 1.265551,0 2.393542,0.550239 1.141747,0.536483 1.980862,1.526914 l -2.338518,1.554427 q -0.426435,-0.426436 -0.949163,-0.646532 -0.508971,-0.233851 -1.086723,-0.233851 -0.605263,0 -1.127991,0.247607 -0.508971,0.233852 -0.894139,0.632776 -0.371411,0.398923 -0.591507,0.935407 -0.20634,0.522727 -0.20634,1.114235 0,0.591507 0.20634,1.12799 0.220096,0.536484 0.605263,0.935407 0.385168,0.398924 0.894139,0.646532 0.522728,0.233852 1.127991,0.233852 0.646532,0 1.224283,-0.288876 0.591507,-0.288876 0.990431,-0.811603 h -1.88457 v -2.57237 h 4.690791 v 6.025122 z"
     id="text1040"
     style="font-size:40px;line-height:1.25;font-family:PRIMETIME;-inkscape-font-specification:'PRIMETIME, Normal';letter-spacing:0px;word-spacing:0px;white-space:pre;fill:#ffd500;stroke-width:0.3439"
     aria-label="ING" /><path
     id="path4"
     style="font-size:40px;line-height:1.25;font-family:PRIMETIME;-inkscape-font-specification:'PRIMETIME, Normal';letter-spacing:0px;word-spacing:0px;white-space:pre;fill:#ffd500;stroke-width:0.353357"
     d="M 41.527428,9.0458515 37.470796,20.01414 h 3.09553 l 0.565395,-1.512474 h 3.378113 l 0.565396,1.512474 h 3.095297 L 44.114128,9.0458515 Z m 1.300477,4.0143275 0.862,2.897328 h -1.738487 z" /><path
     style="font-size:40px;line-height:1.25;font-family:PRIMETIME;-inkscape-font-specification:'PRIMETIME, Normal';letter-spacing:0px;word-spacing:0px;white-space:pre;fill:#ffd500;stroke-width:0.353357"
     d="m 37.824244,14.106007 q 0,1.300353 -0.508833,2.445229 -0.4947,1.130741 -1.356891,1.978798 -0.862191,0.848056 -2.021201,1.342756 -1.144877,0.480565 -2.44523,0.480565 -0.325088,0 -0.664311,-0.0424 -0.325088,-0.02827 -0.706714,-0.09894 l 0.565371,-2.81272 q 0.212015,0.0424 0.381626,0.05654 0.169611,0.01413 0.325088,0.01413 0.720848,0 1.356891,-0.26855 0.650176,-0.282685 1.130742,-0.749116 0.480565,-0.466432 0.749116,-1.102474 0.282686,-0.636042 0.282686,-1.35689 V 9.0459363 h 2.91166 z"
     id="path3" /><path
     id="text3057"
     style="font-size:40px;line-height:1.25;font-family:PRIMETIME;-inkscape-font-specification:'PRIMETIME, Normal';letter-spacing:0px;word-spacing:0px;white-space:pre;fill:#ffd500;stroke-width:0.353357"
     d="M 19.562807,9.0458515 V 20.01414 h 4.904607 c 0.763248,0 1.479431,-0.141304 2.148453,-0.42399 0.669021,-0.292106 1.253102,-0.683106 1.752515,-1.173095 0.49941,-0.49941 0.89041,-1.083725 1.173096,-1.752746 0.292106,-0.669022 0.438244,-1.380369 0.438244,-2.134197 0,-0.753827 -0.146138,-1.465408 -0.438244,-2.13443 C 29.258792,11.726661 28.867792,11.14718 28.368382,10.657192 27.868969,10.157781 27.284888,9.7667822 26.615867,9.484097 25.946845,9.1919889 25.230662,9.0458515 24.467414,9.0458515 Z m 2.883304,2.6715435 h 1.681925 c 0.39576,0 0.763286,0.07525 1.102509,0.226018 0.348643,0.141343 0.650353,0.33926 0.90477,0.593676 0.254417,0.254417 0.452103,0.555893 0.593446,0.904539 0.150763,0.339222 0.22625,0.702148 0.22625,1.088484 0,0.386337 -0.07549,0.753864 -0.22625,1.102509 -0.141343,0.339222 -0.339029,0.635864 -0.593446,0.89028 -0.254417,0.254417 -0.556127,0.457169 -0.90477,0.607934 -0.339223,0.141343 -0.706749,0.211994 -1.102509,0.211994 h -1.681925 z" /></svg>
