<?xml version="1.0" encoding="UTF-8" standalone="no"?>
<!-- Created with Inkscape (http://www.inkscape.org/) -->

<svg
   width="67.73333mm"
   height="67.73333mm"
   viewBox="0 0 67.733327 67.733327"
   version="1.1"
   id="svg1"
   xml:space="preserve"
   sodipodi:docname="B4.svg"
   inkscape:version="1.3 (0e150ed6c4, 2023-07-21)"
   inkscape:export-filename="B4.png"
   inkscape:export-xdpi="1536.0001"
   inkscape:export-ydpi="1536.0001"
   xmlns:inkscape="http://www.inkscape.org/namespaces/inkscape"
   xmlns:sodipodi="http://sodipodi.sourceforge.net/DTD/sodipodi-0.dtd"
   xmlns="http://www.w3.org/2000/svg"
   xmlns:svg="http://www.w3.org/2000/svg"><sodipodi:namedview
     id="namedview1"
     pagecolor="#ffffff"
     bordercolor="#999999"
     borderopacity="1"
     inkscape:showpageshadow="2"
     inkscape:pageopacity="0"
     inkscape:pagecheckerboard="0"
     inkscape:deskcolor="#d1d1d1"
     inkscape:document-units="mm"
     inkscape:zoom="1.8220149"
     inkscape:cx="205.26726"
     inkscape:cy="153.95044"
     inkscape:window-width="1920"
     inkscape:window-height="1001"
     inkscape:window-x="-9"
     inkscape:window-y="-9"
     inkscape:window-maximized="1"
     inkscape:current-layer="svg1" /><defs
     id="defs1"><rect
       x="128.7717"
       y="414.12979"
       width="302.87103"
       height="109.1984"
       id="rect1040" /><rect
       x="124.651"
       y="63.870762"
       width="290.50894"
       height="105.07771"
       id="rect3058" /></defs><path
     id="rect1-3"
     style="fill:#e87d7d;fill-opacity:1;stroke-width:0.133494"
     d="M 0,0 H 67.73332 V 67.733329 H 0 Z"
     inkscape:export-filename="..\b\B4.png"
     inkscape:export-xdpi="347.36404"
     inkscape:export-ydpi="347.36404" /><path
     id="path27"
     style="fill:#000001;fill-opacity:0.247059;stroke-width:0.0727587"
     d="M 20.373618,9.0458516 V 20.353283 l 4.291765,4.291766 H 22.87407 c -1.345451,0 -2.457352,1.008266 -2.625966,2.308559 -0.01455,0.112221 -0.02478,0.225826 -0.02478,0.341949 v 13.253241 c 0,0.36541 0.0744,0.713732 0.208722,1.030752 0.06716,0.15851 0.149348,0.309123 0.244716,0.450166 0.04313,0.0638 0.09795,0.117944 0.146316,0.177635 0.05858,0.07229 0.111671,0.149303 0.177402,0.215033 l 4.943875,4.943875 0.414171,0.414172 h -1.216803 c -0.05553,0 -0.105373,0.02558 -0.152626,0.06287 -0.02308,0.01815 -0.04669,0.03375 -0.06778,0.06077 v 2.3e-4 l -1.062307,1.763035 -0.847041,1.405422 -3.206086,-3.206088 c -0.01496,-0.01497 -0.03234,-0.0226 -0.04862,-0.03366 -0.0117,-0.008 -0.02268,-0.01813 -0.03506,-0.02408 -0.03477,-0.01663 -0.0719,-0.02636 -0.111958,-0.02711 -0.0019,-3.7e-5 -0.0034,-0.0014 -0.0054,-0.0014 H 16.98826 v 10.687575 l 9.265325,9.265327 H 67.733333 V 29.419469 L 47.359714,9.0460855 V 9.0458516 H 44.197803 V 13.052933 L 40.190722,9.0458516 H 37.057793 V 10.896533 L 35.207112,9.0458516 H 32.176324 V 12.980009 L 28.242167,9.0458516 H 25.240361 V 10.867316 L 23.418897,9.0458516 Z" /><path
     style="fill:#f9f9f9;stroke-width:0.0727587"
     d="m 20.248104,26.953575 c -0.01455,0.112221 -0.02478,0.225825 -0.02478,0.341948 v 13.253239 c 0,1.461647 1.189178,2.650744 2.650742,2.650744 h 21.984957 c 1.461581,0 2.650747,-1.189097 2.650747,-2.650744 V 27.295523 c 0,-0.116123 -0.01022,-0.229727 -0.02479,-0.341948 z"
     id="path16" /><path
     id="path5"
     style="fill:#f44336;fill-opacity:1;stroke-width:0.0727587"
     d="m 22.874071,24.645014 c -1.345455,0 -2.457352,1.008262 -2.625966,2.30856 h 27.236891 c -0.168612,-1.300298 -1.280507,-2.30856 -2.62597,-2.30856 z" /><path
     style="fill:#798388;fill-opacity:1;stroke-width:0.0727587"
     d="m 22.518604,37.614589 h 6.608974 c 0.369208,0 0.66847,0.299269 0.66847,0.66847 0,0.369112 -0.29936,0.668237 -0.66847,0.668237 h -6.608974 c -0.369027,0 -0.668236,-0.299036 -0.668236,-0.668237 0,-0.369201 0.299209,-0.66847 0.668236,-0.66847 z"
     id="path29" /><path
     style="fill:#798388;fill-opacity:1;stroke-width:0.0727587"
     d="m 22.518604,35.236845 h 11.415648 c 0.369113,0 0.668237,0.299034 0.668237,0.668237 0,0.3692 -0.29903,0.66847 -0.668237,0.66847 H 22.518604 c -0.369026,0 -0.668236,-0.29927 -0.668236,-0.66847 0,-0.369203 0.29921,-0.668237 0.668236,-0.668237 z"
     id="path28" /><path
     style="fill:#798388;fill-opacity:1;stroke-width:0.0727587"
     d="m 28.799653,30.507301 h 0.66029 v 2.254802 h -0.66029 z"
     id="path24" /><path
     style="fill:#798388;fill-opacity:1;stroke-width:0.0727587"
     d="m 26.708931,30.507301 h 0.633176 v 1.68333 h 1.170057 v 0.571472 h -1.803233 z"
     id="path23" /><path
     id="path22"
     style="fill:#798388;fill-opacity:1;stroke-width:0.0727587"
     d="m 33.405086,30.442324 c -0.164238,0 -0.319368,0.03173 -0.465358,0.0956 -0.145991,0.06159 -0.273594,0.147143 -0.383085,0.256636 -0.10721,0.107209 -0.192764,0.233823 -0.256637,0.379813 -0.06159,0.143706 -0.09232,0.297847 -0.09232,0.462086 0,0.164236 0.03074,0.319368 0.09232,0.465358 0.06387,0.145987 0.149427,0.272601 0.256637,0.379813 0.109491,0.107209 0.237094,0.192532 0.383085,0.256402 0.14599,0.06159 0.30112,0.09256 0.465358,0.09256 0.164238,0 0.319368,-0.03097 0.465358,-0.09256 0.145988,-0.06387 0.2726,-0.149193 0.379813,-0.256402 0.109488,-0.107212 0.195046,-0.233826 0.256636,-0.379813 0.06387,-0.14599 0.09583,-0.301122 0.09583,-0.465358 0,-0.164239 -0.03196,-0.319369 -0.09583,-0.465358 -0.06159,-0.145991 -0.147148,-0.272601 -0.256636,-0.379813 -0.107213,-0.107212 -0.233825,-0.191775 -0.379813,-0.253364 -0.14599,-0.06387 -0.30112,-0.0956 -0.465358,-0.0956 z m 0,0.619153 c 0.07756,0 0.149584,0.01598 0.215733,0.04791 0.06844,0.02965 0.12646,0.07071 0.174364,0.123176 0.05019,0.05246 0.08903,0.114167 0.116398,0.184881 0.02737,0.06843 0.04114,0.141448 0.04114,0.219006 0,0.07756 -0.01377,0.151564 -0.04114,0.222278 -0.02737,0.06843 -0.06622,0.130135 -0.116398,0.184881 -0.0479,0.05247 -0.105929,0.09451 -0.174364,0.126448 -0.06615,0.02965 -0.138177,0.04464 -0.215733,0.04464 -0.07756,0 -0.150572,-0.01498 -0.219006,-0.04464 -0.06615,-0.03194 -0.124183,-0.07398 -0.174363,-0.126448 -0.0479,-0.05475 -0.08674,-0.116451 -0.116398,-0.184881 -0.02737,-0.07071 -0.04114,-0.144721 -0.04114,-0.222278 0,-0.07756 0.01377,-0.150575 0.04114,-0.219006 0.02966,-0.07071 0.06849,-0.132416 0.116398,-0.184881 0.05018,-0.05246 0.108211,-0.09352 0.174363,-0.123176 0.06843,-0.03194 0.14145,-0.04791 0.219006,-0.04791 z" /><path
     id="path21"
     style="fill:#798388;fill-opacity:1;stroke-width:0.0727587"
     d="m 25.302806,30.442324 c -0.164238,0 -0.319368,0.03173 -0.465358,0.0956 -0.14599,0.06159 -0.273827,0.147143 -0.383319,0.256636 -0.107209,0.107209 -0.192765,0.233823 -0.256636,0.379813 -0.06159,0.143706 -0.09232,0.297847 -0.09232,0.462086 0,0.164236 0.03073,0.319368 0.09232,0.465358 0.06387,0.145987 0.149427,0.272601 0.256636,0.379813 0.109492,0.107209 0.237329,0.192532 0.383319,0.256402 0.14599,0.06159 0.30112,0.09256 0.465358,0.09256 0.164237,0 0.31937,-0.03097 0.465358,-0.09256 0.14599,-0.06387 0.272368,-0.149193 0.379579,-0.256402 0.10949,-0.107212 0.195047,-0.233826 0.256636,-0.379813 0.06387,-0.14599 0.09583,-0.301122 0.09583,-0.465358 0,-0.164239 -0.03196,-0.319369 -0.09583,-0.465358 -0.06159,-0.145991 -0.147146,-0.272601 -0.256636,-0.379813 -0.107211,-0.107212 -0.233589,-0.191775 -0.379579,-0.253364 -0.145988,-0.06387 -0.301121,-0.0956 -0.465358,-0.0956 z m 0,0.619153 c 0.07756,0 0.149348,0.01598 0.2155,0.04791 0.06843,0.02965 0.12646,0.07071 0.174363,0.123176 0.05018,0.05246 0.08903,0.114167 0.116398,0.184881 0.02737,0.06843 0.04114,0.141448 0.04114,0.219006 0,0.07756 -0.01376,0.151564 -0.04114,0.222278 -0.02737,0.06843 -0.06622,0.130135 -0.116398,0.184881 -0.0479,0.05247 -0.10593,0.09451 -0.174363,0.126448 -0.06615,0.02965 -0.137945,0.04464 -0.2155,0.04464 -0.07756,0 -0.150573,-0.01498 -0.219006,-0.04464 -0.06615,-0.03194 -0.124415,-0.07398 -0.174597,-0.126448 -0.0479,-0.05475 -0.08675,-0.116451 -0.116398,-0.184881 -0.02737,-0.07071 -0.0409,-0.144721 -0.0409,-0.222278 0,-0.07756 0.01353,-0.150575 0.0409,-0.219006 0.02965,-0.07071 0.06849,-0.132416 0.116398,-0.184881 0.05018,-0.05246 0.108448,-0.09352 0.174597,-0.123176 0.06843,-0.03194 0.141449,-0.04791 0.219006,-0.04791 z" /><path
     style="fill:#798388;fill-opacity:1;stroke-width:0.0727587"
     d="m 29.771272,30.10692 h 2.275604 v 0.609103 l -0.04791,0.04791 H 31.26996 v 1.998165 h -0.721761 v -1.998165 h -0.729007 l -0.04791,-0.04791 z"
     id="path20" /><path
     id="path19"
     style="fill:#798388;fill-opacity:1;stroke-width:0.0727587"
     d="m 21.850368,30.10692 v 2.655183 h 0.71171 V 31.9375 h 0.48242 c 0.12774,0 0.249687,-0.02408 0.366023,-0.07199 0.118614,-0.05018 0.222367,-0.117309 0.311329,-0.20171 0.09124,-0.08668 0.163268,-0.187224 0.215734,-0.301279 0.05475,-0.114055 0.08204,-0.237227 0.08204,-0.369528 0,-0.130023 -0.02729,-0.249753 -0.08204,-0.359245 -0.05247,-0.109492 -0.12449,-0.202922 -0.215734,-0.280476 -0.08896,-0.07756 -0.192715,-0.138037 -0.311329,-0.181376 -0.116336,-0.04334 -0.238283,-0.06498 -0.366023,-0.06498 z m 0.728772,0.588535 h 0.413938 c 0.04106,0 0.0799,0.0079 0.116397,0.02384 0.0365,0.01369 0.06846,0.03433 0.09583,0.0617 0.02737,0.02509 0.04901,0.0546 0.06498,0.08882 0.01597,0.03422 0.02384,0.07207 0.02384,0.113125 0,0.04106 -0.0079,0.07868 -0.02384,0.112892 -0.01597,0.03422 -0.0376,0.06495 -0.06498,0.09232 -0.02737,0.02509 -0.05933,0.0455 -0.09583,0.06147 -0.03649,0.01369 -0.07534,0.02057 -0.116397,0.02057 H 22.57914 Z" /><path
     id="path1"
     style="fill:#5c6bc0;stroke-width:0.496961"
     d="m 40.918092,30.051244 c -1.646786,0 -2.981704,1.335151 -2.981704,2.981938 0,1.646781 1.334918,2.981704 2.981704,2.981704 1.646786,0 2.981703,-1.334923 2.981703,-2.981704 0,-1.646787 -1.334917,-2.981938 -2.981703,-2.981938 z m 0,6.957466 c -1.379913,0 -2.456991,0.109999 -3.264519,0.448529 -0.864588,0.362435 -1.394277,0.976891 -1.676785,1.870081 -0.104417,0.330131 0.142903,0.663328 0.485693,0.663328 h 8.90795 c 0.344194,0 0.593287,-0.33463 0.488033,-0.6666 -0.283368,-0.89324 -0.814986,-1.507422 -1.680995,-1.868912 -0.806816,-0.336791 -1.882292,-0.446426 -3.259377,-0.446426 z" /><path
     style="font-size:40px;line-height:1.25;font-family:PRIMETIME;-inkscape-font-specification:'PRIMETIME, Normal';letter-spacing:0px;word-spacing:0px;white-space:pre;fill:#ffd500;stroke-width:0.344319"
     d="m 47.88042,58.454268 -3.704867,-5.701915 v 5.701915 H 41.324595 V 47.780394 h 2.837185 l 3.71864,5.757005 v -5.757005 h 2.86473 v 10.673874 z"
     id="path4" /><path
     id="path2"
     style="font-size:40px;line-height:1.25;font-family:PRIMETIME;-inkscape-font-specification:'PRIMETIME, Normal';letter-spacing:0px;word-spacing:0px;white-space:pre;fill:#ffd500;stroke-width:0.344319"
     d="m 34.548458,47.49107 c -0.789636,0 -1.528767,0.151607 -2.217404,0.454607 -0.688637,0.293817 -1.29022,0.697713 -1.804401,1.211894 -0.514181,0.505002 -0.922684,1.101978 -1.225685,1.790612 -0.29382,0.688637 -0.440817,1.423161 -0.440817,2.203614 0,0.780457 0.146997,1.514981 0.440817,2.203618 0.303001,0.688634 0.711504,1.289986 1.225685,1.804167 0.514181,0.504998 1.115764,0.904518 1.804401,1.198339 0.688637,0.293817 1.427768,0.440583 2.217404,0.440583 0.780457,0 1.514978,-0.146766 2.203615,-0.440583 0.69782,-0.293821 1.303776,-0.693341 1.81796,-1.198339 0.514181,-0.514181 0.918074,-1.115533 1.211895,-1.804167 0.303,-0.688637 0.454603,-1.423161 0.454603,-2.203618 0,-0.780453 -0.151603,-1.514977 -0.454603,-2.203614 -0.293821,-0.688634 -0.697714,-1.28561 -1.211895,-1.790612 -0.514184,-0.514181 -1.12014,-0.918077 -1.81796,-1.211894 -0.688637,-0.303 -1.423158,-0.454607 -2.203615,-0.454607 z m 0,2.727171 c 0.404,0 0.77587,0.08248 1.115599,0.247758 0.348909,0.15609 0.647278,0.367371 0.895187,0.633642 0.247909,0.266272 0.440759,0.578469 0.578486,0.936561 0.146907,0.348908 0.220409,0.720779 0.220409,1.115595 0,0.385637 -0.0735,0.757508 -0.220409,1.115599 -0.137727,0.358091 -0.330577,0.670288 -0.578486,0.93656 -0.247909,0.266272 -0.546278,0.481929 -0.895187,0.647202 -0.339729,0.15609 -0.711599,0.234195 -1.115599,0.234195 -0.403999,0 -0.780477,-0.07811 -1.129385,-0.234195 -0.339729,-0.165273 -0.633491,-0.38093 -0.8814,-0.647202 -0.24791,-0.266272 -0.445366,-0.578469 -0.592273,-0.93656 -0.137727,-0.358091 -0.206619,-0.729962 -0.206619,-1.115599 0,-0.394816 0.06889,-0.766687 0.206619,-1.115595 0.146907,-0.358092 0.344363,-0.670289 0.592273,-0.936561 0.247909,-0.266271 0.541671,-0.477552 0.8814,-0.633642 0.348908,-0.165273 0.725386,-0.247758 1.129385,-0.247758 z" /><path
     style="font-size:40px;line-height:1.25;font-family:PRIMETIME;-inkscape-font-specification:'PRIMETIME, Normal';letter-spacing:0px;word-spacing:0px;white-space:pre;fill:#ffd500;stroke-width:0.344319"
     d="m 24.976359,58.468041 v -5.495324 l -2.286275,3.773731 q -0.04132,0.08264 -0.137728,0.110182 -0.09641,0.02754 -0.165273,0.02754 -0.08264,0 -0.179045,-0.02754 -0.09641,-0.02755 -0.137728,-0.110182 l -2.286275,-3.773731 v 5.495324 H 16.988169 V 47.780394 h 2.616821 q 0.137727,0 0.234136,0.123954 l 2.534185,4.228232 2.547957,-4.228232 q 0.09641,-0.123954 0.220364,-0.123954 h 2.630593 v 10.687647 z"
     id="text1040" /><path
     d="M 20.373517,20.353355 V 9.0459364 h 3.045427 V 20.353355 Z m 11.802856,-0.01457 -3.919711,-6.032566 v 6.032566 H 25.240378 V 9.0459364 h 3.001712 l 3.934283,6.0908526 V 9.0459364 h 3.030855 V 20.338784 Z m 12.021431,0.01457 v -4.269424 h -4.00714 v 4.269424 H 37.057809 V 9.0459364 h 3.132855 v 4.3131396 h 4.00714 V 9.0459364 h 3.161997 V 20.353355 Z"
     id="text3057"
     style="font-size:40px;line-height:1.25;font-family:PRIMETIME;-inkscape-font-specification:'PRIMETIME, Normal';letter-spacing:0px;word-spacing:0px;white-space:pre;fill:#ffd500;stroke-width:0.364285"
     aria-label="INH" /></svg>
