<?xml version="1.0" encoding="UTF-8" standalone="no"?>
<!-- Created with Inkscape (http://www.inkscape.org/) -->

<svg
   width="149.75414mm"
   height="149.75417mm"
   viewBox="0 0 149.75413 149.75416"
   version="1.1"
   id="svg1"
   xml:space="preserve"
   sodipodi:docname="template-matricole-a.svg"
   xmlns:inkscape="http://www.inkscape.org/namespaces/inkscape"
   xmlns:sodipodi="http://sodipodi.sourceforge.net/DTD/sodipodi-0.dtd"
   xmlns="http://www.w3.org/2000/svg"
   xmlns:svg="http://www.w3.org/2000/svg"><sodipodi:namedview
     id="namedview1"
     pagecolor="#ffffff"
     bordercolor="#999999"
     borderopacity="1"
     inkscape:showpageshadow="2"
     inkscape:pageopacity="0"
     inkscape:pagecheckerboard="0"
     inkscape:deskcolor="#d1d1d1"
     inkscape:document-units="mm"
     inkscape:zoom="0.9707102"
     inkscape:cx="334.80641"
     inkscape:cy="387.86035"
     inkscape:window-width="1920"
     inkscape:window-height="991"
     inkscape:window-x="-9"
     inkscape:window-y="-9"
     inkscape:window-maximized="1"
     inkscape:current-layer="svg1" /><defs
     id="defs1"><rect
       x="128.7717"
       y="414.12979"
       width="302.87103"
       height="109.1984"
       id="rect1040" /><rect
       x="124.651"
       y="63.870762"
       width="290.50894"
       height="105.07771"
       id="rect3058" /></defs><path
     id="rect1-3"
     style="fill:#e87d7d;fill-opacity:1;stroke-width:0.295148"
     d="M 0,0 H 149.75414 V 149.75416 H 0 Z"
     inkscape:export-filename="..\b\B4.png"
     inkscape:export-xdpi="347.36404"
     inkscape:export-ydpi="347.36404" /><path
     id="path6086"
     style="font-size:40px;line-height:1.25;font-family:PRIMETIME;-inkscape-font-specification:'PRIMETIME, Normal';letter-spacing:0px;word-spacing:0px;white-space:pre;fill:#000000;fill-opacity:0.31;stroke-width:0.761267"
     d="m 45.044796,19.999813 v 25.000024 h 5.16e-4 0.21084 v 0.262 h 5.17e-4 0.211357 v 0.262516 h 5.16e-4 0.211357 v 0.262 h 0.211357 v 0.262516 h 5.16e-4 0.211357 v 0.261999 h 0.211357 v 0.262517 h 5.16e-4 0.211357 v 0.261999 h 0.211357 v 0.262 h 5.16e-4 0.211357 V 47.3599 h 0.211357 v 0.261999 h 5.16e-4 0.211357 v 0.262517 h 5.17e-4 0.21084 v 0.261999 h 5.16e-4 0.211357 v 0.262516 h 0.211873 v 0.262 h 0.211357 v 0.262516 h 5.17e-4 0.211356 v 0.262 h 0.211357 v 0.261999 h 5.17e-4 0.211356 v 0.262517 h 0.211357 v 0.261999 h 5.17e-4 0.211356 v 0.262516 h 0.211357 v 0.262 h 5.17e-4 0.211356 v 0.262516 h 0.211357 v 0.262 h 5.17e-4 0.211356 v 0.262516 h 0.211357 v 0.261999 h 5.17e-4 0.211356 v 0.262517 h 5.17e-4 0.21084 v 0.261999 h 5.17e-4 0.211356 v 0.262 h 5.17e-4 0.211357 v 0.262516 h 0.211356 v 0.262 h 5.17e-4 0.211357 v 0.262516 h 0.211356 v 0.261999 h 5.17e-4 0.211357 v 0.262517 h 0.211356 v 0.261999 h 5.17e-4 0.211357 v 0.262 h 0.211356 v 0.262516 h 5.17e-4 0.211357 v 0.261999 h 0.211356 v 0.262517 h 5.17e-4 0.211357 v 0.261999 h 0.211356 v 0.262516 h 5.17e-4 0.211356 v 0.262 h 5.17e-4 0.21084 v 0.262516 h 5.17e-4 0.211356 v 0.262 h 5.17e-4 0.211357 v 0.262516 h 0.211356 v 0.262 h 5.17e-4 0.211357 v 0.261999 h 0.211356 v 0.262516 h 5.17e-4 0.211357 v 0.262 h 0.211356 v 0.262516 h 5.17e-4 0.211357 v 0.262 h 0.211356 v 0.262516 h 5.17e-4 0.211357 v 0.261999 h 0.211356 v 0.262517 h 5.17e-4 0.211357 v 0.261999 h 5.17e-4 0.211356 v 0.262 h 0.211357 v 0.262516 h 5.16e-4 0.211357 v 0.262 h 0.211357 v 0.262516 h 5.16e-4 0.211357 v 0.261999 h 0.211357 v 0.262517 h 5.16e-4 0.211357 v 0.261999 h 0.211357 v 0.262516 h 5.16e-4 0.211357 v 0.262 h 0.211357 v 0.261999 h 5.16e-4 0.211357 v 0.262517 h 0.211357 v 0.261999 h 5.16e-4 0.211357 v 0.262516 h 0.211357 v 0.262 h 5.16e-4 0.211357 v 0.262516 h 5.17e-4 0.211356 v 0.262 h 0.211357 v 0.262516 h 5.17e-4 0.211356 v 0.262 h 0.211357 v 0.262516 h 5.17e-4 0.211356 v 0.261999 h 0.211357 v 0.262 h 5.17e-4 0.211356 v 0.262516 h 0.211357 v 0.262 h 5.17e-4 0.211356 v 0.262516 h 0.211357 v 0.261999 h 5.17e-4 0.211356 v 0.262517 h 0.211357 v 0.261999 h 5.17e-4 0.211356 v 0.262516 h 0.211874 v 0.262 h 0.211356 v 0.262 h 5.17e-4 0.211357 v 0.262516 h 0.211356 v 0.261999 h 5.17e-4 0.211357 v 0.262517 h 0.211356 v 0.261999 h 5.17e-4 0.211357 v 0.262516 h 0.211356 v 0.262 h 5.17e-4 0.211357 v 0.261999 h 0.211356 v 0.262517 h 5.17e-4 0.211357 v 0.261999 h 0.211356 v 0.262516 h 5.17e-4 0.211356 v 0.262 h 0.211357 v 0.262516 h 5.17e-4 0.211356 v 0.262 h 0.211874 v 0.262516 h 0.211356 v 0.262 h 5.17e-4 0.211357 v 0.262516 h 0.211356 v 0.261999 h 5.17e-4 0.211357 v 0.262 h 0.211356 v 0.262516 h 5.17e-4 0.211357 v 0.262 h 0.211356 v 0.262516 h 5.17e-4 0.211357 v 0.261999 h 0.211356 v 0.262517 h 5.17e-4 0.211357 v 0.261999 h 0.211873 v 0.262516 h 0.211357 v 0.262 h 0.211356 v 0.261999 h 5.17e-4 0.211357 v 0.262517 h 0.211873 v 0.261999 h 0.211357 v 0.262517 h 5.16e-4 0.211357 v 0.261999 h 0.211357 v 0.262516 h 5.16e-4 0.211357 v 0.262 h 0.211357 v 0.261999 h 5.16e-4 0.211357 v 0.262517 h 0.211357 v 0.261999 h 5.16e-4 0.211357 v 0.262516 h 0.211357 v 0.262 h 5.16e-4 0.211357 v 0.262516 h 0.211873 v 0.262 h 0.211357 v 0.262516 h 0.211357 v 0.262 h 5.16e-4 0.211357 v 0.262516 h 5.17e-4 0.211356 v 0.261999 h 0.211357 v 0.262517 h 5.17e-4 0.211356 v 0.261999 h 0.211357 v 0.262 h 5.17e-4 0.211356 v 0.262516 h 0.211357 v 0.261999 h 5.17e-4 0.211356 v 0.262517 h 0.211357 v 0.261999 h 5.17e-4 0.211356 v 0.262516 h 0.211357 v 0.262 h 5.17e-4 0.211356 v 0.261999 h 0.211874 v 0.262517 h 0.211356 v 0.261999 h 0.211874 v 0.262517 h 0.211356 v 0.261999 h 5.17e-4 0.211357 v 0.262516 h 0.211356 v 0.262 h 5.17e-4 0.211357 v 0.262516 h 0.211356 v 0.262 h 5.17e-4 0.211357 v 0.261999 h 0.211356 v 0.262516 h 5.17e-4 0.211356 v 0.262 h 0.211874 v 0.262516 h 0.211356 v 0.262 h 0.211357 v 0.262516 h 5.17e-4 0.211356 v 0.262 h 5.17e-4 0.211357 v 0.262516 h 0.211356 v 0.261999 h 0.211874 v 0.262517 h 0.211356 v 0.261999 h 5.17e-4 0.211357 v 0.262 h 0.211356 v 0.262516 h 5.17e-4 0.211357 v 0.261999 h 0.211356 v 0.262517 h 5.17e-4 0.211357 v 0.261999 h 0.211356 v 0.262516 h 5.17e-4 0.211357 v 0.262 h 0.211873 v 0.261999 h 0.211357 v 0.262517 h 0.211873 v 0.261999 h 0.211357 v 0.262517 h 5.16e-4 0.211357 v 0.261999 h 0.211357 v 0.262516 h 0.211873 v 0.262 h 0.211357 v 0.262516 h 5.16e-4 0.211357 v 0.262 h 0.211357 v 0.261999 h 5.16e-4 0.211357 v 0.262516 h 0.211357 v 0.262 h 5.16e-4 0.211357 v 0.262516 h 0.211357 v 0.262 h 5.16e-4 0.211357 v 0.262516 h 0.211873 v 0.261999 h 0.211357 v 0.262517 h 0.211873 v 0.261999 h 0.211357 v 0.262517 h 5.17e-4 0.211356 v 0.261999 h 0.211357 v 0.262 h 5.17e-4 0.211356 v 0.262516 h 0.211357 v 0.261999 h 5.17e-4 0.211356 v 0.262517 h 0.211357 v 0.261999 h 5.17e-4 0.211356 v 0.262516 h 0.211357 v 0.262 h 5.17e-4 0.211356 v 0.262516 h 0.211357 v 0.262 h 5.17e-4 0.211356 v 0.261999 h 0.211874 v 0.262517 h 0.211356 V 96.3967 h 0.211874 v 0.262516 h 0.211356 v 0.262 h 5.17e-4 0.211357 v 0.262516 h 0.211356 v 0.262 h 5.17e-4 0.211357 v 0.262516 h 0.211356 v 0.261999 h 5.17e-4 0.211356 v 0.262 h 0.211357 v 0.262516 h 5.17e-4 0.211356 v 0.262 h 0.211357 v 0.262516 h 5.17e-4 0.211356 v 0.261999 h 0.211874 v 0.262517 h 0.211356 v 0.261999 h 0.211874 v 0.261996 h 0.211356 v 0.262 h 5.17e-4 0.211357 v 0.26304 h 0.211356 v 0.262 h 0.211874 v 0.262 h 0.211356 v 0.26199 h 5.17e-4 0.211357 v 0.262 h 0.211356 v 0.26304 h 5.17e-4 0.211357 v 0.262 h 0.211356 v 0.262 h 5.17e-4 0.211357 v 0.262 h 0.211356 v 0.26303 h 5.17e-4 0.211357 v 0.262 h 0.211873 v 0.262 h 0.211357 v 0.262 h 0.211873 v 0.26303 h 0.211357 v 0.262 h 5.16e-4 0.211357 v 0.262 h 0.211357 v 0.262 h 0.211873 v 0.262 h 0.211357 v 0.26303 h 5.16e-4 0.211357 v 0.262 h 0.211357 v 0.0651 h -2.777609 v 10.47533 c -0.03605,-0.0437 -0.0744,-0.0855 -0.111104,-0.12867 -0.06832,-0.0853 -0.134922,-0.17201 -0.205672,-0.25528 -0.071,-0.0888 -0.140312,-0.17901 -0.213941,-0.26562 -0.06923,-0.0864 -0.137055,-0.17401 -0.208772,-0.25838 -0.07083,-0.0885 -0.139994,-0.17827 -0.213424,-0.26459 -0.06781,-0.0846 -0.13394,-0.17058 -0.204122,-0.25321 -0.07058,-0.0882 -0.139242,-0.17799 -0.21239,-0.26407 -0.0703,-0.0878 -0.139026,-0.17683 -0.211873,-0.26251 -0.06901,-0.0861 -0.136286,-0.17376 -0.20774,-0.25787 -0.07046,-0.088 -0.139389,-0.17719 -0.21239,-0.26303 -0.06909,-0.0862 -0.136722,-0.17365 -0.208256,-0.25787 -0.06961,-0.0869 -0.137204,-0.17557 -0.209289,-0.26045 -0.07062,-0.0881 -0.13975,-0.1775 -0.212907,-0.26355 -0.0689,-0.0859 -0.135918,-0.17341 -0.207223,-0.25734 -0.06985,-0.0872 -0.137995,-0.17586 -0.210323,-0.26097 -0.07046,-0.0879 -0.139422,-0.17717 -0.21239,-0.26303 -0.06966,-0.0869 -0.137695,-0.17508 -0.209806,-0.25994 -0.06905,-0.0861 -0.13629,-0.17375 -0.20774,-0.25786 -0.06934,-0.0865 -0.13701,-0.17439 -0.208772,-0.2589 -0.07093,-0.0885 -0.139974,-0.17864 -0.213424,-0.2651 -0.06921,-0.0863 -0.136656,-0.17408 -0.208256,-0.25838 -0.07034,-0.0877 -0.139064,-0.17684 -0.211873,-0.26252 -0.06908,-0.0861 -0.136285,-0.17374 -0.20774,-0.25786 -0.07063,-0.0881 -0.139793,-0.17749 -0.212907,-0.26355 -0.06898,-0.086 -0.136396,-0.17332 -0.207739,-0.25735 -0.294299,-0.36697 -0.602795,-0.7223 -0.939994,-1.05368 l -10e-4,-0.001 c -1.136699,-1.136 -2.475861,-2.02787 -4.018359,-2.67787 h -0.001 c -1.522198,-0.67 -3.145922,-1.00511 -4.87102,-1.00511 h -10e-4 c -1.745398,0 -3.379311,0.33511 -4.901509,1.00511 h -0.001 c -1.521998,0.65 -2.851888,1.54191 -3.988387,2.67891 l -10e-4,10e-4 c -0.71484,0.70263 -1.326062,1.49473 -1.856218,2.35748 v -0.1571 h -0.211873 v -0.26303 H 65.21204 v -0.262 h -0.209289 -0.0026 v -0.262 h -0.197404 -0.01395 v -0.262 h -0.186035 -0.02584 v -0.26303 h -0.17415 -0.03772 v -0.262 h -0.162264 -0.04909 v -0.262 h -0.150895 -0.06046 v -0.262 h -0.139526 -0.07235 v -0.262 h -0.127641 -0.08423 v -0.26303 h -0.115756 -0.0956 v -0.262 h -0.104386 -0.107487 v -0.262 h -0.0925 -0.118856 v -0.262 h -0.08113 -0.130741 v -0.26304 h -0.06925 -0.14211 v -0.262 h -0.05839 -0.153479 v -0.26199 h -0.04651 -0.164848 v -0.262 h -0.03514 -0.176733 v -0.26304 h -0.02326 -0.188102 v -0.262 h -0.01189 -0.199987 v -0.262 h -5.815666 c -0.1827,0 -0.345209,0.0909 -0.487309,0.27286 h -5.17e-4 l -4.812626,7.99176 -0.07441,-0.12454 c -0.0085,-0.011 -0.01891,-0.016 -0.03101,-0.016 -0.02115,-0.0272 -0.0477,-0.0381 -0.07028,-0.061 l -0.110587,-0.185 c -0.0082,-0.011 -0.01776,-0.016 -0.02946,-0.016 -0.02114,-0.0271 -0.04772,-0.0382 -0.07028,-0.061 l -0.111621,-0.18604 c -0.0079,-0.01 -0.01764,-0.015 -0.02894,-0.015 -0.02166,-0.0277 -0.04868,-0.0393 -0.07183,-0.0625 l -0.110587,-0.18449 c -0.0077,-0.01 -0.01701,-0.015 -0.02791,-0.015 -0.02248,-0.0288 -0.05084,-0.0407 -0.07493,-0.0646 l -0.109038,-0.18242 c -0.0073,-0.01 -0.01637,-0.0139 -0.02687,-0.0139 -0.02283,-0.0293 -0.05147,-0.0413 -0.07596,-0.0656 l -0.109037,-0.18242 c -0.0071,-0.009 -0.01574,-0.0139 -0.02584,-0.0139 -0.02269,-0.029 -0.05113,-0.041 -0.07545,-0.0651 l -0.110071,-0.18397 c -0.0068,-0.008 -0.0151,-0.0129 -0.0248,-0.0129 -0.02368,-0.0303 -0.0531,-0.0432 -0.07855,-0.0682 l -0.10852,-0.18087 c -0.0065,-0.008 -0.01447,-0.0119 -0.02377,-0.0119 -0.02364,-0.0303 -0.05314,-0.0432 -0.07855,-0.0682 l -0.109038,-0.1819 c -0.0062,-0.008 -0.01384,-0.0119 -0.02274,-0.0119 -0.02458,-0.0315 -0.05517,-0.045 -0.08165,-0.0708 l -0.107487,-0.17932 c -0.006,-0.008 -0.0132,-0.0119 -0.0217,-0.0119 -0.02495,-0.0319 -0.05577,-0.0458 -0.08268,-0.0718 l -0.106971,-0.17829 c -0.0056,-0.008 -0.01257,-0.0108 -0.02067,-0.0108 -0.02514,-0.0322 -0.0566,-0.0461 -0.08372,-0.0724 l -0.107487,-0.17983 c -0.0054,-0.007 -0.01194,-0.01 -0.01964,-0.01 -0.02557,-0.0327 -0.05713,-0.0473 -0.08475,-0.0739 l -0.106971,-0.17828 c -0.0051,-0.006 -0.0113,-0.01 -0.0186,-0.01 -0.02641,-0.0337 -0.05927,-0.0487 -0.08785,-0.076 l -0.10542,-0.17622 c -0.0048,-0.006 -0.01067,-0.009 -0.01757,-0.009 -0.02648,-0.0339 -0.05919,-0.0491 -0.08785,-0.0765 l -0.105937,-0.17673 c -0.0045,-0.006 -0.01004,-0.009 -0.01654,-0.009 -0.02689,-0.0344 -0.06027,-0.0499 -0.0894,-0.0775 l -0.105937,-0.17673 c -0.0043,-0.005 -0.0094,-0.008 -0.0155,-0.008 -0.02765,-0.0353 -0.06195,-0.0513 -0.09198,-0.0796 l -0.104386,-0.17467 c -0.0039,-0.005 -0.0083,-0.007 -0.01395,-0.007 -0.02789,-0.0357 -0.06271,-0.0515 -0.09302,-0.0801 l -0.104386,-0.17467 c -0.0037,-0.005 -0.0081,-0.007 -0.01344,-0.007 -0.02829,-0.0361 -0.06329,-0.0523 -0.09405,-0.0811 l -0.10387,-0.17363 c -0.0034,-0.005 -0.0075,-0.007 -0.0124,-0.007 -0.02923,-0.0373 -0.06529,-0.0543 -0.09715,-0.0837 l -0.102319,-0.17105 c -0.0032,-0.004 -0.007,-0.006 -0.01137,-0.006 -0.0291,-0.0372 -0.06493,-0.0543 -0.09663,-0.0837 L 45.979094,108.535 c -0.0028,-0.003 -0.0063,-0.005 -0.01034,-0.005 -0.02968,-0.0381 -0.06581,-0.0558 -0.09819,-0.0858 l -0.102836,-0.17105 c -0.0026,-0.003 -0.0057,-0.005 -0.0093,-0.005 -0.03048,-0.0391 -0.06794,-0.0573 -0.101286,-0.0879 l -0.101285,-0.16898 c -0.0023,-0.003 -0.0051,-0.005 -0.0083,-0.005 -0.0308,-0.0394 -0.06861,-0.0577 -0.102319,-0.0884 l -0.100769,-0.16846 c -0.002,-0.003 -0.0044,-0.004 -0.0072,-0.004 -0.03097,-0.0397 -0.06894,-0.0585 -0.102836,-0.0894 l -0.101802,-0.16949 c -0.0017,-0.002 -0.0038,-0.003 -0.0062,-0.003 -0.0315,-0.0404 -0.06987,-0.0597 -0.104386,-0.091 l -0.100769,-0.16794 c -0.0015,-0.002 -0.0032,-0.003 -0.0052,-0.003 -0.03216,-0.0411 -0.07167,-0.0608 -0.10697,-0.0925 l -0.09974,-0.16639 c -0.0011,-0.002 -0.0025,-0.002 -0.0041,-0.002 -0.03227,-0.0414 -0.07155,-0.0611 -0.106971,-0.093 l -0.100252,-0.16691 c -9e-4,-10e-4 -0.0019,-0.002 -0.0031,-0.002 -0.03278,-0.042 -0.07299,-0.0618 -0.109037,-0.094 l -0.09974,-0.16692 -0.0021,-0.001 c -0.03311,-0.0423 -0.07365,-0.0626 -0.110071,-0.0951 l -0.09922,-0.16589 h -0.001 c -0.03381,-0.0434 -0.07488,-0.0646 -0.112138,-0.0977 l -0.0987,-0.16433 c -0.1422,-0.182 -0.314798,-0.27286 -0.517798,-0.27286 l -5.785177,0.001 v 10e-4 23.62698 h 0.001 0.21084 v 0.262 h 0.01344 0.19792 v 0.262 h 0.02584 0.186036 v 0.26303 h 0.03772 0.173633 v 0.262 h 0.05064 0.161231 v 0.262 h 0.06253 0.148828 v 0.262 h 0.07545 0.136426 v 0.26304 h 0.08733 0.124023 v 0.262 h 0.100252 0.111622 v 0.26199 h 0.112137 0.09922 v 0.262 h 0.12454 0.08733 v 0.26304 h 0.136942 0.07441 v 0.262 h 0.149345 0.06253 v 0.262 h 0.16123 0.05064 v 0.262 h 0.173633 0.03772 v 0.262 h 0.186035 0.02584 v 0.26303 h 0.198437 0.01292 v 0.262 h 0.21084 0.001 v 0.262 h 0.211356 v 0.262 h 0.211874 v 0.26251 h 0.211356 v 0.262 h 0.211874 v 0.262 h 0.211356 v 0.262 h 0.211874 v 0.26303 h 0.211356 v 0.262 h 0.211874 v 0.262 h 0.211356 v 0.262 h 0.211874 v 0.262 h 0.211873 v 0.26304 h 0.211357 v 0.262 h 0.211873 v 0.26199 h 0.211357 v 0.262 h 0.211873 v 0.26304 h 0.211357 v 0.262 h 0.211873 v 0.262 h 0.211357 v 0.262 h 0.211873 v 0.26303 h 0.211357 v 0.262 h 0.211873 v 0.262 h 0.211357 v 0.262 h 0.211873 v 0.262 h 0.211873 v 0.26303 h 0.211357 v 0.262 h 0.211873 v 0.262 h 0.211357 v 0.262 h 0.211873 v 0.26303 h 0.211357 v 0.262 h 0.211873 v 0.262 h 0.211357 v 0.262 h 0.211873 v 0.26303 h 0.211357 v 0.262 h 0.211873 v 0.262 h 0.211357 v 0.262 h 0.211873 v 0.262 h 0.211357 v 0.26303 h 0.211873 v 0.262 h 0.211874 v 0.262 h 0.211356 v 0.262 h 0.211874 v 0.26304 h 0.211356 v 0.262 h 0.211874 v 0.26199 h 0.211356 v 0.262 h 0.211874 v 0.262 h 0.211356 v 0.26304 h 0.211874 v 0.262 h 0.211356 v 0.262 h 0.211874 v 0.262 h 0.211873 v 0.26303 h 0.211357 v 0.262 h 0.211873 v 0.262 h 0.211356 v 0.262 h 0.211874 v 0.26303 h 0.211356 v 0.262 h 0.211874 v 0.262 h 0.211356 v 0.262 h 0.211874 v 0.262 h 0.211356 v 0.26303 h 0.211874 v 0.262 h 0.211356 v 0.262 h 0.211874 v 0.262 h 0.211356 v 0.26303 h 0.211874 v 0.262 h 0.211873 v 0.262 h 0.211357 v 0.262 h 0.211873 v 0.26303 h 0.211357 v 0.262 h 0.211873 v 0.262 h 0.211357 v 0.262 h 0.211873 v 0.262 h 0.211357 v 0.26304 h 0.211873 v 0.262 h 0.211357 v 0.26199 h 0.211873 v 0.262 h 0.211873 v 0.26252 h 0.211357 v 0.262 h 0.211357 v 0.262 h 0.211873 v 0.262 h 0.211873 v 0.26303 h 0.211357 v 0.262 h 0.211873 v 0.262 h 0.211357 v 0.262 h 0.211873 v 0.262 h 0.211357 v 0.26303 h 0.211873 v 0.262 h 0.211357 v 0.262 h 0.211873 v 0.262 h 0.211357 v 0.26303 h 0.211873 v 0.262 h 0.211874 v 0.262 h 0.211356 v 0.262 h 0.211357 v 0.26304 h 0.211873 v 0.262 h 0.211874 v 0.262 h 0.211356 v 0.26199 h 0.211874 v 0.262 h 0.211356 v 0.26304 h 0.211874 v 0.262 h 0.211356 v 0.262 h 0.211874 v 0.262 h 0.211356 v 0.26303 h 0.211874 v 0.262 h 0.211356 v 0.262 h 0.211874 v 0.262 h 0.211873 v 0.26303 h 0.211357 v 0.262 h 0.211873 v 0.262 h 0.211356 v 0.262 h 0.211874 v 0.262 h 0.211356 v 0.26303 h 0.211874 v 0.262 h 0.211356 v 0.262 h 0.211874 v 0.262 H 65.7071 v 0.26303 h 0.211874 v 0.262 h 0.211356 v 0.262 h 0.211874 v 0.262 h 0.211356 v 0.26303 h 0.211874 v 0.262 h 0.211873 v 0.262 h 0.211357 v 0.262 h 0.211873 v 0.262 h 0.211357 v 0.26304 h 0.211873 v 0.262 h 0.211357 v 0.26199 h 0.211873 v 0.262 h 0.211357 v 0.26304 h 0.211873 v 0.262 h 0.211357 v 0.262 h 0.211873 v 0.262 h 0.211357 v 0.26303 h 0.211873 v 0.262 h 0.211357 v 0.262 h 0.211873 v 0.262 h 0.211873 v 0.262 h 0.211357 v 0.26303 h 0.211873 v 0.262 h 0.211357 v 0.262 h 0.211873 v 0.262 h 0.211357 v 0.26303 h 0.211873 v 0.262 h 0.211357 v 0.262 h 0.211873 v 0.262 h 0.211357 v 0.26252 h 0.211873 v 0.262 h 0.211357 v 0.262 h 0.211873 v 0.26199 h 0.211874 v 0.262 H 73.1144 v 0.26304 h 0.211874 v 0.262 h 0.211356 v 0.262 h 0.211874 v 0.262 h 0.211356 v 0.26303 h 0.211874 v 0.262 h 0.211356 v 0.262 h 0.211874 v 0.262 h 0.211356 v 0.26303 h 0.211874 v 0.262 h 0.211356 v 0.262 h 0.211874 v 0.262 h 0.211873 v 0.262 h 0.211356 v 0.26303 h 0.211874 v 0.262 h 0.211356 v 0.262 h 0.211874 v 0.262 h 0.211356 v 0.26303 h 0.211874 v 0.262 h 0.211356 v 0.262 h 0.211874 v 0.262 h 0.211356 v 0.262 h 0.211874 v 0.26303 h 0.211356 v 0.262 h 0.211874 v 0.262 h 0.211873 v 0.262 h 0.211357 v 0.26304 h 0.211873 v 0.262 h 0.211357 v 0.26199 h 0.211873 v 0.262 h 0.211357 v 0.26304 h 0.211873 v 0.262 h 0.211357 v 0.262 h 0.211873 v 0.262 h 0.211357 v 0.262 H 80.5217 v 0.26303 h 0.211357 v 0.262 h 0.211873 v 0.262 h 0.211357 v 0.262 h 0.211873 v 0.26303 h 0.211873 v 0.262 h 0.211357 v 0.262 h 0.211873 v 0.262 h 0.211357 v 0.26303 h 0.211873 v 0.262 h 0.211357 v 0.262 h 0.211873 v 0.262 h 0.211357 v 0.262 h 0.211873 v 0.26303 h 0.211357 v 0.262 h 0.211873 v 0.262 h 0.211874 v 0.262 h 0.211356 v 0.26303 h 0.211357 v 0.262 h 0.211873 v 0.262 h 0.211874 v 0.262 h 0.211356 v 0.26304 h 0.211874 v 0.262 h 0.211356 v 0.26199 h 0.211874 v 0.262 h 0.211356 v 0.262 h 0.211874 v 0.26304 h 0.211356 v 0.262 h 0.211874 v 0.262 h 0.211356 v 0.262 h 0.211874 v 0.26251 h 0.211873 v 0.26252 h 0.211356 v 0.262 h 0.211357 v 0.262 h 0.211873 v 0.26251 H 87.929 v 0.262 h 0.211356 v 0.262 h 0.211874 v 0.262 h 0.211356 v 0.262 h 0.211874 v 0.26303 h 0.211356 v 0.262 h 0.211874 v 0.262 h 0.211356 v 0.262 h 0.211874 v 0.26304 h 0.211356 v 0.262 h 0.211874 v 0.262 h 0.211873 v 0.26199 h 0.211357 v 0.26304 h 0.211873 v 0.262 h 0.211357 v 0.262 h 0.211873 v 0.262 h 0.211357 v 0.262 h 0.211873 v 0.26303 h 0.211357 v 0.262 h 0.211873 v 0.262 H 92.1613 v 0.262 h 0.211873 v 0.26303 h 0.211357 v 0.262 h 0.211873 v 0.262 h 0.211357 v 0.262 h 0.211873 v 0.26303 h 0.211873 v 0.262 h 0.211357 v 0.262 h 0.211873 v 0.262 h 0.211357 v 0.262 h 0.211873 v 0.26303 h 0.211357 v 0.262 h 0.211873 v 0.262 h 0.211357 v 0.262 h 0.211873 v 0.26303 h 0.211357 v 0.262 h 0.211873 v 0.262 h 0.211357 v 0.262 h 0.211873 v 0.26304 h 0.211357 v 0.262 h 0.211873 v 0.262 h 0.211874 v 0.26199 h 0.211356 v 0.262 h 0.211874 v 0.26304 h 0.211356 v 0.262 h 0.211874 v 0.262 h 0.211356 v 0.262 h 0.211874 v 0.26303 h 0.211356 v 0.262 h 0.211874 v 0.262 h 0.211356 v 0.262 h 0.211873 v 0.26303 h 0.211874 v 0.262 h 0.211356 v 0.262 h 0.211874 v 0.262 h 0.211356 v 0.262 h 0.211874 v 0.26303 h 0.211356 v 0.262 h 0.212391 v 0.262 h 0.21084 v 0.262 h 0.21187 v 0.26303 h 0.21084 v 0.262 h 0.21239 v 0.262 h 0.21188 v 0.262 h 0.21084 v 0.262 h 0.21187 v 0.26303 h 0.21239 v 0.262 h 0.21084 v 0.262 h 0.21187 v 0.262 h 0.21239 v 0.26252 h 0.21084 v 0.262 h 0.21188 v 0.262 h 0.21084 v 0.262 h 0.21239 v 0.26303 h 0.21187 v 0.262 h 0.21084 v 0.262 h 0.21187 v 0.262 h 0.21239 v 0.262 h 0.21084 v 0.26303 h 0.21188 v 0.262 h 0.21135 v 0.262 h 0.21188 v 0.262 h 0.21187 v 0.26303 h 0.21084 v 0.262 h 0.21239 v 0.262 h 0.21187 v 0.262 h 0.21084 v 0.26303 h 0.21188 v 0.262 h 0.21239 v 0.262 h 0.21084 v 0.262 h 0.21187 v 0.262 h 0.21136 v 0.26304 h 0.21187 v 0.262 h 0.21187 v 0.26199 h 0.21084 v 0.262 h 0.21239 v 0.26304 h 0.21188 v 0.262 h 0.21084 v 0.262 h 0.21187 v 0.262 h 0.21239 v 0.26303 h 0.21084 v 0.262 h 0.21187 v 0.262 h 0.21084 v 0.262 h 0.21239 v 0.262 h 0.21188 v 0.26303 h 0.21084 v 0.262 h 0.21239 v 0.262 h 0.21187 v 0.262 h 0.21084 v 0.26303 h 0.21187 v 0.262 h 0.21239 v 0.262 h 0.21084 v 0.262 h 0.21188 v 0.26303 h 0.21084 v 0.262 h 0.21239 v 0.262 h 0.21187 v 0.262 h 0.21084 v 0.262 h 0.21187 v 0.26303 h 0.21239 v 0.262 h 0.21084 v 0.262 h 0.21188 v 0.262 h 0.21135 v 0.26304 h 0.21188 v 0.262 h 0.21187 v 0.26199 h 0.21084 v 0.262 h 0.21239 v 0.26304 h 0.21187 v 0.262 h 0.21084 v 0.262 h 0.21188 v 0.262 h 0.21239 v 0.262 h 0.21084 v 0.26303 h 0.21187 v 0.262 h 0.21136 v 0.262 h 0.21187 v 0.262 h 0.21187 v 0.26303 h 0.21084 v 0.262 h 0.21239 v 0.262 h 0.21188 v 0.262 h 0.21084 v 0.26251 h 0.21187 v 0.262 h 0.21239 v 0.262 h 0.21084 v 0.262 h 0.21187 v 0.262 h 0.21084 v 0.26304 h 0.21239 v 0.262 h 0.21188 v 0.262 h 0.21084 v 0.26199 h 0.21239 v 0.26304 h 0.21187 v 0.262 h 0.21084 v 0.262 h 0.21187 v 0.262 h 0.21136 v 0.26303 h 0.21187 v 0.262 h 0.21188 v 0.262 h 0.21084 v 0.262 h 0.21239 v 0.262 h 0.21187 v 0.26303 h 0.21084 v 0.262 h 0.21187 v 0.262 h 0.21239 v 0.262 h 0.21084 v 0.26303 h 0.21188 v 0.262 h 0.21135 v 0.262 h 0.21188 v 0.262 h 0.21187 v 0.26303 h 0.21084 v 0.262 h 0.21239 v 0.262 h 0.21187 v 0.262 h 0.21084 v 0.262 h 0.21188 v 0.26303 h 0.21239 v 0.262 h 0.21084 v 0.262 h 0.21187 v 0.262 h 0.21136 v 0.26304 h 0.21187 v 0.262 h 0.21187 v 0.262 h 0.21084 v 0.26199 h 0.21239 v 0.262 h 0.21188 v 0.26304 h 0.21084 v 0.262 h 0.21187 v 0.262 h 0.21136 v 0.262 h 0.21187 v 0.26303 h 0.21187 v 0.262 h 0.21084 v 0.262 h 0.21239 v 0.262 h 0.21188 v 0.26303 h 0.21084 v 0.262 h 0.21239 v 0.262 h 0.21187 v 0.262 h 0.21084 v 0.262 h 0.21187 v 0.26303 h 0.21136 v 0.262 h 0.21187 v 0.262 h 0.21188 v 0.262 h 0.21084 v 0.26303 h 0.21239 v 0.262 h 0.21187 v 0.262 h 0.21084 v 0.262 h 0.21187 v 0.26303 h 0.21239 v 0.262 h 0.21084 v 0.262 h 0.21188 v 0.262 h 0.21135 v 0.262 h 0.21188 v 0.26304 h 0.21187 v 0.262 h 0.21084 v 0.26199 h 0.21239 v 0.262 h 0.21187 v 0.26304 h 0.21084 v 0.262 h 0.21188 v 0.262 h 0.21239 v 0.262 h 0.21084 v 0.26251 h 0.21187 v 0.262 h 0.21136 v 0.262 h 0.21187 v 0.262 h 0.21187 v 0.262 h 0.21084 v 0.26303 h 0.21239 v 0.262 h 0.21188 v 0.262 h 0.21084 v 0.262 h 0.21187 v 0.26303 h 0.21136 v 0.262 h 0.21187 v 0.262 h 0.21187 v 0.262 h 0.21136 v 0.26304 h 0.21187 v 0.262 H 135.97 v 0.262 h 0.21083 v 0.26199 h 0.2124 v 0.262 h 0.21187 v 0.26304 h 0.21084 v 0.262 h 0.21187 v 0.262 h 0.21136 v 0.262 h 0.21187 v 0.26303 h 0.21188 v 0.262 h 0.21083 v 0.262 h 0.2124 v 0.262 h 0.21187 v 0.26303 h 0.21084 v 0.262 h 0.21239 v 0.262 h 0.21187 v 0.262 h 0.21084 v 0.262 h 0.21187 v 0.26303 h 0.21136 v 0.262 h 0.21187 v 0.262 h 0.21188 v 0.262 h 0.21084 v 0.26303 h 0.21239 v 0.262 h 0.21187 v 0.262 h 0.21084 v 0.262 h 0.21187 v 0.26303 h 0.21136 v 0.262 h 0.21187 v 0.262 h 0.21188 v 0.262 h 0.21135 v 0.262 h 0.21188 v 0.26304 h 0.21187 v 0.262 h 0.21084 v 0.0248 0.23719 h 0.21239 v 0.0729 0.18913 h 0.21187 v 0.11989 0.14315 h 0.21084 v 0.16588 0.0961 h 0.21188 v 0.21394 0.0481 h 0.21135 v 0.26096 0.001 h 6.18102 0.001 v -10.06864 c 0.0328,0.0532 0.0749,0.0973 0.1266,0.13177 l 0.0605,0.0997 c 0.035,0.0701 0.0887,0.1214 0.15192,0.1633 l 0.0599,0.0987 c 0.0346,0.0693 0.0879,0.1203 0.15038,0.16226 l 0.0605,0.0997 c 0.0354,0.0703 0.0894,0.12168 0.15244,0.16381 l 0.0594,0.0982 c 0.0348,0.0702 0.0887,0.12169 0.15193,0.16381 l 0.0594,0.0982 c 0.0354,0.0708 0.0892,0.12263 0.15244,0.16485 l 0.0594,0.0982 c 0.0353,0.07 0.0892,0.12196 0.15245,0.16433 l 0.0594,0.0977 c 0.0353,0.0706 0.0888,0.12246 0.15193,0.16485 l 0.0589,0.0971 c 0.0354,0.0707 0.0899,0.12287 0.15348,0.16536 l 0.0589,0.0966 c 0.0353,0.0713 0.0894,0.1233 0.15297,0.16588 l 0.0589,0.0971 c 0.0353,0.0705 0.0891,0.1227 0.15244,0.16537 l 0.0584,0.0966 c 0.0358,0.0705 0.0899,0.12315 0.15348,0.16588 l 0.0584,0.0961 c 0.0352,0.0711 0.0897,0.12357 0.15348,0.1664 l 0.0579,0.0956 c 0.0357,0.0709 0.0899,0.12289 0.15348,0.16588 l 0.0584,0.0971 c 0.0357,0.0708 0.0899,0.1229 0.15348,0.16589 l 0.0584,0.0961 c 0.0356,0.0707 0.0899,0.12293 0.15348,0.16589 l 0.0579,0.0961 c 0.0356,0.0712 0.0897,0.12337 0.15348,0.1664 l 0.0584,0.0956 c 0.0356,0.0712 0.0897,0.12411 0.15348,0.16743 l 0.0584,0.0946 c 0.0359,0.0723 0.0906,0.12523 0.15503,0.16847 l 0.006,0.0103 0.0496,0.0842 c 0.0363,0.0713 0.0913,0.12408 0.15554,0.16743 l 0.0165,0.0274 0.0403,0.0672 c 0.0356,0.0719 0.0901,0.12502 0.15451,0.16846 l 0.0264,0.0434 0.031,0.0501 c 0.0356,0.0717 0.0898,0.12486 0.154,0.16847 l 0.0367,0.0605 0.0202,0.0331 c 0.0362,0.0724 0.0911,0.12546 0.15555,0.16899 l 0.0465,0.077 0.01,0.0171 c 0.0359,0.0711 0.0903,0.12395 0.154,0.16743 l 0.0574,0.0946 c 0.061,0.122 0.16289,0.20291 0.30489,0.24391 0.142,0.04 0.27384,0.061 0.39584,0.061 0.101,0 0.22287,-0.021 0.36587,-0.061 0.142,-0.041 0.24338,-0.12191 0.30438,-0.24391 l 0.87126,-1.43816 h 0.16227 l 5.1e-4,0.262 h 0.21136 l 5.2e-4,0.262 h 0.21135 l 5.2e-4,0.262 h 0.21032 l 5.2e-4,0.26303 h 0.21187 l 5.2e-4,0.262 h 0.21084 l 0.001,0.262 h 0.20981 l 0.001,0.262 h 0.21136 l 0.001,0.26303 h 0.20981 l 0.002,0.262 h 0.2098 v 0.0191 l 10e-4,0.24288 h 0.21084 v 0.0439 l 0.001,0.21807 h 0.21032 v 0.0682 l 0.001,0.19378 h 0.21084 v 0.093 l 0.001,0.17002 h 0.21084 v 0.11575 l 0.001,0.14625 h 0.21033 v 0.14107 l 5.1e-4,0.12092 h 0.21136 v 0.16485 l 0.001,0.0971 h 0.20981 v 0.19017 l 0.002,0.0729 h 0.2098 v 0.2129 l 0.001,0.0491 h 0.21135 v 0.23771 l 5.2e-4,0.0243 h 0.21032 v 0.262 h 0.002 6.17998 v -10e-4 -10.37042 c 0.0622,0.0776 0.12349,0.15598 0.18759,0.23202 0.0728,0.0916 0.14416,0.18448 0.21962,0.27389 0.0715,0.0897 0.14153,0.18055 0.21549,0.2682 0.0708,0.0888 0.14021,0.17881 0.21343,0.26562 0.0709,0.0891 0.14006,0.17959 0.21342,0.26665 0.0728,0.0915 0.14426,0.18404 0.21963,0.27336 0.0714,0.0896 0.14109,0.18063 0.21497,0.26821 0.0707,0.0887 0.13979,0.17889 0.21291,0.26561 0.0716,0.0899 0.14191,0.18088 0.21601,0.26872 0.0713,0.0895 0.14123,0.18019 0.21497,0.26768 0.0716,0.0899 0.14139,0.18135 0.21549,0.26924 0.0728,0.0914 0.14424,0.18406 0.21962,0.27337 0.0716,0.0897 0.14198,0.18049 0.21601,0.2682 0.07,0.0877 0.13849,0.17672 0.21084,0.26251 0.0718,0.0901 0.14175,0.18169 0.21601,0.26975 0.072,0.0904 0.14254,0.18197 0.21704,0.27027 0.0714,0.0896 0.14164,0.18013 0.21549,0.26769 0.0709,0.0889 0.14012,0.17918 0.21343,0.26613 0.0714,0.0896 0.14115,0.18062 0.21497,0.2682 0.0716,0.0898 0.14148,0.18095 0.21549,0.26872 0.0723,0.0907 0.14328,0.18261 0.21807,0.2713 0.0709,0.0889 0.14013,0.17917 0.21343,0.26613 0.0713,0.0894 0.14078,0.18027 0.21446,0.26769 0.0723,0.0906 0.14283,0.18271 0.21755,0.2713 0.29618,0.37116 0.60678,0.73058 0.94413,1.06763 1.137,1.117 2.46691,2.00049 3.98891,2.65049 1.52299,0.65 3.15706,0.97358 4.90306,0.97358 1.72499,0 3.34905,-0.32358 4.87205,-0.97358 1.543,-0.65 2.88288,-1.53349 4.01888,-2.65049 0.72126,-0.72063 1.33262,-1.52825 1.85776,-2.4045 v 0.0227 h 0.21136 v 0.262 h 0.21187 v 0.26303 h 0.21188 v 0.262 h 0.21084 v 0.262 h 0.20308 0.009 v 0.262 h 0.18965 0.0222 v 0.26303 h 0.17673 0.0341 v 0.262 h 0.16485 0.047 v 0.262 h 0.15245 0.0589 v 0.262 h 0.14004 0.0718 v 0.26303 h 0.12713 0.0847 v 0.262 h 0.1142 0.0971 v 0.262 h 0.10181 0.11007 v 0.262 h 0.0889 0.12299 v 0.262 h 0.076 0.13488 v 0.26303 h 0.0641 0.14831 v 0.262 h 0.0506 0.16123 v 0.262 h 0.0377 0.17311 v 0.262 h 0.0269 0.18501 v 0.26303 h 0.014 0.1974 v 0.262 h 0.002 6.30194 v -0.001 -10.19369 l 0.14883,0.22944 h 0.0419 l 0.17001,0.262 h 0.0403 l 0.17105,0.26303 h 0.0419 l 0.17001,0.262 h 0.0419 l 0.17002,0.262 h 0.0408 l 0.17002,0.262 h 0.0424 l 0.17002,0.262 h 0.0408 l 0.17105,0.26303 h 0.0408 l 0.17002,0.262 h 0.0419 l 0.17001,0.262 h 0.0413 l 0.17002,0.262 h 0.0408 l 0.17105,0.26304 h 0.0419 l 0.17002,0.262 h 0.0413 l 0.17001,0.26199 h 0.0419 l 0.17002,0.262 h 0.0408 l 0.17105,0.26304 h 0.0408 l 0.17002,0.262 h 0.0424 l 0.17002,0.262 h 0.0419 l 0.17001,0.262 h 0.0408 l 0.17001,0.262 h 0.0408 l 0.17105,0.26303 h 0.0413 l 0.17001,0.262 h 0.0419 l 0.17002,0.262 h 0.0419 l 0.17002,0.262 h 0.0398 l 0.17105,0.26303 h 0.0424 l 0.17002,0.262 h 0.0419 l 0.17001,0.262 h 0.0408 l 0.17001,0.262 h 0.0413 l 0.17105,0.26303 h 0.0408 l 0.17001,0.262 h 0.0419 l 0.17002,0.262 h 0.0418 l 0.17002,0.262 h 0.0413 l 0.17002,0.262 h 0.0408 l 0.17105,0.26303 h 0.0419 l 0.17001,0.262 h 0.0408 l 0.17001,0.262 h 0.0393 0.003 l 0.17001,0.262 h 0.0258 0.015 l 0.17105,0.26303 h 0.0129 0.0279 l 0.17002,0.262 h 10e-4 6.33295 v -10e-4 -23.59804 h -0.002 -0.20981 v -0.262 h -0.0139 -0.19792 v -0.26304 h -0.0264 -0.185 v -0.26199 h -0.0388 -0.17311 v -0.262 h -0.0517 -0.16019 v -0.262 h -0.0641 -0.14676 v -0.26304 h -0.077 -0.13539 v -0.262 h -0.0889 -0.12195 v -0.262 h -0.10284 -0.10904 v -0.262 h -0.11524 -0.0966 v -0.26303 h -0.12713 -0.0842 v -0.262 h -0.14107 -0.0708 v -0.262 h -0.15296 -0.0589 v -0.262 h -0.16485 -0.046 v -0.262 h -0.17829 -0.0341 v -0.26303 h -0.19069 -0.0202 v -0.262 h -0.20413 -0.008 v -0.262 h -0.21239 v -0.262 h -0.21084 v -0.26303 h -0.21187 v -0.262 h -0.21187 v -0.262 h -0.21136 v -0.262 h -0.21187 v -0.26303 h -0.21188 v -0.262 h -0.21084 v -0.262 h -0.21239 v -0.262 h -0.21084 v -0.262 h -0.21187 v -0.26303 h -0.21187 v -0.262 h -0.21136 v -0.262 h -0.21187 v -0.262 h -0.21188 v -0.26304 h -0.21135 v -0.26199 h -0.21188 v -0.262 h -0.21187 v -0.262 h -0.21084 v -0.26304 h -0.21239 v -0.262 h -0.21084 v -0.262 h -0.21187 v -0.262 h -0.21188 v -0.26199 h -0.21135 v -0.26304 h -0.21188 v -0.262 h -0.21187 v -0.262 h -0.21136 v -0.262 h -0.21187 v -0.26251 h -0.21187 v -0.262 h -0.21084 v -0.262 h -0.21239 v -0.262 h -0.21084 v -0.262 h -0.21188 v -0.26303 h -0.21187 v -0.262 h -0.21136 v -0.262 h -0.21187 v -0.262 h -0.21187 v -0.26304 h -0.21084 v -0.26199 h -0.21239 v -0.262 h -0.21084 v -0.262 h -0.21188 v -0.26304 h -0.21239 v -0.262 h -0.21084 v -0.262 h -0.21187 v -0.262 h -0.21187 v -0.262 h -0.21136 v -0.26303 h -0.21187 v -0.262 h -0.21188 v -0.262 h -0.21084 v -0.262 h -0.21239 v -0.26303 H 203.832 v -0.262 h -0.21187 v -0.262 h -0.21187 v -0.262 h -0.21136 v -0.26303 h -0.21187 v -0.262 h -0.21188 v -0.262 h -0.21135 v -0.262 h -0.21188 v -0.262 h -0.21187 v -0.26303 h -0.21084 v -0.262 h -0.21239 v -0.262 h -0.21084 v -0.262 h -0.21187 v -0.26303 h -0.21188 v -0.262 h -0.21135 v -0.262 H 200.657 v -0.262 h -0.21187 v -0.26304 h -0.21136 v -0.262 h -0.21187 v -0.26199 h -0.21187 v -0.262 h -0.21084 v -0.262 h -0.21239 v -0.26304 h -0.21084 v -0.262 h -0.21188 v -0.262 h -0.21187 v -0.262 h -0.21136 v -0.26303 h -0.21187 v -0.262 h -0.21187 v -0.262 h -0.21136 v -0.262 h -0.21187 v -0.262 h -0.21084 v -0.26303 h -0.21188 v -0.262 h -0.21239 v -0.262 h -0.21084 v -0.262 h -0.21187 v -0.26303 h -0.21187 v -0.262 h -0.21136 v -0.262 h -0.21187 v -0.262 h -0.21188 v -0.26303 h -0.21084 v -0.262 h -0.21239 v -0.262 h -0.21084 v -0.262 h -0.21187 v -0.262 h -0.21239 v -0.26303 h -0.21084 v -0.262 h -0.21187 v -0.262 h -0.21188 v -0.262 h -0.21135 v -0.26252 h -0.21188 v -0.262 h -0.21187 v -0.262 h -0.21084 v -0.262 h -0.21239 v -0.26303 h -0.21084 v -0.262 h -0.21187 v -0.262 h -0.21188 v -0.262 h -0.21135 v -0.262 h -0.21188 v -0.26303 h -0.21187 v -0.262 h -0.21136 v -0.262 h -0.21187 v -0.262 h -0.21187 v -0.26303 h -0.21084 v -0.262 h -0.21239 v -0.262 h -0.21084 v -0.262 h -0.21188 v -0.262 h -0.21187 v -0.26303 h -0.21136 v -0.262 h -0.21187 v -0.262 h -0.21187 v -0.262 h -0.21136 v -0.26304 h -0.21187 v -0.26199 h -0.21084 v -0.262 h -0.21188 v -0.262 h -0.21239 v -0.26304 h -0.21084 v -0.262 h -0.21187 v -0.262 h -0.21187 v -0.262 h -0.21136 v -0.26199 h -0.21187 v -0.26304 h -0.21188 v -0.262 h -0.21084 v -0.262 h -0.21239 v -0.262 h -0.21084 v -0.26303 h -0.21187 v -0.262 h -0.21239 v -0.262 h -0.21084 v -0.262 h -0.21187 v -0.26303 h -0.21188 v -0.262 h -0.21135 v -0.262 h -0.21188 v -0.262 h -0.21187 v -0.262 h -0.21084 v -0.26303 h -0.21239 v -0.262 H 184.15 v -0.262 h -0.21187 v -0.262 h -0.21188 v -0.26303 h -0.21135 v -0.262 h -0.21188 v -0.262 h -0.21187 v -0.262 h -0.21136 v -0.26304 h -0.21187 v -0.26199 h -0.21187 v -0.262 h -0.21084 v -0.262 h -0.21239 v -0.262 h -0.21084 v -0.26304 h -0.21188 v -0.262 h -0.21187 v -0.262 h -0.21136 V 191.1275 H 180.975 v -0.26304 h -0.21187 v -0.262 h -0.21136 v -0.262 h -0.21187 v -0.262 h -0.21084 v -0.262 h -0.21188 v -0.26303 h -0.21239 v -0.262 h -0.21084 v -0.262 h -0.21187 v -0.262 h -0.21187 v -0.26251 h -0.21136 v -0.262 h -0.21187 v -0.262 h -0.21188 v -0.262 h -0.21135 v -0.26304 h -0.21188 v -0.26199 h -0.21084 v -0.262 h -0.21187 v -0.262 h -0.21239 v -0.262 h -0.21084 v -0.26304 h -0.21187 v -0.262 h -0.21188 v -0.262 h -0.21135 v -0.262 h -0.21188 v -0.26303 h -0.21187 v -0.262 h -0.21084 v -0.262 h -0.21239 v -0.262 h -0.21084 v -0.26303 h -0.21187 v -0.262 h -0.21239 v -0.262 h -0.21084 v -0.262 h -0.21188 v -0.262 h -0.21187 v -0.26303 h -0.21136 v -0.262 h -0.21187 v -0.262 h -0.21084 v -0.262 h -0.21187 v -0.26303 h -0.21239 v -0.262 h -0.21084 v -0.262 h -0.21188 v -0.262 h -0.21187 v -0.26303 h -0.21136 v -0.262 h -0.21187 v -0.262 h -0.21187 v -0.262 h -0.21136 v -0.262 h -0.21187 v -0.26303 h -0.21084 v -0.262 h -0.21188 v -0.262 h -0.21239 v -0.262 h -0.21084 v -0.26304 h -0.21187 v -0.262 h -0.21187 v -0.262 h -0.21136 v -0.262 h -0.21187 v -0.26199 h -0.21188 v -0.26304 h -0.21135 v -0.262 h -0.21188 v -0.262 h -0.21084 v -0.262 h -0.21187 v -0.26303 h -0.21239 v -0.262 h -0.19792 v -10.06088 h 0.031 l 0.17001,0.262 h 0.0413 l 0.17053,0.262 h 0.0408 l 0.17053,0.262 h 0.0419 l 0.17001,0.26199 h 0.0403 l 0.17053,0.26304 h 0.0424 l 0.17001,0.262 h 0.0413 l 0.17053,0.262 h 0.0408 l 0.17002,0.262 h 0.0413 l 0.17053,0.26303 h 0.0419 l 0.17053,0.262 h 0.0408 l 0.17001,0.262 h 0.0413 l 0.17053,0.262 h 0.0408 l 0.17105,0.26303 h 0.0413 l 0.17001,0.262 h 0.0413 l 0.17053,0.262 h 0.0408 l 0.17002,0.262 h 0.0419 l 0.17053,0.262 h 0.0413 l 0.17053,0.26303 h 0.0408 l 0.17001,0.262 h 0.0419 l 0.17001,0.262 h 0.0419 l 0.17053,0.262 h 0.0403 l 0.17053,0.26303 h 0.0419 l 0.17002,0.262 H 173.4 l 0.17053,0.262 h 0.0413 l 0.17002,0.262 h 0.0408 l 0.17105,0.26304 h 0.0408 l 0.17001,0.26199 h 0.0419 l 0.17001,0.262 h 0.0413 l 0.17104,0.262 h 0.0403 l 0.17053,0.262 h 0.0419 l 0.17002,0.26304 h 0.0424 l 0.0139,0.0217 0.15607,0.2403 h 0.0413 l 0.0315,0.0486 0.13798,0.21343 h 0.0413 l 0.0496,0.076 0.12092,0.18603 h 0.0413 l 0.0667,0.10284 0.10387,0.15968 h 0.0413 l 0.0837,0.12919 0.0863,0.13281 h 0.0413 l 0.10129,0.15606 0.0692,0.10594 h 0.0419 l 0.11834,0.18242 0.0506,0.0796 h 0.0413 l 0.1359,0.20929 0.0346,0.0537 h 0.0413 l 0.15296,0.23513 0.0181,0.0269 h 0.0408 l 0.17002,0.262 h 6.70088 v -5.2126 h 0.0713 v 0.26303 h 0.21188 v 0.262 h 0.21084 v 0.262 h 0.21187 v 0.262 h 0.21136 v 0.26303 h 0.20774 0.004 v 0.262 h 0.19379 0.0181 v 0.262 h 0.18035 0.031 v 0.262 h 0.16692 0.045 v 0.262 h 0.15193 0.0599 v 0.26252 h 0.13797 0.0729 v 0.262 h 0.12505 0.0873 v 0.262 h 0.11058 0.10129 v 0.262 h 0.0971 0.11369 v 0.26303 h 0.0832 0.12867 v 0.262 h 0.0692 0.14211 v 0.262 h 0.0558 0.15606 v 0.262 h 0.0419 0.17002 v 0.26303 h 0.0279 0.18294 v 0.262 h 0.0145 0.19792 v 0.262 h 6.92671 v -9.4387 h 1.4521 v 0.26097 h 0.21188 v 0.262 h 0.21135 v 0.262 h 0.21188 v 0.26303 h 0.21084 v 0.262 h 0.21187 v 0.262 h 0.21239 v 0.262 h 0.21084 v 0.26303 h 0.21187 v 0.262 h 0.21188 v 0.262 h 0.21135 v 0.262 h 0.21188 v 0.262 h 0.21084 v 0.26303 h 0.21239 v 0.262 h 0.21187 v 0.262 h 0.21084 v 0.262 h 0.21187 v 0.26303 h 0.21239 v 0.262 h 0.21084 v 0.262 h 0.21188 v 0.262 h 0.21187 v 0.26303 h 0.20929 0.002 v 0.262 h 0.19585 0.016 v 0.262 h 0.1819 0.0289 v 0.262 h 0.16795 0.0444 v 0.262 h 0.154 0.0579 v 0.26252 h 0.14005 0.0708 v 0.262 h 0.12609 0.0858 v 0.262 h 0.11213 0.10026 v 0.262 h 0.0977 0.11317 v 0.26303 h 0.0837 0.12816 v 0.262 h 0.0703 0.14159 v 0.262 h 0.0563 0.15503 v 0.262 h 0.0419 0.17001 v 0.26303 h 0.0279 0.18293 v 0.262 h 0.015 0.1974 v 0.262 h 6.99079 v -25.00002 h -0.21187 v -0.262 h -0.0139 -0.19741 v -0.262 h -0.0279 -0.18397 v -0.26304 h -0.0419 -0.17002 v -0.26199 h -0.0558 -0.15503 v -0.262 h -0.0703 -0.14211 v -0.262 h -0.0837 -0.12816 v -0.26304 h -0.0971 -0.11369 v -0.262 h -0.11214 -0.0997 v -0.262 h -0.12506 -0.0873 v -0.262 h -0.13901 -0.0718 v -0.26251 h -0.154 -0.0579 v -0.262 h -0.16691 -0.0444 v -0.262 h -0.1819 -0.03 v -0.262 h -0.19482 -0.0171 v -0.262 h -0.20929 -0.002 v -0.26303 h -0.21239 v -0.262 h -0.21187 v -0.262 h -0.21084 v -0.262 h -0.21188 v -0.26303 h -0.21239 v -0.262 h -0.21084 v -0.262 h -0.21187 v -0.262 h -0.21136 v -0.26304 h -0.21187 v -0.262 h -0.21187 v -0.262 h -0.21084 v -0.26199 h -0.21239 v -0.262 h -0.21188 v -0.26304 h -0.21084 v -0.262 h -0.21187 v -0.262 h -0.21239 v -0.262 h -0.21084 v -0.26303 h -0.21187 v -0.262 h -0.21084 v -0.262 h -0.21239 v -0.262 h -0.21188 v -0.26303 h -0.21084 v -0.262 h -0.21239 v -0.262 h -0.21187 v -0.262 h -0.21084 v -0.262 h -0.21187 v -0.26303 h -0.21239 v -0.262 h -0.21084 v -0.262 h -0.21188 v -0.262 h -0.21084 v -0.26303 h -0.21239 v -0.262 h -0.21187 v -0.262 h -0.21084 v -0.262 h -0.21187 v -0.26303 h -0.21239 v -0.262 h -0.21084 v -0.262 h -0.21188 v -0.262 h -0.21239 v -0.262 h -0.21084 v -0.26304 h -0.21187 v -0.262 h -0.21084 v -0.26199 h -0.21239 v -0.262 h -0.21187 v -0.26304 h -0.21084 v -0.262 h -0.21188 v -0.262 h -0.21239 v -0.262 h -0.2095 v -0.262 h -0.21187 v -0.26303 h -0.21187 v -0.262 h -0.21136 v -0.262 h -0.21187 v -0.262 h -0.21084 v -0.26303 h -0.21239 v -0.262 h -0.21188 v -0.262 h -0.21084 v -0.262 h -0.21187 v -0.26303 h -0.21239 v -0.262 h -0.21084 v -0.262 h -0.21187 v -0.262 h -0.21188 v -0.262 h -0.21135 V 131.1855 H 194.23 v -0.262 h -0.21083 v -0.262 h -0.2124 v -0.262 h -0.21187 v -0.26252 h -0.21084 v -0.262 h -0.21187 v -0.262 h -0.21239 v -0.262 h -0.21084 v -0.26303 h -0.21188 v -0.262 h -0.21187 v -0.262 h -0.21136 v -0.262 h -0.21187 v -0.262 h -0.21084 v -0.26303 h -0.21239 v -0.262 h -0.21187 v -0.262 h -0.21084 v -0.262 h -0.21187 v -0.26303 h -0.2124 v -0.262 h -0.21083 v -0.262 h -0.21188 v -0.262 h -0.21187 v -0.26303 h -0.21136 v -0.262 h -0.21187 v -0.262 h -0.21084 v -0.262 h -0.21187 v -0.262 h -0.2124 v -0.26303 h -0.21083 v -0.262 h -0.21188 v -0.262 h -0.21239 v -0.262 h -0.21084 v -0.26304 h -0.21187 v -0.262 h -0.21187 v -0.26199 h -0.21136 v -0.262 h -0.21187 v -0.26304 h -0.21084 v -0.262 h -0.21188 v -0.262 h -0.21239 v -0.262 h -0.21084 v -0.262 h -0.21187 v -0.26303 h -0.21187 v -0.262 h -0.21136 v -0.262 h -0.21187 v -0.262 h -0.21188 v -0.26303 h -0.21135 v -0.262 h -0.21188 v -0.262 h -0.21187 v -0.262 h -0.21084 v -0.26303 h -0.21239 v -0.262 h -0.21084 v -0.262 h -0.21187 v -0.262 h -0.21188 v -0.262 h -0.21135 v -0.26303 h -0.21188 v -0.262 h -0.21187 v -0.262 h -0.21136 v -0.262 h -0.21187 v -0.26303 h -0.21187 v -0.262 h -0.21084 v -0.262 h -0.21239 v -0.262 h -0.21084 v -0.26304 h -0.21188 v -0.262 h -0.21187 v -0.26199 h -0.21136 v -0.262 h -0.21187 v -0.262 h -0.21187 v -0.26304 h -0.21084 v -0.262 h -0.21239 v -0.262 h -0.21188 v -0.262 h -0.21084 v -0.26303 h -0.21239 v -0.262 h -0.21084 v -0.262 h -0.21187 v -0.262 h -0.21187 v -0.262 h -0.21136 V 111.781 h -0.21187 v -0.262 h -0.21188 v -0.262 h -0.21084 v -0.26252 h -0.21239 v -0.26251 h -0.21187 v -0.262 h -0.21084 v -0.262 h -0.21187 v -0.262 h -0.21136 v -0.26304 h -0.21187 v -0.262 h -0.21188 v -0.262 h -0.21135 v -0.26199 h -0.21188 v -0.262 h -0.21187 v -0.26304 h -0.21084 v -0.262 h -0.21239 v -0.262 h -0.21187 v -0.262 h -0.21084 v -0.26303 h -0.21188 v -0.262 h -0.21135 v -0.262 H 174.548 v -0.262 h -0.21187 v -0.26303 h -0.21136 v -0.262 h -0.21187 v -0.262 h -0.21187 v -0.262 h -0.21084 v -0.262 h -0.21239 v -0.26303 h -0.21188 v -0.262 h -0.21084 v -0.262 h -0.21187 v -0.262 h -0.21136 v -0.26303 h -0.21187 v -0.262 h -0.21187 v -0.262 h -0.21136 v -0.262 h -0.21187 v -0.26303 H 171.373 v -0.262 h -0.21084 v -0.262 h -0.21239 v -0.262 h -0.21187 v -0.262 h -0.21084 v -0.26304 h -0.21187 v -0.262 h -0.21136 v -0.26199 h -0.21187 v -0.262 h -0.21188 v -0.26304 h -0.21084 v -0.262 h -0.21239 v -0.261996 h -0.21187 v -0.262 h -0.21084 v -0.262516 h -0.21239 v -0.261999 h -0.21187 v -0.262517 h -0.21084 v -0.261999 h -0.21188 v -0.262517 h -0.21135 v -0.261999 h -0.21188 v -0.262516 h -0.21187 v -0.262 h -0.21084 v -0.262516 h -0.21239 v -0.262 h -0.21187 v -0.261999 h -0.21084 V 96.57085 h -0.21188 v -0.262 h -0.21239 v -0.262516 h -0.21084 v -0.262 h -0.21187 v -0.262516 h -0.21136 v -0.261999 h -0.21187 v -0.262 h -0.21187 v -0.262516 h -0.21084 v -0.262 h -0.21239 v -0.262516 h -0.21188 v -0.262 h -0.21084 v -0.262516 h -0.21187 v -0.261999 h -0.21239 v -0.262517 h -0.21084 v -0.261999 h -0.21187 v -0.262 h -0.21136 V 92.37524 h -0.21187 v -0.261999 h -0.21188 v -0.262517 h -0.21084 v -0.261999 h -0.21239 v -0.262517 h -0.21187 v -0.261999 h -0.21084 v -0.262516 h -0.21187 v -0.262 h -0.21239 v -0.262516 h -0.21084 v -0.262 h -0.21188 v -0.261999 h -0.21084 v -0.262516 h -0.21239 v -0.262 h -0.21187 v -0.262516 h -0.21084 v -0.262 h -0.21239 V 88.44163 h -0.21187 v -0.261999 h -0.21084 v -0.262517 h -0.21188 v -0.261999 h -0.21239 v -0.262 h -0.21084 v -0.262516 h -0.21187 v -0.262 h -0.21084 v -0.262516 h -0.21239 v -0.261999 h -0.21187 v -0.262517 h -0.21084 v -0.261999 h -0.21188 v -0.262516 h -0.21239 v -0.262 h -0.21084 v -0.261999 h -0.21187 v -0.262517 h -0.21239 v -0.261999 h -0.21084 v -0.262516 h -0.21187 v -0.262 h -0.21084 v -0.262516 h -0.21239 v -0.262 h -0.21188 v -0.262516 h -0.21084 v -0.262 h -0.21187 V 82.67299 h -0.21239 V 82.410474 H 154.866 v -0.262 h -0.21187 v -0.262516 h -0.21188 v -0.262 h -0.21135 v -0.262516 h -0.21188 v -0.261999 h -0.21187 v -0.262517 h -0.21136 v -0.261999 h -0.21187 v -0.262 h -0.21084 v -0.262516 h -0.21187 v -0.262 h -0.21239 v -0.262516 h -0.21084 v -0.261999 h -0.21188 v -0.262517 h -0.21187 V 78.73938 h -0.21136 V 78.476864 H 151.691 v -0.262 h -0.21187 v -0.262516 h -0.21136 v -0.262 h -0.21187 v -0.261999 h -0.21084 v -0.262516 h -0.21188 v -0.262 h -0.21239 v -0.262516 h -0.21084 v -0.262 h -0.21187 v -0.262516 h -0.21187 v -0.262 h -0.21136 v -0.262516 h -0.21187 v -0.261999 h -0.21188 v -0.262 h -0.21135 V 74.80577 h -0.21188 v -0.262 h -0.21084 v -0.262516 h -0.21187 v -0.261999 h -0.21239 v -0.262517 h -0.21084 v -0.261999 h -0.21187 v -0.262 h -0.21188 v -0.262516 h -0.21135 v -0.262 h -0.21188 v -0.262516 h -0.21187 v -0.261999 h -0.21084 v -0.262517 h -0.21239 v -0.261999 h -0.21084 v -0.262516 h -0.21187 v -0.262 h -0.21239 V 70.87216 h -0.21084 v -0.262 h -0.21188 v -0.262516 h -0.21187 v -0.261999 h -0.21136 v -0.262 h -0.21187 v -0.262516 h -0.21187 v -0.262 h -0.21084 v -0.262516 h -0.21239 v -0.262 h -0.21084 v -0.262516 h -0.21188 v -0.261999 h -0.21187 v -0.262 h -0.21136 v -0.262516 h -0.21187 v -0.262 h -0.21187 v -0.262516 h -0.21136 v -0.261999 h -0.21187 V 66.67655 h -0.21188 v -0.261999 h -0.21084 v -0.262 h -0.21239 v -0.262516 h -0.21084 v -0.262 h -0.21187 v -0.262516 h -0.21187 V 65.10352 h -0.21136 v -0.262517 h -0.21187 v -0.261999 h -0.21188 v -0.262516 h -0.21135 v -0.262 h -0.21188 v -0.262516 h -0.21187 v -0.262 h -0.21084 v -0.262516 h -0.21239 v -0.261999 h -0.21084 v -0.262 h -0.21187 v -0.262516 h -0.21188 v -0.262 h -0.21135 v -0.262516 h -0.21188 v -0.262 h -0.21187 v -0.262516 h -0.21084 V 61.16991 h -0.21239 v -0.262 h -0.21187 v -0.262516 h -0.21084 v -0.262 h -0.21239 v -0.262516 h -0.21084 v -0.261999 h -0.21188 v -0.262517 h -0.21187 v -0.261999 h -0.21136 v -0.262516 h -0.21187 v -0.262 h -0.21187 v -0.262 h -0.21084 v -0.262516 h -0.21239 v -0.261999 h -0.21188 v -0.262517 h -0.21084 v -0.261999 h -0.21187 V 57.2363 h -0.21136 v -0.262 h -0.21187 v -0.262516 h -0.21187 v -0.262 h -0.21136 v -0.262516 h -0.21187 v -0.261999 h -0.21188 v -0.262 h -0.21084 v -0.262516 h -0.21239 v -0.262 h -0.21187 v -0.262516 h -0.21084 v -0.262 h -0.21187 v -0.262516 h -0.21136 V 54.089722 H 132.009 v -0.262 h -0.21188 v -0.262516 h -0.21135 v -0.262 h -0.21188 V 53.04069 h -0.21187 v -0.261999 h -0.21084 v -0.262517 h -0.21239 v -0.261999 h -0.21187 v -0.262516 h -0.21084 v -0.262 h -0.21188 v -0.262516 h -0.21135 v -0.262 h -0.21188 v -0.261999 h -0.21187 v -0.262517 h -0.21136 v -0.261999 h -0.21187 V 50.156112 H 128.834 v -0.262 h -0.21084 v -0.262516 h -0.21239 v -0.262 h -0.21188 V 49.10708 h -0.21084 v -0.261999 h -0.21187 v -0.262 h -0.21136 v -0.262516 h -0.21187 v -0.262 h -0.21187 v -0.262516 h -0.21084 v -0.262 h -0.21239 v -0.262516 h -0.21188 v -0.261999 h -0.21084 v -0.262 h -0.21239 v -0.262516 h -0.21187 v -0.262 h -0.21084 v -0.262516 h -0.21187 v -0.261999 h -0.21136 v -0.262517 h -0.21187 v -0.261999 h -0.21188 v -0.262516 h -0.21084 v -0.262 h -0.21239 v -0.262516 h -0.21187 v -0.262 h -0.21084 v -0.261999 h -0.21187 v -0.262517 h -0.21239 V 43.33844 h -0.21084 v -0.262516 h -0.21188 v -0.262 h -0.21135 v -0.262516 h -0.21188 v -0.262 h -0.21187 v -0.262516 h -0.21084 v -0.261999 h -0.21239 v -0.262 h -0.21187 v -0.262516 h -0.21084 v -0.262 h -0.21188 v -0.262516 h -0.21239 v -0.262 h -0.21084 v -0.262516 h -0.21187 v -0.261999 h -0.21187 v -0.262517 h -0.21136 V 39.40483 h -0.21187 v -0.262 h -0.21084 v -0.262516 h -0.21239 v -0.261999 h -0.21188 v -0.262517 h -0.21084 v -0.261999 h -0.21187 v -0.262516 h -0.21239 v -0.262 h -0.21084 v -0.262516 h -0.21187 v -0.262 h -0.21188 v -0.262516 h -0.21135 v -0.262 h -0.21188 v -0.261999 h -0.21084 v -0.262516 h -0.21239 v -0.262 h -0.21187 V 35.47122 h -0.21084 v -0.262 h -0.21187 v -0.262516 h -0.21239 v -0.261999 h -0.21084 v -0.262517 h -0.21188 v -0.261999 h -0.21187 v -0.262 h -0.21136 v -0.262516 h -0.21187 v -0.261999 h -0.21084 v -0.262517 h -0.21187 v -0.261999 h -0.21239 v -0.262517 h -0.21084 v -0.261999 h -0.21188 v -0.262 h -0.21239 v -0.262516 h -0.21084 v -0.261999 h -0.21187 V 31.27561 h -0.21136 l -5.1e-4,-0.261999 h -0.21136 v -0.262516 h -0.21187 v -0.262 h -0.21084 v -0.262516 h -0.21188 v -0.262 h -0.21239 v -0.262516 h -0.21084 v -0.262 h -0.21187 v -0.262516 h -0.21187 v -0.261999 h -0.21136 v -0.262 h -0.21187 v -0.262516 h -0.21136 l -5.2e-4,-0.262 h -0.21135 v -0.262516 h -0.21188 v -0.261999 h -0.21084 V 27.342 h -0.21187 v -0.261999 h -0.21239 v -0.262 h -0.21084 v -0.262516 h -0.21187 v -0.261999 h -0.21136 l -5.2e-4,-0.262517 h -0.21135 V 25.76897 h -0.21136 l -5.2e-4,-0.262517 h -0.21135 l -5.2e-4,-0.261999 h -0.21084 l -5.2e-4,-0.262 h -0.21135 l -5.2e-4,-0.262516 h -0.21032 l -5.2e-4,-0.261999 h -0.21136 l -5.1e-4,-0.262517 h -0.21188 l -5.1e-4,-0.261999 h -0.21033 l -5.1e-4,-0.262516 h -0.21136 l -5.2e-4,-0.262 h -0.21135 l -5.2e-4,-0.262516 h -0.21084 l -5.2e-4,-0.262 h -0.21135 l -5.2e-4,-0.262516 h -0.21084 l -0.001,-0.262 h -0.21033 l -5.1e-4,-0.262516 h -0.21136 l -0.001,-0.261999 h -0.20981 l -10e-4,-0.262 h -0.21084 v -0.01292 l -0.001,-0.249597 h -0.21032 v -0.06253 l -0.002,-0.199471 h -0.2098 V 20.93619 l -0.001,-0.149862 h -0.21084 v -0.162264 l -0.001,-0.09973 h -0.20981 v -0.212391 l -0.002,-0.05013 h -0.21033 v -0.261999 h -0.001 -6.989237 v 5.17e-4 9.535852 h -0.0015 -1.240234 v -0.09612 h -0.21084 l -5.17e-4,-0.262516 h -0.211357 l -5.16e-4,-0.261999 h -0.211357 l -5.17e-4,-0.262 h -0.21084 l -5.16e-4,-0.262516 h -0.211357 l -5.17e-4,-0.262 h -0.21084 l -5.16e-4,-0.262516 h -0.211357 l -5.17e-4,-0.261999 h -0.21084 L 94.783879,27.342 h -0.21084 l -10e-4,-0.261999 h -0.21084 l -5.16e-4,-0.262 h -0.211357 l -5.17e-4,-0.262516 h -0.21084 l -5.16e-4,-0.261999 h -0.211357 l -5.17e-4,-0.262517 h -0.21084 l -0.001,-0.261999 h -0.21084 l -5.17e-4,-0.262517 h -0.21084 l -0.001,-0.261999 h -0.21084 l -5.17e-4,-0.262 h -0.21084 l -0.001,-0.262516 h -0.210323 l -10e-4,-0.261999 h -0.210323 l -0.0015,-0.262517 h -0.210323 l -0.001,-0.261999 h -0.210323 l -0.0015,-0.262516 H 91.61073 v -0.01447 l -0.001,-0.24753 h -0.210839 v -0.03411 l -0.001,-0.22841 h -0.210323 v -0.05271 l -0.0016,-0.20929 h -0.210323 v -0.07183 l -0.001,-0.190686 h -0.210323 v -0.09043 l -0.001,-0.171566 h -0.210839 v -0.11007 l -10e-4,-0.152446 H 90.34116 v -0.128674 l -0.0015,-0.133325 h -0.210323 v -0.147795 l -0.001,-0.114205 h -0.210323 v -0.167431 l -0.0015,-0.09509 h -0.210323 v -0.186035 l -0.001,-0.07597 h -0.210323 v -0.205155 l -0.0016,-0.05736 h -0.210323 v -0.224276 l -0.001,-0.03772 h -0.210323 v -0.243396 l -0.0016,-0.01912 h -0.210323 v -0.261999 h -0.001 -6.925675 v 5.244641 h -0.0708 v -0.262 H 81.650313 V 24.719938 H 81.43844 V 24.457939 H 81.226567 V 24.195422 H 81.01521 v -0.261999 h -0.200505 -0.01085 V 23.670907 H 80.61627 80.59198 v -0.262 h -0.173633 -0.03824 V 23.146391 H 80.21991 80.16875 v -0.262 h -0.147278 -0.06459 v -0.262516 h -0.133326 -0.07803 v -0.262 H 79.62512 79.53365 V 22.097359 H 79.426676 79.32229 V 21.83536 h -0.09353 -0.118339 v -0.262 h -0.0801 -0.131258 v -0.262516 h -0.06718 -0.144694 v -0.262 h -0.05374 -0.157613 v -0.262516 h -0.04031 -0.171565 v -0.261999 h -0.02687 -0.185002 v -0.262517 h -0.01292 -0.198437 v -0.261999 h -6.700883 v 10.783838 l -0.02119,-0.03256 h -0.04237 l -0.169499,-0.262 h -0.04186 l -0.169499,-0.262516 h -0.04237 l -0.169499,-0.262 h -0.04186 l -0.169499,-0.262516 h -0.04289 l -0.168982,-0.262 h -0.04186 l -0.169499,-0.262516 h -0.04289 L 69.6371,28.915544 h -0.04237 l -0.168982,-0.262 h -0.04237 l -0.169499,-0.262516 h -0.04238 l -0.168981,-0.262 h -0.04237 l -0.169499,-0.262516 h -0.04237 l -0.168981,-0.261999 h -0.04238 L 68.367403,27.342 h -0.04237 l -0.168981,-0.261999 h -0.04289 l -0.168982,-0.262 H 67.90181 L 67.7323,26.555485 h -0.04237 l -0.168982,-0.261999 h -0.04237 L 67.30907,26.030969 H 67.26669 L 67.097713,25.76897 h -0.04237 L 66.88584,25.506453 h -0.04238 l -0.168982,-0.261999 h -0.04289 l -0.168982,-0.262 h -0.04186 l -0.169499,-0.262516 h -0.04289 L 66.03938,24.457939 h -0.04186 l -0.169499,-0.262517 h -0.04289 L 65.61615,23.933423 h -0.04186 l -0.169499,-0.262516 h -0.04289 l -0.168982,-0.262 h -0.04238 l -0.169498,-0.262516 h -0.04238 l -0.168982,-0.262 h -0.04237 l -0.169498,-0.262516 h -0.04238 l -0.168982,-0.262 h -0.04237 l -0.169498,-0.262516 h -0.04237 L 63.92323,21.83536 h -0.04289 l -0.168982,-0.262 h -0.04186 L 63.5,21.310844 h -0.04289 l -0.168982,-0.262 h -0.04186 L 63.07677,20.786328 h -0.03979 -0.0031 l -0.168982,-0.261999 h -0.02636 -0.0155 L 62.65354,20.261812 H 62.6401 62.61065 l -0.168982,-0.261999 h -6.636805 v 5.17e-4 5.244124 h -0.0062 v -0.262 h -5.16e-4 -0.21084 V 24.719938 H 55.58679 55.375433 V 24.457939 H 55.16356 v -0.262517 h -0.211357 v -0.261999 h -5.16e-4 -0.21084 v -0.262516 h -5.17e-4 -0.211357 v -0.262 H 54.528457 54.3171 v -0.262516 h -0.211357 v -0.262 h -5.16e-4 -0.211357 v -0.262516 h -0.211357 v -0.262 H 53.681997 53.47064 V 22.097359 H 53.259281 V 21.83536 h -5.16e-4 -0.211357 v -0.262 h -0.211357 v -0.262516 h -5.16e-4 -0.211357 v -0.262 h -5.17e-4 -0.21084 v -0.262516 h -5.16e-4 -0.211357 v -0.261999 h -0.211873 v -0.262517 h -0.211357 v -0.261999 h -5.17e-4 z" /><g
     id="g2"
     transform="translate(0,0.12291611)"><path
       style="fill:#f9f9f9;stroke-width:0.160865"
       d="m 44.767293,59.469755 c -0.03217,0.248113 -0.05478,0.499286 -0.05478,0.756026 v 29.302084 c 0,3.23161 2.629198,5.86063 5.860624,5.86063 h 48.607369 c 3.231464,0 5.860634,-2.62902 5.860634,-5.86063 V 60.225781 c 0,-0.25674 -0.0226,-0.507913 -0.0548,-0.756026 z"
       id="path16" /><path
       id="path5"
       style="fill:#f44336;fill-opacity:1;stroke-width:0.160865"
       d="m 50.573142,54.365671 c -2.974716,0 -5.433052,2.229204 -5.805847,5.104081 h 60.219065 c -0.37279,-2.874877 -2.83112,-5.104081 -5.805854,-5.104081 z" /><g
       id="g1"><path
         style="fill:#798388;fill-opacity:1;stroke-width:0.160865"
         d="m 49.787227,83.040591 h 14.612028 c 0.816296,0 1.477946,0.661665 1.477946,1.477946 0,0.816083 -0.661866,1.477429 -1.477946,1.477429 H 49.787227 c -0.815895,0 -1.477429,-0.661148 -1.477429,-1.477429 0,-0.816281 0.661534,-1.477946 1.477429,-1.477946 z"
         id="path29" /><path
         style="fill:#798388;fill-opacity:1;stroke-width:0.160865"
         d="m 49.787227,77.783547 h 25.239286 c 0.816084,0 1.47743,0.661146 1.47743,1.47743 0,0.81628 -0.661138,1.477946 -1.47743,1.477946 H 49.787227 c -0.815893,0 -1.477429,-0.661666 -1.477429,-1.477946 0,-0.816284 0.661536,-1.47743 1.477429,-1.47743 z"
         id="path28" /><path
         style="fill:#798388;fill-opacity:1;stroke-width:0.160865"
         d="m 63.674235,67.326821 h 1.459859 v 4.985226 h -1.459859 z"
         id="path24" /><path
         style="fill:#798388;fill-opacity:1;stroke-width:0.160865"
         d="m 59.051778,67.326821 h 1.399914 v 3.721737 h 2.586923 v 1.263489 h -3.986837 z"
         id="path23" /><path
         id="path22"
         style="fill:#798388;fill-opacity:1;stroke-width:0.160865"
         d="m 73.856559,67.183161 c -0.36312,10e-7 -0.706103,0.07015 -1.028878,0.211356 -0.322776,0.13617 -0.604899,0.325326 -0.846977,0.567408 -0.237034,0.237032 -0.426188,0.516967 -0.567407,0.839742 -0.136162,0.317726 -0.204122,0.658521 -0.204122,1.021643 0,0.363116 0.06796,0.706102 0.204122,1.028878 0.141219,0.322769 0.330373,0.602704 0.567407,0.839742 0.242078,0.237032 0.524201,0.425676 0.846977,0.56689 0.322775,0.136169 0.665758,0.204639 1.028878,0.204639 0.36312,0 0.706103,-0.06847 1.028878,-0.204639 0.32277,-0.141214 0.602702,-0.329858 0.839742,-0.56689 0.242072,-0.237038 0.431234,-0.516973 0.567407,-0.839742 0.141213,-0.322776 0.211873,-0.665762 0.211873,-1.028878 0,-0.363122 -0.07066,-0.706104 -0.211873,-1.028878 -0.136173,-0.322776 -0.325335,-0.602704 -0.567407,-0.839742 -0.23704,-0.237038 -0.516972,-0.424003 -0.839742,-0.560173 -0.322775,-0.141215 -0.665758,-0.211356 -1.028878,-0.211356 z m 0,1.368909 c 0.171472,0 0.330721,0.03534 0.476973,0.105936 0.151304,0.06556 0.279594,0.156339 0.385507,0.272335 0.11096,0.115997 0.196838,0.252417 0.257348,0.408761 0.06051,0.151296 0.09095,0.312733 0.09095,0.484208 0,0.171473 -0.03044,0.335098 -0.09095,0.491443 -0.06052,0.151295 -0.146403,0.287721 -0.257348,0.40876 -0.105913,0.115999 -0.234203,0.20896 -0.385507,0.27957 -0.146252,0.06556 -0.305501,0.0987 -0.476973,0.0987 -0.171472,0 -0.332905,-0.03313 -0.484208,-0.0987 -0.146258,-0.07061 -0.274562,-0.163572 -0.385506,-0.27957 -0.105914,-0.12104 -0.191779,-0.257465 -0.257349,-0.40876 -0.06051,-0.156345 -0.09095,-0.31997 -0.09095,-0.491443 0,-0.171475 0.03044,-0.332912 0.09095,-0.484208 0.06557,-0.156344 0.151436,-0.292764 0.257349,-0.408761 0.110944,-0.115995 0.239248,-0.206765 0.385506,-0.272335 0.151303,-0.07061 0.312736,-0.105936 0.484208,-0.105936 z" /><path
         id="path21"
         style="fill:#798388;fill-opacity:1;stroke-width:0.160865"
         d="m 55.942924,67.183161 c -0.363121,10e-7 -0.706103,0.07015 -1.028878,0.211356 -0.322774,0.13617 -0.605413,0.325326 -0.847494,0.567408 -0.237032,0.237032 -0.426192,0.516967 -0.567407,0.839742 -0.136172,0.317726 -0.204122,0.658521 -0.204122,1.021643 0,0.363116 0.06795,0.706102 0.204122,1.028878 0.141215,0.322769 0.330375,0.602704 0.567407,0.839742 0.242081,0.237032 0.52472,0.425676 0.847494,0.56689 0.322775,0.136169 0.665757,0.204639 1.028878,0.204639 0.363117,0 0.706107,-0.06847 1.028877,-0.204639 0.322775,-0.141214 0.602188,-0.329858 0.839226,-0.56689 0.242075,-0.237038 0.431236,-0.516973 0.567407,-0.839742 0.141213,-0.322776 0.211873,-0.665762 0.211873,-1.028878 0,-0.363122 -0.07066,-0.706104 -0.211873,-1.028878 -0.136171,-0.322776 -0.325332,-0.602704 -0.567407,-0.839742 -0.237038,-0.237038 -0.516451,-0.424003 -0.839226,-0.560173 -0.32277,-0.141215 -0.66576,-0.211356 -1.028877,-0.211356 z m 0,1.368909 c 0.171469,0 0.330199,0.03534 0.476456,0.105936 0.151302,0.06556 0.279597,0.156339 0.385507,0.272335 0.110949,0.115997 0.196828,0.252417 0.257348,0.408761 0.06052,0.151296 0.09095,0.312733 0.09095,0.484208 0,0.171473 -0.03043,0.335098 -0.09095,0.491443 -0.06052,0.151295 -0.146399,0.287721 -0.257348,0.40876 -0.10591,0.115999 -0.234205,0.20896 -0.385507,0.27957 -0.146257,0.06556 -0.304987,0.0987 -0.476456,0.0987 -0.171474,0 -0.332907,-0.03313 -0.484209,-0.0987 -0.146252,-0.07061 -0.275074,-0.163572 -0.386022,-0.27957 -0.105914,-0.12104 -0.191789,-0.257465 -0.257349,-0.40876 -0.06052,-0.156345 -0.09043,-0.31997 -0.09043,-0.491443 0,-0.171475 0.02991,-0.332912 0.09043,-0.484208 0.06556,-0.156344 0.151438,-0.292764 0.257349,-0.408761 0.110948,-0.115995 0.23977,-0.206765 0.386022,-0.272335 0.151302,-0.07061 0.312735,-0.105936 0.484209,-0.105936 z" /><path
         style="fill:#798388;fill-opacity:1;stroke-width:0.160865"
         d="m 65.822424,66.441604 h 5.031217 v 1.346688 l -0.105936,0.105937 h -1.611788 v 4.417818 h -1.595768 v -4.417818 h -1.611788 l -0.105937,-0.105937 z"
         id="path20" /><path
         id="path19"
         style="fill:#798388;fill-opacity:1;stroke-width:0.160865"
         d="m 48.309798,66.441604 v 5.870443 h 1.573547 v -1.823145 h 1.066602 c 0.282423,0 0.552042,-0.05325 0.809253,-0.159163 0.262249,-0.110954 0.491639,-0.259363 0.68833,-0.445968 0.201734,-0.191648 0.360975,-0.413942 0.476973,-0.666109 0.121045,-0.252168 0.181385,-0.524494 0.181385,-0.817004 0,-0.287472 -0.06034,-0.552187 -0.181385,-0.794267 -0.115998,-0.242081 -0.275239,-0.448649 -0.476973,-0.620117 -0.196691,-0.171474 -0.426081,-0.30519 -0.68833,-0.40101 -0.257211,-0.09582 -0.52683,-0.14366 -0.809253,-0.14366 z m 1.611271,1.301213 h 0.91519 c 0.09078,0 0.176648,0.0174 0.257348,0.05271 0.08069,0.03026 0.151354,0.07591 0.211874,0.136425 0.06052,0.05548 0.10836,0.120721 0.14366,0.196371 0.03531,0.07565 0.05271,0.159334 0.05271,0.250114 0,0.09078 -0.0174,0.173947 -0.05271,0.249597 -0.0353,0.07565 -0.08314,0.143602 -0.14366,0.204122 -0.06052,0.05547 -0.131184,0.100599 -0.211874,0.135909 -0.08069,0.03026 -0.166568,0.04547 -0.257348,0.04547 h -0.91519 z" /></g></g><path
     id="path1"
     style="fill:#5c6bc0;stroke-width:1.09875"
     d="m 90.467346,66.441423 c -3.640942,0 -6.592362,2.951936 -6.592362,6.592879 0,3.640931 2.95142,6.592362 6.592362,6.592362 3.64094,0 6.59236,-2.951431 6.59236,-6.592362 0,-3.640943 -2.95142,-6.592879 -6.59236,-6.592879 z m 0,15.382523 c -3.050901,0 -5.432253,0.243202 -7.217647,0.991671 -1.911551,0.80132 -3.08266,2.159845 -3.707268,4.134631 -0.230858,0.7299 0.31595,1.466577 1.073837,1.466577 h 19.694922 c 0.76099,0 1.31172,-0.739846 1.07901,-1.473811 -0.62651,-1.974897 -1.801884,-3.332816 -3.716574,-4.132048 -1.78382,-0.744623 -4.16163,-0.98702 -7.20628,-0.98702 z" /><text
     xml:space="preserve"
     transform="matrix(0.76126675,0,0,0.76126675,-62.174903,-219.48912)"
     id="text1040"
     style="font-style:normal;font-variant:normal;font-weight:normal;font-stretch:normal;font-size:40px;line-height:1.25;font-family:PRIMETIME;-inkscape-font-specification:'PRIMETIME, Normal';font-variant-ligatures:normal;font-variant-caps:normal;font-variant-numeric:normal;font-variant-east-asian:normal;letter-spacing:0px;word-spacing:0px;white-space:pre;shape-inside:url(#rect1040);fill:#ffd500;fill-opacity:1;stroke:none"><tspan
       x="128.77148"
       y="458.12891"
       id="tspan1">MON</tspan></text><text
     xml:space="preserve"
     transform="matrix(0.80541237,0,0,0.80541237,-57.057866,-41.880713)"
     id="text3057"
     style="font-style:normal;font-variant:normal;font-weight:normal;font-stretch:normal;font-size:40px;line-height:1.25;font-family:PRIMETIME;-inkscape-font-specification:'PRIMETIME, Normal';font-variant-ligatures:normal;font-variant-caps:normal;font-variant-numeric:normal;font-variant-east-asian:normal;letter-spacing:0px;word-spacing:0px;white-space:pre;shape-inside:url(#rect3058);fill:#ffd500;fill-opacity:1;stroke:none"><tspan
       x="124.65039"
       y="107.87109"
       id="tspan2">INH</tspan></text></svg>
