<?xml version="1.0" encoding="UTF-8" standalone="no"?>
<!-- Created with Inkscape (http://www.inkscape.org/) -->

<svg
   width="149.75414mm"
   height="149.75417mm"
   viewBox="0 0 149.75413 149.75416"
   version="1.1"
   id="svg1"
   xml:space="preserve"
   sodipodi:docname="template-matricole-a.svg"
   xmlns:inkscape="http://www.inkscape.org/namespaces/inkscape"
   xmlns:sodipodi="http://sodipodi.sourceforge.net/DTD/sodipodi-0.dtd"
   xmlns="http://www.w3.org/2000/svg"
   xmlns:svg="http://www.w3.org/2000/svg"><sodipodi:namedview
     id="namedview1"
     pagecolor="#ffffff"
     bordercolor="#999999"
     borderopacity="1"
     inkscape:showpageshadow="2"
     inkscape:pageopacity="0"
     inkscape:pagecheckerboard="0"
     inkscape:deskcolor="#d1d1d1"
     inkscape:document-units="mm"
     inkscape:zoom="0.9707102"
     inkscape:cx="351.28919"
     inkscape:cy="300.2956"
     inkscape:window-width="1920"
     inkscape:window-height="991"
     inkscape:window-x="-9"
     inkscape:window-y="-9"
     inkscape:window-maximized="1"
     inkscape:current-layer="svg1" /><defs
     id="defs1"><rect
       x="128.7717"
       y="414.12979"
       width="302.87103"
       height="109.1984"
       id="rect1040" /><rect
       x="124.651"
       y="63.870762"
       width="290.50894"
       height="105.07771"
       id="rect3058" /></defs><path
     id="rect1-3"
     style="fill:#e87d7d;fill-opacity:1;stroke-width:0.295148"
     d="M 0,0 H 149.75414 V 149.75416 H 0 Z"
     inkscape:export-filename="..\b\B4.svg"
     inkscape:export-xdpi="347.36404"
     inkscape:export-ydpi="347.36404" /><path
     id="path6590"
     style="font-size:40px;line-height:1.25;font-family:PRIMETIME;-inkscape-font-specification:'PRIMETIME, Normal';letter-spacing:0px;word-spacing:0px;white-space:pre;fill:#000000;fill-opacity:0.31;stroke-width:0.761267"
     d="m 74.709652,19.999813 c -1.745899,0 -3.380045,0.335207 -4.902543,1.005106 -1.522499,0.6496 -2.852105,1.542625 -3.988904,2.679423 -0.676294,0.664277 -1.259802,1.409411 -1.770952,2.217436 v -0.01757 h -0.216007 v -0.261999 h -0.216008 v -0.262517 h -0.216007 v -0.261999 h -0.216008 v -0.262516 h -0.216007 v -0.262 h -0.216008 v -0.262516 h -0.216007 v -0.262 h -0.216007 v -0.262516 h -0.216008 v -0.261999 h -0.215491 v -0.262 H 61.671688 V 22.99963 H 61.45568 v -0.262 h -0.216007 v -0.262516 h -0.216008 v -0.262 h -0.216007 v -0.02636 -0.236161 H 60.59165 v -0.07338 -0.188619 h -0.216007 v -0.120923 -0.141594 h -0.216008 v -0.167431 -0.09457 h -0.216007 v -0.214974 -0.04754 H 59.72762 v -0.262 h -5.815665 c -0.1827,0 -0.345109,0.09108 -0.487309,0.273885 l -4.749581,7.879106 -0.0072,-0.0124 c -0.03715,-0.0478 -0.08196,-0.0725 -0.123506,-0.10697 l -0.0925,-0.155029 c -0.03718,-0.04784 -0.08195,-0.07297 -0.123507,-0.107487 l -0.0925,-0.154513 c -0.03708,-0.04769 -0.08157,-0.07301 -0.122989,-0.107487 l -0.09302,-0.155029 c -0.03701,-0.04764 -0.08163,-0.07248 -0.12299,-0.10697 L 47.8038,27.731641 c -0.037,-0.04761 -0.08166,-0.07247 -0.122989,-0.106971 l -0.09302,-0.155546 c -0.03719,-0.04778 -0.08198,-0.07288 -0.123507,-0.107487 l -0.0925,-0.154512 c -0.03699,-0.04756 -0.0817,-0.07243 -0.122989,-0.10697 l -0.09302,-0.155546 c -0.03723,-0.04789 -0.08193,-0.07277 -0.123507,-0.107487 l -0.0925,-0.154513 c -0.03706,-0.04767 -0.08165,-0.07233 -0.12299,-0.10697 l -0.09302,-0.155546 c -0.03719,-0.04785 -0.08199,-0.07274 -0.123507,-0.107487 l -0.0925,-0.154513 c -0.03726,-0.04794 -0.08192,-0.07319 -0.123507,-0.108003 l -0.0925,-0.153996 c -0.03701,-0.04762 -0.08172,-0.07227 -0.12299,-0.10697 l -0.09302,-0.155547 c -0.03704,-0.04764 -0.0817,-0.07224 -0.12299,-0.10697 l -0.09302,-0.155029 c -0.03699,-0.04758 -0.08176,-0.07224 -0.12299,-0.10697 l -0.09302,-0.155546 c -0.03724,-0.0479 -0.08199,-0.07258 -0.123507,-0.107487 l -0.0925,-0.154513 c -0.03723,-0.04786 -0.08202,-0.07257 -0.123507,-0.107487 l -0.0925,-0.155029 c -0.03707,-0.0477 -0.08169,-0.07211 -0.12299,-0.10697 l -0.09302,-0.15503 c -0.03714,-0.04779 -0.08162,-0.07256 -0.12299,-0.107487 l -0.09302,-0.154512 c -0.03692,-0.04752 -0.08138,-0.07214 -0.122474,-0.10697 l -0.09353,-0.155546 c -0.03702,-0.04765 -0.08176,-0.07205 -0.12299,-0.106971 l -0.0925,-0.155029 c -0.03715,-0.04779 -0.08214,-0.07248 -0.123506,-0.107487 l -0.0925,-0.155029 c -0.03685,-0.04741 -0.08149,-0.0716 -0.122473,-0.106454 l -0.0041,-0.0067 -0.0894,-0.148828 c -0.03723,-0.04789 -0.08205,-0.07289 -0.123506,-0.108003 l -0.01447,-0.02377 -0.07803,-0.130741 c -0.03702,-0.04762 -0.08181,-0.07196 -0.12299,-0.10697 l -0.02584,-0.04341 -0.06718,-0.111621 c -0.03718,-0.04783 -0.08214,-0.07236 -0.123506,-0.107487 l -0.03669,-0.0615 -0.05581,-0.09353 c -0.03721,-0.04785 -0.08212,-0.07232 -0.123507,-0.107487 l -0.04806,-0.0801 -0.04444,-0.07441 c -0.03705,-0.04767 -0.08179,-0.07238 -0.12299,-0.107487 l -0.05943,-0.0987 -0.03359,-0.05633 c -0.0372,-0.04783 -0.08216,-0.07227 -0.123507,-0.107487 l -0.07028,-0.117305 -0.02222,-0.03721 c -0.03702,-0.04761 -0.08187,-0.07184 -0.12299,-0.10697 l -0.08165,-0.136426 -0.01137,-0.01912 c -0.03724,-0.0479 -0.0821,-0.0722 -0.123507,-0.107487 l -0.0925,-0.154513 c -0.1421,-0.1828 -0.314282,-0.273885 -0.517282,-0.273885 h -5.785693 v 23.629565 h 0.216008 v 0.214974 0.04703 h 0.216007 v 0.167948 0.09457 h 0.216008 v 0.120406 0.141594 h 0.216007 v 0.0739 0.188619 h 0.216008 v 0.02635 0.235645 h 0.216007 v 0.262516 h 0.216008 V 46.1047 h 0.216007 v 0.262 h 0.216007 v 0.262516 h 0.216008 v 0.262 h 0.215491 v 0.262516 h 0.216007 v 0.261999 h 0.216008 v 0.262517 h 0.216007 v 0.261999 h 0.216008 v 0.262517 h 0.216007 v 0.261999 h 0.216008 v 0.262516 h 0.216007 v 0.262 h 0.216008 v 0.261999 h 0.216007 v 0.262517 h 0.216008 v 0.261999 h 0.216007 v 0.262516 h 0.216008 v 0.262 h 0.216007 v 0.262516 h 0.216008 v 0.262 h 0.216007 v 0.262516 h 0.216007 v 0.261999 h 0.216008 v 0.262 h 0.216007 v 0.262516 h 0.216008 v 0.262 h 0.216007 v 0.262516 h 0.216008 v 0.262 h 0.215491 v 0.262516 h 0.216007 v 0.261999 h 0.216008 v 0.262 h 0.216007 v 0.262516 h 0.216008 v 0.262 h 0.216007 v 0.262516 h 0.216008 v 0.261999 h 0.216007 v 0.262517 h 0.216008 v 0.261999 h 0.216007 v 0.262517 h 0.216008 v 0.261999 h 0.216007 v 0.262516 h 0.216007 v 0.262 h 0.216008 v 0.261999 h 0.216007 v 0.262517 h 0.216008 v 0.261999 h 0.216007 v 0.262516 h 0.216008 v 0.262 h 0.216007 v 0.262516 h 0.216008 v 0.262 h 0.216007 v 0.262516 h 0.216008 v 0.261999 h 0.216007 v 0.262 h 0.216008 v 0.262516 h 0.216007 v 0.262 h 0.216008 v 0.262516 h 0.216007 v 0.262 h 0.215491 v 0.262516 h 0.216008 v 0.261999 h 0.216007 v 0.262517 h 0.216007 v 0.261999 h 0.216008 v 0.262 h 0.216007 v 0.262516 h 0.216008 v 0.261999 h 0.216007 v 0.262517 h 0.216008 v 0.261999 h 0.216007 v 0.262516 h 0.216008 v 0.262 h 0.216007 v 0.262516 h 0.216008 v 0.262 h 0.216007 v 0.262516 h 0.216008 v 0.262 h 0.216007 v 0.261999 h 0.216008 v 0.262516 h 0.216007 v 0.262 h 0.216008 v 0.262516 h 0.216007 v 0.262 h 0.216008 v 0.262516 h 0.216007 v 0.261999 h 0.216008 v 0.262517 h 0.21549 v 0.261999 h 0.216008 v 0.262 h 0.216007 v 0.262516 h 0.216008 v 0.262 h 0.216007 v 0.262516 h 0.216008 v 0.261999 h 0.216007 v 0.262517 h 0.216008 v 0.261999 h 0.216007 v 0.262 h 0.216008 v 0.262516 h 0.216007 v 0.261999 h 0.216008 v 0.262517 h 0.216007 V 69.18079 H 56.6198 v 0.262516 h 0.216007 v 0.262 h 0.216008 v 0.262516 h 0.216007 v 0.262 h 0.216008 v 0.262516 h 0.216007 v 0.262 h 0.216008 v 0.262516 h 0.216007 v 0.261999 h 0.216008 v 0.262 h 0.21549 v 0.262516 h 0.216008 v 0.262 h 0.216007 v 0.262516 h 0.216008 v 0.261999 h 0.216007 v 0.262517 h 0.216008 V 73.1144 h 0.216007 v 0.262 h 0.216008 v 0.262516 h 0.216007 v 0.262 h 0.216008 v 0.262516 h 0.216007 v 0.261999 h 0.216008 v 0.262517 h 0.216007 v 0.261999 h 0.216008 v 0.262 h 0.216007 v 0.262516 h 0.216008 v 0.261999 h 0.216007 v 0.262517 h 0.216008 v 0.261999 h 0.216007 v 0.262516 h 0.216008 v 0.262 H 62.8835 v 0.262516 h 0.216008 v 0.262 h 0.216007 v 0.262516 h 0.216008 v 0.262 h 0.216007 v 0.262516 h 0.216008 v 0.261999 h 0.216007 v 0.262 h 0.216008 v 0.262516 h 0.21549 v 0.262 h 0.216008 v 0.262516 h 0.216007 v 0.261999 h 0.216008 v 0.262517 h 0.216007 v 0.261999 h 0.216008 v 0.262 h 0.216007 v 0.262516 h 0.216008 v 0.262 h 0.216007 v 0.262516 h 0.216008 v 0.261999 h 0.216007 v 0.262517 h 0.216008 v 0.261999 h 0.216007 v 0.262516 h 0.216008 v 0.262 h 0.216007 v 0.261999 h 0.216008 v 0.262517 h 0.216007 v 0.261999 h 0.216008 v 0.262516 h 0.216007 v 0.262 h 0.216008 v 0.262516 h 0.216007 v 0.262 h 0.216008 v 0.262516 h 0.21549 v 0.262 h 0.216008 v 0.262516 h 0.216007 v 0.261999 h 0.216008 v 0.262 h 0.216007 v 0.262516 h 0.216008 v 0.262 h 0.216007 v 0.262516 h 0.216008 v 0.261999 h 0.216007 v 0.262517 h 0.216008 v 0.261999 h 0.216007 v 0.262 h 0.216008 v 0.262516 h 0.216007 v 0.262 h 0.216008 v 0.262516 h 0.216007 v 0.261999 h 0.216008 v 0.262517 h 0.216007 v 0.261999 h 0.216008 v 0.262516 h 0.216007 v 0.262 h 0.216007 v 0.262516 h 0.216008 v 0.262 h 0.216007 v 0.261999 h 0.216008 v 0.262516 h 0.215491 v 0.262 h 0.216007 v 0.262516 h 0.216008 v 0.262 h 0.216007 v 0.262516 h 0.216008 v 0.262 h 0.216007 v 0.262516 h 0.216008 v 0.261999 h 0.216007 v 0.262 h 0.216008 v 0.262516 h 0.216007 v 0.262 h 0.216008 v 0.262516 h 0.216007 v 0.261999 h 0.216008 v 0.262517 h 0.216007 v 0.261999 h 0.216007 v 0.262516 h 0.216008 v 0.262 h 0.216007 v 0.261999 h 0.216008 v 0.262517 h 0.216007 v 0.261999 h 0.216008 v 0.262517 h 0.216007 v 0.261999 h 0.216008 v 0.262516 h 0.216007 v 0.262 h 0.216008 v 0.262516 h 0.216007 v 0.262 h 0.216008 v 0.261999 h 0.216007 v 0.262516 h 0.216008 v 0.262 h 0.215491 v 0.262516 h 0.216007 v 0.262 h 0.216008 v 0.262516 h 0.216007 v 0.262 h 0.216007 v 0.262516 h 0.216008 v 0.261999 h 0.216007 v 0.262517 h 0.216008 v 0.261998 h 0.216007 v 0.262 h 0.216008 v 0.26303 h 0.216007 v 0.262 h 0.216008 v 0.262 h 0.216007 v 0.262 h 0.216008 v 0.262 h 0.216007 v 0.26303 h 0.216008 v 0.262 h 0.216007 v 0.262 h 0.216008 v 0.262 h 0.216007 v 0.26304 h 0.216008 v 0.262 h 0.216007 v 0.262 h 0.216008 v 0.26199 h 0.21549 v 0.26304 h 0.216008 v 0.262 h 0.216007 v 0.262 h 0.216008 v 0.262 h 0.216007 v 0.262 h 0.216008 v 0.26251 h 0.216007 v 0.262 h 0.216008 v 0.262 h 0.216007 v 0.262 h 0.216008 v 0.26303 h 0.216007 v 0.262 h 0.216008 v 0.262 h 0.216007 v 0.262 h 0.216008 v 0.26304 h 0.216007 v 0.26199 H 88.3698 v 0.262 h 0.216007 v 0.262 h 0.192237 v 8.50956 c -0.01803,-0.0214 -0.03865,-0.0407 -0.05684,-0.062 -0.07257,-0.0904 -0.145343,-0.18061 -0.220659,-0.26872 -0.0722,-0.0899 -0.144191,-0.18002 -0.219108,-0.26768 -0.07252,-0.0903 -0.144894,-0.18068 -0.220141,-0.26872 -0.07176,-0.0894 -0.143129,-0.179 -0.217558,-0.26613 -0.0742,-0.0924 -0.148262,-0.18489 -0.22531,-0.27492 -0.0701,-0.0872 -0.140272,-0.17435 -0.212906,-0.25942 -0.07363,-0.0918 -0.146821,-0.1839 -0.223243,-0.27336 -0.07236,-0.0901 -0.144573,-0.18037 -0.219624,-0.26821 -0.07193,-0.0895 -0.143492,-0.17932 -0.218075,-0.26665 -0.07305,-0.0909 -0.145917,-0.1821 -0.221692,-0.27078 -0.07286,-0.0907 -0.145608,-0.18135 -0.221175,-0.26975 -0.07112,-0.0884 -0.141802,-0.17726 -0.215491,-0.26355 -0.0726,-0.0904 -0.144857,-0.18108 -0.220141,-0.26924 -0.07298,-0.0909 -0.145497,-0.18216 -0.221175,-0.27078 -0.0726,-0.0904 -0.145389,-0.18059 -0.220659,-0.26872 -0.07294,-0.0907 -0.145546,-0.18175 -0.221175,-0.27027 -0.07188,-0.0894 -0.143589,-0.17892 -0.218075,-0.26613 -0.07234,-0.09 -0.144655,-0.17989 -0.219624,-0.26768 -0.0718,-0.0893 -0.143171,-0.17898 -0.217558,-0.26614 -0.07301,-0.0908 -0.145493,-0.18216 -0.221175,-0.27078 -0.07249,-0.0901 -0.145023,-0.18025 -0.220142,-0.2682 -0.07196,-0.0895 -0.143538,-0.17929 -0.218074,-0.26665 -0.07309,-0.0909 -0.14594,-0.18206 -0.221692,-0.27079 -0.07227,-0.0898 -0.144246,-0.17999 -0.219108,-0.26768 -0.07257,-0.0902 -0.14496,-0.18066 -0.220142,-0.26872 -0.07305,-0.0908 -0.146009,-0.18164 -0.221692,-0.27027 -0.290234,-0.36054 -0.594292,-0.7095 -0.926042,-1.03559 l -10e-4,-10e-4 c -1.136799,-1.137 -2.476495,-2.02891 -4.019393,-2.67891 -1.522498,-0.67 -3.146556,-1.00511 -4.872054,-1.00511 -1.745898,0 -3.379945,0.33511 -4.902543,1.00511 -1.522499,0.65 -2.852622,1.54191 -3.989421,2.67891 -1.136799,1.11699 -2.040012,2.43745 -2.709912,3.95944 -0.187461,0.43951 -0.339968,0.88984 -0.473356,1.34617 -0.0258,-0.03 -0.05469,-0.0595 -0.08113,-0.0894 -0.07203,-0.0884 -0.140586,-0.17744 -0.218074,-0.2651 -0.07189,-0.0882 -0.140764,-0.17662 -0.218075,-0.26406 -0.07169,-0.088 -0.139971,-0.17637 -0.217041,-0.26355 -0.07103,-0.0872 -0.138159,-0.17508 -0.214457,-0.26148 -0.07236,-0.0888 -0.141284,-0.17814 -0.219108,-0.26614 -0.0723,-0.0886 -0.141379,-0.17776 -0.219108,-0.26562 -0.07108,-0.0871 -0.13866,-0.17469 -0.214974,-0.26096 -0.07188,-0.0881 -0.140329,-0.17675 -0.217558,-0.26407 -0.07115,-0.0872 -0.138588,-0.17504 -0.214974,-0.26148 -0.0714,-0.0875 -0.139355,-0.17524 -0.216008,-0.262 -0.07249,-0.0889 -0.141211,-0.17859 -0.219108,-0.26665 -0.0724,-0.0887 -0.141839,-0.17773 -0.219624,-0.26562 -0.07035,-0.0861 -0.136978,-0.17301 -0.212391,-0.25838 -0.07294,-0.0894 -0.142269,-0.17955 -0.220658,-0.2682 -0.07127,-0.0873 -0.139043,-0.17496 -0.215491,-0.26148 -0.07141,-0.0875 -0.139408,-0.17525 -0.216007,-0.262 -0.07214,-0.0884 -0.140647,-0.17748 -0.218075,-0.2651 -0.0719,-0.088 -0.139909,-0.17681 -0.217041,-0.26407 -0.07189,-0.088 -0.140446,-0.17629 -0.217558,-0.26355 -0.241473,-0.29565 -0.501246,-0.58858 -0.801501,-0.8754 -0.4669,-0.447 -0.974288,-0.84304 -1.522388,-1.18804 -0.548099,-0.365 -1.116623,-0.65018 -1.705322,-0.85318 -0.588799,-0.223 -1.167312,-0.33383 -1.735811,-0.33383 H 39.295276 v 23.62905 h 0.216007 v 0.21498 0.047 h 0.216008 v 0.16795 0.0941 h 0.216007 v 0.12092 0.14211 h 0.216008 v 0.0729 0.18913 h 0.216007 v 0.0258 0.23616 h 0.216008 v 0.262 h 0.216007 v 0.26304 h 0.216008 v 0.262 h 0.216007 v 0.26199 h 0.216008 v 0.262 h 0.216007 v 0.26304 h 0.215491 v 0.262 h 0.216007 v 0.262 h 0.216008 v 0.262 h 0.216007 v 0.262 h 0.216008 v 0.26303 h 0.216007 v 0.262 h 0.216008 v 0.262 h 0.216007 v 0.262 h 0.216008 v 0.26251 h 0.216007 v 0.262 h 0.216008 v 0.262 h 0.216007 v 0.262 h 0.216008 v 0.26303 h 0.216007 v 0.262 h 0.216008 v 0.262 h 0.216007 v 0.262 h 0.216008 v 0.262 h 0.216007 v 0.26304 h 0.216008 v 0.262 h 0.216007 v 0.26199 h 0.216008 v 0.262 h 0.216007 v 0.26304 h 0.216008 v 0.262 h 0.216007 v 0.262 h 0.216008 v 0.262 h 0.216007 v 0.26303 h 0.216008 v 0.262 h 0.216007 v 0.262 h 0.215491 v 0.262 h 0.216007 v 0.262 h 0.216008 v 0.26303 h 0.216007 v 0.262 h 0.216008 v 0.262 h 0.216007 v 0.262 h 0.216008 v 0.26303 h 0.216007 v 0.262 h 0.216008 v 0.262 h 0.216007 v 0.262 h 0.216008 v 0.26303 h 0.216007 v 0.262 h 0.216008 v 0.262 h 0.216007 v 0.262 h 0.216008 v 0.262 h 0.216007 v 0.26303 h 0.216008 v 0.262 h 0.216007 v 0.262 h 0.216008 v 0.262 h 0.216007 v 0.26304 h 0.216008 v 0.262 h 0.21549 v 0.26199 h 0.216008 v 0.262 h 0.216007 v 0.262 h 0.216008 v 0.26304 h 0.216007 v 0.262 h 0.216008 v 0.262 h 0.216007 v 0.262 h 0.216008 v 0.26303 h 0.216007 v 0.262 h 0.216008 v 0.262 h 0.216007 v 0.262 h 0.216008 v 0.26303 h 0.216007 v 0.262 h 0.216008 v 0.262 h 0.216007 v 0.262 h 0.216008 v 0.262 h 0.216007 v 0.26303 h 0.216008 v 0.262 h 0.216007 v 0.262 h 0.216008 v 0.262 h 0.216007 v 0.26303 h 0.216008 v 0.262 h 0.216007 v 0.262 h 0.216007 v 0.262 h 0.215491 v 0.26303 h 0.216008 v 0.262 h 0.216007 v 0.262 h 0.216008 v 0.262 h 0.216007 v 0.262 h 0.216008 v 0.26304 h 0.216007 v 0.262 h 0.216008 v 0.26199 h 0.216007 v 0.262 h 0.216008 v 0.26252 h 0.216007 v 0.262 h 0.216008 v 0.262 h 0.216007 v 0.262 h 0.216008 v 0.26303 h 0.216007 v 0.262 h 0.216008 v 0.262 h 0.216007 v 0.262 h 0.216007 v 0.262 h 0.216008 v 0.26303 h 0.216007 v 0.262 h 0.216008 v 0.262 h 0.216007 v 0.262 h 0.216008 v 0.26303 h 0.216007 v 0.262 h 0.216008 v 0.262 h 0.216007 v 0.262 h 0.215491 v 0.26304 h 0.216008 v 0.262 h 0.216007 v 0.262 h 0.216008 v 0.26199 h 0.216007 v 0.262 h 0.216008 v 0.26304 h 0.216007 v 0.262 h 0.216008 v 0.262 h 0.216007 v 0.262 h 0.216007 v 0.26303 h 0.216008 v 0.262 h 0.216007 v 0.262 h 0.216008 v 0.262 h 0.216007 v 0.26303 h 0.216008 v 0.262 h 0.216007 v 0.262 h 0.216008 v 0.262 h 0.216007 v 0.262 h 0.216008 v 0.26303 h 0.216007 v 0.262 h 0.216008 v 0.262 h 0.216007 v 0.262 h 0.215491 v 0.26303 h 0.216008 v 0.262 h 0.216007 v 0.262 h 0.216008 v 0.262 h 0.216007 v 0.26303 h 0.216007 v 0.262 h 0.216008 v 0.262 h 0.216007 v 0.262 h 0.216008 v 0.262 h 0.216007 v 0.26304 h 0.216008 v 0.262 h 0.216007 v 0.26199 h 0.216008 v 0.262 h 0.216007 v 0.26304 h 0.216008 v 0.262 h 0.216007 v 0.262 h 0.216008 v 0.262 h 0.216007 v 0.26303 h 0.216008 v 0.262 h 0.216007 v 0.262 h 0.216008 v 0.262 h 0.216007 v 0.262 h 0.216008 v 0.26303 h 0.216007 v 0.262 h 0.216008 v 0.262 h 0.216007 v 0.262 h 0.215491 v 0.26303 h 0.216007 v 0.262 h 0.216008 v 0.262 h 0.216007 v 0.262 h 0.216008 v 0.26252 h 0.216007 v 0.262 h 0.216008 v 0.262 h 0.216007 v 0.26199 h 0.216008 v 0.262 h 0.216007 v 0.26304 h 0.216008 v 0.262 h 0.216007 v 0.262 h 0.216008 v 0.262 h 0.216007 v 0.26303 h 0.216008 v 0.262 h 0.216007 v 0.262 h 0.216008 v 0.262 h 0.216007 v 0.26303 h 0.216008 v 0.262 h 0.216007 v 0.262 h 0.216008 v 0.262 h 0.216007 v 0.262 h 0.216008 v 0.26303 h 0.21549 v 0.262 h 0.216008 v 0.262 h 0.216007 v 0.262 h 0.216008 v 0.26303 h 0.216007 v 0.262 h 0.216008 v 0.262 h 0.216007 v 0.262 h 0.216008 v 0.262 h 0.216007 v 0.26303 h 0.216008 v 0.262 h 0.216007 v 0.262 h 0.216008 v 0.262 h 0.216007 v 0.26304 h 0.216008 v 0.262 h 0.216007 v 0.26199 h 0.216008 v 0.262 h 0.216007 v 0.26304 h 0.216008 v 0.262 h 0.216007 v 0.262 h 0.216008 v 0.262 h 0.216007 v 0.262 h 0.216008 v 0.26303 h 0.21549 v 0.262 h 0.216008 v 0.262 h 0.216007 v 0.262 h 0.216008 v 0.26303 h 0.216007 v 0.262 h 0.216008 v 0.262 h 0.216007 v 0.262 h 0.216008 v 0.26303 h 0.216007 v 0.262 h 0.216008 v 0.262 h 0.216007 v 0.262 h 0.216008 v 0.262 h 0.216007 v 0.26303 h 0.216008 v 0.262 h 0.216007 v 0.262 h 0.216008 v 0.262 h 0.216007 v 0.26303 h 0.216008 v 0.262 h 0.216007 v 0.262 h 0.216008 v 0.262 h 0.216007 v 0.26304 h 0.216008 v 0.262 h 0.216007 v 0.26199 h 0.216008 v 0.262 h 0.216007 v 0.262 h 0.216008 v 0.26304 h 0.216007 v 0.262 h 0.216007 v 0.262 h 0.215491 v 0.262 h 0.216008 v 0.26251 h 0.216007 v 0.26252 h 0.216008 v 0.262 h 0.216007 v 0.262 h 0.216008 v 0.26251 h 0.216007 v 0.262 h 0.216008 v 0.262 h 0.216007 v 0.262 h 0.216008 v 0.262 h 0.216007 v 0.26303 h 0.216008 v 0.262 h 0.216007 v 0.262 h 0.216008 v 0.262 h 0.216007 v 0.26304 h 0.216008 v 0.262 h 0.216007 v 0.262 h 0.216007 v 0.26199 h 0.216008 v 0.26304 h 0.216007 v 0.262 h 0.216008 v 0.262 h 0.216007 v 0.262 h 0.215491 v 0.262 h 0.216008 v 0.26303 h 0.216007 v 0.262 h 0.216008 v 0.262 h 0.216007 v 0.262 h 0.216008 v 0.26303 h 0.216007 v 0.262 h 0.216008 v 0.262 h 0.216007 v 0.262 h 0.216008 v 0.26303 h 0.216007 v 0.262 h 0.216008 v 0.262 h 0.216007 v 0.262 h 0.216007 v 0.262 h 0.216008 v 0.26303 h 0.216007 v 0.262 h 0.216008 v 0.262 h 0.216007 v 0.262 h 0.216008 v 0.26303 h 0.216007 v 0.262 h 0.216008 v 0.262 h 0.216007 v 0.262 h 0.216008 v 0.26304 h 0.215491 v 0.262 h 0.216007 v 0.262 h 0.216008 v 0.26199 h 0.216007 v 0.262 h 0.216008 v 0.26304 h 0.216011 v 0.262 h 0.216 v 0.262 h 0.21601 v 0.262 h 0.21601 v 0.26303 h 0.21601 v 0.262 h 0.216 v 0.262 h 0.21601 v 0.262 h 0.21601 v 0.26303 h 0.21601 v 0.262 h 0.216 v 0.262 h 0.21549 v 0.262 h 0.21601 v 0.262 h 0.21601 v 0.26303 h 0.21601 v 0.262 h 0.216 v 0.262 h 0.21601 v 0.262 h 0.21601 v 0.26303 h 0.21601 v 0.262 h 0.216 v 0.262 h 0.21601 v 0.262 h 0.21601 v 0.262 h 0.21601 v 0.26303 h 0.216 v 0.262 h 0.21601 v 0.262 h 0.21601 v 0.262 h 0.21601 v 0.26252 h 0.216 v 0.262 h 0.21601 v 0.262 h 0.21601 v 0.262 h 0.21601 v 0.26303 h 0.216 v 0.262 h 0.21601 v 0.262 h 0.21601 v 0.262 h 0.21601 v 0.262 h 0.216 v 0.26303 h 0.21601 v 0.262 h 0.21601 v 0.262 h 0.21601 v 0.262 h 0.216 v 0.26303 h 0.21601 v 0.262 h 0.21601 v 0.262 h 0.21601 v 0.262 h 0.216 v 0.26303 h 0.21601 v 0.262 h 0.21601 v 0.262 h 0.21601 v 0.262 h 0.216 v 0.262 h 0.21601 v 0.26304 h 0.21601 v 0.262 h 0.21601 v 0.26199 h 0.216 v 0.262 h 0.21601 v 0.26304 h 0.21601 v 0.262 h 0.21601 v 0.262 h 0.216 v 0.262 h 0.21601 v 0.26303 h 0.21601 v 0.262 h 0.21601 v 0.262 h 0.216 v 0.262 h 0.21601 v 0.262 h 0.21601 v 0.26303 h 0.21497 v 0.262 h 0.21601 v 0.262 h 0.21601 v 0.262 h 0.216 v 0.26303 h 0.21601 v 0.262 h 0.21601 v 0.262 h 0.21601 v 0.262 h 0.216 v 0.26303 h 0.21601 v 0.262 h 0.21601 v 0.262 h 0.21601 v 0.262 h 0.216 v 0.262 h 0.21601 v 0.26303 h 0.21601 v 0.262 h 0.21601 v 0.262 h 0.216 v 0.262 h 0.21601 v 0.26304 h 0.21601 v 0.262 h 0.21601 v 0.26199 h 0.216 v 0.262 h 0.21601 v 0.26304 h 0.21601 v 0.262 h 0.21601 v 0.262 h 0.21549 v 0.262 h 0.21601 v 0.262 h 0.216 v 0.26303 h 0.21601 v 0.262 h 0.21601 v 0.262 h 0.21601 v 0.262 h 0.216 v 0.26303 h 0.21601 v 0.262 h 0.21601 v 0.262 h 0.21601 v 0.262 h 0.216 v 0.26251 h 0.21601 v 0.262 h 0.21601 v 0.262 h 0.21601 v 0.262 h 0.216 v 0.262 h 0.21601 v 0.26304 h 0.21601 v 0.262 h 0.21601 v 0.262 h 0.216 v 0.26199 h 0.21601 v 0.26304 h 0.21601 v 0.262 h 0.21601 v 0.262 h 0.216 v 0.262 h 0.21601 v 0.26303 h 0.21601 v 0.262 h 0.21601 v 0.262 h 0.216 v 0.262 h 0.21601 v 0.262 h 0.21601 v 0.26303 h 0.21601 v 0.262 h 0.216 v 0.262 h 0.21601 v 0.262 h 0.21601 v 0.26303 h 0.216 v 0.262 H 125.69 v 0.262 h 0.21601 v 0.262 h 0.21601 v 0.26303 h 0.216 v 0.262 h 0.21601 v 0.262 h 0.21601 v 0.262 h 0.21601 v 0.262 h 0.216 v 0.26303 h 0.21601 v 0.262 h 0.21601 v 0.262 h 0.21601 v 0.262 h 0.216 v 0.26304 h 0.21601 v 0.262 h 0.21601 v 0.262 h 0.21497 v 0.26199 h 0.21601 v 0.262 h 0.21601 v 0.26304 h 0.21601 v 0.262 h 0.216 v 0.262 h 0.21601 v 0.262 h 0.21601 v 0.26303 h 0.21601 v 0.262 h 0.216 v 0.262 h 0.21601 v 0.262 h 0.21601 v 0.26303 h 0.21601 v 0.262 h 0.216 v 0.262 h 0.21601 v 0.262 h 0.21601 v 0.262 h 0.21601 v 0.26303 h 0.216 v 0.262 h 0.21601 v 0.262 h 0.21601 v 0.262 h 0.21601 v 0.26303 h 0.216 v 0.262 h 0.21601 v 0.262 h 0.21601 v 0.262 h 0.21601 v 0.26303 h 0.216 v 0.262 h 0.21549 v 0.262 h 0.21601 v 0.262 h 0.21601 v 0.262 h 0.21601 v 0.26304 h 0.216 v 0.262 h 0.21601 v 0.26199 h 0.21601 v 0.262 h 0.21601 v 0.26304 h 0.216 v 0.262 h 0.21601 v 0.262 h 0.21601 v 0.262 h 0.21601 v 0.26251 h 0.216 v 0.262 h 0.21601 v 0.262 h 0.21601 v 0.262 h 0.21601 v 0.262 h 0.216 v 0.26303 h 0.21601 v 0.262 h 0.21601 v 0.262 h 0.21601 v 0.262 h 0.216 v 0.26303 h 0.21601 v 0.262 h 0.21601 v 0.262 h 0.21601 v 0.262 h 0.216 v 0.26304 h 0.21601 v 0.262 h 0.21601 v 0.262 h 0.21601 v 0.26199 h 0.216 v 0.262 h 0.21601 v 0.26304 h 0.21601 v 0.262 h 0.21601 v 0.262 h 0.216 v 0.262 h 0.21601 v 0.26303 h 0.21601 v 0.262 h 0.21601 v 0.262 h 0.216 v 0.262 h 0.21601 v 0.26303 h 0.21601 v 0.262 h 0.21601 v 0.262 h 0.216 v 0.262 h 0.21601 v 0.262 h 0.21601 v 0.26303 h 0.21601 v 0.262 h 0.216 v 0.262 h 0.21601 v 0.262 h 0.21601 v 0.26303 h 0.20877 0.006 v 0.262 h 0.19689 0.0191 v 0.262 h 0.18397 0.032 v 0.262 h 0.17105 0.045 v 0.26303 h 0.15813 0.0579 v 0.262 h 0.1447 0.0713 v 0.262 h 0.13177 0.0842 v 0.262 h 0.11885 0.0971 v 0.262 h 0.10594 0.11007 v 0.26304 h 0.093 0.12299 v 0.262 h 0.0801 0.13591 v 0.26199 h 0.0667 0.14934 v 0.262 h 0.0538 0.16226 v 0.26304 h 0.0408 0.17518 v 0.262 h 0.0279 0.1881 v 0.262 h 0.0139 0.20205 v 0.262 h 0.001 6.51588 v -10e-4 l -0.031,-7.30705 h 10e-4 2.13992 l 0.12816,0.2279 h 0.0687 l 0.14727,0.262 h 0.0682 l 0.14779,0.26303 h 0.0687 l 0.14728,0.262 h 0.0687 l 0.14728,0.262 h 0.0687 l 0.14727,0.262 h 0.0687 l 0.14728,0.262 h 0.0682 l 0.1478,0.26303 h 0.0687 l 0.14728,0.262 h 0.0682 l 0.14728,0.262 h 0.0687 l 0.14727,0.262 h 0.0682 l 0.14779,0.26303 h 0.0687 l 0.14728,0.262 h 0.0687 l 0.14728,0.262 h 0.0687 l 0.14727,0.262 h 0.0682 l 0.14779,0.26303 h 0.0687 l 0.14728,0.262 h 0.0687 l 0.14728,0.262 h 0.0687 l 0.14727,0.262 h 0.0687 l 0.14728,0.262 h 0.0682 l 0.1478,0.26304 h 0.0687 l 0.14728,0.262 h 0.0687 l 0.14727,0.26199 h 0.0687 l 0.14728,0.262 h 0.0574 0.0109 l 0.1478,0.26304 h 0.0429 0.0248 l 0.14727,0.262 h 0.03 0.0387 l 0.14728,0.262 h 0.016 0.0527 l 0.14728,0.262 h 0.002 7.09311 l -5.54178,-9.74411 h 5.2e-4 c 0.68921,-0.48825 1.26662,-1.06246 1.74253,-1.71359 0.0667,0.0828 0.13472,0.16449 0.2036,0.24546 0.0693,0.0862 0.1392,0.17201 0.21084,0.25632 0.0705,0.0878 0.14206,0.17468 0.21498,0.26044 0.0698,0.087 0.14018,0.17342 0.21239,0.25839 0.0712,0.0888 0.14333,0.17683 0.21704,0.26355 0.0695,0.0866 0.13951,0.17273 0.21135,0.25735 0.0711,0.0886 0.14297,0.1765 0.21653,0.26303 0.0713,0.0887 0.14331,0.17686 0.21704,0.26355 0.0687,0.0856 0.13826,0.17056 0.20929,0.25425 0.0713,0.0888 0.14325,0.17726 0.21704,0.26406 0.0703,0.0876 0.14171,0.17435 0.21446,0.25994 0.0703,0.0875 0.14127,0.17442 0.21394,0.25993 0.0698,0.0869 0.14023,0.17338 0.21239,0.25838 0.0718,0.0894 0.14432,0.17826 0.21859,0.26562 0.0698,0.0869 0.14073,0.17291 0.21291,0.25786 0.0696,0.0867 0.13944,0.17311 0.21135,0.25787 0.0706,0.0879 0.14203,0.17504 0.21498,0.26096 0.0713,0.0889 0.1433,0.17721 0.21704,0.26407 0.0703,0.0875 0.14132,0.17438 0.21394,0.25993 0.0703,0.0875 0.14132,0.17438 0.21394,0.25994 0.0697,0.0868 0.14033,0.17294 0.21239,0.25786 0.0713,0.0888 0.14331,0.1772 0.21704,0.26407 0.0702,0.0874 0.1414,0.17395 0.21394,0.25941 0.0704,0.0876 0.14123,0.1748 0.21394,0.26045 0.0706,0.0878 0.14204,0.17506 0.21497,0.26097 0.0704,0.0877 0.1417,0.17469 0.21446,0.26045 0.0696,0.0866 0.14,0.17259 0.21187,0.25735 0.0711,0.0885 0.14303,0.17643 0.21653,0.26303 0.0703,0.0875 0.14132,0.17435 0.21394,0.25993 0.28761,0.35777 0.5892,0.70393 0.91519,1.02991 l 0.001,0.001 c 1.137,1.11599 2.46691,1.99945 3.98891,2.64945 h 0.001 c 1.522,0.65 3.15599,0.97358 4.90099,0.97358 h 0.002 c 1.725,0 3.34799,-0.32458 4.86999,-0.97358 l 0.001,-0.001 c 1.543,-0.649 2.88188,-1.53245 4.01888,-2.64945 h 0.001 c 0.85014,-0.85089 1.56393,-1.80942 2.14147,-2.87579 h 0.0202 v 0.262 h 0.216 v 0.26303 h 0.21601 v 0.262 h 0.21601 v 0.262 h 0.21601 v 0.262 h 0.216 v 0.26303 h 0.20826 0.008 v 0.262 h 0.19534 0.0207 v 0.262 h 0.18242 0.0336 v 0.262 h 0.16898 0.047 v 0.26303 h 0.15607 0.0599 v 0.262 h 0.14314 0.0729 v 0.262 h 0.13022 0.0858 v 0.262 h 0.1173 0.0987 v 0.262 h 0.10387 0.11214 v 0.26304 h 0.091 0.12506 v 0.262 h 0.078 0.13798 v 0.26199 h 0.0651 0.15089 v 0.262 h 0.0522 0.16381 v 0.26304 h 0.0393 0.17674 v 0.262 h 0.0258 0.19017 v 0.262 h 0.0129 0.20309 v 0.262 h 6.51588 l -0.03,-7.30809 h 2.13992 l 0.12816,0.2279 h 0.0687 l 0.14728,0.262 h 0.0682 l 0.1478,0.26303 h 0.0687 l 0.14728,0.262 h 0.0687 l 0.14728,0.262 h 0.0687 l 0.14728,0.262 h 0.0687 l 0.14728,0.262 h 0.0682 l 0.14779,0.26303 h 0.0687 l 0.14728,0.262 h 0.0687 l 0.14728,0.262 h 0.0687 l 0.14728,0.262 h 0.0682 l 0.14779,0.26303 h 0.0687 l 0.14728,0.262 h 0.0687 l 0.14728,0.262 h 0.0687 l 0.14727,0.262 h 0.0682 l 0.14779,0.26303 h 0.0687 l 0.14728,0.262 h 0.0687 l 0.14728,0.262 h 0.0687 l 0.14727,0.262 h 0.0687 l 0.14728,0.262 h 0.0682 l 0.14779,0.26304 h 0.0687 l 0.14728,0.262 h 0.0687 l 0.14727,0.26199 h 0.0687 l 0.14728,0.262 h 0.0558 0.0124 l 0.14779,0.26304 h 0.0419 0.0269 l 0.14728,0.262 h 0.0279 0.0408 l 0.14727,0.262 h 0.014 0.0548 l 0.14728,0.262 h 7.09466 l -5.54178,-9.74411 c 0.974,-0.69 1.7361,-1.54299 2.2841,-2.55799 0.548,-1.01499 0.82165,-2.11117 0.82165,-3.28817 0,-0.711 -0.11189,-1.4516 -0.33589,-2.2226 -0.203,-0.792 -0.50713,-1.48219 -0.91313,-2.07119 -0.17818,-0.25628 -0.38227,-0.50914 -0.60358,-0.75965 -0.0715,-0.0875 -0.13986,-0.1752 -0.21652,-0.26199 -0.0714,-0.0874 -0.13942,-0.17528 -0.21601,-0.262 -0.072,-0.0883 -0.14024,-0.17704 -0.21756,-0.26459 -0.0722,-0.0885 -0.14104,-0.17735 -0.21859,-0.2651 -0.0715,-0.0875 -0.13982,-0.1752 -0.21652,-0.262 -0.0716,-0.0877 -0.13913,-0.17606 -0.21601,-0.26303 -0.0725,-0.0889 -0.14173,-0.17799 -0.21962,-0.26613 -0.0719,-0.088 -0.14045,-0.17629 -0.21756,-0.26355 -0.0715,-0.0876 -0.13979,-0.17568 -0.21653,-0.26252 -0.0727,-0.0891 -0.14198,-0.1789 -0.22014,-0.26717 -0.0715,-0.0876 -0.13972,-0.17573 -0.21652,-0.26251 -0.0702,-0.086 -0.13661,-0.17263 -0.21188,-0.25787 -0.0735,-0.0902 -0.14408,-0.18086 -0.22324,-0.27027 -0.0713,-0.0874 -0.1394,-0.1754 -0.21601,-0.262 -0.0699,-0.0857 -0.13635,-0.17186 -0.21135,-0.25683 -0.0745,-0.0915 -0.14554,-0.18376 -0.22583,-0.2744 -0.0709,-0.0868 -0.13882,-0.17386 -0.21497,-0.25993 -0.0713,-0.0874 -0.13935,-0.17533 -0.21601,-0.262 -0.0713,-0.0874 -0.1394,-0.17538 -0.21601,-0.262 -0.0716,-0.0879 -0.13995,-0.17637 -0.21704,-0.26355 -0.0721,-0.0885 -0.14099,-0.1774 -0.21859,-0.2651 -0.071,-0.087 -0.13873,-0.17423 -0.21497,-0.26045 -0.0727,-0.0893 -0.1418,-0.17919 -0.22015,-0.26768 -0.072,-0.0884 -0.14104,-0.17699 -0.21859,-0.26459 -0.0708,-0.0869 -0.1383,-0.17431 -0.21445,-0.26045 -0.0714,-0.0878 -0.13965,-0.17604 -0.21653,-0.26303 -0.0725,-0.089 -0.14201,-0.17842 -0.22014,-0.26665 -0.0708,-0.0869 -0.13826,-0.1743 -0.21446,-0.26045 -0.0717,-0.0882 -0.14027,-0.17667 -0.21755,-0.26407 -0.0723,-0.0888 -0.14163,-0.17808 -0.21963,-0.26613 -0.0713,-0.0876 -0.13964,-0.17564 -0.21652,-0.26252 -0.0707,-0.0868 -0.13835,-0.17385 -0.21446,-0.25993 -0.0721,-0.0886 -0.14088,-0.17773 -0.21859,-0.26562 -0.0722,-0.0887 -0.14124,-0.17766 -0.21911,-0.26561 -0.0713,-0.0876 -0.13966,-0.17563 -0.21652,-0.26252 -0.0721,-0.0887 -0.14136,-0.17776 -0.21911,-0.26562 -0.0704,-0.0865 -0.13759,-0.1736 -0.21343,-0.25941 -0.0724,-0.0891 -0.14199,-0.17887 -0.22014,-0.26717 -0.0721,-0.0888 -0.14128,-0.17819 -0.21911,-0.26613 -0.0706,-0.0869 -0.13887,-0.17389 -0.21497,-0.25993 -0.0722,-0.089 -0.1416,-0.17854 -0.21962,-0.26665 -0.0712,-0.0876 -0.13972,-0.17572 -0.21653,-0.26252 -0.07,-0.0862 -0.13693,-0.173 -0.21239,-0.25838 -0.073,-0.0899 -0.14329,-0.18019 -0.22221,-0.26924 -0.0715,-0.088 -0.14032,-0.17639 -0.21756,-0.26355 -0.0702,-0.0863 -0.13724,-0.17333 -0.2129,-0.2589 -0.073,-0.0899 -0.14329,-0.18019 -0.22221,-0.26923 -0.0707,-0.0871 -0.13861,-0.17471 -0.21497,-0.26097 -0.0709,-0.0873 -0.13894,-0.17499 -0.2155,-0.26148 -0.072,-0.0887 -0.14132,-0.17775 -0.2191,-0.26562 -0.0715,-0.0881 -0.14027,-0.17676 -0.21756,-0.26406 -0.0717,-0.0884 -0.14102,-0.17704 -0.21859,-0.26459 -0.0701,-0.0864 -0.13719,-0.17329 -0.21291,-0.25889 -0.0715,-0.0882 -0.1402,-0.17666 -0.21756,-0.26407 -0.0725,-0.0895 -0.14266,-0.17905 -0.22117,-0.26769 -0.0705,-0.087 -0.13825,-0.1743 -0.21446,-0.26044 -0.0711,-0.0877 -0.13963,-0.17561 -0.21652,-0.26252 -0.0723,-0.0892 -0.14183,-0.17878 -0.22015,-0.26717 -0.0709,-0.0875 -0.13922,-0.17527 -0.216,-0.262 -0.0708,-0.0873 -0.13891,-0.17495 -0.21549,-0.26148 -0.0715,-0.0881 -0.14017,-0.17673 -0.21756,-0.26407 -0.0714,-0.0882 -0.14015,-0.1767 -0.21756,-0.26406 -0.072,-0.0889 -0.14158,-0.17803 -0.21962,-0.26614 -0.0709,-0.0875 -0.13931,-0.17531 -0.21601,-0.262 -0.0717,-0.0886 -0.14087,-0.17736 -0.21859,-0.2651 -0.0712,-0.0879 -0.13995,-0.176 -0.21704,-0.26303 -0.0711,-0.088 -0.13993,-0.17646 -0.21705,-0.26355 -0.0709,-0.0876 -0.13915,-0.17579 -0.216,-0.26252 -0.0722,-0.0892 -0.14227,-0.17884 -0.22066,-0.26716 -0.0701,-0.0866 -0.13749,-0.17371 -0.21342,-0.25942 -0.0719,-0.089 -0.14153,-0.17805 -0.21963,-0.26613 -0.0715,-0.0884 -0.14097,-0.1771 -0.21859,-0.26459 -0.0703,-0.087 -0.13819,-0.17437 -0.21446,-0.26044 -0.0709,-0.0877 -0.13913,-0.17576 -0.21601,-0.26252 -0.0718,-0.0888 -0.14114,-0.17779 -0.2191,-0.26562 -0.0715,-0.0886 -0.14084,-0.17741 -0.21859,-0.2651 -0.0702,-0.0868 -0.13784,-0.17402 -0.21395,-0.25993 -0.0715,-0.0885 -0.14081,-0.17746 -0.21859,-0.2651 -0.0709,-0.0879 -0.13944,-0.17608 -0.21652,-0.26303 -0.0715,-0.0886 -0.14084,-0.17739 -0.21859,-0.2651 -0.0712,-0.0881 -0.14024,-0.17636 -0.21756,-0.26355 -0.0718,-0.0889 -0.14147,-0.17813 -0.21962,-0.26614 -0.0702,-0.0867 -0.13826,-0.17353 -0.21446,-0.25941 -0.0711,-0.0881 -0.13971,-0.1768 -0.21704,-0.26407 -0.0709,-0.0878 -0.13937,-0.17606 -0.21653,-0.26303 -0.0716,-0.0886 -0.14116,-0.17733 -0.21911,-0.2651 -0.0712,-0.0882 -0.14007,-0.17675 -0.21755,-0.26407 -0.0702,-0.0869 -0.13821,-0.17384 -0.21446,-0.25993 -0.072,-0.0894 -0.1416,-0.1792 -0.22014,-0.26769 -0.0706,-0.0875 -0.13912,-0.1753 -0.21601,-0.26199 -0.0708,-0.0877 -0.13948,-0.17564 -0.21652,-0.26252 -0.0714,-0.0885 -0.14073,-0.17745 -0.21859,-0.2651 -0.0715,-0.0888 -0.14114,-0.17776 -0.21911,-0.26562 -0.0706,-0.0875 -0.13914,-0.17537 -0.21601,-0.262 -0.0701,-0.0871 -0.13812,-0.1743 -0.21446,-0.26045 -0.0714,-0.0889 -0.14111,-0.17779 -0.21911,-0.26561 -0.0713,-0.0886 -0.14078,-0.17748 -0.21859,-0.2651 -0.0702,-0.0872 -0.13845,-0.1747 -0.21497,-0.26097 -0.0714,-0.0887 -0.14063,-0.17789 -0.21859,-0.26562 -0.072,-0.0893 -0.14254,-0.17882 -0.22118,-0.26716 -0.0686,-0.0852 -0.13457,-0.17099 -0.20929,-0.25529 -0.0724,-0.0902 -0.1434,-0.18053 -0.22272,-0.26975 -0.0707,-0.0878 -0.13979,-0.17614 -0.21704,-0.26303 -0.07,-0.0871 -0.1385,-0.17428 -0.21498,-0.26045 -0.0705,-0.0878 -0.13894,-0.17612 -0.216,-0.26303 -0.0722,-0.0899 -0.14311,-0.17979 -0.22221,-0.26872 -0.0703,-0.0874 -0.13867,-0.17503 -0.21549,-0.26148 -0.07,-0.087 -0.13806,-0.1744 -0.21446,-0.26045 -0.0715,-0.0889 -0.14135,-0.17818 -0.21963,-0.26613 -0.0705,-0.0877 -0.13937,-0.17569 -0.21652,-0.26252 -0.0713,-0.0887 -0.141,-0.1778 -0.21911,-0.26562 -0.0706,-0.0879 -0.13928,-0.17609 -0.21652,-0.26303 -0.0701,-0.0872 -0.13829,-0.17468 -0.21498,-0.26097 -0.0717,-0.0894 -0.142,-0.17921 -0.22066,-0.26768 -0.0696,-0.0867 -0.13776,-0.17358 -0.21394,-0.25942 -0.0703,-0.0877 -0.13889,-0.1757 -0.216,-0.26251 -0.072,-0.0898 -0.1426,-0.17987 -0.2217,-0.26872 -0.0705,-0.0879 -0.1397,-0.17603 -0.21704,-0.26303 -0.0696,-0.0866 -0.13729,-0.17367 -0.21342,-0.25942 -0.0722,-0.0901 -0.14338,-0.18013 -0.22273,-0.26923 -0.0695,-0.0867 -0.13728,-0.17371 -0.21342,-0.25942 -0.0703,-0.0878 -0.13896,-0.17569 -0.21601,-0.26251 -0.0716,-0.0894 -0.14198,-0.17876 -0.22065,-0.26717 -0.0705,-0.088 -0.13968,-0.17605 -0.21705,-0.26304 -0.0699,-0.0872 -0.1383,-0.17477 -0.21497,-0.26096 -0.0704,-0.088 -0.13962,-0.17606 -0.21704,-0.26303 -0.0711,-0.089 -0.1408,-0.17865 -0.21911,-0.26665 -0.0704,-0.088 -0.13969,-0.17608 -0.21704,-0.26304 -0.0709,-0.0888 -0.14108,-0.17742 -0.21911,-0.2651 -0.0838,-0.10472 -0.16977,-0.20943 -0.26355,-0.31264 -0.008,-0.01 -0.0162,-0.019 -0.0248,-0.0284 -0.007,-0.0109 -0.0122,-0.0243 -0.0196,-0.0351 -0.0539,-0.0775 -0.12806,-0.15167 -0.19637,-0.22686 -0.007,-0.0109 -0.0122,-0.0243 -0.0196,-0.0351 -0.0534,-0.0773 -0.12815,-0.15129 -0.19637,-0.22634 -0.007,-0.011 -0.0121,-0.0247 -0.0196,-0.0357 -0.0538,-0.0776 -0.12867,-0.15198 -0.19689,-0.22738 -0.007,-0.0107 -0.0118,-0.024 -0.0191,-0.0346 -0.0538,-0.0774 -0.12816,-0.15167 -0.19586,-0.22686 -0.008,-0.0112 -0.0125,-0.0251 -0.0202,-0.0362 -0.0536,-0.0772 -0.1287,-0.1519 -0.19689,-0.22738 -0.007,-0.0107 -0.0118,-0.024 -0.0191,-0.0346 -0.0539,-0.0773 -0.12886,-0.15178 -0.19688,-0.22738 -0.007,-0.0107 -0.0118,-0.024 -0.0191,-0.0346 -0.0537,-0.0782 -0.12918,-0.15267 -0.19741,-0.22841 -0.007,-0.0104 -0.0115,-0.0233 -0.0186,-0.0336 -0.0532,-0.0772 -0.12821,-0.15094 -0.19534,-0.22583 -0.008,-0.0115 -0.0128,-0.0258 -0.0207,-0.0372 -0.0539,-0.0773 -0.12924,-0.15188 -0.19689,-0.22737 -0.007,-0.0107 -0.0118,-0.024 -0.0191,-0.0346 -0.0532,-0.077 -0.12904,-0.15117 -0.19637,-0.22635 -0.007,-0.011 -0.0121,-0.0247 -0.0196,-0.0357 -0.0539,-0.0777 -0.12961,-0.1525 -0.19741,-0.22841 -0.007,-0.0104 -0.0115,-0.0233 -0.0186,-0.0336 -0.0538,-0.0773 -0.12876,-0.1518 -0.19586,-0.22738 -0.007,-0.0111 -0.0126,-0.0247 -0.0202,-0.0357 -0.0534,-0.0772 -0.1292,-0.15107 -0.19637,-0.22634 -0.007,-0.011 -0.0121,-0.0247 -0.0196,-0.0357 -0.0534,-0.077 -0.12872,-0.15076 -0.19533,-0.22582 -0.008,-0.0112 -0.0125,-0.0251 -0.0202,-0.0362 -0.054,-0.0776 -0.12991,-0.15219 -0.19688,-0.22789 -0.007,-0.0106 -0.0119,-0.0236 -0.0191,-0.0341 -0.0532,-0.077 -0.12939,-0.15036 -0.19586,-0.2253 -0.008,-0.0113 -0.0124,-0.0255 -0.0202,-0.0367 -0.0532,-0.0768 -0.1288,-0.14996 -0.19482,-0.2248 -0.008,-0.0118 -0.0131,-0.0265 -0.0212,-0.0382 -0.0533,-0.077 -0.12965,-0.15092 -0.19637,-0.22634 -0.007,-0.011 -0.0121,-0.0247 -0.0196,-0.0357 -0.0532,-0.0772 -0.12962,-0.15036 -0.19585,-0.22531 -0.008,-0.0113 -0.0124,-0.0255 -0.0202,-0.0367 -0.0536,-0.0775 -0.12999,-0.15107 -0.19638,-0.22634 -0.007,-0.011 -0.0121,-0.0247 -0.0196,-0.0357 -0.0531,-0.0772 -0.12934,-0.15076 -0.19534,-0.22582 -0.008,-0.0115 -0.0128,-0.0258 -0.0207,-0.0372 -0.0532,-0.0766 -0.12957,-0.14992 -0.19534,-0.22479 -0.008,-0.0115 -0.0128,-0.0258 -0.0207,-0.0372 -0.0537,-0.0771 -0.13021,-0.15092 -0.19637,-0.22634 -0.007,-0.011 -0.0121,-0.0247 -0.0196,-0.0357 -0.0532,-0.0769 -0.12994,-0.15051 -0.19586,-0.22582 -0.008,-0.0112 -0.0125,-0.0251 -0.0202,-0.0362 -0.0532,-0.0771 -0.12931,-0.15035 -0.19482,-0.22531 -0.008,-0.0117 -0.0132,-0.0261 -0.0212,-0.0377 -0.0532,-0.0772 -0.13038,-0.15091 -0.19637,-0.22634 -0.007,-0.011 -0.0121,-0.0247 -0.0196,-0.0357 -0.053,-0.0767 -0.12985,-0.1498 -0.19533,-0.22479 -0.008,-0.0115 -0.0128,-0.0258 -0.0207,-0.0372 -0.0534,-0.077 -0.13032,-0.15051 -0.19586,-0.22583 -0.008,-0.0112 -0.0125,-0.0251 -0.0201,-0.0362 -0.0535,-0.0777 -0.13083,-0.15194 -0.19689,-0.22789 -0.007,-0.0106 -0.0119,-0.0236 -0.0191,-0.0341 -0.0531,-0.0768 -0.13011,-0.15013 -0.19534,-0.22531 -0.008,-0.0117 -0.0127,-0.0262 -0.0207,-0.0377 -0.0537,-0.0774 -0.13079,-0.15133 -0.19637,-0.22686 -0.007,-0.0109 -0.0122,-0.0243 -0.0196,-0.0351 -0.0535,-0.0778 -0.13101,-0.15205 -0.19689,-0.22789 -0.007,-0.0106 -0.0119,-0.0236 -0.0191,-0.0341 -0.0534,-0.0774 -0.13102,-0.15086 -0.19637,-0.22634 -0.007,-0.011 -0.0121,-0.0248 -0.0196,-0.0357 -0.0533,-0.077 -0.13045,-0.15014 -0.19534,-0.22531 -0.008,-0.0117 -0.0127,-0.0262 -0.0207,-0.0377 -0.0536,-0.0774 -0.1312,-0.15194 -0.19688,-0.2279 -0.007,-0.0106 -0.0119,-0.0236 -0.0191,-0.0341 -0.0535,-0.0771 -0.13116,-0.15122 -0.19638,-0.22686 -0.007,-0.0109 -0.0122,-0.0243 -0.0196,-0.0351 -0.0534,-0.0774 -0.13137,-0.15193 -0.19689,-0.2279 -0.007,-0.0106 -0.0119,-0.0236 -0.0191,-0.0341 -0.0529,-0.0769 -0.13038,-0.14972 -0.19482,-0.22479 -0.008,-0.0118 -0.0131,-0.0265 -0.0212,-0.0383 -0.0535,-0.0771 -0.13136,-0.15072 -0.19637,-0.22634 -0.007,-0.011 -0.0121,-0.0247 -0.0196,-0.0357 -0.0534,-0.0774 -0.1317,-0.15145 -0.19689,-0.22738 -0.007,-0.0107 -0.0118,-0.024 -0.0191,-0.0346 -0.0528,-0.0763 -0.12985,-0.14943 -0.19379,-0.22428 -0.008,-0.0117 -0.0132,-0.0261 -0.0212,-0.0377 -0.054,-0.0772 -0.13153,-0.15115 -0.19637,-0.22686 -0.007,-0.0109 -0.0122,-0.0244 -0.0196,-0.0351 -0.0534,-0.0768 -0.13103,-0.14997 -0.19534,-0.22531 -0.008,-0.0117 -0.0127,-0.0262 -0.0207,-0.0377 -0.0533,-0.0765 -0.13075,-0.14897 -0.19482,-0.22376 -0.008,-0.0119 -0.0131,-0.0265 -0.0212,-0.0382 -0.0537,-0.0768 -0.13118,-0.14969 -0.19534,-0.22479 -0.008,-0.0115 -0.0128,-0.0258 -0.0207,-0.0372 -0.0536,-0.0771 -0.13139,-0.15041 -0.19585,-0.22582 -0.008,-0.0112 -0.0125,-0.0251 -0.0202,-0.0362 -0.0532,-0.0764 -0.13063,-0.14898 -0.19431,-0.22376 -0.008,-0.0122 -0.0134,-0.0272 -0.0217,-0.0393 -0.0533,-0.0765 -0.13126,-0.14961 -0.19534,-0.22479 -0.008,-0.0115 -0.0128,-0.0258 -0.0207,-0.0372 -0.0536,-0.0768 -0.13156,-0.15033 -0.19585,-0.22582 -0.008,-0.0112 -0.0125,-0.0251 -0.0202,-0.0362 -0.0535,-0.0769 -0.13149,-0.1497 -0.19533,-0.22479 -0.008,-0.0115 -0.0128,-0.0258 -0.0207,-0.0372 -0.0532,-0.077 -0.13147,-0.14953 -0.19534,-0.22479 -0.008,-0.0117 -0.0127,-0.0262 -0.0207,-0.0377 -0.0534,-0.0765 -0.13159,-0.14966 -0.19534,-0.2248 -0.008,-0.0115 -0.0128,-0.0258 -0.0207,-0.0372 -0.0539,-0.077 -0.13218,-0.15068 -0.19637,-0.22635 -0.007,-0.011 -0.0121,-0.0247 -0.0196,-0.0357 -0.0537,-0.0772 -0.13214,-0.15102 -0.19637,-0.22686 -0.007,-0.0109 -0.0122,-0.0243 -0.0196,-0.0351 -0.0536,-0.0769 -0.13208,-0.1503 -0.19586,-0.22583 -0.008,-0.0112 -0.0125,-0.0251 -0.0202,-0.0362 -0.0535,-0.0769 -0.13145,-0.14966 -0.19482,-0.22479 -0.008,-0.0119 -0.0131,-0.0265 -0.0212,-0.0382 -0.0536,-0.0772 -0.13247,-0.15069 -0.19637,-0.22635 -0.007,-0.011 -0.0121,-0.0247 -0.0196,-0.0357 -0.0536,-0.0769 -0.13217,-0.15039 -0.19585,-0.22583 -0.008,-0.0112 -0.0125,-0.0251 -0.0202,-0.0362 -0.0536,-0.0773 -0.13244,-0.15103 -0.19637,-0.22686 -0.007,-0.0109 -0.0122,-0.0243 -0.0196,-0.0351 -0.0534,-0.077 -0.13181,-0.15032 -0.19534,-0.22583 -0.008,-0.0115 -0.0128,-0.0258 -0.0207,-0.0372 -0.0537,-0.0767 -0.13232,-0.15033 -0.19585,-0.22582 -0.008,-0.0112 -0.0125,-0.0251 -0.0202,-0.0362 -0.0536,-0.0774 -0.13266,-0.15112 -0.19637,-0.22686 -0.007,-0.0109 -0.0122,-0.0243 -0.0196,-0.0351 -0.0539,-0.0777 -0.13295,-0.15184 -0.19689,-0.2279 -0.007,-0.0106 -0.0119,-0.0236 -0.0191,-0.0341 -0.0534,-0.0767 -0.1319,-0.14965 -0.19482,-0.2248 -0.008,-0.0119 -0.0131,-0.0265 -0.0212,-0.0382 -0.0536,-0.0771 -0.13267,-0.15093 -0.19637,-0.22686 -0.007,-0.0109 -0.0122,-0.0243 -0.0196,-0.0351 -0.0539,-0.0773 -0.13317,-0.15124 -0.19688,-0.22737 -0.007,-0.0107 -0.0118,-0.024 -0.0191,-0.0346 -0.0535,-0.0771 -0.13281,-0.15094 -0.19637,-0.22686 -0.007,-0.0109 -0.0122,-0.0243 -0.0196,-0.0351 -0.0534,-0.0772 -0.1322,-0.15071 -0.19534,-0.22634 -0.008,-0.0114 -0.0129,-0.0254 -0.0207,-0.0367 -0.0536,-0.0769 -0.13276,-0.15026 -0.19585,-0.22582 -0.008,-0.0113 -0.0125,-0.0251 -0.0202,-0.0362 -0.0534,-0.077 -0.13264,-0.15065 -0.19585,-0.22634 -0.007,-0.0111 -0.0126,-0.0247 -0.0202,-0.0357 -0.0539,-0.0776 -0.13335,-0.15167 -0.19689,-0.22789 -0.007,-0.0106 -0.0119,-0.0236 -0.0191,-0.0341 -0.0536,-0.077 -0.13281,-0.15019 -0.19585,-0.22582 -0.008,-0.0112 -0.0125,-0.0251 -0.0202,-0.0362 -0.0532,-0.0767 -0.13213,-0.1499 -0.19482,-0.22531 -0.008,-0.0118 -0.0132,-0.0261 -0.0212,-0.0377 -0.0537,-0.0773 -0.13332,-0.15057 -0.19637,-0.22634 -0.007,-0.0111 -0.0121,-0.0247 -0.0196,-0.0357 -0.0536,-0.077 -0.13307,-0.14981 -0.19586,-0.22531 -0.008,-0.0114 -0.0124,-0.0255 -0.0202,-0.0367 -0.0535,-0.0772 -0.13298,-0.15062 -0.19585,-0.22634 -0.007,-0.0111 -0.0126,-0.0247 -0.0202,-0.0357 -0.0535,-0.0771 -0.13262,-0.15022 -0.19533,-0.22582 -0.008,-0.0116 -0.0128,-0.0258 -0.0207,-0.0372 -0.0533,-0.0768 -0.13308,-0.15011 -0.19585,-0.22583 -0.008,-0.0112 -0.0125,-0.025 -0.0201,-0.0362 -0.0536,-0.0771 -0.13336,-0.15083 -0.19637,-0.22686 -0.007,-0.0109 -0.0122,-0.0244 -0.0196,-0.0351 -0.0538,-0.0772 -0.13346,-0.15077 -0.19637,-0.22686 -0.007,-0.0109 -0.0122,-0.0244 -0.0196,-0.0351 -0.053,-0.0769 -0.13263,-0.14941 -0.19482,-0.22479 -0.008,-0.0119 -0.0131,-0.0265 -0.0212,-0.0382 -0.0535,-0.077 -0.13316,-0.15055 -0.19585,-0.22635 -0.007,-0.0111 -0.0126,-0.0247 -0.0202,-0.0356 -0.0537,-0.0771 -0.13372,-0.15046 -0.19637,-0.22635 -0.007,-0.011 -0.0121,-0.0247 -0.0196,-0.0356 -0.0535,-0.0772 -0.1336,-0.15085 -0.19637,-0.22686 -0.007,-0.0109 -0.0122,-0.0243 -0.0196,-0.0351 -0.0538,-0.0774 -0.1336,-0.1512 -0.19637,-0.22738 -0.007,-0.0108 -0.0122,-0.024 -0.0196,-0.0346 -0.0533,-0.0766 -0.13277,-0.14939 -0.19482,-0.22479 -0.008,-0.0119 -0.0131,-0.0265 -0.0212,-0.0382 -0.0531,-0.0767 -0.13281,-0.14947 -0.19482,-0.2248 -0.008,-0.0115 -0.0128,-0.0258 -0.0207,-0.0372 -0.0536,-0.0772 -0.134,-0.15048 -0.19637,-0.22635 -0.007,-0.011 -0.0121,-0.0247 -0.0196,-0.0357 -0.0534,-0.0773 -0.13386,-0.1509 -0.19637,-0.22686 -0.007,-0.0109 -0.0122,-0.0244 -0.0196,-0.0351 -0.0532,-0.0768 -0.13292,-0.14982 -0.19482,-0.22531 -0.008,-0.0117 -0.0132,-0.0261 -0.0212,-0.0377 -0.0537,-0.0771 -0.13389,-0.15075 -0.19637,-0.22686 -0.007,-0.0109 -0.0122,-0.0243 -0.0196,-0.0351 -0.0533,-0.0768 -0.13376,-0.15004 -0.19586,-0.22583 -0.008,-0.0112 -0.0125,-0.0251 -0.0202,-0.0362 -0.0536,-0.0774 -0.13401,-0.15079 -0.19637,-0.22686 -0.007,-0.0109 -0.0122,-0.0243 -0.0196,-0.0351 -0.0534,-0.0771 -0.13344,-0.15009 -0.19534,-0.22583 -0.008,-0.0116 -0.0128,-0.0258 -0.0207,-0.0372 -0.0534,-0.077 -0.13376,-0.15046 -0.19585,-0.22634 -0.007,-0.0111 -0.0126,-0.0247 -0.0202,-0.0357 -0.0536,-0.0772 -0.13412,-0.15076 -0.19637,-0.22686 -0.007,-0.0109 -0.0122,-0.0243 -0.0196,-0.0351 -0.0536,-0.077 -0.13434,-0.15038 -0.19637,-0.22634 -0.007,-0.011 -0.0121,-0.0247 -0.0196,-0.0357 -0.0535,-0.0772 -0.13423,-0.15077 -0.19637,-0.22686 -0.007,-0.0109 -0.0122,-0.0243 -0.0196,-0.0351 -0.0533,-0.0772 -0.13365,-0.15009 -0.19533,-0.22582 -0.008,-0.0116 -0.0128,-0.0258 -0.0207,-0.0372 -0.0532,-0.077 -0.13399,-0.15008 -0.19586,-0.22582 -0.008,-0.0113 -0.0125,-0.0251 -0.0202,-0.0362 -0.0534,-0.0771 -0.13401,-0.15 -0.19585,-0.22582 -0.008,-0.0113 -0.0125,-0.0251 -0.0202,-0.0362 -0.0537,-0.0774 -0.13438,-0.15073 -0.19637,-0.22686 -0.007,-0.0109 -0.0122,-0.0243 -0.0196,-0.0351 -0.0529,-0.0766 -0.13352,-0.14891 -0.19482,-0.22427 -0.008,-0.012 -0.013,-0.0269 -0.0212,-0.0388 -0.0534,-0.0768 -0.13417,-0.15006 -0.19586,-0.22583 -0.008,-0.0112 -0.0125,-0.0251 -0.0202,-0.0362 -0.0536,-0.0773 -0.13451,-0.15026 -0.19637,-0.22634 -0.007,-0.011 -0.0121,-0.0247 -0.0196,-0.0357 -0.0533,-0.0771 -0.13425,-0.14992 -0.19585,-0.22582 -0.008,-0.0113 -0.0125,-0.0251 -0.0202,-0.0362 -0.0532,-0.0769 -0.13354,-0.14962 -0.19482,-0.22531 -0.008,-0.0118 -0.0132,-0.0261 -0.0212,-0.0377 -0.0534,-0.0771 -0.1346,-0.15026 -0.19637,-0.22634 -0.007,-0.0111 -0.0121,-0.0247 -0.0196,-0.0357 -0.0534,-0.077 -0.13428,-0.15038 -0.19585,-0.22634 -0.007,-0.0111 -0.0126,-0.0247 -0.0202,-0.0357 -0.0536,-0.0772 -0.13462,-0.15068 -0.19637,-0.22686 -0.007,-0.0109 -0.0122,-0.0243 -0.0196,-0.0351 -0.0532,-0.0772 -0.13445,-0.14993 -0.19585,-0.22583 -0.008,-0.0112 -0.0125,-0.0251 -0.0202,-0.0362 -0.053,-0.0769 -0.13375,-0.14924 -0.19482,-0.22479 -0.008,-0.0119 -0.0131,-0.0265 -0.0212,-0.0382 -0.0537,-0.0773 -0.13471,-0.15069 -0.19637,-0.22686 -0.007,-0.0109 -0.0122,-0.0243 -0.0196,-0.0351 -0.0533,-0.0772 -0.13492,-0.1503 -0.19637,-0.22634 -0.007,-0.011 -0.0121,-0.0248 -0.0196,-0.0357 -0.0535,-0.0773 -0.13481,-0.1507 -0.19637,-0.22686 -0.007,-0.0109 -0.0122,-0.0244 -0.0196,-0.0351 -0.0533,-0.0769 -0.13429,-0.14955 -0.19534,-0.22531 -0.008,-0.0117 -0.0127,-0.0262 -0.0207,-0.0377 -0.0532,-0.0771 -0.13458,-0.15 -0.19585,-0.22583 -0.008,-0.0112 -0.0125,-0.0251 -0.0202,-0.0362 -0.0535,-0.0773 -0.13502,-0.1502 -0.19637,-0.22635 -0.007,-0.0111 -0.0121,-0.0247 -0.0196,-0.0357 -0.0535,-0.0776 -0.13524,-0.1509 -0.19688,-0.22738 -0.007,-0.0107 -0.0118,-0.024 -0.0191,-0.0346 -0.0531,-0.0768 -0.13397,-0.14959 -0.19482,-0.22531 -0.008,-0.0118 -0.0132,-0.0261 -0.0212,-0.0377 -0.0536,-0.0771 -0.13511,-0.1502 -0.19637,-0.22634 -0.007,-0.0111 -0.0121,-0.0248 -0.0196,-0.0357 -0.0528,-0.0762 -0.13326,-0.14892 -0.19378,-0.22427 -0.008,-0.0118 -0.0132,-0.0261 -0.0212,-0.0377 -0.0536,-0.0771 -0.13476,-0.14993 -0.19586,-0.22583 -0.007,-0.0113 -0.0125,-0.0251 -0.0202,-0.0362 -0.0538,-0.0773 -0.1351,-0.15024 -0.19637,-0.22635 -0.007,-0.0111 -0.0121,-0.0248 -0.0196,-0.0357 -0.0535,-0.0773 -0.13473,-0.15027 -0.19585,-0.22635 -0.008,-0.0113 -0.0125,-0.025 -0.0202,-0.0362 -0.0538,-0.0771 -0.13506,-0.15075 -0.19638,-0.22686 -0.007,-0.0109 -0.0122,-0.0243 -0.0196,-0.0351 -0.0539,-0.0772 -0.13512,-0.15069 -0.19637,-0.22686 -0.007,-0.0109 -0.0122,-0.0243 -0.0196,-0.0351 -0.0536,-0.077 -0.13532,-0.1503 -0.19637,-0.22634 -0.007,-0.0111 -0.0121,-0.0247 -0.0196,-0.0357 -0.0532,-0.0764 -0.13384,-0.14891 -0.1943,-0.22427 -0.008,-0.0121 -0.0135,-0.0268 -0.0217,-0.0388 -0.0534,-0.077 -0.13494,-0.14997 -0.19586,-0.22583 -0.008,-0.0113 -0.0125,-0.025 -0.0202,-0.0362 -0.0535,-0.077 -0.13492,-0.14987 -0.19586,-0.22583 -0.007,-0.0113 -0.0125,-0.0251 -0.0202,-0.0362 -0.0537,-0.077 -0.13497,-0.14981 -0.19585,-0.22583 -0.007,-0.0113 -0.0125,-0.0251 -0.0202,-0.0362 -0.0525,-0.0757 -0.13251,-0.14745 -0.19223,-0.22221 l 0.23306,-0.38499 h 0.0801 v 0.262 h 0.216 v 0.262 h 0.21601 v 0.262 h 0.21136 0.005 v 0.26303 h 0.19792 0.0181 v 0.262 h 0.18603 0.03 v 0.262 h 0.17415 0.0419 v 0.262 h 0.16123 0.0548 v 0.26304 h 0.14883 0.0672 v 0.26199 h 0.13694 0.0791 v 0.262 h 0.12403 0.092 v 0.262 h 0.11214 0.10387 v 0.262 h 0.10025 0.11576 v 0.26304 h 0.0868 0.12919 v 0.262 h 0.0749 0.14108 v 0.262 h 0.062 0.154 v 0.26199 h 0.0501 0.16589 v 0.26304 h 0.0382 0.17776 v 0.262 h 0.0248 0.1912 v 0.262 h 0.0129 0.20309 v 0.262 h 0.001 6.17999 v -0.001 -10.20403 c 0.0682,0.0846 0.13739,0.16834 0.20774,0.25115 0.0703,0.0875 0.1413,0.17438 0.21394,0.25993 0.0709,0.0882 0.14274,0.17573 0.216,0.262 0.0717,0.0892 0.144,0.17789 0.21808,0.2651 0.0712,0.0886 0.14346,0.17638 0.21704,0.26304 0.0702,0.0873 0.14097,0.17404 0.21342,0.25941 0.0716,0.0891 0.14409,0.17747 0.21808,0.26459 0.0705,0.0876 0.14169,0.17469 0.21445,0.26045 0.0716,0.0891 0.1441,0.17745 0.21808,0.26458 0.0702,0.0873 0.14097,0.17404 0.21342,0.25941 0.0716,0.0891 0.14409,0.17747 0.21808,0.26459 0.0695,0.0864 0.13963,0.17228 0.21135,0.25683 0.0725,0.0903 0.14573,0.17995 0.22066,0.2682 0.0709,0.0882 0.14274,0.17572 0.21601,0.262 0.0702,0.0874 0.14141,0.17395 0.21394,0.25942 0.0709,0.0882 0.14222,0.1762 0.21549,0.26251 0.0717,0.0893 0.14446,0.17779 0.21859,0.2651 0.0709,0.0882 0.14274,0.17572 0.21601,0.262 0.0708,0.088 0.14239,0.17538 0.21549,0.26148 0.0704,0.0876 0.14176,0.17429 0.21446,0.25994 0.071,0.0884 0.14267,0.17608 0.216,0.26251 0.0716,0.089 0.14365,0.17753 0.21756,0.26459 0.071,0.0882 0.14274,0.1757 0.21601,0.262 0.071,0.0882 0.14272,0.1757 0.21601,0.262 0.28739,0.35736 0.58861,0.70333 0.91415,1.02887 l 0.001,0.001 c 1.136,1.116 2.46587,1.99945 3.98787,2.64945 h 0.001 c 1.522,0.65 3.15603,0.97358 4.90203,0.97358 1.726,0 3.34905,-0.32458 4.87205,-0.97358 1.543,-0.65 2.88188,-1.53349 4.01888,-2.65049 h 10e-4 c 1.136,-1.137 2.02991,-2.46587 2.67891,-3.98787 v -0.001 c 0.34452,-0.78262 0.59744,-1.59288 0.76481,-2.42931 0.05,0.0612 0.10281,0.12012 0.15399,0.18035 0.0695,0.0864 0.13958,0.17232 0.21136,0.25683 0.0711,0.0885 0.14297,0.1765 0.21653,0.26304 0.0704,0.0877 0.14162,0.17475 0.21445,0.26044 0.0707,0.088 0.14191,0.17548 0.21498,0.26149 0.0709,0.0882 0.1427,0.17576 0.216,0.262 0.0698,0.0868 0.14029,0.17298 0.21239,0.25786 0.0704,0.0877 0.14165,0.17473 0.21446,0.26045 0.069,0.0858 0.13855,0.17131 0.20981,0.25528 0.0725,0.0903 0.14569,0.17997 0.22066,0.2682 0.0692,0.086 0.13886,0.17164 0.21032,0.2558 0.0716,0.0891 0.14405,0.17749 0.21807,0.26459 0.0685,0.0852 0.13755,0.16988 0.20826,0.25321 0.0726,0.0905 0.14605,0.1803 0.22117,0.26872 0.0697,0.0867 0.14039,0.17256 0.21239,0.25735 0.0702,0.0874 0.14087,0.17447 0.21343,0.25993 0.0698,0.0868 0.14032,0.17296 0.21239,0.25786 0.0714,0.0888 0.14328,0.17721 0.21704,0.26407 0.0705,0.0877 0.14166,0.1747 0.21446,0.26045 0.0704,0.0876 0.14175,0.17428 0.21445,0.25993 0.0704,0.0876 0.14122,0.17479 0.21394,0.26045 0.28781,0.35785 0.58938,0.70387 0.91571,1.02991 v 0.001 c 1.137,1.116 2.46591,1.99945 3.9889,2.64945 h 0.001 c 1.522,0.65 3.15599,0.97358 4.90099,0.97358 h 0.001 c 1.725,0 3.34903,-0.32458 4.87102,-0.97358 h 0.001 c 1.542,-0.65 2.88184,-1.53349 4.01784,-2.65049 1.137,-1.136 2.03094,-2.46587 2.67994,-3.98787 l 0.001,-0.001 c 0.669,-1.522 1.00408,-3.14602 1.00408,-4.87102 v -0.001 c 0,-1.725 -0.33511,-3.34906 -1.00511,-4.87206 v -5.2e-4 c -0.50726,-1.18777 -1.16721,-2.24792 -1.97094,-3.18843 -0.0737,-0.0915 -0.14738,-0.18305 -0.22376,-0.27234 -0.0713,-0.0884 -0.14324,-0.17623 -0.21704,-0.26251 -0.072,-0.0893 -0.14449,-0.17842 -0.21911,-0.26562 -0.0696,-0.0863 -0.13934,-0.17255 -0.21135,-0.25683 -0.0736,-0.0914 -0.14747,-0.18266 -0.22376,-0.27182 -0.0722,-0.0895 -0.14482,-0.17877 -0.21963,-0.26613 -0.0703,-0.0871 -0.14116,-0.17382 -0.21394,-0.2589 -0.0708,-0.0879 -0.14165,-0.17573 -0.21497,-0.26148 -0.0722,-0.0897 -0.14479,-0.17917 -0.21963,-0.26666 -0.0722,-0.0895 -0.14484,-0.17876 -0.21962,-0.26613 -0.0709,-0.0879 -0.14207,-0.17567 -0.21549,-0.26148 -0.072,-0.0894 -0.14446,-0.17844 -0.21911,-0.26562 -0.0712,-0.0883 -0.14276,-0.17636 -0.21652,-0.26251 -0.072,-0.0894 -0.14447,-0.17842 -0.21911,-0.26562 -0.0701,-0.087 -0.1403,-0.17398 -0.21291,-0.2589 -0.0722,-0.0897 -0.14474,-0.17917 -0.21962,-0.26665 -0.0723,-0.0898 -0.14515,-0.17911 -0.22015,-0.26665 -0.071,-0.0881 -0.14241,-0.17599 -0.216,-0.262 -0.0719,-0.0892 -0.1441,-0.17809 -0.21859,-0.2651 -0.071,-0.0881 -0.14239,-0.17601 -0.21601,-0.262 -0.0714,-0.0886 -0.14302,-0.17711 -0.21704,-0.26355 -0.072,-0.0894 -0.14445,-0.17841 -0.21911,-0.26562 -0.0714,-0.0887 -0.14301,-0.17707 -0.21704,-0.26355 -0.0715,-0.0889 -0.14337,-0.17741 -0.21756,-0.26406 -0.0728,-0.0905 -0.1461,-0.18056 -0.22169,-0.26872 -0.0697,-0.0864 -0.13971,-0.17252 -0.21187,-0.25683 -0.0728,-0.0905 -0.14614,-0.18053 -0.2217,-0.26872 -0.0701,-0.087 -0.14025,-0.17401 -0.2129,-0.2589 -0.0735,-0.0914 -0.14744,-0.18231 -0.22376,-0.2713 -0.0696,-0.0864 -0.1397,-0.17253 -0.21188,-0.25683 -0.0722,-0.0897 -0.14471,-0.17919 -0.21962,-0.26665 -0.072,-0.0894 -0.1444,-0.17846 -0.21911,-0.26562 -0.071,-0.0882 -0.14235,-0.17605 -0.21601,-0.262 -0.0714,-0.0887 -0.14297,-0.17711 -0.21704,-0.26355 -0.0716,-0.0891 -0.14371,-0.17778 -0.21807,-0.26458 -0.0721,-0.0896 -0.14475,-0.1788 -0.21963,-0.26614 -0.0715,-0.0889 -0.14329,-0.17747 -0.21755,-0.26406 -0.0709,-0.0881 -0.14242,-0.17564 -0.21601,-0.26149 -0.0705,-0.0876 -0.14128,-0.17502 -0.21446,-0.26044 -0.0724,-0.0901 -0.14494,-0.17996 -0.22014,-0.26769 -0.0726,-0.0903 -0.1457,-0.18025 -0.22118,-0.2682 -0.0702,-0.0872 -0.14106,-0.17389 -0.21394,-0.2589 -0.0715,-0.0889 -0.1433,-0.17749 -0.21755,-0.26406 -0.0715,-0.0889 -0.14331,-0.17746 -0.21756,-0.26407 -0.0715,-0.0889 -0.1433,-0.17748 -0.21756,-0.26407 -0.0715,-0.0889 -0.14331,-0.17748 -0.21756,-0.26406 -0.0715,-0.0889 -0.1433,-0.17751 -0.21756,-0.26407 -0.0716,-0.0891 -0.14365,-0.17781 -0.21807,-0.26458 -0.0727,-0.0905 -0.14604,-0.18062 -0.22169,-0.26872 -0.0702,-0.0872 -0.14107,-0.17393 -0.21394,-0.2589 -0.072,-0.0896 -0.14427,-0.17894 -0.21911,-0.26613 -0.0701,-0.0872 -0.14062,-0.174 -0.21342,-0.2589 -0.0723,-0.09 -0.14501,-0.17959 -0.22015,-0.26717 -0.0719,-0.0895 -0.14434,-0.17852 -0.2191,-0.26562 -0.0708,-0.088 -0.14195,-0.17576 -0.21549,-0.26148 -0.0722,-0.0899 -0.14504,-0.17921 -0.22015,-0.26665 -0.0701,-0.0873 -0.14054,-0.17441 -0.21342,-0.25942 -0.0727,-0.0906 -0.14603,-0.18061 -0.22169,-0.26871 -0.0706,-0.0879 -0.14156,-0.17543 -0.21498,-0.26097 -0.0721,-0.0898 -0.14458,-0.1793 -0.21962,-0.26665 -0.0703,-0.0876 -0.14134,-0.17467 -0.21446,-0.25993 -0.0725,-0.0903 -0.14524,-0.18038 -0.22066,-0.2682 -0.0701,-0.0873 -0.14102,-0.17393 -0.21394,-0.2589 -0.0734,-0.0914 -0.14731,-0.18242 -0.22375,-0.2713 -0.0699,-0.087 -0.14021,-0.17372 -0.21291,-0.25839 -0.0715,-0.0891 -0.14362,-0.17786 -0.21808,-0.26458 -0.0715,-0.0891 -0.14361,-0.17789 -0.21807,-0.26458 -0.0713,-0.0887 -0.14289,-0.17723 -0.21704,-0.26355 -0.0713,-0.0888 -0.14333,-0.17715 -0.21756,-0.26355 -0.0715,-0.0891 -0.14316,-0.17794 -0.21756,-0.26458 -0.072,-0.0897 -0.14465,-0.17893 -0.21962,-0.26614 -0.0714,-0.0889 -0.14321,-0.17759 -0.21756,-0.26406 -0.0706,-0.088 -0.14198,-0.17542 -0.21549,-0.26097 -0.0708,-0.0882 -0.14181,-0.17623 -0.21549,-0.262 -0.0728,-0.0908 -0.14635,-0.18101 -0.22221,-0.26923 -0.0707,-0.0881 -0.14188,-0.17583 -0.21549,-0.26149 -0.0712,-0.0888 -0.14287,-0.17725 -0.21704,-0.26355 -0.0715,-0.0892 -0.14359,-0.17789 -0.21808,-0.26458 -0.0715,-0.0892 -0.14361,-0.17789 -0.21807,-0.26458 -0.0726,-0.0906 -0.14595,-0.1807 -0.22169,-0.26872 -0.0699,-0.0871 -0.14064,-0.17365 -0.21343,-0.25838 -0.0702,-0.0876 -0.14084,-0.17479 -0.21394,-0.25994 -0.0724,-0.0905 -0.14511,-0.18077 -0.22066,-0.26871 -0.0726,-0.0907 -0.14593,-0.18069 -0.22169,-0.26872 -0.0699,-0.0872 -0.14059,-0.17364 -0.21342,-0.25838 -0.0719,-0.0898 -0.14461,-0.17895 -0.21963,-0.26614 -0.0702,-0.0875 -0.14079,-0.17484 -0.21394,-0.25993 -0.0721,-0.0901 -0.14489,-0.17967 -0.22014,-0.26717 -0.0716,-0.0894 -0.1439,-0.17826 -0.21859,-0.2651 -0.0706,-0.0881 -0.14186,-0.17584 -0.21549,-0.26148 -0.0712,-0.0889 -0.14327,-0.17718 -0.21756,-0.26355 -0.0723,-0.0903 -0.1452,-0.18001 -0.22066,-0.26768 -0.0705,-0.088 -0.14148,-0.17552 -0.21497,-0.26097 -0.0711,-0.0889 -0.14283,-0.17726 -0.21704,-0.26355 -0.0707,-0.0883 -0.14176,-0.17627 -0.21549,-0.262 -0.0728,-0.091 -0.14618,-0.18145 -0.22221,-0.26975 -0.0712,-0.0889 -0.14322,-0.17722 -0.21756,-0.26355 -0.0704,-0.0879 -0.14153,-0.1751 -0.21497,-0.26045 -0.072,-0.09 -0.1449,-0.17932 -0.22014,-0.26665 -0.0708,-0.0884 -0.14214,-0.1762 -0.21601,-0.262 -0.0714,-0.0893 -0.14352,-0.17793 -0.21808,-0.26458 -0.0713,-0.0891 -0.14312,-0.17761 -0.21755,-0.26407 -0.0719,-0.0899 -0.14453,-0.17896 -0.21963,-0.26613 -0.0704,-0.088 -0.14142,-0.17553 -0.21497,-0.26097 -0.0714,-0.0893 -0.14352,-0.17794 -0.21808,-0.26458 -0.0711,-0.0889 -0.14278,-0.17728 -0.21704,-0.26355 -0.072,-0.0901 -0.14485,-0.17932 -0.22014,-0.26665 -0.0704,-0.088 -0.14141,-0.17557 -0.21497,-0.26097 -0.0714,-0.0893 -0.14348,-0.17794 -0.21808,-0.26458 -0.0712,-0.0891 -0.14311,-0.17766 -0.21756,-0.26407 -0.0712,-0.0891 -0.1431,-0.17766 -0.21755,-0.26406 -0.0717,-0.0897 -0.14416,-0.17869 -0.21911,-0.26562 -0.0707,-0.0884 -0.1421,-0.17626 -0.21601,-0.262 -0.0712,-0.0891 -0.1431,-0.17765 -0.21756,-0.26407 -0.0726,-0.0909 -0.14616,-0.18114 -0.22221,-0.26923 -0.0696,-0.0871 -0.14013,-0.17341 -0.2129,-0.25787 -0.0699,-0.0875 -0.14036,-0.17455 -0.21343,-0.25941 -0.0724,-0.0908 -0.14533,-0.18125 -0.22117,-0.26924 -0.0725,-0.0908 -0.14623,-0.18074 -0.22221,-0.26871 -0.0699,-0.0874 -0.14037,-0.17418 -0.21342,-0.2589 -0.0711,-0.0891 -0.14313,-0.17727 -0.21756,-0.26355 -0.0712,-0.0893 -0.14298,-0.1781 -0.21756,-0.26459 -0.0718,-0.0899 -0.14444,-0.17904 -0.21962,-0.26613 -0.0707,-0.0885 -0.14206,-0.17628 -0.21601,-0.262 -0.0709,-0.0888 -0.14234,-0.17702 -0.21653,-0.26303 -0.0714,-0.0894 -0.14382,-0.17797 -0.21859,-0.26458 -0.0719,-0.0902 -0.14471,-0.1798 -0.22014,-0.26717 -0.0711,-0.0891 -0.1431,-0.1773 -0.21756,-0.26355 -0.0703,-0.0881 -0.14133,-0.17564 -0.21497,-0.26097 -0.0703,-0.0881 -0.14136,-0.17563 -0.21497,-0.26096 -0.0728,-0.0913 -0.14639,-0.1819 -0.22273,-0.27027 -0.0705,-0.0883 -0.14169,-0.17599 -0.21549,-0.26148 -0.0711,-0.0892 -0.14303,-0.17775 -0.21756,-0.26407 -0.071,-0.089 -0.14264,-0.17742 -0.21704,-0.26355 -0.0714,-0.0896 -0.14373,-0.17842 -0.21859,-0.2651 -0.0714,-0.0896 -0.1437,-0.17842 -0.21859,-0.2651 -0.0711,-0.0892 -0.14299,-0.17778 -0.21756,-0.26407 -0.0704,-0.0883 -0.14218,-0.1755 -0.21601,-0.26096 -0.0712,-0.0893 -0.14287,-0.17818 -0.21755,-0.26459 -0.0709,-0.089 -0.14266,-0.17741 -0.21705,-0.26355 -0.0711,-0.0892 -0.14299,-0.17777 -0.21755,-0.26406 -0.0717,-0.09 -0.14438,-0.17914 -0.21963,-0.26614 -0.0704,-0.0883 -0.14163,-0.17603 -0.21549,-0.26148 -0.0712,-0.0894 -0.14334,-0.1781 -0.21807,-0.26458 -0.0715,-0.0898 -0.14401,-0.1788 -0.21911,-0.26562 -0.0705,-0.0885 -0.14197,-0.17638 -0.21601,-0.262 -0.0704,-0.0884 -0.14162,-0.17601 -0.21549,-0.26148 -0.0724,-0.091 -0.14563,-0.18131 -0.22169,-0.26924 -0.0702,-0.0882 -0.14126,-0.17569 -0.21498,-0.26096 -0.0724,-0.091 -0.14609,-0.18087 -0.2222,-0.26872 -0.0698,-0.0876 -0.1407,-0.17423 -0.21395,-0.2589 -0.071,-0.0892 -0.14246,-0.17791 -0.21704,-0.26407 -0.0708,-0.0891 -0.14259,-0.17744 -0.21704,-0.26354 -0.0713,-0.0898 -0.14355,-0.17892 -0.21859,-0.26562 -0.071,-0.0894 -0.14288,-0.17823 -0.21756,-0.26459 -0.071,-0.0894 -0.14339,-0.17775 -0.21807,-0.26406 -0.0709,-0.0893 -0.14295,-0.17779 -0.21756,-0.26407 -0.0722,-0.0909 -0.14571,-0.18052 -0.22169,-0.2682 -0.0696,-0.0876 -0.14024,-0.1743 -0.21342,-0.2589 -0.0702,-0.0884 -0.14116,-0.17611 -0.21498,-0.26148 -0.0717,-0.0904 -0.14463,-0.1799 -0.22014,-0.26717 -0.0714,-0.0899 -0.14394,-0.17884 -0.21911,-0.26561 -0.0709,-0.0892 -0.14296,-0.17744 -0.21756,-0.26355 -0.0701,-0.0883 -0.14119,-0.17574 -0.21497,-0.26097 -0.0709,-0.0894 -0.14288,-0.17785 -0.21756,-0.26407 -0.071,-0.0896 -0.14325,-0.17816 -0.21807,-0.26458 -0.0715,-0.0901 -0.14429,-0.1792 -0.21963,-0.26613 -0.0697,-0.0878 -0.14056,-0.17464 -0.21394,-0.25942 -0.0715,-0.0902 -0.14372,-0.17967 -0.21911,-0.26665 -0.0719,-0.0906 -0.14487,-0.1803 -0.22065,-0.26768 -0.0706,-0.089 -0.14263,-0.17669 -0.21704,-0.26252 -0.0702,-0.0885 -0.14151,-0.17613 -0.2155,-0.26148 -0.0706,-0.089 -0.14211,-0.1772 -0.21652,-0.26304 -0.0713,-0.09 -0.14386,-0.17892 -0.21911,-0.26561 -0.0709,-0.0894 -0.14284,-0.17787 -0.21756,-0.26407 -0.0713,-0.09 -0.14386,-0.17893 -0.2191,-0.26562 -0.0705,-0.0889 -0.14217,-0.17683 -0.21653,-0.26251 -0.0709,-0.0894 -0.14277,-0.17791 -0.21756,-0.26407 -0.0708,-0.0895 -0.14282,-0.17788 -0.21755,-0.26407 -0.0713,-0.09 -0.14385,-0.17893 -0.21911,-0.26561 -0.0702,-0.0886 -0.14145,-0.17615 -0.21549,-0.26149 -0.071,-0.0897 -0.14311,-0.17825 -0.21808,-0.26458 -0.0709,-0.0896 -0.14271,-0.17833 -0.21755,-0.26458 -0.0711,-0.0898 -0.14347,-0.17862 -0.2186,-0.2651 -0.0702,-0.0887 -0.14187,-0.1761 -0.216,-0.26148 -0.0713,-0.09 -0.14379,-0.17896 -0.21911,-0.26562 -0.0703,-0.0888 -0.14176,-0.17653 -0.21601,-0.262 -0.0708,-0.0895 -0.14277,-0.17792 -0.21756,-0.26407 -0.0711,-0.0899 -0.14344,-0.17863 -0.21859,-0.2651 -0.0708,-0.0895 -0.14273,-0.17794 -0.21756,-0.26406 -0.0705,-0.0891 -0.14201,-0.17731 -0.21652,-0.26304 -0.0709,-0.0897 -0.1431,-0.17828 -0.21807,-0.26458 -0.0719,-0.091 -0.14506,-0.18077 -0.22118,-0.2682 -0.0695,-0.0878 -0.14049,-0.17441 -0.21394,-0.2589 -0.0706,-0.0893 -0.14234,-0.17767 -0.21704,-0.26355 -0.0704,-0.0891 -0.14205,-0.17731 -0.21653,-0.26303 -0.0718,-0.091 -0.14508,-0.18079 -0.22117,-0.2682 -0.0707,-0.0894 -0.14276,-0.17763 -0.21756,-0.26355 -0.0701,-0.0886 -0.14135,-0.17626 -0.21549,-0.26149 -0.0706,-0.0893 -0.1423,-0.17769 -0.21704,-0.26355 -0.0711,-0.0901 -0.14374,-0.17903 -0.21911,-0.26561 -0.071,-0.09 -0.14335,-0.17871 -0.21859,-0.2651 -0.0702,-0.0889 -0.14167,-0.17663 -0.21601,-0.262 -0.0699,-0.0887 -0.14089,-0.17634 -0.21497,-0.26149 -0.0722,-0.0916 -0.1461,-0.18183 -0.22273,-0.26975 -0.0703,-0.0891 -0.14198,-0.17696 -0.21652,-0.26251 -0.07,-0.0887 -0.14131,-0.1763 -0.21549,-0.26149 -0.0705,-0.0894 -0.14227,-0.17772 -0.21704,-0.26355 -0.0717,-0.091 -0.14501,-0.18086 -0.22118,-0.2682 -0.0697,-0.0884 -0.14101,-0.17553 -0.21497,-0.26045 -0.0706,-0.0896 -0.1426,-0.17805 -0.21756,-0.26406 -0.0707,-0.0897 -0.14304,-0.177981 -0.21807,-0.264068 -0.0707,-0.08973 -0.1425,-0.178517 -0.21756,-0.264584 -0.071,-0.09023 -0.14364,-0.179105 -0.21911,-0.265617 -0.0692,-0.0879 -0.13993,-0.174537 -0.21342,-0.258899 -0.0716,-0.09103 -0.14453,-0.180972 -0.22066,-0.2682 -0.15282,-0.194124 -0.31508,-0.380328 -0.48886,-0.557072 -0.0272,-0.03772 -0.061,-0.06987 -0.0889,-0.10697 -0.0655,-0.09718 -0.15195,-0.177015 -0.22221,-0.270268 -0.0637,-0.09426 -0.14786,-0.171457 -0.21601,-0.262 -0.065,-0.09634 -0.151,-0.175231 -0.22066,-0.267684 -0.064,-0.09478 -0.14851,-0.172548 -0.21704,-0.263549 -0.0655,-0.09705 -0.15196,-0.176674 -0.22221,-0.269751 -0.0637,-0.09426 -0.1478,-0.171508 -0.21601,-0.262 -0.0651,-0.09645 -0.15084,-0.175703 -0.22065,-0.268201 -0.0643,-0.0952 -0.14915,-0.173255 -0.21808,-0.264583 -0.0653,-0.09684 -0.15152,-0.176407 -0.22169,-0.269234 -0.0636,-0.09417 -0.14783,-0.171131 -0.21601,-0.261483 -0.0651,-0.09657 -0.15071,-0.176172 -0.22066,-0.268717 -0.0645,-0.09564 -0.14985,-0.173945 -0.2191,-0.265617 -0.0648,-0.09608 -0.15001,-0.1751 -0.21963,-0.267167 -0.0644,-0.09531 -0.14951,-0.173238 -0.21859,-0.264584 -0.0643,-0.09539 -0.14896,-0.173694 -0.21807,-0.2651 -0.0647,-0.09595 -0.15008,-0.174749 -0.21963,-0.26665 -0.0648,-0.09598 -0.15,-0.174737 -0.21962,-0.26665 -0.0644,-0.09542 -0.14937,-0.173717 -0.2186,-0.265101 -0.0643,-0.09537 -0.14889,-0.173773 -0.21807,-0.2651 -0.065,-0.09645 -0.15066,-0.175904 -0.22066,-0.2682 -0.0641,-0.09493 -0.14865,-0.172664 -0.21756,-0.26355 -0.0647,-0.09593 -0.14996,-0.174859 -0.21962,-0.266651 -0.0648,-0.0961 -0.14981,-0.175232 -0.21963,-0.267167 -0.0643,-0.09534 -0.1493,-0.173368 -0.21859,-0.264583 -0.0648,-0.0961 -0.14974,-0.175268 -0.21962,-0.267167 -0.0639,-0.09473 -0.14819,-0.172401 -0.21704,-0.263033 -0.0651,-0.09651 -0.15048,-0.175967 -0.22066,-0.268201 -0.0644,-0.09544 -0.14914,-0.173853 -0.21859,-0.2651 -0.0648,-0.09609 -0.14969,-0.175352 -0.21963,-0.267167 -0.0639,-0.09471 -0.14811,-0.172486 -0.21704,-0.263033 -0.0651,-0.09649 -0.1504,-0.176055 -0.22066,-0.268201 -0.0642,-0.09523 -0.14872,-0.173601 -0.21807,-0.264583 -0.0649,-0.09616 -0.15007,-0.175348 -0.22014,-0.267167 -0.0644,-0.09544 -0.14902,-0.173964 -0.21859,-0.265101 -0.0648,-0.09599 -0.14963,-0.175019 -0.21963,-0.26665 -0.0644,-0.09544 -0.14903,-0.173995 -0.21859,-0.2651 -0.0648,-0.096 -0.14961,-0.175051 -0.21963,-0.26665 -0.0644,-0.09544 -0.14898,-0.174032 -0.21859,-0.2651 -0.0643,-0.0954 -0.14849,-0.174088 -0.21807,-0.265101 -0.065,-0.09646 -0.15024,-0.176238 -0.22066,-0.2682 -0.0641,-0.09495 -0.14825,-0.172986 -0.21756,-0.26355 -0.0646,-0.09577 -0.14917,-0.17483 -0.21911,-0.266134 -0.0648,-0.09619 -0.14986,-0.17551 -0.22014,-0.267167 -0.0644,-0.09545 -0.14882,-0.174127 -0.21859,-0.2651 -0.0643,-0.09538 -0.14836,-0.174209 -0.21807,-0.2651 -0.0646,-0.09577 -0.14909,-0.174914 -0.21911,-0.266134 -0.0648,-0.09617 -0.14979,-0.175602 -0.22014,-0.267167 -0.0642,-0.09523 -0.14838,-0.173886 -0.21808,-0.264583 -0.0649,-0.09617 -0.14972,-0.175644 -0.22014,-0.267167 -0.0639,-0.09473 -0.1477,-0.172834 -0.21704,-0.263033 -0.065,-0.09644 -0.14951,-0.176471 -0.22014,-0.268201 -0.0648,-0.09602 -0.14973,-0.175325 -0.22014,-0.26665 -0.0642,-0.09508 -0.14786,-0.17361 -0.21756,-0.264067 -0.0646,-0.09575 -0.1489,-0.17509 -0.21911,-0.266134 -0.0644,-0.09547 -0.14857,-0.174331 -0.21859,-0.2651 -0.065,-0.09646 -0.14985,-0.176555 -0.22066,-0.2682 -0.0641,-0.09495 -0.14785,-0.17329 -0.21756,-0.26355 -0.0646,-0.09586 -0.1487,-0.175591 -0.2191,-0.266651 -0.0647,-0.09596 -0.14911,-0.175517 -0.21963,-0.26665 -0.0644,-0.0954 -0.14846,-0.174494 -0.21859,-0.2651 -0.0648,-0.09606 -0.14948,-0.175472 -0.22014,-0.26665 -0.0643,-0.09537 -0.14797,-0.174571 -0.21808,-0.265101 -0.0648,-0.09618 -0.14939,-0.175929 -0.22014,-0.267167 -0.0643,-0.09524 -0.14798,-0.17421 -0.21807,-0.264583 -0.0648,-0.09618 -0.14934,-0.175976 -0.22014,-0.267167 -0.0639,-0.09473 -0.14731,-0.173163 -0.21705,-0.263033 -0.0654,-0.09713 -0.1501,-0.178269 -0.22169,-0.270268 -0.0636,-0.09427 -0.14705,-0.172074 -0.21652,-0.261483 -0.065,-0.09646 -0.14904,-0.176853 -0.22014,-0.2682 -0.064,-0.09483 -0.14713,-0.17369 -0.21704,-0.26355 -0.0653,-0.097 -0.15063,-0.177448 -0.22221,-0.269234 -0.0638,-0.09452 -0.14677,-0.172985 -0.21653,-0.262517 -0.0649,-0.09633 -0.14901,-0.176546 -0.22014,-0.267684 -0.0644,-0.09554 -0.14801,-0.175215 -0.21859,-0.265617 -0.0647,-0.09597 -0.14867,-0.175882 -0.21963,-0.26665 -0.0644,-0.09541 -0.14802,-0.17486 -0.21859,-0.2651 -0.0643,-0.09547 -0.14798,-0.174834 -0.21859,-0.2651 -0.0645,-0.09573 -0.14826,-0.175657 -0.21911,-0.266134 -0.0647,-0.09597 -0.14854,-0.175989 -0.21962,-0.26665 -0.0643,-0.09535 -0.14744,-0.175015 -0.21808,-0.2651 -0.0643,-0.09545 -0.14788,-0.174955 -0.21859,-0.2651 -0.0645,-0.09575 -0.14813,-0.175748 -0.2191,-0.266134 -0.0648,-0.09616 -0.14882,-0.176441 -0.22015,-0.267167 -0.0642,-0.09522 -0.1474,-0.17472 -0.21807,-0.264583 -0.0648,-0.09616 -0.14873,-0.176501 -0.22014,-0.267168 -0.0639,-0.09471 -0.14672,-0.173675 -0.21704,-0.263033 -0.0654,-0.09711 -0.14949,-0.178809 -0.2217,-0.270267 -0.0641,-0.09497 -0.14747,-0.174028 -0.21807,-0.26355 -0.0645,-0.09578 -0.14748,-0.17592 -0.21859,-0.266134 -0.0646,-0.09598 -0.14829,-0.17628 -0.21963,-0.26665 -0.0651,-0.09664 -0.14924,-0.177292 -0.22117,-0.268201 -0.0638,-0.09454 -0.14618,-0.173486 -0.21653,-0.262516 -0.0649,-0.09637 -0.1484,-0.177061 -0.22014,-0.267684 -0.0639,-0.09486 -0.14641,-0.174299 -0.21704,-0.26355 -0.0653,-0.09706 -0.14933,-0.178588 -0.22169,-0.269751 -0.0639,-0.09475 -0.14639,-0.173942 -0.21704,-0.263033 -0.0649,-0.09636 -0.14823,-0.177197 -0.22014,-0.267684 -0.0643,-0.09538 -0.14738,-0.174993 -0.21859,-0.264583 -0.0648,-0.09625 -0.14822,-0.176844 -0.22015,-0.267167 -0.0644,-0.09543 -0.14672,-0.175535 -0.21807,-0.2651 -0.0643,-0.09553 -0.14718,-0.175483 -0.21859,-0.2651 -0.0645,-0.09582 -0.14741,-0.176288 -0.21911,-0.266134 -0.0648,-0.09614 -0.14763,-0.177074 -0.21962,-0.267167 -0.0643,-0.09536 -0.14715,-0.175207 -0.2186,-0.264584 -0.0644,-0.09563 -0.14693,-0.176037 -0.21859,-0.265616 -0.0649,-0.09632 -0.14786,-0.177534 -0.22014,-0.267684 -0.0642,-0.09528 -0.14657,-0.175378 -0.21807,-0.264584 -0.0645,-0.09568 -0.14727,-0.176105 -0.21911,-0.265617 -0.0647,-0.09605 -0.14743,-0.176845 -0.21963,-0.26665 -0.0643,-0.09548 -0.14679,-0.175829 -0.21859,-0.2651 -0.0647,-0.09606 -0.14735,-0.176909 -0.21962,-0.26665 -0.0645,-0.09559 -0.14661,-0.176329 -0.21859,-0.265617 -0.0647,-0.09605 -0.14732,-0.176996 -0.21963,-0.266651 -0.0644,-0.09556 -0.1471,-0.175912 -0.21911,-0.2651 -0.0647,-0.09607 -0.14718,-0.177059 -0.21962,-0.26665 -0.0639,-0.09488 -0.14551,-0.175019 -0.21704,-0.26355 -0.0648,-0.09638 -0.14742,-0.177897 -0.22014,-0.267684 -0.0643,-0.09551 -0.14645,-0.176106 -0.2186,-0.2651 -0.0647,-0.09616 -0.14695,-0.177655 -0.21962,-0.267167 -0.0639,-0.09478 -0.14541,-0.174753 -0.21704,-0.263033 -0.0649,-0.09656 -0.1476,-0.178419 -0.22066,-0.268201 -0.0641,-0.09528 -0.14592,-0.175957 -0.21807,-0.264583 -0.0648,-0.09622 -0.14723,-0.177755 -0.22015,-0.267167 -0.0643,-0.09549 -0.14616,-0.176376 -0.21859,-0.2651 -0.0642,-0.09536 -0.14574,-0.176008 -0.21807,-0.264584 -0.0649,-0.09653 -0.14732,-0.178659 -0.22066,-0.2682 -0.0641,-0.09514 -0.14526,-0.175771 -0.21756,-0.264067 -0.0644,-0.0958 -0.14628,-0.177317 -0.21911,-0.266134 -0.0646,-0.09605 -0.1465,-0.177667 -0.21962,-0.26665 -0.0644,-0.09567 -0.1462,-0.176996 -0.21911,-0.265617 -0.0646,-0.09595 -0.14647,-0.177324 -0.21962,-0.266134 -0.064,-0.095 -0.1446,-0.176124 -0.21704,-0.264066 -0.0648,-0.09625 -0.14666,-0.178185 -0.22015,-0.267167 -0.0643,-0.09557 -0.14555,-0.177276 -0.21859,-0.265617 -0.0647,-0.09603 -0.14618,-0.177966 -0.21962,-0.266651 -0.0644,-0.09565 -0.14588,-0.177309 -0.21911,-0.265616 -0.0641,-0.09532 -0.14507,-0.1766 -0.21807,-0.264584 -0.0648,-0.09634 -0.14624,-0.178897 -0.22015,-0.267684 -0.0646,-0.0959 -0.14606,-0.177772 -0.21962,-0.266133 -0.0638,-0.09479 -0.14434,-0.175658 -0.21704,-0.263033 -0.0648,-0.09648 -0.14606,-0.179451 -0.22014,-0.268201 -0.0646,-0.09607 -0.14619,-0.1783 -0.22015,-0.26665 -0.0642,-0.09532 -0.14473,-0.176922 -0.21807,-0.264584 -0.0643,-0.09562 -0.14496,-0.177764 -0.21859,-0.265617 -0.0641,-0.09536 -0.1446,-0.176996 -0.21808,-0.264583 -0.0648,-0.09653 -0.14614,-0.179688 -0.22065,-0.268201 -0.0641,-0.09523 -0.14455,-0.176701 -0.21808,-0.264066 -0.0644,-0.09581 -0.14506,-0.178348 -0.21911,-0.266134 -0.0645,-0.09607 -0.14526,-0.178708 -0.21962,-0.26665 -0.0643,-0.09559 -0.14457,-0.178139 -0.21859,-0.265617 -0.0646,-0.09595 -0.14522,-0.178423 -0.21963,-0.266134 -0.0638,-0.09493 -0.1434,-0.176744 -0.21704,-0.263549 -0.0647,-0.09639 -0.14527,-0.179722 -0.22014,-0.267684 -0.0643,-0.09551 -0.14436,-0.177933 -0.21859,-0.265101 -0.0647,-0.09627 -0.14521,-0.17945 -0.22014,-0.267167 -0.0637,-0.0947 -0.14277,-0.17666 -0.21653,-0.263033 -0.0652,-0.09718 -0.14634,-0.181409 -0.22221,-0.269751 -0.0637,-0.09457 -0.1427,-0.176408 -0.21652,-0.262516 -0.0647,-0.09636 -0.14483,-0.180157 -0.22014,-0.267684 -0.0642,-0.09548 -0.14383,-0.178372 -0.21859,-0.2651 -0.0646,-0.09623 -0.14467,-0.179893 -0.22014,-0.267167 -0.0641,-0.09528 -0.14333,-0.178179 -0.21808,-0.264583 -0.0643,-0.09564 -0.1435,-0.178981 -0.21859,-0.265617 -0.0646,-0.09619 -0.14444,-0.180156 -0.22014,-0.267167 -0.0645,-0.09614 -0.14387,-0.179779 -0.21963,-0.266651 -0.0642,-0.0955 -0.14301,-0.178807 -0.21807,-0.2651 -0.0646,-0.09636 -0.14425,-0.180266 -0.22014,-0.267167 -0.0643,-0.09574 -0.14355,-0.179307 -0.21911,-0.265617 -0.0645,-0.09605 -0.14314,-0.180179 -0.21911,-0.26665 -0.0646,-0.0961 -0.14357,-0.18023 -0.21962,-0.266651 -0.0642,-0.09544 -0.14244,-0.178774 -0.21808,-0.264583 -0.0643,-0.09573 -0.1426,-0.179669 -0.21859,-0.265617 -0.0646,-0.09636 -0.14349,-0.180787 -0.22014,-0.267167 -0.0643,-0.09561 -0.14251,-0.179434 -0.21859,-0.2651 -0.0648,-0.09636 -0.14328,-0.181006 -0.22014,-0.267167 -0.0637,-0.0948 -0.14085,-0.178187 -0.21653,-0.263033 -0.0648,-0.09667 -0.14331,-0.181969 -0.22066,-0.268201 -0.0642,-0.09537 -0.14175,-0.179485 -0.21807,-0.264583 -0.0647,-0.09633 -0.14288,-0.181415 -0.22014,-0.267168 -0.0639,-0.09497 -0.14076,-0.17895 -0.21704,-0.263549 -0.0649,-0.09681 -0.1432,-0.182275 -0.22118,-0.268201 -0.064,-0.09519 -0.14091,-0.179541 -0.21756,-0.264067 -0.0646,-0.0962 -0.14199,-0.181404 -0.21962,-0.26665 -0.0643,-0.09569 -0.14119,-0.180905 -0.21859,-0.265617 -0.0644,-0.09608 -0.14172,-0.181224 -0.21963,-0.266134 -0.0644,-0.0959 -0.14132,-0.181472 -0.21911,-0.266133 -0.0642,-0.09546 -0.1405,-0.180366 -0.21807,-0.264583 -0.0643,-0.09588 -0.14103,-0.181732 -0.21911,-0.266134 -0.0645,-0.09617 -0.14105,-0.18217 -0.21962,-0.26665 -0.0648,-0.09637 -0.14133,-0.183154 -0.22015,-0.267684 -0.064,-0.09533 -0.14,-0.180489 -0.21807,-0.264067 -0.0641,-0.09564 -0.14011,-0.181395 -0.21859,-0.2651 -0.0647,-0.09641 -0.14103,-0.183003 -0.22014,-0.267167 -0.0641,-0.09556 -0.13943,-0.181752 -0.21808,-0.2651 -0.0647,-0.09651 -0.14043,-0.183753 -0.22014,-0.267684 -0.064,-0.0955 -0.13945,-0.181557 -0.21859,-0.264584 -0.0643,-0.09579 -0.13932,-0.182495 -0.21859,-0.265616 -0.0641,-0.09561 -0.13925,-0.182287 -0.21859,-0.265101 -0.0643,-0.09605 -0.13913,-0.183121 -0.21911,-0.266133 -0.0642,-0.09595 -0.13893,-0.183357 -0.21911,-0.266134 -0.0645,-0.09615 -0.13932,-0.183408 -0.21962,-0.266133 -0.0639,-0.09534 -0.13771,-0.182601 -0.21756,-0.264584 -0.0643,-0.09615 -0.13884,-0.183719 -0.21963,-0.266133 -0.0643,-0.09605 -0.13804,-0.184474 -0.2191,-0.266651 -0.0642,-0.09591 -0.13824,-0.18376 -0.21911,-0.265617 -0.0643,-0.09601 -0.13832,-0.184328 -0.21963,-0.266133 -0.0639,-0.09544 -0.13648,-0.183406 -0.21756,-0.264584 -0.0644,-0.09652 -0.13825,-0.18597 -0.22065,-0.267684 -0.0654,-0.09755 -0.13918,-0.188047 -0.22273,-0.270267 -0.005,-0.0053 -0.0113,-0.0097 -0.0165,-0.01499 -0.0322,-0.03868 -0.069,-0.07341 -0.1018,-0.111622 -0.0213,-0.02667 -0.0399,-0.05571 -0.0615,-0.08217 -0.0147,-0.01555 -0.0209,-0.03819 -0.0362,-0.05323 -0.004,-0.0038 -0.008,-0.0071 -0.0119,-0.01085 -0.0356,-0.04288 -0.0754,-0.08224 -0.11162,-0.12454 -0.0223,-0.02791 -0.042,-0.05811 -0.0646,-0.08578 -0.0115,-0.01197 -0.016,-0.02969 -0.0279,-0.04134 -0.003,-0.0031 -0.007,-0.0057 -0.01,-0.0088 -0.0377,-0.04557 -0.0793,-0.08789 -0.11782,-0.132808 -0.024,-0.02993 -0.045,-0.06232 -0.0692,-0.09199 -0.008,-0.0081 -0.0109,-0.02042 -0.0191,-0.02842 -0.002,-0.0022 -0.005,-0.004 -0.007,-0.0062 -0.0393,-0.04759 -0.0823,-0.09212 -0.12247,-0.139009 -0.0263,-0.0329 -0.0492,-0.06871 -0.076,-0.101286 -0.005,-0.0046 -0.006,-0.0115 -0.0109,-0.01602 -0.001,-0.0011 -0.002,-0.002 -0.004,-0.0031 -0.0424,-0.05143 -0.0879,-0.100291 -0.13125,-0.150896 -0.028,-0.03492 -0.0527,-0.07345 -0.0811,-0.108003 -0.0455,-0.05537 -0.0939,-0.108362 -0.14056,-0.162781 -0.0702,-0.08759 -0.14041,-0.175172 -0.21342,-0.260449 -0.0733,-0.09167 -0.14634,-0.18371 -0.22273,-0.272852 -0.0732,-0.09143 -0.14647,-0.182902 -0.22272,-0.271818 -0.0708,-0.08824 -0.14141,-0.176613 -0.21497,-0.262516 -0.0729,-0.09108 -0.14579,-0.182183 -0.2217,-0.270785 -0.0724,-0.09037 -0.14481,-0.180788 -0.22014,-0.268717 -0.0717,-0.08941 -0.143,-0.179103 -0.21756,-0.266134 -0.0731,-0.09126 -0.14613,-0.182513 -0.2222,-0.271301 -0.0737,-0.09198 -0.14753,-0.183896 -0.22428,-0.273368 -0.0703,-0.08753 -0.14042,-0.175189 -0.21342,-0.26045 -0.0724,-0.09031 -0.1444,-0.180813 -0.21963,-0.268717 -0.073,-0.09106 -0.14581,-0.182166 -0.22169,-0.270785 -0.0721,-0.08986 -0.14419,-0.179684 -0.21911,-0.267167 -0.0727,-0.09065 -0.14507,-0.181506 -0.22066,-0.269751 -0.0724,-0.09025 -0.14439,-0.180851 -0.21962,-0.268717 -0.0712,-0.08878 -0.14252,-0.177585 -0.21653,-0.264067 -0.0732,-0.09134 -0.14608,-0.18291 -0.22221,-0.271818 -0.0726,-0.09052 -0.1452,-0.181092 -0.22065,-0.269234 -0.0722,-0.08994 -0.1441,-0.180088 -0.21911,-0.267684 -0.0723,-0.09015 -0.14446,-0.180404 -0.21963,-0.268201 -0.0719,-0.08956 -0.14342,-0.179404 -0.21807,-0.26665 -0.0728,-0.09082 -0.14546,-0.181829 -0.22118,-0.270268 -0.0723,-0.09004 -0.14455,-0.179974 -0.21962,-0.267684 -0.0735,-0.09156 -0.14687,-0.183181 -0.22324,-0.272334 -0.0708,-0.08811 -0.14101,-0.176637 -0.21446,-0.262517 -0.0732,-0.0912 -0.1462,-0.182476 -0.22221,-0.271301 -0.0724,-0.09021 -0.14442,-0.180831 -0.21962,-0.268717 -0.0722,-0.08989 -0.14466,-0.179575 -0.21963,-0.267168 -0.0724,-0.09023 -0.14441,-0.180802 -0.21962,-0.268717 -0.0717,-0.08934 -0.14312,-0.179058 -0.21756,-0.266134 -0.0729,-0.09078 -0.14549,-0.181814 -0.22118,-0.270267 -0.072,-0.08963 -0.14389,-0.179287 -0.21859,-0.266651 -0.0739,-0.09203 -0.14755,-0.184243 -0.22427,-0.273885 -0.0714,-0.08882 -0.14244,-0.177981 -0.21653,-0.264583 -0.0719,-0.08953 -0.14344,-0.179373 -0.21807,-0.266651 -0.0732,-0.09118 -0.14622,-0.182445 -0.22221,-0.271301 -0.0721,-0.08969 -0.1438,-0.179725 -0.21859,-0.267167 -0.072,-0.0896 -0.14391,-0.179292 -0.21859,-0.26665 -0.0739,-0.09204 -0.14754,-0.184203 -0.22428,-0.273885 -0.0715,-0.0889 -0.1429,-0.17788 -0.21704,-0.264584 -0.0719,-0.08943 -0.14303,-0.17944 -0.21756,-0.26665 -0.0739,-0.09202 -0.14756,-0.184208 -0.22427,-0.273885 -0.071,-0.08822 -0.14195,-0.176452 -0.21549,-0.262517 -0.073,-0.09087 -0.14545,-0.182191 -0.22118,-0.270784 -0.0727,-0.09045 -0.14526,-0.181034 -0.22066,-0.269234 -0.0716,-0.08901 -0.14283,-0.178272 -0.21704,-0.2651 -0.0732,-0.09105 -0.14581,-0.182523 -0.22169,-0.271302 -0.0733,-0.09112 -0.14623,-0.18245 -0.22221,-0.271301 -0.0711,-0.08828 -0.14187,-0.176878 -0.21549,-0.263033 -0.0723,-0.08999 -0.14413,-0.180416 -0.21911,-0.268201 -0.0738,-0.09189 -0.14767,-0.183768 -0.22427,-0.273368 -0.071,-0.0882 -0.14144,-0.176949 -0.21498,-0.263033 -0.0732,-0.09101 -0.14634,-0.182017 -0.22221,-0.270785 -0.0734,-0.09121 -0.14615,-0.182856 -0.22221,-0.271818 -0.0711,-0.08829 -0.14188,-0.176847 -0.21549,-0.263033 -0.0731,-0.09091 -0.14592,-0.182102 -0.22169,-0.270784 -0.0733,-0.09109 -0.14627,-0.18244 -0.22221,-0.271301 -0.0712,-0.08837 -0.14233,-0.176759 -0.216,-0.263033 -0.0723,-0.08988 -0.14371,-0.180483 -0.2186,-0.268201 -0.074,-0.09205 -0.14804,-0.184099 -0.22479,-0.273885 -0.071,-0.0882 -0.14144,-0.176905 -0.21497,-0.263033 -0.29176,-0.362661 -0.59807,-0.71309 -0.93173,-1.040764 -1.136,-1.136798 -2.47588,-2.029823 -4.01887,-2.679423 -1.522,-0.669899 -3.14606,-1.005106 -4.87206,-1.005106 -1.745796,0 -3.380043,0.335207 -4.902541,1.005106 -1.522499,0.6496 -2.852105,1.542625 -3.988904,2.679423 -1.136799,1.116599 -2.040529,2.436333 -2.710429,3.958932 -0.334171,0.783214 -0.579369,1.594441 -0.741557,2.431376 -0.03396,-0.04082 -0.07298,-0.07746 -0.107487,-0.117822 -0.07154,-0.08869 -0.14299,-0.177471 -0.217041,-0.264067 -0.07062,-0.08753 -0.141385,-0.174965 -0.214457,-0.260449 -0.07152,-0.08868 -0.143525,-0.176969 -0.217558,-0.26355 -0.07063,-0.08754 -0.14138,-0.174954 -0.214457,-0.260449 -0.0716,-0.08879 -0.143436,-0.177382 -0.217558,-0.264067 -0.07056,-0.08746 -0.140931,-0.175029 -0.21394,-0.260449 -0.07175,-0.08897 -0.1438,-0.177726 -0.218075,-0.264583 -0.071,-0.08799 -0.142533,-0.175556 -0.216007,-0.261483 -0.07063,-0.08754 -0.141381,-0.174954 -0.214457,-0.260449 -0.0716,-0.08879 -0.143436,-0.177382 -0.217558,-0.264067 -0.07072,-0.08765 -0.141286,-0.175366 -0.214457,-0.260966 -0.07161,-0.08879 -0.14343,-0.177381 -0.217558,-0.264066 -0.07063,-0.08754 -0.141375,-0.174954 -0.214457,-0.260449 -0.07176,-0.08898 -0.143784,-0.177718 -0.218075,-0.264584 -0.0704,-0.08724 -0.141103,-0.174202 -0.21394,-0.259415 -0.07184,-0.08909 -0.143694,-0.17813 -0.218075,-0.265101 -0.07025,-0.08705 -0.14075,-0.173866 -0.213423,-0.258898 -0.07131,-0.08843 -0.142715,-0.176692 -0.216525,-0.263034 -0.07162,-0.0888 -0.143418,-0.177371 -0.217557,-0.264066 -0.07049,-0.08736 -0.14101,-0.174608 -0.213941,-0.259933 -0.288851,-0.358167 -0.59208,-0.704394 -0.921907,-1.028361 -1.134569,-1.136905 -2.474365,-2.02993 -4.017163,-2.67953 -1.522499,-0.669899 -3.146556,-1.005106 -4.872054,-1.005106 z" /><g
     id="g2"
     transform="translate(0,0.12291611)"><path
       style="fill:#f9f9f9;stroke-width:0.160865"
       d="m 44.767293,59.469755 c -0.03217,0.248113 -0.05478,0.499286 -0.05478,0.756026 v 29.302084 c 0,3.23161 2.629198,5.86063 5.860624,5.86063 h 48.607369 c 3.231464,0 5.860634,-2.62902 5.860634,-5.86063 V 60.225781 c 0,-0.25674 -0.0226,-0.507913 -0.0548,-0.756026 z"
       id="path16" /><path
       id="path5"
       style="fill:#f44336;fill-opacity:1;stroke-width:0.160865"
       d="m 50.573142,54.365671 c -2.974716,0 -5.433052,2.229204 -5.805847,5.104081 h 60.219065 c -0.37279,-2.874877 -2.83112,-5.104081 -5.805854,-5.104081 z" /><g
       id="g1"><path
         style="fill:#798388;fill-opacity:1;stroke-width:0.160865"
         d="m 49.787227,83.040591 h 14.612028 c 0.816296,0 1.477946,0.661665 1.477946,1.477946 0,0.816083 -0.661866,1.477429 -1.477946,1.477429 H 49.787227 c -0.815895,0 -1.477429,-0.661148 -1.477429,-1.477429 0,-0.816281 0.661534,-1.477946 1.477429,-1.477946 z"
         id="path29" /><path
         style="fill:#798388;fill-opacity:1;stroke-width:0.160865"
         d="m 49.787227,77.783547 h 25.239286 c 0.816084,0 1.47743,0.661146 1.47743,1.47743 0,0.81628 -0.661138,1.477946 -1.47743,1.477946 H 49.787227 c -0.815893,0 -1.477429,-0.661666 -1.477429,-1.477946 0,-0.816284 0.661536,-1.47743 1.477429,-1.47743 z"
         id="path28" /><path
         style="fill:#798388;fill-opacity:1;stroke-width:0.160865"
         d="m 63.674235,67.326821 h 1.459859 v 4.985226 h -1.459859 z"
         id="path24" /><path
         style="fill:#798388;fill-opacity:1;stroke-width:0.160865"
         d="m 59.051778,67.326821 h 1.399914 v 3.721737 h 2.586923 v 1.263489 h -3.986837 z"
         id="path23" /><path
         id="path22"
         style="fill:#798388;fill-opacity:1;stroke-width:0.160865"
         d="m 73.856559,67.183161 c -0.36312,10e-7 -0.706103,0.07015 -1.028878,0.211356 -0.322776,0.13617 -0.604899,0.325326 -0.846977,0.567408 -0.237034,0.237032 -0.426188,0.516967 -0.567407,0.839742 -0.136162,0.317726 -0.204122,0.658521 -0.204122,1.021643 0,0.363116 0.06796,0.706102 0.204122,1.028878 0.141219,0.322769 0.330373,0.602704 0.567407,0.839742 0.242078,0.237032 0.524201,0.425676 0.846977,0.56689 0.322775,0.136169 0.665758,0.204639 1.028878,0.204639 0.36312,0 0.706103,-0.06847 1.028878,-0.204639 0.32277,-0.141214 0.602702,-0.329858 0.839742,-0.56689 0.242072,-0.237038 0.431234,-0.516973 0.567407,-0.839742 0.141213,-0.322776 0.211873,-0.665762 0.211873,-1.028878 0,-0.363122 -0.07066,-0.706104 -0.211873,-1.028878 -0.136173,-0.322776 -0.325335,-0.602704 -0.567407,-0.839742 -0.23704,-0.237038 -0.516972,-0.424003 -0.839742,-0.560173 -0.322775,-0.141215 -0.665758,-0.211356 -1.028878,-0.211356 z m 0,1.368909 c 0.171472,0 0.330721,0.03534 0.476973,0.105936 0.151304,0.06556 0.279594,0.156339 0.385507,0.272335 0.11096,0.115997 0.196838,0.252417 0.257348,0.408761 0.06051,0.151296 0.09095,0.312733 0.09095,0.484208 0,0.171473 -0.03044,0.335098 -0.09095,0.491443 -0.06052,0.151295 -0.146403,0.287721 -0.257348,0.40876 -0.105913,0.115999 -0.234203,0.20896 -0.385507,0.27957 -0.146252,0.06556 -0.305501,0.0987 -0.476973,0.0987 -0.171472,0 -0.332905,-0.03313 -0.484208,-0.0987 -0.146258,-0.07061 -0.274562,-0.163572 -0.385506,-0.27957 -0.105914,-0.12104 -0.191779,-0.257465 -0.257349,-0.40876 -0.06051,-0.156345 -0.09095,-0.31997 -0.09095,-0.491443 0,-0.171475 0.03044,-0.332912 0.09095,-0.484208 0.06557,-0.156344 0.151436,-0.292764 0.257349,-0.408761 0.110944,-0.115995 0.239248,-0.206765 0.385506,-0.272335 0.151303,-0.07061 0.312736,-0.105936 0.484208,-0.105936 z" /><path
         id="path21"
         style="fill:#798388;fill-opacity:1;stroke-width:0.160865"
         d="m 55.942924,67.183161 c -0.363121,10e-7 -0.706103,0.07015 -1.028878,0.211356 -0.322774,0.13617 -0.605413,0.325326 -0.847494,0.567408 -0.237032,0.237032 -0.426192,0.516967 -0.567407,0.839742 -0.136172,0.317726 -0.204122,0.658521 -0.204122,1.021643 0,0.363116 0.06795,0.706102 0.204122,1.028878 0.141215,0.322769 0.330375,0.602704 0.567407,0.839742 0.242081,0.237032 0.52472,0.425676 0.847494,0.56689 0.322775,0.136169 0.665757,0.204639 1.028878,0.204639 0.363117,0 0.706107,-0.06847 1.028877,-0.204639 0.322775,-0.141214 0.602188,-0.329858 0.839226,-0.56689 0.242075,-0.237038 0.431236,-0.516973 0.567407,-0.839742 0.141213,-0.322776 0.211873,-0.665762 0.211873,-1.028878 0,-0.363122 -0.07066,-0.706104 -0.211873,-1.028878 -0.136171,-0.322776 -0.325332,-0.602704 -0.567407,-0.839742 -0.237038,-0.237038 -0.516451,-0.424003 -0.839226,-0.560173 -0.32277,-0.141215 -0.66576,-0.211356 -1.028877,-0.211356 z m 0,1.368909 c 0.171469,0 0.330199,0.03534 0.476456,0.105936 0.151302,0.06556 0.279597,0.156339 0.385507,0.272335 0.110949,0.115997 0.196828,0.252417 0.257348,0.408761 0.06052,0.151296 0.09095,0.312733 0.09095,0.484208 0,0.171473 -0.03043,0.335098 -0.09095,0.491443 -0.06052,0.151295 -0.146399,0.287721 -0.257348,0.40876 -0.10591,0.115999 -0.234205,0.20896 -0.385507,0.27957 -0.146257,0.06556 -0.304987,0.0987 -0.476456,0.0987 -0.171474,0 -0.332907,-0.03313 -0.484209,-0.0987 -0.146252,-0.07061 -0.275074,-0.163572 -0.386022,-0.27957 -0.105914,-0.12104 -0.191789,-0.257465 -0.257349,-0.40876 -0.06052,-0.156345 -0.09043,-0.31997 -0.09043,-0.491443 0,-0.171475 0.02991,-0.332912 0.09043,-0.484208 0.06556,-0.156344 0.151438,-0.292764 0.257349,-0.408761 0.110948,-0.115995 0.23977,-0.206765 0.386022,-0.272335 0.151302,-0.07061 0.312735,-0.105936 0.484209,-0.105936 z" /><path
         style="fill:#798388;fill-opacity:1;stroke-width:0.160865"
         d="m 65.822424,66.441604 h 5.031217 v 1.346688 l -0.105936,0.105937 h -1.611788 v 4.417818 h -1.595768 v -4.417818 h -1.611788 l -0.105937,-0.105937 z"
         id="path20" /><path
         id="path19"
         style="fill:#798388;fill-opacity:1;stroke-width:0.160865"
         d="m 48.309798,66.441604 v 5.870443 h 1.573547 v -1.823145 h 1.066602 c 0.282423,0 0.552042,-0.05325 0.809253,-0.159163 0.262249,-0.110954 0.491639,-0.259363 0.68833,-0.445968 0.201734,-0.191648 0.360975,-0.413942 0.476973,-0.666109 0.121045,-0.252168 0.181385,-0.524494 0.181385,-0.817004 0,-0.287472 -0.06034,-0.552187 -0.181385,-0.794267 -0.115998,-0.242081 -0.275239,-0.448649 -0.476973,-0.620117 -0.196691,-0.171474 -0.426081,-0.30519 -0.68833,-0.40101 -0.257211,-0.09582 -0.52683,-0.14366 -0.809253,-0.14366 z m 1.611271,1.301213 h 0.91519 c 0.09078,0 0.176648,0.0174 0.257348,0.05271 0.08069,0.03026 0.151354,0.07591 0.211874,0.136425 0.06052,0.05548 0.10836,0.120721 0.14366,0.196371 0.03531,0.07565 0.05271,0.159334 0.05271,0.250114 0,0.09078 -0.0174,0.173947 -0.05271,0.249597 -0.0353,0.07565 -0.08314,0.143602 -0.14366,0.204122 -0.06052,0.05547 -0.131184,0.100599 -0.211874,0.135909 -0.08069,0.03026 -0.166568,0.04547 -0.257348,0.04547 h -0.91519 z" /></g></g><path
     id="path1"
     style="fill:#5c6bc0;stroke-width:1.09875"
     d="m 90.467346,66.441423 c -3.640942,0 -6.592362,2.951936 -6.592362,6.592879 0,3.640931 2.95142,6.592362 6.592362,6.592362 3.64094,0 6.59236,-2.951431 6.59236,-6.592362 0,-3.640943 -2.95142,-6.592879 -6.59236,-6.592879 z m 0,15.382523 c -3.050901,0 -5.432253,0.243202 -7.217647,0.991671 -1.911551,0.80132 -3.08266,2.159845 -3.707268,4.134631 -0.230858,0.7299 0.31595,1.466577 1.073837,1.466577 h 19.694922 c 0.76099,0 1.31172,-0.739846 1.07901,-1.473811 -0.62651,-1.974897 -1.801884,-3.332816 -3.716574,-4.132048 -1.78382,-0.744623 -4.16163,-0.98702 -7.20628,-0.98702 z" /><text
     xml:space="preserve"
     transform="matrix(0.76126675,0,0,0.76126675,-60.073846,-219.48912)"
     id="text1040"
     style="font-style:normal;font-variant:normal;font-weight:normal;font-stretch:normal;font-size:40px;line-height:1.25;font-family:PRIMETIME;-inkscape-font-specification:'PRIMETIME, Normal';font-variant-ligatures:normal;font-variant-caps:normal;font-variant-numeric:normal;font-variant-east-asian:normal;letter-spacing:0px;word-spacing:0px;white-space:pre;shape-inside:url(#rect1040);fill:#ffd500;fill-opacity:1;stroke:none"><tspan
       x="128.77148"
       y="458.12891"
       id="tspan2">ROR</tspan></text><text
     xml:space="preserve"
     transform="matrix(0.76126675,0,0,0.76126675,-60.712445,-37.849493)"
     id="text3057"
     style="font-style:normal;font-variant:normal;font-weight:normal;font-stretch:normal;font-size:40px;line-height:1.25;font-family:PRIMETIME;-inkscape-font-specification:'PRIMETIME, Normal';font-variant-ligatures:normal;font-variant-caps:normal;font-variant-numeric:normal;font-variant-east-asian:normal;letter-spacing:0px;word-spacing:0px;white-space:pre;shape-inside:url(#rect3058);fill:#ffd500;fill-opacity:1;stroke:none"><tspan
       x="124.65039"
       y="107.87109"
       id="tspan4">MOO</tspan></text></svg>
