<?xml version="1.0" encoding="UTF-8" standalone="no"?>
<!-- Created with Inkscape (http://www.inkscape.org/) -->

<svg
   width="67.733345mm"
   height="67.733345mm"
   viewBox="0 0 67.733343 67.733342"
   version="1.1"
   id="svg1"
   xml:space="preserve"
   sodipodi:docname="B5.svg"
   inkscape:version="1.3 (0e150ed6c4, 2023-07-21)"
   inkscape:export-filename="B5.png"
   inkscape:export-xdpi="1535.9999"
   inkscape:export-ydpi="1535.9999"
   xmlns:inkscape="http://www.inkscape.org/namespaces/inkscape"
   xmlns:sodipodi="http://sodipodi.sourceforge.net/DTD/sodipodi-0.dtd"
   xmlns="http://www.w3.org/2000/svg"
   xmlns:svg="http://www.w3.org/2000/svg"><sodipodi:namedview
     id="namedview1"
     pagecolor="#ffffff"
     bordercolor="#999999"
     borderopacity="1"
     inkscape:showpageshadow="2"
     inkscape:pageopacity="0"
     inkscape:pagecheckerboard="0"
     inkscape:deskcolor="#d1d1d1"
     inkscape:document-units="mm"
     inkscape:zoom="1.9506277"
     inkscape:cx="170.20162"
     inkscape:cy="136.11003"
     inkscape:window-width="1920"
     inkscape:window-height="1001"
     inkscape:window-x="-9"
     inkscape:window-y="-9"
     inkscape:window-maximized="1"
     inkscape:current-layer="svg1" /><defs
     id="defs1"><rect
       x="128.7717"
       y="414.12979"
       width="302.87103"
       height="109.1984"
       id="rect1040" /><rect
       x="124.651"
       y="63.870762"
       width="290.50894"
       height="105.07771"
       id="rect3058" /></defs><path
     id="rect1-3"
     style="fill:#e87d7d;fill-opacity:1;stroke-width:0.133494"
     d="M 0,0 H 67.73332 V 67.733329 H 0 Z"
     inkscape:export-filename="..\b\B4.svg"
     inkscape:export-xdpi="347.36404"
     inkscape:export-ydpi="347.36404" /><path
     id="path35"
     style="fill:#000001;fill-opacity:0.247059;stroke-width:0.0727587"
     d="m 33.790937,9.0458516 c -0.789638,0 -1.528773,0.1516076 -2.217404,0.4546063 -0.344318,0.1469091 -0.666723,0.3213501 -0.967413,0.5233241 -0.300691,0.201972 -0.579671,0.431486 -0.836756,0.68857 -0.128545,0.12625 -0.250429,0.258199 -0.365789,0.395941 -0.09388,0.112092 -0.180378,0.230667 -0.265518,0.350362 L 27.014612,9.3352103 h -2.630407 c -0.08264,0 -0.156135,0.04124 -0.220408,0.1238773 L 22.254449,12.62731 19.048363,9.4212231 c -0.0057,-0.00574 -0.01416,-0.00348 -0.0201,-0.00865 -0.05332,-0.046461 -0.11181,-0.077365 -0.180674,-0.077365 h -2.61685 V 20.022787 l 5.118706,5.118706 c -0.58777,0.418298 -1.004181,1.062859 -1.10134,1.812115 -0.01455,0.112221 -0.02478,0.225826 -0.02478,0.341949 v 13.253241 c 0,0.36541 0.0744,0.713732 0.208722,1.030752 0.06716,0.15851 0.149348,0.309123 0.244716,0.450166 0.04313,0.0638 0.09795,0.117944 0.146316,0.177635 0.05858,0.07229 0.111671,0.149303 0.177402,0.215033 l 6.683066,6.683065 0.779726,0.779728 c -0.234466,0.32682 -0.439518,0.679182 -0.608401,1.063006 -0.03926,0.09202 -0.06906,0.187056 -0.103076,0.280713 L 25.45329,48.930387 c -0.0237,-0.0237 -0.04811,-0.04726 -0.07269,-0.07059 l -0.0049,-0.0049 v -2.31e-4 c -0.21118,-0.202005 -0.440662,-0.381024 -0.688571,-0.537116 -0.123897,-0.0826 -0.25015,-0.156151 -0.378644,-0.220409 h -2.34e-4 c -0.12849,-0.0643 -0.259367,-0.119596 -0.392434,-0.165482 -0.133156,-0.05043 -0.265085,-0.0882 -0.39594,-0.113359 -0.130855,-0.02524 -0.260618,-0.03786 -0.389161,-0.03786 h -5.357579 v 10.687575 l 9.265325,9.265327 h 40.69488 V 28.609124 L 49.871151,10.746945 c -0.01074,-0.01057 -0.02152,-0.02106 -0.03225,-0.03155 l -7.02e-4,-7.01e-4 c -7.46e-4,-7.3e-4 -0.0014,-0.0016 -0.0021,-0.0023 h -2.35e-4 c -0.25691,-0.257126 -0.536819,-0.48664 -0.839799,-0.688612 -0.151442,-0.1009504 -0.30876,-0.195157 -0.471669,-0.2823476 h -2.35e-4 C 48.36119,9.6542175 48.192587,9.5739127 48.018136,9.5004579 47.846042,9.4247384 47.670998,9.3583607 47.493173,9.3015531 h -2.3e-4 C 47.315118,9.2447537 47.134475,9.1973254 46.950919,9.1594446 h -2.35e-4 C 46.767128,9.121572 46.58066,9.0933143 46.391369,9.0743667 h -2.35e-4 c -0.189372,-0.018948 -0.381503,-0.028515 -0.576615,-0.028515 -0.19741,0 -0.391594,0.00957 -0.58269,0.028515 -0.573284,0.056843 -1.118248,0.1988468 -1.634714,0.4260912 -0.172159,0.073455 -0.338934,0.1537596 -0.500184,0.2409765 -0.48375,0.2616506 -0.918357,0.5852906 -1.303984,0.9709176 -0.128545,0.12625 -0.250429,0.258199 -0.365789,0.395941 -0.346076,0.413231 -0.632885,0.878172 -0.86013,1.394672 -0.07345,0.172158 -0.137751,0.347298 -0.192827,0.525193 -0.0199,0.06426 -0.03229,0.130856 -0.04978,0.195866 l -2.47708,-2.477079 -0.03483,-0.03459 C 37.555425,10.455268 37.275474,10.225754 36.972482,10.023782 36.669492,9.821808 36.343458,9.647367 35.994552,9.5004579 35.478145,9.2732402 34.935818,9.1312244 34.367785,9.0743667 h -2.34e-4 C 34.178179,9.055419 33.98605,9.0458516 33.790937,9.0458516 Z" /><path
     style="fill:#f9f9f9;stroke-width:0.0727587"
     d="m 20.248104,26.953575 c -0.01455,0.112221 -0.02478,0.225825 -0.02478,0.341948 v 13.253239 c 0,1.461647 1.189178,2.650744 2.650742,2.650744 h 21.984957 c 1.461581,0 2.650747,-1.189097 2.650747,-2.650744 V 27.295523 c 0,-0.116123 -0.01022,-0.229727 -0.02479,-0.341948 z"
     id="path16" /><path
     id="path5"
     style="fill:#f44336;fill-opacity:1;stroke-width:0.0727587"
     d="m 22.874071,24.645014 c -1.345455,0 -2.457352,1.008262 -2.625966,2.30856 h 27.236891 c -0.168612,-1.300298 -1.280507,-2.30856 -2.62597,-2.30856 z" /><path
     style="fill:#798388;fill-opacity:1;stroke-width:0.0727587"
     d="m 22.518604,37.614589 h 6.608974 c 0.369208,0 0.66847,0.299269 0.66847,0.66847 0,0.369112 -0.29936,0.668237 -0.66847,0.668237 h -6.608974 c -0.369027,0 -0.668236,-0.299036 -0.668236,-0.668237 0,-0.369201 0.299209,-0.66847 0.668236,-0.66847 z"
     id="path29" /><path
     style="fill:#798388;fill-opacity:1;stroke-width:0.0727587"
     d="m 22.518604,35.236845 h 11.415648 c 0.369113,0 0.668237,0.299034 0.668237,0.668237 0,0.3692 -0.29903,0.66847 -0.668237,0.66847 H 22.518604 c -0.369026,0 -0.668236,-0.29927 -0.668236,-0.66847 0,-0.369203 0.29921,-0.668237 0.668236,-0.668237 z"
     id="path28" /><path
     style="fill:#798388;fill-opacity:1;stroke-width:0.0727587"
     d="m 28.799653,30.507301 h 0.66029 v 2.254802 h -0.66029 z"
     id="path24" /><path
     style="fill:#798388;fill-opacity:1;stroke-width:0.0727587"
     d="m 26.708931,30.507301 h 0.633176 v 1.68333 h 1.170057 v 0.571472 h -1.803233 z"
     id="path23" /><path
     id="path22"
     style="fill:#798388;fill-opacity:1;stroke-width:0.0727587"
     d="m 33.405086,30.442324 c -0.164238,0 -0.319368,0.03173 -0.465358,0.0956 -0.145991,0.06159 -0.273594,0.147143 -0.383085,0.256636 -0.10721,0.107209 -0.192764,0.233823 -0.256637,0.379813 -0.06159,0.143706 -0.09232,0.297847 -0.09232,0.462086 0,0.164236 0.03074,0.319368 0.09232,0.465358 0.06387,0.145987 0.149427,0.272601 0.256637,0.379813 0.109491,0.107209 0.237094,0.192532 0.383085,0.256402 0.14599,0.06159 0.30112,0.09256 0.465358,0.09256 0.164238,0 0.319368,-0.03097 0.465358,-0.09256 0.145988,-0.06387 0.2726,-0.149193 0.379813,-0.256402 0.109488,-0.107212 0.195046,-0.233826 0.256636,-0.379813 0.06387,-0.14599 0.09583,-0.301122 0.09583,-0.465358 0,-0.164239 -0.03196,-0.319369 -0.09583,-0.465358 -0.06159,-0.145991 -0.147148,-0.272601 -0.256636,-0.379813 -0.107213,-0.107212 -0.233825,-0.191775 -0.379813,-0.253364 -0.14599,-0.06387 -0.30112,-0.0956 -0.465358,-0.0956 z m 0,0.619153 c 0.07756,0 0.149584,0.01598 0.215733,0.04791 0.06844,0.02965 0.12646,0.07071 0.174364,0.123176 0.05019,0.05246 0.08903,0.114167 0.116398,0.184881 0.02737,0.06843 0.04114,0.141448 0.04114,0.219006 0,0.07756 -0.01377,0.151564 -0.04114,0.222278 -0.02737,0.06843 -0.06622,0.130135 -0.116398,0.184881 -0.0479,0.05247 -0.105929,0.09451 -0.174364,0.126448 -0.06615,0.02965 -0.138177,0.04464 -0.215733,0.04464 -0.07756,0 -0.150572,-0.01498 -0.219006,-0.04464 -0.06615,-0.03194 -0.124183,-0.07398 -0.174363,-0.126448 -0.0479,-0.05475 -0.08674,-0.116451 -0.116398,-0.184881 -0.02737,-0.07071 -0.04114,-0.144721 -0.04114,-0.222278 0,-0.07756 0.01377,-0.150575 0.04114,-0.219006 0.02966,-0.07071 0.06849,-0.132416 0.116398,-0.184881 0.05018,-0.05246 0.108211,-0.09352 0.174363,-0.123176 0.06843,-0.03194 0.14145,-0.04791 0.219006,-0.04791 z" /><path
     id="path21"
     style="fill:#798388;fill-opacity:1;stroke-width:0.0727587"
     d="m 25.302806,30.442324 c -0.164238,0 -0.319368,0.03173 -0.465358,0.0956 -0.14599,0.06159 -0.273827,0.147143 -0.383319,0.256636 -0.107209,0.107209 -0.192765,0.233823 -0.256636,0.379813 -0.06159,0.143706 -0.09232,0.297847 -0.09232,0.462086 0,0.164236 0.03073,0.319368 0.09232,0.465358 0.06387,0.145987 0.149427,0.272601 0.256636,0.379813 0.109492,0.107209 0.237329,0.192532 0.383319,0.256402 0.14599,0.06159 0.30112,0.09256 0.465358,0.09256 0.164237,0 0.31937,-0.03097 0.465358,-0.09256 0.14599,-0.06387 0.272368,-0.149193 0.379579,-0.256402 0.10949,-0.107212 0.195047,-0.233826 0.256636,-0.379813 0.06387,-0.14599 0.09583,-0.301122 0.09583,-0.465358 0,-0.164239 -0.03196,-0.319369 -0.09583,-0.465358 -0.06159,-0.145991 -0.147146,-0.272601 -0.256636,-0.379813 -0.107211,-0.107212 -0.233589,-0.191775 -0.379579,-0.253364 -0.145988,-0.06387 -0.301121,-0.0956 -0.465358,-0.0956 z m 0,0.619153 c 0.07756,0 0.149348,0.01598 0.2155,0.04791 0.06843,0.02965 0.12646,0.07071 0.174363,0.123176 0.05018,0.05246 0.08903,0.114167 0.116398,0.184881 0.02737,0.06843 0.04114,0.141448 0.04114,0.219006 0,0.07756 -0.01376,0.151564 -0.04114,0.222278 -0.02737,0.06843 -0.06622,0.130135 -0.116398,0.184881 -0.0479,0.05247 -0.10593,0.09451 -0.174363,0.126448 -0.06615,0.02965 -0.137945,0.04464 -0.2155,0.04464 -0.07756,0 -0.150573,-0.01498 -0.219006,-0.04464 -0.06615,-0.03194 -0.124415,-0.07398 -0.174597,-0.126448 -0.0479,-0.05475 -0.08675,-0.116451 -0.116398,-0.184881 -0.02737,-0.07071 -0.0409,-0.144721 -0.0409,-0.222278 0,-0.07756 0.01353,-0.150575 0.0409,-0.219006 0.02965,-0.07071 0.06849,-0.132416 0.116398,-0.184881 0.05018,-0.05246 0.108448,-0.09352 0.174597,-0.123176 0.06843,-0.03194 0.141449,-0.04791 0.219006,-0.04791 z" /><path
     style="fill:#798388;fill-opacity:1;stroke-width:0.0727587"
     d="m 29.771272,30.10692 h 2.275604 v 0.609103 l -0.04791,0.04791 H 31.26996 v 1.998165 h -0.721761 v -1.998165 h -0.729007 l -0.04791,-0.04791 z"
     id="path20" /><path
     id="path19"
     style="fill:#798388;fill-opacity:1;stroke-width:0.0727587"
     d="m 21.850368,30.10692 v 2.655183 h 0.71171 V 31.9375 h 0.48242 c 0.12774,0 0.249687,-0.02408 0.366023,-0.07199 0.118614,-0.05018 0.222367,-0.117309 0.311329,-0.20171 0.09124,-0.08668 0.163268,-0.187224 0.215734,-0.301279 0.05475,-0.114055 0.08204,-0.237227 0.08204,-0.369528 0,-0.130023 -0.02729,-0.249753 -0.08204,-0.359245 -0.05247,-0.109492 -0.12449,-0.202922 -0.215734,-0.280476 -0.08896,-0.07756 -0.192715,-0.138037 -0.311329,-0.181376 -0.116336,-0.04334 -0.238283,-0.06498 -0.366023,-0.06498 z m 0.728772,0.588535 h 0.413938 c 0.04106,0 0.0799,0.0079 0.116397,0.02384 0.0365,0.01369 0.06846,0.03433 0.09583,0.0617 0.02737,0.02509 0.04901,0.0546 0.06498,0.08882 0.01597,0.03422 0.02384,0.07207 0.02384,0.113125 0,0.04106 -0.0079,0.07868 -0.02384,0.112892 -0.01597,0.03422 -0.0376,0.06495 -0.06498,0.09232 -0.02737,0.02509 -0.05933,0.0455 -0.09583,0.06147 -0.03649,0.01369 -0.07534,0.02057 -0.116397,0.02057 H 22.57914 Z" /><path
     id="path1"
     style="fill:#5c6bc0;stroke-width:0.496961"
     d="m 40.918092,30.051244 c -1.646786,0 -2.981704,1.335151 -2.981704,2.981938 0,1.646781 1.334918,2.981704 2.981704,2.981704 1.646786,0 2.981703,-1.334923 2.981703,-2.981704 0,-1.646787 -1.334917,-2.981938 -2.981703,-2.981938 z m 0,6.957466 c -1.379913,0 -2.456991,0.109999 -3.264519,0.448529 -0.864588,0.362435 -1.394277,0.976891 -1.676785,1.870081 -0.104417,0.330131 0.142903,0.663328 0.485693,0.663328 h 8.90795 c 0.344194,0 0.593287,-0.33463 0.488033,-0.6666 -0.283368,-0.89324 -0.814986,-1.507422 -1.680995,-1.868912 -0.806816,-0.336791 -1.882292,-0.446426 -3.259377,-0.446426 z" /><path
     id="path9"
     style="font-size:40px;line-height:1.25;font-family:PRIMETIME;-inkscape-font-specification:'PRIMETIME, Normal';letter-spacing:0px;word-spacing:0px;white-space:pre;fill:#ffd500;stroke-width:0.344319"
     d="m 40.154025,47.780432 v 10.687574 h 2.947346 l -0.01379,-3.30542 h 1.804171 l 1.859327,3.30542 h 3.209124 L 47.45344,54.060777 c 0.440728,-0.31218 0.785181,-0.697875 1.03309,-1.156965 0.247909,-0.459094 0.371868,-0.954919 0.371868,-1.487466 0,-0.321363 -0.05069,-0.656368 -0.151693,-1.005276 C 48.614889,50.052979 48.47734,49.740785 48.293701,49.47451 48.146794,49.263329 47.96777,49.056658 47.756589,48.854657 47.545408,48.652656 47.315692,48.473634 47.067783,48.317544 46.819877,48.152271 46.562747,48.023706 46.296472,47.931887 46.0302,47.830888 45.768697,47.780432 45.511604,47.780432 Z m 2.850817,2.368859 h 1.666501 c 0.165273,0 0.321487,0.03226 0.468397,0.09653 0.146907,0.05509 0.275472,0.137573 0.385654,0.247755 0.110182,0.100999 0.197274,0.220347 0.261545,0.358074 0.06427,0.137727 0.09653,0.289334 0.09653,0.454607 0,0.165273 -0.03226,0.316646 -0.09653,0.454373 -0.06427,0.137728 -0.151363,0.261682 -0.261545,0.371864 -0.110182,0.101003 -0.238747,0.183718 -0.385654,0.247989 -0.14691,0.05509 -0.303124,0.08274 -0.468397,0.08274 h -1.666501 z" /><path
     id="path7"
     style="font-size:40px;line-height:1.25;font-family:PRIMETIME;-inkscape-font-specification:'PRIMETIME, Normal';letter-spacing:0px;word-spacing:0px;white-space:pre;fill:#ffd500;stroke-width:0.344319"
     d="m 33.102365,47.49107 c -0.789636,0 -1.528768,0.151607 -2.217405,0.454607 -0.688637,0.293817 -1.29022,0.697713 -1.804401,1.211894 -0.514181,0.505002 -0.922684,1.101978 -1.225684,1.790612 -0.293818,0.688637 -0.440817,1.423161 -0.440817,2.203614 0,0.780457 0.146999,1.514981 0.440817,2.203618 0.303,0.688634 0.711503,1.289986 1.225684,1.804167 0.514181,0.504998 1.115764,0.904518 1.804401,1.198339 0.688637,0.293817 1.427769,0.440583 2.217405,0.440583 0.780456,0 1.514981,-0.146766 2.203614,-0.440583 0.69782,-0.293821 1.30378,-0.693341 1.817961,-1.198339 0.514181,-0.514181 0.918077,-1.115533 1.211894,-1.804167 0.303,-0.688637 0.454607,-1.423161 0.454607,-2.203618 0,-0.780453 -0.151607,-1.514977 -0.454607,-2.203614 -0.293817,-0.688634 -0.697713,-1.28561 -1.211894,-1.790612 -0.514181,-0.514181 -1.120141,-0.918077 -1.817961,-1.211894 -0.688633,-0.303 -1.423158,-0.454607 -2.203614,-0.454607 z m 0,2.727171 c 0.404002,0 0.77587,0.08248 1.115599,0.247758 0.348908,0.15609 0.647281,0.367371 0.89519,0.633642 0.247909,0.266272 0.440755,0.578469 0.578483,0.936561 0.14691,0.348908 0.220174,0.720779 0.220174,1.115595 0,0.385637 -0.07326,0.757508 -0.220174,1.115599 -0.137728,0.358091 -0.330574,0.670288 -0.578483,0.93656 -0.247909,0.266272 -0.546282,0.481929 -0.89519,0.647202 -0.339729,0.15609 -0.711597,0.234195 -1.115599,0.234195 -0.403999,0 -0.780477,-0.07811 -1.129386,-0.234195 -0.339728,-0.165273 -0.633725,-0.38093 -0.881634,-0.647202 -0.247909,-0.266272 -0.445132,-0.578469 -0.592039,-0.93656 -0.137727,-0.358091 -0.206618,-0.729962 -0.206618,-1.115599 0,-0.394816 0.06889,-0.766687 0.206618,-1.115595 0.146907,-0.358092 0.34413,-0.670289 0.592039,-0.936561 0.247909,-0.266271 0.541906,-0.477552 0.881634,-0.633642 0.348909,-0.165273 0.725387,-0.247758 1.129386,-0.247758 z" /><path
     id="text1040"
     style="font-size:40px;line-height:1.25;font-family:PRIMETIME;-inkscape-font-specification:'PRIMETIME, Normal';letter-spacing:0px;word-spacing:0px;white-space:pre;fill:#ffd500;stroke-width:0.344319"
     d="m 17.773129,47.780432 v 10.687574 h 2.947345 l -0.01379,-3.30542 h 1.804402 l 1.85933,3.30542 h 3.20889 l -2.506528,-4.407229 c 0.440724,-0.31218 0.784946,-0.697875 1.032855,-1.156965 0.24791,-0.459094 0.371864,-0.954919 0.371864,-1.487466 0,-0.321363 -0.05046,-0.656368 -0.151455,-1.005276 -0.09182,-0.358091 -0.229602,-0.670285 -0.413237,-0.93656 -0.146911,-0.211181 -0.325932,-0.417852 -0.537113,-0.619853 -0.211181,-0.202001 -0.440662,-0.381023 -0.688572,-0.537113 -0.247909,-0.165273 -0.505039,-0.293838 -0.771311,-0.385657 -0.266272,-0.100999 -0.528013,-0.151455 -0.785101,-0.151455 z m 2.851046,2.368859 h 1.666502 c 0.165273,0 0.321256,0.03226 0.468163,0.09653 0.14691,0.05509 0.275476,0.137573 0.385658,0.247755 0.110181,0.100999 0.197504,0.220347 0.261778,0.358074 0.06427,0.137727 0.0963,0.289334 0.0963,0.454607 0,0.165273 -0.03203,0.316646 -0.0963,0.454373 -0.06427,0.137728 -0.151597,0.261682 -0.261778,0.371864 -0.110182,0.101003 -0.238748,0.183718 -0.385658,0.247989 -0.146907,0.05509 -0.30289,0.08274 -0.468163,0.08274 h -1.666502 z" /><path
     id="path4"
     style="font-size:40px;line-height:1.25;font-family:PRIMETIME;-inkscape-font-specification:'PRIMETIME, Normal';letter-spacing:0px;word-spacing:0px;white-space:pre;fill:#ffd500;stroke-width:0.344319"
     d="m 45.814521,9.0458516 c -0.789636,0 -1.528771,0.1516065 -2.217405,0.4546065 -0.688637,0.293818 -1.289989,0.6977129 -1.80417,1.2118949 -0.514181,0.504999 -0.922918,1.101975 -1.225919,1.790611 -0.293817,0.688637 -0.440583,1.423161 -0.440583,2.203615 0,0.780455 0.146766,1.514978 0.440583,2.203615 0.303001,0.688634 0.711738,1.289986 1.225919,1.804167 0.514181,0.505002 1.115533,0.904521 1.80417,1.198339 0.688634,0.293817 1.427769,0.440583 2.217405,0.440583 0.780453,0 1.514977,-0.146766 2.203614,-0.440583 0.697817,-0.293818 1.303776,-0.693337 1.817957,-1.198339 0.514181,-0.514181 0.918311,-1.115533 1.212129,-1.804167 0.303,-0.688637 0.454373,-1.42316 0.454373,-2.203615 0,-0.780454 -0.151373,-1.514978 -0.454373,-2.203615 -0.293818,-0.688636 -0.697948,-1.285612 -1.212129,-1.790611 -0.514181,-0.514182 -1.12014,-0.9180769 -1.817957,-1.2118949 -0.688637,-0.303 -1.423161,-0.4546065 -2.203614,-0.4546065 z m 0,2.7271714 c 0.403999,0 0.77587,0.08248 1.115595,0.247755 0.348908,0.156091 0.647281,0.367371 0.89519,0.633644 0.24791,0.266273 0.440756,0.578469 0.578483,0.93656 0.146911,0.348909 0.220409,0.720779 0.220409,1.115597 0,0.385636 -0.0735,0.757507 -0.220409,1.115597 -0.137727,0.358091 -0.330573,0.670287 -0.578483,0.93656 -0.247909,0.266273 -0.546282,0.481929 -0.89519,0.647201 -0.339725,0.15609 -0.711596,0.234199 -1.115595,0.234199 -0.404003,0 -0.780481,-0.07811 -1.129389,-0.234199 -0.339725,-0.165272 -0.633491,-0.380928 -0.8814,-0.647201 -0.247906,-0.266273 -0.445363,-0.578469 -0.592273,-0.93656 -0.137727,-0.35809 -0.206619,-0.729961 -0.206619,-1.115597 0,-0.394818 0.06889,-0.766688 0.206619,-1.115597 0.14691,-0.358091 0.344367,-0.670287 0.592273,-0.93656 0.247909,-0.266273 0.541675,-0.477553 0.8814,-0.633644 0.348908,-0.165273 0.725386,-0.247755 1.129389,-0.247755 z" /><path
     id="path2"
     style="font-size:40px;line-height:1.25;font-family:PRIMETIME;-inkscape-font-specification:'PRIMETIME, Normal';letter-spacing:0px;word-spacing:0px;white-space:pre;fill:#ffd500;stroke-width:0.344319"
     d="m 33.790939,9.0458516 c -0.78964,0 -1.528771,0.1516065 -2.217405,0.4546065 -0.688637,0.293818 -1.289989,0.6977129 -1.80417,1.2118949 -0.514182,0.504999 -0.922919,1.101975 -1.225919,1.790611 -0.293817,0.688637 -0.440583,1.423161 -0.440583,2.203615 0,0.780455 0.146766,1.514978 0.440583,2.203615 0.303,0.688634 0.711737,1.289986 1.225919,1.804167 0.514181,0.505002 1.115533,0.904521 1.80417,1.198339 0.688634,0.293817 1.427765,0.440583 2.217405,0.440583 0.780453,0 1.514977,-0.146766 2.203614,-0.440583 0.697817,-0.293818 1.303776,-0.693337 1.817957,-1.198339 0.514181,-0.514181 0.918311,-1.115533 1.212129,-1.804167 0.303,-0.688637 0.454373,-1.42316 0.454373,-2.203615 0,-0.780454 -0.151373,-1.514978 -0.454373,-2.203615 -0.293818,-0.688636 -0.697948,-1.285612 -1.212129,-1.790611 -0.514181,-0.514182 -1.12014,-0.9180769 -1.817957,-1.2118949 -0.688637,-0.303 -1.423161,-0.4546065 -2.203614,-0.4546065 z m 0,2.7271714 c 0.403999,0 0.77587,0.08248 1.115595,0.247755 0.348908,0.156091 0.647281,0.367371 0.89519,0.633644 0.24791,0.266273 0.440756,0.578469 0.578483,0.93656 0.14691,0.348909 0.220409,0.720779 0.220409,1.115597 0,0.385636 -0.0735,0.757507 -0.220409,1.115597 -0.137727,0.358091 -0.330573,0.670287 -0.578483,0.93656 -0.247909,0.266273 -0.546282,0.481929 -0.89519,0.647201 -0.339725,0.15609 -0.711596,0.234199 -1.115595,0.234199 -0.404003,0 -0.780481,-0.07811 -1.129389,-0.234199 -0.339729,-0.165272 -0.633491,-0.380928 -0.881401,-0.647201 -0.247909,-0.266273 -0.445362,-0.578469 -0.592272,-0.93656 -0.137728,-0.35809 -0.206619,-0.729961 -0.206619,-1.115597 0,-0.394818 0.06889,-0.766688 0.206619,-1.115597 0.14691,-0.358091 0.344363,-0.670287 0.592272,-0.93656 0.24791,-0.266273 0.541672,-0.477553 0.881401,-0.633644 0.348908,-0.165273 0.725386,-0.247755 1.129389,-0.247755 z" /><path
     style="font-size:40px;line-height:1.25;font-family:PRIMETIME;-inkscape-font-specification:'PRIMETIME, Normal';letter-spacing:0px;word-spacing:0px;white-space:pre;fill:#ffd500;stroke-width:0.344319"
     d="m 24.218856,20.022809 v -5.495322 l -2.286275,3.77373 q -0.04132,0.08264 -0.137727,0.110182 -0.09641,0.02754 -0.165273,0.02754 -0.08264,0 -0.179046,-0.02754 -0.09641,-0.02755 -0.137727,-0.110182 l -2.286275,-3.77373 v 5.495322 H 16.230666 V 9.3351638 h 2.616821 q 0.137728,0 0.234137,0.1239547 l 2.534184,4.2282315 2.547957,-4.2282315 q 0.09641,-0.1239547 0.220364,-0.1239547 h 2.630594 V 20.022809 Z"
     id="text3057" /></svg>
