<?xml version="1.0" encoding="UTF-8" standalone="no"?>
<!-- Created with Inkscape (http://www.inkscape.org/) -->

<svg
   width="149.75414mm"
   height="149.75417mm"
   viewBox="0 0 149.75413 149.75416"
   version="1.1"
   id="svg1"
   xml:space="preserve"
   sodipodi:docname="template-matricole-a.svg"
   xmlns:inkscape="http://www.inkscape.org/namespaces/inkscape"
   xmlns:sodipodi="http://sodipodi.sourceforge.net/DTD/sodipodi-0.dtd"
   xmlns="http://www.w3.org/2000/svg"
   xmlns:svg="http://www.w3.org/2000/svg"><sodipodi:namedview
     id="namedview1"
     pagecolor="#ffffff"
     bordercolor="#999999"
     borderopacity="1"
     inkscape:showpageshadow="2"
     inkscape:pageopacity="0"
     inkscape:pagecheckerboard="0"
     inkscape:deskcolor="#d1d1d1"
     inkscape:document-units="mm"
     inkscape:zoom="0.9707102"
     inkscape:cx="368.80214"
     inkscape:cy="447.61042"
     inkscape:window-width="1920"
     inkscape:window-height="991"
     inkscape:window-x="-9"
     inkscape:window-y="-9"
     inkscape:window-maximized="1"
     inkscape:current-layer="svg1" /><defs
     id="defs1"><rect
       x="128.7717"
       y="414.12979"
       width="302.87103"
       height="109.1984"
       id="rect1040" /><rect
       x="124.651"
       y="63.870762"
       width="290.50894"
       height="105.07771"
       id="rect3058" /></defs><path
     id="rect1-3"
     style="fill:#e87d7d;fill-opacity:1;stroke-width:0.295148"
     d="M 0,0 H 149.75414 V 149.75416 H 0 Z"
     inkscape:export-filename="..\b\B6.png"
     inkscape:export-xdpi="347.36404"
     inkscape:export-ydpi="347.36404" /><path
     id="path7094"
     style="font-size:40px;line-height:1.25;font-family:PRIMETIME;-inkscape-font-specification:'PRIMETIME, Normal';letter-spacing:0px;word-spacing:0px;white-space:pre;fill:#000000;fill-opacity:0.31;stroke-width:0.805412"
     d="m 99.162423,19.999813 c -0.952899,0 -1.905841,0.07101 -2.858741,0.212907 h -5.16e-4 c -0.952699,0.1419 -1.865185,0.385588 -2.736784,0.730188 l -5.17e-4,5.16e-4 c -0.851399,0.3446 -1.63196,0.820654 -2.341459,1.428854 -0.709599,0.608299 -1.287745,1.378788 -1.733744,2.311487 l -5.17e-4,5.16e-4 c -0.223,0.4661 -0.394648,0.962932 -0.516248,1.489832 v 5.17e-4 c -0.1013,0.506699 -0.151928,1.013104 -0.151928,1.519804 v 5.16e-4 c 1e-4,1.459699 0.25336,2.635435 0.76016,3.527434 l 5.17e-4,5.16e-4 c 0.08035,0.132847 0.172607,0.253941 0.260966,0.378789 -0.01188,-0.0142 -0.02578,-0.02669 -0.03772,-0.04083 -0.06909,-0.08682 -0.135102,-0.176247 -0.206706,-0.260966 -0.06897,-0.08665 -0.134201,-0.176404 -0.205672,-0.260966 -0.06888,-0.08652 -0.134301,-0.176002 -0.205672,-0.260449 -0.06887,-0.0865 -0.134314,-0.176016 -0.205672,-0.260449 -0.0689,-0.08653 -0.134288,-0.175985 -0.205673,-0.260449 -0.06874,-0.08632 -0.133951,-0.175667 -0.205155,-0.259933 -0.0689,-0.08652 -0.134301,-0.175983 -0.205672,-0.260449 -0.06905,-0.0867 -0.134665,-0.176328 -0.206189,-0.260966 -0.06883,-0.08641 -0.13439,-0.175568 -0.205672,-0.259932 -0.06893,-0.08653 -0.134288,-0.175966 -0.205673,-0.26045 -0.06885,-0.08642 -0.133863,-0.176066 -0.205155,-0.260449 -0.06908,-0.08671 -0.134655,-0.176305 -0.206189,-0.260966 -0.06894,-0.08651 -0.134293,-0.17597 -0.205672,-0.260449 -0.06878,-0.08631 -0.133952,-0.175645 -0.205156,-0.259933 -0.06848,-0.08593 -0.133247,-0.174967 -0.204122,-0.258898 -0.06959,-0.08735 -0.13568,-0.177742 -0.207739,-0.263034 -0.06895,-0.08649 -0.134305,-0.175974 -0.205672,-0.260449 -0.06894,-0.08648 -0.134311,-0.175983 -0.205672,-0.260449 -0.06885,-0.08636 -0.134416,-0.17557 -0.205672,-0.259932 -0.06918,-0.08677 -0.134585,-0.176727 -0.206189,-0.261483 -0.06882,-0.08629 -0.133949,-0.175639 -0.205156,-0.259933 -0.06897,-0.08648 -0.134305,-0.17596 -0.205672,-0.260449 -0.06888,-0.08637 -0.134401,-0.175553 -0.205672,-0.259932 -0.06904,-0.08656 -0.134241,-0.176403 -0.205672,-0.260966 -0.06898,-0.08648 -0.134309,-0.17596 -0.205673,-0.26045 -0.06882,-0.08627 -0.133967,-0.175636 -0.205155,-0.259932 -0.29969,-0.375675 -0.614125,-0.739111 -0.958598,-1.077454 l -0.001,-0.001 c -1.135299,-1.134999 -2.473211,-2.027206 -4.013709,-2.675806 l -10e-4,-5.17e-4 C 77.963192,20.36457 76.341769,20.03033 74.618771,20.03033 h -0.0015 -5.17e-4 c -1.742998,2e-4 -3.374693,0.334657 -4.894792,1.003556 l -0.001,5.17e-4 c -1.520099,0.648699 -2.848121,1.541224 -3.983219,2.676322 l -10e-4,0.001 c -1.135099,1.114999 -2.036879,2.432432 -2.705778,3.95273 l -5.17e-4,0.001 c -0.210349,0.49313 -0.374149,1.000732 -0.516247,1.515153 -0.06873,-0.08562 -0.129231,-0.172465 -0.203089,-0.257349 -0.07092,-0.08843 -0.133948,-0.177973 -0.210323,-0.265617 -0.06885,-0.08569 -0.129133,-0.172909 -0.203088,-0.257865 -0.06894,-0.08588 -0.129546,-0.172723 -0.203605,-0.257866 -0.07081,-0.08828 -0.133594,-0.177594 -0.209807,-0.2651 -0.06903,-0.08593 -0.129472,-0.173188 -0.203605,-0.258382 -0.07003,-0.08724 -0.131417,-0.176029 -0.206705,-0.262516 -0.07032,-0.08754 -0.132663,-0.176255 -0.208257,-0.263033 -0.06859,-0.08531 -0.128973,-0.171728 -0.202571,-0.256315 -0.07017,-0.08738 -0.131815,-0.175885 -0.207223,-0.262516 -0.06935,-0.08631 -0.130186,-0.173839 -0.204638,-0.259416 -0.07068,-0.08799 -0.132798,-0.177357 -0.208773,-0.264583 -0.07003,-0.08707 -0.132025,-0.175152 -0.207223,-0.261483 -0.06874,-0.08542 -0.128862,-0.172119 -0.202571,-0.256832 -0.07035,-0.08753 -0.132181,-0.176254 -0.207739,-0.263033 -0.06969,-0.08662 -0.130897,-0.174554 -0.205673,-0.260449 -0.06914,-0.08595 -0.129466,-0.17315 -0.203605,-0.258383 -0.07073,-0.08798 -0.132817,-0.17736 -0.208773,-0.264583 -0.06914,-0.08589 -0.129496,-0.173205 -0.203605,-0.258382 -0.07108,-0.08837 -0.133985,-0.177996 -0.210323,-0.265617 -0.250281,-0.310617 -0.520995,-0.618368 -0.836124,-0.91984 l -5.17e-4,-5.17e-4 c -0.4661,-0.4458 -0.973221,-0.841475 -1.520321,-1.185974 l -5.17e-4,-5.17e-4 C 55.48804,21.48968 54.9203,21.206486 54.332601,21.003886 l -10e-4,-5.17e-4 c -0.587699,-0.2228 -1.165311,-0.334346 -1.73271,-0.334346 H 52.59834 40.768054 v 0.001 5.17e-4 23.599593 h 10e-4 0.206189 v 0.262 h 0.01447 0.192753 v 0.262516 h 0.02739 0.179834 v 0.261999 H 41.43 41.596915 v 0.262517 h 0.05323 0.154512 v 0.261999 h 0.06615 0.141077 v 0.262516 h 0.07906 0.128157 v 0.262 h 0.09198 0.115239 v 0.262516 h 0.104903 0.102319 v 0.262 h 0.118339 0.08888 v 0.262516 h 0.131258 0.07596 v 0.261999 h 0.144178 0.06356 v 0.262 h 0.156579 0.05064 v 0.262516 h 0.170016 0.03721 v 0.262 h 0.182934 0.02429 v 0.262516 h 0.195854 0.01137 v 0.262 h 0.207222 v 0.262516 h 0.207223 v 0.261999 h 0.207222 v 0.262517 H 44.9135 v 0.261999 h 0.207222 v 0.262 h 0.207739 v 0.262516 h 0.207223 v 0.261999 h 0.207222 v 0.262517 h 0.207223 v 0.261999 h 0.207222 v 0.262516 h 0.207223 v 0.262 h 0.207222 v 0.262 h 0.207223 v 0.262516 h 0.207222 v 0.261999 h 0.20774 v 0.262517 h 0.207222 v 0.261999 h 0.207223 v 0.262516 h 0.207222 v 0.262 h 0.207223 v 0.262516 h 0.207222 v 0.262 h 0.207223 V 53.9729 h 0.207222 v 0.261999 h 0.207739 v 0.262517 H 49.0595 v 0.261999 h 0.207222 v 0.262 h 0.207223 v 0.262516 h 0.207222 v 0.262 h 0.207223 v 0.262516 h 0.207222 v 0.261999 h 0.207223 v 0.262517 h 0.207222 v 0.261999 h 0.207739 v 0.262 h 0.207223 v 0.262516 h 0.207222 v 0.261999 h 0.207223 v 0.262517 h 0.207222 v 0.261999 h 0.207223 v 0.262516 h 0.207222 v 0.262 h 0.207223 v 0.262516 h 0.207222 v 0.262 h 0.20774 v 0.261999 h 0.207222 v 0.262517 h 0.207223 v 0.261999 h 0.207222 v 0.262516 h 0.207223 v 0.262 h 0.207222 v 0.262516 h 0.207223 v 0.262 h 0.207222 v 0.262516 h 0.207739 v 0.261999 h 0.207223 v 0.262517 h 0.207222 v 0.261999 h 0.207223 v 0.262 h 0.207222 v 0.262516 h 0.207223 v 0.262 h 0.207222 v 0.262516 h 0.207223 v 0.261999 h 0.207222 v 0.262517 h 0.207223 v 0.261999 h 0.207739 v 0.262 h 0.207223 v 0.262516 h 0.207222 v 0.261999 h 0.207223 v 0.262517 h 0.207222 v 0.261999 h 0.207223 v 0.262516 h 0.207222 v 0.262 h 0.207223 v 0.262516 h 0.207222 v 0.262 h 0.207739 v 0.261999 h 0.207223 v 0.262517 h 0.207222 v 0.261999 h 0.207223 v 0.262516 h 0.207222 v 0.262 h 0.207223 v 0.262516 h 0.207222 v 0.262 h 0.207223 v 0.262516 h 0.207739 v 0.261999 h 0.207223 v 0.262517 h 0.207222 v 0.261999 h 0.207222 v 0.262 h 0.207223 v 0.262516 h 0.207222 v 0.262 h 0.207223 v 0.262516 h 0.207222 v 0.261999 h 0.207223 v 0.262517 h 0.207739 v 0.261999 h 0.207223 v 0.262 h 0.207222 v 0.262516 h 0.207223 v 0.261999 h 0.207222 v 0.262517 h 0.207223 v 0.261999 h 0.207222 v 0.262516 h 0.207223 v 0.262 h 0.207739 v 0.262516 h 0.207222 v 0.262 h 0.207223 v 0.262516 h 0.207222 v 0.262 h 0.207223 v 0.261999 h 0.207222 v 0.262516 h 0.207223 v 0.262 h 0.207222 v 0.262516 h 0.207223 v 0.262 h 0.207739 v 0.262516 h 0.207223 v 0.261999 h 0.207222 v 0.262517 h 0.207223 v 0.261999 h 0.207222 v 0.262 h 0.207223 v 0.262516 h 0.207222 v 0.262 h 0.207223 v 0.262516 h 0.207222 v 0.261999 h 0.207223 v 0.262517 h 0.207739 v 0.261999 h 0.207222 v 0.262516 h 0.207223 v 0.262 h 0.207222 v 0.261999 h 0.207223 v 0.262517 h 0.207222 v 0.261999 h 0.207223 v 0.262516 h 0.207222 v 0.262 h 0.207223 v 0.262516 h 0.207739 v 0.262 h 0.207223 v 0.262516 h 0.207222 v 0.262 h 0.207223 v 0.262516 h 0.207222 v 0.261999 h 0.207223 v 0.262 h 0.207222 v 0.262516 h 0.207222 v 0.262 h 0.20774 v 0.262516 h 0.207222 v 0.261999 h 0.207223 v 0.262517 H 71.44573 V 83.0802 h 0.207223 v 0.262 h 0.207222 v 0.262516 h 0.207223 v 0.261999 h 0.207222 v 0.262517 h 0.207223 v 0.261999 h 0.207739 v 0.262517 h 0.207222 v 0.261999 h 0.207223 v 0.262516 h 0.207222 v 0.262 h 0.207223 v 0.261999 h 0.207222 v 0.262517 h 0.207223 v 0.261999 h 0.207222 v 0.262516 h 0.20774 v 0.262 h 0.207222 v 0.262516 h 0.207223 v 0.262 h 0.207222 v 0.262516 h 0.207223 v 0.262 h 0.207222 v 0.262516 h 0.207223 v 0.261999 h 0.207222 v 0.262 h 0.207223 v 0.262516 h 0.207739 v 0.262 h 0.207222 v 0.262516 h 0.207223 v 0.261999 h 0.207222 v 0.262517 h 0.207223 v 0.261999 h 0.207222 v 0.262516 h 0.207223 v 0.262 h 0.207222 v 0.261999 h 0.207223 v 0.262517 h 0.207739 v 0.261999 h 0.207223 v 0.262517 h 0.20726 v 0.261999 h 0.207223 v 0.262516 h 0.207222 v 0.262 h 0.207223 v 0.261999 h 0.207222 v 0.262517 h 0.207223 v 0.261999 h 0.207739 v 0.262516 h 0.207222 v 0.262 h 0.207223 v 0.262516 h 0.207222 v 0.262 h 0.207223 v 0.262516 h 0.207222 v 0.262 h 0.207223 v 0.262516 h 0.207222 v 0.261999 h 0.207223 v 0.262517 h 0.207222 v 0.261999 h 0.207739 v 0.262 h 0.207223 v 0.262516 h 0.207222 v 0.261999 h 0.207223 v 0.262517 h 0.207222 v 0.261999 h 0.207223 v 0.262516 h 0.207222 v 0.262 h 0.207223 v 0.261999 h 0.207222 v 0.262517 h 0.20774 v 0.261999 h 0.207222 v 0.262517 h 0.207223 v 0.261999 h 0.207222 v 0.262516 h 0.207223 v 0.262 h 0.207222 v 0.262516 h 0.207223 v 0.261995 h 0.207222 v 0.262 h 0.207739 v 0.26304 h 0.207223 v 0.262 h 0.207222 v 0.262 h 0.207223 v 0.262 h 0.207222 v 0.26303 h 0.207223 v 0.262 h 0.207222 v 0.262 h 0.207223 v 0.262 h 0.207222 v 0.262 h 0.20774 v 0.26303 h 0.207222 v 0.262 h 0.207223 v 0.262 h 0.207222 v 0.262 h 0.207223 v 0.26251 h 0.207222 v 0.262 h 0.207223 v 0.262 h 0.207222 v 0.262 h 0.207223 v 0.15503 h -1.963188 v 10e-4 2.35903 h -0.08165 v -0.262 H 86.60505 v -0.262 h -0.207223 v -0.26304 h -0.207222 v -0.262 h -0.20774 v -0.262 h -0.166398 -0.04082 v -0.262 H 85.65059 85.56842 v -0.26303 h -0.08371 -0.123507 v -0.262 h -0.04238 -0.164848 v -0.262 h -0.001 -20.778577 v 10e-4 2.35903 h -0.08113 v -0.262 h -0.207222 v -0.262 h -0.207223 v -0.26304 h -0.207739 v -0.262 h -0.207223 v -0.262 h -0.166398 -0.04082 v -0.262 h -0.125057 -0.08216 v -0.26303 h -0.08372 -0.123507 v -0.262 h -0.04237 -0.164847 v -0.262 h -10e-4 -20.778577 v 0.001 0.001 6.40891 h 5.17e-4 0.206706 v 0.262 h 0.0217 0.185518 v 0.262 h 0.04237 0.164848 v 0.26303 h 0.06356 0.14366 v 0.262 h 0.08423 0.123507 v 0.262 h 0.104903 0.102319 v 0.262 h 0.125574 0.08165 v 0.26303 h 0.146761 0.06046 v 0.262 h 0.167432 0.03979 v 0.262 h 0.188619 0.0186 v 0.262 h 0.207223 v 0.26304 h 0.207222 v 0.262 h 0.207739 v 0.26199 h 0.206706 v 0.262 h 0.207739 v 0.262 h 0.207223 v 0.26304 h 0.207222 v 0.262 h 0.207223 v 0.262 h 0.207222 v 0.262 h 0.207223 v 0.26303 h 0.207222 v 0.262 h 0.207223 v 0.262 h 0.207739 v 0.262 h 0.207222 v 0.26303 H 47.0375 v 0.262 h 0.207222 v 0.262 h 0.207223 v 0.262 h 0.207222 v 0.262 h 0.207223 v 0.26303 h 0.207222 v 0.0258 l -5.477185,9.83041 v 5.1e-4 1.12707 h 0.001 0.206189 v 0.262 h 0.04134 0.165881 v 0.262 h 0.08217 0.125057 v 0.26303 h 0.122473 0.08475 v 0.262 h 0.162781 0.04496 v 0.262 h 0.203088 0.0041 v 0.262 h 0.207223 v 0.26303 h 0.207222 v 0.262 h 0.207223 v 0.262 h 0.207222 v 0.262 h 0.207223 v 0.26303 h 0.207222 v 0.262 h 0.207739 v 0.262 h 0.207223 v 0.262 h 0.207222 v 0.262 h 0.207223 v 0.26303 h 0.207222 v 0.262 h 0.207223 v 0.262 h 0.207222 v 0.262 h 0.207223 v 0.26303 h 0.207222 v 0.262 h 0.20774 v 0.262 h 0.207222 v 0.262 h 0.207223 v 0.26304 h 0.207222 v 0.262 h 0.207222 v 0.262 h 0.207223 V 137.08 h 0.207222 v 0.262 h 0.207223 v 0.26304 h 0.207222 v 0.262 h 0.20774 v 0.262 h 0.207222 v 0.262 h 0.207223 v 0.26303 h 0.207222 v 0.262 h 0.207223 v 0.262 h 0.207222 v 0.262 h 0.207223 v 0.262 h 0.207222 v 0.26303 h 0.207739 v 0.262 h 0.207223 v 0.262 h 0.207222 v 0.262 h 0.207223 v 0.26303 h 0.207222 v 0.262 h 0.207223 v 0.262 h 0.207222 v 0.262 h 0.207223 v 0.26303 h 0.207222 v 0.262 h 0.20774 v 0.262 h 0.207222 v 0.262 h 0.207223 v 0.262 h 0.207222 v 0.26303 h 0.207223 v 0.262 h 0.207222 v 0.262 h 0.207223 v 0.262 h 0.207222 v 0.26304 h 0.207223 v 0.262 h 0.207222 v 0.26199 h 0.207739 v 0.262 h 0.207223 v 0.26304 h 0.207222 v 0.262 h 0.207223 v 0.262 h 0.207222 v 0.262 h 0.207223 v 0.262 h 0.207222 v 0.26251 h 0.207223 v 0.262 h 0.207739 v 0.262 h 0.207223 v 0.262 h 0.207222 v 0.26303 h 0.207223 v 0.262 h 0.207222 v 0.262 h 0.207223 v 0.262 h 0.207222 v 0.26303 h 0.207223 v 0.262 h 0.207222 v 0.262 h 0.207739 v 0.262 h 0.207223 v 0.262 h 0.207222 v 0.26304 h 0.207223 v 0.262 h 0.207222 v 0.262 h 0.207223 v 0.26199 h 0.207222 v 0.26304 h 0.207223 v 0.262 h 0.207222 v 0.262 h 0.207739 v 0.262 h 0.207223 v 0.26303 h 0.207222 v 0.262 h 0.207223 v 0.262 h 0.207222 v 0.262 h 0.207223 v 0.262 h 0.207222 v 0.26303 h 0.207223 v 0.262 h 0.207739 v 0.262 h 0.207223 v 0.262 h 0.207222 v 0.26303 h 0.207223 v 0.262 h 0.207222 v 0.262 h 0.207223 v 0.262 h 0.207222 v 0.262 h 0.207223 v 0.26303 H 63.3243 v 0.262 h 0.207739 v 0.262 h 0.207223 v 0.262 h 0.207222 v 0.26303 h 0.207223 v 0.262 h 0.207222 v 0.262 h 0.207223 v 0.262 h 0.207222 v 0.26304 h 0.207223 v 0.262 h 0.207739 v 0.262 h 0.206706 v 0.26199 h 0.207739 v 0.262 h 0.207223 v 0.26304 h 0.207222 v 0.262 h 0.207223 v 0.262 h 0.207222 v 0.262 h 0.207223 v 0.26303 h 0.207222 v 0.262 h 0.207739 v 0.262 h 0.207223 v 0.262 H 67.4703 v 0.26303 h 0.207223 v 0.262 h 0.207222 v 0.262 h 0.207223 v 0.262 h 0.207222 v 0.262 h 0.207223 v 0.26303 h 0.207222 v 0.262 h 0.207223 v 0.262 h 0.207739 v 0.262 h 0.207222 v 0.26303 h 0.207223 v 0.262 h 0.207222 v 0.262 h 0.207223 v 0.262 h 0.207222 v 0.26252 h 0.207223 v 0.262 h 0.207222 v 0.262 h 0.207223 v 0.262 h 0.207739 v 0.262 h 0.207223 v 0.26303 h 0.207222 v 0.262 h 0.207223 v 0.262 h 0.207222 v 0.262 h 0.207223 v 0.26303 h 0.207222 v 0.262 h 0.207223 v 0.262 h 0.207739 v 0.262 h 0.207222 v 0.26303 h 0.207223 v 0.262 h 0.207222 v 0.262 h 0.207223 v 0.262 h 0.207222 v 0.262 h 0.207223 v 0.26303 h 0.207222 v 0.262 h 0.207223 v 0.262 h 0.207739 v 0.262 h 0.207223 v 0.26303 h 0.207222 v 0.262 H 75.1396 v 0.262 h 0.207222 v 0.262 h 0.207223 v 0.262 h 0.207222 v 0.26304 h 0.207223 v 0.262 h 0.207739 v 0.26199 h 0.207222 v 0.262 h 0.207223 v 0.26304 h 0.207222 v 0.262 h 0.207223 v 0.262 h 0.207222 v 0.262 h 0.207223 v 0.26303 h 0.207222 v 0.262 h 0.207223 v 0.262 h 0.207739 v 0.262 h 0.207223 v 0.262 h 0.207222 v 0.26303 h 0.207223 v 0.262 h 0.207222 v 0.262 h 0.207223 v 0.262 h 0.207222 v 0.26303 h 0.207223 v 0.262 h 0.207222 v 0.262 h 0.207222 v 0.262 h 0.20774 v 0.26303 h 0.207222 v 0.262 h 0.207223 v 0.262 h 0.207222 v 0.262 h 0.207223 v 0.262 h 0.207222 v 0.26303 h 0.207223 v 0.262 h 0.207222 v 0.262 h 0.207739 v 0.262 h 0.207223 v 0.26304 h 0.207222 v 0.262 h 0.207223 v 0.26199 h 0.207222 v 0.262 h 0.207223 v 0.26304 h 0.207222 v 0.262 h 0.207223 v 0.262 h 0.207222 v 0.262 h 0.20774 v 0.262 h 0.207222 v 0.26303 h 0.207223 v 0.262 h 0.207222 v 0.262 h 0.207223 v 0.262 h 0.207222 v 0.26251 h 0.207223 v 0.262 h 0.207222 v 0.262 h 0.207223 v 0.262 h 0.207739 v 0.26303 h 0.207222 v 0.262 h 0.207223 v 0.262 h 0.207222 v 0.262 h 0.207223 v 0.262 h 0.207222 v 0.26304 h 0.207223 v 0.262 h 0.207222 v 0.262 h 0.20774 v 0.26199 h 0.207222 v 0.26304 h 0.207223 v 0.262 h 0.207222 v 0.262 h 0.207223 v 0.262 h 0.207222 v 0.262 h 0.207223 v 0.26303 h 0.207222 v 0.262 h 0.207223 v 0.262 h 0.207739 v 0.262 h 0.207222 v 0.26303 h 0.207223 v 0.262 h 0.207222 v 0.262 h 0.207223 v 0.262 h 0.207222 v 0.26303 h 0.207223 v 0.262 h 0.207222 v 0.262 h 0.207223 v 0.262 h 0.207222 v 0.262 h 0.207739 v 0.26303 h 0.207223 v 0.262 h 0.207222 v 0.262 h 0.207223 v 0.262 h 0.207222 v 0.26303 h 0.207223 v 0.262 h 0.207222 v 0.262 h 0.20774 v 0.262 h 0.207222 v 0.26304 h 0.207223 v 0.262 h 0.207222 v 0.262 h 0.207223 v 0.26199 h 0.207222 v 0.262 h 0.207223 v 0.26304 h 0.207222 v 0.262 h 0.207223 v 0.262 h 0.207222 v 0.262 h 0.207739 v 0.26303 h 0.207223 v 0.262 h 0.207222 v 0.262 h 0.207223 v 0.262 h 0.207222 v 0.26303 h 0.207223 v 0.262 h 0.207222 v 0.262 h 0.207223 v 0.262 h 0.207222 v 0.262 h 0.20774 v 0.26303 h 0.207222 v 0.262 h 0.207223 v 0.262 h 0.207222 v 0.262 h 0.207223 v 0.26303 h 0.207222 v 0.262 h 0.207223 v 0.262 h 0.207222 v 0.262 h 0.207739 v 0.26303 h 0.207223 v 0.262 h 0.207222 v 0.262 h 0.207223 v 0.262 h 0.207222 v 0.262 h 0.207223 v 0.26304 h 0.207222 v 0.262 h 0.207223 v 0.26199 h 0.207222 v 0.262 h 0.207226 v 0.26252 h 0.20774 v 0.262 h 0.20722 v 0.262 h 0.20722 v 0.262 h 0.20671 v 0.26303 h 0.20825 v 0.262 h 0.20671 v 0.262 h 0.20722 v 0.262 h 0.20774 v 0.262 h 0.20722 v 0.26303 h 0.20671 v 0.262 h 0.20722 v 0.262 h 0.20826 v 0.262 h 0.2067 v 0.26303 h 0.20723 v 0.262 h 0.20773 v 0.262 h 0.20723 v 0.262 h 0.2067 v 0.262 h 0.20723 v 0.26304 h 0.20773 v 0.262 h 0.20723 v 0.26199 h 0.20722 v 0.262 h 0.20671 v 0.26304 h 0.20825 v 0.262 h 0.20671 v 0.262 h 0.20722 v 0.262 h 0.20774 v 0.26303 h 0.20722 v 0.262 h 0.20671 v 0.262 h 0.20722 v 0.262 h 0.20774 v 0.262 h 0.20722 v 0.26303 h 0.20722 v 0.262 h 0.20774 v 0.262 h 0.20723 v 0.262 h 0.2067 v 0.26303 h 0.20722 v 0.262 h 0.20774 v 0.262 h 0.20723 v 0.262 h 0.2067 v 0.26303 h 0.20826 v 0.262 h 0.20722 v 0.262 h 0.20671 v 0.262 h 0.20722 v 0.262 h 0.20774 v 0.26303 h 0.20722 v 0.262 h 0.20671 v 0.262 h 0.20825 v 0.262 h 0.20671 v 0.26304 h 0.20722 v 0.262 h 0.20722 v 0.26199 h 0.20774 v 0.262 h 0.20722 v 0.26304 h 0.20671 v 0.262 h 0.20722 v 0.262 h 0.20774 v 0.262 h 0.20722 v 0.262 h 0.20671 v 0.26303 h 0.20826 v 0.262 h 0.2067 v 0.262 h 0.20722 v 0.262 h 0.20723 v 0.26303 h 0.20774 v 0.262 h 0.20722 v 0.262 h 0.2067 v 0.262 h 0.20826 v 0.26303 h 0.20671 v 0.262 h 0.20722 v 0.262 h 0.2067 v 0.262 h 0.20826 v 0.262 h 0.20722 v 0.26252 h 0.20671 v 0.262 h 0.20825 v 0.26199 h 0.20671 v 0.262 h 0.20722 v 0.26304 h 0.20671 v 0.262 h 0.20825 v 0.262 h 0.20671 v 0.262 h 0.20722 v 0.262 h 0.20774 v 0.26303 h 0.20722 v 0.262 h 0.20723 v 0.262 h 0.2067 v 0.262 h 0.20826 v 0.26303 h 0.2067 v 0.262 h 0.20723 v 0.262 h 0.2067 v 0.262 h 0.20826 v 0.26303 h 0.2067 v 0.262 h 0.20723 v 0.262 h 0.20825 v 0.262 h 0.20671 v 0.262 h 0.20722 v 0.26303 h 0.20671 v 0.262 h 0.20825 v 0.262 h 0.20671 v 0.262 h 0.20722 v 0.26303 h 0.20774 v 0.262 h 0.20722 v 0.262 h 0.20722 v 0.262 h 0.20671 v 0.26304 h 0.20826 v 0.262 h 0.2067 v 0.262 h 0.20722 v 0.26199 h 0.20774 v 0.262 h 0.20723 v 0.26304 h 0.2067 v 0.262 h 0.20722 v 0.262 h 0.20774 v 0.001 0.26097 h 0.20723 v 0.004 0.2589 h 0.20722 v 0.005 0.25683 h 0.20774 v 0.008 0.25425 h 0.20722 v 0.01 0.25218 h 0.20671 v 0.0129 0.25011 h 0.20722 v 0.0139 0.24805 h 0.20774 v 0.0171 0.24495 h 0.20722 v 0.0191 0.24288 h 0.20671 v 0.0217 0.2403 h 0.20722 v 0.0238 0.23926 h 0.20825 v 0.0258 0.23616 h 0.20671 v 0.0279 0.23409 h 0.20722 v 0.031 0.23099 h 0.20774 v 0.0331 0.22996 h 0.20722 v 0.0346 0.22737 h 0.20671 v 0.0367 0.22531 h 0.20722 v 0.0398 0.22221 h 0.20774 v 0.0419 0.22117 h 0.20722 v 0.0429 0.2191 h 0.20723 v 0.046 0.216 h 0.20774 v 0.0481 0.21394 h 0.20722 v 0.0507 0.21135 h 0.2067 v 0.0527 0.21033 h 0.20723 v 0.0548 0.20723 h 0.20774 v 0.0568 0.20515 h 0.20722 v 0.0599 0.20205 h 0.2067 v 0.062 0.20102 h 0.20826 v 0.0636 0.19844 h 0.20671 v 0.0656 0.19637 h 0.20722 v 0.0687 0.19327 h 0.20722 v 0.0708 0.19121 h 0.20774 v 0.0739 0.18914 h 0.20722 v 0.0749 0.18707 h 0.20671 v 0.0775 0.18449 h 0.20826 v 0.0796 0.18242 h 0.2067 v 0.0827 0.17983 h 0.20722 v 0.0842 0.17776 h 0.20671 v 0.0873 0.17466 h 0.20826 v 0.0894 0.1726 h 0.20722 v 0.092 0.17104 h 0.2067 v 0.093 0.16898 h 0.20723 v 0.0961 0.16588 h 0.20774 v 0.0982 0.16381 h 0.20722 v 0.10026 0.16174 h 0.2067 v 0.10336 0.15968 h 0.20826 v 0.10438 0.15762 h 0.20671 v 0.10697 0.15502 h 0.20722 v 0.10904 0.15296 h 0.20722 v 0.11214 0.1509 h 0.20774 v 0.11317 0.14883 h 0.20722 v 0.11627 0.14573 h 0.20671 v 0.11834 0.14366 h 0.20825 v 0.12092 0.14211 h 0.20671 v 0.12196 0.14004 h 0.20722 v 0.12506 0.13694 h 0.20671 v 0.12712 0.13488 h 0.20825 v 0.13022 0.13178 h 0.20671 v 0.13229 0.13074 h 0.20722 v 0.13384 0.12816 h 0.20826 v 0.13591 0.12609 h 0.2067 v 0.13901 0.12299 h 0.20723 v 0.14108 0.12195 h 0.2067 v 0.14315 0.11885 h 0.20826 v 0.14521 0.11679 h 0.2067 v 0.1478 0.1142 h 0.20723 v 0.14986 0.11317 h 0.20774 v 0.15193 0.11007 h 0.20722 v 0.154 0.108 h 0.20722 v 0.15606 0.10594 h 0.20671 v 0.15917 0.10283 h 0.20825 v 0.16123 0.1018 h 0.20671 v 0.16278 0.0992 h 0.20722 v 0.16485 0.0971 h 0.20671 v 0.16795 0.0941 h 0.20825 v 0.17002 0.093 h 0.20671 v 0.17208 0.0899 h 0.20722 v 0.17414 0.0879 h 0.20774 v 0.17674 0.0853 h 0.20722 v 0.1788 0.0842 h 0.20722 v 0.18086 0.0811 h 0.20671 v 0.18293 0.0791 h 0.20826 v 0.18603 0.076 h 0.2067 v 0.1881 0.0739 h 0.20722 v 0.19068 0.0724 h 0.20774 v 0.19172 0.0703 h 0.20723 v 0.19482 0.0672 h 0.2067 v 0.19688 0.0651 h 0.20722 v 0.19998 0.0631 h 0.20826 v 0.20102 0.061 h 0.20671 v 0.2036 0.0584 h 0.20722 v 0.20567 0.0563 h 0.20774 v 0.20774 0.0543 h 0.20722 v 0.21084 0.0522 h 0.20671 v 0.21187 0.0501 h 0.20722 v 0.21497 0.047 h 0.20774 v 0.21704 0.045 h 0.20722 v 0.21962 0.0434 h 0.20722 v 0.22066 0.0413 h 0.20774 v 0.22376 0.0382 h 0.20722 v 0.22583 0.0362 h 0.20671 v 0.22893 0.0341 h 0.20722 v 0.22996 0.032 h 0.20774 v 0.23255 0.0294 h 0.20722 v 0.23461 0.0274 h 0.20671 v 0.23771 0.0243 h 0.20722 v 0.23978 0.0227 h 0.20774 v 0.24236 0.0196 h 0.20722 v 0.24443 0.0176 h 0.20723 v 0.24701 0.015 h 0.20774 v 0.24908 0.014 h 0.20722 v 0.25115 0.0109 h 0.2067 v 0.25321 0.009 h 0.20723 v 0.25631 0.006 h 0.20774 v 0.25838 0.005 h 0.20722 v 0.25993 0.002 h 0.2067 v 0.262 h 20.2644 v -2.88458 h 0.18294 v 0.23978 0.0227 h 0.2067 v 0.24236 0.0196 h 0.20722 v 0.24443 0.0176 h 0.20723 v 0.24701 0.015 H 167.72 v 0.24908 0.014 h 0.20722 v 0.25115 0.0109 h 0.2067 v 0.25321 0.009 h 0.20723 v 0.25631 0.006 h 0.20774 v 0.25838 0.005 h 0.20722 v 0.25993 0.002 h 0.2067 v 0.262 h 20.26543 v -2.88458 h 0.1819 v 0.23978 0.0227 h 0.20671 v 0.24236 0.0196 h 0.20826 v 0.24443 0.0176 h 0.2067 v 0.24701 0.015 h 0.20722 v 0.24908 0.014 h 0.20723 v 0.25115 0.0109 h 0.20774 v 0.25321 0.009 h 0.20722 v 0.25631 0.006 h 0.2067 v 0.25838 0.005 h 0.20826 v 0.25993 0.002 h 0.20671 v 0.262 h 20.26388 v -6.41098 h -0.20774 v -0.24908 -0.0129 h -0.20723 v -0.23668 -0.0253 h -0.2067 v -0.22376 -0.0393 h -0.20722 v -0.21084 -0.0512 h -0.20774 v -0.19792 -0.0641 h -0.20723 v -0.18603 -0.076 h -0.2067 v -0.1726 -0.0904 h -0.20722 v -0.15865 -0.10335 h -0.20774 v -0.14676 -0.11524 h -0.20723 v -0.13384 -0.12816 h -0.20722 v -0.12196 -0.14004 h -0.20774 v -0.10852 -0.154 h -0.20722 v -0.0961 -0.16588 h -0.20671 v -0.0832 -0.1788 h -0.20722 v -0.0713 -0.19068 h -0.20774 v -0.0584 -0.20464 h -0.20722 v -0.0444 -0.21756 h -0.20671 v -0.032 -0.22996 h -0.20825 v -0.0191 -0.24288 h -0.20723 v -0.007 -0.2558 h -0.2067 v -0.262 h -0.20722 v -0.262 h -0.20774 v -0.262 h -0.20723 v -0.262 h -0.2067 v -0.26303 h -0.20826 v -0.262 h -0.2067 v -0.262 h -0.20722 v -0.262 h -0.0605 l 5.63842,-10.11928 v -0.001 -1.12706 h -0.20671 v -0.25994 -0.002 h -0.20722 v -0.25787 -0.004 h -0.20722 v -0.2558 -0.007 h -0.20774 v -0.25269 -0.009 h -0.20722 v -0.25063 -0.0114 h -0.20671 v -0.24857 -0.0134 h -0.20722 v -0.24702 -0.0155 h -0.20774 v -0.24443 -0.0176 h -0.20722 v -0.24236 -0.0196 h -0.20671 v -0.2403 -0.0217 h -0.20826 v -0.23823 -0.0248 h -0.20722 v -0.23513 -0.0269 h -0.2067 v -0.23306 -0.0289 h -0.20723 v -0.23099 -0.031 h -0.20774 v -0.22944 -0.0326 h -0.20722 v -0.22738 -0.0356 h -0.2067 v -0.22428 -0.0377 h -0.20826 v -0.22221 -0.0398 h -0.20671 v -0.22014 -0.0419 h -0.20722 v -0.21808 -0.045 h -0.20722 v -0.21498 -0.047 h -0.20774 v -0.21291 -0.0491 h -0.20722 v -0.21136 -0.0506 h -0.20671 v -0.20929 -0.0538 h -0.20825 v -0.20619 -0.0558 h -0.20671 v -0.20412 -0.0579 h -0.20722 v -0.20102 -0.061 h -0.20671 v -0.19896 -0.063 h -0.20825 v -0.19689 -0.0662 h -0.20671 v -0.1943 -0.0677 h -0.20722 v -0.19223 -0.0698 h -0.20826 v -0.19017 -0.0718 h -0.2067 v -0.1881 -0.0749 h -0.20723 v -0.185 -0.077 h -0.2067 v -0.18293 -0.0791 h -0.20826 v -0.18087 -0.0811 h -0.2067 v -0.1788 -0.0842 h -0.20723 v -0.17622 -0.0858 h -0.2067 v -0.17415 -0.0878 h -0.20826 v -0.17208 -0.0899 h -0.20722 v -0.17001 -0.092 h -0.20671 v -0.16795 -0.0951 h -0.20825 v -0.16485 -0.0971 h -0.20671 v -0.16278 -0.0992 h -0.20722 v -0.16123 -0.10077 h -0.20671 v -0.15916 -0.10387 h -0.20825 v -0.15607 -0.10593 h -0.20671 v -0.154 -0.108 h -0.20722 v -0.15193 -0.11007 h -0.20774 v -0.14986 -0.11214 h -0.20722 v -0.1478 -0.11523 h -0.20722 v -0.1447 -0.1173 h -0.20671 v -0.14315 -0.11885 h -0.20826 v -0.14108 -0.12092 h -0.2067 v -0.13901 -0.12403 h -0.20722 v -0.1359 -0.1261 h -0.20774 v -0.13384 -0.12815 h -0.20723 v -0.13178 -0.13022 h -0.2067 v -0.12971 -0.13333 h -0.20722 v -0.1266 -0.1354 h -0.20826 v -0.12505 -0.13695 h -0.20671 v -0.12299 -0.13901 h -0.20722 v -0.12092 -0.14108 h -0.2067 v -0.11885 -0.14418 h -0.20826 v -0.11575 -0.14625 h -0.20671 v -0.11369 -0.14831 h -0.20722 v -0.11162 -0.15038 h -0.20774 v -0.11007 -0.15296 h -0.20722 v -0.10697 -0.15503 h -0.20722 v -0.1049 -0.1571 h -0.20671 v -0.10284 -0.15916 h -0.20825 v -0.10077 -0.16226 h -0.20671 v -0.0977 -0.16433 h -0.20722 v -0.0956 -0.1664 h -0.20774 v -0.0935 -0.16846 h -0.20722 v -0.092 -0.17002 h -0.20671 v -0.0889 -0.17364 h -0.20722 v -0.0863 -0.1757 h -0.20774 v -0.0842 -0.17777 h -0.20722 v -0.0822 -0.17983 h -0.20723 v -0.0801 -0.18294 h -0.20774 v -0.077 -0.185 h -0.20722 v -0.0754 -0.18656 h -0.2067 v -0.0734 -0.18862 h -0.20723 v -0.0713 -0.19172 h -0.20774 v -0.0682 -0.19379 h -0.20722 v -0.0661 -0.19586 h -0.2067 v -0.0641 -0.19792 h -0.2072 v -0.062 -0.19999 h -0.20825 v -0.0599 -0.20309 h -0.20671 v -0.0574 -0.20464 h -0.20722 v -0.0553 -0.20671 h -0.20774 v -0.0532 -0.20877 h -0.20722 v -0.0512 -0.21187 h -0.20671 v -0.0481 -0.21394 h -0.20722 v -0.046 -0.21601 h -0.20774 v -0.0439 -0.21807 h -0.20722 v -0.0424 -0.22065 h -0.20723 v -0.0393 -0.22272 h -0.20773 v -0.0372 -0.22479 h -0.20723 v -0.0351 -0.22686 h -0.2067 v -0.0331 -0.22893 h -0.20723 v -0.031 -0.23202 h -0.20773 v -0.0279 -0.23409 h -0.20723 v -0.0258 -0.23616 h -0.2067 v -0.0243 -0.23771 h -0.20826 v -0.0222 -0.24082 h -0.2067 v -0.0191 -0.24288 H 188.928 v -0.017 -0.24495 h -0.20722 v -0.015 -0.24701 h -0.20774 v -0.0129 -0.24908 h -0.20722 v -0.0109 -0.25218 h -0.20671 v -0.008 -0.25425 h -0.20722 v -0.006 -0.2558 h -0.20774 v -0.004 -0.25787 h -0.20722 v -0.002 -0.26097 h -0.20671 v -0.262 h -0.20825 v -0.262 h -0.20723 v -0.262 h -0.2067 v -0.26303 h -0.20722 v -0.262 h -0.20774 v -0.262 h -0.20723 v -0.262 h -0.2067 v -0.262 h -0.20826 v -0.26303 h -0.2067 v -0.262 h -0.20723 v -0.262 h -0.20722 v -0.262 H 184.782 v -0.26303 h -0.20722 v -0.262 h -0.20671 v -0.262 h -0.20825 v -0.262 h -0.20671 v -0.26303 h -0.20722 v -0.262 h -0.20671 v -0.262 h -0.20825 v -0.262 h -0.20671 v -0.262 H 182.917 v -0.26304 h -0.20826 v -0.262 h -0.2067 v -0.26199 h -0.20722 v -0.262 h -0.20671 v -0.26304 h -0.20826 v -0.262 h -0.2067 v -0.262 h -0.20722 v -0.262 h -0.20671 v -0.26303 h -0.20826 v -0.262 h -0.20722 v -0.262 h -0.2067 v -0.262 h -0.20826 v -0.262 h -0.20671 v -0.26251 h -0.20722 v -0.262 h -0.2067 v -0.262 h -0.20826 v -0.262 h -0.20671 v -0.26303 h -0.20722 v -0.262 h -0.20774 v -0.262 H 178.771 v -0.262 h -0.20722 v -0.26304 h -0.20671 v -0.262 h -0.20825 v -0.262 h -0.20671 v -0.26199 h -0.20722 v -0.262 h -0.20774 v -0.26304 h -0.20722 v -0.262 h -0.20671 v -0.262 H 176.906 v -0.262 h -0.20826 v -0.26303 h -0.2067 v -0.262 h -0.20723 v -0.262 h -0.2067 v -0.262 h -0.20826 v -0.262 h -0.2067 v -0.26303 h -0.20723 v -0.262 h -0.20774 v -0.262 h -0.20722 v -0.262 h -0.2067 v -0.26303 h -0.20723 v -0.262 h -0.20825 v -0.262 h -0.20671 v -0.262 h -0.20722 v -0.26303 h -0.20774 v -0.262 h -0.20722 v -0.262 h -0.20671 v -0.262 h -0.20722 v -0.262 h -0.20774 v -0.26303 H 172.76 v -0.262 h -0.20722 v -0.262 h -0.20774 v -0.262 h -0.20723 v -0.26304 h -0.2067 v -0.262 h -0.20722 v -0.26199 h -0.20774 v -0.262 h -0.20723 v -0.26304 h -0.2067 v -0.262 H 170.895 v -0.262 h -0.20774 v -0.262 h -0.20723 v -0.262 h -0.20722 v -0.26303 h -0.20774 v -0.262 h -0.20722 v -0.262 h -0.20671 v -0.262 h -0.20722 v -0.26303 h -0.20774 v -0.262 h -0.20722 v -0.262 h -0.20671 v -0.262 H 168.614 v -0.26303 h -0.20723 v -0.262 h -0.2067 v -0.262 h -0.20722 v -0.262 h -0.20774 v -0.262 h -0.20723 v -0.26303 h -0.2067 v -0.262 h -0.20826 v -0.262 h -0.2067 v -0.262 h -0.20723 v -0.26303 h -0.20722 v -0.262 h -0.20774 v -0.262 h -0.20722 v -0.262 h -0.20671 v -0.26252 h -0.20722 v -0.262 h -0.20774 v -0.262 h -0.20722 v -0.262 h -0.2067 v -0.262 h -0.20826 v -0.26303 h -0.20671 v -0.262 h -0.20722 v -0.262 h -0.20722 v -0.262 h -0.20774 v -0.26303 h -0.20722 v -0.262 h -0.20671 v -0.262 h -0.20826 v -0.15503 h 2.83807 l -5.53506,-9.73222 c 0.75342,-0.53297 1.37548,-1.16586 1.87327,-1.89343 0.0342,0.0419 0.0686,0.0836 0.10336,0.12506 0.0714,0.0902 0.13949,0.18318 0.21342,0.2713 0.0691,0.0872 0.13473,0.17725 0.20619,0.26252 0.0707,0.0894 0.13816,0.18142 0.21135,0.26871 0.0723,0.0914 0.14112,0.18565 0.21601,0.27492 0.0697,0.088 0.13616,0.17859 0.20826,0.26459 0.07,0.0884 0.13635,0.17973 0.20877,0.26613 0.0728,0.092 0.14218,0.18668 0.21756,0.27647 0.0691,0.0872 0.13523,0.17676 0.2067,0.262 0.0701,0.0886 0.13674,0.18005 0.20929,0.26665 0.0721,0.0911 0.14082,0.18491 0.21549,0.27388 0.0692,0.0874 0.13513,0.17759 0.20671,0.26304 0.0721,0.0911 0.14085,0.18492 0.21549,0.27388 0.0697,0.0879 0.13617,0.17862 0.20826,0.26459 0.07,0.0884 0.13637,0.17972 0.20877,0.26613 0.0724,0.0915 0.14155,0.18555 0.21652,0.27492 0.069,0.087 0.13442,0.17693 0.20568,0.262 0.0722,0.0912 0.14123,0.18525 0.216,0.2744 0.07,0.0882 0.13644,0.17933 0.20878,0.26562 0.0698,0.088 0.13613,0.17902 0.20825,0.2651 0.0723,0.0913 0.14116,0.18564 0.21601,0.27491 0.07,0.0883 0.13691,0.17924 0.20929,0.26562 0.0706,0.089 0.13789,0.18067 0.21084,0.26769 0.0706,0.0891 0.13781,0.18104 0.21084,0.2682 0.0713,0.09 0.13916,0.18282 0.21291,0.27078 0.0689,0.0868 0.13402,0.17656 0.20515,0.26148 0.0728,0.0919 0.14225,0.18662 0.21756,0.27647 0.0707,0.0891 0.13833,0.18058 0.21136,0.26769 0.0694,0.0874 0.13504,0.17799 0.2067,0.26355 0.30288,0.38193 0.62,0.75207 0.96635,1.09812 1.135,1.115 2.46274,1.99683 3.98374,2.64583 1.52,0.649 3.15337,0.97307 4.89737,0.97307 1.723,0 3.34482,-0.32407 4.86482,-0.97307 1.541,-0.649 2.88026,-1.53083 4.01526,-2.64583 0.81094,-0.81023 1.49203,-1.72313 2.05466,-2.73007 0.0271,0.0402 0.065,0.0845 0.18086,0.15813 -0.004,0.0111 -0.0279,0.0512 -0.0279,0.0558 v 0.001 c 9.7e-4,0.0396 0.085,0.11028 0.23564,0.20515 -0.004,0.0115 -0.0284,0.0519 -0.0284,0.0568 v 0.001 c 0.002,0.0388 0.0841,0.10938 0.23565,0.20567 -0.004,0.0109 -0.0279,0.0507 -0.0279,0.0553 v 0.001 c 9.7e-4,0.0386 0.0849,0.10905 0.23513,0.20464 -0.004,0.0112 -0.0279,0.0517 -0.0279,0.0563 v 0.001 c 9.7e-4,0.0397 0.0842,0.10928 0.23513,0.20516 -0.004,0.0111 -0.0279,0.0512 -0.0279,0.0558 v 10e-4 c 9.7e-4,0.0397 0.0842,0.11013 0.23513,0.20516 -0.004,0.0115 -0.0284,0.0519 -0.0284,0.0568 0.002,0.0399 0.0839,0.11046 0.23616,0.20619 -0.004,0.011 -0.0279,0.0512 -0.0279,0.0558 v 0.001 c 9.6e-4,0.0386 0.0844,0.10906 0.23461,0.20464 -0.004,0.0112 -0.0279,0.0517 -0.0279,0.0563 v 10e-4 c 9.7e-4,0.0397 0.0842,0.10928 0.23513,0.20516 -0.004,0.0111 -0.0279,0.0512 -0.0279,0.0558 v 0.001 c 0.002,0.0398 0.084,0.1103 0.23565,0.20567 -0.004,0.011 -0.0279,0.0507 -0.0279,0.0553 v 0.001 c 9.7e-4,0.0398 0.0844,0.1103 0.23513,0.20567 -0.004,0.0112 -0.0279,0.0515 -0.0279,0.0563 v 0.001 c 9.6e-4,0.0386 0.0844,0.10906 0.23461,0.20464 -0.004,0.0112 -0.0279,0.0517 -0.0279,0.0563 v 0.001 c 9.7e-4,0.0396 0.0849,0.10912 0.23513,0.20464 -0.004,0.0112 -0.0279,0.0517 -0.0279,0.0563 v 0.001 c 0.002,0.0398 0.084,0.10944 0.23565,0.20568 -0.004,0.011 -0.0279,0.0507 -0.0279,0.0553 v 0.001 c 9.7e-4,0.0397 0.0847,0.11012 0.23565,0.20516 -0.004,0.0115 -0.0284,0.0519 -0.0284,0.0568 v 0.001 c 10e-4,0.04 0.0819,0.11087 0.24288,0.21187 h 0.001 c 0.161,0.081 0.26334,0.12092 0.30334,0.12092 l 5.2e-4,10e-4 c 1.419,0.66899 2.89904,1.18529 4.44004,1.55029 l 0.001,0.001 c 1.561,0.385 3.13241,0.57671 4.71341,0.57671 h 5.1e-4 c 1.277,0 2.5543,-0.12183 3.83129,-0.36483 h 0.001 c 1.277,-0.223 2.42196,-0.61798 3.43596,-1.18598 1.014,-0.588 1.8349,-1.37895 2.4629,-2.37195 v -0.001 c 0.629,-0.993 0.9431,-2.2598 0.9431,-3.8008 v -0.001 c 0,-0.527 -0.041,-1.05326 -0.12196,-1.58026 v -0.001 c -0.081,-0.547 -0.2333,-1.05381 -0.4563,-1.51981 l -0.001,-0.001 c -0.17649,-0.39166 -0.40665,-0.7354 -0.66249,-1.05627 -0.0633,-0.0918 -0.13714,-0.1743 -0.20619,-0.26096 -0.0634,-0.0921 -0.1375,-0.1746 -0.2067,-0.26149 -0.0644,-0.0935 -0.13946,-0.17747 -0.20981,-0.26561 -0.0632,-0.0917 -0.13723,-0.17388 -0.20619,-0.26045 -0.0634,-0.0921 -0.13751,-0.1746 -0.2067,-0.26149 -0.0636,-0.0923 -0.13787,-0.17494 -0.20723,-0.262 -0.0641,-0.0931 -0.1387,-0.17674 -0.20877,-0.26458 -0.063,-0.0914 -0.1365,-0.17316 -0.20515,-0.25941 -0.0636,-0.0924 -0.13781,-0.17533 -0.20723,-0.26252 -0.0639,-0.0927 -0.13854,-0.17565 -0.20825,-0.26303 -0.0637,-0.0925 -0.13824,-0.17525 -0.20774,-0.26252 -0.0637,-0.0924 -0.13775,-0.17532 -0.20722,-0.26252 -0.0636,-0.0923 -0.13785,-0.17491 -0.20723,-0.262 -0.0636,-0.0924 -0.13825,-0.17484 -0.20774,-0.262 -0.0629,-0.0913 -0.13604,-0.17323 -0.20463,-0.25941 -0.0643,-0.0935 -0.13907,-0.17747 -0.20929,-0.26562 -0.0636,-0.0923 -0.13785,-0.17491 -0.20723,-0.262 -0.0637,-0.0925 -0.13816,-0.17526 -0.20774,-0.26251 -0.0633,-0.0918 -0.13721,-0.17385 -0.20618,-0.26045 -0.064,-0.093 -0.13841,-0.17639 -0.20826,-0.26407 -0.0635,-0.0922 -0.1379,-0.17451 -0.20722,-0.26148 -0.0635,-0.0923 -0.13787,-0.17491 -0.20723,-0.262 -0.0632,-0.0917 -0.13678,-0.17394 -0.20567,-0.26045 -0.0642,-0.0933 -0.13869,-0.17713 -0.20877,-0.2651 -0.0639,-0.0927 -0.13852,-0.1756 -0.20826,-0.26303 -0.063,-0.0914 -0.1365,-0.17317 -0.20515,-0.25942 -0.0178,-0.0259 -0.0298,-0.0572 -0.0481,-0.0827 0.94844,0.33484 1.91443,0.7256 2.9068,1.20406 0.487,-0.852 0.96285,-1.68291 1.42885,-2.49391 0.487,-0.83099 0.98383,-1.67339 1.48983,-2.52439 -0.0891,-0.0551 -0.18106,-0.10044 -0.27078,-0.15348 0.0217,-0.0366 0.0423,-0.0719 0.0641,-0.10852 v -5.2e-4 c -0.0893,-0.0551 -0.18143,-0.10041 -0.2713,-0.15347 0.0218,-0.0366 0.0423,-0.0719 0.0641,-0.10853 h -0.001 c -0.0889,-0.0549 -0.18074,-0.10007 -0.27027,-0.15296 0.0218,-0.0367 0.0422,-0.0723 0.0641,-0.10903 h -5.1e-4 c -0.0893,-0.0551 -0.18145,-0.10042 -0.27131,-0.15348 0.0217,-0.0366 0.0423,-0.0719 0.0641,-0.10852 -0.0892,-0.0551 -0.18146,-0.10039 -0.2713,-0.15348 0.0218,-0.0366 0.0423,-0.0719 0.0641,-0.10852 v -10e-4 c -0.089,-0.0549 -0.18072,-0.10009 -0.27027,-0.15296 0.0216,-0.0364 0.0419,-0.0716 0.0636,-0.108 l -10e-4,-0.001 c -0.0893,-0.0551 -0.18144,-0.10039 -0.2713,-0.15348 0.0217,-0.0366 0.0423,-0.0719 0.0641,-0.10852 -0.0892,-0.055 -0.18104,-0.10049 -0.27079,-0.15348 0.0218,-0.0366 0.0423,-0.0719 0.0641,-0.10852 -0.0893,-0.0551 -0.18144,-0.10037 -0.2713,-0.15347 0.0218,-0.0366 0.0423,-0.0719 0.0641,-0.10853 h -0.001 c -0.0889,-0.055 -0.18077,-0.10002 -0.27027,-0.15296 0.0219,-0.0368 0.0427,-0.0722 0.0646,-0.10903 l -0.001,-0.001 c -0.0893,-0.0551 -0.18144,-0.1004 -0.2713,-0.15348 0.0217,-0.0366 0.0423,-0.0719 0.0641,-0.10852 -0.0892,-0.055 -0.18104,-0.10049 -0.27079,-0.15348 0.0218,-0.0366 0.0423,-0.0719 0.0641,-0.10852 -0.0892,-0.0551 -0.18147,-0.10039 -0.2713,-0.15348 0.0218,-0.0366 0.0423,-0.0719 0.0641,-0.10852 h -0.001 c -0.0892,-0.0552 -0.18147,-0.10035 -0.2713,-0.15348 0.0217,-0.0366 0.0423,-0.0719 0.0641,-0.10852 v -10e-4 c -0.0892,-0.055 -0.181,-0.10047 -0.27078,-0.15348 0.0218,-0.0366 0.0423,-0.0719 0.0641,-0.10852 -0.0893,-0.0551 -0.18143,-0.10042 -0.2713,-0.15348 0.0218,-0.0366 0.0423,-0.0719 0.0641,-0.10852 h -0.001 c -0.0889,-0.0549 -0.18074,-0.10006 -0.27027,-0.15296 0.0219,-0.0368 0.0427,-0.0722 0.0646,-0.10904 h -0.001 c -0.0892,-0.0552 -0.18147,-0.10035 -0.2713,-0.15348 0.0217,-0.0366 0.0423,-0.0719 0.0641,-0.10852 -0.0891,-0.0551 -0.18106,-0.10044 -0.27078,-0.15348 0.0218,-0.0366 0.0423,-0.0719 0.0641,-0.10852 v -0.001 c -0.0893,-0.0551 -0.18142,-0.10042 -0.2713,-0.15348 0.0218,-0.0366 0.0423,-0.0719 0.0641,-0.10852 h -10e-4 c -0.0891,-0.055 -0.18105,-0.10047 -0.27078,-0.15348 0.0217,-0.0366 0.0423,-0.0719 0.0641,-0.10852 -0.0893,-0.0551 -0.18145,-0.10037 -0.2713,-0.15348 0.0218,-0.0366 0.0423,-0.0719 0.0641,-0.10852 -0.0893,-0.0551 -0.18144,-0.10037 -0.2713,-0.15348 0.0218,-0.0366 0.0423,-0.0719 0.0641,-0.10852 l -5.1e-4,-0.001 c -0.0889,-0.0549 -0.18075,-0.10007 -0.27027,-0.15296 0.0218,-0.0367 0.0422,-0.0723 0.0641,-0.10904 h -0.001 c -0.0892,-0.0551 -0.18144,-0.1004 -0.2713,-0.15348 0.0217,-0.0366 0.0423,-0.0719 0.0641,-0.10852 -0.0892,-0.0551 -0.18103,-0.10043 -0.27078,-0.15348 0.0218,-0.0366 0.0423,-0.0719 0.0641,-0.10852 -0.0893,-0.0551 -0.18144,-0.10037 -0.2713,-0.15348 0.0218,-0.0366 0.0423,-0.0719 0.0641,-0.10852 l -10e-4,-0.001 c -0.0887,-0.0548 -0.18043,-0.0997 -0.26975,-0.15245 0.0218,-0.0366 0.0423,-0.0719 0.0641,-0.10852 l -0.001,-0.001 c -0.0893,-0.0551 -0.18143,-0.10042 -0.2713,-0.15348 0.0217,-0.0366 0.0423,-0.0719 0.0641,-0.10852 -0.0892,-0.055 -0.18104,-0.10049 -0.27078,-0.15348 0.0218,-0.0366 0.0423,-0.0719 0.0641,-0.10852 h -0.001 c -0.0889,-0.055 -0.18076,-0.10003 -0.27027,-0.15296 0.0218,-0.0367 0.0422,-0.0723 0.0641,-0.10904 h -10e-4 c -0.0891,-0.0551 -0.18108,-0.10043 -0.27079,-0.15348 0.0217,-0.0366 0.0423,-0.0719 0.0641,-0.10852 v -0.001 c -0.0893,-0.0551 -0.18143,-0.10041 -0.2713,-0.15347 0.0218,-0.0366 0.0423,-0.0719 0.0641,-0.10852 -0.0893,-0.0551 -0.18143,-0.10042 -0.2713,-0.15348 0.0218,-0.0366 0.0423,-0.0719 0.0641,-0.10852 h -0.001 c -0.0889,-0.055 -0.18076,-0.10003 -0.27026,-0.15297 0.0219,-0.0368 0.0427,-0.0722 0.0646,-0.10903 h -0.001 c -0.0892,-0.0552 -0.18146,-0.10036 -0.2713,-0.15348 0.0217,-0.0366 0.0423,-0.0719 0.0641,-0.10852 v -0.001 c -0.0892,-0.055 -0.18101,-0.10047 -0.27079,-0.15348 0.0218,-0.0366 0.0423,-0.0719 0.0641,-0.10852 -0.0893,-0.0551 -0.18142,-0.10041 -0.2713,-0.15348 0.0218,-0.0366 0.0423,-0.0719 0.0641,-0.10852 h -10e-4 c -0.0891,-0.0551 -0.18107,-0.10042 -0.27078,-0.15347 0.0217,-0.0366 0.0423,-0.0719 0.0641,-0.10853 -0.0893,-0.0551 -0.18145,-0.10037 -0.2713,-0.15347 0.0218,-0.0366 0.0423,-0.0719 0.0641,-0.10852 v -0.001 c -0.089,-0.0549 -0.18073,-0.10009 -0.27027,-0.15296 0.0216,-0.0364 0.0419,-0.0716 0.0636,-0.108 l -0.001,-0.001 c -0.0889,-0.0549 -0.18075,-0.10007 -0.27027,-0.15296 0.0218,-0.0367 0.0422,-0.0723 0.0641,-0.10904 h -10e-4 c -0.0892,-0.0551 -0.18144,-0.1004 -0.2713,-0.15348 0.0217,-0.0366 0.0423,-0.0719 0.0641,-0.10852 -0.0892,-0.0551 -0.18103,-0.10042 -0.27078,-0.15348 0.0218,-0.0366 0.0423,-0.0719 0.0641,-0.10852 -0.0893,-0.0551 -0.18144,-0.10037 -0.27131,-0.15348 0.0218,-0.0366 0.0423,-0.0719 0.0641,-0.10852 l -0.001,-0.001 c -0.0891,-0.055 -0.18106,-0.10047 -0.27078,-0.15348 0.0217,-0.0366 0.0423,-0.0719 0.0641,-0.10852 -0.0893,-0.0551 -0.18142,-0.10042 -0.2713,-0.15348 0.0218,-0.0366 0.0423,-0.0719 0.0641,-0.10852 -0.0891,-0.0551 -0.18106,-0.10044 -0.27078,-0.15348 0.0218,-0.0365 0.0423,-0.0719 0.0641,-0.10852 h -0.001 c -0.0889,-0.055 -0.18076,-0.10002 -0.27027,-0.15296 0.0219,-0.0367 0.0422,-0.0723 0.0641,-0.10904 l -0.001,-0.001 c -0.0891,-0.055 -0.18106,-0.10047 -0.27078,-0.15348 0.0217,-0.0366 0.0423,-0.0719 0.0641,-0.10852 -0.0893,-0.0551 -0.18142,-0.10042 -0.2713,-0.15348 0.0218,-0.0366 0.0423,-0.0719 0.0641,-0.10852 -0.0891,-0.055 -0.18103,-0.10048 -0.27078,-0.15348 0.0218,-0.0366 0.0423,-0.0719 0.0641,-0.10852 h -0.001 c -0.0892,-0.0552 -0.18146,-0.10035 -0.2713,-0.15348 0.0217,-0.0366 0.0423,-0.0719 0.0641,-0.10852 v -0.001 c -0.0892,-0.055 -0.18104,-0.10049 -0.27078,-0.15348 0.0216,-0.0362 0.0419,-0.0712 0.0636,-0.10749 v -0.001 c -0.0892,-0.055 -0.18101,-0.10047 -0.27079,-0.15348 0.0218,-0.0366 0.0423,-0.0719 0.0641,-0.10852 h -0.001 c -0.0889,-0.0549 -0.18075,-0.10007 -0.27027,-0.15296 0.0218,-0.0367 0.0422,-0.0723 0.0641,-0.10904 h -0.001 c -0.0891,-0.0551 -0.18108,-0.10043 -0.27079,-0.15348 0.0217,-0.0366 0.0423,-0.0719 0.0641,-0.10852 -0.0893,-0.0552 -0.18145,-0.10037 -0.2713,-0.15348 0.0218,-0.0366 0.0423,-0.0719 0.0641,-0.10852 v -10e-4 c -0.0892,-0.055 -0.18104,-0.10049 -0.27079,-0.15348 0.0218,-0.0366 0.0423,-0.0719 0.0641,-0.10852 h -0.001 c -0.0893,-0.0551 -0.18144,-0.1004 -0.2713,-0.15348 0.0217,-0.0366 0.0423,-0.0719 0.0641,-0.10852 -0.0891,-0.0551 -0.18108,-0.10043 -0.27079,-0.15348 0.0217,-0.0366 0.0423,-0.0719 0.0641,-0.10852 -0.0893,-0.0551 -0.18145,-0.10037 -0.2713,-0.15348 0.0218,-0.0366 0.0423,-0.0719 0.0641,-0.10852 l -0.001,-0.001 c -0.0889,-0.0549 -0.18074,-0.10007 -0.27026,-0.15296 0.0218,-0.0367 0.0422,-0.0723 0.0641,-0.10903 h -0.001 c -0.0891,-0.0551 -0.18106,-0.10048 -0.27078,-0.15348 0.0217,-0.0366 0.0423,-0.0719 0.0641,-0.10852 -0.0893,-0.0551 -0.18143,-0.10041 -0.27131,-0.15348 0.0218,-0.0366 0.0423,-0.0719 0.0641,-0.10852 -0.0892,-0.0551 -0.18102,-0.10043 -0.27078,-0.15348 0.0218,-0.0366 0.0423,-0.0719 0.0641,-0.10852 h -10e-4 c -0.089,-0.055 -0.18069,-0.1005 -0.27026,-0.15348 0.0218,-0.0366 0.0423,-0.0719 0.0641,-0.10852 l -0.001,-0.001 c -0.0891,-0.055 -0.18104,-0.10046 -0.27078,-0.15348 0.0217,-0.0366 0.0423,-0.0719 0.0641,-0.10852 -0.0893,-0.0551 -0.18141,-0.1004 -0.27131,-0.15347 0.0218,-0.0366 0.0423,-0.0719 0.0641,-0.10853 -0.0891,-0.0551 -0.18105,-0.10044 -0.27078,-0.15347 0.0218,-0.0366 0.0423,-0.0719 0.0641,-0.10852 h -0.001 c -0.0892,-0.0552 -0.18146,-0.10036 -0.2713,-0.15348 0.0217,-0.0366 0.0423,-0.0719 0.0641,-0.10852 v -0.001 c -0.0891,-0.055 -0.18109,-0.1 -0.27078,-0.15296 0.0218,-0.0367 0.0422,-0.0723 0.0641,-0.10904 -0.0893,-0.0551 -0.18141,-0.1004 -0.27131,-0.15348 0.0218,-0.0366 0.0423,-0.0719 0.0641,-0.10852 h -0.001 c -0.0889,-0.055 -0.18076,-0.10002 -0.27027,-0.15296 0.0218,-0.0367 0.0422,-0.0723 0.0641,-0.10904 h -0.001 c -0.0891,-0.0551 -0.18108,-0.10042 -0.27079,-0.15348 0.0217,-0.0366 0.0423,-0.0719 0.0641,-0.10852 v -5.1e-4 c -0.0893,-0.0551 -0.18143,-0.10042 -0.2713,-0.15348 0.0218,-0.0366 0.0423,-0.0719 0.0641,-0.10852 -0.0892,-0.055 -0.18104,-0.10049 -0.27079,-0.15348 0.0218,-0.0366 0.0423,-0.0719 0.0641,-0.10852 h -0.001 c -0.0892,-0.0551 -0.18146,-0.1004 -0.2713,-0.15348 0.0217,-0.0366 0.0423,-0.0719 0.0641,-0.10852 -0.0891,-0.0551 -0.18106,-0.10045 -0.27079,-0.15348 0.0218,-0.0366 0.0423,-0.0719 0.0641,-0.10852 -0.0893,-0.0551 -0.18145,-0.10037 -0.2713,-0.15348 0.0218,-0.0366 0.0423,-0.0719 0.0641,-0.10852 l -0.001,-0.001 c -0.0889,-0.0549 -0.18075,-0.10007 -0.27027,-0.15297 0.0219,-0.0368 0.0427,-0.0722 0.0646,-0.10903 h -0.001 c -0.0892,-0.0551 -0.18144,-0.1004 -0.2713,-0.15348 0.0217,-0.0366 0.0423,-0.0719 0.0641,-0.10852 -0.0893,-0.0552 -0.18145,-0.10037 -0.2713,-0.15348 0.0218,-0.0366 0.0423,-0.0719 0.0641,-0.10852 -0.0891,-0.0551 -0.18106,-0.10045 -0.27079,-0.15348 0.0218,-0.0366 0.0423,-0.0719 0.0641,-0.10852 l -0.001,-0.001 c -0.0893,-0.0551 -0.18145,-0.10039 -0.27131,-0.15347 0.0217,-0.0366 0.0423,-0.0719 0.0641,-0.10852 -0.0891,-0.055 -0.18105,-0.10048 -0.27078,-0.15348 0.0217,-0.0366 0.0423,-0.0719 0.0641,-0.10852 -0.0893,-0.0552 -0.18145,-0.10038 -0.2713,-0.15348 0.0218,-0.0366 0.0423,-0.0719 0.0641,-0.10852 h -0.001 c -0.0889,-0.055 -0.18076,-0.10003 -0.27027,-0.15297 0.0219,-0.0367 0.0427,-0.0722 0.0646,-0.10903 l -0.001,-0.001 c -0.0893,-0.0551 -0.18145,-0.10039 -0.27131,-0.15348 0.0217,-0.0366 0.0423,-0.0719 0.0641,-0.10852 -0.0891,-0.055 -0.18104,-0.10049 -0.27078,-0.15348 0.0218,-0.0366 0.0423,-0.0719 0.0641,-0.10852 -0.0893,-0.0551 -0.18143,-0.10041 -0.2713,-0.15347 0.0218,-0.0366 0.0423,-0.0719 0.0641,-0.10853 h -0.001 c -0.0891,-0.0551 -0.18107,-0.10042 -0.27078,-0.15347 0.0217,-0.0366 0.0423,-0.0719 0.0641,-0.10852 -0.0892,-0.0552 -0.1815,-0.10038 -0.27131,-0.15348 0.0217,-0.0366 0.0423,-0.0719 0.0641,-0.10852 v -10e-4 c -0.0893,-0.0551 -0.18142,-0.10041 -0.2713,-0.15348 0.0218,-0.0366 0.0423,-0.0719 0.0641,-0.10852 h -0.001 c -0.0889,-0.0549 -0.18075,-0.10007 -0.27027,-0.15296 0.0219,-0.0368 0.0427,-0.0722 0.0646,-0.10904 h -10e-4 c -0.0892,-0.0552 -0.18146,-0.10035 -0.2713,-0.15348 0.0217,-0.0366 0.0423,-0.0719 0.0641,-0.10852 -0.0891,-0.0551 -0.18106,-0.10044 -0.27079,-0.15348 0.0218,-0.0366 0.0423,-0.0719 0.0641,-0.10852 v -0.001 c -0.0893,-0.0551 -0.18142,-0.10042 -0.2713,-0.15348 0.0218,-0.0366 0.0423,-0.0719 0.0641,-0.10852 h -0.001 c -0.0891,-0.055 -0.18106,-0.10047 -0.27079,-0.15348 0.0217,-0.0366 0.0423,-0.0719 0.0641,-0.10852 -0.0892,-0.0552 -0.18146,-0.10035 -0.2713,-0.15348 0.0217,-0.0366 0.0423,-0.0719 0.0641,-0.10852 -0.0891,-0.0551 -0.18106,-0.10044 -0.27079,-0.15348 0.0218,-0.0365 0.0423,-0.0719 0.0641,-0.10852 v -0.001 c -0.0892,-0.0551 -0.18145,-0.10044 -0.2713,-0.15348 0.0218,-0.0366 0.0423,-0.0719 0.0641,-0.10852 h -0.001 c -0.0893,-0.0551 -0.18145,-0.1004 -0.2713,-0.15348 0.0217,-0.0366 0.0423,-0.0719 0.0641,-0.10852 -0.0892,-0.055 -0.181,-0.10046 -0.27078,-0.15348 0.0218,-0.0366 0.0423,-0.0719 0.0641,-0.10852 -0.0893,-0.0551 -0.18145,-0.10037 -0.2713,-0.15348 0.0218,-0.0366 0.0423,-0.0719 0.0641,-0.10852 h -0.001 c -0.0891,-0.0551 -0.18107,-0.10042 -0.27078,-0.15348 0.0217,-0.0366 0.0423,-0.0719 0.0641,-0.10852 v -10e-4 c -0.0893,-0.0551 -0.18145,-0.1004 -0.2713,-0.15348 0.0217,-0.0366 0.0423,-0.0719 0.0641,-0.10852 -0.0891,-0.055 -0.18104,-0.10049 -0.27078,-0.15348 0.0218,-0.0366 0.0423,-0.0719 0.0641,-0.10852 -0.0893,-0.0552 -0.18144,-0.10037 -0.2713,-0.15348 0.0218,-0.0366 0.0423,-0.0719 0.0641,-0.10852 h -0.001 c -0.0891,-0.0551 -0.18107,-0.10043 -0.27078,-0.15348 0.0217,-0.0366 0.0423,-0.0719 0.0641,-0.10852 v -0.001 c -0.0893,-0.0551 -0.18145,-0.1004 -0.2713,-0.15348 0.0218,-0.0366 0.0423,-0.0719 0.0641,-0.10852 -0.0893,-0.0551 -0.18142,-0.10042 -0.2713,-0.15348 0.0218,-0.0366 0.0423,-0.0719 0.0641,-0.10852 h -5.1e-4 c -0.0889,-0.0549 -0.18078,-0.10008 -0.27027,-0.15297 0.0218,-0.0367 0.0422,-0.0723 0.0641,-0.10903 h -0.001 c -0.0892,-0.0552 -0.18146,-0.10035 -0.2713,-0.15348 0.0217,-0.0366 0.0423,-0.0719 0.0641,-0.10852 v -0.001 c -0.089,-0.0549 -0.1807,-0.10007 -0.27027,-0.15296 0.0217,-0.0364 0.0419,-0.0716 0.0636,-0.108 v -10e-4 c -0.0893,-0.0551 -0.18142,-0.10042 -0.2713,-0.15348 0.0218,-0.0366 0.0423,-0.0719 0.0641,-0.10852 h -0.001 c -0.0891,-0.055 -0.18106,-0.10048 -0.27079,-0.15348 0.0217,-0.0366 0.0423,-0.0719 0.0641,-0.10852 -0.0892,-0.0552 -0.18146,-0.10036 -0.2713,-0.15348 0.0217,-0.0366 0.0423,-0.0719 0.0641,-0.10852 -0.0891,-0.0551 -0.18106,-0.10045 -0.27078,-0.15348 0.0218,-0.0366 0.0423,-0.0719 0.0641,-0.10852 l -0.001,-0.001 c -0.0889,-0.0549 -0.18074,-0.10007 -0.27027,-0.15296 0.0218,-0.0367 0.0422,-0.0723 0.0641,-0.10904 h -0.001 c -0.0891,-0.055 -0.18106,-0.10047 -0.27079,-0.15347 0.0217,-0.0366 0.0423,-0.0719 0.0641,-0.10853 -0.0893,-0.0551 -0.18144,-0.10037 -0.2713,-0.15347 0.0218,-0.0366 0.0423,-0.0719 0.0641,-0.10852 -0.0893,-0.0552 -0.18145,-0.10038 -0.2713,-0.15348 0.0218,-0.0366 0.0423,-0.0719 0.0641,-0.10852 l -10e-4,-0.001 c -0.0891,-0.055 -0.18105,-0.10047 -0.27078,-0.15348 0.0217,-0.0366 0.0423,-0.0719 0.0641,-0.10852 -0.0893,-0.0551 -0.18144,-0.1004 -0.2713,-0.15348 0.0217,-0.0366 0.0423,-0.0719 0.0641,-0.10852 -0.0892,-0.055 -0.18105,-0.10048 -0.27079,-0.15348 0.0218,-0.0365 0.0423,-0.0719 0.0641,-0.10852 h -0.001 c -0.0889,-0.055 -0.18077,-0.10002 -0.27027,-0.15296 0.0218,-0.0367 0.0422,-0.0723 0.0641,-0.10904 h -0.001 c -0.0891,-0.0551 -0.18107,-0.10042 -0.27078,-0.15348 0.0217,-0.0366 0.0423,-0.0719 0.0641,-0.10852 v -0.001 c -0.0893,-0.0551 -0.18143,-0.10042 -0.2713,-0.15348 0.0218,-0.0366 0.0423,-0.0719 0.0641,-0.10852 -0.0892,-0.055 -0.18105,-0.10049 -0.27079,-0.15348 0.0218,-0.0366 0.0423,-0.0719 0.0641,-0.10852 h -10e-4 c -0.0892,-0.0552 -0.18147,-0.10035 -0.2713,-0.15348 0.0217,-0.0366 0.0423,-0.0719 0.0641,-0.10852 -0.0892,-0.0552 -0.18146,-0.10035 -0.2713,-0.15348 0.0217,-0.0366 0.0423,-0.0719 0.0641,-0.10852 v -0.001 c -0.0892,-0.055 -0.18101,-0.10047 -0.27078,-0.15348 0.0218,-0.0366 0.0423,-0.0719 0.0641,-0.10852 -0.0893,-0.0551 -0.18142,-0.10042 -0.2713,-0.15348 0.0218,-0.0366 0.0423,-0.0719 0.0641,-0.10852 h -0.001 c -0.0891,-0.0551 -0.18108,-0.10043 -0.27078,-0.15348 0.0217,-0.0366 0.0423,-0.0719 0.0641,-0.10852 -0.0892,-0.0552 -0.18146,-0.10035 -0.2713,-0.15348 0.0218,-0.0366 0.0423,-0.0719 0.0641,-0.10852 v -10e-4 c -0.0891,-0.055 -0.18104,-0.10049 -0.27078,-0.15348 0.0218,-0.0366 0.0423,-0.0719 0.0641,-0.10852 h -10e-4 c -0.0892,-0.0551 -0.18144,-0.1004 -0.2713,-0.15348 0.0217,-0.0366 0.0423,-0.0719 0.0641,-0.10852 -0.0891,-0.055 -0.18106,-0.10047 -0.27078,-0.15348 0.0217,-0.0366 0.0423,-0.0719 0.0641,-0.10852 -0.0893,-0.0551 -0.18144,-0.10037 -0.2713,-0.15348 0.0218,-0.0366 0.0423,-0.0719 0.0641,-0.10852 -0.0893,-0.0551 -0.18144,-0.10037 -0.2713,-0.15348 0.0218,-0.0366 0.0423,-0.0719 0.0641,-0.10852 l -5.2e-4,-0.001 c -0.0893,-0.0551 -0.18142,-0.10039 -0.2713,-0.15348 0.0217,-0.0366 0.0423,-0.0719 0.0641,-0.10852 -0.0893,-0.0551 -0.18142,-0.10039 -0.2713,-0.15348 0.0217,-0.0366 0.0423,-0.0719 0.0641,-0.10852 -0.0892,-0.0551 -0.18103,-0.10043 -0.27079,-0.15348 0.0218,-0.0366 0.0423,-0.0719 0.0641,-0.10852 h -0.001 c -0.0892,-0.0552 -0.18146,-0.10035 -0.2713,-0.15348 0.0217,-0.0366 0.0423,-0.0719 0.0641,-0.10852 v -5.2e-4 c -0.0891,-0.055 -0.18106,-0.10047 -0.27079,-0.15348 0.0217,-0.0366 0.0423,-0.0719 0.0641,-0.10852 -0.0893,-0.0551 -0.18143,-0.10041 -0.2713,-0.15348 0.0218,-0.0366 0.0423,-0.0719 0.0641,-0.10852 -0.0891,-0.0551 -0.18108,-0.10045 -0.27079,-0.15348 0.0218,-0.0366 0.0423,-0.0719 0.0641,-0.10852 h -0.001 c -0.0893,-0.0552 -0.18141,-0.10083 -0.2713,-0.15399 0.0216,-0.0364 0.0424,-0.0715 0.0641,-0.10801 v -0.001 c -0.0891,-0.055 -0.18106,-0.10047 -0.27079,-0.15348 0.0217,-0.0366 0.0423,-0.0719 0.0641,-0.10852 -0.0893,-0.0551 -0.18143,-0.10042 -0.2713,-0.15348 0.0218,-0.0366 0.0423,-0.0719 0.0641,-0.10852 h -0.001 c -0.0889,-0.0549 -0.18076,-0.10007 -0.27026,-0.15296 0.0218,-0.0367 0.0422,-0.0723 0.0641,-0.10904 h -0.001 c -0.0891,-0.0551 -0.18107,-0.10042 -0.27078,-0.15348 0.0217,-0.0366 0.0423,-0.0719 0.0641,-0.10852 -0.0893,-0.0551 -0.18145,-0.10037 -0.2713,-0.15348 0.0218,-0.0366 0.0423,-0.0719 0.0641,-0.10852 v -0.001 c -0.0892,-0.055 -0.18104,-0.10049 -0.27078,-0.15348 0.0218,-0.0366 0.0423,-0.0719 0.0641,-0.10852 h -10e-4 c -0.0893,-0.0551 -0.18144,-0.1004 -0.2713,-0.15348 0.0217,-0.0366 0.0423,-0.0719 0.0641,-0.10852 -0.0891,-0.0551 -0.18107,-0.10043 -0.27078,-0.15348 0.0217,-0.0366 0.0423,-0.0719 0.0641,-0.10852 -0.0893,-0.0551 -0.18145,-0.10037 -0.2713,-0.15348 0.0218,-0.0366 0.0423,-0.0719 0.0641,-0.10852 l -0.001,-0.001 c -0.0889,-0.0549 -0.18074,-0.10007 -0.27027,-0.15296 0.0219,-0.0368 0.0427,-0.0722 0.0646,-0.10904 h -0.001 c -0.0893,-0.0551 -0.18144,-0.1004 -0.2713,-0.15348 0.0217,-0.0366 0.0423,-0.0719 0.0641,-0.10852 -0.0892,-0.0552 -0.18146,-0.10035 -0.2713,-0.15348 0.0218,-0.0366 0.0423,-0.0719 0.0641,-0.10852 -0.0892,-0.0551 -0.18103,-0.10043 -0.27078,-0.15348 0.0218,-0.0366 0.0423,-0.0719 0.0641,-0.10852 l -0.001,-0.001 c -0.0892,-0.0551 -0.18144,-0.1004 -0.2713,-0.15348 0.0217,-0.0366 0.0423,-0.0719 0.0641,-0.10852 -0.0891,-0.055 -0.18106,-0.10047 -0.27079,-0.15348 0.0217,-0.0366 0.0423,-0.0719 0.0641,-0.10852 -0.0893,-0.0551 -0.18143,-0.10041 -0.2713,-0.15348 0.0218,-0.0366 0.0423,-0.0719 0.0641,-0.10852 -0.0891,-0.0551 -0.18105,-0.10045 -0.27078,-0.15348 0.0218,-0.0366 0.0423,-0.0719 0.0641,-0.10852 h -0.001 c -0.0892,-0.0552 -0.18146,-0.10035 -0.2713,-0.15348 0.0217,-0.0366 0.0423,-0.0719 0.0641,-0.10852 v -0.001 c -0.0891,-0.055 -0.18106,-0.10047 -0.27079,-0.15347 0.0218,-0.0366 0.0423,-0.0719 0.0641,-0.10852 -0.0893,-0.0551 -0.18143,-0.10042 -0.2713,-0.15348 0.0218,-0.0366 0.0423,-0.0719 0.0641,-0.10852 h -0.001 c -0.0891,-0.0551 -0.18108,-0.10043 -0.27079,-0.15348 0.0217,-0.0366 0.0423,-0.0719 0.0641,-0.10852 -0.0892,-0.0552 -0.1815,-0.10037 -0.2713,-0.15348 0.0217,-0.0366 0.0423,-0.0719 0.0641,-0.10852 v -10e-4 c -0.0893,-0.0551 -0.18143,-0.10041 -0.2713,-0.15348 0.0218,-0.0366 0.0423,-0.0719 0.0641,-0.10852 -0.0892,-0.055 -0.18104,-0.10049 -0.27079,-0.15348 0.0218,-0.0366 0.0423,-0.0719 0.0641,-0.10852 h -0.001 c -0.0892,-0.0552 -0.18147,-0.10035 -0.27131,-0.15347 0.0217,-0.0366 0.0423,-0.0719 0.0641,-0.10853 -0.0891,-0.0551 -0.18107,-0.10042 -0.27078,-0.15347 0.0217,-0.0366 0.0423,-0.0719 0.0641,-0.10852 -0.0895,-0.0553 -0.18176,-0.10078 -0.27182,-0.154 0.0219,-0.0368 0.0427,-0.0722 0.0646,-0.10904 h -0.001 c -0.0891,-0.055 -0.18106,-0.10047 -0.27078,-0.15348 0.0217,-0.0366 0.0423,-0.0719 0.0641,-0.10852 -0.0893,-0.0551 -0.18145,-0.10039 -0.27131,-0.15348 0.0217,-0.0366 0.0423,-0.0719 0.0641,-0.10852 -0.0891,-0.0551 -0.18106,-0.10044 -0.27078,-0.15348 0.0218,-0.0366 0.0423,-0.0719 0.0641,-0.10852 -0.0893,-0.0551 -0.18145,-0.10037 -0.2713,-0.15348 0.0218,-0.0366 0.0423,-0.0719 0.0641,-0.10852 l -0.001,-0.001 c -0.0892,-0.0551 -0.18144,-0.1004 -0.2713,-0.15348 0.0217,-0.0366 0.0423,-0.0719 0.0641,-0.10852 -0.0891,-0.055 -0.18106,-0.10047 -0.27078,-0.15348 0.0217,-0.0366 0.0423,-0.0719 0.0641,-0.10852 -0.0893,-0.0551 -0.18144,-0.10037 -0.2713,-0.15348 0.0218,-0.0366 0.0423,-0.0719 0.0641,-0.10852 h -0.001 c -0.0891,-0.0551 -0.18108,-0.10042 -0.27079,-0.15348 0.0217,-0.0365 0.0423,-0.0719 0.0641,-0.10852 v -10e-4 c -0.0892,-0.0551 -0.18144,-0.1004 -0.2713,-0.15348 0.0217,-0.0366 0.0423,-0.0719 0.0641,-0.10852 -0.0891,-0.055 -0.18106,-0.10047 -0.27078,-0.15348 0.0217,-0.0366 0.0423,-0.0719 0.0641,-0.10852 -0.0893,-0.0551 -0.18142,-0.10041 -0.2713,-0.15348 0.0218,-0.0366 0.0423,-0.0719 0.0641,-0.10852 h -0.001 c -0.0891,-0.0551 -0.18108,-0.10043 -0.27079,-0.15348 0.0217,-0.0366 0.0423,-0.0719 0.0641,-0.10852 -0.0892,-0.0552 -0.18146,-0.10035 -0.2713,-0.15348 0.0217,-0.0365 0.0423,-0.0719 0.0641,-0.10852 v -0.001 c -0.0893,-0.0551 -0.18143,-0.10042 -0.2713,-0.15348 0.0218,-0.0366 0.0423,-0.0719 0.0641,-0.10852 h -5.2e-4 c -0.0889,-0.0549 -0.18074,-0.10006 -0.27027,-0.15296 0.0218,-0.0367 0.0422,-0.0723 0.0641,-0.10904 h -0.001 c -0.0892,-0.0552 -0.18146,-0.10035 -0.2713,-0.15348 0.0217,-0.0366 0.0423,-0.0719 0.0641,-0.10852 -0.0891,-0.0551 -0.18108,-0.10043 -0.27079,-0.15348 0.0218,-0.0366 0.0423,-0.0719 0.0641,-0.10852 v -10e-4 c -0.0893,-0.0551 -0.18143,-0.10042 -0.2713,-0.15348 0.0218,-0.0366 0.0423,-0.0719 0.0641,-0.10852 h -0.001 c -0.0891,-0.055 -0.18105,-0.10047 -0.27078,-0.15348 0.0217,-0.0366 0.0423,-0.0719 0.0641,-0.10852 -0.0892,-0.0552 -0.18146,-0.10035 -0.2713,-0.15348 0.0217,-0.0366 0.0423,-0.0719 0.0641,-0.10852 -0.0891,-0.0551 -0.18107,-0.10045 -0.27079,-0.15348 0.0218,-0.0366 0.0423,-0.0719 0.0641,-0.10852 v -0.001 c -0.0892,-0.0551 -0.18145,-0.10043 -0.2713,-0.15347 0.0218,-0.0366 0.0423,-0.0719 0.0641,-0.10852 h -0.001 c -0.0891,-0.0551 -0.18105,-0.10048 -0.27078,-0.15348 0.0217,-0.0366 0.0423,-0.0719 0.0641,-0.10852 -0.0892,-0.0551 -0.18148,-0.10041 -0.2713,-0.15348 0.0217,-0.0366 0.0423,-0.0719 0.0641,-0.10852 -0.0893,-0.0552 -0.18145,-0.10038 -0.27131,-0.15348 0.0218,-0.0366 0.0423,-0.0719 0.0641,-0.10852 h -10e-4 c -0.0891,-0.0551 -0.18108,-0.10043 -0.27079,-0.15348 0.0217,-0.0366 0.0423,-0.0719 0.0641,-0.10852 v -0.001 c -0.0893,-0.0551 -0.18144,-0.10038 -0.2713,-0.15348 0.0217,-0.0366 0.0423,-0.0719 0.0641,-0.10852 -0.0892,-0.055 -0.18104,-0.10046 -0.27078,-0.15347 0.0217,-0.0366 0.0423,-0.0719 0.0641,-0.10853 -0.0893,-0.0551 -0.18143,-0.10038 -0.27131,-0.15347 0.0218,-0.0366 0.0423,-0.0719 0.0641,-0.10852 h -0.001 c -0.0891,-0.05509 -0.18108,-0.10044 -0.27079,-0.153484 0.0217,-0.03656 0.0423,-0.07192 0.0641,-0.10852 v -5.17e-4 c -0.0893,-0.05515 -0.18144,-0.100369 -0.2713,-0.153479 0.0217,-0.03658 0.0423,-0.0719 0.0641,-0.108521 -0.0891,-0.05504 -0.18106,-0.100472 -0.27078,-0.153479 0.0218,-0.03659 0.0423,-0.07189 0.0641,-0.10852 l -0.001,-5.17e-4 c -0.0892,-0.05515 -0.18144,-0.100369 -0.2713,-0.153479 0.0217,-0.03657 0.0423,-0.07191 0.0641,-0.10852 -0.0892,-0.05514 -0.18146,-0.10038 -0.2713,-0.153479 0.0217,-0.03657 0.0423,-0.07191 0.0641,-0.108521 v -5.17e-4 c -0.0891,-0.05507 -0.18106,-0.100442 -0.27079,-0.153479 0.0218,-0.03658 0.0423,-0.07191 0.0641,-0.10852 -0.0893,-0.05513 -0.18143,-0.100388 -0.2713,-0.153479 0.0218,-0.03658 0.0423,-0.07191 0.0641,-0.108521 l -10e-4,-5.16e-4 c -0.0891,-0.05507 -0.18106,-0.100443 -0.27079,-0.153479 0.0217,-0.03657 0.0423,-0.07191 0.0641,-0.108521 -0.0892,-0.05515 -0.18144,-0.100369 -0.2713,-0.153479 0.0217,-0.03657 0.0423,-0.07192 0.0641,-0.10852 -0.0893,-0.05512 -0.18145,-0.100399 -0.2713,-0.153479 0.0219,-0.03677 0.0427,-0.07223 0.0646,-0.109038 h -0.001 c -0.0893,-0.05515 -0.18145,-0.100368 -0.2713,-0.153479 0.0217,-0.03657 0.0423,-0.07191 0.0641,-0.10852 -0.0891,-0.05506 -0.18108,-0.100453 -0.27079,-0.153479 0.0217,-0.03657 0.0423,-0.07191 0.0641,-0.108521 v -5.16e-4 c -0.0892,-0.05515 -0.18144,-0.100369 -0.2713,-0.153479 0.0218,-0.03657 0.0423,-0.07191 0.0641,-0.108521 -0.0893,-0.05512 -0.18145,-0.100399 -0.2713,-0.153479 0.0218,-0.03658 0.0423,-0.07191 0.0641,-0.10852 l -5.1e-4,-5.17e-4 c -0.0893,-0.05515 -0.18145,-0.100369 -0.2713,-0.153479 0.0217,-0.03657 0.0423,-0.07191 0.0641,-0.108521 -0.0892,-0.05514 -0.18147,-0.100379 -0.27131,-0.153479 0.0217,-0.03658 0.0423,-0.07191 0.0641,-0.10852 -0.0892,-0.05506 -0.18102,-0.100453 -0.27078,-0.153479 0.0218,-0.0367 0.0422,-0.0723 0.0641,-0.109038 h -0.001 c -0.0892,-0.05514 -0.18146,-0.100379 -0.2713,-0.153479 0.0217,-0.03658 0.0423,-0.07191 0.0641,-0.10852 -0.0891,-0.05506 -0.18107,-0.100453 -0.27078,-0.153479 0.0217,-0.03657 0.0423,-0.07191 0.0641,-0.108521 v -5.16e-4 c -0.0893,-0.05515 -0.18145,-0.100369 -0.27131,-0.153479 0.0218,-0.03658 0.0423,-0.07191 0.0641,-0.108521 -0.0891,-0.05504 -0.18106,-0.100471 -0.27078,-0.153479 0.0218,-0.03657 0.0423,-0.07191 0.0641,-0.10852 l -0.001,-5.17e-4 c -0.0892,-0.05515 -0.18144,-0.100369 -0.2713,-0.153479 0.0217,-0.03658 0.0423,-0.07191 0.0641,-0.108521 -0.0891,-0.05506 -0.18107,-0.100453 -0.27078,-0.153479 0.0217,-0.03657 0.0423,-0.07191 0.0641,-0.10852 v -5.17e-4 c -0.0893,-0.05513 -0.18143,-0.100388 -0.27131,-0.153479 0.0218,-0.03657 0.0423,-0.07191 0.0641,-0.10852 -0.0895,-0.05524 -0.18175,-0.1008 -0.27182,-0.153996 0.0216,-0.03638 0.0419,-0.07159 0.0636,-0.108004 v -5.17e-4 c -0.0891,-0.05507 -0.18106,-0.100442 -0.27079,-0.153479 0.0217,-0.03657 0.0423,-0.07192 0.0641,-0.10852 -0.0893,-0.05515 -0.18144,-0.100369 -0.2713,-0.153479 0.0217,-0.03658 0.0423,-0.07191 0.0641,-0.108521 -0.0891,-0.05504 -0.18106,-0.100471 -0.27079,-0.153479 0.0218,-0.03657 0.0423,-0.07191 0.0641,-0.10852 l -0.001,-5.17e-4 c -0.0893,-0.05515 -0.18144,-0.100369 -0.2713,-0.153479 0.0217,-0.03657 0.0423,-0.07191 0.0641,-0.10852 -0.0891,-0.05506 -0.18108,-0.100454 -0.27079,-0.153479 0.0217,-0.03657 0.0423,-0.07191 0.0641,-0.108521 v -5.17e-4 c -0.0893,-0.05513 -0.18143,-0.100387 -0.2713,-0.153479 0.0218,-0.03657 0.0423,-0.07191 0.0641,-0.10852 -0.0891,-0.05504 -0.18105,-0.100473 -0.27079,-0.153479 0.0218,-0.03657 0.0423,-0.07191 0.0641,-0.108521 l -0.001,-5.17e-4 c -0.0893,-0.05515 -0.18144,-0.100368 -0.2713,-0.153479 0.0217,-0.03657 0.0423,-0.07191 0.0641,-0.10852 -0.0892,-0.05514 -0.18147,-0.10038 -0.2713,-0.153479 0.0217,-0.03658 0.0423,-0.07191 0.0641,-0.108521 v -5.16e-4 c -0.0892,-0.05507 -0.181,-0.100443 -0.27078,-0.153479 0.0218,-0.03657 0.0423,-0.07191 0.0641,-0.108521 h -0.001 c -0.0893,-0.05515 -0.18145,-0.100369 -0.27131,-0.153479 0.0217,-0.03657 0.0423,-0.07191 0.0641,-0.10852 -0.0891,-0.05506 -0.18107,-0.100454 -0.27078,-0.153479 0.0218,-0.0367 0.0422,-0.0723 0.0641,-0.109038 -0.0893,-0.05515 -0.18145,-0.100368 -0.2713,-0.153479 0.0218,-0.03658 0.0423,-0.07191 0.0641,-0.10852 -0.0891,-0.05504 -0.18106,-0.100472 -0.27078,-0.153479 0.0218,-0.03657 0.0423,-0.07191 0.0641,-0.108521 l -0.001,-5.16e-4 c -0.0893,-0.05515 -0.18145,-0.100369 -0.27131,-0.153479 0.0217,-0.03657 0.0423,-0.07191 0.0641,-0.108521 -0.0891,-0.05506 -0.18107,-0.100452 -0.27078,-0.153479 0.0217,-0.03657 0.0423,-0.07191 0.0641,-0.10852 v -5.17e-4 c -0.0893,-0.05513 -0.18143,-0.100388 -0.2713,-0.153479 0.0218,-0.03657 0.0423,-0.07191 0.0641,-0.108521 h -10e-4 c -0.0891,-0.05506 -0.18108,-0.100453 -0.27078,-0.153479 0.0217,-0.03657 0.0423,-0.07191 0.0641,-0.10852 -0.0892,-0.05512 -0.1815,-0.100399 -0.27131,-0.153479 0.0218,-0.0367 0.0423,-0.0723 0.0641,-0.109038 -0.0892,-0.05515 -0.18144,-0.100367 -0.2713,-0.153479 0.0218,-0.03658 0.0423,-0.07191 0.0641,-0.10852 -0.0892,-0.05506 -0.18103,-0.100453 -0.27078,-0.153479 0.0218,-0.03657 0.0423,-0.07191 0.0641,-0.108521 l -0.001,-5.16e-4 c -0.0892,-0.05515 -0.18144,-0.100369 -0.2713,-0.153479 0.0217,-0.03658 0.0423,-0.07191 0.0641,-0.108521 -0.0891,-0.05506 -0.18108,-0.100452 -0.27079,-0.153479 0.0217,-0.03657 0.0423,-0.07191 0.0641,-0.10852 v -5.17e-4 c -0.0893,-0.05513 -0.18143,-0.100388 -0.2713,-0.153479 0.0218,-0.03657 0.0423,-0.07191 0.0641,-0.108521 h -0.001 c -0.0891,-0.05506 -0.18108,-0.100453 -0.27079,-0.153479 0.0217,-0.03657 0.0423,-0.07191 0.0641,-0.10852 v -5.17e-4 c -0.0892,-0.05515 -0.18144,-0.100368 -0.2713,-0.153479 0.0217,-0.03657 0.0423,-0.07191 0.0641,-0.10852 -0.0891,-0.05507 -0.18108,-0.100448 -0.27079,-0.153479 0.0217,-0.03657 0.0423,-0.07191 0.0641,-0.108521 v -5.17e-4 c -0.0893,-0.05513 -0.18143,-0.100388 -0.2713,-0.153479 0.0218,-0.03657 0.0423,-0.07191 0.0641,-0.10852 h -0.001 c -0.0893,-0.05515 -0.18145,-0.100369 -0.2713,-0.153479 0.0217,-0.03658 0.0423,-0.07191 0.0641,-0.108521 -0.0891,-0.05506 -0.18107,-0.100452 -0.27078,-0.153479 0.0218,-0.0367 0.0422,-0.0723 0.0641,-0.109037 -0.0893,-0.05513 -0.18143,-0.100388 -0.2713,-0.153479 0.0217,-0.03657 0.0423,-0.07191 0.0641,-0.10852 -0.0895,-0.05524 -0.18176,-0.100801 -0.27182,-0.153996 0.0216,-0.03645 0.0424,-0.07152 0.0641,-0.108004 v -5.17e-4 c -0.0893,-0.05515 -0.18145,-0.100368 -0.2713,-0.153479 0.0217,-0.03657 0.0423,-0.07191 0.0641,-0.10852 -0.0891,-0.05506 -0.18107,-0.100453 -0.27078,-0.153479 0.0217,-0.03657 0.0423,-0.07191 0.0641,-0.108521 v -5.17e-4 c -0.0893,-0.05513 -0.18143,-0.100387 -0.2713,-0.153479 0.0218,-0.03657 0.0423,-0.07191 0.0641,-0.10852 h -0.001 c -0.0891,-0.05506 -0.18107,-0.100453 -0.27078,-0.153479 0.0217,-0.03657 0.0423,-0.07191 0.0641,-0.108521 -0.0893,-0.05519 -0.18139,-0.100849 -0.2713,-0.153995 0.0217,-0.03657 0.0423,-0.07191 0.0641,-0.108521 -0.0892,-0.05515 -0.18144,-0.100369 -0.2713,-0.153479 0.0218,-0.03658 0.0423,-0.07191 0.0641,-0.10852 -0.0895,-0.05524 -0.18175,-0.1008 -0.27182,-0.153996 0.0217,-0.03657 0.0423,-0.07191 0.0641,-0.108521 -0.0892,-0.05515 -0.18144,-0.100368 -0.2713,-0.153479 0.0217,-0.03658 0.0423,-0.07191 0.0641,-0.10852 -0.0891,-0.05506 -0.18108,-0.100453 -0.27078,-0.153479 0.0217,-0.03658 0.0423,-0.07191 0.0641,-0.108521 v -5.16e-4 c -0.0893,-0.05513 -0.18142,-0.100388 -0.2713,-0.153479 0.0218,-0.03657 0.0423,-0.07191 0.0641,-0.108521 h -10e-4 c -0.0891,-0.05506 -0.18108,-0.100452 -0.27079,-0.153479 0.0217,-0.03657 0.0423,-0.07191 0.0641,-0.10852 v -5.17e-4 c -0.0892,-0.05516 -0.18144,-0.100363 -0.2713,-0.153479 0.0217,-0.03657 0.0423,-0.07191 0.0641,-0.108521 -0.0891,-0.05506 -0.18108,-0.100453 -0.27078,-0.153479 0.0217,-0.03657 0.0423,-0.07191 0.0641,-0.10852 -0.0893,-0.05512 -0.18144,-0.100399 -0.2713,-0.153479 0.0218,-0.0367 0.0422,-0.0723 0.0641,-0.109038 h -0.001 c -0.0891,-0.05507 -0.18106,-0.100441 -0.27079,-0.153479 0.0217,-0.03657 0.0423,-0.07191 0.0641,-0.10852 -0.0892,-0.05512 -0.18149,-0.100399 -0.2713,-0.153479 0.0218,-0.0367 0.0422,-0.07229 0.0641,-0.109037 -0.0893,-0.05513 -0.18143,-0.100388 -0.2713,-0.153479 0.0218,-0.03657 0.0423,-0.07191 0.0641,-0.108521 h -0.001 c -0.0891,-0.05506 -0.18107,-0.100452 -0.27078,-0.153479 0.0217,-0.03658 0.0423,-0.07191 0.0641,-0.10852 v -5.17e-4 c -0.0893,-0.05516 -0.18144,-0.100363 -0.2713,-0.153479 0.0217,-0.03657 0.0423,-0.07191 0.0641,-0.108521 -0.0891,-0.05506 -0.18108,-0.100453 -0.27079,-0.153479 0.0218,-0.03657 0.0423,-0.07191 0.0641,-0.10852 v -5.17e-4 c -0.0893,-0.05513 -0.18143,-0.100387 -0.2713,-0.153479 0.0218,-0.03657 0.0423,-0.07191 0.0641,-0.10852 h -0.001 c -0.0891,-0.05507 -0.18107,-0.100448 -0.27078,-0.153479 0.0217,-0.03657 0.0423,-0.07191 0.0641,-0.108521 v -5.17e-4 c -0.0893,-0.05515 -0.18144,-0.100368 -0.2713,-0.153479 0.0217,-0.03657 0.0423,-0.07191 0.0641,-0.10852 -0.0892,-0.05505 -0.18105,-0.100462 -0.27079,-0.153479 0.0218,-0.03657 0.0423,-0.07191 0.0641,-0.108521 h -0.001 c -0.0893,-0.05519 -0.18139,-0.100854 -0.2713,-0.153995 0.0217,-0.03657 0.0423,-0.07191 0.0641,-0.108521 -0.0893,-0.05515 -0.18144,-0.100369 -0.2713,-0.153479 0.0217,-0.03657 0.0423,-0.07191 0.0641,-0.10852 -0.0891,-0.05506 -0.18107,-0.100454 -0.27078,-0.153479 0.0217,-0.03658 0.0423,-0.07191 0.0641,-0.108521 v -5.17e-4 c -0.0893,-0.05513 -0.18143,-0.100387 -0.27131,-0.153479 0.0218,-0.03657 0.0423,-0.07191 0.0641,-0.10852 h -10e-4 c -0.0891,-0.05507 -0.18108,-0.100448 -0.27078,-0.153479 0.0217,-0.03657 0.0423,-0.07191 0.0641,-0.108521 v -5.17e-4 c -0.0893,-0.05515 -0.18144,-0.100368 -0.2713,-0.153479 0.0217,-0.03657 0.0423,-0.07191 0.0641,-0.10852 -0.0891,-0.05506 -0.18107,-0.100452 -0.27078,-0.153479 0.0218,-0.03657 0.0423,-0.07191 0.0641,-0.108521 -0.0896,-0.05533 -0.18214,-0.10072 -0.27234,-0.153995 0.0217,-0.03657 0.0423,-0.07191 0.0641,-0.108521 -0.0891,-0.05506 -0.18108,-0.100453 -0.27078,-0.153479 0.0217,-0.03658 0.0423,-0.0719 0.0641,-0.10852 -0.0893,-0.05519 -0.18138,-0.100855 -0.2713,-0.153996 0.0217,-0.03657 0.0423,-0.07191 0.0641,-0.108521 -0.0893,-0.05513 -0.18143,-0.100387 -0.2713,-0.153479 0.0218,-0.03658 0.0423,-0.07191 0.0641,-0.10852 h -5.2e-4 c -0.0892,-0.05515 -0.18146,-0.100374 -0.2713,-0.153479 0.0217,-0.03658 0.0423,-0.07191 0.0641,-0.108521 v -5.16e-4 c -0.0892,-0.05515 -0.18144,-0.100369 -0.2713,-0.153479 0.0217,-0.03657 0.0423,-0.07191 0.0641,-0.108521 -0.0891,-0.05506 -0.18108,-0.100452 -0.27079,-0.153479 0.0218,-0.03657 0.0423,-0.07191 0.0641,-0.10852 v -5.17e-4 c -0.0895,-0.05526 -0.18173,-0.100784 -0.27182,-0.153996 0.0216,-0.03637 0.0419,-0.0716 0.0636,-0.108004 -0.0891,-0.05506 -0.18108,-0.100453 -0.27079,-0.153479 0.0217,-0.03657 0.0423,-0.07191 0.0641,-0.10852 v -5.17e-4 c -0.0892,-0.05515 -0.18144,-0.100368 -0.2713,-0.153479 0.0217,-0.03657 0.0423,-0.07191 0.0641,-0.10852 -0.0892,-0.05505 -0.18104,-0.100461 -0.27079,-0.153479 0.0218,-0.03657 0.0423,-0.07191 0.0641,-0.108521 h -0.001 c -0.0893,-0.05519 -0.18139,-0.100849 -0.2713,-0.153996 0.0217,-0.03658 0.0423,-0.07191 0.0641,-0.10852 -0.0891,-0.05507 -0.18106,-0.100443 -0.27079,-0.153479 0.0217,-0.03657 0.0423,-0.07191 0.0641,-0.108521 -0.0892,-0.05512 -0.1815,-0.100398 -0.2713,-0.153479 0.0218,-0.03658 0.0423,-0.07191 0.0641,-0.10852 v -5.17e-4 c -0.0895,-0.05526 -0.18174,-0.100784 -0.27182,-0.153996 0.0216,-0.03637 0.0419,-0.0716 0.0636,-0.108004 -0.0891,-0.05506 -0.18107,-0.100453 -0.27078,-0.153479 0.0217,-0.03658 0.0423,-0.07191 0.0641,-0.10852 v -5.17e-4 c -0.0893,-0.05515 -0.18145,-0.100368 -0.27131,-0.153479 0.0217,-0.03657 0.0423,-0.07191 0.0641,-0.10852 -0.0891,-0.05505 -0.18106,-0.100467 -0.27078,-0.153479 0.0218,-0.03657 0.0423,-0.07191 0.0641,-0.108521 l -0.001,-5.17e-4 c -0.0892,-0.05515 -0.18144,-0.100368 -0.2713,-0.153479 0.0217,-0.03658 0.0423,-0.07191 0.0641,-0.10852 -0.0891,-0.05506 -0.18107,-0.100453 -0.27078,-0.153479 0.0217,-0.03657 0.0423,-0.07191 0.0641,-0.108521 -0.0893,-0.05519 -0.18139,-0.100853 -0.27131,-0.153995 0.0218,-0.03657 0.0423,-0.07191 0.0641,-0.108521 -0.0891,-0.05506 -0.18104,-0.100456 -0.27078,-0.153479 0.0218,-0.03658 0.0423,-0.0719 0.0641,-0.10852 h -0.001 c -0.0893,-0.05519 -0.18138,-0.100855 -0.2713,-0.153996 0.0217,-0.03657 0.0423,-0.07191 0.0641,-0.108521 -0.0892,-0.05515 -0.18144,-0.100368 -0.2713,-0.153479 0.0217,-0.03657 0.0423,-0.07191 0.0641,-0.10852 -0.0891,-0.05507 -0.18108,-0.100448 -0.27079,-0.153479 0.0218,-0.03658 0.0423,-0.07191 0.0641,-0.108521 l -0.001,-5.17e-4 c -0.0893,-0.05515 -0.18144,-0.100368 -0.2713,-0.153479 0.0217,-0.03657 0.0423,-0.07191 0.0641,-0.10852 -0.0891,-0.05506 -0.18108,-0.100452 -0.27079,-0.153479 0.0217,-0.03658 0.0423,-0.07191 0.0641,-0.108521 -0.0893,-0.05518 -0.18139,-0.100853 -0.2713,-0.153995 0.0217,-0.03657 0.0423,-0.07191 0.0641,-0.108521 -0.0892,-0.05506 -0.18104,-0.100456 -0.27079,-0.153479 0.0218,-0.03658 0.0423,-0.0719 0.0641,-0.10852 h -0.001 c -0.0893,-0.05519 -0.18139,-0.100854 -0.2713,-0.153996 0.0217,-0.03657 0.0423,-0.07191 0.0641,-0.108521 -0.0891,-0.05507 -0.18106,-0.100441 -0.27079,-0.153479 0.0217,-0.03657 0.0423,-0.07191 0.0641,-0.10852 -0.0893,-0.05519 -0.18139,-0.100849 -0.2713,-0.153996 0.0218,-0.03658 0.0423,-0.07191 0.0641,-0.10852 -0.0894,-0.05521 -0.18181,-0.100315 -0.27182,-0.153479 0.0217,-0.03657 0.0423,-0.07191 0.0641,-0.108521 -0.0892,-0.05512 -0.1815,-0.100398 -0.2713,-0.153479 0.0217,-0.03658 0.0423,-0.07191 0.0641,-0.10852 v -5.17e-4 c -0.0893,-0.05516 -0.18145,-0.100363 -0.2713,-0.153479 0.0217,-0.03657 0.0423,-0.07191 0.0641,-0.108521 -0.0892,-0.05507 -0.18102,-0.100447 -0.27078,-0.153479 0.0218,-0.03658 0.0423,-0.0719 0.0641,-0.10852 l -0.001,-5.17e-4 c -0.0893,-0.05515 -0.18145,-0.100368 -0.27131,-0.153479 0.0217,-0.03657 0.0423,-0.07191 0.0641,-0.10852 -0.0891,-0.05507 -0.18105,-0.100442 -0.27078,-0.153479 0.0217,-0.03657 0.0423,-0.07192 0.0641,-0.108521 -0.0893,-0.05519 -0.18139,-0.100849 -0.2713,-0.153996 0.0217,-0.03658 0.0423,-0.07191 0.0641,-0.10852 -0.0894,-0.05521 -0.18181,-0.100314 -0.27181,-0.153479 0.0217,-0.03657 0.0423,-0.07191 0.0641,-0.108521 -0.0892,-0.05514 -0.18147,-0.100379 -0.27131,-0.153479 0.0217,-0.03658 0.0423,-0.07191 0.0641,-0.10852 v -5.17e-4 c -0.0891,-0.05508 -0.18105,-0.100437 -0.27078,-0.153479 0.0217,-0.03657 0.0423,-0.07191 0.0641,-0.108521 -0.0893,-0.05512 -0.18145,-0.100398 -0.2713,-0.153479 0.0218,-0.03658 0.0423,-0.07191 0.0641,-0.10852 l -0.001,-5.17e-4 c -0.0892,-0.05515 -0.18144,-0.100368 -0.2713,-0.153479 0.0217,-0.03657 0.0423,-0.07191 0.0641,-0.10852 -0.0891,-0.05507 -0.18108,-0.100448 -0.27079,-0.153479 0.0217,-0.03658 0.0423,-0.07191 0.0641,-0.108521 -0.0893,-0.05519 -0.18139,-0.100849 -0.2713,-0.153996 0.0218,-0.03658 0.0423,-0.07191 0.0641,-0.10852 -0.0895,-0.05524 -0.18176,-0.100799 -0.27182,-0.153996 0.0216,-0.03645 0.0424,-0.07152 0.0641,-0.108004 -0.0893,-0.05518 -0.18139,-0.100853 -0.2713,-0.153995 0.0217,-0.03657 0.0423,-0.07191 0.0641,-0.108521 -0.0891,-0.05508 -0.18106,-0.100437 -0.27079,-0.153479 0.0217,-0.03658 0.0423,-0.0719 0.0641,-0.10852 -0.0893,-0.05519 -0.18139,-0.100854 -0.2713,-0.153996 0.0218,-0.03657 0.0423,-0.07191 0.0641,-0.108521 h -0.001 c -0.0891,-0.05507 -0.18106,-0.100441 -0.27079,-0.153479 0.0217,-0.03657 0.0423,-0.07191 0.0641,-0.10852 -0.0892,-0.05515 -0.18146,-0.100374 -0.2713,-0.153479 0.0217,-0.03658 0.0423,-0.07191 0.0641,-0.108521 v -5.17e-4 c -0.0893,-0.05516 -0.18144,-0.100363 -0.2713,-0.153479 0.0217,-0.03658 0.0423,-0.07191 0.0641,-0.10852 -0.0895,-0.05526 -0.18173,-0.10078 -0.27182,-0.153996 0.0216,-0.03645 0.0424,-0.07152 0.0641,-0.108004 -0.0893,-0.05518 -0.18139,-0.100853 -0.2713,-0.153995 0.0217,-0.03657 0.0423,-0.07191 0.0641,-0.108521 -0.0891,-0.05508 -0.18105,-0.100437 -0.27078,-0.153479 0.0217,-0.03658 0.0423,-0.0719 0.0641,-0.10852 -0.0893,-0.05519 -0.18139,-0.100854 -0.2713,-0.153996 0.0218,-0.03657 0.0423,-0.07191 0.0641,-0.108521 h -0.001 c -0.0891,-0.05507 -0.18105,-0.100441 -0.27078,-0.153479 0.0217,-0.03657 0.0423,-0.07191 0.0641,-0.10852 -0.0893,-0.05519 -0.18139,-0.100849 -0.2713,-0.153996 0.0217,-0.03658 0.0423,-0.07191 0.0641,-0.10852 -0.0891,-0.05508 -0.18105,-0.100437 -0.27078,-0.153479 0.0217,-0.03657 0.0423,-0.07191 0.0641,-0.108521 -0.0895,-0.05524 -0.18176,-0.100799 -0.27182,-0.153996 0.0216,-0.03637 0.0419,-0.07159 0.0636,-0.108003 v -5.17e-4 c -0.0891,-0.05508 -0.18105,-0.100437 -0.27078,-0.153479 0.0217,-0.03657 0.0423,-0.07191 0.0641,-0.108521 -0.0892,-0.05515 -0.18147,-0.100374 -0.2713,-0.153479 0.0217,-0.03658 0.0423,-0.0719 0.0641,-0.10852 v -5.17e-4 c -0.0892,-0.05515 -0.18144,-0.100368 -0.2713,-0.153479 0.0218,-0.03657 0.0423,-0.07191 0.0641,-0.10852 -0.0894,-0.05521 -0.1818,-0.100314 -0.27182,-0.153479 0.0217,-0.03658 0.0423,-0.07191 0.0641,-0.108521 -0.0893,-0.05519 -0.18139,-0.100849 -0.2713,-0.153996 0.0217,-0.03658 0.0423,-0.07191 0.0641,-0.10852 -0.0891,-0.05507 -0.18106,-0.100442 -0.27078,-0.153479 0.0217,-0.03657 0.0423,-0.07191 0.0641,-0.108521 -0.0893,-0.05512 -0.18144,-0.100398 -0.2713,-0.153479 0.0218,-0.03658 0.0423,-0.07191 0.0641,-0.10852 l -0.001,-5.17e-4 c -0.0891,-0.05508 -0.18106,-0.100437 -0.27079,-0.153479 0.0217,-0.03657 0.0423,-0.07191 0.0641,-0.108521 -0.0892,-0.05515 -0.18146,-0.100373 -0.2713,-0.153479 0.0217,-0.03658 0.0423,-0.0719 0.0641,-0.10852 v -5.17e-4 c -0.0891,-0.05507 -0.18106,-0.100441 -0.27078,-0.153479 0.0217,-0.03657 0.0423,-0.07191 0.0641,-0.10852 -0.0895,-0.05524 -0.18175,-0.1008 -0.27181,-0.153996 0.0216,-0.03637 0.0419,-0.07159 0.0636,-0.108004 -0.0893,-0.05519 -0.18139,-0.100849 -0.2713,-0.153996 0.0217,-0.03658 0.0423,-0.07191 0.0641,-0.10852 -0.0891,-0.05506 -0.18108,-0.100453 -0.27079,-0.153479 0.0217,-0.03658 0.0423,-0.07191 0.0641,-0.108521 -0.0893,-0.05519 -0.18139,-0.100853 -0.2713,-0.153995 0.0218,-0.03657 0.0423,-0.07191 0.0641,-0.108521 h -10e-4 c -0.0891,-0.05508 -0.18105,-0.100437 -0.27078,-0.153479 0.0217,-0.03658 0.0423,-0.07191 0.0641,-0.10852 -0.0893,-0.05519 -0.18139,-0.100849 -0.2713,-0.153996 0.0217,-0.03657 0.0423,-0.07191 0.0641,-0.108521 -0.0891,-0.05507 -0.18106,-0.100441 -0.27079,-0.153479 0.0218,-0.03657 0.0423,-0.07191 0.0641,-0.10852 -0.0896,-0.05533 -0.18215,-0.100721 -0.27233,-0.153996 0.0217,-0.03658 0.0423,-0.07191 0.0641,-0.10852 -0.0891,-0.05508 -0.18105,-0.100437 -0.27078,-0.153479 0.0217,-0.03657 0.0423,-0.07191 0.0641,-0.108521 -0.0892,-0.05514 -0.18146,-0.100379 -0.2713,-0.153479 0.0217,-0.03658 0.0423,-0.07191 0.0641,-0.108521 v -5.16e-4 c -0.0893,-0.05515 -0.18145,-0.100368 -0.27131,-0.153479 0.0218,-0.03657 0.0423,-0.07191 0.0641,-0.108521 h -5.1e-4 c -0.0892,-0.05515 -0.18147,-0.100374 -0.2713,-0.153479 0.0217,-0.03658 0.0423,-0.07191 0.0641,-0.10852 -0.0893,-0.05519 -0.18138,-0.100854 -0.2713,-0.153996 0.0217,-0.03657 0.0423,-0.07191 0.0641,-0.108521 -0.0891,-0.05507 -0.18105,-0.100441 -0.27078,-0.153479 0.0217,-0.03657 0.0423,-0.07191 0.0641,-0.10852 -0.0896,-0.05533 -0.18215,-0.100721 -0.27234,-0.153996 0.0217,-0.03658 0.0423,-0.07191 0.0641,-0.10852 -0.0891,-0.05508 -0.18106,-0.100436 -0.27078,-0.153479 0.0217,-0.03657 0.0423,-0.07191 0.0641,-0.108521 -0.0892,-0.05514 -0.18146,-0.100379 -0.2713,-0.153479 0.0217,-0.03658 0.0423,-0.07191 0.0641,-0.10852 v -5.17e-4 c -0.0891,-0.05508 -0.18105,-0.100437 -0.27078,-0.153479 0.0218,-0.03657 0.0423,-0.07191 0.0641,-0.108521 h -0.001 c -0.0892,-0.05515 -0.18146,-0.100374 -0.2713,-0.153479 0.0217,-0.03658 0.0423,-0.0719 0.0641,-0.10852 v -5.17e-4 c -0.0891,-0.05507 -0.18106,-0.100442 -0.27078,-0.153479 0.0217,-0.03657 0.0423,-0.07191 0.0641,-0.10852 -0.0892,-0.05514 -0.18146,-0.100379 -0.2713,-0.153479 0.0217,-0.03658 0.0423,-0.07191 0.0641,-0.108521 -0.0896,-0.05533 -0.18214,-0.100721 -0.27233,-0.153996 0.0217,-0.03658 0.0423,-0.07191 0.0641,-0.10852 -0.0891,-0.05508 -0.18106,-0.100436 -0.27079,-0.153479 0.0217,-0.03657 0.0423,-0.07191 0.0641,-0.108521 -0.0893,-0.05519 -0.18139,-0.100854 -0.2713,-0.153996 0.0217,-0.03657 0.0423,-0.07191 0.0641,-0.10852 -0.0891,-0.05508 -0.18106,-0.100437 -0.27079,-0.153479 0.0218,-0.03657 0.0423,-0.07191 0.0641,-0.108521 -0.0895,-0.05525 -0.18175,-0.100793 -0.27182,-0.153995 0.0216,-0.03638 0.0419,-0.07159 0.0636,-0.108004 v -5.17e-4 c -0.0891,-0.05507 -0.18106,-0.100441 -0.27079,-0.153479 0.0217,-0.03657 0.0423,-0.07191 0.0641,-0.10852 -0.0892,-0.05514 -0.18146,-0.100379 -0.2713,-0.153479 0.0217,-0.03658 0.0423,-0.07191 0.0641,-0.108521 -0.0894,-0.05527 -0.18178,-0.100775 -0.27182,-0.153996 0.0217,-0.03657 0.0423,-0.07191 0.0641,-0.10852 -0.0893,-0.05516 -0.18144,-0.100362 -0.2713,-0.153479 0.0217,-0.03657 0.0423,-0.07191 0.0641,-0.108521 -0.0893,-0.05519 -0.18139,-0.100853 -0.27131,-0.153995 0.0217,-0.03657 0.0423,-0.07191 0.0641,-0.108521 -0.0891,-0.05508 -0.18105,-0.100437 -0.27078,-0.153479 0.0218,-0.03658 0.0423,-0.07191 0.0641,-0.10852 -0.0896,-0.05533 -0.18215,-0.10072 -0.27234,-0.153996 0.0217,-0.03658 0.0423,-0.07191 0.0641,-0.108521 -0.0891,-0.05507 -0.18105,-0.100441 -0.27078,-0.153479 0.0217,-0.03657 0.0423,-0.07191 0.0641,-0.10852 -0.0893,-0.05519 -0.18139,-0.100849 -0.27131,-0.153996 0.0217,-0.03658 0.0423,-0.07191 0.0641,-0.10852 -0.0891,-0.05508 -0.18105,-0.100436 -0.27078,-0.153479 0.0218,-0.03657 0.0423,-0.07191 0.0641,-0.108521 h -10e-4 c -0.0892,-0.05514 -0.18146,-0.100379 -0.2713,-0.153479 0.0217,-0.03658 0.0423,-0.07191 0.0641,-0.108521 v -5.16e-4 c -0.0891,-0.05507 -0.18105,-0.100442 -0.27078,-0.153479 0.0217,-0.03657 0.0423,-0.07191 0.0641,-0.108521 -0.0892,-0.05515 -0.18147,-0.100374 -0.27131,-0.153479 0.0217,-0.03658 0.0423,-0.07191 0.0641,-0.10852 -0.0895,-0.05525 -0.18176,-0.100794 -0.27181,-0.153996 0.0217,-0.03657 0.0423,-0.07191 0.0641,-0.108521 -0.0892,-0.05515 -0.18144,-0.100368 -0.2713,-0.153479 0.0217,-0.03657 0.0423,-0.07191 0.0641,-0.10852 -0.0893,-0.05519 -0.18139,-0.100849 -0.2713,-0.153996 0.0217,-0.03658 0.0423,-0.07191 0.0641,-0.10852 -0.0891,-0.05508 -0.18106,-0.100436 -0.27079,-0.153479 0.0218,-0.03658 0.0423,-0.07191 0.0641,-0.108521 h -0.001 c -0.0892,-0.05514 -0.18146,-0.100379 -0.2713,-0.153479 0.0217,-0.03658 0.0423,-0.07191 0.0641,-0.10852 v -5.17e-4 c -0.0891,-0.05508 -0.18106,-0.100437 -0.27079,-0.153479 0.0217,-0.03657 0.0423,-0.07191 0.0641,-0.108521 -0.0892,-0.05515 -0.18146,-0.100373 -0.2713,-0.153479 0.0217,-0.03658 0.0423,-0.0719 0.0641,-0.10852 -0.0895,-0.05525 -0.18176,-0.100794 -0.27182,-0.153996 0.0217,-0.03657 0.0423,-0.07191 0.0641,-0.10852 -0.0892,-0.05514 -0.18146,-0.100379 -0.2713,-0.153479 0.0217,-0.03658 0.0423,-0.07191 0.0641,-0.108521 -0.0891,-0.05507 -0.18108,-0.100448 -0.27079,-0.153479 0.0218,-0.0367 0.0422,-0.0723 0.0641,-0.109037 -0.0893,-0.05516 -0.18144,-0.100363 -0.2713,-0.153479 0.0218,-0.03658 0.0423,-0.07191 0.0641,-0.108521 h -10e-4 c -0.0893,-0.05519 -0.18139,-0.100854 -0.27131,-0.153996 0.0217,-0.03657 0.0423,-0.07191 0.0641,-0.10852 -0.0891,-0.05508 -0.18105,-0.100437 -0.27078,-0.153479 0.0217,-0.03658 0.0423,-0.07191 0.0641,-0.108521 -0.0893,-0.05519 -0.18139,-0.100848 -0.2713,-0.153995 0.0217,-0.03658 0.0423,-0.07191 0.0641,-0.108521 -0.0895,-0.05528 -0.18176,-0.100763 -0.27182,-0.153996 0.0216,-0.03644 0.0424,-0.07152 0.0641,-0.108003 -0.0892,-0.05514 -0.18147,-0.100379 -0.27131,-0.153479 0.0217,-0.03658 0.0423,-0.0719 0.0641,-0.108521 -0.0891,-0.05507 -0.18107,-0.100447 -0.27078,-0.153479 0.0218,-0.0367 0.0423,-0.0723 0.0641,-0.109037 -0.0892,-0.05515 -0.18146,-0.100373 -0.2713,-0.153479 0.0217,-0.03658 0.0423,-0.07191 0.0641,-0.108521 -0.0895,-0.05524 -0.18176,-0.100799 -0.27182,-0.153995 0.0217,-0.03657 0.0423,-0.07191 0.0641,-0.108521 -0.0893,-0.05516 -0.18145,-0.100363 -0.27131,-0.153479 0.0217,-0.03658 0.0423,-0.07191 0.0641,-0.10852 -0.0893,-0.05519 -0.18138,-0.100849 -0.2713,-0.153996 0.0217,-0.03658 0.0423,-0.07191 0.0641,-0.108521 -0.0895,-0.05528 -0.18175,-0.100769 -0.27182,-0.153995 0.0216,-0.03644 0.0424,-0.07152 0.0641,-0.108004 -0.0893,-0.05519 -0.18139,-0.100849 -0.2713,-0.153996 0.0217,-0.03658 0.0423,-0.07191 0.0641,-0.10852 -0.0891,-0.05508 -0.18106,-0.100436 -0.27079,-0.153479 0.0217,-0.03658 0.0423,-0.07191 0.0641,-0.108521 -0.0892,-0.05515 -0.18146,-0.100373 -0.2713,-0.153479 0.0218,-0.03658 0.0423,-0.07191 0.0641,-0.10852 v -5.17e-4 c -0.0894,-0.05521 -0.18181,-0.100314 -0.27182,-0.153479 0.0217,-0.03657 0.0423,-0.07191 0.0641,-0.108521 -0.0892,-0.05515 -0.18146,-0.100374 -0.2713,-0.153479 0.0217,-0.03658 0.0423,-0.0719 0.0641,-0.10852 -0.0891,-0.05507 -0.18108,-0.100447 -0.27079,-0.153479 0.0218,-0.0367 0.0422,-0.0723 0.0641,-0.109038 -0.0894,-0.05528 -0.18175,-0.100769 -0.27181,-0.153995 0.0216,-0.03637 0.0419,-0.0716 0.0636,-0.108004 -0.0891,-0.05507 -0.18108,-0.100448 -0.27079,-0.153479 0.0218,-0.0367 0.0423,-0.0723 0.0641,-0.109037 -0.0893,-0.05516 -0.18144,-0.100363 -0.2713,-0.153479 0.0217,-0.03658 0.0423,-0.07191 0.0641,-0.108521 -0.0892,-0.05515 -0.18146,-0.100373 -0.2713,-0.153479 0.0217,-0.03658 0.0423,-0.07191 0.0641,-0.10852 v -5.17e-4 c -0.0895,-0.05528 -0.18171,-0.100769 -0.27182,-0.153996 0.0216,-0.03645 0.0424,-0.07152 0.0641,-0.108004 -0.0892,-0.05515 -0.18146,-0.100373 -0.2713,-0.153479 0.0217,-0.03658 0.0423,-0.0719 0.0641,-0.10852 -0.0891,-0.05507 -0.18108,-0.100447 -0.27079,-0.153479 0.0218,-0.0367 0.0422,-0.0723 0.0641,-0.109037 -0.0892,-0.05514 -0.18146,-0.100379 -0.2713,-0.153479 0.0218,-0.03658 0.0423,-0.07191 0.0641,-0.108521 h -0.001 c -0.0891,-0.05507 -0.18107,-0.100448 -0.27078,-0.153479 0.0218,-0.0367 0.0423,-0.0723 0.0641,-0.109037 -0.0893,-0.05516 -0.18145,-0.100363 -0.2713,-0.153479 0.0217,-0.03658 0.0423,-0.07191 0.0641,-0.108521 -0.0891,-0.05507 -0.18108,-0.100447 -0.27079,-0.153479 0.0218,-0.0367 0.0422,-0.0723 0.0641,-0.109037 -0.0895,-0.05528 -0.18176,-0.100764 -0.27182,-0.153996 0.0216,-0.03637 0.0419,-0.07159 0.0636,-0.108004 -0.0893,-0.05519 -0.18139,-0.100848 -0.2713,-0.153995 0.0217,-0.03658 0.0423,-0.07191 0.0641,-0.108521 -0.0891,-0.05508 -0.18106,-0.100436 -0.27078,-0.153479 0.0217,-0.03657 0.0423,-0.07191 0.0641,-0.10852 -0.0893,-0.05519 -0.18139,-0.100854 -0.27131,-0.153996 0.0218,-0.03657 0.0423,-0.07191 0.0641,-0.108521 h -10e-4 c -0.0891,-0.05508 -0.18106,-0.100436 -0.27079,-0.153479 0.0217,-0.03658 0.0423,-0.07191 0.0641,-0.10852 -0.0892,-0.05515 -0.18146,-0.100373 -0.2713,-0.153479 0.0217,-0.03658 0.0423,-0.07191 0.0641,-0.108521 -0.0891,-0.05506 -0.18108,-0.100452 -0.27078,-0.153479 0.0218,-0.0367 0.0422,-0.0723 0.0641,-0.109037 -0.0895,-0.05528 -0.18176,-0.100764 -0.27182,-0.153996 0.0216,-0.03637 0.0419,-0.0716 0.0636,-0.108003 -0.0891,-0.05507 -0.18108,-0.100447 -0.27079,-0.153479 0.0218,-0.0367 0.0422,-0.0723 0.0641,-0.109038 -0.0892,-0.05516 -0.18144,-0.100362 -0.2713,-0.153479 0.0217,-0.03657 0.0423,-0.07191 0.0641,-0.10852 -0.0893,-0.05519 -0.18139,-0.100849 -0.2713,-0.153996 0.0218,-0.03658 0.0423,-0.07191 0.0641,-0.10852 -0.0894,-0.05522 -0.18181,-0.100308 -0.27182,-0.153479 0.0217,-0.03658 0.0423,-0.07191 0.0641,-0.108521 -0.0892,-0.05515 -0.18146,-0.100373 -0.2713,-0.153479 0.0217,-0.03658 0.0423,-0.0719 0.0641,-0.10852 v -5.17e-4 c -0.0891,-0.05507 -0.18106,-0.100442 -0.27079,-0.153479 0.0217,-0.03658 0.0423,-0.07191 0.0641,-0.108521 -0.0894,-0.05527 -0.18177,-0.100774 -0.27182,-0.153996 0.0216,-0.03637 0.0419,-0.0716 0.0636,-0.108003 -0.0891,-0.05507 -0.18107,-0.100447 -0.27078,-0.153479 0.0218,-0.0367 0.0422,-0.0723 0.0641,-0.109038 -0.0893,-0.05516 -0.18144,-0.100362 -0.2713,-0.153479 0.0217,-0.03657 0.0423,-0.07191 0.0641,-0.10852 -0.0891,-0.05507 -0.18108,-0.100448 -0.27079,-0.153479 0.0218,-0.0367 0.0423,-0.0723 0.0641,-0.109037 -0.0895,-0.05526 -0.18174,-0.100783 -0.27182,-0.153996 0.0216,-0.03637 0.0419,-0.0716 0.0636,-0.108004 -0.0891,-0.05507 -0.18107,-0.100447 -0.27078,-0.153479 0.0217,-0.03658 0.0423,-0.07191 0.0641,-0.10852 v -5.17e-4 c -0.0893,-0.05515 -0.18144,-0.100368 -0.2713,-0.153479 0.0217,-0.03658 0.0423,-0.07191 0.0641,-0.108521 -0.0894,-0.05527 -0.18178,-0.100774 -0.27182,-0.153995 0.0216,-0.03637 0.0419,-0.0716 0.0636,-0.108004 -0.0891,-0.05507 -0.18108,-0.100447 -0.27078,-0.153479 0.0218,-0.03671 0.0422,-0.07229 0.0641,-0.109037 -0.0893,-0.05516 -0.18144,-0.100363 -0.2713,-0.153479 0.0217,-0.03658 0.0423,-0.07191 0.0641,-0.108521 -0.0891,-0.05507 -0.18107,-0.100447 -0.27078,-0.153479 0.0218,-0.0367 0.0423,-0.0723 0.0641,-0.109037 -0.0895,-0.05528 -0.18176,-0.100764 -0.27182,-0.153996 0.0216,-0.03637 0.0419,-0.07159 0.0636,-0.108004 -0.0891,-0.05507 -0.18108,-0.100447 -0.27078,-0.153479 0.0218,-0.0367 0.0422,-0.0723 0.0641,-0.109037 -0.0893,-0.05516 -0.18144,-0.100363 -0.2713,-0.153479 0.0217,-0.03658 0.0423,-0.07191 0.0641,-0.108521 -0.0894,-0.05527 -0.18177,-0.100774 -0.27182,-0.153995 0.0217,-0.03657 0.0423,-0.07191 0.0641,-0.108521 -0.0892,-0.05516 -0.18144,-0.100362 -0.2713,-0.153479 0.0217,-0.03658 0.0423,-0.07191 0.0641,-0.10852 -0.0893,-0.05519 -0.18139,-0.100854 -0.2713,-0.153996 0.0217,-0.03658 0.0423,-0.07191 0.0641,-0.108521 -0.0891,-0.05508 -0.18106,-0.100436 -0.27079,-0.153479 0.0217,-0.03658 0.0423,-0.07191 0.0641,-0.10852 -0.0894,-0.05527 -0.18177,-0.100775 -0.27182,-0.153996 0.0216,-0.03637 0.0419,-0.0716 0.0636,-0.108004 -0.0891,-0.05507 -0.18108,-0.100446 -0.27079,-0.153479 0.0218,-0.0367 0.0423,-0.07229 0.0641,-0.109037 -0.0892,-0.05515 -0.18146,-0.100373 -0.2713,-0.153479 0.0217,-0.03658 0.0423,-0.07191 0.0641,-0.10852 -0.0894,-0.05527 -0.18178,-0.100775 -0.27182,-0.153996 0.0217,-0.03657 0.0423,-0.07191 0.0641,-0.108521 -0.0893,-0.05516 -0.18144,-0.100362 -0.2713,-0.153479 0.0217,-0.03657 0.0423,-0.07191 0.0641,-0.10852 -0.0891,-0.05506 -0.18108,-0.100453 -0.27079,-0.153479 0.0218,-0.0367 0.0423,-0.0723 0.0641,-0.109037 -0.0892,-0.05516 -0.18144,-0.100363 -0.2713,-0.153479 0.0217,-0.03658 0.0423,-0.07191 0.0641,-0.108521 -0.0894,-0.05527 -0.18178,-0.100774 -0.27182,-0.153996 0.0216,-0.03645 0.0424,-0.07152 0.0641,-0.108003 -0.0893,-0.05519 -0.18139,-0.100849 -0.2713,-0.153996 0.0217,-0.03658 0.0423,-0.07191 0.0641,-0.108521 -0.0892,-0.05515 -0.18147,-0.100373 -0.2713,-0.153479 0.0217,-0.03658 0.0423,-0.07191 0.0641,-0.10852 -0.0891,-0.05507 -0.18107,-0.100447 -0.27078,-0.153479 0.0218,-0.03671 0.0422,-0.07229 0.0641,-0.109038 -0.0895,-0.05526 -0.18173,-0.100782 -0.27182,-0.153995 0.0216,-0.03637 0.0419,-0.0716 0.0636,-0.108004 -0.0891,-0.05507 -0.18107,-0.100447 -0.27078,-0.153479 0.0218,-0.0367 0.0422,-0.0723 0.0641,-0.109037 -0.0893,-0.05516 -0.18145,-0.100363 -0.2713,-0.153479 0.0217,-0.03658 0.0423,-0.07191 0.0641,-0.108521 -0.0894,-0.05527 -0.18177,-0.100774 -0.27181,-0.153996 0.0217,-0.03657 0.0423,-0.07191 0.0641,-0.10852 -0.0893,-0.05516 -0.18144,-0.100362 -0.2713,-0.153479 0.0217,-0.03658 0.0423,-0.07191 0.0641,-0.108521 -0.0891,-0.05507 -0.18107,-0.100446 -0.27078,-0.153479 0.0217,-0.03657 0.0423,-0.07191 0.0641,-0.10852 -0.0893,-0.05519 -0.18139,-0.100848 -0.2713,-0.153996 0.0217,-0.03658 0.0423,-0.07191 0.0641,-0.10852 -0.0894,-0.05527 -0.18177,-0.100775 -0.27181,-0.153996 0.0216,-0.03637 0.0419,-0.0716 0.0636,-0.108004 -0.0891,-0.05507 -0.18108,-0.100447 -0.27079,-0.153479 0.0218,-0.03671 0.0422,-0.07229 0.0641,-0.109037 -0.0893,-0.05516 -0.18144,-0.100363 -0.2713,-0.153479 0.0217,-0.03658 0.0423,-0.07191 0.0641,-0.108521 -0.0894,-0.05527 -0.18177,-0.100774 -0.27182,-0.153995 0.0217,-0.03658 0.0423,-0.07191 0.0641,-0.108521 -0.0892,-0.05516 -0.18144,-0.100362 -0.2713,-0.153479 0.0217,-0.03658 0.0423,-0.07191 0.0641,-0.10852 -0.0891,-0.05507 -0.18108,-0.100447 -0.27079,-0.15348 0.0218,-0.0367 0.0422,-0.0723 0.0641,-0.109037 -0.0893,-0.05516 -0.18144,-0.100362 -0.2713,-0.153479 0.0217,-0.03658 0.0423,-0.07191 0.0641,-0.10852 -0.0894,-0.05527 -0.18177,-0.100775 -0.27182,-0.153996 0.0217,-0.03657 0.0423,-0.07191 0.0641,-0.108521 -0.0892,-0.05516 -0.18144,-0.100362 -0.2713,-0.153479 0.0217,-0.03658 0.0423,-0.07191 0.0641,-0.10852 -1.378,-0.851599 -2.82809,-1.459795 -4.34909,-1.824695 -1.52,-0.3853 -3.06086,-0.578259 -4.622457,-0.578259 z" /><g
     id="g2"
     transform="translate(0,0.12291611)"><path
       style="fill:#f9f9f9;stroke-width:0.160865"
       d="m 44.767293,59.469755 c -0.03217,0.248113 -0.05478,0.499286 -0.05478,0.756026 v 29.302084 c 0,3.23161 2.629198,5.86063 5.860624,5.86063 h 48.607369 c 3.231464,0 5.860634,-2.62902 5.860634,-5.86063 V 60.225781 c 0,-0.25674 -0.0226,-0.507913 -0.0548,-0.756026 z"
       id="path16" /><path
       id="path5"
       style="fill:#f44336;fill-opacity:1;stroke-width:0.160865"
       d="m 50.573142,54.365671 c -2.974716,0 -5.433052,2.229204 -5.805847,5.104081 h 60.219065 c -0.37279,-2.874877 -2.83112,-5.104081 -5.805854,-5.104081 z" /><g
       id="g1"><path
         style="fill:#798388;fill-opacity:1;stroke-width:0.160865"
         d="m 49.787227,83.040591 h 14.612028 c 0.816296,0 1.477946,0.661665 1.477946,1.477946 0,0.816083 -0.661866,1.477429 -1.477946,1.477429 H 49.787227 c -0.815895,0 -1.477429,-0.661148 -1.477429,-1.477429 0,-0.816281 0.661534,-1.477946 1.477429,-1.477946 z"
         id="path29" /><path
         style="fill:#798388;fill-opacity:1;stroke-width:0.160865"
         d="m 49.787227,77.783547 h 25.239286 c 0.816084,0 1.47743,0.661146 1.47743,1.47743 0,0.81628 -0.661138,1.477946 -1.47743,1.477946 H 49.787227 c -0.815893,0 -1.477429,-0.661666 -1.477429,-1.477946 0,-0.816284 0.661536,-1.47743 1.477429,-1.47743 z"
         id="path28" /><path
         style="fill:#798388;fill-opacity:1;stroke-width:0.160865"
         d="m 63.674235,67.326821 h 1.459859 v 4.985226 h -1.459859 z"
         id="path24" /><path
         style="fill:#798388;fill-opacity:1;stroke-width:0.160865"
         d="m 59.051778,67.326821 h 1.399914 v 3.721737 h 2.586923 v 1.263489 h -3.986837 z"
         id="path23" /><path
         id="path22"
         style="fill:#798388;fill-opacity:1;stroke-width:0.160865"
         d="m 73.856559,67.183161 c -0.36312,10e-7 -0.706103,0.07015 -1.028878,0.211356 -0.322776,0.13617 -0.604899,0.325326 -0.846977,0.567408 -0.237034,0.237032 -0.426188,0.516967 -0.567407,0.839742 -0.136162,0.317726 -0.204122,0.658521 -0.204122,1.021643 0,0.363116 0.06796,0.706102 0.204122,1.028878 0.141219,0.322769 0.330373,0.602704 0.567407,0.839742 0.242078,0.237032 0.524201,0.425676 0.846977,0.56689 0.322775,0.136169 0.665758,0.204639 1.028878,0.204639 0.36312,0 0.706103,-0.06847 1.028878,-0.204639 0.32277,-0.141214 0.602702,-0.329858 0.839742,-0.56689 0.242072,-0.237038 0.431234,-0.516973 0.567407,-0.839742 0.141213,-0.322776 0.211873,-0.665762 0.211873,-1.028878 0,-0.363122 -0.07066,-0.706104 -0.211873,-1.028878 -0.136173,-0.322776 -0.325335,-0.602704 -0.567407,-0.839742 -0.23704,-0.237038 -0.516972,-0.424003 -0.839742,-0.560173 -0.322775,-0.141215 -0.665758,-0.211356 -1.028878,-0.211356 z m 0,1.368909 c 0.171472,0 0.330721,0.03534 0.476973,0.105936 0.151304,0.06556 0.279594,0.156339 0.385507,0.272335 0.11096,0.115997 0.196838,0.252417 0.257348,0.408761 0.06051,0.151296 0.09095,0.312733 0.09095,0.484208 0,0.171473 -0.03044,0.335098 -0.09095,0.491443 -0.06052,0.151295 -0.146403,0.287721 -0.257348,0.40876 -0.105913,0.115999 -0.234203,0.20896 -0.385507,0.27957 -0.146252,0.06556 -0.305501,0.0987 -0.476973,0.0987 -0.171472,0 -0.332905,-0.03313 -0.484208,-0.0987 -0.146258,-0.07061 -0.274562,-0.163572 -0.385506,-0.27957 -0.105914,-0.12104 -0.191779,-0.257465 -0.257349,-0.40876 -0.06051,-0.156345 -0.09095,-0.31997 -0.09095,-0.491443 0,-0.171475 0.03044,-0.332912 0.09095,-0.484208 0.06557,-0.156344 0.151436,-0.292764 0.257349,-0.408761 0.110944,-0.115995 0.239248,-0.206765 0.385506,-0.272335 0.151303,-0.07061 0.312736,-0.105936 0.484208,-0.105936 z" /><path
         id="path21"
         style="fill:#798388;fill-opacity:1;stroke-width:0.160865"
         d="m 55.942924,67.183161 c -0.363121,10e-7 -0.706103,0.07015 -1.028878,0.211356 -0.322774,0.13617 -0.605413,0.325326 -0.847494,0.567408 -0.237032,0.237032 -0.426192,0.516967 -0.567407,0.839742 -0.136172,0.317726 -0.204122,0.658521 -0.204122,1.021643 0,0.363116 0.06795,0.706102 0.204122,1.028878 0.141215,0.322769 0.330375,0.602704 0.567407,0.839742 0.242081,0.237032 0.52472,0.425676 0.847494,0.56689 0.322775,0.136169 0.665757,0.204639 1.028878,0.204639 0.363117,0 0.706107,-0.06847 1.028877,-0.204639 0.322775,-0.141214 0.602188,-0.329858 0.839226,-0.56689 0.242075,-0.237038 0.431236,-0.516973 0.567407,-0.839742 0.141213,-0.322776 0.211873,-0.665762 0.211873,-1.028878 0,-0.363122 -0.07066,-0.706104 -0.211873,-1.028878 -0.136171,-0.322776 -0.325332,-0.602704 -0.567407,-0.839742 -0.237038,-0.237038 -0.516451,-0.424003 -0.839226,-0.560173 -0.32277,-0.141215 -0.66576,-0.211356 -1.028877,-0.211356 z m 0,1.368909 c 0.171469,0 0.330199,0.03534 0.476456,0.105936 0.151302,0.06556 0.279597,0.156339 0.385507,0.272335 0.110949,0.115997 0.196828,0.252417 0.257348,0.408761 0.06052,0.151296 0.09095,0.312733 0.09095,0.484208 0,0.171473 -0.03043,0.335098 -0.09095,0.491443 -0.06052,0.151295 -0.146399,0.287721 -0.257348,0.40876 -0.10591,0.115999 -0.234205,0.20896 -0.385507,0.27957 -0.146257,0.06556 -0.304987,0.0987 -0.476456,0.0987 -0.171474,0 -0.332907,-0.03313 -0.484209,-0.0987 -0.146252,-0.07061 -0.275074,-0.163572 -0.386022,-0.27957 -0.105914,-0.12104 -0.191789,-0.257465 -0.257349,-0.40876 -0.06052,-0.156345 -0.09043,-0.31997 -0.09043,-0.491443 0,-0.171475 0.02991,-0.332912 0.09043,-0.484208 0.06556,-0.156344 0.151438,-0.292764 0.257349,-0.408761 0.110948,-0.115995 0.23977,-0.206765 0.386022,-0.272335 0.151302,-0.07061 0.312735,-0.105936 0.484209,-0.105936 z" /><path
         style="fill:#798388;fill-opacity:1;stroke-width:0.160865"
         d="m 65.822424,66.441604 h 5.031217 v 1.346688 l -0.105936,0.105937 h -1.611788 v 4.417818 h -1.595768 v -4.417818 h -1.611788 l -0.105937,-0.105937 z"
         id="path20" /><path
         id="path19"
         style="fill:#798388;fill-opacity:1;stroke-width:0.160865"
         d="m 48.309798,66.441604 v 5.870443 h 1.573547 v -1.823145 h 1.066602 c 0.282423,0 0.552042,-0.05325 0.809253,-0.159163 0.262249,-0.110954 0.491639,-0.259363 0.68833,-0.445968 0.201734,-0.191648 0.360975,-0.413942 0.476973,-0.666109 0.121045,-0.252168 0.181385,-0.524494 0.181385,-0.817004 0,-0.287472 -0.06034,-0.552187 -0.181385,-0.794267 -0.115998,-0.242081 -0.275239,-0.448649 -0.476973,-0.620117 -0.196691,-0.171474 -0.426081,-0.30519 -0.68833,-0.40101 -0.257211,-0.09582 -0.52683,-0.14366 -0.809253,-0.14366 z m 1.611271,1.301213 h 0.91519 c 0.09078,0 0.176648,0.0174 0.257348,0.05271 0.08069,0.03026 0.151354,0.07591 0.211874,0.136425 0.06052,0.05548 0.10836,0.120721 0.14366,0.196371 0.03531,0.07565 0.05271,0.159334 0.05271,0.250114 0,0.09078 -0.0174,0.173947 -0.05271,0.249597 -0.0353,0.07565 -0.08314,0.143602 -0.14366,0.204122 -0.06052,0.05547 -0.131184,0.100599 -0.211874,0.135909 -0.08069,0.03026 -0.166568,0.04547 -0.257348,0.04547 h -0.91519 z" /></g></g><path
     id="path1"
     style="fill:#5c6bc0;stroke-width:1.09875"
     d="m 90.467346,66.441423 c -3.640942,0 -6.592362,2.951936 -6.592362,6.592879 0,3.640931 2.95142,6.592362 6.592362,6.592362 3.64094,0 6.59236,-2.951431 6.59236,-6.592362 0,-3.640943 -2.95142,-6.592879 -6.59236,-6.592879 z m 0,15.382523 c -3.050901,0 -5.432253,0.243202 -7.217647,0.991671 -1.911551,0.80132 -3.08266,2.159845 -3.707268,4.134631 -0.230858,0.7299 0.31595,1.466577 1.073837,1.466577 h 19.694922 c 0.76099,0 1.31172,-0.739846 1.07901,-1.473811 -0.62651,-1.974897 -1.801884,-3.332816 -3.716574,-4.132048 -1.78382,-0.744623 -4.16163,-0.98702 -7.20628,-0.98702 z" /><text
     xml:space="preserve"
     transform="matrix(0.80541237,0,0,0.80541237,-63.308707,-238.98269)"
     id="text1040"
     style="font-style:normal;font-variant:normal;font-weight:normal;font-stretch:normal;font-size:40px;line-height:1.25;font-family:PRIMETIME;-inkscape-font-specification:'PRIMETIME, Normal';font-variant-ligatures:normal;font-variant-caps:normal;font-variant-numeric:normal;font-variant-east-asian:normal;letter-spacing:0px;word-spacing:0px;white-space:pre;shape-inside:url(#rect1040);fill:#ffd500;fill-opacity:1;stroke:none"><tspan
       x="128.77148"
       y="458.12891"
       id="tspan1">ZZZ</tspan></text><text
     xml:space="preserve"
     transform="matrix(0.76034063,0,0,0.76034063,-55.346778,-37.748702)"
     id="text3057"
     style="font-style:normal;font-variant:normal;font-weight:normal;font-stretch:normal;font-size:40px;line-height:1.25;font-family:PRIMETIME;-inkscape-font-specification:'PRIMETIME, Normal';font-variant-ligatures:normal;font-variant-caps:normal;font-variant-numeric:normal;font-variant-east-asian:normal;letter-spacing:0px;word-spacing:0px;white-space:pre;shape-inside:url(#rect3058);fill:#ffd500;fill-opacity:1;stroke:none"><tspan
       x="124.65039"
       y="107.87109"
       id="tspan2">ROS</tspan></text></svg>
