<?xml version="1.0" encoding="UTF-8" standalone="no"?>
<!-- Created with Inkscape (http://www.inkscape.org/) -->

<svg
   width="67.73333mm"
   height="67.73333mm"
   viewBox="0 0 67.733327 67.733327"
   version="1.1"
   id="svg1"
   xml:space="preserve"
   sodipodi:docname="B6.svg"
   inkscape:version="1.3 (0e150ed6c4, 2023-07-21)"
   inkscape:export-filename="B6.png"
   inkscape:export-xdpi="1536.0001"
   inkscape:export-ydpi="1536.0001"
   xmlns:inkscape="http://www.inkscape.org/namespaces/inkscape"
   xmlns:sodipodi="http://sodipodi.sourceforge.net/DTD/sodipodi-0.dtd"
   xmlns="http://www.w3.org/2000/svg"
   xmlns:svg="http://www.w3.org/2000/svg"><sodipodi:namedview
     id="namedview1"
     pagecolor="#ffffff"
     bordercolor="#999999"
     borderopacity="1"
     inkscape:showpageshadow="2"
     inkscape:pageopacity="0"
     inkscape:pagecheckerboard="0"
     inkscape:deskcolor="#d1d1d1"
     inkscape:document-units="mm"
     inkscape:zoom="1.9506277"
     inkscape:cx="170.20162"
     inkscape:cy="118.67975"
     inkscape:window-width="1920"
     inkscape:window-height="1001"
     inkscape:window-x="-9"
     inkscape:window-y="-9"
     inkscape:window-maximized="1"
     inkscape:current-layer="svg1" /><defs
     id="defs1"><rect
       x="128.7717"
       y="414.12979"
       width="302.87103"
       height="109.1984"
       id="rect1040" /><rect
       x="124.651"
       y="63.870762"
       width="290.50894"
       height="105.07771"
       id="rect3058" /></defs><path
     id="rect1-3"
     style="fill:#e87d7d;fill-opacity:1;stroke-width:0.133494"
     d="M 0,0 H 67.73332 V 67.733329 H 0 Z"
     inkscape:export-filename="..\b\B6.png"
     inkscape:export-xdpi="347.36404"
     inkscape:export-ydpi="347.36404" /><path
     id="path15"
     style="fill:#000001;fill-opacity:0.247059;stroke-width:0.0727587"
     d="m 44.850848,9.0458516 c -0.43102,0 -0.861979,0.032104 -1.293,0.096297 -0.431019,0.064195 -0.843735,0.1743604 -1.238072,0.3302617 -0.385166,0.1558999 -0.738297,0.37138 -1.059268,0.6464997 -0.320972,0.275119 -0.582414,0.623629 -0.784167,1.045478 -0.100877,0.210924 -0.178707,0.435643 -0.233731,0.67408 -0.04585,0.229265 -0.06872,0.45837 -0.06872,0.687636 0,0.165071 0.0072,0.32218 0.0215,0.471201 0.0062,0.06472 0.01913,0.122023 0.02805,0.183713 l -2.422153,-2.422153 -0.03483,-0.03459 c -0.128348,-0.128348 -0.262441,-0.250001 -0.40225,-0.36462 h -2.34e-4 C 36.944406,10.015698 36.473336,9.7336426 35.95061,9.5135469 35.262813,9.2109164 34.529304,9.0596417 33.7498,9.0596417 c -0.788674,0 -1.527035,0.1512747 -2.214833,0.4539052 -0.687797,0.293461 -1.288511,0.6971721 -1.802065,1.2107261 -0.513555,0.504385 -0.921652,1.100478 -1.224282,1.788274 -0.03923,0.09193 -0.06886,0.186911 -0.102842,0.280477 l -2.295471,-2.29547 c -0.02542,-0.02537 -0.05123,-0.05072 -0.0776,-0.07596 C 25.821784,10.219837 25.592447,10.040845 25.344839,9.8849454 25.097232,9.7198738 24.84041,9.591697 24.574462,9.4999906 24.308513,9.3991135 24.047072,9.3485332 23.790295,9.3485332 H 18.439261 V 20.023255 l 4.621794,4.621794 H 22.87407 c -1.345451,0 -2.457352,1.008266 -2.625966,2.308559 -0.01455,0.112221 -0.02478,0.225826 -0.02478,0.341949 v 13.253241 c 0,0.36541 0.0744,0.713732 0.208722,1.030752 0.06716,0.15851 0.149348,0.309123 0.244716,0.450166 0.04313,0.0638 0.09795,0.117944 0.146316,0.177635 0.05858,0.07229 0.111671,0.149303 0.177402,0.215033 l 4.696587,4.696586 0.3721,0.3721 H 18.93103 v 2.899901 h 2.34e-4 l 3.040839,3.040837 -2.705903,4.856695 v 0.510001 l 8.93483,8.934829 H 67.733333 V 28.957383 L 48.90888,10.132934 V 10.1327 C 48.28529,9.7475336 47.629595,9.4724679 46.941805,9.3073963 H 46.94157 C 46.59782,9.2203224 46.251682,9.1548927 45.903336,9.1112962 h -2.3e-4 c -1.59e-4,-1.94e-5 -3.17e-4,1.9e-5 -4.71e-4,0 -0.348345,-0.043567 -0.698876,-0.065445 -1.051787,-0.065445 z" /><path
     style="fill:#f9f9f9;stroke-width:0.0727587"
     d="m 20.248104,26.953575 c -0.01455,0.112221 -0.02478,0.225825 -0.02478,0.341948 v 13.253239 c 0,1.461647 1.189178,2.650744 2.650742,2.650744 h 21.984957 c 1.461581,0 2.650747,-1.189097 2.650747,-2.650744 V 27.295523 c 0,-0.116123 -0.01022,-0.229727 -0.02479,-0.341948 z"
     id="path16" /><path
     id="path5"
     style="fill:#f44336;fill-opacity:1;stroke-width:0.0727587"
     d="m 22.874071,24.645014 c -1.345455,0 -2.457352,1.008262 -2.625966,2.30856 h 27.236891 c -0.168612,-1.300298 -1.280507,-2.30856 -2.62597,-2.30856 z" /><path
     style="fill:#798388;fill-opacity:1;stroke-width:0.0727587"
     d="m 22.518604,37.614589 h 6.608974 c 0.369208,0 0.66847,0.299269 0.66847,0.66847 0,0.369112 -0.29936,0.668237 -0.66847,0.668237 h -6.608974 c -0.369027,0 -0.668236,-0.299036 -0.668236,-0.668237 0,-0.369201 0.299209,-0.66847 0.668236,-0.66847 z"
     id="path29" /><path
     style="fill:#798388;fill-opacity:1;stroke-width:0.0727587"
     d="m 22.518604,35.236845 h 11.415648 c 0.369113,0 0.668237,0.299034 0.668237,0.668237 0,0.3692 -0.29903,0.66847 -0.668237,0.66847 H 22.518604 c -0.369026,0 -0.668236,-0.29927 -0.668236,-0.66847 0,-0.369203 0.29921,-0.668237 0.668236,-0.668237 z"
     id="path28" /><path
     style="fill:#798388;fill-opacity:1;stroke-width:0.0727587"
     d="m 28.799653,30.507301 h 0.66029 v 2.254802 h -0.66029 z"
     id="path24" /><path
     style="fill:#798388;fill-opacity:1;stroke-width:0.0727587"
     d="m 26.708931,30.507301 h 0.633176 v 1.68333 h 1.170057 v 0.571472 h -1.803233 z"
     id="path23" /><path
     id="path22"
     style="fill:#798388;fill-opacity:1;stroke-width:0.0727587"
     d="m 33.405086,30.442324 c -0.164238,0 -0.319368,0.03173 -0.465358,0.0956 -0.145991,0.06159 -0.273594,0.147143 -0.383085,0.256636 -0.10721,0.107209 -0.192764,0.233823 -0.256637,0.379813 -0.06159,0.143706 -0.09232,0.297847 -0.09232,0.462086 0,0.164236 0.03074,0.319368 0.09232,0.465358 0.06387,0.145987 0.149427,0.272601 0.256637,0.379813 0.109491,0.107209 0.237094,0.192532 0.383085,0.256402 0.14599,0.06159 0.30112,0.09256 0.465358,0.09256 0.164238,0 0.319368,-0.03097 0.465358,-0.09256 0.145988,-0.06387 0.2726,-0.149193 0.379813,-0.256402 0.109488,-0.107212 0.195046,-0.233826 0.256636,-0.379813 0.06387,-0.14599 0.09583,-0.301122 0.09583,-0.465358 0,-0.164239 -0.03196,-0.319369 -0.09583,-0.465358 -0.06159,-0.145991 -0.147148,-0.272601 -0.256636,-0.379813 -0.107213,-0.107212 -0.233825,-0.191775 -0.379813,-0.253364 -0.14599,-0.06387 -0.30112,-0.0956 -0.465358,-0.0956 z m 0,0.619153 c 0.07756,0 0.149584,0.01598 0.215733,0.04791 0.06844,0.02965 0.12646,0.07071 0.174364,0.123176 0.05019,0.05246 0.08903,0.114167 0.116398,0.184881 0.02737,0.06843 0.04114,0.141448 0.04114,0.219006 0,0.07756 -0.01377,0.151564 -0.04114,0.222278 -0.02737,0.06843 -0.06622,0.130135 -0.116398,0.184881 -0.0479,0.05247 -0.105929,0.09451 -0.174364,0.126448 -0.06615,0.02965 -0.138177,0.04464 -0.215733,0.04464 -0.07756,0 -0.150572,-0.01498 -0.219006,-0.04464 -0.06615,-0.03194 -0.124183,-0.07398 -0.174363,-0.126448 -0.0479,-0.05475 -0.08674,-0.116451 -0.116398,-0.184881 -0.02737,-0.07071 -0.04114,-0.144721 -0.04114,-0.222278 0,-0.07756 0.01377,-0.150575 0.04114,-0.219006 0.02966,-0.07071 0.06849,-0.132416 0.116398,-0.184881 0.05018,-0.05246 0.108211,-0.09352 0.174363,-0.123176 0.06843,-0.03194 0.14145,-0.04791 0.219006,-0.04791 z" /><path
     id="path21"
     style="fill:#798388;fill-opacity:1;stroke-width:0.0727587"
     d="m 25.302806,30.442324 c -0.164238,0 -0.319368,0.03173 -0.465358,0.0956 -0.14599,0.06159 -0.273827,0.147143 -0.383319,0.256636 -0.107209,0.107209 -0.192765,0.233823 -0.256636,0.379813 -0.06159,0.143706 -0.09232,0.297847 -0.09232,0.462086 0,0.164236 0.03073,0.319368 0.09232,0.465358 0.06387,0.145987 0.149427,0.272601 0.256636,0.379813 0.109492,0.107209 0.237329,0.192532 0.383319,0.256402 0.14599,0.06159 0.30112,0.09256 0.465358,0.09256 0.164237,0 0.31937,-0.03097 0.465358,-0.09256 0.14599,-0.06387 0.272368,-0.149193 0.379579,-0.256402 0.10949,-0.107212 0.195047,-0.233826 0.256636,-0.379813 0.06387,-0.14599 0.09583,-0.301122 0.09583,-0.465358 0,-0.164239 -0.03196,-0.319369 -0.09583,-0.465358 -0.06159,-0.145991 -0.147146,-0.272601 -0.256636,-0.379813 -0.107211,-0.107212 -0.233589,-0.191775 -0.379579,-0.253364 -0.145988,-0.06387 -0.301121,-0.0956 -0.465358,-0.0956 z m 0,0.619153 c 0.07756,0 0.149348,0.01598 0.2155,0.04791 0.06843,0.02965 0.12646,0.07071 0.174363,0.123176 0.05018,0.05246 0.08903,0.114167 0.116398,0.184881 0.02737,0.06843 0.04114,0.141448 0.04114,0.219006 0,0.07756 -0.01376,0.151564 -0.04114,0.222278 -0.02737,0.06843 -0.06622,0.130135 -0.116398,0.184881 -0.0479,0.05247 -0.10593,0.09451 -0.174363,0.126448 -0.06615,0.02965 -0.137945,0.04464 -0.2155,0.04464 -0.07756,0 -0.150573,-0.01498 -0.219006,-0.04464 -0.06615,-0.03194 -0.124415,-0.07398 -0.174597,-0.126448 -0.0479,-0.05475 -0.08675,-0.116451 -0.116398,-0.184881 -0.02737,-0.07071 -0.0409,-0.144721 -0.0409,-0.222278 0,-0.07756 0.01353,-0.150575 0.0409,-0.219006 0.02965,-0.07071 0.06849,-0.132416 0.116398,-0.184881 0.05018,-0.05246 0.108448,-0.09352 0.174597,-0.123176 0.06843,-0.03194 0.141449,-0.04791 0.219006,-0.04791 z" /><path
     style="fill:#798388;fill-opacity:1;stroke-width:0.0727587"
     d="m 29.771272,30.10692 h 2.275604 v 0.609103 l -0.04791,0.04791 H 31.26996 v 1.998165 h -0.721761 v -1.998165 h -0.729007 l -0.04791,-0.04791 z"
     id="path20" /><path
     id="path19"
     style="fill:#798388;fill-opacity:1;stroke-width:0.0727587"
     d="m 21.850368,30.10692 v 2.655183 h 0.71171 V 31.9375 h 0.48242 c 0.12774,0 0.249687,-0.02408 0.366023,-0.07199 0.118614,-0.05018 0.222367,-0.117309 0.311329,-0.20171 0.09124,-0.08668 0.163268,-0.187224 0.215734,-0.301279 0.05475,-0.114055 0.08204,-0.237227 0.08204,-0.369528 0,-0.130023 -0.02729,-0.249753 -0.08204,-0.359245 -0.05247,-0.109492 -0.12449,-0.202922 -0.215734,-0.280476 -0.08896,-0.07756 -0.192715,-0.138037 -0.311329,-0.181376 -0.116336,-0.04334 -0.238283,-0.06498 -0.366023,-0.06498 z m 0.728772,0.588535 h 0.413938 c 0.04106,0 0.0799,0.0079 0.116397,0.02384 0.0365,0.01369 0.06846,0.03433 0.09583,0.0617 0.02737,0.02509 0.04901,0.0546 0.06498,0.08882 0.01597,0.03422 0.02384,0.07207 0.02384,0.113125 0,0.04106 -0.0079,0.07868 -0.02384,0.112892 -0.01597,0.03422 -0.0376,0.06495 -0.06498,0.09232 -0.02737,0.02509 -0.05933,0.0455 -0.09583,0.06147 -0.03649,0.01369 -0.07534,0.02057 -0.116397,0.02057 H 22.57914 Z" /><path
     id="path1"
     style="fill:#5c6bc0;stroke-width:0.496961"
     d="m 40.918092,30.051244 c -1.646786,0 -2.981704,1.335151 -2.981704,2.981938 0,1.646781 1.334918,2.981704 2.981704,2.981704 1.646786,0 2.981703,-1.334923 2.981703,-2.981704 0,-1.646787 -1.334917,-2.981938 -2.981703,-2.981938 z m 0,6.957466 c -1.379913,0 -2.456991,0.109999 -3.264519,0.448529 -0.864588,0.362435 -1.394277,0.976891 -1.676785,1.870081 -0.104417,0.330131 0.142903,0.663328 0.485693,0.663328 h 8.90795 c 0.344194,0 0.593287,-0.33463 0.488033,-0.6666 -0.283368,-0.89324 -0.814986,-1.507422 -1.680995,-1.868912 -0.806816,-0.336791 -1.882292,-0.446426 -3.259377,-0.446426 z" /><path
     d="m 19.266106,58.798586 v -0.51 l 4.400568,-7.897708 h -4.73571 v -2.899712 h 9.398564 v 0.509999 l -4.400568,7.897709 h 4.502568 v 2.899712 z m 10.185414,0 v -0.51 l 4.400568,-7.897708 h -4.735711 v -2.899712 h 9.398565 v 0.509999 l -4.400568,7.897709 h 4.502568 v 2.899712 z m 10.185414,0 v -0.51 l 4.400568,-7.897708 h -4.735711 v -2.899712 h 9.398565 v 0.509999 l -4.400569,7.897709 h 4.502569 v 2.899712 z"
     id="text1040"
     style="font-size:40px;line-height:1.25;font-family:PRIMETIME;-inkscape-font-specification:'PRIMETIME, Normal';letter-spacing:0px;word-spacing:0px;white-space:pre;fill:#ffd500;stroke-width:0.364285"
     aria-label="ZZZ" /><path
     d="m 25.028434,20.023212 -1.857058,-3.301436 h -1.802034 l 0.01376,3.301436 H 18.439317 V 9.3485682 h 5.351078 q 0.385168,0 0.784091,0.1513158 0.398924,0.1375599 0.770335,0.3851676 0.371412,0.2338514 0.6878,0.5364834 0.316387,0.302632 0.536483,0.619019 0.27512,0.398924 0.41268,0.935407 0.151316,0.522728 0.151316,1.004187 0,0.797848 -0.371412,1.485647 -0.371412,0.687799 -1.031699,1.155503 l 2.503589,4.401914 z M 22.95128,11.714598 h -1.664474 v 2.311005 h 1.664474 q 0.247608,0 0.467703,-0.08254 0.220096,-0.09629 0.385168,-0.247607 0.165072,-0.165072 0.261364,-0.371412 0.09629,-0.20634 0.09629,-0.453947 0,-0.247608 -0.09629,-0.453948 -0.09629,-0.20634 -0.261364,-0.357656 -0.165072,-0.165071 -0.385168,-0.247607 -0.220095,-0.09629 -0.467703,-0.09629 z m 10.798459,8.638757 q -1.183015,0 -2.214714,-0.440191 -1.031699,-0.440192 -1.802034,-1.196771 -0.770335,-0.770335 -1.224283,-1.802033 -0.440191,-1.031699 -0.440191,-2.200957 0,-1.169259 0.440191,-2.200958 0.453948,-1.031699 1.224283,-1.788278 0.770335,-0.7703355 1.802034,-1.210527 1.031699,-0.4539475 2.214714,-0.4539475 1.169259,0 2.200958,0.4539475 1.045455,0.4401915 1.81579,1.210527 0.770335,0.756579 1.210527,1.788278 0.453947,1.031699 0.453947,2.200958 0,1.169258 -0.453947,2.200957 -0.440192,1.031698 -1.210527,1.802033 -0.770335,0.756579 -1.81579,1.196771 -1.031699,0.440191 -2.200958,0.440191 z m 0,-8.569977 q -0.605263,0 -1.127991,0.247607 -0.508971,0.233852 -0.880383,0.632776 -0.371412,0.398923 -0.591507,0.935407 -0.20634,0.522727 -0.20634,1.114235 0,0.577751 0.20634,1.114234 0.220095,0.536484 0.591507,0.935407 0.371412,0.398924 0.880383,0.64653 0.522728,0.233852 1.127991,0.233852 0.605263,0 1.114235,-0.233852 0.522727,-0.247606 0.894139,-0.64653 0.371412,-0.398923 0.577751,-0.935407 0.220096,-0.536483 0.220096,-1.114234 0,-0.591508 -0.220096,-1.114235 -0.206339,-0.536484 -0.577751,-0.935407 -0.371412,-0.398924 -0.894139,-0.632776 -0.508972,-0.247607 -1.114235,-0.247607 z m 10.715913,8.569977 q -1.072967,0 -2.132178,-0.261363 -1.045455,-0.247608 -2.008374,-0.701556 -0.02751,0 -0.13756,-0.05502 -0.110048,-0.06878 -0.110048,-0.09629 0,-0.01376 0.05502,-0.110047 0.05502,-0.09629 0.13756,-0.233852 0.08254,-0.151316 0.192584,-0.330144 0.110048,-0.192584 0.220096,-0.385167 0.233852,-0.385168 0.440191,-0.729068 0.20634,-0.343898 0.288876,-0.495214 0.178828,0.06878 0.3439,0.165072 0.742823,0.37141 1.485646,0.57775 0.756579,0.192584 1.595694,0.192584 0.233852,0 0.495216,-0.01376 0.27512,-0.02751 0.495215,-0.110048 0.220096,-0.08254 0.357656,-0.247608 0.151316,-0.178828 0.151316,-0.495214 0,-0.151316 -0.08254,-0.261364 -0.08254,-0.123803 -0.20634,-0.206339 -0.123804,-0.09629 -0.261364,-0.165072 -0.137559,-0.06878 -0.261363,-0.110048 -0.288876,-0.110048 -0.591508,-0.165072 -0.302631,-0.05502 -0.605263,-0.123804 -0.398924,-0.09629 -0.784091,-0.178828 -0.385168,-0.08254 -0.742823,-0.192583 -0.371412,-0.110048 -0.715312,-0.233852 -0.330143,-0.13756 -0.619019,-0.316388 -0.591507,-0.357655 -0.949163,-0.949163 -0.3439,-0.605263 -0.3439,-1.595694 0,-0.3439 0.06878,-0.687799 0.08254,-0.357656 0.233852,-0.674044 0.302632,-0.632775 0.784091,-1.045455 0.48146,-0.4126792 1.059211,-0.646531 0.591507,-0.2338517 1.238039,-0.3301436 0.646531,-0.096292 1.293062,-0.096292 1.059211,0 2.09091,0.2613637 1.031699,0.2476078 1.967106,0.8253589 -0.343899,0.577752 -0.674043,1.141747 -0.316388,0.55024 -0.646531,1.127991 -0.797848,-0.385168 -1.554427,-0.632775 -0.742823,-0.247608 -1.60945,-0.247608 -0.20634,0 -0.440192,0.02751 -0.220095,0.01376 -0.412679,0.09629 -0.192584,0.08254 -0.316388,0.247608 -0.123804,0.151315 -0.123804,0.412679 0,0.192584 0.08254,0.330144 0.09629,0.151316 0.3439,0.275119 0.261363,0.110048 0.632775,0.20634 0.371412,0.09629 0.811603,0.192584 0.440192,0.08254 0.921651,0.20634 0.467704,0.123804 0.935407,0.288876 0.48146,0.151315 0.894139,0.385167 0.426436,0.220096 0.75658,0.536484 0.330143,0.302631 0.522727,0.729067 0.151316,0.316387 0.20634,0.687799 0.05502,0.357656 0.05502,0.715311 0,1.045454 -0.426436,1.719497 -0.426435,0.674043 -1.114235,1.072967 -0.687799,0.385168 -1.554426,0.536483 -0.866627,0.165072 -1.733254,0.165072 z"
     id="text3057"
     style="font-size:40px;line-height:1.25;font-family:PRIMETIME;-inkscape-font-specification:'PRIMETIME, Normal';letter-spacing:0px;word-spacing:0px;white-space:pre;fill:#ffd500;stroke-width:0.3439"
     aria-label="ROS" /></svg>
