<?xml version="1.0" encoding="UTF-8" standalone="no"?>
<!-- Created with Inkscape (http://www.inkscape.org/) -->

<svg
   width="255.99998"
   height="255.99998"
   viewBox="0 0 67.733328 67.733329"
   version="1.1"
   id="svg1"
   xml:space="preserve"
   inkscape:version="1.3.2 (091e20e, 2023-11-25, custom)"
   sodipodi:docname="disegno1.svg"
   inkscape:export-filename="disegno1.png"
   inkscape:export-xdpi="1536.0001"
   inkscape:export-ydpi="1536.0001"
   xmlns:inkscape="http://www.inkscape.org/namespaces/inkscape"
   xmlns:sodipodi="http://sodipodi.sourceforge.net/DTD/sodipodi-0.dtd"
   xmlns="http://www.w3.org/2000/svg"
   xmlns:svg="http://www.w3.org/2000/svg"><sodipodi:namedview
     id="namedview1"
     pagecolor="#ffffff"
     bordercolor="#000000"
     borderopacity="0.25"
     inkscape:showpageshadow="2"
     inkscape:pageopacity="0.0"
     inkscape:pagecheckerboard="0"
     inkscape:deskcolor="#d1d1d1"
     inkscape:document-units="mm"
     inkscape:zoom="2.5615386"
     inkscape:cx="194.99999"
     inkscape:cy="143.85885"
     inkscape:window-width="1920"
     inkscape:window-height="991"
     inkscape:window-x="-9"
     inkscape:window-y="-9"
     inkscape:window-maximized="1"
     inkscape:current-layer="layer1" /><defs
     id="defs1">
	
	
	
	

	

	
	
	
	

		
		
		
		
		
		
		
		
		
	</defs><g
     inkscape:label="Livello 1"
     inkscape:groupmode="layer"
     id="layer1"
     transform="translate(-108.55598,-44.722008)"><path
       id="rect1"
       style="fill:#2fb4c2;stroke-width:0.216696"
       d="m 108.6341,44.722008 h 67.73333 V 112.45534 H 108.6341 Z" /><path
       id="rect1-8"
       style="fill:none;stroke-width:0.873896"
       d="m 195.28822,58.056007 h 41.947 V 100.003 h -41.947 z" /><path
       id="rect2"
       style="fill:none;stroke-width:0.873896"
       d="m 195.28822,58.056007 h 41.947 V 100.003 h -41.947 z" /><path
       id="rect3"
       style="fill:none;stroke-width:0.873896"
       d="m 195.28822,58.056007 h 41.947 V 100.003 h -41.947 z" /></g><style
     type="text/css"
     id="style1">
	.st0{fill:none;stroke:#000000;stroke-width:2;stroke-linecap:round;stroke-linejoin:round;stroke-miterlimit:10;}
	.st1{fill:none;stroke:#000000;stroke-width:2;stroke-linejoin:round;stroke-miterlimit:10;}
</style><style
     type="text/css"
     id="style1-0">
	.st0{fill:none;stroke:#000000;stroke-width:2;stroke-linecap:round;stroke-linejoin:round;stroke-miterlimit:10;}
	.st1{fill:none;stroke:#000000;stroke-width:2;stroke-linejoin:round;stroke-miterlimit:10;}
</style><path
     style="fill:#f9ba48;stroke-width:0.0809776"
     d="m 28.552549,21.653663 h 10.628312 c 0.237265,0 0.446025,0.110859 0.585306,0.281236 0.10932,-0.456228 0.173859,-0.929947 0.173859,-1.420024 0,-3.354336 -2.718985,-6.073321 -6.073321,-6.073321 -3.354336,0 -6.073322,2.718985 -6.073322,6.073321 0,0.490077 0.06414,0.963796 0.173859,1.420024 0.139282,-0.170377 0.348042,-0.281236 0.585307,-0.281236 z"
     id="path1-1" /><path
     style="fill:#333333;stroke-width:0.0809776"
     d="M 39.18078,21.274121 H 28.552549 c -0.62782,0 -1.138708,0.510888 -1.138708,1.138788 v 6.832487 c 0,0.62782 0.510888,1.138788 1.138708,1.138788 h 2.657037 v 1.138789 h -0.759165 v 0.759165 h 0.759165 5.314157 0.759165 v -0.759165 h -0.759165 v -1.138789 h 2.657037 c 0.62782,0 1.138788,-0.510887 1.138788,-1.138788 v -6.832568 c 0,-0.627819 -0.510887,-1.138707 -1.138788,-1.138707 z m -3.416203,10.24869 h -3.795826 v -1.138789 h 3.795826 z m 3.795826,-2.277496 c 0,0.209165 -0.170053,0.379623 -0.379623,0.379623 h -2.657037 -5.314157 -2.657037 c -0.209571,0 -0.379543,-0.170458 -0.379543,-0.379623 v -6.832487 c 0,-0.209165 0.170053,-0.379623 0.379543,-0.379623 h 10.628312 c 0.20957,0 0.379623,0.170458 0.379623,0.379623 v 6.832487 z"
     id="path2-8" /><path
     style="fill:#333333;stroke-width:0.0809776"
     d="M 28.552549,29.245315 H 39.180861 V 22.412828 H 28.552549 Z m 0.759165,-6.073321 h 9.109982 v 5.314156 h -9.109982 z"
     id="path3-4" /><path
     style="fill:#333333;stroke-width:0.0809776"
     d="M 28.172925,15.959965 V 9.8866434 c 0,-0.6279005 -0.510887,-1.1387883 -1.138707,-1.1387883 h -3.795826 c -0.6279,0 -1.138788,0.5108878 -1.138788,1.1387883 v 6.0733216 c 0,0.627819 0.510888,1.138788 1.138707,1.138788 h 3.795826 c 0.627901,-8.1e-5 1.138788,-0.510969 1.138788,-1.138788 z M 23.238392,9.5070203 h 3.795826 c 0.20957,0 0.379542,0.1704579 0.379542,0.3796231 V 14.821177 H 22.858769 V 9.8866434 c 0,-0.2091652 0.170053,-0.3796231 0.379623,-0.3796231 z m 3.795826,6.8324867 h -1.897953 -1.897873 c -0.20957,0 -0.379542,-0.170458 -0.379542,-0.379623 v -0.379623 h 2.277415 2.277495 v 0.379623 c 0,0.209165 -0.170053,0.379623 -0.379542,0.379623 z"
     id="path4-6" /><path
     id="circle4-7"
     style="fill:#333333;stroke-width:0.0809776"
     d="m 25.515888,15.959965 a 0.37962309,0.37962309 0 0 1 -0.379623,0.379623 0.37962309,0.37962309 0 0 1 -0.379623,-0.379623 0.37962309,0.37962309 0 0 1 0.379623,-0.379623 0.37962309,0.37962309 0 0 1 0.379623,0.379623 z" /><path
     style="fill:#333333;stroke-width:0.0809776"
     d="M 44.87456,13.302846 V 9.8866434 c 0,-0.6279005 -0.510888,-1.1387883 -1.138789,-1.1387883 h -5.314156 c -0.627819,0 -1.138707,0.5108878 -1.138707,1.1387883 v 3.4162026 h -0.759165 v 1.518331 c 0,0.418654 0.34051,0.759165 0.759165,0.759165 h 7.591652 c 0.418654,0 0.759165,-0.340511 0.759165,-0.759165 V 13.302846 Z M 38.042073,9.8866434 c 0,-0.2091652 0.170053,-0.3796231 0.379623,-0.3796231 h 5.314156 c 0.209489,0 0.379542,0.1704579 0.379542,0.3796231 v 3.4162026 h -2.657037 v 0.379623 H 40.699192 V 13.302846 H 38.042154 V 9.8866434 Z m 6.832487,4.9345336 h -7.591652 v -0.759166 h 2.657037 v 0.379623 h 2.277496 v -0.379623 h 2.657038 z"
     id="path5-5" /><path
     style="fill:#333333;stroke-width:0.0809776"
     d="m 25.121446,17.96408 -0.728799,-0.212566 c -0.261881,0.899985 -0.395171,1.829608 -0.395171,2.763361 0,2.348513 0.841196,4.625199 2.368596,6.410755 l 0.576965,-0.493477 c -1.409739,-1.648138 -2.186395,-3.749912 -2.186395,-5.917278 8.1e-5,-0.862007 0.122681,-1.720208 0.364804,-2.550795 z"
     id="path6-1" /><path
     style="fill:#333333;stroke-width:0.0809776"
     d="m 36.417824,11.769373 0.212161,-0.728799 C 35.73,10.778693 34.800377,10.645809 33.866624,10.645809 c -1.81479,0 -3.589738,0.497283 -5.132362,1.438243 l 0.395171,0.647983 c 2.155705,-1.314996 4.841247,-1.674779 7.288391,-0.962662 z"
     id="path7-5" /><path
     style="fill:#333333;stroke-width:0.0809776"
     d="m 42.048522,16.506888 c 0.615672,1.254505 0.928084,2.603187 0.928084,4.007987 0,2.167447 -0.776656,4.26914 -2.186396,5.917278 l 0.576966,0.493477 c 1.527481,-1.785556 2.368595,-4.062323 2.368595,-6.410755 0,-1.522136 -0.338567,-2.983135 -1.005904,-4.34283 z"
     id="path8" /><path
     style="fill:#2fb4c2;stroke-width:0.0531934"
     d="m 34.100715,43.44845 c -0.468101,0 -0.851094,0.382992 -0.851094,0.851094 0,0.468102 0.382993,0.851094 0.851094,0.851094 0.468102,0 0.851094,-0.382992 0.851094,-0.851094 0,-0.468102 -0.382992,-0.851094 -0.851094,-0.851094 z m -0.425547,7.915172 v -4.212914 c 0,-0.170219 -0.127664,-0.340437 -0.297883,-0.382992 -0.851093,-0.340438 -1.404304,-1.148977 -1.404304,-2.042625 0,-1.191531 0.936203,-2.127735 2.127734,-2.127735 1.191531,0 2.127735,0.936204 2.127735,2.127735 0,0.893648 -0.553211,1.702187 -1.404305,2.00007 -0.170219,0.04256 -0.297883,0.212774 -0.297883,0.382992 v 1.319196 l -0.382992,0.765984 c -0.04256,0.127664 -0.04256,0.255328 -0.04256,0.340438 l 0.382992,1.106422 -0.510656,1.021312 z"
     id="path1" /><path
     style="fill:#e0cbb5;stroke-width:0.0531934"
     d="m 39.632825,40.639841 v 11.149328 l -5.53211,2.936274 -5.532109,-2.936274 V 40.639841 l 5.532109,-0.978758 z m -2.553282,4.08525 c 0,-1.659633 -1.319195,-2.978828 -2.978828,-2.978828 -1.659633,0 -2.978828,1.319195 -2.978828,2.978828 0,1.148976 0.680875,2.212844 1.702188,2.680945 v 4.127805 c 0,0.127664 0.04255,0.212773 0.127664,0.297883 l 0.851093,0.851094 c 0.08511,0.08511 0.170219,0.127664 0.297883,0.127664 0,0 0.04256,0 0.08511,0 0.127664,-0.04256 0.255328,-0.127664 0.297882,-0.212774 l 0.851094,-1.702187 c 0.04256,-0.08511 0.04256,-0.212774 0.04256,-0.340438 l -0.382992,-1.106422 0.340437,-0.680875 c 0.04256,-0.08511 0.04256,-0.127664 0.04256,-0.212773 v -1.148977 c 1.021312,-0.468101 1.702187,-1.531969 1.702187,-2.680945 z"
     id="path2" /><path
     style="fill:#fff8ef;stroke-width:0.0531934"
     d="m 38.356184,40.639841 -4.255469,-0.978758 -4.255469,0.978758 v 11.149328 l 4.255469,2.936274 4.255469,-2.936274 z m -2.978828,6.766195 v 1.148977 c 0,0.08511 0,0.127664 -0.04256,0.212773 l -0.340437,0.680875 0.382992,1.106422 c 0.04256,0.127664 0.04256,0.212774 -0.04256,0.340438 l -0.851094,1.702187 c -0.04255,0.127664 -0.170218,0.212774 -0.297882,0.212774 0,0 -0.04256,0 -0.08511,0 -0.127664,0 -0.212773,-0.04256 -0.297883,-0.127664 l -0.851093,-0.851094 c -0.08511,-0.08511 -0.127664,-0.170219 -0.127664,-0.297883 v -4.127805 c -1.021313,-0.510656 -1.702188,-1.531969 -1.702188,-2.680945 0,-1.659633 1.319195,-2.978828 2.978828,-2.978828 1.659633,0 2.978828,1.319195 2.978828,2.978828 0,1.148976 -0.680875,2.212844 -1.702187,2.680945 z"
     id="path3" /><path
     style="fill:#ff7d00;stroke-width:0.0531934"
     d="M 27.291965,52.555153 V 39.533419 l 6.80875,-1.191531 6.80875,1.191531 v 13.021734 l -6.80875,3.617149 z m 6.595977,3.021383 c 0.04255,0.04256 0.127664,0.04256 0.212773,0.04256 0.08511,0 0.127664,0 0.212774,-0.04256 l 5.957656,-3.149047 c 0.127664,-0.08511 0.212773,-0.212773 0.212773,-0.382992 V 40.256849 c 0,-0.212774 -0.127664,-0.382993 -0.340437,-0.425547 l -5.957656,-1.063867 c -0.04256,0 -0.08511,0 -0.127665,0 l -5.957656,1.063867 c -0.212773,0.04255 -0.340437,0.212773 -0.340437,0.425547 v 11.787648 c 0,0.170219 0.08511,0.297883 0.212773,0.382992 z"
     id="path4" /><path
     id="circle4"
     style="fill:#42210b;stroke-width:0.0531934"
     d="m 34.951809,44.299545 a 0.85109377,0.85109377 0 0 1 -0.851093,0.851094 0.85109377,0.85109377 0 0 1 -0.851094,-0.851094 0.85109377,0.85109377 0 0 1 0.851094,-0.851093 0.85109377,0.85109377 0 0 1 0.851093,0.851093 z" /><path
     style="fill:#42210b;stroke-width:0.0531934"
     d="m 31.121887,44.725091 c 0,-1.659633 1.319195,-2.978828 2.978828,-2.978828 1.659633,0 2.978828,1.319195 2.978828,2.978828 0,1.148976 -0.680875,2.212844 -1.702187,2.680945 v 1.148977 c 0,0.08511 0,0.127664 -0.04256,0.212773 l -0.340437,0.680875 0.382992,1.106422 c 0.04256,0.127664 0.04256,0.212774 -0.04256,0.340438 l -0.851094,1.702187 c -0.04255,0.127664 -0.170218,0.212774 -0.297882,0.212774 0,0 -0.04256,0 -0.08511,0 -0.127664,0 -0.212773,-0.04256 -0.297883,-0.127664 l -0.851093,-0.851094 c -0.08511,-0.08511 -0.127664,-0.170219 -0.127664,-0.297883 v -4.127805 c -1.021313,-0.468101 -1.702188,-1.531969 -1.702188,-2.680945 z m 0.851094,0 c 0,0.893648 0.553211,1.702187 1.404304,2.00007 0.170219,0.04256 0.297883,0.212774 0.297883,0.382992 v 4.212915 l 0.297883,0.297882 0.510656,-1.021312 -0.382992,-1.063867 c -0.04256,-0.127664 -0.04256,-0.212774 0.04256,-0.340438 l 0.382992,-0.765984 v -1.319196 c 0,-0.170218 0.127664,-0.340437 0.297883,-0.382992 0.851094,-0.297883 1.404305,-1.106422 1.404305,-2.00007 0,-1.191531 -0.936204,-2.127735 -2.127735,-2.127735 -1.191531,0 -2.127734,0.936204 -2.127734,2.127735 z"
     id="path5" /><path
     style="fill:#42210b;stroke-width:0.0531934"
     d="m 39.632825,40.639841 -5.53211,-0.978758 -5.532109,0.978758 v 11.149328 l 5.532109,2.936274 5.53211,-2.936274 z M 27.717512,52.044497 V 40.256849 c 0,-0.212774 0.170219,-0.382993 0.340437,-0.425547 l 5.957657,-1.063867 c 0.04255,0 0.08511,0 0.127664,0 l 5.957656,1.063867 c 0.212774,0.04255 0.340438,0.212773 0.340438,0.425547 v 11.787648 c 0,0.170219 -0.08511,0.297883 -0.212774,0.382992 l -5.957656,3.149047 c -0.08511,0.04256 -0.127664,0.04256 -0.212774,0.04256 -0.08511,0 -0.127664,0 -0.212773,-0.04256 l -5.957656,-3.149047 c -0.08511,-0.08511 -0.170219,-0.212773 -0.170219,-0.382992 z"
     id="path6" /><path
     style="fill:#42210b;stroke-width:0.0531934"
     d="m 44.739387,50.2572 h 0.851094 V 49.406107 H 44.739387 Z M 23.88759,34.511966 v 0.851094 h 0.851094 v -0.851094 z m 1.702188,22.128438 V 55.78931 h -0.851094 v 0.851094 z M 44.31384,34.937513 h -0.851093 v 0.851093 H 44.31384 Z M 23.036496,44.299544 V 43.44845 h -0.851093 v 0.851094 z m 4.255469,-4.766125 v 13.021734 l 6.80875,3.617149 6.80875,-3.617149 V 39.533419 l -6.80875,-1.191531 z m 14.043047,17.958078 v 0.851094 h 0.851094 V 57.491497 Z M 23.036496,46.852825 h 3.404375 v -7.659844 c 0,-0.212773 0.170219,-0.382992 0.340438,-0.425546 l 2.212844,-0.382993 V 35.36306 h -3.404375 v 0.425546 c 0,0.255329 -0.170219,0.425547 -0.425547,0.425547 h -1.702188 c -0.255328,0 -0.425547,-0.170218 -0.425547,-0.425547 v -1.702187 c 0,-0.212774 0.170219,-0.425547 0.425547,-0.425547 h 1.702188 c 0.255328,0 0.425547,0.212773 0.425547,0.425547 v 0.425547 H 29.4197 c 0.212773,0 0.425546,0.170219 0.425546,0.425547 v 0.851093 h 1.276641 V 36.6397 h -1.276641 v 1.617078 l 4.17036,-0.723429 c 0.04255,0 0.08511,0 0.127664,0 l 3.744812,0.63832 V 35.36306 c 0,-0.255329 0.212774,-0.425547 0.425547,-0.425547 h 4.255469 v -0.425547 c 0,-0.255328 0.212774,-0.425547 0.425547,-0.425547 h 1.702187 c 0.212774,0 0.425547,0.170219 0.425547,0.425547 v 1.702187 c 0,0.255328 -0.212773,0.425547 -0.425547,0.425547 h -1.702187 c -0.212773,0 -0.425547,-0.170219 -0.425547,-0.425547 v -0.425547 h -3.829922 v 2.510727 l 2.638391,0.468102 c 0.212773,0.04255 0.340437,0.212773 0.340437,0.425546 v 6.808751 h 1.276641 v -1.702188 h 0.851094 v 1.702188 h 1.27664 c 0.212774,0 0.425547,0.212773 0.425547,0.425546 v 2.127735 h 0.425547 c 0.212774,0 0.425547,0.212773 0.425547,0.425547 v 1.702187 c 0,0.212774 -0.212773,0.425547 -0.425547,0.425547 h -1.702187 c -0.212774,0 -0.425547,-0.212773 -0.425547,-0.425547 V 48.98056 c 0,-0.212774 0.212773,-0.425547 0.425547,-0.425547 h 0.425546 v -1.702188 h -2.978828 v 5.957657 c 0,0.170218 -0.08511,0.297882 -0.212773,0.382992 l -3.574594,1.914961 v 2.383062 h 2.553281 V 57.06595 c 0,-0.212773 0.212774,-0.425546 0.425547,-0.425546 h 1.702188 c 0.212773,0 0.425547,0.212773 0.425547,0.425546 v 1.702188 c 0,0.212773 -0.212774,0.425547 -0.425547,0.425547 h -1.702188 c -0.212773,0 -0.425547,-0.212774 -0.425547,-0.425547 V 58.342591 H 37.50509 c -0.212773,0 -0.425547,-0.212773 -0.425547,-0.425547 v -2.383062 l -2.766054,1.489414 c -0.08511,0.04255 -0.127664,0.04255 -0.212774,0.04255 -0.08511,0 -0.127664,0 -0.212773,-0.04255 L 28.994153,54.42756 v 1.787297 c 0,0.212773 -0.212774,0.425547 -0.425547,0.425547 h -2.127735 v 0.425546 c 0,0.212774 -0.170218,0.425547 -0.425547,0.425547 h -1.702187 c -0.255328,0 -0.425547,-0.212773 -0.425547,-0.425547 v -1.702187 c 0,-0.212774 0.170219,-0.425547 0.425547,-0.425547 h 1.702187 c 0.255329,0 0.425547,0.212773 0.425547,0.425547 v 0.425547 h 1.702188 V 53.959458 L 26.653645,53.193474 C 26.525981,53.108364 26.440871,52.9807 26.440871,52.810482 v -5.106563 h -1.27664 v 0.851094 h -0.851094 v -0.851094 h -1.702188 c -0.255328,0 -0.425546,-0.212773 -0.425546,-0.425547 v -2.127734 h -0.425547 c -0.212774,0 -0.425547,-0.212774 -0.425547,-0.425547 v -1.702188 c 0,-0.212773 0.212773,-0.425547 0.425547,-0.425547 h 1.702187 c 0.255328,0 0.425547,0.212774 0.425547,0.425547 v 1.702188 c 0,0.212773 -0.170219,0.425547 -0.425547,0.425547 h -0.425547 z"
     id="path7" /></svg>
