<?xml version="1.0" encoding="UTF-8" standalone="no"?>
<svg
   xmlns:dc="http://purl.org/dc/elements/1.1/"
   xmlns:cc="http://creativecommons.org/ns#"
   xmlns:rdf="http://www.w3.org/1999/02/22-rdf-syntax-ns#"
   xmlns:svg="http://www.w3.org/2000/svg"
   xmlns="http://www.w3.org/2000/svg"
   xmlns:sodipodi="http://sodipodi.sourceforge.net/DTD/sodipodi-0.dtd"
   xmlns:inkscape="http://www.inkscape.org/namespaces/inkscape"
   inkscape:export-ydpi="95.999992"
   inkscape:export-xdpi="95.999992"
   inkscape:export-filename="C:\Users\linos\Desktop\Icone gruppi telegram\uploaded\cryptography.png"
   sodipodi:docname="cryptography.svg"
   inkscape:version="1.0 (4035a4fb49, 2020-05-01)"
   id="svg883"
   version="1.1"
   viewBox="0 0 67.73333 67.73333"
   height="67.73333mm"
   width="67.73333mm">
  <defs
     id="defs877" />
  <sodipodi:namedview
     fit-margin-bottom="0"
     fit-margin-right="0"
     fit-margin-left="0"
     fit-margin-top="0"
     inkscape:window-maximized="1"
     inkscape:window-y="-9"
     inkscape:window-x="-9"
     inkscape:window-height="1013"
     inkscape:window-width="1920"
     showgrid="false"
     inkscape:document-rotation="0"
     inkscape:current-layer="layer1"
     inkscape:document-units="mm"
     inkscape:cy="966.02678"
     inkscape:cx="-704.67094"
     inkscape:zoom="0.29000052"
     inkscape:pageshadow="2"
     inkscape:pageopacity="0"
     borderopacity="1.0"
     bordercolor="#666666"
     pagecolor="#4b4b4b"
     id="base" />
  <metadata
     id="metadata880">
    <rdf:RDF>
      <cc:Work
         rdf:about="">
        <dc:format>image/svg+xml</dc:format>
        <dc:type
           rdf:resource="http://purl.org/dc/dcmitype/StillImage" />
        <dc:title></dc:title>
        <cc:license
           rdf:resource="http://creativecommons.org/licenses/by-sa/4.0/" />
      </cc:Work>
      <cc:License
         rdf:about="http://creativecommons.org/licenses/by-sa/4.0/">
        <cc:permits
           rdf:resource="http://creativecommons.org/ns#Reproduction" />
        <cc:permits
           rdf:resource="http://creativecommons.org/ns#Distribution" />
        <cc:requires
           rdf:resource="http://creativecommons.org/ns#Notice" />
        <cc:requires
           rdf:resource="http://creativecommons.org/ns#Attribution" />
        <cc:permits
           rdf:resource="http://creativecommons.org/ns#DerivativeWorks" />
        <cc:requires
           rdf:resource="http://creativecommons.org/ns#ShareAlike" />
      </cc:License>
    </rdf:RDF>
  </metadata>
  <g
     transform="translate(179.91672,123.97618)"
     id="layer1"
     inkscape:groupmode="layer"
     inkscape:label="Livello 1">
    <g
       transform="matrix(0.99999072,0,0,0.99999994,-0.00172168,-2.6715651e-6)"
       id="g17">
      <rect
         style="fill:#0d47a1;stroke-width:0.0198438"
         id="rect887"
         width="67.733337"
         height="67.733337"
         x="-179.91667"
         y="-123.97618"
         rx="0.24645939"
         ry="0.24645343" />
      <path
         id="path850"
         style="color:#000000;font-style:normal;font-variant:normal;font-weight:normal;font-stretch:normal;font-size:medium;line-height:normal;font-family:sans-serif;font-variant-ligatures:normal;font-variant-position:normal;font-variant-caps:normal;font-variant-numeric:normal;font-variant-alternates:normal;font-variant-east-asian:normal;font-feature-settings:normal;font-variation-settings:normal;text-indent:0;text-align:start;text-decoration:none;text-decoration-line:none;text-decoration-style:solid;text-decoration-color:#000000;letter-spacing:normal;word-spacing:normal;text-transform:none;writing-mode:lr-tb;direction:ltr;text-orientation:mixed;dominant-baseline:auto;baseline-shift:baseline;text-anchor:start;white-space:normal;shape-padding:0;shape-margin:0;inline-size:0;clip-rule:nonzero;display:inline;overflow:visible;visibility:visible;isolation:auto;mix-blend-mode:normal;color-interpolation:sRGB;color-interpolation-filters:linearRGB;solid-color:#000000;solid-opacity:1;vector-effect:none;fill:#000001;fill-opacity:0.184314;fill-rule:nonzero;stroke:none;stroke-width:0.0198438;stroke-linecap:butt;stroke-linejoin:miter;stroke-miterlimit:4;stroke-dasharray:none;stroke-dashoffset:0;stroke-opacity:1;color-rendering:auto;image-rendering:auto;shape-rendering:auto;text-rendering:auto;enable-background:accumulate;stop-color:#000000"
         d="m -146.05001,-106.22549 c -5.50578,2e-5 -9.96909,4.44219 -9.96909,9.92188 v 6.6e-5 3.222155 h -7e-5 -3.99833 -7e-5 c -0.81705,0 -1.47478,0.657721 -1.47478,1.474846 v 16.138164 c 2e-5,0.436309 0.18767,0.82698 0.48686,1.096508 0.0324,0.03549 0.0666,0.06932 0.10238,0.101484 0.0319,0.03483 0.0655,0.06812 0.10058,0.09973 0.0322,0.0352 0.0661,0.06879 0.10161,0.100703 0.032,0.03491 0.0656,0.06825 0.10076,0.09993 0.0321,0.03507 0.0659,0.06857 0.10123,0.10038 0.0319,0.03482 0.0655,0.06806 0.10057,0.09967 0.0321,0.03504 0.0658,0.06847 0.10116,0.100254 0.0319,0.03484 0.0655,0.06811 0.10064,0.09973 0.0318,0.03474 0.0653,0.06794 0.10031,0.09948 0.032,0.03489 0.0656,0.0682 0.10077,0.09986 0.0316,0.03452 0.0649,0.06754 0.0997,0.0989 0.0321,0.03507 0.0659,0.06857 0.10129,0.100379 0.0316,0.03444 0.0648,0.06735 0.0995,0.09864 0.0317,0.03463 0.0651,0.06777 0.1,0.09922 0.0318,0.03472 0.0653,0.06789 0.10031,0.09941 0.0315,0.03434 0.0646,0.06717 0.0992,0.09838 0.0319,0.03476 0.0654,0.06798 0.10045,0.09954 0.0316,0.03448 0.0649,0.06745 0.0997,0.09877 0.0315,0.03434 0.0647,0.06717 0.0993,0.09838 0.0315,0.03429 0.0645,0.06714 0.099,0.09832 0.0316,0.0345 0.0649,0.06748 0.0997,0.09883 0.0315,0.03436 0.0647,0.06722 0.0993,0.09844 0.0315,0.0343 0.0646,0.06702 0.0992,0.09819 0.0315,0.03427 0.0645,0.0671 0.099,0.09825 0.0314,0.03421 0.0644,0.06695 0.0989,0.09805 0.0314,0.03421 0.0644,0.06695 0.0989,0.09806 0.0315,0.03428 0.0645,0.06709 0.0991,0.09825 0.0312,0.03399 0.064,0.06655 0.0983,0.09747 0.0313,0.03407 0.0642,0.06668 0.0985,0.09767 0.0314,0.03417 0.0643,0.06686 0.0988,0.09793 0.0311,0.03387 0.0638,0.06628 0.098,0.09709 0.0314,0.03412 0.0642,0.06684 0.0986,0.09786 0.031,0.03367 0.0635,0.06592 0.0975,0.09657 0.0313,0.03403 0.0641,0.06659 0.0984,0.09754 0.0311,0.03384 0.0637,0.06629 0.0979,0.09709 0.0311,0.03383 0.0637,0.06624 0.0979,0.09702 0.0311,0.03378 0.0636,0.06608 0.0977,0.09683 0.0309,0.03365 0.0634,0.06587 0.0974,0.09651 0.0311,0.03385 0.0637,0.06629 0.0979,0.09709 0.031,0.03367 0.0634,0.06592 0.0974,0.09657 0.031,0.03374 0.0636,0.06606 0.0977,0.09676 0.0307,0.03337 0.0629,0.06539 0.0966,0.0958 0.0312,0.03392 0.0639,0.06636 0.0982,0.09722 0.0306,0.03316 0.0625,0.06499 0.096,0.09521 0.0309,0.03361 0.0634,0.06584 0.0973,0.09644 0.0307,0.03331 0.0628,0.06525 0.0964,0.0956 0.0309,0.03357 0.0633,0.06574 0.0971,0.09631 0.0307,0.03336 0.0629,0.06534 0.0966,0.09573 0.0307,0.03335 0.0629,0.06534 0.0966,0.09573 0.0306,0.03319 0.0626,0.06503 0.096,0.09528 0.0308,0.03349 0.0631,0.06561 0.097,0.09612 0.0305,0.03309 0.0624,0.06486 0.0959,0.09502 0.0305,0.0331 0.0625,0.06484 0.0959,0.09502 0.0306,0.03325 0.0627,0.06517 0.0963,0.09547 0.0304,0.03299 0.0622,0.06467 0.0955,0.09476 0.0306,0.03319 0.0626,0.06502 0.0961,0.09528 0.0304,0.03294 0.0622,0.06459 0.0955,0.09463 0.0305,0.03312 0.0625,0.0649 0.0959,0.09508 0.0305,0.03307 0.0625,0.06481 0.0959,0.09496 0.0301,0.03258 0.0615,0.06392 0.0944,0.09367 0.0305,0.03312 0.0625,0.06489 0.0959,0.09508 0.0303,0.03288 0.0621,0.06445 0.0953,0.09444 0.0302,0.03271 0.0617,0.06414 0.0948,0.09399 0.0303,0.0329 0.0621,0.0645 0.0953,0.09451 0.0301,0.0326 0.0616,0.06391 0.0945,0.09366 0.0302,0.03274 0.0618,0.06418 0.0948,0.09405 0.0303,0.03279 0.062,0.06427 0.0951,0.09418 0.0301,0.03259 0.0616,0.06391 0.0945,0.09366 0.03,0.03251 0.0614,0.06385 0.0942,0.09354 0.0301,0.03258 0.0616,0.06385 0.0945,0.0936 0.03,0.0325 0.0614,0.06373 0.0943,0.09341 0.0302,0.03268 0.0617,0.06409 0.0948,0.09392 0.0299,0.03233 0.0611,0.06349 0.0938,0.09302 0.0299,0.03229 0.061,0.06332 0.0937,0.09282 0.03,0.03251 0.0615,0.06379 0.0943,0.09347 0.0298,0.03221 0.0609,0.0632 0.0934,0.09263 0.03,0.03241 0.0613,0.06361 0.094,0.09321 0.0296,0.03203 0.0605,0.06284 0.0929,0.09212 0.03,0.03247 0.0613,0.06369 0.0941,0.09334 0.0298,0.03217 0.0608,0.06317 0.0933,0.09256 0.0296,0.03203 0.0606,0.06284 0.093,0.09212 0.0298,0.03226 0.061,0.06328 0.0936,0.09276 0.0296,0.03195 0.0604,0.06271 0.0927,0.09192 0.0299,0.03228 0.061,0.06334 0.0937,0.09283 0.0294,0.03174 0.0601,0.0623 0.0922,0.09134 0.0296,0.032 0.0605,0.0628 0.0928,0.09205 0.0296,0.03193 0.0604,0.06266 0.0926,0.09185 0.0296,0.03201 0.0605,0.06285 0.0929,0.09211 0.0294,0.03172 0.06,0.06225 0.0921,0.09127 0.0295,0.03183 0.0602,0.06248 0.0924,0.0916 0.0296,0.03191 0.0604,0.06261 0.0926,0.09179 0.0293,0.03162 0.0598,0.06214 0.0918,0.09108 0.0294,0.03171 0.06,0.06226 0.0921,0.09127 0.0295,0.0318 0.0602,0.06238 0.0924,0.09147 0.0291,0.03141 0.0594,0.06174 0.0911,0.0905 0.0294,0.03172 0.0601,0.06226 0.0921,0.09127 0.0294,0.03167 0.0599,0.06217 0.092,0.09114 0.0293,0.03153 0.0597,0.0619 0.0916,0.09076 0.029,0.03123 0.0591,0.06137 0.0907,0.08998 0.0293,0.03159 0.0598,0.06203 0.0918,0.09095 0.0291,0.0314 0.0594,0.06168 0.0912,0.09043 0.0291,0.03138 0.0594,0.06163 0.0911,0.09037 0.0291,0.03133 0.0593,0.06154 0.091,0.09024 0.0289,0.03119 0.0591,0.06128 0.0906,0.08985 0.0292,0.03152 0.0597,0.06191 0.0915,0.09076 0.0289,0.03109 0.0589,0.06111 0.0904,0.08959 0.029,0.0312 0.0591,0.06127 0.0907,0.08985 0.0291,0.03128 0.0592,0.06146 0.0909,0.09011 0.0288,0.03099 0.0588,0.06087 0.0901,0.08927 0.0288,0.03097 0.0587,0.06088 0.09,0.08927 0.029,0.03128 0.0592,0.06146 0.0909,0.09011 0.0287,0.03089 0.0586,0.06069 0.0898,0.08901 0.0288,0.03096 0.0587,0.06089 0.09,0.08927 0.0288,0.03094 0.0587,0.06078 0.09,0.08914 0.0287,0.03089 0.0585,0.06075 0.0898,0.08908 0.0286,0.03073 0.0583,0.06043 0.0894,0.08863 0.0289,0.03105 0.0589,0.061 0.0903,0.08946 0.0284,0.03056 0.058,0.06007 0.0889,0.08811 0.0288,0.03101 0.0587,0.06098 0.0901,0.0894 0.0285,0.03057 0.058,0.06012 0.0889,0.08817 0.0285,0.03068 0.0582,0.06029 0.0893,0.08843 0.0284,0.03052 0.0579,0.06003 0.0888,0.08804 0.0285,0.03061 0.058,0.06022 0.089,0.0883 0.0288,0.03092 0.0587,0.06073 0.09,0.08908 0.0282,0.03028 0.0575,0.05959 0.0882,0.0874 0.0283,0.03038 0.0576,0.05977 0.0884,0.08766 0.0286,0.0307 0.0583,0.06034 0.0893,0.0885 0.0281,0.03014 0.0572,0.05932 0.0877,0.08701 0.0285,0.03066 0.0582,0.06031 0.0892,0.08843 0.028,0.03008 0.0571,0.05918 0.0876,0.08682 0.0283,0.03043 0.0577,0.05985 0.0886,0.08779 0.0283,0.0304 0.0577,0.05981 0.0885,0.08772 0.028,0.02998 0.0569,0.05901 0.0873,0.08656 0.0282,0.03032 0.0575,0.05963 0.0882,0.08747 0.0281,0.03017 0.0573,0.05936 0.0879,0.08707 0.028,0.03 0.057,0.05905 0.0873,0.08662 0.028,0.0301 0.0571,0.05923 0.0876,0.08688 0.0281,0.03017 0.0574,0.05936 0.0879,0.08707 0.028,0.02998 0.057,0.059 0.0873,0.08656 0.0279,0.02986 0.0567,0.05878 0.087,0.08623 0.0279,0.02996 0.0569,0.0589 0.0872,0.08643 0.0279,0.02993 0.0568,0.05892 0.0871,0.08643 0.0281,0.0301 0.0572,0.05923 0.0876,0.08688 0.0277,0.0297 0.0565,0.05847 0.0866,0.08578 0.0277,0.02967 0.0564,0.05843 0.0864,0.08572 0.0278,0.02976 0.0566,0.05855 0.0867,0.08591 0.0279,0.02985 0.0567,0.05873 0.0869,0.08617 0.0277,0.02968 0.0564,0.05842 0.0865,0.08572 0.0276,0.02953 0.0561,0.05816 0.086,0.08533 0.0277,0.02969 0.0564,0.05848 0.0865,0.08578 0.0277,0.02961 0.0563,0.05835 0.0863,0.08559 0.0275,0.02941 0.0559,0.05793 0.0857,0.08501 0.0277,0.02961 0.0563,0.05829 0.0863,0.08552 0.0277,0.02959 0.0563,0.05824 0.0863,0.08546 0.0273,0.02915 0.0554,0.05745 0.085,0.0843 0.0276,0.02953 0.0561,0.05817 0.086,0.08533 0.0274,0.02925 0.0556,0.05763 0.0853,0.08456 0.0275,0.02943 0.056,0.05799 0.0858,0.08507 0.0273,0.02914 0.0555,0.05746 0.0851,0.0843 0.0276,0.02948 0.0561,0.05807 0.086,0.0852 0.0271,0.02897 0.0552,0.05709 0.0846,0.08378 0.0273,0.02918 0.0555,0.05749 0.0851,0.08436 0.027,0.02883 0.0548,0.05682 0.084,0.08339 0.0277,0.02963 0.0563,0.05833 0.0864,0.08559 0.0271,0.02888 0.055,0.05691 0.0843,0.08352 0.0272,0.02903 0.0553,0.05723 0.0847,0.08397 0.0272,0.02902 0.0553,0.05718 0.0847,0.08391 0.0271,0.02891 0.055,0.05701 0.0844,0.08365 0.0271,0.02893 0.0551,0.05711 0.0845,0.08378 0.027,0.02885 0.055,0.05686 0.0842,0.08346 0.0266,0.02839 0.054,0.05597 0.0828,0.08217 0.0274,0.02928 0.0557,0.05773 0.0854,0.08468 0.0267,0.0285 0.0543,0.05619 0.0832,0.08249 0.0272,0.02902 0.0553,0.05717 0.0847,0.08391 0.0266,0.02838 0.0541,0.05597 0.0829,0.08216 0.0268,0.02858 0.0545,0.05632 0.0834,0.08268 0.0272,0.02904 0.0552,0.05729 0.0847,0.08404 0.0265,0.02821 0.0539,0.05566 0.0825,0.08171 0.0271,0.02891 0.055,0.057 0.0844,0.08365 0.0264,0.02811 0.0536,0.05543 0.0821,0.08139 0.0271,0.0289 0.055,0.05695 0.0844,0.08359 0.0261,0.02777 0.053,0.05475 0.0811,0.08042 0.0268,0.02867 0.0546,0.0565 0.0836,0.08294 0.0266,0.02838 0.0541,0.05591 0.0828,0.0821 0.0266,0.02833 0.054,0.05582 0.0827,0.08197 0.0268,0.02854 0.0544,0.05622 0.0833,0.08255 0.0263,0.028 0.0534,0.0552 0.0818,0.08107 0.0263,0.028 0.0533,0.05519 0.0817,0.08107 0.0269,0.02868 0.0547,0.05649 0.0837,0.08294 0.0264,0.02814 0.0537,0.05547 0.0822,0.08146 0.026,0.02764 0.0527,0.05447 0.0807,0.08003 0.0266,0.02835 0.054,0.05587 0.0827,0.08204 0.0261,0.0278 0.053,0.05478 0.0812,0.08049 0.0265,0.02825 0.0539,0.05568 0.0825,0.08178 0.0263,0.02798 0.0534,0.05515 0.0817,0.081 0.0262,0.02794 0.0533,0.05506 0.0816,0.08087 0.0261,0.02784 0.0531,0.05488 0.0813,0.08062 0.0262,0.02795 0.0533,0.05512 0.0816,0.08094 0.0263,0.02806 0.0535,0.05528 0.082,0.0812 0.0255,0.02716 0.0519,0.05353 0.0794,0.07868 0.009,0.0098 0.0186,0.01931 0.028,0.02887 h 30.28989 c 0.13654,0 0.24643,-0.109894 0.24643,-0.246429 v -20.244572 c -0.0215,-0.02153 -0.0431,-0.04293 -0.0648,-0.06427 -0.023,-0.02311 -0.0462,-0.04603 -0.0695,-0.06892 -0.0232,-0.02326 -0.0465,-0.04635 -0.0699,-0.06938 -0.0237,-0.02374 -0.0476,-0.04723 -0.0714,-0.07073 -0.0232,-0.02332 -0.0467,-0.04642 -0.0702,-0.0695 -0.0228,-0.02289 -0.0458,-0.0456 -0.0689,-0.06828 -0.0235,-0.02359 -0.0472,-0.04699 -0.0709,-0.07035 -0.0236,-0.02367 -0.0474,-0.04717 -0.0712,-0.0706 -0.0233,-0.02337 -0.0468,-0.04649 -0.0703,-0.06963 -0.0228,-0.02285 -0.0457,-0.04551 -0.0687,-0.06815 -0.0241,-0.0242 -0.0484,-0.0482 -0.0727,-0.07215 -0.0234,-0.02348 -0.047,-0.04677 -0.0706,-0.07002 -0.0232,-0.02327 -0.0466,-0.04633 -0.07,-0.06938 -0.024,-0.02405 -0.0481,-0.04789 -0.0724,-0.0717 -0.0232,-0.02331 -0.0466,-0.04643 -0.0701,-0.06951 -0.0238,-0.02392 -0.0479,-0.04763 -0.072,-0.07131 -0.0237,-0.02384 -0.0477,-0.04746 -0.0717,-0.07106 -0.0237,-0.02379 -0.0476,-0.04737 -0.0716,-0.07093 -0.0237,-0.02378 -0.0476,-0.04738 -0.0715,-0.07093 -0.0234,-0.02345 -0.0469,-0.04668 -0.0705,-0.06989 -0.0237,-0.02379 -0.0476,-0.04738 -0.0715,-0.07093 -0.0242,-0.02431 -0.0486,-0.04841 -0.0731,-0.07248 -0.0239,-0.02396 -0.048,-0.04772 -0.0721,-0.07144 -0.0236,-0.02367 -0.0474,-0.04716 -0.0712,-0.0706 -0.0242,-0.02425 -0.0485,-0.04828 -0.0729,-0.07228 -0.024,-0.02403 -0.0481,-0.04785 -0.0723,-0.07164 -0.024,-0.0241 -0.0482,-0.04798 -0.0725,-0.07183 -0.0236,-0.02372 -0.0474,-0.04725 -0.0713,-0.07073 -0.0241,-0.02422 -0.0484,-0.04825 -0.0728,-0.07222 -0.0242,-0.02432 -0.0487,-0.04841 -0.0731,-0.07248 -0.0247,-0.02476 -0.0495,-0.04927 -0.0745,-0.07377 -0.0234,-0.02343 -0.0469,-0.04669 -0.0705,-0.06989 -0.0245,-0.02462 -0.0493,-0.04901 -0.074,-0.07338 -0.0242,-0.02429 -0.0486,-0.04837 -0.073,-0.07241 -0.0243,-0.02444 -0.0489,-0.04867 -0.0735,-0.07286 -0.0242,-0.02425 -0.0485,-0.04828 -0.0729,-0.07228 -0.0239,-0.02396 -0.0479,-0.04772 -0.072,-0.07144 -0.0248,-0.0249 -0.0498,-0.04958 -0.0749,-0.07422 -0.0244,-0.02446 -0.049,-0.04872 -0.0736,-0.07293 -0.0244,-0.02448 -0.049,-0.04876 -0.0736,-0.07299 -0.0246,-0.02466 -0.0493,-0.04911 -0.0742,-0.07351 -0.0243,-0.02445 -0.0489,-0.04867 -0.0735,-0.07286 -0.0246,-0.02472 -0.0495,-0.04924 -0.0743,-0.0737 -0.0245,-0.02464 -0.0493,-0.04906 -0.0741,-0.07345 -0.0246,-0.02468 -0.0494,-0.04915 -0.0742,-0.07357 -0.024,-0.02413 -0.0483,-0.04807 -0.0725,-0.07196 -0.0254,-0.02552 -0.0511,-0.05079 -0.0767,-0.07603 -0.0245,-0.02455 -0.0491,-0.04889 -0.0738,-0.07319 -0.0247,-0.02481 -0.0496,-0.04941 -0.0746,-0.07396 -0.0247,-0.02481 -0.0496,-0.04941 -0.0746,-0.07396 -0.0246,-0.0247 -0.0494,-0.04919 -0.0743,-0.07364 -0.0254,-0.02545 -0.0509,-0.05066 -0.0765,-0.07584 -0.0244,-0.02453 -0.0491,-0.04885 -0.0738,-0.07312 -0.0245,-0.0246 -0.0492,-0.04897 -0.074,-0.07332 -0.0257,-0.02581 -0.0516,-0.0514 -0.0776,-0.07693 -0.0245,-0.02461 -0.0493,-0.04902 -0.074,-0.07338 -0.025,-0.02507 -0.0501,-0.04993 -0.0754,-0.07474 -0.0249,-0.025 -0.05,-0.04975 -0.0752,-0.07448 -0.0256,-0.02572 -0.0514,-0.05123 -0.0773,-0.07667 -0.0243,-0.02436 -0.0487,-0.0485 -0.0733,-0.07261 -0.0254,-0.02555 -0.0511,-0.05088 -0.0768,-0.07616 -0.0256,-0.0257 -0.0514,-0.05119 -0.0773,-0.07661 -0.0246,-0.02475 -0.0495,-0.04928 -0.0744,-0.07377 -0.0255,-0.02561 -0.0512,-0.05096 -0.077,-0.07629 -0.025,-0.02515 -0.0503,-0.05011 -0.0756,-0.075 -0.0255,-0.02558 -0.0512,-0.05092 -0.0769,-0.07622 -0.0251,-0.02518 -0.0504,-0.05015 -0.0757,-0.07506 -0.0258,-0.02594 -0.0519,-0.05167 -0.078,-0.07732 -0.0253,-0.02541 -0.0508,-0.05057 -0.0764,-0.07571 -0.0252,-0.02526 -0.0505,-0.05027 -0.076,-0.07525 -0.0253,-0.02544 -0.0509,-0.05066 -0.0765,-0.07584 -0.0259,-0.02603 -0.0521,-0.05183 -0.0783,-0.07758 -0.0248,-0.02492 -0.0499,-0.04963 -0.0749,-0.07428 -0.0261,-0.02623 -0.0524,-0.05228 -0.0788,-0.07823 -0.0256,-0.02573 -0.0515,-0.05123 -0.0774,-0.07668 -0.0254,-0.02546 -0.0509,-0.05071 -0.0765,-0.0759 -0.026,-0.02609 -0.0522,-0.0519 -0.0785,-0.07771 -0.0252,-0.02533 -0.0507,-0.05045 -0.0762,-0.07551 -0.0255,-0.02558 -0.0511,-0.05098 -0.0769,-0.07629 -0.0263,-0.02644 -0.0528,-0.05266 -0.0795,-0.07881 -0.0255,-0.02565 -0.0513,-0.05104 -0.0771,-0.07642 -0.026,-0.02616 -0.0523,-0.0521 -0.0786,-0.07797 -0.026,-0.02608 -0.0522,-0.05191 -0.0784,-0.07771 -0.0259,-0.02599 -0.052,-0.05174 -0.0782,-0.07745 -0.0256,-0.02569 -0.0514,-0.05114 -0.0773,-0.07655 -0.0264,-0.02652 -0.053,-0.05284 -0.0797,-0.07906 -0.0255,-0.0256 -0.0512,-0.05096 -0.077,-0.07629 -0.0268,-0.02694 -0.0539,-0.05365 -0.081,-0.08029 -0.0248,-0.02493 -0.0499,-0.04962 -0.075,-0.07428 -0.0269,-0.02703 -0.054,-0.05383 -0.0812,-0.08055 -0.0258,-0.02594 -0.0519,-0.05166 -0.078,-0.07732 -0.0268,-0.02688 -0.0538,-0.05352 -0.0808,-0.0801 -0.025,-0.02514 -0.0503,-0.05006 -0.0756,-0.07493 -0.0269,-0.02699 -0.054,-0.05373 -0.0811,-0.08042 -0.0264,-0.02649 -0.053,-0.05274 -0.0797,-0.07894 -0.0263,-0.02644 -0.0528,-0.05267 -0.0795,-0.07881 -0.0262,-0.02629 -0.0526,-0.05235 -0.0791,-0.07835 -0.026,-0.0261 -0.0522,-0.05196 -0.0785,-0.07777 -0.027,-0.02709 -0.0541,-0.05397 -0.0814,-0.08075 -0.0262,-0.02631 -0.0526,-0.0524 -0.0791,-0.07842 -0.0263,-0.02643 -0.0529,-0.05261 -0.0795,-0.07874 -0.0267,-0.02684 -0.0537,-0.05343 -0.0807,-0.07997 -0.0266,-0.02676 -0.0535,-0.05332 -0.0804,-0.07978 -0.0264,-0.02655 -0.0531,-0.05281 -0.0798,-0.07906 -0.0265,-0.0266 -0.0532,-0.05296 -0.08,-0.07926 -0.0263,-0.02647 -0.0529,-0.0527 -0.0796,-0.07887 -0.0269,-0.027 -0.054,-0.05379 -0.0811,-0.08049 -0.0274,-0.02752 -0.055,-0.05477 -0.0827,-0.08197 -0.0254,-0.02547 -0.0509,-0.05077 -0.0765,-0.07597 -0.028,-0.02816 -0.0563,-0.05608 -0.0846,-0.08391 -0.026,-0.02608 -0.0522,-0.05192 -0.0784,-0.07771 -0.0276,-0.02772 -0.0554,-0.05516 -0.0833,-0.08255 -0.0263,-0.02643 -0.0528,-0.05261 -0.0794,-0.07874 -0.0267,-0.02678 -0.0535,-0.0533 -0.0805,-0.07977 -0.0271,-0.02724 -0.0544,-0.05427 -0.0819,-0.0812 -0.0271,-0.0272 -0.0544,-0.05418 -0.0818,-0.08107 -0.027,-0.0271 -0.0542,-0.05396 -0.0815,-0.08075 -0.0274,-0.02752 -0.055,-0.05477 -0.0827,-0.08197 -0.0264,-0.02648 -0.0529,-0.05275 -0.0796,-0.07894 -0.0271,-0.02719 -0.0543,-0.05412 -0.0817,-0.081 -0.0277,-0.02784 -0.0556,-0.05543 -0.0836,-0.08294 -0.0266,-0.02672 -0.0534,-0.05323 -0.0803,-0.07965 -0.0282,-0.02832 -0.0566,-0.05638 -0.0851,-0.08436 -0.0262,-0.02634 -0.0527,-0.05244 -0.0792,-0.07848 -0.0277,-0.02784 -0.0556,-0.05543 -0.0837,-0.08294 -0.0272,-0.02738 -0.0547,-0.05452 -0.0823,-0.08158 -0.0276,-0.0278 -0.0556,-0.05534 -0.0836,-0.08281 -0.0269,-0.02703 -0.054,-0.05382 -0.0813,-0.08055 -0.0274,-0.02752 -0.055,-0.05477 -0.0828,-0.08197 -0.0279,-0.028 -0.0559,-0.05579 -0.0841,-0.08346 -0.027,-0.02715 -0.0543,-0.05403 -0.0816,-0.08087 -0.0275,-0.02762 -0.0552,-0.05499 -0.083,-0.0823 -0.0272,-0.0273 -0.0546,-0.05434 -0.082,-0.08133 -0.028,-0.02811 -0.0561,-0.056 -0.0844,-0.08378 -0.0278,-0.02796 -0.0559,-0.05564 -0.084,-0.08326 -0.0277,-0.02787 -0.0557,-0.05546 -0.0838,-0.08301 -0.0269,-0.02702 -0.054,-0.05384 -0.0812,-0.08055 -0.0281,-0.02828 -0.0565,-0.05629 -0.085,-0.08423 -0.0277,-0.02783 -0.0556,-0.05544 -0.0836,-0.08294 -0.028,-0.02811 -0.0562,-0.05594 -0.0845,-0.08372 -0.0275,-0.0276 -0.0552,-0.05495 -0.0829,-0.08223 -0.0279,-0.02806 -0.0561,-0.05586 -0.0843,-0.08359 -0.0277,-0.0279 -0.0558,-0.05556 -0.0838,-0.08313 -0.0287,-0.02885 -0.0576,-0.05742 -0.0867,-0.08591 -0.0271,-0.02726 -0.0545,-0.05425 -0.082,-0.0812 -0.0279,-0.02806 -0.0561,-0.05585 -0.0844,-0.08359 -0.0279,-0.0281 -0.0562,-0.05595 -0.0844,-0.08372 -0.0285,-0.02864 -0.0572,-0.05704 -0.086,-0.08533 -0.0278,-0.02797 -0.0559,-0.05568 -0.0841,-0.08333 -0.028,-0.0281 -0.0561,-0.05595 -0.0844,-0.08372 -0.028,-0.02816 -0.0563,-0.05608 -0.0846,-0.08391 -0.0286,-0.02877 -0.0575,-0.0573 -0.0864,-0.08572 -0.0282,-0.02832 -0.0566,-0.05638 -0.0851,-0.08436 -0.0274,-0.02756 -0.0551,-0.05486 -0.0828,-0.0821 -0.0289,-0.02908 -0.0581,-0.0579 -0.0873,-0.08662 -0.0283,-0.02843 -0.0568,-0.05659 -0.0855,-0.08469 -0.0281,-0.02828 -0.0565,-0.05629 -0.085,-0.08423 -0.0285,-0.02868 -0.0573,-0.05712 -0.0862,-0.08546 -0.0281,-0.02822 -0.0564,-0.05615 -0.0848,-0.08404 -0.0291,-0.02923 -0.0584,-0.0582 -0.0878,-0.08707 -0.0283,-0.02841 -0.0568,-0.05655 -0.0854,-0.08462 -0.0281,-0.02828 -0.0565,-0.05629 -0.085,-0.08423 -0.0285,-0.02868 -0.0573,-0.05712 -0.0862,-0.08546 -0.0284,-0.02858 -0.0571,-0.0569 -0.0858,-0.08514 -0.0289,-0.02907 -0.0581,-0.05791 -0.0873,-0.08662 -0.0284,-0.02856 -0.057,-0.05686 -0.0858,-0.08507 -0.0289,-0.02903 -0.0581,-0.05776 -0.0873,-0.08643 -0.0288,-0.02893 -0.0578,-0.05759 -0.0869,-0.08617 -0.0286,-0.02878 -0.0575,-0.05729 -0.0865,-0.08572 -0.0285,-0.02869 -0.0573,-0.05712 -0.0862,-0.08546 -0.029,-0.02913 -0.0582,-0.05798 -0.0875,-0.08675 -0.0294,-0.02956 -0.059,-0.05885 -0.0888,-0.08804 -0.0281,-0.02823 -0.0564,-0.0562 -0.0849,-0.0841 -0.0289,-0.02905 -0.058,-0.05786 -0.0873,-0.08656 -0.0292,-0.02939 -0.0587,-0.0585 -0.0883,-0.08753 -0.0291,-0.02923 -0.0584,-0.0582 -0.0879,-0.08707 -0.0289,-0.02901 -0.058,-0.05777 -0.0872,-0.08643 -0.0287,-0.02886 -0.0576,-0.05747 -0.0867,-0.08598 -0.0292,-0.0294 -0.0587,-0.05856 -0.0883,-0.08759 -0.0292,-0.02938 -0.0587,-0.05845 -0.0883,-0.08746 -0.0293,-0.02942 -0.0587,-0.0586 -0.0884,-0.08766 -0.0287,-0.02886 -0.0577,-0.05741 -0.0868,-0.08591 -0.0298,-0.02998 -0.0598,-0.05973 -0.09,-0.08934 -0.029,-0.0292 -0.0584,-0.0581 -0.0878,-0.08695 -0.0288,-0.02895 -0.0579,-0.05764 -0.087,-0.08624 -0.0297,-0.02992 -0.0597,-0.0596 -0.0898,-0.08914 -0.0292,-0.02935 -0.0586,-0.05841 -0.0882,-0.0874 -0.0294,-0.02955 -0.059,-0.05886 -0.0888,-0.08804 -0.0295,-0.02964 -0.0592,-0.05897 -0.0891,-0.08824 -0.0289,-0.0291 -0.0581,-0.05795 -0.0874,-0.08669 -0.0301,-0.03029 -0.0605,-0.06027 -0.091,-0.09018 -0.0293,-0.02947 -0.0589,-0.05868 -0.0886,-0.08779 -0.0294,-0.02956 -0.0591,-0.05885 -0.0888,-0.08804 -0.0297,-0.02985 -0.0596,-0.05947 -0.0897,-0.08895 -0.0295,-0.02962 -0.0592,-0.05893 -0.089,-0.08817 -0.0297,-0.02982 -0.0596,-0.05937 -0.0896,-0.08882 -0.0297,-0.02982 -0.0596,-0.05937 -0.0896,-0.08882 -0.0294,-0.02961 -0.0591,-0.05893 -0.0889,-0.08817 -0.0307,-0.03086 -0.0616,-0.06146 -0.0927,-0.09192 -0.0286,-0.02873 -0.0574,-0.0572 -0.0864,-0.08559 -0.0303,-0.03052 -0.0609,-0.06076 -0.0917,-0.09089 -0.0301,-0.03031 -0.0605,-0.06032 -0.0911,-0.09024 -0.0293,-0.02947 -0.0589,-0.05867 -0.0886,-0.08778 -0.0297,-0.02985 -0.0596,-0.05941 -0.0897,-0.08888 -0.031,-0.03124 -0.0623,-0.06219 -0.0938,-0.09302 -0.0292,-0.02934 -0.0586,-0.05842 -0.0882,-0.0874 -0.0296,-0.0298 -0.0595,-0.05932 -0.0895,-0.08875 -0.0304,-0.03062 -0.0612,-0.06092 -0.092,-0.09114 -0.0298,-0.02999 -0.0599,-0.05973 -0.09,-0.08934 -0.0304,-0.03061 -0.0612,-0.06092 -0.092,-0.09114 -0.0295,-0.02963 -0.0592,-0.05898 -0.089,-0.08824 -0.0309,-0.03111 -0.0621,-0.06193 -0.0934,-0.09263 -0.0299,-0.03006 -0.06,-0.05985 -0.0903,-0.08953 -0.0307,-0.03086 -0.0616,-0.0614 -0.0927,-0.09185 -0.0298,-0.02997 -0.0599,-0.05967 -0.09,-0.08927 -0.0309,-0.03107 -0.062,-0.06184 -0.0933,-0.0925 -0.0299,-0.03003 -0.06,-0.05981 -0.0902,-0.08947 -0.0302,-0.03039 -0.0607,-0.06049 -0.0913,-0.0905 -0.0308,-0.03102 -0.0619,-0.06176 -0.0931,-0.09237 -0.0301,-0.0303 -0.0605,-0.06033 -0.091,-0.09024 -0.0304,-0.03058 -0.0611,-0.06089 -0.0918,-0.09108 -0.0308,-0.03102 -0.062,-0.06175 -0.0932,-0.09237 -0.0303,-0.0305 -0.061,-0.06071 -0.0917,-0.09082 -0.0307,-0.03084 -0.0616,-0.06141 -0.0926,-0.09185 -0.03,-0.03022 -0.0603,-0.06015 -0.0908,-0.08998 -0.0315,-0.03167 -0.0632,-0.06306 -0.0951,-0.09431 -0.0297,-0.02988 -0.0597,-0.05945 -0.0898,-0.08895 -0.031,-0.03119 -0.0622,-0.06211 -0.0936,-0.09289 -0.0315,-0.03167 -0.0633,-0.063 -0.0951,-0.09425 -0.0302,-0.03033 -0.0606,-0.06036 -0.0911,-0.0903 -0.0311,-0.03128 -0.0624,-0.06228 -0.0939,-0.09315 -0.0307,-0.03091 -0.0618,-0.06154 -0.0929,-0.09205 -0.0306,-0.03083 -0.0616,-0.06136 -0.0926,-0.09179 -0.0307,-0.03093 -0.0617,-0.06158 -0.0929,-0.09211 -0.0315,-0.03171 -0.0633,-0.06315 -0.0952,-0.09444 -0.0305,-0.03069 -0.0613,-0.06111 -0.0922,-0.0914 -0.0313,-0.0315 -0.0629,-0.06265 -0.0946,-0.09373 -0.0309,-0.0311 -0.0621,-0.06193 -0.0934,-0.09263 -0.0309,-0.03104 -0.062,-0.0618 -0.0932,-0.09244 -0.0309,-0.03114 -0.0622,-0.06196 -0.0935,-0.09269 -0.0314,-0.03163 -0.0631,-0.06297 -0.095,-0.09418 -0.0314,-0.0316 -0.0631,-0.06287 -0.095,-0.09405 -0.0309,-0.03114 -0.0622,-0.06197 -0.0935,-0.0927 -0.0312,-0.03145 -0.0628,-0.06263 -0.0944,-0.09366 -0.0312,-0.03136 -0.0626,-0.0624 -0.0942,-0.09334 -0.0315,-0.03169 -0.0632,-0.06311 -0.0951,-0.09437 -0.031,-0.03118 -0.0623,-0.06206 -0.0937,-0.09282 -0.032,-0.0322 -0.0643,-0.06409 -0.0967,-0.09586 -0.0306,-0.03083 -0.0616,-0.06136 -0.0926,-0.09179 -0.0317,-0.03197 -0.0638,-0.06361 -0.096,-0.09515 -0.0316,-0.03176 -0.0634,-0.06323 -0.0954,-0.09457 -0.032,-0.0322 -0.0643,-0.0641 -0.0967,-0.09586 -0.0303,-0.03045 -0.0608,-0.06063 -0.0915,-0.09069 -0.0324,-0.03267 -0.0652,-0.06506 -0.0981,-0.09728 -0.0318,-0.03199 -0.0639,-0.06365 -0.0961,-0.09521 -0.031,-0.03116 -0.0622,-0.06201 -0.0936,-0.09276 -0.032,-0.03221 -0.0643,-0.06415 -0.0967,-0.09592 -0.0316,-0.03184 -0.0636,-0.06335 -0.0957,-0.09476 -0.0314,-0.03163 -0.0631,-0.06298 -0.095,-0.09418 -0.0321,-0.03227 -0.0644,-0.06422 -0.0969,-0.09605 -0.0318,-0.03201 -0.0639,-0.0637 -0.0961,-0.09528 -0.0318,-0.03202 -0.0639,-0.06375 -0.0962,-0.09534 -0.0318,-0.03205 -0.064,-0.06385 -0.0962,-0.09547 -0.0317,-0.03195 -0.0638,-0.06357 -0.096,-0.09509 -0.0324,-0.03263 -0.0651,-0.06491 -0.098,-0.09709 -0.0313,-0.03151 -0.0629,-0.06271 -0.0946,-0.09379 -0.0323,-0.03252 -0.0649,-0.06475 -0.0976,-0.09683 -0.0321,-0.03233 -0.0645,-0.06435 -0.0971,-0.09625 -0.0318,-0.03201 -0.0639,-0.0637 -0.0961,-0.09528 -0.0326,-0.0328 -0.0655,-0.06526 -0.0985,-0.0976 -0.0318,-0.03203 -0.0639,-0.06375 -0.0962,-0.09534 -0.0323,-0.03248 -0.0648,-0.06466 -0.0975,-0.0967 -0.0317,-0.03194 -0.0638,-0.06357 -0.0959,-0.09508 -0.033,-0.0332 -0.0662,-0.0661 -0.0997,-0.09883 -0.0318,-0.032 -0.0639,-0.0637 -0.0961,-0.09528 -0.0324,-0.03266 -0.0652,-0.06501 -0.0981,-0.09722 -0.0328,-0.033 -0.0658,-0.06571 -0.0991,-0.09825 -0.0314,-0.03155 -0.063,-0.06279 -0.0948,-0.09392 -0.0329,-0.03316 -0.0661,-0.066 -0.0995,-0.0987 -0.0323,-0.03251 -0.0649,-0.0647 -0.0976,-0.09676 -0.0328,-0.033 -0.0659,-0.0657 -0.0992,-0.0983 -0.0322,-0.0324 -0.0647,-0.0645 -0.0973,-0.0964 -0.0326,-0.0329 -0.0656,-0.0654 -0.0986,-0.0978 -0.0329,-0.0331 -0.0661,-0.0659 -0.0995,-0.0986 -0.0322,-0.0323 -0.0646,-0.0644 -0.0972,-0.0963 -0.0327,-0.033 -0.0658,-0.0656 -0.099,-0.0981 -0.0325,-0.0327 -0.0653,-0.0651 -0.0982,-0.0974 -0.0327,-0.0329 -0.0657,-0.0655 -0.0988,-0.0979 -0.0332,-0.0334 -0.0666,-0.0665 -0.10025,-0.0994 -0.0325,-0.0327 -0.0652,-0.0651 -0.0981,-0.0973 -0.0326,-0.0329 -0.0656,-0.0654 -0.0987,-0.0978 -0.033,-0.0332 -0.0662,-0.0661 -0.0997,-0.0988 -0.0332,-0.0334 -0.0666,-0.0664 -0.10019,-0.0993 -0.0324,-0.0327 -0.0652,-0.065 -0.0981,-0.0972 -0.0334,-0.0336 -0.067,-0.0669 -0.10084,-0.1 -0.0325,-0.0327 -0.0653,-0.0652 -0.0983,-0.0975 -0.0333,-0.0336 -0.067,-0.0668 -0.10077,-0.0999 -0.0332,-0.0334 -0.0667,-0.0665 -0.10032,-0.0994 -0.0327,-0.0329 -0.0657,-0.0656 -0.0989,-0.0981 -0.0331,-0.0333 -0.0665,-0.0663 -0.10006,-0.0991 -0.0336,-0.0338 -0.0674,-0.0673 -0.10148,-0.10064 -0.0327,-0.0329 -0.0657,-0.0655 -0.0989,-0.098 -0.0336,-0.0339 -0.0676,-0.0674 -0.10167,-0.10083 -0.0331,-0.0333 -0.0665,-0.0663 -0.10012,-0.0992 -0.0328,-0.033 -0.0659,-0.0658 -0.0992,-0.0983 -0.0334,-0.0337 -0.0671,-0.067 -0.10102,-0.10013 -0.0332,-0.0334 -0.0666,-0.0665 -0.10026,-0.0994 -0.0337,-0.0339 -0.0676,-0.0675 -0.1018,-0.10096 -0.0331,-0.0333 -0.0665,-0.0663 -0.1,-0.0991 -0.0339,-0.0341 -0.068,-0.0679 -0.10239,-0.10155 -0.033,-0.0332 -0.0663,-0.0661 -0.0998,-0.0989 -0.0343,-0.0345 -0.0688,-0.0688 -0.10361,-0.10277 -0.0329,-0.0331 -0.0661,-0.0659 -0.0995,-0.0985 -1.8073,-1.82053 -4.31675,-2.94904 -7.09137,-2.94905 z" />
      <path
         id="path836"
         d="m -146.05001,-106.22549 c -5.50578,2e-5 -9.96909,4.44219 -9.96909,9.92188 v 3.222219 h -3.9984 c -0.81708,0 -1.47485,0.657765 -1.47485,1.474846 v 16.138099 c 0,0.817081 0.65777,1.474845 1.47485,1.474845 h 27.93499 c 0.81708,0 1.47484,-0.657764 1.47484,-1.474845 v -16.138099 c 0,-0.817081 -0.65776,-1.474846 -1.47484,-1.474846 h -3.9984 v -3.222219 c 0,-5.47969 -4.46331,-9.92186 -9.9691,-9.92188 z m -0.0182,3.10757 c 0.006,-1e-5 0.0121,-1e-5 0.0182,0 3.78136,1e-5 6.84674,3.05088 6.84674,6.81431 v 3.222219 h -13.69348 v -3.222219 c -1e-5,-3.75639 3.05433,-6.80434 6.82859,-6.81431 z m 0.0182,14.134407 c 1.23644,-9e-6 2.23876,1.00232 2.23876,2.238751 -1e-5,0.980955 -0.63863,1.847651 -1.57555,2.138243 l 0.9095,6.792479 c 0.004,0.02856 0.0109,0.05349 0.0202,0.07351 -0.006,0.05176 -0.0293,0.09005 -0.0572,0.09005 h -3.07133 c -0.0278,0 -0.051,-0.03828 -0.0572,-0.09005 0.009,-0.02003 0.0163,-0.04494 0.0202,-0.07351 l 0.9095,-6.792479 c -0.93692,-0.290592 -1.57554,-1.157288 -1.57555,-2.138243 -1e-5,-1.236431 1.00232,-2.23876 2.23875,-2.238751 z"
         style="color:#000000;font-style:normal;font-variant:normal;font-weight:normal;font-stretch:normal;font-size:medium;line-height:normal;font-family:sans-serif;font-variant-ligatures:normal;font-variant-position:normal;font-variant-caps:normal;font-variant-numeric:normal;font-variant-alternates:normal;font-variant-east-asian:normal;font-feature-settings:normal;font-variation-settings:normal;text-indent:0;text-align:start;text-decoration:none;text-decoration-line:none;text-decoration-style:solid;text-decoration-color:#000000;letter-spacing:normal;word-spacing:normal;text-transform:none;writing-mode:lr-tb;direction:ltr;text-orientation:mixed;dominant-baseline:auto;baseline-shift:baseline;text-anchor:start;white-space:normal;shape-padding:0;shape-margin:0;inline-size:0;clip-rule:nonzero;display:inline;overflow:visible;visibility:visible;isolation:auto;mix-blend-mode:normal;color-interpolation:sRGB;color-interpolation-filters:linearRGB;solid-color:#000000;solid-opacity:1;vector-effect:none;fill:#e3f2fd;fill-opacity:1;fill-rule:nonzero;stroke:none;stroke-width:0.0198438;stroke-linecap:butt;stroke-linejoin:miter;stroke-miterlimit:4;stroke-dasharray:none;stroke-dashoffset:0;stroke-opacity:1;color-rendering:auto;image-rendering:auto;shape-rendering:auto;text-rendering:auto;enable-background:accumulate;stop-color:#000000" />
    </g>
  </g>
</svg>
