<?xml version="1.0" encoding="UTF-8" standalone="no"?>
<svg
   xmlns:dc="http://purl.org/dc/elements/1.1/"
   xmlns:cc="http://creativecommons.org/ns#"
   xmlns:rdf="http://www.w3.org/1999/02/22-rdf-syntax-ns#"
   xmlns:svg="http://www.w3.org/2000/svg"
   xmlns="http://www.w3.org/2000/svg"
   xmlns:sodipodi="http://sodipodi.sourceforge.net/DTD/sodipodi-0.dtd"
   xmlns:inkscape="http://www.inkscape.org/namespaces/inkscape"
   width="67.73333mm"
   height="67.733337mm"
   viewBox="0 0 67.73333 67.733338"
   version="1.1"
   id="svg8"
   inkscape:version="1.0 (4035a4fb49, 2020-05-01)"
   sodipodi:docname="mobileappdev_scalable.svg"
   inkscape:export-filename="C:\Users\linos\Desktop\Icone gruppi telegram\mobileappdev.png"
   inkscape:export-xdpi="95.999992"
   inkscape:export-ydpi="95.999992">
  <defs
     id="defs2" />
  <sodipodi:namedview
     id="base"
     pagecolor="#ffffff"
     bordercolor="#666666"
     borderopacity="1.0"
     inkscape:pageopacity="0.0"
     inkscape:pageshadow="2"
     inkscape:zoom="0.35"
     inkscape:cx="636.8146"
     inkscape:cy="1114.2857"
     inkscape:document-units="mm"
     inkscape:current-layer="layer1"
     inkscape:document-rotation="0"
     showgrid="false"
     inkscape:window-width="1920"
     inkscape:window-height="1013"
     inkscape:window-x="-9"
     inkscape:window-y="-9"
     inkscape:window-maximized="1"
     showguides="true" />
  <metadata
     id="metadata5">
    <rdf:RDF>
      <cc:Work
         rdf:about="">
        <dc:format>image/svg+xml</dc:format>
        <dc:type
           rdf:resource="http://purl.org/dc/dcmitype/StillImage" />
        <dc:title />
        <cc:license
           rdf:resource="http://creativecommons.org/licenses/by-sa/4.0/" />
      </cc:Work>
      <cc:License
         rdf:about="http://creativecommons.org/licenses/by-sa/4.0/">
        <cc:permits
           rdf:resource="http://creativecommons.org/ns#Reproduction" />
        <cc:permits
           rdf:resource="http://creativecommons.org/ns#Distribution" />
        <cc:requires
           rdf:resource="http://creativecommons.org/ns#Notice" />
        <cc:requires
           rdf:resource="http://creativecommons.org/ns#Attribution" />
        <cc:permits
           rdf:resource="http://creativecommons.org/ns#DerivativeWorks" />
        <cc:requires
           rdf:resource="http://creativecommons.org/ns#ShareAlike" />
      </cc:License>
    </rdf:RDF>
  </metadata>
  <g
     inkscape:label="Livello 1"
     inkscape:groupmode="layer"
     id="layer1"
     transform="translate(88.446427,73.327378)">
    <g
       transform="matrix(0.12499997,0,0,0.12500001,-77.390626,-64.161455)"
       id="g11872">
      <rect
         ry="1.6917044"
         rx="0.90570772"
         y="-73.327377"
         x="-88.446426"
         height="541.86664"
         width="541.86664"
         id="rect10"
         style="fill:#455a64;fill-opacity:1;stroke-width:3.44669" />
      <path
         transform="scale(0.26458333)"
         d="m 389.6543,127.82422 c -25.86721,0.001 -48.57653,13.79968 -61.13282,34.43359 v 0.002 c -1.19549,1.96468 -2.29932,3.99163 -3.30468,6.07421 v 0.002 c -1.0053,2.08259 -1.91372,4.21974 -2.7168,6.4082 v 0.002 c -1.60626,4.37752 -2.79679,8.95467 -3.52148,13.6836 v 0.002 c -0.18107,1.18176 -0.33284,2.37427 -0.45508,3.57422 v 0.002 c -0.24449,2.40057 -0.3711,4.83644 -0.3711,7.30078 v 0.002 1095.09768 0 c 7.7e-4,16.0165 5.29902,30.8167 14.23243,42.7461 0.003,0 0.007,0.01 0.01,0.012 0.003,0 0.007,0.01 0.01,0.012 0.002,0 0.004,0.01 0.006,0.01 0.0308,0.041 0.0648,0.08 0.0957,0.121 0.0905,0.1202 0.18612,0.2359 0.27734,0.3555 0.56349,0.7386 1.13149,1.4738 1.72266,2.1895 0.007,0.01 0.0164,0.019 0.0234,0.027 0.004,0 0.008,0.011 0.0117,0.016 0.0265,0.032 0.0555,0.062 0.082,0.094 0.0817,0.099 0.17167,0.1907 0.2539,0.289 0.0141,0.017 0.0288,0.034 0.043,0.051 10e-4,0 0.002,0 0.004,0.01 0.0462,0.056 0.0962,0.1083 0.14258,0.1641 0.0909,0.1093 0.18778,0.2134 0.27929,0.3222 0.0168,0.02 0.034,0.039 0.0508,0.059 0.0288,0.034 0.059,0.066 0.0879,0.1 0.008,0.01 0.0158,0.018 0.0234,0.027 0.41483,0.4813 0.82077,0.9713 1.24805,1.4414 6.2e-4,7e-4 0.003,0 0.004,0 6.1e-4,7e-4 0.003,0 0.004,0 h 0.002 v 0 c 9.5e-4,10e-4 0.001,0 0.002,0 0.003,0 0.007,0.01 0.01,0.01 h 0.002 c 0.004,0 0.008,0.01 0.0117,0.014 10e-4,0 0.003,0 0.004,0 h 0.002 c 0.006,0.01 0.0136,0.015 0.0195,0.022 10e-4,0 0.003,0 0.004,0 9.4e-4,0 0.001,0 0.002,0 h 0.002 0.002 c 0.007,0.01 0.014,0.017 0.0215,0.025 0.0105,0.012 0.0207,0.024 0.0312,0.035 0.006,0.01 0.0117,0.013 0.0176,0.02 0.009,0.01 0.0168,0.02 0.0254,0.029 0.0739,0.082 0.1445,0.1704 0.21874,0.252 0.005,0.01 0.009,0.011 0.0137,0.016 0.005,0.01 0.009,0.01 0.0137,0.016 6.1e-4,7e-4 0.003,0 0.004,0 v 0 c 0.006,0.01 0.0137,0.015 0.0195,0.022 6.1e-4,7e-4 0.003,0 0.004,0 0.001,0 0.003,0 0.004,0 v 0 c 0.008,0.01 0.019,0.02 0.0273,0.029 0.0174,0.019 0.0334,0.04 0.0508,0.059 0.0126,0.014 0.0245,0.029 0.0371,0.043 0.005,0.01 0.009,0.011 0.0137,0.016 v 0 c 0.002,0 0.004,0 0.006,0.01 h 0.002 c 0.0104,0.012 0.0208,0.023 0.0312,0.035 0.001,0 0.003,0 0.004,0 0.006,0.01 0.0101,0.013 0.0156,0.02 0.002,0 0.004,0.01 0.006,0.01 0.001,0 0.003,0 0.004,0 0.002,0 0.004,0.01 0.006,0.01 0.018,0.02 0.0367,0.043 0.0547,0.062 0.0239,0.026 0.0464,0.054 0.0703,0.08 0.0208,0.023 0.0398,0.047 0.0606,0.07 0.002,0 0.002,0 0.004,0.01 0.0269,0.03 0.055,0.062 0.082,0.092 0.005,0.01 0.009,0.01 0.0137,0.016 0.007,0.01 0.0128,0.016 0.0195,0.023 0.009,0.01 0.0167,0.02 0.0254,0.029 0.0273,0.03 0.0547,0.064 0.082,0.094 0.0213,0.024 0.0412,0.049 0.0625,0.072 0.004,0 0.008,0.01 0.0117,0.014 0.0329,0.036 0.0628,0.075 0.0957,0.1113 0.0245,0.027 0.0478,0.055 0.0723,0.082 0.0246,0.027 0.0476,0.056 0.0723,0.084 0.005,0.01 0.0103,0.012 0.0156,0.018 0.0418,0.046 0.0831,0.096 0.125,0.1426 0.0135,0.015 0.0256,0.032 0.0391,0.047 0.0806,0.089 0.15722,0.1824 0.23829,0.2715 0.0281,0.031 0.0539,0.064 0.082,0.096 0.002,0 0.004,0 0.006,0.01 0.0341,0.038 0.0654,0.078 0.0996,0.1153 0.0193,0.022 0.0373,0.045 0.0566,0.066 0.0174,0.019 0.0334,0.04 0.0508,0.059 0.0446,0.049 0.0861,0.1012 0.13086,0.1504 0.0337,0.037 0.0658,0.076 0.0996,0.1132 0.0387,0.043 0.0745,0.088 0.11328,0.1309 0.0446,0.049 0.0881,0.1032 0.13281,0.1523 0.011,0.012 0.0222,0.025 0.0332,0.037 0.0319,0.035 0.0618,0.072 0.0937,0.1075 0.0375,0.041 0.0718,0.086 0.10938,0.1269 0.0434,0.048 0.0835,0.099 0.12695,0.1465 0.002,0 0.004,0 0.006,0.01 0.0486,0.054 0.0938,0.1105 0.14258,0.164 0.14178,0.1586 0.2748,0.3252 0.41797,0.4825 0.0443,0.049 0.0865,0.1 0.13086,0.1484 0.0467,0.052 0.0898,0.1066 0.13671,0.1582 0.0135,0.015 0.0255,0.032 0.0391,0.047 0.0371,0.041 0.0721,0.084 0.10937,0.125 0.0532,0.059 0.10286,0.121 0.15625,0.1797 0.0532,0.059 0.10284,0.1209 0.15625,0.1796 0.0557,0.062 0.10816,0.1261 0.16406,0.1875 0.0508,0.056 0.0975,0.1159 0.14844,0.1719 0.0216,0.024 0.0409,0.05 0.0625,0.074 0.0337,0.037 0.0677,0.078 0.10156,0.1153 0.0597,0.066 0.11584,0.1353 0.17579,0.2011 0.11589,0.1293 0.22692,0.2662 0.34375,0.3946 0.0112,0.013 0.0219,0.026 0.0332,0.039 0.027,0.03 0.053,0.062 0.0801,0.092 0.0168,0.018 0.0321,0.038 0.0488,0.057 0.0606,0.067 0.11883,0.1401 0.17968,0.207 0.0631,0.07 0.1222,0.1433 0.18555,0.2129 0.06,0.066 0.11554,0.1369 0.17578,0.2031 0.0692,0.077 0.13356,0.158 0.20313,0.2344 0.0633,0.07 0.12582,0.1449 0.18945,0.2148 h 0.002 v 0 h 0.002 c 0.004,0 0.0113,0.011 0.0156,0.016 10e-4,0 0.003,0 0.004,0 9.1e-4,0 0.001,0 0.002,0 0.0365,0.04 0.0708,0.083 0.10742,0.1231 0.002,0 0.004,0.01 0.006,0.01 0.0124,0.014 0.0247,0.029 0.0371,0.043 0.005,0.01 0.009,0.01 0.0137,0.016 h 0.002 c 0.008,0.01 0.0151,0.02 0.0234,0.029 0.0557,0.062 0.11012,0.1281 0.16602,0.1895 0.0341,0.039 0.0673,0.078 0.10156,0.1172 0.0294,0.033 0.0564,0.067 0.0859,0.1 0.0698,0.077 0.1349,0.1592 0.20508,0.2363 0.044,0.049 0.0867,0.099 0.13086,0.1485 0.0159,0.018 0.031,0.037 0.0469,0.055 0.008,0.01 0.0154,0.019 0.0234,0.027 0.023,0.026 0.0453,0.052 0.0684,0.078 0.006,0.01 0.0114,0.015 0.0176,0.022 0.0446,0.049 0.0861,0.1012 0.13086,0.1504 0.0717,0.08 0.13891,0.163 0.21093,0.2422 0.0177,0.02 0.035,0.041 0.0527,0.061 0.0507,0.056 0.0995,0.1179 0.15039,0.1738 0.15397,0.1725 0.30141,0.3545 0.45703,0.5254 0.0664,0.074 0.12858,0.1513 0.19531,0.2246 0.0813,0.09 0.15656,0.1856 0.23828,0.2754 0.0723,0.08 0.14026,0.1643 0.21289,0.2442 0.0849,0.094 0.16656,0.1952 0.25196,0.289 0.0716,0.08 0.13894,0.1631 0.21093,0.2422 0.002,0 0.002,0 0.004,0.01 0.0785,0.087 0.15159,0.1789 0.23047,0.2656 0.0871,0.097 0.16823,0.1987 0.25586,0.2949 0.0837,0.093 0.1639,0.1889 0.24805,0.2813 0.0699,0.079 0.13675,0.1612 0.20703,0.2402 0.005,0.01 0.009,0.011 0.0137,0.016 0.0311,0.035 0.0606,0.072 0.0918,0.1075 0.0569,0.063 0.11084,0.1286 0.16796,0.1914 0.0812,0.09 0.15661,0.1856 0.23829,0.2754 0.0929,0.1032 0.17994,0.2117 0.27343,0.3144 0.0797,0.089 0.15426,0.1815 0.23438,0.2695 0.18116,0.2037 0.35365,0.4157 0.53711,0.6172 0.0904,0.1005 0.17464,0.2067 0.26562,0.3067 0.0861,0.096 0.1673,0.1958 0.25391,0.291 0.0905,0.1006 0.1746,0.2066 0.26562,0.3066 0.10302,0.1146 0.20094,0.2338 0.30469,0.3477 0.0807,0.092 0.15907,0.1859 0.24024,0.2773 0.002,0 0.004,0.01 0.006,0.01 0.0957,0.1065 0.18496,0.2184 0.28126,0.3243 0.10267,0.1142 0.19932,0.234 0.30273,0.3476 0.0889,0.099 0.17231,0.2025 0.26172,0.3008 0.10298,0.1146 0.19901,0.2357 0.30273,0.3496 0.0746,0.083 0.14569,0.1693 0.22071,0.252 0.009,0.01 0.0182,0.021 0.0273,0.031 0.01,0.011 0.0177,0.023 0.0273,0.033 0.10147,0.113 0.19665,0.2315 0.29883,0.3438 0.10203,0.1135 0.19804,0.2327 0.30078,0.3457 0.10856,0.1208 0.21289,0.249 0.32227,0.3691 0.0916,0.1019 0.17732,0.2092 0.26953,0.3106 0.0413,0.047 0.0816,0.095 0.12305,0.1425 0.0285,0.032 0.0554,0.066 0.084,0.098 0.0353,0.039 0.0681,0.08 0.10352,0.1191 0.10481,0.1168 0.20302,0.2395 0.30859,0.3555 0.11253,0.1253 0.21863,0.2563 0.33203,0.3809 0.078,0.087 0.15202,0.1772 0.23047,0.2636 0.005,0.01 0.009,0.01 0.0137,0.016 0.0143,0.016 0.0267,0.033 0.041,0.049 0.1146,0.1277 0.22237,0.2618 0.33789,0.3887 0.10383,0.1156 0.20206,0.2366 0.30664,0.3515 0.10695,0.1192 0.2067,0.2448 0.31445,0.3633 0.11558,0.1289 0.22334,0.2646 0.33985,0.3926 0.1122,0.125 0.21895,0.2547 0.33203,0.3789 0.0645,0.073 0.12657,0.148 0.1914,0.2207 0.0254,0.029 0.0508,0.059 0.0762,0.088 0.0161,0.018 0.0327,0.039 0.0488,0.057 0.11403,0.1272 0.22101,0.2604 0.33594,0.3867 0.11216,0.1251 0.21704,0.2566 0.33008,0.3809 0.12749,0.1422 0.24833,0.2904 0.37695,0.4316 0.11,0.1226 0.21338,0.2513 0.32422,0.3731 0.11119,0.124 0.21607,0.2537 0.32813,0.3769 0.0503,0.058 0.0999,0.1162 0.15039,0.1739 0.0692,0.077 0.13356,0.1579 0.20312,0.2343 0.24191,0.2742 0.47267,0.5578 0.71875,0.8282 0.11581,0.1292 0.22505,0.2642 0.3418,0.3925 0.12497,0.1396 0.24308,0.2854 0.36914,0.4239 0.12316,0.1375 0.23905,0.2814 0.36328,0.4179 0.12563,0.1403 0.24436,0.2866 0.37109,0.4258 0.0681,0.077 0.13273,0.1574 0.20118,0.2344 0.0516,0.057 0.10051,0.1169 0.15234,0.1738 0.12871,0.1438 0.24904,0.2948 0.37891,0.4375 0.13229,0.1478 0.261,0.3026 0.39453,0.4492 0.0156,0.018 0.0313,0.036 0.0469,0.055 0.008,0.01 0.0156,0.018 0.0234,0.027 0.0938,0.1043 0.18101,0.2146 0.27539,0.3183 0.13503,0.1509 0.26213,0.3093 0.39844,0.459 0.1237,0.1382 0.24046,0.2828 0.36523,0.4199 0.14028,0.1569 0.2724,0.321 0.41406,0.4766 0.12621,0.1409 0.24573,0.2878 0.37305,0.4277 0.1287,0.1439 0.24904,0.2948 0.37891,0.4375 0.14059,0.1573 0.27598,0.3226 0.41797,0.4786 0.046,0.052 0.0906,0.106 0.13672,0.1582 0.0837,0.093 0.16193,0.1907 0.24609,0.2832 0.14207,0.1588 0.27643,0.3248 0.41992,0.4824 0.0265,0.03 0.0516,0.06 0.0781,0.09 0.0984,0.1157 0.19964,0.2288 0.29882,0.3438 0.0493,0.056 0.097,0.1139 0.14649,0.1699 0.0889,0.099 0.1723,0.2025 0.26172,0.3008 0.13772,0.1541 0.26719,0.3158 0.40625,0.4687 0.14945,0.1673 0.29037,0.342 0.4414,0.5078 0.13535,0.1513 0.26376,0.3089 0.40039,0.459 h 0.002 c 0.13712,0.1534 0.26585,0.3146 0.40429,0.4668 0.14783,0.1655 0.28814,0.3379 0.4375,0.5019 0.0208,0.024 0.0417,0.048 0.0625,0.072 0.11677,0.1303 0.22603,0.2671 0.34375,0.3965 0.29144,0.3325 0.57156,0.675 0.86914,1.0019 0.14794,0.1656 0.28802,0.3378 0.4375,0.502 0.13962,0.1563 0.27112,0.3196 0.41211,0.4746 0.15915,0.1783 0.30977,0.3643 0.47071,0.541 0.14365,0.1608 0.27871,0.3289 0.42383,0.4883 0.15053,0.1686 0.29316,0.3446 0.44531,0.5117 0.14784,0.1656 0.28811,0.3378 0.4375,0.502 0.15397,0.1725 0.29942,0.3524 0.45508,0.5234 0.14903,0.167 0.28884,0.3422 0.43945,0.5078 0.16609,0.1863 0.32414,0.38 0.49219,0.5645 0.14996,0.1679 0.2918,0.3433 0.44336,0.5097 0.15181,0.1702 0.29577,0.347 0.44921,0.5157 0.02,0.023 0.0405,0.045 0.0605,0.068 0.0667,0.078 0.13409,0.1549 0.20117,0.2324 0.068,0.075 0.13285,0.1574 0.20118,0.2325 0.15539,0.1743 0.30186,0.3565 0.45898,0.5293 0.1655,0.1857 0.32279,0.3785 0.49023,0.5625 0.16184,0.1814 0.31483,0.371 0.47852,0.5507 0.15577,0.1747 0.30344,0.3563 0.46094,0.5293 0.15812,0.1775 0.30689,0.3633 0.46679,0.5391 0.0583,0.067 0.11533,0.1346 0.17383,0.2012 0.10414,0.116 0.20369,0.2401 0.3086,0.3554 0.17647,0.1982 0.34474,0.4035 0.52343,0.5996 0.15147,0.1699 0.29417,0.3474 0.44727,0.5157 0.17678,0.1985 0.34442,0.405 0.52344,0.6015 0.16027,0.1798 0.3125,0.3668 0.47461,0.545 0.16267,0.1826 0.3159,0.3737 0.48046,0.5546 0.18254,0.2052 0.3561,0.4182 0.54102,0.6211 0.1554,0.1744 0.30186,0.3566 0.45898,0.5293 0.17709,0.1991 0.34411,0.4067 0.52344,0.6035 0.1724,0.1937 0.3372,0.3943 0.51172,0.586 0.1728,0.1941 0.33678,0.3957 0.51172,0.5879 0.16546,0.1858 0.32086,0.3804 0.48828,0.5644 0.18098,0.2036 0.35183,0.4158 0.53516,0.6172 0.18096,0.2034 0.35379,0.414 0.53711,0.6153 0.16571,0.1861 0.32255,0.3801 0.49023,0.5644 0.18268,0.2055 0.35594,0.4198 0.54102,0.6231 0.17078,0.1919 0.33298,0.3919 0.50586,0.582 0.18998,0.2138 0.37186,0.435 0.56445,0.6465 0.17175,0.193 0.33394,0.3948 0.50781,0.5859 0.18702,0.2105 0.36515,0.4286 0.55469,0.6367 0.0699,0.081 0.13869,0.162 0.20898,0.2422 0.10605,0.1182 0.20565,0.242 0.3125,0.3594 0.18457,0.2077 0.35986,0.4234 0.54688,0.6289 0.19032,0.2142 0.37152,0.4366 0.56445,0.6484 0.17538,0.1973 0.34193,0.4025 0.51953,0.5977 0.18843,0.2122 0.36761,0.4327 0.5586,0.6426 0.18722,0.2108 0.36493,0.4301 0.55468,0.6386 0.18356,0.2067 0.35893,0.4245 0.54493,0.6289 0.19511,0.2199 0.38025,0.4487 0.57812,0.6661 0.18998,0.2139 0.37187,0.4349 0.56445,0.6464 0.18357,0.2068 0.35697,0.4225 0.54297,0.627 0.20181,0.2275 0.39486,0.4627 0.59961,0.6875 0.16859,0.1947 0.33513,0.3912 0.50586,0.584 0.0115,0.013 0.0217,0.026 0.0332,0.039 0.20208,0.2279 0.39457,0.4643 0.59961,0.6895 0.19415,0.2187 0.3793,0.4459 0.57618,0.6621 0.18709,0.2108 0.36505,0.4302 0.55468,0.6387 0.20258,0.2285 0.39601,0.4656 0.60157,0.6914 0.19813,0.2234 0.3869,0.455 0.58789,0.6758 0.19967,0.2251 0.38922,0.4591 0.59179,0.6816 0.19102,0.2153 0.37274,0.4394 0.56641,0.6524 0.20535,0.2316 0.40095,0.4721 0.60937,0.7011 0.20427,0.2305 0.39816,0.4696 0.60547,0.6973 0.19816,0.2235 0.38688,0.4549 0.58789,0.6758 0.21482,0.2424 0.42244,0.495 0.64063,0.7343 0.0208,0.024 0.0416,0.048 0.0625,0.072 0.16995,0.191 0.3299,0.391 0.50195,0.5801 0.20192,0.228 0.39667,0.4661 0.60156,0.6914 0.21991,0.2484 0.43086,0.5048 0.6543,0.75 0.19267,0.2173 0.37494,0.4434 0.57031,0.6582 0.0696,0.081 0.13906,0.1617 0.20899,0.2422 0.14109,0.158 0.27348,0.3238 0.41601,0.4805 0.21651,0.2446 0.4246,0.4968 0.64454,0.7382 0.20567,0.2322 0.40254,0.4719 0.61132,0.7012 0.21225,0.2398 0.41531,0.4879 0.63086,0.7246 0.2038,0.2302 0.39668,0.4699 0.60352,0.6973 0.21953,0.2482 0.42927,0.505 0.65234,0.75 0.2125,0.2401 0.417,0.4914 0.63281,0.7285 0.077,0.09 0.15494,0.1784 0.23243,0.2676 0.13264,0.1484 0.2567,0.3039 0.39062,0.4511 0.22558,0.2552 0.44255,0.5178 0.67188,0.7696 0.0921,0.1071 0.1846,0.2138 0.27734,0.3203 0.11644,0.1299 0.22437,0.2675 0.3418,0.3965 0.21975,0.2485 0.43098,0.5047 0.65429,0.75 0.2252,0.2547 0.44295,0.5202 0.67188,0.7715 0.0887,0.1032 0.17823,0.2058 0.26758,0.3086 0.11729,0.1309 0.22741,0.2684 0.3457,0.3984 0.22332,0.2528 0.43706,0.5142 0.66406,0.7637 0.22291,0.2522 0.43554,0.5128 0.66211,0.7617 0.22037,0.2493 0.43034,0.5078 0.6543,0.7539 0.23372,0.2646 0.45755,0.5379 0.69531,0.7988 0.21441,0.2425 0.41891,0.4931 0.63672,0.7324 0.23194,0.2627 0.45353,0.534 0.68945,0.793 0.22164,0.2508 0.43293,0.5104 0.65821,0.7578 0.22082,0.2501 0.43376,0.5111 0.6582,0.7578 0.23027,0.261 0.44938,0.5317 0.68359,0.7891 0.23656,0.2681 0.46437,0.5443 0.70508,0.8086 0.22487,0.2546 0.43934,0.5184 0.66797,0.7695 0.23277,0.2638 0.45852,0.5368 0.69531,0.7969 0.0597,0.07 0.11967,0.1394 0.17969,0.209 0.16687,0.1875 0.32522,0.3827 0.49414,0.5683 0.24516,0.278 0.48083,0.564 0.73047,0.8379 0.21849,0.2474 0.42639,0.504 0.64844,0.7481 0.24656,0.2797 0.48327,0.5681 0.73437,0.8437 0.22477,0.2547 0.43944,0.5183 0.66797,0.7696 0.23838,0.2705 0.46637,0.5497 0.70898,0.8164 0.23888,0.271 0.4678,0.5512 0.71094,0.8183 0.23989,0.2722 0.4687,0.554 0.71289,0.8223 0.24736,0.2807 0.48635,0.5692 0.73828,0.8457 0.23386,0.2651 0.45737,0.5394 0.69532,0.8008 0.23856,0.2707 0.4681,0.5496 0.71093,0.8164 0.24429,0.2773 0.47781,0.5646 0.72657,0.8379 0.24222,0.275 0.47407,0.5591 0.7207,0.83 0.24826,0.2819 0.48735,0.572 0.74023,0.8497 0.24038,0.2728 0.47014,0.5553 0.71485,0.8242 0.25191,0.2861 0.49527,0.5795 0.75195,0.8613 0.12213,0.1434 0.24583,0.2854 0.36914,0.4277 0.11671,0.1303 0.22604,0.2672 0.34375,0.3965 0.25209,0.2865 0.49509,0.5812 0.75195,0.8633 0.24149,0.2743 0.47483,0.5598 0.72071,0.8301 0.25774,0.2931 0.50677,0.5942 0.76953,0.8828 0.24822,0.282 0.48541,0.5738 0.73828,0.8516 0.24931,0.2834 0.48818,0.5763 0.74219,0.8554 0.26048,0.2963 0.51173,0.601 0.77734,0.8926 0.25125,0.2855 0.49203,0.5802 0.74805,0.8613 0.25227,0.2868 0.49487,0.5829 0.75195,0.8653 0.2612,0.2971 0.51294,0.6021 0.7793,0.8945 0.24724,0.281 0.48445,0.5708 0.73633,0.8477 0.26376,0.3002 0.51806,0.6089 0.78711,0.9042 0.2541,0.2891 0.49685,0.5885 0.75586,0.8731 0.26074,0.2968 0.51143,0.6024 0.77734,0.8945 0.26264,0.299 0.51531,0.6062 0.7832,0.9004 0.2601,0.2961 0.51015,0.6012 0.77539,0.8926 0.26368,0.3002 0.51814,0.6089 0.78711,0.9043 0.261,0.2971 0.51311,0.6021 0.7793,0.8945 0.26335,0.3 0.51651,0.6092 0.78516,0.9043 0.26266,0.2993 0.51526,0.6079 0.7832,0.9024 0.27168,0.3096 0.53322,0.629 0.81055,0.9336 0.26221,0.2986 0.51377,0.6066 0.78125,0.9003 0.26982,0.3077 0.53124,0.6233 0.80664,0.9258 0.27602,0.3147 0.54236,0.638 0.82421,0.9473 0.2595,0.2955 0.50879,0.5998 0.77344,0.8906 0.27826,0.3174 0.54783,0.6431 0.83203,0.9551 0.27361,0.3118 0.53706,0.6329 0.81641,0.9395 0.26456,0.3014 0.51913,0.6116 0.78906,0.9082 0.0884,0.1047 0.18051,0.2063 0.26953,0.3105 0.18348,0.2068 0.35695,0.4225 0.54297,0.627 0.28884,0.3297 0.56802,0.6683 0.86328,0.9921 0.26456,0.3014 0.51913,0.6118 0.78907,0.9082 0.28229,0.3222 0.55531,0.6522 0.84375,0.9688 0.26901,0.3068 0.52814,0.6221 0.80273,0.9238 0.28333,0.3236 0.55617,0.6567 0.8457,0.9746 0.27547,0.3145 0.54094,0.6382 0.82227,0.9473 0.28785,0.3288 0.56707,0.6653 0.86133,0.9883 0.27624,0.3152 0.54207,0.6393 0.82422,0.9492 0.278,0.3175 0.54608,0.643 0.83007,0.9551 0.29198,0.3337 0.57446,0.6762 0.87305,1.0039 0.27583,0.3149 0.54249,0.6377 0.82422,0.9473 0.29318,0.335 0.5771,0.6787 0.87695,1.0078 0.27366,0.3125 0.53889,0.6361 0.81836,0.9433 0.29507,0.3376 0.58097,0.6842 0.88282,1.0156 0.28283,0.3233 0.55663,0.6551 0.8457,0.9727 0.2943,0.3367 0.5798,0.6812 0.88086,1.0117 0.28374,0.3244 0.55763,0.6579 0.84765,0.9766 0.2961,0.3388 0.58182,0.6869 0.88477,1.0195 0.29851,0.3414 0.59102,0.6923 0.89648,1.0274 0.10658,0.1269 0.21865,0.2489 0.32618,0.375 0.0702,0.079 0.13643,0.1615 0.20703,0.2402 0.0112,0.014 0.024,0.026 0.0352,0.039 0.0873,0.097 0.16797,0.2002 0.25586,0.2968 0.29782,0.3412 0.58586,0.6906 0.89063,1.0254 0.30268,0.3465 0.59639,0.7011 0.90625,1.041 0.28136,0.3218 0.55228,0.6526 0.83984,0.9688 0.3037,0.3481 0.59726,0.7054 0.9082,1.0469 0.30208,0.3459 0.59506,0.6996 0.9043,1.039 0.29998,0.3433 0.59139,0.6944 0.89844,1.0313 0.2952,0.3378 0.58076,0.684 0.88281,1.0156 0.29212,0.3345 0.57421,0.6774 0.87305,1.0059 0.31546,0.3617 0.622,0.7313 0.94531,1.0859 0.29129,0.3334 0.57312,0.6747 0.87109,1.0019 0.30478,0.3495 0.6,0.7081 0.91211,1.0508 0.3012,0.3453 0.59593,0.7003 0.9043,1.0391 0.0639,0.077 0.13103,0.1503 0.19531,0.2266 0.23834,0.2708 0.46621,0.5516 0.70899,0.8183 0.31146,0.3574 0.61444,0.7219 0.93359,1.0723 0.30455,0.3492 0.60022,0.7063 0.91211,1.0488 0.3159,0.3624 0.62345,0.7327 0.94727,1.0879 0.2937,0.3365 0.57836,0.6814 0.8789,1.0117 0.31472,0.3615 0.62076,0.7297 0.94336,1.084 0.31204,0.3582 0.61381,0.7251 0.9336,1.0762 0.313,0.3592 0.61864,0.7259 0.93945,1.0781 0.31373,0.3601 0.61788,0.7291 0.93945,1.082 0.3059,0.3511 0.60266,0.7105 0.91602,1.0547 0.32166,0.3696 0.63492,0.7473 0.96484,1.1094 0.30823,0.3538 0.60606,0.7156 0.92188,1.0625 0.32034,0.3681 0.63238,0.7429 0.96093,1.1035 0.31672,0.3638 0.62448,0.7353 0.94922,1.0918 0.30902,0.355 0.60911,0.7183 0.92578,1.0664 0.32411,0.3729 0.63816,0.7539 0.97071,1.1192 0.32408,0.3726 0.64013,0.7521 0.97265,1.1171 0.31986,0.3677 0.63092,0.7434 0.95899,1.1036 0.31697,0.3644 0.62416,0.7366 0.94922,1.0937 0.33019,0.3799 0.65321,0.7667 0.99218,1.1387 0.31924,0.3669 0.62959,0.742 0.95704,1.1015 0.31974,0.3679 0.63097,0.7432 0.95898,1.1036 0.33326,0.3837 0.65776,0.7748 1,1.1503 0.32501,0.3739 0.64107,0.7551 0.97461,1.1211 0.31668,0.3644 0.62442,0.7368 0.94922,1.0938 0.34239,0.3947 0.67739,0.7956 1.02929,1.1816 0.32135,0.3697 0.63318,0.7473 0.9629,1.1094 0.32222,0.3712 0.63613,0.7498 0.96679,1.1133 0.34455,0.3974 0.68094,0.8028 1.03516,1.1914 0.3313,0.3814 0.65587,0.7692 0.99609,1.1426 0.32121,0.3699 0.63329,0.7471 0.96289,1.1093 0.34205,0.3947 0.67575,0.7957 1.02735,1.1817 0.33294,0.3837 0.65801,0.7749 1,1.1504 0.33456,0.3857 0.6602,0.7788 1.0039,1.1562 0.33831,0.3902 0.66992,0.7863 1.01758,1.168 0.33898,0.3909 0.6692,0.7895 1.01758,1.1719 0.33087,0.3815 0.65234,0.7711 0.99219,1.1445 0.3471,0.4008 0.68792,0.8074 1.04492,1.1992 0.33588,0.3874 0.66266,0.7831 1.00781,1.1621 0.34541,0.3988 0.68384,0.8035 1.03906,1.1934 0.34058,0.3929 0.67333,0.7934 1.02344,1.1777 0.33526,0.387 0.6633,0.7816 1.00781,1.1602 0.34908,0.4035 0.69164,0.8127 1.05078,1.207 0.34637,0.4001 0.68475,0.8081 1.04102,1.1992 0.33795,0.3904 0.66824,0.7882 1.01563,1.17 0.36111,0.4176 0.71597,0.8401 1.08789,1.248 0.33377,0.3853 0.65896,0.7774 1.00195,1.1543 0.35285,0.4082 0.69736,0.8238 1.06055,1.2227 0.35159,0.4065 0.69673,0.8195 1.05859,1.2168 0.35227,0.4071 0.69798,0.8208 1.06055,1.2187 0.34448,0.3982 0.68081,0.8021 1.03515,1.1914 0.36341,0.4207 0.71934,0.8471 1.09375,1.2578 0.35062,0.4052 0.69385,0.817 1.05469,1.2129 0.34736,0.4017 0.6875,0.8106 1.04492,1.2031 0.35393,0.4098 0.70006,0.8263 1.06446,1.2266 0.35642,0.4128 0.70715,0.8312 1.07421,1.2344 0.36551,0.4233 0.72487,0.8524 1.10157,1.2656 0.34647,0.4008 0.68449,0.8094 1.04101,1.2012 0.37293,0.4322 0.7404,0.8693 1.125,1.291 0.0586,0.068 0.11693,0.1356 0.17578,0.2031 h 0.002 c 0.28334,0.3248 0.55766,0.6577 0.84765,0.9765 0.37339,0.4333 0.73987,0.8723 1.125,1.2949 0.36093,0.4181 0.71601,0.8419 1.08789,1.25 0.36018,0.4173 0.71289,0.8407 1.08399,1.2481 0.36534,0.4235 0.72496,0.8523 1.10156,1.2656 0.35366,0.4099 0.70024,0.8263 1.06445,1.2266 0.37227,0.4322 0.73904,0.8694 1.12305,1.291 0.36888,0.4279 0.73093,0.8618 1.11133,1.2793 0.36862,0.4275 0.7312,0.8603 1.11133,1.2773 0.36985,0.4289 0.73378,0.8629 1.11523,1.2813 0.35816,0.4153 0.70908,0.8367 1.07813,1.2422 0.38066,0.4422 0.75543,0.8892 1.14843,1.3203 0.35767,0.4148 0.70764,0.8372 1.07617,1.2422 0.38173,0.4438 0.75819,0.8917 1.15235,1.3242 0.37104,0.4307 0.73635,0.867 1.11914,1.2871 0.37237,0.4325 0.73884,0.8693 1.12305,1.291 0.36673,0.426 0.72724,0.8578 1.10546,1.2735 0.38735,0.4506 0.76972,0.9047 1.16993,1.3437 0.37371,0.4341 0.74128,0.8737 1.12695,1.2969 0.37286,0.4333 0.74021,0.8705 1.125,1.2929 0.37418,0.4352 0.74269,0.8765 1.12891,1.3008 0.38033,0.4427 0.75564,0.8909 1.14843,1.3223 0.39032,0.4543 0.7743,0.9131 1.17774,1.3555 0.37389,0.4345 0.74297,0.8732 1.1289,1.2968 0.37978,0.442 0.75425,0.8897 1.14649,1.3204 0.13084,0.1523 0.2622,0.304 0.39453,0.455 h 0.002 c 0.2455,0.2801 0.48185,0.5682 0.73243,0.8437 0.40143,0.4681 0.79941,0.9391 1.21484,1.3946 0.37471,0.4357 0.744,0.876 1.13086,1.3007 0.39358,0.4585 0.78243,0.9209 1.18945,1.3672 0.13087,0.1523 0.26217,0.3042 0.39453,0.4551 0.16018,0.194 0.33158,0.3784 0.49414,0.5703 0.0784,0.087 0.15159,0.179 0.23047,0.2656 0.39876,0.4653 0.79442,0.9341 1.20703,1.3868 0.37738,0.4395 0.7489,0.8841 1.13868,1.3125 0.40937,0.4777 0.81621,0.9574 1.24023,1.4218 0.37462,0.4359 0.74206,0.878 1.12891,1.3028 0.40044,0.4671 0.79646,0.9381 1.21093,1.3926 0.38409,0.4474 0.76318,0.8982 1.16016,1.3339 0.3881,0.4528 0.77252,0.9089 1.17383,1.3496 0.39334,0.4593 0.78252,0.9222 1.18945,1.3692 0.40247,0.47 0.80008,0.9432 1.2168,1.4004 0.38767,0.4523 0.76903,0.9092 1.16992,1.3496 0.40364,0.4716 0.80464,0.9457 1.22266,1.4043 0.39337,0.4591 0.78244,0.9223 1.18945,1.3691 0.40185,0.4695 0.80068,0.9419 1.2168,1.3985 0.39252,0.4583 0.78135,0.9191 1.1875,1.3652 0.40406,0.4724 0.80412,0.9489 1.22265,1.4082 0.40313,0.4711 0.80317,0.9443 1.22071,1.4023 0.39774,0.4648 0.79133,0.9327 1.20312,1.3848 0.39814,0.4656 0.79284,0.9338 1.20508,1.3867 0.19192,0.2247 0.38485,0.4482 0.58008,0.67 0.13938,0.1687 0.28846,0.3289 0.42968,0.496 0.0664,0.074 0.13052,0.1532 0.19727,0.2266 0.42433,0.4972 0.84669,0.9959 1.28711,1.4785 0.39744,0.4642 0.79162,0.9313 1.20312,1.3828 0.39574,0.4629 0.78754,0.9306 1.19727,1.3809 0.4186,0.4906 0.83718,0.9825 1.27148,1.459 0.40394,0.4725 0.80412,0.9488 1.22266,1.4082 0.41118,0.4814 0.81975,0.9658 1.24609,1.4336 0.41568,0.4866 0.82858,0.9765 1.25977,1.4492 0.39216,0.4588 0.78153,0.9209 1.1875,1.3672 0.42781,0.5021 0.85449,1.0049 1.29883,1.4922 0.40212,0.4708 0.80206,0.9446 1.21875,1.4023 0.41583,0.4878 0.8283,0.9775 1.25976,1.4512 0.42032,0.4929 0.83909,0.9863 1.27539,1.4648 0.4131,0.4842 0.82343,0.9712 1.25196,1.4414 0.41252,0.4838 0.82205,0.9696 1.25,1.4395 0.42034,0.4934 0.83899,0.9879 1.27539,1.4668 0.41393,0.4856 0.82634,0.9737 1.25586,1.4453 0.41499,0.4873 0.82711,0.9761 1.25781,1.4492 0.43175,0.5075 0.86372,1.0137 1.3125,1.5059 0.22844,0.268 0.45818,0.5351 0.69141,0.7988 0.0379,0.046 0.0791,0.089 0.11718,0.1348 0.14262,0.1603 0.27751,0.3276 0.42188,0.4863 0.43569,0.5125 0.87113,1.0247 1.32422,1.5215 0.4242,0.4979 0.84644,0.9973 1.28711,1.4805 0.4143,0.4862 0.82779,0.9732 1.25781,1.4453 0.42792,0.5031 0.85408,1.0081 1.29883,1.4961 0.42098,0.4947 0.84006,0.9906 1.27734,1.4707 0.42819,0.5037 0.85569,1.0075 1.30078,1.4961 0.42937,0.505 0.85832,1.0102 1.30469,1.5 0.42278,0.4972 0.84392,0.9961 1.2832,1.4785 0.43531,0.5125 0.87138,1.0247 1.32422,1.5215 0.42914,0.5047 0.85656,1.0106 1.30274,1.5 0.42693,0.5023 0.85304,1.005 1.29687,1.4921 0.43919,0.5173 0.87883,1.0341 1.33594,1.5352 0.42713,0.5025 0.85475,1.0049 1.29883,1.4922 0.43572,0.5131 0.87083,1.0262 1.32421,1.5234 0.42675,0.5025 0.85121,1.0069 1.29493,1.4942 0.43703,0.5154 0.87519,1.0299 1.33007,1.5293 0.43168,0.5089 0.8634,1.0184 1.3125,1.5117 0.44658,0.527 0.89605,1.0523 1.36133,1.5625 0.4322,0.5093 0.86475,1.0181 1.31446,1.5117 0.43444,0.5126 0.86812,1.0248 1.32031,1.5215 0.44158,0.5215 0.88379,1.0419 1.34375,1.5469 0.4484,0.5294 0.89786,1.0579 1.36523,1.5703 0.44293,0.5224 0.88818,1.043 1.34961,1.5488 0.43905,0.5178 0.8787,1.0357 1.33594,1.5371 0.43461,0.513 0.86978,1.0265 1.32227,1.5234 0.45074,0.533 0.90301,1.0645 1.37304,1.5801 0.44614,0.527 0.89434,1.0526 1.35938,1.5625 0.43823,0.5177 0.87554,1.0358 1.33203,1.5371 0.45535,0.5387 0.91355,1.0748 1.38867,1.5957 0.43713,0.5165 0.87669,1.0312 1.33203,1.5313 0.45682,0.5408 0.9158,1.0806 1.39258,1.6035 0.4399,0.5202 0.88143,1.0375 1.33984,1.541 0.45879,0.5435 0.9214,1.084 1.40039,1.6094 0.44567,0.5272 0.89466,1.0524 1.35938,1.5625 0.45323,0.5369 0.90785,1.0727 1.38086,1.5918 0.46268,0.548 0.92881,1.0935 1.41211,1.623 0.43728,0.5172 0.87634,1.0326 1.33203,1.5332 0.46884,0.5563 0.94152,1.1094 1.43164,1.6465 0.44556,0.5274 0.89464,1.0524 1.35938,1.5625 0.45883,0.5442 0.91917,1.0855 1.39843,1.6114 0.46082,0.5464 0.92482,1.0892 1.40625,1.6171 0.45349,0.5376 0.91129,1.0722 1.38477,1.5918 0.45492,0.5398 0.91358,1.0779 1.38867,1.5996 0.46813,0.556 0.94016,1.1078 1.42969,1.6446 0.45703,0.5422 0.9171,1.0816 1.39453,1.6054 0.46173,0.5483 0.92756,1.0936 1.41016,1.6231 0.47369,0.5626 0.95156,1.1212 1.44726,1.6641 0.45354,0.5377 0.91108,1.0721 1.38477,1.5918 0.4592,0.5454 0.92241,1.0883 1.40234,1.6152 0.47442,0.5643 0.95456,1.1236 1.45117,1.668 0.45595,0.5415 0.91419,1.0803 1.39063,1.6035 0.48231,0.5739 0.97124,1.1419 1.47656,1.6953 0.4531,0.5379 0.90944,1.0721 1.38281,1.5918 0.46944,0.5589 0.94423,1.113 1.43555,1.6523 0.47198,0.562 0.95118,1.118 1.44531,1.6602 0.47314,0.5632 0.95186,1.1227 1.44727,1.666 0.37447,0.4456 0.75605,0.8852 1.14453,1.3184 0.001,0 0.002,0 0.004,0.01 0.0835,0.093 0.16196,0.1907 0.2461,0.2832 0.48428,0.5781 0.97661,1.1501 1.48437,1.707 0.47404,0.5647 0.95469,1.1254 1.45117,1.67 0.47091,0.5609 0.9483,1.1172 1.44141,1.6582 0.48206,0.5746 0.97119,1.1435 1.47656,1.6972 0.46676,0.5559 0.93912,1.1063 1.42774,1.6426 0.48537,0.5791 0.97722,1.1511 1.48633,1.709 0.47373,0.5645 0.95288,1.1238 1.44922,1.668 0.476,0.5677 0.95814,1.1304 1.45703,1.6777 0.24216,0.289 0.4948,0.5689 0.74218,0.8535 H 1710.291 c 1.8965,0 3.4238,-2.8523 3.4238,-6.3945 V 955.05664 c -0.1512,-0.1679 -0.2984,-0.33929 -0.4531,-0.50391 -0.6062,-0.76612 -1.245,-1.50442 -1.914,-2.21484 -0.5973,-0.75351 -1.2246,-1.4803 -1.8829,-2.17969 -0.5949,-0.75126 -1.2211,-1.47648 -1.8769,-2.17382 -0.601,-0.75963 -1.2332,-1.49288 -1.8965,-2.19727 -0.5963,-0.75306 -1.2231,-1.47919 -1.8809,-2.17773 -0.5969,-0.75427 -1.2239,-1.48218 -1.8828,-2.18165 -0.5879,-0.74255 -1.2073,-1.45916 -1.8554,-2.14843 -0.5986,-0.75754 -1.2275,-1.48939 -1.8887,-2.19141 -0.5926,-0.74869 -1.2171,-1.46984 -1.8711,-2.16406 -0.5887,-0.74406 -1.2078,-1.46222 -1.8574,-2.15235 -0.5933,-0.75053 -1.2197,-1.47438 -1.875,-2.16992 -0.589,-0.74476 -1.2091,-1.46388 -1.8594,-2.15429 -0.5894,-0.74546 -1.2084,-1.4654 -1.8594,-2.15625 -0.5861,-0.74141 -1.2043,-1.45534 -1.8515,-2.14258 -0.5893,-0.74606 -1.21,-1.46516 -1.8614,-2.15625 -0.5857,-0.74094 -1.2005,-1.45604 -1.8476,-2.14258 -0.5901,-0.74685 -1.2126,-1.4668 -1.8653,-2.1582 -0.5785,-0.73119 -1.1854,-1.4374 -1.8242,-2.11524 -0.588,-0.74482 -1.2068,-1.46293 -1.8574,-2.15234 -0.5802,-0.73394 -1.1928,-1.4412 -1.834,-2.1211 -0.5817,-0.73639 -1.1946,-1.44702 -1.8379,-2.1289 -0.5822,-0.73716 -1.1938,-1.44851 -1.8379,-2.13086 -0.5786,-0.73233 -1.1883,-1.43912 -1.8281,-2.11719 -0.5799,-0.73453 -1.1904,-1.44322 -1.832,-2.12305 -0.58,-0.73456 -1.1921,-1.44145 -1.834,-2.12109 -0.5721,-0.72428 -1.1741,-1.42301 -1.8066,-2.09375 -0.5812,-0.73695 -1.1941,-1.44747 -1.8379,-2.12891 -0.5709,-0.72291 -1.1713,-1.42058 -1.8028,-2.08984 -0.5757,-0.72997 -1.1827,-1.43421 -1.8203,-2.10937 -0.5784,-0.73312 -1.1891,-1.43957 -1.8301,-2.11719 -0.5659,-0.71648 -1.1612,-1.40704 -1.7871,-2.07031 -0.5722,-0.72601 -1.1746,-1.42632 -1.8086,-2.09766 -0.5726,-0.72645 -1.1779,-1.42611 -1.8125,-2.09766 -0.5694,-0.72202 -1.1698,-1.41836 -1.8007,-2.08593 -0.5674,-0.71978 -1.1664,-1.4126 -1.795,-2.07813 -0.5665,-0.71905 -1.1631,-1.41141 -1.791,-2.07617 -0.5716,-0.72594 -1.1744,-1.42524 -1.8086,-2.0957 -0.5624,-0.71315 -1.1561,-1.39923 -1.7793,-2.0586 -0.5656,-0.71837 -1.1617,-1.4105 -1.789,-2.07422 -0.5649,-0.71717 -1.1625,-1.40779 -1.7891,-2.07031 -0.5628,-0.71447 -1.157,-1.40242 -1.7812,-2.0625 -0.5641,-0.71655 -1.1592,-1.4067 -1.7852,-2.06836 -0.558,-0.70843 -1.1469,-1.39031 -1.7656,-2.04492 -0.561,-0.71325 -1.1527,-1.40002 -1.7754,-2.05859 -0.56,-0.71187 -1.1518,-1.39746 -1.7735,-2.05469 -0.5591,-0.71061 -1.1507,-1.3948 -1.7714,-2.05078 -0.5533,-0.70324 -1.1381,-1.37969 -1.752,-2.0293 -0.562,-0.71543 -1.1564,-1.40465 -1.7812,-2.06445 -0.5582,-0.70914 -1.1456,-1.39268 -1.7657,-2.04688 -0.5484,-0.69663 -1.1297,-1.36631 -1.7382,-2.00976 -0.5575,-0.70966 -1.1459,-1.39247 -1.7657,-2.04688 -0.5536,-0.70408 -1.1386,-1.38179 -1.7539,-2.03125 -0.5535,-0.70387 -1.1367,-1.38214 -1.7519,-2.03125 -0.5472,-0.69583 -1.1266,-1.36566 -1.7344,-2.00781 -0.5536,-0.705 -1.14,-1.3834 -1.7559,-2.0332 -0.5458,-0.69439 -1.1219,-1.36329 -1.7285,-2.00391 -0.5535,-0.70511 -1.1396,-1.38368 -1.7558,-2.0332 -0.5437,-0.69154 -1.1184,-1.35628 -1.7227,-1.99414 -0.5491,-0.69958 -1.129,-1.37303 -1.7402,-2.01758 -0.5491,-0.69888 -1.129,-1.36996 -1.7403,-2.01367 -0.5396,-0.68655 -1.1092,-1.34735 -1.7089,-1.98047 -0.5444,-0.69393 -1.1206,-1.3607 -1.7266,-2 -0.5431,-0.69235 -1.118,-1.35831 -1.7227,-1.9961 -0.546,-0.69612 -1.1239,-1.36508 -1.7324,-2.00586 -0.3642,-0.46367 -0.7404,-0.91614 -1.1328,-1.35546 -0.3744,-0.46164 -0.7591,-0.91415 -1.1523,-1.35938 -0.5583,-0.71922 -1.1377,-1.42039 -1.7403,-2.10156 -0.5532,-0.71124 -1.128,-1.40605 -1.7246,-2.08008 -0.5524,-0.70922 -1.1272,-1.40002 -1.7226,-2.07227 -0.5384,-0.69056 -1.0947,-1.36592 -1.6739,-2.02148 -0.5538,-0.71187 -1.1276,-1.40719 -1.7246,-2.08203 -0.5451,-0.6995 -1.1106,-1.38117 -1.6972,-2.04492 -0.5419,-0.69541 -1.1027,-1.37499 -1.6856,-2.03516 -0.5501,-0.70667 -1.1204,-1.39601 -1.7129,-2.06641 -0.5411,-0.69405 -1.1017,-1.37216 -1.6836,-2.03125 -0.5353,-0.68691 -1.0908,-1.357 -1.666,-2.00976 -0.5537,-0.71158 -1.1282,-1.407 -1.7246,-2.08203 -0.5365,-0.68734 -1.0917,-1.3585 -1.668,-2.01172 -0.5541,-0.71087 -1.128,-1.4056 -1.7246,-2.08008 -0.5256,-0.67211 -1.0692,-1.32918 -1.6328,-1.96875 -0.5468,-0.70151 -1.1132,-1.38648 -1.7012,-2.05273 -0.5302,-0.67886 -1.0797,-1.34244 -1.6484,-1.98829 -0.5386,-0.6907 -1.0975,-1.36481 -1.6758,-2.02148 -0.5398,-0.6921 -1.1,-1.36742 -1.6797,-2.02539 -0.5376,-0.68861 -1.0929,-1.36272 -1.6699,-2.01758 -0.5378,-0.68842 -1.0948,-1.36089 -1.6719,-2.01562 -0.5272,-0.67438 -1.0738,-1.3325 -1.6386,-1.97461 -0.5393,-0.69095 -1.0972,-1.36625 -1.6758,-2.02344 -0.5211,-0.66652 -1.0595,-1.31799 -1.6172,-1.95313 -0.5452,-0.69903 -1.11,-1.38222 -1.6953,-2.04687 -0.525,-0.67105 -1.0689,-1.3255 -1.6309,-1.96484 -0.533,-0.68217 -1.0851,-1.34855 -1.6562,-1.99805 -0.5292,-0.67674 -1.076,-1.33779 -1.6426,-1.98242 -0.5296,-0.67721 -1.0775,-1.33927 -1.6445,-1.98438 -0.5332,-0.68146 -1.0853,-1.34708 -1.6563,-1.99609 -0.5249,-0.67008 -1.0675,-1.32611 -1.6289,-1.96485 -0.5231,-0.66798 -1.0637,-1.32012 -1.623,-1.95703 -0.5286,-0.67553 -1.0732,-1.33664 -1.6387,-1.98047 -0.5294,-0.67599 -1.0763,-1.33618 -1.6426,-1.98046 -0.5097,-0.65026 -1.0362,-1.2853 -1.5801,-1.90625 -0.5451,-0.69744 -1.1091,-1.3791 -1.6933,-2.04297 -0.5068,-0.64511 -1.03,-1.27627 -1.5703,-1.89258 -0.5363,-0.68504 -1.0902,-1.35508 -1.6641,-2.00781 -0.5044,-0.64223 -1.0249,-1.27096 -1.5625,-1.88477 -0.5276,-0.67413 -1.0728,-1.33358 -1.6367,-1.97656 -0.5182,-0.66087 -1.0544,-1.30656 -1.6074,-1.9375 -0.5095,-0.64988 -1.035,-1.28524 -1.5782,-1.90625 -0.5329,-0.68082 -1.0845,-1.34491 -1.6543,-1.99414 -0.5095,-0.64878 -1.035,-1.28425 -1.5781,-1.9043 -0.5221,-0.66563 -1.0619,-1.31764 -1.6191,-1.95312 -0.5093,-0.64833 -1.0356,-1.28259 -1.5782,-1.90235 -0.5112,-0.65155 -1.0392,-1.28933 -1.5839,-1.91211 -0.5232,-0.66715 -1.0628,-1.31998 -1.6211,-1.95703 -0.5094,-0.64813 -1.0337,-1.28263 -1.5762,-1.90234 -0.5144,-0.65503 -1.0456,-1.2958 -1.5938,-1.92188 -0.5089,-0.64751 -1.0343,-1.28113 -1.5761,-1.90039 -0.5114,-0.65085 -1.0395,-1.2878 -1.584,-1.91015 -0.5049,-0.64238 -1.0253,-1.27205 -1.5625,-1.88672 -0.5137,-0.65424 -1.0446,-1.29435 -1.5918,-1.91993 -0.507,-0.64492 -1.0308,-1.27547 -1.5703,-1.89257 -0.5151,-0.65507 -1.0453,-1.29744 -1.5938,-1.92383 -0.496,-0.62986 -1.0082,-1.24625 -1.5351,-1.84961 -0.5095,-0.64821 -1.0341,-1.28404 -1.5762,-1.9043 -0.4974,-0.63228 -1.0106,-1.24976 -1.5391,-1.85547 -0.5074,-0.64595 -1.0306,-1.27818 -1.5703,-1.89648 -0.5107,-0.64954 -1.0386,-1.28465 -1.582,-1.90625 -0.5028,-0.63835 -1.0204,-1.26363 -1.5547,-1.875 -0.4894,-0.62117 -0.9945,-1.22854 -1.5137,-1.82422 -0.506,-0.64382 -1.0266,-1.27408 -1.5644,-1.89062 -0.5009,-0.63647 -1.0168,-1.25933 -1.5489,-1.86915 -0.5011,-0.63648 -1.0166,-1.25926 -1.5488,-1.86914 -0.5022,-0.63759 -1.0194,-1.26212 -1.5527,-1.87304 -0.4836,-0.61333 -0.9818,-1.21406 -1.4942,-1.80274 -0.505,-0.64227 -1.026,-1.27138 -1.5625,-1.88672 -0.4968,-0.63055 -1.0099,-1.24696 -1.5371,-1.85156 -0.4875,-0.6187 -0.9891,-1.2246 -1.5058,-1.81836 -0.5035,-0.6397 -1.0222,-1.2658 -1.5567,-1.8789 -0.4897,-0.6209 -0.9947,-1.22839 -1.5136,-1.82422 -0.501,-0.63552 -1.0174,-1.25788 -1.5489,-1.86719 -0.4869,-0.61668 -0.9862,-1.22244 -1.5019,-1.81445 -0.4934,-0.62552 -1.0024,-1.2377 -1.5254,-1.83789 -0.4815,-0.60987 -0.9768,-1.20714 -1.4863,-1.79297 -0.497,-0.63056 -1.0083,-1.24857 -1.5352,-1.85352 -0.4866,-0.61641 -0.9867,-1.22056 -1.5019,-1.8125 -0.4926,-0.624 -0.9998,-1.23502 -1.5215,-1.83398 -0.4848,-0.6135 -0.9831,-1.21538 -1.4961,-1.80469 -0.4854,-0.6144 -0.9845,-1.21645 -1.4981,-1.80664 -0.4798,-0.60746 -0.973,-1.20328 -1.4804,-1.78711 -0.496,-0.62849 -1.0059,-1.2444 -1.5313,-1.84766 -0.4659,-0.58887 -0.9458,-1.16569 -1.4375,-1.73242 -0.4996,-0.63383 -1.0135,-1.255 -1.543,-1.86328 -0.4726,-0.59745 -0.9578,-1.1831 -1.457,-1.75781 -0.49,-0.62048 -0.9931,-1.23015 -1.5117,-1.82617 -0.4744,-0.59951 -0.9619,-1.187 -1.4629,-1.76368 -0.4772,-0.60366 -0.9685,-1.1948 -1.4727,-1.77539 -0.4869,-0.61624 -0.9869,-1.22026 -1.5019,-1.8125 -0.4723,-0.59662 -0.9585,-1.18175 -1.457,-1.75586 -0.4787,-0.60535 -0.971,-1.199 -1.4766,-1.78125 -0.4769,-0.60272 -0.9671,-1.19359 -1.4707,-1.77343 -0.4629,-0.585 -0.9377,-1.15918 -1.4258,-1.72266 -0.4955,-0.62753 -1.005,-1.24286 -1.5293,-1.8457 -0.4617,-0.58229 -0.9353,-1.15386 -1.4219,-1.71485 -0.4729,-0.59774 -0.9599,-1.18243 -1.4589,-1.75781 -0.4715,-0.59585 -0.9558,-1.18024 -1.4532,-1.75391 -0.4733,-0.59822 -0.9595,-1.18582 -1.459,-1.76171 -0.4707,-0.59455 -0.9547,-1.1775 -1.4511,-1.75 -0.476,-0.60108 -0.9646,-1.19097 -1.4668,-1.76953 -0.4592,-0.57901 -0.9306,-1.14694 -1.4141,-1.70508 -0.4768,-0.60243 -0.9656,-1.19353 -1.4687,-1.77344 -0.4556,-0.5744 -0.9229,-1.13748 -1.4024,-1.69141 -0.4816,-0.60861 -0.976,-1.2053 -1.4844,-1.79101 -0.4528,-0.57048 -0.9181,-1.12936 -1.3945,-1.67969 -0.4678,-0.59078 -0.9484,-1.17098 -1.4414,-1.74023 -0.4693,-0.59224 -0.9508,-1.17354 -1.4453,-1.74414 -0.4596,-0.57933 -0.9303,-1.14839 -1.4141,-1.70704 -0.4622,-0.58292 -0.9371,-1.15476 -1.4238,-1.71679 -0.4643,-0.58542 -0.9408,-1.16024 -1.4297,-1.72461 -0.4487,-0.5654 -0.9092,-1.12023 -1.3808,-1.66602 -0.4704,-0.59389 -0.9538,-1.17573 -1.4493,-1.74804 -0.4513,-0.56858 -0.9142,-1.12698 -1.3886,-1.67579 -0.4654,-0.58702 -0.9437,-1.16251 -1.4336,-1.72851 -0.4546,-0.57258 -0.9205,-1.13492 -1.3985,-1.6875 -0.4592,-0.57868 -0.9309,-1.14679 -1.414,-1.70508 -0.4523,-0.5695 -0.9173,-1.12796 -1.3926,-1.67773 -0.4508,-0.56788 -0.9111,-1.12749 -1.3848,-1.67579 -0.4566,-0.57563 -0.9261,-1.13975 -1.4062,-1.69531 -0.454,-0.57184 -0.9194,-1.1335 -1.3965,-1.68555 -0.4505,-0.5673 -0.9135,-1.12402 -1.3867,-1.67187 -0.4607,-0.58013 -0.9336,-1.14919 -1.418,-1.70898 -0.4413,-0.55479 -0.8924,-1.10054 -1.3555,-1.63672 -0.4484,-0.56457 -0.908,-1.11869 -1.3789,-1.66407 -0.4531,-0.57065 -0.9185,-1.13057 -1.3945,-1.68164 -0.4485,-0.56426 -0.908,-1.11893 -1.3789,-1.66406 -0.4449,-0.5596 -0.9023,-1.10763 -1.3691,-1.64844 -0.4416,-0.55551 -0.8944,-1.10165 -1.3575,-1.63867 -0.4544,-0.57217 -0.9193,-1.1349 -1.3964,-1.6875 -0.4456,-0.56002 -0.9037,-1.10914 -1.3711,-1.65039 -0.4284,-0.53817 -0.866,-1.06702 -1.3145,-1.58789 -0.4545,-0.57266 -0.9212,-1.13435 -1.3984,-1.6875 -0.4471,-0.56202 -0.9041,-1.115 -1.3731,-1.6582 -0.4394,-0.55192 -0.8909,-1.09318 -1.3515,-1.62696 -0.4338,-0.54478 -0.8778,-1.08028 -1.3321,-1.60742 -0.4454,-0.56013 -0.902,-1.11081 -1.3691,-1.65234 -0.4339,-0.54502 -0.8776,-1.08196 -1.332,-1.60938 -0.4422,-0.55579 -0.8959,-1.10115 -1.3594,-1.63867 -0.4353,-0.54658 -0.8801,-1.08436 -1.336,-1.61328 -0.4345,-0.54586 -0.8808,-1.0811 -1.3359,-1.60937 -0.4339,-0.54522 -0.8776,-1.08169 -1.332,-1.60938 -0.4434,-0.55716 -0.8986,-1.10369 -1.3633,-1.64258 -0.4291,-0.53829 -0.8693,-1.06666 -1.3184,-1.58789 -0.4316,-0.54191 -0.8724,-1.07495 -1.3242,-1.59961 -0.4283,-0.5378 -0.8663,-1.06705 -1.3144,-1.58789 -0.4322,-0.54294 -0.8758,-1.07587 -1.3282,-1.60156 -0.432,-0.54251 -0.874,-1.07627 -1.3261,-1.60156 -0.4432,-0.55627 -0.8971,-1.10245 -1.3614,-1.64063 -0.4066,-0.50917 -0.8217,-1.0099 -1.2461,-1.5039 -0.4462,-0.5609 -0.9035,-1.11172 -1.3711,-1.6543 -0.4177,-0.5232 -0.8448,-1.03769 -1.2812,-1.54492 -0.4287,-0.53798 -0.868,-1.06676 -1.3164,-1.58789 -0.4259,-0.53399 -0.8614,-1.05876 -1.3067,-1.57618 -0.4214,-0.52853 -0.8524,-1.04823 -1.2929,-1.56054 -0.4309,-0.54036 -0.8717,-1.07227 -1.3223,-1.59571 -0.4191,-0.52493 -0.8494,-1.03986 -1.2871,-1.54882 -0.4193,-0.52553 -0.8473,-1.04318 -1.2851,-1.55274 -0.4221,-0.52908 -0.8541,-1.04958 -1.295,-1.5625 -0.4225,-0.52954 -0.8535,-1.05109 -1.2949,-1.56445 -0.4231,-0.53004 -0.8568,-1.05062 -1.2988,-1.56445 -0.4136,-0.51779 -0.836,-1.02696 -1.2676,-1.5293 -0.4196,-0.52575 -0.8489,-1.04288 -1.2871,-1.55274 -0.4094,-0.51273 -0.8269,-1.01799 -1.2539,-1.51562 -0.4324,-0.54215 -0.876,-1.07431 -1.3281,-1.59961 -0.4028,-0.5036 -0.8146,-0.99924 -1.2344,-1.48828 -0.4197,-0.52579 -0.8489,-1.04276 -1.2871,-1.55274 -0.4029,-0.5041 -0.8146,-1.00065 -1.2344,-1.49023 -0.4209,-0.52771 -0.8515,-1.04676 -1.291,-1.55859 -0.4121,-0.51572 -0.8339,-1.0229 -1.2637,-1.52344 -0.4093,-0.5122 -0.8272,-1.01643 -1.2539,-1.51367 -0.4067,-0.50904 -0.8222,-1.00961 -1.2461,-1.50391 -0.4178,-0.52324 -0.8453,-1.03723 -1.2812,-1.54492 -0.4066,-0.50835 -0.8224,-1.0083 -1.2461,-1.50195 -0.4031,-0.50421 -0.8144,-1.00046 -1.2344,-1.49024 -0.4074,-0.5099 -0.8254,-1.01068 -1.25,-1.50586 -0.4012,-0.50207 -0.8107,-0.99656 -1.2285,-1.48437 -0.4213,-0.52756 -0.8514,-1.04677 -1.291,-1.5586 -0.4003,-0.49973 -0.8099,-0.99096 -1.2266,-1.47656 -0.3927,-0.49059 -0.7926,-0.97416 -1.2012,-1.45117 -0.4123,-0.51607 -0.8338,-1.02431 -1.2636,-1.52539 -0.3944,-0.49273 -0.7967,-0.97798 -1.2071,-1.45703 -0.4084,-0.51086 -0.8264,-1.01359 -1.2519,-1.50977 -0.386,-0.48212 -0.7804,-0.95672 -1.1817,-1.42578 -0.4149,-0.51938 -0.8389,-1.03089 -1.2715,-1.53516 -0.3904,-0.48741 -0.7892,-0.96732 -1.1953,-1.4414 -0.4026,-0.50323 -0.8151,-0.99728 -1.2343,-1.48633 -0.3919,-0.48929 -0.7917,-0.97137 -1.1993,-1.44727 -0.3978,-0.49706 -0.8048,-0.98549 -1.2187,-1.46875 -0.3921,-0.48971 -0.7915,-0.9729 -1.1992,-1.44921 -0.3973,-0.4963 -0.8036,-0.98424 -1.2168,-1.4668 -0.4058,-0.50659 -0.8198,-1.00576 -1.2422,-1.49805 -0.3655,-0.45533 -0.7382,-0.90389 -1.1172,-1.34765 -0.4096,-0.51263 -0.8273,-1.01758 -1.2539,-1.51563 -0.3817,-0.47613 -0.7716,-0.94467 -1.168,-1.4082 -0.3998,-0.49956 -0.8086,-0.99084 -1.2246,-1.47657 -0.3881,-0.48398 -0.7843,-0.96064 -1.1875,-1.43164 -0.3814,-0.47575 -0.7699,-0.94498 -1.166,-1.4082 -0.3852,-0.4809 -0.7796,-0.95375 -1.1797,-1.42187 -0.3976,-0.49656 -0.8032,-0.98582 -1.2168,-1.46875 -0.3767,-0.46946 -0.7614,-0.93139 -1.1523,-1.38868 -0.3827,-0.47763 -0.7725,-0.949 -1.17,-1.41406 -0.3951,-0.49335 -0.7981,-0.97903 -1.2089,-1.45898 -0.3774,-0.47012 -0.7628,-0.93269 -1.1543,-1.39063 -0.3786,-0.47203 -0.7654,-0.9367 -1.1582,-1.39648 -0.3771,-0.47042 -0.7611,-0.9343 -1.1524,-1.39258 -0.3885,-0.48497 -0.7859,-0.96151 -1.1894,-1.43359 -0.3778,-0.47093 -0.7623,-0.93577 -1.1543,-1.39454 -0.3838,-0.47851 -0.7754,-0.95003 -1.1739,-1.41601 -0.3773,-0.47006 -0.7628,-0.93266 -1.1543,-1.39063 -0.3681,-0.45855 -0.7434,-0.91036 -1.125,-1.35742 -0.3863,-0.48199 -0.7804,-0.95646 -1.1816,-1.42578 -0.3725,-0.46387 -0.7524,-0.92092 -1.1387,-1.37305 -0.3715,-0.46283 -0.7515,-0.91798 -1.1367,-1.36914 -0.3785,-0.47166 -0.7636,-0.93693 -1.1562,-1.39648 -0.3599,-0.44804 -0.727,-0.88906 -1.0996,-1.32617 -0.3823,-0.47693 -0.7713,-0.94752 -1.168,-1.41211 -0.3741,-0.46582 -0.7548,-0.92487 -1.1426,-1.37891 -0.3696,-0.46002 -0.7478,-0.91279 -1.1309,-1.36133 -0.3605,-0.44895 -0.7281,-0.89206 -1.1015,-1.33007 -0.3674,-0.45789 -0.7424,-0.90892 -1.1231,-1.35547 -0.3805,-0.47429 -0.7674,-0.94217 -1.1621,-1.4043 -0.3568,-0.44379 -0.7206,-0.88131 -1.0898,-1.31445 -0.3739,-0.46574 -0.755,-0.92487 -1.1426,-1.37891 -0.3736,-0.46469 -0.7554,-0.92196 -1.1426,-1.375 -0.3411,-0.42366 -0.6886,-0.84189 -1.041,-1.25586 -0.3752,-0.46776 -0.7575,-0.92876 -1.1465,-1.38477 -0.3613,-0.44958 -0.7294,-0.8933 -1.1035,-1.33203 -0.3649,-0.45398 -0.7374,-0.90084 -1.1152,-1.34375 -0.3528,-0.43865 -0.7133,-0.8705 -1.0781,-1.29882 -0.3598,-0.44788 -0.7254,-0.891 -1.0977,-1.32813 -0.3731,-0.4645 -0.754,-0.92205 -1.1406,-1.375 -0.3472,-0.43123 -0.7017,-0.85608 -1.0606,-1.27734 -0.3557,-0.44251 -0.718,-0.87851 -1.0859,-1.31055 -0.3618,-0.45017 -0.7291,-0.89463 -1.1035,-1.33398 -0.3581,-0.44517 -0.7233,-0.88378 -1.0938,-1.31836 -0.3538,-0.43969 -0.7142,-0.87337 -1.0801,-1.30274 -0.3488,-0.43358 -0.7038,-0.86159 -1.0644,-1.28515 -0.3584,-0.44573 -0.723,-0.88516 -1.0938,-1.32032 -0.3524,-0.43781 -0.7118,-0.86925 -1.0761,-1.29687 -0.3448,-0.42834 -0.6966,-0.85095 -1.0528,-1.26953 -0.3606,-0.44844 -0.7284,-0.89036 -1.1015,-1.32813 -0.3456,-0.429 -0.6977,-0.85225 -1.0547,-1.27148 -0.3459,-0.4296 -0.6974,-0.85363 -1.0547,-1.27344 -0.3498,-0.43468 -0.7069,-0.86243 -1.0684,-1.28711 -0.3456,-0.42929 -0.6957,-0.8539 -1.0527,-1.27344 -0.3449,-0.42849 -0.6965,-0.85074 -1.0527,-1.26953 -0.3551,-0.44116 -0.717,-0.87575 -1.084,-1.30664 -0.3324,-0.41237 -0.6708,-0.81927 -1.0137,-1.22266 -0.351,-0.43626 -0.7076,-0.86671 -1.0703,-1.29296 -0.3334,-0.41388 -0.6736,-0.82172 -1.0176,-1.22657 -0.3552,-0.44154 -0.7168,-0.8773 -1.084,-1.30859 -0.333,-0.4131 -0.672,-0.82049 -1.0156,-1.22461 -0.3455,-0.42906 -0.6978,-0.85209 -1.0547,-1.27148 -0.3412,-0.4233 -0.6888,-0.84003 -1.041,-1.25391 -0.336,-0.41669 -0.6768,-0.82875 -1.0234,-1.23633 -0.3313,-0.41094 -0.6682,-0.81666 -1.0098,-1.21875 -0.3471,-0.43101 -0.7002,-0.85606 -1.0586,-1.27734 -0.3331,-0.41294 -0.6721,-0.82061 -1.0156,-1.22461 -0.3281,-0.40696 -0.6618,-0.80873 -1,-1.20703 -0.3364,-0.41758 -0.6784,-0.82981 -1.0254,-1.23828 -0.3355,-0.41638 -0.6773,-0.82704 -1.0234,-1.23438 -0.3299,-0.40918 -0.6658,-0.81244 -1.0059,-1.21289 -0.3393,-0.42099 -0.6851,-0.83629 -1.0352,-1.24805 -0.3288,-0.40745 -0.663,-0.81018 -1.0019,-1.20898 -0.323,-0.40035 -0.6517,-0.79549 -0.9844,-1.1875 -0.3326,-0.41277 -0.6706,-0.82069 -1.0137,-1.22461 -0.3293,-0.40836 -0.6644,-0.81124 -1.0039,-1.21094 -0.3311,-0.41042 -0.6684,-0.81512 -1.0097,-1.21679 -0.3231,-0.40022 -0.6516,-0.7956 -0.9844,-1.1875 -0.3236,-0.40107 -0.653,-0.79672 -0.9863,-1.18946 -0.3282,-0.40689 -0.6618,-0.80871 -1,-1.20703 -0.3237,-0.40104 -0.6529,-0.79674 -0.9864,-1.18945 -0.3178,-0.3938 -0.6415,-0.78219 -0.9687,-1.16797 -0.3282,-0.40697 -0.6618,-0.80861 -1,-1.20703 -0.3176,-0.39337 -0.6399,-0.78259 -0.9668,-1.16797 -0.3214,-0.39827 -0.6475,-0.79155 -0.9785,-1.18164 -0.3179,-0.39374 -0.6416,-0.78222 -0.9688,-1.16797 -0.3257,-0.40356 -0.6567,-0.80209 -0.9922,-1.19727 -0.3188,-0.39468 -0.6444,-0.78326 -0.9726,-1.16992 -0.3053,-0.37774 -0.6159,-0.75069 -0.9297,-1.12109 -0.3265,-0.40471 -0.6578,-0.80487 -0.9941,-1.20117 -0.309,-0.38227 -0.6218,-0.76001 -0.9395,-1.13477 -0.3173,-0.39304 -0.6402,-0.78089 -0.9668,-1.16601 -0.314,-0.38871 -0.632,-0.77334 -0.9551,-1.1543 -0.3156,-0.39067 -0.6381,-0.77536 -0.9629,-1.1582 -0.3105,-0.38421 -0.6259,-0.76399 -0.9453,-1.14063 -0.3085,-0.38174 -0.6222,-0.75852 -0.9394,-1.13281 -0.3088,-0.38222 -0.622,-0.76002 -0.9395,-1.13477 -0.3122,-0.38647 -0.63,-0.76764 -0.9512,-1.14648 -0.3032,-0.37533 -0.61,-0.7471 -0.9218,-1.11524 -0.3154,-0.39044 -0.6365,-0.77552 -0.961,-1.1582 -0.3002,-0.3712 -0.6056,-0.73738 -0.914,-1.10156 -0.3094,-0.38286 -0.6234,-0.76133 -0.9414,-1.13672 -0.3052,-0.37739 -0.6142,-0.75096 -0.9278,-1.12109 -0.2981,-0.36867 -0.602,-0.732 -0.9082,-1.09375 -0.3102,-0.38395 -0.6263,-0.76221 -0.9453,-1.13868 -0.2994,-0.37017 -0.6026,-0.73639 -0.9101,-1.09961 -0.302,-0.37342 -0.6078,-0.74302 -0.918,-1.10937 -0.299,-0.3698 -0.603,-0.7348 -0.9102,-1.09766 -0.3115,-0.38527 -0.6289,-0.76482 -0.9492,-1.14258 -0.2833,-0.34975 -0.5708,-0.69549 -0.8613,-1.03906 -0.3082,-0.38136 -0.6207,-0.7588 -0.9375,-1.13281 -0.2971,-0.36706 -0.5992,-0.7296 -0.9043,-1.08984 -0.2873,-0.35491 -0.5783,-0.70615 -0.8731,-1.05469 -0.3045,-0.37664 -0.6148,-0.7477 -0.9277,-1.11719 -0.2875,-0.35517 -0.58,-0.70588 -0.875,-1.05469 -0.2995,-0.37022 -0.6026,-0.73629 -0.9101,-1.09961 -0.2844,-0.35127 -0.5736,-0.69791 -0.8653,-1.04296 -0.297,-0.36728 -0.5974,-0.73131 -0.9023,-1.0918 -0.2925,-0.36135 -0.5905,-0.71748 -0.8906,-1.07227 -0.2891,-0.35706 -0.5824,-0.70989 -0.879,-1.06054 -0.2905,-0.35889 -0.5847,-0.714 -0.8828,-1.06641 -0.2908,-0.3592 -0.5863,-0.71368 -0.8847,-1.06641 -0.281,-0.3468 -0.5656,-0.69048 -0.8535,-1.03125 -0.2922,-0.36104 -0.5889,-0.71775 -0.8887,-1.07226 -0.2882,-0.3558 -0.5814,-0.70719 -0.877,-1.05664 -0.283,-0.34928 -0.5711,-0.69394 -0.8613,-1.03711 -0.2795,-0.34506 -0.5631,-0.6863 -0.8496,-1.02539 -0.2835,-0.35022 -0.5706,-0.69693 -0.8613,-1.04102 -0.2891,-0.35694 -0.5825,-0.70997 -0.8789,-1.06055 -0.2744,-0.33849 -0.553,-0.67307 -0.834,-1.00585 -0.2848,-0.35164 -0.5733,-0.69946 -0.8653,-1.04493 -0.2845,-0.35116 -0.5735,-0.69796 -0.8652,-1.04296 -0.2708,-0.3339 -0.545,-0.66386 -0.8223,-0.99219 -0.2845,-0.35124 -0.5735,-0.69788 -0.8652,-1.04297 -0.2792,-0.34432 -0.5616,-0.68503 -0.8477,-1.02344 -0.2691,-0.33186 -0.5427,-0.65995 -0.8183,-0.98633 -0.2738,-0.33784 -0.5517,-0.67174 -0.832,-1.0039 -0.2805,-0.3462 -0.5642,-0.68906 -0.8516,-1.0293 -0.2654,-0.32734 -0.535,-0.65064 -0.8066,-0.97266 -0.2871,-0.35446 -0.5787,-0.7045 -0.8731,-1.05273 -0.2603,-0.32066 -0.5248,-0.63757 -0.791,-0.95313 -0.2738,-0.3378 -0.5517,-0.67175 -0.832,-1.0039 -0.2766,-0.34106 -0.5566,-0.67838 -0.8399,-1.01367 -0.2617,-0.32252 -0.5272,-0.64162 -0.7949,-0.95899 -0.2715,-0.33491 -0.5462,-0.66673 -0.8242,-0.99609 -0.2649,-0.32662 -0.5336,-0.64938 -0.8047,-0.9707 -0.2787,-0.34373 -0.5621,-0.6836 -0.8477,-1.02149 -0.2585,-0.31821 -0.5208,-0.63211 -0.7851,-0.94531 -0.258,-0.31795 -0.5194,-0.63236 -0.7832,-0.94531 -0.2684,-0.33103 -0.5398,-0.65876 -0.8145,-0.98438 -0.2658,-0.32769 -0.5346,-0.65221 -0.8066,-0.97461 -0.2556,-0.31493 -0.5161,-0.6255 -0.7774,-0.93555 -0.2651,-0.32696 -0.5334,-0.65094 -0.8047,-0.97265 -0.2718,-0.33511 -0.5478,-0.66651 -0.8261,-0.9961 -0.2489,-0.3062 -0.5016,-0.60856 -0.7559,-0.91015 -0.2606,-0.32117 -0.5245,-0.63898 -0.791,-0.95508 -0.2633,-0.32436 -0.5295,-0.64566 -0.7988,-0.96484 -0.2494,-0.30695 -0.5031,-0.6098 -0.7578,-0.91211 -0.2685,-0.33085 -0.5398,-0.65891 -0.8145,-0.98438 -0.2386,-0.29358 -0.481,-0.58371 -0.7246,-0.87304 -0.2669,-0.32908 -0.5376,-0.65475 -0.8105,-0.97852 -0.246,-0.30268 -0.495,-0.6022 -0.7461,-0.90039 -0.258,-0.31788 -0.5195,-0.63238 -0.7832,-0.94531 -0.2541,-0.31274 -0.5119,-0.62174 -0.7715,-0.92969 -0.2509,-0.30871 -0.5055,-0.61393 -0.7618,-0.91797 -0.2434,-0.29976 -0.4895,-0.59721 -0.7382,-0.89258 -0.2589,-0.31884 -0.5225,-0.63339 -0.7871,-0.94726 -0.2341,-0.28792 -0.4702,-0.57356 -0.709,-0.85743 -0.2659,-0.32762 -0.5347,-0.65221 -0.8067,-0.97461 -0.2378,-0.29238 -0.4799,-0.58091 -0.7226,-0.86914 -0.239,-0.29406 -0.4808,-0.58514 -0.7246,-0.875 -0.2592,-0.3193 -0.5221,-0.63487 -0.7871,-0.94921 -0.2319,-0.28499 -0.4667,-0.56663 -0.7032,-0.84766 -0.2537,-0.31248 -0.5102,-0.62196 -0.7695,-0.92969 -0.237,-0.29142 -0.4769,-0.5799 -0.7187,-0.86719 -0.239,-0.294 -0.4808,-0.58519 -0.7247,-0.875 -0.2491,-0.30658 -0.5014,-0.61008 -0.7558,-0.91211 -0.2275,-0.27954 -0.4576,-0.55627 -0.6895,-0.83203 -0.2481,-0.3055 -0.5005,-0.60722 -0.7539,-0.9082 -0.2358,-0.28999 -0.4742,-0.57737 -0.7148,-0.86328 -0.2425,-0.29826 -0.4888,-0.59277 -0.7363,-0.88672 -0.2287,-0.28094 -0.4603,-0.55882 -0.6934,-0.83594 -0.2337,-0.28751 -0.4706,-0.57196 -0.709,-0.85547 -0.2454,-0.30186 -0.4936,-0.60097 -0.7441,-0.89843 -0.227,-0.27882 -0.4562,-0.55503 -0.6875,-0.83008 -0.2248,-0.2763 -0.4526,-0.54965 -0.6817,-0.82227 -0.2459,-0.30268 -0.495,-0.60212 -0.7461,-0.90039 -0.2196,-0.2698 -0.4422,-0.53645 -0.666,-0.80273 -0.2387,-0.29365 -0.4791,-0.58551 -0.7226,-0.875 -0.2304,-0.28303 -0.4644,-0.56264 -0.6993,-0.8418 -0.226,-0.27769 -0.4551,-0.5522 -0.6855,-0.82617 -0.2271,-0.27906 -0.458,-0.55477 -0.6895,-0.83008 -0.2219,-0.2727 -0.4457,-0.54338 -0.6718,-0.8125 -0.2332,-0.28669 -0.4693,-0.57078 -0.7071,-0.85351 -0.2266,-0.2784 -0.4564,-0.55346 -0.6875,-0.82813 -0.2179,-0.26759 -0.4381,-0.53273 -0.6601,-0.79687 -0.2266,-0.2784 -0.4566,-0.55346 -0.6875,-0.82813 -0.215,-0.26406 -0.4315,-0.5264 -0.6504,-0.78711 -0.2268,-0.27875 -0.4564,-0.55505 -0.6875,-0.83008 -0.2234,-0.27442 -0.4501,-0.54559 -0.6777,-0.8164 -0.2197,-0.2697 -0.4423,-0.53654 -0.6661,-0.80274 -0.2109,-0.25898 -0.4239,-0.51572 -0.6386,-0.77148 -0.2275,-0.27956 -0.4576,-0.55622 -0.6895,-0.83203 -0.2171,-0.26643 -0.4371,-0.52995 -0.6582,-0.79297 -0.2072,-0.2543 -0.4161,-0.50661 -0.6269,-0.75781 -0.2249,-0.27625 -0.4526,-0.54967 -0.6817,-0.82227 -0.2156,-0.26461 -0.4347,-0.52585 -0.6543,-0.78711 -0.2101,-0.25778 -0.4228,-0.51298 -0.6367,-0.76758 -0.2057,-0.25252 -0.4137,-0.50247 -0.623,-0.75195 -0.2139,-0.26268 -0.4289,-0.52382 -0.6465,-0.7832 -0.2121,-0.26039 -0.4268,-0.51824 -0.6426,-0.77539 -0.2197,-0.26973 -0.4423,-0.53649 -0.666,-0.80274 -0.1962,-0.2405 -0.3944,-0.47906 -0.5938,-0.7168 -0.2173,-0.26687 -0.4369,-0.53143 -0.6582,-0.79492 -0.206,-0.25273 -0.4154,-0.50226 -0.625,-0.75195 -0.2052,-0.25172 -0.4123,-0.5013 -0.6211,-0.75 -0.1996,-0.24497 -0.4005,-0.48836 -0.6035,-0.73047 -0.2193,-0.26933 -0.4426,-0.5349 -0.666,-0.80078 -0.1904,-0.23333 -0.3827,-0.46458 -0.5762,-0.69531 -0.2138,-0.26255 -0.4307,-0.52198 -0.6484,-0.78125 -0.1896,-0.23229 -0.3797,-0.46364 -0.5723,-0.69336 -0.2103,-0.25826 -0.4226,-0.51444 -0.6367,-0.76953 -0.2058,-0.25233 -0.4157,-0.50071 -0.625,-0.75 -0.1849,-0.22651 -0.3709,-0.45173 -0.5586,-0.67578 -0.2094,-0.25709 -0.4217,-0.51168 -0.6348,-0.76563 -0.2024,-0.24807 -0.4074,-0.49313 -0.6132,-0.73828 -0.1835,-0.2247 -0.3685,-0.44762 -0.5547,-0.66992 -0.2063,-0.25315 -0.4152,-0.5038 -0.625,-0.75391 -0.1878,-0.23011 -0.3776,-0.45794 -0.5684,-0.68555 -0.2043,-0.25053 -0.4114,-0.49853 -0.6191,-0.74609 -0.1867,-0.22867 -0.3749,-0.45545 -0.5645,-0.68164 -0.1959,-0.24014 -0.3946,-0.47743 -0.5937,-0.71484 -0.1855,-0.22725 -0.3722,-0.45294 -0.5606,-0.67774 -0.1941,-0.23805 -0.3906,-0.47361 -0.5879,-0.70898 -0.1892,-0.23194 -0.38,-0.46202 -0.5722,-0.69141 -0.193,-0.23655 -0.3879,-0.47117 -0.584,-0.70508 -0.1867,-0.22867 -0.3749,-0.45544 -0.5645,-0.68164 -0.1836,-0.22501 -0.3701,-0.4473 -0.5566,-0.66992 -0.1924,-0.23581 -0.3866,-0.46994 -0.582,-0.70313 -0.1776,-0.21742 -0.357,-0.43323 -0.5371,-0.64843 -0.1959,-0.24014 -0.3947,-0.47743 -0.5938,-0.71485 -0.17,-0.2081 -0.3412,-0.41503 -0.5137,-0.62109 -0.1917,-0.23514 -0.3852,-0.46864 -0.58,-0.70117 -0.1759,-0.21532 -0.3529,-0.42945 -0.5313,-0.64258 -0.1959,-0.24007 -0.3947,-0.47749 -0.5937,-0.71484 -0.1678,-0.20514 -0.3378,-0.40818 -0.5079,-0.61133 -0.1836,-0.22499 -0.3701,-0.44731 -0.5566,-0.66992 -0.1765,-0.21606 -0.3541,-0.43069 -0.5332,-0.64453 -0.1776,-0.21745 -0.3569,-0.43322 -0.5371,-0.64844 -0.1793,-0.21958 -0.361,-0.43699 -0.543,-0.6543 -0.175,-0.21426 -0.3517,-0.42657 -0.5293,-0.63867 -0.1735,-0.21239 -0.3494,-0.42255 -0.5254,-0.63281 -0.1726,-0.21141 -0.3463,-0.42155 -0.5215,-0.63086 -0.1776,-0.21748 -0.3569,-0.43318 -0.5371,-0.64844 -0.17,-0.20813 -0.3412,-0.415 -0.5136,-0.62109 -0.1703,-0.20841 -0.343,-0.41473 -0.5157,-0.6211 -0.1817,-0.22247 -0.3663,-0.44196 -0.5507,-0.66211 -0.1541,-0.18832 -0.3088,-0.37583 -0.4649,-0.5625 -0.1761,-0.21567 -0.3545,-0.42908 -0.5332,-0.64258 -0.1636,-0.2002 -0.3283,-0.39932 -0.4941,-0.59765 -0.173,-0.21168 -0.3481,-0.42128 -0.5235,-0.63086 -0.1651,-0.20193 -0.3326,-0.40154 -0.5,-0.60156 -0.1692,-0.20702 -0.3401,-0.41218 -0.5117,-0.61719 -0.1558,-0.19046 -0.3129,-0.3796 -0.4707,-0.56836 -0.1689,-0.2067 -0.3385,-0.41249 -0.5098,-0.61719 -0.1662,-0.20334 -0.3353,-0.40406 -0.5039,-0.60547 -0.1488,-0.18186 -0.2986,-0.36265 -0.4492,-0.54297 -0.1711,-0.20956 -0.344,-0.41748 -0.5176,-0.625 -0.1584,-0.19371 -0.318,-0.38616 -0.4785,-0.57812 -0.1651,-0.20193 -0.3326,-0.40154 -0.5,-0.60156 -0.1494,-0.18259 -0.2999,-0.36389 -0.4511,-0.54493 -0.1607,-0.19655 -0.3236,-0.39117 -0.4864,-0.58593 -0.1502,-0.18368 -0.301,-0.36673 -0.4531,-0.54883 -0.1659,-0.20303 -0.3339,-0.40436 -0.5019,-0.60547 -0.1518,-0.18543 -0.3054,-0.36891 -0.459,-0.55273 -0.1532,-0.18726 -0.3078,-0.37298 -0.4629,-0.5586 -0.1585,-0.1937 -0.318,-0.38617 -0.4785,-0.57812 -0.1439,-0.17568 -0.2901,-0.3492 -0.4356,-0.52344 -0.1499,-0.1833 -0.3014,-0.36513 -0.4531,-0.54688 -0.1538,-0.18804 -0.3072,-0.37609 -0.4629,-0.5625 -0.1491,-0.18217 -0.3003,-0.36232 -0.4512,-0.54296 -0.1517,-0.18542 -0.3054,-0.36892 -0.459,-0.55274 -0.1467,-0.1793 -0.2948,-0.35734 -0.4433,-0.53515 -0.1512,-0.18469 -0.304,-0.36768 -0.4571,-0.55079 -0.1391,-0.17 -0.2791,-0.33915 -0.4199,-0.50781 -0.1485,-0.18151 -0.2989,-0.36103 -0.4492,-0.54101 -0.1447,-0.17679 -0.291,-0.35202 -0.4375,-0.52735 -0.1398,-0.1707 -0.2805,-0.34042 -0.4219,-0.50976 -0.1468,-0.17934 -0.2948,-0.35732 -0.4433,-0.53516 -0.1393,-0.17001 -0.2791,-0.33914 -0.4199,-0.50781 -0.1407,-0.17176 -0.2836,-0.34134 -0.4258,-0.51172 -0.1387,-0.16929 -0.2778,-0.3379 -0.418,-0.50586 -0.1491,-0.18216 -0.3002,-0.36234 -0.4512,-0.54297 -0.1228,-0.14986 -0.247,-0.29845 -0.3711,-0.44726 -0.1482,-0.18118 -0.2972,-0.36137 -0.4472,-0.54102 -0.1358,-0.16565 -0.2729,-0.32976 -0.4102,-0.49414 -0.1266,-0.15455 -0.2549,-0.30749 -0.3828,-0.46094 -0.1459,-0.17823 -0.2938,-0.35449 -0.4414,-0.53125 -0.1259,-0.1535 -0.2518,-0.30658 -0.3789,-0.45898 -0.1366,-0.1668 -0.274,-0.33254 -0.4121,-0.49805 -0.1255,-0.15309 -0.2522,-0.30502 -0.3789,-0.45703 -0.1398,-0.17068 -0.2806,-0.34043 -0.4219,-0.50977 -0.1244,-0.15167 -0.2494,-0.30251 -0.375,-0.45312 -0.1316,-0.16062 -0.2655,-0.31909 -0.3984,-0.47852 -0.1279,-0.15606 -0.2556,-0.31186 -0.3848,-0.46679 -0.1316,-0.1606 -0.2654,-0.31912 -0.3984,-0.47852 -0.1247,-0.15202 -0.2511,-0.30217 -0.377,-0.45312 -0.1249,-0.15241 -0.2507,-0.30375 -0.3769,-0.45508 -0.1226,-0.14955 -0.2454,-0.29875 -0.3692,-0.44727 -0.1296,-0.15809 -0.2616,-0.31376 -0.3926,-0.4707 -0.1144,-0.13955 -0.2282,-0.27932 -0.3437,-0.41797 -0.1264,-0.15426 -0.2532,-0.30778 -0.3809,-0.46094 -0.1202,-0.14665 -0.2419,-0.29184 -0.3633,-0.4375 -0.1302,-0.15887 -0.2609,-0.3169 -0.3925,-0.47461 -0.1069,-0.13015 -0.2145,-0.2593 -0.3223,-0.38867 -0.1284,-0.15665 -0.259,-0.31128 -0.3887,-0.4668 -0.1094,-0.13336 -0.2197,-0.26589 -0.3301,-0.39843 -0.116,-0.14169 -0.2323,-0.28307 -0.3496,-0.42383 -0.126,-0.15383 -0.2535,-0.30625 -0.3808,-0.45899 -0.1139,-0.13869 -0.2289,-0.27625 -0.3438,-0.41406 -0.1074,-0.13087 -0.2159,-0.26054 -0.3242,-0.39062 -0.1223,-0.14916 -0.2456,-0.29718 -0.3691,-0.44532 -0.098,-0.11973 -0.1978,-0.23834 -0.2969,-0.35742 -0.117,-0.14279 -0.2334,-0.28588 -0.3516,-0.42773 -0.1208,-0.14733 -0.2432,-0.29313 -0.3652,-0.43946 -0.1045,-0.12719 -0.2111,-0.25244 -0.3164,-0.3789 -0.1051,-0.12803 -0.2105,-0.25554 -0.3164,-0.38281 -0.1132,-0.13803 -0.2275,-0.27496 -0.3418,-0.41211 -0.1054,-0.12836 -0.2121,-0.25521 -0.3184,-0.38282 -0.1045,-0.12731 -0.2091,-0.25429 -0.3144,-0.38086 -0.1109,-0.13516 -0.2221,-0.26996 -0.334,-0.40429 -0.096,-0.11652 -0.1927,-0.23177 -0.2891,-0.34766 -0.1159,-0.14127 -0.2326,-0.28151 -0.3496,-0.42187 -0.088,-0.1069 -0.1752,-0.21395 -0.2637,-0.32032 -0.1116,-0.13623 -0.2251,-0.27087 -0.3378,-0.40625 -0.1057,-0.12866 -0.2118,-0.25685 -0.3184,-0.38476 -0.092,-0.11254 -0.1861,-0.22398 -0.2793,-0.33594 -0.092,-0.11257 -0.1862,-0.22394 -0.2793,-0.33594 -0.1206,-0.14702 -0.2415,-0.29342 -0.3633,-0.43945 -0.077,-0.0935 -0.155,-0.18614 -0.2324,-0.2793 -0.1074,-0.13087 -0.2159,-0.26053 -0.3242,-0.39062 -0.088,-0.1076 -0.1766,-0.2152 -0.2656,-0.32227 -0.099,-0.1208 -0.1989,-0.24119 -0.2989,-0.36133 -0.086,-0.10508 -0.1728,-0.20986 -0.2597,-0.31445 -0.1092,-0.13297 -0.22,-0.26432 -0.3301,-0.39648 -0.078,-0.0954 -0.1574,-0.19019 -0.2363,-0.28516 -0.097,-0.11794 -0.1954,-0.23426 -0.293,-0.35156 -0.1,-0.12152 -0.2002,-0.24244 -0.3008,-0.36328 -0.075,-0.0918 -0.1526,-0.18207 -0.2285,-0.27344 -0.081,-0.0987 -0.1606,-0.19859 -0.2422,-0.29687 -0.099,-0.12016 -0.1975,-0.23989 -0.2969,-0.35938 -0.091,-0.11113 -0.1834,-0.22147 -0.2754,-0.33203 -0.084,-0.10216 -0.1693,-0.20301 -0.2539,-0.30469 -0.091,-0.11042 -0.182,-0.22021 -0.2734,-0.33008 -0.075,-0.0911 -0.1512,-0.1808 -0.2266,-0.27148 -0.076,-0.0926 -0.1519,-0.18516 -0.2285,-0.27734 -0.1,-0.12158 -0.2002,-0.24239 -0.3008,-0.36329 -0.073,-0.0882 -0.1457,-0.17579 -0.2187,-0.26367 -0.085,-0.10398 -0.1718,-0.20707 -0.2578,-0.31054 -0.079,-0.0957 -0.1591,-0.18987 -0.2383,-0.28516 -0.077,-0.0933 -0.1533,-0.18643 -0.2305,-0.2793 -0.077,-0.0933 -0.1533,-0.18643 -0.2304,-0.2793 -0.075,-0.0914 -0.151,-0.18236 -0.2266,-0.27343 -0.081,-0.0979 -0.1612,-0.19548 -0.2422,-0.29297 -0.075,-0.0911 -0.1512,-0.18079 -0.2266,-0.27149 -0.078,-0.0954 -0.1573,-0.19017 -0.2363,-0.28515 -0.065,-0.079 -0.13,-0.15767 -0.1953,-0.23633 -0.078,-0.0951 -0.1557,-0.19047 -0.2344,-0.28516 -0.076,-0.0928 -0.1536,-0.18488 -0.2304,-0.27734 -0.062,-0.0753 -0.1252,-0.14954 -0.1875,-0.22461 -0.075,-0.0914 -0.151,-0.18237 -0.2266,-0.27344 -0.061,-0.0743 -0.1222,-0.1486 -0.1836,-0.22265 -0.086,-0.10399 -0.1717,-0.20705 -0.2578,-0.31055 -0.047,-0.0568 -0.094,-0.11331 -0.1406,-0.16992 -0.091,-0.11005 -0.1824,-0.21863 -0.2735,-0.32813 -0.045,-0.0546 -0.09,-0.10956 -0.1347,-0.16406 -0.07,-0.0847 -0.139,-0.16953 -0.209,-0.25391 -0.068,-0.0825 -0.1369,-0.16392 -0.2051,-0.24609 -0.067,-0.0814 -0.1338,-0.163 -0.2012,-0.24414 -0.062,-0.0749 -0.1255,-0.148 -0.1875,-0.22266 -0.045,-0.0546 -0.09,-0.10955 -0.1347,-0.16406 -0.079,-0.0965 -0.1585,-0.193 -0.2383,-0.28906 -0.044,-0.0539 -0.09,-0.10642 -0.1348,-0.16016 -0.069,-0.084 -0.1376,-0.16829 -0.207,-0.25195 -0.05,-0.0607 -0.1002,-0.12111 -0.1504,-0.18164 -0.061,-0.0743 -0.1222,-0.14859 -0.1836,-0.22266 -0.06,-0.0732 -0.1211,-0.14578 -0.1816,-0.21875 -0.053,-0.0642 -0.1071,-0.12736 -0.1602,-0.1914 -0.046,-0.0561 -0.092,-0.11204 -0.1387,-0.16797 -0.059,-0.0715 -0.1167,-0.14361 -0.1758,-0.21485 -0.062,-0.0753 -0.1252,-0.14955 -0.1874,-0.22461 -0.038,-0.0457 -0.076,-0.0911 -0.1133,-0.13671 -0.056,-0.0678 -0.1119,-0.13549 -0.168,-0.20313 -0.041,-0.05 -0.082,-0.10051 -0.123,-0.15039 -0.067,-0.081 -0.1342,-0.16144 -0.2012,-0.24219 -0.039,-0.0474 -0.08,-0.0933 -0.1192,-0.14062 -0.046,-0.0553 -0.091,-0.11082 -0.1367,-0.16602 -0.044,-0.0536 -0.089,-0.10673 -0.1328,-0.16015 -0.049,-0.06 -0.099,-0.11986 -0.1484,-0.17969 -0.05,-0.0607 -0.1002,-0.12114 -0.1504,-0.18164 -0.035,-0.0421 -0.071,-0.083 -0.1055,-0.125 -0.042,-0.0503 -0.083,-0.10017 -0.125,-0.15039 -0.039,-0.0479 -0.078,-0.0968 -0.1172,-0.14453 -0.045,-0.0547 -0.09,-0.10955 -0.1347,-0.16407 -0.044,-0.0535 -0.089,-0.10675 -0.1329,-0.16015 -0.038,-0.0464 -0.077,-0.0924 -0.1152,-0.13868 -0.036,-0.0432 -0.072,-0.0858 -0.1074,-0.1289 -0.036,-0.0443 -0.073,-0.0887 -0.1094,-0.13281 -0.041,-0.0496 -0.082,-0.099 -0.123,-0.14844 -0.033,-0.0403 -0.068,-0.0789 -0.1016,-0.11914 -0.027,-0.0329 -0.053,-0.0668 -0.08,-0.0996 -0.038,-0.0461 -0.075,-0.0927 -0.1133,-0.13867 -0.044,-0.0532 -0.089,-0.10518 -0.1328,-0.15821 -0.024,-0.0296 -0.05,-0.0583 -0.074,-0.0879 -0.029,-0.035 -0.057,-0.0705 -0.086,-0.10547 -0.034,-0.0414 -0.069,-0.0817 -0.1035,-0.12304 -0.022,-0.0264 -0.043,-0.0537 -0.064,-0.0801 -0.033,-0.0396 -0.065,-0.0796 -0.098,-0.11914 -0.032,-0.0388 -0.066,-0.0765 -0.098,-0.11524 -0.019,-0.0228 -0.038,-0.0455 -0.057,-0.0684 -0.042,-0.0507 -0.083,-0.10176 -0.125,-0.15234 -0.01,-0.007 -0.012,-0.0128 -0.018,-0.0195 -0.042,-0.0514 -0.084,-0.10301 -0.127,-0.1543 -0.01,-0.01 -0.017,-0.0193 -0.025,-0.0293 -0.025,-0.0307 -0.051,-0.0612 -0.076,-0.0918 -0.02,-0.0239 -0.039,-0.0484 -0.059,-0.0723 -0.025,-0.03 -0.05,-0.0599 -0.074,-0.0898 -0.019,-0.0228 -0.038,-0.0455 -0.057,-0.0684 -0.015,-0.0182 -0.03,-0.0365 -0.045,-0.0547 -0.018,-0.0214 -0.035,-0.0431 -0.053,-0.0644 -0.027,-0.0324 -0.055,-0.0653 -0.082,-0.0977 -0.01,-0.01 -0.017,-0.0193 -0.025,-0.0293 -0.022,-0.0267 -0.044,-0.0534 -0.066,-0.0801 -0.027,-0.0325 -0.053,-0.0652 -0.08,-0.0977 0,-10e-4 0,-0.002 0,-0.004 0,-0.004 -0.01,-0.009 -0.01,-0.0137 -0.01,-0.0125 -0.021,-0.0247 -0.031,-0.0371 -0.018,-0.0221 -0.036,-0.0443 -0.055,-0.0664 -0.01,-0.0111 -0.018,-0.0222 -0.027,-0.0332 -0.01,-0.0104 -0.017,-0.0209 -0.025,-0.0312 -0.01,-0.009 -0.016,-0.0181 -0.023,-0.0274 -0.01,-0.008 -0.013,-0.0156 -0.02,-0.0234 -0.01,-0.007 -0.014,-0.0147 -0.019,-0.0215 v -0.002 c 0,-0.002 0,-0.005 -0.01,-0.008 0,-0.002 0,-0.005 -0.01,-0.008 0,-0.005 -0.01,-0.0106 -0.012,-0.0156 0,-0.004 0,-0.008 -0.01,-0.0117 0,-0.003 -0.01,-0.005 -0.01,-0.008 0,-0.001 0,-0.004 0,-0.006 -0.7255,-0.87794 -1.4725,-1.738 -2.2383,-2.58008 0,-0.003 -0.01,-0.005 -0.01,-0.008 0,-0.001 0,-0.003 0,-0.004 v -0.002 c -0.766,-0.8419 -1.5526,-1.6642 -2.3574,-2.46875 0,-0.003 -0.01,-0.005 -0.01,-0.008 -6e-4,-6.5e-4 0,-0.003 0,-0.004 -3.237,-3.23438 -6.7812,-6.16209 -10.5859,-8.73242 v 0 c -2.8532,-1.92739 -5.8519,-3.65554 -8.9766,-5.16211 v 0 c -0.4711,-0.22713 -0.9549,-0.43141 -1.4316,-0.64844 -0.5768,-0.26259 -1.1495,-0.53758 -1.7344,-0.78516 -1.0684,-0.45223 -2.1501,-0.8783 -3.2441,-1.27929 v 0 c -1.094,-0.40097 -2.2002,-0.77678 -3.3183,-1.125 v 0 c -0.444,-0.13827 -0.8981,-0.25303 -1.3457,-0.38282 -0.6807,-0.19733 -1.3561,-0.40459 -2.0449,-0.58203 -5.7068,-1.47041 -11.68627,-2.25195 -17.84572,-2.25195 H 389.6582 Z"
         style="fill:#000001;fill-opacity:0.247059;stroke-width:0.904747"
         id="path6839" />
      <path
         d="m 185.48668,256.25419 h -2.4e-4 -5.99887 c -5.88398,0 -10.67135,-4.80629 -10.67159,-10.7142 v -9.44524 c -1.26776,-0.45674 -2.51805,-0.9793 -3.74032,-1.56363 l -6.63851,6.67273 c -2.01558,2.0266 -4.69664,3.14259 -7.5491,3.14259 -2.85222,2.4e-4 -5.53376,-1.11551 -7.54983,-3.14187 l -4.24206,-4.26433 c -4.15302,-4.17384 -4.15325,-10.96698 -4.8e-4,-15.14297 l 6.65047,-6.68447 c -0.58457,-1.23376 -1.10761,-2.49673 -1.56411,-3.7779 l -9.38276,-4.8e-4 c -2.85318,0 -5.53376,-1.11575 -7.54935,-3.14187 -2.01247,-2.02229 -3.12104,-4.71149 -3.12104,-7.57113 v -6.03047 c 0,-5.90672 4.78665,-10.713 10.67015,-10.7142 h 9.38348 c 0.45674,-1.28165 0.97954,-2.54438 1.56363,-3.77767 l -6.64975,-6.68422 c -2.01247,-2.02253 -3.12129,-4.71173 -3.12129,-7.57137 0,-2.85916 1.10834,-5.54836 3.12081,-7.57137 l 4.2423,-4.26409 c 2.01343,-2.02396 4.69473,-3.13851 7.55007,-3.13851 2.85485,0 5.53591,1.11431 7.54958,3.13804 l 6.63874,6.67297 c 1.2218,-0.58385 2.47209,-1.10666 3.74009,-1.56316 v -9.44572 c -4.8e-4,-5.90767 4.78641,-10.71395 10.67039,-10.71395 h 5.99887 c 5.88422,0 10.67135,4.80628 10.67135,10.71395 v 9.44572 c 1.268,0.45674 2.51829,0.97955 3.74008,1.56364 l 6.63875,-6.67298 c 2.01415,-2.02659 4.69545,-3.14306 7.54886,-3.14306 2.85294,0 5.53448,1.11623 7.55055,3.1433 l 4.24134,4.26241 c 4.15302,4.17432 4.15326,10.96771 9.6e-4,15.1437 l -6.65119,6.68566 c 0.58146,1.22922 1.10283,2.49123 1.56028,3.77695 l 9.38755,7.2e-4 c 2.85438,0 5.53424,1.11575 7.54911,3.14187 2.01247,2.02252 3.1208,4.71172 3.1208,7.57137 l 4.8e-4,6.02951 c 0,5.90672 -4.78665,10.71324 -10.67039,10.71468 h -9.38731 c -0.45745,1.28547 -0.97883,2.54773 -1.56028,3.77719 l 6.65071,6.68542 c 2.01247,2.02228 3.12104,4.71124 3.12104,7.57065 0,2.85916 -1.10809,5.54812 -3.12032,7.57136 l -4.24254,4.26433 c -2.01295,2.02372 -4.69426,3.13828 -7.55031,3.13828 -2.85509,0 -5.53615,-1.11432 -7.54982,-3.1378 l -6.63874,-6.67321 c -1.22204,0.58432 -2.47209,1.10689 -3.73961,1.56315 l -7.2e-4,9.44644 c 9.6e-4,2.85796 -1.10713,5.54693 -3.12032,7.57065 -2.01607,2.02636 -4.69689,3.14235 -7.54959,3.14259 z m -20.87997,-27.01051 c 0.38181,0 0.76626,0.0917 1.11982,0.28007 1.98088,1.05591 4.05942,1.9251 6.17842,2.5834 0.9963,0.30952 1.67518,1.23137 1.67518,2.27459 v 11.15825 c 2.4e-4,3.28095 2.65018,5.95005 5.90767,5.95005 h 5.99864 c 1.57561,0 3.05737,-0.61737 4.17265,-1.73863 1.11838,-1.12437 1.73431,-2.61954 1.73383,-4.21022 l 7.2e-4,-11.16016 c 2.4e-4,-1.04322 0.67888,-1.96508 1.67542,-2.2746 2.11828,-0.65806 4.19658,-1.52701 6.17674,-2.58268 0.92712,-0.49384 2.06825,-0.32292 2.80937,0.42203 l 7.85791,7.89836 c 1.1124,1.11815 2.59441,1.73408 4.1724,1.73408 1.57848,0 3.06048,-0.61593 4.17289,-1.73408 l 4.2423,-4.26432 c 1.11815,-1.12437 1.73407,-2.62026 1.73407,-4.2119 0,-1.59141 -0.61592,-3.08682 -1.73431,-4.21071 l -7.85767,-7.8986 c -0.7349,-0.73873 -0.90438,-1.86956 -0.4182,-2.79118 1.04203,-1.97512 1.90571,-4.06611 2.5676,-6.21575 0.3076,-0.99918 1.23113,-1.68069 2.27651,-1.68069 h 11.10558 c 3.25702,-7.2e-4 5.9072,-2.67029 5.9072,-5.95077 l -4.8e-4,-6.02904 c 0,-1.59188 -0.61593,-3.08777 -1.73455,-4.21214 -1.11432,-1.12054 -2.59441,-1.73742 -4.1681,-1.73742 l -11.10989,-9.6e-4 c -1.04538,-2.4e-4 -1.96843,-0.68199 -2.27627,-1.68069 -0.66189,-2.1494 -1.52581,-4.24063 -2.5676,-6.21528 -0.48642,-0.92185 -0.31694,-2.05269 0.4182,-2.79141 l 7.85767,-7.89837 c 2.30978,-2.32271 2.30978,-6.10205 -2.4e-4,-8.42404 l -4.24159,-4.26241 c -1.11575,-1.12198 -2.59775,-1.73934 -4.17312,-1.73934 -1.5756,0 -3.05689,0.61736 -4.17073,1.73814 l -7.8591,7.89932 c -0.74112,0.74472 -1.88273,0.91587 -2.80961,0.42179 -1.97896,-1.05519 -4.0575,-1.92438 -6.17746,-2.58339 -0.9963,-0.30952 -1.67518,-1.23138 -1.67518,-2.2746 v -11.15873 c 0,-3.28071 -2.64994,-5.9498 -5.90744,-5.9498 h -5.99887 c -3.25702,0 -5.90696,2.66909 -5.90696,5.9498 v 11.15849 c 0,1.04322 -0.67888,1.96508 -1.67518,2.27484 -2.11996,0.65853 -4.1985,1.52772 -6.17794,2.58291 -0.92712,0.49384 -2.06825,0.32293 -2.80913,-0.42203 l -7.85767,-7.89836 c -1.1124,-1.11815 -2.59417,-1.73407 -4.17216,-1.73407 -1.578,0 -3.06001,0.61592 -4.17289,1.73455 l -4.24206,4.26385 c -1.11839,1.12413 -1.73431,2.61978 -1.73431,4.21166 2.4e-4,1.5914 0.61616,3.08705 1.73455,4.21118 l 7.85743,7.89813 c 0.73514,0.73896 0.90438,1.8698 0.41796,2.79165 -1.04945,1.9883 -1.91457,4.07905 -2.57167,6.21456 -0.30736,0.99942 -1.23089,1.68141 -2.27651,1.68141 h -11.10127 c -3.25678,7.2e-4 -5.90672,2.66981 -5.90672,5.95005 v 6.03047 c 0,1.59164 0.61593,3.08705 1.73431,4.21119 1.11528,1.12078 2.59633,1.73814 4.17049,1.73814 l 11.10319,4.8e-4 c 1.04562,0 1.96915,0.68223 2.27651,1.68141 0.65638,2.13336 1.5215,4.22435 2.57191,6.2148 0.48642,0.92185 0.31694,2.05268 -0.4182,2.79165 l -7.85743,7.89788 c -2.30978,2.32247 -2.31002,6.10158 2.4e-4,8.42333 l 4.24182,4.26432 c 1.11528,1.12102 2.59728,1.73815 4.17265,1.73815 1.57536,0 3.05689,-0.61737 4.17168,-1.73838 l 7.85791,-7.89837 c 0.45817,-0.46057 1.06979,-0.70186 1.68907,-0.70186 z m 17.93296,-6.95161 c -13.5195,0 -24.51832,-11.05029 -24.51832,-24.63298 0,-13.5827 10.99882,-24.63322 24.51832,-24.63322 13.51926,0 24.51832,11.05052 24.51832,24.63322 0,13.58269 -10.99882,24.63298 -24.51832,24.63298 z m 0,-44.47859 c -10.87961,0 -19.73071,8.90256 -19.73071,19.84561 0,10.9428 8.8511,19.84537 19.73071,19.84537 10.87961,0 19.7307,-8.90257 19.7307,-19.84537 0,-10.94305 -8.85109,-19.84561 -19.7307,-19.84561 z M 166.21931,63.614269 h 32.53107 c 2.84874,0 5.16119,-2.313614 5.16119,-5.161764 0,-2.848737 -2.31303,-5.161766 -5.16119,-5.161766 h -32.53107 c -2.84873,0 -5.16176,2.313029 -5.16176,5.161766 0,2.84815 2.31303,5.161764 5.16176,5.161764 z m 0,-6.14282 h 32.53107 c 0.54096,0 0.98106,0.440104 0.98106,0.981056 0,0.540366 -0.4401,0.981056 -0.98106,0.981056 h -32.53107 c -0.54095,0 -0.98105,-0.44069 -0.98105,-0.981056 0,-0.540952 0.4401,-0.981056 0.98105,-0.981056 z M 202.13366,317.256 h -39.29237 c -4.36433,0 -7.92073,3.55583 -7.92073,7.92072 0,4.36492 3.5564,7.92075 7.92073,7.92075 h 39.29237 c 4.36433,0 7.92073,-3.55583 7.92073,-7.92075 -0.006,-4.36489 -3.55582,-7.92072 -7.92073,-7.92072 z m 0,11.66076 h -39.29237 c -2.06238,0 -3.74061,-1.67708 -3.74061,-3.74004 0,-2.06178 1.67765,-3.74001 3.74061,-3.74001 h 39.29237 c 2.06237,0 3.74002,1.67823 3.74002,3.74001 -0.006,2.06296 -1.67765,3.74004 -3.74002,3.74004 z M 258.19899,85.832884 H 106.77594 c -1.1536,0 -2.09035,0.936754 -2.09035,2.090356 v 208.71484 c 0,1.15362 0.93617,2.09037 2.09035,2.09037 h 151.42305 c 1.15361,0 2.09036,-0.93675 2.09036,-2.09037 V 87.922656 c 0,-1.153599 -0.93675,-2.089772 -2.09036,-2.089772 z M 256.10864,294.54716 H 108.8663 V 90.013011 H 256.10864 Z M 261.87723,33.820014 H 103.09714 c -10.429624,0 -18.919281,8.478001 -18.919281,18.913452 V 342.47898 c 0,10.43022 8.489657,18.91289 18.919281,18.91289 h 158.78009 c 10.42962,0 18.9187,-8.47742 18.9187,-18.91289 V 52.727637 c 4.8e-4,-10.429622 -8.48908,-18.907623 -18.9187,-18.907623 z m 10.55786,308.658966 c 0,5.8199 -4.73798,10.55205 -10.55728,10.55205 H 103.09714 c -5.819298,0 -10.55786,-4.73158 -10.55786,-10.55205 V 52.727637 c 0,-5.8193 4.737964,-10.552036 10.55786,-10.552036 h 158.78009 c 5.8193,0 10.55728,4.732152 10.55728,10.552036 V 342.47898 Z"
         style="fill:#eaac52;fill-opacity:1;stroke-width:0.239381"
         id="path4607" />
    </g>
  </g>
</svg>
