<?xml version="1.0" encoding="UTF-8" standalone="no"?>
<svg
   xmlns:dc="http://purl.org/dc/elements/1.1/"
   xmlns:cc="http://creativecommons.org/ns#"
   xmlns:rdf="http://www.w3.org/1999/02/22-rdf-syntax-ns#"
   xmlns:svg="http://www.w3.org/2000/svg"
   xmlns="http://www.w3.org/2000/svg"
   xmlns:sodipodi="http://sodipodi.sourceforge.net/DTD/sodipodi-0.dtd"
   xmlns:inkscape="http://www.inkscape.org/namespaces/inkscape"
   sodipodi:docname="fisica1_scalable.svg"
   inkscape:version="1.0 (4035a4fb49, 2020-05-01)"
   id="svg35637"
   version="1.1"
   viewBox="0 0 67.733284 67.733315"
   height="67.733315mm"
   width="67.733284mm">
  <defs
     id="defs35631" />
  <sodipodi:namedview
     fit-margin-bottom="0"
     fit-margin-right="0"
     fit-margin-left="0"
     fit-margin-top="0"
     inkscape:window-maximized="1"
     inkscape:window-y="24"
     inkscape:window-x="0"
     inkscape:window-height="1056"
     inkscape:window-width="1920"
     showgrid="false"
     inkscape:document-rotation="0"
     inkscape:current-layer="layer1"
     inkscape:document-units="mm"
     inkscape:cy="119.38721"
     inkscape:cx="150.54439"
     inkscape:zoom="1.979899"
     inkscape:pageshadow="2"
     inkscape:pageopacity="0.0"
     borderopacity="1.0"
     bordercolor="#666666"
     pagecolor="#ffffff"
     id="base" />
  <metadata
     id="metadata35634">
    <rdf:RDF>
      <cc:Work
         rdf:about="">
        <dc:format>image/svg+xml</dc:format>
        <dc:type
           rdf:resource="http://purl.org/dc/dcmitype/StillImage" />
        <dc:title></dc:title>
        <cc:license
           rdf:resource="http://creativecommons.org/licenses/by-sa/4.0/" />
      </cc:Work>
      <cc:License
         rdf:about="http://creativecommons.org/licenses/by-sa/4.0/">
        <cc:permits
           rdf:resource="http://creativecommons.org/ns#Reproduction" />
        <cc:permits
           rdf:resource="http://creativecommons.org/ns#Distribution" />
        <cc:requires
           rdf:resource="http://creativecommons.org/ns#Notice" />
        <cc:requires
           rdf:resource="http://creativecommons.org/ns#Attribution" />
        <cc:permits
           rdf:resource="http://creativecommons.org/ns#DerivativeWorks" />
        <cc:requires
           rdf:resource="http://creativecommons.org/ns#ShareAlike" />
      </cc:License>
    </rdf:RDF>
  </metadata>
  <g
     transform="translate(-93.133377,-138.49048)"
     id="layer1"
     inkscape:groupmode="layer"
     inkscape:label="Livello 1">
    <g
       id="g38284" />
    <g
       inkscape:export-ydpi="768"
       inkscape:export-xdpi="768"
       inkscape:export-filename="/home/fjall/Icone/2048x2048/I anno/fisica1.png"
       transform="matrix(1,0,0,0.99999391,0,8.4390167e-4)"
       id="g43450">
      <rect
         style="fill:#4d4d4d;fill-opacity:1;fill-rule:evenodd;stroke:none;stroke-width:3.35039;stroke-linecap:square;stroke-linejoin:miter;stroke-miterlimit:4;stroke-dasharray:none;stroke-dashoffset:0;stroke-opacity:0.989899;paint-order:markers fill stroke"
         id="rect857-5"
         width="67.733253"
         height="67.733315"
         x="93.133377"
         y="138.49048"
         inkscape:export-xdpi="96"
         inkscape:export-ydpi="96" />
      <path
         id="path39414"
         style="fill:#000001;fill-opacity:0.184314;stroke:none;stroke-width:1.95;stroke-linecap:round;stroke-linejoin:bevel;stroke-miterlimit:4;stroke-dasharray:none;stroke-dashoffset:0;stroke-opacity:0.839216;paint-order:normal"
         d="m 480.19531,537.23242 -0.0137,0.006 c -3.39779,0 -6.65677,1.34817 -9.06055,3.75195 -2.40378,2.40378 -3.75195,5.66276 -3.75195,9.06055 0,0.48635 0.0342,0.96521 0.0859,1.4375 0.11036,-0.0983 0.22053,-0.19501 0.33203,-0.29101 0.0151,0.24453 0.0228,0.48994 0.0488,0.73046 0.11036,-0.0983 0.22091,-0.19501 0.33203,-0.29101 0.0151,0.24264 0.0228,0.48574 0.0508,0.72461 0.10998,-0.0979 0.22091,-0.19344 0.33203,-0.28906 0.0151,0.24226 0.0228,0.48428 0.0508,0.72265 0.10961,-0.0975 0.21972,-0.19382 0.33008,-0.28906 0.0151,0.24265 0.0228,0.4857 0.0508,0.72461 0.10885,-0.0968 0.21852,-0.19224 0.32813,-0.28711 0.0151,0.24189 0.0228,0.48443 0.0508,0.72266 0.1096,-0.0975 0.21971,-0.19382 0.33008,-0.28907 0.0151,0.24189 0.0266,0.48451 0.0527,0.72266 0.10961,-0.0971 0.21972,-0.19224 0.33008,-0.28711 0.0151,0.24076 0.0209,0.4817 0.0488,0.71875 0.10847,-0.0964 0.21852,-0.19105 0.32812,-0.28516 0.0151,0.24038 0.0228,0.48204 0.0508,0.71875 -0.0911,0.0805 -0.18271,0.1578 -0.27343,0.24024 -0.0378,-0.22375 -0.0794,-0.44638 -0.10547,-0.67383 -0.0926,0.082 -0.1855,0.16061 -0.27735,0.24414 -0.0378,-0.22413 -0.0774,-0.44765 -0.10351,-0.67578 -0.093,0.0824 -0.18708,0.15986 -0.2793,0.24414 -0.0382,-0.22488 -0.0774,-0.44907 -0.10351,-0.67773 -0.0915,0.0813 -0.18469,0.15746 -0.2754,0.24023 -0.0378,-0.22413 -0.0778,-0.44772 -0.10351,-0.67578 -0.0922,0.082 -0.1855,0.16061 -0.27735,0.24414 -0.0378,-0.22526 -0.0778,-0.4505 -0.10351,-0.67969 -0.0926,0.0824 -0.18745,0.16024 -0.2793,0.24414 -0.0378,-0.22488 -0.0778,-0.44907 -0.10351,-0.67773 -0.0926,0.0824 -0.18708,0.15986 -0.2793,0.24414 -0.0378,-0.22488 -0.0778,-0.44892 -0.10352,-0.67774 -0.0922,0.082 -0.18587,0.16024 -0.27734,0.24415 -0.0378,-0.22715 -0.0778,-0.45278 -0.10352,-0.6836 -1.35231,1.20601 -2.64056,2.57802 -3.85156,4.0918 v 0.004 c -4.53543,5.6693 -8.34757,13.45574 -11.54883,22.91211 v 0.004 c -1.2551,3.70968 -2.40779,7.68609 -3.45703,11.88477 0.15194,0.0601 0.30652,0.12507 0.45899,0.18554 -0.0227,0.0847 -0.0413,0.17315 -0.0625,0.25781 0.15118,0.0597 0.30539,0.12313 0.45703,0.1836 -0.0227,0.0839 -0.0417,0.17157 -0.0625,0.25586 0.15194,0.0601 0.30652,0.12469 0.45898,0.18554 -0.0227,0.0843 -0.0413,0.1712 -0.0625,0.25586 0.15194,0.0601 0.30652,0.1247 0.45899,0.18555 -0.0227,0.0847 -0.0429,0.16887 -0.0645,0.25391 0.15383,0.0608 0.31034,0.12589 0.46485,0.1875 -0.0227,0.085 -0.0445,0.16616 -0.0664,0.25195 0.15345,0.0608 0.30918,0.12627 0.46289,0.1875 -0.0227,0.0858 -0.0464,0.16773 -0.0684,0.25391 0.15383,0.0608 0.3103,0.12589 0.46485,0.1875 -0.0227,0.0858 -0.0464,0.16773 -0.0684,0.2539 0.15345,0.0609 0.30917,0.1259 0.46289,0.1875 -0.0227,0.085 -0.0445,0.16654 -0.0664,0.25196 0.15345,0.0608 0.30914,0.12589 0.46289,0.1875 -0.0227,0.0843 -0.0449,0.16571 -0.0664,0.25 0.15307,0.0608 0.30767,0.12627 0.46093,0.1875 -0.0227,0.0847 -0.0445,0.16691 -0.0664,0.25195 0.15345,0.0608 0.3088,0.12589 0.46289,0.1875 -0.0227,0.0847 -0.0445,0.16691 -0.0664,0.25195 0.15232,0.0605 0.30652,0.12432 0.45899,0.18555 -0.0227,0.0847 -0.0445,0.16691 -0.0664,0.25195 0.15383,0.0612 0.30876,0.1259 0.46289,0.1875 -0.0227,0.0839 -0.0445,0.1661 -0.0664,0.25 0.1527,0.0609 0.30768,0.12394 0.46094,0.18555 -0.0227,0.0843 -0.0441,0.16729 -0.0664,0.25195 0.15231,0.0609 0.30614,0.12432 0.45898,0.18555 -0.0227,0.0835 -0.0445,0.16609 -0.0664,0.25 0.15194,0.0605 0.30461,0.12432 0.45704,0.18555 -0.0227,0.0843 -0.0441,0.16729 -0.0664,0.25195 0.0189,0.008 0.0377,0.0159 0.0547,0.0234 -0.0189,0.0847 -0.0377,0.16924 -0.0547,0.2539 -0.0227,-0.008 -0.0445,-0.0178 -0.0664,-0.0254 0.0227,-0.0835 0.0445,-0.16489 0.0664,-0.24804 -0.15194,-0.0605 -0.3054,-0.12546 -0.45703,-0.18555 0.0227,-0.0847 0.0441,-0.16729 0.0664,-0.25195 -0.15231,-0.0608 -0.30689,-0.12546 -0.45898,-0.18555 0.0227,-0.0843 0.0445,-0.1661 0.0664,-0.25 -0.15308,-0.0608 -0.3084,-0.12545 -0.46094,-0.18555 0.0227,-0.085 0.0441,-0.16729 0.0664,-0.25195 -0.15344,-0.0612 -0.30955,-0.12703 -0.46289,-0.1875 0.0227,-0.0843 0.0445,-0.1661 0.0664,-0.25 -0.15231,-0.0605 -0.3069,-0.12545 -0.45898,-0.18555 0.0227,-0.085 0.0445,-0.16691 0.0664,-0.25195 -0.15345,-0.0612 -0.30955,-0.12703 -0.46289,-0.1875 0.0227,-0.085 0.0445,-0.16692 0.0664,-0.25195 -0.15345,-0.0608 -0.30956,-0.12703 -0.46289,-0.1875 0.0227,-0.0854 0.0464,-0.16849 0.0684,-0.25391 -0.15345,-0.0608 -0.30956,-0.12741 -0.46289,-0.1875 0.0227,-0.0847 0.0449,-0.16376 0.0664,-0.24805 -0.15345,-0.0608 -0.30955,-0.1274 -0.46289,-0.1875 0.0227,-0.0854 0.0445,-0.16653 0.0664,-0.25195 -0.1527,-0.0605 -0.3084,-0.12545 -0.46094,-0.18555 0.0227,-0.0854 0.0425,-0.17277 0.0645,-0.25781 -0.15156,-0.0601 -0.30573,-0.12621 -0.45703,-0.18555 0.0227,-0.0843 0.0413,-0.17157 0.0625,-0.25586 -0.15231,-0.0601 -0.30727,-0.12583 -0.45898,-0.18554 0.0227,-0.0835 0.0398,-0.17076 0.0605,-0.25391 -0.1508,-0.0597 -0.30461,-0.12463 -0.45507,-0.18359 0.0227,-0.0839 0.0394,-0.17196 0.0605,-0.25586 -0.15193,-0.0601 -0.30727,-0.12621 -0.45898,-0.18555 0.0227,-0.0843 0.0417,-0.17158 0.0625,-0.25586 -0.1508,-0.0597 -0.30462,-0.12658 -0.45508,-0.18555 0.0227,-0.0839 0.0398,-0.17037 0.0605,-0.2539 -0.15194,-0.0601 -0.30728,-0.12621 -0.45899,-0.18555 0.0227,-0.085 0.0413,-0.17277 0.0625,-0.25781 -4.02727,-1.58835 -7.93456,-2.96292 -11.68359,-4.09961 -9.55465,-2.8989 -18.10451,-4.32081 -25.35742,-3.92773 -1.75076,0.0949 -3.44465,0.30689 -5.06055,0.64062 -0.008,-0.008 -0.0198,-0.014 -0.0273,-0.0254 -0.11566,-0.14249 -0.22476,-0.29328 -0.34571,-0.42969 -4.23511,-5.21367 -11.84298,-6.31133 -17.38086,-2.35156 -5.75622,4.1159 -7.08673,12.11891 -2.97461,17.87891 0.36889,0.51571 0.77635,0.98382 1.20313,1.42773 0.12208,0.13946 0.2559,0.26341 0.38281,0.39648 0.14362,0.16555 0.29669,0.31825 0.44727,0.47461 0.065,0.0745 0.13465,0.14228 0.20117,0.21485 0.0189,0.0264 0.0339,0.058 0.0547,0.0859 0.0189,0.0265 0.047,0.0378 0.0742,0.0469 0.0227,0.0227 0.0469,0.0481 0.0703,0.0723 0.0393,0.045 0.0794,0.0866 0.11914,0.13086 0.0408,0.059 0.0733,0.1211 0.11523,0.17968 0.0302,0.0457 0.0786,0.0662 0.12891,0.0703 0.0113,0.0113 0.0199,0.0237 0.0312,0.0312 0.0151,0.0189 0.0303,0.0413 0.0488,0.0606 0.0609,0.0896 0.11033,0.18305 0.17383,0.27149 0.0378,0.0514 0.0934,0.0743 0.15234,0.0781 0.0779,0.11679 0.14259,0.23862 0.22461,0.35352 0.0401,0.054 0.0985,0.0823 0.16016,0.0898 0.0752,0.11263 0.13938,0.2291 0.21875,0.33984 0.0416,0.0567 0.10371,0.0929 0.16796,0.10352 0.0726,0.10847 0.1346,0.22116 0.21094,0.32812 0.0431,0.059 0.10536,0.0934 0.17188,0.10743 0.0711,0.10582 0.13024,0.21599 0.20507,0.32031 0.0431,0.0612 0.10731,0.092 0.17383,0.10937 0.0711,0.10583 0.13025,0.21405 0.20508,0.31836 0.0446,0.0624 0.10895,0.10107 0.17774,0.1211 0.0688,0.1028 0.12703,0.20925 0.19921,0.31054 0.0461,0.065 0.11412,0.10428 0.18555,0.12696 0.0669,0.0994 0.12306,0.20251 0.19336,0.30078 0.0227,0.0302 0.0498,0.0503 0.0781,0.0723 0.21278,1.45199 0.52791,2.92647 0.94921,4.41602 1.97292,6.98835 6.09007,14.61544 11.92188,22.71875 3.69275,5.12772 8.08622,10.44208 13.09375,15.83203 0.13984,0.15156 0.27515,0.30348 0.41602,0.45508 0.14211,0.1542 0.28081,0.30692 0.42382,0.46094 0.16706,0.18104 0.3296,0.36166 0.49805,0.54297 0.14211,0.1542 0.28081,0.30654 0.42383,0.46093 0.18028,0.19578 0.35715,0.39185 0.53906,0.58789 0.11263,0.12208 0.2206,0.24316 0.33398,0.36524 0.19843,0.21543 0.39325,0.43063 0.59376,0.64648 0.12359,0.13418 0.24246,0.26836 0.36718,0.40235 -6.5181,6.67865 -12.13913,13.28103 -16.68945,19.59961 -5.83181,8.1033 -9.94896,15.7304 -11.92188,22.71875 -0.6328,2.23725 -1.04174,4.44448 -1.18945,6.58203 0.14438,-0.0597 0.28989,-0.11392 0.43555,-0.16797 -0.0189,0.20069 -0.0379,0.40204 -0.0508,0.60156 0.144,-0.0593 0.28838,-0.11235 0.43359,-0.16601 -0.0189,0.20069 -0.0379,0.402 -0.0508,0.60156 0.14362,-0.0593 0.28872,-0.11235 0.43359,-0.16602 -0.0189,0.20107 -0.0376,0.40185 -0.0508,0.60156 0.14287,-0.059 0.28723,-0.11272 0.43164,-0.16601 -0.0188,0.20004 -0.0341,0.40061 -0.0488,0.59961 -0.13795,0.0567 -0.27743,0.10794 -0.41406,0.16992 0.008,-0.20145 0.018,-0.40273 0.0293,-0.60547 -0.13833,0.0571 -0.27743,0.10951 -0.41406,0.17188 0.008,-0.20221 0.0199,-0.4039 0.0312,-0.60743 -0.13833,0.0571 -0.27706,0.11147 -0.41407,0.17383 0.008,-0.20182 0.018,-0.40412 0.0293,-0.60742 -0.13871,0.0575 -0.27855,0.10914 -0.41602,0.17188 0.008,-0.20145 0.018,-0.4027 0.0293,-0.60547 -0.88535,0.36661 -1.74565,0.82748 -2.55859,1.4082 -5.75622,4.11594 -7.0867,12.12073 -2.97461,17.87695 0.36397,0.50914 0.76684,0.97098 1.1875,1.41016 0.1319,0.15156 0.27442,0.29143 0.41211,0.43555 0.13908,0.15949 0.28834,0.30382 0.43359,0.45507 0.0654,0.0748 0.13661,0.14228 0.20313,0.21485 0.0189,0.0265 0.0342,0.0568 0.0527,0.084 0.0189,0.0265 0.0478,0.0406 0.0762,0.0508 0.0189,0.0189 0.0409,0.0398 0.0605,0.0606 0.0427,0.0491 0.0854,0.0977 0.12891,0.14649 0.0401,0.0582 0.0717,0.1199 0.11328,0.17773 0.0302,0.0427 0.0759,0.0627 0.125,0.0684 l 0.0488,0.0488 c 0.0113,0.0151 0.0238,0.0302 0.0351,0.0449 0.0601,0.0884 0.10951,0.18027 0.17188,0.26758 0.0378,0.0514 0.0934,0.0743 0.15234,0.0781 0.0779,0.11679 0.14455,0.23824 0.22656,0.35352 0.0404,0.0544 0.0982,0.0842 0.16016,0.0918 0.0748,0.11188 0.1378,0.22753 0.2168,0.33789 0.0416,0.0567 0.10371,0.0926 0.16797,0.10352 0.0726,0.10847 0.13459,0.22116 0.21093,0.32813 0.042,0.0578 0.10334,0.0907 0.16797,0.10546 0.0722,0.10772 0.13302,0.21997 0.20899,0.32618 0.0427,0.0593 0.10768,0.0885 0.17382,0.10547 0.0711,0.10582 0.13025,0.21599 0.20508,0.32031 0.045,0.0642 0.11015,0.10263 0.17969,0.12304 0.0684,0.10167 0.12545,0.20844 0.19726,0.3086 0.0465,0.065 0.11412,0.10232 0.18555,0.125 0.0673,0.0998 0.12306,0.20409 0.19336,0.30273 0.0473,0.0677 0.11336,0.10787 0.18555,0.13282 0.0661,0.0983 0.12224,0.20011 0.1914,0.29687 0.0476,0.0673 0.11532,0.10951 0.1875,0.13672 0.065,0.0964 0.11947,0.19615 0.1875,0.29101 0.0503,0.0692 0.11929,0.11115 0.19336,0.14063 0.0639,0.0945 0.1167,0.19375 0.1836,0.28711 0.0499,0.0707 0.12048,0.11436 0.19531,0.14648 0.0624,0.0922 0.11468,0.18821 0.17969,0.2793 0.0518,0.0718 0.12205,0.11908 0.19726,0.15234 0.0616,0.0911 0.11349,0.18544 0.17774,0.27539 0.0533,0.0745 0.12489,0.12268 0.20312,0.15821 0.0593,0.0877 0.10794,0.17907 0.16992,0.26562 0.0541,0.0771 0.12804,0.12665 0.20704,0.16406 0.0586,0.0862 0.10711,0.17826 0.16796,0.26368 0.0556,0.0763 0.12767,0.13023 0.20704,0.16992 0.0574,0.085 0.10592,0.17391 0.16601,0.25781 0.0571,0.079 0.13359,0.13106 0.21485,0.17188 0.0563,0.0828 0.10157,0.16993 0.16015,0.25195 0.0578,0.0801 0.1344,0.13503 0.2168,0.17773 0.0548,0.0805 0.0992,0.1644 0.15625,0.24414 0.0575,0.0813 0.13402,0.14095 0.2168,0.18555 0.0537,0.0786 0.0987,0.16005 0.15429,0.23828 0.0609,0.0858 0.14001,0.1465 0.22656,0.19336 0.0518,0.076 0.0944,0.15526 0.14844,0.23047 0.0605,0.0854 0.138,0.14731 0.22266,0.19531 0.051,0.0752 0.0932,0.15406 0.14648,0.22852 0.0635,0.0884 0.1448,0.15361 0.23438,0.20312 0.0491,0.0718 0.0896,0.14732 0.14062,0.21875 0.0624,0.0877 0.14279,0.15444 0.23047,0.20508 0.0491,0.0718 0.0896,0.14732 0.14063,0.21875 0.0635,0.0896 0.1436,0.15878 0.23242,0.21094 0.048,0.0703 0.0868,0.14335 0.13672,0.21289 0.065,0.0903 0.14795,0.1596 0.23828,0.21289 0.0465,0.068 0.0848,0.13938 0.13281,0.20703 0.0669,0.0941 0.15041,0.1671 0.24414,0.22266 0.0442,0.0643 0.0793,0.13144 0.125,0.19531 0.0673,0.0952 0.15198,0.17145 0.2461,0.22852 0.0438,0.0643 0.0793,0.13181 0.125,0.19531 0.0665,0.093 0.15034,0.16716 0.24218,0.22461 0.0439,0.0643 0.0797,0.13181 0.125,0.19531 0.0692,0.096 0.15514,0.17308 0.25,0.23242 0.0423,0.0616 0.0757,0.12665 0.11914,0.1875 0.0669,0.093 0.15186,0.16527 0.24219,0.22461 0.0438,0.0642 0.0796,0.13182 0.125,0.19531 0.0718,0.10016 0.1615,0.17788 0.25977,0.24024 0.0393,0.0571 0.0705,0.11713 0.11132,0.17383 0.0673,0.0949 0.15344,0.16653 0.24414,0.22851 0.0431,0.0631 0.0784,0.12905 0.12305,0.19141 0.0669,0.0933 0.15299,0.16458 0.24219,0.22656 0.0438,0.0639 0.0797,0.13024 0.125,0.19336 0.0688,0.0952 0.15696,0.16697 0.24805,0.23047 0.0419,0.0608 0.0761,0.12507 0.11914,0.18555 0.0692,0.0956 0.15463,0.16584 0.24609,0.23046 0.0419,0.0609 0.0761,0.12508 0.11914,0.18555 0.0661,0.0918 0.15173,0.15878 0.23828,0.22266 0.0442,0.065 0.0808,0.13301 0.12696,0.19726 0.0692,0.0964 0.15929,0.16628 0.25,0.23243 0.0412,0.0597 0.0748,0.1223 0.11718,0.18164 0.0692,0.0964 0.15967,0.16552 0.25,0.23242 0.0412,0.0601 0.0745,0.12388 0.11719,0.18359 0.0684,0.0949 0.1569,0.16553 0.24609,0.23242 0.0412,0.0597 0.0749,0.12231 0.11719,0.18164 0.0684,0.0952 0.15765,0.16244 0.2461,0.23047 0.0419,0.0612 0.0761,0.12508 0.11914,0.18555 0.0661,0.093 0.15481,0.15538 0.24023,0.22266 0.0435,0.0635 0.0781,0.13024 0.12305,0.19336 0.0711,0.0986 0.16401,0.16798 0.25586,0.23828 0.0393,0.0571 0.0705,0.11713 0.11133,0.17383 0.0748,0.10544 0.16773,0.18801 0.26562,0.26171 0.034,0.0503 0.0618,0.10441 0.0977,0.1543 0.076,0.10621 0.16817,0.19117 0.26757,0.26563 0.034,0.048 0.0597,0.0985 0.0937,0.14648 0.0775,0.10847 0.17253,0.19552 0.27344,0.27148 0.0302,0.0461 0.057,0.0949 0.0899,0.14063 0.0786,0.10998 0.17454,0.19791 0.27734,0.27539 0.0302,0.0442 0.0546,0.0909 0.0859,0.13477 0.079,0.11074 0.17454,0.20106 0.27734,0.27929 0.0302,0.0435 0.0549,0.0897 0.0859,0.13282 0.0775,0.10847 0.16975,0.19715 0.26953,0.27539 0.0302,0.045 0.0558,0.0921 0.0879,0.13671 0.079,0.10999 0.17567,0.20031 0.27734,0.2793 0.0302,0.0438 0.055,0.0897 0.0859,0.13281 0.0794,0.11074 0.17492,0.20113 0.27735,0.28125 0.0302,0.042 0.0525,0.0854 0.082,0.12696 0.0813,0.11338 0.17888,0.20509 0.2832,0.28711 0.0302,0.0408 0.051,0.0842 0.0801,0.125 0.0813,0.11376 0.17889,0.20667 0.2832,0.28906 0.0265,0.0389 0.0482,0.0806 0.0762,0.11914 0.0805,0.11187 0.1765,0.20314 0.2793,0.28516 0.0265,0.0404 0.0494,0.083 0.0781,0.12304 0.0805,0.11301 0.17883,0.20592 0.28125,0.28907 0.0265,0.0401 0.0494,0.083 0.0781,0.12304 0.082,0.11452 0.18242,0.20869 0.28711,0.29297 0.0265,0.0378 0.0474,0.0774 0.0742,0.11523 0.082,0.11415 0.17889,0.20831 0.2832,0.29297 0.0265,0.0378 0.0474,0.0774 0.0742,0.11524 0.0843,0.11716 0.18563,0.21228 0.29297,0.29883 0.0227,0.034 0.0418,0.0715 0.0664,0.10546 0.0839,0.11755 0.18444,0.21543 0.29102,0.30274 0.0227,0.034 0.0438,0.0711 0.0684,0.10547 0.0828,0.11603 0.18204,0.21152 0.28711,0.29883 0.0265,0.0378 0.0446,0.0738 0.0703,0.10937 0.0854,0.11906 0.18525,0.21782 0.29297,0.30664 0.0227,0.0302 0.0398,0.0659 0.0625,0.0977 0.0847,0.11905 0.18601,0.21744 0.29297,0.30664 0.0227,0.0302 0.0398,0.0659 0.0625,0.0977 0.0835,0.11679 0.18399,0.2143 0.28906,0.30274 0.0227,0.034 0.0418,0.0711 0.0664,0.10547 0.0854,0.11943 0.1872,0.22021 0.29492,0.31055 0.0227,0.0302 0.0386,0.0631 0.0606,0.0937 0.0858,0.12019 0.18878,0.22142 0.29687,0.3125 0.0227,0.0302 0.0378,0.0619 0.0586,0.0918 0.0869,0.12132 0.1896,0.22457 0.29883,0.31641 0.0189,0.0302 0.0377,0.0592 0.0566,0.0879 0.0881,0.12283 0.19238,0.22696 0.30274,0.32031 0.0189,0.0265 0.0342,0.0552 0.0527,0.082 0.0877,0.12284 0.1908,0.22501 0.30078,0.31836 0.0189,0.0265 0.0339,0.058 0.0547,0.0859 0.0896,0.1251 0.19439,0.23093 0.30664,0.32617 0.0189,0.0227 0.0303,0.05 0.0488,0.0742 0.0877,0.12283 0.1896,0.2262 0.29883,0.32031 0.0189,0.0265 0.0342,0.0568 0.0527,0.084 0.0896,0.1251 0.19477,0.23017 0.30664,0.32617 0.0151,0.0227 0.0302,0.0504 0.0469,0.0742 0.0884,0.12359 0.19275,0.22859 0.30273,0.32422 0.0189,0.0264 0.0303,0.0512 0.0488,0.0762 0.0892,0.12434 0.19433,0.22979 0.30469,0.32617 0.0151,0.0227 0.0302,0.05 0.0469,0.0742 0.0926,0.12926 0.20113,0.24044 0.31641,0.33984 0.0151,0.0189 0.0266,0.0409 0.0391,0.0606 0.0911,0.12737 0.19754,0.23729 0.31055,0.33594 0.0151,0.0227 0.0263,0.0433 0.041,0.0644 0.0915,0.12813 0.19717,0.24044 0.31055,0.33984 0.0151,0.0189 0.0263,0.0421 0.041,0.0625 0.0892,0.12473 0.19275,0.23219 0.30273,0.33008 0.0151,0.0227 0.0302,0.0473 0.0449,0.0703 0.093,0.13002 0.20151,0.24089 0.31641,0.3418 0.0113,0.0189 0.0238,0.0377 0.0352,0.0547 0.0937,0.13115 0.20232,0.24328 0.31836,0.3457 0.0113,0.0151 0.0219,0.0341 0.0332,0.0508 0.0911,0.12737 0.19672,0.23736 0.30859,0.33789 0.0151,0.0189 0.0266,0.0425 0.0391,0.0625 0.0941,0.13153 0.20429,0.24681 0.32032,0.34961 0.0113,0.0151 0.018,0.0303 0.0293,0.0469 0.093,0.13001 0.20032,0.24328 0.31446,0.3457 0.0113,0.0189 0.0238,0.0342 0.0352,0.0527 0.0934,0.13039 0.20189,0.24252 0.31641,0.3457 0.0113,0.0151 0.018,0.0342 0.0293,0.0508 0.0964,0.13493 0.20711,0.2516 0.32617,0.35742 0.008,0.0113 0.016,0.0262 0.0273,0.0391 0.096,0.1338 0.2063,0.2516 0.32422,0.35743 l 0.0215,0.0332 c 0.0964,0.13493 0.20591,0.25474 0.32421,0.36133 l 0.0234,0.0351 c 0.0945,0.13267 0.20309,0.25002 0.31836,0.35547 0.008,0.0113 0.014,0.0266 0.0254,0.0391 0.0964,0.13493 0.2063,0.25437 0.32422,0.36133 l 0.0234,0.0332 c 0.0975,0.13568 0.20907,0.25556 0.32812,0.36328 0.008,0.0113 0.012,0.0199 0.0195,0.0312 0.0975,0.13606 0.20907,0.25676 0.32813,0.36523 0.008,0.008 0.01,0.0178 0.0176,0.0254 0.099,0.13833 0.21071,0.26111 0.33203,0.3711 0.008,0.008 0.0118,0.0159 0.0156,0.0234 0.099,0.13833 0.20951,0.26074 0.33008,0.3711 0.004,0.008 0.008,0.0139 0.0156,0.0215 0.0986,0.1372 0.20831,0.25916 0.32812,0.36914 0.008,0.008 0.0119,0.0159 0.0156,0.0234 0.10204,0.14211 0.21549,0.26796 0.33984,0.38086 0.002,0.003 0.004,0.004 0.008,0.008 0.0998,0.13984 0.21229,0.26508 0.33399,0.37695 0.004,0.008 0.008,0.012 0.0117,0.0195 0.099,0.13908 0.21108,0.2635 0.33203,0.375 0.003,0.004 0.004,0.006 0.008,0.0137 0.10167,0.14211 0.21625,0.26912 0.33984,0.38281 9.9e-4,0.002 0.003,0.004 0.004,0.008 0.10167,0.14211 0.21663,0.27063 0.33984,0.38477 0.002,0.002 0.002,0.004 0.004,0.008 0.1028,0.14325 0.21745,0.27362 0.3418,0.38867 l 0.002,0.002 c 0.10205,0.14324 0.21783,0.27328 0.3418,0.38867 0.10318,0.14362 0.21864,0.27474 0.34375,0.39062 0.002,0.002 0.004,0.002 0.008,0.004 0.10356,0.144 0.21827,0.27474 0.34375,0.39062 0.0986,0.13682 0.20787,0.26156 0.32617,0.37305 9.8e-4,0.002 0.003,0.004 0.004,0.008 l 0.0117,0.0117 c 0.10507,0.14589 0.22066,0.27891 0.34765,0.39649 0.0964,0.13228 0.20189,0.2521 0.31641,0.36133 0.002,0.003 0.004,0.004 0.008,0.008 0.10847,0.15193 0.23138,0.288 0.36328,0.41015 0.10318,0.14098 0.21626,0.274 0.33985,0.38868 0.10733,0.14589 0.22305,0.28006 0.35156,0.39843 0.0903,0.12133 0.18947,0.23194 0.29492,0.33399 0.002,0.003 0.004,0.006 0.008,0.01 0.11263,0.15761 0.23818,0.3012 0.375,0.42774 0.0896,0.12056 0.18866,0.23036 0.29297,0.33203 0.003,0.004 0.004,0.008 0.008,0.0117 0.1149,0.16063 0.24493,0.30689 0.38477,0.43554 0.0884,0.11793 0.18626,0.22602 0.28906,0.32618 10e-4,0.002 0.003,0.004 0.004,0.008 0.0151,0.0151 0.0263,0.034 0.043,0.0469 0.10582,0.14136 0.21827,0.27479 0.34375,0.39063 0.10356,0.13757 0.21348,0.27138 0.33593,0.38476 0.10583,0.14022 0.21865,0.27325 0.34375,0.38868 0.10508,0.13833 0.21626,0.27062 0.33985,0.38476 0.0828,0.10885 0.17151,0.20863 0.26562,0.30274 0.002,0.003 0.004,0.008 0.008,0.0117 0.10053,0.14022 0.2153,0.26342 0.33398,0.38085 l 0.002,0.002 c 0.0227,0.0227 0.0402,0.0491 0.0625,0.0703 0.10545,0.13833 0.21821,0.274 0.3418,0.38867 0.10431,0.13606 0.21386,0.26759 0.33594,0.38086 0.0801,0.10394 0.16553,0.20031 0.25586,0.29102 0.002,0.003 0.004,0.008 0.008,0.0117 0.12586,0.17537 0.26685,0.3337 0.41992,0.47461 0.10318,0.13266 0.20869,0.26192 0.32813,0.37304 h 0.002 c 0.10696,0.13795 0.21745,0.27366 0.3418,0.38867 0.10507,0.13455 0.2119,0.26605 0.33398,0.37891 0.0707,0.0907 0.14637,0.17498 0.22461,0.25586 0.004,0.008 0.008,0.0138 0.0117,0.0176 0.1285,0.1799 0.27363,0.33977 0.42969,0.48437 0.0737,0.0937 0.15078,0.1821 0.23242,0.26563 9.8e-4,0.002 0.003,0.004 0.004,0.008 0.034,0.034 0.0613,0.0753 0.0957,0.10742 0.10734,0.13682 0.21587,0.27175 0.33984,0.38672 0.10394,0.13115 0.20907,0.26231 0.32813,0.37305 0.10582,0.13455 0.21386,0.26946 0.33593,0.38281 0.068,0.0858 0.14001,0.16666 0.21485,0.24414 9.8e-4,0.002 10e-4,0.004 0.002,0.008 0.0385,0.0397 0.0728,0.0876 0.11328,0.125 0.10696,0.13493 0.21506,0.26909 0.33789,0.38282 0.0661,0.0828 0.13484,0.16187 0.20703,0.23632 8.4e-4,9.9e-4 9.4e-4,0.003 0.002,0.004 0.0408,0.042 0.0745,0.0935 0.11718,0.13281 0.065,0.0816 0.13365,0.15835 0.20508,0.23242 0.002,0.003 0.004,0.008 0.008,0.0117 0.13681,0.19087 0.29099,0.36207 0.45703,0.51563 0.059,0.0737 0.12167,0.14366 0.18554,0.21094 0.004,0.008 0.006,0.01 0.01,0.0176 0.13757,0.19238 0.29441,0.36664 0.46094,0.52149 0.10545,0.13077 0.21341,0.26546 0.33398,0.37695 0.0593,0.0733 0.1213,0.14366 0.18555,0.21094 0.001,0.002 0.001,0.004 0.002,0.008 0.048,0.0503 0.0884,0.10976 0.13867,0.15625 0.0885,0.10987 0.18229,0.21549 0.2793,0.31445 H 608 V 621.47266 c -0.047,-0.0533 -0.0925,-0.10779 -0.14062,-0.16016 -0.11641,-0.1372 -0.23535,-0.27175 -0.35743,-0.4043 -0.11149,-0.13115 -0.22305,-0.2619 -0.33984,-0.38867 -0.1149,-0.13568 -0.23295,-0.26913 -0.35352,-0.40039 -0.11338,-0.13379 -0.2286,-0.26531 -0.34765,-0.39453 -0.11188,-0.13191 -0.22463,-0.26307 -0.3418,-0.39063 -0.11187,-0.13228 -0.22463,-0.26302 -0.3418,-0.39062 -0.12207,-0.14438 -0.24649,-0.28651 -0.375,-0.42578 -0.10733,-0.12624 -0.21587,-0.25097 -0.32812,-0.37305 -0.12095,-0.14286 -0.24372,-0.28419 -0.3711,-0.42187 -0.10242,-0.12019 -0.20553,-0.23869 -0.3125,-0.35547 -0.12623,-0.14967 -0.2536,-0.29748 -0.38671,-0.44141 -0.10659,-0.1251 -0.21468,-0.24782 -0.32618,-0.36914 -0.11981,-0.14173 -0.24095,-0.28119 -0.36718,-0.41797 -0.11414,-0.13417 -0.2298,-0.26684 -0.34961,-0.39648 -0.11225,-0.13229 -0.22583,-0.26265 -0.34375,-0.39063 -0.11566,-0.13644 -0.23415,-0.27062 -0.35547,-0.40234 -0.11792,-0.13947 -0.23698,-0.27741 -0.36133,-0.41211 -0.10847,-0.12775 -0.21827,-0.25336 -0.33203,-0.37695 -0.1251,-0.14816 -0.25095,-0.29479 -0.38281,-0.4375 -0.10432,-0.12246 -0.21147,-0.24265 -0.32032,-0.36133 -0.12359,-0.14665 -0.24828,-0.29217 -0.3789,-0.4336 -0.11339,-0.13379 -0.2286,-0.2653 -0.34766,-0.39453 -0.11603,-0.13682 -0.23339,-0.27212 -0.35547,-0.40429 -0.11376,-0.13418 -0.22822,-0.26685 -0.34765,-0.39649 -0.11792,-0.13946 -0.23736,-0.27741 -0.36133,-0.41211 -0.11906,-0.1406 -0.24013,-0.27856 -0.36524,-0.41406 -0.11149,-0.13153 -0.22501,-0.26153 -0.34179,-0.38867 -0.1183,-0.14022 -0.23856,-0.27857 -0.36328,-0.41406 -0.11793,-0.13909 -0.23736,-0.27591 -0.36133,-0.41016 -0.12132,-0.14324 -0.2453,-0.28385 -0.37305,-0.42188 -0.10545,-0.12396 -0.21152,-0.24662 -0.32226,-0.36718 -0.12057,-0.14287 -0.24215,-0.28423 -0.36915,-0.42188 -0.11905,-0.14097 -0.23975,-0.28006 -0.36523,-0.41601 -0.11716,-0.13833 -0.23616,-0.27479 -0.35937,-0.40821 -0.1183,-0.13984 -0.23894,-0.2774 -0.36329,-0.41211 -0.11716,-0.1387 -0.23616,-0.2744 -0.35937,-0.4082 -0.11414,-0.13493 -0.2298,-0.26835 -0.34961,-0.39844 -0.1217,-0.144 -0.24492,-0.28534 -0.37305,-0.42383 -0.11376,-0.13417 -0.22822,-0.26684 -0.34765,-0.39648 -0.12133,-0.14362 -0.2453,-0.28535 -0.37305,-0.42383 -0.12057,-0.14249 -0.2441,-0.28272 -0.37109,-0.41992 -0.11339,-0.13379 -0.2286,-0.26531 -0.34766,-0.39453 -0.11754,-0.13909 -0.23736,-0.27591 -0.36133,-0.41016 -0.12132,-0.14362 -0.24334,-0.28572 -0.37109,-0.42382 -0.1183,-0.13985 -0.23894,-0.27741 -0.36328,-0.41211 -0.11037,-0.1304 -0.22224,-0.25891 -0.33789,-0.38477 -0.12737,-0.15156 -0.25589,-0.3016 -0.39063,-0.44727 -0.11792,-0.13908 -0.23736,-0.2759 -0.36133,-0.41015 -0.12019,-0.14173 -0.24252,-0.28119 -0.36914,-0.41797 -0.11301,-0.13342 -0.22702,-0.26535 -0.3457,-0.39453 -0.12473,-0.14778 -0.25136,-0.29329 -0.38281,-0.43555 -0.11944,-0.14135 -0.24133,-0.28006 -0.36719,-0.41601 -0.11641,-0.13758 -0.23459,-0.27325 -0.35742,-0.40625 -0.11755,-0.13909 -0.23579,-0.27591 -0.35938,-0.41016 -0.12283,-0.14589 -0.24769,-0.28913 -0.37695,-0.42969 -0.12586,-0.14891 -0.25398,-0.29444 -0.38672,-0.4375 -0.11112,-0.13077 -0.22343,-0.26003 -0.33984,-0.38672 -0.12359,-0.14626 -0.2487,-0.29062 -0.37891,-0.43164 -0.11981,-0.14173 -0.24133,-0.28119 -0.36719,-0.41797 -0.12094,-0.14324 -0.24372,-0.28384 -0.37109,-0.42187 -0.12321,-0.14589 -0.2487,-0.28917 -0.37891,-0.42969 -0.11716,-0.13833 -0.23616,-0.27475 -0.35937,-0.4082 -0.12208,-0.14476 -0.2465,-0.28651 -0.375,-0.42578 -0.11679,-0.13833 -0.23421,-0.27475 -0.35742,-0.40821 -0.12473,-0.14778 -0.25133,-0.29328 -0.38282,-0.43554 -0.11981,-0.14174 -0.24133,-0.28123 -0.36718,-0.41797 -0.12473,-0.14778 -0.25133,-0.29329 -0.38282,-0.43555 -0.11263,-0.13304 -0.2274,-0.26419 -0.3457,-0.39258 -0.12775,-0.15193 -0.25738,-0.30122 -0.39258,-0.44726 -0.12019,-0.14211 -0.24252,-0.28273 -0.36914,-0.41992 -0.11981,-0.14211 -0.24095,-0.28269 -0.36719,-0.41993 -0.12359,-0.14664 -0.2502,-0.29028 -0.38085,-0.43164 -0.12171,-0.14362 -0.24493,-0.28534 -0.37305,-0.42383 -0.12019,-0.14248 -0.24215,-0.28268 -0.36914,-0.41992 -0.1251,-0.14853 -0.25248,-0.29444 -0.38477,-0.4375 -0.12094,-0.14324 -0.24372,-0.28384 -0.37109,-0.42187 -0.11981,-0.14173 -0.24133,-0.28119 -0.36719,-0.41797 -0.12586,-0.14929 -0.25398,-0.29595 -0.38672,-0.43945 -0.12472,-0.14778 -0.25324,-0.29141 -0.38476,-0.4336 -0.11226,-0.13266 -0.22426,-0.26456 -0.3418,-0.39258 -0.13455,-0.15987 -0.27176,-0.3171 -0.41406,-0.4707 -0.11641,-0.1372 -0.23497,-0.27175 -0.35742,-0.4043 -0.12435,-0.1474 -0.24983,-0.29366 -0.38086,-0.43554 -0.12511,-0.14854 -0.25249,-0.29441 -0.38477,-0.4375 -0.12397,-0.14665 -0.2502,-0.29067 -0.38086,-0.43164 -0.11792,-0.13947 -0.23736,-0.27741 -0.36133,-0.41211 -0.1285,-0.1527 -0.25888,-0.30235 -0.39453,-0.44922 -0.12435,-0.1474 -0.25174,-0.29179 -0.38281,-0.4336 -0.11603,-0.13757 -0.23301,-0.27366 -0.35547,-0.40624 -0.1338,-0.15912 -0.27064,-0.31595 -0.41211,-0.46876 -0.12019,-0.14173 -0.24253,-0.28118 -0.36914,-0.41796 -0.12359,-0.14627 -0.2487,-0.29067 -0.37891,-0.43164 -0.12245,-0.14476 -0.24611,-0.28801 -0.375,-0.42774 -0.1285,-0.15269 -0.25888,-0.30235 -0.39453,-0.44922 -0.60616,-0.71758 -1.28406,-1.37885 -2.04492,-1.95508 -5.64283,-4.27086 -13.67835,-3.16041 -17.94922,2.48243 -0.0302,0.0382 -0.0517,0.079 -0.0801,0.11718 0.20674,0.0427 0.40938,0.0899 0.61328,0.13672 -0.0491,0.0624 -0.10434,0.11777 -0.15234,0.18164 -0.0302,0.0408 -0.0557,0.0838 -0.0859,0.125 0.20637,0.0423 0.40949,0.0899 0.61328,0.13672 -0.0465,0.0593 -0.0988,0.1114 -0.14453,0.17188 -0.034,0.0431 -0.0577,0.0897 -0.0898,0.13281 0.20561,0.042 0.40848,0.0883 0.61133,0.13476 -0.0454,0.0578 -0.096,0.10939 -0.14063,0.16797 -0.034,0.0457 -0.0617,0.0945 -0.0957,0.14063 0.20485,0.0416 0.40717,0.0871 0.60937,0.13281 -0.0427,0.0544 -0.0909,0.10265 -0.13281,0.1582 -0.0378,0.0495 -0.0668,0.10246 -0.10351,0.15235 0.20447,0.0412 0.40755,0.0836 0.60937,0.1289 -0.0412,0.0525 -0.0865,0.0991 -0.12695,0.15235 -0.0389,0.0514 -0.0696,0.10604 -0.10742,0.1582 0.20447,0.0412 0.40743,0.0855 0.60937,0.13086 -0.0386,0.0495 -0.0833,0.0923 -0.12109,0.14258 -0.0416,0.0548 -0.0748,0.11279 -0.11524,0.16797 0.20561,0.0412 0.41017,0.0835 0.61328,0.1289 -0.0378,0.0472 -0.0786,0.0883 -0.11523,0.13672 -0.0438,0.0578 -0.0784,0.11953 -0.12109,0.17774 0.20258,0.0404 0.40523,0.0804 0.60547,0.125 -0.034,0.0446 -0.0734,0.0839 -0.10743,0.1289 -0.0453,0.0597 -0.0808,0.12312 -0.125,0.1836 0.20296,0.0401 0.40523,0.0808 0.60547,0.125 -0.034,0.0419 -0.0694,0.0788 -0.10156,0.12109 -0.0476,0.0627 -0.0847,0.12986 -0.13086,0.19336 0.20334,0.0401 0.40658,0.0788 0.60742,0.12305 -0.0302,0.0397 -0.0651,0.0748 -0.0957,0.11523 -0.0495,0.0654 -0.0883,0.13541 -0.13672,0.20117 0.20258,0.0397 0.40542,0.0796 0.60547,0.12305 -0.0302,0.0378 -0.0615,0.07 -0.0898,0.10742 -0.0514,0.068 -0.0927,0.1402 -0.14258,0.20899 0.20182,0.0393 0.40426,0.078 0.60351,0.12109 -0.0264,0.034 -0.0575,0.0648 -0.084,0.0996 -0.054,0.0711 -0.0963,0.14694 -0.14844,0.21875 0.20145,0.0389 0.40437,0.0741 0.60352,0.11719 -0.0227,0.0302 -0.0516,0.0597 -0.0762,0.0918 -0.0567,0.0748 -0.10145,0.15488 -0.15626,0.23047 0.19994,0.0386 0.40221,0.0729 0.59961,0.11524 -0.0227,0.0302 -0.048,0.0545 -0.0703,0.084 -0.0582,0.0767 -0.10384,0.15885 -0.16015,0.23633 0.20069,0.0385 0.40325,0.0749 0.60156,0.11719 -0.0189,0.0264 -0.0428,0.0462 -0.0625,0.0723 -0.0605,0.0801 -0.10977,0.16521 -0.16797,0.2461 0.20107,0.0382 0.40486,0.0729 0.60352,0.11523 -0.0189,0.0227 -0.0401,0.0457 -0.0586,0.0703 -0.062,0.0816 -0.1102,0.17114 -0.16992,0.25391 0.19842,0.0378 0.39955,0.0717 0.5957,0.11328 -0.0151,0.0227 -0.0341,0.0394 -0.0508,0.0606 -0.0643,0.085 -0.11613,0.17554 -0.17773,0.26172 0.20031,0.0378 0.40186,0.0717 0.59961,0.11328 -0.0151,0.0189 -0.0301,0.0338 -0.043,0.0527 -0.0665,0.0877 -0.11972,0.18071 -0.1836,0.26953 0.19843,0.0378 0.39782,0.0721 0.59375,0.11328 -0.0113,0.0151 -0.0258,0.0302 -0.0371,0.0449 -0.0684,0.0903 -0.12406,0.18588 -0.18945,0.27734 0.19843,0.0378 0.39774,0.0725 0.59375,0.11328 -0.008,0.0113 -0.0199,0.0219 -0.0312,0.0332 -0.0707,0.0934 -0.12766,0.19225 -0.19531,0.28711 0.19691,0.0378 0.39339,0.0728 0.58789,0.11328 -0.008,0.008 -0.0138,0.0159 -0.0176,0.0234 -0.0733,0.0968 -0.13478,0.19899 -0.20508,0.29688 0.19881,0.0378 0.39737,0.0728 0.59375,0.11328 -0.004,0.008 -0.01,0.012 -0.0137,0.0195 -0.0748,0.0987 -0.1356,0.20258 -0.20703,0.30273 0.19691,0.0378 0.39336,0.0732 0.58789,0.11329 -0.003,0.003 -0.004,0.008 -0.008,0.0117 -0.0767,0.1013 -0.13762,0.2097 -0.21094,0.3125 0.19616,0.034 0.39209,0.072 0.58594,0.11133 -0.0786,0.10432 -0.14354,0.21449 -0.21875,0.32031 0.19691,0.034 0.39336,0.0716 0.58789,0.11133 -0.079,0.1047 -0.14316,0.21569 -0.21875,0.32227 0.19653,0.034 0.39171,0.072 0.58594,0.11133 -0.0787,0.10426 -0.14357,0.21413 -0.21875,0.32031 -0.19692,-0.034 -0.39465,-0.0686 -0.59375,-0.0996 0.0741,-0.11187 0.14637,-0.22362 0.22461,-0.33398 -0.19767,-0.034 -0.39585,-0.0679 -0.59571,-0.0996 0.0745,-0.11188 0.14833,-0.22558 0.22656,-0.33594 -0.19615,-0.034 -0.39329,-0.0698 -0.59179,-0.10156 0.0737,-0.11074 0.14713,-0.22123 0.22461,-0.33008 -0.19692,-0.034 -0.39442,-0.0714 -0.59375,-0.10352 0.0741,-0.11112 0.14675,-0.22242 0.22461,-0.33203 -0.19767,-0.0378 -0.39566,-0.071 -0.59571,-0.10351 0.0741,-0.11037 0.14713,-0.22123 0.22461,-0.33008 -0.19615,-0.0378 -0.39145,-0.0734 -0.58984,-0.10547 0.0737,-0.10999 0.14713,-0.22003 0.22461,-0.32813 -0.19729,-0.0378 -0.39404,-0.0726 -0.59375,-0.10546 0.0741,-0.11037 0.14675,-0.22123 0.22461,-0.33008 -0.19616,-0.0378 -0.39134,-0.0726 -0.58985,-0.10547 0.0737,-0.10961 0.14518,-0.22003 0.22266,-0.32813 -0.19842,-0.0378 -0.39505,-0.0761 -0.5957,-0.10937 0.0733,-0.10885 0.14555,-0.21884 0.22265,-0.32617 -0.19615,-0.0378 -0.38954,-0.0784 -0.58789,-0.11133 0.0733,-0.10847 0.1436,-0.21726 0.22071,-0.32422 -0.19843,-0.0378 -0.39486,-0.0793 -0.59571,-0.11328 0.0733,-0.1081 0.1436,-0.21726 0.22071,-0.32422 -0.1973,-0.0378 -0.39232,-0.0793 -0.5918,-0.11328 0.0733,-0.1081 0.1436,-0.21764 0.2207,-0.32422 -0.19653,-0.0378 -0.39108,-0.0793 -0.58984,-0.11328 0.0733,-0.1081 0.1436,-0.21764 0.2207,-0.32422 -0.19767,-0.0382 -0.39389,-0.0789 -0.59375,-0.11328 0.0741,-0.10885 0.1448,-0.21884 0.22266,-0.32617 -0.19767,-0.0382 -0.39363,-0.0785 -0.59375,-0.11328 0.0741,-0.10886 0.1448,-0.21884 0.22265,-0.32618 -0.19804,-0.0385 -0.39531,-0.0781 -0.5957,-0.11328 0.0745,-0.10885 0.14442,-0.21883 0.22266,-0.32617 -0.19881,-0.0389 -0.39666,-0.0781 -0.59766,-0.11328 0.0741,-0.10885 0.1448,-0.21921 0.22266,-0.32617 -0.19729,-0.0389 -0.39404,-0.0781 -0.59375,-0.11328 0.0744,-0.10848 0.14246,-0.21922 0.2207,-0.32618 -0.19691,-0.0389 -0.39442,-0.0778 -0.59375,-0.11328 0.0741,-0.10771 0.14285,-0.21763 0.2207,-0.32422 -0.1988,-0.0397 -0.39827,-0.0793 -0.59961,-0.11523 0.0748,-0.10923 0.14405,-0.22041 0.22266,-0.32813 -0.19767,-0.0397 -0.3958,-0.0774 -0.5957,-0.11328 0.0748,-0.10923 0.14366,-0.22078 0.22265,-0.32812 -0.19804,-0.0401 -0.39715,-0.077 -0.59765,-0.11328 0.0748,-0.10848 0.14404,-0.21921 0.22265,-0.32618 -0.19804,-0.0401 -0.39745,-0.0766 -0.59765,-0.11328 0.0756,-0.1096 0.14524,-0.22236 0.22461,-0.33007 -0.19843,-0.0404 -0.39877,-0.0766 -0.59961,-0.11329 0.0756,-0.1096 0.14524,-0.22236 0.22461,-0.33007 -0.19918,-0.0408 -0.40015,-0.0763 -0.60157,-0.11329 0.0752,-0.10885 0.14329,-0.22078 0.22266,-0.32812 -0.19767,-0.0408 -0.39779,-0.0782 -0.59766,-0.11523 0.0756,-0.10885 0.14329,-0.22117 0.22266,-0.32813 -1.61824,-0.33487 -3.31477,-0.54748 -5.06836,-0.64258 -6.01561,-0.32617 -12.93515,0.61371 -20.56836,2.5918 -0.0745,-0.0998 -0.14908,-0.20024 -0.23828,-0.28906 -0.0265,-0.0265 -0.0584,-0.0509 -0.0859,-0.0781 -0.079,-0.10885 -0.16143,-0.21688 -0.25781,-0.3125 -0.0265,-0.0265 -0.0584,-0.0509 -0.0859,-0.0781 -0.0782,-0.1081 -0.15866,-0.21493 -0.2539,-0.31055 -0.0302,-0.0302 -0.0647,-0.0576 -0.0957,-0.0879 -0.0763,-0.10469 -0.15544,-0.20818 -0.24804,-0.30078 -0.0265,-0.0265 -0.0544,-0.0469 -0.0801,-0.0723 -0.0801,-0.11225 -0.16503,-0.22129 -0.26367,-0.32031 -0.0302,-0.0302 -0.0635,-0.0545 -0.0937,-0.084 -0.0771,-0.10659 -0.15551,-0.21253 -0.25,-0.30665 -0.0265,-0.0265 -0.0571,-0.0493 -0.084,-0.0762 -0.0786,-0.11074 -0.16225,-0.21889 -0.25976,-0.3164 -0.0302,-0.0302 -0.0635,-0.0565 -0.0937,-0.0859 -0.0764,-0.10658 -0.15785,-0.20938 -0.25196,-0.30273 -0.0227,-0.0227 -0.0516,-0.0445 -0.0762,-0.0684 -0.0798,-0.1149 -0.16742,-0.22602 -0.26758,-0.32618 -0.0264,-0.0264 -0.0568,-0.0493 -0.084,-0.0762 -0.0782,-0.11149 -0.16263,-0.21927 -0.25977,-0.3164 -0.0302,-0.0302 -0.0647,-0.0561 -0.0957,-0.0859 -0.0764,-0.10772 -0.15746,-0.21215 -0.25195,-0.30664 -0.0265,-0.0265 -0.0556,-0.0485 -0.082,-0.0742 -0.0782,-0.11263 -0.16308,-0.22009 -0.26172,-0.31836 -0.0302,-0.0302 -0.0619,-0.0549 -0.0918,-0.084 -0.0767,-0.10922 -0.15986,-0.21454 -0.25586,-0.31054 -0.0265,-0.0265 -0.0584,-0.0509 -0.0859,-0.0781 -0.0775,-0.11225 -0.1642,-0.22047 -0.26171,-0.31836 -0.0302,-0.0302 -0.0651,-0.0561 -0.0957,-0.0859 -0.0756,-0.1081 -0.15709,-0.21291 -0.25195,-0.30664 -0.0265,-0.0265 -0.0571,-0.0493 -0.084,-0.0762 -0.0779,-0.11376 -0.16464,-0.22166 -0.26367,-0.32031 -0.0264,-0.0265 -0.0595,-0.0521 -0.0879,-0.0801 -0.0763,-0.11111 -0.16263,-0.21612 -0.25976,-0.3125 -0.0265,-0.0264 -0.0584,-0.0509 -0.0859,-0.0781 -0.0771,-0.11377 -0.16345,-0.22167 -0.26172,-0.32031 -0.0265,-0.0265 -0.0584,-0.0509 -0.0859,-0.0781 -0.0763,-0.11339 -0.16383,-0.22047 -0.26172,-0.31836 -0.0264,-0.0265 -0.0592,-0.0521 -0.0879,-0.0801 -0.0756,-0.113 -0.16301,-0.21851 -0.25976,-0.3164 -0.0302,-0.0302 -0.0675,-0.0585 -0.0996,-0.0899 -0.0745,-0.10885 -0.15709,-0.21291 -0.25195,-0.30664 -0.0265,-0.0264 -0.0584,-0.0509 -0.0859,-0.0781 -0.076,-0.1149 -0.16308,-0.22287 -0.26172,-0.32227 -0.0302,-0.0302 -0.0635,-0.0545 -0.0937,-0.084 -0.0748,-0.11188 -0.16144,-0.21612 -0.25781,-0.3125 -0.0302,-0.0302 -0.0659,-0.0569 -0.0977,-0.0879 l -0.002,-0.002 c -0.0737,-0.10998 -0.15709,-0.2141 -0.25196,-0.30859 -0.0302,-0.0302 -0.0651,-0.0561 -0.0957,-0.0859 -0.0745,-0.11225 -0.1591,-0.21769 -0.25586,-0.31445 -0.0302,-0.0302 -0.0659,-0.0573 -0.0977,-0.0879 -0.0737,-0.11112 -0.15829,-0.21688 -0.25391,-0.3125 -0.034,-0.034 -0.0687,-0.0597 -0.10156,-0.0918 -0.0726,-0.10998 -0.15552,-0.2141 -0.25,-0.30859 -0.034,-0.034 -0.0687,-0.0597 -0.10157,-0.0918 -0.0726,-0.10998 -0.15551,-0.2141 -0.25,-0.30859 -0.034,-0.034 -0.0715,-0.0625 -0.10546,-0.0957 -0.0714,-0.10885 -0.15312,-0.21095 -0.2461,-0.30468 -0.034,-0.034 -0.0715,-0.0625 -0.10547,-0.0957 -0.0714,-0.1096 -0.15274,-0.21095 -0.24609,-0.30468 -0.0378,-0.0378 -0.0778,-0.0672 -0.11524,-0.10352 -0.0695,-0.10583 -0.14914,-0.20774 -0.24023,-0.29883 -0.034,-0.034 -0.075,-0.0664 -0.11133,-0.10156 -0.0692,-0.10658 -0.14915,-0.20812 -0.24023,-0.29883 -0.0378,-0.0378 -0.0762,-0.0676 -0.11328,-0.10351 -0.0696,-0.10734 -0.15035,-0.20894 -0.24219,-0.30078 -0.0378,-0.0378 -0.0794,-0.0688 -0.11719,-0.10547 -0.0688,-0.10659 -0.14524,-0.20737 -0.23633,-0.29883 -0.0393,-0.0393 -0.0834,-0.0728 -0.12304,-0.11133 -0.0673,-0.1028 -0.14361,-0.201 -0.23243,-0.28906 -0.0393,-0.0393 -0.0834,-0.0728 -0.12304,-0.11133 -0.0673,-0.10432 -0.14323,-0.20377 -0.23242,-0.29297 -0.0393,-0.0393 -0.083,-0.0728 -0.12305,-0.11133 -0.0673,-0.10469 -0.14323,-0.20377 -0.23242,-0.29297 -0.0401,-0.0401 -0.0846,-0.074 -0.125,-0.11328 -0.0665,-0.10431 -0.1409,-0.20257 -0.23047,-0.29101 -0.0412,-0.0412 -0.087,-0.0768 -0.12891,-0.11719 -0.0654,-0.10356 -0.13925,-0.20258 -0.22656,-0.29102 -0.0427,-0.0427 -0.0897,-0.0795 -0.13281,-0.12109 -0.0646,-0.10167 -0.13964,-0.19741 -0.22657,-0.2832 -0.0412,-0.0412 -0.087,-0.0768 -0.1289,-0.11719 -0.065,-0.1028 -0.13926,-0.1998 -0.22656,-0.28711 -0.0431,-0.0431 -0.0906,-0.0803 -0.13477,-0.12305 -0.0639,-0.10204 -0.13844,-0.19898 -0.22461,-0.28515 -0.042,-0.042 -0.0885,-0.0779 -0.13086,-0.11914 -0.0639,-0.10356 -0.13535,-0.20138 -0.22266,-0.28907 -0.0461,-0.0461 -0.098,-0.0855 -0.14453,-0.13086 -0.0616,-0.0983 -0.13131,-0.19028 -0.21484,-0.27343 -0.0465,-0.0465 -0.0992,-0.0851 -0.14648,-0.13086 -0.0616,-0.099 -0.12975,-0.19382 -0.21289,-0.27735 -0.0461,-0.0461 -0.0977,-0.0855 -0.14454,-0.13086 -0.0616,-0.099 -0.13131,-0.19343 -0.21484,-0.27734 -0.0465,-0.0465 -0.0977,-0.0875 -0.14453,-0.13281 -0.0609,-0.0986 -0.1317,-0.19186 -0.21485,-0.27539 -0.0469,-0.0469 -0.0992,-0.0871 -0.14648,-0.13281 -0.0605,-0.0998 -0.12703,-0.1954 -0.21094,-0.2793 -0.0491,-0.0491 -0.1044,-0.0903 -0.15429,-0.13867 -0.0593,-0.096 -0.12578,-0.18828 -0.20703,-0.26953 -0.048,-0.048 -0.10359,-0.0879 -0.15235,-0.13477 -0.0593,-0.099 -0.12546,-0.19382 -0.20898,-0.27734 -0.0506,-0.0503 -0.1068,-0.0934 -0.15821,-0.14258 -0.0574,-0.0949 -0.1218,-0.18588 -0.20117,-0.26563 -0.0518,-0.0518 -0.10957,-0.0958 -0.16211,-0.14648 -0.0571,-0.0952 -0.1218,-0.18588 -0.20117,-0.26563 -0.051,-0.051 -0.108,-0.0946 -0.16016,-0.14453 -0.0571,-0.096 -0.12104,-0.18745 -0.20117,-0.26758 -0.0521,-0.0521 -0.10919,-0.0974 -0.16211,-0.14843 -0.0556,-0.0941 -0.1194,-0.18468 -0.19726,-0.26368 -0.0726,-0.0722 -0.15211,-0.13477 -0.22657,-0.20507 -0.0461,-0.0692 -0.0774,-0.14656 -0.13671,-0.20704 -0.0707,-0.0703 -0.14852,-0.1308 -0.22071,-0.19921 -0.0472,-0.0714 -0.0814,-0.15167 -0.14258,-0.21289 -0.0711,-0.0711 -0.15008,-0.13239 -0.22265,-0.20118 -0.0465,-0.0707 -0.0798,-0.15008 -0.14063,-0.21093 -0.071,-0.0711 -0.14971,-0.13239 -0.22265,-0.20118 -0.0469,-0.0722 -0.081,-0.15166 -0.14258,-0.21289 -0.0711,-0.0711 -0.15009,-0.13238 -0.22266,-0.20117 -0.0461,-0.0714 -0.079,-0.14933 -0.14062,-0.21094 -0.0703,-0.0699 -0.14694,-0.13118 -0.21875,-0.19921 -0.0461,-0.0741 -0.0806,-0.15331 -0.14258,-0.2168 -0.0726,-0.0722 -0.15248,-0.13478 -0.22656,-0.20508 -0.0454,-0.0707 -0.0805,-0.14694 -0.14063,-0.20703 -0.0688,-0.0688 -0.14492,-0.12842 -0.21484,-0.19531 -0.0461,-0.076 -0.0826,-0.15683 -0.14649,-0.22071 -0.0718,-0.0718 -0.15128,-0.13358 -0.2246,-0.20312 -0.045,-0.0729 -0.0806,-0.15129 -0.14258,-0.21289 -0.0703,-0.0703 -0.14852,-0.13081 -0.22071,-0.19922 -0.0453,-0.0748 -0.083,-0.15444 -0.14648,-0.2168 -0.0707,-0.0707 -0.14851,-0.13081 -0.2207,-0.19922 -0.045,-0.0756 -0.0826,-0.15683 -0.14649,-0.2207 -0.0718,-0.0718 -0.15128,-0.13358 -0.22461,-0.20312 -0.0435,-0.0733 -0.0798,-0.15009 -0.14062,-0.21094 -0.0714,-0.0714 -0.14971,-0.13358 -0.22266,-0.20313 -0.0435,-0.0744 -0.0822,-0.1509 -0.14453,-0.21289 -0.0699,-0.0699 -0.14694,-0.13118 -0.21875,-0.19922 -0.0435,-0.0775 -0.0838,-0.15645 -0.14844,-0.2207 -0.0699,-0.0699 -0.14731,-0.12923 -0.21875,-0.19726 -0.0431,-0.0782 -0.083,-0.15765 -0.14648,-0.22266 -0.0748,-0.0745 -0.15803,-0.13875 -0.23438,-0.21094 -0.0412,-0.0714 -0.0778,-0.14612 -0.13672,-0.20508 -0.0699,-0.0703 -0.14693,-0.13118 -0.21875,-0.19922 -0.0416,-0.0782 -0.0846,-0.15682 -0.14843,-0.2207 -0.0726,-0.0726 -0.15286,-0.1344 -0.22657,-0.20508 -0.0408,-0.0756 -0.0806,-0.1509 -0.14257,-0.21289 -0.0718,-0.0718 -0.15129,-0.13358 -0.22461,-0.20312 -0.0404,-0.0775 -0.0834,-0.15482 -0.14649,-0.2168 -0.0695,-0.0695 -0.14574,-0.12961 -0.21679,-0.19727 -0.0397,-0.0816 -0.0858,-0.16042 -0.15039,-0.22656 -0.0729,-0.0729 -0.15369,-0.13597 -0.22852,-0.20703 -0.0382,-0.076 -0.0794,-0.15204 -0.14063,-0.21289 -0.0729,-0.0733 -0.15368,-0.13598 -0.22851,-0.20703 -0.0378,-0.0763 -0.081,-0.14933 -0.14258,-0.21094 -0.0718,-0.0718 -0.15129,-0.13358 -0.22461,-0.20312 -0.0378,-0.0805 -0.0841,-0.15645 -0.14648,-0.22071 -0.0733,-0.0729 -0.15368,-0.13597 -0.22852,-0.20703 -0.0378,-0.0782 -0.0814,-0.15368 -0.14453,-0.21679 -0.0714,-0.0714 -0.15166,-0.13359 -0.22461,-0.20313 -0.034,-0.0801 -0.0837,-0.15607 -0.14648,-0.2207 -0.0729,-0.073 -0.15368,-0.13598 -0.22852,-0.20703 -0.034,-0.0782 -0.0814,-0.14933 -0.14258,-0.21094 -0.0737,-0.0737 -0.15488,-0.13951 -0.23047,-0.21094 -0.034,-0.0794 -0.0802,-0.15242 -0.14257,-0.21289 -0.0741,-0.0745 -0.15646,-0.13875 -0.23243,-0.21094 -0.034,-0.0794 -0.0802,-0.15405 -0.14257,-0.21679 -0.0756,-0.0752 -0.15923,-0.13995 -0.23633,-0.21289 -0.0302,-0.0782 -0.0731,-0.15085 -0.13282,-0.21094 -0.0782,-0.0782 -0.16596,-0.14474 -0.24609,-0.22071 -0.0302,-0.0748 -0.0707,-0.14334 -0.12891,-0.20117 -0.0794,-0.0794 -0.16678,-0.14788 -0.24804,-0.22461 -0.0265,-0.0748 -0.0691,-0.14567 -0.12696,-0.20312 -0.0805,-0.0805 -0.16918,-0.15028 -0.25195,-0.22852 -0.0265,-0.0729 -0.0644,-0.14051 -0.12109,-0.19531 -0.0831,-0.0832 -0.17473,-0.15582 -0.25977,-0.23633 -0.0265,-0.0703 -0.0619,-0.13616 -0.11523,-0.18945 -0.0843,-0.0843 -0.17712,-0.15664 -0.26367,-0.23828 -0.0227,-0.0703 -0.0565,-0.13654 -0.10938,-0.18945 -0.0869,-0.0869 -0.18266,-0.16219 -0.27148,-0.2461 -0.0227,-0.0669 -0.0564,-0.13024 -0.10743,-0.18164 -0.0869,-0.0869 -0.18266,-0.16219 -0.27148,-0.24609 -0.0227,-0.0677 -0.0521,-0.13018 -0.10156,-0.17969 -0.0896,-0.0896 -0.18903,-0.16736 -0.28125,-0.25391 -0.0189,-0.0643 -0.0474,-0.12582 -0.0977,-0.17383 -0.0896,-0.0896 -0.18745,-0.16735 -0.27929,-0.2539 -0.0189,-0.0658 -0.045,-0.12898 -0.0938,-0.17774 -0.093,-0.093 -0.19539,-0.17371 -0.29101,-0.26367 -0.0151,-0.0605 -0.0422,-0.11637 -0.0879,-0.16211 -0.0937,-0.0937 -0.19697,-0.17529 -0.29297,-0.26562 -0.0151,-0.0616 -0.0379,-0.11991 -0.084,-0.16602 -0.096,-0.096 -0.20214,-0.17926 -0.30079,-0.27148 -0.0113,-0.0578 -0.0339,-0.1143 -0.0781,-0.15625 -0.0839,-0.0839 -0.17592,-0.15507 -0.26172,-0.23633 -0.0189,-0.0227 -0.044,-0.0461 -0.0645,-0.0703 -0.0151,-0.0427 -0.019,-0.089 -0.0508,-0.1211 -0.0729,-0.0729 -0.15368,-0.13597 -0.22852,-0.20703 -0.034,-0.0412 -0.0711,-0.0803 -0.10547,-0.12109 -0.0113,-0.0378 -0.0151,-0.0752 -0.0449,-0.10352 -0.0688,-0.0688 -0.14454,-0.12803 -0.21484,-0.19531 -0.0412,-0.0507 -0.087,-0.0982 -0.12891,-0.14844 -0.0113,-0.0302 -0.0105,-0.0629 -0.0332,-0.0859 -0.0601,-0.0597 -0.12665,-0.11134 -0.1875,-0.16993 -0.0544,-0.0676 -0.11203,-0.1327 -0.16797,-0.19922 -0.0113,-0.0189 -0.0122,-0.0466 -0.0274,-0.0625 -0.0503,-0.0503 -0.1068,-0.0931 -0.1582,-0.14257 l -0.008,-0.008 c -0.0639,-0.0797 -0.12955,-0.15809 -0.19531,-0.23632 -0.008,-0.0151 -0.006,-0.034 -0.0176,-0.0449 -0.0389,-0.0389 -0.0853,-0.0712 -0.125,-0.10937 -0.0151,-0.0189 -0.0303,-0.0341 -0.0469,-0.0508 -0.065,-0.0816 -0.12999,-0.16364 -0.19726,-0.24414 -0.008,-0.008 -0.002,-0.0217 -0.01,-0.0293 -0.0265,-0.0265 -0.0584,-0.0529 -0.0859,-0.0801 -0.034,-0.0389 -0.0695,-0.0763 -0.10351,-0.11523 -0.0609,-0.0763 -0.12281,-0.14978 -0.18555,-0.22461 -0.003,-0.003 -0.003,-0.008 -0.008,-0.0117 -0.0113,-0.0113 -0.0238,-0.0199 -0.0352,-0.0312 -0.0469,-0.0556 -0.0985,-0.10731 -0.14648,-0.16211 -0.12624,-0.15836 -0.26231,-0.3084 -0.39649,-0.46094 -0.12245,-0.15307 -0.25325,-0.29933 -0.38281,-0.44726 -0.29556,-0.37077 -0.609,-0.73152 -0.94726,-1.07031 h -0.004 c -2.4,-2.40378 -5.66067,-3.75196 -9.05469,-3.75196 z m -9.36719,17.44727 c 0.0151,0.24075 0.0267,0.48181 0.0527,0.71875 -0.0911,0.0805 -0.18309,0.15779 -0.27344,0.24023 -0.0378,-0.22337 -0.0774,-0.44649 -0.10351,-0.67383 0.1081,-0.0957 0.21536,-0.19136 0.32421,-0.28515 z m 0.38086,0.43164 c 0.0151,0.24038 0.0263,0.48027 0.0547,0.71679 -0.0926,0.0817 -0.18549,0.16057 -0.27734,0.24415 -0.0382,-0.22337 -0.0774,-0.44665 -0.10352,-0.67383 0.10849,-0.0964 0.21656,-0.19294 0.32617,-0.28711 z m 0.37891,0.43359 c 0.0151,0.24 0.0267,0.48062 0.0527,0.7168 -0.0911,0.0805 -0.18271,0.15779 -0.27343,0.24023 -0.0382,-0.22337 -0.0755,-0.44645 -0.10157,-0.67383 0.10736,-0.0949 0.21417,-0.19054 0.32227,-0.2832 z m 0.37891,0.43164 c 0.0151,0.23962 0.0267,0.47919 0.0527,0.71485 -0.0915,0.0809 -0.18429,0.15742 -0.27539,0.24023 -0.0378,-0.22224 -0.0755,-0.44394 -0.10156,-0.66992 0.1081,-0.0957 0.21536,-0.19174 0.32422,-0.28516 z m 0.37695,0.43164 c 0.0151,0.23887 0.0263,0.47788 0.0547,0.71289 -0.0911,0.0805 -0.1831,0.15818 -0.27344,0.24024 -0.0378,-0.22224 -0.0774,-0.44402 -0.10352,-0.66992 0.10735,-0.0949 0.21379,-0.19055 0.32227,-0.28321 z m 0.37891,0.42969 c 0.008,0.12624 0.008,0.25396 0.0195,0.37891 -0.0971,0.0858 -0.19155,0.15652 -0.28907,0.24609 -0.0151,-0.11452 -0.0395,-0.22652 -0.0527,-0.3418 0.10735,-0.0949 0.21416,-0.19092 0.32227,-0.2832 z m 90.46875,37.54492 c 0.1954,0.034 0.38912,0.0712 0.58203,0.10938 -0.0779,0.1035 -0.14237,0.21293 -0.2168,0.31836 -0.19578,-0.034 -0.39364,-0.0667 -0.5918,-0.0977 0.0738,-0.11105 0.14905,-0.22053 0.22657,-0.33008 z m 0.36523,0.42969 c 0.1954,0.034 0.38897,0.0728 0.58203,0.11133 -0.0783,0.10426 -0.14393,0.21294 -0.21875,0.31836 -0.19578,-0.034 -0.39371,-0.0651 -0.5918,-0.0957 0.0742,-0.11218 0.15024,-0.22329 0.22852,-0.33398 z m 0.36328,0.43164 c 0.19767,0.034 0.3926,0.0728 0.58789,0.11133 -0.0787,0.10464 -0.14588,0.21413 -0.2207,0.32031 -0.19767,-0.034 -0.39783,-0.0651 -0.59766,-0.0957 0.0745,-0.11294 0.15182,-0.22487 0.23047,-0.33594 z m 0.36719,0.43359 c 0.19653,0.034 0.38991,0.0735 0.58398,0.11133 -0.0771,0.10313 -0.1431,0.2098 -0.21679,0.31446 -0.19692,-0.034 -0.39675,-0.0631 -0.59571,-0.0937 0.0738,-0.11181 0.15061,-0.22173 0.22852,-0.33204 z m 0.36719,0.42774 c 0.19502,0.034 0.38717,0.0739 0.58008,0.11133 -0.0779,0.10425 -0.14468,0.21257 -0.21876,0.31836 -0.1954,-0.034 -0.39408,-0.0616 -0.59179,-0.0918 0.0745,-0.11369 0.1518,-0.22607 0.23047,-0.33789 z m 0.36132,0.43164 c 0.19692,0.034 0.38949,0.0735 0.58399,0.11133 -0.0779,0.10426 -0.14467,0.21257 -0.21875,0.31836 -0.19654,-0.034 -0.39686,-0.0619 -0.5957,-0.0918 0.0745,-0.11369 0.1518,-0.22607 0.23046,-0.33789 z m 0.36524,0.43164 c 0.19616,0.034 0.38822,0.0723 0.58203,0.10937 -0.0771,0.10351 -0.1431,0.21138 -0.2168,0.31641 -0.19653,-0.034 -0.39709,-0.06 -0.5957,-0.0898 0.0742,-0.11332 0.15217,-0.22413 0.23047,-0.33594 z m 0.36523,0.42773 c 0.19616,0.034 0.38803,0.0739 0.58203,0.11133 -0.0768,0.10275 -0.14227,0.21017 -0.21484,0.31446 -0.19729,-0.034 -0.39832,-0.058 -0.59766,-0.0879 0.0742,-0.1137 0.15181,-0.22571 0.23047,-0.3379 z m 0.36719,0.42774 c 0.1954,0.034 0.38683,0.0727 0.58008,0.10937 -0.0772,0.10351 -0.1431,0.21137 -0.2168,0.31641 -0.19615,-0.034 -0.3972,-0.0584 -0.5957,-0.0879 0.0745,-0.11407 0.15374,-0.2257 0.23242,-0.33789 z m 0.36328,0.42773 c 0.1954,0.034 0.38514,0.0747 0.57813,0.11133 -0.0775,0.10426 -0.14504,0.21257 -0.21875,0.31836 -0.19503,-0.034 -0.39455,-0.0588 -0.5918,-0.0879 0.0749,-0.11483 0.15337,-0.22884 0.23242,-0.3418 z m 0.35938,0.43164 c 0.19615,0.034 0.38814,0.0708 0.58203,0.10743 -0.0775,0.10425 -0.14504,0.21257 -0.21875,0.31836 -0.19616,-0.034 -0.39544,-0.0588 -0.59375,-0.0879 0.0742,-0.11369 0.15217,-0.2257 0.23047,-0.33789 z m 0.36328,0.42774 c 0.19464,0.034 0.38578,0.0715 0.57812,0.10742 -0.0775,0.10501 -0.14503,0.21377 -0.21875,0.32031 -0.1954,-0.034 -0.39409,-0.0592 -0.59179,-0.0879 0.0745,-0.11445 0.15374,-0.2269 0.23242,-0.33984 z m 0.35937,0.42969 c 0.19503,0.034 0.38729,0.0696 0.58008,0.10546 -0.0824,0.11188 -0.15418,0.22646 -0.23242,0.33985 0.19654,0.034 0.39351,0.0657 0.58789,0.10156 -0.0783,0.10652 -0.14817,0.21617 -0.22266,0.32422 -0.19691,-0.0302 -0.38893,-0.0713 -0.58789,-0.0996 0.0711,-0.10998 0.14783,-0.2177 0.22266,-0.32617 -0.19616,-0.0302 -0.3877,-0.0709 -0.58594,-0.0996 0.0757,-0.1171 0.15808,-0.2305 0.23828,-0.3457 z m 0.71289,0.87304 c 0.16593,0.0265 0.33184,0.0545 0.4961,0.084 4.1e-4,0.0476 -1.9e-4,0.0934 0,0.14062 -0.0472,0.0661 -0.0906,0.13428 -0.13672,0.20117 0.0457,0.008 0.091,0.0159 0.13672,0.0234 -7.6e-4,0.12132 0.003,0.24158 0,0.36328 -0.12095,-0.0189 -0.23768,-0.0435 -0.35938,-0.0605 0.0707,-0.10999 0.1482,-0.2177 0.22266,-0.32618 -0.19578,-0.0302 -0.38616,-0.0716 -0.58398,-0.0996 0.0711,-0.11029 0.14968,-0.21739 0.2246,-0.32617 z m 13.90625,17.05469 c -4.1e-4,0.0113 -9.3e-4,0.0258 -0.002,0.0371 -0.008,-5.3e-4 -0.012,-9.3e-4 -0.0195,-0.002 0.008,-0.0113 0.012,-0.0219 0.0195,-0.0332 z m 0.3711,0.36523 c -9.1e-4,0.0302 -0.003,0.0576 -0.004,0.0859 -0.0151,-0.001 -0.0263,-0.003 -0.041,-0.004 0.0151,-0.0265 0.0302,-0.0552 0.0449,-0.082 z m 0.36523,0.36719 0.002,0.002 c -9.9e-4,0.0427 -0.004,0.0862 -0.008,0.12891 -0.0189,-0.002 -0.0405,-0.004 -0.0605,-0.008 0.0227,-0.0404 0.0418,-0.0826 0.0664,-0.12305 z m 0.3711,0.36719 c -0.002,0.0575 -0.008,0.116 -0.008,0.17383 -0.0264,-0.003 -0.0548,-0.004 -0.082,-0.008 0.034,-0.0544 0.0566,-0.11197 0.0899,-0.16602 z m 0.36328,0.38086 c -0.002,0.068 -0.008,0.13667 -0.008,0.20508 -0.034,-0.003 -0.0675,-0.008 -0.10156,-0.0117 0.0379,-0.0641 0.0709,-0.12956 0.10938,-0.19336 z m 0.36523,0.41601 h 0.002 c -0.002,0.0661 -0.004,0.1327 -0.008,0.19922 l -0.12695,-0.0117 c 0.034,-0.0563 0.0578,-0.11556 0.0918,-0.17187 0.0151,-0.008 0.0263,-0.0118 0.041,-0.0156 z m 0.36524,0.41797 v 0.002 c -10e-4,0.0631 -0.002,0.12633 -0.004,0.18945 -0.0488,-0.004 -0.0974,-0.008 -0.14648,-0.0156 0.0264,-0.0484 0.051,-0.0981 0.0801,-0.14648 0.0227,-0.0113 0.0473,-0.018 0.0703,-0.0293 z m 0.36132,0.41992 c -10e-4,0.0605 -0.002,0.1208 -0.004,0.18165 -0.0552,-0.004 -0.11084,-0.0118 -0.16602,-0.0156 0.0227,-0.0404 0.0422,-0.0826 0.0664,-0.12305 0.034,-0.0151 0.0695,-0.0263 0.10351,-0.043 z m 0.36524,0.41407 v 0.002 c -9.8e-4,0.0586 -0.002,0.11682 -0.004,0.17578 -0.0624,-0.008 -0.12476,-0.012 -0.1875,-0.0195 0.0189,-0.034 0.0378,-0.0695 0.0566,-0.10351 0.0446,-0.0189 0.0906,-0.0339 0.13477,-0.0547 z m 0.36328,0.41797 c -9.8e-4,0.0556 -3.3e-4,0.11045 -0.002,0.16601 -0.0688,-0.008 -0.13787,-0.0158 -0.20703,-0.0195 0.0151,-0.0265 0.0263,-0.0524 0.043,-0.0781 0.0548,-0.0227 0.11159,-0.0442 0.16602,-0.0684 z m 0.36328,0.41406 0.002,0.002 c -10e-4,0.0537 9.9e-4,0.10649 0,0.16016 -0.0775,-0.008 -0.15456,-0.0159 -0.23242,-0.0234 0.0113,-0.0189 0.018,-0.0377 0.0293,-0.0566 0.0665,-0.0265 0.13503,-0.0525 0.20117,-0.082 z m 0.35938,0.41992 h 0.002 c -9.8e-4,0.0503 10e-4,0.0997 0,0.15039 -0.0831,-0.008 -0.16647,-0.0159 -0.25,-0.0234 0.008,-0.0113 0.01,-0.0219 0.0176,-0.0332 0.0763,-0.034 0.15488,-0.0601 0.23047,-0.0937 z m 0.36328,0.41797 c -8.7e-4,0.0465 10e-4,0.0922 0,0.13867 -0.0892,-0.008 -0.17801,-0.0159 -0.26758,-0.0234 0.002,-0.003 0.004,-0.006 0.008,-0.01 0.0864,-0.0375 0.17411,-0.0676 0.25977,-0.10547 z m 0.36328,0.41406 c -7.9e-4,0.0438 10e-4,0.087 0,0.13086 -0.0892,-0.008 -0.178,-0.0159 -0.26758,-0.0234 0.0888,-0.0378 0.17989,-0.0685 0.26758,-0.10742 z m 0.36133,0.41406 v 0.002 c -7.2e-4,0.0404 9.4e-4,0.0806 0,0.12109 -0.082,-0.008 -0.1637,-0.0159 -0.2461,-0.0234 0.0816,-0.034 0.16521,-0.0637 0.2461,-0.0996 z m 0.36132,0.41211 v 0.002 c -6.4e-4,0.0393 8.7e-4,0.0779 0,0.11718 -0.0786,-0.008 -0.15733,-0.0159 -0.23632,-0.0234 0.0782,-0.034 0.15884,-0.0613 0.23632,-0.0957 z M 588,623.94531 c -6e-4,0.0378 7.6e-4,0.0715 0,0.10742 -0.0729,-0.008 -0.14543,-0.0158 -0.21875,-0.0195 0.0726,-0.0302 0.14694,-0.0558 0.21875,-0.0879 z m 0.36133,0.41016 v 0.002 c -5.3e-4,0.034 6.4e-4,0.0651 0,0.0977 -0.0654,-0.008 -0.12993,-0.012 -0.19531,-0.0195 0.0646,-0.0265 0.13106,-0.0514 0.19531,-0.0801 z m 0.35937,0.41601 c -4.5e-4,0.0302 6.1e-4,0.0596 0,0.0898 -0.0605,-0.004 -0.12079,-0.0118 -0.18164,-0.0156 0.0601,-0.0264 0.12155,-0.0478 0.18164,-0.0742 z m -0.36914,0.008 h 0.002 c -9.1e-4,10e-4 -10e-4,0.003 -0.002,0.004 -4.8e-4,0.0144 -10e-4,0.0314 -0.002,0.0449 -0.008,-6e-4 -0.0159,-9.7e-4 -0.0234,-0.002 0.007,-0.0139 0.0155,-0.0279 0.0254,-0.043 4e-5,-10e-4 -4e-5,-0.003 0,-0.004 z m 0.36328,0.36718 c -9e-4,0.0302 -0.003,0.0576 -0.004,0.0859 -0.0151,-9.8e-4 -0.0267,-0.003 -0.041,-0.004 0.0151,-0.0265 0.0302,-0.0548 0.0449,-0.082 z m 0.36328,0.0391 v 0.002 c -3.7e-4,0.0265 5e-4,0.0517 0,0.0781 -0.0529,-0.004 -0.10724,-0.008 -0.16015,-0.0156 0.0525,-0.0227 0.108,-0.0418 0.16015,-0.0644 z m -0.006,0.3164 0.002,0.002 c -9.8e-4,0.0446 -0.004,0.0898 -0.008,0.13476 -0.0227,-0.002 -0.0417,-0.004 -0.0625,-0.008 0.0227,-0.0423 0.0438,-0.0866 0.0684,-0.12891 z m 0.36523,0.0957 v 0.002 c -3.4e-4,0.0227 4.2e-4,0.0461 0,0.0703 -0.0495,-0.004 -0.0986,-0.01 -0.14844,-0.0137 0.0488,-0.0227 0.0997,-0.0378 0.14844,-0.0586 z m -0.002,0.26367 h 0.002 c -0.002,0.0593 -0.008,0.12035 -0.0117,0.17969 -0.0265,-0.002 -0.0556,-0.008 -0.084,-0.008 0.034,-0.0571 0.0605,-0.11518 0.0937,-0.17187 z m 0.36133,0.14648 c -3.1e-4,0.0227 3.4e-4,0.0441 0,0.0664 -0.0457,-0.004 -0.091,-0.008 -0.13672,-0.0117 0.045,-0.0189 0.0917,-0.0339 0.13672,-0.0547 z m 0,0.21289 c -0.002,0.0741 -0.004,0.14858 -0.008,0.22266 -0.0378,-0.003 -0.0715,-0.006 -0.10742,-0.01 0.0397,-0.0707 0.074,-0.14297 0.11524,-0.21289 z m 0.35742,0.19727 c -2.3e-4,0.0189 3e-4,0.0377 0,0.0566 -0.0378,-0.003 -0.0751,-0.006 -0.11328,-0.01 0.0378,-0.0151 0.0759,-0.0302 0.11328,-0.0469 z m 0,0.16601 c -0.002,0.0869 -0.003,0.17442 -0.008,0.26172 -0.0435,-0.003 -0.0854,-0.008 -0.1289,-0.0117 0.0465,-0.0828 0.086,-0.1664 0.13476,-0.24804 z m 0.35742,0.24805 c -1.4e-4,0.0145 2.2e-4,0.029 0,0.0449 -0.0302,-0.003 -0.0624,-0.004 -0.0937,-0.008 0.0302,-0.0151 0.0628,-0.0246 0.0937,-0.0371 z m -0.002,0.11719 h 0.002 c -0.002,0.10016 -0.003,0.19987 -0.008,0.30078 -0.0507,-0.004 -0.0997,-0.01 -0.15039,-0.0137 0.0537,-0.0952 0.0999,-0.19262 0.15625,-0.28711 z m 0.35937,0.29492 c -10e-5,0.0111 1.8e-4,0.0253 0,0.0371 -0.0265,-0.002 -0.0532,-0.008 -0.0801,-0.008 0.0265,-0.0113 0.054,-0.018 0.0801,-0.0293 z m 0,0.0684 c -0.002,0.11273 -6e-4,0.22478 -0.004,0.33789 -0.0571,-0.004 -0.11247,-0.01 -0.16992,-0.0137 0.0605,-0.10734 0.10996,-0.21802 0.17383,-0.32422 z m 0.35742,0.33398 v 0.004 c -7e-5,0.008 8e-5,0.012 0,0.0195 -0.002,0.003 -0.003,0.007 -0.006,0.01 -0.0189,-0.002 -0.0377,-0.004 -0.0566,-0.008 0.0189,-0.008 0.0421,-0.0141 0.0625,-0.0254 z m -0.008,0.0352 c 0.002,1.9e-4 0.004,-1.5e-4 0.008,0 -0.002,0.12397 -3.9e-4,0.24675 -0.004,0.37109 -0.065,-0.004 -0.12798,-0.0158 -0.19336,-0.0195 0.0653,-0.11639 0.12054,-0.2366 0.18945,-0.35156 z m 0.34766,0.38477 c -0.003,0.004 -0.004,0.0118 -0.008,0.0156 0.008,7.2e-4 0.0141,9.3e-4 0.0254,0.002 -10e-4,0.12246 0.002,0.24398 -0.002,0.36719 -0.0714,-0.004 -0.13913,-0.0158 -0.21094,-0.0195 0.065,-0.11603 0.11872,-0.23509 0.1875,-0.34961 -0.008,-6.4e-4 -0.0139,-9.7e-4 -0.0215,-0.002 0.0113,-0.004 0.0217,-0.006 0.0293,-0.0137 z m 0.34179,0.41601 c 0.0113,8.7e-4 0.0217,9.7e-4 0.0293,0.002 -9.8e-4,0.12359 10e-4,0.24479 -0.002,0.36914 -0.0797,-0.008 -0.15658,-0.0139 -0.23633,-0.0215 0.0635,-0.11338 0.11827,-0.22992 0.18555,-0.3418 0.008,-0.003 0.0159,-0.004 0.0234,-0.008 z m 0.37305,0.40039 c 0.004,3.8e-4 0.006,0.002 0.0137,0.002 -9.8e-4,0.12359 0.003,0.24479 0,0.36914 -0.0873,-0.008 -0.17013,-0.0177 -0.25781,-0.0215 0.0586,-0.10507 0.10989,-0.21247 0.17187,-0.3164 0.0265,-0.0113 0.05,-0.0199 0.0742,-0.0312 z m 0.37109,0.4043 c -9.8e-4,0.12208 0.003,0.24278 0,0.36523 -0.0941,-0.008 -0.1848,-0.0178 -0.27929,-0.0254 0.0537,-0.0967 0.10151,-0.19539 0.1582,-0.29101 0.0401,-0.0189 0.0814,-0.0303 0.12109,-0.0488 z m 0.35157,0.41406 c -8.5e-4,0.11726 0.003,0.23392 0,0.35156 -0.099,-0.008 -0.19515,-0.0216 -0.29493,-0.0254 0.0491,-0.0884 0.0935,-0.17794 0.14454,-0.26562 0.0495,-0.0227 0.10087,-0.039 0.15039,-0.0605 z m 0.35742,0.40039 c -8e-4,0.11679 0.003,0.23207 0,0.34961 -0.10734,-0.008 -0.21064,-0.0217 -0.31836,-0.0293 0.045,-0.0813 0.086,-0.16364 0.13281,-0.24415 0.0616,-0.0264 0.12432,-0.0489 0.18555,-0.0762 z m 0.35351,0.41211 c -6.8e-4,0.1115 0.002,0.22173 0,0.33399 -0.11527,-0.008 -0.22614,-0.0217 -0.34179,-0.0293 0.0393,-0.0714 0.0764,-0.14417 0.11718,-0.21484 0.0745,-0.0302 0.15091,-0.0573 0.22461,-0.0898 z m 0.35547,0.40235 c -6e-4,0.11074 0.002,0.22053 0,0.33203 -0.12245,-0.008 -0.24007,-0.0257 -0.36328,-0.0332 0.034,-0.0643 0.0688,-0.1291 0.10547,-0.19336 0.0862,-0.034 0.17277,-0.068 0.25781,-0.10546 z m 0.35352,0.40625 c -5.3e-4,0.10696 0.002,0.21297 0,0.32031 -0.12359,-0.008 -0.24284,-0.0256 -0.36719,-0.0332 3.4e-4,-0.008 0.002,-0.0198 0.002,-0.0273 0.0265,-0.048 0.0509,-0.0969 0.0781,-0.14453 0.0956,-0.0393 0.19262,-0.0737 0.28711,-0.11523 z m 0.35156,0.40625 c -4.2e-4,0.10431 0.002,0.2078 0,0.3125 -0.12321,-0.008 -0.24164,-0.0257 -0.36523,-0.0332 9.8e-4,-0.0264 0.004,-0.052 0.008,-0.0781 0.0151,-0.0227 0.0266,-0.05 0.0391,-0.0742 0.10602,-0.0429 0.21381,-0.0812 0.31836,-0.12695 z m 0.35547,0.40429 c -3.4e-4,0.10092 -10e-5,0.20145 -0.002,0.30274 -0.12019,-0.008 -0.2361,-0.0217 -0.35743,-0.0293 l -0.008,-0.008 c 0.001,-0.0378 0.004,-0.0743 0.008,-0.11133 0.002,-0.003 0.002,-0.008 0.004,-0.0117 0.1183,-0.0476 0.2383,-0.0915 0.35547,-0.14258 z m 0.35156,0.40625 c -3e-4,0.0971 -2.5e-4,0.19351 -0.002,0.29102 -0.11603,-0.008 -0.22734,-0.0217 -0.34375,-0.0293 l -0.0195,-0.0195 c 9.8e-4,-0.034 0.004,-0.0679 0.008,-0.10156 -0.0113,0.004 -0.0217,0.008 -0.0293,0.0117 0.0113,-0.0189 0.0219,-0.0421 0.0332,-0.0625 -4.6e-4,0.0151 -9.7e-4,0.0341 -0.002,0.0508 0.11827,-0.0477 0.23866,-0.0897 0.35547,-0.14063 z m 0.35156,0.4043 c -1.8e-4,0.0952 0.002,0.18953 0,0.28516 -0.11111,-0.008 -0.2182,-0.0217 -0.33007,-0.0293 l -0.0312,-0.0312 c 8.7e-4,-0.0265 0.003,-0.0536 0.004,-0.0801 -0.0227,0.008 -0.0429,0.0198 -0.0644,0.0273 l -0.002,-0.002 c 0.0227,-0.0435 0.0457,-0.0878 0.0703,-0.13086 -8.7e-4,0.034 -0.003,0.0703 -0.004,0.10547 0.11944,-0.048 0.2395,-0.0931 0.35742,-0.14453 z m 0,0.39062 c -9.8e-4,0.0529 -3.6e-4,0.10529 -0.002,0.15821 0.11792,-0.0473 0.23749,-0.0919 0.35352,-0.14258 -1.5e-4,0.0911 9.8e-4,0.18355 0,0.27539 -0.10621,-0.008 -0.20787,-0.0236 -0.31446,-0.0273 l -0.043,-0.043 c 6.5e-4,-0.0189 0.003,-0.0405 0.004,-0.0606 -0.0151,0.008 -0.0302,0.0158 -0.0469,0.0195 -0.0113,-0.0113 -0.0237,-0.0199 -0.0312,-0.0312 0.0264,-0.0491 0.0521,-0.0993 0.0801,-0.14844 z m 0.35157,0.35547 c -9.9e-4,0.0684 10e-6,0.13629 -0.002,0.20508 0.11793,-0.0472 0.23749,-0.0919 0.35352,-0.14258 -1.1e-4,0.0884 9.8e-4,0.17681 0,0.26563 -0.10016,-0.008 -0.19596,-0.0178 -0.29688,-0.0254 l -0.0586,-0.0586 c 3.8e-4,-0.0113 0.002,-0.0266 0.002,-0.0391 -0.0113,0.004 -0.0237,0.008 -0.0312,0.0117 -0.0189,-0.0189 -0.0381,-0.0341 -0.0566,-0.0508 0.0302,-0.0552 0.0581,-0.11121 0.0899,-0.16602 z m 0.35156,0.35547 c -10e-4,0.0847 0.002,0.16849 0,0.25391 0.11641,-0.0469 0.23471,-0.0904 0.34961,-0.14063 -4e-5,0.0813 9.8e-4,0.16251 0,0.24414 -0.001,0.003 -0.002,0.004 -0.004,0.008 10e-4,7e-5 0.003,-8e-5 0.004,0 -0.001,0.096 0.003,0.19268 0,0.28906 -0.0265,-0.0265 -0.0556,-0.0473 -0.082,-0.0723 -0.008,-0.0113 -0.0159,-0.018 -0.0234,-0.0293 0.034,-0.0624 0.0657,-0.1259 0.10156,-0.1875 -0.0941,-0.008 -0.18443,-0.0198 -0.27929,-0.0274 -0.0227,-0.0227 -0.0457,-0.0437 -0.0684,-0.0664 1.9e-4,-0.008 0.002,-0.01 0.002,-0.0176 -0.004,0.002 -0.0118,0.002 -0.0156,0.006 -0.0264,-0.0227 -0.0528,-0.0446 -0.0781,-0.0684 -0.002,-0.003 -0.004,-0.002 -0.008,-0.006 0.034,-0.0608 0.0664,-0.12508 0.10156,-0.18555 z m 0.70117,0.51367 h 0.002 c 4e-5,0.0646 -9.3e-4,0.12836 -0.002,0.19336 -0.0113,0.0151 -0.0198,0.0342 -0.0273,0.0508 0.008,5.7e-4 0.0198,9.4e-4 0.0273,0.002 -9.8e-4,0.093 0.002,0.18399 0,0.27734 -0.0227,-0.0227 -0.0509,-0.0449 -0.0762,-0.0684 -0.0113,-0.0151 -0.0266,-0.0302 -0.0391,-0.0469 0.0302,-0.0544 0.0569,-0.11002 0.0879,-0.16407 -0.0816,-0.004 -0.16175,-0.0139 -0.24414,-0.0215 l -0.0801,-0.0801 c 0.11754,-0.0472 0.23591,-0.0923 0.35156,-0.14258 z m 0.34961,0.40039 0.002,0.002 c 8e-5,0.0469 -0.002,0.0938 -0.002,0.14062 -0.0189,0.0302 -0.0303,0.0616 -0.0488,0.0918 0.0151,9.8e-4 0.0341,0.003 0.0488,0.004 -9.1e-4,0.0888 0.002,0.17642 0,0.26562 -0.0189,-0.0189 -0.0381,-0.0342 -0.0566,-0.0508 -0.0227,-0.0265 -0.0437,-0.0536 -0.0664,-0.0801 0.0265,-0.0457 0.0481,-0.0929 0.0742,-0.13867 -0.0692,-0.004 -0.13749,-0.0138 -0.20703,-0.0176 l -0.0781,-0.0781 c 0.11187,-0.045 0.22362,-0.0903 0.33398,-0.13868 z m 0.34961,0.40625 c 4e-5,0.0333 1.1e-4,0.0651 0,0.0977 -0.0227,0.0408 -0.0426,0.0838 -0.0664,0.125 0.0227,9.8e-4 0.0437,0.004 0.0664,0.008 -7.9e-4,0.0835 0.002,0.16648 0,0.25 -0.0151,-0.0151 -0.0341,-0.0302 -0.0508,-0.0449 -0.0265,-0.0302 -0.0513,-0.0647 -0.0781,-0.0957 0.0227,-0.0382 0.041,-0.0771 0.0625,-0.11524 -0.0582,-0.004 -0.11329,-0.0118 -0.17187,-0.0156 l -0.0801,-0.0801 c 0.10621,-0.0431 0.21367,-0.0832 0.31836,-0.12891 z m 0.35156,0.39844 c 4e-5,0.0151 0,0.0263 0,0.041 -0.034,0.0563 -0.0612,0.11518 -0.0937,0.17187 0.0302,0.002 0.0608,0.008 0.0918,0.008 -6.4e-4,0.079 0.002,0.15733 0,0.23632 -0.0151,-0.0151 -0.0302,-0.0263 -0.0449,-0.041 -0.0302,-0.0386 -0.0632,-0.0762 -0.0957,-0.11328 0.0151,-0.0302 0.0303,-0.06 0.0488,-0.0899 -0.045,-0.003 -0.0878,-0.008 -0.13281,-0.0117 -0.0265,-0.0264 -0.0505,-0.0524 -0.0762,-0.0781 0.10129,-0.0408 0.20295,-0.0792 0.30273,-0.12305 z m 0.34766,0.40039 v 0.002 c -0.0397,0.0661 -0.0712,0.13465 -0.10938,0.20117 0.0378,0.002 0.0727,0.008 0.10938,0.0117 -5.7e-4,0.0748 9.8e-4,0.14939 0,0.22461 l -0.0234,-0.0234 c -0.0397,-0.0495 -0.0791,-0.0996 -0.12109,-0.14649 0.0113,-0.0227 0.0238,-0.0445 0.0351,-0.0664 -0.034,-0.002 -0.0656,-0.006 -0.0996,-0.01 -0.0264,-0.0265 -0.0489,-0.0524 -0.0742,-0.0781 0.0945,-0.0385 0.18984,-0.0744 0.2832,-0.11524 z m 0.3125,0.41211 v 0.004 c -0.0337,0.0577 -0.0625,0.11766 -0.0957,0.17578 -0.0227,-10e-4 -0.0413,-0.004 -0.0625,-0.008 -0.0265,-0.0265 -0.0489,-0.0524 -0.0742,-0.0781 0.0775,-0.0302 0.15569,-0.0609 0.23242,-0.0937 z m -0.0957,0.18164 c 0.045,0.003 0.0882,0.008 0.13281,0.0117 -4.6e-4,0.0703 10e-4,0.14026 0,0.21094 l -0.0195,-0.0195 c -0.045,-0.0552 -0.0891,-0.11153 -0.13672,-0.16406 0.007,-0.0146 0.0162,-0.0251 0.0234,-0.0391 z m 0.4082,0.23438 0.002,0.002 c -0.0299,0.0498 -0.0556,0.10023 -0.084,0.15039 -0.008,-4.5e-4 -0.016,-9.7e-4 -0.0274,-0.002 -0.0227,-0.0265 -0.0473,-0.0528 -0.0723,-0.0781 0.0605,-0.0264 0.12154,-0.0466 0.18164,-0.0723 z m -0.082,0.15429 c 0.0521,0.003 0.10214,0.0118 0.15429,0.0156 -3.4e-4,0.0665 9.9e-4,0.1327 0,0.19922 l -0.008,-0.008 c -0.0518,-0.0643 -0.10264,-0.12936 -0.1582,-0.18946 0.003,-0.007 0.008,-0.011 0.0117,-0.0176 z m 0.39453,0.26563 c -0.0227,0.0385 -0.0425,0.0783 -0.0644,0.11719 -0.0227,-0.0227 -0.0394,-0.0464 -0.0606,-0.0684 0.0416,-0.0189 0.0838,-0.0303 0.125,-0.0488 z m -0.0586,0.12109 c 0.0563,0.003 0.11008,0.0118 0.16602,0.0156 -2.3e-4,0.0616 7.9e-4,0.12356 0,0.18555 -0.0548,-0.0677 -0.10705,-0.13806 -0.16602,-0.20118 z m 0.36915,0.29102 c -0.0142,0.022 -0.0225,0.0461 -0.0371,0.0684 -0.0113,-0.0113 -0.022,-0.0266 -0.0371,-0.0391 0.0264,-0.0113 0.0496,-0.0217 0.0742,-0.0293 z m -0.01,0.10156 c 0.0518,0.003 0.10094,0.0118 0.15234,0.0156 -1.5e-4,0.0559 6.1e-4,0.11203 0,0.16797 -0.0503,-0.0609 -0.0987,-0.1242 -0.15234,-0.18165 z m 0.32617,0.30664 c -0.004,0.008 -0.008,0.0198 -0.0156,0.0273 -0.004,-0.004 -0.01,-0.008 -0.0137,-0.0156 0.0113,-0.004 0.018,-0.008 0.0293,-0.0117 z m 0.0332,0.084 c 0.0469,0.003 0.0918,0.008 0.13867,0.0117 -1.2e-4,0.0522 4.9e-4,0.1041 0,0.15626 -0.0465,-0.0559 -0.0895,-0.11544 -0.13867,-0.16797 z m 0.36132,0.39257 c 0.0416,0.002 0.0831,0.008 0.125,0.0117 -3e-5,0.045 3.1e-4,0.0898 0,0.13477 -0.0412,-0.0488 -0.0815,-0.0996 -0.125,-0.14649 z m 0.36133,0.38868 c 0.0378,0.002 0.0727,0.008 0.10938,0.0117 3e-5,0.0408 2.2e-4,0.0822 0,0.12304 -0.0378,-0.0435 -0.0708,-0.0912 -0.10938,-0.13281 z m 0.36328,0.39062 c 0.0302,0.002 0.0608,0.008 0.0918,0.008 4e-5,0.034 1.1e-4,0.0688 0,0.10352 -0.0302,-0.0378 -0.0593,-0.0762 -0.0918,-0.11133 z m 0.35742,0.38867 c 0.0265,10e-4 0.0548,0.008 0.082,0.008 7e-5,0.0302 3e-5,0.0588 0,0.0879 -0.0265,-0.0302 -0.0541,-0.0655 -0.082,-0.0957 z m 0.35938,0.38867 c 0.0227,9.9e-4 0.0453,0.004 0.0684,0.008 1.1e-4,0.0264 0,0.0496 0,0.0742 -0.0227,-0.0265 -0.0445,-0.0544 -0.0684,-0.0801 z m 0.36133,0.39063 h 0.002 c 0.0189,9.4e-4 0.0322,0.003 0.0488,0.004 1.1e-4,0.0189 -0.002,0.0377 -0.002,0.0566 -0.0189,-0.0189 -0.0303,-0.0417 -0.0488,-0.0606 z m 0.35937,0.38477 c 0.0113,7.1e-4 0.022,0.003 0.0371,0.004 8e-5,0.0151 -7e-5,0.0263 0,0.041 -0.0113,-0.0151 -0.022,-0.0302 -0.0371,-0.0449 z m 0.35742,0.38867 c 0.008,4.1e-4 0.0139,0.002 0.0215,0.002 7e-5,0.008 -4e-5,0.016 0,0.0273 -0.008,-0.008 -0.0139,-0.0198 -0.0215,-0.0273 z m 0.35938,0.38672 c 0.003,1.5e-4 0.004,-1.5e-4 0.008,0 0,0.003 -4e-5,0.008 0,0.0117 -0.003,-0.003 -0.004,-0.008 -0.008,-0.0117 z m 1.7207,1.90429 c 8e-5,0.003 -4e-5,0.008 0,0.0117 -9.8e-4,-0.001 -0.003,-0.003 -0.004,-0.004 10e-4,-0.002 0.003,-0.004 0.004,-0.008 z m -211.93164,58.25782 c -0.0188,0.19966 -0.0341,0.39926 -0.0488,0.59765 -0.13719,0.0563 -0.27627,0.10674 -0.41211,0.16797 0.008,-0.19929 0.0199,-0.39893 0.0312,-0.59961 0.14211,-0.0586 0.28611,-0.1131 0.42969,-0.16601 z m 0.38281,0.43359 c -0.0188,0.19891 -0.0341,0.39795 -0.0488,0.5957 -0.1372,0.0563 -0.27628,0.10674 -0.41211,0.16797 0.008,-0.19891 0.0143,-0.39747 0.0293,-0.59766 0.14287,-0.0586 0.28723,-0.1131 0.43164,-0.16601 z m 0.38086,0.43164 c -0.0188,0.19967 -0.034,0.39915 -0.0469,0.59766 -0.13795,0.0563 -0.27777,0.10441 -0.41406,0.16601 0.008,-0.19891 0.0199,-0.39755 0.0312,-0.59765 0.14248,-0.0582 0.2861,-0.11311 0.42968,-0.16602 z m 0.37891,0.43359 c -0.0189,0.19881 -0.0302,0.39792 -0.0449,0.59571 -0.13665,0.0557 -0.27488,0.10308 -0.41016,0.16406 0.008,-0.1974 0.018,-0.39508 0.0293,-0.59375 0.14135,-0.0578 0.2831,-0.11348 0.42578,-0.16602 z m 0.38086,0.42969 c -0.0189,0.20107 -0.0302,0.40174 -0.0449,0.60156 0.14097,-0.0578 0.28348,-0.1119 0.42578,-0.16406 -0.0189,0.19843 -0.034,0.39635 -0.0449,0.59375 -0.13629,0.0556 -0.27526,0.10346 -0.41016,0.16406 0.008,-0.19767 0.018,-0.39491 0.0293,-0.59375 -0.13644,0.0559 -0.27515,0.10322 -0.41016,0.16407 0.008,-0.19918 0.0161,-0.39907 0.0312,-0.59961 0.1408,-0.0576 0.28168,-0.11407 0.42383,-0.16602 z m 0.75977,0.86719 c -0.0189,0.19767 -0.034,0.39515 -0.0449,0.5918 -0.13589,0.0553 -0.27371,0.10151 -0.4082,0.1621 0.008,-0.19615 0.0199,-0.39243 0.0312,-0.58984 0.14004,-0.0572 0.28056,-0.11249 0.42188,-0.16406 z m 0.38085,0.42773 c -0.0189,0.19881 -0.034,0.39635 -0.0449,0.59375 -0.13626,0.0553 -0.27337,0.10384 -0.4082,0.16407 0.008,-0.1973 0.0142,-0.39522 0.0293,-0.59375 0.14079,-0.0572 0.28172,-0.11249 0.42382,-0.16407 z m 0.37891,0.42969 c -0.0189,0.19918 -0.0301,0.39777 -0.043,0.5957 -0.13628,0.0553 -0.27529,0.10151 -0.41015,0.16211 0.008,-0.19767 0.0199,-0.39494 0.0312,-0.59375 0.14004,-0.0568 0.28056,-0.11249 0.42187,-0.16406 z m 0.37695,0.43164 c -0.0151,0.19805 -0.0301,0.39515 -0.043,0.5918 -0.13439,0.0541 -0.27145,0.10066 -0.40429,0.16015 0.008,-0.19502 0.018,-0.3915 0.0293,-0.58789 0.13891,-0.0565 0.27753,-0.11324 0.41797,-0.16406 z m 0.37696,0.42969 c -0.0151,0.19815 -0.0301,0.395 -0.041,0.5918 0,0 0.002,0 0.002,0 0.13869,-0.056 0.27779,-0.10942 0.41797,-0.16016 -0.0151,0.19767 -0.0301,0.39346 -0.043,0.58984 -0.13438,0.054 -0.27145,0.0968 -0.40429,0.15625 0.008,-0.194 0.018,-0.38882 0.0293,-0.58398 0,0 -0.002,0 -0.002,0 -0.13493,0.0544 -0.27285,0.0965 -0.40625,0.15625 0.008,-0.19578 0.0199,-0.39263 0.0312,-0.58985 0.13813,-0.0557 0.27674,-0.10962 0.41602,-0.16015 z m 0.7539,0.85937 c -0.0151,0.19702 -0.0301,0.39227 -0.041,0.58789 0,0 0.002,0 0.002,0 0.1383,-0.0556 0.27662,-0.10979 0.41602,-0.16015 -0.0151,0.19626 -0.0266,0.39103 -0.0391,0.58594 0,0 0.002,0 0.002,0 0.13829,-0.0556 0.27624,-0.1098 0.41601,-0.16016 -0.0151,0.19777 -0.0266,0.39347 -0.0391,0.58984 -0.13569,0.0544 -0.27403,0.0969 -0.4082,0.15625 0.008,-0.194 0.0199,-0.38882 0.0312,-0.58398 0,0 -0.002,0 -0.002,0 -0.13492,0.054 -0.27247,0.0969 -0.40625,0.15625 0.008,-0.19324 0.018,-0.38747 0.0293,-0.58203 0,0 -0.002,0 -0.002,0 -0.13418,0.054 -0.27132,0.0972 -0.4043,0.15625 0.008,-0.19465 0.0199,-0.38993 0.0312,-0.58594 0.13773,-0.0554 0.27524,-0.11 0.41406,-0.16016 z m 1.13086,1.28516 c -0.0151,0.19616 -0.0266,0.39099 -0.0391,0.58594 0.13682,-0.0548 0.27401,-0.10869 0.41211,-0.15821 -0.0151,0.19541 -0.0277,0.38976 -0.0391,0.58399 -0.13439,0.0537 -0.27148,0.0975 -0.4043,0.15625 0.008,-0.19314 0.0199,-0.38773 0.0312,-0.58203 -0.13417,0.0537 -0.27137,0.0957 -0.4043,0.15429 0.008,-0.19286 0.018,-0.38605 0.0293,-0.58007 0.13757,-0.0552 0.27513,-0.10989 0.41406,-0.16016 z m 0.75,0.85352 c -0.0151,0.19653 -0.0277,0.39087 -0.0391,0.58593 -0.13439,0.0537 -0.2711,0.0975 -0.4043,0.15625 0.008,-0.19351 0.018,-0.38915 0.0293,-0.58398 0.13664,-0.0546 0.27607,-0.10852 0.41406,-0.1582 z m 0.37305,0.42578 c -0.0151,0.19653 -0.0258,0.39072 -0.0371,0.58593 0.1372,-0.0548 0.27367,-0.11064 0.41211,-0.16015 -0.0151,0.19502 -0.0238,0.38829 -0.0352,0.58203 0.13644,-0.054 0.27251,-0.10907 0.41016,-0.1582 -0.0151,0.19578 -0.0219,0.38742 -0.0332,0.58203 0.13493,-0.0537 0.26984,-0.10592 0.40625,-0.1543 -0.0151,0.19427 -0.0219,0.38691 -0.0332,0.58008 0.13607,-0.054 0.27101,-0.1114 0.40821,-0.16016 -0.0151,0.1954 -0.0238,0.38995 -0.0352,0.58399 0.13455,-0.0533 0.26873,-0.10825 0.4043,-0.15625 -0.0151,0.19464 -0.018,0.38671 -0.0293,0.58008 0.13531,-0.0533 0.26985,-0.10826 0.40625,-0.15626 -0.0151,0.19389 -0.0237,0.38537 -0.0312,0.57813 0.1338,-0.0529 0.26723,-0.10863 0.40234,-0.15625 -0.0151,0.19465 -0.0217,0.38672 -0.0293,0.58008 0.13379,-0.0525 0.26722,-0.10863 0.40234,-0.15625 -0.0151,0.19389 -0.0237,0.38548 -0.0312,0.57812 0.13455,-0.0529 0.26835,-0.10862 0.4043,-0.15625 -0.0151,0.19314 -0.0217,0.38421 -0.0293,0.57618 0.1338,-0.0525 0.26723,-0.10706 0.40234,-0.1543 -0.0151,0.19427 -0.0199,0.38525 -0.0312,0.57812 0.13304,-0.0521 0.26607,-0.10743 0.4004,-0.15429 -0.0151,0.192 -0.018,0.38143 -0.0293,0.57226 0.13266,-0.0518 0.26456,-0.10743 0.39844,-0.15429 -0.0151,0.19275 -0.0199,0.38286 -0.0312,0.57421 0.13341,-0.0521 0.26606,-0.10743 0.40039,-0.15429 -0.0151,0.19237 -0.018,0.38297 -0.0293,0.57422 0.13417,-0.0522 0.26685,-0.10939 0.40234,-0.15625 -0.0151,0.19313 -0.0237,0.38439 -0.0312,0.57617 0.13304,-0.0518 0.26419,-0.10781 0.39844,-0.1543 -0.0151,0.19238 -0.018,0.3832 -0.0293,0.57422 0.13304,-0.0514 0.26457,-0.10781 0.39844,-0.1543 -0.0151,0.192 -0.0199,0.38163 -0.0312,0.57227 0.13342,-0.0518 0.26569,-0.10781 0.40039,-0.1543 -0.0151,0.19125 -0.018,0.38047 -0.0293,0.57031 0.13228,-0.051 0.26302,-0.10623 0.39648,-0.15234 -0.0151,0.19162 -0.0199,0.38182 -0.0312,0.57227 0.13304,-0.0514 0.26419,-0.10819 0.39844,-0.1543 -0.0151,0.19162 -0.018,0.38204 -0.0293,0.57226 0.13228,-0.0506 0.26303,-0.10856 0.39648,-0.15429 -0.003,0.0393 -0.003,0.0779 -0.008,0.11718 -0.10053,0.18898 -0.19861,0.37837 -0.30859,0.5625 -0.034,0.0151 -0.0707,0.0263 -0.10547,0.041 0.004,-0.18746 0.0159,-0.37758 0.0234,-0.56641 -0.13115,0.0503 -0.26306,0.0972 -0.39258,0.15235 0.004,-0.18898 0.0139,-0.38002 0.0215,-0.57031 -0.13115,0.0506 -0.26267,0.0968 -0.39258,0.15234 0.004,-0.18973 0.016,-0.38132 0.0274,-0.57227 -0.13228,0.051 -0.26571,0.0964 -0.39649,0.15235 0.004,-0.18822 0.0141,-0.37874 0.0254,-0.56836 -0.13191,0.051 -0.26418,0.0984 -0.39454,0.15429 0.004,-0.18935 0.016,-0.38158 0.0274,-0.57226 -0.13229,0.0514 -0.26534,0.098 -0.39649,0.1543 0.004,-0.19011 0.0198,-0.3829 0.0273,-0.57422 -0.13304,0.0514 -0.26684,0.0976 -0.39844,0.15429 0.004,-0.19011 0.0178,-0.38282 0.0254,-0.57421 -0.13304,0.0518 -0.26683,0.0976 -0.39844,0.15429 0.004,-0.19011 0.0198,-0.38282 0.0274,-0.57422 -0.13267,0.0518 -0.26684,0.0976 -0.39844,0.1543 0.004,-0.19011 0.018,-0.38275 0.0293,-0.57422 -0.13418,0.0522 -0.26946,0.0988 -0.40235,0.15625 0.004,-0.19049 0.0237,-0.38259 0.0312,-0.57422 -0.13379,0.0522 -0.26983,0.0969 -0.40234,0.1543 0.004,-0.19124 0.018,-0.38552 0.0293,-0.57812 -0.13417,0.0525 -0.26945,0.0988 -0.40234,0.15624 0.004,-0.19086 0.0199,-0.38409 0.0312,-0.57617 -0.13417,0.0525 -0.26949,0.0984 -0.40234,0.15625 0.008,-0.19162 0.0217,-0.38525 0.0293,-0.57812 -0.13303,0.0525 -0.26871,0.0969 -0.40039,0.1543 0.008,-0.19163 0.0199,-0.38511 0.0312,-0.57813 -0.1353,0.0533 -0.27249,0.098 -0.40625,0.15625 0.008,-0.19162 0.0217,-0.38503 0.0293,-0.57812 -0.13379,0.0529 -0.26987,0.0965 -0.40234,0.15429 0.008,-0.192 0.018,-0.38495 0.0293,-0.57812 -0.13455,0.0533 -0.27137,0.0977 -0.40429,0.15625 0.008,-0.19238 0.0199,-0.38649 0.0312,-0.58008 -0.13418,0.0529 -0.2695,0.098 -0.40235,0.15625 0.008,-0.19238 0.018,-0.38634 0.0293,-0.58008 -0.13455,0.0533 -0.27099,0.098 -0.4043,0.15625 0.008,-0.19276 0.0199,-0.38784 0.0312,-0.58203 -0.1353,0.0537 -0.27249,0.0992 -0.40625,0.1582 0.008,-0.19275 0.018,-0.38619 0.0293,-0.58008 -0.13455,0.0537 -0.27137,0.0977 -0.4043,0.15625 0.008,-0.19313 0.0199,-0.38765 0.0312,-0.58203 0.13663,-0.0546 0.27225,-0.11085 0.41016,-0.16015 z"
         transform="scale(0.26458333)" />
      <path
         id="circle5625-3-9-3"
         style="opacity:0.911;fill:#afe9c6;fill-opacity:1;stroke:none;stroke-width:0.515937;stroke-linecap:round;stroke-linejoin:bevel;stroke-miterlimit:4;stroke-dasharray:none;stroke-dashoffset:0;stroke-opacity:0.839216;paint-order:normal"
         d="m 127.00495,165.15988 a 7.1972533,7.1972552 37.130182 0 0 -5.74306,2.85279 7.1972533,7.1972552 37.130182 0 0 1.39365,10.08259 7.1972533,7.1972552 37.130182 0 0 10.08259,-1.39365 7.1972533,7.1972552 37.130182 0 0 -1.39365,-10.08258 7.1972533,7.1972552 37.130182 0 0 -4.33953,-1.45915 z m -0.16369,2.91125 h 1.77993 v 6.91231 h 1.92127 v 1.92313 h -6.69604 v -1.92313 h 2.34501 v -4.57104 h -1.97772 v -1.47724 c 1.2714,-0.1951 1.89297,-0.41807 2.62755,-0.86403 z" />
      <path
         style="color:#000000;font-style:normal;font-variant:normal;font-weight:normal;font-stretch:normal;font-size:medium;line-height:normal;font-family:sans-serif;font-variant-ligatures:normal;font-variant-position:normal;font-variant-caps:normal;font-variant-numeric:normal;font-variant-alternates:normal;font-feature-settings:normal;text-indent:0;text-align:start;text-decoration:none;text-decoration-line:none;text-decoration-style:solid;text-decoration-color:#000000;letter-spacing:normal;word-spacing:normal;text-transform:none;writing-mode:lr-tb;direction:ltr;text-orientation:mixed;dominant-baseline:auto;baseline-shift:baseline;text-anchor:start;white-space:normal;shape-padding:0;clip-rule:nonzero;display:inline;overflow:visible;visibility:visible;opacity:0.618;isolation:auto;mix-blend-mode:normal;color-interpolation:sRGB;color-interpolation-filters:linearRGB;solid-color:#000000;solid-opacity:1;vector-effect:none;fill:#ff80b2;fill-opacity:1;fill-rule:nonzero;stroke:none;stroke-width:0.515937;stroke-linecap:round;stroke-linejoin:bevel;stroke-miterlimit:4;stroke-dasharray:none;stroke-dashoffset:0;stroke-opacity:1;paint-order:normal;color-rendering:auto;image-rendering:auto;shape-rendering:auto;text-rendering:auto;enable-background:accumulate"
         d="m 127.00014,144.50251 c -1.66496,0 -3.13786,0.9947 -4.33798,2.4952 -1.20012,1.5005 -2.20934,3.55972 -3.05587,6.06216 -1.6931,5.00487 -2.71198,11.79607 -2.71198,19.29727 0,7.5012 1.01888,14.29213 2.71198,19.297 0.84653,2.50243 1.85575,4.56167 3.05587,6.06216 1.20012,1.5005 2.67302,2.49546 4.33798,2.49546 1.66495,0 3.13759,-0.99496 4.33771,-2.49546 1.20011,-1.50049 2.20933,-3.55973 3.05587,-6.06216 1.6931,-5.00487 2.71198,-11.7958 2.71198,-19.297 0,-7.5012 -1.01888,-14.2924 -2.71198,-19.29727 -0.84654,-2.50244 -1.85576,-4.56166 -3.05587,-6.06216 -1.20012,-1.5005 -2.67276,-2.4952 -4.33771,-2.4952 z m 0,2.0637 c 0.84071,0 1.75488,0.50646 2.72593,1.72057 0.97106,1.2141 1.91724,3.08304 2.71274,5.43454 1.59097,4.70303 2.6032,11.32327 2.6032,18.63582 0,7.31254 -1.01223,13.93278 -2.6032,18.6358 -0.7955,2.35151 -1.74168,4.22045 -2.71274,5.43455 -0.97105,1.21411 -1.88522,1.72031 -2.72593,1.72031 -0.84072,0 -1.75515,-0.5062 -2.7262,-1.72031 -0.97102,-1.2141 -1.91724,-3.08304 -2.71274,-5.43455 -1.59098,-4.70302 -2.6032,-11.32326 -2.6032,-18.6358 0,-7.31255 1.01222,-13.93279 2.6032,-18.63582 0.7955,-2.3515 1.74172,-4.22044 2.71274,-5.43454 0.97105,-1.21411 1.88548,-1.72057 2.7262,-1.72057 z"
         id="path5576-5"
         inkscape:connector-curvature="0"
         inkscape:export-xdpi="96"
         inkscape:export-ydpi="96" />
      <path
         d="m 130.43812,145.53447 a 3.3902206,3.390224 0 0 1 -3.39022,3.39022 3.3902206,3.390224 0 0 1 -3.39022,-3.39022 3.3902206,3.390224 0 0 1 3.39022,-3.39023 3.3902206,3.390224 0 0 1 3.39022,3.39023"
         style="fill:#deaa87;fill-opacity:1;stroke:none;stroke-width:0.515937;stroke-linecap:round;stroke-linejoin:bevel;stroke-miterlimit:4;stroke-dasharray:none;stroke-dashoffset:0;stroke-opacity:0.839216;paint-order:normal"
         id="path5578-9" />
      <path
         d="m 130.67176,199.1798 a 3.3902206,3.390224 0 0 1 -3.39022,3.39023 3.3902206,3.390224 0 0 1 -3.39022,-3.39023 3.3902206,3.390224 0 0 1 3.39022,-3.39022 3.3902206,3.390224 0 0 1 3.39022,3.39022"
         style="fill:#deaa87;fill-opacity:1;stroke:none;stroke-width:0.515937;stroke-linecap:round;stroke-linejoin:bevel;stroke-miterlimit:4;stroke-dasharray:none;stroke-dashoffset:0;stroke-opacity:0.839216;paint-order:normal"
         id="path5578-6-3" />
      <path
         style="color:#000000;font-style:normal;font-variant:normal;font-weight:normal;font-stretch:normal;font-size:medium;line-height:normal;font-family:sans-serif;font-variant-ligatures:normal;font-variant-position:normal;font-variant-caps:normal;font-variant-numeric:normal;font-variant-alternates:normal;font-feature-settings:normal;text-indent:0;text-align:start;text-decoration:none;text-decoration-line:none;text-decoration-style:solid;text-decoration-color:#000000;letter-spacing:normal;word-spacing:normal;text-transform:none;writing-mode:lr-tb;direction:ltr;text-orientation:mixed;dominant-baseline:auto;baseline-shift:baseline;text-anchor:start;white-space:normal;shape-padding:0;clip-rule:nonzero;display:inline;overflow:visible;visibility:visible;opacity:0.618;isolation:auto;mix-blend-mode:normal;color-interpolation:sRGB;color-interpolation-filters:linearRGB;solid-color:#000000;solid-opacity:1;vector-effect:none;fill:#80b3ff;fill-opacity:1;fill-rule:nonzero;stroke:none;stroke-width:0.515937;stroke-linecap:round;stroke-linejoin:bevel;stroke-miterlimit:4;stroke-dasharray:none;stroke-dashoffset:0;stroke-opacity:1;paint-order:normal;color-rendering:auto;image-rendering:auto;shape-rendering:auto;text-rendering:auto;enable-background:accumulate"
         d="m 149.66115,156.16008 c -0.96814,-1.35454 -2.63373,-1.97421 -4.55232,-2.07804 -1.91859,-0.10384 -4.18072,0.27252 -6.70884,1.03894 -5.05626,1.53284 -11.17389,4.65272 -17.2765,9.01457 -6.10265,4.36186 -11.0348,9.13984 -14.12202,13.42754 -1.54362,2.14385 -2.63204,4.16232 -3.15496,6.0112 -0.52288,1.84887 -0.47579,3.62537 0.49236,4.9799 0.96814,1.35453 2.63372,1.97421 4.55232,2.07804 1.91859,0.10384 4.18071,-0.27252 6.70884,-1.03894 5.05625,-1.53284 11.17351,-4.65278 17.27616,-9.01463 6.10261,-4.36186 11.03517,-9.13977 14.12236,-13.42747 1.54362,-2.14386 2.63208,-4.16233 3.15496,-6.01121 0.52288,-1.84887 0.47579,-3.62537 -0.49236,-4.9799 z m -1.67895,1.20002 c 0.48888,0.68396 0.60842,1.7222 0.18534,3.21818 -0.4231,1.49598 -1.39336,3.35255 -2.84387,5.3671 -2.90103,4.02911 -7.69835,8.70219 -13.6475,12.95435 -5.94916,4.25215 -11.92367,7.27825 -16.67496,8.71865 -2.37567,0.72019 -4.44636,1.03717 -5.99873,0.95315 -1.55242,-0.084 -2.49583,-0.53339 -2.98467,-1.21736 -0.48888,-0.68397 -0.60877,-1.72226 -0.1857,-3.21824 0.4231,-1.49598 1.39353,-3.35234 2.84404,-5.36689 2.90102,-4.0291 7.69821,-8.7024 13.64737,-12.95456 5.94915,-4.25215 11.92381,-7.27804 16.67509,-8.71844 2.37567,-0.7202 4.44619,-1.03738 5.9986,-0.95336 1.55238,0.084 2.49615,0.53345 2.98499,1.21742 z"
         id="ellipse5612-6"
         inkscape:connector-curvature="0"
         inkscape:export-xdpi="96"
         inkscape:export-ydpi="96" />
      <path
         inkscape:export-ydpi="96"
         inkscape:export-xdpi="96"
         inkscape:connector-curvature="0"
         id="path855"
         d="m 104.33886,156.16008 c 0.96815,-1.35454 2.63372,-1.97421 4.55233,-2.07804 1.91859,-0.10384 4.18071,0.27252 6.70883,1.03894 5.05626,1.53284 11.17389,4.65272 17.2765,9.01457 6.10265,4.36186 11.03481,9.13984 14.12203,13.42754 1.54361,2.14385 2.63204,4.16232 3.15496,6.0112 0.52288,1.84887 0.47579,3.62537 -0.49236,4.9799 -0.96814,1.35453 -2.63372,1.97421 -4.55232,2.07804 -1.91859,0.10384 -4.18071,-0.27252 -6.70884,-1.03894 -5.05625,-1.53284 -11.17351,-4.65278 -17.27616,-9.01463 -6.10261,-4.36186 -11.03517,-9.13977 -14.12236,-13.42747 -1.54363,-2.14386 -2.63209,-4.16233 -3.15496,-6.01121 -0.52288,-1.84887 -0.47579,-3.62537 0.49235,-4.9799 z m 1.67894,1.20002 c -0.48888,0.68396 -0.60841,1.7222 -0.18534,3.21818 0.4231,1.49598 1.39336,3.35255 2.84387,5.3671 2.90103,4.02911 7.69836,8.70219 13.64752,12.95435 5.94915,4.25215 11.92366,7.27825 16.67496,8.71865 2.37566,0.72019 4.44636,1.03717 5.99873,0.95315 1.5524,-0.084 2.49581,-0.53339 2.98466,-1.21736 0.48888,-0.68397 0.60878,-1.72226 0.1857,-3.21824 -0.4231,-1.49598 -1.39353,-3.35234 -2.84404,-5.36689 -2.90102,-4.0291 -7.69821,-8.7024 -13.64737,-12.95456 -5.94915,-4.25215 -11.92381,-7.27804 -16.67509,-8.71844 -2.37567,-0.7202 -4.44619,-1.03738 -5.9986,-0.95336 -1.55238,0.084 -2.49615,0.53345 -2.985,1.21742 z"
         style="color:#000000;font-style:normal;font-variant:normal;font-weight:normal;font-stretch:normal;font-size:medium;line-height:normal;font-family:sans-serif;font-variant-ligatures:normal;font-variant-position:normal;font-variant-caps:normal;font-variant-numeric:normal;font-variant-alternates:normal;font-feature-settings:normal;text-indent:0;text-align:start;text-decoration:none;text-decoration-line:none;text-decoration-style:solid;text-decoration-color:#000000;letter-spacing:normal;word-spacing:normal;text-transform:none;writing-mode:lr-tb;direction:ltr;text-orientation:mixed;dominant-baseline:auto;baseline-shift:baseline;text-anchor:start;white-space:normal;shape-padding:0;clip-rule:nonzero;display:inline;overflow:visible;visibility:visible;opacity:0.618;isolation:auto;mix-blend-mode:normal;color-interpolation:sRGB;color-interpolation-filters:linearRGB;solid-color:#000000;solid-opacity:1;vector-effect:none;fill:#cd87de;fill-opacity:1;fill-rule:nonzero;stroke:none;stroke-width:0.515937;stroke-linecap:round;stroke-linejoin:bevel;stroke-miterlimit:4;stroke-dasharray:none;stroke-dashoffset:0;stroke-opacity:1;paint-order:normal;color-rendering:auto;image-rendering:auto;shape-rendering:auto;text-rendering:auto;enable-background:accumulate" />
      <g
         id="g39369"
         transform="translate(0,0.19322573)">
        <path
           id="circle5616-0"
           style="fill:#deaa87;fill-opacity:1;stroke:none;stroke-width:0.515937;stroke-linecap:round;stroke-linejoin:bevel;stroke-miterlimit:4;stroke-dasharray:none;stroke-dashoffset:0;stroke-opacity:0.839216;paint-order:normal"
           d="m 106.79785,191.01166 a 3.3902233,3.3902218 54.444755 0 1 -4.7295,-0.78676 3.3902233,3.3902218 54.444755 0 1 0.78676,-4.7295 3.3902233,3.3902218 54.444755 0 1 4.7295,0.78676 3.3902233,3.3902218 54.444755 0 1 -0.78676,4.7295" />
        <path
           id="circle5627-2"
           style="fill:#deaa87;fill-opacity:1;stroke:none;stroke-width:0.515937;stroke-linecap:round;stroke-linejoin:bevel;stroke-miterlimit:4;stroke-dasharray:none;stroke-dashoffset:0;stroke-opacity:0.839216;paint-order:normal"
           d="m 151.21996,185.55062 a 3.3902218,3.3902235 37.130186 0 1 0.65648,4.74935 3.3902218,3.3902235 37.130186 0 1 -4.74935,0.65647 3.3902218,3.3902235 37.130186 0 1 -0.65647,-4.74934 3.3902218,3.3902235 37.130186 0 1 4.74934,-0.65648" />
        <path
           d="m 106.79785,158.83241 a 3.3902233,3.3902218 54.444755 0 1 -4.7295,-0.78676 3.3902233,3.3902218 54.444755 0 1 0.78676,-4.7295 3.3902233,3.3902218 54.444755 0 1 4.7295,0.78676 3.3902233,3.3902218 54.444755 0 1 -0.78676,4.7295"
           style="fill:#deaa87;fill-opacity:1;stroke:none;stroke-width:0.515937;stroke-linecap:round;stroke-linejoin:bevel;stroke-miterlimit:4;stroke-dasharray:none;stroke-dashoffset:0;stroke-opacity:0.839216;paint-order:normal"
           id="path39361" />
        <path
           d="m 151.21996,153.37137 a 3.3902218,3.3902235 37.130186 0 1 0.65648,4.74935 3.3902218,3.3902235 37.130186 0 1 -4.74935,0.65647 3.3902218,3.3902235 37.130186 0 1 -0.65647,-4.74934 3.3902218,3.3902235 37.130186 0 1 4.74934,-0.65648"
           style="fill:#deaa87;fill-opacity:1;stroke:none;stroke-width:0.515937;stroke-linecap:round;stroke-linejoin:bevel;stroke-miterlimit:4;stroke-dasharray:none;stroke-dashoffset:0;stroke-opacity:0.839216;paint-order:normal"
           id="path39363" />
      </g>
    </g>
  </g>
</svg>
