<?xml version="1.0" encoding="UTF-8" standalone="no"?>
<svg
   xmlns:dc="http://purl.org/dc/elements/1.1/"
   xmlns:cc="http://creativecommons.org/ns#"
   xmlns:rdf="http://www.w3.org/1999/02/22-rdf-syntax-ns#"
   xmlns:svg="http://www.w3.org/2000/svg"
   xmlns="http://www.w3.org/2000/svg"
   xmlns:sodipodi="http://sodipodi.sourceforge.net/DTD/sodipodi-0.dtd"
   xmlns:inkscape="http://www.inkscape.org/namespaces/inkscape"
   width="67.73333mm"
   height="67.733322mm"
   viewBox="0 0 67.733331 67.733323"
   version="1.1"
   id="svg27864"
   inkscape:version="1.0 (4035a4fb49, 2020-05-01)"
   sodipodi:docname="canale_scalable.svg">
  <defs
     id="defs27858">
    <clipPath
       id="clipPath1698-3"
       clipPathUnits="userSpaceOnUse">
      <rect
         ry="64.06395"
         rx="64.06395"
         y="19470.865"
         x="-29147.879"
         height="772.966"
         width="1200"
         id="rect1700-6"
         style="opacity:0.604;fill:#26a10d;fill-opacity:0.985;stroke:#d32f2f;stroke-width:0;stroke-linecap:round;stroke-linejoin:bevel;stroke-miterlimit:4;stroke-dasharray:none;stroke-dashoffset:0;stroke-opacity:0.94;paint-order:fill markers stroke" />
    </clipPath>
    <clipPath
       clipPathUnits="userSpaceOnUse"
       id="clipPath29374">
      <rect
         y="7264.1074"
         x="-18040.27"
         height="2048"
         width="2048"
         id="rect29376"
         style="opacity:1;fill:#014c77;fill-opacity:1;stroke:none;stroke-width:4.4;stroke-linecap:round;stroke-linejoin:bevel;stroke-miterlimit:4;stroke-dasharray:none;stroke-dashoffset:0;stroke-opacity:1;paint-order:fill markers stroke" />
    </clipPath>
    <clipPath
       clipPathUnits="userSpaceOnUse"
       id="clipPath1237">
      <g
         id="g1245">
        <rect
           style="opacity:1;fill:#e1f5fe;fill-opacity:1;stroke:none;stroke-width:4.4;stroke-linecap:round;stroke-linejoin:bevel;stroke-miterlimit:4;stroke-dasharray:none;stroke-dashoffset:0;stroke-opacity:1;paint-order:fill markers stroke"
           id="rect1239"
           width="1083.2383"
           height="98.791946"
           x="-17557.889"
           y="8911.8291"
           rx="28.853754"
           ry="28.853754" />
        <rect
           style="opacity:1;fill:#e1f5fe;fill-opacity:1;stroke:none;stroke-width:4.4;stroke-linecap:round;stroke-linejoin:bevel;stroke-miterlimit:4;stroke-dasharray:none;stroke-dashoffset:0;stroke-opacity:1;paint-order:fill markers stroke"
           id="rect1241"
           width="713.43213"
           height="66.819221"
           x="-17372.984"
           y="8984.541"
           rx="28.853802"
           ry="28.8538" />
        <path
           inkscape:connector-curvature="0"
           style="opacity:1;fill:#e1f5fe;fill-opacity:1;stroke:none;stroke-width:4.4;stroke-linecap:round;stroke-linejoin:bevel;stroke-miterlimit:4;stroke-dasharray:none;stroke-dashoffset:0;stroke-opacity:1;paint-order:fill markers stroke"
           d="m -17324.329,8432.3038 c -18.32,0 -33.343,14.4272 -35.635,33.2188 h -0.312 v 5.0019 30.5742 132.9981 c 0,163.6929 123.952,295.4765 277.918,295.4765 h 132.179 c 122.164,0 225.42,-82.9726 262.867,-199.0156 a 129.26388,129.26388 0 0 0 15.041,1.0391 129.26388,129.26388 0 0 0 129.264,-129.2637 129.26388,129.26388 0 0 0 -129.256,-129.2637 v -2.5449 -5.0019 h -0.314 c -2.292,-18.7916 -17.314,-33.2188 -35.633,-33.2188 z m 652.066,103.461 a 66.567536,66.567536 0 0 1 66.561,66.5683 66.567536,66.567536 0 0 1 -66.569,66.5664 66.567536,66.567536 0 0 1 -1.892,-0.094 c 1.242,-11.3827 1.9,-22.9607 1.9,-34.709 z"
           id="path1243" />
      </g>
    </clipPath>
  </defs>
  <sodipodi:namedview
     id="base"
     pagecolor="#ffffff"
     bordercolor="#666666"
     borderopacity="1.0"
     inkscape:pageopacity="0.0"
     inkscape:pageshadow="2"
     inkscape:zoom="0.28173784"
     inkscape:cx="1020.4515"
     inkscape:cy="728.31376"
     inkscape:document-units="mm"
     inkscape:current-layer="layer1"
     inkscape:document-rotation="0"
     showgrid="false"
     fit-margin-top="0"
     fit-margin-left="0"
     fit-margin-right="0"
     fit-margin-bottom="0"
     inkscape:window-width="1336"
     inkscape:window-height="1029"
     inkscape:window-x="576"
     inkscape:window-y="24"
     inkscape:window-maximized="0"
     inkscape:snap-global="false" />
  <metadata
     id="metadata27861">
    <rdf:RDF>
      <cc:Work
         rdf:about="">
        <dc:format>image/svg+xml</dc:format>
        <dc:type
           rdf:resource="http://purl.org/dc/dcmitype/StillImage" />
        <dc:title></dc:title>
        <cc:license
           rdf:resource="http://creativecommons.org/licenses/by-sa/4.0/" />
      </cc:Work>
      <cc:License
         rdf:about="http://creativecommons.org/licenses/by-sa/4.0/">
        <cc:permits
           rdf:resource="http://creativecommons.org/ns#Reproduction" />
        <cc:permits
           rdf:resource="http://creativecommons.org/ns#Distribution" />
        <cc:requires
           rdf:resource="http://creativecommons.org/ns#Notice" />
        <cc:requires
           rdf:resource="http://creativecommons.org/ns#Attribution" />
        <cc:permits
           rdf:resource="http://creativecommons.org/ns#DerivativeWorks" />
        <cc:requires
           rdf:resource="http://creativecommons.org/ns#ShareAlike" />
      </cc:License>
    </rdf:RDF>
  </metadata>
  <g
     inkscape:label="Livello 1"
     inkscape:groupmode="layer"
     id="layer1"
     transform="translate(3227.9725,3301.7135)">
    <g
       id="g29297"
       transform="matrix(0.03307291,0,0,0.03307291,-3385.1975,-3363.0503)">
      <path
         d="m 4753.8916,1854.5946 h 2048 v 2048 h -2048 z"
         style="fill:#4db6ac;fill-opacity:1;stroke:none;stroke-width:155.05;stroke-linecap:round;stroke-linejoin:round;stroke-miterlimit:4;stroke-dasharray:none;stroke-dashoffset:0;stroke-opacity:1;paint-order:stroke markers fill"
         id="rect15013" />
      <path
         inkscape:connector-curvature="0"
         style="fill:#000001;fill-opacity:0.145098;stroke:none;stroke-width:155.05;stroke-linecap:round;stroke-linejoin:round;stroke-miterlimit:4;stroke-dasharray:none;stroke-dashoffset:0;stroke-opacity:1;paint-order:stroke markers fill"
         d="m 5445.5501,2294.0356 c -64.0112,0 -115.5448,51.5338 -115.545,115.5449 -0.1279,0 -0.2304,0.1024 -0.2304,0.2305 v 943.8574 1.8887 c 0,33.5232 14.1385,63.6188 36.7969,84.6875 1.3024,1.3347 2.6382,2.636 4.0039,3.9062 1.3145,1.3476 2.6618,2.6636 4.041,3.9453 1.3,1.3319 2.6307,2.6331 3.9941,3.9004 1.302,1.3342 2.6364,2.635 4.002,3.9043 1.2974,1.3297 2.6275,2.6275 3.9883,3.8926 1.2989,1.3316 2.6295,2.6316 3.9921,3.8984 1.3008,1.3336 2.6354,2.634 4,3.9024 1.2964,1.3288 2.6244,2.6266 3.9844,3.8906 1.295,1.3275 2.6219,2.624 3.9805,3.8867 1.2974,1.3301 2.6269,2.6277 3.9883,3.8926 1.2891,1.3214 2.6104,2.6103 3.9629,3.8672 1.2877,1.3204 2.6079,2.6074 3.9589,3.8633 1.2999,1.3333 2.6316,2.6349 3.9961,3.9023 1.2818,1.3138 2.5948,2.5961 3.9395,3.8457 1.2899,1.3229 2.613,2.6134 3.9668,3.8711 1.2828,1.3154 2.5972,2.5988 3.9433,3.8496 1.2912,1.3244 2.6153,2.6162 3.9707,3.875 1.2801,1.3124 2.5922,2.5939 3.9356,3.8418 1.2813,1.3142 2.5945,2.5964 3.9394,3.8457 1.2838,1.3168 2.5996,2.602 3.9473,3.8535 1.2758,1.3083 2.5848,2.5844 3.9238,3.8282 1.2812,1.3143 2.5943,2.5985 3.9395,3.8476 1.2795,1.3123 2.5921,2.5928 3.9355,3.8398 1.2681,1.3005 2.5675,2.5705 3.8985,3.8067 1.277,1.3103 2.5867,2.5889 3.9277,3.834 1.2724,1.3053 2.578,2.5779 3.9141,3.8183 1.2709,1.304 2.5736,2.5773 3.9082,3.8164 1.2729,1.3061 2.5772,2.5815 3.914,3.8223 1.2654,1.2981 2.5639,2.5634 3.8926,3.7969 1.2672,1.3003 2.5657,2.5692 3.8965,3.8047 1.2649,1.2981 2.5621,2.5635 3.8906,3.7968 1.2612,1.2945 2.5544,2.5572 3.8789,3.7872 1.2634,1.2971 2.5597,2.5607 3.8868,3.7929 1.268,1.302 2.5699,2.5722 3.9023,3.8086 1.2604,1.2935 2.551,2.5565 3.875,3.7852 1.2561,1.2892 2.5438,2.5468 3.8633,3.7715 1.2568,1.2903 2.5468,2.5479 3.8672,3.7734 1.2591,1.293 2.5499,2.5535 3.873,3.7812 1.2556,1.2891 2.544,2.5455 3.8633,3.7696 1.2539,1.2873 2.5399,2.5432 3.8574,3.7656 1.252,1.2855 2.536,2.5391 3.8516,3.7598 1.2511,1.2847 2.5348,2.536 3.8496,3.7558 1.2497,1.2834 2.5304,2.5355 3.8437,3.7539 1.2493,1.283 2.5308,2.534 3.8438,3.752 1.2524,1.2862 2.5369,2.5409 3.8535,3.7617 1.242,1.2751 2.5151,2.5199 3.8203,3.7305 1.2414,1.2749 2.5156,2.5181 3.8203,3.7285 1.2435,1.2774 2.5191,2.5219 3.8262,3.7344 1.2446,1.2786 2.5215,2.5248 3.8301,3.7382 1.2362,1.2698 2.5052,2.5076 3.8047,3.7129 1.2426,1.277 2.5175,2.5208 3.8242,3.7325 1.2337,1.2675 2.4998,2.504 3.7969,3.707 1.2389,1.2733 2.5096,2.5145 3.8125,3.7226 1.2395,1.2738 2.5127,2.5143 3.8164,3.7227 1.2297,1.2633 2.4902,2.4965 3.7832,3.6953 1.2294,1.2635 2.4904,2.4945 3.7832,3.6934 1.2335,1.2681 2.4993,2.5021 3.7968,3.7051 1.2298,1.2639 2.4917,2.4961 3.7852,3.6953 1.2318,1.2662 2.4952,2.5002 3.791,3.7011 1.2257,1.2596 2.4843,2.4868 3.7735,3.6817 1.2255,1.2597 2.4842,2.4868 3.7734,3.6816 1.225,1.2592 2.4808,2.4874 3.7695,3.6817 1.2194,1.2534 2.4693,2.4751 3.752,3.664 1.2252,1.26 2.4841,2.4869 3.7734,3.6817 1.2161,1.2502 2.4648,2.4684 3.7442,3.6543 1.2222,1.2571 2.4773,2.4819 3.7636,3.6738 1.2149,1.2492 2.462,2.4657 3.7403,3.6504 1.2214,1.2563 2.4741,2.481 3.7597,3.6718 1.2082,1.2423 2.4496,2.4528 3.7207,3.6309 1.221,1.2562 2.4744,2.4795 3.7598,3.6699 1.212,1.2463 2.4568,2.4612 3.7324,3.6426 1.2109,1.2452 2.454,2.4584 3.7285,3.6387 1.2165,1.251 2.4634,2.4708 3.7442,3.6562 1.1946,1.228 2.4209,2.4253 3.6777,3.5899 1.2134,1.2489 2.4605,2.4651 3.7383,3.6484 1.2013,1.2358 2.4347,2.44 3.6992,3.6113 1.2081,1.2434 2.4485,2.4529 3.7207,3.6309 1.1998,1.2345 2.4302,2.4375 3.6934,3.6074 1.2038,1.239 2.4412,2.4453 3.709,3.6192 1.1974,1.2321 2.4267,2.432 3.6875,3.5996 1.2051,1.2406 2.4433,2.448 3.7128,3.623 1.1938,1.2282 2.4189,2.4262 3.6758,3.5899 1.193,1.2279 2.4195,2.4225 3.6758,3.5859 1.2025,1.2381 2.4381,2.4448 3.7051,3.6172 1.1879,1.2223 2.4073,2.4123 3.6582,3.5703 1.1919,1.2272 2.4163,2.4217 3.6719,3.584 1.1948,1.2302 2.4208,2.4288 3.6797,3.5937 1.1892,1.2242 2.4112,2.4169 3.664,3.5762 1.1851,1.22 2.402,2.409 3.6504,3.5645 1.1891,1.2245 2.4111,2.4168 3.6641,3.5761 1.1825,1.2177 2.3986,2.4017 3.6445,3.5547 1.184,1.2196 2.4007,2.4079 3.6484,3.5625 1.1806,1.216 2.3928,2.4014 3.6368,3.5528 1.1849,1.2208 2.4033,2.4089 3.6523,3.5644 1.1838,1.2193 2.4006,2.4066 3.6484,3.5606 1.179,1.214 2.3903,2.3957 3.6328,3.5449 1.1775,1.2124 2.3861,2.3935 3.627,3.541 1.1734,1.2084 2.3785,2.3855 3.6152,3.5293 1.1769,1.2124 2.3862,2.3937 3.627,3.541 1.1731,1.2084 2.3785,2.3858 3.6152,3.5293 1.1722,1.2075 2.3775,2.3828 3.6133,3.5254 1.1637,1.1988 2.3594,2.3652 3.5859,3.5 1.1754,1.2118 2.3834,2.3909 3.6231,3.5371 1.1652,1.2007 2.3632,2.3697 3.5918,3.5059 1.1688,1.2048 2.3707,2.3778 3.6035,3.5175 1.1627,1.1984 2.3579,2.3643 3.584,3.4981 1.1661,1.2023 2.3656,2.3726 3.5957,3.5097 1.1664,1.2024 2.3653,2.3728 3.5957,3.5098 1.1585,1.1939 2.3504,2.3571 3.5723,3.4863 1.1555,1.1912 2.3437,2.3498 3.5625,3.4766 1.1649,1.2015 2.3624,2.372 3.5918,3.5078 1.1612,1.197 2.3547,2.3625 3.58,3.4942 1.1499,1.1849 2.3321,2.3382 3.545,3.4589 1.1535,1.1896 2.3395,2.348 3.5566,3.4727 1.153,1.1891 2.3381,2.3465 3.5547,3.4707 1.154,1.1902 2.3407,2.3495 3.5586,3.4746 1.1501,1.1861 2.3331,2.3397 3.5469,3.461 1.1515,1.1876 2.3352,2.3442 3.5507,3.4667 1.1499,1.1859 2.3312,2.3403 3.545,3.461 1.14,1.1755 2.3126,2.3183 3.5156,3.4297 1.1471,1.1837 2.3261,2.3366 3.5371,3.455 1.1456,1.1821 2.3256,2.3304 3.5351,3.4473 1.1424,1.1785 2.3156,2.3259 3.5215,3.4395 1.1431,1.1793 2.3185,2.3271 3.5254,3.4414 1.1422,1.1783 2.3173,2.3243 3.5235,3.4375 0.9722,1.0028 1.9716,1.9779 2.9902,2.9336 h 961.6719 v -959.1641 c -0.4125,-0.4138 -0.8244,-0.8278 -1.2442,-1.2344 -1.1265,-1.2326 -2.3008,-2.4184 -3.5,-3.58 -1.1376,-1.2449 -2.3237,-2.4426 -3.5351,-3.6153 -1.1184,-1.2227 -2.2831,-2.4015 -3.4727,-3.5547 -1.136,-1.2436 -2.3218,-2.4393 -3.5312,-3.6113 -1.1373,-1.2443 -2.3227,-2.4426 -3.5332,-3.6152 -1.1381,-1.2446 -2.3239,-2.4442 -3.5352,-3.6172 -1.1299,-1.2352 -2.3079,-2.425 -3.5098,-3.5899 -1.1442,-1.2517 -2.3367,-2.457 -3.5546,-3.6367 -1.135,-1.2406 -2.3162,-2.4354 -3.5235,-3.6055 -1.1427,-1.2495 -2.3331,-2.4527 -3.5488,-3.6308 -1.142,-1.2484 -2.3321,-2.4517 -3.5469,-3.6289 -1.1495,-1.2566 -2.3472,-2.4658 -3.5703,-3.6504 -1.1458,-1.2516 -2.338,-2.4584 -3.5566,-3.6387 -1.1397,-1.2447 -2.3256,-2.4447 -3.5371,-3.6191 -1.1517,-1.2587 -2.3513,-2.4712 -3.5762,-3.6582 -1.1475,-1.2536 -2.3404,-2.4639 -3.5606,-3.6465 -1.1565,-1.2636 -2.3617,-2.4803 -3.5918,-3.6719 -1.1482,-1.2536 -2.342,-2.4636 -3.5625,-3.6465 -1.1513,-1.2574 -2.3502,-2.4697 -3.5742,-3.6562 -1.1503,-1.2565 -2.3477,-2.4665 -3.5703,-3.6524 -1.1594,-1.2669 -2.3669,-2.4883 -3.5996,-3.6836 -1.1612,-1.2682 -2.371,-2.4908 -3.6055,-3.6875 -1.1592,-1.2654 -2.3656,-2.4873 -3.5976,-3.6816 -1.1603,-1.2665 -2.3685,-2.4882 -3.6016,-3.6836 -1.1419,-1.2464 -2.3287,-2.4493 -3.541,-3.6269 -1.2394,-1.3555 -2.5216,-2.669 -3.8438,-3.9434 -1.1677,-1.267 -2.371,-2.4996 -3.6113,-3.6953 -1.167,-1.2661 -2.3701,-2.4983 -3.6094,-3.6934 -1.1724,-1.2722 -2.3817,-2.5102 -3.6269,-3.7109 -1.1704,-1.2698 -2.3783,-2.5044 -3.6211,-3.7031 -1.1734,-1.2732 -2.3829,-2.511 -3.6289,-3.7129 -1.1746,-1.2745 -2.3856,-2.5137 -3.6328,-3.7168 -1.1821,-1.2826 -2.4008,-2.5317 -3.6563,-3.7422 -1.1778,-1.2771 -2.3921,-2.5189 -3.6426,-3.7246 -1.1792,-1.2786 -2.3946,-2.5232 -3.6464,-3.7305 -1.1741,-1.2729 -2.3831,-2.5125 -3.6289,-3.7148 -1.1833,-1.2837 -2.4041,-2.532 -3.6602,-3.7442 -1.1828,-1.2828 -2.4028,-2.5306 -3.6582,-3.7422 -1.1868,-1.2872 -2.4102,-2.5402 -3.6699,-3.7558 -1.1842,-1.284 -2.4056,-2.5333 -3.6621,-3.7461 -1.1946,-1.2954 -2.4273,-2.5562 -3.6953,-3.7793 -1.1841,-1.2829 -2.4042,-2.5339 -3.6602,-3.7461 -1.1928,-1.293 -2.4218,-2.5521 -3.6875,-3.7734 -1.1872,-1.2865 -2.4107,-2.5383 -3.6699,-3.7539 -1.1948,-1.2953 -2.4257,-2.5556 -3.6934,-3.7793 -1.1965,-1.2968 -2.4298,-2.56 -3.6992,-3.7852 -1.1999,-1.3001 -2.436,-2.5666 -3.709,-3.7949 -1.1905,-1.2894 -2.4174,-2.5449 -3.6797,-3.7637 -1.2,-1.3004 -2.4361,-2.566 -3.709,-3.7949 -1.2016,-1.3019 -2.4403,-2.5685 -3.7148,-3.7988 -1.1953,-1.2948 -2.4262,-2.5552 -3.6934,-3.7793 -1.2078,-1.3092 -2.4532,-2.5832 -3.7343,-3.8204 -1.2041,-1.3042 -2.444,-2.5756 -3.7207,-3.8085 -1.2038,-1.3038 -2.4446,-2.5721 -3.7207,-3.8047 -1.2061,-1.3066 -2.448,-2.5773 -3.7266,-3.8125 -1.2079,-1.3085 -2.452,-2.5832 -3.7324,-3.8203 -1.2076,-1.3082 -2.4524,-2.5814 -3.7325,-3.8184 -1.2183,-1.3199 -2.4737,-2.6058 -3.7656,-3.8535 -1.208,-1.3078 -2.4523,-2.5814 -3.7324,-3.8184 -1.2112,-1.3116 -2.4606,-2.5875 -3.7441,-3.8281 -1.2149,-1.3159 -2.4664,-2.5973 -3.7539,-3.8418 -1.2225,-1.324 -2.4816,-2.6133 -3.7774,-3.8652 -1.2134,-1.3134 -2.4625,-2.5934 -3.748,-3.836 -1.2208,-1.3217 -2.4799,-2.6071 -3.7735,-3.8574 -1.2183,-1.3189 -2.473,-2.6037 -3.7636,-3.8516 -1.2239,-1.325 -2.4846,-2.6156 -3.7813,-3.8691 -1.2227,-1.3236 -2.482,-2.6129 -3.7773,-3.8652 -1.2244,-1.3254 -2.4863,-2.6171 -3.7832,-3.8711 -1.2276,-1.3288 -2.4926,-2.6217 -3.793,-3.8789 -1.2255,-1.3263 -2.4873,-2.6179 -3.7852,-3.8731 -1.2336,-1.3353 -2.5036,-2.635 -3.8105,-3.8984 -1.2234,-1.3235 -2.4822,-2.6123 -3.7774,-3.8653 -1.2354,-1.3374 -2.5078,-2.6406 -3.8164,-3.9062 -1.237,-1.3385 -2.5102,-2.6415 -3.8203,-3.9082 -1.2303,-1.3308 -2.4963,-2.6268 -3.7988,-3.8867 -1.2398,-1.3415 -2.5172,-2.6464 -3.8301,-3.916 -1.2374,-1.3384 -2.5102,-2.6432 -3.8203,-3.9102 -1.2362,-1.3369 -2.5098,-2.6384 -3.8184,-3.9043 -1.2401,-1.3414 -2.5153,-2.6498 -3.8281,-3.9199 -1.2431,-1.3446 -2.5239,-2.6528 -3.8398,-3.9258 -1.2407,-1.3417 -2.517,-2.6493 -3.8301,-3.9199 -1.25,-1.352 -2.5361,-2.6693 -3.8594,-3.9492 -1.2391,-1.3394 -2.5151,-2.6433 -3.8262,-3.9121 -1.2528,-1.3551 -2.5428,-2.676 -3.8691,-3.959 -1.2465,-1.3473 -2.5288,-2.6614 -3.8476,-3.9375 -1.2493,-1.3505 -2.5337,-2.6661 -3.8555,-3.9453 -1.2512,-1.3526 -2.5395,-2.67 -3.8633,-3.9512 -1.2568,-1.3586 -2.549,-2.682 -3.8789,-3.9688 -1.2494,-1.35 -2.534,-2.666 -3.8555,-3.9453 -1.2546,-1.3561 -2.5459,-2.678 -3.873,-3.9629 -1.2563,-1.3579 -2.55,-2.682 -3.8789,-3.9687 -1.2644,-1.3666 -2.5666,-2.6976 -3.9043,-3.9922 -1.253,-1.3536 -2.5404,-2.6741 -3.8653,-3.957 -1.2558,-1.3573 -2.549,-2.6803 -3.8769,-3.9668 -1.2639,-1.3665 -2.5656,-2.6973 -3.9024,-3.9922 -1.2607,-1.3628 -2.5595,-2.6888 -3.8925,-3.9805 -1.2732,-1.3764 -2.5829,-2.7173 -3.9297,-4.0215 -1.2596,-1.3607 -2.5553,-2.6863 -3.8867,-3.9765 -1.2801,-1.3836 -2.5971,-2.7322 -3.9512,-4.043 -1.2631,-1.3638 -2.5615,-2.6932 -3.8965,-3.9863 -1.2698,-1.3717 -2.5775,-2.7094 -3.9199,-4.0098 -1.2712,-1.3731 -2.5782,-2.7118 -3.9219,-4.0137 -1.2708,-1.3726 -2.5787,-2.7101 -3.9219,-4.0117 -1.2765,-1.3792 -2.59,-2.7217 -3.9394,-4.0293 -1.2757,-1.3778 -2.5873,-2.7227 -3.9356,-4.0293 -1.277,-1.3793 -2.5917,-2.7232 -3.9414,-4.0312 -1.2785,-1.3809 -2.5941,-2.7256 -3.9453,-4.0352 -1.2814,-1.384 -2.5989,-2.7343 -3.9531,-4.0469 -1.2879,-1.3907 -2.6134,-2.7458 -3.9746,-4.0644 -1.2786,-1.3798 -2.5927,-2.7262 -3.9434,-4.0352 -1.2842,-1.3864 -2.6041,-2.7376 -3.9609,-4.0527 -1.2855,-1.3877 -2.6088,-2.7401 -3.9668,-4.0567 -1.287,-1.3893 -2.6111,-2.7445 -3.9707,-4.0624 -1.2817,-1.3835 -2.5996,-2.7321 -3.9531,-4.045 -1.2954,-1.399 -2.6294,-2.7628 -3.9981,-4.0898 -1.2907,-1.3932 -2.6172,-2.7523 -3.9805,-4.0742 -1.2948,-1.3977 -2.6264,-2.7599 -3.9941,-4.086 -1.2916,-1.3938 -2.6204,-2.7534 -3.9844,-4.0761 -1.2989,-1.402 -2.6339,-2.7695 -4.0058,-4.0997 -1.2964,-1.3987 -2.6292,-2.7624 -3.9981,-4.0898 -1.2964,-1.3988 -2.6291,-2.7641 -3.998,-4.0918 -1.3003,-1.403 -2.6388,-2.77 -4.0117,-4.1016 -1.3006,-1.4031 -2.6367,-2.7735 -4.0098,-4.1054 -1.2998,-1.4023 -2.6377,-2.7684 -4.0098,-4.0996 -1.3099,-1.4135 -2.6558,-2.7914 -4.039,-4.1328 -1.2975,-1.3993 -2.6308,-2.7631 -4,-4.0918 -1.3094,-1.413 -2.6567,-2.7916 -4.0391,-4.1329 -1.3117,-1.415 -2.6601,-2.7954 -4.0449,-4.1386 -1.3091,-1.4117 -2.6535,-2.7905 -4.0352,-4.1309 -1.3061,-1.4084 -2.6491,-2.7815 -4.0273,-4.1191 -1.3156,-1.4191 -2.6681,-2.8031 -4.0567,-4.1504 -1.3094,-1.412 -2.6555,-2.7879 -4.0371,-4.1289 -1.316,-1.4195 -2.6697,-2.8043 -4.0586,-4.1524 -1.3209,-1.4246 -2.6781,-2.8132 -4.0722,-4.166 -1.3214,-1.4245 -2.6779,-2.8152 -4.0723,-4.168 -1.3099,-1.4116 -2.6556,-2.7895 -4.0371,-4.1308 -1.3225,-1.4261 -2.6828,-2.8173 -4.0781,-4.1719 -1.321,-1.4242 -2.6788,-2.8131 -4.0723,-4.166 -1.3203,-1.4235 -2.6777,-2.8116 -4.0703,-4.1641 -1.3294,-1.4335 -2.6951,-2.8317 -4.0977,-4.1933 -1.3265,-1.4298 -2.6906,-2.8252 -4.0898,-4.1836 -1.3269,-1.43 -2.6903,-2.8269 -4.0899,-4.1856 -1.3281,-1.4313 -2.693,-2.8274 -4.0937,-4.1875 -1.33,-1.4333 -2.697,-2.8314 -4.0996,-4.1933 -1.3271,-1.4301 -2.6906,-2.8264 -4.0899,-4.1856 -1.3335,-1.4374 -2.705,-2.839 -4.1113,-4.2051 -1.3366,-1.4405 -2.7096,-2.8458 -4.1191,-4.2148 -1.3391,-1.4429 -2.7149,-2.8495 -4.127,-4.2207 -1.3332,-1.4361 -2.702,-2.8379 -4.1074,-4.2031 -1.3412,-1.4451 -2.7187,-2.8551 -4.1328,-4.2285 -1.3368,-1.44 -2.7101,-2.8459 -4.1192,-4.2149 -1.3371,-1.4406 -2.7117,-2.8451 -4.121,-4.2148 -1.342,-1.4462 -2.7202,-2.8576 -4.1348,-4.2324 -1.3498,-1.4546 -2.7371,-2.8733 -4.1602,-4.2559 -1.349,-1.453 -2.7342,-2.8707 -4.1562,-4.252 -1.3452,-1.4484 -2.7268,-2.863 -4.1446,-4.2402 -21.0703,-22.689 -51.1853,-36.8496 -84.7343,-36.8496 0,-0.1281 -0.1021,-0.2324 -0.2305,-0.2324 h -671.5215 z"
         id="path15748" />
      <path
         style="fill:#00695c;fill-opacity:1;stroke:none;stroke-width:155.05;stroke-linecap:round;stroke-linejoin:round;stroke-miterlimit:4;stroke-dasharray:none;stroke-dashoffset:0;stroke-opacity:1;paint-order:stroke markers fill"
         d="m 5441.46,2289.9462 c -64.1392,0 -115.7754,51.6363 -115.7754,115.7754 v 945.7461 c 0,64.1392 51.6362,115.7754 115.7754,115.7754 h 500.2031 l 288.4355,-288.4355 v -773.086 c 0,-64.1391 -51.6343,-115.7754 -115.7734,-115.7754 z m 788.0429,1073.3926 c -0.3938,3.9008 -0.9796,7.745 -1.748,11.5195 0.7686,-3.7751 1.3542,-7.618 1.748,-11.5195 z m -35.2246,72.0078 c -1.3389,1.2763 -2.7083,2.5192 -4.1074,3.7305 1.3992,-1.2113 2.7685,-2.4542 4.1074,-3.7305 z m -6.2285,5.5235 c -1.1187,0.9224 -2.2585,1.8186 -3.4121,2.6992 1.1532,-0.8803 2.2938,-1.7771 3.4121,-2.6992 z m -13.6035,9.6582 c -1.3066,0.7923 -2.6345,1.5516 -3.9746,2.2929 1.3397,-0.7411 2.6684,-1.5009 3.9746,-2.2929 z m -9.8418,5.332 c -1.6878,0.8109 -3.3983,1.5821 -5.1309,2.3125 1.7326,-0.7304 3.4431,-1.5016 5.1309,-2.3125 z m -7.7461,3.377 c -2.417,0.9497 -4.8768,1.8143 -7.3711,2.6035 2.4938,-0.789 4.9545,-1.654 7.3711,-2.6035 z"
         id="rect15079"
         inkscape:connector-curvature="0" />
      <path
         style="fill:#003e33;fill-opacity:1;stroke:none;stroke-width:155.05;stroke-linecap:round;stroke-linejoin:round;stroke-miterlimit:4;stroke-dasharray:none;stroke-dashoffset:0;stroke-opacity:1;paint-order:stroke markers fill"
         d="m 5941.6631,3467.2431 288.4355,-288.4355 h -172.6621 c -64.1391,0 -115.7734,51.6362 -115.7734,115.7754 z"
         id="rect15081"
         inkscape:connector-curvature="0" />
      <path
         d="m 5467.8975,2593.0757 h 60.7398 v 60.7398 h -60.7398 z"
         style="fill:#e0f2f1;fill-opacity:1;stroke:none;stroke-width:155.05;stroke-linecap:round;stroke-linejoin:round;stroke-miterlimit:4;stroke-dasharray:none;stroke-dashoffset:0;stroke-opacity:1;paint-order:stroke markers fill"
         id="rect15106" />
      <path
         d="m 5577.1665,2593.0757 h 510.7195 v 60.7398 h -510.7195 z"
         style="fill:#e0f2f1;fill-opacity:1;stroke:none;stroke-width:155.05;stroke-linecap:round;stroke-linejoin:round;stroke-miterlimit:4;stroke-dasharray:none;stroke-dashoffset:0;stroke-opacity:1;paint-order:stroke markers fill"
         id="rect15117" />
      <path
         d="m 5467.8975,2712.998 h 60.7398 v 60.7399 h -60.7398 z"
         style="fill:#e0f2f1;fill-opacity:1;stroke:none;stroke-width:155.05;stroke-linecap:round;stroke-linejoin:round;stroke-miterlimit:4;stroke-dasharray:none;stroke-dashoffset:0;stroke-opacity:1;paint-order:stroke markers fill"
         id="rect15119" />
      <path
         d="m 5577.1665,2712.998 h 510.7195 v 60.7399 h -510.7195 z"
         style="fill:#e0f2f1;fill-opacity:1;stroke:none;stroke-width:155.05;stroke-linecap:round;stroke-linejoin:round;stroke-miterlimit:4;stroke-dasharray:none;stroke-dashoffset:0;stroke-opacity:1;paint-order:stroke markers fill"
         id="rect15121" />
      <path
         d="m 5467.8975,2832.9209 h 60.7398 v 60.7399 h -60.7398 z"
         style="fill:#e0f2f1;fill-opacity:1;stroke:none;stroke-width:155.05;stroke-linecap:round;stroke-linejoin:round;stroke-miterlimit:4;stroke-dasharray:none;stroke-dashoffset:0;stroke-opacity:1;paint-order:stroke markers fill"
         id="rect15131" />
      <path
         d="m 5577.1665,2832.9209 h 510.7195 v 60.7399 h -510.7195 z"
         style="fill:#e0f2f1;fill-opacity:1;stroke:none;stroke-width:155.05;stroke-linecap:round;stroke-linejoin:round;stroke-miterlimit:4;stroke-dasharray:none;stroke-dashoffset:0;stroke-opacity:1;paint-order:stroke markers fill"
         id="rect15133" />
      <path
         d="m 5467.8975,2952.8433 h 60.7398 v 60.7398 h -60.7398 z"
         style="fill:#e0f2f1;fill-opacity:1;stroke:none;stroke-width:155.05;stroke-linecap:round;stroke-linejoin:round;stroke-miterlimit:4;stroke-dasharray:none;stroke-dashoffset:0;stroke-opacity:1;paint-order:stroke markers fill"
         id="rect15151" />
      <path
         d="m 5577.1665,2952.8433 h 425.5996 v 60.7398 h -425.5996 z"
         style="fill:#e0f2f1;fill-opacity:1;stroke:none;stroke-width:155.05;stroke-linecap:round;stroke-linejoin:round;stroke-miterlimit:4;stroke-dasharray:none;stroke-dashoffset:0;stroke-opacity:1;paint-order:stroke markers fill"
         id="rect15153" />
    </g>
  </g>
</svg>
