<?xml version="1.0" encoding="UTF-8" standalone="no"?>
<svg
   xmlns:dc="http://purl.org/dc/elements/1.1/"
   xmlns:cc="http://creativecommons.org/ns#"
   xmlns:rdf="http://www.w3.org/1999/02/22-rdf-syntax-ns#"
   xmlns:svg="http://www.w3.org/2000/svg"
   xmlns="http://www.w3.org/2000/svg"
   xmlns:sodipodi="http://sodipodi.sourceforge.net/DTD/sodipodi-0.dtd"
   xmlns:inkscape="http://www.inkscape.org/namespaces/inkscape"
   width="67.733322mm"
   height="67.733337mm"
   viewBox="0 0 67.733323 67.733338"
   version="1.1"
   id="svg27864"
   inkscape:version="1.0 (4035a4fb49, 2020-05-01)"
   sodipodi:docname="collaboratori_scalable.svg">
  <defs
     id="defs27858">
    <clipPath
       id="clipPath1698-3"
       clipPathUnits="userSpaceOnUse">
      <rect
         ry="64.06395"
         rx="64.06395"
         y="19470.865"
         x="-29147.879"
         height="772.966"
         width="1200"
         id="rect1700-6"
         style="opacity:0.604;fill:#26a10d;fill-opacity:0.985;stroke:#d32f2f;stroke-width:0;stroke-linecap:round;stroke-linejoin:bevel;stroke-miterlimit:4;stroke-dasharray:none;stroke-dashoffset:0;stroke-opacity:0.94;paint-order:fill markers stroke" />
    </clipPath>
    <clipPath
       clipPathUnits="userSpaceOnUse"
       id="clipPath29374">
      <rect
         y="7264.1074"
         x="-18040.27"
         height="2048"
         width="2048"
         id="rect29376"
         style="opacity:1;fill:#014c77;fill-opacity:1;stroke:none;stroke-width:4.4;stroke-linecap:round;stroke-linejoin:bevel;stroke-miterlimit:4;stroke-dasharray:none;stroke-dashoffset:0;stroke-opacity:1;paint-order:fill markers stroke" />
    </clipPath>
    <clipPath
       clipPathUnits="userSpaceOnUse"
       id="clipPath1237">
      <g
         id="g1245">
        <rect
           style="opacity:1;fill:#e1f5fe;fill-opacity:1;stroke:none;stroke-width:4.4;stroke-linecap:round;stroke-linejoin:bevel;stroke-miterlimit:4;stroke-dasharray:none;stroke-dashoffset:0;stroke-opacity:1;paint-order:fill markers stroke"
           id="rect1239"
           width="1083.2383"
           height="98.791946"
           x="-17557.889"
           y="8911.8291"
           rx="28.853754"
           ry="28.853754" />
        <rect
           style="opacity:1;fill:#e1f5fe;fill-opacity:1;stroke:none;stroke-width:4.4;stroke-linecap:round;stroke-linejoin:bevel;stroke-miterlimit:4;stroke-dasharray:none;stroke-dashoffset:0;stroke-opacity:1;paint-order:fill markers stroke"
           id="rect1241"
           width="713.43213"
           height="66.819221"
           x="-17372.984"
           y="8984.541"
           rx="28.853802"
           ry="28.8538" />
        <path
           inkscape:connector-curvature="0"
           style="opacity:1;fill:#e1f5fe;fill-opacity:1;stroke:none;stroke-width:4.4;stroke-linecap:round;stroke-linejoin:bevel;stroke-miterlimit:4;stroke-dasharray:none;stroke-dashoffset:0;stroke-opacity:1;paint-order:fill markers stroke"
           d="m -17324.329,8432.3038 c -18.32,0 -33.343,14.4272 -35.635,33.2188 h -0.312 v 5.0019 30.5742 132.9981 c 0,163.6929 123.952,295.4765 277.918,295.4765 h 132.179 c 122.164,0 225.42,-82.9726 262.867,-199.0156 a 129.26388,129.26388 0 0 0 15.041,1.0391 129.26388,129.26388 0 0 0 129.264,-129.2637 129.26388,129.26388 0 0 0 -129.256,-129.2637 v -2.5449 -5.0019 h -0.314 c -2.292,-18.7916 -17.314,-33.2188 -35.633,-33.2188 z m 652.066,103.461 a 66.567536,66.567536 0 0 1 66.561,66.5683 66.567536,66.567536 0 0 1 -66.569,66.5664 66.567536,66.567536 0 0 1 -1.892,-0.094 c 1.242,-11.3827 1.9,-22.9607 1.9,-34.709 z"
           id="path1243" />
      </g>
    </clipPath>
  </defs>
  <sodipodi:namedview
     id="base"
     pagecolor="#ffffff"
     bordercolor="#666666"
     borderopacity="1.0"
     inkscape:pageopacity="0.0"
     inkscape:pageshadow="2"
     inkscape:zoom="0.79687496"
     inkscape:cx="-52.556892"
     inkscape:cy="357.07432"
     inkscape:document-units="mm"
     inkscape:current-layer="layer1"
     inkscape:document-rotation="0"
     showgrid="false"
     fit-margin-top="0"
     fit-margin-left="0"
     fit-margin-right="0"
     fit-margin-bottom="0"
     inkscape:window-width="1336"
     inkscape:window-height="1029"
     inkscape:window-x="576"
     inkscape:window-y="24"
     inkscape:window-maximized="0"
     inkscape:snap-global="false" />
  <metadata
     id="metadata27861">
    <rdf:RDF>
      <cc:Work
         rdf:about="">
        <dc:format>image/svg+xml</dc:format>
        <dc:type
           rdf:resource="http://purl.org/dc/dcmitype/StillImage" />
        <dc:title></dc:title>
        <cc:license
           rdf:resource="http://creativecommons.org/licenses/by-sa/4.0/" />
      </cc:Work>
      <cc:License
         rdf:about="http://creativecommons.org/licenses/by-sa/4.0/">
        <cc:permits
           rdf:resource="http://creativecommons.org/ns#Reproduction" />
        <cc:permits
           rdf:resource="http://creativecommons.org/ns#Distribution" />
        <cc:requires
           rdf:resource="http://creativecommons.org/ns#Notice" />
        <cc:requires
           rdf:resource="http://creativecommons.org/ns#Attribution" />
        <cc:permits
           rdf:resource="http://creativecommons.org/ns#DerivativeWorks" />
        <cc:requires
           rdf:resource="http://creativecommons.org/ns#ShareAlike" />
      </cc:License>
    </rdf:RDF>
  </metadata>
  <g
     inkscape:label="Livello 1"
     inkscape:groupmode="layer"
     id="layer1"
     transform="translate(2990.2417,3088.5527)">
    <g
       id="g27069"
       inkscape:export-filename="/home/fjall/Icone/PNG/Altro/Bot/collaboratori.png"
       inkscape:export-xdpi="96"
       inkscape:export-ydpi="96"
       transform="matrix(0.03307292,0,0,0.03307292,-3282.9336,-3285.3562)">
      <rect
         style="fill:#ff5722;fill-opacity:1;stroke:none;stroke-width:0.949997;stroke-linecap:round;stroke-linejoin:bevel;stroke-miterlimit:4;stroke-dasharray:none;stroke-dashoffset:0;stroke-opacity:1;paint-order:stroke markers fill"
         id="rect18601"
         width="2047.9857"
         height="2048"
         x="8849.8955"
         y="5950.5947"
         rx="0"
         ry="0" />
      <path
         style="fill:#2f2a26;fill-opacity:1;stroke:#2f2a26;stroke-width:155.049;stroke-linecap:round;stroke-linejoin:round;stroke-miterlimit:4;stroke-dasharray:none;stroke-dashoffset:0;stroke-opacity:1;paint-order:stroke markers fill"
         d="m 9506.4682,6414.1587 c -129.9141,0 -234.5004,104.6114 -234.5004,234.5565 v 397.476 c 0,109.904 74.8215,201.682 176.5008,227.374 v 261.474 l 302.7069,-254.29 h 490.1295 c 129.913,0 234.5,-104.614 234.5,-234.558 v -397.476 c 0,-129.9451 -104.587,-234.5565 -234.5,-234.5565 z"
         id="rect18603"
         inkscape:connector-curvature="0" />
      <path
         inkscape:connector-curvature="0"
         style="color:#000000;font-style:normal;font-variant:normal;font-weight:normal;font-stretch:normal;font-size:medium;line-height:normal;font-family:sans-serif;font-variant-ligatures:normal;font-variant-position:normal;font-variant-caps:normal;font-variant-numeric:normal;font-variant-alternates:normal;font-feature-settings:normal;text-indent:0;text-align:start;text-decoration:none;text-decoration-line:none;text-decoration-style:solid;text-decoration-color:#000000;letter-spacing:normal;word-spacing:normal;text-transform:none;writing-mode:lr-tb;direction:ltr;text-orientation:mixed;dominant-baseline:auto;baseline-shift:baseline;text-anchor:start;white-space:normal;shape-padding:0;clip-rule:nonzero;display:inline;overflow:visible;visibility:visible;isolation:auto;mix-blend-mode:normal;color-interpolation:sRGB;color-interpolation-filters:linearRGB;solid-color:#000000;solid-opacity:1;vector-effect:none;fill:#000001;fill-opacity:0.145098;fill-rule:nonzero;stroke:none;stroke-width:155.049;stroke-linecap:round;stroke-linejoin:round;stroke-miterlimit:4;stroke-dasharray:none;stroke-dashoffset:0;stroke-opacity:1;paint-order:stroke markers fill;color-rendering:auto;image-rendering:auto;shape-rendering:auto;text-rendering:auto;enable-background:accumulate"
         d="m 9506.4692,6336.6327 v 0 c -171.5298,0 -312.0249,140.5398 -312.0249,312.0815 v 397.475 c 0,53.917 13.761,104.807 38.0018,149.233 3.461,6.343 7.1339,12.555 11.0139,18.625 0,0 0,0 0.01,0 0.968,1.516 1.949,3.022 2.943,4.52 0,0 0,0 0.01,0 1.991,3 4.032,5.964 6.1229,8.89 1.044,1.461 2.1,2.913 3.168,4.356 0,0 0,0 0.01,0 1.069,1.442 2.148,2.875 3.24,4.298 0.177,0.231 0.358,0.456 0.536,0.686 0.92,1.193 1.845,2.383 2.783,3.563 0,0 0,0 0.01,0 1.116,1.404 2.245,2.798 3.385,4.182 0.4799,0.583 0.9699,1.157 1.4549,1.736 0.667,0.799 1.329,1.601 2.003,2.393 0,0 0,0 0.01,0 2.329,2.73 4.704,5.42 7.123,8.068 0,0 0,0 0.01,0 0,0 0.01,0 0.01,0.01 0,0 0,0.01 0.01,0.02 0,0 0,0 0,0 0.01,0.01 0.03,0.03 0.04,0.04 0.24,0.264 0.487,0.521 0.728,0.784 0.951,1.033 1.902,2.065 2.867,3.085 0,0 0,0 0.01,0 0,0 0.01,0 0.01,0.01 0,0 0,0 0,0 0,0 0,0 0,0 0.01,0.01 0.03,0.03 0.04,0.04 0.117,0.123 0.237,0.244 0.354,0.367 0.4019,0.424 0.8099,0.842 1.2139,1.264 0.615,0.639 1.227,1.281 1.846,1.916 0.09,0.09 0.171,0.18 0.258,0.269 0.01,0.01 0.02,0.02 0.03,0.03 0.01,0 0.01,0.01 0.02,0.02 0.01,0 0.02,0.02 0.02,0.02 0.01,0 0.02,0.02 0.02,0.02 0.01,0.01 0.02,0.02 0.03,0.03 0.04,0.04 0.08,0.08 0.115,0.115 0.05,0.05 0.104,0.103 0.155,0.155 0.06,0.06 0.113,0.114 0.17,0.172 v 0 0 c 0.07,0.07 0.142,0.141 0.212,0.212 0.01,0.01 0.03,0.03 0.04,0.04 0.25,0.254 0.502,0.504 0.752,0.756 0.109,0.11 0.218,0.219 0.326,0.328 0.01,0 0.01,0.01 0.02,0.02 0.211,0.213 0.422,0.427 0.634,0.639 0.407,0.406 0.81,0.818 1.219,1.222 0.01,0 0.01,0.02 0.02,0.02 0,0 0,0 0.01,0 0,0 0.01,0 0.01,0 0,0 0.01,0.01 0.01,0.02 0.04,0.04 0.09,0.09 0.135,0.133 0,0 0,0 0,0 0.01,0.01 0.02,0.02 0.03,0.03 0.02,0.02 0.03,0.04 0.05,0.05 0.02,0.02 0.04,0.04 0.06,0.05 0.05,0.05 0.1,0.1 0.15,0.149 0,0 0.01,0 0.01,0 0.02,0.02 0.04,0.04 0.06,0.06 0.04,0.04 0.09,0.09 0.133,0.133 0.01,0 0.01,0.01 0.02,0.02 0.02,0.02 0.04,0.04 0.07,0.07 0.05,0.05 0.1,0.1 0.146,0.147 0.01,0 0.02,0.02 0.03,0.02 0.03,0.03 0.05,0.05 0.08,0.08 0.05,0.05 0.107,0.109 0.162,0.162 0.01,0.01 0.03,0.03 0.04,0.04 0.09,0.09 0.175,0.177 0.263,0.264 0.02,0.02 0.03,0.03 0.05,0.05 0.04,0.04 0.07,0.07 0.112,0.111 0.03,0.03 0.07,0.07 0.101,0.102 0.05,0.05 0.09,0.1 0.143,0.144 0.04,0.04 0.08,0.08 0.121,0.121 0.04,0.04 0.08,0.08 0.125,0.125 0.05,0.05 0.09,0.09 0.137,0.137 0.05,0.05 0.09,0.09 0.138,0.137 0.07,0.07 0.131,0.132 0.197,0.197 0.02,0.02 0.04,0.05 0.07,0.07 0.07,0.08 0.15,0.151 0.225,0.225 0.03,0.03 0.05,0.05 0.08,0.08 0.08,0.08 0.156,0.157 0.234,0.234 0.04,0.03 0.07,0.07 0.104,0.104 0.06,0.06 0.114,0.113 0.172,0.17 0.06,0.06 0.111,0.114 0.168,0.17 0.06,0.06 0.115,0.116 0.174,0.174 0.06,0.06 0.123,0.124 0.185,0.185 0.06,0.06 0.117,0.118 0.176,0.176 0.05,0.05 0.106,0.107 0.16,0.16 0.09,0.09 0.179,0.18 0.27,0.27 0.05,0.05 0.09,0.09 0.138,0.136 0.06,0.06 0.115,0.118 0.174,0.176 0.1,0.1 0.192,0.193 0.289,0.289 0.04,0.04 0.08,0.08 0.121,0.121 0.101,0.1 0.2,0.201 0.301,0.301 l 0.149,0.147 c 0.07,0.06 0.128,0.13 0.193,0.195 0.102,0.101 0.202,0.204 0.305,0.305 0.05,0.05 0.1,0.1 0.146,0.146 0.09,0.09 0.173,0.174 0.26,0.26 0.1,0.1 0.197,0.198 0.297,0.297 0.06,0.06 0.118,0.119 0.177,0.177 0.08,0.08 0.152,0.153 0.229,0.229 0.1909,0.19 0.3809,0.381 0.5719,0.57 0.07,0.07 0.13,0.132 0.196,0.197 0.08,0.08 0.153,0.155 0.23,0.231 0.111,0.109 0.219,0.221 0.33,0.33 0.07,0.07 0.134,0.135 0.201,0.201 0.123,0.121 0.243,0.245 0.365,0.365 0.08,0.08 0.163,0.162 0.245,0.243 0.09,0.09 0.174,0.175 0.261,0.261 0.09,0.09 0.18,0.184 0.272,0.274 0.09,0.08 0.171,0.172 0.258,0.258 0.114,0.112 0.225,0.227 0.339,0.339 0.114,0.113 0.226,0.228 0.34,0.34 0.07,0.07 0.139,0.14 0.209,0.209 0.257,0.255 0.51,0.514 0.768,0.768 0.07,0.07 0.136,0.135 0.205,0.203 0.105,0.104 0.209,0.21 0.314,0.314 0.108,0.107 0.213,0.215 0.321,0.321 0.109,0.108 0.216,0.218 0.326,0.326 0.109,0.108 0.217,0.218 0.326,0.326 0.113,0.111 0.223,0.225 0.336,0.336 0.1,0.1 0.194,0.198 0.293,0.295 0.149,0.148 0.297,0.297 0.447,0.445 0.1,0.09 0.189,0.19 0.283,0.283 0.121,0.12 0.239,0.241 0.36,0.36 0.116,0.115 0.231,0.232 0.347,0.347 0.105,0.104 0.207,0.21 0.311,0.313 0.121,0.12 0.24,0.243 0.361,0.363 0.159,0.157 0.314,0.316 0.473,0.473 0.103,0.102 0.205,0.205 0.309,0.309 0.127,0.124 0.251,0.253 0.378,0.378 0.129,0.128 0.257,0.256 0.385,0.383 0.143,0.142 0.285,0.285 0.428,0.426 0.1,0.09 0.188,0.191 0.283,0.285 0.166,0.165 0.33,0.332 0.496,0.496 0.1,0.1 0.192,0.194 0.289,0.289 0.17,0.168 0.336,0.339 0.506,0.506 0.12,0.118 0.238,0.238 0.358,0.356 0.134,0.133 0.267,0.269 0.402,0.402 0.121,0.12 0.239,0.242 0.359,0.361 0.174,0.172 0.344,0.347 0.518,0.518 0.107,0.105 0.211,0.213 0.318,0.318 0.1769,0.176 0.3519,0.353 0.5299,0.528 0.124,0.123 0.246,0.248 0.371,0.371 0.125,0.124 0.249,0.253 0.375,0.377 0.184,0.182 0.366,0.366 0.55,0.548 0.109,0.108 0.216,0.22 0.325,0.327 0.185,0.183 0.369,0.369 0.554,0.552 0.117,0.116 0.231,0.235 0.348,0.35 0.184,0.182 0.366,0.367 0.551,0.549 0.115,0.114 0.228,0.231 0.344,0.346 0.174,0.173 0.346,0.348 0.521,0.521 0.156,0.155 0.31,0.312 0.467,0.467 0.154,0.152 0.305,0.307 0.459,0.459 0.178,0.176 0.354,0.355 0.533,0.531 0.143,0.141 0.283,0.285 0.426,0.426 0.158,0.157 0.314,0.316 0.472,0.472 0.163,0.162 0.324,0.326 0.487,0.487 0.147,0.146 0.292,0.294 0.439,0.439 0.182,0.18 0.36,0.364 0.541,0.543 0.17,0.168 0.336,0.339 0.506,0.506 0.171,0.169 0.339,0.341 0.51,0.51 0.182,0.18 0.362,0.363 0.545,0.543 0.152,0.15 0.301,0.303 0.453,0.453 0.161,0.159 0.318,0.322 0.478,0.48 0.204,0.202 0.406,0.406 0.61,0.608 0.136,0.135 0.27,0.273 0.406,0.408 0.215,0.213 0.427,0.428 0.643,0.641 0.141,0.14 0.28,0.283 0.422,0.423 0.212,0.211 0.422,0.423 0.634,0.633 0.144,0.143 0.286,0.289 0.43,0.432 0.22,0.218 0.438,0.439 0.6579,0.656 0.163,0.162 0.323,0.325 0.487,0.487 0.172,0.17 0.341,0.345 0.513,0.515 0.217,0.215 0.431,0.432 0.649,0.647 0.168,0.166 0.333,0.335 0.502,0.502 0.207,0.205 0.413,0.413 0.621,0.619 0.147,0.146 0.291,0.295 0.439,0.441 0.234,0.232 0.465,0.468 0.699,0.699 0.177,0.175 0.351,0.353 0.528,0.528 0.173,0.172 0.343,0.348 0.517,0.519 0.214,0.212 0.425,0.427 0.639,0.639 0.214,0.212 0.426,0.427 0.641,0.639 0.182,0.18 0.362,0.362 0.545,0.543 0.195,0.194 0.387,0.392 0.583,0.585 0.184,0.183 0.365,0.368 0.549,0.549 0.238,0.236 0.473,0.476 0.711,0.711 0.187,0.185 0.372,0.372 0.559,0.557 0.205,0.203 0.406,0.41 0.611,0.613 0.223,0.222 0.444,0.445 0.668,0.666 0.168,0.166 0.332,0.336 0.5,0.502 0.228,0.227 0.453,0.456 0.682,0.682 0.199,0.198 0.396,0.398 0.595,0.595 0.225,0.224 0.447,0.45 0.672,0.672 0.219,0.217 0.434,0.438 0.653,0.655 0.224,0.222 0.446,0.447 0.6719,0.67 0.181,0.179 0.359,0.361 0.541,0.541 0.252,0.25 0.5,0.504 0.754,0.753 0.202,0.201 0.402,0.404 0.605,0.604 0.222,0.22 0.44,0.445 0.662,0.664 0.2,0.198 0.397,0.4 0.598,0.598 0.258,0.256 0.512,0.516 0.771,0.771 0.204,0.203 0.405,0.408 0.61,0.61 0.226,0.225 0.45,0.453 0.677,0.677 0.198,0.196 0.392,0.396 0.59,0.592 0.298,0.296 0.592,0.594 0.891,0.889 0.171,0.17 0.34,0.342 0.511,0.512 0.266,0.262 0.529,0.53 0.795,0.792 0.213,0.212 0.422,0.427 0.635,0.637 0.217,0.216 0.431,0.436 0.649,0.651 0.254,0.252 0.504,0.508 0.759,0.759 0.258,0.256 0.513,0.515 0.772,0.77 0.193,0.191 0.382,0.387 0.576,0.578 0.283,0.281 0.562,0.564 0.846,0.844 0.2,0.198 0.397,0.4 0.597,0.597 0.267,0.266 0.531,0.535 0.799,0.799 0.252,0.25 0.5,0.503 0.7519,0.752 0.21,0.208 0.417,0.42 0.627,0.627 0.265,0.264 0.527,0.531 0.793,0.793 0.264,0.263 0.526,0.528 0.791,0.789 0.197,0.195 0.389,0.395 0.586,0.59 0.287,0.285 0.57,0.574 0.858,0.857 0.287,0.286 0.572,0.575 0.861,0.86 0.209,0.208 0.417,0.418 0.627,0.625 0.254,0.252 0.503,0.508 0.758,0.76 0.26,0.258 0.518,0.519 0.779,0.777 0.232,0.231 0.46,0.465 0.693,0.695 0.297,0.295 0.59,0.592 0.887,0.885 0.228,0.227 0.453,0.458 0.682,0.684 0.271,0.27 0.539,0.543 0.812,0.812 0.263,0.261 0.522,0.525 0.785,0.785 0.263,0.262 0.523,0.527 0.787,0.787 0.265,0.264 0.526,0.531 0.791,0.793 0.27,0.268 0.537,0.538 0.807,0.805 0.285,0.284 0.567,0.571 0.854,0.854 0.25,0.249 0.498,0.501 0.7499,0.75 0.254,0.253 0.506,0.509 0.761,0.761 0.302,0.3 0.6,0.604 0.903,0.903 0.26,0.258 0.516,0.52 0.777,0.777 0.249,0.248 0.496,0.499 0.746,0.746 0.296,0.294 0.588,0.59 0.885,0.883 v 183.127 c 0.01,16.952 5.536,33.038 15.2359,46.135 0.537,0.725 1.086,1.441 1.649,2.148 0,0 0,0 0.01,0 0.562,0.706 1.137,1.405 1.724,2.092 0.01,0.01 0.02,0.02 0.03,0.03 0.58,0.677 1.17,1.346 1.774,2.004 0.01,0 0.02,0.01 0.02,0.02 0,0 0,0 0.01,0 0.01,0.02 0.03,0.03 0.04,0.05 0.601,0.654 1.214,1.3 1.838,1.934 0.04,0.04 0.09,0.09 0.13,0.13 0.04,0.04 0.09,0.08 0.129,0.125 0.01,0 0.02,0.02 0.02,0.02 0,0 0.01,0.01 0.01,0.01 0,0 0.01,0 0.01,0.01 0.04,0.04 0.08,0.08 0.119,0.121 0.02,0.02 0.04,0.04 0.07,0.06 0,0 0,0 0.01,0 0,0 0,0 0,0 0.06,0.07 0.132,0.129 0.197,0.195 0.01,0.01 0.03,0.03 0.04,0.04 0,0 0,0 0.01,0 0.06,0.06 0.126,0.126 0.189,0.189 0.01,0 0.02,0.02 0.03,0.03 0.01,0.01 0.02,0.02 0.03,0.03 0.01,0.01 0.02,0.02 0.03,0.03 0.02,0.02 0.05,0.05 0.07,0.07 0.05,0.05 0.102,0.102 0.152,0.153 0.01,0 0.02,0.01 0.02,0.02 0,0 0.01,0.01 0.01,0.02 0.06,0.06 0.119,0.118 0.178,0.178 0.03,0.03 0.05,0.05 0.08,0.08 0.01,0 0.01,0.01 0.02,0.01 0.03,0.03 0.07,0.07 0.1,0.1 0.02,0.02 0.04,0.05 0.07,0.07 0.07,0.07 0.135,0.137 0.203,0.205 0.03,0.03 0.07,0.07 0.102,0.1 0.04,0.04 0.07,0.07 0.1049,0.106 0.05,0.05 0.108,0.109 0.162,0.164 0.05,0.05 0.09,0.09 0.141,0.14 0.06,0.06 0.123,0.121 0.184,0.182 0.03,0.03 0.06,0.05 0.08,0.08 0.01,0 0.01,0.01 0.02,0.02 0.07,0.07 0.135,0.135 0.203,0.203 0.01,0.01 0.02,0.02 0.03,0.03 0,0 0,0 0,0 0.09,0.1 0.19,0.189 0.285,0.285 0.03,0.03 0.06,0.06 0.09,0.09 0,0 0.01,0 0.01,0.01 0.07,0.07 0.139,0.139 0.209,0.209 0.05,0.05 0.1,0.1 0.144,0.145 0.06,0.06 0.118,0.117 0.176,0.176 0.06,0.06 0.122,0.119 0.182,0.179 0.06,0.06 0.125,0.125 0.187,0.188 0.05,0.05 0.109,0.108 0.162,0.162 0.08,0.08 0.163,0.164 0.244,0.246 0.06,0.06 0.114,0.111 0.17,0.168 0.05,0.05 0.1,0.1 0.147,0.149 0.105,0.107 0.212,0.213 0.318,0.32 0.03,0.03 0.06,0.06 0.1,0.1 0.108,0.109 0.218,0.217 0.326,0.326 0.05,0.05 0.109,0.104 0.163,0.158 0,0 0,0 0,0 0.06,0.06 0.124,0.125 0.186,0.187 0.07,0.08 0.151,0.152 0.227,0.229 0.08,0.09 0.171,0.17 0.256,0.256 0.08,0.08 0.156,0.155 0.234,0.234 0.09,0.09 0.176,0.175 0.263,0.264 0.08,0.08 0.163,0.159 0.243,0.24 0.08,0.08 0.167,0.165 0.25,0.248 0.05,0.05 0.09,0.09 0.138,0.141 0.13,0.132 0.262,0.262 0.393,0.394 0.06,0.06 0.118,0.115 0.176,0.174 0.09,0.09 0.175,0.174 0.261,0.262 0.116,0.118 0.234,0.234 0.35,0.351 0.06,0.06 0.127,0.125 0.189,0.188 0.108,0.109 0.218,0.217 0.327,0.326 0.08,0.08 0.168,0.166 0.252,0.25 0.09,0.09 0.173,0.173 0.259,0.26 0.111,0.112 0.223,0.224 0.334,0.336 0.07,0.07 0.146,0.142 0.217,0.214 0.124,0.127 0.249,0.252 0.373,0.377 0.1,0.1 0.2,0.198 0.299,0.297 0.09,0.09 0.187,0.184 0.279,0.278 0.07,0.08 0.153,0.152 0.229,0.228 0.155,0.159 0.312,0.315 0.469,0.473 0.07,0.07 0.141,0.137 0.211,0.207 0.121,0.123 0.245,0.244 0.367,0.367 0.1,0.102 0.204,0.201 0.304,0.303 0.108,0.11 0.218,0.218 0.327,0.328 0.108,0.111 0.22,0.218 0.33,0.328 0.112,0.114 0.227,0.226 0.339,0.34 0.102,0.103 0.205,0.205 0.307,0.308 0.134,0.137 0.271,0.271 0.406,0.407 0.09,0.09 0.175,0.174 0.262,0.261 0.152,0.156 0.307,0.309 0.461,0.463 0.1,0.101 0.201,0.199 0.301,0.299 0.102,0.104 0.206,0.205 0.308,0.309 0.131,0.133 0.262,0.264 0.393,0.396 0.1389,0.142 0.2819,0.281 0.4219,0.422 0.114,0.116 0.231,0.229 0.346,0.344 0.125,0.128 0.254,0.253 0.381,0.381 0.133,0.136 0.269,0.269 0.404,0.404 0.125,0.127 0.255,0.25 0.381,0.377 0.104,0.106 0.209,0.211 0.314,0.316 0.166,0.17 0.336,0.338 0.504,0.506 0.09,0.1 0.192,0.19 0.287,0.285 0.169,0.173 0.341,0.343 0.512,0.514 0.115,0.117 0.235,0.231 0.351,0.348 0.134,0.136 0.27,0.269 0.405,0.404 0.128,0.131 0.26,0.26 0.39,0.391 0.147,0.15 0.297,0.298 0.446,0.447 0.138,0.141 0.28,0.279 0.419,0.42 0.148,0.15 0.299,0.296 0.448,0.445 0.136,0.139 0.275,0.275 0.412,0.412 0.125,0.128 0.253,0.252 0.379,0.379 0.179,0.183 0.362,0.363 0.543,0.545 0.111,0.113 0.226,0.223 0.338,0.336 0.182,0.186 0.367,0.368 0.55,0.553 0.124,0.125 0.251,0.248 0.375,0.373 0.157,0.16 0.317,0.317 0.475,0.476 0.144,0.148 0.292,0.292 0.438,0.438 0.161,0.165 0.326,0.328 0.49,0.492 0.152,0.155 0.309,0.307 0.463,0.461 0.155,0.159 0.315,0.315 0.472,0.473 0.174,0.177 0.352,0.351 0.528,0.527 0.141,0.144 0.287,0.285 0.429,0.428 0.149,0.151 0.3,0.299 0.45,0.449 0.18,0.185 0.366,0.366 0.548,0.549 0.144,0.146 0.291,0.29 0.436,0.435 0.163,0.167 0.329,0.331 0.494,0.496 0.184,0.188 0.371,0.373 0.557,0.559 0.1549,0.159 0.3149,0.313 0.4719,0.471 0.176,0.179 0.356,0.353 0.534,0.531 0.161,0.164 0.325,0.325 0.488,0.488 0.162,0.166 0.328,0.328 0.492,0.492 0.185,0.19 0.375,0.375 0.563,0.563 0.147,0.15 0.298,0.298 0.447,0.447 0.212,0.217 0.429,0.43 0.644,0.645 0.139,0.141 0.282,0.279 0.422,0.42 0.213,0.217 0.429,0.433 0.645,0.648 0.14,0.143 0.284,0.28 0.426,0.422 0.218,0.223 0.439,0.443 0.66,0.664 0.161,0.165 0.329,0.325 0.492,0.488 0.173,0.177 0.35,0.35 0.525,0.526 0.199,0.203 0.401,0.402 0.602,0.603 0.179,0.183 0.363,0.362 0.545,0.543 0.195,0.199 0.394,0.395 0.592,0.592 0.152,0.155 0.307,0.307 0.46,0.461 0.232,0.237 0.469,0.47 0.704,0.705 0.175,0.179 0.356,0.354 0.533,0.531 0.179,0.184 0.363,0.363 0.545,0.545 0.195,0.2 0.394,0.396 0.592,0.594 0.219,0.224 0.443,0.444 0.666,0.666 0.171,0.174 0.346,0.345 0.519,0.517 0.202,0.206 0.408,0.408 0.611,0.612 0.192,0.196 0.387,0.388 0.58,0.582 0.226,0.231 0.457,0.457 0.686,0.685 0.1849,0.189 0.3749,0.374 0.5629,0.561 0.201,0.205 0.406,0.406 0.609,0.609 0.212,0.217 0.43,0.428 0.645,0.643 0.18,0.184 0.364,0.364 0.546,0.547 0.232,0.237 0.468,0.47 0.704,0.705 0.192,0.196 0.389,0.389 0.583,0.584 0.204,0.208 0.412,0.411 0.618,0.617 0.232,0.237 0.468,0.471 0.703,0.705 0.208,0.213 0.423,0.42 0.634,0.631 0.201,0.204 0.404,0.405 0.606,0.607 0.23,0.235 0.464,0.465 0.697,0.698 0.21,0.214 0.425,0.423 0.637,0.634 0.215,0.22 0.435,0.435 0.652,0.653 0.201,0.205 0.407,0.406 0.61,0.609 0.255,0.261 0.514,0.518 0.773,0.775 0.206,0.21 0.417,0.416 0.625,0.624 0.22,0.224 0.444,0.444 0.666,0.666 0.2,0.204 0.404,0.403 0.606,0.605 0.277,0.285 0.559,0.565 0.841,0.846 0.2,0.203 0.404,0.4 0.606,0.601 0.23,0.236 0.466,0.467 0.699,0.699 0.228,0.234 0.462,0.463 0.694,0.694 0.2219,0.227 0.4499,0.451 0.6749,0.676 0.239,0.244 0.483,0.483 0.725,0.724 0.243,0.249 0.49,0.493 0.736,0.739 0.207,0.21 0.42,0.417 0.629,0.626 0.275,0.282 0.555,0.559 0.834,0.836 0.199,0.203 0.403,0.401 0.604,0.602 0.265,0.272 0.536,0.54 0.806,0.809 0.228,0.232 0.461,0.461 0.692,0.691 0.235,0.24 0.475,0.475 0.712,0.713 0.245,0.25 0.493,0.495 0.741,0.742 0.275,0.282 0.558,0.558 0.838,0.836 0.198,0.202 0.401,0.4 0.601,0.6 0.27,0.277 0.544,0.55 0.819,0.824 0.265,0.271 0.537,0.537 0.806,0.804 0.24,0.246 0.487,0.485 0.731,0.727 0.242,0.248 0.49,0.49 0.736,0.734 0.251,0.257 0.507,0.509 0.762,0.762 0.237,0.243 0.478,0.481 0.718,0.721 0.29,0.297 0.585,0.588 0.879,0.881 0.23,0.234 0.4649,0.463 0.6979,0.695 0.26,0.267 0.526,0.528 0.791,0.791 0.267,0.274 0.54,0.544 0.812,0.814 0.261,0.267 0.527,0.528 0.791,0.792 0.261,0.266 0.528,0.529 0.793,0.792 0.272,0.279 0.55,0.552 0.826,0.827 0.263,0.268 0.532,0.531 0.799,0.797 0.255,0.26 0.515,0.514 0.774,0.771 0.257,0.264 0.521,0.523 0.783,0.783 0.286,0.293 0.578,0.581 0.869,0.869 0.262,0.269 0.53,0.532 0.797,0.797 0.251,0.257 0.507,0.51 0.761,0.764 0.311,0.319 0.629,0.631 0.946,0.945 0.252,0.258 0.511,0.509 0.767,0.764 0.278,0.284 0.56,0.564 0.842,0.844 0.269,0.275 0.544,0.545 0.817,0.816 0.273,0.28 0.552,0.556 0.83,0.832 0.29,0.298 0.587,0.591 0.882,0.885 0.2869,0.293 0.5799,0.58 0.8719,0.869 0.289,0.296 0.584,0.585 0.878,0.877 0.251,0.256 0.508,0.507 0.762,0.76 0.309,0.317 0.623,0.627 0.938,0.939 0.276,0.283 0.559,0.561 0.84,0.84 0.277,0.285 0.561,0.563 0.843,0.844 0.292,0.299 0.589,0.592 0.885,0.886 0.298,0.307 0.603,0.607 0.906,0.909 0.291,0.298 0.589,0.589 0.885,0.882 0.29,0.297 0.585,0.589 0.879,0.881 0.311,0.319 0.63,0.632 0.947,0.946 0.272,0.278 0.55,0.55 0.826,0.824 0.289,0.295 0.582,0.586 0.875,0.877 0.329,0.337 0.666,0.666 1,0.998 0.264,0.269 0.532,0.533 0.799,0.799 0.34,0.348 0.686,0.691 1.031,1.033 0.283,0.288 0.5709,0.571 0.8579,0.855 0.286,0.293 0.578,0.581 0.869,0.869 0.318,0.327 0.643,0.648 0.967,0.969 0.307,0.315 0.621,0.624 0.933,0.934 0.307,0.314 0.62,0.622 0.932,0.931 0.319,0.328 0.645,0.649 0.971,0.971 0.3,0.307 0.607,0.608 0.912,0.91 0.319,0.327 0.644,0.648 0.969,0.969 0.286,0.294 0.579,0.582 0.871,0.871 0.347,0.357 0.7,0.707 1.055,1.057 0.296,0.303 0.6,0.599 0.902,0.898 0.303,0.311 0.613,0.616 0.922,0.922 0.35,0.36 0.707,0.713 1.064,1.067 0.301,0.308 0.609,0.61 0.916,0.914 0.319,0.326 0.644,0.647 0.969,0.968 0.323,0.332 0.6529,0.655 0.9819,0.981 0.319,0.327 0.643,0.649 0.967,0.971 0.315,0.323 0.638,0.64 0.959,0.959 0.341,0.349 0.688,0.693 1.035,1.037 0.344,0.352 0.695,0.697 1.045,1.043 0.296,0.303 0.599,0.6 0.901,0.898 0.362,0.372 0.731,0.738 1.101,1.104 0.312,0.319 0.63,0.631 0.947,0.945 0.327,0.335 0.661,0.664 0.995,0.994 0.36,0.37 0.729,0.734 1.097,1.098 0.308,0.315 0.623,0.623 0.936,0.933 0.346,0.356 0.701,0.705 1.054,1.055 0.338,0.346 0.682,0.687 1.026,1.027 0.318,0.326 0.643,0.646 0.967,0.967 0.375,0.386 0.757,0.764 1.1399,1.143 0.319,0.327 0.646,0.647 0.971,0.968 0.338,0.348 0.684,0.688 1.029,1.03 0.372,0.382 0.751,0.756 1.131,1.131 0.311,0.318 0.629,0.631 0.945,0.945 0.365,0.375 0.737,0.745 1.11,1.113 0.364,0.375 0.739,0.74 1.111,1.108 0.333,0.341 0.672,0.676 1.012,1.011 0.347,0.357 0.702,0.705 1.056,1.055 0.365,0.374 0.736,0.742 1.108,1.109 0.346,0.355 0.7,0.703 1.053,1.051 0.339,0.349 0.685,0.691 1.031,1.033 0.38,0.391 0.768,0.775 1.156,1.159 0.35,0.358 0.708,0.71 1.065,1.062 0.35,0.36 0.7059,0.713 1.0639,1.066 0.391,0.403 0.791,0.796 1.191,1.19 0.344,0.352 0.695,0.697 1.045,1.043 0.345,0.354 0.697,0.703 1.049,1.051 0.382,0.392 0.77,0.777 1.16,1.162 0.367,0.377 0.742,0.747 1.118,1.117 0.354,0.364 0.716,0.721 1.078,1.078 0.385,0.396 0.778,0.784 1.172,1.172 0.371,0.381 0.749,0.753 1.128,1.127 0.371,0.38 0.751,0.754 1.129,1.127 0.35,0.359 0.706,0.712 1.063,1.064 0.408,0.421 0.826,0.833 1.244,1.244 0.339,0.348 0.684,0.689 1.029,1.03 0.4099,0.422 0.8299,0.835 1.2499,1.248 0.355,0.363 0.716,0.721 1.078,1.078 0.376,0.386 0.759,0.766 1.143,1.144 0.393,0.405 0.795,0.801 1.197,1.198 0.378,0.388 0.764,0.769 1.151,1.15 0.387,0.398 0.782,0.788 1.177,1.178 0.381,0.391 0.768,0.775 1.157,1.158 0.398,0.41 0.806,0.812 1.214,1.213 0.382,0.392 0.772,0.776 1.163,1.16 0.366,0.377 0.74,0.746 1.115,1.115 0.42,0.433 0.85,0.858 1.281,1.282 0.367,0.377 0.742,0.747 1.117,1.117 0.391,0.402 0.7899,0.795 1.1899,1.189 0.417,0.43 0.842,0.852 1.269,1.272 0.388,0.398 0.785,0.789 1.182,1.179 0.389,0.4 0.786,0.791 1.183,1.182 0.401,0.412 0.809,0.816 1.219,1.219 0.39,0.4 0.787,0.793 1.186,1.185 0.394,0.407 0.797,0.806 1.201,1.203 0.428,0.441 0.864,0.874 1.303,1.305 0.399,0.41 0.806,0.812 1.214,1.213 0.382,0.392 0.772,0.778 1.163,1.162 0.437,0.451 0.883,0.892 1.332,1.332 0.386,0.396 0.779,0.786 1.173,1.174 0.404,0.415 0.8159,0.822 1.2289,1.229 0.418,0.43 0.845,0.853 1.273,1.275 0.441,0.454 0.892,0.898 1.344,1.342 0.378,0.387 0.764,0.767 1.151,1.146 0.399,0.411 0.804,0.815 1.212,1.217 0.439,0.453 0.888,0.897 1.338,1.34 0.423,0.434 0.855,0.86 1.287,1.285 0.405,0.416 0.819,0.823 1.233,1.23 0.409,0.421 0.825,0.835 1.244,1.247 0.45,0.463 0.909,0.918 1.371,1.371 0.408,0.419 0.825,0.83 1.242,1.24 0.407,0.418 0.822,0.829 1.2389,1.238 0.468,0.483 0.944,0.957 1.425,1.428 0.392,0.401 0.792,0.794 1.192,1.187 0.434,0.448 0.878,0.887 1.324,1.325 0.419,0.43 0.845,0.854 1.273,1.275 0.424,0.436 0.857,0.864 1.292,1.291 0.448,0.463 0.906,0.917 1.367,1.369 0.45,0.463 0.909,0.919 1.371,1.371 0.398,0.409 0.803,0.811 1.211,1.211 0.464,0.478 0.937,0.948 1.414,1.414 0.412,0.424 0.833,0.841 1.256,1.256 0.464,0.479 0.9389,0.947 1.4159,1.414 0.418,0.43 0.844,0.853 1.273,1.274 0.432,0.445 0.874,0.881 1.317,1.316 0.46,0.475 0.929,0.941 1.402,1.404 0.431,0.444 0.872,0.879 1.314,1.313 0.463,0.476 0.933,0.945 1.409,1.41 0.441,0.454 0.89,0.898 1.343,1.342 0.443,0.455 0.895,0.902 1.35,1.347 0.424,0.437 0.856,0.866 1.291,1.293 0.496,0.512 1.001,1.015 1.512,1.514 0.418,0.43 0.846,0.851 1.275,1.272 0.4719,0.487 0.9539,0.966 1.4389,1.441 0.438,0.45 0.884,0.892 1.332,1.332 0.462,0.476 0.934,0.942 1.409,1.406 0.455,0.469 0.919,0.929 1.386,1.387 0.451,0.464 0.911,0.92 1.373,1.373 0.47,0.484 0.949,0.961 1.432,1.434 0.463,0.476 0.935,0.943 1.41,1.408 0.458,0.471 0.925,0.934 1.395,1.394 0.445,0.459 0.898,0.91 1.355,1.358 0.501,0.517 1.012,1.024 1.528,1.527 0.425,0.437 0.8589,0.866 1.2949,1.293 0.502,0.519 1.014,1.028 1.531,1.533 0.454,0.467 0.917,0.925 1.382,1.381 0.454,0.467 0.916,0.927 1.381,1.383 0.49,0.505 0.989,1.002 1.493,1.494 0.465,0.48 0.941,0.95 1.419,1.418 0.481,0.495 0.971,0.982 1.465,1.465 0.478,0.492 0.964,0.975 1.455,1.455 0.481,0.495 0.973,0.982 1.467,1.465 0.464,0.477 0.936,0.946 1.412,1.412 0.468,0.482 0.9449,0.957 1.4259,1.428 0.504,0.52 1.018,1.03 1.537,1.537 0.463,0.476 0.935,0.943 1.41,1.408 0.51,0.526 1.028,1.043 1.553,1.555 0.463,0.476 0.935,0.943 1.41,1.408 0.497,0.513 1.004,1.016 1.516,1.515 0.475,0.49 0.96,0.972 1.449,1.45 0.498,0.513 1.005,1.017 1.518,1.517 0.498,0.514 1.006,1.019 1.519,1.52 0.483,0.497 0.975,0.984 1.471,1.469 0.4829,0.498 0.9759,0.987 1.4729,1.472 0.484,0.5 0.978,0.991 1.476,1.479 0.526,0.543 1.063,1.077 1.606,1.605 0.472,0.487 0.955,0.965 1.441,1.44 0.518,0.534 1.045,1.06 1.578,1.58 0.488,0.502 0.986,0.996 1.488,1.486 0.489,0.504 0.986,0.998 1.489,1.488 0.506,0.524 1.023,1.038 1.545,1.547 0.511,0.529 1.033,1.048 1.56,1.563 0.514,0.529 1.0369,1.051 1.5669,1.566 0.505,0.521 1.02,1.032 1.541,1.539 0.491,0.506 0.992,1.003 1.498,1.496 0.501,0.518 1.012,1.027 1.529,1.532 0.536,0.553 1.082,1.096 1.635,1.634 0.481,0.496 0.972,0.982 1.466,1.465 0.543,0.561 1.095,1.112 1.655,1.656 0.481,0.496 0.972,0.982 1.467,1.465 0.535,0.553 1.08,1.097 1.632,1.635 0.529,0.545 1.069,1.081 1.6139,1.611 0.505,0.521 1.019,1.033 1.539,1.539 0.519,0.536 1.049,1.061 1.584,1.582 0.493,0.51 0.996,1.01 1.504,1.506 0.552,0.572 1.114,1.134 1.685,1.69 0.53,0.546 1.069,1.082 1.615,1.613 0.514,0.53 1.039,1.049 1.569,1.564 0.508,0.524 1.024,1.041 1.547,1.551 0.55,0.569 1.111,1.127 1.679,1.68 0.527,0.543 1.063,1.076 1.6059,1.603 0.508,0.525 1.027,1.041 1.551,1.551 0.543,0.562 1.097,1.114 1.658,1.66 0.53,0.548 1.07,1.085 1.617,1.618 0.539,0.556 1.088,1.105 1.644,1.646 0.537,0.554 1.085,1.098 1.639,1.637 0.531,0.548 1.072,1.086 1.619,1.619 0.548,0.566 1.106,1.122 1.672,1.672 0.535,0.552 1.081,1.094 1.633,1.631 0.521,0.538 1.053,1.066 1.5899,1.589 0.575,0.596 1.161,1.181 1.756,1.758 0.519,0.535 1.049,1.06 1.584,1.58 0.534,0.552 1.078,1.095 1.629,1.631 0.574,0.594 1.16,1.178 1.753,1.754 0.54,0.556 1.089,1.102 1.645,1.643 0.545,0.562 1.1,1.115 1.662,1.662 0.543,0.561 1.096,1.113 1.656,1.658 0.553,0.572 1.119,1.132 1.69,1.688 0.5319,0.55 1.0759,1.09 1.6249,1.625 0.598,0.62 1.208,1.229 1.828,1.83 0.522,0.537 1.054,1.065 1.592,1.588 0.554,0.573 1.117,1.136 1.689,1.693 0.577,0.597 1.165,1.183 1.762,1.762 0.557,0.574 1.124,1.139 1.699,1.697 0.539,0.557 1.088,1.105 1.645,1.646 0.573,0.594 1.158,1.176 1.752,1.752 0.568,0.588 1.146,1.166 1.7339,1.737 0.564,0.582 1.14,1.155 1.723,1.72 0.565,0.585 1.142,1.16 1.726,1.727 0.57,0.589 1.151,1.167 1.74,1.738 0.559,0.577 1.128,1.145 1.706,1.705 0.56,0.58 1.133,1.15 1.712,1.713 0.602,0.622 1.214,1.235 1.836,1.838 0.538,0.555 1.086,1.1 1.641,1.639 0.603,0.624 1.219,1.239 1.844,1.843 0.5539,0.572 1.1169,1.135 1.6889,1.69 0.571,0.59 1.152,1.169 1.742,1.742 0.592,0.613 1.194,1.217 1.807,1.811 0.579,0.598 1.169,1.185 1.768,1.765 0.574,0.594 1.16,1.176 1.753,1.752 0.582,0.601 1.173,1.193 1.774,1.776 0.604,0.625 1.22,1.24 1.846,1.845 0.561,0.58 1.134,1.15 1.714,1.713 0.5769,0.597 1.1659,1.183 1.7619,1.762 0.613,0.635 1.238,1.258 1.873,1.873 0.568,0.587 1.147,1.163 1.735,1.732 0.579,0.6 1.171,1.19 1.771,1.772 0.618,0.64 1.247,1.269 1.887,1.889 0.58,0.599 1.171,1.188 1.771,1.769 0.59,0.61 1.191,1.21 1.801,1.801 0.6,0.621 1.212,1.232 1.834,1.834 0.5959,0.616 1.2029,1.223 1.8199,1.82 0.574,0.594 1.159,1.176 1.752,1.752 0.445,0.462 0.903,0.911 1.36,1.361 h 1095.4489 v -1133.845 c -0.356,-0.355 -0.709,-0.713 -1.066,-1.066 -0.554,-0.559 -1.111,-1.116 -1.67,-1.67 -0.656,-0.663 -1.316,-1.322 -1.978,-1.979 -0.65,-0.655 -1.303,-1.307 -1.959,-1.957 -0.594,-0.598 -1.191,-1.193 -1.789,-1.787 -0.575,-0.58 -1.151,-1.159 -1.731,-1.734 -0.664,-0.671 -1.331,-1.339 -2.001,-2.004 -0.658,-0.663 -1.318,-1.322 -1.981,-1.979 -0.571,-0.575 -1.145,-1.146 -1.721,-1.716 -0.604,-0.609 -1.209,-1.217 -1.818,-1.821 -0.6,-0.605 -1.202,-1.208 -1.807,-1.808 -0.68,-0.686 -1.362,-1.369 -2.048,-2.049 -0.529,-0.533 -1.06,-1.063 -1.592,-1.592 -0.68,-0.687 -1.363,-1.37 -2.049,-2.051 -0.603,-0.607 -1.209,-1.21 -1.817,-1.812 -0.529,-0.534 -1.06,-1.066 -1.593,-1.596 -0.67,-0.676 -1.341,-1.35 -2.016,-2.019 -0.592,-0.598 -1.188,-1.191 -1.785,-1.784 -0.591,-0.596 -1.185,-1.189 -1.781,-1.781 -0.626,-0.631 -1.254,-1.261 -1.885,-1.887 -0.618,-0.622 -1.239,-1.24 -1.861,-1.857 -0.543,-0.546 -1.087,-1.09 -1.633,-1.633 -0.609,-0.614 -1.219,-1.227 -1.832,-1.836 -0.65,-0.655 -1.304,-1.307 -1.959,-1.957 -0.526,-0.53 -1.054,-1.058 -1.584,-1.584 -0.623,-0.628 -1.249,-1.254 -1.877,-1.877 -0.617,-0.621 -1.236,-1.239 -1.858,-1.855 -0.56,-0.565 -1.124,-1.127 -1.689,-1.688 -0.596,-0.6 -1.193,-1.199 -1.793,-1.795 -0.583,-0.588 -1.17,-1.172 -1.758,-1.756 -0.586,-0.591 -1.174,-1.18 -1.766,-1.767 -0.571,-0.576 -1.145,-1.149 -1.72,-1.721 -0.584,-0.589 -1.169,-1.175 -1.758,-1.76 -0.625,-0.63 -1.253,-1.256 -1.883,-1.88 -0.524,-0.529 -1.05,-1.056 -1.578,-1.581 -0.634,-0.639 -1.271,-1.276 -1.91,-1.91 -0.526,-0.53 -1.054,-1.057 -1.584,-1.584 -0.613,-0.618 -1.229,-1.234 -1.848,-1.847 -0.577,-0.582 -1.158,-1.161 -1.74,-1.739 -0.551,-0.555 -1.105,-1.108 -1.66,-1.66 -0.593,-0.598 -1.189,-1.193 -1.787,-1.787 -0.56,-0.564 -1.123,-1.125 -1.688,-1.685 -0.57,-0.575 -1.142,-1.147 -1.716,-1.717 -0.542,-0.546 -1.084,-1.091 -1.629,-1.633 -0.582,-0.586 -1.165,-1.17 -1.75,-1.752 -0.619,-0.623 -1.24,-1.243 -1.864,-1.861 -0.5,-0.504 -1.003,-1.006 -1.507,-1.506 -0.589,-0.594 -1.179,-1.187 -1.772,-1.776 -0.603,-0.607 -1.21,-1.211 -1.818,-1.814 -0.467,-0.47 -0.935,-0.938 -1.405,-1.404 -0.614,-0.62 -1.228,-1.239 -1.847,-1.854 -0.568,-0.572 -1.137,-1.141 -1.709,-1.709 -0.546,-0.549 -1.094,-1.095 -1.643,-1.64 -0.555,-0.56 -1.112,-1.117 -1.672,-1.672 -0.571,-0.576 -1.145,-1.148 -1.721,-1.719 -0.52,-0.525 -1.043,-1.047 -1.568,-1.568 -0.551,-0.556 -1.104,-1.111 -1.66,-1.663 -0.604,-0.608 -1.211,-1.214 -1.82,-1.818 -0.479,-0.481 -0.958,-0.961 -1.44,-1.439 -0.578,-0.584 -1.159,-1.165 -1.742,-1.744 -0.57,-0.575 -1.144,-1.147 -1.719,-1.717 -0.517,-0.521 -1.036,-1.038 -1.556,-1.555 -0.557,-0.561 -1.115,-1.119 -1.676,-1.676 -0.528,-0.531 -1.058,-1.06 -1.59,-1.588 -0.527,-0.531 -1.055,-1.06 -1.586,-1.588 -0.55,-0.554 -1.103,-1.107 -1.658,-1.658 -0.513,-0.516 -1.025,-1.032 -1.541,-1.545 -0.553,-0.557 -1.108,-1.111 -1.664,-1.664 -0.585,-0.59 -1.174,-1.176 -1.764,-1.761 -0.467,-0.47 -0.934,-0.94 -1.404,-1.407 -0.562,-0.566 -1.127,-1.131 -1.694,-1.693 -0.555,-0.56 -1.113,-1.116 -1.673,-1.672 -0.52,-0.523 -1.042,-1.043 -1.565,-1.562 -0.466,-0.469 -0.933,-0.937 -1.402,-1.403 -0.572,-0.577 -1.144,-1.154 -1.721,-1.726 -0.525,-0.53 -1.053,-1.057 -1.582,-1.582 -0.541,-0.546 -1.085,-1.088 -1.631,-1.629 -0.518,-0.522 -1.038,-1.041 -1.56,-1.559 -0.481,-0.484 -0.963,-0.968 -1.447,-1.449 -0.577,-0.581 -1.156,-1.158 -1.737,-1.734 -0.462,-0.466 -0.925,-0.93 -1.391,-1.393 -0.571,-0.576 -1.146,-1.149 -1.722,-1.721 -0.448,-0.451 -0.897,-0.901 -1.348,-1.349 -0.581,-0.586 -1.164,-1.169 -1.75,-1.75 -0.501,-0.505 -1.005,-1.007 -1.509,-1.508 -0.5,-0.504 -1.002,-1.006 -1.505,-1.506 -0.509,-0.512 -1.02,-1.021 -1.532,-1.529 -0.484,-0.488 -0.968,-0.975 -1.455,-1.459 -0.518,-0.522 -1.037,-1.043 -1.558,-1.561 -0.522,-0.526 -1.047,-1.05 -1.573,-1.572 -0.534,-0.538 -1.069,-1.074 -1.607,-1.608 -0.447,-0.45 -0.896,-0.898 -1.346,-1.345 -0.569,-0.574 -1.141,-1.144 -1.715,-1.713 -0.422,-0.425 -0.846,-0.849 -1.271,-1.272 -0.555,-0.559 -1.111,-1.116 -1.67,-1.671 -0.495,-0.498 -0.99,-0.994 -1.488,-1.489 -0.487,-0.49 -0.977,-0.978 -1.467,-1.465 -0.482,-0.485 -0.966,-0.969 -1.451,-1.451 -0.506,-0.509 -1.012,-1.017 -1.522,-1.523 -0.493,-0.497 -0.988,-0.991 -1.484,-1.485 -0.49,-0.493 -0.982,-0.984 -1.475,-1.474 -0.519,-0.523 -1.041,-1.043 -1.564,-1.563 -0.436,-0.438 -0.872,-0.876 -1.311,-1.312 -0.54,-0.545 -1.082,-1.087 -1.627,-1.627 -0.429,-0.432 -0.861,-0.862 -1.293,-1.291 -0.516,-0.52 -1.033,-1.039 -1.552,-1.555 -0.497,-0.5 -0.996,-0.999 -1.496,-1.496 -0.479,-0.481 -0.96,-0.959 -1.442,-1.437 -0.483,-0.486 -0.967,-0.971 -1.453,-1.454 -0.454,-0.456 -0.909,-0.911 -1.365,-1.365 -0.49,-0.493 -0.982,-0.984 -1.475,-1.474 -0.45,-0.453 -0.901,-0.906 -1.353,-1.356 -0.489,-0.493 -0.979,-0.985 -1.471,-1.474 -0.527,-0.531 -1.056,-1.058 -1.586,-1.584 -0.396,-0.399 -0.793,-0.796 -1.191,-1.192 -0.55,-0.553 -1.101,-1.105 -1.655,-1.654 -0.4,-0.402 -0.801,-0.803 -1.203,-1.203 -0.5,-0.504 -1.001,-1.006 -1.504,-1.506 -0.477,-0.481 -0.957,-0.958 -1.437,-1.436 -0.444,-0.446 -0.89,-0.892 -1.336,-1.336 -0.484,-0.487 -0.97,-0.973 -1.457,-1.457 -0.442,-0.444 -0.884,-0.886 -1.328,-1.328 -0.463,-0.465 -0.926,-0.93 -1.391,-1.392 -0.472,-0.476 -0.945,-0.95 -1.42,-1.422 -0.5,-0.503 -1.003,-1.003 -1.506,-1.502 -0.389,-0.392 -0.78,-0.781 -1.172,-1.17 -0.525,-0.529 -1.052,-1.057 -1.582,-1.582 -0.36,-0.362 -0.721,-0.724 -1.084,-1.084 -0.519,-0.523 -1.037,-1.047 -1.56,-1.567 -0.456,-0.458 -0.915,-0.913 -1.373,-1.369 -0.449,-0.451 -0.9,-0.9 -1.352,-1.349 -0.424,-0.427 -0.849,-0.852 -1.275,-1.276 -0.474,-0.477 -0.949,-0.952 -1.426,-1.425 -0.408,-0.411 -0.817,-0.819 -1.227,-1.227 -0.458,-0.4613 -0.916,-0.9225 -1.376,-1.3809 -0.5,-0.503 -1.001,-1.0043 -1.504,-1.5039 -0.373,-0.375 -0.748,-0.748 -1.123,-1.1211 -0.509,-0.5119 -1.02,-1.0209 -1.532,-1.5293 -0.361,-0.3632 -0.722,-0.7264 -1.086,-1.0879 -0.505,-0.509 -1.012,-1.0159 -1.521,-1.5215 -0.422,-0.4243 -0.847,-0.8456 -1.272,-1.2675 -0.373,-0.3755 -0.746,-0.7515 -1.121,-1.125 -0.487,-0.4915 -0.975,-0.9825 -1.466,-1.4707 -0.444,-0.4464 -0.89,-0.8903 -1.336,-1.334 -0.395,-0.3967 -0.789,-0.793 -1.186,-1.1875 -0.51,-0.5138 -1.023,-1.0249 -1.537,-1.5352 -0.348,-0.3491 -0.696,-0.6974 -1.045,-1.0449 -0.453,-0.4566 -0.909,-0.9114 -1.365,-1.3652 -0.445,-0.4477 -0.892,-0.893 -1.34,-1.3379 -0.383,-0.3849 -0.766,-0.7695 -1.15,-1.1524 -0.465,-0.468 -0.931,-0.9352 -1.399,-1.4004 -0.436,-0.4384 -0.874,-0.8747 -1.312,-1.3105 -0.406,-0.408 -0.815,-0.813 -1.223,-1.2188 -0.353,-0.3548 -0.706,-0.7093 -1.061,-1.0625 -0.46,-0.4636 -0.919,-0.9279 -1.382,-1.3886 -0.484,-0.4863 -0.969,-0.9701 -1.456,-1.4532 -0.359,-0.3608 -0.721,-0.719 -1.082,-1.0781 -0.39,-0.3924 -0.781,-0.7834 -1.173,-1.1738 -0.438,-0.4406 -0.876,-0.8804 -1.317,-1.3184 -0.442,-0.445 -0.887,-0.8877 -1.332,-1.33 -0.34,-0.3425 -0.681,-0.6847 -1.023,-1.0254 -0.477,-0.4802 -0.956,-0.9585 -1.436,-1.4356 -0.394,-0.3958 -0.789,-0.7898 -1.185,-1.1836 -0.354,-0.3554 -0.708,-0.7107 -1.063,-1.0644 -0.444,-0.4472 -0.889,-0.8934 -1.336,-1.3379 -0.417,-0.4198 -0.836,-0.8384 -1.256,-1.2559 -0.374,-0.3766 -0.75,-0.7522 -1.127,-1.1269 -0.414,-0.417 -0.829,-0.8335 -1.246,-1.2481 -0.44,-0.4426 -0.883,-0.8822 -1.326,-1.3222 -0.342,-0.3434 -0.684,-0.6857 -1.027,-1.0274 -0.387,-0.3889 -0.774,-0.7772 -1.162,-1.1641 -0.461,-0.4637 -0.923,-0.9258 -1.387,-1.3867 -0.315,-0.3161 -0.631,-0.6305 -0.947,-0.9453 -0.46,-0.4628 -0.92,-0.9248 -1.383,-1.3848 -0.365,-0.367 -0.733,-0.7323 -1.1,-1.0976 -0.398,-0.4008 -0.798,-0.8005 -1.199,-1.1992 -0.379,-0.3816 -0.761,-0.7611 -1.143,-1.1407 -0.384,-0.3864 -0.769,-0.7717 -1.156,-1.1562 -0.376,-0.3787 -0.754,-0.7561 -1.132,-1.1328 -0.395,-0.3963 -0.79,-0.7913 -1.186,-1.1856 -0.37,-0.3718 -0.74,-0.7433 -1.111,-1.1132 -0.426,-0.4284 -0.853,-0.8554 -1.282,-1.2813 -0.324,-0.3256 -0.649,-0.6504 -0.974,-0.9746 -0.434,-0.4362 -0.869,-0.871 -1.305,-1.3047 -0.323,-0.325 -0.648,-0.6491 -0.973,-0.9726 -0.405,-0.4079 -0.811,-0.815 -1.218,-1.2208 -0.4,-0.4013 -0.8,-0.8018 -1.201,-1.2011 -0.349,-0.3504 -0.701,-0.6981 -1.051,-1.0469 -0.371,-0.3727 -0.743,-0.7444 -1.116,-1.1152 -0.372,-0.3747 -0.746,-0.7483 -1.121,-1.1211 -0.356,-0.3581 -0.712,-0.7159 -1.07,-1.0723 -0.378,-0.38 -0.757,-0.7587 -1.137,-1.1367 -0.356,-0.3581 -0.712,-0.7159 -1.07,-1.0723 -0.408,-0.4106 -0.817,-0.8201 -1.228,-1.2285 -0.295,-0.2972 -0.593,-0.5926 -0.89,-0.8887 -0.429,-0.4313 -0.858,-0.8621 -1.289,-1.291 -0.348,-0.3494 -0.697,-0.6971 -1.047,-1.0449 -0.32,-0.3211 -0.64,-0.6413 -0.961,-0.9609 -0.387,-0.3889 -0.774,-0.7773 -1.162,-1.1641 -0.347,-0.3482 -0.693,-0.6964 -1.041,-1.043 -0.379,-0.3812 -0.76,-0.7613 -1.141,-1.1406 -0.329,-0.3309 -0.659,-0.6608 -0.99,-0.9902 -0.407,-0.4097 -0.817,-0.8172 -1.227,-1.2246 -0.309,-0.3105 -0.621,-0.6185 -0.931,-0.9278 -0.325,-0.3263 -0.649,-0.6536 -0.975,-0.9785 -0.406,-0.4081 -0.813,-0.8148 -1.221,-1.2207 -0.291,-0.2933 -0.585,-0.5848 -0.878,-0.8769 -0.376,-0.3774 -0.75,-0.7554 -1.127,-1.1309 -0.371,-0.3727 -0.745,-0.7424 -1.118,-1.1133 -0.264,-0.2652 -0.527,-0.5306 -0.793,-0.7949 -0.409,-0.4122 -0.818,-0.8245 -1.23,-1.2344 -0.34,-0.3412 -0.68,-0.6818 -1.022,-1.0215 -0.301,-0.3027 -0.603,-0.6047 -0.906,-0.9062 -0.406,-0.4084 -0.814,-0.8146 -1.222,-1.2207 -0.283,-0.2834 -0.567,-0.5653 -0.85,-0.8477 -0.336,-0.3378 -0.672,-0.6754 -1.01,-1.0117 -0.387,-0.3887 -0.775,-0.7754 -1.164,-1.1621 -0.267,-0.2681 -0.535,-0.5356 -0.803,-0.8027 -0.371,-0.3735 -0.743,-0.7457 -1.117,-1.1172 -0.329,-0.3302 -0.658,-0.6596 -0.988,-0.9883 -0.277,-0.278 -0.554,-0.5551 -0.832,-0.832 -0.382,-0.384 -0.763,-0.7685 -1.146,-1.1504 -0.312,-0.3125 -0.623,-0.6244 -0.936,-0.9356 -0.315,-0.3165 -0.631,-0.6321 -0.947,-0.9472 -0.336,-0.3375 -0.673,-0.6739 -1.01,-1.0098 -0.349,-0.3508 -0.7,-0.6997 -1.051,-1.0488 -0.291,-0.2923 -0.583,-0.5839 -0.875,-0.875 -0.295,-0.2963 -0.59,-0.5917 -0.887,-0.8868 -0.384,-0.3864 -0.769,-0.7718 -1.156,-1.1562 -0.238,-0.2387 -0.476,-0.4769 -0.715,-0.7148 -0.381,-0.3836 -0.763,-0.7669 -1.146,-1.1485 -0.288,-0.2889 -0.578,-0.5754 -0.867,-0.8633 -0.325,-0.3262 -0.651,-0.6517 -0.977,-0.9765 -0.298,-0.2992 -0.597,-0.5966 -0.896,-0.8946 -0.309,-0.3099 -0.618,-0.619 -0.928,-0.9277 -0.31,-0.3112 -0.621,-0.6217 -0.932,-0.9316 -0.281,-0.2822 -0.561,-0.5646 -0.844,-0.8457 -0.331,-0.3333 -0.663,-0.6664 -0.996,-0.9981 -0.334,-0.3357 -0.67,-0.6697 -1.005,-1.0039 -0.249,-0.2495 -0.497,-0.4994 -0.747,-0.748 -0.354,-0.3568 -0.711,-0.7114 -1.068,-1.0664 -0.232,-0.2332 -0.464,-0.4668 -0.697,-0.6993 -0.356,-0.3574 -0.711,-0.7145 -1.069,-1.0703 -0.308,-0.3098 -0.619,-0.6172 -0.929,-0.9258 -0.259,-0.2592 -0.516,-0.5189 -0.776,-0.7773 -0.307,-0.309 -0.616,-0.6161 -0.925,-0.9238 -0.306,-0.3067 -0.612,-0.6126 -0.918,-0.918 -0.254,-0.2547 -0.508,-0.5098 -0.762,-0.7637 -0.304,-0.3051 -0.607,-0.6102 -0.912,-0.914 -0.303,-0.3038 -0.605,-0.6076 -0.908,-0.9102 -0.318,-0.3193 -0.638,-0.6371 -0.958,-0.9551 -0.218,-0.2194 -0.436,-0.4394 -0.656,-0.6582 -0.366,-0.3678 -0.734,-0.7335 -1.101,-1.0996 -0.256,-0.2562 -0.513,-0.5102 -0.77,-0.7656 -0.271,-0.272 -0.542,-0.5434 -0.814,-0.8145 -0.254,-0.2547 -0.507,-0.5097 -0.762,-0.7636 -0.294,-0.2957 -0.587,-0.5923 -0.883,-0.8867 -0.292,-0.2937 -0.585,-0.5865 -0.879,-0.879 -0.277,-0.2785 -0.555,-0.5564 -0.834,-0.8339 -0.316,-0.3181 -0.635,-0.6345 -0.953,-0.9512 -0.206,-0.207 -0.414,-0.4127 -0.621,-0.6191 -0.287,-0.2886 -0.573,-0.578 -0.861,-0.8653 -0.3,-0.3014 -0.601,-0.6021 -0.903,-0.9023 -0.241,-0.242 -0.482,-0.4834 -0.724,-0.7246 -0.299,-0.3002 -0.599,-0.5995 -0.899,-0.8985 -0.266,-0.2677 -0.535,-0.534 -0.802,-0.8008 -0.267,-0.2674 -0.536,-0.5323 -0.803,-0.7988 -0.251,-0.2521 -0.502,-0.5046 -0.754,-0.7558 -0.264,-0.2649 -0.528,-0.5291 -0.793,-0.793 -0.263,-0.2635 -0.525,-0.5265 -0.789,-0.7891 -0.235,-0.2361 -0.471,-0.4716 -0.707,-0.707 -0.285,-0.2862 -0.569,-0.5724 -0.855,-0.8574 -0.288,-0.289 -0.577,-0.5774 -0.866,-0.8653 -0.202,-0.2031 -0.406,-0.4048 -0.609,-0.6074 -0.269,-0.2695 -0.536,-0.54 -0.805,-0.8086 -0.282,-0.2831 -0.564,-0.5656 -0.848,-0.8476 -0.253,-0.254 -0.507,-0.5067 -0.761,-0.7598 -0.251,-0.2521 -0.504,-0.5027 -0.756,-0.7539 -0.249,-0.2501 -0.5,-0.4988 -0.75,-0.7481 -0.169,-0.1695 -0.336,-0.3406 -0.506,-0.5097 -0.355,-0.3568 -0.71,-0.7133 -1.066,-1.0684 -0.218,-0.2184 -0.438,-0.4346 -0.657,-0.6523 -0.219,-0.2204 -0.439,-0.4404 -0.66,-0.6602 -0.229,-0.2302 -0.457,-0.4618 -0.687,-0.6914 -0.31,-0.3115 -0.622,-0.6214 -0.934,-0.9316 -0.16,-0.1604 -0.32,-0.3205 -0.48,-0.4805 -0.321,-0.3217 -0.641,-0.6425 -0.963,-0.9629 -0.155,-0.1551 -0.31,-0.31 -0.465,-0.4648 -0.294,-0.2953 -0.588,-0.5907 -0.883,-0.8848 -0.233,-0.2338 -0.467,-0.4662 -0.701,-0.6992 -0.208,-0.2087 -0.416,-0.4169 -0.625,-0.625 -0.246,-0.2469 -0.491,-0.4942 -0.738,-0.7402 -0.244,-0.2449 -0.49,-0.4884 -0.735,-0.7325 -0.191,-0.192 -0.382,-0.3846 -0.574,-0.5761 -0.295,-0.2959 -0.591,-0.5901 -0.887,-0.8848 -0.16,-0.1603 -0.32,-0.3205 -0.48,-0.4805 -0.239,-0.2397 -0.477,-0.4797 -0.717,-0.7187 -0.252,-0.2528 -0.503,-0.5059 -0.756,-0.7578 -0.235,-0.2361 -0.473,-0.4698 -0.709,-0.7051 -0.156,-0.1565 -0.312,-0.3126 -0.469,-0.4688 -0.261,-0.2623 -0.521,-0.5257 -0.783,-0.7871 -0.244,-0.2449 -0.489,-0.4883 -0.734,-0.7324 -0.191,-0.1913 -0.383,-0.3814 -0.574,-0.5723 -0.204,-0.2044 -0.407,-0.4094 -0.612,-0.6132 -0.214,-0.2153 -0.429,-0.43 -0.644,-0.6446 -0.269,-0.27 -0.539,-0.5395 -0.809,-0.8086 -0.143,-0.1437 -0.288,-0.2862 -0.431,-0.4297 -0.225,-0.225 -0.447,-0.4514 -0.672,-0.6757 -0.25,-0.2508 -0.501,-0.5001 -0.752,-0.75 -0.141,-0.1412 -0.281,-0.283 -0.422,-0.4239 -0.262,-0.2629 -0.524,-0.5251 -0.787,-0.7871 -0.205,-0.2057 -0.412,-0.4101 -0.617,-0.6152 -0.203,-0.2031 -0.407,-0.4049 -0.61,-0.6074 -0.203,-0.2041 -0.407,-0.4079 -0.611,-0.6114 -0.175,-0.175 -0.35,-0.3488 -0.525,-0.5234 -0.201,-0.2009 -0.399,-0.4032 -0.6,-0.6035 -0.212,-0.2123 -0.423,-0.425 -0.635,-0.6367 -0.212,-0.2129 -0.426,-0.4245 -0.638,-0.6368 -0.181,-0.1811 -0.362,-0.3621 -0.544,-0.5429 -0.166,-0.1673 -0.332,-0.3351 -0.5,-0.502 -0.235,-0.2367 -0.472,-0.4729 -0.708,-0.709 -0.204,-0.2043 -0.409,-0.4075 -0.614,-0.6113 -0.122,-0.1225 -0.244,-0.2448 -0.367,-0.3672 -0.245,-0.2456 -0.489,-0.4915 -0.734,-0.7363 -0.175,-0.1753 -0.35,-0.3505 -0.526,-0.5254 -0.185,-0.1858 -0.371,-0.3713 -0.556,-0.5566 -0.173,-0.1728 -0.345,-0.3452 -0.518,-0.5176 -0.197,-0.1976 -0.394,-0.3947 -0.592,-0.5918 -0.223,-0.2236 -0.446,-0.447 -0.67,-0.6699 -0.113,-0.1134 -0.228,-0.2247 -0.341,-0.3379 -0.221,-0.2208 -0.44,-0.442 -0.661,-0.6621 -0.162,-0.1633 -0.327,-0.3254 -0.49,-0.4883 -0.193,-0.1933 -0.385,-0.3873 -0.578,-0.5801 -0.12,-0.1206 -0.241,-0.2409 -0.361,-0.3613 -0.216,-0.2169 -0.432,-0.4342 -0.649,-0.6504 -0.197,-0.1982 -0.395,-0.3961 -0.593,-0.5938 -0.133,-0.1326 -0.266,-0.2641 -0.399,-0.3964 -0.183,-0.1839 -0.367,-0.3674 -0.551,-0.5508 -0.168,-0.1692 -0.336,-0.339 -0.505,-0.5078 -0.197,-0.1966 -0.394,-0.3919 -0.59,-0.5879 -0.124,-0.1235 -0.248,-0.2459 -0.372,-0.3692 -0.151,-0.1519 -0.301,-0.3054 -0.453,-0.457 -0.218,-0.2191 -0.437,-0.4378 -0.656,-0.6562 -0.106,-0.1063 -0.212,-0.2123 -0.318,-0.3184 -0.204,-0.2041 -0.408,-0.4078 -0.611,-0.6113 -0.172,-0.1718 -0.344,-0.3424 -0.516,-0.5137 -0.118,-0.1183 -0.237,-0.2354 -0.356,-0.3535 -0.182,-0.1826 -0.364,-0.3648 -0.546,-0.5469 -0.143,-0.1427 -0.286,-0.2853 -0.428,-0.4277 -0.14,-0.1402 -0.28,-0.2801 -0.42,-0.42 -0.153,-0.1528 -0.304,-0.3064 -0.457,-0.4589 -0.152,-0.1519 -0.302,-0.3055 -0.453,-0.4571 -0.205,-0.205 -0.411,-0.4088 -0.616,-0.6133 -0.08,-0.079 -0.157,-0.1575 -0.236,-0.2363 -0.203,-0.2034 -0.406,-0.4065 -0.609,-0.6094 -0.08,-0.077 -0.155,-0.1549 -0.233,-0.2324 -0.212,-0.2129 -0.423,-0.4263 -0.636,-0.6386 -0.103,-0.1027 -0.206,-0.2042 -0.309,-0.3067 -0.168,-0.1688 -0.337,-0.3374 -0.506,-0.5058 -0.127,-0.1271 -0.254,-0.2541 -0.381,-0.3809 -0.125,-0.1251 -0.25,-0.2501 -0.375,-0.375 -0.151,-0.1519 -0.303,-0.3035 -0.455,-0.4551 -0.135,-0.1356 -0.271,-0.2709 -0.406,-0.4062 -0.163,-0.1636 -0.327,-0.327 -0.49,-0.4903 -0.08,-0.078 -0.157,-0.1546 -0.235,-0.2324 -0.187,-0.1874 -0.373,-0.3755 -0.56,-0.5625 -0.08,-0.075 -0.152,-0.1494 -0.227,-0.2246 -0.158,-0.1584 -0.314,-0.3185 -0.472,-0.4766 -0.155,-0.1551 -0.312,-0.3081 -0.467,-0.4629 -0.1,-0.099 -0.2,-0.1976 -0.299,-0.2968 -0.125,-0.1248 -0.248,-0.2504 -0.373,-0.375 -0.138,-0.1382 -0.276,-0.2762 -0.414,-0.4141 -0.1,-0.095 -0.191,-0.1885 -0.285,-0.2832 -0.109,-0.1085 -0.216,-0.2178 -0.325,-0.3262 -0.133,-0.1343 -0.266,-0.2702 -0.4,-0.4043 -0.159,-0.1597 -0.319,-0.3191 -0.478,-0.4785 l -0.188,-0.1875 c -0.17,-0.1701 -0.339,-0.34 -0.51,-0.5097 -0.06,-0.059 -0.118,-0.1185 -0.177,-0.1778 -0.156,-0.1558 -0.312,-0.3113 -0.467,-0.4668 -0.1,-0.098 -0.195,-0.1953 -0.293,-0.2929 -0.123,-0.1235 -0.248,-0.2459 -0.371,-0.3692 -0.08,-0.082 -0.164,-0.1657 -0.246,-0.248 -0.121,-0.1213 -0.243,-0.2423 -0.364,-0.3633 -0.106,-0.1062 -0.212,-0.2123 -0.318,-0.3184 -0.156,-0.156 -0.313,-0.311 -0.469,-0.4668 -0.03,-0.024 -0.05,-0.048 -0.07,-0.072 -0.103,-0.1037 -0.205,-0.209 -0.308,-0.3125 -0.142,-0.1418 -0.282,-0.2843 -0.424,-0.4258 -0.112,-0.1124 -0.226,-0.2238 -0.338,-0.336 -0.02,-0.021 -0.04,-0.043 -0.06,-0.064 -0.16,-0.1607 -0.32,-0.3221 -0.481,-0.4824 -0.08,-0.082 -0.162,-0.1628 -0.244,-0.2442 -0.09,-0.094 -0.189,-0.1872 -0.283,-0.2812 -0.09,-0.093 -0.185,-0.185 -0.277,-0.2774 -0.09,-0.091 -0.182,-0.1823 -0.274,-0.2734 -0.118,-0.1183 -0.237,-0.2354 -0.355,-0.3535 -0.05,-0.047 -0.09,-0.094 -0.141,-0.1406 -0.09,-0.087 -0.172,-0.1749 -0.259,-0.2618 -0.114,-0.114 -0.228,-0.2279 -0.342,-0.3418 -0.03,-0.028 -0.05,-0.056 -0.08,-0.084 -0.167,-0.1672 -0.333,-0.3352 -0.5,-0.502 -0.04,-0.041 -0.08,-0.08 -0.123,-0.1211 -0.12,-0.1195 -0.24,-0.238 -0.36,-0.3574 -0.04,-0.039 -0.08,-0.077 -0.117,-0.1152 -0.06,-0.065 -0.13,-0.1303 -0.195,-0.1954 -0.09,-0.09 -0.18,-0.1797 -0.27,-0.2695 -0.07,-0.075 -0.149,-0.1497 -0.224,-0.2246 -0.06,-0.06 -0.12,-0.1214 -0.18,-0.1816 -0.1,-0.1001 -0.199,-0.2009 -0.299,-0.3008 -0.02,-0.021 -0.04,-0.042 -0.06,-0.062 -0.139,-0.1392 -0.279,-0.2771 -0.418,-0.416 -0.115,-0.1157 -0.23,-0.2322 -0.346,-0.3477 -0.05,-0.051 -0.101,-0.1016 -0.152,-0.1523 -0.06,-0.065 -0.129,-0.129 -0.193,-0.1934 -0.06,-0.062 -0.125,-0.125 -0.188,-0.1875 -0.06,-0.061 -0.121,-0.1224 -0.182,-0.1836 -0.06,-0.06 -0.12,-0.1198 -0.18,-0.1797 -0.04,-0.045 -0.09,-0.09 -0.135,-0.1347 -0.1,-0.099 -0.198,-0.198 -0.297,-0.2969 v 0 c -0.107,-0.1075 -0.217,-0.2168 -0.324,-0.3242 -0.104,-0.1042 -0.208,-0.2084 -0.313,-0.3125 -0.01,-0.011 -0.02,-0.022 -0.03,-0.033 -0.09,-0.086 -0.172,-0.1719 -0.258,-0.2578 -0.09,-0.093 -0.187,-0.1862 -0.28,-0.2793 -0.04,-0.045 -0.09,-0.09 -0.132,-0.1348 -0.08,-0.084 -0.168,-0.168 -0.252,-0.2519 -0.02,-0.021 -0.04,-0.042 -0.06,-0.062 -0.02,-0.02 -0.04,-0.041 -0.06,-0.061 -0.01,-0.01 -0.01,-0.011 -0.02,-0.017 -0.07,-0.07 -0.139,-0.141 -0.209,-0.211 -0.02,-0.017 -0.03,-0.033 -0.05,-0.051 -0.07,-0.071 -0.14,-0.1438 -0.211,-0.2148 -0.05,-0.049 -0.1,-0.096 -0.147,-0.1445 -0.01,-0.015 -0.03,-0.03 -0.05,-0.045 -0.01,-0.012 -0.02,-0.025 -0.03,-0.037 0,0 -0.01,-0.01 -0.01,-0.01 v 0 c -0.08,-0.082 -0.164,-0.1641 -0.246,-0.2461 -0.03,-0.025 -0.05,-0.051 -0.08,-0.076 -0.01,-0.01 -0.02,-0.019 -0.03,-0.029 -0.05,-0.053 -0.105,-0.1071 -0.158,-0.1602 -0.06,-0.06 -0.118,-0.1201 -0.178,-0.1796 0,0 0,0 0,0 -0.06,-0.064 -0.128,-0.1259 -0.191,-0.1894 -0.01,-0.01 -0.02,-0.017 -0.03,-0.025 -0.01,-0.01 -0.02,-0.016 -0.02,-0.023 -0.01,-0.014 -0.03,-0.029 -0.04,-0.043 l -0.01,-0.01 c -1.56,-1.5603 -3.142,-3.0976 -4.735,-4.625 -0.21,-0.2017 -0.414,-0.4101 -0.625,-0.6113 0,0 0,0 -0.01,0 -0.616,-0.5879 -1.248,-1.1593 -1.869,-1.7422 -1.197,-1.1237 -2.389,-2.2524 -3.603,-3.3574 0,0 -0.01,-0.01 -0.01,-0.01 0,0 0,0 -0.01,-0.01 -1.845,-1.6779 -3.71,-3.3345 -5.594,-4.9687 0,0 -0.01,-0.01 -0.01,-0.01 0,0 0,0 -0.01,-0.01 -0.417,-0.3613 -0.845,-0.7092 -1.264,-1.0684 -1.474,-1.2651 -2.949,-2.5295 -4.447,-3.7675 0,0 -0.01,-0.01 -0.01,-0.01 -1.335,-1.1033 -2.692,-2.1804 -4.045,-3.2618 -0.599,-0.4783 -1.187,-0.9693 -1.789,-1.4433 0,0 -0.01,-0.01 -0.01,-0.01 0,0 0,0 -0.01,-0.01 -1.961,-1.5439 -3.941,-3.0628 -5.939,-4.5605 0,0 -0.01,-0.01 -0.01,-0.01 0,0 0,0 -0.01,-0.01 -1.998,-1.4973 -4.017,-2.9716 -6.051,-4.4219 0,0 -0.01,-0.01 -0.01,-0.01 0,0 -0.01,0 -0.01,-0.01 -8.16,-5.8163 -16.606,-11.2491 -25.315,-16.2754 0,0 0,0 -0.01,0 -2.175,-1.2556 -4.368,-2.4852 -6.576,-3.6894 0,0 0,0 -0.01,0 -44.201,-24.1063 -94.774,-37.8321 -148.378,-37.8321 z"
         id="path10942" />
      <path
         id="path5890"
         style="font-style:normal;font-variant:normal;font-weight:normal;font-stretch:normal;font-size:192px;line-height:1.25;font-family:'Product Sans';-inkscape-font-specification:'Product Sans';letter-spacing:0px;word-spacing:0px;fill:#f4511e;fill-opacity:1;stroke:#f4511e;stroke-width:16.9;stroke-miterlimit:4;stroke-dasharray:none;stroke-opacity:1"
         d="m 9412.5587,7085.4156 v -469.6873 h 169.601 q 55.0058,0 94.9504,36.7353 40.5995,36.0793 40.5995,91.1823 0,33.4554 -17.6804,59.0389 -17.0256,25.5835 -45.8381,38.7033 v 2.6239 q 34.706,11.8078 56.9702,40.6713 22.2643,28.8635 22.2643,66.9108 0,57.7269 -42.564,95.7742 -41.9092,38.0473 -99.5342,38.0473 z m 60.2444,-268.2991 h 109.3566 q 34.0512,0 54.351,-22.3036 20.9545,-22.9595 20.9545,-49.855 0,-26.8955 -20.2997,-49.1991 -19.6449,-22.3036 -52.3864,-22.3036 h -111.976 z m 0,210.5722 h 121.1436 q 34.706,0 56.3154,-24.2716 21.6094,-24.2716 21.6094,-53.135 0,-28.8635 -22.2642,-52.4791 -22.2643,-24.2715 -58.2799,-24.2715 h -118.5243 z"
         inkscape:connector-curvature="0" />
      <path
         id="path5892"
         style="font-style:normal;font-variant:normal;font-weight:normal;font-stretch:normal;font-size:192px;line-height:1.25;font-family:'Product Sans';-inkscape-font-specification:'Product Sans';letter-spacing:0px;word-spacing:0px;fill:#f4511e;fill-opacity:1;stroke:#f4511e;stroke-width:16.9;stroke-miterlimit:4;stroke-dasharray:none;stroke-opacity:1"
         d="m 9819.2083,6802.6848 q 46.493,-49.1991 118.5243,-49.1991 72.0314,0 118.5244,49.1991 46.493,48.5431 46.493,122.0138 0,73.4706 -46.493,122.6697 -46.493,48.5431 -118.5244,48.5431 -72.0313,0 -118.5243,-48.5431 -46.4929,-49.1991 -46.4929,-122.6697 0,-73.4707 46.4929,-122.0138 z m 44.5285,206.6362 q 31.4319,31.4874 73.9958,31.4874 42.564,0 73.3414,-31.4874 31.432,-32.1434 31.432,-84.6224 0,-52.4791 -31.432,-83.9665 -30.7774,-32.1434 -73.3414,-32.1434 -42.5639,0 -73.9958,32.1434 -30.777,31.4874 -30.777,83.9665 0,52.479 30.777,84.6224 z"
         inkscape:connector-curvature="0" />
      <path
         id="path5894"
         style="font-style:normal;font-variant:normal;font-weight:normal;font-stretch:normal;font-size:192px;line-height:1.25;font-family:'Product Sans';-inkscape-font-specification:'Product Sans';letter-spacing:0px;word-spacing:0px;fill:#f4511e;fill-opacity:1;stroke:#f4511e;stroke-width:16.9;stroke-miterlimit:4;stroke-dasharray:none;stroke-opacity:1"
         d="m 10286.756,7090.6635 q -50.422,0 -77.27,-26.8955 -26.193,-26.8955 -26.193,-76.0946 v -168.5889 h -56.316 v -55.103 h 56.316 v -98.3982 h 60.244 v 98.3982 h 78.58 v 55.103 h -78.58 v 163.997 q 0,52.479 43.219,52.479 16.371,0 27.503,-5.2479 l 20.954,51.823 q -19.645,8.5279 -48.457,8.5279 z"
         inkscape:connector-curvature="0" />
    </g>
  </g>
</svg>
