<?xml version="1.0" encoding="UTF-8" standalone="no"?>
<svg
   xmlns:dc="http://purl.org/dc/elements/1.1/"
   xmlns:cc="http://creativecommons.org/ns#"
   xmlns:rdf="http://www.w3.org/1999/02/22-rdf-syntax-ns#"
   xmlns:svg="http://www.w3.org/2000/svg"
   xmlns="http://www.w3.org/2000/svg"
   xmlns:sodipodi="http://sodipodi.sourceforge.net/DTD/sodipodi-0.dtd"
   xmlns:inkscape="http://www.inkscape.org/namespaces/inkscape"
   width="67.733337mm"
   height="67.733337mm"
   viewBox="0 0 67.733339 67.733338"
   version="1.1"
   id="svg27864"
   inkscape:version="1.0 (4035a4fb49, 2020-05-01)"
   sodipodi:docname="segnalazioni_scalable.svg">
  <defs
     id="defs27858">
    <clipPath
       id="clipPath1698-3"
       clipPathUnits="userSpaceOnUse">
      <rect
         ry="64.06395"
         rx="64.06395"
         y="19470.865"
         x="-29147.879"
         height="772.966"
         width="1200"
         id="rect1700-6"
         style="opacity:0.604;fill:#26a10d;fill-opacity:0.985;stroke:#d32f2f;stroke-width:0;stroke-linecap:round;stroke-linejoin:bevel;stroke-miterlimit:4;stroke-dasharray:none;stroke-dashoffset:0;stroke-opacity:0.94;paint-order:fill markers stroke" />
    </clipPath>
    <clipPath
       clipPathUnits="userSpaceOnUse"
       id="clipPath29374">
      <rect
         y="7264.1074"
         x="-18040.27"
         height="2048"
         width="2048"
         id="rect29376"
         style="opacity:1;fill:#014c77;fill-opacity:1;stroke:none;stroke-width:4.4;stroke-linecap:round;stroke-linejoin:bevel;stroke-miterlimit:4;stroke-dasharray:none;stroke-dashoffset:0;stroke-opacity:1;paint-order:fill markers stroke" />
    </clipPath>
    <clipPath
       clipPathUnits="userSpaceOnUse"
       id="clipPath1237">
      <g
         id="g1245">
        <rect
           style="opacity:1;fill:#e1f5fe;fill-opacity:1;stroke:none;stroke-width:4.4;stroke-linecap:round;stroke-linejoin:bevel;stroke-miterlimit:4;stroke-dasharray:none;stroke-dashoffset:0;stroke-opacity:1;paint-order:fill markers stroke"
           id="rect1239"
           width="1083.2383"
           height="98.791946"
           x="-17557.889"
           y="8911.8291"
           rx="28.853754"
           ry="28.853754" />
        <rect
           style="opacity:1;fill:#e1f5fe;fill-opacity:1;stroke:none;stroke-width:4.4;stroke-linecap:round;stroke-linejoin:bevel;stroke-miterlimit:4;stroke-dasharray:none;stroke-dashoffset:0;stroke-opacity:1;paint-order:fill markers stroke"
           id="rect1241"
           width="713.43213"
           height="66.819221"
           x="-17372.984"
           y="8984.541"
           rx="28.853802"
           ry="28.8538" />
        <path
           inkscape:connector-curvature="0"
           style="opacity:1;fill:#e1f5fe;fill-opacity:1;stroke:none;stroke-width:4.4;stroke-linecap:round;stroke-linejoin:bevel;stroke-miterlimit:4;stroke-dasharray:none;stroke-dashoffset:0;stroke-opacity:1;paint-order:fill markers stroke"
           d="m -17324.329,8432.3038 c -18.32,0 -33.343,14.4272 -35.635,33.2188 h -0.312 v 5.0019 30.5742 132.9981 c 0,163.6929 123.952,295.4765 277.918,295.4765 h 132.179 c 122.164,0 225.42,-82.9726 262.867,-199.0156 a 129.26388,129.26388 0 0 0 15.041,1.0391 129.26388,129.26388 0 0 0 129.264,-129.2637 129.26388,129.26388 0 0 0 -129.256,-129.2637 v -2.5449 -5.0019 h -0.314 c -2.292,-18.7916 -17.314,-33.2188 -35.633,-33.2188 z m 652.066,103.461 a 66.567536,66.567536 0 0 1 66.561,66.5683 66.567536,66.567536 0 0 1 -66.569,66.5664 66.567536,66.567536 0 0 1 -1.892,-0.094 c 1.242,-11.3827 1.9,-22.9607 1.9,-34.709 z"
           id="path1243" />
      </g>
    </clipPath>
  </defs>
  <sodipodi:namedview
     id="base"
     pagecolor="#ffffff"
     bordercolor="#666666"
     borderopacity="1.0"
     inkscape:pageopacity="0.0"
     inkscape:pageshadow="2"
     inkscape:zoom="0.32"
     inkscape:cx="976.98678"
     inkscape:cy="1211.3171"
     inkscape:document-units="mm"
     inkscape:current-layer="layer1"
     inkscape:document-rotation="0"
     showgrid="false"
     fit-margin-top="0"
     fit-margin-left="0"
     fit-margin-right="0"
     fit-margin-bottom="0"
     inkscape:window-width="1336"
     inkscape:window-height="1029"
     inkscape:window-x="576"
     inkscape:window-y="24"
     inkscape:window-maximized="0"
     inkscape:snap-global="false" />
  <metadata
     id="metadata27861">
    <rdf:RDF>
      <cc:Work
         rdf:about="">
        <dc:format>image/svg+xml</dc:format>
        <dc:type
           rdf:resource="http://purl.org/dc/dcmitype/StillImage" />
        <dc:title></dc:title>
        <cc:license
           rdf:resource="http://creativecommons.org/licenses/by-sa/4.0/" />
      </cc:Work>
      <cc:License
         rdf:about="http://creativecommons.org/licenses/by-sa/4.0/">
        <cc:permits
           rdf:resource="http://creativecommons.org/ns#Reproduction" />
        <cc:permits
           rdf:resource="http://creativecommons.org/ns#Distribution" />
        <cc:requires
           rdf:resource="http://creativecommons.org/ns#Notice" />
        <cc:requires
           rdf:resource="http://creativecommons.org/ns#Attribution" />
        <cc:permits
           rdf:resource="http://creativecommons.org/ns#DerivativeWorks" />
        <cc:requires
           rdf:resource="http://creativecommons.org/ns#ShareAlike" />
      </cc:License>
    </rdf:RDF>
  </metadata>
  <g
     inkscape:label="Livello 1"
     inkscape:groupmode="layer"
     id="layer1"
     transform="translate(3873.4138,4053.1933)">
    <g
       id="g26781"
       inkscape:export-filename="/home/fjall/Icone/PNG/Altro/Bot/segnalazioni.png"
       inkscape:export-xdpi="96"
       inkscape:export-ydpi="96"
       transform="matrix(0.03307292,0,0,0.03307292,-3962.9055,-4114.5302)">
      <rect
         style="fill:#d32f2f;fill-opacity:0.990909;stroke:none;stroke-width:155.05;stroke-linecap:round;stroke-linejoin:round;stroke-miterlimit:4;stroke-dasharray:none;stroke-dashoffset:0;stroke-opacity:1;paint-order:stroke markers fill"
         id="rect1393"
         width="2048"
         height="2048"
         x="2705.8916"
         y="1854.5946"
         rx="0"
         ry="0" />
      <path
         inkscape:connector-curvature="0"
         style="fill:#000001;fill-opacity:0.145098;stroke-width:1"
         d="m 3440.621,2180.0038 c 0,8e-4 -413.185,413.1875 -413.185,413.1875 v 584.6953 c 0,0 3.027,2.9692 3.072,3.0137 v 0.031 l 3.07,3.0117 v 0.027 l 3.067,3.0078 v 0.029 l 3.064,3.0059 v 0.027 l 3.061,3.002 v 0.029 l 3.056,2.998 v 0.031 c 0,10e-5 3.01,2.952 3.055,2.9961 v 0.027 c 0,10e-5 3.008,2.9521 3.053,2.9961 v 0.027 c 0,0 3.002,2.9463 3.047,2.9902 v 0.027 c 0,10e-5 3,2.9445 3.044,2.9883 v 0.027 c 0,0 2.999,2.9426 3.043,2.9863 v 0.027 c 0,1e-4 2.995,2.9388 3.039,2.9825 v 0.027 c 0,1e-4 2.993,2.9369 3.038,2.9805 v 0.025 c 0,0 2.989,2.9331 3.033,2.9765 v 0.027 c 0,1e-4 2.985,2.9293 3.029,2.9726 v 0.027 c 0,10e-5 2.983,2.9274 3.027,2.9707 v 0.027 c 0,1e-4 2.98,2.9236 3.024,2.9668 v 0.027 c 0,3e-4 2.975,2.9199 3.019,2.9629 v 0.029 c 0,10e-5 2.976,2.9198 3.02,2.9629 v 0.025 c 0,1e-4 2.97,2.9141 3.014,2.9571 v 0.027 c 0,1e-4 2.968,2.9122 3.011,2.9551 v 0.027 c 0,10e-5 2.965,2.9084 3.008,2.9512 v 0.027 c 0,2e-4 2.962,2.9066 3.006,2.9492 v 0.027 c 0,10e-5 2.959,2.9027 3.002,2.9453 v 0.027 c 0,3e-4 2.957,2.9008 3,2.9434 v 0.027 c 0,10e-5 2.951,2.895 2.994,2.9375 v 0.029 c 0,0 2.951,2.895 2.994,2.9374 v 0.027 c 0,2e-4 2.947,2.8913 2.99,2.9336 v 0.027 c 0,2e-4 2.944,2.8875 2.987,2.9297 v 0.027 c 0,10e-5 2.941,2.8855 2.984,2.9277 v 0.027 c 0,2e-4 2.938,2.8818 2.981,2.9239 v 0.027 c 0,2e-4 2.933,2.878 2.976,2.9199 v 0.029 c 0,2e-4 2.934,2.878 2.977,2.92 v 0.025 c 0,2e-4 2.928,2.8723 2.97,2.9141 v 0.029 c 0,2e-4 2.927,2.8704 2.969,2.9121 v 0.027 c 0,2e-4 2.923,2.8665 2.965,2.9082 v 0.029 c 0,2e-4 2.921,2.8646 2.963,2.9062 v 0.027 c 0,3e-4 2.917,2.8609 2.959,2.9024 v 0.027 c 0,3e-4 2.915,2.859 2.957,2.9004 v 0.027 c 0,2e-4 2.909,2.8532 2.951,2.8945 v 0.029 c 0,2e-4 2.909,2.8533 2.951,2.8945 v 0.027 c 0,2e-4 2.906,2.8514 2.948,2.8926 v 0.025 c 0,3e-4 2.901,2.8476 2.943,2.8887 v 0.027 c 0,2e-4 2.898,2.8437 2.939,2.8847 v 0.027 c 0,2e-4 2.898,2.8437 2.94,2.8847 v 0.023 c 0,2e-4 2.892,2.838 2.933,2.8789 v 0.027 c 0,3e-4 2.89,2.8362 2.932,2.877 v 0.025 c 0,2e-4 2.888,2.8342 2.93,2.875 v 0.025 c 0,2e-4 2.882,2.8285 2.924,2.8691 v 0.029 c 0,3e-4 2.882,2.8285 2.923,2.8691 v 0.023 c 0,2e-4 2.877,2.8228 2.918,2.8633 v 0.027 c 0,3e-4 2.875,2.8209 2.916,2.8613 v 0.027 c 0,3e-4 2.873,2.819 2.914,2.8593 v 0.025 c 0,3e-4 2.87,2.8153 2.911,2.8555 v 0.025 c 0,3e-4 2.865,2.8114 2.906,2.8516 v 0.027 c 0,3e-4 2.863,2.8095 2.904,2.8496 v 0.027 c 0,3e-4 2.86,2.8057 2.901,2.8457 v 0.027 c 0,3e-4 2.855,2.8019 2.896,2.8418 v 0.027 c 0,4e-4 2.856,2.802 2.897,2.8418 v 0.023 c 0,3e-4 2.85,2.7962 2.89,2.8359 v 0.029 c 0,3e-4 2.848,2.7943 2.889,2.834 v 0.025 c 0,3e-4 2.846,2.7924 2.887,2.832 v 0.025 c 0,3e-4 2.84,2.7867 2.88,2.8262 v 0.029 c 0,3e-4 2.839,2.7848 2.879,2.8242 v 0.025 c 0,3e-4 2.837,2.783 2.877,2.8222 v 0.027 c 0,3e-4 2.833,2.7791 2.873,2.8184 v 0.025 c 0,4e-4 2.831,2.7771 2.871,2.8165 v 0.027 c 0,4e-4 2.828,2.7734 2.868,2.8125 v 0.025 c 0,4e-4 2.823,2.7696 2.863,2.8086 v 0.027 c 0,4e-4 2.82,2.7658 2.859,2.8047 v 0.029 c 0,4e-4 2.82,2.7658 2.86,2.8047 v 0.025 c 0,4e-4 2.814,2.7601 2.853,2.7988 v 0.027 c 0,3e-4 2.812,2.7581 2.852,2.7968 v 0.027 c 0,4e-4 2.81,2.7562 2.849,2.7949 v 0.025 c 0,4e-4 2.805,2.7525 2.844,2.791 v 0.027 c 0,4e-4 2.805,2.7525 2.844,2.7911 v 0.023 c 0,4e-4 2.8,2.7487 2.84,2.7871 v 0.025 c 0,4e-4 2.797,2.7449 2.836,2.7832 v 0.025 c 0,4e-4 2.793,2.7411 2.832,2.7793 v 0.027 c 0,5e-4 2.793,2.7411 2.832,2.7793 v 0.021 0 c 0,4e-4 2.787,2.7353 2.826,2.7734 v 0.025 c 0,4e-4 2.785,2.7334 2.824,2.7715 v 0.025 c 0,4e-4 2.782,2.7296 2.82,2.7675 v 0.025 c 0,5e-4 2.78,2.7278 2.819,2.7657 v 0.025 c 0,4e-4 2.776,2.7239 2.814,2.7617 v 0.025 c 0,4e-4 2.774,2.722 2.813,2.7597 v 0.023 c 0,4e-4 2.768,2.7163 2.806,2.7539 v 0.027 c 0,5e-4 2.769,2.7163 2.807,2.7539 v 0.025 c 0,5e-4 2.764,2.7125 2.803,2.75 v 0.025 c 0,5e-4 2.76,2.7087 2.799,2.7461 v 0.025 c 0,5e-4 2.758,2.7068 2.796,2.7441 v 0.025 c 0,5e-4 2.755,2.703 2.793,2.7403 v 0.025 c 0,5e-4 2.752,2.6992 2.789,2.7364 v 0.027 c 0,5e-4 2.75,2.6973 2.788,2.7344 v 0.025 c 0,5e-4 2.747,2.6953 2.785,2.7324 v 0.023 c 0,5e-4 2.743,2.6916 2.781,2.7286 v 0.025 c 0,3e-4 2.74,2.6877 2.777,2.7246 v 0.027 c 0,5e-4 2.736,2.6839 2.774,2.7207 v 0.027 c 0,3e-4 2.734,2.682 2.771,2.7187 v 0.025 c 0,5e-4 2.732,2.6801 2.77,2.7168 v 0.025 c 0,5e-4 2.728,2.6763 2.765,2.7129 v 0.025 c 0,5e-4 2.725,2.6725 2.762,2.7089 v 0.027 c 10e-4,5e-4 2.723,2.6706 2.76,2.707 v 0.025 c 0,5e-4 2.719,2.6668 2.756,2.7031 v 0.025 c 0,6e-4 2.719,2.6668 2.756,2.7032 v 0.023 c 0,5e-4 2.711,2.6592 2.748,2.6953 v 0.029 c 0,5e-4 2.711,2.6592 2.748,2.6953 v 0.023 0 c 0,5e-4 2.707,2.6554 2.744,2.6914 v 0.025 c 0,5e-4 2.703,2.6534 2.74,2.6895 v 0.025 c 0,6e-4 2.702,2.6516 2.738,2.6875 v 0.023 c 0,5e-4 2.698,2.6478 2.735,2.6836 v 0.023 c 0,6e-4 2.694,2.644 2.73,2.6797 v 0.025 c 0,5e-4 2.694,2.644 2.731,2.6797 v 0.023 c 0,6e-4 2.688,2.6383 2.724,2.6738 v 0.025 c 0,6e-4 2.687,2.6364 2.723,2.6719 v 0.023 c 0,6e-4 2.683,2.6326 2.719,2.668 v 0.025 c 0,6e-4 2.68,2.6306 2.716,2.666 v 0.024 c 0,5e-4 2.677,2.6268 2.713,2.6621 v 0.025 c 0,5e-4 2.675,2.6249 2.711,2.6601 v 0.024 c 0,5e-4 2.671,2.6211 2.707,2.6562 v 0.025 c 0,6e-4 2.668,2.6173 2.703,2.6523 v 0.025 c 0,6e-4 2.666,2.6154 2.702,2.6504 v 0.024 c 0,5e-4 2.663,2.6134 2.699,2.6484 v 0.023 c 0,6e-4 2.658,2.6078 2.693,2.6426 v 0.025 c 0,6e-4 2.656,2.6059 2.692,2.6406 v 0.025 c 0,6e-4 2.654,2.604 2.689,2.6387 v 0.023 c 0,6e-4 2.65,2.6002 2.686,2.6348 v 0.025 c 0,6e-4 2.646,2.5963 2.681,2.6308 v 0.025 c 0,6e-4 2.647,2.5964 2.682,2.6309 v 0.023 c 0,6e-4 2.641,2.5906 2.676,2.625 v 0.025 c 0,6e-4 2.637,2.5868 2.672,2.6211 v 0.025 c 0,6e-4 2.635,2.5849 2.669,2.6191 v 0.025 c 0,7e-4 2.634,2.583 2.668,2.6172 v 0.024 c 0,6e-4 2.63,2.5791 2.664,2.6132 v 0.025 c 0,7e-4 2.628,2.5773 2.663,2.6114 v 0.023 c 0,6e-4 2.623,2.5735 2.658,2.6074 v 0.025 c 0,7e-4 2.618,2.5678 2.652,2.6016 v 0.027 c 0,7e-4 2.618,2.5678 2.652,2.6016 v 0.025 c 0,6e-4 2.616,2.5658 2.651,2.5996 v 0.023 c 0,7e-4 2.61,2.5601 2.644,2.5938 v 0.025 c 0,6e-4 2.609,2.5581 2.643,2.5918 v 0.025 c 0,7e-4 2.606,2.5563 2.641,2.5899 v 0.023 c 0,7e-4 2.6,2.5525 2.634,2.586 v 0.025 c 0,5e-4 2.599,2.5506 2.633,2.5839 v 0.023 c 0,6e-4 2.597,2.5487 2.631,2.582 v 0.023 c 0,7e-4 2.595,2.5468 2.629,2.5801 v 0.022 c 0,7e-4 2.589,2.5411 2.623,2.5742 v 0.023 c 0,6e-4 2.587,2.5391 2.621,2.5722 v 0.023 c 10e-4,7e-4 2.584,2.5353 2.617,2.5683 v 0.023 c 0,7e-4 2.584,2.5353 2.617,2.5683 v 0.022 c 0,7e-4 2.576,2.5277 2.61,2.5606 v 0.027 c 0,7e-4 2.576,2.5277 2.609,2.5605 v 0.022 c 0,7e-4 2.572,2.5239 2.606,2.5567 v 0.023 c 0,7e-4 2.568,2.5201 2.601,2.5527 v 0.025 c 0,7e-4 2.569,2.5201 2.602,2.5528 v 0.021 c 0,8e-4 2.562,2.5144 2.595,2.5469 v 0.023 c 0,7e-4 2.561,2.5124 2.594,2.5449 v 0.023 c 0,7e-4 2.557,2.5087 2.59,2.541 v 0.025 c 0,7e-4 2.553,2.5049 2.586,2.5371 v 0.023 0 c 0,8e-4 2.553,2.5049 2.586,2.5371 v 0.021 c 0,7e-4 2.547,2.4991 2.58,2.5313 v 0.023 c 0,7e-4 2.545,2.4972 2.578,2.5293 v 0.023 c 0,8e-4 2.542,2.4934 2.574,2.5254 v 0.025 c 0,8e-4 2.54,2.4915 2.573,2.5235 v 0.023 c 0,7e-4 2.537,2.4896 2.57,2.5215 v 0.021 c 0,7e-4 2.532,2.4838 2.564,2.5156 v 0.025 c 0,7e-4 2.531,2.4819 2.563,2.5137 v 0.025 c 0,8e-4 2.528,2.4801 2.56,2.5118 v 0.021 c 0,8e-4 2.523,2.4744 2.555,2.5059 v 0.027 c 0,8e-4 2.523,2.4744 2.555,2.5059 v 0.022 c 0,8e-4 2.519,2.4705 2.551,2.5019 v 0.024 c 0,7e-4 2.515,2.4667 2.547,2.498 v 0.025 c 0,8e-4 2.511,2.4629 2.542,2.4942 v 0.025 c 0,7e-4 2.51,2.4609 2.541,2.4921 v 0.023 c 0,8e-4 2.508,2.459 2.54,2.4902 v 0.023 c 0,8e-4 2.503,2.4572 2.535,2.4883 v 0.021 c 0,8e-4 2.499,2.4534 2.531,2.4844 v 0.023 c 0,8e-4 2.498,2.4516 2.529,2.4824 v 0.022 c 0,8e-4 2.494,2.4477 2.526,2.4785 v 0.024 c 0,8e-4 2.49,2.4438 2.521,2.4746 v 0.023 c 0,8e-4 2.49,2.4439 2.522,2.4746 v 0.02 c 0,8e-4 2.484,2.4381 2.515,2.4687 v 0.023 c 0,8e-4 2.485,2.4381 2.516,2.4687 v 0.022 c 0,8e-4 2.477,2.4305 2.508,2.4609 v 0.023 0 c 0,8e-4 2.476,2.4305 2.507,2.461 v 0.021 c 0,9e-4 2.473,2.4267 2.504,2.4571 v 0.022 c 0,8e-4 2.47,2.4228 2.5,2.4531 v 0.025 0 c 0,8e-4 2.468,2.4209 2.498,2.4511 v 0.022 c 0,9e-4 2.464,2.4171 2.495,2.4473 v 0.023 c 0,9e-4 2.461,2.4152 2.492,2.4454 v 0.023 c 0,8e-4 2.457,2.4114 2.488,2.4414 v 0.023 c 0,9e-4 2.456,2.4095 2.486,2.4395 v 0.021 c 0,8e-4 2.454,2.4075 2.485,2.4375 v 0.022 c 0,8e-4 2.446,2.3999 2.476,2.4296 v 0.025 c 0,9e-4 2.448,2.4019 2.479,2.4317 v 0.022 c 0,8e-4 2.442,2.3961 2.472,2.4257 v 0.023 c 0,8e-4 2.441,2.3942 2.471,2.4238 v 0.022 c 0,8e-4 2.437,2.3904 2.467,2.4199 v 0.023 c 0,9e-4 2.435,2.3885 2.465,2.418 v 0.024 c 0,8e-4 2.431,2.3846 2.461,2.414 v 0.024 c 0,8e-4 2.427,2.3808 2.457,2.4101 v 0.023 c 0,9e-4 2.425,2.3789 2.455,2.4083 v 0.023 c 0,8e-4 2.423,2.377 2.453,2.4062 v 0.022 c 0,9e-4 2.418,2.3713 2.447,2.4004 v 0.024 c 0,7e-4 2.418,2.3712 2.447,2.4003 v 0.022 0 c 0,8e-4 2.414,2.3674 2.444,2.3965 v 0.021 c 0,9e-4 2.408,2.3618 2.437,2.3907 v 0.025 c 0,8e-4 2.408,2.3617 2.438,2.3906 v 0.021 c 0,8e-4 2.404,2.3579 2.433,2.3867 v 0.023 c 0,9e-4 2.403,2.358 2.432,2.3867 v 0.022 c 0,9e-4 2.397,2.3522 2.426,2.3809 v 0.021 c 0,9e-4 2.395,2.3503 2.424,2.3789 v 0.021 c 0,8e-4 2.392,2.3484 2.422,2.3769 v 0.022 c 0,9e-4 2.389,2.3447 2.418,2.373 v 0.022 c 0,9e-4 2.385,2.3408 2.414,2.3692 v 0.023 c 0,9e-4 2.383,2.3389 2.412,2.3672 v 0.02 0 c 0,9e-4 2.381,2.3369 2.41,2.3652 v 0.02 c 0,7e-4 2.375,2.3312 2.404,2.3593 v 0.023 c 0,9e-4 2.376,2.3312 2.404,2.3593 v 0.02 c 0,9e-4 2.37,2.3254 2.399,2.3535 v 0.023 c 0,9e-4 2.368,2.3236 2.396,2.3516 v 0.021 l 2.397,2.3515 v 0.018 c 0,9e-4 2.36,2.3159 2.389,2.3438 v 0.023 c 0,9e-4 2.358,2.314 2.386,2.3418 v 0.023 c 0,9e-4 2.357,2.3121 2.385,2.3399 v 0.022 c 0,9e-4 2.353,2.3082 2.381,2.3359 v 0.022 c 0,9e-4 2.351,2.3064 2.379,2.334 v 0.021 c 0,0 2.347,2.3026 2.375,2.3301 v 0.021 c 0,9e-4 2.343,2.2987 2.371,2.3262 v 0.023 c 0,9e-4 2.341,2.2968 2.369,2.3242 v 0.022 c 0,9e-4 2.337,2.293 2.365,2.3203 v 0.022 c 0,9e-4 2.336,2.2911 2.364,2.3184 v 0.021 c 0,9e-4 2.331,2.2872 2.359,2.3144 v 0.024 c 0,9e-4 2.33,2.2853 2.357,2.3125 v 0.021 c 0,0 2.326,2.2816 2.354,2.3086 v 0.021 c 0,0 2.322,2.2777 2.349,2.3047 v 0.023 c 0,0 2.321,2.2758 2.348,2.3028 v 0.022 c 0,9e-4 2.318,2.2738 2.346,2.3007 v 0.022 c 0,0 2.312,2.2682 2.34,2.2949 v 0.024 c 0,9e-4 2.31,2.2662 2.338,2.293 v 0.021 c 0,0 2.308,2.2644 2.335,2.2911 v 0.021 c 0,0 2.305,2.2606 2.333,2.2872 v 0.023 c 0,9e-4 2.301,2.2586 2.328,2.2851 v 0.02 c 0,9e-4 2.299,2.2567 2.326,2.2832 v 0.022 c 0,9e-4 2.295,2.2528 2.322,2.2793 v 0.02 c 0,9e-4 2.294,2.251 2.32,2.2773 v 0.021 c 0,0 2.29,2.2472 2.317,2.2735 v 0.02 c 0,9e-4 2.288,2.2452 2.314,2.2715 v 0.02 c 0,0 2.284,2.2414 2.311,2.2676 v 0.021 c 0,9e-4 2.282,2.2395 2.308,2.2656 v 0.02 c 0,0 2.277,2.2338 2.303,2.2598 v 0.021 c 0,9e-4 2.274,2.2318 2.301,2.2578 v 0.021 c 0,9e-4 2.272,2.2299 2.299,2.2558 v 0.02 c 0,9e-4 2.268,2.2261 2.295,2.2519 v 0.022 c 0,0 2.266,2.2242 2.293,2.25 v 0.02 c 0,0 2.261,2.2185 2.287,2.2442 v 0.022 0 c 0,0 2.261,2.2185 2.287,2.2441 v 0.018 0 c 0,0 2.255,2.2127 2.281,2.2383 v 0.021 c 0,0 2.255,2.2128 2.281,2.2383 v 0.02 c 0,9e-4 2.252,2.2089 2.278,2.2343 v 0.02 c 0,9e-4 2.245,2.2031 2.271,2.2285 v 0.023 c 0,0 2.246,2.2032 2.272,2.2285 v 0.02 c 0,0 2.241,2.1993 2.267,2.2246 v 0.022 c 0,9e-4 2.24,2.1974 2.266,2.2226 v 0.02 c 0,0 2.234,2.1918 2.26,2.2168 v 0.022 0 c 0,0 2.232,2.1898 2.257,2.2148 v 0.02 0 c 0,0 2.231,2.1879 2.256,2.2129 v 0.02 c 0,0 2.227,2.1841 2.252,2.209 v 0.022 c 0,0 2.223,2.1802 2.248,2.2051 v 0.022 c 0,0 2.221,2.1783 2.246,2.2031 v 0.021 c 0,0 2.219,2.1764 2.245,2.2011 v 0.02 c 0,0 2.215,2.1726 2.24,2.1972 v 0.022 c 0,0 2.211,2.1688 2.236,2.1934 v 0.021 c 0,0 2.208,2.1649 2.233,2.1894 v 0.022 c 0,0 2.207,2.1649 2.232,2.1895 v 0.02 c 0,0 2.202,2.1592 2.226,2.1836 v 0.023 c 0,2e-4 0.258,0.2536 0.35,0.3438 h 994.645 v -997.0606 c -0.631,-0.619 -1.258,-1.2348 -1.276,-1.2519 v -0.023 c 0,0 -2.706,-2.6564 -2.744,-2.6933 v -0.024 c 0,0 -2.708,-2.6583 -2.746,-2.6953 v -0.025 c 0,0 -2.71,-2.6602 -2.748,-2.6972 v -0.027 c 0,0 -2.72,-2.6697 -2.758,-2.707 v -0.02 c 0,0 -2.716,-2.666 -2.754,-2.7032 v -0.025 c 0,0 -2.721,-2.6716 -2.76,-2.7089 v -0.024 c 0,0 -2.725,-2.6754 -2.763,-2.7129 v -0.023 c 0,0 -2.726,-2.6754 -2.764,-2.7129 v -0.025 c 0,0 -2.731,-2.6811 -2.769,-2.7187 v -0.024 c 0,0 -2.735,-2.6849 -2.774,-2.7226 v -0.021 c 0,0 -2.733,-2.683 -2.771,-2.7207 v -0.027 c 0,0 -2.741,-2.6906 -2.78,-2.7285 v -0.021 0 c 0,0 -2.742,-2.6925 -2.781,-2.7305 v -0.021 0 c 0,0 -2.744,-2.6944 -2.783,-2.7324 v -0.024 c 0,0 -2.748,-2.6982 -2.787,-2.7363 v -0.023 c 0,0 -2.75,-2.7002 -2.789,-2.7383 v -0.025 c 0,0 -2.754,-2.7039 -2.793,-2.7422 v -0.023 c 0,0 -2.76,-2.7077 -2.799,-2.7461 v -0.024 c 0,0 -2.76,-2.7076 -2.799,-2.7461 v -0.025 c 0,0 -2.761,-2.7095 -2.801,-2.748 v -0.027 c 0,0 -2.767,-2.7152 -2.806,-2.7539 v -0.025 c 0,0 -2.768,-2.7153 -2.807,-2.754 v -0.027 c 0,0 -2.773,-2.7209 -2.812,-2.7598 v -0.023 c 0,0 -2.777,-2.7247 -2.817,-2.7637 v -0.023 c 0,0 -2.778,-2.7267 -2.818,-2.7656 v -0.025 c 0,0 -2.779,-2.7268 -2.819,-2.7656 v -0.027 c 0,0 -2.784,-2.7323 -2.824,-2.7715 v -0.025 c 0,0 -2.788,-2.7361 -2.828,-2.7754 v -0.023 0 c 0,0 -2.794,-2.7419 -2.834,-2.7813 v -0.02 c 0,0 -2.792,-2.74 -2.832,-2.7793 v -0.027 c 0,0 -2.794,-2.7418 -2.834,-2.7812 v -0.027 c 0,0 -2.797,-2.7456 -2.838,-2.7851 v -0.027 c 0,0 -2.805,-2.7532 -2.845,-2.7929 v -0.021 c 0,0 -2.802,-2.7494 -2.842,-2.7891 v -0.027 0 c 0,0 -2.811,-2.7589 -2.852,-2.7988 v -0.022 c 0,0 -2.809,-2.757 -2.849,-2.7969 v -0.027 c 0,0 -2.815,-2.7627 -2.856,-2.8027 v -0.024 c 0,0 -2.818,-2.7665 -2.859,-2.8066 v -0.024 c 0,0 -2.821,-2.7683 -2.862,-2.8086 v -0.023 0 c 0,0 -2.82,-2.7684 -2.861,-2.8086 v -0.027 c 0,0 -2.824,-2.7721 -2.865,-2.8125 v -0.025 c 0,0 -2.83,-2.7778 -2.871,-2.8183 v -0.023 0 c 0,0 -2.832,-2.7798 -2.873,-2.8203 v -0.024 c 0,0 -2.836,-2.7835 -2.877,-2.8242 v -0.023 0 c 0,0 -2.838,-2.7854 -2.879,-2.8262 v -0.023 c 0,0 -2.839,-2.7873 -2.881,-2.8281 v -0.027 c 0,0 -2.847,-2.7949 -2.889,-2.8359 v -0.021 c 0,0 -2.845,-2.793 -2.886,-2.834 v -0.025 c 0,0 -2.849,-2.7968 -2.891,-2.8378 v -0.025 0 c 0,0 -2.856,-2.8044 -2.899,-2.8457 v -0.019 c 0,0 -2.852,-2.8006 -2.894,-2.8418 v -0.027 c 0,0 -2.858,-2.8063 -2.9,-2.8476 v -0.025 c 0,0 -2.862,-2.8082 -2.905,-2.8496 v -0.027 c 0,0 -2.866,-2.8119 -2.908,-2.8535 v -0.023 0 c 0,0 -2.866,-2.8119 -2.908,-2.8535 v -0.027 c 0,0 -2.872,-2.8177 -2.914,-2.8594 v -0.025 c 0,0 -2.874,-2.8195 -2.916,-2.8613 v -0.025 0 c 0,0 -2.876,-2.8215 -2.918,-2.8632 v -0.027 c 0,0 -2.883,-2.829 -2.926,-2.8711 v -0.022 c 0,0 -2.881,-2.8271 -2.924,-2.8691 v -0.029 c 0,0 -2.886,-2.8328 -2.929,-2.875 v -0.023 0 c 0,0 -2.887,-2.8328 -2.93,-2.875 v -0.027 c 0,0 -2.893,-2.8385 -2.936,-2.8809 v -0.025 c 0,0 -2.896,-2.8423 -2.939,-2.8848 v -0.023 c 0,0 -2.894,-2.8404 -2.938,-2.8828 v -0.029 0 c 0,0 -2.9,-2.8461 -2.943,-2.8887 v -0.027 c 0,0 -2.902,-2.848 -2.945,-2.8906 v -0.027 c 0,0 -2.908,-2.8536 -2.951,-2.8965 v -0.025 c 0,0 -2.91,-2.8555 -2.954,-2.8984 v -0.025 c 0,0 -2.911,-2.8574 -2.955,-2.9004 v -0.027 0 c 0,0 -2.917,-2.8631 -2.961,-2.9063 v -0.023 0 c 0,0 -2.917,-2.8631 -2.96,-2.9062 v -0.025 c 0,0 -2.919,-2.865 -2.963,-2.9082 v -0.029 c 0,0 -2.927,-2.8726 -2.971,-2.916 v -0.024 c 0,0 -2.927,-2.8725 -2.971,-2.916 v -0.027 c 0,0 -2.932,-2.8783 -2.976,-2.9219 v -0.023 c 0,0 -2.931,-2.8764 -2.975,-2.92 v -0.029 c 0,0 -2.936,-2.882 -2.98,-2.9257 v -0.025 c 0,0 -2.94,-2.8859 -2.985,-2.9297 v -0.025 c 0,0 -2.943,-2.8896 -2.988,-2.9336 v -0.023 c 0,0 -2.945,-2.8916 -2.99,-2.9356 v -0.025 c 0,0 -2.947,-2.8934 -2.993,-2.9375 v -0.027 c 0,0 -2.951,-2.8972 -2.996,-2.9414 v -0.025 c 0,0 -2.953,-2.8991 -2.998,-2.9434 v -0.027 c 0,0 -2.956,-2.9029 -3.002,-2.9473 v -0.025 c 0,0 -2.962,-2.9066 -3.007,-2.9511 v -0.025 c 0,0 -2.961,-2.9067 -3.006,-2.9512 v -0.027 c 0,0 -2.97,-2.9142 -3.016,-2.9589 v -0.024 c 0,0 -2.966,-2.9105 -3.012,-2.955 v -0.029 c 0,0 -2.971,-2.9161 -3.017,-2.961 v -0.027 c 0,0 -2.978,-2.9218 -3.024,-2.9668 v -0.025 c 0,0 -2.973,-2.918 -3.019,-2.9629 v -0.031 c 0,0 -2.982,-2.9255 -3.027,-2.9707 v -0.027 c 0,0 -2.986,-2.9294 -3.032,-2.9746 v -0.025 c 0,0 -2.987,-2.9312 -3.033,-2.9766 v -0.027 c 0,0 -2.989,-2.9331 -3.035,-2.9785 v -0.027 c 0,0 -2.993,-2.9369 -3.039,-2.9824 v -0.027 c 0,0 -2.999,-2.9426 -3.045,-2.9883 v -0.025 c 0,0 -2.997,-2.9407 -3.043,-2.9863 v -0.029 c 0,0 -3.002,-2.9464 -3.049,-2.9922 v -0.025 c 0,0 -3.006,-2.9502 -3.053,-2.9961 v -0.027 c 0,0 -3.006,-2.9502 -3.052,-2.9961 v -0.027 c 0,0 -3.012,-2.9558 -3.059,-3.0019 v -0.027 c 0,0 -3.012,-2.9558 -3.059,-3.0019 v -0.027 0 c 0,0 -3.017,-2.9616 -3.064,-3.0078 v -0.025 c 0,0 -3.019,-2.9634 -3.066,-3.0098 v -0.027 c 0,0 -3.023,-2.9672 -3.071,-3.0137 v -0.025 c 0,0 -3.026,-2.971 -3.074,-3.0176 v -0.025 0 c -0.41,-0.4023 -420.978,-413.1856 -420.978,-413.1856 z"
         id="path1996" />
      <path
         style="fill:#5d4037;stroke-width:1"
         inkscape:connector-curvature="0"
         d="m 4014.446,2176.9585 h -576.901 l -413.186,413.1859 v 584.697 l 413.186,405.3899 h 584.697 l 413.183,-413.1859 v -576.901 z m -288.451,1114.8223 c -54.571,0 -101.347,-46.7788 -101.347,-101.3475 0,-54.5687 46.776,-101.3475 101.347,-101.3475 54.572,0 101.348,46.7788 101.348,101.3475 0,54.5687 -46.776,101.3475 -101.348,101.3475 z m 77.96,-335.2263 h -155.919 v -467.7576 h 155.919 z"
         id="path1331" />
      <path
         inkscape:connector-curvature="0"
         style="fill:#4e342e;fill-opacity:1;stroke:none;stroke-width:155.05;stroke-linecap:round;stroke-linejoin:round;stroke-miterlimit:4;stroke-dasharray:none;stroke-dashoffset:0;stroke-opacity:1;paint-order:stroke markers fill"
         d="m 3729.891,2176.9589 v 311.8379 h 74.064 v 467.7578 h -74.064 v 132.6191 c 52.883,2.1598 97.453,47.9946 97.453,101.2598 0,53.2652 -44.57,99.1 -97.453,101.2598 v 288.5371 h 292.351 l 413.184,-413.1856 v -576.9003 l -420.981,-413.1856 z"
         id="rect1402" />
    </g>
  </g>
</svg>
