<?xml version="1.0" encoding="UTF-8" standalone="no"?>
<!-- Created with Inkscape (http://www.inkscape.org/) -->

<svg
   width="149.75417mm"
   height="149.75417mm"
   viewBox="0 0 149.75416 149.75416"
   version="1.1"
   id="svg1"
   xml:space="preserve"
   sodipodi:docname="template-matricole.svg"
   inkscape:version="1.3 (0e150ed6c4, 2023-07-21)"
   inkscape:export-filename="cogn_flat.png"
   inkscape:export-xdpi="694.72809"
   inkscape:export-ydpi="694.72809"
   xmlns:inkscape="http://www.inkscape.org/namespaces/inkscape"
   xmlns:sodipodi="http://sodipodi.sourceforge.net/DTD/sodipodi-0.dtd"
   xmlns="http://www.w3.org/2000/svg"
   xmlns:svg="http://www.w3.org/2000/svg"><sodipodi:namedview
     id="namedview1"
     pagecolor="#505050"
     bordercolor="#eeeeee"
     borderopacity="1"
     inkscape:showpageshadow="0"
     inkscape:pageopacity="0"
     inkscape:pagecheckerboard="0"
     inkscape:deskcolor="#d1d1d1"
     inkscape:document-units="mm"
     inkscape:zoom="0.99293287"
     inkscape:cx="261.85053"
     inkscape:cy="201.92704"
     inkscape:window-width="1920"
     inkscape:window-height="991"
     inkscape:window-x="-9"
     inkscape:window-y="-9"
     inkscape:window-maximized="1"
     inkscape:current-layer="layer1"
     showguides="true" /><defs
     id="defs1" /><g
     inkscape:label="Livello 1"
     inkscape:groupmode="layer"
     id="layer1"
     transform="translate(-8.3561838,-12.028845)"><path
       id="rect1-3"
       style="fill:#9575cd;fill-opacity:1;stroke-width:0.295148"
       d="M 8.3561838,12.028845 H 158.11032 V 161.78301 H 8.3561838 Z" /><path
       id="path17"
       style="font-size:40px;line-height:1.25;font-family:PRIMETIME;-inkscape-font-specification:'PRIMETIME, Normal';letter-spacing:0px;word-spacing:0px;white-space:pre;fill:#000001;fill-opacity:0.309804;stroke-width:0.760341"
       d="m 107.86277,31.561503 c -1.01,0 -2.01877,0.07491 -3.02875,0.225309 -1.009,0.1503 -1.97605,0.40798 -2.89905,0.77308 -0.902,0.365098 -1.72919,0.869821 -2.480988,1.514119 -0.751591,0.644307 -1.363592,1.46062 -1.836063,2.448429 l -4.252454,-4.252453 h -6.958748 v 6.991304 l -6.991305,-6.991304 h -6.958748 v 8.984464 l -6.293673,-6.293672 c -0.0594,-0.0594 -0.120201,-0.118667 -0.181901,-0.177767 -0.493998,-0.4725 -1.030856,-0.891156 -1.610754,-1.256254 -0.5799,-0.3866 -1.181126,-0.687471 -1.804024,-0.902271 -0.6228,-0.2362 -1.234666,-0.3545 -1.836064,-0.3545 H 48.19768 v 25.000024 l 9.306925,9.306926 c -2.544001,0.638886 -4.435905,2.93821 -4.435905,5.677689 v 29.302604 c 0,1.616 0.65756,3.08087 1.718758,4.14187 l 12.950631,12.95114 H 52.058943 v 6.05183 l 6.347416,6.34742 -5.647718,10.13633 v 1.06402 l 19.533175,19.53317 H 158.11035 V 74.850333 L 117.3671,34.106567 c -1.461,-0.902098 -2.99695,-1.546617 -4.60695,-1.933215 -1.611,-0.4081 -3.24438,-0.611849 -4.89738,-0.611849 z" /><path
       style="font-size:40px;line-height:1.25;font-family:PRIMETIME;-inkscape-font-specification:'PRIMETIME, Normal';letter-spacing:0px;word-spacing:0px;white-space:pre;fill:#ffd600;fill-opacity:1;stroke-width:0.805412"
       d="m 106.96065,58.043321 q -2.51289,0 -4.99356,-0.612113 -2.448451,-0.579897 -4.70361,-1.643042 -0.0644,0 -0.32216,-0.128865 -0.25774,-0.161083 -0.25774,-0.225516 0,-0.03222 0.12887,-0.257732 0.12887,-0.225515 0.32216,-0.54768 0.1933,-0.354382 0.45104,-0.773196 0.25773,-0.451031 0.515459,-0.902062 0.54768,-0.902062 1.03093,-1.707474 0.483239,-0.805413 0.676539,-1.159794 0.418822,0.161082 0.805422,0.386598 1.73969,0.869845 3.47938,1.353093 1.7719,0.451031 3.73711,0.451031 0.54768,0 1.15979,-0.03222 0.64433,-0.06443 1.1598,-0.257732 0.51546,-0.193299 0.83763,-0.579897 0.35438,-0.418814 0.35438,-1.159794 0,-0.354381 -0.1933,-0.612113 -0.1933,-0.289948 -0.48325,-0.483247 -0.28995,-0.225516 -0.61211,-0.386598 -0.32217,-0.161083 -0.61211,-0.257732 -0.67655,-0.257732 -1.38531,-0.386598 -0.70877,-0.128866 -1.41753,-0.289949 -0.93428,-0.225515 -1.83634,-0.418814 -0.90206,-0.193299 -1.73969,-0.451031 -0.86985,-0.257732 -1.67526,-0.547681 Q 100.614,46.090999 99.937448,45.672184 98.552139,44.834555 97.71451,43.449246 96.9091,42.03172 96.9091,39.712133 q 0,-0.805413 0.16108,-1.610825 0.1933,-0.837629 0.54768,-1.578608 0.708769,-1.481959 1.836339,-2.448454 1.127581,-0.966495 2.480671,-1.514175 1.38531,-0.547681 2.89949,-0.773196 1.51417,-0.225516 3.02835,-0.225516 2.48067,0 4.8969,0.612114 2.41624,0.579897 4.60696,1.932989 -0.80541,1.353093 -1.5786,2.67397 -0.74098,1.288659 -1.51418,2.641752 -1.86856,-0.902062 -3.64046,-1.481959 -1.73969,-0.579897 -3.76933,-0.579897 -0.48325,0 -1.03093,0.06443 -0.51547,0.03222 -0.9665,0.225516 -0.45103,0.193299 -0.74098,0.579897 -0.28994,0.354381 -0.28994,0.966495 0,0.451031 0.19329,0.773196 0.22552,0.354381 0.80542,0.644329 0.61211,0.257732 1.48196,0.483248 0.86984,0.225515 1.90077,0.451031 1.03093,0.193299 2.1585,0.483247 1.09536,0.289949 2.19073,0.676547 1.12757,0.354381 2.09407,0.902061 0.99871,0.515464 1.77191,1.256444 0.77319,0.708763 1.22422,1.707474 0.35438,0.740979 0.48325,1.610825 0.12887,0.837629 0.12887,1.675257 0,2.448454 -0.99872,4.027062 -0.99871,1.578609 -2.60953,2.512887 -1.61083,0.902062 -3.64047,1.256443 -2.02964,0.386598 -4.05927,0.386598 z"
       id="path36" /><path
       style="font-size:40px;line-height:1.25;font-family:PRIMETIME;-inkscape-font-specification:'PRIMETIME, Normal';letter-spacing:0px;word-spacing:0px;white-space:pre;fill:#ffd600;fill-opacity:1;stroke-width:0.805412"
       d="m 93.36529,48.120641 q 0,1.707474 -0.57989,3.221649 -0.54768,1.514175 -1.57861,2.738402 -0.998709,1.224227 -2.38402,2.126289 -1.38531,0.869845 -2.99614,1.353093 -0.708759,0.225515 -1.449739,0.354381 -0.740981,0.128866 -1.481961,0.128866 -0.74098,0 -1.48196,-0.128866 -0.70876,-0.128866 -1.41752,-0.354381 -1.610827,-0.483248 -2.996136,-1.353093 -1.38531,-0.902062 -2.416236,-2.126289 -0.998712,-1.224227 -1.57861,-2.738402 -0.54768,-1.514175 -0.54768,-3.221649 V 32.270125 h 6.958763 v 15.431701 q 0,0.708763 0.28995,1.320877 0.289949,0.579896 0.773199,1.030927 0.48324,0.418815 1.09536,0.676547 0.64433,0.225515 1.32087,0.225515 0.70877,0 1.320881,-0.225515 0.64433,-0.257732 1.127579,-0.676547 0.48324,-0.451031 0.77319,-1.030927 0.28995,-0.612114 0.28995,-1.320877 V 32.270125 h 6.95876 z"
       id="path35" /><path
       id="text1-6"
       style="font-size:40px;line-height:1.25;font-family:PRIMETIME;-inkscape-font-specification:'PRIMETIME, Normal';letter-spacing:0px;word-spacing:0px;white-space:pre;fill:#ffd600;fill-opacity:1;stroke-width:0.805412"
       d="m 48.19768,32.269987 v 25.000024 h 6.894669 l -0.03256,-7.731828 h 4.220414 l 4.349089,7.731828 H 71.13581 L 65.272606,46.96108 c 1.030927,-0.73024 1.836494,-1.632413 2.41639,-2.706295 0.579897,-1.073882 0.869715,-2.233671 0.869715,-3.479374 0,-0.751717 -0.118246,-1.535644 -0.354501,-2.351795 -0.214775,-0.837628 -0.536796,-1.568229 -0.966349,-2.19108 C 66.894219,35.73855 66.475076,35.25552 65.98109,34.783012 65.487105,34.310503 64.950232,33.891877 64.370336,33.526758 63.79044,33.14016 63.189164,32.839264 62.566312,32.624487 c -0.622852,-0.236254 -1.235207,-0.3545 -1.836581,-0.3545 z m 6.668843,5.541264 h 3.89847 c 0.386596,0 0.751381,0.07548 1.095024,0.225826 0.343642,0.128865 0.644539,0.322077 0.90227,0.579809 0.257732,0.236254 0.461505,0.51551 0.611849,0.837675 0.150343,0.322164 0.225826,0.676387 0.225826,1.062984 0,0.386598 -0.07548,0.74082 -0.225826,1.062985 -0.150344,0.322165 -0.354117,0.612499 -0.611849,0.870231 -0.257731,0.236253 -0.558628,0.429465 -0.90227,0.579809 -0.343643,0.128866 -0.708428,0.19327 -1.095024,0.19327 h -3.89847 z" /><path
       style="font-size:40px;line-height:1.25;font-family:PRIMETIME;-inkscape-font-specification:'PRIMETIME, Normal';letter-spacing:0px;word-spacing:0px;white-space:pre;fill:#ffd600;fill-opacity:1;stroke-width:0.760341"
       d="m 95.276971,142.2505 v -1.06447 l 9.184909,-16.48419 h -9.88442 v -6.05232 h 19.61678 v 1.06449 l -9.18491,16.48418 h 9.39781 v 6.05231 z"
       id="path38" /><path
       style="font-size:40px;line-height:1.25;font-family:PRIMETIME;-inkscape-font-specification:'PRIMETIME, Normal';letter-spacing:0px;word-spacing:0px;white-space:pre;fill:#ffd600;fill-opacity:1;stroke-width:0.760341"
       d="m 74.01787,142.2505 v -1.06447 l 9.18491,-16.48419 h -9.884425 v -6.05232 H 92.93514 v 1.06449 l -9.18491,16.48418 h 9.39781 v 6.05231 z"
       id="path37" /><path
       style="font-size:40px;line-height:1.25;font-family:PRIMETIME;-inkscape-font-specification:'PRIMETIME, Normal';letter-spacing:0px;word-spacing:0px;white-space:pre;fill:#ffd600;fill-opacity:1;stroke-width:0.760341"
       d="m 52.758761,142.2505 v -1.06447 l 9.184914,-16.48419 h -9.884428 v -6.05232 h 19.616788 v 1.06449 l -9.184915,16.48418 h 9.39781 v 6.05231 z"
       id="text2-2" /><path
       style="fill:#f9f9f9;stroke-width:0.160865"
       d="m 53.123477,71.4986 c -0.03217,0.248113 -0.05478,0.499286 -0.05478,0.756026 v 29.302084 c 0,3.23161 2.629198,5.86063 5.860624,5.86063 h 48.607369 c 3.23146,0 5.86063,-2.62902 5.86063,-5.86063 V 72.254626 c 0,-0.25674 -0.0226,-0.507913 -0.0548,-0.756026 z"
       id="path16" /><path
       id="path5"
       style="fill:#f44336;fill-opacity:1;stroke-width:0.160865"
       d="m 58.929326,66.394516 c -2.974716,0 -5.433052,2.229204 -5.805847,5.104081 h 60.219061 c -0.37279,-2.874877 -2.83112,-5.104081 -5.80585,-5.104081 z" /><path
       style="fill:#798388;fill-opacity:1;stroke-width:0.160865"
       d="m 58.143411,95.069436 h 14.612028 c 0.816296,0 1.477946,0.661665 1.477946,1.477946 0,0.816083 -0.661866,1.477429 -1.477946,1.477429 H 58.143411 c -0.815895,0 -1.477429,-0.661148 -1.477429,-1.477429 0,-0.816281 0.661534,-1.477946 1.477429,-1.477946 z"
       id="path29" /><path
       style="fill:#798388;fill-opacity:1;stroke-width:0.160865"
       d="m 58.143411,89.812392 h 25.239286 c 0.816084,0 1.47743,0.661146 1.47743,1.47743 0,0.81628 -0.661138,1.477946 -1.47743,1.477946 H 58.143411 c -0.815893,0 -1.477429,-0.661666 -1.477429,-1.477946 0,-0.816284 0.661536,-1.47743 1.477429,-1.47743 z"
       id="path28" /><path
       style="fill:#798388;fill-opacity:1;stroke-width:0.160865"
       d="m 72.030419,79.355666 h 1.459859 v 4.985226 h -1.459859 z"
       id="path24" /><path
       style="fill:#798388;fill-opacity:1;stroke-width:0.160865"
       d="m 67.407962,79.355666 h 1.399914 v 3.721737 h 2.586923 v 1.263489 h -3.986837 z"
       id="path23" /><path
       id="path22"
       style="fill:#798388;fill-opacity:1;stroke-width:0.160865"
       d="m 82.212743,79.212006 c -0.36312,10e-7 -0.706103,0.07015 -1.028878,0.211356 -0.322776,0.13617 -0.604899,0.325326 -0.846977,0.567408 -0.237034,0.237032 -0.426188,0.516967 -0.567407,0.839742 -0.136162,0.317726 -0.204122,0.658521 -0.204122,1.021643 0,0.363116 0.06796,0.706102 0.204122,1.028878 0.141219,0.322769 0.330373,0.602704 0.567407,0.839742 0.242078,0.237032 0.524201,0.425676 0.846977,0.56689 0.322775,0.136169 0.665758,0.204639 1.028878,0.204639 0.36312,0 0.706103,-0.06847 1.028878,-0.204639 0.32277,-0.141214 0.602702,-0.329858 0.839742,-0.56689 0.242072,-0.237038 0.431234,-0.516973 0.567407,-0.839742 0.141213,-0.322776 0.211873,-0.665762 0.211873,-1.028878 0,-0.363122 -0.07066,-0.706104 -0.211873,-1.028878 -0.136173,-0.322776 -0.325335,-0.602704 -0.567407,-0.839742 -0.23704,-0.237038 -0.516972,-0.424003 -0.839742,-0.560173 -0.322775,-0.141215 -0.665758,-0.211356 -1.028878,-0.211356 z m 0,1.368909 c 0.171472,0 0.330721,0.03534 0.476973,0.105936 0.151304,0.06556 0.279594,0.156339 0.385507,0.272335 0.11096,0.115997 0.196838,0.252417 0.257348,0.408761 0.06051,0.151296 0.09095,0.312733 0.09095,0.484208 0,0.171473 -0.03044,0.335098 -0.09095,0.491443 -0.06052,0.151295 -0.146403,0.287721 -0.257348,0.40876 -0.105913,0.115999 -0.234203,0.20896 -0.385507,0.27957 -0.146252,0.06556 -0.305501,0.0987 -0.476973,0.0987 -0.171472,0 -0.332905,-0.03313 -0.484208,-0.0987 -0.146258,-0.07061 -0.274562,-0.163572 -0.385506,-0.27957 -0.105914,-0.12104 -0.191779,-0.257465 -0.257349,-0.40876 -0.06051,-0.156345 -0.09095,-0.31997 -0.09095,-0.491443 0,-0.171475 0.03044,-0.332912 0.09095,-0.484208 0.06557,-0.156344 0.151436,-0.292764 0.257349,-0.408761 0.110944,-0.115995 0.239248,-0.206765 0.385506,-0.272335 0.151303,-0.07061 0.312736,-0.105936 0.484208,-0.105936 z" /><path
       id="path21"
       style="fill:#798388;fill-opacity:1;stroke-width:0.160865"
       d="m 64.299108,79.212006 c -0.363121,10e-7 -0.706103,0.07015 -1.028878,0.211356 -0.322774,0.13617 -0.605413,0.325326 -0.847494,0.567408 -0.237032,0.237032 -0.426192,0.516967 -0.567407,0.839742 -0.136172,0.317726 -0.204122,0.658521 -0.204122,1.021643 0,0.363116 0.06795,0.706102 0.204122,1.028878 0.141215,0.322769 0.330375,0.602704 0.567407,0.839742 0.242081,0.237032 0.52472,0.425676 0.847494,0.56689 0.322775,0.136169 0.665757,0.204639 1.028878,0.204639 0.363117,0 0.706107,-0.06847 1.028877,-0.204639 0.322775,-0.141214 0.602188,-0.329858 0.839226,-0.56689 0.242075,-0.237038 0.431236,-0.516973 0.567407,-0.839742 0.141213,-0.322776 0.211873,-0.665762 0.211873,-1.028878 0,-0.363122 -0.07066,-0.706104 -0.211873,-1.028878 -0.136171,-0.322776 -0.325332,-0.602704 -0.567407,-0.839742 -0.237038,-0.237038 -0.516451,-0.424003 -0.839226,-0.560173 -0.32277,-0.141215 -0.66576,-0.211356 -1.028877,-0.211356 z m 0,1.368909 c 0.171469,0 0.330199,0.03534 0.476456,0.105936 0.151302,0.06556 0.279597,0.156339 0.385507,0.272335 0.110949,0.115997 0.196828,0.252417 0.257348,0.408761 0.06052,0.151296 0.09095,0.312733 0.09095,0.484208 0,0.171473 -0.03043,0.335098 -0.09095,0.491443 -0.06052,0.151295 -0.146399,0.287721 -0.257348,0.40876 -0.10591,0.115999 -0.234205,0.20896 -0.385507,0.27957 -0.146257,0.06556 -0.304987,0.0987 -0.476456,0.0987 -0.171474,0 -0.332907,-0.03313 -0.484209,-0.0987 -0.146252,-0.07061 -0.275074,-0.163572 -0.386022,-0.27957 -0.105914,-0.12104 -0.191789,-0.257465 -0.257349,-0.40876 -0.06052,-0.156345 -0.09043,-0.31997 -0.09043,-0.491443 0,-0.171475 0.02991,-0.332912 0.09043,-0.484208 0.06556,-0.156344 0.151438,-0.292764 0.257349,-0.408761 0.110948,-0.115995 0.23977,-0.206765 0.386022,-0.272335 0.151302,-0.07061 0.312735,-0.105936 0.484209,-0.105936 z" /><path
       style="fill:#798388;fill-opacity:1;stroke-width:0.160865"
       d="m 74.178608,78.470449 h 5.031217 v 1.346688 l -0.105936,0.105937 h -1.611788 v 4.417818 h -1.595768 v -4.417818 h -1.611788 l -0.105937,-0.105937 z"
       id="path20" /><path
       id="path19"
       style="fill:#798388;fill-opacity:1;stroke-width:0.160865"
       d="m 56.665982,78.470449 v 5.870443 h 1.573547 v -1.823145 h 1.066602 c 0.282423,0 0.552042,-0.05325 0.809253,-0.159163 0.262249,-0.110954 0.491639,-0.259363 0.68833,-0.445968 0.201734,-0.191648 0.360975,-0.413942 0.476973,-0.666109 0.121045,-0.252168 0.181385,-0.524494 0.181385,-0.817004 0,-0.287472 -0.06034,-0.552187 -0.181385,-0.794267 -0.115998,-0.242081 -0.275239,-0.448649 -0.476973,-0.620117 -0.196691,-0.171474 -0.426081,-0.30519 -0.68833,-0.40101 -0.257211,-0.09582 -0.52683,-0.14366 -0.809253,-0.14366 z m 1.611271,1.301213 h 0.91519 c 0.09078,0 0.176648,0.0174 0.257348,0.05271 0.08069,0.03026 0.151354,0.07591 0.211874,0.136425 0.06052,0.05548 0.10836,0.120721 0.14366,0.196371 0.03531,0.07565 0.05271,0.159334 0.05271,0.250114 0,0.09078 -0.0174,0.173947 -0.05271,0.249597 -0.0353,0.07565 -0.08314,0.143602 -0.14366,0.204122 -0.06052,0.05547 -0.131184,0.100599 -0.211874,0.135909 -0.08069,0.03026 -0.166568,0.04547 -0.257348,0.04547 h -0.91519 z" /><path
       style="fill:#798388;fill-opacity:1;stroke-width:0.160865"
       d="m 113.34254,71.4986 c -0.13836,-1.06702 -0.56306,-2.043127 -1.19683,-2.850989 0.63213,0.807898 1.05855,1.784581 1.19683,2.850989 z"
       id="path18" /><path
       style="fill:#798388;fill-opacity:1;stroke-width:0.160865"
       d="m 54.320303,68.647611 c -0.633768,0.807862 -1.05846,1.783969 -1.196826,2.850989 0.138285,-1.066408 0.564704,-2.043092 1.196826,-2.850989 z"
       id="path15" /><path
       style="fill:#798388;fill-opacity:1;stroke-width:0.160865"
       d="m 54.614859,68.302413 c -0.09289,0.101299 -0.184072,0.203971 -0.269751,0.311609 0.08549,-0.107682 0.17706,-0.21026 0.269751,-0.311609 z"
       id="path14" /><path
       style="fill:#798388;fill-opacity:1;stroke-width:0.160865"
       d="m 54.963158,67.95308 c -0.0878,0.081 -0.17411,0.162925 -0.256832,0.24908 0.08254,-0.08618 0.169223,-0.168049 0.256832,-0.24908 z"
       id="path13" /><path
       style="fill:#798388;fill-opacity:1;stroke-width:0.160865"
       d="m 55.357966,67.618734 c -0.0864,0.0667 -0.171242,0.134877 -0.253731,0.206188 0.08229,-0.07132 0.167533,-0.139475 0.253731,-0.206188 z"
       id="path12" /><path
       style="fill:#798388;fill-opacity:1;stroke-width:0.160865"
       d="m 55.787397,67.31591 c -0.08602,0.05491 -0.170314,0.111849 -0.253214,0.171049 0.08278,-0.05925 0.167311,-0.116083 0.253214,-0.171049 z"
       id="path11" /><path
       style="fill:#798388;fill-opacity:1;stroke-width:0.160865"
       d="m 56.246801,67.05081 c -0.08323,0.04307 -0.164611,0.08851 -0.245463,0.135392 0.08072,-0.04691 0.162362,-0.09229 0.245463,-0.135392 z"
       id="path10" /><path
       style="fill:#798388;fill-opacity:1;stroke-width:0.160865"
       d="m 56.741344,66.8224 c -0.08477,0.03426 -0.167357,0.07201 -0.250114,0.11007 0.08271,-0.03811 0.165389,-0.07576 0.250114,-0.11007 z"
       id="path9" /><path
       style="fill:#798388;fill-opacity:1;stroke-width:0.160865"
       d="m 57.254491,66.641533 c -0.08121,0.02427 -0.160082,0.05295 -0.239779,0.08062 0.07958,-0.02767 0.158683,-0.05634 0.239779,-0.08062 z"
       id="path8" /><path
       style="fill:#798388;fill-opacity:1;stroke-width:0.160865"
       d="m 57.792443,66.507174 c -0.07427,0.01466 -0.146386,0.03475 -0.219625,0.05219 0.07317,-0.01746 0.145426,-0.03752 0.219625,-0.05219 z"
       id="path7" /><path
       style="fill:#798388;fill-opacity:1;stroke-width:0.160865"
       d="m 58.352615,66.423974 c -0.06072,0.006 -0.119662,0.01752 -0.179834,0.02532 0.06016,-0.0078 0.119116,-0.01936 0.179834,-0.02532 z"
       id="path6" /><path
       id="path1"
       style="fill:#5c6bc0;stroke-width:1.09875"
       d="m 98.82353,78.470268 c -3.640942,0 -6.592362,2.951936 -6.592362,6.592879 0,3.640931 2.95142,6.592362 6.592362,6.592362 3.64094,0 6.59236,-2.951431 6.59236,-6.592362 0,-3.640943 -2.95142,-6.592879 -6.59236,-6.592879 z m 0,15.382523 c -3.050901,0 -5.432253,0.243202 -7.217647,0.991671 -1.911551,0.80132 -3.08266,2.159845 -3.707268,4.134631 -0.230858,0.7299 0.31595,1.466577 1.073837,1.466577 h 19.694918 c 0.76099,0 1.31172,-0.739846 1.07901,-1.473811 -0.62651,-1.974897 -1.80188,-3.332816 -3.71657,-4.132048 -1.78382,-0.744623 -4.16163,-0.98702 -7.20628,-0.98702 z"
       inkscape:export-filename=".\eng1.png"
       inkscape:export-xdpi="694.72809"
       inkscape:export-ydpi="694.72809" /></g></svg>
