<?xml version="1.0" encoding="UTF-8" standalone="no"?>
<!-- Created with Inkscape (http://www.inkscape.org/) -->

<svg
   sodipodi:docname="calcolonumericometodisoftware.svg"
   inkscape:version="1.3.2 (091e20e, 2023-11-25, custom)"
   xml:space="preserve"
   id="svg1"
   version="1.1"
   viewBox="0 0 67.73333 67.73333"
   height="67.73333mm"
   width="67.73333mm"
   inkscape:export-filename="..\..\..\ICONE\PNG\calcolonumericometodisoftware.png"
   inkscape:export-xdpi="1536.0001"
   inkscape:export-ydpi="1536.0001"
   xmlns:inkscape="http://www.inkscape.org/namespaces/inkscape"
   xmlns:sodipodi="http://sodipodi.sourceforge.net/DTD/sodipodi-0.dtd"
   xmlns="http://www.w3.org/2000/svg"
   xmlns:svg="http://www.w3.org/2000/svg"><sodipodi:namedview
     id="namedview1"
     pagecolor="#ffffff"
     bordercolor="#000000"
     borderopacity="0.25"
     inkscape:showpageshadow="2"
     inkscape:pageopacity="0.0"
     inkscape:pagecheckerboard="0"
     inkscape:deskcolor="#d1d1d1"
     inkscape:document-units="mm"
     inkscape:zoom="1.8541681"
     inkscape:cx="172.04481"
     inkscape:cy="171.23582"
     inkscape:window-width="1920"
     inkscape:window-height="991"
     inkscape:window-x="-9"
     inkscape:window-y="-9"
     inkscape:window-maximized="1"
     inkscape:current-layer="g2026"
     inkscape:pageshadow="0"
     showgrid="false"
     fit-margin-top="0"
     fit-margin-left="0"
     fit-margin-right="0"
     fit-margin-bottom="0" /><defs
     id="defs1"><linearGradient
       id="a"
       x1="16.802999"
       y1="16.631001"
       x2="15.013"
       y2="22.410999"
       gradientTransform="matrix(0.94494048,0,0,-0.94494048,72.031394,80.169878)"
       gradientUnits="userSpaceOnUse"><stop
         offset="0"
         stop-color="#512"
         id="stop1" /><stop
         offset="0.23"
         stop-color="#523"
         id="stop2" /><stop
         offset="0.36"
         stop-color="#534"
         id="stop3" /><stop
         offset="0.51"
         stop-color="#645"
         id="stop4" /><stop
         offset="0.66"
         stop-color="#568"
         id="stop5" /><stop
         offset="0.84"
         stop-color="#29d"
         id="stop6" /></linearGradient><linearGradient
       id="b"
       x1="29.709999"
       y1="18.983"
       x2="11.71"
       y2="14.563"
       gradientUnits="userSpaceOnUse"
       gradientTransform="matrix(0.94494048,0,0,0.94494048,72.031394,49.931783)"><stop
         offset="0.081"
         stop-color="#c33"
         id="stop7" /><stop
         offset="0.189"
         stop-color="#de5239"
         id="stop8" /><stop
         offset="0.313"
         stop-color="#f06e3e"
         id="stop9" /><stop
         offset="0.421"
         stop-color="#fa8042"
         id="stop10" /><stop
         offset="0.5"
         stop-color="#fe8643"
         id="stop11" /><stop
         offset="0.58"
         stop-color="#fa7f42"
         id="stop12" /><stop
         offset="0.696"
         stop-color="#ef6c3e"
         id="stop13" /><stop
         offset="0.833"
         stop-color="#dc4c37"
         id="stop14" /><stop
         offset="0.916"
         stop-color="#cf3633"
         id="stop15" /></linearGradient></defs><g
     inkscape:label="Livello 1"
     inkscape:groupmode="layer"
     id="layer1"
     transform="translate(-43.021605,-40.379927)"><g
       id="g2026"><path
         id="rect1"
         style="fill:#ff8080;stroke-width:0.347621"
         d="M 43.021605,40.379927 H 110.75493 V 108.11325 H 43.021605 Z" /><path
         id="path1657"
         style="fill:#000000;fill-opacity:0.12156863;stroke-width:4.45648"
         d="M 60.351562,60.351562 V 194.04492 c 0,0.44334 0.178484,0.8445 0.46875,1.13477 L 121.64062,256 H 256 V 144.63867 l -71.21094,-71.210936 -0.002,0.002 -2.27149,-2.271485 -25.76367,25.765625 c -6.288,-4.522961 -31.69514,-21.799571 -41.08007,-12.396484 -5.80167,5.80544 -1.02358,18.90103 5.93359,33.8711 L 63.558594,60.351562 Z"
         transform="matrix(0.26458333,0,0,0.26458333,43.021605,40.379927)" /><path
         id="math--curve_1_"
         style="fill:#000000;stroke-width:1.17911"
         d="M 94.787078,92.145404 H 59.413927 c -0.234631,0 -0.424469,-0.189836 -0.424469,-0.424477 V 56.347775 h 0.848952 v 34.948673 h 34.948668 z m -3.47467,-32.938299 -6.816698,6.817438 c -1.663721,-1.196788 -8.38596,-5.768029 -10.869142,-3.280122 -1.846472,1.847654 0.343568,6.47477 2.734783,11.415211 l -7.219807,7.219807 c -5.963898,-3.415861 -8.513436,0.25807 -8.538192,0.296987 l 0.705247,0.471642 c 0.08613,-0.126164 2.118722,-2.979888 7.212435,-0.148863 l -6.685517,6.685526 0.600602,0.601344 6.817443,-6.817438 c 1.661354,1.196789 8.381225,5.759777 10.869141,3.280122 1.847642,-1.847652 -0.344751,-6.474034 -2.734797,-11.414472 l 7.219807,-7.219808 c 2.002113,1.13665 3.833565,1.473733 5.448943,1.004449 2.144791,-0.624924 3.07761,-2.448858 3.116527,-2.525495 l -0.759794,-0.380998 c -0.0086,0.01533 -0.819475,1.580295 -2.605824,2.094385 -1.339462,0.386745 -2.885416,0.103461 -4.5786,-0.815056 l 6.684773,-6.684052 z M 75.6502,62.854225 c 2.359386,0 6.252649,2.370001 8.238262,3.779031 l -6.891869,6.890396 c -2.03042,-4.202326 -4.163118,-8.783746 -2.769422,-10.178625 0.344295,-0.344299 0.835846,-0.490802 1.423029,-0.490802 z m 1.102464,12.115303 c 2.031604,4.202325 4.164302,8.783011 2.769423,10.177889 -1.730918,1.73092 -7.180163,-1.528271 -9.659809,-3.287493 z" /></g></g></svg>
