<?xml version="1.0" encoding="UTF-8" standalone="no"?>
<!-- Created with Inkscape (http://www.inkscape.org/) -->

<svg
   width="67.73333mm"
   height="67.73333mm"
   viewBox="0 0 67.73333 67.73333"
   version="1.1"
   id="svg1"
   xml:space="preserve"
   inkscape:version="1.3 (0e150ed6c4, 2023-07-21)"
   sodipodi:docname="calcolonumericometodiesoftware.svg"
   xmlns:inkscape="http://www.inkscape.org/namespaces/inkscape"
   xmlns:sodipodi="http://sodipodi.sourceforge.net/DTD/sodipodi-0.dtd"
   xmlns="http://www.w3.org/2000/svg"
   xmlns:svg="http://www.w3.org/2000/svg"><sodipodi:namedview
     id="namedview1"
     pagecolor="#ffffff"
     bordercolor="#000000"
     borderopacity="0.25"
     inkscape:showpageshadow="2"
     inkscape:pageopacity="0.0"
     inkscape:pagecheckerboard="0"
     inkscape:deskcolor="#d1d1d1"
     inkscape:document-units="mm"
     inkscape:zoom="1.8541681"
     inkscape:cx="191.19086"
     inkscape:cy="140.49427"
     inkscape:window-width="1920"
     inkscape:window-height="1001"
     inkscape:window-x="-9"
     inkscape:window-y="-9"
     inkscape:window-maximized="1"
     inkscape:current-layer="layer1" /><defs
     id="defs1"><linearGradient
       id="a"
       x1="16.803"
       y1="16.631"
       x2="15.013"
       y2="22.411"
       gradientTransform="matrix(0.94494048,0,0,-0.94494048,72.031394,80.169878)"
       gradientUnits="userSpaceOnUse"><stop
         offset="0"
         stop-color="#512"
         id="stop1" /><stop
         offset="0.23"
         stop-color="#523"
         id="stop2" /><stop
         offset="0.36"
         stop-color="#534"
         id="stop3" /><stop
         offset="0.51"
         stop-color="#645"
         id="stop4" /><stop
         offset="0.66"
         stop-color="#568"
         id="stop5" /><stop
         offset="0.84"
         stop-color="#29d"
         id="stop6" /></linearGradient><linearGradient
       id="b"
       x1="29.71"
       y1="18.983"
       x2="11.71"
       y2="14.563"
       gradientUnits="userSpaceOnUse"
       gradientTransform="matrix(0.94494048,0,0,0.94494048,72.031394,49.931783)"><stop
         offset="0.081"
         stop-color="#c33"
         id="stop7" /><stop
         offset="0.189"
         stop-color="#de5239"
         id="stop8" /><stop
         offset="0.313"
         stop-color="#f06e3e"
         id="stop9" /><stop
         offset="0.421"
         stop-color="#fa8042"
         id="stop10" /><stop
         offset="0.5"
         stop-color="#fe8643"
         id="stop11" /><stop
         offset="0.58"
         stop-color="#fa7f42"
         id="stop12" /><stop
         offset="0.696"
         stop-color="#ef6c3e"
         id="stop13" /><stop
         offset="0.833"
         stop-color="#dc4c37"
         id="stop14" /><stop
         offset="0.916"
         stop-color="#cf3633"
         id="stop15" /></linearGradient></defs><g
     inkscape:label="Livello 1"
     inkscape:groupmode="layer"
     id="layer1"
     transform="translate(-43.021603,-40.379925)"><path
       id="rect1"
       style="fill:#ff8080;stroke-width:0.347621"
       d="M 43.021605,40.379927 H 110.75493 V 108.11325 H 43.021605 Z" /><path
       id="path140"
       style="fill:#000001;stroke-width:0.944941;fill-opacity:0.24705882"
       d="M 91.676514 53.049953 C 91.671614 53.049953 91.666915 53.05192 91.662045 53.05202 C 91.623975 53.05362 91.586035 53.059716 91.548357 53.068556 C 91.200002 53.140046 90.878797 53.508166 90.50811 54.064878 C 90.49214 54.088938 90.475208 54.115535 90.459018 54.140325 C 90.021718 54.808425 89.504399 55.726892 88.775399 56.77479 C 88.685109 56.904394 88.593841 57.034568 88.496863 57.167531 C 88.466673 57.208931 88.43731 57.249871 88.40643 57.291554 C 88.36441 57.348294 88.32158 57.40536 88.278272 57.462603 C 88.176292 57.59724 88.072653 57.732288 87.963046 57.869297 C 87.828983 58.035842 87.698868 58.191308 87.572372 58.336452 C 86.324449 59.767523 85.437142 60.198515 84.809233 60.413844 C 84.599938 60.485625 84.41941 60.533543 84.264047 60.586444 C 84.176397 60.616124 84.095637 60.647056 84.022718 60.685146 A 18.590759 18.590759 0 0 0 82.761296 61.926413 A 19.560268 19.560268 0 0 0 82.58818 62.114516 A 18.590759 18.590759 0 0 0 81.452332 63.472572 L 73.929794 66.511663 L 73.921526 66.505979 L 73.921526 66.515281 L 75.588091 68.181846 L 52.273235 68.181846 L 52.273235 94.640179 L 65.746314 108.11326 L 110.75494 108.11326 L 110.75494 71.633831 L 92.664051 53.542946 C 92.663228 53.542123 92.66229 53.5417 92.661467 53.540879 C 92.581833 53.461443 92.50158 53.390969 92.420655 53.330556 C 92.26453 53.214003 92.105768 53.126908 91.942648 53.085093 C 91.907528 53.075793 91.872068 53.068899 91.836711 53.063389 C 91.831211 53.062524 91.825725 53.060571 91.820175 53.059771 C 91.819496 53.059679 91.818808 53.059862 91.818108 53.059771 C 91.774278 53.053771 91.730568 53.049953 91.686333 53.049953 C 91.684933 53.049953 91.683599 53.05046 91.682199 53.050469 C 91.680299 53.050469 91.678414 53.049953 91.676514 53.049953 z " /><path
       d="m 73.921275,66.515488 7.531176,-3.042708 a 19.560268,19.560268 0 0 1 2.570238,-2.787574 c 0.62366,-0.33073 1.795387,-0.151191 3.940401,-2.815923 2.07887,-2.598586 2.740328,-4.819196 3.713617,-4.819196 1.540253,0 2.674181,3.32619 4.393973,8.362723 a 109.26252,109.26252 0 0 0 4.30893,11.310937 c -1.795389,-1.672544 -3.326192,-3.477381 -5.074332,-3.430134 -1.625298,0.0378 -3.430134,1.965477 -5.40506,4.441221 -1.568601,1.984375 -3.64747,3.345089 -4.460119,3.316741 0,0 -2.097767,-5.934226 -3.855357,-6.898066 a 2.4955878,2.4955878 0 0 0 -2.258407,0.188988 l -5.40506,-3.836458 z"
       style="fill:#4499dd;stroke-width:0.944941"
       id="path15" /><path
       d="m 90.741216,53.730444 c -0.633111,0.850446 -1.398512,2.409598 -2.778126,4.138839 -2.145014,2.664732 -3.307291,2.485193 -3.940401,2.815923 a 18.590759,18.590759 0 0 0 -2.570238,2.787574 l 3.118303,2.277307 c 2.645834,-3.609673 4.063244,-7.521727 5.168825,-10.054167 a 12.831347,12.831347 0 0 1 1.001637,-1.965476 z"
       style="fill:url(#a);stroke-width:0.944941"
       id="path16" /><path
       d="m 91.686156,53.050087 c -2.05997,0 -3.467932,10.847916 -11.074702,16.904985 2.135565,-0.349628 3.987648,4.951488 4.838095,7.096503 3.779762,-0.64256 6.803571,-7.871354 9.855729,-7.757962 1.74814,0.06615 3.278943,1.75759 5.074332,3.430134 -4.101043,-8.617857 -6.019272,-19.67366 -8.693454,-19.67366 z"
       style="fill:url(#b);stroke-width:0.944941"
       id="path17" /><path
       id="path2"
       style="fill:#000000;stroke-width:0.826823"
       d="m 76.039417,70.451455 -4.780068,4.780587 c -1.16665,-0.839223 -5.88048,-4.044711 -7.62176,-2.300118 -1.2948,1.295629 0.24092,4.540298 1.91771,8.00468 l -5.06274,5.06274 c -4.18206,-2.395302 -5.96987,0.180966 -5.98723,0.208256 l 0.49454,0.330729 c 0.0604,-0.08847 1.48571,-2.089585 5.05757,-0.104387 l -4.68808,4.688086 0.42116,0.42168 4.78059,-4.780587 c 1.16499,0.839224 5.87716,4.038924 7.62176,2.300118 1.29562,-1.295628 -0.24175,-4.539782 -1.91772,-8.004162 l 5.06274,-5.06274 c 1.40394,0.797052 2.688208,1.033424 3.820958,0.704349 1.50399,-0.438215 2.15811,-1.717211 2.1854,-1.770951 l -0.53279,-0.267167 c -0.006,0.01075 -0.57464,1.108149 -1.82728,1.468644 -0.93927,0.271197 -2.023338,0.07255 -3.210648,-0.571541 l 4.687558,-4.687053 z m -10.982798,2.557467 c 1.65447,0 4.38454,1.661914 5.77691,2.649967 l -4.83278,4.831747 c -1.42379,-2.946794 -2.9193,-6.159419 -1.942,-7.137549 0.24143,-0.241433 0.58612,-0.344165 0.99787,-0.344165 z m 0.77308,8.495605 c 1.42462,2.946793 2.92013,6.158904 1.942,7.137033 -1.21377,1.213772 -5.03494,-1.071668 -6.77374,-2.305286 z" /><path
       style="fill:#000000;stroke-width:0.826823"
       d="M 77.904597,94.111128 H 53.099909 c -0.16453,0 -0.29765,-0.133119 -0.29765,-0.297656 V 69.008784 h 0.59531 v 24.507031 h 24.507028 z"
       id="math--curve_1_" /><path
       style="fill:none;stroke-width:0.826823"
       d="M 52.273089,68.18196 H 78.731417 V 94.640294 H 52.273089 Z"
       id="_Transparent_Rectangle" /><path
       id="path10"
       style="fill:#000000;stroke-width:0.944941;fill-opacity:0"
       d="M 56.125713 50.202064 L 56.125713 76.660398 L 197.54705 218.08226 L 206.65141 218.08226 L 214.05819 225.48904 L 214.06594 225.48491 L 217.41148 227.85944 L 225.57687 236.02483 C 225.57957 236.02483 225.58331 236.02396 225.58617 236.0238 L 225.5872 236.02483 C 225.5882 236.02483 225.58879 236.0238 225.58979 236.0238 C 225.81979 236.0278 226.15102 235.91604 226.53702 235.72304 C 227.21802 235.41204 227.87516 234.90986 228.51416 234.31486 C 228.92416 233.94786 229.3308 233.53376 229.7208 233.07876 C 230.9078 231.76376 232.03892 230.30497 233.14592 229.33997 C 233.17092 229.31897 233.19481 229.30002 233.21981 229.28002 C 233.99381 228.65802 234.7349 228.28316 235.4419 228.26716 C 237.1909 228.33316 238.72104 230.02393 240.51704 231.69693 C 239.56404 229.54793 238.68011 227.36896 237.86811 225.16296 C 236.22311 220.55197 234.9611 216.1652 233.6911 213.8112 C 233.6561 213.7442 233.6212 213.6861 233.5862 213.6231 C 233.5562 213.5691 233.52521 213.51077 233.49421 213.45877 C 233.26521 213.06677 233.0352 212.75015 232.8002 212.51515 L 224.00487 203.71983 L 224.00487 191.62289 L 82.584046 50.202064 L 56.125713 50.202064 z " /></g></svg>
