<?xml version="1.0" encoding="UTF-8" standalone="no"?>
<!-- Created with Inkscape (http://www.inkscape.org/) -->

<svg
   width="67.73333mm"
   height="67.73333mm"
   viewBox="0 0 67.73333 67.73333"
   version="1.1"
   id="svg1"
   xml:space="preserve"
   inkscape:version="1.3 (0e150ed6c4, 2023-07-21)"
   sodipodi:docname="cnmessemplice.svg"
   xmlns:inkscape="http://www.inkscape.org/namespaces/inkscape"
   xmlns:sodipodi="http://sodipodi.sourceforge.net/DTD/sodipodi-0.dtd"
   xmlns="http://www.w3.org/2000/svg"
   xmlns:svg="http://www.w3.org/2000/svg"><sodipodi:namedview
     id="namedview1"
     pagecolor="#ffffff"
     bordercolor="#000000"
     borderopacity="0.25"
     inkscape:showpageshadow="2"
     inkscape:pageopacity="0.0"
     inkscape:pagecheckerboard="0"
     inkscape:deskcolor="#d1d1d1"
     inkscape:document-units="mm"
     inkscape:zoom="1.8541681"
     inkscape:cx="191.19086"
     inkscape:cy="140.49427"
     inkscape:window-width="1920"
     inkscape:window-height="1001"
     inkscape:window-x="-9"
     inkscape:window-y="-9"
     inkscape:window-maximized="1"
     inkscape:current-layer="layer1" /><defs
     id="defs1"><linearGradient
       id="a"
       x1="16.803"
       y1="16.631"
       x2="15.013"
       y2="22.411"
       gradientTransform="matrix(0.94494048,0,0,-0.94494048,72.031394,80.169878)"
       gradientUnits="userSpaceOnUse"><stop
         offset="0"
         stop-color="#512"
         id="stop1" /><stop
         offset="0.23"
         stop-color="#523"
         id="stop2" /><stop
         offset="0.36"
         stop-color="#534"
         id="stop3" /><stop
         offset="0.51"
         stop-color="#645"
         id="stop4" /><stop
         offset="0.66"
         stop-color="#568"
         id="stop5" /><stop
         offset="0.84"
         stop-color="#29d"
         id="stop6" /></linearGradient><linearGradient
       id="b"
       x1="29.71"
       y1="18.983"
       x2="11.71"
       y2="14.563"
       gradientUnits="userSpaceOnUse"
       gradientTransform="matrix(0.94494048,0,0,0.94494048,72.031394,49.931783)"><stop
         offset="0.081"
         stop-color="#c33"
         id="stop7" /><stop
         offset="0.189"
         stop-color="#de5239"
         id="stop8" /><stop
         offset="0.313"
         stop-color="#f06e3e"
         id="stop9" /><stop
         offset="0.421"
         stop-color="#fa8042"
         id="stop10" /><stop
         offset="0.5"
         stop-color="#fe8643"
         id="stop11" /><stop
         offset="0.58"
         stop-color="#fa7f42"
         id="stop12" /><stop
         offset="0.696"
         stop-color="#ef6c3e"
         id="stop13" /><stop
         offset="0.833"
         stop-color="#dc4c37"
         id="stop14" /><stop
         offset="0.916"
         stop-color="#cf3633"
         id="stop15" /></linearGradient></defs><g
     inkscape:label="Livello 1"
     inkscape:groupmode="layer"
     id="layer1"
     transform="translate(-43.021603,-40.379925)"><path
       id="rect1"
       style="fill:#ff8080;stroke-width:0.347621"
       d="M 43.021605,40.379927 H 110.75493 V 108.11325 H 43.021605 Z" /><path
       id="path12"
       style="fill:#000001;stroke-width:1.17911;fill-opacity:0.24705882"
       d="M 58.022755 55.381077 L 58.022755 93.112107 L 73.023906 108.11326 L 110.75494 108.11326 L 110.75494 70.382228 L 95.753785 55.381077 L 58.022755 55.381077 z " /><path
       id="path2"
       style="fill:#000000;stroke-width:1.17911"
       d="m 91.312408,59.207105 -6.816698,6.817438 c -1.663721,-1.196788 -8.38596,-5.768029 -10.869142,-3.280122 -1.846472,1.847654 0.343568,6.47477 2.734783,11.415211 l -7.219807,7.219807 c -5.963898,-3.415861 -8.513436,0.25807 -8.538192,0.296987 l 0.705247,0.471642 c 0.08613,-0.126164 2.118722,-2.979888 7.212435,-0.148863 l -6.685517,6.685526 0.600602,0.601344 6.817443,-6.817438 c 1.661354,1.196789 8.381225,5.759777 10.869141,3.280122 1.847642,-1.847652 -0.344751,-6.474034 -2.734797,-11.414472 l 7.219807,-7.219808 c 2.002113,1.13665 3.833565,1.473733 5.448943,1.004449 2.144791,-0.624924 3.07761,-2.448858 3.116527,-2.525495 l -0.759794,-0.380998 c -0.0086,0.01533 -0.819475,1.580295 -2.605824,2.094385 -1.339462,0.386745 -2.885416,0.103461 -4.5786,-0.815056 l 6.684773,-6.684052 z M 75.6502,62.854225 c 2.359386,0 6.252649,2.370001 8.238262,3.779031 l -6.891869,6.890396 c -2.03042,-4.202326 -4.163118,-8.783746 -2.769422,-10.178625 0.344295,-0.344299 0.835846,-0.490802 1.423029,-0.490802 z m 1.102464,12.115303 c 2.031604,4.202325 4.164302,8.783011 2.769423,10.177889 -1.730918,1.73092 -7.180163,-1.528271 -9.659809,-3.287493 z" /><path
       style="fill:#000000;stroke-width:1.17911"
       d="M 94.787078,92.145404 H 59.413927 c -0.234631,0 -0.424469,-0.189836 -0.424469,-0.424477 V 56.347775 h 0.848952 v 34.948673 h 34.948668 z"
       id="math--curve_1_" /><path
       style="fill:none;stroke-width:1.17911"
       d="M 58.02259,55.380909 H 95.753946 V 93.112271 H 58.02259 Z"
       id="_Transparent_Rectangle" /><path
       id="path10"
       style="fill:#000000;stroke-width:0.944941;fill-opacity:0"
       d="M 56.125713 50.202064 L 56.125713 76.660398 L 197.54705 218.08226 L 206.65141 218.08226 L 214.05819 225.48904 L 214.06594 225.48491 L 217.41148 227.85944 L 225.57687 236.02483 C 225.57957 236.02483 225.58331 236.02396 225.58617 236.0238 L 225.5872 236.02483 C 225.5882 236.02483 225.58879 236.0238 225.58979 236.0238 C 225.81979 236.0278 226.15102 235.91604 226.53702 235.72304 C 227.21802 235.41204 227.87516 234.90986 228.51416 234.31486 C 228.92416 233.94786 229.3308 233.53376 229.7208 233.07876 C 230.9078 231.76376 232.03892 230.30497 233.14592 229.33997 C 233.17092 229.31897 233.19481 229.30002 233.21981 229.28002 C 233.99381 228.65802 234.7349 228.28316 235.4419 228.26716 C 237.1909 228.33316 238.72104 230.02393 240.51704 231.69693 C 239.56404 229.54793 238.68011 227.36896 237.86811 225.16296 C 236.22311 220.55197 234.9611 216.1652 233.6911 213.8112 C 233.6561 213.7442 233.6212 213.6861 233.5862 213.6231 C 233.5562 213.5691 233.52521 213.51077 233.49421 213.45877 C 233.26521 213.06677 233.0352 212.75015 232.8002 212.51515 L 224.00487 203.71983 L 224.00487 191.62289 L 82.584046 50.202064 L 56.125713 50.202064 z " /></g></svg>
