<?xml version="1.0" encoding="UTF-8" standalone="no"?>
<!-- Created with Inkscape (http://www.inkscape.org/) -->

<svg
   width="67.73333mm"
   height="67.73333mm"
   viewBox="0 0 67.73333 67.73333"
   version="1.1"
   id="svg1"
   xml:space="preserve"
   inkscape:version="1.3 (0e150ed6c4, 2023-07-21)"
   sodipodi:docname="energiasostenibilitàprogresso.svg"
   xmlns:inkscape="http://www.inkscape.org/namespaces/inkscape"
   xmlns:sodipodi="http://sodipodi.sourceforge.net/DTD/sodipodi-0.dtd"
   xmlns="http://www.w3.org/2000/svg"
   xmlns:svg="http://www.w3.org/2000/svg"><sodipodi:namedview
     id="namedview1"
     pagecolor="#ffffff"
     bordercolor="#000000"
     borderopacity="0.25"
     inkscape:showpageshadow="2"
     inkscape:pageopacity="0.0"
     inkscape:pagecheckerboard="0"
     inkscape:deskcolor="#d1d1d1"
     inkscape:document-units="mm"
     inkscape:zoom="2.422208"
     inkscape:cx="194.6571"
     inkscape:cy="136.03291"
     inkscape:window-width="1920"
     inkscape:window-height="1001"
     inkscape:window-x="-9"
     inkscape:window-y="-9"
     inkscape:window-maximized="1"
     inkscape:current-layer="layer1" /><defs
     id="defs1" /><g
     inkscape:label="Livello 1"
     inkscape:groupmode="layer"
     id="layer1"
     transform="translate(-32.077511,-68.306221)"><path
       id="rect1"
       style="fill:#ffb380;fill-opacity:1;stroke-width:0.457441"
       d="m 32.077511,68.306221 h 67.73333 v 67.733329 h -67.73333 z" /><path
       id="path176"
       style="fill:#000001;stroke-width:0.0215414;fill-opacity:0.24705882"
       d="M 78.37546 86.641536 C 77.951445 86.641536 77.533838 86.683139 77.126958 86.764009 C 76.720077 86.844879 76.324129 86.964852 75.943567 87.122644 C 75.563007 87.280434 75.197734 87.475824 74.852678 87.706587 C 74.50762 87.93735 74.182563 88.203652 73.882194 88.503438 C 72.876964 89.506717 72.257043 90.789201 72.079204 92.175565 L 67.036101 87.132462 C 67.031948 87.1283 67.024518 87.130075 67.020081 87.126261 C 66.9778 87.089686 66.926723 87.064249 66.869186 87.064249 C 66.796866 87.064249 66.729031 87.096626 66.684701 87.152616 C 66.673041 87.166616 65.541863 88.613192 64.424374 90.474894 C 62.912614 92.992158 62.14751 95.035634 62.14751 96.547391 C 62.14751 96.975494 62.176411 97.379226 62.232776 97.758687 C 62.233598 97.764218 62.23401 97.770219 62.234843 97.77574 L 62.234843 97.776257 C 62.292125 98.155484 62.377856 98.509337 62.491158 98.838724 C 62.492081 98.841407 62.492816 98.844313 62.493742 98.846992 C 62.606778 99.17389 62.74807 99.475204 62.915939 99.751847 C 62.919071 99.757008 62.921573 99.762723 62.924724 99.767867 C 63.092984 100.04255 63.289042 100.29135 63.511251 100.51511 C 63.514517 100.5184 63.516758 100.52268 63.520036 100.52596 L 63.530888 100.53681 L 66.638192 103.64412 L 66.638192 105.04403 C 66.638192 105.26442 66.660938 105.47943 66.700721 105.68844 L 59.754375 98.742089 C 59.151329 98.147662 58.427543 97.630839 57.716773 97.262593 L 57.716256 97.262593 C 57.00536 96.894334 56.307625 96.674515 55.756169 96.674515 L 55.686923 96.674515 C 54.58401 96.674515 52.895546 97.535784 51.689234 98.742089 C 50.68972 99.741603 50.465536 101.12074 50.465536 101.51711 L 50.465536 101.63752 L 50.396806 101.67214 C 50.327876 101.70664 49.896873 102.12032 49.621143 102.60284 C 49.431578 102.93027 49.310931 103.51618 49.276461 103.79191 L 51.378658 105.89411 C 51.434781 106.12948 51.493275 106.34525 51.551258 106.51474 L 51.551258 106.51526 L 51.551775 106.51578 C 51.55207 106.51664 51.55251 106.51801 51.552808 106.51888 C 51.609009 106.68172 51.704989 106.8695 51.823593 107.06613 L 51.823593 107.06665 C 51.943074 107.2647 52.08548 107.47116 52.231836 107.66919 L 52.231836 107.66971 C 52.234989 107.67397 52.236948 107.67579 52.240105 107.68005 C 52.530461 108.07181 52.836579 108.42922 53.015768 108.61694 L 53.050391 108.65156 L 53.050391 108.65208 L 53.050391 108.68619 C 53.136399 109.15014 53.136563 109.3225 53.033855 109.56365 C 53.033694 109.56403 53.033499 109.56431 53.033338 109.56468 L 53.033338 109.5652 C 53.033058 109.5657 53.032072 109.56625 53.031788 109.56675 C 52.988321 109.64392 52.881608 109.72458 52.675737 109.83392 C 52.468869 109.94388 52.162782 110.08206 51.72334 110.27162 C 51.413151 110.40949 51.068535 110.54734 50.827271 110.66798 C 50.189652 110.99541 48.639043 111.97722 48.018657 112.49422 C 47.605065 112.83888 47.303546 113.24827 47.124655 113.69208 L 47.124655 113.6926 C 47.035312 113.91436 46.976148 114.1447 46.949471 114.37989 L 46.949471 114.38041 C 46.922842 114.61561 46.928296 114.85556 46.967041 115.09665 L 46.967041 115.09716 C 46.967098 115.09754 46.967501 115.09782 46.967558 115.0982 C 46.99726 115.29311 47.070922 115.48043 47.175297 115.65992 C 47.182585 115.67245 47.191985 115.68416 47.199585 115.69661 C 47.301472 115.86359 47.42967 116.02315 47.57889 116.17462 C 47.585008 116.18082 47.588211 116.18808 47.594393 116.19425 L 67.439694 136.03955 L 99.810844 136.03955 L 99.810844 105.44556 L 82.868726 88.503438 C 82.867167 88.501876 82.865635 88.500347 82.864075 88.498787 C 82.862493 88.497205 82.860491 88.496233 82.858907 88.494653 C 82.560663 88.197044 82.238384 87.932006 81.895659 87.70297 C 81.893658 87.701633 81.89146 87.700687 81.889458 87.699353 C 81.547361 87.471301 81.185533 87.278298 80.808387 87.122127 C 80.80379 87.120223 80.799035 87.118852 80.794434 87.116959 C 80.418249 86.962231 80.027331 86.843207 79.625513 86.763492 C 79.625188 86.763428 79.624805 86.763557 79.62448 86.763492 C 79.623955 86.763388 79.623454 86.763079 79.622929 86.762976 C 79.621078 86.762609 79.619097 86.762824 79.617245 86.762459 C 79.212437 86.682701 78.796997 86.641536 78.37546 86.641536 z " /><path
       id="path1"
       style="fill:#552200;stroke-width:0.0215414"
       d="M 55.686923 96.674515 C 54.584007 96.674515 52.895549 97.535778 51.689234 98.742089 C 50.689717 99.741606 50.465536 101.12074 50.465536 101.51711 L 50.465536 101.63752 L 50.396806 101.67214 C 50.327873 101.70661 49.896873 102.12032 49.621143 102.60284 C 49.431578 102.93027 49.310931 103.51618 49.276461 103.79191 L 51.0686 103.79191 L 51.0686 103.92937 C 51.085833 104.53253 51.327228 105.85988 51.551258 106.51474 C 51.775289 107.1696 52.653872 108.23782 53.015768 108.61694 L 53.050391 108.65156 L 53.050391 108.68619 C 53.13656 109.15144 53.136737 109.32341 53.033338 109.56468 C 52.947173 109.71977 52.602226 109.8925 51.72334 110.27162 C 51.413148 110.40949 51.068535 110.54734 50.827271 110.66798 C 50.189649 110.99541 48.639046 111.97722 48.018657 112.49422 C 47.191471 113.18354 46.811947 114.1316 46.967041 115.09665 C 47.191072 116.5787 49.862492 117.64715 50.603512 117.81948 C 51.154968 117.62992 54.119121 117.37132 55.153105 117.33682 L 55.463164 117.33682 C 55.532097 117.33682 55.618323 117.35439 55.704493 117.35439 C 55.807892 117.35439 55.876892 117.33682 55.945822 117.33682 L 56.25588 117.33682 C 57.307097 117.33682 60.27107 117.59528 60.822526 117.78485 C 61.563551 117.61252 64.217733 116.54407 64.458997 115.06202 C 64.614095 114.09697 64.234568 113.14941 63.407382 112.46012 C 62.78699 111.94313 61.253623 110.96078 60.598768 110.63335 C 60.340271 110.51272 60.012894 110.37485 59.702698 110.23699 C 58.806579 109.8579 58.461631 109.70291 58.392701 109.53058 C 58.272072 109.28932 58.289477 109.11686 58.375647 108.65156 L 58.375647 108.61694 L 58.409754 108.58232 C 58.771646 108.20319 59.65075 107.13498 59.874781 106.48012 C 60.098808 105.82526 60.357439 104.49842 60.357439 103.89526 L 60.357439 103.75729 L 62.16663 103.75729 C 62.114935 103.48156 62.01151 102.89564 61.821949 102.56821 C 61.546219 102.08568 61.115732 101.67202 61.046802 101.63752 L 60.977556 101.6029 L 60.977556 101.51711 C 60.977556 101.12074 60.753893 99.741606 59.754375 98.742089 C 58.54806 97.553011 56.859086 96.674515 55.756169 96.674515 L 55.686923 96.674515 z M 55.721546 97.484285 C 56.703831 97.484285 58.030957 98.191033 59.22004 99.397346 C 60.13339 100.3107 60.11611 101.31036 60.11611 101.81012 C 60.236742 101.87905 60.460522 101.99943 60.68455 102.37856 C 60.787945 102.58536 60.822526 102.72319 60.822526 102.82659 L 60.840096 102.98162 L 50.568889 102.98162 L 50.585942 102.82659 C 50.603175 102.72319 50.620856 102.56813 50.741488 102.37856 C 50.965519 101.99943 51.172064 101.87902 51.309929 101.81012 C 51.309929 101.32759 51.309698 100.3107 52.223051 99.397346 C 53.084708 98.535693 54.411831 97.484285 55.721546 97.484285 z M 51.947616 104.05029 L 59.478422 104.05029 L 59.461369 104.20532 C 59.392436 104.84295 59.271606 105.68724 59.133741 106.04914 L 58.944088 106.4455 C 58.651125 107.01415 58.082642 107.84129 57.686284 108.18596 C 57.651814 108.28935 57.617214 108.35866 57.599984 108.44486 C 57.531056 108.66889 57.462185 108.84113 57.444955 109.04792 C 57.427725 109.22025 57.445108 109.37496 57.479578 109.53006 C 57.720842 110.37448 58.324056 110.61585 58.909982 110.85711 C 59.06508 110.92604 59.220155 110.97786 59.358016 111.04676 L 59.530099 111.13306 L 58.737382 116.68208 L 58.599406 116.66503 C 57.910084 116.59606 57.013889 116.54425 56.031604 116.52705 L 55.411487 116.52705 C 54.429203 116.54428 53.550243 116.59613 52.843685 116.66503 L 52.705709 116.68208 L 51.912993 111.13306 L 52.085592 111.04676 C 52.223457 110.97782 52.378529 110.92601 52.533627 110.85711 C 53.11955 110.61585 53.72277 110.37448 53.96403 109.53006 C 54.01573 109.37496 54.015367 109.22025 53.998137 109.04792 C 53.980904 108.84113 53.912034 108.65166 53.843108 108.44486 C 53.808638 108.37593 53.791278 108.28973 53.756808 108.20353 C 53.360446 107.85887 52.792146 107.03139 52.48195 106.4455 L 52.292298 106.04914 C 52.188899 105.75618 52.068068 105.13591 51.964669 104.20532 L 51.947616 104.05029 z M 50.465536 111.7878 L 51.361605 116.83711 L 51.223629 116.85416 C 51.016831 116.88866 50.844864 116.92326 50.793164 116.94046 L 50.758541 116.97508 L 50.706865 116.95803 C 50.431135 116.90633 48.104758 116.3719 47.777328 114.70029 C 47.604997 113.7697 48.707613 112.94277 49.241838 112.54641 C 49.552034 112.32238 49.845213 112.11536 50.310507 111.8741 L 50.465536 111.7878 z M 60.943449 111.7878 L 61.115532 111.8741 C 61.511893 112.08089 61.822305 112.27068 62.1842 112.54641 C 62.718427 112.92554 63.821041 113.75247 63.648711 114.70029 C 63.321282 116.3719 60.97767 116.90633 60.719174 116.95803 L 60.667497 116.97508 L 60.615821 116.94046 C 60.564121 116.92316 60.40887 116.88866 60.184839 116.85416 L 60.04738 116.83711 L 60.943449 111.7878 z " /><path
       d="m 71.357842,96.547512 c 0,3.541448 -2.008685,4.990228 -4.48863,4.990228 -2.479945,0 -4.486298,-1.44878 -4.486298,-4.990228 0,-3.541445 4.486298,-9.252551 4.486298,-9.252551 0,0 4.48863,5.711106 4.48863,9.252551 z"
       fill="#60c13d"
       id="path1-3"
       style="stroke-width:0.0233297" /><path
       d="m 66.869212,101.77103 c -1.367119,0 -2.521939,-0.42693 -3.338477,-1.23414 -0.916857,-0.90986 -1.38345,-2.251317 -1.38345,-3.989378 0,-1.511763 0.765213,-3.555443 2.276976,-6.072716 1.117492,-1.861708 2.248982,-3.308148 2.260646,-3.322146 0.04433,-0.05599 0.111983,-0.08865 0.184305,-0.08865 0.07232,0 0.139978,0.03266 0.184304,0.08865 0.01166,0.014 1.143155,1.460438 2.260646,3.322146 1.511764,2.519606 2.276977,4.563286 2.276977,6.072716 0,1.735728 -0.466594,3.079518 -1.38345,3.989378 -0.816539,0.80721 -1.969025,1.23414 -3.338477,1.23414 z m 0,-14.091129 c -0.36161,0.482924 -1.208478,1.642409 -2.046013,3.037524 -1.007842,1.679737 -2.206988,4.054698 -2.206988,5.827754 0,1.607415 0.419934,2.839222 1.245805,3.658101 0.725553,0.71855 1.766057,1.09883 3.009529,1.09883 1.243472,0 2.283975,-0.38028 3.009529,-1.09883 0.82587,-0.818879 1.245804,-2.050686 1.245804,-3.658101 0,-1.775389 -1.201478,-4.152683 -2.211653,-5.83242 -0.839869,-1.395115 -1.684403,-2.552267 -2.046013,-3.032858 z"
       fill=""
       id="path2"
       style="stroke-width:0.0233297" /><path
       d="m 84.494785,92.996735 c 0,3.38047 -6.121708,10.381715 -6.121708,10.381715 0,0 -6.121708,-7.001245 -6.121708,-10.381715 0,-3.380471 2.741237,-6.121708 6.121708,-6.121708 3.380471,0 6.121708,2.741237 6.121708,6.121708 z"
       fill="#fcd170"
       id="path3"
       style="stroke-width:0.0233297" /><path
       d="m 78.373077,103.73306 -0.174973,-0.20064 c -0.01633,-0.0187 -1.556089,-1.78472 -3.074851,-3.942718 -2.060011,-2.923209 -3.102848,-5.141861 -3.102848,-6.592967 0,-1.698401 0.66023,-3.294151 1.861709,-4.493297 1.201478,-1.199145 2.797228,-1.861708 4.493296,-1.861708 1.696068,0 3.294151,0.66023 4.493296,1.861708 1.199146,1.199146 1.861709,2.797229 1.861709,4.493297 0,1.451106 -1.04517,3.669758 -3.102848,6.592967 -1.518762,2.157998 -3.060854,3.924058 -3.074851,3.942718 z m 0,-16.624736 c -1.57242,0 -3.051522,0.61357 -4.164348,1.724063 -1.112826,1.112826 -1.724063,2.591927 -1.724063,4.164348 0,1.334457 1.042837,3.520448 3.01886,6.324676 1.206145,1.714739 2.426287,3.177509 2.869551,3.700089 0.996177,-1.17348 5.888411,-7.085226 5.888411,-10.024765 0,-1.572421 -0.61357,-3.051522 -1.724063,-4.164348 -1.112826,-1.112826 -2.591928,-1.724063 -4.164348,-1.724063 z m -2.969868,21.376986 h -5.323833 c -1.899036,0 -3.441128,-1.54442 -3.441128,-3.44112 V 90.654435 c 0,-0.128313 0.104984,-0.233297 0.233297,-0.233297 0.128313,0 0.233297,0.104984 0.233297,0.233297 v 14.389755 c 0,1.64007 1.334457,2.97453 2.974534,2.97453 h 5.323833 c 1.640076,0 2.974534,-1.33446 2.974534,-2.97453 0,-0.12832 0.104984,-0.2333 0.233297,-0.2333 0.128313,0 0.233297,0.10498 0.233297,0.2333 0,1.8967 -1.544425,3.44112 -3.441128,3.44112 z"
       fill=""
       id="path4"
       style="stroke-width:0.0233297" /><path
       d="m 78.534052,106.18501 h -0.324283 c -1.049835,0 -1.899036,-0.8492 -1.899036,-1.89904 v -3.45979 h 4.122355 v 3.45979 c 0,1.0475 -0.849201,1.89904 -1.899036,1.89904 z"
       fill="#75736f"
       id="path5"
       style="stroke-width:0.0233297" /><path
       d="m 78.534052,106.4183 h -0.324283 c -1.175816,0 -2.132332,-0.95651 -2.132332,-2.13233 v -3.69309 h 4.588948 v 3.69309 c 0,1.17582 -0.956517,2.13233 -2.132333,2.13233 z m -1.990022,-5.35882 v 3.22649 c 0,0.91919 0.74655,1.66574 1.665739,1.66574 h 0.324283 c 0.919189,0 1.665739,-0.74655 1.665739,-1.66574 v -3.22649 z m -9.674818,-5.256185 c -0.06299,0 -0.128313,-0.02566 -0.17264,-0.07699 l -2.311971,-2.573261 c -0.08632,-0.09565 -0.07932,-0.242629 0.01866,-0.328949 0.09565,-0.08632 0.242628,-0.07932 0.328948,0.01866 l 2.311971,2.573264 c 0.08632,0.09565 0.07932,0.242628 -0.01866,0.328948 -0.04433,0.03733 -0.100318,0.05832 -0.156309,0.05832 z m 0,4.388315 c -0.06532,0 -0.130646,-0.028 -0.177306,-0.0817 l -3.247491,-3.814408 c -0.08399,-0.09798 -0.07232,-0.244962 0.02566,-0.328949 0.09798,-0.08399 0.244962,-0.07232 0.328949,0.02566 l 3.247491,3.814402 c 0.08399,0.098 0.07232,0.244975 -0.02566,0.328955 -0.04433,0.0397 -0.09798,0.056 -0.151643,0.056 z m 0,-6.961578 c -0.06066,0 -0.118982,-0.02333 -0.165641,-0.06766 -0.09099,-0.09099 -0.09099,-0.237963 0,-0.328949 l 1.565422,-1.565422 c 0.09099,-0.09099 0.237962,-0.09099 0.328948,0 0.09099,0.09099 0.09099,0.237963 0,0.328949 l -1.565421,1.565422 c -0.04433,0.04433 -0.102651,0.06766 -0.163308,0.06766 z m 0.153976,4.612277 c -0.06299,0 -0.128314,-0.02566 -0.17264,-0.07699 -0.08632,-0.09565 -0.07699,-0.242628 0.01866,-0.328948 l 2.283976,-2.048346 c 0.09565,-0.08632 0.242628,-0.07699 0.328948,0.01866 0.08632,0.09565 0.07699,0.242628 -0.01866,0.328948 l -2.283975,2.048346 c -0.04666,0.03966 -0.102651,0.05832 -0.156309,0.05832 z"
       fill=""
       id="path6"
       style="stroke-width:0.0233297" /></g></svg>
