<?xml version="1.0" encoding="UTF-8" standalone="no"?>
<!-- Created with Inkscape (http://www.inkscape.org/) -->

<svg
   width="67.73333mm"
   height="67.73333mm"
   viewBox="0 0 67.73333 67.73333"
   version="1.1"
   id="svg1"
   xml:space="preserve"
   inkscape:version="1.3.2 (091e20e, 2023-11-25, custom)"
   sodipodi:docname="energiasostenibilitaprogresso.svg"
   inkscape:export-filename="..\..\..\ICONE\PNG\energiasostenibilitaprogresso.png"
   inkscape:export-xdpi="1536.0001"
   inkscape:export-ydpi="1536.0001"
   xmlns:inkscape="http://www.inkscape.org/namespaces/inkscape"
   xmlns:sodipodi="http://sodipodi.sourceforge.net/DTD/sodipodi-0.dtd"
   xmlns="http://www.w3.org/2000/svg"
   xmlns:svg="http://www.w3.org/2000/svg"><sodipodi:namedview
     id="namedview1"
     pagecolor="#ffffff"
     bordercolor="#000000"
     borderopacity="0.25"
     inkscape:showpageshadow="2"
     inkscape:pageopacity="0.0"
     inkscape:pagecheckerboard="0"
     inkscape:deskcolor="#d1d1d1"
     inkscape:document-units="mm"
     inkscape:zoom="2.422208"
     inkscape:cx="194.86353"
     inkscape:cy="136.44576"
     inkscape:window-width="1920"
     inkscape:window-height="991"
     inkscape:window-x="-9"
     inkscape:window-y="-9"
     inkscape:window-maximized="1"
     inkscape:current-layer="layer1" /><defs
     id="defs1" /><g
     inkscape:label="Livello 1"
     inkscape:groupmode="layer"
     id="layer1"
     transform="translate(-32.077511,-68.306221)"><path
       id="rect1"
       style="fill:#ffb380;fill-opacity:1;stroke-width:0.457441"
       d="m 32.077511,68.306221 h 67.73333 v 67.733329 h -67.73333 z" /><path
       id="path11"
       style="stroke-width:0.0427388;fill:#000000;fill-opacity:0.12156863"
       d="M 75.600953 81.398445 C 72.493856 81.398445 69.570448 82.612327 67.369414 84.80909 C 65.52771 86.647217 64.391347 88.996798 64.065739 91.536844 L 54.82651 82.297615 C 54.819602 82.290707 54.807487 82.293151 54.800155 82.286763 C 54.72262 82.218811 54.628254 82.172041 54.522136 82.172041 C 54.389646 82.172041 54.265382 82.231731 54.184172 82.334305 C 54.162802 82.359945 52.090003 85.010215 50.042823 88.420756 C 47.27336 93.03225 45.871501 96.776197 45.871501 99.545658 C 45.871501 100.33753 45.924839 101.08382 46.030148 101.7848 C 46.030345 101.78611 46.02995 101.78762 46.030148 101.78893 C 46.134746 102.48371 46.292708 103.13257 46.499886 103.7361 C 46.502456 103.74358 46.504019 103.75188 46.506604 103.75935 C 46.715072 104.36181 46.975225 104.91718 47.285368 105.42644 C 47.288578 105.43171 47.290932 105.43771 47.294153 105.44297 C 47.378689 105.58105 47.476043 105.70719 47.568038 105.8383 C 47.648192 105.95254 47.722014 106.0725 47.807817 106.18143 C 47.885272 106.27975 47.973815 106.36755 48.055864 106.46151 C 48.165012 106.58654 48.268815 106.71681 48.386076 106.8341 L 48.40623 106.85426 L 54.098906 112.54693 L 54.098906 115.11112 C 54.098906 116.41384 54.496549 117.62623 55.176359 118.63235 C 55.17733 118.63379 55.178488 118.63505 55.17946 118.63648 C 55.403183 118.96693 55.65738 119.27498 55.93807 119.55684 C 55.941261 119.56005 55.943657 119.56398 55.946855 119.56717 L 72.419235 136.03955 L 99.810844 136.03955 L 99.810844 100.78796 L 83.823706 84.800821 C 83.551655 84.52877 83.268531 84.272111 82.975179 84.030843 C 82.974511 84.030293 82.973781 84.029842 82.973112 84.029292 C 82.677238 83.786056 82.371257 83.558766 82.055856 83.34768 C 82.055018 83.347119 82.05411 83.34669 82.053272 83.34613 C 81.738356 83.135487 81.413996 82.940458 81.081755 82.762703 C 81.080735 82.762157 81.079675 82.761698 81.078654 82.761153 C 80.74605 82.583331 80.405869 82.422518 80.058045 82.278495 C 80.056333 82.277786 80.05459 82.277136 80.052877 82.276428 C 79.937842 82.22886 79.817504 82.194664 79.700961 82.150854 C 79.464589 82.062 79.229402 81.969297 78.987309 81.896089 C 78.626875 81.787092 78.260527 81.695298 77.889185 81.621687 C 77.888328 81.621517 77.886941 81.62134 77.886084 81.621171 C 77.514021 81.547522 77.137308 81.492054 76.756438 81.454772 C 76.756097 81.454739 76.755745 81.454806 76.755404 81.454772 C 76.374185 81.417491 75.988851 81.398445 75.600953 81.398445 z " /><path
       d="m 62.74492,99.54544 c 0,6.48774 -3.679803,9.14183 -8.22293,9.14183 -4.543126,0 -8.218657,-2.65409 -8.218657,-9.14183 0,-6.487736 8.218657,-16.950176 8.218657,-16.950176 0,0 8.22293,10.46244 8.22293,16.950176 z"
       fill="#60c13d"
       id="path1-3"
       style="stroke-width:0.0427388" /><path
       d="m 54.52199,109.11465 c -2.504488,0 -4.620057,-0.78212 -6.115911,-2.26088 -1.679633,-1.66682 -2.534406,-4.12429 -2.534406,-7.30833 0,-2.76947 1.401829,-6.513379 4.171298,-11.124888 2.047186,-3.41055 4.120015,-6.06035 4.141382,-6.085994 0.08121,-0.102571 0.205147,-0.162402 0.337637,-0.162402 0.132487,0 0.256433,0.05983 0.337635,0.162402 0.02136,0.02565 2.094199,2.675444 4.141383,6.085994 2.76947,4.615783 4.1713,8.359698 4.1713,11.124888 0,3.17976 -0.854776,5.64151 -2.534407,7.30833 -1.495855,1.47876 -3.607148,2.26088 -6.115911,2.26088 z m 0,-25.814196 c -0.66245,0.884691 -2.213867,3.008805 -3.748186,5.564581 -1.846312,3.077188 -4.043084,7.427985 -4.043084,10.676135 0,2.9447 0.769297,5.2013 2.282248,6.70144 1.329175,1.31635 3.235322,2.013 5.513296,2.013 2.277974,0 4.18412,-0.69665 5.513296,-2.013 1.51295,-1.50014 2.282246,-3.75674 2.282246,-6.70144 0,-3.25242 -2.201043,-7.607495 -4.051629,-10.684683 -1.538596,-2.555776 -3.085737,-4.675616 -3.748187,-5.556033 z"
       fill=""
       id="path2"
       style="stroke-width:0.0427388" /><path
       d="m 86.811098,93.040609 c 0,6.192841 -11.214643,19.018741 -11.214643,19.018741 0,0 -11.214641,-12.8259 -11.214641,-19.018741 0,-6.192842 5.021799,-11.214641 11.214641,-11.214641 6.192841,0 11.214643,5.021799 11.214643,11.214641 z"
       fill="#fcd170"
       id="path3"
       style="stroke-width:0.0427388" /><path
       d="m 75.596455,112.70898 -0.320541,-0.36756 c -0.02992,-0.0343 -2.850672,-3.26951 -5.632963,-7.22285 -3.77383,-5.35516 -5.684251,-9.41961 -5.684251,-12.077961 0,-3.11138 1.209506,-6.034708 3.410551,-8.23148 2.201043,-2.196769 5.124372,-3.410549 8.231478,-3.410549 3.107105,0 6.034708,1.209506 8.231479,3.410549 2.19677,2.196772 3.41055,5.124374 3.41055,8.23148 0,2.658351 -1.9147,6.722801 -5.684252,12.077961 -2.782291,3.95334 -5.607321,7.18867 -5.632962,7.22285 z m 0,-30.455625 c -2.880589,0 -5.590225,1.124028 -7.628863,3.158391 -2.038637,2.038638 -3.158391,4.748272 -3.158391,7.628863 0,2.444651 1.910422,6.449271 5.53039,11.586471 2.209593,3.14131 4.444828,5.82102 5.256864,6.77836 1.824943,-2.14975 10.787253,-12.97975 10.787253,-18.364831 0,-2.880591 -1.12403,-5.590225 -3.158391,-7.628863 -2.038637,-2.038637 -4.748273,-3.158391 -7.628862,-3.158391 z m -5.440639,39.161495 h -9.752977 c -3.478932,0 -6.303962,-2.8293 -6.303962,-6.30395 V 88.749641 c 0,-0.235063 0.192325,-0.427388 0.427387,-0.427388 0.235063,0 0.427388,0.192325 0.427388,0.427388 V 115.1109 c 0,3.00452 2.444654,5.44918 5.449187,5.44918 h 9.752977 c 3.004531,0 5.449187,-2.44466 5.449187,-5.44918 0,-0.23507 0.192325,-0.42739 0.427387,-0.42739 0.235063,0 0.427388,0.19232 0.427388,0.42739 0,3.47465 -2.829304,6.30395 -6.303962,6.30395 z"
       fill=""
       id="path4"
       style="stroke-width:0.0427388" /><path
       d="m 75.891352,117.20082 h -0.594069 c -1.923241,0 -3.478932,-1.55569 -3.478932,-3.47894 v -6.33815 h 7.551934 v 6.33815 c 0,1.91897 -1.555691,3.47894 -3.478933,3.47894 z"
       fill="#75736f"
       id="path5"
       style="stroke-width:0.0427388" /><path
       d="m 75.891352,117.6282 h -0.594069 c -2.154032,0 -3.906318,-1.75228 -3.906318,-3.90632 v -6.76554 h 8.406707 v 6.76554 c 0,2.15404 -1.752288,3.90632 -3.90632,3.90632 z m -3.645613,-9.81707 v 5.91075 c 0,1.68391 1.367639,3.05155 3.051544,3.05155 h 0.594069 c 1.683905,0 3.051545,-1.36764 3.051545,-3.05155 v -5.91075 z M 54.52199,98.18208 c -0.115394,0 -0.235062,-0.047 -0.316267,-0.14105 l -4.235407,-4.714072 c -0.158134,-0.175225 -0.14531,-0.444483 0.03418,-0.602617 0.175226,-0.158133 0.444482,-0.14531 0.602615,0.03419 l 4.235407,4.714079 c 0.158134,0.17522 0.14531,0.44448 -0.03418,0.60261 -0.08121,0.0684 -0.183777,0.10684 -0.28635,0.10684 z m 0,8.03915 c -0.119662,0 -0.239336,-0.0513 -0.324815,-0.14967 l -5.949229,-6.98779 c -0.153866,-0.17949 -0.132487,-0.44875 0.04701,-0.60261 0.179495,-0.15387 0.448758,-0.13249 0.602617,0.047 l 5.94923,6.98778 c 0.153865,0.17953 0.132486,0.44879 -0.04701,0.60263 -0.08121,0.0727 -0.179494,0.10259 -0.277802,0.10259 z m 0,-12.753234 c -0.111126,0 -0.217968,-0.04274 -0.303445,-0.123949 -0.166689,-0.166689 -0.166689,-0.435936 0,-0.602617 l 2.867769,-2.867769 c 0.166689,-0.166689 0.435934,-0.166689 0.602615,0 0.166689,0.166688 0.166689,0.435935 0,0.602617 l -2.867767,2.867769 c -0.08121,0.08121 -0.188051,0.123949 -0.299172,0.123949 z m 0.282076,8.449444 c -0.115394,0 -0.235064,-0.047 -0.316267,-0.14104 -0.158134,-0.17523 -0.141042,-0.44448 0.03418,-0.60262 l 4.184122,-3.75246 c 0.175225,-0.15813 0.444481,-0.14104 0.602615,0.0342 0.158133,0.17522 0.141041,0.44448 -0.03418,0.60261 l -4.18412,3.75246 c -0.08548,0.0727 -0.188051,0.10684 -0.28635,0.10684 z"
       fill=""
       id="path6"
       style="stroke-width:0.0427388" /></g></svg>
