<?xml version="1.0" encoding="UTF-8" standalone="no"?>
<!-- Created with Inkscape (http://www.inkscape.org/) -->

<svg
   width="67.73333mm"
   height="67.73333mm"
   viewBox="0 0 67.73333 67.73333"
   version="1.1"
   id="svg1"
   xml:space="preserve"
   xmlns:inkscape="http://www.inkscape.org/namespaces/inkscape"
   xmlns:sodipodi="http://sodipodi.sourceforge.net/DTD/sodipodi-0.dtd"
   xmlns="http://www.w3.org/2000/svg"
   xmlns:svg="http://www.w3.org/2000/svg"><sodipodi:namedview
     id="namedview1"
     pagecolor="#ffffff"
     bordercolor="#000000"
     borderopacity="0.25"
     inkscape:showpageshadow="2"
     inkscape:pageopacity="0.0"
     inkscape:pagecheckerboard="0"
     inkscape:deskcolor="#d1d1d1"
     inkscape:document-units="mm"
     inkscape:zoom="2.768771"
     inkscape:cx="107.44839"
     inkscape:cy="128.75749"
     inkscape:window-width="1920"
     inkscape:window-height="991"
     inkscape:window-x="-9"
     inkscape:window-y="-9"
     inkscape:window-maximized="1" /><defs
     id="defs1" /><g
     inkscape:label="Livello 1"
     inkscape:groupmode="layer"
     id="layer1"
     transform="translate(-6.1158299,-52.749031)"><path
       id="rect1"
       style="fill:#0466bb;stroke-width:0.390428"
       d="M 6.1158294,52.749028 H 73.849159 V 120.48236 H 6.1158293 Z" /><path
       id="path897"
       style="fill:#000000;fill-opacity:0.121569;stroke-width:0.0557595"
       d="m 25.040256,70.000174 c -0.116961,-0.0088 -0.236118,0.0096 -0.347782,0.05581 -1.087937,0.450151 -1.746052,1.043001 -2.011247,1.812292 -0.242937,0.711852 -0.118643,1.514787 0.374137,2.388485 1.065875,1.887885 2.151519,3.763366 3.276803,5.710246 l 1.302763,2.257743 -0.787032,2.105815 -1.470711,-1.470711 c -0.1358,-0.135717 -0.313474,-0.209287 -0.495061,-0.219109 -0.0015,-8e-5 -0.0027,-4.44e-4 -0.0041,-5.16e-4 -0.181706,-0.0088 -0.367234,0.0465 -0.518831,0.171049 -0.322375,0.267626 -0.369197,0.744585 -0.103353,1.068152 l 1.897559,2.304768 c -0.308654,0.826523 -0.622622,1.659562 -0.935861,2.494422 l -1.895491,-1.895492 c -0.0049,-0.0053 -0.01044,-0.0099 -0.0155,-0.01499 l -0.0021,-0.0026 c -2.84e-4,-2.84e-4 -7.49e-4,-2.33e-4 -0.001,-5.16e-4 -0.120694,-0.120256 -0.276434,-0.194397 -0.440283,-0.214974 -0.0011,-1.36e-4 -0.002,1.3e-4 -0.0031,0 -0.164386,-0.01997 -0.336295,0.01284 -0.488342,0.106453 -0.357675,0.219616 -0.467731,0.687308 -0.248563,1.043347 l 2.1208,3.445268 c 0.01,0.01615 0.02108,0.03086 0.03204,0.04599 -0.01989,0.05257 -0.03901,0.104009 -0.05891,0.15658 -0.13,0.342298 -0.288068,0.678176 -0.445968,1.013374 -0.312899,0.666998 -0.647354,1.378201 -0.777214,2.120284 -0.140833,0.773927 -0.04623,1.540099 0.04599,2.281515 0.03659,0.294187 0.07317,0.587489 0.0925,0.879016 0.01243,0.182881 0.0933,0.345514 0.213941,0.471289 0.004,0.0042 0.0032,0.01144 0.0072,0.0155 L 45.707215,120.48233 H 73.849163 V 88.441426 L 56.250754,70.843017 c -0.0046,-0.0046 -0.01332,-0.0017 -0.01809,-0.0062 -0.127615,-0.120238 -0.300107,-0.188997 -0.483691,-0.165882 -0.219935,0.02778 -5.42286,0.69869 -8.586556,2.394686 H 47.1619 c -0.98733,0.52911 -1.693215,1.119424 -2.09858,1.754415 -0.852394,1.10795 -1.693542,2.404495 -2.485119,3.806486 l -2.83807,-2.837553 c -0.125636,-0.126707 -0.289013,-0.202196 -0.459403,-0.220141 -7.18e-4,-7.6e-5 -0.0014,-4.43e-4 -0.0021,-5.17e-4 -0.169397,-0.01737 -0.345284,0.02189 -0.498161,0.124023 -0.347995,0.233143 -0.441768,0.703394 -0.208773,1.052133 L 40.2796,79.3009 c -0.789643,-0.0395 -1.582958,-0.06984 -2.363163,-0.114722 l -3.661792,-3.661275 c -0.251014,-0.253152 -0.652296,-0.301453 -0.959632,-0.09612 -0.347993,0.233141 -0.441768,0.702876 -0.208772,1.051615 l 1.694987,2.536796 c -0.05392,-0.003 -0.107827,-0.0059 -0.161748,-0.0088 l -7.643461,-7.643461 c -0.0048,-0.0048 -0.01175,-0.0082 -0.01654,-0.01292 -0.45944,-0.457382 -0.97896,-0.878134 -1.5844,-1.244369 -0.103142,-0.06267 -0.2179,-0.09872 -0.334863,-0.107487 z" /><path
       id="path1"
       style="fill:#054075;fill-opacity:1;stroke-width:0.758485"
       d="m 25.040256,70.000174 c -0.116961,-0.0088 -0.236118,0.0096 -0.347782,0.05581 -1.087939,0.450153 -1.746052,1.043 -2.011247,1.812293 -0.242937,0.711852 -0.118645,1.514784 0.374137,2.388484 1.065877,1.887889 2.151517,3.763362 3.276803,5.710246 l 1.302763,2.257743 -0.930693,2.490804 c -0.812082,2.176992 -1.644528,4.406337 -2.487186,6.632153 -0.129965,0.342258 -0.288031,0.67823 -0.445968,1.013376 -0.312899,0.666998 -0.647354,1.378199 -0.777214,2.120284 -0.140835,0.773927 -0.04623,1.540096 0.04599,2.281514 0.03659,0.294187 0.07317,0.587489 0.0925,0.879016 0.02265,0.333174 0.259363,0.612564 0.584461,0.688847 l 0.77618,0.181384 c 0.288181,0.06739 0.589323,-0.03885 0.771012,-0.271818 l 6.934461,-8.878011 4.673616,5.060673 -1.177189,3.910356 c -0.08761,0.304277 0.0177,0.638306 0.275952,0.828889 l 1.979725,1.461413 c 0.194693,0.14468 0.44794,0.18629 0.679028,0.11317 0.231812,-0.073 0.413508,-0.25343 0.490926,-0.48318 1.15009,-3.448375 2.92586,-4.8806 5.755721,-4.644673 0.238171,0.01955 0.473025,-0.07455 0.630969,-0.254249 0.160172,-0.179239 0.223613,-0.42316 0.175183,-0.657841 l -0.42013,-2.005046 c -0.03908,-0.187089 -0.167447,-0.356001 -0.326595,-0.468705 -0.08551,0.07378 -0.09014,0.07694 -0.223242,0.195338 -0.270804,0.245092 -0.534761,0.496755 -0.802018,0.74569 -0.0889,0.08346 -0.178627,0.166179 -0.267684,0.249598 0.07325,-0.0082 0.141645,-0.0098 0.216526,-0.02016 l 0.141076,0.676962 c -0.444782,0.01632 -0.867069,0.07521 -1.27124,0.168982 -0.05416,0.0456 -0.108464,0.09107 -0.163298,0.135909 -0.01334,0.03089 -0.02639,0.06175 -0.03773,0.09353 -0.0026,0.0089 -0.0052,0.01786 -0.0077,0.02687 -0.435653,1.519434 -1.642712,1.669236 -2.167315,0.934313 -0.93517,0.782608 -1.705593,1.899841 -2.31252,3.373954 l -0.73949,-0.545703 1.147735,-3.813205 c 0.07634,-0.259332 0.01276,-0.53639 -0.168466,-0.733287 L 32.83668,87.817175 c -0.138638,-0.150547 -0.324013,-0.232214 -0.513664,-0.24288 -0.298648,-0.104274 -0.643435,-0.01471 -0.849044,0.249081 l -6.91689,8.856307 c -0.0039,-0.0348 -0.0076,-0.06915 -0.01241,-0.103353 -0.08128,-0.656494 -0.158108,-1.276119 -0.0584,-1.820045 0.08957,-0.566814 0.373293,-1.142598 0.657841,-1.74873 0.174265,-0.370565 0.348148,-0.742606 0.491443,-1.120862 0.84312,-2.228044 1.676002,-4.460826 2.489254,-6.639905 l 1.055752,-2.82515 c 0.07937,-0.212329 0.06053,-0.447869 -0.05271,-0.644405 l -1.483114,-2.567285 c -1.123198,-1.941828 -2.205121,-3.813897 -3.268017,-5.697326 -0.270602,-0.478411 -0.35834,-0.865621 -0.260449,-1.147734 0.106942,-0.308171 0.451348,-0.559131 0.806669,-0.743624 1.683782,1.157066 2.577894,2.894892 3.520715,4.72891 0.698227,1.356916 1.420028,2.759704 2.48977,3.905188 0.148017,0.157827 0.355929,0.245499 0.572059,0.239779 0.233684,-0.0045 0.456065,-0.01441 0.668176,-0.02326 0.42108,-0.01753 0.784994,-0.03294 1.139465,-0.01498 1.270531,0.06254 2.539936,0.137131 3.809587,0.211873 1.824992,0.107308 3.69297,0.205613 5.561418,0.275435 0.02247,-0.05369 0.0473,-0.106452 0.07545,-0.157613 0.03294,-0.06443 0.06434,-0.129597 0.09457,-0.195336 0.02982,-0.06708 0.06027,-0.133785 0.08734,-0.202055 0.03061,-0.07547 0.06366,-0.150185 0.100769,-0.222725 0.03809,-0.07694 0.07801,-0.152584 0.116273,-0.229443 0.03797,-0.07431 0.07739,-0.147886 0.117304,-0.221175 0.04272,-0.07998 0.08684,-0.159468 0.131774,-0.238229 0.0046,-0.0083 0.0093,-0.01651 0.01395,-0.0248 -2.080565,-0.06737 -4.172454,-0.180765 -6.212541,-0.300756 -1.274258,-0.0749 -2.54943,-0.149704 -3.824573,-0.212391 -0.423498,-0.02084 -0.837556,-0.0038 -1.27589,0.01499 -0.09579,0.0034 -0.193714,0.0083 -0.293522,0.0124 -0.807611,-0.947166 -1.400147,-2.099441 -2.024166,-3.31246 -1.055479,-2.052865 -2.146864,-4.17448 -4.415751,-5.546948 -0.103144,-0.06267 -0.2179,-0.09872 -0.334863,-0.10749 z M 36.2096,84.912443 35.649945,85.055069 c -0.251625,0.06362 -0.453739,0.252188 -0.533818,0.499195 -0.0096,0.02902 -0.01682,0.0581 -0.02274,0.08785 -0.03238,0.162765 -0.0096,0.330803 0.06201,0.478523 0.09322,-0.16488 0.23334,-0.333369 0.429948,-0.495576 0.205227,-0.169319 0.430067,-0.313138 0.655774,-0.453203 0.07905,-0.051 0.160512,-0.0968 0.243396,-0.140043 -0.13116,-0.04591 -0.236802,-0.0823 -0.274918,-0.119374 z m 0.813388,3.717085 c 0.756978,1.74912 1.724774,3.466689 3.41116,4.305681 0.02304,-0.115218 0.106451,-0.147618 0.223242,-0.134359 0.0036,-0.0081 0.0072,-0.0162 0.01087,-0.02429 0.110525,-0.239813 0.222039,-0.478841 0.333313,-0.718302 0.05811,-0.125058 0.142069,-0.307568 0.211873,-0.454236 -0.99407,-0.46292 -1.719892,-1.384165 -2.381766,-2.702161 -0.147848,-0.004 -0.310987,-0.02904 -0.487826,-0.07906 -0.186323,-0.05271 -0.392835,-0.104693 -0.585495,-0.181383 -0.245273,0.0109 -0.490764,0.008 -0.735355,-0.01189 z" /><path
       d="m 25.634018,90.894933 c -0.03967,0.199367 -0.158931,0.382897 -0.345797,0.498068 -0.356785,0.219021 -0.824272,0.108221 -1.044185,-0.247968 l -2.121065,-3.44505 c -0.219168,-0.356041 -0.109113,-0.823678 0.248564,-1.043294 0.356933,-0.219765 0.824273,-0.108221 1.043294,0.248564 l 2.121212,3.444306 c 0.104742,0.169324 0.133943,0.364605 0.09798,0.545374 z"
       id="path2"
       style="fill:#054075;fill-opacity:1;stroke-width:0.758485" /><path
       d="m 42.108834,79.707997 c -0.03789,0.190439 -0.148684,0.366374 -0.321863,0.482722 -0.348739,0.232995 -0.818886,0.139454 -1.052626,-0.209433 l -2.162507,-3.236757 c -0.232995,-0.348739 -0.139454,-0.818887 0.208541,-1.05203 0.348738,-0.232995 0.818887,-0.139454 1.052626,0.209433 l 2.162507,3.236757 c 0.1162,0.173923 0.151212,0.378868 0.113322,0.569308 z"
       id="path3"
       style="fill:#054075;fill-opacity:1;stroke-width:0.758485" /><path
       d="m 36.624103,79.44423 c -0.03789,0.19044 -0.148684,0.366375 -0.322607,0.482575 -0.347995,0.233143 -0.818887,0.139453 -1.052626,-0.209433 l -2.162507,-3.236757 c -0.232996,-0.348739 -0.139454,-0.818887 0.208541,-1.05203 0.348738,-0.232996 0.818886,-0.139454 1.052625,0.209432 l 2.162508,3.236757 c 0.116943,0.174072 0.151956,0.379017 0.114066,0.569456 z"
       id="path4"
       style="fill:#054075;fill-opacity:1;stroke-width:0.758485" /><path
       d="m 27.498511,85.869437 c -0.03301,0.165891 -0.121209,0.321573 -0.261812,0.437441 -0.323715,0.266589 -0.801552,0.219465 -1.067544,-0.103357 l -1.91333,-2.324118 c -0.265844,-0.323567 -0.218869,-0.80066 0.103506,-1.068288 0.323567,-0.265845 0.801552,-0.219465 1.067544,0.103358 l 1.91333,2.324118 c 0.150719,0.183111 0.201229,0.415113 0.158306,0.630846 z"
       id="path5"
       style="fill:#054075;fill-opacity:1;stroke-width:0.758485" /><path
       d="m 56.394514,71.073614 c -0.09255,-0.270232 -0.362124,-0.438374 -0.645589,-0.402681 -0.219935,0.02778 -5.422801,0.698529 -8.586503,2.394529 -1.08e-4,2.5e-5 -2.04e-4,1.05e-4 -3.67e-4,1.42e-4 -0.987332,0.52911 -1.693167,1.119256 -2.098532,1.754249 -1.659578,2.157134 -3.280556,5.023761 -4.564397,8.007273 -3.088955,0.249759 -5.935917,1.801218 -7.607668,4.481342 -0.486231,0.779539 -0.853829,1.624941 -1.092502,2.512701 -0.06522,0.242457 0.02672,0.499898 0.230742,0.646253 0.203943,0.14626 0.477135,0.150953 0.686068,0.01147 1.423763,-0.950997 3.573766,-1.106811 5.8893,-0.542593 0.0039,0.0026 0.0077,0.0055 0.01175,0.008 0.708616,0.441994 1.417154,0.883891 2.125758,1.325831 -1.30493,2.439495 -1.187854,5.023287 -1.181848,5.139116 0.01024,0.196584 0.115887,0.375866 0.282888,0.480031 0.136826,0.08534 0.300642,0.111546 0.45502,0.07577 0.03411,-0.0079 0.06775,-0.01885 0.100522,-0.0328 0.106678,-0.0455 2.478819,-1.07694 4.095658,-3.321931 0.70855,0.441952 1.417033,0.883862 2.125557,1.325705 0.0037,0.0023 0.0075,0.004 0.01124,0.0063 1.525944,1.831825 2.331988,3.831726 2.104108,5.529059 -0.03341,0.24883 0.09094,0.49223 0.312057,0.6111 0.131936,0.0709 0.281873,0.0886 0.421476,0.0562 0.09441,-0.0219 0.184153,-0.0666 0.260399,-0.13326 0.692306,-0.60481 1.289865,-1.306781 1.776096,-2.08632 1.428447,-2.290053 1.795501,-5.047902 1.033806,-7.765643 -0.09936,-0.354453 -0.216596,-0.702533 -0.350711,-1.043438 2.112581,-2.463293 3.972087,-5.177423 5.178586,-7.615116 0.392189,-0.643445 0.611636,-1.53711 0.652365,-2.656887 -1.3e-5,-5.4e-5 -2.5e-5,-1.09e-4 1.7e-5,-1.76e-4 0.132229,-3.587459 -1.553527,-8.554552 -1.625297,-8.764236 z m -17.38045,15.746147 c -0.197223,0.632895 -0.371214,1.255141 -0.519909,1.857617 -0.391425,-0.08267 -0.781305,-0.147551 -1.168111,-0.192254 -1.183608,-0.136864 -2.276049,-0.09 -3.243328,0.134139 -0.216575,0.05018 -0.42696,0.109296 -0.630613,0.177207 0.136781,-0.29178 0.291089,-0.575601 0.462236,-0.849989 1.350812,-2.16566 3.584792,-3.486302 6.061625,-3.84858 -0.358065,0.90976 -0.68172,1.822536 -0.961779,2.721889 z m 0.605838,2.329445 c 0.09522,-0.397768 0.202467,-0.805649 0.320964,-1.220545 l 2.229557,1.390667 c -0.271302,0.282828 -0.536381,0.593005 -0.784737,0.931131 -0.58864,-0.367112 -1.177145,-0.734141 -1.765784,-1.101253 z m 4.166013,3.355913 c -0.868391,1.392156 -2.139581,2.331952 -2.982864,2.84617 0.09091,-0.983735 0.375803,-2.538541 1.244141,-3.930684 0.868337,-1.392143 2.139539,-2.331885 2.982864,-2.84617 -0.09091,0.983735 -0.375803,2.538541 -1.244141,3.930684 z m 3.107515,1.180469 c -0.588492,-0.366974 -1.177077,-0.734099 -1.765595,-1.101182 0.194442,-0.371708 0.356375,-0.746128 0.490997,-1.114162 l 2.229222,1.390458 c -0.320232,0.288786 -0.639318,0.564486 -0.954624,0.824886 z m 3.589667,4.595513 c -0.171147,0.274388 -0.358173,0.537802 -0.560055,0.788976 -0.15622,-1.162743 -0.63676,-2.388789 -1.424422,-3.616015 -0.210397,-0.327751 -0.440185,-0.649521 -0.686655,-0.964734 0.475806,-0.398443 0.957864,-0.828442 1.439009,-1.283871 5.4e-5,-1.3e-5 9.6e-5,-8e-5 9.6e-5,-8e-5 0.685847,-0.648245 1.364535,-1.341709 2.025367,-2.064804 0.03596,0.111978 0.07069,0.22453 0.102554,0.338087 0.669216,2.387565 0.351044,4.803314 -0.895894,6.802441 z m 6.068789,-16.87216 c -0.008,-0.0056 -0.01573,-0.01158 -0.0241,-0.0168 l -2.000332,-1.24769 c -0.282416,-0.176155 -0.654183,-0.09001 -0.830393,0.192421 -0.176154,0.282417 -0.09001,0.654184 0.192409,0.830339 l 2.000332,1.247689 c 0.04275,0.02667 0.08772,0.04658 0.133532,0.0615 -1.659601,3.161361 -4.378835,6.731733 -7.264705,9.531616 L 45.97635,90.272594 c 0.353447,-1.50052 0.299988,-2.678489 0.295914,-2.755845 -0.01024,-0.196583 -0.115887,-0.375866 -0.282888,-0.480031 -0.167122,-0.104195 -0.374533,-0.120181 -0.555541,-0.04298 -0.07125,0.03042 -1.152689,0.50046 -2.344821,1.477857 l -2.782882,-1.735798 c 1.243992,-3.81795 3.250474,-7.824206 5.355911,-10.703902 0.01551,0.01186 0.03153,0.0232 0.04839,0.03372 l 4.249894,2.650835 c 0.141241,0.0881 0.304771,0.110589 0.45502,0.07577 0.15025,-0.03482 0.287262,-0.127007 0.375318,-0.268182 0.176155,-0.282416 0.09001,-0.654184 -0.192409,-0.830338 L 46.39841,75.074081 c 0.25766,-0.263641 0.602305,-0.523399 1.03219,-0.776923 l 4.683186,2.921097 4.682116,2.920429 c -0.03858,0.498202 -0.120358,0.922618 -0.244023,1.270256 z m 0.24905,-2.687863 -8.09928,-5.051856 c 2.387144,-1.004241 5.511841,-1.548811 6.70565,-1.731519 0.361099,1.152243 1.24623,4.196422 1.39363,6.783375 z"
       id="path1-9"
       style="fill:#032a4b;fill-opacity:1;stroke-width:0.0557595" /><path
       d="m 51.709378,79.097074 c -0.176154,0.282416 -0.09001,0.654184 0.192409,0.830338 l 0.07233,0.04511 c 0.141242,0.0881 0.304771,0.110589 0.45502,0.07577 0.15025,-0.03482 0.287274,-0.126953 0.375318,-0.268182 0.176155,-0.282416 0.09001,-0.654184 -0.192408,-0.830338 l -0.07233,-0.04511 c -0.282429,-0.176209 -0.654197,-0.09006 -0.830339,0.192409 z"
       id="path2-4"
       style="fill:#032a4b;fill-opacity:1;stroke-width:0.0557595" /><path
       d="m 47.646308,79.951009 c -0.862605,0.199886 -1.595712,0.723717 -2.064289,1.474954 -0.967328,1.550847 -0.492587,3.599588 1.05826,4.566915 0.751237,0.468578 1.640077,0.616566 2.502627,0.416693 0.862605,-0.199885 1.595712,-0.723716 2.064289,-1.474953 0.468632,-0.751249 0.616566,-1.640077 0.416693,-2.502627 -0.199873,-0.86255 -0.723717,-1.595711 -1.474953,-2.064289 -0.751237,-0.468577 -1.640023,-0.616578 -2.502627,-0.416693 z m 2.538152,4.345734 c -0.298223,0.47812 -0.764747,0.811395 -1.313652,0.938589 -0.548906,0.127194 -1.114491,0.03297 -1.592586,-0.265146 -0.986885,-0.615561 -1.288992,-1.9193 -0.673431,-2.906185 0.298169,-0.478108 0.764747,-0.811395 1.313653,-0.938589 0.548905,-0.127194 1.114465,-0.03308 1.592586,0.265146 0.478066,0.298236 0.811395,0.764747 0.938589,1.313653 0.127236,0.548838 0.03301,1.114424 -0.265159,1.592532 z"
       id="path3-0"
       style="fill:#032a4b;fill-opacity:1;stroke-width:0.0557595" /></g></svg>
