<?xml version="1.0" encoding="UTF-8" standalone="no"?>
<!-- Created with Inkscape (http://www.inkscape.org/) -->

<svg
   width="67.73333mm"
   height="68.473595mm"
   viewBox="0 0 67.73333 68.473595"
   version="1.1"
   id="svg1"
   xml:space="preserve"
   inkscape:version="1.3 (0e150ed6c4, 2023-07-21)"
   sodipodi:docname="gestioneindustrialequalità.svg"
   xmlns:inkscape="http://www.inkscape.org/namespaces/inkscape"
   xmlns:sodipodi="http://sodipodi.sourceforge.net/DTD/sodipodi-0.dtd"
   xmlns="http://www.w3.org/2000/svg"
   xmlns:svg="http://www.w3.org/2000/svg"><sodipodi:namedview
     id="namedview1"
     pagecolor="#ffffff"
     bordercolor="#000000"
     borderopacity="0.25"
     inkscape:showpageshadow="2"
     inkscape:pageopacity="0.0"
     inkscape:pagecheckerboard="0"
     inkscape:deskcolor="#d1d1d1"
     inkscape:document-units="mm"
     inkscape:zoom="2.2672702"
     inkscape:cx="148.85743"
     inkscape:cy="125.92236"
     inkscape:window-width="1920"
     inkscape:window-height="1001"
     inkscape:window-x="-9"
     inkscape:window-y="-9"
     inkscape:window-maximized="1"
     inkscape:current-layer="layer1" /><defs
     id="defs1">&#10;	&#10;&#10;	&#10;&#10;&#10;&#10;&#10;&#10;&#10;&#10;&#10;&#10;&#10;&#10;&#10;&#10;		&#10;	&#10;		&#10;	</defs><g
     inkscape:label="Livello 1"
     inkscape:groupmode="layer"
     id="layer1"
     transform="translate(49.937802,-51.624227)"><path
       id="rect1"
       style="fill:#e0aaff;stroke-width:0.394965"
       d="M -49.937804,51.624228 H 17.795529 V 120.09782 H -49.937804 Z" /><path
       id="path585"
       style="fill:#000001;stroke-width:0.63755;fill-opacity:0.24705882"
       d="M -5.2578419 67.847009 C -5.3580536 67.847009 -5.45871 67.880989 -5.540512 67.949329 L -8.0633554 70.052043 L -11.431625 70.052043 C -11.54052 70.052043 -11.64089 70.092062 -11.718429 70.158496 C -11.719012 70.158996 -11.719916 70.159544 -11.720496 70.160046 C -11.72085 70.160353 -11.721178 70.160772 -11.72153 70.16108 C -11.798741 70.228461 -11.852709 70.322334 -11.868291 70.430314 L -12.254831 73.138676 L -18.046209 73.138676 C -18.217303 73.138676 -18.372908 73.238156 -18.445667 73.392924 C -18.518427 73.548157 -18.494499 73.7312 -18.384689 73.862146 L -16.4153 76.225826 L -17.290182 77.275891 L -22.657813 71.908777 C -22.666482 71.900109 -22.677501 71.894123 -22.686235 71.885523 C -22.888427 71.686411 -23.106265 71.503253 -23.340976 71.34292 C -23.353517 71.334355 -23.367107 71.327595 -23.379733 71.319149 C -23.619159 71.158945 -23.872578 71.018128 -24.139893 70.90367 C -24.147449 70.900436 -24.155572 70.898598 -24.163148 70.895402 C -24.437899 70.779481 -24.724729 70.687813 -25.023044 70.626168 C -25.024712 70.625823 -25.026542 70.625994 -25.028211 70.625651 C -25.330861 70.563463 -25.644114 70.53005 -25.965105 70.53005 C -28.324029 70.53005 -30.237073 72.187611 -30.619601 74.48278 C -32.277222 74.801555 -33.488291 76.204601 -33.615801 77.925981 C -34.221346 78.021593 -34.763689 78.340161 -35.154208 78.794145 C -35.544747 79.248277 -35.783627 79.838149 -35.783627 80.475696 L -35.783627 80.603337 L -36.421314 80.603337 C -36.803841 80.603337 -37.058485 80.858494 -37.058485 81.241024 L -37.058485 101.77 C -37.058485 101.96127 -36.994778 102.1209 -36.883302 102.23251 L -36.883302 102.23302 L -19.018759 120.09757 L 17.795531 120.09757 L 17.795531 83.221782 L 7.8416169 73.267867 C 7.8391629 73.265415 7.8348234 73.266125 7.8323152 73.263733 C 7.7516605 73.186694 7.6454793 73.138676 7.5300081 73.138676 L 4.1849926 73.138676 L 1.2275504 70.181234 C 1.2252914 70.178975 1.2210721 70.179825 1.2187654 70.177616 C 1.1389954 70.100909 1.0333163 70.052043 0.91542473 70.052043 L -2.4528451 70.052043 C -2.9722826 69.619003 -4.9756886 67.949329 -4.9756886 67.949329 C -5.0574904 67.880989 -5.1576312 67.847009 -5.2578419 67.847009 z " /><path
       id="path1"
       style="fill:#000000;stroke-width:0.63755"
       d="m -25.965231,70.53005 c -2.35893,0 -4.271966,1.657555 -4.654497,3.95273 -1.657624,0.318775 -2.868689,1.721818 -2.996199,3.443201 -1.211343,0.191265 -2.167827,1.274617 -2.167827,2.549715 v 0.127641 h -0.637687 c -0.382527,0 -0.63717,0.255157 -0.63717,0.637687 V 101.77 c 0,0.38253 0.254643,0.63769 0.63717,0.63769 h 25.183476 c 0.38253,0 0.637687,-0.25516 0.637687,-0.63769 V 85.321395 c -0.06376,-0.25502 -0.191657,-0.446615 -0.382922,-0.574125 -0.191265,-0.12751 -0.509987,-0.06344 -0.701249,0.06408 l -4.909261,3.889168 v -3.697966 c 0,-0.255017 -0.127062,-0.446098 -0.318327,-0.573608 -0.191265,-0.12751 -0.446425,-0.06396 -0.637687,0.06356 l -5.992916,4.335136 -0.318844,-4.016292 c 0,-0.191265 -0.127581,-0.446292 -0.318843,-0.510047 -0.191266,-0.12751 -0.446423,-0.06376 -0.637688,0 l -7.204211,4.335136 v -5.865275 c 0.446282,-0.25502 0.828635,-0.573808 1.083655,-1.020093 0.318772,0.12751 0.701644,0.127641 1.084171,0.127641 1.402607,0 2.613934,-0.765477 3.251481,-1.913061 0.191265,0 0.382668,0.06408 0.637688,0.06408 2.613947,0 4.717541,-2.104111 4.717541,-4.718058 0,-2.613947 -2.103594,-4.78162 -4.717541,-4.78162 z m 0,1.275374 c 1.912647,0 3.442683,1.529844 3.442683,3.506246 0,1.912647 -1.530036,3.442684 -3.442683,3.442684 -0.25502,0 -0.573872,-0.06337 -0.82889,-0.127124 -0.318775,-0.06376 -0.63782,0.06364 -0.765328,0.382406 -0.38253,0.956324 -1.274873,1.593701 -2.294951,1.593701 -0.382528,0 -0.765205,-0.0635 -1.147733,-0.254765 -0.191265,-0.06376 -0.382344,-0.06376 -0.573609,0 -0.191265,0.06376 -0.319167,0.254704 -0.382922,0.445967 0,0.12751 -0.06337,0.255413 -0.127124,0.382923 -0.06376,-0.318775 -0.318914,-0.510047 -0.637687,-0.510047 h -1.848983 c 0.06376,-0.06376 0.06408,-0.127964 0.06408,-0.191719 0,-0.765059 0.57336,-1.33842 1.338419,-1.33842 h 0.19172 c 0.191265,0 0.38202,-0.06421 0.50953,-0.191719 0.127508,-0.12751 0.191719,-0.318265 0.191719,-0.50953 v -0.318843 c 0,-1.275098 1.019853,-2.422915 2.29495,-2.48667 0.318775,0 0.573609,-0.254834 0.573609,-0.573609 0.06376,-1.848892 1.594307,-3.251481 3.4432,-3.251481 z m -9.818523,10.073287 h 0.765328 1.721342 v 1.020093 h -2.48667 z m 0,2.358512 h 2.48667 v 5.546949 c 0,0.255017 0.127579,0.446098 0.318844,0.573608 0.191265,0.12751 0.445908,0.12751 0.63717,0 l 7.268291,-4.335136 0.318843,4.080371 c 0,0.25502 0.127386,0.446292 0.382406,0.510047 0.191266,0.12751 0.446422,0.06344 0.637687,-0.06408 l 5.928837,-4.271574 v 3.761527 c 0,0.25502 0.127905,0.446616 0.382922,0.574126 0.191265,0.12751 0.509985,0.06344 0.70125,-0.06408 l 4.909261,-3.888652 v 14.471981 h -0.127641 -23.84454 z" /><path
       id="path2"
       style="fill:#000000;stroke-width:0.63755"
       d="m -16.019585,95.203479 c -0.38253,0 -0.637687,0.25464 -0.637687,0.637171 v 2.741953 c 0,0.38253 0.255157,0.63717 0.637687,0.63717 h 2.741434 c 0.38253,0 0.637688,-0.25464 0.637688,-0.63717 V 95.84065 c 0,-0.382531 -0.255158,-0.637171 -0.637688,-0.637171 z m 0.637687,1.274854 h 1.46606 v 1.46658 h -1.46606 z" /><path
       id="path3"
       style="fill:#000000;stroke-width:0.63755"
       d="m -26.794121,95.203479 c -0.38253,0 -0.637688,0.25464 -0.637688,0.637171 v 2.741953 c 0,0.38253 0.255158,0.63717 0.637688,0.63717 h 2.741434 c 0.38253,0 0.637687,-0.25464 0.637687,-0.63717 V 95.84065 c 0,-0.318776 -0.318912,-0.637171 -0.637687,-0.637171 z m 0.63717,1.274854 h 1.466577 v 1.46658 h -1.466577 z" /><path
       id="path4"
       style="fill:#000000;stroke-width:0.63755"
       d="m -32.149867,91.760795 c -0.382529,0 -0.63717,0.254641 -0.63717,0.637171 V 95.1394 c 0,0.38253 0.254641,0.637688 0.63717,0.637688 h 2.741435 c 0.382529,0 0.637687,-0.255158 0.637687,-0.637688 v -2.741434 c 0,-0.318775 -0.318912,-0.637171 -0.637687,-0.637171 z m 0.637687,1.33842 h 1.466577 v 1.466577 h -1.466577 z" /><path
       id="path5"
       style="fill:#000000;stroke-width:0.63755"
       d="m -21.438893,91.760795 c -0.382529,0 -0.637687,0.254641 -0.637687,0.637171 V 95.1394 c 0,0.38253 0.255158,0.637688 0.637687,0.637688 h 2.741435 c 0.38253,0 0.637687,-0.255158 0.637687,-0.637688 v -2.741434 c 0,-0.318775 -0.255157,-0.637171 -0.637687,-0.637171 z m 0.637687,1.33842 h 1.466061 v 1.466577 h -1.466061 z" /><path
       id="path1-3"
       style="fill:#00de00;fill-opacity:1;stroke-width:0.0516755"
       d="m -2.1713349,72.256559 c -0.112775,0 -0.225414,0.04349 -0.311609,0.129708 l -4.539258,4.538741 -1.452107,-1.452107 c -0.172441,-0.172441 -0.450829,-0.172441 -0.623218,0 l -1.3229171,1.322916 c -0.172441,0.17239 -0.172441,0.450828 0,0.623218 l 3.0866331,3.08715 c 0.08599,0.08645 0.19875,0.129191 0.311609,0.129191 0.112911,0 0.226138,-0.0432 0.312126,-0.129191 l 6.17326699,-6.173783 c 0.17244,-0.172389 0.17244,-0.450777 0,-0.623218 L -1.8597259,72.386267 c -0.08622,-0.08622 -0.198834,-0.129708 -0.311609,-0.129708 z m 0,1.064535 0.699182,0.699699 -5.550049,5.550049 -2.462898,-2.463416 0.699182,-0.699182 1.452107,1.452108 c 0.172441,0.172441 0.451346,0.172441 0.623735,0 z" /><path
       id="path2-8"
       style="fill:#00de00;fill-opacity:1;stroke-width:0.0516755"
       d="m -5.2579679,67.847009 c -0.100212,0 -0.200868,0.03398 -0.28267,0.10232 l -2.522844,2.102714 h -3.3682701 c -0.219618,0 -0.405352,0.161286 -0.436665,0.378271 l -0.38654,2.708362 h -5.791378 c -0.171097,0 -0.3267,0.09948 -0.399459,0.254248 -0.07276,0.155233 -0.04883,0.338276 0.06098,0.469222 l 1.969389,2.36368 -1.969389,2.363163 c -0.109808,0.131411 -0.133276,0.314457 -0.06098,0.469222 0.07276,0.155233 0.228362,0.254248 0.399459,0.254248 h 5.791378 c 0.117717,0.822416 0.387056,2.708362 0.387056,2.708362 0.03085,0.217399 0.216996,0.378272 0.436149,0.378272 h 3.3682701 l 2.52336,2.102714 c 0.08201,0.06837 0.182058,0.102319 0.282154,0.102319 0.100095,0 0.200609,-0.03395 0.282153,-0.102319 l 2.522843,-2.102714 c 0.685269,0 3.36914798,0.0018 3.36826998,0 0.21962102,0 0.40535002,-0.161286 0.43666602,-0.378272 0,0 0.269341,-1.885946 0.387057,-2.708362 h 5.790861 c 0.171095,0 0.326702,-0.09948 0.399458,-0.254248 0.07286,-0.155282 0.048832,-0.338276 -0.060978,-0.469222 l -1.969389,-2.36368 1.969389,-2.363163 c 0.10981,-0.131411 0.133276,-0.314454 0.060978,-0.469222 -0.072757,-0.154768 -0.228363,-0.254248 -0.399458,-0.254248 h -5.791378 l -0.38654,-2.707845 C 1.3211141,70.213432 1.1349191,70.052043 0.91529808,70.052043 H -2.4529719 c -0.519439,-0.43304 -2.522843,-2.102714 -2.522843,-2.102714 -0.081802,-0.06834 -0.181942,-0.10232 -0.282153,-0.10232 z m 0,1.015442 c 2.402385,2.001954 2.403884,2.00267 2.448429,2.0252 0.06129,0.03044 0.129089,0.04651 0.197404,0.04651 h 3.14502798 l 0.387056,2.708362 c 0.01147,0.08113 0.045219,0.157098 0.097669,0.220142 l 1.969389,2.362644 -1.968873,2.363164 c -0.0216,0.02599 -0.040313,0.05483 -0.055293,0.08527 -0.03085,0.06175 -0.03256,0.0643 -0.429432,2.843237 -3.24944598,0 -3.25256798,0.0021 -3.34294798,0.04703 -0.03044,0.01545 -0.058709,0.03369 -0.084749,0.05529 l -2.36368,1.969389 -2.36368,-1.969389 c -0.07891,-0.06614 -0.17901,-0.102319 -0.282154,-0.102319 h -3.1455441 c -0.396867,-2.778944 -0.398064,-2.781485 -0.428914,-2.843237 -0.01545,-0.03044 -0.03421,-0.05923 -0.05581,-0.08527 l -1.969389,-2.363164 1.969389,-2.363163 c 0.0525,-0.06304 0.08676,-0.139014 0.09818,-0.220141 l 0.38654,-2.707846 h 3.1455441 c 0.103196,0 0.20278,-0.03617 0.282154,-0.102319 z M -17.10479,74.020793 h 4.290694 l -1.60197,1.922363 c -0.136267,0.163605 -0.136267,0.401633 0,0.564823 l 1.60197,1.922364 h -4.290694 l 1.601969,-1.922364 c 0.136268,-0.163602 0.136268,-0.401632 0,-0.564823 z m 19.4024331,0 h 4.290694 l -1.601969,1.922363 c -0.136268,0.163604 -0.136268,0.401633 0,0.564823 l 1.601969,1.922364 h -4.290694 l 1.601969,-1.922364 c 0.136269,-0.163603 0.136269,-0.401632 0,-0.564823 z" /><path
       id="path305"
       style="fill:#000000;stroke-width:0.63755"
       d="m -25.965231,70.53005 c -2.35893,0 -4.271966,1.657555 -4.654497,3.95273 -1.657624,0.318775 -2.868689,1.721818 -2.996199,3.443201 -1.211343,0.191265 -2.167827,1.274617 -2.167827,2.549715 v 0.127641 h -0.637687 c -0.382527,0 -0.63717,0.255157 -0.63717,0.637687 V 101.77 c 0,0.38253 0.254643,0.63769 0.63717,0.63769 h 25.183476 c 0.38253,0 0.637687,-0.25516 0.637687,-0.63769 V 85.321395 c -0.06376,-0.25502 -0.191657,-0.446615 -0.382922,-0.574125 -0.191265,-0.12751 -0.509987,-0.06344 -0.701249,0.06408 l -4.909261,3.889168 v -3.697966 c 0,-0.255017 -0.127062,-0.446098 -0.318327,-0.573608 -0.191265,-0.12751 -0.446425,-0.06396 -0.637687,0.06356 l -5.992916,4.335136 -0.318844,-4.016292 c 0,-0.191265 -0.127581,-0.446292 -0.318843,-0.510047 -0.191266,-0.12751 -0.446423,-0.06376 -0.637688,0 l -7.204211,4.335136 v -5.865275 c 0.446282,-0.25502 0.828635,-0.573808 1.083655,-1.020093 0.318772,0.12751 0.701644,0.127641 1.084171,0.127641 1.402607,0 2.613934,-0.765477 3.251481,-1.913061 0.191265,0 0.382668,0.06408 0.637688,0.06408 2.613947,0 4.717541,-2.104111 4.717541,-4.718058 0,-2.613947 -2.103594,-4.78162 -4.717541,-4.78162 z m 0,1.275374 c 1.912647,0 3.442683,1.529844 3.442683,3.506246 0,1.912647 -1.530036,3.442684 -3.442683,3.442684 -0.25502,0 -0.573872,-0.06337 -0.82889,-0.127124 -0.318775,-0.06376 -0.63782,0.06364 -0.765328,0.382406 -0.38253,0.956324 -1.274873,1.593701 -2.294951,1.593701 -0.382528,0 -0.765205,-0.0635 -1.147733,-0.254765 -0.191265,-0.06376 -0.382344,-0.06376 -0.573609,0 -0.191265,0.06376 -0.319167,0.254704 -0.382922,0.445967 0,0.12751 -0.06337,0.255413 -0.127124,0.382923 -0.06376,-0.318775 -0.318914,-0.510047 -0.637687,-0.510047 h -1.848983 c 0.06376,-0.06376 0.06408,-0.127964 0.06408,-0.191719 0,-0.765059 0.57336,-1.33842 1.338419,-1.33842 h 0.19172 c 0.191265,0 0.38202,-0.06421 0.50953,-0.191719 0.127508,-0.12751 0.191719,-0.318265 0.191719,-0.50953 v -0.318843 c 0,-1.275098 1.019853,-2.422915 2.29495,-2.48667 0.318775,0 0.573609,-0.254834 0.573609,-0.573609 0.06376,-1.848892 1.594307,-3.251481 3.4432,-3.251481 z m -9.818523,10.073287 h 0.765328 1.721342 v 1.020093 h -2.48667 z m 0,2.358512 h 2.48667 v 5.546949 c 0,0.255017 0.127579,0.446098 0.318844,0.573608 0.191265,0.12751 0.445908,0.12751 0.63717,0 l 7.268291,-4.335136 0.318843,4.080371 c 0,0.25502 0.127386,0.446292 0.382406,0.510047 0.191266,0.12751 0.446422,0.06344 0.637687,-0.06408 l 5.928837,-4.271574 v 3.761527 c 0,0.25502 0.127905,0.446616 0.382922,0.574126 0.191265,0.12751 0.509985,0.06344 0.70125,-0.06408 l 4.909261,-3.888652 v 14.471981 h -0.127641 -23.84454 z" /><path
       id="path306"
       style="fill:#000000;stroke-width:0.63755"
       d="m -16.019585,95.203479 c -0.38253,0 -0.637687,0.25464 -0.637687,0.637171 v 2.741953 c 0,0.38253 0.255157,0.63717 0.637687,0.63717 h 2.741434 c 0.38253,0 0.637688,-0.25464 0.637688,-0.63717 V 95.84065 c 0,-0.382531 -0.255158,-0.637171 -0.637688,-0.637171 z m 0.637687,1.274854 h 1.46606 v 1.46658 h -1.46606 z" /><path
       id="path307"
       style="fill:#000000;stroke-width:0.63755"
       d="m -26.794121,95.203479 c -0.38253,0 -0.637688,0.25464 -0.637688,0.637171 v 2.741953 c 0,0.38253 0.255158,0.63717 0.637688,0.63717 h 2.741434 c 0.38253,0 0.637687,-0.25464 0.637687,-0.63717 V 95.84065 c 0,-0.318776 -0.318912,-0.637171 -0.637687,-0.637171 z m 0.63717,1.274854 h 1.466577 v 1.46658 h -1.466577 z" /><path
       id="path308"
       style="fill:#000000;stroke-width:0.63755"
       d="m -32.149867,91.760795 c -0.382529,0 -0.63717,0.254641 -0.63717,0.637171 V 95.1394 c 0,0.38253 0.254641,0.637688 0.63717,0.637688 h 2.741435 c 0.382529,0 0.637687,-0.255158 0.637687,-0.637688 v -2.741434 c 0,-0.318775 -0.318912,-0.637171 -0.637687,-0.637171 z m 0.637687,1.33842 h 1.466577 v 1.466577 h -1.466577 z" /><path
       id="path309"
       style="fill:#000000;stroke-width:0.63755"
       d="m -21.438893,91.760795 c -0.382529,0 -0.637687,0.254641 -0.637687,0.637171 V 95.1394 c 0,0.38253 0.255158,0.637688 0.637687,0.637688 h 2.741435 c 0.38253,0 0.637687,-0.255158 0.637687,-0.637688 v -2.741434 c 0,-0.318775 -0.255157,-0.637171 -0.637687,-0.637171 z m 0.637687,1.33842 h 1.466061 v 1.466577 h -1.466061 z" /><path
       id="path310"
       style="fill:#00de00;fill-opacity:1;stroke-width:0.0516755"
       d="m -2.1713349,72.256559 c -0.112775,0 -0.225414,0.04349 -0.311609,0.129708 l -4.539258,4.538741 -1.452107,-1.452107 c -0.172441,-0.172441 -0.450829,-0.172441 -0.623218,0 l -1.3229171,1.322916 c -0.172441,0.17239 -0.172441,0.450828 0,0.623218 l 3.0866331,3.08715 c 0.08599,0.08645 0.19875,0.129191 0.311609,0.129191 0.112911,0 0.226138,-0.0432 0.312126,-0.129191 l 6.17326699,-6.173783 c 0.17244,-0.172389 0.17244,-0.450777 0,-0.623218 L -1.8597259,72.386267 c -0.08622,-0.08622 -0.198834,-0.129708 -0.311609,-0.129708 z m 0,1.064535 0.699182,0.699699 -5.550049,5.550049 -2.462898,-2.463416 0.699182,-0.699182 1.452107,1.452108 c 0.172441,0.172441 0.451346,0.172441 0.623735,0 z" /><path
       id="path311"
       style="fill:#00de00;fill-opacity:1;stroke-width:0.0516755"
       d="m -5.2579679,67.847009 c -0.100212,0 -0.200868,0.03398 -0.28267,0.10232 l -2.522844,2.102714 h -3.3682701 c -0.219618,0 -0.405352,0.161286 -0.436665,0.378271 l -0.38654,2.708362 h -5.791378 c -0.171097,0 -0.3267,0.09948 -0.399459,0.254248 -0.07276,0.155233 -0.04883,0.338276 0.06098,0.469222 l 1.969389,2.36368 -1.969389,2.363163 c -0.109808,0.131411 -0.133276,0.314457 -0.06098,0.469222 0.07276,0.155233 0.228362,0.254248 0.399459,0.254248 h 5.791378 c 0.117717,0.822416 0.387056,2.708362 0.387056,2.708362 0.03085,0.217399 0.216996,0.378272 0.436149,0.378272 h 3.3682701 l 2.52336,2.102714 c 0.08201,0.06837 0.182058,0.102319 0.282154,0.102319 0.100095,0 0.200609,-0.03395 0.282153,-0.102319 l 2.522843,-2.102714 c 0.685269,0 3.36914798,0.0018 3.36826998,0 0.21962102,0 0.40535002,-0.161286 0.43666602,-0.378272 0,0 0.269341,-1.885946 0.387057,-2.708362 h 5.790861 c 0.171095,0 0.326702,-0.09948 0.399458,-0.254248 0.07286,-0.155282 0.048832,-0.338276 -0.060978,-0.469222 l -1.969389,-2.36368 1.969389,-2.363163 c 0.10981,-0.131411 0.133276,-0.314454 0.060978,-0.469222 -0.072757,-0.154768 -0.228363,-0.254248 -0.399458,-0.254248 h -5.791378 l -0.38654,-2.707845 C 1.3211141,70.213432 1.1349191,70.052043 0.91529808,70.052043 H -2.4529719 c -0.519439,-0.43304 -2.522843,-2.102714 -2.522843,-2.102714 -0.081802,-0.06834 -0.181942,-0.10232 -0.282153,-0.10232 z m 0,1.015442 c 2.402385,2.001954 2.403884,2.00267 2.448429,2.0252 0.06129,0.03044 0.129089,0.04651 0.197404,0.04651 h 3.14502798 l 0.387056,2.708362 c 0.01147,0.08113 0.045219,0.157098 0.097669,0.220142 l 1.969389,2.362644 -1.968873,2.363164 c -0.0216,0.02599 -0.040313,0.05483 -0.055293,0.08527 -0.03085,0.06175 -0.03256,0.0643 -0.429432,2.843237 -3.24944598,0 -3.25256798,0.0021 -3.34294798,0.04703 -0.03044,0.01545 -0.058709,0.03369 -0.084749,0.05529 l -2.36368,1.969389 -2.36368,-1.969389 c -0.07891,-0.06614 -0.17901,-0.102319 -0.282154,-0.102319 h -3.1455441 c -0.396867,-2.778944 -0.398064,-2.781485 -0.428914,-2.843237 -0.01545,-0.03044 -0.03421,-0.05923 -0.05581,-0.08527 l -1.969389,-2.363164 1.969389,-2.363163 c 0.0525,-0.06304 0.08676,-0.139014 0.09818,-0.220141 l 0.38654,-2.707846 h 3.1455441 c 0.103196,0 0.20278,-0.03617 0.282154,-0.102319 z M -17.10479,74.020793 h 4.290694 l -1.60197,1.922363 c -0.136267,0.163605 -0.136267,0.401633 0,0.564823 l 1.60197,1.922364 h -4.290694 l 1.601969,-1.922364 c 0.136268,-0.163602 0.136268,-0.401632 0,-0.564823 z m 19.4024331,0 h 4.290694 l -1.601969,1.922363 c -0.136268,0.163604 -0.136268,0.401633 0,0.564823 l 1.601969,1.922364 h -4.290694 l 1.601969,-1.922364 c 0.136269,-0.163603 0.136269,-0.401632 0,-0.564823 z" /></g></svg>
