<?xml version="1.0" encoding="UTF-8" standalone="no"?>
<!-- Created with Inkscape (http://www.inkscape.org/) -->

<svg
   width="256"
   height="256"
   viewBox="0 0 67.733334 67.733334"
   version="1.1"
   id="svg1"
   xml:space="preserve"
   inkscape:version="1.3 (0e150ed6c4, 2023-07-21)"
   sodipodi:docname="giqsemplice.svg"
   xmlns:inkscape="http://www.inkscape.org/namespaces/inkscape"
   xmlns:sodipodi="http://sodipodi.sourceforge.net/DTD/sodipodi-0.dtd"
   xmlns="http://www.w3.org/2000/svg"
   xmlns:svg="http://www.w3.org/2000/svg"><sodipodi:namedview
     id="namedview1"
     pagecolor="#ffffff"
     bordercolor="#000000"
     borderopacity="0.25"
     inkscape:showpageshadow="2"
     inkscape:pageopacity="0.0"
     inkscape:pagecheckerboard="0"
     inkscape:deskcolor="#d1d1d1"
     inkscape:document-units="mm"
     inkscape:zoom="2.2672702"
     inkscape:cx="180.61367"
     inkscape:cy="128.56871"
     inkscape:window-width="1920"
     inkscape:window-height="1001"
     inkscape:window-x="-9"
     inkscape:window-y="-9"
     inkscape:window-maximized="1"
     inkscape:current-layer="layer1" /><defs
     id="defs1">&#10;	&#10;&#10;	&#10;&#10;&#10;&#10;&#10;&#10;&#10;&#10;&#10;&#10;&#10;&#10;&#10;&#10;		&#10;	&#10;		&#10;	</defs><g
     inkscape:label="Livello 1"
     inkscape:groupmode="layer"
     id="layer1"
     transform="translate(121.23959,-41.588297)"><path
       id="rect1"
       style="fill:#e0aaff;stroke-width:0.392824"
       d="m -121.23959,41.588297 h 67.733332 v 67.733333 h -67.733332 z" /><path
       id="path163"
       style="fill:#000001;stroke-width:0.63755;fill-opacity:0.24705882"
       d="M -89.50871 59.886405 C -89.799629 59.886405 -90.083467 59.912311 -90.358788 59.960819 C -90.366236 59.962132 -90.373573 59.963606 -90.381008 59.964953 C -90.655895 60.014725 -90.92224 60.087114 -91.177342 60.181477 C -91.435866 60.277106 -91.683351 60.394376 -91.917349 60.531844 C -92.151347 60.66931 -92.372022 60.826778 -92.577257 61.002099 C -92.782492 61.17742 -92.971912 61.37065 -93.144147 61.579842 C -93.316383 61.789032 -93.471135 62.014108 -93.606135 62.253186 C -93.741133 62.492262 -93.856773 62.745268 -93.9503 63.010245 C -94.043826 63.275224 -94.11539 63.55224 -94.163207 63.839135 C -95.820825 64.15791 -97.031896 65.560959 -97.159406 67.282336 C -98.370746 67.473601 -99.327232 68.556956 -99.327232 69.832051 L -99.327232 69.959692 L -99.96492 69.959692 C -100.34745 69.959692 -100.60209 70.214849 -100.60209 70.597379 L -100.60209 91.126359 C -100.60209 91.317622 -100.53838 91.477257 -100.42691 91.588863 L -82.694139 109.32163 L -53.506257 109.32163 L -53.506257 93.960294 L -86.201419 61.265132 C -86.210087 61.256464 -86.221106 61.250479 -86.229841 61.241878 C -86.432031 61.042766 -86.649871 60.859608 -86.884581 60.699275 C -86.897122 60.690709 -86.910712 60.683951 -86.923338 60.675504 C -87.162764 60.5153 -87.416182 60.374482 -87.683499 60.260026 C -87.691055 60.256791 -87.699177 60.254953 -87.706753 60.251757 C -87.981504 60.135836 -88.268334 60.044168 -88.566649 59.982523 C -88.568317 59.982178 -88.570148 59.982349 -88.571817 59.982006 C -88.874465 59.919818 -89.18772 59.886405 -89.50871 59.886405 z " /><path
       id="path1"
       style="fill:#000000;stroke-width:0.63755"
       d="m -89.508711,59.886273 c -2.35893,0 -4.271966,1.657555 -4.654497,3.95273 -1.657624,0.318775 -2.868689,1.721818 -2.996199,3.443201 -1.211343,0.191265 -2.167827,1.274617 -2.167827,2.549715 v 0.127641 h -0.637687 c -0.382529,0 -0.637169,0.255157 -0.637169,0.637687 v 20.528972 c 0,0.38253 0.25464,0.63769 0.637169,0.63769 h 25.183476 c 0.38253,0 0.637687,-0.25516 0.637687,-0.63769 V 74.677618 c -0.06376,-0.25502 -0.191657,-0.446615 -0.382922,-0.574125 -0.191265,-0.12751 -0.509987,-0.06344 -0.701249,0.06408 l -4.909261,3.889168 v -3.697966 c 0,-0.255017 -0.127062,-0.446098 -0.318327,-0.573608 -0.191265,-0.12751 -0.446425,-0.06396 -0.637687,0.06356 l -5.992916,4.335136 -0.318844,-4.016292 c 0,-0.191265 -0.127581,-0.446292 -0.318843,-0.510047 -0.191266,-0.12751 -0.446423,-0.06376 -0.637688,0 l -7.204211,4.335136 v -5.865275 c 0.446282,-0.25502 0.828635,-0.573808 1.083655,-1.020093 0.318772,0.12751 0.701644,0.127641 1.084171,0.127641 1.402607,0 2.613934,-0.765477 3.251481,-1.913061 0.191265,0 0.382668,0.06408 0.637688,0.06408 2.613947,0 4.717541,-2.104111 4.717541,-4.718058 0,-2.613947 -2.103594,-4.78162 -4.717541,-4.78162 z m 0,1.275374 c 1.912647,0 3.442683,1.529844 3.442683,3.506246 0,1.912647 -1.530036,3.442684 -3.442683,3.442684 -0.25502,0 -0.573872,-0.06337 -0.82889,-0.127124 -0.318775,-0.06376 -0.63782,0.06364 -0.765328,0.382406 -0.38253,0.956324 -1.274873,1.593701 -2.294951,1.593701 -0.382528,0 -0.765205,-0.0635 -1.147733,-0.254765 -0.191265,-0.06376 -0.382344,-0.06376 -0.573609,0 -0.191265,0.06376 -0.319167,0.254704 -0.382922,0.445967 0,0.12751 -0.06337,0.255413 -0.127124,0.382923 -0.06376,-0.318775 -0.318914,-0.510047 -0.637687,-0.510047 h -1.848983 c 0.06376,-0.06376 0.06408,-0.127964 0.06408,-0.191719 0,-0.765059 0.57336,-1.33842 1.338419,-1.33842 h 0.19172 c 0.191265,0 0.38202,-0.06421 0.50953,-0.191719 0.127508,-0.12751 0.191719,-0.318265 0.191719,-0.50953 v -0.318843 c 0,-1.275098 1.019853,-2.422915 2.29495,-2.48667 0.318775,0 0.573609,-0.254834 0.573609,-0.573609 0.06376,-1.848892 1.594307,-3.251481 3.4432,-3.251481 z m -9.818523,10.073287 h 0.765328 1.721342 v 1.020093 h -2.48667 z m 0,2.358512 h 2.48667 v 5.546949 c 0,0.255017 0.127579,0.446098 0.318844,0.573608 0.191265,0.12751 0.445908,0.12751 0.63717,0 l 7.268291,-4.335136 0.318843,4.080371 c 0,0.25502 0.127386,0.446292 0.382406,0.510047 0.191266,0.12751 0.446422,0.06344 0.637687,-0.06408 l 5.928837,-4.271574 v 3.761527 c 0,0.25502 0.127905,0.446616 0.382922,0.574126 0.191265,0.12751 0.509985,0.06344 0.70125,-0.06408 l 4.909261,-3.888652 v 14.471977 h -0.127641 -23.84454 z" /><path
       id="path2"
       style="fill:#000000;stroke-width:0.63755"
       d="m -80.436257,85.167548 c -0.38253,0 -0.637687,0.25464 -0.637687,0.637171 v 2.741953 c 0,0.38253 0.255157,0.63717 0.637687,0.63717 h 2.741434 c 0.38253,0 0.637688,-0.25464 0.637688,-0.63717 v -2.741953 c 0,-0.382531 -0.255158,-0.637171 -0.637688,-0.637171 z m 0.637687,1.274854 h 1.46606 v 1.46658 h -1.46606 z" /><path
       id="path3"
       style="fill:#000000;stroke-width:0.63755"
       d="m -91.32749,85.167548 c -0.38253,0 -0.637688,0.25464 -0.637688,0.637171 v 2.741953 c 0,0.38253 0.255158,0.63717 0.637688,0.63717 h 2.741434 c 0.38253,0 0.637687,-0.25464 0.637687,-0.63717 v -2.741953 c 0,-0.318776 -0.318912,-0.637171 -0.637687,-0.637171 z m 0.63717,1.274854 h 1.466577 v 1.46658 h -1.466577 z" /><path
       id="path4"
       style="fill:#000000;stroke-width:0.63755"
       d="m -96.449842,81.724864 c -0.382529,0 -0.63717,0.254641 -0.63717,0.637171 v 2.741434 c 0,0.38253 0.254641,0.637688 0.63717,0.637688 h 2.741435 c 0.382529,0 0.637687,-0.255158 0.637687,-0.637688 v -2.741434 c 0,-0.318775 -0.318912,-0.637171 -0.637687,-0.637171 z m 0.637687,1.33842 h 1.466577 v 1.466577 h -1.466577 z" /><path
       id="path5"
       style="fill:#000000;stroke-width:0.63755"
       d="m -85.855565,81.724864 c -0.382529,0 -0.637687,0.254641 -0.637687,0.637171 v 2.741434 c 0,0.38253 0.255158,0.637688 0.637687,0.637688 h 2.741435 c 0.38253,0 0.637687,-0.255158 0.637687,-0.637688 v -2.741434 c 0,-0.318775 -0.255157,-0.637171 -0.637687,-0.637171 z m 0.637687,1.33842 h 1.466061 v 1.466577 h -1.466061 z" /></g></svg>
