<?xml version="1.0" encoding="UTF-8" standalone="no"?>
<svg
   xmlns:dc="http://purl.org/dc/elements/1.1/"
   xmlns:cc="http://creativecommons.org/ns#"
   xmlns:rdf="http://www.w3.org/1999/02/22-rdf-syntax-ns#"
   xmlns:svg="http://www.w3.org/2000/svg"
   xmlns="http://www.w3.org/2000/svg"
   xmlns:sodipodi="http://sodipodi.sourceforge.net/DTD/sodipodi-0.dtd"
   xmlns:inkscape="http://www.inkscape.org/namespaces/inkscape"
   width="67.733337mm"
   height="67.733337mm"
   viewBox="0 0 67.733338 67.733338"
   version="1.1"
   id="svg883"
   inkscape:version="1.0 (4035a4fb49, 2020-05-01)"
   sodipodi:docname="cryptography.svg">
  <defs
     id="defs877" />
  <sodipodi:namedview
     id="base"
     pagecolor="#4b4b4b"
     bordercolor="#666666"
     borderopacity="1.0"
     inkscape:pageopacity="0"
     inkscape:pageshadow="2"
     inkscape:zoom="2.4007726"
     inkscape:cx="207.39621"
     inkscape:cy="103.95939"
     inkscape:document-units="mm"
     inkscape:current-layer="layer1"
     inkscape:document-rotation="0"
     showgrid="false"
     inkscape:window-width="1920"
     inkscape:window-height="1013"
     inkscape:window-x="-9"
     inkscape:window-y="-9"
     inkscape:window-maximized="1"
     fit-margin-top="0"
     fit-margin-left="0"
     fit-margin-right="0"
     fit-margin-bottom="0" />
  <metadata
     id="metadata880">
    <rdf:RDF>
      <cc:Work
         rdf:about="">
        <dc:format>image/svg+xml</dc:format>
        <dc:type
           rdf:resource="http://purl.org/dc/dcmitype/StillImage" />
        <dc:title></dc:title>
        <cc:license
           rdf:resource="http://creativecommons.org/licenses/by-sa/4.0/" />
      </cc:Work>
      <cc:License
         rdf:about="http://creativecommons.org/licenses/by-sa/4.0/">
        <cc:permits
           rdf:resource="http://creativecommons.org/ns#Reproduction" />
        <cc:permits
           rdf:resource="http://creativecommons.org/ns#Distribution" />
        <cc:requires
           rdf:resource="http://creativecommons.org/ns#Notice" />
        <cc:requires
           rdf:resource="http://creativecommons.org/ns#Attribution" />
        <cc:permits
           rdf:resource="http://creativecommons.org/ns#DerivativeWorks" />
        <cc:requires
           rdf:resource="http://creativecommons.org/ns#ShareAlike" />
      </cc:License>
    </rdf:RDF>
  </metadata>
  <g
     inkscape:label="Livello 1"
     inkscape:groupmode="layer"
     id="layer1"
     transform="translate(179.91668,123.97618)">
    <g
       id="g4871"
       transform="matrix(0.12500001,0,0,0.12500001,-157.42709,-108.47916)">
      <rect
         ry="1.9716274"
         rx="1.971675"
         y="-123.97619"
         x="-179.91667"
         height="541.86664"
         width="541.86664"
         id="rect887"
         style="fill:#304ffe;stroke-width:0.15875" />
      <path
         transform="scale(0.26458333)"
         d="M 344,68.142578 C 177.5258,68.142956 42.572266,202.45754 42.572266,368.14258 v 0.002 97.42578 h -0.002 -120.894531 -0.002 c -24.704505,0 -44.591795,19.88698 -44.591795,44.59375 v 487.95703 c 6.1e-4,13.19236 5.67438,25.00476 14.7207,33.15426 0.98097,1.0731 2.01464,2.0961 3.09571,3.0685 0.96497,1.0531 1.97942,2.0596 3.04101,3.0156 0.97395,1.0643 1.99975,2.0798 3.072266,3.0449 0.966651,1.0554 1.983222,2.0637 3.046875,3.0215 0.97077,1.0603 1.991909,2.0733 3.060547,3.0351 0.964606,1.0529 1.979852,2.058 3.041015,3.0137 0.969926,1.0594 1.990985,2.0703 3.058594,3.0313 0.96544,1.0534 1.980853,2.0595 3.042969,3.0156 0.962624,1.0504 1.974455,2.0542 3.033203,3.0078 0.966521,1.0549 1.98343,2.0622 3.046875,3.0195 0.9569,1.0437 1.961817,2.0422 3.013672,2.9903 0.971234,1.0605 1.993342,2.0732 3.0625,3.0351 0.955517,1.0412 1.959692,2.0365 3.009765,2.9824 0.959908,1.0472 1.967972,2.0491 3.023438,3 0.962465,1.0499 1.974689,2.0527 3.033203,3.0059 0.952602,1.0383 1.953373,2.031 3,2.9746 0.963276,1.0511 1.977582,2.0556 3.037109,3.0098 0.956793,1.0425 1.962093,2.0393 3.013672,2.9863 0.953161,1.0384 1.954727,2.0309 3.001953,2.9746 0.951329,1.0369 1.949042,2.0302 2.994141,2.9727 0.956672,1.0432 1.962116,2.0405 3.013672,2.9883 0.953349,1.0388 1.956421,2.0324 3.003906,2.9765 0.951891,1.037 1.952336,2.0263 2.998047,2.9688 0.951305,1.0363 1.949136,2.0287 2.994141,2.9707 0.949845,1.0345 1.946998,2.0243 2.990234,2.9648 0.949839,1.0345 1.947005,2.0244 2.990234,2.9649 0.951806,1.0364 1.950553,2.0286 2.996094,2.9707 0.944729,1.0278 1.935664,2.0123 2.972656,2.9472 0.946366,1.0302 1.939505,2.0163 2.978516,2.9531 0.949221,1.0332 1.945883,2.0217 2.988281,2.961 0.941576,1.024 1.92972,2.0039 2.962891,2.9355 0.947853,1.0316 1.941678,2.0211 2.982422,2.959 0.936479,1.0181 1.9202114,1.9931 2.9472654,2.9199 0.9452083,1.0289 1.9369861,2.0135 2.9746094,2.9493 0.9409084,1.0233 1.9265999,2.0044 2.9589843,2.9355 0.9406219,1.0229 1.92694962,2.0028 2.9589844,2.9336 0.9394409,1.0215 1.9244661,1.9981 2.9550781,2.9277 0.9358104,1.0175 1.9170835,1.9917 2.9433594,2.918 0.94085,1.0234 1.9266528,2.0043 2.9589844,2.9355 0.9365996,1.018 1.9181476,1.9933 2.9453126,2.92 0.938854,1.0203 1.923293,1.9973 2.953125,2.9257 0.929207,1.0091 1.90166,1.9773 2.919922,2.8965 0.94336,1.0256 1.933504,2.0065 2.96875,2.9395 0.924108,1.0025 1.890265,1.9651 2.902343,2.8789 0.935087,1.0162 1.916058,1.9908 2.941407,2.916 0.927676,1.0073 1.89958,1.9728 2.916015,2.8906 0.934234,1.0152 1.913182,1.9878 2.9375,2.9121 0.929119,1.0086 1.901814,1.9757 2.919922,2.8946 0.929123,1.0085 1.901809,1.9757 2.919922,2.8945 0.92455,1.0034 1.891645,1.9663 2.904297,2.8809 0.93273,1.0127 1.909207,1.9839 2.931641,2.9062 0.922798,1.0005 1.887984,1.961 2.898437,2.8731 0.922533,1.0008 1.888219,1.9606 2.898438,2.873 0.926475,1.0054 1.897171,1.9705 2.912109,2.8867 0.919856,0.9976 1.881677,1.9555 2.888672,2.8653 0.924946,1.0035 1.893152,1.9661 2.90625,2.8808 0.91875,0.9961 1.881067,1.953 2.886719,2.8613 0.92324,1.0014 1.889365,1.9623 2.90039,2.875 0.922707,1 1.888141,1.9595 2.898438,2.8711 0.909608,0.9851 1.858834,1.9328 2.853515,2.8321 0.923135,1.0014 1.88946,1.9621 2.900391,2.875 0.917531,0.9942 1.876731,1.9486 2.880859,2.8554 0.912974,0.9889 1.866553,1.9394 2.865235,2.8418 0.917787,0.9947 1.878363,1.9502 2.882812,2.8575 0.910317,0.9856 1.861924,1.9323 2.857422,2.832 0.913425,0.9898 1.867925,1.9405 2.867188,2.8437 0.915157,0.9914 1.873715,1.9432 2.875,2.8477 0.910551,0.9855 1.861701,1.9324 2.857421,2.832 0.908039,0.983 1.854892,1.9307 2.847657,2.8282 0.909722,0.9851 1.862629,1.9307 2.857422,2.83 0.907732,0.9827 1.857212,1.927 2.849612,2.8243 0.913,0.9882 1.8666,1.9379 2.86523,2.8398 0.9043,0.9776 1.84777,1.9196 2.83594,2.8125 0.90276,0.9764 1.84561,1.9146 2.83203,2.8066 0.90826,0.9829 1.85859,1.9288 2.85157,2.8262 0.90076,0.9739 1.8402,1.9109 2.82421,2.8008 0.90617,0.9801 1.8533,1.9233 2.84375,2.8183 0.89592,0.9683 1.83035,1.9 2.8086,2.7852 0.90723,0.9817 1.85393,1.9258 2.8457,2.8223 0.90039,0.9728 1.83876,1.9099 2.82227,2.7988 0.89636,0.9684 1.8318,1.8999 2.81054,2.7852 0.90238,0.9755 1.84417,1.9134 2.83008,2.8046 0.89438,0.9659 1.82639,1.8962 2.80274,2.7793 0.90315,0.9761 1.84525,1.9151 2.83203,2.8067 0.8895,0.9597 1.81663,1.8837 2.78711,2.7617 0.89548,0.9675 1.82895,1.8987 2.80664,2.7832 0.89372,0.9653 1.82519,1.8947 2.80078,2.7773 0.89625,0.968 1.83004,1.9003 2.80859,2.7852 0.88883,0.9591 1.81545,1.8823 2.78516,2.7598 0.89137,0.9624 1.8202,1.8892 2.79297,2.7695 0.89365,0.9648 1.82534,1.8932 2.80078,2.7754 0.8865,0.9562 1.80847,1.8789 2.77539,2.7539 0.88844,0.9588 1.81395,1.8826 2.7832,2.7598 0.89104,0.9615 1.82066,1.8861 2.79297,2.7656 0.88074,0.9497 1.79578,1.8667 2.75586,2.7363 0.88839,0.959 1.81594,1.8824 2.78516,2.7598 0.88781,0.9576 1.8128,1.8797 2.78125,2.7558 0.88441,0.9532 1.80517,1.8717 2.76953,2.7442 0.87635,0.9442 1.78735,1.8557 2.74219,2.7207 0.88549,0.9553 1.80964,1.8757 2.77539,2.75 0.8809,0.9495 1.79757,1.8649 2.75781,2.7344 0.88032,0.9487 1.79631,1.8636 2.75586,2.7324 0.87913,0.9473 1.79383,1.8609 2.75195,2.7285 0.87511,0.9429 1.78686,1.8529 2.74024,2.7168 0.88394,0.953 1.80374,1.8718 2.76757,2.7441 0.87338,0.9401 1.7812,1.8476 2.73243,2.709 0.87594,0.9434 1.78787,1.8526 2.74218,2.7168 0.87821,0.9458 1.79109,1.8584 2.74805,2.7246 0.87077,0.9369 1.77649,1.8405 2.72461,2.6992 0.86987,0.9365 1.77357,1.8408 2.7207,2.6993 0.87811,0.9458 1.79118,1.8583 2.74805,2.7246 0.86843,0.9341 1.77146,1.835 2.7168,2.6914 0.87009,0.9362 1.77336,1.841 2.7207,2.6992 0.86951,0.9355 1.77406,1.8377 2.7207,2.6953 0.86833,0.9341 1.76961,1.8369 2.71485,2.6934 0.86401,0.9293 1.76297,1.8273 2.70312,2.6797 0.87257,0.9389 1.78022,1.8445 2.73047,2.705 0.85973,0.9239 1.75247,1.8163 2.6875,2.6641 0.8714,0.9376 1.77575,1.8438 2.72461,2.7031 0.86051,0.9243 1.75356,1.8179 2.68945,2.666 0.86309,0.9277 1.76024,1.8229 2.69922,2.6739 0.85877,0.9228 1.74969,1.8151 2.6836,2.6621 0.8607,0.9254 1.75321,1.8208 2.68945,2.6699 0.86955,0.9349 1.7741,1.8363 2.7207,2.6934 0.85356,0.9157 1.7384,1.8017 2.66602,2.6425 0.85523,0.9186 1.74217,1.8071 2.67187,2.6504 0.86382,0.9282 1.76136,1.8244 2.70117,2.6758 0.84941,0.9114 1.72957,1.7936 2.65235,2.6309 0.8627,0.9269 1.75877,1.8234 2.69726,2.6738 0.84804,0.9096 1.72731,1.7893 2.64844,2.625 0.85689,0.9202 1.74611,1.8096 2.67774,2.6543 0.85657,0.9192 1.74458,1.8085 2.67578,2.6523 0.84535,0.9064 1.72071,1.7843 2.63867,2.6172 0.85391,0.9166 1.73987,1.8029 2.66797,2.6446 0.85049,0.9123 1.73222,1.7948 2.65625,2.6328 0.84587,0.9072 1.72203,1.7854 2.64062,2.6191 0.84816,0.9101 1.72713,1.7908 2.64844,2.627 0.85044,0.9123 1.73424,1.7947 2.6582,2.6328 0.8458,0.9066 1.72217,1.784 2.64063,2.6172 0.84233,0.9029 1.71451,1.7773 2.6289,2.6074 0.84463,0.9057 1.7196,1.7808 2.63672,2.6133 0.84406,0.905 1.71832,1.7814 2.63477,2.6132 0.84887,0.9101 1.72833,1.7909 2.65039,2.627 0.83882,0.8979 1.70703,1.768 2.61719,2.5937 0.83764,0.8972 1.70444,1.7667 2.61328,2.5918 0.83964,0.8998 1.70987,1.7703 2.62109,2.5977 0.8422,0.9024 1.7147,1.7759 2.62891,2.6055 0.83818,0.8973 1.7058,1.7665 2.61523,2.5918 0.83415,0.8928 1.69686,1.7586 2.60156,2.58 0.83832,0.8978 1.70562,1.7681 2.61524,2.5938 0.83644,0.8954 1.70199,1.7643 2.60937,2.5879 0.83118,0.8894 1.69061,1.7517 2.5918,2.5703 0.83631,0.8953 1.70214,1.7624 2.60938,2.5859 0.83633,0.8947 1.70218,1.7611 2.60937,2.584 0.82475,0.8815 1.67672,1.737 2.57031,2.5488 0.83427,0.8928 1.69675,1.7587 2.60157,2.5801 0.82704,0.8844 1.6818,1.7424 2.57812,2.5567 0.83191,0.8898 1.69173,1.7533 2.59375,2.5722 0.8244,0.8812 1.67907,1.7373 2.57227,2.5489 0.8336,0.8915 1.69563,1.7558 2.59961,2.5761 0.82043,0.8761 1.66816,1.7261 2.55664,2.5332 0.82533,0.8822 1.67797,1.7384 2.57226,2.5508 0.81565,0.8717 1.65801,1.7179 2.54102,2.5215 0.83694,0.896 1.70335,1.7638 2.61133,2.5879 0.81812,0.8731 1.66308,1.7207 2.54882,2.5254 0.8219,0.8779 1.67033,1.7303 2.56055,2.539 0.82168,0.8774 1.67061,1.7289 2.56055,2.5372 0.81899,0.8741 1.664,1.7237 2.55078,2.5293 0.81956,0.8749 1.66724,1.7269 2.55469,2.5332 0.81757,0.8724 1.66178,1.7193 2.54687,2.5234 0.80436,0.8583 1.63416,1.6922 2.50391,2.4844 0.82757,0.8852 1.68506,1.7455 2.58203,2.5605 0.80797,0.8619 1.64172,1.699 2.51562,2.4942 0.8216,0.8775 1.67069,1.7286 2.56055,2.5371 0.80501,0.8582 1.63543,1.6922 2.50586,2.4843 0.8093,0.8643 1.6479,1.7028 2.52344,2.5 0.82196,0.8781 1.67024,1.7322 2.56054,2.5411 0.80068,0.8531 1.6288,1.6829 2.49415,2.4707 0.819,0.8742 1.66397,1.7236 2.55078,2.5293 0.79787,0.8498 1.62035,1.676 2.48242,2.4609 0.81872,0.8739 1.66434,1.722 2.55078,2.5273 0.78858,0.8396 1.60185,1.6555 2.45312,2.4317 0.81129,0.8668 1.64943,1.7083 2.52735,2.5078 0.80402,0.858 1.63455,1.6905 2.5039,2.4824 0.80282,0.8565 1.63206,1.6879 2.5,2.4785 0.80886,0.863 1.64459,1.7 2.51954,2.4961 0.79468,0.8465 1.61429,1.6691 2.47265,2.4512 0.79383,0.8467 1.61321,1.6688 2.4707,2.4512 0.81221,0.8673 1.65232,1.708 2.53126,2.5078 0.79887,0.8508 1.6231,1.6772 2.48632,2.4629 0.7848,0.8356 1.59451,1.6471 2.44141,2.4199 0.80285,0.8571 1.63195,1.6892 2.5,2.4805 0.7887,0.8407 1.60357,1.6563 2.45508,2.4336 0.80049,0.8542 1.62885,1.6837 2.49414,2.4726 0.79383,0.846 1.61326,1.6676 2.4707,2.4492 0.79259,0.8447 1.61082,1.6648 2.4668,2.4453 0.78974,0.8417 1.60434,1.6595 2.45703,2.4375 0.79263,0.845 1.61074,1.6665 2.4668,2.4473 0.79616,0.8483 1.6184,1.6715 2.47851,2.4551 0.77183,0.8212 1.56853,1.6184 2.40039,2.3789 0.27711,0.2958 0.56162,0.5838 0.84571,0.873 h 915.85152 c 4.1284,0 7.4512,-3.3228 7.4512,-7.4511 V 959.85742 c -0.65,-0.65084 -1.3033,-1.29813 -1.959,-1.94336 -0.6964,-0.6989 -1.3983,-1.39189 -2.1015,-2.08398 -0.7007,-0.70319 -1.4058,-1.40137 -2.1133,-2.09766 -0.7152,-0.71782 -1.4378,-1.42804 -2.1602,-2.13867 -0.7027,-0.70503 -1.4114,-1.40347 -2.1211,-2.10156 -0.69,-0.69225 -1.3853,-1.37889 -2.082,-2.06446 -0.7106,-0.71324 -1.4268,-1.4208 -2.1445,-2.12695 -0.7133,-0.71576 -1.432,-1.42615 -2.1524,-2.13476 -0.7043,-0.70667 -1.4156,-1.40577 -2.1269,-2.10547 -0.6887,-0.69103 -1.3828,-1.37619 -2.0782,-2.06055 -0.7287,-0.73167 -1.4629,-1.45744 -2.1992,-2.18164 -0.7075,-0.70993 -1.4202,-1.41429 -2.1347,-2.11719 -0.7013,-0.70372 -1.4091,-1.40084 -2.1172,-2.09765 -0.7246,-0.72728 -1.4556,-1.44807 -2.1875,-2.16797 -0.7023,-0.70468 -1.41,-1.40381 -2.1192,-2.10157 -0.7206,-0.72337 -1.4478,-1.44017 -2.1758,-2.15625 -0.7181,-0.72073 -1.4425,-1.43495 -2.1679,-2.14843 -0.7169,-0.71936 -1.44,-1.43239 -2.1641,-2.14453 -0.7166,-0.71909 -1.4383,-1.43266 -2.1621,-2.14454 -0.7065,-0.70898 -1.4193,-1.41131 -2.1328,-2.11328 -0.7164,-0.71916 -1.4385,-1.43258 -2.1621,-2.14453 -0.7323,-0.73515 -1.4711,-1.46378 -2.211,-2.1914 -0.722,-0.72462 -1.4503,-1.44287 -2.1796,-2.16016 -0.7134,-0.71585 -1.4319,-1.42606 -2.1524,-2.13477 -0.7303,-0.73315 -1.4672,-1.45988 -2.2051,-2.18554 -0.724,-0.72668 -1.4541,-1.44671 -2.1855,-2.16602 -0.7259,-0.72855 -1.4581,-1.45073 -2.1914,-2.17187 -0.7146,-0.7172 -1.4345,-1.42866 -2.1563,-2.13868 -0.7293,-0.73225 -1.4643,-1.45881 -2.2011,-2.18359 -0.7324,-0.73523 -1.4711,-1.46371 -2.211,-2.19141 -0.7457,-0.74853 -1.4984,-1.48974 -2.2519,-2.23046 -0.7062,-0.70855 -1.4177,-1.41174 -2.1309,-2.11329 -0.7414,-0.74443 -1.4891,-1.48203 -2.2383,-2.21875 -0.7318,-0.73454 -1.4696,-1.46243 -2.209,-2.18945 -0.7362,-0.73904 -1.4787,-1.4717 -2.2226,-2.20312 -0.7305,-0.73323 -1.4671,-1.45982 -2.2051,-2.18555 -0.7217,-0.72445 -1.4487,-1.44303 -2.1777,-2.16016 -0.7498,-0.75298 -1.506,-1.49906 -2.2637,-2.24414 -0.7368,-0.73962 -1.4802,-1.47308 -2.2246,-2.20508 -0.7374,-0.74028 -1.4815,-1.47438 -2.2266,-2.20703 -0.7427,-0.7456 -1.4917,-1.4848 -2.2422,-2.22265 -0.7363,-0.73913 -1.4786,-1.47162 -2.2226,-2.20313 -0.7446,-0.74757 -1.4956,-1.48874 -2.2481,-2.22851 -0.742,-0.74493 -1.4904,-1.48352 -2.2402,-2.22071 -0.7434,-0.74624 -1.493,-1.48613 -2.2441,-2.22461 -0.7269,-0.72969 -1.4591,-1.45351 -2.1934,-2.17578 -0.7682,-0.77155 -1.5438,-1.53557 -2.3203,-2.29883 -0.7395,-0.74227 -1.4852,-1.47829 -2.2324,-2.21289 -0.7473,-0.75017 -1.5008,-1.494 -2.2559,-2.23632 -0.7473,-0.75027 -1.5007,-1.49392 -2.2558,-2.23633 -0.744,-0.74691 -1.4944,-1.48744 -2.2461,-2.22657 -0.7663,-0.76947 -1.5399,-1.53174 -2.3145,-2.29296 -0.7389,-0.74162 -1.4839,-1.477 -2.2305,-2.21094 -0.7407,-0.74378 -1.4878,-1.48073 -2.2363,-2.2168 -0.777,-0.78047 -1.5602,-1.55419 -2.3457,-2.32617 -0.7414,-0.74425 -1.4891,-1.48222 -2.2383,-2.21875 -0.755,-0.75814 -1.5162,-1.50964 -2.2793,-2.25977 -0.7526,-0.75579 -1.5128,-1.50412 -2.2734,-2.25195 -0.7745,-0.77777 -1.555,-1.54902 -2.3379,-2.31836 -0.7337,-0.73649 -1.4736,-1.46638 -2.2148,-2.19531 -0.7692,-0.77263 -1.5448,-1.53844 -2.3223,-2.30273 -0.7738,-0.77715 -1.5537,-1.54769 -2.3359,-2.31641 -0.7454,-0.74823 -1.4969,-1.49005 -2.25,-2.23047 -0.7709,-0.77422 -1.5489,-1.54077 -2.3282,-2.30664 -0.7572,-0.76035 -1.5198,-1.51529 -2.2851,-2.26758 -0.7702,-0.77349 -1.5477,-1.53953 -2.3262,-2.30469 -0.7583,-0.76141 -1.5227,-1.5162 -2.2891,-2.26953 -0.7808,-0.78425 -1.568,-1.56221 -2.3574,-2.33789 -0.7652,-0.76822 -1.5371,-1.52907 -2.3105,-2.28906 -0.7606,-0.76366 -1.5282,-1.51986 -2.2969,-2.27539 -0.766,-0.76932 -1.5382,-1.5319 -2.3125,-2.29297 -0.7837,-0.78714 -1.5749,-1.5672 -2.3672,-2.3457 -0.7504,-0.7535 -1.5072,-1.50052 -2.2656,-2.2461 -0.7896,-0.79326 -1.5845,-1.58074 -2.3828,-2.36523 -0.7747,-0.77791 -1.5567,-1.54888 -2.3399,-2.31836 -0.7667,-0.7699 -1.5394,-1.53329 -2.3144,-2.29492 -0.7855,-0.78895 -1.5789,-1.56934 -2.3731,-2.34961 -0.7628,-0.766 -1.5317,-1.52539 -2.3027,-2.28321 -0.7701,-0.77356 -1.5458,-1.54139 -2.3242,-2.30664 -0.7957,-0.79949 -1.5977,-1.59222 -2.4024,-2.38281 -0.7722,-0.77552 -1.5514,-1.54341 -2.332,-2.31055 -0.7874,-0.7909 -1.5809,-1.57522 -2.377,-2.35742 -0.7851,-0.78857 -1.5772,-1.5697 -2.3711,-2.34961 -0.7824,-0.78589 -1.572,-1.56451 -2.3632,-2.34179 -0.7735,-0.77674 -1.5541,-1.54613 -2.336,-2.31446 -0.7983,-0.80197 -1.6028,-1.59761 -2.4101,-2.39062 -0.771,-0.77417 -1.5489,-1.54082 -2.3281,-2.30664 -0.811,-0.81468 -1.6291,-1.62231 -2.4493,-2.42774 -0.7508,-0.75377 -1.5088,-1.50023 -2.2675,-2.24609 -0.8131,-0.81716 -1.6327,-1.62769 -2.4551,-2.43555 -0.781,-0.78432 -1.5679,-1.56214 -2.3574,-2.33789 -0.809,-0.81272 -1.6252,-1.61836 -2.4434,-2.42187 -0.757,-0.76007 -1.5201,-1.51361 -2.2852,-2.26563 -0.812,-0.81621 -1.6317,-1.62471 -2.4531,-2.43164 -0.7974,-0.80107 -1.6018,-1.59459 -2.4082,-2.38672 -0.7958,-0.79931 -1.5976,-1.5924 -2.4023,-2.38281 -0.7916,-0.79503 -1.5903,-1.58291 -2.3907,-2.36914 -0.7856,-0.7892 -1.5787,-1.57104 -2.373,-2.35156 -0.8151,-0.81906 -1.6365,-1.63169 -2.4609,-2.44141 -0.7922,-0.79561 -1.5917,-1.58431 -2.3926,-2.37109 -0.7955,-0.7991 -1.598,-1.59066 -2.4024,-2.38086 -0.8076,-0.81148 -1.6226,-1.61567 -2.4394,-2.41797 -0.8055,-0.80915 -1.6171,-1.61209 -2.4317,-2.41211 -0.799,-0.80267 -1.6059,-1.59694 -2.414,-2.39062 -0.8007,-0.80435 -1.6083,-1.60116 -2.418,-2.39649 -0.7966,-0.80036 -1.6007,-1.59333 -2.4062,-2.38477 -0.8126,-0.81652 -1.6313,-1.62634 -2.4532,-2.43359 -0.8281,-0.83207 -1.6641,-1.65609 -2.5019,-2.47851 -0.767,-0.77017 -1.5392,-1.53498 -2.3145,-2.29688 -0.847,-0.85156 -1.7014,-1.69565 -2.5586,-2.53711 -0.7851,-0.78854 -1.5772,-1.56974 -2.3711,-2.34961 -0.8339,-0.83813 -1.6757,-1.66775 -2.5195,-2.49609 -0.7956,-0.79904 -1.5978,-1.59072 -2.4023,-2.38086 -0.8058,-0.80965 -1.6187,-1.61159 -2.4336,-2.41211 -0.8196,-0.82369 -1.6456,-1.64084 -2.4746,-2.45508 -0.8186,-0.82255 -1.6447,-1.63804 -2.4727,-2.45117 -0.8153,-0.81925 -1.6382,-1.6315 -2.4629,-2.44141 -0.8282,-0.83219 -1.6641,-1.65597 -2.5019,-2.47851 -0.7971,-0.80071 -1.6002,-1.59495 -2.4063,-2.38672 -0.818,-0.8222 -1.6433,-1.63644 -2.4707,-2.44922 -0.8374,-0.84177 -1.682,-1.67591 -2.5293,-2.50781 -0.8042,-0.80795 -1.6144,-1.60935 -2.4277,-2.40821 -0.852,-0.85639 -1.712,-1.7046 -2.5742,-2.55078 -0.793,-0.79638 -1.5928,-1.5855 -2.3946,-2.37304 -0.8373,-0.84173 -1.682,-1.67596 -2.5293,-2.50782 -0.8239,-0.82795 -1.6547,-1.64839 -2.4883,-2.46679 -0.8363,-0.84058 -1.6809,-1.67317 -2.5273,-2.50391 -0.8136,-0.8174 -1.634,-1.62745 -2.457,-2.43555 -0.8281,-0.83226 -1.6642,-1.6559 -2.502,-2.47851 -0.8424,-0.84662 -1.6905,-1.68681 -2.5429,-2.52344 -0.8172,-0.82092 -1.6423,-1.63378 -2.4688,-2.44531 -0.831,-0.83518 -1.669,-1.66282 -2.5098,-2.48828 -0.8212,-0.8254 -1.6497,-1.64308 -2.4804,-2.45899 -0.8455,-0.84998 -1.6973,-1.69327 -2.5528,-2.5332 -0.841,-0.84529 -1.6899,-1.68224 -2.541,-2.51758 -0.8385,-0.84263 -1.6847,-1.67703 -2.5332,-2.50976 -0.8131,-0.81706 -1.6326,-1.6278 -2.4551,-2.43555 -0.8505,-0.85519 -1.7095,-1.70187 -2.5703,-2.54688 -0.8371,-0.84142 -1.6803,-1.67624 -2.5273,-2.50781 -0.8456,-0.84989 -1.6991,-1.69142 -2.5547,-2.53125 -0.8304,-0.83451 -1.6677,-1.66152 -2.5078,-2.48633 -0.8439,-0.84834 -1.6949,-1.68902 -2.5488,-2.52734 -0.8393,-0.84362 -1.686,-1.67997 -2.5352,-2.51367 -0.8676,-0.87219 -1.7429,-1.73607 -2.6211,-2.59766 -0.8205,-0.82421 -1.6486,-1.64033 -2.4785,-2.45508 -0.8441,-0.84857 -1.6966,-1.6888 -2.5508,-2.52734 -0.8451,-0.84959 -1.6976,-1.69171 -2.5527,-2.53125 -0.8613,-0.86589 -1.7299,-1.72463 -2.6016,-2.58008 -0.8417,-0.84586 -1.6913,-1.68364 -2.543,-2.51953 -0.8451,-0.84951 -1.6975,-1.69179 -2.5527,-2.53125 -0.847,-0.85153 -1.7014,-1.69568 -2.5586,-2.53711 -0.8651,-0.86977 -1.7376,-1.73256 -2.6133,-2.5918 -0.8521,-0.85642 -1.7118,-1.70457 -2.5742,-2.55078 -0.829,-0.83324 -1.6651,-1.65884 -2.5039,-2.48242 -0.8742,-0.87923 -1.7556,-1.75067 -2.6406,-2.61914 -0.8552,-0.85966 -1.7185,-1.71118 -2.584,-2.56055 -0.8506,-0.85509 -1.7095,-1.70196 -2.57031,-2.54687 -0.86258,-0.86725 -1.73238,-1.72721 -2.60546,-2.58399 -0.84879,-0.85325 -1.7055,-1.69789 -2.56446,-2.54101 -0.87907,-0.88395 -1.76626,-1.75974 -2.65625,-2.63281 -0.8547,-0.85898 -1.71702,-1.7099 -2.58203,-2.5586 -0.85074,-0.85514 -1.70936,-1.70191 -2.57031,-2.54687 -0.86254,-0.86728 -1.73243,-1.72718 -2.60547,-2.58399 -0.85939,-0.86412 -1.72589,-1.72049 -2.5957,-2.57422 -0.87408,-0.879 -1.75576,-1.75089 -2.64063,-2.61914 -0.85878,-0.86337 -1.72456,-1.71927 -2.59375,-2.57226 -0.87281,-0.87767 -1.7551,-1.74634 -2.63867,-2.61328 -0.87004,-0.87473 -1.74818,-1.7414 -2.62891,-2.60547 -0.86545,-0.87007 -1.7392,-1.73227 -2.61523,-2.5918 -0.86265,-0.86732 -1.73232,-1.72714 -2.60547,-2.58398 -0.8758,-0.88073 -1.75985,-1.75312 -2.64648,-2.62305 -0.88895,-0.89384 -1.78545,-1.7794 -2.68555,-2.66211 -0.84945,-0.8537 -1.70678,-1.69942 -2.56641,-2.54297 -0.8735,-0.87846 -1.75439,-1.74947 -2.63867,-2.61719 -0.88365,-0.88869 -1.77524,-1.76878 -2.66992,-2.64648 -0.87913,-0.88391 -1.76621,-1.75979 -2.65625,-2.63281 -0.87258,-0.87724 -1.75339,-1.74676 -2.63672,-2.61328 -0.86775,-0.8725 -1.74271,-1.73772 -2.62109,-2.59961 -0.88385,-0.88895 -1.77504,-1.77049 -2.66993,-2.64844 -0.88333,-0.88834 -1.77555,-1.76717 -2.66992,-2.64453 -0.88461,-0.8895 -1.77621,-1.77191 -2.67187,-2.65039 -0.86777,-0.87248 -1.74465,-1.73578 -2.62305,-2.59766 -0.90135,-0.9066 -1.80983,-1.80601 -2.72266,-2.70117 -0.87819,-0.88288 -1.7652,-1.75688 -2.65429,-2.62891 -0.87068,-0.87543 -1.74948,-1.74265 -2.63086,-2.60742 -0.89937,-0.90468 -1.806,-1.80202 -2.7168,-2.69531 -0.88244,-0.88731 -1.77257,-1.76623 -2.66601,-2.64258 -0.88846,-0.89346 -1.784,-1.77976 -2.6836,-2.66211 -0.89112,-0.89614 -1.79102,-1.783 -2.69336,-2.66797 -0.87494,-0.87981 -1.75682,-1.75206 -2.64258,-2.62109 -0.91041,-0.91591 -1.82981,-1.82234 -2.75195,-2.72656 -0.88626,-0.89111 -1.78038,-1.77426 -2.67773,-2.6543 -0.88869,-0.89369 -1.78571,-1.77955 -2.68555,-2.66211 -0.89749,-0.90265 -1.80207,-1.79815 -2.71094,-2.68945 -0.89049,-0.89552 -1.78972,-1.78167 -2.6914,-2.66602 -0.8965,-0.90169 -1.80114,-1.79517 -2.70899,-2.68555 -0.89658,-0.90175 -1.80105,-1.79511 -2.70898,-2.68554 -0.89009,-0.89523 -1.78818,-1.78194 -2.68946,-2.66602 -0.92762,-0.93321 -1.86294,-1.8582 -2.80273,-2.7793 -0.8643,-0.86879 -1.73649,-1.7296 -2.61133,-2.58789 -0.91713,-0.92286 -1.84246,-1.83703 -2.77148,-2.74804 -0.91116,-0.91641 -1.83102,-1.8238 -2.75391,-2.72852 -0.88632,-0.89122 -1.78032,-1.77413 -2.67773,-2.6543 -0.89712,-0.90251 -1.80245,-1.79632 -2.71094,-2.6875 -0.93859,-0.94443 -1.8849,-1.88047 -2.83594,-2.8125 -0.88251,-0.88715 -1.77251,-1.76638 -2.66601,-2.64257 -0.89586,-0.90118 -1.79984,-1.79372 -2.70703,-2.6836 -0.92009,-0.92584 -1.84921,-1.84194 -2.78125,-2.75586 -0.90138,-0.90672 -1.80981,-1.80589 -2.72266,-2.70117 -0.92002,-0.92568 -1.84927,-1.8421 -2.78125,-2.75586 -0.89061,-0.89582 -1.7896,-1.78331 -2.69141,-2.66797 -0.93448,-0.94052 -1.87739,-1.87256 -2.82422,-2.80078 -0.90373,-0.90899 -1.8152,-1.80954 -2.73046,-2.70703 -0.9273,-0.93295 -1.8633,-1.85651 -2.80274,-2.77734 -0.90116,-0.90634 -1.81004,-1.80432 -2.72265,-2.69922 -0.93367,-0.93939 -1.87629,-1.86977 -2.82227,-2.79688 -0.90306,-0.90815 -1.81394,-1.80841 -2.72852,-2.70508 -0.91347,-0.91899 -1.83646,-1.82907 -2.76171,-2.73632 -0.93213,-0.93789 -1.87201,-1.86732 -2.81641,-2.79297 -0.91077,-0.91607 -1.82947,-1.82413 -2.75195,-2.72852 -0.91913,-0.92472 -1.84629,-1.84108 -2.77735,-2.7539 -0.93231,-0.93807 -1.87376,-1.86715 -2.81836,-2.79297 -0.91691,-0.9223 -1.84269,-1.83564 -2.77148,-2.7461 -0.92686,-0.93247 -1.86179,-1.85697 -2.80078,-2.77734 -0.90816,-0.91361 -1.82434,-1.81871 -2.74414,-2.7207 -0.95142,-0.95759 -1.91079,-1.90674 -2.875,-2.85157 -0.89821,-0.90338 -1.80524,-1.79742 -2.71485,-2.68945 -0.93678,-0.94297 -1.88088,-1.87798 -2.83008,-2.80859 -0.95141,-0.95745 -1.91275,-1.90491 -2.87695,-2.84961 -0.91178,-0.91701 -1.83234,-1.82517 -2.75586,-2.73047 -0.93987,-0.94576 -1.88749,-1.88309 -2.83984,-2.81641 -0.92907,-0.93466 -1.86734,-1.86069 -2.8086,-2.7832 -0.92661,-0.93228 -1.86203,-1.8552 -2.80078,-2.77539 -0.92941,-0.93529 -1.86697,-1.86204 -2.80859,-2.78516 -0.95265,-0.9588 -1.91343,-1.90945 -2.87891,-2.85547 -0.92237,-0.92788 -1.85272,-1.84776 -2.78711,-2.76367 -0.9463,-0.95234 -1.90237,-1.89425 -2.86132,-2.83398 -0.93475,-0.94048 -1.87713,-1.87261 -2.82422,-2.80078 -0.93272,-0.93853 -1.87336,-1.86865 -2.81836,-2.79493 -0.93558,-0.94157 -1.88018,-1.87347 -2.82813,-2.80273 -0.95001,-0.95625 -1.90832,-1.90413 -2.87109,-2.84766 -0.94938,-0.95537 -1.90898,-1.90107 -2.8711,-2.84375 -0.93568,-0.94142 -1.88005,-1.87364 -2.82812,-2.80273 -0.94481,-0.95081 -1.89804,-1.89379 -2.85547,-2.83203 -0.94208,-0.94805 -1.89305,-1.88672 -2.84765,-2.82227 -0.95199,-0.95811 -1.91216,-1.90817 -2.87696,-2.85351 -0.93674,-0.94262 -1.88289,-1.87639 -2.83203,-2.80664 -0.96727,-0.97365 -1.94334,-1.93798 -2.92383,-2.89844 -0.92666,-0.93228 -1.86199,-1.8552 -2.80078,-2.77539 -0.9601,-0.96655 -1.92921,-1.92339 -2.90234,-2.87695 -0.95427,-0.96041 -1.91763,-1.9118 -2.88477,-2.85938 -0.96731,-0.97346 -1.94329,-1.93816 -2.92383,-2.89844 -0.91532,-0.92077 -1.83846,-1.83321 -2.76562,-2.74218 -0.98091,-0.98783 -1.97034,-1.96715 -2.96484,-2.94141 -0.96123,-0.96726 -1.93198,-1.92467 -2.90626,-2.87891 -0.93632,-0.94208 -1.88136,-1.87496 -2.83007,-2.80468 -0.96746,-0.97396 -1.94315,-1.93963 -2.92383,-2.9004 -0.95653,-0.96267 -1.92312,-1.91543 -2.89258,-2.86523 -0.95005,-0.95622 -1.90829,-1.90416 -2.87109,-2.84766 -0.96915,-0.97572 -1.94726,-1.94181 -2.92969,-2.90429 -0.9615,-0.96778 -1.93169,-1.92612 -2.90625,-2.88086 -0.96193,-0.96821 -1.93319,-1.92765 -2.9082,-2.88281 -0.96289,-0.96919 -1.93416,-1.9306 -2.91016,-2.88672 -0.95974,-0.96605 -1.92958,-1.92194 -2.90234,-2.875 -0.9799,-0.98648 -1.96942,-1.96261 -2.96289,-2.93555 -0.94665,-0.95262 -1.90202,-1.89594 -2.86133,-2.83594 -0.97658,-0.98329 -1.96112,-1.95788 -2.95117,-2.92773 -0.97118,-0.97763 -1.95104,-1.94583 -2.93555,-2.91016 -0.96145,-0.96776 -1.93174,-1.92612 -2.90625,-2.88086 -0.98503,-0.99175 -1.97977,-1.9731 -2.97852,-2.95117 -0.96217,-0.96833 -1.93294,-1.92752 -2.9082,-2.88281 -0.97566,-0.98218 -1.9601,-1.95507 -2.94922,-2.92383 -0.9594,-0.96574 -1.92798,-1.92223 -2.90039,-2.875 -0.99674,-1.00371 -2.00289,-1.99858 -3.01367,-2.98828 -0.96157,-0.9677 -1.93162,-1.92619 -2.90625,-2.88086 -0.98072,-0.98738 -1.97053,-1.96563 -2.96485,-2.93945 -0.99114,-0.99778 -1.99105,-1.98678 -2.99609,-2.97071 -0.94787,-0.95384 -1.90467,-1.89866 -2.86523,-2.83984 -0.99553,-1.00268 -2.00022,-1.99568 -3.00977,-2.98438 -0.9763,-0.98288 -1.96139,-1.95633 -2.95117,-2.92578 -0.99151,-0.99831 -1.99264,-1.98625 -2.99805,-2.9707 -0.9731,-0.97952 -1.95492,-1.94984 -2.9414,-2.91602 -0.9866,-0.99338 -1.98207,-1.97737 -2.98243,-2.95703 -0.99466,-1.00143 -1.99916,-1.99298 -3.00781,-2.98047 -0.97185,-0.97818 -1.9523,-1.94724 -2.9375,-2.9121 -0.98983,-0.99668 -1.98851,-1.98394 -2.99219,-2.9668 -0.98274,-0.98948 -1.9743,-1.96946 -2.9707,-2.94531 -0.98819,-0.99511 -1.98628,-1.9796 -2.98828,-2.96094 -1.00257,-1.00959 -2.01447,-2.01044 -3.03125,-3.00586 -0.98143,-0.98797 -1.97175,-1.96702 -2.9668,-2.94141 -0.98693,-0.99376 -1.98367,-1.977 -2.98437,-2.95703 -0.99682,-1.00385 -2.00281,-1.99844 -3.01367,-2.98828 -1.00218,-1.00913 -2.01292,-2.00893 -3.0293,-3.00391 -0.9812,-0.98778 -1.97199,-1.96523 -2.9668,-2.93945 -1.00858,-1.01575 -2.02586,-2.02203 -3.04883,-3.02344 -0.98323,-0.98986 -1.97575,-1.97103 -2.97265,-2.94726 -1.00736,-1.01455 -2.02517,-2.01929 -3.04688,-3.01953 -1.00315,-1.01004 -2.01583,-2.01001 -3.0332,-3.00586 -0.98926,-0.99594 -1.98714,-1.98271 -2.99023,-2.96485 -1.00039,-1.00744 -2.01086,-2.00471 -3.0254,-2.99804 -1.01494,-1.02215 -2.03883,-2.03535 -3.06835,-3.04297 -0.98888,-0.99551 -1.98755,-1.98117 -2.99024,-2.96289 -1.01689,-1.02413 -2.04271,-2.03928 -3.07422,-3.04883 -1.00118,-1.00795 -2.01199,-2.00619 -3.02734,-3 -0.9918,-0.9986 -1.99234,-1.98793 -2.99805,-2.97266 -1.01008,-1.01743 -2.03018,-2.0243 -3.05469,-3.02734 -1.00269,-1.0099 -2.01433,-2.01014 -3.03125,-3.00586 -1.01818,-1.02566 -2.04527,-2.0417 -3.07812,-3.05274 -0.9997,-1.00674 -2.00961,-2.00342 -3.02344,-2.99609 -1.02402,-1.03155 -2.05685,-2.05355 -3.0957,-3.07031 -0.99787,-1.00484 -2.00563,-1.99943 -3.01758,-2.99024 -1.03631,-1.04399 -2.08131,-2.07858 -3.13281,-3.10742 -0.99445,-1.00115 -1.99939,-1.9913 -3.00781,-2.97851 C 503.77018,102.26465 427.89387,68.142769 344,68.142578 Z"
         style="color:#000000;font-style:normal;font-variant:normal;font-weight:normal;font-stretch:normal;font-size:medium;line-height:normal;font-family:sans-serif;font-variant-ligatures:normal;font-variant-position:normal;font-variant-caps:normal;font-variant-numeric:normal;font-variant-alternates:normal;font-variant-east-asian:normal;font-feature-settings:normal;font-variation-settings:normal;text-indent:0;text-align:start;text-decoration:none;text-decoration-line:none;text-decoration-style:solid;text-decoration-color:#000000;letter-spacing:normal;word-spacing:normal;text-transform:none;writing-mode:lr-tb;direction:ltr;text-orientation:mixed;dominant-baseline:auto;baseline-shift:baseline;text-anchor:start;white-space:normal;shape-padding:0;shape-margin:0;inline-size:0;clip-rule:nonzero;display:inline;overflow:visible;visibility:visible;isolation:auto;mix-blend-mode:normal;color-interpolation:sRGB;color-interpolation-filters:linearRGB;solid-color:#000000;solid-opacity:1;vector-effect:none;fill:#000001;fill-opacity:0.184314;fill-rule:nonzero;stroke:none;stroke-width:0.6;stroke-linecap:butt;stroke-linejoin:miter;stroke-miterlimit:4;stroke-dasharray:none;stroke-dashoffset:0;stroke-opacity:1;color-rendering:auto;image-rendering:auto;shape-rendering:auto;text-rendering:auto;enable-background:accumulate;stop-color:#000000"
         id="path850" />
      <path
         style="color:#000000;font-style:normal;font-variant:normal;font-weight:normal;font-stretch:normal;font-size:medium;line-height:normal;font-family:sans-serif;font-variant-ligatures:normal;font-variant-position:normal;font-variant-caps:normal;font-variant-numeric:normal;font-variant-alternates:normal;font-variant-east-asian:normal;font-feature-settings:normal;font-variation-settings:normal;text-indent:0;text-align:start;text-decoration:none;text-decoration-line:none;text-decoration-style:solid;text-decoration-color:#000000;letter-spacing:normal;word-spacing:normal;text-transform:none;writing-mode:lr-tb;direction:ltr;text-orientation:mixed;dominant-baseline:auto;baseline-shift:baseline;text-anchor:start;white-space:normal;shape-padding:0;shape-margin:0;inline-size:0;clip-rule:nonzero;display:inline;overflow:visible;visibility:visible;isolation:auto;mix-blend-mode:normal;color-interpolation:sRGB;color-interpolation-filters:linearRGB;solid-color:#000000;solid-opacity:1;vector-effect:none;fill:#bbdefb;fill-opacity:1;fill-rule:nonzero;stroke:none;stroke-width:0.15875;stroke-linecap:butt;stroke-linejoin:miter;stroke-miterlimit:4;stroke-dasharray:none;stroke-dashoffset:0;stroke-opacity:1;color-rendering:auto;image-rendering:auto;shape-rendering:auto;text-rendering:auto;enable-background:accumulate;stop-color:#000000"
         d="m 91.016666,18.02939 c -44.046267,1.22e-4 -79.752754,35.537484 -79.752754,79.375 v 25.77775 h -31.987195 c -6.53665,0 -11.798763,5.26212 -11.798763,11.79877 v 129.10478 c 0,6.53665 5.262113,11.79876 11.798763,11.79876 H 202.75661 c 6.53665,0 11.79877,-5.26211 11.79877,-11.79876 V 134.98091 c 0,-6.53665 -5.26212,-11.79877 -11.79877,-11.79877 H 170.76942 V 97.40439 c 0,-43.837516 -35.70649,-79.374878 -79.752754,-79.375 z m -0.145212,24.860499 c 0.0484,-6.3e-5 0.09681,-6.3e-5 0.145212,0 30.250824,9.8e-5 54.773914,24.407042 54.773914,54.514501 v 25.77775 H 36.242749 V 97.40439 C 36.242643,67.353282 60.67735,42.969656 90.871454,42.889889 Z m 0.145212,113.075271 c 9.891454,-7e-5 17.910084,8.01856 17.910014,17.91001 -4e-5,7.84764 -5.109,14.78121 -12.604396,17.10594 l 7.276046,54.33983 c 0.0306,0.22848 0.0871,0.42789 0.16123,0.58808 -0.0499,0.4141 -0.23468,0.72037 -0.45734,0.72037 H 78.731628 c -0.222668,0 -0.407975,-0.30628 -0.457854,-0.72037 0.07417,-0.16022 0.13063,-0.35954 0.161232,-0.58808 l 7.276041,-54.33983 c -7.495397,-2.32473 -12.604358,-9.2583 -12.6044,-17.10594 -6.6e-5,-9.89145 8.01856,-17.91008 17.910019,-17.91001 z"
         id="path836" />
    </g>
  </g>
</svg>
