<?xml version="1.0" encoding="UTF-8" standalone="no"?>
<!-- Created with Inkscape (http://www.inkscape.org/) -->

<svg
   width="149.75414mm"
   height="149.75417mm"
   viewBox="0 0 149.75413 149.75416"
   version="1.1"
   id="svg1"
   xml:space="preserve"
   sodipodi:docname="template-matricole-a.svg"
   xmlns:inkscape="http://www.inkscape.org/namespaces/inkscape"
   xmlns:sodipodi="http://sodipodi.sourceforge.net/DTD/sodipodi-0.dtd"
   xmlns="http://www.w3.org/2000/svg"
   xmlns:svg="http://www.w3.org/2000/svg"><sodipodi:namedview
     id="namedview1"
     pagecolor="#ffffff"
     bordercolor="#999999"
     borderopacity="1"
     inkscape:showpageshadow="2"
     inkscape:pageopacity="0"
     inkscape:pagecheckerboard="0"
     inkscape:deskcolor="#d1d1d1"
     inkscape:document-units="mm"
     inkscape:zoom="0.9707102"
     inkscape:cx="518.17731"
     inkscape:cy="491.90788"
     inkscape:window-width="1920"
     inkscape:window-height="991"
     inkscape:window-x="-9"
     inkscape:window-y="-9"
     inkscape:window-maximized="1"
     inkscape:current-layer="svg1" /><defs
     id="defs1"><rect
       x="128.7717"
       y="414.12979"
       width="302.87103"
       height="109.1984"
       id="rect1040" /><rect
       x="124.651"
       y="63.870762"
       width="290.50894"
       height="105.07771"
       id="rect1039" /><rect
       x="124.651"
       y="63.870762"
       width="290.50894"
       height="105.07771"
       id="rect3058" /><rect
       x="128.7717"
       y="414.12979"
       width="302.87103"
       height="109.1984"
       id="rect3059" /></defs><path
     id="rect1-3"
     style="fill:#9574cd;fill-opacity:1;stroke-width:0.295148"
     d="M 0,0 H 149.75414 V 149.75416 H 0 Z"
     inkscape:export-filename="..\eng\ENG1.png"
     inkscape:export-xdpi="347.36404"
     inkscape:export-ydpi="347.36404" /><path
     id="path3062"
     style="font-size:40px;line-height:1.25;font-family:PRIMETIME;-inkscape-font-specification:'PRIMETIME, Normal';letter-spacing:0px;word-spacing:0px;white-space:pre;fill:#000000;fill-opacity:0.31;stroke-width:0.805412"
     d="m 47.110303,19.999813 -9.245948,25.000024 h 5.17e-4 0.309025 l -0.09612,0.259416 h 0.309025 l -0.09612,0.259416 h 5.17e-4 0.309025 l -0.09612,0.259415 h 5.16e-4 0.309026 l -0.09612,0.259933 h 5.17e-4 0.309025 l -0.09612,0.259415 h 0.309025 l -0.09612,0.259416 h 5.17e-4 0.309025 l -0.09612,0.259416 h 5.16e-4 0.309025 l -0.09612,0.259416 h 0.309025 l -0.09612,0.259932 h 5.17e-4 0.309025 l -0.09612,0.259416 h 5.17e-4 0.309025 l -0.09612,0.259415 h 0.309026 l -0.09612,0.259416 h 5.17e-4 0.309025 l -0.09612,0.259416 h 5.17e-4 0.309025 l -0.09612,0.259415 h 0.309542 l -0.09612,0.259933 h 0.309025 l -0.09612,0.259416 h 5.17e-4 0.309025 l -0.09612,0.259415 h 0.309542 l -0.09612,0.259416 h 0.309025 l -0.09612,0.259416 h 5.16e-4 0.309025 l -0.09612,0.259932 h 5.17e-4 0.309025 l -0.09612,0.259416 h 0.309025 l -0.09612,0.259415 h 5.17e-4 0.309025 l -0.09612,0.259416 h 5.17e-4 0.309025 l -0.09612,0.259416 h 0.309025 l -0.09612,0.259416 h 5.17e-4 0.309025 l -0.09612,0.259932 h 5.16e-4 0.309025 l -0.09612,0.259416 h 0.309025 l -0.09612,0.259415 h 5.17e-4 0.309025 l -0.09612,0.259416 h 5.17e-4 0.309025 l -0.09612,0.259416 h 5.16e-4 0.309025 l -0.09612,0.259932 h 0.309025 l -0.09612,0.259416 h 5.17e-4 0.309025 l -0.09612,0.259416 h 5.17e-4 0.309025 l -0.09612,0.259415 h 0.309026 l -0.09612,0.259416 h 5.17e-4 0.309025 l -0.09612,0.259932 h 5.17e-4 0.309025 l -0.09612,0.259416 h 0.309025 l -0.09612,0.259416 h 5.16e-4 0.309025 l -0.09612,0.259416 h 5.17e-4 0.309025 l -0.09612,0.259415 h 0.309542 l -0.09612,0.259416 h 0.309025 l -0.09612,0.259932 h 5.17e-4 0.309025 l -0.09612,0.259416 h 0.309542 l -0.09612,0.259416 h 0.309025 l -0.09612,0.259415 h 5.16e-4 0.309026 l -0.09612,0.259416 h 5.17e-4 0.309025 l -0.09612,0.259933 h 0.309542 l -0.09612,0.259415 h 0.309025 l -0.09612,0.259416 h 5.16e-4 0.309025 l -0.09612,0.259416 h 0.309542 l -0.09612,0.259415 h 0.309025 l -0.09612,0.259416 h 5.17e-4 0.309025 l -0.09612,0.259932 h 5.16e-4 0.308509 l -0.09612,0.259416 h 5.17e-4 0.309025 l -0.09612,0.259416 h 5.17e-4 0.309025 l -0.09612,0.259416 h 5.16e-4 0.309026 l -0.09612,0.259415 h 0.309025 l -0.09612,0.259933 h 5.17e-4 0.309025 l -0.09612,0.259415 h 5.17e-4 0.309025 l -0.09612,0.259416 h 0.309025 l -0.09612,0.259416 h 5.16e-4 0.309025 l -0.09612,0.259415 h 5.17e-4 0.309025 l -0.09612,0.259416 h 0.309542 l -0.09612,0.259933 h 0.309025 l -0.09612,0.259415 h 5.17e-4 0.309025 l -0.09612,0.259416 h 0.309542 l -0.09612,0.259416 h 0.309025 l -0.09612,0.259415 h 5.16e-4 0.309025 l -0.09612,0.259933 h 5.17e-4 0.309025 l -0.09612,0.259415 h 0.309025 l -0.09612,0.259416 h 5.17e-4 0.309025 l -0.09612,0.259416 h 5.16e-4 0.309025 l -0.09612,0.259416 h 0.309542 l -0.09612,0.259415 h 0.309025 l -0.09612,0.259933 h 5.17e-4 0.309025 l -0.09612,0.259415 h 0.309542 l -0.09612,0.259416 h 0.309025 l -0.09612,0.259416 h 5.17e-4 0.309025 l -0.09612,0.259415 h 5.16e-4 0.309026 l -0.09612,0.259933 h 0.309025 l -0.09612,0.259416 h 5.17e-4 0.309025 l -0.09612,0.259415 h 5.17e-4 0.309025 l -0.09612,0.259416 h 0.309025 l -0.09612,0.259416 h 5.17e-4 0.309025 l -0.09612,0.259415 h 5.17e-4 0.309025 l -0.09612,0.259933 h 0.309025 l -0.09612,0.259416 h 5.16e-4 0.309026 l -0.09612,0.259415 h 5.17e-4 0.309025 l -0.09612,0.259416 h 0.309542 l -0.09612,0.259416 h 0.309025 l -0.09612,0.259932 h 5.16e-4 0.309025 l -0.09612,0.259416 h 0.309542 l -0.09612,0.259415 h 0.309025 l -0.09612,0.259416 h 5.17e-4 0.309025 l -0.09612,0.259416 h 5.16e-4 0.309025 l -0.09612,0.259415 h 0.309025 l -0.09612,0.259416 h 5.17e-4 0.309025 l -0.09612,0.259933 h 5.17e-4 0.309025 l -0.09612,0.259415 h 0.309542 l -0.09612,0.259416 h 0.309025 l -0.09612,0.259416 h 5.17e-4 0.309025 l -0.09612,0.259932 h 0.309541 l -0.09612,0.259416 h 0.309025 l -0.09612,0.259416 h 5.17e-4 0.309025 l -0.09612,0.259415 h 5.17e-4 0.309025 l -0.09612,0.259416 h 0.309025 l -0.09612,0.259416 h 5.17e-4 0.309025 l -0.09612,0.259932 h 5.17e-4 0.309025 l -0.09612,0.259416 h 0.309025 l -0.09612,0.259415 h 5.16e-4 0.309026 l -0.09612,0.259416 h 5.17e-4 0.309025 l -0.09612,0.259416 h 0.309025 l -0.09612,0.259416 h 5.17e-4 0.309025 l -0.09612,0.259932 h 5.16e-4 0.309025 l -0.09612,0.259416 h 0.309542 l -0.09612,0.259415 h 0.309025 l -0.09612,0.259416 h 5.17e-4 0.309025 l -0.09612,0.259416 h 0.309542 l -0.09612,0.259932 h 0.309025 l -0.09612,0.259416 h 5.17e-4 0.309025 l -0.09612,0.259416 h 5.16e-4 0.309026 l -0.09612,0.259415 h 0.309542 l -0.09612,0.259416 h 0.309025 l -0.09612,0.259416 h 5.17e-4 0.309025 l -0.09612,0.259932 h 0.309541 L 64.7361,77.6981 h 0.309025 l -0.09612,0.259415 h 5.17e-4 0.309025 l -0.09612,0.259416 h 5.17e-4 0.309025 l -0.09612,0.259416 h 0.309026 l -0.09612,0.259932 h 5.17e-4 0.309025 l -0.09612,0.259416 h 0.309542 l -0.09612,0.259416 h 0.309025 l -0.09612,0.259415 h 5.16e-4 0.309025 l -0.09612,0.259416 h 5.17e-4 0.309025 l -0.09612,0.259416 h 0.309025 l -0.09612,0.259932 h 5.17e-4 0.309025 l -0.09612,0.259416 h 5.16e-4 0.309025 l -0.09612,0.259416 h 0.309542 l -0.09612,0.259415 h 0.309025 l -0.09612,0.259416 h 5.17e-4 0.309025 l -0.09612,0.259932 h 0.309542 l -0.09612,0.259416 h 0.309025 l -0.09612,0.259416 h 5.17e-4 0.309025 l -0.09612,0.259415 h 5.16e-4 0.309025 l -0.09612,0.259416 h 0.309025 l -0.09612,0.259416 h 5.17e-4 0.309025 l -0.09612,0.259932 h 5.17e-4 0.309025 l -0.09612,0.259416 h 0.309541 l -0.09612,0.259416 h 0.309025 l -0.09612,0.259415 h 5.17e-4 0.309025 l -0.09612,0.259416 H 70.3771 l -0.09612,0.259933 h 0.309026 l -0.09612,0.259415 h 5.17e-4 0.309025 l -0.09612,0.259416 h 0.309542 l -0.09612,0.259416 h 0.309025 l -0.09612,0.259415 h 5.16e-4 0.309025 l -0.09612,0.259416 h 0.309542 l -0.09612,0.259932 h 0.309542 l -0.09612,0.259416 h 0.309025 l -0.09612,0.259416 h 5.17e-4 0.309025 l -0.09612,0.259416 h 0.309025 l -0.09612,0.259415 h 5.17e-4 0.309025 l -0.09612,0.259933 h 5.16e-4 0.309026 l -0.09612,0.259415 h 0.309542 l -0.09612,0.259416 h 0.309025 l -0.09612,0.259416 h 5.17e-4 0.309025 l -0.09612,0.259415 h 0.309541 l -0.09612,0.259416 h 0.309025 l -0.09612,0.259933 h 5.17e-4 0.309025 l -0.09612,0.259415 h 5.17e-4 0.309025 l -0.09612,0.259416 h 0.309541 l -0.09612,0.259416 h 0.309025 l -0.09612,0.259415 h 5.17e-4 0.309025 l -0.09612,0.259933 h 0.309542 l -0.09612,0.259415 h 0.309025 l -0.09612,0.259416 h 5.17e-4 0.309025 l -0.09612,0.259416 h 0.309542 l -0.09612,0.259416 h 0.309025 l -0.09612,0.259415 h 5.16e-4 0.309025 l -0.09612,0.259933 h 0.309542 l -0.09612,0.259415 h 0.309542 l -0.09612,0.259416 h 0.309025 l -0.09612,0.259416 h 0.309542 l -0.09612,0.259415 h 0.309542 l -0.09612,0.259933 h 0.309025 l -0.09612,0.259416 h 5.16e-4 0.309025 l -0.09612,0.259415 h 0.309542 l -0.09612,0.259416 h 0.309025 l -0.09612,0.259416 h 5.17e-4 0.309025 l -0.09612,0.259932 h 0.309541 l -0.09612,0.259416 h 0.309025 l -0.09612,0.259415 h 5.17e-4 0.309025 l -0.09612,0.259416 h 5.17e-4 0.309025 l -0.09612,0.259416 h 0.309026 l -0.09612,0.259416 h 5.17e-4 0.309025 l -0.09612,0.259932 h 5.17e-4 0.309025 l -0.09612,0.259416 h 0.309542 l -0.09612,0.259415 h 0.309025 l -0.09612,0.259416 h 5.17e-4 0.309025 l -0.09612,0.259416 h 0.309542 l -0.09612,0.259932 h 0.309025 l -0.09612,0.259416 h 5.17e-4 0.309025 l -0.09612,0.259416 h 0.309542 l -0.09612,0.259415 h 0.309025 l -0.09612,0.259416 h 5.16e-4 0.309026 l -0.09612,0.259416 h 0.309542 l -0.09612,0.259932 h 0.309542 l -0.09612,0.259416 h 0.309025 l -0.09612,0.259416 h 5.16e-4 0.309025 l -0.09612,0.259415 h 0.309542 l -0.09612,0.259416 h 0.309025 l -0.09612,0.259935 h 5.17e-4 0.308508 l -0.0956,0.2589 h 0.309541 l -0.09612,0.25993 h 0.308508 l -0.0956,0.2589 h 5.17e-4 0.309025 l -0.09612,0.25993 h 0.309542 l -0.09612,0.25942 h 0.309025 l -0.09612,0.25993 h 5.17e-4 0.308508 l -0.0956,0.2589 h 5.17e-4 0.309025 l -0.09612,0.25993 h 0.308508 l -0.0956,0.2589 h 5.16e-4 0.309025 l -0.09612,0.25993 h 5.17e-4 0.309025 l -0.09612,0.25942 h 0.309542 l -0.09612,0.25993 h 0.308508 l -0.0956,0.2589 h 5.17e-4 0.309025 l -0.09612,0.25993 h 0.309542 l -0.09612,0.25993 h 0.308508 l -0.0956,0.2589 h 5.16e-4 0.309025 l -0.09612,0.26045 h 0.309025 l -0.0956,0.2589 h 0.309542 l -0.09612,0.25993 h 0.308508 l -0.0956,0.2589 h 0.309541 l -0.09612,0.25993 h 0.309025 l -0.0956,0.2589 h 0.309025 l -0.09612,0.25994 h 5.17e-4 0.309025 l -0.09612,0.25941 h 0.234611 v 0.20257 l -0.02119,0.0574 h 0.02119 v 11.21172 h -0.07338 l -0.09612,-0.25993 H 88.14294 l -0.0956,-0.2589 h -0.117306 l -0.09612,-0.25993 h -0.117822 l -0.0956,-0.2589 h -0.116789 l -0.09612,-0.25993 h -0.117306 l -0.09612,-0.25942 h -0.117306 l -0.09612,-0.25993 h -0.117305 l -0.0956,-0.2589 h -0.117305 l -0.09612,-0.25993 h -0.117823 l -0.0956,-0.2589 h -0.117305 l -0.09612,-0.25993 h -0.116788 l -0.09612,-0.25942 h -0.117306 l -0.09612,-0.25993 h -0.117822 l -0.0956,-0.2589 h -0.116789 l -0.09612,-0.25993 h -0.117822 l -0.0956,-0.2589 H 84.94416 l -0.09612,-0.25993 h -0.116789 l -0.09612,-0.25942 h -0.117305 l -0.09612,-0.25993 h -0.117822 l -0.0956,-0.2589 h -0.117306 l -0.09612,-0.25993 h -0.117305 l -0.0956,-0.2589 h -0.117305 l -0.09612,-0.25994 h -0.117305 l -0.09612,-0.25941 H 83.23833 l -0.09612,-0.25993 h -0.11782 l -0.0956,-0.2589 h -0.117305 l -0.09612,-0.25994 h -0.117306 l -0.0956,-0.25889 h -0.117306 l -0.09612,-0.25994 h -0.117305 l -0.09612,-0.25941 H 81.95882 l -0.09612,-0.25993 h -0.117822 l -0.0956,-0.2589 h -0.117306 l -0.09612,-0.25994 h -0.117305 l -0.0956,-0.2589 h -0.117305 l -0.09612,-0.25993 h -0.117823 l -0.0956,-0.25941 h -0.117306 l -0.09612,-0.25994 h -0.117305 l -0.0956,-0.25889 h -0.117305 l -0.09612,-0.25994 h -0.117306 l -0.09612,-0.2589 h -0.116789 l -0.09612,-0.25993 h -0.117822 l -0.0956,-0.2589 h -0.116788 l -0.09664,-0.26045 h -0.117306 l -0.0062,-0.017 -0.08992,-0.24185 h -0.117305 l -0.02429,-0.0661 -0.07131,-0.19379 h -0.117305 l -0.04238,-0.1142 -0.05374,-0.1447 h -0.116789 l -0.06046,-0.16329 -0.03617,-0.0966 h -0.117306 l -0.07803,-0.21136 -0.01757,-0.0475 H 78.119771 L 78.023651,105 h -5.71903 l -2.495972,6.74739 h -0.04754 v -0.25941 H 69.54821 v -0.25993 h -0.213424 v -0.2589 H 69.121362 V 110.709 h -0.212907 v -0.009 -0.25011 h -0.213423 v -0.0222 -0.23771 h -0.213424 v -0.0331 -0.22634 h -0.212907 v -0.045 -0.21497 h -0.213423 v -0.0568 -0.20205 h -0.213424 v -0.0687 -0.19121 h -0.212907 v -0.0811 -0.17777 h -0.213424 v -0.093 -0.16692 H 67.2021 v -0.10542 -0.15399 h -0.213424 v -0.11679 -0.14315 h -0.212907 v -0.12764 -0.13125 h -0.213424 v -0.14108 -0.11886 h -0.213423 v -0.15193 -0.10697 h -0.212907 v -0.16484 -0.0951 h -0.213424 v -0.17622 -0.0827 h -0.213424 v -0.1881 -0.0724 h -0.213423 v -0.19998 -0.0589 h -0.212907 v -0.21187 -0.0481 h -0.213424 v -0.22376 -0.0351 H 64.85599 v -0.23616 -0.0238 h -0.212907 v -0.24805 -0.0109 h -0.213424 v -0.26045 H 45.835962 l -0.500228,0.50023 v 23.74997 h 0.213424 v 0.21188 0.048 h 0.212907 v 0.16434 0.0946 h 0.213423 v 0.11731 0.14263 h 0.213424 v 0.0692 0.19017 h 0.212907 v 0.0227 0.23719 h 0.213424 v 0.2589 h 0.213423 v 0.25994 h 0.212907 v 0.25889 h 0.213424 v 0.25994 h 0.213423 v 0.25941 h 0.213424 v 0.25993 h 0.212907 v 0.2589 h 0.213424 v 0.25994 h 0.213423 v 0.2589 h 0.212907 v 0.25993 h 0.213424 v 0.25941 h 0.213424 v 0.25994 h 0.212906 v 0.25889 h 0.213424 v 0.25994 h 0.213424 v 0.2589 h 0.213423 v 0.25993 h 0.212907 v 0.25941 h 0.213424 v 0.25994 h 0.213424 v 0.2589 h 0.212907 v 0.25993 h 0.213423 v 0.2589 h 0.213424 v 0.25993 h 0.212907 v 0.25942 h 0.213423 v 0.25993 h 0.213424 v 0.2589 H 51.9467 v 0.25993 h 0.213424 v 0.2589 h 0.213423 v 0.25993 h 0.212907 v 0.25942 h 0.213424 v 0.25993 h 0.213424 v 0.2589 h 0.213423 v 0.25993 h 0.212907 v 0.2589 h 0.213424 v 0.25993 h 0.213423 v 0.25942 h 0.212907 v 0.25993 h 0.213424 v 0.2589 h 0.213424 v 0.25993 h 0.213423 v 0.2589 h 0.212907 v 0.25993 h 0.213424 v 0.25942 h 0.213424 v 0.25993 h 0.212907 v 0.2589 h 0.213423 v 0.25993 h 0.213424 v 0.2589 h 0.212907 v 0.25993 h 0.213423 v 0.25994 h 0.213424 v 0.25941 h 0.213424 v 0.25993 h 0.212907 v 0.2589 h 0.213423 v 0.25993 h 0.213424 v 0.2589 h 0.212907 v 0.25994 h 0.213424 v 0.25941 h 0.213423 v 0.25993 h 0.212907 v 0.2589 h 0.213424 v 0.25994 h 0.213423 v 0.25889 h 0.212907 v 0.25994 h 0.213424 v 0.25941 h 0.213424 v 0.25994 h 0.212907 v 0.25889 h 0.213423 v 0.25994 h 0.213424 v 0.2589 h 0.213424 v 0.25993 h 0.212906 v 0.25941 h 0.213424 v 0.25994 h 0.213424 v 0.2589 H 61.1172 v 0.25993 h 0.213423 v 0.2589 h 0.213424 v 0.25993 h 0.212907 v 0.25941 h 0.213424 v 0.25994 h 0.213423 v 0.2589 h 0.213424 v 0.25993 h 0.212907 v 0.2589 h 0.213424 v 0.25993 h 0.213423 v 0.25942 h 0.212907 v 0.25993 h 0.213424 v 0.2589 h 0.213423 v 0.25993 h 0.212907 v 0.2589 h 0.213424 v 0.25993 h 0.213424 v 0.25942 h 0.212907 v 0.25993 h 0.213423 v 0.2589 h 0.213424 v 0.25993 h 0.212907 v 0.2589 h 0.213423 v 0.25993 h 0.213424 v 0.2589 h 0.213424 v 0.26045 h 0.212907 v 0.2589 h 0.213423 v 0.25993 h 0.213424 v 0.2589 h 0.212907 v 0.25993 h 0.213424 v 0.2589 h 0.213423 v 0.26045 h 0.213424 v 0.2589 h 0.212907 v 0.25993 h 0.213423 v 0.25993 h 0.213424 v 0.2589 h 0.212907 v 0.25994 h 0.213424 v 0.25941 h 0.213423 v 0.25993 h 0.212907 v 0.2589 h 0.213424 v 0.25994 h 0.213424 v 0.25889 h 0.212906 v 0.25994 h 0.213424 v 0.25941 h 0.213424 v 0.25994 h 0.212907 v 0.25889 h 0.213423 v 0.25994 h 0.213424 v 0.2589 h 0.213424 v 0.25993 h 0.212907 v 0.25941 h 0.213423 v 0.25994 h 0.213424 v 0.25889 h 0.212907 v 0.25994 h 0.213424 v 0.2589 h 0.213423 v 0.25993 h 0.212907 v 0.25941 h 0.213424 v 0.25994 h 0.213423 v 0.2589 h 0.213424 v 0.25993 h 0.212907 v 0.2589 h 0.213424 v 0.25993 h 0.213423 v 0.2589 h 0.212907 v 0.26045 h 0.213424 v 0.2589 h 0.213424 v 0.25993 h 0.212906 v 0.2589 h 0.213424 v 0.25993 h 0.213424 v 0.2589 h 0.213423 v 0.26045 h 0.212907 v 0.2589 h 0.213424 v 0.25993 h 0.213424 v 0.2589 h 0.212907 v 0.25993 h 0.213423 v 0.2589 h 0.213424 v 0.26045 h 0.212907 v 0.2589 h 0.213423 v 0.25993 h 0.213424 v 0.2589 h 0.212907 v 0.25993 h 0.213424 v 0.2589 h 0.213423 v 0.26045 h 0.212907 v 0.2589 h 0.213424 v 0.25993 h 0.213424 v 0.2589 h 0.213423 v 0.25993 h 0.212907 v 0.25994 h 0.213424 v 0.25941 h 0.213423 v 0.25993 h 0.212907 v 0.2589 h 0.213424 v 0.25994 h 0.213424 v 0.25889 h 0.213423 v 0.25994 h 0.212907 v 0.25941 h 0.213424 v 0.25993 h 0.213424 v 0.2589 h 0.212907 v 0.25994 h 0.213423 v 0.2589 h 0.213424 v 0.25993 h 0.212907 v 0.2589 h 0.213423 v 0.26045 h 0.213424 v 0.25889 h 0.212907 v 0.25994 h 0.213424 v 0.2589 h 0.213423 v 0.25993 h 0.212907 v 0.2589 h 0.213424 v 0.26045 h 0.213424 v 0.2589 h 0.213423 v 0.25993 h 0.212907 v 0.2589 h 0.213424 v 0.25993 h 0.213423 v 0.2589 h 0.212907 v 0.26045 h 0.213424 v 0.2589 h 0.213424 v 0.25993 h 0.212907 v 0.2589 h 0.213423 v 0.25993 h 0.213424 v 0.2589 h 0.213424 v 0.26045 h 0.212906 v 0.2589 h 0.213424 v 0.25993 h 0.213424 v 0.2589 h 0.212907 v 0.25993 h 0.213423 v 0.2589 h 0.213424 v 0.26045 h 0.212907 v 0.2589 h 0.213424 v 0.25993 h 0.213423 v 0.2589 h 0.212907 v 0.25993 h 0.213424 v 0.2589 h 0.213423 v 0.26045 h 0.212907 v 0.2589 h 0.213424 v 0.25993 h 0.213424 v 0.2589 h 0.213423 v 0.25993 h 0.212907 v 0.2589 h 0.213424 v 0.25993 h 0.213424 v 0.25942 h 0.212907 v 0.25993 h 0.213423 v 0.25993 h 0.213424 v 0.2589 h 0.213424 v 0.25994 h 0.212906 v 0.2589 h 0.213424 v 0.26044 h 0.213424 v 0.2589 h 0.212907 v 0.25994 h 0.213423 v 0.25889 h 0.213424 v 0.25994 h 0.212907 v 0.2589 h 0.213424 v 0.26045 h 0.213423 v 0.25889 h 0.213424 v 0.25994 h 0.212907 v 0.2589 h 0.213423 v 0.25993 h 0.213424 v 0.2589 h 0.212907 v 0.26045 h 0.213424 v 0.2589 h 0.213423 v 0.25993 h 0.212907 v 0.2589 h 0.213424 v 0.25993 h 0.213424 v 0.2589 h 0.212906 v 0.26045 h 0.213424 v 0.2589 h 0.213424 v 0.25993 h 0.212907 v 0.2589 h 0.213423 v 0.25993 h 0.213424 v 0.2589 h 0.213424 v 0.26045 h 0.212907 v 0.2589 h 0.213423 v 0.25993 h 0.213424 v 0.2589 h 0.212907 v 0.25993 h 0.213424 v 0.2589 h 0.213423 v 0.25993 h 0.212907 v 0.25942 h 0.213424 v 0.25993 h 0.213423 v 0.2589 h 0.213424 v 0.25993 h 0.212907 v 0.2589 h 0.213424 v 0.25993 h 0.213423 v 0.25942 h 0.212907 v 0.25993 h 0.213424 v 0.2589 h 0.213424 v 0.25993 h 0.212906 v 0.2589 h 0.213424 v 0.25993 h 0.213424 v 0.25942 h 0.212905 v 0.25993 h 0.21343 v 0.2589 h 0.21394 v 0.25993 h 0.2129 v 0.25994 h 0.21291 v 0.25889 h 0.21291 v 0.26045 h 0.21394 v 0.2589 h 0.21342 v 0.25994 h 0.21291 v 0.25889 h 0.2129 v 0.25994 h 0.21394 v 0.2589 h 0.21291 v 0.26045 h 0.21291 v 0.25889 h 0.21342 v 0.25994 h 0.21394 v 0.2589 h 0.21291 v 0.25993 h 0.21291 v 0.2589 h 0.21394 v 0.26045 h 0.2129 v 0.25889 h 0.21343 v 0.25994 h 0.2129 v 0.2589 h 0.21394 v 0.25993 h 0.21291 v 0.2589 h 0.21291 v 0.26045 h 0.21291 v 0.2589 h 0.21394 v 0.25993 h 0.21342 v 0.2589 h 0.21291 v 0.25993 h 0.2129 v 0.2589 h 0.21394 v 0.25993 h 0.21291 v 0.25942 h 0.21291 v 0.25993 h 0.21445 v 0.2589 h 0.21291 v 0.25993 h 0.21291 v 0.2589 h 0.21291 v 0.25993 h 0.21394 v 0.25942 h 0.2129 v 0.25993 h 0.21343 v 0.2589 h 0.2129 v 0.25993 h 0.21394 v 0.2589 h 0.21291 v 0.25993 h 0.21291 v 0.25942 h 0.2129 v 0.25993 h 0.21446 v 0.2589 h 0.21291 v 0.25993 h 0.21291 v 0.2589 h 0.21394 v 0.25993 h 0.2129 v 0.25942 h 0.21291 v 0.25993 h 0.21342 v 0.2589 h 0.21394 v 0.25993 h 0.21291 v 0.2589 h 0.21291 v 0.25993 h 0.2129 v 0.25942 h 0.21395 v 0.25993 h 0.21342 v 0.25994 h 0.21291 v 0.25889 h 0.2129 v 0.25994 h 0.21394 v 0.2589 h 0.21291 v 0.26044 h 0.21291 v 0.2589 h 0.21394 v 0.25994 h 0.21342 v 0.2589 h 0.21291 v 0.25993 h 0.2129 v 0.2589 h 0.21395 v 0.25993 h 0.2129 v 0.25941 h 0.21291 v 0.25994 h 0.21342 v 0.2589 h 0.21394 v 0.25993 h 0.21291 v 0.2589 h 0.21291 v 0.25993 h 0.2129 v 0.25942 h 0.21394 v 0.25993 h 0.21343 v 0.2589 h 0.2129 v 0.25993 h 0.21395 v 0.2589 h 0.2129 v 0.25993 h 0.21291 v 0.25942 h 0.21291 v 0.25993 h 0.21445 v 0.2589 h 0.21291 v 0.25993 h 0.21291 v 0.2589 h 0.2129 v 0.25993 h 0.21394 v 0.25942 h 0.21291 v 0.25993 h 0.21342 v 0.2589 h 0.21291 v 0.25993 h 0.21394 v 0.2589 h 0.21291 v 0.25993 h 0.21291 v 0.25942 h 0.2129 v 0.25993 h 0.21446 v 0.2589 h 0.21291 v 0.25993 h 0.2129 v 0.2589 h 0.21394 v 0.25993 h 0.21291 v 0.25942 h 0.21291 v 0.25993 h 0.21342 v 0.2589 h 0.21394 v 0.25993 h 0.21291 v 0.2589 h 0.21291 v 0.25993 h 0.2129 v 0.25942 h 0.21394 v 0.25993 h 0.21343 v 0.2589 h 0.2129 v 0.25993 h 0.21291 v 0.25994 h 0.21394 v 0.2589 h 0.21291 v 0.25993 h 0.2129 v 0.25941 h 0.21395 v 0.25994 h 0.21342 v 0.25889 h 0.21291 v 0.25994 h 0.2129 v 0.2589 h 0.21394 v 0.25993 h 0.21291 v 0.25941 h 0.21291 v 0.25994 h 0.21342 v 0.2589 h 0.21394 v 0.25993 h 0.21291 v 0.2589 h 0.2129 v 0.25993 h 0.21291 v 0.25942 h 0.21394 v 0.25993 h 0.21343 v 0.2589 h 0.2129 v 0.25993 h 0.21394 v 0.2589 h 0.21291 v 0.25993 h 0.21291 v 0.25942 h 0.2129 v 0.25993 h 0.21446 v 0.2589 h 0.21291 v 0.25993 h 0.2129 v 0.2589 h 0.21291 v 0.25993 h 0.21394 v 0.25942 h 0.21291 v 0.25993 h 0.21342 v 0.2589 h 0.21291 v 0.25993 h 0.21394 v 0.2589 h 0.21291 v 0.25993 h 0.2129 v 0.25942 h 0.21394 v 0.25993 h 0.21343 v 0.2589 h 0.2129 v 0.25993 h 0.21291 v 0.2589 h 0.21394 v 0.25993 h 0.21291 v 0.25942 h 0.21291 v 0.25993 h 0.21342 v 0.2589 h 0.21394 v 0.25993 h 0.21291 v 0.2589 h 0.2129 v 0.25993 h 0.21291 v 0.25942 h 0.21394 v 0.25993 h 0.21291 v 0.2589 h 0.21342 v 0.25993 h 0.21394 v 0.2589 h 0.21291 v 0.25993 h 0.21291 v 0.25994 h 0.2129 v 0.25941 h 0.21394 v 0.25994 h 0.21343 v 0.25889 h 0.2129 v 0.25994 h 0.21291 v 0.2589 h 0.21394 v 0.25993 h 0.21291 v 0.25941 h 0.21291 v 0.25994 h 0.21342 v 0.2589 h 0.21394 v 0.25993 h 0.21291 v 0.2589 h 0.2129 v 0.25993 h 0.21291 v 0.25941 h 0.21394 v 0.25994 h 0.21342 v 0.2589 h 0.21291 v 0.25993 h 0.21394 v 0.2589 h 0.21291 v 0.25993 h 0.21291 v 0.25942 h 0.2129 v 0.25993 h 0.21446 v 0.2589 h 0.21291 v 0.25993 h 0.2129 v 0.2589 h 0.21291 v 0.25993 h 0.21394 v 0.25942 h 0.21291 v 0.25993 h 0.21342 v 0.2589 h 0.21291 v 0.25993 h 0.21394 v 0.2589 h 0.21291 v 0.25993 h 0.2129 v 0.25942 h 0.21394 v 0.25993 h 0.21343 v 0.2589 h 0.2129 v 0.25993 h 0.21291 v 0.2589 h 0.21394 v 0.25993 h 0.21291 v 0.2589 h 0.2129 v 0.26045 h 0.21343 v 0.2589 h 0.21394 v 0.25993 h 0.21291 v 0.2589 h 0.2129 v 0.25993 h 0.21291 v 0.2589 h 0.21394 v 0.26045 h 0.21291 v 0.2589 h 0.21342 v 0.25993 h 0.21394 v 0.2589 h 0.21291 v 0.25993 h 0.2129 v 0.2589 h 0.21291 v 0.26045 h 0.21394 v 0.2589 h 0.21343 v 0.25993 h 0.2129 v 0.25994 h 0.21291 v 0.2589 h 0.21394 v 0.25993 h 0.21291 v 0.25941 h 0.2129 v 0.25994 h 0.21343 v 0.2589 h 0.21394 v 0.25993 h 0.2129 v 0.2589 h 0.21291 v 0.25993 h 0.21394 v 0.25941 h 0.21291 v 0.25994 h 0.21342 v 0.2589 h 0.21291 v 0.25993 h 0.21394 v 0.2589 h 0.21291 v 0.25993 h 0.2129 v 0.25942 h 0.21291 v 0.25993 h 0.21446 v 0.2589 h 0.2067 0.006 v 0.25993 h 0.19482 0.0181 v 0.2589 h 0.1819 0.031 v 0.25993 h 0.16898 0.045 v 0.25942 h 0.15606 0.0569 v 0.25993 h 0.14314 0.0703 v 0.2589 h 0.13074 0.0832 v 0.25993 h 0.11679 0.0961 v 0.2589 h 0.10387 0.10903 v 0.25993 h 0.092 0.12092 v 0.2589 h 0.0791 0.13487 v 0.26045 h 0.0651 0.1478 v 0.2589 h 0.0532 0.1602 v 0.25993 h 0.0398 0.17312 v 0.2589 h 0.0269 0.18707 v 0.25993 h 0.0139 0.19896 v 0.2589 h 0.001 6.46782 v -5.2e-4 -9.06146 h 0.002 4.36666 l -0.0884,0.23926 h 0.31006 l -0.0961,0.25994 h 0.30851 l -0.0956,0.2589 h 0.30902 l -0.0961,0.25993 h 0.30903 l -0.0961,0.25941 h 0.31006 l -0.0961,0.25994 h 0.30903 l -0.0956,0.2589 h 0.30902 l -0.0961,0.25993 h 0.30851 l -0.0956,0.2589 h 0.31006 l -0.0961,0.25993 h 0.30902 l -0.0961,0.25941 h 0.30954 l -0.0961,0.25994 h 0.30954 l -0.0956,0.2589 h 0.30076 0.008 l -0.0961,0.25993 h 0.28784 0.0207 l -0.0956,0.2589 h 0.27389 0.0351 l -0.0961,0.25993 h 0.26097 0.0491 l -0.0961,0.25942 h 0.24702 0.062 l -0.0961,0.25993 h 0.23306 0.076 l -0.0956,0.2589 h 0.21963 0.0894 l -0.0961,0.25993 h 0.20567 0.10387 l -0.0956,0.2589 h 0.19172 0.1173 l -0.0961,0.25993 h 0.17931 0.12971 l -0.0961,0.25942 h 0.16537 0.14366 l -0.0961,0.25993 h 0.15245 0.15761 l -0.0956,0.2589 h 0.13797 0.17105 l -0.0961,0.25993 h 0.12403 0.18448 l -0.0956,0.2589 h 0.11111 0.19792 l -0.0961,0.25993 h 0.0971 0.21239 l -0.0956,0.2589 h 0.0832 0.22582 l -0.0961,0.26045 h 0.0703 0.23874 l -0.0956,0.2589 h 0.0558 0.25425 l -0.0961,0.25993 h 0.0419 0.26665 l -0.0956,0.2589 h 0.0279 0.28112 l -0.0961,0.25993 h 0.015 0.29352 l -0.0956,0.2589 h 0.002 6.84196 l 1.25005,-3.34398 h 6.07353 l 0.0863,0.23048 h 0.11627 l 0.0971,0.25993 h 0.11628 l 0.0966,0.2589 h 0.11576 l 0.0971,0.25993 h 0.1173 l 0.0966,0.2589 h 0.11007 0.006 l 0.0972,0.25993 h 0.0971 0.0191 l 0.0966,0.2589 h 0.0832 0.0331 l 0.0972,0.26045 h 0.0698 0.0475 l 0.0966,0.2589 h 0.0558 0.0599 l 0.0971,0.25993 h 0.0419 0.0744 l 0.0966,0.2589 h 0.0289 0.0868 l 0.0971,0.25993 h 0.015 0.10232 l 0.0966,0.2589 h 0.001 6.84196 v -5.2e-4 l -4.9599,-13.41158 c 0.005,0.005 0.0108,0.009 0.016,0.0139 0.0457,0.0591 0.0798,0.12643 0.12712,0.18449 0.0249,0.0293 0.0584,0.0507 0.0873,0.0765 0.0453,0.0584 0.0788,0.12505 0.12558,0.18242 0.0253,0.0298 0.059,0.0521 0.0884,0.078 0.0452,0.0583 0.0789,0.12464 0.12558,0.1819 0.0247,0.0292 0.0583,0.0509 0.0873,0.0765 0.0453,0.0584 0.0787,0.12507 0.12557,0.18242 0.0247,0.0294 0.0578,0.0512 0.0868,0.0765 0.0456,0.0589 0.0795,0.12565 0.12661,0.18345 0.0249,0.0292 0.0577,0.0513 0.0868,0.0765 0.0454,0.0586 0.0791,0.12537 0.1261,0.18294 0.0258,0.0303 0.0587,0.0528 0.0889,0.0785 0.0451,0.0581 0.0784,0.12428 0.12506,0.18139 0.0245,0.0297 0.0578,0.0522 0.0879,0.0775 0.0451,0.0581 0.0785,0.1243 0.12505,0.18139 0.0241,0.0292 0.0565,0.0508 0.0858,0.0755 0.0458,0.0591 0.0797,0.12639 0.12712,0.18448 0.0245,0.0293 0.057,0.0515 0.0868,0.076 0.0454,0.0586 0.0791,0.12535 0.12609,0.18294 0.0253,0.0304 0.0584,0.0535 0.0894,0.0786 0.0451,0.0581 0.0785,0.1243 0.12505,0.18138 0.0246,0.0298 0.0568,0.053 0.0873,0.0775 0.0452,0.0583 0.0788,0.12466 0.12557,0.1819 0.0241,0.0287 0.0554,0.051 0.0853,0.0749 0.0459,0.0593 0.0801,0.12676 0.12764,0.185 0.025,0.0292 0.057,0.0526 0.0879,0.077 0.0452,0.0582 0.0784,0.12471 0.12505,0.1819 0.0252,0.0295 0.0568,0.053 0.0879,0.077 0.0455,0.0586 0.0791,0.12538 0.12609,0.18293 0.0244,0.0288 0.0559,0.0523 0.0868,0.076 0.0455,0.0586 0.0791,0.1254 0.12609,0.18293 0.025,0.0296 0.0558,0.054 0.0873,0.0775 0.0454,0.0585 0.0792,0.12497 0.1261,0.18242 0.0244,0.0284 0.0546,0.0515 0.0853,0.0739 0.046,0.0594 0.0801,0.12722 0.12764,0.18552 0.0259,0.0302 0.0564,0.0551 0.0889,0.0786 0.0451,0.0581 0.0785,0.12428 0.12505,0.18138 0.0246,0.029 0.0541,0.0533 0.0863,0.0755 0.0456,0.0588 0.0795,0.12569 0.12661,0.18345 0.0248,0.0294 0.054,0.054 0.0863,0.0765 0.0456,0.0588 0.0795,0.12566 0.12661,0.18345 0.026,0.03 0.0549,0.056 0.0889,0.078 3.1e-4,3.8e-4 7.2e-4,6.6e-4 0.001,0.001 0.0448,0.0576 0.0778,0.12322 0.12403,0.17983 0.024,0.029 0.0522,0.0529 0.0842,0.0739 9.4e-4,0.001 0.002,0.002 0.003,0.003 0.0455,0.0586 0.0791,0.12536 0.12609,0.18293 0.022,0.027 0.0485,0.0503 0.0785,0.0703 0.004,0.005 0.009,0.009 0.0134,0.014 0.0436,0.0561 0.0759,0.12005 0.12093,0.17518 0.021,0.026 0.0459,0.0476 0.0749,0.0656 0.004,0.005 0.01,0.009 0.0139,0.0139 0.0448,0.0577 0.0778,0.12363 0.12402,0.18035 0.02,0.024 0.0438,0.044 0.0698,0.062 0.009,0.0103 0.0192,0.0187 0.0279,0.0289 0.042,0.0538 0.0731,0.11506 0.11627,0.16795 0.018,0.022 0.0401,0.0419 0.0651,0.0579 0.009,0.0105 0.02,0.019 0.0289,0.0294 0.043,0.0552 0.0746,0.1183 0.11885,0.1726 0.017,0.02 0.037,0.0382 0.061,0.0532 0.0105,0.0125 0.0235,0.0227 0.0341,0.0351 0.0425,0.0546 0.074,0.11684 0.11782,0.17053 0.016,0.019 0.0353,0.0361 0.0563,0.0501 0.013,0.0154 0.0293,0.0276 0.0424,0.0429 0.0416,0.0533 0.0719,0.11444 0.11472,0.16691 0.015,0.017 0.0317,0.032 0.0517,0.045 0.0149,0.0177 0.0335,0.032 0.0486,0.0496 0.0412,0.0527 0.0713,0.11301 0.11369,0.16485 0.013,0.016 0.029,0.0299 0.046,0.0419 0.0173,0.0205 0.0389,0.037 0.0563,0.0574 0.0401,0.0513 0.0694,0.11018 0.11059,0.16071 0.012,0.014 0.0259,0.0257 0.0419,0.0367 0.0185,0.022 0.0418,0.0397 0.0605,0.0615 0.0401,0.0513 0.0694,0.11019 0.11059,0.16071 0.011,0.013 0.0232,0.0241 0.0382,0.0331 0.0191,0.0226 0.0427,0.0411 0.062,0.0636 0.0407,0.0522 0.0708,0.11185 0.11265,0.16329 0.01,0.011 0.0211,0.0209 0.0331,0.0289 0.0232,0.0275 0.052,0.0498 0.0754,0.077 0.0383,0.0488 0.0661,0.10481 0.10542,0.15296 0.008,0.01 0.0174,0.0183 0.0284,0.0253 0.0241,0.0286 0.0542,0.0518 0.0785,0.0801 0.0386,0.0494 0.0668,0.10587 0.10646,0.15451 0.007,0.008 0.0137,0.0152 0.0227,0.0212 0.0268,0.0318 0.0601,0.0579 0.0873,0.0894 0.0373,0.0475 0.0646,0.10197 0.10283,0.14883 0.006,0.007 0.0116,0.0115 0.0186,0.0165 0.0285,0.0339 0.0641,0.0616 0.093,0.0951 0.0371,0.0473 0.0642,0.10163 0.10231,0.14831 0.004,0.005 0.008,0.009 0.014,0.0119 0.0298,0.0354 0.0669,0.0642 0.0971,0.0992 0.037,0.0471 0.0639,0.1013 0.1018,0.14779 0.002,0.004 0.006,0.006 0.009,0.009 0.0322,0.0382 0.0722,0.0693 0.1049,0.10697 0.0361,0.046 0.0622,0.0988 0.0992,0.14417 l 0.005,0.004 c 0.0333,0.0395 0.0747,0.0716 0.10852,0.11059 0.0361,0.046 0.0622,0.0988 0.0992,0.14417 0.66698,0.792 1.44804,1.47993 2.34404,2.06293 h 0.001 c 0.895,0.563 1.86425,1.00006 2.90525,1.31206 l 0.001,10e-4 c 0.458,0.145 0.91556,0.26014 1.37356,0.34314 h 0.001 c 0.479,0.083 0.95812,0.12505 1.43712,0.12505 h 0.001 c 0.479,0 0.95812,-0.042 1.43712,-0.12505 0.479,-0.083 0.94712,-0.19817 1.40612,-0.34417 1.041,-0.312 2.00977,-0.75006 2.90577,-1.31206 l 0.001,-0.001 c 0.895,-0.583 1.66597,-1.26989 2.31097,-2.06189 h 0.001 c 0.666,-0.792 1.17718,-1.67665 1.53118,-2.65565 0.375,-0.979 0.56172,-2.02039 0.56172,-3.12539 v -15.37477 h -0.21291 v -0.2589 h -0.014 -0.19999 v -0.25993 h -0.0269 -0.18604 v -0.25942 h -0.0403 -0.1726 v -0.25993 h -0.0543 -0.15917 v -0.2589 h -0.0677 -0.14625 v -0.25993 h -0.0806 -0.13229 v -0.2589 h -0.0941 -0.11886 v -0.25993 h -0.108 -0.10594 v -0.25942 h -0.12092 -0.092 v -0.25993 h -0.13539 -0.078 v -0.2589 h -0.1478 -0.0651 v -0.25993 h -0.16175 -0.0522 v -0.2589 h -0.17467 -0.0382 v -0.25993 h -0.1881 -0.0248 v -0.25942 h -0.20206 -0.0108 v -0.25993 h -0.21394 v -0.25994 h -0.21342 v -0.25889 H 211.504 v -0.25994 h -0.21291 v -0.2589 h -0.21394 v -0.26044 h -0.2129 v -0.2589 h -0.21291 v -0.25994 h -0.21446 v -0.25889 h -0.21291 v -0.25994 h -0.2129 v -0.2589 h -0.21291 v -0.26045 h -0.21394 v -0.25889 h -0.21291 v -0.25994 h -0.21342 v -0.2589 h -0.21291 v -0.25993 h -0.21394 v -0.2589 h -0.2129 v -0.26045 h -0.21291 v -0.2589 h -0.21291 v -0.25993 h -0.21446 v -0.2589 h -0.2129 v -0.25993 h -0.21291 v -0.2589 h -0.21394 c -2e-5,-0.009 2e-5,-0.25993 0,-0.25993 h -0.21291 v -0.25942 h -0.2129 v -0.25993 h -0.21343 v -0.2589 h -0.21394 v -0.25993 h -0.2129 v -0.2589 h -0.21291 v -0.25993 h -0.21291 v -0.25942 h -0.21394 v -0.25993 h -0.21342 v -0.2589 h -0.21291 v -0.25993 h -0.21291 v -0.2589 h -0.21394 v -0.25993 h -0.2129 v -0.25942 h -0.21291 v -0.25993 h -0.21446 c -2e-5,-0.01 2e-5,-0.2589 0,-0.2589 h -0.2129 v -0.25993 h -0.21291 v -0.2589 h -0.21291 v -0.25993 h -0.21394 v -0.25942 h -0.21291 v -0.25993 h -0.21342 v -0.2589 h -0.21291 v -0.25993 h -0.21394 v -0.2589 h -0.2129 v -0.25993 h -0.21291 v -0.25942 h -0.21291 v -0.25993 h -0.21394 v -0.2589 h -0.21342 v -0.25993 h -0.21291 v -0.2589 H 200.842 v -0.25994 h -0.21394 v -0.26044 h -0.2129 v -0.2589 h -0.21291 v -0.25994 h -0.21446 v -0.25889 h -0.2129 v -0.25994 h -0.21291 v -0.2589 h -0.21291 v -0.25993 h -0.21394 v -0.25941 h -0.21291 v -0.25994 h -0.21342 v -0.2589 h -0.21291 v -0.25993 h -0.21394 v -0.2589 h -0.2129 v -0.25993 h -0.21291 v -0.25941 h -0.21291 v -0.25994 h -0.21445 v -0.2589 h -0.21291 v -0.25993 h -0.21291 v -0.2589 h -0.21394 v -0.25993 h -0.21291 v -0.25942 h -0.2129 v -0.25993 h -0.21343 v -0.2589 h -0.21394 v -0.25993 h -0.2129 v -0.2589 h -0.21291 v -0.25993 h -0.21291 v -0.25942 h -0.21394 v -0.25993 h -0.21342 v -0.2589 h -0.21291 v -0.25993 h -0.2129 v -0.2589 H 194.23 v -0.25993 h -0.2129 v -0.25942 h -0.21291 v -0.25993 h -0.21394 c -2e-5,-0.0107 2e-5,-0.2589 0,-0.2589 h -0.21342 v -0.25993 h -0.21291 v -0.2589 h -0.21291 v -0.25993 h -0.21394 v -0.25942 h -0.2129 v -0.25993 h -0.21343 v -0.2589 h -0.2129 v -0.25993 h -0.21395 v -0.2589 h -0.2129 v -0.25993 h -0.21291 v -0.25942 h -0.21291 v -0.25993 h -0.21394 v -0.2589 h -0.21342 v -0.25993 h -0.21291 v -0.2589 h -0.21394 c -2e-5,-0.0112 2e-5,-0.25993 0,-0.25993 h -0.2129 v -0.25942 h -0.21291 v -0.25993 h -0.21291 v -0.2589 h -0.21446 V 203.354 h -0.2129 v -0.2589 h -0.21291 v -0.25994 h -0.21291 v -0.25993 h -0.21394 v -0.25941 h -0.2129 v -0.25994 h -0.21343 v -0.2589 h -0.2129 v -0.25993 h -0.21394 v -0.2589 h -0.21291 v -0.25993 h -0.21291 v -0.25941 h -0.2129 v -0.25994 h -0.21446 v -0.2589 h -0.21291 v -0.25993 h -0.21291 v -0.2589 h -0.21394 v -0.25993 h -0.2129 v -0.25942 h -0.21291 v -0.25993 h -0.21342 v -0.2589 h -0.21394 v -0.25993 h -0.21291 v -0.2589 h -0.21291 v -0.25993 h -0.2129 v -0.25942 h -0.21395 v -0.25993 h -0.21342 v -0.2589 h -0.21291 v -0.25993 h -0.2129 v -0.2589 H 183.78 v -0.25993 h -0.21291 v -0.25942 h -0.21291 v -0.25993 h -0.21394 c -2e-5,-0.0121 3e-5,-0.2589 0,-0.2589 h -0.21342 v -0.25993 h -0.21291 v -0.2589 h -0.2129 v -0.25993 h -0.21395 v -0.25942 h -0.2129 v -0.25993 h -0.21291 v -0.2589 h -0.21342 V 193.752 h -0.21394 v -0.2589 h -0.21291 v -0.25993 h -0.21291 v -0.25942 h -0.2129 v -0.25993 h -0.21394 v -0.2589 h -0.21343 v -0.25993 h -0.2129 v -0.2589 h -0.21395 c -2e-5,-0.0128 3e-5,-0.25993 0,-0.25993 h -0.2129 v -0.2589 h -0.21291 v -0.26045 h -0.21291 v -0.2589 h -0.21445 v -0.25993 h -0.21291 v -0.2589 h -0.21291 v -0.25994 h -0.2129 v -0.25889 h -0.21394 v -0.26045 h -0.21291 v -0.2589 h -0.21343 v -0.25993 h -0.2129 v -0.25994 h -0.21394 v -0.2589 h -0.21291 v -0.25993 h -0.21291 v -0.25941 h -0.21394 c -2e-5,-0.0133 3e-5,-0.25994 0,-0.25994 h -0.21342 v -0.2589 h -0.21291 v -0.25993 h -0.2129 v -0.2589 h -0.21394 c -1e-5,-0.0135 0,-0.25993 0,-0.25993 h -0.21291 v -0.25942 h -0.21291 v -0.25993 h -0.21342 v -0.2589 h -0.21394 v -0.25993 h -0.21291 v -0.2589 h -0.21291 v -0.25993 h -0.2129 v -0.25942 h -0.21394 v -0.25993 h -0.21343 v -0.2589 h -0.2129 V 184.15 h -0.21394 c -3e-5,-0.0139 2e-5,-0.2589 0,-0.2589 h -0.21291 v -0.25993 h -0.21291 v -0.25942 h -0.21291 v -0.25993 h -0.21394 c -2e-5,-0.014 3e-5,-0.2589 0,-0.2589 h -0.21342 v -0.25993 h -0.21291 v -0.2589 h -0.2129 v -0.25993 h -0.21394 v -0.25942 h -0.21291 v -0.25993 h -0.21291 v -0.2589 h -0.21342 v -0.25993 h -0.21394 v -0.2589 h -0.21291 v -0.25993 h -0.21291 v -0.2589 h -0.2129 v -0.26045 h -0.21394 v -0.2589 h -0.21343 v -0.25993 h -0.2129 v -0.2589 h -0.21394 c -3e-5,-0.0149 3e-5,-0.25993 0,-0.25993 h -0.21291 v -0.2589 h -0.21291 v -0.26045 h -0.2129 v -0.2589 h -0.21446 v -0.25993 h -0.21291 v -0.2589 h -0.21291 v -0.25994 h -0.2129 v -0.25889 h -0.21394 v -0.26045 h -0.21291 v -0.2589 h -0.21342 v -0.25993 h -0.21291 v -0.2589 h -0.21394 v -0.25994 h -0.21291 v -0.25889 h -0.2129 v -0.26045 h -0.21394 c -3e-5,-0.0156 3e-5,-0.2589 0,-0.2589 h -0.21343 v -0.0538 h 3.01946 l -2.1115,-5.70921 h 0.30644 l -0.0961,0.2589 h 0.30954 l -0.0966,0.25993 h 0.30954 l -0.0956,0.25942 h 0.30902 l -0.0961,0.25993 h 0.30955 l -0.0961,0.25993 h 0.30954 l -0.0956,0.2589 h 0.30902 l -0.0961,0.25993 h 0.30851 l -0.0956,0.2589 h 0.30954 l -0.0966,0.26045 h 0.30954 l -0.0956,0.2589 h 0.30954 l -0.0961,0.25993 h 0.30903 l -0.0961,0.2589 h 0.30954 l -0.0966,0.25994 h 0.30902 l -0.0951,0.25889 h 0.30902 l -0.0961,0.26045 h 0.30903 l -0.0961,0.2589 h 0.31006 l -0.004,0.01 -0.093,0.25012 h 0.31006 l -0.0222,0.0599 -0.0739,0.19895 h 0.30851 l -0.0408,0.11007 -0.0548,0.14987 h 0.30903 l -0.0589,0.15916 -0.0372,0.0997 h 0.31006 l -0.078,0.21032 -0.0181,0.0501 h 0.30851 l -0.0956,0.2589 h 7.05538 l 1.28778,-3.44733 h 6.18928 l 0.0279,0.0744 h 0.11575 l 0.0661,0.17674 0.031,0.0822 h 0.11628 l 0.0687,0.18397 0.0279,0.076 h 0.11679 l 0.0713,0.19017 0.0248,0.0687 h 0.1173 l 0.0739,0.19792 0.0227,0.062 h 0.11575 l 0.0765,0.20412 0.0207,0.0548 h 0.11627 l 0.0791,0.21136 0.0181,0.0491 h 0.11679 l 0.0811,0.21756 0.015,0.0413 h 0.11678 l 0.0842,0.2248 0.0129,0.0351 h 0.11627 l 0.0868,0.23202 0.01,0.0269 h 0.11679 l 0.0894,0.23927 0.007,0.0207 h 0.11679 l 0.0915,0.24494 0.006,0.014 h 0.11576 l 0.0946,0.25321 0.003,0.007 h 0.11628 l 0.0966,0.2589 h 7.05487 l -2.1115,-5.70921 h 0.30644 l -0.0961,0.2589 h 0.31058 l -0.0961,0.25993 h 0.30902 l -0.0961,0.25942 h 0.30902 l -0.0961,0.25993 h 0.31006 l -0.0961,0.25993 h 0.30851 l -0.0956,0.2589 h 0.30903 l -0.0961,0.25993 h 0.30954 l -0.0961,0.2589 h 0.31006 l -0.0961,0.26045 h 0.30851 l -0.0956,0.2589 h 0.30902 l -0.0961,0.25993 h 0.30902 l -0.0961,0.2589 h 0.31006 l -0.0961,0.25994 h 0.30903 l -0.0961,0.25889 h 0.30902 l -0.0956,0.26045 h 0.30903 l -0.0961,0.2589 h 0.30954 l -0.004,0.01 -0.092,0.25012 h 0.30903 l -0.0222,0.0599 -0.0739,0.19895 h 0.31006 l -0.0408,0.11007 -0.0563,0.14987 h 0.30903 l -0.0589,0.15916 -0.0362,0.0997 h 0.30903 l -0.078,0.21032 -0.0176,0.0501 h 0.30851 l -0.0956,0.2589 h 7.05486 l 1.28881,-3.44733 h 6.18825 l 0.0279,0.0744 h 0.11576 l 0.0661,0.17674 0.031,0.0822 h 0.11627 l 0.0687,0.18397 0.0279,0.076 h 0.11679 l 0.0713,0.19017 0.0263,0.0687 h 0.11576 l 0.0739,0.19792 0.0233,0.062 h 0.11627 l 0.0765,0.20412 0.0202,0.0548 h 0.11576 l 0.0791,0.21136 0.0181,0.0491 h 0.11679 l 0.0811,0.21756 0.016,0.0413 H 214.81 l 0.0842,0.2248 0.0129,0.0351 h 0.11627 l 0.0868,0.23202 0.0103,0.0269 h 0.11627 l 0.0894,0.23927 0.008,0.0207 h 0.11628 l 0.0915,0.24494 0.005,0.014 h 0.11627 l 0.0946,0.25321 0.002,0.007 h 0.11627 l 0.0966,0.2589 h 7.0559 l -9.24594,-25.00002 h -0.11731 l -0.0775,-0.20929 -0.0181,-0.0496 h -0.11731 l -0.0594,-0.1602 -0.0372,-0.10025 h -0.11782 l -0.0403,-0.10955 -0.0548,-0.14935 h -0.11679 l -0.0222,-0.0599 -0.0739,-0.19999 h -0.11731 l -0.004,-0.01 -0.093,-0.24908 h -0.11679 l -0.0966,-0.25993 H 212.386 l -0.0961,-0.2589 h -0.11678 l -0.0961,-0.25993 h -0.11731 l -0.0966,-0.25942 h -0.11679 l -0.0961,-0.25993 h -0.11731 l -0.0956,-0.2589 h -0.1173 l -0.0961,-0.25993 h -0.11782 l -0.0961,-0.2589 h -0.11679 l -0.0961,-0.25993 h -0.11679 l -0.0961,-0.25942 h -0.11679 l -0.0961,-0.25993 h -0.11782 l -0.0961,-0.25993 h -0.11782 l -0.0956,-0.2589 h -0.11678 l -0.0961,-0.25994 h -0.11782 l -0.0961,-0.25889 h -0.11627 l -0.0966,-0.26045 H 209.187 l -0.0956,-0.2589 h -0.11679 l -0.0961,-0.25994 h -0.11834 l -0.0961,-0.25889 h -0.11679 l -0.0961,-0.25994 h -0.11679 l -0.0961,-0.2589 h -0.11679 l -0.0961,-0.26045 h -0.11834 l -0.0956,-0.25889 h -0.11679 l -0.0961,-0.25994 h -0.11782 l -0.0956,-0.2589 h -0.11679 l -0.0961,-0.25993 h -0.11834 l -0.0956,-0.2589 h -0.11679 l -0.0961,-0.26045 h -0.1173 l -0.0956,-0.25889 h -0.11679 l -0.0961,-0.25994 h -0.11834 l -0.0956,-0.2589 h -0.11731 l -0.0961,-0.25993 h -0.11731 l -0.0956,-0.2589 h -0.11782 l -0.0961,-0.26045 h -0.11731 l -0.0956,-0.2589 h -0.11679 l -0.0961,-0.25993 h -0.1173 l -0.0956,-0.2589 h -0.11834 l -0.0961,-0.25993 h -0.11731 l -0.0956,-0.2589 h -0.11679 l -0.0961,-0.26045 h -0.11731 l -0.0956,-0.2589 h -0.11782 l -0.0961,-0.25993 h -0.11731 l -0.0956,-0.2589 h -0.1173 l -0.0961,-0.25993 h -0.11731 l -0.0956,-0.2589 h -0.11782 l -0.0961,-0.25993 h -0.11679 l -0.0961,-0.25942 h -0.11678 l -0.0961,-0.25993 h -0.11834 l -0.0956,-0.2589 h -0.11731 l -0.0961,-0.25993 h -0.1173 l -0.0956,-0.2589 h -0.11679 l -0.0961,-0.25993 h -0.11782 l -0.0961,-0.25942 h -0.11679 l -0.0961,-0.25993 h -0.1173 l -0.0956,-0.2589 h -0.11731 l -0.0961,-0.25993 h -0.11834 l -0.0956,-0.2589 h -0.11679 l -0.0961,-0.25993 h -0.11678 l -0.0961,-0.25942 h -0.11679 l -0.0961,-0.25993 h -0.11834 l -0.0956,-0.2589 h -0.11731 l -0.0961,-0.25993 h -0.11731 l -0.0956,-0.2589 h -0.11679 l -0.0961,-0.25993 h -0.11782 l -0.0961,-0.26045 h -0.1173 l -0.0956,-0.2589 h -0.11679 l -0.0961,-0.25994 h -0.11834 l -0.0956,-0.25889 h -0.11731 l -0.0961,-0.25994 h -0.1173 l -0.0956,-0.2589 h -0.11679 l -0.0961,-0.26044 h -0.11834 l -0.0956,-0.2589 h -0.11679 l -0.0961,-0.25994 h -0.11782 l -0.0956,-0.2589 h -0.11679 l -0.0961,-0.25993 h -0.11834 l -0.0956,-0.2589 h -0.11679 l -0.0961,-0.26045 h -0.11731 l -0.0956,-0.25889 h -0.11679 l -0.0961,-0.25994 h -0.11834 l -0.0956,-0.2589 h -0.1173 l -0.0961,-0.25993 h -0.11731 l -0.0956,-0.2589 h -0.11782 l -0.0961,-0.25993 h -0.11679 l -0.0961,-0.25942 h -0.11679 l -0.0961,-0.25993 h -0.11731 l -0.0956,-0.2589 h -0.11834 l -0.0961,-0.25993 h -0.1173 l -0.0956,-0.2589 h -0.11679 l -0.0961,-0.25993 h -0.11679 l -0.0961,-0.25942 h -0.11782 l -0.0961,-0.25993 h -0.1173 l -0.0956,-0.2589 h -0.1173 l -0.0961,-0.25993 h -0.11731 l -0.0956,-0.2589 h -0.11782 l -0.0961,-0.25993 h -0.11679 l -0.0961,-0.25942 h -0.11679 l -0.0961,-0.25993 H 191.913 l -0.0956,-0.2589 h -0.11731 l -0.0961,-0.25993 h -0.11731 l -0.0956,-0.2589 h -0.11679 l -0.0961,-0.25993 h -0.11782 l -0.0961,-0.25942 h -0.11679 l -0.0961,-0.25993 h -0.1173 l -0.0956,-0.2589 h -0.11731 l -0.0961,-0.25993 h -0.11834 l -0.0956,-0.2589 h -0.11679 l -0.0961,-0.25993 h -0.11679 l -0.0961,-0.25942 h -0.11679 l -0.0961,-0.25993 h -0.11834 l -0.0956,-0.2589 h -0.1173 l -0.0961,-0.25993 h -0.11731 l -0.0956,-0.2589 h -0.11679 l -0.0961,-0.25993 h -0.11782 l -0.0961,-0.25942 h -0.11678 l -0.0961,-0.25993 h -0.11679 l -0.0961,-0.25993 h -0.11834 l -0.0956,-0.2589 h -0.11731 l -0.0961,-0.25994 h -0.11731 l -0.0956,-0.2589 h -0.11679 l -0.0961,-0.25993 h -0.11782 l -0.0961,-0.25941 h -0.11679 l -0.0961,-0.25994 h -0.1173 l -0.0956,-0.25889 h -0.11731 l -0.0961,-0.25994 h -0.11833 l -0.0956,-0.2589 h -0.11678 l -0.0961,-0.25993 h -0.11679 l -0.0961,-0.25941 h -0.11679 l -0.0961,-0.25994 h -0.11834 l -0.0956,-0.2589 h -0.1173 l -0.0961,-0.25993 h -0.11731 l -0.0956,-0.2589 h -0.11782 l -0.0961,-0.25993 h -0.11679 l -0.0961,-0.25942 h -0.11678 l -0.0961,-0.25993 h -0.11731 l -0.0956,-0.2589 h -0.11834 l -0.0961,-0.25993 h -0.1173 l -0.0956,-0.2589 h -0.11679 l -0.0961,-0.25993 h -0.11679 l -0.0961,-0.25942 h -0.11782 l -0.0961,-0.25993 h -0.1173 l -0.0956,-0.2589 h -0.11731 l -0.0961,-0.25993 h -0.1173 l -0.0956,-0.2589 h -0.11783 l -0.0961,-0.25993 h -0.11678 l -0.0961,-0.25942 h -0.11679 l -0.0961,-0.25993 h -0.1173 l -0.0956,-0.2589 h -0.11833 l -0.0961,-0.25993 h -0.11731 l -0.0956,-0.2589 h -0.11679 l -0.0961,-0.25993 h -0.11782 l -0.0961,-0.25942 h -0.11679 l -0.0961,-0.25993 h -0.11731 l -0.0956,-0.2589 h -0.11731 l -0.0961,-0.25993 h -0.11834 l -0.0956,-0.2589 h -0.11678 l -0.0961,-0.25993 h -0.11679 l -0.0961,-0.25942 h -0.11679 l -0.0961,-0.25993 h -0.11833 l -0.0956,-0.2589 h -0.1173 l -0.0961,-0.25993 h -0.11731 l -0.0956,-0.2589 h -0.11679 l -0.0961,-0.25993 h -0.11783 l -0.0961,-0.25942 h -0.11679 l -0.0961,-0.25993 h -0.11731 l -0.0956,-0.2589 h -0.11782 l -0.0961,-0.25993 h -0.1173 l -0.0961,-0.25994 h -0.11731 l -0.0956,-0.25889 h -0.11679 l -0.0961,-0.25994 h -0.11782 l -0.0961,-0.25941 h -0.11679 l -0.0961,-0.25994 h -0.11731 l -0.0956,-0.25889 h -0.11731 l -0.0961,-0.25994 h -0.11834 l -0.0956,-0.2589 h -0.11679 l -0.0961,-0.25993 h -0.11679 l -0.0961,-0.25941 h -0.11679 l -0.0961,-0.25994 h -0.11834 l -0.0956,-0.2589 h -0.1173 l -0.0961,-0.25993 h -0.1173 l -0.0956,-0.2589 h -0.11782 l -0.0961,-0.25993 h -0.11679 l -0.0961,-0.25941 h -0.11679 l -0.0961,-0.25994 h -0.11731 l -0.0956,-0.2589 h -0.11834 l -0.0961,-0.25993 h -0.11731 l -0.0956,-0.2589 h -0.11679 l -0.0961,-0.25993 h -0.11679 l -0.0961,-0.259416 h -0.11783 l -0.0961,-0.259416 h -0.11678 l -0.0961,-0.259415 h -0.11731 l -0.0961,-0.259416 H 171.866 l -0.0961,-0.259932 h -0.11783 l -0.0961,-0.259416 h -0.11679 l -0.0961,-0.259416 h -0.11679 l -0.0961,-0.259415 h -0.11679 l -0.0961,-0.259416 h -0.11834 l -0.0961,-0.259933 h -0.11679 l -0.0961,-0.259415 h -0.11679 l -0.0961,-0.259416 h -0.11782 l -0.0961,-0.259416 h -0.11678 l -0.0961,-0.259415 h -0.11679 l -0.0961,-0.259416 h -0.1173 l -0.0961,-0.259932 h -0.11783 l -0.0961,-0.259416 h -0.11679 l -0.0961,-0.259416 h -0.11679 l -0.0961,-0.259416 h -0.11679 l -0.0961,-0.259415 h -0.11783 l -0.0961,-0.259933 h -0.11731 l -0.0961,-0.259415 h -0.11679 l -0.0961,-0.259416 h -0.11678 l -0.0961,-0.259416 h -0.11782 l -0.0961,-0.259415 h -0.11679 l -0.0961,-0.259933 h -0.11679 l -0.0961,-0.259416 h -0.11782 l -0.0961,-0.259415 h -0.1173 l -0.0961,-0.259416 h -0.11679 l -0.0961,-0.259416 h -0.11679 L 166.225,92.14373 h -0.11783 l -0.0961,-0.259933 h -0.11679 l -0.0961,-0.259415 h -0.11679 l -0.0961,-0.259416 h -0.1173 l -0.0961,-0.259416 H 165.254 l -0.0961,-0.259416 h -0.11679 l -0.0961,-0.259932 h -0.11679 l -0.0961,-0.259416 h -0.11678 l -0.0961,-0.259415 h -0.11783 l -0.0961,-0.259416 H 164.188 l -0.0961,-0.259416 h -0.1169 l -0.0961,-0.259415 h -0.11679 l -0.0961,-0.259933 h -0.11782 l -0.0961,-0.259416 h -0.11679 l -0.0961,-0.259415 h -0.11679 l -0.0961,-0.259416 h -0.11833 l -0.0961,-0.259416 h -0.11679 l -0.0961,-0.259932 h -0.11679 l -0.0961,-0.259416 h -0.11678 l -0.0961,-0.259416 h -0.11783 l -0.0961,-0.259415 h -0.11679 l -0.0961,-0.259416 h -0.11731 l -0.0961,-0.259416 h -0.11679 l -0.0961,-0.259932 h -0.11782 l -0.0961,-0.259416 h -0.11679 l -0.0961,-0.259415 h -0.11679 l -0.0961,-0.259416 h -0.11678 l -0.0961,-0.259416 h -0.11834 l -0.0961,-0.259932 h -0.11679 l -0.0961,-0.259416 h -0.11678 l -0.0961,-0.259416 h -0.11783 l -0.0961,-0.259415 h -0.11679 l -0.0961,-0.259416 h -0.11679 l -0.0961,-0.259416 h -0.1173 l -0.0961,-0.259932 h -0.11782 l -0.0961,-0.259416 h -0.11679 l -0.0961,-0.259416 h -0.11679 l -0.0961,-0.259415 h -0.11678 l -0.0961,-0.259416 h -0.11782 l -0.0961,-0.259932 h -0.11679 l -0.0961,-0.259416 h -0.11731 l -0.0961,-0.259416 h -0.11679 l -0.0961,-0.259415 h -0.11782 l -0.0961,-0.259416 h -0.11679 l -0.0961,-0.259416 h -0.11679 l -0.0961,-0.259932 h -0.11783 l -0.0961,-0.259416 h -0.11731 l -0.0961,-0.259416 h -0.11679 l -0.0961,-0.259415 h -0.11678 l -0.0961,-0.259416 h -0.11782 l -0.0961,-0.259932 h -0.11679 l -0.0961,-0.259416 h -0.11679 l -0.0961,-0.259416 h -0.1173 l -0.0961,-0.259416 h -0.11782 l -0.0961,-0.259415 h -0.11679 l -0.0961,-0.259416 H 154.379 l -0.0961,-0.259932 h -0.11679 l -0.0961,-0.259416 h -0.11782 l -0.0961,-0.259416 h -0.11731 l -0.0961,-0.259415 H 153.525 l -0.0961,-0.259416 h -0.11679 l -0.0961,-0.259933 h -0.11782 l -0.0961,-0.259415 h -0.11679 l -0.0961,-0.259416 h -0.11679 l -0.0961,-0.259416 h -0.11834 l -0.0961,-0.259415 h -0.11679 l -0.0961,-0.259416 h -0.11679 l -0.0961,-0.259933 h -0.11679 l -0.0961,-0.259415 h -0.11782 l -0.0961,-0.259416 h -0.11679 l -0.0961,-0.259416 h -0.1173 l -0.0961,-0.259415 h -0.11679 l -0.0961,-0.259933 h -0.11782 l -0.0961,-0.259415 h -0.11679 l -0.0961,-0.259416 h -0.11679 l -0.0961,-0.259416 h -0.11679 l -0.0961,-0.259415 h -0.11834 l -0.0961,-0.259933 h -0.11679 l -0.0961,-0.259416 h -0.11679 l -0.0961,-0.259415 h -0.11782 l -0.0961,-0.259416 h -0.11679 l -0.0961,-0.259416 h -0.11679 l -0.0961,-0.259415 h -0.1173 l -0.0961,-0.259933 h -0.11782 l -0.0961,-0.259416 h -0.11679 l -0.0961,-0.259415 h -0.11679 l -0.0961,-0.259416 h -0.11679 l -0.0961,-0.259416 h -0.11782 l -0.0961,-0.259932 h -0.11679 l -0.0961,-0.259416 h -0.1173 l -0.0961,-0.259415 h -0.11679 l -0.0961,-0.259416 h -0.11782 l -0.0961,-0.259416 h -0.11679 l -0.0961,-0.259416 h -0.11678 l -0.0961,-0.259932 h -0.11679 l -0.0961,-0.259416 h -0.11834 l -0.0961,-0.259415 H 145.634 l -0.0961,-0.259416 h -0.11679 l -0.0961,-0.259416 h -0.11782 l -0.0961,-0.259932 h -0.11679 l -0.0961,-0.259416 h -0.11679 l -0.0961,-0.259416 H 144.568 l -0.0961,-0.259415 h -0.11782 l -0.0961,-0.259416 h -0.11679 l -0.0961,-0.259416 h -0.11678 l -0.0961,-0.259932 h -0.11679 l -0.0961,-0.259416 h -0.11782 l -0.0961,-0.259415 h -0.11731 l -0.0961,-0.259416 h -0.11679 l -0.0961,-0.259416 h -0.11679 l -0.0961,-0.259932 h -0.11782 l -0.0961,-0.259416 h -0.11679 l -0.0961,-0.259416 h -0.11679 l -0.0961,-0.259415 h -0.11834 l -0.0961,-0.259416 h -0.11679 l -0.0961,-0.259416 h -0.11678 l -0.0961,-0.259415 h -0.11679 l -0.0961,-0.259933 h -0.11782 l -0.0961,-0.259416 h -0.11679 l -0.0961,-0.259415 h -0.1173 l -0.0961,-0.259416 h -0.11679 l -0.0961,-0.259932 h -0.11782 l -0.0961,-0.259416 h -0.11679 l -0.0961,-0.259416 h -0.11679 l -0.0961,-0.259415 h -0.11679 l -0.0961,-0.259416 h -0.11782 l -0.0961,-0.259416 h -0.1173 l -0.0961,-0.259416 h -0.11679 l -0.0961,-0.259932 h -0.11782 l -0.0961,-0.259416 h -0.11679 l -0.0961,-0.259415 h -0.11679 l -0.0961,-0.259416 h -0.11731 l -0.0961,-0.259416 h -0.11782 l -0.0961,-0.259932 h -0.11679 l -0.0961,-0.259416 h -0.11679 l -0.0961,-0.259416 h -0.11679 l -0.0961,-0.259415 h -0.11782 l -0.0961,-0.259416 h -0.11679 l -0.0961,-0.259416 h -0.1173 l -0.0961,-0.259932 h -0.11679 l -0.0961,-0.259416 h -0.11782 l -0.0961,-0.259416 H 136.038 l -0.0961,-0.259415 h -0.11679 l -0.0961,-0.259416 h -0.11679 l -0.0961,-0.259932 h -0.11834 l -0.0961,-0.259416 H 135.184 l -0.0961,-0.259416 h -0.11679 l -0.0961,-0.259415 h -0.11782 l -0.0961,-0.259416 h -0.11679 l -0.0961,-0.259416 h -0.11678 l -0.0961,-0.259932 h -0.11731 l -0.0961,-0.259416 h -0.11782 l -0.0961,-0.259416 h -0.11679 l -0.0961,-0.259415 h -0.11679 l -0.0961,-0.259416 h -0.11679 l -0.0961,-0.259932 h -0.11782 l -0.0961,-0.259416 h -0.1173 L 132.742,51.40048 h -0.11679 l -0.0961,-0.259416 h -0.11679 l -0.0961,-0.259415 h -0.11782 l -0.0961,-0.259933 h -0.11678 l -0.0961,-0.259415 h -0.11679 l -0.0961,-0.259416 h -0.11834 l -0.0961,-0.259416 h -0.11679 l -0.0961,-0.259415 h -0.11679 l -0.0961,-0.259416 h -0.11679 l -0.0961,-0.259933 h -0.11782 l -0.0961,-0.259415 h -0.11679 l -0.0961,-0.259416 h -0.11731 l -0.0961,-0.259416 h -0.11679 l -0.0961,-0.259415 h -0.11782 l -0.0961,-0.259933 h -0.11678 l -0.0961,-0.259416 h -0.11679 l -0.0961,-0.259415 h -0.11679 l -0.0961,-0.259416 h -0.11782 l -0.0961,-0.259416 h -0.1173 l -0.0961,-0.259415 h -0.11679 l -0.0961,-0.259933 h -0.11679 l -0.0961,-0.259415 h -0.11783 l -0.0961,-0.259416 h -0.11679 l -0.0961,-0.259416 h -0.11679 l -0.0961,-0.259415 h -0.11834 l -0.0961,-0.259933 h -0.11678 l -0.0961,-0.259416 h -0.11679 l -0.0961,-0.259415 h -0.11679 l -0.0961,-0.259416 H 126.654 l -0.0961,-0.259416 h -0.11679 l -0.0961,-0.259415 h -0.11731 l -0.0961,-0.259933 h -0.11679 l -0.0961,-0.259416 h -0.11783 l -0.0961,-0.259415 h -0.11679 l -0.0961,-0.259416 H 125.3751 L 125.279,42.31783 h -0.11679 l -0.0961,-0.259932 h -0.11833 l -0.0961,-0.259416 h -0.11679 l -0.0961,-0.259415 H 124.522 l -0.0961,-0.259416 h -0.11782 l -0.0961,-0.259416 h -0.11679 l -0.0961,-0.259416 h -0.11679 l -0.0961,-0.259932 h -0.11731 l -0.0961,-0.259416 h -0.11783 l -0.0961,-0.259415 h -0.11679 l -0.0961,-0.259416 h -0.11679 l -0.0961,-0.259416 h -0.11679 l -0.0961,-0.259932 h -0.11782 l -0.0961,-0.259416 h -0.1173 l -0.0961,-0.259416 h -0.11679 l -0.0961,-0.259415 h -0.11679 l -0.0961,-0.259416 h -0.11783 l -0.0961,-0.259416 h -0.11679 l -0.0961,-0.259932 h -0.11679 l -0.0961,-0.259416 h -0.11782 l -0.0961,-0.259415 h -0.1173 l -0.0961,-0.259416 h -0.11679 l -0.0961,-0.259416 h -0.11679 l -0.0961,-0.259932 h -0.11782 l -0.0961,-0.259416 h -0.11678 l -0.0961,-0.259416 h -0.11731 l -0.0961,-0.259415 h -0.11679 l -0.0961,-0.259416 h -0.11783 l -0.0961,-0.259416 h -0.11679 l -0.0961,-0.259932 h -0.11679 l -0.0961,-0.259416 h -0.11679 l -0.0961,-0.259416 h -0.11783 l -0.0961,-0.259415 h -0.1173 l -0.0961,-0.259416 h -0.11679 l -0.0961,-0.259932 h -0.11678 l -0.0961,-0.259416 h -0.11782 l -0.0961,-0.259416 h -0.11679 l -0.0961,-0.259415 h -0.11679 l -0.0961,-0.259416 h -0.11834 l -0.0961,-0.259416 H 116.843 l -0.0961,-0.259932 h -0.11679 l -0.0961,-0.259416 h -0.11679 l -0.0961,-0.259416 h -0.11783 l -0.0961,-0.259415 h -0.11678 l -0.0961,-0.259416 H 115.777 l -0.0961,-0.259933 h -0.11678 l -0.0961,-0.259415 h -0.11782 l -0.0961,-0.259416 h -0.11679 l -0.0961,-0.259416 h -0.11679 l -0.0961,-0.259415 h -0.11679 l -0.0961,-0.259933 h -0.11834 l -0.0961,-0.259415 h -0.11679 l -0.0961,-0.259416 h -0.11679 l -0.0961,-0.259416 h -0.11783 l -0.0961,-0.259416 H 113.6445 L 113.5484,28.0448 h -0.11679 l -0.0961,-0.259933 h -0.1173 l -0.0961,-0.259415 h -0.11782 l -0.0961,-0.259416 h -0.11679 l -0.0961,-0.259416 h -0.11679 l -0.0961,-0.259415 h -0.11679 l -0.0961,-0.259933 h -0.11783 l -0.0961,-0.259416 h -0.11731 l -0.0961,-0.259415 h -0.11679 l -0.0961,-0.259416 h -0.11679 l -0.0961,-0.259416 h -0.11782 l -0.0961,-0.259415 h -0.11679 l -0.0961,-0.259933 h -0.11679 l -0.0961,-0.259415 h -0.1173 l -0.0961,-0.259416 h -0.11782 l -0.0961,-0.259416 h -0.11679 l -0.0961,-0.259416 h -0.11679 l -0.0961,-0.259932 h -0.11783 l -0.0961,-0.259416 h -0.11679 l -0.0961,-0.259415 h -0.11679 l -0.0961,-0.259416 h -0.1173 l -0.0961,-0.259416 h -0.11782 l -0.0961,-0.259415 h -0.10697 -0.01 l -0.0961,-0.259933 h -0.0951 -0.0217 l -0.0961,-0.259416 h -0.0842 -0.0326 l -0.0961,-0.259415 h -0.0724 -0.0455 l -0.0961,-0.259416 h -0.0605 -0.0568 l -0.0961,-0.259416 h -0.0481 -0.0687 l -0.0961,-0.259932 h -0.0367 -0.0801 l -0.0961,-0.259416 h -0.0248 -0.093 l -0.0961,-0.259415 h -0.0129 -0.10387 l -0.0961,-0.259416 h -0.001 -5.89525 v 0.001 l -6.546369,17.702279 -0.02119,-0.05684 h -0.117305 l -0.09612,-0.259416 h -0.116789 l -0.09612,-0.259415 h -0.117306 l -0.09612,-0.259416 h -0.117306 l -0.09612,-0.259416 h -0.116788 l -0.09612,-0.259932 h -0.117305 l -0.09612,-0.259416 h -0.117306 l -0.09612,-0.259416 h -0.116789 l -0.09612,-0.259415 h -0.117305 l -0.09612,-0.259416 h -0.117306 l -0.09612,-0.259416 h -0.116789 l -0.09612,-0.259932 h -0.117306 l -0.09612,-0.259416 h -0.117305 l -0.09612,-0.259416 h -0.116789 l -0.09612,-0.259415 H 91.37065 l -0.09612,-0.259416 h -0.117305 l -0.09612,-0.259932 H 90.9438 l -0.09612,-0.259416 h -0.116789 l -0.09612,-0.259416 h -0.117306 l -0.09612,-0.259415 H 90.30404 l -0.09612,-0.259416 h -0.116789 l -0.09612,-0.259416 H 89.877718 L 89.7816,31.937069 h -0.117306 l -0.09612,-0.259416 h -0.117305 l -0.09612,-0.259416 H 89.23796 l -0.09612,-0.259415 h -0.1173 l -0.09612,-0.259416 h -0.117305 l -0.09612,-0.259933 H 88.59821 l -0.09612,-0.259415 h -0.117305 l -0.09612,-0.259416 h -0.117306 l -0.09612,-0.259416 H 87.95845 l -0.09612,-0.259415 h -0.117305 l -0.09612,-0.259933 h -0.117306 l -0.09612,-0.259415 h -0.117306 l -0.09612,-0.259416 h -0.116788 l -0.09612,-0.259416 H 86.89184 L 86.79572,28.304215 H 86.67843 L 86.582312,28.0448 h -0.116789 l -0.09612,-0.259933 H 86.2521 l -0.09612,-0.259415 h -0.117305 l -0.09612,-0.259416 H 85.825766 L 85.729646,27.00662 H 85.61234 l -0.09612,-0.259415 h -0.117305 l -0.09612,-0.259933 h -0.116789 l -0.09612,-0.259416 H 84.97258 l -0.09612,-0.259415 h -0.117306 l -0.09612,-0.259416 h -0.116788 l -0.09612,-0.259416 h -0.117305 l -0.09612,-0.259415 h -0.117306 l -0.09612,-0.259933 H 83.90599 l -0.09612,-0.259415 h -0.116788 l -0.09612,-0.259416 h -0.117306 l -0.09612,-0.259416 H 83.26623 l -0.09612,-0.259416 h -0.116789 l -0.09612,-0.259932 H 82.839896 L 82.743776,23.37325 H 82.62647 l -0.09612,-0.259415 h -0.116789 l -0.09612,-0.259416 h -0.117305 l -0.09612,-0.259416 h -0.117305 l -0.09612,-0.259415 h -0.10697 -0.01034 l -0.09612,-0.259933 h -0.09508 -0.0217 l -0.09612,-0.259416 h -0.08372 -0.03359 l -0.09612,-0.259415 h -0.07183 -0.04547 l -0.09612,-0.259416 h -0.05994 -0.05684 l -0.09612,-0.259416 h -0.04858 -0.06873 L 80.6111,20.77806 H 80.57493 80.4938 l -0.09612,-0.259416 h -0.02429 -0.0925 l -0.09612,-0.259415 h -0.01292 -0.104387 l -0.09612,-0.259416 h -0.001 -5.89473 v 5.17e-4 l -6.546371,17.703312 -0.02119,-0.05736 h -0.001 -0.115756 c -0.002,-0.0053 -0.09612,-0.259416 -0.09612,-0.259416 h -0.001 -0.116272 c -0.002,-0.0053 -0.09612,-0.259415 -0.09612,-0.259415 h -0.001 -0.116272 c -0.002,-0.0053 -0.09612,-0.259416 -0.09612,-0.259416 h -0.001 -0.116272 c -0.002,-0.0053 -0.09612,-0.259416 -0.09612,-0.259416 h -5.17e-4 -0.116272 l -0.09612,-0.259932 h -0.001 -0.116272 c -0.002,-0.0053 -0.09612,-0.259416 -0.09612,-0.259416 h -0.001 -0.116272 c -0.002,-0.0053 -0.09612,-0.259416 -0.09612,-0.259416 h -5.17e-4 -0.116272 c -0.002,-0.0053 -0.09612,-0.259415 -0.09612,-0.259415 h -10e-4 -0.116272 c -0.002,-0.0053 -0.09612,-0.259416 -0.09612,-0.259416 h -0.001 -0.116272 c -0.002,-0.0053 -0.09612,-0.259416 -0.09612,-0.259416 h -5.17e-4 -0.116272 l -0.09612,-0.259932 h -0.001 -0.116272 c -0.002,-0.0053 -0.09612,-0.259416 -0.09612,-0.259416 h -0.001 -0.116272 c -0.002,-0.0053 -0.09612,-0.259416 -0.09612,-0.259416 h -0.001 -0.115755 c -0.002,-0.0053 -0.09612,-0.259415 -0.09612,-0.259415 h -10e-4 -0.116272 c -0.002,-0.0053 -0.09612,-0.259416 -0.09612,-0.259416 h -10e-4 -0.116272 l -0.09612,-0.259932 h -10e-4 -0.115755 c -0.002,-0.0053 -0.09612,-0.259416 -0.09612,-0.259416 h -10e-4 -0.116272 c -0.002,-0.0053 -0.09612,-0.259416 -0.09612,-0.259416 h -10e-4 -0.116272 c -0.002,-0.0053 -0.09612,-0.259415 -0.09612,-0.259415 h -10e-4 -0.116272 c -0.002,-0.0053 -0.09612,-0.259416 -0.09612,-0.259416 h -5.16e-4 -0.116272 c -0.002,-0.0053 -0.09612,-0.259416 -0.09612,-0.259416 h -0.001 -0.116272 l -0.09612,-0.259932 h -10e-4 -0.116272 c -0.002,-0.0053 -0.09612,-0.259416 -0.09612,-0.259416 h -10e-4 -0.115756 c -0.002,-0.0053 -0.09612,-0.259416 -0.09612,-0.259416 h -10e-4 -0.116272 c -0.002,-0.0053 -0.09612,-0.259415 -0.09612,-0.259415 h -10e-4 -0.116272 c -0.002,-0.0053 -0.09612,-0.259416 -0.09612,-0.259416 h -10e-4 -0.115755 l -0.09612,-0.259933 h -0.001 -0.116271 c -0.002,-0.0053 -0.09612,-0.259415 -0.09612,-0.259415 h -10e-4 -0.116272 c -0.002,-0.0053 -0.09612,-0.259416 -0.09612,-0.259416 h -0.001 -0.116272 c -0.002,-0.0053 -0.09612,-0.259416 -0.09612,-0.259416 h -5.17e-4 -0.116272 c -0.002,-0.0053 -0.09612,-0.259415 -0.09612,-0.259415 h -10e-4 -0.116272 l -0.09612,-0.259933 h -10e-4 -0.116272 c -0.002,-0.0053 -0.09612,-0.259415 -0.09612,-0.259415 h -0.001 -0.115755 c -0.002,-0.0053 -0.09612,-0.259416 -0.09612,-0.259416 h -10e-4 -0.116272 c -0.002,-0.0053 -0.09612,-0.259416 -0.09612,-0.259416 h -10e-4 -0.116272 c -0.002,-0.0053 -0.09612,-0.259416 -0.09612,-0.259416 h -10e-4 -0.115755 c -0.002,-0.0053 -0.09612,-0.259415 -0.09612,-0.259415 h -0.001 -0.116272 l -0.09612,-0.259933 h -10e-4 -0.116272 c -0.002,-0.0053 -0.09612,-0.259415 -0.09612,-0.259415 h -10e-4 -0.116272 c -0.002,-0.0053 -0.09612,-0.259416 -0.09612,-0.259416 h -10e-4 -0.115755 c -0.002,-0.0053 -0.09612,-0.259416 -0.09612,-0.259416 h -0.001 -0.116272 c -0.002,-0.0053 -0.09612,-0.259415 -0.09612,-0.259415 h -10e-4 -0.116272 l -0.09612,-0.259933 h -10e-4 -0.115755 c -0.002,-0.0053 -0.09612,-0.259416 -0.09612,-0.259416 h -10e-4 -0.116272 c -0.002,-0.0053 -0.09612,-0.259415 -0.09612,-0.259415 h -0.001 -0.116272 c -0.002,-0.0053 -0.09612,-0.259416 -0.09612,-0.259416 h -0.001 -0.115756 c -0.002,-0.0053 -0.09612,-0.259416 -0.09612,-0.259416 h -0.001 -0.116272 c -0.002,-0.0053 -0.09612,-0.259415 -0.09612,-0.259415 h -0.001 -0.116272 l -0.09612,-0.259933 h -10e-4 -0.115755 c -0.002,-0.0053 -0.09612,-0.259415 -0.09612,-0.259415 h -0.0016 -0.115755 c -0.002,-0.0053 -0.09612,-0.259416 -0.09612,-0.259416 h -10e-4 -0.116272 c -0.002,-0.0053 -0.09612,-0.259416 -0.09612,-0.259416 h -10e-4 -0.115755 c -0.002,-0.0053 -0.09612,-0.259416 -0.09612,-0.259416 h -0.0015 -0.115756 l -0.09612,-0.259932 h -10e-4 -0.116272 c -0.002,-0.0053 -0.09612,-0.259416 -0.09612,-0.259416 h -10e-4 -0.116272 c -0.002,-0.0053 -0.09612,-0.259415 -0.09612,-0.259415 h -10e-4 -0.115755 c -0.002,-0.0053 -0.09612,-0.259416 -0.09612,-0.259416 h -0.001 -0.116272 c -0.002,-0.0053 -0.09612,-0.259416 -0.09612,-0.259416 h -10e-4 -0.116272 c -0.002,-0.0053 -0.09612,-0.259415 -0.09612,-0.259415 h -10e-4 -0.115755 l -0.09612,-0.259933 h -0.001 -0.116272 c -0.002,-0.0053 -0.09612,-0.259416 -0.09612,-0.259416 h -0.001 -0.116271 c -0.002,-0.0053 -0.09612,-0.259415 -0.09612,-0.259415 h -0.001 -0.116272 c -0.002,-0.0053 -0.09612,-0.259416 -0.09612,-0.259416 h -5.17e-4 -0.116272 c -0.002,-0.0053 -0.09612,-0.259416 -0.09612,-0.259416 h -10e-4 -0.116272 l -0.09612,-0.259932 h -10e-4 -0.116272 c -0.002,-0.0053 -0.09612,-0.259416 -0.09612,-0.259416 h -10e-4 -0.115755 l -0.09612,-0.259415 h -10e-4 -0.116272 l -0.09612,-0.259416 h -10e-4 z M 166.79499,168.78608 h 0.0718 l -0.0357,0.0977 z m 26.96476,0 h 0.0718 l -0.0357,0.0971 z m -26.86916,0.2589 h 0.18965 l -0.0946,0.25631 z m 26.96476,0 h 0.18965 l -0.0946,0.25631 z" /><g
     id="g2"
     transform="translate(0,0.122929)"><path
       style="fill:#f9f9f9;stroke-width:0.160865"
       d="m 44.767293,59.469755 c -0.03217,0.248113 -0.05478,0.499286 -0.05478,0.756026 v 29.302084 c 0,3.23161 2.629198,5.86063 5.860624,5.86063 h 48.607369 c 3.231464,0 5.860634,-2.62902 5.860634,-5.86063 V 60.225781 c 0,-0.25674 -0.0226,-0.507913 -0.0548,-0.756026 z"
       id="path16" /><path
       id="path5"
       style="fill:#f44336;fill-opacity:1;stroke-width:0.160865"
       d="m 50.573142,54.365671 c -2.974716,0 -5.433052,2.229204 -5.805847,5.104081 h 60.219065 c -0.37279,-2.874877 -2.83112,-5.104081 -5.805854,-5.104081 z" /><g
       id="g1"><path
         style="fill:#798388;fill-opacity:1;stroke-width:0.160865"
         d="m 49.787227,83.040591 h 14.612028 c 0.816296,0 1.477946,0.661665 1.477946,1.477946 0,0.816083 -0.661866,1.477429 -1.477946,1.477429 H 49.787227 c -0.815895,0 -1.477429,-0.661148 -1.477429,-1.477429 0,-0.816281 0.661534,-1.477946 1.477429,-1.477946 z"
         id="path29" /><path
         style="fill:#798388;fill-opacity:1;stroke-width:0.160865"
         d="m 49.787227,77.783547 h 25.239286 c 0.816084,0 1.47743,0.661146 1.47743,1.47743 0,0.81628 -0.661138,1.477946 -1.47743,1.477946 H 49.787227 c -0.815893,0 -1.477429,-0.661666 -1.477429,-1.477946 0,-0.816284 0.661536,-1.47743 1.477429,-1.47743 z"
         id="path28" /><path
         style="fill:#798388;fill-opacity:1;stroke-width:0.160865"
         d="m 63.674235,67.326821 h 1.459859 v 4.985226 h -1.459859 z"
         id="path24" /><path
         style="fill:#798388;fill-opacity:1;stroke-width:0.160865"
         d="m 59.051778,67.326821 h 1.399914 v 3.721737 h 2.586923 v 1.263489 h -3.986837 z"
         id="path23" /><path
         id="path22"
         style="fill:#798388;fill-opacity:1;stroke-width:0.160865"
         d="m 73.856559,67.183161 c -0.36312,10e-7 -0.706103,0.07015 -1.028878,0.211356 -0.322776,0.13617 -0.604899,0.325326 -0.846977,0.567408 -0.237034,0.237032 -0.426188,0.516967 -0.567407,0.839742 -0.136162,0.317726 -0.204122,0.658521 -0.204122,1.021643 0,0.363116 0.06796,0.706102 0.204122,1.028878 0.141219,0.322769 0.330373,0.602704 0.567407,0.839742 0.242078,0.237032 0.524201,0.425676 0.846977,0.56689 0.322775,0.136169 0.665758,0.204639 1.028878,0.204639 0.36312,0 0.706103,-0.06847 1.028878,-0.204639 0.32277,-0.141214 0.602702,-0.329858 0.839742,-0.56689 0.242072,-0.237038 0.431234,-0.516973 0.567407,-0.839742 0.141213,-0.322776 0.211873,-0.665762 0.211873,-1.028878 0,-0.363122 -0.07066,-0.706104 -0.211873,-1.028878 -0.136173,-0.322776 -0.325335,-0.602704 -0.567407,-0.839742 -0.23704,-0.237038 -0.516972,-0.424003 -0.839742,-0.560173 -0.322775,-0.141215 -0.665758,-0.211356 -1.028878,-0.211356 z m 0,1.368909 c 0.171472,0 0.330721,0.03534 0.476973,0.105936 0.151304,0.06556 0.279594,0.156339 0.385507,0.272335 0.11096,0.115997 0.196838,0.252417 0.257348,0.408761 0.06051,0.151296 0.09095,0.312733 0.09095,0.484208 0,0.171473 -0.03044,0.335098 -0.09095,0.491443 -0.06052,0.151295 -0.146403,0.287721 -0.257348,0.40876 -0.105913,0.115999 -0.234203,0.20896 -0.385507,0.27957 -0.146252,0.06556 -0.305501,0.0987 -0.476973,0.0987 -0.171472,0 -0.332905,-0.03313 -0.484208,-0.0987 -0.146258,-0.07061 -0.274562,-0.163572 -0.385506,-0.27957 -0.105914,-0.12104 -0.191779,-0.257465 -0.257349,-0.40876 -0.06051,-0.156345 -0.09095,-0.31997 -0.09095,-0.491443 0,-0.171475 0.03044,-0.332912 0.09095,-0.484208 0.06557,-0.156344 0.151436,-0.292764 0.257349,-0.408761 0.110944,-0.115995 0.239248,-0.206765 0.385506,-0.272335 0.151303,-0.07061 0.312736,-0.105936 0.484208,-0.105936 z" /><path
         id="path21"
         style="fill:#798388;fill-opacity:1;stroke-width:0.160865"
         d="m 55.942924,67.183161 c -0.363121,10e-7 -0.706103,0.07015 -1.028878,0.211356 -0.322774,0.13617 -0.605413,0.325326 -0.847494,0.567408 -0.237032,0.237032 -0.426192,0.516967 -0.567407,0.839742 -0.136172,0.317726 -0.204122,0.658521 -0.204122,1.021643 0,0.363116 0.06795,0.706102 0.204122,1.028878 0.141215,0.322769 0.330375,0.602704 0.567407,0.839742 0.242081,0.237032 0.52472,0.425676 0.847494,0.56689 0.322775,0.136169 0.665757,0.204639 1.028878,0.204639 0.363117,0 0.706107,-0.06847 1.028877,-0.204639 0.322775,-0.141214 0.602188,-0.329858 0.839226,-0.56689 0.242075,-0.237038 0.431236,-0.516973 0.567407,-0.839742 0.141213,-0.322776 0.211873,-0.665762 0.211873,-1.028878 0,-0.363122 -0.07066,-0.706104 -0.211873,-1.028878 -0.136171,-0.322776 -0.325332,-0.602704 -0.567407,-0.839742 -0.237038,-0.237038 -0.516451,-0.424003 -0.839226,-0.560173 -0.32277,-0.141215 -0.66576,-0.211356 -1.028877,-0.211356 z m 0,1.368909 c 0.171469,0 0.330199,0.03534 0.476456,0.105936 0.151302,0.06556 0.279597,0.156339 0.385507,0.272335 0.110949,0.115997 0.196828,0.252417 0.257348,0.408761 0.06052,0.151296 0.09095,0.312733 0.09095,0.484208 0,0.171473 -0.03043,0.335098 -0.09095,0.491443 -0.06052,0.151295 -0.146399,0.287721 -0.257348,0.40876 -0.10591,0.115999 -0.234205,0.20896 -0.385507,0.27957 -0.146257,0.06556 -0.304987,0.0987 -0.476456,0.0987 -0.171474,0 -0.332907,-0.03313 -0.484209,-0.0987 -0.146252,-0.07061 -0.275074,-0.163572 -0.386022,-0.27957 -0.105914,-0.12104 -0.191789,-0.257465 -0.257349,-0.40876 -0.06052,-0.156345 -0.09043,-0.31997 -0.09043,-0.491443 0,-0.171475 0.02991,-0.332912 0.09043,-0.484208 0.06556,-0.156344 0.151438,-0.292764 0.257349,-0.408761 0.110948,-0.115995 0.23977,-0.206765 0.386022,-0.272335 0.151302,-0.07061 0.312735,-0.105936 0.484209,-0.105936 z" /><path
         style="fill:#798388;fill-opacity:1;stroke-width:0.160865"
         d="m 65.822424,66.441604 h 5.031217 v 1.346688 l -0.105936,0.105937 h -1.611788 v 4.417818 h -1.595768 v -4.417818 h -1.611788 l -0.105937,-0.105937 z"
         id="path20" /><path
         id="path19"
         style="fill:#798388;fill-opacity:1;stroke-width:0.160865"
         d="m 48.309798,66.441604 v 5.870443 h 1.573547 v -1.823145 h 1.066602 c 0.282423,0 0.552042,-0.05325 0.809253,-0.159163 0.262249,-0.110954 0.491639,-0.259363 0.68833,-0.445968 0.201734,-0.191648 0.360975,-0.413942 0.476973,-0.666109 0.121045,-0.252168 0.181385,-0.524494 0.181385,-0.817004 0,-0.287472 -0.06034,-0.552187 -0.181385,-0.794267 -0.115998,-0.242081 -0.275239,-0.448649 -0.476973,-0.620117 -0.196691,-0.171474 -0.426081,-0.30519 -0.68833,-0.40101 -0.257211,-0.09582 -0.52683,-0.14366 -0.809253,-0.14366 z m 1.611271,1.301213 h 0.91519 c 0.09078,0 0.176648,0.0174 0.257348,0.05271 0.08069,0.03026 0.151354,0.07591 0.211874,0.136425 0.06052,0.05548 0.10836,0.120721 0.14366,0.196371 0.03531,0.07565 0.05271,0.159334 0.05271,0.250114 0,0.09078 -0.0174,0.173947 -0.05271,0.249597 -0.0353,0.07565 -0.08314,0.143602 -0.14366,0.204122 -0.06052,0.05547 -0.131184,0.100599 -0.211874,0.135909 -0.08069,0.03026 -0.166568,0.04547 -0.257348,0.04547 h -0.91519 z" /></g></g><path
     id="path1"
     style="fill:#5c6bc0;stroke-width:1.09875"
     d="m 90.467346,66.441423 c -3.640942,0 -6.592362,2.951936 -6.592362,6.592879 0,3.640931 2.95142,6.592362 6.592362,6.592362 3.64094,0 6.59236,-2.951431 6.59236,-6.592362 0,-3.640943 -2.95142,-6.592879 -6.59236,-6.592879 z m 0,15.382523 c -3.050901,0 -5.432253,0.243202 -7.217647,0.991671 -1.911551,0.80132 -3.08266,2.159845 -3.707268,4.134631 -0.230858,0.7299 0.31595,1.466577 1.073837,1.466577 h 19.694922 c 0.76099,0 1.31172,-0.739846 1.07901,-1.473811 -0.62651,-1.974897 -1.801884,-3.332816 -3.716574,-4.132048 -1.78382,-0.744623 -4.16163,-0.98702 -7.20628,-0.98702 z" /><text
     xml:space="preserve"
     transform="matrix(0.80541237,0,0,0.80541237,-63.754909,-41.880713)"
     id="text1039"
     style="font-style:normal;font-variant:normal;font-weight:normal;font-stretch:normal;font-size:40px;line-height:1.25;font-family:PRIMETIME;-inkscape-font-specification:'PRIMETIME, Normal';font-variant-ligatures:normal;font-variant-caps:normal;font-variant-numeric:normal;font-variant-east-asian:normal;letter-spacing:0px;word-spacing:0px;white-space:pre;shape-inside:url(#rect1039);fill:#ffd500;fill-opacity:1;stroke:none"><tspan
       x="124.65039"
       y="107.87109"
       id="tspan1">AAA</tspan></text><text
     xml:space="preserve"
     transform="matrix(0.78125,0,0,0.78125,-56.266772,-228.6632)"
     id="text1040"
     style="font-style:normal;font-variant:normal;font-weight:normal;font-stretch:normal;font-size:40px;line-height:1.25;font-family:PRIMETIME;-inkscape-font-specification:'PRIMETIME, Normal';font-variant-ligatures:normal;font-variant-caps:normal;font-variant-numeric:normal;font-variant-east-asian:normal;letter-spacing:0px;word-spacing:0px;white-space:pre;shape-inside:url(#rect1040);fill:#ffd500;fill-opacity:1;stroke:none"><tspan
       x="128.77148"
       y="458.12891"
       id="tspan2">FAU</tspan></text><text
     xml:space="preserve"
     transform="matrix(0.80541237,0,0,0.80541237,-63.754909,-41.880713)"
     id="text3057"
     style="font-style:normal;font-variant:normal;font-weight:normal;font-stretch:normal;font-size:40px;line-height:1.25;font-family:PRIMETIME;-inkscape-font-specification:'PRIMETIME, Normal';font-variant-ligatures:normal;font-variant-caps:normal;font-variant-numeric:normal;font-variant-east-asian:normal;letter-spacing:0px;word-spacing:0px;white-space:pre;shape-inside:url(#rect3058);fill:#ffd500;fill-opacity:1;stroke:none"><tspan
       x="124.65039"
       y="107.87109"
       id="tspan3">AAA</tspan></text><text
     xml:space="preserve"
     transform="matrix(0.78125,0,0,0.78125,-56.266772,-228.6632)"
     id="text3058"
     style="font-style:normal;font-variant:normal;font-weight:normal;font-stretch:normal;font-size:40px;line-height:1.25;font-family:PRIMETIME;-inkscape-font-specification:'PRIMETIME, Normal';font-variant-ligatures:normal;font-variant-caps:normal;font-variant-numeric:normal;font-variant-east-asian:normal;letter-spacing:0px;word-spacing:0px;white-space:pre;shape-inside:url(#rect3059);fill:#ffd500;fill-opacity:1;stroke:none"><tspan
       x="128.77148"
       y="458.12891"
       id="tspan4">FAU</tspan></text></svg>
