<?xml version="1.0" encoding="UTF-8" standalone="no"?>
<!-- Created with Inkscape (http://www.inkscape.org/) -->

<svg
   width="149.75414mm"
   height="149.75417mm"
   viewBox="0 0 149.75413 149.75416"
   version="1.1"
   id="svg1"
   xml:space="preserve"
   sodipodi:docname="template-matricole-a.svg"
   xmlns:inkscape="http://www.inkscape.org/namespaces/inkscape"
   xmlns:sodipodi="http://sodipodi.sourceforge.net/DTD/sodipodi-0.dtd"
   xmlns="http://www.w3.org/2000/svg"
   xmlns:svg="http://www.w3.org/2000/svg"><sodipodi:namedview
     id="namedview1"
     pagecolor="#ffffff"
     bordercolor="#999999"
     borderopacity="1"
     inkscape:showpageshadow="2"
     inkscape:pageopacity="0"
     inkscape:pagecheckerboard="0"
     inkscape:deskcolor="#d1d1d1"
     inkscape:document-units="mm"
     inkscape:zoom="0.9707102"
     inkscape:cx="524.35835"
     inkscape:cy="224.06275"
     inkscape:window-width="1920"
     inkscape:window-height="991"
     inkscape:window-x="-9"
     inkscape:window-y="-9"
     inkscape:window-maximized="1"
     inkscape:current-layer="svg1" /><defs
     id="defs1"><rect
       x="128.7717"
       y="414.12979"
       width="302.87103"
       height="109.1984"
       id="rect1040" /><rect
       x="124.651"
       y="63.870762"
       width="290.50894"
       height="105.07771"
       id="rect3058" /></defs><path
     id="rect1-3"
     style="fill:#9574cd;fill-opacity:1;stroke-width:0.295148"
     d="M 0,0 H 149.75414 V 149.75416 H 0 Z"
     inkscape:export-filename="..\eng\ENG1.svg"
     inkscape:export-xdpi="347.36404"
     inkscape:export-ydpi="347.36404" /><path
     id="path3566"
     style="font-size:40px;line-height:1.25;font-family:PRIMETIME;-inkscape-font-specification:'PRIMETIME, Normal';letter-spacing:0px;word-spacing:0px;white-space:pre;fill:#000000;fill-opacity:0.31;stroke-width:0.761267"
     d="m 43.466081,19.999813 -0.515731,0.515731 v 24.484293 h 0.203605 v 0.260966 h 0.203088 v 0.260966 h 0.203606 v 0.261483 h 0.203605 v 0.260966 h 0.203605 v 0.260966 h 0.203088 v 0.260966 h 0.203605 v 0.260966 h 0.203606 v 0.261483 h 0.203605 v 0.260966 h 0.203088 v 0.260966 h 0.203605 v 0.260966 h 0.203605 v 0.260966 h 0.203606 v 0.261482 h 0.203088 v 0.260966 h 0.203605 v 0.260966 h 0.203605 v 0.260966 h 0.203605 v 0.261483 h 0.203089 v 0.260966 h 0.203605 v 0.260966 h 0.203605 v 0.260966 h 0.203605 v 0.260966 h 0.203088 v 0.261483 h 0.203606 v 0.260966 h 0.203605 v 0.260966 h 0.203605 v 0.260966 h 0.203088 v 0.261482 h 0.203605 v 0.260966 h 0.203606 v 0.260966 h 0.203605 v 0.260966 h 0.203088 v 0.260966 h 0.203605 V 53.0934 h 0.203605 v 0.260966 h 0.203606 v 0.260966 h 0.203088 v 0.260966 h 0.203605 v 0.260966 h 0.203605 v 0.261483 h 0.203605 v 0.260966 h 0.203089 v 0.260966 h 0.203605 v 0.260966 h 0.203605 v 0.261482 h 0.203605 v 0.260966 h 0.203089 v 0.260966 h 0.203605 v 0.260966 h 0.203605 v 0.260966 h 0.203605 v 0.261483 h 0.203088 v 0.260966 h 0.203605 v 0.260966 h 0.203606 v 0.260966 h 0.203605 v 0.261483 h 0.203088 v 0.260966 h 0.203605 v 0.260966 h 0.203605 v 0.260966 h 0.203606 v 0.260966 h 0.203088 v 0.261482 h 0.203605 v 0.260966 h 0.203605 v 0.260966 h 0.203605 v 0.260966 h 0.203089 v 0.260966 h 0.203605 v 0.261483 h 0.203605 v 0.260966 h 0.203088 v 0.260966 h 5.17e-4 0.203089 v 0.260966 h 0.203605 v 0.261483 h 0.203605 v 0.260966 h 0.203088 v 0.260966 h 5.17e-4 0.203088 v 0.260966 h 0.203606 v 0.260966 h 0.203605 v 0.261483 h 0.203088 v 0.260966 h 5.17e-4 0.203088 v 0.260966 h 0.203605 v 0.260966 h 0.203605 v 0.261482 h 0.203089 v 0.260966 h 5.17e-4 0.203088 v 0.260966 h 0.203605 v 0.260966 h 0.203605 v 0.260966 h 0.203089 v 0.261483 h 5.16e-4 0.203089 v 0.260966 h 0.203605 v 0.260966 h 0.203605 v 0.260966 h 0.203088 v 0.260966 h 5.17e-4 0.203089 v 0.261483 h 0.203605 v 0.260966 h 0.203605 v 0.260966 h 0.203088 v 0.260966 h 0.203605 v 0.261482 h 0.203606 v 0.260966 h 0.203605 v 0.260966 h 0.203088 v 0.260966 h 0.203605 v 0.260966 h 0.203605 v 0.261483 h 0.203606 v 0.260966 h 0.203088 v 0.260966 h 0.203605 v 0.260966 h 0.203605 v 0.261483 h 0.203605 v 0.260966 h 0.203089 v 0.260966 h 0.203605 v 0.260966 h 0.203605 v 0.260966 h 0.203605 v 0.261482 h 0.203089 v 0.260966 h 0.203605 v 0.260966 h 0.203605 v 0.260966 h 0.203605 v 0.260966 h 0.203088 v 0.261483 h 0.203605 v 0.260966 h 0.203606 v 0.260966 h 0.203605 v 0.260966 h 0.203088 v 0.261483 h 0.203605 v 0.260966 h 0.203605 v 0.260966 h 0.203606 v 0.260966 h 0.203088 v 0.260966 h 0.203605 v 0.261482 h 0.203605 v 0.260966 h 0.203089 v 0.260966 h 0.203605 v 0.260966 h 0.203605 v 0.260966 h 0.203605 v 0.261483 h 0.203088 v 0.260966 h 0.203606 v 0.260966 h 0.203605 v 0.260966 h 0.203605 v 0.261483 h 0.203088 v 0.260966 h 0.203605 v 0.260966 h 0.203606 v 0.260966 h 0.203605 v 0.260966 h 0.203088 v 0.261482 h 0.203605 v 0.260966 h 0.203605 v 0.260966 h 0.203089 v 0.260966 h 5.16e-4 0.203089 v 0.261483 h 0.203605 v 0.260966 h 0.203605 v 0.260966 h 0.203089 v 0.260966 h 5.16e-4 0.203089 v 0.260966 h 0.203605 v 0.261483 h 0.203605 v 0.260966 h 0.203088 v 0.260966 h 5.17e-4 0.203088 v 0.260966 h 0.203606 v 0.260966 h 0.203605 v 0.261483 h 0.203088 v 0.260966 h 5.17e-4 0.203088 v 0.260965 h 0.203605 v 0.260966 h 0.203606 v 0.261483 h 0.203088 v 0.260966 h 5.17e-4 0.203088 v 0.260966 h 0.203605 v 0.260966 h 0.203605 v 0.260966 h 0.203089 v 0.261483 h 5.17e-4 0.203088 v 0.260966 h 0.203605 v 0.260966 h 0.203605 v 0.260966 h 0.203089 v 0.261483 h 5.16e-4 0.203089 v 0.260966 h 0.203605 v 0.260966 h 0.203605 v 0.260966 h 0.203088 v 0.260966 h 5.17e-4 0.203089 v 0.261482 h 0.203605 v 0.260966 h 0.203605 v 0.260966 h 0.203088 v 0.260966 h 5.17e-4 0.203088 v 0.260966 h 0.203605 v 0.261483 H 76.7271 v 0.260966 h 0.203088 v 0.260966 h 5.17e-4 0.203088 v 0.260966 h 0.203605 v 0.261483 h 0.203605 v 0.260966 h 0.203089 v 0.260966 h 5.17e-4 0.203088 v 0.260966 h 0.203605 v 0.260966 h 0.203605 v 0.261482 h 0.203089 v 0.260966 h 5.16e-4 0.203089 v 0.260966 h 0.203605 v 0.260966 h 0.203605 v 0.261483 h 0.203088 v 0.260966 h 5.17e-4 0.203089 v 0.260966 h 0.203605 v 0.260966 h 0.203605 V 92.5158 h 0.203088 v 0.261483 h 5.17e-4 0.203088 v 0.260966 h 0.203606 v 0.260966 h 0.203605 v 0.260966 h 0.203088 v 0.260966 h 0.203605 v 0.261482 h 0.203605 v 0.260966 h 0.203089 v 0.260966 h 5.16e-4 0.203089 v 0.260966 h 0.203605 v 0.261483 h 0.203605 v 0.260966 h 0.203089 v 0.260966 h 5.16e-4 0.203089 v 0.260966 h 0.203605 v 0.260966 h 0.203605 v 0.261483 h 0.203088 v 0.260966 h 5.17e-4 0.203088 v 0.260966 h 0.203606 v 0.260966 h 0.203605 v 0.261482 h 0.203088 v 0.260966 h 5.17e-4 0.203088 v 0.260966 h 0.203605 v 0.260966 h 0.203606 v 0.260966 h 0.203088 v 0.261483 h 5.17e-4 0.203088 v 0.260966 h 0.203605 v 0.260966 h 0.203605 v 0.260966 h 0.203089 v 0.260966 h 5.17e-4 0.203088 v 0.260962 h 0.203605 v 0.26097 h 0.203605 v 0.26097 h 0.203089 v 0.262 h 5.16e-4 0.203089 v 0.26096 h 0.203605 v 0.26097 h 0.203605 v 0.26096 h 0.203088 v 0.26149 h 5.17e-4 0.203088 v 0.26096 h 0.203606 v 0.26097 h 0.203605 v 0.26096 h 0.203088 v 0.26097 h 5.17e-4 0.203088 v 0.26097 h 0.203605 v 0.26096 h 0.203606 v 0.26097 h 0.203088 v 0.26096 h 5.17e-4 0.203088 v 0.262 h 0.203605 v 0.26097 h 0.203605 v 0.26097 h 0.203089 v 0.26096 h 0.203605 v 0.26097 h 0.203605 v 0.26096 h 0.203088 v 0.26097 h 5.17e-4 0.203089 v 0.26148 h 0.203605 v 0.26097 h 0.203605 v 0.26096 h 0.203088 v 0.26097 h 5.17e-4 0.203088 v 0.26097 h 0.203606 v 0.26096 h 0.203605 v 0.262 h 0.203088 v 0.26097 h 5.17e-4 0.203088 v 0.26096 h 0.203605 v 0.26097 h 0.203605 v 0.26097 h 0.203089 v 0.26096 h 5.17e-4 0.203088 v 0.26097 h 0.203605 v 0.26096 h 0.203605 v 0.26097 h 0.203089 v 0.26097 h 5.16e-4 0.203089 v 0.26148 h 0.203605 v 0.26096 h 0.203605 v 0.26097 h 0.203088 v 0.262 h 5.17e-4 0.203089 v 0.26097 h 0.203605 v 0.26096 h 0.203605 v 0.26097 h 0.203088 v 0.26096 h 5.17e-4 0.203088 v 0.26097 h 0.203606 v 0.26097 h 0.203605 v 0.26096 h 0.203088 v 0.26097 h 5.17e-4 0.203088 v 0.26096 h 0.203605 v 0.26097 h 0.203089 v 0.26097 h 5.17e-4 0.203088 v 0.262 h 5.17e-4 0.203088 v 0.26096 h 0.203605 v 0.26148 h 0.203089 v 0.26097 h 5.16e-4 0.203089 v 0.26097 h 5.16e-4 0.203089 v 0.26096 h 0.203605 v 0.26097 h 0.203088 v 0.26096 h 5.17e-4 0.203089 v 0.26097 h 5.16e-4 0.203089 v 0.26097 h 0.203605 v 0.26096 h 0.203088 v 0.26097 h 5.17e-4 0.203088 v 0.26096 h 5.17e-4 0.203088 v 0.262 h 0.203606 v 0.26097 h 0.203088 v 0.26097 h 5.17e-4 0.20309 v 0.26096 h 0.2036 v 0.26097 h 0.20309 v 0.26148 h 0.20412 v 0.19689 c -0.0192,0.0459 -0.033,0.0934 -0.0532,0.13901 -0.24515,0.57985 -0.55877,1.105 -0.926562,1.58698 v -0.0264 H 99.55413 v -0.139 -0.12196 h -0.203605 v -0.14159 -0.11938 H 99.14692 v -0.14366 -0.1173 h -0.203605 v -0.14573 -0.11524 h -0.203089 v -0.14779 -0.11318 h -0.203605 v -0.14986 -0.1111 h -0.203605 v -0.15296 -0.10801 h -0.203605 v -0.15503 -0.10593 h -0.203089 v -0.1571 -0.10387 h -0.203605 v -0.15916 -0.1018 h -0.203605 v -0.16124 -0.0997 h -0.203605 v -0.16433 -0.0966 h -0.203088 v -0.1664 -0.0956 h -0.203606 v -0.16743 -0.0935 h -0.203605 v -0.16898 -0.092 h -0.203605 v -0.17105 -0.0904 h -0.203088 v -0.17363 -0.0873 H 96.09491 v -0.1757 -0.0853 h -0.203605 v -0.17777 -0.0832 h -0.203606 v -0.17983 -0.0811 h -0.203088 v -0.18293 -0.078 h -0.203605 v -0.185 -0.076 h -0.203605 v -0.18707 -0.0739 h -0.203605 v -0.18914 -0.0718 h -0.203089 v -0.1912 -0.0698 h -0.203605 v -0.19431 -0.0677 h -0.203605 v -0.19482 -0.0662 h -0.203605 v -0.19689 -0.0641 h -0.203089 v -0.19895 -0.062 h -0.203605 v -0.20102 -0.06 h -0.203605 v -0.20412 -0.0568 h -0.203605 v -0.20619 -0.0553 H 93.0429 v -0.20774 -0.0532 h -0.203606 v -0.20981 -0.0512 h -0.203605 v -0.21187 -0.0491 h -0.203605 v -0.21497 -0.046 h -0.203088 v -0.21704 -0.0439 h -0.203605 v -0.21911 -0.0418 h -0.203606 v -0.22118 -0.0408 H 91.61818 v -0.22221 -0.0388 h -0.203088 v -0.22479 -0.0362 h -0.203605 v -0.22686 -0.0341 h -0.203605 v -0.22893 -0.032 h -0.203605 v -0.23099 -0.03 h -0.203089 v -0.23306 -0.0279 h -0.203605 v -0.23616 -0.0248 h -0.203605 v -0.23823 -0.0227 h -0.203605 v -0.2403 -0.0212 h -0.203089 v -0.24185 -0.0191 h -0.203605 v -0.24391 -0.0171 h -0.203605 v -0.24701 -0.0139 h -0.203605 v -0.24908 -0.0129 h -0.203088 v -0.25011 -0.0109 h -0.203606 v -0.25166 -0.009 H 88.56617 v -0.25373 -0.007 h -0.203605 v -0.25683 -0.004 h -0.203088 v -0.2589 -0.002 h -0.203605 v -0.26097 H 68.31521 v 6.05907 h 0.203605 v 0.24908 0.0119 h 0.203088 v 0.23668 0.0243 h 0.203606 v 0.22479 0.0362 h 0.203605 v 0.21291 0.0481 h 0.203605 v 0.20102 0.06 h 0.203088 v 0.18913 0.0718 h 0.203605 v 0.17725 0.0847 h 0.203606 v 0.16433 0.0966 h 0.203605 v 0.15193 0.10903 h 0.203088 v 0.14005 0.12092 h 0.203605 v 0.12816 0.1328 h 0.203605 v 0.11628 0.14469 h 0.203606 v 0.10439 0.15709 h 0.203088 v 0.092 0.16898 h 0.203605 v 0.0796 0.18139 h 0.203605 v 0.0677 0.19327 h 0.203605 v 0.0558 0.20516 h 0.203089 v 0.0439 0.21704 h 0.203605 v 0.032 0.22893 h 0.203605 v 0.0202 0.24185 h 0.203605 v 0.007 0.25424 h 0.203089 v 0.26097 h 0.203605 v 0.26097 h 0.203605 v 0.26096 h 0.203605 v 0.26097 h 0.203088 v 0.26096 h 0.203605 v 0.26097 h 0.203606 v 0.26097 h 0.12764 l -0.983919,1.76526 c -0.0073,-0.009 -0.01545,-0.0166 -0.02274,-0.0253 -0.06979,-0.0884 -0.134754,-0.18096 -0.207223,-0.26717 -0.06882,-0.0872 -0.132704,-0.17851 -0.204122,-0.26354 -0.07196,-0.0913 -0.13914,-0.18655 -0.21394,-0.27544 -0.06874,-0.087 -0.132291,-0.17818 -0.203605,-0.26303 -0.07033,-0.0891 -0.135744,-0.18238 -0.208773,-0.26924 -0.06969,-0.0882 -0.13438,-0.18062 -0.206706,-0.26665 -0.07022,-0.0889 -0.135882,-0.18152 -0.208773,-0.2682 -0.06948,-0.0879 -0.133578,-0.18036 -0.205672,-0.26613 -0.06949,-0.088 -0.134094,-0.17984 -0.206189,-0.26562 -0.0703,-0.089 -0.135297,-0.18245 -0.208256,-0.26923 -0.07046,-0.0892 -0.136161,-0.1823 -0.20929,-0.26924 -0.06884,-0.0871 -0.132746,-0.17809 -0.204121,-0.26303 -0.07047,-0.0892 -0.135649,-0.18277 -0.208773,-0.26975 -0.06989,-0.0884 -0.13473,-0.18093 -0.207223,-0.26717 -0.06988,-0.0884 -0.134742,-0.18094 -0.207222,-0.26717 -0.06973,-0.0882 -0.134401,-0.1806 -0.206706,-0.26665 -0.06942,-0.0878 -0.133693,-0.17992 -0.205672,-0.26561 -0.07056,-0.0893 -0.136098,-0.18269 -0.20929,-0.26975 -0.06989,-0.0884 -0.134751,-0.18096 -0.207222,-0.26717 -0.06973,-0.0882 -0.134413,-0.18062 -0.206706,-0.26665 -0.0699,-0.0884 -0.134761,-0.18094 -0.207222,-0.26717 -0.06951,-0.0879 -0.13415,-0.17986 -0.206189,-0.26562 -0.07111,-0.0899 -0.137088,-0.1841 -0.21084,-0.27181 -0.06926,-0.0875 -0.133398,-0.17918 -0.205156,-0.26459 -0.06923,-0.0875 -0.133426,-0.17917 -0.205155,-0.26458 -0.07065,-0.0893 -0.136043,-0.1831 -0.20929,-0.27027 -0.06994,-0.0884 -0.134746,-0.18093 -0.207222,-0.26717 -0.06978,-0.0881 -0.134408,-0.18059 -0.206706,-0.26665 -0.06994,-0.0883 -0.134763,-0.18091 -0.207222,-0.26716 -0.06925,-0.0875 -0.133438,-0.17917 -0.205156,-0.26459 -0.0715,-0.0904 -0.13774,-0.18519 -0.211873,-0.27336 -0.06912,-0.0872 -0.133585,-0.17835 -0.205156,-0.26355 -0.06951,-0.0878 -0.133695,-0.1799 -0.205672,-0.26562 -0.07114,-0.0899 -0.137119,-0.18411 -0.21084,-0.27182 -0.06784,-0.0856 -0.130317,-0.17574 -0.200504,-0.25941 -0.07266,-0.0918 -0.140145,-0.18791 -0.215491,-0.27751 -0.0673,-0.0848 -0.129362,-0.17393 -0.198954,-0.25683 -0.07201,-0.0909 -0.138788,-0.18616 -0.213424,-0.27492 -0.06873,-0.0867 -0.131976,-0.17785 -0.203088,-0.26251 -0.07065,-0.0892 -0.136126,-0.18269 -0.20929,-0.26976 -0.06998,-0.0883 -0.134778,-0.18095 -0.207222,-0.26716 -0.305498,-0.38532 -0.626398,-0.75818 -0.978752,-1.10433 l -0.0015,-0.002 c -1.136299,-1.136 -2.475011,-2.02788 -4.016809,-2.67788 l -0.0026,-0.001 c -1.521899,-0.67 -3.144772,-1.00511 -4.86947,-1.00511 h -5.17e-4 -0.0021 c -1.745398,0 -3.379311,0.33511 -4.90151,1.00511 h -10e-4 c -1.522199,0.65 -2.852205,1.54187 -3.988904,2.67787 l -5.17e-4,10e-4 c -1.136499,1.11699 -2.039496,2.43641 -2.709395,3.95841 l -5.17e-4,0.001 c -0.649399,1.523 -0.974417,3.14551 -0.974617,4.87051 v 0.001 c 0,1.726 0.325018,3.35006 0.974617,4.87205 0.511783,1.1637 1.161994,2.21189 1.946135,3.14968 0.06825,0.086 0.132638,0.17525 0.203088,0.25942 0.06586,0.0829 0.127937,0.1689 0.195854,0.25011 0.06786,0.0856 0.132009,0.17413 0.202054,0.25787 0.06779,0.0854 0.132083,0.17374 0.202055,0.25735 0.06636,0.0836 0.128942,0.17033 0.197404,0.25218 0.0678,0.0854 0.132062,0.17373 0.202055,0.25735 0.06637,0.0836 0.128926,0.17032 0.197404,0.25218 0.06687,0.0843 0.12994,0.17174 0.198954,0.25425 0.06787,0.0855 0.131973,0.17415 0.202055,0.25786 0.06573,0.0828 0.12804,0.16851 0.195854,0.2496 0.06794,0.0857 0.131888,0.17455 0.202055,0.25838 0.06761,0.0853 0.131711,0.1734 0.201538,0.25683 0.06566,0.0828 0.127587,0.16856 0.195337,0.2496 0.06859,0.0865 0.133239,0.1763 0.204122,0.26097 0.06632,0.0836 0.128939,0.17035 0.197404,0.25218 0.06776,0.0854 0.132059,0.17375 0.202054,0.25735 0.06611,0.0833 0.128646,0.16958 0.196888,0.25114 0.06655,0.084 0.129203,0.17106 0.19792,0.25322 0.06841,0.0863 0.133418,0.1755 0.204122,0.25993 0.06586,0.0831 0.12786,0.16932 0.195854,0.25063 0.06833,0.0863 0.13297,0.17557 0.203605,0.25993 0.06625,0.0835 0.128986,0.16992 0.197404,0.25167 0.06629,0.0836 0.128937,0.17032 0.197404,0.25218 0.06902,0.0871 0.134287,0.17733 0.205672,0.26251 0.06556,0.0827 0.127639,0.1682 0.195337,0.24908 0.06735,0.085 0.130897,0.17318 0.200505,0.25632 0.06674,0.0842 0.129991,0.17135 0.198954,0.25373 0.06665,0.0842 0.12956,0.17139 0.198437,0.25373 0.06823,0.0862 0.133043,0.17516 0.203606,0.25942 0.06613,0.0835 0.128555,0.17001 0.196887,0.25166 0.06785,0.0857 0.132403,0.17408 0.202571,0.25787 0.0663,0.0837 0.12889,0.17034 0.197404,0.25218 0.06635,0.0838 0.128822,0.17073 0.197404,0.2527 0.06821,0.0862 0.133033,0.17517 0.203606,0.25941 0.06642,0.0839 0.129254,0.17069 0.19792,0.2527 0.06707,0.0847 0.130628,0.17241 0.199988,0.25528 0.06707,0.0848 0.130614,0.17241 0.199988,0.25528 0.06745,0.0852 0.13124,0.17352 0.201021,0.25683 0.06633,0.0838 0.129337,0.17027 0.197921,0.25219 0.06683,0.0845 0.129826,0.17218 0.198954,0.25476 0.06727,0.085 0.131414,0.17268 0.201022,0.2558 0.06691,0.0846 0.130247,0.17211 0.199471,0.25476 0.0682,0.0862 0.132996,0.1752 0.203605,0.25942 0.06428,0.0812 0.124777,0.16554 0.191202,0.24495 0.0682,0.0864 0.132983,0.17557 0.203606,0.25993 0.06688,0.0846 0.130258,0.17208 0.199471,0.25476 0.0677,0.0856 0.131957,0.17422 0.202054,0.25787 0.0669,0.0846 0.130741,0.17162 0.199988,0.25425 0.06554,0.0828 0.127543,0.1686 0.195337,0.24959 0.06761,0.0856 0.131514,0.17427 0.201538,0.25787 0.06748,0.0854 0.131658,0.17346 0.201538,0.25683 0.0659,0.0833 0.128179,0.16973 0.196371,0.25115 0.06821,0.0864 0.13293,0.17559 0.203605,0.25993 0.06611,0.0836 0.128974,0.16995 0.197404,0.25166 0.0667,0.0844 0.12988,0.17177 0.198954,0.25425 0.06715,0.085 0.130945,0.17276 0.200505,0.2558 0.06669,0.0844 0.129882,0.17179 0.198954,0.25425 0.06788,0.086 0.132731,0.17447 0.203088,0.25838 0.06587,0.0833 0.128169,0.16973 0.196371,0.25115 0.06631,0.084 0.129234,0.17068 0.197921,0.2527 0.06855,0.0869 0.133551,0.17667 0.204638,0.26148 0.06576,0.0833 0.128265,0.1693 0.196371,0.25063 0.06787,0.086 0.132715,0.17444 0.203088,0.25838 0.06556,0.083 0.127443,0.16903 0.195337,0.25012 0.06731,0.0853 0.131238,0.17354 0.201021,0.25683 0.06823,0.0865 0.133341,0.17556 0.204122,0.25993 0.06473,0.0819 0.12625,0.16645 0.19327,0.2465 0.06852,0.0869 0.133539,0.17671 0.204639,0.26148 0.06532,0.0827 0.127153,0.16829 0.19482,0.24908 0.06743,0.0856 0.13159,0.17385 0.201538,0.25735 0.06754,0.0857 0.131989,0.17377 0.202055,0.25735 0.06521,0.0826 0.126732,0.16838 0.194303,0.24908 0.0684,0.0868 0.13363,0.1763 0.204639,0.26096 0.06586,0.0835 0.128608,0.16967 0.196887,0.25115 0.06708,0.0851 0.130912,0.17279 0.200505,0.2558 0.06722,0.0853 0.131262,0.17314 0.201021,0.25631 0.0658,0.0834 0.128142,0.16972 0.19637,0.25115 0.06808,0.0865 0.132914,0.17564 0.203606,0.25993 0.06599,0.0837 0.128958,0.16998 0.197404,0.25167 0.06705,0.0851 0.130911,0.17277 0.200504,0.2558 0.06741,0.0856 0.131544,0.1739 0.201538,0.25735 0.06524,0.0828 0.127163,0.1683 0.19482,0.24908 0.06783,0.0862 0.132625,0.17488 0.203089,0.2589 0.0665,0.0844 0.129922,0.1714 0.198954,0.25373 0.06687,0.0849 0.130549,0.17247 0.199988,0.25528 0.06686,0.0849 0.130557,0.17246 0.199988,0.25528 0.06587,0.0837 0.128518,0.17004 0.196887,0.25166 0.06812,0.0866 0.132802,0.17605 0.203605,0.26045 0.06653,0.0845 0.130377,0.17135 0.199471,0.25373 0.0662,0.0841 0.129181,0.17071 0.197921,0.2527 0.06683,0.0849 0.130561,0.17249 0.199987,0.25528 0.06676,0.0849 0.130108,0.17257 0.199471,0.25529 0.06646,0.0845 0.129915,0.1714 0.198955,0.25373 0.0092,0.0117 0.01763,0.024 0.02687,0.0357 0.004,0.006 0.0089,0.0112 0.01292,0.0171 0.05392,0.0677 0.105631,0.13728 0.16123,0.2036 0.0076,0.01 0.01459,0.0198 0.02222,0.0295 0.01,0.0149 0.02172,0.0283 0.03204,0.0429 0.04858,0.0607 0.09527,0.12285 0.145211,0.18242 0.0071,0.009 0.01349,0.0188 0.02067,0.0279 0.01283,0.0192 0.02798,0.0366 0.04134,0.0553 0.04542,0.0566 0.0893,0.11442 0.135909,0.17001 0.0072,0.009 0.01395,0.0188 0.02119,0.0279 0.01631,0.0245 0.03556,0.0465 0.05271,0.0703 0.04335,0.0538 0.08528,0.10882 0.129708,0.16174 0.0049,0.006 0.0096,0.0125 0.01447,0.0186 0.02197,0.0332 0.04781,0.0632 0.07131,0.0951 0.03714,0.0459 0.07369,0.0922 0.111621,0.13746 0.0046,0.006 0.0089,0.0118 0.01344,0.0176 0.02733,0.0416 0.05918,0.0792 0.08888,0.11886 0.03167,0.0389 0.06336,0.0778 0.0956,0.11627 0.0048,0.006 0.0092,0.0125 0.01395,0.0186 0.03037,0.0464 0.06594,0.0883 0.09922,0.13229 0.02931,0.0359 0.05908,0.0715 0.08888,0.10697 0.003,0.004 0.0057,0.008 0.0088,0.0119 0.03706,0.057 0.08005,0.10886 0.121439,0.16226 0.01475,0.018 0.02957,0.0359 0.04444,0.0538 0.01112,0.0135 0.02218,0.027 0.03359,0.0403 0.04138,0.0636 0.09022,0.12112 0.136942,0.18036 0.0041,0.005 0.0083,0.01 0.0124,0.015 0.01676,0.0209 0.03373,0.0417 0.05116,0.062 0.05965,0.0917 0.129867,0.17468 0.200505,0.25735 0.05952,0.0915 0.129637,0.17427 0.199987,0.25683 0.06005,0.0923 0.130578,0.17613 0.201539,0.25942 0.05966,0.0916 0.130208,0.17414 0.200504,0.25683 0.059,0.0904 0.128617,0.17232 0.197921,0.25425 0.05998,0.0921 0.130981,0.17545 0.201538,0.2589 0.0599,0.0919 0.130711,0.17461 0.201021,0.25786 0.05975,0.0916 0.129992,0.1743 0.199988,0.25735 0.06,0.092 0.13132,0.17445 0.201538,0.25787 0.05944,0.0909 0.129589,0.17305 0.198954,0.2558 0.0597,0.0914 0.130345,0.17366 0.199988,0.25683 0.06022,0.0923 0.131288,0.17587 0.201538,0.25993 0.05948,0.091 0.130337,0.1728 0.199471,0.2558 0.05995,0.0918 0.131325,0.17411 0.201022,0.25786 0.06023,0.0922 0.131569,0.17481 0.201538,0.2589 0.0598,0.0913 0.130688,0.17332 0.199988,0.25684 0.05923,0.0905 0.129969,0.17137 0.198437,0.25424 0.06012,0.092 0.13144,0.17474 0.201021,0.2589 0.06022,0.0921 0.131924,0.17467 0.201538,0.2589 0.06008,0.0917 0.131679,0.17388 0.201022,0.25787 0.05976,0.0911 0.131166,0.17272 0.199988,0.25631 0.05985,0.0912 0.131111,0.17304 0.199987,0.25683 0.05946,0.0907 0.130132,0.17189 0.198438,0.25529 0.06053,0.0925 0.132936,0.17541 0.202571,0.26044 0.06019,0.0918 0.131938,0.17397 0.201022,0.25839 0.06002,0.0913 0.131713,0.17315 0.200504,0.25735 0.05997,0.0912 0.131871,0.17269 0.200505,0.25683 0.05999,0.0913 0.1314,0.17312 0.199988,0.25735 0.05982,0.0911 0.131682,0.17225 0.199987,0.25631 0.06015,0.0916 0.131846,0.17336 0.200505,0.25787 0.06007,0.0913 0.13202,0.17295 0.200505,0.25734 0.05973,0.0908 0.13148,0.1718 0.199471,0.2558 0.06027,0.0917 0.132396,0.17354 0.201021,0.25839 0.06026,0.0917 0.132484,0.17307 0.201021,0.25786 0.0598,0.0909 0.131077,0.17212 0.198955,0.25632 0.0602,0.0916 0.132688,0.17304 0.201021,0.25786 0.06032,0.0917 0.132601,0.17386 0.201021,0.2589 0.06023,0.0915 0.13278,0.17299 0.201021,0.25787 0.06007,0.0911 0.132537,0.17218 0.200505,0.25683 0.06009,0.0912 0.132047,0.17262 0.199988,0.25735 0.05966,0.0905 0.131611,0.17107 0.198954,0.25528 0.06031,0.0916 0.132903,0.17316 0.201021,0.25838 0.06023,0.0914 0.132556,0.17284 0.200505,0.25787 0.06016,0.0913 0.132689,0.17239 0.200505,0.25734 0.06011,0.0912 0.132819,0.17194 0.200504,0.25684 0.06055,0.0919 0.133344,0.17336 0.201538,0.25889 0.06005,0.0909 0.132503,0.17153 0.199988,0.25632 0.05957,0.0902 0.13108,0.17053 0.197921,0.25476 0.06056,0.0919 0.134002,0.17323 0.202055,0.2589 0.06055,0.0918 0.133054,0.17372 0.201021,0.25942 0.06016,0.0911 0.133083,0.17172 0.200504,0.25683 0.06035,0.0914 0.133413,0.17246 0.201022,0.25787 0.06018,0.0911 0.132635,0.17215 0.199988,0.25734 0.05991,0.0907 0.132506,0.17092 0.199471,0.2558 0.06022,0.0912 0.133191,0.17198 0.200504,0.25735 0.0604,0.0915 0.133012,0.1728 0.200505,0.25838 0.06046,0.0915 0.134026,0.17223 0.201538,0.25787 0.06018,0.0909 0.13288,0.17158 0.199988,0.25683 0.0603,0.0912 0.133287,0.17188 0.200504,0.25735 0.05991,0.0906 0.132273,0.17083 0.198954,0.2558 0.06034,0.0913 0.133322,0.1722 0.200505,0.25786 0.06066,0.0918 0.134012,0.17329 0.201538,0.25942 0.06023,0.091 0.133564,0.17135 0.200505,0.25683 0.06031,0.0911 0.133494,0.17172 0.200504,0.25735 0.06041,0.0913 0.133419,0.17208 0.200505,0.25787 0.05994,0.0905 0.133013,0.17012 0.199471,0.25528 0.06053,0.0915 0.133875,0.17233 0.201021,0.25838 0.0604,0.0912 0.133562,0.17208 0.200505,0.25786 0.06048,0.0913 0.134022,0.17196 0.201021,0.25787 0.06031,0.091 0.133233,0.17167 0.199988,0.25735 0.06008,0.0907 0.13355,0.17039 0.199988,0.2558 0.06019,0.0909 0.132941,0.1712 0.199471,0.25683 0.06092,0.092 0.134675,0.17327 0.202054,0.25993 0.05993,0.0903 0.132815,0.17005 0.198955,0.25528 0.06075,0.0917 0.134439,0.17293 0.201538,0.25942 0.0603,0.0909 0.133999,0.17101 0.200504,0.25683 0.06053,0.0913 0.134265,0.17169 0.201022,0.25787 0.06003,0.0905 0.132846,0.1703 0.198954,0.25579 0.06051,0.0913 0.134358,0.17163 0.201021,0.25787 0.06014,0.0907 0.133295,0.1706 0.199471,0.25631 0.06076,0.0916 0.134649,0.17233 0.201538,0.2589 0.0604,0.091 0.133566,0.17131 0.199988,0.25735 0.06071,0.0915 0.134773,0.17189 0.201538,0.25838 0.05978,0.09 0.132831,0.16906 0.198438,0.25425 0.06082,0.0917 0.134712,0.17267 0.201538,0.25942 0.06017,0.0906 0.133458,0.17051 0.199471,0.25631 0.0607,0.0915 0.134928,0.17184 0.201538,0.25839 0.0605,0.0912 0.134167,0.17153 0.200504,0.25786 0.0606,0.0912 0.134604,0.17143 0.201022,0.25787 0.06042,0.0909 0.133809,0.17115 0.199988,0.25734 0.06005,0.0904 0.133775,0.16956 0.199471,0.25529 0.06072,0.0915 0.134544,0.17216 0.201021,0.2589 0.06027,0.0907 0.134082,0.17022 0.199988,0.25631 0.0609,0.0917 0.134905,0.17245 0.201538,0.25942 0.06029,0.0907 0.134118,0.17025 0.199988,0.25631 0.0605,0.091 0.134423,0.17096 0.200504,0.25735 0.05991,0.0901 0.133078,0.16917 0.198438,0.25476 0.06089,0.0917 0.135029,0.17234 0.201538,0.25942 0.06052,0.0911 0.134478,0.17084 0.200504,0.25735 0.06052,0.091 0.134504,0.17088 0.200505,0.25735 0.06078,0.0914 0.134737,0.17198 0.201021,0.2589 0.06056,0.091 0.135039,0.17077 0.201021,0.25734 0.06005,0.0903 0.133603,0.16939 0.198955,0.25529 0.06076,0.0915 0.134844,0.17193 0.201021,0.2589 0.0606,0.091 0.134552,0.17118 0.200505,0.25786 0.06046,0.0908 0.134751,0.1704 0.200504,0.25683 0.06027,0.0905 0.133969,0.17011 0.199471,0.25632 0.06074,0.0913 0.13499,0.17145 0.201022,0.25838 0.06022,0.0905 0.134075,0.1696 0.199471,0.2558 0.06109,0.0919 0.13566,0.17246 0.202054,0.25993 0.06029,0.0905 0.134561,0.16953 0.199988,0.2558 0.06029,0.0906 0.134064,0.16997 0.199471,0.25631 0.06102,0.0917 0.135296,0.17251 0.201538,0.25994 0.06049,0.0908 0.134916,0.17021 0.200505,0.25683 0.06017,0.0904 0.133767,0.16958 0.198954,0.2558 0.0608,0.0913 0.135633,0.17123 0.201538,0.25838 0.06066,0.0911 0.134793,0.17094 0.200505,0.25786 0.06043,0.0907 0.134563,0.17021 0.199988,0.25684 0.06078,0.0913 0.135214,0.17128 0.201021,0.25838 0.06073,0.0912 0.135297,0.17085 0.201021,0.25786 0.06047,0.0907 0.13459,0.1702 0.199988,0.25684 0.06012,0.0902 0.133988,0.1691 0.198954,0.25528 0.06083,0.0913 0.135766,0.17114 0.201538,0.25838 0.06033,0.0905 0.134303,0.16979 0.199471,0.25631 0.06095,0.0915 0.135675,0.1715 0.201538,0.2589 0.06075,0.0911 0.134899,0.17125 0.200505,0.25839 0.06053,0.0908 0.135176,0.17 0.200505,0.25683 0.06035,0.0905 0.134373,0.1697 0.199471,0.25631 0.06081,0.0913 0.135412,0.17109 0.201021,0.25838 0.06062,0.0909 0.13513,0.17035 0.200505,0.25735 0.06063,0.0909 0.135147,0.17033 0.200504,0.25735 0.06065,0.0909 0.135148,0.17034 0.200505,0.25735 0.06065,0.0909 0.135167,0.17032 0.200504,0.25735 0.06023,0.0903 0.134119,0.16933 0.198954,0.2558 0.06094,0.0914 0.135902,0.17138 0.201539,0.2589 0.06064,0.0909 0.135236,0.17027 0.200504,0.25735 0.06037,0.0905 0.134529,0.1696 0.199471,0.25631 0.06085,0.0912 0.135547,0.17101 0.201021,0.25838 0.06076,0.0911 0.135675,0.17059 0.201022,0.25787 0.06038,0.0905 0.134579,0.16955 0.199471,0.25631 0.06084,0.0912 0.135618,0.17094 0.201021,0.25839 0.06065,0.0909 0.135344,0.1702 0.200505,0.25734 0.06074,0.091 0.135261,0.17058 0.200504,0.25787 0.06066,0.0909 0.135364,0.1702 0.200505,0.25735 0.0606,0.0908 0.13546,0.16976 0.200504,0.25683 0.06,0.0899 0.133577,0.16849 0.197921,0.25476 0.06146,0.0922 0.137082,0.17257 0.203088,0.26097 0.0605,0.0905 0.135119,0.16939 0.199988,0.25632 0.06042,0.0905 0.1347,0.16943 0.199471,0.25631 0.06094,0.0913 0.136195,0.17078 0.201538,0.25838 0.06079,0.091 0.135352,0.17049 0.200505,0.25787 0.06081,0.0911 0.135856,0.17039 0.201021,0.25786 0.06029,0.0902 0.134407,0.16907 0.198955,0.2558 0.06086,0.0912 0.135834,0.17079 0.201021,0.25838 0.06077,0.091 0.135446,0.17044 0.200504,0.25787 0.06048,0.0905 0.13527,0.16927 0.199988,0.25631 0.06112,0.0915 0.13611,0.17149 0.201538,0.25942 0.06043,0.0904 0.135372,0.16889 0.199988,0.2558 0.06037,0.0903 0.134931,0.16891 0.199471,0.2558 0.06099,0.0913 0.135798,0.1711 0.201021,0.2589 0.06071,0.0908 0.135611,0.16996 0.200505,0.25734 0.06037,0.0904 0.134984,0.16887 0.199471,0.2558 0.06107,0.0914 0.136264,0.17099 0.201538,0.2589 0.06087,0.0911 0.135477,0.17074 0.200505,0.25838 0.06024,0.0901 0.134659,0.16853 0.198954,0.25529 0.06103,0.0914 0.136359,0.17096 0.201538,0.25889 0.06079,0.0909 0.135619,0.17031 0.200505,0.25787 0.06071,0.0908 0.135721,0.16989 0.200504,0.25735 0.06064,0.0907 0.13582,0.16951 0.200505,0.25683 0.06032,0.0902 0.134645,0.1689 0.198954,0.2558 0.06076,0.0909 0.135716,0.17027 0.200504,0.25786 0.061,0.0912 0.136491,0.17049 0.201539,0.25839 0.06112,0.0914 0.136383,0.17086 0.201533,0.2589 0.0604,0.0903 0.1351,0.16877 0.19947,0.25579 0.0601,0.0899 0.13444,0.16808 0.19844,0.25477 0.0616,0.0922 0.1374,0.17268 0.20309,0.26148 0.0607,0.0907 0.1359,0.16937 0.2005,0.25683 0.0605,0.0904 0.13508,0.16911 0.19947,0.25632 0.0606,0.0906 0.13549,0.16945 0.19999,0.25683 0.0605,0.0904 0.13515,0.1691 0.19947,0.25632 0.0615,0.0919 0.13711,0.17228 0.20257,0.26096 0.0602,0.0899 0.13493,0.16798 0.19896,0.25477 0.0606,0.0906 0.13551,0.16936 0.19999,0.25683 0.0613,0.0917 0.13683,0.17152 0.20205,0.25993 0.0605,0.0904 0.13565,0.16901 0.19999,0.25632 0.14812,0.22142 0.30615,0.43449 0.47697,0.63717 0.0648,0.0845 0.12741,0.17073 0.19586,0.25218 0.0666,0.0869 0.13111,0.17564 0.20153,0.25941 0.0674,0.0879 0.13285,0.17737 0.20413,0.262 0.0663,0.0865 0.13093,0.17446 0.20102,0.25787 0.0678,0.0884 0.13344,0.17839 0.20515,0.26355 0.0669,0.0872 0.13186,0.17589 0.20257,0.25993 0.0652,0.0848 0.12811,0.17137 0.19689,0.25321 0.0679,0.0886 0.13386,0.17874 0.20567,0.26407 0.0662,0.0862 0.13007,0.17423 0.19999,0.25735 0.0678,0.0882 0.13353,0.17801 0.20516,0.26303 0.0652,0.0847 0.12812,0.1714 0.19688,0.25322 0.0676,0.088 0.13326,0.17766 0.20464,0.26251 0.0665,0.0865 0.1308,0.17494 0.20102,0.25839 0.0667,0.0867 0.13118,0.1752 0.20154,0.25889 0.0665,0.0863 0.13091,0.17453 0.20102,0.25787 0.0677,0.0881 0.13319,0.17804 0.20464,0.26303 0.0664,0.0862 0.13055,0.17414 0.20051,0.25735 0.0664,0.0863 0.13048,0.17453 0.2005,0.25787 0.068,0.0884 0.13344,0.1788 0.20516,0.26406 0.0662,0.0859 0.13073,0.17334 0.2005,0.25632 0.0665,0.0863 0.13052,0.17452 0.20051,0.25786 0.0667,0.0866 0.13074,0.17527 0.20102,0.2589 0.0677,0.0878 0.1328,0.17772 0.20412,0.26252 0.0664,0.0861 0.13056,0.17416 0.2005,0.25735 0.068,0.0882 0.1335,0.1784 0.20516,0.26355 0.0656,0.085 0.12888,0.17205 0.19792,0.25425 0.0672,0.0871 0.13185,0.17627 0.20257,0.26044 0.0663,0.0859 0.13022,0.17382 0.19999,0.25684 0.0694,0.09 0.13664,0.18181 0.20981,0.26871 0.0648,0.0837 0.1268,0.16962 0.19482,0.25063 0.0676,0.0877 0.13292,0.17722 0.20412,0.262 0.066,0.0854 0.12908,0.17317 0.19844,0.2558 0.0681,0.0882 0.13401,0.17829 0.20567,0.26355 0.0667,0.0863 0.13084,0.1749 0.20102,0.25838 0.0678,0.0877 0.13334,0.17723 0.20464,0.262 0.0654,0.0845 0.12817,0.17136 0.19689,0.25322 0.0668,0.0864 0.13083,0.17526 0.20102,0.2589 0.0688,0.0891 0.13532,0.18003 0.20774,0.26613 0.0655,0.0846 0.12816,0.17136 0.19688,0.25322 0.0685,0.0886 0.13416,0.17944 0.20619,0.2651 0.0649,0.0838 0.12676,0.16999 0.19482,0.25114 0.0687,0.0889 0.13502,0.17963 0.20722,0.26562 0.0665,0.0858 0.13023,0.17373 0.19999,0.25683 0.0684,0.0885 0.13426,0.179 0.20619,0.26459 0.0664,0.0856 0.13032,0.17337 0.19999,0.25631 0.067,0.0866 0.13117,0.17558 0.20154,0.25942 0.0666,0.0859 0.13015,0.17417 0.19998,0.25734 0.0681,0.0879 0.13366,0.17793 0.20516,0.26304 0.0664,0.0855 0.12986,0.17345 0.19947,0.25631 0.0677,0.0873 0.1326,0.17696 0.20361,0.26149 0.0659,0.0849 0.12936,0.1719 0.19843,0.25424 0.0678,0.0874 0.13251,0.17731 0.20361,0.262 0.0662,0.0854 0.12953,0.17306 0.19895,0.2558 0.0675,0.087 0.13181,0.17665 0.20257,0.26097 0.0684,0.0882 0.13439,0.1786 0.20619,0.26406 0.0657,0.0847 0.1286,0.17165 0.19741,0.25374 0.069,0.0889 0.13538,0.17998 0.20774,0.26613 0.0653,0.084 0.12751,0.17064 0.19585,0.25218 0.0679,0.0876 0.13291,0.17764 0.20412,0.26252 0.0664,0.0855 0.12995,0.17341 0.19947,0.25631 0.0687,0.0886 0.13467,0.1793 0.20671,0.2651 0.066,0.0848 0.1289,0.17197 0.19792,0.25425 0.0678,0.0874 0.13254,0.17729 0.20361,0.262 0.0671,0.0863 0.13126,0.17518 0.20153,0.2589 0.0674,0.0867 0.13202,0.17585 0.20258,0.25993 0.0666,0.0857 0.13027,0.17374 0.19998,0.25683 0.0684,0.088 0.13355,0.17874 0.20516,0.26407 0.0666,0.0855 0.13035,0.1733 0.19999,0.25631 0.0667,0.0858 0.13024,0.17411 0.19998,0.25735 0.0682,0.0876 0.13332,0.17753 0.20464,0.26252 0.0669,0.0859 0.13058,0.17446 0.20051,0.25786 0.0673,0.0865 0.1316,0.17547 0.20205,0.25942 0.0673,0.0865 0.13166,0.17547 0.20206,0.25942 0.0668,0.0858 0.13071,0.17404 0.2005,0.25734 0.0681,0.0875 0.1329,0.17764 0.20412,0.26252 0.0669,0.0859 0.13061,0.17448 0.20051,0.25787 0.0674,0.0864 0.13164,0.17548 0.20205,0.25941 0.0682,0.0875 0.13337,0.1776 0.20464,0.26252 0.0651,0.0834 0.1269,0.16954 0.19482,0.25063 0.069,0.0887 0.13456,0.18007 0.20671,0.26613 0.0665,0.0853 0.13005,0.17294 0.19947,0.2558 0.0691,0.0887 0.13498,0.18006 0.20722,0.26613 0.0667,0.0854 0.13037,0.17331 0.19999,0.25632 0.067,0.0858 0.13062,0.17445 0.2005,0.25786 0.0668,0.0856 0.13025,0.17415 0.19999,0.25735 0.0687,0.0881 0.13446,0.17857 0.20619,0.26407 0.0665,0.0851 0.12957,0.17306 0.19895,0.2558 0.0682,0.0874 0.13343,0.17709 0.20464,0.262 0.0651,0.0833 0.12649,0.16959 0.19431,0.25063 0.0698,0.0896 0.13633,0.18176 0.20929,0.26872 0.0652,0.0834 0.1269,0.16951 0.19482,0.25063 0.0685,0.0878 0.13364,0.17824 0.20515,0.26355 0.0689,0.0883 0.13473,0.17927 0.20671,0.2651 0.0658,0.0842 0.12828,0.17127 0.19688,0.25321 0.0689,0.0882 0.13431,0.17937 0.20619,0.2651 0.0658,0.0842 0.12833,0.17081 0.19689,0.2527 0.0684,0.0876 0.1333,0.17792 0.20464,0.26303 0.0679,0.0868 0.13228,0.17656 0.20309,0.26097 0.0669,0.0855 0.13077,0.1736 0.2005,0.25683 0.0669,0.0855 0.13032,0.17367 0.19999,0.25683 0.0681,0.0872 0.13259,0.17724 0.2036,0.262 0.0668,0.0854 0.1299,0.17379 0.19948,0.25683 0.0696,0.089 0.13616,0.18064 0.20877,0.26717 0.0647,0.0826 0.12593,0.16812 0.19327,0.24856 0.0694,0.0889 0.13532,0.18077 0.20774,0.26717 0.0658,0.0841 0.12836,0.17082 0.19689,0.2527 0.0686,0.0877 0.13368,0.17823 0.20515,0.26355 0.0676,0.0863 0.13169,0.17541 0.20206,0.25941 0.0676,0.0863 0.13168,0.1754 0.20205,0.25942 0.0666,0.0851 0.12961,0.17297 0.19895,0.2558 0.0675,0.0862 0.13127,0.17546 0.20154,0.25941 0.0693,0.0885 0.13501,0.18002 0.20723,0.26614 0.0661,0.0843 0.12866,0.17162 0.1974,0.25373 0.0689,0.088 0.1344,0.17894 0.20619,0.26458 0.066,0.0841 0.12828,0.17125 0.19689,0.25322 0.0684,0.0873 0.13342,0.17751 0.20463,0.26251 0.0673,0.0858 0.13097,0.17479 0.20103,0.25839 0.0677,0.0865 0.13209,0.17573 0.20257,0.25993 0.0676,0.0862 0.1317,0.17542 0.20205,0.25941 0.0675,0.0861 0.13137,0.17506 0.20154,0.2589 0.0669,0.0854 0.13039,0.17367 0.19999,0.25683 0.0692,0.0883 0.13468,0.17968 0.2067,0.26562 0.0659,0.0839 0.12796,0.17093 0.19637,0.2527 0.0691,0.0882 0.13479,0.17927 0.20671,0.2651 0.0659,0.0838 0.12798,0.17094 0.19637,0.2527 0.0683,0.0871 0.1331,0.17716 0.20412,0.262 0.068,0.0866 0.13239,0.17607 0.20309,0.26045 0.0672,0.0856 0.13064,0.17438 0.2005,0.25786 0.067,0.0853 0.13037,0.17366 0.19999,0.25683 0.0678,0.0864 0.13156,0.17622 0.20206,0.26045 0.0685,0.0874 0.13338,0.1779 0.20464,0.26303 0.0679,0.0865 0.13251,0.17568 0.20308,0.25994 0.0679,0.0865 0.13202,0.17616 0.20258,0.26045 0.0657,0.0835 0.12771,0.17016 0.19585,0.25166 0.0697,0.0888 0.1358,0.18066 0.20826,0.26717 0.0665,0.0846 0.12936,0.17223 0.19843,0.25476 0.0688,0.0875 0.13368,0.17823 0.20516,0.26355 0.0659,0.0838 0.12797,0.17091 0.19637,0.2527 0.0688,0.0876 0.13418,0.17815 0.20567,0.26355 0.0674,0.0858 0.13101,0.17473 0.20102,0.25838 0.0674,0.0858 0.13104,0.17473 0.20102,0.25838 0.0679,0.0863 0.13209,0.17577 0.20258,0.25994 0.0664,0.0845 0.129,0.17232 0.19792,0.25476 0.0698,0.0888 0.13577,0.18062 0.20825,0.26717 0.067,0.0851 0.13002,0.17329 0.19947,0.25631 0.0678,0.0861 0.13173,0.17538 0.20206,0.25942 0.0679,0.0863 0.13211,0.17572 0.20257,0.25993 0.0668,0.0849 0.12966,0.17295 0.19895,0.2558 0.0679,0.0864 0.13159,0.1762 0.20206,0.26045 0.0684,0.0869 0.13267,0.1772 0.2036,0.262 0.0682,0.0867 0.13282,0.17643 0.20361,0.26096 0.0673,0.0855 0.1312,0.1739 0.20102,0.25735 0.0668,0.0849 0.12969,0.17295 0.19895,0.2558 0.0685,0.0871 0.13303,0.17756 0.20413,0.26252 0.0668,0.0848 0.1297,0.17299 0.19895,0.2558 0.0703,0.0893 0.13686,0.18162 0.20981,0.26871 0.0656,0.0832 0.12741,0.16939 0.19533,0.25063 0.0684,0.0869 0.13269,0.17718 0.20361,0.262 0.0671,0.0851 0.12999,0.17373 0.19947,0.25684 0.0684,0.087 0.13314,0.17712 0.20412,0.262 0.0677,0.0859 0.13138,0.17506 0.20154,0.25889 0.068,0.0863 0.1321,0.1757 0.20257,0.25994 0.0669,0.0848 0.12969,0.17294 0.19896,0.2558 0.0693,0.088 0.13481,0.1792 0.2067,0.2651 0.0662,0.084 0.12831,0.17118 0.19689,0.25321 0.0685,0.087 0.13309,0.17709 0.20412,0.262 0.0686,0.087 0.13308,0.17712 0.20412,0.262 0.0658,0.0833 0.12728,0.1702 0.19534,0.25166 0.0696,0.0884 0.13505,0.18036 0.20722,0.26665 0.0667,0.0846 0.12936,0.17262 0.19844,0.25529 0.0696,0.0883 0.13561,0.17943 0.20774,0.26561 0.0667,0.0845 0.12942,0.1722 0.19844,0.25477 0.068,0.0862 0.13169,0.17576 0.20205,0.25993 0.0677,0.0858 0.1314,0.17503 0.20154,0.2589 0.0678,0.0859 0.1314,0.175 0.20154,0.2589 0.068,0.0862 0.13211,0.1757 0.20257,0.25993 0.0686,0.087 0.13356,0.17703 0.20464,0.262 0.0661,0.0837 0.12799,0.17086 0.19637,0.2527 0.0686,0.087 0.13304,0.17752 0.20412,0.26251 0.0671,0.0849 0.13008,0.17329 0.19947,0.25632 0.0682,0.0864 0.13199,0.17654 0.20257,0.26096 0.0687,0.0871 0.1335,0.17743 0.20464,0.26252 0.0682,0.0864 0.13249,0.17601 0.20309,0.26045 0.0666,0.0842 0.12906,0.17185 0.19792,0.25425 0.0685,0.0868 0.13269,0.17716 0.20361,0.262 0.068,0.0861 0.1317,0.17576 0.20205,0.25993 0.0672,0.085 0.13054,0.17319 0.19999,0.25631 0.0692,0.0877 0.13403,0.17893 0.20567,0.26459 0.0664,0.0839 0.12881,0.17112 0.1974,0.25321 0.0694,0.0879 0.13484,0.17916 0.20671,0.2651 0.0665,0.084 0.12873,0.17153 0.1974,0.25373 0.0685,0.0868 0.13273,0.1772 0.20361,0.262 0.0672,0.085 0.13,0.1737 0.19947,0.25684 0.0694,0.0878 0.13496,0.17876 0.20671,0.26458 0.0673,0.0851 0.13043,0.17361 0.19998,0.25683 0.0682,0.0862 0.1321,0.17611 0.20258,0.26045 0.0668,0.0845 0.12939,0.1726 0.19843,0.25528 0.0685,0.0867 0.13326,0.17668 0.20413,0.26148 0.0681,0.086 0.13169,0.17578 0.20205,0.25994 0.068,0.0859 0.13182,0.17537 0.20205,0.25941 0.0673,0.0851 0.13044,0.17359 0.19999,0.25683 0.0691,0.0874 0.13369,0.17858 0.20516,0.26407 0.067,0.0846 0.12979,0.17253 0.19895,0.25528 0.0669,0.0845 0.1294,0.17258 0.19844,0.25528 0.0708,0.0896 0.13756,0.18268 0.21084,0.27027 0.0653,0.0824 0.12638,0.16836 0.19379,0.24908 0.0694,0.0878 0.13445,0.17922 0.20619,0.2651 0.067,0.0847 0.12976,0.17293 0.19895,0.2558 0.0696,0.088 0.13476,0.17957 0.20671,0.26562 0.0671,0.0847 0.13016,0.17284 0.19947,0.2558 0.068,0.0859 0.1318,0.17533 0.20205,0.25941 0.0671,0.0847 0.12968,0.17334 0.19896,0.25632 0.0687,0.0868 0.13319,0.17709 0.20412,0.262 0.0688,0.0868 0.13311,0.17709 0.20412,0.262 0.0674,0.085 0.13045,0.1736 0.19999,0.25683 0.0678,0.0856 0.13153,0.1746 0.20154,0.25838 0.0674,0.085 0.13048,0.17359 0.19998,0.25683 0.3044,0.3842 0.62323,0.75686 0.97152,1.10484 v 10e-4 c 1.137,1.116 2.46691,1.99893 3.9889,2.64893 l 0.002,10e-4 c 1.522,0.649 3.156,0.97307 4.90099,0.97307 h 0.001 c 1.725,0 3.34802,-0.3251 4.87102,-0.9741 l 10e-4,-0.001 c 1.542,-0.649 2.88084,-1.53194 4.01784,-2.64894 l 0.002,-0.001 c 0.62753,-0.62808 1.1728,-1.3206 1.65158,-2.06602 h 0.0434 v 0.26096 h 0.20309 v 0.26097 h 0.2036 v 0.26096 h 0.20309 v 0.26097 h 0.20412 v 0.26097 h 0.20309 v 0.26096 h 0.20361 v 0.26148 h 0.20308 v 0.26097 h 0.20413 v 0.26097 h 0.20308 v 0.262 h 0.20413 v 0.26096 h 0.20308 v 0.26097 h 0.20361 v 0.26096 h 0.20309 v 0.26097 h 0.19223 0.0109 v 0.26097 h 0.15399 0.0501 v 0.26096 h 0.11575 0.0873 v 0.26097 h 0.0775 0.12609 v 0.26096 h 0.0393 0.16381 v 0.26097 h 10e-4 19.15284 v -10e-4 -3.22048 c 0.0725,0.0133 0.13051,0.0162 0.20154,0.0284 l -0.0455,0.22635 c 0.014,0.002 0.0283,0.004 0.0403,0.005 0.0751,0.0139 0.13477,0.0167 0.20826,0.0294 l -0.0455,0.22686 c 0.014,0.002 0.0262,0.004 0.0382,0.005 0.076,0.0141 0.13693,0.0166 0.21136,0.0295 l -0.0455,0.22686 c 0.012,0.002 0.0241,0.004 0.0341,0.005 0.0773,0.0143 0.13885,0.0169 0.21446,0.03 l -0.0455,0.22582 c 0.012,0.002 0.022,0.003 0.032,0.004 0.078,0.0146 0.14066,0.0172 0.21704,0.0305 l -0.0455,0.22634 c 0.01,0.002 0.0194,0.003 0.0284,0.004 0.0793,0.0146 0.14259,0.0177 0.22014,0.031 l -0.0455,0.22583 c 0.009,0.002 0.0183,0.003 0.0253,0.003 0.0809,0.015 0.14527,0.0179 0.22427,0.0315 l -0.0455,0.22634 c 0.008,10e-4 0.0152,0.003 0.0222,0.003 0.0815,0.0151 0.14667,0.0178 0.22634,0.0315 l -0.0455,0.22634 c 0.007,0.001 0.0131,0.002 0.0191,0.003 0.0831,0.0153 0.14935,0.0181 0.23048,0.032 l -0.0455,0.22582 c 0.006,10e-4 0.011,0.002 0.016,0.002 0.0835,0.0156 0.15041,0.0185 0.23202,0.0326 l -0.0455,0.22634 c 0.005,10e-4 0.009,0.002 0.0134,0.002 0.0851,0.0158 0.15309,0.0188 0.23617,0.0331 l -0.0455,0.22583 c 0.003,0.001 0.007,0.001 0.0103,0.002 0.0857,0.0159 0.15447,0.0192 0.23822,0.0336 l -0.0455,0.22531 0.007,10e-4 c 0.0873,0.0162 0.15715,0.0195 0.24237,0.0341 l -0.0455,0.22634 0.003,5.2e-4 c 0.0884,0.0163 0.15919,0.0199 0.24546,0.0346 l -0.0455,0.22686 h 0.001 c 0.548,0.101 1.05487,0.17191 1.52187,0.21291 0.487,0.061 0.96392,0.0909 1.43092,0.0909 h 0.001 c 1.867,0 3.62286,-0.34508 5.26686,-1.03508 1.665,-0.711 3.11626,-1.67485 4.35426,-2.89284 h 10e-4 c 1.238,-1.218 2.21179,-2.63931 2.92178,-4.26331 0.731,-1.645 1.0971,-3.4009 1.0971,-5.2679 v -10.90114 h -0.20309 v -0.26096 h -0.0129 -0.19121 v -0.26097 h -0.0248 -0.17828 v -0.262 h -0.0377 -0.16588 v -0.26097 h -0.0501 -0.15297 v -0.26096 h -0.063 -0.14108 V 234.873 h -0.0749 -0.12816 v -0.26096 h -0.0879 -0.11627 v -0.26097 h -0.0997 -0.10284 v -0.26097 h -0.11317 -0.0909 v -0.26096 h -0.12506 -0.078 v -0.26097 h -0.13798 -0.0661 v -0.26096 h -0.14986 -0.0532 v -0.26097 h -0.16278 -0.0408 v -0.26148 h -0.17518 -0.0279 v -0.26097 h -0.1881 -0.016 v -0.262 h -0.19998 -0.003 v -0.26096 h -0.2036 v -0.26097 h -0.20309 v -0.26097 h -0.20309 v -0.26096 h -0.20412 v -0.26097 h -0.20309 V 230.696 h -0.2036 v -0.26097 h -0.20309 v -0.26097 h -0.20412 v -0.26096 h -0.20309 v -0.26097 h -0.20412 v -0.26096 h -0.20309 v -0.26097 h -0.20361 v -0.262 h -0.20309 v -0.26097 h -0.20412 v -0.26148 h -0.20309 v -0.26096 h -0.2036 v -0.26097 h -0.20309 v -0.26097 h -0.20412 v -0.26096 h -0.20309 v -0.26097 h -0.20412 v -0.26096 h -0.20257 v -0.26097 h -0.20412 v -0.26097 h -0.20309 v -0.26096 h -0.20309 v -0.26097 h -0.20412 v -0.262 h -0.20257 v -0.26096 h -0.20413 v -0.26097 h -0.20309 v -0.26097 h -0.20412 v -0.26096 h -0.20309 v -0.26148 h -0.2036 v -0.26097 h -0.20309 v -0.26097 h -0.20412 v -0.26096 h -0.20309 v -0.26097 h -0.20412 v -0.26096 h -0.20257 v -0.26097 h -0.20412 v -0.26097 h -0.20309 v -0.262 h -0.20413 v -0.26096 h -0.20308 v -0.26097 h -0.20361 v -0.26096 h -0.20309 v -0.26097 H 197.297 v -0.26097 h -0.20309 v -0.26096 h -0.20309 v -0.26097 h -0.2036 v -0.26096 h -0.20309 v -0.26149 h -0.20412 v -0.26096 h -0.20309 v -0.26097 h -0.20412 v -0.26096 h -0.20257 v -0.262 h -0.20412 v -0.26097 h -0.20309 v -0.26097 h -0.20413 v -0.26096 h -0.20308 v -0.26097 h -0.20361 v -0.26096 h -0.20309 v -0.26097 h -0.20412 v -0.26097 h -0.20309 v -0.26096 h -0.20412 v -0.26097 h -0.20257 v -0.26096 h -0.20412 v -0.26097 H 193.228 v -0.26148 h -0.20309 v -0.262 h -0.20412 v -0.26097 h -0.20257 v -0.26096 h -0.20412 v -0.26097 h -0.20309 v -0.26097 h -0.20413 v -0.26096 h -0.20308 v -0.26097 h -0.20361 v -0.26096 h -0.20309 v -0.26097 h -0.20412 v -0.26097 h -0.20309 v -0.26096 h -0.20412 v -0.26097 h -0.20257 v -0.26096 h -0.20412 v -0.262 h -0.20309 v -0.26097 h -0.20412 v -0.26096 h -0.20309 v -0.26149 h -0.20361 v -0.26096 h -0.20309 v -0.26097 h -0.20412 v -0.26097 h -0.20309 v -0.26096 h -0.20308 v -0.26097 h -0.20361 v -0.26096 h -0.20309 V 209.288 h -0.20412 v -0.26097 h -0.20309 v -0.26096 h -0.20412 v -0.262 h -0.20257 v -0.26097 h -0.20412 v -0.26096 h -0.20309 v -0.26097 h -0.20412 v -0.26096 h -0.20309 v -0.26097 h -0.20361 v -0.26148 h -0.20309 v -0.26097 h -0.20412 v -0.26097 h -0.20309 v -0.26096 h -0.20412 v -0.26097 h -0.20257 v -0.26096 h -0.20412 v -0.26097 h -0.20309 v -0.262 h -0.20412 v -0.26097 h -0.20309 v -0.26096 h -0.20257 v -0.26097 h -0.20412 v -0.26096 h -0.20309 v -0.26097 h -0.20412 v -0.26096 h -0.20309 v -0.26097 h -0.20361 v -0.26097 h -0.20309 v -0.26148 h -0.20412 v -0.26097 h -0.20309 v -0.26096 h -0.2036 v -0.26097 h -0.20309 v -0.262 h -0.20412 v -0.26096 h -0.20309 v -0.26097 h -0.20412 v -0.26097 h -0.20257 v -0.26096 h -0.20412 v -0.26097 h -0.20309 v -0.26096 h -0.20413 v -0.26097 h -0.20308 v -0.26097 h -0.20309 v -0.26096 h -0.20361 v -0.26097 h -0.20309 v -0.26096 h -0.20412 v -0.26149 h -0.20309 v -0.262 h -0.2036 v -0.26096 h -0.20309 v -0.26097 h -0.20412 v -0.26096 h -0.20309 v -0.26097 h -0.20412 v -0.26097 h -0.20257 v -0.26096 h -0.20412 v -0.26097 h -0.20309 v -0.26096 h -0.20413 v -0.26097 h -0.20308 v -0.26097 h -0.20361 v -0.26096 h -0.20309 v -0.26097 h -0.20412 v -0.262 h -0.20309 v -0.26096 h -0.20412 v -0.26097 h -0.20257 v -0.26096 h -0.20309 v -0.26149 h -0.20412 v -0.26096 h -0.20309 v -0.26097 h -0.20412 v -0.26097 h -0.20257 v -0.26096 h -0.20412 v -0.26097 h -0.20309 v -0.26096 h -0.20413 v -0.26097 h -0.20308 v -0.262 h -0.20361 v -0.26096 h -0.20309 v -0.26097 H 174.101 v -0.26097 h -0.20309 v -0.26096 h -0.20412 v -0.26097 h -0.20257 v -0.26096 h -0.20412 v -0.26097 h -0.20309 v -0.26148 h -0.20412 v -0.26097 h -0.20309 v -0.26097 h -0.20361 v -0.26096 h -0.20309 v -0.26097 h -0.20308 v -0.262 h -0.20413 v -0.26096 h -0.20308 v -0.26097 h -0.20361 v -0.26096 h -0.20309 v -0.26097 h -0.20412 v -0.26097 h -0.20309 v -0.26096 h -0.20412 v -0.26097 h -0.20257 v -0.26096 h -0.20412 v -0.26097 H 170.032 v -0.26097 h -0.20412 v -0.26148 h -0.20309 v -0.26097 h -0.20361 v -0.26199 h -0.20309 v -0.26097 h -0.20412 v -0.26097 h -0.20309 v -0.26096 h -0.20412 v -0.26097 h -0.20257 v -0.26096 H 168.2011 V 183.441 h -0.20412 v -0.26097 h -0.20309 v -0.26096 h -0.20412 v -0.26097 h -0.20257 v -0.26096 h -0.20412 v -0.26097 h -0.20309 v -0.26097 h -0.20412 v -0.262 h -0.20309 v -0.26096 h -0.20361 v -0.26148 h -0.20309 v -0.26097 h -0.20412 v -0.26097 h -0.20309 v -0.26096 h -0.20412 v -0.26097 h -0.20257 v -0.26096 h -0.20412 v -0.26097 h -0.20309 v -0.26097 h -0.20412 v -0.26096 h -0.20309 v -0.26097 h -0.2036 v -0.26096 h -0.20309 v -0.262 h -0.20309 v -0.26097 h -0.20412 v -0.26097 h -0.20309 v -0.26096 h -0.20361 v -0.26097 h -0.20309 v -0.26148 h -0.20412 v -0.26097 h -0.20309 v -0.26096 h -0.20412 v -0.26097 h -0.20257 v -0.26096 h -0.20412 v -0.26097 h -0.20309 v -0.26097 h -0.20412 v -0.26096 h -0.20309 v -0.262 h -0.2036 v -0.26097 h -0.20309 v -0.26096 h -0.20413 v -0.26097 h -0.20308 v -0.26097 h -0.20361 v -0.26096 h -0.20309 v -0.26097 h -0.20412 v -0.26096 h -0.20309 v -0.26149 h -0.20309 v -0.26096 h -0.2036 v -0.26097 h -0.20309 v -0.26096 h -0.20412 v -0.26097 h -0.20309 v -0.262 h -0.20412 v -0.26097 h -0.20257 v -0.26096 h -0.20412 v -0.26097 h -0.20309 v -0.26096 h -0.20413 v -0.26097 h -0.20308 v -0.26097 h -0.20361 v -0.26096 h -0.20309 v -0.26097 h -0.20412 v -0.26096 h -0.20309 v -0.26097 h -0.20412 v -0.26097 h -0.20257 v -0.26148 h -0.20412 v -0.262 h -0.20309 v -0.26096 h -0.20309 v -0.26097 h -0.20412 v -0.26097 h -0.20257 v -0.26096 h -0.20413 v -0.26097 h -0.20308 v -0.26096 h -0.20413 v -0.014 h 1.63091 l -0.076,0.20516 h 0.29972 l -0.0966,0.26096 h 0.30075 l -0.0966,0.26097 h 0.29972 l -0.0966,0.26097 h 0.30075 l -0.0971,0.262 h 0.29973 l -0.0966,0.26096 h 0.30076 l -0.0966,0.26097 h 0.29973 l -0.0966,0.26096 h 0.30076 l -0.0966,0.26097 h 0.29921 l -0.0966,0.26097 h 0.29973 l -0.0966,0.26096 h 0.30076 l -0.0966,0.26097 h 0.29973 l -0.0966,0.26096 h 0.30076 l -0.0966,0.26097 h 0.2992 l -0.0966,0.26148 h 0.29714 0.004 l -0.0966,0.26097 h 0.28319 0.0165 l -0.0966,0.26096 h 0.26923 0.0315 l -0.0966,0.262 h 0.25476 0.045 l -0.0966,0.26097 h 0.24081 0.0594 l -0.0966,0.26097 h 0.22635 0.0734 l -0.0966,0.26096 h 0.21291 0.0879 l -0.0966,0.26097 h 0.19792 0.10181 l -0.0966,0.26096 h 0.18397 0.11679 l -0.0966,0.26097 h 0.17002 0.12919 l -0.0966,0.26097 h 0.15607 0.14469 l -0.0966,0.26096 h 0.14211 0.15761 l -0.0966,0.26097 h 0.12816 0.1726 l -0.0966,0.26096 h 0.11265 0.18707 l -0.0966,0.26097 h 0.0997 0.19947 l -0.0966,0.26097 h 0.0863 0.21497 l -0.0971,0.262 h 0.0724 0.22737 l -0.0966,0.26148 h 0.0579 0.24288 l -0.0966,0.26096 h 0.0429 0.25683 l -0.0966,0.26097 h 0.03 0.27027 l -0.0966,0.26097 h 0.015 0.28474 l -0.0966,0.26096 h 0.002 7.05383 v -0.001 l 1.28933,-3.4463 h 6.32158 l 0.0202,0.0532 h 0.10645 l 0.0977,0.26097 h 0.10542 l 0.0977,0.26097 h 0.10645 l 0.0977,0.26096 h 0.10542 l 0.0977,0.26097 h 0.10594 l 0.0977,0.26096 h 0.10542 l 0.0977,0.26097 h 0.10026 0.006 l 0.0977,0.26097 h 0.0858 0.0191 l 0.0982,0.262 h 0.0718 0.0341 l 0.0977,0.26148 h 0.0574 0.0481 l 0.0977,0.26096 h 0.0439 0.0625 l 0.0977,0.26097 h 0.0289 0.0765 l 0.0977,0.26097 h 0.015 0.0915 l 0.0977,0.26096 h 0.001 7.05384 v -0.001 l -5.117,-13.83585 h 0.0444 l 0.0977,0.26097 h 0.10593 l 0.0977,0.26096 h 0.10542 l 0.0977,0.26097 h 0.10645 l 0.0977,0.26096 h 0.10542 l 0.0977,0.26097 h 0.10645 l 0.0977,0.26097 h 0.10491 l 0.0977,0.26096 h 0.10646 l 0.0977,0.26097 h 0.10542 l 0.0977,0.262 h 0.10646 l 0.0977,0.26096 h 0.10542 l 0.0977,0.26097 h 0.10491 l 0.0977,0.26097 h 0.10645 l 0.0977,0.26096 h 0.10542 l 0.0977,0.26097 h 0.10645 l 0.0977,0.26096 h 0.10542 l 0.0977,0.26149 h 0.10593 l 0.0977,0.26096 h 0.10542 l 0.0977,0.26097 h 0.10645 l 0.0977,0.26096 h 0.10542 l 0.0977,0.26097 h 0.10645 l 0.0977,0.26097 h 0.10491 l 0.0977,0.262 h 0.10646 l 0.0977,0.26096 h 0.10542 l 0.0977,0.26097 h 0.10646 l 0.0977,0.26096 h 0.10542 l 0.0977,0.26097 h 0.10594 l 0.0977,0.26097 h 0.10542 l 0.0977,0.26096 h 0.10542 l 0.0977,0.26097 h 0.10645 l 0.0977,0.26096 h 0.10542 l 0.0977,0.26097 h 0.10593 l 0.0977,0.26148 h 0.10542 l 0.0977,0.26097 h 0.10645 l 0.0977,0.26096 h 0.10542 l 0.0977,0.262 h 0.10645 l 0.0977,0.26097 h 0.10491 l 0.0977,0.26097 h 0.10646 l 0.0977,0.26096 h 0.10542 l 0.0977,0.26097 h 0.10646 l 0.0977,0.26096 h 0.10542 l 0.0977,0.26097 h 0.10594 l 0.0977,0.26097 h 0.10542 l 0.0977,0.26096 h 0.10645 l 0.0977,0.26097 h 0.10542 l 0.0977,0.26096 h 0.0971 0.009 l 0.0977,0.26097 h 0.0847 0.0202 l 0.0977,0.26097 h 0.0734 0.032 l 0.0977,0.262 h 0.062 0.0444 l 0.0977,0.26148 h 0.0491 0.0563 l 0.0977,0.26096 h 0.0377 0.0687 l 0.0977,0.26097 h 0.0248 0.0801 l 0.0977,0.26097 h 0.0134 0.093 l 0.0977,0.26096 h 10e-4 6.02289 l 0.001,-0.001 9.27799,-24.93388 h -0.002 -0.29921 l 0.0977,-0.262 h -0.016 -0.28422 l 0.0971,-0.26097 h -0.031 -0.27027 l 0.0971,-0.26148 h -0.046 -0.25425 l 0.0971,-0.26096 h -0.061 -0.2403 l 0.0971,-0.26097 h -0.076 -0.22376 l 0.0971,-0.26097 h -0.0915 -0.2098 l 0.0971,-0.26096 h -0.1049 -0.19534 l 0.0971,-0.26097 h -0.12092 -0.17932 l 0.0971,-0.26096 h -0.13591 -0.16536 l 0.0971,-0.26097 h -0.14986 -0.14986 l 0.0971,-0.26097 h -0.1664 -0.13488 l 0.0972,-0.26096 h -0.18035 -0.11989 l 0.0971,-0.26097 h -0.19586 -0.10593 l 0.0977,-0.262 h -0.20981 -0.0904 l 0.0971,-0.26096 h -0.22479 -0.076 l 0.0971,-0.26097 h -0.24029 -0.0599 l 0.0971,-0.26097 h -0.25528 -0.046 l 0.0971,-0.26096 h -0.27027 -0.03 l 0.0971,-0.26148 h -0.28473 -0.0165 l 0.0971,-0.26097 h -0.29869 -0.001 l 0.0971,-0.26097 h -0.30127 l 0.0971,-0.26096 h -0.30024 l 0.0971,-0.26097 h -0.30127 l 0.0972,-0.26096 h -0.30024 l 0.0971,-0.26097 h -0.30127 l 0.0977,-0.262 h -0.30024 l 0.0972,-0.26097 h -0.30024 l 0.0971,-0.26096 h -0.30128 l 0.0972,-0.26097 h -0.30024 l 0.0971,-0.26096 h -0.30076 l 0.0971,-0.26097 h -0.30024 l 0.0971,-0.26097 h -0.30127 l 0.0971,-0.26096 h -0.30024 l 0.0971,-0.26097 h -0.30127 l 0.0971,-0.26148 h -0.29972 l 0.0971,-0.26097 h -0.30127 l 0.0971,-0.26096 h -0.30024 l 0.0971,-0.26097 h -0.30179 l 0.0977,-0.262 h -0.30024 l 0.0971,-0.26096 h -0.30076 l 0.0971,-0.26097 h -0.30024 l 0.0972,-0.26097 h -0.30128 l 0.0971,-0.26096 h -0.30024 l 0.0972,-0.26097 h -0.30024 l 0.0971,-0.26096 h -0.30076 l 0.0971,-0.26097 h -0.30024 l 0.0971,-0.26097 h -0.30127 l 0.0971,-0.26096 h -0.30024 l 0.0971,-0.26097 h -0.30127 l 0.0971,-0.26096 h -0.29972 l 0.0971,-0.26149 h -0.30179 l 0.0977,-0.262 h -0.30024 l 0.0971,-0.26096 h -0.30127 l 0.0971,-0.26097 h -0.30024 l 0.0971,-0.26096 h -0.30076 l 0.0971,-0.26097 h -0.30024 l 0.0972,-0.26097 h -0.30128 l 0.0971,-0.26096 h -0.30024 l 0.0972,-0.26097 h -0.30128 l 0.0971,-0.26096 h -0.29972 l 0.0971,-0.26097 h -0.30127 l 0.0971,-0.26097 h -0.30024 l 0.0971,-0.26096 h -0.30024 l 0.0971,-0.26097 h -0.30179 l 0.0977,-0.262 h -0.29972 l 0.0971,-0.26096 h -0.30127 l 0.0971,-0.26097 h -0.30024 l 0.0971,-0.26097 h -0.30127 l 0.0971,-0.26148 h -0.30024 l 0.0971,-0.26096 h -0.30076 l 0.0971,-0.26097 h -0.30024 l 0.0972,-0.26097 h -0.30128 l 0.0971,-0.26096 h -0.30024 l 0.0972,-0.26097 h -0.30128 l 0.0971,-0.26096 h -0.29972 l 0.0971,-0.26097 h -0.30127 l 0.0971,-0.26097 h -0.30076 l 0.0977,-0.262 h -0.30127 l 0.0971,-0.26096 h -0.30024 l 0.0971,-0.26097 h -0.30076 l 0.0972,-0.26096 h -0.30024 l 0.0971,-0.26097 h -0.30024 l 0.0971,-0.26097 h -0.30127 l 0.0971,-0.26096 h -0.30024 l 0.0971,-0.26148 h -0.30076 l 0.0971,-0.26097 h -0.30024 l 0.0972,-0.26097 h -0.30128 l 0.0971,-0.26096 h -0.30024 l 0.0972,-0.26097 h -0.30128 l 0.0971,-0.26096 h -0.30024 l 0.0977,-0.262 h -0.30127 l 0.0971,-0.26097 h -0.30024 l 0.0971,-0.26097 h -0.30127 l 0.0971,-0.26096 h -0.30024 l 0.0971,-0.26097 H 189.113 l 0.0972,-0.26096 h -0.30024 l 0.0971,-0.26097 h -0.30128 l 0.0972,-0.26097 h -0.30024 l 0.0971,-0.26096 h -0.30024 l 0.0971,-0.26097 h -0.30076 l 0.0971,-0.26148 h -0.30024 l 0.0972,-0.26097 h -0.30179 l 0.0977,-0.262 h -0.30024 l 0.0972,-0.26096 h -0.30128 l 0.0971,-0.26097 h -0.29972 l 0.0971,-0.26096 h -0.30127 l 0.0971,-0.26097 h -0.30024 l 0.0971,-0.26097 h -0.30127 l 0.0971,-0.26096 h -0.30024 l 0.0971,-0.26097 h -0.30076 l 0.0972,-0.26096 h -0.30024 l 0.0971,-0.26097 h -0.30128 l 0.0972,-0.26097 h -0.30024 l 0.0971,-0.26096 h -0.30076 l 0.0972,-0.26097 h -0.30075 l 0.0977,-0.262 h -0.30127 l 0.0971,-0.26096 h -0.30024 l 0.0971,-0.26149 h -0.30024 l 0.0972,-0.26096 h -0.30076 l 0.0971,-0.26097 h -0.30024 l 0.0971,-0.26096 h -0.30127 l 0.0971,-0.26097 h -0.30024 l 0.0971,-0.26097 h -0.30127 l 0.0971,-0.26096 h -0.29972 l 0.0971,-0.26097 h -0.30128 l 0.0972,-0.26096 h -0.30024 l 0.0971,-0.26097 h -0.30128 l 0.0972,-0.26097 h -0.30076 l 0.0977,-0.26199 h -0.30076 l 0.0971,-0.26097 h -0.30024 l 0.0971,-0.26097 h -0.30127 l 0.0971,-0.26096 h -0.30024 l 0.0971,-0.26097 h -0.30127 l 0.0971,-0.26148 h -0.29972 l 0.0971,-0.26097 H 180.975 l 0.0971,-0.26096 h -0.30127 l 0.0971,-0.26097 h -0.30024 l 0.0971,-0.26097 h -0.30127 l 0.0971,-0.26096 h -0.29972 l 0.0971,-0.26097 h -0.30128 l 0.0972,-0.26096 h -0.30076 l 0.0977,-0.262 h -0.30128 l 0.0972,-0.26097 h -0.30024 l 0.0971,-0.26096 h -0.30076 l 0.0971,-0.26097 h -0.30024 l 0.0971,-0.26097 h -0.30127 l 0.0971,-0.26096 h -0.30024 l 0.0971,-0.26097 h -0.30127 l 0.0971,-0.26096 h -0.29972 l 0.0971,-0.26149 h -0.30127 l 0.0971,-0.26096 h -0.30024 l 0.0971,-0.26097 h -0.30127 l 0.0971,-0.26097 h -0.30024 l 0.0971,-0.26096 h -0.30024 l 0.0977,-0.262 h -0.30128 l 0.0972,-0.26097 h -0.30024 l 0.0971,-0.26096 h -0.30128 l 0.0972,-0.26097 h -0.30024 l 0.0971,-0.26096 h -0.30076 l 0.0971,-0.26097 h -0.30024 l 0.0971,-0.26097 h -0.30127 l 0.0971,-0.26096 h -0.30024 l 0.0971,-0.26097 h -0.30127 l 0.0972,-0.26096 h -0.29972 l 0.0971,-0.26097 h -0.30127 l 0.0971,-0.26097 h -0.30076 l 0.0977,-0.262 h -0.30127 l 0.0971,-0.26148 h -0.30024 l 0.0971,-0.26096 h -0.30076 l 0.0971,-0.26097 h -0.30024 l 0.0972,-0.26097 h -0.30128 l 0.0971,-0.26096 h -0.30024 l 0.0972,-0.26097 h -0.30024 l 0.0971,-0.26096 h -0.30076 l 0.0971,-0.26097 h -0.30024 l 0.0971,-0.26097 h -0.30127 l 0.0971,-0.26096 h -0.30024 l 0.0971,-0.26097 h -0.30127 l 0.0971,-0.26096 h -0.30024 l 0.0977,-0.262 h -0.30127 l 0.0971,-0.26097 h -0.30024 l 0.0971,-0.26097 h -0.30127 l 0.0971,-0.26096 h -0.30024 l 0.0971,-0.26149 h -0.30076 l 0.0971,-0.26096 h -0.30024 l 0.0972,-0.26097 h -0.30128 l 0.0971,-0.26096 h -0.30024 l 0.0972,-0.26097 h -0.30128 l 0.0971,-0.26096 h -0.29972 l 0.0971,-0.26097 h -0.30024 l 0.0971,-0.26097 h -0.30127 l 0.0971,-0.26096 h -0.30076 l 0.0977,-0.262 h -0.30127 l 0.0971,-0.26097 h -0.29972 l 0.0972,-0.260964 h -0.30127 l 0.0971,-0.260966 h -0.30024 l 0.0971,-0.260966 h -0.30127 l 0.0971,-0.260966 h -0.30024 l 0.0971,-0.260966 h -0.30076 l 0.0971,-0.261483 H 167.747 l 0.0972,-0.260966 h -0.30128 l 0.0971,-0.260966 h -0.30024 l 0.0972,-0.260966 h -0.30128 l 0.0971,-0.261483 h -0.29972 l 0.0971,-0.260966 h -0.30127 l 0.0971,-0.260966 h -0.30024 l 0.0971,-0.260966 h -0.30127 l 0.0971,-0.260966 h -0.30024 l 0.0971,-0.261482 h -0.29972 l 0.0971,-0.260966 h -0.30127 l 0.0971,-0.260966 h -0.30024 l 0.0971,-0.260966 h -0.30127 l 0.0971,-0.261483 h -0.30024 l 0.0971,-0.260966 h -0.30076 l 0.0971,-0.260966 h -0.30024 l 0.0972,-0.260966 h -0.30128 l 0.0971,-0.260966 h -0.30024 l 0.0972,-0.261483 h -0.30128 l 0.0971,-0.260966 h -0.29972 l 0.0971,-0.260966 h -0.30127 l 0.0971,-0.260966 h -0.30024 l 0.0971,-0.260966 h -0.30127 l 0.0971,-0.261482 h -0.30024 l 0.0971,-0.260966 h -0.30076 l 0.0972,-0.260966 h -0.30024 l 0.0971,-0.260966 H 162.455 l 0.0972,-0.261483 h -0.30024 l 0.0971,-0.260966 h -0.30024 l 0.0971,-0.260966 H 161.848 l 0.0971,-0.260966 h -0.30024 l 0.0972,-0.260966 h -0.30128 l 0.0971,-0.261483 h -0.30024 l 0.0972,-0.260966 h -0.30076 l 0.0971,-0.260966 h -0.30024 l 0.0971,-0.260966 h -0.30127 l 0.0971,-0.261483 h -0.30024 l 0.0971,-0.260966 h -0.30127 l 0.0971,-0.260966 h -0.29972 l 0.0971,-0.260966 h -0.30128 l 0.0972,-0.260965 h -0.30024 l 0.0971,-0.261483 h -0.30128 l 0.0972,-0.260966 h -0.30024 l 0.0971,-0.260966 h -0.30076 l 0.0971,-0.260966 h -0.30024 l 0.0971,-0.260966 h -0.30024 l 0.0972,-0.261483 h -0.30128 l 0.0971,-0.260966 h -0.30024 l 0.0972,-0.260966 h -0.30076 l 0.0971,-0.260966 H 157.779 l 0.0971,-0.261483 h -0.30127 l 0.0971,-0.260966 h -0.30024 l 0.0971,-0.260966 h -0.30127 l 0.0971,-0.260966 h -0.29972 l 0.0971,-0.260966 h -0.30128 l 0.0972,-0.261482 h -0.30024 l 0.0972,-0.260966 h -0.30128 l 0.0972,-0.260966 h -0.30024 l 0.0971,-0.260966 h -0.30076 l 0.0971,-0.261483 h -0.30024 l 0.0971,-0.260966 h -0.30127 l 0.0971,-0.260966 h -0.30024 l 0.0971,-0.260966 h -0.30127 l 0.0971,-0.260966 h -0.29972 l 0.0971,-0.261483 h -0.30024 l 0.0971,-0.260966 h -0.30127 l 0.0971,-0.260966 h -0.30024 l 0.0971,-0.260966 h -0.30127 l 0.0971,-0.260966 h -0.29972 l 0.0971,-0.261482 h -0.30128 l 0.0972,-0.260966 h -0.30024 l 0.0971,-0.260966 h -0.30128 l 0.0972,-0.260966 h -0.30024 l 0.0971,-0.261483 h -0.30076 l 0.0971,-0.260966 h -0.30024 l 0.0971,-0.260966 h -0.30127 l 0.0971,-0.260966 h -0.30024 l 0.0971,-0.260966 h -0.30127 l 0.0971,-0.261483 h -0.29972 l 0.0971,-0.260966 h -0.30127 l 0.0971,-0.260966 h -0.30024 l 0.0971,-0.260966 h -0.30024 l 0.0971,-0.261482 h -0.30127 l 0.0971,-0.260966 h -0.29972 l 0.0971,-0.260966 h -0.30128 l 0.0972,-0.260966 h -0.30024 l 0.0971,-0.260966 h -0.30128 l 0.0972,-0.261483 h -0.30024 l 0.0971,-0.260966 h -0.30076 l 0.0971,-0.260966 h -0.30024 l 0.0971,-0.260966 h -0.30127 l 0.0971,-0.260966 h -0.30024 l 0.0971,-0.261483 h -0.30127 l 0.0971,-0.260966 h -0.29972 l 0.0971,-0.260966 h -0.30127 l 0.0971,-0.260966 h -0.30024 l 0.0971,-0.261482 h -0.30127 l 0.0971,-0.260966 h -0.30024 l 0.0971,-0.260966 h -0.30076 l 0.0971,-0.260966 h -0.30024 l 0.0972,-0.260966 h -0.30024 l 0.0971,-0.261483 h -0.30128 l 0.0972,-0.260966 h -0.30024 l 0.0971,-0.260966 h -0.30076 l 0.0971,-0.260966 h -0.30024 l 0.0971,-0.261483 h -0.30127 l 0.0971,-0.260966 h -0.30024 l 0.0972,-0.260966 h -0.30127 l 0.0971,-0.260966 h -0.29972 l 0.0971,-0.260966 h -0.30127 l 0.0971,-0.261483 h -0.30024 l 0.0971,-0.260966 h -0.30127 l 0.0971,-0.260965 h -0.30024 l 0.0971,-0.260966 h -0.30076 l 0.0971,-0.260966 h -0.30024 l 0.0972,-0.261483 h -0.30128 l 0.0972,-0.260966 h -0.30024 l 0.0972,-0.260966 h -0.30128 l 0.0971,-0.260966 h -0.29972 l 0.0971,-0.261483 h -0.30024 l 0.0971,-0.260966 h -0.30127 l 0.0971,-0.260966 h -0.30024 l 0.0971,-0.260966 h -0.30127 l 0.0971,-0.260966 h -0.29972 l 0.0971,-0.261483 h -0.30127 l 0.0971,-0.260966 h -0.30024 l 0.0971,-0.260966 h -0.30127 l 0.0971,-0.260966 h -0.30024 l 0.0971,-0.261482 h -0.30076 l 0.0971,-0.260966 h -0.30024 l 0.0972,-0.260966 h -0.30128 l 0.0971,-0.260966 h -0.30024 l 0.0972,-0.260966 h -0.30128 l 0.0971,-0.261483 h -0.29972 l 0.0971,-0.260966 h -0.30127 l 0.0971,-0.260966 h -0.30024 l 0.0971,-0.260966 h -0.30024 l 0.0971,-0.260966 h -0.30127 l 0.0971,-0.261483 h -0.29972 l 0.0971,-0.260966 h -0.30127 l 0.0971,-0.260966 h -0.30024 l 0.0971,-0.260966 h -0.30127 l 0.0971,-0.261482 h -0.30024 l 0.0971,-0.260966 H 138.652 l 0.0971,-0.260966 h -0.30024 l 0.0972,-0.260966 h -0.30128 l 0.0971,-0.260966 h -0.30024 l 0.0971,-0.261483 h -0.30075 l 0.0971,-0.260966 h -0.30024 l 0.0971,-0.260966 h -0.30127 l 0.0971,-0.260966 h -0.30024 l 0.0971,-0.261483 h -0.30127 l 0.0971,-0.260966 h -0.29972 l 0.0971,-0.260966 h -0.30128 l 0.0972,-0.260966 h -0.30024 l 0.0971,-0.260966 h -0.30024 l 0.0971,-0.261482 h -0.30127 l 0.0971,-0.260966 h -0.30024 l 0.0971,-0.260966 h -0.30076 l 0.0971,-0.260966 h -0.30024 l 0.0972,-0.260966 h -0.30128 l 0.0971,-0.261483 h -0.30024 l 0.0971,-0.260966 h -0.30075 l 0.0971,-0.260966 H 134.583 l 0.0971,-0.260966 h -0.30127 l 0.0971,-0.261483 h -0.30024 l 0.0971,-0.260966 h -0.30127 l 0.0971,-0.260966 H 133.7689 L 133.866,54.7879 h -0.30128 l 0.0972,-0.260966 h -0.30024 l 0.0971,-0.261482 h -0.30128 l 0.0972,-0.260966 h -0.30024 l 0.0971,-0.260966 h -0.30076 l 0.0971,-0.260966 h -0.30024 l 0.0971,-0.260966 h -0.30024 l 0.0972,-0.261483 h -0.30128 l 0.0971,-0.260966 h -0.30024 l 0.0971,-0.260966 h -0.30075 l 0.0971,-0.260966 h -0.30024 l 0.0971,-0.261483 h -0.30127 l 0.0971,-0.260966 h -0.30024 l 0.0971,-0.260966 h -0.30127 l 0.0971,-0.260966 h -0.29972 l 0.0971,-0.260966 h -0.30128 l 0.0972,-0.261483 h -0.30024 l 0.0971,-0.260965 h -0.30128 l 0.0972,-0.260966 h -0.30024 l 0.0971,-0.260966 h -0.30076 l 0.0971,-0.261483 h -0.30024 l 0.0971,-0.260966 H 129.291 l 0.0971,-0.260966 h -0.30024 l 0.0971,-0.260966 h -0.30024 l 0.0971,-0.260966 h -0.30075 l 0.0971,-0.261483 h -0.30024 l 0.0971,-0.260966 h -0.30127 l 0.0971,-0.260966 h -0.30024 l 0.0972,-0.260966 h -0.30127 l 0.0971,-0.260966 h -0.29972 l 0.0971,-0.261483 h -0.30128 l 0.0972,-0.260966 h -0.30024 l 0.0971,-0.260966 h -0.30128 l 0.0972,-0.260966 h -0.30024 l 0.0971,-0.261482 h -0.30076 l 0.0972,-0.260966 h -0.30024 l 0.0971,-0.260966 h -0.30127 l 0.0971,-0.260966 h -0.30024 l 0.0971,-0.260966 h -0.30127 l 0.0971,-0.261483 h -0.29972 l 0.0971,-0.260966 h -0.30127 l 0.0971,-0.260966 h -0.30024 l 0.0971,-0.260966 h -0.30024 l 0.0971,-0.261483 h -0.30127 l 0.0971,-0.260966 h -0.29972 l 0.0972,-0.260966 h -0.30128 l 0.0972,-0.260966 h -0.30024 l 0.0971,-0.260966 h -0.30128 l 0.0972,-0.261482 h -0.30024 l 0.0971,-0.260966 h -0.30076 l 0.0971,-0.260966 h -0.30024 l 0.0971,-0.260966 h -0.30127 l 0.0971,-0.260966 H 122.983 l 0.0971,-0.261483 h -0.30127 l 0.0971,-0.260966 h -0.29972 l 0.0971,-0.260966 h -0.30127 l 0.0971,-0.260966 h -0.30024 l 0.0971,-0.261483 h -0.30127 l 0.0971,-0.260966 h -0.30024 l 0.0971,-0.260966 h -0.29972 l 0.0971,-0.260966 h -0.30128 l 0.0972,-0.260966 h -0.30024 l 0.0971,-0.261482 h -0.30128 l 0.0971,-0.260966 h -0.30024 l 0.0972,-0.260966 h -0.30076 l 0.0971,-0.260966 h -0.30024 l 0.0971,-0.261483 h -0.30127 l 0.0971,-0.260966 h -0.30024 l 0.0971,-0.260966 h -0.30127 l 0.0971,-0.260966 h -0.29972 l 0.0971,-0.260966 h -0.30127 l 0.0971,-0.261483 h -0.30024 l 0.0971,-0.260966 h -0.30127 l 0.0971,-0.260966 h -0.30024 l 0.0971,-0.260966 h -0.30076 l 0.0971,-0.260966 h -0.30024 l 0.0972,-0.261482 h -0.30128 l 0.0971,-0.260966 h -0.30024 l 0.0971,-0.260966 h -0.30024 l 0.0972,-0.260966 h -0.30076 l 0.0971,-0.261483 h -0.30024 l 0.0971,-0.260966 h -0.30127 l 0.0971,-0.260966 h -0.30024 l 0.0971,-0.260966 h -0.30127 l 0.0972,-0.260966 h -0.29972 l 0.0971,-0.261483 h -0.30127 l 0.0971,-0.260966 h -0.30024 l 0.0971,-0.260966 h -0.30127 l 0.0971,-0.260966 h -0.30024 l 0.0971,-0.261483 H 115.456 l 0.0971,-0.260965 h -0.30024 l 0.0972,-0.260966 h -0.30128 l 0.0971,-0.260966 h -0.30024 l 0.0972,-0.260966 h -0.30075 l 0.0971,-0.261483 h -0.30024 l 0.0971,-0.260966 h -0.30127 l 0.0972,-0.260966 h -0.30024 l 0.0971,-0.260966 h -0.30024 l 0.0971,-0.260966 h -0.30075 l 0.0971,-0.261483 h -0.30024 l 0.0971,-0.260966 h -0.30127 l 0.0971,-0.260966 h -0.30024 l 0.0971,-0.260966 h -0.30127 l 0.0971,-0.261483 h -0.30024 l 0.0971,-0.260966 h -0.30076 l 0.0972,-0.260966 h -0.30024 l 0.0972,-0.260966 h -0.30128 l 0.0971,-0.260965 h -0.30024 l 0.0971,-0.261483 h -0.30075 l 0.0971,-0.260966 H 111.387 l 0.0971,-0.260966 h -0.30127 l 0.0971,-0.260966 h -0.30024 l 0.0971,-0.261483 h -0.30127 l 0.0971,-0.260966 h -0.29972 l 0.0971,-0.260966 h -0.30076 l 0.0977,-0.260966 h -0.30127 l 0.0971,-0.260966 h -0.30076 l 0.0977,-0.261483 h -0.30127 l 0.0971,-0.260966 h -0.30024 l 0.0977,-0.260966 h -0.30128 l 0.0971,-0.260966 h -0.30075 l 0.0977,-0.260966 h -0.30179 l 0.0977,-0.261482 h -0.30024 l 0.0971,-0.260966 h -0.30075 l 0.0972,-0.260966 h -0.30024 l 0.0971,-0.260966 h -0.30076 l 0.0966,-0.261483 h -0.30024 l 0.0971,-0.260966 h -0.30076 l 0.005,-0.01189 0.092,-0.24908 h -0.30024 l 0.0232,-0.06201 0.0744,-0.198954 h -0.30128 l 0.0419,-0.112138 0.0553,-0.148828 h -0.30024 l 0.0599,-0.161747 0.0372,-0.09922 h -0.30128 l 0.0791,-0.211873 0.0181,-0.04961 h -0.30024 l 0.0971,-0.260966 h -7.472932 -0.0015 l -3.13986,8.391219 -0.01395,-0.03669 h -0.105937 l -0.09767,-0.260966 h -0.105937 l -0.09767,-0.261483 h -0.10542 l -0.09767,-0.260966 H 95.45929 l -0.09767,-0.260966 h -0.105937 l -0.09767,-0.260966 h -0.105937 l -0.09767,-0.260965 h -0.10542 l -0.09767,-0.261483 H 94.64538 l -0.09767,-0.260966 h -0.105936 l -0.09767,-0.260966 h -0.105937 l -0.09767,-0.260966 h -0.10542 l -0.09767,-0.261483 H 93.83147 L 93.7338,25.285822 h -0.105936 l -0.09767,-0.260966 h -0.105936 l -0.09767,-0.260966 h -0.10542 l -0.09767,-0.260966 h -0.105937 l -0.09767,-0.261483 h -0.105937 l -0.09767,-0.260966 h -0.105937 l -0.09767,-0.260966 h -0.10542 l -0.09767,-0.260966 H 92.20365 l -0.09767,-0.260966 h -0.10542 l -0.09819,-0.261482 h -0.10542 l -10e-4,-0.0026 -0.09715,-0.258382 h -0.10542 l -0.01085,-0.02842 -0.08682,-0.232544 h -0.105936 l -0.02015,-0.05426 -0.07752,-0.206705 h -0.105937 l -0.02997,-0.0801 -0.0677,-0.181384 H 90.98256 L 90.94329,21.78628 90.8849,21.630734 h -0.105937 l -0.04909,-0.131258 -0.04806,-0.129708 h -0.105936 l -0.05891,-0.157613 -0.03876,-0.103353 h -0.105936 l -0.06821,-0.182935 -0.02946,-0.07803 h -0.10542 l -0.07855,-0.209289 -0.01964,-0.05168 h -0.10542 l -0.08785,-0.235128 -0.0098,-0.02635 h -0.105937 l -0.09767,-0.260449 v -5.17e-4 h -7.472412 -0.0016 l 5.142322,13.772286 h -0.0062 l -0.09664,-0.260966 h -0.106971 l -0.09663,-0.260966 h -0.106971 l -0.09663,-0.260966 h -0.106453 l -0.09664,-0.260966 h -0.10697 l -0.09664,-0.261482 h -0.10697 l -0.09663,-0.260966 h -0.10697 l -0.09664,-0.260966 H 85.90225 L 85.80562,31.748466 H 85.69865 L 85.60202,31.486983 H 85.49505 L 85.39841,31.226017 H 85.29144 L 85.1948,30.965035 h -0.106454 l -0.09664,-0.260966 h -0.10697 l -0.09664,-0.260966 h -0.10697 l -0.09663,-0.261483 h -0.10697 l -0.09663,-0.260966 h -0.106453 l -0.09664,-0.260966 h -0.106971 l -0.09663,-0.260966 h -0.10697 l -0.09664,-0.260966 h -0.10697 l -0.09664,-0.261482 h -0.106453 l -0.09663,-0.260966 h -0.10697 l -0.09664,-0.260966 h -0.106971 l -0.09663,-0.260966 h -0.106971 l -0.09663,-0.261483 H 82.646635 L 82.55,27.570927 H 82.44303 L 82.3464,27.309961 H 82.23943 L 82.1428,27.048995 h -0.106971 l -0.09663,-0.260966 h -0.106454 l -0.09663,-0.261483 h -0.10697 l -0.09664,-0.260966 h -0.10697 l -0.09664,-0.260966 h -0.10697 l -0.09663,-0.260966 h -0.106454 l -0.09664,-0.261482 h -0.10697 L 80.718587,25.2212 h -0.10697 l -0.09663,-0.260966 h -0.10697 l -0.09664,-0.260966 h -0.106453 l -0.09664,-0.260966 h -0.106971 l -0.09663,-0.261483 h -0.10697 l -0.09664,-0.260966 h -0.10697 l -0.09664,-0.260966 H 79.39102 l -0.09663,-0.260966 h -0.10697 l -0.09664,-0.260966 h -0.106971 l -0.09663,-0.261483 h -0.10697 l -0.09663,-0.260966 h -0.106453 l -0.09664,-0.260966 h -0.10697 l -0.09663,-0.260966 h -0.10697 l -0.09663,-0.261483 H 77.9663 l -0.09663,-0.260966 h -0.106971 l -0.0041,-0.01137 -0.09198,-0.249597 h -0.10697 l -0.02274,-0.0615 -0.0739,-0.199471 h -0.10697 l -0.04134,-0.111622 -0.05529,-0.149344 h -0.10697 l -0.05943,-0.161231 -0.03721,-0.100252 h -0.10697 l -0.07803,-0.21084 -0.01809,-0.05013 h -0.10697 l -0.09664,-0.260966 H 70.753335 L 68.128689,27.09756 V 27.04898 H 67.925053 V 26.788029 H 67.721448 V 26.526546 H 67.518359 V 26.26558 H 67.314754 V 26.004614 H 67.111149 V 25.743648 H 66.907544 V 25.482166 H 66.704456 V 25.2212 H 66.50085 V 24.960234 H 66.297245 V 24.699268 H 66.094157 V 24.438302 H 65.890552 V 24.176819 H 65.686947 V 23.915853 H 65.483341 V 23.654887 H 65.280253 V 23.393921 H 65.076648 V 23.132955 H 64.873043 V 22.871472 H 64.669438 V 22.610506 H 64.466349 V 22.34954 H 64.262744 V 22.088574 H 64.059139 V 21.827091 H 63.855534 V 21.566125 H 63.652445 V 21.30516 H 63.44884 V 21.044194 H 63.245235 V 20.783228 H 63.04163 v -0.261483 h -0.203088 v -0.260966 h -0.203605 v -0.260966 z" /><g
     id="g2"
     transform="translate(0,0.122929)"><path
       style="fill:#f9f9f9;stroke-width:0.160865"
       d="m 44.767293,59.469755 c -0.03217,0.248113 -0.05478,0.499286 -0.05478,0.756026 v 29.302084 c 0,3.23161 2.629198,5.86063 5.860624,5.86063 h 48.607369 c 3.231464,0 5.860634,-2.62902 5.860634,-5.86063 V 60.225781 c 0,-0.25674 -0.0226,-0.507913 -0.0548,-0.756026 z"
       id="path16" /><path
       id="path5"
       style="fill:#f44336;fill-opacity:1;stroke-width:0.160865"
       d="m 50.573142,54.365671 c -2.974716,0 -5.433052,2.229204 -5.805847,5.104081 h 60.219065 c -0.37279,-2.874877 -2.83112,-5.104081 -5.805854,-5.104081 z" /><g
       id="g1"><path
         style="fill:#798388;fill-opacity:1;stroke-width:0.160865"
         d="m 49.787227,83.040591 h 14.612028 c 0.816296,0 1.477946,0.661665 1.477946,1.477946 0,0.816083 -0.661866,1.477429 -1.477946,1.477429 H 49.787227 c -0.815895,0 -1.477429,-0.661148 -1.477429,-1.477429 0,-0.816281 0.661534,-1.477946 1.477429,-1.477946 z"
         id="path29" /><path
         style="fill:#798388;fill-opacity:1;stroke-width:0.160865"
         d="m 49.787227,77.783547 h 25.239286 c 0.816084,0 1.47743,0.661146 1.47743,1.47743 0,0.81628 -0.661138,1.477946 -1.47743,1.477946 H 49.787227 c -0.815893,0 -1.477429,-0.661666 -1.477429,-1.477946 0,-0.816284 0.661536,-1.47743 1.477429,-1.47743 z"
         id="path28" /><path
         style="fill:#798388;fill-opacity:1;stroke-width:0.160865"
         d="m 63.674235,67.326821 h 1.459859 v 4.985226 h -1.459859 z"
         id="path24" /><path
         style="fill:#798388;fill-opacity:1;stroke-width:0.160865"
         d="m 59.051778,67.326821 h 1.399914 v 3.721737 h 2.586923 v 1.263489 h -3.986837 z"
         id="path23" /><path
         id="path22"
         style="fill:#798388;fill-opacity:1;stroke-width:0.160865"
         d="m 73.856559,67.183161 c -0.36312,10e-7 -0.706103,0.07015 -1.028878,0.211356 -0.322776,0.13617 -0.604899,0.325326 -0.846977,0.567408 -0.237034,0.237032 -0.426188,0.516967 -0.567407,0.839742 -0.136162,0.317726 -0.204122,0.658521 -0.204122,1.021643 0,0.363116 0.06796,0.706102 0.204122,1.028878 0.141219,0.322769 0.330373,0.602704 0.567407,0.839742 0.242078,0.237032 0.524201,0.425676 0.846977,0.56689 0.322775,0.136169 0.665758,0.204639 1.028878,0.204639 0.36312,0 0.706103,-0.06847 1.028878,-0.204639 0.32277,-0.141214 0.602702,-0.329858 0.839742,-0.56689 0.242072,-0.237038 0.431234,-0.516973 0.567407,-0.839742 0.141213,-0.322776 0.211873,-0.665762 0.211873,-1.028878 0,-0.363122 -0.07066,-0.706104 -0.211873,-1.028878 -0.136173,-0.322776 -0.325335,-0.602704 -0.567407,-0.839742 -0.23704,-0.237038 -0.516972,-0.424003 -0.839742,-0.560173 -0.322775,-0.141215 -0.665758,-0.211356 -1.028878,-0.211356 z m 0,1.368909 c 0.171472,0 0.330721,0.03534 0.476973,0.105936 0.151304,0.06556 0.279594,0.156339 0.385507,0.272335 0.11096,0.115997 0.196838,0.252417 0.257348,0.408761 0.06051,0.151296 0.09095,0.312733 0.09095,0.484208 0,0.171473 -0.03044,0.335098 -0.09095,0.491443 -0.06052,0.151295 -0.146403,0.287721 -0.257348,0.40876 -0.105913,0.115999 -0.234203,0.20896 -0.385507,0.27957 -0.146252,0.06556 -0.305501,0.0987 -0.476973,0.0987 -0.171472,0 -0.332905,-0.03313 -0.484208,-0.0987 -0.146258,-0.07061 -0.274562,-0.163572 -0.385506,-0.27957 -0.105914,-0.12104 -0.191779,-0.257465 -0.257349,-0.40876 -0.06051,-0.156345 -0.09095,-0.31997 -0.09095,-0.491443 0,-0.171475 0.03044,-0.332912 0.09095,-0.484208 0.06557,-0.156344 0.151436,-0.292764 0.257349,-0.408761 0.110944,-0.115995 0.239248,-0.206765 0.385506,-0.272335 0.151303,-0.07061 0.312736,-0.105936 0.484208,-0.105936 z" /><path
         id="path21"
         style="fill:#798388;fill-opacity:1;stroke-width:0.160865"
         d="m 55.942924,67.183161 c -0.363121,10e-7 -0.706103,0.07015 -1.028878,0.211356 -0.322774,0.13617 -0.605413,0.325326 -0.847494,0.567408 -0.237032,0.237032 -0.426192,0.516967 -0.567407,0.839742 -0.136172,0.317726 -0.204122,0.658521 -0.204122,1.021643 0,0.363116 0.06795,0.706102 0.204122,1.028878 0.141215,0.322769 0.330375,0.602704 0.567407,0.839742 0.242081,0.237032 0.52472,0.425676 0.847494,0.56689 0.322775,0.136169 0.665757,0.204639 1.028878,0.204639 0.363117,0 0.706107,-0.06847 1.028877,-0.204639 0.322775,-0.141214 0.602188,-0.329858 0.839226,-0.56689 0.242075,-0.237038 0.431236,-0.516973 0.567407,-0.839742 0.141213,-0.322776 0.211873,-0.665762 0.211873,-1.028878 0,-0.363122 -0.07066,-0.706104 -0.211873,-1.028878 -0.136171,-0.322776 -0.325332,-0.602704 -0.567407,-0.839742 -0.237038,-0.237038 -0.516451,-0.424003 -0.839226,-0.560173 -0.32277,-0.141215 -0.66576,-0.211356 -1.028877,-0.211356 z m 0,1.368909 c 0.171469,0 0.330199,0.03534 0.476456,0.105936 0.151302,0.06556 0.279597,0.156339 0.385507,0.272335 0.110949,0.115997 0.196828,0.252417 0.257348,0.408761 0.06052,0.151296 0.09095,0.312733 0.09095,0.484208 0,0.171473 -0.03043,0.335098 -0.09095,0.491443 -0.06052,0.151295 -0.146399,0.287721 -0.257348,0.40876 -0.10591,0.115999 -0.234205,0.20896 -0.385507,0.27957 -0.146257,0.06556 -0.304987,0.0987 -0.476456,0.0987 -0.171474,0 -0.332907,-0.03313 -0.484209,-0.0987 -0.146252,-0.07061 -0.275074,-0.163572 -0.386022,-0.27957 -0.105914,-0.12104 -0.191789,-0.257465 -0.257349,-0.40876 -0.06052,-0.156345 -0.09043,-0.31997 -0.09043,-0.491443 0,-0.171475 0.02991,-0.332912 0.09043,-0.484208 0.06556,-0.156344 0.151438,-0.292764 0.257349,-0.408761 0.110948,-0.115995 0.23977,-0.206765 0.386022,-0.272335 0.151302,-0.07061 0.312735,-0.105936 0.484209,-0.105936 z" /><path
         style="fill:#798388;fill-opacity:1;stroke-width:0.160865"
         d="m 65.822424,66.441604 h 5.031217 v 1.346688 l -0.105936,0.105937 h -1.611788 v 4.417818 h -1.595768 v -4.417818 h -1.611788 l -0.105937,-0.105937 z"
         id="path20" /><path
         id="path19"
         style="fill:#798388;fill-opacity:1;stroke-width:0.160865"
         d="m 48.309798,66.441604 v 5.870443 h 1.573547 v -1.823145 h 1.066602 c 0.282423,0 0.552042,-0.05325 0.809253,-0.159163 0.262249,-0.110954 0.491639,-0.259363 0.68833,-0.445968 0.201734,-0.191648 0.360975,-0.413942 0.476973,-0.666109 0.121045,-0.252168 0.181385,-0.524494 0.181385,-0.817004 0,-0.287472 -0.06034,-0.552187 -0.181385,-0.794267 -0.115998,-0.242081 -0.275239,-0.448649 -0.476973,-0.620117 -0.196691,-0.171474 -0.426081,-0.30519 -0.68833,-0.40101 -0.257211,-0.09582 -0.52683,-0.14366 -0.809253,-0.14366 z m 1.611271,1.301213 h 0.91519 c 0.09078,0 0.176648,0.0174 0.257348,0.05271 0.08069,0.03026 0.151354,0.07591 0.211874,0.136425 0.06052,0.05548 0.10836,0.120721 0.14366,0.196371 0.03531,0.07565 0.05271,0.159334 0.05271,0.250114 0,0.09078 -0.0174,0.173947 -0.05271,0.249597 -0.0353,0.07565 -0.08314,0.143602 -0.14366,0.204122 -0.06052,0.05547 -0.131184,0.100599 -0.211874,0.135909 -0.08069,0.03026 -0.166568,0.04547 -0.257348,0.04547 h -0.91519 z" /></g></g><path
     id="path1"
     style="fill:#5c6bc0;stroke-width:1.09875"
     d="m 90.467346,66.441423 c -3.640942,0 -6.592362,2.951936 -6.592362,6.592879 0,3.640931 2.95142,6.592362 6.592362,6.592362 3.64094,0 6.59236,-2.951431 6.59236,-6.592362 0,-3.640943 -2.95142,-6.592879 -6.59236,-6.592879 z m 0,15.382523 c -3.050901,0 -5.432253,0.243202 -7.217647,0.991671 -1.911551,0.80132 -3.08266,2.159845 -3.707268,4.134631 -0.230858,0.7299 0.31595,1.466577 1.073837,1.466577 h 19.694922 c 0.76099,0 1.31172,-0.739846 1.07901,-1.473811 -0.62651,-1.974897 -1.801884,-3.332816 -3.716574,-4.132048 -1.78382,-0.744623 -4.16163,-0.98702 -7.20628,-0.98702 z" /><text
     xml:space="preserve"
     transform="matrix(0.76126675,0,0,0.76126675,-57.394167,-219.48912)"
     id="text1040"
     style="font-style:normal;font-variant:normal;font-weight:normal;font-stretch:normal;font-size:40px;line-height:1.25;font-family:PRIMETIME;-inkscape-font-specification:'PRIMETIME, Normal';font-variant-ligatures:normal;font-variant-caps:normal;font-variant-numeric:normal;font-variant-east-asian:normal;letter-spacing:0px;word-spacing:0px;white-space:pre;shape-inside:url(#rect1040);fill:#ffd500;fill-opacity:1;stroke:none"><tspan
       x="128.77148"
       y="458.12891"
       id="tspan2">OZJ</tspan></text><text
     xml:space="preserve"
     transform="matrix(0.80541237,0,0,0.80541237,-58.475364,-41.880713)"
     id="text3057"
     style="font-style:normal;font-variant:normal;font-weight:normal;font-stretch:normal;font-size:40px;line-height:1.25;font-family:PRIMETIME;-inkscape-font-specification:'PRIMETIME, Normal';font-variant-ligatures:normal;font-variant-caps:normal;font-variant-numeric:normal;font-variant-east-asian:normal;letter-spacing:0px;word-spacing:0px;white-space:pre;shape-inside:url(#rect3058);fill:#ffd500;fill-opacity:1;stroke:none"><tspan
       x="124.65039"
       y="107.87109"
       id="tspan4">FAV</tspan></text></svg>
