<?xml version="1.0" encoding="UTF-8" standalone="no"?>
<!-- Created with Inkscape (http://www.inkscape.org/) -->

<svg
   width="67.73333mm"
   height="67.733368mm"
   viewBox="0 0 67.733327 67.733365"
   version="1.1"
   id="svg1"
   xml:space="preserve"
   sodipodi:docname="ENG2.svg"
   inkscape:version="1.3 (0e150ed6c4, 2023-07-21)"
   xmlns:inkscape="http://www.inkscape.org/namespaces/inkscape"
   xmlns:sodipodi="http://sodipodi.sourceforge.net/DTD/sodipodi-0.dtd"
   xmlns="http://www.w3.org/2000/svg"
   xmlns:svg="http://www.w3.org/2000/svg"><sodipodi:namedview
     id="namedview1"
     pagecolor="#ffffff"
     bordercolor="#999999"
     borderopacity="1"
     inkscape:showpageshadow="2"
     inkscape:pageopacity="0"
     inkscape:pagecheckerboard="0"
     inkscape:deskcolor="#d1d1d1"
     inkscape:document-units="mm"
     inkscape:zoom="1.8220149"
     inkscape:cx="200.05325"
     inkscape:cy="162.18309"
     inkscape:window-width="1920"
     inkscape:window-height="1001"
     inkscape:window-x="-9"
     inkscape:window-y="-9"
     inkscape:window-maximized="1"
     inkscape:current-layer="svg1" /><defs
     id="defs1"><rect
       x="128.7717"
       y="414.12979"
       width="302.87103"
       height="109.1984"
       id="rect1040" /><rect
       x="124.651"
       y="63.870762"
       width="290.50894"
       height="105.07771"
       id="rect3058" /></defs><path
     id="rect1-3"
     style="fill:#9574cd;fill-opacity:1;stroke-width:0.133494"
     d="M 0,0 H 67.73332 V 67.733329 H 0 Z"
     inkscape:export-filename="..\eng\ENG1.svg"
     inkscape:export-xdpi="347.36404"
     inkscape:export-ydpi="347.36404" /><path
     id="path34"
     style="fill:#000001;fill-opacity:0.247059;stroke-width:0.0727587"
     d="M 19.65957,9.0458516 19.426306,9.2791151 V 20.353283 l 4.291766,4.291766 H 22.87407 c -1.345451,0 -2.457352,1.008266 -2.625966,2.308559 -0.01455,0.112221 -0.02478,0.225826 -0.02478,0.341949 v 13.253241 c 0,0.36541 0.0744,0.713732 0.208722,1.030752 0.06716,0.15851 0.149348,0.309123 0.244716,0.450166 0.04313,0.0638 0.09795,0.117944 0.146316,0.177635 0.05858,0.07229 0.111671,0.149303 0.177402,0.215033 l 4.877962,4.877962 0.402719,0.40272 c -0.483628,-0.137254 -0.98609,-0.211996 -1.511304,-0.211996 -0.789633,0 -1.528774,0.15161 -2.217404,0.454608 -0.344318,0.146906 -0.666899,0.321348 -0.967647,0.523321 -0.300742,0.201896 -0.57967,0.431211 -0.836756,0.688342 v 2.3e-4 c -0.514179,0.505003 -0.922685,1.10199 -1.225684,1.790612 -0.146909,0.34432 -0.257019,0.700182 -0.330496,1.067452 -0.03674,0.183632 -0.06437,0.369974 -0.08274,0.559315 v 2.35e-4 c -0.01836,0.189295 -0.02757,0.381349 -0.02758,0.57638 v 2.35e-4 c 8e-6,0.195084 0.0092,0.387288 0.02758,0.576615 v 2.31e-4 c 0.05511,0.568044 0.192924,1.110352 0.413236,1.626766 0.07574,0.172145 0.158143,0.338753 0.247053,0.499951 0.266812,0.483772 0.593002,0.918561 0.978631,1.304221 6.71e-4,6.56e-4 0.0014,0.0012 0.0021,0.0019 L 31.32203,67.733365 H 67.733333 V 28.501374 L 48.307027,9.0750677 H 44.926343 L 43.736185,12.256379 40.554874,9.0750677 h -3.380449 l 1.47601,3.9530903 -3.982306,-3.9823064 H 32.001494 L 31.010241,11.726511 28.329582,9.0458516 Z" /><path
     style="fill:#f9f9f9;stroke-width:0.0727587"
     d="m 20.248104,26.953581 c -0.01455,0.112221 -0.02478,0.225825 -0.02478,0.341948 v 13.253239 c 0,1.461647 1.189178,2.650744 2.650742,2.650744 h 21.984957 c 1.461581,0 2.650747,-1.189097 2.650747,-2.650744 V 27.295529 c 0,-0.116123 -0.01022,-0.229727 -0.02479,-0.341948 z"
     id="path16" /><path
     id="path5"
     style="fill:#f44336;fill-opacity:1;stroke-width:0.0727587"
     d="m 22.874071,24.64502 c -1.345455,0 -2.457352,1.008262 -2.625966,2.308559 H 47.484996 C 47.316384,25.653282 46.204489,24.64502 44.859026,24.64502 Z" /><path
     style="fill:#798388;fill-opacity:1;stroke-width:0.0727587"
     d="m 22.518604,37.614595 h 6.608974 c 0.369208,0 0.66847,0.299269 0.66847,0.66847 0,0.369112 -0.29936,0.668236 -0.66847,0.668236 h -6.608974 c -0.369027,0 -0.668236,-0.299035 -0.668236,-0.668236 0,-0.369201 0.299209,-0.66847 0.668236,-0.66847 z"
     id="path29" /><path
     style="fill:#798388;fill-opacity:1;stroke-width:0.0727587"
     d="m 22.518604,35.236851 h 11.415648 c 0.369113,0 0.668237,0.299034 0.668237,0.668236 0,0.369201 -0.29903,0.668471 -0.668237,0.668471 H 22.518604 c -0.369026,0 -0.668236,-0.29927 -0.668236,-0.668471 0,-0.369202 0.29921,-0.668236 0.668236,-0.668236 z"
     id="path28" /><path
     style="fill:#798388;fill-opacity:1;stroke-width:0.0727587"
     d="m 28.799653,30.507307 h 0.66029 v 2.254802 h -0.66029 z"
     id="path24" /><path
     style="fill:#798388;fill-opacity:1;stroke-width:0.0727587"
     d="m 26.708931,30.507307 h 0.633176 v 1.68333 h 1.170057 v 0.571472 h -1.803233 z"
     id="path23" /><path
     id="path22"
     style="fill:#798388;fill-opacity:1;stroke-width:0.0727587"
     d="m 33.405086,30.44233 c -0.164238,0 -0.319368,0.03173 -0.465358,0.0956 -0.145991,0.06159 -0.273594,0.147144 -0.383085,0.256637 -0.10721,0.107209 -0.192764,0.233823 -0.256637,0.379813 -0.06159,0.143706 -0.09232,0.297847 -0.09232,0.462086 0,0.164236 0.03074,0.319367 0.09232,0.465358 0.06387,0.145987 0.149427,0.272601 0.256637,0.379813 0.109491,0.107208 0.237094,0.192532 0.383085,0.256402 0.14599,0.06159 0.30112,0.09256 0.465358,0.09256 0.164238,0 0.319368,-0.03097 0.465358,-0.09256 0.145988,-0.06387 0.2726,-0.149194 0.379813,-0.256402 0.109488,-0.107212 0.195046,-0.233826 0.256636,-0.379813 0.06387,-0.145991 0.09583,-0.301122 0.09583,-0.465358 0,-0.164239 -0.03196,-0.319369 -0.09583,-0.465358 -0.06159,-0.145991 -0.147148,-0.272602 -0.256636,-0.379813 -0.107213,-0.107212 -0.233825,-0.191775 -0.379813,-0.253365 -0.14599,-0.06387 -0.30112,-0.0956 -0.465358,-0.0956 z m 0,0.619153 c 0.07756,0 0.149584,0.01598 0.215733,0.04791 0.06844,0.02965 0.12646,0.07071 0.174364,0.123177 0.05019,0.05247 0.08903,0.114167 0.116398,0.184881 0.02737,0.06843 0.04114,0.141448 0.04114,0.219006 0,0.07756 -0.01377,0.151564 -0.04114,0.222278 -0.02737,0.06843 -0.06622,0.130135 -0.116398,0.184881 -0.0479,0.05247 -0.105929,0.09451 -0.174364,0.126448 -0.06615,0.02965 -0.138177,0.04464 -0.215733,0.04464 -0.07756,0 -0.150572,-0.01498 -0.219006,-0.04464 -0.06615,-0.03194 -0.124183,-0.07398 -0.174363,-0.126448 -0.0479,-0.05475 -0.08674,-0.116451 -0.116398,-0.184881 -0.02737,-0.07071 -0.04114,-0.144722 -0.04114,-0.222278 0,-0.07756 0.01377,-0.150575 0.04114,-0.219006 0.02966,-0.07071 0.06849,-0.132416 0.116398,-0.184881 0.05018,-0.05246 0.108211,-0.09352 0.174363,-0.123177 0.06843,-0.03194 0.14145,-0.04791 0.219006,-0.04791 z" /><path
     id="path21"
     style="fill:#798388;fill-opacity:1;stroke-width:0.0727587"
     d="m 25.302806,30.44233 c -0.164238,0 -0.319368,0.03173 -0.465358,0.0956 -0.14599,0.06159 -0.273827,0.147144 -0.383319,0.256637 -0.107209,0.107209 -0.192765,0.233823 -0.256636,0.379813 -0.06159,0.143706 -0.09232,0.297847 -0.09232,0.462086 0,0.164236 0.03073,0.319367 0.09232,0.465358 0.06387,0.145987 0.149427,0.272601 0.256636,0.379813 0.109492,0.107208 0.237329,0.192532 0.383319,0.256402 0.14599,0.06159 0.30112,0.09256 0.465358,0.09256 0.164237,0 0.31937,-0.03097 0.465358,-0.09256 0.14599,-0.06387 0.272368,-0.149194 0.379579,-0.256402 0.10949,-0.107212 0.195047,-0.233826 0.256636,-0.379813 0.06387,-0.145991 0.09583,-0.301122 0.09583,-0.465358 0,-0.164239 -0.03196,-0.319369 -0.09583,-0.465358 -0.06159,-0.145991 -0.147146,-0.272602 -0.256636,-0.379813 -0.107211,-0.107212 -0.233589,-0.191775 -0.379579,-0.253365 -0.145988,-0.06387 -0.301121,-0.0956 -0.465358,-0.0956 z m 0,0.619153 c 0.07756,0 0.149348,0.01598 0.2155,0.04791 0.06843,0.02965 0.12646,0.07071 0.174363,0.123177 0.05018,0.05247 0.08903,0.114167 0.116398,0.184881 0.02737,0.06843 0.04114,0.141448 0.04114,0.219006 0,0.07756 -0.01376,0.151564 -0.04114,0.222278 -0.02737,0.06843 -0.06622,0.130135 -0.116398,0.184881 -0.0479,0.05247 -0.10593,0.09451 -0.174363,0.126448 -0.06615,0.02965 -0.137945,0.04464 -0.2155,0.04464 -0.07756,0 -0.150573,-0.01498 -0.219006,-0.04464 -0.06615,-0.03194 -0.124415,-0.07398 -0.174597,-0.126448 -0.0479,-0.05475 -0.08675,-0.116451 -0.116398,-0.184881 -0.02737,-0.07071 -0.0409,-0.144722 -0.0409,-0.222278 0,-0.07756 0.01353,-0.150575 0.0409,-0.219006 0.02965,-0.07071 0.06849,-0.132416 0.116398,-0.184881 0.05018,-0.05246 0.108448,-0.09352 0.174597,-0.123177 0.06843,-0.03194 0.141449,-0.04791 0.219006,-0.04791 z" /><path
     style="fill:#798388;fill-opacity:1;stroke-width:0.0727587"
     d="m 29.771272,30.106926 h 2.275604 v 0.609103 l -0.04791,0.04791 H 31.26996 v 1.998165 h -0.721761 v -1.998165 h -0.729007 l -0.04791,-0.04791 z"
     id="path20" /><path
     id="path19"
     style="fill:#798388;fill-opacity:1;stroke-width:0.0727587"
     d="m 21.850368,30.106926 v 2.655183 h 0.71171 v -0.824603 h 0.48242 c 0.12774,0 0.249687,-0.02408 0.366023,-0.07199 0.118614,-0.05018 0.222367,-0.117309 0.311329,-0.20171 0.09124,-0.08668 0.163268,-0.187225 0.215734,-0.301279 0.05475,-0.114055 0.08204,-0.237227 0.08204,-0.369528 0,-0.130023 -0.02729,-0.249753 -0.08204,-0.359245 -0.05247,-0.109492 -0.12449,-0.202922 -0.215734,-0.280477 -0.08896,-0.07756 -0.192715,-0.138036 -0.311329,-0.181375 -0.116336,-0.04334 -0.238283,-0.06498 -0.366023,-0.06498 z m 0.728772,0.588534 h 0.413938 c 0.04106,0 0.0799,0.0079 0.116397,0.02384 0.0365,0.01369 0.06846,0.03433 0.09583,0.0617 0.02737,0.02509 0.04901,0.0546 0.06498,0.08882 0.01597,0.03422 0.02384,0.07207 0.02384,0.113125 0,0.04106 -0.0079,0.07868 -0.02384,0.112892 -0.01597,0.03422 -0.0376,0.06495 -0.06498,0.09232 -0.02737,0.02509 -0.05933,0.0455 -0.09583,0.06147 -0.03649,0.01369 -0.07534,0.02057 -0.116397,0.02057 H 22.57914 Z" /><path
     id="path1"
     style="fill:#5c6bc0;stroke-width:0.496961"
     d="m 40.918092,30.051244 c -1.646786,0 -2.981704,1.335151 -2.981704,2.981938 0,1.646781 1.334918,2.981704 2.981704,2.981704 1.646786,0 2.981703,-1.334923 2.981703,-2.981704 0,-1.646787 -1.334917,-2.981938 -2.981703,-2.981938 z m 0,6.957466 c -1.379913,0 -2.456991,0.109999 -3.264519,0.448529 -0.864588,0.362435 -1.394277,0.976891 -1.676785,1.870081 -0.104417,0.330131 0.142903,0.663328 0.485693,0.663328 h 8.90795 c 0.344194,0 0.593287,-0.33463 0.488033,-0.6666 -0.283368,-0.89324 -0.814986,-1.507422 -1.680995,-1.868912 -0.806816,-0.336791 -1.882292,-0.446426 -3.259377,-0.446426 z" /><path
     style="font-size:40px;line-height:1.25;font-family:PRIMETIME;-inkscape-font-specification:'PRIMETIME, Normal';letter-spacing:0px;word-spacing:0px;white-space:pre;fill:#ffd500;stroke-width:0.344319"
     d="m 48.651702,52.711035 q 0,1.267092 -0.495819,2.382684 -0.482046,1.101819 -1.322183,1.928184 -0.840137,0.826364 -1.969502,1.30841 -1.115592,0.468273 -2.382684,0.468273 -0.316773,0 -0.647319,-0.04132 -0.316773,-0.02755 -0.688637,-0.09641 l 0.55091,-2.740775 q 0.206591,0.04132 0.371864,0.05509 0.165273,0.01377 0.316773,0.01377 0.70241,0 1.322183,-0.261682 0.633546,-0.275455 1.101819,-0.729955 0.468273,-0.454501 0.729955,-1.074274 0.275455,-0.619773 0.275455,-1.322183 v -4.820459 h 2.837185 z"
     id="path8" /><path
     style="font-size:40px;line-height:1.25;font-family:PRIMETIME;-inkscape-font-specification:'PRIMETIME, Normal';letter-spacing:0px;word-spacing:0px;white-space:pre;fill:#ffd500;stroke-width:0.344319"
     d="m 31.215408,58.468041 v -0.482046 l 4.159368,-7.464826 h -4.476141 v -2.740775 h 8.883418 v 0.482046 l -4.159367,7.464825 h 4.255777 v 2.740776 z"
     id="path7" /><path
     id="text1040"
     style="font-size:40px;line-height:1.25;font-family:PRIMETIME;-inkscape-font-specification:'PRIMETIME, Normal';letter-spacing:0px;word-spacing:0px;white-space:pre;fill:#ffd500;stroke-width:0.344319"
     d="m 24.769862,47.49107 c -0.789636,0 -1.528771,0.151607 -2.217404,0.454607 -0.688637,0.293817 -1.29022,0.697713 -1.804405,1.211894 -0.514181,0.505002 -0.922684,1.101978 -1.225684,1.790612 -0.293818,0.688637 -0.440814,1.423161 -0.440814,2.203614 0,0.780457 0.146996,1.514981 0.440814,2.203618 0.303,0.688634 0.711503,1.289986 1.225684,1.804167 0.514185,0.504998 1.115768,0.904518 1.804405,1.198339 0.688633,0.293817 1.427768,0.440583 2.217404,0.440583 0.780453,0 1.514978,-0.146766 2.203615,-0.440583 0.697816,-0.293821 1.303775,-0.693341 1.817957,-1.198339 0.514181,-0.514181 0.918077,-1.115533 1.211894,-1.804167 0.303,-0.688637 0.454607,-1.423161 0.454607,-2.203618 0,-0.780453 -0.151607,-1.514977 -0.454607,-2.203614 -0.293817,-0.688634 -0.697713,-1.28561 -1.211894,-1.790612 -0.514182,-0.514181 -1.120141,-0.918077 -1.817957,-1.211894 -0.688637,-0.303 -1.423162,-0.454607 -2.203615,-0.454607 z m 0,2.727171 c 0.403999,0 0.77587,0.08248 1.115596,0.247758 0.348908,0.15609 0.647281,0.367371 0.89519,0.633642 0.247909,0.266272 0.440755,0.578469 0.578483,0.936561 0.14691,0.348908 0.220174,0.720779 0.220174,1.115595 0,0.385637 -0.07326,0.757508 -0.220174,1.115599 -0.137728,0.358091 -0.330574,0.670288 -0.578483,0.93656 -0.247909,0.266272 -0.546282,0.481929 -0.89519,0.647202 -0.339726,0.15609 -0.711597,0.234195 -1.115596,0.234195 -0.404003,0 -0.78048,-0.07811 -1.129389,-0.234195 -0.339725,-0.165273 -0.633725,-0.38093 -0.881631,-0.647202 -0.247909,-0.266272 -0.445131,-0.578469 -0.592042,-0.93656 -0.137727,-0.358091 -0.206618,-0.729962 -0.206618,-1.115599 0,-0.394816 0.06889,-0.766687 0.206618,-1.115595 0.146911,-0.358092 0.344133,-0.670289 0.592042,-0.936561 0.247906,-0.266271 0.541906,-0.477552 0.881631,-0.633642 0.348909,-0.165273 0.725386,-0.247758 1.129389,-0.247758 z" /><path
     style="font-size:40px;line-height:1.25;font-family:PRIMETIME;-inkscape-font-specification:'PRIMETIME, Normal';letter-spacing:0px;word-spacing:0px;white-space:pre;fill:#ffd500;stroke-width:0.364285"
     d="M 44.110362,20.353355 H 41.385507 L 37.174367,9.0750793 h 3.380569 l 2.185713,5.8431387 2.185713,-5.8431387 h 3.380568 z"
     id="path4" /><path
     id="path2"
     style="font-size:40px;line-height:1.25;font-family:PRIMETIME;-inkscape-font-specification:'PRIMETIME, Normal';letter-spacing:0px;word-spacing:0px;white-space:pre;fill:#ffd500;stroke-width:0.364285"
     d="M 32.001492,9.0458515 27.819583,20.353282 h 3.191126 l 0.582925,-1.558985 h 3.482354 l 0.582926,1.558985 H 38.85004 L 34.668131,9.0458515 Z m 1.340683,4.1384385 0.888879,2.98708 h -1.792485 z" /><path
     style="font-size:40px;line-height:1.25;font-family:PRIMETIME;-inkscape-font-specification:'PRIMETIME, Normal';letter-spacing:0px;word-spacing:0px;white-space:pre;fill:#ffd500;stroke-width:0.364285"
     d="m 22.442671,11.829077 v 1.544571 h 5.187425 v 2.753997 h -5.187425 v 4.22571 H 19.426388 V 9.2790791 L 19.65953,9.0459364 h 8.669994 v 2.7831406 z"
     id="text3057" /></svg>
