<?xml version="1.0" encoding="UTF-8" standalone="no"?>
<!-- Created with Inkscape (http://www.inkscape.org/) -->

<svg
   width="149.75414mm"
   height="149.75417mm"
   viewBox="0 0 149.75413 149.75416"
   version="1.1"
   id="svg1"
   xml:space="preserve"
   sodipodi:docname="template-matricole-a.svg"
   xmlns:inkscape="http://www.inkscape.org/namespaces/inkscape"
   xmlns:sodipodi="http://sodipodi.sourceforge.net/DTD/sodipodi-0.dtd"
   xmlns="http://www.w3.org/2000/svg"
   xmlns:svg="http://www.w3.org/2000/svg"><sodipodi:namedview
     id="namedview1"
     pagecolor="#ffffff"
     bordercolor="#999999"
     borderopacity="1"
     inkscape:showpageshadow="2"
     inkscape:pageopacity="0"
     inkscape:pagecheckerboard="0"
     inkscape:deskcolor="#d1d1d1"
     inkscape:document-units="mm"
     inkscape:zoom="0.9707102"
     inkscape:cx="345.10815"
     inkscape:cy="445.55007"
     inkscape:window-width="1920"
     inkscape:window-height="991"
     inkscape:window-x="-9"
     inkscape:window-y="-9"
     inkscape:window-maximized="1"
     inkscape:current-layer="svg1" /><defs
     id="defs1"><rect
       x="128.7717"
       y="414.12979"
       width="302.87103"
       height="109.1984"
       id="rect1040" /><rect
       x="124.651"
       y="63.870762"
       width="290.50894"
       height="105.07771"
       id="rect3058" /></defs><path
     id="rect1-3"
     style="fill:#9574cd;fill-opacity:1;stroke-width:0.295148"
     d="M 0,0 H 149.75414 V 149.75416 H 0 Z"
     inkscape:export-filename="..\eng\ENG3.png"
     inkscape:export-xdpi="347.36404"
     inkscape:export-ydpi="347.36404" /><path
     id="path4070"
     style="font-size:40px;line-height:1.25;font-family:PRIMETIME;-inkscape-font-specification:'PRIMETIME, Normal';letter-spacing:0px;word-spacing:0px;white-space:pre;fill:#000000;fill-opacity:0.31;stroke-width:0.805412"
     d="m 52.084676,19.999813 c -1.745898,0 -3.379945,0.335207 -4.902543,1.005106 -1.522499,0.6496 -2.852105,1.542625 -3.988904,2.679423 -1.136799,1.116599 -2.040529,2.436333 -2.710429,3.958932 -0.649599,1.522498 -0.9741,3.146556 -0.9741,4.872054 0,1.725598 0.324501,3.349556 0.9741,4.872054 0.520829,1.183702 1.187429,2.247191 1.990576,3.197738 0.06991,0.08729 0.139173,0.175037 0.211357,0.260449 0.06945,0.08672 0.138107,0.174042 0.209806,0.258899 0.06974,0.08709 0.138833,0.17472 0.21084,0.259932 0.07035,0.08783 0.140255,0.176074 0.212907,0.262 0.06878,0.08582 0.136761,0.172312 0.207739,0.256315 0.0699,0.08728 0.139182,0.175047 0.211357,0.260449 0.06945,0.08671 0.138107,0.174042 0.209806,0.258899 0.07058,0.08813 0.140523,0.176818 0.213424,0.263033 0.06884,0.08591 0.137204,0.172233 0.208256,0.256315 0.06959,0.08689 0.138472,0.174388 0.210323,0.259416 0.07027,0.08774 0.139815,0.17616 0.21239,0.261999 0.06824,0.08517 0.13578,0.170873 0.206189,0.254248 0.07109,0.08882 0.141523,0.178225 0.214974,0.2651 0.06899,0.0861 0.137566,0.172567 0.208773,0.256832 0.06959,0.08689 0.138472,0.17439 0.210323,0.259416 0.07027,0.08774 0.139815,0.17616 0.21239,0.262 0.06824,0.08517 0.135776,0.170873 0.206189,0.254248 0.07109,0.08882 0.141523,0.178224 0.214974,0.2651 0.06899,0.0861 0.137566,0.172566 0.208773,0.256832 0.07035,0.08783 0.140255,0.176073 0.212907,0.261999 0.06893,0.08602 0.137115,0.172645 0.208256,0.256832 0.07035,0.08784 0.140246,0.176064 0.212907,0.261999 0.06879,0.08584 0.13675,0.172293 0.207739,0.256316 0.06899,0.08615 0.137043,0.173027 0.208256,0.257348 0.07109,0.08882 0.141525,0.178227 0.214974,0.2651 0.06899,0.0861 0.137565,0.172566 0.208773,0.256832 0.07027,0.08774 0.139815,0.17616 0.21239,0.262 0.06824,0.08517 0.135775,0.170873 0.206189,0.254248 0.07117,0.08892 0.141954,0.178128 0.215491,0.2651 0.06893,0.08602 0.137115,0.172645 0.208256,0.256832 0.07043,0.08794 0.140161,0.176485 0.212906,0.262516 0.06884,0.08591 0.137205,0.172233 0.208256,0.256315 0.06944,0.0867 0.138117,0.174053 0.209807,0.258899 0.0699,0.08728 0.139181,0.17505 0.211356,0.260449 0.06945,0.08671 0.138108,0.174045 0.209807,0.258899 0.0705,0.08804 0.140602,0.17639 0.213423,0.262516 0.06893,0.08602 0.137116,0.172645 0.208256,0.256832 0.06944,0.0867 0.138117,0.174053 0.209807,0.258899 0.07043,0.08795 0.140161,0.176475 0.212907,0.262516 0.06824,0.08517 0.135775,0.170874 0.206189,0.254249 0.07109,0.08882 0.141523,0.178224 0.214974,0.2651 0.06899,0.0861 0.137565,0.172566 0.208772,0.256831 0.07035,0.08783 0.140255,0.176074 0.212907,0.262 0.06878,0.08582 0.136761,0.172312 0.207739,0.256315 0.069,0.08615 0.137044,0.173029 0.208257,0.257349 0.07109,0.08882 0.141522,0.178229 0.214973,0.2651 0.06899,0.0861 0.13757,0.172566 0.208773,0.256832 0.07035,0.08783 0.140255,0.176073 0.212907,0.261999 0.06877,0.08583 0.136763,0.17231 0.207739,0.256315 0.07043,0.08795 0.140162,0.176475 0.212907,0.262517 0.06824,0.08517 0.135776,0.170873 0.206189,0.254248 0.07026,0.08778 0.139825,0.176117 0.21239,0.261999 0.07049,0.08802 0.140617,0.176407 0.213424,0.262516 0.06893,0.08601 0.137115,0.172648 0.208256,0.256832 0.07027,0.08774 0.139815,0.176163 0.21239,0.262 0.06824,0.08516 0.135776,0.170877 0.206189,0.254248 0.07118,0.08892 0.141954,0.178133 0.215491,0.2651 0.06893,0.08602 0.137119,0.172645 0.208256,0.256832 0.07043,0.08794 0.140161,0.176485 0.212907,0.262516 0.06869,0.08572 0.136853,0.171898 0.207739,0.255798 0.0696,0.08691 0.138463,0.174368 0.210323,0.259416 0.0699,0.08728 0.139184,0.175048 0.211357,0.260449 0.06945,0.08671 0.138107,0.174045 0.209806,0.258899 0.07058,0.08813 0.140523,0.176821 0.213424,0.263033 0.06869,0.08571 0.136849,0.171901 0.207739,0.255799 0.07051,0.08805 0.140592,0.176383 0.213424,0.262516 0.06818,0.08508 0.135325,0.170956 0.205672,0.254248 0.07026,0.08779 0.139825,0.176117 0.21239,0.261999 0.07049,0.08803 0.14062,0.176407 0.213424,0.262517 0.06893,0.08601 0.137115,0.172645 0.208256,0.256832 0.07035,0.08784 0.14025,0.176064 0.212907,0.261999 0.06879,0.08584 0.136745,0.172293 0.207739,0.256315 0.0699,0.08729 0.139175,0.17504 0.211356,0.260449 0.06945,0.08671 0.138108,0.174045 0.209807,0.258899 0.06974,0.08708 0.138835,0.174723 0.21084,0.259933 0.07027,0.08774 0.139815,0.176164 0.21239,0.261999 0.06885,0.08592 0.137196,0.172218 0.208256,0.256315 0.0699,0.08728 0.139181,0.175048 0.211356,0.26045 0.06945,0.08671 0.138108,0.174042 0.209807,0.258899 0.07058,0.08813 0.140522,0.176818 0.213423,0.263033 0.06884,0.0859 0.137205,0.172233 0.208256,0.256315 0.06944,0.0867 0.138121,0.174052 0.209807,0.258899 0.07043,0.08795 0.140161,0.176477 0.212907,0.262516 0.06824,0.08517 0.135779,0.170875 0.206189,0.254248 0.07109,0.08882 0.141523,0.178227 0.214974,0.2651 0.06899,0.0861 0.137567,0.172568 0.208772,0.256832 0.07043,0.08794 0.140162,0.17649 0.212907,0.262516 0.06869,0.08571 0.136852,0.171902 0.207739,0.255799 0.069,0.08615 0.137044,0.173027 0.208257,0.257348 0.07109,0.08882 0.141522,0.178225 0.214973,0.2651 0.06899,0.0861 0.137566,0.172567 0.208773,0.256832 0.07035,0.08783 0.140255,0.176076 0.212907,0.262 0.06877,0.08582 0.136765,0.172312 0.207739,0.256315 0.07051,0.08805 0.140593,0.176381 0.213424,0.262516 0.06818,0.08508 0.13533,0.170954 0.205672,0.254248 0.07026,0.08778 0.139825,0.17612 0.21239,0.262 0.07049,0.08802 0.140619,0.17641 0.213424,0.262516 0.06878,0.08582 0.13676,0.172314 0.207739,0.256315 0.07043,0.08795 0.140164,0.176475 0.212907,0.262516 0.06825,0.08517 0.135776,0.170874 0.206189,0.254248 0.07117,0.08892 0.141956,0.178129 0.215491,0.2651 0.06893,0.08601 0.137115,0.172648 0.208256,0.256832 0.06975,0.08708 0.138827,0.174725 0.21084,0.259933 0.07013,0.08756 0.139447,0.175816 0.211873,0.261483 0.06885,0.08592 0.137196,0.172215 0.208256,0.256315 0.06989,0.08728 0.139186,0.175049 0.211357,0.260449 0.06945,0.08671 0.138107,0.174046 0.209806,0.258899 0.07058,0.08813 0.140527,0.176823 0.213424,0.263033 0.06869,0.08572 0.136849,0.171898 0.207739,0.255798 0.07051,0.08805 0.140595,0.176379 0.213424,0.262516 0.06818,0.08508 0.135325,0.170953 0.205672,0.254248 0.07026,0.08778 0.139827,0.17612 0.21239,0.262 0.07049,0.08802 0.140616,0.176409 0.213424,0.262516 0.06893,0.08601 0.137115,0.172647 0.208256,0.256832 0.07035,0.08784 0.14025,0.176066 0.212907,0.262 0.06818,0.08508 0.135325,0.170954 0.205672,0.254248 0.07117,0.08892 0.141958,0.178133 0.215491,0.2651 0.06878,0.08583 0.136751,0.172304 0.207739,0.256315 0.06974,0.08708 0.138837,0.174725 0.21084,0.259932 0.07027,0.08774 0.139815,0.176161 0.21239,0.262 0.06885,0.08592 0.137198,0.172216 0.208256,0.256315 0.0699,0.08728 0.139181,0.17505 0.211356,0.260449 0.06945,0.08671 0.13811,0.174044 0.209807,0.258899 0.07058,0.08813 0.140522,0.176821 0.213423,0.263033 0.06884,0.0859 0.137207,0.172236 0.208256,0.256315 0.06944,0.0867 0.138121,0.174055 0.209807,0.258899 0.0699,0.08728 0.139182,0.175052 0.211356,0.260449 0.06945,0.08671 0.138112,0.174047 0.209807,0.258899 0.07043,0.08794 0.140167,0.176487 0.212907,0.262517 0.06899,0.0861 0.137569,0.172566 0.208772,0.256831 0.07036,0.08784 0.140246,0.176066 0.212907,0.262 0.06879,0.08584 0.13675,0.172295 0.20774,0.256315 0.06899,0.08615 0.137043,0.173029 0.208256,0.257349 0.07109,0.08882 0.141525,0.178227 0.214973,0.2651 0.06899,0.08609 0.137566,0.172568 0.208773,0.256832 0.07034,0.08783 0.140258,0.176076 0.212907,0.261999 0.06878,0.08582 0.136761,0.172314 0.207739,0.256315 0.07051,0.08805 0.140595,0.176384 0.213424,0.262517 0.06818,0.08508 0.13533,0.170956 0.205672,0.254248 0.07026,0.08778 0.139826,0.176122 0.21239,0.261999 0.07049,0.08802 0.140621,0.176409 0.213424,0.262516 0.06878,0.08582 0.136761,0.172312 0.207739,0.256315 0.07051,0.08805 0.140597,0.176382 0.213424,0.262517 0.06818,0.08508 0.135326,0.170954 0.205672,0.254248 0.07117,0.08892 0.141958,0.178131 0.215491,0.2651 0.06893,0.08601 0.137115,0.172647 0.208256,0.256832 0.06959,0.08689 0.138474,0.174392 0.210323,0.259415 0.07027,0.08774 0.139815,0.176165 0.21239,0.262 0.06824,0.08516 0.135778,0.170878 0.206189,0.254248 0.07117,0.08892 0.141958,0.178135 0.215491,0.2651 0.06892,0.08601 0.137118,0.172647 0.208256,0.256832 0.07043,0.08794 0.140166,0.176488 0.212907,0.262516 0.06869,0.08571 0.136849,0.171901 0.207739,0.255799 0.0696,0.08691 0.138467,0.17437 0.210323,0.259415 0.0699,0.08728 0.139182,0.17505 0.211357,0.26045 0.06945,0.08671 0.138111,0.174044 0.209806,0.258898 0.07049,0.08802 0.140616,0.176411 0.213424,0.262517 0.06892,0.08601 0.137118,0.172649 0.208256,0.256832 0.07027,0.08774 0.139815,0.176164 0.21239,0.261999 0.06824,0.08516 0.135778,0.17088 0.206189,0.254248 0.07041,0.08797 0.140184,0.176455 0.212907,0.262516 0.07035,0.08784 0.140246,0.176063 0.212907,0.262 0.06892,0.08601 0.137119,0.172647 0.208256,0.256832 0.07027,0.08774 0.139817,0.176162 0.21239,0.261999 0.06885,0.08592 0.1372,0.172216 0.208256,0.256315 0.06991,0.08729 0.139173,0.175041 0.211356,0.26045 0.06945,0.08671 0.138112,0.174044 0.209807,0.258899 0.07058,0.08813 0.140522,0.176822 0.213423,0.263033 0.06869,0.08571 0.136854,0.171902 0.20774,0.255798 0.0696,0.08691 0.138463,0.174374 0.210323,0.259416 0.0699,0.08728 0.139184,0.175054 0.211356,0.260449 0.06945,0.08671 0.138112,0.174044 0.209807,0.258899 0.07058,0.08813 0.140525,0.176821 0.213423,0.263033 0.06884,0.0859 0.137209,0.172236 0.208256,0.256315 0.07035,0.08784 0.140249,0.176066 0.212907,0.261999 0.06879,0.08584 0.13675,0.172296 0.20774,0.256316 0.06899,0.08615 0.137045,0.173029 0.208256,0.257348 0.07109,0.08882 0.141527,0.17823 0.214974,0.2651 0.06899,0.08609 0.137565,0.172573 0.208772,0.256832 0.07035,0.08784 0.140251,0.17607 0.212907,0.262 0.06879,0.08584 0.136746,0.172299 0.207739,0.256315 0.0699,0.08729 0.139176,0.17504 0.211357,0.260449 0.06945,0.08671 0.138107,0.174045 0.209806,0.258899 0.06974,0.08708 0.138836,0.174723 0.21084,0.259932 0.07034,0.08783 0.140259,0.176077 0.212907,0.262 0.06877,0.08582 0.136763,0.172312 0.207739,0.256315 0.07051,0.08805 0.140597,0.176381 0.213424,0.262516 0.06818,0.08508 0.135328,0.170957 0.205672,0.254248 0.07117,0.08892 0.141958,0.178136 0.215491,0.2651 0.06893,0.08601 0.137116,0.172652 0.208256,0.256832 0.06944,0.0867 0.138121,0.17406 0.209806,0.258899 0.07043,0.08795 0.140162,0.176478 0.212907,0.262516 0.06824,0.08517 0.13578,0.170876 0.206189,0.254249 0.07109,0.08882 0.141523,0.178227 0.214974,0.2651 0.06899,0.08609 0.137568,0.172568 0.208773,0.256831 0.07043,0.08794 0.140166,0.176489 0.212907,0.262517 0.06869,0.08571 0.136851,0.171901 0.207739,0.255798 0.0696,0.08691 0.138467,0.174372 0.210323,0.259416 0.0699,0.08728 0.139184,0.175054 0.211357,0.260449 0.06945,0.08671 0.138111,0.174049 0.209806,0.258899 0.07043,0.08794 0.140169,0.176489 0.212907,0.262516 0.06884,0.0859 0.137215,0.172238 0.208256,0.256315 0.07051,0.08805 0.140593,0.176382 0.213424,0.262517 0.06818,0.08508 0.135329,0.170954 0.205672,0.254248 0.07026,0.08778 0.139825,0.17612 0.21239,0.261999 0.07049,0.08802 0.140619,0.176409 0.213424,0.262516 0.06892,0.08601 0.137119,0.172648 0.208256,0.256832 0.07027,0.08774 0.139817,0.176167 0.21239,0.262 0.06885,0.08592 0.1372,0.17222 0.208256,0.256315 0.0699,0.08729 0.139175,0.175045 0.211356,0.260449 0.06945,0.08671 0.138112,0.174049 0.209807,0.258899 0.06975,0.08709 0.138826,0.174717 0.21084,0.259933 0.07028,0.08775 0.139808,0.176149 0.21239,0.261999 0.06885,0.08592 0.137198,0.172216 0.208256,0.256315 0.06989,0.08728 0.139185,0.17505 0.211356,0.260449 0.06945,0.08671 0.138108,0.174045 0.209807,0.258899 0.0705,0.08804 0.140602,0.176389 0.213423,0.262517 0.06877,0.08582 0.136765,0.172316 0.20774,0.256315 0.0696,0.08691 0.138465,0.174374 0.210323,0.259415 0.07043,0.08795 0.140165,0.176482 0.212907,0.262517 0.06824,0.08516 0.135778,0.17088 0.206189,0.254248 0.07117,0.08892 0.141958,0.178135 0.21549,0.2651 0.06878,0.08583 0.136754,0.172306 0.20774,0.256315 0.0705,0.08803 0.140611,0.176399 0.213423,0.262516 0.06879,0.08584 0.136748,0.172295 0.207739,0.256315 0.06991,0.08728 0.139168,0.175051 0.211357,0.260449 0.07006,0.08747 0.139529,0.175386 0.211873,0.260966 0.06833,0.08525 0.135691,0.171313 0.206189,0.254765 0.07055,0.08815 0.140549,0.176806 0.213424,0.263033 0.0702,0.0877 0.139894,0.17571 0.21239,0.26148 0.06908,0.0862 0.137475,0.17298 0.208773,0.25735 0.07013,0.0876 0.139454,0.17581 0.211873,0.26148 0.06915,0.0863 0.13791,0.17289 0.20929,0.25735 0.06959,0.0869 0.138474,0.17438 0.210323,0.25942 0.06883,0.0859 0.136701,0.17271 0.207739,0.25683 0.07169,0.0896 0.142954,0.17956 0.217041,0.26717 0.06757,0.0843 0.134424,0.16913 0.204122,0.25166 0.07169,0.0896 0.142954,0.17956 0.217041,0.26717 0.06757,0.0843 0.134424,0.16914 0.204122,0.25166 0.07124,0.089 0.141881,0.17855 0.215491,0.26562 0.06808,0.085 0.135433,0.17056 0.205672,0.25373 0.07094,0.0887 0.141174,0.17788 0.214457,0.26458 0.06915,0.0863 0.137917,0.17291 0.20929,0.25735 0.07013,0.0876 0.139456,0.1758 0.211873,0.26149 0.06915,0.0863 0.137908,0.17289 0.20929,0.25734 0.06944,0.0867 0.138121,0.17404 0.209806,0.2589 0.06989,0.0873 0.13919,0.17507 0.211357,0.26045 0.07028,0.0878 0.13981,0.17614 0.21239,0.262 0.01376,0.0172 0.02595,0.0356 0.03979,0.0527 H 86.89392 v 0.001 2.33525 h -0.05529 v -0.25993 h -0.21084 v -0.2589 h -0.210323 v -0.26045 h -0.21084 v -0.2589 h -0.208256 -0.0021 v -0.25993 h -0.166915 -0.04393 v -0.2589 h -0.125057 -0.08527 v -0.25993 h -0.08371 -0.127124 v -0.2589 h -0.04238 -0.167949 v -0.26045 h -0.001 -20.778577 v 10e-4 2.33525 h -0.05529 v -0.25993 h -0.210323 v -0.2589 h -0.210323 v -0.26045 h -0.21084 v -0.2589 h -0.208256 -0.0021 v -0.25993 h -0.166915 -0.04392 v -0.2589 h -0.125057 -0.08527 v -0.25993 h -0.08423 -0.126607 v -0.2589 h -0.04237 -0.167948 v -0.26045 h -10e-4 -20.778577 v 10e-4 0.001 6.40891 h 0.0021 0.208256 v 0.26045 h 0.02274 0.188102 v 0.2589 h 0.04341 0.166915 v 0.25993 h 0.0646 0.146244 v 0.2589 h 0.08527 0.125057 v 0.25993 h 0.106454 0.104386 v 0.2589 h 0.127124 0.0832 v 0.26045 h 0.148312 0.06201 v 0.2589 h 0.168982 0.04186 v 0.25993 h 0.189653 0.02067 v 0.2589 h 0.21084 v 0.25993 h 0.210323 v 0.2589 h 0.21084 v 0.26045 h 0.210323 v 0.2589 h 0.210323 v 0.25993 h 0.21084 v 0.2589 h 0.210323 v 0.25993 h 0.21084 v 0.2589 h 0.210323 v 0.26045 h 0.21084 v 0.2589 h 0.210323 v 0.25993 h 0.210323 v 0.2589 h 0.21084 v 0.25994 h 0.210323 v 0.25889 h 0.21084 v 0.25994 h 0.210323 v 0.25941 h 0.21084 v 0.25993 h 0.210323 v 0.2589 h 0.210323 v 0.25994 h 0.173116 l -5.537647,9.93531 v 5.1e-4 1.12707 h 10e-4 0.209289 v 0.25993 h 0.04186 0.168982 v 0.25942 h 0.08165 0.128674 v 0.25993 h 0.122474 0.08837 v 0.2589 h 0.162781 0.04754 v 0.25993 h 0.203089 0.0078 v 0.2589 h 0.210323 v 0.25993 h 0.21084 v 0.25942 h 0.210323 v 0.25993 h 0.210323 v 0.2589 h 0.21084 v 0.25993 h 0.210323 v 0.2589 h 0.21084 v 0.25993 h 0.210323 v 0.25942 h 0.21084 v 0.25993 h 0.210323 v 0.2589 h 0.210323 v 0.25993 h 0.21084 v 0.2589 h 0.210323 v 0.25993 h 0.21084 v 0.25942 h 0.210323 v 0.25993 h 0.21084 v 0.2589 h 0.210323 v 0.25993 h 0.210323 v 0.2589 h 0.21084 v 0.25993 h 0.210323 v 0.25942 h 0.21084 v 0.25993 h 0.210323 v 0.2589 h 0.21084 v 0.25993 h 0.210323 v 0.2589 H 49.1231 v 0.25993 h 0.21084 v 0.25942 h 0.210323 v 0.25993 h 0.21084 v 0.2589 h 0.210323 v 0.25993 h 0.210323 v 0.2589 h 0.21084 v 0.25993 h 0.210323 v 0.25942 h 0.210839 v 0.25993 h 0.210324 v 0.2589 h 0.210839 v 0.25993 h 0.210323 v 0.2589 h 0.21084 v 0.25994 H 51.8604 v 0.25941 h 0.210323 v 0.25993 h 0.21084 v 0.2589 h 0.210323 v 0.25994 h 0.21084 v 0.25889 h 0.210323 v 0.25994 h 0.21084 v 0.25941 h 0.210323 v 0.25993 h 0.21084 v 0.2589 h 0.210323 v 0.25994 h 0.210323 v 0.25993 h 0.21084 v 0.2589 h 0.210323 v 0.25993 h 0.21084 v 0.25942 h 0.210323 v 0.25993 h 0.210323 v 0.2589 h 0.21084 v 0.25993 h 0.210323 v 0.2589 h 0.21084 v 0.25993 h 0.210323 v 0.25942 h 0.21084 v 0.25993 h 0.210323 v 0.2589 h 0.210323 v 0.25993 h 0.21084 v 0.2589 h 0.210323 v 0.25993 h 0.21084 v 0.25942 h 0.210323 v 0.25993 h 0.21084 v 0.2589 h 0.210323 v 0.25993 h 0.210323 v 0.2589 h 0.21084 v 0.25993 h 0.210323 v 0.25942 h 0.21084 v 0.25993 h 0.210323 v 0.2589 h 0.21084 v 0.25993 h 0.210323 v 0.2589 h 0.210323 v 0.25993 h 0.21084 v 0.25942 h 0.210323 v 0.25993 h 0.210839 v 0.2589 h 0.210324 v 0.25993 h 0.210839 v 0.2589 h 0.210323 v 0.25993 h 0.21084 v 0.25942 h 0.210323 v 0.25993 h 0.210323 v 0.2589 h 0.21084 v 0.25993 h 0.210323 v 0.2589 h 0.21084 v 0.25994 h 0.210323 v 0.25889 h 0.21084 v 0.26045 h 0.210323 v 0.2589 h 0.210323 v 0.25993 h 0.21084 v 0.2589 h 0.210323 v 0.25994 h 0.21084 v 0.2589 h 0.210323 v 0.26044 h 0.21084 v 0.2589 h 0.210323 v 0.25994 h 0.210323 v 0.25889 h 0.21084 v 0.25994 h 0.210323 v 0.2589 h 0.21084 v 0.26045 h 0.210323 v 0.25889 h 0.21084 v 0.25994 h 0.210323 v 0.25993 h 0.210323 v 0.2589 h 0.21084 v 0.25993 h 0.210323 v 0.25942 h 0.21084 v 0.25993 h 0.210323 v 0.2589 h 0.210323 v 0.25993 h 0.21084 v 0.2589 h 0.210323 v 0.25993 h 0.21084 v 0.25942 h 0.210323 v 0.25993 h 0.21084 v 0.2589 h 0.210323 v 0.25993 h 0.21084 v 0.2589 h 0.210323 v 0.25993 h 0.210323 v 0.25942 h 0.21084 v 0.25993 h 0.210323 v 0.2589 h 0.210839 v 0.25993 h 0.210324 v 0.2589 h 0.210839 v 0.25993 h 0.210324 v 0.2589 h 0.210839 v 0.26045 h 0.210323 v 0.2589 h 0.210324 v 0.25993 h 0.210839 v 0.2589 h 0.210323 v 0.25993 h 0.21084 v 0.2589 h 0.210323 v 0.26045 h 0.21084 v 0.2589 h 0.210323 v 0.25993 h 0.210323 v 0.2589 h 0.21084 v 0.25994 h 0.210323 v 0.25889 h 0.21084 v 0.26045 h 0.210323 v 0.2589 h 0.210323 v 0.25993 h 0.21084 v 0.2589 h 0.210323 v 0.25994 h 0.21084 v 0.25889 h 0.210323 v 0.26045 h 0.21084 v 0.2589 h 0.210323 v 0.25994 h 0.210323 v 0.25889 h 0.21084 v 0.25994 h 0.210323 v 0.2589 h 0.21084 v 0.26045 h 0.210323 v 0.25889 h 0.21084 v 0.25994 h 0.210323 v 0.2589 h 0.210323 v 0.25993 h 0.21084 v 0.2589 h 0.210323 v 0.26045 h 0.21084 v 0.25993 h 0.210323 v 0.2589 h 0.21084 v 0.25993 h 0.210323 v 0.2589 h 0.21084 v 0.25993 h 0.210323 v 0.25942 h 0.210323 v 0.25993 h 0.21084 v 0.2589 h 0.210323 v 0.25993 h 0.21084 v 0.2589 h 0.210323 v 0.25993 h 0.210839 v 0.2589 h 0.210324 v 0.26045 h 0.210323 v 0.2589 h 0.210839 v 0.25993 h 0.210324 v 0.2589 h 0.210839 v 0.25993 h 0.210323 v 0.2589 h 0.21084 v 0.26045 h 0.210323 v 0.2589 h 0.210323 v 0.25993 h 0.21084 v 0.2589 h 0.210323 v 0.25993 h 0.21084 v 0.2589 H 81.7578 v 0.26045 h 0.21084 v 0.2589 h 0.210323 v 0.25993 h 0.210323 v 0.2589 h 0.21084 v 0.25993 h 0.210323 v 0.2589 h 0.21084 v 0.26045 h 0.210323 v 0.2589 h 0.21084 v 0.25993 h 0.210323 v 0.2589 h 0.210323 v 0.25994 h 0.21084 v 0.25889 h 0.210323 v 0.26045 h 0.21084 v 0.2589 h 0.210323 v 0.25994 h 0.210323 v 0.25889 h 0.21084 v 0.25994 h 0.210323 v 0.2589 h 0.21084 v 0.26044 h 0.210323 v 0.2589 h 0.21084 v 0.25994 h 0.210323 v 0.2589 h 0.21084 v 0.25993 h 0.210323 v 0.2589 h 0.21084 v 0.25993 h 0.210323 v 0.25941 h 0.210323 v 0.25994 h 0.21084 v 0.2589 h 0.210323 v 0.25993 h 0.21084 v 0.2589 h 0.210323 v 0.25993 h 0.210839 v 0.26045 h 0.210324 v 0.2589 h 0.210323 v 0.25993 h 0.210839 v 0.2589 h 0.210324 v 0.25993 h 0.210839 v 0.2589 h 0.210323 v 0.26045 h 0.210324 v 0.2589 h 0.210839 v 0.25993 h 0.210323 v 0.2589 h 0.21084 v 0.25993 h 0.210323 v 0.2589 h 0.21084 v 0.26045 h 0.210323 v 0.2589 h 0.210323 v 0.25993 h 0.21084 v 0.2589 h 0.210323 v 0.25993 h 0.21084 v 0.2589 h 0.210323 v 0.26045 h 0.21084 v 0.2589 h 0.210323 v 0.25993 h 0.210323 v 0.2589 h 0.21084 v 0.25993 h 0.210323 v 0.2589 h 0.21084 v 0.26045 h 0.210323 v 0.2589 h 0.21084 v 0.25993 h 0.210323 v 0.2589 h 0.210323 v 0.25994 h 0.21084 v 0.25889 h 0.210323 v 0.25994 h 0.21084 v 0.25941 h 0.210323 v 0.25993 h 0.21084 v 0.2589 h 0.210323 v 0.25994 h 0.21084 v 0.2589 h 0.210323 v 0.25993 h 0.210323 v 0.25941 h 0.21084 v 0.25994 h 0.210323 v 0.25889 h 0.21084 v 0.25994 h 0.210323 v 0.2589 h 0.21084 v 0.25993 h 0.210323 v 0.25941 h 0.210323 v 0.25994 h 0.21084 v 0.2589 h 0.210323 v 0.25993 h 0.210839 v 0.2589 h 0.210324 v 0.25993 h 0.210839 v 0.25942 h 0.210323 v 0.25993 h 0.210324 v 0.2589 h 0.210839 v 0.25993 h 0.210323 v 0.25993 h 0.21084 v 0.2589 h 0.210323 v 0.26045 h 0.210325 v 0.2589 h 0.21084 v 0.25993 h 0.21032 v 0.2589 h 0.21084 v 0.25993 h 0.21084 v 0.2589 h 0.21032 v 0.26045 h 0.21084 v 0.2589 h 0.20981 v 0.25993 h 0.21136 v 0.2589 h 0.2098 v 0.25993 h 0.21084 v 0.2589 h 0.21033 v 0.25993 h 0.21084 V 203.96 h 0.2098 v 0.25993 h 0.21136 v 0.2589 h 0.21084 v 0.25993 h 0.20981 v 0.2589 h 0.21135 v 0.25994 h 0.20981 v 0.25941 h 0.21084 v 0.25993 h 0.21032 v 0.2589 h 0.21084 v 0.25994 h 0.20981 v 0.25889 h 0.21135 v 0.25994 h 0.20981 v 0.25941 h 0.21084 v 0.25993 h 0.21136 v 0.2589 h 0.2098 v 0.25994 h 0.21084 v 0.25889 h 0.21033 v 0.25994 h 0.21084 v 0.25941 h 0.2098 v 0.25994 h 0.21136 v 0.25889 h 0.2098 v 0.25994 h 0.21084 v 0.2589 h 0.21033 v 0.25993 h 0.21084 v 0.25941 h 0.21084 v 0.25994 h 0.21032 v 0.2589 h 0.21084 v 0.25993 h 0.21032 v 0.2589 h 0.21084 v 0.25993 h 0.20981 v 0.25941 h 0.21136 v 0.25994 h 0.2098 v 0.2589 h 0.21084 v 0.25993 h 0.21033 v 0.2589 h 0.21084 v 0.25993 h 0.21084 v 0.25942 h 0.21032 v 0.25993 h 0.21084 v 0.25993 h 0.2098 v 0.2589 h 0.21136 v 0.25993 h 0.20981 v 0.2589 h 0.21084 v 0.25993 h 0.21032 v 0.25942 h 0.21084 v 0.25993 h 0.20981 v 0.2589 h 0.21135 v 0.25993 h 0.21084 v 0.2589 h 0.20981 v 0.25993 h 0.21136 v 0.25942 h 0.2098 v 0.25993 h 0.21084 v 0.2589 h 0.21032 v 0.25993 h 0.21084 v 0.2589 h 0.20981 v 0.25994 h 0.21136 v 0.25941 h 0.2098 v 0.25993 h 0.21084 v 0.2589 h 0.21136 v 0.25993 h 0.20981 v 0.2589 h 0.21084 v 0.25994 h 0.21032 v 0.25941 h 0.21084 v 0.25993 h 0.20981 v 0.2589 h 0.21135 v 0.25994 h 0.20981 v 0.25889 h 0.21084 v 0.25994 h 0.21032 v 0.25941 h 0.21084 v 0.25994 h 0.21084 v 0.25889 h 0.21032 v 0.25994 h 0.21084 v 0.2589 h 0.20981 v 0.25993 h 0.21136 v 0.25941 h 0.2098 v 0.25994 h 0.21084 v 0.2589 h 0.21033 v 0.25993 h 0.21084 v 0.2589 h 0.2098 v 0.25993 h 0.21136 v 0.25941 h 0.21084 v 0.25994 h 0.20981 v 0.2589 h 0.21135 V 225.24 h 0.20981 v 0.2589 h 0.21084 v 0.25993 h 0.21032 v 0.25942 h 0.21084 v 0.25993 h 0.21032 v 0.2589 h 0.21084 v 0.25993 h 0.20981 v 0.2589 h 0.21136 v 0.25993 h 0.21084 v 0.25942 h 0.2098 v 0.25993 h 0.21136 v 0.25993 h 0.20981 v 0.2589 h 0.21084 v 0.25993 h 0.21032 v 0.2589 h 0.21084 v 0.25993 h 0.20981 v 0.25942 h 0.21135 v 0.25993 h 0.20981 v 0.2589 h 0.21084 v 0.25993 h 0.21135 v 0.002 0.25683 h 0.20981 v 0.005 0.25476 h 0.21084 v 0.006 0.25321 h 0.21032 v 0.009 0.25114 h 0.21084 v 0.0109 0.24804 h 0.20981 v 0.0139 0.24598 h 0.21136 v 0.016 0.24288 h 0.2098 v 0.0181 0.24185 h 0.21084 v 0.0202 0.23926 h 0.21033 v 0.0227 0.23719 h 0.21084 v 0.0248 0.23409 h 0.21084 v 0.0269 0.23307 h 0.21032 v 0.0289 0.22996 h 0.21084 v 0.032 0.2279 h 0.2098 v 0.0341 0.22531 h 0.21136 v 0.0357 0.22427 h 0.20981 v 0.0377 0.22117 h 0.21084 v 0.0408 0.21911 h 0.21032 v 0.0429 0.21601 h 0.21084 v 0.045 0.21498 h 0.20981 v 0.047 0.21239 h 0.21135 v 0.0496 0.21033 h 0.21084 v 0.0517 0.20722 h 0.20981 v 0.0538 0.20619 h 0.21136 v 0.0558 0.20309 h 0.2098 v 0.0589 0.20102 h 0.21084 v 0.061 0.19843 h 0.21033 v 0.0625 0.19741 h 0.21084 v 0.0646 0.19431 h 0.2098 v 0.0677 0.19224 h 0.21136 v 0.0698 0.18914 h 0.2098 v 0.0718 0.1881 h 0.21084 v 0.0739 0.185 h 0.21136 v 0.077 0.18345 h 0.20981 v 0.0786 0.18035 h 0.21084 v 0.0811 0.1788 h 0.21032 v 0.0832 0.1757 h 0.21084 v 0.0863 0.17363 h 0.21032 v 0.0884 0.17053 h 0.21084 v 0.0915 0.16898 h 0.20981 v 0.092 0.16692 h 0.21136 v 0.0951 0.16485 h 0.2098 v 0.0971 0.16175 h 0.21084 v 0.10025 0.15968 h 0.21136 v 0.10129 0.15864 h 0.2098 v 0.10336 0.15606 h 0.21084 v 0.10594 0.15399 h 0.21033 v 0.10801 0.15089 h 0.21084 v 0.11007 0.14986 h 0.2098 v 0.11214 0.14676 h 0.21136 v 0.11524 0.14469 h 0.20981 v 0.11731 0.14211 h 0.21084 v 0.11886 0.14107 h 0.21032 v 0.12093 0.13797 h 0.21084 v 0.12403 0.1359 h 0.21084 v 0.12609 0.13281 h 0.21032 v 0.12816 0.13178 h 0.21084 v 0.13022 0.12919 h 0.20981 v 0.13281 0.12712 h 0.21136 v 0.13488 0.12402 h 0.2098 v 0.13695 0.12299 h 0.21084 v 0.139 0.11989 h 0.21032 v 0.14211 0.11783 h 0.21084 v 0.14417 0.11524 h 0.20981 v 0.14573 0.1142 h 0.21136 v 0.1478 0.1111 h 0.21084 v 0.1509 0.10904 h 0.2098 v 0.15296 0.10593 h 0.21136 v 0.15503 0.10491 h 0.20981 v 0.15709 0.10181 h 0.21084 v 0.16019 0.10026 h 0.21032 v 0.16174 0.0971 h 0.21084 v 0.16485 0.0951 h 0.20981 v 0.16588 0.093 h 0.21135 v 0.16898 0.0909 h 0.20981 v 0.17105 0.0879 h 0.21084 v 0.17415 0.0863 h 0.21135 v 0.17466 0.0842 h 0.20981 v 0.17776 0.0822 h 0.21084 v 0.17983 0.0791 h 0.21032 v 0.18293 0.077 h 0.21084 v 0.18397 0.0749 h 0.20981 v 0.18707 0.0734 h 0.21136 v 0.18862 0.0703 h 0.2098 v 0.19172 0.0682 h 0.21084 v 0.19275 0.0662 h 0.21033 v 0.19585 0.0641 h 0.21084 v 0.19792 0.061 h 0.21084 v 0.20102 0.0594 h 0.21032 v 0.20154 0.0574 h 0.21084 v 0.20464 0.0553 h 0.21032 v 0.20671 0.0522 h 0.21084 v 0.2098 0.0501 h 0.20981 v 0.21136 0.0475 h 0.21135 v 0.21446 0.046 h 0.20981 v 0.21601 0.0429 h 0.21084 v 0.21911 0.0408 h 0.21032 v 0.22014 0.0398 h 0.21084 v 0.22221 0.0367 h 0.21084 v 0.22531 0.0346 h 0.21033 v 0.22738 0.032 h 0.21084 v 0.22893 0.031 h 0.2098 v 0.231 0.0279 h 0.21136 v 0.2341 0.0258 h 0.20981 v 0.23617 0.0227 h 0.21084 v 0.23926 0.0207 h 0.21032 v 0.24029 0.0186 h 0.21084 v 0.2434 0.017 h 0.2098 v 0.24495 0.0139 h 0.21136 v 0.24805 0.0119 h 0.21084 v 0.24909 0.01 h 0.20981 v 0.25218 0.008 h 0.21135 v 0.25424 0.005 h 0.20981 v 0.25734 0.003 h 0.21084 v 0.25787 0.001 h 20.26336 0.001 v -2.85409 h 0.14882 v 0.23617 0.0227 h 0.21084 v 0.23926 0.0207 h 0.21033 v 0.24029 0.0186 h 0.21084 v 0.2434 0.017 h 0.2098 v 0.24495 0.0139 h 0.21136 v 0.24805 0.0119 h 0.21084 v 0.24909 0.01 h 0.20981 v 0.25218 0.008 h 0.21135 v 0.25424 0.005 h 0.20981 v 0.25734 0.003 h 0.21084 v 0.25787 10e-4 h 20.26336 5.2e-4 v -2.85409 h 0.15038 v 0.23617 0.0227 h 0.2098 v 0.23926 0.0207 h 0.21084 v 0.24029 0.0186 h 0.21033 v 0.2434 0.017 h 0.21084 v 0.24495 0.0139 h 0.21084 v 0.24805 0.0119 h 0.21032 v 0.24909 0.01 h 0.21084 v 0.25218 0.008 h 0.20981 v 0.25424 0.005 h 0.21135 v 0.25734 0.003 h 0.20981 v 0.25787 0.001 h 20.26388 v -6.41098 H 213.172 v -0.24701 -0.0119 h -0.21084 v -0.2341 -0.0264 h -0.21032 v -0.22066 -0.0382 H 212.54 v -0.20877 -0.0512 h -0.21084 v -0.19482 -0.0641 h -0.21032 v -0.18294 -0.077 H 211.908 v -0.17001 -0.0889 h -0.20981 v -0.15813 -0.10232 h -0.21136 v -0.14366 -0.11524 h -0.2098 v -0.13178 -0.12816 h -0.21084 v -0.11885 -0.14004 h -0.21033 v -0.10594 -0.154 h -0.21084 v -0.093 -0.16589 h -0.2098 v -0.0811 -0.17931 h -0.21136 v -0.0677 -0.1912 h -0.21084 v -0.0548 -0.20516 h -0.20981 v -0.0418 -0.21705 h -0.21135 v -0.03 -0.22996 h -0.20981 v -0.016 -0.24288 h -0.21084 v -0.004 -0.25632 h -0.21032 v -0.25993 h -0.21084 v -0.2589 h -0.20981 v -0.25993 h -0.21135 v -0.2589 h -0.20981 v -0.25993 h -0.21084 v -0.2589 h -0.21136 v -0.26045 h -0.2098 v -0.2589 h -0.0109 l 5.68079,-10.19472 v -0.001 -1.12706 h -0.21083 v -0.25683 -0.002 h -0.21033 v -0.25528 -0.005 h -0.21084 v -0.25322 -0.006 h -0.2098 v -0.25063 -0.009 h -0.21136 v -0.24805 -0.0108 H 211.894 v -0.24598 -0.014 h -0.21084 v -0.24391 -0.015 h -0.21032 v -0.24236 -0.0176 H 211.262 v -0.23927 -0.0202 h -0.21084 v -0.23668 -0.0232 h -0.21032 v -0.23513 -0.0238 H 210.63 v -0.23306 -0.0269 h -0.20981 v -0.22996 -0.0289 h -0.21136 v -0.22841 -0.0315 h -0.2098 v -0.22635 -0.0331 h -0.21084 v -0.22376 -0.0362 h -0.21032 v -0.22066 -0.0393 h -0.21084 v -0.2191 -0.0398 h -0.21033 v -0.21704 -0.0429 h -0.21084 v -0.21394 -0.045 h -0.21084 v -0.21239 -0.048 h -0.2098 v -0.20981 -0.0491 h -0.21136 v -0.20774 -0.0522 h -0.20981 v -0.20515 -0.0537 h -0.21084 v -0.20309 -0.0568 h -0.21032 v -0.20102 -0.0579 h -0.21084 v -0.19895 -0.0615 h -0.21032 v -0.19585 -0.063 h -0.21084 v -0.19379 -0.0661 h -0.20981 v -0.19172 -0.0672 h -0.21136 v -0.19017 -0.0698 h -0.21084 v -0.18707 -0.0718 h -0.2098 v -0.185 -0.0755 h -0.21136 v -0.18293 -0.076 h -0.2098 v -0.18086 -0.0791 h -0.21084 v -0.17776 -0.0811 h -0.21033 v -0.17621 -0.0837 h -0.21084 v -0.17415 -0.0848 h -0.2098 v -0.17208 -0.0879 h -0.21136 v -0.1695 -0.0899 h -0.20981 v -0.16794 -0.092 h -0.21084 v -0.16485 -0.094 h -0.21135 v -0.16278 -0.0971 h -0.20981 v -0.1602 -0.0987 h -0.21084 v -0.15916 -0.10077 h -0.21032 v -0.15606 -0.10336 h -0.21084 v -0.15399 -0.10594 h -0.20981 v -0.15089 -0.10801 h -0.21135 v -0.14986 -0.11007 h -0.20981 v -0.14728 -0.11162 h -0.21084 v -0.14521 -0.11472 h -0.21032 v -0.14211 -0.11731 h -0.21084 v -0.14056 -0.11937 h -0.21084 v -0.13798 -0.12092 h -0.21033 v -0.13591 -0.12402 h -0.2108 v -0.13281 -0.12609 h -0.2098 v -0.13229 -0.12764 h -0.21136 v -0.12919 -0.13023 h -0.20981 v -0.12661 -0.13332 h -0.21084 v -0.12402 -0.13488 h -0.21032 v -0.12299 -0.13694 h -0.21084 v -0.11989 -0.13901 h -0.2098 v -0.11834 -0.14159 h -0.21136 v -0.11524 -0.14418 h -0.21084 v -0.11369 -0.14624 h -0.20981 v -0.11111 -0.14779 h -0.21135 v -0.10904 -0.15089 h -0.20981 v -0.10697 -0.15193 h -0.21084 v -0.10491 -0.15503 h -0.21032 v -0.10231 -0.15813 h -0.21084 v -0.0987 -0.16019 h -0.20981 v -0.0977 -0.16227 h -0.21136 v -0.0951 -0.16381 h -0.2098 v -0.093 -0.16692 h -0.21084 v -0.0899 -0.16899 h -0.21136 v -0.0894 -0.17053 h -0.20981 v -0.0863 -0.17311 h -0.21084 v -0.0837 -0.17622 h -0.21032 v -0.0811 -0.17777 h -0.21084 v -0.0801 -0.17984 h -0.21032 v -0.077 -0.1819 h -0.21084 v -0.0749 -0.185 h -0.20981 v -0.0724 -0.18706 h -0.21135 v -0.0708 -0.18914 h -0.20981 v -0.0677 -0.19121 h -0.21084 v -0.0661 -0.19379 h -0.21136 v -0.063 -0.19586 h -0.2098 v -0.062 -0.19792 h -0.21084 v -0.0594 -0.19999 h -0.21033 v -0.0568 -0.20309 h -0.21084 v -0.0537 -0.20516 h -0.2098 v -0.0532 -0.20671 h -0.21136 v -0.0501 -0.20877 h -0.20981 v -0.0481 -0.21187 h -0.21083 v -0.046 -0.21343 h -0.21033 v -0.0439 -0.21601 h -0.21084 v -0.0408 -0.21808 h -0.21084 v -0.0388 -0.22117 h -0.21032 v -0.0372 -0.22169 h -0.21084 v -0.0351 -0.22479 h -0.20981 v -0.032 -0.22738 h -0.21135 v -0.03 -0.22996 H 191.471 v -0.0279 -0.23099 h -0.21084 v -0.0258 -0.23409 h -0.21032 v -0.0233 -0.23564 H 190.839 v -0.0212 -0.23874 h -0.20981 v -0.0191 -0.2403 h -0.21136 v -0.0165 -0.24339 h -0.2098 v -0.0139 -0.24495 h -0.21084 v -0.0119 -0.24804 h -0.21136 v -0.01 -0.24908 h -0.2098 v -0.008 -0.25166 h -0.21084 v -0.005 -0.25425 h -0.21033 v -0.003 -0.25735 h -0.21084 v -0.001 -0.25786 h -0.2098 V 204.913 h -0.21136 v -0.2589 h -0.20981 v -0.25993 h -0.21084 v -0.25942 h -0.21032 v -0.25993 h -0.21084 v -0.2589 h -0.21084 V 203.354 h -0.21032 v -0.2589 h -0.21084 v -0.25994 h -0.20981 v -0.25993 h -0.21136 v -0.25941 h -0.2098 v -0.25994 h -0.21084 v -0.2589 h -0.21032 v -0.25993 h -0.21084 v -0.2589 h -0.21033 v -0.25993 h -0.21084 v -0.25941 h -0.21084 v -0.25994 h -0.21032 v -0.2589 h -0.21084 v -0.25993 h -0.20981 v -0.2589 h -0.21135 v -0.25993 h -0.20981 v -0.25942 h -0.21084 v -0.25993 h -0.21032 v -0.2589 h -0.21084 v -0.25993 h -0.20981 v -0.2589 h -0.21135 v -0.25993 h -0.21084 v -0.25942 h -0.20981 v -0.25993 h -0.21136 v -0.2589 h -0.2098 v -0.25993 h -0.21084 v -0.2589 h -0.21033 v -0.25993 h -0.21084 v -0.25942 h -0.2098 v -0.25993 h -0.21136 v -0.2589 h -0.20981 v -0.25993 h -0.21084 v -0.2589 h -0.21135 v -0.25993 h -0.20981 v -0.25942 h -0.21084 v -0.25993 h -0.21032 v -0.2589 h -0.21084 V 193.752 h -0.20981 v -0.2589 h -0.21135 v -0.25993 h -0.20981 v -0.25942 h -0.21084 v -0.25993 h -0.21032 v -0.2589 h -0.21084 v -0.25993 h -0.21084 v -0.2589 h -0.21033 v -0.25993 h -0.21084 v -0.2589 h -0.2098 v -0.26045 h -0.21136 v -0.2589 h -0.20981 v -0.25993 h -0.21084 v -0.2589 h -0.21032 v -0.25994 h -0.21084 v -0.25889 h -0.2098 v -0.26045 h -0.21136 v -0.2589 h -0.21084 v -0.25993 h -0.20981 v -0.25994 h -0.21135 v -0.2589 h -0.20981 v -0.25993 h -0.21084 v -0.25941 h -0.21032 v -0.25994 h -0.21084 v -0.2589 h -0.21033 v -0.25993 h -0.21084 v -0.2589 h -0.2098 v -0.25993 h -0.21084 v -0.25942 h -0.21136 v -0.25993 h -0.2098 v -0.2589 h -0.21084 v -0.25993 h -0.21033 v -0.2589 h -0.21084 v -0.25993 h -0.21032 v -0.25942 h -0.21084 v -0.25993 h -0.20981 v -0.2589 h -0.21135 V 184.15 h -0.20981 v -0.2589 h -0.21084 v -0.25993 h -0.21136 v -0.25942 h -0.2098 v -0.25993 h -0.21084 v -0.2589 h -0.21033 v -0.25993 h -0.21084 v -0.2589 h -0.2098 v -0.25993 h -0.21136 v -0.25942 h -0.2098 v -0.25993 h -0.21084 v -0.2589 h -0.21033 v -0.25993 h -0.21084 v -0.2589 h -0.21084 v -0.25993 h -0.21032 v -0.2589 h -0.21084 v -0.26045 h -0.20981 v -0.2589 h -0.21135 v -0.25993 h -0.20981 v -0.2589 h -0.21084 v -0.25993 h -0.21032 v -0.2589 h -0.21084 v -0.26045 h -0.20981 v -0.2589 h -0.21136 v -0.25993 h -0.2098 v -0.2589 h -0.21084 v -0.25994 h -0.21136 v -0.25889 h -0.2098 v -0.26045 h -0.21084 v -0.2589 h -0.21033 v -0.25993 h -0.21084 v -0.2589 h -0.2098 v -0.25994 h -0.21136 v -0.25889 h -0.20981 v -0.26045 h -0.21084 v -0.2589 h -0.21032 v -0.25994 h -0.21084 V 174.548 h -0.21084 v -0.2589 h -0.21032 v -0.25993 h -0.21084 v -0.25941 h -0.20981 v -0.11783 c 1.19999,-0.60084 2.27233,-1.34867 3.20084,-2.26084 l 0.001,-0.001 c 0.58944,-0.58996 1.11019,-1.23406 1.5689,-1.92754 v 0.14935 h 0.21084 v 0.25993 h 0.21032 v 0.25942 h 0.21084 v 0.25993 h 0.20981 v 0.2589 h 0.21136 v 0.25993 h 0.2098 v 0.2589 h 0.21084 v 0.25993 h 0.21033 v 0.25942 h 0.21083 v 0.25993 h 0.20981 v 0.2589 h 0.21136 v 0.25993 h 0.21084 v 0.2589 h 0.2098 v 0.25993 h 0.19224 0.0191 v 0.25942 h 0.15296 0.0568 v 0.25993 h 0.11627 0.0946 v 0.2589 h 0.077 0.13333 v 0.25993 h 0.0388 0.17208 v 0.2589 h 0.001 19.15284 v -0.001 -4.9289 h 0.016 v 0.2589 h 0.21032 v 0.25993 h 0.21084 v 0.25942 h 0.20774 0.002 v 0.25993 h 0.19637 0.015 v 0.2589 h 0.18191 0.0289 v 0.25993 h 0.16899 0.0408 v 0.2589 h 0.1571 0.0543 v 0.25993 h 0.14262 0.0672 v 0.25942 h 0.13126 0.0796 v 0.25993 h 0.11731 0.093 v 0.2589 h 0.1049 0.10594 v 0.25993 h 0.092 0.11782 v 0.2589 h 0.0791 0.13229 v 0.25993 h 0.0656 0.14418 v 0.25942 h 0.0532 0.15762 v 0.25993 h 0.0403 0.17105 v 0.2589 h 0.0269 0.18294 v 0.25993 h 0.0139 0.19689 v 0.2589 h 0.001 6.48539 v -7.94577 l 6.04201,7.40214 0.23255,0.28473 0.21135,0.2589 h 0.001 7.67188 l -9.34827,-12.45402 9.65316,-11.17503 h -0.43511 l 0.22427,-0.25993 h -0.016 -0.41806 l 0.22376,-0.2589 h -0.032 -0.40308 l 0.22428,-0.25993 h -0.0481 -0.38551 l 0.22376,-0.2589 h -0.0641 -0.37155 l 0.22428,-0.25993 h -0.0796 -0.3545 l 0.22428,-0.25942 h -0.0961 -0.339 l 0.22428,-0.25993 h -0.11111 -0.32401 l 0.22376,-0.2589 h -0.1266 -0.30748 l 0.22428,-0.25993 h -0.14315 -0.29145 l 0.22376,-0.2589 h -0.15917 -0.27543 l 0.22427,-0.25993 h -0.17466 -0.26045 l 0.22427,-0.25942 h -0.1912 -0.24288 l 0.22428,-0.25993 h -0.20723 -0.22789 l 0.22376,-0.2589 h -0.22272 -0.21136 l 0.22427,-0.25993 h -0.23926 -0.19533 l 0.22375,-0.2589 h -0.25528 -0.18035 l 0.22428,-0.25993 h -0.26975 -0.16433 l 0.22427,-0.25942 h -0.2868 -0.14831 l 0.22427,-0.25993 h -0.30231 -0.13177 l 0.22376,-0.2589 h -0.31885 -0.11627 l 0.22428,-0.25993 h -0.33383 -0.0997 l 0.22376,-0.2589 h -0.3514 -0.0842 l 0.22428,-0.25993 h -0.36587 -0.0682 l 0.22428,-0.25942 h -0.38189 -0.0532 l 0.22428,-0.25993 h -0.39843 -0.0356 l 0.22376,-0.2589 h -0.41393 -0.0212 l 0.22428,-0.25993 h -0.42995 -0.005 l 0.22376,-0.2589 h -0.4346 l 0.22427,-0.25994 h -0.43511 l 0.22427,-0.25941 h -0.43408 l 0.22428,-0.25993 h -0.43512 l 0.22376,-0.2589 h -0.43408 l 0.22427,-0.25994 h -0.43459 l 0.22375,-0.25889 h -0.43459 l 0.22427,-0.25994 h -0.43511 l 0.22427,-0.25941 h -0.43511 l 0.22427,-0.25993 h -0.43408 l 0.22376,-0.2589 h -0.43512 l 0.22428,-0.25994 h -0.43357 l 0.22376,-0.25889 h -0.43563 l 0.22428,-0.25994 h -0.43409 l 0.22428,-0.25941 h -0.43512 l 0.22428,-0.25994 h -0.4346 l 0.22428,-0.25993 h -0.4346 l 0.22376,-0.2589 h -0.4346 l 0.22427,-0.25993 h -0.43459 l 0.22375,-0.2589 h -0.43511 l 0.22427,-0.25993 h -0.43459 l 0.22427,-0.25942 h -0.43511 l 0.22427,-0.25993 h -0.43356 l 0.22376,-0.2589 h -0.43564 l 0.22428,-0.25993 h -0.43357 l 0.22376,-0.2589 h -0.43511 l 0.22427,-0.25993 h -0.4346 l 0.22428,-0.25942 h -0.43512 l 0.22428,-0.25993 h -0.4346 l 0.22376,-0.2589 h -0.4346 l 0.22428,-0.25993 h -0.4346 l 0.22376,-0.2589 h -0.4346 l 0.22479,-0.25993 h -0.43563 l 0.22427,-0.25942 h -0.43408 l 0.22428,-0.25993 h -0.4346 l 0.22376,-0.2589 h -0.4346 l 0.22427,-0.25993 h -0.43459 l 0.22375,-0.2589 h -0.43408 l 0.22428,-0.25993 h -0.43563 l 0.22427,-0.25942 h -0.43511 l 0.22427,-0.25993 h -0.43356 l 0.22376,-0.2589 h -0.43564 l 0.22428,-0.25993 h -0.43357 l 0.22376,-0.2589 h -0.43511 l 0.22427,-0.25993 h -0.4346 l 0.22428,-0.25942 h -0.43512 l 0.22428,-0.25993 h -0.43357 l 0.22376,-0.2589 h -0.43563 l 0.22428,-0.25993 h -0.4346 l 0.22376,-0.2589 h -0.43408 l 0.22427,-0.25994 h -0.43563 l 0.22427,-0.25941 h -0.43408 l 0.22428,-0.25993 h -0.4346 l 0.22376,-0.2589 h -0.4346 l 0.22427,-0.25993 h -0.43459 l 0.22376,-0.2589 h -0.43409 l 0.22428,-0.25994 h -0.43563 l 0.22427,-0.25941 h -0.43408 l 0.22428,-0.25993 h -0.4346 l 0.22376,-0.2589 h -0.43564 l 0.22428,-0.25994 h -0.43357 l 0.22376,-0.25889 h -0.43511 l 0.22427,-0.25994 h -0.4346 l 0.22428,-0.25941 h -0.43512 l 0.22428,-0.25994 h -0.43356 l 0.22375,-0.25889 h -0.43563 l 0.22428,-0.25994 h -0.43408 l 0.22427,-0.25993 h -0.4346 l 0.22376,-0.2589 h -0.4346 l 0.22428,-0.25993 h -0.43512 l 0.22428,-0.25942 h -0.43512 l 0.22428,-0.25993 h -0.43408 l 0.22376,-0.2589 h -0.43512 l 0.22428,-0.25993 h -0.43409 l 0.22376,-0.2589 h -0.43511 l 0.22427,-0.25993 h -0.43408 l 0.22428,-0.25942 h -0.43512 l 0.22428,-0.25993 h -0.43409 l 0.22376,-0.2589 h -0.43511 l 0.22427,-0.25993 h -0.4346 l 0.22376,-0.2589 h -0.4346 l 0.22428,-0.25993 h -0.43511 l 0.22427,-0.25942 h -0.4346 l 0.22428,-0.25993 h -0.4346 l 0.22376,-0.2589 h -0.43408 l 0.22427,-0.25993 h -0.43511 l 0.22375,-0.2589 h -0.43408 l 0.22428,-0.25993 h -0.43512 l 0.22428,-0.25942 h -0.4346 l 0.22428,-0.25993 h -0.4346 l 0.22376,-0.2589 h -0.43512 l 0.22428,-0.25993 h -0.43409 l 0.22376,-0.2589 h -0.43511 l 0.22427,-0.25993 h -0.43408 l 0.22428,-0.25942 h -0.43564 l 0.22428,-0.25993 h -0.43357 l 0.22376,-0.2589 h -0.43511 l 0.22427,-0.25993 h -0.43408 l 0.22376,-0.2589 h -0.43511 l 0.22427,-0.25993 h -0.43511 l 0.22427,-0.25942 h -0.4346 l 0.22428,-0.25993 h -0.4346 l 0.22376,-0.2589 h -0.43408 l 0.22427,-0.25993 h -0.43511 l 0.22376,-0.2589 h -0.43409 l 0.22428,-0.25994 h -0.43512 l 0.22428,-0.25941 h -0.4346 l 0.22428,-0.25993 h -0.4346 l 0.22376,-0.2589 h -0.43409 l 0.22428,-0.25994 h -0.43512 l 0.22376,-0.25889 h -0.43511 l 0.22427,-0.25994 h -0.43356 l 0.22376,-0.2589 h -0.43615 l 0.22479,-0.26044 h -0.43356 l 0.22375,-0.2589 h -0.43511 l 0.22427,-0.25994 h -0.43408 l 0.22376,-0.2589 h -0.43511 l 0.22427,-0.25993 h -0.43356 l 0.22376,-0.2589 h -0.43615 l 0.22479,-0.26045 h -0.43512 l 0.22428,-0.25993 h -0.43357 l 0.22376,-0.2589 h -0.43563 l 0.22428,-0.25993 h -0.43357 l 0.22376,-0.2589 h -0.43512 l 0.22428,-0.25993 h -0.4346 l 0.22428,-0.25942 h -0.43512 l 0.22428,-0.25993 h -0.43357 l 0.22376,-0.2589 h -0.43563 l 0.22427,-0.25993 h -0.43356 l 0.22376,-0.2589 h -0.43512 l 0.22428,-0.25993 h -0.43512 l 0.22376,-0.25942 h -0.43408 l 0.22427,-0.25993 h -0.43459 l 0.22375,-0.2589 h -0.43459 l 0.22427,-0.25993 h -0.4346 l 0.22376,-0.2589 h -0.4346 l 0.22428,-0.25993 h -0.43512 l 0.22428,-0.25942 h -0.43408 l 0.22427,-0.25993 H 180.343 l 0.22376,-0.2589 h -0.43512 l 0.22428,-0.25993 h -0.43357 l 0.22376,-0.2589 h -0.43563 l 0.22427,-0.25993 h -0.43408 l 0.22428,-0.25942 h -0.43512 l 0.22428,-0.25993 h -0.43408 l 0.22375,-0.2589 h -0.43511 l 0.22427,-0.25993 h -0.43356 l 0.22376,-0.2589 h -0.43563 l 0.22427,-0.25993 h -0.43356 l 0.22376,-0.2589 h -0.43564 l 0.2248,-0.26045 h -0.43512 l 0.22376,-0.2589 h -0.43408 l 0.22427,-0.25993 h -0.4346 l 0.22376,-0.2589 h -0.4346 l 0.22428,-0.25994 h -0.4346 l 0.22376,-0.25889 h -0.4346 l 0.22479,-0.26045 h -0.43511 l 0.22376,-0.2589 h -0.43409 l 0.22428,-0.25993 h -0.4346 l 0.22376,-0.2589 h -0.4346 l 0.22428,-0.25994 h -0.4346 l 0.22376,-0.2589 h -0.43563 l 0.22479,-0.26044 h -0.43408 l 0.22375,-0.2589 h -0.43511 l 0.22427,-0.25994 h -0.43356 l 0.22376,-0.25889 h -0.43563 l 0.22427,-0.25994 h -0.43356 l 0.22376,-0.2589 h -0.43564 l 0.2248,-0.260445 h -0.4346 l 0.22427,-0.259416 h -0.4346 l 0.22376,-0.259416 h -0.43511 l 0.22427,-0.259415 h -0.4346 l 0.22428,-0.259416 h -0.43512 l 0.22428,-0.259416 h -0.43408 l 0.22427,-0.259932 h -0.43563 l 0.22428,-0.259416 h -0.43408 l 0.22427,-0.259416 h -0.43511 l 0.22427,-0.259415 h -0.4346 l 0.22428,-0.259416 h -0.43512 l 0.22428,-0.259933 h -0.43408 l 0.22427,-0.259415 h -0.43563 l 0.22428,-0.259416 h -0.43512 l 0.22428,-0.259416 h -0.43409 l 0.22428,-0.259415 h -0.43563 l 0.22427,-0.259416 h -0.43408 l 0.22428,-0.259932 h -0.43512 l 0.22428,-0.259416 h -0.4346 l 0.22427,-0.259416 h -0.43511 l 0.22427,-0.259416 h -0.4346 l 0.22428,-0.259415 h -0.43512 l 0.22428,-0.259933 h -0.4346 l 0.22376,-0.259415 h -0.43408 l 0.22376,-0.259416 h -0.43512 l 0.22428,-0.259416 h -0.43408 L 168.9871,93.0429 h -0.43511 l 0.22375,-0.259416 h -0.43408 l 0.22428,-0.259933 h -0.43512 l 0.22428,-0.259415 h -0.4346 l 0.22428,-0.259416 h -0.4346 l 0.22376,-0.259416 h -0.43409 l 0.22428,-0.259415 h -0.43563 l 0.22427,-0.259933 h -0.4346 l 0.22376,-0.259415 h -0.43408 l 0.22428,-0.259416 h -0.43564 l 0.22428,-0.259416 h -0.43408 l 0.22427,-0.259416 h -0.43511 l 0.22427,-0.259415 h -0.4346 l 0.22428,-0.259933 h -0.43511 l 0.22427,-0.259415 h -0.43408 l 0.22427,-0.259416 h -0.43563 l 0.22428,-0.259416 h -0.43512 l 0.22428,-0.259415 h -0.43408 l 0.22427,-0.259933 h -0.43511 l 0.22376,-0.259416 h -0.43409 l 0.22428,-0.259415 h -0.43512 l 0.22428,-0.259416 h -0.4346 l 0.22428,-0.259416 h -0.4346 l 0.22376,-0.259415 h -0.43409 l 0.22428,-0.259933 h -0.43563 l 0.22427,-0.259415 h -0.43408 l 0.22428,-0.259416 h -0.43512 l 0.22428,-0.259416 h -0.43564 l 0.22428,-0.259416 h -0.43408 l 0.22427,-0.259932 h -0.43459 l 0.22375,-0.259416 h -0.43459 l 0.22427,-0.259415 h -0.4346 l 0.22376,-0.259416 h -0.43408 l 0.22427,-0.259416 h -0.43563 l 0.22428,-0.259415 h -0.43408 l 0.22427,-0.259933 h -0.43511 l 0.22427,-0.259416 h -0.4346 l 0.22428,-0.259415 h -0.43512 l 0.22428,-0.259416 h -0.4346 l 0.22376,-0.259416 h -0.4346 l 0.22428,-0.259415 h -0.43512 l 0.22428,-0.259933 h -0.43409 l 0.22428,-0.259416 h -0.43563 l 0.22427,-0.259415 h -0.43408 l 0.22428,-0.259416 h -0.43512 l 0.22428,-0.259932 h -0.4346 l 0.22427,-0.259416 h -0.43459 l 0.22375,-0.259416 h -0.43459 l 0.22375,-0.259415 h -0.43459 l 0.22427,-0.259416 h -0.4346 l 0.22376,-0.259416 h -0.43408 l 0.22428,-0.259415 h -0.43564 l 0.22428,-0.259933 h -0.43408 l 0.22427,-0.259416 h -0.43511 l 0.22427,-0.259415 h -0.4346 l 0.22428,-0.259416 h -0.43512 l 0.22428,-0.259416 h -0.4346 l 0.22428,-0.259932 h -0.4346 l 0.22376,-0.259416 h -0.4346 l 0.22376,-0.259416 h -0.4346 l 0.22427,-0.259415 h -0.43459 l 0.22375,-0.259416 h -0.43408 l 0.22428,-0.259416 h -0.43563 l 0.22427,-0.259932 h -0.43408 l 0.22427,-0.259416 h -0.43511 l 0.22427,-0.259415 h -0.43408 l 0.22376,-0.259416 h -0.43511 l 0.22427,-0.259416 h -0.43511 l 0.22427,-0.259932 h -0.43408 l 0.22376,-0.259416 h -0.43512 l 0.22428,-0.259416 h -0.43408 l 0.22427,-0.259415 h -0.43511 l 0.22376,-0.259416 h -0.43409 l 0.22428,-0.259416 h -0.43512 l 0.22428,-0.259932 h -0.4346 l 0.22428,-0.259416 h -0.4346 l 0.22376,-0.259416 h -0.43408 l 0.22427,-0.259415 h -0.43511 l 0.22375,-0.259416 h -0.43511 l 0.22427,-0.259932 h -0.43408 l 0.22428,-0.259416 h -0.43512 l 0.22376,-0.259416 h -0.43408 l 0.22428,-0.259415 h -0.4346 l 0.22376,-0.259416 h -0.43409 l 0.22376,-0.259416 h -0.43511 L 151.09,70.984298 h -0.43408 l 0.22428,-0.259416 h -0.43512 l 0.22376,-0.259416 h -0.4346 l 0.22376,-0.259415 h -0.43408 l 0.22427,-0.259416 h -0.43563 l 0.22428,-0.259933 h -0.43357 l 0.22376,-0.259415 h -0.43512 l 0.22428,-0.259416 h -0.43408 l 0.22376,-0.259416 h -0.4346 l 0.22376,-0.259415 h -0.43408 l 0.22427,-0.259416 h -0.43563 l 0.22427,-0.259932 h -0.43408 l 0.22428,-0.259416 h -0.4346 l 0.22376,-0.259416 h -0.43512 l 0.22376,-0.259416 h -0.43408 l 0.22428,-0.259415 h -0.43512 l 0.22428,-0.259933 h -0.43409 l 0.22376,-0.259415 h -0.4346 l 0.22376,-0.259416 h -0.43408 l 0.22428,-0.259416 h -0.43512 l 0.22376,-0.259415 h -0.43408 l 0.22427,-0.259416 h -0.43511 l 0.22427,-0.259933 h -0.43511 l 0.22376,-0.259415 h -0.43357 l 0.22376,-0.259416 h -0.4346 l 0.22376,-0.259416 h -0.4346 l 0.22428,-0.259415 h -0.43512 l 0.22428,-0.259933 H 144.971 l 0.22376,-0.259415 h -0.4346 l 0.22376,-0.259416 h -0.43357 l 0.22376,-0.259416 h -0.43512 l 0.22376,-0.259416 h -0.43408 l 0.22428,-0.259415 h -0.43512 l 0.22428,-0.259933 h -0.43512 l 0.22376,-0.259415 h -0.43408 l 0.22427,-0.259416 h -0.4346 l 0.22376,-0.259416 h -0.43408 l 0.22376,-0.259415 h -0.43512 l 0.22428,-0.259933 h -0.43408 l 0.22427,-0.259416 h -0.43511 l 0.22376,-0.259415 h -0.43408 l 0.22427,-0.259416 h -0.4346 l 0.22376,-0.259416 h -0.4346 l 0.22428,-0.259932 h -0.4346 l 0.22376,-0.259416 h -0.4346 l 0.22376,-0.259415 h -0.43408 l 0.22376,-0.259416 h -0.4346 l 0.22376,-0.259416 h -0.43357 l 0.22376,-0.259416 h -0.43563 l 0.22427,-0.259932 h -0.43408 l 0.22428,-0.259416 h -0.4346 l 0.22376,-0.259415 h -0.43409 l 0.22376,-0.259416 h -0.43511 l 0.22427,-0.259416 h -0.43511 l 0.22427,-0.259932 h -0.43408 l 0.22376,-0.259416 h -0.4346 l 0.22376,-0.259416 h -0.43356 l 0.22375,-0.259415 h -0.43511 l 0.22376,-0.259416 h -0.43357 l 0.22376,-0.259416 h -0.43511 l 0.22427,-0.259932 h -0.43408 l 0.22376,-0.259416 h -0.4346 l 0.22376,-0.259416 h -0.43357 l 0.22376,-0.259415 h -0.43511 l 0.22376,-0.259416 h -0.43512 l 0.22428,-0.259932 h -0.43357 l 0.22376,-0.259416 h -0.43512 l 0.22376,-0.259416 h -0.43408 l 0.22428,-0.259415 h -0.4346 l 0.22376,-0.259416 h -0.43409 l 0.22376,-0.259416 h -0.43511 l 0.22427,-0.259932 h -0.43356 l 0.22376,-0.259416 h -0.43512 l 0.22376,-0.259416 h -0.4346 l 0.22376,-0.259415 h -0.43408 l 0.22428,-0.259416 h -0.43564 l 0.22428,-0.259932 h -0.43357 l 0.22376,-0.259416 h -0.43511 l 0.22427,-0.259416 h -0.43408 l 0.22376,-0.259416 h -0.4346 l 0.22376,-0.259415 h -0.43408 l 0.22376,-0.259416 h -0.43512 l 0.22428,-0.259932 h -0.43357 l 0.22376,-0.259416 h -0.43512 l 0.22376,-0.259416 h -0.4346 l 0.22376,-0.259415 h -0.43356 l 0.22376,-0.259416 h -0.43512 l 0.22428,-0.259933 h -0.43408 l 0.22375,-0.259415 h -0.43459 l 0.22375,-0.259416 h -0.43408 l 0.22376,-0.259416 h -0.4346 l 0.22376,-0.259415 h -0.43356 l 0.22376,-0.259416 h -0.43564 l 0.22428,-0.259932 h -0.4346 l 0.22376,-0.259416 h -0.43357 l 0.22376,-0.259416 h -0.43511 l 0.22376,-0.259416 h -0.43357 l 0.22376,-0.259415 h -0.43512 l 0.22428,-0.259933 h -0.43408 l 0.22376,-0.259415 h -0.4346 l 0.22376,-0.259416 h -0.43357 l 0.22376,-0.259416 h -0.43512 l 0.22376,-0.259415 h -0.43356 l 0.22376,-0.259416 h -0.43512 l 0.22428,-0.259933 h -0.43512 l 0.22376,-0.259415 h -0.43356 l 0.22375,-0.259416 h -0.43459 L 128.56115,43.217 h -0.43409 l 0.22376,-0.259415 h -0.43511 l 0.22427,-0.259933 h -0.43356 l 0.22376,-0.259416 h -0.43512 l 0.22376,-0.259415 h -0.43357 l 0.22376,-0.259416 h -0.4346 l 0.22376,-0.259416 h -0.43511 l 0.22376,-0.259415 h -0.43357 l 0.22376,-0.259416 h -0.43512 l 0.22428,-0.259932 h -0.43408 l 0.22376,-0.259416 h -0.4346 l 0.22376,-0.259416 h -0.43357 l 0.22376,-0.259415 h -0.43563 l 0.22427,-0.259933 h -0.43356 l 0.22376,-0.259416 h -0.4346 l 0.22376,-0.259415 h -0.43408 l 0.22376,-0.259416 h -0.4346 l 0.22376,-0.259416 h -0.4346 l 0.22376,-0.259415 h -0.43409 l 0.22376,-0.259416 h -0.43511 l 0.22427,-0.259933 h -0.43356 l 0.22376,-0.259415 h -0.43512 l 0.22376,-0.259416 h -0.43357 l 0.22376,-0.259416 h -0.4346 l 0.22376,-0.259415 h -0.4346 l 0.22428,-0.259933 h -0.4346 l 0.22376,-0.259415 h -0.43356 l 0.22375,-0.259416 h -0.43511 l 0.22376,-0.259416 h -0.4346 l 0.22376,-0.259416 h -0.43408 l 0.22427,-0.259932 h -0.43511 l 0.22375,-0.259416 h -0.43356 l 0.22376,-0.259415 h -0.4346 l 0.22376,-0.259416 h -0.43408 l 0.22376,-0.259416 h -0.4346 l 0.22376,-0.259415 h -0.4346 l 0.22427,-0.259933 h -0.4346 l 0.22376,-0.259416 h -0.4346 l 0.22376,-0.259415 H 120.126 l 0.22376,-0.259416 h -0.4346 l 0.22376,-0.259416 h -0.43408 l 0.22427,-0.259932 h -0.4346 l 0.22325,-0.259416 h -0.43357 l 0.22376,-0.259415 h -0.4346 l 0.22376,-0.259416 h -0.43408 l 0.22376,-0.259416 h -0.4346 l 0.22376,-0.259416 h -0.43408 l 0.22427,-0.259932 h -0.43511 l 0.22376,-0.259416 h -0.4346 l 0.22376,-0.259415 h -0.43357 l 0.22376,-0.259416 h -0.43512 l 0.22376,-0.259416 h -0.43356 l 0.22376,-0.259932 h -0.43409 l 0.22325,-0.259416 h -0.43409 l 0.22376,-0.259416 h -0.4346 l 0.22376,-0.259415 h -0.43356 l 0.22376,-0.259416 h -0.43512 l 0.22376,-0.259416 h -0.4346 l 0.22376,-0.259932 h -0.43305 l 0.22324,-0.259416 h -0.43459 l 0.22324,-0.259415 h -0.43357 l 0.22376,-0.259416 h -0.43408 l 0.22324,-0.259416 h -0.43408 l 0.22376,-0.259932 h -0.43408 l 0.22324,-0.259416 h -0.43357 l 0.22376,-0.259416 h -0.4346 l 0.22325,-0.259415 h -0.43305 l 0.22324,-0.259416 h -0.4346 l 0.22376,-0.259416 h -0.4346 l 0.22324,-0.259932 h -0.43305 l 0.22325,-0.259416 h -0.43409 l 0.22325,-0.259416 h -0.43357 l 0.22324,-0.259415 h -0.43356 l 0.22272,-0.259416 h -0.43253 l 0.22273,-0.259932 h -0.43408 l 0.22272,-0.259416 h -0.43253 l 0.0119,-0.01395 0.21084,-0.245463 h -0.43304 l 0.031,-0.03617 0.1912,-0.223243 h -0.43304 l 0.0506,-0.05891 0.17105,-0.200504 h -0.43305 l 0.0703,-0.08113 0.15296,-0.178284 h -0.43408 l 0.0899,-0.10387 0.13332,-0.156062 h -0.43253 l 0.10852,-0.125574 0.11369,-0.133842 h -0.43357 l 0.12764,-0.147795 0.0951,-0.111621 H 110.863 l 0.14676,-0.170015 0.0765,-0.0894 h -0.43356 l 0.1664,-0.192754 0.0558,-0.06666 h -0.43254 l 0.18552,-0.214974 0.0372,-0.04496 h -0.43357 l 0.20464,-0.237194 0.0181,-0.02222 h -0.43357 l 0.22428,-0.259416 h -0.001 -7.97574 l -0.001,0.0016 -3.327959,4.076237 c -1.39e-4,-0.06307 -4.11e-4,-0.1822 -0.001,-0.185001 h -0.20929 v -0.03772 c 0,0 -2.33e-4,-0.218292 -0.001,-0.221692 -0.0032,-3e-6 -0.19305,3e-6 -0.20929,0 v -0.05374 c 0,0 -7.5e-4,-0.202573 -0.0016,-0.205673 -0.0032,-3e-6 -0.193078,3e-6 -0.20929,0 v -0.06925 c 0,0 -2.33e-4,-0.187686 -10e-4,-0.190686 h -0.20929 v -0.08475 c 0,0 -7.5e-4,-0.171967 -0.0015,-0.174667 h -0.209289 v -0.100769 c 0,0 -2.34e-4,-0.156147 -0.001,-0.158647 h -0.20929 v -0.116788 c 0,0 -3.33e-4,-0.140427 -0.001,-0.142627 h -0.209806 v -0.132809 c 0,0 -2.34e-4,-0.124607 -10e-4,-0.126607 h -0.209289 v -0.148828 c 0,0 -3.34e-4,-0.109404 -10e-4,-0.111104 h -0.20929 v -0.164331 c 0,0 -7.5e-4,-0.09369 -0.0015,-0.09509 h -0.209289 v -0.179834 c 0,0 -3.34e-4,-0.07838 -0.001,-0.07958 H 96.62356 v -0.195853 c 0,0 -7.51e-4,-0.06256 -0.0016,-0.06356 h -0.20924 v -0.211874 c 0,0 -3.34e-4,-0.04674 -10e-4,-0.04754 h -0.209289 v -0.227893 l -0.0016,-0.03204 h -0.209289 v -0.243396 l -10e-4,-0.01602 H 95.781253 V 20.63963 h -0.001 -6.484875 v 5.190381 h -0.01912 V 25.61084 25.570532 H 89.065881 V 25.34884 25.3106 h -0.210839 v -0.223242 -0.03617 h -0.210324 v -0.225309 -0.03411 h -0.210839 v -0.227893 -0.03152 h -0.210323 v -0.22996 -0.02946 h -0.210324 v -0.232027 -0.02791 h -0.210839 v -0.233578 -0.02584 H 87.592069 V 23.51742 23.49417 H 87.38123 v -0.238228 -0.02119 h -0.210323 v -0.240295 -0.01912 h -0.21084 v -0.242879 -0.01654 h -0.210323 v -0.244946 -0.01499 h -0.210323 v -0.246497 -0.01292 h -0.21084 v -0.248564 -0.01085 h -0.210323 v -0.251147 -0.0083 h -0.21084 v -0.253215 -0.0062 h -0.210323 v -0.255282 -0.0047 h -0.21084 v -0.257348 -0.0021 H 85.275932 V 20.639567 H 65.63527 v 6.059579 h 0.210323 v 0.24753 0.01188 h 0.21084 v 0.235128 0.02429 h 0.210323 v 0.223242 0.03617 h 0.21084 v 0.211356 0.04858 h 0.210323 v 0.198954 0.06046 h 0.21084 v 0.187068 0.07235 h 0.210323 v 0.174667 0.08475 h 0.21084 v 0.162781 0.09663 h 0.210323 v 0.150895 0.109037 h 0.210323 v 0.138493 0.120923 h 0.21084 v 0.126607 0.132809 h 0.210323 v 0.114205 0.14521 h 0.21084 v 0.10232 0.157096 h 0.210323 v 0.09043 0.168982 h 0.21084 v 0.07855 0.181384 h 0.210323 v 0.06563 0.193787 h 0.210323 v 0.05374 0.205673 h 0.21084 v 0.04186 0.217558 h 0.210323 v 0.02997 0.229443 h 0.21084 v 0.01809 0.241845 h 0.210323 v 0.0052 0.254248 h 0.21084 v 0.259416 h 0.210323 v 0.259415 h 0.210323 v 0.259416 h 0.21084 v 0.259416 h 0.210323 v 0.259932 h 0.210839 v 0.259416 h 0.210324 v 0.170015 l -0.891419,1.60042 c -0.03154,-0.03799 -0.06669,-0.07299 -0.0987,-0.110588 -0.06831,-0.08494 -0.135579,-0.170708 -0.206189,-0.253731 -0.07109,-0.08851 -0.140867,-0.178151 -0.214457,-0.264584 -0.06914,-0.08599 -0.137271,-0.172805 -0.208773,-0.256832 -0.06967,-0.08669 -0.137744,-0.174727 -0.209806,-0.259415 -0.07049,-0.08771 -0.139964,-0.176331 -0.212907,-0.262 -0.06839,-0.08505 -0.135493,-0.17112 -0.206189,-0.254248 -0.07131,-0.0888 -0.141666,-0.178397 -0.215491,-0.2651 -0.06908,-0.08591 -0.136825,-0.172884 -0.208256,-0.256832 -0.0705,-0.08773 -0.139952,-0.176318 -0.212907,-0.261999 -0.06908,-0.08591 -0.136825,-0.172884 -0.208256,-0.256832 -0.06951,-0.0865 -0.13739,-0.174389 -0.209289,-0.258899 -0.07064,-0.08792 -0.140317,-0.176651 -0.213424,-0.262516 -0.06846,-0.08514 -0.135417,-0.171549 -0.206189,-0.254765 -0.07123,-0.08869 -0.141755,-0.177985 -0.215491,-0.264583 -0.06908,-0.08591 -0.136821,-0.172887 -0.208256,-0.256832 -0.07043,-0.08763 -0.139513,-0.176409 -0.21239,-0.262 -0.06908,-0.08591 -0.136825,-0.172883 -0.208256,-0.256832 -0.07004,-0.08716 -0.138895,-0.175309 -0.211356,-0.260449 -0.06967,-0.08668 -0.138264,-0.174217 -0.210323,-0.258899 -0.06967,-0.08669 -0.137745,-0.174725 -0.209807,-0.259416 -0.07056,-0.08781 -0.140406,-0.176239 -0.213423,-0.261999 -0.06893,-0.08572 -0.136468,-0.172548 -0.20774,-0.256315 -0.07058,-0.08784 -0.139867,-0.17673 -0.212907,-0.262516 -0.06854,-0.08524 -0.135848,-0.171453 -0.206705,-0.254765 -0.07117,-0.0886 -0.141306,-0.178064 -0.214974,-0.264584 -0.06908,-0.08591 -0.136822,-0.172888 -0.208256,-0.256831 -0.06952,-0.0865 -0.137391,-0.174389 -0.20929,-0.258899 -0.07064,-0.08792 -0.140317,-0.176651 -0.213423,-0.262517 -0.06854,-0.08524 -0.135848,-0.171452 -0.206706,-0.254764 -0.07117,-0.08861 -0.141306,-0.178064 -0.214974,-0.264584 -0.06908,-0.08591 -0.136822,-0.172884 -0.208256,-0.256832 -0.06982,-0.08688 -0.138098,-0.17506 -0.210323,-0.259932 -0.07036,-0.08754 -0.139591,-0.175979 -0.21239,-0.261483 -0.06899,-0.0858 -0.136919,-0.172469 -0.208256,-0.256315 -0.07012,-0.08727 -0.138806,-0.175721 -0.211357,-0.260966 -0.06967,-0.08668 -0.138264,-0.174217 -0.210323,-0.258899 -0.0705,-0.08773 -0.139953,-0.176318 -0.212907,-0.261999 -0.06893,-0.08572 -0.136467,-0.172548 -0.207739,-0.256315 -0.06974,-0.08679 -0.138183,-0.174627 -0.210323,-0.259416 -0.07012,-0.08727 -0.138806,-0.175721 -0.211357,-0.260966 -0.06959,-0.0866 -0.137835,-0.174338 -0.209808,-0.258924 -0.292619,-0.364132 -0.599963,-0.716013 -0.934827,-1.044898 -1.136799,-1.136798 -2.476494,-2.029823 -4.019393,-2.679423 -1.522498,-0.669899 -3.146556,-1.005106 -4.872054,-1.005106 z" /><g
     id="g2"
     transform="translate(0,0.12291611)"><path
       style="fill:#f9f9f9;stroke-width:0.160865"
       d="m 44.767293,59.469755 c -0.03217,0.248113 -0.05478,0.499286 -0.05478,0.756026 v 29.302084 c 0,3.23161 2.629198,5.86063 5.860624,5.86063 h 48.607369 c 3.231464,0 5.860634,-2.62902 5.860634,-5.86063 V 60.225781 c 0,-0.25674 -0.0226,-0.507913 -0.0548,-0.756026 z"
       id="path16" /><path
       id="path5"
       style="fill:#f44336;fill-opacity:1;stroke-width:0.160865"
       d="m 50.573142,54.365671 c -2.974716,0 -5.433052,2.229204 -5.805847,5.104081 h 60.219065 c -0.37279,-2.874877 -2.83112,-5.104081 -5.805854,-5.104081 z" /><g
       id="g1"><path
         style="fill:#798388;fill-opacity:1;stroke-width:0.160865"
         d="m 49.787227,83.040591 h 14.612028 c 0.816296,0 1.477946,0.661665 1.477946,1.477946 0,0.816083 -0.661866,1.477429 -1.477946,1.477429 H 49.787227 c -0.815895,0 -1.477429,-0.661148 -1.477429,-1.477429 0,-0.816281 0.661534,-1.477946 1.477429,-1.477946 z"
         id="path29" /><path
         style="fill:#798388;fill-opacity:1;stroke-width:0.160865"
         d="m 49.787227,77.783547 h 25.239286 c 0.816084,0 1.47743,0.661146 1.47743,1.47743 0,0.81628 -0.661138,1.477946 -1.47743,1.477946 H 49.787227 c -0.815893,0 -1.477429,-0.661666 -1.477429,-1.477946 0,-0.816284 0.661536,-1.47743 1.477429,-1.47743 z"
         id="path28" /><path
         style="fill:#798388;fill-opacity:1;stroke-width:0.160865"
         d="m 63.674235,67.326821 h 1.459859 v 4.985226 h -1.459859 z"
         id="path24" /><path
         style="fill:#798388;fill-opacity:1;stroke-width:0.160865"
         d="m 59.051778,67.326821 h 1.399914 v 3.721737 h 2.586923 v 1.263489 h -3.986837 z"
         id="path23" /><path
         id="path22"
         style="fill:#798388;fill-opacity:1;stroke-width:0.160865"
         d="m 73.856559,67.183161 c -0.36312,10e-7 -0.706103,0.07015 -1.028878,0.211356 -0.322776,0.13617 -0.604899,0.325326 -0.846977,0.567408 -0.237034,0.237032 -0.426188,0.516967 -0.567407,0.839742 -0.136162,0.317726 -0.204122,0.658521 -0.204122,1.021643 0,0.363116 0.06796,0.706102 0.204122,1.028878 0.141219,0.322769 0.330373,0.602704 0.567407,0.839742 0.242078,0.237032 0.524201,0.425676 0.846977,0.56689 0.322775,0.136169 0.665758,0.204639 1.028878,0.204639 0.36312,0 0.706103,-0.06847 1.028878,-0.204639 0.32277,-0.141214 0.602702,-0.329858 0.839742,-0.56689 0.242072,-0.237038 0.431234,-0.516973 0.567407,-0.839742 0.141213,-0.322776 0.211873,-0.665762 0.211873,-1.028878 0,-0.363122 -0.07066,-0.706104 -0.211873,-1.028878 -0.136173,-0.322776 -0.325335,-0.602704 -0.567407,-0.839742 -0.23704,-0.237038 -0.516972,-0.424003 -0.839742,-0.560173 -0.322775,-0.141215 -0.665758,-0.211356 -1.028878,-0.211356 z m 0,1.368909 c 0.171472,0 0.330721,0.03534 0.476973,0.105936 0.151304,0.06556 0.279594,0.156339 0.385507,0.272335 0.11096,0.115997 0.196838,0.252417 0.257348,0.408761 0.06051,0.151296 0.09095,0.312733 0.09095,0.484208 0,0.171473 -0.03044,0.335098 -0.09095,0.491443 -0.06052,0.151295 -0.146403,0.287721 -0.257348,0.40876 -0.105913,0.115999 -0.234203,0.20896 -0.385507,0.27957 -0.146252,0.06556 -0.305501,0.0987 -0.476973,0.0987 -0.171472,0 -0.332905,-0.03313 -0.484208,-0.0987 -0.146258,-0.07061 -0.274562,-0.163572 -0.385506,-0.27957 -0.105914,-0.12104 -0.191779,-0.257465 -0.257349,-0.40876 -0.06051,-0.156345 -0.09095,-0.31997 -0.09095,-0.491443 0,-0.171475 0.03044,-0.332912 0.09095,-0.484208 0.06557,-0.156344 0.151436,-0.292764 0.257349,-0.408761 0.110944,-0.115995 0.239248,-0.206765 0.385506,-0.272335 0.151303,-0.07061 0.312736,-0.105936 0.484208,-0.105936 z" /><path
         id="path21"
         style="fill:#798388;fill-opacity:1;stroke-width:0.160865"
         d="m 55.942924,67.183161 c -0.363121,10e-7 -0.706103,0.07015 -1.028878,0.211356 -0.322774,0.13617 -0.605413,0.325326 -0.847494,0.567408 -0.237032,0.237032 -0.426192,0.516967 -0.567407,0.839742 -0.136172,0.317726 -0.204122,0.658521 -0.204122,1.021643 0,0.363116 0.06795,0.706102 0.204122,1.028878 0.141215,0.322769 0.330375,0.602704 0.567407,0.839742 0.242081,0.237032 0.52472,0.425676 0.847494,0.56689 0.322775,0.136169 0.665757,0.204639 1.028878,0.204639 0.363117,0 0.706107,-0.06847 1.028877,-0.204639 0.322775,-0.141214 0.602188,-0.329858 0.839226,-0.56689 0.242075,-0.237038 0.431236,-0.516973 0.567407,-0.839742 0.141213,-0.322776 0.211873,-0.665762 0.211873,-1.028878 0,-0.363122 -0.07066,-0.706104 -0.211873,-1.028878 -0.136171,-0.322776 -0.325332,-0.602704 -0.567407,-0.839742 -0.237038,-0.237038 -0.516451,-0.424003 -0.839226,-0.560173 -0.32277,-0.141215 -0.66576,-0.211356 -1.028877,-0.211356 z m 0,1.368909 c 0.171469,0 0.330199,0.03534 0.476456,0.105936 0.151302,0.06556 0.279597,0.156339 0.385507,0.272335 0.110949,0.115997 0.196828,0.252417 0.257348,0.408761 0.06052,0.151296 0.09095,0.312733 0.09095,0.484208 0,0.171473 -0.03043,0.335098 -0.09095,0.491443 -0.06052,0.151295 -0.146399,0.287721 -0.257348,0.40876 -0.10591,0.115999 -0.234205,0.20896 -0.385507,0.27957 -0.146257,0.06556 -0.304987,0.0987 -0.476456,0.0987 -0.171474,0 -0.332907,-0.03313 -0.484209,-0.0987 -0.146252,-0.07061 -0.275074,-0.163572 -0.386022,-0.27957 -0.105914,-0.12104 -0.191789,-0.257465 -0.257349,-0.40876 -0.06052,-0.156345 -0.09043,-0.31997 -0.09043,-0.491443 0,-0.171475 0.02991,-0.332912 0.09043,-0.484208 0.06556,-0.156344 0.151438,-0.292764 0.257349,-0.408761 0.110948,-0.115995 0.23977,-0.206765 0.386022,-0.272335 0.151302,-0.07061 0.312735,-0.105936 0.484209,-0.105936 z" /><path
         style="fill:#798388;fill-opacity:1;stroke-width:0.160865"
         d="m 65.822424,66.441604 h 5.031217 v 1.346688 l -0.105936,0.105937 h -1.611788 v 4.417818 h -1.595768 v -4.417818 h -1.611788 l -0.105937,-0.105937 z"
         id="path20" /><path
         id="path19"
         style="fill:#798388;fill-opacity:1;stroke-width:0.160865"
         d="m 48.309798,66.441604 v 5.870443 h 1.573547 v -1.823145 h 1.066602 c 0.282423,0 0.552042,-0.05325 0.809253,-0.159163 0.262249,-0.110954 0.491639,-0.259363 0.68833,-0.445968 0.201734,-0.191648 0.360975,-0.413942 0.476973,-0.666109 0.121045,-0.252168 0.181385,-0.524494 0.181385,-0.817004 0,-0.287472 -0.06034,-0.552187 -0.181385,-0.794267 -0.115998,-0.242081 -0.275239,-0.448649 -0.476973,-0.620117 -0.196691,-0.171474 -0.426081,-0.30519 -0.68833,-0.40101 -0.257211,-0.09582 -0.52683,-0.14366 -0.809253,-0.14366 z m 1.611271,1.301213 h 0.91519 c 0.09078,0 0.176648,0.0174 0.257348,0.05271 0.08069,0.03026 0.151354,0.07591 0.211874,0.136425 0.06052,0.05548 0.10836,0.120721 0.14366,0.196371 0.03531,0.07565 0.05271,0.159334 0.05271,0.250114 0,0.09078 -0.0174,0.173947 -0.05271,0.249597 -0.0353,0.07565 -0.08314,0.143602 -0.14366,0.204122 -0.06052,0.05547 -0.131184,0.100599 -0.211874,0.135909 -0.08069,0.03026 -0.166568,0.04547 -0.257348,0.04547 h -0.91519 z" /></g></g><path
     id="path1"
     style="fill:#5c6bc0;stroke-width:1.09875"
     d="m 90.467346,66.441423 c -3.640942,0 -6.592362,2.951936 -6.592362,6.592879 0,3.640931 2.95142,6.592362 6.592362,6.592362 3.64094,0 6.59236,-2.951431 6.59236,-6.592362 0,-3.640943 -2.95142,-6.592879 -6.59236,-6.592879 z m 0,15.382523 c -3.050901,0 -5.432253,0.243202 -7.217647,0.991671 -1.911551,0.80132 -3.08266,2.159845 -3.707268,4.134631 -0.230858,0.7299 0.31595,1.466577 1.073837,1.466577 h 19.694922 c 0.76099,0 1.31172,-0.739846 1.07901,-1.473811 -0.62651,-1.974897 -1.801884,-3.332816 -3.716574,-4.132048 -1.78382,-0.744623 -4.16163,-0.98702 -7.20628,-0.98702 z" /><text
     xml:space="preserve"
     transform="matrix(0.80541237,0,0,0.80541237,-63.308707,-238.98269)"
     id="text1040"
     style="font-style:normal;font-variant:normal;font-weight:normal;font-stretch:normal;font-size:40px;line-height:1.25;font-family:PRIMETIME;-inkscape-font-specification:'PRIMETIME, Normal';font-variant-ligatures:normal;font-variant-caps:normal;font-variant-numeric:normal;font-variant-east-asian:normal;letter-spacing:0px;word-spacing:0px;white-space:pre;shape-inside:url(#rect1040);fill:#ffd500;fill-opacity:1;stroke:none"><tspan
       x="128.77148"
       y="458.12891"
       id="tspan1">ZZZ</tspan></text><text
     xml:space="preserve"
     transform="matrix(0.76126675,0,0,0.76126675,-56.936576,-37.849493)"
     id="text3057"
     style="font-style:normal;font-variant:normal;font-weight:normal;font-stretch:normal;font-size:40px;line-height:1.25;font-family:PRIMETIME;-inkscape-font-specification:'PRIMETIME, Normal';font-variant-ligatures:normal;font-variant-caps:normal;font-variant-numeric:normal;font-variant-east-asian:normal;letter-spacing:0px;word-spacing:0px;white-space:pre;shape-inside:url(#rect3058);fill:#ffd500;fill-opacity:1;stroke:none"><tspan
       x="124.65039"
       y="107.87109"
       id="tspan2">OZK</tspan></text></svg>
