<?xml version="1.0" encoding="UTF-8" standalone="no"?>
<!-- Created with Inkscape (http://www.inkscape.org/) -->

<svg
   width="67.73333mm"
   height="67.73333mm"
   viewBox="0 0 67.73333 67.73333"
   version="1.1"
   id="svg1"
   inkscape:version="1.3.2 (091e20e, 2023-11-25, custom)"
   sodipodi:docname="computer_animation_scalable.svg"
   xml:space="preserve"
   inkscape:export-filename="..\PNG\computer_animation_scalable3.png"
   inkscape:export-xdpi="1536.0001"
   inkscape:export-ydpi="1536.0001"
   xmlns:inkscape="http://www.inkscape.org/namespaces/inkscape"
   xmlns:sodipodi="http://sodipodi.sourceforge.net/DTD/sodipodi-0.dtd"
   xmlns="http://www.w3.org/2000/svg"
   xmlns:svg="http://www.w3.org/2000/svg"><sodipodi:namedview
     id="namedview1"
     pagecolor="#ffffff"
     bordercolor="#000000"
     borderopacity="0.25"
     inkscape:showpageshadow="2"
     inkscape:pageopacity="0.0"
     inkscape:pagecheckerboard="0"
     inkscape:deskcolor="#d1d1d1"
     inkscape:document-units="mm"
     inkscape:zoom="2.5918753"
     inkscape:cx="150.08438"
     inkscape:cy="138.70266"
     inkscape:window-width="1920"
     inkscape:window-height="991"
     inkscape:window-x="-9"
     inkscape:window-y="-9"
     inkscape:window-maximized="1"
     inkscape:current-layer="layer1" /><defs
     id="defs1" /><g
     inkscape:label="Livello 1"
     inkscape:groupmode="layer"
     id="layer1"
     transform="translate(-22.169884,-60.011581)"><path
       id="rect1"
       style="fill:#6f9171;stroke-width:0.386376"
       d="m 22.169884,60.011581 h 67.73333 v 67.733329 h -67.73333 z" /><path
       id="path2"
       style="fill:#000000;fill-opacity:0.12156863;stroke-width:1.45031"
       d="M 41.181127 78.302971 C 40.982079 78.302971 40.792887 78.342249 40.619404 78.409941 A 1.4855252 1.415924 0 0 0 40.610619 78.412525 C 40.249665 78.555853 39.961332 78.830331 39.810668 79.174236 A 1.4855252 1.415924 0 0 0 39.806534 79.186638 C 39.736284 79.351223 39.695946 79.530265 39.695946 79.718905 L 39.695946 93.878248 C 39.695946 94.069688 39.735881 94.252257 39.808084 94.418783 A 1.4855252 1.415924 0 0 0 39.811185 94.424468 C 39.881733 94.585079 39.981644 94.730787 40.10574 94.854932 L 72.995722 127.74491 L 89.903217 127.74491 L 89.903217 110.83742 L 71.967361 92.901563 C 71.961413 92.895615 71.953779 92.891392 71.947724 92.885543 A 1.4855252 1.415924 0 0 0 71.92292 92.86539 C 71.791332 92.743704 71.638667 92.643302 71.467133 92.574451 A 1.4855252 1.415924 0 0 0 71.441295 92.5667 C 71.367777 92.538684 71.292683 92.513555 71.213919 92.496937 L 64.538874 85.821892 C 64.422019 85.705037 64.281282 85.612161 64.128563 85.538705 A 1.4855254 1.4159242 0 0 0 64.094457 85.520102 C 63.996579 85.476108 63.894116 85.44013 63.785949 85.417265 L 57.110904 78.742221 C 56.994092 78.625409 56.853269 78.532462 56.700593 78.459034 A 1.4855257 1.4159244 0 0 0 56.666486 78.44043 C 56.474781 78.35427 56.26253 78.303131 56.036551 78.302971 L 41.181127 78.302971 z "
       transform="translate(-1.1666666e-7)" /><path
       d="M 70.8918,92.462326 H 56.036548 a 1.4855252,1.415924 0 0 0 -1.485526,1.415923 v 14.159241 a 1.4855252,1.415924 0 0 0 1.485526,1.41592 H 70.8918 a 1.4855252,1.415924 0 0 0 1.485525,-1.41592 V 93.878249 A 1.4855252,1.415924 0 0 0 70.8918,92.462326 Z m -1.485525,14.159234 h -11.8842 V 95.294172 h 11.8842 z M 41.181297,95.294172 a 1.4855252,1.415924 0 0 1 -1.485525,-1.415923 v -14.15924 a 1.4855252,1.415924 0 0 1 1.485525,-1.415924 h 14.855251 a 1.4855257,1.4159244 0 0 1 0,2.831848 H 42.666822 v 12.743316 a 1.4855252,1.415924 0 0 1 -1.485525,1.415923 z m 22.282877,-9.911467 a 1.4855254,1.4159242 0 0 1 0,2.831848 H 50.094447 v 12.743317 a 1.4855252,1.415924 0 0 1 -2.971049,0 V 86.798629 a 1.4855252,1.415924 0 0 1 1.485525,-1.415924 z"
       id="path1"
       style="fill:#405341;fill-opacity:1;stroke-width:1.45031" /></g></svg>
