<?xml version="1.0" encoding="UTF-8" standalone="no"?>
<!-- Created with Inkscape (http://www.inkscape.org/) -->

<svg
   width="67.73333mm"
   height="67.73333mm"
   viewBox="0 0 67.73333 67.73333"
   version="1.1"
   id="svg1"
   xml:space="preserve"
   inkscape:version="1.3.2 (091e20e, 2023-11-25, custom)"
   sodipodi:docname="2image_processing_computer_vision_scalable.svg"
   inkscape:export-filename="..\PNG\3image_processing_computer_vision_scalable.png"
   inkscape:export-xdpi="1536.0001"
   inkscape:export-ydpi="1536.0001"
   xmlns:inkscape="http://www.inkscape.org/namespaces/inkscape"
   xmlns:sodipodi="http://sodipodi.sourceforge.net/DTD/sodipodi-0.dtd"
   xmlns="http://www.w3.org/2000/svg"
   xmlns:svg="http://www.w3.org/2000/svg"><sodipodi:namedview
     id="namedview1"
     pagecolor="#ffffff"
     bordercolor="#000000"
     borderopacity="0.25"
     inkscape:showpageshadow="2"
     inkscape:pageopacity="0.0"
     inkscape:pagecheckerboard="0"
     inkscape:deskcolor="#d1d1d1"
     inkscape:document-units="mm"
     inkscape:zoom="1.8278663"
     inkscape:cx="136.22441"
     inkscape:cy="118.44411"
     inkscape:window-width="1920"
     inkscape:window-height="991"
     inkscape:window-x="-9"
     inkscape:window-y="-9"
     inkscape:window-maximized="1"
     inkscape:current-layer="layer1" /><defs
     id="defs1">
	

		
	
			
			
			
			
			
			
			
			
			
			
			
			
			
		</defs><g
     inkscape:label="Livello 1"
     inkscape:groupmode="layer"
     id="layer1"
     transform="translate(-44.339767,-70.332047)"><path
       id="rect1"
       style="fill:#be98c9;stroke-width:0.422098"
       d="M 44.339767,70.332047 H 112.0731 V 138.06538 H 44.339767 Z" /><path
       id="path29"
       style="fill:#000000;fill-opacity:0.12156863;stroke-width:0.0529808"
       d="M 63.189262 84.048522 C 62.918331 84.048522 62.664618 84.101292 62.427552 84.206652 C 62.190485 84.312015 61.98326 84.454945 61.806401 84.635567 C 61.633305 84.816189 61.49614 85.026742 61.39454 85.267569 C 61.359889 85.35153 61.338888 85.440291 61.316509 85.528535 L 59.949667 84.161694 L 59.046363 84.161694 L 58.605046 85.368339 L 57.398401 84.161694 L 56.460991 84.161694 C 56.408311 84.161694 56.368991 84.18423 56.342652 84.22939 L 55.729253 85.244315 L 54.691073 84.206136 C 54.687969 84.203032 54.683434 84.204265 54.680221 84.201485 C 54.652723 84.177783 54.622654 84.161694 54.587204 84.161694 L 53.65031 84.161694 L 53.65031 84.827803 L 52.984201 84.161694 L 51.894861 84.161694 L 51.894861 87.881363 L 65.024809 101.01131 C 64.91672 101.454 64.831002 101.90092 64.769011 102.35128 L 64.769011 102.3518 C 64.564198 103.8402 64.612173 105.36504 64.918356 106.8833 C 64.921921 106.89984 64.931425 106.91369 64.936443 106.9293 C 64.973053 107.1079 65.011817 107.28459 65.054782 107.46001 C 65.075134 107.54216 65.117119 107.61281 65.172604 107.66879 C 65.173136 107.66932 65.173102 107.67032 65.173637 107.67085 L 67.310458 109.80767 C 67.114539 110.06754 66.895234 110.3126 66.641248 110.52856 C 66.639292 110.53022 66.637523 110.53207 66.635564 110.53373 C 66.587974 110.57419 66.550952 110.62233 66.524459 110.6748 L 66.524459 110.67532 C 66.498095 110.72768 66.482223 110.7842 66.477434 110.84172 L 66.477434 110.84224 C 66.467986 110.95729 66.50245 111.07643 66.582854 111.17141 C 66.586628 111.17585 66.590837 111.17956 66.594739 111.18382 C 66.599269 111.18878 66.603475 111.194 66.608175 111.1988 L 66.609725 111.19984 C 66.612575 111.20266 66.615086 111.20588 66.617994 111.20862 L 68.58945 113.18008 C 68.454607 113.34306 68.4492 113.58384 68.588416 113.75369 L 68.588416 113.7542 L 68.593584 113.75937 C 68.601678 113.76889 68.609697 113.77807 68.618388 113.78676 C 68.618668 113.78704 68.619141 113.787 68.619422 113.78728 C 68.620888 113.78873 68.622074 113.79049 68.623556 113.79193 L 76.250481 121.41885 L 75.694442 121.41885 L 75.694442 121.41937 L 75.694442 121.78007 L 75.333224 121.41937 L 75.333224 121.41885 L 72.172693 121.41885 L 72.172693 121.41937 L 72.172693 121.67878 L 71.912761 121.41885 L 70.812053 121.41885 L 70.812053 121.41937 L 70.812053 122.32164 L 69.909266 121.41937 L 69.909266 121.41885 L 68.808558 121.41885 L 68.808558 121.41937 L 68.808558 122.70818 L 67.953313 121.85293 C 67.934213 121.83393 67.914285 121.81616 67.893885 121.79816 L 67.893885 121.79764 C 67.860959 121.76754 67.822909 121.74462 67.787431 121.71806 C 67.681006 121.63814 67.56689 121.56917 67.437065 121.52117 C 67.352399 121.48732 67.265597 121.46168 67.177133 121.44469 C 67.088658 121.42769 66.998548 121.41885 66.906348 121.41885 L 65.184489 121.41885 L 65.184489 121.41937 L 65.184489 121.93251 L 64.670826 121.41937 L 64.670826 121.41885 L 63.733932 121.41885 C 63.733215 121.41885 63.733094 121.41988 63.732382 121.41988 C 63.680605 121.4204 63.641631 121.44248 63.615593 121.48706 L 63.002194 122.50147 L 61.964531 121.46381 C 61.961133 121.46039 61.956169 121.46167 61.952645 121.45864 C 61.925415 121.43538 61.895662 121.41948 61.860661 121.41937 L 61.860145 121.41937 L 61.860145 121.41885 L 60.923251 121.41885 L 60.923251 121.41937 L 60.923251 122.76244 L 60.065422 121.90513 L 60.048369 121.88807 C 59.87151 121.71122 59.662363 121.57213 59.421534 121.47053 C 59.301119 121.41784 59.176825 121.37803 59.048947 121.35167 C 58.921072 121.32517 58.789639 121.31188 58.654139 121.31188 C 58.518689 121.31188 58.386814 121.32517 58.258814 121.35167 C 58.130806 121.37804 58.006641 121.41786 57.886227 121.47053 C 57.645398 121.57213 57.434846 121.71314 57.254224 121.89376 C 57.148023 121.99996 57.05918 122.12164 56.978789 122.25084 L 56.605168 121.87722 L 56.605168 121.8767 C 56.499805 121.78075 56.392262 121.69764 56.282191 121.62711 C 56.172116 121.55648 56.059543 121.49846 55.944743 121.45296 C 55.715245 121.35896 55.476291 121.31188 55.227991 121.31188 C 55.092541 121.31188 54.961279 121.32517 54.834217 121.35167 C 54.70716 121.37804 54.584297 121.41786 54.465764 121.47053 C 54.305561 121.54173 54.164314 121.63628 54.031682 121.74183 C 53.968012 121.79239 53.902509 121.84054 53.84513 121.89893 L 53.84513 121.89944 C 53.672033 122.0763 53.534351 122.28493 53.432752 122.52576 C 53.334976 122.76267 53.286055 123.01482 53.285991 123.28179 L 53.285991 123.2823 C 53.285991 123.54948 53.334911 123.80319 53.432752 124.04401 C 53.534351 124.28108 53.672033 124.49023 53.84513 124.67085 L 67.239661 138.06538 L 112.0731 138.06538 L 112.0731 92.554463 L 104.16816 84.649519 C 104.12769 84.609001 104.0826 84.576969 104.04 84.540482 C 104.00907 84.513966 103.97898 84.485793 103.94698 84.461417 C 103.83794 84.378469 103.72456 84.303987 103.60333 84.245926 L 103.60282 84.245926 C 103.47132 84.180076 103.33628 84.130503 103.19716 84.097615 C 103.058 84.064727 102.915 84.048522 102.76824 84.048522 C 102.49731 84.048522 102.24308 84.101292 102.00601 84.206652 C 101.88748 84.259334 101.77664 84.321208 101.67322 84.392687 C 101.56983 84.464087 101.47329 84.545331 101.38486 84.635567 C 101.31714 84.706269 101.25966 84.785629 101.20296 84.865527 L 100.49913 84.161694 L 99.449065 84.161694 L 99.449065 85.30736 L 98.303398 84.161694 L 97.276071 84.161694 L 97.276071 84.737369 L 96.700395 84.161694 L 95.611056 84.161694 L 95.611056 85.002469 L 95.058118 84.449532 C 94.828578 84.306538 94.593047 84.204847 94.352218 84.144641 C 94.115152 84.084431 93.876295 84.054207 93.635466 84.054207 C 93.488711 84.054207 93.341938 84.065733 93.195183 84.088313 C 93.048427 84.107123 92.907419 84.144523 92.771953 84.200968 C 92.636486 84.257408 92.512254 84.334642 92.399366 84.432478 C 92.29024 84.526548 92.200078 84.648862 92.128581 84.799381 C 92.099189 84.862804 92.079792 84.927881 92.062435 84.993168 L 91.518799 84.449532 C 91.289261 84.306538 91.054246 84.204847 90.813416 84.144641 C 90.57635 84.084431 90.337493 84.054207 90.096664 84.054207 C 89.949908 84.054207 89.803136 84.065733 89.656381 84.088313 C 89.509626 84.107123 89.368101 84.144523 89.232634 84.200968 C 89.097167 84.257408 88.973452 84.334642 88.860564 84.432478 C 88.775986 84.505387 88.706113 84.600574 88.644039 84.707397 L 88.098336 84.161694 L 85.146062 84.161694 L 85.146062 85.098071 L 84.666504 84.618513 C 84.455775 84.426587 84.235618 84.285594 84.00608 84.195283 C 83.776539 84.101215 83.537681 84.054207 83.289328 84.054207 C 83.153861 84.054207 83.02261 84.067635 82.895553 84.093998 C 82.768503 84.12036 82.64565 84.159687 82.5271 84.212337 C 82.290034 84.3177 82.083325 84.460629 81.906466 84.641251 C 81.73337 84.81811 81.595688 85.026742 81.494088 85.267569 C 81.473272 85.318006 81.46345 85.371819 81.447063 85.423632 L 80.667265 84.643835 L 80.653313 84.629882 C 80.476454 84.453023 80.267823 84.313937 80.026994 84.212337 C 79.786168 84.106974 79.530012 84.054207 79.259083 84.054207 C 78.98815 84.054207 78.732514 84.106977 78.491688 84.212337 C 78.250858 84.313937 78.03979 84.454945 77.859168 84.635567 C 77.687679 84.807056 77.551053 85.009595 77.44679 85.241214 L 76.736239 84.530664 C 76.709839 84.504264 76.68149 84.479216 76.65149 84.455216 C 76.57999 84.395006 76.500843 84.344164 76.414295 84.30277 C 76.327745 84.257622 76.237584 84.22355 76.14351 84.200968 C 76.053202 84.174628 75.964442 84.161694 75.877894 84.161694 L 73.93641 84.161694 L 73.93641 85.320279 L 73.210356 84.594226 C 73.191556 84.575426 73.171962 84.557249 73.151962 84.539449 C 73.020259 84.419037 72.867722 84.326953 72.694625 84.26298 C 72.525296 84.19525 72.348294 84.161694 72.163908 84.161694 L 70.442566 84.161694 L 70.442566 86.233402 L 68.370858 84.161694 L 65.4191 84.161694 L 65.4191 85.47996 L 64.588143 84.649003 C 64.549316 84.610174 64.506356 84.579726 64.46567 84.544616 C 64.43258 84.516062 64.400257 84.485959 64.365935 84.459867 C 64.257705 84.37758 64.145319 84.303631 64.02487 84.245926 C 63.761466 84.114225 63.482773 84.048522 63.189262 84.048522 z " /><path
       id="path20"
       style="font-size:5.64444px;font-family:PRIMETIME;-inkscape-font-specification:PRIMETIME;fill:#5b3666;stroke-width:0.873896"
       d="M 63.189262 84.048522 C 62.918329 84.048522 62.664618 84.101289 62.427552 84.206652 C 62.190485 84.312015 61.98326 84.454945 61.806401 84.635567 C 61.633305 84.816189 61.49614 85.02674 61.39454 85.267569 C 61.296703 85.504636 61.247779 85.758864 61.247779 86.029797 C 61.247779 86.304493 61.296703 86.562047 61.39454 86.802876 C 61.492377 87.039943 61.627621 87.247168 61.800717 87.424027 C 61.973813 87.600885 62.179117 87.739973 62.416183 87.841573 C 62.653249 87.943172 62.908882 87.994018 63.183578 87.994018 C 63.477088 87.994018 63.757701 87.930239 64.02487 87.802298 L 64.02487 87.881363 L 64.939026 87.881363 L 64.939026 85.741959 L 63.262643 85.741959 L 63.262643 86.70159 L 63.849687 86.70159 C 63.766902 86.791903 63.667133 86.863368 63.550481 86.916048 C 63.437592 86.964968 63.319124 86.989428 63.194947 86.989428 C 63.063243 86.989428 62.940933 86.964968 62.828044 86.916048 C 62.718918 86.863366 62.622991 86.793823 62.540206 86.707275 C 62.461186 86.616964 62.397407 86.515272 62.348487 86.402384 C 62.303334 86.285732 62.280791 86.163422 62.280791 86.035481 C 62.280791 85.907541 62.303334 85.78523 62.348487 85.668579 C 62.397405 85.551927 62.461184 85.450236 62.540206 85.363688 C 62.622991 85.277138 62.718918 85.207595 62.828044 85.154915 C 62.940933 85.102235 63.063243 85.07585 63.194947 85.07585 C 63.443302 85.07585 63.669226 85.181385 63.872425 85.39211 L 64.735938 84.81075 C 64.528976 84.562395 64.292041 84.373867 64.02487 84.245926 C 63.761464 84.114223 63.482773 84.048522 63.189262 84.048522 z M 102.76824 84.048522 C 102.49731 84.048522 102.24308 84.101289 102.00601 84.206652 C 101.76895 84.312015 101.56224 84.454945 101.38538 84.635567 C 101.21229 84.816189 101.07512 85.02674 100.97352 85.267569 C 100.87568 85.504636 100.82676 85.758864 100.82676 86.029797 C 100.82676 86.304493 100.87568 86.562047 100.97352 86.802876 C 101.07135 87.039943 101.2066 87.247168 101.3797 87.424027 C 101.55279 87.600885 101.7581 87.739973 101.99516 87.841573 C 102.23223 87.943172 102.48786 87.994018 102.76256 87.994018 C 103.05606 87.994018 103.33616 87.930239 103.60333 87.802298 L 103.60333 87.881363 L 104.51801 87.881363 L 104.51801 85.741959 L 102.84162 85.741959 L 102.84162 86.70159 L 103.42867 86.70159 C 103.34588 86.791903 103.24611 86.863368 103.12946 86.916048 C 103.01657 86.964968 102.89811 86.989428 102.77393 86.989428 C 102.64223 86.989428 102.51991 86.964968 102.40702 86.916048 C 102.2979 86.863366 102.20197 86.793823 102.11919 86.707275 C 102.04018 86.616964 101.97588 86.515272 101.92695 86.402384 C 101.88182 86.285732 101.85925 86.163422 101.85925 86.035481 C 101.85925 85.907541 101.88182 85.78523 101.92695 85.668579 C 101.97587 85.551927 102.04017 85.450236 102.11919 85.363688 C 102.20197 85.277138 102.2979 85.207595 102.40702 85.154915 C 102.51991 85.102235 102.64223 85.07585 102.77393 85.07585 C 103.02229 85.07585 103.2482 85.181385 103.4514 85.39211 L 104.31492 84.81075 C 104.10795 84.562395 103.8705 84.373867 103.60333 84.245926 C 103.33993 84.114223 103.06175 84.048522 102.76824 84.048522 z M 79.259083 84.054207 C 78.98815 84.054207 78.732516 84.106974 78.491688 84.212337 C 78.250858 84.313937 78.03979 84.454945 77.859168 84.635567 C 77.682309 84.812426 77.541301 85.021056 77.435938 85.261885 C 77.334338 85.498951 77.283493 85.753181 77.283493 86.024112 C 77.283493 86.295045 77.334338 86.551195 77.435938 86.792024 C 77.541301 87.032854 77.682309 87.241484 77.859168 87.418343 C 78.03979 87.595201 78.250858 87.73621 78.491688 87.841573 C 78.732516 87.943171 78.98815 87.994018 79.259083 87.994018 C 79.530014 87.994018 79.786166 87.943171 80.026994 87.841573 C 80.267823 87.73621 80.476454 87.595201 80.653313 87.418343 C 80.833935 87.241484 80.974943 87.032854 81.076543 86.792024 C 81.181906 86.551195 81.234673 86.295045 81.234673 86.024112 C 81.234673 85.753181 81.181906 85.497547 81.076543 85.256717 C 80.974943 85.015889 80.833935 84.806741 80.653313 84.629882 C 80.476454 84.453023 80.267823 84.313937 80.026994 84.212337 C 79.786166 84.106974 79.530014 84.054207 79.259083 84.054207 z M 83.289328 84.054207 C 83.018395 84.054207 82.764167 84.106974 82.5271 84.212337 C 82.290034 84.3177 82.083325 84.460629 81.906466 84.641251 C 81.73337 84.81811 81.595688 85.02674 81.494088 85.267569 C 81.396252 85.504636 81.347327 85.756943 81.347327 86.024112 C 81.347327 86.291283 81.396252 86.545511 81.494088 86.78634 C 81.595688 87.023406 81.73337 87.232036 81.906466 87.412658 C 82.083325 87.589517 82.290034 87.730525 82.5271 87.835888 C 82.764167 87.941251 83.018395 87.994018 83.289328 87.994018 C 83.594127 87.994018 83.879987 87.928317 84.147156 87.796614 C 84.414327 87.661148 84.653183 87.46353 84.863908 87.203885 L 84.034502 86.515039 C 83.823776 86.793497 83.575313 86.933101 83.289328 86.933101 C 83.16515 86.933101 83.050525 86.90864 82.945163 86.85972 C 82.839799 86.810802 82.747199 86.744585 82.668177 86.6618 C 82.592916 86.579015 82.532979 86.483088 82.487826 86.373962 C 82.446433 86.261073 82.425814 86.144528 82.425814 86.024112 C 82.425814 85.903698 82.448357 85.789073 82.49351 85.679947 C 82.538666 85.570821 82.598603 85.474895 82.673861 85.39211 C 82.752884 85.309326 82.844968 85.243109 82.95033 85.194189 C 83.055693 85.145269 83.170834 85.120808 83.295012 85.120808 C 83.475634 85.120808 83.663645 85.190869 83.859319 85.330098 L 84.666504 84.618513 C 84.455779 84.426602 84.23562 84.285594 84.00608 84.195283 C 83.776539 84.10121 83.537683 84.054207 83.289328 84.054207 z M 90.096664 84.054207 C 89.949908 84.054207 89.803136 84.065733 89.656381 84.088313 C 89.509626 84.107126 89.368101 84.144521 89.232634 84.200968 C 89.097167 84.257413 88.973452 84.334642 88.860564 84.432478 C 88.751438 84.526552 88.660758 84.648862 88.589262 84.799381 C 88.517767 84.953662 88.482292 85.113368 88.482292 85.278938 C 88.482292 85.512242 88.523531 85.70077 88.606316 85.843762 C 88.689101 85.982992 88.799883 86.095694 88.939112 86.182242 C 89.006845 86.223635 89.07831 86.26103 89.153569 86.294897 C 89.228828 86.325004 89.3099 86.353306 89.396448 86.379646 C 89.479234 86.40222 89.564148 86.424762 89.650696 86.447342 C 89.737244 86.466156 89.825485 86.485373 89.915796 86.504186 C 89.983526 86.519233 90.049227 86.534092 90.1132 86.549145 C 90.18093 86.560438 90.247148 86.579132 90.311121 86.605472 C 90.333701 86.612999 90.358162 86.622608 90.384502 86.633894 C 90.425897 86.652708 90.465214 86.677168 90.502841 86.707275 C 90.540467 86.733614 90.559168 86.77101 90.559168 86.819929 C 90.559168 86.887662 90.542392 86.938508 90.508525 86.972375 C 90.478419 87.006242 90.440507 87.032627 90.395354 87.05144 C 90.3502 87.066493 90.299872 87.074178 90.243425 87.074178 C 90.217085 87.077911 90.1907 87.079862 90.16436 87.079862 L 90.09098 87.079862 C 89.910358 87.079862 89.737201 87.057319 89.571631 87.012166 C 89.406061 86.96701 89.240591 86.902714 89.075021 86.819929 C 89.056208 86.808643 89.035072 86.799551 89.012492 86.792024 C 88.993679 86.780738 88.963969 86.765362 88.922575 86.746549 C 88.892469 86.795468 88.854557 86.861168 88.809404 86.943953 C 88.764247 87.022975 88.715323 87.105968 88.662643 87.192517 C 88.606199 87.290353 88.557275 87.378595 88.515882 87.457617 C 88.474489 87.532906 88.45387 87.572739 88.45387 87.576472 C 88.45387 87.583999 88.457712 87.595009 88.465239 87.610062 C 88.476532 87.621355 88.491384 87.632882 88.510198 87.644169 C 88.521484 87.647962 88.531093 87.651804 88.53862 87.655537 C 88.546173 87.659271 88.551939 87.661222 88.555673 87.661222 C 88.773925 87.766585 89.001252 87.849062 89.238318 87.909269 C 89.479148 87.969475 89.721848 87.999702 89.966439 87.999702 C 90.162113 87.999702 90.35781 87.981008 90.553484 87.943375 C 90.752921 87.909508 90.931841 87.845213 91.089885 87.751139 C 91.251692 87.657065 91.381689 87.531428 91.479525 87.373384 C 91.581125 87.21534 91.631971 87.011957 91.631971 86.763602 C 91.631971 86.680817 91.624286 86.595902 91.609233 86.509354 C 91.597946 86.422806 91.575404 86.342251 91.541537 86.266992 C 91.496382 86.165392 91.434007 86.078556 91.354985 86.007059 C 91.279726 85.931799 91.193406 85.86802 91.095569 85.81534 C 91.001495 85.758896 90.899804 85.713814 90.790678 85.679947 C 90.681553 85.642314 90.574097 85.610169 90.468734 85.583829 C 90.363371 85.553723 90.260276 85.529262 90.158676 85.510449 C 90.060839 85.487875 89.97016 85.465333 89.887374 85.442753 C 89.800825 85.420173 89.731282 85.399554 89.678602 85.380741 C 89.629682 85.358168 89.598054 85.331783 89.583 85.301676 C 89.564187 85.271569 89.554578 85.239424 89.554578 85.205558 C 89.554578 85.149116 89.567512 85.105957 89.593852 85.07585 C 89.623959 85.04575 89.658028 85.023207 89.695655 85.008154 C 89.737049 84.9931 89.780209 84.985416 89.825363 84.985416 C 89.874285 84.981683 89.917961 84.979732 89.955587 84.979732 C 90.147498 84.979732 90.325902 85.008034 90.491472 85.064481 C 90.660805 85.117162 90.841647 85.192471 91.033558 85.290307 C 91.120106 85.143552 91.200661 85.004465 91.27592 84.872762 C 91.351179 84.737295 91.432251 84.596287 91.518799 84.449532 C 91.289259 84.306538 91.054246 84.204847 90.813416 84.144641 C 90.57635 84.084434 90.337493 84.054207 90.096664 84.054207 z M 93.635466 84.054207 C 93.488711 84.054207 93.341938 84.065733 93.195183 84.088313 C 93.048427 84.107126 92.907419 84.144521 92.771953 84.200968 C 92.636486 84.257413 92.512254 84.334642 92.399366 84.432478 C 92.29024 84.526552 92.200078 84.648862 92.128581 84.799381 C 92.057085 84.953662 92.021094 85.113368 92.021094 85.278938 C 92.021094 85.512242 92.062849 85.70077 92.145635 85.843762 C 92.228419 85.982992 92.339201 86.095694 92.478431 86.182242 C 92.546164 86.223635 92.617629 86.26103 92.692888 86.294897 C 92.768147 86.325004 92.849219 86.353306 92.935767 86.379646 C 93.018552 86.40222 93.102951 86.424762 93.189498 86.447342 C 93.276046 86.466156 93.364804 86.485373 93.455115 86.504186 C 93.522852 86.519233 93.588553 86.534092 93.652519 86.549145 C 93.72025 86.560438 93.78595 86.579132 93.849923 86.605472 C 93.872503 86.612999 93.896964 86.622608 93.923304 86.633894 C 93.964693 86.652708 94.004526 86.677168 94.04216 86.707275 C 94.079786 86.733614 94.098487 86.77101 94.098487 86.819929 C 94.098487 86.887662 94.081194 86.938508 94.047327 86.972375 C 94.017221 87.006242 93.979826 87.032627 93.934673 87.05144 C 93.889519 87.066493 93.838674 87.074178 93.782227 87.074178 C 93.755887 87.077911 93.729502 87.079862 93.703162 87.079862 L 93.629782 87.079862 C 93.44916 87.079862 93.276003 87.057319 93.110434 87.012166 C 92.944864 86.96701 92.779393 86.902714 92.613823 86.819929 C 92.59501 86.808643 92.574391 86.799551 92.551811 86.792024 C 92.532998 86.780738 92.502771 86.765362 92.461378 86.746549 C 92.431272 86.795468 92.393876 86.861168 92.348723 86.943953 C 92.303566 87.022975 92.254642 87.105968 92.201962 87.192517 C 92.145519 87.290353 92.096594 87.378595 92.055201 87.457617 C 92.013807 87.532906 91.993189 87.572739 91.993189 87.576472 C 91.993189 87.583999 91.996514 87.595009 92.004041 87.610062 C 92.015328 87.621355 92.030703 87.632882 92.049516 87.644169 C 92.060803 87.647962 92.069895 87.651804 92.077422 87.655537 C 92.084975 87.659271 92.090742 87.661222 92.094475 87.661222 C 92.312726 87.766585 92.540571 87.849062 92.777637 87.909269 C 93.018466 87.969475 93.261166 87.999702 93.505758 87.999702 C 93.701432 87.999702 93.897129 87.981008 94.092802 87.943375 C 94.292239 87.909508 94.470643 87.845213 94.628687 87.751139 C 94.790494 87.657065 94.92049 87.531428 95.018327 87.373384 C 95.119927 87.21534 95.170773 87.011957 95.170773 86.763602 C 95.170773 86.680817 95.163089 86.595902 95.148035 86.509354 C 95.136749 86.422806 95.114206 86.342251 95.080339 86.266992 C 95.035183 86.165392 94.973326 86.078556 94.894304 86.007059 C 94.819045 85.931799 94.732208 85.86802 94.634371 85.81534 C 94.540298 85.758896 94.439123 85.713814 94.329997 85.679947 C 94.220871 85.642314 94.113416 85.610169 94.008053 85.583829 C 93.902691 85.553723 93.799078 85.529262 93.697478 85.510449 C 93.599641 85.487875 93.509478 85.465333 93.426693 85.442753 C 93.340143 85.420173 93.2706 85.399554 93.21792 85.380741 C 93.169001 85.358168 93.136856 85.331783 93.121802 85.301676 C 93.102989 85.271569 93.093897 85.239424 93.093897 85.205558 C 93.093897 85.149116 93.106831 85.105957 93.133171 85.07585 C 93.163278 85.04575 93.197347 85.023207 93.234974 85.008154 C 93.276368 84.9931 93.319528 84.985416 93.364682 84.985416 C 93.413596 84.981683 93.456756 84.979732 93.494389 84.979732 C 93.6863 84.979732 93.86522 85.008034 94.030791 85.064481 C 94.200124 85.117162 94.380449 85.192471 94.57236 85.290307 C 94.658908 85.143552 94.73998 85.004465 94.815239 84.872762 C 94.890498 84.737295 94.97157 84.596287 95.058118 84.449532 C 94.828578 84.306538 94.593047 84.204847 94.352218 84.144641 C 94.115152 84.084434 93.876295 84.054207 93.635466 84.054207 z M 51.894861 84.161694 L 51.894861 87.881363 L 52.984201 87.881363 L 52.984201 84.161694 L 51.894861 84.161694 z M 53.65031 84.161694 L 53.65031 87.881363 L 54.700375 87.881363 L 54.700375 86.142451 L 55.377336 87.260213 C 55.396149 87.290319 55.42061 87.310938 55.450717 87.322224 C 55.480823 87.329751 55.505284 87.333593 55.524097 87.333593 C 55.546671 87.333593 55.573056 87.329751 55.603162 87.322224 C 55.633269 87.310931 55.657729 87.290313 55.676543 87.260213 L 56.354021 86.142451 L 56.354021 87.881363 L 57.398401 87.881363 L 57.398401 84.161694 L 56.460991 84.161694 C 56.408308 84.161694 56.368992 84.184237 56.342652 84.22939 L 55.524097 85.583829 L 54.711227 84.22939 C 54.677362 84.184237 54.636123 84.161694 54.587204 84.161694 L 53.65031 84.161694 z M 59.046363 84.161694 L 57.686239 87.881363 L 58.781263 87.881363 L 58.967298 87.378552 L 60.028732 87.378552 L 60.214767 87.881363 L 61.309791 87.881363 L 59.949667 84.161694 L 59.046363 84.161694 z M 65.4191 84.161694 L 65.4191 87.881363 L 68.370858 87.881363 L 68.370858 86.943953 L 66.400953 86.943953 L 66.400953 86.487133 L 68.263888 86.487133 L 68.263888 85.55024 L 66.400953 85.55024 L 66.400953 85.092903 L 68.370858 85.092903 L 68.370858 84.161694 L 65.4191 84.161694 z M 70.442566 84.161694 L 70.442566 87.881363 L 71.509168 87.881363 L 71.509168 86.769287 L 72.163908 86.769287 C 72.348294 86.769287 72.527214 86.737142 72.70031 86.673168 C 72.873406 86.605435 73.024021 86.515272 73.151962 86.402384 C 73.283665 86.285732 73.388682 86.14805 73.467705 85.990006 C 73.546727 85.831961 73.586561 85.659321 73.586561 85.471175 C 73.586561 85.28679 73.546727 85.115555 73.467705 84.957511 C 73.388682 84.795704 73.283665 84.656099 73.151962 84.539449 C 73.020259 84.419037 72.867722 84.326953 72.694625 84.26298 C 72.525294 84.195246 72.348294 84.161694 72.163908 84.161694 L 70.442566 84.161694 z M 73.93641 84.161694 L 73.93641 87.881363 L 75.025749 87.881363 L 75.025749 86.746549 L 75.686174 86.746549 L 76.273218 87.881363 L 77.447307 87.881363 L 76.578109 86.210148 C 76.721101 86.101022 76.833805 85.967699 76.91659 85.809655 C 76.999375 85.647848 77.040613 85.476613 77.040613 85.295991 C 77.040613 85.183103 77.023837 85.07232 76.98997 84.963195 C 76.956106 84.854069 76.907183 84.752378 76.843209 84.658304 C 76.790528 84.583044 76.726749 84.515423 76.65149 84.455216 C 76.579994 84.395009 76.500843 84.344164 76.414295 84.30277 C 76.327747 84.257618 76.237584 84.223548 76.14351 84.200968 C 76.0532 84.174628 75.964442 84.161694 75.877894 84.161694 L 73.93641 84.161694 z M 85.146062 84.161694 L 85.146062 87.881363 L 88.098336 87.881363 L 88.098336 86.943953 L 86.128431 86.943953 L 86.128431 86.487133 L 87.990849 86.487133 L 87.990849 85.55024 L 86.128431 85.55024 L 86.128431 85.092903 L 88.098336 85.092903 L 88.098336 84.161694 L 85.146062 84.161694 z M 95.611056 84.161694 L 95.611056 87.881363 L 96.700395 87.881363 L 96.700395 84.161694 L 95.611056 84.161694 z M 97.276071 84.161694 L 97.276071 87.881363 L 98.326136 87.881363 L 98.326136 86.08044 L 99.471802 87.881363 L 100.49913 87.881363 L 100.49913 84.161694 L 99.449065 84.161694 L 99.449065 85.97347 L 98.303398 84.161694 L 97.276071 84.161694 z M 75.025749 85.030891 L 75.573519 85.030891 C 75.671357 85.030891 75.755755 85.064444 75.827251 85.132177 C 75.898747 85.19991 75.934738 85.282904 75.934738 85.380741 C 75.934738 85.478578 75.898747 85.562976 75.827251 85.634472 C 75.755755 85.702205 75.671357 85.736275 75.573519 85.736275 L 75.025749 85.736275 L 75.025749 85.030891 z M 71.526221 85.064481 L 72.130319 85.064481 C 72.224393 85.064481 72.304948 85.104315 72.372681 85.183337 C 72.444178 85.258596 72.480168 85.342994 72.480168 85.437068 C 72.480168 85.527379 72.446099 85.608451 72.378366 85.679947 C 72.310632 85.747681 72.228156 85.781233 72.130319 85.781233 L 71.526221 85.781233 L 71.526221 85.064481 z M 79.259083 85.07585 C 79.387022 85.07585 79.505492 85.102235 79.614616 85.154915 C 79.727506 85.203833 79.823432 85.271455 79.902454 85.358003 C 79.985241 85.444551 80.049537 85.546243 80.094691 85.662894 C 80.139843 85.775783 80.162387 85.896174 80.162387 86.024112 C 80.162387 86.152053 80.139843 86.274363 80.094691 86.391015 C 80.049535 86.503904 79.985239 86.605595 79.902454 86.695906 C 79.823432 86.782455 79.727506 86.851999 79.614616 86.904679 C 79.505492 86.953599 79.387022 86.978059 79.259083 86.978059 C 79.131142 86.978059 79.010753 86.953599 78.897864 86.904679 C 78.788738 86.851998 78.692812 86.782454 78.610027 86.695906 C 78.531006 86.605595 78.467227 86.503904 78.418307 86.391015 C 78.373154 86.274363 78.350611 86.152053 78.350611 86.024112 C 78.350611 85.896174 78.373154 85.775783 78.418307 85.662894 C 78.467226 85.546243 78.531005 85.444551 78.610027 85.358003 C 78.692812 85.271457 78.788738 85.203835 78.897864 85.154915 C 79.010753 85.102235 79.131142 85.07585 79.259083 85.07585 z M 59.498015 85.736275 L 59.73521 86.458711 L 59.26082 86.458711 L 59.498015 85.736275 z " /><path
       id="path37"
       style="font-size:5.64444px;font-family:PRIMETIME;-inkscape-font-specification:PRIMETIME;fill:#5b3666;stroke-width:0.873896"
       d="M 92.035047 121.31136 C 91.888291 121.31136 91.742036 121.32287 91.595281 121.34547 C 91.448525 121.36426 91.307 121.40166 91.171534 121.45813 C 91.036067 121.51457 90.911835 121.5918 90.798947 121.68964 C 90.689821 121.78371 90.599658 121.90602 90.528162 122.05654 C 90.456666 122.21082 90.421192 122.37105 90.421192 122.53661 C 90.421192 122.76992 90.462431 122.95793 90.545215 123.10092 C 90.628001 123.24015 90.738782 123.35285 90.878012 123.4394 C 90.945745 123.48079 91.01721 123.5187 91.092469 123.55257 C 91.167728 123.5827 91.2488 123.61099 91.335348 123.63732 C 91.418133 123.65985 91.503048 123.68242 91.589596 123.70502 C 91.676144 123.72382 91.764385 123.74254 91.854696 123.76134 C 91.922426 123.77634 91.988127 123.79124 92.0521 123.8063 C 92.119837 123.81757 92.186054 123.8363 92.250021 123.86263 C 92.272601 123.87016 92.297061 123.87979 92.323401 123.89105 C 92.364797 123.90985 92.404114 123.9343 92.44174 123.96443 C 92.479367 123.99076 92.498068 124.02815 92.498068 124.07709 C 92.498068 124.14482 92.481292 124.19567 92.447425 124.22953 C 92.417319 124.2634 92.379407 124.2898 92.334253 124.3086 C 92.2891 124.32366 92.238255 124.33133 92.181808 124.33133 C 92.155468 124.33533 92.1296 124.33702 92.10326 124.33702 L 92.029879 124.33702 C 91.849257 124.33702 91.676101 124.31446 91.510531 124.26932 C 91.344961 124.22416 91.178974 124.16038 91.013404 124.0776 C 90.994591 124.06634 90.973972 124.05671 90.951392 124.04918 C 90.932579 124.03791 90.902868 124.02302 90.861475 124.00422 C 90.831369 124.05314 90.793457 124.11885 90.748304 124.20163 C 90.703147 124.28065 90.654223 124.36364 90.601543 124.45019 C 90.545099 124.54803 90.496175 124.63627 90.454782 124.71529 C 90.413388 124.79031 90.39277 124.83015 90.39277 124.83415 C 90.39277 124.84168 90.396612 124.85267 90.404139 124.86774 C 90.415432 124.87907 90.430284 124.89058 90.449097 124.90184 C 90.460384 124.90538 90.469993 124.90921 90.477519 124.91321 C 90.485073 124.91721 90.490839 124.9189 90.494573 124.9189 C 90.712824 125.02426 90.940152 125.10726 91.177218 125.16746 C 91.418047 125.22766 91.660747 125.25789 91.905339 125.25789 L 91.905339 125.25738 C 92.101013 125.25738 92.29671 125.23865 92.492383 125.20105 C 92.691821 125.16718 92.870741 125.10289 93.028785 125.00881 C 93.190592 124.91474 93.320588 124.7891 93.418425 124.63106 C 93.520025 124.47302 93.570354 124.26964 93.570354 124.02128 C 93.570354 123.93849 93.563186 123.85357 93.548133 123.76703 C 93.536846 123.68048 93.514303 123.59993 93.480437 123.52467 C 93.435281 123.42307 93.372907 123.33623 93.293885 123.26473 C 93.218626 123.18946 93.132306 123.12568 93.034469 123.07301 C 92.940395 123.01657 92.838704 122.97149 92.729578 122.93762 C 92.620452 122.89995 92.512997 122.86784 92.407634 122.8415 C 92.302271 122.81137 92.199175 122.78692 92.097575 122.76812 C 91.999739 122.74559 91.909059 122.72303 91.826274 122.70043 C 91.739725 122.67783 91.670181 122.65721 91.617501 122.63842 C 91.568581 122.61588 91.536953 122.58948 91.5219 122.55935 C 91.503087 122.52922 91.493478 122.4971 91.493478 122.46323 C 91.493478 122.40681 91.506412 122.36366 91.532752 122.33352 C 91.562859 122.30346 91.596928 122.28089 91.634555 122.26583 C 91.675949 122.25076 91.719109 122.24309 91.764262 122.24309 C 91.813184 122.23909 91.856344 122.23741 91.89397 122.23741 C 92.085881 122.23741 92.264802 122.26569 92.430372 122.32216 C 92.599705 122.37484 92.780546 122.44963 92.972457 122.54746 C 93.059005 122.40071 93.139561 122.26162 93.21482 122.12992 C 93.290078 121.99445 93.371151 121.85345 93.457699 121.70669 C 93.228159 121.56369 92.993145 121.462 92.752316 121.4018 C 92.515249 121.3416 92.275876 121.31136 92.035047 121.31136 z M 55.227991 121.3124 C 54.957058 121.3124 54.70283 121.36516 54.465764 121.47053 C 54.228697 121.57589 54.021988 121.71882 53.84513 121.89944 C 53.672033 122.0763 53.534351 122.28493 53.432752 122.52576 C 53.334915 122.76283 53.285991 123.01514 53.285991 123.2823 C 53.285991 123.54948 53.334915 123.80319 53.432752 124.04401 C 53.534351 124.28108 53.672033 124.49023 53.84513 124.67085 C 54.021988 124.84771 54.228697 124.98871 54.465764 125.09408 C 54.70283 125.19944 54.957058 125.25221 55.227991 125.25221 C 55.53279 125.25221 55.81865 125.1865 56.08582 125.0548 C 56.35299 124.91934 56.591847 124.72172 56.802572 124.46208 L 55.973165 123.77323 C 55.76244 124.05169 55.513976 124.19078 55.227991 124.19078 C 55.103813 124.19078 54.989189 124.16633 54.883826 124.11739 C 54.778463 124.06847 54.685862 124.00278 54.606841 123.91999 C 54.531579 123.8372 54.471643 123.74127 54.42649 123.63215 C 54.385097 123.51926 54.364478 123.40272 54.364478 123.2823 C 54.364478 123.16189 54.387021 123.04726 54.432174 122.93814 C 54.47733 122.82901 54.537266 122.73309 54.612525 122.6503 C 54.691547 122.56753 54.784148 122.50131 54.889511 122.45238 C 54.994874 122.40345 55.109498 122.379 55.233676 122.379 C 55.414298 122.379 55.602309 122.44855 55.797982 122.58777 L 56.605168 121.8767 C 56.394442 121.68479 56.174284 121.54379 55.944743 121.45347 C 55.715204 121.3594 55.476346 121.3124 55.227991 121.3124 z M 58.654139 121.3124 C 58.383206 121.3124 58.127056 121.36516 57.886227 121.47053 C 57.645398 121.57213 57.434846 121.71314 57.254224 121.89376 C 57.077365 122.07062 56.936357 122.27925 56.830994 122.52008 C 56.729394 122.75714 56.678549 123.01137 56.678549 123.2823 C 56.678549 123.55324 56.729394 123.80887 56.830994 124.0497 C 56.936357 124.29053 57.077365 124.49967 57.254224 124.67653 C 57.434846 124.85339 57.645398 124.9944 57.886227 125.09976 C 58.127056 125.20136 58.383206 125.25221 58.654139 125.25221 C 58.925071 125.25221 59.180705 125.20136 59.421534 125.09976 C 59.662363 124.9944 59.87151 124.85339 60.048369 124.67653 C 60.228991 124.49967 60.369999 124.29053 60.471599 124.0497 C 60.576961 123.80887 60.629729 123.55324 60.629729 123.2823 C 60.629729 123.01137 60.576961 122.75522 60.471599 122.51439 C 60.369999 122.27356 60.228991 122.06493 60.048369 121.88807 C 59.87151 121.71122 59.662363 121.57213 59.421534 121.47053 C 59.180705 121.36516 58.925071 121.3124 58.654139 121.3124 z M 97.634705 121.3124 C 97.363772 121.3124 97.107622 121.36516 96.866793 121.47053 C 96.625965 121.57213 96.415411 121.71314 96.234791 121.89376 C 96.057931 122.07062 95.916923 122.27925 95.811561 122.52008 C 95.709961 122.75714 95.659115 123.01137 95.659115 123.2823 C 95.659115 123.55324 95.709961 123.80887 95.811561 124.0497 C 95.916923 124.29053 96.057931 124.49967 96.234791 124.67653 C 96.415411 124.85339 96.625965 124.9944 96.866793 125.09976 C 97.107622 125.20136 97.363772 125.25221 97.634705 125.25221 C 97.905638 125.25221 98.161271 125.20136 98.4021 125.09976 C 98.642929 124.9944 98.852076 124.85339 99.028935 124.67653 C 99.209557 124.49967 99.350565 124.29053 99.452165 124.0497 C 99.557528 123.80887 99.610295 123.55324 99.610295 123.2823 C 99.610295 123.01137 99.557528 122.75522 99.452165 122.51439 C 99.350565 122.27356 99.209557 122.06493 99.028935 121.88807 C 98.852076 121.71122 98.642929 121.57213 98.4021 121.47053 C 98.161271 121.36516 97.905638 121.3124 97.634705 121.3124 z M 60.923251 121.41937 L 60.923251 125.13904 L 61.972799 125.13904 L 61.972799 123.40064 L 62.650277 124.5184 C 62.669091 124.54854 62.693551 124.56915 62.723658 124.58042 C 62.753764 124.58795 62.778225 124.59178 62.797038 124.59178 C 62.819612 124.59178 62.845997 124.58795 62.876103 124.58042 C 62.90621 124.56915 62.93067 124.54854 62.949484 124.5184 L 63.626962 123.40064 L 63.626962 125.13904 L 64.670826 125.13904 L 64.670826 121.41937 L 63.733932 121.41937 C 63.68125 121.41937 63.641933 121.44193 63.615593 121.48706 L 62.797038 122.84202 L 61.984168 121.48706 C 61.950303 121.44193 61.909065 121.41937 61.860145 121.41937 L 60.923251 121.41937 z M 65.184489 121.41937 L 65.184489 125.13904 L 66.251608 125.13904 L 66.251608 124.02748 L 66.906348 124.02748 C 67.090733 124.02748 67.269653 123.99536 67.44275 123.93136 C 67.615844 123.86363 67.765944 123.77346 67.893885 123.66057 C 68.025588 123.54392 68.131123 123.40624 68.210145 123.2482 C 68.289167 123.09016 68.328484 122.917 68.328484 122.72885 C 68.328484 122.54446 68.289167 122.37322 68.210145 122.21519 C 68.131123 122.05338 68.025588 121.91429 67.893885 121.79764 C 67.762181 121.67726 67.610161 121.58517 67.437065 121.52117 C 67.267732 121.45344 67.090733 121.41937 66.906348 121.41937 L 65.184489 121.41937 z M 68.808558 121.41937 L 68.808558 123.76186 C 68.808558 123.93495 68.83686 124.09902 68.893307 124.2533 C 68.949751 124.40382 69.028385 124.54098 69.129985 124.66516 C 69.231585 124.78558 69.350569 124.89111 69.486036 124.98142 C 69.621502 125.07176 69.767758 125.13938 69.925802 125.18451 C 69.993535 125.20338 70.063596 125.2182 70.135092 125.22947 C 70.210351 125.24454 70.285658 125.25221 70.360918 125.25221 C 70.436177 125.25221 70.509563 125.24454 70.581059 125.22947 C 70.656319 125.21814 70.727783 125.20331 70.795517 125.18451 C 70.95356 125.13935 71.100333 125.07173 71.2358 124.98142 C 71.375029 124.89111 71.493496 124.78558 71.591334 124.66516 C 71.692931 124.54098 71.771565 124.40382 71.828012 124.2533 C 71.884458 124.09902 71.912761 123.93495 71.912761 123.76186 L 71.912761 121.41937 L 70.812053 121.41937 L 70.812053 123.70553 C 70.812053 123.76576 70.799119 123.82237 70.772779 123.87503 C 70.750199 123.92391 70.718054 123.96707 70.676661 124.00474 C 70.63527 124.04234 70.586346 124.07257 70.5299 124.09517 C 70.477218 124.11777 70.421124 124.12876 70.360918 124.12876 C 70.300712 124.12876 70.242181 124.11777 70.185735 124.09517 C 70.133054 124.07257 70.086051 124.04234 70.044658 124.00474 C 70.003265 123.96713 69.969195 123.92397 69.942855 123.87503 C 69.920275 123.82234 69.909266 123.76573 69.909266 123.70553 L 69.909266 121.41937 L 68.808558 121.41937 z M 72.172693 121.41937 L 72.172693 122.29425 L 72.26261 122.38468 L 73.222242 122.38468 L 73.222242 125.13904 L 74.283676 125.13904 L 74.283676 122.38468 L 75.243307 122.38468 L 75.333224 122.29425 L 75.333224 121.41937 L 72.172693 121.41937 z M 75.694442 121.41937 L 75.694442 125.13904 L 78.646717 125.13904 L 78.646717 124.20214 L 76.676811 124.20214 L 76.676811 123.74532 L 78.53923 123.74532 L 78.53923 122.80791 L 76.676811 122.80791 L 76.676811 122.35109 L 78.646717 122.35109 L 78.646717 121.41937 L 75.694442 121.41937 z M 79.154696 121.41937 L 79.154696 125.13904 L 80.244035 125.13904 L 80.244035 124.00474 L 80.90446 124.00474 L 81.491504 125.13904 L 82.665593 125.13904 L 81.796395 123.46834 C 81.939388 123.35921 82.052091 123.22589 82.134876 123.06785 C 82.217661 122.90604 82.258899 122.7348 82.258899 122.55418 C 82.258899 122.44129 82.242123 122.32999 82.208257 122.22087 C 82.174393 122.11174 82.125468 122.01057 82.061496 121.9165 C 82.008814 121.84123 81.945035 121.77309 81.869776 121.71289 C 81.798279 121.65269 81.719129 121.60184 81.632581 121.56044 C 81.546033 121.51531 81.455871 121.48176 81.361797 121.45916 C 81.271486 121.43283 81.182728 121.41937 81.09618 121.41937 L 79.154696 121.41937 z M 84.69751 121.41937 L 86.05195 125.13904 L 86.9382 125.13904 L 88.293156 121.41937 L 87.192448 121.41937 L 86.497917 123.32726 L 85.803903 121.41937 L 84.69751 121.41937 z M 88.687964 121.41937 L 88.687964 125.13904 L 89.777304 125.13904 L 89.777304 121.41937 L 88.687964 121.41937 z M 94.010637 121.41937 L 94.010637 125.13904 L 95.099976 125.13904 L 95.099976 121.41937 L 94.010637 121.41937 z M 99.903817 121.41937 L 99.903817 125.13904 L 100.95337 125.13904 L 100.95337 123.33863 L 102.09955 125.13904 L 103.12636 125.13904 L 103.12636 121.41937 L 102.07681 121.41937 L 102.07681 123.23166 L 100.93114 121.41937 L 99.903817 121.41937 z M 80.244035 122.28857 L 80.791806 122.28857 C 80.889641 122.28857 80.97404 122.32263 81.045537 122.39037 C 81.117033 122.4581 81.153024 122.5411 81.153024 122.63893 C 81.153024 122.73677 81.117033 122.82117 81.045537 122.89266 C 80.97404 122.9604 80.889641 122.99447 80.791806 122.99447 L 80.244035 122.99447 L 80.244035 122.28857 z M 66.268661 122.32267 L 66.872242 122.32267 C 66.966316 122.32267 67.047388 122.36199 67.115121 122.44101 C 67.186617 122.51627 67.222608 122.60119 67.222608 122.69526 C 67.222608 122.78557 67.188538 122.86665 67.120805 122.93814 C 67.053072 123.00587 66.970079 123.03942 66.872242 123.03942 L 66.268661 123.03942 L 66.268661 122.32267 z M 58.654139 122.33404 C 58.782079 122.33404 58.900547 122.36044 59.009673 122.41311 C 59.12256 122.46202 59.218488 122.52964 59.29751 122.61619 C 59.380298 122.70274 59.444077 122.80443 59.48923 122.92109 C 59.534383 123.03396 59.557443 123.15436 59.557443 123.2823 C 59.557443 123.41024 59.534383 123.53255 59.48923 123.64921 C 59.444075 123.76209 59.380296 123.86378 59.29751 123.9541 C 59.218488 124.04066 59.12256 124.1102 59.009673 124.16287 C 58.900547 124.2118 58.782079 124.23625 58.654139 124.23625 C 58.526198 124.23625 58.405809 124.2118 58.29292 124.16287 C 58.183796 124.11019 58.087868 124.04064 58.005083 123.9541 C 57.926062 123.86378 57.861766 123.76209 57.812846 123.64921 C 57.767693 123.53255 57.74515 123.41024 57.74515 123.2823 C 57.74515 123.15436 57.767693 123.03396 57.812846 122.92109 C 57.861765 122.80443 57.926061 122.70274 58.005083 122.61619 C 58.087868 122.52966 58.183796 122.46204 58.29292 122.41311 C 58.405809 122.36044 58.526198 122.33404 58.654139 122.33404 z M 97.634705 122.33404 C 97.762646 122.33404 97.881113 122.36044 97.990239 122.41311 C 98.103128 122.46202 98.199055 122.52964 98.278077 122.61619 C 98.360864 122.70274 98.424643 122.80443 98.469796 122.92109 C 98.51495 123.03396 98.537492 123.15436 98.537492 123.2823 C 98.537492 123.41024 98.51495 123.53255 98.469796 123.64921 C 98.424641 123.76209 98.360862 123.86378 98.278077 123.9541 C 98.199055 124.04066 98.103128 124.1102 97.990239 124.16287 C 97.881113 124.2118 97.762646 124.23625 97.634705 124.23625 C 97.506765 124.23625 97.386375 124.2118 97.273487 124.16287 C 97.164361 124.11019 97.068434 124.04064 96.985649 123.9541 C 96.906629 123.86378 96.842333 123.76209 96.793413 123.64921 C 96.74826 123.53255 96.725717 123.41024 96.725717 123.2823 C 96.725717 123.15436 96.74826 123.03396 96.793413 122.92109 C 96.842331 122.80443 96.906627 122.70274 96.985649 122.61619 C 97.068434 122.52966 97.164361 122.46204 97.273487 122.41311 C 97.386375 122.36044 97.506765 122.33404 97.634705 122.33404 z " /><path
       d="m 75.569641,105.5282 c -0.03301,-0.24774 -0.262679,-0.42226 -0.508616,-0.38703 -0.247314,0.033 -0.420455,0.26088 -0.387025,0.50862 0.477887,3.5255 -0.794341,7.08719 -3.402533,9.52716 -0.1822,0.17044 -0.191684,0.45665 -0.02082,0.63927 0.08864,0.0949 0.20885,0.14284 0.330017,0.14284 0.110783,0 0.221513,-0.0402 0.308773,-0.12207 2.821651,-2.63977 4.197403,-6.49349 3.680204,-10.30879 z"
       id="path1"
       style="fill:#5b3666;stroke-width:0.0529808;fill-opacity:1" /><path
       d="m 69.018247,106.05626 c -0.0045,-0.0212 -0.01038,-0.0416 -0.01764,-0.0619 -0.09134,-0.4693 -0.146915,-0.94624 -0.166836,-1.41914 -0.01,-0.24954 -0.223314,-0.4417 -0.470205,-0.43312 -0.249539,0.01 -0.443502,0.22061 -0.433118,0.4702 0.02262,0.54163 0.08864,1.08775 0.196188,1.62397 0.0041,0.0208 0.01,0.0412 0.01717,0.061 0.294785,1.57739 -0.279421,3.1959 -1.508204,4.23666 -0.190361,0.16185 -0.214308,0.4471 -0.05288,0.63746 0.08996,0.10581 0.217009,0.16006 0.345381,0.16006 0.103525,0 0.207049,-0.0353 0.292084,-0.10761 1.496018,-1.2673 2.185034,-3.24751 1.798062,-5.16758 z"
       id="path2"
       style="fill:#5b3666;stroke-width:0.0529808;fill-opacity:1" /><path
       d="m 71.559524,109.65683 c -0.232851,-0.0904 -0.495053,0.0249 -0.585491,0.2577 -0.484668,1.24828 -1.288016,2.3559 -2.322466,3.20317 -0.193062,0.15777 -0.221513,0.44307 -0.06331,0.63608 0.08954,0.10899 0.219287,0.16546 0.349938,0.16546 0.100823,0 0.202546,-0.0334 0.286626,-0.1022 1.15424,-0.94581 2.050728,-2.18185 2.592351,-3.57525 0.09044,-0.23232 -0.02527,-0.49457 -0.257646,-0.58496 z"
       id="path3"
       style="fill:#5b3666;stroke-width:0.0529808;fill-opacity:1" /><path
       d="m 67.357193,96.842842 c 0.08048,0.05876 0.173618,0.08726 0.266281,0.08726 0.139234,0 0.276666,-0.06421 0.365303,-0.185803 1.868103,-2.559344 4.60827,-4.313538 7.716018,-4.940142 2.757386,-0.556563 5.546825,-0.196665 8.065532,1.039854 0.224692,0.110783 0.495529,0.01717 0.604935,-0.206625 0.110306,-0.224215 0.01764,-0.495053 -0.206625,-0.604935 -2.698577,-1.325102 -5.687436,-1.710273 -8.642387,-1.114875 -3.330215,0.671373 -6.266146,2.551238 -8.267601,5.293683 -0.147393,0.201645 -0.103101,0.484668 0.09854,0.631584 z"
       id="path4"
       style="fill:#5b3666;stroke-width:0.0529808;fill-opacity:1" /><path
       d="m 65.812379,106.70411 c -0.0023,-0.0109 -0.0095,-0.019 -0.01266,-0.0298 -0.562868,-2.82473 -0.169061,-5.66937 1.141101,-8.228716 0.113909,-0.221989 0.02623,-0.494576 -0.196188,-0.608537 -0.222413,-0.114386 -0.494576,-0.02575 -0.608537,0.196664 -1.409237,2.751929 -1.830593,5.812259 -1.217976,8.849489 0.0036,0.0167 0.01309,0.0303 0.01807,0.0461 0.03661,0.1786 0.0755,0.35535 0.118465,0.53077 0.05107,0.20614 0.235553,0.34358 0.438999,0.34358 0.03571,0 0.07189,-0.004 0.108505,-0.0127 0.242334,-0.0601 0.390627,-0.30517 0.330918,-0.5475 -0.04387,-0.17764 -0.08456,-0.35757 -0.12069,-0.53934 z"
       id="path5"
       style="fill:#5b3666;stroke-width:0.0529808;fill-opacity:1" /><path
       d="m 76.172774,94.126146 c -4.188715,0.844513 -7.368357,4.110091 -8.10034,8.319154 -0.04249,0.24593 0.122068,0.48011 0.368004,0.52308 0.249116,0.0425 0.480112,-0.12255 0.52308,-0.36801 0.667293,-3.839252 3.567568,-6.81725 7.388278,-7.588121 5.068991,-1.02041 10.02312,2.27044 11.044431,7.338531 0.0027,0.0145 0.0063,0.028 0.01038,0.0416 0.08186,0.41007 0.152373,0.81606 0.209751,1.20759 0.03301,0.22469 0.226069,0.38607 0.446681,0.38607 0.02215,0 0.04429,-0.001 0.06644,-0.005 0.246838,-0.0362 0.417754,-0.26586 0.381568,-0.51269 -0.06151,-0.41998 -0.137909,-0.85586 -0.226069,-1.29576 -0.0032,-0.0145 -0.0068,-0.0294 -0.01129,-0.0434 -1.139246,-5.532729 -6.558599,-9.120165 -12.100921,-8.003064 z"
       id="path6"
       style="fill:#5b3666;stroke-width:0.0529808;fill-opacity:1" /><path
       d="m 81.866091,103.46571 c -0.197142,-0.97792 -0.763135,-1.82064 -1.594139,-2.37264 -0.830951,-0.55249 -1.827414,-0.74687 -2.804857,-0.55068 -1.467992,0.29611 -2.613596,1.43408 -2.919242,2.89932 -0.05107,0.24461 0.105803,0.48419 0.349938,0.53526 0.245513,0.0507 0.484192,-0.1058 0.535265,-0.35036 0.231473,-1.1108 1.099988,-1.97343 2.212585,-2.1977 0.741466,-0.14871 1.496018,-0.001 2.125801,0.41686 0.614842,0.40869 1.038053,1.02719 1.19673,1.74603 0.0018,0.0181 0.0041,0.0362 0.0077,0.0542 0.229195,1.13432 0.346759,2.29216 0.349938,3.44095 9.01e-4,0.24954 0.202969,0.45118 0.452085,0.45118 h 9.01e-4 c 0.250016,-4.7e-4 0.452085,-0.20344 0.451184,-0.45298 -0.0032,-1.18905 -0.122968,-2.38711 -0.356243,-3.56121 -0.0013,-0.0194 -0.004,-0.0388 -0.0076,-0.0583 z"
       id="path7"
       style="fill:#5b3666;stroke-width:0.0529808;fill-opacity:1" /><path
       d="m 78.651163,104.11446 c -0.04927,-0.24462 -0.287527,-0.40192 -0.532563,-0.35402 -0.244612,0.0493 -0.40329,0.288 -0.354018,0.53256 0.88976,4.41298 -0.306547,8.88562 -3.281789,12.27189 -0.164559,0.18761 -0.146015,0.47333 0.04111,0.63837 0.08588,0.0751 0.192585,0.1121 0.298388,0.1121 0.12567,0 0.25044,-0.0515 0.339977,-0.15327 3.162954,-3.60047 4.434705,-8.35571 3.488892,-13.04763 z"
       id="path8"
       style="fill:#5b3666;stroke-width:0.0529808;fill-opacity:1" /><path
       d="m 91.498159,101.52391 c -0.0027,-0.0136 -0.01176,-0.0239 -0.01584,-0.0375 -0.696221,-3.404814 -2.644325,-6.378732 -5.48987,-8.375684 -0.204347,-0.144214 -0.486894,-0.09404 -0.629783,0.110306 -0.143313,0.204347 -0.09404,0.486469 0.110306,0.629782 2.665623,1.870805 4.488003,4.659821 5.131826,7.853026 0.0023,0.0122 0.0095,0.0217 0.01266,0.0334 0.179022,0.89967 0.261301,1.81518 0.244135,2.7221 -0.0045,0.24954 0.193963,0.45574 0.443502,0.46067 h 0.0091 c 0.245513,0 0.447105,-0.19714 0.451661,-0.4435 0.01849,-0.9846 -0.07147,-1.9774 -0.267659,-2.95262 z"
       id="path9"
       style="fill:#5b3666;stroke-width:0.0529808;fill-opacity:1" /><path
       d="m 85.074661,102.81918 c -0.369806,-1.83552 -1.432283,-3.416518 -2.991561,-4.452292 -1.559278,-1.036199 -3.428281,-1.401978 -5.263377,-1.032596 -3.787704,0.763612 -6.248503,4.467238 -5.484467,8.254938 0.0054,0.0267 0.01309,0.052 0.02262,0.0764 0.145115,0.75545 0.177221,1.52134 0.09542,2.27812 -0.02665,0.24822 0.152796,0.47111 0.401488,0.49823 0.242758,0.0244 0.471105,-0.1528 0.497755,-0.40149 0.09404,-0.87529 0.05245,-1.7605 -0.123446,-2.63171 -0.0054,-0.0262 -0.01309,-0.0515 -0.02262,-0.0755 -0.616697,-3.27231 1.518588,-6.452426 4.791848,-7.11246 1.598166,-0.322336 3.226637,-0.0032 4.584323,0.899243 1.350004,0.896967 2.272293,2.263237 2.600033,3.849637 0.0014,0.009 0.0027,0.0194 0.0045,0.0289 0.502735,2.49063 0.549782,5.01516 0.140134,7.50219 -0.04027,0.24683 0.126571,0.47921 0.372985,0.5199 0.02485,0.004 0.04927,0.006 0.0737,0.006 0.217433,0 0.409171,-0.15736 0.445781,-0.37887 0.425436,-2.58604 0.378389,-5.2096 -0.140135,-7.79877 -0.0014,-0.01 -0.0027,-0.0198 -0.005,-0.0298 z"
       id="path10"
       style="fill:#5b3666;stroke-width:0.0529808;fill-opacity:1" /><path
       d="m 88.253403,105.14615 c -0.249115,0.0158 -0.438522,0.23057 -0.422733,0.47969 0.163233,2.59193 -0.09314,5.17972 -0.762235,7.69117 -0.06421,0.24096 0.0791,0.48875 0.320534,0.55291 0.03889,0.0104 0.0782,0.0158 0.116663,0.0158 0.199844,0 0.382469,-0.13383 0.436721,-0.33638 0.694419,-2.60591 0.960277,-5.29098 0.790738,-7.98049 -0.01536,-0.24912 -0.224691,-0.43853 -0.479688,-0.42274 z"
       id="path11"
       style="fill:#5b3666;stroke-width:0.0529808;fill-opacity:1" /><path
       d="m 84.449859,112.17729 c -0.242758,-0.0655 -0.489172,0.0782 -0.553385,0.31963 -0.344481,1.28531 -0.814262,2.5435 -1.397474,3.73981 -0.109406,0.22469 -0.01584,0.49505 0.208426,0.60446 0.06421,0.0312 0.131128,0.0457 0.198042,0.0457 0.167261,0 0.328216,-0.0931 0.406416,-0.2541 0.608538,-1.24828 1.09861,-2.56114 1.457555,-3.90209 0.06517,-0.24101 -0.07815,-0.48917 -0.31958,-0.55338 z"
       id="path12"
       style="fill:#5b3666;stroke-width:0.0529808;fill-opacity:1" /><path
       d="m 81.714619,108.71462 c -0.246414,-0.028 -0.47243,0.14967 -0.500457,0.39783 -0.322812,2.82701 -1.347248,5.57035 -2.963534,7.93261 -0.141035,0.20572 -0.08858,0.48689 0.117565,0.62798 0.0782,0.0538 0.166836,0.0791 0.254996,0.0791 0.144214,0 0.286203,-0.0687 0.373462,-0.19667 1.699465,-2.48342 2.77683,-5.36738 3.115907,-8.34039 0.02797,-0.24816 -0.150201,-0.47243 -0.397939,-0.50046 z"
       id="path13"
       style="fill:#5b3666;stroke-width:0.0529808;fill-opacity:1" /></g></svg>
