<?xml version="1.0" encoding="UTF-8" standalone="no"?>
<!-- Created with Inkscape (http://www.inkscape.org/) -->

<svg
   width="67.73333mm"
   height="67.73333mm"
   viewBox="0 0 67.73333 67.73333"
   version="1.1"
   id="svg1"
   xml:space="preserve"
   inkscape:version="1.3.2 (091e20e, 2023-11-25, custom)"
   sodipodi:docname="informatica_grafica_scalable - Copia.svg"
   inkscape:export-filename="..\PNG\informatica_grafica_scalable2.png"
   inkscape:export-xdpi="1536.0001"
   inkscape:export-ydpi="1536.0001"
   xmlns:inkscape="http://www.inkscape.org/namespaces/inkscape"
   xmlns:sodipodi="http://sodipodi.sourceforge.net/DTD/sodipodi-0.dtd"
   xmlns="http://www.w3.org/2000/svg"
   xmlns:svg="http://www.w3.org/2000/svg"><sodipodi:namedview
     id="namedview1"
     pagecolor="#ffffff"
     bordercolor="#000000"
     borderopacity="0.25"
     inkscape:showpageshadow="2"
     inkscape:pageopacity="0.0"
     inkscape:pagecheckerboard="0"
     inkscape:deskcolor="#d1d1d1"
     inkscape:document-units="mm"
     inkscape:zoom="2.5845014"
     inkscape:cx="101.18006"
     inkscape:cy="123.62152"
     inkscape:window-width="1920"
     inkscape:window-height="991"
     inkscape:window-x="-9"
     inkscape:window-y="-9"
     inkscape:window-maximized="1"
     inkscape:current-layer="layer1" /><defs
     id="defs1">
	
	
	
	
	
	
	
</defs><g
     inkscape:label="Livello 1"
     inkscape:groupmode="layer"
     id="layer1"
     transform="translate(-76.830109,-64.216217)"><path
       id="rect1"
       style="fill:#f2b7b7;stroke-width:0.498807"
       d="M 76.830109,64.216217 H 144.56344 V 131.94955 H 76.830109 Z" /><path
       id="path580"
       style="font-size:6.70277px;font-family:PRIMETIME;-inkscape-font-specification:PRIMETIME;fill:#000000;stroke-width:0.873896;fill-opacity:0.12156863"
       d="M 101.62394 75.48323 C 101.30241 75.483297 100.99872 75.545768 100.71289 75.670815 C 100.4269 75.791465 100.17703 75.959138 99.962546 76.173627 C 99.899608 76.236565 99.848368 76.310026 99.793047 76.379816 L 99.024102 75.61087 L 95.685804 75.61087 L 95.572116 75.724558 L 95.572116 76.187579 L 94.995407 75.61087 L 93.748972 75.61087 L 93.748972 76.971511 L 92.388331 75.61087 L 91.168251 75.61087 L 91.168251 76.29455 L 90.484572 75.61087 L 89.19111 75.61087 L 89.19111 80.027655 L 103.48378 94.320323 L 103.48378 95.663393 L 96.841806 99.533441 C 96.823326 99.544531 96.807684 99.555004 96.792714 99.566514 C 96.790714 99.568114 96.789129 99.569565 96.787029 99.571165 C 96.774649 99.581065 96.762772 99.591548 96.751373 99.602688 C 96.748073 99.605988 96.744754 99.609623 96.741554 99.613023 C 96.731514 99.623493 96.721725 99.634069 96.712615 99.645579 C 96.710015 99.648879 96.707364 99.651998 96.704864 99.655398 C 96.694334 99.669496 96.684011 99.684259 96.674891 99.699839 C 96.672991 99.703339 96.672374 99.705491 96.671274 99.707591 C 96.663374 99.721821 96.656367 99.735822 96.650087 99.750482 C 96.648087 99.755082 96.646202 99.759715 96.644402 99.764435 L 96.644402 99.764952 C 96.639278 99.777982 96.63483 99.791408 96.630966 99.804742 C 96.629666 99.809142 96.628449 99.813243 96.627349 99.817661 C 96.617949 99.854061 96.612663 99.890932 96.612363 99.927732 L 96.612363 99.932383 L 96.612363 107.93913 C 96.612363 107.99453 96.625802 108.04736 96.644402 108.09778 C 96.648881 108.10992 96.653405 108.12121 96.658872 108.13292 C 96.681251 108.18096 96.709182 108.22677 96.746722 108.26469 C 96.747163 108.26514 96.747312 108.2658 96.747755 108.26624 L 103.95972 115.4782 L 101.71179 115.4782 L 101.71179 117.23675 L 100.53099 116.05595 C 100.52771 116.05267 100.52394 116.05041 100.52065 116.04716 C 100.43312 115.9605 100.34067 115.88391 100.24522 115.81307 C 100.22079 115.79497 100.19575 115.77794 100.1708 115.76087 C 100.07134 115.69272 99.969506 115.62953 99.861777 115.57794 C 99.55149 115.42279 99.223323 115.34509 98.877858 115.34385 C 98.87503 115.34384 98.872419 115.34281 98.869589 115.34281 C 98.86621 115.34281 98.863145 115.34383 98.859771 115.34385 C 98.545994 115.34512 98.251529 115.40673 97.976104 115.5273 C 97.972439 115.5289 97.968393 115.52929 97.964735 115.53091 C 97.961789 115.53223 97.959405 115.53424 97.956467 115.53557 C 97.68309 115.65825 97.443773 115.82324 97.238164 116.03063 C 97.234786 116.03403 97.230671 116.0365 97.227312 116.03993 L 97.227312 116.04044 C 97.22571 116.04212 97.224258 116.04393 97.222662 116.04561 C 97.123435 116.14976 97.034186 116.26262 96.954978 116.38358 C 96.953762 116.38543 96.952055 116.38688 96.950844 116.38874 L 96.950844 116.38926 C 96.949891 116.39072 96.949209 116.39244 96.94826 116.39391 C 96.868111 116.51767 96.798025 116.65016 96.738453 116.7913 C 96.7381 116.79216 96.737771 116.79303 96.73742 116.79389 C 96.621943 117.07467 96.563787 117.3754 96.563787 117.69616 C 96.563787 117.85908 96.578631 118.01765 96.607712 118.17055 C 96.636826 118.32343 96.680456 118.4716 96.738453 118.61445 C 96.854633 118.89597 97.015044 119.14185 97.220595 119.35187 L 97.237131 119.36892 C 97.237913 119.3697 97.238932 119.37021 97.239715 119.37099 L 109.81828 131.94955 L 144.56344 131.94955 L 144.56344 89.587278 L 130.58703 75.61087 L 129.51475 75.61087 L 128.88119 77.342548 L 127.69212 76.153473 L 127.6916 76.153473 C 127.62905 76.096499 127.56381 76.054556 127.49988 76.005161 C 127.43598 75.955847 127.37336 75.898636 127.30816 75.85685 L 127.30765 75.85685 C 127.17748 75.773498 127.04398 75.704686 126.90819 75.651178 L 126.90767 75.651178 C 126.63509 75.539465 126.35096 75.48323 126.05604 75.48323 C 125.73432 75.48323 125.43271 75.5457 125.15119 75.670815 C 124.86968 75.795934 124.62379 75.965856 124.41377 76.180345 C 124.33154 76.264352 124.26114 76.359075 124.19259 76.455263 L 123.3482 75.61087 L 122.05474 75.61087 L 122.05474 76.260443 L 121.40516 75.61087 L 121.40465 75.61087 L 117.65087 75.61087 L 117.65087 76.649567 L 117.75784 76.757054 L 117.75836 76.757054 L 118.86217 77.861379 L 118.89782 77.897036 L 118.89782 78.117694 L 116.391 75.61087 L 115.3182 75.61087 L 114.7942 77.043858 L 113.36121 75.61087 L 112.24862 75.61087 C 112.18602 75.61087 112.13933 75.637349 112.10806 75.690969 L 111.37994 76.89658 L 110.14694 75.66358 C 110.14315 75.659748 110.13743 75.661309 110.1335 75.657896 C 110.10088 75.62992 110.06546 75.61087 110.02343 75.61087 L 110.02291 75.61087 L 108.91084 75.61087 L 108.91084 77.288804 L 107.67112 76.049086 C 107.63912 76.017686 107.60583 75.987669 107.56983 75.959169 C 107.48493 75.887681 107.39097 75.827455 107.2882 75.778302 C 107.18542 75.724682 107.07848 75.684192 106.96677 75.657379 C 106.8597 75.626151 106.75416 75.61092 106.65154 75.61087 L 104.34574 75.61087 L 104.34574 77.23196 L 103.29723 76.183445 L 103.28017 76.166909 C 103.07015 75.956889 102.82202 75.791465 102.53603 75.670815 C 102.25005 75.545697 101.94619 75.48323 101.62446 75.48323 L 101.62394 75.48323 z "
       transform="translate(1.1458333e-6)" /><path
       d="m 109.38221,92.762167 c -0.12848,-0.220496 -0.41137,-0.294898 -0.63168,-0.166604 l -3.20139,1.865042 c -0.22043,0.128417 -0.29502,0.411244 -0.1666,0.631679 0.0859,0.147326 0.24058,0.229488 0.39954,0.229488 0.079,0 0.15897,-0.02026 0.23214,-0.06288 l 3.20138,-1.865042 c 0.22044,-0.128417 0.29503,-0.411244 0.16661,-0.631679 z"
       id="path1"
       style="fill:#791616;fill-opacity:1;stroke-width:0.0615911" /><path
       d="m 112.42099,93.393846 3.20139,1.86498 c 0.0732,0.04256 0.15311,0.06288 0.23213,0.06288 0.15897,0 0.31375,-0.08216 0.39955,-0.229489 0.12841,-0.220435 0.0538,-0.503261 -0.16661,-0.631679 l -3.20138,-1.86498 c -0.22044,-0.128356 -0.5032,-0.05389 -0.63168,0.166604 -0.12842,0.220435 -0.0538,0.503262 0.1666,0.631679 z"
       id="path2"
       style="fill:#791616;fill-opacity:1;stroke-width:0.0615911" /><path
       d="m 105.55543,105.40775 3.19516,1.86147 c 0.0732,0.0426 0.15312,0.0629 0.23214,0.0629 0.15896,0 0.31374,-0.0822 0.39954,-0.22949 0.12842,-0.22044 0.0538,-0.50326 -0.1666,-0.63168 l -3.19517,-1.86147 c -0.22043,-0.1286 -0.5032,-0.0538 -0.63168,0.16661 -0.12841,0.22049 -0.0538,0.50326 0.16661,0.63167 z"
       id="path3"
       style="fill:#791616;fill-opacity:1;stroke-width:0.0615911" /><path
       d="m 125.02384,99.927682 c -3.7e-4,-0.03677 -0.005,-0.07366 -0.0145,-0.110064 -10e-4,-0.0044 -0.002,-0.0087 -0.004,-0.01312 -0.004,-0.01343 -0.008,-0.02673 -0.0136,-0.03997 -0.002,-0.0047 -0.004,-0.0093 -0.005,-0.01392 -0.006,-0.01466 -0.0134,-0.02907 -0.0213,-0.0433 -0.001,-0.002 -0.002,-0.0041 -0.003,-0.0061 -0.01,-0.01706 -0.0199,-0.03172 -0.0304,-0.04588 -0.002,-0.0033 -0.005,-0.0064 -0.008,-0.0096 -0.009,-0.01152 -0.0187,-0.02254 -0.0287,-0.03301 -0.003,-0.0034 -0.007,-0.0067 -0.01,-0.01004 -0.0114,-0.01115 -0.0232,-0.02168 -0.0355,-0.03147 -0.002,-0.0017 -0.004,-0.0034 -0.006,-0.005 -0.015,-0.01146 -0.0305,-0.02193 -0.0466,-0.03141 -0.002,-0.0016 -6.64495,-3.871435 -6.64495,-3.871435 v -7.741207 c 0,-0.0016 -3.1e-4,-0.0031 -3.1e-4,-0.0047 -3.7e-4,-0.03677 -0.005,-0.07366 -0.0145,-0.110063 -10e-4,-0.0044 -0.002,-0.0087 -0.004,-0.01312 -0.004,-0.01343 -0.008,-0.02673 -0.0136,-0.03997 -0.002,-0.0047 -0.004,-0.0093 -0.005,-0.01392 -0.006,-0.01466 -0.0134,-0.02907 -0.0213,-0.0433 -0.001,-0.002 -0.002,-0.0041 -0.003,-0.0061 -0.01,-0.01712 -0.0199,-0.03178 -0.0305,-0.04595 -0.002,-0.0032 -0.005,-0.0062 -0.008,-0.0094 -0.009,-0.0117 -0.0189,-0.02285 -0.029,-0.03338 -0.003,-0.0033 -0.006,-0.0065 -0.01,-0.0096 -0.0116,-0.01139 -0.0237,-0.02217 -0.0363,-0.03215 -0.002,-0.0014 -0.003,-0.003 -0.005,-0.0044 -0.0151,-0.01164 -0.0308,-0.02217 -0.047,-0.03178 -0.002,-0.0014 -6.874,-4.00478 -6.874,-4.00478 -0.14376,-0.0837 -0.32133,-0.0837 -0.46508,0 l -6.87191,4.003425 c -0.0183,0.01096 -0.0341,0.02162 -0.0493,0.03326 -0.002,0.0013 -0.003,0.0027 -0.005,0.0041 -0.0127,0.0101 -0.0249,0.02094 -0.0366,0.03246 -0.003,0.0031 -0.006,0.0063 -0.009,0.0095 -0.0102,0.01059 -0.0198,0.0218 -0.0291,0.03351 -0.002,0.0031 -0.005,0.0061 -0.008,0.0093 -0.0106,0.01417 -0.0206,0.02883 -0.0297,0.04447 -0.002,0.0034 -0.003,0.0055 -0.004,0.0076 -0.008,0.01423 -0.015,0.02864 -0.0213,0.0433 -0.002,0.0046 -0.004,0.0092 -0.005,0.01392 -0.005,0.01318 -0.01,0.02648 -0.0136,0.03997 -0.001,0.0044 -0.003,0.0087 -0.004,0.01312 -0.009,0.0364 -0.0142,0.07329 -0.0145,0.110064 0,0.0015 -3e-4,0.0031 -3e-4,0.0047 v 7.74133 l -6.642548,3.86971 c -0.01848,0.01109 -0.03406,0.02156 -0.04903,0.03307 -0.002,0.0016 -0.0039,0.0033 -0.006,0.0049 -0.01238,0.0099 -0.0242,0.02039 -0.0356,0.03153 -0.0033,0.0033 -0.0067,0.0066 -0.0099,0.01 -0.01004,0.01047 -0.01959,0.0215 -0.0287,0.03301 -0.0026,0.0033 -0.0053,0.0063 -0.0078,0.0097 -0.01053,0.0141 -0.02057,0.02876 -0.02969,0.04434 -0.0019,0.0035 -0.0028,0.0055 -0.0039,0.0076 -0.0079,0.01423 -0.01503,0.02864 -0.02131,0.0433 -0.002,0.0046 -0.0037,0.0092 -0.0055,0.01392 -0.0052,0.01318 -0.0097,0.02648 -0.01361,0.03997 -0.0013,0.0044 -0.0026,0.0087 -0.0037,0.01312 -0.0094,0.0364 -0.01417,0.07329 -0.01447,0.110063 0,0.0015 -3.08e-4,0.0031 -3.08e-4,0.0047 v 8.006845 c 0,0.16439 0.0874,0.3164 0.229427,0.39911 l 6.871909,4.00343 c 10e-4,7.4e-4 0.003,10e-4 0.004,0.002 0.0165,0.009 0.0336,0.0181 0.0513,0.0254 0.0172,0.007 0.0346,0.0128 0.0523,0.0178 0.004,0.001 0.009,0.002 0.0132,0.003 0.0139,0.003 0.028,0.006 0.0423,0.008 0.005,7.4e-4 0.009,0.002 0.0141,0.002 0.0182,0.002 0.0365,0.004 0.0553,0.004 0.0187,0 0.0371,-10e-4 0.0553,-0.004 0.005,-5.6e-4 0.009,-0.001 0.0141,-0.002 0.0144,-0.002 0.0285,-0.005 0.0423,-0.008 0.004,-0.001 0.009,-0.002 0.0132,-0.003 0.0177,-0.005 0.0351,-0.0107 0.0519,-0.0176 0.0181,-0.008 0.0352,-0.0161 0.0517,-0.0256 10e-4,-7.4e-4 0.003,-0.001 0.004,-0.002 l 6.63934,-3.86799 6.6394,3.86799 c 10e-4,7.4e-4 0.003,10e-4 0.004,0.002 0.0165,0.009 0.0335,0.0181 0.0512,0.0254 0.0173,0.007 0.0346,0.0128 0.0523,0.0178 0.004,0.001 0.009,0.002 0.0133,0.003 0.0139,0.003 0.0279,0.006 0.0423,0.008 0.005,7.4e-4 0.009,0.002 0.0142,0.002 0.0182,0.002 0.0365,0.004 0.0553,0.004 0.0187,0 0.0371,-10e-4 0.0553,-0.004 0.005,-5.6e-4 0.009,-0.001 0.0142,-0.002 0.0143,-0.002 0.0284,-0.005 0.0423,-0.008 0.004,-0.001 0.009,-0.002 0.0133,-0.003 0.0177,-0.005 0.035,-0.0107 0.0518,-0.0176 0.0182,-0.008 0.0352,-0.0162 0.0517,-0.0256 0.001,-7.4e-4 0.003,-0.001 0.004,-0.002 l 6.8719,-4.00343 c 0.14203,-0.0828 0.22943,-0.23478 0.22943,-0.39911 v -8.006845 c 0,-0.0017 -2.4e-4,-0.0031 -2.4e-4,-0.0047 z m -1.37934,0.0047 -5.95426,3.468818 -5.95426,-3.468818 5.95426,-3.468814 z m -19.23615,-11.206572 5.94805,3.46518 v 6.937627 l -5.94805,-3.46518 z m 12.81996,6.937627 -5.94805,3.465242 v -6.937627 l 5.94805,-3.46518 z m -6.87191,12.010273 -5.94805,3.46524 v -6.93762 l 5.94805,-3.46518 z m 0.92386,-6.93762 5.94805,3.46518 v 6.93762 l -5.94805,-3.46518 z m -0.46193,-16.282796 5.95426,3.468813 -5.95426,3.468814 -5.95426,-3.468814 z m -6.87191,12.010274 5.95426,3.468814 -5.95426,3.468818 -5.954263,-3.468818 z m -6.409976,4.272522 5.948046,3.46518 v 6.93762 l -5.948046,-3.46524 z m 20.615726,10.40286 v -6.93762 l 5.94804,-3.46518 v 6.93762 z"
       id="path4"
       style="fill:#791616;fill-opacity:1;stroke-width:0.0615911" /><path
       d="m 116.24796,104.77601 c -0.12848,-0.22049 -0.41131,-0.29489 -0.63168,-0.1666 l -3.19516,1.86147 c -0.22044,0.12842 -0.29503,0.41124 -0.16661,0.63168 0.0859,0.14732 0.24058,0.22949 0.39954,0.22949 0.079,0 0.15897,-0.0203 0.23214,-0.0629 l 3.19516,-1.86147 c 0.22044,-0.12841 0.29503,-0.41124 0.16661,-0.63168 z"
       id="path5"
       style="fill:#791616;fill-opacity:1;stroke-width:0.0615911" /><path
       d="m 102.51024,104.77244 c -0.12848,-0.22049 -0.41137,-0.2949 -0.63168,-0.1666 l -3.195165,1.86147 c -0.220435,0.12841 -0.295022,0.41124 -0.166605,0.63168 0.08586,0.14732 0.240575,0.22948 0.399542,0.22948 0.07896,0 0.158967,-0.0203 0.232137,-0.0629 l 3.195161,-1.86147 c 0.22044,-0.12842 0.29502,-0.41124 0.16661,-0.63168 z"
       id="path6"
       style="fill:#791616;fill-opacity:1;stroke-width:0.0615911" /><path
       d="m 122.95326,106.46737 -3.18278,-1.8542 c -0.22044,-0.12854 -0.50326,-0.0539 -0.63168,0.1666 -0.12842,0.22044 -0.0538,0.50326 0.1666,0.63168 l 3.18279,1.8542 c 0.0732,0.0426 0.15311,0.0629 0.23214,0.0629 0.15896,0 0.31374,-0.0822 0.39954,-0.22949 0.12842,-0.2205 0.0539,-0.50326 -0.16661,-0.63168 z"
       id="path7"
       style="fill:#791616;fill-opacity:1;stroke-width:0.0615911" /><path
       id="path41"
       style="font-size:6.70277px;font-family:PRIMETIME;-inkscape-font-specification:PRIMETIME;fill:#791616;stroke-width:0.873896"
       d="M 98.869591 115.34333 C 98.547858 115.34333 98.246252 115.40631 97.964736 115.53143 C 97.68322 115.65655 97.437333 115.82596 97.227314 116.04044 C 97.021762 116.25493 96.859104 116.50532 96.738455 116.7913 C 96.622273 117.07282 96.563788 117.37442 96.563788 117.69616 C 96.563788 118.02236 96.622273 118.32847 96.738455 118.61445 C 96.854636 118.89597 97.015045 119.14185 97.220596 119.35187 C 97.426147 119.56189 97.669785 119.72732 97.9513 119.84796 C 98.232817 119.96862 98.536672 120.02883 98.862873 120.02883 C 99.211416 120.02883 99.544514 119.95287 99.861778 119.80094 L 99.861778 119.89447 L 100.9475 119.89447 L 100.9475 117.35458 L 98.956924 117.35458 L 98.956924 118.49404 L 99.654039 118.49404 C 99.555732 118.60131 99.437029 118.68627 99.298505 118.74881 C 99.16445 118.80687 99.023769 118.83562 98.876309 118.83562 C 98.719911 118.83562 98.574731 118.80687 98.440676 118.74881 C 98.311089 118.68625 98.197402 118.60353 98.099095 118.50076 C 98.005259 118.39351 97.929295 118.27256 97.871202 118.13851 C 97.817582 117.99998 97.790587 117.8548 97.790587 117.70287 C 97.790587 117.55094 97.817582 117.40576 97.871202 117.26724 C 97.929293 117.12872 98.005256 117.00828 98.099095 116.90551 C 98.197402 116.8027 98.311089 116.71999 98.440676 116.65746 C 98.574731 116.59493 98.719911 116.56341 98.876309 116.56341 C 99.17123 116.56341 99.439611 116.68886 99.680911 116.9391 L 100.70617 116.2487 C 100.4604 115.95378 100.17904 115.72987 99.861778 115.57794 C 99.548982 115.42154 99.218134 115.34333 98.869591 115.34333 z M 118.68337 115.35005 C 118.36164 115.35005 118.05951 115.41303 117.778 115.53815 C 117.49648 115.66327 117.25111 115.83268 117.04109 116.04716 C 116.83554 116.25718 116.67236 116.50532 116.55172 116.7913 C 116.43554 117.07282 116.37757 117.37217 116.37757 117.68944 C 116.37757 118.00671 116.43554 118.30831 116.55172 118.59429 C 116.67236 118.87581 116.83554 119.12395 117.04109 119.33843 C 117.25111 119.54845 117.49648 119.71613 117.778 119.84125 C 118.05951 119.96637 118.36164 120.02883 118.68337 120.02883 C 119.04531 120.02883 119.38464 119.95062 119.70191 119.79422 C 120.01918 119.63335 120.30279 119.39871 120.55302 119.09039 L 119.56807 118.27235 C 119.31783 118.60302 119.02297 118.76844 118.68337 118.76844 C 118.53591 118.76844 118.39921 118.73969 118.27409 118.68163 C 118.14897 118.62353 118.03978 118.54532 117.94595 118.44702 C 117.85655 118.34871 117.78509 118.2345 117.73149 118.10492 C 117.68236 117.97086 117.65759 117.83243 117.65759 117.68944 C 117.65759 117.54645 117.68461 117.41026 117.73821 117.28068 C 117.79183 117.15109 117.86329 117.03689 117.95266 116.93858 C 118.0465 116.84025 118.1557 116.76204 118.28081 116.70397 C 118.40593 116.6459 118.54211 116.61715 118.68957 116.61715 C 118.90406 116.61715 119.12797 116.69987 119.36033 116.8652 L 120.31841 116.02029 C 120.06817 115.7924 119.80706 115.62524 119.53448 115.518 C 119.2619 115.40628 118.97829 115.35005 118.68337 115.35005 z M 101.71179 115.47769 L 101.71179 119.89447 L 103.00526 119.89447 L 103.00526 118.54727 L 103.7897 118.54727 L 104.48682 119.89447 L 105.88105 119.89447 L 104.84855 117.91061 C 105.01836 117.78103 105.15229 117.62235 105.2506 117.43467 C 105.3489 117.24253 105.39839 117.03939 105.39839 116.82489 C 105.39839 116.69084 105.37813 116.55915 105.33793 116.42957 C 105.29771 116.29998 105.23975 116.17903 105.16378 116.06732 C 105.10123 115.97794 105.02526 115.89748 104.93589 115.82599 C 104.85099 115.75447 104.75703 115.69425 104.65425 115.64512 C 104.55148 115.59149 104.44402 115.55151 104.33231 115.52471 C 104.22506 115.49345 104.12037 115.47769 104.0176 115.47769 L 101.71179 115.47769 z M 107.58327 115.47769 L 105.96787 119.89447 L 107.26804 119.89447 L 107.48974 119.29813 L 108.74961 119.29813 L 108.97078 119.89447 L 110.27096 119.89447 L 108.65556 115.47769 L 107.58327 115.47769 z M 110.77377 115.47769 L 110.66009 115.59138 L 110.66009 119.89447 L 111.89309 119.89447 L 111.89309 118.35296 L 113.8971 118.35296 L 113.8971 117.18663 L 111.89309 117.18663 L 111.89309 116.63059 L 114.11207 116.63059 L 114.11207 115.47769 L 110.77377 115.47769 z M 114.68155 115.47769 L 114.68155 119.89447 L 115.97501 119.89447 L 115.97501 115.47769 L 114.68155 115.47769 z M 122.14156 115.47769 L 120.52615 119.89447 L 121.82685 119.89447 L 122.04802 119.29813 L 123.30789 119.29813 L 123.52907 119.89447 L 124.82976 119.89447 L 123.21436 115.47769 L 122.14156 115.47769 z M 103.00526 116.50967 L 103.65535 116.50967 C 103.77151 116.50967 103.87223 116.55016 103.95714 116.63059 C 104.04204 116.71102 104.08426 116.80896 104.08426 116.92514 C 104.08426 117.04133 104.04204 117.14203 103.95714 117.22693 C 103.87223 117.30737 103.77151 117.34786 103.65535 117.34786 L 103.00526 117.34786 L 103.00526 116.50967 z M 108.11967 117.34786 L 108.40131 118.20569 L 107.83804 118.20569 L 108.11967 117.34786 z M 122.67796 117.34786 L 122.95959 118.20569 L 122.39632 118.20569 L 122.67796 117.34786 z " /><path
       id="path33"
       style="font-size:6.70277px;font-family:PRIMETIME;-inkscape-font-specification:PRIMETIME;fill:#791616;stroke-width:0.873896"
       d="M 101.62446 75.48323 C 101.30273 75.48323 100.99888 75.545697 100.71289 75.670815 C 100.4269 75.791465 100.17703 75.959138 99.962547 76.173627 C 99.752527 76.383645 99.584853 76.631783 99.459735 76.917767 C 99.339087 77.199283 99.278351 77.500889 99.278351 77.822622 C 99.278351 78.144353 99.339087 78.44821 99.459735 78.734194 C 99.584853 79.020179 99.752527 79.268315 99.962547 79.478335 C 100.17703 79.688353 100.4269 79.856028 100.71289 79.981146 C 100.99888 80.101795 101.30273 80.162014 101.62446 80.162014 C 101.94619 80.162014 102.25005 80.101795 102.53603 79.981146 C 102.82202 79.856028 103.07015 79.688353 103.28017 79.478335 C 103.49466 79.268315 103.66233 79.020179 103.78299 78.734194 C 103.90811 78.44821 103.97057 78.144353 103.97057 77.822622 C 103.97057 77.500889 103.90811 77.197034 103.78299 76.911049 C 103.66233 76.625066 103.49466 76.376929 103.28017 76.166909 C 103.07015 75.956889 102.82202 75.791465 102.53603 75.670815 C 102.25005 75.545697 101.94619 75.48323 101.62446 75.48323 z M 126.05604 75.48323 C 125.73431 75.48323 125.43271 75.545697 125.15119 75.670815 C 124.86968 75.795934 124.62379 75.965856 124.41377 76.180345 C 124.20821 76.390364 124.04556 76.638501 123.92491 76.924485 C 123.80872 77.206002 123.75024 77.505357 123.75024 77.822622 C 123.75024 78.139885 123.80872 78.441491 123.92491 78.727476 C 124.04556 79.008992 124.20821 79.257128 124.41377 79.471617 C 124.62379 79.681636 124.86968 79.84931 125.15119 79.974428 C 125.43271 80.099546 125.73431 80.162014 126.05604 80.162014 C 126.41799 80.162014 126.75784 80.083801 127.0751 79.927403 C 127.39236 79.766537 127.67598 79.531897 127.92621 79.22357 L 126.94075 78.405532 C 126.69051 78.736201 126.39565 78.901626 126.05604 78.901626 C 125.90859 78.901626 125.7724 78.872902 125.64728 78.814809 C 125.52216 78.756719 125.41246 78.678505 125.31862 78.580198 C 125.22923 78.481891 125.15776 78.367687 125.10416 78.2381 C 125.05503 78.104045 125.03078 77.965613 125.03078 77.822622 C 125.03078 77.679629 125.05728 77.543448 125.11088 77.413861 C 125.1645 77.284274 125.23597 77.17007 125.32534 77.071763 C 125.41918 76.973458 125.52888 76.895245 125.654 76.837152 C 125.77912 76.779059 125.9153 76.750336 126.06276 76.750336 C 126.27725 76.750336 126.50064 76.833047 126.73301 76.998383 L 127.6916 76.153473 C 127.44137 75.925579 127.18025 75.758422 126.90767 75.651178 C 126.63509 75.539465 126.35096 75.48323 126.05604 75.48323 z M 89.191112 75.61087 L 89.191112 80.027655 L 90.484573 80.027655 L 90.484573 75.61087 L 89.191112 75.61087 z M 91.168252 75.61087 L 91.168252 80.027655 L 92.415204 80.027655 L 92.415204 77.889801 L 93.775845 80.027655 L 94.995408 80.027655 L 94.995408 75.61087 L 93.748973 75.61087 L 93.748973 77.76216 L 92.388332 75.61087 L 91.168252 75.61087 z M 95.685806 75.61087 L 95.572117 75.724558 L 95.572117 80.027655 L 96.805117 80.027655 L 96.805117 78.486147 L 98.809646 78.486147 L 98.809646 77.31981 L 96.805117 77.31981 L 96.805117 76.763772 L 99.024103 76.763772 L 99.024103 75.61087 L 95.685806 75.61087 z M 104.34574 75.61087 L 104.34574 80.027655 L 105.63972 80.027655 L 105.63972 78.68045 L 106.42365 78.68045 L 107.12077 80.027655 L 108.515 80.027655 L 107.48302 78.043797 C 107.65282 77.91421 107.78675 77.755535 107.88506 77.567857 C 107.98337 77.375711 108.03234 77.172563 108.03234 76.958075 C 108.03234 76.82402 108.01208 76.692337 107.97188 76.56275 C 107.93166 76.433163 107.87369 76.312211 107.79773 76.200498 C 107.73517 76.11113 107.6592 76.030666 107.56983 75.959169 C 107.48493 75.887675 107.39097 75.827455 107.2882 75.778302 C 107.18542 75.724682 107.07848 75.684192 106.96677 75.657379 C 106.85952 75.626099 106.75432 75.61087 106.65154 75.61087 L 104.34574 75.61087 z M 108.91084 75.61087 L 108.91084 80.027655 L 110.15727 80.027655 L 110.15727 77.963182 L 110.96188 79.290749 C 110.98421 79.326496 111.01296 79.350723 111.04869 79.36413 C 111.08443 79.373063 111.11369 79.377565 111.13603 79.377565 C 111.16283 79.377565 111.19383 79.373063 111.22956 79.36413 C 111.26529 79.350723 111.29456 79.326496 111.31689 79.290749 L 112.12098 77.963182 L 112.12098 80.027655 L 113.36121 80.027655 L 113.36121 75.61087 L 112.24862 75.61087 C 112.18605 75.61087 112.13933 75.637349 112.10806 75.690969 L 111.13603 77.299656 L 110.17071 75.690969 C 110.13047 75.637349 110.0815 75.61087 110.02343 75.61087 L 108.91084 75.61087 z M 115.3182 75.61087 L 113.70279 80.027655 L 115.00349 80.027655 L 115.22466 79.431309 L 116.48454 79.431309 L 116.70571 80.027655 L 118.00641 80.027655 L 116.391 75.61087 L 115.3182 75.61087 z M 117.65087 75.61087 L 117.65087 76.649567 L 117.75836 76.757054 L 118.89783 76.757054 L 118.89783 80.027655 L 120.1577 80.027655 L 120.1577 76.757054 L 121.29716 76.757054 L 121.40465 76.649567 L 121.40465 75.61087 L 117.65087 75.61087 z M 122.05474 75.61087 L 122.05474 80.027655 L 123.3482 80.027655 L 123.3482 75.61087 L 122.05474 75.61087 z M 129.51475 75.61087 L 127.89934 80.027655 L 129.19952 80.027655 L 129.42121 79.431309 L 130.68109 79.431309 L 130.90226 80.027655 L 132.20244 80.027655 L 130.58703 75.61087 L 129.51475 75.61087 z M 105.63972 76.642849 L 106.28981 76.642849 C 106.40599 76.642849 106.50618 76.683338 106.59108 76.763772 C 106.67598 76.844204 106.71872 76.942146 106.71872 77.058327 C 106.71872 77.174508 106.67598 77.275216 106.59108 77.360118 C 106.50618 77.44055 106.40599 77.480524 106.28981 77.480524 L 105.63972 77.480524 L 105.63972 76.642849 z M 101.62446 76.696592 C 101.77639 76.696592 101.91707 76.728083 102.04666 76.790643 C 102.18071 76.848734 102.29492 76.928681 102.38876 77.031455 C 102.48709 77.134231 102.56305 77.255183 102.61665 77.393707 C 102.67025 77.527762 102.69675 77.670692 102.69675 77.822622 C 102.69675 77.97455 102.67025 78.11973 102.61665 78.258254 C 102.56302 78.392309 102.48706 78.513262 102.38876 78.620506 C 102.29492 78.723281 102.18071 78.805476 102.04666 78.868036 C 101.91707 78.926129 101.77639 78.955369 101.62446 78.955369 C 101.47253 78.955369 101.3296 78.926129 101.19555 78.868036 C 101.06596 78.805477 100.95227 78.723282 100.85397 78.620506 C 100.7601 78.513262 100.68414 78.392309 100.62607 78.258254 C 100.57247 78.11973 100.54546 77.97455 100.54546 77.822622 C 100.54546 77.670692 100.57247 77.527762 100.62607 77.393707 C 100.68417 77.255183 100.76013 77.134231 100.85397 77.031455 C 100.95227 76.928683 101.06596 76.848737 101.19555 76.790643 C 101.3296 76.728083 101.47253 76.696592 101.62446 76.696592 z M 115.8546 77.480524 L 116.13624 78.338869 L 115.57296 78.338869 L 115.8546 77.480524 z M 130.05115 77.480524 L 130.33279 78.338869 L 129.76951 78.338869 L 130.05115 77.480524 z " /></g></svg>
