<?xml version="1.0" encoding="UTF-8" standalone="no"?>
<svg
   xmlns:dc="http://purl.org/dc/elements/1.1/"
   xmlns:cc="http://creativecommons.org/ns#"
   xmlns:rdf="http://www.w3.org/1999/02/22-rdf-syntax-ns#"
   xmlns:svg="http://www.w3.org/2000/svg"
   xmlns="http://www.w3.org/2000/svg"
   xmlns:sodipodi="http://sodipodi.sourceforge.net/DTD/sodipodi-0.dtd"
   xmlns:inkscape="http://www.inkscape.org/namespaces/inkscape"
   inkscape:export-ydpi="96"
   inkscape:export-xdpi="96"
   inkscape:export-filename="C:\Users\linos\Desktop\Icone gruppi telegram\DataScience.png"
   sodipodi:docname="DataScience_scalable.svg"
   inkscape:version="1.0 (4035a4fb49, 2020-05-01)"
   width="67.733337mm"
   height="67.733337mm"
   viewBox="0 0 67.733338 67.733338"
   version="1.1"
   id="svg8">
  <defs
     id="defs2" />
  <sodipodi:namedview
     inkscape:window-maximized="1"
     inkscape:window-y="-9"
     inkscape:window-x="-9"
     inkscape:window-height="1013"
     inkscape:window-width="1920"
     showgrid="false"
     inkscape:document-rotation="0"
     inkscape:current-layer="layer1"
     inkscape:document-units="mm"
     inkscape:cy="1030.6559"
     inkscape:cx="469.51225"
     inkscape:zoom="0.35"
     inkscape:pageshadow="2"
     inkscape:pageopacity="0.0"
     borderopacity="1.0"
     bordercolor="#666666"
     pagecolor="#ffffff"
     id="base" />
  <metadata
     id="metadata5">
    <rdf:RDF>
      <cc:Work
         rdf:about="">
        <dc:format>image/svg+xml</dc:format>
        <dc:type
           rdf:resource="http://purl.org/dc/dcmitype/StillImage" />
        <dc:title></dc:title>
        <cc:license
           rdf:resource="http://creativecommons.org/licenses/by-sa/4.0/" />
      </cc:Work>
      <cc:License
         rdf:about="http://creativecommons.org/licenses/by-sa/4.0/">
        <cc:permits
           rdf:resource="http://creativecommons.org/ns#Reproduction" />
        <cc:permits
           rdf:resource="http://creativecommons.org/ns#Distribution" />
        <cc:requires
           rdf:resource="http://creativecommons.org/ns#Notice" />
        <cc:requires
           rdf:resource="http://creativecommons.org/ns#Attribution" />
        <cc:permits
           rdf:resource="http://creativecommons.org/ns#DerivativeWorks" />
        <cc:requires
           rdf:resource="http://creativecommons.org/ns#ShareAlike" />
      </cc:License>
    </rdf:RDF>
  </metadata>
  <g
     transform="translate(118.293,94.289612)"
     id="layer1"
     inkscape:groupmode="layer"
     inkscape:label="Livello 1">
    <g
       transform="matrix(0.12499999,0,0,0.12500001,-103.50638,-82.50341)"
       id="g6084">
      <rect
         style="fill:#4db6ac;fill-opacity:1;stroke-width:4.8533"
         id="rect10"
         width="541.86664"
         height="541.86664"
         x="-118.293"
         y="-94.289612"
         rx="1.2489668"
         ry="2.4323728" />
      <path
         id="path2025"
         style="fill:#000001;fill-opacity:0.247059;stroke-width:0.648809"
         d="m 38.503906,85.714844 c -8.723135,0.0013 -14.900209,5.089322 -16.308594,13.041015 v 0.002 c -0.200977,1.135397 -0.30664,2.330561 -0.30664,3.576171 v 448.7129 h 0.002 0.0059 v 0.004 0.004 h 0.0078 v 0.004 0.004 h 0.0098 v 0.004 l 0.002,0.008 h 0.01367 v 0.004 0.0117 h 0.01562 l 0.002,0.0137 h 0.01953 l 0.002,0.0234 h 0.02148 l 0.002,0.0234 h 0.02539 v 0.0254 h 0.0293 l 0.002,0.0312 h 0.03125 l 0.002,0.0332 h 0.03516 v 0.0371 h 0.03906 v 0.043 h 0.04297 v 0.041 h 0.04687 v 0.0449 h 0.04883 v 0.0527 h 0.05078 v 0.0527 h 0.05664 v 0.0527 h 0.05664 v 0.0606 h 0.0625 v 0.0644 h 0.06445 v 0.0645 h 0.06836 v 0.0684 h 0.07031 v 0.0723 h 0.07422 v 0.0762 h 0.0758 v 0.0781 h 0.08203 v 0.084 h 0.08203 v 0.082 h 0.08789 v 0.0879 h 0.08984 v 0.0937 h 0.0918 v 0.0957 h 0.09766 v 0.0976 h 0.09766 v 0.0977 h 0.103516 v 0.10547 h 0.105469 v 0.10742 h 0.109375 v 0.10938 H 23.9336 v 0.11718 h 0.115234 v 0.11719 h 0.117188 v 0.11719 h 0.121093 v 0.125 h 0.125 v 0.12305 h 0.126953 v 0.13281 h 0.13086 v 0.13281 h 0.134766 v 0.13477 h 0.136718 v 0.14062 h 0.140625 v 0.14453 h 0.142578 v 0.14258 H 25.3711 v 0.15234 h 0.15039 v 0.15039 h 0.152344 v 0.1543 h 0.15625 v 0.16016 h 0.160156 v 0.16211 h 0.16211 v 0.16601 h 0.166015 v 0.16602 h 0.167969 v 0.17383 h 0.171875 v 0.17382 h 0.173828 v 0.17774 h 0.179688 v 0.18164 h 0.179687 v 0.18555 h 0.185547 v 0.18554 h 0.1875 v 0.19141 h 0.189453 v 0.19336 h 0.195313 v 0.19726 h 0.195312 v 0.19922 h 0.201172 v 0.20508 h 0.203125 v 0.20703 h 0.207031 v 0.20899 h 0.208985 v 0.21484 h 0.21289 v 0.21484 h 0.216797 v 0.21875 h 0.21875 v 0.22461 h 0.220703 v 0.22657 h 0.226563 v 0.22656 h 0.228515 v 0.23437 h 0.230469 v 0.23438 h 0.236328 v 0.23828 h 0.236329 v 0.24023 h 0.242187 v 0.2461 h 0.244141 v 0.25 h 0.248046 v 0.25 h 0.25 v 0.25586 h 0.253907 v 0.25781 h 0.255859 v 0.25977 H 32.7461 v 0.26562 h 0.263672 v 0.26758 h 0.267578 v 0.27344 h 0.269531 v 0.27148 h 0.271484 v 0.2793 h 0.275391 v 0.27929 h 0.279297 v 0.28321 h 0.283203 v 0.28711 h 0.285156 v 0.29101 h 0.28711 v 0.29102 h 0.292968 v 0.29883 h 0.292969 v 0.29882 h 0.298828 v 0.30274 h 0.300781 v 0.30664 h 0.304688 v 0.30859 h 0.306641 v 0.31446 h 0.310547 v 0.31445 h 0.314453 v 0.31641 h 0.316406 v 0.32617 h 0.320312 v 0.32422 h 0.322266 v 0.32812 h 0.326172 v 0.33399 h 0.330078 v 0.33203 h 0.332031 v 0.33984 H 39.9336 v 0.33984 h 0.33789 v 0.34375 h 0.341797 v 0.34766 h 0.345703 v 0.35156 h 0.347657 v 0.35547 h 0.351562 v 0.35547 h 0.355469 v 0.36328 H 42.3711 v 0.36328 h 0.361328 v 0.36524 h 0.363281 v 0.37109 h 0.367188 v 0.375 h 0.371093 v 0.37305 h 0.373047 v 0.38281 h 0.376953 v 0.38086 h 0.378907 v 0.38867 h 0.382812 v 0.39063 h 0.386719 v 0.38867 H 46.1211 v 0.39648 h 0.392578 v 0.40039 h 0.396484 v 0.40235 H 47.3086 v 0.4082 h 0.40039 v 0.4082 h 0.40625 v 0.41016 h 0.408204 v 0.41211 H 48.9336 v 0.41992 h 0.416015 v 0.42383 h 0.416016 v 0.42383 H 50.1875 v 0.42578 h 0.423828 v 0.43164 h 0.425781 v 0.43359 h 0.431641 v 0.43946 h 0.433594 v 0.4414 h 0.435547 v 0.44336 h 0.439453 v 0.44531 h 0.443359 v 0.45313 h 0.445313 v 0.45508 h 0.449218 v 0.45312 h 0.453125 v 0.46094 h 0.455079 v 0.004 H 21.888672 v 0.004 33.23242 h 0.002 v 0.004 h 0.002 0.0039 v 0.004 h 0.002 0.0059 v 0.008 h 0.002 0.0078 v 0.0117 h 0.002 0.01367 v 0.0137 h 0.01562 v 0.0195 h 0.002 0.01953 v 0.0195 h 0.002 0.02148 v 0.0254 h 0.002 0.02539 v 0.0274 h 0.002 0.02734 v 0.0293 h 0.002 0.03125 v 0.0352 h 0.002 0.03516 v 0.0371 h 0.03906 v 0.0391 h 0.002 0.04102 v 0.0449 h 0.04492 v 0.0449 h 0.002 0.04687 v 0.0488 h 0.002 0.05078 v 0.0527 h 0.05469 v 0.0566 h 0.002 0.05664 v 0.0606 h 0.002 0.05859 v 0.0605 h 0.002 0.0625 v 0.0684 h 0.002 0.06641 v 0.0684 h 0.002 0.06836 v 0.0723 h 0.002 0.07227 v 0.0742 h 0.002 0.07617 v 0.0801 h 0.002 0.07813 v 0.0801 h 0.002 0.08203 v 0.0859 H 23.125 v 0.0879 h 0.002 0.08789 v 0.0898 h 0.002 0.0918 v 0.0937 h 0.0957 v 0.0996 h 0.002 0.09766 v 0.10157 h 0.101563 v 0.10156 h 0.002 0.103516 v 0.10937 h 0.002 0.107421 v 0.10938 h 0.002 0.109375 v 0.11523 h 0.002 0.113281 v 0.11719 h 0.002 0.115234 v 0.11914 h 0.002 0.121093 v 0.12109 h 0.002 0.121094 v 0.12891 h 0.002 0.126953 v 0.12891 h 0.002 0.128906 v 0.13672 h 0.002 0.130859 v 0.13476 h 0.002 0.134765 v 0.13672 h 0.002 0.138672 v 0.14258 h 0.002 0.142578 v 0.14844 h 0.002 0.144532 v 0.14648 h 0.002 0.146484 v 0.15625 h 0.002 0.152344 v 0.1543 h 0.002 0.152344 v 0.1582 h 0.002 0.158203 v 0.16016 h 0.002 0.160157 v 0.16601 h 0.002 0.164062 v 0.16992 h 0.002 0.166016 v 0.16993 h 0.002 0.169922 v 0.17382 h 0.002 0.173828 v 0.17774 h 0.002 0.175782 v 0.18164 h 0.002 0.179687 v 0.18555 h 0.002 0.181641 v 0.1875 h 0.002 0.185547 v 0.18945 h 0.002 0.189453 v 0.19336 h 0.002 0.191407 v 0.19922 h 0.002 0.195312 v 0.20117 h 0.002 0.197266 v 0.20117 h 0.002 0.201172 v 0.20703 h 0.002 0.205078 v 0.21094 h 0.002 0.207032 v 0.21289 h 0.002 0.210937 v 0.21484 h 0.002 0.214844 v 0.21875 h 0.002 0.216797 v 0.22266 h 0.002 0.220703 v 0.22656 h 0.002 0.222656 v 0.23242 h 0.002 0.226562 v 0.23047 h 0.002 0.230469 v 0.23633 h 0.002 0.232422 v 0.23828 h 0.002 0.236329 v 0.24219 h 0.002 0.238281 v 0.24609 h 0.002 0.242187 v 0.2461 h 0.002 0.246093 v 0.25195 h 0.002 0.248047 v 0.25391 h 0.002 0.251954 v 0.26172 h 0.002 0.255859 v 0.25976 h 0.002 0.257813 v 0.26563 h 0.002 0.259765 v 0.26757 h 0.002 0.265625 v 0.26758 h 0.002 0.267578 v 0.27735 h 0.002 0.269531 v 0.27539 h 0.002 0.275391 v 0.27929 h 0.277344 v 0.28321 h 0.002 0.28125 v 0.28711 h 0.002 0.283203 v 0.29101 h 0.002 0.285156 v 0.29492 h 0.002 0.291015 v 0.29493 h 0.002 0.292969 v 0.29882 h 0.002 0.294922 v 0.30664 h 0.002 0.298828 v 0.30665 h 0.002 0.302735 v 0.30468 h 0.002 0.304688 v 0.31446 h 0.002 0.308593 v 0.3164 h 0.002 0.3125 v 0.31836 h 0.002 0.314453 v 0.32227 h 0.002 0.318359 v 0.32422 h 0.002 0.320313 v 0.32812 h 0.002 0.324219 v 0.33399 h 0.002 0.328125 v 0.33593 h 0.002 0.330078 v 0.33594 h 0.002 0.333985 v 0.33984 h 0.002 0.335937 v 0.34766 h 0.002 0.339844 v 0.34766 h 0.002 0.34375 v 0.35156 h 0.002 0.347657 v 0.35156 h 0.349609 v 0.35938 h 0.002 0.353516 v 0.35937 h 0.002 0.355469 v 0.36328 h 0.002 0.359375 v 0.36914 h 0.002 0.361328 v 0.3711 h 0.002 0.365235 v 0.37109 h 0.002 0.36914 v 0.37695 h 0.002 0.371094 v 0.37891 h 0.002 0.375 v 0.38477 h 0.002 0.376954 v 0.38476 h 0.002 0.380859 v 0.39063 h 0.002 0.384766 v 0.39257 h 0.002 0.386719 v 0.39649 h 0.002 0.390625 v 0.39648 h 0.002 0.394531 v 0.4043 h 0.002 0.396485 v 0.4043 h 0.002 0.40039 v 0.4082 h 0.002 0.402343 v 0.41211 h 0.002 0.40625 v 0.41602 h 0.002 0.410156 v 0.41992 h 0.002 0.412109 v 0.41992 h 0.002 0.416016 v 0.42578 h 0.419922 v 0.42773 h 0.002 0.421875 v 0.43165 h 0.002 0.425781 v 0.43359 h 0.002 0.427735 v 0.43555 h 0.002 0.431641 v 0.4414 h 0.002 0.433594 v 0.44727 h 0.002 0.4375 v 0.44531 h 0.002 0.441406 v 0.44922 h 0.002 0.445313 v 0.45312 h 0.002 0.445312 v 0.45899 h 0.002 0.451172 v 0.46094 h 0.002 0.453125 v 0.004 H 21.888672 v 415.47458 c 0,1.2463 0.105397,2.4402 0.30664,3.5762 0.02271,0.1282 0.05881,0.2482 0.08398,0.375 0.197956,0.9959 0.461116,1.9551 0.806641,2.8535 0.194512,0.5054 0.411388,0.9964 0.65039,1.4687 v 0 c 0.239176,0.4725 0.501113,0.9275 0.783203,1.3652 0.203867,0.3164 0.430689,0.6127 0.65625,0.9102 0.0867,0.1143 0.162109,0.2381 0.251953,0.3496 h 0.002 c 0.205118,0.2548 0.433076,0.489 0.654296,0.7285 0.127065,0.1374 0.242741,0.2857 0.375,0.418 h 0.002 v 0 h 0.002 0.002 v 0 h 0.002 c 0.0013,0 0.0026,0 0.0039,0 0.0013,0 0.0026,0 0.0039,0 0.0016,0 0.0042,0 0.0059,0 0.0039,0 0.0078,0.01 0.01172,0.012 0.0023,0 0.0036,0.01 0.0059,0.01 0.0023,0 0.0075,0.01 0.0098,0.01 0.0016,0 0.0023,0 0.0039,0.01 l 0.0059,0.01 c 0.01365,0.014 0.02731,0.027 0.04102,0.041 h 0.002 0.0039 c 0.01559,0.016 0.03121,0.031 0.04687,0.047 0.0019,0 0.0039,0 0.0059,0.01 0.0026,0 0.0052,0.01 0.0078,0.01 0.01459,0.015 0.02831,0.03 0.04297,0.045 0.01235,0.012 0.02666,0.023 0.03906,0.035 0.01075,0.011 0.02047,0.022 0.03125,0.033 0.01787,0.018 0.03477,0.037 0.05273,0.055 0.01559,0.016 0.03121,0.031 0.04687,0.047 0.01688,0.017 0.03382,0.034 0.05078,0.051 0.01493,0.015 0.02992,0.03 0.04492,0.045 0.02466,0.025 0.04938,0.05 0.07422,0.074 0.01106,0.011 0.0221,0.022 0.0332,0.033 0.02721,0.027 0.05265,0.057 0.08008,0.084 0.02204,0.022 0.04422,0.044 0.06641,0.066 0.0201,0.02 0.04032,0.04 0.06055,0.061 0.02723,0.027 0.05458,0.055 0.08203,0.082 0.02501,0.025 0.05097,0.049 0.07617,0.074 0.02013,0.02 0.03834,0.042 0.05859,0.062 0.03366,0.034 0.06756,0.068 0.101562,0.1015 0.02823,0.029 0.05551,0.058 0.08398,0.086 0.0266,0.027 0.05327,0.053 0.08008,0.08 0.03048,0.031 0.06104,0.061 0.0918,0.092 0.03403,0.034 0.06719,0.069 0.101562,0.1035 0.02951,0.03 0.05813,0.06 0.08789,0.09 0.03401,0.034 0.06721,0.07 0.101562,0.1035 0.03693,0.037 0.074,0.074 0.111328,0.1114 0.03564,0.036 0.07141,0.072 0.107422,0.1074 0.03434,0.035 0.06883,0.069 0.103516,0.1035 0.04047,0.041 0.08014,0.082 0.121094,0.123 0.03303,0.034 0.06625,0.067 0.09961,0.1 0.04591,0.047 0.09018,0.095 0.136719,0.1406 0.04048,0.041 0.08208,0.081 0.123047,0.1211 0.03919,0.04 0.07754,0.08 0.117187,0.1191 0.03979,0.04 0.07887,0.081 0.119141,0.1211 0.04687,0.048 0.0931,0.096 0.140625,0.1426 0.04818,0.049 0.09565,0.098 0.144531,0.1465 0.03982,0.04 0.07885,0.081 0.119141,0.1211 0.05327,0.054 0.106035,0.1087 0.160156,0.1621 0.04239,0.043 0.08402,0.086 0.126953,0.1289 0.05459,0.056 0.108582,0.1113 0.164062,0.166 0.04495,0.046 0.08921,0.092 0.134766,0.1367 0.0571,0.058 0.113794,0.1166 0.171875,0.1738 0.04914,0.05 0.09857,0.099 0.148438,0.1485 0.05036,0.051 0.09927,0.1038 0.15039,0.1543 0.05771,0.059 0.115111,0.1179 0.173828,0.1758 0.05522,0.056 0.109876,0.1126 0.166016,0.1679 0.05907,0.06 0.117617,0.1206 0.177734,0.1797 0.05165,0.053 0.103794,0.1045 0.15625,0.1563 0.06416,0.065 0.127958,0.131 0.19336,0.1953 0.05395,0.055 0.107285,0.11 0.162109,0.164 0.06347,0.065 0.126718,0.1298 0.191406,0.1934 0.06127,0.062 0.121187,0.1261 0.183594,0.1875 0.06026,0.062 0.12028,0.1232 0.181641,0.1836 0.06893,0.071 0.138617,0.1399 0.208984,0.209 0.05616,0.057 0.110857,0.1155 0.167969,0.1719 0.0746,0.076 0.148324,0.1537 0.224609,0.2285 0.06093,0.062 0.121543,0.1245 0.183594,0.1855 0.07051,0.072 0.140873,0.1442 0.212891,0.2149 0.0686,0.07 0.137002,0.1402 0.207031,0.2089 0.0673,0.069 0.134447,0.1376 0.203125,0.2051 0.07628,0.078 0.152418,0.156 0.230469,0.2324 0.06668,0.068 0.133145,0.1364 0.201171,0.2032 0.07527,0.077 0.14957,0.155 0.226563,0.2304 0.0711,0.073 0.142205,0.1455 0.214844,0.2168 0.0778,0.08 0.154733,0.1603 0.234375,0.2383 0.07365,0.075 0.147356,0.1508 0.222656,0.2246 0.07682,0.079 0.153806,0.1573 0.232422,0.2344 0.08164,0.084 0.162423,0.1681 0.246094,0.25 0.07557,0.078 0.151207,0.1547 0.228515,0.2305 0.08254,0.085 0.165379,0.1692 0.25,0.2519 0.08137,0.084 0.162705,0.1665 0.246094,0.2481 0.0791,0.081 0.157276,0.1628 0.238281,0.2422 0.08637,0.089 0.173067,0.177 0.261719,0.2636 0.0784,0.081 0.156051,0.1616 0.236328,0.2403 0.09364,0.097 0.186879,0.1931 0.283203,0.2871 0.07875,0.081 0.15764,0.1613 0.238282,0.2402 0.09203,0.095 0.182714,0.1909 0.277343,0.2832 0.08316,0.086 0.166679,0.1705 0.251953,0.2539 0.09742,0.1006 0.194595,0.2012 0.294922,0.2988 0.08196,0.084 0.164032,0.1679 0.248047,0.25 0.09676,0.1 0.193337,0.1998 0.292969,0.2969 0.08985,0.093 0.179164,0.1853 0.271484,0.2754 0.09392,0.097 0.188537,0.1929 0.285156,0.2871 0.09684,0.1 0.193248,0.1998 0.292969,0.2969 0.09266,0.095 0.18596,0.1903 0.28125,0.2832 0.09675,0.1 0.193344,0.1998 0.292969,0.2969 0.09998,0.1033 0.199684,0.2064 0.302734,0.3066 0.09232,0.095 0.184358,0.1906 0.279297,0.2832 0.103604,0.1074 0.207536,0.2143 0.314453,0.3184 0.102855,0.1063 0.206388,0.2113 0.3125,0.3144 0.09553,0.099 0.19073,0.1971 0.289063,0.293 0.106185,0.1101 0.212599,0.2195 0.322265,0.3262 0.103124,0.1067 0.206099,0.2129 0.3125,0.3164 0.102376,0.106 0.204935,0.2116 0.310547,0.3144 0.110677,0.1149 0.221471,0.2288 0.335938,0.3399 0.104407,0.108 0.208636,0.2156 0.316406,0.3203 0.107505,0.1115 0.215093,0.2222 0.326172,0.3301 0.111684,0.1158 0.2243,0.2298 0.339844,0.3418 0.101459,0.105 0.201999,0.2106 0.30664,0.3125 0.116195,0.121 0.233123,0.2406 0.353516,0.3574 0.11508,0.1194 0.230426,0.2381 0.349609,0.3535 0.10908,0.113 0.21927,0.2246 0.332032,0.334 0.11152,0.1159 0.222509,0.2317 0.33789,0.3437 0.118115,0.123 0.236921,0.2447 0.359375,0.3633 0.112477,0.1169 0.225392,0.2328 0.341797,0.3457 0.119003,0.124 0.237915,0.2476 0.361328,0.3672 0.118699,0.1235 0.238246,0.2461 0.361328,0.3652 0.118748,0.1236 0.238198,0.2461 0.361328,0.3653 0.116847,0.1216 0.234372,0.242 0.355469,0.3593 0.124017,0.1294 0.248136,0.2583 0.376953,0.3829 0.120389,0.1253 0.242284,0.2483 0.367188,0.3691 0.124045,0.1293 0.248106,0.2583 0.376953,0.3828 0.121232,0.1263 0.243323,0.2513 0.369141,0.3731 0.130037,0.1357 0.261158,0.2698 0.396484,0.4003 0.118035,0.1229 0.236994,0.2448 0.359375,0.3633 0.129868,0.136 0.25937,0.2717 0.394531,0.4024 0.132551,0.1385 0.266242,0.2751 0.404297,0.4082 0.123759,0.129 0.248408,0.2566 0.376953,0.3808 0.131135,0.1372 0.263859,0.2725 0.400391,0.4043 0.129877,0.1359 0.259361,0.2718 0.394531,0.4024 0.134338,0.1406 0.27015,0.2791 0.410156,0.414 0.13629,0.1426 0.273898,0.2833 0.416016,0.42 0.122944,0.1283 0.24732,0.2553 0.375,0.3789 0.14512,0.1525 0.291587,0.3032 0.443359,0.4492 0.130639,0.1365 0.262444,0.2712 0.398438,0.4023 0.139331,0.1461 0.280331,0.2897 0.425781,0.4297 0.1365,0.143 0.27365,0.2848 0.416016,0.4219 0.135423,0.142 0.270901,0.2837 0.412109,0.4199 0.142543,0.1499 0.286575,0.2979 0.435547,0.4414 0.144247,0.1515 0.290584,0.3004 0.441406,0.4453 0.141184,0.148 0.28417,0.2939 0.431641,0.4356 0.143059,0.1501 0.287978,0.2978 0.4375,0.4414 0.141787,0.1488 0.285453,0.295 0.433594,0.4375 0.142881,0.1502 0.286198,0.2996 0.435547,0.4433 0.147488,0.1554 0.296775,0.3086 0.451171,0.4571 0.15006,0.158 0.30178,0.314 0.458985,0.4648 0.146081,0.1535 0.294423,0.3044 0.447265,0.4512 0.147538,0.1553 0.296725,0.3087 0.451172,0.457 0.152875,0.1611 0.308447,0.3191 0.46875,0.4727 0.146651,0.1542 0.293787,0.3076 0.447266,0.4551 0.154988,0.1635 0.311967,0.3245 0.474609,0.4804 0.155399,0.1638 0.313482,0.3244 0.476563,0.4805 0.148349,0.1561 0.297779,0.3098 0.453125,0.459 0.1578,0.1667 0.316667,0.3314 0.482422,0.4902 0.155969,0.1646 0.314785,0.3256 0.478515,0.4824 0.156869,0.1656 0.315746,0.3286 0.480469,0.4864 0.15805,0.1669 0.318346,0.3312 0.484375,0.4902 0.159993,0.169 0.322059,0.3353 0.490234,0.4961 0.160046,0.169 0.322002,0.3352 0.490235,0.4961 0.159964,0.169 0.322085,0.3353 0.490234,0.4961 0.161819,0.1711 0.325889,0.3392 0.496094,0.5019 0.162999,0.1724 0.328485,0.342 0.5,0.5059 0.161711,0.1711 0.325993,0.3392 0.496094,0.5019 0.166658,0.1767 0.336129,0.3499 0.511718,0.5176 0.165175,0.175 0.331917,0.3475 0.50586,0.5137 0.16781,0.1779 0.338755,0.3526 0.515625,0.5215 0.170469,0.1806 0.343622,0.358 0.523437,0.5293 0.163974,0.1735 0.331296,0.3429 0.503906,0.5078 0.170662,0.1812 0.343377,0.3594 0.523438,0.5312 0.175952,0.1869 0.355072,0.37 0.541016,0.5469 0.166408,0.1762 0.334444,0.3503 0.509765,0.5176 0.17587,0.187 0.355144,0.3698 0.541016,0.5469 0.172803,0.1834 0.348805,0.3633 0.53125,0.5371 0.172763,0.1835 0.348837,0.3632 0.53125,0.5371 0.175433,0.1867 0.353654,0.3701 0.539062,0.5469 0.179542,0.1911 0.362737,0.3778 0.552735,0.5586 0.175554,0.1867 0.35352,0.37 0.539062,0.5468 0.183227,0.1952 0.370328,0.386 0.564453,0.5703 0.173134,0.184 0.348406,0.3648 0.53125,0.5391 0.185532,0.1981 0.37552,0.3912 0.572266,0.5781 0.181061,0.1928 0.364932,0.3823 0.556641,0.5645 0.179708,0.1914 0.364473,0.3776 0.554687,0.5586 0.187204,0.1999 0.37754,0.3955 0.576172,0.584 0.181934,0.1939 0.367835,0.3832 0.560547,0.5664 0.186483,0.1992 0.376381,0.3941 0.574219,0.582 0.188964,0.2018 0.38141,0.3997 0.582031,0.5898 0.185597,0.198 0.375431,0.3914 0.572266,0.5782 0.188677,0.2016 0.381708,0.3978 0.582031,0.5879 0.189761,0.2028 0.38244,0.4026 0.583984,0.5937 0.191088,0.2043 0.386801,0.4033 0.589844,0.5957 0.187632,0.2006 0.378959,0.3969 0.578125,0.5859 0.19804,0.2125 0.400393,0.4196 0.611328,0.6192 0.190752,0.2039 0.385216,0.4037 0.587891,0.5957 0.198084,0.2122 0.402303,0.4178 0.613281,0.6172 0.191701,0.2049 0.38609,0.4067 0.589844,0.5996 0.196396,0.2105 0.398329,0.4154 0.607422,0.6133 0.197376,0.2117 0.399162,0.4183 0.609374,0.6172 0.198597,0.2131 0.401679,0.4212 0.613282,0.621 0.19728,0.2118 0.399254,0.4183 0.609375,0.6172 0.207121,0.2227 0.41932,0.4399 0.640625,0.6485 0.193465,0.2071 0.391867,0.4087 0.597656,0.6035 0.208225,0.2242 0.421933,0.4425 0.644531,0.6523 0.197432,0.2118 0.399065,0.4183 0.609375,0.6172 0.208202,0.2243 0.421938,0.4424 0.644532,0.6524 0.20534,0.2207 0.415454,0.4358 0.634765,0.6425 0.205591,0.2211 0.415161,0.4374 0.634766,0.6446 0.209868,0.2259 0.4259,0.4449 0.65039,0.6562 0.203469,0.2187 0.411708,0.4318 0.628907,0.6367 0.213766,0.2306 0.433126,0.4546 0.662109,0.67 0.207377,0.223 0.420915,0.4396 0.642578,0.6484 0.208486,0.2247 0.421561,0.444 0.644531,0.6543 0.214842,0.2321 0.435752,0.4571 0.666016,0.6738 0.211808,0.2285 0.429474,0.4506 0.65625,0.6641 0.21514,0.2323 0.437359,0.4569 0.667969,0.6738 0.212087,0.2289 0.429127,0.4521 0.65625,0.666 0.219093,0.2371 0.444501,0.4665 0.679687,0.6875 0.216984,0.2344 0.43913,0.463 0.671875,0.6817 0.214662,0.2319 0.435916,0.4573 0.666016,0.6738 0.224527,0.2432 0.455809,0.4788 0.697262,0.7051 0.21437,0.2313 0.43434,0.4559 0.66406,0.6719 0.22193,0.2405 0.45095,0.4732 0.68946,0.6972 0.22054,0.2389 0.44668,0.4708 0.68359,0.6934 0.22553,0.2446 0.4585,0.4815 0.70117,0.709 0.22385,0.2424 0.45459,0.4775 0.69532,0.7031 0.22638,0.2453 0.45946,0.4829 0.70312,0.7109 0.22034,0.2385 0.4469,0.4693 0.6836,0.6914 0.22908,0.249 0.46405,0.4914 0.71093,0.7227 0.22493,0.244 0.45719,0.48 0.69922,0.707 0.23215,0.2525 0.47223,0.4962 0.72266,0.7305 0.22668,0.246 0.46099,0.4842 0.70508,0.7129 0.23304,0.2535 0.47312,0.4992 0.72461,0.7344 0.23158,0.2514 0.4709,0.4951 0.7207,0.7285 0.22945,0.2492 0.46557,0.4912 0.71289,0.7226 0.23412,0.255 0.47573,0.5019 0.72851,0.7383 0.23605,0.257 0.48132,0.5041 0.73633,0.7422 0.23371,0.2542 0.47427,0.5006 0.72657,0.7363 0.23407,0.2551 0.47572,0.5019 0.72851,0.7383 0.24074,0.2627 0.48945,0.5168 0.75,0.7598 0.23467,0.2555 0.47701,0.5015 0.73047,0.7383 0.24154,0.2638 0.49238,0.5178 0.75391,0.7617 0.23957,0.2612 0.48688,0.5142 0.74609,0.7558 0.23943,0.2613 0.48702,0.5142 0.74609,0.7559 0.24457,0.2672 0.49861,0.5247 0.76367,0.7715 0.23718,0.2587 0.48183,0.5104 0.73829,0.75 0.24867,0.2724 0.50736,0.5339 0.77734,0.7851 0.24312,0.2657 0.49438,0.5222 0.75781,0.7676 0.24785,0.2712 0.50443,0.5331 0.77344,0.7832 0.24335,0.266 0.49604,0.5219 0.75977,0.7676 0.25149,0.2756 0.51181,0.5411 0.78515,0.7949 0.24328,0.266 0.49609,0.5219 0.75977,0.7676 0.25502,0.28 0.51932,0.551 0.79687,0.8086 0.24471,0.2677 0.49829,0.5263 0.76367,0.7734 0.25419,0.2794 0.5183,0.5477 0.79493,0.8047 0.25241,0.277 0.51455,0.5439 0.78906,0.7988 0.25339,0.2781 0.5173,0.5449 0.79297,0.8008 0.25441,0.2793 0.51803,0.5478 0.79492,0.8047 0.25637,0.2816 0.52156,0.5536 0.80078,0.8125 0.25643,0.2815 0.52347,0.5519 0.80273,0.8106 0.25418,0.2792 0.51826,0.5478 0.79493,0.8046 0.26264,0.2892 0.53554,0.5669 0.82226,0.8321 0.25462,0.2795 0.51968,0.5476 0.79688,0.8047 0.26161,0.2882 0.5328,0.5657 0.81836,0.83 0.25949,0.2857 0.52945,0.5601 0.8125,0.8223 0.26512,0.2924 0.54034,0.5739 0.83007,0.8418 0.25702,0.2828 0.52455,0.5546 0.80469,0.8145 0.26936,0.2978 0.55082,0.583 0.84571,0.8554 0.26122,0.2878 0.5332,0.5642 0.81836,0.8281 0.26631,0.2943 0.54462,0.5764 0.83593,0.8458 0.26742,0.295 0.5453,0.5793 0.83789,0.8496 0.26522,0.2928 0.54204,0.5736 0.83203,0.8418 0.27236,0.3013 0.55692,0.59 0.85547,0.8652 0.26686,0.2945 0.54595,0.5762 0.83789,0.8457 0.26957,0.2981 0.55045,0.5849 0.84571,0.8574 0.2717,0.3008 0.55567,0.5885 0.85351,0.8633 0.26984,0.2987 0.55202,0.5844 0.84766,0.8574 0.27655,0.3069 0.5654,0.6011 0.86914,0.8809 0.27099,0.3001 0.55452,0.5872 0.85156,0.8613 0.28017,0.311 0.57276,0.6094 0.88086,0.8926 0.27239,0.3014 0.55675,0.5901 0.85547,0.8652 0.27844,0.3089 0.56895,0.6053 0.875,0.8867 0.27646,0.3066 0.56546,0.5995 0.86914,0.8789 0.28053,0.3116 0.57419,0.609 0.88281,0.8926 0.27597,0.3062 0.56405,0.5998 0.86719,0.8789 0.2829,0.315 0.57905,0.616 0.89063,0.9024 0.28273,0.3142 0.57928,0.6146 0.89062,0.9004 0.28042,0.3115 0.57424,0.609 0.88281,0.8925 0.28106,0.3129 0.57535,0.6119 0.88477,0.8965 0.2875,0.3207 0.58899,0.6269 0.90625,0.918 0.28373,0.316 0.58186,0.6171 0.89453,0.9043 0.28881,0.322 0.59129,0.6298 0.91016,0.9219 0.28432,0.3164 0.58307,0.6187 0.89648,0.9062 0.28675,0.3202 0.58784,0.6255 0.9043,0.916 0.29454,0.3293 0.60376,0.6435 0.92969,0.9414 0.28428,0.3165 0.58302,0.6188 0.89648,0.9063 0.29506,0.33 0.60501,0.6448 0.93164,0.9433 0.28866,0.3221 0.59135,0.6299 0.91016,0.9219 0.29251,0.3272 0.60024,0.6393 0.92382,0.9356 0.29498,0.33 0.60508,0.6448 0.93164,0.9433 0.29339,0.3281 0.60306,0.6406 0.92774,0.9375 0.29684,0.3324 0.60857,0.6489 0.9375,0.9492 0.29765,0.3332 0.61149,0.6502 0.94141,0.9512 0.29047,0.3249 0.5948,0.6355 0.91601,0.9297 0.30332,0.3411 0.62388,0.6651 0.96094,0.9727 0.29908,0.3351 0.61354,0.6544 0.94531,0.957 0.29756,0.3336 0.61145,0.6498 0.94141,0.9512 0.30363,0.3412 0.62346,0.6651 0.96094,0.9726 0.30082,0.3375 0.61712,0.6585 0.95117,0.9629 0.30181,0.3391 0.61981,0.661 0.95507,0.9668 0.30357,0.3414 0.62344,0.665 0.96094,0.9727 0.30576,0.3441 0.62852,0.6706 0.96875,0.9804 0.30589,0.3442 0.62835,0.6707 0.96875,0.9805 0.30649,0.345 0.62953,0.672 0.97071,0.9824 0.30754,0.3462 0.63211,0.6749 0.97461,0.9864 0.30443,0.3429 0.62606,0.6677 0.96484,0.9765 0.31577,0.3569 0.64911,0.6956 1.00195,1.0156 0.30883,0.3475 0.6344,0.678 0.97852,0.9903 0.30834,0.3474 0.63491,0.6779 0.97851,0.9902 0.31075,0.351 0.63964,0.6828 0.98633,0.9981 0.31541,0.3567 0.64943,0.6938 1.00195,1.0136 0.31375,0.3542 0.64568,0.6902 0.9961,1.0078 0.31303,0.3537 0.64455,0.6886 0.99414,1.0059 0.31845,0.3603 0.65534,0.7029 1.01172,1.0254 0.31365,0.3542 0.6457,0.6902 0.99609,1.0078 0.31756,0.3596 0.6544,0.6995 1.00977,1.0215 0.31699,0.3591 0.6531,0.6979 1.00781,1.0195 0.32366,0.3672 0.66622,0.715 1.0293,1.043 0.31592,0.3573 0.65053,0.6956 1.0039,1.0156 0.32222,0.3659 0.66402,0.7121 1.02539,1.0391 0.32496,0.3688 0.67039,0.718 1.03516,1.0468 0.31864,0.361 0.65678,0.7025 1.01367,1.0254 0.32324,0.3676 0.66651,0.7148 1.0293,1.043 0.32903,0.3744 0.67876,0.727 1.04883,1.0606 0.32339,0.3668 0.66636,0.7134 1.02929,1.041 0.32638,0.3712 0.67227,0.7236 1.03907,1.0547 0.32563,0.3704 0.67315,0.7203 1.03906,1.0507 0.33122,0.3775 0.68364,0.7325 1.05664,1.0684 0.32626,0.3711 0.67231,0.7219 1.03906,1.0527 0.33362,0.3806 0.68835,0.7399 1.06445,1.0782 0.32455,0.3693 0.67047,0.7175 1.03516,1.0468 0.3372,0.3858 0.69731,0.7495 1.07813,1.0918 0.33001,0.3762 0.68108,0.7298 1.05273,1.0645 0.33331,0.3809 0.68851,0.7396 1.06445,1.0781 0.33494,0.3829 0.69227,0.744 1.07032,1.084 0.33619,0.3844 0.69455,0.7467 1.07421,1.0879 0.33539,0.3833 0.69361,0.7437 1.07227,1.084 0.33812,0.387 0.69982,0.7505 1.08203,1.0937 0.33856,0.3874 0.69925,0.7523 1.08203,1.0957 0.33771,0.3865 0.69833,0.7492 1.08008,1.0918 0.33853,0.388 0.69913,0.7538 1.08203,1.0977 0.34214,0.3927 0.70813,0.7621 1.09571,1.1093 0.34231,0.3928 0.70788,0.762 1.0957,1.1094 0.33984,0.3897 0.7032,0.7565 1.08789,1.1016 0.34346,0.395 0.71211,0.766 1.10156,1.1152 0.3463,0.3982 0.71825,0.7714 1.11133,1.1231 0.34569,0.3971 0.71515,0.7703 1.10742,1.1211 0.3471,0.3987 0.71918,0.773 1.11328,1.125 0.34104,0.3915 0.70535,0.759 1.0918,1.1054 0.35247,0.407 0.72954,0.7881 1.13086,1.1465 0.34772,0.4001 0.72013,0.776 1.11523,1.1289 0.34692,0.3997 0.71909,0.7743 1.11328,1.127 0.35556,0.4108 0.73717,0.795 1.14258,1.1562 0.34906,0.4017 0.72221,0.7788 1.11914,1.1328 0.35084,0.4049 0.72755,0.7841 1.12696,1.1407 0.35464,0.4099 0.73623,0.7938 1.14062,1.1543 0.35467,0.4095 0.73623,0.7923 1.14063,1.1523 0.35015,0.4043 0.72435,0.7845 1.12304,1.1406 0.36042,0.418 0.75,0.8072 1.16211,1.1739 0.35345,0.4083 0.73371,0.7913 1.13672,1.1503 0.35808,0.415 0.74319,0.8039 1.15235,1.168 0.3593,0.4165 0.74738,0.8046 1.1582,1.1699 0.35812,0.4148 0.74308,0.8041 1.15234,1.168 0.36211,0.4201 0.75148,0.8137 1.16602,1.1816 0.36152,0.419 0.75032,0.8108 1.16406,1.1778 0.35952,0.4168 0.74698,0.8065 1.1582,1.1719 0.36457,0.4234 0.75788,0.819 1.17578,1.1894 0.36001,0.4178 0.74814,0.8078 1.16016,1.1738 0.36413,0.4241 0.75817,0.8205 1.17578,1.1914 0.36798,0.4286 0.76682,0.827 1.18946,1.2012 0.36325,0.4224 0.75342,0.8181 1.16992,1.1875 0.36812,0.4292 0.76644,0.8285 1.18945,1.2031 0.36656,0.4273 0.76259,0.8261 1.18359,1.1993 0.3684,0.43 0.76788,0.8298 1.19141,1.205 0.37143,0.4337 0.77363,0.837 1.20117,1.2149 0.36987,0.4316 0.76787,0.8346 1.19336,1.2109 0.3713,0.4337 0.77369,0.837 1.20117,1.2149 0.36868,0.4308 0.76922,0.8313 1.19336,1.207 0.37619,0.4409 0.78455,0.8511 1.21875,1.2344 0.37317,0.4361 0.7769,0.8431 1.20703,1.2226 0.37836,0.4429 0.78953,0.8538 1.22657,1.2383 0.3687,0.4306 0.76706,0.8317 1.1914,1.207 0.38144,0.4483 0.79682,0.8653 1.23828,1.2539 0.37358,0.4374 0.77804,0.8443 1.20899,1.2247 0.38027,0.4468 0.79433,0.8605 1.23437,1.248 0.37816,0.4436 0.78741,0.8553 1.22461,1.2402 0.38051,0.4471 0.79393,0.8626 1.23438,1.25 0.38017,0.4465 0.79432,0.8591 1.23437,1.2461 0.38161,0.4489 0.79621,0.8652 1.23828,1.2539 0.38403,0.4519 0.80076,0.8728 1.2461,1.2637 0.38266,0.4499 0.79867,0.8665 1.24218,1.2559 0.3831,0.4508 0.7999,0.8676 1.24415,1.2578 0.38346,0.452 0.80117,0.8707 1.24609,1.2617 0.38884,0.4593 0.81146,0.8849 1.26367,1.2812 0.38732,0.4565 0.80968,0.8795 1.25977,1.2735 0.38349,0.4519 0.80099,0.871 1.24609,1.2617 0.38986,0.4612 0.81566,0.8876 1.26953,1.2852 0.38947,0.4603 0.81424,0.8863 1.26758,1.2832 0.39168,0.4631 0.81904,0.8921 1.27539,1.291 0.39069,0.4614 0.81646,0.8896 1.27149,1.2871 0.38775,0.4583 0.8104,0.8821 1.26171,1.2773 0.39329,0.4669 0.82421,0.8972 1.28321,1.2989 0.39774,0.472 0.83188,0.9072 1.29687,1.3125 0.39188,0.4634 0.8204,0.8922 1.27735,1.291 0.39479,0.4682 0.826,0.9004 1.2871,1.3027 0.39726,0.4718 0.83035,0.9076 1.29493,1.3125 0.39388,0.4674 0.82506,0.8992 1.28515,1.3008 0.40169,0.4779 0.84168,0.9189 1.3125,1.3281 0.39343,0.4668 0.82361,0.8978 1.28321,1.2988 0.39687,0.4732 0.83413,0.9087 1.29882,1.3145 0.40156,0.4798 0.84325,0.9214 1.31446,1.332 0.40322,0.4813 0.84496,0.9244 1.31836,1.336 0.4017,0.4784 0.84317,0.9207 1.31445,1.33 0.40248,0.4797 0.84398,0.922 1.31641,1.3321 0.39755,0.4741 0.83482,0.9102 1.30078,1.3164 0.40703,0.4879 0.8567,0.9353 1.33593,1.3515 0.40205,0.481 0.84403,0.9229 1.31641,1.334 0.40849,0.49 0.86039,0.9379 1.3418,1.3555 0.40577,0.4856 0.85247,0.9314 1.33008,1.3457 0.40837,0.4893 0.85657,0.9386 1.33789,1.3555 0.40505,0.4854 0.85124,0.9315 1.32812,1.3457 0.4156,0.4996 0.87371,0.9586 1.36524,1.3828 0.40801,0.4877 0.85707,0.9362 1.33789,1.3515 0.40767,0.4888 0.8572,0.9373 1.33789,1.3536 0.41088,0.494 0.86421,0.949 1.34961,1.3691 0.41443,0.4988 0.87289,0.9555 1.36328,1.3789 0.41155,0.4945 0.86516,0.9489 1.35156,1.3692 0.41121,0.4947 0.86732,0.9484 1.35352,1.3691 0.41627,0.5025 0.87766,0.9627 1.37109,1.3887 0.41748,0.5033 0.87997,0.9642 1.375,1.3906 0.41622,0.5012 0.87586,0.9601 1.36914,1.3848 0.41572,0.5009 0.87443,0.9602 1.36719,1.3847 0.41775,0.5046 0.88114,0.9677 1.37695,1.3945 0.42031,0.5079 0.88728,0.9731 1.38672,1.4024 0.41988,0.5069 0.88398,0.9719 1.38281,1.4004 0.41753,0.5041 0.88122,0.9661 1.37696,1.3926 0.42178,0.5109 0.89059,0.9788 1.39257,1.4101 0.42341,0.5126 0.8942,0.9818 1.39844,1.4141 0.42078,0.5091 0.88605,0.9764 1.38672,1.4062 0.42589,0.5167 0.90016,0.9887 1.4082,1.4239 0.41938,0.5078 0.88381,0.9718 1.38282,1.4003 0.42733,0.5202 0.90346,0.9942 1.41406,1.4317 0.42774,0.5199 0.903,0.9945 1.41406,1.4316 0.42294,0.5134 0.89402,0.9816 1.39844,1.4141 0.42958,0.5237 0.90774,1.0015 1.42187,1.4414 0.42824,0.5213 0.90577,0.9956 1.41797,1.4336 0.42897,0.5225 0.90851,0.9988 1.42188,1.4375 0.42905,0.5227 0.90627,0.9987 1.41992,1.4375 0.43344,0.529 0.91553,1.012 1.43555,1.4551 0.42909,0.5228 0.90604,1.0007 1.41992,1.4394 0.43304,0.5292 0.91577,1.0104 1.43554,1.4531 0.43509,0.5317 0.92064,1.0145 1.44336,1.459 0.4319,0.5273 0.91339,1.0078 1.43164,1.4493 0.43469,0.532 0.92081,1.0141 1.44336,1.4589 0.43544,0.5333 0.92153,1.0173 1.44532,1.4629 0.43821,0.5371 0.92724,1.0266 1.45507,1.4746 0.43252,0.5293 0.91573,1.0105 1.43555,1.4532 0.43773,0.5385 0.92922,1.0253 1.45703,1.4746 0.44259,0.5447 0.93787,1.039 1.47266,1.4922 0.43498,0.5332 0.92153,1.0177 1.44531,1.4629 0.43903,0.5405 0.93276,1.0298 1.46289,1.4804 0.44298,0.5466 0.94061,1.0418 1.47656,1.4961 0.44699,0.5504 0.94874,1.0494 1.49024,1.5059 0.43319,0.5311 0.91778,1.0137 1.43945,1.457 0.44675,0.553 0.95014,1.0532 1.49219,1.5117 0.44201,0.5454 0.93957,1.0391 1.47461,1.4922 0.44611,0.5517 0.94902,1.0504 1.49023,1.5078 0.44342,0.548 0.94307,1.0433 1.48047,1.4981 0.44566,0.5518 0.94729,1.0504 1.48828,1.5078 0.44871,0.556 0.95643,1.0575 1.50196,1.5176 0.44524,0.551 0.94772,1.0493 1.48828,1.5058 0.44751,0.5553 0.9519,1.0563 1.49609,1.5156 0.45095,0.5602 0.96235,1.0687 1.51172,1.5313 0.44913,0.5568 0.95536,1.0613 1.50195,1.5215 0.45375,0.5633 0.966,1.0728 1.51953,1.5371 0.45135,0.5593 0.95979,1.0641 1.50977,1.5254 0.45132,0.5605 0.95944,1.0689 1.50977,1.5312 0.45519,0.5663 0.96916,1.077 1.52539,1.543 0.45182,0.5611 0.96043,1.0689 1.51171,1.5312 0.45706,0.5694 0.97385,1.083 1.53321,1.5508 0.45684,0.5682 0.97224,1.082 1.53125,1.5489 0.45466,0.5657 0.96742,1.0778 1.52344,1.5429 0.46044,0.574 0.9802,1.092 1.54492,1.5625 0.45817,0.5703 0.97382,1.0869 1.53515,1.5547 0.45739,0.5697 0.97472,1.0853 1.53516,1.5527 0.46389,0.5794 0.98627,1.1026 1.55664,1.5762 0.45895,0.5713 0.97623,1.0887 1.53906,1.5567 0.46104,0.575 0.98061,1.0958 1.54688,1.5664 0.46403,0.5801 0.98749,1.1043 1.55859,1.5781 0.46325,0.5783 0.98482,1.1018 1.55469,1.5742 0.46683,0.5832 0.99304,1.1125 1.56836,1.5879 0.46244,0.5763 0.98399,1.0977 1.55273,1.5684 0.46761,0.5852 0.99334,1.1152 1.57032,1.5918 0.4685,0.5857 0.99592,1.1152 1.57421,1.5918 0.46573,0.5821 0.99012,1.1078 1.56446,1.582 0.46961,0.5885 0.99755,1.1232 1.57812,1.6015 0.4704,0.5891 1.00234,1.1233 1.58399,1.6016 0.46715,0.5843 0.99533,1.1128 1.57226,1.5879 0.47461,0.5961 1.00906,1.1365 1.59766,1.6191 0.46845,0.5865 0.99493,1.1176 1.57422,1.5938 0.47522,0.5972 1.01169,1.1379 1.60156,1.6211 0.47232,0.5926 1.00425,1.1294 1.58984,1.6094 0.4765,0.5986 1.01541,1.1413 1.60743,1.625 0.47443,0.5948 1.00685,1.1362 1.5957,1.6171 0.47437,0.5958 1.00852,1.1358 1.59765,1.6172 0.47982,0.6036 1.02157,1.1524 1.61915,1.6387 0.4751,0.5962 1.00919,1.1378 1.59961,1.6191 0.47969,0.6037 1.02125,1.1507 1.61914,1.6368 0.47995,0.6034 1.01903,1.153 1.61718,1.6386 0.47636,0.5995 1.01428,1.1418 1.60742,1.625 0.48399,0.6113 1.02957,1.1657 1.63477,1.6563 0.48356,0.6088 1.02662,1.1619 1.63086,1.6504 0.47929,0.6029 1.01925,1.15 1.61719,1.6347 0.48416,0.6119 1.02872,1.1678 1.63476,1.6582 0.4866,0.6143 1.03478,1.1725 1.64453,1.6641 0.48451,0.6103 1.0284,1.1655 1.63477,1.6543 0.48607,0.6131 1.0334,1.1698 1.64258,1.6602 0.48486,0.6121 1.03298,1.1723 1.64062,1.6621 0.48763,0.6162 1.03627,1.1758 1.64844,1.6679 0.48776,0.6169 1.03776,1.1776 1.65039,1.67 0.48673,0.6159 1.03706,1.1743 1.64844,1.666 0.49052,0.6223 1.0444,1.186 1.66211,1.6816 0.48946,0.6206 1.04007,1.1853 1.65625,1.6797 0.49113,0.6239 1.04686,1.1873 1.66601,1.6836 0.49105,0.6234 1.04694,1.1878 1.66602,1.6836 0.49232,0.626 1.04842,1.1922 1.66992,1.6894 0.49192,0.6259 1.0488,1.1924 1.66992,1.6895 0.49422,0.6295 1.0527,1.2001 1.67774,1.6992 0.4926,0.6277 1.04908,1.1955 1.67187,1.6934 0.49658,0.6339 1.05814,1.2073 1.6875,1.709 0.49401,0.6301 1.05421,1.1981 1.67969,1.6972 0.49706,0.6357 1.06063,1.2105 1.69141,1.7129 0.4976,0.6366 1.06334,1.2101 1.69531,1.7129 0.49756,0.6366 1.0614,1.2123 1.69336,1.7149 0.49632,0.6352 1.05908,1.2092 1.68945,1.7109 0.50037,0.642 1.06977,1.221 1.70703,1.7266 0.49724,0.6379 1.06274,1.2137 1.69532,1.7168 0.50197,0.6453 1.07421,1.2268 1.71484,1.7343 0.49956,0.6415 1.06643,1.2199 1.70312,1.7246 0.50211,0.6464 1.0755,1.2287 1.7168,1.7364 0.50222,0.6466 1.0751,1.2286 1.7168,1.7363 0.50381,0.6495 1.0781,1.235 1.72265,1.7441 0.50212,0.6472 1.07453,1.2288 1.7168,1.7364 0.50505,0.6526 1.0811,1.2391 1.72852,1.75 0.50452,0.6517 1.07981,1.238 1.72656,1.748 0.50488,0.653 1.08272,1.2394 1.73047,1.75 0.50789,0.658 1.08922,1.2483 1.74218,1.7617 0.506,0.6548 1.08633,1.2426 1.73633,1.7539 0.50706,0.6577 1.08593,1.2492 1.73828,1.7617 0.50853,0.6605 1.091,1.2532 1.7461,1.7676 0.50875,0.6608 1.09233,1.2532 1.74805,1.7676 0.50939,0.6623 1.09279,1.2583 1.75,1.7734 0.51143,0.6655 1.09898,1.2626 1.75976,1.7793 0.5089,0.6619 1.09114,1.2551 1.74805,1.7696 0.51308,0.6693 1.10333,1.2684 1.76758,1.7871 0.51038,0.6654 1.09568,1.2611 1.75585,1.7773 0.51485,0.6733 1.10738,1.2763 1.7754,1.7969 0.51099,0.6669 1.09805,1.2649 1.75976,1.7812 0.51562,0.6758 1.11106,1.2791 1.78125,1.8008 0.51374,0.6726 1.10426,1.2754 1.77149,1.795 0.5153,0.6751 1.10912,1.2779 1.77929,1.7988 0.51601,0.6774 1.11129,1.2826 1.78321,1.8047 0.51629,0.6781 1.1124,1.2824 1.78515,1.8047 0.51615,0.6784 1.1123,1.2843 1.78516,1.8066 0.51894,0.6837 1.11871,1.2933 1.79687,1.8184 0.51724,0.6812 1.11546,1.2889 1.79102,1.8125 0.51955,0.6854 1.12097,1.2964 1.80078,1.8222 0.51849,0.6843 1.1183,1.2936 1.79688,1.8184 0.52098,0.6893 1.12524,1.3024 1.80859,1.8301 0.52132,0.6894 1.12457,1.3027 1.80859,1.83 0.52099,0.6895 1.12473,1.303 1.8086,1.8301 0.52219,0.6922 1.128,1.3074 1.81445,1.836 0.52263,0.6927 1.12904,1.3094 1.81641,1.8378 0.52278,0.6942 1.12998,1.3106 1.81836,1.8399 0.52328,0.6957 1.1305,1.3139 1.82031,1.8437 0.52504,0.6994 1.13676,1.3197 1.83008,1.8516 0.52472,0.6988 1.13713,1.3184 1.83007,1.8496 0.52447,0.6994 1.13503,1.3201 1.82813,1.8516 0.52713,0.7038 1.14166,1.3277 1.83984,1.8613 0.52632,0.7032 1.14077,1.3264 1.83789,1.8594 0.52651,0.7038 1.14195,1.3282 1.83985,1.8613 0.52803,0.7077 1.14453,1.3339 1.8457,1.8691 0.52835,0.7085 1.14546,1.3358 1.84766,1.8711 0.5304,0.7122 1.15117,1.342 1.85742,1.8789 0.52728,0.7066 1.14283,1.3316 1.84375,1.8653 0.53128,0.7151 1.15447,1.3464 1.86328,1.8847 0.53022,0.7138 1.15189,1.3456 1.85937,1.8829 0.53244,0.7177 1.15735,1.3514 1.86915,1.8906 0.53019,0.7143 1.15304,1.3457 1.86132,1.8828 0.53272,0.7194 1.15795,1.3548 1.8711,1.8945 0.53512,0.7237 1.16497,1.3608 1.88281,1.9024 0.53071,0.7166 1.15272,1.3492 1.86328,1.8867 0.5355,0.7267 1.16663,1.3672 1.88672,1.9101 0.53428,0.7242 1.1629,1.3613 1.88086,1.9024 0.53519,0.7264 1.16651,1.3661 1.88672,1.9082 0.53474,0.7267 1.16648,1.3661 1.88672,1.9082 0.5363,0.7301 1.16914,1.3723 1.89257,1.916 0.53771,0.7333 1.1718,1.3787 1.89844,1.9238 0.53608,0.7305 1.17046,1.3727 1.89453,1.9161 0.53797,0.7349 1.17408,1.3801 1.90235,1.9257 0.53834,0.7362 1.17687,1.382 1.90625,1.9278 0.5373,0.7354 1.17405,1.3805 1.90234,1.9258 0.53978,0.7403 1.1806,1.3899 1.91406,1.9374 0.54096,0.743 1.18384,1.3929 1.91993,1.9415 0.53817,0.7379 1.17696,1.3859 1.9082,1.9316 0.54233,0.7472 1.18768,1.4007 1.92773,1.9512 0.54101,0.7443 1.18424,1.3968 1.92188,1.9453 0.54056,0.7449 1.18411,1.3967 1.92187,1.9453 0.5439,0.7513 1.19302,1.4074 1.9375,1.959 0.5424,0.7488 1.18965,1.4032 1.93164,1.9531 0.54336,0.7512 1.19108,1.4061 1.93555,1.957 0.54372,0.7531 1.19156,1.4131 1.9375,1.9649 0.54449,0.7548 1.19729,1.4126 1.94531,1.9648 0.54336,0.7543 1.19271,1.4131 1.93946,1.9649 0.54712,0.7611 1.20261,1.4256 1.95703,1.9804 0.25963,0.3608 0.54599,0.6979 0.85351,1.0137 h 963.83592 c 2.6152,0 4.7207,-4.1003 4.7207,-9.1934 V 689.49609 c -0.387,-0.42838 -0.809,-0.82297 -1.2734,-1.17187 -0.5411,-0.75128 -1.1851,-1.40965 -1.9239,-1.96484 -0.541,-0.75026 -1.1837,-1.41014 -1.9218,-1.96485 -0.5393,-0.74633 -1.1781,-1.40209 -1.9121,-1.95508 -0.5385,-0.74511 -1.1778,-1.39843 -1.9102,-1.95117 -0.5397,-0.74654 -1.18,-1.40335 -1.9141,-1.95703 -0.538,-0.74175 -1.1743,-1.39402 -1.9043,-1.94531 -0.5376,-0.74105 -1.1734,-1.39415 -1.9023,-1.94532 -0.5367,-0.73834 -1.17,-1.38747 -1.8965,-1.9375 -0.5376,-0.73988 -1.1726,-1.39224 -1.9004,-1.94335 -0.5367,-0.73699 -1.1692,-1.38773 -1.8945,-1.9375 -0.5335,-0.73073 -1.1619,-1.37517 -1.8809,-1.92188 -0.5366,-0.73643 -1.17,-1.38542 -1.8945,-1.93555 -0.534,-0.73078 -1.1619,-1.37661 -1.8809,-1.92382 -0.533,-0.7285 -1.1603,-1.37166 -1.8769,-1.91797 -0.534,-0.73001 -1.1627,-1.37465 -1.8809,-1.92188 -0.5336,-0.72824 -1.1601,-1.37146 -1.8769,-1.91797 -0.5318,-0.72408 -1.1545,-1.36371 -1.8672,-1.9082 -0.5315,-0.72341 -1.1553,-1.3638 -1.8672,-1.9082 -0.5312,-0.72272 -1.1541,-1.362 -1.8652,-1.90625 -0.5297,-0.71956 -1.1497,-1.35745 -1.8575,-1.90039 -0.532,-0.72296 -1.1557,-1.36335 -1.8671,-1.90821 -0.5285,-0.71525 -1.1454,-1.34995 -1.8497,-1.89062 -0.5289,-0.71652 -1.1466,-1.35073 -1.8515,-1.89258 -0.5297,-0.71637 -1.148,-1.3528 -1.8535,-1.89453 -0.526,-0.71005 -1.1391,-1.34037 -1.8379,-1.87891 -0.5285,-0.71401 -1.1449,-1.34768 -1.8477,-1.88867 -0.5261,-0.70888 -1.1399,-1.3387 -1.8379,-1.87695 -0.5261,-0.70916 -1.1381,-1.34005 -1.8359,-1.87891 -0.5257,-0.70725 -1.1376,-1.33527 -1.834,-1.87305 -0.5249,-0.70559 -1.1336,-1.33392 -1.8281,-1.87109 -0.5232,-0.70188 -1.1313,-1.32803 -1.8223,-1.86328 -0.5248,-0.70488 -1.1363,-1.33197 -1.8301,-1.86914 -0.5222,-0.69942 -1.1277,-1.32322 -1.8164,-1.85742 -0.5223,-0.69957 -1.1298,-1.32089 -1.8183,-1.85547 -0.524,-0.70141 -1.1316,-1.32748 -1.8223,-1.86328 -0.5198,-0.69294 -1.1201,-1.31266 -1.8027,-1.84375 -0.5211,-0.69504 -1.124,-1.31696 -1.8086,-1.84961 -0.521,-0.69423 -1.1246,-1.3135 -1.8086,-1.84571 -0.5192,-0.69105 -1.1182,-1.30918 -1.7988,-1.83984 -0.5181,-0.68925 -1.1165,-1.30406 -1.795,-1.83398 -0.5191,-0.69069 -1.1187,-1.30897 -1.7988,-1.83985 -0.5182,-0.68772 -1.1152,-1.30272 -1.793,-1.83203 -0.5167,-0.68478 -1.1103,-1.30029 -1.7851,-1.82812 -0.5165,-0.68432 -1.113,-1.29643 -1.7871,-1.82422 -0.5164,-0.68358 -1.1116,-1.29483 -1.7852,-1.82227 -0.5146,-0.68031 -1.1051,-1.29056 -1.7754,-1.8164 -0.5143,-0.6798 -1.1059,-1.28864 -1.7754,-1.81446 -0.5143,-0.67935 -1.1042,-1.28883 -1.7734,-1.81445 -0.5132,-0.67648 -1.103,-1.28255 -1.7695,-1.80664 -0.514,-0.67745 -1.1039,-1.28564 -1.7715,-1.81055 -0.5108,-0.67174 -1.0961,-1.27524 -1.7578,-1.79687 -0.5127,-0.67431 -1.0991,-1.28133 -1.7637,-1.80469 -0.511,-0.67068 -1.0966,-1.27359 -1.7578,-1.79492 -0.5093,-0.66833 -1.0917,-1.27082 -1.75,-1.79102 -0.5108,-0.66983 -1.0955,-1.27174 -1.7559,-1.79297 -0.5061,-0.66236 -1.0839,-1.25833 -1.7363,-1.77539 -0.5119,-0.67139 -1.0981,-1.27622 -1.7598,-1.79883 -0.5065,-0.66072 -1.0823,-1.25727 -1.7343,-1.77343 -0.5077,-0.66283 -1.0866,-1.25961 -1.7403,-1.77735 -0.5067,-0.66129 -1.0843,-1.25843 -1.7363,-1.77539 -0.5052,-0.65801 -1.0816,-1.25242 -1.7305,-1.76758 -0.5038,-0.65621 -1.0779,-1.24928 -1.7246,-1.76367 -0.5053,-0.65776 -1.08,-1.25221 -1.7285,-1.76758 -0.5036,-0.6546 -1.0753,-1.24602 -1.7207,-1.75976 -0.5018,-0.65143 -1.0727,-1.24001 -1.7148,-1.75195 -0.504,-0.6547 -1.0773,-1.24565 -1.7227,-1.75977 -0.5007,-0.64919 -1.0691,-1.23715 -1.709,-1.74805 -0.503,-0.65219 -1.0735,-1.24305 -1.7168,-1.75586 -0.5001,-0.64635 -1.0671,-1.23289 -1.7051,-1.74218 -0.4978,-0.64302 -1.063,-1.22683 -1.6972,-1.73438 -0.4996,-0.64609 -1.0663,-1.23248 -1.7032,-1.74219 -0.4983,-0.64305 -1.0629,-1.22461 -1.6972,-1.73242 -0.4976,-0.64208 -1.0604,-1.22491 -1.6934,-1.73242 -0.4978,-0.64149 -1.0604,-1.2232 -1.6933,-1.73047 -0.496,-0.63829 -1.0559,-1.21724 -1.6856,-1.72265 -0.4963,-0.63884 -1.0574,-1.21679 -1.6875,-1.72266 -0.4936,-0.63413 -1.0504,-1.21172 -1.6758,-1.71484 -0.4953,-0.6367 -1.0537,-1.21578 -1.6816,-1.72071 -0.4938,-0.63299 -1.0509,-1.20826 -1.6758,-1.71094 -0.492,-0.63057 -1.0479,-1.20366 -1.6699,-1.70507 -0.4924,-0.63114 -1.0495,-1.20902 -1.6719,-1.71094 -0.4898,-0.62674 -1.0421,-1.19598 -1.6601,-1.69531 -0.4914,-0.62914 -1.0438,-1.20215 -1.6641,-1.70313 -0.4883,-0.62394 -1.0391,-1.19157 -1.6543,-1.68945 -0.4897,-0.62644 -1.041,-1.19565 -1.6582,-1.69531 -0.4864,-0.62123 -1.0346,-1.18515 -1.6465,-1.68164 -0.4873,-0.62285 -1.0372,-1.18767 -1.6504,-1.68555 -0.4861,-0.62088 -1.0334,-1.1848 -1.6445,-1.68164 -0.4878,-0.62274 -1.0371,-1.1895 -1.6504,-1.6875 -0.4828,-0.61478 -1.0275,-1.17289 -1.6328,-1.66602 -0.4848,-0.61815 -1.0303,-1.18024 -1.6387,-1.67578 -0.4842,-0.61711 -1.0294,-1.17888 -1.6367,-1.67383 -0.4788,-0.60853 -1.0187,-1.16267 -1.6172,-1.65234 -0.4835,-0.61666 -1.0288,-1.17675 -1.6348,-1.67188 -0.4803,-0.61095 -1.0207,-1.16468 -1.621,-1.65625 -0.4812,-0.61178 -1.0237,-1.16791 -1.625,-1.66015 -0.4764,-0.60503 -1.0133,-1.15444 -1.6075,-1.64258 -0.4792,-0.60957 -1.0207,-1.16304 -1.6191,-1.6543 -0.4786,-0.60787 -1.0181,-1.1601 -1.6152,-1.65039 -0.4754,-0.60271 -1.0116,-1.14966 -1.6036,-1.63672 -0.4757,-0.60387 -1.0111,-1.15256 -1.6035,-1.64062 -0.4757,-0.60344 -1.0113,-1.15271 -1.6035,-1.64063 -0.4734,-0.59953 -1.0073,-1.14338 -1.5957,-1.6289 -0.4755,-0.60265 -1.012,-1.14912 -1.6035,-1.63672 -0.4696,-0.59382 -0.9978,-1.13305 -1.5801,-1.61524 -0.4736,-0.60077 -1.0072,-1.14593 -1.5957,-1.63281 -0.4693,-0.59356 -0.9985,-1.13098 -1.5801,-1.61328 -0.4683,-0.5929 -0.9979,-1.1312 -1.5781,-1.61328 -0.4725,-0.59851 -1.0055,-1.14115 -1.5918,-1.62695 -0.4649,-0.58683 -0.988,-1.11938 -1.5625,-1.59766 -0.4695,-0.59405 -0.9987,-1.13202 -1.5801,-1.61524 -0.467,-0.58954 -0.993,-1.12312 -1.5703,-1.60351 -0.465,-0.58674 -0.9884,-1.11898 -1.5625,-1.59766 -0.466,-0.58847 -0.9908,-1.12157 -1.5664,-1.60156 -0.4643,-0.58544 -0.9878,-1.11572 -1.5605,-1.59375 -0.4622,-0.58224 -0.9835,-1.10981 -1.5528,-1.58594 -0.4637,-0.58496 -0.9869,-1.11368 -1.5586,-1.59179 -0.4597,-0.57887 -0.9775,-1.10394 -1.5429,-1.57813 -0.4638,-0.58518 -0.9872,-1.11322 -1.5586,-1.5918 -0.4577,-0.57535 -0.9712,-1.09822 -1.5332,-1.57031 -0.4634,-0.58364 -0.9863,-1.11213 -1.5567,-1.58984 -0.4577,-0.57405 -0.9717,-1.09514 -1.5332,-1.56641 -0.4568,-0.57371 -0.971,-1.09118 -1.5312,-1.5625 -0.4578,-0.57558 -0.9734,-1.0956 -1.5352,-1.56836 -0.4548,-0.57076 -0.9663,-1.08899 -1.5234,-1.55859 -0.4559,-0.57262 -0.9708,-1.0914 -1.5293,-1.5625 -0.4533,-0.56828 -0.9632,-1.0845 -1.5176,-1.55274 -0.4545,-0.57066 -0.9671,-1.08661 -1.5234,-1.55664 -0.451,-0.56478 -0.9591,-1.07488 -1.5098,-1.54101 -0.4519,-0.56677 -0.9616,-1.08114 -1.5137,-1.54883 -0.4495,-0.56325 -0.9573,-1.07162 -1.5058,-1.53711 -0.452,-0.56674 -0.9617,-1.08085 -1.5137,-1.54883 -0.4478,-0.56052 -0.9543,-1.06743 -1.5,-1.53125 -0.4487,-0.56176 -0.9551,-1.0684 -1.502,-1.5332 -0.4487,-0.56182 -0.9531,-1.07023 -1.5,-1.53516 -0.4463,-0.558 -0.9491,-1.06293 -1.4921,-1.52539 -0.4444,-0.55506 -0.9464,-1.05706 -1.4864,-1.51758 -0.445,-0.5564 -0.9472,-1.05987 -1.4883,-1.52148 -0.4461,-0.55806 -0.9492,-1.06253 -1.4921,-1.52539 -0.442,-0.55092 -0.9406,-1.04981 -1.4766,-1.50781 -0.4418,-0.55099 -0.9389,-1.04962 -1.4746,-1.50782 -0.4427,-0.55255 -0.9415,-1.05231 -1.4785,-1.51171 -0.4412,-0.54989 -0.9382,-1.04624 -1.4727,-1.50391 -0.4395,-0.54777 -0.9347,-1.04363 -1.4668,-1.5 -0.4388,-0.54681 -0.9339,-1.04029 -1.4648,-1.49609 -0.4384,-0.54587 -0.9328,-1.04083 -1.4629,-1.4961 -0.437,-0.54382 -0.9309,-1.03633 -1.459,-1.49023 -0.4363,-0.54291 -0.9281,-1.0329 -1.4551,-1.48633 -0.4348,-0.54118 -0.9244,-1.03007 -1.4492,-1.48242 -0.4354,-0.54203 -0.9256,-1.03128 -1.4512,-1.48438 -0.4361,-0.54223 -0.9268,-1.03308 -1.4531,-1.48633 -0.4317,-0.53566 -0.9197,-1.01801 -1.4394,-1.46679 -0.4316,-0.5363 -0.9179,-1.02132 -1.4375,-1.47071 -0.4323,-0.53687 -0.919,-1.02087 -1.4395,-1.4707 v -0.002 c -0.4337,-0.53836 -0.9225,-1.0257 -1.4453,-1.47656 -0.4254,-0.52609 -0.9057,-1.00489 -1.416,-1.44727 -0.4281,-0.53119 -0.9095,-1.01082 -1.4238,-1.45703 -0.4315,-0.53532 -0.9186,-1.01768 -1.4375,-1.4668 -0.4232,-0.52337 -0.8994,-0.99661 -1.4063,-1.4375 -0.4282,-0.53136 -0.9116,-1.01039 -1.4257,-1.45703 -0.4219,-0.52207 -0.8995,-0.99534 -1.4043,-1.43555 -0.4277,-0.53065 -0.9107,-1.00872 -1.4239,-1.45507 -0.4254,-0.52571 -0.9044,-1.00063 -1.414,-1.44336 -0.4252,-0.52484 -0.9031,-0.99927 -1.4121,-1.44141 -0.4189,-0.51608 -0.8888,-0.98576 -1.3887,-1.42188 -0.4246,-0.52442 -0.9021,-0.9973 -1.4102,-1.43945 -0.4207,-0.51811 -0.8922,-0.98814 -1.3945,-1.42578 -0.4202,-0.51759 -0.893,-0.9864 -1.3945,-1.42383 -0.4187,-0.5154 -0.8875,-0.98202 -1.3867,-1.41797 -0.4238,-0.52167 -0.8982,-0.99519 -1.4043,-1.43554 -0.4163,-0.50989 -0.8817,-0.9724 -1.377,-1.4043 -0.4154,-0.50962 -0.8809,-0.97233 -1.375,-1.4043 -0.418,-0.51336 -0.8851,-0.98132 -1.3828,-1.41601 -0.4139,-0.50712 -0.8774,-0.96819 -1.3691,-1.39844 -0.4174,-0.51196 -0.8843,-0.9763 -1.3809,-1.41016 -0.4119,-0.50381 -0.8726,-0.96259 -1.3613,-1.39062 -0.4115,-0.50425 -0.8712,-0.96207 -1.3594,-1.39063 -0.4158,-0.50952 -0.8809,-0.97204 -1.375,-1.40429 -0.4146,-0.50601 -0.8776,-0.96687 -1.3691,-1.39649 -0.4048,-0.49293 -0.8538,-0.94287 -1.3321,-1.36328 -0.4109,-0.50313 -0.8703,-0.96064 -1.3574,-1.38867 -0.4115,-0.50266 -0.8698,-0.95911 -1.3574,-1.38672 -0.4088,-0.49802 -0.8642,-0.95078 -1.3477,-1.375 -0.4078,-0.49667 -0.8617,-0.9497 -1.3437,-1.37305 -0.4067,-0.49492 -0.8595,-0.947 -1.3399,-1.36914 -0.4057,-0.49345 -0.8569,-0.94411 -1.3359,-1.36523 -0.4079,-0.49566 -0.8601,-0.95032 -1.3418,-1.37305 -0.4009,-0.48614 -0.8445,-0.92979 -1.3164,-1.3457 -0.4034,-0.49037 -0.8526,-0.9363 -1.3281,-1.35547 -0.4049,-0.49186 -0.8546,-0.94108 -1.3321,-1.36133 -0.402,-0.48712 -0.847,-0.93478 -1.3203,-1.35156 -0.4037,-0.48892 -0.8526,-0.93544 -1.3281,-1.35352 -0.3955,-0.47796 -0.8328,-0.91596 -1.2969,-1.32617 -0.402,-0.48742 -0.8495,-0.93236 -1.3222,-1.34961 -0.4002,-0.48387 -0.8423,-0.9272 -1.3126,-1.34179 -0.3988,-0.48205 -0.8397,-0.92464 -1.3085,-1.3379 -0.3945,-0.47548 -0.8307,-0.91175 -1.293,-1.32031 -0.3963,-0.47842 -0.8341,-0.9173 -1.2988,-1.32812 -0.3981,-0.48027 -0.8378,-0.91986 -1.3047,-1.33203 -0.3921,-0.47202 -0.8245,-0.90635 -1.2832,-1.3125 -0.394,-0.47486 -0.8297,-0.91001 -1.291,-1.31836 -0.3971,-0.47828 -0.8336,-0.9173 -1.2989,-1.32813 -0.3897,-0.46767 -0.8183,-0.89775 -1.2734,-1.30078 -0.3926,-0.47195 -0.8261,-0.90622 -1.2852,-1.3125 -0.3905,-0.4689 -0.8193,-0.90062 -1.2754,-1.30469 -0.3926,-0.47108 -0.8244,-0.90489 -1.2832,-1.31054 -0.3814,-0.45644 -0.8005,-0.87653 -1.2441,-1.27149 -0.3898,-0.46897 -0.8183,-0.90021 -1.2734,-1.30469 -0.3936,-0.47241 -0.8273,-0.90566 -1.2872,-1.3125 -0.3832,-0.4581 -0.8038,-0.87919 -1.25,-1.27539 -0.3851,-0.46119 -0.8091,-0.8865 -1.2578,-1.28515 -0.385,-0.46046 -0.8057,-0.88506 -1.2539,-1.28321 -0.3845,-0.45964 -0.8085,-0.88172 -1.2558,-1.27929 -0.3844,-0.45904 -0.805,-0.88414 -1.252,-1.28125 -0.379,-0.45183 -0.7927,-0.86991 -1.2324,-1.26172 -0.3817,-0.45613 -0.8007,-0.87632 -1.2441,-1.27149 -0.385,-0.45933 -0.8064,-0.88378 -1.254,-1.28125 -0.3752,-0.44648 -0.7859,-0.86016 -1.2207,-1.24804 -0.3797,-0.45262 -0.7958,-0.87106 -1.2363,-1.26367 -0.3812,-0.45384 -0.798,-0.87216 -1.2402,-1.26563 -0.3732,-0.44299 -0.7795,-0.85288 -1.211,-1.23828 -0.3811,-0.45372 -0.7982,-0.87212 -1.2402,-1.26563 -0.3718,-0.44086 -0.7776,-0.84856 -1.207,-1.23242 -0.3784,-0.44969 -0.7904,-0.86529 -1.2285,-1.25586 -0.3727,-0.44157 -0.7786,-0.84992 -1.209,-1.23437 -0.3706,-0.43918 -0.7735,-0.84771 -1.2012,-1.23047 -0.3759,-0.44602 -0.7861,-0.86012 -1.2207,-1.24805 -0.372,-0.43975 -0.7759,-0.84732 -1.2051,-1.23047 -0.3698,-0.43715 -0.7728,-0.84338 -1.1992,-1.22461 -0.3699,-0.43712 -0.7709,-0.84334 -1.1973,-1.22461 -0.3689,-0.43574 -0.7703,-0.84042 -1.1953,-1.2207 -0.3675,-0.43397 -0.7663,-0.83588 -1.1894,-1.21484 -0.3683,-0.43496 -0.7674,-0.839 -1.1914,-1.21875 -0.3632,-0.42816 -0.7586,-0.82653 -1.1758,-1.20117 -0.3709,-0.43801 -0.7738,-0.84445 -1.2012,-1.22657 -0.36,-0.42325 -0.7511,-0.8166 -1.164,-1.1875 -0.3641,-0.42921 -0.7576,-0.82949 -1.1758,-1.20507 -0.365,-0.43001 -0.7603,-0.82891 -1.1797,-1.20508 -0.3627,-0.42636 -0.7557,-0.82195 -1.1719,-1.19532 -0.3585,-0.42099 -0.7455,-0.81423 -1.1562,-1.18359 -0.3642,-0.42835 -0.7597,-0.82619 -1.1778,-1.20117 -0.3547,-0.41574 -0.7372,-0.80457 -1.1425,-1.16992 -0.361,-0.42431 -0.7522,-0.81938 -1.1661,-1.19141 -0.3587,-0.42069 -0.7455,-0.81243 -1.1562,-1.18164 -0.3575,-0.4188 -0.7433,-0.80997 -1.1524,-1.17773 -0.3557,-0.41628 -0.7398,-0.80407 -1.1464,-1.16993 -0.3535,-0.41375 -0.735,-0.80006 -1.1387,-1.16406 -0.3567,-0.4177 -0.7425,-0.80678 -1.1504,-1.17383 -0.3481,-0.40678 -0.7224,-0.78583 -1.1191,-1.14453 -0.3554,-0.41654 -0.7385,-0.80555 -1.1446,-1.17187 -0.3524,-0.41184 -0.7327,-0.79557 -1.1347,-1.15821 -0.3529,-0.41191 -0.7322,-0.79747 -1.1348,-1.16015 -0.3479,-0.40551 -0.723,-0.78483 -1.1192,-1.14258 -0.3498,-0.4084 -0.7279,-0.79035 -1.1269,-1.15039 -0.3477,-0.40499 -0.7215,-0.78321 -1.1172,-1.14063 -0.3484,-0.40595 -0.7225,-0.78633 -1.1191,-1.14453 -0.3437,-0.39991 -0.713,-0.77536 -1.1035,-1.1289 -0.3493,-0.40697 -0.7254,-0.78745 -1.1231,-1.14649 -0.3382,-0.39253 -0.7006,-0.76152 -1.084,-1.10937 -0.3475,-0.40509 -0.7218,-0.78291 -1.1172,-1.14063 -0.345,-0.40081 -0.7154,-0.77654 -1.1074,-1.13086 -0.3422,-0.3968 -0.7074,-0.76991 -1.0957,-1.12109 -0.3399,-0.39392 -0.7045,-0.76431 -1.0898,-1.11328 -0.3406,-0.39485 -0.7057,-0.7655 -1.0918,-1.11524 -0.3419,-0.39602 -0.7081,-0.7685 -1.0957,-1.11914 -0.3339,-0.38594 -0.691,-0.74899 -1.0684,-1.09179 -0.3405,-0.39475 -0.7058,-0.76546 -1.0918,-1.11524 -0.3366,-0.38906 -0.6954,-0.75627 -1.0762,-1.10156 -0.3327,-0.38461 -0.6885,-0.74602 -1.0644,-1.08789 -0.3376,-0.39076 -0.7001,-0.75678 -1.082,-1.10352 -0.3329,-0.38429 -0.6886,-0.74625 -1.0645,-1.08789 -0.3329,-0.38466 -0.6885,-0.7459 -1.0645,-1.08789 -0.3321,-0.38351 -0.6855,-0.74483 -1.0605,-1.08594 -0.3308,-0.3817 -0.6854,-0.74037 -1.0586,-1.08007 -0.3308,-0.38172 -0.6834,-0.74229 -1.0566,-1.08204 -0.3306,-0.38112 -0.6838,-0.73883 -1.0567,-1.07812 -0.328,-0.37753 -0.6777,-0.73387 -1.0468,-1.07031 -0.3286,-0.37847 -0.6787,-0.73505 -1.0489,-1.07227 -0.3285,-0.37773 -0.6788,-0.73369 -1.0488,-1.07031 -0.3254,-0.37362 -0.6711,-0.72718 -1.0371,-1.06055 -0.3233,-0.37124 -0.6679,-0.7212 -1.0313,-1.05273 -0.3308,-0.38022 -0.6819,-0.73951 -1.0547,-1.07813 -0.3149,-0.36022 -0.6492,-0.70069 -1.0019,-1.02343 -0.3268,-0.37597 -0.6752,-0.73101 -1.043,-1.06641 -0.3185,-0.36505 -0.6564,-0.71043 -1.0136,-1.03711 -0.3229,-0.37033 -0.6668,-0.71985 -1.0293,-1.05078 -0.3163,-0.3621 -0.6516,-0.70491 -1.0059,-1.0293 -0.3249,-0.37277 -0.672,-0.72374 -1.0371,-1.05664 -0.3136,-0.35811 -0.6452,-0.69836 -0.9961,-1.01953 -0.3189,-0.36502 -0.6582,-0.71035 -1.0156,-1.03711 -0.3157,-0.36066 -0.6506,-0.70212 -1.0039,-1.02539 -0.3137,-0.35825 -0.6452,-0.69815 -0.9961,-1.01953 -0.3138,-0.35858 -0.6471,-0.69784 -0.9981,-1.01953 -0.3177,-0.36291 -0.654,-0.70808 -1.0097,-1.03321 -0.3081,-0.3508 -0.6348,-0.68263 -0.9786,-0.99804 -0.3157,-0.36051 -0.6505,-0.70214 -1.0039,-1.02539 -0.3082,-0.35067 -0.6327,-0.68467 -0.9765,-1 -0.3096,-0.35264 -0.6369,-0.68693 -0.9825,-1.00391 -0.3084,-0.35152 -0.6359,-0.6839 -0.9804,-1 -0.3109,-0.35371 -0.6394,-0.68997 -0.9863,-1.00781 -0.3032,-0.34423 -0.6236,-0.67026 -0.961,-0.98047 -0.3103,-0.35318 -0.638,-0.68839 -0.9844,-1.00586 -0.3008,-0.34126 -0.6166,-0.66677 -0.9511,-0.97461 -0.3098,-0.35223 -0.6369,-0.68717 -0.9825,-1.00391 -0.2977,-0.33708 -0.6107,-0.65842 -0.9414,-0.96289 -0.3092,-0.35137 -0.6356,-0.68588 -0.9804,-1.00195 -0.2953,-0.33385 -0.6061,-0.65128 -0.9336,-0.95312 -0.3046,-0.34581 -0.6258,-0.6747 -0.9649,-0.98633 -0.2967,-0.33576 -0.6101,-0.65553 -0.9394,-0.95899 -0.2989,-0.33884 -0.6133,-0.66273 -0.9453,-0.96875 -0.3039,-0.34398 -0.625,-0.67033 -0.9629,-0.98047 -0.2904,-0.32734 -0.5966,-0.63895 -0.918,-0.93554 -0.2941,-0.33302 -0.6016,-0.65178 -0.9277,-0.95313 -0.3004,-0.34022 -0.6175,-0.6635 -0.9512,-0.9707 -0.293,-0.33051 -0.6012,-0.64608 -0.9258,-0.94531 -0.2875,-0.32446 -0.5903,-0.63337 -0.9082,-0.92774 -0.2974,-0.3367 -0.6094,-0.65848 -0.9394,-0.96289 -0.2932,-0.33039 -0.6012,-0.64418 -0.9258,-0.94336 -0.2874,-0.32353 -0.5887,-0.63218 -0.9063,-0.92578 -0.2913,-0.32853 -0.5975,-0.64172 -0.9199,-0.93945 -0.2871,-0.3233 -0.5871,-0.63234 -0.9043,-0.92578 -0.289,-0.32554 -0.5926,-0.63634 -0.9121,-0.93164 -0.285,-0.32053 -0.5839,-0.62678 -0.8984,-0.91797 -0.2874,-0.3234 -0.5889,-0.63221 -0.9063,-0.92578 -0.285,-0.32045 -0.5839,-0.62683 -0.8984,-0.91797 -0.2851,-0.32027 -0.5838,-0.62698 -0.8985,-0.91797 -0.2815,-0.31601 -0.5764,-0.61875 -0.8867,-0.90625 -0.2819,-0.3164 -0.576,-0.62036 -0.8867,-0.9082 -0.2802,-0.31437 -0.5743,-0.61424 -0.8828,-0.90039 -0.2842,-0.31897 -0.5811,-0.62409 -0.8945,-0.91407 -0.2766,-0.3095 -0.5651,-0.60652 -0.8692,-0.88867 -0.2818,-0.31583 -0.5763,-0.61886 -0.8867,-0.90625 -0.2709,-0.3028 -0.5543,-0.59252 -0.8516,-0.86914 -0.2803,-0.31455 -0.574,-0.61592 -0.8828,-0.90234 -0.2746,-0.30711 -0.5596,-0.60259 -0.8613,-0.88282 -0.2803,-0.31359 -0.5743,-0.61286 -0.8828,-0.89843 -0.268,-0.29858 -0.5463,-0.58628 -0.8399,-0.85938 -0.2747,-0.30718 -0.5615,-0.60248 -0.8632,-0.88281 -0.2686,-0.29989 -0.5494,-0.58706 -0.8438,-0.86133 -0.273,-0.3052 -0.5577,-0.59824 -0.8574,-0.87695 -0.2684,-0.29949 -0.5477,-0.58738 -0.8418,-0.86133 -0.2705,-0.30191 -0.553,-0.59119 -0.8496,-0.86719 -0.2692,-0.30002 -0.5487,-0.58889 -0.8438,-0.86328 -0.2642,-0.2942 -0.539,-0.57615 -0.8281,-0.8457 -0.2712,-0.30239 -0.5542,-0.59274 -0.8516,-0.86914 -0.26,-0.28888 -0.5304,-0.56695 -0.8144,-0.83203 -0.2656,-0.29599 -0.5414,-0.58046 -0.832,-0.85157 -0.2651,-0.29498 -0.5402,-0.57936 -0.8301,-0.84961 -0.264,-0.29322 -0.5395,-0.57499 -0.8281,-0.84375 -0.2594,-0.28776 -0.5275,-0.56589 -0.8106,-0.83007 -0.262,-0.29096 -0.5341,-0.57101 -0.8203,-0.8379 -0.2604,-0.28876 -0.5302,-0.56696 -0.8145,-0.83203 -0.2579,-0.2858 -0.5253,-0.5617 -0.8066,-0.82421 -0.2542,-0.28178 -0.5179,-0.55334 -0.7949,-0.8125 -0.262,-0.29091 -0.5341,-0.57101 -0.8203,-0.8379 -0.2542,-0.28119 -0.5181,-0.55187 -0.795,-0.81054 -0.2523,-0.27955 -0.514,-0.54931 -0.789,-0.80664 -0.2584,-0.28629 -0.5249,-0.56316 -0.8067,-0.82618 -0.2516,-0.27791 -0.5113,-0.54678 -0.7851,-0.80273 -0.25,-0.27618 -0.5095,-0.54238 -0.7813,-0.79687 -0.2505,-0.27715 -0.5087,-0.54545 -0.7812,-0.80079 -0.2553,-0.28231 -0.5208,-0.55476 -0.7988,-0.81445 -0.243,-0.26762 -0.4943,-0.52621 -0.7579,-0.77344 -0.255,-0.28236 -0.5188,-0.55666 -0.7968,-0.8164 -0.2418,-0.26596 -0.4919,-0.52373 -0.7539,-0.76953 -0.2477,-0.27338 -0.5044,-0.5369 -0.7735,-0.78907 -0.2447,-0.26975 -0.4961,-0.53216 -0.7617,-0.78125 -0.246,-0.27102 -0.5006,-0.53304 -0.7676,-0.7832 -0.2436,-0.26812 -0.4955,-0.5277 -0.7597,-0.77539 -0.2395,-0.26345 -0.4868,-0.51799 -0.7461,-0.76172 -0.2455,-0.27036 -0.4973,-0.53357 -0.7637,-0.7832 -0.2387,-0.26222 -0.4857,-0.51514 -0.7441,-0.75781 -0.2373,-0.26088 -0.4816,-0.5143 -0.7383,-0.75586 -0.2416,-0.26577 -0.4902,-0.52382 -0.752,-0.76953 -0.2365,-0.25965 -0.4805,-0.51146 -0.7363,-0.75196 -0.2358,-0.2589 -0.4794,-0.51011 -0.7344,-0.75 -0.2336,-0.25652 -0.4741,-0.50627 -0.7265,-0.74414 -0.2441,-0.26824 -0.4972,-0.52753 -0.7618,-0.77539 -0.2285,-0.24966 -0.4625,-0.49271 -0.7089,-0.72461 -0.2296,-0.25151 -0.4653,-0.49691 -0.7129,-0.73047 -0.2354,-0.25829 -0.478,-0.50865 -0.7325,-0.74804 -0.23,-0.25171 -0.4666,-0.49676 -0.7148,-0.73047 -0.2301,-0.25188 -0.4666,-0.49659 -0.7148,-0.73047 -0.2288,-0.25028 -0.4643,-0.49405 -0.711,-0.72656 -0.2296,-0.25103 -0.4653,-0.49537 -0.7129,-0.72852 -0.2257,-0.24653 -0.4581,-0.48557 -0.7011,-0.71484 -0.2279,-0.24895 -0.4615,-0.49129 -0.7071,-0.72266 -0.2241,-0.24456 -0.454,-0.48336 -0.6953,-0.71094 -0.221,-0.24118 -0.4479,-0.47648 -0.6855,-0.70117 -0.2277,-0.24885 -0.4618,-0.49134 -0.7071,-0.72266 -0.2194,-0.23905 -0.4438,-0.47249 -0.6797,-0.69531 -0.2222,-0.24273 -0.45,-0.47904 -0.6894,-0.70508 -0.2222,-0.24213 -0.4505,-0.47762 -0.6895,-0.70312 -0.2193,-0.23859 -0.4441,-0.47094 -0.6796,-0.69336 -0.2178,-0.23685 -0.4401,-0.46853 -0.6739,-0.68945 -0.2152,-0.2341 -0.4351,-0.46309 -0.666,-0.68164 -0.2161,-0.23529 -0.438,-0.464 -0.6699,-0.6836 -0.2182,-0.23747 -0.4415,-0.46991 -0.6758,-0.6914 -0.2144,-0.23292 -0.4341,-0.46022 -0.6641,-0.67774 -0.2099,-0.2278 -0.4237,-0.45098 -0.6484,-0.66406 -0.2147,-0.23348 -0.4339,-0.46164 -0.6641,-0.67969 -0.2108,-0.22888 -0.4265,-0.45198 -0.6523,-0.66601 -0.2146,-0.23296 -0.434,-0.46016 -0.6641,-0.67774 -0.203,-0.21977 -0.4101,-0.43457 -0.6269,-0.64062 -0.216,-0.23465 -0.4364,-0.46452 -0.668,-0.6836 -0.2044,-0.22096 -0.4125,-0.43745 -0.6308,-0.64453 -0.2072,-0.22443 -0.4191,-0.44414 -0.6407,-0.6543 -0.2036,-0.22038 -0.4114,-0.43596 -0.6289,-0.64257 -0.2097,-0.22715 -0.424,-0.44958 -0.6484,-0.66211 -0.1989,-0.21479 -0.4012,-0.42527 -0.6133,-0.62696 -0.2077,-0.22487 -0.4185,-0.4457 -0.6406,-0.65625 -0.1997,-0.21533 -0.4024,-0.42674 -0.6153,-0.6289 -0.202,-0.21853 -0.409,-0.43175 -0.625,-0.63672 -0.1973,-0.21322 -0.3987,-0.42274 -0.6093,-0.62305 -0.1979,-0.2136 -0.4005,-0.42238 -0.6114,-0.62305 -0.1994,-0.2153 -0.4025,-0.4267 -0.6152,-0.6289 -0.1931,-0.2082 -0.3883,-0.41347 -0.5937,-0.60938 -0.2013,-0.21735 -0.4065,-0.43078 -0.6211,-0.63476 -0.1923,-0.20691 -0.3873,-0.41072 -0.5918,-0.60547 -0.1941,-0.20906 -0.3912,-0.41466 -0.5977,-0.61133 -0.1955,-0.21052 -0.3934,-0.41728 -0.6015,-0.61523 -0.1922,-0.20663 -0.3875,-0.40901 -0.5918,-0.60352 -0.1892,-0.20319 -0.3812,-0.40228 -0.5821,-0.59375 -0.192,-0.20656 -0.3876,-0.40905 -0.5918,-0.60351 -0.1875,-0.20143 -0.377,-0.39994 -0.5761,-0.58985 -0.19,-0.20414 -0.3822,-0.40533 -0.584,-0.59765 -0.1861,-0.19963 -0.3748,-0.39568 -0.5723,-0.58399 -0.1839,-0.19726 -0.3695,-0.3919 -0.5644,-0.57812 -0.1881,-0.20204 -0.3785,-0.40133 -0.5782,-0.5918 -0.181,-0.19415 -0.3648,-0.38491 -0.5566,-0.56836 -0.1842,-0.19767 -0.3711,-0.39155 -0.5664,-0.57812 -0.1874,-0.20089 -0.3773,-0.39845 -0.5762,-0.5879 -0.1753,-0.18738 -0.3517,-0.37338 -0.5371,-0.55078 -0.1823,-0.1954 -0.3674,-0.38768 -0.5605,-0.57226 -0.1794,-0.19197 -0.361,-0.38099 -0.5508,-0.5625 -0.1781,-0.19044 -0.3585,-0.37846 -0.5469,-0.5586 -0.1769,-0.18912 -0.3559,-0.37572 -0.543,-0.55468 -0.1735,-0.18548 -0.3479,-0.36921 -0.5312,-0.54493 -0.1803,-0.193 -0.3638,-0.382 -0.5547,-0.56445 -0.1718,-0.18325 -0.3441,-0.36536 -0.5254,-0.53906 -0.1755,-0.18736 -0.3536,-0.37143 -0.5391,-0.54883 -0.1683,-0.17945 -0.338,-0.35704 -0.5156,-0.52734 -0.1751,-0.18711 -0.352,-0.37165 -0.5371,-0.54883 -0.1677,-0.17866 -0.3368,-0.35581 -0.5137,-0.52539 -0.167,-0.17816 -0.3356,-0.35429 -0.5117,-0.52344 -0.1729,-0.18458 -0.3466,-0.36805 -0.5293,-0.54297 -0.1663,-0.1769 -0.3348,-0.35153 -0.5097,-0.51953 -0.1626,-0.17295 -0.327,-0.34336 -0.4981,-0.50781 -0.1722,-0.1836 -0.3455,-0.36503 -0.5273,-0.53906 -0.1549,-0.16429 -0.3101,-0.32778 -0.4727,-0.48438 -0.1715,-0.18293 -0.3444,-0.36365 -0.5254,-0.53711 -0.1583,-0.16802 -0.3179,-0.33415 -0.4844,-0.49414 -0.1641,-0.17453 -0.3291,-0.34779 -0.5019,-0.51367 -0.1603,-0.17004 -0.322,-0.33819 -0.4902,-0.5 -0.1566,-0.16599 -0.3142,-0.33013 -0.4786,-0.48828 -0.1605,-0.17052 -0.3214,-0.3397 -0.4902,-0.50196 -0.1543,-0.16354 -0.3088,-0.32648 -0.4707,-0.48242 -0.1595,-0.16932 -0.3206,-0.33686 -0.4883,-0.49804 -0.1518,-0.16082 -0.3037,-0.32115 -0.4629,-0.47461 -0.16,-0.16972 -0.322,-0.33652 -0.4902,-0.49805 -0.1502,-0.15867 -0.2997,-0.31726 -0.457,-0.46875 -0.1504,-0.15908 -0.3015,-0.31686 -0.459,-0.46875 -0.156,-0.16522 -0.3128,-0.32886 -0.4766,-0.48633 -0.1448,-0.15293 -0.2899,-0.3049 -0.4414,-0.45117 -0.1541,-0.16316 -0.309,-0.32487 -0.4707,-0.48047 -0.1438,-0.15174 -0.2871,-0.30403 -0.4375,-0.44922 -0.1517,-0.16046 -0.3039,-0.31951 -0.4629,-0.47265 -0.1411,-0.14883 -0.2822,-0.29694 -0.4297,-0.43946 -0.1479,-0.15641 -0.2963,-0.31147 -0.4511,-0.46094 -0.1474,-0.15542 -0.295,-0.3104 -0.4493,-0.45898 -0.1374,-0.1447 -0.2746,-0.289 -0.4179,-0.42773 -0.1474,-0.15561 -0.295,-0.31027 -0.4493,-0.45899 -0.1381,-0.14536 -0.2757,-0.29034 -0.4199,-0.42969 -0.1427,-0.15045 -0.2863,-0.29937 -0.4355,-0.44335 -0.1369,-0.14396 -0.2733,-0.28774 -0.416,-0.42579 -0.138,-0.1454 -0.2759,-0.29029 -0.42,-0.42968 -0.1405,-0.14803 -0.2809,-0.29571 -0.4277,-0.4375 -0.1363,-0.14317 -0.2739,-0.28456 -0.416,-0.42188 -0.1297,-0.13616 -0.2576,-0.27342 -0.3926,-0.4043 -0.1392,-0.14666 -0.2785,-0.29304 -0.4238,-0.43359 -0.1307,-0.13717 -0.2604,-0.27444 -0.3965,-0.40625 -0.1369,-0.14385 -0.2751,-0.28588 -0.418,-0.42383 -0.1231,-0.12894 -0.2451,-0.25862 -0.373,-0.38281 -0.1378,-0.14495 -0.2761,-0.28876 -0.4199,-0.42773 -0.1207,-0.12626 -0.2401,-0.25331 -0.3653,-0.375 -0.1337,-0.14061 -0.2669,-0.28104 -0.4062,-0.41602 -0.1296,-0.13565 -0.2598,-0.26999 -0.3946,-0.40039 -0.1233,-0.12896 -0.2449,-0.25861 -0.373,-0.38281 -0.1235,-0.12927 -0.2467,-0.25831 -0.375,-0.38282 -0.1225,-0.12834 -0.2439,-0.2572 -0.3711,-0.38086 -0.1256,-0.13158 -0.2503,-0.26394 -0.3809,-0.39062 -0.1251,-0.13085 -0.2508,-0.26076 -0.3808,-0.38672 -0.1154,-0.12045 -0.2301,-0.24112 -0.3496,-0.35742 -0.1213,-0.12693 -0.2413,-0.25461 -0.3672,-0.37695 -0.1198,-0.12518 -0.2391,-0.25039 -0.3633,-0.3711 -0.1185,-0.12376 -0.2365,-0.2478 -0.3594,-0.36719 -0.1189,-0.12408 -0.238,-0.24747 -0.3613,-0.36718 -0.1138,-0.11865 -0.2259,-0.2389 -0.3437,-0.35352 -0.111,-0.11572 -0.2212,-0.23186 -0.336,-0.34375 -0.1197,-0.12513 -0.239,-0.25042 -0.3633,-0.37109 -0.1091,-0.11361 -0.2172,-0.22798 -0.33,-0.33789 -0.1123,-0.117 -0.2237,-0.23457 -0.3399,-0.34766 -0.1133,-0.11805 -0.2264,-0.23554 -0.3437,-0.34961 -0.1061,-0.11025 -0.2108,-0.22135 -0.3203,-0.32812 -0.113,-0.11766 -0.2249,-0.23591 -0.3418,-0.34961 -0.1045,-0.10857 -0.2089,-0.21708 -0.3164,-0.32227 -0.1073,-0.11156 -0.2135,-0.22403 -0.3243,-0.33203 -0.1073,-0.11164 -0.2133,-0.22396 -0.3242,-0.33203 -0.1051,-0.10916 -0.2098,-0.21847 -0.3183,-0.32422 -0.1033,-0.10715 -0.206,-0.2145 -0.3125,-0.31836 -0.097,-0.10087 -0.1929,-0.20282 -0.293,-0.30078 -0.1038,-0.10795 -0.2054,-0.21765 -0.3125,-0.32227 -0.1058,-0.10986 -0.211,-0.21976 -0.3203,-0.32617 -0.094,-0.097 -0.1867,-0.19472 -0.2832,-0.28906 -0.102,-0.10588 -0.2034,-0.21178 -0.3086,-0.31445 -0.097,-0.10012 -0.1915,-0.20159 -0.291,-0.29883 -0.096,-0.0997 -0.1919,-0.19999 -0.2911,-0.29688 -0.092,-0.0957 -0.1841,-0.19204 -0.2793,-0.28515 -0.095,-0.0982 -0.1877,-0.19757 -0.2851,-0.29297 -0.098,-0.10169 -0.1957,-0.20401 -0.2969,-0.30274 -0.09,-0.093 -0.1789,-0.1868 -0.2715,-0.27734 -0.088,-0.0914 -0.1748,-0.18446 -0.2656,-0.27344 -0.098,-0.10135 -0.196,-0.20237 -0.2969,-0.30078 -0.082,-0.0839 -0.1625,-0.16808 -0.2461,-0.25 -0.09,-0.0934 -0.1786,-0.18837 -0.2714,-0.2793 -0.087,-0.09 -0.1722,-0.18183 -0.2618,-0.26953 -0.086,-0.0883 -0.1699,-0.17759 -0.2578,-0.26367 -0.089,-0.0913 -0.1767,-0.1826 -0.2676,-0.27148 -0.082,-0.0839 -0.1628,-0.1681 -0.246,-0.25 -0.082,-0.0846 -0.162,-0.17132 -0.2461,-0.25391 -0.082,-0.0846 -0.1639,-0.16937 -0.2481,-0.25195 -0.083,-0.08598 -0.1644,-0.173966 -0.25,-0.257814 -0.078,-0.07996 -0.1548,-0.160164 -0.2344,-0.238282 -0.078,-0.08028 -0.1545,-0.161808 -0.2343,-0.240234 -0.081,-0.08293 -0.1597,-0.167099 -0.2422,-0.248047 -0.075,-0.07658 -0.1484,-0.153624 -0.2246,-0.228515 -0.075,-0.07765 -0.1494,-0.156509 -0.2266,-0.232422 -0.077,-0.07962 -0.1532,-0.160485 -0.2324,-0.238282 -0.073,-0.07523 -0.1458,-0.151014 -0.2207,-0.224609 -0.073,-0.07454 -0.1445,-0.149719 -0.2188,-0.222656 -0.066,-0.06761 -0.13,-0.136831 -0.1972,-0.203125 -0.079,-0.08094 -0.1558,-0.163131 -0.2364,-0.242188 -0.064,-0.06524 -0.1264,-0.131299 -0.1914,-0.195312 -0.071,-0.07325 -0.1419,-0.147044 -0.2148,-0.21875 -0.068,-0.06959 -0.1338,-0.140797 -0.2031,-0.208985 -0.063,-0.06458 -0.1252,-0.129979 -0.1895,-0.193359 -0.071,-0.07324 -0.1418,-0.147061 -0.2148,-0.21875 -0.061,-0.06256 -0.1213,-0.126073 -0.1836,-0.1875 -0.063,-0.06455 -0.1252,-0.13001 -0.1895,-0.193359 -0.059,-0.06029 -0.1158,-0.122405 -0.1758,-0.181641 -0.064,-0.06589 -0.1277,-0.132624 -0.1933,-0.197266 -0.061,-0.0619 -0.12,-0.12476 -0.1817,-0.185546 -0.061,-0.06257 -0.1212,-0.126063 -0.1836,-0.1875 -0.053,-0.0536 -0.1048,-0.107388 -0.1582,-0.160157 -0.063,-0.06422 -0.1235,-0.130333 -0.1875,-0.193359 -0.053,-0.05425 -0.106,-0.108714 -0.1601,-0.16211 -0.054,-0.05558 -0.1068,-0.113275 -0.1621,-0.167968 -0.057,-0.05758 -0.1126,-0.115257 -0.17,-0.171875 -0.05,-0.05097 -0.1,-0.102132 -0.1503,-0.152344 -0.046,-0.04706 -0.09,-0.09616 -0.1368,-0.142578 -0.062,-0.0636 -0.1221,-0.128977 -0.1855,-0.191406 -0.047,-0.04792 -0.095,-0.09533 -0.1426,-0.142579 -0.045,-0.04599 -0.089,-0.0933 -0.1348,-0.138671 -0.048,-0.04863 -0.094,-0.09854 -0.1425,-0.146485 -0.047,-0.04733 -0.091,-0.09589 -0.1387,-0.142578 -0.048,-0.04897 -0.096,-0.09821 -0.1445,-0.146484 -0.041,-0.04203 -0.081,-0.08543 -0.1231,-0.126953 -0.047,-0.04731 -0.091,-0.09592 -0.1387,-0.142579 -0.042,-0.04299 -0.084,-0.08645 -0.1269,-0.128906 -0.038,-0.0387 -0.075,-0.07893 -0.1133,-0.117187 -0.043,-0.04399 -0.085,-0.08939 -0.1289,-0.132813 -0.039,-0.03963 -0.078,-0.07997 -0.1172,-0.11914 -0.035,-0.03575 -0.07,-0.07205 -0.1054,-0.107422 -0.04,-0.04065 -0.079,-0.08287 -0.1192,-0.123047 -0.036,-0.03606 -0.071,-0.07174 -0.1074,-0.107422 -0.035,-0.03542 -0.068,-0.07237 -0.1035,-0.107422 -0.034,-0.03439 -0.067,-0.06947 -0.1016,-0.103515 -0.033,-0.03308 -0.065,-0.06685 -0.098,-0.09961 -0.031,-0.03178 -0.062,-0.06422 -0.094,-0.0957 -0.031,-0.03178 -0.062,-0.06422 -0.094,-0.0957 -0.029,-0.02979 -0.058,-0.06031 -0.088,-0.08984 -0.029,-0.02915 -0.057,-0.05899 -0.086,-0.08789 -0.024,-0.02424 -0.046,-0.05015 -0.07,-0.07422 -0.036,-0.03604 -0.071,-0.07176 -0.1074,-0.107422 -0.017,-0.01668 -0.032,-0.03419 -0.049,-0.05078 -0.027,-0.0275 -0.053,-0.05671 -0.08,-0.08398 -0.023,-0.02357 -0.047,-0.0469 -0.07,-0.07031 -0.022,-0.02259 -0.044,-0.04592 -0.066,-0.06836 -0.028,-0.0278 -0.054,-0.05641 -0.082,-0.08398 -0.014,-0.0137 -0.027,-0.02737 -0.041,-0.04102 -0.022,-0.02256 -0.044,-0.04595 -0.066,-0.06836 -0.012,-0.01207 -0.023,-0.02508 -0.035,-0.03711 -0.023,-0.02321 -0.045,-0.04726 -0.068,-0.07031 -0.016,-0.01601 -0.033,-0.03094 -0.049,-0.04687 -0.012,-0.0121 -0.023,-0.02505 -0.035,-0.03711 -0.017,-0.01701 -0.034,-0.03386 -0.051,-0.05078 -0.013,-0.01274 -0.024,-0.02637 -0.037,-0.03906 -0.01,-0.0062 -0.011,-0.01334 -0.018,-0.01953 -0.021,-0.02123 -0.041,-0.04335 -0.062,-0.06445 0,-0.0013 0,-0.0026 0,-0.0039 -0.012,-0.01176 -0.023,-0.02344 -0.035,-0.03516 0,-0.0042 -0.01,-0.01139 -0.014,-0.01563 -0.012,-0.01206 -0.023,-0.0251 -0.035,-0.03711 0,-0.0045 -0.01,-0.0091 -0.014,-0.01367 0,-0.0039 -0.01,-0.0078 -0.012,-0.01172 0,-0.0026 -0.01,-0.0052 -0.01,-0.0078 v -0.002 0 -0.002 -0.002 c -0.3613,-0.361246 -0.7417,-0.703402 -1.1406,-1.02539 0,-0.0015 -0.01,-0.0044 -0.01,-0.0059 -0.3992,-0.321742 -0.8187,-0.623416 -1.254,-0.904297 v -0.002 c 0,-7.81e-4 0,-0.0012 0,-0.002 v -0.002 c -0.4355,-0.280652 -0.8894,-0.539167 -1.3593,-0.777344 0,-0.001 0,-0.0029 -0.01,-0.0039 v -0.002 c -0.4723,-0.238997 -0.9632,-0.457833 -1.4687,-0.652344 -2.0254,-0.779002 -4.3101,-1.193359 -6.8027,-1.193359 H 570.32031 v 0.002 33.236318 h 0.002 v 0.006 h 0.008 v 0.008 h 0.0117 v 0.0117 h 0.0156 v 0.0137 h 0.0195 v 0.0176 h 0.0176 v 0.0195 0.002 h 0.0234 v 0.0215 0.002 h 0.0254 v 0.0254 0.002 h 0.0312 v 0.0273 0.004 h 0.0332 v 0.0293 0.004 h 0.0391 v 0.0312 0.006 h 0.0371 v 0.0332 0.006 h 0.041 v 0.0371 0.006 h 0.0449 v 0.0391 0.008 h 0.0508 v 0.041 0.01 h 0.0527 v 0.043 0.01 h 0.0566 v 0.0449 0.01 h 0.0566 v 0.0488 0.0117 h 0.0606 v 0.0488 0.0137 h 0.0644 v 0.0508 0.0137 h 0.0664 v 0.0547 0.0156 h 0.0723 v 0.0547 0.0176 h 0.0762 v 0.0547 0.0195 h 0.0762 v 0.0586 0.0195 h 0.0781 v 0.0606 0.0215 h 0.0879 v 0.0605 0.0254 h 0.0859 v 0.0625 0.0254 h 0.0879 v 0.0645 0.0273 h 0.0937 v 0.0644 0.0293 h 0.0957 v 0.0664 0.0312 h 0.10156 v 0.0684 0.0332 h 0.10157 v 0.0684 0.0352 h 0.0351 c -0.15842,0.18264 -0.30938,0.38325 -0.45508,0.59961 h -0.0176 v -0.47657 h -0.46485 v -0.47265 h -0.46289 v -0.47071 h -0.45703 v -0.46484 h -0.004 -0.45312 v -0.46484 h -0.44922 v -0.45899 h -0.004 -0.44531 v -0.45703 h -0.004 -0.44336 v -0.45313 h -0.004 -0.4375 v -0.45117 h -0.004 -0.43945 v -0.44726 h -0.43359 v -0.44336 h -0.004 -0.43164 v -0.44141 h -0.42969 v -0.4375 h -0.42773 v -0.43359 H 565.375 v -0.43164 h -0.41797 v -0.42774 h -0.004 -0.41601 v -0.42383 H 564.125 v -0.42187 h -0.004 -0.4082 v -0.41797 h -0.004 -0.40429 v -0.41601 h -0.004 -0.40039 v -0.41211 h -0.004 -0.40039 v -0.40821 h -0.39648 v -0.40625 h -0.004 -0.39453 v -0.40233 h -0.39258 v -0.39844 h -0.38867 v -0.39648 h -0.38672 v -0.39258 h -0.38086 v -0.38867 h -0.38086 v -0.38672 h -0.375 v -0.38281 h -0.004 -0.3711 v -0.38086 h -0.36914 v -0.375 h -0.36718 v -0.37305 h -0.004 -0.35937 v -0.37109 h -0.004 -0.35742 v -0.36719 h -0.35938 v -0.36328 h -0.35156 v -0.36133 h -0.004 -0.34765 v -0.35742 h -0.004 -0.34766 v -0.35352 h -0.34375 v -0.35156 h -0.33984 v -0.34767 h -0.004 -0.33789 v -0.34375 h -0.33593 v -0.34179 h -0.33204 v -0.33789 H 554.125 v -0.33593 h -0.32617 v -0.33204 h -0.004 -0.32031 v -0.32813 h -0.31836 v -0.32422 h -0.004 -0.3125 v -0.32226 h -0.004 -0.31055 v -0.32031 h -0.004 -0.30664 v -0.31446 h -0.004 -0.30469 v -0.3125 h -0.30273 V 100.486 h -0.30274 v -0.30665 h -0.29492 V 99.875 h -0.004 -0.29101 v -0.298828 h -0.004 -0.29101 v -0.296875 h -0.28711 v -0.292969 h -0.28321 v -0.289062 h -0.004 -0.2793 v -0.28711 h -0.2793 V 98.125 h -0.27734 v -0.279297 h -0.27148 v -0.277344 h -0.26758 v -0.27539 h -0.004 -0.26562 v -0.269531 h -0.25977 v -0.267579 h -0.004 -0.25781 v -0.265625 h -0.25586 v -0.259765 h -0.2539 v -0.259766 h -0.004 -0.24609 v -0.253906 h -0.004 -0.24414 v -0.251953 h -0.24609 v -0.248047 h -0.23829 v -0.246094 h -0.004 -0.23438 v -0.242187 h -0.004 -0.23047 v -0.238282 h -0.004 -0.23047 V 94.255859 H 545.25 v -0.232421 h -0.004 -0.22265 v -0.230469 h -0.22266 v -0.22461 h -0.2207 v -0.222656 h -0.21485 V 93.125 h -0.21093 v -0.216797 h -0.20899 v -0.212891 h -0.004 -0.20313 v -0.208984 h -0.20508 v -0.207031 h -0.19922 v -0.203125 h -0.19726 V 91.875 h -0.19336 v -0.197266 h -0.002 -0.18946 v -0.193359 h -0.18554 v -0.191406 h -0.004 -0.18164 v -0.1875 h -0.18164 v -0.183594 h -0.17774 v -0.181641 h -0.17382 V 90.5625 h -0.004 -0.16992 v -0.173828 h -0.16602 v -0.171875 h -0.004 -0.16211 v -0.167969 h -0.004 -0.1582 v -0.166016 h -0.004 -0.15625 v -0.162109 h -0.002 -0.15625 V 89.5625 h -0.15039 v -0.15625 h -0.15235 v -0.152344 h -0.14257 v -0.148437 h -0.004 -0.14063 v -0.146485 h -0.004 -0.13477 v -0.142578 h -0.004 -0.13672 v -0.138672 h -0.13281 v -0.136718 h -0.004 -0.12695 v -0.132813 h -0.12891 v -0.128906 h -0.12109 v -0.126953 h -0.004 -0.12109 v -0.123047 h -0.11719 v -0.121094 h -0.11328 v -0.117187 h -0.004 -0.10937 v -0.113282 h -0.10938 v -0.111328 h -0.10547 v -0.107422 h -0.10351 v -0.103515 h -0.0977 V 87.253906 H 538.5 v -0.09766 h -0.004 -0.0918 V 87.0625 h -0.0899 v -0.0918 h -0.0879 v -0.08789 h -0.082 v -0.08594 h -0.0801 v -0.08008 h -0.0742 v -0.08008 h -0.004 -0.0723 V 86.5625 h -0.0723 v -0.07227 h -0.0684 v -0.06836 h -0.0645 v -0.06641 h -0.0605 v -0.0625 h -0.004 -0.0566 v -0.05859 h -0.0527 v -0.05664 h -0.004 -0.0488 V 86.125 h -0.0488 v -0.05078 h -0.0449 V 86.0293 h -0.041 v -0.04492 h -0.004 -0.0391 v -0.03906 h -0.0332 v -0.03711 h -0.004 -0.0312 V 85.875 h -0.0293 v -0.03125 h -0.0273 v -0.02734 h -0.0215 v -0.02344 h -0.004 -0.0195 v -0.02148 h -0.0156 v -0.01758 h -0.002 -0.0117 v -0.01367 h -0.0117 v -0.01172 h -0.008 v -0.0078 h -0.004 v -0.0039 h -0.004 v -0.002 h -33.2354 v 0.002 34.16015 h -0.10547 v -0.46484 h -0.45703 l -0.002,-0.46484 h -0.44922 v -0.45899 h -0.44921 v -0.45703 h -0.44727 v -0.45313 h -0.44141 v -0.45117 h -0.43945 l -0.002,-0.44726 h -0.43555 v -0.44336 h -0.43164 l -0.002,-0.44141 H 499.75 l -0.002,-0.4375 h -0.42578 l -0.002,-0.43359 h -0.41992 l -0.002,-0.43164 h -0.41992 v -0.42774 h -0.41797 l -0.002,-0.42383 h -0.41211 v -0.42187 h -0.4121 v -0.41797 h -0.40821 v -0.41601 h -0.40429 v -0.41211 h -0.4004 v -0.40821 h -0.40039 v -0.40625 h -0.39257 l -0.004,-0.40234 h -0.39063 v -0.39844 h -0.38867 v -0.39648 h -0.38476 l -0.004,-0.39258 h -0.38281 v -0.38867 h -0.37695 v -0.38672 h -0.37891 v -0.38281 h -0.37305 v -0.38086 h -0.37109 v -0.375 h -0.36719 v -0.37305 h -0.36133 v -0.37109 h -0.35937 l -0.004,-0.36719 h -0.35547 v -0.36328 h -0.35547 v -0.36133 h -0.35156 v -0.35742 h -0.34765 v -0.35352 h -0.34376 l -0.004,-0.35156 h -0.33984 v -0.34766 h -0.33594 l -0.004,-0.34375 h -0.33398 l -0.004,-0.34179 h -0.32812 l -0.004,-0.33789 h -0.32422 l -0.004,-0.33594 H 487.3194 V 102.7168 H 487 l -0.004,-0.32813 h -0.31836 v -0.32422 h -0.3164 v -0.32226 h -0.31445 v -0.32031 h -0.3086 v -0.31446 h -0.30664 v -0.002 -0.31055 H 485.125 v -0.004 -0.30664 h -0.29883 v -0.006 -0.30079 h -0.29883 v -0.01 -0.29297 h -0.29492 v -0.01172 -0.287109 h -0.29101 v -0.01563 -0.28125 h -0.28711 v -0.01758 l -0.004,-0.275391 h -0.2832 v -0.02148 -0.267578 h -0.2793 v -0.02539 l -0.004,-0.261719 h -0.27539 v -0.02734 l -0.004,-0.257812 h -0.27149 v -0.0293 l -0.004,-0.25 h -0.26953 v -0.0332 l -0.004,-0.244141 h -0.26758 v -0.03516 -0.240234 h -0.26562 v -0.03516 -0.234374 h -0.26368 v -0.03906 -0.228516 h -0.26171 v -0.04102 -0.22461 h -0.25586 v -0.04297 -0.216797 h -0.25391 v -0.04687 -0.212891 h -0.25 v -0.04687 -0.207031 h -0.24414 v -0.04883 l -0.004,-0.203125 h -0.24218 v -0.05078 -0.197265 h -0.24219 v -0.05273 -0.193359 h -0.23828 v -0.05469 -0.1875 h -0.23438 v -0.05664 -0.181641 h -0.23047 v -0.05859 l -0.004,-0.175782 h -0.22657 v -0.06055 -0.171874 h -0.22265 v -0.0625 l -0.004,-0.167969 h -0.21875 v -0.0625 -0.16211 h -0.21875 v -0.06641 -0.15625 h -0.2168 V 93.279297 93.125 h -0.21093 v -0.06641 l -0.004,-0.150391 h -0.20898 v -0.06836 -0.144532 h -0.20703 v -0.06836 -0.140625 h -0.20118 v -0.07227 l -0.002,-0.134765 h -0.19726 v -0.07227 l -0.004,-0.130859 h -0.19336 v -0.07422 L 476.6582,91.875 h -0.1914 v -0.07422 -0.123047 h -0.18946 v -0.07422 -0.119141 h -0.18945 v -0.07617 -0.115234 h -0.18164 v -0.07617 l -0.004,-0.111328 h -0.17773 V 91.0293 l -0.004,-0.107422 h -0.17773 v -0.07813 -0.103516 h -0.17383 v -0.07813 -0.09961 h -0.16992 v -0.07813 l -0.004,-0.0957 h -0.16601 v -0.08008 -0.0918 h -0.16602 v -0.08008 -0.08789 h -0.16211 v -0.08008 -0.08594 h -0.1582 v -0.07812 -0.08398 h -0.15625 v -0.07813 -0.08008 h -0.15039 v -0.08008 l -0.004,-0.07617 h -0.14648 v -0.07813 -0.07422 h -0.14844 v -0.07813 -0.07031 h -0.14258 v -0.07813 -0.06836 h -0.14062 v -0.07813 -0.06445 h -0.13672 v -0.07813 -0.06055 h -0.13477 v -0.07813 -0.05859 h -0.1289 v -0.07617 l -0.004,-0.05664 h -0.125 v -0.07617 -0.05273 H 473 v -0.07617 -0.05078 h -0.12109 v -0.07617 -0.04687 h -0.11719 v -0.07617 l -0.004,-0.04492 h -0.11328 v -0.07422 -0.04297 h -0.10937 v -0.07227 l -0.004,-0.04102 h -0.10547 v -0.07227 -0.03906 h -0.10547 v -0.07031 -0.03711 h -0.10156 v -0.07031 -0.0332 h -0.0996 v -0.06836 l -0.004,-0.0332 h -0.0937 v -0.06836 -0.0293 h -0.0898 v -0.06641 l -0.004,-0.02734 h -0.0879 v -0.06641 l -0.004,-0.02539 h -0.082 v -0.06445 -0.02344 h -0.084 v -0.0625 l -0.004,-0.02344 h -0.0801 v -0.06055 -0.01953 h -0.0742 v -0.06055 -0.01953 h -0.0762 v -0.05664 -0.01758 h -0.0684 v -0.05664 l -0.004,-0.01563 h -0.0644 v -0.05469 l -0.004,-0.01367 h -0.0605 v -0.05273 l -0.002,-0.01367 h -0.0605 v -0.05078 -0.01172 h -0.0566 v -0.04883 -0.0098 h -0.0566 v -0.04687 -0.0098 h -0.0508 v -0.04492 l -0.004,-0.0078 h -0.0449 v -0.04297 l -0.004,-0.0078 h -0.041 v -0.03906 l -0.004,-0.0059 h -0.041 v -0.03906 -0.0059 h -0.0391 v -0.03516 -0.0039 h -0.0371 v -0.0332 -0.0039 h -0.0293 v -0.03125 l -0.004,-0.002 h -0.0274 v -0.0293 l -0.004,-0.002 h -0.0215 v -0.02539 l -0.004,-0.002 h -0.0234 v -0.02148 -0.002 h -0.0195 v -0.01953 -0.002 h -0.0176 v -0.01563 -0.002 h -0.0117 v -0.01367 h -0.004 -0.008 v -0.01172 h -0.004 -0.004 v -0.0078 h -0.004 -0.004 v -0.0059 H 38.507812 Z M 57.777344,653.58594 h 0.04297 v 0.004 h -0.04297 z m 0.980468,0.96679 h 0.02148 v 0.0586 h -0.02148 z m 0.46875,0.48829 h 0.03516 v 0.0527 h -0.03516 z m 0.496094,0.49218 H 59.75 v 0.0742 h -0.02734 z m 0.890625,0.99414 h 0.119141 v 0.004 h -0.119141 z m 0.572266,0.50196 h 0.04297 v 0.0937 h -0.04297 z m 1.015625,1.01367 h 0.0293 v 0.13086 h -0.0293 z m 0.429687,0.50976 h 0.107422 v 0.0645 h -0.107422 z m 0.439453,0.51368 h 0.175782 v 0.004 h -0.175782 z m 1.160157,1.03906 h 0.04297 v 0.1582 h -0.04297 z m 0.484375,0.52539 h 0.07813 v 0.13281 h -0.07813 z m 0.498047,0.52539 h 0.101562 v 0.12109 h -0.101562 z m 0.511718,0.5332 h 0.113282 v 0.11328 h -0.113282 z m 0.521485,0.53321 h 0.121094 v 0.12109 h -0.121094 z m 0.537109,0.53711 h 0.115235 v 0.13085 h -0.115235 z m 0.548828,0.53906 h 0.09961 v 0.16015 h -0.09961 z m 0.560547,0.54492 h 0.07617 v 0.18945 h -0.07617 z m 0.572266,0.54492 h 0.04492 v 0.23438 h -0.04492 z m 0.884765,1.10352 h 0.25 v 0.041 h -0.25 z m 0.605469,0.55469 h 0.195313 v 0.10546 h -0.195313 z m 0.617188,0.56054 h 0.130859 v 0.17969 h -0.130859 z m 0.630859,0.5625 h 0.05664 v 0.26758 h -0.05664 z m 0.320313,0.56641 h 0.294921 v 0.0273 h -0.294921 z m 0.648437,0.5664 h 0.208984 v 0.12891 h -0.208984 z m 0.662109,0.57227 h 0.113282 v 0.23828 h -0.113282 z m 0.335938,0.57812 h 0.345703 v 0.35157 h -0.0078 v -0.34766 h -0.33789 z m 0.679687,0.57813 h 0.238282 v 0.125 h -0.238282 z m 0.69336,0.58203 h 0.121093 v 0.25195 h -0.121093 z m 0.351562,0.58594 h 0.347657 v 0.0254 h -0.347657 z m 0.712891,0.58594 h 0.216797 v 0.17382 h -0.216797 z m 0.724609,0.59375 h 0.07617 v 0.32421 h -0.07617 z m 0.367188,0.59179 h 0.296875 v 0.10742 h -0.296875 z m 0.74414,0.59766 h 0.142579 v 0.27148 h -0.142579 z m 0.376953,0.60156 h 0.361329 v 0.0566 h -0.361329 z m 0.761719,0.60352 h 0.195313 v 0.23437 h -0.195313 z m 0.386719,0.60937 h 0.410156 v 0.42383 h -0.02148 v -0.40039 H 78.96875 Z m 0.78125,0.60742 h 0.232422 v 0.2168 H 79.75 Z m 0.396484,0.61719 h 0.44336 v 0.41211 h -0.04492 v -0.4082 h -0.398438 z m 0.800782,0.61524 h 0.251953 v 0.20898 h -0.251953 z m 0.404296,0.62109 H 81.8125 v 0.42187 h -0.05273 v -0.41796 h -0.408204 z m 0.820313,0.62305 h 0.255859 v 0.21875 h -0.255859 z m 0.414063,0.62695 h 0.460937 v 0.44727 h -0.04297 v -0.42774 h -0.417968 z m 0.83789,0.62695 h 0.246094 v 0.25 h -0.246094 z m 0.423828,0.63672 h 0.447266 v 0.48633 h -0.01953 v -0.4375 h -0.427735 z m 0.857422,0.63477 h 0.21875 v 0.29101 h -0.21875 z m 0.433594,0.63867 h 0.417969 v 0.0977 h -0.417969 z m 0.875,0.64648 h 0.177734 v 0.34766 h -0.177734 z m 0.443359,0.64258 h 0.373047 v 0.1582 h -0.373047 z m 0.894531,0.64844 h 0.119141 v 0.42773 h -0.119141 z m 0.453126,0.6543 h 0.310546 v 0.23437 h -0.310546 z m 0.455078,0.65429 h 0.503906 v 0.51758 h -0.04492 v -0.46875 h -0.458984 z m 0.919922,0.65821 h 0.234374 v 0.33203 h -0.234374 z m 0.464843,0.66406 h 0.423828 v 0.14453 h -0.423828 z m 0.939453,0.66601 h 0.140625 v 0.44141 h -0.140625 z m 0.47461,0.66407 h 0.326172 v 0.26172 h -0.326172 z m 0.478515,0.67382 h 0.511719 v 0.57032 h -0.03125 V 688.2793 H 91.537109 Z M 92.5,688.87891 h 0.214844 v 0.39062 H 92.5 Z m 0.488281,0.67773 h 0.396485 v 0.20703 h -0.396485 z m 0.490235,0.67969 h 0.580078 v 0.53711 h -0.08789 v -0.50782 h -0.492187 z m 0.988281,0.68359 h 0.267578 v 0.35938 h -0.267578 z m 0.5,0.6875 h 0.445312 v 0.18164 h -0.445312 z m 0.503906,0.69336 h 0.625 v 0.52539 h -0.121094 v -0.51953 h -0.503906 z m 1.013672,0.69531 h 0.296875 v 0.34766 h -0.296875 z m 0.511719,0.69532 h 0.472656 v 0.17773 h -0.472656 z m 0.515625,0.69921 h 0.65039 v 0.53516 H 98.03125 v -0.53125 h -0.519531 z m 1.041015,0.70704 h 0.302735 v 0.36132 h -0.302735 z m 0.523438,0.70507 h 0.478516 v 0.19336 h -0.478516 z m 0.529297,0.70704 h 0.650391 v 0.57031 h -0.11914 v -0.54297 h -0.531251 z m 1.064451,0.71484 h 0.28906 v 0.40039 h -0.28906 z m 0.53711,0.71875 h 0.46094 v 0.23437 h -0.46094 z m 0.54102,0.7168 h 0.63086 v 0.625 h -0.0879 v -0.55664 h -0.54297 z m 1.08984,0.72265 h 0.25391 v 0.46094 h -0.25391 z m 0.55078,0.72461 h 0.41992 v 0.29883 h -0.41992 z m 0.55274,0.73047 h 0.58789 v 0.70313 h -0.0312 v -0.56641 h -0.55664 z m 1.11523,0.73242 h 0.19531 v 0.54492 h -0.19531 z m 0.5625,0.73828 h 0.35938 v 0.38086 h -0.35938 z m 0.56641,0.73633 h 0.52343 v 0.22266 h -0.52343 z m 0.56836,0.74414 h 0.6875 v 0.64649 h -0.11524 v -0.58594 h -0.57226 z m 1.14843,0.74414 h 0.27539 v 0.48828 h -0.27539 z m 0.57813,0.75 h 0.43555 v 0.33203 h -0.43555 z m 0.58203,0.75196 h 0.5957 v 0.75195 h 0.002 0.74414 v 0.61914 h -0.16992 v -0.59961 h -0.5879 v -0.59766 h -0.58398 z m 1.76172,1.51172 h 0.32812 v 0.46484 h -0.32812 z m 0.5957,0.75976 h 0.48438 v 0.3125 h -0.48438 z m 0.5957,0.76758 h 0.64454 v 0.76562 h 0.75781 v 0.6211 h -0.19727 v -0.61719 h -0.60351 v -0.61133 h -0.60157 z m 1.81055,1.53711 h 0.35156 v 0.46875 h -0.35156 z m 0.61133,0.77539 h 0.50586 v 0.3164 h -0.50586 z m 0.61328,0.77539 h 0.66016 v 0.78125 h 0.76953 v 0.65039 h -0.19531 v -0.63086 h -0.61914 v -0.63086 h -0.61524 z m 1.85742,1.56445 h 0.34571 v 0.50586 h -0.34571 z m 0.625,0.78516 h 0.49805 v 0.35937 h -0.49805 z m 0.62891,0.79101 h 0.64844 v 0.79297 h 0.002 0.78125 v 0.71094 h -0.16406 v -0.64648 h -0.63477 v -0.64649 h -0.63281 z m 1.9043,1.58985 h 0.31445 v 0.56836 h -0.31445 z m 0.64257,0.80273 h 0.46094 v 0.41797 h -0.46094 z m 0.64454,0.80078 h 0.60937 v 0.2793 h -0.60937 z M 122,719.30078 h 0.75977 v 0.80078 h -0.10743 V 719.4375 H 122 Z m 1.30469,0.8125 h 0.2539 v 0.6582 h -0.2539 z m 0.6582,0.8125 h 0.39649 v 0.51367 h -0.39649 z m 0.66016,0.8125 h 0.54297 v 0.37891 h -0.54297 z m 0.66406,0.82031 h 0.6875 v 0.82422 h 0.81055 v 0.7793 h -0.16211 v -0.68945 h -0.66993 v -0.67969 h -0.66601 z m 2.00977,1.64844 h 0.30273 v 0.63867 h -0.30273 z m 0.67578,0.82813 h 0.44531 v 0.50195 h -0.44531 z m 0.67773,0.83007 h 0.58789 v 0.36719 h -0.58789 z m 0.68359,0.83594 h 0.72852 v 0.83985 h 0.002 0.82617 v 0.79296 h -0.18359 v -0.70312 h -0.6875 v -0.70313 h -0.68555 z m 2.06641,1.68164 h 0.32031 v 0.65821 h -0.32031 z m 0.69336,0.84375 h 0.46094 v 0.52539 h -0.46094 z m 0.69922,0.84571 h 0.59765 v 0.38867 h -0.59765 z m 0.70117,0.85351 h 0.73633 v 0.85547 h 0.002 0.8418 v 0.8418 h -0.16797 v -0.72461 h -0.70898 v -0.71875 h -0.70313 z m 2.12305,1.70899 h 0.30273 v 0.71484 h -0.30273 z m 0.71289,0.86132 h 0.43945 v 0.58203 h -0.43945 z m 0.7168,0.86524 h 0.57617 v 0.44726 h -0.57617 z m 0.7207,0.86719 h 0.71094 v 0.3164 h -0.71094 z m 0.72265,0.86914 h 0.84766 v 0.87695 h 0.86133 v 0.79687 h -0.25195 v -0.74414 h -0.73047 v -0.74609 h -0.72657 z m 2.18946,1.75 h 0.38476 v 0.67187 h -0.38476 z m 0.73633,0.88086 h 0.51562 v 0.54296 h -0.51562 z m 0.73828,0.88281 h 0.65039 v 0.41601 h -0.65039 z m 0.74218,0.88476 h 0.78321 v 0.89258 h 0.87695 v 0.89258 h 0.002 0.87891 v 0.79687 h -0.29492 v -0.76757 h -0.75196 v -0.76367 h -0.74804 v -0.76368 h -0.7461 z m 3,2.67969 h 0.42579 v 0.67383 h -0.42579 z m 0.75977,0.90039 h 0.55273 v 0.54688 h -0.55273 z m 0.75977,0.90235 h 0.68359 v 0.41992 h -0.68359 z m 0.76562,0.90429 h 0.81055 v 0.91016 h 0.002 0.89453 v 0.91015 h 0.002 0.89844 v 0.83985 h -0.29687 v -0.78906 h -0.77344 v -0.79102 h -0.77148 v -0.78125 h -0.76563 z m 3.08789,2.73633 h 0.42188 v 0.7168 h -0.42188 z m 0.7793,0.91797 h 0.54883 v 0.59375 h -0.54883 z m 0.7832,0.92187 h 0.67578 v 0.47266 h -0.67578 z m 0.78711,0.92579 h 0.80078 v 0.92578 h 0.002 0.91406 v 0.92968 h 0.002 0.91602 v 0.92383 h -0.25782 v -0.81445 h -0.79492 v -0.80859 h -0.79297 v -0.8086 h -0.78906 z m 3.17774,2.79296 h 0.3789 v 0.80274 h -0.3789 z m 0.80078,0.9375 h 0.5039 v 0.68165 h -0.5039 z m 0.80664,0.94141 h 0.625 v 0.5625 h -0.625 z m 0.80664,0.94141 h 0.75 v 0.44531 h -0.75 z m 0.8125,0.94922 h 0.87109 v 0.95117 h 0.002 0.93555 v 0.95312 h 0.002 0.93946 v 0.92578 h -0.29688 v -0.83984 h -0.82031 v -0.83008 h -0.81836 v -0.83594 h -0.81445 z m 3.27734,2.85937 h 0.41602 v 0.81445 h -0.41602 z m 0.82813,0.96094 h 0.53515 v 0.69531 h -0.53515 z m 0.83007,0.96289 h 0.65625 v 0.58203 h -0.65625 z m 0.83399,0.96875 h 0.77539 v 0.46484 h -0.77539 z m 0.83594,0.9668 h 0.89648 v 0.97265 h 0.002 0.95704 v 0.97852 h 0.002 0.96094 v 0.97851 h 0.002 0.96484 v 0.86914 h -0.40625 v -0.86523 h -0.84961 v -0.86523 h -0.8457 V 765.875 h -0.84375 v -0.85742 h -0.83984 z m 4.23242,3.9121 h 0.52148 v 0.75977 h -0.52148 z m 0.85547,0.98633 h 0.63867 v 0.64649 h -0.63867 z m 0.85742,0.98633 h 0.75586 v 0.53711 h -0.75586 z m 0.86328,0.99414 h 0.87109 v 0.99414 h 0.002 0.98047 v 0.99805 h 0.002 0.98242 v 1.00195 h 0.002 0.98633 v 0.97852 h -0.34765 V 774.625 h -0.87305 v -0.88672 h -0.87305 v -0.88867 h -0.86719 v -0.88086 h -0.86523 z m 4.35742,3.99805 h 0.45899 v 0.87109 h -0.45899 z m 0.88086,1.00976 h 0.57227 v 0.75977 h -0.57227 z m 0.88281,1.00977 h 0.6875 v 0.6543 h -0.6875 z m 0.88868,1.01562 h 0.80078 v 0.54102 h -0.80078 z m 0.88867,1.01758 h 0.66601 c -0.0873,0.13705 -0.16999,0.28496 -0.25195,0.4336 h -0.41406 z"
         transform="scale(0.26458333)" />
      <g
         id="g1915"
         style="fill:#002822;fill-opacity:1">
        <path
           style="fill:#002822;fill-opacity:1;stroke-width:4.39712"
           id="path918"
           d="M 14.585814,172.18074 H 5.791568 v 109.92808 c 0,2.63827 1.758849,4.39712 4.397123,4.39712 H 124.51389 v -8.79425 H 14.585814 Z" />
        <path
           transform="scale(0.26458333)"
           d="m 985.79492,650.76172 v 240.04687 h 33.23828 V 650.76172 Z M 570.31836,1049.6191 v 33.2383 h 300.63672 v -33.2383 z"
           style="fill:#002822;fill-opacity:1;stroke-width:16.619"
           id="path920" />
        <path
           style="fill:#002822;fill-opacity:1;stroke-width:4.39712"
           id="path922"
           d="m 265.22182,22.678565 h -114.3252 v 8.794246 H 260.8247 v 26.382738 h -96.73671 v 8.794246 H 260.8247 V 145.798 h 8.79425 V 27.075688 c 0,-2.638274 -1.75885,-4.397123 -4.39713,-4.397123 z" />
        <path
           style="fill:#002822;fill-opacity:1;stroke-width:4.39712"
           id="path924"
           d="M 14.585814,66.649795 H 111.32252 V 57.855549 H 14.585814 V 31.472811 H 124.51389 V 22.678565 H 10.188691 c -2.638274,0 -4.397123,1.758849 -4.397123,4.397123 V 145.798 h 8.794246 z" />
        <path
           style="fill:#002822;fill-opacity:1;stroke-width:4.39712"
           id="rect926"
           d="m 23.38006,40.267057 h 8.794246 v 8.794246 H 23.38006 Z" />
        <path
           style="fill:#002822;fill-opacity:1;stroke-width:4.39712"
           id="rect928"
           d="m 40.968552,40.267057 h 8.794246 v 8.794246 h -8.794246 z" />
        <path
           style="fill:#002822;fill-opacity:1;stroke-width:4.39712"
           id="rect930"
           d="m 58.557044,40.267057 h 8.794246 v 8.794246 h -8.794246 z" />
        <path
           style="fill:#002822;fill-opacity:1;stroke-width:4.39712"
           id="rect932"
           d="m 234.44196,40.267057 h 17.58849 v 8.794246 h -17.58849 z" />
        <path
           style="fill:#002822;fill-opacity:1;stroke-width:4.39712"
           id="path934"
           d="m 76.145536,93.032534 v 43.971226 43.97123 43.97123 c 0,2.63827 1.758849,4.39712 4.397123,4.39712 H 194.86785 c 2.63828,0 4.39713,-1.75885 4.39713,-4.39712 V 180.97499 137.00376 93.032534 c 0,-2.63827 -1.75885,-4.39712 -4.39713,-4.39712 H 80.542659 c -2.638274,0 -4.397123,1.75885 -4.397123,4.39712 z M 190.47073,176.57787 H 84.939782 V 141.40088 H 190.47073 Z m 0,43.97123 H 84.939782 V 185.37211 H 190.47073 Z M 84.939782,97.429654 H 190.47073 V 132.60664 H 84.939782 Z" />
        <path
           style="fill:#002822;fill-opacity:1;stroke-width:4.39712"
           id="rect936"
           d="m 93.734032,106.2239 h 8.794238 v 17.58849 h -8.794238 z" />
        <path
           style="fill:#002822;fill-opacity:1;stroke-width:4.39712"
           id="rect938"
           d="m 111.32252,106.2239 h 8.79424 v 17.58849 h -8.79424 z" />
        <path
           style="fill:#002822;fill-opacity:1;stroke-width:4.39712"
           id="rect940"
           d="m 128.91101,106.2239 h 8.79425 v 17.58849 h -8.79425 z" />
        <path
           style="fill:#002822;fill-opacity:1;stroke-width:4.39712"
           id="rect942"
           d="m 93.734032,150.19513 h 8.794238 v 17.58849 h -8.794238 z" />
        <path
           style="fill:#002822;fill-opacity:1;stroke-width:4.39712"
           id="rect944"
           d="m 111.32252,150.19513 h 8.79424 v 17.58849 h -8.79424 z" />
        <path
           style="fill:#002822;fill-opacity:1;stroke-width:4.39712"
           id="rect946"
           d="m 128.91101,150.19513 h 8.79425 v 17.58849 h -8.79425 z" />
        <path
           style="fill:#002822;fill-opacity:1;stroke-width:4.39712"
           id="rect948"
           d="m 155.29375,110.62102 h 8.79424 v 8.79425 h -8.79424 z" />
        <path
           style="fill:#002822;fill-opacity:1;stroke-width:4.39712"
           id="rect950"
           d="m 172.88224,110.62102 h 8.79425 v 8.79425 h -8.79425 z" />
        <path
           style="fill:#002822;fill-opacity:1;stroke-width:4.39712"
           id="rect952"
           d="m 155.29375,154.59225 h 8.79424 v 8.79425 h -8.79424 z" />
        <path
           style="fill:#002822;fill-opacity:1;stroke-width:4.39712"
           id="rect954"
           d="m 172.88224,154.59225 h 8.79425 v 8.79425 h -8.79425 z" />
        <path
           style="fill:#002822;fill-opacity:1;stroke-width:4.39712"
           id="rect956"
           d="m 133.30813,198.56348 h 26.38274 v 8.79425 h -26.38274 z" />
        <path
           style="fill:#002822;fill-opacity:1;stroke-width:4.39712"
           id="rect958"
           d="m 168.48512,198.56348 h 8.79424 v 8.79425 h -8.79424 z" />
        <path
           style="fill:#002822;fill-opacity:1;stroke-width:4.39712"
           id="rect960"
           d="m 115.71964,198.56348 h 8.79425 v 8.79425 h -8.79425 z" />
        <path
           style="fill:#002822;fill-opacity:1;stroke-width:4.39712"
           id="rect962"
           d="m 98.131152,198.56348 h 8.794238 v 8.79425 h -8.794238 z" />
        <path
           style="fill:#002822;fill-opacity:1;stroke-width:4.39712"
           id="path964"
           d="m 233.12283,148.87599 -6.15598,-6.15597 -13.19137,13.19137 c -1.75885,1.75885 -1.75885,4.39712 0,6.15597 l 13.19137,13.19137 6.15598,-6.15597 -5.71626,-5.71626 h 42.21238 v -8.79425 h -42.21238 z" />
        <path
           style="fill:#002822;fill-opacity:1;stroke-width:4.39712"
           id="path966"
           d="m 42.287689,169.10276 6.155972,6.15597 13.191369,-13.19137 c 1.758849,-1.75885 1.758849,-4.39712 0,-6.15597 l -13.191369,-13.19137 -6.155972,6.15597 5.71626,5.71626 H 5.791568 v 8.79425 h 42.212381 z" />
        <path
           style="fill:#002822;fill-opacity:1;stroke-width:4.39712"
           id="path968"
           d="m 153.97461,257.04522 -13.19137,-13.19137 c -1.75885,-1.75885 -4.39712,-1.75885 -6.15597,0 l -13.19137,13.19137 6.15597,6.15597 5.71626,-5.71626 v 29.02101 h 8.79425 v -29.02101 l 5.71626,5.71626 z" />
        <path
           style="fill:#002822;fill-opacity:1;stroke-width:4.39712"
           id="path970"
           d="m 121.4359,60.933535 13.19137,13.191369 c 0.87942,0.879425 1.75885,1.31914 3.07799,1.31914 1.31913,0 2.19856,-0.439715 3.07798,-1.31914 l 13.19137,-13.191369 -6.15597,-6.155972 -5.71626,5.71626 V 22.678565 h -8.79425 v 37.815258 l -5.71626,-5.71626 z" />
        <path
           style="fill:#002822;fill-opacity:1;stroke-width:0.171664"
           d="m 265.53802,305.08476 c -3.46899,0 -5.47094,3.40462 -5.47094,7.60765 -0.0343,4.271 2.03474,7.54189 5.43849,7.54189 3.43638,0 5.43884,-3.23724 5.43884,-7.64043 -1.7e-4,-4.10449 -1.93551,-7.50911 -5.40639,-7.50911 z"
           id="path1059" />
        <path
           style="fill:#002822;fill-opacity:1;stroke-width:0.171664"
           d="m 299.47089,258.71413 c -0.005,-0.43362 -0.143,-0.86193 -0.44083,-1.20045 l -18.23127,-20.82373 c -0.004,-0.006 -0.0106,-0.008 -0.0144,-0.013 -0.10866,-0.12137 -0.23346,-0.22145 -0.36753,-0.30969 -0.0398,-0.0258 -0.0815,-0.0489 -0.12325,-0.0724 -0.11588,-0.0628 -0.23725,-0.11501 -0.36565,-0.15312 -0.0326,-0.01 -0.0652,-0.024 -0.0996,-0.033 -0.1375,-0.0333 -0.28049,-0.0529 -0.42367,-0.0529 h -44.80488 c -2.04418,0 -3.70795,1.66394 -3.70795,3.70812 v 87.13677 c 0,2.04504 1.66377,3.70812 3.70795,3.70812 h 61.18114 c 2.04418,0 3.70812,-1.66308 3.70812,-3.70812 v -67.97887 c -1.7e-4,-0.0697 -0.011,-0.13802 -0.0182,-0.20771 z m -56.25661,65.52407 c -2.5705,0 -5.10564,-0.66812 -6.37303,-1.36971 l 1.03376,-4.2032 c 1.36696,0.70073 3.47036,1.40147 5.63797,1.40147 2.33687,0 3.57044,-0.9687 3.57044,-2.43694 0,-1.40234 -1.06603,-2.2016 -3.76906,-3.16841 -3.73644,-1.30173 -6.17338,-3.37217 -6.17338,-6.64118 0,-3.83738 3.20462,-6.77404 8.50939,-6.77404 2.53651,0 4.40508,0.53404 5.73891,1.13521 l -1.13522,4.10346 c -0.90021,-0.43276 -2.502,-1.06552 -4.7036,-1.06552 -2.20348,0 -3.26934,0.99944 -3.26934,2.16812 0,1.43478 1.26688,2.06856 4.16955,3.16944 3.97008,1.46824 5.8407,3.53766 5.8407,6.70795 -0.001,3.76872 -2.90507,6.97335 -9.07709,6.97335 z m 31.733,3.53508 c -3.20274,-0.93419 -5.87161,-1.90101 -8.87522,-3.1703 -0.49971,-0.19912 -1.03376,-0.29955 -1.56798,-0.33234 -5.0713,-0.33234 -9.80889,-4.07101 -9.80889,-11.41258 0,-6.73971 4.27049,-11.81187 10.97655,-11.81187 6.87464,0 10.64421,5.2052 10.64421,11.34477 0,5.10564 -2.36828,8.70939 -5.33944,10.04305 v 0.13475 c 1.73639,0.5016 3.6719,0.90176 5.43901,1.26654 z m 18.75517,-3.86914 h -14.04779 v -22.48939 h 5.10563 v 18.21753 h 8.94216 z m -59.10262,-24.89011 v -59.25009 h 42.95091 v 18.97147 c 0,1.02329 0.8293,1.85398 1.85397,1.85398 h 16.37626 l 0.002,38.42464 z"
           id="path1061" />
        <path
           style="fill:#002822;fill-opacity:1;stroke-width:0.171664"
           d="m 275.26949,265.43976 c 0.0815,-0.22453 0.1394,-0.45439 0.1394,-0.69747 0,-2.98455 -6.44909,-4.59459 -12.51845,-4.59459 -6.06336,0 -12.51072,1.61004 -12.51072,4.59459 0,0.24308 0.0566,0.47397 0.13905,0.69936 l -0.0322,0.0575 c -0.27741,0.50332 -0.41457,1.0111 -0.41457,1.51082 v 3.69301 c 0,0.56855 0.17887,1.11444 0.49611,1.63047 l -0.0415,0.0705 c -0.30246,0.52461 -0.45439,1.05591 -0.45439,1.58069 v 3.69215 c 0,0.5507 0.16875,1.07909 0.46882,1.58069 l -0.0144,0.023 c -0.30246,0.52375 -0.45439,1.05608 -0.45439,1.57966 v 3.6925 c 0,3.28256 5.63076,5.85255 12.81851,5.85255 7.19548,0 12.82624,-2.56999 12.82624,-5.85255 v -3.6925 c 0,-0.52461 -0.15209,-1.0578 -0.45817,-1.58069 l -0.0125,-0.0202 c 0.29767,-0.50246 0.4707,-1.03067 0.4707,-1.58239 v -3.69216 c 0,-0.52546 -0.15209,-1.05866 -0.45817,-1.5824 l -0.0396,-0.068 c 0.31689,-0.51688 0.49783,-1.06192 0.49783,-1.63218 v -3.69302 c 0,-0.49971 -0.13939,-1.00887 -0.41457,-1.51236 z m -0.92681,19.11275 c 0,2.12023 -4.70017,4.47924 -11.45207,4.47924 -6.74555,0 -11.44657,-2.35901 -11.44657,-4.47924 v -3.47293 c 2.10512,1.92813 6.43604,3.15793 11.44657,3.15793 5.0174,0 9.34815,-1.23066 11.45207,-3.15982 z m 0,-6.87583 c 0,2.11833 -4.70017,4.47923 -11.45207,4.47923 -6.74555,0 -11.44657,-2.3609 -11.44657,-4.47923 v -3.47346 c 2.10512,1.92728 6.43604,3.15828 11.44657,3.15828 5.0174,0 9.34815,-1.23118 11.45207,-3.16017 z m 0,-6.97472 c 0,2.11834 -4.70017,4.47923 -11.45207,4.47923 -6.74555,0 -11.44657,-2.36004 -11.44657,-4.47923 v -3.07279 c 2.05723,1.74342 6.82743,2.6474 11.44657,2.6474 4.62532,0 9.39347,-0.90398 11.45207,-2.6474 z"
           id="path1063" />
      </g>
    </g>
  </g>
</svg>
