<?xml version="1.0" encoding="UTF-8" standalone="no"?>
<svg
   xmlns:dc="http://purl.org/dc/elements/1.1/"
   xmlns:cc="http://creativecommons.org/ns#"
   xmlns:rdf="http://www.w3.org/1999/02/22-rdf-syntax-ns#"
   xmlns:svg="http://www.w3.org/2000/svg"
   xmlns="http://www.w3.org/2000/svg"
   xmlns:sodipodi="http://sodipodi.sourceforge.net/DTD/sodipodi-0.dtd"
   xmlns:inkscape="http://www.inkscape.org/namespaces/inkscape"
   version="1.1"
   id="Capa_1"
   x="0px"
   y="0px"
   width="256"
   height="255.99907"
   viewBox="0 0 256 255.99907"
   xml:space="preserve"
   sodipodi:docname="Sicurezza sistemi informativi.svg"
   inkscape:version="1.0 (4035a4fb49, 2020-05-01)"
   inkscape:export-filename="C:\Users\linos\Desktop\Icone gruppi telegram\Sicurezza sistemi informativi2.png"
   inkscape:export-xdpi="96"
   inkscape:export-ydpi="96"><metadata
   id="metadata51"><rdf:RDF><cc:Work
       rdf:about=""><dc:format>image/svg+xml</dc:format><dc:type
         rdf:resource="http://purl.org/dc/dcmitype/StillImage" /><dc:title /><cc:license
         rdf:resource="http://creativecommons.org/licenses/by-sa/4.0/" /></cc:Work><cc:License
       rdf:about="http://creativecommons.org/licenses/by-sa/4.0/"><cc:permits
         rdf:resource="http://creativecommons.org/ns#Reproduction" /><cc:permits
         rdf:resource="http://creativecommons.org/ns#Distribution" /><cc:requires
         rdf:resource="http://creativecommons.org/ns#Notice" /><cc:requires
         rdf:resource="http://creativecommons.org/ns#Attribution" /><cc:permits
         rdf:resource="http://creativecommons.org/ns#DerivativeWorks" /><cc:requires
         rdf:resource="http://creativecommons.org/ns#ShareAlike" /></cc:License></rdf:RDF></metadata><defs
   id="defs49">
	

		
	
			
			
		
				
				
			
	
	
	
















	
















		
	
			
			
			
			
			
			
		
	
	
	
















	
















	
	
	
















	
















		
	
			
			
			
			
			
			
		
		
	
			
			
			
			
			
			
		</defs><sodipodi:namedview
   inkscape:current-layer="Capa_1"
   inkscape:window-maximized="1"
   inkscape:window-y="-9"
   inkscape:window-x="-9"
   inkscape:cy="1097.5143"
   inkscape:cx="1592.7773"
   inkscape:zoom="0.26836551"
   showgrid="false"
   id="namedview47"
   inkscape:window-height="1013"
   inkscape:window-width="1920"
   inkscape:pageshadow="2"
   inkscape:pageopacity="0"
   guidetolerance="10"
   gridtolerance="10"
   objecttolerance="10"
   borderopacity="1"
   bordercolor="#666666"
   pagecolor="#ffffff"
   inkscape:document-rotation="0" />

<g
   id="g16"
   transform="translate(102.10101,68.506477)">
</g>
<g
   id="g18"
   transform="translate(102.10101,68.506477)">
</g>
<g
   id="g20"
   transform="translate(102.10101,68.506477)">
</g>
<g
   id="g22"
   transform="translate(102.10101,68.506477)">
</g>
<g
   id="g24"
   transform="translate(102.10101,68.506477)">
</g>
<g
   id="g26"
   transform="translate(102.10101,68.506477)">
</g>
<g
   id="g28"
   transform="translate(102.10101,68.506477)">
</g>
<g
   id="g30"
   transform="translate(102.10101,68.506477)">
</g>
<g
   id="g32"
   transform="translate(102.10101,68.506477)">
</g>
<g
   id="g34"
   transform="translate(102.10101,68.506477)">
</g>
<g
   id="g36"
   transform="translate(102.10101,68.506477)">
</g>
<g
   id="g38"
   transform="translate(102.10101,68.506477)">
</g>
<g
   id="g40"
   transform="translate(102.10101,68.506477)">
</g>
<g
   id="g42"
   transform="translate(102.10101,68.506477)">
</g>
<g
   id="g44"
   transform="translate(102.10101,68.506477)">
</g>
<g
   transform="scale(0.1249995)"
   id="g172"><rect
     style="fill:#ff5252"
     id="rect70"
     width="2048"
     height="2048"
     x="0"
     y="0"
     rx="3.7909999"
     ry="4.9505901" /><path
     d="m 604.05999,493.52406 c -41.825,10e-4 -75.8496,34.02656 -75.8496,75.85156 v 525.66998 c 5.4e-4,22.8852 10.19922,43.4181 26.27343,57.3359 1.00603,0.9745 2.04145,1.9171 3.09961,2.8359 0.99884,0.9689 2.02804,1.9058 3.07813,2.8203 1.0566,1.027 2.1499,2.0156 3.26367,2.9825 1.03352,0.9996 2.09398,1.9709 3.18164,2.914 1.07134,1.0344 2.16586,2.0452 3.29492,3.0196 0.99154,0.9512 2.0025,1.8843 3.04297,2.7851 0.98432,0.9467 1.99085,1.8701 3.02344,2.7676 0.96652,0.932 1.95558,1.8414 2.96875,2.7266 0.97786,0.9468 1.982,1.8682 3.00781,2.7675 0.97899,0.9505 1.98454,1.876 3.01172,2.7793 0.98686,0.9601 2.00313,1.8921 3.03906,2.8047 1.03269,1.0056 2.09719,1.9813 3.18359,2.9356 1.04058,1.0095 2.10643,1.995 3.20118,2.9531 0.99606,0.9618 2.01319,1.9048 3.05859,2.8203 0.95826,0.9253 1.9374,1.83 2.94141,2.7129 0.97109,0.941 1.96401,1.8619 2.98242,2.7598 0.98505,0.9564 1.99341,1.8922 3.02734,2.8047 0.91659,0.8901 1.85339,1.7626 2.8125,2.6152 0.97668,0.9548 1.9803,1.8844 3.00586,2.7969 0.99407,0.9721 2.01766,1.9189 3.0625,2.8476 1.00955,0.9857 2.04552,1.9492 3.10742,2.8906 1.00617,0.9794 2.03373,1.941 3.0918,2.877 0.94649,0.9189 1.91574,1.8181 2.9082,2.6992 0.97107,0.9456 1.96449,1.8713 2.98438,2.7774 0.90923,0.8857 1.84061,1.7539 2.79297,2.6054 0.96722,0.9481 1.95787,1.8776 2.97461,2.7871 0.94531,0.9267 1.9153,1.8344 2.9082,2.7246 0.92971,0.9133 1.88316,1.8092 2.85938,2.6875 1.01256,0.9981 2.05675,1.9747 3.125,2.9317 0.9941,0.9749 2.01296,1.9332 3.06054,2.8691 0.95048,0.9296 1.92436,1.842 2.92383,2.7364 0.92476,0.9053 1.8741,1.7936 2.8457,2.666 0.94065,0.9243 1.90477,1.8322 2.89453,2.7226 0.94994,0.9351 1.92524,1.8532 2.92579,2.7539 0.91509,0.9014 1.85388,1.7864 2.8164,2.6563 0.91416,0.9039 1.85027,1.7933 2.8125,2.666 0.95013,0.9431 1.92886,1.8678 2.93164,2.7773 0.99785,0.9904 2.02772,1.9604 3.08399,2.9141 0.95612,0.9442 1.93752,1.8741 2.94726,2.7852 0.94928,0.937 1.92521,1.859 2.92774,2.7636 0.91839,0.9066 1.86332,1.7973 2.83203,2.6739 0.91823,0.9089 1.86275,1.8025 2.83203,2.6816 0.9177,0.9111 1.86063,1.8079 2.83008,2.6895 0.93402,0.9296 1.89444,1.8449 2.88281,2.7441 0.91172,0.9082 1.8484,1.8022 2.8125,2.6816 0.91766,0.9167 1.86051,1.8214 2.83203,2.709 0.96932,0.9702 1.97184,1.9253 3.00195,2.8633 0.95596,0.9536 1.94179,1.8918 2.95704,2.8145 0.9138,0.9099 1.85778,1.8055 2.82617,2.6875 0.93291,0.9311 1.89611,1.8458 2.88672,2.748 0.64163,0.6406 1.29529,1.2752 1.96484,1.9023 h -42.98633 c -7.612,0 -14.59347,4.2403 -18.10547,10.9903 -0.157,0.3 -40.29882,77.5293 -40.29882,77.5293 -3.28601,6.33 -3.03594,13.91 0.66406,20 1.21269,1.9993 2.74188,3.7369 4.49609,5.1777 0.91251,1.1555 1.94263,2.1951 3.06445,3.1152 0.91085,1.1538 1.93868,2.1929 3.0586,3.1114 0.91,1.1521 1.93751,2.1898 3.05664,3.1074 0.91031,1.1545 1.93863,2.195 3.05859,3.1133 0.90787,1.1509 1.93407,2.1861 3.05078,3.1015 0.90598,1.1477 1.92859,2.1802 3.04297,3.0938 0.90409,1.1452 1.92461,2.1781 3.03711,3.0898 0.90436,1.1471 1.92745,2.1794 3.04102,3.0918 0.90494,1.1487 1.92794,2.1829 3.04297,3.0957 0.90259,1.1467 1.9234,2.1771 3.03515,3.0879 0.90285,1.1461 1.92255,2.178 3.03516,3.0879 0.90072,1.1419 1.9176,2.1708 3.02734,3.0781 0.90142,1.145 1.92204,2.1735 3.03321,3.0821 0.89396,1.1348 1.90322,2.1567 3.0039,3.0586 0.90417,1.1506 1.92616,2.1858 3.04297,3.0976 0.89223,1.1314 1.90118,2.1479 3,3.0469 0.89575,1.1385 1.9084,2.1644 3.01367,3.0684 0.8977,1.1409 1.91503,2.1656 3.02344,3.0703 0.89196,1.1339 1.90002,2.1532 3,3.0527 0.89279,1.1349 1.90194,2.1549 3.00391,3.0547 0.89295,1.1363 1.90304,2.1579 3.00586,3.0586 0.89292,1.1352 1.90307,2.1561 3.00585,3.0547 0.88608,1.1262 1.88741,2.1401 2.98047,3.0332 0.88775,1.1298 1.89156,2.1458 2.98829,3.041 0.89035,1.1342 1.89888,2.1536 3,3.0508 0.88711,1.1287 1.89209,2.1416 2.98828,3.0351 0.88372,1.1248 1.88292,2.1348 2.97461,3.0254 0.88374,1.1267 1.88387,2.1399 2.97656,3.0313 0.88629,1.131 1.89126,2.1456 2.98828,3.039 0.88315,1.1256 1.88434,2.1376 2.97656,3.0274 0.88141,1.1236 1.87853,2.1334 2.96875,3.0215 0.88141,1.123 1.88004,2.1317 2.9707,3.0195 0.87534,1.115 1.86713,2.1176 2.94922,3 0.88208,1.1255 1.88133,2.1369 2.97461,3.0254 0.87568,1.1171 1.86732,2.1195 2.95117,3.0019 0.87807,1.1207 1.87292,2.1269 2.96094,3.0118 0.87417,1.1151 1.86459,2.1171 2.94727,2.998 0.14518,0.1854 0.29578,0.3657 0.44726,0.5449 0.0551,0.072 0.11005,0.1446 0.17579,0.2051 0.71657,0.8237 1.49736,1.5787 2.33593,2.2598 0.0867,0.1106 0.17473,0.2197 0.26367,0.3281 0.0128,0.021 0.0242,0.043 0.0371,0.064 0.093,0.1507 0.21399,0.2747 0.34766,0.3848 0.70618,0.8075 1.47485,1.5492 2.29883,2.2188 0.0641,0.082 0.12806,0.1636 0.19336,0.2441 0.026,0.044 0.0478,0.089 0.0742,0.1328 0.10611,0.1715 0.24936,0.3096 0.40625,0.4297 0.69622,0.7926 1.45334,1.521 2.26367,2.1797 0.0494,0.063 0.0963,0.1289 0.14648,0.1914 0.0329,0.055 0.0603,0.1129 0.0937,0.168 0.11885,0.1954 0.28061,0.3522 0.46094,0.4824 0.68758,0.7799 1.4359,1.4952 2.23437,2.1445 0.0175,0.022 0.0332,0.046 0.0508,0.068 0.0551,0.094 0.10325,0.1914 0.16015,0.2851 0.13192,0.2164 0.31486,0.3875 0.51953,0.5235 0.67386,0.7606 1.40537,1.4597 2.18555,2.0957 0.0675,0.1168 0.12902,0.2359 0.19922,0.3515 0.14649,0.2388 0.35028,0.4295 0.58203,0.5723 0.65175,0.7321 1.35649,1.4077 2.10742,2.0234 0.0718,0.1247 0.13801,0.2517 0.21289,0.375 0.15901,0.2593 0.38157,0.4669 0.63868,0.6153 0.63409,0.7094 1.31909,1.3635 2.04687,1.9629 0.0726,0.1262 0.13711,0.256 0.21289,0.3808 0.1682,0.2787 0.40508,0.499 0.67969,0.6504 0.61998,0.6927 1.28643,1.3345 1.99609,1.9219 0.0743,0.1292 0.14305,0.2608 0.2207,0.3887 0.17625,0.2911 0.42676,0.5165 0.7168,0.6718 0.60392,0.6741 1.25219,1.2991 1.94141,1.8731 0.0787,0.1374 0.14991,0.2782 0.23242,0.414 0.18556,0.3049 0.4529,0.5402 0.75977,0.6993 0.58646,0.6536 1.21572,1.2611 1.88281,1.8203 0.0835,0.1466 0.16021,0.2965 0.24805,0.4414 0.19312,0.3173 0.47437,0.5568 0.79687,0.7168 0.57355,0.638 1.18517,1.2333 1.83594,1.7812 0.0854,0.15 0.16399,0.3031 0.2539,0.4512 0.20201,0.3301 0.49753,0.5769 0.83594,0.7402 0.55626,0.6185 1.14828,1.1986 1.77735,1.7325 0.0902,0.159 0.17426,0.3196 0.26953,0.4765 0.21022,0.3437 0.52134,0.6012 0.87695,0.7676 0.54077,0.6003 1.11689,1.1614 1.72656,1.6816 0.0928,0.1639 0.17914,0.3307 0.27735,0.4922 0.21821,0.3618 0.54298,0.6283 0.91406,0.7989 0.52309,0.5801 1.0802,1.1218 1.66797,1.6269 0.0982,0.1745 0.19062,0.3515 0.29492,0.5234 0.22645,0.3676 0.56533,0.64 0.95117,0.8125 0.50667,0.5612 1.04579,1.0872 1.61328,1.5782 0.10272,0.1833 0.19912,0.3683 0.3086,0.5488 0.23559,0.3876 0.59033,0.6687 0.99414,0.8418 0.49013,0.5418 1.01339,1.0493 1.56054,1.5254 0.10547,0.1884 0.20573,0.3791 0.31836,0.5644 0.24117,0.3969 0.60619,0.6831 1.02149,0.8594 0.47515,0.5257 0.97879,1.0187 1.50781,1.4824 0.11128,0.1999 0.21855,0.4012 0.33789,0.5977 0.25024,0.4108 0.6312,0.7033 1.06445,0.8789 0.45623,0.5041 0.94136,0.9768 1.44727,1.4238 0.11621,0.2098 0.22843,0.4209 0.35351,0.627 0.25969,0.4243 0.65506,0.7286 1.10547,0.9062 0.43894,0.4841 0.90759,0.9379 1.39258,1.3692 0.11936,0.2157 0.2345,0.4327 0.36328,0.6445 0.26817,0.4437 0.6794,0.7589 1.14649,0.9395 0.42099,0.4637 0.86857,0.8973 1.33203,1.3125 0.12464,0.2268 0.24583,0.4551 0.38086,0.6777 0.27497,0.454 0.69768,0.7729 1.17773,0.9531 0.40863,0.4501 0.84224,0.8732 1.29102,1.2774 0.1266,0.2309 0.2513,0.4629 0.38867,0.6894 0.28319,0.4665 0.71866,0.7963 1.21484,0.9785 0.38906,0.428 0.80298,0.8286 1.22852,1.2149 0.13269,0.2435 0.26354,0.4879 0.4082,0.7265 0.29205,0.4801 0.74409,0.8203 1.25781,1.0039 0.37245,0.4091 0.76787,0.7933 1.17383,1.1641 0.13553,0.2491 0.26988,0.4983 0.41797,0.7422 0.29888,0.4903 0.76258,0.8372 1.28906,1.0234 0.35865,0.3937 0.7371,0.7647 1.12696,1.1231 0.1391,0.2565 0.27918,0.5126 0.43164,0.7636 0.30712,0.5108 0.78563,0.8676 1.33008,1.0528 0.33977,0.3724 0.6986,0.7217 1.0664,1.0625 0.14407,0.267 0.28873,0.5338 0.44727,0.7949 0.31667,0.5255 0.81165,0.8943 1.375,1.0801 0.31874,0.3487 0.6546,0.6792 0.99804,1 0.14977,0.2793 0.30318,0.5572 0.46875,0.8301 0.32276,0.5344 0.8276,0.9062 1.40235,1.0918 0.30713,0.336 0.63077,0.6547 0.96094,0.9648 0.15182,0.2834 0.30644,0.5671 0.4746,0.8437 0.33222,0.549 0.85189,0.9331 1.44532,1.1192 0.28681,0.3132 0.5876,0.6118 0.89453,0.9023 0.1574,0.2956 0.31896,0.5907 0.49414,0.8789 0.34,0.5608 0.87563,0.9531 1.48437,1.1407 0.26952,0.294 0.54862,0.5776 0.83594,0.8515 0.16173,0.3057 0.33103,0.6083 0.51172,0.9063 0.35022,0.5765 0.90179,0.9847 1.53125,1.1718 0.25017,0.2724 0.50791,0.5361 0.77344,0.7911 0.16526,0.3131 0.33821,0.6227 0.52344,0.9277 0.35736,0.5872 0.9215,1.0044 1.56445,1.1934 0.23558,0.256 0.47732,0.5052 0.72656,0.7461 0.16858,0.3206 0.34563,0.639 0.53516,0.9511 0.36563,0.6009 0.94462,1.0295 1.60547,1.2188 0.21185,0.2298 0.43137,0.4524 0.65429,0.6699 0.17634,0.3382 0.36483,0.6712 0.56446,1 0.37198,0.6102 0.96027,1.0436 1.63281,1.2324 0.19782,0.2147 0.40381,0.4211 0.61133,0.625 0.17964,0.3461 0.3702,0.6873 0.57422,1.0235 0.38099,0.6312 0.98719,1.0732 1.67773,1.2597 0.17742,0.1923 0.36165,0.3769 0.54687,0.5606 0.18512,0.3582 0.3805,0.711 0.5918,1.0586 0.39,0.645 1.01038,1.1005 1.71875,1.2871 0.15737,0.1704 0.3228,0.3325 0.48633,0.4961 0.19031,0.3706 0.391,0.7384 0.60938,1.0976 0.39768,0.6565 1.03055,1.1171 1.7539,1.3047 0.14027,0.1518 0.28647,0.297 0.43164,0.4434 0.19499,0.3825 0.40023,0.7622 0.625,1.1328 0.4043,0.6662 1.04952,1.1275 1.78516,1.3144 0.12387,0.1338 0.25315,0.2611 0.38086,0.3907 0.19969,0.3939 0.40934,0.7827 0.64062,1.164 0.41088,0.6772 1.07035,1.1477 1.82032,1.336 0.10685,0.1155 0.2184,0.2255 0.32812,0.3379 0.20389,0.4044 0.41906,0.804 0.65625,1.1953 0.42004,0.6911 1.09542,1.1735 1.86328,1.3613 0.0874,0.094 0.18017,0.1832 0.26953,0.2754 0.20779,0.4139 0.42521,0.8247 0.66797,1.2246 0.42648,0.6993 1.11046,1.1883 1.88867,1.3789 0.0755,0.082 0.15547,0.1584 0.23242,0.2383 0.21048,0.4206 0.43109,0.8359 0.67774,1.2422 0.43418,0.7197 1.13522,1.2158 1.92969,1.4043 0.0533,0.057 0.11007,0.1113 0.16406,0.1679 0.21652,0.4362 0.44578,0.8664 0.70117,1.2871 0.44149,0.7307 1.15411,1.2342 1.96289,1.4239 0.0374,0.04 0.0775,0.077 0.11524,0.1172 0.2206,0.4468 0.45342,0.8896 0.71484,1.3203 0.44728,0.7402 1.17128,1.2447 1.99219,1.4336 0.0229,0.025 0.0473,0.048 0.0703,0.072 0.22386,0.4551 0.46026,0.9058 0.72656,1.3438 0.45465,0.7512 1.19217,1.2631 2.02735,1.4531 0.005,0.01 0.009,0.011 0.0137,0.016 0.22864,0.4679 0.47257,0.9309 0.74609,1.3809 0.45826,0.756 1.19845,1.2777 2.03906,1.4726 0.22787,0.4671 0.47163,0.9275 0.74414,1.377 0.4607,0.7588 1.2035,1.2853 2.04688,1.4863 0.2251,0.4593 0.46581,0.9116 0.73438,1.3535 0.46235,0.7617 1.20661,1.2949 2.05273,1.502 0.22282,0.4536 0.45734,0.9031 0.72266,1.3398 0.46446,0.764 1.21044,1.3022 2.05859,1.5157 0.22061,0.4483 0.45456,0.8924 0.7168,1.3242 0.4662,0.7656 1.21119,1.3042 2.06054,1.5215 0.21867,0.443 0.44948,0.8819 0.70899,1.3086 0.46792,0.7748 1.21391,1.3176 2.06445,1.539 0.21723,0.4405 0.44753,0.8764 0.70508,1.3008 0.47032,0.7702 1.21705,1.3162 2.07031,1.543 0.21407,0.4319 0.44028,0.8591 0.69336,1.2754 0.47183,0.7789 1.22023,1.3307 2.07422,1.5644 0.21252,0.429 0.43652,0.8519 0.6875,1.2656 0.47313,0.7812 1.22226,1.3334 2.07812,1.5704 0.21046,0.4234 0.43352,0.8417 0.68165,1.25 0.47461,0.7825 1.22352,1.3367 2.08007,1.58 0.20897,0.42 0.42967,0.8352 0.67578,1.2403 0.47664,0.7847 1.22752,1.3445 2.08594,1.5937 0.20663,0.4149 0.42509,0.826 0.66797,1.2266 0.47772,0.7866 1.2281,1.3434 2.08789,1.5957 0.20524,0.4111 0.4211,0.8181 0.66211,1.2148 0.47941,0.7883 1.23083,1.3511 2.0918,1.6094 0.20299,0.4058 0.41636,0.8074 0.65429,1.1992 0.48128,0.7915 1.23553,1.3595 2.09961,1.6231 0.19996,0.3984 0.41077,0.7928 0.64454,1.1777 0.48149,0.7978 1.23409,1.3646 2.0957,1.6328 0.19981,0.3986 0.41086,0.7927 0.64453,1.1777 0.48445,0.7946 1.2395,1.3691 2.10547,1.6446 0.19644,0.3905 0.40378,0.7769 0.63281,1.1543 0.48599,0.796 1.2409,1.37 2.10742,1.6484 0.19503,0.3865 0.39981,0.7691 0.62696,1.1426 0.48701,0.8047 1.24363,1.3851 2.11132,1.6699 0.19269,0.3819 0.39514,0.7596 0.61914,1.1289 0.48961,0.8068 1.24802,1.3885 2.11719,1.6758 0.19071,0.3772 0.39193,0.7503 0.61328,1.1152 0.49038,0.8082 1.24738,1.3925 2.11719,1.6856 0.18903,0.3733 0.38829,0.7422 0.60742,1.1035 0.49144,0.81 1.25001,1.3958 2.1211,1.6914 0.18702,0.3682 0.3851,0.7336 0.60156,1.0898 0.49405,0.8133 1.25482,1.4074 2.12891,1.711 0.18416,0.3615 0.37916,0.7183 0.59179,1.0683 0.49434,0.8206 1.25332,1.4126 2.12695,1.7168 0.18323,0.3596 0.37646,0.7143 0.5879,1.0625 0.49665,0.8155 1.25626,1.4147 2.13086,1.7266 0.18174,0.3563 0.37446,0.7096 0.58398,1.0547 0.49753,0.817 1.25735,1.4161 2.13281,1.7305 0.17969,0.3515 0.36938,0.6984 0.57617,1.039 0.49921,0.8188 1.26032,1.4207 2.13672,1.7403 0.17823,0.3482 0.36737,0.6917 0.57227,1.0293 0.50017,0.8204 1.26118,1.429 2.13867,1.7539 0.17613,0.3436 0.3623,0.6844 0.56445,1.0175 0.50232,0.8231 1.26503,1.431 2.14453,1.7579 0.1738,0.3382 0.35756,0.6737 0.55664,1.0019 0.5041,0.8315 1.26771,1.4417 2.14844,1.7715 0.17182,0.3337 0.35428,0.6645 0.55078,0.9883 0.50568,0.8352 1.27142,1.4508 2.15625,1.7851 0.16857,0.3259 0.34681,0.6486 0.53907,0.9649 0.5072,0.8367 1.27272,1.4622 2.1582,1.8047 0.16679,0.3225 0.34322,0.6418 0.5332,0.955 0.50868,0.8382 1.27603,1.464 2.16211,1.8086 0.1649,0.3179 0.33979,0.6327 0.52735,0.9414 0.51006,0.8395 1.27566,1.4657 2.1621,1.8125 0.164,0.3165 0.33898,0.6301 0.5254,0.9375 0.51128,0.8427 1.27852,1.4728 2.16796,1.8243 0.1611,0.3094 0.33101,0.6153 0.51368,0.916 0.51281,0.8442 1.28172,1.4814 2.17187,1.8379 0.15895,0.3047 0.32983,0.6061 0.50977,0.9023 0.51422,0.8456 1.28127,1.4863 2.17187,1.8477 0.15746,0.3015 0.32586,0.5994 0.50391,0.8925 0.51563,0.848 1.28509,1.4914 2.17773,1.8575 0.15577,0.2979 0.32017,0.5911 0.4961,0.8808 0.51781,0.8506 1.28896,1.4975 2.18359,1.8653 0.15305,0.292 0.31582,0.5811 0.48828,0.8652 0.51813,0.8512 1.28932,1.5002 2.1836,1.873 0.15188,0.2896 0.31334,0.5757 0.48437,0.8575 0.52004,0.8534 1.29361,1.5004 2.18945,1.875 0.1499,0.2851 0.3061,0.5681 0.47461,0.8457 0.52223,0.8632 1.29984,1.5147 2.19922,1.8945 0.14676,0.2779 0.29834,0.5536 0.46289,0.8242 0.52391,0.8651 1.30093,1.5218 2.20117,1.9063 0.14525,0.2746 0.29632,0.5469 0.45899,0.8144 0.52344,0.8644 1.29714,1.5196 2.19531,1.9063 0.14487,0.2744 0.29674,0.545 0.45899,0.8125 0.52597,0.8676 1.30383,1.5288 2.20507,1.9199 0.14149,0.2668 0.28926,0.531 0.44727,0.791 0.52788,0.8698 1.30837,1.5322 2.21094,1.9277 0.13984,0.2633 0.28348,0.5266 0.43945,0.7832 0.52763,0.8695 1.30605,1.5282 2.20703,1.9258 0.14008,0.2639 0.28314,0.526 0.43945,0.7832 0.52803,0.8702 1.30644,1.5333 2.20703,1.9356 0.13855,0.2611 0.28309,0.5206 0.4375,0.7754 0.53,0.8725 1.31042,1.5337 2.2129,1.9375 0.13626,0.2562 0.27612,0.5116 0.42773,0.7617 0.53239,0.8765 1.31433,1.5452 2.2207,1.9531 0.13264,0.2481 0.27085,0.4942 0.41797,0.7363 0.53251,0.8827 1.31334,1.5522 2.21875,1.9629 0.1325,0.248 0.26707,0.4963 0.41406,0.7383 0.53389,0.8782 1.31694,1.5487 2.22266,1.9629 0.13092,0.2446 0.26509,0.4877 0.41016,0.7266 0.53442,0.8791 1.31697,1.552 2.22265,1.9707 0.12955,0.2418 0.2609,0.4826 0.4043,0.7187 0.53767,0.8836 1.32409,1.5618 2.23438,1.9844 0.12577,0.2339 0.25378,0.4667 0.39257,0.6953 0.53721,0.8887 1.32053,1.5687 2.22852,1.9941 0.12581,0.2342 0.25371,0.4685 0.39258,0.6973 0.53856,0.8843 1.32402,1.5635 2.23242,1.9922 0.12445,0.2313 0.25144,0.4614 0.38867,0.6875 0.54094,0.8883 1.32798,1.5712 2.24024,2.0039 0.12083,0.2238 0.24216,0.4471 0.375,0.666 0.54119,0.8935 1.32804,1.5782 2.23828,2.0137 0.1209,0.2239 0.24205,0.447 0.37498,0.666 0.5419,0.89 1.3305,1.5771 2.2422,2.0156 0.1189,0.22 0.2386,0.4392 0.3691,0.6543 0.5447,0.8938 1.3348,1.5848 2.25,2.0274 0.1153,0.2125 0.2313,0.4248 0.3575,0.6328 0.5449,0.8989 1.3327,1.5919 2.2461,2.0371 0.1153,0.2126 0.2311,0.4247 0.3574,0.6328 0.5457,0.8956 1.337,1.5889 2.2519,2.0371 0.1136,0.2091 0.2255,0.4184 0.3496,0.6231 0.5485,0.8992 1.3416,1.5986 2.2598,2.0507 0.1098,0.201 0.2182,0.4028 0.3379,0.5996 0.5485,0.9049 1.3407,1.6039 2.2578,2.0586 0.1098,0.2014 0.2182,0.4043 0.3379,0.6016 0.5505,0.9074 1.3428,1.6084 2.2617,2.0645 0.1071,0.1959 0.2136,0.3918 0.3301,0.5839 0.5515,0.9091 1.3458,1.6142 2.2656,2.0743 0.1057,0.193 0.2075,0.3868 0.3223,0.5761 0.5542,0.9128 1.3521,1.622 2.2754,2.086 0.102,0.1854 0.2019,0.3728 0.3125,0.5547 0.5549,0.914 1.3518,1.6257 2.2754,2.0937 0.1008,0.183 0.1994,0.3674 0.3086,0.5469 0.555,0.9151 1.3518,1.6295 2.2754,2.1015 0.099,0.1801 0.1953,0.3605 0.3027,0.5372 0.5559,0.9157 1.3523,1.6321 2.2754,2.1054 0.099,0.179 0.194,0.3595 0.3008,0.5352 0.5574,0.9175 1.3553,1.6328 2.2793,2.1074 0.097,0.175 0.1905,0.3516 0.2949,0.5234 0.5589,0.92 1.3574,1.6387 2.2832,2.1172 0.095,0.1711 0.187,0.3437 0.2891,0.5117 0.5596,0.9213 1.357,1.6446 2.2832,2.127 0.093,0.1685 0.1826,0.3384 0.2832,0.5039 0.5614,0.9242 1.3623,1.6492 2.291,2.1328 0.09,0.1625 0.1783,0.3266 0.2754,0.4863 0.5621,0.9254 1.3623,1.6532 2.291,2.1407 0.089,0.1604 0.1737,0.3227 0.2695,0.4804 0.5632,0.9273 1.3653,1.6572 2.2949,2.1485 0.088,0.1571 0.1718,0.3162 0.2657,0.4707 0.5646,0.9297 1.3653,1.6618 2.2968,2.1543 0.085,0.152 0.167,0.3055 0.2578,0.4551 0.567,0.9379 1.3707,1.675 2.3047,2.1699 0.082,0.1472 0.1601,0.2965 0.2481,0.4414 0.5676,0.939 1.3726,1.6771 2.3066,2.1758 0.081,0.1445 0.1577,0.2912 0.2442,0.4336 0.5668,0.9326 1.3677,1.6726 2.2988,2.1738 0.082,0.1454 0.1592,0.2924 0.2461,0.4355 0.5701,0.9374 1.3766,1.6806 2.3125,2.1856 0.078,0.1378 0.1499,0.2782 0.2324,0.414 0.5702,0.9375 1.3721,1.6834 2.3066,2.1895 0.077,0.1374 0.1503,0.2767 0.2325,0.4121 0.5729,0.9412 1.3803,1.6894 2.3183,2.1992 0.073,0.1302 0.1428,0.2623 0.2207,0.3906 0.5739,0.9488 1.3806,1.7008 2.3203,2.2129 0.071,0.1256 0.1377,0.2531 0.2129,0.377 0.5754,0.9504 1.3837,1.7048 2.3243,2.2207 0.07,0.1228 0.1334,0.248 0.207,0.3691 0.5761,0.9518 1.3854,1.711 2.3262,2.2305 0.068,0.1197 0.1314,0.2413 0.2031,0.3594 0.5771,0.9483 1.3864,1.7085 2.3281,2.2304 0.066,0.1164 0.1275,0.2347 0.1973,0.3497 0.5788,0.9563 1.3901,1.7198 2.334,2.2441 0.064,0.1116 0.1206,0.2257 0.1875,0.3359 0.5784,0.9557 1.3882,1.7189 2.33,2.2442 0.064,0.1118 0.1225,0.2255 0.1895,0.3359 0.5816,0.9551 1.3937,1.7256 2.3398,2.2559 0.06,0.1045 0.115,0.2111 0.1778,0.3144 0.5821,0.9618 1.3948,1.7332 2.3418,2.2656 0.058,0.1011 0.1093,0.2049 0.1699,0.3047 0.5824,0.9625 1.3954,1.736 2.3418,2.2696 0.057,0.099 0.1102,0.2004 0.1699,0.2988 0.5834,0.9633 1.3938,1.7402 2.3398,2.2773 0.056,0.098 0.1075,0.1966 0.1661,0.293 0.5842,0.9597 1.3972,1.7341 2.3437,2.2734 0.055,0.095 0.1048,0.1928 0.1621,0.2872 0.5832,0.9587 1.394,1.732 2.3379,2.2734 0.055,0.095 0.1049,0.1928 0.1621,0.2871 0.5857,0.9622 1.4009,1.7374 2.3477,2.2813 0.051,0.089 0.097,0.1796 0.1504,0.2675 0.5869,0.9692 1.4037,1.7468 2.3515,2.293 0.049,0.085 0.093,0.1732 0.1446,0.2578 0.5876,0.9704 1.4015,1.7512 2.3496,2.3008 0.048,0.082 0.091,0.1664 0.1406,0.248 0.5889,0.9717 1.4053,1.7522 2.3535,2.3028 0.048,0.082 0.089,0.1666 0.1387,0.248 0.5852,0.9672 1.4004,1.7497 2.3477,2.3047 0.045,0.078 0.086,0.1588 0.1328,0.2363 0.5931,0.9694 1.4107,1.7506 2.3594,2.3067 0.045,0.077 0.084,0.156 0.1308,0.2324 0.5904,0.9696 1.4051,1.7532 2.3516,2.3125 0.044,0.075 0.084,0.152 0.1289,0.2266 0.5863,0.9677 1.3998,1.7486 2.3437,2.3086 0.043,0.074 0.081,0.1496 0.125,0.2226 0.5931,0.9756 1.4145,1.7642 2.3672,2.3281 0.039,0.067 0.073,0.1351 0.1133,0.2012 0.5894,0.9744 1.4077,1.7631 2.3574,2.3301 0.039,0.067 0.073,0.1352 0.1133,0.2012 0.5897,0.9718 1.4043,1.7567 2.3496,2.3242 0.038,0.065 0.071,0.1312 0.1094,0.1953 0.5951,0.9825 1.4183,1.7735 2.3711,2.3437 0.034,0.058 0.065,0.118 0.1,0.1758 0.5957,0.9804 1.4146,1.7707 2.3613,2.3438 0.034,0.058 0.064,0.1179 0.1,0.1758 0.5952,0.9794 1.4159,1.7723 2.3672,2.3476 0.032,0.054 0.059,0.1087 0.092,0.1621 0.5971,0.9842 1.4182,1.7781 2.3672,2.3555 0.032,0.055 0.061,0.1115 0.094,0.166 0.5966,0.9835 1.4177,1.7778 2.3691,2.3574 0.028,0.047 0.052,0.096 0.08,0.1426 0.5975,0.9866 1.4178,1.7818 2.3672,2.3633 0.028,0.048 0.053,0.098 0.082,0.1465 0.5948,0.9821 1.4168,1.7778 2.3652,2.3633 0.027,0.045 0.049,0.092 0.076,0.1367 0.6035,0.9904 1.4269,1.7893 2.3789,2.375 0.024,0.041 0.045,0.084 0.07,0.125 0.5963,0.9862 1.4182,1.7873 2.3692,2.3769 0.024,0.041 0.046,0.082 0.07,0.1231 0.6003,0.9898 1.4265,1.7919 2.3808,2.3828 0.021,0.035 0.039,0.072 0.061,0.1074 0.5975,0.9899 1.4191,1.7929 2.3711,2.3867 0.02,0.034 0.038,0.069 0.059,0.1035 0.6027,0.988 1.4244,1.7904 2.373,2.3868 0.02,0.033 0.036,0.068 0.057,0.1015 0.6035,0.9938 1.4301,1.8025 2.3847,2.4004 0.016,0.026 0.029,0.054 0.045,0.08 0.6051,0.9934 1.4317,1.8016 2.3848,2.4023 0.015,0.026 0.029,0.052 0.045,0.078 0.602,0.9927 1.425,1.801 2.375,2.4023 0.015,0.026 0.029,0.052 0.045,0.078 0.6057,0.9962 1.4335,1.8055 2.3867,2.4102 0.012,0.019 0.021,0.039 0.033,0.059 0.602,0.9989 1.4254,1.8116 2.375,2.4179 0.012,0.021 0.023,0.042 0.035,0.062 0.6086,1.0024 1.4393,1.8169 2.3985,2.4239 0.01,0.012 0.014,0.025 0.022,0.037 0.6049,1.0008 1.4318,1.8161 2.3867,2.4277 0.01,0.014 0.015,0.028 0.023,0.041 0.605,0.9981 1.4293,1.8121 2.3789,2.4239 0.01,0.012 0.014,0.025 0.022,0.037 0.6111,1.0052 1.4421,1.8236 2.4004,2.4394 0,0.01 0.01,0.013 0.01,0.02 0.6076,1.0039 1.4343,1.8233 2.3886,2.4394 0,0.01 0.01,0.014 0.012,0.022 0.6102,1.0007 1.4378,1.8198 2.3926,2.4375 0,0 0.01,0.01 0.01,0.012 0.6063,1.0031 1.4314,1.8222 2.3829,2.4414 0,0 0,0.01 0.01,0.01 0.6102,1.0069 1.4407,1.8267 2.3965,2.4472 0.6115,1.0034 1.4381,1.8256 2.3906,2.4493 0.6134,1.0106 1.4453,1.8372 2.4043,2.4629 0.6109,0.9962 1.4305,1.811 2.375,2.4316 0.6141,0.9972 1.4368,1.8157 2.3848,2.4394 0.6153,1.0045 1.4437,1.826 2.3965,2.4512 0.6111,0.9943 1.4289,1.8125 2.373,2.4356 0.6135,0.9893 1.4334,1.8043 2.377,2.4277 0.6131,0.9876 1.4258,1.8028 2.3632,2.4258 0.6158,0.9941 1.4384,1.8122 2.3848,2.4394 0.6179,0.9885 1.4339,1.8045 2.375,2.4278 0.6106,0.974 1.4157,1.7813 2.3438,2.4023 0.6183,0.9867 1.4355,1.8043 2.3769,2.4317 0.6146,0.9714 1.4176,1.7805 2.3438,2.4043 0.6183,0.9834 1.4314,1.7999 2.3691,2.4277 0.618,0.9717 1.4248,1.78 2.3535,2.4043 0.6143,0.9683 1.4145,1.775 2.3379,2.3984 0.6186,0.9736 1.425,1.7828 2.3535,2.4082 0.619,0.966 1.4211,1.7727 2.3438,2.3965 0.616,0.9633 1.4135,1.7698 2.332,2.3945 0.6205,0.967 1.4228,1.7727 2.3457,2.3985 0.6197,0.9575 1.4151,1.7593 2.3301,2.3828 0.6217,0.9641 1.4228,1.7711 2.3437,2.3984 0.4298,0.6648 0.9484,1.2501 1.5293,1.7578 h 808.084 c 2.1002,0 3.791,-2.2084 3.791,-4.9511 v -888.127 c -0.4504,-0.593 -1.0775,-1.1826 -1.8789,-1.7695 -0.4472,-0.7835 -1.2076,-1.5609 -2.2636,-2.334 -0.4484,-0.7765 -1.2032,-1.5481 -2.2442,-2.3145 -0.4521,-0.7828 -1.2124,-1.5594 -2.2617,-2.332 -0.4544,-0.7795 -1.2109,-1.5549 -2.252,-2.3242 -0.4584,-0.7869 -1.2223,-1.5692 -2.2734,-2.3457 -0.4613,-0.7828 -1.2252,-1.5595 -2.2676,-2.332 -0.4649,-0.7859 -1.2318,-1.5663 -2.2773,-2.3418 -0.4663,-0.7813 -1.225,-1.5571 -2.2598,-2.3282 -0.4713,-0.7931 -1.2412,-1.5825 -2.2929,-2.3652 -0.4737,-0.7859 -1.2372,-1.5662 -2.2754,-2.3418 -0.4774,-0.7934 -1.2472,-1.5823 -2.295,-2.3652 -0.4814,-0.7884 -1.2477,-1.5715 -2.2871,-2.3496 -0.479,-0.7833 -1.2366,-1.561 -2.2617,-2.334 -0.4874,-0.8057 -1.27,-1.6074 -2.3301,-2.4024 -0.4871,-0.7848 -1.2483,-1.5652 -2.2734,-2.3398 -0.4917,-0.7992 -1.2678,-1.5923 -2.3125,-2.3809 -0.493,-0.7924 -1.2594,-1.5812 -2.291,-2.3632 -0.4946,-0.7969 -1.2662,-1.5887 -2.3008,-2.375 -0.4969,-0.7979 -1.2691,-1.5896 -2.3027,-2.377 -0.5022,-0.8028 -1.28,-1.6003 -2.3203,-2.3926 -0.5031,-0.7961 -1.2754,-1.5872 -2.3028,-2.373 -0.5077,-0.8053 -1.2887,-1.6058 -2.3281,-2.4004 -0.5103,-0.8028 -1.2885,-1.6004 -2.3223,-2.3926 -0.5126,-0.8019 -1.2923,-1.5992 -2.3222,-2.3906 -0.5123,-0.7983 -1.2884,-1.591 -2.3086,-2.3789 -0.5156,-0.8076 -1.2976,-1.6093 -2.3282,-2.4063 -0.5179,-0.8054 -1.2988,-1.6055 -2.3242,-2.4004 -0.521,-0.8107 -1.3072,-1.6159 -2.3379,-2.416 -0.5256,-0.812 -1.3135,-1.6205 -2.3457,-2.4219 -0.5278,-0.8096 -1.3171,-1.613 -2.3437,-2.4121 -0.5278,-0.8063 -1.3122,-1.6084 -2.3301,-2.4043 -0.5298,-0.8121 -1.3172,-1.6184 -2.3398,-2.4199 -0.5351,-0.818 -1.3312,-1.6322 -2.3614,-2.4394 -0.5342,-0.8085 -1.3225,-1.6122 -2.3359,-2.4102 -0.5447,-0.8256 -1.3474,-1.6463 -2.3867,-2.4609 -0.543,-0.8117 -1.3291,-1.617 -2.3457,-2.418 -0.5501,-0.8239 -1.3436,-1.6441 -2.377,-2.4571 -0.5521,-0.8189 -1.342,-1.6312 -2.3672,-2.4394 -0.5533,-0.8183 -1.3401,-1.6319 -2.3613,-2.4395 -0.5581,-0.824 -1.3549,-1.6419 -2.3828,-2.455 -0.5592,-0.8209 -1.3501,-1.6372 -2.3711,-2.4473 -0.5606,-0.8216 -1.3541,-1.6364 -2.3731,-2.4473 -0.5623,-0.8237 -1.3542,-1.6421 -2.373,-2.455 -0.5675,-0.8289 -1.3676,-1.6528 -2.3926,-2.4708 -0.5677,-0.8242 -1.3631,-1.6436 -2.3789,-2.457 -0.5735,-0.8322 -1.3804,-1.6592 -2.4062,-2.4805 -0.5707,-0.8221 -1.3651,-1.6397 -2.3731,-2.4511 -0.5758,-0.8325 -1.3786,-1.661 -2.3984,-2.4824 -0.5766,-0.8293 -1.3797,-1.6524 -2.3926,-2.4707 -0.5825,-0.8372 -1.3932,-1.6701 -2.416,-2.4961 -0.5824,-0.8306 -1.3889,-1.655 -2.4004,-2.4747 -0.5834,-0.8321 -1.3884,-1.6612 -2.3984,-2.4824 -0.5847,-0.8335 -1.3939,-1.6598 -2.4024,-2.4824 -0.59,-0.8408 -1.4049,-1.6762 -2.4219,-2.5059 -0.5902,-0.8363 -1.4035,-1.6668 -2.4121,-2.4921 -0.5941,-0.841 -1.4108,-1.676 -2.4238,-2.5059 -0.5966,-0.841 -1.4105,-1.6779 -2.4219,-2.5078 -0.6042,-0.8489 -1.4248,-1.6918 -2.4472,-2.5293 -0.6059,-0.844 -1.4166,-1.6828 -2.4317,-2.5156 -0.6131,-0.8515 -1.4316,-1.6971 -2.457,-2.5371 -0.6075,-0.8363 -1.4089,-1.6689 -2.4102,-2.4942 -0.6144,-0.8497 -1.4303,-1.6948 -2.4472,-2.5332 -0.6141,-0.8448 -1.4257,-1.6839 -2.4336,-2.5176 -0.6209,-0.85417 -1.4435,-1.70205 -2.4629,-2.54489 -0.6198,-0.84703 -1.4357,-1.68954 -2.4434,-2.52539 -0.621,-0.84858 -1.4389,-1.69192 -2.4453,-2.52929 -0.6217,-0.84913 -1.4396,-1.69334 -2.4433,-2.53125 -0.6278,-0.85739 -1.4555,-1.70873 -2.4688,-2.55469 -0.6269,-0.85185 -1.4496,-1.69849 -2.4531,-2.53906 -0.6295,-0.85534 -1.4556,-1.70485 -2.461,-2.54883 -0.634,-0.85967 -1.4648,-1.7143 -2.4746,-2.5625 -0.6336,-0.85596 -1.4625,-1.70617 -2.4648,-2.55078 -0.6342,-0.85632 -1.4635,-1.70581 -2.4629,-2.55078 -0.6388,-0.86288 -1.4747,-1.71896 -2.4805,-2.57032 -0.6477,-0.87162 -1.4896,-1.73777 -2.5078,-2.59765 -0.6482,-0.865 -1.4791,-1.7247 -2.4883,-2.57813 -0.6497,-0.86424 -1.4781,-1.72152 -2.4843,-2.57422 -0.6579,-0.87346 -1.4957,-1.74184 -2.5137,-2.60351 -0.6495,-0.85625 -1.4689,-1.70782 -2.4609,-2.55274 -0.6612,-0.87558 -1.506,-1.74562 -2.5215,-2.60937 -0.654,-0.86042 -1.484,-1.71546 -2.4766,-2.56445 -0.6602,-0.87166 -1.5018,-1.73771 -2.5059,-2.59766 -0.6581,-0.86696 -1.4993,-1.7286 -2.4941,-2.58399 -0.6593,-0.86959 -1.5037,-1.73188 -2.498,-2.58984 -0.6646,-0.87663 -1.5183,-1.74652 -2.5196,-2.61133 -0.6633,-0.87252 -1.5144,-1.73879 -2.5078,-2.59961 -0.6622,-0.87094 -1.5124,-1.7364 -2.5,-2.5957 -0.6635,-0.87436 -1.5199,-1.74088 -2.5078,-2.60352 -0.6693,-0.88233 -1.5352,-1.75849 -2.5312,-2.6289 -0.6709,-0.88156 -1.5399,-1.75536 -2.5333,-2.625 -0.6728,-0.88253 -1.5386,-1.75831 -2.5312,-2.62891 -0.6801,-0.89005 -1.5531,-1.77443 -2.5547,-2.65234 -0.6783,-0.88308 -1.5458,-1.75778 -2.5371,-2.62891 -0.6806,-0.8854 -1.5473,-1.76528 -2.5391,-2.63867 -0.6815,-0.88547 -1.5459,-1.76326 -2.5351,-2.63672 -0.6908,-0.89701 -1.5655,-1.7872 -2.5684,-2.67187 -0.6893,-0.8899 -1.5577,-1.77263 -2.5508,-2.65039 -0.6898,-0.8893 -1.5552,-1.77127 -2.5449,-2.64844 -0.6991,-0.90077 -1.5749,-1.79526 -2.5781,-2.68359 -0.6968,-0.89281 -1.5646,-1.77958 -2.5566,-2.66016 -0.6968,-0.8921 -1.5626,-1.77635 -2.5508,-2.65625 -0.7181,-0.91987 -1.6086,-1.8314 -2.6328,-2.73828 -0.7044,-0.89107 -1.5606,-1.77738 -2.5489,-2.65625 -0.7257,-0.91987 -1.6023,-1.83338 -2.6269,-2.74024 -0.7202,-0.90264 -1.5833,-1.79936 -2.5879,-2.68945 -0.7119,-0.89069 -1.5631,-1.77582 -2.5488,-2.6543 -0.7223,-0.90725 -1.5928,-1.80854 -2.5957,-2.70312 -0.724,-0.90658 -1.5969,-1.80725 -2.5977,-2.70117 -0.7134,-0.89184 -1.5744,-1.77667 -2.5527,-2.65625 -0.7243,-0.91016 -1.6028,-1.81353 -2.5996,-2.71094 -0.7213,-0.90463 -1.5966,-1.80133 -2.584,-2.69336 -0.7199,-0.90366 -1.5959,-1.80031 -2.5782,-2.69141 -0.7341,-0.92351 -1.6357,-1.83961 -2.6406,-2.75 -0.73,-0.91291 -1.6161,-1.81867 -2.6074,-2.71875 -0.7471,-0.93373 -1.657,-1.85901 -2.6738,-2.77929 -0.7456,-0.92392 -1.6284,-1.84123 -2.6348,-2.75196 -0.7308,-0.90203 -1.5958,-1.79805 -2.5723,-2.6875 -0.7544,-0.93621 -1.6484,-1.86641 -2.664,-2.78906 -0.7358,-0.90643 -1.6083,-1.80551 -2.586,-2.69922 -0.7482,-0.92611 -1.6371,-1.84498 -2.6347,-2.75781 -0.7529,-0.93008 -1.6473,-1.85286 -2.6485,-2.76953 -0.7648,-0.94198 -1.6655,-1.87845 -2.6816,-2.80664 -0.7726,-0.94505 -1.6634,-1.88332 -2.6855,-2.81446 -0.7746,-0.94069 -1.6612,-1.8739 -2.6797,-2.80078 -0.7664,-0.92626 -1.6389,-1.84692 -2.6387,-2.75976 -0.7754,-0.93789 -1.6623,-1.86885 -2.6738,-2.79297 -0.7615,-0.91881 -1.628,-1.83269 -2.6133,-2.73828 -0.7752,-0.93939 -1.6638,-1.87132 -2.6699,-2.79688 -0.7817,-0.9454 -1.6771,-1.88503 -2.6895,-2.8164 -0.7638,-0.92066 -1.6374,-1.83485 -2.6172,-2.74219 -0.7795,-0.9447 -1.6738,-1.88378 -2.6777,-2.81445 -0.7757,-0.93827 -1.6681,-1.86857 -2.6621,-2.79297 -0.7851,-0.95026 -1.6874,-1.89406 -2.6934,-2.83008 -0.7685,-0.92791 -1.6525,-1.84935 -2.6289,-2.76367 -0.7846,-0.95196 -1.6891,-1.89634 -2.6894,-2.83399 -0.7857,-0.95153 -1.6913,-1.89677 -2.6895,-2.83398 -0.8117,-0.98169 -1.7466,-1.95548 -2.7812,-2.92188 -0.8148,-0.97625 -1.7318,-1.94519 -2.7637,-2.90625 -0.7975,-0.94878 -1.6877,-1.89179 -2.6875,-2.82617 -0.8016,-0.95494 -1.6976,-1.90341 -2.7012,-2.84375 -0.8034,-0.95712 -1.7035,-1.90718 -2.707,-2.84961 -0.8044,-0.95868 -1.7048,-1.9096 -2.7071,-2.85351 -0.814,-0.97056 -1.7282,-1.93329 -2.7421,-2.88868 -0.7937,-0.94387 -1.6822,-1.88105 -2.6621,-2.81054 -0.812,-0.97073 -1.7264,-1.93317 -2.7325,-2.88867 -0.8051,-0.96141 -1.7122,-1.91489 -2.705,-2.86133 -0.8165,-0.97662 -1.7369,-1.94511 -2.7442,-2.90625 -0.7986,-0.95385 -1.7016,-1.89884 -2.6797,-2.83789 -0.8549,-1.02579 -1.82,-2.04215 -2.8789,-3.05078 -0.8474,-1.00378 -1.7865,-1.9991 -2.8262,-2.98633 -0.8153,-0.95953 -1.7088,-1.91307 -2.6972,-2.85742 -0.8326,-0.98424 -1.7519,-1.96145 -2.7637,-2.92969 -0.8259,-0.97575 -1.737,-1.94432 -2.7363,-2.9043 -0.8391,-0.99321 -1.7673,-1.97824 -2.7832,-2.95508 -0.8287,-0.97937 -1.7462,-1.95067 -2.7442,-2.91406 -0.8321,-0.98564 -1.7549,-1.96222 -2.7558,-2.93164 -0.8292,-0.98326 -1.7477,-1.95872 -2.7422,-2.92578 -0.8583,-1.02014 -1.8125,-2.03056 -2.8457,-3.0332 -0.8569,-1.0133 -1.7995,-2.01968 -2.8262,-3.01563 -0.8695,-1.0246 -1.8194,-2.04207 -2.8594,-3.04883 -0.8361,-0.98082 -1.7444,-1.95552 -2.7343,-2.91992 -0.8585,-1.01178 -1.7971,-2.0155 -2.8164,-3.00977 -0.8476,-0.99809 -1.7739,-1.98778 -2.7754,-2.96874 -0.8478,-1.00082 -1.7754,-1.99108 -2.7754,-2.97461 -0.8617,-1.01961 -1.8054,-2.02965 -2.8223,-3.03125 -0.8602,-1.01736 -1.8042,-2.02409 -2.8164,-3.02344 -0.8963,-1.06046 -1.8753,-2.11157 -2.9336,-3.15235 -0.8787,-1.03204 -1.83,-2.05705 -2.8594,-3.07031 -0.8481,-0.99489 -1.7623,-1.98163 -2.748,-2.95898 -0.8949,-1.05625 -1.8669,-2.10228 -2.9141,-3.13867 -0.853,-1.00263 -1.7758,-1.99585 -2.7636,-2.98047 -0.8787,-1.03862 -1.831,-2.06671 -2.8516,-3.08594 -0.8573,-1.01356 -1.7892,-2.01866 -2.7793,-3.01367 -0.9417,-1.11845 -1.9684,-2.22656 -3.0684,-3.32227 -0.8653,-1.0156 -1.7915,-2.02287 -2.7851,-3.01953 -0.8947,-1.05587 -1.8581,-2.10337 -2.8887,-3.13867 -0.8801,-1.03834 -1.8268,-2.06566 -2.8359,-3.08399 -0.8999,-1.06501 -1.8675,-2.12023 -2.9004,-3.16406 -0.8731,-1.03285 -1.8127,-2.05556 -2.8086,-3.06836 -0.9414,-1.11925 -1.9566,-2.22868 -3.0391,-3.32422 -0.8887,-1.04858 -1.8375,-2.08573 -2.8476,-3.11328 -0.9092,-1.07697 -1.8833,-2.14263 -2.918,-3.19726 -0.8945,-1.05999 -1.8496,-2.11026 -2.8633,-3.14844 -0.8948,-1.06412 -1.8527,-2.11621 -2.8652,-3.1582 -0.9407,-1.12256 -1.9469,-2.23235 -3.0156,-3.33008 -0.9224,-1.09607 -1.9074,-2.17983 -2.9493,-3.25195 -0.9009,-1.07102 -1.8582,-2.13173 -2.8711,-3.17969 -0.9069,-1.08294 -1.8717,-2.1537 -2.8906,-3.21289 -0.9467,-1.13436 -1.9527,-2.25523 -3.0195,-3.36328 -0.9284,-1.10953 -1.9162,-2.20501 -2.957,-3.28907 -0.9161,-1.09636 -1.8867,-2.1807 -2.9102,-3.25195 -0.9153,-1.09948 -1.8853,-2.18577 -2.9062,-3.25977 -0.9405,-1.13415 -1.936,-2.25456 -2.9864,-3.36132 -0.9494,-1.14547 -1.9586,-2.27737 -3.0176,-3.39453 -0.922,-1.11227 -1.8948,-2.21162 -2.9179,-3.29688 -0.9427,-1.14216 -1.9376,-2.27138 -2.9844,-3.38477 -0.9508,-1.15401 -1.9532,-2.29371 -3.0078,-3.41796 -0.9365,-1.13788 -1.9258,-2.26255 -2.9609,-3.3711 -0.9319,-1.13642 -1.9134,-2.25841 -2.9415,-3.36523 -0.9474,-1.16057 -1.9428,-2.30624 -2.9882,-3.43555 -0.9578,-1.17641 -1.9693,-2.33663 -3.0254,-3.48047 -0.9402,-1.15674 -1.9298,-2.2971 -2.9629,-3.42187 -0.9554,-1.18086 -1.9559,-2.34707 -3.0059,-3.49414 -0.9618,-1.19226 -1.9733,-2.36812 -3.0293,-3.52539 -0.9398,-1.16774 -1.927,-2.31949 -2.955,-3.45313 -0.9437,-1.17907 -1.9295,-2.34253 -2.961,-3.48633 -0.973,-1.22238 -1.9952,-2.42552 -3.0605,-3.60937 -0.9489,-1.19418 -1.9435,-2.36868 -2.9785,-3.52539 -0.9386,-1.18746 -1.9158,-2.35801 -2.9376,-3.50782 -0.9852,-1.25556 -2.0232,-2.48844 -3.0996,-3.70117 -0.94,-1.19896 -1.92,-2.37999 -2.9414,-3.53906 -0.9453,-1.21456 -1.9339,-2.40716 -2.9609,-3.58008 -0.9863,-1.27575 -2.0311,-2.5211 -3.1055,-3.75 -0.9153,-1.18572 -1.8712,-2.34981 -2.8613,-3.49414 -0.9638,-1.26222 -1.967,-2.50229 -3.0137,-3.7168 -0.9645,-1.2689 -1.959,-2.52068 -3.0058,-3.74023 -0.9345,-1.23533 -1.9127,-2.44339 -2.9239,-3.63086 -0.9527,-1.27031 -1.9537,-2.50989 -2.9863,-3.72852 -0.95,-1.27437 -1.9396,-2.52307 -2.9687,-3.74414 -0.9354,-1.26289 -1.9001,-2.50558 -2.9121,-3.71484 -0.9272,-1.26234 -1.8898,-2.49956 -2.8926,-3.70703 -0.9341,-1.28361 -1.9183,-2.53035 -2.9297,-3.75586 -0.9178,-1.27112 -1.8761,-2.51194 -2.8692,-3.72461 -13.7696,-19.2609 -36.2984,-31.85156 -61.7246,-31.85156 h -0.012 -794.9883 z"
     style="fill:#000001;fill-opacity:0.247059;stroke-width:0.875024"
     id="path1379" /><g
     transform="translate(102.10101,68.506477)"
     style="fill:#000000"
     id="g372"><g
       style="fill:#000000"
       id="g323"><g
         style="fill:#000000"
         id="g275"><g
           style="fill:#000000"
           id="g177"
           transform="matrix(2.7205178,0,0,2.7205178,391.42522,425.0184)"><g
             style="fill:#000000"
             id="g119">
	<path
   style="fill:#000000"
   id="path113"
   d="m 145.407,248.988 -2.775,26.209 c -0.224,2.115 0.46,4.225 1.883,5.806 1.422,1.581 3.449,2.483 5.576,2.483 h 79.301 c 2.126,0 4.153,-0.903 5.576,-2.483 1.422,-1.581 2.106,-3.691 1.883,-5.806 l -2.775,-26.209 h 98.777 c 15.374,0 27.881,-12.507 27.881,-27.881 V 27.881 C 360.733,12.507 348.225,0 332.852,0 H 40.63 C 25.256,0 12.749,12.507 12.749,27.881 v 193.226 c 0,15.374 12.507,27.881 27.881,27.881 z m 75.648,19.499 h -62.629 l 2.064,-19.499 h 58.5 z M 40.63,15 h 292.222 c 7.103,0 12.881,5.778 12.881,12.881 V 197.99 H 27.749 V 27.881 C 27.749,20.778 33.527,15 40.63,15 Z M 27.749,221.107 v -8.117 h 317.983 v 8.117 c 0,7.103 -5.778,12.881 -12.881,12.881 H 40.63 c -7.103,0 -12.881,-5.778 -12.881,-12.881 z" />
	<path
   style="fill:#000000"
   id="path115"
   d="m 332.645,333.876 c 1.36,-2.24 1.453,-5.027 0.244,-7.352 l -14.813,-28.499 c -1.291,-2.483 -3.856,-4.041 -6.655,-4.041 H 62.061 c -2.798,0 -5.364,1.558 -6.655,4.041 l -14.813,28.499 c -1.208,2.325 -1.116,5.112 0.244,7.352 1.36,2.24 3.791,3.607 6.411,3.607 h 278.986 c 2.62,10e-4 5.051,-1.367 6.411,-3.607 z M 59.599,322.484 66.615,308.985 h 240.251 l 7.017,13.499 z" />
	<path
   style="fill:#000000"
   id="path117"
   d="m 345.733,350.982 h -12 c -17.368,0 -31.499,14.13 -31.499,31.499 0,4.142 3.358,7.5 7.5,7.5 h 59.997 c 4.142,0 7.5,-3.358 7.5,-7.5 0.001,-17.368 -14.129,-31.499 -31.498,-31.499 z m -26.693,23.999 c 2.735,-5.337 8.295,-8.999 14.693,-8.999 h 12 c 6.398,0 11.958,3.662 14.694,8.999 z" />
</g><g
             style="fill:#000000"
             id="g121">
</g><g
             style="fill:#000000"
             id="g123">
</g><g
             style="fill:#000000"
             id="g125">
</g><g
             style="fill:#000000"
             id="g127">
</g><g
             style="fill:#000000"
             id="g129">
</g><g
             style="fill:#000000"
             id="g131">
</g><g
             style="fill:#000000"
             id="g133">
</g><g
             style="fill:#000000"
             id="g135">
</g><g
             style="fill:#000000"
             id="g137">
</g><g
             style="fill:#000000"
             id="g139">
</g><g
             style="fill:#000000"
             id="g141">
</g><g
             style="fill:#000000"
             id="g143">
</g><g
             style="fill:#000000"
             id="g145">
</g><g
             style="fill:#000000"
             id="g147">
</g><g
             style="fill:#000000"
             id="g149">
</g></g><g
           style="fill:#000000"
           transform="matrix(0.87502361,0,0,0.87502361,723.89299,490.83591)"
           id="g151"><g
             style="fill:#000000"
             id="g88">
	<g
   style="fill:#000000"
   id="g86">
		<g
   style="fill:#000000"
   id="g84">
			<path
   style="fill:#000000"
   d="M 265.334,201.007 V 158.39 c 0,-7.055 -5.72,-12.773 -12.773,-12.773 H 142.56 c -7.053,0 -12.773,5.719 -12.773,12.773 v 42.617 C 103.191,213.171 80.448,232.2 63.64,256.44 44.707,283.744 34.7,315.799 34.7,349.139 34.7,438.941 107.759,512 197.561,512 c 89.802,0 162.861,-73.059 162.861,-162.861 0,-33.34 -10.007,-65.395 -28.939,-92.699 -16.81,-24.24 -39.552,-43.269 -66.149,-55.433 z m -67.773,285.446 c -75.714,0 -137.314,-61.598 -137.314,-137.314 0,-56.814 34.147,-106.98 86.996,-127.806 4.882,-1.924 8.091,-6.637 8.091,-11.884 v -38.286 h 84.454 v 38.287 c 0,5.247 3.209,9.961 8.091,11.884 52.849,20.824 86.996,70.992 86.996,127.806 0,75.715 -61.6,137.313 -137.314,137.313 z"
   id="path72" />
			<path
   style="fill:#000000"
   d="m 156.608,245.102 c -43.02,16.952 -70.814,57.789 -70.814,104.037 0,7.055 5.72,12.773 12.773,12.773 7.053,0 12.773,-5.719 12.773,-12.773 0,-35.684 21.445,-67.191 54.633,-80.269 6.564,-2.587 9.787,-10.004 7.202,-16.567 -2.585,-6.563 -10.003,-9.786 -16.567,-7.201 z"
   id="path74" />
			<path
   style="fill:#000000"
   d="m 311.458,0 h -31.083 c -52.707,0 -95.587,42.88 -95.587,95.587 v 11.709 c 0,7.055 5.72,12.773 12.773,12.773 7.053,0 12.773,-5.719 12.773,-12.773 V 95.587 c 0,-38.62 31.42,-70.04 70.04,-70.04 h 31.083 c 38.62,0 70.04,31.42 70.04,70.04 v 11.709 c 0,7.055 5.72,12.773 12.773,12.773 7.054,0 12.773,-5.719 12.773,-12.773 V 95.587 C 407.045,42.88 364.164,0 311.458,0 Z"
   id="path76" />
			<path
   style="fill:#000000"
   d="m 394.271,145.617 c -7.053,0 -12.773,5.719 -12.773,12.773 v 39.598 c 0,7.055 5.72,12.773 12.773,12.773 7.054,0 12.773,-5.719 12.773,-12.773 V 158.39 c 0.001,-7.055 -5.719,-12.773 -12.773,-12.773 z"
   id="path78" />
			<path
   style="fill:#000000"
   d="m 475.225,183.082 -19.16,-29.394 c -3.852,-5.91 -11.764,-7.578 -17.676,-3.726 -5.91,3.852 -7.578,11.766 -3.725,17.676 l 19.16,29.394 c 2.449,3.757 6.539,5.799 10.713,5.799 2.391,0 4.81,-0.671 6.963,-2.074 5.911,-3.851 7.578,-11.764 3.725,-17.675 z"
   id="path80" />
			<path
   style="fill:#000000"
   d="m 317.042,200.758 c 2.154,1.404 4.572,2.074 6.963,2.074 4.174,0 8.264,-2.042 10.713,-5.799 l 19.16,-29.394 c 3.854,-5.91 2.185,-13.823 -3.725,-17.676 -5.911,-3.854 -13.825,-2.183 -17.676,3.726 l -19.16,29.394 c -3.853,5.91 -2.185,13.823 3.725,17.675 z"
   id="path82" />
		</g>
	</g>
</g><g
             style="fill:#000000"
             id="g90">
</g><g
             style="fill:#000000"
             id="g92">
</g><g
             style="fill:#000000"
             id="g94">
</g><g
             style="fill:#000000"
             id="g96">
</g><g
             style="fill:#000000"
             id="g98">
</g><g
             style="fill:#000000"
             id="g100">
</g><g
             style="fill:#000000"
             id="g102">
</g><g
             style="fill:#000000"
             id="g104">
</g><g
             style="fill:#000000"
             id="g106">
</g><g
             style="fill:#000000"
             id="g108">
</g><g
             style="fill:#000000"
             id="g110">
</g><g
             style="fill:#000000"
             id="g112">
</g><g
             style="fill:#000000"
             id="g114">
</g><g
             style="fill:#000000"
             id="g116">
</g><g
             style="fill:#000000"
             id="g118">
</g></g></g></g></g></g></svg>
