<?xml version="1.0" encoding="UTF-8" standalone="no"?>
<svg
   xmlns:dc="http://purl.org/dc/elements/1.1/"
   xmlns:cc="http://creativecommons.org/ns#"
   xmlns:rdf="http://www.w3.org/1999/02/22-rdf-syntax-ns#"
   xmlns:svg="http://www.w3.org/2000/svg"
   xmlns="http://www.w3.org/2000/svg"
   xmlns:sodipodi="http://sodipodi.sourceforge.net/DTD/sodipodi-0.dtd"
   xmlns:inkscape="http://www.inkscape.org/namespaces/inkscape"
   sodipodi:docname="softeng.svg"
   inkscape:version="1.0 (4035a4fb49, 2020-05-01)"
   inkscape:export-ydpi="96"
   inkscape:export-xdpi="96"
   inkscape:export-filename="C:\Users\linos\softeng.png"
   width="67.733337mm"
   height="67.733337mm"
   viewBox="0 0 67.733338 67.733338"
   version="1.1"
   id="svg8">
  <defs
     id="defs2" />
  <sodipodi:namedview
     fit-margin-bottom="0"
     fit-margin-right="0"
     fit-margin-left="0"
     fit-margin-top="0"
     inkscape:window-maximized="1"
     inkscape:window-y="-9"
     inkscape:window-x="-9"
     inkscape:window-height="1013"
     inkscape:window-width="1920"
     showgrid="false"
     inkscape:document-rotation="0"
     inkscape:current-layer="layer1"
     inkscape:document-units="mm"
     inkscape:cy="940.80885"
     inkscape:cx="1153.8648"
     inkscape:zoom="0.24748737"
     inkscape:pageshadow="2"
     inkscape:pageopacity="0.0"
     borderopacity="1.0"
     bordercolor="#666666"
     pagecolor="#ffffff"
     id="base" />
  <metadata
     id="metadata5">
    <rdf:RDF>
      <cc:Work
         rdf:about="">
        <dc:format>image/svg+xml</dc:format>
        <dc:type
           rdf:resource="http://purl.org/dc/dcmitype/StillImage" />
        <dc:title />
        <cc:license
           rdf:resource="http://creativecommons.org/licenses/by-sa/4.0/" />
      </cc:Work>
      <cc:License
         rdf:about="http://creativecommons.org/licenses/by-sa/4.0/">
        <cc:permits
           rdf:resource="http://creativecommons.org/ns#Reproduction" />
        <cc:permits
           rdf:resource="http://creativecommons.org/ns#Distribution" />
        <cc:requires
           rdf:resource="http://creativecommons.org/ns#Notice" />
        <cc:requires
           rdf:resource="http://creativecommons.org/ns#Attribution" />
        <cc:permits
           rdf:resource="http://creativecommons.org/ns#DerivativeWorks" />
        <cc:requires
           rdf:resource="http://creativecommons.org/ns#ShareAlike" />
      </cc:License>
    </rdf:RDF>
  </metadata>
  <g
     transform="translate(176.13693,58.964287)"
     id="layer1"
     inkscape:groupmode="layer"
     inkscape:label="Livello 1">
    <g
       transform="matrix(0.12500001,0,0,0.12500001,-154.11981,-51.593751)"
       id="g83">
      <rect
         style="fill:#00e676;stroke-width:0.264583"
         id="rect10"
         width="541.86664"
         height="541.86664"
         x="-176.13693"
         y="-58.964287" />
      <path
         id="path2491"
         style="fill:#000001;fill-opacity:0.247059;stroke-width:0.374106"
         d="m -239.52539,384 c -45.90161,0 -82.85547,36.95701 -82.85547,82.85938 v 598.56642 0 69.998 0 c 6.5e-4,26.224 12.07422,49.5134 30.97461,64.6738 1.08778,0.9731 2.20507,1.913 3.34375,2.8281 1.11831,1.0023 2.26919,1.9674 3.44141,2.9082 1.1102,0.9937 2.25082,1.9536 3.41406,2.8868 1.09281,0.9774 2.2152,1.9209 3.35937,2.8398 1.10505,0.9894 2.24082,1.9435 3.39844,2.8731 1.09328,0.9784 2.21661,1.922 3.36133,2.8417 1.1073,0.9918 2.24614,1.9474 3.40625,2.879 1.09392,0.9789 2.21786,1.9235 3.36328,2.8437 1.10021,0.985 2.23048,1.9357 3.38281,2.8613 1.09802,0.9827 2.22705,1.93 3.37696,2.8536 1.10025,0.9844 2.23047,1.9342 3.38281,2.8593 1.08944,0.9744 2.20717,1.9159 3.34766,2.8321 1.09705,0.9817 2.22419,1.9288 3.37304,2.8515 1.09768,0.9818 2.2255,1.9308 3.375,2.8535 1.0895,0.9739 2.20909,1.9144 3.34961,2.8301 1.09174,0.9761 2.2125,1.9184 3.35547,2.8359 1.07809,0.9637 2.18444,1.8961 3.3125,2.8028 1.10151,0.9856 2.233,1.9371 3.38672,2.8633 1.08415,0.9688 2.19738,1.9051 3.33203,2.8164 1.08586,0.9706 2.1994,1.9075 3.33594,2.8203 1.09229,0.9763 2.21386,1.92 3.35742,2.8379 1.06835,0.9541 2.16388,1.8771 3.28125,2.7754 1.08703,0.9723 2.20393,1.9098 3.3418,2.8242 1.09656,0.9803 2.22285,1.9282 3.37109,2.8496 1.0655,0.9511 2.15726,1.872 3.27148,2.7676 1.08712,0.9719 2.20389,1.9102 3.3418,2.8242 1.07322,0.9586 2.17419,1.8849 3.29688,2.7871 1.08055,0.9657 2.18958,1.8982 3.32031,2.8066 1.07073,0.9566 2.16908,1.8809 3.28906,2.7813 1.08478,0.9696 2.19863,1.9065 3.33399,2.8183 1.0693,0.9548 2.16676,1.8766 3.28515,2.7754 1.07591,0.9612 2.17906,1.8905 3.30469,2.795 1.06626,0.9522 2.16031,1.873 3.27539,2.7695 1.07443,0.9601 2.17675,1.8875 3.30078,2.791 1.06969,0.9554 2.16633,1.88 3.28516,2.7793 1.07665,0.9616 2.18216,1.8901 3.30859,2.7949 1.06757,0.9527 2.16283,1.8746 3.2793,2.7715 1.05843,0.9445 2.1435,1.8584 3.25,2.7481 1.07216,0.9575 2.17144,1.8839 3.29297,2.7851 1.05838,0.9446 2.14354,1.8583 3.25,2.7481 1.07816,0.9627 2.18443,1.8949 3.3125,2.8007 1.04509,0.9319 2.11511,1.8345 3.20703,2.7129 1.07976,0.9645 2.18854,1.8955 3.31836,2.8028 1.05894,0.944 2.143,1.8589 3.25,2.748 1.05164,0.9376 2.12947,1.845 3.22851,2.7285 1.04813,0.9352 2.12154,1.8413 3.2168,2.7227 1.06737,0.9532 2.163,1.874 3.2793,2.7715 1.05758,0.9435 2.14249,1.8553 3.24804,2.7441 1.05322,0.9395 2.13164,1.8492 3.23243,2.7344 1.0554,0.9415 2.13705,1.8532 3.24023,2.7402 1.05323,0.9393 2.13358,1.8474 3.23438,2.7324 1.05523,0.9411 2.13724,1.8518 3.24023,2.7383 1.04756,0.9339 2.12025,1.8386 3.21484,2.7188 1.05476,0.9405 2.13584,1.8522 3.23828,2.7383 1.04539,0.9315 2.11678,1.8347 3.20899,2.7128 1.04923,0.9353 2.1243,1.8413 3.2207,2.7227 1.04372,0.9302 2.11273,1.8321 3.20313,2.709 1.04552,0.932 2.11662,1.8343 3.208981,2.7129 1.041002,0.9278 2.107869,1.8264 3.195313,2.7011 1.057868,0.9432 2.142219,1.8558 3.248047,2.7442 1.033387,0.9199 2.090837,1.8119 3.169921,2.6797 1.040658,0.9272 2.106313,1.825 3.19336,2.6992 1.044511,0.9307 2.113837,1.8336 3.205078,2.7109 1.027985,0.9155 2.07911,1.8042 3.152344,2.668 1.043417,0.9301 2.113041,1.8301 3.203125,2.707 1.045446,0.9314 2.11673,1.833 3.208984,2.711 1.03222,0.9187 2.088208,1.811 3.166016,2.6777 1.042374,0.9281 2.110346,1.8281 3.199219,2.7031 1.024169,0.9112 2.071597,1.7964 3.140624,2.6563 1.03954,0.9256 2.103662,1.8245 3.189454,2.6972 1.025465,0.9124 2.076043,1.7972 3.146484,2.6583 1.030009,0.9168 2.082787,1.8086 3.158203,2.6738 1.036529,0.9228 2.099137,1.8152 3.181641,2.6855 1.01435,0.9023 2.05102,1.7788 3.109375,2.6309 1.036941,0.9237 2.098653,1.8203 3.18164,2.6914 1.029231,0.9158 2.083666,1.8039 3.158203,2.668 1.031702,0.9177 2.086859,1.808 3.164063,2.6738 1.003693,0.8921 2.029429,1.7586 3.076172,2.6016 1.031115,0.9182 2.085465,1.8093 3.162109,2.6757 1.031106,0.9175 2.087483,1.8063 3.164063,2.6719 1.015782,0.903 2.053408,1.7802 3.113281,2.6328 1.01655,0.9041 2.056454,1.7811 3.117188,2.6348 1.011655,0.9 2.046126,1.773 3.101562,2.623 1.031322,0.9182 2.087224,1.8077 3.164062,2.6739 1.014894,0.9021 2.052425,1.7789 3.111329,2.6308 1.012569,0.9002 2.047127,1.7749 3.103515,2.625 1.014963,0.9025 2.052328,1.7786 3.1113284,2.6309 1.0128705,0.9005 2.0487477,1.7745 3.1054687,2.625 1.0184332,0.9055 2.0602853,1.7838 3.1230469,2.6386 1.00430923,0.8924 2.03073381,1.7585 3.078125,2.6016 1.0050246,0.8935 2.0318748,1.7612 3.0800781,2.6055 1.0184805,0.9059 2.0602106,1.7853 3.1230469,2.6406 1.0085911,0.8962 2.0397556,1.7667 3.091797,2.6133 1.007424,0.8951 2.037123,1.7657 3.087891,2.6113 1.009224,0.8966 2.041035,1.7683 3.09375,2.6153 0.9965,0.8848 2.013843,1.7455 3.052734,2.582 1.003376,0.8916 2.029784,1.757 3.076172,2.5996 1.010005,0.8975 2.042124,1.7694 3.095703,2.6172 0.993412,0.8821 2.00743,1.7402 3.042969,2.5742 1.005907,0.8939 2.034853,1.7609 3.083984,2.6055 0.995866,0.8843 2.012575,1.744 3.050781,2.58 0.999224,0.8877 2.020636,1.749 3.0625,2.5879 1.006496,0.894 2.034242,1.7648 3.083985,2.6094 0.991352,0.8797 2.003841,1.7346 3.037109,2.5664 0.996,0.8842 2.012453,1.7443 3.050781,2.5801 1.004823,0.8919 2.03219,1.7589 3.080078,2.6016 0.977512,0.8666 1.973956,1.7111 2.992188,2.5312 0.991299,0.8802 2.003864,1.7361 3.037109,2.5684 0.993731,0.8823 2.009042,1.74 3.044922,2.5742 0.988796,0.8776 1.998785,1.7306 3.029297,2.5605 0.986431,0.8756 1.993531,1.7266 3.021484,2.5547 0.996924,0.885 2.015355,1.7455 3.054688,2.5821 0.97972,0.8687 1.979361,1.715 3,2.5371 0.99799,0.8856 2.018127,1.7468 3.058594,2.5839 0.975666,0.8647 1.970115,1.7071 2.986328,2.5254 0.985975,0.8745 1.992112,1.7256 3.019531,2.5528 0.971515,0.8614 1.962862,1.7002 2.974609,2.5156 0.995707,0.8838 2.01278,1.7426 3.050782,2.5781 0.968469,0.8583 1.956417,1.6933 2.964843,2.5059 0.987693,0.8762 1.996098,1.7299 3.025391,2.5586 0.965511,0.8557 1.949845,1.6896 2.955078,2.5 0.993056,0.8812 2.007851,1.7371 3.042969,2.5703 0.959887,0.8503 1.938373,1.6789 2.937503,2.4844 0.98622,0.875 1.99378,1.7251 3.02148,2.5527 0.97505,0.864 1.96884,1.7077 2.98438,2.5254 0.97215,0.8613 1.96416,1.7003 2.97656,2.5156 0.96716,0.8569 1.95395,1.6906 2.96094,2.502 0.97148,0.861 1.96096,1.7005 2.97265,2.5156 0.97162,0.861 1.96279,1.6986 2.97461,2.5137 0.95402,0.8451 1.92714,1.6679 2.91992,2.4687 0.98349,0.8724 1.98699,1.7216 3.01172,2.5469 0.96307,0.8529 1.94472,1.6844 2.94727,2.4922 0.95955,0.85 1.93875,1.6772 2.9375,2.4824 0.97866,0.8673 1.97663,1.7126 2.99609,2.5332 0.95193,0.8423 1.92164,1.6647 2.91211,2.4629 0.96458,0.8544 1.94894,1.685 2.95313,2.4941 0.96123,0.8512 1.94085,1.6802 2.9414,2.4864 0.96128,0.851 1.94081,1.6821 2.94141,2.4882 0.95817,0.8482 1.93441,1.675 2.93164,2.4786 0.9543,0.8446 1.92688,1.6683 2.91992,2.4687 0.96457,0.854 1.94702,1.6854 2.95117,2.4941 0.94755,0.8382 1.91272,1.6567 2.89844,2.4512 0.96117,0.8509 1.94094,1.6804 2.94141,2.4863 0.94641,0.8372 1.91003,1.6557 2.89453,2.4493 0.9632,0.8525 1.94655,1.6828 2.94922,2.4902 0.93516,0.8267 1.88704,1.6337 2.85937,2.418 0.9576,0.8479 1.93307,1.6752 2.92969,2.4785 0.94735,0.8381 1.91293,1.6548 2.89844,2.4492 0.95676,0.8465 1.93204,1.6727 2.92773,2.4746 0.94446,0.8348 1.90633,1.65 2.88867,2.4414 0.93769,0.8289 1.89214,1.6396 2.86719,2.4258 0.95367,0.8437 1.92563,1.6673 2.91797,2.4668 0.94238,0.8329 1.90076,1.6458 2.88086,2.4355 0.93904,0.8301 1.89459,1.6406 2.87109,2.4278 0.93999,0.8311 1.89747,1.6415 2.875,2.4297 0.95553,0.8449 1.92756,1.6701 2.92188,2.4707 0.92384,0.8156 1.86416,1.6125 2.82422,2.3867 0.94341,0.8341 1.90353,1.6486 2.88476,2.4394 0.9279,0.8199 1.87147,1.6224 2.83594,2.4004 0.94414,0.835 1.90664,1.6479 2.88867,2.4395 0.93691,0.8279 1.89105,1.6366 2.86524,2.4219 0.93099,0.8224 1.8779,1.6259 2.8457,2.4062 0.93274,0.8241 1.88187,1.6302 2.85156,2.4121 0.93466,0.8257 1.88567,1.6327 2.85742,2.416 0.92429,0.8164 1.86563,1.612 2.82617,2.3867 0.93719,0.8282 1.89075,1.6384 2.86524,2.4239 0.92656,0.8181 1.86905,1.6181 2.83203,2.3945 0.92422,0.8161 1.86375,1.6141 2.82422,2.3887 0.92616,0.818 1.86946,1.6162 2.83203,2.3926 0.92727,0.8189 1.87023,1.6192 2.83398,2.3964 0.92619,0.8178 1.8675,1.6165 2.83008,2.3926 0.91924,0.8114 1.85352,1.6046 2.8086,2.375 0.93046,0.8217 1.87655,1.6247 2.84375,2.4043 0.91408,0.8064 1.84346,1.5935 2.79297,2.3594 0.91474,0.8075 1.84467,1.5984 2.79492,2.3652 0.92795,0.8196 1.87143,1.6207 2.83594,2.3985 0.90768,0.8008 1.8308,1.5829 2.77343,2.3437 0.91787,0.8105 1.85107,1.6034 2.80469,2.3731 0.92394,0.8157 1.86405,1.6124 2.82422,2.3867 0.90969,0.8024 1.83452,1.5873 2.7793,2.3496 0.91698,0.8092 1.85008,1.5988 2.80273,2.3672 0.90553,0.7987 1.82533,1.5809 2.76563,2.3398 0.92202,0.8138 1.86027,1.6084 2.81835,2.3809 0.90693,0.7995 1.82777,1.5822 2.76954,2.3418 0.908,0.8007 1.83049,1.585 2.77343,2.3457 0.91414,0.8061 1.84342,1.5937 2.79297,2.3594 0.90082,0.7938 1.81482,1.5717 2.75,2.3261 0.90598,0.7989 1.82682,1.5808 2.76758,2.3399 0.90365,0.7966 1.82152,1.5769 2.75977,2.334 0.91606,0.8077 1.84721,1.5982 2.79882,2.3652 0.8911,0.7846 1.79601,1.5527 2.72071,2.2988 0.89922,0.7926 1.81262,1.5689 2.74609,2.3223 0.90359,0.7966 1.82159,1.5769 2.75977,2.334 0.89917,0.7923 1.81268,1.5691 2.74609,2.3222 0.90164,0.7945 1.81785,1.5731 2.75391,2.3282 0.8872,0.7814 1.78845,1.5457 2.70898,2.289 0.90296,0.7961 1.82031,1.5755 2.75781,2.3321 0.89938,0.7923 1.81248,1.5691 2.7461,2.3222 0.88797,0.7819 1.7896,1.5473 2.71093,2.291 0.89861,0.7917 1.81135,1.5678 2.74415,2.3203 0.88817,0.782 1.78938,1.5493 2.71093,2.293 0.89608,0.7892 1.80628,1.5622 2.73633,2.3125 0.88128,0.7756 1.77533,1.5355 2.68945,2.2735 0.89869,0.7915 1.81127,1.5679 2.74414,2.3203 0.86164,0.758 1.73588,1.5005 2.62891,2.2226 0.90667,0.7997 1.82801,1.582 2.76953,2.3418 0.88616,0.78 1.78571,1.5452 2.70508,2.2871 0.88178,0.7761 1.77675,1.537 2.69141,2.2754 0.88548,0.7794 1.78448,1.5438 2.70312,2.2852 0.87809,0.7726 1.769,1.5303 2.67969,2.2656 0.88218,0.7765 1.77826,1.5366 2.69336,2.2754 0.87464,0.7697 1.76098,1.5251 2.66797,2.2578 0.88714,0.781 1.78854,1.5462 2.70898,2.2891 0.87826,0.7724 1.76883,1.5305 2.67969,2.2656 0.88036,0.7743 1.77439,1.5328 2.6875,2.2695 0.8614,0.7572 1.73421,1.5014 2.62695,2.2227 0.88477,0.7788 1.78134,1.5423 2.69922,2.2832 0.88035,0.7741 1.77441,1.5329 2.6875,2.2695 0.85708,0.753 1.72519,1.4936 2.61328,2.2109 0.87755,0.7722 1.76762,1.5289 2.67774,2.2637 0.87556,0.7698 1.76392,1.5251 2.67187,2.2578 0.85197,0.7486 1.71503,1.4838 2.59766,2.1973 0.88061,0.775 1.77408,1.536 2.6875,2.2734 0.86813,0.7631 1.74849,1.5117 2.64843,2.2383 0.85308,0.7497 1.71776,1.4847 2.60157,2.1992 0.88182,0.7758 1.77671,1.5373 2.6914,2.2754 0.85111,0.7475 1.71403,1.481 2.59571,2.1934 0.86491,0.7605 1.74019,1.5081 2.63672,2.2324 0.85747,0.7537 1.72669,1.4928 2.61523,2.2109 0.86628,0.7617 1.74459,1.5091 2.64258,2.2344 0.86211,0.7576 1.73737,1.4991 2.63086,2.2207 0.84768,0.7446 1.70597,1.4758 2.58398,2.1856 0.86457,0.7601 1.74057,1.5065 2.63672,2.2304 0.85179,0.7483 1.71524,1.4822 2.59766,2.1954 0.8709,0.7653 1.75331,1.5174 2.65625,2.246 0.8345,0.7322 1.6791,1.452 2.54297,2.1504 0.86104,0.7568 1.73459,1.4998 2.62695,2.2207 0.86054,0.7557 1.73321,1.497 2.625,2.2168 0.8314,0.7294 1.67266,1.4466 2.5332,2.1426 0.86621,0.7614 1.74468,1.5094 2.64258,2.2344 0.84215,0.7389 1.69436,1.4653 2.56641,2.1699 0.84591,0.7426 1.70203,1.4736 2.57812,2.1817 0.8443,0.7412 1.69984,1.469 2.57422,2.1757 0.85686,0.7524 1.72545,1.4902 2.61328,2.2071 0.83953,0.7362 1.68938,1.4599 2.55859,2.1621 0.82971,0.7279 1.66862,1.444 2.52735,2.1386 0.84942,0.7462 1.70997,1.4782 2.58984,2.1895 0.68595,0.602 1.38694,1.1871 2.0918,1.7676 H 1382.2852 V 728.2832 c -0.4695,-0.39575 -0.9278,-0.80417 -1.4063,-1.18945 -0.9786,-0.86756 -1.9766,-1.71228 -2.9961,-2.5332 -0.978,-0.86711 -1.9754,-1.71268 -2.9941,-2.53321 -0.984,-0.87271 -1.9885,-1.72131 -3.0137,-2.54687 -0.9901,-0.87804 -2.0013,-1.73221 -3.0332,-2.5625 -0.9827,-0.87103 -1.9859,-1.71897 -3.0098,-2.54297 -0.9675,-0.85772 -1.9534,-1.69567 -2.9609,-2.50781 -0.9992,-0.88741 -2.0207,-1.74917 -3.0625,-2.58789 -0.985,-0.87364 -1.9913,-1.72245 -3.0176,-2.54883 -0.9793,-0.86891 -1.9778,-1.71493 -2.998,-2.53711 -1.0088,-0.896 -2.0396,-1.76497 -3.0918,-2.61133 -0.9741,-0.86354 -1.968,-1.70414 -2.9824,-2.52148 -0.9927,-0.88153 -2.0064,-1.73877 -3.0411,-2.57227 -1.0079,-0.89511 -2.0385,-1.7638 -3.0898,-2.60937 -0.9773,-0.86657 -1.9742,-1.7112 -2.9922,-2.53125 -1.0095,-0.89675 -2.0407,-1.7682 -3.0937,-2.61524 -0.986,-0.87454 -1.9922,-1.72555 -3.0196,-2.55273 -0.9955,-0.88408 -2.0129,-1.74238 -3.0508,-2.57813 -1.0086,-0.89584 -2.0397,-1.76705 -3.0918,-2.61328 -0.9921,-0.8804 -2.0029,-1.73788 -3.0371,-2.57031 -0.9986,-0.88684 -2.0193,-1.74968 -3.0605,-2.58789 -1.0033,-0.89119 -2.0299,-1.75556 -3.0762,-2.59766 -1.005,-0.89252 -2.032,-1.76025 -3.0801,-2.60351 -0.9961,-0.88458 -2.0122,-1.74585 -3.0507,-2.58203 -1.0127,-0.89995 -2.049,-1.77314 -3.1055,-2.62305 -0.997,-0.88528 -2.0153,-1.74717 -3.0547,-2.58399 -1.0037,-0.89209 -2.0294,-1.75861 -3.0762,-2.60156 -1.0208,-0.90767 -2.0654,-1.78773 -3.1308,-2.64453 -0.992,-0.88093 -2.0051,-1.73736 -3.0391,-2.57031 -1.0235,-0.91062 -2.0703,-1.79483 -3.1387,-2.6543 -1.0115,-0.89877 -2.0463,-1.77028 -3.1015,-2.61914 -1.0015,-0.88977 -2.0241,-1.75485 -3.0684,-2.5957 -1.0165,-0.90425 -2.0565,-1.78292 -3.1172,-2.63672 -1.0194,-0.90651 -2.0611,-1.7868 -3.125,-2.64258 -1.0079,-0.8959 -2.0385,-1.765 -3.0898,-2.61133 -1.0258,-0.91252 -2.0757,-1.79706 -3.1465,-2.6582 -1.0095,-0.89726 -2.0426,-1.7677 -3.0957,-2.61524 -1.0126,-0.90084 -2.0471,-1.77616 -3.1035,-2.62695 -1.0414,-0.92699 -2.1076,-1.82521 -3.1953,-2.69922 -0.9937,-0.88261 -2.0091,-1.73975 -3.045,-2.57422 -1.0403,-0.92672 -2.1047,-1.82539 -3.1914,-2.69922 -1.0128,-0.90046 -2.0488,-1.77458 -3.1054,-2.625 -1.0269,-0.91399 -2.0784,-1.79961 -3.1504,-2.6621 -1.0228,-0.91011 -2.0692,-1.79333 -3.1367,-2.65235 -1.0321,-0.91869 -2.0884,-1.81108 -3.1661,-2.67773 -1.0243,-0.91131 -2.0733,-1.79423 -3.1425,-2.6543 -1.0274,-0.91427 -2.0779,-1.80134 -3.1504,-2.66406 -1.0203,-0.90814 -2.0641,-1.78919 -3.1289,-2.64649 -1.0535,-0.93853 -2.1334,-1.84814 -3.2344,-2.73242 -1.0155,-0.90266 -2.0538,-1.78047 -3.1133,-2.63281 -1.0375,-0.92384 -2.1,-1.82016 -3.1836,-2.69141 -1.0339,-0.92032 -2.0922,-1.81354 -3.1719,-2.68164 -1.0239,-0.91126 -2.0718,-1.79619 -3.1406,-2.65625 -1.0405,-0.92717 -2.1064,-1.82497 -3.1933,-2.69922 -1.0383,-0.92475 -2.1011,-1.82129 -3.1856,-2.69336 -1.0394,-0.92564 -2.1038,-1.82245 -3.1894,-2.69531 -1.0398,-0.92593 -2.1034,-1.82416 -3.1895,-2.69726 -1.0337,-0.92045 -2.0925,-1.81341 -3.1719,-2.68164 -1.0412,-0.92791 -2.1076,-1.82822 -3.1953,-2.70313 -1.0515,-0.9371 -2.1296,-1.84353 -3.2285,-2.72656 -1.0289,-0.91604 -2.0821,-1.8056 -3.1562,-2.66992 -1.0565,-0.94199 -2.1399,-1.85285 -3.2442,-2.74024 -1.0306,-0.91792 -2.086,-1.80781 -3.1621,-2.67383 -1.0555,-0.94149 -2.137,-1.85324 -3.2402,-2.74023 -1.0443,-0.93063 -2.1141,-1.83168 -3.2051,-2.70898 -1.0546,-0.94036 -2.134,-1.85038 -3.2363,-2.73633 -1.0485,-0.93433 -2.1232,-1.84013 -3.2188,-2.72071 -1.0436,-0.93014 -2.1129,-1.83013 -3.2031,-2.70703 -1.0491,-0.93569 -2.1225,-1.84274 -3.2188,-2.72461 -1.066,-0.95119 -2.1605,-1.87005 -3.2754,-2.76562 -1.0532,-0.93858 -2.1317,-1.84809 -3.2324,-2.73242 -1.0449,-0.9313 -2.1153,-1.83303 -3.207,-2.71094 -1.0594,-0.94524 -2.1444,-1.85968 -3.252,-2.75 -1.0617,-0.94708 -2.1497,-1.86394 -3.2597,-2.75586 -1.043,-0.93004 -2.1115,-1.8302 -3.2012,-2.70703 -1.0687,-0.95454 -2.1654,-1.87679 -3.2832,-2.77539 -1.0665,-0.95165 -2.1601,-1.87356 -3.2754,-2.76953 -1.051,-0.93729 -2.1281,-1.84527 -3.2266,-2.72852 -1.0746,-0.95949 -2.1765,-1.88612 -3.3007,-2.78906 -1.0561,-0.94174 -2.1383,-1.85501 -3.2422,-2.74219 -1.0625,-0.9482 -2.1528,-1.86486 -3.2637,-2.75781 -1.0776,-0.962 -2.1831,-1.89369 -3.3105,-2.79883 -1.0512,-0.93725 -2.1281,-1.84531 -3.2266,-2.72852 -1.0663,-0.95247 -2.1602,-1.87273 -3.2754,-2.76953 -1.0782,-0.96322 -2.1843,-1.8945 -3.3125,-2.80078 -1.075,-0.95952 -2.1782,-1.88807 -3.3027,-2.79101 -1.0577,-0.94363 -2.1424,-1.85721 -3.2481,-2.7461 -1.0817,-0.96644 -2.1922,-1.89947 -3.3242,-2.80859 -1.0683,-0.95364 -2.1639,-1.87567 -3.2812,-2.77344 -1.0728,-0.95824 -2.1727,-1.88523 -3.295,-2.78711 -1.0705,-0.95635 -2.1692,-1.88103 -3.289,-2.78125 -1.0852,-0.96995 -2.2001,-1.90611 -3.336,-2.81836 -1.0835,-0.96772 -2.1941,-1.90424 -3.3281,-2.81445 -1.0739,-0.95857 -2.1754,-1.885 -3.2988,-2.78711 -1.0685,-0.95422 -2.1638,-1.87707 -3.2813,-2.77539 -1.086,-0.97113 -2.2011,-1.90895 -3.3379,-2.82227 -1.0861,-0.97067 -2.2012,-1.9094 -3.3378,-2.82226 -1.0762,-0.96142 -2.1808,-1.89024 -3.3067,-2.79492 -1.0922,-0.97654 -2.2139,-1.91984 -3.3574,-2.83789 -1.0828,-0.9673 -2.195,-1.90265 -3.3281,-2.8125 -1.0777,-0.96293 -2.183,-1.89475 -3.3106,-2.80079 -1.0853,-0.97068 -2.1999,-1.90737 -3.3359,-2.82031 -1.092,-0.9768 -2.2142,-1.91956 -3.3574,-2.83789 -1.0813,-0.96697 -2.1908,-1.90087 -3.3223,-2.81055 -1.1062,-0.99008 -2.2435,-1.94495 -3.4024,-2.875 -1.0787,-0.96401 -2.1856,-1.89573 -3.3144,-2.80273 -1.1086,-0.99191 -2.2487,-1.94923 -3.4102,-2.88086 -1.078,-0.96308 -2.1845,-1.89267 -3.3125,-2.79883 -1.0944,-0.97937 -2.2173,-1.92701 -3.3632,-2.84765 -1.1074,-0.99102 -2.2462,-1.9461 -3.4063,-2.87696 -1.0949,-0.97888 -2.2188,-1.92559 -3.3652,-2.8457 -1.0867,-0.97161 -2.2024,-1.91048 -3.3399,-2.82422 -1.1089,-0.99283 -2.2502,-1.95032 -3.4121,-2.88281 -1.0978,-0.98178 -2.2254,-1.93082 -3.375,-2.85352 -1.1025,-0.98636 -2.2358,-1.93848 -3.3906,-2.86523 -1.0918,-0.97662 -2.2124,-1.91972 -3.3555,-2.83789 -1.1025,-0.98735 -2.2357,-1.93948 -3.3906,-2.86719 -1.1125,-0.99632 -2.2561,-1.95896 -3.4219,-2.89453 -1.107,-0.99064 -2.2445,-1.94644 -3.4043,-2.87695 -1.0974,-0.98207 -2.2257,-1.92857 -3.37497,-2.85157 C 985.33654,391.96963 965.96641,384 944.66211,384 h -0.004 -1184.18164 z"
         transform="scale(0.26458333)" />
      <g
         id="g830">
        <g
           id="g48">
          <path
             id="rect12"
             style="fill:#01579b;stroke-width:0.999999"
             d="m -239.52344,384 c -45.90285,0 -82.85742,36.95457 -82.85742,82.85742 V 1065.4277 H 1027.5215 v 70 c 0,0.7173 -0.01,1.4338 -0.025,2.1465 0.018,-0.7127 0.027,-1.4292 0.027,-2.1465 V 466.85742 C 1027.5234,420.95457 990.56887,384 944.66602,384 Z m 1267.01954,753.5742 c -0.036,1.4255 -0.1085,2.8417 -0.2149,4.2481 0.1064,-1.4064 0.179,-2.8226 0.2149,-4.2481 z m -2.5742,18.6094 c -0.5093,1.9886 -1.0887,3.9479 -1.7383,5.875 0.6495,-1.9271 1.229,-3.8864 1.7383,-5.875 z m -1342.96292,5.875 c 0.64956,1.9271 1.36828,3.8217 2.15235,5.6816 -0.78407,-1.8599 -1.50279,-3.7545 -2.15235,-5.6816 z m 1339.07222,5.6816 c -1.0454,2.4799 -2.2078,4.8977 -3.4804,7.2461 1.2726,-2.3484 2.435,-4.7662 3.4804,-7.2461 z m -5.4707,10.7149 c -1.381,2.2776 -2.8693,4.4837 -4.457,6.6094 1.5877,-2.1257 3.076,-4.3318 4.457,-6.6094 z"
             transform="scale(0.26458333)" />
          <path
             d="m -85.296601,281.89441 v 18.52083 c 0,12.14513 9.777545,21.92269 21.922687,21.92269 H 249.94236 c 12.14511,0 21.92269,-9.77756 21.92269,-21.92269 v -18.52083 z"
             style="fill:#b2dfdb;stroke-width:0.264583"
             id="path37" />
        </g>
        <path
           transform="scale(0.26458333)"
           d="m -244.57031,461.14258 v 437.1875 L 949.71484,569.45703 V 461.14258 Z"
           style="fill:#304ffe;stroke-width:0.999999"
           id="rect59" />
        <path
           d="m 251.27872,150.66883 -315.988463,87.01433 v 26.44645 H 251.27872 Z"
           style="fill:#0277bd;stroke-width:0.264583"
           id="rect52" />
        <g
           id="g786">
          <path
             d="m 70.815895,322.33792 h 44.937175 v 49.1369 H 70.815895 Z"
             style="fill:#b2dfdb;fill-opacity:1;stroke-width:0.146991"
             id="rect75" />
          <path
             d="m 69.034691,330.03046 h 46.718379 v 5.47942 H 69.034691 Z"
             style="fill:#546e7a;fill-opacity:1;stroke-width:0.149678"
             id="rect77" />
        </g>
        <path
           id="rect149"
           style="fill:#d500f9;fill-opacity:1;stroke-width:0.205146"
           d="m -47.960953,133.34201 h 69.134949 v 3.01883 h -69.134949 z" />
        <path
           id="rect151"
           style="fill:#fbc02d;fill-opacity:1;stroke-width:0.169604"
           d="M -38.608231,138.10445 H 8.6462746 v 3.01883 H -38.608231 Z" />
        <path
           id="rect153"
           style="fill:#00e676;fill-opacity:1;stroke-width:0.169604"
           d="M 12.456375,138.10445 H 59.71088 v 3.01883 H 12.456375 Z" />
        <path
           id="rect155"
           style="fill:#ef5350;fill-opacity:1;stroke-width:0.169604"
           d="m 63.520981,138.10445 h 47.254509 v 3.01883 H 63.520981 Z" />
        <path
           id="rect157"
           style="fill:#c6ff00;fill-opacity:1;stroke-width:0.212219"
           d="m -28.315666,143.39604 h 73.984375 v 3.01883 h -73.984375 z" />
        <path
           id="rect159"
           style="fill:#ee6f0b;fill-opacity:1;stroke-width:0.212219"
           d="m 51.63401,143.39604 h 73.98438 v 3.01883 H 51.63401 Z" />
        <path
           id="rect163"
           style="fill:#76ff03;fill-opacity:1;stroke-width:0.194515"
           d="m -37.806412,160.32915 h 62.155411 v 3.01883 h -62.155411 z" />
        <path
           id="rect165"
           style="fill:#f9a825;fill-opacity:1;stroke-width:0.194515"
           d="m 30.16984,160.32915 h 62.155411 v 3.01883 H 30.16984 Z" />
        <path
           id="rect167"
           style="fill:#f50057;fill-opacity:1;stroke-width:0.169604"
           d="m -28.024887,165.62074 h 47.254505 v 3.01883 h -47.254505 z" />
        <path
           id="rect169"
           style="fill:#4fc3f7;fill-opacity:1;stroke-width:0.169604"
           d="m 23.039713,165.62074 h 47.254505 v 3.01883 H 23.039713 Z" />
        <path
           id="rect171"
           style="fill:#00c853;fill-opacity:1;stroke-width:0.169604"
           d="m 74.104324,165.62074 h 47.254506 v 3.01883 H 74.104324 Z" />
        <path
           id="rect173"
           style="fill:#ef6c00;fill-opacity:1;stroke-width:0.18913"
           d="m -27.691673,170.91234 h 58.761085 v 3.01883 h -58.761085 z" />
        <path
           id="rect175"
           style="fill:#ef5350;fill-opacity:1;stroke-width:0.18913"
           d="m 35.807281,170.91234 h 58.761086 v 3.01883 H 35.807281 Z" />
        <path
           id="rect177"
           style="fill:#fbc02d;fill-opacity:1;stroke-width:0.18913"
           d="m 99.306236,170.91234 h 58.761084 v 3.01883 H 99.306236 Z" />
        <path
           id="rect179"
           style="fill:#ee6f0b;fill-opacity:1;stroke-width:0.226341"
           d="m -47.960953,190.49124 h 84.158882 v 3.01883 h -84.158882 z" />
        <path
           id="rect181"
           style="fill:#76ff03;fill-opacity:1;stroke-width:0.226341"
           d="m 42.547935,190.49124 h 84.158885 v 3.01883 H 42.547935 Z" />
        <path
           id="rect183"
           style="fill:#ef5350;fill-opacity:1;stroke-width:0.169604"
           d="m -28.024887,195.78284 h 47.254505 v 3.01883 h -47.254505 z" />
        <path
           id="rect185"
           style="fill:#00c853;fill-opacity:1;stroke-width:0.169604"
           d="m 23.039713,195.78284 h 47.254505 v 3.01883 H 23.039713 Z" />
        <path
           id="rect187"
           style="fill:#4fc3f7;fill-opacity:1;stroke-width:0.169604"
           d="m 74.104324,195.78284 h 47.254506 v 3.01883 H 74.104324 Z" />
        <path
           id="rect189"
           style="fill:#fbc02d;fill-opacity:1;stroke-width:0.18913"
           d="m -27.691673,201.07443 h 58.761085 v 3.01883 h -58.761085 z" />
        <path
           id="rect191"
           style="fill:#ee6f0b;fill-opacity:1;stroke-width:0.18913"
           d="m 35.807281,201.07443 h 58.761086 v 3.01883 H 35.807281 Z" />
        <path
           id="rect193"
           style="fill:#ef5350;fill-opacity:1;stroke-width:0.18913"
           d="m 99.306236,201.07443 h 58.761084 v 3.01883 H 99.306236 Z" />
        <path
           id="rect195"
           style="fill:#f9a825;fill-opacity:1;stroke-width:0.204556"
           d="m -47.960953,232.82401 h 68.737839 v 3.01882 h -68.737839 z" />
        <path
           id="rect197"
           style="fill:#00e676;fill-opacity:1;stroke-width:0.204556"
           d="m 27.12689,232.82401 h 68.737839 v 3.01882 H 27.12689 Z" />
        <path
           id="rect199"
           style="fill:#ef5350;fill-opacity:1;stroke-width:0.204556"
           d="m 102.21474,232.82401 h 68.73784 v 3.01882 h -68.73784 z" />
        <path
           id="rect201"
           style="fill:#01579b;fill-opacity:1;stroke-width:0.0989823"
           transform="scale(-1,1)"
           d="m -195.41274,132.19093 c 0.15443,0 0.27875,0.47681 0.27875,1.06908 v 118.36784 c 0,0.59227 -0.12432,1.06908 -0.27875,1.06908 -0.15443,0 -0.27876,-0.47681 -0.27876,-1.06908 V 133.26001 c 0,-0.59227 0.12433,-1.06908 0.27876,-1.06908 z" />
      </g>
    </g>
    <g
       id="g2375" />
    <g
       id="g2385" />
  </g>
</svg>
