<?xml version="1.0" encoding="UTF-8" standalone="no"?>
<svg
   xmlns:dc="http://purl.org/dc/elements/1.1/"
   xmlns:cc="http://creativecommons.org/ns#"
   xmlns:rdf="http://www.w3.org/1999/02/22-rdf-syntax-ns#"
   xmlns:svg="http://www.w3.org/2000/svg"
   xmlns="http://www.w3.org/2000/svg"
   xmlns:sodipodi="http://sodipodi.sourceforge.net/DTD/sodipodi-0.dtd"
   xmlns:inkscape="http://www.inkscape.org/namespaces/inkscape"
   id="svg8"
   version="1.1"
   viewBox="0 0 67.73333 67.733338"
   height="67.733337mm"
   width="67.73333mm"
   inkscape:version="1.0 (4035a4fb49, 2020-05-01)"
   sodipodi:docname="TecnologieServiziRete_scalable.svg"
   inkscape:export-filename="C:\Users\linos\Desktop\Icone gruppi telegram\TecnologieServiziRete.png"
   inkscape:export-xdpi="96.000008"
   inkscape:export-ydpi="96.000008">
  <defs
     id="defs2" />
  <sodipodi:namedview
     id="base"
     pagecolor="#ffffff"
     bordercolor="#666666"
     borderopacity="1.0"
     inkscape:pageopacity="0.0"
     inkscape:pageshadow="2"
     inkscape:zoom="0.35"
     inkscape:cx="613.11585"
     inkscape:cy="1008.9079"
     inkscape:document-units="mm"
     inkscape:current-layer="layer1"
     inkscape:document-rotation="0"
     showgrid="false"
     inkscape:window-width="1920"
     inkscape:window-height="1013"
     inkscape:window-x="-9"
     inkscape:window-y="-9"
     inkscape:window-maximized="1" />
  <metadata
     id="metadata5">
    <rdf:RDF>
      <cc:Work
         rdf:about="">
        <dc:format>image/svg+xml</dc:format>
        <dc:type
           rdf:resource="http://purl.org/dc/dcmitype/StillImage" />
        <dc:title />
        <cc:license
           rdf:resource="http://creativecommons.org/licenses/by-sa/4.0/" />
      </cc:Work>
      <cc:License
         rdf:about="http://creativecommons.org/licenses/by-sa/4.0/">
        <cc:permits
           rdf:resource="http://creativecommons.org/ns#Reproduction" />
        <cc:permits
           rdf:resource="http://creativecommons.org/ns#Distribution" />
        <cc:requires
           rdf:resource="http://creativecommons.org/ns#Notice" />
        <cc:requires
           rdf:resource="http://creativecommons.org/ns#Attribution" />
        <cc:permits
           rdf:resource="http://creativecommons.org/ns#DerivativeWorks" />
        <cc:requires
           rdf:resource="http://creativecommons.org/ns#ShareAlike" />
      </cc:License>
    </rdf:RDF>
  </metadata>
  <g
     inkscape:label="Livello 1"
     inkscape:groupmode="layer"
     id="layer1"
     transform="translate(151.94643,97.517861)">
    <g
       transform="matrix(0.12499997,0,0,0.12500001,-132.95313,-85.328127)"
       id="g5618">
      <rect
         ry="2.3531227"
         rx="1.1420615"
         y="-97.51786"
         x="-151.94643"
         height="541.86664"
         width="541.86664"
         id="rect10"
         style="fill:#009688;fill-opacity:1;stroke-width:4.5647" />
      <path
         transform="scale(0.26458333)"
         d="m 313.18164,208.17773 c -4.71307,0 -8.5332,3.82014 -8.5332,8.53321 h -25.60156 c -4.71308,0 -8.53125,3.82126 -8.53126,8.5332 v 85.33203 c -4.71306,0 -8.5332,3.82013 -8.5332,8.53321 v 110.93359 c 0,0.85039 0.12713,1.69717 0.37696,2.50976 l 2.61328,8.5 c 0.0121,0.0378 0.0231,0.0755 0.0351,0.11329 l 10.45313,33.97265 c 0.02,0.068 0.0413,0.13692 0.0625,0.20117 l 10.47265,34.03907 v 0.004 l 10.49414,34.10157 c 0.68351,2.22209 2.21707,4.00317 4.17579,5.0371 0.79896,1.24252 1.90225,2.24931 3.19336,2.92969 0.79864,1.2426 1.8985,2.25233 3.18945,2.93164 0.79655,1.23808 1.89286,2.24294 3.17969,2.91992 0.79633,1.23985 1.89516,2.24505 3.18359,2.92188 0.79387,1.23511 1.88851,2.23884 3.17187,2.91406 0.79313,1.237 1.8893,2.24053 3.17383,2.91602 0.52797,0.82353 1.19082,1.5416 1.95508,2.1289 v 49.59571 c 0,31.14123 13.97526,59.0735 35.97852,77.86914 1.02011,0.94562 2.05917,1.87146 3.11718,2.77539 1.02842,0.95363 2.07557,1.88767 3.14258,2.79883 0.9972,0.9242 2.01137,1.82868 3.04492,2.71289 1.04708,0.97241 2.11386,1.92342 3.20118,2.85156 1.00411,0.93043 2.02726,1.8427 3.06835,2.73242 1.01419,0.94095 2.04756,1.86243 3.09961,2.76172 1.02905,0.95505 2.07837,1.88872 3.14649,2.80078 1.01313,0.93934 2.04467,1.85824 3.0957,2.75586 1.00941,0.9361 2.03686,1.85345 3.08399,2.74805 1.02207,0.94834 2.0622,1.87556 3.12304,2.78125 1.00606,0.93285 2.03055,1.84681 3.07422,2.73828 1.00944,0.93651 2.03853,1.8533 3.08594,2.74805 1.00796,0.93536 2.03417,1.85051 3.08008,2.74414 1.01544,0.94255 2.04947,1.86358 3.10351,2.76367 1.00714,0.93441 2.03296,1.84961 3.07813,2.74219 1.00762,0.93496 2.03431,1.84919 3.08008,2.74218 1.00528,0.93285 2.03089,1.84534 3.07421,2.73633 1.00348,0.93127 2.02495,1.84295 3.06641,2.73242 1.00588,0.93363 2.03008,1.84674 3.07422,2.73828 1.01157,0.93889 2.04342,1.85768 3.09375,2.75391 0.99405,0.92205 2.00558,1.82428 3.03711,2.70508 1.0075,0.93523 2.03396,1.8514 3.08008,2.74414 0.99356,0.92179 2.00398,1.82468 3.03515,2.70508 1.00111,0.92935 2.02115,1.83738 3.06055,2.72461 0.9968,0.92524 2.01205,1.82948 3.04688,2.71289 0.99632,0.92497 2.01051,1.82981 3.04492,2.71289 0.99857,0.92705 2.01583,1.83386 3.05273,2.71875 0.994,0.92269 2.00702,1.82426 3.03906,2.70508 0.98836,0.91756 1.99543,1.81532 3.02149,2.6914 0.99596,0.92506 2.01057,1.83006 3.04492,2.71289 0.99677,0.9256 2.01159,1.83163 3.04688,2.71485 0.98227,0.91183 1.98416,1.80323 3.0039,2.67382 0.9935,0.92293 2.00518,1.8264 3.03711,2.70704 0.99166,0.92093 2.00318,1.82049 3.0332,2.69922 0.97531,0.90557 1.96799,1.79157 2.98047,2.65624 1.00606,0.93516 2.03239,1.84875 3.07813,2.74024 0.97377,0.9036 1.9656,1.78771 2.97656,2.65039 0.98509,0.91519 1.98844,1.81041 3.01172,2.68359 0.98884,0.91865 1.99604,1.81714 3.02344,2.69336 0.98155,0.91151 1.98235,1.80225 3.00195,2.67188 0.97863,0.90887 1.97565,1.79885 2.99219,2.66601 0.97581,0.90655 1.97078,1.79323 2.98437,2.65821 0.98475,0.91523 1.9884,1.80884 3.01172,2.68164 0.98016,0.91051 1.97962,1.80152 2.99805,2.66992 0.97829,0.90858 1.9757,1.79751 2.99219,2.66406 0.96765,0.89874 1.95388,1.77724 2.95898,2.63477 0.97837,0.90941 1.97541,1.79884 2.99219,2.66601 0.96327,0.89514 1.94473,1.77088 2.94531,2.625 0.98102,0.91257 1.98213,1.80198 3.00195,2.67188 0.97035,0.90202 1.95844,1.78432 2.9668,2.64453 0.38664,0.35946 0.77521,0.71744 1.16797,1.07031 h -62.77344 v -1.41797 h -2.71289 v -2.49414 h -2.7168 v -2.49804 h -2.71875 v -2.49805 h -2.72461 v -2.50195 h -2.7246 v -2.50977 h -2.72852 v -2.50977 h -2.73242 v -2.50976 h -2.73633 v -2.51758 h -2.74023 v -2.51562 h -2.74415 v -2.52149 h -2.74414 v -2.52539 h -2.75195 v -2.52344 h -2.75195 v -2.5332 h -2.75391 v -2.5332 h -2.75586 v -2.53516 h -2.76367 v -2.53906 h -2.76563 v -2.54102 h -2.76757 v -2.54297 h -2.76953 v -2.54687 h -2.7754 v -2.55274 h -2.77734 v -2.55468 h -2.78125 v -2.55469 h -2.78515 v -2.55859 h -2.78516 v -2.5625 h -2.79102 v -2.56641 h -2.79297 v -2.56641 h -2.79687 v -2.57422 h -2.80078 v -2.57226 h -2.80274 v -2.57422 h -2.80664 v -2.58203 h -2.80859 v -2.58203 h -2.8125 v -2.58789 h -2.81641 v -2.58594 h -2.82031 v -2.5918 h -2.82227 v -2.59765 h -2.82421 v -2.59571 h -2.83008 v -2.60156 h -2.83203 v -2.60352 h -2.83399 v -2.60351 h -2.83789 v -2.61133 h -2.8418 v -2.61133 h -2.8457 v -2.61718 h -2.84765 v -2.61524 h -2.85157 v -2.62305 h -2.85351 v -2.62304 h -2.85742 v -2.62696 h -2.86133 v -2.6289 h -2.86328 v -2.63086 h -2.86719 v -2.63867 h -2.86914 v -2.63867 h -2.87305 v -2.64063 h -2.87695 v -2.64258 h -2.88086 v -2.64844 h -2.88281 v -2.65039 h -2.88672 V 689.5 h -2.88867 v -2.6582 h -2.89258 v -2.65625 h -2.89649 v -2.66407 h -2.89843 v -2.66601 h -2.90235 v -2.66797 h -2.9043 v -2.66797 h -2.9082 v -2.67578 h -2.91211 v -2.67578 h -2.91601 v -2.67969 h -2.91797 v -2.68359 h -2.92188 v -2.6836 h -2.92383 v -2.6914 h -2.92773 v -2.69141 h -2.93164 v -2.69336 h -2.93359 v -2.69531 h -2.9375 v -2.70313 h -2.93946 v -2.70117 h -2.94336 v -2.70703 h -2.94726 v -2.70898 h -2.95117 v -2.71094 h -2.95313 v -2.7168 h -2.95703 v -2.71875 h -2.95898 v -2.7207 h -2.96289 v -2.7207 h -2.9668 v -2.72852 h -2.96875 v -2.72851 h -2.97266 V 616.75 h -2.97461 v -2.73633 h -2.97851 v -2.73633 h -2.98243 v -2.74023 h -2.98437 v -2.74609 h -2.99023 v -2.74414 h -2.99024 v -2.75196 h -2.99609 v -2.75195 h -2.99805 v -2.75781 h -3 v -2.75977 h -3.00391 v -2.75977 h -3.00781 V 586.5 h -3.01172 v -2.76758 h -3.01367 v -2.76953 h -3.01758 v -2.77539 h -3.01953 v -2.77734 h -3.02344 v -2.77735 h -3.02734 v -2.78125 h -3.0293 v -2.78711 h -3.0332 v -2.78906 h -3.03711 v -2.79297 h -3.03906 v -2.79297 h -3.04297 v -2.79687 h -3.04688 v -2.80078 h -3.04882 v -2.80078 h -3.05078 v -2.80664 h -3.05664 v -2.8086 h -3.0586 v -2.8125 h -3.0625 v -2.8164 h -3.06445 v -2.81446 h -3.06836 v -2.82422 h -3.07031 v -2.82226 h -3.07618 v -2.82813 h -3.07812 v -2.82617 h -3.08008 v -2.83594 h -3.08398 v -2.83398 h -3.08789 v -2.83789 h -3.08985 v -2.83985 h -3.09375 v -2.8457 h -3.097654 v -2.8457 h -3.099609 v -2.84961 h -3.103516 v -2.85352 h -3.107422 v -2.85742 h -3.109375 v -2.85742 h -3.113281 v -2.86133 h -3.117187 v -2.86523 h -3.119141 v -2.86719 h -3.123047 v -2.86914 h -3.125 v -2.87695 h -3.128906 v -2.875 h -3.132813 v -2.88086 H 59.558594 V 473.5 h -3.138672 v -2.88867 h -3.140625 v -2.88672 h -3.146485 v -2.89258 h -3.148437 v -2.89062 h -3.150391 v -2.89844 h -3.154296 v -2.89844 h -3.158204 v -2.9043 h -3.160156 v -2.90625 h -3.164062 v -2.91015 h -3.167969 v -2.91016 h -3.169922 v -2.91406 H 21.6875 l -0.002,-2.91797 h -3.175781 l -0.002,-2.92187 h -3.177734 l -0.002,-2.91993 h -3.181641 l -0.002,-2.92968 H 8.9609375 v -0.44922 l -0.00195,-2.48047 H 5.7695312 v -1.27735 -1.65234 H 2.578125 v -2.10742 l -0.00195,-0.82813 h -3.19531252 v -2.9375 h -0.001953 -36.02343748 v 414.30469 h -90.066412 v 216.15818 h 0.004 3.19141 v 2.5059 l 0.004,0.4316 h 3.18945 v 2.0742 l 0.004,0.8614 h 3.18555 v 1.6367 l 0.004,1.2969 h 3.18164 v 1.205 l 0.004,1.7247 h 3.17969 v 0.7714 l 0.004,2.1543 h 3.17774 v 0.3399 l 0.002,2.584 h 3.17383 l 0.004,2.9179 h 3.16992 l 0.004,2.918 h 3.166023 l 0.0039,2.9141 h 3.166016 l 0.002,2.914 h 3.162109 l 0.002,2.9063 h 3.158203 l 0.002,2.9062 h 3.15625 l 0.002,2.9043 h 3.152344 l 0.002,2.8985 h 3.15039 l 0.002,2.8984 h 3.146484 v 2.8945 h 3.144531 v 2.8926 h 3.140625 l 0.002,2.8867 h 3.136719 l 0.002,2.8848 h 3.134766 v 2.8828 h 3.130859 l 0.002,2.8809 h 3.126953 l 0.002,2.875 h 3.125 v 2.873 h 3.123046 v 2.8692 h 3.119141 v 2.8691 h 3.115234 l 0.002,2.8633 h 3.113282 v 2.8613 h 3.109375 v 2.8613 h 3.105469 v 2.8535 h 3.103515 v 2.8536 h 3.101563 v 2.8496 h 3.095703 v 2.8457 h 3.09375 v 2.8476 h 3.091797 v 2.8418 h 3.08789 v 2.8379 h 3.083985 v 2.834 h 3.080078 v 2.832 h 3.078125 v 2.8301 h 3.0742187 v 2.8281 h 3.0722656 v 2.8223 h 3.0683594 v 2.8203 h 3.0644531 v 2.8184 h 3.0625 v 2.8125 h 3.0585932 v 2.8125 h 3.054688 v 2.8086 h 3.052734 v 2.8066 h 3.048828 v 2.8047 h 3.046875 v 2.7969 h 3.042969 v 2.7968 h 3.039063 v 2.7969 h 3.035156 v 2.7891 H 35.25 v 2.789 h 3.03125 v 2.7872 h 3.025391 v 2.7812 h 3.023437 v 2.7813 h 3.021484 v 2.7734 h 3.017579 v 2.7754 h 3.013671 v 2.7695 h 3.009766 v 2.7676 h 3.007813 v 2.7656 h 3.005859 v 2.7637 h 3 v 2.7598 h 2.998047 v 2.7539 h 2.994141 v 2.7519 h 2.992187 v 2.752 h 2.988281 v 2.748 h 2.986328 V 1239 h 2.980469 v 2.7402 h 2.978516 v 2.7403 h 2.976562 v 2.7363 h 2.972657 v 2.7344 h 2.96875 v 2.7285 h 2.966796 v 2.7246 h 2.962896 v 2.7246 h 2.95898 v 2.7207 h 2.95703 v 2.7188 h 2.95313 v 2.7128 h 2.94921 v 2.7149 h 2.94727 v 2.7051 h 2.94336 v 2.707 h 2.94141 v 2.7051 h 2.9375 v 2.6992 h 2.93359 v 2.6992 h 2.93164 v 2.6934 h 2.92773 v 2.6914 h 2.92383 v 2.6875 h 2.92188 v 2.6875 h 2.91797 v 2.6797 h 2.91406 v 2.6797 h 2.91211 v 2.6796 h 2.9082 v 2.6719 h 2.90625 v 2.6719 h 2.90235 v 2.668 h 2.89843 v 2.666 h 2.89649 v 2.6601 h 2.89258 v 2.6602 h 2.88867 v 2.6543 h 2.88672 v 2.6523 h 2.88281 v 2.6543 h 2.8789 v 2.6446 h 2.87696 v 2.6464 h 2.87304 v 2.6407 h 2.8711 v 2.6386 h 2.86719 v 2.6348 h 2.86328 v 2.6348 h 2.86133 v 2.6269 h 2.85742 v 2.625 h 2.85351 v 2.627 h 2.85157 v 2.6191 h 2.84765 v 2.6192 h 2.84375 v 2.6172 h 2.8418 v 2.6113 h 2.83789 v 2.6074 h 2.83594 v 2.6074 h 2.83203 v 2.6035 h 2.82812 v 2.6016 h 2.82617 v 2.5957 h 2.82227 v 2.5938 h 2.81836 v 2.5917 h 2.81641 v 2.5899 h 2.8125 v 2.584 h 2.81054 v 2.582 h 2.80469 v 2.582 h 2.80273 v 2.5782 h 2.80079 v 2.5722 h 2.79687 v 2.5703 h 2.79297 v 2.5664 h 2.79102 v 2.5665 h 2.7871 v 2.5625 h 2.78321 v 2.5586 h 2.78125 v 2.5585 h 2.77734 v 2.5508 h 2.77539 v 2.5528 h 2.77149 v 2.5468 h 2.76757 v 2.543 h 2.76368 v 2.5449 h 2.76171 v 2.5352 h 2.75977 v 2.5371 h 2.75391 v 2.5351 h 2.75195 v 2.5293 h 2.75 v 2.5235 h 2.74414 v 2.5254 h 2.74414 v 2.5215 h 2.73828 v 2.5195 h 2.73633 v 2.5137 h 2.73242 v 2.5136 h 2.73047 v 2.5098 h 2.72656 v 2.5059 h 2.72266 v 2.5019 h 2.7207 v 2.502 h 2.7168 v 2.498 h 2.71289 v 2.4941 h 2.71094 v 2.4922 h 2.70703 v 2.4864 h 2.70508 v 2.4863 h 2.70117 v 2.4844 h 2.69726 v 2.4785 h 2.69336 v 2.4785 h 2.69141 v 2.4727 h 2.68945 v 2.4726 h 2.6836 v 2.4668 h 2.68164 v 2.4649 h 2.67969 v 2.4648 h 2.67578 v 2.459 h 2.67187 v 2.457 h 2.66797 v 2.4531 h 2.66602 v 2.4493 h 2.66211 v 2.4492 h 2.66015 v 2.4453 h 2.65625 v 2.4414 h 2.65235 v 2.4375 h 2.65039 v 2.4355 h 2.64648 v 2.4336 h 2.64258 v 2.4297 h 2.64258 v 2.4258 h 2.63281 v 2.4277 h 2.63477 v 2.418 h 2.63085 v 2.4199 h 2.63086 v 2.4141 h 2.62305 v 2.416 h 2.61914 v 2.4063 h 2.61914 v 2.4082 h 2.61524 v 2.4043 h 2.61132 v 2.4003 h 2.60743 v 2.3946 h 2.60547 v 2.3965 h 2.60351 v 2.3925 h 2.5957 v 2.3887 h 2.59766 v 2.3848 h 2.5918 v 2.3847 h 2.58984 v 2.3809 h 2.58399 v 2.375 h 2.58203 v 2.377 h 2.58203 v 2.3691 h 2.57422 v 2.3711 h 2.57226 v 2.3652 h 2.57031 v 2.3614 h 2.56641 v 2.3593 h 2.56641 v 2.3555 h 2.55859 v 2.3535 h 2.55859 v 2.3516 h 2.55274 v 2.3457 h 2.55078 v 2.3476 h 2.54687 v 2.3399 h 2.54297 v 2.3398 h 2.54493 v 2.336 h 2.53515 v 2.3359 h 2.53711 v 2.3281 h 2.53125 v 2.3281 h 2.5293 v 2.3243 h 2.52344 v 2.3203 h 2.52148 v 2.3203 h 2.52148 v 2.3125 h 2.51368 v 2.3144 h 2.51367 v 2.3086 h 2.50976 v 2.3086 h 2.50586 v 2.3028 h 2.50196 v 2.3007 h 2.50195 v 2.2989 h 2.49414 v 2.2949 h 2.49414 v 2.293 h 2.49023 v 2.2871 h 2.48829 v 2.2871 h 2.48242 v 2.2812 h 2.47851 v 2.2832 h 2.47657 v 2.2754 h 2.47461 v 2.2754 h 2.47265 v 2.2715 h 2.46875 v 2.2676 h 2.46289 v 2.2637 h 2.46094 v 2.2656 h 2.45703 v 2.2597 h 2.45703 v 2.2559 h 2.45313 v 2.252 h 2.44531 v 2.2539 h 2.44531 v 2.248 h 2.44532 v 2.2442 h 2.4375 v 2.2421 h 2.43359 v 2.2383 h 2.43359 v 2.2363 h 2.42969 v 2.2344 h 2.42773 v 2.2305 h 2.42188 v 2.2285 h 2.41992 v 2.2227 h 2.41406 v 0.9511 h 908.55856 c 2.3913,0 4.3164,-3.9654 4.3164,-8.8925 V 914.13867 h -0.7421 v -2.39648 h -2.6075 v -2.39453 h -2.6113 v -2.4043 h -2.6172 v -2.4043 h -2.6152 v -2.40429 h -2.6231 v -2.41016 h -2.623 v -2.41211 h -2.625 v -2.41406 h -2.6309 v -2.41992 h -2.6347 v -2.42188 h -2.6387 v -2.42383 h -2.6387 v -2.42578 h -2.6445 v -2.42969 h -2.6465 v -2.43554 h -2.6484 v -2.4336 h -2.6543 v -2.4414 h -2.6563 v -2.44141 h -2.6601 v -2.44531 h -2.6621 v -2.44531 h -2.6641 v -2.45313 h -2.668 v -2.45312 h -2.6719 v -2.45704 h -2.6757 v -2.45507 h -2.6797 v -2.46485 h -2.6836 v -2.46484 h -2.6836 v -2.4668 h -2.6875 v -2.47265 h -2.6914 v -2.47657 h -2.6953 v -2.47461 h -2.6973 v -2.47851 h -2.7031 v -2.48438 h -2.7031 v -2.48632 h -2.7051 v -2.48633 h -2.7129 v -2.4961 h -2.7149 v -2.49414 h -2.7128 v -2.49804 h -2.7227 v -2.49805 h -2.7246 v -2.50195 h -2.7246 v -2.50977 h -2.7285 v -2.50977 h -2.7325 v -2.50976 h -2.7363 v -2.51758 h -2.7402 v -2.51562 h -2.7442 v -2.52149 h -2.7441 v -2.52539 h -2.748 v -2.52344 h -2.752 v -2.5332 h -2.7539 v -2.5332 h -2.7598 v -2.53516 h -2.7636 v -2.53906 h -2.7618 v -2.54102 h -2.7714 v -2.54297 h -2.7696 v -2.54687 h -2.7734 v -2.55274 h -2.7793 v -2.55468 h -2.7813 v -2.55469 h -2.7812 v -2.55859 h -2.7891 v -2.5625 h -2.789 v -2.56641 h -2.793 v -2.56641 h -2.7969 v -2.57422 h -2.8008 v -2.57226 h -2.8046 v -2.57422 h -2.8047 v -2.58203 h -2.8086 v -2.58203 h -2.8164 v -2.58789 h -2.8145 v -2.58594 h -2.8203 v -2.5918 h -2.8184 v -2.59765 h -2.8281 v -2.59571 h -2.8262 v -2.60156 h -2.8359 v -2.60352 h -2.834 v -2.60351 h -2.8379 v -2.61133 h -2.8437 v -2.61133 h -2.8418 v -2.61718 h -2.8496 v -2.61524 h -2.8496 v -2.62305 h -2.8536 v -2.62304 h -2.8574 v -2.62696 h -2.8613 v -2.6289 h -2.8652 v -2.63086 h -2.8633 v -2.63867 h -2.8731 v -2.63867 h -2.873 v -2.64063 h -2.875 v -2.64258 h -2.8809 v -2.64844 h -2.8828 v -2.65039 h -2.8887 V 689.5 h -2.8867 v -2.6582 h -2.8926 v -2.65625 h -2.8984 v -2.66407 h -2.8984 v -2.66601 h -2.8985 v -2.66797 h -2.9062 v -2.66797 h -2.9121 v -2.67578 h -2.9102 v -2.67578 h -2.914 v -2.67969 h -2.9161 v -2.68359 h -2.9218 v -2.6836 h -2.9258 v -2.6914 h -2.9297 v -2.69141 h -2.9277 v -2.69336 h -2.9375 v -2.69531 h -2.9375 v -2.70313 h -2.9395 v -2.70117 h -2.9453 v -2.70703 h -2.9434 v -2.70898 h -2.9511 v -2.71094 h -2.9532 v -2.7168 h -2.955 v -2.71875 h -2.9629 v -2.7207 h -2.959 v -2.7207 h -2.9668 v -2.72852 h -2.9707 v -2.72851 h -2.9707 V 616.75 h -2.9785 v -2.73633 h -2.9785 v -2.73633 h -2.9825 v -2.74023 h -2.9863 v -2.74609 h -2.9844 v -2.74414 h -2.9941 v -2.75196 h -2.9942 v -2.75195 h -2.996 v -2.75781 h -3.002 v -2.75977 h -3.0039 v -2.75977 h -3.0098 V 586.5 h -3.0117 v -2.76758 h -3.0117 v -2.76953 h -3.0156 v -2.77539 h -3.0235 v -2.77734 h -3.0234 v -2.77735 h -3.0254 v -2.78125 h -3.0313 v -2.78711 h -3.0332 v -2.78906 h -3.0351 v -2.79297 h -3.0391 v -2.79297 h -3.0429 v -2.79687 h -3.0469 v -2.80078 h -3.0488 v -2.80078 h -3.0508 v -2.80664 h -3.0567 v -2.8086 h -3.0586 v -2.8125 h -3.0605 v -2.8164 h -3.0664 v -2.81446 h -3.0684 v -2.82422 h -3.0722 v -2.82226 h -3.0743 v -2.82813 h -3.08 v -2.82617 h -3.0801 v -2.83594 h -3.084 v -2.83398 h -3.0879 v -2.83789 h -3.0879 v -2.83985 h -3.0957 v -2.8457 h -3.0957 v -2.8457 h -3.1015 v -2.84961 h -3.1036 v -2.85352 h -3.1074 v -2.85742 h -3.1094 v -2.85742 h -3.1113 v -2.86133 h -3.1172 v -2.86523 h -3.1191 v -2.86719 h -3.1211 v -2.86914 h -3.127 v -2.87695 h -3.1289 v -2.875 h -3.13278 v -2.88086 h -3.13281 V 473.5 h -3.14063 v -2.88867 h -3.14258 v -2.88672 h -3.14453 v -2.89258 h -3.14648 v -2.89062 h -3.15235 v -2.89844 h -3.15625 v -2.89844 h -3.15625 v -2.9043 h -3.16015 v -2.90625 h -3.16602 v -2.91015 h -3.16797 v -2.91016 h -3.16797 v -2.91406 h -3.17382 v -2.91797 h -3.17969 v -2.92187 h -3.17774 v -2.91993 h -3.18164 v -2.92968 h -3.1875 v -0.44922 -2.48047 h -3.18945 v -1.27735 -1.65234 h -3.19336 v -2.10742 -0.82813 h -3.19726 v -2.9375 h -36.02735 v 37.03516 c -0.1453,-0.0858 -0.29362,-0.16669 -0.44531,-0.24219 -0.69893,-1.15584 -1.71494,-2.09444 -2.92969,-2.69922 -0.69925,-1.1549 -1.71425,-2.09198 -2.92773,-2.69726 -0.70156,-1.15829 -1.71906,-2.10029 -2.9375,-2.70703 -0.70195,-1.15747 -1.71867,-2.09753 -2.93555,-2.70508 -0.70342,-1.16005 -1.72199,-2.10383 -2.94141,-2.71289 -0.70492,-1.1608 -1.72466,-2.10507 -2.94531,-2.71484 -0.70569,-1.15984 -1.72547,-2.10253 -2.94531,-2.7129 -0.70701,-1.16292 -1.7286,-2.10894 -2.95117,-2.7207 -0.70761,-1.1631 -1.7301,-2.11006 -2.95313,-2.72266 -0.71003,-1.16524 -1.73518,-2.11302 -2.96093,-2.72656 -0.70938,-1.16255 -1.73231,-2.10854 -2.95508,-2.72265 -0.71171,-1.16887 -1.73831,-2.11993 -2.9668,-2.73633 -0.71204,-1.16597 -1.73705,-2.11595 -2.96289,-2.73242 -0.7138,-1.16938 -1.74339,-2.12018 -2.97266,-2.73828 -0.714,-1.16835 -1.74029,-2.12 -2.96875,-2.73829 -0.71603,-1.17045 -1.74739,-2.12406 -2.97851,-2.74414 -0.71663,-1.17078 -1.74879,-2.12319 -2.98047,-2.74414 -0.71772,-1.17188 -1.74815,-2.12802 -2.98047,-2.75 -0.71895,-1.17199 -1.75063,-2.12756 -2.98437,-2.75 -0.72038,-1.17474 -1.75431,-2.13193 -2.99024,-2.75586 -0.72127,-1.17408 -1.75667,-2.13137 -2.99219,-2.75586 -0.72209,-1.1763 -1.75644,-2.13617 -2.99414,-2.76171 -0.72392,-1.17765 -1.76087,-2.13707 -3,-2.76368 -0.72448,-1.17829 -1.7625,-2.1377 -3.00195,-2.76562 -0.72529,-1.17822 -1.76402,-2.1391 -3.00391,-2.76758 -0.72673,-1.18 -1.766,-2.14377 -3.00781,-2.77344 -0.72794,-1.18123 -1.76863,-2.1446 -3.01172,-2.77539 -0.72812,-1.1811 -1.76953,-2.14324 -3.01172,-2.77539 -0.7305,-1.18468 -1.77478,-2.15185 -3.02148,-2.78516 -0.73104,-1.18305 -1.77445,-2.14949 -3.01953,-2.7832 -0.73191,-1.18398 -1.77576,-2.15227 -3.02149,-2.78711 -0.73364,-1.18623 -1.78111,-2.15505 -3.02929,-2.79101 -0.73438,-1.18581 -1.78111,-2.15424 -3.0293,-2.79102 -0.73568,-1.18841 -1.78412,-2.15893 -3.03516,-2.79687 -0.73603,-1.18781 -1.78515,-2.15801 -3.03515,-2.79688 -0.73766,-1.19007 -1.78626,-2.16259 -3.03907,-2.80273 -0.7398,-1.19189 -1.79204,-2.16559 -3.04687,-2.80664 -0.73968,-1.19051 -1.79162,-2.16502 -3.04492,-2.80664 -0.74112,-1.19285 -1.79524,-2.16761 -3.05078,-2.81055 -0.74173,-1.19271 -1.79373,-2.16866 -3.04883,-2.8125 -0.74361,-1.19528 -1.80017,-2.17133 -3.0586,-2.81641 -0.74399,-1.19486 -1.79909,-2.17239 -3.05664,-2.81836 -0.74637,-1.19822 -1.80443,-2.17898 -3.0664,-2.82617 -0.74648,-1.19735 -1.80343,-2.17644 -3.06446,-2.82422 -0.74746,-1.19812 -1.8067,-2.17734 -3.06835,-2.82617 -0.74897,-1.20062 -1.80825,-2.18382 -3.07227,-2.83398 -0.74948,-1.20021 -1.81092,-2.18109 -3.07422,-2.83204 -0.75119,-1.20149 -1.81318,-2.18584 -3.07812,-2.83789 -0.75177,-1.20237 -1.81629,-2.18676 -3.08204,-2.83984 -0.75299,-1.20309 -1.81692,-2.18973 -3.08398,-2.84375 -0.75449,-1.20407 -1.82011,-2.19071 -3.08789,-2.8457 -0.75532,-1.20448 -1.82139,-2.19164 -3.08984,-2.84766 -0.75666,-1.20707 -1.82444,-2.1963 -3.09571,-2.85351 -0.75768,-1.20764 -1.82586,-2.19738 -3.09765,-2.85547 -0.75919,-1.20807 -1.82896,-2.19846 -3.10157,-2.85742 -0.75969,-1.20892 -1.83018,-2.19938 -3.10351,-2.85938 -0.76022,-1.2091 -1.83008,-2.20018 -3.10352,-2.86133 -0.7622,-1.21299 -1.83595,-2.20829 -3.11328,-2.87109 -0.76296,-1.21138 -1.83724,-2.20435 -3.11328,-2.86719 -0.76456,-1.21395 -1.84012,-2.2087 -3.11914,-2.87305 -0.76489,-1.21352 -1.83913,-2.20982 -3.11719,-2.875 -0.76703,-1.2163 -1.84561,-2.2146 -3.12695,-2.88086 -0.76743,-1.21601 -1.84389,-2.21404 -3.125,-2.88086 -0.76799,-1.21652 -1.84544,-2.21475 -3.12695,-2.88281 -0.77021,-1.21995 -1.85144,-2.22126 -3.13672,-2.89062 -0.77051,-1.21794 -1.84912,-2.21908 -3.13282,-2.88867 -0.77253,-1.22024 -1.85424,-2.22355 -3.14062,-2.89454 -0.7727,-1.21953 -1.85554,-2.22076 -3.14063,-2.89257 -0.77482,-1.2231 -1.85913,-2.22898 -3.14843,-2.90235 -0.77531,-1.22285 -1.8597,-2.22662 -3.14844,-2.90039 -0.77658,-1.22436 -1.86173,-2.23127 -3.15234,-2.90625 -0.77715,-1.22435 -1.86211,-2.23042 -3.15235,-2.90625 -0.77924,-1.22687 -1.86703,-2.23485 -3.16015,-2.91211 -0.77933,-1.22611 -1.86654,-2.23204 -3.15821,-2.91015 -0.78145,-1.22956 -1.87217,-2.24033 -3.16797,-2.91993 -0.78231,-1.22977 -1.87349,-2.24179 -3.16992,-2.92187 -0.78333,-1.22887 -1.87407,-2.23934 -3.16992,-2.91992 -0.78444,-1.23114 -1.87625,-2.24364 -3.17383,-2.92578 -0.78521,-1.23202 -1.87875,-2.2466 -3.17773,-2.92969 -0.78585,-1.23232 -1.88078,-2.24563 -3.17969,-2.92969 -0.78784,-1.23443 -1.88413,-2.25023 -3.18555,-2.93555 -0.78834,-1.23462 -1.88392,-2.25145 -3.18554,-2.9375 -0.78981,-1.23676 -1.88774,-2.25416 -3.19141,-2.9414 -0.79079,-1.23667 -1.88921,-2.25544 -3.19336,-2.94336 -0.79219,-1.23816 -1.89356,-2.2584 -3.19922,-2.94727 -0.79211,-1.23693 -1.89114,-2.25562 -3.19531,-2.94531 -1.51666,-2.36809 -4.16459,-3.94141 -7.18555,-3.94141 h -34.13281 c -4.71307,0 -8.53516,3.82014 -8.53516,8.53321 v 153.84765 c -0.48527,-0.43344 -1.0145,-0.81833 -1.58984,-1.13281 -0.7669,-1.15754 -1.80774,-2.11835 -3.03125,-2.78711 -0.7685,-1.15994 -1.81225,-2.12212 -3.03906,-2.79101 -0.7686,-1.16078 -1.81004,-2.12382 -3.03711,-2.79297 -0.76993,-1.16289 -1.81465,-2.12741 -3.04492,-2.79688 -0.76957,-1.16205 -1.81168,-2.12756 -3.04102,-2.79687 -0.77095,-1.16573 -1.81952,-2.13245 -3.05273,-2.80274 -0.77043,-1.16489 -1.81517,-2.13264 -3.04688,-2.80273 -0.77245,-1.16924 -1.82147,-2.13947 -3.05859,-2.81055 -0.77216,-1.1683 -1.82083,-2.13791 -3.05664,-2.80859 -0.77167,-1.16809 -1.82113,-2.13956 -3.05664,-2.81055 -0.77313,-1.17235 -1.82656,-2.14418 -3.06641,-2.8164 -0.77388,-1.1733 -1.82706,-2.14617 -3.06836,-2.81836 -0.77449,-1.17498 -1.82727,-2.14962 -3.07031,-2.82227 -0.77414,-1.17554 -1.82772,-2.15116 -3.07031,-2.82422 -0.77444,-1.17649 -1.83027,-2.15269 -3.07422,-2.82617 -0.77656,-1.18107 -1.83668,-2.15967 -3.08594,-2.83398 -0.77626,-1.18006 -1.83414,-2.15814 -3.08203,-2.83204 -0.77648,-1.1817 -1.83481,-2.1613 -3.08399,-2.83593 -0.7778,-1.18445 -1.83932,-2.16468 -3.09179,-2.83985 -0.77796,-1.18497 -1.83848,-2.1664 -3.0918,-2.84179 -0.77792,-1.18598 -1.84022,-2.16793 -3.09375,-2.84375 -0.77875,-1.1883 -1.84329,-2.17113 -3.09961,-2.84766 -0.7804,-1.19175 -1.84732,-2.1784 -3.10742,-2.85547 -0.77933,-1.18899 -1.84456,-2.17324 -3.10156,-2.84961 -0.78005,-1.19268 -1.8472,-2.17966 -3.10743,-2.85742 -0.78099,-1.19393 -1.85082,-2.18154 -3.11328,-2.85938 -0.78166,-1.1962 -1.85056,-2.18671 -3.11523,-2.86523 -0.78231,-1.19682 -1.85364,-2.18689 -3.11914,-2.86523 -0.7821,-1.19764 -1.85303,-2.18629 -3.11914,-2.86524 -0.78278,-1.20009 -1.85457,-2.19333 -3.12305,-2.87305 -0.78368,-1.2022 -1.86001,-2.19484 -3.13086,-2.875 -0.78448,-1.20357 -1.86021,-2.19864 -3.13281,-2.8789 -0.78355,-1.2024 -1.85852,-2.19675 -3.12891,-2.87695 -0.7859,-1.20793 -1.86556,-2.20527 -3.14258,-2.88672 -0.78482,-1.20571 -1.86275,-2.20184 -3.13671,-2.88282 -0.78562,-1.20878 -1.86723,-2.20662 -3.14454,-2.88867 -0.78616,-1.21019 -1.86768,-2.21018 -3.14648,-2.89258 -0.78707,-1.21242 -1.87109,-2.21361 -3.15234,-2.89648 -0.78691,-1.21242 -1.86973,-2.21362 -3.15039,-2.89649 -0.78883,-1.21647 -1.87427,-2.22064 -3.16016,-2.90429 -0.78797,-1.21465 -1.87253,-2.21705 -3.15625,-2.90039 -0.78871,-1.21767 -1.87555,-2.22387 -3.16211,-2.90821 -0.78906,-1.21846 -1.87854,-2.22372 -3.16602,-2.9082 -0.79002,-1.22137 -1.87949,-2.22884 -3.16992,-2.91406 -0.79055,-1.2226 -1.88201,-2.23057 -3.17383,-2.91602 -0.79013,-1.22239 -1.88065,-2.23037 -3.17187,-2.91601 -0.79226,-1.22745 -1.88863,-2.23721 -3.18555,-2.92383 -0.79137,-1.22536 -1.88317,-2.23566 -3.17773,-2.92188 -0.79213,-1.22874 -1.88791,-2.24234 -3.18555,-2.92968 -0.79285,-1.22933 -1.89063,-2.24257 -3.18945,-2.92969 -0.79379,-1.23205 -1.89169,-2.24777 -3.19336,-2.93555 -0.79379,-1.23204 -1.89169,-2.24582 -3.19336,-2.93359 -1.51717,-2.35955 -4.15938,-3.92578 -7.17383,-3.92578 h -21.56445 c -0.63647,-0.66938 -1.37732,-1.23658 -2.20117,-1.67188 -0.79381,-1.23219 -1.89158,-2.24771 -3.19336,-2.93554 -1.51717,-2.35955 -4.15938,-3.92579 -7.17383,-3.92579 z"
         style="fill:#000001;fill-opacity:0.247059;stroke-width:0.999999"
         id="path728" />
      <g
         style="fill:#e9e3e5;fill-opacity:1"
         transform="translate(0,27.781229)"
         id="g218">
        <g
           style="fill:#e9e3e5;fill-opacity:1"
           id="g108"
           transform="matrix(0.62250802,0,0,0.62250802,-33.525705,20.903173)">
          <g
             style="fill:#e9e3e5;fill-opacity:1"
             id="g44">
            <g
               style="fill:#e9e3e5;fill-opacity:1"
               id="g42">
              <g
                 style="fill:#e9e3e5;fill-opacity:1"
                 id="g40">
                <path
                   style="fill:#e9e3e5;fill-opacity:1"
                   id="path26"
                   d="M 451.713,275.621 V 99.53 H 436.401 V 275.621 H 53.593 V 99.53 H 38.281 V 275.621 H 0 v 91.874 h 489.994 v -91.874 z m 22.968,38.283 H 222.028 v 15.312 h 252.653 v 22.969 H 15.312 v -10e-4 -61.249 h 459.369 z" />
                <rect
                   style="fill:#e9e3e5;fill-opacity:1"
                   id="rect28"
                   height="15.312"
                   width="76.561996"
                   y="375.151"
                   x="30.625" />
                <rect
                   style="fill:#e9e3e5;fill-opacity:1"
                   id="rect30"
                   height="15.312"
                   width="76.561996"
                   y="375.151"
                   x="382.80701" />
                <rect
                   style="fill:#e9e3e5;fill-opacity:1"
                   id="rect32"
                   height="15.312"
                   width="15.312"
                   y="313.90201"
                   x="38.280998" />
                <rect
                   style="fill:#e9e3e5;fill-opacity:1"
                   id="rect34"
                   height="15.312"
                   width="15.312"
                   y="313.90201"
                   x="84.218002" />
                <rect
                   style="fill:#e9e3e5;fill-opacity:1"
                   id="rect36"
                   height="15.312"
                   width="15.312"
                   y="313.90201"
                   x="130.155" />
                <rect
                   style="fill:#e9e3e5;fill-opacity:1"
                   id="rect38"
                   height="15.312"
                   width="15.312"
                   y="313.90201"
                   x="176.091" />
              </g>
            </g>
          </g>
          <g
             style="fill:#e9e3e5;fill-opacity:1"
             id="g46" />
          <g
             style="fill:#e9e3e5;fill-opacity:1"
             id="g48" />
          <g
             style="fill:#e9e3e5;fill-opacity:1"
             id="g50" />
          <g
             style="fill:#e9e3e5;fill-opacity:1"
             id="g52" />
          <g
             style="fill:#e9e3e5;fill-opacity:1"
             id="g54" />
          <g
             style="fill:#e9e3e5;fill-opacity:1"
             id="g56" />
          <g
             style="fill:#e9e3e5;fill-opacity:1"
             id="g58" />
          <g
             style="fill:#e9e3e5;fill-opacity:1"
             id="g60" />
          <g
             style="fill:#e9e3e5;fill-opacity:1"
             id="g62" />
          <g
             style="fill:#e9e3e5;fill-opacity:1"
             id="g64" />
          <g
             style="fill:#e9e3e5;fill-opacity:1"
             id="g66" />
          <g
             style="fill:#e9e3e5;fill-opacity:1"
             id="g68" />
          <g
             style="fill:#e9e3e5;fill-opacity:1"
             id="g70" />
          <g
             style="fill:#e9e3e5;fill-opacity:1"
             id="g72" />
          <g
             style="fill:#e9e3e5;fill-opacity:1"
             id="g74" />
        </g>
        <g
           style="fill:#e9e3e5;fill-opacity:1"
           id="g171"
           transform="matrix(0.26458333,0,0,0.26458333,51.253428,27.298936)">
          <g
             style="fill:#e9e3e5;fill-opacity:1"
             id="g114">
            <g
               style="fill:#e9e3e5;fill-opacity:1"
               id="g112">
              <path
                 style="fill:#e9e3e5;fill-opacity:1"
                 id="path110"
                 d="m 435.2,0 h -34.133 c -4.713,0 -8.533,3.82 -8.533,8.533 v 400.956 c 0,28.223 -22.98,51.2 -51.2,51.2 L 230.391,460.8 c -28.209,0 -51.191,-22.983 -51.191,-51.2 v -68.267 h 17.067 c 3.746,0 7.054,-2.443 8.156,-6.024 l 20.963,-68.131 c 0.025,-0.077 0.048,-0.154 0.071,-0.231 l 13.099,-42.571 c 0.25,-0.813 0.377,-1.659 0.377,-2.51 V 110.933 c 0,-4.713 -3.82,-8.533 -8.533,-8.533 V 17.067 c 0,-4.713 -3.821,-8.533 -8.533,-8.533 h -25.6 c 0,-4.713 -3.82,-8.533 -8.533,-8.533 h -68.267 c -4.713,0 -8.533,3.82 -8.533,8.533 h -25.6 c -4.713,0 -8.533,3.821 -8.533,8.533 V 102.4 c -4.713,0 -8.533,3.82 -8.533,8.533 v 110.933 c 0,0.851 0.127,1.697 0.377,2.51 l 2.615,8.5 c 0.012,0.038 0.023,0.076 0.035,0.114 l 10.453,33.973 c 0.02,0.067 0.04,0.134 0.061,0.2 l 10.474,34.04 c 0,0 0,0 0,0.001 l 10.494,34.105 c 1.102,3.581 4.41,6.024 8.156,6.024 H 128 V 409.6 c 0,56.468 45.932,102.4 102.4,102.4 l 110.942,-0.111 c 56.462,0 102.391,-45.927 102.391,-102.4 V 8.533 C 443.733,3.82 439.913,0 435.2,0 Z M 213.333,25.6 v 76.8 H 196.266 179.2 V 85.333 h 8.533 c 4.713,0 8.533,-3.82 8.533,-8.533 V 25.6 Z m -76.8,93.867 h 34.133 15.992 c -3.788,14.725 -17.149,25.6 -33.059,25.6 -15.909,0 -29.271,-10.875 -33.059,-25.6 z M 179.2,17.067 v 51.2 h -8.533 c -4.713,0 -8.533,3.821 -8.533,8.533 v 25.6 H 145.067 V 76.8 c 0,-4.713 -3.82,-8.533 -8.533,-8.533 H 128 v -51.2 z M 93.867,25.6 h 17.067 v 51.2 c 0,4.713 3.82,8.533 8.533,8.533 H 128 V 102.4 H 110.933 93.867 Z m 18.118,281.6 h 16.011 c 4.713,0 8.533,-3.82 8.533,-8.533 0,-4.713 -3.82,-8.533 -8.533,-8.533 h -21.262 l -5.251,-17.067 h 26.519 c 4.713,0 8.533,-3.82 8.533,-8.533 0,-4.713 -3.82,-8.533 -8.533,-8.533 h -31.77 l -5.251,-17.067 h 37.017 c 4.713,0 8.533,-3.82 8.533,-8.533 0,-4.713 -3.82,-8.533 -8.533,-8.533 h -42.27 l -0.395,-1.283 V 204.8 H 128 c 4.713,0 8.533,-3.82 8.533,-8.533 0,-4.713 -3.82,-8.533 -8.533,-8.533 H 85.333 v -68.267 h 17.788 c 4.063,24.216 25.106,42.667 50.479,42.667 25.373,0 46.416,-18.45 50.479,-42.667 h 17.788 v 68.267 H 179.2 c -4.713,0 -8.533,3.82 -8.533,8.533 0,4.713 3.82,8.533 8.533,8.533 h 42.667 v 15.784 l -0.395,1.283 H 179.2 c -4.713,0 -8.533,3.82 -8.533,8.533 0,4.713 3.82,8.533 8.533,8.533 h 37.021 L 210.969,256 H 179.2 c -4.713,0 -8.533,3.821 -8.533,8.533 0,4.712 3.82,8.533 8.533,8.533 h 26.518 l -5.251,17.067 H 179.2 c -4.713,0 -8.533,3.82 -8.533,8.533 0,4.713 3.82,8.533 8.533,8.533 h 16.015 l -5.251,17.067 h -19.297 -34.133 -19.297 z m 314.682,102.289 c 0,47.047 -38.288,85.333 -85.333,85.333 l -110.942,0.111 c -47.033,0 -85.325,-38.292 -85.325,-85.333 v -68.267 h 17.067 V 409.6 c 0,37.643 30.624,68.267 68.267,68.267 l 110.942,-0.111 c 37.637,0 68.258,-30.618 68.258,-68.267 V 17.067 h 17.067 v 392.422 z" />
            </g>
          </g>
          <g
             style="fill:#e9e3e5;fill-opacity:1"
             id="g116" />
          <g
             style="fill:#e9e3e5;fill-opacity:1"
             id="g118" />
          <g
             style="fill:#e9e3e5;fill-opacity:1"
             id="g120" />
          <g
             style="fill:#e9e3e5;fill-opacity:1"
             id="g122" />
          <g
             style="fill:#e9e3e5;fill-opacity:1"
             id="g124" />
          <g
             style="fill:#e9e3e5;fill-opacity:1"
             id="g126" />
          <g
             style="fill:#e9e3e5;fill-opacity:1"
             id="g128" />
          <g
             style="fill:#e9e3e5;fill-opacity:1"
             id="g130" />
          <g
             style="fill:#e9e3e5;fill-opacity:1"
             id="g132" />
          <g
             style="fill:#e9e3e5;fill-opacity:1"
             id="g134" />
          <g
             style="fill:#e9e3e5;fill-opacity:1"
             id="g136" />
          <g
             style="fill:#e9e3e5;fill-opacity:1"
             id="g138" />
          <g
             style="fill:#e9e3e5;fill-opacity:1"
             id="g140" />
          <g
             style="fill:#e9e3e5;fill-opacity:1"
             id="g142" />
          <g
             style="fill:#e9e3e5;fill-opacity:1"
             id="g144" />
        </g>
      </g>
    </g>
  </g>
</svg>
