<?xml version="1.0" encoding="UTF-8" standalone="no"?>
<svg
   xmlns:dc="http://purl.org/dc/elements/1.1/"
   xmlns:cc="http://creativecommons.org/ns#"
   xmlns:rdf="http://www.w3.org/1999/02/22-rdf-syntax-ns#"
   xmlns:svg="http://www.w3.org/2000/svg"
   xmlns="http://www.w3.org/2000/svg"
   xmlns:sodipodi="http://sodipodi.sourceforge.net/DTD/sodipodi-0.dtd"
   xmlns:inkscape="http://www.inkscape.org/namespaces/inkscape"
   sodipodi:docname="webappI.svg"
   inkscape:version="1.0 (4035a4fb49, 2020-05-01)"
   inkscape:export-ydpi="96"
   inkscape:export-xdpi="96"
   inkscape:export-filename="C:\Users\linos\Desktop\webappI new.png"
   width="67.733337mm"
   height="67.733337mm"
   viewBox="0 0 67.733338 67.733338"
   version="1.1"
   id="svg8">
  <defs
     id="defs2">
    <rect
       id="rect864"
       height="147.41071"
       width="223.7619"
       y="60.476189"
       x="-380.24405" />
    <rect
       x="-380.24405"
       y="60.476189"
       width="223.7619"
       height="147.41071"
       id="rect890" />
  </defs>
  <sodipodi:namedview
     inkscape:window-maximized="1"
     inkscape:window-y="-9"
     inkscape:window-x="-9"
     inkscape:window-height="1013"
     inkscape:window-width="1920"
     showgrid="false"
     inkscape:document-rotation="0"
     inkscape:current-layer="layer1"
     inkscape:document-units="mm"
     inkscape:cy="1031.4286"
     inkscape:cx="513.33337"
     inkscape:zoom="0.35"
     inkscape:pageshadow="2"
     inkscape:pageopacity="0.0"
     borderopacity="1.0"
     bordercolor="#666666"
     pagecolor="#ffffff"
     id="base" />
  <metadata
     id="metadata5">
    <rdf:RDF>
      <cc:Work
         rdf:about="">
        <dc:format>image/svg+xml</dc:format>
        <dc:type
           rdf:resource="http://purl.org/dc/dcmitype/StillImage" />
        <dc:title />
        <cc:license
           rdf:resource="http://creativecommons.org/licenses/by-sa/4.0/" />
      </cc:Work>
      <cc:License
         rdf:about="http://creativecommons.org/licenses/by-sa/4.0/">
        <cc:permits
           rdf:resource="http://creativecommons.org/ns#Reproduction" />
        <cc:permits
           rdf:resource="http://creativecommons.org/ns#Distribution" />
        <cc:requires
           rdf:resource="http://creativecommons.org/ns#Notice" />
        <cc:requires
           rdf:resource="http://creativecommons.org/ns#Attribution" />
        <cc:permits
           rdf:resource="http://creativecommons.org/ns#DerivativeWorks" />
        <cc:requires
           rdf:resource="http://creativecommons.org/ns#ShareAlike" />
      </cc:License>
    </rdf:RDF>
  </metadata>
  <g
     transform="translate(161.77382,124.73216)"
     id="layer1"
     inkscape:groupmode="layer"
     inkscape:label="Livello 1">
    <g
       transform="matrix(0.12500001,0,0,0.12500001,-141.55209,-109.14064)"
       id="g25">
      <rect
         style="fill:#34495e;fill-opacity:1;stroke-width:0.264583"
         id="rect10"
         width="541.86664"
         height="541.86664"
         x="-161.77382"
         y="-124.73216" />
      <path
         id="path928"
         style="font-style:normal;font-variant:normal;font-weight:normal;font-stretch:normal;font-size:10.5833px;line-height:1.25;font-family:'Hobo Std';-inkscape-font-specification:'Hobo Std, Normal';font-variant-ligatures:normal;font-variant-caps:normal;font-variant-numeric:normal;font-variant-east-asian:normal;letter-spacing:0px;word-spacing:0px;white-space:pre;fill:#000001;fill-opacity:0.247059;stroke:none;stroke-width:56.3452"
         d="m -174.57227,-97.429688 c -34.82229,0 -62.85546,28.034557 -62.85546,62.857422 V 1139.7168 c 0,18.518 7.92832,35.1155 20.58984,46.5996 1.06319,1.118 2.15402,2.2093 3.29687,3.2461 1.06206,1.1171 2.15319,2.2063 3.29493,3.2422 1.06377,1.1193 2.15687,2.2103 3.30078,3.248 1.05811,1.1133 2.14565,2.2001 3.2832,3.2325 1.06175,1.1177 2.15297,2.208 3.29492,3.2441 1.05739,1.113 2.14418,2.1967 3.28125,3.2285 1.06103,1.1172 2.15152,2.205 3.29297,3.2402 1.05311,1.1085 2.1351,2.1892 3.26758,3.2168 1.05957,1.1161 2.14893,2.2024 3.28906,3.2364 1.0543,1.1099 2.13732,2.1921 3.27149,3.2207 1.05501,1.1109 2.14021,2.1934 3.27539,3.2226 1.05067,1.1062 2.13139,2.184 3.26172,3.209 1.05302,1.1091 2.13435,2.1895 3.26757,3.2168 1.04576,1.1013 2.11912,2.1748 3.24414,3.1953 1.05392,1.1108 2.13879,2.1921 3.27344,3.2207 1.04795,1.1038 2.12409,2.1789 3.25196,3.2012 1.0471,1.103 2.12487,2.1776 3.25195,3.1992 1.039,1.0946 2.10669,2.1615 3.22461,3.1758 1.04872,1.106 2.12842,2.1831 3.25781,3.207 1.04654,1.1031 2.12303,2.1761 3.25,3.1973 1.03931,1.0951 2.1078,2.1616 3.22656,3.1758 1.04111,1.0976 2.11332,2.1654 3.23438,3.1816 1.03836,1.0949 2.10654,2.1621 3.22461,3.1758 1.04075,1.0978 2.1114,2.1656 3.23242,3.1816 1.04117,1.0981 2.11273,2.1656 3.23437,3.1817 1.03047,1.0864 2.08979,2.1443 3.19922,3.1504 1.04027,1.0979 2.11142,2.164 3.23242,3.1797 1.0346,1.0912 2.09834,2.1522 3.21289,3.1621 1.0287,1.0851 2.08739,2.142 3.19532,3.1465 1.03527,1.0929 2.10102,2.1549 3.21679,3.166 1.03283,1.09 2.09592,2.1518 3.20899,3.1601 1.03329,1.0904 2.09719,2.1498 3.21094,3.1582 1.02292,1.0791 2.07581,2.1283 3.17773,3.127 1.0308,1.0885 2.09185,2.1477 3.20313,3.1543 1.02649,1.0834 2.08497,2.1367 3.1914,3.1386 1.02724,1.0845 2.08394,2.1398 3.19141,3.1426 1.024531,1.0816 2.079096,2.1327 3.183592,3.1328 1.021861,1.0788 2.0742,2.1274 3.175781,3.125 1.02046,1.0777 2.071705,2.1265 3.171875,3.1231 1.022549,1.0802 2.076909,2.1303 3.179688,3.1289 1.021756,1.0794 2.073767,2.1293 3.175781,3.1269 1.015572,1.0727 2.063186,2.1157 3.158203,3.1075 1.023999,1.0822 2.078608,2.1349 3.183594,3.1347 1.010471,1.067 2.051202,2.1033 3.140625,3.0899 1.018645,1.0767 2.068818,2.1223 3.167969,3.1172 1.012742,1.0701 2.055983,2.1105 3.148437,3.0996 1.009797,1.0674 2.051369,2.1032 3.140625,3.0898 1.018272,1.0772 2.068682,2.1244 3.167969,3.1192 1.011083,1.0685 2.053495,2.1065 3.144531,3.0937 1.01316,1.071 2.056773,2.1125 3.150391,3.1016 1.002827,1.0595 2.035398,2.0892 3.117187,3.0683 1.009812,1.0682 2.05242,2.1054 3.142578,3.0918 0.99987,1.0574 2.030578,2.0855 3.109375,3.0625 1.010881,1.0704 2.054653,2.1097 3.146485,3.0977 1.004019,1.0621 2.041043,2.0934 3.125,3.0742 1.000079,1.0581 2.031745,2.0853 3.111328,3.0625 1.003834,1.0627 2.04084,2.0932 3.125,3.0742 1.001849,1.0605 2.035182,2.0915 3.117187,3.0703 0.999736,1.0582 2.031612,2.0838 3.111328,3.0606 1.002455,1.0611 2.036093,2.0912 3.119141,3.0703 0.994504,1.0522 2.021749,2.0735 3.095703,3.0449 0.994373,1.0527 2.019714,2.0752 3.09375,3.0469 0.998704,1.0579 2.030101,2.0846 3.109375,3.0605 0.995749,1.0543 2.023648,2.0782 3.09961,3.0508 0.993128,1.0513 2.018721,2.0711 3.0917964,3.041 0.9892193,1.0473 2.0093945,2.0649 3.078125,3.0313 0.9920147,1.051 2.0156842,2.0716 3.0878906,3.041 0.9902403,1.049 2.01367553,2.0657 3.08398438,3.0332 0.98828492,1.0469 2.00796132,2.0617 3.07617182,3.0273 0.9856182,1.0445 2.0030483,2.0582 3.0683594,3.0215 0.9887139,1.0482 2.0109578,2.0649 3.0800782,3.0313 0.9883542,1.0474 2.0092902,2.0638 3.0781252,3.0293 0.978087,1.0361 1.987871,2.0403 3.044922,2.9961 0.987263,1.0471 2.008174,2.0642 3.076171,3.0293 0.97892,1.0375 1.990422,2.0432 3.048829,3 0.983638,1.0432 2.000322,2.0542 3.064453,3.0156 0.978757,1.0377 1.990241,2.0435 3.048828,3 0.973378,1.0323 1.978701,2.0345 3.03125,2.9863 0.982151,1.0427 1.997532,2.0532 3.060547,3.0137 0.980751,1.0404 1.995169,2.0495 3.05664,3.0078 0.975625,1.0343 1.985403,2.0354 3.041016,2.9883 0.967979,1.0263 1.968711,2.0208 3.015625,2.9668 0.969534,1.0292 1.970505,2.0281 3.019531,2.9765 0.979313,1.0404 1.994045,2.0463 3.054688,3.004 0.96942,1.0285 1.97231,2.0252 3.021484,2.9726 0.966532,1.0258 1.965691,2.0218 3.011719,2.9668 0.96932,1.0296 1.971972,2.0266 3.021484,2.9746 0.9676,1.0277 1.969903,2.0225 3.017578,2.9688 0.963781,1.0236 1.960499,2.0144 3.003907,2.957 0.969108,1.0299 1.973593,2.0268 3.023437,2.9746 0.9606,1.0201 1.954102,2.0079 2.994141,2.9473 0.966252,1.0269 1.966797,2.0218 3.013672,2.9668 0.959874,1.0196 1.952623,2.0067 2.992187,2.9453 0.960423,1.0207 1.955666,2.0098 2.996094,2.9492 0.963839,1.0245 1.961267,2.0166 3.005859,2.959 0.954261,1.0136 1.94107,1.9947 2.97461,2.9277 0.957472,1.018 1.95073,2.0029 2.988281,2.9395 0.960265,1.0211 1.953152,2.0101 2.99414,2.9492 0.954199,1.014 1.942539,1.9949 2.976563,2.9277 0.951035,1.0111 1.936249,1.9897 2.966797,2.9199 0.955136,1.0161 1.942936,1.9994 2.978518,2.9336 0.94743,1.0076 1.92833,1.9813 2.95508,2.9082 0.95724,1.019 1.94982,2.0031 2.98828,2.9395 0.94518,1.005 1.92282,1.9779 2.94726,2.9023 0.95068,1.0118 1.93762,1.9899 2.96875,2.92 0.94614,1.0066 1.9252,1.9807 2.95117,2.9062 0.94742,1.0084 1.93131,1.9834 2.95899,2.9102 0.94047,1.0008 1.91385,1.9684 2.93359,2.8886 0.95338,1.0157 1.94148,1.9971 2.97656,2.9297 0.93377,0.9931 1.90188,1.9539 2.91407,2.8672 0.94459,1.0065 1.92402,1.9798 2.94922,2.9043 0.93728,0.9983 1.90898,1.9634 2.92578,2.8809 0.94019,1.002 1.91705,1.9681 2.9375,2.8886 0.93915,1.0009 1.9142,1.9674 2.93359,2.8868 0.93252,0.9936 1.90029,1.954 2.91211,2.8672 0.94516,1.008 1.92625,1.9831 2.95313,2.9082 0.92905,0.9892 1.8943,1.9445 2.90234,2.8535 0.94016,1.0024 1.91421,1.9707 2.93555,2.8906 0.92976,0.9903 1.89506,1.9479 2.90429,2.8574 0.93135,0.9927 1.89687,1.9519 2.90821,2.8633 0.93041,0.9918 1.8958,1.9508 2.90625,2.8613 0.92726,0.9886 1.88952,1.942 2.89648,2.8496 0.9253,0.9872 1.88572,1.9414 2.89063,2.8477 0.93266,0.9956 1.90225,1.9559 2.91601,2.8691 0.92381,0.9851 1.88325,1.9357 2.88672,2.8399 0.92435,0.9862 1.88433,1.9387 2.88867,2.8437 0.9255,0.9876 1.88669,1.9417 2.89258,2.8477 0.92453,0.9865 1.88376,1.9389 2.88867,2.8437 0.17532,0.1871 0.35913,0.3663 0.53711,0.5508 H 1436.5703 V 319.42578 c -0.089,-0.0842 -0.1741,-0.17229 -0.2637,-0.25586 -0.9424,-1.04735 -1.9348,-2.04875 -2.9648,-3.00976 -0.9407,-1.04542 -1.9312,-2.04431 -2.959,-3.00391 -0.9432,-1.04864 -1.9361,-2.05114 -2.9668,-3.01367 -0.9505,-1.05684 -1.9512,-2.06753 -2.9902,-3.03711 -0.9441,-1.04872 -1.9377,-2.05075 -2.9688,-3.01367 -0.9501,-1.05597 -1.9502,-2.06595 -2.9882,-3.03516 -0.9461,-1.05085 -1.9435,-2.05444 -2.9766,-3.01953 -0.9519,-1.0579 -1.9524,-2.06979 -2.9922,-3.04102 -0.9479,-1.05314 -1.9475,-2.05796 -2.9824,-3.02539 -0.9552,-1.06167 -1.9587,-2.07597 -3.002,-3.05078 -0.9567,-1.06299 -1.9628,-2.07865 -3.0078,-3.05469 -0.9547,-1.06006 -1.9597,-2.07314 -3.0019,-3.04687 -0.9536,-1.05868 -1.9574,-2.0702 -2.9981,-3.04297 -0.9563,-1.06211 -1.9601,-2.0788 -3.0039,-3.05469 -0.9587,-1.06487 -1.9691,-2.0802 -3.0156,-3.05859 -0.9622,-1.06855 -1.975,-2.09063 -3.0254,-3.07227 -0.9596,-1.06497 -1.9686,-2.08371 -3.0156,-3.0625 -0.962,-1.06772 -1.9738,-2.08902 -3.0235,-3.07031 -0.9595,-1.06493 -1.9709,-2.08141 -3.0176,-3.06055 -0.9641,-1.07059 -1.9772,-2.09595 -3.0292,-3.08007 -0.9645,-1.07077 -1.9792,-2.09368 -3.0313,-3.07813 -0.9657,-1.07206 -1.9818,-2.0963 -3.0352,-3.08203 -0.9668,-1.07315 -1.9845,-2.09912 -3.039,-3.08594 -0.9677,-1.07398 -1.9858,-2.10017 -3.041,-3.08789 -0.97,-1.07656 -1.9911,-2.10563 -3.0489,-3.0957 -0.9706,-1.0771 -1.9924,-2.10697 -3.0507,-3.09766 -0.9744,-1.08106 -2,-2.11323 -3.0625,-3.10742 -0.966,-1.07122 -1.9808,-2.09595 -3.0332,-3.08203 -0.9766,-1.08403 -2.0056,-2.12006 -3.0704,-3.11719 -0.9781,-1.08502 -2.0078,-2.12301 -3.0742,-3.12109 -0.9728,-1.07852 -1.9948,-2.11076 -3.0547,-3.10352 -0.9758,-1.08239 -2.0031,-2.11507 -3.0664,-3.11133 -0.9769,-1.08382 -2.0039,-2.11951 -3.0683,-3.11718 -0.9824,-1.09004 -2.0172,-2.13169 -3.0879,-3.13477 -0.9757,-1.08189 -2.0019,-2.11494 -3.0645,-3.11133 -0.9852,-1.0931 -2.0201,-2.13847 -3.0937,-3.14453 -0.9834,-1.09028 -2.0187,-2.13292 -3.0899,-3.13672 -0.9851,-1.09199 -2.0226,-2.13522 -3.0957,-3.14062 -0.9795,-1.08558 -2.0099,-2.12286 -3.0761,-3.12305 -0.9888,-1.09662 -2.0286,-2.14455 -3.1055,-3.1543 -0.9835,-1.09014 -2.0173,-2.13228 -3.0879,-3.13671 -0.9915,-1.09963 -2.0354,-2.14946 -3.1152,-3.16211 -0.9891,-1.09621 -2.0288,-2.1444 -3.1055,-3.1543 -0.987,-1.09382 -2.0256,-2.14036 -3.0996,-3.14844 -0.9952,-1.10339 -2.0415,-2.15746 -3.125,-3.17383 -0.989,-1.09574 -2.0295,-2.14228 -3.1055,-3.15234 -0.9995,-1.10798 -2.0504,-2.1669 -3.1387,-3.1875 -0.9907,-1.09722 -2.0336,-2.14463 -3.1113,-3.15625 -0.9936,-1.10102 -2.0382,-2.15484 -3.1191,-3.16992 -0.9996,-1.10799 -2.0509,-2.16633 -3.1387,-3.1875 -0.9991,-1.10682 -2.0517,-2.16524 -3.1387,-3.18555 -0.9969,-1.10421 -2.0447,-2.15945 -3.1289,-3.17773 -0.9987,-1.10655 -2.0505,-2.16508 -3.1367,-3.18555 -1.0041,-1.11245 -2.062,-2.17552 -3.1543,-3.20117 -0.9997,-1.10708 -2.0498,-2.16625 -3.1367,-3.1875 -1.0006,-1.10855 -2.0547,-2.16672 -3.1426,-3.18946 -1.0059,-1.11469 -2.0643,-2.18083 -3.1582,-3.20898 -1.0058,-1.1142 -2.0646,-2.17916 -3.1582,-3.20703 -1.0065,-1.11488 -2.0659,-2.18037 -3.1601,-3.20899 -1.011,-1.11966 -2.0748,-2.18981 -3.1739,-3.22265 -1.0093,-1.11741 -2.0709,-2.18378 -3.1679,-3.21485 -1.0048,-1.11219 -2.0609,-2.17627 -3.1524,-3.20312 -1.0176,-1.12733 -2.0889,-2.20425 -3.1953,-3.24414 -1.0092,-1.1168 -2.0698,-2.18377 -3.166,-3.21484 -1.0113,-1.11971 -2.0752,-2.18889 -3.1738,-3.22266 -1.0198,-1.12928 -2.0929,-2.20989 -3.2012,-3.25195 -1.0128,-1.12063 -2.0798,-2.19171 -3.1797,-3.22657 -1.014,-1.12251 -2.0804,-2.1938 -3.1816,-3.23046 -1.0194,-1.1287 -2.0919,-2.20788 -3.1993,-3.25 -1.0234,-1.1329 -2.1009,-2.21591 -3.2129,-3.26172 -1.0116,-1.119028 -2.0759,-2.188458 -3.1738,-3.22266 -1.0283,-1.138888 -2.1111,-2.226026 -3.2285,-3.277344 -1.0183,-1.126387 -2.09,-2.203334 -3.1953,-3.24414 -1.0247,-1.134033 -2.1023,-2.218106 -3.2149,-3.265625 -1.0245,-1.133617 -2.1025,-2.218304 -3.2148,-3.265625 -1.0254,-1.134322 -2.1058,-2.217529 -3.2187,-3.265625 -1.0248,-1.133607 -2.1028,-2.217954 -3.2149,-3.265625 -1.0297,-1.139428 -2.1127,-2.228436 -3.2305,-3.28125 -1.0284,-1.137561 -2.1105,-2.225974 -3.2265,-3.277344 -1.0316,-1.140945 -2.1169,-2.230738 -3.2363,-3.285156 -1.0269,-1.135579 -2.1069,-2.219492 -3.2208,-3.269532 -1.0367,-1.14715 -2.1267,-2.242646 -3.2519,-3.302734 -1.0303,-1.139269 -2.115,-2.227731 -3.2324,-3.28125 -1.0356,-1.145598 -2.1246,-2.239714 -3.2481,-3.298828 -1.0371,-1.147059 -2.1288,-2.242229 -3.2539,-3.302734 -1.0368,-1.146338 -2.1274,-2.242688 -3.2519,-3.302735 -1.0377,-1.147079 -2.1286,-2.243839 -3.2539,-3.304687 -1.0401,-1.149704 -2.1339,-2.249244 -3.2618,-3.3125 -1.0336,-1.142506 -2.1218,-2.233708 -3.2421,-3.291016 -1.0428,-1.153498 -2.1388,-2.255345 -3.2696,-3.322266 -1.0477,-1.158563 -2.1507,-2.26458 -3.2871,-3.335937 -1.0428,-1.152251 -2.1391,-2.254225 -3.2695,-3.320313 -1.0431,-1.152533 -2.139,-2.253792 -3.2696,-3.320312 -1.0448,-1.154819 -2.1448,-2.257509 -3.2773,-3.326172 -1.0468,-1.157038 -2.1466,-2.263251 -3.2812,-3.333984 -1.0508,-1.161188 -2.156,-2.26932 -3.295,-3.34375 -1.0447,-1.154057 -2.1416,-2.257666 -3.2734,-3.326172 -1.0498,-1.160304 -2.1535,-2.267731 -3.291,-3.3417971 -1.0511,-1.1618113 -2.158,-2.2701754 -3.2969,-3.3457031 -1.0533,-1.1641007 -2.1615,-2.2778308 -3.3027,-3.3554688 -1.0527,-1.16305487 -2.1605,-2.2746583 -3.3008,-3.3515625 -1.0546,-1.1652479 -2.1642,-2.2784737 -3.3067,-3.3574219 -1.0533,-1.163773 -2.1618,-2.2756508 -3.3027,-3.3535156 -1.0582,-1.169364 -2.1702,-2.286313 -3.3164,-3.369141 -1.0544,-1.164899 -2.165,-2.278245 -3.3066,-3.357422 -1.0652,-1.177163 -2.1858,-2.300797 -3.3399,-3.390624 -1.0552,-1.165046 -2.1645,-2.277826 -3.3066,-3.357422 -1.064,-1.175471 -2.1818,-2.297998 -3.334,-3.386719 -1.0574,-1.16763 -2.1701,-2.283063 -3.3145,-3.365235 -1.0644,-1.176146 -2.1854,-2.298994 -3.3378,-3.388671 -1.0639,-1.175141 -2.1825,-2.29775 -3.334,-3.386719 -1.0683,-1.180042 -2.1931,-2.307077 -3.3496,-3.400391 -1.0649,-1.175677 -2.1856,-2.298945 -3.3379,-3.388672 -1.0688,-1.18025 -2.1949,-2.308523 -3.3516,-3.402343 -1.0691,-1.180272 -2.1927,-2.308359 -3.3496,-3.402344 -1.0665,-1.177319 -2.1882,-2.302893 -3.3418,-3.394531 -1.072,-1.183993 -2.2013,-2.314557 -3.3613,-3.41211 -1.0735,-1.185209 -2.2038,-2.317278 -3.3653,-3.416015 -1.0726,-1.183875 -2.1991,-2.316315 -3.3593,-3.414063 -1.0712,-1.182344 -2.199,-2.311579 -3.3575,-3.408203 -1.0804,-1.193141 -2.2176,-2.33145 -3.3867,-3.4375 -1.0734,-1.184385 -2.2027,-2.315386 -3.3633,-3.414062 -1.0789,-1.1911 -2.2139,-2.328968 -3.3808,-3.433594 -11.4848,-12.673973 -28.0911,-20.613282 -46.61916,-20.613282 z"
         transform="scale(0.26458333)" />
      <path
         id="path899"
         style="font-style:normal;font-variant:normal;font-weight:normal;font-stretch:normal;font-size:10.5833px;line-height:1.25;font-family:'Hobo Std';-inkscape-font-specification:'Hobo Std, Normal';font-variant-ligatures:normal;font-variant-caps:normal;font-variant-numeric:normal;font-variant-east-asian:normal;letter-spacing:0px;word-spacing:0px;white-space:pre;fill:#2aac55;fill-opacity:1;stroke:none;stroke-width:14.908"
         d="m 159.05024,131.4308 v 16.72428 l 61.53276,31.23968 v 0.47333 l -61.37488,31.23968 v 17.03984 l 74.78585,-40.70627 v -15.46206 z m -19.93398,-18.45982 c 2.20877,-5.04884 4.25997,-8.67769 4.25997,-10.571 0,-3.313295 -4.10224,-4.259955 -6.46889,-4.259955 -10.41326,0 -12.30659,0.94666 -19.40639,19.564245 l -37.708528,98.29457 c -1.26271,3.15553 -5.048903,12.6221 -5.048903,15.61983 0,1.73555 1.735593,2.52443 3.31331,2.52443 8.362215,0 11.044319,-7.88881 12.779912,-11.67544 z M 59.269128,228.14761 V 211.10777 L -2.2636328,179.71032 v -0.31561 L 59.111401,148.15503 v -16.72428 l -74.786003,40.54848 V 187.4413 Z M 27.516656,8.391066 A 7.5595235,7.5595235 0 0 1 19.957239,15.950587 7.5595235,7.5595235 0 0 1 12.397673,8.391066 7.5595235,7.5595235 0 0 1 19.957239,0.83154481 7.5595235,7.5595235 0 0 1 27.516656,8.391066 m -21.6958111,0 A 7.5595235,7.5595235 0 0 1 -1.738721,15.950587 7.5595235,7.5595235 0 0 1 -9.2981378,8.391066 7.5595235,7.5595235 0 0 1 -1.738721,0.83154481 7.5595235,7.5595235 0 0 1 5.8208449,8.391066 m -21.6958109,0 a 7.5595235,7.5595235 0 0 1 -7.559566,7.559521 7.5595235,7.5595235 0 0 1 -7.559417,-7.559521 7.5595235,7.5595235 0 0 1 7.559417,-7.55952119 7.5595235,7.5595235 0 0 1 7.559566,7.55952119 m -30.313996,-34.169333 c -9.213464,0 -16.630509,7.417477 -16.630509,16.6310149 V 301.54953 c 0,9.21357 7.417045,16.63105 16.630509,16.63105 H 264.50788 c 9.21362,0 16.63111,-7.41748 16.63111,-16.63105 V -9.1472521 c 0,-9.2135379 -7.41749,-16.6310149 -16.63111,-16.6310149 z m 16.3887,18.1430771 H 248.11918 c 8.24161,0 14.87658,6.6350442 14.87658,14.8766079 V 25.702305 H -44.67684 V 7.241418 c 0,-8.2415637 6.634969,-14.8766079 14.876578,-14.8766079 z M -44.67684,44.601413 h 307.6726 V 285.16088 c 0,8.24158 -6.63497,14.87662 -14.87658,14.87662 H -29.800262 c -8.241609,0 -14.876578,-6.63504 -14.876578,-14.87662 z" />
    </g>
  </g>
</svg>
