<?xml version="1.0" encoding="UTF-8" standalone="no"?>
<svg
   xmlns:dc="http://purl.org/dc/elements/1.1/"
   xmlns:cc="http://creativecommons.org/ns#"
   xmlns:rdf="http://www.w3.org/1999/02/22-rdf-syntax-ns#"
   xmlns:svg="http://www.w3.org/2000/svg"
   xmlns="http://www.w3.org/2000/svg"
   xmlns:sodipodi="http://sodipodi.sourceforge.net/DTD/sodipodi-0.dtd"
   xmlns:inkscape="http://www.inkscape.org/namespaces/inkscape"
   inkscape:version="1.0 (4035a4fb49, 2020-05-01)"
   id="svg8"
   inkscape:export-filename="C:\Users\linos\Desktop\webappII.png"
   inkscape:export-xdpi="96"
   inkscape:export-ydpi="96"
   sodipodi:docname="webappII_scalable.svg"
   version="1.1"
   viewBox="0 0 67.73333 67.733338"
   height="67.733337mm"
   width="67.73333mm">
  <defs
     id="defs2">
    <rect
       x="-380.24405"
       y="60.476189"
       width="223.7619"
       height="147.41071"
       id="rect864" />
    <rect
       id="rect4974"
       height="147.41071"
       width="223.7619"
       y="60.476189"
       x="-380.24405" />
    <rect
       id="rect62"
       height="147.41071"
       width="223.7619"
       y="60.476189"
       x="-380.24405" />
  </defs>
  <sodipodi:namedview
     id="base"
     pagecolor="#ffffff"
     bordercolor="#666666"
     borderopacity="1.0"
     inkscape:pageopacity="0.0"
     inkscape:pageshadow="2"
     inkscape:zoom="0.33822506"
     inkscape:cx="596.7356"
     inkscape:cy="1100.8679"
     inkscape:document-units="mm"
     inkscape:current-layer="layer1"
     inkscape:document-rotation="0"
     showgrid="false"
     inkscape:window-width="1920"
     inkscape:window-height="1013"
     inkscape:window-x="-9"
     inkscape:window-y="-9"
     inkscape:window-maximized="1" />
  <metadata
     id="metadata5">
    <rdf:RDF>
      <cc:Work
         rdf:about="">
        <dc:format>image/svg+xml</dc:format>
        <dc:type
           rdf:resource="http://purl.org/dc/dcmitype/StillImage" />
        <dc:title></dc:title>
        <cc:license
           rdf:resource="http://creativecommons.org/licenses/by-sa/4.0/" />
      </cc:Work>
      <cc:License
         rdf:about="http://creativecommons.org/licenses/by-sa/4.0/">
        <cc:permits
           rdf:resource="http://creativecommons.org/ns#Reproduction" />
        <cc:permits
           rdf:resource="http://creativecommons.org/ns#Distribution" />
        <cc:requires
           rdf:resource="http://creativecommons.org/ns#Notice" />
        <cc:requires
           rdf:resource="http://creativecommons.org/ns#Attribution" />
        <cc:permits
           rdf:resource="http://creativecommons.org/ns#DerivativeWorks" />
        <cc:requires
           rdf:resource="http://creativecommons.org/ns#ShareAlike" />
      </cc:License>
    </rdf:RDF>
  </metadata>
  <g
     inkscape:label="Livello 1"
     inkscape:groupmode="layer"
     id="layer1"
     transform="translate(161.77383,124.73216)">
    <g
       transform="matrix(0.125,0,0,0.12500001,-141.5521,-109.14064)"
       inkscape:export-ydpi="96"
       inkscape:export-xdpi="96"
       id="g4957">
      <rect
         y="-124.73216"
         x="-161.77383"
         height="541.86664"
         width="541.86664"
         id="rect10"
         style="fill:#34495e;fill-opacity:1;stroke-width:0.264583" />
      <path
         id="path103"
         style="font-style:normal;font-variant:normal;font-weight:normal;font-stretch:normal;font-size:10.5833px;line-height:1.25;font-family:'Hobo Std';-inkscape-font-specification:'Hobo Std, Normal';font-variant-ligatures:normal;font-variant-caps:normal;font-variant-numeric:normal;font-variant-east-asian:normal;letter-spacing:0px;word-spacing:0px;white-space:pre;fill:#000001;fill-opacity:0.247059;stroke:none;stroke-width:37.1531"
         d="m 597.08789,551.39453 c -13.44848,0.003 -25.50304,5.75625 -33.84961,14.94531 v 0.002 c -4.41829,4.86457 -7.79856,10.69211 -9.79492,17.13867 v 0.002 c -1.33065,4.29751 -2.04883,8.86914 -2.04883,13.61524 v 0.01 853.79295 0.012 c 10e-4,6.3288 1.27707,12.3482 3.58399,17.8184 h 0.002 c 0.28807,0.683 0.59039,1.3581 0.91015,2.0235 h 0.002 c 0.3198,0.6653 0.65528,1.322 1.00586,1.9688 h 0.002 c 1.4037,2.5892 3.04899,5.0271 4.9082,7.2813 h 0.002 c 0.46439,0.563 0.94118,1.1146 1.43164,1.6543 h 0.002 c 0.49049,0.5396 0.99415,1.0665 1.50977,1.582 h 0.002 v 0 h 0.002 0.002 0.004 c 10e-4,0 0.003,0 0.004,0 0.002,0 0.004,0 0.006,0.01 0.004,0 0.009,0.01 0.0137,0.012 0.001,0 0.003,0 0.004,0 0.004,0 0.006,0.01 0.01,0.012 0.009,0.01 0.0199,0.018 0.0293,0.027 0.0163,0.016 0.0325,0.033 0.0488,0.049 0.0381,0.038 0.077,0.075 0.11523,0.1133 0.006,0.01 0.0117,0.012 0.0176,0.018 h 0.002 c 0.0273,0.027 0.0546,0.055 0.082,0.082 h 0.002 c 0.008,0.01 0.0156,0.016 0.0234,0.024 0.0231,0.023 0.0472,0.045 0.0703,0.068 h 0.004 c 0.009,0.01 0.0185,0.017 0.0274,0.025 0.0182,0.018 0.0364,0.036 0.0547,0.055 0.026,0.026 0.052,0.052 0.0781,0.078 0.0137,0.013 0.0273,0.027 0.041,0.041 0.0211,0.021 0.0433,0.041 0.0645,0.062 0.0449,0.045 0.0916,0.088 0.13672,0.1328 0.0312,0.031 0.0625,0.062 0.0937,0.094 0.006,0.01 0.0117,0.012 0.0176,0.018 0.006,0.01 0.0117,0.012 0.0176,0.018 0.04,0.04 0.081,0.079 0.1211,0.1191 0.0273,0.027 0.0546,0.055 0.082,0.082 0.0215,0.022 0.0449,0.041 0.0664,0.062 0.0293,0.029 0.0585,0.059 0.0879,0.088 0.0371,0.037 0.0741,0.074 0.11133,0.1114 0.0247,0.025 0.0494,0.049 0.0742,0.074 0.0387,0.039 0.0784,0.077 0.11719,0.1152 0.0335,0.034 0.0679,0.066 0.10156,0.1 0.0342,0.034 0.0692,0.067 0.10352,0.1016 0.029,0.029 0.0589,0.057 0.0879,0.086 0.0501,0.05 0.10007,0.1004 0.15039,0.1504 0.0238,0.024 0.0485,0.047 0.0723,0.07 0.0452,0.045 0.0914,0.09 0.13672,0.1348 0.0329,0.033 0.0667,0.065 0.0996,0.098 0.0468,0.047 0.0936,0.094 0.14063,0.1406 0.0413,0.041 0.0835,0.082 0.125,0.123 0.0419,0.042 0.0848,0.083 0.12695,0.125 0.0439,0.044 0.0887,0.087 0.13281,0.1309 0.0377,0.038 0.0754,0.076 0.11328,0.1133 0.0523,0.053 0.10563,0.1039 0.15821,0.1562 0.0527,0.053 0.10722,0.1037 0.16015,0.1563 0.0342,0.034 0.0693,0.067 0.10352,0.1015 0.0617,0.062 0.12347,0.124 0.18555,0.1856 0.0364,0.036 0.0748,0.071 0.11132,0.1074 0.0572,0.057 0.1144,0.1148 0.17188,0.1719 0.051,0.051 0.10301,0.1014 0.1543,0.1523 0.0595,0.06 0.11987,0.1184 0.17968,0.1778 0.0341,0.034 0.0693,0.067 0.10352,0.1015 0.0802,0.081 0.16142,0.1602 0.24219,0.2403 0.0364,0.036 0.0748,0.071 0.11132,0.1074 0.0692,0.07 0.13939,0.138 0.20899,0.207 0.0442,0.044 0.0904,0.087 0.13476,0.1309 0.0721,0.073 0.14421,0.1448 0.2168,0.2168 0.0527,0.053 0.10723,0.1037 0.16016,0.1562 0.0601,0.06 0.12118,0.1197 0.18164,0.1797 0.0686,0.069 0.13804,0.1367 0.20703,0.2051 0.0553,0.055 0.11242,0.1089 0.16797,0.164 0.064,0.064 0.12899,0.1276 0.19336,0.1915 0.0646,0.065 0.13028,0.1288 0.19531,0.1933 0.066,0.066 0.13284,0.1314 0.19922,0.1973 0.0659,0.066 0.13287,0.1314 0.19922,0.1972 0.0747,0.075 0.15131,0.1481 0.22656,0.2227 0.0627,0.063 0.12637,0.1249 0.18945,0.1875 0.0692,0.07 0.13936,0.138 0.20899,0.207 0.0769,0.077 0.15491,0.1537 0.23242,0.2305 0.0657,0.066 0.13316,0.1298 0.19922,0.1953 0.0786,0.079 0.15911,0.156 0.23828,0.2344 0.0673,0.067 0.13543,0.134 0.20312,0.2012 0.0799,0.08 0.16171,0.1585 0.24219,0.2382 0.0702,0.071 0.14225,0.139 0.21289,0.209 0.0766,0.077 0.15328,0.154 0.23047,0.2305 0.0776,0.078 0.15622,0.1549 0.23438,0.2324 0.085,0.086 0.17209,0.169 0.25781,0.2539 0.0734,0.074 0.14874,0.1455 0.22266,0.2188 0.0867,0.087 0.17434,0.1732 0.26171,0.2597 0.0757,0.076 0.15233,0.1511 0.22852,0.2266 0.0889,0.09 0.17987,0.1769 0.26953,0.2656 0.0838,0.084 0.16947,0.1665 0.25391,0.25 0.0851,0.086 0.17204,0.1691 0.25781,0.2539 0.0795,0.08 0.1601,0.1589 0.24023,0.2383 0.0984,0.099 0.19957,0.1949 0.29883,0.293 0.0699,0.07 0.14061,0.1392 0.21094,0.209 0.1067,0.1075 0.2145,0.2138 0.32226,0.3203 0.0842,0.084 0.17104,0.1661 0.25586,0.25 0.0837,0.084 0.16952,0.1664 0.25391,0.25 0.0987,0.099 0.19926,0.1964 0.29883,0.2949 0.0922,0.093 0.18629,0.1834 0.2793,0.2754 0.088,0.089 0.17691,0.1759 0.26562,0.2637 0.1,0.1006 0.20185,0.199 0.30274,0.2988 0.10316,0.1038 0.20832,0.2057 0.3125,0.3086 0.0769,0.077 0.15492,0.1538 0.23242,0.2304 0.11801,0.1191 0.23809,0.2358 0.35742,0.3536 0.0864,0.087 0.17461,0.1716 0.26172,0.2578 0.11838,0.1193 0.23967,0.2355 0.35937,0.3535 0.0813,0.082 0.16421,0.1612 0.2461,0.2422 0.10898,0.1099 0.21997,0.2174 0.33007,0.3262 0.10194,0.1026 0.20569,0.203 0.3086,0.3046 0.0974,0.098 0.19667,0.1939 0.29492,0.2911 0.11772,0.1187 0.23644,0.2361 0.35547,0.3535 0.0935,0.094 0.18888,0.186 0.2832,0.2793 0.11897,0.1199 0.24103,0.2368 0.36133,0.3554 0.10194,0.1026 0.20567,0.2031 0.30859,0.3047 0.10283,0.1036 0.20673,0.206 0.31055,0.3086 0.1274,0.1285 0.25779,0.2539 0.38672,0.3809 0.0991,0.1 0.20078,0.1962 0.30078,0.2949 0.10478,0.1056 0.21059,0.2099 0.31641,0.3145 0.11956,0.1206 0.24236,0.2381 0.36328,0.3574 0.12582,0.1268 0.25354,0.2516 0.38086,0.3769 0.0964,0.097 0.19568,0.191 0.29297,0.2871 0.12285,0.124 0.24681,0.2466 0.37109,0.3692 0.12223,0.1232 0.24745,0.2434 0.37109,0.3652 0.11096,0.1118 0.22382,0.2214 0.33594,0.332 0.11897,0.12 0.24102,0.2369 0.36133,0.3555 0.12065,0.1217 0.2432,0.241 0.36523,0.3613 0.13363,0.1348 0.26899,0.2673 0.4043,0.4004 0.10158,0.1023 0.20604,0.2015 0.30859,0.3028 0.13608,0.1374 0.27428,0.2725 0.41211,0.4082 0.11842,0.1193 0.23963,0.2355 0.35938,0.3535 0.13225,0.1334 0.26647,0.2647 0.40039,0.3965 0.11871,0.1196 0.23932,0.2372 0.35937,0.3554 0.13318,0.1344 0.26944,0.2658 0.4043,0.3985 0.12001,0.1209 0.24191,0.2399 0.36328,0.3593 0.12895,0.1302 0.2601,0.2582 0.39063,0.3868 0.14451,0.1459 0.29295,0.2877 0.43945,0.4316 0.11127,0.1121 0.22544,0.2212 0.33789,0.332 0.14413,0.1457 0.28943,0.2899 0.43555,0.4336 0.13361,0.1348 0.27094,0.2654 0.40625,0.3985 0.13394,0.1351 0.2706,0.267 0.40625,0.4004 0.12709,0.1282 0.25614,0.2542 0.38476,0.3808 0.13735,0.1388 0.27688,0.2752 0.41602,0.4121 0.14126,0.1427 0.28457,0.2831 0.42773,0.4239 0.14587,0.1472 0.29547,0.2903 0.44336,0.4355 0.11903,0.12 0.24096,0.2369 0.36133,0.3555 0.15341,0.1552 0.30919,0.3079 0.46484,0.4609 0.14093,0.1423 0.28492,0.2815 0.42774,0.4219 0.14095,0.1423 0.28489,0.2815 0.42773,0.4219 0.13028,0.1315 0.26265,0.2607 0.39453,0.3906 0.16286,0.1648 0.32875,0.326 0.49415,0.4883 0.13976,0.1409 0.2822,0.2788 0.42382,0.4179 0.14421,0.1457 0.29131,0.2881 0.4375,0.4317 0.14221,0.1436 0.2875,0.284 0.43164,0.4258 0.15276,0.1544 0.30791,0.3067 0.46289,0.4589 0.14996,0.1516 0.30298,0.2999 0.45508,0.4493 0.15484,0.1564 0.31357,0.3087 0.47071,0.4629 0.14037,0.1416 0.28352,0.2801 0.42578,0.4199 0.15733,0.1591 0.31686,0.3159 0.47656,0.4726 0.15966,0.1614 0.32228,0.3196 0.48437,0.4785 0.14196,0.1433 0.28776,0.2825 0.43165,0.4239 0.16024,0.1621 0.32361,0.3208 0.48632,0.4804 0.14934,0.151 0.2997,0.3004 0.45118,0.4493 0.16962,0.1717 0.34323,0.3388 0.51562,0.5078 0.15745,0.159 0.31869,0.3141 0.47852,0.4707 0.1487,0.1502 0.30035,0.2972 0.45117,0.4453 0.16409,0.1661 0.33137,0.3287 0.49804,0.4922 0.16091,0.1627 0.32489,0.3222 0.48829,0.4824 0.16796,0.1699 0.33909,0.3367 0.50976,0.5039 0.15255,0.1542 0.3081,0.3051 0.46289,0.457 0.17338,0.1756 0.35108,0.3469 0.52735,0.5196 0.15842,0.1601 0.31962,0.3169 0.48047,0.4746 0.17183,0.1739 0.34679,0.3445 0.52148,0.5156 0.15573,0.1575 0.31459,0.3117 0.47266,0.4668 0.18014,0.1826 0.3636,0.3616 0.54687,0.541 0.16873,0.1706 0.3422,0.3361 0.51367,0.5039 0.16485,0.1667 0.33254,0.3301 0.5,0.4942 0.16378,0.1658 0.32973,0.329 0.4961,0.4922 0.17819,0.1805 0.35975,0.3575 0.54101,0.5351 0.17799,0.1803 0.35997,0.356 0.54102,0.5332 0.17478,0.1768 0.35351,0.3496 0.53125,0.5234 0.16803,0.17 0.33901,0.3367 0.50976,0.504 0.17117,0.1734 0.34553,0.3431 0.51953,0.5136 0.19437,0.1971 0.39182,0.3906 0.58985,0.584 0.17192,0.1738 0.34866,0.3428 0.52344,0.5137 0.16602,0.168 0.33521,0.3327 0.5039,0.498 0.19908,0.2021 0.40254,0.3995 0.60547,0.5977 0.16323,0.165 0.32834,0.3278 0.49414,0.4902 0.19304,0.1959 0.38928,0.3879 0.58594,0.5801 0.18544,0.1878 0.37568,0.3703 0.56445,0.5547 0.17705,0.1792 0.35703,0.3551 0.53711,0.5312 0.18883,0.1914 0.38193,0.3785 0.57422,0.5664 0.18601,0.1884 0.37509,0.3736 0.56445,0.5586 0.18157,0.1839 0.36797,0.3623 0.55274,0.543 0.19563,0.1984 0.3944,0.3932 0.59375,0.5879 0.18796,0.1903 0.37891,0.3776 0.57031,0.5644 0.18409,0.1865 0.37316,0.3677 0.56055,0.5508 0.19073,0.1935 0.38384,0.3843 0.57812,0.5742 0.196,0.1988 0.39596,0.3929 0.59571,0.5879 0.19434,0.197 0.39376,0.3888 0.59179,0.5821 0.19244,0.195 0.38795,0.3867 0.58399,0.5781 0.20152,0.2043 0.40779,0.4032 0.61328,0.6035 0.17835,0.1806 0.35956,0.3577 0.54101,0.5352 0.21408,0.2175 0.43183,0.4315 0.65039,0.6445 0.19251,0.1949 0.38983,0.3848 0.58594,0.5762 0.19724,0.2 0.39857,0.3956 0.59961,0.5918 0.19601,0.1988 0.39594,0.3928 0.5957,0.5879 0.20492,0.208 0.41402,0.4113 0.62305,0.6152 0.20173,0.2047 0.40757,0.4048 0.61328,0.6055 0.19751,0.2004 0.39828,0.3971 0.59961,0.5937 0.21776,0.2212 0.4397,0.4378 0.66211,0.6543 0.20342,0.2061 0.41168,0.4074 0.61914,0.6094 0.19599,0.1986 0.39596,0.393 0.5957,0.5879 0.20362,0.2067 0.41147,0.4086 0.61914,0.6113 0.21908,0.2227 0.44223,0.4403 0.66602,0.6582 0.20659,0.2095 0.41618,0.4158 0.62695,0.6211 0.20585,0.2088 0.41695,0.4125 0.62696,0.6172 0.21834,0.2217 0.44102,0.4392 0.66406,0.6562 0.19406,0.1968 0.39208,0.389 0.58984,0.5821 0.23073,0.2348 0.46521,0.4657 0.70117,0.6953 0.21369,0.2167 0.43222,0.4284 0.6504,0.6406 0.20244,0.2054 0.40876,0.4061 0.61523,0.6074 0.23475,0.2388 0.47466,0.4718 0.71484,0.7051 0.19803,0.2007 0.39968,0.397 0.60157,0.5938 0.23056,0.2345 0.46535,0.4641 0.70117,0.6933 0.20527,0.2083 0.41557,0.4111 0.625,0.6152 0.23297,0.2371 0.47064,0.4695 0.70898,0.7012 0.21422,0.2174 0.4336,0.4297 0.65235,0.6426 0.22189,0.2255 0.44706,0.4473 0.67382,0.668 0.22413,0.2278 0.45256,0.451 0.68164,0.6738 0.23321,0.237 0.47236,0.4676 0.71094,0.6992 0.2069,0.2099 0.41778,0.4155 0.62891,0.6211 0.2375,0.2418 0.47956,0.4786 0.72265,0.7149 0.22349,0.2269 0.45126,0.4498 0.67969,0.6718 0.22257,0.2263 0.45026,0.4467 0.67774,0.668 0.2381,0.2423 0.48087,0.4801 0.72461,0.7168 0.22328,0.2268 0.45145,0.4481 0.67968,0.6699 0.23625,0.2404 0.47696,0.4763 0.71875,0.7109 0.22672,0.2305 0.45763,0.4564 0.68946,0.6817 0.23173,0.2358 0.46801,0.4669 0.70507,0.6973 0.24368,0.248 0.4926,0.4903 0.74219,0.7324 0.21965,0.2231 0.44548,0.4399 0.66992,0.6582 0.24031,0.2449 0.4844,0.4855 0.73047,0.7246 0.24684,0.2513 0.49904,0.497 0.75196,0.7422 0.23604,0.2398 0.47716,0.4747 0.71875,0.709 0.22957,0.2333 0.4644,0.4613 0.69921,0.6894 0.24517,0.2497 0.49493,0.4946 0.7461,0.7383 0.23496,0.2391 0.47436,0.4735 0.71484,0.707 0.25348,0.2582 0.51354,0.51 0.77344,0.7617 0.23154,0.2354 0.46819,0.4654 0.70508,0.6954 0.24456,0.2491 0.49359,0.4932 0.74414,0.7363 0.24677,0.2513 0.49908,0.497 0.75195,0.7422 0.25337,0.2579 0.51169,0.5102 0.77149,0.7617 0.2355,0.2394 0.47574,0.4732 0.71679,0.707 0.25412,0.259 0.51284,0.5133 0.77344,0.7656 0.24855,0.2531 0.50306,0.4994 0.75781,0.7461 0.24951,0.254 0.50401,0.5024 0.75977,0.75 0.24268,0.2471 0.48968,0.4894 0.73828,0.7305 0.25691,0.262 0.51965,0.5183 0.7832,0.7734 0.25783,0.2627 0.52064,0.5195 0.78516,0.7754 0.24357,0.248 0.49265,0.4905 0.74219,0.7325 0.26215,0.2673 0.52975,0.5286 0.79882,0.789 0.25207,0.2567 0.50912,0.5076 0.76758,0.7578 0.25346,0.2584 0.51154,0.5119 0.77149,0.7637 0.26073,0.266 0.52731,0.5261 0.79492,0.7852 0.26501,0.2702 0.53649,0.5338 0.80859,0.7968 0.24948,0.254 0.50401,0.5023 0.75977,0.75 0.2647,0.2701 0.53484,0.5339 0.80664,0.7969 0.2666,0.2718 0.53871,0.5383 0.8125,0.8027 0.25966,0.2646 0.52455,0.5237 0.79101,0.7813 0.26604,0.2712 0.53735,0.5368 0.81055,0.8008 0.26,0.2649 0.52612,0.5232 0.79297,0.7812 0.26521,0.2705 0.53625,0.5356 0.80859,0.7989 0.25959,0.2647 0.52459,0.5233 0.79102,0.7812 0.2805,0.2866 0.56696,0.5672 0.85547,0.8457 0.26581,0.2708 0.53756,0.5352 0.81055,0.7988 0.26375,0.2689 0.53385,0.5312 0.80468,0.793 0.26749,0.273 0.53968,0.5409 0.81446,0.8067 0.27986,0.2857 0.56566,0.5659 0.85351,0.8437 0.2678,0.2731 0.54131,0.5409 0.81641,0.8066 0.27582,0.2816 0.55823,0.5564 0.84179,0.8301 0.2714,0.2769 0.54922,0.5471 0.82813,0.8164 0.27516,0.281 0.555,0.5569 0.83789,0.8301 0.27126,0.277 0.54934,0.547 0.82813,0.8164 0.29269,0.2993 0.59111,0.5924 0.89257,0.8828 0.26771,0.2729 0.54139,0.5392 0.81641,0.8047 0.28184,0.2879 0.56941,0.5699 0.85937,0.8496 0.27097,0.2767 0.54769,0.5473 0.82618,0.8164 0.29677,0.3037 0.60042,0.6 0.90625,0.8946 0.27116,0.2765 0.54747,0.5474 0.82617,0.8164 0.28594,0.2923 0.5787,0.5774 0.87305,0.8613 0.28691,0.2932 0.57962,0.5806 0.875,0.8652 0.28603,0.2922 0.5786,0.5777 0.87304,0.8614 0.2835,0.2895 0.57347,0.5722 0.86524,0.8535 0.28717,0.2934 0.58128,0.5803 0.87695,0.8652 0.28762,0.294 0.58081,0.5818 0.87695,0.8672 0.29155,0.298 0.59031,0.5897 0.89063,0.8789 0.29284,0.2992 0.59089,0.5925 0.89258,0.8828 0.27513,0.281 0.5569,0.555 0.83984,0.8281 0.30645,0.3141 0.61936,0.6215 0.93555,0.9258 0.2932,0.2996 0.59244,0.5921 0.89453,0.8828 0.29235,0.2988 0.59138,0.591 0.89258,0.8809 0.29662,0.3032 0.60051,0.5985 0.90625,0.8926 0.2946,0.3011 0.59484,0.5965 0.89843,0.8886 0.29663,0.3034 0.6005,0.5985 0.90625,0.8926 0.29301,0.2997 0.59066,0.5941 0.89258,0.8848 0.3012,0.3084 0.60928,0.6093 0.91992,0.9082 0.30501,0.3122 0.61696,0.6174 0.93164,0.9199 0.30136,0.3082 0.60913,0.6095 0.91993,0.9082 0.30194,0.3088 0.61044,0.6109 0.92187,0.9102 0.30264,0.3095 0.61166,0.6121 0.92383,0.9121 0.30125,0.3082 0.60921,0.6095 0.91992,0.9082 0.3006,0.3077 0.60794,0.608 0.91797,0.9062 0.31131,0.319 0.62973,0.6307 0.95117,0.9395 0.30956,0.3168 0.62575,0.6268 0.94531,0.9336 0.30328,0.3103 0.6129,0.6134 0.92579,0.914 0.30877,0.3163 0.6246,0.6255 0.94336,0.9317 0.31412,0.3218 0.63451,0.6378 0.95898,0.9492 0.3157,0.3231 0.63871,0.6386 0.96484,0.9512 0.29557,0.3022 0.59763,0.5976 0.90235,0.8906 0.32211,0.3305 0.65134,0.6531 0.98437,0.9727 0.31076,0.3182 0.62831,0.6295 0.94922,0.9374 0.31638,0.3244 0.63989,0.6414 0.9668,0.9551 0.32041,0.3284 0.6473,0.6494 0.97851,0.9668 0.31316,0.3207 0.63356,0.6331 0.95703,0.9434 0.31326,0.321 0.63344,0.6347 0.95704,0.9453 0.32786,0.3363 0.66274,0.6653 1.00195,0.9902 0.31267,0.3202 0.63209,0.6336 0.95508,0.9434 0.32051,0.3287 0.6491,0.649 0.98047,0.9668 0.32333,0.3316 0.65388,0.656 0.98828,0.9766 0.32898,0.3372 0.66543,0.6663 1.00586,0.9921 0.31015,0.3177 0.62693,0.6282 0.94726,0.9356 0.33464,0.3437 0.67691,0.6799 1.02344,1.0117 0.31896,0.327 0.64486,0.6468 0.97461,0.9629 0.33421,0.3431 0.6754,0.6786 1.02148,1.0098 0.32579,0.3339 0.65905,0.6598 0.9961,0.9824 0.3302,0.3386 0.66797,0.6691 1.00976,0.9961 0.3227,0.3308 0.65256,0.6549 0.98633,0.9746 0.33198,0.3409 0.67189,0.6729 1.01563,1.0019 0.33795,0.347 0.68306,0.6869 1.0332,1.0215 0.32408,0.3323 0.65496,0.6575 0.99023,0.9785 0.34463,0.3541 0.69737,0.6998 1.05469,1.0411 0.32813,0.3363 0.66235,0.6654 1.00195,0.9902 0.33709,0.346 0.68202,0.6838 1.03125,1.0176 0.3328,0.3415 0.67294,0.6743 1.01758,1.0039 0.34057,0.3498 0.68802,0.692 1.04102,1.0293 0.33351,0.3424 0.67409,0.6774 1.01953,1.0078 0.34229,0.3518 0.692,0.696 1.04687,1.0351 0.34694,0.3564 0.70264,0.7036 1.0625,1.0469 0.32956,0.3381 0.6666,0.6678 1.00782,0.9942 0.34851,0.3585 0.7048,0.7093 1.0664,1.0546 0.34302,0.3524 0.6951,0.6956 1.05078,1.0352 0.34725,0.3567 0.70226,0.7052 1.0625,1.0488 0.3405,0.3496 0.68802,0.6923 1.04102,1.0293 0.33979,0.3493 0.6868,0.6906 1.03906,1.0274 0.3609,0.3715 0.73047,0.7344 1.10547,1.0918 0.33829,0.3472 0.68451,0.6867 1.03516,1.0214 0.35239,0.3626 0.71227,0.7174 1.07812,1.0665 0.35944,0.3696 0.72813,0.7304 1.10156,1.0859 0.33787,0.3467 0.68299,0.6853 1.03321,1.0195 0.35886,0.3694 0.7248,0.7307 1.09765,1.086 0.34844,0.3581 0.7048,0.7079 1.06641,1.0527 0.34851,0.3587 0.70468,0.7093 1.06641,1.0547 0.37407,0.3855 0.75715,0.7607 1.14648,1.1308 0.33958,0.3485 0.68696,0.6896 1.03906,1.0254 0.36333,0.3743 0.73554,0.7399 1.11328,1.0996 0.35915,0.3695 0.7264,0.7307 1.09961,1.086 0.3508,0.3608 0.70999,0.7133 1.07422,1.0605 0.36855,0.3798 0.7455,0.7505 1.12891,1.1153 0.34862,0.3585 0.7045,0.7095 1.0664,1.0546 0.3827,0.3948 0.77506,0.7798 1.17383,1.1582 0.34853,0.3579 0.7046,0.7083 1.06641,1.0528 0.36345,0.3744 0.73532,0.7398 1.11328,1.0996 0.36605,0.3772 0.74032,0.7451 1.12109,1.1074 0.37791,0.3894 0.7646,0.7691 1.15821,1.1426 0.36103,0.371 0.73013,0.7333 1.10547,1.0898 0.35975,0.3702 0.72756,0.7321 1.10156,1.0879 0.37186,0.3834 0.75155,0.759 1.13867,1.127 0.36994,0.3812 0.74777,0.7532 1.13281,1.1191 0.37507,0.3865 0.75783,0.7639 1.14844,1.1348 0.36668,0.3775 0.74346,0.7448 1.125,1.1074 0.36899,0.3804 0.74679,0.752 1.13086,1.1172 0.38105,0.3931 0.77082,0.7774 1.16797,1.1543 0.36463,0.3756 0.73782,0.7428 1.11719,1.1035 0.3873,0.3999 0.78352,0.7908 1.1875,1.1738 0.37414,0.3854 0.75681,0.7613 1.14648,1.1309 0.3754,0.3869 0.75933,0.7637 1.15039,1.1348 0.37106,0.3826 0.75032,0.7558 1.13672,1.123 0.38861,0.4015 0.78594,0.7933 1.19141,1.1777 0.3738,0.3854 0.75709,0.7612 1.14648,1.1309 0.38087,0.3933 0.77087,0.7773 1.16797,1.1543 0.38794,0.4007 0.78467,0.7921 1.18945,1.1758 0.39034,0.4027 0.78989,0.7961 1.19727,1.1816 0.37456,0.3858 0.7582,0.7629 1.14844,1.1328 0.39002,0.4028 0.78823,0.7962 1.19531,1.1817 0.38564,0.3978 0.77932,0.787 1.18164,1.1679 0.3796,0.3917 0.76827,0.7731 1.16406,1.1485 0.39032,0.4035 0.78978,0.7974 1.19727,1.1836 0.40345,0.4169 0.81649,0.8242 1.23828,1.2226 0.37922,0.3906 0.76674,0.7722 1.16211,1.1465 0.39144,0.4043 0.79244,0.7987 1.20117,1.1856 0.3936,0.4065 0.79593,0.8045 1.20703,1.1933 0.38863,0.4013 0.78766,0.7917 1.19336,1.1758 0.40036,0.4139 0.80805,0.8192 1.22656,1.2148 0.39504,0.4079 0.8002,0.8054 1.21289,1.1954 0.39327,0.406 0.79625,0.803 1.20703,1.1914 0.39259,0.4056 0.795,0.8014 1.20508,1.1894 0.40176,0.4156 0.81231,0.8217 1.23242,1.2188 0.39863,0.4121 0.80596,0.8151 1.22266,1.209 0.40875,0.4226 0.82809,0.8348 1.25586,1.2382 0.39606,0.4087 0.80095,0.8086 1.21484,1.1993 0.3975,0.4106 0.80324,0.8125 1.21875,1.205 0.40517,0.4192 0.82022,0.8284 1.24414,1.2285 0.39571,0.4092 0.80124,0.8082 1.21485,1.1993 0.41216,0.427 0.83398,0.8446 1.26562,1.2519 0.41198,0.4261 0.83422,0.8416 1.26563,1.2481 0.39321,0.406 0.79612,0.8032 1.20703,1.1914 0.4114,0.4262 0.8328,0.8434 1.26367,1.25 0.41486,0.4295 0.84074,0.8482 1.27539,1.2578 0.40271,0.4164 0.81498,0.8231 1.23633,1.2207 0.4128,0.4275 0.83513,0.8462 1.26758,1.2539 0.41567,0.4303 0.84174,0.8496 1.27734,1.2598 0.40521,0.419 0.82,0.8285 1.24414,1.2285 0.41751,0.4326 0.84553,0.8553 1.28321,1.2676 0.41387,0.4284 0.83779,0.8473 1.27148,1.2558 0.41086,0.4255 0.83326,0.8404 1.26367,1.2461 0.41627,0.4316 0.84291,0.8524 1.2793,1.2637 0.41941,0.4348 0.84921,0.8592 1.28906,1.2734 0.41575,0.431 0.8415,0.8511 1.27734,1.2617 0.41492,0.4303 0.84042,0.8497 1.2754,1.2598 0.43648,0.4532 0.88307,0.8954 1.34179,1.3262 0.41642,0.4307 0.84271,0.8514 1.2793,1.2617 0.41826,0.4332 0.84649,0.8569 1.28516,1.2695 0.42496,0.4406 0.86056,0.8698 1.30664,1.2891 0.41948,0.4348 0.84899,0.8594 1.28906,1.2734 0.42697,0.4431 0.86414,0.8754 1.3125,1.2969 0.4324,0.4486 0.87574,0.8861 1.33008,1.3125 0.42695,0.4423 0.86418,0.8743 1.3125,1.2949 0.41539,0.4304 0.83973,0.8519 1.27539,1.2617 0.4432,0.4607 0.89691,0.9104 1.36328,1.3477 0.42114,0.4362 0.85292,0.8622 1.29492,1.2773 0.43291,0.4495 0.877,0.8894 1.33203,1.3164 0.42851,0.4447 0.86816,0.8781 1.31836,1.3008 0.4398,0.4569 0.89083,0.9023 1.35352,1.336 0.43139,0.4474 0.87276,0.8853 1.32617,1.3105 0.4338,0.4502 0.87789,0.8908 1.33398,1.3184 0.43624,0.4528 0.88298,0.8941 1.3418,1.3242 0.43612,0.4527 0.88308,0.8943 1.3418,1.3242 0.43496,0.4517 0.88042,0.8933 1.33789,1.3223 0.44278,0.46 0.89714,0.9092 1.36328,1.3457 0.43029,0.4467 0.87186,0.8822 1.32422,1.3066 0.44717,0.4654 0.90585,0.9202 1.37695,1.3613 0.43581,0.4528 0.88328,0.8944 1.3418,1.3243 0.45283,0.4711 0.91712,0.9306 1.39453,1.3769 0.43133,0.4477 0.87258,0.8853 1.32617,1.3106 0.45614,0.4749 0.92315,0.937 1.4043,1.3867 0.43597,0.4527 0.88302,0.8946 1.34179,1.3242 0.4473,0.4656 0.90556,0.92 1.37696,1.3613 0.45488,0.4735 0.92057,0.9346 1.40039,1.3828 0.44299,0.4603 0.89665,0.9094 1.36328,1.3457 0.44879,0.467 0.90774,0.9229 1.38086,1.3653 0.45574,0.4743 0.92344,0.9358 1.4043,1.3847 0.44245,0.46 0.89519,0.9098 1.36132,1.3457 0.45373,0.4727 0.91973,0.9335 1.39844,1.3809 0.46353,0.4827 0.93812,0.9538 1.42774,1.4102 0.44752,0.4649 0.90515,0.919 1.37695,1.3593 0.44831,0.4666 0.90809,0.9214 1.38086,1.3633 0.46467,0.4845 0.94062,0.9562 1.43164,1.4141 0.45607,0.4745 0.92288,0.9378 1.4043,1.3867 0.4494,0.4677 0.91071,0.9225 1.38476,1.3652 0.46792,0.4881 0.94667,0.9648 1.44141,1.4258 0.45552,0.4741 0.92339,0.9364 1.40429,1.3848 0.4584,0.4776 0.92795,0.9449 1.41211,1.3965 0.46252,0.4822 0.93699,0.9525 1.42578,1.4082 0.46393,0.4837 0.93929,0.9552 1.42969,1.4121 0.46389,0.4836 0.93931,0.9553 1.42969,1.4121 0.46287,0.4826 0.93845,0.9523 1.42773,1.4082 0.46823,0.4884 0.94806,0.9648 1.44336,1.4258 0.46903,0.4889 0.94911,0.9682 1.44532,1.4297 0.4577,0.4768 0.9285,0.9399 1.41211,1.3906 0.4812,0.5027 0.97443,0.9932 1.48437,1.4668 0.46291,0.482 0.93635,0.953 1.42578,1.4082 0.46497,0.485 0.94176,0.9581 1.4336,1.416 0.47085,0.4919 0.95463,0.9696 1.45312,1.4336 0.48033,0.502 0.9733,0.992 1.48242,1.4648 0.47455,0.4949 0.96028,0.9789 1.46289,1.4454 0.47532,0.4954 0.96136,0.9802 1.46485,1.4472 0.46184,0.4815 0.93533,0.9517 1.42383,1.4063 0.47686,0.4989 0.96722,0.985 1.47265,1.455 0.49201,0.5147 0.99711,1.0162 1.51953,1.5 0.46595,0.4856 0.9424,0.96 1.43555,1.418 0.48628,0.5084 0.9859,1.0042 1.50195,1.4824 0.47037,0.4909 0.95298,0.969 1.45117,1.4317 0.48727,0.5098 0.98665,1.0068 1.50391,1.4863 0.47931,0.5007 0.9702,0.9896 1.47852,1.4609 0.48764,0.5099 0.98813,1.0069 1.50586,1.4864 0.48699,0.5086 0.98496,1.0061 1.50195,1.4843 0.47263,0.4932 0.95808,0.975 1.45898,1.4395 0.49025,0.5133 0.99287,1.0138 1.51367,1.4961 0.48622,0.5085 0.98568,1.0043 1.50196,1.4824 0.49267,0.5153 0.9979,1.018 1.52148,1.502 0.48437,0.506 0.98185,1.0008 1.4961,1.4765 0.49368,0.5165 1.00059,1.021 1.52539,1.5059 0.47544,0.4968 0.96247,0.9817 1.46679,1.4492 0.49852,0.523 1.01056,1.0327 1.54102,1.5234 0.49187,0.5151 0.99855,1.0165 1.52148,1.5 0.49112,0.5144 0.99545,1.0171 1.51758,1.5 0.50355,0.5277 1.02045,1.0426 1.55664,1.5372 0.48293,0.5048 0.97926,0.9982 1.49219,1.4726 0.50291,0.5275 1.01908,1.0427 1.55469,1.5371 0.49225,0.5154 0.99792,1.0183 1.52148,1.502 0.49779,0.5219 1.00917,1.0301 1.53906,1.5195 0.5034,0.5279 1.02038,1.0425 1.55664,1.5371 0.49335,0.5168 0.99851,1.0211 1.52344,1.5059 0.50452,0.5295 1.02288,1.0451 1.56055,1.541 0.4981,0.5223 1.0106,1.03 1.54101,1.5195 0.50774,0.533 1.02893,1.0539 1.57032,1.5528 0.49102,0.5146 0.99507,1.0152 1.51758,1.498 0.51325,0.5399 1.042,1.0655 1.58984,1.5703 0.51066,0.5359 1.03524,1.0574 1.58008,1.5586 0.4988,0.5228 1.0096,1.0337 1.54101,1.5234 0.50797,0.5336 1.03034,1.0536 1.57227,1.5528 0.50432,0.5297 1.02271,1.0452 1.56055,1.541 0.51864,0.5453 1.05129,1.0766 1.60546,1.5859 0.51294,0.538 1.03831,1.0636 1.58594,1.5664 0.50164,0.5259 1.01593,1.0391 1.55078,1.5313 0.51497,0.5414 1.04557,1.0685 1.59571,1.5742 0.51857,0.5449 1.04926,1.0773 1.60351,1.5859 0.50454,0.5294 1.02224,1.046 1.56055,1.5411 0.51745,0.5443 1.05038,1.0738 1.60351,1.582 0.51573,0.5422 1.04451,1.0699 1.59571,1.5762 0.52286,0.5498 1.05976,1.0868 1.61914,1.5996 0.50776,0.5331 1.02811,1.0526 1.57031,1.5508 0.51817,0.5457 1.05127,1.0767 1.60547,1.5859 0.52525,0.5532 1.06658,1.0918 1.62891,1.6074 0.5062,0.5324 1.02575,1.0514 1.5664,1.5488 0.54066,0.571 1.09757,1.1254 1.67774,1.6563 0.5125,0.5383 1.03809,1.064 1.58593,1.5664 0.52375,0.5517 1.06417,1.0875 1.625,1.6016 0.53252,0.5608 1.07952,1.1089 1.65039,1.6308 0.50862,0.5346 1.03062,1.0556 1.57422,1.5547 0.54765,0.5783 1.11072,1.1428 1.69922,1.6797 0.5114,0.537 1.0371,1.0615 1.584,1.5625 0.5371,0.5666 1.0875,1.1198 1.664,1.6465 0.5289,0.5565 1.0717,1.0993 1.6387,1.6172 0.5192,0.5465 1.0534,1.0806 1.6094,1.5898 0.5399,0.5699 1.0959,1.125 1.6757,1.6543 0.532,0.5603 1.0778,1.108 1.6485,1.6289 0.5257,0.5538 1.0672,1.0941 1.6308,1.6094 0.5399,0.5698 1.0958,1.1252 1.6758,1.6543 0.5342,0.5629 1.0829,1.1117 1.6563,1.6348 0.5285,0.5568 1.0716,1.0992 1.6386,1.6171 0.536,0.566 1.0864,1.117 1.6622,1.6426 0.5401,0.5706 1.0952,1.1267 1.6757,1.6563 0.5536,0.5845 1.1227,1.154 1.7188,1.6953 0.5169,0.5435 1.0457,1.076 1.5996,1.582 0.5591,0.5918 1.1355,1.1674 1.7383,1.7149 0.5319,0.56 1.0772,1.1088 1.6484,1.6289 0.5356,0.5654 1.0865,1.1158 1.6621,1.6406 0.5548,0.5868 1.1248,1.1601 1.7227,1.7031 0.5431,0.5727 1.1012,1.1333 1.6855,1.6641 0.5439,0.5737 1.1022,1.1324 1.6875,1.664 0.5309,0.5604 1.0761,1.1068 1.6465,1.627 0.5623,0.5962 1.1411,1.1758 1.7481,1.7265 0.5434,0.5737 1.1024,1.1328 1.6875,1.6641 0.5484,0.5799 1.1121,1.145 1.7031,1.6817 0.5343,0.5649 1.0834,1.1147 1.6582,1.6386 0.5662,0.6014 1.1498,1.1872 1.7617,1.7422 0.545,0.5763 1.1062,1.1365 1.6934,1.6699 0.5505,0.5832 1.1171,1.1502 1.7109,1.6895 0.5551,0.5884 1.1255,1.1614 1.7246,1.7051 0.5492,0.5817 1.1147,1.1476 1.707,1.6855 0.5581,0.5923 1.1336,1.168 1.7364,1.7149 0.5611,0.595 1.1397,1.1735 1.7461,1.7226 0.5462,0.5783 1.1082,1.143 1.6972,1.6777 0.5573,0.592 1.1322,1.1665 1.7344,1.7129 0.5608,0.5957 1.1398,1.1752 1.7461,1.7246 0.5604,0.5949 1.1383,1.1722 1.7441,1.7207 0.554,0.5881 1.1242,1.1603 1.7227,1.7032 0.5657,0.6017 1.1513,1.1839 1.7637,1.7383 0.5542,0.5888 1.1256,1.1617 1.7246,1.705 0.5662,0.6031 1.1524,1.1867 1.7656,1.7422 0.5623,0.5983 1.1433,1.1792 1.752,1.7305 0.5635,0.5999 1.1476,1.1817 1.7578,1.7344 0.5607,0.597 1.1391,1.1784 1.7461,1.7285 0.5714,0.6093 1.1635,1.1993 1.7832,1.7597 0.5663,0.6029 1.152,1.1874 1.7656,1.7422 0.5609,0.5975 1.1406,1.1764 1.748,1.7266 0.5739,0.6126 1.1683,1.2045 1.7911,1.7676 0.5627,0.5998 1.146,1.1803 1.7558,1.7324 0.5749,0.6143 1.1707,1.2091 1.7949,1.7734 0.5659,0.6039 1.152,1.1888 1.7657,1.7442 0.5725,0.6121 1.1654,1.2033 1.7871,1.7656 0.5751,0.615 1.1721,1.2088 1.7968,1.7734 0.5708,0.6098 1.1616,1.1996 1.7813,1.7598 0.5739,0.6141 1.1694,1.2077 1.793,1.7715 0.5748,0.6153 1.172,1.2088 1.7968,1.7734 0.5762,0.6168 1.1744,1.2134 1.8008,1.7793 0.5754,0.6161 1.1732,1.2103 1.7988,1.7754 0.5807,0.6223 1.1845,1.2227 1.8165,1.793 0.5748,0.6157 1.1716,1.2107 1.7968,1.7754 0.5818,0.6239 1.1868,1.2253 1.8203,1.7968 0.5748,0.6162 1.1716,1.2105 1.7969,1.7754 0.5868,0.6305 1.1981,1.2376 1.8379,1.8145 0.5808,0.6229 1.1857,1.2245 1.8184,1.7949 0.5798,0.6224 1.1827,1.2211 1.8144,1.791 0.5854,0.629 1.1957,1.2352 1.834,1.8106 0.5822,0.6256 1.1895,1.2283 1.8242,1.8008 0.5867,0.6311 1.1977,1.2394 1.8379,1.8164 0.5836,0.6276 1.1915,1.2326 1.8281,1.8066 0.5865,0.6316 1.1977,1.2392 1.8379,1.8164 0.5874,0.6326 1.2024,1.2404 1.8438,1.8184 0.5881,0.6335 1.2033,1.2416 1.8457,1.8203 0.5911,0.6372 1.2075,1.2504 1.8535,1.832 0.5902,0.6361 1.2065,1.2476 1.8516,1.8281 0.591,0.6372 1.2073,1.2488 1.8535,1.8301 0.5856,0.6318 1.198,1.2376 1.8379,1.8145 0.5949,0.6433 1.2178,1.2593 1.8691,1.8457 0.6004,0.6491 1.2289,1.2723 1.8867,1.8633 0.3572,0.3853 0.7283,0.7572 1.1055,1.123 H 2048 v -911.1309 c -0.057,-0.054 -0.1121,-0.1105 -0.1699,-0.164 -0.5808,-0.6464 -1.1901,-1.2657 -1.8281,-1.8555 -0.5754,-0.6391 -1.1814,-1.2502 -1.8125,-1.834 -0.568,-0.6306 -1.1649,-1.2336 -1.7872,-1.8105 -0.5759,-0.6408 -1.1825,-1.2524 -1.8144,-1.8379 -0.5751,-0.639 -1.1799,-1.2499 -1.8106,-1.834 -0.5691,-0.6318 -1.1675,-1.2364 -1.791,-1.8144 -0.5681,-0.631 -1.1669,-1.2349 -1.789,-1.8126 -0.5689,-0.6321 -1.1681,-1.2356 -1.7911,-1.8144 -0.5686,-0.632 -1.1663,-1.2357 -1.789,-1.8145 -0.5709,-0.6342 -1.1717,-1.2395 -1.7969,-1.8203 -0.5673,-0.6295 -1.1645,-1.2298 -1.7851,-1.8066 -0.5677,-0.6297 -1.1662,-1.2316 -1.7872,-1.8086 -0.5601,-0.6211 -1.1497,-1.2152 -1.7617,-1.7852 -0.5706,-0.6335 -1.1705,-1.2378 -1.7949,-1.8183 -0.5577,-0.6179 -1.1432,-1.208 -1.7519,-1.7754 -0.5654,-0.6276 -1.1595,-1.227 -1.7774,-1.8027 -0.5614,-0.6224 -1.1525,-1.2177 -1.7656,-1.7891 -0.5619,-0.6228 -1.1541,-1.2173 -1.7676,-1.7891 -0.5624,-0.6231 -1.1536,-1.2187 -1.7676,-1.791 -0.5524,-0.6116 -1.1342,-1.1952 -1.7363,-1.7578 -0.5617,-0.6231 -1.1526,-1.2186 -1.7656,-1.791 -0.5616,-0.6221 -1.153,-1.2155 -1.7656,-1.7871 -0.5505,-0.6089 -1.1292,-1.1914 -1.7286,-1.752 -0.5593,-0.6197 -1.1479,-1.2114 -1.7578,-1.7812 -0.555,-0.6142 -1.1394,-1.2004 -1.7441,-1.7657 -0.5551,-0.614 -1.1376,-1.2022 -1.7422,-1.7675 -0.5472,-0.6052 -1.1254,-1.1825 -1.7207,-1.7403 -0.5549,-0.6145 -1.1399,-1.2017 -1.7442,-1.7675 -0.5515,-0.6103 -1.132,-1.1936 -1.7324,-1.7559 -0.5535,-0.6123 -1.1358,-1.1977 -1.7383,-1.7617 -0.5521,-0.61 -1.1317,-1.1937 -1.7324,-1.7559 -0.5381,-0.594 -1.1054,-1.1602 -1.6894,-1.709 -0.5533,-0.6126 -1.1363,-1.197 -1.7383,-1.7617 -0.5467,-0.6041 -1.1228,-1.1808 -1.7168,-1.7383 -0.5464,-0.6036 -1.1214,-1.1811 -1.7148,-1.7382 -0.5463,-0.6036 -1.1215,-1.1792 -1.7149,-1.7364 -0.5416,-0.5981 -1.1114,-1.17 -1.6992,-1.7226 -0.5433,-0.6002 -1.1154,-1.1741 -1.7051,-1.7285 -0.5488,-0.6062 -1.1266,-1.1846 -1.7226,-1.7442 -0.5364,-0.5913 -1.1023,-1.1561 -1.6836,-1.7031 -0.5402,-0.5963 -1.1076,-1.1654 -1.6934,-1.7168 -0.5428,-0.5993 -1.1124,-1.1725 -1.7012,-1.7266 -0.5389,-0.5944 -1.1072,-1.161 -1.6914,-1.7109 -0.538,-0.5933 -1.1045,-1.1599 -1.6875,-1.709 -0.5357,-0.5906 -1.0995,-1.1544 -1.6797,-1.7012 -0.5354,-0.5906 -1.0998,-1.1542 -1.6797,-1.7011 -0.5373,-0.5928 -1.1035,-1.1602 -1.6855,-1.709 -0.5294,-0.5834 -1.0876,-1.1408 -1.6602,-1.6817 -0.5366,-0.5921 -1.1006,-1.1566 -1.6816,-1.705 -0.5327,-0.5874 -1.0936,-1.147 -1.6699,-1.6914 -0.5318,-0.5862 -1.0928,-1.1441 -1.668,-1.6875 -0.5359,-0.5907 -1.0978,-1.1558 -1.6777,-1.7032 -0.5302,-0.5832 -1.0872,-1.1406 -1.6602,-1.6816 -0.5288,-0.5819 -1.0868,-1.1378 -1.6582,-1.6777 -0.5242,-0.5769 -1.0765,-1.1264 -1.6426,-1.6622 -0.5274,-0.581 -1.0825,-1.1363 -1.6523,-1.6757 -0.5365,-0.5909 -1.0996,-1.1553 -1.6797,-1.7032 -0.5186,-0.5694 -1.0639,-1.113 -1.623,-1.6425 -0.5206,-0.5728 -1.0694,-1.1199 -1.6309,-1.6524 -0.5271,-0.5806 -1.0832,-1.1345 -1.6523,-1.6738 -0.5227,-0.5751 -1.071,-1.1236 -1.6348,-1.6582 -0.5334,-0.5869 -1.0938,-1.1466 -1.6699,-1.6914 -0.5183,-0.5684 -1.0646,-1.1119 -1.6231,-1.6406 -0.511,-0.5608 -1.0476,-1.0988 -1.5976,-1.6211 -0.5305,-0.5837 -1.0896,-1.1414 -1.6621,-1.6836 -0.5071,-0.5562 -1.0406,-1.087 -1.586,-1.6055 -0.5331,-0.5867 -1.0943,-1.1465 -1.6699,-1.6914 -0.5114,-0.5601 -1.0475,-1.0972 -1.5977,-1.6191 -0.5232,-0.5741 -1.0729,-1.1242 -1.6367,-1.6582 -0.5097,-0.5581 -1.0437,-1.0911 -1.5918,-1.6114 -0.5242,-0.5748 -1.0739,-1.1252 -1.6386,-1.6601 -0.5023,-0.5492 -1.0291,-1.0753 -1.5684,-1.5879 -0.526,-0.5771 -1.0778,-1.131 -1.6445,-1.668 -0.5098,-0.557 -1.044,-1.0898 -1.5918,-1.6094 -0.5089,-0.5566 -1.0411,-1.09 -1.5879,-1.6093 -0.5082,-0.5562 -1.04,-1.0885 -1.586,-1.6075 -0.5127,-0.5614 -1.0504,-1.0994 -1.6015,-1.623 -0.5026,-0.5498 -1.029,-1.0763 -1.5684,-1.5899 -0.5141,-0.5632 -1.0528,-1.1015 -1.6055,-1.6269 -0.5138,-0.562 -1.0532,-1.10073 -1.6054,-1.62498 -0.4972,-0.54252 -1.0179,-1.06298 -1.5508,-1.57031 -0.5119,-0.5599 -1.0478,-1.09853 -1.5977,-1.6211 -0.4954,-0.54066 -1.0141,-1.05862 -1.5449,-1.56445 -0.5098,-0.5578 -1.0444,-1.0924 -1.5918,-1.61328 -0.5095,-0.55651 -1.043,-1.08966 -1.5898,-1.60937 -0.5026,-0.54772 -1.0277,-1.07389 -1.5664,-1.58594 -0.5013,-0.5461 -1.0254,-1.07134 -1.5625,-1.58203 -0.4975,-0.54199 -1.018,-1.06315 -1.5508,-1.57032 -0.4965,-0.54117 -1.0152,-1.06181 -1.5469,-1.56836 -0.4989,-0.5442 -1.0203,-1.06495 -1.5547,-1.57421 -0.5001,-0.54551 -1.0228,-1.06965 -1.5586,-1.58008 -0.501,-0.54591 -1.0238,-1.06929 -1.5605,-1.58008 -0.4913,-0.53467 -1.0038,-1.04978 -1.5293,-1.55078 -0.4936,-0.53786 -1.011,-1.05275 -1.5391,-1.55664 -0.5048,-0.55014 -1.0314,-1.0791 -1.5722,-1.59375 -0.488,-0.5302 -0.9962,-1.03993 -1.5176,-1.53711 -0.4951,-0.53867 -1.0114,-1.05586 -1.541,-1.56055 -0.4962,-0.53947 -1.0123,-1.05905 -1.543,-1.56445 -0.4873,-0.52896 -0.9951,-1.03895 -1.5156,-1.53516 -0.4935,-0.53628 -1.0076,-1.05199 -1.5352,-1.55469 -0.4849,-0.52634 -0.9901,-1.03333 -1.5078,-1.52734 -0.484,-0.52597 -0.9892,-1.03161 -1.5058,-1.52539 -0.4972,-0.54067 -1.0153,-1.06165 -1.5469,-1.56836 -0.477,-0.51732 -0.9739,-1.01576 -1.4824,-1.50195 -0.501,-0.54464 -1.0247,-1.06787 -1.5606,-1.57813 -0.4726,-0.51156 -0.9634,-1.00518 -1.4668,-1.48633 -0.485,-0.52678 -0.9902,-1.0346 -1.5078,-1.52929 -0.4896,-0.53153 -1.0007,-1.04214 -1.5234,-1.54102 -0.478,-0.51777 -0.975,-1.01714 -1.4844,-1.5039 -0.4822,-0.52288 -0.9839,-1.02625 -1.4981,-1.51758 -0.4803,-0.52065 -0.9802,-1.0223 -1.4922,-1.51172 -0.4892,-0.53034 -0.9973,-1.04307 -1.5195,-1.54102 -0.461,-0.49843 -0.9396,-0.9794 -1.4297,-1.44922 -0.4927,-0.53501 -1.0072,-1.04855 -1.5332,-1.55078 -0.4739,-0.51237 -0.9662,-1.00803 -1.4707,-1.49023 -0.4732,-0.51205 -0.965,-1.0063 -1.4687,-1.48828 -0.4699,-0.50871 -0.9591,-0.9994 -1.459,-1.47852 -0.4829,-0.52346 -0.9854,-1.02734 -1.5,-1.51953 -0.4748,-0.51349 -0.9673,-1.00883 -1.4727,-1.49219 -0.4648,-0.50239 -0.9474,-0.98734 -1.4414,-1.46093 -0.4818,-0.52169 -0.9828,-1.02492 -1.4961,-1.51563 -0.4701,-0.50769 -0.9591,-0.9963 -1.459,-1.47461 -0.4782,-0.51651 -0.9733,-1.01583 -1.4824,-1.50195 -0.4556,-0.49089 -0.9286,-0.96626 -1.4121,-1.42969 -0.4787,-0.51768 -0.9748,-1.01857 -1.4844,-1.50586 -0.4664,-0.50282 -0.9497,-0.9888 -1.4453,-1.46289 -0.4667,-0.50335 -0.9494,-0.99023 -1.4453,-1.46484 -0.4649,-0.50126 -0.9457,-0.9862 -1.4394,-1.45899 -0.4572,-0.49293 -0.9311,-0.96813 -1.4161,-1.43359 -0.4748,-0.51293 -0.9676,-1.00893 -1.4726,-1.49219 -0.4666,-0.50248 -0.9498,-0.98896 -1.4453,-1.46289 -0.4609,-0.49583 -0.9368,-0.97727 -1.4258,-1.44531 -0.449,-0.48316 -0.913,-0.95138 -1.3887,-1.4082 -0.4714,-0.50875 -0.96,-1.00079 -1.4609,-1.48047 -0.4499,-0.484 -0.916,-0.95251 -1.3926,-1.41016 -0.4695,-0.50628 -0.9565,-0.9951 -1.4551,-1.47266 -0.4602,-0.4948 -0.9357,-0.97411 -1.4238,-1.4414 -0.4375,-0.47012 -0.8889,-0.92577 -1.3516,-1.3711 -0.4767,-0.51477 -0.9718,-1.01086 -1.4785,-1.49609 -0.4433,-0.47609 -0.9,-0.93797 -1.3691,-1.38867 -0.4669,-0.50281 -0.9518,-0.98831 -1.4473,-1.46289 -0.4433,-0.47572 -0.9002,-0.93826 -1.3691,-1.38867 -0.4591,-0.49386 -0.9333,-0.97278 -1.4199,-1.43946 -0.4494,-0.48245 -0.9131,-0.94975 -1.3887,-1.40625 -0.452,-0.48564 -0.92,-0.95466 -1.3984,-1.41406 -0.4424,-0.47491 -0.8976,-0.93688 -1.3653,-1.38672 -0.4618,-0.49673 -0.9401,-0.97789 -1.4297,-1.44726 -0.4381,-0.46963 -0.8905,-0.92598 -1.3535,-1.3711 -0.4622,-0.49666 -0.9399,-0.97792 -1.4297,-1.44726 -0.4275,-0.45753 -0.8673,-0.90361 -1.3183,-1.33789 -0.4641,-0.49894 -0.9437,-0.98168 -1.4356,-1.45313 -0.4324,-0.46266 -0.8776,-0.91262 -1.334,-1.35156 -0.4454,-0.47806 -0.904,-0.94168 -1.375,-1.39453 -0.4542,-0.48716 -0.9235,-0.95895 -1.4043,-1.41993 -0.4311,-0.46092 -0.8752,-0.90824 -1.33,-1.3457 -0.4457,-0.47771 -0.904,-0.94193 -1.375,-1.39453 -0.4358,-0.46656 -0.8857,-0.92068 -1.3457,-1.36328 -0.4435,-0.47514 -0.9007,-0.93638 -1.3692,-1.38672 -0.4318,-0.4621 -0.8765,-0.91097 -1.332,-1.34961 -0.4486,-0.48073 -0.9106,-0.94888 -1.3848,-1.4043 -0.4343,-0.46414 -0.8816,-0.91497 -1.3398,-1.35546 -0.4382,-0.46842 -0.8891,-0.92479 -1.3516,-1.36914 -0.4327,-0.46237 -0.8775,-0.91263 -1.334,-1.35157 -0.4281,-0.45752 -0.869,-0.90131 -1.3203,-1.33593 -0.4349,-0.46549 -0.8809,-0.91948 -1.3398,-1.36133 -0.4385,-0.46886 -0.8909,-0.92426 -1.3535,-1.36914 -0.4374,-0.46692 -0.8863,-0.92213 -1.3477,-1.36524 -0.4249,-0.45295 -0.861,-0.89367 -1.3086,-1.32422 -0.4255,-0.45402 -0.8624,-0.89655 -1.3105,-1.32812 -0.4285,-0.45764 -0.8689,-0.90302 -1.3204,-1.33789 -0.4271,-0.4562 -0.8664,-0.90038 -1.3164,-1.33399 -0.4297,-0.45885 -0.8714,-0.90578 -1.3242,-1.34179 -0.4189,-0.44692 -0.8502,-0.88138 -1.291,-1.30664 -0.4307,-0.46021 -0.8723,-0.9084 -1.3262,-1.34571 -0.4244,-0.45275 -0.8617,-0.89365 -1.3086,-1.32422 -0.4318,-0.46061 -0.875,-0.90999 -1.33,-1.34765 -0.4067,-0.43275 -0.8248,-0.85511 -1.252,-1.26758 -0.4365,-0.4662 -0.8855,-0.9205 -1.3457,-1.36328 -0.4101,-0.43631 -0.8308,-0.86161 -1.2617,-1.27735 -0.4128,-0.4402 -0.8357,-0.86971 -1.2695,-1.28906 -0.4358,-0.46523 -0.8846,-0.91739 -1.3438,-1.35937 -0.4052,-0.43089 -0.8206,-0.85084 -1.2461,-1.26172 -0.4273,-0.45567 -0.8665,-0.9006 -1.3164,-1.33399 -0.4116,-0.43768 -0.8332,-0.86612 -1.2656,-1.2832 -0.4086,-0.43486 -0.8288,-0.85886 -1.2578,-1.27344 -0.4243,-0.45213 -0.8603,-0.89201 -1.3067,-1.32226 -0.4067,-0.4323 -0.823,-0.85532 -1.25,-1.26758 -0.4162,-0.44309 -0.8438,-0.87478 -1.2812,-1.29688 -0.4142,-0.44038 -0.8383,-0.87137 -1.2735,-1.29101 -0.3995,-0.4245 -0.8094,-0.8389 -1.2285,-1.24414 -0.4202,-0.44747 -0.8512,-0.88441 -1.2929,-1.31055 -0.4022,-0.42712 -0.8145,-0.8443 -1.2364,-1.25195 -0.4074,-0.43331 -0.8243,-0.8562 -1.2519,-1.26953 -0.4112,-0.43723 -0.832,-0.86436 -1.2637,-1.28125 -0.4151,-0.44092 -0.8414,-0.87079 -1.2773,-1.29102 -0.3924,-0.41586 -0.7922,-0.82326 -1.2032,-1.2207 -0.4084,-0.43411 -0.8272,-0.85737 -1.2558,-1.27149 -0.4055,-0.43041 -0.8208,-0.85097 -1.2461,-1.26171 -0.4025,-0.42697 -0.8144,-0.84433 -1.2363,-1.25196 -0.3952,-0.41908 -0.799,-0.82804 -1.2129,-1.22851 -0.4136,-0.43926 -0.8373,-0.86826 -1.2715,-1.28711 -0.3936,-0.41669 -0.7949,-0.82438 -1.2071,-1.22266 -0.3923,-0.41598 -0.7923,-0.82301 -1.2031,-1.2207 -0.3995,-0.42418 -0.8079,-0.83893 -1.2265,-1.24414 -0.4098,-0.43477 -0.83,-0.8586 -1.2598,-1.27344 -0.3859,-0.40815 -0.7799,-0.80868 -1.1836,-1.19922 -0.3989,-0.42287 -0.8067,-0.83619 -1.2246,-1.24023 -0.3944,-0.41762 -0.798,-0.82536 -1.2109,-1.22461 -0.3918,-0.41481 -0.7912,-0.82205 -1.2012,-1.21875 -0.3965,-0.41985 -0.8017,-0.83111 -1.2168,-1.23243 -0.3784,-0.4003 -0.7647,-0.79229 -1.1602,-1.17578 -0.4034,-0.42797 -0.8155,-0.84706 -1.2383,-1.25586 -0.387,-0.40926 -0.7827,-0.80948 -1.1875,-1.20117 -0.3891,-0.41168 -0.7863,-0.81506 -1.1933,-1.20898 -0.3905,-0.41298 -0.7888,-0.81777 -1.1973,-1.21289 -0.3779,-0.39943 -0.7634,-0.7911 -1.1582,-1.17383 -0.3958,-0.41919 -0.8005,-0.82962 -1.2148,-1.23047 -0.3857,-0.40741 -0.7785,-0.80722 -1.1817,-1.19726 -0.3755,-0.39664 -0.7582,-0.78582 -1.1504,-1.16602 -0.3919,-0.41474 -0.793,-0.81998 -1.2031,-1.2168 -0.3779,-0.39897 -0.7616,-0.79146 -1.1562,-1.17383 -0.3885,-0.4105 -0.7853,-0.81212 -1.1914,-1.20507 -0.3714,-0.39179 -0.7492,-0.77655 -1.1368,-1.15235 -0.3892,-0.41141 -0.7863,-0.81516 -1.1933,-1.20898 -0.3677,-0.38778 -0.7435,-0.76849 -1.127,-1.14063 -0.3836,-0.40554 -0.775,-0.80291 -1.1757,-1.1914 -0.3746,-0.3953 -0.7556,-0.78303 -1.1465,-1.16211 -0.3787,-0.39983 -0.7648,-0.79252 -1.1602,-1.17578 -0.3742,-0.39473 -0.756,-0.78158 -1.1465,-1.16016 -0.372,-0.39246 -0.7505,-0.77778 -1.1386,-1.1543 -0.3747,-0.39542 -0.7575,-0.78284 -1.1485,-1.16211 -0.3748,-0.39528 -0.7554,-0.78492 -1.1465,-1.16406 -0.3737,-0.39387 -0.7546,-0.78037 -1.1445,-1.1582 -0.3617,-0.38094 -0.7306,-0.75514 -1.1074,-1.1211 -0.3778,-0.39856 -0.762,-0.78967 -1.1563,-1.17187 -0.3623,-0.3816 -0.7318,-0.75647 -1.1093,-1.12305 -0.3739,-0.39417 -0.7546,-0.78197 -1.1446,-1.16015 -0.358,-0.37689 -0.7229,-0.74712 -1.0957,-1.10938 -0.3722,-0.39257 -0.7524,-0.77755 -1.1406,-1.1543 -0.3583,-0.37721 -0.7227,-0.74873 -1.0957,-1.11132 -0.367,-0.38694 -0.7405,-0.76709 -1.1231,-1.13868 -0.3659,-0.38538 -0.7378,-0.76461 -1.1191,-1.13476 -0.3654,-0.38453 -0.7385,-0.7615 -1.1191,-1.13086 -0.3504,-0.36841 -0.7059,-0.73145 -1.0704,-1.08594 -0.3773,-0.39773 -0.7625,-0.78836 -1.1562,-1.16992 -0.3469,-0.36409 -0.698,-0.72372 -1.0586,-1.07422 -0.3679,-0.38725 -0.7435,-0.76674 -1.1269,-1.13867 -0.3498,-0.36722 -0.7048,-0.72862 -1.0684,-1.08203 -0.3465,-0.36446 -0.6984,-0.72331 -1.0586,-1.07422 -0.3731,-0.39325 -0.7536,-0.77874 -1.1426,-1.15625 -0.3471,-0.36435 -0.6997,-0.72343 -1.0605,-1.07422 -0.3586,-0.37701 -0.7225,-0.7488 -1.0957,-1.11133 -0.3444,-0.36166 -0.6929,-0.71807 -1.0508,-1.0664 -0.3668,-0.38588 -0.741,-0.76403 -1.1231,-1.13477 -0.3382,-0.35456 -0.6801,-0.70513 -1.0312,-1.04687 -0.3609,-0.37938 -0.7279,-0.75243 -1.1035,-1.11719 -0.3436,-0.36023 -0.692,-0.71548 -1.0489,-1.0625 -0.3476,-0.36504 -0.7011,-0.72466 -1.0624,-1.07617 -0.3492,-0.36642 -0.7036,-0.72729 -1.0665,-1.08008 -0.3461,-0.3631 -0.697,-0.72059 -1.0566,-1.07031 -0.3473,-0.36429 -0.6997,-0.72339 -1.0605,-1.07422 -0.3482,-0.36501 -0.7008,-0.72467 -1.0625,-1.07618 -0.3406,-0.35676 -0.6855,-0.70885 -1.0391,-1.05273 -0.3378,-0.35409 -0.6806,-0.70351 -1.0313,-1.04492 -0.3491,-0.36628 -0.7036,-0.72736 -1.0664,-1.08008 -0.3329,-0.34868 -0.6702,-0.69291 -1.0156,-1.0293 -0.3416,-0.35831 -0.6883,-0.71127 -1.043,-1.05664 -0.3387,-0.35516 -0.6835,-0.70442 -1.0351,-1.04687 -0.3432,-0.35968 -0.6906,-0.7139 -1.0469,-1.06055 -0.3357,-0.35151 -0.6751,-0.70001 -1.0234,-1.03906 -0.3308,-0.3464 -0.6668,-0.68717 -1.0098,-1.02149 -0.3435,-0.36009 -0.6921,-0.71544 -1.0488,-1.0625 -0.3313,-0.34657 -0.6663,-0.68895 -1.0098,-1.02343 -0.3365,-0.35225 -0.6782,-0.69929 -1.0273,-1.03907 -0.3226,-0.33739 -0.6484,-0.67209 -0.9824,-0.99804 -0.3412,-0.35749 -0.687,-0.71001 -1.0411,-1.05469 -0.3259,-0.34081 -0.6564,-0.6767 -0.9941,-1.00586 -0.3346,-0.35017 -0.6745,-0.69532 -1.0215,-1.0332 -0.3238,-0.3385 -0.6509,-0.67299 -0.9863,-1 -0.3279,-0.34307 -0.6583,-0.68239 -0.9981,-1.01367 -0.3335,-0.34898 -0.6717,-0.69251 -1.0175,-1.0293 -0.3229,-0.33719 -0.6501,-0.67029 -0.9844,-0.9961 -0.3269,-0.34161 -0.6575,-0.67981 -0.9961,-1.00976 -0.3137,-0.32767 -0.6306,-0.65181 -0.9551,-0.96875 -0.3312,-0.34666 -0.6665,-0.68875 -1.0098,-1.02344 -0.3273,-0.34204 -0.6589,-0.6794 -0.998,-1.00976 -0.3186,-0.33246 -0.641,-0.66101 -0.9707,-0.98243 -0.3118,-0.32556 -0.6268,-0.64788 -0.9492,-0.96289 -0.3307,-0.34581 -0.6652,-0.68756 -1.0078,-1.02148 -0.3187,-0.33237 -0.641,-0.66106 -0.9707,-0.98242 -0.3146,-0.32809 -0.6317,-0.65334 -0.9571,-0.97071 -0.3148,-0.32852 -0.6333,-0.65291 -0.959,-0.9707 -0.3138,-0.32759 -0.6305,-0.65182 -0.955,-0.96875 -0.3236,-0.33779 -0.6514,-0.67158 -0.9864,-0.99805 -0.3082,-0.32121 -0.6208,-0.63826 -0.9394,-0.94921 -0.3164,-0.33009 -0.6356,-0.65729 -0.9629,-0.97657 -0.3093,-0.32239 -0.6217,-0.64104 -0.9414,-0.95312 -0.3073,-0.32041 -0.618,-0.63703 -0.9356,-0.94727 -0.3127,-0.32628 -0.6278,-0.65105 -0.9511,-0.96679 -0.315,-0.32846 -0.6333,-0.65293 -0.959,-0.97071 -0.2998,-0.31216 -0.6026,-0.62131 -0.9121,-0.92383 -0.312,-0.32536 -0.6267,-0.64798 -0.9492,-0.96289 -0.3082,-0.32101 -0.6192,-0.63839 -0.9375,-0.94921 -0.304,-0.3165 -0.6119,-0.62895 -0.9258,-0.93555 -0.3021,-0.31468 -0.606,-0.62674 -0.918,-0.93164 -0.3126,-0.3257 -0.6281,-0.64766 -0.9512,-0.96289 -0.2965,-0.30839 -0.5963,-0.61312 -0.9023,-0.91211 -0.3034,-0.31589 -0.6086,-0.6295 -0.9219,-0.93555 -0.2968,-0.30889 -0.596,-0.61457 -0.9023,-0.91406 -0.3022,-0.31465 -0.6061,-0.62674 -0.918,-0.93164 -0.3045,-0.31687 -0.6114,-0.63051 -0.9258,-0.9375 -0.2902,-0.30166 -0.5836,-0.59988 -0.8828,-0.89258 -0.3056,-0.31818 -0.614,-0.63317 -0.9297,-0.94141 -0.2911,-0.30245 -0.5846,-0.60303 -0.8847,-0.89648 -0.2912,-0.30279 -0.5846,-0.60269 -0.8848,-0.89649 -0.2965,-0.30853 -0.5945,-0.61485 -0.9004,-0.91406 -0.3,-0.312 -0.6025,-0.62137 -0.9121,-0.92383 -0.2903,-0.30151 -0.5835,-0.59998 -0.8828,-0.89257 -0.29,-0.30123 -0.582,-0.60026 -0.8809,-0.89258 -0.2941,-0.30561 -0.5912,-0.60785 -0.8945,-0.9043 -0.2738,-0.28425 -0.5483,-0.56742 -0.8301,-0.84375 -0.304,-0.31655 -0.61,-0.63073 -0.9238,-0.9375 -0.2796,-0.29016 -0.5618,-0.57746 -0.8496,-0.85937 -0.2948,-0.30644 -0.5925,-0.60899 -0.8965,-0.90625 -0.2838,-0.29442 -0.5691,-0.58711 -0.8613,-0.87305 -0.2872,-0.29811 -0.5772,-0.59339 -0.8731,-0.88281 -0.2812,-0.2917 -0.5639,-0.58185 -0.8535,-0.86524 -0.2818,-0.29241 -0.5653,-0.58311 -0.8555,-0.86719 -0.279,-0.28962 -0.5584,-0.57792 -0.8457,-0.85937 -0.2878,-0.29889 -0.5784,-0.59458 -0.875,-0.88477 -0.2803,-0.29065 -0.5629,-0.57891 -0.8515,-0.86132 -0.2724,-0.28238 -0.546,-0.56328 -0.8262,-0.8379 -0.2741,-0.28445 -0.55,-0.56715 -0.832,-0.84374 -0.2929,-0.30413 -0.5888,-0.60525 -0.8907,-0.9004 -0.2629,-0.27215 -0.5267,-0.54365 -0.7968,-0.80859 -0.2889,-0.2998 -0.5794,-0.59759 -0.877,-0.88867 -0.2657,-0.27498 -0.5335,-0.54683 -0.8066,-0.81445 -0.2707,-0.28066 -0.542,-0.56098 -0.8203,-0.83399 -0.2776,-0.28782 -0.5563,-0.57373 -0.8418,-0.85351 -0.2731,-0.28296 -0.5473,-0.56466 -0.8282,-0.83985 -0.2706,-0.28027 -0.5439,-0.55742 -0.8222,-0.83008 -0.2674,-0.2768 -0.5358,-0.55288 -0.8106,-0.82226 -0.2738,-0.28371 -0.5484,-0.56589 -0.8301,-0.8418 -0.2665,-0.27578 -0.5346,-0.54995 -0.8086,-0.81836 -0.262,-0.27117 -0.5257,-0.54064 -0.7949,-0.80469 -0.2725,-0.28224 -0.5459,-0.56334 -0.8261,-0.83789 -0.2583,-0.26707 -0.5182,-0.5328 -0.7832,-0.79296 -0.2691,-0.27861 -0.5399,-0.55507 -0.8165,-0.82618 -0.2631,-0.27217 -0.5265,-0.54357 -0.7968,-0.80859 -0.2617,-0.2706 -0.5243,-0.53922 -0.793,-0.80273 -0.264,-0.27307 -0.5295,-0.54469 -0.8008,-0.81055 -0.2558,-0.26441 -0.5128,-0.5275 -0.7754,-0.78516 -0.2663,-0.2755 -0.5329,-0.55018 -0.8066,-0.81836 -0.2504,-0.25868 -0.5029,-0.51535 -0.7598,-0.76758 -0.263,-0.2721 -0.5267,-0.54362 -0.7969,-0.80859 -0.2495,-0.25786 -0.4998,-0.51417 -0.7558,-0.76562 -0.269,-0.27824 -0.538,-0.55539 -0.8145,-0.82618 -0.2413,-0.249 -0.4831,-0.49721 -0.7304,-0.74023 -0.256,-0.26479 -0.5127,-0.52905 -0.7754,-0.78711 -0.261,-0.26982 -0.523,-0.53796 -0.791,-0.80078 -0.2482,-0.25606 -0.4975,-0.51002 -0.752,-0.75977 -0.2514,-0.25964 -0.5037,-0.51831 -0.7617,-0.77148 -0.2478,-0.25578 -0.4959,-0.51028 -0.75,-0.75977 -0.2488,-0.25695 -0.4987,-0.51306 -0.7539,-0.76367 -0.2496,-0.25767 -0.4999,-0.51432 -0.7559,-0.76562 -0.2477,-0.25573 -0.4959,-0.51032 -0.75,-0.75977 -0.2455,-0.25333 -0.4905,-0.50673 -0.7422,-0.75391 -0.2442,-0.25198 -0.4899,-0.50214 -0.7402,-0.74804 -0.2438,-0.2516 -0.4884,-0.50252 -0.7383,-0.74805 -0.2515,-0.25959 -0.5036,-0.51835 -0.7617,-0.77148 -0.2342,-0.24127 -0.4692,-0.48111 -0.709,-0.7168 -0.2425,-0.25025 -0.4858,-0.49989 -0.7344,-0.74414 -0.2427,-0.25033 -0.4856,-0.4998 -0.7343,-0.74414 -0.2383,-0.2456 -0.4767,-0.49064 -0.7207,-0.73047 -0.2386,-0.24595 -0.4763,-0.49226 -0.7207,-0.73242 -0.2376,-0.24486 -0.4755,-0.48939 -0.7188,-0.72852 -0.2424,-0.24987 -0.4859,-0.49828 -0.7344,-0.74219 -0.2303,-0.23716 -0.4615,-0.47329 -0.6972,-0.70507 -0.2345,-0.24158 -0.469,-0.48275 -0.709,-0.71875 -0.2383,-0.24554 -0.4766,-0.49069 -0.7207,-0.73047 -0.2263,-0.23288 -0.4522,-0.46566 -0.6836,-0.69336 -0.2337,-0.24087 -0.4678,-0.48146 -0.707,-0.7168 -0.2313,-0.23827 -0.4625,-0.47612 -0.6993,-0.70898 -0.2419,-0.24914 -0.4845,-0.49702 -0.7324,-0.74024 -0.2184,-0.22441 -0.4369,-0.44836 -0.6601,-0.66797 -0.2268,-0.23342 -0.4536,-0.46707 -0.6856,-0.69531 -0.2339,-0.24081 -0.4676,-0.4815 -0.707,-0.7168 -0.2184,-0.22452 -0.437,-0.44824 -0.6602,-0.66796 -0.2262,-0.23291 -0.4522,-0.46561 -0.6836,-0.69336 -0.2262,-0.2329 -0.4521,-0.46562 -0.6836,-0.69336 -0.2336,-0.24039 -0.4678,-0.47996 -0.707,-0.71485 -0.2104,-0.21601 -0.4199,-0.43296 -0.6348,-0.64453 -0.226,-0.23254 -0.4524,-0.464 -0.6836,-0.6914 -0.2157,-0.22178 -0.4318,-0.44306 -0.6523,-0.66016 -0.2215,-0.22781 -0.4416,-0.4568 -0.668,-0.67969 -0.2269,-0.23333 -0.4553,-0.4652 -0.6875,-0.69336 -0.2076,-0.21307 -0.415,-0.42601 -0.6269,-0.63476 -0.2219,-0.22819 -0.4431,-0.45644 -0.6699,-0.67969 -0.2104,-0.21612 -0.42,-0.43284 -0.6348,-0.64453 -0.227,-0.23336 -0.4554,-0.46516 -0.6875,-0.69336 -0.1971,-0.20213 -0.3928,-0.40527 -0.5938,-0.60352 -0.2275,-0.23409 -0.4547,-0.46835 -0.6875,-0.69726 -0.2019,-0.20709 -0.4034,-0.41417 -0.6093,-0.61719 -0.2155,-0.22148 -0.4303,-0.44331 -0.6504,-0.66016 -0.213,-0.21868 -0.427,-0.43623 -0.6446,-0.65039 -0.201,-0.20622 -0.4004,-0.41304 -0.6054,-0.61523 -0.2207,-0.2267 -0.4425,-0.45199 -0.668,-0.67383 -0.1972,-0.20207 -0.3927,-0.40531 -0.5937,-0.60352 -0.2096,-0.21516 -0.4189,-0.42981 -0.6329,-0.64062 -0.2057,-0.21105 -0.4111,-0.42207 -0.621,-0.62891 -0.2003,-0.20538 -0.3993,-0.41188 -0.6036,-0.61328 -0.2127,-0.21839 -0.4252,-0.4365 -0.6425,-0.65039 -0.203,-0.20797 -0.4062,-0.41526 -0.6133,-0.61914 -0.1908,-0.19538 -0.3799,-0.3922 -0.5742,-0.58398 -0.2051,-0.21042 -0.41,-0.42071 -0.6192,-0.62696 -0.2006,-0.20574 -0.4008,-0.41153 -0.6055,-0.61328 -0.1999,-0.20503 -0.3994,-0.41026 -0.6035,-0.61133 -0.1962,-0.20103 -0.3917,-0.40238 -0.5918,-0.59961 -0.1968,-0.20171 -0.393,-0.40367 -0.5937,-0.60156 -0.2023,-0.20723 -0.405,-0.41401 -0.6113,-0.61718 -0.1812,-0.18535 -0.3606,-0.37259 -0.545,-0.55469 -0.206,-0.21132 -0.4128,-0.42179 -0.623,-0.62891 -0.1854,-0.1897 -0.3698,-0.38011 -0.5586,-0.5664 -0.1936,-0.1984 -0.3866,-0.39711 -0.584,-0.5918 -0.1853,-0.18983 -0.3698,-0.37997 -0.5586,-0.56641 -0.2028,-0.20794 -0.4044,-0.41721 -0.6113,-0.62109 -0.1826,-0.18669 -0.3649,-0.37324 -0.5508,-0.55664 -0.1854,-0.1898 -0.3698,-0.38 -0.5586,-0.56641 -0.1963,-0.20098 -0.3917,-0.40242 -0.5918,-0.59961 -0.1781,-0.18203 -0.3559,-0.36405 -0.5371,-0.54297 -0.1856,-0.19001 -0.3695,-0.38173 -0.5586,-0.56836 -0.1902,-0.19463 -0.3804,-0.38899 -0.5742,-0.58007 -0.1765,-0.18044 -0.3517,-0.36169 -0.5313,-0.53907 -0.1888,-0.1933 -0.3779,-0.38637 -0.5703,-0.57617 -0.1774,-0.18136 -0.3546,-0.36274 -0.5351,-0.54101 -0.1793,-0.18335 -0.3566,-0.36864 -0.5391,-0.54883 -0.1793,-0.18342 -0.3585,-0.36661 -0.541,-0.54688 -0.1842,-0.18839 -0.3671,-0.37744 -0.5547,-0.5625 -0.1781,-0.18194 -0.3559,-0.36413 -0.5371,-0.54297 -0.1698,-0.17342 -0.3391,-0.34697 -0.5117,-0.51757 -0.1816,-0.18568 -0.3621,-0.37224 -0.5469,-0.55469 -0.1685,-0.17209 -0.3365,-0.34436 -0.5078,-0.51367 -0.1743,-0.17813 -0.3462,-0.35805 -0.5234,-0.53321 -0.1782,-0.18204 -0.356,-0.36402 -0.5371,-0.54297 -0.1718,-0.17536 -0.343,-0.35095 -0.5176,-0.52343 -0.1708,-0.17434 -0.34,-0.35 -0.5137,-0.52149 -0.1631,-0.1665 -0.3265,-0.33218 -0.4922,-0.49609 -0.1703,-0.1741 -0.3385,-0.35022 -0.5117,-0.52149 -0.1801,-0.18397 -0.3597,-0.36801 -0.543,-0.54882 -0.1548,-0.15779 -0.3096,-0.31525 -0.4668,-0.47071 -0.1714,-0.17506 -0.3413,-0.35123 -0.5156,-0.52343 -0.1612,-0.16444 -0.3207,-0.33029 -0.4844,-0.49219 -0.175,-0.17865 -0.3493,-0.35754 -0.5273,-0.53321 -0.1506,-0.15341 -0.3003,-0.30775 -0.4531,-0.45898 -0.1676,-0.17109 -0.3336,-0.34336 -0.5039,-0.51172 -0.1619,-0.16503 -0.3239,-0.3297 -0.4883,-0.49219 -0.1542,-0.15714 -0.3065,-0.31586 -0.4629,-0.4707 -0.1676,-0.17102 -0.3336,-0.34342 -0.5039,-0.51172 -0.1571,-0.16002 -0.3132,-0.32088 -0.4727,-0.47851 -0.1506,-0.15345 -0.3003,-0.30774 -0.4531,-0.45899 -0.1618,-0.16506 -0.322,-0.33161 -0.4863,-0.49414 -0.1564,-0.15939 -0.3119,-0.31954 -0.4707,-0.47656 -0.1546,-0.15745 -0.308,-0.31556 -0.4649,-0.4707 -0.1526,-0.15549 -0.3041,-0.31162 -0.459,-0.46485 -0.1525,-0.15541 -0.3042,-0.31168 -0.4589,-0.46484 -0.1539,-0.15673 -0.3068,-0.31431 -0.4629,-0.46875 -0.1507,-0.1534 -0.3003,-0.30778 -0.4532,-0.45899 -0.1474,-0.15011 -0.2938,-0.3012 -0.4433,-0.44921 -0.1487,-0.15145 -0.2964,-0.30382 -0.4473,-0.45313 -0.1546,-0.15739 -0.3079,-0.31562 -0.4648,-0.4707 -0.1353,-0.13759 -0.2692,-0.27629 -0.4063,-0.41211 -0.158,-0.16107 -0.3161,-0.32182 -0.4765,-0.48047 -0.1386,-0.1408 -0.2757,-0.28292 -0.4161,-0.42188 -0.1436,-0.14613 -0.286,-0.29335 -0.4316,-0.4375 -0.1359,-0.1383 -0.2705,-0.27754 -0.4082,-0.41406 -0.1546,-0.15746 -0.3081,-0.31555 -0.4648,-0.4707 -0.1406,-0.14281 -0.2795,-0.28682 -0.4219,-0.42774 -0.1351,-0.13722 -0.2695,-0.27468 -0.4063,-0.41015 -0.1391,-0.14154 -0.2769,-0.28415 -0.4179,-0.42383 -0.1379,-0.14026 -0.2744,-0.28149 -0.4141,-0.41992 -0.1424,-0.14482 -0.2834,-0.29073 -0.4277,-0.4336 -0.1238,-0.12569 -0.2459,-0.25272 -0.3711,-0.37695 -0.1488,-0.15144 -0.2964,-0.30381 -0.4473,-0.45312 -0.1338,-0.13586 -0.2668,-0.27211 -0.4023,-0.40625 -0.1274,-0.12929 -0.254,-0.25899 -0.3829,-0.38672 -0.1317,-0.13389 -0.2611,-0.27012 -0.3945,-0.40235 -0.1382,-0.14049 -0.276,-0.28125 -0.416,-0.41992 -0.1186,-0.12039 -0.2355,-0.24228 -0.3555,-0.36133 -0.141,-0.14345 -0.2809,-0.28814 -0.4238,-0.42968 -0.1292,-0.13118 -0.2578,-0.263 -0.3887,-0.39258 -0.1199,-0.12165 -0.2381,-0.24496 -0.3593,-0.36524 -0.1335,-0.13554 -0.2653,-0.27241 -0.4004,-0.40625 -0.1199,-0.12165 -0.2401,-0.243 -0.3614,-0.36328 -0.1308,-0.13289 -0.2601,-0.2672 -0.3925,-0.39843 -0.1174,-0.11908 -0.2329,-0.23967 -0.3516,-0.35743 -0.1283,-0.13027 -0.2549,-0.26192 -0.3848,-0.39062 -0.1157,-0.11736 -0.2306,-0.23548 -0.3476,-0.35156 -0.1274,-0.12928 -0.254,-0.259 -0.3828,-0.38672 -0.1135,-0.11509 -0.2251,-0.23184 -0.3399,-0.34571 -0.1254,-0.12727 -0.25,-0.25509 -0.3769,-0.38086 -0.111,-0.11246 -0.2199,-0.2266 -0.3321,-0.33789 -0.1248,-0.12666 -0.2487,-0.25372 -0.375,-0.3789 -0.1132,-0.11473 -0.2254,-0.23025 -0.3398,-0.34375 -0.1161,-0.11772 -0.2302,-0.23709 -0.3477,-0.35352 -0.1135,-0.11508 -0.227,-0.2299 -0.3418,-0.34375 -0.1131,-0.11469 -0.2254,-0.23027 -0.3398,-0.34375 -0.1051,-0.10651 -0.2083,-0.21485 -0.3145,-0.32031 -0.1186,-0.12037 -0.2354,-0.2423 -0.3554,-0.36133 -0.1094,-0.11076 -0.2177,-0.22241 -0.3282,-0.33203 -0.1093,-0.1108 -0.2176,-0.22237 -0.3281,-0.33203 -0.1023,-0.10359 -0.2033,-0.20795 -0.3066,-0.31055 -0.1136,-0.1151 -0.2251,-0.23183 -0.3399,-0.3457 -0.1055,-0.10686 -0.2098,-0.21452 -0.3164,-0.32031 -0.1126,-0.11402 -0.2241,-0.22899 -0.3379,-0.3418 -0.085,-0.0858 -0.1683,-0.1727 -0.2539,-0.25781 -0.1218,-0.12362 -0.242,-0.24889 -0.3652,-0.3711 -0.097,-0.0985 -0.1946,-0.19726 -0.293,-0.29492 -0.1,-0.10122 -0.1978,-0.20441 -0.2988,-0.30469 -0.1013,-0.10252 -0.2024,-0.20509 -0.3047,-0.30664 -0.1055,-0.10678 -0.2098,-0.21458 -0.3164,-0.32031 -0.092,-0.0933 -0.1842,-0.1868 -0.2773,-0.2793 -0.096,-0.0973 -0.1901,-0.19656 -0.2871,-0.29297 -0.097,-0.0979 -0.1934,-0.1959 -0.2911,-0.29296 -0.09,-0.0914 -0.1784,-0.1848 -0.2695,-0.27539 -0.1068,-0.10811 -0.2125,-0.2172 -0.3203,-0.32422 -0.081,-0.0818 -0.1606,-0.16491 -0.2422,-0.2461 -0.1062,-0.10748 -0.2111,-0.21585 -0.3184,-0.32226 -0.084,-0.0851 -0.167,-0.17145 -0.2519,-0.25586 -0.091,-0.0917 -0.18,-0.18446 -0.2715,-0.27539 -0.091,-0.0917 -0.18,-0.18449 -0.2715,-0.27539 -0.095,-0.0963 -0.189,-0.19367 -0.2851,-0.28907 -0.081,-0.0814 -0.1609,-0.16331 -0.2422,-0.24414 -0.088,-0.0887 -0.1752,-0.17764 -0.2637,-0.26562 -0.085,-0.0861 -0.168,-0.17434 -0.2539,-0.25977 -0.085,-0.0857 -0.1684,-0.17277 -0.2539,-0.25781 -0.091,-0.0919 -0.1816,-0.18422 -0.2734,-0.27539 -0.077,-0.0772 -0.1515,-0.15578 -0.2286,-0.23242 -0.088,-0.0894 -0.1764,-0.17896 -0.2656,-0.26758 -0.08,-0.0811 -0.1592,-0.16362 -0.2402,-0.24414 -0.074,-0.0742 -0.1466,-0.14894 -0.2207,-0.22266 -0.08,-0.0805 -0.158,-0.16227 -0.2383,-0.24218 -0.084,-0.0844 -0.1658,-0.17018 -0.25,-0.25391 -0.077,-0.0775 -0.1531,-0.15548 -0.2305,-0.23242 -0.07,-0.071 -0.1401,-0.14239 -0.2109,-0.21289 -0.076,-0.0765 -0.1502,-0.15448 -0.2266,-0.23047 -0.08,-0.0808 -0.1595,-0.16197 -0.2402,-0.24219 -0.067,-0.068 -0.1333,-0.13752 -0.2012,-0.20508 -0.071,-0.072 -0.1411,-0.14529 -0.2129,-0.21679 -0.085,-0.0854 -0.1686,-0.17117 -0.2539,-0.25586 -0.057,-0.0578 -0.1141,-0.11632 -0.1718,-0.17383 -0.069,-0.07 -0.1373,-0.14142 -0.2071,-0.21094 -0.075,-0.0759 -0.1489,-0.15319 -0.2246,-0.22851 -0.067,-0.0676 -0.1336,-0.13591 -0.2012,-0.20313 -0.066,-0.067 -0.1323,-0.13459 -0.1992,-0.20117 -0.059,-0.0595 -0.1164,-0.12053 -0.1758,-0.17969 -0.07,-0.071 -0.1401,-0.14238 -0.2109,-0.21289 -0.064,-0.0644 -0.1271,-0.12938 -0.1914,-0.19336 -0.062,-0.0628 -0.1229,-0.12707 -0.1856,-0.18945 -0.055,-0.0552 -0.1089,-0.11108 -0.164,-0.16602 -0.067,-0.0677 -0.1336,-0.13587 -0.2012,-0.20312 -0.06,-0.0608 -0.119,-0.12317 -0.1797,-0.1836 -0.058,-0.0584 -0.1154,-0.11764 -0.1738,-0.17578 -0.058,-0.0584 -0.1154,-0.11764 -0.1738,-0.17578 -0.05,-0.0506 -0.1,-0.10197 -0.1504,-0.15234 -0.062,-0.0628 -0.1229,-0.12706 -0.1856,-0.18946 -0.054,-0.0545 -0.1076,-0.10979 -0.1621,-0.16406 -0.061,-0.0614 -0.1222,-0.12254 -0.1836,-0.18359 -0.046,-0.046 -0.091,-0.0928 -0.1367,-0.13867 -0.045,-0.0457 -0.089,-0.0932 -0.1348,-0.13868 -0.064,-0.0644 -0.1271,-0.12936 -0.1914,-0.19336 -0.037,-0.0372 -0.074,-0.0742 -0.1113,-0.11132 -0.055,-0.0556 -0.1087,-0.11271 -0.164,-0.16797 -0.054,-0.0545 -0.1077,-0.10983 -0.1622,-0.16406 -0.041,-0.0411 -0.082,-0.0821 -0.123,-0.12305 -0.046,-0.046 -0.091,-0.0928 -0.1367,-0.13867 -0.039,-0.0388 -0.077,-0.0785 -0.1153,-0.11719 -0.057,-0.0572 -0.1128,-0.11501 -0.1699,-0.17188 -0.037,-0.0369 -0.072,-0.0746 -0.1094,-0.11132 -0.036,-0.0359 -0.07,-0.0736 -0.1054,-0.10938 -0.06,-0.0607 -0.121,-0.12125 -0.1817,-0.18164 -0.027,-0.0274 -0.055,-0.0547 -0.082,-0.082 -0.039,-0.0395 -0.078,-0.0798 -0.1172,-0.11914 -0.044,-0.0447 -0.088,-0.0902 -0.1328,-0.13477 -0.031,-0.0313 -0.062,-0.0625 -0.094,-0.0937 -0.035,-0.0356 -0.07,-0.072 -0.1055,-0.10742 -0.036,-0.0362 -0.071,-0.0733 -0.1074,-0.10937 -0.04,-0.0401 -0.079,-0.0811 -0.1192,-0.1211 -0.027,-0.0267 -0.053,-0.0534 -0.08,-0.0801 -0.039,-0.0395 -0.078,-0.0798 -0.1171,-0.11914 -0.025,-0.0248 -0.05,-0.0495 -0.074,-0.0742 -0.03,-0.0303 -0.06,-0.0615 -0.09,-0.0918 -0.036,-0.0362 -0.071,-0.0733 -0.1074,-0.10938 -0.022,-0.0222 -0.044,-0.0443 -0.066,-0.0664 -0.02,-0.0203 -0.039,-0.0423 -0.059,-0.0625 -0.01,-0.007 -0.015,-0.0127 -0.022,-0.0195 -0.034,-0.0336 -0.066,-0.068 -0.1,-0.10156 -0.019,-0.0186 -0.036,-0.0381 -0.055,-0.0566 -0.019,-0.0193 -0.037,-0.0393 -0.057,-0.0586 -0.01,-0.005 -0.01,-0.0104 -0.016,-0.0156 -0.03,-0.03 -0.06,-0.0599 -0.09,-0.0898 -0.023,-0.0228 -0.046,-0.0456 -0.068,-0.0684 -0.011,-0.0114 -0.022,-0.0237 -0.033,-0.0352 0,-0.003 -0.01,-0.007 -0.01,-0.01 -0.027,-0.0274 -0.055,-0.0547 -0.082,-0.082 -0.01,-0.0101 -0.019,-0.0211 -0.029,-0.0312 0,-0.003 -0.01,-0.005 -0.01,-0.008 -0.035,-0.0352 -0.07,-0.0704 -0.1055,-0.10546 0,-10e-4 0,-0.003 0,-0.004 -0.023,-0.0235 -0.047,-0.0469 -0.07,-0.0703 -0.01,-0.009 -0.018,-0.0199 -0.027,-0.0293 -0.022,-0.0215 -0.043,-0.043 -0.064,-0.0644 -0.01,-0.007 -0.013,-0.0146 -0.02,-0.0215 -0.013,-0.013 -0.026,-0.0261 -0.039,-0.0391 -0.012,-0.0124 -0.025,-0.0248 -0.037,-0.0371 -0.011,-0.0114 -0.022,-0.0237 -0.033,-0.0352 -0.01,-0.0104 -0.021,-0.0208 -0.031,-0.0312 -0.01,-0.009 -0.018,-0.0182 -0.027,-0.0273 -0.01,-0.008 -0.017,-0.0169 -0.025,-0.0254 -0.01,-0.007 -0.014,-0.0143 -0.021,-0.0215 -0.01,-0.007 -0.013,-0.013 -0.02,-0.0195 -0.01,-0.005 -0.01,-0.0104 -0.016,-0.0156 -10e-4,-10e-4 0,-0.003 -0.01,-0.004 v -0.002 c -10e-4,-10e-4 -10e-4,-0.003 0,-0.004 v -0.004 c -0.01,-0.006 -0.012,-0.0117 -0.018,-0.0176 -10e-4,-0.001 -9e-4,-0.003 0,-0.004 -7e-4,-6.5e-4 0,-10e-4 0,-0.002 -0.514,-0.5139 -1.0401,-1.01693 -1.5781,-1.50586 0,-10e-4 0,-0.003 0,-0.004 -5e-4,-3.7e-4 0,-0.002 0,-0.002 -0.54,-0.49066 -1.0908,-0.96903 -1.6542,-1.43359 v 0 c -0.4426,-0.36492 -0.8971,-0.71616 -1.3535,-1.06446 -0.1229,-0.0938 -0.2414,-0.19261 -0.3653,-0.28515 0,-0.001 0,-0.003 0,-0.004 v -0.002 c -0.584,-0.43615 -1.1799,-0.85729 -1.7852,-1.26563 0,-10e-4 0,-0.003 0,-0.004 v -0.002 c -0.6069,-0.40925 -1.2243,-0.80322 -1.8516,-1.18359 v -0.002 c -0.6274,-0.38034 -1.2654,-0.7452 -1.9121,-1.09571 v -0.002 c -0.6471,-0.35061 -1.3031,-0.68604 -1.9688,-1.00586 v 0 c -0.3001,-0.14415 -0.6084,-0.27435 -0.9121,-0.41211 -0.3699,-0.16777 -0.7381,-0.34381 -1.1133,-0.50195 -0.2977,-0.12548 -0.6034,-0.23614 -0.9043,-0.35547 -1.0819,-0.42899 -2.1776,-0.82864 -3.2988,-1.17578 -0.7152,-0.22148 -1.4381,-0.42631 -2.168,-0.61328 0,-3.2e-4 0,3.1e-4 0,0 -0.3353,-0.0859 -0.6773,-0.15594 -1.0156,-0.23438 -0.3981,-0.0923 -0.7933,-0.19159 -1.1953,-0.27343 -2.9814,-0.60722 -6.0685,-0.92774 -9.2344,-0.92774 h -0.01 -853.79494 z"
         transform="matrix(0.26458333,0,0,0.26458333,-161.77383,-124.73216)" />
      <g
         style="fill:#f44336;fill-opacity:1"
         id="g4958"
         transform="matrix(0.72708246,0,0,0.72708246,29.7916,39.900861)">
        <path
           id="rect837"
           style="fill:#f44336;fill-opacity:1;stroke-width:0.999999"
           d="m -174.57227,-97.429688 c -34.82285,0 -62.85546,28.034565 -62.85546,62.857422 V 1139.7148 c 0,34.8229 28.03261,62.8575 62.85546,62.8575 H 999.71484 c 34.82286,0 62.85746,-28.0346 62.85746,-62.8575 V -34.572266 c 0,-34.822857 -28.0346,-62.857422 -62.85746,-62.857422 z m 61.94141,68.572266 H 937.77344 C 968.92268,-28.857422 994,-3.7800965 994,27.369141 V 97.142578 H -168.85742 V 27.369141 c 0,-31.1492375 25.07732,-56.226563 56.22656,-56.226563 z M -168.85742,168.57227 H 994 V 1077.7734 C 994,1108.9227 968.92268,1134 937.77344,1134 h -1050.4043 c -31.14924,0 -56.22656,-25.0773 -56.22656,-56.2266 z"
           transform="scale(0.26458333)" />
        <circle
           style="fill:#f44336;fill-opacity:1;stroke-width:0.264583"
           id="path856"
           cx="-23.4345"
           cy="8.3910675"
           r="7.5595236" />
        <circle
           r="7.5595236"
           cy="8.3910675"
           cx="-1.7386657"
           id="circle858"
           style="fill:#f44336;fill-opacity:1;stroke-width:0.264583" />
        <circle
           style="fill:#f44336;fill-opacity:1;stroke-width:0.264583"
           id="circle860"
           cx="19.957167"
           cy="8.3910675"
           r="7.5595236" />
        <text
           xml:space="preserve"
           id="text862"
           style="font-style:normal;font-variant:normal;font-weight:normal;font-stretch:normal;font-size:10.5833px;line-height:1.25;font-family:'Hobo Std';-inkscape-font-specification:'Hobo Std, Normal';font-variant-ligatures:normal;font-variant-caps:normal;font-variant-numeric:normal;font-variant-east-asian:normal;letter-spacing:0px;word-spacing:0px;white-space:pre;shape-inside:url(#rect864);fill:#f44336;fill-opacity:1;stroke:none;"
           transform="matrix(13.519927,0,0,13.519927,5091.5109,-727.65954)"><tspan
             x="-380.24414"
             y="70.82703"><tspan
               style="font-style:normal;font-variant:normal;font-weight:normal;font-stretch:normal;font-size:10.5833px;font-family:'Hobo Std';-inkscape-font-specification:'Hobo Std, Normal';font-variant-ligatures:normal;font-variant-caps:normal;font-variant-numeric:normal;font-variant-east-asian:normal;fill:#f44336;fill-opacity:1">&lt;//&gt;</tspan></tspan></text>
      </g>
    </g>
  </g>
</svg>
