<?xml version="1.0" encoding="UTF-8" standalone="no"?>
<svg
   xmlns:dc="http://purl.org/dc/elements/1.1/"
   xmlns:cc="http://creativecommons.org/ns#"
   xmlns:rdf="http://www.w3.org/1999/02/22-rdf-syntax-ns#"
   xmlns:svg="http://www.w3.org/2000/svg"
   xmlns="http://www.w3.org/2000/svg"
   xmlns:sodipodi="http://sodipodi.sourceforge.net/DTD/sodipodi-0.dtd"
   xmlns:inkscape="http://www.inkscape.org/namespaces/inkscape"
   width="67.73333mm"
   height="67.733337mm"
   viewBox="0 0 67.73333 67.733338"
   version="1.1"
   sodipodi:docname="webappI_scalable.svg"
   inkscape:export-ydpi="96"
   inkscape:export-xdpi="96"
   inkscape:export-filename="C:\Users\linos\Desktop\webappII.png"
   id="svg8"
   inkscape:version="1.0 (4035a4fb49, 2020-05-01)">
  <defs
     id="defs2">
    <rect
       id="rect864"
       height="147.41071"
       width="223.7619"
       y="60.476189"
       x="-380.24405" />
    <rect
       x="-380.24405"
       y="60.476189"
       width="223.7619"
       height="147.41071"
       id="rect4974" />
    <rect
       x="-380.24405"
       y="60.476189"
       width="223.7619"
       height="147.41071"
       id="rect62" />
  </defs>
  <sodipodi:namedview
     inkscape:window-maximized="1"
     inkscape:window-y="-9"
     inkscape:window-x="-9"
     inkscape:window-height="1013"
     inkscape:window-width="1920"
     showgrid="false"
     inkscape:document-rotation="0"
     inkscape:current-layer="layer1"
     inkscape:document-units="mm"
     inkscape:cy="877.10189"
     inkscape:cx="389.72797"
     inkscape:zoom="0.32684626"
     inkscape:pageshadow="2"
     inkscape:pageopacity="0.0"
     borderopacity="1.0"
     bordercolor="#666666"
     pagecolor="#ffffff"
     id="base" />
  <metadata
     id="metadata5">
    <rdf:RDF>
      <cc:Work
         rdf:about="">
        <dc:format>image/svg+xml</dc:format>
        <dc:type
           rdf:resource="http://purl.org/dc/dcmitype/StillImage" />
        <dc:title></dc:title>
        <cc:license
           rdf:resource="http://creativecommons.org/licenses/by-sa/4.0/" />
      </cc:Work>
      <cc:License
         rdf:about="http://creativecommons.org/licenses/by-sa/4.0/">
        <cc:permits
           rdf:resource="http://creativecommons.org/ns#Reproduction" />
        <cc:permits
           rdf:resource="http://creativecommons.org/ns#Distribution" />
        <cc:requires
           rdf:resource="http://creativecommons.org/ns#Notice" />
        <cc:requires
           rdf:resource="http://creativecommons.org/ns#Attribution" />
        <cc:permits
           rdf:resource="http://creativecommons.org/ns#DerivativeWorks" />
        <cc:requires
           rdf:resource="http://creativecommons.org/ns#ShareAlike" />
      </cc:License>
    </rdf:RDF>
  </metadata>
  <g
     transform="translate(161.77383,124.73216)"
     id="layer1"
     inkscape:groupmode="layer"
     inkscape:label="Livello 1">
    <g
       transform="matrix(0.125,0,0,0.12500001,-141.5521,-109.14064)"
       inkscape:export-ydpi="96"
       inkscape:export-xdpi="96"
       id="g81">
      <rect
         style="fill:#34495e;fill-opacity:1;stroke-width:0.264583"
         id="rect10"
         width="541.86664"
         height="541.86664"
         x="-161.77383"
         y="-124.73216" />
      <path
         d="m -3.7943278,21.157641 c -3.5582436,7.94e-4 -6.7476792,1.523008 -8.9560422,3.95428 v 5.29e-4 c -1.169006,1.287084 -2.063369,2.828954 -2.591573,4.534606 v 5.29e-4 c -0.352068,1.13705 -0.542086,2.346627 -0.542086,3.602366 v 0.0026 225.899379 0.003 c 2.64e-4,1.6745 0.337891,3.26713 0.948264,4.71446 h 5.29e-4 c 0.07622,0.18071 0.156207,0.35933 0.240811,0.53538 h 5.29e-4 c 0.08461,0.17603 0.173376,0.34978 0.266134,0.52091 h 5.29e-4 c 0.371395,0.68506 0.806712,1.33009 1.298628,1.92651 h 5.29e-4 c 0.12287,0.14896 0.24902,0.29491 0.378788,0.4377 h 5.29e-4 c 0.129775,0.14277 0.263036,0.28218 0.39946,0.41857 h 5.29e-4 v 0 h 5.29e-4 5.29e-4 0.0011 c 2.64e-4,0 7.94e-4,0 0.0011,0 5.29e-4,0 0.0011,0 0.0016,0.003 0.0011,0 0.0024,0.003 0.0036,0.003 2.65e-4,0 7.94e-4,0 0.0011,0 0.0011,0 0.0016,0.003 0.0026,0.003 0.0024,0.003 0.0053,0.005 0.0078,0.007 0.0043,0.004 0.0086,0.009 0.01291,0.013 0.01008,0.01 0.02037,0.0198 0.03049,0.03 0.0016,0.003 0.0031,0.003 0.0047,0.005 h 5.29e-4 c 0.0072,0.007 0.01445,0.0145 0.0217,0.0217 h 5.29e-4 c 0.0021,0.003 0.0041,0.004 0.0062,0.006 0.0061,0.006 0.01249,0.0119 0.0186,0.018 h 0.0011 c 0.0024,0.003 0.0049,0.005 0.0072,0.007 0.0048,0.005 0.0096,0.01 0.01447,0.0145 0.0069,0.007 0.01376,0.0138 0.02066,0.0206 0.0036,0.003 0.0072,0.007 0.01085,0.0109 0.0056,0.006 0.01146,0.0108 0.01707,0.0164 0.01188,0.0119 0.02424,0.0233 0.03617,0.0351 0.0083,0.008 0.01654,0.0164 0.02479,0.0249 0.0016,0.003 0.0031,0.003 0.0047,0.005 0.0016,0.003 0.0031,0.003 0.0047,0.005 0.01058,0.0106 0.02143,0.0209 0.03204,0.0315 0.0072,0.007 0.01445,0.0145 0.0217,0.0217 0.0057,0.006 0.01188,0.0109 0.01757,0.0164 0.0078,0.008 0.01548,0.0156 0.02326,0.0233 0.0098,0.01 0.01961,0.0196 0.02946,0.0295 0.0065,0.007 0.01307,0.013 0.01963,0.0196 0.01024,0.0103 0.02074,0.0204 0.03101,0.0305 0.0089,0.009 0.01797,0.0175 0.02687,0.0265 0.009,0.009 0.01831,0.0177 0.02739,0.0269 0.0077,0.008 0.01558,0.0151 0.02326,0.0228 0.01326,0.0132 0.02648,0.0266 0.03979,0.0398 0.0063,0.006 0.01283,0.0124 0.01913,0.0185 0.01196,0.0119 0.02418,0.0238 0.03617,0.0357 0.0087,0.009 0.01765,0.0172 0.02635,0.0259 0.01238,0.0124 0.02477,0.0249 0.03721,0.0372 0.01093,0.0108 0.02209,0.0217 0.03307,0.0325 0.01109,0.0111 0.02244,0.022 0.03359,0.0331 0.01162,0.0116 0.02347,0.023 0.03514,0.0346 0.01,0.0101 0.01995,0.0201 0.02997,0.03 0.01384,0.014 0.02795,0.0275 0.04186,0.0413 0.01394,0.014 0.02837,0.0274 0.04237,0.0414 0.009,0.009 0.01834,0.0177 0.02739,0.0269 0.01633,0.0164 0.03267,0.0328 0.04909,0.0491 0.0096,0.01 0.01979,0.0188 0.02945,0.0284 0.01513,0.0151 0.03027,0.0304 0.04548,0.0455 0.01349,0.0135 0.02725,0.0268 0.04082,0.0403 0.01574,0.0159 0.03172,0.0313 0.04754,0.0471 0.009,0.009 0.01834,0.0177 0.02739,0.0268 0.02122,0.0214 0.04271,0.0424 0.06408,0.0636 0.0096,0.01 0.01979,0.0188 0.02945,0.0284 0.01831,0.0185 0.03688,0.0365 0.05529,0.0548 0.0117,0.0116 0.02392,0.023 0.03566,0.0346 0.01908,0.0193 0.03816,0.0383 0.05736,0.0574 0.01394,0.014 0.02837,0.0274 0.04238,0.0413 0.0159,0.0159 0.03206,0.0317 0.04806,0.0475 0.01815,0.0183 0.03652,0.0362 0.05478,0.0543 0.01463,0.0145 0.02975,0.0288 0.04444,0.0434 0.01693,0.0169 0.03413,0.0338 0.05116,0.0507 0.01709,0.0172 0.03447,0.0341 0.05168,0.0511 0.01746,0.0175 0.03515,0.0348 0.05271,0.0522 0.01744,0.0175 0.03515,0.0348 0.05271,0.0522 0.01977,0.0199 0.04003,0.0392 0.05994,0.0589 0.01659,0.0167 0.03344,0.0331 0.05013,0.0496 0.01831,0.0185 0.03687,0.0365 0.0553,0.0548 0.02035,0.0204 0.04099,0.0407 0.06149,0.061 0.01738,0.0175 0.03523,0.0343 0.05271,0.0517 0.0208,0.0209 0.0421,0.0413 0.06304,0.062 0.01781,0.0177 0.03583,0.0354 0.05374,0.0532 0.02114,0.0212 0.04279,0.0419 0.06408,0.063 0.01857,0.0188 0.03764,0.0368 0.05633,0.0553 0.02027,0.0204 0.04056,0.0407 0.060979,0.061 0.020532,0.0206 0.041333,0.041 0.062013,0.0615 0.02249,0.0228 0.045532,0.0447 0.068212,0.0672 0.01942,0.0196 0.039354,0.0385 0.058912,0.0579 0.022939,0.023 0.046127,0.0458 0.069244,0.0687 0.020029,0.0201 0.040304,0.04 0.060463,0.06 0.023521,0.0238 0.047591,0.0468 0.071313,0.0703 0.022172,0.0222 0.044839,0.044 0.06718,0.0661 0.022516,0.0227 0.045519,0.0447 0.068212,0.0672 0.021034,0.0212 0.04236,0.0421 0.063561,0.0631 0.026035,0.0262 0.052803,0.0516 0.079066,0.0775 0.018494,0.0185 0.037203,0.0368 0.055811,0.0553 0.028231,0.0285 0.056753,0.0566 0.085265,0.0847 0.022278,0.0222 0.045254,0.0439 0.067696,0.0661 0.022146,0.0222 0.044852,0.044 0.06718,0.0661 0.026114,0.0262 0.052721,0.052 0.079065,0.078 0.024395,0.0246 0.049289,0.0485 0.073898,0.0729 0.023283,0.0236 0.046807,0.0465 0.070279,0.0698 0.026458,0.0266 0.053406,0.0527 0.0801,0.079 0.027294,0.0275 0.055118,0.0544 0.082682,0.0817 0.020346,0.0204 0.040989,0.0407 0.061494,0.061 0.031223,0.0315 0.062995,0.0624 0.094567,0.0936 0.02286,0.023 0.046199,0.0454 0.069247,0.0682 0.031321,0.0316 0.063413,0.0623 0.095083,0.0935 0.021511,0.0217 0.043447,0.0426 0.065114,0.0641 0.028834,0.0291 0.0582,0.0575 0.087331,0.0863 0.026972,0.0271 0.054422,0.0537 0.08165,0.0806 0.02577,0.0259 0.052036,0.0513 0.078031,0.077 0.031147,0.0314 0.062558,0.0625 0.094051,0.0935 0.024739,0.0249 0.049975,0.0492 0.07493,0.0739 0.031477,0.0317 0.063772,0.0626 0.095602,0.094 0.026972,0.0272 0.054417,0.0537 0.081648,0.0806 0.027207,0.0274 0.054697,0.0545 0.082166,0.0817 0.033708,0.034 0.068207,0.0672 0.1023197,0.10078 0.02622,0.0265 0.053123,0.0519 0.079581,0.078 0.027723,0.0279 0.055719,0.0555 0.083717,0.0832 0.031634,0.0319 0.064124,0.063 0.096118,0.0946 0.03329,0.0336 0.067082,0.0666 0.1007692,0.0997 0.025506,0.0257 0.051774,0.0505 0.077515,0.076 0.032504,0.0328 0.065302,0.0653 0.098184,0.0977 0.03234,0.0326 0.065471,0.0644 0.098184,0.0966 0.029358,0.0296 0.059219,0.0586 0.088884,0.0878 0.031478,0.0318 0.06377,0.0627 0.095602,0.0941 0.031922,0.0322 0.064347,0.0638 0.096634,0.0956 0.035356,0.0357 0.07117,0.0707 0.1069711,0.10594 0.026876,0.0271 0.054515,0.0533 0.081648,0.0801 0.036005,0.0364 0.07257,0.0721 0.1090374,0.10801 0.031332,0.0316 0.063402,0.0623 0.095086,0.0935 0.034991,0.0353 0.070504,0.07 0.1059365,0.1049 0.031409,0.0317 0.06332,0.0628 0.095083,0.094 0.035237,0.0356 0.071289,0.0703 0.106971,0.10543 0.031753,0.032 0.064005,0.0635 0.096118,0.0951 0.034118,0.0344 0.068818,0.0683 0.1033541,0.10234 0.038235,0.0386 0.07751,0.0761 0.1162712,0.11419 0.02944,0.0297 0.059648,0.0585 0.0894,0.0878 0.038134,0.0385 0.076578,0.0767 0.1152393,0.11473 0.035351,0.0357 0.071686,0.0702 0.107487,0.10543 0.035438,0.0357 0.071596,0.0707 0.107487,0.10594 0.033626,0.0339 0.06777,0.0673 0.1018011,0.10076 0.03634,0.0367 0.073258,0.0728 0.1100719,0.10903 0.037375,0.0378 0.075292,0.0749 0.1131702,0.11216 0.038595,0.0389 0.078176,0.0768 0.1173057,0.11522 0.031493,0.0318 0.063754,0.0627 0.095602,0.0941 0.04059,0.0411 0.081806,0.0815 0.1229889,0.12195 0.037288,0.0376 0.075385,0.0745 0.1131729,0.11163 0.037293,0.0376 0.075377,0.0745 0.1131702,0.11163 0.03447,0.0348 0.069493,0.069 0.1043861,0.10334 0.04309,0.0436 0.086982,0.0863 0.1307438,0.1292 0.036978,0.0373 0.074665,0.0738 0.1121357,0.11057 0.038156,0.0385 0.077076,0.0762 0.1157552,0.11422 0.037626,0.038 0.076068,0.0751 0.1142048,0.11266 0.040418,0.0408 0.081468,0.0811 0.122473,0.12141 0.039677,0.0401 0.080163,0.0794 0.1204066,0.11888 0.040968,0.0414 0.082965,0.0817 0.124542,0.12248 0.037139,0.0375 0.075015,0.0741 0.1126543,0.1111 0.041627,0.0421 0.083836,0.0836 0.1260898,0.12504 0.042243,0.0427 0.08527,0.0846 0.1281562,0.1266 0.03756,0.0379 0.076136,0.0747 0.1142074,0.11216 0.042397,0.0429 0.085622,0.0849 0.1286722,0.1271 0.039513,0.04 0.079296,0.0795 0.1193747,0.11888 0.044879,0.0454 0.090813,0.0896 0.1364244,0.13436 0.041659,0.0421 0.08432,0.0831 0.1266085,0.12454 0.039343,0.0397 0.079468,0.0786 0.119372,0.11782 0.043416,0.0439 0.087675,0.087 0.1317731,0.13022 0.042574,0.043 0.08596,0.0853 0.1291934,0.12764 0.044439,0.0449 0.089718,0.0891 0.134874,0.13332 0.040362,0.0408 0.081518,0.0807 0.122473,0.12092 0.045873,0.0465 0.09289,0.0918 0.139528,0.13747 0.041915,0.0424 0.084566,0.0838 0.1271243,0.12558 0.045463,0.046 0.091755,0.0911 0.137975,0.13641 0.041203,0.0417 0.083235,0.0825 0.1250579,0.12351 0.047662,0.0483 0.096202,0.0957 0.1446927,0.14314 0.0446431,0.0451 0.0905404,0.0889 0.13590852,0.13332 0.0436166,0.0441 0.0879845,0.0873 0.13229166,0.13076 0.0433335,0.0439 0.0872411,0.0871 0.13125979,0.13023 0.0471461,0.0478 0.0951839,0.0946 0.14314223,0.14158 0.0470932,0.0477 0.0952421,0.0942 0.14314487,0.14107 0.0462439,0.0468 0.0935329,0.0925 0.1405599,0.13849 0.0444579,0.045 0.08969639,0.0891 0.134874,0.13335 0.04528873,0.0459 0.09142147,0.0908 0.13745897,0.13589 0.05142707,0.0522 0.10366904,0.10334 0.15606448,0.15451 0.0454872,0.046 0.0922496,0.0907 0.1384935,0.13592 0.0439261,0.0444 0.088691,0.088 0.13332354,0.13176 0.0526733,0.0535 0.10650537,0.1057 0.16019727,0.15814 0.0431879,0.0437 0.0868733,0.0867 0.1307412,0.1297 0.0510752,0.0518 0.102997,0.10263 0.15502996,0.15349 0.0490643,0.0497 0.0993987,0.098 0.14934411,0.14676 0.046844,0.0474 0.094464,0.094 0.1421103,0.14055 0.049961,0.0506 0.1010523,0.10014 0.151929,0.14986 0.049215,0.0498 0.099243,0.0988 0.1493441,0.1478 0.04804,0.0486 0.097359,0.0958 0.1462458,0.14366 0.05176,0.0525 0.1043517,0.10404 0.1570963,0.15555 0.049731,0.0504 0.1002533,0.0999 0.1508946,0.14933 0.048707,0.0494 0.098732,0.0973 0.1483122,0.14574 0.050464,0.0512 0.1015576,0.10168 0.1529609,0.15192 0.051858,0.0526 0.1047644,0.10395 0.1576149,0.15555 0.051419,0.0521 0.1041823,0.10287 0.1565778,0.15401 0.050916,0.0516 0.1026451,0.10232 0.154514,0.15296 0.053319,0.0541 0.1078944,0.10668 0.1622637,0.15967 0.047188,0.0478 0.095133,0.0947 0.1431422,0.14161 0.056642,0.0575 0.114255,0.11417 0.1720823,0.17052 0.050935,0.0516 0.1031426,0.10181 0.15503,0.15246 0.052186,0.0529 0.105455,0.10466 0.1586468,0.15658 0.051861,0.0526 0.1047591,0.10392 0.1576123,0.15554 0.054218,0.055 0.1095428,0.10883 0.1648486,0.16278 0.053374,0.0542 0.1078363,0.1071 0.1622637,0.1602 0.052258,0.053 0.1053782,0.10507 0.1586468,0.15708 0.057616,0.0585 0.1163373,0.11584 0.1751833,0.17312 0.053821,0.0545 0.1089236,0.10779 0.1638141,0.16124 0.051856,0.0525 0.1047644,0.10398 0.1576123,0.15555 0.053874,0.0547 0.1088681,0.10811 0.1638141,0.16174 0.057965,0.0589 0.1170067,0.11649 0.1762178,0.17415 0.05466,0.0554 0.1101143,0.11001 0.1658805,0.16433 0.054464,0.0552 0.110318,0.10914 0.1658832,0.1633 0.057769,0.0587 0.1166865,0.1162 0.1756992,0.17362 0.051345,0.0521 0.1037378,0.10292 0.1560618,0.15401 0.061047,0.0621 0.1230868,0.12322 0.1855179,0.18397 0.056539,0.0573 0.1143582,0.11334 0.172085,0.16949 0.053562,0.0543 0.1081511,0.10745 0.1627796,0.16071 0.062111,0.0632 0.1255871,0.12483 0.1891348,0.18656 0.052395,0.0531 0.1057486,0.10503 0.1591654,0.1571 0.061002,0.062 0.1231238,0.1228 0.1855179,0.18344 0.054311,0.0551 0.1099528,0.10877 0.1653645,0.16277 0.06164,0.0627 0.1245235,0.12422 0.1875843,0.18553 0.056679,0.0575 0.1147234,0.11369 0.172601,0.17002 0.058708,0.0597 0.1182846,0.11835 0.1782815,0.17674 0.059301,0.0603 0.1197398,0.11933 0.1803506,0.17828 0.061704,0.0627 0.1249786,0.12372 0.1881029,0.18499 0.054742,0.0555 0.1105376,0.10994 0.1663991,0.16434 0.062839,0.064 0.1268835,0.12663 0.1912011,0.18915 0.059132,0.06 0.1193959,0.11901 0.1798346,0.17774 0.058888,0.0599 0.1191313,0.11819 0.1793187,0.17675 0.062997,0.0641 0.1272302,0.12702 0.1917198,0.18965 0.059076,0.06 0.1194461,0.11856 0.179832,0.17724 0.062508,0.0636 0.1261956,0.12602 0.1901692,0.1881 0.059986,0.061 0.1210813,0.12075 0.1824197,0.18036 0.061312,0.0624 0.1238276,0.12354 0.1865497,0.1845 0.064474,0.0656 0.1303338,0.12972 0.1963711,0.19378 0.058116,0.059 0.1178666,0.11639 0.1772497,0.17415 0.063582,0.0648 0.1281638,0.12845 0.1932698,0.19171 0.06531,0.0665 0.132038,0.1315 0.198956,0.19638 0.06245,0.0634 0.126249,0.12559 0.190169,0.18759 0.06074,0.0617 0.122873,0.12205 0.185,0.1824 0.06487,0.0661 0.13095,0.13086 0.197405,0.19534 0.06217,0.0633 0.125508,0.12528 0.189135,0.18706 0.06707,0.0683 0.135874,0.13494 0.204639,0.20154 0.06126,0.0623 0.123876,0.12313 0.186553,0.18399 0.06471,0.0659 0.130595,0.13049 0.196887,0.19481 0.06529,0.0665 0.132048,0.1315 0.198953,0.19637 0.06704,0.0682 0.135385,0.13499 0.204124,0.20154 0.06231,0.0633 0.125872,0.1252 0.18965,0.18706 0.06724,0.0685 0.135689,0.13581 0.20464,0.20256 0.06576,0.067 0.133101,0.13213 0.200504,0.19741 0.06602,0.0672 0.133352,0.13292 0.201022,0.19843 0.06421,0.0654 0.129561,0.12949 0.195337,0.19328 0.06797,0.0693 0.13749,0.13714 0.207221,0.20463 0.06822,0.0695 0.137753,0.13745 0.207741,0.20516 0.06444,0.0656 0.130346,0.12978 0.196371,0.19381 0.06936,0.0707 0.140163,0.13986 0.211354,0.20875 0.06669,0.0679 0.134705,0.13431 0.203089,0.2005 0.06706,0.0684 0.135345,0.13544 0.204123,0.20207 0.06898,0.0704 0.139518,0.13919 0.210323,0.20775 0.07012,0.0715 0.141946,0.14123 0.213939,0.21082 0.06601,0.0672 0.133353,0.1329 0.201023,0.19843 0.07004,0.0715 0.14151,0.14127 0.213423,0.21085 0.07054,0.0719 0.142534,0.14243 0.214974,0.21238 0.0687,0.07 0.138787,0.13856 0.209288,0.20672 0.07039,0.0718 0.142174,0.14203 0.214458,0.21188 0.06879,0.0701 0.139203,0.13843 0.209807,0.20669 0.07017,0.0716 0.141883,0.14171 0.213939,0.21138 0.06868,0.07 0.138798,0.13845 0.209291,0.20669 0.07422,0.0758 0.150008,0.15007 0.226343,0.22376 0.07033,0.0717 0.14223,0.1416 0.214458,0.21135 0.06978,0.0711 0.141248,0.14054 0.212905,0.20981 0.07077,0.0722 0.14279,0.14312 0.215493,0.21344 0.07405,0.0756 0.149664,0.14973 0.225824,0.22323 0.07086,0.0723 0.143222,0.14311 0.216009,0.21341 0.07298,0.0745 0.147698,0.14722 0.222723,0.21963 0.07181,0.0733 0.145315,0.14476 0.21911,0.21601 0.0728,0.0743 0.146843,0.14735 0.221691,0.21963 0.07177,0.0733 0.145347,0.14473 0.21911,0.21601 0.07744,0.0792 0.156398,0.15674 0.236159,0.23357 0.07083,0.0722 0.143243,0.14266 0.216008,0.21291 0.07457,0.0762 0.150657,0.15079 0.227375,0.22479 0.07169,0.0732 0.14491,0.14481 0.218594,0.21601 0.07852,0.0803 0.158861,0.15875 0.239779,0.23669 0.07174,0.0732 0.144851,0.14484 0.21859,0.21601 0.07565,0.0773 0.153115,0.15277 0.230995,0.22788 0.07591,0.0776 0.153358,0.15362 0.23151,0.22892 0.07568,0.0773 0.153088,0.15285 0.230992,0.22791 0.07501,0.0766 0.151731,0.1514 0.228928,0.22583 0.07598,0.0776 0.153797,0.15353 0.232026,0.22891 0.0761,0.0778 0.153673,0.15394 0.232027,0.22945 0.07714,0.0788 0.156186,0.15602 0.235646,0.23254 0.07748,0.0792 0.156339,0.15677 0.236161,0.23358 0.07279,0.0743 0.147347,0.14684 0.222208,0.2191 0.08108,0.0831 0.163872,0.16444 0.247531,0.24495 0.07758,0.0793 0.15675,0.15666 0.236678,0.23357 0.07735,0.0791 0.156469,0.15637 0.236162,0.23307 0.07848,0.0802 0.158885,0.15836 0.239778,0.23617 0.07795,0.0797 0.157385,0.15783 0.23771,0.23511 0.07848,0.0803 0.158882,0.15835 0.239778,0.23617 0.07753,0.0793 0.156279,0.15719 0.236162,0.2341 0.07969,0.0816 0.161206,0.16121 0.243396,0.2403 0.0807,0.0826 0.163237,0.16335 0.246496,0.24339 0.07974,0.0815 0.161166,0.16126 0.243398,0.24029 0.07989,0.0817 0.161513,0.16163 0.243912,0.24082 0.08007,0.0819 0.161835,0.16196 0.24443,0.24133 0.07971,0.0815 0.161187,0.16126 0.243395,0.24029 0.07953,0.0814 0.160851,0.16087 0.24288,0.23977 0.08237,0.0844 0.166616,0.16687 0.251664,0.24858 0.0819,0.0838 0.165563,0.16584 0.250113,0.24701 0.08024,0.0821 0.162163,0.1623 0.244948,0.24183 0.0817,0.0837 0.165259,0.1655 0.249598,0.24651 0.08311,0.0851 0.167881,0.16875 0.25373,0.25115 0.08353,0.0855 0.168992,0.16896 0.25528,0.25167 0.0782,0.0799 0.158123,0.15811 0.238747,0.23563 0.08523,0.0875 0.172334,0.1728 0.260448,0.25736 0.08222,0.0842 0.16624,0.16656 0.251148,0.24803 0.08371,0.0858 0.169304,0.1697 0.255799,0.2527 0.08478,0.0869 0.171265,0.17182 0.258897,0.2558 0.08286,0.0849 0.16763,0.16751 0.253215,0.24961 0.08288,0.0849 0.167597,0.16793 0.253216,0.25011 0.08675,0.089 0.17535,0.17602 0.2651,0.26199 0.08273,0.0847 0.16724,0.16764 0.252698,0.2496 0.0848,0.087 0.171741,0.17172 0.259416,0.2558 0.08555,0.0877 0.173006,0.17357 0.261482,0.2584 0.08704,0.0892 0.176062,0.17629 0.266134,0.26249 0.08206,0.0841 0.165875,0.16621 0.250629,0.24754 0.08854,0.0909 0.1791,0.17989 0.270786,0.26768 0.08439,0.0865 0.170619,0.17113 0.257865,0.25477 0.08843,0.0908 0.1787,0.17955 0.270267,0.26718 0.0862,0.0883 0.174373,0.17457 0.263551,0.25992 0.08737,0.0896 0.176734,0.17704 0.267166,0.26355 0.08538,0.0875 0.172656,0.17328 0.260966,0.25787 0.08784,0.0902 0.177771,0.17804 0.268719,0.26508 0.08942,0.0918 0.180726,0.18175 0.273368,0.27027 0.08575,0.0879 0.173291,0.17397 0.261998,0.2589 0.09118,0.0937 0.184512,0.18516 0.279053,0.27546 0.08682,0.089 0.175247,0.17605 0.2651,0.26199 0.08919,0.0915 0.180451,0.18092 0.272851,0.26924 0.08805,0.0904 0.178049,0.17841 0.269235,0.26561 0.09011,0.0926 0.182038,0.18309 0.275436,0.27234 0.08824,0.0906 0.178353,0.17923 0.269751,0.26665 0.09056,0.0931 0.183092,0.18415 0.276984,0.27387 0.09179,0.0943 0.185907,0.18616 0.28112,0.27699 0.0872,0.0894 0.176371,0.17669 0.266653,0.26305 0.09221,0.0949 0.186478,0.18767 0.282151,0.27903 0.09076,0.0932 0.183912,0.18404 0.278019,0.27389 0.09188,0.0944 0.185806,0.18659 0.28112,0.2775 0.09009,0.0925 0.182039,0.18317 0.275436,0.27233 0.0899,0.0924 0.181716,0.18273 0.274918,0.27184 0.09549,0.0983 0.193271,0.19431 0.292489,0.28887 0.08951,0.0919 0.18111,0.18169 0.273886,0.27024 0.09324,0.0959 0.188455,0.18982 0.285253,0.28218 0.0951,0.0978 0.192651,0.19325 0.291454,0.28731 0.0894,0.0917 0.180708,0.18132 0.273371,0.26975 0.09495,0.0977 0.19177,0.19333 0.290419,0.28733 0.09219,0.0948 0.186479,0.1873 0.282155,0.27853 0.09221,0.0949 0.186446,0.18767 0.282154,0.27906 0.09897,0.10199 0.200329,0.20127 0.30334,0.29919 0.08985,0.0922 0.181758,0.18245 0.274917,0.2713 0.09613,0.099 0.194612,0.19577 0.294556,0.29094 0.09502,0.0978 0.192193,0.19333 0.290938,0.28733 0.09282,0.0955 0.187852,0.18873 0.284221,0.2806 0.09751,0.10048 0.197247,0.19856 0.298691,0.29508 0.09224,0.0949 0.186399,0.18773 0.282151,0.27903 0.101256,0.10446 0.205068,0.20633 0.310576,0.30644 0.09222,0.0947 0.186426,0.18741 0.282155,0.27856 0.09616,0.0991 0.194553,0.19574 0.294555,0.29093 0.09685,0.0998 0.195876,0.19715 0.296622,0.293 0.09999,0.10303 0.2023,0.20349 0.306443,0.30232 0.09552,0.0982 0.19318,0.19402 0.292489,0.28834 0.09518,0.098 0.1925,0.1937 0.291454,0.28784 0.09839,0.10144 0.198848,0.20082 0.301273,0.29818 0.09788,0.10086 0.197848,0.19929 0.299723,0.2961 0.09924,0.10226 0.200509,0.20212 0.303858,0.30025 0.09702,0.0999 0.196707,0.19706 0.297656,0.293 0.09763,0.10065 0.197588,0.19897 0.299207,0.29559 0.100819,0.10401 0.203946,0.20569 0.309025,0.30541 0.09647,0.0994 0.195215,0.19653 0.29559,0.29197 0.102473,0.1058 0.207306,0.20923 0.314193,0.31057 0.09899,0.10197 0.200239,0.20142 0.303339,0.29921 0.09933,0.10237 0.200906,0.20207 0.304374,0.30025 0.09818,0.10123 0.198522,0.19997 0.300757,0.29713 0.10282,0.10623 0.207947,0.20989 0.315228,0.3116 0.0989,0.10197 0.200313,0.2014 0.303339,0.29922 0.100772,0.10406 0.20396,0.20566 0.309026,0.3054 0.102642,0.10602 0.20761,0.20958 0.314708,0.3111 0.103278,0.10655 0.208992,0.21064 0.316778,0.31263 0.0991,0.10208 0.200607,0.20185 0.303858,0.29972 0.103193,0.10658 0.208552,0.21066 0.316259,0.31266 0.102034,0.10525 0.206195,0.20823 0.312642,0.30901 0.100436,0.10364 0.203272,0.20455 0.307991,0.30387 0.103272,0.10676 0.208963,0.21098 0.316778,0.31316 0.106746,0.11031 0.21603,0.21807 0.327628,0.32348 0.100335,0.10335 0.202867,0.20431 0.307475,0.30335 0.103569,0.10697 0.209666,0.21132 0.31781,0.31369 0.10414,0.10755 0.210589,0.21285 0.31936,0.31572 0.102825,0.10618 0.208401,0.20948 0.315743,0.3111 0.105928,0.10951 0.213796,0.21675 0.324527,0.32142 0.104521,0.10792 0.21172,0.21309 0.320911,0.31628 0.104052,0.10742 0.210674,0.21246 0.31936,0.31523 0.103872,0.10731 0.210343,0.21203 0.318844,0.31469 0.106299,0.10996 0.214923,0.21741 0.326077,0.32247 0.105471,0.10904 0.213244,0.21567 0.323496,0.31989 0.108148,0.11181 0.219099,0.22087 0.33228,0.3276 0.10479,0.10814 0.211918,0.21395 0.321426,0.31732 0.105172,0.10864 0.212524,0.21497 0.322461,0.31882 0.107201,0.11091 0.217016,0.21918 0.329179,0.32504 0.104698,0.10827 0.211994,0.21384 0.321429,0.31732 0.10905,0.11297 0.220657,0.22346 0.334862,0.33123 0.109003,0.11274 0.22072,0.22267 0.334864,0.33022 0.104037,0.10743 0.21064,0.21252 0.31936,0.31523 0.10885,0.11276 0.220345,0.22315 0.334346,0.33073 0.109765,0.11364 0.222446,0.22442 0.337447,0.33279 0.106551,0.11017 0.21563,0.21778 0.327112,0.32298 0.10922,0.11311 0.220962,0.22389 0.335381,0.33176 0.109979,0.11385 0.22271,0.22479 0.337963,0.33332 0.107212,0.11086 0.216958,0.21921 0.329179,0.32504 0.110466,0.11446 0.223713,0.2263 0.339516,0.33539 0.109503,0.11335 0.221665,0.22418 0.336412,0.33226 0.108707,0.11258 0.220467,0.22236 0.334346,0.3297 0.110138,0.11419 0.22302,0.22553 0.338481,0.33435 0.110969,0.11504 0.224687,0.22733 0.341064,0.33692 0.110001,0.11404 0.222647,0.22519 0.337963,0.33383 0.109781,0.11385 0.222361,0.22481 0.33745,0.33332 0.115485,0.11991 0.233645,0.23691 0.355015,0.35089 0.110178,0.11396 0.222967,0.22527 0.338481,0.33383 0.110665,0.11461 0.223968,0.22672 0.340032,0.33588 0.112438,0.11658 0.22769,0.23014 0.345715,0.34108 0.110988,0.11504 0.224629,0.22738 0.341064,0.33692 0.112969,0.11724 0.228637,0.23161 0.347266,0.34314 0.114406,0.11869 0.231706,0.23444 0.351917,0.34726 0.112964,0.11703 0.228648,0.23133 0.347266,0.34261 0.109905,0.11388 0.222178,0.2254 0.337446,0.33383 0.117264,0.12189 0.237308,0.24087 0.360702,0.35657 0.111426,0.11542 0.225668,0.22813 0.342614,0.33796 0.114541,0.11893 0.232039,0.23532 0.352433,0.34829 0.113376,0.11766 0.2297,0.23234 0.348816,0.34417 0.116364,0.12089 0.235699,0.23874 0.358119,0.35349 0.114138,0.11837 0.230917,0.23423 0.350882,0.34673 0.114776,0.11912 0.232275,0.2357 0.352949,0.34883 0.115422,0.1198 0.233622,0.23657 0.355018,0.35036 0.11539,0.11978 0.233648,0.23662 0.355018,0.35036 0.115083,0.11952 0.232944,0.23636 0.353983,0.34986 0.117152,0.12171 0.237369,0.24056 0.360701,0.35605 0.113848,0.11819 0.23068,0.23342 0.350367,0.34571 0.118314,0.12313 0.239673,0.24347 0.364318,0.36017 0.115308,0.11981 0.233701,0.23665 0.355018,0.35039 0.119811,0.12465 0.242655,0.24622 0.368969,0.36431 0.114123,0.11845 0.23087,0.23423 0.350883,0.34676 0.120687,0.12565 0.24425,0.24791 0.371554,0.3669 0.115351,0.11977 0.233632,0.23669 0.355015,0.35036 0.118349,0.12319 0.239596,0.24341 0.364321,0.36018 0.120354,0.12528 0.243568,0.24728 0.37052,0.36586 0.117208,0.12179 0.237239,0.24061 0.360701,0.35605 0.118742,0.12356 0.240173,0.24419 0.365353,0.36124 0.120581,0.12549 0.244326,0.24759 0.371554,0.36637 0.117065,0.1217 0.236852,0.24071 0.360183,0.35605 0.120049,0.12506 0.243345,0.24698 0.370003,0.36536 0.122643,0.12771 0.248211,0.25236 0.377757,0.37311 0.118406,0.12301 0.239487,0.24316 0.364318,0.35965 0.118615,0.12346 0.240265,0.24379 0.365352,0.36071 0.122944,0.12819 0.248873,0.25299 0.378788,0.37415 0.120669,0.12554 0.244179,0.24812 0.371555,0.36689 0.118903,0.12375 0.240958,0.24408 0.366384,0.36121 0.123804,0.12915 0.250473,0.25527 0.381373,0.37725 0.120523,0.12543 0.244314,0.24775 0.371552,0.36639 0.121285,0.12637 0.24552,0.25001 0.373621,0.36949 0.122375,0.12758 0.247912,0.25202 0.377237,0.37259 0.122748,0.12798 0.248521,0.25273 0.378272,0.37362 0.122738,0.12795 0.248526,0.25275 0.378273,0.37361 0.122467,0.12769 0.248298,0.25197 0.377753,0.37259 0.123886,0.12922 0.250841,0.25527 0.381889,0.37724 0.124098,0.12936 0.251119,0.25617 0.382408,0.37828 0.121099,0.12615 0.245665,0.24868 0.37362,0.36793 0.127318,0.133 0.257818,0.26278 0.39274,0.38809 0.122478,0.12753 0.247743,0.25215 0.377238,0.37258 0.123023,0.12833 0.249174,0.2535 0.379306,0.37465 0.124579,0.13015 0.252579,0.25654 0.384472,0.37931 0.127087,0.13282 0.257519,0.26247 0.392223,0.38756 0.125558,0.13094 0.254074,0.259 0.387057,0.38243 0.125761,0.13108 0.254359,0.25935 0.387574,0.38291 0.122196,0.12739 0.247473,0.2518 0.376722,0.37208 0.126169,0.132 0.25591,0.26061 0.389639,0.38497 0.130177,0.13618 0.263818,0.26887 0.402042,0.39687 0.123283,0.12848 0.249343,0.254 0.379823,0.37518 0.128661,0.13452 0.260852,0.2657 0.397391,0.39222 0.124452,0.12988 0.252142,0.25638 0.383955,0.3788 0.128923,0.13489 0.261051,0.26639 0.397909,0.39325 0.126818,0.13248 0.256699,0.26184 0.391192,0.38653 0.129022,0.13492 0.261443,0.26641 0.398426,0.39328 0.128849,0.13457 0.260604,0.2662 0.397391,0.39272 0.12505,0.13049 0.253492,0.25797 0.386021,0.38087 0.129712,0.13581 0.262697,0.26823 0.400492,0.39584 0.128646,0.13454 0.260795,0.26572 0.397394,0.39222 0.130352,0.13634 0.264028,0.26935 0.402558,0.39741 0.128156,0.13387 0.259781,0.26479 0.395843,0.39065 0.13062,0.13666 0.26474,0.27014 0.403593,0.39844 0.125793,0.13144 0.254653,0.25974 0.388088,0.38343 0.1319,0.13838 0.267377,0.27324 0.407728,0.40307 0.130141,0.13629 0.2642,0.26895 0.402559,0.39687 0.129942,0.13611 0.263379,0.26911 0.401526,0.39688 0.133231,0.13962 0.269994,0.27585 0.411861,0.40672 0.127775,0.13356 0.259096,0.2641 0.394809,0.38962 0.133061,0.13957 0.269631,0.27588 0.411345,0.40669 0.130241,0.13637 0.264033,0.26943 0.402558,0.39741 0.131707,0.13808 0.267009,0.27254 0.407209,0.40203 0.133192,0.13968 0.269976,0.27583 0.411861,0.40669 0.130533,0.13674 0.26419,0.27017 0.403077,0.39844 0.133488,0.1401 0.270637,0.27652 0.412896,0.40772 0.131789,0.13819 0.267388,0.27252 0.407725,0.40204 0.13434,0.14102 0.272238,0.27884 0.415481,0.41084 0.129916,0.13616 0.263279,0.26861 0.401526,0.39635 0.135798,0.14285 0.275696,0.28191 0.420645,0.41547 0.135113,0.14179 0.273908,0.27977 0.418063,0.41238 0.131974,0.13833 0.267124,0.2735 0.407726,0.40307 0.1344,0.14118 0.272611,0.27876 0.415996,0.41084 0.133435,0.14015 0.270592,0.27655 0.412896,0.40773 0.137223,0.14427 0.278154,0.28485 0.424778,0.4196 0.135715,0.14234 0.274719,0.28141 0.419613,0.41444 0.132726,0.13915 0.268798,0.27493 0.41031,0.40516 0.136253,0.14324 0.276641,0.28271 0.422199,0.41651 0.137205,0.14417 0.277616,0.28503 0.424262,0.4196 0.133493,0.14007 0.270467,0.27675 0.412895,0.40775 0.136909,0.14401 0.277913,0.28411 0.424262,0.41857 0.136454,0.14346 0.27636,0.28308 0.422199,0.41703 0.13834,0.14547 0.280394,0.28755 0.428397,0.42323 0.134345,0.14105 0.272021,0.2785 0.415478,0.41032 0.137099,0.14438 0.278148,0.28487 0.42478,0.4196 0.138973,0.14637 0.2822,0.28887 0.430981,0.42529 0.13393,0.14087 0.2714,0.27818 0.41445,0.40979 0.14304,0.15108 0.29039,0.29776 0.4439,0.43823 0.1356,0.14242 0.27466,0.28151 0.41961,0.41444 0.13857,0.14597 0.28156,0.28774 0.42995,0.42376 0.14089,0.14838 0.28562,0.29339 0.43666,0.43148 0.13457,0.14145 0.27269,0.27929 0.41651,0.41135 0.1449,0.15301 0.29388,0.30236 0.44959,0.44442 0.13531,0.14208 0.2744,0.28085 0.4191,0.41341 0.14211,0.14991 0.28773,0.29628 0.44027,0.43564 0.13993,0.14724 0.28355,0.29085 0.43357,0.42788 0.13737,0.1446 0.27871,0.28591 0.42582,0.42064 0.14285,0.15078 0.28996,0.29765 0.44336,0.4377 0.14076,0.14824 0.28517,0.29315 0.43617,0.43098 0.13909,0.14652 0.28236,0.28948 0.43148,0.42582 0.14285,0.15076 0.28993,0.29771 0.44339,0.4377 0.14134,0.14893 0.28652,0.29413 0.43823,0.43254 0.13983,0.14732 0.28352,0.29083 0.43354,0.42785 0.14182,0.14976 0.28745,0.29554 0.43979,0.43461 0.14291,0.15097 0.28978,0.29811 0.44337,0.43823 0.14647,0.15465 0.29704,0.30533 0.45476,0.44855 0.13677,0.1438 0.27668,0.28469 0.42323,0.41857 0.14793,0.15658 0.30043,0.30887 0.45992,0.45373 0.14074,0.14817 0.28501,0.29337 0.43614,0.43098 0.14171,0.1496 0.28747,0.29522 0.43977,0.43408 0.14679,0.15525 0.2976,0.30694 0.4558,0.45061 0.14369,0.15153 0.29135,0.29985 0.44595,0.44029 0.14391,0.15179 0.29162,0.29962 0.44649,0.44027 0.14046,0.14827 0.28471,0.29284 0.43563,0.43048 0.14878,0.15774 0.30192,0.31109 0.46252,0.4568 0.14377,0.15179 0.29168,0.29972 0.44648,0.44029 0.1451,0.15343 0.29425,0.30295 0.45062,0.44495 0.14136,0.14946 0.28665,0.29493 0.43873,0.43355 0.14981,0.15912 0.30422,0.31411 0.46611,0.46095 0.1442,0.15248 0.29269,0.3007 0.44805,0.44183 0.14565,0.15431 0.29557,0.30433 0.45268,0.44702 0.14687,0.15568 0.29778,0.30728 0.4563,0.45114 0.14531,0.15391 0.29493,0.30363 0.45164,0.44595 0.14766,0.15671 0.29993,0.30904 0.45942,0.45374 0.14846,0.15742 0.30155,0.31048 0.46199,0.45577 0.14452,0.15301 0.29321,0.30242 0.44905,0.44389 0.14745,0.15663 0.29956,0.30864 0.4589,0.4532 0.14837,0.15762 0.30157,0.31094 0.46198,0.4563 0.14828,0.1574 0.30118,0.31015 0.46146,0.45527 0.14658,0.1556 0.29745,0.307 0.4558,0.45064 0.14968,0.1592 0.30462,0.31324 0.46665,0.45993 0.14663,0.15578 0.29781,0.30736 0.4563,0.45111 0.1498,0.15957 0.3049,0.31398 0.46715,0.46096 0.14877,0.1583 0.30249,0.31199 0.46355,0.45786 0.14909,0.15872 0.30363,0.31266 0.46508,0.45889 0.14835,0.15796 0.30139,0.31179 0.46199,0.45733 0.15118,0.16122 0.30784,0.31732 0.4718,0.46559 0.14984,0.15952 0.3048,0.31417 0.46715,0.46096 0.14841,0.15809 0.30179,0.31126 0.46249,0.45683 0.15185,0.16208 0.30912,0.31869 0.4739,0.46768 0.14888,0.15869 0.30321,0.31228 0.46456,0.45836 0.1521,0.16253 0.30974,0.31991 0.4749,0.46921 0.14972,0.15978 0.3048,0.31454 0.46717,0.46149 0.15147,0.16195 0.30835,0.31837 0.47284,0.46715 0.15216,0.16272 0.31012,0.31983 0.4754,0.46921 0.15103,0.16134 0.30734,0.31739 0.4713,0.46561 0.15185,0.16248 0.30941,0.31954 0.4744,0.46871 0.15208,0.1628 0.31009,0.31983 0.4754,0.46921 0.15246,0.1632 0.31073,0.32105 0.47647,0.47078 0.15224,0.16301 0.31041,0.32022 0.47593,0.46974 0.15364,0.16465 0.3134,0.3235 0.48061,0.4744 0.15209,0.1629 0.30999,0.32033 0.47541,0.46974 0.15393,0.16507 0.31401,0.32419 0.48162,0.4754 0.15208,0.16304 0.30998,0.32028 0.47543,0.46974 0.15526,0.16682 0.317,0.32745 0.48628,0.48009 0.15367,0.16481 0.31371,0.32398 0.48111,0.4749 0.15341,0.16468 0.31293,0.32308 0.48006,0.47387 0.15489,0.16642 0.31637,0.32681 0.48525,0.47905 0.15404,0.16553 0.31472,0.32499 0.48265,0.47646 0.15523,0.16698 0.31689,0.32793 0.48628,0.48059 0.15441,0.16606 0.31525,0.32613 0.48369,0.478 0.15517,0.16711 0.31689,0.32787 0.48627,0.48059 0.15542,0.16737 0.31814,0.32819 0.48784,0.48112 0.1556,0.16761 0.31838,0.3285 0.48834,0.48162 0.1564,0.16859 0.31949,0.33083 0.49041,0.48472 0.15616,0.1683 0.31922,0.33009 0.4899,0.48368 0.15637,0.16859 0.31943,0.33041 0.49041,0.48421 0.15494,0.16717 0.31697,0.32745 0.48627,0.48009 0.1574,0.17021 0.32221,0.33319 0.49454,0.48834 0.15885,0.17174 0.32514,0.33663 0.49919,0.493 0.0945,0.10194 0.19269,0.20034 0.29249,0.29713 H 380.09283 V 176.05678 c -0.0151,-0.0143 -0.0297,-0.0292 -0.0449,-0.0434 -0.15367,-0.17103 -0.31488,-0.33489 -0.48369,-0.49094 -0.15224,-0.16909 -0.31258,-0.33078 -0.47955,-0.48524 -0.15029,-0.16685 -0.30822,-0.32639 -0.47287,-0.47903 -0.15237,-0.16955 -0.31287,-0.33136 -0.48006,-0.48628 -0.15216,-0.16907 -0.31218,-0.3307 -0.47905,-0.48524 -0.15058,-0.16717 -0.3089,-0.32714 -0.47387,-0.48006 -0.15031,-0.16696 -0.30874,-0.32674 -0.47334,-0.47959 -0.15052,-0.16724 -0.30906,-0.32692 -0.4739,-0.48006 -0.15044,-0.16721 -0.30858,-0.32694 -0.47334,-0.48008 -0.15105,-0.1678 -0.31001,-0.32796 -0.47543,-0.48163 -0.15009,-0.16655 -0.3081,-0.32538 -0.4723,-0.47799 -0.15021,-0.16661 -0.30856,-0.32586 -0.47287,-0.47853 -0.14819,-0.16433 -0.30419,-0.32152 -0.46611,-0.47233 -0.15097,-0.16761 -0.3097,-0.3275 -0.4749,-0.48109 -0.14756,-0.16349 -0.30248,-0.31962 -0.46353,-0.46974 -0.14959,-0.16606 -0.30678,-0.32465 -0.47027,-0.47697 -0.14853,-0.16468 -0.30493,-0.32218 -0.46715,-0.47336 -0.14867,-0.16479 -0.30535,-0.32208 -0.46767,-0.47337 -0.14881,-0.16486 -0.30523,-0.32245 -0.46768,-0.47387 -0.14616,-0.16182 -0.30009,-0.31623 -0.4594,-0.46508 -0.14861,-0.16487 -0.30496,-0.32243 -0.46715,-0.47387 -0.14859,-0.1646 -0.30506,-0.3216 -0.46714,-0.47284 -0.14566,-0.1611 -0.29877,-0.31522 -0.45736,-0.46355 -0.14798,-0.16396 -0.30372,-0.32052 -0.46509,-0.47128 -0.14684,-0.1625 -0.30146,-0.3176 -0.46146,-0.46717 -0.14687,-0.16245 -0.30099,-0.31808 -0.46095,-0.46765 -0.14478,-0.16013 -0.29777,-0.31287 -0.45527,-0.46046 -0.14682,-0.16258 -0.3016,-0.31795 -0.46149,-0.46765 -0.14592,-0.16147 -0.29951,-0.3158 -0.45836,-0.46458 -0.14645,-0.162 -0.30052,-0.31689 -0.45993,-0.46612 -0.14607,-0.16139 -0.29943,-0.31583 -0.45836,-0.46458 -0.14237,-0.15716 -0.29247,-0.30697 -0.44699,-0.45217 -0.14639,-0.16208 -0.30065,-0.31671 -0.45992,-0.46612 -0.14465,-0.15983 -0.29708,-0.31242 -0.45424,-0.45992 -0.14457,-0.1597 -0.2967,-0.3125 -0.45371,-0.4599 -0.14454,-0.1597 -0.29673,-0.312 -0.45373,-0.45942 -0.1433,-0.15825 -0.29406,-0.30957 -0.44958,-0.45577 -0.14375,-0.15881 -0.29512,-0.31065 -0.45114,-0.45734 -0.14521,-0.16039 -0.29808,-0.31342 -0.45577,-0.46148 -0.14193,-0.15645 -0.29166,-0.30589 -0.44546,-0.45061 -0.14293,-0.15778 -0.29305,-0.30835 -0.44804,-0.45424 -0.14362,-0.15857 -0.29433,-0.31023 -0.45011,-0.45683 -0.14259,-0.15727 -0.29295,-0.30718 -0.44752,-0.45268 -0.14234,-0.15697 -0.29223,-0.30689 -0.44648,-0.45217 -0.14174,-0.15626 -0.29091,-0.30543 -0.44442,-0.45011 -0.14166,-0.15626 -0.29099,-0.30538 -0.44442,-0.45008 -0.14216,-0.15685 -0.29197,-0.30697 -0.44596,-0.45217 -0.14007,-0.15436 -0.28776,-0.30184 -0.43926,-0.44495 -0.14198,-0.15666 -0.2912,-0.30602 -0.44492,-0.45112 -0.14095,-0.15541 -0.28935,-0.30348 -0.44183,-0.44751 -0.14071,-0.1551 -0.28914,-0.30271 -0.44133,-0.44649 -0.14179,-0.15629 -0.29046,-0.3058 -0.44389,-0.45064 -0.14028,-0.1543 -0.28765,-0.30178 -0.43926,-0.44492 -0.13991,-0.15396 -0.28755,-0.30104 -0.43873,-0.44389 -0.1387,-0.15264 -0.28483,-0.29803 -0.43461,-0.43979 -0.13954,-0.15373 -0.28641,-0.30065 -0.43717,-0.44336 -0.14195,-0.15635 -0.29093,-0.30568 -0.44442,-0.45064 -0.13721,-0.15066 -0.28149,-0.29448 -0.42942,-0.43458 -0.13774,-0.15155 -0.28294,-0.29631 -0.43151,-0.4372 -0.13946,-0.15362 -0.28659,-0.30017 -0.43717,-0.44286 -0.13829,-0.15216 -0.28336,-0.29728 -0.43254,-0.43873 -0.14113,-0.15528 -0.2894,-0.30337 -0.44182,-0.44752 -0.13714,-0.15039 -0.28168,-0.29419 -0.42945,-0.43407 -0.1352,-0.14838 -0.27718,-0.29073 -0.4227,-0.42892 -0.14036,-0.15444 -0.28829,-0.30199 -0.43976,-0.44545 -0.13417,-0.14716 -0.27533,-0.2876 -0.41963,-0.42479 -0.14105,-0.15523 -0.28953,-0.30334 -0.44183,-0.44752 -0.13531,-0.14819 -0.27715,-0.2903 -0.42272,-0.42838 -0.13843,-0.1519 -0.28388,-0.29745 -0.43305,-0.43873 -0.13486,-0.14767 -0.27614,-0.28869 -0.42116,-0.42635 -0.1387,-0.15209 -0.28414,-0.29771 -0.43355,-0.43924 -0.1329,-0.14531 -0.27228,-0.28451 -0.41497,-0.42013 -0.13917,-0.15269 -0.28517,-0.29924 -0.43511,-0.44133 -0.13488,-0.14737 -0.27622,-0.28834 -0.42116,-0.42582 -0.13465,-0.14726 -0.27546,-0.28839 -0.42013,-0.42579 -0.13446,-0.14716 -0.27517,-0.288 -0.41963,-0.42532 -0.13565,-0.14853 -0.27792,-0.29088 -0.42373,-0.42942 -0.13298,-0.14546 -0.27226,-0.28477 -0.41497,-0.42066 -0.13603,-0.14901 -0.27856,-0.29144 -0.42479,-0.43045 -0.13595,-0.14869 -0.27866,-0.29123 -0.42477,-0.42994 -0.13155,-0.14354 -0.26931,-0.28125 -0.41031,-0.41548 -0.13544,-0.14814 -0.27723,-0.29065 -0.42273,-0.42891 -0.13107,-0.14305 -0.26831,-0.2801 -0.40875,-0.41393 -0.13489,-0.14759 -0.27633,-0.28903 -0.42116,-0.42685 -0.13481,-0.14724 -0.27596,-0.2883 -0.42064,-0.42581 -0.13298,-0.14492 -0.27191,-0.28413 -0.41444,-0.41961 -0.13264,-0.14449 -0.27131,-0.28346 -0.41341,-0.41858 -0.13163,-0.1434 -0.26935,-0.2813 -0.41032,-0.41548 -0.13137,-0.14319 -0.2686,-0.28094 -0.40928,-0.41497 -0.132,-0.14398 -0.26996,-0.28176 -0.41135,-0.41651 -0.13232,-0.14433 -0.27062,-0.28301 -0.41238,-0.41806 -0.13256,-0.14444 -0.27088,-0.28291 -0.41288,-0.41806 -0.12999,-0.14147 -0.26559,-0.27776 -0.40463,-0.41031 -0.1306,-0.14231 -0.26749,-0.27854 -0.40722,-0.41186 -0.13356,-0.14556 -0.27289,-0.28551 -0.41598,-0.42168 -0.12912,-0.14028 -0.26358,-0.27515 -0.40153,-0.4067 -0.131,-0.14252 -0.2676,-0.27936 -0.40772,-0.41289 -0.13129,-0.14274 -0.26784,-0.28021 -0.40826,-0.41393 -0.12893,-0.13995 -0.26328,-0.27489 -0.401,-0.40618 -0.13057,-0.14189 -0.26659,-0.27834 -0.40619,-0.41134 -0.12829,-0.13926 -0.26196,-0.2734 -0.39893,-0.40411 -0.12806,-0.13916 -0.26173,-0.27295 -0.39841,-0.40359 -0.13156,-0.14306 -0.26864,-0.2809 -0.40929,-0.41497 -0.1262,-0.13687 -0.25768,-0.26875 -0.39222,-0.39739 -0.13255,-0.1441 -0.27111,-0.28254 -0.41291,-0.41754 -0.12504,-0.13535 -0.25489,-0.26596 -0.38809,-0.39326 -0.12832,-0.13938 -0.26199,-0.27374 -0.39893,-0.40463 -0.12954,-0.14063 -0.26477,-0.27573 -0.40307,-0.40772 -0.12647,-0.137 -0.25797,-0.26912 -0.39275,-0.39791 -0.12758,-0.13835 -0.26032,-0.27153 -0.39637,-0.40153 -0.12708,-0.13775 -0.25935,-0.27048 -0.39481,-0.39997 -0.12944,-0.14032 -0.26387,-0.27598 -0.40204,-0.40773 -0.12197,-0.13188 -0.2486,-0.25913 -0.37827,-0.38344 -0.13036,-0.14156 -0.26649,-0.27743 -0.40566,-0.41031 -0.12539,-0.13557 -0.25564,-0.26671 -0.38912,-0.39429 -0.1252,-0.13548 -0.25533,-0.26625 -0.3886,-0.39378 -0.12432,-0.13459 -0.25376,-0.26442 -0.38602,-0.39119 -0.12777,-0.1385 -0.26072,-0.27181 -0.39688,-0.40204 -0.12562,-0.13586 -0.25593,-0.26692 -0.38965,-0.39481 -0.12298,-0.13292 -0.25067,-0.26123 -0.38137,-0.38654 -0.12748,-0.13803 -0.26003,-0.27117 -0.39584,-0.40101 -0.12438,-0.13432 -0.25377,-0.2636 -0.38603,-0.39015 -0.12652,-0.13666 -0.25752,-0.26878 -0.39222,-0.39739 -0.12054,-0.12989 -0.24569,-0.25566 -0.37362,-0.37828 -0.12665,-0.13697 -0.25791,-0.26949 -0.39275,-0.39842 -0.1234,-0.13304 -0.25127,-0.26162 -0.3824,-0.38706 -0.12348,-0.13318 -0.25119,-0.262 -0.3824,-0.38757 -0.123,-0.13263 -0.25022,-0.26093 -0.38084,-0.38602 -0.12097,-0.13043 -0.24635,-0.25616 -0.37468,-0.37931 -0.12562,-0.13571 -0.25601,-0.26694 -0.38962,-0.39481 -0.12346,-0.13295 -0.2513,-0.26166 -0.38241,-0.38705 -0.12194,-0.13119 -0.24786,-0.25857 -0.37724,-0.38241 -0.1188,-0.12783 -0.24156,-0.25172 -0.36742,-0.37258 -0.12473,-0.13461 -0.254,-0.2648 -0.38653,-0.39171 -0.11904,-0.12806 -0.24236,-0.25202 -0.36846,-0.37311 -0.12423,-0.13395 -0.25308,-0.26328 -0.385,-0.38964 -0.12176,-0.13091 -0.24757,-0.25773 -0.37671,-0.38137 -0.11576,-0.12439 -0.23519,-0.24494 -0.35761,-0.36277 -0.12613,-0.1362 -0.25713,-0.26746 -0.39119,-0.39584 -0.11729,-0.12597 -0.23812,-0.24817 -0.36224,-0.36742 -0.12353,-0.13303 -0.25183,-0.26149 -0.38293,-0.38706 -0.11729,-0.12586 -0.23818,-0.24824 -0.36224,-0.36741 -0.12147,-0.13067 -0.24694,-0.25739 -0.37569,-0.38086 -0.1189,-0.12765 -0.24159,-0.25129 -0.36742,-0.37207 -0.11959,-0.12849 -0.24342,-0.25259 -0.37,-0.37414 -0.11705,-0.12565 -0.23749,-0.24788 -0.36123,-0.3669 -0.12219,-0.13143 -0.24874,-0.25873 -0.37828,-0.38292 -0.11591,-0.12426 -0.23561,-0.245 -0.35811,-0.36277 -0.12229,-0.13141 -0.24868,-0.25874 -0.37827,-0.38292 -0.11311,-0.12106 -0.22948,-0.23908 -0.3488,-0.35399 -0.1228,-0.13201 -0.24969,-0.25973 -0.37984,-0.38447 -0.11441,-0.12241 -0.2322,-0.24146 -0.35295,-0.3576 -0.11785,-0.12649 -0.23919,-0.24915 -0.36381,-0.36897 -0.12017,-0.12889 -0.24434,-0.25372 -0.37155,-0.37569 -0.11406,-0.12195 -0.23156,-0.24031 -0.3519,-0.35605 -0.11792,-0.12639 -0.23918,-0.24922 -0.3638,-0.36897 -0.1153,-0.12344 -0.23434,-0.2436 -0.35605,-0.3607 -0.11734,-0.12571 -0.23831,-0.24775 -0.36227,-0.3669 -0.11424,-0.12227 -0.2319,-0.24103 -0.35242,-0.35709 -0.11869,-0.12719 -0.24093,-0.25106 -0.3664,-0.37155 -0.1149,-0.12281 -0.23325,-0.24209 -0.35448,-0.35863 -0.11594,-0.12394 -0.23525,-0.24469 -0.35762,-0.36226 -0.11448,-0.12233 -0.23217,-0.24146 -0.35295,-0.3576 -0.11327,-0.12105 -0.22992,-0.23847 -0.34933,-0.35346 -0.11507,-0.12316 -0.23307,-0.24328 -0.35449,-0.36019 -0.11602,-0.12405 -0.23571,-0.24454 -0.35811,-0.36225 -0.11573,-0.12354 -0.2345,-0.24398 -0.35658,-0.36122 -0.11242,-0.11984 -0.22781,-0.23645 -0.34623,-0.35037 -0.11258,-0.12012 -0.22818,-0.23721 -0.34674,-0.35139 -0.11337,-0.12109 -0.2299,-0.23893 -0.34936,-0.35399 -0.113,-0.1207 -0.22923,-0.23822 -0.34829,-0.35295 -0.1137,-0.1214 -0.23056,-0.23965 -0.35036,-0.35502 -0.11084,-0.11824 -0.22495,-0.23319 -0.34158,-0.34571 -0.11396,-0.12176 -0.2308,-0.24035 -0.35089,-0.35605 -0.11229,-0.11979 -0.22799,-0.23645 -0.34624,-0.35037 -0.11424,-0.12187 -0.23151,-0.24077 -0.35189,-0.35656 -0.10761,-0.1145 -0.21823,-0.22625 -0.33126,-0.33539 -0.11549,-0.12334 -0.23429,-0.24354 -0.35605,-0.3607 -0.10851,-0.11544 -0.21982,-0.22796 -0.33382,-0.33796 -0.10922,-0.11647 -0.22112,-0.23011 -0.33589,-0.34107 -0.11531,-0.12309 -0.23405,-0.24272 -0.35555,-0.35966 -0.10721,-0.11401 -0.21712,-0.22512 -0.3297,-0.33383 -0.11305,-0.12057 -0.22926,-0.23829 -0.3483,-0.35295 -0.1089,-0.115807 -0.22045,-0.229165 -0.33485,-0.339518 -0.10811,-0.115056 -0.21929,-0.22724 -0.33279,-0.336931 -0.11227,-0.119626 -0.22763,-0.236011 -0.34574,-0.349847 -0.1076,-0.11438 -0.21775,-0.226304 -0.33073,-0.335381 -0.11011,-0.117234 -0.22325,-0.231452 -0.33898,-0.343133 -0.10959,-0.116517 -0.2218,-0.23055 -0.33695,-0.34158 -0.1057,-0.112315 -0.21415,-0.221959 -0.32504,-0.329178 -0.11117,-0.118393 -0.22521,-0.234 -0.34208,-0.34675 -0.10641,-0.113009 -0.2155,-0.223388 -0.32713,-0.331245 -0.10779,-0.114647 -0.21809,-0.226536 -0.33123,-0.335897 -0.1088,-0.115683 -0.22013,-0.228695 -0.33435,-0.338997 -0.10983,-0.11666 -0.22262,-0.230396 -0.33796,-0.341582 -0.10382,-0.11003 -0.2096,-0.217821 -0.31834,-0.322977 -0.10806,-0.114858 -0.21887,-0.226846 -0.33227,-0.336415 -0.10728,-0.11388 -0.21717,-0.225153 -0.32969,-0.333828 -0.1065,-0.112969 -0.21548,-0.223395 -0.32711,-0.331247 -0.10456,-0.110882 -0.2114,-0.219086 -0.32091,-0.325044 -0.10943,-0.116221 -0.22154,-0.229727 -0.33642,-0.340548 -0.10414,-0.110249 -0.21032,-0.218117 -0.31938,-0.323495 -0.10379,-0.110061 -0.20963,-0.217755 -0.31832,-0.322977 -0.1057,-0.112231 -0.21375,-0.221967 -0.32451,-0.329179 -0.10842,-0.115032 -0.2196,-0.227171 -0.33332,-0.336931 -0.1021,-0.107989 -0.20635,-0.213963 -0.31316,-0.317293 -0.10554,-0.111885 -0.21344,-0.221242 -0.32401,-0.328144 -0.10435,-0.110496 -0.21114,-0.218377 -0.32038,-0.324012 -0.10367,-0.109752 -0.20934,-0.2175 -0.31782,-0.322461 -0.10491,-0.111085 -0.21212,-0.219898 -0.32195,-0.32608 -0.10011,-0.105913 -0.20232,-0.209627 -0.30697,-0.311092 -0.10673,-0.113234 -0.21576,-0.224118 -0.32763,-0.33228 -0.10239,-0.108283 -0.20709,-0.214174 -0.31419,-0.317809 -0.10295,-0.108924 -0.20804,-0.215651 -0.31573,-0.319876 -0.10332,-0.109268 -0.2087,-0.216368 -0.31679,-0.320911 -0.1,-0.105682 -0.20198,-0.209311 -0.30644,-0.310575 -0.10472,-0.110911 -0.21179,-0.219504 -0.32141,-0.325562 -0.10205,-0.107794 -0.20598,-0.213577 -0.31266,-0.316775 -0.0994,-0.104945 -0.20061,-0.207915 -0.30438,-0.30851 -0.10369,-0.109733 -0.20981,-0.216953 -0.31832,-0.321945 -0.1,-0.105561 -0.2015,-0.209407 -0.30591,-0.310576 -0.10279,-0.108611 -0.20778,-0.214873 -0.31522,-0.318841 -0.0983,-0.103661 -0.19823,-0.205462 -0.30078,-0.304893 -0.10298,-0.108852 -0.20804,-0.215677 -0.31573,-0.319876 -0.0973,-0.1026 -0.19672,-0.203329 -0.29818,-0.301791 -0.1015,-0.107299 -0.20506,-0.212437 -0.31107,-0.315225 -0.0991,-0.10459 -0.19992,-0.207176 -0.30335,-0.307475 -0.1002,-0.105788 -0.20235,-0.209687 -0.30697,-0.311092 -0.099,-0.104438 -0.20002,-0.206793 -0.30334,-0.306959 -0.0984,-0.103838 -0.19857,-0.205787 -0.30126,-0.305408 -0.0991,-0.104622 -0.20042,-0.207126 -0.30387,-0.307475 -0.0992,-0.104584 -0.19987,-0.207677 -0.30335,-0.307991 -0.0989,-0.104211 -0.19965,-0.206473 -0.30281,-0.30644 -0.0957,-0.100791 -0.19331,-0.199798 -0.293,-0.296625 -0.1,-0.105452 -0.20161,-0.208933 -0.30594,-0.310057 -0.0959,-0.100965 -0.19362,-0.200149 -0.2935,-0.29714 -0.0989,-0.104291 -0.19966,-0.206896 -0.30284,-0.306957 -0.0947,-0.09972 -0.19127,-0.197675 -0.28991,-0.293523 -0.0985,-0.103868 -0.19907,-0.205727 -0.30178,-0.305409 -0.0948,-0.0998 -0.19122,-0.198101 -0.28991,-0.294036 -0.0971,-0.102378 -0.19592,-0.20296 -0.29715,-0.301276 -0.0968,-0.101965 -0.19521,-0.202303 -0.29609,-0.300239 -0.0967,-0.10174 -0.1954,-0.20148 -0.2961,-0.299206 -0.0927,-0.09748 -0.18677,-0.19353 -0.28321,-0.287322 -0.0998,-0.105233 -0.20174,-0.208587 -0.30591,-0.309541 -0.0918,-0.09633 -0.18468,-0.191485 -0.28009,-0.284221 -0.0973,-0.10246 -0.19672,-0.202867 -0.29816,-0.301273 -0.0926,-0.09716 -0.18648,-0.192781 -0.28268,-0.286287 -0.0917,-0.09643 -0.18478,-0.191376 -0.28009,-0.284221 -0.0987,-0.104047 -0.19939,-0.206042 -0.30231,-0.305924 -0.0918,-0.0964 -0.18513,-0.191408 -0.28059,-0.284221 -0.0949,-0.09975 -0.19116,-0.19812 -0.2899,-0.294039 -0.0911,-0.09569 -0.18333,-0.18999 -0.27803,-0.282152 -0.0971,-0.102098 -0.19605,-0.20215 -0.29715,-0.300241 -0.0895,-0.09381 -0.17994,-0.186566 -0.27284,-0.276985 -0.0955,-0.100377 -0.19259,-0.19908 -0.29197,-0.29559 -0.0909,-0.09531 -0.18309,-0.189304 -0.27752,-0.281119 -0.092,-0.09658 -0.1855,-0.191733 -0.28109,-0.284737 -0.0924,-0.09695 -0.18616,-0.192429 -0.28218,-0.285771 -0.0916,-0.09607 -0.18441,-0.190656 -0.27956,-0.283186 -0.0919,-0.09638 -0.18513,-0.191397 -0.28059,-0.284221 -0.0921,-0.09658 -0.18542,-0.191736 -0.28112,-0.284739 -0.0901,-0.09439 -0.18137,-0.18755 -0.27493,-0.278535 -0.0894,-0.09369 -0.18007,-0.186137 -0.27286,-0.276469 -0.0924,-0.09691 -0.18616,-0.192447 -0.28215,-0.285771 -0.0881,-0.09226 -0.17733,-0.183332 -0.26872,-0.272335 -0.0904,-0.0948 -0.18211,-0.188191 -0.27596,-0.27957 -0.0896,-0.09397 -0.18084,-0.186377 -0.27387,-0.276984 -0.0908,-0.09517 -0.18272,-0.188886 -0.27699,-0.280604 -0.0888,-0.093 -0.17862,-0.185211 -0.27077,-0.274918 -0.0875,-0.09165 -0.17643,-0.181814 -0.26718,-0.270269 -0.0909,-0.09527 -0.18312,-0.189294 -0.27749,-0.28112 -0.0877,-0.0917 -0.1763,-0.182285 -0.26718,-0.270782 -0.089,-0.0932 -0.17944,-0.185021 -0.27181,-0.274921 -0.0854,-0.08927 -0.17155,-0.177824 -0.25992,-0.264065 -0.0903,-0.09459 -0.18177,-0.187857 -0.27546,-0.279053 -0.0862,-0.09017 -0.17367,-0.179044 -0.26302,-0.266134 -0.0885,-0.09265 -0.17846,-0.18397 -0.27028,-0.273367 -0.0857,-0.08956 -0.17221,-0.178062 -0.26095,-0.264584 -0.0868,-0.09077 -0.17418,-0.180549 -0.26408,-0.2682 -0.0882,-0.09233 -0.17773,-0.183226 -0.26922,-0.272336 -0.0854,-0.08921 -0.172,-0.177347 -0.26045,-0.263551 -0.0865,-0.09038 -0.17397,-0.179866 -0.26356,-0.267166 -0.083,-0.0867 -0.16684,-0.172458 -0.2527,-0.256315 -0.0876,-0.09172 -0.17634,-0.182232 -0.26718,-0.270785 -0.0866,-0.0905 -0.17433,-0.179758 -0.26405,-0.267166 -0.0843,-0.08796 -0.1696,-0.174892 -0.25683,-0.259934 -0.0825,-0.08614 -0.16584,-0.171418 -0.25114,-0.254765 -0.0875,-0.09149 -0.176,-0.181917 -0.26665,-0.270266 -0.0843,-0.08794 -0.1696,-0.174906 -0.25683,-0.259932 -0.0832,-0.08681 -0.16714,-0.172863 -0.25323,-0.256834 -0.0833,-0.08692 -0.16756,-0.172749 -0.25374,-0.256831 -0.083,-0.08667 -0.16682,-0.172461 -0.25268,-0.256315 -0.0856,-0.08937 -0.17235,-0.177689 -0.26098,-0.264068 -0.0816,-0.08499 -0.16425,-0.168873 -0.24855,-0.251145 -0.0837,-0.08734 -0.16817,-0.173908 -0.25477,-0.258384 -0.0818,-0.0853 -0.16449,-0.169608 -0.24908,-0.25218 -0.0813,-0.08478 -0.16351,-0.168547 -0.24754,-0.250631 -0.0827,-0.08633 -0.16611,-0.172257 -0.25165,-0.255797 -0.0833,-0.08691 -0.16756,-0.172754 -0.25373,-0.256834 -0.0793,-0.08259 -0.15944,-0.164388 -0.24133,-0.24443 -0.0825,-0.08608 -0.16581,-0.171444 -0.25114,-0.254764 -0.0815,-0.08493 -0.16383,-0.168908 -0.24805,-0.251145 -0.0804,-0.08374 -0.1619,-0.16641 -0.24495,-0.247531 -0.0799,-0.08326 -0.16034,-0.165825 -0.24289,-0.246497 -0.0827,-0.08618 -0.16618,-0.17136 -0.25167,-0.254764 -0.0784,-0.0816 -0.15777,-0.162222 -0.23873,-0.241329 -0.0803,-0.08358 -0.16103,-0.166556 -0.24392,-0.247531 -0.0785,-0.08173 -0.15769,-0.162605 -0.23873,-0.241845 -0.08,-0.08325 -0.16037,-0.165825 -0.24289,-0.246497 -0.0806,-0.08384 -0.16177,-0.166822 -0.24495,-0.248047 -0.0768,-0.07981 -0.15441,-0.158718 -0.23358,-0.236162 -0.0808,-0.08419 -0.16245,-0.167526 -0.24598,-0.249081 -0.077,-0.08002 -0.15468,-0.159552 -0.23408,-0.237194 -0.077,-0.08011 -0.15467,-0.159461 -0.2341,-0.237196 -0.0785,-0.08163 -0.1573,-0.162679 -0.23823,-0.241845 -0.0794,-0.08255 -0.15941,-0.164404 -0.24133,-0.24443 -0.0768,-0.07977 -0.15438,-0.158745 -0.23357,-0.236159 -0.0767,-0.0797 -0.15399,-0.158819 -0.23307,-0.236162 -0.0778,-0.08086 -0.15642,-0.160827 -0.23667,-0.239263 -0.0725,-0.07521 -0.14507,-0.150129 -0.21963,-0.223242 -0.0804,-0.08375 -0.1614,-0.16688 -0.24443,-0.248047 -0.074,-0.07677 -0.14864,-0.152786 -0.22479,-0.227375 -0.078,-0.08108 -0.15676,-0.161128 -0.23719,-0.239778 -0.0751,-0.0779 -0.15058,-0.15534 -0.22789,-0.230995 -0.076,-0.07888 -0.15272,-0.157001 -0.23101,-0.233577 -0.0744,-0.07718 -0.1492,-0.153947 -0.22582,-0.228928 -0.0746,-0.07737 -0.14957,-0.154281 -0.22635,-0.229444 -0.0738,-0.07663 -0.14774,-0.152908 -0.22376,-0.227375 -0.0762,-0.07908 -0.15303,-0.157316 -0.23151,-0.234095 -0.0742,-0.0769 -0.14893,-0.15317 -0.22529,-0.227891 -0.0721,-0.07471 -0.14446,-0.149034 -0.2186,-0.221694 -0.0725,-0.07526 -0.14552,-0.150059 -0.22013,-0.22324 -0.0775,-0.08047 -0.15579,-0.160139 -0.23567,-0.238231 -0.0696,-0.07201 -0.13935,-0.14384 -0.21082,-0.213939 -0.0764,-0.07932 -0.1533,-0.158112 -0.23204,-0.235127 -0.0703,-0.07276 -0.14115,-0.144682 -0.21341,-0.21549 -0.0716,-0.07426 -0.14341,-0.148426 -0.21704,-0.22066 -0.0734,-0.07615 -0.14719,-0.151799 -0.22273,-0.225825 -0.0722,-0.07487 -0.1448,-0.149399 -0.21912,-0.22221 -0.0716,-0.07416 -0.14391,-0.147484 -0.21754,-0.219625 -0.0707,-0.07324 -0.14177,-0.146283 -0.21447,-0.217557 -0.0725,-0.07506 -0.1451,-0.149725 -0.21964,-0.222726 -0.0705,-0.07297 -0.14144,-0.145507 -0.21394,-0.216524 -0.0693,-0.07175 -0.13909,-0.143045 -0.21031,-0.212908 -0.0721,-0.07468 -0.14444,-0.14905 -0.21858,-0.221691 -0.0683,-0.07066 -0.1371,-0.14097 -0.20722,-0.209804 -0.0712,-0.07372 -0.14285,-0.146863 -0.21603,-0.218594 -0.0696,-0.07201 -0.1393,-0.14382 -0.21082,-0.213939 -0.0692,-0.0716 -0.13872,-0.142669 -0.20982,-0.212389 -0.0698,-0.07225 -0.14009,-0.144116 -0.21187,-0.214458 -0.0677,-0.06996 -0.13568,-0.139568 -0.20516,-0.207741 -0.0705,-0.07289 -0.141,-0.145568 -0.21341,-0.216524 -0.0663,-0.06844 -0.13306,-0.136353 -0.20104,-0.203089 -0.0696,-0.07199 -0.13935,-0.143833 -0.21084,-0.213939 -0.066,-0.06823 -0.13224,-0.136041 -0.19997,-0.202571 -0.0712,-0.07362 -0.14235,-0.146947 -0.21551,-0.218593 -0.0638,-0.06588 -0.12782,-0.131554 -0.19325,-0.195853 -0.0677,-0.07006 -0.13565,-0.139977 -0.20516,-0.208256 -0.0691,-0.07139 -0.13837,-0.142335 -0.20928,-0.211873 -0.0657,-0.06775 -0.13163,-0.134943 -0.19897,-0.201022 -0.0665,-0.0687 -0.13327,-0.137136 -0.20153,-0.204121 -0.0656,-0.06768 -0.13121,-0.135012 -0.19844,-0.201023 -0.0658,-0.06798 -0.13195,-0.135747 -0.19947,-0.202054 -0.066,-0.06817 -0.13226,-0.13608 -0.2,-0.20257 -0.0655,-0.06766 -0.1312,-0.135022 -0.19843,-0.201023 -0.065,-0.06703 -0.12978,-0.134072 -0.19638,-0.199472 -0.0646,-0.06667 -0.12962,-0.132858 -0.19584,-0.197919 -0.0645,-0.06657 -0.12923,-0.132958 -0.19534,-0.197921 -0.0666,-0.06868 -0.13325,-0.137147 -0.20154,-0.204121 -0.062,-0.06384 -0.12414,-0.127294 -0.18759,-0.189653 -0.0642,-0.06621 -0.12853,-0.132263 -0.19431,-0.196887 -0.0642,-0.06623 -0.12848,-0.132239 -0.19428,-0.196887 -0.0631,-0.06498 -0.12613,-0.129815 -0.19069,-0.19327 -0.0631,-0.06508 -0.12602,-0.130244 -0.19068,-0.193787 -0.0629,-0.06479 -0.12581,-0.129484 -0.19018,-0.192754 -0.0641,-0.06611 -0.12856,-0.131836 -0.19431,-0.196371 -0.0609,-0.06275 -0.12211,-0.125225 -0.18447,-0.18655 -0.062,-0.06392 -0.12409,-0.127727 -0.18759,-0.190169 -0.0631,-0.06497 -0.1261,-0.129828 -0.19069,-0.19327 -0.0599,-0.06162 -0.11964,-0.123206 -0.18087,-0.183452 -0.0618,-0.06373 -0.12377,-0.127386 -0.18706,-0.189653 -0.0612,-0.06304 -0.12237,-0.125973 -0.18502,-0.187584 -0.064,-0.06592 -0.12819,-0.131503 -0.19378,-0.195855 -0.0578,-0.05938 -0.1156,-0.118629 -0.17465,-0.176734 -0.06,-0.06176 -0.12002,-0.123579 -0.1814,-0.183968 -0.0619,-0.06371 -0.12372,-0.127396 -0.18706,-0.189653 -0.0578,-0.0594 -0.11562,-0.118597 -0.17468,-0.176731 -0.0599,-0.06162 -0.11964,-0.123193 -0.18087,-0.183452 -0.0598,-0.06162 -0.11961,-0.123195 -0.18087,-0.183451 -0.0618,-0.0636 -0.12377,-0.126989 -0.18706,-0.189137 -0.0557,-0.05715 -0.11109,-0.114554 -0.16795,-0.170532 -0.0598,-0.06153 -0.1197,-0.122767 -0.18087,-0.182933 -0.0571,-0.05868 -0.11425,-0.117227 -0.17259,-0.174668 -0.0586,-0.06027 -0.11684,-0.120861 -0.17674,-0.179834 -0.06,-0.06173 -0.12047,-0.123084 -0.1819,-0.183452 -0.0549,-0.05637 -0.10981,-0.112715 -0.16587,-0.167947 -0.0587,-0.06038 -0.11724,-0.120766 -0.17725,-0.179834 -0.0557,-0.05718 -0.11112,-0.114523 -0.16795,-0.170532 -0.0601,-0.06174 -0.12049,-0.123074 -0.1819,-0.183452 -0.0522,-0.05348 -0.10393,-0.107227 -0.15711,-0.159681 -0.0602,-0.06194 -0.12031,-0.123918 -0.1819,-0.184483 -0.0534,-0.05479 -0.10674,-0.109583 -0.16121,-0.163299 -0.057,-0.0586 -0.11386,-0.117292 -0.17209,-0.174667 -0.0564,-0.05786 -0.11298,-0.115419 -0.17055,-0.172082 -0.0532,-0.05456 -0.10594,-0.109284 -0.16018,-0.16278 -0.0584,-0.05998 -0.11708,-0.119589 -0.17674,-0.178284 -0.0522,-0.05346 -0.1039,-0.107238 -0.15708,-0.159681 -0.0555,-0.05693 -0.11084,-0.113721 -0.16746,-0.169498 -0.0544,-0.05584 -0.10877,-0.111672 -0.1643,-0.166399 -0.053,-0.05434 -0.10565,-0.108976 -0.15971,-0.162263 -0.0563,-0.05778 -0.1125,-0.115491 -0.16999,-0.172083 -0.0537,-0.05503 -0.10748,-0.109871 -0.16227,-0.163814 -0.0505,-0.05169 -0.10052,-0.10377 -0.15192,-0.154511 -0.0543,-0.05567 -0.10848,-0.111313 -0.16383,-0.165883 -0.0531,-0.05444 -0.10605,-0.108884 -0.16021,-0.162264 -0.0529,-0.05425 -0.10567,-0.108548 -0.15968,-0.161748 -0.0519,-0.05319 -0.10363,-0.106463 -0.15658,-0.158647 -0.0521,-0.05337 -0.10398,-0.106804 -0.15708,-0.159162 -0.0535,-0.05483 -0.10716,-0.109541 -0.16174,-0.163296 -0.0479,-0.04904 -0.0954,-0.09858 -0.1442,-0.146762 -0.0545,-0.05591 -0.10922,-0.111598 -0.16483,-0.166399 -0.0491,-0.05019 -0.0978,-0.100571 -0.1478,-0.14986 -0.0512,-0.05249 -0.10229,-0.105068 -0.15452,-0.15658 -0.049,-0.05023 -0.0978,-0.100534 -0.14779,-0.149863 -0.0537,-0.05502 -0.107,-0.110387 -0.16174,-0.16433 -0.0483,-0.0494 -0.0966,-0.09875 -0.14573,-0.147278 -0.0491,-0.05022 -0.0978,-0.100541 -0.1478,-0.149862 -0.0519,-0.05318 -0.10364,-0.106474 -0.15658,-0.158647 -0.0471,-0.04816 -0.0942,-0.09632 -0.14211,-0.143661 -0.0491,-0.05027 -0.0978,-0.100999 -0.14779,-0.150378 -0.0503,-0.0515 -0.10065,-0.102921 -0.15193,-0.153477 -0.0467,-0.04774 -0.0931,-0.0957 -0.14057,-0.142629 -0.05,-0.05114 -0.1,-0.102227 -0.15089,-0.152445 -0.0469,-0.04798 -0.0938,-0.09598 -0.14158,-0.143142 -0.0474,-0.04851 -0.0943,-0.09754 -0.14264,-0.145212 -0.0474,-0.04853 -0.0948,-0.097 -0.14314,-0.144695 -0.0487,-0.04985 -0.0971,-0.09986 -0.14676,-0.148828 -0.0471,-0.04814 -0.0942,-0.09634 -0.14211,-0.143661 -0.0449,-0.04588 -0.0897,-0.0918 -0.13539,-0.13694 -0.048,-0.04913 -0.0958,-0.09849 -0.1447,-0.146762 -0.0446,-0.04553 -0.089,-0.09111 -0.13435,-0.135909 -0.0461,-0.04713 -0.0916,-0.09473 -0.13849,-0.141078 -0.0471,-0.04817 -0.0942,-0.09631 -0.1421,-0.143661 -0.0455,-0.0464 -0.0908,-0.09286 -0.13695,-0.138491 -0.0452,-0.04613 -0.09,-0.0926 -0.13592,-0.137977 -0.0432,-0.04405 -0.0864,-0.08789 -0.13023,-0.131257 -0.0451,-0.04606 -0.0896,-0.09266 -0.13538,-0.137978 -0.0477,-0.04867 -0.0952,-0.09737 -0.14367,-0.145209 -0.041,-0.04175 -0.0819,-0.08341 -0.12351,-0.124542 -0.0454,-0.04632 -0.0903,-0.09293 -0.13642,-0.138491 -0.0426,-0.04351 -0.0848,-0.08739 -0.12816,-0.130225 -0.0463,-0.04727 -0.0924,-0.0946 -0.13952,-0.141078 -0.0399,-0.04059 -0.0795,-0.08143 -0.11988,-0.121439 -0.0444,-0.04527 -0.0883,-0.09085 -0.13333,-0.135392 -0.0428,-0.04366 -0.0857,-0.08723 -0.12919,-0.130226 -0.0408,-0.04158 -0.0811,-0.08357 -0.12248,-0.124539 -0.0443,-0.04525 -0.0883,-0.09086 -0.13332,-0.135393 -0.0416,-0.04234 -0.0829,-0.0849 -0.12507,-0.126605 -0.0399,-0.0406 -0.0795,-0.08142 -0.11988,-0.121441 -0.0428,-0.04367 -0.0852,-0.08774 -0.12867,-0.130742 -0.0414,-0.04217 -0.0825,-0.08455 -0.12454,-0.126089 -0.0409,-0.04166 -0.0815,-0.08349 -0.123,-0.12454 -0.0404,-0.04114 -0.0805,-0.08245 -0.12145,-0.122991 -0.0404,-0.04112 -0.0805,-0.08247 -0.12141,-0.122989 -0.0407,-0.04147 -0.0812,-0.08316 -0.12248,-0.124024 -0.0399,-0.04059 -0.0794,-0.08143 -0.11991,-0.121441 -0.039,-0.03972 -0.0777,-0.07969 -0.11729,-0.118853 -0.0393,-0.04007 -0.0784,-0.08039 -0.11835,-0.119891 -0.0409,-0.04164 -0.0815,-0.08351 -0.12297,-0.124539 -0.0358,-0.0364 -0.0712,-0.0731 -0.10751,-0.109038 -0.0418,-0.04262 -0.0836,-0.08515 -0.12607,-0.127124 -0.0367,-0.03725 -0.0729,-0.07486 -0.11009,-0.111623 -0.038,-0.03866 -0.0757,-0.07761 -0.1142,-0.115755 -0.036,-0.03659 -0.0716,-0.07343 -0.108,-0.109553 -0.0409,-0.04166 -0.0815,-0.08349 -0.12298,-0.124539 -0.0372,-0.03779 -0.074,-0.07589 -0.11163,-0.113173 -0.0357,-0.03631 -0.0713,-0.07268 -0.1075,-0.108519 -0.0368,-0.03745 -0.0733,-0.07518 -0.11056,-0.112139 -0.0365,-0.03711 -0.0726,-0.07448 -0.10957,-0.111103 -0.0377,-0.03832 -0.075,-0.07692 -0.11316,-0.114724 -0.0328,-0.03326 -0.0651,-0.06686 -0.0982,-0.09973 -0.0394,-0.04007 -0.0784,-0.08038 -0.11835,-0.119888 -0.0354,-0.03595 -0.0706,-0.072 -0.10644,-0.107487 -0.0337,-0.03421 -0.0672,-0.06853 -0.10131,-0.10232 -0.0348,-0.03543 -0.0691,-0.07147 -0.10438,-0.106455 -0.0366,-0.03717 -0.073,-0.07441 -0.11006,-0.111104 -0.0314,-0.03185 -0.0623,-0.0641 -0.0941,-0.0956 -0.0373,-0.03795 -0.0743,-0.07624 -0.11213,-0.113686 -0.0342,-0.03471 -0.0682,-0.06959 -0.10285,-0.10387 -0.0317,-0.03219 -0.063,-0.06481 -0.0951,-0.09664 -0.0353,-0.03586 -0.0702,-0.07208 -0.10594,-0.107487 -0.0317,-0.03219 -0.0635,-0.06429 -0.0956,-0.09612 -0.0346,-0.03516 -0.0688,-0.0707 -0.10385,-0.105418 -0.0311,-0.03151 -0.0616,-0.06341 -0.093,-0.09457 -0.0339,-0.03447 -0.0674,-0.0693 -0.10181,-0.103352 -0.0306,-0.03105 -0.061,-0.0623 -0.092,-0.09302 -0.0337,-0.03421 -0.0672,-0.06853 -0.10128,-0.102319 -0.03,-0.03045 -0.0596,-0.06134 -0.0899,-0.09147 -0.0332,-0.03367 -0.0662,-0.06749 -0.0997,-0.100769 -0.0294,-0.02975 -0.0582,-0.05995 -0.0879,-0.0894 -0.033,-0.03351 -0.0658,-0.06713 -0.0992,-0.10025 -0.03,-0.03036 -0.0596,-0.06092 -0.0899,-0.09095 -0.0307,-0.03115 -0.0609,-0.06273 -0.092,-0.09354 -0.03,-0.03045 -0.0601,-0.06083 -0.0904,-0.09095 -0.0299,-0.03034 -0.0596,-0.06093 -0.0899,-0.09095 -0.0278,-0.02818 -0.0551,-0.05685 -0.0832,-0.08475 -0.0314,-0.03185 -0.0623,-0.06411 -0.094,-0.0956 -0.029,-0.02931 -0.0576,-0.05885 -0.0868,-0.08785 -0.0289,-0.02932 -0.0576,-0.05884 -0.0868,-0.08785 -0.0271,-0.02741 -0.0538,-0.05502 -0.0811,-0.08217 -0.0301,-0.03045 -0.0596,-0.06134 -0.0899,-0.09147 -0.0279,-0.02827 -0.0555,-0.05676 -0.0837,-0.08475 -0.0298,-0.03017 -0.0593,-0.06059 -0.0894,-0.09043 -0.0225,-0.0227 -0.0445,-0.04569 -0.0672,-0.06821 -0.0322,-0.03271 -0.064,-0.06585 -0.0966,-0.09819 -0.0257,-0.02606 -0.0515,-0.05219 -0.0775,-0.07803 -0.0265,-0.02678 -0.0523,-0.05408 -0.079,-0.08062 -0.0268,-0.02712 -0.0536,-0.05426 -0.0806,-0.08113 -0.0279,-0.02825 -0.0555,-0.05677 -0.0837,-0.08475 -0.0243,-0.02469 -0.0487,-0.04942 -0.0734,-0.0739 -0.0254,-0.02574 -0.0503,-0.05201 -0.076,-0.07752 -0.0257,-0.0259 -0.0512,-0.05183 -0.077,-0.07751 -0.0238,-0.02418 -0.0472,-0.0489 -0.0713,-0.07286 -0.0283,-0.0286 -0.0562,-0.05747 -0.0847,-0.08578 -0.0214,-0.02164 -0.0425,-0.04363 -0.0641,-0.06511 -0.0281,-0.02844 -0.0559,-0.05711 -0.0842,-0.08526 -0.0222,-0.02252 -0.0442,-0.04536 -0.0666,-0.0677 -0.0241,-0.02426 -0.0476,-0.0488 -0.0718,-0.07286 -0.0241,-0.02426 -0.0476,-0.04881 -0.0718,-0.07286 -0.0251,-0.02548 -0.05,-0.05124 -0.0754,-0.07648 -0.0214,-0.02154 -0.0426,-0.04321 -0.0641,-0.0646 -0.0233,-0.02347 -0.0463,-0.047 -0.0698,-0.07028 -0.0225,-0.02278 -0.0444,-0.04613 -0.0672,-0.06873 -0.0225,-0.02267 -0.0446,-0.04571 -0.0672,-0.06821 -0.0241,-0.02432 -0.0481,-0.04874 -0.0723,-0.07286 -0.0204,-0.02043 -0.0401,-0.04122 -0.0605,-0.06149 -0.0233,-0.02365 -0.0467,-0.04735 -0.0703,-0.0708 -0.0212,-0.02146 -0.0421,-0.04329 -0.0635,-0.0646 -0.0196,-0.01963 -0.0388,-0.03941 -0.0584,-0.05891 -0.0212,-0.0213 -0.0418,-0.04293 -0.0631,-0.06408 -0.0222,-0.02233 -0.0439,-0.04503 -0.0661,-0.06718 -0.0204,-0.0205 -0.0405,-0.04114 -0.061,-0.0615 -0.0185,-0.01879 -0.0371,-0.03767 -0.0558,-0.05633 -0.0201,-0.02024 -0.0397,-0.04087 -0.0599,-0.06098 -0.0212,-0.02138 -0.0422,-0.04286 -0.0636,-0.06408 -0.0177,-0.01799 -0.0353,-0.03638 -0.0532,-0.05426 -0.0188,-0.01905 -0.0373,-0.03844 -0.0563,-0.05736 -0.0225,-0.02259 -0.0446,-0.04529 -0.0672,-0.0677 -0.0151,-0.01529 -0.0302,-0.03078 -0.0454,-0.04599 -0.0183,-0.01852 -0.0363,-0.03742 -0.0548,-0.05581 -0.0198,-0.02008 -0.0394,-0.04053 -0.0594,-0.06046 -0.0177,-0.01789 -0.0353,-0.03596 -0.0532,-0.05375 -0.0175,-0.01773 -0.035,-0.03561 -0.0527,-0.05323 -0.0156,-0.01574 -0.0308,-0.03189 -0.0465,-0.04754 -0.0185,-0.01879 -0.0371,-0.03767 -0.0558,-0.05633 -0.0169,-0.01704 -0.0336,-0.03423 -0.0506,-0.05116 -0.0164,-0.01662 -0.0325,-0.03362 -0.0491,-0.05013 -0.0146,-0.0146 -0.0288,-0.02939 -0.0434,-0.04393 -0.0177,-0.01791 -0.0353,-0.03595 -0.0532,-0.05374 -0.0159,-0.01609 -0.0315,-0.03259 -0.0476,-0.04858 -0.0153,-0.01545 -0.0305,-0.03112 -0.046,-0.04651 -0.0154,-0.01545 -0.0305,-0.03113 -0.046,-0.04651 -0.0132,-0.01339 -0.0265,-0.02698 -0.0398,-0.04031 -0.0164,-0.01662 -0.0325,-0.03362 -0.0491,-0.05013 -0.0143,-0.01442 -0.0285,-0.02905 -0.0429,-0.04341 -0.0161,-0.01624 -0.0323,-0.03242 -0.0486,-0.04857 -0.0122,-0.01217 -0.0241,-0.02455 -0.0362,-0.03669 -0.0119,-0.01209 -0.0236,-0.02466 -0.0357,-0.03669 -0.0169,-0.01704 -0.0336,-0.03423 -0.0506,-0.05116 -0.01,-0.0098 -0.0196,-0.01963 -0.0294,-0.02945 -0.0146,-0.01471 -0.0288,-0.02982 -0.0434,-0.04444 -0.0143,-0.01442 -0.0285,-0.02906 -0.0429,-0.04341 -0.0109,-0.01087 -0.0217,-0.02172 -0.0325,-0.03256 -0.0122,-0.01217 -0.0241,-0.02455 -0.0362,-0.03669 -0.0103,-0.01027 -0.0204,-0.02077 -0.0305,-0.03101 -0.0151,-0.01513 -0.0298,-0.03043 -0.045,-0.04548 -0.01,-0.0098 -0.019,-0.01974 -0.0289,-0.02945 -0.01,-0.0095 -0.0185,-0.01947 -0.0279,-0.02894 -0.0159,-0.01606 -0.032,-0.03208 -0.0481,-0.04806 -0.007,-0.0072 -0.0146,-0.01447 -0.0217,-0.0217 -0.0103,-0.01045 -0.0206,-0.02111 -0.031,-0.03152 -0.0116,-0.01183 -0.0233,-0.02387 -0.0351,-0.03566 -0.008,-0.0083 -0.0164,-0.01654 -0.0249,-0.02479 -0.009,-0.0094 -0.0185,-0.01905 -0.0279,-0.02842 -0.01,-0.0096 -0.0188,-0.01939 -0.0284,-0.02894 -0.0106,-0.01061 -0.0209,-0.02146 -0.0315,-0.03204 -0.007,-0.0071 -0.014,-0.01413 -0.0212,-0.02119 -0.0103,-0.01045 -0.0206,-0.02111 -0.031,-0.03152 -0.007,-0.0066 -0.0132,-0.0131 -0.0196,-0.01963 -0.008,-0.008 -0.0159,-0.01627 -0.0238,-0.02429 -0.01,-0.0096 -0.0188,-0.01939 -0.0284,-0.02894 -0.006,-0.0059 -0.0116,-0.01172 -0.0175,-0.01757 -0.005,-0.0054 -0.0103,-0.01119 -0.0156,-0.01654 -0.003,-0.0019 -0.004,-0.0034 -0.006,-0.0052 -0.009,-0.0089 -0.0175,-0.01799 -0.0265,-0.02687 -0.005,-0.0049 -0.01,-0.01008 -0.0145,-0.01498 -0.005,-0.0051 -0.01,-0.0104 -0.0151,-0.0155 -0.003,-0.0013 -0.003,-0.0028 -0.004,-0.0041 -0.008,-0.0079 -0.0159,-0.01585 -0.0238,-0.02376 -0.006,-0.006 -0.0122,-0.01206 -0.018,-0.0181 -0.003,-0.003 -0.006,-0.0063 -0.009,-0.0093 0,-7.94e-4 -0.003,-0.0019 -0.003,-0.0026 -0.007,-0.0072 -0.0145,-0.01447 -0.0217,-0.0217 -0.003,-0.0027 -0.005,-0.0056 -0.008,-0.0083 0,-7.94e-4 -0.003,-0.0013 -0.003,-0.0021 -0.009,-0.0093 -0.0185,-0.01863 -0.0279,-0.0279 0,-2.64e-4 0,-7.93e-4 0,-0.0011 -0.006,-0.0062 -0.0124,-0.01241 -0.0185,-0.0186 -0.003,-0.0024 -0.005,-0.0053 -0.007,-0.0078 -0.006,-0.0057 -0.0114,-0.01138 -0.0169,-0.01704 -0.003,-0.0019 -0.003,-0.0039 -0.005,-0.0057 -0.003,-0.0034 -0.007,-0.0069 -0.0103,-0.01034 -0.003,-0.0033 -0.007,-0.0066 -0.01,-0.0098 -0.003,-0.003 -0.006,-0.0063 -0.009,-0.0093 -0.003,-0.0028 -0.006,-0.0055 -0.008,-0.0083 -0.003,-0.0024 -0.005,-0.0048 -0.007,-0.0072 -0.003,-0.0021 -0.005,-0.0045 -0.007,-0.0067 -0.003,-0.0019 -0.004,-0.0038 -0.006,-0.0057 -0.003,-0.0019 -0.003,-0.0034 -0.005,-0.0052 -0.003,-0.0013 -0.003,-0.0028 -0.004,-0.0041 -2.6e-4,-2.64e-4 0,-7.93e-4 -0.003,-0.0011 v -5.29e-4 c -2.7e-4,-2.65e-4 -2.7e-4,-7.94e-4 0,-0.0011 v -0.0011 c -0.003,-0.0016 -0.003,-0.0031 -0.005,-0.0047 -2.6e-4,-2.65e-4 -2.3e-4,-7.94e-4 0,-0.0011 -1.8e-4,-1.72e-4 0,-2.64e-4 0,-5.29e-4 -0.13599,-0.135969 -0.27519,-0.269063 -0.41753,-0.398425 0,-2.65e-4 0,-7.94e-4 0,-0.0011 -1.4e-4,-9.8e-5 0,-5.29e-4 0,-5.29e-4 -0.14288,-0.12982 -0.28861,-0.256389 -0.43768,-0.379304 v 0 c -0.1171,-0.09655 -0.23736,-0.189484 -0.35811,-0.281638 -0.0325,-0.02482 -0.0639,-0.05096 -0.0966,-0.07545 0,-2.65e-4 0,-7.94e-4 0,-0.0011 v -5.29e-4 c -0.15452,-0.115398 -0.31219,-0.226824 -0.47234,-0.334864 0,-2.65e-4 0,-7.94e-4 0,-0.0011 v -5.29e-4 c -0.16057,-0.108281 -0.32393,-0.212518 -0.4899,-0.313158 v -6.7e-5 c -0.166,-0.100632 -0.3348,-0.197168 -0.50591,-0.289907 v -5.29e-4 c -0.17121,-0.09276 -0.34478,-0.181515 -0.52091,-0.266134 v 0 c -0.0794,-0.03814 -0.16097,-0.07259 -0.24133,-0.109037 -0.0979,-0.04439 -0.19529,-0.09097 -0.29456,-0.132808 -0.0788,-0.0332 -0.15965,-0.06248 -0.23926,-0.09405 -0.28625,-0.113504 -0.57616,-0.219245 -0.87281,-0.311092 -0.18923,-0.0586 -0.3805,-0.112794 -0.57362,-0.162264 0,-8.4e-5 0,8.2e-5 0,0 -0.0887,-0.02273 -0.1792,-0.04126 -0.26871,-0.06201 -0.10533,-0.02442 -0.20989,-0.05069 -0.31625,-0.07235 -0.78883,-0.16066 -1.60563,-0.245464 -2.44327,-0.245464 h -0.003 -225.8999059 z"
         style="font-style:normal;font-variant:normal;font-weight:normal;font-stretch:normal;font-size:10.5833px;line-height:1.25;font-family:'Hobo Std';-inkscape-font-specification:'Hobo Std, Normal';font-variant-ligatures:normal;font-variant-caps:normal;font-variant-numeric:normal;font-variant-east-asian:normal;letter-spacing:0px;word-spacing:0px;white-space:pre;fill:#000001;fill-opacity:0.247059;stroke:none;stroke-width:9.83009"
         id="path103" />
      <g
         id="g68"
         style="fill:#009688;fill-opacity:1">
        <circle
           r="5.496397"
           cy="46.001858"
           cx="12.752787"
           id="path856"
           style="fill:#009688;fill-opacity:1;stroke-width:0.192374" />
        <circle
           style="fill:#009688;fill-opacity:1;stroke-width:0.192374"
           id="circle858"
           cx="28.527447"
           cy="46.001858"
           r="5.496397" />
        <circle
           r="5.496397"
           cy="46.001858"
           cx="44.302105"
           id="circle860"
           style="fill:#009688;fill-opacity:1;stroke-width:0.192374" />
        <g
           style="fill:#009688;fill-opacity:1"
           id="g44">
          <path
             id="rect837"
             style="fill:#009688;fill-opacity:1;stroke-width:0.192374"
             d="m -3.7915484,21.157932 c -6.6990076,0 -12.0917496,5.393119 -12.0917496,12.092127 V 259.15224 c 0,6.69902 5.392742,12.09214 12.0917496,12.09214 H 222.11064 c 6.69901,0 12.09214,-5.39312 12.09214,-12.09214 V 33.250059 c 0,-6.699008 -5.39313,-12.092127 -12.09214,-12.092127 z M 8.1243622,34.349446 H 210.19473 c 5.9923,0 10.81653,4.824223 10.81653,10.816523 V 58.588558 H -2.6921604 V 45.165969 c 0,-5.9923 4.8242218,-10.816523 10.8165226,-10.816523 z M -2.6921604,72.329766 H 221.01126 V 247.23633 c 0,5.99232 -4.82423,10.81653 -10.81653,10.81653 H 8.1243622 c -5.9923008,0 -10.8165226,-4.82421 -10.8165226,-10.81653 z" />
          <text
             xml:space="preserve"
             id="text862"
             style="font-style:normal;font-variant:normal;font-weight:normal;font-stretch:normal;font-size:10.5833px;line-height:1.25;font-family:'Hobo Std';-inkscape-font-specification:'Hobo Std, Normal';font-variant-ligatures:normal;font-variant-caps:normal;font-variant-numeric:normal;font-variant-east-asian:normal;letter-spacing:0px;word-spacing:0px;white-space:pre;shape-inside:url(#rect864);fill:#009688;fill-opacity:1;stroke:none;"
             transform="matrix(9.8301018,0,0,9.8301018,3759.1709,-489.16763)"><tspan
               x="-380.24414"
               y="70.82703"><tspan
                 style="font-style:normal;font-variant:normal;font-weight:normal;font-stretch:normal;font-size:10.5833px;font-family:'Hobo Std';-inkscape-font-specification:'Hobo Std, Normal';font-variant-ligatures:normal;font-variant-caps:normal;font-variant-numeric:normal;font-variant-east-asian:normal;fill:#009688;fill-opacity:1">&lt;/&gt;</tspan></tspan></text>
        </g>
      </g>
    </g>
  </g>
</svg>
