<?xml version="1.0" encoding="UTF-8" standalone="no"?>
<svg
   xmlns:dc="http://purl.org/dc/elements/1.1/"
   xmlns:cc="http://creativecommons.org/ns#"
   xmlns:rdf="http://www.w3.org/1999/02/22-rdf-syntax-ns#"
   xmlns:svg="http://www.w3.org/2000/svg"
   xmlns="http://www.w3.org/2000/svg"
   xmlns:sodipodi="http://sodipodi.sourceforge.net/DTD/sodipodi-0.dtd"
   xmlns:inkscape="http://www.inkscape.org/namespaces/inkscape"
   inkscape:version="1.0 (4035a4fb49, 2020-05-01)"
   id="svg8"
   inkscape:export-filename="C:\Users\linos\Desktop\webappII.png"
   inkscape:export-xdpi="96"
   inkscape:export-ydpi="96"
   sodipodi:docname="webappII.svg"
   version="1.1"
   viewBox="0 0 67.733338 67.733338"
   height="67.733337mm"
   width="67.733337mm">
  <defs
     id="defs2">
    <rect
       id="rect864"
       height="147.41071"
       width="223.7619"
       y="60.476189"
       x="-380.24405" />
    <rect
       x="-380.24405"
       y="60.476189"
       width="223.7619"
       height="147.41071"
       id="rect4974" />
  </defs>
  <sodipodi:namedview
     inkscape:window-maximized="1"
     inkscape:window-y="-9"
     inkscape:window-x="-9"
     inkscape:window-height="1013"
     inkscape:window-width="1920"
     showgrid="false"
     inkscape:document-rotation="0"
     inkscape:current-layer="layer1"
     inkscape:document-units="mm"
     inkscape:cy="1160.0001"
     inkscape:cx="867.14293"
     inkscape:zoom="0.35"
     inkscape:pageshadow="2"
     inkscape:pageopacity="0.0"
     borderopacity="1.0"
     bordercolor="#666666"
     pagecolor="#ffffff"
     id="base" />
  <metadata
     id="metadata5">
    <rdf:RDF>
      <cc:Work
         rdf:about="">
        <dc:format>image/svg+xml</dc:format>
        <dc:type
           rdf:resource="http://purl.org/dc/dcmitype/StillImage" />
        <dc:title />
        <cc:license
           rdf:resource="http://creativecommons.org/licenses/by-sa/4.0/" />
      </cc:Work>
      <cc:License
         rdf:about="http://creativecommons.org/licenses/by-sa/4.0/">
        <cc:permits
           rdf:resource="http://creativecommons.org/ns#Reproduction" />
        <cc:permits
           rdf:resource="http://creativecommons.org/ns#Distribution" />
        <cc:requires
           rdf:resource="http://creativecommons.org/ns#Notice" />
        <cc:requires
           rdf:resource="http://creativecommons.org/ns#Attribution" />
        <cc:permits
           rdf:resource="http://creativecommons.org/ns#DerivativeWorks" />
        <cc:requires
           rdf:resource="http://creativecommons.org/ns#ShareAlike" />
      </cc:License>
    </rdf:RDF>
  </metadata>
  <g
     transform="translate(161.77382,124.73216)"
     id="layer1"
     inkscape:groupmode="layer"
     inkscape:label="Livello 1">
    <g
       transform="matrix(0.12500001,0,0,0.12500001,-141.55209,-109.14064)"
       id="g31">
      <rect
         style="fill:#34495e;fill-opacity:1;stroke-width:0.264583"
         id="rect10"
         width="541.86664"
         height="541.86664"
         x="-161.77382"
         y="-124.73216" />
      <path
         id="path5014"
         style="font-style:normal;font-variant:normal;font-weight:normal;font-stretch:normal;font-size:10.5833px;line-height:1.25;font-family:'Hobo Std';-inkscape-font-specification:'Hobo Std, Normal';font-variant-ligatures:normal;font-variant-caps:normal;font-variant-numeric:normal;font-variant-east-asian:normal;letter-spacing:0px;word-spacing:0px;white-space:pre;fill:#000001;fill-opacity:0.247059;stroke:none;stroke-width:51.0988"
         d="m -174.58008,-97.429688 c -18.49814,0.0018 -35.07981,7.914272 -46.56054,20.552735 v 0.002 c -0.67499,0.743091 -1.33358,1.502228 -1.97266,2.277344 v 0.002 c -1.27842,1.550628 -2.48441,3.162973 -3.61133,4.833984 v 0.002 c -2.25402,3.342482 -4.19556,6.913872 -5.78125,10.675782 v 0.002 c -0.79267,1.880681 -1.49733,3.809341 -2.10742,5.779297 v 0.002 c -1.83046,5.911095 -2.81641,12.200312 -2.81641,18.728515 v 0.002 0.002 0.002 1174.283231 0 0 c 1.7e-4,1.0868 0.0279,2.1673 0.082,3.2402 v 0 c 0.0542,1.0736 0.13526,2.1389 0.24219,3.1973 1.3e-4,0 -1.3e-4,0 0,0 0.10693,1.0577 0.24013,2.1071 0.39844,3.1484 0.0565,0.3716 0.13436,0.7361 0.19726,1.1055 0.46671,2.7396 1.09156,5.4247 1.89844,8.0293 0.10294,0.3323 0.22378,0.6564 0.33203,0.9863 0.21272,0.6481 0.41939,1.299 0.65235,1.9375 h 0.002 c 0.35129,0.9627 0.72486,1.9137 1.12109,2.8535 h 0.002 c 1.18947,2.8209 2.57734,5.5361 4.14843,8.127 h 0.002 c 0.001,0 0.003,0 0.004,0.01 1.57025,2.5885 3.32196,5.055 5.23828,7.3789 0.002,0 0.004,0 0.006,0.01 h 0.002 c 0.52533,0.6373 1.07141,1.2554 1.62109,1.8711 0.11689,0.1308 0.22579,0.2686 0.34375,0.3984 0.20069,0.2209 0.4134,0.4305 0.61719,0.6485 0.44428,0.4755 0.88889,0.9525 1.34765,1.414 0.0386,0.039 0.0745,0.08 0.11329,0.1192 0,0 0.002,0 0.002,0 h 0.002 c 0.002,0 0.006,0 0.008,0.01 9.9e-4,10e-4 9.7e-4,0 0.002,0 0.003,0 0.005,0.01 0.008,0.01 0.002,0 0.004,0 0.006,0.01 0.007,0.01 0.0182,0.014 0.0254,0.021 h 0.002 c 0.006,0.01 0.0114,0.013 0.0176,0.019 0.008,0.01 0.0173,0.015 0.0254,0.023 0.0192,0.019 0.0393,0.037 0.0586,0.057 0.006,0.01 0.0101,0.012 0.0156,0.018 0.006,0.01 0.0117,0.012 0.0176,0.018 0.0124,0.012 0.0247,0.025 0.0371,0.037 0.0137,0.014 0.0273,0.027 0.041,0.041 0.0215,0.021 0.0449,0.041 0.0664,0.062 0.009,0.01 0.0182,0.018 0.0273,0.027 0.0238,0.024 0.0485,0.047 0.0723,0.07 0.0182,0.018 0.0364,0.037 0.0547,0.055 0.003,0 0.005,0.01 0.008,0.01 0.003,0 0.007,0.01 0.01,0.01 0.0485,0.049 0.0979,0.096 0.14648,0.1445 0.0224,0.022 0.0459,0.044 0.0684,0.066 0.0244,0.024 0.0478,0.05 0.0723,0.074 0.0319,0.032 0.0657,0.062 0.0977,0.094 0.041,0.041 0.0839,0.08 0.125,0.1211 0.003,0 0.005,0.01 0.008,0.01 0.0312,0.031 0.0625,0.062 0.0937,0.094 0.0293,0.029 0.0586,0.059 0.0879,0.088 0.0439,0.044 0.0888,0.087 0.13282,0.1309 0.002,0 0.004,0 0.006,0.01 0.0163,0.016 0.0344,0.031 0.0508,0.047 0.0462,0.046 0.0923,0.093 0.13867,0.1387 0.0273,0.027 0.0566,0.053 0.084,0.08 0.0286,0.029 0.0572,0.057 0.0859,0.086 0.0433,0.043 0.0875,0.086 0.13086,0.1289 0.0306,0.031 0.0612,0.061 0.0918,0.092 0.0452,0.045 0.0914,0.09 0.13672,0.1348 0.0459,0.046 0.0927,0.091 0.13867,0.1367 0.0339,0.034 0.0696,0.066 0.10351,0.1 0.0426,0.043 0.0862,0.084 0.12891,0.127 0.0364,0.036 0.0729,0.073 0.10938,0.1093 0.0579,0.058 0.11767,0.1141 0.17578,0.1719 0.0387,0.039 0.0784,0.077 0.11718,0.1152 0.0465,0.047 0.094,0.092 0.14063,0.1387 0.0407,0.041 0.0823,0.08 0.12305,0.1211 0.0686,0.069 0.13813,0.1366 0.20703,0.2051 0.0299,0.03 0.0618,0.058 0.0918,0.088 0.0579,0.058 0.11574,0.116 0.17383,0.1738 0.0585,0.059 0.11895,0.1154 0.17774,0.1738 0.0472,0.047 0.0952,0.093 0.14257,0.1407 0.0537,0.054 0.10827,0.1065 0.16211,0.1601 0.0556,0.056 0.11217,0.1105 0.16797,0.166 0.0637,0.064 0.12938,0.1259 0.19336,0.1895 0.0514,0.052 0.10467,0.101 0.15625,0.1523 0.0647,0.065 0.13034,0.1288 0.19531,0.1934 0.0468,0.047 0.0956,0.092 0.14258,0.1387 0.0754,0.076 0.15079,0.1512 0.22656,0.2265 0.0693,0.07 0.14134,0.136 0.21094,0.2051 0.0501,0.05 0.10205,0.098 0.15235,0.1484 0.064,0.064 0.12905,0.1275 0.19336,0.1914 0.08,0.08 0.16179,0.1585 0.24218,0.2383 0.0465,0.047 0.094,0.092 0.14063,0.1387 0.0809,0.081 0.16279,0.1614 0.24414,0.2422 0.0618,0.062 0.12547,0.1219 0.1875,0.1836 0.0777,0.078 0.15629,0.1548 0.23437,0.2324 0.0715,0.072 0.14493,0.1415 0.2168,0.2129 0.0722,0.072 0.14619,0.1428 0.21875,0.2148 0.067,0.067 0.13586,0.1324 0.20313,0.1993 0.0884,0.089 0.17864,0.1754 0.26757,0.2636 0.0566,0.057 0.11507,0.1115 0.17188,0.168 0.0893,0.09 0.17966,0.1783 0.26953,0.2676 0.078,0.078 0.15791,0.1545 0.23633,0.2324 0.0793,0.08 0.16049,0.1572 0.24023,0.2363 0.0806,0.081 0.16311,0.1598 0.24414,0.2403 0.0816,0.082 0.16601,0.1607 0.24805,0.2421 0.0822,0.083 0.16535,0.1641 0.24805,0.2461 0.0838,0.084 0.16958,0.1663 0.2539,0.25 0.0858,0.086 0.17346,0.1703 0.25977,0.2559 0.0858,0.086 0.17347,0.1702 0.25976,0.2559 0.0868,0.087 0.17638,0.1711 0.26368,0.2578 0.0949,0.095 0.1916,0.1885 0.28711,0.2832 0.0832,0.083 0.16827,0.165 0.25195,0.248 0.0848,0.085 0.17059,0.1693 0.25586,0.2539 0.10426,0.1048 0.2114,0.2065 0.3164,0.3106 0.0865,0.087 0.17474,0.1715 0.26172,0.2578 0.0942,0.095 0.19036,0.1872 0.28516,0.2812 0.10171,0.1022 0.20618,0.2013 0.30859,0.3028 0.0894,0.09 0.18158,0.1764 0.27149,0.2656 0.0981,0.099 0.19811,0.195 0.29687,0.293 0.1043,0.1047 0.21137,0.2065 0.31641,0.3105 0.093,0.093 0.18771,0.1846 0.28125,0.2774 0.10135,0.1017 0.20459,0.2015 0.30664,0.3027 0.10069,0.1012 0.2033,0.2003 0.30469,0.3008 0.11009,0.1106 0.22306,0.2182 0.33398,0.3281 0.10497,0.1054 0.21264,0.2078 0.31836,0.3125 0.10563,0.1061 0.21392,0.2091 0.32031,0.3144 0.0995,0.1 0.20066,0.1977 0.30078,0.2969 0.10782,0.1084 0.21757,0.2147 0.32618,0.3223 0.1078,0.1084 0.21757,0.2147 0.32617,0.3223 0.11722,0.1177 0.2373,0.2326 0.35547,0.3496 0.11043,0.1109 0.22272,0.2199 0.33398,0.33 0.11204,0.1126 0.22695,0.2223 0.33985,0.334 0.10066,0.1012 0.20331,0.2003 0.30468,0.3008 0.14022,0.1412 0.28422,0.2782 0.42578,0.418 0.0966,0.097 0.19575,0.1908 0.29297,0.2871 0.11623,0.1169 0.23441,0.2316 0.35157,0.3476 0.12366,0.1245 0.25028,0.2458 0.375,0.3692 0.11918,0.1198 0.24115,0.2366 0.36132,0.3554 0.1192,0.1199 0.24117,0.2367 0.36133,0.3555 0.12177,0.1225 0.24636,0.2419 0.36914,0.3633 0.1218,0.1225 0.24633,0.2418 0.36914,0.3633 0.12373,0.1244 0.25022,0.2457 0.375,0.3691 0.12437,0.1251 0.25153,0.2471 0.37696,0.3711 0.12565,0.1264 0.25413,0.2497 0.38085,0.375 0.12112,0.1218 0.24507,0.2405 0.36719,0.3613 0.14016,0.1411 0.28232,0.2802 0.42383,0.42 0.12276,0.1233 0.24925,0.2429 0.37305,0.3652 0.13053,0.1313 0.26478,0.2585 0.39648,0.3887 0.12533,0.1261 0.2525,0.25 0.37891,0.375 0.15091,0.1519 0.30455,0.3007 0.45703,0.4511 0.12114,0.1217 0.24699,0.2387 0.36914,0.3594 0.13441,0.1353 0.2706,0.2683 0.40625,0.4024 0.13569,0.1365 0.27515,0.269 0.41211,0.4043 0.13695,0.1378 0.27582,0.2736 0.41406,0.4101 0.14478,0.1458 0.29325,0.2874 0.43945,0.4317 0.13284,0.1335 0.2683,0.2641 0.40235,0.3964 0.13957,0.1405 0.28291,0.2769 0.42383,0.4161 0.14737,0.1483 0.29839,0.2925 0.44726,0.4394 0.1367,0.1375 0.27609,0.272 0.41406,0.4082 0.14443,0.1455 0.29165,0.2876 0.4375,0.4317 0.14377,0.1446 0.29037,0.2863 0.43555,0.4296 0.15252,0.1537 0.30877,0.3031 0.46289,0.4551 0.14123,0.1422 0.28513,0.2811 0.42774,0.4219 0.15477,0.1559 0.31232,0.3086 0.46875,0.4629 0.14153,0.1424 0.28677,0.2808 0.42968,0.4219 0.15216,0.1533 0.30719,0.3033 0.46094,0.455 0.15665,0.1579 0.31627,0.3127 0.47461,0.4688 0.15414,0.1552 0.31298,0.3054 0.46875,0.459 0.15381,0.1548 0.31136,0.3058 0.4668,0.459 0.14634,0.1473 0.29554,0.2916 0.44336,0.4375 0.16958,0.1709 0.34405,0.3369 0.51562,0.5058 0.14507,0.146 0.29293,0.2891 0.43946,0.4336 0.15795,0.1592 0.31883,0.3152 0.47851,0.4727 0.16536,0.1667 0.3347,0.3293 0.50195,0.4941 0.16154,0.1627 0.3269,0.3215 0.49024,0.4824 0.16803,0.1693 0.33978,0.3347 0.50976,0.502 0.14923,0.1502 0.30236,0.2966 0.45313,0.4453 0.1647,0.1661 0.33342,0.328 0.5,0.4922 0.17706,0.1785 0.35787,0.3529 0.53711,0.5293 0.16035,0.1614 0.3242,0.3188 0.48633,0.4785 0.16704,0.1683 0.33883,0.3316 0.50781,0.498 0.16998,0.1714 0.34363,0.3386 0.51562,0.5078 0.17511,0.1765 0.35402,0.3492 0.53125,0.5235 0.1577,0.1588 0.3191,0.3136 0.47852,0.4707 0.17277,0.1743 0.34859,0.3453 0.52344,0.5176 0.17732,0.1789 0.3576,0.3545 0.53711,0.5312 0.17573,0.1772 0.35532,0.3503 0.5332,0.5254 0.17999,0.1815 0.36464,0.3579 0.54687,0.5371 0.1709,0.1722 0.34661,0.3396 0.51954,0.5098 0.18351,0.1851 0.37077,0.3661 0.55664,0.5488 0.17356,0.1749 0.35169,0.3448 0.52734,0.5176 0.1719,0.1733 0.34753,0.3424 0.52148,0.5137 0.19475,0.1966 0.39246,0.39 0.58985,0.5839 0.18035,0.1818 0.36621,0.3577 0.54883,0.5372 0.17219,0.1735 0.34722,0.3441 0.52148,0.5156 0.19667,0.1986 0.39829,0.392 0.59766,0.5879 0.17708,0.1785 0.35784,0.353 0.53711,0.5293 0.20065,0.2025 0.40591,0.3999 0.60937,0.5996 0.16837,0.1696 0.34137,0.3343 0.51172,0.5019 0.2002,0.2023 0.40441,0.4002 0.60742,0.5996 0.18482,0.1864 0.37334,0.3688 0.56055,0.5528 0.19611,0.1979 0.3969,0.3907 0.5957,0.5859 0.19322,0.1949 0.39011,0.3858 0.58594,0.5781 0.18711,0.1888 0.3788,0.3723 0.56836,0.5586 0.20125,0.2032 0.40724,0.4012 0.61133,0.6016 0.18804,0.1897 0.3798,0.3753 0.57031,0.5625 0.20248,0.2045 0.40988,0.4039 0.61523,0.6055 0.19318,0.1949 0.39015,0.3858 0.58594,0.5781 0.20447,0.2065 0.4137,0.4078 0.6211,0.6113 0.1974,0.1992 0.39948,0.3934 0.5996,0.5899 0.19797,0.1998 0.40085,0.3946 0.60157,0.5918 0.20733,0.2094 0.41855,0.4146 0.6289,0.6211 0.20318,0.2049 0.41112,0.4052 0.61719,0.6074 0.20574,0.2077 0.41628,0.4105 0.625,0.6152 0.2038,0.2057 0.41243,0.4066 0.61914,0.6094 0.20865,0.2107 0.42306,0.4154 0.63477,0.623 0.20544,0.2075 0.41463,0.4108 0.62304,0.6153 0.21028,0.2123 0.42529,0.4196 0.63868,0.6289 0.20314,0.2051 0.41113,0.4051 0.61718,0.6074 0.22372,0.2262 0.45245,0.4473 0.67969,0.6699 0.2129,0.2149 0.4304,0.4251 0.64649,0.6367 0.20254,0.2044 0.4098,0.404 0.61523,0.6055 0.21856,0.2209 0.44213,0.4367 0.66406,0.6543 0.20895,0.2111 0.42274,0.417 0.63477,0.625 0.22365,0.2262 0.4525,0.4472 0.67969,0.6699 0.22387,0.2263 0.45227,0.4473 0.67968,0.6699 0.21224,0.2144 0.42912,0.4237 0.64453,0.6348 0.22092,0.2233 0.44752,0.4403 0.67188,0.6602 0.22702,0.2295 0.45879,0.4539 0.68945,0.6796 0.22219,0.2245 0.45011,0.4432 0.67578,0.6641 0.219,0.2212 0.44363,0.4365 0.66602,0.6543 0.2241,0.2266 0.45203,0.4489 0.67969,0.6719 0.22661,0.2291 0.4592,0.4522 0.68945,0.6777 0.22437,0.2269 0.4537,0.4486 0.68164,0.6719 0.23509,0.2378 0.47583,0.4693 0.71484,0.7031 0.23032,0.2328 0.46515,0.4605 0.69922,0.6895 0.2235,0.2258 0.45265,0.4456 0.67969,0.6679 0.23826,0.2411 0.48232,0.476 0.72461,0.7129 0.22578,0.2282 0.45615,0.4513 0.68555,0.6758 0.2418,0.2447 0.48841,0.4842 0.73437,0.7246 0.22094,0.2233 0.44747,0.4404 0.67188,0.6602 0.24693,0.2501 0.49872,0.4945 0.75,0.7402 0.23701,0.2397 0.47969,0.4733 0.7207,0.709 0.2377,0.2404 0.48093,0.4746 0.72266,0.7109 0.24081,0.2436 0.48747,0.4813 0.73242,0.7207 0.23958,0.2423 0.48484,0.4787 0.72851,0.7168 0.2373,0.2401 0.47939,0.475 0.72071,0.711 0.24661,0.2496 0.49904,0.493 0.75,0.7383 0.24603,0.2489 0.49769,0.4917 0.74804,0.7363 0.23603,0.2387 0.47679,0.4723 0.7168,0.707 0.25431,0.2576 0.5145,0.5088 0.77344,0.7617 0.24536,0.2483 0.49643,0.4905 0.74609,0.7344 0.24206,0.245 0.49008,0.4839 0.73633,0.7246 0.26071,0.2641 0.52739,0.5221 0.79297,0.7813 0.24541,0.2482 0.49637,0.4905 0.74609,0.7343 0.25273,0.2558 0.51223,0.5047 0.76953,0.7559 0.25347,0.2566 0.51148,0.5078 0.76953,0.7598 0.2512,0.2542 0.50796,0.5022 0.76368,0.7519 0.25527,0.2585 0.51739,0.5099 0.77734,0.7637 0.2575,0.2607 0.52094,0.5155 0.7832,0.7715 0.25529,0.2585 0.51542,0.5118 0.77539,0.7656 0.25948,0.2628 0.52475,0.5194 0.78907,0.7773 0.26628,0.2697 0.53916,0.5323 0.81054,0.7969 0.25408,0.2571 0.51473,0.5073 0.77344,0.7598 0.25428,0.2575 0.5145,0.5088 0.77344,0.7617 0.2749,0.2788 0.55558,0.5509 0.83594,0.8242 0.25175,0.2549 0.5093,0.5037 0.76562,0.7539 0.28392,0.288 0.57354,0.5695 0.86328,0.8516 0.24901,0.2519 0.50434,0.4967 0.75782,0.7441 0.2713,0.2752 0.54758,0.5447 0.82421,0.8145 0.27582,0.2796 0.55853,0.5521 0.83985,0.8262 0.27508,0.2785 0.55734,0.5492 0.83789,0.8222 0.25348,0.2565 0.51141,0.508 0.76953,0.7598 0.27641,0.2804 0.55984,0.5532 0.8418,0.8281 0.2813,0.2853 0.56844,0.5643 0.85546,0.8438 0.27148,0.2749 0.54937,0.5429 0.82618,0.8125 0.27107,0.2746 0.54782,0.5432 0.82422,0.8125 0.2797,0.2836 0.56618,0.56 0.85156,0.8379 0.27911,0.2828 0.56484,0.5587 0.84961,0.8359 0.27164,0.2752 0.54917,0.5446 0.82617,0.8144 0.28057,0.2847 0.56722,0.563 0.85352,0.8418 0.2854,0.2896 0.57779,0.5719 0.86914,0.8555 0.27399,0.2778 0.55452,0.5481 0.83398,0.8203 0.28956,0.2939 0.58519,0.5814 0.88086,0.8692 0.29003,0.2941 0.58665,0.5812 0.88281,0.8691 0.28141,0.2851 0.57025,0.5625 0.85742,0.8418 0.28594,0.2899 0.5792,0.5716 0.8711,0.8555 0.28068,0.2846 0.56708,0.5629 0.85351,0.8418 0.29533,0.2997 0.59674,0.5933 0.89844,0.8867 0.28288,0.2869 0.5726,0.5666 0.86133,0.8476 0.30289,0.3076 0.61227,0.6075 0.92187,0.9082 0.28526,0.2892 0.57795,0.5704 0.86914,0.8536 0.28892,0.2931 0.58389,0.5801 0.87891,0.8671 0.30374,0.3084 0.61333,0.6106 0.92383,0.9122 0.29158,0.2956 0.59086,0.5836 0.88867,0.873 0.2906,0.2948 0.58797,0.5825 0.884766,0.8711 0.307253,0.312 0.621363,0.6168 0.935547,0.9219 0.287398,0.2914 0.581543,0.5759 0.875,0.8613 0.311718,0.3167 0.630356,0.626 0.949219,0.9355 0.293305,0.2975 0.592956,0.5878 0.892578,0.879 0.309581,0.3143 0.626727,0.6204 0.943359,0.9277 0.299698,0.304 0.605808,0.6011 0.91211,0.8984 0.295058,0.2995 0.596968,0.5918 0.898437,0.8848 0.31037,0.3155 0.627834,0.6233 0.945313,0.9316 0.30597,0.3108 0.618763,0.6141 0.93164,0.918 0.320413,0.3255 0.648573,0.643 0.976563,0.9609 0.297557,0.3018 0.602167,0.5955 0.90625,0.8907 0.308832,0.3137 0.623572,0.6211 0.939453,0.9277 0.31393,0.319 0.635811,0.6297 0.957031,0.9414 0.313434,0.3184 0.634378,0.6284 0.955078,0.9395 0.316318,0.3212 0.63917,0.6354 0.962891,0.9492 0.301907,0.3064 0.611267,0.6046 0.919922,0.9043 0.325059,0.3306 0.657333,0.6538 0.990234,0.9765 0.319421,0.3245 0.645672,0.6422 0.972657,0.959 0.315348,0.3202 0.638214,0.6326 0.960937,0.9453 0.307543,0.3124 0.622933,0.6166 0.9375,0.9219 0.329567,0.3354 0.666254,0.663 1.003906,0.9902 0.314353,0.3195 0.635331,0.6314 0.957031,0.9434 0.336257,0.342 0.680713,0.6762 1.025391,1.0098 0.312224,0.3169 0.631698,0.6259 0.951172,0.9355 0.329286,0.3349 0.666536,0.6616 1.003906,0.9883 0.325496,0.3307 0.658795,0.6538 0.992188,0.9766 0.328832,0.3341 0.665056,0.6602 1.001953,0.9863 0.320701,0.3258 0.648187,0.6448 0.976562,0.9629 0.331927,0.3376 0.671556,0.6667 1.011719,0.9961 0.330673,0.3362 0.668964,0.6642 1.007813,0.9922 0.326754,0.3322 0.66135,0.6562 0.996093,0.9804 0.340531,0.3465 0.689845,0.6838 1.039063,1.0215 0.327512,0.3328 0.662504,0.6577 0.998047,0.9824 0.336655,0.3425 0.680235,0.6779 1.02539,1.0118 0.332843,0.3383 0.674472,0.6679 1.015625,0.998 0.333514,0.3393 0.673757,0.671 1.015625,1.002 0.340364,0.3463 0.688034,0.6857 1.03711,1.0234 0.344348,0.3504 0.697514,0.6918 1.050781,1.0332 0.327432,0.3329 0.662551,0.6576 0.998047,0.9824 0.350918,0.3575 0.710106,0.7065 1.070312,1.0547 0.347696,0.3537 0.703745,0.6984 1.060547,1.043 0.335179,0.3407 0.677843,0.6736 1.021485,1.0058 0.351145,0.3574 0.70986,0.7067 1.070312,1.0547 0.338389,0.3441 0.68422,0.6802 1.03125,1.0156 0.344637,0.3509 0.697162,0.6933 1.050781,1.0352 0.358458,0.3651 0.725569,0.7209 1.09375,1.0762 0.342273,0.348 0.69184,0.6882 1.042969,1.0273 0.347237,0.3535 0.702222,0.6987 1.058594,1.043 0.351129,0.3576 0.70983,0.7064 1.070312,1.0547 0.360019,0.3667 0.727801,0.7252 1.097657,1.082 0.346398,0.3525 0.701139,0.6958 1.05664,1.0391 0.36092,0.3676 0.730743,0.7262 1.101563,1.0839 0.349794,0.356 0.707315,0.7042 1.066406,1.0508 0.369991,0.377 0.748499,0.7449 1.128906,1.1114 0.345283,0.351 0.698392,0.6932 1.052735,1.0351 0.358943,0.3657 0.726938,0.7223 1.095703,1.0781 0.359686,0.3665 0.726147,0.7256 1.095703,1.0821 0.364034,0.3709 0.737177,0.733 1.111328,1.0937 0.359121,0.3658 0.726734,0.7223 1.095703,1.0781 0.36713,0.3742 0.741705,0.7398 1.119141,1.1036 0.3616,0.3683 0.731916,0.7276 1.103515,1.0859 0.360208,0.3671 0.729465,0.7249 1.09961,1.082 0.379425,0.3871 0.767736,0.7647 1.158203,1.1407 0.356878,0.3633 0.721259,0.7187 1.08789,1.0722 0.372661,0.3801 0.755346,0.7498 1.138672,1.1192 0.369644,0.3767 0.746815,0.7451 1.126954,1.1113 0.36442,0.3715 0.736695,0.7345 1.111328,1.0957 0.373424,0.3811 0.756457,0.7527 1.140625,1.123 0.379612,0.3874 0.767484,0.7664 1.158203,1.1426 0.379256,0.3867 0.767867,0.7632 1.158203,1.1387 0.371237,0.3782 0.750958,0.7477 1.132812,1.1152 0.373982,0.3813 0.757804,0.7526 1.142579,1.1231 0.385912,0.3937 0.780315,0.778 1.177734,1.1601 0.359614,0.3664 0.728053,0.7238 1.097656,1.0801 0.399986,0.4088 0.808312,0.8088 1.220703,1.2051 0.375551,0.3826 0.760029,0.7553 1.146485,1.1269 0.377848,0.3854 0.763434,0.7625 1.152343,1.1368 0.385985,0.3939 0.782141,0.7778 1.179688,1.1601 0.383904,0.3917 0.776529,0.7741 1.171875,1.1543 0.38933,0.3973 0.788347,0.7845 1.189453,1.1699 0.382757,0.3904 0.773826,0.7715 1.167969,1.1504 0.387225,0.3953 0.782744,0.7806 1.18164,1.1641 0.390258,0.3983 0.789284,0.7874 1.191407,1.1738 0.389659,0.3978 0.787957,0.7861 1.189453,1.1719 0.391859,0.4 0.793425,0.7898 1.197265,1.1777 0.389584,0.3977 0.788019,0.7862 1.1894535,1.1719 0.3985237,0.407 0.8058565,0.8047 1.2167969,1.1992 0.3874218,0.3954 0.7844364,0.7805 1.1835937,1.1641 0.404867,0.4136 0.8186206,0.818 1.2363281,1.2187 0.3867487,0.3946 0.7831828,0.7794 1.1816407,1.1621 0.4015182,0.4104 0.8123893,0.8114 1.2265625,1.209 0.4027678,0.4114 0.8149681,0.8124 1.2304687,1.211 0.3931617,0.4013 0.7958728,0.7925 1.2011719,1.1816 0.40622344,0.4152 0.82102684,0.8205 1.24023438,1.2227 0.39801528,0.4065 0.80436322,0.8033 1.21484372,1.1972 0.4163626,0.4256 0.8434168,0.8402 1.2734375,1.252 0.3909549,0.3987 0.7903773,0.7891 1.1933594,1.1758 0.4066885,0.4157 0.8224388,0.822 1.2421875,1.2246 0.4115572,0.4207 0.8328734,0.831 1.2578125,1.2382 0.4006558,0.4093 0.8112702,0.8087 1.2246094,1.2051 0.422195,0.4318 0.8527563,0.8539 1.2890625,1.2715 0.3963356,0.4045 0.8021834,0.7994 1.2109371,1.1914 0.417206,0.4268 0.844377,0.843 1.275391,1.2559 0.404988,0.4138 0.820284,0.818 1.238281,1.2187 0.420074,0.4298 0.849103,0.85 1.283203,1.2656 0.418808,0.4281 0.848509,0.8458 1.28125,1.2598 0.396894,0.4054 0.803476,0.8006 1.212891,1.1934 0.435844,0.4465 0.881028,0.8831 1.332031,1.3144 0.405992,0.4147 0.821122,0.8193 1.240235,1.2207 0.430378,0.4406 0.87124,0.8694 1.316406,1.2949 0.413094,0.4221 0.835017,0.8359 1.261719,1.2442 0.417247,0.4268 0.844227,0.8432 1.27539,1.2558 0.42541,0.4355 0.860883,0.8605 1.300782,1.2813 0.430742,0.4407 0.870807,0.8712 1.316406,1.2969 0.411209,0.4202 0.833068,0.8297 1.257812,1.2363 0.438167,0.4488 0.886261,0.8871 1.339844,1.3203 0.414854,0.424 0.838921,0.838 1.267578,1.2481 0.435839,0.4463 0.882865,0.8815 1.333984,1.3125 0.431297,0.4411 0.872111,0.8727 1.31836,1.2988 0.415032,0.4244 0.840639,0.8376 1.269531,1.248 0.437007,0.448 0.883509,0.886 1.335938,1.3184 0.436504,0.447 0.884052,0.8831 1.335937,1.3144 0.421537,0.4315 0.853177,0.8526 1.289063,1.2696 0.451949,0.4634 0.914323,0.9165 1.382812,1.3633 0.42347,0.433 0.856963,0.855 1.294922,1.2734 0.437342,0.4481 0.885044,0.8859 1.337891,1.3184 0.441045,0.4518 0.892784,0.8921 1.349609,1.3281 0.434957,0.4454 0.879768,0.8806 1.330078,1.3105 0.440837,0.4517 0.892976,0.8924 1.349609,1.3282 0.43875,0.4495 0.887387,0.8885 1.341797,1.3222 0.44861,0.4598 0.908045,0.9083 1.373047,1.3516 0.431215,0.4416 0.871998,0.8725 1.31836,1.2988 0.453891,0.4658 0.917946,0.9204 1.388672,1.3692 0.443392,0.4542 0.89798,0.8959 1.357421,1.3339 0.446161,0.4574 0.900847,0.9048 1.363282,1.3457 0.452157,0.4635 0.915879,0.9148 1.384765,1.3614 0.446835,0.4577 0.904013,0.9044 1.367188,1.3457 0.439335,0.4502 0.888592,0.89 1.34375,1.3242 0.463415,0.4757 0.938854,0.9386 1.419922,1.3965 0.44193,0.4527 0.893599,0.8954 1.351562,1.332 0.457475,0.4695 0.925684,0.9287 1.400391,1.3809 0.453612,0.4651 0.918117,0.9191 1.388672,1.3672 0.45362,0.4653 0.918089,0.9189 1.388671,1.3671 0.465743,0.4779 0.942138,0.9445 1.425782,1.4043 0.448781,0.4598 0.907655,0.9086 1.373047,1.3516 0.461715,0.4738 0.934716,0.9365 1.414062,1.3926 0.459322,0.4711 0.929474,0.9312 1.40625,1.3847 0.45212,0.4638 0.915711,0.9147 1.384766,1.3614 0.469245,0.482 0.949966,0.9524 1.4375,1.416 0.462911,0.475 0.935315,0.9394 1.416015,1.3965 0.463901,0.476 0.938137,0.9405 1.419922,1.3984 0.468578,0.4809 0.948704,0.9496 1.435547,1.4121 0.464237,0.4762 0.937748,0.9423 1.419922,1.4004 0.45703,0.469 0.925944,0.9255 1.400391,1.377 0.483948,0.4976 0.978893,0.9831 1.482422,1.4609 0.460997,0.4727 0.933377,0.9339 1.412109,1.3887 0.470548,0.4832 0.952329,0.9553 1.441406,1.4199 0.4714,0.4842 0.953345,0.9565 1.443359,1.4219 0.479248,0.4923 0.970243,0.9724 1.46875,1.4453 0.453832,0.4657 0.917562,0.9208 1.388672,1.3691 0.497155,0.512 1.007407,1.011 1.525391,1.502 0.466508,0.4786 0.942946,0.946 1.427734,1.4062 0.482008,0.4954 0.974982,0.9795 1.476563,1.4551 0.473467,0.4863 0.958814,0.9606 1.451172,1.4277 0.478278,0.4917 0.967248,0.9713 1.464844,1.4434 0.480387,0.494 0.972751,0.9749 1.472656,1.4492 0.489544,0.5035 0.990171,0.9956 1.5,1.4785 0.482607,0.4957 0.976206,0.9794 1.478516,1.4551 0.47875,0.4918 0.96863,0.9712 1.4668,1.4434 0.48566,0.4993 0.98259,0.9876 1.48828,1.4668 0.49607,0.51 1.0045,1.0072 1.52148,1.4961 0.47532,0.4878 0.96058,0.9651 1.45508,1.4336 0.48807,0.502 0.98773,0.9911 1.49609,1.4726 0.48501,0.4989 0.98126,0.9862 1.48633,1.4649 0.49478,0.5093 1.00188,1.0058 1.51758,1.4941 0.49904,0.5135 1.00897,1.0159 1.5293,1.5078 0.4819,0.4952 0.97481,0.978 1.47656,1.4531 0.50161,0.5165 1.01588,1.021 1.53906,1.5157 0.4952,0.5091 1.00137,1.0062 1.51758,1.4941 0.48997,0.5038 0.99139,0.9955 1.50195,1.4785 0.49935,0.514 1.01046,1.0155 1.53125,1.5078 0.48982,0.5041 0.99149,0.9953 1.50196,1.4785 0.51341,0.5292 1.03807,1.0466 1.57421,1.5528 0.49746,0.5115 1.00663,1.0101 1.5254,1.5 0.4904,0.5045 0.99273,0.9969 1.5039,1.4804 0.5133,0.5292 1.0381,1.0467 1.57422,1.5528 0.49624,0.5106 1.00395,1.009 1.52148,1.498 0.51119,0.5268 1.03451,1.0411 1.56836,1.5449 0.49811,0.5128 1.00772,1.013 1.52735,1.504 0.51369,0.5295 1.03953,1.0464 1.57617,1.5527 0.51165,0.5268 1.0359,1.0411 1.57031,1.5449 0.49738,0.5118 1.00649,1.012 1.52539,1.502 0.51457,0.5306 1.0424,1.0475 1.58008,1.5546 0.51445,0.5302 1.04056,1.048 1.57813,1.5547 0.50325,0.5183 1.01758,1.0256 1.54297,1.5215 0.51988,0.5364 1.05211,1.0599 1.5957,1.5723 0.51369,0.5294 1.04131,1.0448 1.57812,1.5508 0.51566,0.5315 1.04305,1.0507 1.58203,1.5586 0.51188,0.5276 1.03542,1.0425 1.57032,1.5468 0.53011,0.547 1.0721,1.0816 1.62695,1.6036 0.5077,0.5227 1.02823,1.0314 1.55859,1.5312 0.52188,0.5385 1.05565,1.064 1.60157,1.5781 0.51671,0.5331 1.04563,1.0534 1.58593,1.5625 0.52546,0.5425 1.06339,1.0722 1.61329,1.5899 0.51639,0.5328 1.0459,1.0516 1.58593,1.5605 0.53442,0.5522 1.0828,1.0907 1.64258,1.6172 0.51619,0.5324 1.04415,1.0521 1.58399,1.5606 0.5411,0.559 1.09494,1.104 1.6621,1.6367 0.51637,0.532 1.04393,1.0524 1.58399,1.5605 0.53522,0.5527 1.08377,1.0924 1.64453,1.6192 0.52236,0.5388 1.05682,1.0658 1.60352,1.58 0.53017,0.5477 1.07359,1.0814 1.6289,1.6036 0.53802,0.5558 1.09036,1.0973 1.6543,1.6269 0.52601,0.5429 1.06444,1.074 1.61523,1.5918 0.53993,0.5579 1.0921,1.1033 1.65821,1.6348 0.53492,0.5522 1.08196,1.0909 1.64257,1.6172 0.53379,0.5511 1.08122,1.09 1.64063,1.6152 0.54355,0.5615 1.09977,1.1099 1.66992,1.6445 0.17405,0.1796 0.35827,0.3488 0.53516,0.5254 H 1436.5703 V 319.63477 c -0.2831,-0.28909 -0.5609,-0.58353 -0.8515,-0.86524 -0.5182,-0.55234 -1.0501,-1.09206 -1.5938,-1.61914 -0.5151,-0.54897 -1.0436,-1.08533 -1.584,-1.60937 -0.5225,-0.55704 -1.057,-1.10141 -1.6055,-1.63282 -0.5112,-0.54431 -1.0343,-1.07586 -1.5703,-1.5957 -0.5209,-0.55502 -1.0548,-1.09733 -1.6015,-1.62695 -0.509,-0.5415 -1.031,-1.07058 -1.5645,-1.58789 -0.5077,-0.54047 -1.0265,-1.06951 -1.5586,-1.58594 -0.5221,-0.55623 -1.0576,-1.0981 -1.6054,-1.62891 -0.5019,-0.53345 -1.0136,-1.05635 -1.5391,-1.5664 -0.5136,-0.54672 -1.0397,-1.08132 -1.5781,-1.60352 -0.5084,-0.54067 -1.0279,-1.06923 -1.5606,-1.58594 -0.5111,-0.54346 -1.0347,-1.07447 -1.5703,-1.59375 -0.5132,-0.54528 -1.0383,-1.07867 -1.5762,-1.59961 -0.495,-0.52519 -0.9996,-1.04036 -1.5175,-1.54297 -0.5109,-0.54286 -1.0332,-1.07494 -1.5684,-1.59374 -0.4885,-0.51854 -0.9873,-1.02685 -1.498,-1.52344 -0.5122,-0.545 -1.0357,-1.07877 -1.5723,-1.59961 -0.5056,-0.5369 -1.0234,-1.06079 -1.5527,-1.57422 -0.5078,-0.5387 -1.0251,-1.06696 -1.5567,-1.58203 -0.4864,-0.5154 -0.9839,-1.0199 -1.4922,-1.51367 -0.4976,-0.52835 -1.0049,-1.04703 -1.5254,-1.55274 -0.5014,-0.53235 -1.0144,-1.05311 -1.539,-1.5625 -0.5008,-0.53124 -1.0112,-1.05217 -1.5352,-1.56055 -0.489,-0.51827 -0.987,-1.0269 -1.498,-1.52343 -0.4968,-0.52704 -1.004,-1.04424 -1.5235,-1.54883 -0.4923,-0.52196 -0.9951,-1.03325 -1.5097,-1.5332 -0.4997,-0.52978 -1.0087,-1.04951 -1.5313,-1.55664 -0.4817,-0.50991 -0.9736,-1.00913 -1.4765,-1.49805 -0.5019,-0.53208 -1.0143,-1.05321 -1.5391,-1.5625 -0.4782,-0.50599 -0.9638,-1.00488 -1.4629,-1.49024 -0.4946,-0.52416 -1.0007,-1.03696 -1.5176,-1.53906 -0.4843,-0.51267 -0.9767,-1.01626 -1.4824,-1.50781 -0.4933,-0.52236 -0.9963,-1.03469 -1.5117,-1.53516 -0.4701,-0.49706 -0.9493,-0.98565 -1.4395,-1.46289 -0.4993,-0.52933 -1.0073,-1.0497 -1.5293,-1.55664 -0.4789,-0.50628 -0.9671,-1.00253 -1.4668,-1.48828 -0.4773,-0.50487 -0.963,-0.99988 -1.4609,-1.48437 -0.494,-0.52293 -0.9976,-1.03601 -1.5137,-1.53711 -0.4743,-0.5009 -0.9565,-0.99377 -1.4511,-1.47461 -0.4754,-0.50246 -0.9594,-0.99619 -1.4551,-1.47852 -0.4748,-0.5021 -0.9581,-0.99452 -1.4532,-1.47656 -0.4835,-0.51168 -0.9757,-1.01498 -1.4804,-1.50586 -0.4827,-0.51001 -0.9749,-1.01067 -1.4785,-1.5 -0.4647,-0.4903 -0.936,-0.97413 -1.42,-1.44531 -0.4814,-0.50893 -0.9723,-1.00771 -1.4746,-1.4961 -0.4726,-0.49886 -0.9527,-0.98963 -1.4453,-1.46875 -0.4645,-0.49024 -0.9361,-0.97215 -1.4199,-1.44336 -0.4761,-0.50302 -0.9607,-0.99745 -1.457,-1.48046 -0.4653,-0.49115 -0.9393,-0.97323 -1.4239,-1.44532 -0.4695,-0.49595 -0.9463,-0.98438 -1.4355,-1.46094 -0.4783,-0.50496 -0.9643,-1.00145 -1.4629,-1.48632 -0.455,-0.47944 -0.9173,-0.95081 -1.3906,-1.41211 -0.4771,-0.5037 -0.9618,-0.99869 -1.459,-1.48242 -0.462,-0.48681 -0.9313,-0.96546 -1.4121,-1.4336 -0.4621,-0.48711 -0.9312,-0.96709 -1.4121,-1.43555 -0.4659,-0.49111 -0.9389,-0.97508 -1.4239,-1.44726 -0.4636,-0.48855 -0.9334,-0.96965 -1.416,-1.43945 -0.4545,-0.47873 -0.9159,-0.94942 -1.3886,-1.41016 -0.4578,-0.4825 -0.9223,-0.95761 -1.3985,-1.42187 -0.4687,-0.49421 -0.9456,-0.97998 -1.4336,-1.45508 -0.4528,-0.47663 -0.9119,-0.94741 -1.3828,-1.40625 -0.4584,-0.48285 -0.9235,-0.9592 -1.4004,-1.42383 -0.457,-0.48112 -0.9212,-0.95492 -1.3965,-1.41797 -0.4547,-0.47852 -0.9158,-0.94951 -1.3886,-1.41016 -0.4518,-0.47535 -0.9094,-0.94461 -1.3789,-1.40234 -0.4513,-0.47492 -0.9099,-0.94303 -1.3789,-1.40039 -0.4563,-0.48019 -0.9183,-0.95377 -1.3926,-1.41602 -0.4507,-0.47392 -0.9086,-0.94003 -1.377,-1.39648 -0.4498,-0.47286 -0.9057,-0.93905 -1.373,-1.39453 -0.4485,-0.47145 -0.9033,-0.93644 -1.3692,-1.39063 -0.4428,-0.46546 -0.8898,-0.92634 -1.3496,-1.375 -0.4492,-0.47257 -0.9063,-0.9373 -1.373,-1.39258 -0.4504,-0.47346 -0.9071,-0.94036 -1.375,-1.39648 -0.4364,-0.45827 -0.8773,-0.9115 -1.3301,-1.35352 -0.4494,-0.47248 -0.9043,-0.93927 -1.3711,-1.39453 -0.4423,-0.46451 -0.8905,-0.92325 -1.3496,-1.37109 -0.4367,-0.45852 -0.879,-0.91122 -1.332,-1.35352 -0.445,-0.46754 -0.8974,-0.92821 -1.3594,-1.3789 -0.4341,-0.4557 -0.8739,-0.90602 -1.3242,-1.3457 -0.4461,-0.46857 -0.8982,-0.93115 -1.3614,-1.38282 -0.4324,-0.45359 -0.8699,-0.90209 -1.3183,-1.33984 -0.4393,-0.46102 -0.8841,-0.91665 -1.3399,-1.36133 -0.4223,-0.443 -0.8495,-0.88066 -1.2871,-1.30859 -0.4517,-0.4748 -0.9097,-0.94286 -1.3789,-1.40039 -0.4269,-0.4474 -0.8583,-0.89024 -1.3008,-1.32227 -0.4282,-0.44919 -0.8607,-0.89439 -1.3046,-1.32812 -0.4407,-0.4624 -0.8885,-0.91725 -1.3457,-1.36329 -0.4219,-0.4419 -0.8482,-0.87968 -1.2852,-1.30664 -0.4339,-0.455 -0.8724,-0.90455 -1.3223,-1.34375 -0.4193,-0.43933 -0.8431,-0.87423 -1.2773,-1.29882 -0.4369,-0.45837 -0.879,-0.91117 -1.332,-1.35352 -0.4281,-0.44833 -0.8612,-0.89122 -1.3047,-1.32422 -0.4113,-0.43052 -0.8264,-0.85705 -1.252,-1.27344 -0.435,-0.45629 -0.8752,-0.90718 -1.3262,-1.34765 -0.4195,-0.43915 -0.843,-0.87436 -1.2773,-1.29883 -0.4217,-0.44166 -0.8485,-0.87786 -1.2852,-1.30469 -0.4201,-0.43989 -0.8444,-0.87558 -1.2792,-1.30078 -0.4234,-0.4433 -0.8507,-0.88215 -1.2891,-1.31055 -0.4137,-0.43283 -0.8317,-0.86067 -1.2598,-1.27929 -0.4294,-0.44966 -0.8637,-0.89378 -1.3086,-1.32813 -0.4049,-0.42311 -0.8138,-0.84241 -1.2324,-1.25195 -0.4185,-0.43804 -0.8403,-0.87139 -1.2734,-1.29492 -0.4165,-0.43576 -0.8366,-0.86766 -1.2676,-1.28907 -0.4136,-0.43241 -0.832,-0.85905 -1.2598,-1.27734 -0.4142,-0.43306 -0.8313,-0.86235 -1.2597,-1.28125 -0.4076,-0.42591 -0.8189,-0.84754 -1.2403,-1.25977 -0.4173,-0.43641 -0.8377,-0.86894 -1.2695,-1.29101 -0.4049,-0.42286 -0.814,-0.84062 -1.2324,-1.25 -0.4046,-0.42276 -0.8124,-0.84265 -1.2305,-1.25195 -0.4175,-0.43658 -0.8395,-0.86877 -1.2715,-1.29102 -0.3925,-0.40967 -0.7881,-0.81584 -1.1933,-1.21289 -0.4198,-0.43904 -0.843,-0.87425 -1.2774,-1.29883 -0.4036,-0.42103 -0.8095,-0.83838 -1.2265,-1.24609 -0.3929,-0.40985 -0.7898,-0.81565 -1.1954,-1.21289 -0.4085,-0.42686 -0.8199,-0.85046 -1.2421,-1.26367 -0.4008,-0.41821 -0.8049,-0.83318 -1.2188,-1.23829 -0.3988,-0.41619 -0.801,-0.82919 -1.2129,-1.23242 -0.4,-0.41752 -0.8036,-0.83184 -1.2168,-1.23633 -0.3964,-0.41361 -0.7957,-0.82378 -1.2051,-1.22461 -0.4034,-0.42101 -0.8097,-0.8383 -1.2265,-1.24609 -0.3925,-0.40906 -0.7883,-0.81438 -1.1934,-1.21094 -0.3933,-0.41015 -0.7893,-0.81724 -1.1953,-1.21484 -0.3936,-0.4104 -0.7891,-0.81895 -1.1953,-1.2168 -0.3928,-0.40959 -0.788,-0.81579 -1.1934,-1.21289 -0.401,-0.41812 -0.8066,-0.83122 -1.2207,-1.23633 -0.3816,-0.39727 -0.7647,-0.79221 -1.1582,-1.17773 -0.3894,-0.40595 -0.7818,-0.80943 -1.1836,-1.20312 -0.3935,-0.41018 -0.7891,-0.81716 -1.1953,-1.21485 -0.3758,-0.39137 -0.7533,-0.78017 -1.1406,-1.16015 -0.4022,-0.41954 -0.8073,-0.8357 -1.2227,-1.24219 -0.3819,-0.39741 -0.7663,-0.79206 -1.1601,-1.17774 -0.3817,-0.39728 -0.7648,-0.79215 -1.1582,-1.17773 -0.385,-0.40084 -0.773,-0.79855 -1.1699,-1.1875 -0.3794,-0.39484 -0.7595,-0.78857 -1.1504,-1.17188 -0.388,-0.4039 -0.7777,-0.80542 -1.1778,-1.19726 -0.3776,-0.39278 -0.7573,-0.78269 -1.1465,-1.16406 -0.3792,-0.39455 -0.7615,-0.78492 -1.1523,-1.16797 -0.3728,-0.38787 -0.7468,-0.77363 -1.1309,-1.15039 -0.3758,-0.3913 -0.7533,-0.78014 -1.1406,-1.16016 -0.3853,-0.40117 -0.7726,-0.80013 -1.1699,-1.18945 -0.3751,-0.38995 -0.7523,-0.77751 -1.1387,-1.15625 -0.3687,-0.38327 -0.7395,-0.76428 -1.1191,-1.13672 -0.3807,-0.39599 -0.7639,-0.78937 -1.1563,-1.17383 -0.3692,-0.38349 -0.739,-0.766 -1.1191,-1.13867 -0.3711,-0.38558 -0.7449,-0.76793 -1.127,-1.14258 -0.3673,-0.38162 -0.7352,-0.76189 -1.1132,-1.13281 -0.3643,-0.37858 -0.7306,-0.75499 -1.1055,-1.12305 -0.3813,-0.3965 -0.7653,-0.79079 -1.1582,-1.17578 -0.3493,-0.36243 -0.6996,-0.72338 -1.0586,-1.07617 -0.3824,-0.39777 -0.7661,-0.79349 -1.1602,-1.17969 -0.3568,-0.37021 -0.715,-0.73944 -1.082,-1.09961 -0.3632,-0.37719 -0.7279,-0.75235 -1.1016,-1.11914 -0.3638,-0.37781 -0.7291,-0.75371 -1.1035,-1.12109 -0.3612,-0.375 -0.7241,-0.74857 -1.0957,-1.11328 -0.3606,-0.37436 -0.7228,-0.74721 -1.0937,-1.11133 -0.3576,-0.3711 -0.7163,-0.74052 -1.084,-1.10157 -0.3598,-0.37339 -0.7199,-0.74614 -1.0899,-1.10937 -0.3599,-0.37348 -0.7216,-0.74411 -1.0918,-1.10742 -0.3524,-0.36561 -0.706,-0.73007 -1.0683,-1.08594 -0.3576,-0.37101 -0.7163,-0.74056 -1.084,-1.10156 -0.3539,-0.36697 -0.7085,-0.73268 -1.0723,-1.08985 -0.364,-0.37757 -0.729,-0.753878 -1.1035,-1.12109 -0.336,-0.347848 -0.6726,-0.694161 -1.0176,-1.033203 -0.3629,-0.376612 -0.7282,-0.750865 -1.1015,-1.117188 -0.3433,-0.35553 -0.6865,-0.710291 -1.0391,-1.05664 -0.3558,-0.368832 -0.7124,-0.736737 -1.0781,-1.095703 -0.341,-0.353073 -0.6831,-0.704801 -1.0332,-1.048828 -0.3467,-0.359332 -0.6927,-0.718379 -1.0488,-1.06836 -0.3457,-0.358206 -0.6919,-0.715533 -1.0469,-1.064453 -0.3543,-0.36708 -0.7101,-0.732513 -1.0742,-1.089844 -0.3287,-0.339999 -0.6571,-0.680088 -0.9942,-1.011719 -0.3475,-0.360314 -0.6957,-0.719366 -1.0527,-1.070312 -0.3537,-0.366406 -0.7088,-0.73118 -1.0723,-1.087891 -0.3329,-0.344166 -0.6663,-0.687837 -1.0078,-1.023437 -0.3353,-0.346996 -0.6716,-0.692943 -1.0156,-1.03125 -0.3388,-0.350797 -0.6777,-0.701041 -1.0254,-1.042969 -0.3456,-0.35779 -0.692,-0.713933 -1.0469,-1.0625 -0.3339,-0.345198 -0.6672,-0.690738 -1.0097,-1.027344 -0.3351,-0.346566 -0.6718,-0.691382 -1.0157,-1.029297 -0.3253,-0.336417 -0.6489,-0.673679 -0.9824,-1.001953 -0.3419,-0.354063 -0.6861,-0.705722 -1.0371,-1.050781 -0.3294,-0.34057 -0.6583,-0.681441 -0.9961,-1.013672 -0.3304,-0.341672 -0.6612,-0.682338 -1,-1.015625 -0.3332,-0.344597 -0.666,-0.689317 -1.0078,-1.02539 -0.3266,-0.337537 -0.6535,-0.674548 -0.9883,-1.003907 -0.3311,-0.342274 -0.6624,-0.683705 -1.0019,-1.017578 -0.3213,-0.331964 -0.6415,-0.664218 -0.9707,-0.988281 -0.3359,-0.347258 -0.673,-0.692628 -1.0176,-1.03125 -0.3114,-0.321417 -0.6226,-0.643018 -0.9414,-0.957031 -0.3368,-0.348306 -0.674,-0.695525 -1.0196,-1.035156 -0.3172,-0.327382 -0.634,-0.654904 -0.9589,-0.97461 -0.3203,-0.330741 -0.6407,-0.661454 -0.9688,-0.984375 -0.3235,-0.334228 -0.6469,-0.667893 -0.9785,-0.994141 -0.3198,-0.330153 -0.6391,-0.660054 -0.9668,-0.982421 -0.315,-0.325104 -0.6286,-0.651194 -0.9512,-0.96875 -0.3207,-0.331175 -0.6421,-0.661023 -0.9707,-0.984375 -0.316,-0.326109 -0.6314,-0.652181 -0.9551,-0.970704 -0.3191,-0.329342 -0.6379,-0.658858 -0.9648,-0.980468 -0.3084,-0.318041 -0.616,-0.636436 -0.9316,-0.947266 -0.3073,-0.317104 -0.6153,-0.633412 -0.9297,-0.943359 -0.3206,-0.331109 -0.6403,-0.663012 -0.9688,-0.986328 -0.3144,-0.324314 -0.6292,-0.648016 -0.9511,-0.964844 -0.3092,-0.318644 -0.6172,-0.6378 -0.9336,-0.949219 -0.3054,-0.314712 -0.6095,-0.62983 -0.9219,-0.9375 -0.3069,-0.316476 -0.6137,-0.632043 -0.9278,-0.941406 -0.3108,-0.320663 -0.6211,-0.641714 -0.9394,-0.955078 -0.3024,-0.311665 -0.6047,-0.622966 -0.9141,-0.927735 -0.3104,-0.320029 -0.6197,-0.640359 -0.9375,-0.953125 -0.2969,-0.305878 -0.5929,-0.612868 -0.8964,-0.912109 -0.3092,-0.318644 -0.6173,-0.637767 -0.9336,-0.949219 -0.2971,-0.30592 -0.5947,-0.610868 -0.8985,-0.910156 -0.3041,-0.313317 -0.607,-0.627226 -0.9179,-0.933594 -0.2971,-0.305924 -0.5928,-0.61281 -0.8965,-0.912109 -0.2949,-0.303674 -0.5893,-0.607145 -0.8907,-0.904297 -0.3037,-0.312976 -0.6072,-0.625586 -0.9179,-0.931641 -0.2895,-0.297929 -0.5773,-0.597018 -0.8731,-0.888671 -0.3027,-0.311859 -0.6044,-0.624695 -0.914,-0.929688 -0.2933,-0.301806 -0.587,-0.603067 -0.8868,-0.898438 -0.292,-0.300517 -0.5824,-0.602341 -0.8808,-0.896484 -0.2854,-0.293663 -0.5699,-0.58742 -0.8613,-0.875 -0.2994,-0.308311 -0.5983,-0.616353 -0.9043,-0.917969 -0.2948,-0.303124 -0.5875,-0.607651 -0.8887,-0.904297 -0.2765,-0.284208 -0.5517,-0.569142 -0.834,-0.847656 -0.2884,-0.296934 -0.5764,-0.594032 -0.8711,-0.884765 -0.2932,-0.301831 -0.5851,-0.604967 -0.8848,-0.900391 -0.2893,-0.297492 -0.5774,-0.595455 -0.873,-0.886719 -0.2744,-0.281916 -0.5481,-0.563521 -0.8281,-0.839843 -0.2896,-0.297945 -0.5773,-0.596962 -0.8731,-0.888672 -0.2854,-0.293421 -0.5698,-0.58763 -0.8613,-0.875 -0.2791,-0.286773 -0.5569,-0.574476 -0.8418,-0.855469 -0.2801,-0.287861 -0.5579,-0.577332 -0.8437,-0.859375 -0.2839,-0.291685 -0.5676,-0.583426 -0.8575,-0.869141 -0.2718,-0.279114 -0.543,-0.558385 -0.8203,-0.832031 -0.2816,-0.289389 -0.5621,-0.579762 -0.8496,-0.863281 -0.2724,-0.279771 -0.5424,-0.561654 -0.8203,-0.835938 -0.2775,-0.285122 -0.5546,-0.57018 -0.8379,-0.849609 -0.2734,-0.280794 -0.5452,-0.562618 -0.8242,-0.837891 -0.2715,-0.278735 -0.5415,-0.558734 -0.8184,-0.832031 -0.2775,-0.285036 -0.5546,-0.570258 -0.8379,-0.849609 -0.2671,-0.274034 -0.5323,-0.549582 -0.8047,-0.81836 -0.2796,-0.287014 -0.5583,-0.574215 -0.8437,-0.855469 -0.2511,-0.257394 -0.5001,-0.516771 -0.7559,-0.769531 -0.2797,-0.287409 -0.5582,-0.575775 -0.8437,-0.857422 -0.253,-0.259507 -0.504,-0.520588 -0.7617,-0.77539 -0.2798,-0.287473 -0.5582,-0.575709 -0.8438,-0.857422 -0.2559,-0.262407 -0.5107,-0.525604 -0.7715,-0.783203 -0.2651,-0.272091 -0.5285,-0.545569 -0.7988,-0.8125 -0.2735,-0.280658 -0.5452,-0.562724 -0.8242,-0.837891 -0.2442,-0.250105 -0.4858,-0.502306 -0.7344,-0.748047 -0.284,-0.291637 -0.5674,-0.583422 -0.8574,-0.86914 -0.2405,-0.246023 -0.4799,-0.492579 -0.7246,-0.734375 -0.2636,-0.270346 -0.5263,-0.541379 -0.7949,-0.806641 -0.2529,-0.259114 -0.5042,-0.518996 -0.7618,-0.773438 -0.2607,-0.267383 -0.5194,-0.536414 -0.7851,-0.798828 -0.2474,-0.253435 -0.4923,-0.508843 -0.7442,-0.757812 -0.2668,-0.273628 -0.5326,-0.547978 -0.8046,-0.816406 -0.2353,-0.24083 -0.4677,-0.483907 -0.7071,-0.720704 -0.2613,-0.268121 -0.5207,-0.537642 -0.7871,-0.800781 -0.2516,-0.257705 -0.5016,-0.5164359 -0.7578,-0.769531 -0.2512,-0.2573175 -0.502,-0.5148563 -0.7578,-0.7675781 -0.2535,-0.2595442 -0.5055,-0.5205222 -0.7637,-0.7753907 -0.2288,-0.2341185 -0.4548,-0.4708573 -0.6875,-0.7011718 -0.2687,-0.2756221 -0.5365,-0.5519012 -0.8105,-0.8222656 -0.2235,-0.2284712 -0.4448,-0.4587454 -0.6719,-0.6835938 -0.2629,-0.2696046 -0.525,-0.5401098 -0.793,-0.8046875 -0.2357,-0.2410039 -0.4692,-0.4837267 -0.709,-0.7207031 -0.2413,-0.2470476 -0.4809,-0.4954585 -0.7265,-0.7382813 -0.2432,-0.2489377 -0.4849,-0.499491 -0.7324,-0.7441406 -0.2427,-0.248227 -0.4836,-0.4982242 -0.7305,-0.7421875 -0.2293,-0.2344109 -0.4564,-0.4705627 -0.6895,-0.7011719 -0.2496,-0.2555977 -0.4977,-0.51258655 -0.7519,-0.76367185 -0.231,-0.23603008 -0.4605,-0.47290169 -0.6953,-0.70507812 -0.2357,-0.24101794 -0.4694,-0.48369789 -0.709,-0.72070313 -0.2395,-0.2449894 -0.477,-0.4915776 -0.7207,-0.7324219 -0.221,-0.2257947 -0.4396,-0.4535079 -0.6641,-0.6757812 -0.2464,-0.252247 -0.4913,-0.5060452 -0.7422,-0.7539063 -0.2177,-0.2224058 -0.4331,-0.4470247 -0.6543,-0.6660156 -0.2487,-0.2545854 -0.4967,-0.5096458 -0.75,-0.7597656 -0.2181,-0.2226676 -0.4346,-0.4467725 -0.6562,-0.6660156 -0.2274,-0.2323686 -0.4525,-0.4666649 -0.6836,-0.6953126 -0.2277,-0.2327564 -0.4521,-0.4682407 -0.6836,-0.6972656 -0.2322,-0.2372565 -0.4632,-0.4756049 -0.6992,-0.7089844 -0.2132,-0.2176959 -0.4241,-0.4379128 -0.6406,-0.6523437 -0.2396,-0.2449915 -0.477,-0.4915582 -0.7207,-0.7324219 -0.2118,-0.2160154 -0.4218,-0.4336843 -0.6368,-0.6464844 -0.2209,-0.2257034 -0.4396,-0.4535802 -0.664,-0.6757812 -0.2271,-0.231986 -0.4529,-0.465072 -0.6836,-0.693359 -0.2134,-0.217823 -0.424,-0.437785 -0.6406,-0.652344 -0.2271,-0.231975 -0.4528,-0.465081 -0.6836,-0.69336 -0.2157,-0.21998 -0.4295,-0.441549 -0.6485,-0.658203 -0.2169,-0.221304 -0.4321,-0.444171 -0.6523,-0.662109 -0.2147,-0.219032 -0.4265,-0.440514 -0.6446,-0.65625 -0.215,-0.219343 -0.4281,-0.440211 -0.6464,-0.65625 -0.2064,-0.21046 -0.4098,-0.42344 -0.6192,-0.630859 -0.2187,-0.223333 -0.436,-0.448057 -0.6582,-0.667969 -0.2111,-0.215356 -0.4204,-0.432357 -0.6347,-0.644531 -0.2099,-0.213982 -0.4179,-0.429785 -0.6309,-0.640625 -0.2092,-0.213332 -0.4166,-0.428461 -0.6289,-0.638672 -0.208,-0.212093 -0.4139,-0.425757 -0.625,-0.634766 -0.206,-0.210026 -0.4101,-0.421903 -0.6192,-0.628906 -0.2005,-0.204483 -0.3981,-0.411663 -0.6015,-0.613281 -0.2092,-0.213408 -0.4166,-0.428381 -0.6289,-0.638672 -0.2035,-0.207433 -0.405,-0.416607 -0.6113,-0.621094 -0.2029,-0.206783 -0.4036,-0.415284 -0.6094,-0.619141 -0.1958,-0.199492 -0.3894,-0.400886 -0.5879,-0.597656 -0.2121,-0.216339 -0.4214,-0.435297 -0.6367,-0.648437 -0.1994,-0.202958 -0.3975,-0.407284 -0.5996,-0.607422 -0.1936,-0.197083 -0.3858,-0.395419 -0.5821,-0.589844 -0.1958,-0.199455 -0.3893,-0.400921 -0.5879,-0.597656 -0.1964,-0.200102 -0.3906,-0.402244 -0.5898,-0.59961 -0.1936,-0.197196 -0.3838,-0.397256 -0.5801,-0.591797 -0.1958,-0.199411 -0.3894,-0.400958 -0.5879,-0.597656 -0.193,-0.196505 -0.3844,-0.394022 -0.5801,-0.58789 -0.1971,-0.200722 -0.3919,-0.403591 -0.5918,-0.601563 -0.1833,-0.186555 -0.365,-0.374416 -0.5507,-0.558594 -0.1901,-0.193527 -0.3777,-0.389105 -0.5703,-0.580078 -0.1947,-0.198144 -0.3867,-0.398283 -0.584,-0.59375 -0.1824,-0.185518 -0.3622,-0.37347 -0.5469,-0.55664 -0.1855,-0.188833 -0.3687,-0.380004 -0.5566,-0.566407 -0.1982,-0.201683 -0.3948,-0.404604 -0.5958,-0.603515 -0.171,-0.173913 -0.3404,-0.349636 -0.5136,-0.521485 -0.1837,-0.186909 -0.3648,-0.376017 -0.5508,-0.560546 -0.1898,-0.193111 -0.378,-0.387555 -0.5703,-0.578126 -0.1792,-0.182148 -0.3556,-0.366987 -0.5371,-0.546874 -0.1744,-0.177296 -0.3469,-0.356097 -0.5235,-0.53125 -0.1791,-0.182263 -0.3556,-0.366873 -0.5371,-0.546876 -0.1827,-0.185842 -0.3637,-0.373147 -0.5488,-0.55664 -0.1835,-0.186487 -0.3649,-0.374475 -0.5508,-0.558594 -0.1573,-0.15974 -0.3116,-0.322466 -0.4707,-0.480469 -0.1875,-0.190833 -0.3725,-0.383905 -0.5625,-0.572265 -0.1667,-0.16933 -0.3314,-0.340433 -0.5,-0.507813 -0.1841,-0.187165 -0.3663,-0.375762 -0.5527,-0.560547 -0.1597,-0.162054 -0.3171,-0.32606 -0.4785,-0.486328 -0.1715,-0.174327 -0.3402,-0.351174 -0.5137,-0.523437 -0.1808,-0.183796 -0.3598,-0.369281 -0.543,-0.550781 -0.1616,-0.163967 -0.321,-0.33005 -0.4843,-0.492188 -0.1687,-0.171272 -0.3352,-0.344392 -0.5059,-0.513672 -0.1648,-0.167313 -0.3275,-0.336541 -0.4941,-0.501953 -0.1642,-0.166639 -0.3262,-0.335246 -0.4922,-0.5 -0.1648,-0.167321 -0.3275,-0.336532 -0.4942,-0.501953 -0.1566,-0.159046 -0.3103,-0.321187 -0.4687,-0.478516 -0.1735,-0.176251 -0.3459,-0.353198 -0.5215,-0.527344 -0.1559,-0.158043 -0.3093,-0.318261 -0.4668,-0.474609 -0.1584,-0.160712 -0.3145,-0.323462 -0.4746,-0.482422 -0.1514,-0.153553 -0.3002,-0.308983 -0.4531,-0.460937 -0.1765,-0.179192 -0.3507,-0.360093 -0.5293,-0.53711 -0.1385,-0.140246 -0.2743,-0.282964 -0.4141,-0.421875 -0.1603,-0.162741 -0.3184,-0.327332 -0.4805,-0.488281 -0.1681,-0.170515 -0.3338,-0.343174 -0.5039,-0.511719 -0.1317,-0.133366 -0.2616,-0.268231 -0.3945,-0.40039 -0.1606,-0.163083 -0.3181,-0.32895 -0.4805,-0.490235 -0.151,-0.153141 -0.3005,-0.307431 -0.4531,-0.458984 -0.1545,-0.156696 -0.3067,-0.31567 -0.4629,-0.470703 -0.1436,-0.145551 -0.2846,-0.293384 -0.4297,-0.4375 -0.1478,-0.149836 -0.294,-0.300902 -0.4433,-0.449219 -0.1521,-0.154109 -0.3015,-0.310389 -0.4551,-0.46289 -0.1391,-0.14093 -0.2756,-0.284243 -0.416,-0.423829 -0.151,-0.153063 -0.3006,-0.307505 -0.4532,-0.458984 -0.1439,-0.145803 -0.2862,-0.293136 -0.4316,-0.4375 -0.1353,-0.136978 -0.2678,-0.276401 -0.4043,-0.412109 -0.1465,-0.148531 -0.2914,-0.298273 -0.4395,-0.445313 -0.1348,-0.136654 -0.268,-0.274765 -0.4042,-0.410156 -0.1401,-0.141931 -0.2766,-0.287164 -0.418,-0.427735 -0.1439,-0.145812 -0.2863,-0.293122 -0.4317,-0.4375 -0.1362,-0.137927 -0.2706,-0.27742 -0.4082,-0.414062 -0.13,-0.131673 -0.2574,-0.265983 -0.3886,-0.396484 -0.1339,-0.135637 -0.2653,-0.273809 -0.4004,-0.408204 -0.1537,-0.155635 -0.3057,-0.312796 -0.461,-0.466796 -0.1133,-0.114516 -0.2255,-0.230122 -0.3398,-0.34375 -0.1369,-0.138616 -0.272,-0.278697 -0.4102,-0.416016 -0.1236,-0.125125 -0.2444,-0.252886 -0.3691,-0.376953 -0.1372,-0.138939 -0.2717,-0.280332 -0.4102,-0.417969 -0.1272,-0.128716 -0.2524,-0.259121 -0.3808,-0.386719 -0.1273,-0.128714 -0.2525,-0.259123 -0.3809,-0.386718 -0.1259,-0.127389 -0.2499,-0.25652 -0.3769,-0.382813 -0.126,-0.127413 -0.2499,-0.256495 -0.377,-0.382812 -0.1227,-0.124118 -0.2434,-0.249969 -0.3672,-0.373047 -0.1233,-0.12475 -0.2447,-0.251301 -0.3691,-0.375 -0.1227,-0.124113 -0.2434,-0.249973 -0.3672,-0.373047 -0.1201,-0.121452 -0.2382,-0.244779 -0.3594,-0.365234 -0.1188,-0.120171 -0.2356,-0.242132 -0.3554,-0.361329 -0.1189,-0.120142 -0.2357,-0.242159 -0.3555,-0.361328 -0.1182,-0.11951 -0.2343,-0.240828 -0.3535,-0.359375 -0.1234,-0.124723 -0.2447,-0.251326 -0.3692,-0.375 -0.1072,-0.108298 -0.2122,-0.218665 -0.3203,-0.326172 -0.1143,-0.115521 -0.2266,-0.233034 -0.3418,-0.347656 -0.113,-0.114232 -0.2239,-0.230397 -0.3379,-0.34375 -0.1192,-0.120455 -0.2372,-0.241851 -0.3574,-0.361328 -0.098,-0.0988 -0.1944,-0.198728 -0.293,-0.296875 -0.1162,-0.117572 -0.2285,-0.238828 -0.3457,-0.355469 -0.1146,-0.115825 -0.2281,-0.232735 -0.3437,-0.347656 -0.1018,-0.10272 -0.2022,-0.206585 -0.3047,-0.308594 -0.1131,-0.114198 -0.2239,-0.23043 -0.3379,-0.34375 -0.099,-0.100071 -0.197,-0.201384 -0.2969,-0.300781 -0.104,-0.105059 -0.2057,-0.212091 -0.3105,-0.316406 -0.1167,-0.117794 -0.232,-0.236656 -0.3496,-0.353516 -0.083,-0.08338 -0.1629,-0.169038 -0.2461,-0.251953 -0.1143,-0.115541 -0.2266,-0.233013 -0.3418,-0.347656 -0.1005,-0.10139 -0.1996,-0.20399 -0.3008,-0.304688 -0.098,-0.09877 -0.1944,-0.19876 -0.293,-0.296875 -0.099,-0.09974 -0.1953,-0.201712 -0.2949,-0.300781 -0.09,-0.09091 -0.1788,-0.18308 -0.2695,-0.273438 -0.1024,-0.103361 -0.2035,-0.207903 -0.3067,-0.310546 -0.088,-0.08862 -0.1733,-0.179491 -0.2617,-0.267578 -0.1004,-0.101369 -0.1996,-0.204011 -0.3008,-0.304688 -0.092,-0.09253 -0.181,-0.187341 -0.2734,-0.279297 -0.086,-0.08631 -0.1698,-0.173959 -0.2558,-0.259765 -0.097,-0.09779 -0.1915,-0.197779 -0.2891,-0.294922 -0.089,-0.09022 -0.1775,-0.181814 -0.2676,-0.271485 -0.088,-0.08892 -0.1749,-0.179188 -0.2637,-0.267578 -0.087,-0.0876 -0.1723,-0.176591 -0.2597,-0.263672 -0.079,-0.07973 -0.1568,-0.16093 -0.2364,-0.240234 -0.092,-0.09254 -0.1811,-0.187329 -0.2734,-0.279297 -0.091,-0.0915 -0.1801,-0.184457 -0.2715,-0.275391 -0.069,-0.06958 -0.1375,-0.139728 -0.207,-0.208984 -0.094,-0.09515 -0.1863,-0.192571 -0.2813,-0.287109 -0.074,-0.07481 -0.1479,-0.15018 -0.2226,-0.22461 -0.073,-0.07353 -0.1435,-0.149492 -0.2168,-0.222656 -0.092,-0.09281 -0.1828,-0.187064 -0.2754,-0.279297 -0.07,-0.07086 -0.1402,-0.142366 -0.2109,-0.212891 -0.07,-0.06993 -0.1373,-0.141336 -0.2071,-0.210937 -0.089,-0.08991 -0.1758,-0.182119 -0.2656,-0.271484 -0.067,-0.06726 -0.132,-0.136167 -0.1992,-0.203125 -0.079,-0.0794 -0.157,-0.159303 -0.2363,-0.238282 -0.066,-0.06596 -0.1295,-0.133556 -0.1954,-0.199218 -0.071,-0.07123 -0.1398,-0.143959 -0.2109,-0.214844 -0.07,-0.07057 -0.1385,-0.142657 -0.209,-0.212891 -0.069,-0.0699 -0.1372,-0.141367 -0.207,-0.210937 -0.074,-0.07478 -0.148,-0.150202 -0.2227,-0.22461 -0.066,-0.06627 -0.131,-0.13324 -0.1972,-0.199218 -0.059,-0.0591 -0.1168,-0.118867 -0.1758,-0.177735 -0.071,-0.07185 -0.1411,-0.14529 -0.2129,-0.216797 -0.056,-0.05648 -0.1116,-0.113654 -0.168,-0.169922 -0.062,-0.06237 -0.1213,-0.127345 -0.1836,-0.189453 -0.067,-0.06793 -0.1333,-0.137462 -0.2011,-0.205078 -0.054,-0.05385 -0.1064,-0.108452 -0.1602,-0.162109 -0.065,-0.06563 -0.1298,-0.131928 -0.1953,-0.197266 -0.051,-0.05093 -0.1,-0.103546 -0.1504,-0.154297 -0.064,-0.06433 -0.1272,-0.129304 -0.1914,-0.193359 -0.049,-0.04962 -0.097,-0.100937 -0.1465,-0.150391 -0.067,-0.06759 -0.1336,-0.135841 -0.2012,-0.203125 -0.047,-0.04698 -0.094,-0.0938 -0.1406,-0.140625 -0.046,-0.04635 -0.09,-0.09442 -0.1367,-0.140625 -0.058,-0.05844 -0.1155,-0.117572 -0.1738,-0.175781 -0.043,-0.04276 -0.082,-0.08822 -0.125,-0.130859 -0.056,-0.05615 -0.1119,-0.112035 -0.168,-0.167969 -0.055,-0.05516 -0.1089,-0.111058 -0.1641,-0.166016 -0.033,-0.03326 -0.064,-0.06838 -0.098,-0.101562 -0.06,-0.05973 -0.1181,-0.120199 -0.1778,-0.179688 -0.032,-0.03162 -0.062,-0.06415 -0.094,-0.0957 -0.044,-0.04405 -0.087,-0.08889 -0.1309,-0.132812 -0.049,-0.0493 -0.097,-0.0993 -0.1464,-0.148438 -0.048,-0.04797 -0.095,-0.09672 -0.1426,-0.144531 -0.034,-0.03424 -0.067,-0.06935 -0.1016,-0.103516 -0.046,-0.04632 -0.092,-0.0925 -0.1387,-0.138671 -0.075,-0.07552 -0.1473,-0.153379 -0.2226,-0.228516 -0.029,-0.02903 -0.057,-0.05892 -0.086,-0.08789 -0.035,-0.03555 -0.07,-0.07195 -0.1054,-0.107422 -0.041,-0.04077 -0.08,-0.08239 -0.1211,-0.123047 -0.026,-0.02608 -0.052,-0.05209 -0.078,-0.07812 -0.031,-0.03131 -0.061,-0.06445 -0.092,-0.0957 -0.031,-0.0313 -0.062,-0.06251 -0.094,-0.09375 -0.029,-0.02903 -0.057,-0.05892 -0.086,-0.08789 -0.035,-0.03554 -0.07,-0.07196 -0.1055,-0.107422 -0.027,-0.02738 -0.055,-0.0547 -0.082,-0.08203 -0.02,-0.01956 -0.039,-0.03906 -0.059,-0.05859 -0.025,-0.02511 -0.049,-0.05111 -0.074,-0.07617 -0.03,-0.03032 -0.06,-0.06154 -0.09,-0.0918 -0.023,-0.02347 -0.047,-0.04688 -0.07,-0.07031 -0.011,-0.0114 -0.022,-0.02376 -0.033,-0.03516 -0.031,-0.03098 -0.061,-0.06283 -0.092,-0.09375 -0.02,-0.02021 -0.04,-0.04036 -0.06,-0.06055 -0.01,-0.0095 -0.018,-0.01982 -0.027,-0.0293 0,-0.002 0,-0.0039 -0.01,-0.0059 -0.016,-0.01601 -0.031,-0.03284 -0.047,-0.04883 v -0.0039 c -0.015,-0.01534 -0.03,-0.03155 -0.045,-0.04687 0,-0.0013 0,-0.0026 0,-0.0039 -0.022,-0.02217 -0.044,-0.04427 -0.066,-0.06641 -0.033,-0.03358 -0.066,-0.06806 -0.1,-0.101562 v -0.002 c -0.01,-0.0052 -0.01,-0.01043 -0.016,-0.01563 -0.01,-0.0059 -0.012,-0.01172 -0.018,-0.01758 -0.019,-0.01922 -0.037,-0.0394 -0.057,-0.05859 -0.01,-0.0085 -0.017,-0.01694 -0.025,-0.02539 -0.01,-0.0072 -0.014,-0.01433 -0.021,-0.02148 -0.02,-0.0199 -0.039,-0.04068 -0.059,-0.06055 -0.7091,-0.709035 -1.4354,-1.401693 -2.1778,-2.076172 0,-9.48e-4 0,-0.001 0,-0.002 -0.7424,-0.674418 -1.501,-1.332132 -2.2754,-1.970703 0,-9.07e-4 0,-0.001 0,-0.002 -0.5622,-0.463548 -1.1403,-0.905542 -1.7187,-1.34961 -0.2172,-0.16671 -0.4271,-0.341943 -0.6465,-0.505859 0,-0.0011 0,-0.0028 0,-0.0039 v -0.002 c -0.8051,-0.601313 -1.6264,-1.185165 -2.4609,-1.748047 0,-8.09e-4 0,-0.0011 0,-0.002 -0.8345,-0.562822 -1.6823,-1.105808 -2.5449,-1.628907 0,-7.52e-4 0,-0.0012 0,-0.002 -0.8627,-0.52304 -1.7395,-1.025788 -2.6289,-1.507812 0,-6.93e-4 0,-0.0013 0,-0.002 -0.8895,-0.481966 -1.7921,-0.943156 -2.7071,-1.382813 0,-6.29e-4 0,-0.0013 0,-0.002 -0.915,-0.439598 -1.842,-0.857911 -2.7812,-1.253906 0,-5.62e-4 0,-0.0014 0,-0.002 -0.9393,-0.395937 -1.8914,-0.770053 -2.8536,-1.121094 0,-4.93e-4 0,-0.0015 0,-0.002 -0.9622,-0.350982 -1.936,-0.677631 -2.9199,-0.982422 0,-4.22e-4 0,-0.0015 0,-0.002 -0.9839,-0.304732 -1.9782,-0.584551 -2.9824,-0.841797 0,-3.5e-4 0,-0.0016 0,-0.002 -5.0283,-1.287679 -10.3034,-1.972657 -15.74416,-1.972657 h -0.004 -1174.28125 z"
         transform="scale(0.26458333)" />
      <g
         id="g4958"
         style="fill:#e64b3c;fill-opacity:1">
        <path
           transform="scale(0.26458333)"
           d="m -174.57227,-97.429688 c -34.82285,0 -62.85546,28.034565 -62.85546,62.857422 V 1139.7148 c 0,34.8229 28.03261,62.8575 62.85546,62.8575 H 999.71484 c 34.82286,0 62.85746,-28.0346 62.85746,-62.8575 V -34.572266 c 0,-34.822857 -28.0346,-62.857422 -62.85746,-62.857422 z m 61.94141,68.572266 H 937.77344 C 968.92268,-28.857422 994,-3.7800965 994,27.369141 V 97.142578 H -168.85742 V 27.369141 c 0,-31.1492375 25.07732,-56.226563 56.22656,-56.226563 z M -168.85742,168.57227 H 994 V 1077.7734 C 994,1108.9227 968.92268,1134 937.77344,1134 h -1050.4043 c -31.14924,0 -56.22656,-25.0773 -56.22656,-56.2266 z"
           style="fill:#e64b3c;fill-opacity:1;stroke-width:0.999999"
           id="rect837" />
        <circle
           r="7.5595236"
           cy="8.3910675"
           cx="-23.4345"
           id="path856"
           style="fill:#e64b3c;fill-opacity:1;stroke-width:0.264583" />
        <circle
           style="fill:#e64b3c;fill-opacity:1;stroke-width:0.264583"
           id="circle858"
           cx="-1.7386657"
           cy="8.3910675"
           r="7.5595236" />
        <circle
           r="7.5595236"
           cy="8.3910675"
           cx="19.957167"
           id="circle860"
           style="fill:#e64b3c;fill-opacity:1;stroke-width:0.264583" />
        <text
           transform="matrix(13.519927,0,0,13.519927,5091.5109,-727.65954)"
           style="font-style:normal;font-variant:normal;font-weight:normal;font-stretch:normal;font-size:10.5833px;line-height:1.25;font-family:'Hobo Std';-inkscape-font-specification:'Hobo Std, Normal';font-variant-ligatures:normal;font-variant-caps:normal;font-variant-numeric:normal;font-variant-east-asian:normal;letter-spacing:0px;word-spacing:0px;white-space:pre;shape-inside:url(#rect864);fill:#e64b3c;fill-opacity:1;stroke:none;"
           id="text862"
           xml:space="preserve"><tspan
             x="-380.24414"
             y="70.82703"><tspan
               style="font-style:normal;font-variant:normal;font-weight:normal;font-stretch:normal;font-size:10.5833px;font-family:'Hobo Std';-inkscape-font-specification:'Hobo Std, Normal';font-variant-ligatures:normal;font-variant-caps:normal;font-variant-numeric:normal;font-variant-east-asian:normal;fill:#e64b3c;fill-opacity:1">&lt;//&gt;</tspan></tspan></text>
      </g>
    </g>
  </g>
</svg>
