<?xml version="1.0" encoding="UTF-8" standalone="no"?>
<!-- Created with Inkscape (http://www.inkscape.org/) -->

<svg
   width="67.73333mm"
   height="67.73333mm"
   viewBox="0 0 67.733327 67.733327"
   version="1.1"
   id="svg1"
   xml:space="preserve"
   sodipodi:docname="C1.svg"
   inkscape:export-filename="C1prova.svg"
   inkscape:export-xdpi="96"
   inkscape:export-ydpi="96"
   inkscape:version="1.3 (0e150ed6c4, 2023-07-21)"
   xmlns:inkscape="http://www.inkscape.org/namespaces/inkscape"
   xmlns:sodipodi="http://sodipodi.sourceforge.net/DTD/sodipodi-0.dtd"
   xmlns="http://www.w3.org/2000/svg"
   xmlns:svg="http://www.w3.org/2000/svg"><sodipodi:namedview
     id="namedview1"
     pagecolor="#ffffff"
     bordercolor="#999999"
     borderopacity="1"
     inkscape:showpageshadow="2"
     inkscape:pageopacity="0"
     inkscape:pagecheckerboard="0"
     inkscape:deskcolor="#d1d1d1"
     inkscape:document-units="mm"
     inkscape:zoom="1.88"
     inkscape:cx="185.90426"
     inkscape:cy="147.07447"
     inkscape:window-width="1920"
     inkscape:window-height="1001"
     inkscape:window-x="-9"
     inkscape:window-y="-9"
     inkscape:window-maximized="1"
     inkscape:current-layer="svg1"
     showguides="true"
     inkscape:lockguides="false" /><defs
     id="defs1"><rect
       x="-41.206944"
       y="122.59066"
       width="305.96155"
       height="192.64246"
       id="rect5" /><rect
       x="-410.00909"
       y="-88.594925"
       width="340.98746"
       height="180.28038"
       id="rect3" /><rect
       x="-450.18585"
       y="103.01736"
       width="407.94873"
       height="182.34071"
       id="rect2" /><rect
       x="128.7717"
       y="414.12979"
       width="302.87103"
       height="109.1984"
       id="rect1040" /><rect
       x="124.651"
       y="63.870762"
       width="290.50894"
       height="105.07771"
       id="rect3058" /></defs><path
     id="rect1-3"
     style="fill:#4bb450;fill-opacity:1;stroke-width:0.133494"
     d="M 0,0 H 67.73332 V 67.733329 H 0 Z"
     inkscape:export-filename="..\b\B6.svg"
     inkscape:export-xdpi="347.36404"
     inkscape:export-ydpi="347.36404" /><path
     id="path3740"
     style="fill:#000001;fill-opacity:0.247059;stroke-width:0.0727587"
     d="m 20.337156,9.0458516 -4.182147,11.3074314 4.961639,4.961638 c -0.465417,0.414386 -0.784438,0.990092 -0.868544,1.638687 -0.01455,0.112221 -0.02478,0.225826 -0.02478,0.341949 v 13.253241 c 0,0.36541 0.0744,0.713732 0.208722,1.030752 0.06716,0.15851 0.149348,0.309123 0.244716,0.450166 0.04313,0.0638 0.09795,0.117944 0.146316,0.177635 0.05858,0.07229 0.111671,0.149303 0.177402,0.215033 l 5.569105,5.569103 0.531036,0.531037 C 26.724815,48.266289 26.33139,48.051742 25.91561,47.89005 25.255324,47.6241 24.567543,47.49107 23.852234,47.49107 c -0.788674,0 -1.526802,0.15151 -2.2146,0.454142 -0.678626,0.29345 -1.27472,0.701553 -1.788275,1.224282 -0.504337,0.513506 -0.903483,1.114115 -1.196936,1.801828 -0.146729,0.339318 -0.256681,0.690011 -0.330028,1.05226 v 2.3e-4 c -0.07332,0.362177 -0.110087,0.735896 -0.110087,1.120973 0,0.385171 0.03674,0.759935 0.110087,1.124482 v 2.31e-4 c 0.07335,0.364469 0.183329,0.718713 0.330028,1.062544 v 2.31e-4 l 2.34e-4,2.35e-4 c 0.293441,0.678427 0.692438,1.278996 1.196702,1.801598 L 30.448586,67.733333 H 67.733333 V 29.383007 L 47.396178,9.0458516 H 44.729541 L 42.156632,16.002617 35.199867,9.0458516 H 32.533465 L 29.960322,16.002617 23.003557,9.0458516 Z" /><path
     style="fill:#f9f9f9;stroke-width:0.0727587"
     d="m 20.248104,26.953575 c -0.01455,0.112221 -0.02478,0.225825 -0.02478,0.341948 v 13.253239 c 0,1.461647 1.189178,2.650744 2.650742,2.650744 h 21.984957 c 1.461581,0 2.650747,-1.189097 2.650747,-2.650744 V 27.295523 c 0,-0.116123 -0.01022,-0.229727 -0.02479,-0.341948 z"
     id="path16" /><path
     id="path5"
     style="fill:#f44336;fill-opacity:1;stroke-width:0.0727587"
     d="m 22.874071,24.645014 c -1.345455,0 -2.457352,1.008262 -2.625966,2.30856 h 27.236891 c -0.168612,-1.300298 -1.280507,-2.30856 -2.62597,-2.30856 z" /><path
     style="fill:#798388;fill-opacity:1;stroke-width:0.0727587"
     d="m 22.518604,37.614589 h 6.608974 c 0.369208,0 0.66847,0.299269 0.66847,0.66847 0,0.369112 -0.29936,0.668237 -0.66847,0.668237 h -6.608974 c -0.369027,0 -0.668236,-0.299036 -0.668236,-0.668237 0,-0.369201 0.299209,-0.66847 0.668236,-0.66847 z"
     id="path29" /><path
     style="fill:#798388;fill-opacity:1;stroke-width:0.0727587"
     d="m 22.518604,35.236845 h 11.415648 c 0.369113,0 0.668237,0.299034 0.668237,0.668237 0,0.3692 -0.29903,0.66847 -0.668237,0.66847 H 22.518604 c -0.369026,0 -0.668236,-0.29927 -0.668236,-0.66847 0,-0.369203 0.29921,-0.668237 0.668236,-0.668237 z"
     id="path28" /><path
     style="fill:#798388;fill-opacity:1;stroke-width:0.0727587"
     d="m 28.799653,30.507301 h 0.66029 v 2.254802 h -0.66029 z"
     id="path24" /><path
     style="fill:#798388;fill-opacity:1;stroke-width:0.0727587"
     d="m 26.708931,30.507301 h 0.633176 v 1.68333 h 1.170057 v 0.571472 h -1.803233 z"
     id="path23" /><path
     id="path22"
     style="fill:#798388;fill-opacity:1;stroke-width:0.0727587"
     d="m 33.405086,30.442324 c -0.164238,0 -0.319368,0.03173 -0.465358,0.0956 -0.145991,0.06159 -0.273594,0.147143 -0.383085,0.256636 -0.10721,0.107209 -0.192764,0.233823 -0.256637,0.379813 -0.06159,0.143706 -0.09232,0.297847 -0.09232,0.462086 0,0.164236 0.03074,0.319368 0.09232,0.465358 0.06387,0.145987 0.149427,0.272601 0.256637,0.379813 0.109491,0.107209 0.237094,0.192532 0.383085,0.256402 0.14599,0.06159 0.30112,0.09256 0.465358,0.09256 0.164238,0 0.319368,-0.03097 0.465358,-0.09256 0.145988,-0.06387 0.2726,-0.149193 0.379813,-0.256402 0.109488,-0.107212 0.195046,-0.233826 0.256636,-0.379813 0.06387,-0.14599 0.09583,-0.301122 0.09583,-0.465358 0,-0.164239 -0.03196,-0.319369 -0.09583,-0.465358 -0.06159,-0.145991 -0.147148,-0.272601 -0.256636,-0.379813 -0.107213,-0.107212 -0.233825,-0.191775 -0.379813,-0.253364 -0.14599,-0.06387 -0.30112,-0.0956 -0.465358,-0.0956 z m 0,0.619153 c 0.07756,0 0.149584,0.01598 0.215733,0.04791 0.06844,0.02965 0.12646,0.07071 0.174364,0.123176 0.05019,0.05246 0.08903,0.114167 0.116398,0.184881 0.02737,0.06843 0.04114,0.141448 0.04114,0.219006 0,0.07756 -0.01377,0.151564 -0.04114,0.222278 -0.02737,0.06843 -0.06622,0.130135 -0.116398,0.184881 -0.0479,0.05247 -0.105929,0.09451 -0.174364,0.126448 -0.06615,0.02965 -0.138177,0.04464 -0.215733,0.04464 -0.07756,0 -0.150572,-0.01498 -0.219006,-0.04464 -0.06615,-0.03194 -0.124183,-0.07398 -0.174363,-0.126448 -0.0479,-0.05475 -0.08674,-0.116451 -0.116398,-0.184881 -0.02737,-0.07071 -0.04114,-0.144721 -0.04114,-0.222278 0,-0.07756 0.01377,-0.150575 0.04114,-0.219006 0.02966,-0.07071 0.06849,-0.132416 0.116398,-0.184881 0.05018,-0.05246 0.108211,-0.09352 0.174363,-0.123176 0.06843,-0.03194 0.14145,-0.04791 0.219006,-0.04791 z" /><path
     id="path21"
     style="fill:#798388;fill-opacity:1;stroke-width:0.0727587"
     d="m 25.302806,30.442324 c -0.164238,0 -0.319368,0.03173 -0.465358,0.0956 -0.14599,0.06159 -0.273827,0.147143 -0.383319,0.256636 -0.107209,0.107209 -0.192765,0.233823 -0.256636,0.379813 -0.06159,0.143706 -0.09232,0.297847 -0.09232,0.462086 0,0.164236 0.03073,0.319368 0.09232,0.465358 0.06387,0.145987 0.149427,0.272601 0.256636,0.379813 0.109492,0.107209 0.237329,0.192532 0.383319,0.256402 0.14599,0.06159 0.30112,0.09256 0.465358,0.09256 0.164237,0 0.31937,-0.03097 0.465358,-0.09256 0.14599,-0.06387 0.272368,-0.149193 0.379579,-0.256402 0.10949,-0.107212 0.195047,-0.233826 0.256636,-0.379813 0.06387,-0.14599 0.09583,-0.301122 0.09583,-0.465358 0,-0.164239 -0.03196,-0.319369 -0.09583,-0.465358 -0.06159,-0.145991 -0.147146,-0.272601 -0.256636,-0.379813 -0.107211,-0.107212 -0.233589,-0.191775 -0.379579,-0.253364 -0.145988,-0.06387 -0.301121,-0.0956 -0.465358,-0.0956 z m 0,0.619153 c 0.07756,0 0.149348,0.01598 0.2155,0.04791 0.06843,0.02965 0.12646,0.07071 0.174363,0.123176 0.05018,0.05246 0.08903,0.114167 0.116398,0.184881 0.02737,0.06843 0.04114,0.141448 0.04114,0.219006 0,0.07756 -0.01376,0.151564 -0.04114,0.222278 -0.02737,0.06843 -0.06622,0.130135 -0.116398,0.184881 -0.0479,0.05247 -0.10593,0.09451 -0.174363,0.126448 -0.06615,0.02965 -0.137945,0.04464 -0.2155,0.04464 -0.07756,0 -0.150573,-0.01498 -0.219006,-0.04464 -0.06615,-0.03194 -0.124415,-0.07398 -0.174597,-0.126448 -0.0479,-0.05475 -0.08675,-0.116451 -0.116398,-0.184881 -0.02737,-0.07071 -0.0409,-0.144721 -0.0409,-0.222278 0,-0.07756 0.01353,-0.150575 0.0409,-0.219006 0.02965,-0.07071 0.06849,-0.132416 0.116398,-0.184881 0.05018,-0.05246 0.108448,-0.09352 0.174597,-0.123176 0.06843,-0.03194 0.141449,-0.04791 0.219006,-0.04791 z" /><path
     style="fill:#798388;fill-opacity:1;stroke-width:0.0727587"
     d="m 29.771272,30.10692 h 2.275604 v 0.609103 l -0.04791,0.04791 H 31.26996 v 1.998165 h -0.721761 v -1.998165 h -0.729007 l -0.04791,-0.04791 z"
     id="path20" /><path
     id="path19"
     style="fill:#798388;fill-opacity:1;stroke-width:0.0727587"
     d="m 21.850368,30.10692 v 2.655183 h 0.71171 V 31.9375 h 0.48242 c 0.12774,0 0.249687,-0.02408 0.366023,-0.07199 0.118614,-0.05018 0.222367,-0.117309 0.311329,-0.20171 0.09124,-0.08668 0.163268,-0.187224 0.215734,-0.301279 0.05475,-0.114055 0.08204,-0.237227 0.08204,-0.369528 0,-0.130023 -0.02729,-0.249753 -0.08204,-0.359245 -0.05247,-0.109492 -0.12449,-0.202922 -0.215734,-0.280476 -0.08896,-0.07756 -0.192715,-0.138037 -0.311329,-0.181376 -0.116336,-0.04334 -0.238283,-0.06498 -0.366023,-0.06498 z m 0.728772,0.588535 h 0.413938 c 0.04106,0 0.0799,0.0079 0.116397,0.02384 0.0365,0.01369 0.06846,0.03433 0.09583,0.0617 0.02737,0.02509 0.04901,0.0546 0.06498,0.08882 0.01597,0.03422 0.02384,0.07207 0.02384,0.113125 0,0.04106 -0.0079,0.07868 -0.02384,0.112892 -0.01597,0.03422 -0.0376,0.06495 -0.06498,0.09232 -0.02737,0.02509 -0.05933,0.0455 -0.09583,0.06147 -0.03649,0.01369 -0.07534,0.02057 -0.116397,0.02057 H 22.57914 Z" /><path
     id="path1"
     style="fill:#5c6bc0;stroke-width:0.496961"
     d="m 40.918092,30.051244 c -1.646786,0 -2.981704,1.335151 -2.981704,2.981938 0,1.646781 1.334918,2.981704 2.981704,2.981704 1.646786,0 2.981703,-1.334923 2.981703,-2.981704 0,-1.646787 -1.334917,-2.981938 -2.981703,-2.981938 z m 0,6.957466 c -1.379913,0 -2.456991,0.109999 -3.264519,0.448529 -0.864588,0.362435 -1.394277,0.976891 -1.676785,1.870081 -0.104417,0.330131 0.142903,0.663328 0.485693,0.663328 h 8.90795 c 0.344194,0 0.593287,-0.33463 0.488033,-0.6666 -0.283368,-0.89324 -0.814986,-1.507422 -1.680995,-1.868912 -0.806816,-0.336791 -1.882292,-0.446426 -3.259377,-0.446426 z" /><path
     id="path196"
     style="font-size:40px;line-height:1.25;font-family:PRIMETIME;-inkscape-font-specification:'PRIMETIME, Normal';letter-spacing:0px;word-spacing:0px;white-space:pre;fill:#ffd500;stroke-width:0.3439"
     d="m 39.726764,47.793752 v 10.67472 h 2.943843 l -0.01379,-3.301446 h 1.802065 l 1.856991,3.301446 h 3.205151 l -2.503725,-4.401848 c 0.440194,-0.311804 0.784084,-0.697034 1.031689,-1.155568 0.24761,-0.458534 0.371399,-0.953695 0.371399,-1.485592 0,-0.320972 -0.05035,-0.655857 -0.151225,-1.004343 -0.09171,-0.357654 -0.229355,-0.66944 -0.412766,-0.93539 -0.146734,-0.210924 -0.325487,-0.417167 -0.536415,-0.618919 -0.210924,-0.201756 -0.440261,-0.380743 -0.687871,-0.53665 -0.247606,-0.16507 -0.504194,-0.293247 -0.77014,-0.384954 -0.26595,-0.100876 -0.527391,-0.151456 -0.784168,-0.151456 z m 2.847544,2.366059 h 1.664399 c 0.165072,0 0.320965,0.03207 0.467693,0.0963 0.146732,0.05502 0.275144,0.137471 0.385192,0.247515 0.110047,0.10088 0.197118,0.220286 0.261308,0.357848 0.0642,0.137557 0.0963,0.288827 0.0963,0.453902 0,0.16507 -0.03207,0.316346 -0.0963,0.453907 -0.06419,0.137557 -0.151261,0.261346 -0.261308,0.371395 -0.110048,0.10088 -0.23846,0.183329 -0.385192,0.247524 -0.146728,0.05502 -0.302621,0.08274 -0.467693,0.08274 h -1.664399 z" /><path
     style="font-size:40px;line-height:1.25;font-family:PRIMETIME;-inkscape-font-specification:'PRIMETIME, Normal';letter-spacing:0px;word-spacing:0px;white-space:pre;fill:#ffd500;stroke-width:0.3439"
     d="M 29.67108,58.46844 V 47.793797 h 8.514956 v 2.544857 h -5.736247 v 1.526913 h 5.406103 v 2.544857 h -5.406103 v 1.526918 h 5.736247 v 2.531098 z"
     id="path195" /><path
     style="font-size:40px;line-height:1.25;font-family:PRIMETIME;-inkscape-font-specification:'PRIMETIME, Normal';letter-spacing:0px;word-spacing:0px;white-space:pre;fill:#ffd500;stroke-width:0.3439"
     d="m 23.852298,58.798585 q -1.183015,0 -2.214714,-0.440189 -1.017942,-0.453947 -1.788278,-1.224286 -0.756579,-0.784088 -1.19677,-1.802032 -0.440192,-1.031698 -0.440192,-2.187203 0,-1.155501 0.440192,-2.173444 0.440191,-1.031698 1.19677,-1.802037 0.770336,-0.784088 1.788278,-1.224281 1.031699,-0.453948 2.214714,-0.453948 1.072967,0 2.063398,0.398926 0.990431,0.385167 1.829546,1.127987 l -2.200957,1.925839 q -0.797847,-0.563996 -1.678231,-0.563996 -0.577751,0 -1.072967,0.220097 -0.495215,0.220097 -0.852871,0.605264 -0.357655,0.385167 -0.563995,0.894141 -0.20634,0.495215 -0.20634,1.045452 0,0.563996 0.20634,1.072966 0.20634,0.495215 0.563995,0.880386 0.357656,0.371409 0.839115,0.605264 0.495216,0.220092 1.072967,0.220092 0.660288,0 1.224283,-0.302632 0.577751,-0.302631 1.004187,-0.852869 l 2.269738,1.8433 q -0.852871,1.045457 -2.02213,1.623207 -1.155503,0.563996 -2.476078,0.563996 z"
     id="text1040" /><path
     id="path194"
     style="font-size:40px;line-height:1.25;font-family:PRIMETIME;-inkscape-font-specification:'PRIMETIME, Normal';letter-spacing:0px;word-spacing:0px;white-space:pre;fill:#ffd500;stroke-width:0.364099"
     d="M 44.72954,9.0458516 40.547627,20.353282 h 3.19113 l 0.582922,-1.558985 h 3.482593 l 0.582689,1.558985 h 3.191362 L 47.396174,9.0458516 Z m 1.34068,4.1384384 0.888877,2.98708 h -1.792246 z" /><path
     id="path192"
     style="font-size:40px;line-height:1.25;font-family:PRIMETIME;-inkscape-font-specification:'PRIMETIME, Normal';letter-spacing:0px;word-spacing:0px;white-space:pre;fill:#ffd500;stroke-width:0.364099"
     d="M 32.533464,9.0458516 28.351318,20.353282 h 3.191129 l 0.582923,-1.558985 h 3.482591 l 0.582925,1.558985 h 3.191126 L 35.199866,9.0458516 Z m 1.340447,4.1384384 0.888878,2.98708 h -1.792248 z" /><path
     id="text3057"
     style="font-size:40px;line-height:1.25;font-family:PRIMETIME;-inkscape-font-specification:'PRIMETIME, Normal';letter-spacing:0px;word-spacing:0px;white-space:pre;fill:#ffd500;stroke-width:0.364099"
     d="M 20.337155,9.0458516 16.155008,20.353282 h 3.19113 l 0.582922,-1.558985 h 3.482591 l 0.582926,1.558985 h 3.191126 L 23.003557,9.0458516 Z m 1.340446,4.1384384 0.888879,2.98708 h -1.792248 z" /><text
     xml:space="preserve"
     transform="scale(0.26458333)"
     id="text2"
     style="font-size:121.763px;font-family:PRIMETIME;-inkscape-font-specification:PRIMETIME;text-align:center;white-space:pre;shape-inside:url(#rect2);display:inline;fill:#ffff00;fill-opacity:0;stroke:#000000;stroke-width:3.04252;stroke-dasharray:none" /><text
     xml:space="preserve"
     transform="scale(0.26458333)"
     id="text3"
     style="font-size:121.763px;font-family:PRIMETIME;-inkscape-font-specification:PRIMETIME;text-align:center;white-space:pre;shape-inside:url(#rect3);display:inline;fill:#ffff00;fill-opacity:0;stroke:#000000;stroke-width:3.04252;stroke-dasharray:none" /><text
     xml:space="preserve"
     transform="scale(0.26458333)"
     id="text5"
     style="font-size:121.763px;font-family:PRIMETIME;-inkscape-font-specification:PRIMETIME;text-align:center;white-space:pre;shape-inside:url(#rect5);display:inline;fill:#ffff00;fill-opacity:0;stroke:#000000;stroke-width:3.04252;stroke-dasharray:none" /></svg>
