<?xml version="1.0" encoding="UTF-8" standalone="no"?>
<!-- Created with Inkscape (http://www.inkscape.org/) -->

<svg
   width="149.75414mm"
   height="149.75417mm"
   viewBox="0 0 149.75413 149.75416"
   version="1.1"
   id="svg1"
   xml:space="preserve"
   sodipodi:docname="C1.svg"
   inkscape:export-filename="C1prova.svg"
   inkscape:export-xdpi="96"
   inkscape:export-ydpi="96"
   inkscape:version="1.3 (0e150ed6c4, 2023-07-21)"
   xmlns:inkscape="http://www.inkscape.org/namespaces/inkscape"
   xmlns:sodipodi="http://sodipodi.sourceforge.net/DTD/sodipodi-0.dtd"
   xmlns="http://www.w3.org/2000/svg"
   xmlns:svg="http://www.w3.org/2000/svg"><sodipodi:namedview
     id="namedview1"
     pagecolor="#ffffff"
     bordercolor="#999999"
     borderopacity="1"
     inkscape:showpageshadow="2"
     inkscape:pageopacity="0"
     inkscape:pagecheckerboard="0"
     inkscape:deskcolor="#d1d1d1"
     inkscape:document-units="mm"
     inkscape:zoom="0.62"
     inkscape:cx="293.54839"
     inkscape:cy="297.58065"
     inkscape:window-width="1920"
     inkscape:window-height="1001"
     inkscape:window-x="-9"
     inkscape:window-y="-9"
     inkscape:window-maximized="1"
     inkscape:current-layer="svg1"
     showguides="true"
     inkscape:lockguides="false" /><defs
     id="defs1"><rect
       x="-41.206943"
       y="122.59066"
       width="305.96155"
       height="192.64246"
       id="rect5" /><rect
       x="-410.00908"
       y="-88.594928"
       width="340.98745"
       height="180.28038"
       id="rect3" /><rect
       x="-450.18585"
       y="103.01736"
       width="407.94874"
       height="182.34072"
       id="rect2" /><rect
       x="128.7717"
       y="414.12979"
       width="302.87103"
       height="109.1984"
       id="rect1040" /><rect
       x="124.651"
       y="63.870762"
       width="290.50894"
       height="105.07771"
       id="rect3058" /></defs><path
     id="rect1-3"
     style="fill:#4bb450;fill-opacity:1;stroke-width:0.295148"
     d="M 0,0 H 149.75414 V 149.75416 H 0 Z"
     inkscape:export-filename="..\b\B6.svg"
     inkscape:export-xdpi="347.36404"
     inkscape:export-ydpi="347.36404" /><path
     id="path3740"
     style="fill:#000001;stroke-width:0.160865;fill-opacity:0.24705882"
     d="M 44.964181 19.999813 L 35.717716 44.999837 L 46.68759 55.96971 C 45.658582 56.885892 44.953246 58.15874 44.767293 59.592745 C 44.735123 59.840858 44.712516 60.092031 44.712516 60.348771 L 44.712516 89.650859 C 44.712516 90.458758 44.877008 91.228876 45.173987 91.929789 C 45.322474 92.280245 45.504186 92.61324 45.715039 92.925077 C 45.810398 93.066127 45.931591 93.185844 46.038534 93.317818 C 46.168058 93.477646 46.285432 93.647917 46.430758 93.793241 L 58.743701 106.10618 L 59.91779 107.28027 C 59.086896 106.71375 58.217059 106.2394 57.297795 105.88191 C 55.837944 105.29391 54.317304 104.99979 52.735799 104.99979 C 50.99209 104.99979 49.360135 105.33477 47.839457 106.00387 C 46.339057 106.65267 45.021132 107.55496 43.885693 108.71068 C 42.770636 109.84601 41.888149 111.17392 41.239343 112.69441 C 40.914933 113.44462 40.671836 114.21998 40.509672 115.02089 L 40.509672 115.0214 C 40.347575 115.82215 40.266276 116.64842 40.266276 117.4998 C 40.266276 118.35139 40.347508 119.17997 40.509672 119.98596 L 40.509672 119.98647 C 40.671836 120.79229 40.914999 121.5755 41.239343 122.33569 L 41.239343 122.3362 L 41.23986 122.33672 C 41.888639 123.83668 42.770796 125.1645 43.885693 126.31994 L 67.319922 149.75417 L 149.75417 149.75417 L 149.75417 64.963993 L 104.78999 19.999813 L 98.894222 19.999813 L 93.20568 35.380786 L 77.824707 19.999813 L 71.92946 19.999813 L 66.240401 35.380786 L 50.859428 19.999813 L 44.964181 19.999813 z " /><path
     style="fill:#f9f9f9;stroke-width:0.160865"
     d="m 44.767293,59.592671 c -0.03217,0.248113 -0.05478,0.499286 -0.05478,0.756026 v 29.302084 c 0,3.23161 2.629198,5.86063 5.860624,5.86063 h 48.607369 c 3.231464,0 5.860634,-2.62902 5.860634,-5.86063 V 60.348697 c 0,-0.25674 -0.0226,-0.507913 -0.0548,-0.756026 z"
     id="path16" /><path
     id="path5"
     style="fill:#f44336;fill-opacity:1;stroke-width:0.160865"
     d="m 50.573142,54.488587 c -2.974716,0 -5.433052,2.229204 -5.805847,5.104081 h 60.219065 c -0.37279,-2.874877 -2.83112,-5.104081 -5.805854,-5.104081 z" /><path
     style="fill:#798388;fill-opacity:1;stroke-width:0.160865"
     d="m 49.787227,83.163507 h 14.612028 c 0.816296,0 1.477946,0.661665 1.477946,1.477946 0,0.816083 -0.661866,1.477429 -1.477946,1.477429 H 49.787227 c -0.815895,0 -1.477429,-0.661148 -1.477429,-1.477429 0,-0.816281 0.661534,-1.477946 1.477429,-1.477946 z"
     id="path29" /><path
     style="fill:#798388;fill-opacity:1;stroke-width:0.160865"
     d="m 49.787227,77.906463 h 25.239286 c 0.816084,0 1.47743,0.661146 1.47743,1.47743 0,0.81628 -0.661138,1.477946 -1.47743,1.477946 H 49.787227 c -0.815893,0 -1.477429,-0.661666 -1.477429,-1.477946 0,-0.816284 0.661536,-1.47743 1.477429,-1.47743 z"
     id="path28" /><path
     style="fill:#798388;fill-opacity:1;stroke-width:0.160865"
     d="m 63.674235,67.449737 h 1.459859 v 4.985226 h -1.459859 z"
     id="path24" /><path
     style="fill:#798388;fill-opacity:1;stroke-width:0.160865"
     d="m 59.051778,67.449737 h 1.399914 v 3.721737 h 2.586923 v 1.263489 h -3.986837 z"
     id="path23" /><path
     id="path22"
     style="fill:#798388;fill-opacity:1;stroke-width:0.160865"
     d="m 73.856559,67.306077 c -0.36312,10e-7 -0.706103,0.07015 -1.028878,0.211356 -0.322776,0.13617 -0.604899,0.325326 -0.846977,0.567408 -0.237034,0.237032 -0.426188,0.516967 -0.567407,0.839742 -0.136162,0.317726 -0.204122,0.658521 -0.204122,1.021643 0,0.363116 0.06796,0.706102 0.204122,1.028878 0.141219,0.322769 0.330373,0.602704 0.567407,0.839742 0.242078,0.237032 0.524201,0.425676 0.846977,0.56689 0.322775,0.136169 0.665758,0.204639 1.028878,0.204639 0.36312,0 0.706103,-0.06847 1.028878,-0.204639 0.32277,-0.141214 0.602702,-0.329858 0.839742,-0.56689 0.242072,-0.237038 0.431234,-0.516973 0.567407,-0.839742 0.141213,-0.322776 0.211873,-0.665762 0.211873,-1.028878 0,-0.363122 -0.07066,-0.706104 -0.211873,-1.028878 -0.136173,-0.322776 -0.325335,-0.602704 -0.567407,-0.839742 -0.23704,-0.237038 -0.516972,-0.424003 -0.839742,-0.560173 -0.322775,-0.141215 -0.665758,-0.211356 -1.028878,-0.211356 z m 0,1.368909 c 0.171472,0 0.330721,0.03534 0.476973,0.105936 0.151304,0.06556 0.279594,0.156339 0.385507,0.272335 0.11096,0.115997 0.196838,0.252417 0.257348,0.408761 0.06051,0.151296 0.09095,0.312733 0.09095,0.484208 0,0.171473 -0.03044,0.335098 -0.09095,0.491443 -0.06052,0.151295 -0.146403,0.287721 -0.257348,0.40876 -0.105913,0.115999 -0.234203,0.20896 -0.385507,0.27957 -0.146252,0.06556 -0.305501,0.0987 -0.476973,0.0987 -0.171472,0 -0.332905,-0.03313 -0.484208,-0.0987 -0.146258,-0.07061 -0.274562,-0.163572 -0.385506,-0.27957 -0.105914,-0.12104 -0.191779,-0.257465 -0.257349,-0.40876 -0.06051,-0.156345 -0.09095,-0.31997 -0.09095,-0.491443 0,-0.171475 0.03044,-0.332912 0.09095,-0.484208 0.06557,-0.156344 0.151436,-0.292764 0.257349,-0.408761 0.110944,-0.115995 0.239248,-0.206765 0.385506,-0.272335 0.151303,-0.07061 0.312736,-0.105936 0.484208,-0.105936 z" /><path
     id="path21"
     style="fill:#798388;fill-opacity:1;stroke-width:0.160865"
     d="m 55.942924,67.306077 c -0.363121,10e-7 -0.706103,0.07015 -1.028878,0.211356 -0.322774,0.13617 -0.605413,0.325326 -0.847494,0.567408 -0.237032,0.237032 -0.426192,0.516967 -0.567407,0.839742 -0.136172,0.317726 -0.204122,0.658521 -0.204122,1.021643 0,0.363116 0.06795,0.706102 0.204122,1.028878 0.141215,0.322769 0.330375,0.602704 0.567407,0.839742 0.242081,0.237032 0.52472,0.425676 0.847494,0.56689 0.322775,0.136169 0.665757,0.204639 1.028878,0.204639 0.363117,0 0.706107,-0.06847 1.028877,-0.204639 0.322775,-0.141214 0.602188,-0.329858 0.839226,-0.56689 0.242075,-0.237038 0.431236,-0.516973 0.567407,-0.839742 0.141213,-0.322776 0.211873,-0.665762 0.211873,-1.028878 0,-0.363122 -0.07066,-0.706104 -0.211873,-1.028878 -0.136171,-0.322776 -0.325332,-0.602704 -0.567407,-0.839742 -0.237038,-0.237038 -0.516451,-0.424003 -0.839226,-0.560173 -0.32277,-0.141215 -0.66576,-0.211356 -1.028877,-0.211356 z m 0,1.368909 c 0.171469,0 0.330199,0.03534 0.476456,0.105936 0.151302,0.06556 0.279597,0.156339 0.385507,0.272335 0.110949,0.115997 0.196828,0.252417 0.257348,0.408761 0.06052,0.151296 0.09095,0.312733 0.09095,0.484208 0,0.171473 -0.03043,0.335098 -0.09095,0.491443 -0.06052,0.151295 -0.146399,0.287721 -0.257348,0.40876 -0.10591,0.115999 -0.234205,0.20896 -0.385507,0.27957 -0.146257,0.06556 -0.304987,0.0987 -0.476456,0.0987 -0.171474,0 -0.332907,-0.03313 -0.484209,-0.0987 -0.146252,-0.07061 -0.275074,-0.163572 -0.386022,-0.27957 -0.105914,-0.12104 -0.191789,-0.257465 -0.257349,-0.40876 -0.06052,-0.156345 -0.09043,-0.31997 -0.09043,-0.491443 0,-0.171475 0.02991,-0.332912 0.09043,-0.484208 0.06556,-0.156344 0.151438,-0.292764 0.257349,-0.408761 0.110948,-0.115995 0.23977,-0.206765 0.386022,-0.272335 0.151302,-0.07061 0.312735,-0.105936 0.484209,-0.105936 z" /><path
     style="fill:#798388;fill-opacity:1;stroke-width:0.160865"
     d="m 65.822424,66.56452 h 5.031217 v 1.346688 l -0.105936,0.105937 h -1.611788 v 4.417818 h -1.595768 v -4.417818 h -1.611788 l -0.105937,-0.105937 z"
     id="path20" /><path
     id="path19"
     style="fill:#798388;fill-opacity:1;stroke-width:0.160865"
     d="m 48.309798,66.56452 v 5.870443 h 1.573547 v -1.823145 h 1.066602 c 0.282423,0 0.552042,-0.05325 0.809253,-0.159163 0.262249,-0.110954 0.491639,-0.259363 0.68833,-0.445968 0.201734,-0.191648 0.360975,-0.413942 0.476973,-0.666109 0.121045,-0.252168 0.181385,-0.524494 0.181385,-0.817004 0,-0.287472 -0.06034,-0.552187 -0.181385,-0.794267 C 52.808505,67.487226 52.649264,67.280658 52.44753,67.10919 52.250839,66.937716 52.021449,66.804 51.7592,66.70818 51.501989,66.61236 51.23237,66.56452 50.949947,66.56452 Z m 1.611271,1.301213 h 0.91519 c 0.09078,0 0.176648,0.0174 0.257348,0.05271 0.08069,0.03026 0.151354,0.07591 0.211874,0.136425 0.06052,0.05548 0.10836,0.120721 0.14366,0.196371 0.03531,0.07565 0.05271,0.159334 0.05271,0.250114 0,0.09078 -0.0174,0.173947 -0.05271,0.249597 -0.0353,0.07565 -0.08314,0.143602 -0.14366,0.204122 -0.06052,0.05547 -0.131184,0.100599 -0.211874,0.135909 -0.08069,0.03026 -0.166568,0.04547 -0.257348,0.04547 h -0.91519 z" /><path
     id="path1"
     style="fill:#5c6bc0;stroke-width:1.09875"
     d="m 90.467346,66.441423 c -3.640942,0 -6.592362,2.951936 -6.592362,6.592879 0,3.640931 2.95142,6.592362 6.592362,6.592362 3.64094,0 6.59236,-2.951431 6.59236,-6.592362 0,-3.640943 -2.95142,-6.592879 -6.59236,-6.592879 z m 0,15.382523 c -3.050901,0 -5.432253,0.243202 -7.217647,0.991671 -1.911551,0.80132 -3.08266,2.159845 -3.707268,4.134631 -0.230858,0.7299 0.31595,1.466577 1.073837,1.466577 h 19.694922 c 0.76099,0 1.31172,-0.739846 1.07901,-1.473811 -0.62651,-1.974897 -1.801884,-3.332816 -3.716574,-4.132048 -1.78382,-0.744623 -4.16163,-0.98702 -7.20628,-0.98702 z" /><path
     id="path196"
     style="font-size:40px;line-height:1.25;font-family:PRIMETIME;-inkscape-font-specification:'PRIMETIME, Normal';letter-spacing:0px;word-spacing:0px;white-space:pre;fill:#ffd500;stroke-width:0.760341"
     d="m 87.833395,105.669 v 23.60114 h 6.508652 l -0.03049,-7.29929 h 3.984253 l 4.10569,7.29929 h 7.08639 l -5.53558,-9.73221 c 0.97324,-0.68938 1.73356,-1.5411 2.281,-2.55489 0.54745,-1.01379 0.82114,-2.10856 0.82114,-3.28455 0,-0.70965 -0.11132,-1.45006 -0.33435,-2.22054 -0.20276,-0.79075 -0.50709,-1.48009 -0.9126,-2.06809 -0.32442,-0.46634 -0.71963,-0.92233 -1.18598,-1.36839 -0.46634,-0.44607 -0.97339,-0.8418 -1.52084,-1.1865 -0.54744,-0.36496 -1.11474,-0.64835 -1.70273,-0.85111 -0.588,-0.22303 -1.16603,-0.33486 -1.733747,-0.33486 z m 6.295742,5.23121 h 3.679881 c 0.364964,0 0.709634,0.0709 1.034041,0.21291 0.324414,0.12165 0.608325,0.30394 0.851634,0.54724 0.243309,0.22304 0.435817,0.48704 0.577737,0.79118 0.14193,0.30413 0.21291,0.63858 0.21291,1.00355 0,0.36496 -0.0709,0.69942 -0.21291,1.00356 -0.14192,0.30413 -0.334428,0.57782 -0.577737,0.82113 -0.243309,0.22304 -0.52722,0.40533 -0.851634,0.54726 -0.324407,0.12165 -0.669077,0.18294 -1.034041,0.18294 h -3.679881 z" /><path
     style="font-size:40px;line-height:1.25;font-family:PRIMETIME;-inkscape-font-specification:'PRIMETIME, Normal';letter-spacing:0px;word-spacing:0px;white-space:pre;fill:#ffd500;stroke-width:0.760341"
     d="M 65.600906,129.27007 V 105.6691 H 84.42694 v 5.62652 H 71.744458 v 3.37591 h 11.952555 v 5.62652 H 71.744458 v 3.37592 H 84.42694 v 5.5961 z"
     id="path195" /><path
     style="font-size:40px;line-height:1.25;font-family:PRIMETIME;-inkscape-font-specification:'PRIMETIME, Normal';letter-spacing:0px;word-spacing:0px;white-space:pre;fill:#ffd500;stroke-width:0.760341"
     d="m 52.735942,130 q -2.615572,0 -4.896594,-0.97323 -2.250608,-1.00365 -3.953771,-2.70682 -1.672749,-1.73357 -2.645985,-3.98418 -0.973236,-2.28102 -0.973236,-4.83577 0,-2.55474 0.973236,-4.80535 0.973236,-2.28102 2.645985,-3.98419 1.703163,-1.73357 3.953771,-2.70681 Q 50.12037,105 52.735942,105 q 2.372263,0 4.562044,0.882 2.189781,0.85158 4.045012,2.49391 l -4.86618,4.25791 q -1.76399,-1.24696 -3.710462,-1.24696 -1.277373,0 -2.372263,0.48662 -1.094891,0.48662 -1.885645,1.3382 -0.790754,0.85158 -1.246958,1.97689 -0.456205,1.09489 -0.456205,2.31143 0,1.24696 0.456205,2.37226 0.456204,1.09489 1.246958,1.94648 0.790754,0.82116 1.855231,1.3382 1.094891,0.48661 2.372263,0.48661 1.459854,0 2.706813,-0.6691 1.277372,-0.6691 2.220194,-1.88564 l 5.018249,4.07542 q -1.885645,2.31144 -4.470803,3.58881 Q 55.65565,130 52.735942,130 Z"
     id="text1040" /><path
     id="path194"
     style="font-size:40px;line-height:1.25;font-family:PRIMETIME;-inkscape-font-specification:'PRIMETIME, Normal';letter-spacing:0px;word-spacing:0px;white-space:pre;fill:#ffd500;stroke-width:0.805"
     d="m 98.89422,19.999813 -9.245948,25.000023 h 7.055388 l 1.288805,-3.446818 h 7.699795 l 1.28829,3.446818 h 7.0559 l -9.24647,-25.000023 z m 2.96416,9.149829 1.96525,6.604248 h -3.962544 z" /><path
     id="path192"
     style="font-size:40px;line-height:1.25;font-family:PRIMETIME;-inkscape-font-specification:'PRIMETIME, Normal';letter-spacing:0px;word-spacing:0px;white-space:pre;fill:#ffd500;stroke-width:0.805"
     d="m 71.929457,19.999813 -9.246464,25.000023 h 7.055388 l 1.288805,-3.446818 h 7.699791 l 1.288812,3.446818 H 87.07117 L 77.824705,19.999813 Z m 2.963644,9.149829 1.965254,6.604248 h -3.962548 z" /><path
     id="text3057"
     style="font-size:40px;line-height:1.25;font-family:PRIMETIME;-inkscape-font-specification:'PRIMETIME, Normal';letter-spacing:0px;word-spacing:0px;white-space:pre;fill:#ffd500;stroke-width:0.805"
     d="m 44.964179,19.999813 -9.246465,25.000023 h 7.055389 l 1.288804,-3.446818 h 7.699791 l 1.288813,3.446818 h 7.05538 L 50.859427,19.999813 Z m 2.963643,9.149829 1.965255,6.604248 h -3.962548 z" /><text
     xml:space="preserve"
     transform="scale(0.26458333)"
     id="text2"
     style="font-size:121.763px;font-family:PRIMETIME;-inkscape-font-specification:PRIMETIME;text-align:center;white-space:pre;shape-inside:url(#rect2);display:inline;fill:#ffff00;fill-opacity:0;stroke:#000000;stroke-width:3.04252;stroke-dasharray:none" /><text
     xml:space="preserve"
     transform="scale(0.26458333)"
     id="text3"
     style="font-size:121.763px;font-family:PRIMETIME;-inkscape-font-specification:PRIMETIME;text-align:center;white-space:pre;shape-inside:url(#rect3);display:inline;fill:#ffff00;fill-opacity:0;stroke:#000000;stroke-width:3.04252;stroke-dasharray:none" /><text
     xml:space="preserve"
     transform="scale(0.26458333)"
     id="text5"
     style="font-size:121.763px;font-family:PRIMETIME;-inkscape-font-specification:PRIMETIME;text-align:center;white-space:pre;shape-inside:url(#rect5);display:inline;fill:#ffff00;fill-opacity:0;stroke:#000000;stroke-width:3.04252;stroke-dasharray:none" /></svg>
