<?xml version="1.0" encoding="UTF-8" standalone="no"?>
<!-- Created with Inkscape (http://www.inkscape.org/) -->

<svg
   width="67.73333mm"
   height="67.73333mm"
   viewBox="0 0 67.733327 67.733327"
   version="1.1"
   id="svg1"
   xml:space="preserve"
   sodipodi:docname="C2.svg"
   inkscape:version="1.3 (0e150ed6c4, 2023-07-21)"
   inkscape:export-filename="..\..\..\..\..\..\..\OneDrive\Documenti\Da caricare TG\amb2.png"
   inkscape:export-xdpi="1536.0001"
   inkscape:export-ydpi="1536.0001"
   xmlns:inkscape="http://www.inkscape.org/namespaces/inkscape"
   xmlns:sodipodi="http://sodipodi.sourceforge.net/DTD/sodipodi-0.dtd"
   xmlns="http://www.w3.org/2000/svg"
   xmlns:svg="http://www.w3.org/2000/svg"><sodipodi:namedview
     id="namedview1"
     pagecolor="#ffffff"
     bordercolor="#999999"
     borderopacity="1"
     inkscape:showpageshadow="2"
     inkscape:pageopacity="0"
     inkscape:pagecheckerboard="0"
     inkscape:deskcolor="#d1d1d1"
     inkscape:document-units="mm"
     inkscape:zoom="1.7791439"
     inkscape:cx="211.89967"
     inkscape:cy="128.43256"
     inkscape:window-width="1920"
     inkscape:window-height="1001"
     inkscape:window-x="-9"
     inkscape:window-y="-9"
     inkscape:window-maximized="1"
     inkscape:current-layer="svg1" /><defs
     id="defs1"><rect
       x="128.7717"
       y="414.12979"
       width="302.87103"
       height="109.1984"
       id="rect1040" /><rect
       x="124.651"
       y="63.870762"
       width="290.50894"
       height="105.07771"
       id="rect3058" /></defs><path
     id="rect1-3"
     style="fill:#4bb450;fill-opacity:1;stroke-width:0.133494"
     d="M 0,0 H 67.73332 V 67.733329 H 0 Z"
     inkscape:export-filename="..\b\C2.png"
     inkscape:export-xdpi="347.36404"
     inkscape:export-ydpi="347.36404" /><path
     id="path232"
     style="fill:#000001;fill-opacity:0.247059;stroke-width:0.0727587"
     d="m 24.443807,9.0458516 c -0.394334,0 -0.775963,0.037884 -1.145048,0.113593 -0.36909,0.075706 -0.725654,0.1892306 -1.069552,0.340546 -0.678627,0.2934597 -1.274953,0.7015574 -1.788509,1.2242824 -0.504385,0.513555 -0.903242,1.114033 -1.196702,1.801831 -0.293461,0.678626 -0.440115,1.403131 -0.440115,2.173463 0,0.770333 0.146654,1.499456 0.440115,2.187254 0.29346,0.678625 0.692317,1.279339 1.196702,1.802064 l 5.956163,5.956164 H 22.87407 c -1.345451,0 -2.457352,1.008266 -2.625966,2.308559 -0.01455,0.112221 -0.02478,0.225826 -0.02478,0.341949 v 13.253241 c 0,0.36541 0.0744,0.713732 0.208722,1.030752 0.06716,0.15851 0.149348,0.309123 0.244716,0.450166 0.04313,0.0638 0.09795,0.117944 0.146316,0.177635 0.05858,0.07229 0.111671,0.149303 0.177402,0.215033 l 9.138642,9.138643 1.523224,1.523222 -0.04067,0.110089 -4.00381,-4.003808 c -0.01089,-0.0109 -0.02387,-0.01866 -0.03483,-0.02945 -0.210544,-0.207342 -0.434997,-0.393969 -0.670106,-0.564458 -0.05084,-0.03687 -0.103212,-0.07144 -0.155197,-0.106584 C 26.511381,48.3235 26.256712,48.169389 25.98456,48.041506 25.232569,47.67468 24.434621,47.49107 23.590923,47.49107 c -0.788675,0 -1.526804,0.15151 -2.2146,0.454142 -0.678627,0.29345 -1.274719,0.701553 -1.788275,1.224282 -0.504337,0.513506 -0.903484,1.114115 -1.196936,1.801828 -0.07107,0.17195 -0.133223,0.346446 -0.186517,0.523561 -0.05329,0.177124 -0.0977,0.356704 -0.133227,0.538979 v 2.35e-4 c -0.07103,0.36447 -0.106566,0.739162 -0.106581,1.124248 v 2.3e-4 c 0,0.19717 0.0089,0.391115 0.02665,0.581993 0.01776,0.190874 0.04441,0.378491 0.07993,0.563055 v 2.36e-4 c 0.07105,0.369146 0.177599,0.725651 0.319744,1.06955 0.284289,0.678631 0.678761,1.274722 1.183146,1.788278 L 30.145904,67.733333 H 67.733333 V 29.321769 L 48.544261,10.132934 V 10.1327 C 47.920657,9.7475336 47.26498,9.4724679 46.577182,9.3073963 46.233359,9.2202944 45.887135,9.1549022 45.538717,9.1112962 h -2.35e-4 c -1.54e-4,-1.94e-5 -3.12e-4,1.9e-5 -4.66e-4,0 -0.348343,-0.043567 -0.698875,-0.065445 -1.051789,-0.065445 -0.431019,0 -0.861979,0.032104 -1.292999,0.096297 -0.431019,0.064195 -0.843734,0.1743604 -1.238072,0.3302617 -0.385166,0.1558999 -0.738297,0.37138 -1.059268,0.6464991 -0.237873,0.203891 -0.442597,0.448493 -0.614946,0.73298 L 38.777585,9.3485332 H 30.262536 V 12.498524 L 28.336828,10.572815 C 27.777419,10.077601 27.167468,9.7016074 26.507182,9.4448303 25.846898,9.1788812 25.159115,9.0458516 24.443807,9.0458516 Z" /><path
     style="fill:#f9f9f9;stroke-width:0.0727587"
     d="m 20.248104,26.953575 c -0.01455,0.112221 -0.02478,0.225825 -0.02478,0.341948 v 13.253239 c 0,1.461647 1.189178,2.650744 2.650742,2.650744 h 21.984957 c 1.461581,0 2.650747,-1.189097 2.650747,-2.650744 V 27.295523 c 0,-0.116123 -0.01022,-0.229727 -0.02479,-0.341948 z"
     id="path16" /><path
     id="path5"
     style="fill:#f44336;fill-opacity:1;stroke-width:0.0727587"
     d="m 22.874071,24.645014 c -1.345455,0 -2.457352,1.008262 -2.625966,2.30856 h 27.236891 c -0.168612,-1.300298 -1.280507,-2.30856 -2.62597,-2.30856 z" /><path
     style="fill:#798388;fill-opacity:1;stroke-width:0.0727587"
     d="m 22.518604,37.614589 h 6.608974 c 0.369208,0 0.66847,0.299269 0.66847,0.66847 0,0.369112 -0.29936,0.668237 -0.66847,0.668237 h -6.608974 c -0.369027,0 -0.668236,-0.299036 -0.668236,-0.668237 0,-0.369201 0.299209,-0.66847 0.668236,-0.66847 z"
     id="path29" /><path
     style="fill:#798388;fill-opacity:1;stroke-width:0.0727587"
     d="m 22.518604,35.236845 h 11.415648 c 0.369113,0 0.668237,0.299034 0.668237,0.668237 0,0.3692 -0.29903,0.66847 -0.668237,0.66847 H 22.518604 c -0.369026,0 -0.668236,-0.29927 -0.668236,-0.66847 0,-0.369203 0.29921,-0.668237 0.668236,-0.668237 z"
     id="path28" /><path
     style="fill:#798388;fill-opacity:1;stroke-width:0.0727587"
     d="m 28.799653,30.507301 h 0.66029 v 2.254802 h -0.66029 z"
     id="path24" /><path
     style="fill:#798388;fill-opacity:1;stroke-width:0.0727587"
     d="m 26.708931,30.507301 h 0.633176 v 1.68333 h 1.170057 v 0.571472 h -1.803233 z"
     id="path23" /><path
     id="path22"
     style="fill:#798388;fill-opacity:1;stroke-width:0.0727587"
     d="m 33.405086,30.442324 c -0.164238,0 -0.319368,0.03173 -0.465358,0.0956 -0.145991,0.06159 -0.273594,0.147143 -0.383085,0.256636 -0.10721,0.107209 -0.192764,0.233823 -0.256637,0.379813 -0.06159,0.143706 -0.09232,0.297847 -0.09232,0.462086 0,0.164236 0.03074,0.319368 0.09232,0.465358 0.06387,0.145987 0.149427,0.272601 0.256637,0.379813 0.109491,0.107209 0.237094,0.192532 0.383085,0.256402 0.14599,0.06159 0.30112,0.09256 0.465358,0.09256 0.164238,0 0.319368,-0.03097 0.465358,-0.09256 0.145988,-0.06387 0.2726,-0.149193 0.379813,-0.256402 0.109488,-0.107212 0.195046,-0.233826 0.256636,-0.379813 0.06387,-0.14599 0.09583,-0.301122 0.09583,-0.465358 0,-0.164239 -0.03196,-0.319369 -0.09583,-0.465358 -0.06159,-0.145991 -0.147148,-0.272601 -0.256636,-0.379813 -0.107213,-0.107212 -0.233825,-0.191775 -0.379813,-0.253364 -0.14599,-0.06387 -0.30112,-0.0956 -0.465358,-0.0956 z m 0,0.619153 c 0.07756,0 0.149584,0.01598 0.215733,0.04791 0.06844,0.02965 0.12646,0.07071 0.174364,0.123176 0.05019,0.05246 0.08903,0.114167 0.116398,0.184881 0.02737,0.06843 0.04114,0.141448 0.04114,0.219006 0,0.07756 -0.01377,0.151564 -0.04114,0.222278 -0.02737,0.06843 -0.06622,0.130135 -0.116398,0.184881 -0.0479,0.05247 -0.105929,0.09451 -0.174364,0.126448 -0.06615,0.02965 -0.138177,0.04464 -0.215733,0.04464 -0.07756,0 -0.150572,-0.01498 -0.219006,-0.04464 -0.06615,-0.03194 -0.124183,-0.07398 -0.174363,-0.126448 -0.0479,-0.05475 -0.08674,-0.116451 -0.116398,-0.184881 -0.02737,-0.07071 -0.04114,-0.144721 -0.04114,-0.222278 0,-0.07756 0.01377,-0.150575 0.04114,-0.219006 0.02966,-0.07071 0.06849,-0.132416 0.116398,-0.184881 0.05018,-0.05246 0.108211,-0.09352 0.174363,-0.123176 0.06843,-0.03194 0.14145,-0.04791 0.219006,-0.04791 z" /><path
     id="path21"
     style="fill:#798388;fill-opacity:1;stroke-width:0.0727587"
     d="m 25.302806,30.442324 c -0.164238,0 -0.319368,0.03173 -0.465358,0.0956 -0.14599,0.06159 -0.273827,0.147143 -0.383319,0.256636 -0.107209,0.107209 -0.192765,0.233823 -0.256636,0.379813 -0.06159,0.143706 -0.09232,0.297847 -0.09232,0.462086 0,0.164236 0.03073,0.319368 0.09232,0.465358 0.06387,0.145987 0.149427,0.272601 0.256636,0.379813 0.109492,0.107209 0.237329,0.192532 0.383319,0.256402 0.14599,0.06159 0.30112,0.09256 0.465358,0.09256 0.164237,0 0.31937,-0.03097 0.465358,-0.09256 0.14599,-0.06387 0.272368,-0.149193 0.379579,-0.256402 0.10949,-0.107212 0.195047,-0.233826 0.256636,-0.379813 0.06387,-0.14599 0.09583,-0.301122 0.09583,-0.465358 0,-0.164239 -0.03196,-0.319369 -0.09583,-0.465358 -0.06159,-0.145991 -0.147146,-0.272601 -0.256636,-0.379813 -0.107211,-0.107212 -0.233589,-0.191775 -0.379579,-0.253364 -0.145988,-0.06387 -0.301121,-0.0956 -0.465358,-0.0956 z m 0,0.619153 c 0.07756,0 0.149348,0.01598 0.2155,0.04791 0.06843,0.02965 0.12646,0.07071 0.174363,0.123176 0.05018,0.05246 0.08903,0.114167 0.116398,0.184881 0.02737,0.06843 0.04114,0.141448 0.04114,0.219006 0,0.07756 -0.01376,0.151564 -0.04114,0.222278 -0.02737,0.06843 -0.06622,0.130135 -0.116398,0.184881 -0.0479,0.05247 -0.10593,0.09451 -0.174363,0.126448 -0.06615,0.02965 -0.137945,0.04464 -0.2155,0.04464 -0.07756,0 -0.150573,-0.01498 -0.219006,-0.04464 -0.06615,-0.03194 -0.124415,-0.07398 -0.174597,-0.126448 -0.0479,-0.05475 -0.08675,-0.116451 -0.116398,-0.184881 -0.02737,-0.07071 -0.0409,-0.144721 -0.0409,-0.222278 0,-0.07756 0.01353,-0.150575 0.0409,-0.219006 0.02965,-0.07071 0.06849,-0.132416 0.116398,-0.184881 0.05018,-0.05246 0.108448,-0.09352 0.174597,-0.123176 0.06843,-0.03194 0.141449,-0.04791 0.219006,-0.04791 z" /><path
     style="fill:#798388;fill-opacity:1;stroke-width:0.0727587"
     d="m 29.771272,30.10692 h 2.275604 v 0.609103 l -0.04791,0.04791 H 31.26996 v 1.998165 h -0.721761 v -1.998165 h -0.729007 l -0.04791,-0.04791 z"
     id="path20" /><path
     id="path19"
     style="fill:#798388;fill-opacity:1;stroke-width:0.0727587"
     d="m 21.850368,30.10692 v 2.655183 h 0.71171 V 31.9375 h 0.48242 c 0.12774,0 0.249687,-0.02408 0.366023,-0.07199 0.118614,-0.05018 0.222367,-0.117309 0.311329,-0.20171 0.09124,-0.08668 0.163268,-0.187224 0.215734,-0.301279 0.05475,-0.114055 0.08204,-0.237227 0.08204,-0.369528 0,-0.130023 -0.02729,-0.249753 -0.08204,-0.359245 -0.05247,-0.109492 -0.12449,-0.202922 -0.215734,-0.280476 -0.08896,-0.07756 -0.192715,-0.138037 -0.311329,-0.181376 -0.116336,-0.04334 -0.238283,-0.06498 -0.366023,-0.06498 z m 0.728772,0.588535 h 0.413938 c 0.04106,0 0.0799,0.0079 0.116397,0.02384 0.0365,0.01369 0.06846,0.03433 0.09583,0.0617 0.02737,0.02509 0.04901,0.0546 0.06498,0.08882 0.01597,0.03422 0.02384,0.07207 0.02384,0.113125 0,0.04106 -0.0079,0.07868 -0.02384,0.112892 -0.01597,0.03422 -0.0376,0.06495 -0.06498,0.09232 -0.02737,0.02509 -0.05933,0.0455 -0.09583,0.06147 -0.03649,0.01369 -0.07534,0.02057 -0.116397,0.02057 H 22.57914 Z" /><path
     id="path1"
     style="fill:#5c6bc0;stroke-width:0.496961"
     d="m 40.918092,30.051244 c -1.646786,0 -2.981704,1.335151 -2.981704,2.981938 0,1.646781 1.334918,2.981704 2.981704,2.981704 1.646786,0 2.981703,-1.334923 2.981703,-2.981704 0,-1.646787 -1.334917,-2.981938 -2.981703,-2.981938 z m 0,6.957466 c -1.379913,0 -2.456991,0.109999 -3.264519,0.448529 -0.864588,0.362435 -1.394277,0.976891 -1.676785,1.870081 -0.104417,0.330131 0.142903,0.663328 0.485693,0.663328 h 8.90795 c 0.344194,0 0.593287,-0.33463 0.488033,-0.6666 -0.283368,-0.89324 -0.814986,-1.507422 -1.680995,-1.868912 -0.806816,-0.336791 -1.882292,-0.446426 -3.259377,-0.446426 z" /><path
     style="font-size:40px;line-height:1.25;font-family:PRIMETIME;-inkscape-font-specification:'PRIMETIME, Normal';letter-spacing:0px;word-spacing:0px;white-space:pre;fill:#ffd500;stroke-width:0.3439"
     d="M 41.198601,58.468442 V 47.793797 h 2.957537 v 8.033496 h 5.612442 v 2.641149 z"
     id="path7" /><path
     id="path4"
     style="font-size:40px;line-height:1.25;font-family:PRIMETIME;-inkscape-font-specification:'PRIMETIME, Normal';letter-spacing:0px;word-spacing:0px;white-space:pre;fill:#ffd500;stroke-width:0.3439"
     d="m 33.619146,47.793753 -3.947947,10.67472 h 3.012553 l 0.550206,-1.472035 h 3.287656 l 0.550202,1.472035 h 3.012557 l -3.947947,-10.67472 z m 1.265416,3.906809 0.839095,2.819964 h -1.691976 z" /><path
     style="font-size:40px;line-height:1.25;font-family:PRIMETIME;-inkscape-font-specification:'PRIMETIME, Normal';letter-spacing:0px;word-spacing:0px;white-space:pre;fill:#ffd500;stroke-width:0.3439"
     d="M 26.190817,58.468442 V 58.16581 q -1.238038,0.632776 -2.613637,0.632776 -1.196771,0 -2.22847,-0.440192 -1.017943,-0.440191 -1.774522,-1.196771 -0.756579,-0.770335 -1.183015,-1.788278 -0.426435,-1.031699 -0.426435,-2.214713 0,-1.155503 0.426435,-2.187202 0.440192,-1.031699 1.196771,-1.802034 0.770335,-0.784091 1.788278,-1.224283 1.031699,-0.453947 2.214714,-0.453947 1.265551,0 2.393541,0.550239 1.141747,0.536483 1.980862,1.526914 l -2.338517,1.554427 q -0.426436,-0.426436 -0.949163,-0.646532 -0.508972,-0.233851 -1.086723,-0.233851 -0.605263,0 -1.127991,0.247607 -0.508971,0.233852 -0.894139,0.632776 -0.371412,0.398923 -0.591507,0.935407 -0.20634,0.522727 -0.20634,1.114235 0,0.591507 0.20634,1.12799 0.220095,0.536484 0.605263,0.935407 0.385168,0.398924 0.894139,0.646532 0.522728,0.233852 1.127991,0.233852 0.646531,0 1.224283,-0.288876 0.591507,-0.288876 0.990431,-0.811603 h -1.88457 v -2.57237 h 4.690791 v 6.025122 z"
     id="text1040" /><path
     d="m 24.443806,20.353355 q -1.183015,0 -2.214714,-0.440191 -1.017942,-0.453948 -1.788278,-1.224283 -0.756579,-0.784091 -1.19677,-1.802033 -0.440192,-1.031699 -0.440192,-2.187201 0,-1.155503 0.440192,-2.173446 0.440191,-1.031699 1.19677,-1.802034 0.770336,-0.7840914 1.788278,-1.224283 1.031699,-0.4539475 2.214714,-0.4539475 1.072967,0 2.063398,0.3989236 0.990431,0.3851676 1.829546,1.1279909 l -2.200958,1.925838 q -0.797847,-0.563996 -1.67823,-0.563996 -0.577751,0 -1.072967,0.220096 -0.495215,0.220096 -0.852871,0.605264 -0.357655,0.385167 -0.563995,0.894139 -0.20634,0.495215 -0.20634,1.045455 0,0.563995 0.20634,1.072966 0.20634,0.495216 0.563995,0.880384 0.357656,0.371411 0.839115,0.605263 0.495216,0.220094 1.072967,0.220094 0.660287,0 1.224283,-0.30263 0.577751,-0.302632 1.004187,-0.852871 l 2.269737,1.843301 q -0.852871,1.045455 -2.022129,1.623206 -1.155503,0.563995 -2.476078,0.563995 z m 5.818782,-0.330143 V 9.3485682 h 8.514955 V 11.893426 H 33.041297 V 13.42034 H 38.4474 v 2.544857 h -5.406103 v 1.526913 h 5.736246 v 2.531102 z m 13.838529,0.330143 q -1.072967,0 -2.132178,-0.261363 -1.045455,-0.247608 -2.008374,-0.701556 -0.02751,0 -0.13756,-0.05502 -0.110048,-0.06878 -0.110048,-0.09629 0,-0.01376 0.05502,-0.110047 0.05502,-0.09629 0.13756,-0.233852 0.08254,-0.151316 0.192584,-0.330144 0.110048,-0.192584 0.220095,-0.385167 0.233852,-0.385168 0.440192,-0.729068 0.20634,-0.343898 0.288876,-0.495214 0.178828,0.06878 0.343899,0.165072 0.742824,0.37141 1.485647,0.57775 0.756579,0.192584 1.595694,0.192584 0.233852,0 0.495216,-0.01376 0.275119,-0.02751 0.495215,-0.110048 0.220096,-0.08254 0.357656,-0.247608 0.151316,-0.178828 0.151316,-0.495214 0,-0.151316 -0.08254,-0.261364 -0.08254,-0.123803 -0.20634,-0.206339 -0.123804,-0.09629 -0.261364,-0.165072 -0.13756,-0.06878 -0.261364,-0.110048 -0.288875,-0.110048 -0.591507,-0.165072 -0.302632,-0.05502 -0.605263,-0.123804 -0.398924,-0.09629 -0.784091,-0.178828 -0.385168,-0.08254 -0.742824,-0.192583 -0.371411,-0.110048 -0.715311,-0.233852 -0.330144,-0.13756 -0.619019,-0.316388 -0.591508,-0.357655 -0.949163,-0.949163 -0.3439,-0.605263 -0.3439,-1.595694 0,-0.3439 0.06878,-0.687799 0.08254,-0.357656 0.233852,-0.674044 0.302631,-0.632775 0.784091,-1.045455 0.481459,-0.4126792 1.059211,-0.646531 0.591507,-0.2338517 1.238038,-0.3301436 0.646532,-0.096292 1.293063,-0.096292 1.059211,0 2.09091,0.2613637 1.031699,0.2476078 1.967106,0.8253589 -0.3439,0.577752 -0.674043,1.141747 -0.316388,0.55024 -0.646532,1.127991 -0.797847,-0.385168 -1.554426,-0.632775 -0.742823,-0.247608 -1.60945,-0.247608 -0.20634,0 -0.440192,0.02751 -0.220096,0.01376 -0.41268,0.09629 -0.192583,0.08254 -0.316387,0.247608 -0.123804,0.151315 -0.123804,0.412679 0,0.192584 0.08254,0.330144 0.09629,0.151316 0.343899,0.275119 0.261364,0.110048 0.632776,0.20634 0.371411,0.09629 0.811603,0.192584 0.440192,0.08254 0.921651,0.20634 0.467704,0.123804 0.935407,0.288876 0.48146,0.151315 0.894139,0.385167 0.426436,0.220096 0.756579,0.536484 0.330144,0.302631 0.522728,0.729067 0.151316,0.316387 0.20634,0.687799 0.05502,0.357656 0.05502,0.715311 0,1.045454 -0.426436,1.719497 -0.426436,0.674043 -1.114235,1.072967 -0.687799,0.385168 -1.554426,0.536483 -0.866627,0.165072 -1.733254,0.165072 z"
     id="text3057"
     style="font-size:40px;line-height:1.25;font-family:PRIMETIME;-inkscape-font-specification:'PRIMETIME, Normal';letter-spacing:0px;word-spacing:0px;white-space:pre;fill:#ffd500;stroke-width:0.3439"
     aria-label="CES" /></svg>
