<?xml version="1.0" encoding="UTF-8" standalone="no"?>
<!-- Created with Inkscape (http://www.inkscape.org/) -->

<svg
   width="149.75414mm"
   height="149.75417mm"
   viewBox="0 0 149.75413 149.75416"
   version="1.1"
   id="svg1"
   xml:space="preserve"
   sodipodi:docname="template-matricole-a.svg"
   xmlns:inkscape="http://www.inkscape.org/namespaces/inkscape"
   xmlns:sodipodi="http://sodipodi.sourceforge.net/DTD/sodipodi-0.dtd"
   xmlns="http://www.w3.org/2000/svg"
   xmlns:svg="http://www.w3.org/2000/svg"><sodipodi:namedview
     id="namedview1"
     pagecolor="#ffffff"
     bordercolor="#999999"
     borderopacity="1"
     inkscape:showpageshadow="2"
     inkscape:pageopacity="0"
     inkscape:pagecheckerboard="0"
     inkscape:deskcolor="#d1d1d1"
     inkscape:document-units="mm"
     inkscape:zoom="0.9707102"
     inkscape:cx="222.51749"
     inkscape:cy="366.22671"
     inkscape:window-width="1920"
     inkscape:window-height="991"
     inkscape:window-x="-9"
     inkscape:window-y="-9"
     inkscape:window-maximized="1"
     inkscape:current-layer="svg1" /><defs
     id="defs1"><rect
       x="128.7717"
       y="414.12979"
       width="302.87103"
       height="109.1984"
       id="rect1040" /><rect
       x="124.651"
       y="63.870762"
       width="290.50894"
       height="105.07771"
       id="rect3058" /></defs><path
     id="rect1-3"
     style="fill:#4bb450;fill-opacity:1;stroke-width:0.295148"
     d="M 0,0 H 149.75414 V 149.75416 H 0 Z"
     inkscape:export-filename="..\b\C2.svg"
     inkscape:export-xdpi="347.36404"
     inkscape:export-ydpi="347.36404" /><path
     id="path8606"
     style="font-size:40px;line-height:1.25;font-family:PRIMETIME;-inkscape-font-specification:'PRIMETIME, Normal';letter-spacing:0px;word-spacing:0px;white-space:pre;fill:#000000;fill-opacity:0.31"
     d="m 49.694641,19.999813 c -1.743698,0 -3.37616,0.334974 -4.896859,1.004073 h -5.16e-4 c -1.500199,0.648799 -2.817849,1.551213 -3.953247,2.706811 l -5.17e-4,5.17e-4 c -1.114999,1.135299 -1.996617,2.462821 -2.645317,3.98322 v 5.16e-4 c -0.628499,1.520499 -0.942578,3.132466 -0.942578,4.835364 v 5.17e-4 c 1e-4,1.743498 0.314079,3.375843 0.942578,4.896342 v 5.17e-4 c 0.490168,1.170006 1.133607,2.225405 1.91978,3.173449 0.07033,0.08968 0.140559,0.179396 0.213423,0.267167 0.06824,0.08693 0.136597,0.173761 0.207223,0.258899 0.06838,0.08716 0.136442,0.174569 0.207222,0.259933 0.06979,0.089 0.139591,0.177975 0.211874,0.2651 0.06907,0.08802 0.137776,0.17633 0.209289,0.262516 0.06888,0.0878 0.137977,0.175512 0.20929,0.261483 0.06853,0.08735 0.136799,0.174903 0.207739,0.260449 0.07017,0.08947 0.140213,0.179072 0.212907,0.266651 0.06779,0.08636 0.135533,0.172755 0.205672,0.257348 0.06963,0.08881 0.139236,0.177645 0.211357,0.264584 0.06982,0.08899 0.139558,0.177984 0.211873,0.2651 0.06764,0.08617 0.135168,0.172424 0.205156,0.256832 0.06978,0.089 0.139592,0.177973 0.211873,0.2651 0.06908,0.08803 0.137767,0.176317 0.20929,0.262516 0.0689,0.08781 0.137957,0.175499 0.209289,0.261483 0.06853,0.08735 0.136801,0.174902 0.207739,0.260449 0.07033,0.08968 0.14056,0.179391 0.213424,0.267167 0.06764,0.08617 0.13517,0.172427 0.205155,0.256832 0.06963,0.08881 0.139236,0.177645 0.211357,0.264583 0.06981,0.08898 0.139566,0.177993 0.211873,0.2651 0.06764,0.08617 0.135169,0.172427 0.205156,0.256832 0.06979,0.089 0.139588,0.177973 0.211873,0.2651 0.06923,0.08823 0.138126,0.176649 0.209807,0.263033 0.06874,0.0876 0.137609,0.175181 0.208772,0.260966 0.06853,0.08735 0.136802,0.174907 0.20774,0.26045 0.07032,0.08967 0.14057,0.179403 0.213423,0.267167 0.06764,0.08617 0.135169,0.172424 0.205156,0.256832 0.06963,0.0888 0.139236,0.177647 0.211356,0.264583 0.06982,0.08899 0.139556,0.177982 0.211874,0.2651 0.06764,0.08617 0.13517,0.172424 0.205155,0.256832 0.06979,0.089 0.139588,0.177975 0.211873,0.2651 0.06908,0.08804 0.13777,0.176315 0.20929,0.262516 0.0689,0.08781 0.137958,0.175495 0.20929,0.261483 0.06838,0.08716 0.136442,0.174569 0.207222,0.259932 0.07046,0.08986 0.140933,0.179738 0.21394,0.267684 0.06764,0.08617 0.135169,0.172425 0.205156,0.256832 0.06963,0.08881 0.139238,0.177645 0.211357,0.264584 0.06914,0.08813 0.138214,0.176227 0.209806,0.262516 0.06899,0.08792 0.137863,0.175905 0.209289,0.261999 0.06913,0.08812 0.138226,0.176239 0.209807,0.262517 0.0684,0.08717 0.136425,0.17456 0.207222,0.259932 0.07032,0.08968 0.140565,0.179394 0.213424,0.267167 0.06764,0.08617 0.135168,0.172425 0.205155,0.256832 0.06977,0.08898 0.139605,0.177991 0.211874,0.2651 0.06907,0.08803 0.137776,0.176327 0.209289,0.262516 0.06874,0.08762 0.137608,0.175167 0.208773,0.260966 0.06927,0.08831 0.138588,0.17657 0.210323,0.263033 0.06899,0.08792 0.137861,0.175907 0.20929,0.262 0.06898,0.08793 0.137869,0.175904 0.209289,0.262 0.06853,0.08735 0.136799,0.174902 0.207739,0.260449 0.07032,0.08967 0.140573,0.179403 0.213424,0.267167 0.06764,0.08617 0.135168,0.172422 0.205156,0.256832 0.06977,0.08898 0.1396,0.177991 0.211873,0.2651 0.06923,0.08823 0.138124,0.176649 0.209806,0.263033 0.0686,0.08742 0.137243,0.174837 0.208256,0.260449 0.06927,0.08831 0.138589,0.17657 0.210323,0.263033 0.06908,0.08804 0.137768,0.176315 0.20929,0.262516 0.0689,0.08781 0.137959,0.175497 0.209289,0.261483 0.06853,0.08736 0.1368,0.1749 0.20774,0.260449 0.07032,0.08967 0.140563,0.179397 0.213423,0.267168 0.06764,0.08617 0.135169,0.172424 0.205156,0.256831 0.06977,0.08899 0.139602,0.177989 0.211873,0.265101 0.06923,0.08823 0.138124,0.176648 0.209806,0.263033 0.0686,0.08742 0.137243,0.174835 0.208257,0.260449 0.06867,0.08755 0.137163,0.175235 0.208256,0.260966 0.07033,0.08968 0.140559,0.179391 0.213423,0.267167 0.06824,0.08693 0.136593,0.17376 0.207223,0.258899 0.06853,0.08735 0.136799,0.174904 0.207739,0.260449 0.07033,0.08969 0.140556,0.179383 0.213424,0.267167 0.06764,0.08617 0.135168,0.172425 0.205155,0.256832 0.06977,0.08898 0.139603,0.177991 0.211873,0.2651 0.06923,0.08823 0.138126,0.176647 0.209807,0.263033 0.06874,0.0876 0.137609,0.175181 0.208773,0.260966 0.06898,0.08793 0.137866,0.175905 0.209289,0.262 0.06921,0.08822 0.138141,0.17666 0.209806,0.263033 0.0689,0.08782 0.137958,0.175492 0.20929,0.261482 0.06853,0.08735 0.136799,0.174903 0.207739,0.26045 0.06964,0.0888 0.139229,0.177646 0.211357,0.264583 0.06907,0.08803 0.137778,0.176323 0.209289,0.262516 0.06889,0.0878 0.137972,0.175512 0.20929,0.261483 0.06854,0.08735 0.136797,0.174903 0.207739,0.260449 0.07031,0.08966 0.14058,0.179412 0.213424,0.267167 0.06824,0.08693 0.136595,0.173758 0.207222,0.258899 0.06853,0.08735 0.136799,0.174903 0.20774,0.26045 0.07032,0.08967 0.140565,0.179398 0.213423,0.267167 0.06765,0.08617 0.135166,0.172422 0.205156,0.256832 0.06979,0.089 0.139588,0.177973 0.211873,0.2651 0.06907,0.08803 0.137774,0.176325 0.20929,0.262516 0.06888,0.0878 0.137972,0.17551 0.209289,0.261483 0.06853,0.08735 0.136799,0.174902 0.207739,0.260449 0.07033,0.08968 0.14056,0.179391 0.213424,0.267167 0.06764,0.08617 0.135168,0.172422 0.205156,0.256832 0.06964,0.08881 0.139233,0.177643 0.211356,0.264583 0.06982,0.08899 0.139556,0.177983 0.211873,0.2651 0.06765,0.08617 0.135166,0.172427 0.205156,0.256832 0.06979,0.08901 0.139588,0.177971 0.211873,0.2651 0.06923,0.08823 0.138124,0.176649 0.209807,0.263033 0.06874,0.0876 0.137609,0.175181 0.208772,0.260966 0.06853,0.08736 0.1368,0.174901 0.20774,0.26045 0.07031,0.08966 0.140577,0.179411 0.213423,0.267167 0.06764,0.08617 0.135169,0.172424 0.205156,0.256832 0.06978,0.08899 0.1396,0.177988 0.211873,0.2651 0.06967,0.0888 0.139194,0.177648 0.211357,0.264583 0.06764,0.08617 0.135168,0.172424 0.205155,0.256832 0.06979,0.089 0.139588,0.177973 0.211874,0.2651 0.06923,0.08823 0.138124,0.176646 0.209806,0.263033 0.06874,0.08761 0.137607,0.175178 0.208773,0.260966 0.06853,0.08735 0.136799,0.174903 0.207739,0.260449 0.07032,0.08967 0.140568,0.179401 0.213424,0.267167 0.06824,0.08693 0.136595,0.173758 0.207222,0.258899 0.06838,0.08716 0.136443,0.174569 0.207223,0.259933 0.07046,0.08987 0.140929,0.179727 0.21394,0.267684 0.06764,0.08617 0.135168,0.172422 0.205155,0.256832 0.06964,0.08881 0.13923,0.177638 0.211357,0.264583 0.06936,0.08841 0.138497,0.176993 0.210323,0.26355 0.06875,0.08761 0.137607,0.175178 0.208773,0.260966 0.06853,0.08736 0.136799,0.1749 0.207739,0.260449 0.0695,0.08863 0.138862,0.1773 0.21084,0.264067 0.06921,0.08822 0.138135,0.176654 0.209806,0.263033 0.06875,0.08762 0.137606,0.175164 0.208773,0.260966 0.06868,0.08755 0.13716,0.175233 0.208256,0.260966 0.07017,0.08948 0.140213,0.179065 0.212907,0.26665 0.06839,0.08713 0.136956,0.174089 0.207739,0.259416 0.06853,0.08736 0.136799,0.1749 0.20774,0.260449 0.07031,0.08966 0.140579,0.179413 0.213423,0.267167 0.06765,0.08617 0.135164,0.172422 0.205156,0.256832 0.06977,0.08899 0.139602,0.177988 0.211873,0.2651 0.06907,0.08803 0.137774,0.176325 0.20929,0.262516 0.06888,0.0878 0.137972,0.17551 0.209289,0.261483 0.06913,0.08812 0.138223,0.176236 0.209806,0.262516 0.06908,0.08804 0.137768,0.176313 0.20929,0.262517 0.0689,0.08782 0.137958,0.17549 0.20929,0.261482 0.06854,0.08736 0.136794,0.1749 0.207739,0.260449 0.07032,0.08967 0.14057,0.179401 0.213423,0.267168 0.06765,0.08617 0.135166,0.172424 0.205156,0.256831 0.06977,0.08899 0.139603,0.177989 0.211873,0.265101 0.06923,0.08823 0.138122,0.176646 0.209807,0.263033 0.0686,0.08742 0.137242,0.174834 0.208256,0.260449 0.06927,0.08831 0.138588,0.176567 0.210323,0.263033 0.06899,0.08793 0.137857,0.175903 0.209289,0.261999 0.06898,0.08793 0.137869,0.175902 0.20929,0.262 0.06853,0.08736 0.136796,0.174898 0.207739,0.260449 0.07032,0.08967 0.14057,0.179401 0.213424,0.267167 0.06765,0.08617 0.135166,0.172422 0.205155,0.256832 0.06977,0.08898 0.139603,0.177991 0.211874,0.2651 0.06923,0.08823 0.138123,0.176646 0.209806,0.263033 0.06861,0.08743 0.137238,0.174833 0.208256,0.26045 0.06868,0.08755 0.137162,0.175231 0.208256,0.260966 0.07033,0.08968 0.140557,0.179388 0.213424,0.267167 0.06824,0.08693 0.136595,0.173757 0.207222,0.258899 0.06839,0.08716 0.13644,0.174566 0.207223,0.259932 0.07045,0.08985 0.140939,0.179743 0.21394,0.267684 0.06764,0.08617 0.135168,0.172422 0.205155,0.256832 0.06963,0.0888 0.139242,0.177654 0.211357,0.264583 0.06936,0.08841 0.138497,0.176993 0.210323,0.26355 0.06874,0.08761 0.137607,0.175178 0.208773,0.260966 0.06898,0.08793 0.137869,0.175902 0.209289,0.261999 0.06854,0.08736 0.136797,0.174901 0.20774,0.26045 0.07032,0.08968 0.14056,0.179391 0.213423,0.267167 0.06764,0.08617 0.135169,0.172421 0.205156,0.256832 0.06978,0.08899 0.139598,0.177988 0.211873,0.2651 0.06907,0.08803 0.137777,0.17632 0.20929,0.262516 0.06889,0.0878 0.137969,0.175509 0.209289,0.261483 0.06853,0.08736 0.136799,0.1749 0.20774,0.260449 0.07017,0.08948 0.14021,0.179065 0.212906,0.26665 0.06839,0.08713 0.136954,0.174089 0.20774,0.259416 0.06853,0.08736 0.136799,0.1749 0.207739,0.260449 0.07033,0.08968 0.140561,0.179394 0.213424,0.267167 0.06764,0.08617 0.135168,0.17242 0.205155,0.256832 0.06978,0.08899 0.1396,0.177988 0.211873,0.2651 0.06923,0.08823 0.138124,0.176647 0.209807,0.263034 0.06874,0.08761 0.137606,0.175174 0.208773,0.260965 0.06854,0.08736 0.136794,0.1749 0.207739,0.26045 0.07033,0.08968 0.140559,0.179388 0.213423,0.267167 0.06765,0.08617 0.135165,0.172422 0.205156,0.256832 0.06963,0.08881 0.139236,0.177642 0.211356,0.264583 0.06982,0.089 0.139554,0.17798 0.211874,0.2651 0.06765,0.08617 0.135164,0.172422 0.205155,0.256832 0.06978,0.08899 0.139601,0.177986 0.211874,0.2651 0.06907,0.08803 0.137772,0.176323 0.209289,0.262516 0.06889,0.0878 0.137972,0.17551 0.20929,0.261483 0.06854,0.08736 0.136795,0.174896 0.207739,0.260449 0.07032,0.08967 0.14057,0.179401 0.213424,0.267168 0.06825,0.08693 0.136592,0.173757 0.207222,0.258898 0.06839,0.08717 0.136438,0.174567 0.207223,0.259933 0.07047,0.08987 0.140926,0.179725 0.21394,0.267684 0.06765,0.08617 0.135164,0.172421 0.205156,0.256832 0.06962,0.0888 0.139245,0.177654 0.211356,0.264583 0.06936,0.08841 0.138493,0.176986 0.210323,0.26355 0.06874,0.08761 0.137609,0.175178 0.208773,0.260966 0.06839,0.08717 0.13644,0.174566 0.207223,0.259932 0.07045,0.08985 0.140939,0.179741 0.21394,0.267684 0.06824,0.08693 0.136593,0.173757 0.207222,0.258899 0.06839,0.08717 0.136439,0.174566 0.207223,0.259933 0.06979,0.089 0.139588,0.17797 0.211873,0.2651 0.06907,0.08803 0.137773,0.176318 0.20929,0.262516 0.06889,0.0878 0.137972,0.175509 0.209289,0.261483 0.06854,0.08736 0.136797,0.174899 0.20774,0.260449 0.07031,0.08966 0.140575,0.179407 0.213423,0.267167 0.06765,0.08617 0.135166,0.172422 0.205156,0.256832 0.06978,0.08899 0.139598,0.177988 0.211873,0.2651 0.06907,0.08803 0.137776,0.176319 0.20929,0.262516 0.06875,0.08762 0.137601,0.175164 0.208772,0.260966 0.06927,0.08831 0.138589,0.176567 0.210324,0.263033 0.06907,0.08803 0.137774,0.176323 0.209289,0.262517 0.06889,0.0878 0.137968,0.175505 0.20929,0.261482 0.06853,0.08736 0.136796,0.1749 0.207739,0.26045 0.07031,0.08966 0.140575,0.179411 0.213424,0.267167 0.06764,0.08617 0.135168,0.172417 0.205155,0.256832 0.06978,0.08899 0.139598,0.177988 0.211873,0.2651 0.06907,0.08803 0.137773,0.176322 0.20929,0.262516 0.06889,0.0878 0.13797,0.175505 0.209289,0.261483 0.06914,0.08812 0.138222,0.176231 0.209807,0.262516 0.06923,0.08823 0.138121,0.176646 0.209806,0.263033 0.06875,0.08761 0.137605,0.175178 0.208773,0.260966 0.06853,0.08736 0.136799,0.174896 0.207739,0.260449 0.07032,0.08967 0.140566,0.179401 0.213424,0.267167 0.06765,0.08617 0.135164,0.172422 0.205155,0.256832 0.06978,0.08899 0.1396,0.177984 0.211874,0.2651 0.06907,0.08803 0.137772,0.176321 0.209289,0.262517 0.06875,0.08762 0.137603,0.175163 0.208773,0.260966 0.06928,0.08832 0.138584,0.176562 0.210323,0.263033 0.06923,0.08823 0.138124,0.176642 0.209806,0.263033 0.06816,0.08684 0.136169,0.173847 0.206706,0.258899 0.06971,0.08891 0.139157,0.178056 0.211357,0.2651 0.06972,0.08886 0.139667,0.177591 0.211873,0.264583 0.06825,0.08693 0.136591,0.173757 0.207223,0.258897 0.06839,0.0872 0.13644,0.17458 0.207222,0.25993 0.07061,0.0901 0.141292,0.18005 0.214457,0.26821 0.06749,0.086 0.134815,0.17208 0.204639,0.25631 0.06964,0.0888 0.139227,0.17764 0.211357,0.26458 0.06981,0.089 0.139562,0.17801 0.211873,0.2651 0.06765,0.0862 0.135166,0.17243 0.205155,0.25684 0.06903,0.088 0.137811,0.1763 0.20929,0.26251 0.06979,0.089 0.139586,0.17798 0.211873,0.2651 0.06967,0.0888 0.139199,0.17767 0.211357,0.26459 0.06764,0.0862 0.135168,0.17243 0.205155,0.25683 0.06917,0.0882 0.138183,0.17663 0.209807,0.26303 0.07032,0.0897 0.14056,0.1794 0.213423,0.26717 0.06825,0.0869 0.136593,0.17376 0.207223,0.2589 0.06854,0.0874 0.136795,0.17491 0.207739,0.26045 0.0703,0.0897 0.140588,0.17938 0.213424,0.26716 0.06764,0.0862 0.135174,0.17242 0.205155,0.25683 0.06979,0.089 0.139583,0.17798 0.211874,0.2651 0.06967,0.0888 0.139198,0.17767 0.211356,0.26459 0.06765,0.0862 0.135164,0.17243 0.205156,0.25683 0.06918,0.0882 0.138169,0.17663 0.209806,0.26303 0.01727,0.022 0.03218,0.0458 0.04961,0.0677 v 5.97121 h 5.17e-4 0.208773 v 0.24908 l 5.17e-4,0.0129 h 0.209289 v 0.2372 l 5.17e-4,0.0248 h 0.208773 v 0.22428 l 5.16e-4,0.0388 h 0.208773 v 0.21136 l 5.17e-4,0.0506 h 0.20929 v 0.19844 l 5.16e-4,0.0636 h 0.208773 v 0.18604 c 0,10e-4 2.17e-4,0.076 5.17e-4,0.076 h 0.208773 v 0.17312 c 0,0.002 2.16e-4,0.0899 5.16e-4,0.0899 h 0.20929 v 0.15917 c 0,0.002 -3e-4,0.10283 0,0.10283 h 0.209289 v 0.14728 c 0,0.002 2.17e-4,0.11472 5.17e-4,0.11472 h 0.208773 v 0.13436 c 0,0.003 2.17e-4,0.12764 5.17e-4,0.12764 h 0.208773 v 0.12196 c 0,0.002 2.16e-4,0.14108 5.16e-4,0.14108 h 0.20929 v 0.108 c 0,0.003 1.17e-4,0.154 5.17e-4,0.154 h 0.208772 v 0.0961 c 0,0.003 2.17e-4,0.16588 5.17e-4,0.16588 h 0.208773 v 0.0832 c 0,0.004 2.17e-4,0.1788 5.17e-4,0.1788 h 0.209289 v 0.0713 c 0,0.003 2.17e-4,0.19068 5.17e-4,0.19068 h 0.208773 v 0.0584 c 0,0.004 2.17e-4,0.20464 5.17e-4,0.20464 h 0.209289 v 0.0439 c 0,0.005 -3e-4,0.21808 0,0.21808 h 0.20929 v 0.032 c 0,0.004 2.17e-4,0.22996 5.17e-4,0.22996 h 0.208772 v 0.0191 c 0,0.005 1.17e-4,0.24288 5.17e-4,0.24288 h 0.20929 v 0.007 c 0,0.005 -3e-4,0.2558 0,0.2558 h 0.209289 c 1e-5,0.0172 2.24e-4,0.262 5.17e-4,0.262 h 0.208773 c 1.3e-5,0.0367 2.37e-4,0.262 5.16e-4,0.262 h 0.208773 c 3.8e-5,0.0541 2.5e-4,0.262 5.17e-4,0.262 h 0.20929 c 2.6e-5,0.068 2.6e-4,0.26303 5.16e-4,0.26303 h 0.208773 c 5.7e-5,0.0795 2.71e-4,0.262 5.17e-4,0.262 h 0.208773 c 3.7e-5,0.0894 2.8e-4,0.262 5.16e-4,0.262 h 0.20929 c 4.1e-5,0.0968 2.89e-4,0.262 5.17e-4,0.262 h 0.208773 c 7.3e-5,0.10359 2.97e-4,0.262 5.16e-4,0.262 h 0.208773 c 4.7e-5,0.10899 3.04e-4,0.26303 5.17e-4,0.26303 h 0.158647 l -2.937806,5.27203 -0.05374,-0.14521 h -0.112655 l -0.09715,-0.262 h -0.112138 l -0.09715,-0.26303 h -0.112655 l -0.09664,-0.262 h -0.112654 l -0.09663,-0.262 h -0.112655 l -0.09715,-0.262 h -0.112138 l -0.09715,-0.26303 h -0.112138 l -0.09715,-0.262 h -0.112654 l -0.09715,-0.262 H 93.35659 l -0.09664,-0.262 h -0.112138 l -0.09715,-0.26252 H 92.93748 l -0.09663,-0.262 h -0.11266 l -0.09663,-0.262 h -0.112654 l -0.09715,-0.262 h -0.112138 l -0.09715,-0.262 H 92.10033 l -0.09715,-0.26303 h -0.112655 l -0.09663,-0.262 h -0.112654 l -0.09715,-0.262 h -0.112138 l -0.09715,-0.262 h -0.112138 l -0.09715,-0.26303 H 91.05284 l -0.09715,-0.262 h -0.112137 l -0.09715,-0.262 h -0.112138 l -0.09715,-0.262 h -0.112654 l -0.09715,-0.26303 h -0.112138 l -0.09715,-0.262 h -0.112138 l -0.09715,-0.262 H 89.79608 l -0.09715,-0.262 h -0.11215 l -0.09715,-0.262 h -0.11214 l -0.09715,-0.26303 h -0.112655 l -0.09715,-0.262 h -0.112138 l -0.09715,-0.262 h -0.112138 l -0.09715,-0.262 h -0.112654 l -0.09715,-0.26304 h -0.112138 l -0.09715,-0.262 h -0.112138 l -0.09715,-0.26199 h -0.112655 l -0.09715,-0.262 h -0.112137 l -0.09715,-0.26304 h -0.112655 l -0.09663,-0.262 h -0.112654 l -0.09715,-0.262 H 87.07326 l -0.09715,-0.262 h -0.112137 l -0.09715,-0.262 h -0.112655 l -0.09715,-0.26303 h -0.112655 l -0.09664,-0.262 h -0.112655 l -0.09663,-0.262 h -0.112654 l -0.09663,-0.262 h -0.112655 l -0.09715,-0.26303 h -0.112655 l -0.09664,-0.262 h -0.112655 l -0.09664,-0.262 h -0.112654 l -0.09715,-0.262 h -0.112138 l -0.09715,-0.262 h -0.112138 l -0.09715,-0.26303 h -0.112655 l -0.09715,-0.262 h -0.112138 l -0.09715,-0.262 h -0.112654 l -0.09715,-0.262 h -0.112138 l -0.09715,-0.26303 h -0.112138 l -0.09715,-0.262 h -0.112138 l -0.09715,-0.262 h -0.112654 l -0.09715,-0.262 h -0.112138 l -0.09715,-0.26303 H 82.88383 l -0.09664,-0.262 h -0.11265 l -0.09715,-0.262 h -0.112655 l -0.09664,-0.262 H 82.25544 l -0.09663,-0.262 h -0.112654 l -0.09715,-0.26304 h -0.112655 l -0.09663,-0.26199 h -0.112655 l -0.09664,-0.262 h -0.113171 l -0.09664,-0.262 H 81.20796 l -0.09664,-0.26304 h -0.112654 l -0.0047,-0.0119 -0.09198,-0.25012 h -0.113172 l -0.02274,-0.062 -0.0739,-0.19999 h -0.112138 l -0.04186,-0.11265 -0.05529,-0.14935 h -0.112138 l -0.06046,-0.16278 -0.03669,-0.10025 h -0.112654 l -0.07855,-0.21187 -0.0186,-0.0501 h -0.112138 l -0.09715,-0.262 h -5.895764 l -3.782198,10.22729 h -0.147278 v -0.262 h -0.209289 v -0.26304 h -0.20929 v -0.262 h -0.209806 v -0.262 h -0.20929 v -0.262 h -0.209289 v -0.262 h -0.209807 v -0.26303 h -0.209289 v -0.262 h -0.20929 v -0.262 H 68.14411 v -0.262 h -0.20929 v -0.26303 h -0.209289 v -0.262 h -0.209806 v -0.262 h -0.20929 v -0.262 h -0.20929 v -0.262 H 66.88739 v -0.26303 h -0.209289 v -0.262 h -0.208773 l -5.17e-4,-0.262 h -0.20929 l -5.16e-4,-0.262 h -0.208773 l -5.17e-4,-0.26303 h -0.208773 l -5.16e-4,-0.262 h -0.20929 l -5.17e-4,-0.262 h -0.208772 l -5.17e-4,-0.262 h -0.208773 l -5.17e-4,-0.26303 h -0.209289 l -5.17e-4,-0.262 h -0.208773 l -5.17e-4,-0.262 h -0.208772 l -5.17e-4,-0.262 h -0.20929 l -5.17e-4,-0.262 h -0.208772 l -5.17e-4,-0.26304 h -0.208773 l -5.17e-4,-0.26199 h -0.208772 l -10e-4,-0.262 h -0.208256 l -0.001,-0.262 h -0.208257 l -10e-4,-0.26304 h -0.208256 v -0.0119 l -0.0016,-0.25012 h -0.208256 v -0.062 l -0.001,-0.19999 h -0.208256 v -0.11265 l -10e-4,-0.14935 H 62.49036 v -0.16278 l -0.0016,-0.10025 h -0.208256 v -0.21187 l -10e-4,-0.0501 h -0.208256 v -0.262 h -10e-4 -6.152596 -10e-4 c -0.1929,0 -0.364181,0.0964 -0.514181,0.29042 h -5.17e-4 l -5.120617,8.49819 -0.0646,-0.10748 c -0.0328,-0.0422 -0.07299,-0.0623 -0.109037,-0.0946 l -0.100252,-0.16743 c -0.033,-0.0426 -0.07326,-0.0631 -0.109555,-0.0956 l -0.09973,-0.1664 c -0.03329,-0.0431 -0.07397,-0.0638 -0.110588,-0.0966 l -0.09922,-0.16536 c -0.03291,-0.0425 -0.07288,-0.063 -0.109038,-0.0956 l -0.100252,-0.16744 c -0.03294,-0.0425 -0.07337,-0.0626 -0.109554,-0.0951 l -0.09973,-0.16691 c -0.0332,-0.0427 -0.0736,-0.0634 -0.110071,-0.0961 l -0.09974,-0.16588 c -0.03305,-0.0427 -0.07325,-0.0629 -0.109554,-0.0956 l -0.09974,-0.16639 c -0.03296,-0.0427 -0.07336,-0.0629 -0.109554,-0.0956 l -0.09974,-0.16639 c -0.03295,-0.0426 -0.07338,-0.0628 -0.109554,-0.0956 l -0.100252,-0.16744 c -0.03289,-0.0424 -0.07294,-0.0625 -0.109037,-0.0951 l -0.100253,-0.16692 c -0.03289,-0.0423 -0.07296,-0.0625 -0.109037,-0.0951 l -0.100252,-0.16692 c -0.03297,-0.0426 -0.07338,-0.0628 -0.109554,-0.0956 l -0.09974,-0.16639 c -0.03298,-0.0427 -0.07338,-0.0628 -0.109554,-0.0956 l -0.100252,-0.16743 c -0.03303,-0.0425 -0.07332,-0.0628 -0.109554,-0.0956 l -0.09974,-0.1664 c -0.03311,-0.0427 -0.07376,-0.0628 -0.11007,-0.0956 l -0.09974,-0.1664 c -0.03318,-0.043 -0.07366,-0.0631 -0.110071,-0.0961 l -0.09922,-0.16588 c -0.03301,-0.0427 -0.07336,-0.0627 -0.109554,-0.0956 l -0.09974,-0.16743 c -0.03337,-0.043 -0.07397,-0.0635 -0.110588,-0.0966 L 46.4464,108.9606 c -0.03312,-0.0426 -0.07377,-0.0626 -0.110071,-0.0956 l -0.09922,-0.1664 c -0.03315,-0.0428 -0.07373,-0.0631 -0.110071,-0.0961 l -0.09922,-0.16588 c -0.03327,-0.0431 -0.07411,-0.063 -0.110587,-0.0961 l -0.09922,-0.16588 c -0.03301,-0.0427 -0.0734,-0.0626 -0.109554,-0.0956 l -0.09973,-0.16743 c -0.0332,-0.0428 -0.07369,-0.063 -0.110071,-0.0961 l -0.09922,-0.16588 c -0.03312,-0.0426 -0.0738,-0.0625 -0.110071,-0.0956 l -0.0047,-0.008 -0.09457,-0.15813 c -0.03357,-0.0434 -0.07481,-0.0637 -0.111622,-0.0971 l -0.0155,-0.0264 -0.08268,-0.13849 c -0.03315,-0.0429 -0.07377,-0.0629 -0.110071,-0.0961 l -0.02842,-0.0475 -0.0708,-0.11886 c -0.03317,-0.0427 -0.07375,-0.063 -0.110071,-0.0961 l -0.04031,-0.0672 -0.05891,-0.0987 c -0.033,-0.0426 -0.07344,-0.0625 -0.109554,-0.0956 l -0.05271,-0.0879 -0.04754,-0.0785 c -0.03287,-0.0426 -0.07309,-0.0626 -0.109037,-0.0956 l -0.0646,-0.10748 -0.03566,-0.0589 c -0.03312,-0.0428 -0.07384,-0.0629 -0.110071,-0.0961 l -0.07596,-0.12713 -0.02325,-0.0398 c -0.03318,-0.0428 -0.07377,-0.0629 -0.110071,-0.0961 l -0.08785,-0.14624 -0.01189,-0.0196 c -0.03305,-0.0425 -0.07341,-0.0625 -0.109554,-0.0956 l -0.09974,-0.1664 c -0.1503,-0.194 -0.332454,-0.29042 -0.547254,-0.29042 h -6.12159 v 25.00003 h 0.20929 v 0.21239 0.0496 h 0.209806 v 0.16329 0.0987 h 0.20929 v 0.11317 0.14986 h 0.209289 v 0.062 0.19999 h 0.209807 v 0.0129 0.24908 h 0.209289 v 0.262 h 0.20929 v 0.26303 h 0.209806 v 0.262 h 0.209289 v 0.262 h 0.20929 v 0.262 h 0.209806 v 0.26303 h 0.20929 v 0.262 h 0.209289 v 0.262 h 0.209807 v 0.262 h 0.209289 v 0.262 h 0.20929 v 0.26303 h 0.209806 v 0.262 h 0.20929 v 0.262 h 0.209289 v 0.262 h 0.20929 v 0.26303 h 0.209806 v 0.262 h 0.20929 v 0.262 h 0.209289 v 0.262 h 0.209807 v 0.26304 h 0.209289 v 0.262 h 0.20929 v 0.262 h 0.209806 V 137.08 h 0.20929 v 0.262 h 0.209289 v 0.26304 h 0.209806 v 0.262 h 0.20929 v 0.262 h 0.209289 v 0.262 h 0.209807 v 0.26303 h 0.209289 v 0.262 h 0.20929 v 0.262 h 0.209806 v 0.262 h 0.20929 v 0.262 H 44.8045 v 0.26303 h 0.209807 v 0.262 h 0.209289 v 0.262 h 0.20929 v 0.262 h 0.209806 v 0.26303 h 0.20929 v 0.262 h 0.209289 v 0.262 h 0.209806 v 0.262 h 0.20929 v 0.26303 h 0.20929 v 0.262 h 0.209806 v 0.262 h 0.209289 v 0.262 h 0.20929 v 0.262 h 0.209806 v 0.26303 h 0.20929 v 0.262 h 0.209289 v 0.262 h 0.209807 v 0.262 h 0.209289 v 0.26304 h 0.20929 v 0.262 h 0.209806 v 0.26199 h 0.20929 v 0.262 h 0.209289 v 0.26304 h 0.20929 v 0.262 h 0.209806 v 0.262 h 0.20929 v 0.262 h 0.209289 v 0.262 h 0.209807 v 0.26251 h 0.209289 v 0.262 h 0.20929 v 0.262 h 0.209806 v 0.262 h 0.209289 v 0.26303 h 0.20929 v 0.262 h 0.209806 v 0.262 h 0.20929 v 0.262 h 0.209289 v 0.26303 h 0.209807 v 0.262 h 0.209289 v 0.262 h 0.20929 v 0.262 h 0.209806 v 0.262 h 0.20929 v 0.26304 H 53.1828 v 0.262 h 0.209807 v 0.262 h 0.209289 v 0.26199 h 0.20929 v 0.26304 h 0.209806 v 0.262 h 0.20929 v 0.262 h 0.209289 v 0.262 h 0.209806 v 0.26303 h 0.20929 v 0.262 h 0.20929 v 0.262 h 0.209806 v 0.262 h 0.209289 v 0.262 h 0.20929 v 0.26303 h 0.209806 v 0.262 h 0.20929 v 0.262 h 0.209289 v 0.262 h 0.209807 v 0.26303 h 0.209289 v 0.262 h 0.20929 v 0.262 h 0.209806 v 0.262 h 0.20929 v 0.262 h 0.209289 v 0.26303 h 0.20929 v 0.262 h 0.209806 v 0.262 h 0.20929 v 0.262 h 0.209289 v 0.26303 h 0.209806 v 0.262 h 0.20929 v 0.262 h 0.20929 v 0.262 h 0.209806 v 0.26304 h 0.209289 v 0.262 h 0.20929 v 0.262 h 0.209806 v 0.26199 h 0.20929 v 0.262 h 0.209289 v 0.26304 h 0.209807 v 0.262 h 0.209289 v 0.262 h 0.20929 v 0.262 h 0.209806 v 0.26303 h 0.20929 v 0.262 H 61.5611 v 0.262 h 0.209807 v 0.262 h 0.209289 v 0.26303 h 0.20929 v 0.262 h 0.209806 v 0.262 h 0.20929 v 0.262 h 0.209289 v 0.262 h 0.209806 v 0.26303 h 0.20929 v 0.262 h 0.20929 v 0.262 h 0.209806 v 0.262 h 0.209289 v 0.26303 h 0.20929 v 0.262 h 0.209806 v 0.262 h 0.20929 v 0.262 h 0.209289 v 0.26252 h 0.209807 v 0.262 h 0.209289 v 0.262 h 0.20929 v 0.262 h 0.209806 v 0.262 h 0.20929 v 0.26303 h 0.209289 v 0.262 h 0.20929 v 0.262 h 0.209806 v 0.262 h 0.20929 v 0.26303 h 0.209289 v 0.262 h 0.209806 v 0.262 h 0.20929 v 0.262 h 0.20929 v 0.26303 h 0.209806 v 0.262 h 0.209289 v 0.262 h 0.20929 v 0.262 h 0.209806 v 0.262 h 0.20929 v 0.26303 h 0.209289 v 0.262 h 0.209807 v 0.262 h 0.209289 v 0.262 h 0.20929 v 0.26303 h 0.209806 v 0.262 h 0.20929 v 0.262 H 69.9394 v 0.262 h 0.209807 v 0.262 h 0.209289 v 0.26304 h 0.20929 v 0.262 h 0.209806 v 0.26199 h 0.20929 v 0.262 h 0.209289 v 0.26304 h 0.209806 v 0.262 h 0.20929 v 0.262 h 0.209289 v 0.262 h 0.209807 v 0.26303 h 0.209289 v 0.262 h 0.20929 v 0.262 h 0.209806 v 0.262 h 0.20929 v 0.262 h 0.209289 v 0.26303 h 0.209807 v 0.262 h 0.209289 v 0.262 h 0.20929 v 0.262 h 0.209806 v 0.26303 h 0.20929 v 0.262 h 0.209289 v 0.262 h 0.20929 v 0.262 h 0.209806 v 0.26303 h 0.20929 v 0.262 h 0.209289 v 0.262 h 0.209806 v 0.262 h 0.20929 v 0.262 h 0.20929 v 0.26303 h 0.209806 v 0.262 h 0.209289 v 0.262 h 0.20929 v 0.262 h 0.209806 v 0.26304 h 0.20929 v 0.262 h 0.209289 v 0.26199 h 0.209807 v 0.262 h 0.209289 v 0.26304 h 0.20929 v 0.262 h 0.209806 v 0.262 h 0.20929 v 0.262 H 78.3177 v 0.262 h 0.209807 v 0.26303 h 0.209289 v 0.262 h 0.20929 v 0.262 h 0.209806 v 0.262 h 0.209289 v 0.26251 h 0.20929 v 0.262 h 0.209806 v 0.262 h 0.20929 v 0.262 h 0.209289 v 0.26303 h 0.209807 v 0.262 h 0.209289 v 0.262 h 0.20929 v 0.262 h 0.209806 v 0.262 h 0.20929 v 0.26304 h 0.209289 v 0.262 h 0.209807 v 0.262 h 0.209289 v 0.26199 h 0.20929 v 0.26304 h 0.209806 v 0.262 h 0.20929 v 0.262 h 0.209289 v 0.262 h 0.20929 v 0.262 h 0.209806 v 0.26303 h 0.20929 v 0.262 h 0.209289 v 0.262 h 0.209806 v 0.262 h 0.20929 v 0.26303 h 0.209289 v 0.262 h 0.209807 v 0.262 h 0.209289 v 0.262 h 0.20929 v 0.26303 h 0.209806 v 0.262 h 0.20929 v 0.262 h 0.209289 v 0.262 h 0.209807 v 0.262 h 0.209289 v 0.26303 h 0.20929 v 0.262 h 0.209806 v 0.262 h 0.20929 v 0.262 H 86.696 v 0.26303 h 0.209806 v 0.262 h 0.20929 v 0.262 h 0.20929 v 0.262 h 0.209806 v 0.26304 h 0.209289 v 0.262 h 0.20929 v 0.262 h 0.209806 v 0.26199 h 0.20929 v 0.262 h 0.209289 v 0.26304 h 0.209807 v 0.262 h 0.209289 v 0.262 h 0.20929 v 0.262 h 0.209806 v 0.26303 h 0.20929 v 0.262 h 0.209289 v 0.262 h 0.209807 v 0.262 h 0.209289 v 0.26303 h 0.20929 v 0.262 h 0.209806 v 0.262 h 0.20929 v 0.262 h 0.209289 v 0.262 h 0.20929 v 0.26303 h 0.209806 v 0.262 h 0.209289 v 0.262 h 0.20929 v 0.262 h 0.209806 v 0.26303 h 0.20929 v 0.262 h 0.209289 v 0.262 h 0.209807 v 0.262 h 0.209289 v 0.26303 h 0.20929 v 0.262 h 0.209806 v 0.262 h 0.20929 v 0.262 h 0.209289 v 0.262 h 0.209807 v 0.26304 h 0.209289 v 0.262 h 0.20929 v 0.26199 h 0.209806 v 0.262 h 0.20929 v 0.26252 H 95.0743 v 0.262 h 0.209806 v 0.262 h 0.20929 v 0.262 h 0.20929 v 0.262 h 0.209806 v 0.26303 h 0.209289 v 0.262 h 0.20929 v 0.262 h 0.209806 v 0.262 h 0.20929 v 0.26303 h 0.209289 v 0.262 h 0.209807 v 0.262 h 0.209289 v 0.262 h 0.20929 v 0.26303 h 0.209806 v 0.262 h 0.20929 v 0.262 h 0.209289 v 0.262 h 0.209807 v 0.262 h 0.209289 v 0.26304 h 0.20929 v 0.262 h 0.209806 v 0.26199 h 0.209289 v 0.262 h 0.20929 v 0.26304 h 0.20929 v 0.262 h 0.209806 v 0.262 h 0.208776 v 0.262 h 0.21032 v 0.26303 h 0.20877 v 0.262 h 0.20981 v 0.262 h 0.20929 v 0.262 h 0.2098 v 0.262 h 0.20929 v 0.26303 h 0.20981 v 0.262 h 0.20929 v 0.262 h 0.20981 v 0.262 h 0.20877 v 0.26303 h 0.20929 v 0.262 h 0.20981 v 0.262 h 0.20928 v 0.262 h 0.20981 v 0.26303 h 0.20877 v 0.262 h 0.21033 v 0.262 h 0.20877 v 0.262 h 0.21032 v 0.262 h 0.20878 v 0.26303 h 0.2098 v 0.262 h 0.20929 v 0.262 h 0.20981 v 0.262 h 0.20929 v 0.26304 h 0.20877 v 0.262 h 0.20981 v 0.26199 h 0.20929 v 0.262 h 0.2098 v 0.26304 h 0.20929 v 0.262 h 0.20981 v 0.262 h 0.20929 v 0.262 h 0.2098 v 0.262 h 0.20878 v 0.26303 h 0.21032 v 0.262 h 0.20877 v 0.262 h 0.20929 v 0.262 h 0.20981 v 0.26303 h 0.20877 v 0.262 h 0.21032 v 0.262 h 0.20878 v 0.262 h 0.21032 v 0.262 h 0.20877 v 0.26303 h 0.20981 v 0.262 h 0.20929 v 0.262 h 0.20981 v 0.262 h 0.20928 v 0.26252 h 0.20981 v 0.262 h 0.20877 v 0.26199 h 0.20929 v 0.262 h 0.20981 v 0.26304 h 0.20929 v 0.262 h 0.20981 v 0.262 h 0.20929 v 0.262 h 0.2098 v 0.262 h 0.20877 v 0.26303 h 0.21033 v 0.262 h 0.20877 v 0.262 h 0.21032 v 0.262 H 112.25 v 0.26303 h 0.20877 v 0.262 h 0.21032 v 0.262 h 0.20877 v 0.262 h 0.21033 v 0.26303 h 0.20877 v 0.262 h 0.20981 v 0.262 h 0.20929 v 0.262 h 0.2098 v 0.262 h 0.20929 v 0.26303 h 0.20981 v 0.262 h 0.20929 v 0.262 h 0.20877 v 0.262 h 0.20981 v 0.26303 h 0.20929 v 0.262 h 0.2098 v 0.262 h 0.20929 v 0.262 h 0.20981 v 0.26304 h 0.20877 v 0.262 h 0.21032 v 0.262 h 0.20878 v 0.26199 h 0.21032 v 0.262 h 0.20877 v 0.26304 h 0.20981 v 0.262 h 0.20929 v 0.262 h 0.20877 v 0.262 h 0.21033 v 0.26303 h 0.20877 v 0.262 h 0.2098 v 0.262 h 0.20929 v 0.262 h 0.20981 v 0.26303 h 0.20929 v 0.262 h 0.20981 v 0.262 h 0.20929 v 0.262 h 0.2098 v 0.262 h 0.20877 v 0.26303 h 0.20929 v 0.262 h 0.20981 v 0.262 h 0.20929 v 0.262 h 0.20981 v 0.26303 h 0.20877 v 0.262 h 0.21032 v 0.262 h 0.20877 v 0.262 h 0.21033 v 0.262 h 0.20877 v 0.26303 h 0.20981 v 0.262 h 0.20929 v 0.262 h 0.20877 v 0.262 h 0.21032 v 0.26304 h 0.20878 v 0.262 h 0.2098 v 0.26199 h 0.20929 v 0.262 h 0.20981 v 0.26304 h 0.20929 v 0.262 h 0.2098 v 0.262 h 0.20929 v 0.262 h 0.20981 v 0.262 h 0.20877 v 0.26303 h 0.21033 v 0.262 h 0.20877 v 0.262 h 0.20929 v 0.262 h 0.2098 v 0.26251 h 0.20878 v 0.262 h 0.21032 v 0.262 h 0.20877 v 0.262 h 0.21033 v 0.26303 h 0.20877 v 0.262 h 0.2098 v 0.262 h 0.20929 v 0.262 h 0.20981 v 0.262 h 0.20929 v 0.26304 h 0.20877 v 0.262 h 0.21033 v 0.26199 h 0.20877 v 0.262 h 0.20981 v 0.26304 h 0.20928 v 0.262 h 0.20981 v 0.262 h 0.20929 v 0.262 h 0.20981 v 0.26303 h 0.20877 v 0.262 h 0.21032 v 0.262 h 0.20878 v 0.262 h 0.21032 v 0.262 h 0.20877 v 0.26303 h 0.20877 v 0.262 h 0.21033 v 0.262 h 0.20877 v 0.262 h 0.21032 v 0.26303 h 0.20878 v 0.262 h 0.2098 v 0.262 h 0.20929 v 0.262 h 0.20981 v 0.26303 h 0.20929 v 0.262 h 0.2098 v 0.262 h 0.20929 v 0.262 h 0.20878 v 0.262 h 0.2098 v 0.26303 h 0.20929 v 0.262 h 0.20981 v 0.262 h 0.20929 v 0.262 h 0.2098 v 0.26304 h 0.20878 v 0.262 h 0.21032 v 0.26199 h 0.20877 v 0.262 h 0.21033 v 0.262 h 0.20877 v 0.26304 h 0.20929 v 0.262 h 0.2098 v 0.262 h 0.20878 v 0.262 h 0.21032 v 0.26303 h 0.20877 v 0.262 h 0.21033 v 0.262 h 0.20877 v 0.262 h 0.20981 v 0.26303 h 0.20928 v 0.262 h 0.20981 v 0.262 h 0.20929 v 0.262 h 0.20981 v 0.262 h 0.20877 v 0.26303 h 0.20929 v 0.262 h 0.20981 v 0.262 h 0.20929 v 0.262 h 0.2098 v 0.26303 h 0.20877 v 0.262 h 0.21033 v 0.262 h 0.20877 v 0.262 h 0.20929 10e-4 v 0.26303 h 0.19586 0.0129 v 0.262 h 0.18293 0.0269 v 0.262 h 0.17002 0.0393 v 0.262 h 0.1571 0.0517 v 0.262 h 0.14418 0.0662 v 0.26252 h 0.13074 0.078 v 0.262 h 0.11782 0.0925 v 0.262 h 0.10491 0.10387 v 0.262 h 0.092 0.11782 v 0.26303 h 0.078 0.13126 v 0.262 h 0.0661 0.14366 v 0.262 h 0.0522 0.1571 v 0.262 h 0.0398 0.17001 v 0.26303 h 0.0258 0.18294 v 0.262 h 0.0134 0.19689 v 0.262 h 6.53965 v -10e-4 -10.72803 c 0.0188,0.0201 0.0355,0.0424 0.0579,0.0589 0.001,0.002 0.0532,0.0884 0.0532,0.0884 0.003,0.006 0.009,0.01 0.016,0.0119 0.0337,0.0679 0.083,0.12015 0.14159,0.16278 0.001,0.002 0.0527,0.0873 0.0527,0.0873 0.003,0.006 0.008,0.01 0.015,0.0119 0.0336,0.0678 0.0823,0.12016 0.14107,0.16278 10e-4,0.002 0.0527,0.0873 0.0527,0.0873 0.003,0.006 0.008,0.01 0.015,0.0119 0.0337,0.0679 0.0832,0.12015 0.14211,0.16278 0.001,0.002 0.0527,0.0873 0.0527,0.0873 0.002,0.006 0.007,0.01 0.0145,0.0119 0.0336,0.0678 0.0826,0.12041 0.14159,0.1633 l 0.0532,0.0879 c 0.003,0.005 0.007,0.009 0.014,0.01 0.0337,0.0686 0.0834,0.12127 0.14263,0.16433 l 0.0532,0.0879 c 0.002,0.005 0.006,0.008 0.0119,0.01 0.0344,0.0688 0.0845,0.12174 0.14418,0.16485 0.001,0.002 0.0532,0.0873 0.0532,0.0873 0.002,0.005 0.006,0.008 0.0119,0.01 0.0343,0.0685 0.0841,0.12128 0.14366,0.16433 l 0.0532,0.0878 c 0.003,0.005 0.007,0.008 0.0119,0.009 0.0346,0.0698 0.0854,0.1229 0.14573,0.1664 0.001,0.002 0.0527,0.0868 0.0527,0.0868 0.002,0.005 0.006,0.008 0.0108,0.009 0.0344,0.0693 0.0842,0.12251 0.14418,0.16588 10e-4,0.002 0.0537,0.0884 0.0537,0.0884 0.002,0.004 0.006,0.007 0.0109,0.008 0.0345,0.0696 0.0854,0.12244 0.14572,0.16588 0.001,0.002 0.0532,0.0884 0.0532,0.0884 0.002,0.004 0.005,0.006 0.009,0.008 0.0352,0.0699 0.0863,0.12329 0.14728,0.16692 0.001,0.002 0.0527,0.0873 0.0527,0.0873 0.002,0.004 0.005,0.006 0.009,0.007 0.0353,0.0706 0.0871,0.1245 0.14832,0.16846 0.001,0.002 0.0527,0.0868 0.0527,0.0868 0.001,0.004 0.004,0.006 0.008,0.007 0.0353,0.0706 0.0864,0.12451 0.1478,0.16846 l 0.0532,0.0879 c 0.002,0.003 0.004,0.005 0.008,0.006 0.0354,0.0708 0.0872,0.12498 0.14882,0.16898 0.001,0.002 0.0532,0.0873 0.0532,0.0873 10e-4,0.003 0.003,0.005 0.007,0.006 0.0353,0.0706 0.0867,0.12451 0.14831,0.16846 l 0.0532,0.0879 c 0.001,0.003 0.004,0.004 0.007,0.005 0.0355,0.0716 0.0881,0.12584 0.15038,0.17002 0.001,0.002 0.0527,0.0873 0.0527,0.0873 l 0.005,0.005 c 0.0359,0.0707 0.0885,0.12456 0.15038,0.16898 10e-4,0.002 0.0537,0.0894 0.0537,0.0894 l 0.005,0.004 c 0.0359,0.0708 0.0882,0.12547 0.15038,0.17002 10e-4,0.002 0.0537,0.0884 0.0537,0.0884 l 0.005,0.003 c 0.0357,0.072 0.0888,0.12676 0.15193,0.17157 0.001,0.002 0.0532,0.0873 0.0532,0.0873 l 0.004,0.003 c 0.0356,0.0718 0.0884,0.12629 0.15141,0.17105 l 0.0532,0.0879 0.004,0.003 c 0.0359,0.0724 0.0896,0.12699 0.15348,0.17209 10e-4,0.002 0.0527,0.0868 0.0527,0.0868 l 0.002,0.003 c 0.0361,0.0717 0.0896,0.12612 0.15296,0.17105 0.001,0.002 0.0537,0.0889 0.0537,0.0889 l 0.002,10e-4 c 0.0365,0.073 0.0908,0.12791 0.15503,0.17311 l 0.0532,0.0879 0.001,0.001 c 0.0364,0.0727 0.0904,0.12745 0.15451,0.1726 0.001,0.002 0.0532,0.0884 0.0532,0.0884 l 0.001,0.001 c 0.0366,0.0733 0.0912,0.12877 0.15607,0.17415 l 0.0527,0.0868 c 0.064,0.129 0.17146,0.21487 0.32246,0.25787 0.15,0.043 0.28958,0.0641 0.41858,0.0641 0.108,0 0.23602,-0.0211 0.38602,-0.0641 0.151,-0.043 0.25794,-0.12887 0.32194,-0.25787 l 0.95033,-1.56838 v 0.0884 h 0.20878 v 0.262 h 0.20929 v 0.26303 h 0.2098 v 0.262 h 0.20929 v 0.262 h 0.20981 v 0.262 h 0.20877 v 0.26303 h 0.19637 0.0139 v 0.262 h 0.18294 0.0258 v 0.262 h 0.17001 0.0403 v 0.262 h 0.15555 0.0532 v 0.262 h 0.14418 0.0656 v 0.26252 h 0.13022 0.0791 v 0.262 h 0.11782 0.092 v 0.262 h 0.10387 0.10542 v 0.262 h 0.091 0.11782 v 0.26303 h 0.0791 0.13074 v 0.262 h 0.0651 0.14417 v 0.262 h 0.0527 0.1571 v 0.262 h 0.0393 0.17002 v 0.26303 h 0.0258 0.18397 v 0.262 h 0.0129 0.19586 v 0.262 h 6.54017 v -3.40858 h 0.10232 0.12402 l -0.0972,0.262 h 0.16898 0.13694 l -0.0971,0.262 h 0.15503 0.15141 l -0.0971,0.26252 h 0.14159 0.16485 l -0.0966,0.262 h 0.12712 0.1788 l -0.0971,0.262 h 0.11317 0.1943 l -0.0971,0.262 h 0.0987 0.20723 l -0.0971,0.26303 h 0.0853 0.22169 l -0.0966,0.262 h 0.0698 0.23616 l -0.0971,0.262 h 0.0568 0.25011 l -0.0971,0.262 h 0.0424 0.26407 l -0.0971,0.26303 h 0.0289 0.27802 l -0.0972,0.262 h 0.014 0.29249 l -0.0972,0.262 h 7.05487 l 0.001,-10e-4 1.28778,-3.44579 h 0.001 6.24975 l 0.0145,0.0382 h 0.11214 l 0.0977,0.262 h 0.1111 l 0.0982,0.262 h 0.11162 l 0.0982,0.26252 h 0.11111 l 0.0977,0.262 h 0.11213 l 0.0982,0.262 h 0.1111 l 0.0977,0.262 h 0.10025 0.0119 l 0.0982,0.26303 h 0.0848 0.0264 l 0.0977,0.262 h 0.0718 0.0398 l 0.0977,0.262 h 0.0579 0.0537 l 0.0982,0.262 h 0.0429 0.0677 l 0.0982,0.26303 h 0.03 0.0822 l 0.0982,0.262 h 0.015 0.0961 l 0.0977,0.262 h 0.002 7.05383 l -0.001,-0.001 -3.10265,-8.38967 h 0.15399 v 0.262 h 0.20981 v 0.262 h 0.20929 v 0.262 h 0.2098 v 0.26303 h 0.20878 v 0.262 h 0.21032 v 0.262 h 0.20877 v 0.262 h 0.21033 v 0.262 h 0.20877 v 0.26303 h 0.2098 v 0.262 h 0.20929 v 0.262 h 0.20981 v 0.262 h 0.20929 v 0.26303 h 0.20877 v 0.262 h 0.20981 v 0.262 h 0.20929 v 0.262 h 0.2098 v 0.26303 h 0.20929 v 0.262 h 0.20981 v 0.262 h 0.20929 v 0.262 h 0.20981 v 0.262 h 0.20877 v 0.26252 h 0.21032 v 0.262 h 0.20878 v 0.262 h 0.20928 v 0.262 h 0.20981 v 0.26303 h 0.20877 v 0.262 h 0.20413 0.006 v 0.262 h 0.16278 0.046 v 0.262 h 0.12299 0.0873 v 0.26303 h 0.0816 0.12713 v 0.262 h 0.0418 0.16795 v 0.262 h 0.001 20.26336 v -10e-4 -6.40995 h -0.20929 v -0.262 h -0.0207 -0.18914 v -0.262 h -0.0403 -0.16898 v -0.26303 h -0.0599 -0.14986 v -0.262 h -0.0801 -0.12868 v -0.262 h -0.10025 -0.11007 v -0.262 h -0.11886 -0.0899 v -0.26303 h -0.14005 -0.0703 v -0.262 h -0.15864 -0.0501 v -0.262 h -0.1788 -0.031 v -0.262 h -0.19896 -0.0103 v -0.26252 h -0.20878 v -0.262 h -0.21032 v -0.26199 h -0.20877 v -0.262 h -0.20981 v -0.262 h -0.20929 v -0.26304 h -0.2098 v -0.262 h -0.20929 v -0.262 h -0.20981 v -0.262 h -0.20929 v -0.26303 h -0.20981 v -0.262 h -0.20877 v -0.262 h -0.20929 v -0.262 h -0.20981 v -0.262 h -0.20928 v -0.26303 h -0.20981 v -0.262 h -0.20877 v -0.262 h -0.21033 v -0.262 l 5.63894,-10.11928 v -0.001 -1.12706 h -0.001 -0.20774 v -0.262 h -0.0429 -0.16691 v -0.262 h -0.0842 -0.12505 v -0.26304 h -0.12506 -0.0847 v -0.262 h -0.1664 -0.0429 v -0.26199 h -0.20774 -0.001 v -0.262 h -0.21033 v -0.26252 h -0.20877 v -0.262 h -0.2098 v -0.262 h -0.20929 v -0.262 h -0.20981 v -0.26303 h -0.20929 v -0.262 h -0.20981 v -0.262 h -0.20877 v -0.262 h -0.21032 v -0.262 h -0.20877 v -0.26303 h -0.21033 v -0.262 h -0.20877 v -0.262 h -0.20877 v -0.262 h -0.21033 v -0.26303 h -0.20877 v -0.262 h -0.21032 v -0.262 h -0.20878 v -0.262 h -0.21032 v -0.26304 h -0.20877 v -0.262 h -0.20981 v -0.262 h -0.20929 v -0.26199 h -0.2098 v -0.262 h -0.20929 v -0.26304 H 211.338 v -0.262 h -0.2098 v -0.262 h -0.20929 v -0.262 h -0.20981 v -0.26303 h -0.20929 v -0.262 h -0.2098 v -0.262 h -0.20878 v -0.262 h -0.21032 v -0.26303 h -0.20877 v -0.262 h -0.21033 v -0.262 h -0.20877 v -0.262 h -0.2098 v -0.262 h -0.20929 v -0.26303 h -0.20878 v -0.262 h -0.21032 v -0.262 h -0.20877 v -0.262 h -0.21033 v -0.26303 h -0.20877 v -0.262 h -0.2098 v -0.262 h -0.20929 v -0.262 h -0.20981 v -0.26303 h -0.20929 v -0.262 h -0.20981 v -0.262 h -0.20877 v -0.262 h -0.20929 v -0.262 h -0.20981 v -0.26304 h -0.20928 v -0.262 h -0.20981 v -0.26199 h -0.20877 v -0.262 h -0.21033 v -0.26304 h -0.20877 v -0.262 h -0.21032 v -0.262 h -0.20878 v -0.262 h -0.2098 v -0.262 h -0.20929 v -0.26303 h -0.20877 v -0.262 h -0.21033 v -0.262 h -0.20877 v -0.262 h -0.21032 v -0.26303 h -0.20878 v -0.262 h -0.2098 v -0.262 h -0.20929 v -0.262 h -0.20981 v -0.26303 h -0.20929 v -0.262 h -0.2098 v -0.262 h -0.20878 v -0.262 h -0.21032 v -0.262 h -0.20877 v -0.26252 h -0.20929 v -0.262 h -0.20981 v -0.262 h -0.20929 v -0.26199 h -0.2098 v -0.26304 h -0.20878 v -0.262 h -0.21032 v -0.262 h -0.20877 v -0.262 h -0.21033 v -0.26303 h -0.20877 v -0.262 h -0.20981 v -0.262 h -0.20928 v -0.262 h -0.20878 v -0.262 h -0.21032 v -0.26303 h -0.20877 v -0.262 h -0.20981 v -0.262 h -0.20929 v -0.262 h -0.20981 v -0.26303 h -0.20929 v -0.262 h -0.2098 v -0.262 h -0.20877 v -0.262 h -0.21033 v -0.26303 h -0.20877 v -0.262 h -0.21032 v -0.262 h -0.20878 v -0.262 h -0.20929 v -0.262 h -0.2098 v -0.26303 h -0.20877 v -0.262 h -0.21033 v -0.262 h -0.20877 v -0.262 h -0.21032 v -0.26304 h -0.20878 v -0.262 h -0.2098 v -0.262 h -0.20929 v -0.26199 h -0.20981 V 207.269 h -0.20929 v -0.262 h -0.20877 v -0.262 h -0.20981 v -0.262 h -0.20929 v -0.262 h -0.2098 v -0.26303 h -0.20929 v -0.262 h -0.20981 v -0.262 h -0.20877 v -0.262 h -0.21032 v -0.26303 h -0.20878 v -0.262 h -0.21032 v -0.262 h -0.20877 v -0.262 h -0.20929 v -0.262 h -0.20981 v -0.26303 h -0.20877 v -0.262 h -0.21033 v -0.262 h -0.20877 v -0.262 h -0.21032 v -0.26303 H 190.392 v -0.262 h -0.20981 v -0.262 h -0.20929 v -0.262 h -0.20981 v -0.26303 h -0.20929 v -0.262 h -0.2098 v -0.262 h -0.20877 v -0.262 h -0.20929 v -0.262 h -0.20981 v -0.26304 h -0.20929 v -0.262 h -0.20981 v -0.26199 h -0.20929 v -0.262 h -0.2098 v -0.26304 h -0.20877 v -0.262 h -0.21033 v -0.262 h -0.20877 v -0.262 h -0.21032 v -0.26303 h -0.20878 v -0.262 h -0.20877 v -0.262 h -0.21032 v -0.262 h -0.20878 v -0.262 h -0.21032 v -0.26251 h -0.20877 v -0.262 h -0.20981 v -0.262 h -0.20929 v -0.262 h -0.2098 v -0.26303 h -0.20929 v -0.262 h -0.20981 v -0.262 h -0.20877 v -0.262 h -0.21033 v -0.26304 h -0.20877 v -0.262 h -0.20929 v -0.262 h -0.2098 v -0.26199 h -0.20929 v -0.262 h -0.20981 v -0.26304 h -0.20877 v -0.262 h -0.21033 v -0.262 h -0.20877 v -0.262 h -0.21032 v -0.26303 h -0.20877 v -0.262 h -0.20981 v -0.262 h -0.20929 v -0.262 h -0.20877 v -0.26303 h -0.21033 v -0.262 h -0.20877 v -0.262 h -0.2098 v -0.262 h -0.20929 v -0.262 h -0.20981 v -0.26303 h -0.20929 v -0.262 h -0.20981 v -0.262 h -0.20877 v -0.262 h -0.21032 v -0.26303 h -0.20878 v -0.262 h -0.20928 v -0.262 h -0.20981 v -0.262 h -0.20929 v -0.262 h -0.20981 v -0.26303 h -0.20877 v -0.262 h -0.21032 v -0.262 h -0.20878 v -0.262 h -0.21032 v -0.26304 H 177.615 v -0.262 h -0.20981 v -0.26199 h -0.20929 v -0.262 h -0.2098 v -0.26304 h -0.20929 v -0.262 h -0.20878 v -0.262 h -0.2098 v -0.262 h -0.20929 v -0.262 h -0.20981 v -0.26303 h -0.20929 v -0.262 h -0.2098 v -0.262 h -0.20929 v -0.262 h -0.20981 v -0.26303 h -0.20877 v -0.262 h -0.21033 v -0.262 h -0.20877 v -0.262 h -0.20929 v -0.26303 h -0.2098 v -0.262 h -0.20878 v -0.262 h -0.21032 v -0.262 h -0.20877 v -0.262 h -0.21033 v -0.26303 h -0.20877 v -0.262 h -0.20981 v -0.262 h -0.20928 v -0.262 h -0.20981 v -0.26303 h -0.20929 v -0.262 h -0.20981 v -0.262 h -0.20877 v -0.262 h -0.20929 v -0.26252 h -0.20981 v -0.262 h -0.20929 v -0.262 h -0.2098 v -0.262 h -0.20929 v -0.262 h -0.20981 v -0.26303 h -0.20877 v -0.262 h -0.21032 v -0.262 h -0.20878 v -0.262 h -0.21032 v -0.26303 h -0.20877 v -0.262 h -0.20877 v -0.262 h -0.21033 v -0.15503 h 5.70921 l 1.21595,-3.25407 h 5.93246 l 0.0114,0.03 0.0289,0.078 h 0.11214 l 0.0708,0.18965 0.0263,0.0724 h 0.11162 l 0.0734,0.19689 0.0248,0.0651 h 0.1111 l 0.076,0.20412 0.0222,0.0579 h 0.1111 l 0.0786,0.21084 0.0202,0.0522 h 0.11163 l 0.0806,0.21601 0.0165,0.046 h 0.11214 l 0.0832,0.22273 0.015,0.0393 h 0.1111 l 0.0858,0.22996 0.0119,0.032 h 0.11214 l 0.0879,0.23564 0.009,0.0264 h 0.11214 l 0.0909,0.24288 0.007,0.0202 h 0.1111 l 0.093,0.24908 0.005,0.0129 h 0.11162 l 0.0956,0.2558 0.003,0.006 h 0.11111 l 0.0977,0.262 h 6.66109 l -2.23087,-6.03116 h 0.14676 v 0.262 h 0.21032 v 0.26304 h 0.20878 v 0.262 h 0.21032 v 0.26199 h 0.20877 v 0.262 h 0.20877 v 0.262 h 0.21033 v 0.26304 h 0.20877 v 0.262 h 0.21032 v 0.262 h 0.20878 v 0.262 h 0.2098 v 0.26303 h 0.20929 v 0.262 h 0.20981 v 0.262 h 0.20929 v 0.262 h 0.2098 v 0.26303 h 0.20878 v 0.262 h 0.20929 v 0.262 h 0.2098 v 0.0269 0.23513 h 0.20929 v 0.0739 0.1881 h 0.20981 v 0.12092 0.14211 h 0.20929 v 0.16795 0.0941 h 0.2098 v 0.21497 0.047 h 0.20878 v 0.262 h 6.1743 v -10.13065 l 0.0217,0.0357 c 0.0344,0.0689 0.0868,0.11964 0.14831,0.16123 l 0.061,0.10077 c 0.0344,0.0688 0.0872,0.11957 0.14883,0.16123 l 0.061,0.10077 c 0.0343,0.0693 0.0868,0.1201 0.14831,0.16175 l 0.061,0.10128 c 0.0344,0.0688 0.0869,0.11988 0.14882,0.16175 l 0.061,0.10025 c 0.0344,0.0694 0.087,0.12031 0.14883,0.16226 l 0.06,0.0997 c 0.035,0.0694 0.088,0.12031 0.14986,0.16226 l 0.0605,0.0997 c 0.0341,0.0694 0.0862,0.12033 0.14779,0.16226 l 0.061,0.10077 c 0.0348,0.069 0.087,0.12063 0.14883,0.16278 l 0.0605,0.0992 c 0.0347,0.0695 0.0874,0.12032 0.14935,0.16227 l 0.0605,0.0997 c 0.0347,0.0695 0.0874,0.12055 0.14934,0.16278 l 0.06,0.0992 c 0.0348,0.0701 0.0875,0.12155 0.14986,0.16382 l 0.0599,0.0987 c 0.0346,0.0691 0.087,0.12093 0.14883,0.16329 l 0.0599,0.0987 c 0.0354,0.0696 0.0884,0.12178 0.15089,0.16433 l 0.0594,0.0977 c 0.0346,0.0698 0.0872,0.12184 0.14934,0.16433 l 0.0594,0.0977 c 0.0353,0.07 0.0884,0.12255 0.1509,0.16536 l 0.0594,0.0966 c 0.0347,0.0705 0.0877,0.12318 0.15038,0.16588 l 0.0584,0.0971 c 0.0353,0.07 0.0883,0.12256 0.15089,0.16536 l 0.0589,0.0966 c 0.0354,0.0707 0.0891,0.12346 0.15193,0.1664 l 0.0574,0.0956 c 0.0352,0.0703 0.0882,0.12326 0.1509,0.1664 l 0.008,0.0129 0.0512,0.0827 c 0.0351,0.0709 0.0883,0.12345 0.1509,0.16639 l 0.0181,0.03 0.0403,0.0667 c 0.0351,0.0701 0.0883,0.1228 0.15089,0.16588 l 0.0279,0.0465 0.03,0.0496 c 0.0358,0.0711 0.0893,0.12425 0.15245,0.16743 l 0.0377,0.062 0.0196,0.0326 c 0.0349,0.0704 0.0882,0.12326 0.15089,0.1664 l 0.0481,0.0796 0.0103,0.016 c 0.0356,0.0712 0.0888,0.12467 0.15193,0.16795 l 0.0579,0.0951 c 0.061,0.121 0.16186,0.2024 0.30386,0.2434 0.142,0.04 0.27333,0.061 0.39533,0.061 0.101,0 0.22283,-0.02 0.36483,-0.061 0.142,-0.041 0.24286,-0.1224 0.30386,-0.2434 l 0.87436,-1.4428 h 0.19482 v 0.26199 h 0.20981 v 0.262 h 0.20929 v 0.262 h 0.20981 v 0.26304 h 0.20929 v 0.262 h 0.2098 v 0.262 h 0.20929 v 0.262 h 0.20878 v 0.26303 h 0.2098 v 0.262 h 0.20929 v 0.0202 0.24185 h 0.20981 v 0.0439 0.21808 h 0.20929 v 0.0687 0.1943 h 0.2098 v 0.092 0.17002 h 0.20878 v 0.11679 0.14521 h 0.21032 v 0.14108 0.12092 h 0.20877 v 0.16588 0.0961 h 0.21033 v 0.18965 0.0734 h 0.20877 v 0.21291 0.0491 h 0.2098 v 0.23771 0.0243 h 0.20929 v 0.262 h 6.17379 v -23.60114 h -0.20981 v -0.21498 -0.047 h -0.20929 v -0.16795 -0.0941 h -0.20981 v -0.12093 -0.14107 h -0.20877 v -0.0739 -0.18914 h -0.21032 v -0.0258 -0.23616 h -0.20877 v -0.262 h -0.20929 v -0.262 h -0.20981 v -0.26304 H 215.553 v -0.262 h -0.21033 v -0.262 h -0.20877 v -0.262 h -0.21032 v -0.26303 h -0.20877 v -0.262 H 214.505 v -0.262 h -0.20929 v -0.262 h -0.20981 v -0.262 h -0.20929 v -0.26303 h -0.20877 v -0.262 h -0.2098 v -0.262 h -0.20929 v -0.262 h -0.20981 v -0.26303 h -0.20929 v -0.262 h -0.20981 v -0.262 h -0.20929 v -0.262 h -0.2098 v -0.26303 h -0.20878 v -0.262 h -0.21032 v -0.262 h -0.20877 v -0.262 h -0.20929 v -0.262 H 211.153 v -0.26303 h -0.20877 v -0.262 h -0.21032 v -0.262 h -0.20878 v -0.262 h -0.21032 v -0.26304 h -0.20877 v -0.26199 h -0.20981 v -0.262 h -0.20929 v -0.262 h -0.2098 v -0.26252 h -0.20929 v -0.262 h -0.20981 v -0.262 h -0.20929 v -0.262 h -0.20877 v -0.262 h -0.20981 v -0.26303 h -0.20929 v -0.262 h -0.2098 v -0.262 h -0.20929 v -0.262 h -0.20981 v -0.26303 h -0.20877 v -0.262 h -0.21033 v -0.262 h -0.20877 v -0.262 h -0.21032 v -0.26303 h -0.20877 v -0.262 h -0.20878 v -0.262 h -0.21032 v -0.262 h -0.20877 v -0.262 h -0.21033 v -0.26304 h -0.20877 v -0.26199 h -0.20981 v -0.262 h -0.20928 v -0.262 h -0.20981 v -0.26304 h -0.20929 v -0.262 h -0.20981 v -0.262 h -0.20929 v -0.262 h -0.20877 v -0.26303 h -0.20981 v -0.262 h -0.20929 v -0.262 h -0.2098 v -0.262 h -0.20929 v -0.262 h -0.20981 v -0.26303 h -0.20877 v -0.262 h -0.21032 v -0.262 h -0.20878 v -0.262 H 202.1458 V 132.903 h -0.20877 v -0.262 h -0.20877 v -0.262 h -0.21033 v -0.262 h -0.20877 v -0.26303 h -0.21032 v -0.262 h -0.20878 v -0.262 h -0.2098 v -0.262 h -0.20929 v -0.262 h -0.20981 v -0.26303 h -0.20929 v -0.262 h -0.2098 v -0.262 h -0.20929 v -0.262 h -0.20981 v -0.26304 h -0.20877 v -0.26199 h -0.20929 v -0.262 h -0.20981 v -0.262 h -0.20929 v -0.262 h -0.2098 v -0.26304 h -0.20878 v -0.262 h -0.21032 v -0.262 h -0.20877 v -0.262 h -0.21033 v -0.26303 h -0.20877 v -0.262 h -0.20981 v -0.262 h -0.20929 v -0.262 h -0.20877 v -0.26303 h -0.21032 v -0.262 h -0.20877 v -0.262 h -0.21033 v -0.262 h -0.20877 v -0.262 h -0.20981 v -0.26303 h -0.20929 v -0.262 h -0.2098 v -0.262 h -0.20929 v -0.262 h -0.20981 v -0.26303 h -0.20877 v -0.262 h -0.20929 v -0.262 h -0.20981 v -0.262 h -0.20929 v -0.26252 h -0.2098 v -0.262 h -0.20878 v -0.262 h -0.21032 v -0.262 h -0.20877 v -0.262 h -0.21032 v -0.26303 h -0.20878 v -0.262 h -0.2098 v -0.262 h -0.20929 v -0.262 h -0.20878 v -0.26303 h -0.21032 v -0.262 h -0.20877 v -0.262 h -0.21032 v -0.262 h -0.20878 v -0.26303 h -0.2098 v -0.262 h -0.20929 v -0.262 h -0.20981 v -0.262 h -0.20929 v -0.262 h -0.20981 v -0.26303 h -0.20877 v -0.262 h -0.21032 v -0.262 h -0.20877 v -0.262 h -0.20929 v -0.26303 h -0.20981 v -0.262 h -0.20877 v -0.262 h -0.21033 v -0.262 h -0.20877 v -0.26304 h -0.21032 v -0.262 h -0.20877 v -0.26199 h -0.21033 v -0.262 h -0.20877 v -0.262 h -0.20981 v -0.26304 h -0.20929 v -0.262 h -0.20877 v -0.262 h -0.21032 v -0.262 h -0.20877 v -0.26303 h -0.20981 v -0.262 h -0.20929 v -0.262 h -0.20981 v -0.262 h -0.20929 v -0.26303 h -0.2098 v -0.262 h -0.20878 v -0.262 h -0.21032 v -0.262 h -0.20877 v -0.262 h -0.20929 v -0.26303 h -0.20981 v -0.262 h -0.20929 v -0.262 h -0.2098 v -0.262 h -0.20878 v -0.26303 h -0.21032 v -0.262 h -0.20877 v -0.262 h -0.21032 v -0.262 h -0.20878 v -0.26303 h -0.2098 v -0.262 h -0.20929 v -0.262 h -0.20878 v -0.262 h -0.21032 v -0.262 h -0.20877 v -0.26304 h -0.20981 v -0.26199 h -0.20929 v -0.262 h -0.2098 v -0.262 h -0.20929 v -0.26304 h -0.20981 v -0.262 h -0.20877 v -0.262 h -0.21033 v -0.262 h -0.20877 v -0.26199 h -0.21032 v -0.26304 h -0.20877 v -0.262 h -0.20929 v -0.262 h -0.20981 v -0.262 h -0.20877 v -0.26251 h -0.21033 v -0.262 h -0.20877 v -0.262 h -0.21032 v -0.262 h -0.20878 v -0.26303 h -0.2098 v -0.262 h -0.20929 v -0.262 h -0.20981 v -0.262 h -0.20929 v -0.262 h -0.20877 v -0.26304 h -0.20981 v -0.26199 h -0.20929 v -0.262 h -0.2098 v -0.262 h -0.20929 v -0.26304 h -0.20981 v -0.262 h -0.20929 v -0.262 h -0.2098 v -0.262 h -0.20878 v -0.262512 h -0.21032 v -0.262516 h -0.20877 v -0.261999 h -0.20929 v -0.262517 h -0.20981 V 98.813607 H 174.7082 V 98.55109 h -0.21032 v -0.261999 h -0.20878 v -0.262516 h -0.21032 v -0.262 h -0.20877 v -0.261999 h -0.20981 v -0.262517 h -0.20929 V 96.97806 h -0.2098 v -0.262516 h -0.20929 v -0.262 h -0.20878 v -0.262516 h -0.2098 v -0.262 h -0.20929 v -0.261999 h -0.20981 v -0.262516 h -0.20929 v -0.262 h -0.20981 v -0.262516 h -0.20928 v -0.262 h -0.20981 v -0.262516 h -0.20877 v -0.262 h -0.21033 v -0.262516 h -0.20877 v -0.261999 h -0.21032 v -0.262517 h -0.20878 V 93.04445 h -0.20877 v -0.262 h -0.21032 v -0.262516 h -0.20877 v -0.261999 h -0.21033 v -0.262517 h -0.20877 v -0.261999 h -0.20981 v -0.262516 h -0.20929 v -0.262 h -0.2098 v -0.262516 h -0.20929 v -0.262 h -0.20981 v -0.261999 h -0.20877 v -0.262517 h -0.20929 v -0.261999 h -0.20981 v -0.262516 h -0.20929 v -0.262 h -0.2098 V 89.11084 h -0.20929 v -0.262 h -0.20981 v -0.261999 h -0.20877 v -0.262516 h -0.21032 v -0.262 h -0.20878 v -0.262516 h -0.21032 v -0.262 H 165.701 v -0.262516 h -0.20878 v -0.262 h -0.21032 v -0.262516 h -0.20877 v -0.261999 h -0.21032 v -0.262517 h -0.20878 v -0.261999 h -0.2098 v -0.262516 h -0.20929 v -0.262 h -0.20981 v -0.261999 h -0.20929 V 84.91523 h -0.20981 v -0.261999 h -0.20929 v -0.262516 h -0.2098 v -0.262 h -0.20877 v -0.262516 h -0.20929 v -0.262 h -0.20981 V 83.3422 h -0.20929 v -0.262517 h -0.20981 v -0.261999 h -0.20877 v -0.262516 h -0.21032 v -0.262 h -0.20877 v -0.262516 h -0.21033 v -0.262 h -0.20877 v -0.262516 h -0.20981 v -0.261999 h -0.20929 v -0.262 h -0.20877 v -0.262516 h -0.21032 v -0.262 h -0.20878 v -0.262516 h -0.2098 v -0.262 h -0.20929 v -0.262516 h -0.20981 V 79.40859 h -0.20929 v -0.262517 h -0.2098 v -0.261999 h -0.20929 v -0.262516 h -0.20981 v -0.262 h -0.20877 v -0.261999 h -0.20929 v -0.262517 h -0.20981 v -0.261999 h -0.20929 v -0.262516 h -0.2098 v -0.262 h -0.20878 v -0.262516 h -0.21032 v -0.262 h -0.20877 v -0.262516 h -0.21033 v -0.262 h -0.20877 v -0.261999 h -0.2098 V 75.47498 h -0.20929 v -0.262 h -0.20878 v -0.262516 h -0.21032 v -0.262 h -0.20877 v -0.262516 h -0.20981 v -0.261999 h -0.20929 v -0.262 h -0.2098 v -0.262516 h -0.20929 v -0.262 h -0.20981 v -0.262516 h -0.20929 v -0.262 h -0.20981 v -0.262516 h -0.20877 v -0.261999 h -0.21032 v -0.262517 h -0.20878 v -0.261999 h -0.20928 V 71.54137 H 152.924 v -0.262 h -0.20877 v -0.262516 h -0.21033 v -0.262 h -0.20877 v -0.261999 h -0.21032 v -0.262516 h -0.20878 v -0.262 h -0.2098 v -0.262516 h -0.20929 v -0.262 h -0.20981 v -0.262516 h -0.20929 v -0.262 h -0.20877 v -0.261999 h -0.21032 v -0.262516 h -0.20878 v -0.262 h -0.2098 v -0.262516 h -0.20929 v -0.262 h -0.20981 V 67.34576 h -0.20929 v -0.261999 h -0.2098 v -0.262517 h -0.20878 v -0.261999 h -0.21032 v -0.262 h -0.20877 v -0.262516 h -0.20929 v -0.262 h -0.20981 v -0.262516 h -0.20877 v -0.261999 h -0.21032 v -0.262517 h -0.20878 v -0.261999 h -0.21032 v -0.262516 h -0.20877 v -0.262 h -0.20981 v -0.262516 h -0.20929 v -0.262 h -0.20981 v -0.261999 h -0.20928 v -0.262516 h -0.20878 v -0.262 h -0.21032 v -0.262516 h -0.20877 v -0.262 h -0.20981 v -0.262516 h -0.20929 v -0.262 h -0.20981 V 61.57712 h -0.20929 v -0.262516 h -0.2098 v -0.262 h -0.20877 v -0.262516 h -0.21033 v -0.262 h -0.20877 v -0.262516 h -0.21032 v -0.261999 h -0.20878 v -0.262517 h -0.20877 v -0.261999 h -0.21032 v -0.262 h -0.20877 v -0.262516 h -0.21033 v -0.261999 h -0.20877 v -0.262517 h -0.20981 v -0.261999 h -0.20929 v -0.262517 h -0.2098 V 57.64351 h -0.20929 v -0.262516 h -0.20981 v -0.262 h -0.20929 V 56.856478 H 141.195 v -0.262 h -0.20981 v -0.261999 h -0.20929 v -0.262516 h -0.2098 v -0.262 h -0.20929 V 55.545447 H 140.147 v -0.262 h -0.20877 v -0.262516 h -0.21032 v -0.262 h -0.20878 v -0.261999 h -0.21032 v -0.262516 h -0.20877 v -0.262 h -0.20929 V 53.7099 h -0.20981 v -0.262 h -0.20877 v -0.262516 h -0.21033 v -0.261999 h -0.20877 v -0.262517 h -0.21032 v -0.261999 h -0.20877 v -0.262516 h -0.20981 v -0.262 h -0.20929 v -0.261999 h -0.20981 v -0.262517 h -0.20929 v -0.261999 h -0.20877 v -0.262517 h -0.2098 v -0.261999 h -0.20929 v -0.262516 h -0.20981 v -0.262 h -0.20929 V 49.77629 h -0.20981 v -0.262 h -0.20877 v -0.261999 h -0.21032 v -0.262516 h -0.20877 v -0.262 h -0.21033 v -0.262516 h -0.20877 v -0.262 h -0.20981 v -0.262516 h -0.20929 v -0.262 h -0.20877 v -0.261999 h -0.21032 v -0.262516 h -0.20878 v -0.262 h -0.21032 v -0.262516 h -0.20877 v -0.262 h -0.20981 v -0.262516 h -0.20929 v -0.261999 h -0.2098 V 45.58068 h -0.20929 v -0.261999 h -0.20981 v -0.262516 h -0.20877 v -0.262 h -0.20929 v -0.262516 h -0.20981 v -0.262 h -0.20929 V 44.00765 h -0.2098 v -0.262517 h -0.20878 v -0.261999 h -0.21032 v -0.262516 h -0.20877 v -0.262 h -0.21033 v -0.262516 h -0.20877 v -0.262 h -0.2098 v -0.261999 h -0.20929 v -0.262516 h -0.20878 v -0.262 h -0.21032 v -0.262516 h -0.20877 v -0.262 h -0.21033 V 40.860555 H 128.418 v -0.261999 h -0.20981 v -0.262517 h -0.20928 V 40.07404 h -0.20981 v -0.262 h -0.20929 V 39.549524 H 127.37 v -0.262 h -0.20877 v -0.262516 h -0.20929 v -0.261999 h -0.20981 v -0.262517 h -0.20928 v -0.261999 h -0.20981 v -0.262516 h -0.20929 v -0.262 h -0.20981 v -0.262516 h -0.20877 v -0.262 h -0.21032 v -0.261999 h -0.20878 v -0.262517 h -0.21032 v -0.261999 h -0.20877 V 36.14043 h -0.20981 v -0.262 h -0.20929 v -0.262516 h -0.20877 v -0.262 h -0.21032 v -0.262516 h -0.20878 v -0.261999 h -0.2098 v -0.262 h -0.20929 v -0.262516 h -0.20981 v -0.262 h -0.20929 v -0.262516 h -0.2098 v -0.261999 h -0.20878 v -0.262517 h -0.21032 v -0.261999 h -0.20877 v -0.262 h -0.20929 v -0.262516 h -0.20981 v -0.262 h -0.20929 V 31.94482 h -0.2098 v -0.261999 h -0.20878 v -0.262517 h -0.21032 v -0.261999 h -0.20877 v -0.262516 h -0.21033 v -0.262 h -0.20877 v -0.262516 h -0.20981 v -0.262 h -0.20928 v -0.262516 h -0.20878 v -0.262 h -0.21032 v -0.261999 h -0.20877 v -0.262516 h -0.20981 v -0.262 h -0.20929 v -0.262516 h -0.20981 v -0.262 h -0.20929 V 28.01121 h -0.2098 v -0.261999 h -0.20877 v -0.262 h -0.21033 v -0.262516 h -0.20877 v -0.262 h -0.20929 v -0.262516 h -0.20981 V 26.43818 h -0.20929 v -0.262517 h -0.2098 v -0.261999 h -0.20877 v -0.262517 h -0.21033 v -0.261999 h -0.20877 v -0.262 h -0.19792 -0.0124 v -0.262516 h -0.18552 -0.0233 v -0.261999 h -0.17518 -0.0346 v -0.262517 h -0.1633 -0.046 v -0.261999 h -0.15193 -0.0579 v -0.262516 h -0.14004 -0.0693 v -0.262 h -0.12867 -0.0801 v -0.262516 h -0.11679 -0.093 v -0.262 h -0.10542 -0.10387 v -0.262516 h -0.0941 -0.11575 v -0.262 h -0.0822 -0.12712 V 22.24257 h -0.0708 -0.13901 v -0.262516 h -0.0589 -0.15038 v -0.262 h -0.0475 -0.16227 v -0.262516 h -0.0351 -0.17364 v -0.262 h -0.0243 -0.18603 v -0.262516 h -0.0119 -0.19688 v -0.261999 h -0.001 -5.80791 -0.001 c -0.183,4e-4 -0.34428,0.09179 -0.48628,0.273885 l -4.8395,8.032068 -0.0992,-0.165365 c -0.008,-0.0109 -0.019,-0.01602 -0.031,-0.01602 -0.0195,-0.02513 -0.0439,-0.03539 -0.0646,-0.05684 l -0.11369,-0.189136 c -0.009,-0.0105 -0.019,-0.01602 -0.03,-0.01602 -0.0203,-0.02598 -0.0456,-0.03634 -0.0672,-0.0584 l -0.11265,-0.188102 c -0.008,-0.0102 -0.0169,-0.01499 -0.0289,-0.01499 -0.0201,-0.0258 -0.0453,-0.03594 -0.0667,-0.05788 l -0.11318,-0.189135 c -0.008,-0.0098 -0.0174,-0.01499 -0.0284,-0.01499 -0.0213,-0.02727 -0.0476,-0.03853 -0.0703,-0.06149 l -0.11162,-0.186036 c -0.007,-0.0094 -0.0159,-0.01395 -0.0269,-0.01395 -0.021,-0.0271 -0.0474,-0.03812 -0.0698,-0.06098 l -0.11214,-0.187069 c -0.007,-0.0091 -0.0164,-0.01344 -0.0264,-0.01344 -0.0221,-0.02844 -0.0497,-0.0403 -0.0734,-0.06408 l -0.11058,-0.184485 c -0.007,-0.0087 -0.01459,-0.01344 -0.02429,-0.01344 -0.02214,-0.02846 -0.0497,-0.04027 -0.07338,-0.06408 l -0.111104,-0.185002 c -0.0065,-0.0084 -0.01447,-0.0124 -0.02377,-0.0124 -0.02305,-0.02962 -0.05176,-0.04207 -0.07648,-0.06666 l -0.109555,-0.182934 c -0.0062,-0.008 -0.01384,-0.0124 -0.02274,-0.0124 -0.02308,-0.02965 -0.05174,-0.04205 -0.07648,-0.06666 L 99.37876,26.44954 c -0.006,-0.0076 -0.0132,-0.01137 -0.0217,-0.01137 -0.02352,-0.03023 -0.05278,-0.0432 -0.07803,-0.06821 l -0.109554,-0.182418 c -0.0056,-0.0073 -0.01257,-0.01085 -0.02067,-0.01085 -0.0241,-0.03098 -0.05418,-0.04425 -0.0801,-0.06976 l -0.109037,-0.181901 c -0.0054,-0.0069 -0.01194,-0.01034 -0.01964,-0.01034 -0.02449,-0.03148 -0.05478,-0.04496 -0.08113,-0.0708 l -0.10852,-0.180868 c -0.0051,-0.0065 -0.0114,-0.0098 -0.0186,-0.0098 -0.02487,-0.03195 -0.05589,-0.04567 -0.08268,-0.07183 l -0.108004,-0.18035 c -0.0049,-0.0062 -0.01067,-0.0093 -0.01757,-0.0093 -0.02551,-0.0328 -0.05722,-0.04719 -0.08475,-0.0739 l -0.107487,-0.179317 c -0.0045,-0.0059 -0.01004,-0.0088 -0.01654,-0.0088 -0.02589,-0.03325 -0.05783,-0.04793 -0.08578,-0.07493 l -0.10697,-0.178283 c -0.0042,-0.0054 -0.0094,-0.0083 -0.0155,-0.0083 -0.02621,-0.03367 -0.0585,-0.04869 -0.08682,-0.07597 l -0.10697,-0.178284 c -0.004,-0.0051 -0.0089,-0.0078 -0.01447,-0.0078 -0.02695,-0.03462 -0.06022,-0.05016 -0.0894,-0.07803 L 97.70308,24.352002 c -0.0036,-0.0048 -0.0081,-0.0072 -0.01344,-0.0072 -0.02705,-0.03477 -0.06062,-0.05005 -0.08992,-0.07803 l -0.105936,-0.17725 c -0.0034,-0.0043 -0.0075,-0.0062 -0.0124,-0.0062 -0.02754,-0.03539 -0.0616,-0.05122 -0.09147,-0.07958 l -0.10542,-0.176217 c -0.0031,-0.004 -0.007,-0.0062 -0.01137,-0.0062 -0.02828,-0.03635 -0.06332,-0.05269 -0.09405,-0.08165 L 97.074695,23.56497 c -0.0029,-0.0036 -0.0063,-0.0052 -0.01034,-0.0052 -0.02856,-0.03668 -0.06353,-0.05351 -0.09457,-0.08268 l -0.104387,-0.17415 c -0.0025,-0.0033 -0.0056,-0.0052 -0.0093,-0.0052 -0.02878,-0.03699 -0.0643,-0.05383 -0.0956,-0.0832 l -0.104386,-0.17415 c -0.0023,-0.0029 -0.0051,-0.0041 -0.0083,-0.0041 -0.0296,-0.03805 -0.06592,-0.05578 -0.09819,-0.08578 l -0.103353,-0.172082 c -0.002,-0.0025 -0.0044,-0.0036 -0.0072,-0.0036 -0.0298,-0.03831 -0.06621,-0.05614 -0.0987,-0.0863 L 96.23702,22.516455 c -0.0017,-0.0022 -0.0038,-0.0036 -0.0062,-0.0036 -0.03024,-0.03886 -0.06724,-0.05683 -0.100253,-0.08733 L 96.02773,22.253939 c -0.0014,-0.0018 -0.0031,-0.0026 -0.0052,-0.0026 -0.03099,-0.03983 -0.06895,-0.05885 -0.102836,-0.08992 L 95.817891,21.99192 c -0.0011,-0.0014 -0.0025,-0.0026 -0.0041,-0.0026 -0.03115,-0.04001 -0.06929,-0.05873 -0.103353,-0.08992 l -0.101803,-0.170015 c -9e-4,-0.0011 -0.0019,-0.0016 -0.0031,-0.0016 -0.03164,-0.04064 -0.07027,-0.05992 -0.104903,-0.09147 l -0.101286,-0.168981 -0.0021,-0.001 c -0.03196,-0.04106 -0.07092,-0.0607 -0.105937,-0.0925 l -0.101286,-0.168982 -0.0015,-5.17e-4 c -0.03239,-0.04164 -0.07196,-0.0614 -0.107487,-0.09353 l -0.100769,-0.167948 c -0.142,-0.1825 -0.314065,-0.273885 -0.516764,-0.273885 h -5.778459 v 0.001 14.159343 h -0.05478 l -0.09715,-0.262 h -0.112138 l -0.09715,-0.262516 h -0.112655 l -0.09663,-0.262 h -0.112654 l -0.09715,-0.262516 h -0.112138 l -0.09715,-0.261999 h -0.112137 l -0.09715,-0.262517 h -0.112655 l -0.09715,-0.261999 H 87.16422 l -0.09715,-0.262 h -0.112138 l -0.09715,-0.262516 h -0.112654 l -0.09715,-0.262 H 86.53584 l -0.09715,-0.262516 h -0.112138 l -0.09715,-0.261999 h -0.112655 l -0.09715,-0.262517 h -0.112138 l -0.09715,-0.261999 h -0.112138 l -0.09715,-0.262516 h -0.112655 l -0.09715,-0.262 h -0.112138 l -0.09715,-0.262516 H 85.06979 l -0.09715,-0.262 h -0.112654 l -0.09715,-0.262516 h -0.112138 l -0.09715,-0.262 H 84.44141 l -0.09715,-0.261999 h -0.112655 l -0.09715,-0.262516 h -0.112137 l -0.09715,-0.262 H 83.81303 l -0.09715,-0.262516 h -0.112138 l -0.09715,-0.262 h -0.112655 l -0.09715,-0.262516 H 83.18465 L 83.0875,27.749127 h -0.112138 l -0.09715,-0.262 h -0.112654 l -0.09715,-0.262516 H 82.55627 l -0.09715,-0.262 h -0.112654 l -0.09715,-0.262516 h -0.112138 l -0.09715,-0.261999 H 81.92789 L 81.83074,26.175579 H 81.718085 L 81.620935,25.91358 H 81.50872 l -0.09715,-0.262517 h -0.11214 l -0.09715,-0.261999 h -0.112138 l -0.09715,-0.262 h -0.112655 l -0.09715,-0.262516 h -0.112138 l -0.09715,-0.261999 h -0.112138 l -0.09715,-0.262517 h -0.112655 l -0.09715,-0.261999 H 80.04266 l -0.09715,-0.262516 h -0.11214 l -0.09715,-0.262 h -0.112654 l -0.09715,-0.262516 h -0.112138 l -0.09715,-0.262 h -0.100769 -0.01137 l -0.09715,-0.262516 h -0.08992 -0.02274 l -0.09715,-0.262 h -0.07855 -0.03359 l -0.09715,-0.261999 h -0.0677 -0.04444 l -0.09715,-0.262516 h -0.05684 -0.05581 l -0.09715,-0.262 h -0.04547 -0.06666 l -0.09715,-0.262516 h -0.03411 -0.07855 l -0.09664,-0.262 h -0.02325 -0.0894 l -0.09715,-0.262516 h -0.01189 -0.100252 l -0.09715,-0.261999 h -0.001 -5.565035 l -5.17e-4,10e-4 v 5.17e-4 l -4.95732,13.403316 c -0.0079,-0.0089 -0.01638,-0.01695 -0.02429,-0.02584 1.99e-4,-1.33e-4 0.02274,-0.0155 0.02274,-0.0155 l -5.16e-4,-5.17e-4 c -0.07384,-0.08716 -0.156079,-0.161728 -0.231511,-0.246496 1.89e-4,-1.26e-4 0.02222,-0.01499 0.02222,-0.01499 v -5.17e-4 c -0.074,-0.08734 -0.156429,-0.162073 -0.232027,-0.247014 l 0.02274,-0.01499 -5.17e-4,-5.17e-4 c -0.07384,-0.08715 -0.156079,-0.161733 -0.231511,-0.246496 l 0.02274,-0.01499 -5.17e-4,-5.17e-4 c -0.074,-0.08734 -0.156429,-0.162068 -0.232027,-0.247013 l 0.02274,-0.01499 V 32.983 c -0.07384,-0.08716 -0.156079,-0.161729 -0.231511,-0.246497 1.89e-4,-1.26e-4 0.02222,-0.01499 0.02222,-0.01499 L 65.858512,32.721 c -0.07385,-0.08715 -0.156073,-0.161733 -0.23151,-0.246496 1.99e-4,-1.33e-4 0.02274,-0.0155 0.02274,-0.0155 l -5.17e-4,-5.17e-4 c -0.07384,-0.08716 -0.156079,-0.161729 -0.231511,-0.246497 l 0.02274,-0.01499 -5.17e-4,-5.17e-4 c -0.074,-0.08734 -0.156429,-0.162067 -0.232027,-0.247013 l 0.02274,-0.01499 -5.17e-4,-5.17e-4 c -0.07388,-0.0872 -0.156039,-0.161691 -0.23151,-0.246496 l 0.02274,-0.01499 -5.17e-4,-5.16e-4 c -0.07384,-0.08716 -0.156079,-0.161729 -0.23151,-0.246497 1.89e-4,-1.26e-4 0.02222,-0.01499 0.02222,-0.01499 v -5.17e-4 c -0.074,-0.08734 -0.156429,-0.162067 -0.232027,-0.247013 l 0.02274,-0.01499 -5.16e-4,-5.17e-4 c -0.07384,-0.08715 -0.156079,-0.161734 -0.231511,-0.246497 l 0.02274,-0.01499 -5.17e-4,-5.17e-4 c -0.074,-0.08734 -0.156429,-0.162072 -0.232027,-0.247013 l 0.02274,-0.01499 v -5.17e-4 c -0.07384,-0.08716 -0.156078,-0.161729 -0.23151,-0.246497 1.89e-4,-1.25e-4 0.02222,-0.01499 0.02222,-0.01499 l -5.17e-4,-5.17e-4 c -0.07384,-0.08715 -0.156079,-0.161733 -0.23151,-0.246496 1.99e-4,-1.33e-4 0.02274,-0.0155 0.02274,-0.0155 l -5.16e-4,-5.17e-4 c -0.07384,-0.08715 -0.156079,-0.161733 -0.231511,-0.246496 1.89e-4,-1.26e-4 0.02222,-0.01499 0.02222,-0.01499 v -5.16e-4 c -0.07384,-0.08716 -0.156079,-0.161729 -0.23151,-0.246497 1.89e-4,-1.26e-4 0.02222,-0.01499 0.02222,-0.01499 l -5.16e-4,-5.17e-4 c -0.07395,-0.08727 -0.155969,-0.162133 -0.231511,-0.247013 l 0.02274,-0.01499 -5.17e-4,-5.17e-4 c -0.07384,-0.08715 -0.156078,-0.161733 -0.23151,-0.246497 l 0.02274,-0.01499 -5.16e-4,-5.17e-4 c -0.074,-0.08734 -0.15643,-0.162067 -0.232028,-0.247013 l 0.02274,-0.01499 -5.17e-4,-5.17e-4 c -0.07386,-0.08718 -0.156059,-0.161708 -0.23151,-0.246496 l 0.02274,-0.01499 -5.16e-4,-5.16e-4 c -0.07384,-0.08715 -0.156079,-0.161734 -0.231511,-0.246497 2e-4,-1.32e-4 0.02274,-0.0155 0.02274,-0.0155 l -5.17e-4,-5.17e-4 c -0.07384,-0.08715 -0.156078,-0.161733 -0.23151,-0.246496 1.89e-4,-1.26e-4 0.02222,-0.01499 0.02222,-0.01499 l -5.17e-4,-5.17e-4 c -0.07394,-0.08728 -0.155973,-0.162133 -0.231511,-0.247014 l 0.02274,-0.01499 -5.17e-4,-5.16e-4 C 61.8051,27.651157 61.722861,27.576573 61.64743,27.49181 l 0.02274,-0.01499 -5.17e-4,-5.17e-4 c -0.074,-0.08734 -0.156429,-0.162072 -0.232027,-0.247013 l 0.02274,-0.01499 -5.17e-4,-5.17e-4 c -0.07388,-0.0872 -0.156039,-0.161686 -0.23151,-0.246497 l 0.02274,-0.01499 -5.17e-4,-5.17e-4 c -0.074,-0.08734 -0.156429,-0.162073 -0.232027,-0.247013 l 0.02274,-0.01499 c -0.074,-0.08734 -0.156429,-0.162072 -0.232027,-0.247014 l 0.02274,-0.01499 v -5.17e-4 c -0.07384,-0.08716 -0.156079,-0.161728 -0.231511,-0.246496 1.89e-4,-1.26e-4 0.02222,-0.01499 0.02222,-0.01499 l -5.17e-4,-5.17e-4 c -0.07384,-0.08716 -0.156078,-0.161729 -0.23151,-0.246497 1.99e-4,-1.32e-4 0.02274,-0.0155 0.02274,-0.0155 l -5.17e-4,-5.16e-4 c -0.07384,-0.08715 -0.156079,-0.161734 -0.23151,-0.246497 l 0.02222,-0.01499 -5.16e-4,-5.17e-4 c -0.07394,-0.08728 -0.155974,-0.162133 -0.231511,-0.247013 l 0.02274,-0.01499 -5.17e-4,-5.17e-4 c -0.07384,-0.08716 -0.156079,-0.161729 -0.23151,-0.246497 l 0.02274,-0.01499 -5.16e-4,-5.17e-4 c -0.074,-0.08734 -0.156429,-0.162072 -0.232028,-0.247013 l 0.02274,-0.01499 -5.17e-4,-5.17e-4 c -0.07388,-0.0872 -0.156039,-0.161691 -0.23151,-0.246496 l 0.02274,-0.01499 -5.16e-4,-5.16e-4 C 58.12867,23.132082 56.669006,22.007392 54.986308,21.216793 l -5.17e-4,-5.17e-4 c -1.662398,-0.810799 -3.425952,-1.216463 -5.29115,-1.216463 z M 188.77142,169.354 h 0.0346 v 0.0941 z m 2.06654,83.36908 h 0.0419 v 0.11317 z m -23.82903,4.98315 h 0.016 l -0.016,0.0429 z" /><g
     id="g2"
     transform="translate(2.435e-4,0.12291611)"><path
       style="fill:#f9f9f9;stroke-width:0.160865"
       d="m 44.767293,59.469755 c -0.03217,0.248113 -0.05478,0.499286 -0.05478,0.756026 v 29.302084 c 0,3.23161 2.629198,5.86063 5.860624,5.86063 h 48.607369 c 3.231464,0 5.860634,-2.62902 5.860634,-5.86063 V 60.225781 c 0,-0.25674 -0.0226,-0.507913 -0.0548,-0.756026 z"
       id="path16" /><path
       id="path5"
       style="fill:#f44336;fill-opacity:1;stroke-width:0.160865"
       d="m 50.573142,54.365671 c -2.974716,0 -5.433052,2.229204 -5.805847,5.104081 h 60.219065 c -0.37279,-2.874877 -2.83112,-5.104081 -5.805854,-5.104081 z" /><g
       id="g1"><path
         style="fill:#798388;fill-opacity:1;stroke-width:0.160865"
         d="m 49.787227,83.040591 h 14.612028 c 0.816296,0 1.477946,0.661665 1.477946,1.477946 0,0.816083 -0.661866,1.477429 -1.477946,1.477429 H 49.787227 c -0.815895,0 -1.477429,-0.661148 -1.477429,-1.477429 0,-0.816281 0.661534,-1.477946 1.477429,-1.477946 z"
         id="path29" /><path
         style="fill:#798388;fill-opacity:1;stroke-width:0.160865"
         d="m 49.787227,77.783547 h 25.239286 c 0.816084,0 1.47743,0.661146 1.47743,1.47743 0,0.81628 -0.661138,1.477946 -1.47743,1.477946 H 49.787227 c -0.815893,0 -1.477429,-0.661666 -1.477429,-1.477946 0,-0.816284 0.661536,-1.47743 1.477429,-1.47743 z"
         id="path28" /><path
         style="fill:#798388;fill-opacity:1;stroke-width:0.160865"
         d="m 63.674235,67.326821 h 1.459859 v 4.985226 h -1.459859 z"
         id="path24" /><path
         style="fill:#798388;fill-opacity:1;stroke-width:0.160865"
         d="m 59.051778,67.326821 h 1.399914 v 3.721737 h 2.586923 v 1.263489 h -3.986837 z"
         id="path23" /><path
         id="path22"
         style="fill:#798388;fill-opacity:1;stroke-width:0.160865"
         d="m 73.856559,67.183161 c -0.36312,10e-7 -0.706103,0.07015 -1.028878,0.211356 -0.322776,0.13617 -0.604899,0.325326 -0.846977,0.567408 -0.237034,0.237032 -0.426188,0.516967 -0.567407,0.839742 -0.136162,0.317726 -0.204122,0.658521 -0.204122,1.021643 0,0.363116 0.06796,0.706102 0.204122,1.028878 0.141219,0.322769 0.330373,0.602704 0.567407,0.839742 0.242078,0.237032 0.524201,0.425676 0.846977,0.56689 0.322775,0.136169 0.665758,0.204639 1.028878,0.204639 0.36312,0 0.706103,-0.06847 1.028878,-0.204639 0.32277,-0.141214 0.602702,-0.329858 0.839742,-0.56689 0.242072,-0.237038 0.431234,-0.516973 0.567407,-0.839742 0.141213,-0.322776 0.211873,-0.665762 0.211873,-1.028878 0,-0.363122 -0.07066,-0.706104 -0.211873,-1.028878 -0.136173,-0.322776 -0.325335,-0.602704 -0.567407,-0.839742 -0.23704,-0.237038 -0.516972,-0.424003 -0.839742,-0.560173 -0.322775,-0.141215 -0.665758,-0.211356 -1.028878,-0.211356 z m 0,1.368909 c 0.171472,0 0.330721,0.03534 0.476973,0.105936 0.151304,0.06556 0.279594,0.156339 0.385507,0.272335 0.11096,0.115997 0.196838,0.252417 0.257348,0.408761 0.06051,0.151296 0.09095,0.312733 0.09095,0.484208 0,0.171473 -0.03044,0.335098 -0.09095,0.491443 -0.06052,0.151295 -0.146403,0.287721 -0.257348,0.40876 -0.105913,0.115999 -0.234203,0.20896 -0.385507,0.27957 -0.146252,0.06556 -0.305501,0.0987 -0.476973,0.0987 -0.171472,0 -0.332905,-0.03313 -0.484208,-0.0987 -0.146258,-0.07061 -0.274562,-0.163572 -0.385506,-0.27957 -0.105914,-0.12104 -0.191779,-0.257465 -0.257349,-0.40876 -0.06051,-0.156345 -0.09095,-0.31997 -0.09095,-0.491443 0,-0.171475 0.03044,-0.332912 0.09095,-0.484208 0.06557,-0.156344 0.151436,-0.292764 0.257349,-0.408761 0.110944,-0.115995 0.239248,-0.206765 0.385506,-0.272335 0.151303,-0.07061 0.312736,-0.105936 0.484208,-0.105936 z" /><path
         id="path21"
         style="fill:#798388;fill-opacity:1;stroke-width:0.160865"
         d="m 55.942924,67.183161 c -0.363121,10e-7 -0.706103,0.07015 -1.028878,0.211356 -0.322774,0.13617 -0.605413,0.325326 -0.847494,0.567408 -0.237032,0.237032 -0.426192,0.516967 -0.567407,0.839742 -0.136172,0.317726 -0.204122,0.658521 -0.204122,1.021643 0,0.363116 0.06795,0.706102 0.204122,1.028878 0.141215,0.322769 0.330375,0.602704 0.567407,0.839742 0.242081,0.237032 0.52472,0.425676 0.847494,0.56689 0.322775,0.136169 0.665757,0.204639 1.028878,0.204639 0.363117,0 0.706107,-0.06847 1.028877,-0.204639 0.322775,-0.141214 0.602188,-0.329858 0.839226,-0.56689 0.242075,-0.237038 0.431236,-0.516973 0.567407,-0.839742 0.141213,-0.322776 0.211873,-0.665762 0.211873,-1.028878 0,-0.363122 -0.07066,-0.706104 -0.211873,-1.028878 -0.136171,-0.322776 -0.325332,-0.602704 -0.567407,-0.839742 -0.237038,-0.237038 -0.516451,-0.424003 -0.839226,-0.560173 -0.32277,-0.141215 -0.66576,-0.211356 -1.028877,-0.211356 z m 0,1.368909 c 0.171469,0 0.330199,0.03534 0.476456,0.105936 0.151302,0.06556 0.279597,0.156339 0.385507,0.272335 0.110949,0.115997 0.196828,0.252417 0.257348,0.408761 0.06052,0.151296 0.09095,0.312733 0.09095,0.484208 0,0.171473 -0.03043,0.335098 -0.09095,0.491443 -0.06052,0.151295 -0.146399,0.287721 -0.257348,0.40876 -0.10591,0.115999 -0.234205,0.20896 -0.385507,0.27957 -0.146257,0.06556 -0.304987,0.0987 -0.476456,0.0987 -0.171474,0 -0.332907,-0.03313 -0.484209,-0.0987 -0.146252,-0.07061 -0.275074,-0.163572 -0.386022,-0.27957 -0.105914,-0.12104 -0.191789,-0.257465 -0.257349,-0.40876 -0.06052,-0.156345 -0.09043,-0.31997 -0.09043,-0.491443 0,-0.171475 0.02991,-0.332912 0.09043,-0.484208 0.06556,-0.156344 0.151438,-0.292764 0.257349,-0.408761 0.110948,-0.115995 0.23977,-0.206765 0.386022,-0.272335 0.151302,-0.07061 0.312735,-0.105936 0.484209,-0.105936 z" /><path
         style="fill:#798388;fill-opacity:1;stroke-width:0.160865"
         d="m 65.822424,66.441604 h 5.031217 v 1.346688 l -0.105936,0.105937 h -1.611788 v 4.417818 h -1.595768 v -4.417818 h -1.611788 l -0.105937,-0.105937 z"
         id="path20" /><path
         id="path19"
         style="fill:#798388;fill-opacity:1;stroke-width:0.160865"
         d="m 48.309798,66.441604 v 5.870443 h 1.573547 v -1.823145 h 1.066602 c 0.282423,0 0.552042,-0.05325 0.809253,-0.159163 0.262249,-0.110954 0.491639,-0.259363 0.68833,-0.445968 0.201734,-0.191648 0.360975,-0.413942 0.476973,-0.666109 0.121045,-0.252168 0.181385,-0.524494 0.181385,-0.817004 0,-0.287472 -0.06034,-0.552187 -0.181385,-0.794267 -0.115998,-0.242081 -0.275239,-0.448649 -0.476973,-0.620117 -0.196691,-0.171474 -0.426081,-0.30519 -0.68833,-0.40101 -0.257211,-0.09582 -0.52683,-0.14366 -0.809253,-0.14366 z m 1.611271,1.301213 h 0.91519 c 0.09078,0 0.176648,0.0174 0.257348,0.05271 0.08069,0.03026 0.151354,0.07591 0.211874,0.136425 0.06052,0.05548 0.10836,0.120721 0.14366,0.196371 0.03531,0.07565 0.05271,0.159334 0.05271,0.250114 0,0.09078 -0.0174,0.173947 -0.05271,0.249597 -0.0353,0.07565 -0.08314,0.143602 -0.14366,0.204122 -0.06052,0.05547 -0.131184,0.100599 -0.211874,0.135909 -0.08069,0.03026 -0.166568,0.04547 -0.257348,0.04547 h -0.91519 z" /></g></g><path
     id="path1"
     style="fill:#5c6bc0;stroke-width:1.09875"
     d="m 90.467346,66.441423 c -3.640942,0 -6.592362,2.951936 -6.592362,6.592879 0,3.640931 2.95142,6.592362 6.592362,6.592362 3.64094,0 6.59236,-2.951431 6.59236,-6.592362 0,-3.640943 -2.95142,-6.592879 -6.59236,-6.592879 z m 0,15.382523 c -3.050901,0 -5.432253,0.243202 -7.217647,0.991671 -1.911551,0.80132 -3.08266,2.159845 -3.707268,4.134631 -0.230858,0.7299 0.31595,1.466577 1.073837,1.466577 h 19.694922 c 0.76099,0 1.31172,-0.739846 1.07901,-1.473811 -0.62651,-1.974897 -1.801884,-3.332816 -3.716574,-4.132048 -1.78382,-0.744623 -4.16163,-0.98702 -7.20628,-0.98702 z" /><text
     xml:space="preserve"
     transform="matrix(0.80541237,0,0,0.80541237,-68.672761,-238.98269)"
     id="text1040"
     style="font-style:normal;font-variant:normal;font-weight:normal;font-stretch:normal;font-size:40px;line-height:1.25;font-family:PRIMETIME;-inkscape-font-specification:'PRIMETIME, Normal';font-variant-ligatures:normal;font-variant-caps:normal;font-variant-numeric:normal;font-variant-east-asian:normal;letter-spacing:0px;word-spacing:0px;white-space:pre;shape-inside:url(#rect1040);fill:#ffd500;fill-opacity:1;stroke:none"><tspan
       x="128.77148"
       y="458.12891"
       id="tspan2">MAZ</tspan></text><text
     xml:space="preserve"
     transform="matrix(0.76034063,0,0,0.76034063,-58.889959,-37.748702)"
     id="text3057"
     style="font-style:normal;font-variant:normal;font-weight:normal;font-stretch:normal;font-size:40px;line-height:1.25;font-family:PRIMETIME;-inkscape-font-specification:'PRIMETIME, Normal';font-variant-ligatures:normal;font-variant-caps:normal;font-variant-numeric:normal;font-variant-east-asian:normal;letter-spacing:0px;word-spacing:0px;white-space:pre;shape-inside:url(#rect3058);fill:#ffd500;fill-opacity:1;stroke:none"><tspan
       x="124.65039"
       y="107.87109"
       id="tspan4">GAM</tspan></text></svg>
