<?xml version="1.0" encoding="UTF-8" standalone="no"?>
<!-- Created with Inkscape (http://www.inkscape.org/) -->

<svg
   width="67.73333mm"
   height="67.73333mm"
   viewBox="0 0 67.733327 67.733327"
   version="1.1"
   id="svg1"
   xml:space="preserve"
   sodipodi:docname="C3.svg"
   inkscape:version="1.3 (0e150ed6c4, 2023-07-21)"
   xmlns:inkscape="http://www.inkscape.org/namespaces/inkscape"
   xmlns:sodipodi="http://sodipodi.sourceforge.net/DTD/sodipodi-0.dtd"
   xmlns="http://www.w3.org/2000/svg"
   xmlns:svg="http://www.w3.org/2000/svg"><sodipodi:namedview
     id="namedview1"
     pagecolor="#ffffff"
     bordercolor="#999999"
     borderopacity="1"
     inkscape:showpageshadow="2"
     inkscape:pageopacity="0"
     inkscape:pagecheckerboard="0"
     inkscape:deskcolor="#d1d1d1"
     inkscape:document-units="mm"
     inkscape:zoom="1.5862247"
     inkscape:cx="222.22576"
     inkscape:cy="122.61819"
     inkscape:window-width="1920"
     inkscape:window-height="1001"
     inkscape:window-x="-9"
     inkscape:window-y="-9"
     inkscape:window-maximized="1"
     inkscape:current-layer="svg1" /><defs
     id="defs1"><rect
       x="128.7717"
       y="414.12979"
       width="302.87103"
       height="109.1984"
       id="rect1040" /><rect
       x="124.651"
       y="63.870762"
       width="290.50894"
       height="105.07771"
       id="rect3058" /></defs><path
     id="rect1-3"
     style="fill:#4bb450;fill-opacity:1;stroke-width:0.133494"
     d="M 0,0 H 67.73332 V 67.733329 H 0 Z"
     inkscape:export-filename="..\b\C2.svg"
     inkscape:export-xdpi="347.36404"
     inkscape:export-ydpi="347.36404" /><path
     id="path34"
     style="fill:#000001;fill-opacity:0.247059;stroke-width:0.0727587"
     d="m 22.476728,9.0458516 c -0.394334,0 -0.77614,0.037884 -1.145282,0.113593 -0.369148,0.075706 -0.725653,0.1892306 -1.069552,0.340546 -0.678626,0.2934597 -1.27472,0.7015574 -1.788275,1.2242824 -0.504385,0.513555 -0.903241,1.114033 -1.196702,1.801831 -0.284289,0.687797 -0.426325,1.416921 -0.426325,2.187253 0,0.788674 0.142036,1.527036 0.426325,2.214834 0.28429,0.678625 0.678761,1.274719 1.183146,1.788275 l 5.928583,5.928583 H 22.87407 c -1.345451,0 -2.457352,1.008266 -2.625966,2.308559 -0.01455,0.112221 -0.02478,0.225826 -0.02478,0.341949 v 13.253241 c 0,0.36541 0.0744,0.713732 0.208722,1.030752 0.06716,0.15851 0.149348,0.309123 0.244716,0.450166 0.04313,0.0638 0.09795,0.117944 0.146316,0.177635 0.05858,0.07229 0.111671,0.149303 0.177402,0.215033 l 4.696587,4.696586 0.3721,0.3721 h -0.777856 c -0.08743,0 -0.16503,0.04369 -0.23303,0.131125 l -2.020136,3.351931 -3.392136,-3.392135 c -0.01614,-0.01613 -0.03479,-0.02439 -0.05236,-0.03623 -0.01188,-0.008 -0.02299,-0.01849 -0.03553,-0.02454 -0.03853,-0.01856 -0.07957,-0.03016 -0.124345,-0.03016 H 16.66501 v 11.307434 l 8.934829,8.934829 H 67.733333 V 26.198892 L 50.882975,9.3485332 h -2.35e-4 -2.62737 c -0.04127,0 -0.08022,0.010434 -0.116864,0.031086 -0.03665,0.020627 -0.07123,0.051597 -0.103309,0.092791 L 46.128422,12.637126 42.92584,9.434546 C 42.92014,9.428876 42.91183,9.431236 42.90597,9.426136 42.85269,9.379655 42.794334,9.348538 42.72553,9.348538 h -2.613576 v 5.089718 L 35.022231,9.3485332 h -2.517515 l -1.997464,5.4005848 -4.003809,-4.00381 c -0.01089,-0.01089 -0.02387,-0.01865 -0.03483,-0.02945 -0.210545,-0.207346 -0.434998,-0.39397 -0.670106,-0.564461 -0.05084,-0.03686 -0.103212,-0.07144 -0.155198,-0.106581 C 25.396953,9.8782804 25.142283,9.7241661 24.870132,9.5962878 24.118139,9.2294629 23.320425,9.0458516 22.476728,9.0458516 Z" /><path
     style="fill:#f9f9f9;stroke-width:0.0727587"
     d="m 20.248214,26.953575 c -0.01455,0.112221 -0.02478,0.225825 -0.02478,0.341948 v 13.253239 c 0,1.461647 1.189178,2.650744 2.650742,2.650744 h 21.984958 c 1.461579,0 2.650744,-1.189097 2.650744,-2.650744 V 27.295523 c 0,-0.116123 -0.01022,-0.229727 -0.02479,-0.341948 z"
     id="path16" /><path
     id="path5"
     style="fill:#f44336;fill-opacity:1;stroke-width:0.0727587"
     d="m 22.874181,24.645014 c -1.345455,0 -2.457352,1.008262 -2.625966,2.30856 h 27.236889 c -0.168611,-1.300298 -1.280506,-2.30856 -2.625968,-2.30856 z" /><path
     style="fill:#798388;fill-opacity:1;stroke-width:0.0727587"
     d="m 22.518714,37.614589 h 6.608973 c 0.369209,0 0.668471,0.299269 0.668471,0.66847 0,0.369112 -0.29936,0.668237 -0.668471,0.668237 h -6.608973 c -0.369026,0 -0.668236,-0.299036 -0.668236,-0.668237 0,-0.369201 0.29921,-0.66847 0.668236,-0.66847 z"
     id="path29" /><path
     style="fill:#798388;fill-opacity:1;stroke-width:0.0727587"
     d="m 22.518714,35.236845 h 11.415648 c 0.369113,0 0.668237,0.299034 0.668237,0.668237 0,0.3692 -0.29903,0.66847 -0.668237,0.66847 H 22.518714 c -0.369026,0 -0.668236,-0.29927 -0.668236,-0.66847 0,-0.369203 0.29921,-0.668237 0.668236,-0.668237 z"
     id="path28" /><path
     style="fill:#798388;fill-opacity:1;stroke-width:0.0727587"
     d="m 28.799764,30.507301 h 0.660289 v 2.254802 h -0.660289 z"
     id="path24" /><path
     style="fill:#798388;fill-opacity:1;stroke-width:0.0727587"
     d="m 26.709041,30.507301 h 0.633177 v 1.68333 h 1.170057 v 0.571472 h -1.803234 z"
     id="path23" /><path
     id="path22"
     style="fill:#798388;fill-opacity:1;stroke-width:0.0727587"
     d="m 33.405196,30.442324 c -0.164238,0 -0.319368,0.03173 -0.465358,0.0956 -0.145991,0.06159 -0.273594,0.147143 -0.383085,0.256636 -0.10721,0.107209 -0.192763,0.233823 -0.256637,0.379813 -0.06159,0.143706 -0.09232,0.297847 -0.09232,0.462086 0,0.164236 0.03074,0.319368 0.09232,0.465358 0.06387,0.145987 0.149427,0.272601 0.256637,0.379813 0.109491,0.107209 0.237095,0.192532 0.383085,0.256402 0.14599,0.06159 0.30112,0.09256 0.465358,0.09256 0.164238,0 0.319368,-0.03097 0.465359,-0.09256 0.145987,-0.06387 0.272599,-0.149193 0.379812,-0.256402 0.109488,-0.107212 0.195046,-0.233826 0.256637,-0.379813 0.06387,-0.14599 0.09583,-0.301122 0.09583,-0.465358 0,-0.164239 -0.03196,-0.319369 -0.09583,-0.465358 -0.06159,-0.145991 -0.147148,-0.272601 -0.256637,-0.379813 -0.107212,-0.107212 -0.233825,-0.191775 -0.379812,-0.253364 -0.14599,-0.06387 -0.301121,-0.0956 -0.465359,-0.0956 z m 0,0.619153 c 0.07756,0 0.149584,0.01598 0.215734,0.04791 0.06843,0.02965 0.126459,0.07071 0.174363,0.123176 0.05019,0.05246 0.08903,0.114167 0.116398,0.184881 0.02737,0.06843 0.04114,0.141448 0.04114,0.219006 0,0.07756 -0.01377,0.151564 -0.04114,0.222278 -0.02737,0.06843 -0.06622,0.130135 -0.116398,0.184881 -0.0479,0.05247 -0.105929,0.09451 -0.174363,0.126448 -0.06615,0.02965 -0.138178,0.04464 -0.215734,0.04464 -0.07756,0 -0.150571,-0.01498 -0.219005,-0.04464 -0.06615,-0.03194 -0.124184,-0.07398 -0.174364,-0.126448 -0.04791,-0.05475 -0.08674,-0.116451 -0.116398,-0.184881 -0.02737,-0.07071 -0.04114,-0.144721 -0.04114,-0.222278 0,-0.07756 0.01377,-0.150575 0.04114,-0.219006 0.02966,-0.07071 0.06849,-0.132416 0.116398,-0.184881 0.05018,-0.05246 0.108212,-0.09352 0.174364,-0.123176 0.06843,-0.03194 0.141449,-0.04791 0.219005,-0.04791 z" /><path
     id="path21"
     style="fill:#798388;fill-opacity:1;stroke-width:0.0727587"
     d="m 25.302916,30.442324 c -0.164238,0 -0.319368,0.03173 -0.465358,0.0956 -0.14599,0.06159 -0.273826,0.147143 -0.383319,0.256636 -0.107208,0.107209 -0.192765,0.233823 -0.256636,0.379813 -0.06159,0.143706 -0.09232,0.297847 -0.09232,0.462086 0,0.164236 0.03073,0.319368 0.09232,0.465358 0.06387,0.145987 0.149427,0.272601 0.256636,0.379813 0.109493,0.107209 0.23733,0.192532 0.383319,0.256402 0.14599,0.06159 0.30112,0.09256 0.465358,0.09256 0.164237,0 0.31937,-0.03097 0.465358,-0.09256 0.14599,-0.06387 0.272367,-0.149193 0.379579,-0.256402 0.10949,-0.107212 0.195047,-0.233826 0.256637,-0.379813 0.06387,-0.14599 0.09583,-0.301122 0.09583,-0.465358 0,-0.164239 -0.03196,-0.319369 -0.09583,-0.465358 -0.06159,-0.145991 -0.147147,-0.272601 -0.256637,-0.379813 -0.107212,-0.107212 -0.233589,-0.191775 -0.379579,-0.253364 -0.145988,-0.06387 -0.301121,-0.0956 -0.465358,-0.0956 z m 0,0.619153 c 0.07756,0 0.149348,0.01598 0.215499,0.04791 0.06843,0.02965 0.126462,0.07071 0.174364,0.123176 0.05018,0.05246 0.08902,0.114167 0.116398,0.184881 0.02737,0.06843 0.04114,0.141448 0.04114,0.219006 0,0.07756 -0.01376,0.151564 -0.04114,0.222278 -0.02737,0.06843 -0.06622,0.130135 -0.116398,0.184881 -0.0479,0.05247 -0.10593,0.09451 -0.174364,0.126448 -0.06615,0.02965 -0.137944,0.04464 -0.215499,0.04464 -0.07756,0 -0.150572,-0.01498 -0.219006,-0.04464 -0.06615,-0.03194 -0.124415,-0.07398 -0.174596,-0.126448 -0.04791,-0.05475 -0.08675,-0.116451 -0.116398,-0.184881 -0.02737,-0.07071 -0.0409,-0.144721 -0.0409,-0.222278 0,-0.07756 0.01353,-0.150575 0.0409,-0.219006 0.02965,-0.07071 0.06849,-0.132416 0.116398,-0.184881 0.05018,-0.05246 0.108447,-0.09352 0.174596,-0.123176 0.06843,-0.03194 0.141449,-0.04791 0.219006,-0.04791 z" /><path
     style="fill:#798388;fill-opacity:1;stroke-width:0.0727587"
     d="m 29.771382,30.10692 h 2.275604 v 0.609103 l -0.04791,0.04791 H 31.27007 v 1.998165 h -0.721761 v -1.998165 h -0.729007 l -0.04791,-0.04791 z"
     id="path20" /><path
     id="path19"
     style="fill:#798388;fill-opacity:1;stroke-width:0.0727587"
     d="m 21.850478,30.10692 v 2.655183 h 0.71171 V 31.9375 h 0.482421 c 0.127739,0 0.249687,-0.02408 0.366022,-0.07199 0.118614,-0.05018 0.222367,-0.117309 0.31133,-0.20171 0.09124,-0.08668 0.163268,-0.187224 0.215733,-0.301279 0.05475,-0.114055 0.08204,-0.237227 0.08204,-0.369528 0,-0.130023 -0.02729,-0.249753 -0.08204,-0.359245 -0.05247,-0.109492 -0.124489,-0.202922 -0.215733,-0.280476 -0.08896,-0.07756 -0.192716,-0.138037 -0.31133,-0.181376 -0.116335,-0.04334 -0.238283,-0.06498 -0.366022,-0.06498 z m 0.728773,0.588535 h 0.413937 c 0.04106,0 0.0799,0.0079 0.116398,0.02384 0.0365,0.01369 0.06846,0.03433 0.09583,0.0617 0.02737,0.02509 0.04901,0.0546 0.06498,0.08882 0.01597,0.03422 0.02384,0.07207 0.02384,0.113125 0,0.04106 -0.0079,0.07868 -0.02384,0.112892 -0.01597,0.03422 -0.0376,0.06495 -0.06498,0.09232 -0.02737,0.02509 -0.05933,0.0455 -0.09583,0.06147 -0.0365,0.01369 -0.07534,0.02057 -0.116398,0.02057 h -0.413937 z" /><path
     id="path1"
     style="fill:#5c6bc0;stroke-width:0.496961"
     d="m 40.918092,30.051244 c -1.646786,0 -2.981704,1.335151 -2.981704,2.981938 0,1.646781 1.334918,2.981704 2.981704,2.981704 1.646786,0 2.981703,-1.334923 2.981703,-2.981704 0,-1.646787 -1.334917,-2.981938 -2.981703,-2.981938 z m 0,6.957466 c -1.379913,0 -2.456991,0.109999 -3.264519,0.448529 -0.864588,0.362435 -1.394277,0.976891 -1.676785,1.870081 -0.104417,0.330131 0.142903,0.663328 0.485693,0.663328 h 8.90795 c 0.344194,0 0.593287,-0.33463 0.488033,-0.6666 -0.283368,-0.89324 -0.814986,-1.507422 -1.680995,-1.868912 -0.806816,-0.336791 -1.882292,-0.446426 -3.259377,-0.446426 z" /><path
     style="font-size:40px;line-height:1.25;font-family:PRIMETIME;-inkscape-font-specification:'PRIMETIME, Normal';letter-spacing:0px;word-spacing:0px;white-space:pre;fill:#ffd500;stroke-width:0.364285"
     d="m 41.902793,58.798586 v -0.51 l 4.400568,-7.897708 H 41.56765 v -2.899712 h 9.398565 v 0.509999 l -4.400568,7.897709 h 4.502568 v 2.899712 z"
     id="path8" /><path
     id="path6"
     style="font-size:40px;line-height:1.25;font-family:PRIMETIME;-inkscape-font-specification:'PRIMETIME, Normal';letter-spacing:0px;word-spacing:0px;white-space:pre;fill:#ffd500;stroke-width:0.364285"
     d="m 33.451327,47.491071 -4.181913,11.307431 h 3.191126 l 0.582926,-1.558985 h 3.48259 l 0.58269,1.558985 h 3.191129 L 36.117962,47.491071 Z m 1.34068,4.138439 0.888878,2.987079 h -1.792481 z" /><path
     style="font-size:40px;line-height:1.25;font-family:PRIMETIME;-inkscape-font-specification:'PRIMETIME, Normal';letter-spacing:0px;word-spacing:0px;white-space:pre;fill:#ffd500;stroke-width:0.364285"
     d="M 25.116527,58.798586 V 52.98459 l -2.418855,3.992569 q -0.04372,0.08743 -0.145715,0.116571 -0.101999,0.02914 -0.174857,0.02914 -0.08743,0 -0.189428,-0.02914 -0.102,-0.02914 -0.145714,-0.116571 L 19.623102,52.98459 v 5.813996 h -2.957997 v -11.30742 h 2.768569 q 0.145714,0 0.247714,0.131142 l 2.681141,4.473426 2.695712,-4.473426 q 0.102,-0.131142 0.233143,-0.131142 h 2.783141 v 11.30742 z"
     id="text1040" /><path
     style="font-size:40px;line-height:1.25;font-family:PRIMETIME;-inkscape-font-specification:'PRIMETIME, Normal';letter-spacing:0px;word-spacing:0px;white-space:pre;fill:#ffd500;stroke-width:0.3439"
     d="m 48.09035,20.023212 v -5.488637 l -2.283494,3.769138 q -0.04127,0.08254 -0.137559,0.110048 -0.09629,0.02751 -0.165072,0.02751 -0.08254,0 -0.178828,-0.02751 -0.09629,-0.02751 -0.13756,-0.110048 l -2.283494,-3.769138 v 5.488637 H 40.111878 V 9.3485682 h 2.613638 q 0.137559,0 0.233851,0.1238038 l 2.531102,4.223088 2.544857,-4.223088 q 0.09629,-0.1238038 0.220096,-0.1238038 h 2.627393 V 20.023212 Z"
     id="path4" /><path
     id="path2"
     style="font-size:40px;line-height:1.25;font-family:PRIMETIME;-inkscape-font-specification:'PRIMETIME, Normal';letter-spacing:0px;word-spacing:0px;white-space:pre;fill:#ffd500;stroke-width:0.3439"
     d="M 32.504715,9.3485331 28.556768,20.023256 h 3.012557 l 0.550202,-1.472038 h 3.287894 l 0.550201,1.472038 H 38.97018 L 35.022232,9.3485331 Z m 1.265654,3.9068109 0.839094,2.819963 h -1.691979 z" /><path
     style="font-size:40px;line-height:1.25;font-family:PRIMETIME;-inkscape-font-specification:'PRIMETIME, Normal';letter-spacing:0px;word-spacing:0px;white-space:pre;fill:#ffd500;stroke-width:0.3439"
     d="M 25.076583,20.023212 V 19.72058 q -1.238039,0.632775 -2.613638,0.632775 -1.19677,0 -2.228469,-0.440191 -1.017943,-0.440192 -1.774523,-1.196771 -0.756579,-0.770335 -1.183014,-1.788277 -0.426436,-1.031699 -0.426436,-2.214713 0,-1.155503 0.426436,-2.187202 0.440191,-1.031699 1.19677,-1.802034 0.770336,-0.7840914 1.788279,-1.224283 1.031699,-0.4539475 2.214713,-0.4539475 1.265551,0 2.393542,0.5502394 1.141747,0.5364831 1.980862,1.5269141 l -2.338518,1.554427 q -0.426435,-0.426436 -0.949163,-0.646532 -0.508971,-0.233851 -1.086723,-0.233851 -0.605263,0 -1.127991,0.247607 -0.508971,0.233852 -0.894139,0.632776 -0.371411,0.398923 -0.591507,0.935407 -0.20634,0.522727 -0.20634,1.114235 0,0.591507 0.20634,1.12799 0.220096,0.536484 0.605263,0.935407 0.385168,0.398924 0.894139,0.64653 0.522728,0.233852 1.127991,0.233852 0.646532,0 1.224283,-0.288876 0.591507,-0.288874 0.990431,-0.811601 h -1.88457 v -2.57237 h 4.690791 v 6.025121 z"
     id="text3057" /></svg>
