<?xml version="1.0" encoding="UTF-8" standalone="no"?>
<!-- Created with Inkscape (http://www.inkscape.org/) -->

<svg
   width="149.75414mm"
   height="149.75417mm"
   viewBox="0 0 149.75413 149.75416"
   version="1.1"
   id="svg1"
   xml:space="preserve"
   sodipodi:docname="template-matricole-a.svg"
   xmlns:inkscape="http://www.inkscape.org/namespaces/inkscape"
   xmlns:sodipodi="http://sodipodi.sourceforge.net/DTD/sodipodi-0.dtd"
   xmlns="http://www.w3.org/2000/svg"
   xmlns:svg="http://www.w3.org/2000/svg"><sodipodi:namedview
     id="namedview1"
     pagecolor="#ffffff"
     bordercolor="#999999"
     borderopacity="1"
     inkscape:showpageshadow="2"
     inkscape:pageopacity="0"
     inkscape:pagecheckerboard="0"
     inkscape:deskcolor="#d1d1d1"
     inkscape:document-units="mm"
     inkscape:zoom="0.9707102"
     inkscape:cx="411.03926"
     inkscape:cy="372.40775"
     inkscape:window-width="1920"
     inkscape:window-height="991"
     inkscape:window-x="-9"
     inkscape:window-y="-9"
     inkscape:window-maximized="1"
     inkscape:current-layer="svg1" /><defs
     id="defs1"><rect
       x="128.7717"
       y="414.12979"
       width="302.87103"
       height="109.1984"
       id="rect1040" /><rect
       x="124.651"
       y="63.870762"
       width="290.50894"
       height="105.07771"
       id="rect3058" /></defs><path
     id="rect1-3"
     style="fill:#4bb450;fill-opacity:1;stroke-width:0.295148"
     d="M 0,0 H 149.75414 V 149.75416 H 0 Z"
     inkscape:export-filename="..\b\C4.png"
     inkscape:export-xdpi="347.36404"
     inkscape:export-ydpi="347.36404" /><path
     id="path9110"
     style="font-size:40px;line-height:1.25;font-family:PRIMETIME;-inkscape-font-specification:'PRIMETIME, Normal';letter-spacing:0px;word-spacing:0px;white-space:pre;fill:#000000;fill-opacity:0.31;stroke-width:0.760341"
     d="m 37.457662,19.999813 v 25.000024 h 5.17e-4 0.219625 v 0.263033 h 5.16e-4 0.220142 v 0.26355 h 0.220142 v 0.26355 h 5.16e-4 0.220142 v 0.263033 h 0.220141 v 0.26355 h 5.17e-4 0.219625 v 0.263033 h 5.17e-4 0.220141 v 0.26355 h 0.220142 v 0.263033 h 5.17e-4 0.219625 v 0.263549 h 5.16e-4 0.220142 v 0.263033 h 0.220142 v 0.26355 h 5.16e-4 0.220142 v 0.26355 h 0.220142 v 0.263033 h 5.16e-4 0.219625 v 0.26355 h 5.17e-4 0.220142 v 0.263033 h 0.220141 v 0.26355 h 5.17e-4 0.220142 v 0.263033 h 0.220141 v 0.26355 h 5.17e-4 0.219625 v 0.263033 h 5.16e-4 0.220142 v 0.263549 h 0.220142 v 0.26355 h 5.16e-4 0.219625 v 0.263033 h 5.17e-4 0.220142 v 0.26355 h 0.220141 v 0.263033 h 5.17e-4 0.220142 v 0.26355 h 0.220141 v 0.263033 h 5.17e-4 0.219625 v 0.26355 h 5.17e-4 0.220141 v 0.263033 h 0.220142 v 0.26355 h 5.17e-4 0.219624 v 0.263033 h 5.17e-4 0.220142 v 0.263549 h 0.220141 v 0.26355 h 5.17e-4 0.220142 v 0.263033 h 0.220141 v 0.26355 h 5.17e-4 0.219625 v 0.263033 h 5.17e-4 0.220141 v 0.26355 h 0.220142 v 0.263033 h 5.17e-4 0.220141 v 0.26355 h 0.220142 v 0.263033 h 5.17e-4 0.219624 v 0.26355 h 5.17e-4 0.220142 v 0.263033 h 0.220141 v 0.26355 h 5.17e-4 0.219625 v 0.263549 h 5.17e-4 0.220141 v 0.263033 h 0.220142 v 0.26355 h 5.17e-4 0.220141 v 0.263033 h 0.220142 v 0.26355 h 5.17e-4 0.219625 v 0.263033 h 5.16e-4 0.220142 v 0.26355 h 0.220142 v 0.263033 h 5.16e-4 0.220142 v 0.26355 h 0.220142 v 0.26355 h 0.220141 v 0.263033 h 5.17e-4 0.220141 v 0.263549 h 0.220142 v 0.263033 h 5.17e-4 0.219625 v 0.26355 h 5.16e-4 0.220142 v 0.263033 h 0.220142 v 0.26355 h 5.16e-4 0.220142 v 0.26355 h 0.220142 v 0.263033 h 0.220141 v 0.26355 h 5.17e-4 0.220142 v 0.263033 h 0.220141 v 0.26355 h 5.17e-4 0.220142 v 0.263033 h 0.220141 v 0.263549 h 0.220142 v 0.263033 h 5.17e-4 0.220141 v 0.26355 h 0.220142 v 0.263033 h 5.16e-4 0.219625 v 0.26355 h 5.17e-4 0.220142 v 0.26355 h 0.220141 v 0.263033 h 5.17e-4 0.220142 v 0.26355 h 0.220141 v 0.263033 h 0.220142 v 0.26355 h 5.17e-4 0.220141 v 0.263033 h 0.220142 v 0.263549 h 5.17e-4 0.219624 v 0.263033 h 5.17e-4 0.220142 v 0.26355 h 0.220141 v 0.263033 h 5.17e-4 0.220142 v 0.26355 h 0.220141 v 0.26355 h 0.220142 v 0.263033 h 5.17e-4 0.220141 v 0.26355 h 0.220142 v 0.263033 h 5.17e-4 0.220141 v 0.26355 h 0.220142 v 0.263033 h 0.220142 v 0.263549 h 5.16e-4 0.220142 v 0.263033 h 0.220141 v 0.26355 h 5.17e-4 0.219625 v 0.26355 h 5.17e-4 0.220141 v 0.263033 h 0.220142 v 0.26355 h 5.17e-4 0.220141 v 0.263033 h 0.220142 v 0.26355 h 0.220142 v 0.263033 h 5.16e-4 0.220142 v 0.26355 h 0.220142 v 0.263549 h 5.16e-4 0.219625 v 0.263033 h 5.17e-4 0.220142 v 0.26355 h 0.220141 v 0.263033 h 5.17e-4 0.220142 v 0.26355 h 0.220141 v 0.263033 h 0.220142 v 0.26355 h 5.16e-4 0.220142 v 0.263033 h 0.220142 v 0.26355 h 5.16e-4 0.219625 v 0.263033 h 5.17e-4 0.220142 v 0.26355 h 0.220141 v 0.263549 h 5.17e-4 0.220142 v 0.263033 h 0.220141 v 0.26355 h 0.220142 v 0.263033 h 5.17e-4 0.220141 v 0.26355 h 0.220142 v 0.263033 h 5.17e-4 0.220141 v 0.26355 h 0.220142 v 0.263033 h 0.220141 v 0.26355 h 5.17e-4 0.220142 v 0.263033 h 0.220141 v 0.26355 h 5.17e-4 0.219625 v 0.263033 h 5.17e-4 0.220141 v 0.26355 h 0.220142 v 0.263549 h 5.17e-4 0.220141 v 0.263033 h 0.220142 v 0.26355 h 0.220141 v 0.263033 h 5.17e-4 0.220142 v 0.26355 h 0.220141 v 0.263033 h 5.17e-4 0.219625 v 0.26355 h 5.17e-4 0.220141 v 0.26355 h 0.220142 v 0.263033 h 5.17e-4 0.220141 v 0.26355 h 0.220142 v 0.263033 h 0.220142 v 0.263549 h 5.16e-4 0.220142 v 0.263033 h 0.220142 v 0.26355 h 5.16e-4 0.220142 v 0.263033 h 0.220142 v 0.26355 h 0.220141 v 0.26355 h 5.17e-4 0.220141 v 0.263033 h 0.220142 v 0.26355 h 0.220142 v 0.263033 h 5.16e-4 0.220142 v 0.26355 h 0.220142 v 0.263033 h 5.16e-4 0.220142 v 0.263549 h 0.220142 v 0.263033 h 0.220141 v 0.26355 h 5.17e-4 0.220142 v 0.263033 h 0.220141 v 0.26355 h 0.220142 v 0.26355 h 5.17e-4 0.220141 v 0.263033 h 0.220142 v 0.26355 h 5.17e-4 0.220141 v 0.263033 h 0.220142 v 0.26355 h 0.220141 v 0.263033 h 5.17e-4 0.220142 v 0.263549 h 0.220141 v 0.263033 h 0.220659 v 0.26355 h 0.220141 v 0.263033 h 0.220142 v 0.26355 h 5.17e-4 0.220141 v 0.26355 h 0.220142 v 0.263033 h 0.220141 v 0.26355 h 5.17e-4 0.220142 v 0.263033 h 0.220141 v 0.26355 h 0.220659 v 0.263033 h 0.220141 v 0.263549 h 0.220142 v 0.263033 h 5.17e-4 0.220141 v 0.26355 h 0.220142 v 0.26355 h 0.220142 v 0.263033 h 5.16e-4 0.220142 v 0.26355 h 0.220141 v 0.263033 h 0.220659 v 0.26355 h 0.220141 v 0.263033 h 0.220142 v 0.26355 h 5.17e-4 0.220141 v 0.263549 h 0.220142 v 0.263033 h 0.220142 v 0.26355 h 5.16e-4 0.220142 v 0.263033 h 0.220142 v 0.26355 h 5.16e-4 0.220142 v 0.263033 h 0.220142 v 0.26355 h 0.220141 v 0.263033 h 5.17e-4 0.220142 v 0.26355 h 0.220141 v 0.263033 h 0.220659 v 0.26355 h 0.220141 v 0.263549 h 0.220142 v 0.263034 h 5.16e-4 0.220142 v 0.263549 h 0.220142 v 0.263033 h 0.220141 v 0.26355 h 5.17e-4 0.220142 v 0.263033 h 0.220141 v 0.26355 h 0.220659 v 0.263033 h 0.220141 v 0.26355 h 0.220142 v 0.263033 h 5.17e-4 0.220141 v 0.26355 h 0.220142 v 0.26355 h 0.220141 v 0.263033 h 5.17e-4 0.220142 v 0.263549 h 0.220141 v 0.263033 h 0.220659 v 0.26355 h 0.220141 v 0.263033 h 0.220142 v 0.26355 h 5.17e-4 0.220141 v 0.263033 h 0.220142 v 0.26355 h 0.220658 v 0.26355 h 0.220142 v 0.263033 h 0.220141 v 0.26355 h 5.17e-4 0.220142 v 0.263032 h 0.220141 v 0.26407 h 0.220142 v 0.26251 h 5.17e-4 0.220141 v 0.26304 h 0.220142 v 0.26406 h 0.220658 v 0.26304 h 0.220142 v 0.26303 h 0.220142 v 0.26407 h 5.16e-4 0.220142 v 0.26303 h 0.220142 v 0.26303 h 0.220141 v 0.26303 h 5.17e-4 0.220141 v 0.26407 h 0.220142 v 0.26303 h 0.220658 v 0.26304 h 0.220142 v 0.26355 h 0.220142 v 0.26303 h 5.16e-4 0.220142 v 0.26303 h 0.220142 v 0.26407 h 0.220141 v 0.26303 h 5.17e-4 0.220142 v 0.26304 h 0.220141 v 0.26406 h 0.220659 v 0.26304 h 0.220141 v 0.26303 h 0.220142 v 0.26407 h 5.17e-4 0.220141 v 0.26303 h 0.220142 v 0.26303 h 0.220658 v 0.26355 h 0.220142 v 0.26303 h 0.220141 v 0.26304 h 5.17e-4 0.220142 v 0.26303 h 0.220141 v 0.061 c -0.380819,0.30552 -0.750827,0.62638 -1.097607,0.97927 l -0.0015,0.002 c -0.514186,0.52346 -0.973018,1.09234 -1.388029,1.69757 h -0.218592 v -0.26355 h -0.220658 v -0.26303 h -0.220142 v -0.26303 h -0.220658 v -0.26407 h -0.220142 v -0.26303 h -0.220141 v -0.26303 h -0.220659 v -0.26407 h -0.220141 v -0.26303 h -0.220659 v -0.26304 h -0.220141 v -0.26303 h -0.220142 v -0.26407 h -0.220658 v -0.26303 h -0.220142 v -0.26252 H 84.5799 84.54838 v -0.26406 h -0.151412 -0.06925 v -0.26304 H 84.21403 84.107577 v -0.26303 h -0.07596 -0.144694 V 105.932 h -0.03824 -0.181901 v -0.263 h -0.001 -18.825207 v 11.00398 c -0.02836,-0.0328 -0.06181,-0.0649 -0.09095,-0.0977 -0.07303,-0.0892 -0.144527,-0.1787 -0.223242,-0.26716 -0.07151,-0.0872 -0.141649,-0.17442 -0.218591,-0.26097 -0.07306,-0.0892 -0.144513,-0.17871 -0.223243,-0.26717 -0.07268,-0.0887 -0.14393,-0.17766 -0.222208,-0.26561 -0.07199,-0.0878 -0.142164,-0.17597 -0.219625,-0.26304 -0.07265,-0.0886 -0.143993,-0.17718 -0.222209,-0.2651 -0.07205,-0.0879 -0.142119,-0.17638 -0.219625,-0.26355 -0.07354,-0.0897 -0.146093,-0.17923 -0.225309,-0.2682 -0.07178,-0.0875 -0.141936,-0.17524 -0.219108,-0.262 -0.07244,-0.0883 -0.143259,-0.17696 -0.221175,-0.26458 -0.07299,-0.0889 -0.144183,-0.17845 -0.222725,-0.26665 -0.07203,-0.0877 -0.142723,-0.17551 -0.220142,-0.26252 -0.07231,-0.0882 -0.142922,-0.17662 -0.220658,-0.26406 -0.07266,-0.0886 -0.143568,-0.17725 -0.221692,-0.2651 -0.07256,-0.0884 -0.143179,-0.17742 -0.221175,-0.2651 -0.07256,-0.0884 -0.143716,-0.17691 -0.221692,-0.26459 -0.07358,-0.0896 -0.145651,-0.17932 -0.224793,-0.2682 -0.07108,-0.0865 -0.140271,-0.17311 -0.216524,-0.2589 -0.07336,-0.0894 -0.144888,-0.17906 -0.223759,-0.26768 -0.07238,-0.0882 -0.142934,-0.17665 -0.220658,-0.26407 -0.07348,-0.0895 -0.145293,-0.1794 -0.224276,-0.2682 -0.07194,-0.0875 -0.142439,-0.17513 -0.219625,-0.262 -0.07312,-0.089 -0.144704,-0.17836 -0.223242,-0.26665 -0.07186,-0.0874 -0.141522,-0.17531 -0.218591,-0.262 -0.07278,-0.0886 -0.144078,-0.1772 -0.222209,-0.2651 -0.07196,-0.0876 -0.141928,-0.17557 -0.219108,-0.26251 -0.07435,-0.0905 -0.146943,-0.18151 -0.22686,-0.2713 -0.07134,-0.0867 -0.141126,-0.17341 -0.217557,-0.25942 -0.07311,-0.089 -0.14427,-0.17839 -0.222726,-0.26665 -0.237352,-0.28855 -0.492562,-0.57487 -0.785998,-0.85628 -0.4664,-0.446 -0.972922,-0.84097 -1.520321,-1.18597 l -5.17e-4,-0.001 c -0.547299,-0.364 -1.115039,-0.64707 -1.702738,-0.85007 h -10e-4 C 53.728882,105.78087 53.15127,105.669 52.58387,105.669 h -5.16e-4 -11.830286 v 23.60115 h 0.220142 v 0.216 0.047 h 0.220658 v 0.16898 0.0951 h 0.220142 v 0.12195 0.14056 h 0.220658 v 0.0754 0.18758 h 0.220142 v 0.0284 0.23564 h 0.220141 v 0.26303 h 0.220659 v 0.26304 h 0.220141 v 0.26406 h 0.220142 v 0.26304 h 0.220658 v 0.26303 h 0.220142 v 0.26407 h 0.220658 v 0.26303 h 0.220142 v 0.26303 h 0.220141 v 0.26304 h 0.220659 v 0.26355 h 0.220141 v 0.26303 h 0.220659 v 0.26303 h 0.220141 v 0.26407 h 0.220142 v 0.26303 h 0.220658 v 0.26303 h 0.220142 v 0.26407 h 0.220141 v 0.26303 h 0.220659 v 0.26304 h 0.220141 v 0.26406 h 0.220659 v 0.26304 h 0.220141 v 0.26303 h 0.220142 v 0.26355 h 0.220658 v 0.26303 h 0.220142 v 0.26304 h 0.220658 v 0.26406 h 0.220142 v 0.26303 H 47.8038 v 0.26304 h 0.220659 v 0.26406 H 48.2446 v 0.26304 h 0.220142 v 0.26303 H 48.6854 v 0.26303 h 0.220142 v 0.26407 H 49.1262 v 0.26303 h 0.220142 v 0.26252 h 0.220142 v 0.26407 h 0.220658 v 0.26303 h 0.220142 v 0.26303 h 0.220141 v 0.26407 h 0.220658 v 0.26303 h 0.220142 v 0.26303 h 0.220658 v 0.26407 h 0.220142 v 0.26303 h 0.220142 v 0.26304 h 0.220658 v 0.26406 h 0.220142 v 0.26252 h 0.220658 v 0.26303 h 0.220142 v 0.26407 h 0.220141 v 0.26303 h 0.220659 v 0.26304 h 0.220141 v 0.26406 h 0.220142 v 0.26304 h 0.220658 v 0.26303 h 0.220142 v 0.26303 h 0.220658 v 0.26407 h 0.220142 v 0.26303 h 0.220141 v 0.26303 h 0.220659 v 0.26355 h 0.220141 v 0.26304 h 0.220659 v 0.26303 h 0.220141 v 0.26407 h 0.220142 v 0.26303 h 0.220658 v 0.26303 h 0.220142 v 0.26407 h 0.220141 v 0.26303 h 0.220659 v 0.26304 h 0.220141 v 0.26406 h 0.220659 v 0.26304 h 0.220141 v 0.26303 h 0.220142 v 0.26355 h 0.220658 v 0.26303 h 0.220142 v 0.26303 h 0.220142 v 0.26407 h 0.220658 v 0.26303 h 0.220141 v 0.26304 h 0.220659 v 0.26303 h 0.220141 v 0.26407 h 0.220142 v 0.26303 h 0.220658 v 0.26303 h 0.220142 v 0.26407 h 0.220658 v 0.26303 h 0.220142 v 0.26252 h 0.220142 v 0.26406 h 0.220658 v 0.26304 h 0.220142 v 0.26303 h 0.220141 v 0.26407 h 0.220659 v 0.26303 h 0.220141 v 0.26303 h 0.220658 v 0.26407 h 0.220142 v 0.26303 h 0.220142 v 0.26304 h 0.220658 v 0.26406 h 0.220142 v 0.26304 h 0.220141 v 0.26251 h 0.220659 v 0.26407 h 0.220141 v 0.26303 h 0.220659 v 0.26303 h 0.220141 v 0.26304 h 0.220142 v 0.26406 h 0.220658 v 0.26304 h 0.220142 v 0.26303 h 0.220141 v 0.26407 h 0.220659 v 0.26303 h 0.220141 v 0.26303 h 0.220659 v 0.26355 h 0.220141 v 0.26304 h 0.220142 v 0.26303 h 0.220658 v 0.26407 h 0.220142 v 0.26303 h 0.220658 v 0.26303 h 0.220142 v 0.26407 h 0.220141 v 0.26303 h 0.220659 v 0.26303 h 0.220141 v 0.26407 h 0.220142 v 0.26303 h 0.220658 v 0.26304 h 0.220142 v 0.26355 h 0.220658 v 0.26303 h 0.220142 v 0.26303 h 0.220142 v 0.26304 h 0.220658 v 0.26406 h 0.220142 v 0.26304 h 0.220141 v 0.26303 h 0.220658 v 0.26407 h 0.220142 v 0.26303 h 0.220658 v 0.26303 h 0.220142 v 0.26407 h 0.220142 v 0.26303 h 0.220658 v 0.26252 h 0.220142 v 0.26406 h 0.220658 v 0.26304 h 0.220142 v 0.26303 h 0.220141 v 0.26407 h 0.220659 v 0.26303 h 0.220141 v 0.26303 h 0.220142 v 0.26407 h 0.220658 v 0.26303 h 0.220142 v 0.26304 h 0.220658 v 0.26406 h 0.220142 v 0.26303 h 0.220141 v 0.26252 h 0.220659 v 0.26303 h 0.220141 v 0.26407 h 0.220142 v 0.26303 h 0.220658 v 0.26304 h 0.220142 v 0.26406 h 0.220658 v 0.26304 h 0.220142 v 0.26303 h 0.220141 v 0.26407 h 0.220659 v 0.26303 h 0.220141 v 0.26303 h 0.220142 v 0.26355 h 0.220658 v 0.26303 h 0.220142 v 0.26304 h 0.220658 v 0.26406 h 0.220142 v 0.26304 h 0.220142 v 0.26303 h 0.220658 v 0.26407 h 0.220141 v 0.26303 h 0.220659 v 0.26303 h 0.220141 v 0.26407 h 0.220142 v 0.26303 h 0.220658 v 0.26304 h 0.220142 v 0.26303 h 0.220142 v 0.26355 h 0.220658 v 0.26303 h 0.220142 v 0.26303 h 0.220658 v 0.26407 h 0.220142 v 0.26303 h 0.220141 v 0.26304 h 0.220659 v 0.26406 h 0.220141 v 0.26304 h 0.220142 v 0.26303 h 0.220658 v 0.26407 h 0.220142 v 0.26303 h 0.220658 v 0.26303 h 0.220142 v 0.26355 h 0.220141 v 0.26304 h 0.220659 v 0.26303 h 0.220141 v 0.26407 h 0.220659 v 0.26303 h 0.220141 v 0.26303 h 0.220142 v 0.26407 h 0.220658 v 0.26303 h 0.220142 v 0.26303 h 0.220141 v 0.26304 h 0.220659 v 0.26406 h 0.220141 v 0.26252 h 0.220659 v 0.26303 h 0.220141 v 0.26407 h 0.220142 v 0.26303 h 0.220658 v 0.26304 h 0.220142 v 0.26406 h 0.220141 v 0.26303 h 0.220659 v 0.26304 h 0.220141 v 0.26406 h 0.220659 v 0.26304 h 0.220141 v 0.26303 h 0.220142 v 0.26407 h 0.220658 v 0.26251 h 0.220142 v 0.26304 h 0.220142 v 0.26406 h 0.220658 v 0.26304 h 0.220142 v 0.26303 h 0.220658 v 0.26407 h 0.220142 v 0.26303 h 0.220141 v 0.26303 h 0.220658 v 0.26303 h 0.220142 v 0.26407 h 0.220658 v 0.26303 h 0.220142 v 0.26304 h 0.220142 v 0.26355 h 0.220658 v 0.26303 h 0.220142 v 0.26303 h 0.220141 v 0.26407 h 0.220659 v 0.26303 h 0.220141 v 0.26304 h 0.220659 v 0.26406 h 0.220141 v 0.26304 h 0.220142 v 0.26303 h 0.220658 v 0.26407 h 0.220142 v 0.26303 h 0.220141 v 0.26303 h 0.220659 v 0.26355 h 0.220141 v 0.26303 h 0.220659 v 0.26304 h 0.220141 v 0.26406 h 0.220142 v 0.26304 h 0.220658 v 0.26303 h 0.220142 v 0.26303 h 0.220658 v 0.26407 h 0.220142 v 0.26303 h 0.220141 v 0.26304 h 0.220659 v 0.26406 h 0.220141 v 0.26304 h 0.220142 v 0.26251 h 0.220658 v 0.26407 h 0.220142 v 0.26303 h 0.220658 v 0.26303 h 0.220142 v 0.26407 h 0.220141 v 0.26303 h 0.220659 v 0.26304 h 0.220141 V 194.31 h 0.220142 v 0.26304 h 0.220658 v 0.26303 h 0.220142 v 0.26407 h 0.220658 v 0.26251 h 0.220142 v 0.26304 h 0.220142 v 0.26406 h 0.220658 v 0.26303 h 0.220142 v 0.26304 h 0.220141 v 0.26303 h 0.220659 v 0.26407 h 0.220141 v 0.26303 h 0.220659 v 0.26303 h 0.220141 v 0.26407 h 0.220142 v 0.26303 h 0.220658 v 0.26304 h 0.220142 v 0.26355 h 0.220658 v 0.26303 h 0.220142 v 0.26303 h 0.220141 v 0.26407 h 0.220659 v 0.26303 h 0.220141 v 0.26303 h 0.220143 v 0.26407 h 0.22014 v 0.26303 h 0.22118 v 0.26304 h 0.21962 v 0.26406 h 0.22014 v 0.26304 h 0.22118 v 0.26303 h 0.21962 v 0.26355 h 0.22014 v 0.26303 h 0.22118 v 0.26304 h 0.22014 v 0.26303 h 0.21963 v 0.26407 h 0.22117 v 0.26303 h 0.22014 v 0.26303 h 0.22066 v 0.26407 h 0.22014 v 0.26303 h 0.22014 v 0.26303 h 0.22066 v 0.26407 h 0.22014 v 0.26303 h 0.22014 v 0.26252 h 0.22118 v 0.26407 h 0.21962 v 0.26303 h 0.22015 v 0.26303 h 0.22117 v 0.26407 h 0.21963 v 0.26303 h 0.22014 v 0.26304 h 0.22117 v 0.26406 h 0.22014 v 0.26304 h 0.21963 v 0.26303 h 0.22117 v 0.26406 h 0.22015 v 0.26304 h 0.21962 v 0.26251 h 0.22118 v 0.26304 h 0.22014 v 0.26406 h 0.21962 v 0.26304 h 0.22118 v 0.26303 h 0.22014 v 0.26407 h 0.22014 v 0.26303 h 0.22066 v 0.26303 h 0.22014 v 0.26407 h 0.22014 v 0.26303 h 0.22066 v 0.26304 h 0.22014 v 0.26354 h 0.22014 v 0.26304 h 0.22066 v 0.26303 h 0.22014 v 0.26407 h 0.22015 v 0.26303 h 0.22117 v 0.26303 h 0.21963 v 0.26407 h 0.22014 v 0.26303 h 0.22117 v 0.26304 h 0.21963 v 0.26406 h 0.22014 v 0.26304 h 0.22117 v 0.26303 h 0.22015 v 0.26303 h 0.21962 v 0.26355 h 0.22118 v 0.26303 h 0.22014 v 0.26304 h 0.21962 v 0.26406 h 0.22118 v 0.26304 h 0.22014 v 0.26303 h 0.22014 v 0.26407 h 0.22066 v 0.26303 h 0.22014 v 0.26303 h 0.22014 v 0.26407 h 0.22066 v 0.26303 h 0.22014 v 0.26252 h 0.22014 v 0.26407 h 0.22066 v 0.26303 h 0.22014 v 0.26303 h 0.22015 v 0.26407 h 0.22117 v 0.26303 h 0.21963 v 0.26303 h 0.22014 v 0.26407 h 0.22117 v 0.26303 h 0.21963 v 0.26304 h 0.22014 v 0.26303 h 0.22117 v 0.26407 h 0.21963 v 0.26251 h 0.22117 v 0.26304 h 0.22015 v 0.26406 h 0.22014 v 0.26304 h 0.22065 v 0.26303 h 0.22015 v 0.26407 h 0.22014 v 0.26303 h 0.22066 v 0.26303 h 0.22014 v 0.26407 h 0.22014 v 0.26303 h 0.22066 v 0.26303 h 0.22014 v 0.26355 h 0.22014 v 0.26304 h 0.22118 v 0.26303 h 0.21962 v 0.26407 h 0.22014 v 0.26303 h 0.22118 v 0.26303 h 0.21962 v 0.26407 h 0.22014 v 0.26303 h 0.22118 v 0.26304 h 0.22014 v 0.26303 h 0.21963 v 0.26406 h 0.22117 v 0.26304 h 0.22014 v 0.26303 h 0.21963 v 0.26355 h 0.22117 v 0.26303 h 0.22014 v 0.26304 h 0.21963 v 0.26406 h 0.22117 v 0.26304 h 0.22015 v 0.26303 h 0.22014 v 0.26407 h 0.22066 v 0.26303 h 0.22014 v 0.26303 h 0.22014 v 0.26407 h 0.22066 v 0.26303 h 0.22014 v 0.26303 h 0.22014 v 0.26355 h 0.22066 v 0.26304 h 0.22014 v 0.26303 h 0.22014 v 0.26407 h 0.22118 v 0.26303 h 0.21962 v 0.26303 h 0.22014 v 0.26304 h 0.22118 v 0.26406 h 0.21962 v 0.26304 h 0.22015 v 0.26303 h 0.22117 v 0.26407 h 0.22014 v 0.26251 h 0.21963 v 0.26303 h 0.22117 v 0.26407 h 0.22014 v 0.26303 h 0.21963 v 0.26304 h 0.22117 v 0.26406 h 0.22015 v 0.26304 h 0.22014 v 0.26303 h 0.22066 v 0.26407 h 0.22014 v 0.26303 h 0.22014 v 0.26303 h 0.22066 v 0.26407 H 129.99 v 0.26252 h 0.22014 v 0.26303 h 0.22066 v 0.26407 h 0.22014 v 0.26303 h 0.22014 v 0.26303 h 0.22118 v 0.26303 h 0.21962 v 0.26407 h 0.22014 v 0.26303 h 0.22118 V 238.02 h 0.21962 v 0.26406 h 0.22118 v 0.26304 h 0.22014 v 0.26303 h 0.21962 v 0.26355 h 0.22118 v 0.26303 h 0.22014 v 0.26304 h 0.22014 v 0.26406 h 0.22066 v 0.26303 h 0.22014 v 0.26304 h 0.22014 v 0.26406 h 0.22066 v 0.26304 h 0.22014 v 0.26303 h 0.22015 v 0.26407 h 0.22065 v 0.26303 h 0.22015 v 0.26303 h 0.22014 v 0.26355 h 0.22117 v 0.26304 h 0.21963 v 0.26303 h 0.22014 v 0.26303 h 0.22117 v 0.26407 h 0.21963 v 0.26303 h 0.22014 v 0.26303 h 0.22118 v 0.26407 h 0.22014 v 0.26303 h 0.21962 v 0.26304 h 0.22118 v 0.26406 h 0.22014 v 0.26304 h 0.21962 v 0.26251 h 0.22118 v 0.26407 h 0.22014 v 0.26303 h 0.21963 v 0.26304 h 0.22117 v 0.26406 h 0.22014 v 0.26304 h 0.22014 v 0.26303 h 0.22066 v 0.26407 h 0.22014 v 0.26303 h 0.22015 v 0.26303 h 0.22065 v 0.26407 h 0.22015 v 0.26251 h 0.22014 v 0.26304 h 0.22066 v 0.26303 h 0.22014 v 0.26407 h 0.22014 v 0.26303 h 0.22117 v 0.26303 h 0.21963 v 0.26407 h 0.22014 v 0.26303 h 0.22118 v 0.26304 h 0.21962 v 0.26406 h 0.22014 v 0.26304 h 0.22118 v 0.26303 h 0.22014 v 0.26355 h 0.21962 v 0.26303 h 0.22118 v 0.26303 h 0.22014 v 0.26407 h 0.21962 v 0.26303 h 0.22118 v 0.26304 h 0.22014 v 0.26406 h 0.21963 v 0.26304 h 0.22117 v 0.26303 h 0.22014 v 0.26407 h 0.22014 v 0.26303 h 0.22066 v 0.26303 h 0.22014 v 0.26252 h 0.22015 v 0.26406 h 0.22065 v 0.26304 h 0.22015 v 0.26303 h 0.22117 v 0.26407 h 0.21963 v 0.26303 h 0.22014 v 0.26303 h 0.22117 v 0.26407 h 0.22014 v 0.26303 h 0.21963 v 0.26304 h 0.20929 0.0119 v 0.26406 h 0.19586 0.0243 v 0.26304 h 0.18293 0.0367 v 0.26251 h 0.17002 0.0512 v 0.26407 h 0.15709 0.0631 v 0.26303 h 0.14366 0.0765 v 0.26303 h 0.13074 0.0899 v 0.26407 h 0.11834 0.1018 v 0.26303 h 0.1049 0.11524 v 0.26304 h 0.092 0.12868 v 0.26406 h 0.0791 0.14108 v 0.26304 h 0.0662 0.15399 v 0.26303 h 0.0527 0.16795 v 0.26303 h 0.0403 0.17983 v 0.26355 h 0.0269 0.19327 v 0.26304 h 0.014 0.20722 v 0.26303 h 5.2e-4 6.50709 v -10e-4 l -0.03,-7.29775 h 2.03398 l 0.10697,0.19017 h 0.0724 l 0.1478,0.26303 h 0.0723 l 0.1478,0.26252 h 0.0723 l 0.14832,0.26406 h 0.0723 l 0.1478,0.26304 h 0.0723 l 0.1478,0.26303 h 0.0729 l 0.14831,0.26407 h 0.0718 l 0.1478,0.26303 h 0.0724 l 0.14779,0.26303 h 0.0729 l 0.14832,0.26407 h 0.0718 l 0.14779,0.26303 h 0.0724 l 0.14779,0.26304 h 0.0729 l 0.14831,0.26406 h 0.0723 l 0.1478,0.26304 h 0.0718 l 0.14779,0.26251 h 0.0729 l 0.14831,0.26407 h 0.0724 l 0.14779,0.26303 h 0.0718 l 0.1478,0.26303 h 0.0729 l 0.14831,0.26407 h 0.0724 l 0.14779,0.26303 h 0.0718 l 0.1478,0.26304 h 0.0729 l 0.14831,0.26406 h 0.0724 l 0.14779,0.26304 h 0.0708 0.002 l 0.1478,0.26303 h 0.0568 0.016 l 0.14779,0.26303 h 0.0424 0.0294 l 0.14832,0.26355 h 0.0289 0.0434 l 0.1478,0.26304 h 0.015 0.0579 l 0.1478,0.26303 h 7.08638 l -5.24154,-9.21598 h 0.18346 v 0.26407 h 0.22014 v 0.26303 h 0.21962 v 0.26304 h 0.22118 v 0.26406 h 0.22014 v 0.26304 h 0.21962 v 0.26303 h 0.22118 v 0.26407 h 0.22014 v 0.26303 h 0.21962 v 0.26303 h 0.22118 v 0.26252 h 0.22014 v 0.26406 h 0.22014 v 0.26304 h 0.22066 v 0.26303 h 0.22014 v 0.26407 h 0.22014 v 0.26303 h 0.22066 v 0.26303 h 0.22014 v 0.26407 h 0.22015 v 0.26303 h 0.22065 v 0.26304 h 0.22015 v 0.26406 h 0.22014 v 0.26304 h 0.22117 v 0.26251 h 0.21963 v 0.26407 h 0.22014 v 0.26303 h 0.22117 v 0.26303 h 0.21963 v 0.26407 h 0.22014 v 0.26303 h 0.22118 v 0.26304 h 0.22014 v 0.26406 h 0.21962 v 0.0269 0.23616 h 0.22118 v 0.0749 0.1881 h 0.22014 v 0.12196 0.14107 h 0.21962 v 0.17002 0.0935 h 0.22118 v 0.21601 0.047 h 0.22014 v 0.26303 h 18.82573 v -5.59604 h -0.21963 v -0.25167 -0.0109 h -0.22014 v -0.24133 -0.0217 h -0.22118 v -0.23048 -0.0336 h -0.22014 v -0.21807 -0.045 h -0.21962 v -0.20722 -0.0558 h -0.22118 v -0.19586 -0.0672 h -0.22014 v -0.18603 -0.078 H 192.295 v -0.17415 -0.0889 h -0.22118 v -0.16278 -0.10025 h -0.22014 v -0.15193 -0.11214 h -0.22014 v -0.14004 -0.12299 h -0.22066 v -0.12867 -0.13436 h -0.22014 v -0.11886 -0.0982 h 2.13423 v -1.09451 c 0.0523,0.0648 0.11165,0.12436 0.16537,0.1881 0.0695,0.0875 0.14341,0.17177 0.21549,0.25735 0.0707,0.089 0.1453,0.175 0.21859,0.262 0.0716,0.0902 0.14792,0.17691 0.22221,0.2651 0.0695,0.0875 0.14342,0.17175 0.21549,0.25735 0.0699,0.088 0.14408,0.1728 0.21652,0.2589 0.0723,0.0911 0.14876,0.1791 0.22376,0.2682 0.0702,0.0884 0.14476,0.17349 0.21756,0.25993 0.0694,0.0873 0.1431,0.1714 0.21498,0.25683 0.0714,0.09 0.14712,0.17663 0.22117,0.26459 0.0705,0.0888 0.1455,0.17413 0.21859,0.26096 0.0713,0.0897 0.14676,0.17631 0.22066,0.26407 0.0702,0.0884 0.14479,0.17349 0.21756,0.25993 0.0706,0.0889 0.14543,0.17454 0.21859,0.26148 0.0706,0.0889 0.14545,0.17455 0.21859,0.26149 0.0712,0.0896 0.14687,0.17588 0.22066,0.26355 0.0699,0.088 0.14408,0.17279 0.21652,0.2589 0.0706,0.0889 0.14546,0.17452 0.21859,0.26148 0.0708,0.0891 0.14581,0.17486 0.21911,0.262 0.0713,0.0897 0.14679,0.17627 0.22066,0.26406 0.0699,0.088 0.14411,0.17279 0.21652,0.2589 0.071,0.0893 0.14662,0.17512 0.22015,0.26252 0.0703,0.0885 0.14477,0.17385 0.21755,0.26045 0.0708,0.089 0.14584,0.17484 0.21911,0.262 0.26905,0.33862 0.55234,0.66647 0.85783,0.97772 l 0.002,0.002 c 1.115,1.114 2.42172,1.99577 3.92172,2.64377 l 0.002,10e-4 c 1.52,0.648 3.16228,0.97204 4.92528,0.97204 h 0.002 c 1.90881,0 3.72363,-0.42893 5.45238,-1.25626 h 0.10335 v 0.26304 h 0.0119 0.20825 v 0.26303 h 0.001 5.38261 v -0.002 -13.31856 h -0.002 -0.21911 v -0.26304 h -0.0222 -0.19792 v -0.26303 h -0.0429 -0.17725 v -0.26407 h -0.0636 -0.1571 v -0.26303 h -0.0842 -0.13591 v -0.26303 h -0.1049 -0.11524 v -0.26407 h -0.12609 -0.0946 v -0.26303 h -0.14624 -0.0739 v -0.26304 h -0.16691 -0.0532 v -0.26406 h -0.18914 -0.032 v -0.26304 h -0.20877 -0.0109 v -0.26251 h -0.22014 v -0.26407 h -0.22118 v -0.26303 h -0.21962 v -0.26303 h -0.22014 v -0.26304 h -0.22118 V 243.658 h -0.21962 v -0.26304 h -0.22015 v -0.21445 l 2.50579,-1.66554 -0.001,-0.001 c -0.0754,-0.0891 -0.15957,-0.16511 -0.23668,-0.25166 l 0.0171,-0.0114 c -0.002,-0.003 -0.006,-0.006 -0.009,-0.008 -0.073,-0.0861 -0.15439,-0.15964 -0.22892,-0.2434 l 0.0181,-0.0119 c -0.005,-0.006 -0.0111,-0.011 -0.0181,-0.015 -0.0705,-0.0832 -0.14921,-0.15415 -0.22118,-0.23513 l 0.0191,-0.0129 c -0.008,-0.009 -0.0169,-0.0167 -0.0269,-0.0217 -0.0685,-0.0808 -0.14506,-0.14967 -0.21497,-0.22841 l 0.0207,-0.014 c -0.01,-0.012 -0.0216,-0.0209 -0.0346,-0.0279 -0.0661,-0.078 -0.13981,-0.1446 -0.20722,-0.22066 l 0.0222,-0.0145 c -0.013,-0.015 -0.027,-0.0256 -0.045,-0.0346 -0.0634,-0.0749 -0.13431,-0.13875 -0.19895,-0.21187 l 0.0238,-0.016 c -0.015,-0.018 -0.0327,-0.0324 -0.0537,-0.0424 -0.0615,-0.0726 -0.13019,-0.13426 -0.19276,-0.20515 l 0.0253,-0.0165 c -0.017,-0.02 -0.038,-0.0361 -0.062,-0.0481 -0.059,-0.0696 -0.12498,-0.1288 -0.185,-0.19689 l 0.0274,-0.0181 c -0.02,-0.024 -0.0443,-0.0423 -0.0713,-0.0553 -0.0565,-0.0667 -0.11977,-0.12333 -0.17725,-0.18862 l 0.0284,-0.0191 c -0.023,-0.027 -0.0491,-0.047 -0.0801,-0.062 -0.0545,-0.0643 -0.11566,-0.11889 -0.17105,-0.1819 l 0.03,-0.0202 c -0.025,-0.029 -0.0538,-0.0522 -0.0879,-0.0682 -0.0521,-0.0615 -0.11033,-0.11383 -0.16329,-0.17415 l 0.031,-0.0207 c -0.027,-0.032 -0.0596,-0.0569 -0.0966,-0.0749 -0.0498,-0.0588 -0.10552,-0.10872 -0.15607,-0.1664 l 0.0331,-0.0217 c -0.03,-0.036 -0.0649,-0.0632 -0.10594,-0.0822 -0.0477,-0.0563 -0.10101,-0.10392 -0.14934,-0.15916 l 0.0341,-0.0227 c -0.032,-0.038 -0.0697,-0.0668 -0.11369,-0.0879 -0.0453,-0.0535 -0.0961,-0.0988 -0.14211,-0.15141 l 0.0357,-0.0238 c -0.035,-0.041 -0.076,-0.0731 -0.12299,-0.0951 -0.0429,-0.0506 -0.0909,-0.0934 -0.13436,-0.14315 l 0.0377,-0.0248 c -0.038,-0.044 -0.0823,-0.0778 -0.1323,-0.10181 -0.0409,-0.0482 -0.0868,-0.0889 -0.12815,-0.13642 l 0.0393,-0.0258 c -0.039,-0.046 -0.086,-0.083 -0.14004,-0.108 -0.0384,-0.0452 -0.0816,-0.0831 -0.12041,-0.12764 l 0.0403,-0.0269 c -0.042,-0.05 -0.0918,-0.0882 -0.14883,-0.11523 -0.0359,-0.0424 -0.0763,-0.0781 -0.11265,-0.11989 l 0.0418,-0.0279 c -0.045,-0.053 -0.0982,-0.0939 -0.15916,-0.12195 -0.0336,-0.0397 -0.0715,-0.073 -0.10542,-0.11214 l 0.0434,-0.0289 c -0.047,-0.056 -0.10192,-0.0992 -0.16692,-0.12919 -0.0314,-0.037 -0.0665,-0.0683 -0.0982,-0.10491 l 0.045,-0.03 c -0.05,-0.058 -0.1077,-0.10391 -0.1757,-0.13591 -0.0289,-0.0341 -0.0613,-0.0629 -0.0904,-0.0966 l 0.046,-0.0305 c -0.052,-0.062 -0.11401,-0.10914 -0.18501,-0.14314 -0.0265,-0.0313 -0.0565,-0.0574 -0.0832,-0.0884 l 0.0475,-0.0315 c -0.054,-0.065 -0.11927,-0.11487 -0.19327,-0.14987 -0.0243,-0.0287 -0.052,-0.0527 -0.0765,-0.0811 l 0.0496,-0.0331 c -0.057,-0.067 -0.12406,-0.11906 -0.20206,-0.15606 -0.022,-0.0259 -0.0466,-0.0477 -0.0687,-0.0734 l 0.0506,-0.0336 c -0.06,-0.07 -0.12984,-0.12478 -0.21084,-0.16278 -0.0196,-0.0232 -0.0417,-0.0426 -0.0615,-0.0656 l 0.0517,-0.0346 c -0.062,-0.074 -0.13511,-0.13001 -0.21911,-0.17001 -0.0175,-0.0206 -0.0372,-0.0379 -0.0548,-0.0584 l 0.0537,-0.0357 c -0.065,-0.076 -0.14089,-0.1337 -0.22789,-0.1757 -0.0152,-0.0179 -0.0323,-0.0329 -0.0475,-0.0507 l 0.0553,-0.0367 c -0.067,-0.079 -0.14568,-0.13993 -0.23668,-0.18293 -0.0128,-0.0152 -0.0274,-0.0278 -0.0403,-0.0429 l 0.0563,-0.0372 c -0.069,-0.082 -0.15146,-0.14465 -0.24546,-0.18965 -0.0105,-0.0124 -0.0225,-0.0228 -0.0331,-0.0351 l 0.0584,-0.0388 c -0.072,-0.084 -0.15725,-0.15037 -0.25425,-0.19637 -0.008,-0.01 -0.0172,-0.0174 -0.0253,-0.0269 l 0.0594,-0.0398 c -0.075,-0.088 -0.16203,-0.15509 -0.26303,-0.20309 -0.006,-0.007 -0.0127,-0.0127 -0.0186,-0.0196 l 0.0605,-0.0403 c -0.077,-0.091 -0.16682,-0.16132 -0.27182,-0.21032 -0.004,-0.004 -0.007,-0.008 -0.0108,-0.0119 l 0.063,-0.0419 c -0.079,-0.093 -0.17312,-0.16501 -0.28112,-0.21601 -0.001,-0.001 -0.002,-0.003 -0.004,-0.004 l 0.0646,-0.0429 c -0.0808,-0.0947 -0.17673,-0.16824 -0.28577,-0.22015 l 0.0646,-0.0429 c -0.0805,-0.0959 -0.17625,-0.16714 -0.28525,-0.22066 l 0.0656,-0.0434 c -0.0809,-0.0948 -0.17766,-0.16537 -0.28525,-0.21963 l 0.0651,-0.0434 c -0.0814,-0.095 -0.17955,-0.16391 -0.28629,-0.21962 l 0.0651,-0.0434 c -0.0803,-0.0953 -0.17905,-0.16411 -0.28577,-0.22066 l 0.0656,-0.0434 c -0.0805,-0.0951 -0.17973,-0.16154 -0.28525,-0.21911 l 0.0656,-0.0439 c -0.081,-0.0952 -0.18102,-0.1612 -0.28577,-0.22014 l 0.0646,-0.0429 c -0.0805,-0.0951 -0.18053,-0.16019 -0.28422,-0.22014 l 0.0641,-0.0424 c -0.081,-0.0953 -0.18134,-0.15993 -0.28474,-0.22066 l 0.0651,-0.0434 c -0.0806,-0.0953 -0.1823,-0.15872 -0.28526,-0.22014 l 0.0641,-0.0429 c -0.0802,-0.0953 -0.18248,-0.158 -0.28474,-0.22014 l 0.0646,-0.0429 c -0.0805,-0.0953 -0.18319,-0.15719 -0.28526,-0.22014 l 0.0656,-0.0439 c -0.0811,-0.0949 -0.18447,-0.15635 -0.28628,-0.22014 l 0.0651,-0.0429 c -0.0806,-0.0947 -0.18382,-0.15576 -0.28474,-0.22014 l 0.0646,-0.0429 c -0.0805,-0.0958 -0.18474,-0.15568 -0.28577,-0.22066 l 0.0656,-0.0434 c -0.0808,-0.0951 -0.18523,-0.15457 -0.28578,-0.22014 l 0.0651,-0.0429 c -0.0804,-0.095 -0.18539,-0.15344 -0.28526,-0.21963 l 0.0651,-0.0434 c -0.081,-0.0954 -0.18653,-0.15373 -0.28629,-0.22066 l 0.0651,-0.0434 c -0.0805,-0.0952 -0.18579,-0.1525 -0.28474,-0.21963 l 0.0651,-0.0434 c -0.0807,-0.0951 -0.18633,-0.15193 -0.28474,-0.21962 l 0.0646,-0.0429 c -0.0808,-0.0956 -0.18749,-0.15223 -0.28628,-0.22066 l 0.0651,-0.0434 c -0.0802,-0.0947 -0.18675,-0.15083 -0.28474,-0.21962 l 0.0651,-0.0434 c -0.0779,-0.0923 -0.16603,-0.169 -0.25993,-0.23668 l 0.0398,-0.0264 c -0.0784,-0.0925 -0.16661,-0.16991 -0.26045,-0.23822 l 0.0393,-0.0258 c -0.0778,-0.0917 -0.16514,-0.16923 -0.25839,-0.23771 l 0.0383,-0.0253 c -0.0773,-0.0914 -0.1635,-0.16973 -0.25632,-0.23874 l 0.0367,-0.0243 c -0.0779,-0.0917 -0.16452,-0.17074 -0.25735,-0.24029 l 0.0362,-0.0238 c -0.0773,-0.0914 -0.16278,-0.17073 -0.25477,-0.24029 l 0.0346,-0.0227 c -0.0774,-0.0912 -0.16218,-0.17048 -0.25373,-0.24029 l 0.0341,-0.0227 c -0.0776,-0.0912 -0.16206,-0.1716 -0.25322,-0.24185 4.5e-4,-2.9e-4 0.032,-0.0212 0.032,-0.0212 -0.0768,-0.0912 -0.16118,-0.17178 -0.25218,-0.24237 4.5e-4,-2.9e-4 0.032,-0.0212 0.032,-0.0212 -0.0769,-0.091 -0.16113,-0.1712 -0.25166,-0.24185 4.3e-4,-2.9e-4 0.0315,-0.0212 0.0315,-0.0212 -0.0772,-0.0911 -0.16177,-0.17087 -0.25218,-0.24184 4.4e-4,-2.9e-4 0.0315,-0.0212 0.0315,-0.0212 -0.0771,-0.0913 -0.16204,-0.17102 -0.25218,-0.24236 4.5e-4,-3e-4 0.032,-0.0217 0.032,-0.0217 -0.0773,-0.0908 -0.16215,-0.1702 -0.25218,-0.24184 4.5e-4,-3e-4 0.032,-0.0212 0.032,-0.0212 -0.0771,-0.0913 -0.16226,-0.17005 -0.25218,-0.24185 4.4e-4,-2.9e-4 0.0315,-0.0212 0.0315,-0.0212 -0.077,-0.0914 -0.16252,-0.17009 -0.25218,-0.24237 4.6e-4,-3e-4 0.032,-0.0217 0.032,-0.0217 -0.0772,-0.091 -0.16253,-0.16943 -0.25218,-0.24185 4.5e-4,-2.9e-4 0.032,-0.0212 0.032,-0.0212 -0.0774,-0.091 -0.16322,-0.16908 -0.2527,-0.24185 4.5e-4,-3e-4 0.032,-0.0212 0.032,-0.0212 -0.0773,-0.0912 -0.16383,-0.16926 -0.25322,-0.24236 4.8e-4,-3.2e-4 0.0331,-0.0217 0.0331,-0.0217 -0.077,-0.0911 -0.16316,-0.16869 -0.25218,-0.24185 4.5e-4,-3e-4 0.032,-0.0212 0.032,-0.0212 -0.0773,-0.0912 -0.16364,-0.16838 -0.2527,-0.24184 4.4e-4,-3e-4 0.0315,-0.0212 0.0315,-0.0212 -0.077,-0.0912 -0.16343,-0.16807 -0.25218,-0.24184 l 0.0326,-0.0217 c -0.0773,-0.0908 -0.16363,-0.1679 -0.25219,-0.24184 4.6e-4,-3.1e-4 0.032,-0.0212 0.032,-0.0212 -0.0775,-0.0913 -0.16424,-0.16815 -0.25269,-0.24236 4.4e-4,-3e-4 0.0315,-0.0207 0.0315,-0.0207 -0.0769,-0.0913 -0.16388,-0.16794 -0.25218,-0.24237 l 0.0326,-0.0217 c -0.077,-0.0909 -0.16403,-0.16728 -0.25218,-0.24185 4.6e-4,-3e-4 0.032,-0.0212 0.032,-0.0212 -0.0774,-0.091 -0.16459,-0.16751 -0.2527,-0.24237 4.5e-4,-2.9e-4 0.0315,-0.0207 0.0315,-0.0207 -0.0771,-0.0914 -0.16436,-0.16727 -0.25218,-0.24236 l 0.0325,-0.0217 c -0.0772,-0.091 -0.16501,-0.16625 -0.25269,-0.24133 l 0.0326,-0.0217 c -0.0775,-0.091 -0.16509,-0.16643 -0.2527,-0.24184 4.6e-4,-3e-4 0.0315,-0.0212 0.0315,-0.0212 -0.0769,-0.091 -0.16433,-0.16632 -0.25167,-0.24185 4.6e-4,-3e-4 0.0315,-0.0212 0.0315,-0.0212 -0.0773,-0.0913 -0.16507,-0.16646 -0.25269,-0.24236 4.9e-4,-3.3e-4 0.0331,-0.0217 0.0331,-0.0217 -0.0774,-0.0912 -0.16577,-0.1659 -0.25321,-0.24184 4.6e-4,-3.2e-4 0.032,-0.0212 0.032,-0.0212 -0.0771,-0.0911 -0.16514,-0.1658 -0.25218,-0.24185 4.7e-4,-3.1e-4 0.032,-0.0212 0.032,-0.0212 -0.0773,-0.0911 -0.16523,-0.16555 -0.25218,-0.24184 l 0.0326,-0.0217 c -0.0772,-0.0909 -0.16572,-0.16551 -0.2527,-0.24185 4.6e-4,-3.1e-4 0.0315,-0.0212 0.0315,-0.0212 -0.077,-0.0912 -0.16546,-0.1653 -0.25218,-0.24184 4.7e-4,-3.2e-4 0.032,-0.0212 0.032,-0.0212 -0.0773,-0.0914 -0.1659,-0.16552 -0.2527,-0.24236 l 0.0326,-0.0217 c -0.0774,-0.091 -0.166,-0.16494 -0.2527,-0.24184 4.8e-4,-3.2e-4 0.032,-0.0212 0.032,-0.0212 -0.0772,-0.091 -0.16574,-0.16485 -0.25218,-0.24185 4.8e-4,-3.1e-4 0.032,-0.0212 0.032,-0.0212 -0.0772,-0.0915 -0.16572,-0.16553 -0.25218,-0.24288 4.8e-4,-3.2e-4 0.032,-0.0212 0.032,-0.0212 -0.0772,-0.091 -0.16592,-0.16459 -0.25218,-0.24185 4.6e-4,-3.1e-4 0.0315,-0.0212 0.0315,-0.0212 -0.077,-0.091 -0.16609,-0.16438 -0.25218,-0.24185 4.8e-4,-3.2e-4 0.032,-0.0212 0.032,-0.0212 -0.0774,-0.0912 -0.1664,-0.16461 -0.2527,-0.24236 l 0.0326,-0.0217 c -0.0775,-0.0912 -0.1666,-0.16406 -0.2527,-0.24185 4.8e-4,-3.2e-4 0.032,-0.0212 0.032,-0.0212 -0.0768,-0.0909 -0.16601,-0.1636 -0.25167,-0.24132 4.8e-4,-3.2e-4 0.0315,-0.0212 0.0315,-0.0212 -0.0772,-0.0912 -0.16677,-0.16421 -0.2527,-0.24236 l 0.0326,-0.0217 c -0.0774,-0.091 -0.16683,-0.16369 -0.25269,-0.24184 4.7e-4,-3.2e-4 0.0315,-0.0212 0.0315,-0.0212 -0.077,-0.0908 -0.16619,-0.16364 -0.25166,-0.24185 4.8e-4,-3.2e-4 0.032,-0.0212 0.032,-0.0212 -0.0774,-0.0913 -0.16704,-0.16388 -0.2527,-0.24237 l 0.0325,-0.0217 c -0.0772,-0.091 -0.16707,-0.16331 -0.25269,-0.24185 4.7e-4,-3.2e-4 0.0315,-0.0212 0.0315,-0.0212 -0.077,-0.0909 -0.16641,-0.16329 -0.25167,-0.24185 4.9e-4,-3.3e-4 0.032,-0.0212 0.032,-0.0212 -0.0772,-0.091 -0.16686,-0.16313 -0.25218,-0.24184 4.9e-4,-3.3e-4 0.032,-0.0212 0.032,-0.0212 -0.0775,-0.0915 -0.16766,-0.16377 -0.25321,-0.24288 4.9e-4,-3.3e-4 0.032,-0.0212 0.032,-0.0212 -0.0772,-0.0911 -0.16704,-0.16291 -0.25218,-0.24184 4.9e-4,-3.3e-4 0.032,-0.0212 0.032,-0.0212 -0.0772,-0.0909 -0.16676,-0.16237 -0.25167,-0.24133 5e-4,-3.3e-4 0.032,-0.0217 0.032,-0.0217 -0.0775,-0.0915 -0.16829,-0.16291 -0.25373,-0.24237 l 0.0326,-0.0217 c -0.077,-0.0911 -0.1673,-0.16209 -0.25219,-0.24133 5e-4,-3.3e-4 0.032,-0.0212 0.032,-0.0212 -0.0772,-0.0911 -0.16732,-0.16247 -0.25218,-0.24184 4.9e-4,-3.3e-4 0.0315,-0.0212 0.0315,-0.0212 -0.0772,-0.0913 -0.16782,-0.16268 -0.2527,-0.24236 l 0.0326,-0.0217 c -0.0772,-0.0909 -0.16741,-0.16228 -0.25218,-0.24184 5e-4,-3.3e-4 0.032,-0.0212 0.032,-0.0212 -0.0771,-0.091 -0.1675,-0.16209 -0.25218,-0.24184 4.9e-4,-3.3e-4 0.0315,-0.0212 0.0315,-0.0212 -0.0771,-0.0914 -0.16799,-0.16237 -0.25269,-0.24236 l 0.0326,-0.0217 c -0.0771,-0.091 -0.16764,-0.16195 -0.25218,-0.24184 5.1e-4,-3.4e-4 0.032,-0.0212 0.032,-0.0212 -0.0773,-0.0911 -0.16808,-0.16181 -0.2527,-0.24185 5e-4,-3.3e-4 0.0315,-0.0212 0.0315,-0.0212 -0.0773,-0.0912 -0.16772,-0.16211 -0.25219,-0.24237 l 0.0326,-0.0217 c -0.077,-0.0911 -0.16787,-0.16171 -0.25218,-0.24185 5.1e-4,-3.4e-4 0.032,-0.0212 0.032,-0.0212 -0.0773,-0.0913 -0.16819,-0.16194 -0.2527,-0.24237 4.9e-4,-3.2e-4 0.0315,-0.0207 0.0315,-0.0207 -0.0771,-0.0911 -0.16792,-0.16143 -0.25218,-0.24184 l 0.0326,-0.0217 c -0.0771,-0.0908 -0.16807,-0.16147 -0.25218,-0.24184 5.1e-4,-3.4e-4 0.032,-0.0212 0.032,-0.0212 -0.0774,-0.0913 -0.16841,-0.16175 -0.2527,-0.24236 5e-4,-3.3e-4 0.0315,-0.0207 0.0315,-0.0207 -0.077,-0.0913 -0.16804,-0.16166 -0.25218,-0.24237 l 0.0326,-0.0217 c -0.0771,-0.0909 -0.16823,-0.16122 -0.25218,-0.24185 5.1e-4,-3.4e-4 0.032,-0.0212 0.032,-0.0212 -0.0773,-0.0911 -0.16861,-0.16106 -0.2527,-0.24185 5.1e-4,-3.4e-4 0.0315,-0.0212 0.0315,-0.0212 -0.0773,-0.0912 -0.16862,-0.16133 -0.2527,-0.24236 l 0.0326,-0.0217 c -0.0772,-0.091 -0.16835,-0.16053 -0.25218,-0.24133 l 0.0325,-0.0217 c -0.0773,-0.0912 -0.16871,-0.16121 -0.25269,-0.24236 5e-4,-3.3e-4 0.0315,-0.0207 0.0315,-0.0207 -0.077,-0.0911 -0.16844,-0.16073 -0.25218,-0.24184 5.2e-4,-3.5e-4 0.032,-0.0212 0.032,-0.0212 -0.0773,-0.0913 -0.16877,-0.16098 -0.2527,-0.24236 5.6e-4,-3.7e-4 0.0331,-0.0217 0.0331,-0.0217 -0.0773,-0.0912 -0.16894,-0.16056 -0.2527,-0.24184 5.2e-4,-3.5e-4 0.0315,-0.0212 0.0315,-0.0212 -0.0771,-0.0911 -0.16861,-0.16049 -0.25218,-0.24185 5.3e-4,-3.5e-4 0.032,-0.0212 0.032,-0.0212 -0.0773,-0.0912 -0.16852,-0.16089 -0.25219,-0.24237 5.4e-4,-3.5e-4 0.032,-0.0212 0.032,-0.0212 -0.0771,-0.0909 -0.16862,-0.16043 -0.25218,-0.24185 5.2e-4,-3.5e-4 0.0315,-0.0212 0.0315,-0.0212 -0.0771,-0.0912 -0.16879,-0.16029 -0.25219,-0.24184 5.4e-4,-3.6e-4 0.032,-0.0212 0.032,-0.0212 -0.0773,-0.0914 -0.16911,-0.16055 -0.25269,-0.24236 l 0.0325,-0.0217 c -0.0773,-0.0911 -0.16916,-0.16017 -0.2527,-0.24184 5.4e-4,-3.6e-4 0.032,-0.0212 0.032,-0.0212 -0.0772,-0.091 -0.1689,-0.16011 -0.25218,-0.24185 5.4e-4,-3.5e-4 0.032,-0.0212 0.032,-0.0212 -0.0772,-0.0912 -0.16929,-0.16043 -0.2527,-0.24236 l 0.0326,-0.0217 c -0.0772,-0.091 -0.16891,-0.16 -0.25218,-0.24184 5.3e-4,-3.6e-4 0.0315,-0.0212 0.0315,-0.0212 -0.0771,-0.0911 -0.169,-0.15994 -0.25218,-0.24185 5.4e-4,-3.6e-4 0.032,-0.0212 0.032,-0.0212 -0.0774,-0.0913 -0.16935,-0.16022 -0.2527,-0.24236 l 0.0326,-0.0217 c -0.0774,-0.091 -0.16941,-0.15979 -0.2527,-0.24185 5.3e-4,-3.5e-4 0.0315,-0.0212 0.0315,-0.0212 -0.077,-0.0911 -0.16918,-0.15926 -0.25218,-0.24133 l 0.0326,-0.0217 c -0.0772,-0.0912 -0.16954,-0.15955 -0.2527,-0.24184 l 0.0326,-0.0217 c -0.0773,-0.091 -0.16956,-0.15962 -0.2527,-0.24184 5.4e-4,-3.6e-4 0.0315,-0.0212 0.0315,-0.0212 -0.0771,-0.0909 -0.16931,-0.15913 -0.25218,-0.24133 l 0.0326,-0.0217 c -0.0774,-0.0913 -0.16959,-0.15987 -0.2527,-0.24237 l 0.0326,-0.0217 c -0.0773,-0.0912 -0.16962,-0.15984 -0.2527,-0.24236 5.3e-4,-3.6e-4 0.0315,-0.0207 0.0315,-0.0207 -0.077,-0.091 -0.16943,-0.15894 -0.25218,-0.24133 l 0.0326,-0.0217 c -0.0771,-0.091 -0.16941,-0.15934 -0.25218,-0.24184 5.5e-4,-3.7e-4 0.032,-0.0212 0.032,-0.0212 -0.0775,-0.0914 -0.17006,-0.16004 -0.25321,-0.24288 5.6e-4,-3.7e-4 0.032,-0.0212 0.032,-0.0212 -0.0772,-0.0911 -0.16946,-0.15919 -0.25218,-0.24184 5.6e-4,-3.7e-4 0.032,-0.0212 0.032,-0.0212 -0.077,-0.091 -0.16906,-0.15921 -0.25167,-0.24184 5.7e-4,-3.8e-4 0.032,-0.0212 0.032,-0.0212 -0.0774,-0.0914 -0.1702,-0.15984 -0.25321,-0.24288 5.6e-4,-3.8e-4 0.032,-0.0212 0.032,-0.0212 -0.0771,-0.0909 -0.16963,-0.15861 -0.25218,-0.24133 5.6e-4,-3.7e-4 0.032,-0.0212 0.032,-0.0212 -0.0771,-0.091 -0.16917,-0.15905 -0.25167,-0.24185 5.7e-4,-3.8e-4 0.032,-0.0212 0.032,-0.0212 -0.0775,-0.0914 -0.17031,-0.15972 -0.25321,-0.24288 5.7e-4,-3.8e-4 0.032,-0.0212 0.032,-0.0212 -0.0772,-0.0909 -0.16966,-0.15896 -0.25218,-0.24185 5.7e-4,-3.8e-4 0.032,-0.0212 0.032,-0.0212 -0.0771,-0.091 -0.16972,-0.15889 -0.25218,-0.24184 5.8e-4,-3.8e-4 0.032,-0.0212 0.032,-0.0212 -0.0773,-0.0913 -0.17005,-0.15911 -0.25269,-0.24236 5.8e-4,-3.9e-4 0.032,-0.0217 0.032,-0.0217 -0.0771,-0.091 -0.16975,-0.15879 -0.25218,-0.24184 5.8e-4,-3.9e-4 0.032,-0.0212 0.032,-0.0212 -0.0772,-0.0911 -0.16976,-0.15873 -0.25218,-0.24185 5.8e-4,-3.8e-4 0.032,-0.0212 0.032,-0.0212 -0.0775,-0.0913 -0.17054,-0.15897 -0.25321,-0.24237 l 0.0326,-0.0217 c -0.0771,-0.0911 -0.16986,-0.15863 -0.25218,-0.24185 5.8e-4,-3.8e-4 0.032,-0.0212 0.032,-0.0212 -0.0771,-0.0911 -0.16984,-0.15855 -0.25218,-0.24185 5.8e-4,-3.9e-4 0.032,-0.0212 0.032,-0.0212 -0.0775,-0.0914 -0.17064,-0.1588 -0.25321,-0.24236 l 0.0325,-0.0217 c -0.0771,-0.0909 -0.17001,-0.15808 -0.25218,-0.24133 5.9e-4,-3.9e-4 0.032,-0.0212 0.032,-0.0212 -0.0773,-0.091 -0.17037,-0.15843 -0.2527,-0.24184 5.8e-4,-3.9e-4 0.0315,-0.0212 0.0315,-0.0212 -0.0771,-0.0913 -0.17001,-0.15876 -0.25219,-0.24236 6e-4,-4e-4 0.032,-0.0217 0.032,-0.0217 -0.077,-0.0909 -0.1701,-0.15792 -0.25218,-0.24133 l 0.0326,-0.0217 c -0.0773,-0.0911 -0.17046,-0.15824 -0.2527,-0.24185 5.8e-4,-3.8e-4 0.0315,-0.0212 0.0315,-0.0212 -0.0771,-0.091 -0.1701,-0.15827 -0.25218,-0.24185 6e-4,-4e-4 0.032,-0.0212 0.032,-0.0212 -0.0772,-0.0913 -0.17007,-0.15859 -0.25218,-0.24236 6.2e-4,-4.1e-4 0.0326,-0.0217 0.0326,-0.0217 -0.0772,-0.0911 -0.17058,-0.15812 -0.2527,-0.24185 5.8e-4,-3.9e-4 0.0315,-0.0212 0.0315,-0.0212 -0.077,-0.0911 -0.17022,-0.1581 -0.25218,-0.24184 6e-4,-4e-4 0.032,-0.0212 0.032,-0.0212 -0.0773,-0.0913 -0.17054,-0.15844 -0.2527,-0.24236 6.4e-4,-4.3e-4 0.0331,-0.0217 0.0331,-0.0217 -0.0773,-0.0912 -0.17064,-0.15795 -0.2527,-0.24184 5.9e-4,-3.9e-4 0.0315,-0.0212 0.0315,-0.0212 -0.0771,-0.0911 -0.17028,-0.15799 -0.25218,-0.24185 6.1e-4,-4e-4 0.032,-0.0212 0.032,-0.0212 -0.077,-0.0911 -0.17033,-0.15793 -0.25218,-0.24185 6.1e-4,-4.1e-4 0.032,-0.0217 0.032,-0.0217 -0.0772,-0.091 -0.17026,-0.15794 -0.25218,-0.24185 5.9e-4,-3.9e-4 0.0315,-0.0212 0.0315,-0.0212 -0.0771,-0.091 -0.17036,-0.15791 -0.25218,-0.24184 6.1e-4,-4.1e-4 0.032,-0.0212 0.032,-0.0212 -0.0773,-0.0913 -0.17074,-0.1582 -0.2527,-0.24236 l 0.0326,-0.0217 c -0.0773,-0.0911 -0.17072,-0.15777 -0.2527,-0.24184 6.1e-4,-4.1e-4 0.032,-0.0212 0.032,-0.0212 -0.077,-0.091 -0.17047,-0.15777 -0.25218,-0.24184 6.1e-4,-4.1e-4 0.032,-0.0212 0.032,-0.0212 -0.0773,-0.0912 -0.17079,-0.15811 -0.2527,-0.24236 l 0.0326,-0.0217 c -0.0773,-0.0912 -0.17083,-0.15763 -0.25269,-0.24184 6.2e-4,-4.2e-4 0.032,-0.0212 0.032,-0.0212 -0.0771,-0.0911 -0.17052,-0.15766 -0.25219,-0.24185 6.3e-4,-4.1e-4 0.032,-0.0212 0.032,-0.0212 -0.0773,-0.0913 -0.17086,-0.15799 -0.25269,-0.24237 6.5e-4,-4.3e-4 0.0325,-0.0217 0.0325,-0.0217 -0.0774,-0.091 -0.17087,-0.15759 -0.2527,-0.24185 6.2e-4,-4e-4 0.0315,-0.0212 0.0315,-0.0212 -0.077,-0.091 -0.17016,-0.1576 -0.25167,-0.24185 6.3e-4,-4.2e-4 0.032,-0.0212 0.032,-0.0212 -0.0772,-0.0912 -0.17102,-0.15741 -0.2527,-0.24184 l 0.0326,-0.0217 c -0.0773,-0.0911 -0.17098,-0.15745 -0.2527,-0.24184 6.2e-4,-4.1e-4 0.0315,-0.0212 0.0315,-0.0212 -0.0771,-0.0909 -0.17071,-0.15705 -0.25219,-0.24133 6.6e-4,-4.4e-4 0.0326,-0.0217 0.0326,-0.0217 -0.0772,-0.091 -0.17066,-0.15746 -0.25218,-0.24185 6.4e-4,-4.2e-4 0.032,-0.0212 0.032,-0.0212 -0.0774,-0.0915 -0.17136,-0.15805 -0.25322,-0.24287 6.4e-4,-4.3e-4 0.032,-0.0212 0.032,-0.0212 -0.0771,-0.091 -0.17071,-0.15735 -0.25218,-0.24185 6.5e-4,-4.2e-4 0.032,-0.0212 0.032,-0.0212 -0.0771,-0.0909 -0.17078,-0.15691 -0.25218,-0.24133 6.7e-4,-4.5e-4 0.0326,-0.0217 0.0326,-0.0217 -0.0775,-0.0914 -0.17139,-0.15799 -0.25322,-0.24288 6.5e-4,-4.3e-4 0.032,-0.0212 0.032,-0.0212 -0.0772,-0.0911 -0.17075,-0.15726 -0.25218,-0.24185 6.5e-4,-4.3e-4 0.032,-0.0212 0.032,-0.0212 -0.0769,-0.0909 -0.17046,-0.15685 -0.25166,-0.24133 6.6e-4,-4.4e-4 0.032,-0.0217 0.032,-0.0217 -0.0775,-0.0915 -0.17147,-0.15787 -0.25322,-0.24288 6.5e-4,-4.3e-4 0.032,-0.0212 0.032,-0.0212 -0.0771,-0.0909 -0.17088,-0.15675 -0.25218,-0.24133 6.6e-4,-4.3e-4 0.032,-0.0212 0.032,-0.0212 -0.0771,-0.0911 -0.17086,-0.15714 -0.25218,-0.24185 6.6e-4,-4.4e-4 0.032,-0.0212 0.032,-0.0212 -0.0775,-0.0914 -0.17157,-0.15737 -0.25322,-0.24236 l 0.0326,-0.0217 c -0.0771,-0.091 -0.17092,-0.15709 -0.25218,-0.24185 6.6e-4,-4.4e-4 0.032,-0.0212 0.032,-0.0212 -0.0771,-0.091 -0.1709,-0.15706 -0.25218,-0.24184 6.6e-4,-4.4e-4 0.032,-0.0212 0.032,-0.0212 -0.0774,-0.0913 -0.17165,-0.15729 -0.25322,-0.24236 l 0.0326,-0.0217 c -0.0771,-0.091 -0.17094,-0.15702 -0.25218,-0.24184 6.7e-4,-4.5e-4 0.032,-0.0212 0.032,-0.0212 -0.0772,-0.091 -0.17095,-0.15697 -0.25218,-0.24184 6.7e-4,-4.5e-4 0.032,-0.0212 0.032,-0.0212 -0.0774,-0.0914 -0.1717,-0.15718 -0.25321,-0.24236 l 0.0326,-0.0217 c -0.0771,-0.091 -0.17101,-0.15694 -0.25218,-0.24184 6.7e-4,-4.5e-4 0.032,-0.0212 0.032,-0.0212 -0.0771,-0.0911 -0.17101,-0.15686 -0.25218,-0.24185 6.8e-4,-4.5e-4 0.032,-0.0212 0.032,-0.0212 -0.0775,-0.0915 -0.17167,-0.15752 -0.25321,-0.24288 6.8e-4,-4.6e-4 0.032,-0.0212 0.032,-0.0212 -0.077,-0.0908 -0.17067,-0.15649 -0.25167,-0.24133 6.9e-4,-4.5e-4 0.032,-0.0212 0.032,-0.0212 -0.0772,-0.091 -0.17103,-0.15684 -0.25218,-0.24184 6.9e-4,-4.6e-4 0.032,-0.0212 0.032,-0.0212 -0.0773,-0.0913 -0.17142,-0.15709 -0.2527,-0.24236 6.7e-4,-4.4e-4 0.0315,-0.0207 0.0315,-0.0207 -0.0772,-0.0912 -0.17106,-0.1571 -0.25218,-0.24237 7.1e-4,-4.7e-4 0.0325,-0.0217 0.0325,-0.0217 -0.0772,-0.091 -0.1711,-0.15674 -0.25218,-0.24185 6.9e-4,-4.6e-4 0.032,-0.0212 0.032,-0.0212 -0.0774,-0.0912 -0.17145,-0.15705 -0.2527,-0.24237 6.7e-4,-4.4e-4 0.0315,-0.0207 0.0315,-0.0207 -0.0773,-0.0914 -0.1715,-0.15693 -0.25269,-0.24236 7.4e-4,-4.9e-4 0.0331,-0.0217 0.0331,-0.0217 -0.0755,-0.0892 -0.15744,-0.16864 -0.23668,-0.25218 1.9e-4,-1.3e-4 0.0165,-0.0109 0.0165,-0.0109 -0.0756,-0.0893 -0.15784,-0.16851 -0.2372,-0.25218 1.8e-4,-1.2e-4 0.016,-0.0109 0.016,-0.0109 -0.0757,-0.0894 -0.15781,-0.16889 -0.23719,-0.2527 l 0.0171,-0.0114 c -0.0756,-0.089 -0.15748,-0.16811 -0.23668,-0.25166 l 0.0171,-0.0114 c -0.0757,-0.0892 -0.15789,-0.16847 -0.2372,-0.25218 1.8e-4,-1.2e-4 0.016,-0.0109 0.016,-0.0109 -0.0755,-0.0893 -0.15754,-0.16842 -0.23668,-0.25218 2e-4,-1.3e-4 0.0165,-0.0114 0.0165,-0.0114 -0.0755,-0.0891 -0.15751,-0.16851 -0.23668,-0.25218 1.8e-4,-1.2e-4 0.016,-0.0109 0.016,-0.0109 -0.0755,-0.0891 -0.15758,-0.16847 -0.23668,-0.25219 2e-4,-1.2e-4 0.0165,-0.0109 0.0165,-0.0109 -0.0756,-0.0894 -0.15795,-0.16877 -0.23719,-0.25269 l 0.0171,-0.0114 c -0.0757,-0.0892 -0.15799,-0.16836 -0.2372,-0.25218 2e-4,-1.3e-4 0.0165,-0.0109 0.0165,-0.0109 -0.0754,-0.0892 -0.15766,-0.16838 -0.23668,-0.25218 2e-4,-1.3e-4 0.0165,-0.0109 0.0165,-0.0109 -0.0757,-0.0893 -0.15797,-0.16869 -0.2372,-0.2527 l 0.0171,-0.0114 c -0.0756,-0.0892 -0.15806,-0.16827 -0.2372,-0.25218 1.9e-4,-1.2e-4 0.016,-0.0108 0.016,-0.0108 -0.0754,-0.089 -0.15731,-0.16792 -0.23616,-0.25166 2e-4,-1.4e-4 0.0165,-0.0114 0.0165,-0.0114 -0.0757,-0.0893 -0.15802,-0.16866 -0.2372,-0.2527 l 0.0171,-0.0114 c -0.0756,-0.0892 -0.15806,-0.16819 -0.2372,-0.25218 1.9e-4,-1.3e-4 0.016,-0.0109 0.016,-0.0109 -0.0754,-0.0891 -0.15777,-0.16779 -0.23668,-0.25167 l 0.0171,-0.0114 c -0.0754,-0.0891 -0.15783,-0.16776 -0.23668,-0.25166 2e-4,-1.3e-4 0.0165,-0.0109 0.0165,-0.0109 -0.0758,-0.0895 -0.15844,-0.16893 -0.23771,-0.25322 2e-4,-1.3e-4 0.0165,-0.0109 0.0165,-0.0109 -0.0755,-0.0891 -0.15774,-0.1682 -0.23668,-0.25218 2e-4,-1.3e-4 0.0165,-0.0109 0.0165,-0.0109 -0.0755,-0.089 -0.15783,-0.16776 -0.23668,-0.25167 l 0.017,-0.0114 c -0.0758,-0.0896 -0.1585,-0.16886 -0.23771,-0.25322 2e-4,-1.3e-4 0.0165,-0.0109 0.0165,-0.0109 -0.0755,-0.0891 -0.1578,-0.16813 -0.23668,-0.25218 2e-4,-1.4e-4 0.0165,-0.0109 0.0165,-0.0109 -0.0755,-0.0891 -0.15789,-0.16769 -0.23668,-0.25167 l 0.0171,-0.0114 c -0.0759,-0.0895 -0.1585,-0.16881 -0.23771,-0.25321 2e-4,-1.4e-4 0.0165,-0.0108 0.0165,-0.0108 -0.0755,-0.0892 -0.15784,-0.16809 -0.23668,-0.25218 2e-4,-1.4e-4 0.0165,-0.0109 0.0165,-0.0109 -0.0754,-0.0891 -0.15792,-0.16758 -0.23667,-0.25166 l 0.0171,-0.0114 c -0.0758,-0.0895 -0.15856,-0.16874 -0.23771,-0.25321 2e-4,-1.4e-4 0.0165,-0.0109 0.0165,-0.0109 -0.0754,-0.089 -0.15794,-0.16758 -0.23667,-0.25166 2.1e-4,-1.4e-4 0.0165,-0.0114 0.0165,-0.0114 -0.0755,-0.089 -0.15792,-0.16758 -0.23668,-0.25166 2.1e-4,-1.4e-4 0.0165,-0.0109 0.0165,-0.0109 -0.0758,-0.0895 -0.15813,-0.16872 -0.23719,-0.25321 2.1e-4,-1.4e-4 0.0165,-0.0109 0.0165,-0.0109 -0.0754,-0.0891 -0.15796,-0.16799 -0.23668,-0.25218 2.1e-4,-1.4e-4 0.0165,-0.0109 0.0165,-0.0109 -0.0755,-0.0891 -0.15793,-0.16796 -0.23668,-0.25219 2.1e-4,-1.4e-4 0.0165,-0.0109 0.0165,-0.0109 -0.0758,-0.0894 -0.15869,-0.16821 -0.23771,-0.2527 l 0.0171,-0.0114 c -0.0755,-0.0891 -0.15796,-0.1679 -0.23668,-0.25219 2.2e-4,-1.4e-4 0.0165,-0.0109 0.0165,-0.0109 -0.042,-0.0496 -0.0888,-0.092 -0.13178,-0.14004 0.0459,-0.01 0.0798,-0.007 0.13075,-0.0217 h 0.001 c 0.15,-0.043 0.25794,-0.12939 0.32194,-0.25839 l 0.91054,-1.50275 h 0.0305 v 0.26407 h 0.22014 v 0.26303 h 0.001 0.21962 v 0.26304 h 0.22014 v 0.26354 h 0.22014 v 0.26304 h 0.001 0.21962 v 0.26303 h 0.22014 v 0.26407 h 0.22015 v 0.26303 h 0.001 0.22014 v 0.26303 h 0.21963 v 0.26407 h 0.22014 v 0.26303 h 0.001 0.22014 v 0.26304 h 0.21963 v 0.26406 h 0.22117 v 0.26304 h 0.22014 v 0.26251 h 0.22015 v 0.26407 h 0.22065 v 0.26303 h 0.22015 v 0.26303 h 0.22014 v 0.26407 h 0.001 0.21963 v 0.26303 h 0.22014 v 0.26304 h 6.54017 v -4.47622 h 0.21084 v 0.26304 h 0.22117 v 0.26303 h 0.21963 v 0.26407 h 0.22014 v 0.26303 h 0.22117 v 0.26303 h 0.22014 v 0.26407 h 0.21963 v 0.26303 h 0.22117 v 0.26304 h 0.22015 v 0.26406 h 0.21962 v 0.26304 h 0.19896 0.0222 v 0.26251 h 0.17001 0.0501 v 0.26407 h 0.14211 0.0775 v 0.26303 h 0.11421 0.10697 v 0.26303 h 0.0853 0.13488 v 0.26407 h 0.0568 0.1633 v 0.26303 h 0.0289 0.19172 v 0.26304 h 14.17536 5.2e-4 c 0.966,0 1.86826,-0.18277 2.70526,-0.54777 h 0.001 c 0.837,-0.386 1.56705,-0.89112 2.19005,-1.51412 0.18217,-0.18189 0.34887,-0.37369 0.50695,-0.57103 h 0.0232 l -0.0971,0.26304 h 0.12661 0.19172 l -0.0977,0.26406 h 0.11317 0.20412 l -0.0971,0.26304 h 0.0992 0.21807 l -0.0971,0.26251 h 0.0848 0.23358 l -0.0977,0.26407 h 0.0703 0.24701 l -0.0971,0.26303 h 0.0574 0.25993 l -0.0971,0.26303 h 0.0429 0.27596 l -0.0977,0.26407 h 0.0279 0.28887 l -0.0971,0.26303 h 0.0139 0.30335 l -0.0972,0.26304 h 0.001 7.05486 l 1.2883,-3.44682 h 6.11487 l 0.009,0.0238 h 0.12299 l 0.0982,0.26303 h 0.12144 l 0.0987,0.26407 h 0.12144 l 0.0982,0.26303 h 0.12299 l 0.0982,0.26304 h 0.12144 l 0.0987,0.26406 h 0.11317 0.009 l 0.0982,0.26304 h 0.0987 0.0238 l 0.0982,0.26251 h 0.0842 0.0372 l 0.0987,0.26407 h 0.0698 0.0522 l 0.0982,0.26303 h 0.0568 0.0656 l 0.0982,0.26303 h 0.0424 0.0791 l 0.0987,0.26407 h 0.0279 0.094 l 0.0982,0.26303 h 0.0139 0.10852 l 0.0982,0.26304 h 7.05538 v -0.001 l -9.24595,-24.99899 h -0.001 -0.12196 l -0.0971,-0.26303 h -0.0129 -0.11059 l -0.0977,-0.26407 h -0.0238 -0.0992 l -0.0972,-0.26303 h -0.0357 -0.0868 l -0.0971,-0.26303 h -0.0481 -0.076 l -0.0972,-0.26304 h -0.0599 -0.0625 l -0.0977,-0.26355 h -0.0718 -0.0506 l -0.0971,-0.26303 h -0.0842 -0.0398 l -0.0971,-0.26303 h -0.0951 -0.0274 l -0.0977,-0.26407 h -0.10697 -0.0155 l -0.0971,-0.26303 h -0.11938 -0.005 l -0.0971,-0.26303 h -0.12247 l -0.0977,-0.26407 h -0.12299 l -0.0971,-0.26303 h -0.12351 l -0.0971,-0.26304 h -0.12247 l -0.0977,-0.26406 h -0.12299 l -0.0971,-0.26304 h -0.12351 l -0.0971,-0.26303 h -0.12248 l -0.0977,-0.26355 h -0.12299 l -0.0972,-0.26303 h -0.1235 l -0.0971,-0.26304 h -0.12248 l -0.0977,-0.26406 h -0.12299 l -0.0971,-0.26304 h -0.12402 l -0.0971,-0.26303 h -0.12196 l -0.0977,-0.26406 h -0.12299 l -0.0971,-0.26304 h -0.12402 l -0.0971,-0.26303 h -0.12248 l -0.0971,-0.26303 h -0.12247 l -0.0977,-0.26407 h -0.12402 l -0.0972,-0.26303 h -0.12299 l -0.0971,-0.26252 h -0.12195 l -0.0977,-0.26407 h -0.12403 l -0.0971,-0.26303 h -0.12299 l -0.0971,-0.26303 h -0.12196 l -0.0977,-0.26407 h -0.12403 l -0.0971,-0.26303 h -0.12299 l -0.0971,-0.26303 h -0.12196 l -0.0977,-0.26407 h -0.12402 l -0.0971,-0.26303 h -0.12299 l -0.0972,-0.26304 h -0.12248 l -0.0977,-0.26406 h -0.12351 l -0.0971,-0.26304 h -0.12299 l -0.0971,-0.26251 h -0.12248 l -0.0977,-0.26407 h -0.1235 l -0.0971,-0.26303 h -0.12299 l -0.0972,-0.26304 h -0.12247 l -0.0977,-0.26406 h -0.1235 l -0.0972,-0.26304 h -0.12299 l -0.0971,-0.26303 h -0.12299 l -0.0971,-0.26303 h -0.12351 l -0.0977,-0.26407 h -0.12248 l -0.0971,-0.26303 h -0.12299 l -0.0971,-0.26303 h -0.12351 l -0.0977,-0.26355 h -0.12247 l -0.0972,-0.26304 h -0.12299 l -0.0971,-0.26303 h -0.12351 l -0.0977,-0.26407 h -0.12299 l -0.0971,-0.26303 h -0.12247 l -0.0971,-0.26303 h -0.12351 l -0.0977,-0.26407 h -0.12299 l -0.0971,-0.26303 h -0.12247 l -0.0971,-0.26304 h -0.12351 l -0.0977,-0.26406 h -0.12299 l -0.0971,-0.26304 h -0.12351 l -0.0971,-0.26303 h -0.12247 l -0.0977,-0.26355 h -0.12299 l -0.0971,-0.26303 h -0.12403 l -0.0971,-0.26303 h -0.12195 l -0.0977,-0.26407 h -0.12299 l -0.0971,-0.26303 h -0.12403 l -0.0971,-0.26304 h -0.12247 l -0.0971,-0.26303 h -0.12248 l -0.0977,-0.26407 h -0.12402 l -0.0971,-0.26303 h -0.12247 l -0.0972,-0.26303 h -0.12247 l -0.0977,-0.26407 h -0.12402 l -0.0971,-0.26303 h -0.12299 l -0.0971,-0.26304 h -0.12196 l -0.0977,-0.26355 h -0.12402 l -0.0971,-0.26303 h -0.12299 l -0.0972,-0.26303 h -0.12195 l -0.0977,-0.26407 h -0.12402 l -0.0972,-0.26303 h -0.12299 l -0.0971,-0.26303 h -0.12247 l -0.0977,-0.26407 h -0.12351 l -0.0971,-0.26303 h -0.12299 l -0.0971,-0.26304 h -0.12247 l -0.0977,-0.26406 h -0.12351 l -0.0971,-0.26304 h -0.12299 l -0.0971,-0.26251 h -0.12247 l -0.0977,-0.26407 h -0.12351 l -0.0971,-0.26303 h -0.12299 l -0.0971,-0.26303 h -0.12299 l -0.0971,-0.26304 h -0.12351 l -0.0977,-0.26406 h -0.12247 l -0.0971,-0.26304 h -0.12299 l -0.0972,-0.26303 h -0.1235 l -0.0977,-0.26407 h -0.12247 l -0.0972,-0.26303 h -0.12299 l -0.0971,-0.26303 h -0.1235 l -0.0977,-0.26407 h -0.12299 l -0.0971,-0.26252 h -0.12248 l -0.0971,-0.26303 h -0.12351 l -0.0977,-0.26407 h -0.12299 l -0.0972,-0.26303 h -0.12247 l -0.0971,-0.26303 h -0.12351 L 190.084,124.01 h -0.12299 l -0.0971,-0.26303 h -0.12247 l -0.0971,-0.26303 h -0.12351 l -0.0977,-0.26407 h -0.12299 l -0.0971,-0.26303 h -0.12299 l -0.0971,-0.26304 h -0.12351 l -0.0971,-0.26303 h -0.12247 l -0.0977,-0.26355 h -0.12299 l -0.0971,-0.26303 h -0.12351 l -0.0971,-0.26304 H 187.979 l -0.0977,-0.26406 h -0.12299 l -0.0971,-0.26304 h -0.12351 l -0.0971,-0.26303 h -0.12247 l -0.0977,-0.26407 h -0.12299 l -0.0971,-0.26303 h -0.12403 l -0.0971,-0.26303 h -0.12196 l -0.0977,-0.26407 h -0.12299 l -0.0972,-0.26303 h -0.12402 l -0.0971,-0.26303 h -0.12196 l -0.0977,-0.26355 h -0.12299 l -0.0971,-0.26304 h -0.12402 l -0.0971,-0.26303 h -0.12248 l -0.0977,-0.26407 h -0.12248 l -0.0971,-0.26303 h -0.12402 l -0.0971,-0.26303 h -0.12248 l -0.0977,-0.26407 h -0.12247 l -0.0971,-0.26303 h -0.12402 l -0.0972,-0.26304 h -0.12299 l -0.0971,-0.26303 h -0.12195 l -0.0977,-0.26406 h -0.12403 l -0.0971,-0.26304 h -0.12299 l -0.0971,-0.26251 h -0.12247 l -0.0977,-0.26407 h -0.12351 l -0.0971,-0.26303 h -0.12299 l -0.0972,-0.26304 h -0.12247 l -0.0977,-0.26406 h -0.12351 l -0.0971,-0.26304 h -0.12299 l -0.0971,-0.26303 h -0.12351 l -0.0977,-0.26407 h -0.12247 l -0.0971,-0.26303 h -0.12299 l -0.0971,-0.26303 h -0.12351 l -0.0977,-0.26407 h -0.12299 l -0.0971,-0.26251 h -0.12247 l -0.0972,-0.26304 h -0.1235 l -0.0977,-0.26406 H 180.266 l -0.0971,-0.26304 h -0.12248 l -0.0971,-0.26303 h -0.1235 l -0.0977,-0.26407 h -0.12299 l -0.0971,-0.26303 h -0.12299 l -0.0972,-0.26303 h -0.1235 l -0.0971,-0.26304 h -0.12248 l -0.0977,-0.26406 h -0.12299 l -0.0971,-0.26304 h -0.1235 l -0.0972,-0.26303 h -0.12247 l -0.0977,-0.26355 h -0.12299 l -0.0971,-0.26303 h -0.12351 l -0.0971,-0.26303 h -0.12247 l -0.0977,-0.26407 h -0.12299 l -0.0971,-0.26303 h -0.12402 l -0.0972,-0.26304 h -0.12195 l -0.0977,-0.26406 h -0.12299 l -0.0971,-0.26304 h -0.12403 l -0.0971,-0.26303 h -0.12195 l -0.0977,-0.26407 h -0.12299 l -0.0971,-0.26303 h -0.12403 l -0.0971,-0.26303 h -0.12195 l -0.0977,-0.26355 h -0.12299 l -0.0971,-0.26304 h -0.12403 l -0.0971,-0.26303 h -0.12247 l -0.0977,-0.26407 h -0.12247 l -0.0972,-0.26303 h -0.12402 l -0.0971,-0.26303 h -0.12299 l -0.0971,-0.26303 h -0.12196 l -0.0977,-0.26407 h -0.12402 l -0.0971,-0.26303 h -0.12299 l -0.0971,-0.26304 h -0.12248 l -0.0977,-0.26406 h -0.1235 l -0.0971,-0.26304 h -0.12299 l -0.0972,-0.26251 h -0.12247 l -0.0977,-0.26407 h -0.1235 l -0.0972,-0.26303 h -0.12299 l -0.0971,-0.26304 h -0.12247 l -0.0977,-0.26406 h -0.12351 l -0.0971,-0.26304 h -0.12299 l -0.0971,-0.26303 h -0.12247 l -0.0977,-0.26406 h -0.12402 l -0.0972,-0.26304 h -0.12247 l -0.0971,-0.26303 h -0.12247 l -0.0977,-0.26407 h -0.12403 l -0.0971,-0.26251 h -0.12247 l -0.0971,-0.26304 h -0.12248 l -0.0977,-0.26406 h -0.12403 l -0.0971,-0.263036 h -0.12247 l -0.0977,-0.26355 h -0.12247 l -0.0972,-0.263033 h -0.1235 l -0.0977,-0.26355 h -0.12299 l -0.0971,-0.263033 h -0.12196 l -0.0977,-0.26355 h -0.12402 l -0.0971,-0.263033 h -0.12248 l -0.0977,-0.26355 h -0.12248 l -0.0971,-0.263033 h -0.12351 l -0.0977,-0.263549 h -0.12299 l -0.0972,-0.263034 h -0.12247 l -0.0977,-0.263549 h -0.12299 l -0.0977,-0.26355 h -0.12299 l -0.0971,-0.263033 h -0.12247 l -0.0977,-0.26355 h -0.12351 l -0.0971,-0.263033 h -0.12247 l -0.0977,-0.26355 h -0.12299 l -0.0971,-0.263033 h -0.12299 l -0.0977,-0.26355 h -0.12299 l -0.0971,-0.263033 h -0.12247 l -0.0977,-0.26355 h -0.12403 l -0.0971,-0.263033 h -0.12195 l -0.0977,-0.263549 h -0.12248 l -0.0977,-0.26355 h -0.12403 l -0.0971,-0.263033 h -0.12196 l -0.0977,-0.26355 h -0.12403 l -0.0971,-0.263033 h -0.12247 l -0.0977,-0.26355 h -0.12299 l -0.0972,-0.263033 h -0.12299 l -0.0977,-0.26355 h -0.12247 l -0.0977,-0.26355 h -0.12299 l -0.0971,-0.263033 h -0.12299 l -0.0977,-0.263549 h -0.12299 l -0.0971,-0.263033 h -0.12248 l -0.0977,-0.26355 h -0.1235 l -0.0971,-0.263033 h -0.12248 l -0.0977,-0.26355 h -0.12299 l -0.0972,-0.263033 h -0.1235 l -0.0977,-0.26355 h -0.12247 l -0.0972,-0.263033 h -0.12247 l -0.0977,-0.26355 h -0.1235 l -0.0977,-0.26355 h -0.12248 l -0.0971,-0.263033 h -0.12247 l -0.0977,-0.263549 h -0.12402 l -0.0971,-0.263033 h -0.12196 l -0.0977,-0.26355 h -0.12299 l -0.0971,-0.263033 h -0.12351 l -0.0977,-0.26355 h -0.12299 l -0.0971,-0.263033 h -0.12195 l -0.0977,-0.26355 h -0.12403 l -0.0971,-0.263033 h -0.12247 l -0.0977,-0.26355 h -0.12196 l -0.0977,-0.26355 h -0.12403 l -0.0971,-0.263033 h -0.12247 l -0.0977,-0.263549 h -0.12299 l -0.0971,-0.263033 h -0.12299 l -0.0977,-0.26355 h -0.12299 l -0.0971,-0.263033 h -0.12248 l -0.0977,-0.26355 h -0.12351 l -0.0971,-0.263033 h -0.12248 l -0.0977,-0.26355 h -0.12299 l -0.0972,-0.263033 h -0.12299 l -0.0977,-0.26355 h -0.12248 l -0.0977,-0.26355 h -0.12299 l -0.0971,-0.263033 h -0.1235 l -0.0977,-0.263549 h -0.12248 l -0.0971,-0.263033 h -0.12247 l -0.0977,-0.26355 h -0.12402 l -0.0971,-0.263033 h -0.12196 l -0.0977,-0.26355 h -0.12247 l -0.0977,-0.26355 h -0.12402 l -0.0972,-0.263033 h -0.12247 l -0.0977,-0.26355 h -0.12247 l -0.0971,-0.263033 h -0.12351 l -0.0977,-0.26355 h -0.12299 l -0.0971,-0.263033 h -0.12196 l -0.0977,-0.263549 h -0.12403 l -0.0971,-0.263034 h -0.12247 l -0.0977,-0.263549 h -0.12196 l -0.0977,-0.26355 h -0.12402 l -0.0971,-0.263033 h -0.12247 l -0.0977,-0.26355 h -0.12299 l -0.0971,-0.263033 h -0.12299 l -0.0977,-0.26355 h -0.12299 l -0.0971,-0.263033 h -0.12248 l -0.0977,-0.26355 h -0.1235 l -0.0971,-0.263033 h -0.12248 l -0.0977,-0.26355 h -0.12299 l -0.0971,-0.263033 h -0.12299 l -0.0977,-0.263549 h -0.12247 l -0.0977,-0.26355 h -0.12299 l -0.0971,-0.263033 h -0.12351 l -0.0977,-0.26355 h -0.12248 l -0.0971,-0.263033 h -0.12247 l -0.0977,-0.26355 h -0.12402 l -0.0972,-0.263033 h -0.12195 l -0.0977,-0.26355 h -0.12299 l -0.0971,-0.263033 h -0.12351 l -0.0977,-0.26355 h -0.12299 l -0.0971,-0.263033 h -0.12195 l -0.0977,-0.263549 h -0.12351 l -0.0977,-0.26355 h -0.12299 l -0.0971,-0.263033 h -0.12196 l -0.0977,-0.26355 h -0.12403 l -0.0971,-0.263033 h -0.12247 l -0.0977,-0.26355 h -0.12351 l -0.0971,-0.263033 h -0.12247 l -0.0977,-0.26355 h -0.12247 l -0.0977,-0.26355 h -0.12403 l -0.0971,-0.263033 h -0.12195 l -0.0977,-0.263549 h -0.12299 l -0.0971,-0.263033 h -0.12351 l -0.0977,-0.26355 h -0.12247 l -0.0971,-0.263033 h -0.12248 l -0.0977,-0.26355 h -0.12402 l -0.0971,-0.263033 h -0.12196 l -0.0977,-0.26355 h -0.12247 l -0.0977,-0.26355 h -0.12402 l -0.0971,-0.263033 h -0.12248 l -0.0977,-0.26355 h -0.12248 l -0.0971,-0.263033 h -0.12351 l -0.0977,-0.263549 H 143.029 l -0.0972,-0.263033 h -0.12195 l -0.0977,-0.26355 h -0.12402 l -0.0972,-0.263033 h -0.12247 l -0.0977,-0.26355 h -0.12299 l -0.0971,-0.263033 h -0.12299 l -0.0977,-0.26355 h -0.12299 l -0.0971,-0.263033 h -0.12247 l -0.0977,-0.26355 h -0.12299 l -0.0977,-0.26355 h -0.12299 l -0.0971,-0.263033 h -0.12247 l -0.0977,-0.263549 h -0.12351 l -0.0971,-0.263033 h -0.12247 l -0.0977,-0.26355 H 140.165 l -0.0971,-0.263033 h -0.12351 l -0.0977,-0.26355 h -0.12247 l -0.0971,-0.263033 h -0.12248 l -0.0977,-0.26355 h -0.12402 l -0.0971,-0.263033 h -0.12196 l -0.0977,-0.26355 h -0.12247 l -0.0977,-0.26355 h -0.12402 l -0.0971,-0.263033 h -0.12196 l -0.0977,-0.263549 h -0.12299 l -0.0972,-0.263033 h -0.12351 l -0.0977,-0.26355 h -0.12248 l -0.0977,-0.26355 h -0.12247 l -0.0971,-0.263033 h -0.12351 l -0.0977,-0.26355 H 137.08 l -0.0971,-0.263033 h -0.12195 l -0.0977,-0.26355 h -0.12403 l -0.0971,-0.263033 h -0.12247 l -0.0977,-0.26355 h -0.12299 l -0.0971,-0.263033 h -0.12299 l -0.0977,-0.263549 h -0.12299 l -0.0971,-0.263034 h -0.12247 l -0.0977,-0.263549 h -0.12299 l -0.0977,-0.26355 h -0.12299 l -0.0971,-0.263033 h -0.12247 l -0.0977,-0.26355 h -0.12351 l -0.0971,-0.263033 h -0.12247 l -0.0977,-0.26355 h -0.12299 l -0.0971,-0.263033 h -0.12351 l -0.0977,-0.26355 h -0.12247 l -0.0971,-0.263033 h -0.12248 l -0.0977,-0.26355 h -0.12402 l -0.0971,-0.263033 h -0.12196 l -0.0977,-0.263549 h -0.12247 l -0.0977,-0.26355 h -0.12402 l -0.0971,-0.263033 h -0.12248 l -0.0977,-0.26355 h -0.12248 l -0.0971,-0.263033 h -0.12351 l -0.0977,-0.26355 h -0.12299 l -0.0972,-0.263033 h -0.12195 l -0.0977,-0.26355 h -0.12402 l -0.0972,-0.263033 h -0.12247 l -0.0977,-0.26355 h -0.12247 l -0.0971,-0.263033 h -0.12351 l -0.0977,-0.263549 h -0.12247 l -0.0977,-0.26355 h -0.12299 l -0.0971,-0.263033 h -0.12299 l -0.0977,-0.26355 h -0.12299 l -0.0971,-0.263033 h -0.12247 l -0.0977,-0.26355 h -0.12351 l -0.0971,-0.263033 h -0.12247 l -0.0977,-0.26355 h -0.12351 l -0.0977,-0.26355 h -0.12247 l -0.0971,-0.263033 h -0.12248 l -0.0977,-0.263549 h -0.12403 l -0.0971,-0.263033 h -0.12247 l -0.0977,-0.26355 h -0.12247 l -0.0972,-0.263033 h -0.1235 l -0.0977,-0.26355 h -0.12299 l -0.0971,-0.263033 h -0.12196 l -0.0977,-0.26355 h -0.1235 l -0.0977,-0.26355 h -0.12299 l -0.0971,-0.263033 h -0.12248 l -0.0977,-0.26355 h -0.1235 l -0.0971,-0.263033 h -0.12248 l -0.0977,-0.263549 h -0.12299 l -0.0971,-0.263033 h -0.12299 l -0.0977,-0.26355 h -0.12299 l -0.0971,-0.263033 h -0.12247 l -0.0977,-0.26355 h -0.12351 l -0.0971,-0.263033 h -0.12247 l -0.0977,-0.26355 h -0.12247 l -0.0977,-0.26355 h -0.12402 l -0.0972,-0.263033 h -0.12195 l -0.0977,-0.26355 h -0.12299 l -0.0971,-0.263033 h -0.12351 l -0.0977,-0.263549 h -0.12247 l -0.0971,-0.263033 h -0.12247 l -0.0977,-0.26355 h -0.12403 l -0.0971,-0.263033 h -0.12195 l -0.0977,-0.26355 h -0.12299 l -0.0971,-0.263033 h -0.12351 l -0.0977,-0.26355 h -0.12247 l -0.0977,-0.26355 h -0.12247 l -0.0972,-0.263033 h -0.1235 l -0.0977,-0.26355 H 121.436 l -0.0972,-0.263033 h -0.12196 l -0.0977,-0.263549 h -0.12402 l -0.0971,-0.263034 h -0.12248 l -0.0977,-0.263549 h -0.12248 l -0.0977,-0.26355 h -0.1235 l -0.0971,-0.263033 h -0.12248 l -0.0977,-0.26355 h -0.12299 l -0.0971,-0.263033 h -0.12299 l -0.0977,-0.26355 h -0.12299 l -0.0971,-0.263033 h -0.12247 l -0.0977,-0.26355 h -0.12351 l -0.0971,-0.263033 h -0.12247 l -0.0977,-0.26355 h -0.12299 l -0.0971,-0.263033 h -0.12351 l -0.0977,-0.263549 h -0.12195 l -0.0977,-0.26355 h -0.12299 l -0.0972,-0.263033 h -0.12351 l -0.0977,-0.26355 h -0.12247 l -0.0971,-0.263033 h -0.12248 l -0.0977,-0.26355 h -0.12403 l -0.0971,-0.263033 h -0.12196 l -0.0977,-0.26355 h -0.12299 l -0.0972,-0.263033 h -0.1235 l -0.0977,-0.26355 h -0.12299 l -0.0971,-0.263033 h -0.12196 l -0.0977,-0.263549 h -0.1235 l -0.0977,-0.26355 h -0.12299 l -0.0971,-0.263033 h -0.12196 l -0.0977,-0.26355 h -0.12402 l -0.0971,-0.263033 h -0.12248 l -0.0977,-0.26355 h -0.12299 l -0.0971,-0.263033 h -0.12299 l -0.0977,-0.26355 h -0.12299 l -0.0971,-0.263033 h -0.12247 l -0.0977,-0.26355 h -0.12351 l -0.0971,-0.263033 h -0.12247 l -0.0977,-0.263549 h -0.12299 l -0.0971,-0.26355 h -0.12351 l -0.0971,-0.263033 h -0.12247 l -0.0977,-0.26355 h -0.12299 l -0.0971,-0.263033 h -0.12351 l -0.0977,-0.26355 h -0.12247 l -0.0971,-0.263033 h -0.12248 l -0.0977,-0.26355 h -0.12351 l -0.0977,-0.26355 h -0.12247 l -0.0971,-0.263033 h -0.12351 l -0.0977,-0.263549 h -0.12299 l -0.0971,-0.263033 h -0.12247 l -0.0977,-0.26355 h -0.12351 l -0.0971,-0.263033 h -0.12247 l -0.0977,-0.26355 h -0.12299 l -0.0971,-0.263033 h -0.12299 l -0.0977,-0.26355 h -0.12247 l -0.0977,-0.26355 h -0.12299 l -0.0971,-0.263033 h -0.12299 l -0.0977,-0.26355 h -0.12299 l -0.0971,-0.263033 h -0.12248 l -0.0977,-0.263549 h -0.1235 l -0.0977,-0.263033 h -0.12196 l -0.0977,-0.26355 h -0.12299 l -0.0972,-0.263033 h -0.1235 l -0.0977,-0.26355 h -0.12248 l -0.0971,-0.263033 h -0.12247 l -0.0977,-0.26355 h -0.12351 l -0.0977,-0.26355 h -0.12248 l -0.0971,-0.263033 h -0.12299 l -0.0971,-0.26355 h -0.12351 l -0.0977,-0.263033 h -0.12247 l -0.0977,-0.263549 h -0.12247 l -0.0971,-0.263033 h -0.12351 l -0.0977,-0.26355 h -0.12299 l -0.0971,-0.263033 h -0.12247 l -0.0972,-0.26355 h -0.12351 l -0.0977,-0.263033 h -0.12299 l -0.0971,-0.26355 h -0.12299 l -0.0971,-0.26355 h -0.12299 l -0.0977,-0.263033 h -0.12247 l -0.0977,-0.26355 h -0.12299 l -0.005,-0.01344 -0.092,-0.249597 h -0.12299 l -0.0238,-0.06408 -0.0739,-0.199471 h -0.12351 l -0.0419,-0.113689 -0.0548,-0.149345 h -0.12248 l -0.0605,-0.163814 -0.0372,-0.09974 h -0.12299 l -0.0791,-0.213424 -0.0186,-0.05013 h -0.12299 l -0.0972,-0.263033 h -5.896277 l -4.401281,11.899015 c -0.0361,-0.0422 -0.0788,-0.08122 -0.116789,-0.122473 -0.01477,-0.02662 -0.02521,-0.05588 -0.04496,-0.07958 -0.05267,-0.06395 -0.117762,-0.121614 -0.174666,-0.183451 -0.01467,-0.02685 -0.02565,-0.05578 -0.04547,-0.07958 -0.05246,-0.06369 -0.117495,-0.121333 -0.17415,-0.182934 -0.01461,-0.0273 -0.02594,-0.05653 -0.04599,-0.08062 -0.05302,-0.06438 -0.118926,-0.122241 -0.176217,-0.184484 -0.01422,-0.02662 -0.02486,-0.05508 -0.04444,-0.07855 -0.05279,-0.0641 -0.118168,-0.121975 -0.175183,-0.183968 -0.01412,-0.027 -0.02521,-0.0559 -0.04496,-0.07958 -0.05294,-0.0643 -0.11852,-0.122312 -0.1757,-0.184485 -0.01385,-0.02688 -0.02487,-0.05553 -0.04444,-0.07907 -0.05303,-0.06436 -0.11895,-0.122237 -0.176217,-0.184485 -0.01364,-0.02684 -0.02491,-0.05512 -0.04444,-0.07855 -0.05279,-0.0641 -0.118199,-0.12197 -0.175183,-0.183968 -0.01351,-0.02734 -0.02521,-0.05588 -0.04496,-0.07958 -0.05297,-0.06431 -0.118518,-0.12228 -0.1757,-0.184485 -0.01321,-0.0272 -0.02534,-0.05507 -0.04496,-0.07855 -0.05255,-0.0638 -0.117971,-0.121194 -0.174666,-0.182935 -0.0131,-0.02804 -0.02544,-0.05663 -0.04547,-0.08061 -0.05266,-0.06395 -0.117855,-0.121582 -0.174667,-0.183451 -0.01279,-0.02795 -0.02567,-0.0557 -0.04548,-0.07958 -0.05278,-0.06407 -0.118241,-0.12197 -0.175183,-0.183968 -0.01251,-0.02806 -0.02567,-0.05577 -0.04548,-0.07958 -0.05243,-0.06365 -0.117628,-0.120812 -0.17415,-0.182418 -0.01224,-0.02876 -0.0259,-0.05644 -0.04599,-0.08062 -0.053,-0.06435 -0.119031,-0.12222 -0.176217,-0.184485 -0.01179,-0.02805 -0.02484,-0.05556 -0.04444,-0.07906 -0.05296,-0.0643 -0.118586,-0.12226 -0.1757,-0.184484 -0.0114,-0.0282 -0.0249,-0.0551 -0.04444,-0.07855 -0.05278,-0.06408 -0.118282,-0.121946 -0.175183,-0.183968 -0.01098,-0.02883 -0.02521,-0.05586 -0.04496,-0.07958 -0.05293,-0.06427 -0.11863,-0.122283 -0.175699,-0.184485 -0.01047,-0.0288 -0.02531,-0.05546 -0.04496,-0.07906 -0.05253,-0.06376 -0.117558,-0.121198 -0.174149,-0.182935 -7.12e-4,-8.55e-4 -0.0014,-0.0017 -0.0021,-0.0026 -0.0101,-0.0286 -0.02463,-0.05431 -0.04392,-0.07751 -0.05196,-0.06309 -0.116663,-0.119762 -0.1726,-0.180868 -0.0024,-0.0029 -0.0038,-0.0064 -0.0062,-0.0093 -0.0095,-0.0269 -0.02314,-0.05148 -0.04134,-0.07338 -0.05128,-0.06226 -0.11539,-0.117955 -0.170532,-0.178284 -0.0042,-0.005 -0.0067,-0.01101 -0.01085,-0.01602 -0.0089,-0.0254 -0.02207,-0.04813 -0.03927,-0.06873 -0.05029,-0.06107 -0.112922,-0.115971 -0.166915,-0.175183 -0.0062,-0.0075 -0.01029,-0.01627 -0.01654,-0.02377 -0.0083,-0.0238 -0.02069,-0.0453 -0.03669,-0.0646 -0.05089,-0.0618 -0.114296,-0.117345 -0.168982,-0.17725 -0.0066,-0.008 -0.01092,-0.01734 -0.01757,-0.02532 -0.0078,-0.0222 -0.01911,-0.04246 -0.03411,-0.06046 -0.04869,-0.05913 -0.109597,-0.112101 -0.161748,-0.169499 -0.0099,-0.01207 -0.01634,-0.02622 -0.02635,-0.03824 -0.0073,-0.0206 -0.01814,-0.03911 -0.03204,-0.05581 -0.0493,-0.05985 -0.110979,-0.11348 -0.163814,-0.171566 -0.01032,-0.01256 -0.01697,-0.02729 -0.02739,-0.03979 -0.0067,-0.019 -0.01614,-0.03628 -0.02894,-0.05168 -0.04854,-0.05892 -0.109267,-0.111764 -0.16123,-0.168982 -0.0122,-0.01488 -0.02022,-0.03222 -0.03256,-0.04703 -0.0061,-0.0175 -0.01507,-0.03344 -0.02687,-0.04754 -0.04778,-0.05801 -0.107559,-0.110041 -0.158647,-0.166398 -0.01392,-0.01703 -0.02311,-0.03682 -0.03721,-0.05374 -0.0056,-0.0159 -0.01359,-0.03009 -0.02429,-0.04289 -0.04702,-0.05708 -0.105847,-0.108327 -0.156062,-0.163814 -0.01578,-0.01936 -0.02636,-0.04175 -0.04237,-0.06098 -0.005,-0.0142 -0.01252,-0.02726 -0.02222,-0.03876 -0.04628,-0.0562 -0.104108,-0.10658 -0.153479,-0.161231 -0.01749,-0.0215 -0.02925,-0.04636 -0.04703,-0.0677 -0.0045,-0.0127 -0.01104,-0.02432 -0.01964,-0.03462 -0.0458,-0.0556 -0.103104,-0.10559 -0.151928,-0.15968 -0.01896,-0.02335 -0.03186,-0.05022 -0.05116,-0.07338 -0.0039,-0.0111 -0.0096,-0.02097 -0.01705,-0.02997 -0.04511,-0.05477 -0.101821,-0.103786 -0.149862,-0.157097 -0.02075,-0.02561 -0.03466,-0.05524 -0.05581,-0.08062 -0.0034,-0.0096 -0.0085,-0.01814 -0.01499,-0.02584 -0.04437,-0.05387 -0.100076,-0.10205 -0.147277,-0.154513 -0.02244,-0.02778 -0.03755,-0.05983 -0.06046,-0.08733 -0.0028,-0.0079 -0.0071,-0.01479 -0.0124,-0.02119 -0.04453,-0.05407 -0.100426,-0.102385 -0.147795,-0.155029 -0.02336,-0.02895 -0.03917,-0.0623 -0.06304,-0.09095 -0.0022,-0.0063 -0.0051,-0.01247 -0.0093,-0.01757 -0.04405,-0.05348 -0.09942,-0.10138 -0.146244,-0.153479 -0.02481,-0.0308 -0.04179,-0.06617 -0.06718,-0.09663 -0.0016,-0.0048 -0.004,-0.0091 -0.0072,-0.01292 -0.04306,-0.05229 -0.09744,-0.0989 -0.143144,-0.149862 -0.02681,-0.03339 -0.04485,-0.07191 -0.07235,-0.104903 -0.0012,-0.0032 -0.0026,-0.0062 -0.0047,-0.0088 -0.04262,-0.05174 -0.09638,-0.09786 -0.141593,-0.148311 -0.02825,-0.03525 -0.04748,-0.07578 -0.07648,-0.110588 -6e-4,-0.0016 -0.0015,-0.0028 -0.0026,-0.0041 -0.04139,-0.05025 -0.09364,-0.09514 -0.137459,-0.144177 -0.03045,-0.0381 -0.05136,-0.08178 -0.08268,-0.119373 -0.300699,-0.365099 -0.665524,-0.698205 -1.095023,-0.998905 -0.4081,-0.3007 -0.859507,-0.55828 -1.353406,-0.77308 -0.4725,-0.236199 -0.966064,-0.40833 -1.481563,-0.51573 -0.494,-0.1289 -0.977542,-0.19327 -1.450041,-0.19327 H 66.420235 v 4.476212 H 66.208362 V 24.212992 H 65.98822 V 23.949443 H 65.767562 V 23.68641 H 65.54742 V 23.42286 H 65.327279 V 23.159827 H 65.10662 v -0.26355 H 64.886479 V 22.633244 H 64.66582 v -0.26355 h -0.220141 v -0.26355 h -0.220142 v -0.263033 h -0.220658 v -0.26355 h -0.220142 v -0.263033 h -0.220141 v -0.263549 h -0.220659 v -0.263034 h -0.220141 v -0.263549 h -0.220659 v -0.26355 h -0.220141 v -0.263033 h -6.153113 c -0.1933,0 -0.365331,0.09661 -0.515731,0.289905 l -4.988326,8.278047 c -0.0016,-0.0026 -0.06873,-0.115238 -0.06873,-0.115238 -0.03923,-0.05046 -0.08658,-0.07642 -0.130224,-0.113688 -0.0027,-0.0045 -0.08992,-0.149862 -0.08992,-0.149862 h -5.17e-4 c -0.03928,-0.05051 -0.08653,-0.07638 -0.130225,-0.113688 -0.0027,-0.0045 -0.08992,-0.149345 -0.08992,-0.149345 -0.03923,-0.05046 -0.08658,-0.07641 -0.130224,-0.113688 -0.0027,-0.0045 -0.08992,-0.149862 -0.08992,-0.149862 -0.03948,-0.05078 -0.08731,-0.07677 -0.131258,-0.114205 -0.0026,-0.0044 -0.0894,-0.148828 -0.0894,-0.148828 -0.03923,-0.05046 -0.08658,-0.0764 -0.130224,-0.113688 -0.0027,-0.0045 -0.08992,-0.149862 -0.08992,-0.149862 -0.03936,-0.0506 -0.08694,-0.07634 -0.130742,-0.113688 -0.0027,-0.0044 -0.0894,-0.149345 -0.0894,-0.149345 h -5.17e-4 c -0.03923,-0.05046 -0.08659,-0.07642 -0.130224,-0.113688 -0.0027,-0.0045 -0.08992,-0.149861 -0.08992,-0.149861 -0.0394,-0.05067 -0.08689,-0.07682 -0.130742,-0.114205 -0.0026,-0.0044 -0.0894,-0.148829 -0.0894,-0.148829 -0.03949,-0.05079 -0.0873,-0.07677 -0.131258,-0.114204 -0.0027,-0.0044 -0.0894,-0.149345 -0.0894,-0.149345 -0.0394,-0.05067 -0.08689,-0.07682 -0.130741,-0.114205 -0.0026,-0.0044 -0.0894,-0.148828 -0.0894,-0.148828 -0.03923,-0.05046 -0.08658,-0.07641 -0.130224,-0.113689 -0.0027,-0.0045 -0.08992,-0.149861 -0.08992,-0.149861 -0.03944,-0.0507 -0.08736,-0.07681 -0.131258,-0.114205 -0.0027,-0.0044 -0.0894,-0.149345 -0.0894,-0.149345 -0.03936,-0.05063 -0.08694,-0.07633 -0.130741,-0.113688 -0.0027,-0.0044 -0.0894,-0.149345 -0.0894,-0.149345 -0.03924,-0.05046 -0.08658,-0.07641 -0.130225,-0.113688 -0.0027,-0.0045 -0.08992,-0.149862 -0.08992,-0.149862 h -5.17e-4 c -0.03936,-0.05063 -0.08694,-0.07633 -0.130741,-0.113688 -0.0027,-0.0044 -0.0894,-0.149345 -0.0894,-0.149345 -0.03924,-0.05046 -0.08658,-0.07641 -0.130225,-0.113688 -0.0027,-0.0045 -0.08992,-0.149862 -0.08992,-0.149862 -0.03962,-0.05095 -0.08766,-0.07669 -0.131775,-0.114205 -0.0026,-0.0044 -0.08888,-0.148828 -0.08888,-0.148828 -0.03924,-0.05046 -0.08658,-0.07641 -0.130225,-0.113688 -0.0027,-0.0045 -0.08992,-0.149862 -0.08992,-0.149862 -0.0394,-0.05067 -0.08689,-0.07682 -0.130741,-0.114204 -0.0026,-0.0044 -0.0894,-0.148829 -0.0894,-0.148829 -0.03928,-0.05051 -0.08704,-0.07638 -0.130742,-0.113688 -0.0027,-0.0045 -0.08992,-0.149861 -0.08992,-0.149861 -0.0394,-0.05067 -0.08689,-0.07682 -0.130741,-0.114205 -0.0026,-0.0044 -0.0894,-0.148828 -0.0894,-0.148828 -0.03949,-0.05079 -0.0873,-0.07677 -0.131259,-0.114205 -0.0027,-0.0044 -0.0894,-0.149345 -0.0894,-0.149345 -0.03923,-0.05046 -0.08658,-0.07641 -0.130224,-0.113688 -0.0027,-0.0045 -0.08992,-0.149862 -0.08992,-0.149862 -0.03937,-0.05063 -0.08694,-0.07633 -0.130742,-0.113688 -0.0027,-0.0044 -0.0894,-0.149345 -0.0894,-0.149345 -0.03944,-0.05073 -0.08736,-0.0768 -0.131258,-0.114205 -0.0027,-0.0044 -0.0894,-0.149345 -0.0894,-0.149345 -0.0394,-0.05067 -0.08689,-0.07682 -0.130742,-0.114205 -0.0026,-0.0044 -0.0894,-0.148828 -0.0894,-0.148828 -0.03924,-0.05046 -0.08658,-0.0764 -0.130225,-0.113688 -0.0027,-0.0045 -0.08992,-0.149862 -0.08992,-0.149862 -0.03961,-0.05094 -0.08767,-0.07721 -0.131774,-0.114721 l -0.08888,-0.148312 c -0.03923,-0.05046 -0.08658,-0.07641 -0.130225,-0.113688 L 44.567306,20.8163 c -0.03949,-0.05079 -0.0873,-0.07677 -0.131259,-0.114204 l -0.0894,-0.149345 c -0.03936,-0.05063 -0.08694,-0.07633 -0.130741,-0.113689 l -0.0894,-0.149344 c -0.1503,-0.1933 -0.332971,-0.289905 -0.547771,-0.289905 z M 167.27506,251.44977 h 0.0227 v 0.0729 l -0.0357,-0.0625 c 0.005,-0.003 0.008,-0.007 0.0129,-0.0103 z m 0.13074,0.26303 h 0.11214 v 0.19689 z" /><g
     id="g2"
     transform="translate(2.435e-4,0.12291611)"><path
       style="fill:#f9f9f9;stroke-width:0.160865"
       d="m 44.767293,59.469755 c -0.03217,0.248113 -0.05478,0.499286 -0.05478,0.756026 v 29.302084 c 0,3.23161 2.629198,5.86063 5.860624,5.86063 h 48.607369 c 3.231464,0 5.860634,-2.62902 5.860634,-5.86063 V 60.225781 c 0,-0.25674 -0.0226,-0.507913 -0.0548,-0.756026 z"
       id="path16" /><path
       id="path5"
       style="fill:#f44336;fill-opacity:1;stroke-width:0.160865"
       d="m 50.573142,54.365671 c -2.974716,0 -5.433052,2.229204 -5.805847,5.104081 h 60.219065 c -0.37279,-2.874877 -2.83112,-5.104081 -5.805854,-5.104081 z" /><g
       id="g1"><path
         style="fill:#798388;fill-opacity:1;stroke-width:0.160865"
         d="m 49.787227,83.040591 h 14.612028 c 0.816296,0 1.477946,0.661665 1.477946,1.477946 0,0.816083 -0.661866,1.477429 -1.477946,1.477429 H 49.787227 c -0.815895,0 -1.477429,-0.661148 -1.477429,-1.477429 0,-0.816281 0.661534,-1.477946 1.477429,-1.477946 z"
         id="path29" /><path
         style="fill:#798388;fill-opacity:1;stroke-width:0.160865"
         d="m 49.787227,77.783547 h 25.239286 c 0.816084,0 1.47743,0.661146 1.47743,1.47743 0,0.81628 -0.661138,1.477946 -1.47743,1.477946 H 49.787227 c -0.815893,0 -1.477429,-0.661666 -1.477429,-1.477946 0,-0.816284 0.661536,-1.47743 1.477429,-1.47743 z"
         id="path28" /><path
         style="fill:#798388;fill-opacity:1;stroke-width:0.160865"
         d="m 63.674235,67.326821 h 1.459859 v 4.985226 h -1.459859 z"
         id="path24" /><path
         style="fill:#798388;fill-opacity:1;stroke-width:0.160865"
         d="m 59.051778,67.326821 h 1.399914 v 3.721737 h 2.586923 v 1.263489 h -3.986837 z"
         id="path23" /><path
         id="path22"
         style="fill:#798388;fill-opacity:1;stroke-width:0.160865"
         d="m 73.856559,67.183161 c -0.36312,10e-7 -0.706103,0.07015 -1.028878,0.211356 -0.322776,0.13617 -0.604899,0.325326 -0.846977,0.567408 -0.237034,0.237032 -0.426188,0.516967 -0.567407,0.839742 -0.136162,0.317726 -0.204122,0.658521 -0.204122,1.021643 0,0.363116 0.06796,0.706102 0.204122,1.028878 0.141219,0.322769 0.330373,0.602704 0.567407,0.839742 0.242078,0.237032 0.524201,0.425676 0.846977,0.56689 0.322775,0.136169 0.665758,0.204639 1.028878,0.204639 0.36312,0 0.706103,-0.06847 1.028878,-0.204639 0.32277,-0.141214 0.602702,-0.329858 0.839742,-0.56689 0.242072,-0.237038 0.431234,-0.516973 0.567407,-0.839742 0.141213,-0.322776 0.211873,-0.665762 0.211873,-1.028878 0,-0.363122 -0.07066,-0.706104 -0.211873,-1.028878 -0.136173,-0.322776 -0.325335,-0.602704 -0.567407,-0.839742 -0.23704,-0.237038 -0.516972,-0.424003 -0.839742,-0.560173 -0.322775,-0.141215 -0.665758,-0.211356 -1.028878,-0.211356 z m 0,1.368909 c 0.171472,0 0.330721,0.03534 0.476973,0.105936 0.151304,0.06556 0.279594,0.156339 0.385507,0.272335 0.11096,0.115997 0.196838,0.252417 0.257348,0.408761 0.06051,0.151296 0.09095,0.312733 0.09095,0.484208 0,0.171473 -0.03044,0.335098 -0.09095,0.491443 -0.06052,0.151295 -0.146403,0.287721 -0.257348,0.40876 -0.105913,0.115999 -0.234203,0.20896 -0.385507,0.27957 -0.146252,0.06556 -0.305501,0.0987 -0.476973,0.0987 -0.171472,0 -0.332905,-0.03313 -0.484208,-0.0987 -0.146258,-0.07061 -0.274562,-0.163572 -0.385506,-0.27957 -0.105914,-0.12104 -0.191779,-0.257465 -0.257349,-0.40876 -0.06051,-0.156345 -0.09095,-0.31997 -0.09095,-0.491443 0,-0.171475 0.03044,-0.332912 0.09095,-0.484208 0.06557,-0.156344 0.151436,-0.292764 0.257349,-0.408761 0.110944,-0.115995 0.239248,-0.206765 0.385506,-0.272335 0.151303,-0.07061 0.312736,-0.105936 0.484208,-0.105936 z" /><path
         id="path21"
         style="fill:#798388;fill-opacity:1;stroke-width:0.160865"
         d="m 55.942924,67.183161 c -0.363121,10e-7 -0.706103,0.07015 -1.028878,0.211356 -0.322774,0.13617 -0.605413,0.325326 -0.847494,0.567408 -0.237032,0.237032 -0.426192,0.516967 -0.567407,0.839742 -0.136172,0.317726 -0.204122,0.658521 -0.204122,1.021643 0,0.363116 0.06795,0.706102 0.204122,1.028878 0.141215,0.322769 0.330375,0.602704 0.567407,0.839742 0.242081,0.237032 0.52472,0.425676 0.847494,0.56689 0.322775,0.136169 0.665757,0.204639 1.028878,0.204639 0.363117,0 0.706107,-0.06847 1.028877,-0.204639 0.322775,-0.141214 0.602188,-0.329858 0.839226,-0.56689 0.242075,-0.237038 0.431236,-0.516973 0.567407,-0.839742 0.141213,-0.322776 0.211873,-0.665762 0.211873,-1.028878 0,-0.363122 -0.07066,-0.706104 -0.211873,-1.028878 -0.136171,-0.322776 -0.325332,-0.602704 -0.567407,-0.839742 -0.237038,-0.237038 -0.516451,-0.424003 -0.839226,-0.560173 -0.32277,-0.141215 -0.66576,-0.211356 -1.028877,-0.211356 z m 0,1.368909 c 0.171469,0 0.330199,0.03534 0.476456,0.105936 0.151302,0.06556 0.279597,0.156339 0.385507,0.272335 0.110949,0.115997 0.196828,0.252417 0.257348,0.408761 0.06052,0.151296 0.09095,0.312733 0.09095,0.484208 0,0.171473 -0.03043,0.335098 -0.09095,0.491443 -0.06052,0.151295 -0.146399,0.287721 -0.257348,0.40876 -0.10591,0.115999 -0.234205,0.20896 -0.385507,0.27957 -0.146257,0.06556 -0.304987,0.0987 -0.476456,0.0987 -0.171474,0 -0.332907,-0.03313 -0.484209,-0.0987 -0.146252,-0.07061 -0.275074,-0.163572 -0.386022,-0.27957 -0.105914,-0.12104 -0.191789,-0.257465 -0.257349,-0.40876 -0.06052,-0.156345 -0.09043,-0.31997 -0.09043,-0.491443 0,-0.171475 0.02991,-0.332912 0.09043,-0.484208 0.06556,-0.156344 0.151438,-0.292764 0.257349,-0.408761 0.110948,-0.115995 0.23977,-0.206765 0.386022,-0.272335 0.151302,-0.07061 0.312735,-0.105936 0.484209,-0.105936 z" /><path
         style="fill:#798388;fill-opacity:1;stroke-width:0.160865"
         d="m 65.822424,66.441604 h 5.031217 v 1.346688 l -0.105936,0.105937 h -1.611788 v 4.417818 h -1.595768 v -4.417818 h -1.611788 l -0.105937,-0.105937 z"
         id="path20" /><path
         id="path19"
         style="fill:#798388;fill-opacity:1;stroke-width:0.160865"
         d="m 48.309798,66.441604 v 5.870443 h 1.573547 v -1.823145 h 1.066602 c 0.282423,0 0.552042,-0.05325 0.809253,-0.159163 0.262249,-0.110954 0.491639,-0.259363 0.68833,-0.445968 0.201734,-0.191648 0.360975,-0.413942 0.476973,-0.666109 0.121045,-0.252168 0.181385,-0.524494 0.181385,-0.817004 0,-0.287472 -0.06034,-0.552187 -0.181385,-0.794267 -0.115998,-0.242081 -0.275239,-0.448649 -0.476973,-0.620117 -0.196691,-0.171474 -0.426081,-0.30519 -0.68833,-0.40101 -0.257211,-0.09582 -0.52683,-0.14366 -0.809253,-0.14366 z m 1.611271,1.301213 h 0.91519 c 0.09078,0 0.176648,0.0174 0.257348,0.05271 0.08069,0.03026 0.151354,0.07591 0.211874,0.136425 0.06052,0.05548 0.10836,0.120721 0.14366,0.196371 0.03531,0.07565 0.05271,0.159334 0.05271,0.250114 0,0.09078 -0.0174,0.173947 -0.05271,0.249597 -0.0353,0.07565 -0.08314,0.143602 -0.14366,0.204122 -0.06052,0.05547 -0.131184,0.100599 -0.211874,0.135909 -0.08069,0.03026 -0.166568,0.04547 -0.257348,0.04547 h -0.91519 z" /></g></g><path
     id="path1"
     style="fill:#5c6bc0;stroke-width:1.09875"
     d="m 90.467346,66.441423 c -3.640942,0 -6.592362,2.951936 -6.592362,6.592879 0,3.640931 2.95142,6.592362 6.592362,6.592362 3.64094,0 6.59236,-2.951431 6.59236,-6.592362 0,-3.640943 -2.95142,-6.592879 -6.59236,-6.592879 z m 0,15.382523 c -3.050901,0 -5.432253,0.243202 -7.217647,0.991671 -1.911551,0.80132 -3.08266,2.159845 -3.707268,4.134631 -0.230858,0.7299 0.31595,1.466577 1.073837,1.466577 h 19.694922 c 0.76099,0 1.31172,-0.739846 1.07901,-1.473811 -0.62651,-1.974897 -1.801884,-3.332816 -3.716574,-4.132048 -1.78382,-0.744623 -4.16163,-0.98702 -7.20628,-0.98702 z" /><text
     xml:space="preserve"
     transform="matrix(0.76034063,0,0,0.76034063,-58.495415,-219.06395)"
     id="text1040"
     style="font-style:normal;font-variant:normal;font-weight:normal;font-stretch:normal;font-size:40px;line-height:1.25;font-family:PRIMETIME;-inkscape-font-specification:'PRIMETIME, Normal';font-variant-ligatures:normal;font-variant-caps:normal;font-variant-numeric:normal;font-variant-east-asian:normal;letter-spacing:0px;word-spacing:0px;white-space:pre;shape-inside:url(#rect1040);fill:#ffd500;fill-opacity:1;stroke:none"><tspan
       x="128.77148"
       y="458.12891"
       id="tspan1">REG</tspan></text><text
     xml:space="preserve"
     transform="matrix(0.80541237,0,0,0.80541237,-64.741473,-41.880713)"
     id="text3057"
     style="font-style:normal;font-variant:normal;font-weight:normal;font-stretch:normal;font-size:40px;line-height:1.25;font-family:PRIMETIME;-inkscape-font-specification:'PRIMETIME, Normal';font-variant-ligatures:normal;font-variant-caps:normal;font-variant-numeric:normal;font-variant-east-asian:normal;letter-spacing:0px;word-spacing:0px;white-space:pre;shape-inside:url(#rect3058);fill:#ffd500;fill-opacity:1;stroke:none"><tspan
       x="124.65039"
       y="107.87109"
       id="tspan2">MBA</tspan></text></svg>
