<?xml version="1.0" encoding="UTF-8" standalone="no"?>
<!-- Created with Inkscape (http://www.inkscape.org/) -->

<svg
   width="67.73333mm"
   height="67.733337mm"
   viewBox="0 0 67.733327 67.733335"
   version="1.1"
   id="svg1"
   xml:space="preserve"
   sodipodi:docname="C4.svg"
   inkscape:version="1.3 (0e150ed6c4, 2023-07-21)"
   inkscape:export-filename="..\..\..\..\..\..\..\OneDrive\Documenti\Da caricare TG\amb4.png"
   inkscape:export-xdpi="1536.0001"
   inkscape:export-ydpi="1536.0001"
   xmlns:inkscape="http://www.inkscape.org/namespaces/inkscape"
   xmlns:sodipodi="http://sodipodi.sourceforge.net/DTD/sodipodi-0.dtd"
   xmlns="http://www.w3.org/2000/svg"
   xmlns:svg="http://www.w3.org/2000/svg"><sodipodi:namedview
     id="namedview1"
     pagecolor="#ffffff"
     bordercolor="#999999"
     borderopacity="1"
     inkscape:showpageshadow="2"
     inkscape:pageopacity="0"
     inkscape:pagecheckerboard="0"
     inkscape:deskcolor="#d1d1d1"
     inkscape:document-units="mm"
     inkscape:zoom="1.4790474"
     inkscape:cx="305.60211"
     inkscape:cy="150.43466"
     inkscape:window-width="1920"
     inkscape:window-height="1001"
     inkscape:window-x="-9"
     inkscape:window-y="-9"
     inkscape:window-maximized="1"
     inkscape:current-layer="svg1" /><defs
     id="defs1"><rect
       x="128.7717"
       y="414.12979"
       width="302.87103"
       height="109.1984"
       id="rect1040" /><rect
       x="124.651"
       y="63.870762"
       width="290.50894"
       height="105.07771"
       id="rect3058" /></defs><path
     id="rect1-3"
     style="fill:#4bb450;fill-opacity:1;stroke-width:0.133494"
     d="M 0,0 H 67.73332 V 67.733329 H 0 Z"
     inkscape:export-filename="..\b\C4.png"
     inkscape:export-xdpi="347.36404"
     inkscape:export-ydpi="347.36404" /><path
     id="path39"
     style="fill:#000001;stroke-width:0.0727587;fill-opacity:0.24705882"
     d="M 16.942118 9.0459595 L 16.942118 20.35328 L 21.580078 24.991239 C 21.142593 25.238422 20.778475 25.600462 20.540348 26.043888 L 20.540348 26.044405 C 20.391523 26.321658 20.290509 26.628482 20.248376 26.953394 C 20.233826 27.065612 20.223572 27.179369 20.223572 27.295492 L 20.223572 40.548946 C 20.223572 41.279767 20.520861 41.942302 21.000785 42.422217 L 29.327409 50.74884 L 29.327409 52.166325 L 26.103316 48.942232 C 26.078016 48.916932 26.052102 48.891885 26.025802 48.866785 C 25.814873 48.66503 25.585596 48.486284 25.337988 48.330383 C 25.090384 48.165311 24.833439 48.036584 24.567493 47.944877 C 24.301544 47.844 24.04034 47.793982 23.783561 47.793982 L 18.432467 47.793982 L 18.432467 58.468266 L 27.697534 67.733333 L 67.733333 67.733333 L 67.733333 30.169735 L 46.609558 9.0459595 L 43.942537 9.0459595 L 42.144714 13.907161 L 38.244694 10.007141 C 38.234432 9.996872 38.220588 9.9883433 38.210071 9.9782023 C 38.114658 9.8862248 38.012341 9.7977261 37.895878 9.7162028 C 37.711307 9.5802035 37.50694 9.4634957 37.283512 9.3663534 C 37.069802 9.2594967 36.846411 9.1818639 36.613269 9.1332926 C 36.389841 9.0750078 36.171209 9.0459595 35.957495 9.0459595 L 30.041577 9.0459595 L 30.041577 10.736296 L 28.351241 9.0459595 L 25.568465 9.0459595 C 25.481035 9.0459595 25.402888 9.0897897 25.334888 9.1772176 L 23.314856 12.528951 L 19.923332 9.1374268 C 19.917261 9.1313536 19.908421 9.1335928 19.902144 9.128125 C 19.845552 9.0788287 19.783345 9.0459595 19.710425 9.0459595 L 16.942118 9.0459595 z " /><path
     style="fill:#f9f9f9;stroke-width:0.0727587"
     d="m 20.248214,26.953575 c -0.01455,0.112221 -0.02478,0.225825 -0.02478,0.341948 v 13.253239 c 0,1.461647 1.189178,2.650744 2.650742,2.650744 h 21.984958 c 1.461579,0 2.650744,-1.189097 2.650744,-2.650744 V 27.295523 c 0,-0.116123 -0.01022,-0.229727 -0.02479,-0.341948 z"
     id="path16" /><path
     id="path5"
     style="fill:#f44336;fill-opacity:1;stroke-width:0.0727587"
     d="m 22.874181,24.645014 c -1.345455,0 -2.457352,1.008262 -2.625966,2.30856 h 27.236889 c -0.168611,-1.300298 -1.280506,-2.30856 -2.625968,-2.30856 z" /><path
     style="fill:#798388;fill-opacity:1;stroke-width:0.0727587"
     d="m 22.518714,37.614589 h 6.608973 c 0.369209,0 0.668471,0.299269 0.668471,0.66847 0,0.369112 -0.29936,0.668237 -0.668471,0.668237 h -6.608973 c -0.369026,0 -0.668236,-0.299036 -0.668236,-0.668237 0,-0.369201 0.29921,-0.66847 0.668236,-0.66847 z"
     id="path29" /><path
     style="fill:#798388;fill-opacity:1;stroke-width:0.0727587"
     d="m 22.518714,35.236845 h 11.415648 c 0.369113,0 0.668237,0.299034 0.668237,0.668237 0,0.3692 -0.29903,0.66847 -0.668237,0.66847 H 22.518714 c -0.369026,0 -0.668236,-0.29927 -0.668236,-0.66847 0,-0.369203 0.29921,-0.668237 0.668236,-0.668237 z"
     id="path28" /><path
     style="fill:#798388;fill-opacity:1;stroke-width:0.0727587"
     d="m 28.799764,30.507301 h 0.660289 v 2.254802 h -0.660289 z"
     id="path24" /><path
     style="fill:#798388;fill-opacity:1;stroke-width:0.0727587"
     d="m 26.709041,30.507301 h 0.633177 v 1.68333 h 1.170057 v 0.571472 h -1.803234 z"
     id="path23" /><path
     id="path22"
     style="fill:#798388;fill-opacity:1;stroke-width:0.0727587"
     d="m 33.405196,30.442324 c -0.164238,0 -0.319368,0.03173 -0.465358,0.0956 -0.145991,0.06159 -0.273594,0.147143 -0.383085,0.256636 -0.10721,0.107209 -0.192763,0.233823 -0.256637,0.379813 -0.06159,0.143706 -0.09232,0.297847 -0.09232,0.462086 0,0.164236 0.03074,0.319368 0.09232,0.465358 0.06387,0.145987 0.149427,0.272601 0.256637,0.379813 0.109491,0.107209 0.237095,0.192532 0.383085,0.256402 0.14599,0.06159 0.30112,0.09256 0.465358,0.09256 0.164238,0 0.319368,-0.03097 0.465359,-0.09256 0.145987,-0.06387 0.272599,-0.149193 0.379812,-0.256402 0.109488,-0.107212 0.195046,-0.233826 0.256637,-0.379813 0.06387,-0.14599 0.09583,-0.301122 0.09583,-0.465358 0,-0.164239 -0.03196,-0.319369 -0.09583,-0.465358 -0.06159,-0.145991 -0.147148,-0.272601 -0.256637,-0.379813 -0.107212,-0.107212 -0.233825,-0.191775 -0.379812,-0.253364 -0.14599,-0.06387 -0.301121,-0.0956 -0.465359,-0.0956 z m 0,0.619153 c 0.07756,0 0.149584,0.01598 0.215734,0.04791 0.06843,0.02965 0.126459,0.07071 0.174363,0.123176 0.05019,0.05246 0.08903,0.114167 0.116398,0.184881 0.02737,0.06843 0.04114,0.141448 0.04114,0.219006 0,0.07756 -0.01377,0.151564 -0.04114,0.222278 -0.02737,0.06843 -0.06622,0.130135 -0.116398,0.184881 -0.0479,0.05247 -0.105929,0.09451 -0.174363,0.126448 -0.06615,0.02965 -0.138178,0.04464 -0.215734,0.04464 -0.07756,0 -0.150571,-0.01498 -0.219005,-0.04464 -0.06615,-0.03194 -0.124184,-0.07398 -0.174364,-0.126448 -0.04791,-0.05475 -0.08674,-0.116451 -0.116398,-0.184881 -0.02737,-0.07071 -0.04114,-0.144721 -0.04114,-0.222278 0,-0.07756 0.01377,-0.150575 0.04114,-0.219006 0.02966,-0.07071 0.06849,-0.132416 0.116398,-0.184881 0.05018,-0.05246 0.108212,-0.09352 0.174364,-0.123176 0.06843,-0.03194 0.141449,-0.04791 0.219005,-0.04791 z" /><path
     id="path21"
     style="fill:#798388;fill-opacity:1;stroke-width:0.0727587"
     d="m 25.302916,30.442324 c -0.164238,0 -0.319368,0.03173 -0.465358,0.0956 -0.14599,0.06159 -0.273826,0.147143 -0.383319,0.256636 -0.107208,0.107209 -0.192765,0.233823 -0.256636,0.379813 -0.06159,0.143706 -0.09232,0.297847 -0.09232,0.462086 0,0.164236 0.03073,0.319368 0.09232,0.465358 0.06387,0.145987 0.149427,0.272601 0.256636,0.379813 0.109493,0.107209 0.23733,0.192532 0.383319,0.256402 0.14599,0.06159 0.30112,0.09256 0.465358,0.09256 0.164237,0 0.31937,-0.03097 0.465358,-0.09256 0.14599,-0.06387 0.272367,-0.149193 0.379579,-0.256402 0.10949,-0.107212 0.195047,-0.233826 0.256637,-0.379813 0.06387,-0.14599 0.09583,-0.301122 0.09583,-0.465358 0,-0.164239 -0.03196,-0.319369 -0.09583,-0.465358 -0.06159,-0.145991 -0.147147,-0.272601 -0.256637,-0.379813 -0.107212,-0.107212 -0.233589,-0.191775 -0.379579,-0.253364 -0.145988,-0.06387 -0.301121,-0.0956 -0.465358,-0.0956 z m 0,0.619153 c 0.07756,0 0.149348,0.01598 0.215499,0.04791 0.06843,0.02965 0.126462,0.07071 0.174364,0.123176 0.05018,0.05246 0.08902,0.114167 0.116398,0.184881 0.02737,0.06843 0.04114,0.141448 0.04114,0.219006 0,0.07756 -0.01376,0.151564 -0.04114,0.222278 -0.02737,0.06843 -0.06622,0.130135 -0.116398,0.184881 -0.0479,0.05247 -0.10593,0.09451 -0.174364,0.126448 -0.06615,0.02965 -0.137944,0.04464 -0.215499,0.04464 -0.07756,0 -0.150572,-0.01498 -0.219006,-0.04464 -0.06615,-0.03194 -0.124415,-0.07398 -0.174596,-0.126448 -0.04791,-0.05475 -0.08675,-0.116451 -0.116398,-0.184881 -0.02737,-0.07071 -0.0409,-0.144721 -0.0409,-0.222278 0,-0.07756 0.01353,-0.150575 0.0409,-0.219006 0.02965,-0.07071 0.06849,-0.132416 0.116398,-0.184881 0.05018,-0.05246 0.108447,-0.09352 0.174596,-0.123176 0.06843,-0.03194 0.141449,-0.04791 0.219006,-0.04791 z" /><path
     style="fill:#798388;fill-opacity:1;stroke-width:0.0727587"
     d="m 29.771382,30.10692 h 2.275604 v 0.609103 l -0.04791,0.04791 H 31.27007 v 1.998165 h -0.721761 v -1.998165 h -0.729007 l -0.04791,-0.04791 z"
     id="path20" /><path
     id="path19"
     style="fill:#798388;fill-opacity:1;stroke-width:0.0727587"
     d="m 21.850478,30.10692 v 2.655183 h 0.71171 V 31.9375 h 0.482421 c 0.127739,0 0.249687,-0.02408 0.366022,-0.07199 0.118614,-0.05018 0.222367,-0.117309 0.31133,-0.20171 0.09124,-0.08668 0.163268,-0.187224 0.215733,-0.301279 0.05475,-0.114055 0.08204,-0.237227 0.08204,-0.369528 0,-0.130023 -0.02729,-0.249753 -0.08204,-0.359245 -0.05247,-0.109492 -0.124489,-0.202922 -0.215733,-0.280476 -0.08896,-0.07756 -0.192716,-0.138037 -0.31133,-0.181376 -0.116335,-0.04334 -0.238283,-0.06498 -0.366022,-0.06498 z m 0.728773,0.588535 h 0.413937 c 0.04106,0 0.0799,0.0079 0.116398,0.02384 0.0365,0.01369 0.06846,0.03433 0.09583,0.0617 0.02737,0.02509 0.04901,0.0546 0.06498,0.08882 0.01597,0.03422 0.02384,0.07207 0.02384,0.113125 0,0.04106 -0.0079,0.07868 -0.02384,0.112892 -0.01597,0.03422 -0.0376,0.06495 -0.06498,0.09232 -0.02737,0.02509 -0.05933,0.0455 -0.09583,0.06147 -0.0365,0.01369 -0.07534,0.02057 -0.116398,0.02057 h -0.413937 z" /><path
     id="path1"
     style="fill:#5c6bc0;stroke-width:0.496961"
     d="m 40.918092,30.051244 c -1.646786,0 -2.981704,1.335151 -2.981704,2.981938 0,1.646781 1.334918,2.981704 2.981704,2.981704 1.646786,0 2.981703,-1.334923 2.981703,-2.981704 0,-1.646787 -1.334917,-2.981938 -2.981703,-2.981938 z m 0,6.957466 c -1.379913,0 -2.456991,0.109999 -3.264519,0.448529 -0.864588,0.362435 -1.394277,0.976891 -1.676785,1.870081 -0.104417,0.330131 0.142903,0.663328 0.485693,0.663328 h 8.90795 c 0.344194,0 0.593287,-0.33463 0.488033,-0.6666 -0.283368,-0.89324 -0.814986,-1.507422 -1.680995,-1.868912 -0.806816,-0.336791 -1.882292,-0.446426 -3.259377,-0.446426 z" /><path
     style="font-size:40px;line-height:1.25;font-family:PRIMETIME;-inkscape-font-specification:'PRIMETIME, Normal';letter-spacing:0px;word-spacing:0px;white-space:pre;fill:#ffd500;stroke-width:0.3439"
     d="M 46.866069,58.468442 V 58.16581 q -1.238039,0.632776 -2.613638,0.632776 -1.19677,0 -2.228469,-0.440192 -1.017943,-0.440191 -1.774522,-1.196771 -0.75658,-0.770335 -1.183015,-1.788278 -0.426436,-1.031699 -0.426436,-2.214713 0,-1.155503 0.426436,-2.187202 0.440191,-1.031699 1.196771,-1.802034 0.770335,-0.784091 1.788278,-1.224283 1.031699,-0.453947 2.214713,-0.453947 1.265551,0 2.393542,0.550239 1.141747,0.536483 1.980862,1.526914 l -2.338518,1.554427 q -0.426435,-0.426436 -0.949163,-0.646532 -0.508971,-0.233851 -1.086723,-0.233851 -0.605263,0 -1.12799,0.247607 -0.508972,0.233852 -0.894139,0.632776 -0.371412,0.398923 -0.591508,0.935407 -0.20634,0.522727 -0.20634,1.114235 0,0.591507 0.20634,1.12799 0.220096,0.536484 0.605264,0.935407 0.385167,0.398924 0.894139,0.646532 0.522727,0.233852 1.12799,0.233852 0.646532,0 1.224283,-0.288876 0.591508,-0.288876 0.990431,-0.811603 h -1.88457 v -2.57237 h 4.690791 v 6.025122 z"
     id="path13" /><path
     style="font-size:40px;line-height:1.25;font-family:PRIMETIME;-inkscape-font-specification:'PRIMETIME, Normal';letter-spacing:0px;word-spacing:0px;white-space:pre;fill:#ffd500;stroke-width:0.3439"
     d="M 29.327187,58.468442 V 47.793797 h 8.514955 v 2.544858 h -5.736246 v 1.526914 h 5.406103 v 2.544857 h -5.406103 v 1.526915 h 5.736246 v 2.531101 z"
     id="path12" /><path
     id="text1040"
     style="font-size:40px;line-height:1.25;font-family:PRIMETIME;-inkscape-font-specification:'PRIMETIME, Normal';letter-spacing:0px;word-spacing:0px;white-space:pre;fill:#ffd500;stroke-width:0.3439"
     d="M 18.432467 47.793982 L 18.432467 58.468266 L 21.376473 58.468266 L 21.36252 55.167175 L 23.164478 55.167175 L 25.021729 58.468266 L 28.226701 58.468266 L 25.722978 54.066467 C 26.163169 53.754665 26.507348 53.369514 26.754956 52.910982 C 27.002563 52.45245 27.125993 51.957183 27.125993 51.425285 C 27.125993 51.104312 27.075974 50.769697 26.975098 50.421212 C 26.883391 50.063557 26.745616 49.751817 26.562203 49.485868 C 26.415472 49.274944 26.236726 49.068539 26.025802 48.866785 C 25.814876 48.66503 25.585596 48.486284 25.337988 48.330383 C 25.090381 48.165311 24.833442 48.036584 24.567493 47.944877 C 24.301544 47.844 24.04034 47.793982 23.783561 47.793982 L 18.432467 47.793982 z M 21.279838 50.159729 L 22.944336 50.159729 C 23.109408 50.159729 23.265278 50.192171 23.412008 50.256364 C 23.558738 50.311388 23.687466 50.393847 23.797514 50.503894 C 23.907563 50.604771 23.994287 50.723935 24.05848 50.861495 C 24.122673 50.999055 24.155115 51.150142 24.155115 51.315214 C 24.155115 51.480285 24.122673 51.63189 24.05848 51.76945 C 23.994285 51.90701 23.907562 52.030439 23.797514 52.140487 C 23.687466 52.241365 23.558738 52.32434 23.412008 52.388534 C 23.265278 52.44356 23.109408 52.470699 22.944336 52.470699 L 21.279838 52.470699 L 21.279838 50.159729 z " /><path
     id="path10"
     style="font-size:40px;line-height:1.25;font-family:PRIMETIME;-inkscape-font-specification:'PRIMETIME, Normal';letter-spacing:0px;word-spacing:0px;white-space:pre;fill:#ffd500;stroke-width:0.364285"
     d="M 43.942537 9.0459595 L 39.760881 20.35328 L 42.9519 20.35328 L 43.53481 18.794202 L 47.017285 18.794202 L 47.600195 20.35328 L 50.791215 20.35328 L 46.609558 9.0459595 L 43.942537 9.0459595 z M 45.283541 13.184208 L 46.172375 16.171106 L 44.37972 16.171106 L 45.283541 13.184208 z " /><path
     id="path7"
     style="font-size:40px;line-height:1.25;font-family:PRIMETIME;-inkscape-font-specification:'PRIMETIME, Normal';letter-spacing:0px;word-spacing:0px;white-space:pre;fill:#ffd500;stroke-width:0.364285"
     d="M 30.041577 9.0459595 L 30.041577 20.35328 L 36.453072 20.35328 C 36.890214 20.35328 37.29843 20.270891 37.677287 20.10575 C 38.056142 19.930892 38.38621 19.702751 38.667924 19.421037 C 38.959352 19.129608 39.182739 18.794269 39.338167 18.415413 C 39.50331 18.026843 39.585697 17.618625 39.585697 17.191199 C 39.585697 16.948342 39.54714 16.700662 39.469425 16.448092 C 39.401427 16.185806 39.304256 15.938125 39.17797 15.704985 C 39.051686 15.471842 38.896419 15.257965 38.711849 15.06368 C 38.536992 14.869395 38.342653 14.70462 38.128939 14.56862 C 38.459223 14.267477 38.711658 13.917873 38.886515 13.519588 C 39.061372 13.11159 39.149032 12.68859 39.149032 12.251449 C 39.149032 11.872592 39.08091 11.503449 38.94491 11.144023 C 38.818624 10.784594 38.633795 10.459283 38.390938 10.167855 C 38.254939 10.002712 38.090164 9.8522025 37.895878 9.7162028 C 37.711307 9.5802032 37.50694 9.463496 37.283512 9.3663534 C 37.069799 9.2594964 36.846411 9.1818639 36.613269 9.1332926 C 36.389841 9.0750075 36.171209 9.0459595 35.957495 9.0459595 L 30.041577 9.0459595 z M 33.014006 11.319206 L 35.039722 11.319206 C 35.350578 11.319206 35.617795 11.435397 35.841223 11.668538 C 36.074366 11.891966 36.190556 12.159183 36.190556 12.47004 C 36.190556 12.780896 36.074366 13.052868 35.841223 13.286011 C 35.617795 13.509439 35.350578 13.621391 35.039722 13.621391 L 33.014006 13.621391 L 33.014006 11.319206 z M 33.014006 15.676046 L 35.141524 15.676046 C 35.462095 15.676046 35.734067 15.787481 35.957495 16.010909 C 36.180923 16.234337 36.292875 16.501554 36.292875 16.81241 C 36.292875 17.132981 36.180923 17.404954 35.957495 17.628381 C 35.734067 17.85181 35.462095 17.963761 35.141524 17.963761 L 33.014006 17.963761 L 33.014006 15.676046 z " /><path
     style="font-size:40px;line-height:1.25;font-family:PRIMETIME;-inkscape-font-specification:'PRIMETIME, Normal';letter-spacing:0px;word-spacing:0px;white-space:pre;fill:#ffd500;stroke-width:0.364285"
     d="m 25.393383,20.353355 v -5.813994 l -2.418855,3.992567 q -0.04371,0.08743 -0.145715,0.116571 -0.102,0.02914 -0.174857,0.02914 -0.08743,0 -0.189428,-0.02914 -0.102,-0.02914 -0.145714,-0.116571 l -2.418856,-3.992567 v 5.813994 H 16.941961 V 9.0459364 h 2.768569 q 0.145714,0 0.247714,0.1311428 l 2.681141,4.4734248 2.695712,-4.4734248 q 0.102,-0.1311428 0.233143,-0.1311428 h 2.783141 V 20.353355 Z"
     id="text3057" /></svg>
