<?xml version="1.0" encoding="UTF-8" standalone="no"?>
<!-- Created with Inkscape (http://www.inkscape.org/) -->

<svg
   width="149.75414mm"
   height="149.75417mm"
   viewBox="0 0 149.75413 149.75416"
   version="1.1"
   id="svg1"
   xml:space="preserve"
   sodipodi:docname="template-matricole-a.svg"
   xmlns:inkscape="http://www.inkscape.org/namespaces/inkscape"
   xmlns:sodipodi="http://sodipodi.sourceforge.net/DTD/sodipodi-0.dtd"
   xmlns="http://www.w3.org/2000/svg"
   xmlns:svg="http://www.w3.org/2000/svg"><sodipodi:namedview
     id="namedview1"
     pagecolor="#ffffff"
     bordercolor="#999999"
     borderopacity="1"
     inkscape:showpageshadow="2"
     inkscape:pageopacity="0"
     inkscape:pagecheckerboard="0"
     inkscape:deskcolor="#d1d1d1"
     inkscape:document-units="mm"
     inkscape:zoom="0.9707102"
     inkscape:cx="224.57784"
     inkscape:cy="506.33031"
     inkscape:window-width="1920"
     inkscape:window-height="991"
     inkscape:window-x="-9"
     inkscape:window-y="-9"
     inkscape:window-maximized="1"
     inkscape:current-layer="svg1" /><defs
     id="defs1"><rect
       x="128.7717"
       y="414.12979"
       width="302.87103"
       height="109.1984"
       id="rect1040" /><rect
       x="124.651"
       y="63.870762"
       width="290.50894"
       height="105.07771"
       id="rect3058" /></defs><path
     id="rect1-3"
     style="fill:#4bb450;fill-opacity:1;stroke-width:0.295148"
     d="M 0,0 H 149.75414 V 149.75416 H 0 Z"
     inkscape:export-filename="..\b\C4.svg"
     inkscape:export-xdpi="347.36404"
     inkscape:export-ydpi="347.36404" /><path
     id="path9614"
     style="font-size:40px;line-height:1.25;font-family:PRIMETIME;-inkscape-font-specification:'PRIMETIME, Normal';letter-spacing:0px;word-spacing:0px;white-space:pre;fill:#000000;fill-opacity:0.31;stroke-width:0.805412"
     d="m 38.601261,19.999813 v 25.000024 h 5.17e-4 0.21239 v 0.2651 h 0.21239 v 0.264584 h 5.17e-4 0.21239 v 0.2651 h 5.17e-4 0.21239 v 0.2651 h 0.21239 v 0.2651 h 5.17e-4 0.21239 v 0.264583 h 0.212907 v 0.2651 h 0.21239 v 0.2651 h 5.17e-4 0.21239 v 0.264584 h 0.21239 v 0.2651 h 5.17e-4 0.21239 v 0.2651 h 5.17e-4 0.21239 v 0.264583 h 0.21239 v 0.2651 h 5.17e-4 0.21239 v 0.265101 h 5.17e-4 0.21239 v 0.2651 h 0.21239 v 0.264583 h 5.17e-4 0.21239 v 0.2651 h 5.17e-4 0.21239 v 0.2651 h 0.21239 v 0.2651 h 5.17e-4 0.21239 v 0.264584 h 0.212907 v 0.2651 h 0.21239 v 0.2651 h 5.17e-4 0.21239 v 0.264583 h 0.21239 v 0.2651 h 5.17e-4 0.21239 v 0.2651 h 5.17e-4 0.21239 v 0.264584 h 0.21239 v 0.2651 h 5.17e-4 0.21239 v 0.2651 h 5.17e-4 0.21239 v 0.2651 h 0.21239 v 0.264583 h 5.17e-4 0.21239 v 0.2651 h 5.17e-4 0.21239 v 0.2651 h 0.21239 v 0.264584 h 5.17e-4 0.21239 v 0.2651 h 0.212907 v 0.2651 h 0.21239 v 0.264583 h 5.17e-4 0.21239 v 0.2651 h 0.21239 v 0.265101 h 5.17e-4 0.21239 v 0.2651 h 5.17e-4 0.21239 v 0.264583 h 0.21239 v 0.2651 h 5.17e-4 0.21239 v 0.2651 h 5.17e-4 0.21239 v 0.2651 h 0.21239 v 0.264584 h 5.17e-4 0.21239 v 0.2651 h 5.16e-4 0.212391 v 0.2651 h 0.21239 v 0.264583 h 5.17e-4 0.21239 v 0.2651 h 0.212907 v 0.2651 h 0.21239 v 0.264584 h 5.16e-4 0.212391 v 0.2651 h 0.21239 v 0.2651 h 5.16e-4 0.212391 v 0.2651 h 5.16e-4 0.212391 v 0.264583 h 0.21239 v 0.2651 h 5.16e-4 0.212391 v 0.2651 h 5.16e-4 0.21239 v 0.264584 h 0.212391 v 0.2651 h 5.16e-4 0.212391 v 0.2651 h 5.16e-4 0.21239 v 0.2651 h 0.212391 v 0.264583 h 5.16e-4 0.21239 v 0.265101 h 0.212907 v 0.2651 h 0.21239 v 0.264583 h 5.17e-4 0.21239 v 0.2651 h 0.212391 v 0.2651 h 5.16e-4 0.21239 v 0.2651 h 5.17e-4 0.21239 v 0.264584 h 0.21239 v 0.2651 h 5.17e-4 0.21239 v 0.2651 h 5.17e-4 0.21239 v 0.264583 h 0.21239 v 0.2651 h 5.17e-4 0.21239 v 0.2651 h 5.17e-4 0.21239 v 0.264584 h 0.21239 v 0.2651 h 5.17e-4 0.21239 v 0.2651 h 0.212907 v 0.2651 h 0.21239 v 0.264583 h 5.17e-4 0.21239 v 0.2651 h 0.21239 v 0.2651 h 5.17e-4 0.21239 v 0.264584 h 5.17e-4 0.21239 v 0.2651 h 0.21239 v 0.2651 h 5.17e-4 0.21239 v 0.2651 h 5.17e-4 0.21239 v 0.264583 h 0.21239 v 0.265101 h 5.17e-4 0.21239 v 0.2651 h 0.212907 v 0.264583 h 0.21239 v 0.2651 h 5.17e-4 0.21239 v 0.2651 h 0.212907 v 0.2651 h 0.21239 v 0.264584 h 5.17e-4 0.21239 v 0.2651 h 0.21239 v 0.2651 h 5.17e-4 0.21239 v 0.264583 h 0.212907 v 0.2651 h 0.21239 v 0.2651 h 5.17e-4 0.21239 v 0.264584 h 0.212907 v 0.2651 h 0.21239 v 0.2651 h 5.17e-4 0.21239 v 0.2651 h 0.21239 v 0.264583 h 5.17e-4 0.21239 v 0.2651 h 5.17e-4 0.21239 v 0.2651 h 0.21239 v 0.265101 h 5.17e-4 0.21239 v 0.264583 h 0.212907 v 0.2651 h 0.21239 v 0.2651 h 5.17e-4 0.21239 v 0.264583 h 0.212907 v 0.265101 h 0.21239 v 0.2651 h 5.17e-4 0.21239 v 0.264583 h 0.212907 v 0.2651 h 0.21239 v 0.2651 h 5.17e-4 0.21239 v 0.2651 h 0.21239 v 0.264584 h 5.17e-4 0.21239 v 0.2651 h 5.16e-4 0.212391 v 0.2651 h 0.21239 v 0.264583 h 5.17e-4 0.21239 v 0.2651 h 0.212907 v 0.2651 h 0.21239 v 0.264584 h 5.16e-4 0.212391 v 0.2651 h 0.212906 v 0.2651 h 0.212391 v 0.2651 h 5.16e-4 0.212391 v 0.264583 h 0.212906 v 0.2651 h 0.212391 v 0.2651 h 5.16e-4 0.21239 v 0.265101 h 0.212391 v 0.264583 h 5.16e-4 0.212391 v 0.2651 h 5.16e-4 0.21239 v 0.2651 h 0.212391 v 0.264583 h 5.16e-4 0.21239 v 0.265101 h 0.212907 v 0.2651 h 0.21239 v 0.264583 h 5.17e-4 0.21239 v 0.2651 h 0.212907 v 0.2651 h 0.21239 v 0.2651 h 5.17e-4 0.21239 v 0.264584 h 0.212907 v 0.2651 h 0.21239 v 0.2651 h 5.17e-4 0.21239 v 0.264583 h 0.21239 v 0.2651 h 5.17e-4 0.21239 v 0.2651 h 5.17e-4 0.21239 v 0.2651 h 0.21239 v 0.264584 h 5.17e-4 0.21239 v 0.2651 h 0.212907 v 0.2651 h 0.21239 v 0.264583 h 5.17e-4 0.21239 v 0.2651 h 0.212907 v 0.2651 h 0.21239 v 0.265101 h 5.17e-4 0.21239 v 0.264583 h 0.212907 v 0.2651 h 0.21239 v 0.2651 h 5.17e-4 0.21239 v 0.264583 h 0.21239 v 0.265101 h 5.17e-4 0.21239 v 0.2651 h 5.17e-4 0.21239 v 0.264583 h 0.21239 v 0.2651 h 5.17e-4 0.21239 v 0.2651 h 0.212907 v 0.2651 h 0.21239 v 0.264584 h 5.17e-4 0.21239 v 0.2651 h 0.212907 v 0.2651 h 0.21239 v 0.2651 h 5.17e-4 0.21239 v 0.264583 h 0.212907 v 0.2651 h 0.21239 v 0.2651 h 5.17e-4 0.21239 v 0.264584 h 0.21239 v 0.2651 h 5.17e-4 0.21239 v 0.2651 h 5.17e-4 0.21239 v 0.264583 h 0.21239 v 0.2651 h 5.17e-4 0.21239 v 0.2651 h 0.212907 V 91.8962 h 0.21239 v 0.264583 h 5.17e-4 0.21239 v 0.2651 h 0.212907 v 0.2651 h 0.21239 v 0.264583 h 5.17e-4 0.21239 v 0.265101 h 0.212907 v 0.2651 h 0.21239 v 0.264583 h 5.17e-4 0.21239 v 0.2651 h 0.21239 v 0.2651 h 5.17e-4 0.21239 v 0.2651 h 5.16e-4 0.212391 v 0.264584 h 0.21239 v 0.2651 h 5.16e-4 0.212391 v 0.2651 h 0.212907 v 0.2651 h 0.21239 v 0.264583 h 5.16e-4 0.212391 v 0.2651 h 0.212906 v 0.2651 h 0.212391 v 0.264584 h 5.16e-4 0.21239 v 0.2651 h 0.212907 v 0.2651 h 0.212391 v 0.264583 h 5.16e-4 0.21239 v 0.2651 h 0.212391 v 0.2651 h 5.16e-4 0.21239 v 0.265101 h 0.212907 v 0.264583 h 0.212391 v 0.2651 h 5.16e-4 0.21239 v 0.2651 h 0.212907 v 0.264583 h 0.21239 v 0.2651 h 5.17e-4 0.21239 v 0.265101 h 0.212907 v 0.264578 h 0.21239 v 0.26511 h 0.212907 v 0.26458 h 0.21239 v 0.2651 h 5.17e-4 0.21239 v 0.2651 h 0.212907 v 0.2651 h 0.21239 v 0.2651 h 5.17e-4 0.21239 v 0.26458 h 0.212907 v 0.2651 h 0.21239 v 0.2651 h 5.17e-4 0.21239 v 0.2651 h 0.212907 v 0.2651 h 0.21239 v 0.26459 h 0.212907 v 0.2651 h 0.21239 v 0.2651 h 5.17e-4 0.21239 v 0.2651 h 0.212907 v 0.2651 h 0.21239 v 0.26458 h 5.17e-4 0.21239 v 0.2651 h 0.212907 v 0.26407 h 0.0047 v 2.24224 h -0.03824 v -0.2651 h -0.21239 v -0.2651 h -0.212907 v -0.2651 h -0.212907 v -0.2651 h -0.208256 -0.0041 v -0.26459 h -0.166915 -0.04599 v -0.2651 h -0.125573 -0.08733 v -0.2651 h -0.08371 -0.128675 v -0.2651 h -0.04237 -0.170533 v -0.2651 h -10e-4 -20.778577 v 10e-4 2.38435 h -0.03772 v -0.2651 h -0.21239 v -0.2651 H 63.91148 v -0.2651 h -0.212907 v -0.2651 h -0.208256 -0.0041 v -0.26459 h -0.166915 -0.04599 v -0.2651 h -0.125573 -0.08733 v -0.2651 h -0.08372 -0.128675 v -0.2651 h -0.04289 -0.170015 v -0.2651 h -10e-4 -20.778577 v 6.41098 h 5.17e-4 0.21239 v 0.2651 h 0.02119 0.191202 v 0.2651 h 0.04237 0.170532 v 0.2651 h 0.06305 0.149861 v 0.2651 h 0.08372 0.128674 v 0.26458 h 0.104903 0.108004 v 0.2651 h 0.125574 0.08733 v 0.2651 h 0.146244 0.06615 v 0.2651 h 0.167432 0.04548 v 0.2651 h 0.188619 0.02377 v 0.2651 h 0.209807 0.0031 v 0.26355 h 0.212907 v 0.2651 h 0.21239 v 0.2651 h 0.212907 v 0.2651 h 0.212907 v 0.26511 h 0.21239 v 0.26458 h 0.212907 v 0.2651 h 0.212907 v 0.2651 h 0.21239 v 0.2651 h 0.212907 v 0.2651 h 0.212907 v 0.26458 h 0.21239 v 0.2651 h 0.212907 v 0.2651 h 0.21239 v 0.2651 h 0.212907 v 0.2651 h 0.212907 v 0.26459 h 0.21239 v 0.2651 h 0.212907 v 0.2651 h 0.21239 v 0.2651 h 0.0186 l -5.44618,9.77718 v 5.1e-4 1.12707 h 10e-4 0.211873 v 0.2651 h 0.04134 0.171049 v 0.2651 h 0.08217 0.130741 v 0.2651 h 0.122473 0.09043 v 0.2651 h 0.162781 0.04961 v 0.26458 h 0.203089 0.0098 v 0.2651 h 0.212907 v 0.2651 h 0.21239 v 0.2651 h 0.212907 v 0.2651 h 0.21239 v 0.26355 h 0.212907 v 0.2651 h 0.212907 v 0.2651 h 0.21239 v 0.2651 h 0.212907 v 0.2651 h 0.212907 v 0.2651 h 0.21239 v 0.26458 h 0.212907 v 0.2651 h 0.212907 v 0.2651 h 0.21239 v 0.2651 h 0.212907 v 0.26511 h 0.212907 v 0.26458 h 0.21239 v 0.2651 h 0.212907 v 0.2651 h 0.21239 v 0.2651 h 0.212907 v 0.2651 h 0.212907 v 0.26458 h 0.21239 v 0.2651 h 0.212907 v 0.2651 h 0.212907 v 0.2651 h 0.21239 v 0.26407 h 0.212907 v 0.26458 h 0.212907 v 0.2651 h 0.21239 v 0.2651 H 49.829 v 0.2651 h 0.212907 v 0.2651 h 0.21239 v 0.2651 h 0.212907 v 0.26459 h 0.21239 v 0.2651 h 0.212907 v 0.2651 h 0.212907 v 0.2651 h 0.21239 v 0.2651 h 0.212907 v 0.26458 h 0.212907 v 0.2651 h 0.21239 v 0.2651 h 0.212907 v 0.2651 h 0.212907 v 0.2651 h 0.21239 v 0.26458 h 0.212907 v 0.2651 h 0.212907 v 0.2651 h 0.21239 v 0.26407 h 0.212907 v 0.2651 h 0.21239 v 0.26458 h 0.212907 v 0.2651 h 0.212907 v 0.2651 h 0.21239 v 0.2651 h 0.212907 v 0.2651 h 0.212906 v 0.2651 h 0.212391 v 0.26459 h 0.212906 v 0.2651 h 0.212907 v 0.2651 h 0.212391 v 0.2651 h 0.212906 v 0.2651 h 0.212907 v 0.26458 h 0.21239 v 0.2651 h 0.212907 v 0.2651 h 0.21239 v 0.2651 h 0.212907 v 0.2651 h 0.212907 v 0.26459 h 0.21239 v 0.2651 h 0.212907 v 0.26406 h 0.212907 v 0.2651 h 0.21239 v 0.2651 h 0.212907 v 0.26459 h 0.212907 v 0.2651 h 0.21239 v 0.2651 h 0.212907 v 0.2651 h 0.212907 v 0.2651 h 0.21239 v 0.2651 h 0.212907 v 0.26458 h 0.21239 v 0.2651 h 0.212907 v 0.2651 h 0.212907 v 0.2651 h 0.21239 v 0.2651 h 0.212907 v 0.26458 h 0.212907 v 0.2651 h 0.21239 v 0.2651 h 0.212907 v 0.2651 h 0.212907 v 0.2651 h 0.21239 v 0.26459 h 0.212907 v 0.26406 h 0.212907 v 0.2651 h 0.21239 v 0.2651 h 0.212907 v 0.2651 h 0.21239 v 0.26459 h 0.212907 v 0.2651 h 0.212907 v 0.2651 h 0.21239 v 0.2651 h 0.212907 v 0.2651 h 0.21239 v 0.2651 h 0.212907 v 0.26458 h 0.212907 v 0.2651 h 0.21239 v 0.2651 h 0.212907 v 0.2651 h 0.212907 v 0.2651 h 0.21239 v 0.26458 h 0.212907 v 0.2651 h 0.212907 v 0.2651 h 0.21239 v 0.2651 h 0.212907 v 0.2651 h 0.212907 v 0.26355 h 0.21239 v 0.2651 h 0.212907 v 0.2651 h 0.212907 v 0.2651 h 0.21239 v 0.2651 h 0.212907 v 0.26459 h 0.21239 v 0.2651 h 0.212907 v 0.2651 h 0.212907 v 0.2651 h 0.21239 v 0.2651 h 0.212907 v 0.26458 h 0.212907 v 0.2651 h 0.21239 v 0.2651 h 0.212907 v 0.2651 h 0.212906 v 0.2651 h 0.212391 v 0.2651 h 0.212907 v 0.26459 h 0.212906 v 0.2651 h 0.212391 v 0.2651 h 0.212906 v 0.2651 h 0.212391 v 0.26406 h 0.212906 v 0.26459 h 0.212907 v 0.2651 h 0.212391 v 0.2651 h 0.212906 v 0.2651 h 0.212907 v 0.2651 h 0.21239 v 0.26458 h 0.212907 v 0.2651 h 0.212907 v 0.2651 h 0.21239 v 0.2651 h 0.212907 v 0.2651 h 0.212907 v 0.26458 h 0.21239 v 0.2651 h 0.212907 v 0.2651 h 0.21239 v 0.2651 h 0.212907 v 0.2651 h 0.212907 v 0.2651 h 0.21239 v 0.26459 h 0.212907 v 0.2651 h 0.212907 v 0.2651 h 0.21239 v 0.26406 h 0.212907 v 0.2651 h 0.212907 v 0.26459 h 0.21239 v 0.2651 h 0.212907 v 0.2651 h 0.212907 v 0.2651 h 0.21239 v 0.2651 h 0.212907 v 0.26458 h 0.21239 v 0.2651 h 0.212907 v 0.2651 h 0.212907 v 0.2651 h 0.21239 v 0.2651 h 0.212907 v 0.26458 h 0.212907 v 0.2651 h 0.21239 v 0.2651 h 0.212907 v 0.26511 h 0.212907 v 0.2651 h 0.21239 v 0.2651 h 0.212907 v 0.26458 h 0.212907 v 0.2651 h 0.21239 v 0.26407 h 0.212907 v 0.2651 h 0.21239 v 0.2651 h 0.212907 v 0.26458 h 0.212907 v 0.2651 h 0.21239 v 0.2651 h 0.212907 v 0.2651 h 0.212907 v 0.2651 h 0.21239 v 0.26458 h 0.212907 v 0.2651 h 0.212907 v 0.2651 h 0.21239 v 0.2651 h 0.212907 v 0.2651 h 0.212907 v 0.26459 h 0.21239 v 0.2651 h 0.212907 v 0.2651 h 0.21239 v 0.2651 h 0.212907 v 0.2651 h 0.212907 v 0.2651 h 0.21239 v 0.26458 h 0.212907 v 0.26407 h 0.212906 v 0.2651 h 0.212391 v 0.2651 h 0.212907 v 0.2651 h 0.212906 v 0.26458 h 0.212391 v 0.2651 h 0.212906 v 0.2651 h 0.212907 v 0.2651 h 0.212391 v 0.2651 h 0.212906 v 0.26458 h 0.212391 v 0.2651 h 0.212906 v 0.2651 h 0.212907 v 0.2651 h 0.21239 v 0.2651 h 0.212907 v 0.26459 h 0.212907 v 0.2651 h 0.21239 v 0.2651 h 0.212907 v 0.2651 h 0.21239 v 0.2651 h 0.212907 v 0.26406 h 0.212907 v 0.26459 h 0.21239 v 0.2651 h 0.212907 v 0.2651 h 0.212907 v 0.2651 h 0.21239 v 0.2651 h 0.212907 v 0.26458 h 0.212907 v 0.2651 h 0.21239 v 0.2651 h 0.212907 v 0.2651 h 0.212907 v 0.2651 h 0.21239 v 0.26459 h 0.212907 v 0.2651 h 0.21239 v 0.2651 h 0.212907 v 0.2651 h 0.212907 v 0.2651 h 0.21239 v 0.26458 h 0.212907 v 0.2651 h 0.212907 v 0.2651 h 0.21239 v 0.2651 h 0.212907 v 0.26407 h 0.212907 v 0.2651 h 0.21239 v 0.26458 h 0.212907 v 0.2651 h 0.212907 v 0.2651 h 0.21239 v 0.2651 h 0.212907 v 0.2651 h 0.21239 v 0.26458 h 0.212907 v 0.2651 h 0.212907 v 0.2651 h 0.21239 v 0.2651 h 0.212907 v 0.2651 h 0.212907 v 0.26459 h 0.21239 v 0.2651 h 0.212907 v 0.2651 h 0.212907 v 0.2651 h 0.21239 v 0.2651 h 0.212907 v 0.26458 h 0.212907 v 0.2651 h 0.21239 v 0.2651 h 0.212907 v 0.26407 h 0.21239 v 0.2651 h 0.212907 v 0.2651 h 0.212907 v 0.26458 h 0.21239 v 0.2651 h 0.212907 v 0.2651 h 0.212907 v 0.2651 h 0.21239 v 0.2651 h 0.212907 v 0.26458 h 0.212907 v 0.2651 h 0.21239 v 0.2651 h 0.212907 v 0.2651 h 0.212906 v 0.26511 h 0.212391 v 0.26458 h 0.212907 v 0.2651 h 0.21239 v 0.2651 h 0.212907 v 0.2651 h 0.212906 v 0.2651 H 99.3929 v 0.26458 h 0.212906 v 0.2651 h 0.212907 v 0.26407 h 0.212387 v 0.2651 h 0.21291 v 0.2651 h 0.21291 v 0.2651 h 0.21187 v 0.26458 h 0.21342 v 0.2651 h 0.21291 v 0.2651 h 0.21291 v 0.2651 h 0.21187 v 0.2651 h 0.21291 v 0.26459 h 0.21342 v 0.2651 h 0.21188 v 0.2651 h 0.2129 v 0.2651 h 0.21291 v 0.2651 h 0.21291 v 0.26458 h 0.21239 v 0.2651 h 0.2129 v 0.2651 h 0.21291 v 0.2651 h 0.21291 v 0.2651 h 0.21187 v 0.26458 h 0.21342 v 0.26407 h 0.21291 v 0.2651 h 0.21187 v 0.2651 h 0.21291 v 0.2651 h 0.21291 v 0.2651 h 0.21342 v 0.26458 h 0.21188 v 0.2651 h 0.2129 v 0.2651 h 0.21291 v 0.2651 h 0.21187 v 0.2651 h 0.21343 v 0.26459 h 0.2129 v 0.2651 h 0.21291 v 0.2651 h 0.21187 v 0.2651 h 0.21291 v 0.2651 h 0.21342 v 0.26458 h 0.21291 v 0.2651 h 0.21187 v 0.2651 h 0.21291 v 0.2651 h 0.21291 v 0.2651 h 0.21239 v 0.26407 h 0.2129 v 0.26458 h 0.21291 v 0.2651 h 0.21291 v 0.2651 h 0.21187 v 0.2651 h 0.21343 v 0.2651 h 0.2129 v 0.26459 h 0.21188 v 0.2651 h 0.2129 v 0.2651 h 0.21291 v 0.2651 h 0.21291 v 0.2651 h 0.21239 v 0.26458 h 0.2129 v 0.2651 h 0.21291 v 0.2651 h 0.21291 v 0.2651 h 0.21239 v 0.2651 h 0.2129 v 0.26458 h 0.21291 v 0.2651 h 0.21187 v 0.2651 h 0.21291 v 0.2651 h 0.21291 v 0.26407 h 0.21342 v 0.2651 h 0.21188 v 0.26458 h 0.2129 v 0.2651 h 0.21291 v 0.2651 h 0.21187 v 0.2651 h 0.21343 v 0.2651 h 0.2129 v 0.26459 h 0.21291 v 0.2651 h 0.21187 v 0.2651 h 0.21291 v 0.2651 h 0.21342 v 0.2651 h 0.21188 v 0.26458 h 0.2129 v 0.2651 h 0.21291 v 0.2651 h 0.21291 v 0.2651 h 0.21239 v 0.2651 h 0.21291 v 0.26458 h 0.2129 v 0.2651 h 0.21291 v 0.2651 h 0.21187 v 0.26407 h 0.21343 v 0.2651 h 0.2129 v 0.2651 h 0.21188 v 0.26458 h 0.2129 v 0.2651 h 0.21291 v 0.2651 h 0.21342 v 0.2651 h 0.21188 v 0.2651 h 0.2129 v 0.26459 h 0.21291 v 0.2651 h 0.21187 v 0.2651 h 0.21343 v 0.2651 h 0.21291 v 0.2651 h 0.2129 v 0.26458 h 0.21188 v 0.2651 h 0.2129 v 0.2651 h 0.21343 v 0.2651 h 0.2129 v 0.2651 h 0.21188 v 0.26459 h 0.2129 v 0.2651 h 0.21291 v 0.26406 h 0.21239 v 0.2651 h 0.21291 v 0.2651 h 0.2129 v 0.2651 h 0.21291 v 0.26459 h 0.21187 v 0.2651 h 0.21343 v 0.2651 h 0.2129 v 0.2651 h 0.21188 v 0.2651 h 0.21291 v 0.26458 h 0.2129 v 0.2651 h 0.21343 v 0.2651 h 0.21187 v 0.2651 h 0.21291 v 0.2651 h 0.2129 v 0.26458 h 0.21291 v 0.001 0.26406 h 0.21239 v 0.004 0.26096 h 0.21291 v 0.006 0.2589 h 0.2129 v 0.008 0.25734 h 0.21188 v 0.01 0.25477 h 0.2129 v 0.0124 0.25166 h 0.21343 v 0.016 0.24908 h 0.2129 v 0.0181 0.24701 h 0.21188 v 0.0202 0.24494 h 0.2129 v 0.0217 0.24339 h 0.21291 v 0.0238 0.24081 h 0.21239 v 0.0274 0.23771 h 0.21291 v 0.0289 0.23616 h 0.21291 v 0.031 0.2341 h 0.2129 v 0.0331 0.23203 h 0.21188 v 0.0346 0.22996 h 0.21342 v 0.0382 0.22686 h 0.21291 v 0.0403 0.22479 h 0.2129 v 0.0419 0.22324 h 0.21188 v 0.0439 0.22117 h 0.2129 v 0.046 0.21859 h 0.21343 v 0.0491 0.21601 h 0.21187 v 0.0512 0.21395 h 0.21291 v 0.0532 0.21188 h 0.2129 v 0.0548 0.21033 h 0.21291 v 0.0568 0.20671 h 0.21239 v 0.0615 0.20361 h 0.21291 v 0.063 0.20206 h 0.21291 v 0.0651 0.19999 h 0.21187 v 0.0672 0.19793 h 0.21291 v 0.0687 0.19637 h 0.21342 v 0.0718 0.19275 h 0.21291 v 0.0744 0.19069 h 0.21187 v 0.076 0.18914 h 0.21291 v 0.078 0.18707 h 0.2129 v 0.0801 0.185 h 0.21291 v 0.0827 0.1819 h 0.21239 v 0.0853 0.17983 h 0.21291 v 0.0873 0.17776 h 0.2129 v 0.0889 0.17621 h 0.21188 v 0.091 0.17415 h 0.21342 v 0.0935 0.17105 h 0.21291 v 0.0961 0.16899 h 0.2129 v 0.0982 0.16692 h 0.21188 v 0.10025 0.16381 h 0.21291 v 0.10284 0.16226 h 0.2129 v 0.10594 0.15865 h 0.21239 v 0.108 0.1571 h 0.21291 v 0.11007 0.15503 h 0.21291 v 0.11213 0.15297 h 0.2129 v 0.1142 0.1509 h 0.21239 v 0.11679 0.14831 h 0.21291 v 0.11885 0.14573 h 0.21291 v 0.12092 0.14418 h 0.2129 v 0.12299 0.14211 h 0.21188 v 0.12506 0.14004 h 0.2129 v 0.12764 0.13746 h 0.21343 v 0.12971 0.13487 h 0.21187 v 0.1323 0.1328 h 0.21291 v 0.13385 0.13125 h 0.2129 v 0.13591 0.12919 h 0.21291 v 0.13901 0.12609 h 0.21239 v 0.14056 0.12403 h 0.21291 v 0.14314 0.12196 h 0.21291 v 0.14521 0.11885 h 0.21187 v 0.1478 0.1173 h 0.21291 v 0.1509 0.1142 h 0.21342 v 0.15297 0.11162 h 0.21291 v 0.15503 0.11007 h 0.21187 v 0.15709 0.10801 h 0.21291 v 0.15916 0.10594 h 0.2129 v 0.16175 0.10335 h 0.21239 v 0.16381 0.10129 h 0.21291 v 0.16588 0.0987 h 0.21291 v 0.16795 0.0971 h 0.2129 v 0.17002 0.0951 h 0.21188 v 0.17312 0.092 h 0.21342 v 0.17467 0.0904 h 0.21291 v 0.17674 0.0879 h 0.21291 v 0.17931 0.0858 h 0.21187 v 0.18086 0.0842 h 0.21291 v 0.18396 0.0811 h 0.21342 v 0.18603 0.0791 h 0.21187 v 0.18758 0.077 h 0.21291 v 0.19017 0.0739 h 0.21291 v 0.19327 0.0718 h 0.2129 v 0.19585 0.0693 h 0.21239 v 0.19792 0.0672 h 0.21291 v 0.19998 0.0646 h 0.21291 v 0.20205 0.0631 h 0.21187 v 0.20412 0.061 h 0.21291 v 0.20722 0.0579 h 0.21342 v 0.20877 0.0563 h 0.21291 v 0.21084 0.0543 h 0.21187 v 0.21291 0.0517 h 0.21291 v 0.21498 0.0501 h 0.21291 v 0.21808 0.047 h 0.21342 v 0.22015 0.0449 h 0.21187 v 0.2217 0.0434 h 0.21291 v 0.22376 0.0408 h 0.21291 v 0.22634 0.0388 h 0.21187 v 0.22892 0.0362 h 0.21342 v 0.23099 0.0341 h 0.21291 v 0.23306 0.032 h 0.21291 v 0.23461 0.0289 h 0.21187 v 0.23823 0.0269 h 0.21291 v 0.24133 0.0238 h 0.21342 v 0.24288 0.0222 h 0.21187 v 0.24494 0.0202 h 0.21291 v 0.24701 0.0176 h 0.21291 v 0.24908 0.016 h 0.21291 v 0.25218 0.0129 h 0.21239 v 0.25425 0.0109 h 0.2129 v 0.2558 0.009 h 0.21291 v 0.25787 0.007 h 0.21291 v 0.25993 0.005 h 0.21187 v 0.26304 0.002 h 0.21342 v 0.2651 h 20.26388 v -2.91506 h 0.12764 v 0.24288 0.0222 h 0.21343 v 0.24494 0.0202 h 0.21187 v 0.24701 0.0176 h 0.21291 v 0.24908 0.016 h 0.2129 v 0.25218 0.0129 h 0.21239 v 0.25425 0.0109 h 0.21291 v 0.2558 0.009 h 0.21291 v 0.25787 0.007 h 0.2129 v 0.25993 0.005 h 0.21188 v 0.26304 0.002 h 0.21291 v 0.2651 h 20.26439 v -2.91506 h 0.12764 v 0.24288 0.0222 h 0.21343 v 0.24494 0.0202 h 0.2129 v 0.24701 0.0176 h 0.21291 v 0.24908 0.016 h 0.21187 v 0.25218 0.0129 h 0.21291 v 0.25425 0.0109 h 0.21342 v 0.2558 0.009 h 0.21188 v 0.25787 0.007 h 0.2129 v 0.25993 0.005 h 0.21291 v 0.26304 0.002 h 0.21291 v 0.2651 h 20.26336 v -6.41097 h -0.21239 v -0.25218 -0.0129 h -0.21291 v -0.23875 -0.0264 h -0.2129 v -0.22686 -0.0382 h -0.21188 v -0.21394 -0.0506 h -0.2129 v -0.20102 -0.0641 h -0.21343 v -0.1881 -0.077 h -0.2129 v -0.17518 -0.0899 h -0.21188 v -0.16174 -0.10336 h -0.2129 v -0.14986 -0.11472 h -0.21291 v -0.13694 -0.12816 h -0.21239 v -0.12402 -0.14108 h -0.21291 v -0.11111 -0.15399 h -0.21291 v -0.0977 -0.1664 h -0.2129 v -0.0858 -0.1788 h -0.21188 v -0.0734 -0.19172 h -0.21342 v -0.061 -0.20412 h -0.21291 v -0.0481 -0.21704 h -0.2129 v -0.0351 -0.22996 h -0.21188 v -0.0217 -0.24287 h -0.2129 v -0.009 -0.25579 h -0.21343 v -0.2651 h -0.21187 v -0.2651 h -0.21291 v -0.2651 h -0.2129 v -0.2651 h -0.21291 v -0.26459 h -0.21239 v -0.2651 h -0.21291 v -0.2651 h -0.21291 v -0.0227 l 5.73092,-10.28516 v -1.12706 h -0.21291 v -0.26303 -0.002 h -0.21187 v -0.26097 -0.004 h -0.21291 v -0.25787 -0.007 h -0.21342 v -0.25632 -0.009 h -0.21187 v -0.25425 -0.0109 h -0.21291 v -0.25115 -0.0139 h -0.21291 v -0.24908 -0.016 h -0.2129 v -0.24702 -0.0176 h -0.21239 v -0.24546 -0.0196 h -0.21291 v -0.24236 -0.0227 h -0.21291 v -0.24029 -0.0248 h -0.2129 v -0.23771 -0.0274 h -0.21188 v -0.23461 -0.0305 h -0.21342 v -0.23254 -0.031 h -0.21291 v -0.23202 -0.0331 h -0.21187 v -0.22892 -0.0362 h -0.21291 v -0.22686 -0.0382 h -0.21291 v -0.22479 -0.0403 h -0.2129 v -0.22272 -0.0419 h -0.21239 v -0.22014 -0.045 h -0.21291 v -0.21808 -0.047 h -0.21291 v -0.21601 -0.0491 h -0.21187 v -0.21291 -0.0522 h -0.21342 v -0.21084 -0.0537 h -0.21291 v -0.20929 -0.0558 h -0.21291 v -0.20619 -0.0589 h -0.21187 v -0.20413 -0.061 h -0.21291 v -0.20206 -0.063 h -0.2129 v -0.19999 -0.0646 h -0.21239 v -0.1974 -0.0677 h -0.21291 v -0.19534 -0.0698 h -0.21291 v -0.19327 -0.0718 h -0.21291 v -0.19017 -0.0749 h -0.21239 v -0.18758 -0.0765 h -0.2129 v -0.18655 -0.078 h -0.21291 v -0.18397 -0.0811 h -0.21291 v -0.1819 -0.0832 h -0.21187 v -0.17983 -0.0853 h -0.21291 v -0.17777 -0.0873 h -0.21342 v -0.17467 -0.0899 h -0.21187 v -0.17312 -0.092 h -0.21291 v -0.17105 -0.0941 h -0.21291 v -0.16795 -0.0971 h -0.2129 v -0.16588 -0.0992 h -0.21239 v -0.16382 -0.10077 h -0.21291 v -0.16123 -0.10387 h -0.21291 v -0.15916 -0.10594 h -0.21187 v -0.15709 -0.10801 h -0.21291 v -0.15503 -0.11007 h -0.21342 v -0.15192 -0.11266 h -0.21291 v -0.15038 -0.11472 h -0.21187 v -0.14831 -0.11679 h -0.21291 v -0.14521 -0.11989 h -0.21291 v -0.14314 -0.12093 h -0.21342 v -0.14211 -0.12299 h -0.21187 v -0.13901 -0.12557 h -0.21291 v -0.13694 -0.12816 h -0.21291 v -0.13488 -0.13022 h -0.21187 v -0.13281 -0.13229 h -0.21342 v -0.12971 -0.13539 h -0.21291 v -0.12764 -0.13694 h -0.21291 v -0.12609 -0.13901 h -0.21187 v -0.12299 -0.14211 h -0.21291 v -0.12093 -0.14417 h -0.21342 v -0.11886 -0.14624 h -0.21188 v -0.11576 -0.14883 h -0.2129 v -0.1142 -0.1509 h -0.21291 v -0.11214 -0.15296 h -0.21291 v -0.11007 -0.15503 h -0.21239 v -0.10697 -0.15813 h -0.2129 v -0.1049 -0.15968 h -0.21291 v -0.10335 -0.16175 h -0.21187 v -0.10025 -0.16485 h -0.21291 v -0.0982 -0.16588 h -0.21342 v -0.0971 -0.16795 h -0.21291 v -0.094 -0.17105 h -0.21187 v -0.092 -0.1726 h -0.21291 v -0.0904 -0.17466 h -0.21291 v -0.0879 -0.17725 h -0.21342 v -0.0847 -0.18035 h -0.21188 v -0.0827 -0.18242 h -0.2129 v -0.0806 -0.18397 h -0.21291 v -0.078 -0.18707 h -0.21187 v -0.076 -0.18914 h -0.21343 v -0.0739 -0.19121 h -0.2129 v -0.0708 -0.19431 h -0.21291 v -0.0687 -0.19585 h -0.21187 v -0.0672 -0.19792 h -0.21291 v -0.0651 -0.19999 h -0.21342 v -0.062 -0.20309 h -0.21188 v -0.0599 -0.20516 h -0.2129 v -0.0579 -0.2067 h -0.21291 v -0.0553 -0.2098 h -0.21291 v -0.0532 -0.21084 h -0.21239 v -0.0522 -0.21291 h -0.2129 v -0.0491 -0.21601 h -0.21291 v -0.047 -0.21808 h -0.21291 v -0.045 -0.21962 h -0.21187 v -0.0434 -0.22169 h -0.21343 v -0.0403 -0.22479 h -0.2129 v -0.0382 -0.22686 H 192.55 v -0.0357 -0.22944 h -0.2129 v -0.0326 -0.23203 h -0.21291 v -0.031 -0.2341 h -0.21342 v -0.0289 -0.23616 h -0.21188 v -0.0258 -0.23927 h -0.2129 v -0.0238 -0.24133 h -0.21291 v -0.0217 -0.24288 h -0.21187 v -0.0202 -0.24495 h -0.21343 v -0.017 -0.24805 h -0.2129 v -0.015 -0.25011 h -0.21291 v -0.0129 -0.25218 h -0.21187 v -0.01 -0.25476 h -0.21291 v -0.008 -0.2558 h -0.21343 v -0.007 -0.25786 h -0.21187 v -0.004 -0.26097 h -0.21291 v -0.002 -0.26303 h -0.2129 v -0.2651 h -0.21291 v -0.26458 h -0.21239 v -0.2651 h -0.21291 v -0.2651 h -0.2129 v -0.2651 h -0.21291 v -0.2651 h -0.21187 v -0.26459 h -0.21343 v -0.2651 h -0.2129 v -0.2651 h -0.21188 v -0.2651 h -0.2129 v -0.2651 h -0.21291 v -0.26458 h -0.21343 v -0.2651 h -0.21187 v -0.2651 h -0.21291 v -0.2651 h -0.2129 v -0.2651 h -0.21188 v -0.26407 h -0.21342 v -0.26458 h -0.21291 v -0.2651 h -0.2129 v -0.2651 h -0.21188 v -0.2651 h -0.2129 v -0.2651 h -0.21343 v -0.26459 h -0.21187 v -0.2651 h -0.21291 v -0.2651 h -0.2129 v -0.2651 h -0.21291 v -0.2651 h -0.21239 v -0.26458 h -0.21291 v -0.2651 h -0.21291 v -0.2651 h -0.2129 v -0.2651 h -0.21188 v -0.2651 h -0.2129 v -0.26458 h -0.21343 v -0.2651 h -0.21187 v -0.2651 h -0.21291 v -0.2651 h -0.2129 v -0.26407 h -0.21291 v -0.2651 h -0.21239 v -0.26458 h -0.21291 v -0.2651 h -0.2129 v -0.2651 h -0.21188 v -0.2651 h -0.2129 v -0.2651 h -0.21343 v -0.26459 h -0.2129 v -0.2651 h -0.21188 v -0.2651 h -0.2129 v -0.2651 h -0.21291 v -0.2651 h -0.21343 v -0.26458 h -0.21187 v -0.2651 h -0.21291 v -0.2651 h -0.2129 v -0.2651 h -0.21188 v -0.2651 h -0.21342 v -0.26458 h -0.21291 v -0.2651 h -0.2129 v -0.26407 h -0.21188 v -0.2651 h -0.2129 v -0.2651 h -0.21343 v -0.2651 h -0.21187 v -0.26458 h -0.21291 v -0.26511 h -0.2129 v -0.2651 h -0.21291 v -0.2651 h -0.21239 v -0.2651 h -0.21291 v -0.26458 h -0.21291 v -0.2651 h -0.21187 v -0.2651 h -0.21291 v -0.2651 h -0.21342 v -0.2651 h -0.21291 v -0.26458 h -0.21187 v -0.2651 h -0.21291 v -0.2651 h -0.2129 v -0.2651 h -0.21343 v -0.2651 h -0.21187 v -0.26459 h -0.21291 v -0.26406 h -0.2129 v -0.2651 h -0.21188 v -0.2651 h -0.21342 v -0.2651 h -0.21291 v -0.2651 h -0.21291 v -0.26459 h -0.21187 v -0.2651 h -0.21291 v -0.2651 h -0.21342 v -0.2651 h -0.21187 v -0.2651 h -0.21291 v -0.26458 h -0.21291 v -0.2651 h -0.2129 v -0.2651 h -0.21239 v -0.2651 h -0.21291 v -0.2651 h -0.21291 v -0.26458 h -0.2129 v -0.2651 h -0.21188 V 182.1 h -0.21342 v -0.2651 h -0.21291 v -0.2651 h -0.21187 v -0.26355 h -0.21291 v -0.2651 h -0.21291 v -0.2651 h -0.21342 v -0.2651 h -0.21187 v -0.2651 h -0.21291 v -0.2651 h -0.21291 v -0.26459 h -0.21187 v -0.2651 h -0.21342 v -0.2651 h -0.21291 v -0.2651 h -0.21291 v -0.2651 h -0.21187 v -0.26458 h -0.21291 v -0.2651 h -0.21342 v -0.2651 h -0.21187 v -0.12092 h 2.15335 l -5.86321,-10.30894 c 0.0508,-0.036 0.0945,-0.0774 0.14418,-0.1142 v 0.0899 h 0.21291 v 0.2651 h 0.21291 v 0.2651 h 0.2129 v 0.2651 h 0.21188 v 0.2651 h 0.21342 v 0.26458 h 0.21291 v 0.26407 h 0.2129 v 0.2651 h 0.21188 v 0.2651 h 0.2129 v 0.2651 h 0.21343 v 0.26458 h 0.21187 v 0.2651 h 0.21291 v 0.2651 h 0.2129 v 0.2651 h 0.21291 v 0.2651 h 0.21239 v 0.26458 h 0.21291 v 0.2651 h 0.21291 v 0.2651 h 0.21187 v 0.2651 h 0.21291 v 0.2651 h 0.2129 v 0.2651 h 0.21343 v 0.26459 h 0.21187 v 0.2651 h 0.21291 v 0.2651 h 0.2129 v 0.2651 h 0.21291 v 0.2651 h 0.21239 v 0.26355 h 0.21291 v 0.2651 h 0.2129 v 0.2651 h 0.21188 v 0.2651 h 0.2129 v 0.2651 h 0.21343 v 0.26458 h 0.21291 v 0.2651 h 0.21187 v 0.2651 h 0.21291 v 0.016 0.24908 h 0.2129 v 0.0651 0.19999 h 0.21239 v 0.11472 0.14987 h 0.21291 v 0.16536 0.0997 h 0.21291 v 0.21497 0.0501 h 0.2129 v 0.2651 h 19.94194 v -5.56401 h 0.062 v 0.2651 h 0.21342 v 0.2651 h 0.21291 v 0.26459 h 0.21187 v 0.2651 h 0.21291 v 0.2651 h 0.21291 v 0.2651 h 0.21239 v 0.2651 h 0.2129 v 0.26355 h 0.21291 v 0.2651 h 0.21291 v 0.2651 h 0.21187 v 0.2651 h 0.21343 v 0.2651 h 0.2129 v 0.26458 h 0.21291 v 0.2651 h 0.21187 v 0.2651 h 0.21291 v 0.016 0.24908 h 0.21291 v 0.0651 0.19999 h 0.21239 v 0.11472 0.14987 h 0.2129 v 0.16536 0.0997 h 0.21291 v 0.21497 0.0501 h 0.21291 v 0.2651 h 6.92619 v -9.43922 h 1.41387 v 0.1664 h 0.2129 v 0.26458 h 0.21343 v 0.26407 h 0.2129 v 0.2651 h 0.21188 v 0.2651 h 0.2129 v 0.2651 h 0.21291 v 0.26458 h 0.21291 v 0.2651 h 0.21239 v 0.2651 h 0.21291 v 0.2651 h 0.2129 v 0.2651 h 0.21188 v 0.26458 h 0.21342 v 0.2651 h 0.21291 v 0.2651 h 0.2129 v 0.2651 h 0.21188 v 0.2651 h 0.2129 v 0.2651 h 0.21291 v 0.26459 h 0.21239 v 0.2651 h 0.21291 v 0.2651 h 0.2129 v 0.2651 h 0.21291 v 0.001 0.26407 h 0.21239 v 0.0196 0.24392 h 0.21291 v 0.0393 0.22583 h 0.21291 v 0.0579 0.20722 h 0.2129 v 0.077 0.1881 h 0.21188 v 0.0961 0.16898 h 0.2129 v 0.11472 0.14986 h 0.21343 v 0.13333 0.13177 h 0.21187 v 0.15193 0.11317 h 0.21291 v 0.17105 0.094 h 0.2129 v 0.19017 0.0749 h 0.21291 v 0.20774 0.0568 h 0.21239 v 0.22737 0.0377 h 0.21291 v 0.24597 0.0191 h 0.2129 v 0.2651 h 6.99079 v -25.00003 h -0.21291 v -0.21497 -0.0501 h -0.2129 v -0.16485 -0.10025 h -0.21291 v -0.11472 -0.14986 h -0.21187 v -0.0651 -0.19999 h -0.21343 v -0.015 -0.25011 h -0.2129 v -0.2651 h -0.21291 v -0.2651 h -0.21187 v -0.2651 h -0.21291 v -0.26459 h -0.21291 v -0.2651 h -0.21239 v -0.2651 h -0.2129 v -0.2651 h -0.21291 v -0.2651 h -0.21291 v -0.26355 h -0.21239 v -0.2651 h -0.2129 v -0.2651 h -0.21291 v -0.2651 h -0.21187 v -0.2651 h -0.21291 v -0.26458 h -0.21291 v -0.2651 h -0.21342 v -0.2651 h -0.21188 v -0.2651 h -0.2129 v -0.2651 h -0.21291 v -0.26458 h -0.21291 v -0.2651 h -0.21239 v -0.2651 h -0.2129 v -0.2651 h -0.21291 v -0.2651 h -0.21187 v -0.2651 h -0.21291 v -0.26459 h -0.21342 v -0.2651 h -0.21291 v -0.2651 h -0.21187 v -0.2651 h -0.21291 v -0.26406 h -0.21291 v -0.26459 h -0.21239 v -0.2651 h -0.21291 v -0.2651 h -0.2129 v -0.2651 h -0.21291 v -0.2651 h -0.21187 v -0.26458 h -0.21343 v -0.2651 h -0.2129 v -0.2651 h -0.2129 v -0.2651 h -0.21187 v -0.2651 h -0.21291 v -0.26459 h -0.21342 v -0.2651 h -0.21188 v -0.2651 h -0.2129 v -0.2651 h -0.21291 v -0.2651 h -0.21291 v -0.2651 h -0.21239 v -0.26458 h -0.21291 v -0.2651 h -0.2129 v -0.2651 h -0.21188 v -0.26407 h -0.2129 v -0.2651 h -0.21343 v -0.26458 h -0.2129 v -0.2651 h -0.21188 v -0.2651 h -0.2129 v -0.2651 h -0.21291 v -0.2651 h -0.21342 v -0.26458 h -0.21188 v -0.2651 h -0.2129 v -0.2651 h -0.21291 v -0.2651 h -0.21187 v -0.2651 h -0.21343 v -0.26459 h -0.2129 v -0.2651 h -0.21291 v -0.2651 h -0.21188 v -0.2651 h -0.2129 v -0.2651 h -0.21343 v -0.2651 h -0.21187 v -0.26458 h -0.21291 v -0.2651 h -0.2129 v -0.26407 h -0.21291 v -0.2651 h -0.21239 v -0.2651 h -0.21291 v -0.26458 h -0.2129 v -0.2651 h -0.21188 v -0.2651 h -0.2129 v -0.2651 h -0.21343 v -0.2651 h -0.2129 v -0.26458 h -0.21188 v -0.2651 h -0.2129 v -0.2651 h -0.21291 v -0.26511 h -0.21343 v -0.2651 h -0.21187 v -0.26458 h -0.21291 v -0.2651 h -0.2129 v -0.2651 h -0.21188 v -0.2651 h -0.21342 v -0.2651 h -0.21291 v -0.26458 h -0.2129 v -0.2651 h -0.21188 v -0.26407 h -0.2129 v -0.2651 h -0.21343 v -0.2651 h -0.21187 v -0.2651 h -0.21291 v -0.26458 h -0.2129 v -0.2651 h -0.21291 v -0.2651 h -0.21239 v -0.2651 h -0.21291 v -0.2651 h -0.21291 v -0.26459 h -0.2129 v -0.2651 h -0.21188 v -0.2651 h -0.21342 v -0.2651 h -0.21291 v -0.2651 h -0.21187 v -0.26458 h -0.21291 v -0.2651 h -0.2129 v -0.2651 h -0.21291 v -0.2651 h -0.21239 v -0.2651 h -0.21291 v -0.26458 h -0.2129 v -0.26407 h -0.21188 v -0.2651 h -0.21342 v -0.2651 h -0.21291 v -0.2651 h -0.21291 v -0.2651 h -0.21187 v -0.26458 h -0.21291 v -0.2651 h -0.2129 v -0.2651 h -0.21343 v -0.2651 h -0.21187 v -0.2651 h -0.21291 v -0.26459 h -0.2129 v -0.2651 h -0.21239 v -0.2651 h -0.21291 v -0.2651 h -0.21291 v -0.2651 h -0.2129 v -0.26458 h -0.21188 v -0.2651 h -0.2129 v -0.2651 h -0.21343 v -0.2651 h -0.21187 v -0.2651 h -0.21291 v -0.26407 h -0.21291 v -0.26458 h -0.2129 v -0.2651 h -0.21239 v -0.2651 h -0.21291 v -0.2651 h -0.21291 v -0.2651 h -0.2129 v -0.26459 h -0.21188 v -0.2651 h -0.21342 v -0.2651 h -0.21291 v -0.2651 h -0.21187 v -0.2651 h -0.21291 v -0.26458 h -0.2129 v -0.2651 h -0.21343 v -0.2651 h -0.21187 v -0.2651 h -0.21291 v -0.2651 h -0.2129 v -0.26458 h -0.21188 v -0.2651 h -0.21342 v -0.2651 h -0.21291 v -0.2651 H 184.967 v -0.26407 h -0.21187 v -0.2651 h -0.21291 v -0.26458 h -0.21342 v -0.2651 h -0.21187 v -0.2651 h -0.21291 v -0.2651 h -0.21291 v -0.2651 h -0.2129 v -0.26459 h -0.21239 v -0.2651 h -0.21291 V 109.553 H 182.84 v -0.2651 h -0.2129 v -0.2651 h -0.21188 v -0.26458 h -0.21342 v -0.2651 h -0.21291 v -0.2651 h -0.21187 v -0.2651 h -0.21291 v -0.2651 h -0.21291 v -0.26458 h -0.21342 v -0.2651 h -0.21187 v -0.2651 H 180.713 v -0.26407 h -0.21291 v -0.2651 h -0.21187 v -0.2651 h -0.21342 v -0.26458 h -0.21291 v -0.2651 h -0.21291 v -0.2651 h -0.21187 v -0.2651 h -0.21291 v -0.26511 h -0.21342 v -0.26458 h -0.21291 v -0.2651 H 178.586 v -0.2651 h -0.21291 v -0.2651 h -0.21291 v -0.2651 h -0.21239 v -0.26458 h -0.2129 v -0.2651 h -0.21291 v -0.2651 h -0.21291 v -0.2651 h -0.21187 v -0.2651 h -0.21342 v -0.26459 h -0.21291 v -0.2651 H 176.459 v -0.2651 h -0.21291 v -0.26406 h -0.21291 v -0.2651 h -0.21342 v -0.2651 h -0.21187 v -0.26459 h -0.21291 v -0.2651 h -0.21291 v -0.265096 h -0.2129 v -0.2651 h -0.2124 v -0.2651 h -0.2129 v -0.265101 h -0.21291 V 98.6901 h -0.21187 V 98.425 h -0.21291 v -0.2651 h -0.21342 v -0.264583 h -0.21291 v -0.265101 h -0.21187 v -0.2651 h -0.21291 v -0.264583 h -0.21291 v -0.2651 h -0.21239 v -0.2651 h -0.2129 v -0.2651 h -0.21291 v -0.264584 h -0.21291 v -0.2651 h -0.21187 v -0.2651 h -0.21342 v -0.2651 h -0.21291 v -0.264583 h -0.21291 v -0.2651 h -0.21187 v -0.2651 h -0.21291 v -0.264584 h -0.21291 v -0.2651 h -0.21239 v -0.2651 h -0.2129 v -0.264583 h -0.21291 v -0.2651 h -0.21291 v -0.2651 h -0.21239 v -0.265101 h -0.2129 v -0.264583 h -0.21291 v -0.2651 h -0.21187 v -0.2651 h -0.21291 v -0.264583 h -0.21291 v -0.265101 h -0.21342 v -0.2651 h -0.21187 v -0.264583 h -0.21291 v -0.2651 h -0.21291 v -0.2651 h -0.21291 v -0.2651 h -0.21239 v -0.264584 h -0.2129 v -0.2651 h -0.21291 v -0.2651 h -0.21187 v -0.2651 h -0.21291 v -0.264583 h -0.21342 v -0.2651 h -0.21291 v -0.2651 h -0.21187 v -0.264584 h -0.21291 v -0.2651 h -0.21291 v -0.2651 h -0.21239 v -0.264583 h -0.2129 v -0.2651 h -0.21291 v -0.2651 h -0.21291 v -0.265101 h -0.21187 V 85.97253 h -0.21343 v -0.2651 h -0.2129 v -0.2651 h -0.21188 v -0.264583 h -0.2129 v -0.265101 h -0.21291 v -0.2651 h -0.21342 v -0.2651 h -0.21188 v -0.264583 h -0.2129 v -0.2651 h -0.21291 v -0.2651 h -0.21291 v -0.264584 h -0.21239 v -0.2651 h -0.2129 v -0.2651 h -0.21291 v -0.2651 h -0.21187 v -0.264583 h -0.21291 v -0.2651 h -0.21342 v -0.2651 h -0.21291 v -0.264584 h -0.21188 v -0.2651 h -0.2129 v -0.2651 h -0.21291 v -0.264583 h -0.21239 v -0.2651 h -0.21291 v -0.2651 h -0.2129 v -0.265101 h -0.21291 v -0.264583 h -0.21187 v -0.2651 h -0.21343 v -0.2651 h -0.2129 v -0.2651 h -0.21291 v -0.264584 h -0.21187 v -0.2651 h -0.21291 v -0.2651 h -0.21342 v -0.264583 h -0.21188 v -0.2651 h -0.2129 v -0.2651 h -0.21291 v -0.264584 h -0.21291 v -0.2651 h -0.21239 v -0.2651 h -0.21291 v -0.2651 h -0.2129 v -0.264583 h -0.21188 v -0.2651 h -0.2129 v -0.2651 h -0.21343 v -0.264584 h -0.2129 v -0.2651 H 154.974 v -0.2651 h -0.2129 v -0.264583 h -0.21291 v -0.2651 h -0.21342 v -0.2651 h -0.21188 v -0.265101 h -0.2129 V 73.25496 h -0.21291 v -0.2651 h -0.21187 v -0.2651 h -0.21343 v -0.2651 h -0.21291 v -0.264584 h -0.2129 v -0.2651 h -0.21188 v -0.2651 h -0.2129 v -0.264583 h -0.21343 v -0.2651 h -0.21187 v -0.2651 h -0.21291 v -0.264584 h -0.2129 v -0.2651 h -0.21291 v -0.2651 h -0.21239 v -0.2651 h -0.21291 v -0.264583 h -0.2129 v -0.2651 h -0.21291 v -0.2651 h -0.21187 v -0.264584 h -0.21343 v -0.2651 h -0.21291 v -0.2651 h -0.21187 v -0.2651 h -0.21291 v -0.264583 h -0.2129 v -0.2651 h -0.21343 v -0.265101 h -0.21187 v -0.264583 h -0.21291 v -0.2651 h -0.2129 v -0.2651 h -0.21188 v -0.2651 h -0.21342 v -0.264583 h -0.21291 v -0.265101 h -0.2129 v -0.2651 h -0.21188 v -0.264583 h -0.2129 v -0.2651 h -0.21343 v -0.2651 h -0.21187 v -0.264584 h -0.21291 v -0.2651 h -0.21291 v -0.2651 h -0.2129 v -0.2651 h -0.21239 v -0.264583 h -0.21291 v -0.2651 h -0.21291 v -0.2651 h -0.2129 v -0.264584 h -0.21188 v -0.2651 h -0.2129 v -0.2651 h -0.21343 v -0.2651 h -0.21187 v -0.264583 h -0.21291 v -0.2651 h -0.2129 v -0.265101 h -0.21291 V 60.53739 h -0.21239 v -0.2651 h -0.21291 v -0.2651 h -0.2129 v -0.2651 h -0.21188 v -0.264583 h -0.21291 v -0.265101 h -0.21342 v -0.2651 h -0.21291 v -0.264583 h -0.21187 v -0.2651 h -0.21291 v -0.2651 h -0.2129 v -0.264584 h -0.21343 v -0.2651 h -0.21187 v -0.2651 h -0.21291 v -0.2651 h -0.2129 v -0.264583 h -0.21188 v -0.2651 h -0.21342 v -0.2651 h -0.21291 v -0.2651 h -0.2129 v -0.264584 h -0.21188 v -0.2651 h -0.2129 v -0.2651 h -0.21343 v -0.264583 h -0.21187 v -0.2651 h -0.21291 v -0.265101 h -0.21291 v -0.264583 h -0.2129 v -0.2651 h -0.21239 v -0.2651 h -0.21291 v -0.2651 h -0.21291 v -0.264583 h -0.2129 v -0.265101 h -0.21188 v -0.2651 h -0.21342 v -0.264583 h -0.21291 v -0.2651 h -0.21187 v -0.2651 h -0.21291 v -0.264584 h -0.2129 v -0.2651 h -0.21343 v -0.2651 h -0.21187 v -0.2651 h -0.21291 v -0.264583 h -0.21291 v -0.2651 h -0.21187 v -0.2651 h -0.21342 v -0.2651 h -0.21291 v -0.264584 h -0.21291 v -0.2651 h -0.21187 v -0.2651 h -0.21291 v -0.264583 h -0.21342 v -0.2651 h -0.21291 v -0.265101 h -0.21187 V 47.81982 h -0.21291 v -0.2651 h -0.2129 v -0.2651 h -0.21239 v -0.2651 h -0.21291 v -0.264583 h -0.21291 v -0.265101 h -0.21291 v -0.2651 h -0.21187 v -0.264583 h -0.21342 v -0.2651 h -0.21291 v -0.2651 h -0.21187 v -0.2651 h -0.21291 v -0.264584 h -0.21291 v -0.2651 h -0.21342 v -0.2651 h -0.21187 v -0.264583 h -0.21291 v -0.2651 h -0.21291 v -0.2651 h -0.2129 v -0.2651 h -0.21239 v -0.264584 h -0.21291 v -0.2651 h -0.21291 v -0.2651 h -0.21187 v -0.264583 h -0.21291 v -0.2651 h -0.21342 v -0.265101 h -0.21291 v -0.264583 h -0.21187 v -0.2651 h -0.21291 v -0.2651 h -0.21291 v -0.2651 h -0.21239 v -0.264583 h -0.2129 v -0.265101 h -0.21291 v -0.2651 h -0.21291 v -0.2651 h -0.21187 v -0.264583 h -0.21342 v -0.2651 h -0.21291 v -0.2651 h -0.21187 v -0.264584 h -0.21291 v -0.2651 h -0.21291 v -0.2651 h -0.21342 v -0.264583 h -0.21187 v -0.2651 h -0.21291 v -0.2651 h -0.21291 v -0.2651 h -0.21291 v -0.264584 h -0.21239 v -0.2651 h -0.2129 v -0.2651 h -0.21291 v -0.264583 h -0.21187 v -0.2651 h -0.21291 v -0.265101 h -0.21342 V 35.10225 h -0.21291 v -0.2651 h -0.21187 v -0.2651 h -0.21291 v -0.2651 h -0.21291 v -0.264583 h -0.21239 v -0.265101 h -0.2129 v -0.2651 h -0.21291 v -0.2651 h -0.21291 v -0.264583 h -0.21187 v -0.2651 h -0.21343 v -0.2651 h -0.2129 v -0.264584 h -0.21291 v -0.2651 h -0.21187 v -0.2651 h -0.21291 v -0.264583 h -0.21291 v -0.2651 h -0.21239 v -0.2651 h -0.2129 v -0.2651 h -0.21291 v -0.264584 h -0.21291 v -0.2651 h -0.21239 v -0.2651 h -0.2129 v -0.264583 h -0.21291 v -0.2651 h -0.21187 v -0.2651 h -0.21291 v -0.265101 h -0.21291 v -0.264583 h -0.21342 v -0.2651 h -0.21188 v -0.2651 h -0.2129 v -0.264583 h -0.21291 v -0.265101 h -0.21291 v -0.2651 h -0.21239 v -0.2651 h -0.2129 v -0.264583 h -0.21291 v -0.2651 h -0.21187 v -0.2651 h -0.21291 v -0.264584 h -0.21342 v -0.2651 h -0.21291 v -0.2651 h -0.21187 v -0.264583 h -0.21291 v -0.2651 h -0.21291 v -0.2651 h -0.21239 v -0.2651 h -0.21291 v -0.264584 h -0.2098 -0.003 v -0.2651 h -0.19586 -0.017 v -0.2651 h -0.18087 -0.031 v -0.2651 h -0.16847 -0.045 v -0.264583 h -0.15399 -0.0589 v -0.2651 h -0.14005 -0.0729 v -0.265101 h -0.12506 -0.0868 V 22.11958 h -0.11214 -0.10077 v -0.2651 h -0.0982 -0.11523 v -0.2651 h -0.0837 -0.12816 v -0.264583 h -0.0698 -0.14314 v -0.265101 h -0.0558 -0.1571 v -0.2651 h -0.0419 -0.17105 v -0.2651 h -0.0284 -0.18397 v -0.264583 h -0.015 -0.19792 v -0.2651 h -6.99079 v 9.536369 h -1.4149 v -0.263033 h -0.21239 v -0.2651 h -0.21291 v -0.265101 h -0.21291 v -0.264583 h -0.21187 v -0.2651 h -0.21291 v -0.2651 h -0.21342 v -0.264583 h -0.21291 v -0.265101 h -0.21187 v -0.2651 h -0.21291 v -0.2651 h -0.21291 v -0.264583 h -0.21239 v -0.2651 h -0.2129 v -0.2651 h -0.212909 v -0.264584 h -0.21239 v -0.2651 h -0.212907 v -0.2651 h -0.212907 v -0.264583 h -0.21239 v -0.2651 H 98.91851 v -0.2651 h -0.212907 v -0.2651 h -0.21239 v -0.264584 h -0.207739 -0.0052 v -0.2651 h -0.193787 -0.01912 v -0.2651 h -0.179834 -0.03256 v -0.2651 h -0.166398 -0.04651 V 22.914364 H 97.48962 97.42916 v -0.2651 h -0.138493 -0.0739 V 22.384163 H 97.09171 97.00386 V 22.11958 H 96.893273 96.79147 v -0.2651 h -0.09715 -0.115755 v -0.2651 h -0.0832 -0.129708 v -0.264583 h -0.06925 -0.143144 v -0.265101 h -0.05581 -0.157096 v -0.2651 h -0.04186 -0.171049 v -0.2651 H 95.699585 95.5151 v -0.264583 h -0.01447 -0.198438 v -0.2651 H 95.301675 88.376 v 5.17e-4 5.563484 h -0.06253 v -0.2651 h -0.212906 v -0.264583 h -0.212391 v -0.2651 h -0.212906 v -0.2651 H 87.46236 v -0.2651 h -0.21239 v -0.264584 h -0.212907 v -0.2651 h -0.212907 v -0.2651 h -0.21239 v -0.2651 h -0.212907 v -0.264583 h -0.212907 v -0.2651 h -0.21239 V 22.384163 H 85.760657 V 22.11958 h -0.21239 v -0.2651 H 85.33536 v -0.2651 h -0.212907 v -0.264583 h -0.199988 -0.0124 v -0.265101 h -0.160197 -0.05271 v -0.2651 h -0.120406 -0.0925 v -0.2651 h -0.0801 -0.132291 v -0.264583 h -0.04083 -0.172082 v -0.2651 h -0.001 -19.940901 v 0.001 12.007536 c -0.01999,-0.02329 -0.04013,-0.04652 -0.06046,-0.06976 -0.07242,-0.0892 -0.138014,-0.179204 -0.215491,-0.267684 -0.0703,-0.08649 -0.13321,-0.17412 -0.208256,-0.259932 -0.0722,-0.08897 -0.137226,-0.178908 -0.214457,-0.267168 -0.07175,-0.08836 -0.136714,-0.177443 -0.213423,-0.2651 -0.07177,-0.08837 -0.136173,-0.177946 -0.212907,-0.265617 -0.0714,-0.08791 -0.135564,-0.176855 -0.211874,-0.264066 -0.07139,-0.08791 -0.13558,-0.176853 -0.211873,-0.264067 -0.07277,-0.08964 -0.138648,-0.180322 -0.216524,-0.269234 -0.07075,-0.08703 -0.134249,-0.17513 -0.209807,-0.261483 -0.07109,-0.08756 -0.134882,-0.176173 -0.210839,-0.263033 -0.07279,-0.08969 -0.138626,-0.180264 -0.216525,-0.269234 -0.07102,-0.0874 -0.134967,-0.175809 -0.21084,-0.262516 -0.0711,-0.08755 -0.134877,-0.176177 -0.210839,-0.263033 -0.0722,-0.08898 -0.137227,-0.178904 -0.214458,-0.267167 -0.07226,-0.08899 -0.137685,-0.178895 -0.214974,-0.267167 -0.07044,-0.08668 -0.133562,-0.174449 -0.208772,-0.26045 -0.07221,-0.08897 -0.137222,-0.178912 -0.214458,-0.267167 -0.07175,-0.08836 -0.136718,-0.177447 -0.213423,-0.2651 -0.07177,-0.08837 -0.136173,-0.177951 -0.212907,-0.265617 -0.07141,-0.08791 -0.13556,-0.176859 -0.211873,-0.264066 -0.07153,-0.08809 -0.135932,-0.177198 -0.212391,-0.264584 -0.072,-0.08868 -0.13694,-0.178163 -0.21394,-0.266133 -0.0714,-0.08791 -0.135564,-0.17686 -0.211873,-0.264067 -0.07109,-0.08755 -0.134882,-0.176177 -0.21084,-0.263033 -0.07279,-0.08969 -0.138626,-0.180269 -0.216525,-0.269234 -0.07102,-0.08739 -0.134971,-0.175813 -0.210839,-0.262516 -0.07109,-0.08755 -0.134882,-0.176177 -0.21084,-0.263033 -0.07279,-0.08969 -0.13863,-0.18027 -0.216524,-0.269235 -0.07102,-0.0874 -0.134967,-0.175813 -0.21084,-0.262516 -0.07109,-0.08755 -0.134878,-0.176177 -0.21084,-0.263033 -0.0722,-0.08897 -0.137231,-0.178912 -0.214457,-0.267167 -0.07175,-0.08836 -0.136718,-0.177448 -0.213424,-0.2651 -0.259658,-0.319713 -0.539547,-0.636874 -0.86403,-0.947229 l -5.17e-4,-5.17e-4 c -0.493799,-0.4722 -1.030638,-0.890838 -1.610237,-1.255737 l -10e-4,-5.17e-4 c -0.579699,-0.3863 -1.180491,-0.687054 -1.802991,-0.901754 l -10e-4,-5.17e-4 c -0.6226,-0.235999 -1.234448,-0.353983 -1.835547,-0.353983 h -5.17e-4 z" /><g
     id="g2"
     transform="translate(2.435e-4,0.12291611)"><path
       style="fill:#f9f9f9;stroke-width:0.160865"
       d="m 44.767293,59.469755 c -0.03217,0.248113 -0.05478,0.499286 -0.05478,0.756026 v 29.302084 c 0,3.23161 2.629198,5.86063 5.860624,5.86063 h 48.607369 c 3.231464,0 5.860634,-2.62902 5.860634,-5.86063 V 60.225781 c 0,-0.25674 -0.0226,-0.507913 -0.0548,-0.756026 z"
       id="path16" /><path
       id="path5"
       style="fill:#f44336;fill-opacity:1;stroke-width:0.160865"
       d="m 50.573142,54.365671 c -2.974716,0 -5.433052,2.229204 -5.805847,5.104081 h 60.219065 c -0.37279,-2.874877 -2.83112,-5.104081 -5.805854,-5.104081 z" /><g
       id="g1"><path
         style="fill:#798388;fill-opacity:1;stroke-width:0.160865"
         d="m 49.787227,83.040591 h 14.612028 c 0.816296,0 1.477946,0.661665 1.477946,1.477946 0,0.816083 -0.661866,1.477429 -1.477946,1.477429 H 49.787227 c -0.815895,0 -1.477429,-0.661148 -1.477429,-1.477429 0,-0.816281 0.661534,-1.477946 1.477429,-1.477946 z"
         id="path29" /><path
         style="fill:#798388;fill-opacity:1;stroke-width:0.160865"
         d="m 49.787227,77.783547 h 25.239286 c 0.816084,0 1.47743,0.661146 1.47743,1.47743 0,0.81628 -0.661138,1.477946 -1.47743,1.477946 H 49.787227 c -0.815893,0 -1.477429,-0.661666 -1.477429,-1.477946 0,-0.816284 0.661536,-1.47743 1.477429,-1.47743 z"
         id="path28" /><path
         style="fill:#798388;fill-opacity:1;stroke-width:0.160865"
         d="m 63.674235,67.326821 h 1.459859 v 4.985226 h -1.459859 z"
         id="path24" /><path
         style="fill:#798388;fill-opacity:1;stroke-width:0.160865"
         d="m 59.051778,67.326821 h 1.399914 v 3.721737 h 2.586923 v 1.263489 h -3.986837 z"
         id="path23" /><path
         id="path22"
         style="fill:#798388;fill-opacity:1;stroke-width:0.160865"
         d="m 73.856559,67.183161 c -0.36312,10e-7 -0.706103,0.07015 -1.028878,0.211356 -0.322776,0.13617 -0.604899,0.325326 -0.846977,0.567408 -0.237034,0.237032 -0.426188,0.516967 -0.567407,0.839742 -0.136162,0.317726 -0.204122,0.658521 -0.204122,1.021643 0,0.363116 0.06796,0.706102 0.204122,1.028878 0.141219,0.322769 0.330373,0.602704 0.567407,0.839742 0.242078,0.237032 0.524201,0.425676 0.846977,0.56689 0.322775,0.136169 0.665758,0.204639 1.028878,0.204639 0.36312,0 0.706103,-0.06847 1.028878,-0.204639 0.32277,-0.141214 0.602702,-0.329858 0.839742,-0.56689 0.242072,-0.237038 0.431234,-0.516973 0.567407,-0.839742 0.141213,-0.322776 0.211873,-0.665762 0.211873,-1.028878 0,-0.363122 -0.07066,-0.706104 -0.211873,-1.028878 -0.136173,-0.322776 -0.325335,-0.602704 -0.567407,-0.839742 -0.23704,-0.237038 -0.516972,-0.424003 -0.839742,-0.560173 -0.322775,-0.141215 -0.665758,-0.211356 -1.028878,-0.211356 z m 0,1.368909 c 0.171472,0 0.330721,0.03534 0.476973,0.105936 0.151304,0.06556 0.279594,0.156339 0.385507,0.272335 0.11096,0.115997 0.196838,0.252417 0.257348,0.408761 0.06051,0.151296 0.09095,0.312733 0.09095,0.484208 0,0.171473 -0.03044,0.335098 -0.09095,0.491443 -0.06052,0.151295 -0.146403,0.287721 -0.257348,0.40876 -0.105913,0.115999 -0.234203,0.20896 -0.385507,0.27957 -0.146252,0.06556 -0.305501,0.0987 -0.476973,0.0987 -0.171472,0 -0.332905,-0.03313 -0.484208,-0.0987 -0.146258,-0.07061 -0.274562,-0.163572 -0.385506,-0.27957 -0.105914,-0.12104 -0.191779,-0.257465 -0.257349,-0.40876 -0.06051,-0.156345 -0.09095,-0.31997 -0.09095,-0.491443 0,-0.171475 0.03044,-0.332912 0.09095,-0.484208 0.06557,-0.156344 0.151436,-0.292764 0.257349,-0.408761 0.110944,-0.115995 0.239248,-0.206765 0.385506,-0.272335 0.151303,-0.07061 0.312736,-0.105936 0.484208,-0.105936 z" /><path
         id="path21"
         style="fill:#798388;fill-opacity:1;stroke-width:0.160865"
         d="m 55.942924,67.183161 c -0.363121,10e-7 -0.706103,0.07015 -1.028878,0.211356 -0.322774,0.13617 -0.605413,0.325326 -0.847494,0.567408 -0.237032,0.237032 -0.426192,0.516967 -0.567407,0.839742 -0.136172,0.317726 -0.204122,0.658521 -0.204122,1.021643 0,0.363116 0.06795,0.706102 0.204122,1.028878 0.141215,0.322769 0.330375,0.602704 0.567407,0.839742 0.242081,0.237032 0.52472,0.425676 0.847494,0.56689 0.322775,0.136169 0.665757,0.204639 1.028878,0.204639 0.363117,0 0.706107,-0.06847 1.028877,-0.204639 0.322775,-0.141214 0.602188,-0.329858 0.839226,-0.56689 0.242075,-0.237038 0.431236,-0.516973 0.567407,-0.839742 0.141213,-0.322776 0.211873,-0.665762 0.211873,-1.028878 0,-0.363122 -0.07066,-0.706104 -0.211873,-1.028878 -0.136171,-0.322776 -0.325332,-0.602704 -0.567407,-0.839742 -0.237038,-0.237038 -0.516451,-0.424003 -0.839226,-0.560173 -0.32277,-0.141215 -0.66576,-0.211356 -1.028877,-0.211356 z m 0,1.368909 c 0.171469,0 0.330199,0.03534 0.476456,0.105936 0.151302,0.06556 0.279597,0.156339 0.385507,0.272335 0.110949,0.115997 0.196828,0.252417 0.257348,0.408761 0.06052,0.151296 0.09095,0.312733 0.09095,0.484208 0,0.171473 -0.03043,0.335098 -0.09095,0.491443 -0.06052,0.151295 -0.146399,0.287721 -0.257348,0.40876 -0.10591,0.115999 -0.234205,0.20896 -0.385507,0.27957 -0.146257,0.06556 -0.304987,0.0987 -0.476456,0.0987 -0.171474,0 -0.332907,-0.03313 -0.484209,-0.0987 -0.146252,-0.07061 -0.275074,-0.163572 -0.386022,-0.27957 -0.105914,-0.12104 -0.191789,-0.257465 -0.257349,-0.40876 -0.06052,-0.156345 -0.09043,-0.31997 -0.09043,-0.491443 0,-0.171475 0.02991,-0.332912 0.09043,-0.484208 0.06556,-0.156344 0.151438,-0.292764 0.257349,-0.408761 0.110948,-0.115995 0.23977,-0.206765 0.386022,-0.272335 0.151302,-0.07061 0.312735,-0.105936 0.484209,-0.105936 z" /><path
         style="fill:#798388;fill-opacity:1;stroke-width:0.160865"
         d="m 65.822424,66.441604 h 5.031217 v 1.346688 l -0.105936,0.105937 h -1.611788 v 4.417818 h -1.595768 v -4.417818 h -1.611788 l -0.105937,-0.105937 z"
         id="path20" /><path
         id="path19"
         style="fill:#798388;fill-opacity:1;stroke-width:0.160865"
         d="m 48.309798,66.441604 v 5.870443 h 1.573547 v -1.823145 h 1.066602 c 0.282423,0 0.552042,-0.05325 0.809253,-0.159163 0.262249,-0.110954 0.491639,-0.259363 0.68833,-0.445968 0.201734,-0.191648 0.360975,-0.413942 0.476973,-0.666109 0.121045,-0.252168 0.181385,-0.524494 0.181385,-0.817004 0,-0.287472 -0.06034,-0.552187 -0.181385,-0.794267 -0.115998,-0.242081 -0.275239,-0.448649 -0.476973,-0.620117 -0.196691,-0.171474 -0.426081,-0.30519 -0.68833,-0.40101 -0.257211,-0.09582 -0.52683,-0.14366 -0.809253,-0.14366 z m 1.611271,1.301213 h 0.91519 c 0.09078,0 0.176648,0.0174 0.257348,0.05271 0.08069,0.03026 0.151354,0.07591 0.211874,0.136425 0.06052,0.05548 0.10836,0.120721 0.14366,0.196371 0.03531,0.07565 0.05271,0.159334 0.05271,0.250114 0,0.09078 -0.0174,0.173947 -0.05271,0.249597 -0.0353,0.07565 -0.08314,0.143602 -0.14366,0.204122 -0.06052,0.05547 -0.131184,0.100599 -0.211874,0.135909 -0.08069,0.03026 -0.166568,0.04547 -0.257348,0.04547 h -0.91519 z" /></g></g><path
     id="path1"
     style="fill:#5c6bc0;stroke-width:1.09875"
     d="m 90.467346,66.441423 c -3.640942,0 -6.592362,2.951936 -6.592362,6.592879 0,3.640931 2.95142,6.592362 6.592362,6.592362 3.64094,0 6.59236,-2.951431 6.59236,-6.592362 0,-3.640943 -2.95142,-6.592879 -6.59236,-6.592879 z m 0,15.382523 c -3.050901,0 -5.432253,0.243202 -7.217647,0.991671 -1.911551,0.80132 -3.08266,2.159845 -3.707268,4.134631 -0.230858,0.7299 0.31595,1.466577 1.073837,1.466577 h 19.694922 c 0.76099,0 1.31172,-0.739846 1.07901,-1.473811 -0.62651,-1.974897 -1.801884,-3.332816 -3.716574,-4.132048 -1.78382,-0.744623 -4.16163,-0.98702 -7.20628,-0.98702 z" /><text
     xml:space="preserve"
     transform="matrix(0.80541237,0,0,0.80541237,-63.308707,-238.98269)"
     id="text1040"
     style="font-style:normal;font-variant:normal;font-weight:normal;font-stretch:normal;font-size:40px;line-height:1.25;font-family:PRIMETIME;-inkscape-font-specification:'PRIMETIME, Normal';font-variant-ligatures:normal;font-variant-caps:normal;font-variant-numeric:normal;font-variant-east-asian:normal;letter-spacing:0px;word-spacing:0px;white-space:pre;shape-inside:url(#rect1040);fill:#ffd500;fill-opacity:1;stroke:none"><tspan
       x="128.77148"
       y="458.12891"
       id="tspan2">ZZZ</tspan></text><text
     xml:space="preserve"
     transform="matrix(0.80541237,0,0,0.80541237,-63.211198,-41.880713)"
     id="text3057"
     style="font-style:normal;font-variant:normal;font-weight:normal;font-stretch:normal;font-size:40px;line-height:1.25;font-family:PRIMETIME;-inkscape-font-specification:'PRIMETIME, Normal';font-variant-ligatures:normal;font-variant-caps:normal;font-variant-numeric:normal;font-variant-east-asian:normal;letter-spacing:0px;word-spacing:0px;white-space:pre;shape-inside:url(#rect3058);fill:#ffd500;fill-opacity:1;stroke:none"><tspan
       x="124.65039"
       y="107.87109"
       id="tspan4">REH</tspan></text><path
     id="text9611"
     style="font-size:40px;line-height:1.25;font-family:PRIMETIME;-inkscape-font-specification:'PRIMETIME, Normal';letter-spacing:0px;word-spacing:0px;white-space:pre;fill:#ffd500"
     d="m 38.6013,19.9998 v 25 h 6.8941 l -0.032,-7.7318 h 4.2204 l 4.3491,7.7318 h 7.5065 L 55.6762,34.6909 c 1.0309,-0.7302 1.836,-1.6324 2.4159,-2.7063 0.5799,-1.0739 0.8702,-2.2337 0.8702,-3.4794 0,-0.7517 -0.1183,-1.5356 -0.3545,-2.3518 C 58.393,25.3158 58.071,24.5857 57.6414,23.9629 57.2978,23.4689 56.8787,22.9853 56.3847,22.5128 55.8907,22.0403 55.3538,21.6217 54.7739,21.2566 54.194,20.87 53.5927,20.5691 52.9699,20.3543 52.347,20.1181 51.7347,19.9998 51.1333,19.9998 Z m 25.5157,0 v 25 H 84.059 V 39.072 H 70.6246 V 35.496 H 83.2854 V 29.5362 H 70.6246 v -3.576 H 84.059 v -5.9604 z m 24.259,0 v 25 h 6.9262 v -9.4392 h 8.8598 v 9.4392 h 6.991 v -25 h -6.991 v 9.5364 h -8.8598 v -9.5364 z m -43.1059,5.5413 h 3.898 c 0.3866,0 0.7519,0.0755 1.0955,0.2258 0.3436,0.1289 0.6445,0.3221 0.9023,0.5798 0.2577,0.2363 0.4615,0.5155 0.6118,0.8377 0.1504,0.3221 0.2258,0.6764 0.2258,1.063 0,0.3866 -0.0754,0.7408 -0.2258,1.063 -0.1503,0.3221 -0.3541,0.6125 -0.6118,0.8702 -0.2578,0.2362 -0.5587,0.4295 -0.9023,0.5798 -0.3436,0.1289 -0.7089,0.1933 -1.0955,0.1933 h -3.898 z M 41.8553,105 v 6.411 h 10.4702 l -9.7291,17.461 V 130 h 20.2638 v -6.411 h -9.9549 l 9.7296,-17.462 V 105 Z m 22.5191,0 v 6.411 H 74.845 l -9.7296,17.461 V 130 h 20.2644 v -6.411 H 75.4249 L 85.154,106.127 V 105 Z m 22.5195,0 v 6.411 H 97.3641 L 87.635,128.872 V 130 h 20.264 v -6.411 h -9.9551 l 9.7301,-17.462 V 105 Z" /></svg>
