<?xml version="1.0" encoding="UTF-8" standalone="no"?>
<!-- Created with Inkscape (http://www.inkscape.org/) -->

<svg
   width="67.73333mm"
   height="67.73333mm"
   viewBox="0 0 67.733327 67.733327"
   version="1.1"
   id="svg1"
   xml:space="preserve"
   sodipodi:docname="C5.svg"
   inkscape:version="1.3 (0e150ed6c4, 2023-07-21)"
   xmlns:inkscape="http://www.inkscape.org/namespaces/inkscape"
   xmlns:sodipodi="http://sodipodi.sourceforge.net/DTD/sodipodi-0.dtd"
   xmlns="http://www.w3.org/2000/svg"
   xmlns:svg="http://www.w3.org/2000/svg"><sodipodi:namedview
     id="namedview1"
     pagecolor="#ffffff"
     bordercolor="#999999"
     borderopacity="1"
     inkscape:showpageshadow="2"
     inkscape:pageopacity="0"
     inkscape:pagecheckerboard="0"
     inkscape:deskcolor="#d1d1d1"
     inkscape:document-units="mm"
     inkscape:zoom="1.5862247"
     inkscape:cx="224.11705"
     inkscape:cy="108.74878"
     inkscape:window-width="1920"
     inkscape:window-height="1001"
     inkscape:window-x="-9"
     inkscape:window-y="-9"
     inkscape:window-maximized="1"
     inkscape:current-layer="svg1" /><defs
     id="defs1"><rect
       x="128.7717"
       y="414.12979"
       width="302.87103"
       height="109.1984"
       id="rect1040" /><rect
       x="124.651"
       y="63.870762"
       width="290.50894"
       height="105.07771"
       id="rect3058" /></defs><path
     id="rect1-3"
     style="fill:#4bb450;fill-opacity:1;stroke-width:0.133494"
     d="M 0,0 H 67.73332 V 67.733329 H 0 Z"
     inkscape:export-filename="..\b\C4.svg"
     inkscape:export-xdpi="347.36404"
     inkscape:export-ydpi="347.36404" /><path
     id="path30"
     style="fill:#000001;fill-opacity:0.247059;stroke-width:0.0727587"
     d="M 17.459227,9.0458516 V 20.353283 l 4.467532,4.467532 c -0.891666,0.343022 -1.551873,1.155097 -1.678655,2.132793 -0.01455,0.112221 -0.02478,0.225826 -0.02478,0.341949 v 13.253241 c 0,0.36541 0.0744,0.713732 0.208722,1.030752 0.06716,0.15851 0.149348,0.309123 0.244716,0.450166 0.04313,0.0638 0.09795,0.117944 0.146316,0.177635 0.05858,0.07229 0.111671,0.149303 0.177402,0.215033 l 4.696587,4.696586 0.3721,0.3721 H 18.93103 v 2.899666 2.35e-4 h 2.34e-4 l 3.040839,3.040837 -2.705903,4.856695 v 0.510001 l 8.93483,8.934829 H 67.733333 V 26.505079 L 50.274107,9.0458516 H 47.112195 V 13.053167 L 43.104878,9.0458516 H 39.972183 V 10.998439 L 38.019596,9.0458516 H 28.999922 V 13.67793 l -3.415041,-3.415042 c -0.02687,-0.02687 -0.05437,-0.05367 -0.08227,-0.0804 C 25.279181,9.9687709 25.036353,9.7794264 24.774068,9.6142851 24.511783,9.4394281 24.23983,9.3033333 23.958114,9.2061908 23.676402,9.0993339 23.399431,9.0458516 23.127434,9.0458516 Z" /><path
     style="fill:#f9f9f9;stroke-width:0.0727587"
     d="m 20.248214,26.953575 c -0.01455,0.112221 -0.02478,0.225825 -0.02478,0.341948 v 13.253239 c 0,1.461647 1.189178,2.650744 2.650742,2.650744 h 21.984958 c 1.461579,0 2.650744,-1.189097 2.650744,-2.650744 V 27.295523 c 0,-0.116123 -0.01022,-0.229727 -0.02479,-0.341948 z"
     id="path16" /><path
     id="path5"
     style="fill:#f44336;fill-opacity:1;stroke-width:0.0727587"
     d="m 22.874181,24.645014 c -1.345455,0 -2.457352,1.008262 -2.625966,2.30856 h 27.236889 c -0.168611,-1.300298 -1.280506,-2.30856 -2.625968,-2.30856 z" /><path
     style="fill:#798388;fill-opacity:1;stroke-width:0.0727587"
     d="m 22.518714,37.614589 h 6.608973 c 0.369209,0 0.668471,0.299269 0.668471,0.66847 0,0.369112 -0.29936,0.668237 -0.668471,0.668237 h -6.608973 c -0.369026,0 -0.668236,-0.299036 -0.668236,-0.668237 0,-0.369201 0.29921,-0.66847 0.668236,-0.66847 z"
     id="path29" /><path
     style="fill:#798388;fill-opacity:1;stroke-width:0.0727587"
     d="m 22.518714,35.236845 h 11.415648 c 0.369113,0 0.668237,0.299034 0.668237,0.668237 0,0.3692 -0.29903,0.66847 -0.668237,0.66847 H 22.518714 c -0.369026,0 -0.668236,-0.29927 -0.668236,-0.66847 0,-0.369203 0.29921,-0.668237 0.668236,-0.668237 z"
     id="path28" /><path
     style="fill:#798388;fill-opacity:1;stroke-width:0.0727587"
     d="m 28.799764,30.507301 h 0.660289 v 2.254802 h -0.660289 z"
     id="path24" /><path
     style="fill:#798388;fill-opacity:1;stroke-width:0.0727587"
     d="m 26.709041,30.507301 h 0.633177 v 1.68333 h 1.170057 v 0.571472 h -1.803234 z"
     id="path23" /><path
     id="path22"
     style="fill:#798388;fill-opacity:1;stroke-width:0.0727587"
     d="m 33.405196,30.442324 c -0.164238,0 -0.319368,0.03173 -0.465358,0.0956 -0.145991,0.06159 -0.273594,0.147143 -0.383085,0.256636 -0.10721,0.107209 -0.192763,0.233823 -0.256637,0.379813 -0.06159,0.143706 -0.09232,0.297847 -0.09232,0.462086 0,0.164236 0.03074,0.319368 0.09232,0.465358 0.06387,0.145987 0.149427,0.272601 0.256637,0.379813 0.109491,0.107209 0.237095,0.192532 0.383085,0.256402 0.14599,0.06159 0.30112,0.09256 0.465358,0.09256 0.164238,0 0.319368,-0.03097 0.465359,-0.09256 0.145987,-0.06387 0.272599,-0.149193 0.379812,-0.256402 0.109488,-0.107212 0.195046,-0.233826 0.256637,-0.379813 0.06387,-0.14599 0.09583,-0.301122 0.09583,-0.465358 0,-0.164239 -0.03196,-0.319369 -0.09583,-0.465358 -0.06159,-0.145991 -0.147148,-0.272601 -0.256637,-0.379813 -0.107212,-0.107212 -0.233825,-0.191775 -0.379812,-0.253364 -0.14599,-0.06387 -0.301121,-0.0956 -0.465359,-0.0956 z m 0,0.619153 c 0.07756,0 0.149584,0.01598 0.215734,0.04791 0.06843,0.02965 0.126459,0.07071 0.174363,0.123176 0.05019,0.05246 0.08903,0.114167 0.116398,0.184881 0.02737,0.06843 0.04114,0.141448 0.04114,0.219006 0,0.07756 -0.01377,0.151564 -0.04114,0.222278 -0.02737,0.06843 -0.06622,0.130135 -0.116398,0.184881 -0.0479,0.05247 -0.105929,0.09451 -0.174363,0.126448 -0.06615,0.02965 -0.138178,0.04464 -0.215734,0.04464 -0.07756,0 -0.150571,-0.01498 -0.219005,-0.04464 -0.06615,-0.03194 -0.124184,-0.07398 -0.174364,-0.126448 -0.04791,-0.05475 -0.08674,-0.116451 -0.116398,-0.184881 -0.02737,-0.07071 -0.04114,-0.144721 -0.04114,-0.222278 0,-0.07756 0.01377,-0.150575 0.04114,-0.219006 0.02966,-0.07071 0.06849,-0.132416 0.116398,-0.184881 0.05018,-0.05246 0.108212,-0.09352 0.174364,-0.123176 0.06843,-0.03194 0.141449,-0.04791 0.219005,-0.04791 z" /><path
     id="path21"
     style="fill:#798388;fill-opacity:1;stroke-width:0.0727587"
     d="m 25.302916,30.442324 c -0.164238,0 -0.319368,0.03173 -0.465358,0.0956 -0.14599,0.06159 -0.273826,0.147143 -0.383319,0.256636 -0.107208,0.107209 -0.192765,0.233823 -0.256636,0.379813 -0.06159,0.143706 -0.09232,0.297847 -0.09232,0.462086 0,0.164236 0.03073,0.319368 0.09232,0.465358 0.06387,0.145987 0.149427,0.272601 0.256636,0.379813 0.109493,0.107209 0.23733,0.192532 0.383319,0.256402 0.14599,0.06159 0.30112,0.09256 0.465358,0.09256 0.164237,0 0.31937,-0.03097 0.465358,-0.09256 0.14599,-0.06387 0.272367,-0.149193 0.379579,-0.256402 0.10949,-0.107212 0.195047,-0.233826 0.256637,-0.379813 0.06387,-0.14599 0.09583,-0.301122 0.09583,-0.465358 0,-0.164239 -0.03196,-0.319369 -0.09583,-0.465358 -0.06159,-0.145991 -0.147147,-0.272601 -0.256637,-0.379813 -0.107212,-0.107212 -0.233589,-0.191775 -0.379579,-0.253364 -0.145988,-0.06387 -0.301121,-0.0956 -0.465358,-0.0956 z m 0,0.619153 c 0.07756,0 0.149348,0.01598 0.215499,0.04791 0.06843,0.02965 0.126462,0.07071 0.174364,0.123176 0.05018,0.05246 0.08902,0.114167 0.116398,0.184881 0.02737,0.06843 0.04114,0.141448 0.04114,0.219006 0,0.07756 -0.01376,0.151564 -0.04114,0.222278 -0.02737,0.06843 -0.06622,0.130135 -0.116398,0.184881 -0.0479,0.05247 -0.10593,0.09451 -0.174364,0.126448 -0.06615,0.02965 -0.137944,0.04464 -0.215499,0.04464 -0.07756,0 -0.150572,-0.01498 -0.219006,-0.04464 -0.06615,-0.03194 -0.124415,-0.07398 -0.174596,-0.126448 -0.04791,-0.05475 -0.08675,-0.116451 -0.116398,-0.184881 -0.02737,-0.07071 -0.0409,-0.144721 -0.0409,-0.222278 0,-0.07756 0.01353,-0.150575 0.0409,-0.219006 0.02965,-0.07071 0.06849,-0.132416 0.116398,-0.184881 0.05018,-0.05246 0.108447,-0.09352 0.174596,-0.123176 0.06843,-0.03194 0.141449,-0.04791 0.219006,-0.04791 z" /><path
     style="fill:#798388;fill-opacity:1;stroke-width:0.0727587"
     d="m 29.771382,30.10692 h 2.275604 v 0.609103 l -0.04791,0.04791 H 31.27007 v 1.998165 h -0.721761 v -1.998165 h -0.729007 l -0.04791,-0.04791 z"
     id="path20" /><path
     id="path19"
     style="fill:#798388;fill-opacity:1;stroke-width:0.0727587"
     d="m 21.850478,30.10692 v 2.655183 h 0.71171 V 31.9375 h 0.482421 c 0.127739,0 0.249687,-0.02408 0.366022,-0.07199 0.118614,-0.05018 0.222367,-0.117309 0.31133,-0.20171 0.09124,-0.08668 0.163268,-0.187224 0.215733,-0.301279 0.05475,-0.114055 0.08204,-0.237227 0.08204,-0.369528 0,-0.130023 -0.02729,-0.249753 -0.08204,-0.359245 -0.05247,-0.109492 -0.124489,-0.202922 -0.215733,-0.280476 -0.08896,-0.07756 -0.192716,-0.138037 -0.31133,-0.181376 -0.116335,-0.04334 -0.238283,-0.06498 -0.366022,-0.06498 z m 0.728773,0.588535 h 0.413937 c 0.04106,0 0.0799,0.0079 0.116398,0.02384 0.0365,0.01369 0.06846,0.03433 0.09583,0.0617 0.02737,0.02509 0.04901,0.0546 0.06498,0.08882 0.01597,0.03422 0.02384,0.07207 0.02384,0.113125 0,0.04106 -0.0079,0.07868 -0.02384,0.112892 -0.01597,0.03422 -0.0376,0.06495 -0.06498,0.09232 -0.02737,0.02509 -0.05933,0.0455 -0.09583,0.06147 -0.0365,0.01369 -0.07534,0.02057 -0.116398,0.02057 h -0.413937 z" /><path
     id="path1"
     style="fill:#5c6bc0;stroke-width:0.496961"
     d="m 40.918092,30.051244 c -1.646786,0 -2.981704,1.335151 -2.981704,2.981938 0,1.646781 1.334918,2.981704 2.981704,2.981704 1.646786,0 2.981703,-1.334923 2.981703,-2.981704 0,-1.646787 -1.334917,-2.981938 -2.981703,-2.981938 z m 0,6.957466 c -1.379913,0 -2.456991,0.109999 -3.264519,0.448529 -0.864588,0.362435 -1.394277,0.976891 -1.676785,1.870081 -0.104417,0.330131 0.142903,0.663328 0.485693,0.663328 h 8.90795 c 0.344194,0 0.593287,-0.33463 0.488033,-0.6666 -0.283368,-0.89324 -0.814986,-1.507422 -1.680995,-1.868912 -0.806816,-0.336791 -1.882292,-0.446426 -3.259377,-0.446426 z" /><path
     d="m 19.266106,58.798586 v -0.51 l 4.400568,-7.897708 h -4.73571 v -2.899712 h 9.398564 v 0.509999 l -4.400568,7.897709 h 4.502568 v 2.899712 z m 10.185414,0 v -0.51 l 4.400568,-7.897708 h -4.735711 v -2.899712 h 9.398565 v 0.509999 l -4.400568,7.897709 h 4.502568 v 2.899712 z m 10.185414,0 v -0.51 l 4.400568,-7.897708 h -4.735711 v -2.899712 h 9.398565 v 0.509999 l -4.400569,7.897709 h 4.502569 v 2.899712 z"
     id="text1040"
     style="font-size:40px;line-height:1.25;font-family:PRIMETIME;-inkscape-font-specification:'PRIMETIME, Normal';letter-spacing:0px;word-spacing:0px;white-space:pre;fill:#ffd500;stroke-width:0.364285"
     aria-label="ZZZ" /><path
     style="font-size:40px;line-height:1.25;font-family:PRIMETIME;-inkscape-font-specification:'PRIMETIME, Normal';letter-spacing:0px;word-spacing:0px;white-space:pre;fill:#ffd500;stroke-width:0.364285"
     d="m 47.112081,20.353355 v -4.269424 h -4.00714 v 4.269424 H 39.972086 V 9.0459364 h 3.132855 v 4.3131396 h 4.00714 V 9.0459364 h 3.161998 V 20.353355 Z"
     id="path4" /><path
     style="font-size:40px;line-height:1.25;font-family:PRIMETIME;-inkscape-font-specification:'PRIMETIME, Normal';letter-spacing:0px;word-spacing:0px;white-space:pre;fill:#ffd500;stroke-width:0.364285"
     d="M 28.999812,20.353355 V 9.0459364 h 9.019708 v 2.6957126 h -6.076281 v 1.617427 h 5.726567 v 2.695712 h -5.726567 v 1.617426 h 6.076281 v 2.681141 z"
     id="path3" /><path
     id="text3057"
     style="font-size:40px;line-height:1.25;font-family:PRIMETIME;-inkscape-font-specification:'PRIMETIME, Normal';letter-spacing:0px;word-spacing:0px;white-space:pre;fill:#ffd500;stroke-width:0.364285"
     d="M 17.459227,9.0458515 V 20.353282 h 3.118204 l -0.01449,-3.49708 h 1.908882 l 1.967076,3.49708 h 3.395176 l -2.65191,-4.662696 c 0.466285,-0.330285 0.830407,-0.738335 1.092692,-1.224049 0.262286,-0.485713 0.393603,-1.010282 0.393603,-1.573709 0,-0.34 -0.05348,-0.694567 -0.16034,-1.06371 -0.09714,-0.378856 -0.242793,-0.709071 -0.437077,-0.990785 -0.15543,-0.223428 -0.345004,-0.442134 -0.568435,-0.655848 C 25.279179,9.9687709 25.036354,9.7794277 24.774068,9.6142851 24.511783,9.4394281 24.239829,9.3033336 23.958113,9.2061911 23.6764,9.0993341 23.399434,9.0458515 23.127436,9.0458515 Z m 3.016299,2.5062955 h 1.763028 c 0.174857,0 0.340082,0.03414 0.495512,0.102141 0.155426,0.05829 0.291523,0.145675 0.408095,0.262246 0.116571,0.106857 0.208735,0.233164 0.276736,0.378878 0.068,0.145714 0.102139,0.305927 0.102139,0.480784 0,0.174857 -0.03414,0.33507 -0.102139,0.480784 -0.068,0.145715 -0.160165,0.277032 -0.276736,0.393603 -0.116572,0.106857 -0.252669,0.194246 -0.408095,0.262246 -0.15543,0.05829 -0.320655,0.08742 -0.495512,0.08742 h -1.763028 z" /><path
     id="text9611"
     style="font-size:40px;line-height:1.25;font-family:PRIMETIME;-inkscape-font-specification:'PRIMETIME, Normal';letter-spacing:0px;word-spacing:0px;white-space:pre;fill:#ffd500;stroke-width:0.452297"
     d="M 17.459245,9.0458457 V 20.353266 h 3.118179 l -0.01447,-3.497068 h 1.908873 l 1.967084,3.497068 h 3.395166 l -2.651906,-4.662683 c 0.466272,-0.330267 0.830417,-0.738329 1.092703,-1.22405 0.262287,-0.485722 0.393589,-1.010296 0.393589,-1.573722 0,-0.339991 -0.05351,-0.694547 -0.160339,-1.063712 -0.09715,-0.378843 -0.242793,-0.709065 -0.4371,-0.990756 C 25.915612,10.614909 25.726055,10.396178 25.50262,10.182468 25.279185,9.9687574 25.036347,9.7794259 24.77406,9.6142924 24.511773,9.4394344 24.239807,9.3033383 23.958117,9.206185 23.676381,9.0993524 23.39944,9.0458457 23.127428,9.0458457 Z m 11.54067,0 V 20.353266 h 9.019703 v -2.681125 h -6.076337 v -1.617413 h 5.72644 v -2.695599 h -5.72644 v -1.617413 h 6.076337 V 9.0458457 Z m 10.972268,0 V 20.353266 h 3.132698 v -4.26932 h 4.007259 v 4.26932 h 3.162007 V 9.0458457 H 47.11214 V 13.359129 H 43.104881 V 9.0458457 Z M 20.475522,11.552158 h 1.763053 c 0.174858,0 0.340082,0.03415 0.495491,0.102129 0.155409,0.0583 0.291505,0.145684 0.408107,0.262241 0.116557,0.106878 0.208735,0.233159 0.276716,0.378889 0.06802,0.145685 0.102128,0.305934 0.102128,0.480792 0,0.174858 -0.0341,0.335061 -0.102128,0.480791 -0.06798,0.145685 -0.160159,0.277032 -0.276716,0.393589 -0.116602,0.106833 -0.252698,0.194262 -0.408107,0.262242 -0.155409,0.0583 -0.320633,0.08743 -0.495491,0.08743 h -1.763053 z m -1.544503,35.939007 v 2.899675 h 4.735638 l -4.400441,7.897554 v 0.510191 h 9.165252 V 55.89891 h -4.50257 l 4.400667,-7.898006 v -0.509739 z m 10.185317,0 v 2.899675 h 4.735819 l -4.400667,7.897554 v 0.510191 h 9.165523 V 55.89891 h -4.502569 l 4.400441,-7.898006 v -0.509739 z m 10.185498,0 v 2.899675 h 4.735638 l -4.400441,7.897554 v 0.510191 h 9.165342 V 55.89891 h -4.502659 l 4.400893,-7.898006 v -0.509739 z" /></svg>
