<?xml version="1.0" encoding="UTF-8" standalone="no"?>
<!-- Created with Inkscape (http://www.inkscape.org/) -->

<svg
   width="67.73333mm"
   height="67.73333mm"
   viewBox="0 0 67.733327 67.733327"
   version="1.1"
   id="svg1"
   xml:space="preserve"
   sodipodi:docname="A1.svg"
   inkscape:version="1.3 (0e150ed6c4, 2023-07-21)"
   xmlns:inkscape="http://www.inkscape.org/namespaces/inkscape"
   xmlns:sodipodi="http://sodipodi.sourceforge.net/DTD/sodipodi-0.dtd"
   xmlns="http://www.w3.org/2000/svg"
   xmlns:svg="http://www.w3.org/2000/svg"><sodipodi:namedview
     id="namedview1"
     pagecolor="#ffffff"
     bordercolor="#999999"
     borderopacity="1"
     inkscape:showpageshadow="2"
     inkscape:pageopacity="0"
     inkscape:pagecheckerboard="0"
     inkscape:deskcolor="#d1d1d1"
     inkscape:document-units="mm"
     inkscape:zoom="1.7041198"
     inkscape:cx="231.49781"
     inkscape:cy="127.04506"
     inkscape:window-width="1920"
     inkscape:window-height="1001"
     inkscape:window-x="-9"
     inkscape:window-y="-9"
     inkscape:window-maximized="1"
     inkscape:current-layer="svg1" /><defs
     id="defs1" /><path
     id="rect1-3"
     style="fill:#90caf9;fill-opacity:1;stroke-width:0.133494"
     d="M 0,0 H 67.73332 V 67.733329 H 0 Z" /><path
     id="path40"
     style="font-size:40px;line-height:1.25;font-family:PRIMETIME;-inkscape-font-specification:'PRIMETIME, Normal';letter-spacing:0px;word-spacing:0px;white-space:pre;fill:#000001;fill-opacity:0.247059;stroke-width:0.452297"
     d="m 20.337156,9.0458516 -4.182147,11.3074314 4.961639,4.961638 c -0.465417,0.414386 -0.784438,0.990092 -0.868544,1.638687 -0.01455,0.112221 -0.02478,0.225826 -0.02478,0.341949 v 13.253241 c 0,0.36541 0.0744,0.713732 0.208722,1.030752 0.06716,0.15851 0.149348,0.309123 0.244716,0.450166 0.04313,0.0638 0.09795,0.117944 0.146316,0.177635 0.05858,0.07229 0.111671,0.149303 0.177402,0.215033 l 4.962339,4.962337 0.417444,0.417448 h -0.252196 v 2.31e-4 l -1.702028,4.601459 -3.343754,-3.343753 c -0.287312,-0.25434 -0.587822,-0.478146 -0.901032,-0.671277 l -2.34e-4,-2.3e-4 c -0.156655,-0.09658 -0.316484,-0.185415 -0.479615,-0.266688 -0.163133,-0.08127 -0.329406,-0.154916 -0.499016,-0.220875 -0.169611,-0.06831 -0.341063,-0.128036 -0.514208,-0.179272 -0.173144,-0.05124 -0.348047,-0.09393 -0.524726,-0.128086 -0.176677,-0.03415 -0.355031,-0.05982 -0.535243,-0.0769 -0.180212,-0.0171 -0.362251,-0.02571 -0.545995,-0.02571 -0.202584,0 -0.402003,0.0095 -0.598118,0.02898 -0.0981,0.0097 -0.19292,0.02929 -0.289359,0.04394 -0.09636,0.01456 -0.194345,0.02428 -0.289125,0.04371 -0.189634,0.03885 -0.376161,0.08754 -0.559318,0.145847 -0.183156,0.0583 -0.363006,0.126309 -0.539684,0.204045 -0.174323,0.07538 -0.343475,0.158119 -0.507196,0.248225 -0.163722,0.09011 -0.322055,0.187568 -0.475175,0.292396 -0.151566,0.103766 -0.297767,0.214878 -0.438947,0.333067 -0.0032,0.0027 -0.0062,0.0055 -0.0093,0.0077 -0.06949,0.05861 -0.13399,0.124101 -0.201008,0.186052 -0.06694,0.06186 -0.136403,0.120216 -0.200775,0.185582 -0.0016,0.0018 -0.0035,0.0032 -0.0051,0.0047 v 2.36e-4 c -0.0015,0.0013 -0.003,0.0032 -0.0044,0.0049 -0.06387,0.0653 -0.121227,0.13592 -0.181842,0.203814 -0.06069,0.06794 -0.124745,0.133093 -0.182077,0.203814 v 2.35e-4 c -0.115974,0.143062 -0.225252,0.291714 -0.32769,0.445956 -0.100907,0.15194 -0.195043,0.309583 -0.282815,0.47237 -0.0028,0.0052 -0.0056,0.01046 -0.0084,0.01566 -0.08652,0.161587 -0.166878,0.328421 -0.240509,0.500647 -5.88e-4,0.0014 -0.0013,0.0026 -0.0019,0.004 v 2.35e-4 c -4.05e-4,8.46e-4 -7.63e-4,0.0024 -0.0012,0.0033 -0.07369,0.170905 -0.138107,0.343958 -0.193763,0.520286 -4.3e-5,1.4e-4 4.4e-5,3.26e-4 0,4.66e-4 -0.0017,0.0053 -0.0035,0.01077 -0.0051,0.01613 -0.05539,0.177522 -0.101952,0.358088 -0.139069,0.541322 -0.03768,0.186021 -0.066,0.375352 -0.08484,0.567262 -0.01884,0.191909 -0.02827,0.386998 -0.02828,0.584797 0,0.197721 0.0095,0.392598 0.02828,0.585028 1.5e-5,1.53e-4 -1.5e-5,3.25e-4 0,4.66e-4 4.7e-5,4.52e-4 1.87e-4,9.49e-4 2.34e-4,0.0014 0.01879,0.191543 0.04694,0.380734 0.08438,0.567031 9.3e-5,4.52e-4 1.4e-4,9.49e-4 2.34e-4,0.0014 1.27e-4,8.09e-4 3.43e-4,0.0014 4.67e-4,0.0021 0.03704,0.183691 0.08342,0.365067 0.138602,0.543661 0.0017,0.0054 0.0035,0.01096 0.0051,0.01636 0.05562,0.178051 0.120088,0.353859 0.193763,0.526831 4e-4,8.46e-4 7.63e-4,0.0024 0.0012,0.0033 v 2.35e-4 c 6.33e-4,0.0014 0.0015,0.0026 0.0021,0.004 0.07354,0.169715 0.153648,0.334591 0.240041,0.494808 0.0029,0.0055 0.0059,0.01089 0.0089,0.01636 0.08772,0.161538 0.18174,0.318426 0.282581,0.470266 0.102473,0.154301 0.211672,0.303541 0.32769,0.447829 0.115947,0.144196 0.238885,0.283477 0.36836,0.417678 v 2.3e-4 c 0.0017,0.0017 0.0037,0.0032 0.0054,0.0049 L 23.3032,67.733333 H 67.733333 V 29.383007 L 47.396178,9.0458516 H 44.729541 L 42.156632,16.002617 35.199867,9.0458516 H 32.533465 L 29.960322,16.002617 23.003557,9.0458516 Z" /><path
     id="path18"
     style="font-size:40px;line-height:1.25;font-family:PRIMETIME;-inkscape-font-specification:'PRIMETIME, Normal';letter-spacing:0px;word-spacing:0px;white-space:pre;fill:#ffd500;stroke-width:0.452297"
     d="M 20.337164,9.0458457 16.155002,20.353266 h 3.191135 l 0.58292,-1.558977 h 3.482595 l 0.58292,1.558977 h 3.191135 L 23.003544,9.0458457 Z m 12.196319,0 -4.182162,11.3074203 h 3.191135 l 0.58292,-1.558977 h 3.482595 l 0.58292,1.558977 h 3.191135 L 35.199864,9.0458457 Z m 12.196048,0 -4.181891,11.3074203 h 3.191135 l 0.58292,-1.558977 h 3.482459 l 0.583011,1.558977 h 3.190954 L 47.396183,9.0458457 Z m -23.05194,4.1384253 0.888899,2.987104 h -1.792271 z m 12.196319,0 0.888899,2.987104 h -1.792271 z m 12.196138,0 0.889216,2.987104 H 45.166857 Z M 17.08221,47.491165 c -0.810335,0 -1.568882,0.15559 -2.275595,0.466318 -0.697306,0.301682 -1.309897,0.720961 -1.837592,1.257837 -0.518242,0.527831 -0.928113,1.145216 -1.229659,1.851704 -0.301547,0.697441 -0.452252,1.441922 -0.452252,2.233441 0,0.79152 0.150705,1.540523 0.452252,2.247463 0.301546,0.696989 0.711417,1.314375 1.229659,1.851251 0.527695,0.52783 1.140286,0.947109 1.837592,1.25829 0.706713,0.301229 1.46526,0.452296 2.275595,0.452296 0.904594,0 1.75265,-0.193583 2.54417,-0.579844 0.800927,-0.39576 1.493439,-0.951633 2.077625,-1.667618 l -2.332178,-1.894219 c -0.292093,0.376763 -0.635929,0.669399 -1.031689,0.876551 -0.386307,0.207152 -0.805631,0.310728 -1.257928,0.310728 -0.395759,0 -0.763296,-0.07553 -1.102518,-0.226149 -0.32977,-0.160113 -0.617205,-0.367265 -0.862214,-0.621908 -0.245009,-0.263689 -0.438095,-0.565371 -0.579437,-0.904593 -0.141343,-0.348721 -0.211992,-0.715986 -0.211992,-1.102248 0,-0.376763 0.07065,-0.734982 0.211992,-1.074205 0.141342,-0.348721 0.334428,-0.654925 0.579437,-0.918614 0.245009,-0.264142 0.537283,-0.471294 0.876506,-0.622361 0.339223,-0.150615 0.706488,-0.225696 1.102247,-0.225696 0.603093,0 1.177962,0.193131 1.724472,0.579392 l 2.261575,-1.978798 C 20.507499,48.551349 19.880842,48.165087 19.202397,47.900946 18.523952,47.627759 17.817193,47.491165 17.08221,47.491165 Z m 9.045846,0.31118 -4.056379,10.967746 h 3.095293 l 0.565417,-1.512029 h 3.378069 l 0.565416,1.512029 h 3.095293 L 28.714787,47.802345 Z m 8.000135,0 v 10.967746 h 3.024735 l -0.01425,-3.392227 h 1.851613 l 1.908149,3.392227 h 3.293264 l -2.572438,-4.522969 c 0.452297,-0.320226 0.805812,-0.715985 1.060229,-1.186826 0.254417,-0.471294 0.381422,-0.980128 0.381422,-1.526502 0,-0.329724 -0.05174,-0.673922 -0.155409,-1.032141 -0.09421,-0.367265 -0.235557,-0.687944 -0.423983,-0.961131 -0.150796,-0.21665 -0.334655,-0.428325 -0.551395,-0.635929 -0.216696,-0.207152 -0.452116,-0.391237 -0.706533,-0.55135 -0.254417,-0.169612 -0.518423,-0.30123 -0.791655,-0.39576 -0.273278,-0.103576 -0.541852,-0.155138 -0.805677,-0.155138 z m 10.939794,0 v 10.967746 h 4.90448 c 0.763477,0 1.479463,-0.141117 2.14841,-0.423803 0.669399,-0.292183 1.253315,-0.682968 1.753103,-1.173257 0.499335,-0.499336 0.89012,-1.083704 1.172805,-1.752651 0.292184,-0.668947 0.438276,-1.380409 0.438276,-2.134388 0,-0.753527 -0.146092,-1.46499 -0.438276,-2.133937 -0.282685,-0.668947 -0.67347,-1.248339 -1.172805,-1.738629 -0.499788,-0.499335 -1.083704,-0.890572 -1.753103,-1.173257 -0.668947,-0.292184 -1.384933,-0.437824 -2.14841,-0.437824 z m -8.014157,2.430643 h 1.710451 c 0.169611,0 0.32977,0.03302 0.48052,0.09905 0.150796,0.05654 0.28264,0.141569 0.395715,0.254643 0.113074,0.103576 0.202583,0.226149 0.268573,0.367265 0.06594,0.141569 0.09887,0.297159 0.09887,0.466771 0,0.169611 -0.03293,0.324749 -0.09887,0.466318 -0.06599,0.141116 -0.155499,0.268212 -0.268573,0.381286 -0.113075,0.104028 -0.244919,0.188608 -0.395715,0.254643 -0.15075,0.05654 -0.310909,0.08458 -0.48052,0.08458 h -1.710451 z m 10.897775,0.240622 h 1.68164 c 0.395759,0 0.763477,0.07553 1.102699,0.226149 0.348721,0.141116 0.649951,0.339222 0.904594,0.593413 0.254191,0.254643 0.452297,0.556325 0.593413,0.904594 0.151068,0.339222 0.226601,0.701964 0.226601,1.088226 0,0.386714 -0.07553,0.753979 -0.226601,1.102699 -0.141116,0.339223 -0.339222,0.63593 -0.593413,0.890573 -0.254643,0.254191 -0.555873,0.45682 -0.904594,0.607434 -0.339222,0.141569 -0.70694,0.212128 -1.102699,0.212128 h -1.68164 z m -20.523058,1.342869 0.862259,2.897414 h -1.738765 z" /><path
     id="path4"
     style="font-size:40px;line-height:1.25;font-family:PRIMETIME;-inkscape-font-specification:'PRIMETIME, Normal';letter-spacing:0px;word-spacing:0px;white-space:pre;fill:#ffd500;stroke-width:0.364285"
     d="M 44.729541,9.0458516 40.547629,20.353283 h 3.191127 l 0.582925,-1.558985 h 3.482591 l 0.582689,1.558985 h 3.191362 L 47.396178,9.0458516 Z m 1.340679,4.1384384 0.888881,2.98708 h -1.792249 z" /><path
     id="path2"
     style="font-size:40px;line-height:1.25;font-family:PRIMETIME;-inkscape-font-specification:'PRIMETIME, Normal';letter-spacing:0px;word-spacing:0px;white-space:pre;fill:#ffd500;stroke-width:0.364285"
     d="M 32.533465,9.0458516 28.351319,20.353283 h 3.191127 l 0.582925,-1.558985 h 3.48259 l 0.582925,1.558985 h 3.191127 L 35.199867,9.0458516 Z m 1.340447,4.1384384 0.888878,2.98708 h -1.792248 z" /><path
     id="text3"
     style="font-size:40px;line-height:1.25;font-family:PRIMETIME;-inkscape-font-specification:'PRIMETIME, Normal';letter-spacing:0px;word-spacing:0px;white-space:pre;fill:#ffd500;stroke-width:0.364285"
     d="M 20.337156,9.0458516 16.155009,20.353283 h 3.191128 l 0.582924,-1.558985 h 3.48259 l 0.582925,1.558985 h 3.191127 L 23.003557,9.0458516 Z m 1.340446,4.1384384 0.888878,2.98708 h -1.792248 z" /><path
     id="path21"
     style="font-size:40px;line-height:1.25;font-family:PRIMETIME;-inkscape-font-specification:'PRIMETIME, Normal';letter-spacing:0px;word-spacing:0px;white-space:pre;fill:#ffd500;stroke-width:0.353357"
     d="m 45.067984,47.802169 v 10.968053 h 4.904608 c 0.763251,0 1.479431,-0.141302 2.148455,-0.423988 0.669019,-0.292107 1.253337,-0.683108 1.752745,-1.173095 0.499413,-0.499412 0.89041,-1.083726 1.173095,-1.75275 0.292112,-0.669019 0.438249,-1.380369 0.438249,-2.134194 0,-0.753829 -0.146137,-1.465175 -0.438249,-2.134198 -0.282685,-0.66902 -0.673682,-1.248502 -1.173095,-1.738489 -0.499408,-0.499413 -1.083726,-0.890645 -1.752745,-1.17333 -0.669024,-0.292107 -1.385204,-0.438009 -2.148455,-0.438009 z m 2.883538,2.67131 h 1.681924 c 0.39576,0 0.763287,0.07548 1.10251,0.226248 0.348644,0.141343 0.650122,0.339028 0.904539,0.593445 0.254417,0.254417 0.452333,0.556126 0.593676,0.90477 0.150764,0.339223 0.226252,0.701915 0.226252,1.088253 0,0.386334 -0.07549,0.753861 -0.226252,1.102505 -0.141343,0.339223 -0.339259,0.636102 -0.593676,0.890519 -0.254417,0.254417 -0.555895,0.456932 -0.904539,0.607697 -0.339223,0.141342 -0.70675,0.211996 -1.10251,0.211996 h -1.681924 z" /><path
     id="path19"
     style="font-size:40px;line-height:1.25;font-family:PRIMETIME;-inkscape-font-specification:'PRIMETIME, Normal';letter-spacing:0px;word-spacing:0px;white-space:pre;fill:#ffd500;stroke-width:0.353357"
     d="m 34.128211,47.802169 v 10.968053 h 3.024711 l -0.01426,-3.392136 h 1.851616 l 1.908179,3.392136 h 3.293267 l -2.572441,-4.522928 c 0.452296,-0.320375 0.805786,-0.715976 1.060203,-1.187116 0.254417,-0.471144 0.381449,-0.979973 0.381449,-1.526497 0,-0.329801 -0.05178,-0.673855 -0.155432,-1.031924 -0.09423,-0.367492 -0.23553,-0.68784 -0.423987,-0.961099 C 42.33075,49.32393 42.14687,49.11198 41.930145,48.904674 41.71342,48.697373 41.477993,48.513491 41.223576,48.353306 40.96916,48.183695 40.705192,48.051828 40.43193,47.957596 40.158667,47.853948 39.890099,47.802169 39.62626,47.802169 Z m 2.925609,2.431032 h 1.710442 c 0.169612,0 0.329785,0.03291 0.480551,0.09887 0.150765,0.05654 0.282632,0.141461 0.395706,0.254535 0.113074,0.103653 0.202597,0.226081 0.268557,0.367423 0.06596,0.141343 0.09887,0.296915 0.09887,0.466526 0,0.169612 -0.03291,0.324953 -0.09887,0.466296 -0.06596,0.141343 -0.155483,0.26861 -0.268557,0.381684 -0.113074,0.103648 -0.244941,0.188572 -0.395706,0.25453 -0.150766,0.05654 -0.310939,0.08461 -0.480551,0.08461 H 37.05382 Z" /><path
     id="path5"
     style="font-size:40px;line-height:1.25;font-family:PRIMETIME;-inkscape-font-specification:'PRIMETIME, Normal';letter-spacing:0px;word-spacing:0px;white-space:pre;fill:#ffd500;stroke-width:0.353357"
     d="m 26.128071,47.802169 -4.056399,10.968053 h 3.095298 l 0.565395,-1.512241 h 3.378112 l 0.565395,1.512241 h 3.095297 L 28.71477,47.802169 Z m 1.300478,4.014093 0.862234,2.897558 h -1.738724 z" /><path
     style="font-size:40px;line-height:1.25;font-family:PRIMETIME;-inkscape-font-specification:'PRIMETIME, Normal';letter-spacing:0px;word-spacing:0px;white-space:pre;fill:#ffd500;stroke-width:0.353357"
     d="m 17.082198,59.109539 q -1.215548,0 -2.275619,-0.452296 -1.045936,-0.466432 -1.837456,-1.257951 -0.777385,-0.805654 -1.229682,-1.85159 -0.452296,-1.060071 -0.452296,-2.24735 0,-1.187279 0.452296,-2.233215 0.452297,-1.060071 1.229682,-1.85159 0.79152,-0.805654 1.837456,-1.257951 1.060071,-0.466431 2.275619,-0.466431 1.102473,0 2.120141,0.409894 1.017668,0.39576 1.879858,1.159011 l -2.261484,1.978798 q -0.819788,-0.579505 -1.724381,-0.579505 -0.59364,0 -1.102474,0.226148 -0.508834,0.226149 -0.876325,0.621908 -0.367491,0.39576 -0.579505,0.918728 -0.212014,0.508834 -0.212014,1.074205 0,0.579505 0.212014,1.102474 0.212014,0.508834 0.579505,0.904593 0.367491,0.381626 0.862191,0.621908 0.508834,0.226149 1.102474,0.226149 0.678445,0 1.25795,-0.310954 0.59364,-0.310954 1.031802,-0.876325 l 2.332156,1.893993 q -0.876325,1.074204 -2.077739,1.667844 -1.187279,0.579505 -2.544169,0.579505 z"
     id="text4" /><path
     style="fill:#f9f9f9;stroke-width:0.0727587"
     d="m 20.248104,26.953581 c -0.01455,0.112221 -0.02478,0.225825 -0.02478,0.341948 v 13.253239 c 0,1.461647 1.189178,2.650744 2.650742,2.650744 h 21.984957 c 1.461581,0 2.650747,-1.189097 2.650747,-2.650744 V 27.295529 c 0,-0.116123 -0.01022,-0.229727 -0.02479,-0.341948 z"
     id="path6" /><path
     id="path7"
     style="fill:#f44336;fill-opacity:1;stroke-width:0.0727587"
     d="m 22.874071,24.64502 c -1.345455,0 -2.457352,1.008262 -2.625966,2.308559 H 47.484996 C 47.316384,25.653282 46.204489,24.64502 44.859026,24.64502 Z" /><path
     style="fill:#798388;fill-opacity:1;stroke-width:0.0727587"
     d="m 22.518604,37.614595 h 6.608974 c 0.369208,0 0.66847,0.299269 0.66847,0.66847 0,0.369112 -0.29936,0.668236 -0.66847,0.668236 h -6.608974 c -0.369027,0 -0.668236,-0.299035 -0.668236,-0.668236 0,-0.369201 0.299209,-0.66847 0.668236,-0.66847 z"
     id="path8" /><path
     style="fill:#798388;fill-opacity:1;stroke-width:0.0727587"
     d="m 22.518604,35.236851 h 11.415648 c 0.369113,0 0.668237,0.299034 0.668237,0.668236 0,0.369201 -0.29903,0.668471 -0.668237,0.668471 H 22.518604 c -0.369026,0 -0.668236,-0.29927 -0.668236,-0.668471 0,-0.369202 0.29921,-0.668236 0.668236,-0.668236 z"
     id="path9" /><path
     style="fill:#798388;fill-opacity:1;stroke-width:0.0727587"
     d="m 28.799653,30.507307 h 0.66029 v 2.254802 h -0.66029 z"
     id="path10" /><path
     style="fill:#798388;fill-opacity:1;stroke-width:0.0727587"
     d="m 26.708931,30.507307 h 0.633176 v 1.68333 h 1.170057 v 0.571472 h -1.803233 z"
     id="path11" /><path
     id="path12"
     style="fill:#798388;fill-opacity:1;stroke-width:0.0727587"
     d="m 33.405086,30.44233 c -0.164238,0 -0.319368,0.03173 -0.465358,0.0956 -0.145991,0.06159 -0.273594,0.147144 -0.383085,0.256637 -0.10721,0.107209 -0.192764,0.233823 -0.256637,0.379813 -0.06159,0.143706 -0.09232,0.297847 -0.09232,0.462086 0,0.164236 0.03074,0.319367 0.09232,0.465358 0.06387,0.145987 0.149427,0.272601 0.256637,0.379813 0.109491,0.107208 0.237094,0.192532 0.383085,0.256402 0.14599,0.06159 0.30112,0.09256 0.465358,0.09256 0.164238,0 0.319368,-0.03097 0.465358,-0.09256 0.145988,-0.06387 0.2726,-0.149194 0.379813,-0.256402 0.109488,-0.107212 0.195046,-0.233826 0.256636,-0.379813 0.06387,-0.145991 0.09583,-0.301122 0.09583,-0.465358 0,-0.164239 -0.03196,-0.319369 -0.09583,-0.465358 -0.06159,-0.145991 -0.147148,-0.272602 -0.256636,-0.379813 -0.107213,-0.107212 -0.233825,-0.191775 -0.379813,-0.253365 -0.14599,-0.06387 -0.30112,-0.0956 -0.465358,-0.0956 z m 0,0.619153 c 0.07756,0 0.149584,0.01598 0.215733,0.04791 0.06844,0.02965 0.12646,0.07071 0.174364,0.123177 0.05019,0.05247 0.08903,0.114167 0.116398,0.184881 0.02737,0.06843 0.04114,0.141448 0.04114,0.219006 0,0.07756 -0.01377,0.151564 -0.04114,0.222278 -0.02737,0.06843 -0.06622,0.130135 -0.116398,0.184881 -0.0479,0.05247 -0.105929,0.09451 -0.174364,0.126448 -0.06615,0.02965 -0.138177,0.04464 -0.215733,0.04464 -0.07756,0 -0.150572,-0.01498 -0.219006,-0.04464 -0.06615,-0.03194 -0.124183,-0.07398 -0.174363,-0.126448 -0.0479,-0.05475 -0.08674,-0.116451 -0.116398,-0.184881 -0.02737,-0.07071 -0.04114,-0.144722 -0.04114,-0.222278 0,-0.07756 0.01377,-0.150575 0.04114,-0.219006 0.02966,-0.07071 0.06849,-0.132416 0.116398,-0.184881 0.05018,-0.05246 0.108211,-0.09352 0.174363,-0.123177 0.06843,-0.03194 0.14145,-0.04791 0.219006,-0.04791 z" /><path
     id="path13"
     style="fill:#798388;fill-opacity:1;stroke-width:0.0727587"
     d="m 25.302806,30.44233 c -0.164238,0 -0.319368,0.03173 -0.465358,0.0956 -0.14599,0.06159 -0.273827,0.147144 -0.383319,0.256637 -0.107209,0.107209 -0.192765,0.233823 -0.256636,0.379813 -0.06159,0.143706 -0.09232,0.297847 -0.09232,0.462086 0,0.164236 0.03073,0.319367 0.09232,0.465358 0.06387,0.145987 0.149427,0.272601 0.256636,0.379813 0.109492,0.107208 0.237329,0.192532 0.383319,0.256402 0.14599,0.06159 0.30112,0.09256 0.465358,0.09256 0.164237,0 0.31937,-0.03097 0.465358,-0.09256 0.14599,-0.06387 0.272368,-0.149194 0.379579,-0.256402 0.10949,-0.107212 0.195047,-0.233826 0.256636,-0.379813 0.06387,-0.145991 0.09583,-0.301122 0.09583,-0.465358 0,-0.164239 -0.03196,-0.319369 -0.09583,-0.465358 -0.06159,-0.145991 -0.147146,-0.272602 -0.256636,-0.379813 -0.107211,-0.107212 -0.233589,-0.191775 -0.379579,-0.253365 -0.145988,-0.06387 -0.301121,-0.0956 -0.465358,-0.0956 z m 0,0.619153 c 0.07756,0 0.149348,0.01598 0.2155,0.04791 0.06843,0.02965 0.12646,0.07071 0.174363,0.123177 0.05018,0.05247 0.08903,0.114167 0.116398,0.184881 0.02737,0.06843 0.04114,0.141448 0.04114,0.219006 0,0.07756 -0.01376,0.151564 -0.04114,0.222278 -0.02737,0.06843 -0.06622,0.130135 -0.116398,0.184881 -0.0479,0.05247 -0.10593,0.09451 -0.174363,0.126448 -0.06615,0.02965 -0.137945,0.04464 -0.2155,0.04464 -0.07756,0 -0.150573,-0.01498 -0.219006,-0.04464 -0.06615,-0.03194 -0.124415,-0.07398 -0.174597,-0.126448 -0.0479,-0.05475 -0.08675,-0.116451 -0.116398,-0.184881 -0.02737,-0.07071 -0.0409,-0.144722 -0.0409,-0.222278 0,-0.07756 0.01353,-0.150575 0.0409,-0.219006 0.02965,-0.07071 0.06849,-0.132416 0.116398,-0.184881 0.05018,-0.05246 0.108448,-0.09352 0.174597,-0.123177 0.06843,-0.03194 0.141449,-0.04791 0.219006,-0.04791 z" /><path
     style="fill:#798388;fill-opacity:1;stroke-width:0.0727587"
     d="m 29.771272,30.106926 h 2.275604 v 0.609103 l -0.04791,0.04791 H 31.26996 v 1.998165 h -0.721761 v -1.998165 h -0.729007 l -0.04791,-0.04791 z"
     id="path14" /><path
     id="path15"
     style="fill:#798388;fill-opacity:1;stroke-width:0.0727587"
     d="m 21.850368,30.106926 v 2.655183 h 0.71171 v -0.824603 h 0.48242 c 0.12774,0 0.249687,-0.02408 0.366023,-0.07199 0.118614,-0.05018 0.222367,-0.117309 0.311329,-0.20171 0.09124,-0.08668 0.163268,-0.187225 0.215734,-0.301279 0.05475,-0.114055 0.08204,-0.237227 0.08204,-0.369528 0,-0.130023 -0.02729,-0.249753 -0.08204,-0.359245 -0.05247,-0.109492 -0.12449,-0.202922 -0.215734,-0.280477 -0.08896,-0.07756 -0.192715,-0.138036 -0.311329,-0.181375 -0.116336,-0.04334 -0.238283,-0.06498 -0.366023,-0.06498 z m 0.728772,0.588534 h 0.413938 c 0.04106,0 0.0799,0.0079 0.116397,0.02384 0.0365,0.01369 0.06846,0.03433 0.09583,0.0617 0.02737,0.02509 0.04901,0.0546 0.06498,0.08882 0.01597,0.03422 0.02384,0.07207 0.02384,0.113125 0,0.04106 -0.0079,0.07868 -0.02384,0.112892 -0.01597,0.03422 -0.0376,0.06495 -0.06498,0.09232 -0.02737,0.02509 -0.05933,0.0455 -0.09583,0.06147 -0.03649,0.01369 -0.07534,0.02057 -0.116397,0.02057 H 22.57914 Z" /><path
     id="path17"
     style="fill:#5c6bc0;stroke-width:0.496961"
     d="m 40.918092,30.051244 c -1.646786,0 -2.981704,1.335151 -2.981704,2.981938 0,1.646781 1.334918,2.981704 2.981704,2.981704 1.646786,0 2.981703,-1.334923 2.981703,-2.981704 0,-1.646787 -1.334917,-2.981938 -2.981703,-2.981938 z m 0,6.957466 c -1.379913,0 -2.456991,0.109999 -3.264519,0.448529 -0.864588,0.362435 -1.394277,0.976891 -1.676785,1.870081 -0.104417,0.330131 0.142903,0.663328 0.485693,0.663328 h 8.90795 c 0.344194,0 0.593287,-0.33463 0.488033,-0.6666 -0.283368,-0.89324 -0.814986,-1.507422 -1.680995,-1.868912 -0.806816,-0.336791 -1.882292,-0.446426 -3.259377,-0.446426 z" /></svg>
