<?xml version="1.0" encoding="UTF-8" standalone="no"?>
<!-- Created with Inkscape (http://www.inkscape.org/) -->

<svg
   width="149.75414mm"
   height="149.75417mm"
   viewBox="0 0 149.75413 149.75416"
   version="1.1"
   id="svg1"
   xml:space="preserve"
   sodipodi:docname="template-matricole-a.svg"
   xmlns:inkscape="http://www.inkscape.org/namespaces/inkscape"
   xmlns:sodipodi="http://sodipodi.sourceforge.net/DTD/sodipodi-0.dtd"
   xmlns="http://www.w3.org/2000/svg"
   xmlns:svg="http://www.w3.org/2000/svg"><sodipodi:namedview
     id="namedview1"
     pagecolor="#ffffff"
     bordercolor="#999999"
     borderopacity="1"
     inkscape:showpageshadow="2"
     inkscape:pageopacity="0"
     inkscape:pagecheckerboard="0"
     inkscape:deskcolor="#d1d1d1"
     inkscape:document-units="mm"
     inkscape:zoom="0.9707102"
     inkscape:cx="425.46169"
     inkscape:cy="359.01549"
     inkscape:window-width="1920"
     inkscape:window-height="991"
     inkscape:window-x="-9"
     inkscape:window-y="-9"
     inkscape:window-maximized="1"
     inkscape:current-layer="svg1" /><defs
     id="defs1"><rect
       x="183.3709"
       y="418.25046"
       width="227.66837"
       height="90.655273"
       id="rect533" /><rect
       x="181.31055"
       y="66.961281"
       width="186.46143"
       height="74.172501"
       id="rect532" /><rect
       x="181.31055"
       y="66.961281"
       width="186.46143"
       height="74.172501"
       id="rect535" /><rect
       x="181.31055"
       y="66.961281"
       width="186.46143"
       height="74.172501"
       id="rect537" /></defs><path
     id="rect1-3"
     style="fill:#90caf9;fill-opacity:1;stroke-width:0.295148"
     d="M 0,0 H 149.75414 V 149.75416 H 0 Z" /><path
     id="path538"
     style="font-style:normal;font-variant:normal;font-weight:normal;font-stretch:normal;font-size:40px;line-height:1.25;font-family:PRIMETIME;-inkscape-font-specification:'PRIMETIME, Normal';font-variant-ligatures:normal;font-variant-caps:normal;font-variant-numeric:normal;font-variant-east-asian:normal;letter-spacing:0px;word-spacing:0px;white-space:pre;shape-inside:url(#rect535);fill:#000000;fill-opacity:0.31;stroke:none;stroke-width:0.760341"
     d="m 41.315824,19.999813 c -1.743696,0 -3.376262,0.334975 -4.896858,1.004073 h -5.17e-4 c -1.500198,0.648798 -2.817949,1.551215 -3.953247,2.706811 l -5.17e-4,5.17e-4 c -1.114998,1.135298 -1.996617,2.462822 -2.645317,3.98322 v 5.16e-4 c -0.648798,1.500298 -0.973583,3.101979 -0.973583,4.804875 v 5.17e-4 c 10e-5,1.702996 0.324785,3.314866 0.973583,4.835364 v 5.16e-4 c 0.52866,1.222401 1.220596,2.323967 2.05879,3.317627 0.0707,0.08838 0.14967,0.170705 0.222725,0.257349 0.07184,0.08985 0.152073,0.173429 0.226343,0.261483 0.07157,0.08947 0.151329,0.172759 0.225309,0.260449 0.07063,0.08829 0.149745,0.17028 0.222725,0.256832 0.0719,0.08992 0.152002,0.173875 0.226343,0.261999 0.07122,0.08903 0.151188,0.171637 0.224793,0.258899 0.0713,0.08913 0.151098,0.172054 0.224792,0.259416 0.07155,0.08945 0.151346,0.172782 0.225309,0.260449 0.06973,0.08715 0.147607,0.168268 0.219625,0.253731 0.0725,0.09073 0.153427,0.175167 0.22841,0.264067 0.07132,0.08917 0.151078,0.17202 0.224793,0.259416 0.07132,0.08916 0.151077,0.172024 0.224792,0.259415 0.0717,0.08964 0.151706,0.173115 0.225826,0.260966 0.07048,0.0881 0.149384,0.169946 0.222209,0.256315 0.07182,0.08982 0.152088,0.173455 0.226342,0.261483 0.07131,0.08914 0.151092,0.172049 0.224793,0.259416 0.0713,0.08914 0.151097,0.172047 0.224792,0.259416 0.07087,0.08859 0.150011,0.171019 0.223243,0.257865 0.07095,0.08873 0.149919,0.1714 0.223242,0.258382 0.0722,0.09031 0.152724,0.17454 0.227376,0.263033 0.0713,0.08912 0.151098,0.17206 0.224793,0.259416 0.07122,0.08902 0.151183,0.171637 0.224792,0.258899 0.07155,0.08945 0.151345,0.172782 0.225309,0.260449 0.07042,0.08801 0.148943,0.17003 0.221692,0.256315 0.07189,0.0899 0.152536,0.173378 0.22686,0.261483 0.0707,0.08838 0.14967,0.170708 0.222725,0.257348 0.07184,0.08985 0.152071,0.173427 0.226343,0.261483 0.07157,0.08948 0.151332,0.172756 0.225309,0.260449 0.07063,0.08829 0.149748,0.170278 0.222726,0.256832 0.0719,0.08992 0.152004,0.173878 0.226342,0.262 0.0713,0.08913 0.151098,0.172058 0.224793,0.259415 0.07122,0.08903 0.151183,0.171638 0.224792,0.258899 0.07131,0.08914 0.151093,0.172047 0.224793,0.259416 0.06996,0.08745 0.147876,0.169013 0.220141,0.254765 0.0725,0.09073 0.153427,0.17517 0.22841,0.264066 0.07132,0.08917 0.151078,0.17202 0.224793,0.259416 0.07145,0.08933 0.151455,0.17238 0.225309,0.259933 0.07155,0.08945 0.151348,0.172782 0.225309,0.260449 0.07048,0.0881 0.149387,0.169947 0.222209,0.256315 0.0719,0.08992 0.152004,0.173876 0.226343,0.261999 0.07122,0.08903 0.151183,0.171637 0.224792,0.258899 0.07131,0.08914 0.151091,0.172045 0.224793,0.259416 0.0707,0.08838 0.149672,0.170709 0.222725,0.257349 0.0711,0.08892 0.150278,0.171735 0.223759,0.258899 0.07198,0.09004 0.152433,0.173759 0.22686,0.261999 0.07153,0.08943 0.151369,0.1728 0.225309,0.260449 0.07122,0.08903 0.151183,0.171637 0.224792,0.258899 0.0713,0.08913 0.151096,0.172052 0.224793,0.259416 0.07064,0.08831 0.149216,0.170773 0.222208,0.257349 0.07189,0.08991 0.152539,0.173373 0.22686,0.261482 0.0707,0.08838 0.149673,0.170705 0.222725,0.257349 0.07184,0.08985 0.152072,0.17343 0.226343,0.261483 0.07132,0.08916 0.151079,0.172025 0.224793,0.259415 0.07086,0.08859 0.150016,0.17102 0.223242,0.257866 0.0719,0.08992 0.152001,0.173875 0.226343,0.261999 0.0713,0.08913 0.151097,0.172055 0.224792,0.259416 0.07122,0.08902 0.151184,0.17164 0.224793,0.258899 0.0713,0.08913 0.151095,0.172049 0.224792,0.259416 0.06996,0.08746 0.147874,0.169011 0.220142,0.254764 0.0725,0.09073 0.15343,0.175167 0.228409,0.264067 0.07132,0.08916 0.15108,0.172022 0.224793,0.259416 0.07132,0.08916 0.15108,0.172023 0.224792,0.259415 0.07145,0.08933 0.151457,0.172382 0.22531,0.259933 0.07071,0.0884 0.149655,0.170687 0.222725,0.257349 0.07191,0.08993 0.152002,0.173872 0.226343,0.261999 0.07122,0.08902 0.151183,0.17164 0.224792,0.258899 0.07131,0.08914 0.151092,0.172044 0.224793,0.259416 0.0707,0.08838 0.14967,0.170704 0.222725,0.257348 0.07209,0.09016 0.152321,0.17416 0.22686,0.262517 0.07035,0.08793 0.14901,0.169585 0.221692,0.255798 0.07219,0.09031 0.152726,0.174542 0.227376,0.263033 0.07122,0.08903 0.151187,0.171637 0.224792,0.258899 0.0713,0.08913 0.151096,0.172049 0.224793,0.259416 0.07155,0.08945 0.151345,0.17278 0.225309,0.260449 0.07042,0.08801 0.14894,0.17003 0.221692,0.256315 0.07128,0.08915 0.151115,0.172033 0.224793,0.259416 0.07184,0.08985 0.152071,0.173427 0.226342,0.261482 0.07145,0.08933 0.151455,0.172378 0.22531,0.259933 0.07117,0.08897 0.150718,0.171692 0.224275,0.258899 0.07086,0.08859 0.150016,0.17102 0.223242,0.257865 0.07191,0.08992 0.152,0.173875 0.226343,0.262 0.0713,0.08913 0.1511,0.172056 0.224793,0.259415 0.07122,0.08903 0.151186,0.171635 0.224792,0.258899 0.07156,0.08945 0.151344,0.172783 0.225309,0.260449 0.06973,0.08715 0.147605,0.168268 0.219625,0.253732 0.0725,0.09073 0.153427,0.175166 0.22841,0.264066 0.07153,0.08943 0.151369,0.172799 0.225309,0.260449 0.07122,0.08902 0.151184,0.171641 0.224793,0.258899 0.0713,0.08913 0.151095,0.17205 0.224792,0.259416 0.07072,0.0884 0.149653,0.170688 0.222726,0.257349 0.07183,0.08982 0.152085,0.173453 0.226343,0.261482 0.0713,0.08914 0.151093,0.172043 0.224792,0.259416 0.0707,0.08838 0.149673,0.170707 0.222725,0.257349 0.07209,0.09016 0.152323,0.174162 0.22686,0.262516 0.07063,0.08829 0.149745,0.170277 0.222725,0.256832 0.07191,0.08993 0.152002,0.173874 0.226343,0.261999 0.0713,0.08912 0.151098,0.17206 0.224793,0.259416 0.07122,0.08903 0.151183,0.171637 0.224792,0.258899 0.0713,0.08914 0.151096,0.172049 0.224793,0.259416 0.07065,0.08831 0.149212,0.17077 0.222208,0.257348 0.07129,0.08915 0.151113,0.172032 0.224793,0.259416 0.07184,0.08985 0.152069,0.17343 0.226343,0.261483 0.07132,0.08916 0.15108,0.172019 0.224792,0.259416 0.0717,0.08964 0.151709,0.173114 0.225826,0.260966 0.07048,0.0881 0.149384,0.169942 0.222209,0.256315 0.0719,0.08992 0.152002,0.173877 0.226342,0.261999 0.0713,0.08913 0.151098,0.172057 0.224793,0.259416 0.07122,0.08903 0.151183,0.171637 0.224792,0.258899 0.0713,0.08914 0.151093,0.172045 0.224793,0.259415 0.06996,0.08746 0.147877,0.169013 0.220141,0.254765 0.07251,0.09073 0.153425,0.17517 0.22841,0.264067 0.07153,0.08943 0.151367,0.172799 0.22531,0.260449 0.07122,0.08903 0.151181,0.171635 0.224792,0.258899 0.07155,0.08945 0.151348,0.17278 0.225309,0.260449 0.07048,0.0881 0.149386,0.169948 0.222209,0.256315 0.07182,0.08982 0.152087,0.173455 0.226343,0.261483 0.07131,0.08914 0.151091,0.172044 0.224792,0.259416 0.0707,0.08839 0.14967,0.170702 0.222726,0.257348 0.07184,0.08985 0.152073,0.173432 0.226342,0.261483 0.07058,0.08824 0.149284,0.170328 0.222209,0.256832 0.0722,0.09031 0.152722,0.174539 0.227376,0.263033 0.0713,0.08913 0.151096,0.172055 0.224793,0.259416 0.07122,0.08903 0.151181,0.171635 0.224792,0.258899 0.0713,0.08913 0.151094,0.172052 0.224793,0.259415 0.07064,0.08831 0.149217,0.170773 0.222208,0.257349 0.07128,0.08915 0.151115,0.172031 0.224793,0.259416 0.07184,0.08985 0.152071,0.173424 0.226343,0.261482 0.07132,0.08916 0.151077,0.172023 0.224792,0.259416 0.07145,0.08933 0.151457,0.172384 0.225309,0.259933 0.07071,0.0884 0.149655,0.170687 0.222726,0.257348 0.07191,0.08993 0.152,0.173873 0.226343,0.262 0.0713,0.08913 0.151095,0.172055 0.224792,0.259415 0.07122,0.08902 0.151181,0.17164 0.224793,0.258899 0.07131,0.08914 0.15109,0.172047 0.224792,0.259416 0.0707,0.08838 0.149671,0.170704 0.222725,0.257349 0.0711,0.08893 0.150282,0.17173 0.223759,0.258899 0.07199,0.09004 0.152433,0.173761 0.22686,0.261999 0.07145,0.08933 0.151455,0.172382 0.225309,0.259933 0.0713,0.08913 0.151096,0.172049 0.224793,0.259415 0.07155,0.08945 0.151345,0.172781 0.225309,0.260449 0.07041,0.08801 0.148942,0.170028 0.221692,0.256316 0.07189,0.08991 0.152534,0.173375 0.226859,0.261482 0.0707,0.08838 0.149668,0.170704 0.222726,0.257349 0.07184,0.08985 0.152071,0.173427 0.226343,0.261483 0.07145,0.08933 0.151454,0.172379 0.225309,0.259932 0.07072,0.0884 0.149653,0.17069 0.222725,0.257349 0.0719,0.08992 0.152002,0.173874 0.226343,0.261999 0.07122,0.08903 0.151185,0.171635 0.224792,0.258899 0.0713,0.08914 0.151096,0.172047 0.224793,0.259416 0.07155,0.08945 0.151343,0.172777 0.225309,0.260449 0.06973,0.08715 0.147605,0.16827 0.219625,0.253731 0.07251,0.09073 0.153425,0.175167 0.22841,0.264067 0.07132,0.08917 0.151075,0.172017 0.224792,0.259416 0.07145,0.08933 0.151455,0.172379 0.22531,0.259932 0.0713,0.08913 0.151093,0.172052 0.224792,0.259416 0.07072,0.0884 0.149653,0.170687 0.222726,0.257348 0.0719,0.08993 0.152004,0.173873 0.226342,0.262 0.07122,0.08903 0.151184,0.171635 0.224793,0.258899 0.0707,0.08838 0.149672,0.170705 0.222725,0.257348 0.07209,0.09016 0.152323,0.174165 0.22686,0.262517 0.07035,0.08794 0.149012,0.16958 0.221692,0.255798 0.0722,0.09031 0.152722,0.174537 0.227376,0.263033 0.07122,0.08903 0.151181,0.171635 0.224792,0.258899 0.0713,0.08913 0.151094,0.172052 0.224793,0.259416 0.07131,0.08913 0.151093,0.17205 0.224792,0.259415 0.07065,0.08831 0.149212,0.170771 0.222209,0.257349 0.07129,0.08915 0.151113,0.172031 0.224793,0.259416 0.07184,0.08986 0.152073,0.173424 0.226342,0.261483 0.07132,0.08916 0.151078,0.172021 0.224793,0.259415 0.07157,0.08948 0.151329,0.172754 0.225309,0.260449 0.07063,0.08829 0.149746,0.170276 0.222725,0.256832 0.07191,0.08993 0.152002,0.173873 0.226343,0.262 0.0713,0.08912 0.151096,0.17206 0.224793,0.259415 0.07122,0.08903 0.151181,0.171638 0.224792,0.258899 0.0713,0.08914 0.151093,0.172048 0.224793,0.259416 0.06996,0.08746 0.147874,0.169008 0.220141,0.254765 0.07251,0.09073 0.153424,0.175165 0.22841,0.264066 0.07132,0.08917 0.151075,0.172022 0.224793,0.259416 0.07145,0.08933 0.151454,0.172378 0.225309,0.259933 0.07155,0.08945 0.151345,0.17278 0.225309,0.260449 0.07049,0.0881 0.149384,0.169942 0.222209,0.256315 0.0719,0.08992 0.152002,0.173878 0.226342,0.261999 0.07122,0.08903 0.151182,0.171635 0.224793,0.258899 0.0707,0.08839 0.149668,0.170703 0.222725,0.257349 0.07184,0.08985 0.152071,0.173427 0.226343,0.261483 0.07058,0.08824 0.149282,0.170323 0.222209,0.256832 0.07199,0.09004 0.15243,0.173761 0.226859,0.261999 0.07153,0.08943 0.151367,0.172798 0.22531,0.260449 0.07122,0.08903 0.151181,0.171635 0.224792,0.258899 0.0713,0.08914 0.151096,0.172047 0.224793,0.259416 0.07071,0.0884 0.149655,0.17069 0.222725,0.257349 0.07182,0.08983 0.152087,0.173452 0.226343,0.261482 0.0707,0.08839 0.149668,0.170703 0.222725,0.257349 0.07184,0.08986 0.152069,0.173425 0.226343,0.261483 0.07145,0.08933 0.151454,0.172379 0.225309,0.259932 0.07156,0.08945 0.151344,0.172786 0.225309,0.260449 0.07049,0.0881 0.149382,0.169943 0.222209,0.256316 0.07191,0.08993 0.152,0.173872 0.226343,0.261999 0.07122,0.08903 0.151181,0.171635 0.224792,0.258899 0.07131,0.08913 0.151091,0.172052 0.224793,0.259416 0.06996,0.08746 0.147879,0.169012 0.220141,0.254764 0.0725,0.09073 0.153427,0.175165 0.22841,0.264067 0.07132,0.08917 0.151078,0.172017 0.224793,0.259416 0.07145,0.08933 0.151452,0.172377 0.225309,0.259932 0.0713,0.08914 0.151094,0.172047 0.224792,0.259416 0.07156,0.08945 0.151343,0.17278 0.22531,0.260449 0.07049,0.0881 0.149381,0.169943 0.222208,0.256315 0.07183,0.08983 0.152086,0.173452 0.226343,0.261483 0.07131,0.08914 0.151089,0.172047 0.224793,0.259416 0.0707,0.08838 0.14967,0.170704 0.222725,0.257348 0.07085,0.08862 0.150023,0.170997 0.223242,0.257866 0.07242,0.09061 0.152996,0.175279 0.227893,0.264066 0.0713,0.08913 0.151098,0.172055 0.224793,0.259416 0.07122,0.08903 0.151181,0.171635 0.224792,0.258899 0.0713,0.08914 0.151094,0.172047 0.224793,0.259416 0.07156,0.08945 0.151343,0.17278 0.225309,0.260449 0.07042,0.08801 0.148938,0.170025 0.221692,0.256315 0.07129,0.08915 0.151113,0.172034 0.224792,0.259416 0.07184,0.08985 0.152069,0.173424 0.226343,0.261482 0.07132,0.08917 0.151075,0.172017 0.224793,0.259416 0.07054,0.08819 0.149323,0.17037 0.222208,0.256832 0.07219,0.09031 0.152724,0.174537 0.227377,0.263033 0.0713,0.08913 0.151097,0.172055 0.224792,0.259416 0.07122,0.08903 0.151181,0.171634 0.224793,0.258899 0.0713,0.08914 0.151093,0.172046 0.224792,0.259415 0.07156,0.08945 0.15134,0.172778 0.225309,0.260449 0.06952,0.08688 0.147311,0.167508 0.219108,0.252698 0.07355,0.09206 0.155407,0.178023 0.231511,0.268201 0.06995,0.08738 0.148403,0.168569 0.220658,0.25425 0.07197,0.09 0.152447,0.17378 0.22686,0.262 0.07117,0.089 0.150716,0.17171 0.224275,0.2589 0.07079,0.0885 0.149571,0.17109 0.222726,0.25786 0.07176,0.0897 0.152158,0.17304 0.226343,0.26097 0.07097,0.0887 0.150411,0.17138 0.223759,0.25838 0.07169,0.0896 0.151709,0.17312 0.225826,0.26097 0.07145,0.0893 0.151454,0.17236 0.225309,0.25993 0.07044,0.088 0.14892,0.17002 0.221692,0.25631 0.0728,0.0911 0.154142,0.17587 0.229443,0.2651 0.06995,0.0874 0.148405,0.16855 0.220658,0.25425 0.07218,0.0903 0.152738,0.17455 0.227377,0.26303 0.07047,0.0881 0.149401,0.16996 0.222208,0.25632 0.07207,0.0901 0.152343,0.17417 0.22686,0.26252 0.07047,0.0881 0.149396,0.16994 0.222209,0.25631 0.07265,0.0909 0.153783,0.17553 0.228926,0.26458 0.06995,0.0874 0.148407,0.16855 0.220659,0.25425 0.07218,0.0903 0.15274,0.17456 0.227376,0.26304 0.07049,0.0881 0.149382,0.16992 0.222208,0.25631 0.0717,0.0896 0.151709,0.17312 0.225826,0.26097 0.07145,0.0893 0.151453,0.17236 0.22531,0.25993 0.07118,0.089 0.150712,0.17171 0.224275,0.2589 0.07085,0.0886 0.150034,0.17102 0.223243,0.25786 0.0711,0.0889 0.150276,0.17177 0.223759,0.2589 0.0722,0.0903 0.152719,0.17453 0.227376,0.26304 0.07109,0.0888 0.150801,0.1713 0.224276,0.25838 0.07145,0.0893 0.151454,0.17236 0.225309,0.25993 0.07118,0.0889 0.150713,0.17172 0.224276,0.2589 0.07079,0.0885 0.149573,0.17109 0.222725,0.25786 0.07129,0.0891 0.151114,0.17207 0.224792,0.25942 0.07205,0.0901 0.152361,0.17419 0.22686,0.26252 0.07109,0.0889 0.150806,0.17129 0.224276,0.25838 0.07214,0.0902 0.152789,0.17412 0.227376,0.26251 0.07012,0.0876 0.148743,0.16886 0.221175,0.25477 0.07192,0.09 0.151982,0.17384 0.226343,0.262 0.06992,0.0874 0.148438,0.16855 0.220658,0.25425 0.07326,0.0917 0.154682,0.17735 0.230477,0.26716 0.06995,0.0874 0.148407,0.16855 0.220659,0.25425 0.07207,0.0902 0.152342,0.17417 0.226859,0.26252 0.07047,0.0881 0.149399,0.16995 0.222209,0.25631 0.07266,0.0909 0.153781,0.17553 0.228926,0.26459 0.07008,0.0876 0.148784,0.1689 0.221175,0.25476 0.0717,0.0896 0.151711,0.17313 0.225826,0.26097 0.0717,0.0896 0.151706,0.1731 0.225826,0.26096 0.07021,0.0877 0.148649,0.16928 0.221176,0.25529 0.0722,0.0903 0.152721,0.17452 0.227376,0.26303 0.07125,0.089 0.151154,0.17164 0.224792,0.2589 0.0707,0.0884 0.149673,0.17069 0.222726,0.25735 0.0394,0.0493 0.08286,0.0954 0.12299,0.14417 v 5.76244 L 93.94,117.97419 h -0.128674 l -0.09612,-0.26044 h -0.128674 l -0.0956,-0.2589 H 93.36226 l -0.09612,-0.25994 h -0.129191 l -0.0956,-0.2589 h -0.128674 l -0.09612,-0.25993 h -0.129191 l -0.0956,-0.2589 H 92.46309 l -0.09612,-0.25941 h -0.128158 l -0.09612,-0.25993 h -0.129191 l -0.0956,-0.2589 H 91.789229 L 91.693111,115.379 H 91.56392 l -0.0956,-0.2589 h -0.128158 l -0.09612,-0.25993 h -0.128674 l -0.09612,-0.25941 h -0.128674 l -0.09612,-0.25994 h -0.129191 l -0.0956,-0.25889 h -0.128675 l -0.09612,-0.25994 h -0.129191 l -0.0956,-0.2589 h -0.128158 l -0.09612,-0.25993 h -0.128674 l -0.09612,-0.25941 h -0.128674 l -0.09612,-0.25994 H 89.31702 l -0.0956,-0.2589 h -0.128674 l -0.09612,-0.25993 h -0.128674 l -0.0956,-0.2589 h -0.128674 l -0.09612,-0.25993 h -0.129191 l -0.0956,-0.2589 H 88.1941 l -0.09612,-0.26045 h -0.129191 l -0.0956,-0.2589 h -0.128674 l -0.0956,-0.2589 H 87.52024 l -0.09612,-0.25993 h -0.12919 l -0.0956,-0.2589 h -0.128675 l -0.09612,-0.25993 h -0.128674 l -0.09612,-0.25941 h -0.128675 l -0.09612,-0.25994 h -0.128674 l -0.0956,-0.2589 h -0.128674 l -0.09612,-0.25993 h -0.128674 l -0.09612,-0.2589 H 85.72241 l -0.09612,-0.25993 h -0.128674 l -0.0956,-0.25942 h -0.128674 l -0.09612,-0.25993 h -0.129191 l -0.0956,-0.2589 h -0.128674 l -0.09612,-0.25993 h -0.128674 l -0.09612,-0.2589 h -0.128674 l -0.09612,-0.25993 h -0.128158 l -0.09612,-0.25942 H 83.92458 l -0.0036,-0.01 -0.09198,-0.25011 h -0.129191 l -0.0217,-0.0589 -0.0739,-0.19999 h -0.128674 l -0.04082,-0.11007 -0.05529,-0.14986 H 83.25075 l -0.05891,-0.15916 -0.03669,-0.0997 h -0.128674 l -0.07803,-0.21032 -0.01809,-0.0496 h -0.128675 l -0.09612,-0.25942 h -5.895247 l -2.494938,6.74636 h -0.0067 v -0.2589 H 74.08385 v -0.26045 h -0.224792 v -0.2589 h -0.224276 v -0.2589 h -0.224793 v -0.002 -0.25787 h -0.224792 v -0.014 -0.24495 h -0.224793 v -0.0274 -0.23254 h -0.224792 v -0.0382 -0.22117 h -0.224276 v -0.0506 -0.20929 h -0.224792 v -0.063 -0.19586 h -0.224793 v -0.076 -0.18397 h -0.224792 v -0.0868 -0.17208 h -0.224793 v -0.10025 -0.15968 h -0.224275 v -0.11214 -0.14728 h -0.224793 v -0.12505 -0.13488 h -0.224792 v -0.13591 -0.12299 h -0.224793 v -0.14883 -0.1111 h -0.224792 v -0.16123 -0.0977 h -0.224276 v -0.17415 -0.0858 h -0.224792 v -0.185 -0.0744 H 69.81486 v -0.19792 -0.062 h -0.224792 v -0.20981 -0.0491 h -0.224793 v -0.22272 -0.0372 h -0.224276 v -0.23409 -0.0248 h -0.224792 v -0.24701 -0.0129 h -0.224793 v -0.25942 H 49.522559 l -0.513664,0.51522 -0.0016,10e-4 v 24.48378 h 0.224792 v 0.21135 0.0481 h 0.224793 v 0.16175 0.0982 h 0.224275 v 0.11265 0.14624 h 0.224793 v 0.0641 0.19586 h 0.224792 v 0.015 0.24392 h 0.224793 v 0.25993 h 0.224275 v 0.25941 h 0.224793 v 0.25994 h 0.224792 v 0.25889 h 0.224793 v 0.25994 h 0.224792 v 0.2589 h 0.224793 v 0.25993 h 0.224276 v 0.25941 h 0.224792 v 0.25994 h 0.224792 v 0.2589 h 0.224793 v 0.25993 H 52.8267 v 0.2589 h 0.224792 v 0.25993 h 0.224793 v 0.2589 h 0.224792 v 0.26045 h 0.224793 v 0.2589 h 0.224792 v 0.25993 h 0.224276 v 0.2589 h 0.224792 v 0.2589 h 0.224793 v 0.25993 h 0.224792 v 0.25942 h 0.224793 v 0.25993 h 0.224275 v 0.2589 h 0.224793 v 0.25993 h 0.224792 v 0.2589 h 0.224793 v 0.25993 h 0.224792 v 0.25942 h 0.224276 v 0.25993 h 0.224793 v 0.2589 h 0.224792 v 0.25993 h 0.224793 v 0.2589 h 0.224792 v 0.25993 h 0.224792 v 0.25942 h 0.224276 v 0.25993 h 0.224793 v 0.2589 h 0.224792 v 0.25993 h 0.224793 v 0.2589 h 0.224275 v 0.25993 h 0.224793 v 0.25942 h 0.224792 v 0.2589 h 0.224793 v 0.25993 h 0.224792 v 0.2589 h 0.224793 v 0.25993 h 0.224275 v 0.2589 h 0.224793 v 0.26045 h 0.224792 v 0.2589 h 0.224793 v 0.25993 h 0.224276 v 0.2589 h 0.224792 v 0.25993 h 0.224793 v 0.2589 h 0.224792 v 0.26045 h 0.224793 v 0.2589 h 0.224792 v 0.25993 H 62.2639 v 0.2589 h 0.224792 v 0.25993 h 0.224793 v 0.2589 h 0.224792 v 0.26045 h 0.224276 v 0.2589 h 0.224792 v 0.25993 h 0.224793 v 0.2589 h 0.224792 v 0.25993 h 0.224793 v 0.2589 h 0.224792 v 0.25942 h 0.224276 v 0.25993 h 0.224792 v 0.2589 h 0.224793 v 0.25993 h 0.224792 v 0.2589 h 0.224276 v 0.25993 h 0.224793 v 0.25942 h 0.224792 v 0.25993 h 0.224793 v 0.2589 h 0.224792 v 0.25993 h 0.224793 v 0.2589 h 0.224275 v 0.25993 h 0.224793 v 0.25942 h 0.224792 v 0.25993 h 0.224793 v 0.2589 h 0.224792 v 0.25993 h 0.224276 v 0.2589 h 0.224792 v 0.25993 h 0.224793 v 0.25942 h 0.224792 v 0.25993 h 0.224793 v 0.2589 h 0.224276 v 0.2589 h 0.224792 v 0.25993 h 0.224793 v 0.2589 h 0.224792 v 0.25993 h 0.224792 v 0.25942 h 0.224276 v 0.25993 h 0.224793 v 0.2589 h 0.224792 v 0.25993 h 0.224793 v 0.2589 h 0.224792 v 0.25994 h 0.224276 v 0.25941 h 0.224792 v 0.25993 h 0.224793 v 0.2589 h 0.224792 v 0.25994 h 0.224793 v 0.25889 h 0.224275 v 0.25994 h 0.224793 v 0.25941 h 0.224792 v 0.25993 h 0.224793 v 0.2589 h 0.224792 v 0.25994 h 0.224276 v 0.2589 h 0.224793 v 0.25993 h 0.224792 v 0.25941 h 0.224793 v 0.2589 h 0.224792 v 0.25993 h 0.224793 v 0.2589 h 0.224275 v 0.25994 h 0.224793 v 0.25889 h 0.224792 v 0.26045 h 0.224793 v 0.2589 h 0.224275 v 0.25994 h 0.224793 v 0.25889 h 0.224792 v 0.25994 h 0.224793 v 0.2589 h 0.224792 v 0.26045 h 0.224793 v 0.25889 h 0.224276 v 0.25994 h 0.224792 v 0.2589 h 0.224792 v 0.25993 h 0.224793 v 0.2589 h 0.224792 v 0.26045 h 0.224276 v 0.25889 h 0.224793 v 0.25994 h 0.224792 v 0.2589 h 0.224793 v 0.25993 h 0.224792 v 0.2589 h 0.224276 v 0.25941 h 0.224792 v 0.25994 h 0.224793 v 0.25889 h 0.224792 v 0.25994 h 0.224793 v 0.2589 h 0.224275 v 0.25993 h 0.224793 v 0.25941 h 0.224792 v 0.25994 H 81.1382 v 0.2589 h 0.224792 v 0.25993 h 0.224276 v 0.2589 h 0.224793 v 0.25993 h 0.224792 v 0.25942 h 0.224793 v 0.25993 h 0.224792 v 0.2589 h 0.224276 v 0.25993 h 0.224792 v 0.2589 h 0.224793 v 0.25993 h 0.224792 v 0.25942 h 0.224793 v 0.25993 h 0.224275 v 0.2589 h 0.224793 v 0.2589 h 0.224792 v 0.25993 h 0.224793 v 0.2589 h 0.224792 v 0.26045 h 0.224276 v 0.2589 h 0.224792 v 0.25993 h 0.224793 v 0.2589 h 0.224792 v 0.25993 h 0.224793 v 0.2589 h 0.224276 v 0.26045 h 0.224792 v 0.2589 h 0.224793 v 0.25993 h 0.224792 v 0.2589 h 0.224793 v 0.25993 h 0.224275 v 0.2589 h 0.224793 v 0.25993 h 0.224792 v 0.25942 h 0.224793 v 0.25993 h 0.224792 v 0.2589 h 0.224276 v 0.25993 h 0.224792 v 0.2589 h 0.224793 v 0.25993 h 0.224792 v 0.25942 h 0.224793 v 0.2589 h 0.224792 v 0.25993 h 0.224276 v 0.2589 h 0.224792 v 0.25993 h 0.224793 v 0.25942 h 0.224792 v 0.25993 h 0.224793 v 0.2589 h 0.224276 v 0.25993 h 0.224792 v 0.2589 h 0.224793 v 0.25993 h 0.224792 v 0.2589 h 0.224793 v 0.26045 h 0.224275 v 0.2589 h 0.224793 v 0.25993 h 0.224792 v 0.2589 h 0.224793 v 0.25993 h 0.224792 v 0.2589 h 0.224276 v 0.26045 h 0.224792 v 0.2589 h 0.224793 v 0.25993 h 0.224792 v 0.2589 h 0.224793 v 0.2589 h 0.224276 v 0.25993 h 0.224792 v 0.25942 h 0.224793 v 0.25993 h 0.224792 v 0.2589 h 0.224792 v 0.25993 h 0.224276 v 0.2589 h 0.224793 v 0.25993 h 0.224792 v 0.25942 h 0.224793 v 0.25993 h 0.224792 v 0.2589 h 0.224276 v 0.25993 h 0.224792 v 0.2589 h 0.224793 v 0.25993 h 0.224792 v 0.25942 h 0.224793 v 0.25993 h 0.224275 v 0.2589 h 0.224793 v 0.25993 h 0.224792 v 0.2589 h 0.224793 v 0.25994 h 0.224792 v 0.25941 h 0.224276 v 0.25993 h 0.224793 v 0.2589 h 0.224792 v 0.2589 h 0.224793 v 0.25993 h 0.224792 v 0.2589 h 0.224276 v 0.26045 h 0.224789 v 0.2589 h 0.2248 v 0.25993 h 0.2253 v 0.2589 h 0.22376 v 0.25994 h 0.22531 v 0.25889 h 0.2248 v 0.26045 h 0.22427 v 0.2589 h 0.22479 v 0.25993 h 0.2248 v 0.2589 h 0.22427 v 0.25994 h 0.22479 v 0.25889 h 0.22531 v 0.26045 h 0.22376 v 0.2589 h 0.22531 v 0.25994 h 0.22479 v 0.25889 h 0.22376 v 0.25994 h 0.22531 v 0.2589 h 0.2248 v 0.25941 h 0.2253 v 0.25993 h 0.22376 v 0.2589 h 0.2248 v 0.25994 h 0.22531 v 0.25889 h 0.22375 v 0.25994 h 0.22531 v 0.25941 h 0.2248 v 0.25993 h 0.22427 v 0.2589 h 0.22479 v 0.25994 h 0.2248 v 0.2589 h 0.22427 v 0.25993 h 0.22479 v 0.25941 h 0.22531 v 0.25994 h 0.2248 v 0.25889 h 0.22427 v 0.25994 h 0.22479 v 0.2589 h 0.2248 v 0.25993 h 0.22427 v 0.2589 h 0.2248 v 0.26045 h 0.2253 v 0.2589 h 0.22376 v 0.25993 h 0.2248 v 0.2589 h 0.22531 v 0.2589 h 0.22375 v 0.25993 h 0.22531 v 0.25941 h 0.2248 v 0.25994 h 0.22531 v 0.2589 h 0.22375 v 0.25993 h 0.2248 v 0.2589 h 0.22531 v 0.25993 h 0.22375 v 0.25941 h 0.22531 v 0.25994 h 0.2248 v 0.2589 h 0.22427 v 0.25993 h 0.22479 v 0.2589 h 0.2248 v 0.25993 h 0.22427 v 0.25942 h 0.2248 v 0.25993 h 0.2253 v 0.2589 h 0.2248 v 0.25993 h 0.22376 v 0.2589 h 0.22531 v 0.25993 h 0.22479 v 0.25942 h 0.22427 v 0.25993 h 0.2248 v 0.2589 h 0.22531 v 0.2589 h 0.22375 v 0.25993 h 0.2248 v 0.2589 h 0.22531 v 0.26045 h 0.22375 v 0.2589 h 0.22531 v 0.25993 h 0.2248 v 0.2589 h 0.22427 v 0.25993 h 0.22479 v 0.2589 h 0.2248 v 0.26045 h 0.22531 v 0.2589 h 0.22376 v 0.25993 h 0.2253 v 0.2589 h 0.2248 v 0.25993 h 0.22427 v 0.2589 h 0.2248 v 0.26045 h 0.22479 v 0.2589 h 0.22427 v 0.25993 h 0.2248 v 0.2589 h 0.22531 v 0.25993 h 0.22375 v 0.2589 h 0.2248 v 0.25942 h 0.22531 v 0.25993 h 0.22479 v 0.2589 h 0.22427 v 0.25993 h 0.2248 v 0.2589 h 0.22531 v 0.25993 h 0.22375 v 0.25942 h 0.2248 v 0.25993 h 0.22531 v 0.2589 h 0.22376 v 0.25993 h 0.2253 v 0.2589 h 0.2248 v 0.25993 h 0.22427 v 0.25942 h 0.2248 v 0.25993 h 0.22479 v 0.2589 h 0.22531 V 214.59 h 0.22376 v 0.2589 h 0.22531 v 0.25993 h 0.22479 v 0.25942 h 0.22376 v 0.25993 h 0.22531 v 0.2589 h 0.22479 v 0.25993 h 0.22427 v 0.2589 h 0.2248 v 0.2589 h 0.22531 v 0.25993 h 0.22375 v 0.25942 h 0.2248 v 0.25993 h 0.22531 v 0.2589 h 0.22479 v 0.25993 h 0.22427 v 0.2589 h 0.2248 v 0.25993 h 0.22479 v 0.25942 h 0.22428 v 0.25993 h 0.22479 v 0.2589 h 0.22531 v 0.25993 h 0.22376 v 0.2589 h 0.22531 v 0.25994 h 0.22479 v 0.25941 h 0.22376 v 0.25993 h 0.22531 v 0.2589 h 0.22479 v 0.25993 h 0.22427 v 0.2589 h 0.2248 v 0.25994 h 0.22531 v 0.25941 h 0.22479 v 0.2589 h 0.22376 v 0.25993 h 0.22531 v 0.2589 h 0.22479 v 0.25993 h 0.22427 v 0.2589 h 0.2248 v 0.26045 h 0.22531 v 0.2589 h 0.22376 v 0.25993 h 0.22479 v 0.2589 h 0.22531 v 0.25994 h 0.22376 v 0.25889 h 0.22531 v 0.26045 h 0.22479 v 0.2589 h 0.22479 v 0.25994 h 0.22428 v 0.25889 h 0.22479 v 0.25994 h 0.22531 v 0.2589 h 0.22376 v 0.26044 h 0.22531 v 0.2589 h 0.22479 v 0.25994 h 0.22376 v 0.2589 h 0.22531 v 0.25993 h 0.22479 v 0.2589 h 0.22427 v 0.25941 h 0.2248 v 0.25993 h 0.22531 v 0.2589 h 0.22479 v 0.25994 h 0.22376 v 0.25889 h 0.22531 v 0.25994 h 0.22479 v 0.25941 h 0.22428 v 0.25994 h 0.22479 v 0.25889 h 0.22479 v 0.25994 h 0.22428 v 0.2589 h 0.22479 v 0.25993 h 0.22531 v 0.25941 h 0.22376 v 0.25994 h 0.22531 v 0.2589 h 0.22479 v 0.25993 h 0.22376 v 0.2589 h 0.22531 v 0.25993 h 0.22479 v 0.25941 h 0.22531 v 0.25994 h 0.22376 v 0.2589 h 0.22531 v 0.25993 h 0.22479 v 0.2589 h 0.22376 v 0.2589 h 0.22531 v 0.26045 h 0.22479 v 0.25889 h 0.22428 v 0.25994 h 0.22479 v 0.2589 h 0.22479 v 0.25993 h 0.22428 v 0.2589 h 0.22479 v 0.26045 h 0.22531 v 0.2589 h 0.22479 v 0.25993 h 0.22428 v 0.2589 h 0.22479 v 0.25993 h 0.22479 v 0.2589 h 0.22428 v 0.25993 h 0.22479 v 0.25942 h 0.22531 v 0.25993 h 0.22376 v 0.2589 h 0.22531 v 0.25993 h 0.22479 v 0.2589 h 0.22376 v 0.25993 h 0.22531 v 0.25942 h 0.22479 v 0.2589 h 0.22531 v 0.25993 h 0.22376 v 0.2589 h 0.22531 v 0.25993 h 0.22479 v 0.25942 h 0.22376 v 0.25993 h 0.22531 v 0.2589 h 0.22479 v 0.25993 h 0.22428 v 0.2589 h 0.22479 v 0.25993 h 0.22479 v 0.2589 h 0.22428 v 0.26045 h 0.22479 v 0.2589 h 0.22531 v 0.25993 h 0.22479 v 0.2589 h 0.22428 v 0.25993 h 0.22479 v 0.2589 h 0.22479 v 0.26045 h 0.22428 v 0.2589 h 0.22479 v 0.25993 h 0.22531 v 0.2589 h 0.22376 v 0.25993 h 0.22531 v 0.2589 h 0.22479 v 0.25942 h 0.22376 v 0.25993 h 0.22531 v 0.2589 h 0.22479 v 0.25993 h 0.22428 v 0.2589 h 0.22479 v 0.25993 h 0.22479 v 0.25942 h 0.22531 v 0.25993 h 0.22376 v 0.2589 h 0.22531 v 0.25993 h 0.22479 v 0.2589 h 0.22428 v 0.25993 h 0.22479 v 0.25942 h 0.22479 v 0.25993 h 0.22428 v 0.2589 h 0.22479 v 0.25993 h 0.22531 v 0.2589 h 0.22376 v 0.25993 h 0.22531 v 0.25942 h 0.22479 v 0.25993 h 0.22479 v 0.2589 h 0.22428 v 0.2589 h 0.22479 v 0.25993 h 0.22531 v 0.2589 h 0.22376 v 0.26045 h 0.22479 v 0.2589 h 0.22531 v 0.25993 h 0.22376 v 0.2589 h 0.22531 v 0.25993 h 0.22479 v 0.2589 h 0.22428 v 0.26045 h 0.22479 v 0.2589 h 0.22479 v 0.25993 h 0.22531 v 0.2589 h 0.22376 v 0.25993 h 0.22531 v 0.2589 h 0.22479 v 0.26045 h 0.22428 v 0.2589 h 0.22479 v 0.25993 h 0.22479 v 0.2589 h 0.22428 v 0.25994 h 0.21497 0.01 v 0.25889 h 0.20102 0.0243 v 0.25994 h 0.18655 0.0372 v 0.25941 h 0.17518 0.0501 v 0.2589 h 0.16071 0.0641 v 0.25993 h 0.14676 0.078 v 0.2589 h 0.13436 0.0899 v 0.25994 h 0.12092 0.10387 v 0.25941 h 0.10801 0.1173 v 0.25993 h 0.0935 0.13023 v 0.2589 h 0.0811 0.14366 v 0.25994 h 0.0682 0.1571 v 0.25889 h 0.0537 0.17002 v 0.25994 h 0.0413 0.18397 v 0.25941 h 0.0279 0.19689 v 0.25993 h 0.014 0.21033 v 0.2589 h 0.002 6.66729 v -0.002 -9.34 h 0.002 3.79718 l -5.1e-4,0.001 h 0.32091 l -0.0956,0.2589 h 0.31988 l -0.0961,0.25993 h 0.32091 l -0.0956,0.2589 h 0.32091 l -0.0961,0.26045 h 0.31987 l -0.0956,0.2589 h 0.32091 l -0.0961,0.25993 h 0.3204 l -0.0956,0.2589 h 0.32142 l -0.0961,0.25993 h 0.31936 l -0.0956,0.2589 h 0.32143 l -0.0961,0.26045 h 0.3204 l -0.0956,0.2589 h 0.31987 l -0.0961,0.25993 h 0.32091 l -0.0956,0.2589 h 0.32092 l -0.0961,0.25993 h 0.31109 0.009 l -0.0956,0.2589 h 0.29663 0.0243 l -0.0961,0.26045 h 0.28318 0.0377 l -0.0956,0.2589 h 0.26872 0.0512 l -0.0961,0.25993 h 0.25477 0.0656 l -0.0956,0.2589 h 0.24132 0.0801 l -0.0961,0.25994 h 0.22582 0.0946 l -0.0956,0.25889 h 0.21187 0.10852 l -0.0961,0.25994 h 0.19896 0.12195 l -0.0961,0.25941 h 0.18396 0.13643 l -0.0956,0.2589 h 0.17001 0.15038 l -0.0961,0.25993 h 0.15607 0.16433 l -0.0956,0.2589 h 0.14211 0.17931 l -0.0961,0.25994 h 0.12764 0.19223 l -0.0961,0.25941 h 0.11421 0.20722 l -0.0961,0.25993 h 0.0997 0.22066 l -0.0956,0.2589 h 0.0858 0.23409 l -0.0961,0.25994 h 0.0723 0.24857 l -0.0956,0.25889 h 0.0579 0.26304 l -0.0961,0.25994 h 0.0434 0.27801 l -0.0961,0.25941 h 0.0289 0.29093 l -0.0961,0.25993 h 0.016 0.3049 l -0.0956,0.2589 h 0.001 7.05383 10e-4 l 1.28778,-3.44733 h 0.002 6.03787 l 0.0279,0.0744 h 0.12764 l 0.0966,0.2589 h 0.12764 l 0.0972,0.25993 h 0.12867 l 0.0966,0.2589 h 0.1266 l 0.0971,0.25994 h 0.12816 l 0.0971,0.25941 h 0.11369 0.0139 l 0.0972,0.25993 h 0.10025 0.0279 l 0.0966,0.2589 h 0.0853 0.0419 l 0.0971,0.25994 h 0.0718 0.0563 l 0.0966,0.25889 h 0.0584 0.0698 l 0.0972,0.25994 h 0.0429 0.0837 l 0.0971,0.25941 h 0.03 0.0982 l 0.0971,0.25993 h 0.015 0.11317 l 0.0966,0.2589 h 10e-4 7.05383 v -0.001 l -1.63091,-4.41007 h 0.0982 v 0.25994 h 0.21601 0.009 v 0.25889 h 0.20206 0.0222 v 0.25994 h 0.18965 0.0351 v 0.25941 h 0.17622 0.0486 v 0.2589 h 0.16227 0.062 v 0.25993 h 0.14883 0.076 v 0.2589 h 0.13591 0.0894 v 0.25994 h 0.12196 0.1018 v 0.25941 h 0.10904 0.11575 v 0.25993 h 0.0951 0.13022 v 0.2589 h 0.0822 0.14262 v 0.25994 h 0.0682 0.15606 v 0.25889 h 0.0548 0.17001 v 0.25994 h 0.0413 0.18397 v 0.25941 h 0.0279 0.19585 v 0.25993 h 0.015 0.2098 v 0.2589 h 10e-4 6.7324 v -10e-4 -24.99899 h -0.001 -0.22428 v -0.2589 h -0.014 -0.20981 v -0.25993 h -0.0289 -0.19637 v -0.25942 h -0.0419 -0.18294 v -0.25993 h -0.0553 -0.1695 v -0.2589 h -0.0682 -0.15607 v -0.25993 h -0.0822 -0.14263 v -0.2589 h -0.0951 -0.13023 v -0.25993 h -0.108 -0.11576 v -0.25942 h -0.12195 -0.10336 v -0.25993 h -0.13591 -0.0889 v -0.2589 h -0.14883 -0.0749 v -0.25993 h -0.1633 -0.062 v -0.2589 h -0.1757 -0.0491 v -0.25993 h -0.18914 -0.0351 v -0.25942 h -0.20308 -0.0217 v -0.2589 h -0.216 -0.009 v -0.25993 h -0.22479 v -0.2589 h -0.22376 v -0.25993 h -0.22531 v -0.2589 h -0.22479 v -0.26045 h -0.22428 v -0.2589 H 208.15 v -0.25993 h -0.22531 v -0.2589 h -0.22376 v -0.25993 h -0.22479 v -0.2589 h -0.22531 v -0.26045 h -0.22376 v -0.2589 h -0.22531 v -0.25993 h -0.22479 v -0.2589 h -0.22479 v -0.25993 h -0.22428 v -0.2589 h -0.22479 v -0.26045 h -0.22531 v -0.2589 h -0.22376 v -0.25993 h -0.22531 v -0.2589 h -0.22479 v -0.2589 h -0.22376 v -0.25993 h -0.22531 v -0.25942 h -0.22479 v -0.25993 h -0.22428 v -0.2589 h -0.22479 v -0.25993 h -0.22531 v -0.2589 h -0.22376 v -0.25994 h -0.22479 v -0.25941 h -0.22531 v -0.25993 h -0.22479 v -0.2589 h -0.22428 v -0.25993 h -0.22479 v -0.2589 h -0.22479 v -0.25994 h -0.22428 v -0.25941 h -0.22479 v -0.25993 h -0.22531 v -0.2589 h -0.22376 v -0.25994 h -0.22531 V 220.7271 H 200.734 v -0.25994 h -0.22376 v -0.25941 h -0.22531 v -0.25994 h -0.22479 v -0.25889 h -0.22531 v -0.2589 h -0.22376 v -0.25994 h -0.22531 v -0.25889 h -0.22479 v -0.25994 h -0.22376 v -0.25941 h -0.22531 v -0.25993 h -0.22479 v -0.2589 h -0.22428 v -0.25994 h -0.22479 v -0.2589 h -0.22479 v -0.25993 h -0.22428 v -0.25941 h -0.22479 v -0.25994 h -0.22531 V 216.316 h -0.22479 v -0.25994 h -0.22428 v -0.2589 h -0.22479 v -0.25993 h -0.22479 v -0.25941 h -0.22428 v -0.25994 h -0.22479 v -0.2589 h -0.22531 v -0.25993 h -0.22376 v -0.2589 h -0.22531 v -0.2589 h -0.22479 v -0.26045 h -0.22376 v -0.25889 h -0.22531 v -0.25994 h -0.22479 v -0.2589 h -0.22428 v -0.25993 h -0.22479 v -0.2589 h -0.22531 v -0.26045 h -0.22479 v -0.25889 h -0.22376 v -0.25994 h -0.22531 v -0.2589 h -0.22479 v -0.25993 h -0.22428 v -0.2589 h -0.22479 v -0.26045 h -0.22479 v -0.2589 h -0.22428 v -0.25993 h -0.22479 v -0.2589 h -0.22531 v -0.25993 h -0.22376 v -0.2589 h -0.22531 v -0.26045 h -0.22479 v -0.2589 h -0.22479 v -0.25993 h -0.22428 v -0.2589 h -0.22479 v -0.2589 h -0.22531 v -0.25993 h -0.22376 v -0.25942 h -0.22531 v -0.25993 h -0.22479 v -0.2589 h -0.22376 v -0.25993 h -0.22531 v -0.2589 h -0.22479 v -0.25993 h -0.22428 v -0.25942 h -0.22479 v -0.25993 h -0.22479 v -0.2589 h -0.22531 v -0.25993 h -0.22376 v -0.2589 h -0.22531 v -0.25993 h -0.22479 v -0.25942 h -0.22428 v -0.25993 H 186.354 v -0.2589 h -0.22479 v -0.25993 h -0.22428 v -0.2589 h -0.22479 v -0.25993 h -0.22531 v -0.25942 h -0.22376 v -0.25993 h -0.22531 v -0.2589 h -0.22479 v -0.2589 h -0.22376 v -0.25993 h -0.22531 v -0.2589 h -0.22479 v -0.26045 h -0.22531 v -0.2589 h -0.22376 v -0.25993 h -0.22479 v -0.2589 h -0.22531 v -0.25993 h -0.22376 v -0.2589 h -0.22531 v -0.25993 h -0.22479 v -0.25942 h -0.22428 v -0.25993 h -0.22479 v -0.2589 h -0.22479 v -0.25993 h -0.22428 v -0.2589 h -0.22479 v -0.25993 h -0.22531 v -0.25942 h -0.22479 v -0.25993 h -0.22428 v -0.2589 h -0.22479 v -0.25993 h -0.22479 v -0.2589 h -0.22428 v -0.25942 h -0.22479 v -0.25993 h -0.22531 v -0.2589 h -0.22376 v -0.25993 h -0.22479 v -0.2589 h -0.22531 v -0.25993 h -0.22376 v -0.2589 h -0.22531 v -0.26045 h -0.22479 v -0.2589 h -0.22531 v -0.25993 h -0.22376 v -0.2589 h -0.22479 v -0.25993 h -0.22531 v -0.2589 h -0.22376 v -0.26045 h -0.22531 v -0.2589 h -0.22479 v -0.25993 h -0.22428 v -0.2589 h -0.22479 v -0.25994 h -0.22479 v -0.25889 h -0.22428 v -0.26045 h -0.22479 v -0.2589 h -0.22531 v -0.25993 h -0.22376 v -0.2589 h -0.22531 v -0.2589 h -0.22479 v -0.25993 h -0.22479 v -0.25942 h -0.22428 v -0.25993 h -0.22479 v -0.2589 h -0.22531 v -0.25993 h -0.22376 v -0.2589 h -0.22479 v -0.25994 h -0.22531 v -0.25941 h -0.22376 v -0.25993 h -0.22531 v -0.2589 h -0.22479 v -0.25994 h -0.22428 v -0.25889 H 171.974 v -0.25994 h -0.22479 v -0.25941 h -0.22531 v -0.25993 h -0.22376 v -0.2589 h -0.22531 v -0.25994 h -0.22479 v -0.2589 h -0.22428 v -0.25993 h -0.22479 v -0.25941 h -0.22479 v -0.2589 h -0.22428 v -0.25993 h -0.22479 v -0.2589 h -0.22531 v -0.25994 h -0.22376 v -0.25889 h -0.22479 v -0.26045 h -0.22531 v -0.2589 h -0.22376 v -0.25994 h -0.22531 v -0.25889 h -0.22479 v -0.25994 h -0.22531 v -0.2589 h -0.22376 v -0.26045 h -0.22479 v -0.25889 h -0.22531 v -0.25994 h -0.22376 v -0.2589 h -0.22531 v -0.25993 h -0.22479 v -0.2589 h -0.22428 v -0.26045 h -0.22479 v -0.25889 h -0.22479 v -0.25994 h -0.22428 v -0.2589 h -0.22479 v -0.25993 h -0.22531 v -0.2589 h -0.22479 v -0.25941 h -0.22376 v -0.25994 h -0.22531 v -0.25889 h -0.22479 V 178.432 h -0.22428 v -0.2589 h -0.22479 v -0.25993 h -0.22531 v -0.25941 h -0.22376 v -0.25994 h -0.22479 v -0.2589 h -0.22531 v -0.25993 h -0.22376 v -0.2589 h -0.22531 v -0.25993 h -0.22479 v -0.25942 h -0.22531 v -0.25993 h -0.22376 v -0.2589 h -0.22479 v -0.25993 h -0.22531 v -0.2589 h -0.22376 v -0.25993 h -0.22531 v -0.2589 h -0.22479 v -0.26045 h -0.22428 v -0.2589 h -0.22479 v -0.2589 h -0.22479 v -0.25993 h -0.22428 v -0.0217 c 0.91402,-0.49965 1.75877,-1.10231 2.53473,-1.80661 h 0.31936 l -0.0961,0.25941 h 0.32194 l -0.0966,0.25994 h 0.32039 l -0.0956,0.2589 h 0.3204 l -0.0956,0.25993 h 0.31988 l -0.009,0.0243 -0.0868,0.23461 h 0.32143 l -0.0264,0.0713 -0.0703,0.18862 h 0.32091 l -0.0439,0.11834 -0.0517,0.14108 h 0.31988 l -0.061,0.16484 -0.0351,0.0951 h 0.32091 l -0.0785,0.21187 -0.0171,0.047 h 0.32091 l -0.0961,0.25993 h 6.66006 l 1.21698,-3.2551 h 5.73609 l 0.0238,0.0631 0.0289,0.078 h 0.12764 l 0.0703,0.1881 0.0274,0.0708 h 0.12713 l 0.0729,0.19533 0.0248,0.0646 h 0.12712 l 0.0749,0.20102 0.0222,0.0584 h 0.12816 l 0.0775,0.20774 0.0191,0.0522 h 0.12815 l 0.0801,0.21394 0.0165,0.045 h 0.12764 l 0.0827,0.22117 0.0139,0.0388 h 0.12816 l 0.0848,0.22686 0.0119,0.032 h 0.12764 l 0.0873,0.23409 0.0103,0.0258 h 0.12712 l 0.0899,0.2403 0.007,0.0191 h 0.12765 l 0.0925,0.24701 0.005,0.0129 h 0.12713 l 0.0946,0.2527 0.003,0.006 h 0.12764 l 0.0971,0.25993 h 6.66006 l -2.2071,-5.96811 h 0.18396 v 0.25941 h 0.22428 v 0.25994 h 0.22479 v 0.2589 h 0.22531 v 0.25889 h 0.22376 v 0.25994 h 0.22531 v 0.2589 h 0.22479 v 0.25993 h 0.22376 v 0.25941 h 0.22531 v 0.25994 h 0.22479 v 0.2589 h 0.22531 v 0.25993 h 0.22376 v 0.2589 h 0.22531 v 0.25993 h 0.22479 v 0.25941 h 0.22376 v 0.25994 h 0.22531 v 0.2589 h 0.22479 v 0.25993 h 0.22428 v 0.0243 0.23461 h 0.22479 v 0.0713 0.18862 h 0.22531 v 0.11834 0.14108 h 0.22376 v 0.16484 0.0951 h 0.22479 v 0.21187 0.047 h 0.22531 v 0.25993 h 6.50813 l -0.031,-7.29981 h 1.78077 l 0.0191,0.0341 h 0.0785 l 0.14522,0.25994 h 0.0796 l 0.14572,0.25889 h 0.0786 l 0.14625,0.25994 h 0.0791 l 0.1447,0.2589 h 0.0791 l 0.14625,0.25993 h 0.0785 l 0.14625,0.25941 h 0.0786 l 0.14572,0.25994 h 0.0791 l 0.14573,0.2589 h 0.0791 l 0.14625,0.25889 h 0.078 l 0.14572,0.25994 h 0.0791 l 0.007,0.0119 0.13901,0.24702 h 0.0785 l 0.0155,0.0274 0.13126,0.23255 h 0.0785 l 0.0233,0.0413 0.12299,0.21807 h 0.0775 l 0.0315,0.0558 0.11523,0.20413 h 0.0785 l 0.0393,0.0698 0.10697,0.18914 h 0.0785 l 0.0476,0.0847 0.0992,0.17519 h 0.078 l 0.0558,0.0992 0.0899,0.15968 h 0.0791 l 0.0641,0.1142 0.0816,0.14573 h 0.0791 l 0.0724,0.12816 0.0739,0.13125 h 0.0785 l 0.0801,0.14263 0.0651,0.11731 h 0.0796 l 0.0884,0.15709 0.0574,0.10181 h 0.0791 l 0.0966,0.17208 0.0491,0.0879 h 0.078 l 0.1049,0.18603 0.0413,0.0729 h 0.0785 l 0.11317,0.20102 0.0331,0.0589 h 0.0791 l 0.12092,0.21497 0.0248,0.0445 h 0.0791 l 0.12919,0.22996 0.0171,0.03 h 0.078 l 0.13797,0.24494 0.008,0.014 h 0.0791 l 0.14625,0.25993 h 7.08587 l -4.72271,-8.30389 h 0.19068 v 0.25994 h 0.22376 v 0.25889 h 0.22531 v 0.25994 h 0.2248 v 0.25941 h 0.2253 v 0.25994 h 0.22376 v 0.25889 h 0.2248 v 0.25994 h 0.22531 v 0.2589 h 0.22375 v 0.25993 h 0.22531 v 0.25941 h 0.2248 v 0.25994 h 0.22427 v 0.2589 h 0.22479 v 0.25889 h 0.2248 v 0.25994 h 0.22427 v 0.2589 h 0.22479 v 0.25993 h 0.22531 v 0.25941 h 0.2248 v 0.25994 h 0.22376 v 0.2589 h 0.2253 v 0.25993 h 0.2248 v 0.2589 h 0.22427 v 0.25993 h 0.2248 v 0.25941 h 0.2253 v 0.25994 h 0.22376 v 0.2589 h 0.2248 v 0.25993 h 0.22531 v 0.0243 0.23461 h 0.22375 v 0.0713 0.18862 h 0.22531 v 0.11834 0.14108 h 0.2248 v 0.16484 0.0951 h 0.22531 v 0.21187 0.047 h 0.22375 v 0.25993 h 18.82625 v -5.59604 h -0.22531 v -0.24908 -0.0109 h -0.22376 v -0.2372 -0.0217 h -0.22531 v -0.22583 -0.0341 h -0.22479 v -0.21497 -0.0439 h -0.22531 v -0.20413 -0.0563 h -0.22376 v -0.19172 -0.0672 h -0.2248 v -0.1819 -0.078 h -0.2253 v -0.17002 -0.0889 h -0.22376 v -0.15917 -0.10077 h -0.22531 v -0.14831 -0.11059 h -0.2248 v -0.13745 -0.12299 h -0.22427 v -0.12454 -0.13436 h -0.22479 v -0.11472 -0.14522 h -0.2248 v -0.003 h 2.41588 v -0.001 -5.62498 h -0.22428 v -0.24805 l -0.001,-0.0119 H 232.299 v -0.23668 l -0.001,-0.0222 h -0.22376 v -0.22583 -0.0331 h -0.22428 v -0.21497 l -0.001,-0.045 h -0.22376 v -0.20309 l -0.001,-0.0563 h -0.22427 v -0.19275 -0.0672 h -0.22479 v -0.18087 -0.078 h -0.22428 v -0.17001 l -5.2e-4,-0.0899 h -0.22427 v -0.15813 -0.10077 h -0.22479 v -0.14831 -0.11162 H 230.277 v -0.13591 l -10e-4,-0.12351 h -0.22376 v -0.12454 l -0.001,-0.13539 h -0.22427 v -0.11266 -0.14624 h -0.22376 v -0.003 h 3.87522 v -0.001 -5.62602 h -0.001 -0.22427 v -0.24753 l -0.001,-0.0114 h -0.22272 v -0.23667 l -0.001,-0.0233 h -0.22427 v -0.22479 l -0.001,-0.0341 h -0.22375 v -0.21497 l -0.001,-0.045 h -0.22427 v -0.20309 -0.0558 h -0.22376 v -0.19224 l -0.001,-0.0672 h -0.22376 v -0.18087 l -0.001,-0.0791 h -0.22427 v -0.17001 -0.0889 h -0.22376 v -0.15916 l -0.001,-0.10077 h -0.22427 v -0.14728 l -0.001,-0.11162 h -0.22376 v -0.13591 l -0.001,-0.12402 h -0.22324 v -0.12506 l -0.001,-0.13436 h -0.22376 v -0.11368 l -0.001,-0.14625 h -0.22376 v -0.1018 l -0.001,-0.1571 h -0.22324 v -0.091 l -10e-4,-0.16898 h -0.22375 v -0.0801 l -10e-4,-0.1788 h -0.22427 v -0.0693 l -0.001,-0.19068 h -0.22272 v -0.0574 l -0.001,-0.20206 h -0.22427 v -0.046 l -5.2e-4,-0.21394 h -0.22427 v -0.0346 l -0.001,-0.22428 h -0.22376 v -0.0238 -0.23616 h -0.22427 v -0.0119 l -0.001,-0.24701 h -0.22375 v -0.001 l -0.001,-0.2589 h -0.22427 v -0.25942 h -0.22376 l -0.001,-0.25993 h -0.22376 l -0.001,-0.2589 h -0.22427 l -0.001,-0.25993 h -0.22272 l -0.001,-0.2589 h -0.22427 l -0.001,-0.2589 h -0.22376 l -0.001,-0.26045 h -0.22376 l -5.1e-4,-0.2589 h -0.22428 l -5.2e-4,-0.25993 h -0.22427 l -5.2e-4,-0.2589 h -0.22428 v -0.25993 h -0.22427 l -5.2e-4,-0.2589 h -0.22479 l -5.2e-4,-0.25993 h -0.22376 v -0.25942 h -0.22427 l -5.2e-4,-0.25993 h -0.22479 l -5.2e-4,-0.2589 h -0.22376 v -0.25993 h -0.22479 l -5.2e-4,-0.2589 h -0.22427 l -5.2e-4,-0.25993 h -0.22479 l -5.2e-4,-0.25942 h -0.22324 l -5.2e-4,-0.25993 h -0.22427 l -5.2e-4,-0.2589 h -0.22479 l -5.2e-4,-0.25993 h -0.22376 v -0.2589 h -0.22479 l -5.2e-4,-0.25993 h -0.22427 l -5.2e-4,-0.25942 h -0.22427 v -0.2589 h -0.22428 l -5.2e-4,-0.25993 h -0.22427 l -5.2e-4,-0.2589 h -0.22428 v -0.25993 h -0.22427 l -5.2e-4,-0.2589 h -0.22479 l -5.2e-4,-0.26045 h -0.22427 l -5.2e-4,-0.2589 h -0.22376 v -0.25993 h -0.22479 l -5.2e-4,-0.2589 h -0.22427 l -5.2e-4,-0.25993 h -0.22376 l -5.2e-4,-0.2589 h -0.22427 l -5.2e-4,-0.26045 h -0.22479 l -5.2e-4,-0.2589 h -0.22376 v -0.25993 h -0.22427 l -5.2e-4,-0.2589 h -0.22479 l -5.2e-4,-0.25993 h -0.22376 v -0.2589 h -0.22479 l -5.2e-4,-0.26045 h -0.22427 l -5.2e-4,-0.2589 h -0.22427 v -0.25993 h -0.22428 l -5.2e-4,-0.2589 h -0.22427 l -5.2e-4,-0.25994 h -0.22479 l -5.2e-4,-0.25889 h -0.22324 l -5.2e-4,-0.25942 h -0.22479 l -5.2e-4,-0.25993 h -0.22427 l -5.2e-4,-0.2589 h -0.22428 v -0.25993 h -0.22427 l -5.2e-4,-0.2589 h -0.22427 l -5.2e-4,-0.25994 h -0.22428 v -0.25941 h -0.22427 l -5.2e-4,-0.25993 h -0.22479 l -5.2e-4,-0.2589 h -0.22376 v -0.25994 h -0.22479 v -0.25889 h -0.22479 l -5.2e-4,-0.25994 h -0.22376 v -0.25941 h -0.22479 l -5.2e-4,-0.25993 h -0.22427 l -5.2e-4,-0.2589 h -0.22479 l -5.2e-4,-0.25994 h -0.22376 v -0.25889 h -0.22427 l -5.2e-4,-0.25994 h -0.22479 l -5.2e-4,-0.25941 h -0.22376 v -0.25994 h -0.22531 v -0.25889 h -0.22479 v -0.25994 h -0.22428 v -0.2589 h -0.22479 v -0.25889 h -0.22479 v -0.26045 h -0.22428 v -0.2589 h -0.22479 v -0.25994 h -0.22531 v -0.25889 h -0.22376 v -0.25994 h -0.22479 v -0.2589 h -0.22531 v -0.26044 h -0.22479 v -0.2589 h -0.22428 v -0.25994 h -0.22479 v -0.2589 h -0.22531 v -0.25993 H 209.211 v -0.2589 h -0.22479 v -0.26045 h -0.22531 v -0.25889 h -0.22376 v -0.25994 h -0.22531 v -0.2589 h -0.22479 v -0.25993 h -0.22428 v -0.2589 h -0.22479 v -0.25993 h -0.22479 v -0.25942 h -0.22531 v -0.25993 h -0.22376 v -0.2589 h -0.22531 v -0.2589 h -0.22479 V 119.53 h -0.22376 v -0.25941 h -0.22531 v -0.25994 h -0.22479 v -0.2589 h -0.22428 v -0.25993 h -0.22479 v -0.2589 h -0.22531 v -0.25993 h -0.22376 v -0.25941 h -0.22479 v -0.25994 h -0.22531 v -0.2589 h -0.22376 v -0.25993 h -0.22531 v -0.2589 h -0.22479 v -0.25993 h -0.22479 v -0.2589 h -0.22428 v -0.26045 h -0.22479 v -0.2589 h -0.22531 v -0.25993 h -0.22376 v -0.2589 h -0.22531 v -0.25993 h -0.22479 v -0.2589 h -0.22428 v -0.25942 h -0.22479 v -0.25993 h -0.22479 v -0.2589 h -0.22428 v -0.25993 h -0.22479 v -0.2589 h -0.22531 v -0.25993 h -0.22376 v -0.25942 h -0.22479 v -0.25993 h -0.22531 v -0.2589 h -0.22479 v -0.25993 h -0.22428 v -0.2589 h -0.22479 v -0.25993 h -0.22531 v -0.25942 h -0.22376 v -0.25993 h -0.22479 v -0.2589 h -0.22531 v -0.25993 h -0.22376 v -0.2589 h -0.22531 v -0.25993 h -0.22479 v -0.25942 h -0.22428 v -0.25993 h -0.22479 v -0.2589 h -0.22479 v -0.25993 h -0.22531 v -0.2589 h -0.22376 v -0.2589 h -0.22531 v -0.26045 H 196.403 v -0.2589 h -0.22376 v -0.25993 h -0.22531 v -0.2589 h -0.22479 v -0.25993 h -0.22428 v -0.2589 h -0.22479 v -0.26045 h -0.22531 v -0.2589 H 194.831 v -0.25993 h -0.22479 v -0.2589 h -0.22531 v -0.25993 h -0.22376 v -0.2589 h -0.22531 v -0.26045 h -0.22479 v -0.2589 h -0.22479 v -0.25993 h -0.22428 v -0.2589 h -0.22479 v -0.25993 h -0.22531 v -0.2589 h -0.22376 v -0.26045 h -0.22531 v -0.2589 h -0.22479 v -0.25993 h -0.22376 v -0.2589 h -0.22531 v -0.2589 h -0.22479 v -0.25993 h -0.22428 v -0.25942 h -0.22479 v -0.25993 h -0.22531 v -0.2589 h -0.22376 v -0.25993 h -0.22479 v -0.2589 h -0.22531 v -0.25993 h -0.22479 v -0.25942 h -0.22428 v -0.25993 h -0.22479 v -0.258902 h -0.22479 v -0.259415 h -0.22428 V 99.29058 h -0.22479 v -0.259415 h -0.22531 v -0.259416 h -0.22376 v -0.259416 h -0.22531 v -0.259416 h -0.22479 v -0.259415 h -0.22428 v -0.259416 h -0.22479 v -0.259932 h -0.22479 v -0.258899 h -0.22531 v -0.259933 h -0.22376 v -0.259415 h -0.22531 v -0.259416 h -0.22479 v -0.259416 h -0.22376 V 95.91766 h -0.22531 v -0.259416 h -0.22479 v -0.259416 h -0.22428 v -0.259932 h -0.22479 V 94.87948 h -0.22531 v -0.259416 h -0.22376 v -0.259415 h -0.22479 v -0.259416 h -0.22531 v -0.259416 h -0.22376 v -0.259415 h -0.22531 v -0.259416 h -0.22479 v -0.259933 h -0.22479 v -0.259415 h -0.22428 v -0.259416 h -0.22479 v -0.259416 h -0.22531 v -0.259415 h -0.22376 v -0.259416 h -0.22531 V 91.506559 H 182.023 v -0.259415 h -0.22376 v -0.259416 h -0.22531 v -0.259933 h -0.22479 V 90.46838 h -0.22428 v -0.259416 h -0.22479 v -0.259416 h -0.22531 V 89.690133 H 180.451 v -0.259416 h -0.22479 v -0.259416 h -0.22531 v -0.259415 h -0.22479 v -0.259933 h -0.22428 v -0.259416 h -0.22479 v -0.259415 h -0.22479 v -0.259416 h -0.22428 V 87.61429 h -0.22479 v -0.259415 h -0.22531 v -0.259416 h -0.22376 v -0.259416 h -0.22531 v -0.259415 h -0.22479 v -0.259933 h -0.22376 v -0.259416 h -0.22531 v -0.259415 h -0.22479 v -0.259416 h -0.22428 v -0.259416 h -0.22479 v -0.259415 h -0.22531 v -0.259416 h -0.22479 v -0.259932 h -0.22376 v -0.259416 h -0.22531 v -0.259416 h -0.22479 v -0.259416 h -0.22428 v -0.259415 h -0.22479 V 83.20319 h -0.22479 v -0.259416 h -0.22428 v -0.259415 h -0.22479 v -0.259416 h -0.22531 v -0.259932 h -0.22376 v -0.259416 h -0.22531 v -0.259416 h -0.22479 v -0.259415 h -0.22479 v -0.259416 h -0.22428 v -0.259416 h -0.22479 v -0.259416 h -0.22531 v -0.259415 h -0.22376 v -0.259933 h -0.22531 v -0.259415 h -0.22479 v -0.259416 h -0.22376 v -0.259416 h -0.22531 v -0.259415 h -0.22479 V 78.79209 h -0.22428 v -0.259416 h -0.22479 v -0.259416 h -0.22531 v -0.259415 h -0.22376 V 77.75391 h -0.22479 v -0.259415 h -0.22531 v -0.259416 h -0.22479 v -0.259416 h -0.22428 v -0.259415 h -0.22479 v -0.259416 h -0.22479 v -0.259416 h -0.22428 V 75.938 h -0.22479 v -0.259932 h -0.22531 v -0.259416 h -0.22376 v -0.259415 h -0.22531 V 74.899821 H 167.643 v -0.259416 h -0.22376 V 74.38099 h -0.22531 v -0.259416 h -0.22479 v -0.259416 h -0.22428 v -0.259415 h -0.22479 V 73.34281 h -0.22531 v -0.259416 h -0.22479 v -0.259415 h -0.22376 v -0.259416 h -0.22531 v -0.259416 h -0.22479 v -0.259415 h -0.22428 v -0.259416 h -0.22479 V 71.5269 h -0.22479 v -0.259932 h -0.22428 v -0.259416 h -0.22479 v -0.259416 h -0.22531 v -0.259415 h -0.22376 v -0.259416 h -0.22531 v -0.259416 h -0.22479 v -0.259415 h -0.2248 v -0.259416 h -0.22427 v -0.259416 h -0.22479 V 68.93171 h -0.22531 v -0.259416 h -0.22376 v -0.259416 h -0.22531 v -0.259415 h -0.22479 v -0.259416 h -0.22376 v -0.259416 h -0.22531 v -0.259415 h -0.22479 v -0.259933 h -0.22428 v -0.259415 h -0.22479 v -0.259416 h -0.22479 v -0.259416 h -0.22428 V 66.07762 h -0.22479 v -0.259415 h -0.22531 v -0.259416 h -0.22479 v -0.259416 h -0.22428 v -0.259415 h -0.22479 v -0.259933 h -0.2248 V 64.52061 h -0.22427 v -0.259416 h -0.22479 v -0.259416 h -0.22531 v -0.259416 h -0.22376 v -0.259415 h -0.22531 v -0.259416 h -0.22479 v -0.259416 h -0.22376 v -0.259932 h -0.22531 v -0.259416 h -0.22479 v -0.259415 h -0.22428 v -0.259416 h -0.22479 V 61.66652 h -0.22531 v -0.259416 h -0.22479 v -0.259415 h -0.22376 v -0.259416 h -0.22531 v -0.259416 h -0.22479 v -0.259932 h -0.22428 v -0.259416 h -0.22479 v -0.259415 h -0.2248 v -0.259416 h -0.22427 v -0.259416 h -0.22479 v -0.259415 h -0.22531 v -0.259416 h -0.22376 v -0.259416 h -0.22531 V 58.293083 H 153.263 v -0.259416 h -0.2248 v -0.259416 h -0.22427 v -0.259415 h -0.22479 V 57.25542 h -0.22531 v -0.259416 h -0.22376 v -0.259415 h -0.22531 v -0.259933 h -0.22479 v -0.258899 h -0.22376 v -0.259932 h -0.22531 v -0.259416 h -0.22479 v -0.259416 h -0.22428 v -0.259415 h -0.22479 v -0.259416 h -0.2248 v -0.259416 h -0.22427 v -0.259415 h -0.22479 v -0.259933 h -0.22531 v -0.259416 h -0.2248 v -0.259415 h -0.22427 v -0.259416 h -0.22479 v -0.259416 h -0.2248 V 52.84432 h -0.22427 v -0.259416 h -0.22479 v -0.259416 h -0.22531 v -0.259932 h -0.22376 V 51.80614 h -0.22531 v -0.259416 h -0.22479 v -0.259415 h -0.22376 v -0.259416 h -0.22531 v -0.259416 h -0.22479 v -0.259415 h -0.22428 v -0.259416 h -0.22479 V 49.99023 h -0.2248 v -0.259932 h -0.2253 v -0.259416 h -0.22376 v -0.259416 h -0.22531 v -0.259415 h -0.2248 v -0.259416 h -0.22427 v -0.259416 h -0.22479 v -0.259415 h -0.2248 v -0.259416 h -0.22427 v -0.259932 h -0.22479 V 47.39504 h -0.22531 v -0.259416 h -0.22376 v -0.259416 h -0.22531 v -0.259415 h -0.22479 v -0.259416 h -0.2248 v -0.259416 h -0.22427 v -0.259415 h -0.2248 V 45.57913 h -0.2253 v -0.259932 h -0.22376 v -0.259416 h -0.22531 v -0.259416 h -0.22479 v -0.259415 h -0.22376 v -0.259416 h -0.22531 v -0.259416 h -0.2248 v -0.259416 h -0.22427 v -0.259415 h -0.22479 v -0.259933 h -0.2248 V 42.98394 h -0.22427 v -0.259416 h -0.22479 v -0.259416 h -0.22531 v -0.259415 h -0.2248 v -0.259416 h -0.22427 V 41.686861 H 138.883 v -0.259416 h -0.2248 v -0.259932 h -0.22427 v -0.259416 h -0.2248 v -0.259415 h -0.2253 v -0.259416 h -0.22376 V 40.12985 h -0.22531 v -0.259415 h -0.22479 v -0.259416 h -0.22376 v -0.259416 h -0.22531 v -0.259932 h -0.2248 v -0.259416 h -0.22427 v -0.259416 h -0.22479 v -0.259415 h -0.2248 v -0.259416 h -0.22531 v -0.259416 h -0.22375 v -0.259415 h -0.22531 v -0.259416 h -0.2248 v -0.259416 h -0.22427 v -0.259932 h -0.22479 v -0.259416 h -0.2248 v -0.259416 h -0.22427 v -0.259415 h -0.2248 V 35.71875 h -0.2253 v -0.259416 h -0.22376 v -0.259415 h -0.22531 v -0.259416 h -0.2248 V 34.68057 h -0.22375 v -0.259415 h -0.22531 v -0.259416 h -0.2248 v -0.259416 h -0.2253 v -0.259415 h -0.22376 v -0.259416 h -0.2248 v -0.259416 h -0.22531 v -0.259415 h -0.22375 v -0.259416 h -0.22531 v -0.259933 h -0.2248 v -0.259415 h -0.22427 v -0.259416 h -0.22479 v -0.259416 h -0.2248 V 31.30765 h -0.22427 v -0.259416 h -0.2248 v -0.259416 h -0.2253 v -0.259415 h -0.2248 V 30.26947 h -0.22427 v -0.259415 h -0.2248 v -0.259416 h -0.22479 v -0.259416 h -0.22427 v -0.259416 h -0.2248 v -0.259415 h -0.22531 v -0.259416 h -0.22375 v -0.259932 h -0.22531 v -0.258899 h -0.2248 v -0.259933 h -0.22375 v -0.259415 h -0.22531 v -0.259416 h -0.2248 v -0.259416 h -0.22427 v -0.259416 h -0.22479 v -0.259415 h -0.2248 v -0.259416 h -0.22531 v -0.259932 h -0.22376 V 25.85837 h -0.2253 v -0.259416 h -0.2248 v -0.259415 h -0.22427 v -0.259416 h -0.2248 v -0.259416 h -0.22479 v -0.259415 h -0.22427 v -0.259416 h -0.2248 v -0.259933 h -0.22531 v -0.259415 h -0.22375 v -0.259416 h -0.22531 v -0.259416 h -0.2248 v -0.259415 h -0.22375 v -0.259416 h -0.22531 v -0.259416 h -0.2248 v -0.259415 h -0.22531 v -0.259416 h -0.18655 -0.0372 v -0.259933 h -0.1509 -0.0739 V 21.44727 h -0.11317 -0.11214 v -0.259416 h -0.0749 -0.14883 v -0.259416 h -0.0382 -0.18706 v -0.259415 h -18.82573 v 0.001 10.74043 c -0.0226,-0.02571 -0.0497,-0.05084 -0.0729,-0.07648 -0.0716,-0.08614 -0.14575,-0.171973 -0.22273,-0.257349 -0.0716,-0.08602 -0.14585,-0.171576 -0.22272,-0.256832 -0.0716,-0.08596 -0.14539,-0.171631 -0.22221,-0.256832 -0.073,-0.08783 -0.14837,-0.175465 -0.22686,-0.262516 -0.0707,-0.08492 -0.14379,-0.169542 -0.21963,-0.253731 -0.0729,-0.08768 -0.14846,-0.175105 -0.22686,-0.262 -0.0708,-0.08501 -0.14424,-0.169455 -0.22014,-0.253731 -0.0725,-0.08712 -0.14698,-0.174095 -0.22479,-0.260449 -0.0723,-0.08685 -0.14719,-0.173323 -0.224793,-0.259416 -0.07153,-0.08596 -0.145454,-0.171618 -0.222208,-0.256832 -0.0714,-0.08579 -0.145117,-0.171267 -0.221692,-0.256315 -0.07244,-0.08708 -0.147546,-0.173609 -0.225309,-0.259932 -0.07192,-0.0864 -0.146088,-0.172732 -0.223243,-0.258383 -0.07201,-0.08649 -0.146527,-0.172635 -0.223759,-0.258382 -0.07127,-0.0856 -0.14479,-0.17093 -0.221175,-0.255798 -0.07299,-0.08772 -0.148518,-0.175049 -0.226859,-0.262 -0.07069,-0.08484 -0.143935,-0.169093 -0.219625,-0.253214 -0.07278,-0.08748 -0.147741,-0.174761 -0.225826,-0.261483 -0.07142,-0.08575 -0.145179,-0.171294 -0.221692,-0.256315 -0.073,-0.08769 -0.148542,-0.175068 -0.22686,-0.261999 -0.07078,-0.0849 -0.143876,-0.169542 -0.219624,-0.253732 -0.07235,-0.08689 -0.147257,-0.173267 -0.224793,-0.259415 -0.07213,-0.08659 -0.146483,-0.17304 -0.223759,-0.258899 -0.07208,-0.08651 -0.146548,-0.172607 -0.223759,-0.258382 -0.07133,-0.08559 -0.144843,-0.170931 -0.221175,-0.255799 -0.07273,-0.08733 -0.147899,-0.174383 -0.225826,-0.260966 -0.07176,-0.0861 -0.145918,-0.171974 -0.222725,-0.257348 -0.07208,-0.08648 -0.146599,-0.172629 -0.223759,-0.258383 -0.0721,-0.08648 -0.146589,-0.172624 -0.223759,-0.258382 -0.227104,-0.272387 -0.470906,-0.54236 -0.748275,-0.807702 l -5.17e-4,-5.17e-4 c -0.466098,-0.4458 -0.973122,-0.841476 -1.52032,-1.185974 l -0.001,-5.17e-4 c -0.547198,-0.3648 -1.114622,-0.647994 -1.702222,-0.850594 l -10e-4,-5.17e-4 c -0.587698,-0.2228 -1.164796,-0.334346 -1.732194,-0.334346 h -5.17e-4 -11.830286 v 0.001 13.491683 h -0.09353 l -0.09612,-0.259416 h -0.128674 l -0.09612,-0.259415 H 77.4517 l -0.09612,-0.259416 h -0.128158 l -0.09612,-0.259416 h -0.128674 l -0.09612,-0.259415 H 76.777834 L 76.681714,32.60518 H 76.55295 l -0.09612,-0.259933 h -0.128674 l -0.09612,-0.259415 h -0.128674 l -0.09612,-0.259416 H 75.879084 L 75.782964,31.567 H 75.65429 l -0.09612,-0.259415 h -0.128675 l -0.09612,-0.259416 h -0.128674 l -0.09612,-0.259416 h -0.128158 l -0.09612,-0.259415 h -0.128674 l -0.09612,-0.259933 H 74.530834 L 74.434714,30.00999 H 74.30604 l -0.09612,-0.259416 h -0.128675 l -0.09612,-0.259416 h -0.128674 l -0.09612,-0.259416 h -0.128158 l -0.09612,-0.259415 h -0.128674 l -0.09612,-0.259416 h -0.128674 l -0.09612,-0.259932 h -0.129191 l -0.0956,-0.258899 H 72.733 l -0.09612,-0.259933 h -0.128158 l -0.09612,-0.259415 H 72.28396 L 72.18784,27.415316 H 72.059165 L 71.963045,27.1559 h -0.128674 l -0.09612,-0.259416 h -0.128674 l -0.09612,-0.259415 H 71.3853 l -0.09612,-0.259416 h -0.128675 l -0.09612,-0.259932 h -0.128674 l -0.09612,-0.259416 h -0.128675 l -0.09612,-0.259416 h -0.128674 l -0.09612,-0.259415 h -0.128158 l -0.09612,-0.259416 H 70.03705 l -0.09612,-0.259416 h -0.128675 l -0.09612,-0.259415 h -0.128674 l -0.09612,-0.259416 h -0.128675 l -0.09612,-0.259933 h -0.128157 l -0.09612,-0.259415 h -0.128674 l -0.09612,-0.259416 h -0.123507 -0.0052 l -0.09612,-0.259416 h -0.112137 -0.01654 l -0.09612,-0.259415 h -0.100769 -0.02791 L 68.143052,22.7448 h -0.0894 -0.03876 l -0.09612,-0.259416 h -0.07906 -0.04961 l -0.09612,-0.259415 h -0.0677 -0.06098 l -0.09612,-0.259416 h -0.05633 -0.07235 l -0.09612,-0.259933 h -0.04547 -0.0832 l -0.09612,-0.259415 h -0.03411 -0.09405 l -0.09612,-0.259416 h -0.02325 -0.10542 l -0.09612,-0.259416 h -0.0124 -0.116272 l -0.09612,-0.259415 h -0.001 -5.564519 l -5.16e-4,0.001 v 5.17e-4 L 56.823347,31.36698 c -0.06727,-0.05889 -0.137749,-0.110096 -0.205672,-0.167432 l 0.04547,-0.03979 -10e-4,-5.17e-4 c -0.0876,-0.07753 -0.180002,-0.143702 -0.268717,-0.218591 8.19e-4,-7.17e-4 0.04496,-0.03979 0.04496,-0.03979 l -5.17e-4,-0.001 c -0.08788,-0.07779 -0.180744,-0.143984 -0.269751,-0.219108 l 0.04547,-0.03979 -5.17e-4,-5.17e-4 c -0.08778,-0.0777 -0.180331,-0.144068 -0.269234,-0.219108 l 0.04548,-0.03979 -0.001,-5.17e-4 c -0.08778,-0.0777 -0.180331,-0.144068 -0.269234,-0.219108 l 0.04548,-0.03979 -10e-4,-5.16e-4 c -0.08778,-0.0777 -0.180331,-0.144064 -0.269234,-0.219108 l 0.04548,-0.03979 -10e-4,-0.001 c -0.08772,-0.07764 -0.180392,-0.143599 -0.269234,-0.218591 l 0.04548,-0.03979 -5.17e-4,-0.001 c -0.08778,-0.07769 -0.180336,-0.144067 -0.269234,-0.219108 l 0.04496,-0.03927 -5.16e-4,-0.001 c -0.08759,-0.07753 -0.180008,-0.143704 -0.268718,-0.218592 8.19e-4,-7.16e-4 0.04496,-0.03979 0.04496,-0.03979 l -10e-4,-0.001 c -0.08778,-0.0777 -0.180337,-0.144069 -0.269234,-0.219108 l 0.04548,-0.03979 -0.001,-5.17e-4 c -0.08778,-0.0777 -0.180337,-0.144062 -0.269235,-0.219108 l 0.04548,-0.03979 -10e-4,-5.16e-4 c -0.08778,-0.0777 -0.180337,-0.144068 -0.269234,-0.219108 l 0.04548,-0.03979 -5.17e-4,-5.17e-4 c -0.08788,-0.07779 -0.180744,-0.143984 -0.26975,-0.219108 l 0.04548,-0.03979 -5.17e-4,-5.17e-4 c -0.08778,-0.0777 -0.180331,-0.144068 -0.269234,-0.219108 l 0.04547,-0.03979 -10e-4,-10e-4 c -0.08772,-0.07764 -0.180392,-0.143602 -0.269235,-0.218591 l 0.04548,-0.03979 -0.001,-0.001 c -0.08772,-0.07764 -0.180391,-0.143599 -0.269234,-0.218591 l 0.04547,-0.03979 -0.001,-10e-4 c -0.0876,-0.07753 -0.180003,-0.143702 -0.268718,-0.218591 8.19e-4,-7.17e-4 0.04496,-0.03979 0.04496,-0.03979 l -0.001,-10e-4 c -0.08778,-0.0777 -0.180331,-0.144069 -0.269234,-0.219108 l 0.04547,-0.03979 -5.17e-4,-5.17e-4 c -0.08778,-0.0777 -0.180331,-0.144069 -0.269234,-0.219108 l 0.04548,-0.03979 -10e-4,-5.17e-4 c -0.08778,-0.0777 -0.180331,-0.144062 -0.269234,-0.219108 l 0.04548,-0.03979 -0.001,-5.17e-4 c -0.08778,-0.0777 -0.180336,-0.144068 -0.269234,-0.219108 l 0.04547,-0.03979 -0.001,-5.17e-4 c -0.08778,-0.0777 -0.180337,-0.144068 -0.269234,-0.219108 l 0.04548,-0.03979 -10e-4,-0.001 c -0.08772,-0.07764 -0.180397,-0.143601 -0.269234,-0.218592 l 0.04547,-0.03979 -5.16e-4,-0.001 c -0.08778,-0.0777 -0.180338,-0.144069 -0.269234,-0.219108 l 0.04496,-0.03927 -5.17e-4,-10e-4 c -0.08759,-0.07754 -0.180009,-0.143697 -0.268717,-0.218591 8.19e-4,-7.17e-4 0.04496,-0.03979 0.04496,-0.03979 l -10e-4,-0.001 c -0.08759,-0.07753 -0.180009,-0.143703 -0.268718,-0.218592 8.19e-4,-7.16e-4 0.04496,-0.03979 0.04496,-0.03979 l -0.001,-10e-4 c -0.08778,-0.0777 -0.180331,-0.144069 -0.269234,-0.219108 l 0.04548,-0.03979 -10e-4,-5.17e-4 c -0.08778,-0.0777 -0.180331,-0.144068 -0.269234,-0.219108 l 0.04548,-0.03979 -5.17e-4,-5.17e-4 c -0.08778,-0.07769 -0.180331,-0.144068 -0.269234,-0.219108 l 0.04547,-0.03979 -10e-4,-5.17e-4 c -0.08778,-0.0777 -0.180331,-0.144068 -0.269235,-0.219108 l 0.04548,-0.03979 -0.001,-5.17e-4 c -0.08778,-0.0777 -0.180331,-0.144068 -0.269234,-0.219108 l 0.04547,-0.03979 -0.001,-0.001 c -1.23728,-1.094935 -2.584867,-1.92561 -4.044363,-2.493308 l -10e-4,-5.17e-4 c -1.459396,-0.5877 -2.979864,-0.8816 -4.560962,-0.8816 z M 207.20131,165.44623 h 0.0357 v 0.062 z m 0.14831,0.25993 h 0.11214 v 0.19741 z m -22.00796,2.33475 h 0.0553 v 0.14986 z" /><g
     id="g2"
     transform="translate(0,0.122929)"><path
       style="fill:#f9f9f9;stroke-width:0.160865"
       d="m 44.767293,59.469755 c -0.03217,0.248113 -0.05478,0.499286 -0.05478,0.756026 v 29.302084 c 0,3.23161 2.629198,5.86063 5.860624,5.86063 h 48.607369 c 3.231464,0 5.860634,-2.62902 5.860634,-5.86063 V 60.225781 c 0,-0.25674 -0.0226,-0.507913 -0.0548,-0.756026 z"
       id="path16" /><path
       id="path5"
       style="fill:#f44336;fill-opacity:1;stroke-width:0.160865"
       d="m 50.573142,54.365671 c -2.974716,0 -5.433052,2.229204 -5.805847,5.104081 h 60.219065 c -0.37279,-2.874877 -2.83112,-5.104081 -5.805854,-5.104081 z" /><g
       id="g1"><path
         style="fill:#798388;fill-opacity:1;stroke-width:0.160865"
         d="m 49.787227,83.040591 h 14.612028 c 0.816296,0 1.477946,0.661665 1.477946,1.477946 0,0.816083 -0.661866,1.477429 -1.477946,1.477429 H 49.787227 c -0.815895,0 -1.477429,-0.661148 -1.477429,-1.477429 0,-0.816281 0.661534,-1.477946 1.477429,-1.477946 z"
         id="path29" /><path
         style="fill:#798388;fill-opacity:1;stroke-width:0.160865"
         d="m 49.787227,77.783547 h 25.239286 c 0.816084,0 1.47743,0.661146 1.47743,1.47743 0,0.81628 -0.661138,1.477946 -1.47743,1.477946 H 49.787227 c -0.815893,0 -1.477429,-0.661666 -1.477429,-1.477946 0,-0.816284 0.661536,-1.47743 1.477429,-1.47743 z"
         id="path28" /><path
         style="fill:#798388;fill-opacity:1;stroke-width:0.160865"
         d="m 63.674235,67.326821 h 1.459859 v 4.985226 h -1.459859 z"
         id="path24" /><path
         style="fill:#798388;fill-opacity:1;stroke-width:0.160865"
         d="m 59.051778,67.326821 h 1.399914 v 3.721737 h 2.586923 v 1.263489 h -3.986837 z"
         id="path23" /><path
         id="path22"
         style="fill:#798388;fill-opacity:1;stroke-width:0.160865"
         d="m 73.856559,67.183161 c -0.36312,10e-7 -0.706103,0.07015 -1.028878,0.211356 -0.322776,0.13617 -0.604899,0.325326 -0.846977,0.567408 -0.237034,0.237032 -0.426188,0.516967 -0.567407,0.839742 -0.136162,0.317726 -0.204122,0.658521 -0.204122,1.021643 0,0.363116 0.06796,0.706102 0.204122,1.028878 0.141219,0.322769 0.330373,0.602704 0.567407,0.839742 0.242078,0.237032 0.524201,0.425676 0.846977,0.56689 0.322775,0.136169 0.665758,0.204639 1.028878,0.204639 0.36312,0 0.706103,-0.06847 1.028878,-0.204639 0.32277,-0.141214 0.602702,-0.329858 0.839742,-0.56689 0.242072,-0.237038 0.431234,-0.516973 0.567407,-0.839742 0.141213,-0.322776 0.211873,-0.665762 0.211873,-1.028878 0,-0.363122 -0.07066,-0.706104 -0.211873,-1.028878 -0.136173,-0.322776 -0.325335,-0.602704 -0.567407,-0.839742 -0.23704,-0.237038 -0.516972,-0.424003 -0.839742,-0.560173 -0.322775,-0.141215 -0.665758,-0.211356 -1.028878,-0.211356 z m 0,1.368909 c 0.171472,0 0.330721,0.03534 0.476973,0.105936 0.151304,0.06556 0.279594,0.156339 0.385507,0.272335 0.11096,0.115997 0.196838,0.252417 0.257348,0.408761 0.06051,0.151296 0.09095,0.312733 0.09095,0.484208 0,0.171473 -0.03044,0.335098 -0.09095,0.491443 -0.06052,0.151295 -0.146403,0.287721 -0.257348,0.40876 -0.105913,0.115999 -0.234203,0.20896 -0.385507,0.27957 -0.146252,0.06556 -0.305501,0.0987 -0.476973,0.0987 -0.171472,0 -0.332905,-0.03313 -0.484208,-0.0987 -0.146258,-0.07061 -0.274562,-0.163572 -0.385506,-0.27957 -0.105914,-0.12104 -0.191779,-0.257465 -0.257349,-0.40876 -0.06051,-0.156345 -0.09095,-0.31997 -0.09095,-0.491443 0,-0.171475 0.03044,-0.332912 0.09095,-0.484208 0.06557,-0.156344 0.151436,-0.292764 0.257349,-0.408761 0.110944,-0.115995 0.239248,-0.206765 0.385506,-0.272335 0.151303,-0.07061 0.312736,-0.105936 0.484208,-0.105936 z" /><path
         id="path21"
         style="fill:#798388;fill-opacity:1;stroke-width:0.160865"
         d="m 55.942924,67.183161 c -0.363121,10e-7 -0.706103,0.07015 -1.028878,0.211356 -0.322774,0.13617 -0.605413,0.325326 -0.847494,0.567408 -0.237032,0.237032 -0.426192,0.516967 -0.567407,0.839742 -0.136172,0.317726 -0.204122,0.658521 -0.204122,1.021643 0,0.363116 0.06795,0.706102 0.204122,1.028878 0.141215,0.322769 0.330375,0.602704 0.567407,0.839742 0.242081,0.237032 0.52472,0.425676 0.847494,0.56689 0.322775,0.136169 0.665757,0.204639 1.028878,0.204639 0.363117,0 0.706107,-0.06847 1.028877,-0.204639 0.322775,-0.141214 0.602188,-0.329858 0.839226,-0.56689 0.242075,-0.237038 0.431236,-0.516973 0.567407,-0.839742 0.141213,-0.322776 0.211873,-0.665762 0.211873,-1.028878 0,-0.363122 -0.07066,-0.706104 -0.211873,-1.028878 -0.136171,-0.322776 -0.325332,-0.602704 -0.567407,-0.839742 -0.237038,-0.237038 -0.516451,-0.424003 -0.839226,-0.560173 -0.32277,-0.141215 -0.66576,-0.211356 -1.028877,-0.211356 z m 0,1.368909 c 0.171469,0 0.330199,0.03534 0.476456,0.105936 0.151302,0.06556 0.279597,0.156339 0.385507,0.272335 0.110949,0.115997 0.196828,0.252417 0.257348,0.408761 0.06052,0.151296 0.09095,0.312733 0.09095,0.484208 0,0.171473 -0.03043,0.335098 -0.09095,0.491443 -0.06052,0.151295 -0.146399,0.287721 -0.257348,0.40876 -0.10591,0.115999 -0.234205,0.20896 -0.385507,0.27957 -0.146257,0.06556 -0.304987,0.0987 -0.476456,0.0987 -0.171474,0 -0.332907,-0.03313 -0.484209,-0.0987 -0.146252,-0.07061 -0.275074,-0.163572 -0.386022,-0.27957 -0.105914,-0.12104 -0.191789,-0.257465 -0.257349,-0.40876 -0.06052,-0.156345 -0.09043,-0.31997 -0.09043,-0.491443 0,-0.171475 0.02991,-0.332912 0.09043,-0.484208 0.06556,-0.156344 0.151438,-0.292764 0.257349,-0.408761 0.110948,-0.115995 0.23977,-0.206765 0.386022,-0.272335 0.151302,-0.07061 0.312735,-0.105936 0.484209,-0.105936 z" /><path
         style="fill:#798388;fill-opacity:1;stroke-width:0.160865"
         d="m 65.822424,66.441604 h 5.031217 v 1.346688 l -0.105936,0.105937 h -1.611788 v 4.417818 h -1.595768 v -4.417818 h -1.611788 l -0.105937,-0.105937 z"
         id="path20" /><path
         id="path19"
         style="fill:#798388;fill-opacity:1;stroke-width:0.160865"
         d="m 48.309798,66.441604 v 5.870443 h 1.573547 v -1.823145 h 1.066602 c 0.282423,0 0.552042,-0.05325 0.809253,-0.159163 0.262249,-0.110954 0.491639,-0.259363 0.68833,-0.445968 0.201734,-0.191648 0.360975,-0.413942 0.476973,-0.666109 0.121045,-0.252168 0.181385,-0.524494 0.181385,-0.817004 0,-0.287472 -0.06034,-0.552187 -0.181385,-0.794267 -0.115998,-0.242081 -0.275239,-0.448649 -0.476973,-0.620117 -0.196691,-0.171474 -0.426081,-0.30519 -0.68833,-0.40101 -0.257211,-0.09582 -0.52683,-0.14366 -0.809253,-0.14366 z m 1.611271,1.301213 h 0.91519 c 0.09078,0 0.176648,0.0174 0.257348,0.05271 0.08069,0.03026 0.151354,0.07591 0.211874,0.136425 0.06052,0.05548 0.10836,0.120721 0.14366,0.196371 0.03531,0.07565 0.05271,0.159334 0.05271,0.250114 0,0.09078 -0.0174,0.173947 -0.05271,0.249597 -0.0353,0.07565 -0.08314,0.143602 -0.14366,0.204122 -0.06052,0.05547 -0.131184,0.100599 -0.211874,0.135909 -0.08069,0.03026 -0.166568,0.04547 -0.257348,0.04547 h -0.91519 z" /></g></g><path
     id="path1"
     style="fill:#5c6bc0;stroke-width:1.09875"
     d="m 90.467346,66.441423 c -3.640942,0 -6.592362,2.951936 -6.592362,6.592879 0,3.640931 2.95142,6.592362 6.592362,6.592362 3.64094,0 6.59236,-2.951431 6.59236,-6.592362 0,-3.640943 -2.95142,-6.592879 -6.59236,-6.592879 z m 0,15.382523 c -3.050901,0 -5.432253,0.243202 -7.217647,0.991671 -1.911551,0.80132 -3.08266,2.159845 -3.707268,4.134631 -0.230858,0.7299 0.31595,1.466577 1.073837,1.466577 h 19.694922 c 0.76099,0 1.31172,-0.739846 1.07901,-1.473811 -0.62651,-1.974897 -1.801884,-3.332816 -3.716574,-4.132048 -1.78382,-0.744623 -4.16163,-0.98702 -7.20628,-0.98702 z" /><text
     xml:space="preserve"
     transform="matrix(0.76034063,0,0,0.76034063,-109.86332,-40.098036)"
     id="text532"
     style="font-style:normal;font-variant:normal;font-weight:normal;font-stretch:normal;font-size:40px;line-height:1.25;font-family:PRIMETIME;-inkscape-font-specification:'PRIMETIME, Normal';font-variant-ligatures:normal;font-variant-caps:normal;font-variant-numeric:normal;font-variant-east-asian:normal;letter-spacing:0px;word-spacing:0px;white-space:pre;shape-inside:url(#rect532);fill:#ffd500;fill-opacity:1;stroke:none"><tspan
       x="181.31055"
       y="110.96094"
       id="tspan2">CARE</tspan></text><text
     xml:space="preserve"
     transform="matrix(0.80541237,0,0,0.80541237,-99.713042,-242.30187)"
     id="text533"
     style="font-style:normal;font-variant:normal;font-weight:normal;font-stretch:normal;font-size:40px;line-height:1.25;font-family:PRIMETIME;-inkscape-font-specification:'PRIMETIME, Normal';font-variant-ligatures:normal;font-variant-caps:normal;font-variant-numeric:normal;font-variant-east-asian:normal;letter-spacing:0px;word-spacing:0px;white-space:pre;shape-inside:url(#rect533);fill:#ffd500;fill-opacity:1;stroke:none"><tspan
       x="183.37109"
       y="462.25"
       id="tspan4">FAI</tspan></text><path
     id="text536"
     style="font-style:normal;font-variant:normal;font-weight:normal;font-stretch:normal;font-size:40px;line-height:1.25;font-family:PRIMETIME;-inkscape-font-specification:'PRIMETIME, Normal';font-variant-ligatures:normal;font-variant-caps:normal;font-variant-numeric:normal;font-variant-east-asian:normal;letter-spacing:0px;word-spacing:0px;white-space:pre;shape-inside:url(#rect537);fill:#ffd500;fill-opacity:1;stroke:none"
     d="m 41.3158,19.9998 c -1.7437,0 -3.3762,0.335 -4.8968,1.0041 -1.5004,0.6488 -2.8184,1.5511 -3.9538,2.7068 -1.1152,1.1354 -1.997,2.4631 -2.6458,3.9837 -0.6489,1.5004 -0.9736,3.1023 -0.9736,4.8054 0,1.7032 0.3247,3.3152 0.9736,4.8359 0.6488,1.5004 1.5306,2.8285 2.6458,3.9843 1.1354,1.1354 2.4534,2.0377 3.9538,2.7068 1.5206,0.6488 3.1531,0.973 4.8968,0.973 1.9465,0 3.7709,-0.4156 5.4741,-1.2469 1.7234,-0.8516 3.214,-2.0475 4.4711,-3.5884 l -5.0183,-4.0757 c -0.6286,0.811 -1.3685,1.4396 -2.2201,1.8856 -0.8313,0.4461 -1.7335,0.6692 -2.7068,0.6692 -0.8516,0 -1.6425,-0.1623 -2.3724,-0.4868 -0.7097,-0.3446 -1.3281,-0.7904 -1.8552,-1.3379 -0.5272,-0.5677 -0.9428,-1.2167 -1.247,-1.9466 -0.3041,-0.7502 -0.4563,-1.5412 -0.4563,-2.3725 0,-0.811 0.1522,-1.5815 0.4563,-2.3115 0.3042,-0.7502 0.7198,-1.4089 1.247,-1.9766 0.5271,-0.5677 1.1557,-1.014 1.8856,-1.3384 0.73,-0.3244 1.5204,-0.4863 2.372,-0.4863 1.2976,0 2.5349,0.4157 3.7109,1.247 l 4.8658,-4.2582 c -1.2368,-1.0949 -2.5848,-1.9261 -4.0447,-2.4939 -1.4598,-0.588 -2.9805,-0.8821 -4.562,-0.8821 z m 19.4645,0.6692 -8.7287,23.6012 h 6.6606 l 1.2164,-3.2546 h 7.2688 l 1.217,3.2546 H 75.075 L 66.3458,20.669 Z m 17.2144,0 v 23.6012 h 6.5082 l -0.0305,-7.2993 h 3.9842 l 4.1062,7.2993 h 7.0864 l -5.5356,-9.7323 c 0.9733,-0.6893 1.7336,-1.5411 2.281,-2.5548 0.5475,-1.0138 0.8212,-2.1086 0.8212,-3.2846 0,-0.7096 -0.1113,-1.4501 -0.3344,-2.2205 -0.2027,-0.7908 -0.5071,-1.4801 -0.9126,-2.0681 -0.3244,-0.4664 -0.7196,-0.9223 -1.186,-1.3684 C 94.3165,22.5954 93.8095,22.1997 93.262,21.855 92.7146,21.49 92.1467,21.2066 91.5588,21.0039 90.9708,20.7809 90.3932,20.669 89.8255,20.669 Z m 24.0873,0 v 23.6012 h 18.826 v -5.5961 h -12.683 v -3.376 h 11.953 v -5.6265 h -11.953 v -3.376 h 12.683 V 20.669 Z m -17.7921,5.2312 h 3.6804 c 0.365,0 0.7097,0.071 1.0341,0.2129 0.3244,0.1217 0.6083,0.304 0.8516,0.5473 0.2433,0.223 0.4358,0.487 0.5778,0.7912 0.1419,0.3041 0.2129,0.6385 0.2129,1.0035 0,0.365 -0.071,0.6994 -0.2129,1.0036 -0.142,0.3041 -0.3345,0.5778 -0.5778,0.8211 -0.2433,0.223 -0.5272,0.4053 -0.8516,0.5473 -0.3244,0.1216 -0.6691,0.1824 -1.0341,0.1824 h -3.6804 z m -20.7113,3.4065 1.8551,6.2348 H 61.6929 Z M 49.5226,105 49.0073,105.516 V 130 h 6.6689 v -9.343 h 11.4691 v -6.089 H 55.6762 v -3.415 H 68.6914 V 105 Z m 27.2877,0 -9.2465,25 h 7.0554 l 1.2888,-3.447 h 7.6998 L 84.8966,130 h 7.0554 l -9.2465,-25 z m 17.2036,0 v 25 h 6.7331 v -25 z m -14.24,9.15 1.9653,6.604 h -3.9625 z" /></svg>
