<?xml version="1.0" encoding="UTF-8" standalone="no"?>
<!-- Created with Inkscape (http://www.inkscape.org/) -->

<svg
   width="67.73333mm"
   height="67.73333mm"
   viewBox="0 0 67.733327 67.733327"
   version="1.1"
   id="svg1"
   xml:space="preserve"
   sodipodi:docname="A2.svg"
   inkscape:version="1.3 (0e150ed6c4, 2023-07-21)"
   inkscape:export-filename="A2.png"
   inkscape:export-xdpi="1536.0001"
   inkscape:export-ydpi="1536.0001"
   xmlns:inkscape="http://www.inkscape.org/namespaces/inkscape"
   xmlns:sodipodi="http://sodipodi.sourceforge.net/DTD/sodipodi-0.dtd"
   xmlns="http://www.w3.org/2000/svg"
   xmlns:svg="http://www.w3.org/2000/svg"><sodipodi:namedview
     id="namedview1"
     pagecolor="#ffffff"
     bordercolor="#999999"
     borderopacity="1"
     inkscape:showpageshadow="2"
     inkscape:pageopacity="0"
     inkscape:pagecheckerboard="0"
     inkscape:deskcolor="#d1d1d1"
     inkscape:document-units="mm"
     inkscape:zoom="1.9077568"
     inkscape:cx="179.79231"
     inkscape:cy="138.12033"
     inkscape:window-width="1920"
     inkscape:window-height="1001"
     inkscape:window-x="-9"
     inkscape:window-y="-9"
     inkscape:window-maximized="1"
     inkscape:current-layer="svg1" /><defs
     id="defs1"><rect
       x="183.3709"
       y="418.25046"
       width="227.66837"
       height="90.655273"
       id="rect533" /><rect
       x="181.31055"
       y="66.961281"
       width="186.46143"
       height="74.172501"
       id="rect532" /><rect
       x="181.31055"
       y="66.961281"
       width="186.46143"
       height="74.172501"
       id="rect535" /><rect
       x="181.31055"
       y="66.961281"
       width="186.46143"
       height="74.172501"
       id="rect537" /></defs><path
     id="rect1-3"
     style="fill:#90caf9;fill-opacity:1;stroke-width:0.133494"
     d="M 0,0 H 67.73332 V 67.733329 H 0 Z" /><path
     id="path41"
     style="fill:#000001;fill-opacity:0.247059;stroke-width:0.0727587"
     d="m 18.687015,9.0458516 c -0.394334,0 -0.776134,0.037884 -1.145281,0.113593 -0.369148,0.075706 -0.725654,0.1892301 -1.069552,0.340546 -0.678627,0.2934597 -1.274719,0.7015574 -1.788275,1.2242824 -0.504384,0.513555 -0.903241,1.114033 -1.196702,1.801831 -0.29346,0.678626 -0.440348,1.403131 -0.440348,2.173463 0,0.770333 0.146888,1.499455 0.440348,2.187254 0.293461,0.678626 0.692318,1.279339 1.196702,1.802064 l 6.543295,6.543062 c -0.522583,0.418847 -0.888775,1.025119 -0.979098,1.721661 -0.01455,0.112221 -0.02478,0.225826 -0.02478,0.341949 v 13.253241 c 0,0.36541 0.0744,0.713732 0.208722,1.030752 0.06716,0.15851 0.149348,0.309123 0.244716,0.450166 0.04313,0.0638 0.09795,0.117944 0.146316,0.177635 0.05858,0.07229 0.111671,0.149303 0.177402,0.215033 l 4.696587,4.696586 0.3721,0.3721 h -3.670276 l -0.233029,0.233263 v 11.074171 l 8.934829,8.934829 H 67.733333 V 22.395623 L 54.686244,9.3485332 h -8.514818 v 4.3728698 l -3.223849,-3.223849 c -0.02537,-0.02537 -0.05118,-0.05072 -0.0776,-0.07596 C 42.659052,10.219837 42.429715,10.040845 42.182109,9.8849454 41.934501,9.7198738 41.677679,9.591697 41.411731,9.4999906 41.145785,9.3991135 40.884577,9.3485332 40.627798,9.3485332 H 35.276764 V 14.617294 L 30.008003,9.3485332 h -2.517281 l -1.65645,4.4787508 -3.254469,-3.254469 C 22.020394,10.077601 21.410676,9.7016074 20.750392,9.4448303 20.090106,9.1788812 19.402325,9.0458516 18.687015,9.0458516 Z" /><path
     style="fill:#f9f9f9;stroke-width:0.0727587"
     d="m 20.248104,26.953581 c -0.01455,0.112221 -0.02478,0.225825 -0.02478,0.341948 v 13.253239 c 0,1.461647 1.189178,2.650744 2.650742,2.650744 h 21.984957 c 1.461581,0 2.650747,-1.189097 2.650747,-2.650744 V 27.295529 c 0,-0.116123 -0.01022,-0.229727 -0.02479,-0.341948 z"
     id="path16" /><path
     id="path5"
     style="fill:#f44336;fill-opacity:1;stroke-width:0.0727587"
     d="m 22.874071,24.64502 c -1.345455,0 -2.457352,1.008262 -2.625966,2.308559 H 47.484996 C 47.316384,25.653282 46.204489,24.64502 44.859026,24.64502 Z" /><path
     style="fill:#798388;fill-opacity:1;stroke-width:0.0727587"
     d="m 22.518604,37.614595 h 6.608974 c 0.369208,0 0.66847,0.299269 0.66847,0.66847 0,0.369112 -0.29936,0.668236 -0.66847,0.668236 h -6.608974 c -0.369027,0 -0.668236,-0.299035 -0.668236,-0.668236 0,-0.369201 0.299209,-0.66847 0.668236,-0.66847 z"
     id="path29" /><path
     style="fill:#798388;fill-opacity:1;stroke-width:0.0727587"
     d="m 22.518604,35.236851 h 11.415648 c 0.369113,0 0.668237,0.299034 0.668237,0.668236 0,0.369201 -0.29903,0.668471 -0.668237,0.668471 H 22.518604 c -0.369026,0 -0.668236,-0.29927 -0.668236,-0.668471 0,-0.369202 0.29921,-0.668236 0.668236,-0.668236 z"
     id="path28" /><path
     style="fill:#798388;fill-opacity:1;stroke-width:0.0727587"
     d="m 28.799653,30.507307 h 0.66029 v 2.254802 h -0.66029 z"
     id="path24" /><path
     style="fill:#798388;fill-opacity:1;stroke-width:0.0727587"
     d="m 26.708931,30.507307 h 0.633176 v 1.68333 h 1.170057 v 0.571472 h -1.803233 z"
     id="path23" /><path
     id="path22"
     style="fill:#798388;fill-opacity:1;stroke-width:0.0727587"
     d="m 33.405086,30.44233 c -0.164238,0 -0.319368,0.03173 -0.465358,0.0956 -0.145991,0.06159 -0.273594,0.147144 -0.383085,0.256637 -0.10721,0.107209 -0.192764,0.233823 -0.256637,0.379813 -0.06159,0.143706 -0.09232,0.297847 -0.09232,0.462086 0,0.164236 0.03074,0.319367 0.09232,0.465358 0.06387,0.145987 0.149427,0.272601 0.256637,0.379813 0.109491,0.107208 0.237094,0.192532 0.383085,0.256402 0.14599,0.06159 0.30112,0.09256 0.465358,0.09256 0.164238,0 0.319368,-0.03097 0.465358,-0.09256 0.145988,-0.06387 0.2726,-0.149194 0.379813,-0.256402 0.109488,-0.107212 0.195046,-0.233826 0.256636,-0.379813 0.06387,-0.145991 0.09583,-0.301122 0.09583,-0.465358 0,-0.164239 -0.03196,-0.319369 -0.09583,-0.465358 -0.06159,-0.145991 -0.147148,-0.272602 -0.256636,-0.379813 -0.107213,-0.107212 -0.233825,-0.191775 -0.379813,-0.253365 -0.14599,-0.06387 -0.30112,-0.0956 -0.465358,-0.0956 z m 0,0.619153 c 0.07756,0 0.149584,0.01598 0.215733,0.04791 0.06844,0.02965 0.12646,0.07071 0.174364,0.123177 0.05019,0.05247 0.08903,0.114167 0.116398,0.184881 0.02737,0.06843 0.04114,0.141448 0.04114,0.219006 0,0.07756 -0.01377,0.151564 -0.04114,0.222278 -0.02737,0.06843 -0.06622,0.130135 -0.116398,0.184881 -0.0479,0.05247 -0.105929,0.09451 -0.174364,0.126448 -0.06615,0.02965 -0.138177,0.04464 -0.215733,0.04464 -0.07756,0 -0.150572,-0.01498 -0.219006,-0.04464 -0.06615,-0.03194 -0.124183,-0.07398 -0.174363,-0.126448 -0.0479,-0.05475 -0.08674,-0.116451 -0.116398,-0.184881 -0.02737,-0.07071 -0.04114,-0.144722 -0.04114,-0.222278 0,-0.07756 0.01377,-0.150575 0.04114,-0.219006 0.02966,-0.07071 0.06849,-0.132416 0.116398,-0.184881 0.05018,-0.05246 0.108211,-0.09352 0.174363,-0.123177 0.06843,-0.03194 0.14145,-0.04791 0.219006,-0.04791 z" /><path
     id="path21"
     style="fill:#798388;fill-opacity:1;stroke-width:0.0727587"
     d="m 25.302806,30.44233 c -0.164238,0 -0.319368,0.03173 -0.465358,0.0956 -0.14599,0.06159 -0.273827,0.147144 -0.383319,0.256637 -0.107209,0.107209 -0.192765,0.233823 -0.256636,0.379813 -0.06159,0.143706 -0.09232,0.297847 -0.09232,0.462086 0,0.164236 0.03073,0.319367 0.09232,0.465358 0.06387,0.145987 0.149427,0.272601 0.256636,0.379813 0.109492,0.107208 0.237329,0.192532 0.383319,0.256402 0.14599,0.06159 0.30112,0.09256 0.465358,0.09256 0.164237,0 0.31937,-0.03097 0.465358,-0.09256 0.14599,-0.06387 0.272368,-0.149194 0.379579,-0.256402 0.10949,-0.107212 0.195047,-0.233826 0.256636,-0.379813 0.06387,-0.145991 0.09583,-0.301122 0.09583,-0.465358 0,-0.164239 -0.03196,-0.319369 -0.09583,-0.465358 -0.06159,-0.145991 -0.147146,-0.272602 -0.256636,-0.379813 -0.107211,-0.107212 -0.233589,-0.191775 -0.379579,-0.253365 -0.145988,-0.06387 -0.301121,-0.0956 -0.465358,-0.0956 z m 0,0.619153 c 0.07756,0 0.149348,0.01598 0.2155,0.04791 0.06843,0.02965 0.12646,0.07071 0.174363,0.123177 0.05018,0.05247 0.08903,0.114167 0.116398,0.184881 0.02737,0.06843 0.04114,0.141448 0.04114,0.219006 0,0.07756 -0.01376,0.151564 -0.04114,0.222278 -0.02737,0.06843 -0.06622,0.130135 -0.116398,0.184881 -0.0479,0.05247 -0.10593,0.09451 -0.174363,0.126448 -0.06615,0.02965 -0.137945,0.04464 -0.2155,0.04464 -0.07756,0 -0.150573,-0.01498 -0.219006,-0.04464 -0.06615,-0.03194 -0.124415,-0.07398 -0.174597,-0.126448 -0.0479,-0.05475 -0.08675,-0.116451 -0.116398,-0.184881 -0.02737,-0.07071 -0.0409,-0.144722 -0.0409,-0.222278 0,-0.07756 0.01353,-0.150575 0.0409,-0.219006 0.02965,-0.07071 0.06849,-0.132416 0.116398,-0.184881 0.05018,-0.05246 0.108448,-0.09352 0.174597,-0.123177 0.06843,-0.03194 0.141449,-0.04791 0.219006,-0.04791 z" /><path
     style="fill:#798388;fill-opacity:1;stroke-width:0.0727587"
     d="m 29.771272,30.106926 h 2.275604 v 0.609103 l -0.04791,0.04791 H 31.26996 v 1.998165 h -0.721761 v -1.998165 h -0.729007 l -0.04791,-0.04791 z"
     id="path20" /><path
     id="path19"
     style="fill:#798388;fill-opacity:1;stroke-width:0.0727587"
     d="m 21.850368,30.106926 v 2.655183 h 0.71171 v -0.824603 h 0.48242 c 0.12774,0 0.249687,-0.02408 0.366023,-0.07199 0.118614,-0.05018 0.222367,-0.117309 0.311329,-0.20171 0.09124,-0.08668 0.163268,-0.187225 0.215734,-0.301279 0.05475,-0.114055 0.08204,-0.237227 0.08204,-0.369528 0,-0.130023 -0.02729,-0.249753 -0.08204,-0.359245 -0.05247,-0.109492 -0.12449,-0.202922 -0.215734,-0.280477 -0.08896,-0.07756 -0.192715,-0.138036 -0.311329,-0.181375 -0.116336,-0.04334 -0.238283,-0.06498 -0.366023,-0.06498 z m 0.728772,0.588534 h 0.413938 c 0.04106,0 0.0799,0.0079 0.116397,0.02384 0.0365,0.01369 0.06846,0.03433 0.09583,0.0617 0.02737,0.02509 0.04901,0.0546 0.06498,0.08882 0.01597,0.03422 0.02384,0.07207 0.02384,0.113125 0,0.04106 -0.0079,0.07868 -0.02384,0.112892 -0.01597,0.03422 -0.0376,0.06495 -0.06498,0.09232 -0.02737,0.02509 -0.05933,0.0455 -0.09583,0.06147 -0.03649,0.01369 -0.07534,0.02057 -0.116397,0.02057 H 22.57914 Z" /><path
     id="path1"
     style="fill:#5c6bc0;stroke-width:0.496961"
     d="m 40.918092,30.051244 c -1.646786,0 -2.981704,1.335151 -2.981704,2.981938 0,1.646781 1.334918,2.981704 2.981704,2.981704 1.646786,0 2.981703,-1.334923 2.981703,-2.981704 0,-1.646787 -1.334917,-2.981938 -2.981703,-2.981938 z m 0,6.957466 c -1.379913,0 -2.456991,0.109999 -3.264519,0.448529 -0.864588,0.362435 -1.394277,0.976891 -1.676785,1.870081 -0.104417,0.330131 0.142903,0.663328 0.485693,0.663328 h 8.90795 c 0.344194,0 0.593287,-0.33463 0.488033,-0.6666 -0.283368,-0.89324 -0.814986,-1.507422 -1.680995,-1.868912 -0.806816,-0.336791 -1.882292,-0.446426 -3.259377,-0.446426 z" /><path
     style="font-size:40px;line-height:1.25;font-family:PRIMETIME;-inkscape-font-specification:'PRIMETIME, Normal';letter-spacing:0px;word-spacing:0px;white-space:pre;fill:#ffd500;stroke-width:0.3439"
     d="M 46.171395,20.023214 V 9.3485681 h 8.514955 v 2.5448569 h -5.736246 v 1.526915 h 5.406103 v 2.544857 h -5.406103 v 1.526915 h 5.736246 v 2.531102 z"
     id="path11" /><path
     id="path9"
     style="font-size:40px;line-height:1.25;font-family:PRIMETIME;-inkscape-font-specification:'PRIMETIME, Normal';letter-spacing:0px;word-spacing:0px;white-space:pre;fill:#ffd500;stroke-width:0.3439"
     d="M 35.276765,9.3485331 V 20.023255 h 2.943605 l -0.01379,-3.301447 h 1.802065 l 1.857227,3.301447 h 3.205151 l -2.503727,-4.401853 c 0.440192,-0.311802 0.784081,-0.697033 1.031689,-1.155566 0.247607,-0.458532 0.371398,-0.953695 0.371398,-1.485593 0,-0.320972 -0.05035,-0.655857 -0.151223,-1.004341 -0.09171,-0.357656 -0.229357,-0.669443 -0.412769,-0.935391 -0.146732,-0.210925 -0.325488,-0.417165 -0.536412,-0.61892 C 42.659052,10.219837 42.429716,10.040846 42.182108,9.8849453 41.9345,9.7198735 41.677679,9.5916969 41.411731,9.4999906 41.145784,9.3991135 40.884578,9.3485331 40.627798,9.3485331 Z m 2.84731,2.3660569 h 1.664629 c 0.165072,0 0.320965,0.0321 0.467697,0.0963 0.146728,0.05502 0.27514,0.137472 0.385188,0.247521 0.110048,0.100876 0.197116,0.220282 0.261312,0.357842 0.06419,0.137559 0.09629,0.288833 0.09629,0.453905 0,0.165071 -0.0321,0.316346 -0.09629,0.453905 -0.0642,0.13756 -0.151264,0.261351 -0.261312,0.371398 -0.110048,0.100877 -0.23846,0.183327 -0.385188,0.247521 -0.146732,0.05502 -0.302625,0.08251 -0.467697,0.08251 h -1.664629 z" /><path
     id="path7"
     style="font-size:40px;line-height:1.25;font-family:PRIMETIME;-inkscape-font-specification:'PRIMETIME, Normal';letter-spacing:0px;word-spacing:0px;white-space:pre;fill:#ffd500;stroke-width:0.3439"
     d="M 27.490722,9.3485331 23.542775,20.023255 h 3.012557 l 0.550202,-1.472038 h 3.287656 l 0.550439,1.472038 h 3.012554 L 30.008002,9.3485331 Z m 1.265654,3.9068109 0.839091,2.819963 h -1.691976 z" /><path
     style="font-size:40px;line-height:1.25;font-family:PRIMETIME;-inkscape-font-specification:'PRIMETIME, Normal';letter-spacing:0px;word-spacing:0px;white-space:pre;fill:#ffd500;stroke-width:0.3439"
     d="m 18.686926,20.353357 q -1.183015,0 -2.214714,-0.440191 -1.017943,-0.453948 -1.788278,-1.224283 -0.756579,-0.784091 -1.196771,-1.802034 -0.440191,-1.0317 -0.440191,-2.187203 0,-1.155503 0.440191,-2.173445 0.440192,-1.031699 1.196771,-1.802035 0.770335,-0.7840905 1.788278,-1.224282 1.031699,-0.4539479 2.214714,-0.4539479 1.072967,0 2.063398,0.3989236 0.99043,0.3851676 1.829546,1.1279913 l -2.200958,1.925838 q -0.797847,-0.563996 -1.67823,-0.563996 -0.577752,0 -1.072967,0.220096 -0.495216,0.220096 -0.852871,0.605263 -0.357656,0.385168 -0.563996,0.89414 -0.20634,0.495215 -0.20634,1.045454 0,0.563996 0.20634,1.072967 0.20634,0.495217 0.563996,0.880384 0.357655,0.371412 0.839115,0.605264 0.495215,0.220095 1.072967,0.220095 0.660287,0 1.224282,-0.302631 0.577752,-0.302632 1.004187,-0.852871 l 2.269738,1.843302 q -0.852871,1.045455 -2.02213,1.623206 -1.155503,0.563995 -2.476077,0.563995 z"
     id="text532" /><path
     style="font-size:40px;line-height:1.25;font-family:PRIMETIME;-inkscape-font-specification:'PRIMETIME, Normal';letter-spacing:0px;word-spacing:0px;white-space:pre;fill:#ffd500;stroke-width:0.364285"
     d="m 42.522077,58.798584 v -11.30742 h 3.045427 v 11.30742 z"
     id="path14" /><path
     id="path12"
     style="font-size:40px;line-height:1.25;font-family:PRIMETIME;-inkscape-font-specification:'PRIMETIME, Normal';letter-spacing:0px;word-spacing:0px;white-space:pre;fill:#ffd500;stroke-width:0.364285"
     d="m 34.741053,47.491069 -4.182146,11.307435 h 3.191126 l 0.582926,-1.558985 h 3.48259 l 0.582926,1.558985 h 3.191126 L 37.407455,47.491069 Z m 1.340447,4.13844 0.888878,2.987082 H 35.17813 Z" /><path
     style="font-size:40px;line-height:1.25;font-family:PRIMETIME;-inkscape-font-specification:'PRIMETIME, Normal';letter-spacing:0px;word-spacing:0px;white-space:pre;fill:#ffd500;stroke-width:0.364285"
     d="m 25.182097,50.274305 v 1.54457 h 5.187425 v 2.753998 h -5.187425 v 4.225711 H 22.165814 V 47.724307 l 0.233142,-0.233143 h 8.669994 v 2.783141 z"
     id="text533" /></svg>
