<?xml version="1.0" encoding="UTF-8" standalone="no"?>
<!-- Created with Inkscape (http://www.inkscape.org/) -->

<svg
   width="149.75414mm"
   height="149.75417mm"
   viewBox="0 0 149.75413 149.75416"
   version="1.1"
   id="svg1"
   xml:space="preserve"
   sodipodi:docname="template-matricole-a.svg"
   xmlns:inkscape="http://www.inkscape.org/namespaces/inkscape"
   xmlns:sodipodi="http://sodipodi.sourceforge.net/DTD/sodipodi-0.dtd"
   xmlns="http://www.w3.org/2000/svg"
   xmlns:svg="http://www.w3.org/2000/svg"><sodipodi:namedview
     id="namedview1"
     pagecolor="#ffffff"
     bordercolor="#999999"
     borderopacity="1"
     inkscape:showpageshadow="2"
     inkscape:pageopacity="0"
     inkscape:pagecheckerboard="0"
     inkscape:deskcolor="#d1d1d1"
     inkscape:document-units="mm"
     inkscape:zoom="0.9707102"
     inkscape:cx="425.46169"
     inkscape:cy="349.74393"
     inkscape:window-width="1920"
     inkscape:window-height="991"
     inkscape:window-x="-9"
     inkscape:window-y="-9"
     inkscape:window-maximized="1"
     inkscape:current-layer="svg1" /><defs
     id="defs1"><rect
       x="128.7717"
       y="414.12979"
       width="302.87103"
       height="109.1984"
       id="rect1040" /><rect
       x="124.651"
       y="63.870762"
       width="290.50894"
       height="105.07771"
       id="rect1039" /></defs><path
     id="rect1-3"
     style="fill:#90caf9;fill-opacity:1;stroke-width:0.295148"
     d="M 0,0 H 149.75414 V 149.75416 H 0 Z"
     inkscape:export-filename="..\a\A3.png"
     inkscape:export-xdpi="347.36404"
     inkscape:export-ydpi="347.36404" /><path
     id="path1044"
     style="font-size:40px;line-height:1.25;font-family:PRIMETIME;-inkscape-font-specification:'PRIMETIME, Normal';letter-spacing:0px;word-spacing:0px;white-space:pre;fill:#000000;fill-opacity:0.31"
     d="m 45.595667,19.999813 -0.499712,0.500228 v 5.16e-4 23.749455 h 0.220142 v 0.259933 h 0.220658 v 0.259932 h 0.220142 v 0.260449 h 0.220658 v 0.259933 h 0.220142 v 0.259932 h 0.220142 v 0.259933 h 0.220658 v 0.260449 h 0.220142 v 0.259932 h 0.220141 v 0.259933 h 5.17e-4 0.220141 v 0.259932 h 0.220142 v 0.260449 h 0.220658 v 0.259933 h 0.220142 v 0.259932 h 0.220142 v 0.259933 h 0.220658 v 0.259932 h 0.220142 v 0.26045 h 0.220658 v 0.259932 h 0.220142 v 0.259932 h 0.220141 v 0.259933 h 0.220659 v 0.260449 h 0.220141 v 0.259933 h 0.220142 v 0.259932 h 5.17e-4 0.220141 v 0.259932 h 0.220142 v 0.26045 h 0.220658 v 0.259932 h 0.220142 v 0.259933 h 0.220141 v 0.259932 h 0.220659 v 0.260449 h 0.220141 v 0.259933 h 0.220142 v 0.259932 h 5.17e-4 0.220141 v 0.259933 h 0.220142 v 0.259932 h 0.220658 v 0.260449 h 0.220142 v 0.259933 h 0.220141 v 0.259932 h 5.17e-4 0.220142 v 0.259933 h 0.220141 v 0.260449 h 0.220659 v 0.259932 h 0.220141 v 0.259933 h 0.220142 v 0.259932 h 0.220658 v 0.260449 h 0.220142 v 0.259933 h 0.220141 v 0.259932 h 5.17e-4 0.220142 v 0.259933 h 0.220141 v 0.260449 h 0.220659 v 0.259933 h 0.220141 v 0.259932 h 0.220142 v 0.259932 h 0.220658 v 0.259933 h 0.220142 v 0.260449 h 0.220658 v 0.259933 h 0.220142 v 0.259932 h 0.220142 v 0.259932 h 0.220658 v 0.26045 h 0.220142 v 0.259932 h 0.220141 v 0.259933 h 5.17e-4 0.220142 v 0.259932 h 0.220141 v 0.260449 h 0.220658 v 0.259933 h 0.220142 v 0.259932 h 0.220142 v 0.259933 h 0.220658 v 0.259932 h 0.220142 v 0.260449 h 0.220658 v 0.259933 h 0.220142 v 0.259932 h 0.220141 v 0.259933 h 0.220659 v 0.260449 h 0.220141 v 0.259932 h 0.220142 v 0.259933 h 0.220658 v 0.259932 h 0.220142 v 0.260449 h 0.220658 v 0.259933 h 0.220142 v 0.259932 h 0.220141 v 0.259933 h 0.220659 v 0.260449 h 0.220141 v 0.259933 h 0.220142 v 0.259932 h 0.220658 v 0.259932 h 0.220142 v 0.259933 h 0.220658 v 0.260449 h 0.220142 v 0.259933 h 0.220141 v 0.259932 h 0.220659 v 0.260449 h 0.220141 v 0.259933 h 0.220659 v 0.259932 h 0.220141 v 0.259933 h 0.220142 v 0.259932 h 0.220658 v 0.260449 h 0.220142 v 0.259933 h 0.220142 v 0.259932 h 0.220658 v 0.259933 h 0.220141 v 0.259932 h 0.220659 v 0.260449 h 0.220141 v 0.259933 h 0.220142 v 0.259932 h 0.220658 v 0.260449 h 0.220142 v 0.259933 h 0.220142 v 0.259932 h 0.220658 v 0.259933 h 0.220142 v 0.259932 h 0.220658 v 0.260449 h 0.220142 v 0.259933 h 0.220141 v 0.259932 h 0.220659 v 0.259933 h 0.220141 v 0.260449 h 0.220659 v 0.259932 h 0.220141 v 0.259933 h 0.220142 v 0.259932 h 0.220658 v 0.26045 h 0.220142 v 0.259932 h 0.220141 v 0.259933 h 0.220659 v 0.259932 h 0.220141 v 0.260449 h 0.220659 v 0.259933 h 0.220141 v 0.259932 h 0.220142 v 0.259933 h 0.220658 v 0.259932 h 0.220142 v 0.260449 h 0.220141 v 0.259933 h 0.220659 v 0.259932 h 0.220141 v 0.259933 h 0.220659 v 0.260449 h 0.220141 v 0.259932 h 0.220142 v 0.259933 h 0.220658 v 0.259932 h 0.220142 v 0.260449 h 0.220141 v 0.259933 h 0.220659 v 0.259932 h 0.220141 v 0.259933 h 0.220659 v 0.260449 h 0.220141 v 0.259932 h 0.220142 v 0.259933 h 0.220658 v 0.259932 h 0.220142 v 0.259933 h 0.220658 v 0.260449 h 0.220142 v 0.259932 h 0.220142 v 0.259933 h 0.220658 v 0.259932 h 0.220142 v 0.26045 h 0.220141 v 0.259932 h 0.220658 v 0.259933 h 0.220142 v 0.259932 h 0.220658 v 0.260449 h 0.220142 v 0.259933 h 0.220142 v 0.259932 h 0.220658 v 0.259933 h 0.220142 v 0.259932 h 0.220141 v 0.260449 h 5.17e-4 0.220142 v 0.259933 h 0.220141 v 0.259932 H 78.36731 V 83.5179 h 0.220141 v 0.260449 h 0.220142 v 0.259932 h 5.17e-4 0.220141 v 0.259933 h 0.220142 v 0.259932 h 0.220658 v 0.260449 h 0.220142 v 0.259933 h 0.220141 v 0.259932 h 0.220659 v 0.259933 h 0.220141 v 0.260449 h 0.220142 v 0.259932 h 5.17e-4 0.220141 v 0.259933 h 0.220142 v 0.259932 h 0.220658 v 0.259933 h 0.220142 v 0.260449 h 0.220141 v 0.259932 h 5.17e-4 0.220142 v 0.259933 h 0.220141 v 0.259932 h 0.220142 v 0.26045 h 5.17e-4 0.220141 V 88.4592 h 0.220142 v 0.259932 h 0.220658 v 0.259933 h 0.220142 v 0.260449 h 0.220142 v 0.259933 h 5.16e-4 0.220142 v 0.259932 H 83.8755 v 0.259933 h 0.220142 v 0.259932 h 5.17e-4 0.220141 v 0.260449 h 0.220142 v 0.259933 H 84.7571 v 0.259932 h 0.220142 v 0.259933 h 0.220142 v 0.260449 h 5.16e-4 0.220142 v 0.259932 h 0.220142 v 0.259933 h 0.220658 v 0.259932 h 0.220142 v 0.260449 h 0.220141 v 0.259933 h 5.17e-4 0.220142 v 0.259932 h 0.220141 v 0.259933 h 0.220142 v 0.260449 h 5.16e-4 0.220142 v 0.259932 h 0.220142 v 0.259933 h 0.220658 v 0.259932 h 0.220142 v 0.259933 h 0.220141 v 0.260449 h 5.17e-4 0.220142 v 0.259932 h 0.220141 v 0.259933 h 0.220142 v 0.259932 h 5.17e-4 0.220141 v 0.26045 h 0.220142 v 0.259932 h 0.220658 v 0.259932 h 0.220142 v 0.259933 h 0.220141 v 0.260449 h 5.17e-4 0.220142 v 0.259933 h 0.220141 v 0.259932 h 0.220659 v 0.259933 h 0.220141 v 0.260449 h 0.220142 v 0.259932 h 5.17e-4 0.220141 v 0.259933 h 0.220142 v 0.259932 h 0.220141 v 0.259933 h 5.17e-4 0.220142 v 0.260449 h 0.220141 v 0.259932 h 0.220659 v 0.259933 h 0.220141 v 0.260444 h 0.220142 v 0.25994 h 5.17e-4 0.220141 v 0.26045 h 0.220142 v 0.25993 h 0.220142 v 0.25993 h 5.16e-4 0.220142 v 0.25993 h 0.220142 v 0.25994 h 0.220658 v 0.25993 h 0.220142 v 0.25993 h 0.220141 v 0.25993 h 5.17e-4 0.220141 v 0.26045 h 0.220142 v 0.25994 h 0.220658 v 0.25993 h 0.220142 v 0.25993 h 0.220142 v 0.25993 h 5.16e-4 0.220142 v 0.25994 h 0.220142 v 0.25993 h 0.220141 v 0.26045 h 5.17e-4 0.220142 v 0.26096 h 0.220141 v 0.25994 h 0.220659 v 0.25993 h 0.220141 v 0.25993 h 0.220142 v 0.0171 h -9.665043 v 10e-4 10.92801 c -0.06384,-0.0782 -0.130968,-0.15354 -0.196888,-0.22996 -0.07242,-0.0894 -0.147084,-0.17691 -0.222208,-0.26406 -0.0721,-0.0891 -0.146405,-0.17622 -0.221175,-0.26304 -0.07491,-0.0926 -0.152175,-0.18321 -0.22996,-0.27337 -0.07244,-0.0894 -0.1476,-0.1764 -0.222726,-0.26355 -0.07181,-0.0886 -0.145702,-0.17556 -0.220142,-0.262 -0.07408,-0.0915 -0.150498,-0.18107 -0.227376,-0.27026 -0.07251,-0.0895 -0.147031,-0.17732 -0.222208,-0.26459 -0.07385,-0.0912 -0.150242,-0.18034 -0.22686,-0.26923 -0.07236,-0.0893 -0.147205,-0.17647 -0.222209,-0.26355 -0.07357,-0.0908 -0.149521,-0.17964 -0.225826,-0.2682 -0.07313,-0.0902 -0.148445,-0.17863 -0.224275,-0.26665 -0.07243,-0.0894 -0.147139,-0.17688 -0.222209,-0.26407 -0.0728,-0.0899 -0.147785,-0.17796 -0.223242,-0.26561 -0.07364,-0.0909 -0.149984,-0.17957 -0.226343,-0.26821 -0.07268,-0.0897 -0.147411,-0.17761 -0.222725,-0.2651 -0.07311,-0.0902 -0.148502,-0.17864 -0.224276,-0.26665 -0.07343,-0.0906 -0.149193,-0.1793 -0.225309,-0.26768 -0.07236,-0.0892 -0.147252,-0.17646 -0.222209,-0.26355 -0.07443,-0.0919 -0.151232,-0.18171 -0.22841,-0.2713 -0.07096,-0.0874 -0.144115,-0.17303 -0.217558,-0.25838 -0.07496,-0.0925 -0.152227,-0.18316 -0.22996,-0.27337 -0.07196,-0.0887 -0.146153,-0.17544 -0.220658,-0.262 -0.07291,-0.0899 -0.148236,-0.17785 -0.223759,-0.26562 -0.073,-0.0901 -0.14814,-0.17825 -0.223759,-0.26613 -0.07353,-0.0907 -0.149129,-0.17972 -0.225309,-0.2682 -0.282267,-0.34799 -0.579025,-0.68425 -0.900204,-0.99994 l -0.001,-10e-4 c -1.136599,-1.137 -2.476478,-2.02891 -4.018876,-2.67891 h -0.001 c -1.522198,-0.67 -3.145505,-1.00511 -4.870504,-1.00511 h -0.001 -5.17e-4 c -1.745798,0 -3.380045,0.33511 -4.902543,1.00511 -1.436283,0.61315 -2.694401,1.44962 -3.787366,2.49597 h -0.01912 l 0.03152,-0.0367 c 0.0015,-0.002 0.192537,-0.22324 0.192237,-0.22324 h -0.444934 l 0.05168,-0.06 c 0.0013,-0.001 0.173316,-0.20102 0.173116,-0.20102 h -0.444417 l 0.07028,-0.0811 c 0.0012,-0.002 0.153779,-0.1788 0.153479,-0.1788 h -0.443384 l 0.08888,-0.10284 c 0.0011,-0.002 0.134558,-0.15709 0.134358,-0.15709 H 62.46967 l 0.109037,-0.12609 c 9e-4,-0.001 0.115439,-0.13385 0.115239,-0.13385 H 62.24943 l 0.128158,-0.14831 0.0956,-0.11162 h -0.444934 l 0.147795,-0.17105 0.077,-0.0894 H 61.80863 l 0.166398,-0.19275 0.05788,-0.0672 h -0.444417 l 0.185518,-0.21497 0.03824,-0.045 H 61.36783 l 0.205156,-0.23771 0.01912,-0.0222 h -0.444417 l 0.224276,-0.25994 h -5.17e-4 -7.977291 l -3.183785,3.90106 h -0.217558 v -0.0382 l -0.001,-0.2217 h -0.219108 v -0.0543 l -10e-4,-0.20567 h -0.219108 v -0.0703 l -0.0016,-0.19017 H 49.33189 v -0.0858 l -0.001,-0.17415 h -0.219108 v -0.1018 l -10e-4,-0.15813 h -0.219624 v -0.11782 l -10e-4,-0.14315 H 48.67105 v -0.13281 l -10e-4,-0.12712 h -0.219108 v -0.14883 l -10e-4,-0.1111 h -0.219625 v -0.16537 l -10e-4,-0.0946 h -0.219108 v -0.18035 l -0.001,-0.0796 h -0.219108 v -0.19637 l -0.0016,-0.0641 h -0.219109 v -0.21187 l -10e-4,-0.0481 h -0.219108 v -0.22789 l -10e-4,-0.032 h -0.219625 v -0.24391 l -10e-4,-0.016 h -0.219108 v -0.25994 h -0.001 -6.484875 v 23.62905 h 0.220141 v 0.21291 0.047 h 0.220659 v 0.16589 0.0941 h 0.220141 v 0.11885 0.14108 h 0.220659 v 0.0724 0.18758 h 0.220141 v 0.0243 0.23564 h 0.220142 v 0.26045 h 0.220658 v 0.25994 h 0.220142 v 0.25993 h 0.220142 v 0.25993 h 0.220658 v 0.26097 h 0.220142 v 0.25993 h 0.220658 v 0.25993 h 0.220142 v 0.25993 h 0.220141 v 0.26045 H 43.7279 v 0.25994 h 0.220142 v 0.25993 h 0.220142 V 133.69 h 0.220658 v 0.25993 h 0.220142 v 0.25994 h 0.220658 v 0.25993 h 0.220142 v 0.25993 h 0.220141 v 0.26045 h 0.220659 v 0.25993 h 0.220141 v 0.25993 h 0.220659 v 0.25994 h 0.220141 v 0.25993 h 0.220142 v 0.25993 h 0.220658 v 0.26097 h 0.220142 v 0.25993 h 0.220141 v 0.26045 h 0.220659 v 0.25993 h 0.220141 v 0.25993 h 0.220659 v 0.25994 h 0.220141 v 0.25993 h 0.220142 v 0.25993 h 0.220658 v 0.25993 h 0.220142 v 0.25994 h 0.220141 v 0.26045 h 0.220659 v 0.25993 h 0.220141 v 0.25993 h 0.220659 v 0.25993 h 0.220141 v 0.25994 h 0.220142 v 0.25993 h 0.220658 v 0.25993 h 0.220142 v 0.26045 h 0.220658 v 0.25993 h 0.220142 v 0.26097 h 0.220141 v 0.25993 h 0.220659 v 0.25993 h 0.220141 v 0.25994 h 0.220142 v 0.25993 h 0.220658 v 0.25993 h 0.220142 v 0.26045 h 0.220658 v 0.25993 h 0.220142 v 0.25994 h 0.220142 v 0.25993 h 0.220658 v 0.25993 h 0.220142 v 0.25993 h 0.220141 v 0.25993 h 0.220659 v 0.25994 h 0.220141 v 0.26045 h 0.220659 v 0.25993 h 0.220141 v 0.25993 h 0.220142 v 0.25993 h 0.220658 v 0.26097 h 0.220142 v 0.25993 h 0.220141 v 0.25993 h 0.220659 v 0.25994 h 0.220141 v 0.26045 h 0.220659 v 0.25993 h 0.220141 v 0.25993 h 0.220142 v 0.25993 h 0.220658 v 0.25994 h 0.220142 v 0.25993 h 0.220658 v 0.25993 h 0.220142 v 0.25993 h 0.220141 v 0.26045 h 0.220659 v 0.25994 h 0.220141 v 0.25993 h 0.220142 v 0.25993 h 0.220658 v 0.25993 h 0.220142 v 0.25994 h 0.220658 v 0.25993 h 0.220142 v 0.26096 h 0.220141 v 0.26045 h 0.220659 v 0.25994 h 0.220141 v 0.25993 h 0.220142 v 0.25993 h 0.220658 v 0.25993 h 0.220142 v 0.25994 h 0.220658 v 0.25993 h 0.220142 v 0.25993 h 0.220142 v 0.26045 h 0.220658 v 0.25993 h 0.220142 v 0.25993 h 0.220658 v 0.25994 h 0.220141 v 0.25993 h 0.220142 v 0.25993 h 0.220658 v 0.25993 h 0.220142 v 0.26045 h 0.220142 v 0.25994 h 0.220658 v 0.26096 h 0.220142 v 0.25993 h 0.220658 v 0.25994 h 0.220142 v 0.25993 h 0.220141 v 0.25993 h 0.220659 v 0.25993 h 0.220141 v 0.26045 h 0.220142 v 0.25994 h 0.220658 v 0.25993 h 0.220142 v 0.25993 h 0.220658 v 0.25993 h 0.220142 v 0.25994 h 0.220141 v 0.25993 h 0.220659 v 0.25993 h 0.220141 v 0.26045 h 0.220142 v 0.25993 h 0.220658 v 0.25993 h 0.220142 v 0.25994 h 0.220658 v 0.25993 h 0.220142 v 0.26097 h 0.220141 v 0.25993 h 0.220659 v 0.25993 h 0.220141 v 0.26045 h 0.220659 v 0.25993 h 0.220141 v 0.25993 h 0.220142 v 0.25994 h 0.220658 v 0.25993 h 0.220142 v 0.25993 h 0.220142 v 0.25993 h 0.220658 v 0.25994 h 0.220141 v 0.26045 h 0.220659 v 0.25993 h 0.220141 v 0.25993 h 0.220142 v 0.25993 h 0.220658 v 0.25994 h 0.220142 v 0.25993 h 0.220142 v 0.25993 h 0.220658 v 0.25993 h 0.220142 v 0.26149 h 0.220658 v 0.25993 h 0.220142 v 0.25993 h 0.220141 v 0.25993 h 0.220659 v 0.25994 h 0.220141 v 0.25993 h 0.220658 v 0.25993 h 0.220142 v 0.25993 h 0.220142 v 0.26045 h 0.220658 v 0.25993 h 0.220142 v 0.25994 h 0.220141 v 0.25993 h 0.220659 v 0.25993 h 0.220141 v 0.25993 h 0.220659 v 0.25994 h 0.220141 v 0.26045 h 0.220142 v 0.25993 h 0.220658 v 0.25993 h 0.220142 v 0.26097 h 0.220141 v 0.25993 h 0.220659 v 0.25993 h 0.220141 v 0.25993 h 0.220659 v 0.25994 h 0.220141 v 0.26045 h 0.220142 v 0.25993 h 0.220658 v 0.25993 h 0.220142 v 0.25993 h 0.220141 v 0.25994 h 0.220659 v 0.25993 h 0.220141 v 0.25993 h 0.220659 v 0.25993 h 0.220141 v 0.26045 h 0.220142 v 0.25993 h 0.220658 v 0.25994 h 0.220142 v 0.25993 h 0.220658 v 0.25993 h 0.220142 v 0.25993 h 0.220142 v 0.26097 h 0.220658 v 0.25993 h 0.220142 v 0.26045 h 0.220141 v 0.25993 h 0.220658 v 0.25994 h 0.220142 v 0.25993 h 0.220658 v 0.25993 h 0.220142 v 0.25993 h 0.220142 v 0.25994 h 0.220658 v 0.25993 h 0.220142 v 0.26045 h 0.220141 v 0.25993 h 0.220659 v 0.25993 h 0.220141 v 0.25994 h 0.220659 v 0.25993 h 0.220141 v 0.25993 h 0.220142 v 0.25993 h 0.220658 v 0.25994 h 0.220142 v 0.26148 h 0.220658 v 0.25993 h 0.220142 v 0.25993 H 84.04947 V 180.76 h 0.220659 v 0.25993 h 0.220141 v 0.25993 h 0.220142 v 0.25993 h 0.220658 v 0.25994 h 0.220142 v 0.26045 h 0.220658 v 0.25993 h 0.220142 v 0.25993 h 0.220141 V 182.84 h 0.220659 v 0.25993 h 0.220141 v 0.25994 h 0.220142 v 0.25993 h 0.220658 v 0.26045 h 0.220142 v 0.25993 h 0.220658 v 0.25993 h 0.220142 v 0.25994 H 87.5745 v 0.26096 h 0.220658 v 0.25993 h 0.220141 v 0.25994 h 0.220659 v 0.25993 h 0.220141 v 0.25993 h 0.220142 v 0.26045 h 0.220658 v 0.25993 h 0.220142 v 0.25994 h 0.220142 v 0.25993 h 0.220658 v 0.25993 h 0.220142 v 0.25993 h 0.220658 v 0.25994 h 0.220142 v 0.26045 h 0.220141 v 0.25993 h 0.220659 v 0.25993 h 0.220141 v 0.25993 h 0.220142 v 0.25994 h 0.220658 v 0.25993 h 0.220142 v 0.26096 h 0.220658 v 0.25994 h 0.220142 v 0.26045 h 0.220141 v 0.25993 h 0.220659 v 0.25993 h 0.220141 v 0.25993 h 0.220659 v 0.25994 h 0.220141 v 0.25993 h 0.220142 v 0.25993 h 0.220658 v 0.25993 h 0.220142 v 0.26045 h 0.220141 v 0.25993 h 0.220659 v 0.25994 h 0.220141 v 0.25993 h 0.220659 v 0.25993 h 0.220141 v 0.25993 h 0.220142 v 0.25994 h 0.220658 v 0.25993 h 0.220142 v 0.26045 h 0.220658 v 0.26096 h 0.220142 v 0.25994 h 0.220141 v 0.25993 h 0.220659 v 0.25993 h 0.220141 v 0.25993 h 0.220142 v 0.25994 h 0.220658 v 0.25993 h 0.220142 v 0.26045 h 0.220658 v 0.25993 h 0.220142 v 0.25993 h 0.220142 v 0.25994 h 0.220658 v 0.25993 h 0.220142 v 0.25993 h 0.220658 v 0.25993 h 0.220141 v 0.26045 h 0.220142 v 0.25993 h 0.220658 v 0.25994 h 0.220142 v 0.25993 h 0.220142 v 0.26097 h 0.220658 v 0.25993 h 0.220142 v 0.25993 h 0.22014 v 0.25993 h 0.22118 v 0.25994 h 0.21962 v 0.26044 h 0.22014 v 0.25994 h 0.22118 v 0.25993 h 0.21962 v 0.25993 h 0.22014 v 0.25993 h 0.22118 v 0.25994 h 0.21962 v 0.25993 h 0.22015 v 0.26045 h 0.22117 v 0.25993 h 0.22014 v 0.25993 h 0.21963 v 0.25994 h 0.22117 v 0.25993 h 0.22014 v 0.25993 h 0.21963 v 0.25993 h 0.22117 v 0.26097 h 0.22015 v 0.26045 h 0.22014 v 0.25993 h 0.22066 v 0.25993 h 0.22014 v 0.25994 h 0.22014 v 0.25993 h 0.22066 v 0.25993 h 0.22014 v 0.25993 h 0.22014 v 0.25994 h 0.22066 v 0.26044 h 0.22014 v 0.25994 h 0.22118 v 0.25993 h 0.22014 v 0.25993 h 0.21962 v 0.25993 h 0.22118 v 0.25994 h 0.22014 v 0.25993 h 0.21962 v 0.25993 h 0.22118 v 0.26045 h 0.22014 v 0.26097 h 0.21963 v 0.25993 h 0.22117 v 0.25993 h 0.22014 v 0.25993 h 0.22014 v 0.25994 h 0.22066 v 0.25993 h 0.22014 v 0.25993 h 0.22015 v 0.26045 h 0.22065 v 0.25993 h 0.22015 v 0.25994 h 0.22014 v 0.25993 h 0.22066 v 0.25993 h 0.22014 v 0.25993 h 0.22014 v 0.25994 h 0.22117 v 0.26044 h 0.21963 v 0.25994 h 0.22014 v 0.25993 h 0.22117 v 0.25993 h 0.21963 v 0.25993 h 0.22014 v 0.26097 h 0.22118 v 0.25993 h 0.22014 v 0.25994 h 0.21962 v 0.25993 h 0.22118 v 0.26045 h 0.22014 v 0.25993 h 0.21962 v 0.25993 h 0.22118 v 0.25993 h 0.22014 v 0.25994 h 0.21963 v 0.25993 h 0.22117 v 0.25993 h 0.22014 v 0.26045 h 0.22014 v 0.25993 h 0.22066 v 0.25994 h 0.22014 v 0.25993 h 0.22015 v 0.25993 h 0.22065 v 0.25993 h 0.22015 v 0.25994 h 0.22014 v 0.26096 h 0.22066 v 0.26045 h 0.22014 v 0.25993 h 0.22014 v 0.25994 h 0.22117 v 0.25993 h 0.21963 v 0.25993 h 0.22014 v 0.25993 h 0.22118 v 0.25994 h 0.21962 v 0.25993 h 0.22014 v 0.26045 h 0.22118 v 0.25993 h 0.22014 v 0.25993 h 0.21962 v 0.25993 h 0.22118 v 0.25994 h 0.22014 v 0.25993 h 0.21963 v 0.25993 h 0.22117 v 0.25993 h 0.22014 v 0.26045 h 0.22014 v 0.25994 h 0.22066 v 0.26096 h 0.22014 v 0.25993 h 0.22118 v 0.25994 h 0.21962 v 0.25993 h 0.22015 v 0.25993 h 0.22117 v 0.25993 h 0.21963 v 0.26045 h 0.22014 v 0.25994 h 0.22117 v 0.25993 h 0.22014 v 0.25993 h 0.21963 v 0.25993 h 0.22117 v 0.25994 h 0.22015 v 0.25993 h 0.21962 v 0.26045 H 123.27 v 0.25993 h 0.22014 v 0.25993 h 0.21962 v 0.25994 h 0.22118 v 0.25993 h 0.22014 v 0.26096 h 0.22014 v 0.25994 h 0.22066 v 0.25993 h 0.22014 v 0.25993 h 0.22014 v 0.26045 h 0.22066 v 0.25993 h 0.22014 v 0.25994 h 0.22014 V 229.91 h 0.22066 v 0.25993 h 0.22014 v 0.25993 h 0.22014 v 0.25993 h 0.22118 v 0.26045 h 0.21962 v 0.25994 h 0.22015 v 0.25993 h 0.22117 v 0.25993 h 0.21963 v 0.25993 h 0.22014 v 0.25994 h 0.22117 v 0.25993 h 0.22014 v 0.25993 h 0.21963 v 0.26148 h 0.22117 v 0.25994 h 0.22015 v 0.25993 h 0.21962 v 0.25993 h 0.22118 v 0.25993 h 0.22014 v 0.25994 h 0.21962 v 0.25993 h 0.22118 v 0.25993 h 0.22014 v 0.26045 h 0.22014 v 0.25993 h 0.22066 v 0.25994 h 0.22014 v 0.25993 h 0.22014 v 0.25993 h 0.22066 v 0.25993 h 0.22014 v 0.25994 h 0.22014 v 0.25993 h 0.22066 v 0.26045 h 0.22014 v 0.25993 h 0.22015 v 0.25993 h 0.22117 v 0.26097 h 0.21963 v 0.25993 h 0.22014 v 0.25993 h 0.22117 v 0.25994 h 0.21963 v 0.25993 h 0.22014 v 0.26045 h 0.22117 v 0.25993 h 0.22015 v 0.25993 h 0.21962 v 0.25993 h 0.22118 v 0.25994 h 0.22014 v 0.25993 h 0.22066 v 0.25993 h 0.22014 v 0.25993 h 0.22014 v 0.26045 h 0.22066 v 0.25994 h 0.22014 v 0.25993 h 0.22014 v 0.25993 h 0.22118 v 0.25993 h 0.21962 v 0.26097 H 136.71 v 0.25993 h 0.22118 v 0.25993 h 0.21962 v 0.26045 h 0.22014 v 0.25994 h 0.22118 v 0.25993 h 0.21962 v 0.25993 h 0.22014 v 0.25993 h 0.22118 v 0.25994 h 0.22014 v 0.25993 h 0.21963 v 0.26045 h 0.22117 v 0.25993 h 0.22014 v 0.25993 h 0.21963 v 0.25993 h 0.22117 v 0.25994 h 0.22014 v 0.25993 h 0.22015 v 0.25993 h 0.22065 v 0.25993 h 0.22015 v 0.26045 h 0.22014 v 0.26097 h 0.22066 v 0.25993 h 0.22014 v 0.25993 h 0.22014 v 0.25994 h 0.22066 v 0.25993 h 0.22014 v 0.25993 h 0.22014 v 0.25993 h 0.22118 v 0.26045 h 0.21962 v 0.25994 h 0.22014 v 0.25993 h 0.22118 v 0.25993 h 0.21962 v 0.25993 h 0.22014 v 0.25994 h 0.22118 v 0.25993 h 0.22014 v 0.25993 h 0.21963 v 0.26045 h 0.22117 v 0.25993 h 0.22014 v 0.25993 h 0.21963 v 0.26097 h 0.22117 v 0.25993 h 0.22014 v 0.25994 h 0.21963 v 0.25993 h 0.22117 v 0.25993 h 0.22015 v 0.26045 h 0.22014 v 0.25993 h 0.22066 v 0.25993 h 0.22014 v 0.25994 h 0.22014 v 0.25993 h 0.22066 v 0.25993 h 0.22014 v 0.25993 h 0.22014 v 0.25994 h 0.20877 0.0119 v 0.26045 h 0.19534 0.0248 v 0.25993 h 0.18293 0.0372 v 0.25993 h 0.17002 0.0512 v 0.25993 h 0.15554 0.0641 v 0.25994 h 0.14418 0.076 v 0.25993 h 0.13126 0.0899 v 0.26096 h 0.11679 0.10283 v 0.25994 h 0.10542 0.11576 v 0.26045 h 0.0909 0.12919 v 0.25993 h 0.0791 0.14107 v 0.25993 h 0.0656 0.15503 v 0.25993 h 0.0522 0.16795 v 0.25994 h 0.0398 0.18035 v 0.25993 h 0.0269 0.19378 v 0.25993 h 0.014 0.20619 v 0.26045 h 0.001 6.48487 v -10e-4 -7.65897 l 0.0961,0.11782 h 0.007 l 0.2129,0.26097 h 0.008 l 0.21239,0.25993 h 0.008 l 0.21239,0.25994 h 0.008 l 0.21239,0.25993 h 0.009 l 0.21187,0.25993 h 0.008 l 0.21239,0.26045 h 0.008 l 0.21239,0.25993 h 0.009 l 0.21187,0.25993 h 0.007 l 0.2124,0.25994 h 0.008 l 0.21188,0.25993 h 0.009 l 0.21239,0.25993 h 0.007 l 0.21239,0.25993 h 0.008 l 0.21239,0.25994 h 0.009 l 0.21239,0.26045 h 0.008 l 0.21188,0.25993 h 0.008 l 0.21187,0.25993 h 0.009 l 0.21239,0.25993 h 0.008 l 0.21239,0.25994 h 0.007 l 0.21239,0.25993 h 0.008 l 0.21291,0.26096 h 0.008 l 0.21239,0.25994 h 0.007 l 0.21239,0.26045 h 0.009 l 0.21188,0.25993 h 0.008 l 0.21187,0.25993 h 0.008 l 0.21187,0.25993 h 0.009 l 0.21187,0.25994 h 0.008 l 0.21239,0.25993 h 0.008 l 0.21187,0.25993 h 0.008 l 0.21239,0.26045 h 7.67343 v -0.001 l -9.34826,-12.45299 v -0.001 l 1.66398,-1.92753 c 0.0481,0.0584 0.10264,0.11153 0.15193,0.16898 0.0702,0.0867 0.14387,0.17058 0.21652,0.25528 0.0709,0.0877 0.14514,0.17274 0.21859,0.25838 0.0718,0.0889 0.14727,0.17473 0.2217,0.26148 0.07,0.0864 0.14306,0.17035 0.21549,0.25477 0.0709,0.0876 0.14524,0.17234 0.21859,0.25786 0.0719,0.0889 0.14719,0.17518 0.22169,0.262 0.0701,0.0866 0.14351,0.17023 0.21601,0.25477 0.0725,0.0896 0.14814,0.17659 0.22324,0.26406 0.0703,0.0868 0.14433,0.17049 0.21704,0.25529 0.0705,0.087 0.14415,0.17131 0.21704,0.25631 0.0702,0.0868 0.14341,0.171 0.21601,0.2558 0.0724,0.0895 0.1483,0.17613 0.22324,0.26355 0.0711,0.0878 0.14559,0.17266 0.21911,0.25838 0.0703,0.0868 0.14385,0.17096 0.21652,0.2558 0.0718,0.0887 0.14689,0.17481 0.22118,0.26148 0.0699,0.0863 0.1432,0.16988 0.21549,0.25425 0.0711,0.0879 0.14553,0.17302 0.21911,0.2589 0.0713,0.0881 0.14588,0.17338 0.21962,0.25942 0.0703,0.0868 0.14385,0.17095 0.21653,0.25579 0.0722,0.0892 0.14803,0.1754 0.22272,0.26252 0.07,0.0864 0.14311,0.17031 0.21549,0.25477 0.0716,0.0884 0.14662,0.17405 0.22066,0.26044 0.0712,0.0879 0.14598,0.17297 0.21963,0.2589 0.0702,0.0866 0.14348,0.17061 0.216,0.25528 0.071,0.0877 0.14521,0.17269 0.21859,0.25839 0.0717,0.0886 0.147,0.17435 0.22118,0.26096 0.0708,0.0874 0.14489,0.17195 0.21807,0.25735 0.0699,0.0862 0.14282,0.16994 0.21498,0.25425 0.0728,0.09 0.149,0.17718 0.22427,0.2651 0.0693,0.0856 0.14183,0.16849 0.21343,0.25218 0.0722,0.0892 0.14755,0.17584 0.22221,0.26303 0.0712,0.0879 0.14602,0.17295 0.21962,0.2589 0.0699,0.0863 0.14327,0.16983 0.21549,0.25425 0.0712,0.0879 0.14559,0.17298 0.21911,0.2589 0.0719,0.0887 0.14692,0.17475 0.22117,0.26148 0.0709,0.0874 0.14538,0.17187 0.2186,0.25735 0.0712,0.0878 0.14558,0.173 0.2191,0.2589 0.0712,0.0879 0.14606,0.17293 0.21963,0.2589 0.07,0.0863 0.14328,0.16983 0.21549,0.25425 0.071,0.0876 0.14526,0.17265 0.21859,0.25838 0.27895,0.34446 0.57153,0.67747 0.88625,0.99219 l 0.001,10e-4 c 1.13699,1.116 2.46587,1.99893 3.98787,2.64893 h 0.001 c 1.523,0.649 3.15603,0.9741 4.90203,0.9741 h 0.001 c 1.725,0 3.34902,-0.3251 4.87102,-0.9741 l 0.001,-10e-4 c 1.542,-0.649 2.88188,-1.53293 4.01888,-2.64893 l 0.001,-10e-4 c 0.81764,-0.81764 1.50466,-1.73956 2.07016,-2.75745 v 0.19068 h 0.22118 v 0.25994 h 0.21962 v 0.25993 h 0.22014 v 0.25993 h 0.22118 v 0.25993 h 0.21962 v 0.25994 h 0.22014 v 0.26045 h 0.22118 v 0.25993 h 0.22014 v 0.25993 h 0.21963 v 0.25993 h 0.22117 v 0.25994 h 0.22014 v 0.25993 h 0.21963 v 0.26096 h 0.22117 v 0.25994 h 0.22014 v 0.26045 h 0.22015 v 0.25993 h 0.22065 v 0.0238 0.23616 h 0.22015 v 0.0708 0.18913 h 0.22014 v 0.11783 0.14211 h 0.22066 v 0.16588 0.094 h 0.22014 v 0.21291 0.047 h 0.22117 v 0.26045 h 6.51588 l -0.031,-7.30705 v -0.001 h 1.91616 l 0.015,0.0269 h 0.0739 l 0.14676,0.25993 h 0.0739 l 0.14625,0.25994 h 0.0739 l 0.14625,0.25993 h 0.0744 l 0.14625,0.25993 h 0.0744 l 0.14573,0.26045 h 0.0739 l 0.14625,0.25993 h 0.0749 l 0.14624,0.25993 h 0.0734 l 0.14625,0.25994 h 0.0744 l 0.14573,0.25993 h 0.0744 l 0.14677,0.25993 h 0.0734 l 0.006,0.0114 0.14004,0.24856 h 0.0734 l 0.015,0.0264 0.13177,0.23358 h 0.0744 l 0.0227,0.0403 0.12403,0.22015 h 0.0729 l 0.031,0.0548 0.11627,0.20516 h 0.0739 l 0.0387,0.0687 0.10697,0.1912 h 0.0739 l 0.047,0.0837 0.10025,0.17621 h 0.0734 l 0.0558,0.0992 0.0909,0.16072 h 0.0744 l 0.0636,0.11317 0.0816,0.14676 h 0.0744 l 0.0718,0.12816 0.0749,0.1328 h 0.0739 l 0.0801,0.14211 0.0661,0.11783 h 0.0739 l 0.0879,0.15606 0.0579,0.10439 h 0.0749 l 0.0961,0.17105 0.0501,0.0889 h 0.0739 l 0.10439,0.18603 0.0419,0.0739 h 0.0744 l 0.11265,0.19999 0.0331,0.0599 h 0.0739 l 0.12092,0.21498 0.0258,0.045 h 0.0744 l 0.12867,0.22892 0.0171,0.031 h 0.0734 l 0.13745,0.24391 0.009,0.016 h 0.0739 l 0.14573,0.25942 0.001,0.001 h 7.09415 l -5.54075,-9.74411 c 0.974,-0.69 1.73455,-1.54298 2.28255,-2.55798 0.548,-1.015 0.82217,-2.11121 0.82217,-3.28921 0,-0.71 -0.11087,-1.45108 -0.33486,-2.22208 -0.203,-0.792 -0.50713,-1.48168 -0.91313,-2.07068 -0.18665,-0.26821 -0.40316,-0.53232 -0.63665,-0.79375 -0.0713,-0.0863 -0.14276,-0.17228 -0.21911,-0.25786 -0.0708,-0.0856 -0.14079,-0.17145 -0.21652,-0.25632 -0.0724,-0.0876 -0.14462,-0.17512 -0.22221,-0.262 -0.0708,-0.0858 -0.14172,-0.17124 -0.21756,-0.25631 -0.0724,-0.0877 -0.14454,-0.17562 -0.22221,-0.26252 -0.0705,-0.0852 -0.14107,-0.17029 -0.21652,-0.25476 -0.0725,-0.0879 -0.14497,-0.17592 -0.22273,-0.26304 -0.0706,-0.0855 -0.14097,-0.17107 -0.21652,-0.2558 -0.071,-0.0859 -0.14202,-0.17163 -0.21808,-0.25683 -0.0727,-0.0881 -0.14522,-0.17617 -0.22324,-0.26355 -0.0705,-0.0853 -0.14098,-0.17063 -0.21652,-0.25528 -0.0706,-0.0854 -0.14094,-0.17059 -0.21653,-0.25528 -0.0726,-0.0881 -0.14478,-0.17627 -0.22272,-0.26355 -0.0705,-0.0855 -0.14092,-0.17105 -0.21653,-0.2558 -0.0729,-0.0883 -0.146,-0.17656 -0.22427,-0.26406 -0.0704,-0.0853 -0.141,-0.17068 -0.21653,-0.25529 -0.0709,-0.0858 -0.14157,-0.1717 -0.21756,-0.25683 -0.0721,-0.0875 -0.1442,-0.17479 -0.22169,-0.26148 -0.0713,-0.0864 -0.1426,-0.1727 -0.21911,-0.25838 -0.0714,-0.0866 -0.14295,-0.17307 -0.21962,-0.2589 -0.0708,-0.0857 -0.14166,-0.17137 -0.21756,-0.25632 -0.0718,-0.0872 -0.14346,-0.17456 -0.22066,-0.26096 -0.0707,-0.0857 -0.1412,-0.17141 -0.21704,-0.25632 -0.0719,-0.0872 -0.14393,-0.17452 -0.22117,-0.26096 -0.0717,-0.0869 -0.1436,-0.17379 -0.22066,-0.25994 -0.0702,-0.0851 -0.14068,-0.16988 -0.21601,-0.25424 -0.0714,-0.0867 -0.14241,-0.17353 -0.21911,-0.25942 -0.0721,-0.0876 -0.14457,-0.17471 -0.2222,-0.26148 -0.0701,-0.085 -0.1402,-0.16993 -0.2155,-0.25425 -0.0722,-0.0876 -0.14454,-0.1752 -0.2222,-0.262 -0.0707,-0.0857 -0.14108,-0.17141 -0.21705,-0.25632 -0.0716,-0.087 -0.14304,-0.17422 -0.22014,-0.26045 -0.0716,-0.0868 -0.14364,-0.17334 -0.22066,-0.25941 -0.0705,-0.0856 -0.14064,-0.17146 -0.21652,-0.25632 -0.0723,-0.0878 -0.14485,-0.17548 -0.22272,-0.26251 -0.0703,-0.0852 -0.14097,-0.17026 -0.21653,-0.25477 -0.0712,-0.0866 -0.14244,-0.1731 -0.21911,-0.2589 -0.0723,-0.0879 -0.14473,-0.17594 -0.22272,-0.26303 -0.0708,-0.0858 -0.1419,-0.17176 -0.21808,-0.25683 -0.0702,-0.0852 -0.14056,-0.17032 -0.216,-0.25477 -0.0728,-0.0886 -0.14571,-0.1773 -0.22428,-0.2651 -0.0708,-0.0859 -0.14192,-0.17171 -0.21807,-0.25683 -0.0704,-0.0855 -0.1408,-0.17106 -0.21653,-0.2558 -0.0719,-0.0875 -0.14416,-0.1748 -0.22169,-0.26148 -0.0705,-0.0857 -0.14112,-0.17139 -0.21704,-0.25631 -0.0709,-0.0863 -0.14215,-0.17238 -0.21859,-0.25787 -0.0726,-0.0883 -0.1454,-0.17661 -0.22376,-0.26407 -0.0705,-0.0855 -0.14116,-0.17106 -0.21704,-0.25579 -0.0709,-0.0861 -0.14221,-0.172 -0.21859,-0.25735 -0.0705,-0.0857 -0.14108,-0.1714 -0.21705,-0.25632 -0.0726,-0.0883 -0.14537,-0.17657 -0.22375,-0.26406 -0.0704,-0.0856 -0.14114,-0.171 -0.21705,-0.2558 -0.0695,-0.0845 -0.13863,-0.169 -0.21342,-0.2527 -0.0739,-0.09 -0.14841,-0.18006 -0.22841,-0.26923 -0.0702,-0.0853 -0.14079,-0.17076 -0.21652,-0.25529 -0.0711,-0.0866 -0.14283,-0.17317 -0.21963,-0.2589 -0.0705,-0.0859 -0.14137,-0.17172 -0.21756,-0.25683 -0.0718,-0.0875 -0.14405,-0.17485 -0.22169,-0.26148 -0.0703,-0.0856 -0.14112,-0.17104 -0.21704,-0.2558 -0.0718,-0.0875 -0.14404,-0.17481 -0.22169,-0.26148 -0.0709,-0.0863 -0.14204,-0.17243 -0.21859,-0.25787 -0.0711,-0.0866 -0.14274,-0.17318 -0.21963,-0.2589 -0.0703,-0.0857 -0.14108,-0.17146 -0.21704,-0.25631 -0.0705,-0.086 -0.14127,-0.17216 -0.21756,-0.25735 -0.0721,-0.088 -0.14511,-0.17543 -0.22324,-0.26252 -0.0702,-0.0855 -0.14066,-0.17105 -0.21652,-0.25579 -0.0713,-0.0869 -0.14294,-0.17382 -0.22014,-0.25994 -0.0716,-0.0872 -0.14414,-0.17404 -0.2217,-0.26045 -0.0694,-0.0846 -0.1389,-0.16936 -0.21394,-0.25321 -0.072,-0.0879 -0.14466,-0.17552 -0.22272,-0.26252 -0.0712,-0.0867 -0.14257,-0.17359 -0.21963,-0.25941 -0.0707,-0.0862 -0.14207,-0.17199 -0.21859,-0.25735 -0.0707,-0.0862 -0.14154,-0.17249 -0.21807,-0.25787 -0.0718,-0.0876 -0.14432,-0.17521 -0.22221,-0.262 -0.0706,-0.0861 -0.14165,-0.17209 -0.21808,-0.25734 -0.0704,-0.0859 -0.14138,-0.17174 -0.21755,-0.25684 -0.0722,-0.0882 -0.14536,-0.17622 -0.22376,-0.26355 -0.0696,-0.0849 -0.13965,-0.16968 -0.21498,-0.25373 -0.0707,-0.0864 -0.14198,-0.17286 -0.21859,-0.25838 -0.0725,-0.0885 -0.14557,-0.17701 -0.22427,-0.26458 -0.0701,-0.0855 -0.14108,-0.17066 -0.21704,-0.25528 -0.0704,-0.0859 -0.1413,-0.17176 -0.21756,-0.25684 -0.0707,-0.0862 -0.1419,-0.17243 -0.21859,-0.25786 -0.0708,-0.0865 -0.14181,-0.17278 -0.21859,-0.25838 -0.0712,-0.0871 -0.14335,-0.17369 -0.22066,-0.25994 -0.0713,-0.0871 -0.1432,-0.1742 -0.22066,-0.26044 -0.07,-0.0855 -0.14052,-0.17114 -0.21653,-0.2558 -0.0714,-0.0873 -0.14355,-0.17452 -0.22117,-0.26097 -0.0711,-0.0868 -0.14288,-0.17347 -0.22014,-0.25941 -0.0705,-0.0862 -0.14196,-0.17205 -0.21859,-0.25735 -0.0714,-0.0873 -0.14353,-0.17455 -0.22118,-0.26097 -0.0697,-0.0851 -0.14035,-0.16994 -0.21601,-0.25425 -0.0708,-0.0866 -0.14211,-0.17317 -0.2191,-0.2589 -0.071,-0.0869 -0.1424,-0.17387 -0.21963,-0.25993 -0.0711,-0.087 -0.1433,-0.17383 -0.22066,-0.25993 -0.0712,-0.0871 -0.14312,-0.17428 -0.22066,-0.26045 -0.0697,-0.0852 -0.14023,-0.17038 -0.216,-0.25477 -0.071,-0.087 -0.14283,-0.17386 -0.22014,-0.25993 -0.0714,-0.0875 -0.1438,-0.17491 -0.2217,-0.26148 -0.0699,-0.0855 -0.14097,-0.17068 -0.21704,-0.25528 -0.0704,-0.0862 -0.14141,-0.17252 -0.21807,-0.25787 -0.0711,-0.087 -0.14312,-0.17375 -0.22066,-0.25993 -0.0698,-0.0854 -0.14004,-0.17081 -0.21601,-0.25528 -0.0718,-0.088 -0.14436,-0.17596 -0.22272,-0.26303 -0.0704,-0.0862 -0.14189,-0.17204 -0.21859,-0.25735 -0.0701,-0.0859 -0.14066,-0.17184 -0.21705,-0.25684 -0.0718,-0.088 -0.14486,-0.17589 -0.22324,-0.26303 -0.0705,-0.0864 -0.14225,-0.17235 -0.21911,-0.25786 -0.0698,-0.0855 -0.13994,-0.17118 -0.216,-0.2558 -0.0723,-0.0887 -0.14578,-0.17733 -0.2248,-0.2651 -0.0691,-0.0846 -0.13923,-0.16902 -0.21445,-0.2527 -0.0709,-0.087 -0.14268,-0.17392 -0.22014,-0.25993 -0.0711,-0.0872 -0.14353,-0.17418 -0.22118,-0.26045 -0.0697,-0.0855 -0.14049,-0.1707 -0.21652,-0.25528 -0.0712,-0.0874 -0.14334,-0.17454 -0.22118,-0.26097 -0.071,-0.0871 -0.14304,-0.17425 -0.22066,-0.26045 -0.0703,-0.0863 -0.14178,-0.17248 -0.21859,-0.25786 -0.0705,-0.0865 -0.14212,-0.17284 -0.21911,-0.25839 -0.0706,-0.0867 -0.1424,-0.17307 -0.21962,-0.25889 -0.0693,-0.0851 -0.13977,-0.17006 -0.21549,-0.25425 -0.0709,-0.0871 -0.14257,-0.17431 -0.22014,-0.26045 -0.0714,-0.0878 -0.14395,-0.17524 -0.22221,-0.262 -0.0695,-0.0853 -0.14005,-0.17037 -0.21601,-0.25477 -0.0712,-0.0875 -0.14366,-0.1749 -0.22169,-0.26148 -0.0703,-0.0865 -0.14198,-0.17284 -0.21911,-0.25838 -0.0701,-0.0861 -0.14132,-0.17212 -0.21808,-0.25735 -0.0702,-0.0864 -0.14167,-0.17242 -0.21859,-0.25787 -0.0702,-0.0864 -0.14159,-0.17245 -0.21859,-0.25786 -0.0716,-0.0882 -0.14454,-0.17634 -0.22324,-0.26355 -0.07,-0.086 -0.14139,-0.17182 -0.21807,-0.25683 -0.0697,-0.0857 -0.1407,-0.17107 -0.21705,-0.2558 -0.0712,-0.0877 -0.14349,-0.17531 -0.22169,-0.262 -0.0703,-0.0865 -0.14196,-0.17287 -0.21911,-0.25838 -0.0699,-0.0861 -0.14137,-0.17175 -0.21807,-0.25683 -0.0696,-0.0857 -0.14013,-0.17149 -0.21652,-0.25632 -0.0721,-0.089 -0.14589,-0.17772 -0.22531,-0.26562 -0.069,-0.085 -0.13929,-0.16979 -0.21498,-0.25373 -0.13131,-0.16202 -0.27514,-0.32206 -0.43098,-0.48059 -0.0496,-0.0699 -0.12417,-0.13635 -0.17828,-0.20567 -0.002,-0.003 -0.003,-0.009 -0.005,-0.0119 -0.0593,-0.085 -0.15063,-0.16591 -0.21652,-0.25011 -0.002,-0.003 -0.003,-0.007 -0.005,-0.0103 -0.0585,-0.084 -0.14891,-0.16378 -0.21394,-0.24701 -0.002,-0.004 -0.003,-0.009 -0.006,-0.0129 -0.16402,-0.23644 -0.3634,-0.46751 -0.57878,-0.6966 -0.16099,-0.2132 -0.34318,-0.42305 -0.54673,-0.62993 -0.0528,-0.0749 -0.13271,-0.14599 -0.19069,-0.22014 -0.002,-0.004 -0.003,-0.009 -0.006,-0.0129 -0.0588,-0.0843 -0.14916,-0.16417 -0.21446,-0.24753 -0.002,-0.004 -0.003,-0.009 -0.006,-0.0129 -0.0593,-0.0852 -0.15091,-0.16578 -0.21705,-0.25012 -0.002,-0.003 -0.002,-0.007 -0.004,-0.01 -0.0588,-0.0848 -0.14943,-0.16482 -0.21497,-0.24857 -0.002,-0.003 -0.003,-0.008 -0.005,-0.0114 -0.0586,-0.0843 -0.14871,-0.16375 -0.21394,-0.24701 -0.002,-0.004 -0.003,-0.009 -0.006,-0.0129 -0.0593,-0.0854 -0.15085,-0.16582 -0.21704,-0.25011 -0.002,-0.003 -0.002,-0.007 -0.004,-0.01 -0.0588,-0.0847 -0.14946,-0.16483 -0.21498,-0.24857 -0.002,-0.003 -0.003,-0.008 -0.005,-0.0114 -0.0586,-0.0842 -0.14874,-0.16376 -0.21394,-0.24702 -0.003,-0.004 -0.003,-0.009 -0.006,-0.0129 -0.0591,-0.085 -0.15007,-0.16556 -0.21601,-0.24959 -0.002,-0.003 -0.003,-0.008 -0.005,-0.0114 -0.0586,-0.0841 -0.14908,-0.16424 -0.21446,-0.24753 -0.003,-0.004 -0.003,-0.009 -0.006,-0.0129 -0.0588,-0.0842 -0.14896,-0.16423 -0.21446,-0.24753 -0.002,-0.004 -0.003,-0.009 -0.006,-0.0124 -0.0583,-0.0835 -0.14757,-0.16241 -0.21239,-0.24495 -0.003,-0.005 -0.005,-0.0104 -0.008,-0.015 -0.0575,-0.0829 -0.14666,-0.16098 -0.21084,-0.24288 -0.004,-0.005 -0.006,-0.0118 -0.009,-0.0171 -0.0576,-0.0828 -0.14658,-0.16102 -0.21084,-0.24288 -0.004,-0.005 -0.006,-0.0118 -0.009,-0.017 -0.0583,-0.0834 -0.14752,-0.1625 -0.21239,-0.24495 -0.003,-0.005 -0.005,-0.0104 -0.008,-0.015 -0.0575,-0.0829 -0.1465,-0.16147 -0.21084,-0.2434 -0.003,-0.005 -0.006,-0.0114 -0.009,-0.0165 -0.0577,-0.0828 -0.14643,-0.16142 -0.21084,-0.24339 -0.003,-0.005 -0.006,-0.0114 -0.009,-0.0165 -0.0581,-0.0832 -0.14718,-0.16214 -0.21187,-0.24443 -0.003,-0.005 -0.005,-0.0111 -0.009,-0.016 -0.0575,-0.0828 -0.14651,-0.16145 -0.21084,-0.24339 -0.003,-0.005 -0.006,-0.0115 -0.009,-0.0165 -0.0576,-0.0827 -0.14653,-0.16108 -0.21084,-0.24288 -0.004,-0.005 -0.006,-0.0119 -0.009,-0.0171 -0.0586,-0.0841 -0.14853,-0.16351 -0.21394,-0.2465 -0.003,-0.004 -0.004,-0.009 -0.007,-0.0134 -0.0572,-0.0825 -0.14581,-0.1603 -0.2098,-0.24184 -0.004,-0.006 -0.006,-0.0126 -0.01,-0.0181 -0.0576,-0.083 -0.14637,-0.16144 -0.21084,-0.24339 -0.003,-0.005 -0.006,-0.0114 -0.009,-0.0165 -0.0587,-0.0842 -0.1483,-0.16383 -0.21394,-0.24701 -0.003,-0.004 -0.005,-0.009 -0.007,-0.0129 -0.0574,-0.0825 -0.14515,-0.16084 -0.20929,-0.24237 -0.004,-0.006 -0.006,-0.0125 -0.0103,-0.0181 -0.0577,-0.083 -0.14625,-0.16135 -0.21084,-0.2434 -0.003,-0.005 -0.006,-0.0114 -0.009,-0.0165 -0.0582,-0.0835 -0.14724,-0.1624 -0.21239,-0.24495 -0.003,-0.005 -0.005,-0.0111 -0.009,-0.016 -0.0575,-0.0823 -0.14556,-0.16082 -0.20981,-0.24236 -0.004,-0.005 -0.006,-0.0122 -0.01,-0.0176 -0.0583,-0.0839 -0.14801,-0.16317 -0.21343,-0.24598 -0.003,-0.004 -0.005,-0.01 -0.008,-0.014 -0.0576,-0.0829 -0.14626,-0.16149 -0.21084,-0.24339 -0.003,-0.005 -0.006,-0.0114 -0.009,-0.0165 -0.0579,-0.0831 -0.14655,-0.16177 -0.21136,-0.24391 -0.003,-0.005 -0.005,-0.0111 -0.009,-0.016 -0.0581,-0.0836 -0.14711,-0.16288 -0.21239,-0.24546 -0.003,-0.005 -0.005,-0.01 -0.008,-0.0145 -0.0574,-0.0827 -0.14583,-0.16115 -0.21032,-0.24288 -0.004,-0.005 -0.006,-0.0122 -0.01,-0.0176 -0.0579,-0.083 -0.14647,-0.16184 -0.21136,-0.24391 -0.003,-0.005 -0.005,-0.0111 -0.009,-0.016 -0.058,-0.0834 -0.14712,-0.16253 -0.21239,-0.24495 -0.003,-0.005 -0.005,-0.0104 -0.008,-0.015 -0.0575,-0.0828 -0.14611,-0.16145 -0.21084,-0.24339 -0.003,-0.005 -0.006,-0.0115 -0.009,-0.0165 -0.0578,-0.0832 -0.14641,-0.16181 -0.21136,-0.24391 -0.003,-0.005 -0.005,-0.0111 -0.009,-0.016 -0.0583,-0.0837 -0.147,-0.1629 -0.21239,-0.24546 -0.003,-0.005 -0.005,-0.01 -0.008,-0.0145 -0.0575,-0.083 -0.14609,-0.16147 -0.21084,-0.2434 -0.003,-0.005 -0.006,-0.0114 -0.009,-0.0165 -0.0579,-0.0832 -0.14633,-0.1623 -0.21135,-0.24443 -0.003,-0.005 -0.005,-0.0107 -0.009,-0.0155 -0.0584,-0.0838 -0.1473,-0.16323 -0.2129,-0.24598 -0.003,-0.004 -0.005,-0.01 -0.008,-0.0145 -0.0572,-0.0825 -0.14536,-0.16034 -0.20981,-0.24184 -0.004,-0.006 -0.006,-0.0126 -0.01,-0.0181 -0.0577,-0.083 -0.14633,-0.16186 -0.21135,-0.24391 -0.003,-0.005 -0.005,-0.0111 -0.009,-0.016 -0.0586,-0.084 -0.148,-0.16356 -0.21394,-0.2465 -0.003,-0.004 -0.004,-0.009 -0.007,-0.0134 -0.0572,-0.0828 -0.14519,-0.1607 -0.20981,-0.24236 -0.004,-0.005 -0.006,-0.0122 -0.01,-0.0176 -0.0573,-0.0827 -0.14519,-0.16081 -0.20981,-0.24236 -0.004,-0.006 -0.006,-0.0129 -0.0103,-0.0186 -0.0585,-0.0839 -0.14743,-0.16368 -0.21342,-0.2465 -0.003,-0.004 -0.005,-0.009 -0.008,-0.0134 -0.0575,-0.0829 -0.14587,-0.16156 -0.21084,-0.24339 -0.003,-0.005 -0.006,-0.0114 -0.009,-0.0165 -0.0569,-0.0818 -0.1441,-0.15949 -0.20825,-0.24029 -0.004,-0.006 -0.007,-0.0139 -0.0114,-0.0202 -0.0585,-0.0837 -0.14752,-0.16323 -0.21343,-0.24598 -0.003,-0.004 -0.005,-0.01 -0.008,-0.0139 -0.0575,-0.0828 -0.14576,-0.16151 -0.21084,-0.2434 -0.003,-0.005 -0.006,-0.0114 -0.009,-0.0165 -0.0572,-0.0821 -0.14469,-0.16012 -0.20929,-0.24133 -0.004,-0.006 -0.006,-0.0129 -0.0103,-0.0186 -0.0585,-0.084 -0.14734,-0.1637 -0.21343,-0.24649 -0.003,-0.004 -0.005,-0.009 -0.008,-0.0134 -0.0577,-0.083 -0.14567,-0.16159 -0.21084,-0.24339 -0.003,-0.005 -0.006,-0.0114 -0.009,-0.0165 -0.0575,-0.0829 -0.14568,-0.16109 -0.21084,-0.24288 -0.004,-0.005 -0.006,-0.0118 -0.009,-0.017 -0.0581,-0.0834 -0.14664,-0.1626 -0.21239,-0.24495 -0.003,-0.005 -0.005,-0.0104 -0.008,-0.015 -0.0577,-0.0829 -0.14559,-0.16154 -0.21084,-0.24339 -0.004,-0.005 -0.006,-0.0118 -0.009,-0.0171 -0.0576,-0.083 -0.14558,-0.16154 -0.21084,-0.2434 -0.003,-0.005 -0.006,-0.0114 -0.009,-0.0165 -0.0584,-0.0837 -0.14683,-0.16321 -0.21291,-0.24598 -0.003,-0.004 -0.005,-0.01 -0.008,-0.0139 -0.0579,-0.0832 -0.14583,-0.16224 -0.21136,-0.24443 -0.003,-0.005 -0.005,-0.0107 -0.009,-0.0155 -0.0577,-0.0834 -0.14584,-0.16183 -0.21136,-0.24391 -0.003,-0.005 -0.005,-0.0111 -0.009,-0.016 -0.0583,-0.084 -0.14676,-0.1633 -0.21291,-0.24598 -0.003,-0.004 -0.005,-0.01 -0.008,-0.014 -0.0578,-0.0834 -0.14576,-0.16232 -0.21136,-0.24443 -0.003,-0.005 -0.005,-0.0107 -0.009,-0.0155 -0.0572,-0.0826 -0.14481,-0.1604 -0.20981,-0.24185 -0.004,-0.006 -0.006,-0.0133 -0.0103,-0.0191 -0.0583,-0.0835 -0.14671,-0.16296 -0.2129,-0.24546 -0.003,-0.005 -0.005,-0.0104 -0.008,-0.015 -0.0574,-0.0824 -0.14459,-0.16091 -0.20981,-0.24237 -0.004,-0.005 -0.006,-0.0122 -0.01,-0.0176 -0.0578,-0.0827 -0.1453,-0.1612 -0.21084,-0.24288 -0.004,-0.005 -0.006,-0.0118 -0.009,-0.0171 -0.0585,-0.0838 -0.14739,-0.16368 -0.21394,-0.2465 -0.003,-0.004 -0.004,-0.009 -0.007,-0.0134 -0.0574,-0.0823 -0.14462,-0.16091 -0.20981,-0.24236 -0.004,-0.005 -0.006,-0.0122 -0.01,-0.0176 -0.0577,-0.0829 -0.14533,-0.1612 -0.21084,-0.24288 -0.004,-0.005 -0.006,-0.0118 -0.009,-0.0171 -0.0585,-0.084 -0.14732,-0.16367 -0.21394,-0.24649 -0.003,-0.004 -0.004,-0.009 -0.007,-0.0134 -0.0573,-0.0825 -0.14452,-0.16097 -0.20981,-0.24236 -0.004,-0.005 -0.006,-0.0122 -0.01,-0.0176 -0.0577,-0.0827 -0.1448,-0.16136 -0.21032,-0.24288 -0.004,-0.005 -0.006,-0.0122 -0.01,-0.0176 -0.0584,-0.0838 -0.14678,-0.16325 -0.21342,-0.24598 -0.003,-0.004 -0.005,-0.01 -0.008,-0.0139 -0.0577,-0.0831 -0.14543,-0.16191 -0.21135,-0.24392 -0.003,-0.005 -0.005,-0.0111 -0.009,-0.016 -0.0574,-0.0823 -0.1444,-0.16054 -0.2098,-0.24184 -0.004,-0.006 -0.006,-0.0126 -0.01,-0.0181 -0.0583,-0.0837 -0.14669,-0.16335 -0.21343,-0.24598 -0.003,-0.004 -0.005,-0.01 -0.008,-0.0139 -0.0577,-0.0833 -0.14546,-0.1619 -0.21135,-0.24391 -0.003,-0.005 -0.005,-0.0111 -0.009,-0.016 -0.0574,-0.0826 -0.14443,-0.16054 -0.20981,-0.24185 -0.004,-0.006 -0.006,-0.0126 -0.01,-0.0181 -0.0585,-0.0838 -0.14634,-0.16298 -0.21291,-0.24546 -0.003,-0.005 -0.005,-0.0104 -0.008,-0.015 -0.0577,-0.0832 -0.14532,-0.16195 -0.21136,-0.24392 -0.003,-0.005 -0.005,-0.0111 -0.009,-0.016 -0.0579,-0.0832 -0.14525,-0.162 -0.21136,-0.24391 -0.003,-0.005 -0.005,-0.0111 -0.009,-0.016 -0.0579,-0.0829 -0.1449,-0.16117 -0.21084,-0.24288 -0.004,-0.006 -0.006,-0.0126 -0.01,-0.0181 -0.0575,-0.0825 -0.14492,-0.16127 -0.21084,-0.24288 -0.004,-0.005 -0.006,-0.0118 -0.009,-0.017 -0.0575,-0.0823 -0.14447,-0.16096 -0.21033,-0.24236 -0.004,-0.005 -0.006,-0.0122 -0.01,-0.0176 -0.0581,-0.0832 -0.14545,-0.16203 -0.21188,-0.24391 -0.003,-0.005 -0.005,-0.0111 -0.009,-0.016 -0.0575,-0.0829 -0.14472,-0.16178 -0.21084,-0.2434 -0.003,-0.005 -0.006,-0.0114 -0.009,-0.0165 -0.0582,-0.0835 -0.14621,-0.1626 -0.21291,-0.24494 -0.003,-0.005 -0.005,-0.0108 -0.008,-0.0155 -0.0572,-0.0824 -0.14368,-0.16066 -0.20929,-0.24185 -0.004,-0.006 -0.006,-0.0125 -0.0103,-0.0181 -0.0577,-0.0831 -0.14495,-0.16243 -0.21136,-0.24443 -0.003,-0.005 -0.006,-0.0107 -0.009,-0.0155 -0.0585,-0.084 -0.14667,-0.16371 -0.21394,-0.2465 -0.003,-0.004 -0.004,-0.009 -0.007,-0.0134 -0.0578,-0.0831 -0.14487,-0.16246 -0.21136,-0.24443 -0.003,-0.005 -0.005,-0.0107 -0.009,-0.0155 -0.0577,-0.0826 -0.14423,-0.16132 -0.21033,-0.24288 -0.004,-0.005 -0.006,-0.0118 -0.009,-0.0171 -0.0586,-0.0844 -0.14637,-0.16452 -0.21394,-0.24753 -0.003,-0.004 -0.005,-0.009 -0.007,-0.0124 -0.0578,-0.0834 -0.14472,-0.1624 -0.21136,-0.24443 -0.003,-0.005 -0.005,-0.0107 -0.009,-0.0155 -0.0576,-0.0827 -0.14368,-0.16149 -0.20981,-0.24288 -0.004,-0.005 -0.006,-0.0122 -0.01,-0.0176 -0.0585,-0.0842 -0.14633,-0.16407 -0.21394,-0.24701 -0.003,-0.004 -0.004,-0.009 -0.007,-0.0129 -0.0577,-0.0832 -0.14469,-0.16195 -0.21136,-0.24392 -0.003,-0.005 -0.005,-0.0111 -0.009,-0.016 -0.0575,-0.0826 -0.14369,-0.161 -0.2098,-0.24236 -0.004,-0.005 -0.006,-0.0122 -0.01,-0.0176 -0.0584,-0.0841 -0.14635,-0.16418 -0.21394,-0.24701 -0.003,-0.004 -0.004,-0.009 -0.007,-0.0129 -0.0579,-0.0834 -0.14493,-0.16278 -0.21187,-0.24495 -0.003,-0.005 -0.005,-0.0104 -0.008,-0.015 -0.0289,-0.0417 -0.0743,-0.0807 -0.10542,-0.12196 h 1.10743 v -9.06301 h 0.001 4.12068 l -0.0816,0.22066 h 0.31626 l -0.0961,0.26044 h 0.31678 l -0.0961,0.25994 h 0.31626 l -0.0961,0.25993 h 0.31626 l -0.0961,0.25993 h 0.31677 l -0.0961,0.25993 h 0.31626 l -0.0961,0.25994 h 0.31626 l -0.0961,0.25993 h 0.31781 l -0.0966,0.26097 h 0.31575 l -0.0961,0.26044 h 0.31626 l -0.0961,0.25994 h 0.31729 l -0.0961,0.25993 h 0.31471 0.001 l -0.0961,0.25993 h 0.30231 0.0139 l -0.0961,0.25993 h 0.28784 0.0294 l -0.0961,0.25994 h 0.27388 0.0424 l -0.0961,0.25993 h 0.26096 0.0548 l -0.0961,0.25993 h 0.24702 0.0703 l -0.0961,0.26045 h 0.23306 0.0832 l -0.0961,0.25993 h 0.21962 0.0961 l -0.0961,0.25994 h 0.20619 0.11111 l -0.0961,0.25993 h 0.19223 0.12403 l -0.0961,0.25993 h 0.1788 0.13746 l -0.0961,0.25993 h 0.16588 0.1509 l -0.0961,0.25994 h 0.1509 0.16536 l -0.0961,0.25993 h 0.13798 0.17828 l -0.0961,0.26045 h 0.12506 0.19172 l -0.0961,0.25993 h 0.11007 0.20671 l -0.0966,0.26097 h 0.0971 0.21911 l -0.0961,0.25993 h 0.0837 0.23306 l -0.0961,0.25993 h 0.0692 0.24701 l -0.0961,0.25993 h 0.0558 0.26044 l -0.0961,0.25994 h 0.0429 0.2744 l -0.0961,0.25993 h 0.0279 0.28783 l -0.0961,0.26045 h 0.015 0.30128 l -0.0961,0.25993 h 0.002 6.84196 v -0.001 l 1.25006,-3.34295 h 10e-4 5.99085 l 0.0832,0.22272 h 0.12247 l 0.0971,0.25994 h 0.12299 l 0.0972,0.25993 h 0.1235 l 0.0977,0.26045 h 0.12247 l 0.0972,0.25993 h 0.1111 0.0114 l 0.0977,0.26097 h 0.0971 0.0269 l 0.0971,0.25993 h 0.0827 0.0403 l 0.0971,0.25993 h 0.0698 0.0527 l 0.0971,0.25993 h 0.0563 0.0677 l 0.0971,0.25994 h 0.0419 0.0811 l 0.0972,0.25993 h 0.0289 0.0946 l 0.0971,0.26045 h 0.014 0.10903 l 0.0972,0.25993 h 0.001 6.84196 v -10e-4 l -0.41341,-1.11776 c 0.0836,0.0154 0.15081,0.0185 0.23254,0.0325 l -0.045,0.22324 c 0.006,0.002 0.0121,0.002 0.0171,0.003 0.0893,0.0165 0.16046,0.0197 0.24753,0.0346 l -0.0444,0.22221 c 0.005,0.001 0.01,0.002 0.015,0.002 0.0902,0.0168 0.16258,0.02 0.25063,0.0351 l -0.045,0.22273 c 0.004,0.001 0.007,0.002 0.0109,0.002 0.0915,0.0169 0.165,0.0204 0.25425,0.0357 l -0.045,0.22324 c 0.003,0 0.005,4e-5 0.008,0.001 0.0927,0.0171 0.16696,0.0208 0.25734,0.0362 l -0.045,0.22273 h 0.005 c 0.094,0.0174 0.16934,0.021 0.26096,0.0367 l -0.045,0.22324 h 10e-4 c 0.562,0.104 1.08214,0.17707 1.56114,0.21807 h 0.001 c 0.5,0.063 0.98912,0.0941 1.46812,0.0941 h 10e-4 c 1.91699,0 3.71784,-0.35499 5.40483,-1.06299 h 0.001 c 1.708,-0.729 3.19694,-1.71881 4.46794,-2.96881 h 0.001 c 1.27,-1.25 2.26978,-2.70841 2.99878,-4.37441 v -0.002 c 0.75,-1.687 1.125,-3.48936 1.125,-5.40536 V 150.2866 h -0.001 -0.21962 v -0.25993 h -0.014 -0.20618 v -0.25993 h -0.0269 -0.19327 v -0.25994 h -0.0398 -0.18086 v -0.26096 h -0.0522 -0.16795 v -0.25994 h -0.0651 -0.15503 v -0.26044 h -0.0791 -0.14211 v -0.25994 h -0.0909 -0.12868 v -0.25993 h -0.10438 -0.11576 v -0.25993 h -0.11679 -0.10438 v -0.25993 h -0.12868 -0.0909 v -0.25994 h -0.14211 -0.078 v -0.25993 h -0.15606 -0.0651 v -0.26045 h -0.16794 -0.0522 v -0.25993 h -0.18086 -0.0388 v -0.25993 h -0.19431 -0.0269 v -0.25994 h -0.20619 -0.0139 v -0.25993 h -0.21962 v -0.25993 h -0.22118 v -0.25993 h -0.22014 v -0.25994 h -0.22014 v -0.26044 h -0.22066 v -0.25994 h -0.22014 v -0.26096 h -0.22014 v -0.25994 h -0.22066 v -0.25993 h -0.22014 v -0.25993 h -0.22015 v -0.25993 h -0.22065 v -0.25994 h -0.22015 v -0.26044 h -0.22014 v -0.25994 h -0.22117 v -0.25993 h -0.21963 v -0.25993 h -0.22014 v -0.25993 h -0.22117 v -0.25994 h -0.21963 v -0.25993 h -0.22014 v -0.25993 h -0.22118 v -0.26045 h -0.21962 v -0.25993 h -0.22014 v -0.25994 h -0.22118 V 139.885 h -0.22014 v -0.25993 h -0.21962 v -0.26097 h -0.22118 v -0.25993 h -0.22014 v -0.25993 h -0.21962 v -0.26045 h -0.22118 v -0.25993 h -0.22014 v -0.25994 h -0.22066 v -0.25993 h -0.22014 v -0.25993 h -0.22014 v -0.25993 h -0.22118 v -0.25994 h -0.21962 v -0.26044 h -0.22014 v -0.25994 h -0.22118 v -0.25993 h -0.21962 v -0.25993 h -0.22015 v -0.25993 h -0.22117 v -0.25994 h -0.22014 v -0.25993 h -0.21963 v -0.25993 h -0.22117 v -0.26097 h -0.22014 v -0.26045 h -0.21963 v -0.25993 h -0.22117 v -0.25993 h -0.22015 v -0.25993 h -0.21962 v -0.25994 h -0.22118 v -0.25993 h -0.22014 v -0.25993 h -0.22014 v -0.26045 h -0.22066 v -0.25993 h -0.22014 v -0.25994 h -0.22014 v -0.25993 h -0.22066 v -0.25993 h -0.22014 v -0.25993 h -0.22014 v -0.25994 h -0.22066 v -0.25993 h -0.22014 v -0.26045 h -0.22014 v -0.25993 h -0.22118 v -0.25993 h -0.21962 v -0.26097 h -0.22015 v -0.25993 h -0.22117 v -0.25993 h -0.21963 v -0.25994 h -0.22014 v -0.25993 h -0.22117 v -0.26045 h -0.22014 v -0.25993 h -0.21963 v -0.25993 h -0.22117 v -0.25993 h -0.22015 v -0.25994 h -0.21962 v -0.25993 h -0.22118 v -0.25993 h -0.22014 v -0.25993 h -0.21962 v -0.26045 h -0.22118 v -0.25994 h -0.22014 v -0.25993 H 194.1158 V 125.582 h -0.22066 v -0.25993 H 193.675 v -0.26097 h -0.22014 v -0.25993 h -0.22066 v -0.25993 h -0.22014 v -0.26045 h -0.22014 v -0.25994 h -0.22118 v -0.25993 h -0.21962 v -0.25993 h -0.22014 v -0.25993 h -0.22118 v -0.25994 h -0.21962 v -0.25993 H 191.471 v -0.26045 h -0.22014 v -0.25993 h -0.21963 v -0.25993 h -0.22117 v -0.25994 h -0.22014 v -0.25993 h -0.22014 v -0.25993 h -0.22066 v -0.25993 h -0.22014 v -0.25993 h -0.22015 v -0.26045 h -0.22065 v -0.26097 h -0.22015 v -0.25993 h -0.22014 v -0.25994 h -0.22066 V 119.34 h -0.22014 v -0.25993 h -0.22014 v -0.25993 h -0.22117 v -0.25993 h -0.21963 v -0.26045 h -0.22014 v -0.25994 h -0.22118 v -0.25993 h -0.21962 v -0.25993 h -0.22014 v -0.25993 h -0.22118 v -0.25994 h -0.22014 v -0.25993 h -0.21962 v -0.25993 h -0.22118 v -0.26045 h -0.22014 v -0.25993 h -0.21963 v -0.25994 h -0.22117 v -0.25993 h -0.22014 v -0.26096 h -0.21963 v -0.25994 h -0.22117 v -0.25993 h -0.22014 v -0.25993 h -0.22015 v -0.26045 h -0.22065 v -0.25993 h -0.22015 v -0.25994 h -0.22014 v -0.25993 h -0.22066 v -0.25993 h -0.22014 v -0.25993 h -0.22014 v -0.25994 h -0.22066 v -0.25993 h -0.22014 v -0.26045 h -0.22014 v -0.25993 h -0.22118 v -0.25993 h -0.21962 V 111.279 h -0.22014 v -0.25994 h -0.22118 v -0.25993 h -0.21962 v -0.26097 h -0.22014 v -0.25993 h -0.22118 v -0.26045 h -0.22014 v -0.25993 h -0.21962 v -0.25993 h -0.22118 v -0.25993 h -0.22014 v -0.25994 h -0.21963 v -0.25993 h -0.22117 v -0.25993 h -0.22014 v -0.25993 h -0.21963 v -0.26045 h -0.22117 v -0.25994 h -0.22014 v -0.25993 h -0.22015 v -0.25993 h -0.22065 v -0.25993 h -0.22015 v -0.25994 h -0.22117 v -0.25993 h -0.21963 v -0.26045 h -0.22014 v -0.25993 h -0.22117 v -0.26097 h -0.21963 v -0.25993 h -0.22014 V 105.037 h -0.22117 v -0.25993 h -0.22015 v -0.25994 h -0.21962 v -0.25993 h -0.22118 v -0.26045 h -0.22014 v -0.25993 h -0.21962 v -0.25993 h -0.22118 v -0.25993 h -0.22014 v -0.25994 h -0.22014 v -0.25993 h -0.22066 v -0.25993 h -0.22014 v -0.25993 h -0.22014 v -0.26045 h -0.22066 v -0.25994 h -0.22014 v -0.25993 h -0.22014 v -0.25993 h -0.22066 v -0.25993 h -0.22014 v -0.26097 h -0.22015 v -0.25993 h -0.22117 v -0.25993 h -0.21963 V 99.836283 H 172.082 v -0.259932 h -0.22117 v -0.259933 h -0.21963 v -0.260449 h -0.22014 v -0.259932 h -0.22117 v -0.259933 h -0.22015 v -0.259932 h -0.21962 v -0.260449 h -0.22118 V 97.75579 h -0.22014 v -0.259932 h -0.21962 V 97.235925 H 169.878 v -0.260449 h -0.22014 v -0.259932 h -0.21962 v -0.259933 h -0.22118 v -0.259932 h -0.22014 v -0.259933 h -0.22014 v -0.260449 h -0.22066 v -0.259932 h -0.22014 v -0.259933 h -0.22014 V 94.8955 h -0.22066 v -0.26045 h -0.22014 v -0.259932 h -0.22014 v -0.259932 h -0.22066 v -0.259933 h -0.22014 v -0.260449 h -0.22015 v -0.259933 h -0.22117 v -0.259932 h -0.21963 v -0.259932 h -0.22014 v -0.26045 h -0.22117 v -0.259932 h -0.21963 v -0.259933 h -0.22014 V 91.77476 h -0.22117 v -0.259933 h -0.22015 v -0.260449 h -0.22065 v -0.259932 h -0.22015 v -0.259933 h -0.22014 v -0.259932 h -0.22066 v -0.260449 h -0.22014 v -0.259933 h -0.22014 v -0.259932 h -0.22066 v -0.259933 h -0.22014 v -0.260449 h -0.22014 v -0.259932 h -0.22118 V 88.65402 h -0.21962 v -0.259932 h -0.22014 v -0.259933 h -0.22118 v -0.260449 h -0.21962 v -0.259932 h -0.22014 v -0.259933 h -0.22118 v -0.259932 h -0.21962 v -0.26045 h -0.22015 v -0.259932 h -0.22117 v -0.259932 h -0.22014 v -0.26045 h -0.21963 v -0.259932 h -0.22117 V 85.53328 h -0.22014 v -0.259932 h -0.21963 v -0.259932 h -0.22117 v -0.26045 h -0.22015 v -0.259932 h -0.22014 v -0.259933 h -0.22066 v -0.259932 h -0.22014 v -0.259933 h -0.22014 v -0.260449 h -0.22066 v -0.259932 h -0.22014 v -0.259933 h -0.22014 v -0.260449 h -0.22066 v -0.259932 h -0.22014 v -0.259933 h -0.22014 v -0.259932 h -0.22118 v -0.259933 h -0.21962 V 81.372294 H 156.438 v -0.259932 h -0.22118 v -0.259933 h -0.21962 v -0.259932 h -0.22015 v -0.260449 h -0.22117 v -0.259933 h -0.21963 v -0.259932 h -0.22014 V 79.55225 h -0.22117 v -0.260449 h -0.22014 v -0.259933 h -0.21963 V 78.771936 H 154.234 v -0.259932 h -0.22015 v -0.26045 h -0.21962 v -0.259932 h -0.22117 v -0.259933 h -0.22015 v -0.259932 h -0.22014 v -0.259932 h -0.22066 v -0.26045 h -0.22014 v -0.259932 h -0.22014 V 76.43151 h -0.22066 v -0.259932 h -0.22014 v -0.260449 h -0.22014 v -0.259933 h -0.22066 v -0.259932 h -0.22014 v -0.259933 h -0.22118 v -0.260449 h -0.22014 V 74.61095 h -0.21962 v -0.259933 h -0.22118 v -0.259932 h -0.22014 v -0.259933 h -0.21962 v -0.260449 h -0.22118 v -0.259932 h -0.22014 v -0.259933 h -0.22014 v -0.259932 h -0.22066 v -0.260449 h -0.22014 v -0.259933 h -0.22014 v -0.259932 h -0.22066 v -0.259933 h -0.22014 V 71.49021 h -0.22015 v -0.259932 h -0.22065 v -0.259933 h -0.22015 v -0.259932 h -0.22014 v -0.26045 h -0.22117 v -0.259932 h -0.21963 v -0.259933 h -0.22014 v -0.259932 h -0.22117 v -0.259932 h -0.21963 v -0.26045 h -0.22014 v -0.259932 h -0.22118 v -0.259933 h -0.21962 v -0.259932 h -0.22014 v -0.260449 h -0.22118 v -0.259933 h -0.22014 v -0.259932 h -0.21962 V 67.32974 h -0.22118 v -0.260449 h -0.22014 v -0.259932 h -0.21963 v -0.259933 h -0.22117 v -0.259932 h -0.22014 v -0.260449 h -0.22014 V 65.769112 H 143.2171 V 65.50918 h -0.22014 v -0.259933 h -0.22015 v -0.259932 h -0.22065 v -0.260449 h -0.22015 v -0.259933 h -0.22014 v -0.259932 h -0.22066 v -0.259933 h -0.22014 v -0.260449 h -0.22014 v -0.259932 h -0.22117 v -0.259933 h -0.21963 v -0.259932 h -0.22014 v -0.26045 h -0.22118 V 62.38844 h -0.21962 v -0.259933 h -0.22014 v -0.259932 h -0.22118 v -0.259932 h -0.21962 v -0.26045 h -0.22014 v -0.259932 h -0.22118 v -0.259933 h -0.22014 v -0.259932 h -0.21962 v -0.260449 h -0.22118 v -0.259933 h -0.22014 v -0.259932 h -0.21963 v -0.259933 h -0.22117 V 59.2677 h -0.22014 v -0.259932 h -0.22066 v -0.259933 h -0.22014 v -0.259932 h -0.22014 v -0.260449 h -0.22118 v -0.259933 h -0.21962 v -0.259932 h -0.22015 v -0.259933 h -0.22117 v -0.259932 h -0.21963 v -0.260449 h -0.22014 v -0.259933 h -0.22117 V 56.40741 h -0.22014 v -0.259933 h -0.21963 v -0.260449 h -0.22117 v -0.259932 h -0.22015 v -0.259933 h -0.21962 v -0.259932 h -0.22118 v -0.26045 h -0.22014 v -0.259932 h -0.21962 v -0.259932 h -0.22118 v -0.259933 h -0.22014 v -0.259932 h -0.22014 v -0.26045 h -0.22066 V 53.28667 H 132.641 v -0.259933 h -0.22014 v -0.259932 h -0.22066 v -0.260449 h -0.22014 v -0.259933 h -0.22014 v -0.259932 h -0.22066 v -0.259933 h -0.22014 v -0.260449 h -0.22015 v -0.259932 h -0.22117 v -0.259933 h -0.21963 v -0.259932 h -0.22014 v -0.260449 h -0.22117 V 50.16593 h -0.21963 v -0.259932 h -0.22014 v -0.259933 h -0.22117 v -0.259932 h -0.22015 v -0.260449 h -0.21962 v -0.259933 h -0.22118 v -0.259932 h -0.22014 v -0.259933 h -0.21962 v -0.260449 h -0.22118 v -0.259932 h -0.22014 v -0.259933 h -0.22014 V 47.30564 h -0.22066 v -0.26045 h -0.22014 v -0.259932 h -0.22014 v -0.259932 h -0.22066 v -0.259933 h -0.22014 v -0.260449 h -0.22014 v -0.259933 h -0.22066 v -0.259932 h -0.22014 v -0.259933 h -0.22014 v -0.259932 h -0.22118 v -0.260449 h -0.21962 v -0.259933 h -0.22015 V 44.1849 h -0.22117 v -0.260449 h -0.21963 v -0.259933 h -0.22117 v -0.259932 h -0.22014 v -0.259933 h -0.21963 v -0.259932 h -0.22117 v -0.260449 h -0.22014 v -0.259933 h -0.22015 v -0.259932 h -0.22065 v -0.259933 h -0.22015 v -0.259932 h -0.22014 v -0.260449 h -0.22066 V 41.06416 h -0.22014 v -0.259932 h -0.22014 v -0.26045 h -0.22066 v -0.259932 h -0.22014 v -0.259932 h -0.22014 v -0.259933 h -0.22118 v -0.259932 h -0.21962 v -0.26045 h -0.22014 v -0.259932 h -0.22118 v -0.259932 h -0.21962 v -0.259933 h -0.22014 V 38.203353 H 119.8609 V 37.94342 h -0.22014 v -0.259932 h -0.21963 v -0.259932 h -0.22117 v -0.26045 h -0.22014 v -0.259932 h -0.21963 v -0.259933 h -0.22117 v -0.259932 h -0.22014 V 36.12286 h -0.21963 v -0.259933 h -0.22117 v -0.259932 h -0.22015 v -0.259933 h -0.22014 V 35.08313 h -0.22066 v -0.260449 h -0.22014 v -0.259933 h -0.22014 v -0.259932 h -0.22066 v -0.259933 h -0.22014 v -0.260449 h -0.22014 v -0.259932 h -0.22066 v -0.259933 h -0.22014 v -0.259932 h -0.22014 v -0.26045 h -0.22118 v -0.259932 h -0.21962 v -0.259932 h -0.22014 V 31.96239 h -0.22118 v -0.259932 h -0.21962 v -0.26045 h -0.22014 v -0.259932 h -0.22118 v -0.259932 h -0.22014 v -0.259933 h -0.21963 v -0.260449 h -0.22117 v -0.259933 h -0.22014 v -0.259932 h -0.21963 v -0.259932 h -0.22117 v -0.26045 h -0.22014 v -0.259932 h -0.22015 V 28.84165 h -0.22065 v -0.259932 h -0.22015 v -0.260449 h -0.22014 v -0.259933 h -0.22066 V 27.801404 H 111.048 v -0.259933 h -0.22117 V 27.281539 H 110.6072 V 27.02109 h -0.22014 v -0.259933 h -0.22117 v -0.259932 h -0.22015 v -0.259933 h -0.21962 v -0.260449 h -0.22118 v -0.259932 h -0.22014 v -0.259933 h -0.21962 V 25.201046 H 108.844 v -0.260449 h -0.22014 v -0.259933 h -0.21962 v -0.259932 h -0.22118 v -0.259933 h -0.22014 V 23.90035 h -0.22014 v -0.259933 h -0.22066 v -0.259932 h -0.22014 v -0.259932 h -0.22014 v -0.01447 -0.245463 h -0.22066 v -0.03721 -0.223242 h -0.22014 v -0.05891 -0.201022 h -0.22015 v -0.08113 -0.1788 h -0.22065 v -0.10387 -0.156062 h -0.22015 v -0.126091 -0.134359 h -0.22014 v -0.148311 -0.111621 h -0.22117 v -0.170532 -0.0894 h -0.21963 v -0.193269 -0.06666 h -0.22014 V 20.56464 20.51968 h -0.22117 v -0.237712 -0.02222 h -0.21963 v -0.259932 h -6.437332 v 10.937833 c 0,1.062499 -0.208585,2.062318 -0.625285,2.999817 -0.395799,0.937499 -0.94793,1.750078 -1.656229,2.437578 -0.7084,0.687499 -1.54129,1.23953 -2.499589,1.656229 -0.121671,0.05137 -0.247249,0.09018 -0.371037,0.134876 l -0.08217,-0.222726 h -0.124023 l -0.09612,-0.259932 h -0.124024 l -0.09612,-0.259932 h -0.12454 l -0.09612,-0.26045 h -0.124024 l -0.09612,-0.259932 h -0.124023 l -0.09612,-0.259933 h -0.12454 l -0.09612,-0.259932 h -0.124023 l -0.09612,-0.260449 H 91.31999 L 91.22387,35.86293 h -0.124023 l -0.09612,-0.259932 h -0.124024 l -0.09612,-0.259933 h -0.12454 l -0.09612,-0.259932 h -0.124024 l -0.09612,-0.260449 h -0.12454 l -0.09612,-0.259933 h -0.124024 l -0.09612,-0.259932 h -0.124023 l -0.09612,-0.259933 h -0.12454 l -0.09612,-0.260449 h -0.124023 l -0.09612,-0.259932 h -0.124023 l -0.09612,-0.259933 h -0.12454 l -0.09612,-0.259932 h -0.124023 l -0.09612,-0.26045 h -0.12454 l -0.09612,-0.259932 h -0.124024 l -0.09612,-0.259932 h -0.124024 l -0.09612,-0.259933 h -0.12454 l -0.09612,-0.259932 H 87.5745 l -0.09612,-0.26045 H 87.35384 L 87.25772,31.182079 H 87.1337 L 87.03758,30.922147 H 86.913558 L 86.81744,30.662211 H 86.6929 l -0.09612,-0.260449 h -0.124023 l -0.09612,-0.259933 h -0.124024 l -0.09612,-0.259932 h -0.12454 l -0.09612,-0.259932 h -0.124024 l -0.09612,-0.26045 h -0.12454 l -0.09612,-0.259932 h -0.124024 l -0.09612,-0.259933 h -0.124023 l -0.09612,-0.259932 h -0.124541 l -0.09612,-0.260449 h -0.124023 l -0.09612,-0.259933 h -0.124024 l -0.09612,-0.259932 h -0.12454 l -0.09612,-0.259933 H 84.04911 l -0.09612,-0.259932 h -0.124023 l -0.09664,-0.260449 h -0.124024 l -0.09612,-0.259933 H 83.38816 l -0.09612,-0.259932 h -0.124541 l -0.09612,-0.259933 h -0.124023 l -0.09612,-0.260449 h -0.124541 l -0.09612,-0.259932 h -0.124023 l -0.09612,-0.259933 H 82.28645 l -0.09612,-0.259932 h -0.12454 l -0.09612,-0.260449 h -0.12402 l -0.09612,-0.259933 h -0.124023 l -0.09612,-0.259932 h -0.12454 l -0.09612,-0.259933 H 81.184709 L 81.08859,23.90035 h -0.12454 l -0.09612,-0.259933 h -0.124023 l -0.09612,-0.259932 h -0.124024 l -0.09612,-0.259932 h -0.12454 l -0.09612,-0.259933 h -0.124024 l -0.09612,-0.260449 h -0.12454 l -0.09612,-0.259933 h -0.124024 l -0.09612,-0.259932 h -0.124023 l -0.09612,-0.259932 h -0.124023 l -0.09664,-0.26045 h -0.124023 l -0.0067,-0.01757 -0.0894,-0.242362 h -0.12454 l -0.02429,-0.06615 -0.07131,-0.193787 h -0.12454 l -0.04237,-0.114721 -0.05374,-0.145211 h -0.124023 l -0.06046,-0.163298 -0.03566,-0.09715 h -0.12454 l -0.07803,-0.211357 -0.01809,-0.04858 H 77.87949 l -0.09612,-0.259932 h -5.719031 l -2.404504,6.501412 H 69.477413 V 26.241292 H 69.257271 V 25.980843 H 69.036613 V 25.720911 H 68.816471 V 25.460978 H 68.59633 V 25.201046 H 68.375671 V 24.940597 H 68.15553 V 24.680664 H 67.935388 V 24.420732 H 67.934871 67.71473 V 24.160799 H 67.494588 V 23.90035 H 67.27393 V 23.640417 H 67.053788 V 23.380485 H 66.833647 V 23.120553 H 66.612988 V 22.86062 h -0.220141 v -0.260449 h -0.220659 v -0.259933 h -0.220141 v -0.259932 h -0.220142 v -0.259932 h -0.220658 v -0.26045 h -0.220142 v -0.259932 h -0.220141 v -0.259933 h -5.17e-4 -0.220142 V 20.780127 H 64.630164 V 20.519678 H 64.409505 V 20.259745 H 64.189364 V 19.999813 Z M 196.63813,173.17754 c 0.036,0.006 0.0657,0.008 0.10128,0.014 l -0.0336,0.16846 z" /><g
     id="g2"
     transform="translate(0,0.122929)"><path
       style="fill:#f9f9f9;stroke-width:0.160865"
       d="m 44.767293,59.469755 c -0.03217,0.248113 -0.05478,0.499286 -0.05478,0.756026 v 29.302084 c 0,3.23161 2.629198,5.86063 5.860624,5.86063 h 48.607369 c 3.231464,0 5.860634,-2.62902 5.860634,-5.86063 V 60.225781 c 0,-0.25674 -0.0226,-0.507913 -0.0548,-0.756026 z"
       id="path16" /><path
       id="path5"
       style="fill:#f44336;fill-opacity:1;stroke-width:0.160865"
       d="m 50.573142,54.365671 c -2.974716,0 -5.433052,2.229204 -5.805847,5.104081 h 60.219065 c -0.37279,-2.874877 -2.83112,-5.104081 -5.805854,-5.104081 z" /><g
       id="g1"><path
         style="fill:#798388;fill-opacity:1;stroke-width:0.160865"
         d="m 49.787227,83.040591 h 14.612028 c 0.816296,0 1.477946,0.661665 1.477946,1.477946 0,0.816083 -0.661866,1.477429 -1.477946,1.477429 H 49.787227 c -0.815895,0 -1.477429,-0.661148 -1.477429,-1.477429 0,-0.816281 0.661534,-1.477946 1.477429,-1.477946 z"
         id="path29" /><path
         style="fill:#798388;fill-opacity:1;stroke-width:0.160865"
         d="m 49.787227,77.783547 h 25.239286 c 0.816084,0 1.47743,0.661146 1.47743,1.47743 0,0.81628 -0.661138,1.477946 -1.47743,1.477946 H 49.787227 c -0.815893,0 -1.477429,-0.661666 -1.477429,-1.477946 0,-0.816284 0.661536,-1.47743 1.477429,-1.47743 z"
         id="path28" /><path
         style="fill:#798388;fill-opacity:1;stroke-width:0.160865"
         d="m 63.674235,67.326821 h 1.459859 v 4.985226 h -1.459859 z"
         id="path24" /><path
         style="fill:#798388;fill-opacity:1;stroke-width:0.160865"
         d="m 59.051778,67.326821 h 1.399914 v 3.721737 h 2.586923 v 1.263489 h -3.986837 z"
         id="path23" /><path
         id="path22"
         style="fill:#798388;fill-opacity:1;stroke-width:0.160865"
         d="m 73.856559,67.183161 c -0.36312,10e-7 -0.706103,0.07015 -1.028878,0.211356 -0.322776,0.13617 -0.604899,0.325326 -0.846977,0.567408 -0.237034,0.237032 -0.426188,0.516967 -0.567407,0.839742 -0.136162,0.317726 -0.204122,0.658521 -0.204122,1.021643 0,0.363116 0.06796,0.706102 0.204122,1.028878 0.141219,0.322769 0.330373,0.602704 0.567407,0.839742 0.242078,0.237032 0.524201,0.425676 0.846977,0.56689 0.322775,0.136169 0.665758,0.204639 1.028878,0.204639 0.36312,0 0.706103,-0.06847 1.028878,-0.204639 0.32277,-0.141214 0.602702,-0.329858 0.839742,-0.56689 0.242072,-0.237038 0.431234,-0.516973 0.567407,-0.839742 0.141213,-0.322776 0.211873,-0.665762 0.211873,-1.028878 0,-0.363122 -0.07066,-0.706104 -0.211873,-1.028878 -0.136173,-0.322776 -0.325335,-0.602704 -0.567407,-0.839742 -0.23704,-0.237038 -0.516972,-0.424003 -0.839742,-0.560173 -0.322775,-0.141215 -0.665758,-0.211356 -1.028878,-0.211356 z m 0,1.368909 c 0.171472,0 0.330721,0.03534 0.476973,0.105936 0.151304,0.06556 0.279594,0.156339 0.385507,0.272335 0.11096,0.115997 0.196838,0.252417 0.257348,0.408761 0.06051,0.151296 0.09095,0.312733 0.09095,0.484208 0,0.171473 -0.03044,0.335098 -0.09095,0.491443 -0.06052,0.151295 -0.146403,0.287721 -0.257348,0.40876 -0.105913,0.115999 -0.234203,0.20896 -0.385507,0.27957 -0.146252,0.06556 -0.305501,0.0987 -0.476973,0.0987 -0.171472,0 -0.332905,-0.03313 -0.484208,-0.0987 -0.146258,-0.07061 -0.274562,-0.163572 -0.385506,-0.27957 -0.105914,-0.12104 -0.191779,-0.257465 -0.257349,-0.40876 -0.06051,-0.156345 -0.09095,-0.31997 -0.09095,-0.491443 0,-0.171475 0.03044,-0.332912 0.09095,-0.484208 0.06557,-0.156344 0.151436,-0.292764 0.257349,-0.408761 0.110944,-0.115995 0.239248,-0.206765 0.385506,-0.272335 0.151303,-0.07061 0.312736,-0.105936 0.484208,-0.105936 z" /><path
         id="path21"
         style="fill:#798388;fill-opacity:1;stroke-width:0.160865"
         d="m 55.942924,67.183161 c -0.363121,10e-7 -0.706103,0.07015 -1.028878,0.211356 -0.322774,0.13617 -0.605413,0.325326 -0.847494,0.567408 -0.237032,0.237032 -0.426192,0.516967 -0.567407,0.839742 -0.136172,0.317726 -0.204122,0.658521 -0.204122,1.021643 0,0.363116 0.06795,0.706102 0.204122,1.028878 0.141215,0.322769 0.330375,0.602704 0.567407,0.839742 0.242081,0.237032 0.52472,0.425676 0.847494,0.56689 0.322775,0.136169 0.665757,0.204639 1.028878,0.204639 0.363117,0 0.706107,-0.06847 1.028877,-0.204639 0.322775,-0.141214 0.602188,-0.329858 0.839226,-0.56689 0.242075,-0.237038 0.431236,-0.516973 0.567407,-0.839742 0.141213,-0.322776 0.211873,-0.665762 0.211873,-1.028878 0,-0.363122 -0.07066,-0.706104 -0.211873,-1.028878 -0.136171,-0.322776 -0.325332,-0.602704 -0.567407,-0.839742 -0.237038,-0.237038 -0.516451,-0.424003 -0.839226,-0.560173 -0.32277,-0.141215 -0.66576,-0.211356 -1.028877,-0.211356 z m 0,1.368909 c 0.171469,0 0.330199,0.03534 0.476456,0.105936 0.151302,0.06556 0.279597,0.156339 0.385507,0.272335 0.110949,0.115997 0.196828,0.252417 0.257348,0.408761 0.06052,0.151296 0.09095,0.312733 0.09095,0.484208 0,0.171473 -0.03043,0.335098 -0.09095,0.491443 -0.06052,0.151295 -0.146399,0.287721 -0.257348,0.40876 -0.10591,0.115999 -0.234205,0.20896 -0.385507,0.27957 -0.146257,0.06556 -0.304987,0.0987 -0.476456,0.0987 -0.171474,0 -0.332907,-0.03313 -0.484209,-0.0987 -0.146252,-0.07061 -0.275074,-0.163572 -0.386022,-0.27957 -0.105914,-0.12104 -0.191789,-0.257465 -0.257349,-0.40876 -0.06052,-0.156345 -0.09043,-0.31997 -0.09043,-0.491443 0,-0.171475 0.02991,-0.332912 0.09043,-0.484208 0.06556,-0.156344 0.151438,-0.292764 0.257349,-0.408761 0.110948,-0.115995 0.23977,-0.206765 0.386022,-0.272335 0.151302,-0.07061 0.312735,-0.105936 0.484209,-0.105936 z" /><path
         style="fill:#798388;fill-opacity:1;stroke-width:0.160865"
         d="m 65.822424,66.441604 h 5.031217 v 1.346688 l -0.105936,0.105937 h -1.611788 v 4.417818 h -1.595768 v -4.417818 h -1.611788 l -0.105937,-0.105937 z"
         id="path20" /><path
         id="path19"
         style="fill:#798388;fill-opacity:1;stroke-width:0.160865"
         d="m 48.309798,66.441604 v 5.870443 h 1.573547 v -1.823145 h 1.066602 c 0.282423,0 0.552042,-0.05325 0.809253,-0.159163 0.262249,-0.110954 0.491639,-0.259363 0.68833,-0.445968 0.201734,-0.191648 0.360975,-0.413942 0.476973,-0.666109 0.121045,-0.252168 0.181385,-0.524494 0.181385,-0.817004 0,-0.287472 -0.06034,-0.552187 -0.181385,-0.794267 -0.115998,-0.242081 -0.275239,-0.448649 -0.476973,-0.620117 -0.196691,-0.171474 -0.426081,-0.30519 -0.68833,-0.40101 -0.257211,-0.09582 -0.52683,-0.14366 -0.809253,-0.14366 z m 1.611271,1.301213 h 0.91519 c 0.09078,0 0.176648,0.0174 0.257348,0.05271 0.08069,0.03026 0.151354,0.07591 0.211874,0.136425 0.06052,0.05548 0.10836,0.120721 0.14366,0.196371 0.03531,0.07565 0.05271,0.159334 0.05271,0.250114 0,0.09078 -0.0174,0.173947 -0.05271,0.249597 -0.0353,0.07565 -0.08314,0.143602 -0.14366,0.204122 -0.06052,0.05547 -0.131184,0.100599 -0.211874,0.135909 -0.08069,0.03026 -0.166568,0.04547 -0.257348,0.04547 h -0.91519 z" /></g></g><path
     id="path1"
     style="fill:#5c6bc0;stroke-width:1.09875"
     d="m 90.467346,66.441423 c -3.640942,0 -6.592362,2.951936 -6.592362,6.592879 0,3.640931 2.95142,6.592362 6.592362,6.592362 3.64094,0 6.59236,-2.951431 6.59236,-6.592362 0,-3.640943 -2.95142,-6.592879 -6.59236,-6.592879 z m 0,15.382523 c -3.050901,0 -5.432253,0.243202 -7.217647,0.991671 -1.911551,0.80132 -3.08266,2.159845 -3.707268,4.134631 -0.230858,0.7299 0.31595,1.466577 1.073837,1.466577 h 19.694922 c 0.76099,0 1.31172,-0.739846 1.07901,-1.473811 -0.62651,-1.974897 -1.801884,-3.332816 -3.716574,-4.132048 -1.78382,-0.744623 -4.16163,-0.98702 -7.20628,-0.98702 z" /><text
     xml:space="preserve"
     transform="matrix(0.78125,0,0,0.78125,-53.287304,-40.024292)"
     id="text1039"
     style="font-style:normal;font-variant:normal;font-weight:normal;font-stretch:normal;font-size:40px;line-height:1.25;font-family:PRIMETIME;-inkscape-font-specification:'PRIMETIME, Normal';font-variant-ligatures:normal;font-variant-caps:normal;font-variant-numeric:normal;font-variant-east-asian:normal;letter-spacing:0px;word-spacing:0px;white-space:pre;shape-inside:url(#rect1039);fill:#ffd500;fill-opacity:1;stroke:none"><tspan
       x="124.65039"
       y="107.87109"
       id="tspan2">FAJ</tspan></text><text
     xml:space="preserve"
     transform="matrix(0.76126675,0,0,0.76126675,-58.764439,-219.48912)"
     id="text1040"
     style="font-style:normal;font-variant:normal;font-weight:normal;font-stretch:normal;font-size:40px;line-height:1.25;font-family:PRIMETIME;-inkscape-font-specification:'PRIMETIME, Normal';font-variant-ligatures:normal;font-variant-caps:normal;font-variant-numeric:normal;font-variant-east-asian:normal;letter-spacing:0px;word-spacing:0px;white-space:pre;shape-inside:url(#rect1040);fill:#ffd500;fill-opacity:1;stroke:none"><tspan
       x="128.77148"
       y="458.12891"
       id="tspan4">KOR</tspan></text><path
     id="text1041"
     style="font-size:40px;line-height:1.25;font-family:PRIMETIME;-inkscape-font-specification:'PRIMETIME, Normal';letter-spacing:0px;word-spacing:0px;white-space:pre;fill:#ffd500"
     d="M 45.5957,19.9998 45.096,20.5 v 23.75 h 6.4688 V 35.1875 H 62.6897 V 29.2814 H 51.5648 V 25.969 h 12.6246 v -5.9692 z m 26.4686,0 -8.9684,24.2502 h 6.8435 l 1.2501,-3.344 h 7.4688 l 1.25,3.344 h 6.8435 L 77.7834,19.9998 Z m 26.1566,0 v 10.9378 c 0,1.0625 -0.2086,2.0624 -0.6253,2.9999 -0.3958,0.9375 -0.9479,1.75 -1.6562,2.4375 -0.7084,0.6875 -1.5413,1.2396 -2.4996,1.6563 -0.9375,0.3958 -1.9379,0.5937 -3.0004,0.5937 -0.2291,0 -0.4688,-0.0107 -0.7188,-0.0315 -0.25,-0.0208 -0.5308,-0.062 -0.8433,-0.1245 l -1.2501,6.2187 c 0.5625,0.1042 1.083,0.1769 1.5622,0.2186 0.5,0.0625 0.99,0.0935 1.4691,0.0935 1.9167,0 3.7184,-0.3541 5.4059,-1.0624 1.7084,-0.7292 3.1982,-1.7188 4.4686,-2.9688 1.271,-1.25 2.271,-2.7083 3,-4.375 0.75,-1.6875 1.125,-3.4897 1.125,-5.4064 V 19.9998 Z m -23.2813,8.8754 1.9064,6.4059 H 73.0023 Z M 72.0602,105 c -1.7458,0 -3.38,0.335 -4.9025,1.005 -1.5226,0.65 -2.8521,1.542 -3.9889,2.679 -1.1369,1.117 -2.04,2.437 -2.71,3.959 -0.6496,1.523 -0.9746,3.147 -0.9746,4.872 0,1.726 0.325,3.35 0.9746,4.872 0.67,1.523 1.5731,2.852 2.71,3.989 1.1368,1.117 2.4663,2 3.9889,2.65 1.5225,0.649 3.1567,0.974 4.9025,0.974 1.7255,0 3.3495,-0.325 4.8721,-0.974 1.5428,-0.65 2.883,-1.533 4.0199,-2.65 1.1368,-1.137 2.0298,-2.466 2.6794,-3.989 0.6699,-1.522 1.0051,-3.146 1.0051,-4.872 0,-1.725 -0.3352,-3.349 -1.0051,-4.872 -0.6496,-1.522 -1.5426,-2.842 -2.6794,-3.959 -1.1369,-1.137 -2.4771,-2.029 -4.0199,-2.679 C 75.4097,105.335 73.7857,105 72.0602,105 Z m -31.6379,0.64 v 23.629 h 6.486 v -7.947 l 6.4859,7.947 h 7.6734 L 51.7193,116.815 61.372,105.64 h -7.9778 l -6.4859,7.947 v -7.947 z m 47.2287,0 v 23.629 h 6.5164 l -0.0305,-7.308 h 3.9894 l 4.1107,7.308 h 7.095 l -5.542,-9.744 c 0.974,-0.69 1.736,-1.543 2.284,-2.558 0.548,-1.015 0.822,-2.111 0.822,-3.289 0,-0.71 -0.112,-1.451 -0.335,-2.222 -0.203,-0.792 -0.508,-1.482 -0.914,-2.071 -0.325,-0.467 -0.72,-0.924 -1.187,-1.37 -0.467,-0.447 -0.974,-0.843 -1.523,-1.188 -0.548,-0.365 -1.116,-0.65 -1.705,-0.853 -0.589,-0.223 -1.167,-0.334 -1.7357,-0.334 z m 6.3035,5.237 h 3.6845 c 0.3654,0 0.7103,0.071 1.0351,0.213 0.3248,0.122 0.609,0.305 0.8526,0.548 0.2436,0.223 0.4367,0.487 0.5793,0.792 0.142,0.304 0.212,0.64 0.212,1.005 0,0.365 -0.07,0.7 -0.212,1.005 -0.1426,0.304 -0.3357,0.578 -0.5793,0.822 -0.2436,0.223 -0.5278,0.406 -0.8526,0.548 -0.3248,0.122 -0.6697,0.183 -1.0351,0.183 h -3.6845 z m -21.8943,0.152 c 0.8932,0 1.7154,0.183 2.4665,0.548 0.7714,0.345 1.4311,0.812 1.9792,1.401 0.5481,0.589 0.9745,1.279 1.279,2.071 0.3248,0.771 0.4873,1.593 0.4873,2.466 0,0.853 -0.1625,1.675 -0.4873,2.467 -0.3045,0.792 -0.7309,1.482 -1.279,2.07 -0.5481,0.589 -1.2078,1.066 -1.9792,1.431 -0.7511,0.346 -1.5733,0.518 -2.4665,0.518 -0.8932,0 -1.7256,-0.172 -2.497,-0.518 -0.7511,-0.365 -1.4006,-0.842 -1.9487,-1.431 -0.5481,-0.588 -0.9847,-1.278 -1.3095,-2.07 -0.3045,-0.792 -0.4568,-1.614 -0.4568,-2.467 0,-0.873 0.1523,-1.695 0.4568,-2.466 0.3248,-0.792 0.7614,-1.482 1.3095,-2.071 0.5481,-0.589 1.1976,-1.056 1.9487,-1.401 0.7714,-0.365 1.6038,-0.548 2.497,-0.548 z" /></svg>
