<?xml version="1.0" encoding="UTF-8" standalone="no"?>
<!-- Created with Inkscape (http://www.inkscape.org/) -->

<svg
   width="67.73333mm"
   height="67.73333mm"
   viewBox="0 0 67.733327 67.733327"
   version="1.1"
   id="svg1"
   xml:space="preserve"
   sodipodi:docname="A4.svg"
   inkscape:version="1.3 (0e150ed6c4, 2023-07-21)"
   inkscape:export-filename="A4.png"
   inkscape:export-xdpi="1536.0001"
   inkscape:export-ydpi="1536.0001"
   xmlns:inkscape="http://www.inkscape.org/namespaces/inkscape"
   xmlns:sodipodi="http://sodipodi.sourceforge.net/DTD/sodipodi-0.dtd"
   xmlns="http://www.w3.org/2000/svg"
   xmlns:svg="http://www.w3.org/2000/svg"><sodipodi:namedview
     id="namedview1"
     pagecolor="#ffffff"
     bordercolor="#999999"
     borderopacity="1"
     inkscape:showpageshadow="2"
     inkscape:pageopacity="0"
     inkscape:pagecheckerboard="0"
     inkscape:deskcolor="#d1d1d1"
     inkscape:document-units="mm"
     inkscape:zoom="1.8220149"
     inkscape:cx="200.32767"
     inkscape:cy="146.81548"
     inkscape:window-width="1920"
     inkscape:window-height="1001"
     inkscape:window-x="-9"
     inkscape:window-y="-9"
     inkscape:window-maximized="1"
     inkscape:current-layer="svg1" /><defs
     id="defs1"><rect
       x="128.7717"
       y="414.12979"
       width="302.87103"
       height="109.1984"
       id="rect1040" /><rect
       x="124.651"
       y="63.870762"
       width="290.50894"
       height="105.07771"
       id="rect1039" /></defs><path
     id="rect1-3"
     style="fill:#90caf9;fill-opacity:1;stroke-width:0.133495"
     d="M 0,0 H 67.73332 V 67.733333 H 0 Z" /><path
     id="path35"
     style="fill:#000001;fill-opacity:0.247059;stroke-width:0.072759"
     d="m 44.629972,8.73499 c -0.221444,0 -0.443025,0.0083 -0.664497,0.024777 -0.221394,0.016473 -0.442903,0.041123 -0.664263,0.074093 -0.442873,0.065959 -0.866782,0.1791896 -1.271963,0.3393768 -0.395759,0.1601887 -0.758686,0.381578 -1.088485,0.6642635 -0.329799,0.2826837 -0.598369,0.6407767 -0.80567,1.0742267 -0.103652,0.216726 -0.183739,0.447552 -0.240276,0.692545 -0.04711,0.235571 -0.07059,0.470997 -0.07059,0.706568 0,0.169611 0.0075,0.330931 0.0222,0.484057 0.0064,0.06652 0.01957,0.125447 0.02875,0.188854 l -2.488766,-2.488766 -0.03576,-0.03553 C 36.822975,9.9317805 36.201148,9.5170713 35.485013,9.2155418 c -0.706709,-0.3109536 -1.46064,-0.466527 -2.26158,-0.466527 -0.810362,0 -1.568892,0.1555734 -2.275604,0.466527 -0.576561,0.2460002 -1.090358,0.5713305 -1.547766,0.9678792 L 28.262495,9.0458531 H 24.559263 L 23.206429,10.703706 21.548576,9.0458531 H 18.538123 V 20.014141 l 4.630909,4.63091 H 22.87407 c -1.345451,0 -2.457352,1.008266 -2.625966,2.30856 -0.01455,0.112221 -0.02478,0.225826 -0.02478,0.341948 v 13.253242 c 0,0.36541 0.0744,0.713732 0.208722,1.030753 0.06716,0.15851 0.149348,0.309123 0.244716,0.450166 0.04313,0.0638 0.09795,0.117944 0.146316,0.177635 0.05858,0.07229 0.111671,0.149303 0.177402,0.215032 l 7.939837,7.939839 1.12518,1.125179 V 52.20122 L 27.02162,49.157344 c -0.257085,-0.257131 -0.537041,-0.486445 -0.840029,-0.688342 -0.302989,-0.201973 -0.629022,-0.376415 -0.97793,-0.523321 -0.516405,-0.227216 -1.058732,-0.369232 -1.626766,-0.42609 h -2.34e-4 c -0.189373,-0.01895 -0.3815,-0.02849 -0.576614,-0.02849 -0.789634,0 -1.528769,0.15161 -2.217405,0.454608 -0.344315,0.146906 -0.666897,0.321348 -0.967645,0.523321 -0.300749,0.201896 -0.579672,0.431211 -0.836757,0.688341 v 2.31e-4 c -0.51418,0.505003 -0.922685,1.10199 -1.225684,1.790612 -0.146909,0.34432 -0.257019,0.700182 -0.330496,1.067452 -0.03674,0.183632 -0.06437,0.369974 -0.08274,0.559315 v 2.35e-4 c -0.01836,0.189295 -0.02757,0.381349 -0.02758,0.57638 v 2.35e-4 c 8e-6,0.195085 0.0092,0.387288 0.02758,0.576615 v 2.31e-4 c 0.05511,0.568044 0.192924,1.110352 0.413237,1.626767 0.07572,0.172144 0.158146,0.338752 0.247053,0.499951 0.266812,0.483772 0.593002,0.91856 0.978631,1.30422 6.72e-4,4.52e-4 0.0014,0.0014 0.0021,0.0018 l 10.57188,10.571883 H 67.733333 V 28.785125 L 48.799732,9.8515222 h -2.35e-4 C 48.47918,9.6536813 48.150618,9.4839962 47.813852,9.3426906 h -2.31e-4 C 47.476787,9.2013677 47.131784,9.0883523 46.778427,9.0035466 46.071713,8.824514 45.355533,8.73499 44.629972,8.73499 Z" /><path
     style="fill:#f9f9f9;stroke-width:0.072759"
     d="m 20.248104,26.953583 c -0.01455,0.11222 -0.02478,0.225825 -0.02478,0.341948 v 13.25324 c 0,1.461647 1.189178,2.650744 2.650742,2.650744 h 21.984957 c 1.461581,0 2.650747,-1.189097 2.650747,-2.650744 v -13.25324 c 0,-0.116123 -0.01022,-0.229728 -0.02479,-0.341948 z"
     id="path16" /><path
     id="path5"
     style="fill:#f44336;fill-opacity:1;stroke-width:0.072759"
     d="m 22.874071,24.645022 c -1.345455,0 -2.457352,1.008262 -2.625966,2.308559 h 27.236891 c -0.168612,-1.300297 -1.280507,-2.308559 -2.62597,-2.308559 z" /><path
     style="fill:#798388;fill-opacity:1;stroke-width:0.072759"
     d="m 22.518604,37.614597 h 6.608974 c 0.369208,0 0.66847,0.299269 0.66847,0.668471 0,0.369111 -0.29936,0.668236 -0.66847,0.668236 h -6.608974 c -0.369027,0 -0.668236,-0.299035 -0.668236,-0.668236 0,-0.369202 0.299209,-0.668471 0.668236,-0.668471 z"
     id="path29" /><path
     style="fill:#798388;fill-opacity:1;stroke-width:0.072759"
     d="m 22.518604,35.236853 h 11.415648 c 0.369113,0 0.668237,0.299034 0.668237,0.668237 0,0.369201 -0.29903,0.66847 -0.668237,0.66847 H 22.518604 c -0.369026,0 -0.668236,-0.299269 -0.668236,-0.66847 0,-0.369203 0.29921,-0.668237 0.668236,-0.668237 z"
     id="path28" /><path
     style="fill:#798388;fill-opacity:1;stroke-width:0.072759"
     d="m 28.799653,30.507309 h 0.66029 v 2.254802 h -0.66029 z"
     id="path24" /><path
     style="fill:#798388;fill-opacity:1;stroke-width:0.072759"
     d="m 26.708931,30.507309 h 0.633176 v 1.68333 h 1.170057 v 0.571472 h -1.803233 z"
     id="path23" /><path
     id="path22"
     style="fill:#798388;fill-opacity:1;stroke-width:0.072759"
     d="m 33.405086,30.442332 c -0.164238,0 -0.319368,0.03173 -0.465358,0.09559 -0.145991,0.06159 -0.273594,0.147144 -0.383085,0.256637 -0.10721,0.107209 -0.192764,0.233823 -0.256637,0.379813 -0.06159,0.143706 -0.09232,0.297847 -0.09232,0.462086 0,0.164236 0.03074,0.319368 0.09232,0.465358 0.06387,0.145988 0.149427,0.272601 0.256637,0.379813 0.109491,0.107209 0.237094,0.192532 0.383085,0.256402 0.14599,0.06159 0.30112,0.09256 0.465358,0.09256 0.164238,0 0.319368,-0.03097 0.465358,-0.09256 0.145988,-0.06387 0.2726,-0.149193 0.379813,-0.256402 0.109488,-0.107212 0.195046,-0.233825 0.256636,-0.379813 0.06387,-0.14599 0.09583,-0.301122 0.09583,-0.465358 0,-0.164239 -0.03196,-0.319369 -0.09583,-0.465358 -0.06159,-0.145991 -0.147148,-0.272602 -0.256636,-0.379813 -0.107213,-0.107212 -0.233825,-0.191775 -0.379813,-0.253365 -0.14599,-0.06387 -0.30112,-0.09559 -0.465358,-0.09559 z m 0,0.619153 c 0.07756,0 0.149584,0.01598 0.215733,0.04791 0.06844,0.02965 0.12646,0.07071 0.174364,0.123176 0.05019,0.05246 0.08903,0.114167 0.116398,0.184881 0.02737,0.06843 0.04114,0.141448 0.04114,0.219006 0,0.07756 -0.01377,0.151564 -0.04114,0.222278 -0.02737,0.06843 -0.06622,0.130135 -0.116398,0.184881 -0.0479,0.05247 -0.105929,0.09451 -0.174364,0.126448 -0.06615,0.02965 -0.138177,0.04464 -0.215733,0.04464 -0.07756,0 -0.150572,-0.01498 -0.219006,-0.04464 -0.06615,-0.03194 -0.124183,-0.07398 -0.174363,-0.126448 -0.0479,-0.05475 -0.08674,-0.116451 -0.116398,-0.184881 -0.02737,-0.07071 -0.04114,-0.144721 -0.04114,-0.222278 0,-0.07756 0.01377,-0.150575 0.04114,-0.219006 0.02966,-0.07071 0.06849,-0.132416 0.116398,-0.184881 0.05018,-0.05246 0.108211,-0.09352 0.174363,-0.123176 0.06843,-0.03194 0.14145,-0.04791 0.219006,-0.04791 z" /><path
     id="path21"
     style="fill:#798388;fill-opacity:1;stroke-width:0.072759"
     d="m 25.302806,30.442332 c -0.164238,0 -0.319368,0.03173 -0.465358,0.09559 -0.14599,0.06159 -0.273827,0.147144 -0.383319,0.256637 -0.107209,0.107209 -0.192765,0.233823 -0.256636,0.379813 -0.06159,0.143706 -0.09232,0.297847 -0.09232,0.462086 0,0.164236 0.03073,0.319368 0.09232,0.465358 0.06387,0.145988 0.149427,0.272601 0.256636,0.379813 0.109492,0.107209 0.237329,0.192532 0.383319,0.256402 0.14599,0.06159 0.30112,0.09256 0.465358,0.09256 0.164237,0 0.31937,-0.03097 0.465358,-0.09256 0.14599,-0.06387 0.272368,-0.149193 0.379579,-0.256402 0.10949,-0.107212 0.195047,-0.233825 0.256636,-0.379813 0.06387,-0.14599 0.09583,-0.301122 0.09583,-0.465358 0,-0.164239 -0.03196,-0.319369 -0.09583,-0.465358 -0.06159,-0.145991 -0.147146,-0.272602 -0.256636,-0.379813 -0.107211,-0.107212 -0.233589,-0.191775 -0.379579,-0.253365 -0.145988,-0.06387 -0.301121,-0.09559 -0.465358,-0.09559 z m 0,0.619153 c 0.07756,0 0.149348,0.01598 0.2155,0.04791 0.06843,0.02965 0.12646,0.07071 0.174363,0.123176 0.05018,0.05246 0.08903,0.114167 0.116398,0.184881 0.02737,0.06843 0.04114,0.141448 0.04114,0.219006 0,0.07756 -0.01376,0.151564 -0.04114,0.222278 -0.02737,0.06843 -0.06622,0.130135 -0.116398,0.184881 -0.0479,0.05247 -0.10593,0.09451 -0.174363,0.126448 -0.06615,0.02965 -0.137945,0.04464 -0.2155,0.04464 -0.07756,0 -0.150573,-0.01498 -0.219006,-0.04464 -0.06615,-0.03194 -0.124415,-0.07398 -0.174597,-0.126448 -0.0479,-0.05475 -0.08675,-0.116451 -0.116398,-0.184881 -0.02737,-0.07071 -0.0409,-0.144721 -0.0409,-0.222278 0,-0.07756 0.01353,-0.150575 0.0409,-0.219006 0.02965,-0.07071 0.06849,-0.132416 0.116398,-0.184881 0.05018,-0.05246 0.108448,-0.09352 0.174597,-0.123176 0.06843,-0.03194 0.141449,-0.04791 0.219006,-0.04791 z" /><path
     style="fill:#798388;fill-opacity:1;stroke-width:0.072759"
     d="m 29.771272,30.106928 h 2.275604 v 0.609103 l -0.04791,0.04791 H 31.26996 v 1.998165 h -0.721761 v -1.998165 h -0.729007 l -0.04791,-0.04791 z"
     id="path20" /><path
     id="path19"
     style="fill:#798388;fill-opacity:1;stroke-width:0.072759"
     d="m 21.850368,30.106928 v 2.655183 h 0.71171 v -0.824603 h 0.48242 c 0.12774,0 0.249687,-0.02408 0.366023,-0.07199 0.118614,-0.05018 0.222367,-0.117309 0.311329,-0.20171 0.09124,-0.08668 0.163268,-0.187224 0.215734,-0.301279 0.05475,-0.114055 0.08204,-0.237227 0.08204,-0.369528 0,-0.130023 -0.02729,-0.249753 -0.08204,-0.359245 -0.05247,-0.109492 -0.12449,-0.202922 -0.215734,-0.280477 -0.08896,-0.07756 -0.192715,-0.138036 -0.311329,-0.181375 -0.116336,-0.04334 -0.238283,-0.06498 -0.366023,-0.06498 z m 0.728772,0.588534 h 0.413938 c 0.04106,0 0.0799,0.0079 0.116397,0.02384 0.0365,0.01369 0.06846,0.03433 0.09583,0.0617 0.02737,0.02509 0.04901,0.0546 0.06498,0.08882 0.01597,0.03422 0.02384,0.07207 0.02384,0.113125 0,0.04106 -0.0079,0.07868 -0.02384,0.112892 -0.01597,0.03422 -0.0376,0.06495 -0.06498,0.09232 -0.02737,0.02509 -0.05933,0.0455 -0.09583,0.06147 -0.03649,0.01369 -0.07534,0.02057 -0.116397,0.02057 H 22.57914 Z" /><path
     id="path1"
     style="fill:#5c6bc0;stroke-width:0.496961"
     d="m 40.918092,30.051246 c -1.646786,0 -2.981704,1.335151 -2.981704,2.981938 0,1.646782 1.334918,2.981705 2.981704,2.981705 1.646786,0 2.981703,-1.334923 2.981703,-2.981705 0,-1.646787 -1.334917,-2.981938 -2.981703,-2.981938 z m 0,6.957466 c -1.379913,0 -2.456991,0.11 -3.264519,0.44853 -0.864588,0.362434 -1.394277,0.976891 -1.676785,1.87008 -0.104417,0.330132 0.142903,0.663329 0.485693,0.663329 h 8.90795 c 0.344194,0 0.593287,-0.33463 0.488033,-0.666601 -0.283368,-0.893239 -0.814986,-1.507422 -1.680995,-1.868912 -0.806816,-0.33679 -1.882292,-0.446426 -3.259377,-0.446426 z" /><path
     style="font-size:40px;line-height:1.25;font-family:PRIMETIME;-inkscape-font-specification:'PRIMETIME, Normal';letter-spacing:0px;word-spacing:0px;white-space:pre;fill:#ffd500;stroke-width:0.353357"
     d="m 44.234144,20.353356 q -1.102473,0 -2.190813,-0.268551 -1.074205,-0.254417 -2.063604,-0.720848 -0.02827,0 -0.141343,-0.05654 -0.113074,-0.07067 -0.113074,-0.09894 0,-0.01413 0.05654,-0.113074 0.05654,-0.09894 0.141343,-0.240283 0.08481,-0.155477 0.19788,-0.339222 0.113074,-0.19788 0.226148,-0.39576 0.240283,-0.39576 0.452297,-0.749117 0.212014,-0.353355 0.29682,-0.508832 0.183745,0.07067 0.353357,0.169611 0.763251,0.381624 1.526502,0.593638 0.777385,0.19788 1.639575,0.19788 0.240283,0 0.508834,-0.01413 0.282686,-0.02827 0.508834,-0.113074 0.226149,-0.08481 0.367491,-0.254417 0.155477,-0.183746 0.155477,-0.508833 0,-0.155477 -0.08481,-0.268551 -0.0848,-0.127209 -0.212012,-0.212014 -0.127209,-0.09894 -0.268552,-0.169612 -0.141342,-0.07067 -0.268551,-0.113074 -0.29682,-0.113074 -0.607774,-0.169611 -0.310954,-0.05654 -0.621908,-0.127209 -0.409894,-0.09894 -0.805653,-0.183745 -0.39576,-0.08481 -0.763251,-0.19788 -0.381626,-0.113074 -0.734983,-0.240283 -0.339222,-0.141343 -0.636042,-0.325088 -0.607774,-0.367491 -0.975265,-0.975265 -0.353357,-0.621908 -0.353357,-1.639576 0,-0.353357 0.07067,-0.706714 0.08481,-0.367491 0.240283,-0.69258 0.310954,-0.650176 0.805654,-1.0742047 0.494699,-0.4240283 1.088339,-0.664311 0.607774,-0.2402827 1.272085,-0.3392226 0.664311,-0.09894 1.328622,-0.09894 1.088339,0 2.14841,0.2685513 1.06007,0.2544169 2.021201,0.8480565 -0.353357,0.5936395 -0.69258,1.1731445 -0.325088,0.565372 -0.664311,1.159011 -0.819787,-0.39576 -1.597173,-0.650177 -0.76325,-0.254417 -1.65371,-0.254417 -0.212014,0 -0.452297,0.02827 -0.226148,0.01413 -0.424028,0.09894 -0.19788,0.08481 -0.325088,0.254417 -0.127209,0.155477 -0.127209,0.424028 0,0.19788 0.08481,0.339223 0.09894,0.155477 0.353357,0.282685 0.268551,0.113075 0.650176,0.212014 0.381626,0.09894 0.833923,0.19788 0.452297,0.08481 0.946996,0.212015 0.480566,0.127208 0.961131,0.296819 0.4947,0.155477 0.918728,0.39576 0.438162,0.226148 0.777385,0.551237 0.339223,0.310954 0.537102,0.749116 0.155477,0.325089 0.212015,0.706714 0.05654,0.367491 0.05654,0.734983 0,1.074203 -0.438163,1.766783 -0.438162,0.692579 -1.144876,1.102473 -0.706714,0.39576 -1.597173,0.551237 -0.89046,0.169611 -1.780919,0.169611 z"
     id="path4" /><path
     id="path2"
     style="font-size:40px;line-height:1.25;font-family:PRIMETIME;-inkscape-font-specification:'PRIMETIME, Normal';letter-spacing:0px;word-spacing:0px;white-space:pre;fill:#ffd500;stroke-width:0.353357"
     d="m 33.223438,8.7490139 c -0.810364,0 -1.568891,0.1555734 -2.275605,0.466527 -0.70671,0.3015304 -1.323936,0.7162364 -1.851614,1.2439151 -0.527679,0.518256 -0.946986,1.130646 -1.25794,1.837359 -0.30153,0.706713 -0.452269,1.460638 -0.452269,2.26158 0,0.800941 0.150739,1.554632 0.452269,2.261346 0.310954,0.706711 0.730261,1.323937 1.25794,1.851615 0.527678,0.518258 1.144904,0.928127 1.851614,1.229657 0.706714,0.301534 1.465241,0.452273 2.275605,0.452273 0.800943,0 1.554869,-0.150739 2.261579,-0.452273 0.716138,-0.30153 1.337961,-0.711399 1.86564,-1.229657 0.527681,-0.527678 0.942385,-1.144904 1.243918,-1.851615 0.310951,-0.706714 0.466527,-1.460405 0.466527,-2.261346 0,-0.800942 -0.155576,-1.554867 -0.466527,-2.26158 -0.301533,-0.706713 -0.716237,-1.319103 -1.243918,-1.837359 -0.527679,-0.5276787 -1.149502,-0.9423847 -1.86564,-1.2439151 -0.70671,-0.3109536 -1.460636,-0.466527 -2.261579,-0.466527 z m 0,2.7986931 c 0.414607,0 0.796402,0.08469 1.145049,0.2543 0.358067,0.160188 0.664145,0.376976 0.918562,0.650239 0.254417,0.273262 0.452332,0.59361 0.593675,0.961101 0.150766,0.358068 0.226251,0.739866 0.226251,1.145048 0,0.395759 -0.07549,0.777323 -0.226251,1.144814 -0.141343,0.36749 -0.339258,0.687839 -0.593675,0.961101 -0.254417,0.273262 -0.560495,0.494653 -0.918562,0.664262 -0.348647,0.160191 -0.730442,0.240275 -1.145049,0.240275 -0.414605,0 -0.800771,-0.08008 -1.158838,-0.240275 -0.348643,-0.169609 -0.650353,-0.391 -0.90477,-0.664262 -0.254417,-0.273262 -0.456937,-0.593611 -0.6077,-0.961101 -0.141343,-0.367491 -0.211996,-0.749055 -0.211996,-1.144814 0,-0.405182 0.07065,-0.78698 0.211996,-1.145048 0.150763,-0.367491 0.353283,-0.687839 0.6077,-0.961101 0.254417,-0.273263 0.556127,-0.490051 0.90477,-0.650239 0.358067,-0.169612 0.744233,-0.2543 1.158838,-0.2543 z" /><path
     style="font-size:40px;line-height:1.25;font-family:PRIMETIME;-inkscape-font-specification:'PRIMETIME, Normal';letter-spacing:0px;word-spacing:0px;white-space:pre;fill:#ffd500;stroke-width:0.353357"
     d="m 23.781862,14.233216 4.339222,5.780918 h -3.561837 l -3.010601,-3.689045 v 3.689045 h -3.0106 V 9.0459368 h 3.0106 v 3.6890462 l 3.010601,-3.6890462 h 3.70318 z"
     id="text1039" /><path
     id="path9"
     style="font-size:40px;line-height:1.25;font-family:PRIMETIME;-inkscape-font-specification:'PRIMETIME, Normal';letter-spacing:0px;word-spacing:0px;white-space:pre;fill:#ffd500;stroke-width:0.344319"
     d="M 43.948412,47.780435 39.995556,58.46801 h 3.016296 l 0.550906,-1.473674 h 3.29163 l 0.550903,1.473674 H 50.42159 L 46.468731,47.780435 Z m 1.267055,3.911485 0.84003,2.823233 h -1.694082 z" /><path
     id="path7"
     style="font-size:40px;line-height:1.25;font-family:PRIMETIME;-inkscape-font-specification:'PRIMETIME, Normal';letter-spacing:0px;word-spacing:0px;white-space:pre;fill:#ffd500;stroke-width:0.344319"
     d="M 30.0655,47.780435 V 58.46801 h 4.779096 c 0.743728,0 1.441383,-0.137779 2.093295,-0.413232 0.651909,-0.284639 1.221232,-0.665496 1.707868,-1.142945 0.486639,-0.486635 0.867724,-1.055964 1.143179,-1.707873 0.284638,-0.651909 0.427027,-1.34519 0.427027,-2.079738 0,-0.734548 -0.142389,-1.427828 -0.427027,-2.079737 -0.275455,-0.651909 -0.65654,-1.216625 -1.143179,-1.694083 -0.486636,-0.486635 -1.055959,-0.867487 -1.707868,-1.142945 -0.651912,-0.284635 -1.349567,-0.427022 -2.093295,-0.427022 z m 2.809446,2.603058 h 1.638922 c 0.385637,0 0.743914,0.0735 1.07446,0.220409 0.339728,0.137729 0.633491,0.330344 0.8814,0.578253 0.247906,0.247904 0.440755,0.541901 0.578483,0.88163 0.14691,0.330548 0.220408,0.683982 0.220408,1.060437 0,0.376456 -0.0735,0.734499 -0.220408,1.074228 -0.137728,0.330547 -0.330577,0.619932 -0.578483,0.86784 -0.247909,0.247908 -0.541672,0.445132 -0.8814,0.592043 -0.330546,0.137729 -0.688823,0.206618 -1.07446,0.206618 h -1.638922 z" /><path
     id="text1040"
     style="font-size:40px;line-height:1.25;font-family:PRIMETIME;-inkscape-font-specification:'PRIMETIME, Normal';letter-spacing:0px;word-spacing:0px;white-space:pre;fill:#ffd500;stroke-width:0.344319"
     d="m 23.000049,47.491073 c -0.789636,0 -1.528767,0.151606 -2.217404,0.454608 -0.688634,0.293817 -1.29022,0.697713 -1.804401,1.211893 -0.514181,0.505003 -0.922684,1.101977 -1.225685,1.790612 -0.293817,0.688636 -0.440817,1.423161 -0.440817,2.203613 0,0.780456 0.147,1.514982 0.440817,2.203622 0.303001,0.688631 0.711504,1.289982 1.225685,1.804167 0.514181,0.504998 1.115767,0.904516 1.804401,1.198337 0.688637,0.293817 1.427768,0.440583 2.217404,0.440583 0.780457,0 1.514981,-0.146766 2.203618,-0.440583 0.697817,-0.293821 1.303776,-0.693339 1.817957,-1.198337 0.514181,-0.514185 0.918077,-1.115536 1.211895,-1.804167 0.303,-0.68864 0.454607,-1.423166 0.454607,-2.203622 0,-0.780452 -0.151607,-1.514977 -0.454607,-2.203613 -0.293818,-0.688635 -0.697714,-1.285609 -1.211895,-1.790612 -0.514181,-0.51418 -1.12014,-0.918076 -1.817957,-1.211893 -0.688637,-0.303002 -1.423161,-0.454608 -2.203618,-0.454608 z m 0,2.727169 c 0.404003,0 0.77587,0.08249 1.115599,0.247759 0.348908,0.156093 0.647281,0.367374 0.89519,0.633646 0.24791,0.266271 0.440756,0.578465 0.578483,0.936557 0.146911,0.348911 0.220175,0.72078 0.220175,1.115595 0,0.385637 -0.07326,0.757511 -0.220175,1.115599 -0.137727,0.358092 -0.330573,0.67029 -0.578483,0.936562 -0.247909,0.266272 -0.546282,0.481927 -0.89519,0.647201 -0.339729,0.156092 -0.711596,0.234194 -1.115599,0.234194 -0.403999,0 -0.780477,-0.0781 -1.129385,-0.234194 -0.339729,-0.165274 -0.633725,-0.380929 -0.881635,-0.647201 -0.247909,-0.266272 -0.445131,-0.57847 -0.592038,-0.936562 -0.137727,-0.358088 -0.206619,-0.729962 -0.206619,-1.115599 0,-0.394815 0.06889,-0.766684 0.206619,-1.115595 0.146907,-0.358092 0.344129,-0.670286 0.592038,-0.936557 0.24791,-0.266272 0.541906,-0.477553 0.881635,-0.633646 0.348908,-0.165273 0.725386,-0.247759 1.129385,-0.247759 z" /></svg>
