<?xml version="1.0" encoding="UTF-8" standalone="no"?>
<!-- Created with Inkscape (http://www.inkscape.org/) -->

<svg
   width="67.73333mm"
   height="67.73333mm"
   viewBox="0 0 67.733327 67.733327"
   version="1.1"
   id="svg1"
   xml:space="preserve"
   sodipodi:docname="A5.svg"
   inkscape:version="1.3 (0e150ed6c4, 2023-07-21)"
   xmlns:inkscape="http://www.inkscape.org/namespaces/inkscape"
   xmlns:sodipodi="http://sodipodi.sourceforge.net/DTD/sodipodi-0.dtd"
   xmlns="http://www.w3.org/2000/svg"
   xmlns:svg="http://www.w3.org/2000/svg"><sodipodi:namedview
     id="namedview1"
     pagecolor="#ffffff"
     bordercolor="#999999"
     borderopacity="1"
     inkscape:showpageshadow="2"
     inkscape:pageopacity="0"
     inkscape:pagecheckerboard="0"
     inkscape:deskcolor="#d1d1d1"
     inkscape:document-units="mm"
     inkscape:zoom="2.2400065"
     inkscape:cx="114.95502"
     inkscape:cy="134.59782"
     inkscape:window-width="1920"
     inkscape:window-height="1001"
     inkscape:window-x="-9"
     inkscape:window-y="-9"
     inkscape:window-maximized="1"
     inkscape:current-layer="svg1" /><defs
     id="defs1"><rect
       x="128.7717"
       y="414.12979"
       width="302.87103"
       height="109.1984"
       id="rect1040" /><rect
       x="124.651"
       y="63.870762"
       width="290.50894"
       height="105.07771"
       id="rect1039" /></defs><path
     id="rect1-3"
     style="fill:#90caf9;fill-opacity:1;stroke-width:0.133494"
     d="M 0,0 H 67.73332 V 67.733329 H 0 Z"
     inkscape:export-filename="..\a\A5.png"
     inkscape:export-xdpi="347.36404"
     inkscape:export-ydpi="347.36404" /><path
     id="path36"
     style="fill:#000001;fill-opacity:0.247059;stroke-width:0.0727587"
     d="m 23.068768,9.0458516 c -0.789634,0 -1.52877,0.1516076 -2.217405,0.4546063 -0.344317,0.1469091 -0.666722,0.3213501 -0.967412,0.5233241 -0.300686,0.201972 -0.579671,0.431486 -0.836756,0.68857 -0.51418,0.504999 -0.922686,1.101978 -1.225685,1.790613 -0.14691,0.344316 -0.257019,0.700181 -0.330495,1.067449 -0.03674,0.183631 -0.06437,0.369947 -0.08274,0.559318 v 2.33e-4 c -0.01837,0.189373 -0.02758,0.381501 -0.02758,0.576614 0,0.195113 0.0092,0.387241 0.02758,0.576614 v 2.34e-4 c 0.03675,0.378663 0.110232,0.745855 0.220408,1.101574 v 2.33e-4 c 0.05508,0.177824 0.119402,0.352868 0.192828,0.52496 0.302999,0.688631 0.711505,1.289988 1.225685,1.804168 l 5.930686,5.930687 H 22.87407 c -1.345451,0 -2.457352,1.008266 -2.625966,2.308559 -0.01455,0.112221 -0.02478,0.225826 -0.02478,0.341949 v 13.253241 c 0,0.36541 0.0744,0.713732 0.208722,1.030752 0.06716,0.15851 0.149348,0.309123 0.244716,0.450166 0.04313,0.0638 0.09795,0.117944 0.146316,0.177635 0.05858,0.07229 0.111671,0.149303 0.177402,0.215033 l 6.957232,6.956998 0.848911,0.849147 v 1.204412 l -2.76176,-2.761761 c -0.02587,-0.02623 -0.05232,-0.05206 -0.07924,-0.07784 -8.48e-4,-8.1e-4 -0.002,-0.0013 -0.0028,-0.0021 -0.215995,-0.20627 -0.450616,-0.389264 -0.703997,-0.548799 -0.254417,-0.169611 -0.518153,-0.301478 -0.791413,-0.395705 -0.273261,-0.103653 -0.541829,-0.155667 -0.80567,-0.155667 h -5.498285 v 10.968288 l 9.273973,9.273975 H 67.733333 V 28.892172 L 49.085118,10.243722 c -0.0095,-0.0096 -0.02248,-0.01744 -0.03226,-0.02688 -0.09041,-0.08719 -0.187454,-0.170999 -0.297774,-0.2482222 h -2.31e-4 C 48.58044,9.840126 48.387721,9.7299153 48.176603,9.6381257 h -2.31e-4 C 47.974498,9.5372092 47.763407,9.4636147 47.543193,9.4177174 h -2.35e-4 c -1.54e-4,-4.07e-5 -3.08e-4,4.07e-5 -4.66e-4,0 -0.211019,-0.055012 -0.417543,-0.082507 -0.619385,-0.082507 h -5.591545 v 4.1865876 l -2.582259,-2.582259 -0.03459,-0.03436 C 38.228077,10.418545 37.658747,10.037457 37.00684,9.762003 36.354933,9.4773672 35.657035,9.3352103 34.913313,9.3352103 h -4.779095 v 4.4205517 l -3.008817,-3.008817 -0.03483,-0.03459 C 26.833467,10.455268 26.553356,10.225754 26.250312,10.023782 25.947265,9.821808 25.621291,9.647367 25.272382,9.5004579 24.583748,9.1974592 23.849222,9.0458516 23.068768,9.0458516 Z" /><path
     style="fill:#f9f9f9;stroke-width:0.0727587"
     d="m 20.248104,26.953581 c -0.01455,0.112221 -0.02478,0.225825 -0.02478,0.341948 v 13.253239 c 0,1.461647 1.189178,2.650744 2.650742,2.650744 h 21.984957 c 1.461581,0 2.650747,-1.189097 2.650747,-2.650744 V 27.295529 c 0,-0.116123 -0.01022,-0.229727 -0.02479,-0.341948 z"
     id="path16" /><path
     id="path5"
     style="fill:#f44336;fill-opacity:1;stroke-width:0.0727587"
     d="m 22.874071,24.64502 c -1.345455,0 -2.457352,1.008262 -2.625966,2.308559 H 47.484996 C 47.316384,25.653282 46.204489,24.64502 44.859026,24.64502 Z" /><path
     style="fill:#798388;fill-opacity:1;stroke-width:0.0727587"
     d="m 22.518604,37.614595 h 6.608974 c 0.369208,0 0.66847,0.299269 0.66847,0.66847 0,0.369112 -0.29936,0.668236 -0.66847,0.668236 h -6.608974 c -0.369027,0 -0.668236,-0.299035 -0.668236,-0.668236 0,-0.369201 0.299209,-0.66847 0.668236,-0.66847 z"
     id="path29" /><path
     style="fill:#798388;fill-opacity:1;stroke-width:0.0727587"
     d="m 22.518604,35.236851 h 11.415648 c 0.369113,0 0.668237,0.299034 0.668237,0.668236 0,0.369201 -0.29903,0.668471 -0.668237,0.668471 H 22.518604 c -0.369026,0 -0.668236,-0.29927 -0.668236,-0.668471 0,-0.369202 0.29921,-0.668236 0.668236,-0.668236 z"
     id="path28" /><path
     style="fill:#798388;fill-opacity:1;stroke-width:0.0727587"
     d="m 28.799653,30.507307 h 0.66029 v 2.254802 h -0.66029 z"
     id="path24" /><path
     style="fill:#798388;fill-opacity:1;stroke-width:0.0727587"
     d="m 26.708931,30.507307 h 0.633176 v 1.68333 h 1.170057 v 0.571472 h -1.803233 z"
     id="path23" /><path
     id="path22"
     style="fill:#798388;fill-opacity:1;stroke-width:0.0727587"
     d="m 33.405086,30.44233 c -0.164238,0 -0.319368,0.03173 -0.465358,0.0956 -0.145991,0.06159 -0.273594,0.147144 -0.383085,0.256637 -0.10721,0.107209 -0.192764,0.233823 -0.256637,0.379813 -0.06159,0.143706 -0.09232,0.297847 -0.09232,0.462086 0,0.164236 0.03074,0.319367 0.09232,0.465358 0.06387,0.145987 0.149427,0.272601 0.256637,0.379813 0.109491,0.107208 0.237094,0.192532 0.383085,0.256402 0.14599,0.06159 0.30112,0.09256 0.465358,0.09256 0.164238,0 0.319368,-0.03097 0.465358,-0.09256 0.145988,-0.06387 0.2726,-0.149194 0.379813,-0.256402 0.109488,-0.107212 0.195046,-0.233826 0.256636,-0.379813 0.06387,-0.145991 0.09583,-0.301122 0.09583,-0.465358 0,-0.164239 -0.03196,-0.319369 -0.09583,-0.465358 -0.06159,-0.145991 -0.147148,-0.272602 -0.256636,-0.379813 -0.107213,-0.107212 -0.233825,-0.191775 -0.379813,-0.253365 -0.14599,-0.06387 -0.30112,-0.0956 -0.465358,-0.0956 z m 0,0.619153 c 0.07756,0 0.149584,0.01598 0.215733,0.04791 0.06844,0.02965 0.12646,0.07071 0.174364,0.123177 0.05019,0.05247 0.08903,0.114167 0.116398,0.184881 0.02737,0.06843 0.04114,0.141448 0.04114,0.219006 0,0.07756 -0.01377,0.151564 -0.04114,0.222278 -0.02737,0.06843 -0.06622,0.130135 -0.116398,0.184881 -0.0479,0.05247 -0.105929,0.09451 -0.174364,0.126448 -0.06615,0.02965 -0.138177,0.04464 -0.215733,0.04464 -0.07756,0 -0.150572,-0.01498 -0.219006,-0.04464 -0.06615,-0.03194 -0.124183,-0.07398 -0.174363,-0.126448 -0.0479,-0.05475 -0.08674,-0.116451 -0.116398,-0.184881 -0.02737,-0.07071 -0.04114,-0.144722 -0.04114,-0.222278 0,-0.07756 0.01377,-0.150575 0.04114,-0.219006 0.02966,-0.07071 0.06849,-0.132416 0.116398,-0.184881 0.05018,-0.05246 0.108211,-0.09352 0.174363,-0.123177 0.06843,-0.03194 0.14145,-0.04791 0.219006,-0.04791 z" /><path
     id="path21"
     style="fill:#798388;fill-opacity:1;stroke-width:0.0727587"
     d="m 25.302806,30.44233 c -0.164238,0 -0.319368,0.03173 -0.465358,0.0956 -0.14599,0.06159 -0.273827,0.147144 -0.383319,0.256637 -0.107209,0.107209 -0.192765,0.233823 -0.256636,0.379813 -0.06159,0.143706 -0.09232,0.297847 -0.09232,0.462086 0,0.164236 0.03073,0.319367 0.09232,0.465358 0.06387,0.145987 0.149427,0.272601 0.256636,0.379813 0.109492,0.107208 0.237329,0.192532 0.383319,0.256402 0.14599,0.06159 0.30112,0.09256 0.465358,0.09256 0.164237,0 0.31937,-0.03097 0.465358,-0.09256 0.14599,-0.06387 0.272368,-0.149194 0.379579,-0.256402 0.10949,-0.107212 0.195047,-0.233826 0.256636,-0.379813 0.06387,-0.145991 0.09583,-0.301122 0.09583,-0.465358 0,-0.164239 -0.03196,-0.319369 -0.09583,-0.465358 -0.06159,-0.145991 -0.147146,-0.272602 -0.256636,-0.379813 -0.107211,-0.107212 -0.233589,-0.191775 -0.379579,-0.253365 -0.145988,-0.06387 -0.301121,-0.0956 -0.465358,-0.0956 z m 0,0.619153 c 0.07756,0 0.149348,0.01598 0.2155,0.04791 0.06843,0.02965 0.12646,0.07071 0.174363,0.123177 0.05018,0.05247 0.08903,0.114167 0.116398,0.184881 0.02737,0.06843 0.04114,0.141448 0.04114,0.219006 0,0.07756 -0.01376,0.151564 -0.04114,0.222278 -0.02737,0.06843 -0.06622,0.130135 -0.116398,0.184881 -0.0479,0.05247 -0.10593,0.09451 -0.174363,0.126448 -0.06615,0.02965 -0.137945,0.04464 -0.2155,0.04464 -0.07756,0 -0.150573,-0.01498 -0.219006,-0.04464 -0.06615,-0.03194 -0.124415,-0.07398 -0.174597,-0.126448 -0.0479,-0.05475 -0.08675,-0.116451 -0.116398,-0.184881 -0.02737,-0.07071 -0.0409,-0.144722 -0.0409,-0.222278 0,-0.07756 0.01353,-0.150575 0.0409,-0.219006 0.02965,-0.07071 0.06849,-0.132416 0.116398,-0.184881 0.05018,-0.05246 0.108448,-0.09352 0.174597,-0.123177 0.06843,-0.03194 0.141449,-0.04791 0.219006,-0.04791 z" /><path
     style="fill:#798388;fill-opacity:1;stroke-width:0.0727587"
     d="m 29.771272,30.106926 h 2.275604 v 0.609103 l -0.04791,0.04791 H 31.26996 v 1.998165 h -0.721761 v -1.998165 h -0.729007 l -0.04791,-0.04791 z"
     id="path20" /><path
     id="path19"
     style="fill:#798388;fill-opacity:1;stroke-width:0.0727587"
     d="m 21.850368,30.106926 v 2.655183 h 0.71171 v -0.824603 h 0.48242 c 0.12774,0 0.249687,-0.02408 0.366023,-0.07199 0.118614,-0.05018 0.222367,-0.117309 0.311329,-0.20171 0.09124,-0.08668 0.163268,-0.187225 0.215734,-0.301279 0.05475,-0.114055 0.08204,-0.237227 0.08204,-0.369528 0,-0.130023 -0.02729,-0.249753 -0.08204,-0.359245 -0.05247,-0.109492 -0.12449,-0.202922 -0.215734,-0.280477 -0.08896,-0.07756 -0.192715,-0.138036 -0.311329,-0.181375 -0.116336,-0.04334 -0.238283,-0.06498 -0.366023,-0.06498 z m 0.728772,0.588534 h 0.413938 c 0.04106,0 0.0799,0.0079 0.116397,0.02384 0.0365,0.01369 0.06846,0.03433 0.09583,0.0617 0.02737,0.02509 0.04901,0.0546 0.06498,0.08882 0.01597,0.03422 0.02384,0.07207 0.02384,0.113125 0,0.04106 -0.0079,0.07868 -0.02384,0.112892 -0.01597,0.03422 -0.0376,0.06495 -0.06498,0.09232 -0.02737,0.02509 -0.05933,0.0455 -0.09583,0.06147 -0.03649,0.01369 -0.07534,0.02057 -0.116397,0.02057 H 22.57914 Z" /><path
     id="path1"
     style="fill:#5c6bc0;stroke-width:0.496961"
     d="m 40.918092,30.051244 c -1.646786,0 -2.981704,1.335151 -2.981704,2.981938 0,1.646781 1.334918,2.981704 2.981704,2.981704 1.646786,0 2.981703,-1.334923 2.981703,-2.981704 0,-1.646787 -1.334917,-2.981938 -2.981703,-2.981938 z m 0,6.957466 c -1.379913,0 -2.456991,0.109999 -3.264519,0.448529 -0.864588,0.362435 -1.394277,0.976891 -1.676785,1.870081 -0.104417,0.330131 0.142903,0.663328 0.485693,0.663328 h 8.90795 c 0.344194,0 0.593287,-0.33463 0.488033,-0.6666 -0.283368,-0.89324 -0.814986,-1.507422 -1.680995,-1.868912 -0.806816,-0.336791 -1.882292,-0.446426 -3.259377,-0.446426 z" /><path
     id="path6"
     style="font-size:40px;line-height:1.25;font-family:PRIMETIME;-inkscape-font-specification:'PRIMETIME, Normal';letter-spacing:0px;word-spacing:0px;white-space:pre;fill:#ffd500;stroke-width:0.344319"
     d="M 41.331563,9.3352103 V 20.022789 h 6.05994 c 0.413176,0 0.798874,-0.07811 1.156966,-0.234199 0.358091,-0.165273 0.670288,-0.38093 0.93656,-0.647202 0.275455,-0.275454 0.486501,-0.592258 0.633412,-0.95035 0.15609,-0.367271 0.234198,-0.752969 0.234198,-1.156967 0,-0.229545 -0.03664,-0.463634 -0.110089,-0.702361 -0.06427,-0.247909 -0.156203,-0.481998 -0.275568,-0.702362 -0.119365,-0.220363 -0.266362,-0.422427 -0.440817,-0.606064 -0.165273,-0.183636 -0.348902,-0.339617 -0.550903,-0.468163 0.312183,-0.284636 0.551113,-0.615265 0.716385,-0.99172 0.165273,-0.385636 0.247755,-0.785157 0.247755,-1.198337 0,-0.358091 -0.06428,-0.70692 -0.192829,-1.046648 C 49.627212,10.97869 49.452797,10.671101 49.22325,10.395647 49.094706,10.239556 48.938723,10.097166 48.755087,9.9686211 48.580631,9.8400756 48.387786,9.7299436 48.176605,9.6381256 47.974603,9.5371256 47.763323,9.4636263 47.542959,9.4177173 47.331778,9.3626263 47.125104,9.3352103 46.923106,9.3352103 Z m 2.809443,2.1484537 h 1.91449 c 0.293817,0 0.54634,0.110133 0.757521,0.330496 0.220364,0.211181 0.330498,0.463703 0.330498,0.757521 0,0.293818 -0.110134,0.550949 -0.330498,0.771312 -0.211181,0.211182 -0.463704,0.316706 -0.757521,0.316706 h -1.91449 z m 0,4.118104 h 2.01102 c 0.303,0 0.559899,0.105524 0.77108,0.316706 0.211181,0.211181 0.316938,0.463703 0.316938,0.757521 0,0.303 -0.105757,0.560131 -0.316938,0.771312 -0.211181,0.211181 -0.46808,0.316704 -0.77108,0.316704 h -1.031221 -0.979799 z" /><path
     id="path3"
     style="font-size:40px;line-height:1.25;font-family:PRIMETIME;-inkscape-font-specification:'PRIMETIME, Normal';letter-spacing:0px;word-spacing:0px;white-space:pre;fill:#ffd500;stroke-width:0.344319"
     d="M 30.134218,9.3352103 V 20.022789 h 4.779096 c 0.743725,0 1.441617,-0.137783 2.093525,-0.413238 0.651909,-0.284637 1.221236,-0.665722 1.707872,-1.143178 0.486636,-0.486636 0.867724,-1.055729 1.143179,-1.707637 0.284634,-0.651909 0.426793,-1.345192 0.426793,-2.079737 0,-0.734546 -0.142159,-1.427828 -0.426793,-2.079737 -0.275455,-0.65191 -0.656543,-1.216627 -1.143179,-1.694081 -0.486636,-0.486637 -1.055963,-0.867723 -1.707872,-1.1431782 -0.651908,-0.2846361 -1.3498,-0.4267925 -2.093525,-0.4267925 z m 2.80968,2.6030607 h 1.638918 c 0.385637,0 0.743684,0.0735 1.074229,0.220408 0.339726,0.137727 0.633722,0.330341 0.881631,0.57825 0.24791,0.247909 0.440525,0.541906 0.578252,0.881633 0.146907,0.330545 0.220409,0.683982 0.220409,1.060437 0,0.376454 -0.0735,0.7345 -0.220409,1.074227 -0.137727,0.330545 -0.330342,0.6197 -0.578252,0.867609 -0.247909,0.247909 -0.541905,0.445365 -0.881631,0.592274 -0.330545,0.137727 -0.688592,0.206618 -1.074229,0.206618 h -1.638918 z" /><path
     id="text1039"
     style="font-size:40px;line-height:1.25;font-family:PRIMETIME;-inkscape-font-specification:'PRIMETIME, Normal';letter-spacing:0px;word-spacing:0px;white-space:pre;fill:#ffd500;stroke-width:0.344319"
     d="m 23.068767,9.0458516 c -0.789636,0 -1.528767,0.1516065 -2.217404,0.4546065 -0.688637,0.293818 -1.289986,0.6977129 -1.804167,1.2118949 -0.514181,0.504999 -0.922684,1.101975 -1.225685,1.790611 -0.293821,0.688637 -0.440817,1.423161 -0.440817,2.203615 0,0.780455 0.146996,1.514978 0.440817,2.203615 0.303001,0.688634 0.711504,1.289986 1.225685,1.804167 0.514181,0.505002 1.11553,0.904521 1.804167,1.198339 0.688637,0.293817 1.427768,0.440583 2.217404,0.440583 0.780457,0 1.514978,-0.146766 2.203615,-0.440583 0.69782,-0.293818 1.30401,-0.693337 1.818194,-1.198339 0.514181,-0.514181 0.918074,-1.115533 1.211895,-1.804167 0.302997,-0.688637 0.454603,-1.42316 0.454603,-2.203615 0,-0.780454 -0.151606,-1.514978 -0.454603,-2.203615 -0.293821,-0.688636 -0.697714,-1.285612 -1.211895,-1.790611 -0.514184,-0.514182 -1.120374,-0.9180769 -1.818194,-1.2118949 -0.688637,-0.303 -1.423158,-0.4546065 -2.203615,-0.4546065 z m 0,2.7271714 c 0.403999,0 0.77587,0.08248 1.115599,0.247755 0.348908,0.156091 0.647281,0.367371 0.895187,0.633644 0.247909,0.266273 0.440759,0.578469 0.578486,0.93656 0.146907,0.348909 0.220409,0.720779 0.220409,1.115597 0,0.385636 -0.0735,0.757507 -0.220409,1.115597 -0.137727,0.358091 -0.330577,0.670287 -0.578486,0.93656 -0.247906,0.266273 -0.546279,0.481929 -0.895187,0.647201 -0.339729,0.15609 -0.7116,0.234199 -1.115599,0.234199 -0.403999,0 -0.780477,-0.07811 -1.129385,-0.234199 -0.339729,-0.165272 -0.633491,-0.380928 -0.881401,-0.647201 -0.247909,-0.266273 -0.445365,-0.578469 -0.592272,-0.93656 -0.137728,-0.35809 -0.206619,-0.729961 -0.206619,-1.115597 0,-0.394818 0.06889,-0.766688 0.206619,-1.115597 0.146907,-0.358091 0.344363,-0.670287 0.592272,-0.93656 0.24791,-0.266273 0.541672,-0.477553 0.881401,-0.633644 0.348908,-0.165273 0.725386,-0.247755 1.129385,-0.247755 z" /><path
     id="path10"
     style="font-size:40px;line-height:1.25;font-family:PRIMETIME;-inkscape-font-specification:'PRIMETIME, Normal';letter-spacing:0px;word-spacing:0px;white-space:pre;fill:#ffd500;stroke-width:0.353357"
     d="m 39.506123,47.491071 v 10.96829 h 3.024947 l -0.01426,-3.392138 h 1.851615 l 1.90818,3.392138 h 3.293265 l -2.57244,-4.522926 c 0.452297,-0.320378 0.805555,-0.716212 1.059972,-1.187353 0.254417,-0.471142 0.381682,-0.979972 0.381682,-1.526499 0,-0.329798 -0.05178,-0.673618 -0.155431,-1.031685 -0.09423,-0.367491 -0.23553,-0.687841 -0.42399,-0.961103 C 47.7089,49.013071 47.52502,48.800884 47.308292,48.59358 47.091568,48.386276 46.85614,48.202629 46.601727,48.042442 46.34731,47.872831 46.083342,47.740965 45.81008,47.646735 45.536815,47.543085 45.268246,47.491071 45.004409,47.491071 Z m 2.925844,2.431269 h 1.710209 c 0.169611,0 0.330017,0.03291 0.480784,0.09887 0.150767,0.05654 0.282633,0.141222 0.395707,0.254297 0.113074,0.103653 0.202597,0.226318 0.268555,0.36766 0.06596,0.141343 0.09887,0.296682 0.09887,0.466294 0,0.169611 -0.03291,0.325183 -0.09887,0.466526 -0.06596,0.141343 -0.155481,0.268608 -0.268555,0.381682 -0.113074,0.10365 -0.24494,0.188339 -0.395707,0.2543 -0.150767,0.05654 -0.311173,0.08485 -0.480784,0.08485 h -1.710209 z" /><path
     style="font-size:40px;line-height:1.25;font-family:PRIMETIME;-inkscape-font-specification:'PRIMETIME, Normal';letter-spacing:0px;word-spacing:0px;white-space:pre;fill:#ffd500;stroke-width:0.353357"
     d="m 37.979738,54.445233 q 0,0.749117 -0.254417,1.413428 -0.240283,0.664311 -0.69258,1.201413 -0.438162,0.537103 -1.045936,0.932863 -0.607774,0.381625 -1.314488,0.593639 -0.310954,0.09894 -0.636042,0.155477 -0.325088,0.05654 -0.650177,0.05654 -0.325088,0 -0.650176,-0.05654 -0.310954,-0.05654 -0.621908,-0.155477 Q 31.4073,58.374562 30.799526,57.992937 30.191752,57.597177 29.739455,57.060074 29.301293,56.522972 29.046876,55.858661 28.806593,55.19435 28.806593,54.445233 V 47.49117 h 3.053004 v 6.770318 q 0,0.310954 0.127208,0.579505 0.127209,0.254417 0.339223,0.452297 0.212014,0.183746 0.480565,0.29682 0.282686,0.09894 0.579505,0.09894 0.310954,0 0.579506,-0.09894 0.282685,-0.113074 0.494699,-0.29682 0.212014,-0.19788 0.339223,-0.452297 0.127208,-0.268551 0.127208,-0.579505 V 47.49117 h 3.053004 z"
     id="path9" /><path
     id="text1040"
     style="font-size:40px;line-height:1.25;font-family:PRIMETIME;-inkscape-font-specification:'PRIMETIME, Normal';letter-spacing:0px;word-spacing:0px;white-space:pre;fill:#ffd500;stroke-width:0.353357"
     d="m 18.163459,47.491071 v 10.96829 h 3.02471 l -0.01402,-3.392138 h 1.851618 l 1.907943,3.392138 h 3.293269 l -2.572442,-4.522926 c 0.452297,-0.320378 0.805785,-0.716212 1.060202,-1.187353 0.254416,-0.471142 0.381681,-0.979972 0.381681,-1.526499 0,-0.329798 -0.05201,-0.673618 -0.155664,-1.031685 -0.09423,-0.367491 -0.23553,-0.687841 -0.423986,-0.961103 -0.15077,-0.216724 -0.334417,-0.428911 -0.551141,-0.636215 -0.216725,-0.207304 -0.452386,-0.390951 -0.706803,-0.551138 -0.254417,-0.169611 -0.518152,-0.301477 -0.791413,-0.395707 -0.273261,-0.10365 -0.54183,-0.155664 -0.805671,-0.155664 z M 21.0893,49.92234 h 1.710208 c 0.169612,0 0.329788,0.03291 0.480552,0.09887 0.150766,0.05654 0.282632,0.141222 0.395706,0.254297 0.113075,0.103653 0.202598,0.226318 0.268559,0.36766 0.06596,0.141343 0.0991,0.296682 0.0991,0.466294 0,0.169611 -0.03315,0.325183 -0.0991,0.466526 -0.06596,0.141343 -0.155484,0.268608 -0.268559,0.381682 -0.113074,0.10365 -0.24494,0.188339 -0.395706,0.2543 -0.150764,0.05654 -0.31094,0.08485 -0.480552,0.08485 H 21.0893 Z" /></svg>
