<?xml version="1.0" encoding="UTF-8" standalone="no"?>
<!-- Created with Inkscape (http://www.inkscape.org/) -->

<svg
   width="67.73333mm"
   height="67.73333mm"
   viewBox="0 0 67.733327 67.733327"
   version="1.1"
   id="svg1"
   xml:space="preserve"
   sodipodi:docname="A6.svg"
   inkscape:version="1.3 (0e150ed6c4, 2023-07-21)"
   xmlns:inkscape="http://www.inkscape.org/namespaces/inkscape"
   xmlns:sodipodi="http://sodipodi.sourceforge.net/DTD/sodipodi-0.dtd"
   xmlns="http://www.w3.org/2000/svg"
   xmlns:svg="http://www.w3.org/2000/svg"><sodipodi:namedview
     id="namedview1"
     pagecolor="#ffffff"
     bordercolor="#999999"
     borderopacity="1"
     inkscape:showpageshadow="2"
     inkscape:pageopacity="0"
     inkscape:pagecheckerboard="0"
     inkscape:deskcolor="#d1d1d1"
     inkscape:document-units="mm"
     inkscape:zoom="1.7041198"
     inkscape:cx="231.49781"
     inkscape:cy="171.64286"
     inkscape:window-width="1920"
     inkscape:window-height="1001"
     inkscape:window-x="-9"
     inkscape:window-y="-9"
     inkscape:window-maximized="1"
     inkscape:current-layer="svg1" /><defs
     id="defs1"><rect
       x="128.7717"
       y="414.12979"
       width="302.87103"
       height="109.1984"
       id="rect1040" /><rect
       x="124.651"
       y="63.870762"
       width="290.50894"
       height="105.07771"
       id="rect1039" /></defs><path
     id="rect1-3"
     style="fill:#90caf9;fill-opacity:1;stroke-width:0.133494"
     d="M 0,0 H 67.73332 V 67.733329 H 0 Z"
     inkscape:export-filename="..\a\A5.svg"
     inkscape:export-xdpi="347.36404"
     inkscape:export-ydpi="347.36404" /><path
     id="path27"
     style="fill:#000001;fill-opacity:0.247059;stroke-width:0.0727587"
     d="m 44.396007,9.0320615 c -0.431544,0 -0.86309,0.032259 -1.294635,0.096531 -0.431544,0.064273 -0.844891,0.1744047 -1.239708,0.3304955 -0.385636,0.1560908 -0.739075,0.3719811 -1.060437,0.647434 -0.321363,0.275455 -0.583103,0.624284 -0.785102,1.046647 L 38.198166,9.3352103 H 35.22324 V 12.323927 L 32.234523,9.3352103 h -2.974926 v 3.8406657 l -2.69071,-2.69071 c -0.02533,-0.02533 -0.05128,-0.05054 -0.0776,-0.07573 C 26.280109,10.207438 26.050627,10.028414 25.802718,9.8723236 25.55481,9.7070526 25.297677,9.5784863 25.031406,9.4866678 24.765135,9.385669 24.503395,9.3352103 24.246304,9.3352103 H 18.888725 V 20.022787 l 4.622262,4.622262 H 22.87407 c -1.345451,0 -2.457352,1.008266 -2.625966,2.308559 -0.01455,0.112221 -0.02478,0.225826 -0.02478,0.341949 v 13.253241 c 0,0.36541 0.0744,0.713732 0.208722,1.030752 0.06716,0.15851 0.149348,0.309123 0.244716,0.450166 0.04313,0.0638 0.09795,0.117944 0.146316,0.177635 0.05858,0.07229 0.111671,0.149303 0.177402,0.215033 l 4.696587,4.696586 0.3721,0.3721 h -6.690078 v 2.812716 2.35e-4 l 2.949917,2.949916 -2.624798,4.710848 v 2.35e-4 0.494338 l 9.273973,9.273975 H 67.733333 V 29.394694 L 48.459184,10.120312 h -2.35e-4 C 48.146769,9.9274948 47.826367,9.7620894 47.498085,9.6243356 47.169862,9.4866207 46.833548,9.3764589 46.4893,9.2938401 45.800665,9.1193856 45.103006,9.0320611 44.396007,9.0320615 Z" /><path
     style="fill:#f9f9f9;stroke-width:0.0727587"
     d="m 20.248104,26.953581 c -0.01455,0.112221 -0.02478,0.225825 -0.02478,0.341948 v 13.253239 c 0,1.461647 1.189178,2.650744 2.650742,2.650744 h 21.984957 c 1.461581,0 2.650747,-1.189097 2.650747,-2.650744 V 27.295529 c 0,-0.116123 -0.01022,-0.229727 -0.02479,-0.341948 z"
     id="path16" /><path
     id="path5"
     style="fill:#f44336;fill-opacity:1;stroke-width:0.0727587"
     d="m 22.874071,24.64502 c -1.345455,0 -2.457352,1.008262 -2.625966,2.308559 H 47.484996 C 47.316384,25.653282 46.204489,24.64502 44.859026,24.64502 Z" /><path
     style="fill:#798388;fill-opacity:1;stroke-width:0.0727587"
     d="m 22.518604,37.614595 h 6.608974 c 0.369208,0 0.66847,0.299269 0.66847,0.66847 0,0.369112 -0.29936,0.668236 -0.66847,0.668236 h -6.608974 c -0.369027,0 -0.668236,-0.299035 -0.668236,-0.668236 0,-0.369201 0.299209,-0.66847 0.668236,-0.66847 z"
     id="path29" /><path
     style="fill:#798388;fill-opacity:1;stroke-width:0.0727587"
     d="m 22.518604,35.236851 h 11.415648 c 0.369113,0 0.668237,0.299034 0.668237,0.668236 0,0.369201 -0.29903,0.668471 -0.668237,0.668471 H 22.518604 c -0.369026,0 -0.668236,-0.29927 -0.668236,-0.668471 0,-0.369202 0.29921,-0.668236 0.668236,-0.668236 z"
     id="path28" /><path
     style="fill:#798388;fill-opacity:1;stroke-width:0.0727587"
     d="m 28.799653,30.507307 h 0.66029 v 2.254802 h -0.66029 z"
     id="path24" /><path
     style="fill:#798388;fill-opacity:1;stroke-width:0.0727587"
     d="m 26.708931,30.507307 h 0.633176 v 1.68333 h 1.170057 v 0.571472 h -1.803233 z"
     id="path23" /><path
     id="path22"
     style="fill:#798388;fill-opacity:1;stroke-width:0.0727587"
     d="m 33.405086,30.44233 c -0.164238,0 -0.319368,0.03173 -0.465358,0.0956 -0.145991,0.06159 -0.273594,0.147144 -0.383085,0.256637 -0.10721,0.107209 -0.192764,0.233823 -0.256637,0.379813 -0.06159,0.143706 -0.09232,0.297847 -0.09232,0.462086 0,0.164236 0.03074,0.319367 0.09232,0.465358 0.06387,0.145987 0.149427,0.272601 0.256637,0.379813 0.109491,0.107208 0.237094,0.192532 0.383085,0.256402 0.14599,0.06159 0.30112,0.09256 0.465358,0.09256 0.164238,0 0.319368,-0.03097 0.465358,-0.09256 0.145988,-0.06387 0.2726,-0.149194 0.379813,-0.256402 0.109488,-0.107212 0.195046,-0.233826 0.256636,-0.379813 0.06387,-0.145991 0.09583,-0.301122 0.09583,-0.465358 0,-0.164239 -0.03196,-0.319369 -0.09583,-0.465358 -0.06159,-0.145991 -0.147148,-0.272602 -0.256636,-0.379813 -0.107213,-0.107212 -0.233825,-0.191775 -0.379813,-0.253365 -0.14599,-0.06387 -0.30112,-0.0956 -0.465358,-0.0956 z m 0,0.619153 c 0.07756,0 0.149584,0.01598 0.215733,0.04791 0.06844,0.02965 0.12646,0.07071 0.174364,0.123177 0.05019,0.05247 0.08903,0.114167 0.116398,0.184881 0.02737,0.06843 0.04114,0.141448 0.04114,0.219006 0,0.07756 -0.01377,0.151564 -0.04114,0.222278 -0.02737,0.06843 -0.06622,0.130135 -0.116398,0.184881 -0.0479,0.05247 -0.105929,0.09451 -0.174364,0.126448 -0.06615,0.02965 -0.138177,0.04464 -0.215733,0.04464 -0.07756,0 -0.150572,-0.01498 -0.219006,-0.04464 -0.06615,-0.03194 -0.124183,-0.07398 -0.174363,-0.126448 -0.0479,-0.05475 -0.08674,-0.116451 -0.116398,-0.184881 -0.02737,-0.07071 -0.04114,-0.144722 -0.04114,-0.222278 0,-0.07756 0.01377,-0.150575 0.04114,-0.219006 0.02966,-0.07071 0.06849,-0.132416 0.116398,-0.184881 0.05018,-0.05246 0.108211,-0.09352 0.174363,-0.123177 0.06843,-0.03194 0.14145,-0.04791 0.219006,-0.04791 z" /><path
     id="path21"
     style="fill:#798388;fill-opacity:1;stroke-width:0.0727587"
     d="m 25.302806,30.44233 c -0.164238,0 -0.319368,0.03173 -0.465358,0.0956 -0.14599,0.06159 -0.273827,0.147144 -0.383319,0.256637 -0.107209,0.107209 -0.192765,0.233823 -0.256636,0.379813 -0.06159,0.143706 -0.09232,0.297847 -0.09232,0.462086 0,0.164236 0.03073,0.319367 0.09232,0.465358 0.06387,0.145987 0.149427,0.272601 0.256636,0.379813 0.109492,0.107208 0.237329,0.192532 0.383319,0.256402 0.14599,0.06159 0.30112,0.09256 0.465358,0.09256 0.164237,0 0.31937,-0.03097 0.465358,-0.09256 0.14599,-0.06387 0.272368,-0.149194 0.379579,-0.256402 0.10949,-0.107212 0.195047,-0.233826 0.256636,-0.379813 0.06387,-0.145991 0.09583,-0.301122 0.09583,-0.465358 0,-0.164239 -0.03196,-0.319369 -0.09583,-0.465358 -0.06159,-0.145991 -0.147146,-0.272602 -0.256636,-0.379813 -0.107211,-0.107212 -0.233589,-0.191775 -0.379579,-0.253365 -0.145988,-0.06387 -0.301121,-0.0956 -0.465358,-0.0956 z m 0,0.619153 c 0.07756,0 0.149348,0.01598 0.2155,0.04791 0.06843,0.02965 0.12646,0.07071 0.174363,0.123177 0.05018,0.05247 0.08903,0.114167 0.116398,0.184881 0.02737,0.06843 0.04114,0.141448 0.04114,0.219006 0,0.07756 -0.01376,0.151564 -0.04114,0.222278 -0.02737,0.06843 -0.06622,0.130135 -0.116398,0.184881 -0.0479,0.05247 -0.10593,0.09451 -0.174363,0.126448 -0.06615,0.02965 -0.137945,0.04464 -0.2155,0.04464 -0.07756,0 -0.150573,-0.01498 -0.219006,-0.04464 -0.06615,-0.03194 -0.124415,-0.07398 -0.174597,-0.126448 -0.0479,-0.05475 -0.08675,-0.116451 -0.116398,-0.184881 -0.02737,-0.07071 -0.0409,-0.144722 -0.0409,-0.222278 0,-0.07756 0.01353,-0.150575 0.0409,-0.219006 0.02965,-0.07071 0.06849,-0.132416 0.116398,-0.184881 0.05018,-0.05246 0.108448,-0.09352 0.174597,-0.123177 0.06843,-0.03194 0.141449,-0.04791 0.219006,-0.04791 z" /><path
     style="fill:#798388;fill-opacity:1;stroke-width:0.0727587"
     d="m 29.771272,30.106926 h 2.275604 v 0.609103 l -0.04791,0.04791 H 31.26996 v 1.998165 h -0.721761 v -1.998165 h -0.729007 l -0.04791,-0.04791 z"
     id="path20" /><path
     id="path19"
     style="fill:#798388;fill-opacity:1;stroke-width:0.0727587"
     d="m 21.850368,30.106926 v 2.655183 h 0.71171 v -0.824603 h 0.48242 c 0.12774,0 0.249687,-0.02408 0.366023,-0.07199 0.118614,-0.05018 0.222367,-0.117309 0.311329,-0.20171 0.09124,-0.08668 0.163268,-0.187225 0.215734,-0.301279 0.05475,-0.114055 0.08204,-0.237227 0.08204,-0.369528 0,-0.130023 -0.02729,-0.249753 -0.08204,-0.359245 -0.05247,-0.109492 -0.12449,-0.202922 -0.215734,-0.280477 -0.08896,-0.07756 -0.192715,-0.138036 -0.311329,-0.181375 -0.116336,-0.04334 -0.238283,-0.06498 -0.366023,-0.06498 z m 0.728772,0.588534 h 0.413938 c 0.04106,0 0.0799,0.0079 0.116397,0.02384 0.0365,0.01369 0.06846,0.03433 0.09583,0.0617 0.02737,0.02509 0.04901,0.0546 0.06498,0.08882 0.01597,0.03422 0.02384,0.07207 0.02384,0.113125 0,0.04106 -0.0079,0.07868 -0.02384,0.112892 -0.01597,0.03422 -0.0376,0.06495 -0.06498,0.09232 -0.02737,0.02509 -0.05933,0.0455 -0.09583,0.06147 -0.03649,0.01369 -0.07534,0.02057 -0.116397,0.02057 H 22.57914 Z" /><path
     id="path1"
     style="fill:#5c6bc0;stroke-width:0.496961"
     d="m 40.918092,30.051244 c -1.646786,0 -2.981704,1.335151 -2.981704,2.981938 0,1.646781 1.334918,2.981704 2.981704,2.981704 1.646786,0 2.981703,-1.334923 2.981703,-2.981704 0,-1.646787 -1.334917,-2.981938 -2.981703,-2.981938 z m 0,6.957466 c -1.379913,0 -2.456991,0.109999 -3.264519,0.448529 -0.864588,0.362435 -1.394277,0.976891 -1.676785,1.870081 -0.104417,0.330131 0.142903,0.663328 0.485693,0.663328 h 8.90795 c 0.344194,0 0.593287,-0.33463 0.488033,-0.6666 -0.283368,-0.89324 -0.814986,-1.507422 -1.680995,-1.868912 -0.806816,-0.336791 -1.882292,-0.446426 -3.259377,-0.446426 z" /><path
     style="font-size:40px;line-height:1.25;font-family:PRIMETIME;-inkscape-font-specification:'PRIMETIME, Normal';letter-spacing:0px;word-spacing:0px;white-space:pre;fill:#ffd500;stroke-width:0.344319"
     d="m 44.010284,20.353355 q -1.074274,0 -2.134775,-0.261682 -1.046728,-0.247909 -2.01082,-0.70241 -0.02755,0 -0.137728,-0.05509 -0.110182,-0.06886 -0.110182,-0.09641 0,-0.01377 0.05509,-0.110182 0.05509,-0.09641 0.137728,-0.234136 0.08264,-0.151501 0.192818,-0.330546 0.110182,-0.192819 0.220364,-0.385637 0.234137,-0.385637 0.440728,-0.729955 0.206591,-0.344317 0.289227,-0.495817 0.179046,0.06886 0.344319,0.165272 0.743728,0.371863 1.487456,0.578454 0.757501,0.192819 1.597638,0.192819 0.234136,0 0.495818,-0.01377 0.275455,-0.02755 0.495819,-0.110182 0.220364,-0.08264 0.358091,-0.247909 0.1515,-0.179046 0.1515,-0.495818 0,-0.1515 -0.08264,-0.261682 -0.08264,-0.123955 -0.206591,-0.206591 -0.123955,-0.09641 -0.261682,-0.165273 -0.137728,-0.06886 -0.261682,-0.110182 -0.289228,-0.110182 -0.592228,-0.165273 -0.303,-0.05509 -0.606001,-0.123954 -0.399409,-0.09641 -0.785046,-0.179046 -0.385637,-0.08264 -0.743728,-0.192818 -0.371864,-0.110182 -0.716182,-0.234137 -0.330546,-0.137727 -0.619774,-0.316773 -0.592228,-0.358091 -0.950319,-0.950319 -0.344318,-0.606001 -0.344318,-1.597638 0,-0.344319 0.06886,-0.688637 0.08264,-0.358091 0.234137,-0.674864 0.303,-0.633546 0.785046,-1.046729 0.482046,-0.4131819 1.060501,-0.6473185 0.592228,-0.2341366 1.239547,-0.3305458 0.647319,-0.096409 1.294637,-0.096409 1.060502,0 2.093457,0.2616821 1.032956,0.2479093 1.969502,0.8263642 -0.344318,0.578455 -0.674864,1.143138 -0.316773,0.550909 -0.647319,1.129364 -0.798819,-0.385636 -1.55632,-0.633546 -0.743728,-0.247909 -1.61141,-0.247909 -0.206592,0 -0.440728,0.02754 -0.220364,0.01377 -0.413182,0.09641 -0.192819,0.08264 -0.316773,0.247909 -0.123955,0.1515 -0.123955,0.413182 0,0.192818 0.08264,0.330546 0.09641,0.1515 0.344319,0.275455 0.261682,0.110182 0.633546,0.206591 0.371864,0.09641 0.812592,0.192818 0.440727,0.08264 0.922773,0.206591 0.468273,0.123955 0.936547,0.289228 0.482046,0.1515 0.895228,0.385637 0.426955,0.220363 0.757501,0.537137 0.330545,0.303 0.523364,0.729955 0.1515,0.316773 0.206591,0.688637 0.05509,0.358091 0.05509,0.716182 0,1.046727 -0.426955,1.721592 -0.426955,0.674864 -1.115592,1.074273 -0.688637,0.385637 -1.55632,0.537137 -0.867683,0.165273 -1.735365,0.165273 z"
     id="path4" /><path
     style="font-size:40px;line-height:1.25;font-family:PRIMETIME;-inkscape-font-specification:'PRIMETIME, Normal';letter-spacing:0px;word-spacing:0px;white-space:pre;fill:#ffd500;stroke-width:0.344319"
     d="m 38.198191,16.111352 q 0,0.729956 -0.24791,1.377273 -0.234136,0.647319 -0.674864,1.170683 -0.426955,0.523364 -1.019183,0.909001 -0.592228,0.371864 -1.280865,0.578455 -0.303,0.09641 -0.619773,0.1515 -0.316773,0.05509 -0.633546,0.05509 -0.316773,0 -0.633546,-0.05509 -0.303001,-0.05509 -0.606001,-0.1515 -0.688637,-0.206591 -1.280865,-0.578455 -0.592228,-0.385637 -1.032955,-0.909001 -0.426955,-0.523364 -0.674865,-1.170683 -0.234136,-0.647317 -0.234136,-1.377273 V 9.3351638 h 2.974912 v 6.5971432 q 0,0.303 0.123954,0.564682 0.123955,0.247909 0.330546,0.440728 0.206591,0.179045 0.468273,0.289227 0.275455,0.09641 0.564683,0.09641 0.303,0 0.564682,-0.09641 0.275455,-0.110182 0.482046,-0.289227 0.206591,-0.192819 0.330546,-0.440728 0.123954,-0.261682 0.123954,-0.564682 V 9.3351638 h 2.974913 z"
     id="path3" /><path
     id="text1039"
     style="font-size:40px;line-height:1.25;font-family:PRIMETIME;-inkscape-font-specification:'PRIMETIME, Normal';letter-spacing:0px;word-spacing:0px;white-space:pre;fill:#ffd500;stroke-width:0.344319"
     d="M 18.888725,9.3352103 V 20.022789 h 2.947346 l -0.01356,-3.305423 h 1.804167 l 1.859331,3.305423 h 3.20889 L 26.18837,15.615558 c 0.440728,-0.312181 0.784947,-0.697876 1.032856,-1.156967 0.247909,-0.459091 0.371867,-0.954918 0.371867,-1.487464 0,-0.321363 -0.05046,-0.656367 -0.151458,-1.005276 -0.09182,-0.358091 -0.229599,-0.670287 -0.413238,-0.936559 -0.146907,-0.211182 -0.325932,-0.417855 -0.537113,-0.619855 -0.21118,-0.202 -0.440662,-0.381022 -0.688571,-0.5371132 -0.24791,-0.1652726 -0.50504,-0.2938377 -0.771312,-0.385656 -0.266271,-0.101 -0.528009,-0.1514575 -0.785101,-0.1514575 z m 2.85105,2.3688627 h 1.666499 c 0.165273,0 0.321256,0.03202 0.468163,0.0963 0.14691,0.05509 0.275475,0.137806 0.385657,0.247988 0.110182,0.101 0.197505,0.220348 0.261779,0.358076 0.06427,0.137727 0.0963,0.289334 0.0963,0.454606 0,0.165273 -0.03202,0.316646 -0.0963,0.454373 -0.06427,0.137727 -0.151597,0.261684 -0.261779,0.371866 -0.110182,0.101 -0.238747,0.183716 -0.385657,0.247988 -0.146907,0.05509 -0.30289,0.08274 -0.468163,0.08274 h -1.666499 z" /><path
     d="m 19.704123,58.459368 v -0.4947 l 4.268551,-7.660777 h -4.59364 V 47.49117 h 9.116608 v 0.4947 l -4.268551,7.660777 h 4.367491 v 2.812721 z m 9.879851,0 v -0.4947 l 4.268551,-7.660777 H 29.258886 V 47.49117 h 9.116607 v 0.4947 l -4.268551,7.660777 h 4.367491 v 2.812721 z m 9.879851,0 v -0.4947 l 4.268552,-7.660777 h -4.59364 V 47.49117 h 9.116608 v 0.4947 l -4.268551,7.660777 h 4.367491 v 2.812721 z"
     id="text1040"
     style="font-size:40px;line-height:1.25;font-family:PRIMETIME;-inkscape-font-specification:'PRIMETIME, Normal';letter-spacing:0px;word-spacing:0px;white-space:pre;fill:#ffd500;stroke-width:0.353357"
     aria-label="ZZZ" /></svg>
