<?xml version="1.0" encoding="UTF-8" standalone="no"?>
<svg
   xmlns:dc="http://purl.org/dc/elements/1.1/"
   xmlns:cc="http://creativecommons.org/ns#"
   xmlns:rdf="http://www.w3.org/1999/02/22-rdf-syntax-ns#"
   xmlns:svg="http://www.w3.org/2000/svg"
   xmlns="http://www.w3.org/2000/svg"
   xmlns:sodipodi="http://sodipodi.sourceforge.net/DTD/sodipodi-0.dtd"
   xmlns:inkscape="http://www.inkscape.org/namespaces/inkscape"
   id="svg8"
   version="1.1"
   viewBox="0 0 67.733338 67.733338"
   height="67.733337mm"
   width="67.733337mm"
   inkscape:export-filename="C:\Users\linos\Desktop\Icone gruppi telegram\uploaded\ENGsofteng.png"
   inkscape:export-xdpi="96"
   inkscape:export-ydpi="96"
   inkscape:version="1.0 (4035a4fb49, 2020-05-01)"
   sodipodi:docname="ENGsofteng_scalable.svg">
  <defs
     id="defs2" />
  <sodipodi:namedview
     id="base"
     pagecolor="#ffffff"
     bordercolor="#666666"
     borderopacity="1.0"
     inkscape:pageopacity="0.0"
     inkscape:pageshadow="2"
     inkscape:zoom="0.35"
     inkscape:cx="1860.9715"
     inkscape:cy="940.80885"
     inkscape:document-units="mm"
     inkscape:current-layer="layer1"
     inkscape:document-rotation="0"
     showgrid="false"
     inkscape:window-width="1920"
     inkscape:window-height="1013"
     inkscape:window-x="-9"
     inkscape:window-y="-9"
     inkscape:window-maximized="1"
     fit-margin-top="0"
     fit-margin-left="0"
     fit-margin-right="0"
     fit-margin-bottom="0" />
  <metadata
     id="metadata5">
    <rdf:RDF>
      <cc:Work
         rdf:about="">
        <dc:format>image/svg+xml</dc:format>
        <dc:type
           rdf:resource="http://purl.org/dc/dcmitype/StillImage" />
        <dc:title />
        <cc:license
           rdf:resource="http://creativecommons.org/licenses/by-sa/4.0/" />
      </cc:Work>
      <cc:License
         rdf:about="http://creativecommons.org/licenses/by-sa/4.0/">
        <cc:permits
           rdf:resource="http://creativecommons.org/ns#Reproduction" />
        <cc:permits
           rdf:resource="http://creativecommons.org/ns#Distribution" />
        <cc:requires
           rdf:resource="http://creativecommons.org/ns#Notice" />
        <cc:requires
           rdf:resource="http://creativecommons.org/ns#Attribution" />
        <cc:permits
           rdf:resource="http://creativecommons.org/ns#DerivativeWorks" />
        <cc:requires
           rdf:resource="http://creativecommons.org/ns#ShareAlike" />
      </cc:License>
    </rdf:RDF>
  </metadata>
  <g
     inkscape:label="Livello 1"
     inkscape:groupmode="layer"
     id="layer1"
     transform="translate(176.13692,58.964287)">
    <g
       id="g2375" />
    <g
       id="g2385" />
    <g
       transform="matrix(0.12500001,0,0,0.12500001,-154.1198,-51.593751)"
       id="g167">
      <g
         id="g125">
        <rect
           style="fill:#8bc34a;stroke-width:0.264583"
           id="rect10"
           width="541.86664"
           height="541.86664"
           x="-176.13692"
           y="-58.964287" />
        <path
           id="path2491"
           style="fill:#000001;fill-opacity:0.247059;stroke-width:0.0989822"
           d="m -63.374412,101.6 c -12.144801,0 -21.922176,9.77821 -21.922176,21.92321 v 158.3707 0 18.5203 0 c 1.72e-4,6.93843 3.194637,13.10042 8.195365,17.11161 0.287809,0.25747 0.583425,0.50615 0.884701,0.74827 0.295886,0.26519 0.60039,0.52054 0.91054,0.76946 0.29374,0.26292 0.595529,0.51689 0.903303,0.7638 0.289139,0.2586 0.586105,0.50824 0.888833,0.75136 0.292378,0.26178 0.592884,0.51422 0.899171,0.76018 0.289263,0.25886 0.586478,0.50853 0.889352,0.75186 0.292973,0.26242 0.594291,0.51525 0.901237,0.76174 0.289433,0.259 0.586808,0.50892 0.889867,0.75239 0.291098,0.26062 0.590148,0.51216 0.895036,0.75706 0.290517,0.26 0.58924,0.51064 0.893487,0.75501 0.291108,0.26046 0.590145,0.51176 0.895035,0.75652 0.288248,0.25781 0.58398,0.50692 0.885735,0.74933 0.290261,0.25974 0.588484,0.51033 0.89245,0.75446 0.290428,0.25977 0.58883,0.51086 0.892969,0.75499 0.288264,0.25768 0.584488,0.50652 0.886251,0.7488 0.288856,0.25826 0.585391,0.50757 0.887801,0.75033 0.285245,0.25498 0.577967,0.50167 0.876433,0.74157 0.291441,0.26077 0.590814,0.51253 0.896069,0.75758 0.286848,0.25633 0.58139,0.50406 0.8816,0.74518 0.2873,0.2568 0.581924,0.50469 0.882634,0.7462 0.289002,0.25831 0.58575,0.508 0.888317,0.75086 0.282668,0.25244 0.572527,0.49665 0.868164,0.73433 0.28761,0.25725 0.583124,0.5053 0.884185,0.74723 0.290131,0.25937 0.588129,0.51017 0.891934,0.75396 0.281914,0.25164 0.570775,0.4953 0.865579,0.73226 0.287634,0.25715 0.583113,0.50541 0.884185,0.74724 0.283956,0.25362 0.575254,0.49871 0.872299,0.73742 0.285896,0.2555 0.579327,0.50223 0.878499,0.74258 0.283297,0.2531 0.573902,0.49765 0.87023,0.73588 0.287015,0.25654 0.581721,0.50443 0.882119,0.74568 0.282919,0.25262 0.573288,0.49651 0.869196,0.73432 0.284667,0.25432 0.576543,0.5002 0.874365,0.73951 0.282115,0.25194 0.571582,0.49557 0.866614,0.73276 0.284276,0.25403 0.575932,0.49941 0.873331,0.73846 0.283023,0.25278 0.573175,0.49741 0.869199,0.73535 0.284864,0.25443 0.577363,0.50009 0.875398,0.73949 0.282461,0.25207 0.572249,0.49598 0.867648,0.73329 0.280043,0.2499 0.567134,0.4917 0.859896,0.7271 0.283675,0.25334 0.574527,0.49845 0.871265,0.73689 0.280029,0.24993 0.567145,0.49168 0.859895,0.7271 0.285264,0.25472 0.577964,0.50136 0.876433,0.74102 0.276513,0.24657 0.559623,0.48538 0.848526,0.71779 0.285687,0.25519 0.579052,0.50152 0.877983,0.74157 0.280178,0.24977 0.567002,0.49184 0.859896,0.72708 0.278246,0.24807 0.563422,0.48816 0.85421,0.72191 0.277318,0.24744 0.561324,0.48718 0.851112,0.72039 0.282408,0.2522 0.572293,0.49583 0.867648,0.73329 0.279818,0.24963 0.566867,0.49088 0.859377,0.72604 0.278664,0.24858 0.563996,0.48927 0.855247,0.72348 0.279241,0.2491 0.565428,0.49032 0.857311,0.72501 0.278667,0.24852 0.56451,0.48879 0.855763,0.72295 0.279196,0.249 0.565478,0.48995 0.857311,0.72451 0.277167,0.24709 0.560983,0.48646 0.850593,0.71934 0.279072,0.24885 0.565107,0.49007 0.856795,0.72451 0.276592,0.24646 0.560064,0.48543 0.849045,0.71777 0.277609,0.24746 0.562054,0.48717 0.852144,0.72038 0.27615,0.24611 0.558993,0.48474 0.847494,0.71675 0.276627,0.24659 0.560023,0.48533 0.849043,0.71779 0.275432,0.24548 0.557707,0.48324 0.845427,0.71467 0.279894,0.24955 0.566795,0.49101 0.859379,0.72607 0.273417,0.24339 0.5532,0.47939 0.838708,0.709 0.275341,0.24532 0.557295,0.48286 0.84491,0.71416 0.27636,0.24625 0.559286,0.48514 0.84801,0.71726 0.271988,0.24223 0.550098,0.47736 0.834058,0.70591 0.276071,0.24609 0.559075,0.48421 0.847493,0.71623 0.276608,0.24643 0.560052,0.48498 0.849044,0.71728 0.273108,0.24308 0.552505,0.47916 0.837675,0.70848 0.275795,0.24556 0.558362,0.48368 0.84646,0.71519 0.270978,0.24109 0.54811,0.4753 0.830957,0.70282 0.275045,0.24489 0.556594,0.48273 0.843876,0.71363 0.271321,0.24141 0.549287,0.47551 0.832507,0.70334 0.272524,0.24257 0.551071,0.47853 0.835608,0.70744 0.274249,0.24416 0.555397,0.48028 0.841809,0.71054 0.26838,0.23874 0.542666,0.47064 0.822689,0.6961 0.274357,0.24439 0.555269,0.48162 0.841809,0.7121 0.272317,0.2423 0.551303,0.47728 0.835608,0.7059 0.272971,0.24281 0.552148,0.47837 0.837158,0.70745 0.265561,0.23603 0.5369534,0.46529 0.8139041,0.68834 0.2728158,0.24294 0.5517793,0.47871 0.8366413,0.70794 0.2728135,0.24276 0.5523132,0.47792 0.8371584,0.70694 0.2687589,0.23892 0.5432975,0.47101 0.8237222,0.6966 0.2689622,0.23921 0.5441035,0.47125 0.824756,0.69712 0.267667,0.23813 0.5413708,0.46911 0.8206216,0.694 0.2728706,0.24294 0.5522447,0.47829 0.8371581,0.70747 0.268524,0.23868 0.5430374,0.47067 0.8232057,0.69607 0.2679089,0.23818 0.5416357,0.46961 0.8211384,0.69453 0.2685423,0.23879 0.5430118,0.47059 0.8232056,0.69609 0.2679887,0.23826 0.5420645,0.46951 0.8216553,0.69453 0.2694604,0.23958 0.54511711,0.47197 0.82630611,0.69813 0.26572348,0.23612 0.53729831,0.46527 0.81442056,0.68834 0.26591276,0.23641 0.5376002,0.46599 0.81493733,0.68937 0.269473,0.23969 0.5450974,0.47237 0.8263061,0.69866 0.2668564,0.23712 0.5396854,0.46744 0.818038,0.69144 0.2665476,0.23683 0.5389888,0.46717 0.8170045,0.69091 0.2670238,0.23722 0.5400238,0.46786 0.8185546,0.69196 0.2636573,0.2341 0.5328293,0.46183 0.8077026,0.68315 0.2654765,0.23591 0.537047,0.46488 0.8139038,0.68782 0.2672305,0.23746 0.540312,0.46815 0.8190714,0.69246 0.2628403,0.23339 0.5311325,0.46043 0.8051189,0.68109 0.2661462,0.23651 0.5383882,0.46591 0.8159707,0.68938 0.2634896,0.23397 0.5324938,0.46143 0.8071858,0.68262 0.2643781,0.23487 0.5346266,0.46276 0.8102869,0.68472 0.266302,0.23653 0.538226,0.46693 0.815971,0.6904 0.262295,0.23275 0.530183,0.45895 0.803568,0.67903 0.263525,0.23394 0.532462,0.46151 0.807186,0.68265 0.265859,0.23598 0.537683,0.46537 0.814937,0.68834 0.258633,0.22929 0.522276,0.45273 0.791683,0.66971 0.262281,0.23289 0.530189,0.45934 0.803569,0.67956 0.262924,0.23344 0.531559,0.46037 0.805635,0.68109 0.261619,0.2322 0.528845,0.45788 0.801502,0.67746 0.260993,0.23167 0.527455,0.45683 0.799434,0.67593 0.263769,0.23416 0.533229,0.46183 0.808219,0.68318 0.259218,0.22985 0.523706,0.45376 0.79375,0.67128 0.264052,0.23431 0.533963,0.46217 0.809253,0.68366 0.258145,0.22878 0.52126,0.45167 0.790133,0.66817 0.260873,0.23138 0.52708,0.45657 0.798918,0.67543 0.257046,0.22791 0.51934,0.44985 0.787032,0.66559 0.263447,0.23384 0.532548,0.46106 0.807186,0.68212 0.25624,0.22709 0.517635,0.44802 0.784448,0.66302 0.261327,0.23183 0.528134,0.4577 0.800468,0.67696 0.255458,0.22641 0.515896,0.44704 0.781864,0.66146 0.262746,0.23315 0.531244,0.45961 0.805119,0.68006 0.25397,0.22497 0.512861,0.44421 0.777214,0.65733 0.260938,0.23151 0.527521,0.45643 0.799434,0.6754 0.257982,0.2286 0.520922,0.45183 0.789617,0.66818 0.257214,0.22789 0.519684,0.44987 0.787548,0.66559 0.255894,0.22672 0.516982,0.4473 0.783415,0.66198 0.257038,0.22781 0.518838,0.44993 0.786514,0.66559 0.257074,0.22781 0.519321,0.44942 0.787032,0.66508 0.252418,0.2236 0.509889,0.4413 0.772562,0.65318 0.260215,0.23082 0.525725,0.45551 0.796851,0.67387 0.254812,0.22566 0.514541,0.44566 0.779799,0.65939 0.253881,0.2249 0.512961,0.44376 0.777213,0.6568 0.258937,0.22948 0.522984,0.45313 0.792716,0.67025 0.251864,0.22285 0.508434,0.44045 0.770495,0.65164 0.255212,0.22606 0.515657,0.44582 0.781349,0.6599 0.254326,0.22521 0.513517,0.44455 0.778246,0.65786 0.254338,0.22516 0.513506,0.44505 0.778248,0.65833 0.253516,0.22442 0.511813,0.44318 0.775663,0.6558 0.252492,0.22347 0.50982,0.4414 0.772562,0.65317 0.255209,0.22596 0.515149,0.44593 0.78083,0.6599 0.250706,0.22178 0.506074,0.43834 0.766879,0.64855 0.25431,0.22513 0.513541,0.4446 0.778248,0.65783 0.250405,0.22151 0.505363,0.43807 0.765845,0.64805 0.254847,0.22555 0.515025,0.44524 0.780314,0.65886 0.247428,0.21873 0.49928,0.43225 0.756542,0.63976 0.253365,0.22434 0.511458,0.44323 0.775147,0.65577 0.250653,0.22175 0.506129,0.43784 0.766879,0.64802 0.253143,0.22397 0.511186,0.44257 0.774629,0.65474 0.249888,0.22087 0.504383,0.43656 0.764293,0.64595 0.248098,0.21932 0.500629,0.43381 0.758611,0.64183 0.252325,0.22323 0.50949,0.44114 0.772046,0.65267 0.249338,0.22038 0.50291,0.43545 0.762228,0.6444 0.248454,0.21963 0.501277,0.43407 0.759642,0.64235 0.248706,0.2199 0.502039,0.43432 0.760678,0.64286 0.252817,0.22355 0.51,0.44188 0.77308,0.65371 0.244433,0.21579 0.493226,0.42664 0.747242,0.63148 0.24961,0.22069 0.503642,0.43619 0.763259,0.64542 0.245507,0.21693 0.49516,0.42926 0.750343,0.63511 0.249803,0.22092 0.504465,0.436 0.764294,0.64545 0.24789,0.21905 0.50034,0.43302 0.758094,0.64079 0.246325,0.2176 0.496861,0.43019 0.752925,0.63664 0.246788,0.21805 0.497912,0.43133 0.754475,0.6382 0.247296,0.21847 0.498917,0.43199 0.756026,0.63924 0.244552,0.216 0.493615,0.42651 0.747757,0.63148 0.247965,0.21913 0.500261,0.43349 0.758095,0.64132 0.245153,0.21646 0.49452,0.42812 0.749308,0.63355 0.244533,0.21592 0.493117,0.42706 0.747242,0.63201 0.245046,0.21643 0.494628,0.42762 0.749308,0.63304 0.24534,0.21667 0.494831,0.42841 0.749823,0.63405 0.245055,0.21637 0.49411,0.4277 0.748792,0.63304 0.243216,0.21468 0.490411,0.42455 0.743109,0.62838 0.246184,0.21741 0.496504,0.42987 0.752409,0.63614 0.24185,0.21336 0.487749,0.42162 0.738973,0.62426 0.242025,0.21365 0.488069,0.42291 0.73949,0.62579 0.24552,0.21686 0.495149,0.42881 0.750342,0.63461 0.240157,0.21187 0.484399,0.4188 0.733803,0.6201 0.242854,0.21444 0.489763,0.42423 0.742075,0.62788 0.244459,0.21582 0.493196,0.42662 0.747241,0.63148 0.240689,0.21231 0.485384,0.41998 0.735357,0.62167 0.242617,0.2141 0.4895,0.42301 0.741555,0.62632 0.239588,0.21132 0.482952,0.41828 0.73174,0.61907 0.243951,0.21532 0.492196,0.42556 0.745688,0.62995 0.239959,0.21153 0.483598,0.41862 0.732774,0.6196 0.240242,0.21185 0.484318,0.41936 0.733804,0.62063 0.241866,0.21328 0.487738,0.42167 0.738973,0.62426 0.238342,0.21003 0.480171,0.41585 0.727604,0.61545 0.239707,0.21137 0.483346,0.41825 0.732256,0.6191 0.23909,0.21076 0.481944,0.41722 0.730189,0.61753 0.242374,0.21371 0.488741,0.42286 0.740521,0.6258 0.23577,0.20759 0.475194,0.41082 0.719854,0.60822 0.237919,0.20971 0.47959,0.41511 0.72657,0.61444 0.239075,0.21077 0.481962,0.41722 0.730189,0.61754 0.237906,0.20963 0.479605,0.41516 0.72657,0.61442 0.238559,0.21021 0.480973,0.41621 0.728639,0.616 0.234738,0.20674 0.473194,0.40896 0.716751,0.60563 0.238908,0.21063 0.481623,0.41685 0.72967,0.61703 0.237961,0.20963 0.479552,0.41516 0.726572,0.61442 0.234942,0.20688 0.473499,0.40939 0.717267,0.60616 0.237757,0.20947 0.479253,0.41481 0.726057,0.61391 0.234995,0.20691 0.47344,0.40992 0.717266,0.60669 0.237088,0.20881 0.477912,0.41333 0.723988,0.61185 0.233172,0.20521 0.469722,0.40627 0.711583,0.60153 0.237779,0.20942 0.479232,0.41484 0.726054,0.61391 0.227976,0.20056 0.459285,0.39701 0.695566,0.58807 0.23989,0.21158 0.483661,0.41857 0.732771,0.6196 0.234464,0.20637 0.472469,0.40883 0.715719,0.60513 0.233305,0.20534 0.470099,0.40666 0.712103,0.60203 0.234283,0.20622 0.472143,0.40846 0.7152,0.60463 0.232328,0.20441 0.468048,0.40489 0.709001,0.59944 0.233411,0.20544 0.470498,0.40655 0.712619,0.60203 0.231415,0.20365 0.465926,0.40351 0.7059,0.59738 0.234722,0.20663 0.473218,0.40909 0.716751,0.60565 0.232373,0.20437 0.468003,0.40495 0.709001,0.59944 0.232929,0.20487 0.469474,0.40556 0.711068,0.60047 0.227912,0.20035 0.458843,0.39725 0.695047,0.58809 0.234096,0.20606 0.471313,0.40807 0.714169,0.6041 0.232926,0.20481 0.469479,0.40558 0.711067,0.60047 0.22677,0.19923 0.456457,0.39518 0.691431,0.58497 0.232185,0.20431 0.467683,0.40452 0.708485,0.59894 0.231659,0.20367 0.466704,0.40351 0.706933,0.59737 0.22542,0.19807 0.45377,0.39259 0.6873,0.58137 0.23299,0.20505 0.46939,0.4064 0.71106,0.60151 0.2297,0.2019 0.46263,0.39997 0.70074,0.59221 0.22571,0.19836 0.45449,0.39283 0.68833,0.58187 0.23331,0.20527 0.47008,0.40675 0.7121,0.60204 0.22519,0.19777 0.4535,0.39185 0.68678,0.58033 0.22884,0.20122 0.46042,0.39902 0.69763,0.59066 0.22687,0.19942 0.45685,0.39497 0.69195,0.58497 0.2292,0.20153 0.46159,0.39928 0.69918,0.59118 0.2281,0.20045 0.45968,0.39664 0.69608,0.58756 0.22428,0.19701 0.45137,0.39047 0.68368,0.57828 0.22875,0.20111 0.46052,0.39859 0.69763,0.59012 0.22537,0.19799 0.45383,0.39217 0.6873,0.58087 0.23042,0.20248 0.4639,0.40148 0.7028,0.59425 0.22079,0.19373 0.44426,0.38418 0.67283,0.56896 0.22781,0.20024 0.45894,0.39683 0.69504,0.58756 0.22769,0.19995 0.45858,0.39608 0.69453,0.58653 0.21998,0.19299 0.44256,0.38275 0.67025,0.5669 0.22918,0.20145 0.46161,0.39936 0.69918,0.59118 0.22282,0.1955 0.4483,0.3877 0.67903,0.57412 0.22381,0.19648 0.45033,0.38989 0.68213,0.57724 0.22338,0.19611 0.44975,0.38868 0.68109,0.57566 0.22671,0.19907 0.45653,0.39428 0.69143,0.58396 0.22213,0.19479 0.44698,0.38626 0.67696,0.57206 0.21953,0.19259 0.44149,0.38205 0.6687,0.56583 0.22474,0.19744 0.45243,0.39111 0.68523,0.57931 0.18149,0.15928 0.36696,0.31409 0.55345,0.46768 H 365.72963 V 192.69159 c -0.12422,-0.1047 -0.24548,-0.21277 -0.37208,-0.3147 -0.25892,-0.22955 -0.52297,-0.45305 -0.79272,-0.67025 -0.25876,-0.22942 -0.52266,-0.45314 -0.79219,-0.67024 -0.26035,-0.23091 -0.52612,-0.45543 -0.79737,-0.67386 -0.26196,-0.23232 -0.52951,-0.45832 -0.80253,-0.678 -0.26001,-0.23046 -0.52544,-0.45481 -0.79635,-0.67282 -0.25598,-0.22694 -0.51683,-0.44865 -0.7834,-0.66353 -0.26437,-0.23479 -0.53465,-0.4628 -0.81029,-0.68471 -0.26061,-0.23115 -0.52686,-0.45573 -0.79841,-0.67438 -0.2591,-0.2299 -0.52329,-0.45374 -0.79322,-0.67128 -0.26691,-0.23706 -0.53964,-0.46698 -0.81804,-0.69091 -0.25773,-0.22848 -0.5207,-0.45089 -0.78909,-0.66714 -0.26265,-0.23324 -0.53086,-0.46005 -0.80462,-0.68058 -0.26668,-0.23683 -0.53936,-0.46667 -0.81751,-0.6904 -0.25858,-0.22928 -0.52234,-0.45275 -0.79169,-0.66972 -0.2671,-0.23727 -0.53993,-0.46784 -0.81854,-0.69195 -0.26088,-0.23139 -0.5271,-0.45655 -0.79894,-0.67541 -0.26339,-0.23392 -0.53258,-0.46101 -0.80719,-0.68213 -0.26686,-0.23703 -0.53967,-0.46753 -0.81804,-0.69143 -0.26249,-0.23294 -0.52993,-0.45982 -0.80356,-0.68006 -0.26421,-0.23465 -0.53427,-0.46294 -0.80976,-0.68472 -0.26546,-0.23579 -0.53708,-0.46449 -0.81391,-0.68729 -0.26591,-0.23615 -0.53763,-0.46574 -0.81494,-0.68885 -0.26355,-0.23404 -0.5324,-0.46192 -0.80717,-0.68316 -0.26794,-0.23811 -0.54213,-0.46915 -0.82166,-0.69402 -0.26379,-0.23423 -0.53322,-0.46227 -0.80822,-0.68368 -0.26557,-0.23603 -0.53695,-0.4653 -0.81392,-0.68833 -0.27008,-0.24015 -0.54647,-0.473 -0.82835,-0.6997 -0.26247,-0.23308 -0.53052,-0.45967 -0.8041,-0.68006 -0.2708,-0.24093 -0.54776,-0.47488 -0.83045,-0.70228 -0.26762,-0.2378 -0.54141,-0.46839 -0.8206,-0.69298 -0.26498,-0.23542 -0.53554,-0.46431 -0.81185,-0.68678 -0.26895,-0.23925 -0.54411,-0.47173 -0.82476,-0.69763 -0.26971,-0.23985 -0.54533,-0.47276 -0.82682,-0.69919 -0.26667,-0.23704 -0.53935,-0.46698 -0.81751,-0.69091 -0.27141,-0.24144 -0.5492,-0.47547 -0.83251,-0.70331 -0.2671,-0.2374 -0.54044,-0.46771 -0.81907,-0.69195 -0.26792,-0.23835 -0.54163,-0.46995 -0.82114,-0.69505 -0.27553,-0.24527 -0.55763,-0.48292 -0.84542,-0.71417 -0.26292,-0.23352 -0.53157,-0.46031 -0.80566,-0.6811 -0.27524,-0.24519 -0.55686,-0.48296 -0.84439,-0.71416 -0.26797,-0.23825 -0.54208,-0.46953 -0.82163,-0.69454 -0.2717,-0.24182 -0.54991,-0.47614 -0.83355,-0.70434 -0.27061,-0.2408 -0.54747,-0.47449 -0.82992,-0.70177 -0.27307,-0.24307 -0.55255,-0.47918 -0.83769,-0.70848 -0.27102,-0.24112 -0.54856,-0.47473 -0.83146,-0.70229 -0.27183,-0.2419 -0.54977,-0.4766 -0.83354,-0.70486 -0.26995,-0.24028 -0.54613,-0.47339 -0.82785,-0.70022 -0.27874,-0.24832 -0.56447,-0.48899 -0.85577,-0.72295 -0.26869,-0.23883 -0.5434,-0.47108 -0.82373,-0.6966 -0.27451,-0.24443 -0.55562,-0.48158 -0.84233,-0.7121 -0.27355,-0.2435 -0.55356,-0.47983 -0.83923,-0.70952 -0.27091,-0.2411 -0.54816,-0.47524 -0.83095,-0.7028 -0.2753,-0.24531 -0.55732,-0.48286 -0.84489,-0.71417 -0.27472,-0.24467 -0.55592,-0.48188 -0.84286,-0.71262 -0.27501,-0.2449 -0.55663,-0.48219 -0.84386,-0.71313 -0.27512,-0.24499 -0.55653,-0.48264 -0.84389,-0.71365 -0.2735,-0.24354 -0.55364,-0.4798 -0.83923,-0.70952 -0.27549,-0.24551 -0.55764,-0.48371 -0.84543,-0.7152 -0.27821,-0.24794 -0.56345,-0.48777 -0.8542,-0.7214 -0.27223,-0.24237 -0.55089,-0.47773 -0.83508,-0.70642 -0.27953,-0.24923 -0.56618,-0.49023 -0.85836,-0.72502 -0.27268,-0.24287 -0.55192,-0.47832 -0.83664,-0.70745 -0.27927,-0.2491 -0.56542,-0.49034 -0.8573,-0.72502 -0.27631,-0.24623 -0.55936,-0.48463 -0.84802,-0.71675 -0.27903,-0.2488 -0.56462,-0.48958 -0.85627,-0.72399 -0.27742,-0.24721 -0.56176,-0.48687 -0.85164,-0.71985 -0.27612,-0.2461 -0.55904,-0.48423 -0.84749,-0.71624 -0.27757,-0.24757 -0.56158,-0.48756 -0.85164,-0.72088 -0.28205,-0.25167 -0.57163,-0.49479 -0.86662,-0.73174 -0.27866,-0.24833 -0.56401,-0.48898 -0.85524,-0.72295 -0.27646,-0.24641 -0.55967,-0.48499 -0.84851,-0.71727 -0.2803,-0.2501 -0.56738,-0.49204 -0.86043,-0.72761 -0.28091,-0.25058 -0.56877,-0.49317 -0.86246,-0.72915 -0.27596,-0.24608 -0.55867,-0.48424 -0.84699,-0.71624 -0.28276,-0.25255 -0.57292,-0.49656 -0.86868,-0.73432 -0.28217,-0.25179 -0.57152,-0.49571 -0.86661,-0.73277 -0.27808,-0.24799 -0.56306,-0.48823 -0.85371,-0.72192 -0.28432,-0.25387 -0.57586,-0.49904 -0.87331,-0.73794 -0.27942,-0.24917 -0.56575,-0.49081 -0.85783,-0.72554 -0.28112,-0.25088 -0.56959,-0.49341 -0.86352,-0.72967 -0.28511,-0.25453 -0.57761,-0.50104 -0.8759,-0.74052 -0.27813,-0.24798 -0.56306,-0.48824 -0.85371,-0.72192 -0.28212,-0.25201 -0.57155,-0.4955 -0.86661,-0.73278 -0.28528,-0.25485 -0.57793,-0.50125 -0.87644,-0.74103 -0.28442,-0.25388 -0.57631,-0.49956 -0.87383,-0.73846 -0.27985,-0.24967 -0.56685,-0.49139 -0.8594,-0.72657 -0.2862,-0.25571 -0.58002,-0.50257 -0.87953,-0.74311 -0.28265,-0.25232 -0.57253,-0.49627 -0.86815,-0.7338 -0.28384,-0.25354 -0.57486,-0.4988 -0.8718,-0.73743 -0.28323,-0.25303 -0.57393,-0.49769 -0.87021,-0.73587 -0.28713,-0.25663 -0.58211,-0.50432 -0.88265,-0.74569 -0.28668,-0.25604 -0.58053,-0.50383 -0.88056,-0.74466 -0.28414,-0.25362 -0.57558,-0.49874 -0.87281,-0.73742 -0.28271,-0.25247 -0.57251,-0.49664 -0.86818,-0.73432 -0.28734,-0.25695 -0.58237,-0.50508 -0.88315,-0.74673 -0.28736,-0.25682 -0.5824,-0.50519 -0.88313,-0.74672 -0.28474,-0.25438 -0.577,-0.50013 -0.87489,-0.73949 -0.28898,-0.25838 -0.58577,-0.50796 -0.88832,-0.75086 -0.28649,-0.25593 -0.58076,-0.50341 -0.88056,-0.74414 -0.28514,-0.25477 -0.57758,-0.50132 -0.87593,-0.74104 -0.28715,-0.25683 -0.58205,-0.50466 -0.88262,-0.74621 -0.28892,-0.25844 -0.58584,-0.50788 -0.88831,-0.75086 -0.2861,-0.25584 -0.57965,-0.50293 -0.87903,-0.74362 -0.29268,-0.26196 -0.59359,-0.5146 -0.90021,-0.76068 -0.28541,-0.25506 -0.57828,-0.50158 -0.87694,-0.74155 -0.29332,-0.26245 -0.59497,-0.51574 -0.90228,-0.76223 -0.28522,-0.25482 -0.57798,-0.50077 -0.87643,-0.74052 -0.28956,-0.25913 -0.58666,-0.50986 -0.88985,-0.75345 -0.293,-0.2622 -0.59431,-0.5149 -0.90125,-0.76119 -0.28969,-0.259 -0.58706,-0.50948 -0.89038,-0.75293 -0.28752,-0.25707 -0.58272,-0.50548 -0.88368,-0.74724 -0.2934,-0.26268 -0.59536,-0.51602 -0.90278,-0.76274 -0.29046,-0.25976 -0.58881,-0.51086 -0.89297,-0.75499 -0.29171,-0.26098 -0.59156,-0.51289 -0.8971,-0.7581 -0.28887,-0.25839 -0.58536,-0.50792 -0.88781,-0.75086 -0.2917,-0.26123 -0.59153,-0.51315 -0.89709,-0.75861 -0.29435,-0.26361 -0.59693,-0.5183 -0.90538,-0.76584 -0.2929,-0.26211 -0.59386,-0.515 -0.90072,-0.76119 -0.29036,-0.25984 -0.58889,-0.51027 -0.89296,-0.75448 C 260.70364,103.70863 255.57862,101.6 249.94186,101.6 h -0.001 -313.31472 z" />
        <g
           transform="translate(1.3323637e-5)"
           id="g830">
          <g
             id="g48">
            <path
               id="rect12"
               style="fill:#01579b;stroke-width:0.999999"
               d="m -239.52344,384 c -45.90285,0 -82.85742,36.95457 -82.85742,82.85742 V 1065.4277 H 1027.5215 v 70 c 0,0.7173 -0.01,1.4338 -0.025,2.1465 0.018,-0.7127 0.027,-1.4292 0.027,-2.1465 V 466.85742 C 1027.5234,420.95457 990.56887,384 944.66602,384 Z m 1267.01954,753.5742 c -0.036,1.4255 -0.1085,2.8417 -0.2149,4.2481 0.1064,-1.4064 0.179,-2.8226 0.2149,-4.2481 z m -2.5742,18.6094 c -0.5093,1.9886 -1.0887,3.9479 -1.7383,5.875 0.6495,-1.9271 1.229,-3.8864 1.7383,-5.875 z m -1342.96292,5.875 c 0.64956,1.9271 1.36828,3.8217 2.15235,5.6816 -0.78407,-1.8599 -1.50279,-3.7545 -2.15235,-5.6816 z m 1339.07222,5.6816 c -1.0454,2.4799 -2.2078,4.8977 -3.4804,7.2461 1.2726,-2.3484 2.435,-4.7662 3.4804,-7.2461 z m -5.4707,10.7149 c -1.381,2.2776 -2.8693,4.4837 -4.457,6.6094 1.5877,-2.1257 3.076,-4.3318 4.457,-6.6094 z"
               transform="scale(0.26458333)" />
            <path
               d="m -85.296601,281.89441 v 18.52083 c 0,12.14513 9.777545,21.92269 21.922687,21.92269 H 249.94236 c 12.14511,0 21.92269,-9.77756 21.92269,-21.92269 v -18.52083 z"
               style="fill:#b2dfdb;stroke-width:0.264583"
               id="path37" />
          </g>
          <path
             transform="scale(0.26458333)"
             d="m -244.57031,461.14258 v 437.1875 L 949.71484,569.45703 V 461.14258 Z"
             style="fill:#304ffe;stroke-width:0.999999"
             id="rect59" />
          <path
             d="m 251.27872,150.66883 -315.988463,87.01433 v 26.44645 H 251.27872 Z"
             style="fill:#0277bd;stroke-width:0.264583"
             id="rect52" />
          <g
             id="g786">
            <path
               d="m 70.815895,322.33792 h 44.937175 v 49.1369 H 70.815895 Z"
               style="fill:#b2dfdb;fill-opacity:1;stroke-width:0.146991"
               id="rect75" />
            <path
               d="m 69.034691,330.03046 h 46.718379 v 5.47942 H 69.034691 Z"
               style="fill:#546e7a;fill-opacity:1;stroke-width:0.149678"
               id="rect77" />
          </g>
          <path
             id="rect149"
             style="fill:#d500f9;fill-opacity:1;stroke-width:0.205146"
             d="m -47.960953,133.34201 h 69.134949 v 3.01883 h -69.134949 z" />
          <path
             id="rect151"
             style="fill:#fbc02d;fill-opacity:1;stroke-width:0.169604"
             d="M -38.608231,138.10445 H 8.6462746 v 3.01883 H -38.608231 Z" />
          <path
             id="rect153"
             style="fill:#00e676;fill-opacity:1;stroke-width:0.169604"
             d="M 12.456375,138.10445 H 59.71088 v 3.01883 H 12.456375 Z" />
          <path
             id="rect155"
             style="fill:#ef5350;fill-opacity:1;stroke-width:0.169604"
             d="m 63.520981,138.10445 h 47.254509 v 3.01883 H 63.520981 Z" />
          <path
             id="rect157"
             style="fill:#c6ff00;fill-opacity:1;stroke-width:0.212219"
             d="m -28.315666,143.39604 h 73.984375 v 3.01883 h -73.984375 z" />
          <path
             id="rect159"
             style="fill:#ee6f0b;fill-opacity:1;stroke-width:0.212219"
             d="m 51.63401,143.39604 h 73.98438 v 3.01883 H 51.63401 Z" />
          <path
             id="rect163"
             style="fill:#76ff03;fill-opacity:1;stroke-width:0.194515"
             d="m -37.806412,160.32915 h 62.155411 v 3.01883 h -62.155411 z" />
          <path
             id="rect165"
             style="fill:#f9a825;fill-opacity:1;stroke-width:0.194515"
             d="m 30.16984,160.32915 h 62.155411 v 3.01883 H 30.16984 Z" />
          <path
             id="rect167"
             style="fill:#f50057;fill-opacity:1;stroke-width:0.169604"
             d="m -28.024887,165.62074 h 47.254505 v 3.01883 h -47.254505 z" />
          <path
             id="rect169"
             style="fill:#4fc3f7;fill-opacity:1;stroke-width:0.169604"
             d="m 23.039713,165.62074 h 47.254505 v 3.01883 H 23.039713 Z" />
          <path
             id="rect171"
             style="fill:#00c853;fill-opacity:1;stroke-width:0.169604"
             d="m 74.104324,165.62074 h 47.254506 v 3.01883 H 74.104324 Z" />
          <path
             id="rect173"
             style="fill:#ef6c00;fill-opacity:1;stroke-width:0.18913"
             d="m -27.691673,170.91234 h 58.761085 v 3.01883 h -58.761085 z" />
          <path
             id="rect175"
             style="fill:#ef5350;fill-opacity:1;stroke-width:0.18913"
             d="m 35.807281,170.91234 h 58.761086 v 3.01883 H 35.807281 Z" />
          <path
             id="rect177"
             style="fill:#fbc02d;fill-opacity:1;stroke-width:0.18913"
             d="m 99.306236,170.91234 h 58.761084 v 3.01883 H 99.306236 Z" />
          <path
             id="rect179"
             style="fill:#ee6f0b;fill-opacity:1;stroke-width:0.226341"
             d="m -47.960953,190.49124 h 84.158882 v 3.01883 h -84.158882 z" />
          <path
             id="rect181"
             style="fill:#76ff03;fill-opacity:1;stroke-width:0.226341"
             d="m 42.547935,190.49124 h 84.158885 v 3.01883 H 42.547935 Z" />
          <path
             id="rect183"
             style="fill:#ef5350;fill-opacity:1;stroke-width:0.169604"
             d="m -28.024887,195.78284 h 47.254505 v 3.01883 h -47.254505 z" />
          <path
             id="rect185"
             style="fill:#00c853;fill-opacity:1;stroke-width:0.169604"
             d="m 23.039713,195.78284 h 47.254505 v 3.01883 H 23.039713 Z" />
          <path
             id="rect187"
             style="fill:#4fc3f7;fill-opacity:1;stroke-width:0.169604"
             d="m 74.104324,195.78284 h 47.254506 v 3.01883 H 74.104324 Z" />
          <path
             id="rect189"
             style="fill:#fbc02d;fill-opacity:1;stroke-width:0.18913"
             d="m -27.691673,201.07443 h 58.761085 v 3.01883 h -58.761085 z" />
          <path
             id="rect191"
             style="fill:#ee6f0b;fill-opacity:1;stroke-width:0.18913"
             d="m 35.807281,201.07443 h 58.761086 v 3.01883 H 35.807281 Z" />
          <path
             id="rect193"
             style="fill:#ef5350;fill-opacity:1;stroke-width:0.18913"
             d="m 99.306236,201.07443 h 58.761084 v 3.01883 H 99.306236 Z" />
          <path
             id="rect195"
             style="fill:#f9a825;fill-opacity:1;stroke-width:0.204556"
             d="m -47.960953,232.82401 h 68.737839 v 3.01882 h -68.737839 z" />
          <path
             id="rect197"
             style="fill:#00e676;fill-opacity:1;stroke-width:0.204556"
             d="m 27.12689,232.82401 h 68.737839 v 3.01882 H 27.12689 Z" />
          <path
             id="rect199"
             style="fill:#ef5350;fill-opacity:1;stroke-width:0.204556"
             d="m 102.21474,232.82401 h 68.73784 v 3.01882 h -68.73784 z" />
          <path
             id="rect201"
             style="fill:#01579b;fill-opacity:1;stroke-width:0.0989823"
             transform="scale(-1,1)"
             d="m -195.41274,132.19093 c 0.15443,0 0.27875,0.47681 0.27875,1.06908 v 118.36784 c 0,0.59227 -0.12432,1.06908 -0.27875,1.06908 -0.15443,0 -0.27876,-0.47681 -0.27876,-1.06908 V 133.26001 c 0,-0.59227 0.12433,-1.06908 0.27876,-1.06908 z" />
        </g>
      </g>
      <text
         xml:space="preserve"
         style="font-style:normal;font-variant:normal;font-weight:normal;font-stretch:normal;font-size:21.0073px;line-height:1.25;font-family:'Janda Manatee Solid';-inkscape-font-specification:'Janda Manatee Solid, Normal';font-variant-ligatures:normal;font-variant-caps:normal;font-variant-numeric:normal;font-variant-east-asian:normal;letter-spacing:0px;word-spacing:0px;fill:#ef5350;fill-opacity:1;stroke:none;stroke-width:0.525183"
         x="202.65785"
         y="204.41417"
         id="text53"><tspan
           sodipodi:role="line"
           id="tspan51"
           x="202.65785"
           y="204.41417"
           style="font-style:normal;font-variant:normal;font-weight:normal;font-stretch:normal;font-size:21.0073px;font-family:'Janda Manatee Solid';-inkscape-font-specification:'Janda Manatee Solid, Normal';font-variant-ligatures:normal;font-variant-caps:normal;font-variant-numeric:normal;font-variant-east-asian:normal;fill:#ef5350;fill-opacity:1;stroke-width:0.525183">ENG</tspan></text>
    </g>
  </g>
</svg>
