<?xml version="1.0" encoding="UTF-8" standalone="no"?>
<svg
   xmlns:dc="http://purl.org/dc/elements/1.1/"
   xmlns:cc="http://creativecommons.org/ns#"
   xmlns:rdf="http://www.w3.org/1999/02/22-rdf-syntax-ns#"
   xmlns:svg="http://www.w3.org/2000/svg"
   xmlns="http://www.w3.org/2000/svg"
   xmlns:sodipodi="http://sodipodi.sourceforge.net/DTD/sodipodi-0.dtd"
   xmlns:inkscape="http://www.inkscape.org/namespaces/inkscape"
   sodipodi:docname="analisi1_scalable.svg"
   inkscape:version="1.0 (4035a4fb49, 2020-05-01)"
   id="svg27221"
   version="1.1"
   viewBox="0 0 67.73333 67.73336"
   height="67.73336mm"
   width="67.73333mm">
  <defs
     id="defs27215">
    <clipPath
       id="clipPath39439-5"
       clipPathUnits="userSpaceOnUse">
      <rect
         style="opacity:1;fill:#546e7a;fill-opacity:1;fill-rule:evenodd;stroke:none;stroke-width:4.8;stroke-linecap:round;stroke-linejoin:bevel;stroke-miterlimit:4;stroke-dasharray:none;stroke-dashoffset:0;stroke-opacity:1;paint-order:fill markers stroke"
         id="rect39441-1"
         width="2048"
         height="2048"
         x="-9440.5146"
         y="7039.3501"
         rx="1.2997299"
         ry="1.2997299" />
    </clipPath>
  </defs>
  <sodipodi:namedview
     inkscape:window-maximized="1"
     inkscape:window-y="24"
     inkscape:window-x="0"
     inkscape:window-height="1056"
     inkscape:window-width="1920"
     fit-margin-bottom="0"
     fit-margin-right="0"
     fit-margin-left="0"
     fit-margin-top="0"
     showgrid="false"
     inkscape:document-rotation="0"
     inkscape:current-layer="layer1"
     inkscape:document-units="mm"
     inkscape:cy="234.65232"
     inkscape:cx="90.384495"
     inkscape:zoom="2"
     inkscape:pageshadow="2"
     inkscape:pageopacity="0.0"
     borderopacity="1.0"
     bordercolor="#666666"
     pagecolor="#ffffff"
     id="base" />
  <metadata
     id="metadata27218">
    <rdf:RDF>
      <cc:Work
         rdf:about="">
        <dc:format>image/svg+xml</dc:format>
        <dc:type
           rdf:resource="http://purl.org/dc/dcmitype/StillImage" />
        <dc:title></dc:title>
        <cc:license
           rdf:resource="http://creativecommons.org/licenses/by-sa/4.0/" />
      </cc:Work>
      <cc:License
         rdf:about="http://creativecommons.org/licenses/by-sa/4.0/">
        <cc:permits
           rdf:resource="http://creativecommons.org/ns#Reproduction" />
        <cc:permits
           rdf:resource="http://creativecommons.org/ns#Distribution" />
        <cc:requires
           rdf:resource="http://creativecommons.org/ns#Notice" />
        <cc:requires
           rdf:resource="http://creativecommons.org/ns#Attribution" />
        <cc:permits
           rdf:resource="http://creativecommons.org/ns#DerivativeWorks" />
        <cc:requires
           rdf:resource="http://creativecommons.org/ns#ShareAlike" />
      </cc:License>
    </rdf:RDF>
  </metadata>
  <g
     transform="translate(134.86191,134.86199)"
     id="layer1"
     inkscape:groupmode="layer"
     inkscape:label="Livello 1">
    <g
       id="g26738"
       inkscape:export-filename="/home/fjall/Icone/PNG/I anno/analisi1.png"
       inkscape:export-xdpi="96"
       inkscape:export-ydpi="96"
       transform="matrix(0.03307292,0,0,0.03307292,114.31307,-196.19885)">
      <rect
         style="fill:#f44336;fill-opacity:1;fill-rule:evenodd;stroke:none;stroke-width:4.8;stroke-linecap:round;stroke-linejoin:bevel;stroke-miterlimit:4;stroke-dasharray:none;stroke-dashoffset:0;stroke-opacity:1;paint-order:fill markers stroke"
         id="rect35002-1"
         width="2047.9998"
         height="2047.9998"
         x="-7534.1089"
         y="1854.5946"
         rx="1.2997298"
         ry="1.2997298" />
      <path
         inkscape:connector-curvature="0"
         style="fill:#000001;fill-opacity:0.145098;fill-rule:evenodd;stroke:none;stroke-width:4.8;stroke-linecap:round;stroke-linejoin:bevel;stroke-miterlimit:4;stroke-dasharray:none;stroke-dashoffset:0;stroke-opacity:1;paint-order:fill markers stroke"
         d="m -8907.3571,7489.6615 c -44.9266,6e-4 -81.0967,36.17 -81.0967,81.0967 v 370.6862 0 c 10e-5,15.4585 4.2851,29.8784 11.7329,42.1464 0.6697,1.1032 1.3655,2.1897 2.0857,3.2573 0,0 0,0 0,0 0.7248,1.0755 1.4762,2.1321 2.2504,3.1698 3.1402,4.2084 6.6818,8.098 10.5665,11.616 0.014,0.014 0.023,0.022 0.034,0.031 0.1075,0.099 0.2106,0.2021 0.3189,0.3002 0.014,0.014 0.023,0.022 0.034,0.033 0.024,0.022 0.048,0.045 0.072,0.067 0.034,0.031 0.067,0.063 0.1007,0.092 0.016,0.015 0.033,0.029 0.048,0.042 0.038,0.035 0.076,0.071 0.1142,0.1061 0.018,0.016 0.035,0.031 0.053,0.048 0.039,0.035 0.077,0.074 0.117,0.1088 0.022,0.02 0.044,0.041 0.067,0.061 0.033,0.03 0.063,0.062 0.095,0.092 0.043,0.039 0.087,0.08 0.1305,0.1197 0.027,0.024 0.055,0.054 0.082,0.08 0.046,0.042 0.093,0.086 0.1382,0.1279 0.03,0.027 0.057,0.057 0.088,0.084 0.041,0.037 0.079,0.078 0.1197,0.1143 0.087,0.08 0.1751,0.1596 0.263,0.239 0,0 0.014,0.014 0.016,0.014 0,0 0.014,0.014 0.014,0.014 0.1563,0.1439 0.305,0.2958 0.4624,0.4385 0.029,0.027 0.058,0.053 0.087,0.08 0.069,0.064 0.1371,0.1306 0.2073,0.194 0.031,0.029 0.061,0.059 0.093,0.087 0.074,0.067 0.1441,0.1376 0.218,0.2046 0.037,0.034 0.072,0.069 0.1088,0.1033 0.065,0.06 0.1279,0.1238 0.194,0.1833 0.052,0.046 0.099,0.097 0.1514,0.1435 0.086,0.078 0.1691,0.1586 0.255,0.2364 0.046,0.042 0.09,0.086 0.1361,0.1279 0.061,0.056 0.1197,0.1143 0.1806,0.17 0.084,0.078 0.1675,0.1567 0.2525,0.2339 0.054,0.05 0.1075,0.102 0.162,0.1514 0.067,0.061 0.132,0.1251 0.1993,0.1859 0.06,0.055 0.1184,0.1129 0.178,0.1674 0.08,0.073 0.1561,0.1503 0.2365,0.2232 0.082,0.075 0.16,0.1518 0.2417,0.2258 0.064,0.058 0.1252,0.1184 0.1887,0.1754 0.075,0.069 0.1475,0.1412 0.2231,0.2099 0.086,0.079 0.1687,0.1607 0.2551,0.2391 0.077,0.071 0.151,0.1449 0.2285,0.2152 0.063,0.057 0.1211,0.117 0.1834,0.1728 0.1075,0.098 0.211,0.1998 0.3187,0.2975 0.1854,0.1708 0.3658,0.3463 0.5527,0.5154 0.048,0.043 0.093,0.09 0.1408,0.1333 0.097,0.088 0.1877,0.1808 0.2843,0.2683 0.088,0.08 0.1722,0.1644 0.2604,0.2444 0.099,0.091 0.1951,0.1859 0.2949,0.2764 0.082,0.075 0.1619,0.1535 0.2445,0.2284 0.099,0.091 0.195,0.1859 0.2949,0.2765 0.095,0.087 0.1881,0.1784 0.2843,0.2656 0.095,0.087 0.1881,0.1785 0.2843,0.2657 0.088,0.082 0.1735,0.1684 0.263,0.2498 0.1156,0.1061 0.2288,0.2157 0.3454,0.3214 0.091,0.083 0.1795,0.1694 0.2709,0.2524 0.1116,0.102 0.2199,0.209 0.3322,0.3109 0.086,0.078 0.1665,0.1612 0.2524,0.239 0.121,0.1116 0.2392,0.2268 0.3613,0.3375 0.1074,0.098 0.2111,0.2 0.3188,0.2976 0.1061,0.098 0.209,0.2003 0.3162,0.2976 0.1006,0.091 0.197,0.1876 0.2976,0.279 0.1197,0.1102 0.2354,0.2253 0.356,0.3348 0.1116,0.102 0.2198,0.2089 0.3322,0.3108 0.1143,0.1048 0.2249,0.2144 0.3401,0.3189 0.1143,0.1047 0.2249,0.2144 0.3401,0.3187 0.1265,0.1156 0.2477,0.2359 0.3745,0.3507 0.117,0.1075 0.2306,0.2177 0.3481,0.3242 0.1115,0.102 0.2175,0.2093 0.3295,0.3108 0.121,0.1115 0.2371,0.2272 0.3587,0.3375 0.1306,0.1197 0.2568,0.2425 0.3878,0.3613 0.1265,0.1156 0.2479,0.2359 0.3747,0.3507 0.1251,0.1143 0.246,0.234 0.3719,0.3481 0.1265,0.1156 0.2474,0.2381 0.3746,0.3533 0.1292,0.1183 0.253,0.2413 0.3827,0.3587 0.1306,0.1197 0.2564,0.2449 0.3878,0.364 0.139,0.1279 0.2746,0.2586 0.4145,0.3853 0.1347,0.1238 0.2655,0.2518 0.4013,0.3746 0.1156,0.1061 0.2262,0.2185 0.3427,0.3242 0.1618,0.1489 0.3177,0.3039 0.4808,0.4516 0.1211,0.1102 0.2376,0.2249 0.3588,0.3348 0.1476,0.136 0.2897,0.2771 0.4384,0.4118 0.1402,0.1292 0.2759,0.2627 0.4171,0.3905 0.1508,0.1388 0.2971,0.2823 0.449,0.4198 0.1265,0.1157 0.2479,0.2358 0.3747,0.3507 0.1609,0.1483 0.316,0.3023 0.4781,0.4491 0.1385,0.1278 0.2725,0.259 0.4119,0.3852 0.1573,0.1449 0.3091,0.2949 0.4676,0.4384 0.1398,0.1293 0.2738,0.263 0.4145,0.3906 0.1599,0.1473 0.3143,0.3004 0.4755,0.4463 0.1519,0.1397 0.2988,0.2841 0.4517,0.4225 0.1537,0.1414 0.3022,0.2876 0.457,0.4277 0.1559,0.1436 0.3079,0.2909 0.465,0.4332 0.1558,0.1435 0.3053,0.2934 0.4622,0.4357 0.1591,0.1465 0.3128,0.2986 0.473,0.4437 0.167,0.1537 0.3286,0.3126 0.4968,0.465 0.1536,0.1413 0.3023,0.2876 0.4571,0.4277 0.1714,0.158 0.3372,0.3217 0.5101,0.4783 0.1561,0.1439 0.3075,0.293 0.4649,0.4357 0.1752,0.1615 0.3443,0.3289 0.5208,0.4889 0.166,0.1528 0.3269,0.3108 0.4941,0.4622 0.1687,0.1554 0.3323,0.3164 0.5022,0.4703 0.1697,0.1563 0.3339,0.318 0.5049,0.473 0.1731,0.1597 0.3407,0.3254 0.5154,0.4835 0.1708,0.1576 0.3352,0.3222 0.5074,0.4782 0.1835,0.1693 0.3624,0.3427 0.5474,0.5102 0.1747,0.161 0.3446,0.3267 0.5207,0.4862 0.1714,0.158 0.3373,0.3217 0.5102,0.4783 0.1865,0.172 0.367,0.3502 0.5552,0.5207 0.1807,0.1666 0.3546,0.3399 0.5367,0.5048 0.182,0.1679 0.3584,0.3413 0.5421,0.5074 0.1828,0.1688 0.3602,0.3432 0.5445,0.5101 0.1769,0.1633 0.3479,0.3328 0.5262,0.4942 0.2047,0.1893 0.4042,0.3842 0.6111,0.5713 0.1795,0.1656 0.3528,0.3381 0.534,0.5022 0.1953,0.1802 0.3847,0.3663 0.5819,0.5447 0.182,0.168 0.3584,0.3411 0.5419,0.5074 0.2018,0.1863 0.397,0.379 0.6005,0.5633 0.1934,0.1785 0.3814,0.3627 0.5766,0.5394 0.1956,0.1806 0.3844,0.3685 0.5818,0.5472 0.1962,0.1812 0.3865,0.3681 0.5846,0.5474 0.1979,0.1829 0.39,0.3717 0.5898,0.5526 0.2016,0.1864 0.397,0.3791 0.6005,0.5633 0.2006,0.1854 0.3951,0.3772 0.5977,0.5606 0.203,0.1876 0.4009,0.3804 0.6059,0.5659 0.2112,0.1953 0.4162,0.3967 0.6295,0.5898 0.2076,0.1918 0.4095,0.3896 0.6191,0.5793 0.1957,0.1808 0.3845,0.3685 0.582,0.5472 0.2272,0.2103 0.4478,0.4275 0.6774,0.635 0.191,0.1765 0.3759,0.3594 0.5687,0.5341 0.221,0.2047 0.4353,0.4168 0.6589,0.6191 0.2211,0.2047 0.4379,0.4141 0.6615,0.6164 0.2057,0.1901 0.4061,0.3858 0.6137,0.5739 0.2163,0.2 0.4247,0.4081 0.643,0.6057 0.2185,0.2023 0.4302,0.4113 0.6509,0.6111 0.2181,0.2019 0.4307,0.4089 0.651,0.6085 0.23,0.2129 0.4529,0.4326 0.6854,0.6429 0.2218,0.2053 0.4376,0.4164 0.6617,0.6191 0.2231,0.2065 0.4387,0.4203 0.6642,0.6244 0.2244,0.2078 0.4427,0.4217 0.6695,0.6269 0.2271,0.2105 0.4479,0.4273 0.6775,0.635 0.2272,0.2105 0.4479,0.4272 0.6775,0.6351 0.2291,0.2122 0.4514,0.4308 0.6829,0.6403 0.2326,0.2156 0.4583,0.4381 0.6935,0.6509 0.239,0.2216 0.4728,0.4482 0.7146,0.667 0.2337,0.2164 0.4599,0.4399 0.6962,0.6535 0.2348,0.2176 0.4639,0.4414 0.7014,0.6563 0.2352,0.2181 0.4634,0.4436 0.7014,0.6588 0.2307,0.214 0.4549,0.4345 0.6882,0.6456 0.2549,0.2367 0.5044,0.4789 0.7624,0.7122 0.2322,0.2152 0.4587,0.4358 0.6935,0.6482 0.2347,0.2178 0.4615,0.444 0.6988,0.6589 0.2622,0.2435 0.5182,0.4934 0.7837,0.7334 0.2437,0.2258 0.4817,0.4573 0.7281,0.6802 0.2369,0.2198 0.467,0.4472 0.7067,0.6642 0.258,0.2396 0.5093,0.4865 0.7705,0.7226 0.2439,0.2264 0.4811,0.4595 0.728,0.6829 0.2658,0.2469 0.5251,0.5006 0.7944,0.7438 0.2358,0.2188 0.4656,0.4431 0.704,0.659 0.2635,0.2448 0.5198,0.4975 0.7866,0.7386 0.2622,0.2435 0.5181,0.4933 0.7837,0.7333 0.2431,0.2256 0.4795,0.4576 0.7253,0.6801 0.2749,0.2558 0.5425,0.5189 0.8211,0.7707 0.2502,0.2323 0.4932,0.4721 0.7465,0.7014 0.2786,0.259 0.5519,0.5234 0.8343,0.7783 0.2461,0.2287 0.4868,0.4628 0.736,0.6882 0.2666,0.248 0.5242,0.505 0.7944,0.7493 0.28,0.2604 0.5531,0.5274 0.8369,0.7838 0.2602,0.2418 0.5149,0.4896 0.7785,0.7279 0.2684,0.2497 0.5304,0.5061 0.8023,0.7519 0.2702,0.2514 0.534,0.5097 0.8078,0.7573 0.2711,0.2523 0.5356,0.5114 0.8104,0.7599 0.2825,0.2629 0.5584,0.533 0.8449,0.7917 0.2658,0.2472 0.525,0.5005 0.7943,0.744 0.2775,0.2583 0.5478,0.5241 0.8289,0.7785 0.2845,0.2647 0.5619,0.5364 0.8503,0.797 0.2799,0.2605 0.5532,0.5274 0.8368,0.7838 0.2837,0.2638 0.5602,0.5348 0.8477,0.7943 0.2885,0.2687 0.5708,0.5436 0.8635,0.8078 0.267,0.2484 0.5265,0.5046 0.797,0.7493 0.2934,0.2734 0.5793,0.5546 0.8768,0.8235 0.2939,0.2739 0.5814,0.5545 0.8794,0.8237 0.2876,0.2677 0.5693,0.5417 0.8608,0.8051 0.2824,0.2629 0.5587,0.5329 0.8449,0.7917 0.2916,0.2718 0.5759,0.5512 0.8715,0.8183 0.2994,0.2792 0.5917,0.5653 0.8955,0.8396 0.2945,0.2747 0.583,0.5563 0.882,0.8263 0.2949,0.2749 0.5829,0.5561 0.8821,0.8263 0.2971,0.2769 0.5887,0.5594 0.89,0.8317 0.3041,0.2833 0.6002,0.5742 0.9087,0.8528 0.2869,0.2674 0.5672,0.5419 0.8583,0.805 0.3141,0.2935 0.6212,0.594 0.9405,0.8822 0.3024,0.282 0.599,0.5703 0.906,0.8475 0.297,0.277 0.586,0.562 0.8873,0.8343 0.312,0.2911 0.6186,0.5881 0.9353,0.8741 0.3089,0.2883 0.6109,0.5829 0.9246,0.8662 0.2999,0.2799 0.5936,0.567 0.8981,0.8422 0.3247,0.3033 0.6425,0.6135 0.9724,0.9112 0.3052,0.2849 0.6041,0.5757 0.914,0.8556 0.3124,0.2917 0.6178,0.5902 0.9352,0.8768 0.3205,0.2994 0.6335,0.6067 0.9592,0.9007 0.3096,0.2891 0.6128,0.5848 0.9272,0.8689 0.3237,0.3025 0.6408,0.6116 0.9698,0.9085 0.3113,0.291 0.6163,0.5884 0.9325,0.8742 0.3292,0.3077 0.6513,0.6226 0.9857,0.9246 0.3217,0.3005 0.6377,0.6056 0.9644,0.9007 0.3224,0.3013 0.6371,0.6102 0.9645,0.906 0.3254,0.3041 0.6444,0.6154 0.9751,0.914 0.3246,0.3035 0.6426,0.6133 0.9725,0.9113 0.3322,0.3108 0.6585,0.6276 0.9963,0.9326 h -58.4414 c -44.9271,0 -81.0966,36.1696 -81.0966,81.0967 v 370.6861 0 c 0,18.2653 5.9811,35.0801 16.0955,48.6082 1.335,1.7855 2.7523,3.5037 4.2272,5.1702 0.2347,0.2653 0.4579,0.5404 0.6961,0.8025 1.7503,1.9284 3.5933,3.7724 5.521,5.5236 0.064,0.058 0.1265,0.1198 0.1913,0.1781 0.082,0.075 0.1601,0.1517 0.2417,0.2258 0.014,0.014 0.026,0.02 0.037,0.033 0.023,0.022 0.045,0.045 0.069,0.067 0.023,0.022 0.046,0.042 0.069,0.064 0.034,0.03 0.068,0.06 0.1007,0.09 0.018,0.015 0.033,0.033 0.05,0.048 0.027,0.026 0.054,0.052 0.082,0.077 0.038,0.034 0.073,0.069 0.1116,0.1034 0.02,0.019 0.041,0.039 0.061,0.059 0.033,0.03 0.065,0.063 0.098,0.092 0.042,0.038 0.083,0.076 0.1252,0.1143 0.037,0.034 0.072,0.068 0.1088,0.1006 0,0 0,0 0.014,0.014 0.022,0.02 0.042,0.041 0.064,0.061 0.038,0.034 0.073,0.072 0.1115,0.1061 0.117,0.1075 0.2304,0.2177 0.348,0.3241 0.022,0.02 0.046,0.038 0.069,0.059 0.029,0.026 0.054,0.054 0.083,0.08 0.049,0.045 0.097,0.092 0.1461,0.1382 0.048,0.044 0.093,0.09 0.1408,0.1334 0.057,0.052 0.1129,0.1074 0.1701,0.1594 0.058,0.053 0.1142,0.1075 0.1726,0.1594 0.033,0.029 0.064,0.059 0.095,0.088 0.05,0.045 0.097,0.095 0.1461,0.1408 0.074,0.067 0.1467,0.1347 0.2205,0.2019 0.045,0.041 0.087,0.086 0.1333,0.1279 0.046,0.042 0.094,0.09 0.141,0.1333 0.075,0.068 0.1478,0.139 0.2231,0.2073 0.05,0.046 0.1006,0.094 0.1515,0.1408 0.069,0.064 0.1347,0.1306 0.2045,0.194 0.073,0.067 0.1468,0.1347 0.2206,0.2019 0.041,0.038 0.08,0.076 0.1224,0.1142 0.075,0.068 0.1481,0.1391 0.2233,0.2072 0.057,0.053 0.1102,0.1102 0.1673,0.1622 0.077,0.071 0.1536,0.1421 0.2311,0.2124 0.079,0.072 0.1548,0.1463 0.2339,0.218 0.061,0.056 0.117,0.1142 0.178,0.17 0.082,0.075 0.1622,0.1513 0.2445,0.2258 0.064,0.058 0.1265,0.1197 0.1912,0.178 0.083,0.076 0.1614,0.1557 0.2445,0.2312 0.1728,0.1592 0.3412,0.3231 0.5154,0.4809 0.044,0.041 0.086,0.082 0.1306,0.1224 0.1088,0.099 0.2145,0.2037 0.3242,0.303 0.08,0.073 0.1586,0.1476 0.239,0.2205 0.075,0.068 0.1458,0.1394 0.2205,0.2072 0.084,0.077 0.1653,0.1571 0.2498,0.2338 0.087,0.08 0.1704,0.1626 0.2578,0.2417 0.088,0.082 0.1741,0.1664 0.2629,0.2472 0.1061,0.097 0.2077,0.1963 0.3136,0.2922 0.073,0.068 0.1462,0.1373 0.2205,0.2046 0.1006,0.093 0.199,0.1872 0.3002,0.279 0.094,0.087 0.1843,0.1771 0.279,0.2631 0.095,0.087 0.1865,0.1767 0.2816,0.2629 0.097,0.088 0.1895,0.1827 0.287,0.271 0.1075,0.098 0.2116,0.1978 0.3189,0.2949 0.09,0.083 0.1776,0.1676 0.2682,0.2498 0.1007,0.093 0.1969,0.1876 0.2977,0.279 0.1115,0.102 0.2197,0.209 0.332,0.3108 0.1034,0.095 0.2042,0.1927 0.3083,0.2871 0.095,0.087 0.186,0.1789 0.2816,0.2657 0.117,0.1074 0.2306,0.2176 0.3481,0.324 0.1156,0.1061 0.2287,0.2159 0.3454,0.3216 0.091,0.084 0.179,0.1716 0.271,0.255 0.1292,0.1184 0.2529,0.2412 0.3825,0.3586 0.1034,0.095 0.2042,0.1928 0.3082,0.287 0.113,0.1034 0.2215,0.2108 0.3348,0.3136 0.1252,0.1143 0.2461,0.234 0.3719,0.348 0.1157,0.1061 0.2288,0.2159 0.3454,0.3214 0.1089,0.1007 0.2147,0.2035 0.3242,0.303 0.1292,0.1183 0.253,0.2412 0.3827,0.3587 0.121,0.1102 0.2373,0.2249 0.3585,0.3348 0.1238,0.1129 0.2427,0.2303 0.3668,0.3426 0.1319,0.1211 0.2602,0.2464 0.3931,0.3666 0.1075,0.099 0.2107,0.2023 0.3189,0.3003 0.1445,0.1333 0.285,0.2696 0.4304,0.4013 0.1279,0.117 0.2517,0.2371 0.3799,0.3533 0.1211,0.1101 0.2376,0.2248 0.3588,0.3347 0.1402,0.1293 0.2758,0.2627 0.417,0.3906 0.1238,0.1143 0.2423,0.2326 0.3668,0.3454 0.1416,0.1306 0.2797,0.264 0.4224,0.3932 0.1346,0.1238 0.2651,0.254 0.4011,0.3774 0.1372,0.1265 0.2713,0.2548 0.4092,0.3799 0.1464,0.1347 0.2884,0.2731 0.4357,0.4065 0.1293,0.1197 0.2548,0.243 0.3853,0.3613 0.1508,0.1388 0.2971,0.2823 0.449,0.4198 0.1333,0.1224 0.2639,0.2499 0.3986,0.3719 0.1517,0.1396 0.2987,0.2841 0.4516,0.4226 0.1445,0.1333 0.285,0.2694 0.4305,0.4011 0.1384,0.1279 0.2724,0.259 0.4117,0.3853 0.1574,0.1447 0.3092,0.2949 0.4677,0.4384 0.149,0.137 0.2936,0.2785 0.4437,0.4145 0.1527,0.1404 0.3005,0.2858 0.4543,0.4251 0.1518,0.1396 0.2988,0.2839 0.4517,0.4224 0.1619,0.1489 0.3178,0.304 0.4809,0.4516 0.1462,0.1347 0.2884,0.2732 0.4357,0.4066 0.1656,0.1524 0.3273,0.3085 0.4942,0.4597 0.1494,0.1374 0.2932,0.2807 0.4438,0.4171 0.1677,0.1545 0.3303,0.3145 0.4994,0.4675 0.1606,0.1479 0.3165,0.3 0.4783,0.4465 0.1624,0.1493 0.3199,0.3035 0.4836,0.4516 0.1632,0.1503 0.3217,0.3054 0.4861,0.4543 0.1737,0.16 0.343,0.325 0.5182,0.4836 0.1586,0.146 0.313,0.2963 0.4728,0.4411 0.1678,0.1545 0.3306,0.3145 0.4996,0.4675 0.1783,0.1645 0.3515,0.3341 0.5313,0.4969 0.1623,0.1494 0.3201,0.3035 0.4836,0.4517 0.1802,0.1661 0.3549,0.3376 0.5367,0.5021 0.1748,0.161 0.3445,0.3267 0.5207,0.4863 0.1748,0.1609 0.3447,0.3267 0.5209,0.4862 0.1768,0.1631 0.3475,0.3326 0.526,0.4942 0.1774,0.1635 0.3497,0.332 0.5286,0.4941 0.1895,0.1746 0.3749,0.3532 0.5661,0.5261 0.1714,0.158 0.3372,0.3218 0.5101,0.4782 0.1819,0.1679 0.3584,0.3413 0.5419,0.5075 0.1917,0.1769 0.3778,0.359 0.5713,0.534 0.1765,0.1628 0.3481,0.3304 0.526,0.4916 0.1967,0.1815 0.3888,0.3677 0.5873,0.5473 0.1866,0.1722 0.367,0.3504 0.5552,0.5207 0.1823,0.1683 0.3582,0.3436 0.542,0.5101 0.2072,0.1914 0.4099,0.3874 0.6191,0.5767 0.1834,0.1691 0.3624,0.3426 0.5473,0.5101 0.1934,0.1785 0.3814,0.3627 0.5766,0.5392 0.2039,0.1884 0.4024,0.3824 0.6083,0.5687 0.1977,0.1824 0.3905,0.3696 0.5899,0.5499 0.1878,0.1735 0.3711,0.3518 0.5606,0.5235 0.2004,0.185 0.393,0.3775 0.5951,0.5606 0.2177,0.2012 0.4311,0.407 0.6511,0.6057 0.1855,0.1713 0.3654,0.3487 0.5525,0.5182 0.2127,0.1966 0.4203,0.3982 0.6351,0.5924 0.2052,0.1897 0.4038,0.3865 0.611,0.5739 0.2132,0.197 0.4224,0.3978 0.6377,0.5925 0.1988,0.1836 0.3918,0.3737 0.5925,0.5553 0.2186,0.2022 0.4327,0.4087 0.6536,0.6084 0.2016,0.1864 0.397,0.379 0.6005,0.5634 0.2217,0.205 0.4374,0.4164 0.6615,0.6189 0.2049,0.1894 0.4043,0.384 0.6111,0.5714 0.2244,0.2075 0.4427,0.4218 0.6695,0.6269 0.2173,0.201 0.4288,0.4073 0.6483,0.6058 0.2172,0.2008 0.429,0.4074 0.6484,0.6057 0.2179,0.2019 0.4304,0.4091 0.6509,0.6085 0.2294,0.2124 0.4534,0.4307 0.6855,0.6403 0.2135,0.1976 0.4218,0.4 0.6376,0.5952 0.2239,0.2073 0.4406,0.4222 0.6669,0.627 0.2342,0.2168 0.462,0.4396 0.6987,0.6536 0.2241,0.2073 0.4432,0.4197 0.6696,0.6244 0.2227,0.2061 0.4392,0.4182 0.6642,0.6217 0.2363,0.219 0.4677,0.4429 0.7067,0.6589 0.2392,0.2215 0.4729,0.4484 0.7147,0.6669 0.2218,0.2051 0.4376,0.4165 0.6616,0.619 0.2331,0.2159 0.4604,0.4378 0.6962,0.651 0.2436,0.2258 0.4814,0.4573 0.7279,0.6801 0.2272,0.2105 0.448,0.4273 0.6776,0.635 0.2398,0.2224 0.4746,0.4502 0.7173,0.6696 0.2482,0.2302 0.4901,0.4664 0.7412,0.6935 0.2401,0.2224 0.4745,0.45 0.7175,0.6694 0.2326,0.2156 0.4581,0.4382 0.6933,0.6511 0.2541,0.2356 0.5028,0.4769 0.7599,0.7092 0.2525,0.234 0.4991,0.4736 0.7546,0.7042 0.2355,0.2182 0.466,0.441 0.7041,0.6562 0.2491,0.2311 0.4919,0.4682 0.744,0.6962 0.2493,0.2314 0.4915,0.4705 0.7439,0.6987 0.2573,0.2388 0.5099,0.4821 0.7705,0.7174 0.2514,0.2332 0.4974,0.4715 0.7519,0.7014 0.2466,0.2289 0.4863,0.4651 0.7359,0.6908 0.2633,0.2444 0.52,0.4951 0.7864,0.7359 0.249,0.2311 0.4921,0.4684 0.744,0.6962 0.2641,0.2452 0.5217,0.497 0.7891,0.7386 0.2687,0.2495 0.5329,0.5036 0.8051,0.7492 0.2507,0.2327 0.4954,0.4721 0.7493,0.7014 0.2617,0.2433 0.5159,0.4938 0.7811,0.7334 0.2652,0.2465 0.5256,0.4984 0.7944,0.7412 0.2805,0.2607 0.5552,0.5273 0.8396,0.7839 0.248,0.2301 0.4901,0.4663 0.7412,0.6935 0.2659,0.247 0.5251,0.5003 0.7945,0.7438 0.2804,0.2609 0.5551,0.5271 0.8396,0.7838 0.2699,0.251 0.5341,0.5074 0.8076,0.7546 0.2728,0.2534 0.5394,0.513 0.8157,0.7625 0.2795,0.2598 0.5536,0.5256 0.8369,0.7811 0.2658,0.247 0.5252,0.5007 0.7944,0.7439 0.2745,0.2554 0.5429,0.5165 0.8209,0.7679 0.2864,0.2664 0.568,0.5376 0.8583,0.7998 0.2721,0.2529 0.5373,0.5134 0.8131,0.7624 0.2866,0.2668 0.5674,0.54 0.8581,0.8025 0.2821,0.2624 0.5588,0.5308 0.8449,0.789 0.2822,0.2627 0.5587,0.5308 0.8449,0.7891 0.2848,0.2652 0.564,0.5363 0.8529,0.7972 0.2847,0.265 0.564,0.5362 0.8528,0.797 0.2876,0.2679 0.5692,0.5416 0.8608,0.8051 0.288,0.2681 0.5689,0.5438 0.8608,0.8076 0.2918,0.2718 0.5783,0.5485 0.8742,0.8156 0.3009,0.2804 0.5953,0.5668 0.9007,0.8424 0.2913,0.2711 0.5761,0.549 0.8714,0.8156 0.2865,0.2665 0.5679,0.5375 0.8582,0.7998 0.3054,0.2845 0.6042,0.5758 0.914,0.8555 0.2965,0.276 0.5868,0.5574 0.8874,0.829 0.2959,0.2754 0.5847,0.558 0.8847,0.8288 0.3091,0.2881 0.6136,0.5805 0.9274,0.8636 0.2861,0.2665 0.5653,0.5402 0.8555,0.8024 0.3174,0.2962 0.6286,0.5993 0.9512,0.89 0.2979,0.2779 0.5903,0.5612 0.8926,0.8343 0.3112,0.2902 0.6166,0.5864 0.9326,0.8715 0.3007,0.2804 0.5956,0.5666 0.9007,0.8422 0.3175,0.2963 0.6286,0.5991 0.9512,0.8901 0.3093,0.2884 0.6133,0.5827 0.9272,0.8661 0.312,0.291 0.6184,0.5883 0.9353,0.8741 0.3178,0.2967 0.6308,0.5989 0.9538,0.8901 0.2983,0.2782 0.5901,0.5635 0.8928,0.8369 0.3328,0.3111 0.6605,0.6275 0.9989,0.9326 0.3077,0.2869 0.6097,0.579 0.922,0.8609 0.3282,0.3066 0.6493,0.621 0.983,0.9219 0.3094,0.2886 0.6132,0.5826 0.9273,0.8661 0.3311,0.3095 0.6572,0.6238 0.9936,0.9273 0.3117,0.2909 0.6162,0.5884 0.9326,0.8742 0.3407,0.3184 0.6765,0.6415 1.0229,0.9537 0.318,0.2968 0.6309,0.5987 0.9539,0.8901 0.3264,0.3051 0.646,0.6173 0.9778,0.9167 0.3371,0.3149 0.6694,0.6341 1.0122,0.9431 0.3175,0.2964 0.6287,0.599 0.9511,0.8901 0.3273,0.3061 0.6478,0.6189 0.9804,0.9193 0.3537,0.331 0.7029,0.6667 1.0629,0.991 0.321,0.3 0.6355,0.6063 0.9617,0.9007 0.3409,0.3189 0.6762,0.6438 1.023,0.9564 0.3297,0.3084 0.6531,0.6223 0.9883,0.9247 0.3504,0.3279 0.6955,0.6616 1.0522,0.9831 0.3269,0.3056 0.6481,0.6168 0.9804,0.9166 0.3557,0.3331 0.7059,0.6727 1.068,0.999 0.3348,0.313 0.664,0.6308 1.0043,0.9378 0.344,0.322 0.681,0.6516 1.0309,0.9672 0.3511,0.3287 0.6976,0.661 1.0548,0.983 0.3395,0.3178 0.6723,0.6423 1.0177,0.9539 0.3531,0.3308 0.7005,0.6669 1.0601,0.991 0.3522,0.3298 0.6988,0.6652 1.0574,0.9884 0.3478,0.3255 0.6902,0.6559 1.0441,0.9751 0.354,0.3316 0.7024,0.6687 1.0627,0.9936 0.3547,0.3322 0.7046,0.6684 1.0655,0.9937 0.3596,0.3369 0.7125,0.6798 1.0787,1.0096 0.342,0.3204 0.6776,0.6478 1.0256,0.9618 0.3746,0.3515 0.7447,0.7083 1.1265,1.0522 0.3521,0.3299 0.6989,0.6652 1.0575,0.9883 0.3662,0.3433 0.7269,0.6921 1.0999,1.0283 0.3585,0.336 0.711,0.678 1.0761,1.0069 0.3666,0.3439 0.7291,0.6917 1.1025,1.0283 0.3621,0.3395 0.718,0.6852 1.0868,1.0175 0.3674,0.3448 0.7308,0.6935 1.1053,1.0309 0.3678,0.3452 0.7303,0.6958 1.1052,1.0335 0.374,0.3509 0.7428,0.7063 1.1238,1.0495 0.3581,0.3358 0.7089,0.6782 1.0735,1.007 0.3859,0.3625 0.7675,0.7296 1.161,1.084 0.3697,0.3469 0.7339,0.6995 1.1106,1.0389 0.3719,0.3491 0.7396,0.7026 1.1186,1.0442 0.3814,0.3582 0.7562,0.723 1.1451,1.0733 0.3764,0.3534 0.7481,0.7119 1.1318,1.0575 0.3785,0.3553 0.7515,0.7152 1.1371,1.0627 0.3861,0.3627 0.7675,0.7296 1.1612,1.0841 0.3654,0.343 0.7249,0.6924 1.0972,1.0281 0.4008,0.3771 0.7972,0.7584 1.2063,1.1266 0.3789,0.3559 0.7534,0.7173 1.1398,1.0655 0.3897,0.3662 0.7743,0.7367 1.1716,1.0946 0.3783,0.3553 0.7516,0.7151 1.1373,1.0627 0.4002,0.3766 0.7951,0.7589 1.2035,1.1265 0.3894,0.3661 0.7744,0.737 1.1718,1.0947 0.3877,0.3644 0.7709,0.7332 1.1663,1.0893 0.3926,0.3692 0.7792,0.7445 1.1797,1.1053 0.3954,0.3719 0.7868,0.7472 1.1903,1.1106 0.3958,0.3724 0.7864,0.7495 1.1903,1.1133 0.3965,0.3731 0.7882,0.7514 1.1929,1.1159 0.4062,0.3822 0.8075,0.7692 1.2222,1.1424 0.3964,0.3728 0.7883,0.7491 1.1929,1.1133 0.3922,0.369 0.7769,0.7446 1.1771,1.1052 0.4141,0.3902 0.8257,0.7831 1.2486,1.1638 0.4039,0.3801 0.802,0.766 1.2143,1.1371 0.4017,0.3781 0.7989,0.76 1.2089,1.1292 0.4088,0.385 0.8127,0.7746 1.2302,1.1505 0.4041,0.3807 0.8041,0.7654 1.2168,1.1371 0.4191,0.395 0.8337,0.7944 1.262,1.1797 0.4043,0.3807 0.8041,0.7654 1.2169,1.1371 0.4151,0.3913 0.8247,0.7873 1.2487,1.169 0.4183,0.3943 0.8321,0.7926 1.2594,1.177 0.4156,0.3916 0.8269,0.7872 1.2514,1.1691 0.4124,0.3886 0.8196,0.7819 1.2408,1.161 0.4171,0.3936 0.8303,0.7906 1.2567,1.1744 0.423,0.3991 0.8429,0.8012 1.2753,1.1903 0.4152,0.3916 0.8245,0.7898 1.2487,1.1716 0.424,0.4002 0.8446,0.8029 1.278,1.1931 0.4283,0.4042 0.8534,0.8122 1.2913,1.2062 0.4281,0.4038 0.8508,0.8126 1.2886,1.2062 0.4213,0.3975 0.8393,0.7975 1.27,1.185 0.4315,0.4075 0.8578,0.8198 1.2993,1.2169 0.4301,0.4061 0.8566,0.8158 1.2965,1.2115 0.4284,0.4045 0.8531,0.8122 1.2912,1.2062 0.4313,0.4073 0.8581,0.8175 1.2993,1.2143 0.4333,0.4093 0.8614,0.8234 1.3046,1.2221 0.4346,0.4108 0.8651,0.8248 1.3098,1.2248 0.4353,0.4115 0.8671,0.8267 1.3125,1.2276 0.4445,0.4202 0.8866,0.8422 1.3417,1.2514 0.439,0.4146 0.874,0.8317 1.3232,1.2354 0.4312,0.4076 0.8581,0.8199 1.2992,1.2169 0.4493,0.4251 0.8949,0.8536 1.3551,1.2674 0.4324,0.4088 0.862,0.8212 1.3044,1.2194 0.4556,0.4312 0.9071,0.8667 1.3737,1.2859 0.447,0.4229 0.8919,0.8481 1.3497,1.2594 0.4362,0.4126 0.8688,0.8285 1.3151,1.2302 0.4608,0.4364 0.9202,0.8749 1.3922,1.2992 0.4404,0.4166 0.8751,0.838 1.3258,1.2435 0.4553,0.4311 0.9073,0.8638 1.3737,1.2832 0.4565,0.4323 0.9085,0.8682 1.3762,1.2887 0.4489,0.4248 0.8955,0.8513 1.355,1.2647 0.4642,0.4396 0.9247,0.8824 1.4002,1.3098 0.4553,0.431 0.9072,0.8641 1.3737,1.2832 0.4586,0.4344 0.9143,0.8716 1.3843,1.294 0.464,0.4396 0.9245,0.8826 1.4,1.3099 0.4465,0.4226 0.8901,0.8481 1.3472,1.2594 0.4791,0.4546 0.9564,0.9108 1.4479,1.3523 0.4587,0.4343 0.9143,0.8715 1.3843,1.2939 0.4598,0.4359 0.9184,0.8729 1.3896,1.2965 0.4659,0.442 0.9279,0.8885 1.4055,1.3179 0.4697,0.4456 0.9373,0.8928 1.4188,1.3258 0.47,0.4459 0.9369,0.8953 1.4187,1.3284 0.4647,0.4409 0.9265,0.8841 1.4029,1.3126 0.484,0.4595 0.9674,0.9196 1.464,1.3656 0.4696,0.4454 0.9372,0.8931 1.4187,1.3258 0.4741,0.4499 0.946,0.9022 1.4322,1.3391 0.4785,0.4544 0.9542,0.9113 1.4453,1.3523 0.4817,0.4574 0.9616,0.9165 1.456,1.3604 0.4694,0.4455 0.9374,0.893 1.4187,1.3257 0.4879,0.4636 0.9739,0.9292 1.4746,1.379 0.4768,0.4527 0.951,0.9075 1.44,1.347 0.4902,0.4658 0.9793,0.9325 1.4827,1.3843 0.483,0.4588 0.9627,0.9204 1.4585,1.3656 0.4855,0.4613 0.9683,0.9262 1.4667,1.3737 0.4869,0.4627 0.972,0.9273 1.4719,1.3763 0.4915,0.4672 0.9831,0.9337 1.4878,1.3868 0.4865,0.4624 0.9699,0.9278 1.4693,1.3763 0.4945,0.4702 0.988,0.9417 1.4958,1.3976 0.4868,0.4626 0.9724,0.9273 1.4721,1.3762 0.4981,0.4741 0.9946,0.9486 1.5064,1.4083 0.4995,0.4751 0.9985,0.9501 1.5117,1.4108 0.4968,0.4724 0.9909,0.9474 1.5012,1.4055 0.4921,0.4682 0.9824,0.938 1.4879,1.3921 0.4987,0.4749 0.9966,0.9506 1.5092,1.4108 0.5053,0.4816 1.0104,0.963 1.5303,1.4295 0.5049,0.4808 1.0086,0.9635 1.5277,1.4294 0.4942,0.4704 0.9881,0.9415 1.4958,1.3975 0.5122,0.4882 1.025,0.9753 1.5516,1.4481 0.5018,0.4781 1.0014,0.9582 1.5172,1.4214 0.5157,0.4916 1.0317,0.9827 1.5622,1.4587 0.5032,0.4793 1.0052,0.9595 1.5224,1.424 0.5056,0.4822 1.0106,0.9651 1.5303,1.4321 0.5281,0.5039 1.0559,1.0084 1.5995,1.4958 0.4955,0.4719 0.9895,0.9455 1.4986,1.4028 0.5257,0.5021 1.0529,1.0023 1.5941,1.488 0.5238,0.4995 1.0471,0.9993 1.5862,1.4825 0.5085,0.4848 1.0154,0.9707 1.5383,1.44 0.523,0.4991 1.0452,0.9971 1.5835,1.4799 0.5238,0.4997 1.0472,0.9993 1.5862,1.4826 0.5173,0.4934 1.0352,0.9864 1.5676,1.4639 0.522,0.4983 1.0435,0.9952 1.5809,1.4773 0.5183,0.4949 1.0367,0.9904 1.5702,1.4692 0.5371,0.5134 1.0752,1.0264 1.6286,1.5225 0.5187,0.495 1.0364,0.9902 1.5702,1.4693 0.5268,0.5033 1.0546,1.0064 1.5969,1.4931 0.5376,0.514 1.0774,1.0257 1.6314,1.5225 0.5219,0.4987 1.0433,0.9975 1.5808,1.4799 0.539,0.5155 1.0786,1.0295 1.634,1.5276 0.5337,0.5103 1.0682,1.0187 1.618,1.5118 0.5352,0.5117 1.072,1.0225 1.6234,1.5172 0.5398,0.5162 1.0803,1.0315 1.6367,1.5303 0.5369,0.5136 1.0753,1.0263 1.6287,1.5224 0.5377,0.5145 1.077,1.028 1.6313,1.5251 0.5486,0.525 1.0974,1.05 1.6632,1.5569 0.5318,0.5086 1.0648,1.015 1.6128,1.5065 0.5486,0.5253 1.0974,1.0497 1.6631,1.5569 0.547,0.5236 1.0966,1.0436 1.6606,1.5491 0.5468,0.5233 1.0941,1.0463 1.658,1.5515 0.5404,0.5175 1.082,1.0334 1.6393,1.533 0.5478,0.5251 1.0982,1.0476 1.6631,1.5543 0.5487,0.5259 1.1,1.0494 1.6659,1.5569 0.5515,0.5288 1.105,1.0548 1.6739,1.565 0.5614,0.5385 1.1236,1.0749 1.7031,1.5941 0.5561,0.5332 1.1131,1.0641 1.6871,1.5783 0.5521,0.529 1.1069,1.0544 1.6765,1.5649 0.5516,0.5291 1.1046,1.0572 1.6739,1.5675 0.5626,0.5401 1.13,1.0762 1.711,1.5968 0.5662,0.5433 1.1343,1.0838 1.7191,1.6075 0.556,0.5331 1.1131,1.0639 1.6871,1.5781 0.5666,0.5438 1.1365,1.0836 1.7216,1.6076 0.5592,0.5366 1.1204,1.0714 1.6979,1.5887 0.5678,0.5453 1.1403,1.0873 1.7269,1.6128 0.566,0.5433 1.1344,1.0838 1.7191,1.6074 0.5703,0.5479 1.1428,1.093 1.7322,1.6207 0.5726,0.55 1.1485,1.0964 1.7403,1.626 0.5657,0.5433 1.1345,1.084 1.719,1.6075 0.5736,0.5511 1.1502,1.0979 1.7429,1.6286 0.5741,0.5516 1.1498,1.1002 1.743,1.6314 0.5693,0.5472 1.1413,1.091 1.7297,1.618 0.5796,0.5578 1.1647,1.1106 1.764,1.6474 0.5775,0.5551 1.1567,1.1074 1.7537,1.6419 0.5774,0.5554 1.1591,1.1046 1.7561,1.6394 0.5846,0.5625 1.1729,1.122 1.7776,1.6631 0.5772,0.5553 1.1566,1.1076 1.7535,1.6419 0.5883,0.5666 1.182,1.1265 1.7907,1.6713 0.5749,0.5531 1.1539,1.1015 1.7483,1.6339 0.5881,0.5668 1.1796,1.129 1.788,1.6739 0.5881,0.5665 1.1825,1.1265 1.7908,1.6712 0.5949,0.5731 1.1937,1.1417 1.8094,1.6925 0.5864,0.5647 1.176,1.1254 1.7828,1.6685 0.5891,0.5676 1.1837,1.1281 1.7934,1.6739 0.5887,0.5674 1.1814,1.131 1.7907,1.6765 0.5927,0.5716 1.1906,1.1375 1.8041,1.6872 0.5993,0.5781 1.2044,1.15 1.8253,1.7057 0.6042,0.5828 1.2152,1.1593 1.8412,1.7189 0.5907,0.5693 1.1847,1.1348 1.796,1.6819 0.5993,0.578 1.2048,1.1478 1.8253,1.703 0.596,0.5752 1.1948,1.1452 1.8121,1.6979 0.6081,0.5872 1.2215,1.1684 1.8519,1.7322 0.6017,0.5808 1.2099,1.1533 1.8332,1.7111 0.6052,0.5845 1.2139,1.1632 1.8413,1.7243 0.6088,0.5881 1.2234,1.168 1.8544,1.7323 0.6096,0.5887 1.2253,1.17 1.8573,1.7349 0.6044,0.5838 1.2148,1.1615 1.8412,1.7217 0.6081,0.5877 1.2213,1.1684 1.8518,1.7324 0.6085,0.5882 1.2236,1.1677 1.8546,1.7322 0.617,0.5969 1.2409,1.1865 1.881,1.7589 0.6051,0.5851 1.2167,1.1629 1.844,1.7244 0.6259,0.6059 1.2579,1.2046 1.9076,1.7854 0.6108,0.5907 1.229,1.1736 1.8625,1.7403 0.6272,0.6071 1.2619,1.2064 1.913,1.788 0.6083,0.5883 1.2236,1.1706 1.8545,1.735 0.6249,0.6054 1.2587,1.2027 1.9076,1.7827 0.6264,0.6066 1.2599,1.2045 1.9103,1.7855 0.61,0.5904 1.2272,1.1715 1.8599,1.7377 0.6418,0.6223 1.2911,1.235 1.9582,1.8306 0.614,0.5944 1.2357,1.181 1.873,1.7509 0.6382,0.6186 1.2844,1.2305 1.9476,1.8225 0.6191,0.5997 1.2463,1.1897 1.889,1.7643 0.6284,0.6095 1.2655,1.2097 1.9183,1.7934 0.6297,0.6109 1.2668,1.2137 1.9209,1.7987 0.6374,0.6186 1.285,1.2253 1.9475,1.8174 0.6351,0.6159 1.2771,1.2251 1.937,1.8147 0.6316,0.6128 1.2724,1.2146 1.9288,1.8013 0.6439,0.6251 1.2967,1.2408 1.9662,1.8385 0.6301,0.6116 1.2688,1.2136 1.9235,1.7988 0.6458,0.6274 1.3024,1.244 1.9742,1.8439 0.6303,0.612 1.2683,1.2156 1.9236,1.8014 0.6561,0.638 1.3228,1.2636 2.006,1.8732 0.6286,0.6102 1.2648,1.2117 1.9182,1.796 0.6494,0.6317 1.3116,1.2507 1.9874,1.8545 0.6439,0.6261 1.296,1.2426 1.9661,1.8413 0.6552,0.6373 1.3212,1.2615 2.0033,1.8704 0.6473,0.6293 1.303,1.2479 1.9768,1.8491 0.6438,0.6263 1.2986,1.2427 1.9687,1.8414 0.6551,0.6377 1.3211,1.2639 2.0033,1.873 0.6499,0.6326 1.3107,1.2529 1.9873,1.8572 0.6608,0.6434 1.331,1.2749 2.0193,1.8891 0.6499,0.6324 1.3107,1.253 1.9873,1.8571 0.6542,0.6374 1.3194,1.2622 2.0007,1.8704 0.6564,0.6399 1.3248,1.2677 2.0087,1.8785 0.6649,0.6484 1.3421,1.2812 2.0352,1.8997 0.6514,0.6349 1.314,1.2589 1.9926,1.8652 0.6766,0.6603 1.3664,1.3074 2.0725,1.9368 0.6532,0.6364 1.3173,1.2603 1.9979,1.8679 0.6713,0.6549 1.3536,1.2964 2.0538,1.9209 0.6636,0.6472 1.3406,1.2824 2.0325,1.8998 0.6727,0.6562 1.3573,1.298 2.0591,1.9235 0.6626,0.6461 1.3364,1.2807 2.0272,1.8971 0.6604,0.6444 1.3334,1.2767 2.022,1.8917 0.676,0.6608 1.3667,1.3071 2.0723,1.9368 0.6726,0.6572 1.3572,1.3001 2.0592,1.9263 0.6725,0.6573 1.3598,1.2999 2.0617,1.9262 0.6706,0.6557 1.3565,1.2961 2.0564,1.9209 0.6833,0.6686 1.3799,1.3217 2.0937,1.9582 0.6784,0.6633 1.3719,1.3132 2.0804,1.9449 0.6766,0.6617 1.3658,1.3093 2.0723,1.9396 0.6859,0.6709 1.3877,1.3275 2.1043,1.9661 0.673,0.658 1.3593,1.3021 2.0617,1.9288 0.6885,0.6742 1.3928,1.3301 2.1122,1.9715 0.675,0.6605 1.365,1.3078 2.0698,1.9369 0.6925,0.6786 1.4015,1.3392 2.1255,1.9847 0.6856,0.6714 1.3851,1.3273 2.1016,1.9661 0.6938,0.6796 1.4028,1.3437 2.1282,1.99 0.6904,0.6761 1.3957,1.3365 2.1175,1.9794 0.6889,0.6745 1.3922,1.3352 2.1124,1.9767 0.6846,0.671 1.3859,1.3253 2.1015,1.9634 0.6967,0.6834 1.41,1.3487 2.1389,1.9981 0.6938,0.6806 1.4024,1.3432 2.1281,1.99 0.7038,0.6907 1.4233,1.3661 2.1601,2.0219 0.7008,0.6872 1.4185,1.356 2.152,2.0087 0.6942,0.6804 1.402,1.346 2.1283,1.9926 0.6906,0.6777 1.3976,1.3406 2.1202,1.9847 0.6991,0.687 1.4176,1.3535 2.1495,2.006 0.7063,0.6945 1.4308,1.3706 2.1707,2.0298 0.7114,0.6993 1.4411,1.3798 2.1866,2.0433 0.6973,0.6848 1.4113,1.3528 2.1414,2.0032 0.7045,0.6928 1.4274,1.367 2.1654,2.0246 0.7064,0.6951 1.4305,1.3703 2.1707,2.0299 0.7163,0.7049 1.4542,1.3906 2.2052,2.059 0.7006,0.6893 1.4183,1.36 2.1521,2.014 0.7171,0.7064 1.4532,1.3921 2.2052,2.0617 0.7138,0.7027 1.4463,1.3849 2.1946,2.0512 0.7118,0.7007 1.4432,1.3813 2.1894,2.0458 0.7141,0.7036 1.4482,1.3868 2.1972,2.0537 0.7205,0.7104 1.4597,1.3996 2.2158,2.0725 0.718,0.7074 1.4548,1.3941 2.208,2.0643 0.72,0.7098 1.4602,1.4002 2.2158,2.0725 0.7186,0.7083 1.4565,1.396 2.2106,2.067 0.7192,0.7096 1.4583,1.3978 2.2131,2.0698 0.7311,0.7215 1.4826,1.4215 2.2504,2.1043 0.7089,0.6991 1.4379,1.3751 2.1813,2.0378 0.7391,0.7306 1.5002,1.4373 2.2771,2.1282 0.7254,0.7161 1.4724,1.4105 2.2343,2.0883 0.7258,0.7167 1.4723,1.4128 2.2345,2.0909 0.7369,0.7284 1.4945,1.4345 2.2691,2.123 0.7303,0.7212 1.4829,1.4193 2.2504,2.1015 0.7241,0.7154 1.4683,1.4088 2.2291,2.0857 0.7397,0.7317 1.5017,1.4394 2.2796,2.1308 0.74,0.7316 1.5041,1.4396 2.2823,2.1309 0.7289,0.7204 1.4788,1.4204 2.2451,2.1016 0.737,0.7295 1.4964,1.4363 2.2716,2.1255 0.7356,0.7282 1.4953,1.4321 2.2691,2.1202 0.7454,0.7385 1.5135,1.4522 2.2981,2.1495 0.7394,0.7321 1.5017,1.4393 2.2797,2.1308 0.7435,0.7368 1.5102,1.4486 2.2928,2.1442 0.7516,0.7446 1.5281,1.4629 2.3195,2.1653 0.7343,0.727 1.4912,1.4308 2.2638,2.1175 0.7559,0.75 1.5361,1.4716 2.3327,2.1788 0.7374,0.7306 1.4983,1.4381 2.2743,2.1281 0.7542,0.7488 1.5326,1.4701 2.3274,2.1761 0.7501,0.7441 1.5266,1.4634 2.3169,2.1654 0.7591,0.7533 1.5429,1.4819 2.3434,2.1919 0.7419,0.7357 1.5088,1.4445 2.2902,2.1387 0.7521,0.7474 1.5293,1.4689 2.3221,2.1734 0.756,0.7516 1.5384,1.4758 2.3354,2.184 0.7541,0.7497 1.5352,1.4722 2.3302,2.1786 0.7646,0.7608 1.5577,1.4942 2.3646,2.2106 0.7588,0.7544 1.5456,1.4815 2.3461,2.192 0.7567,0.7525 1.5397,1.4776 2.3381,2.1866 0.7664,0.7629 1.5607,1.4979 2.37,2.2158 0.7566,0.7529 1.5396,1.4778 2.338,2.1867 0.769,0.7661 1.5683,1.5031 2.3806,2.2238 0.7658,0.7625 1.5585,1.4957 2.3672,2.2132 0.7577,0.7547 1.5437,1.4815 2.3435,2.192 0.7795,0.7776 1.5883,1.5249 2.4124,2.2557 0.7636,0.7606 1.5557,1.4923 2.3621,2.2078 0.7748,0.773 1.5799,1.5161 2.3991,2.2424 0.7631,0.7609 1.5559,1.4924 2.3621,2.208 0.7706,0.7695 1.5712,1.511 2.3859,2.2345 0.7808,0.7803 1.5941,1.5282 2.4204,2.261 0.7731,0.7718 1.5764,1.5146 2.3938,2.2398 0.7744,0.7736 1.5802,1.5155 2.3992,2.2423 0.7785,0.7783 1.5887,1.5223 2.4124,2.2532 0.7841,0.7841 1.5984,1.5358 2.4285,2.2716 0.7765,0.7761 1.5829,1.5189 2.4045,2.2477 0.7863,0.7867 1.6063,1.5416 2.439,2.2796 0.7843,0.7845 1.6004,1.5358 2.4312,2.2717 0.7872,0.7876 1.6049,1.5438 2.4389,2.2823 0.7798,0.7798 1.5923,1.5267 2.4179,2.2583 0.7913,0.7925 1.6161,1.5501 2.455,2.293 0.7869,0.7878 1.6049,1.5437 2.4389,2.2822 0.7909,0.7922 1.6139,1.5507 2.4524,2.2929 0.7943,0.7956 1.6206,1.5582 2.4629,2.3036 0.7894,0.7906 1.6127,1.5468 2.4497,2.2875 0.7929,0.7949 1.6194,1.5566 2.4603,2.3009 0.7996,0.8018 1.6304,1.5691 2.4788,2.3195 0.801,0.8027 1.6368,1.571 2.487,2.3222 0.7947,0.7962 1.6196,1.5581 2.4629,2.3035 0.7986,0.8008 1.6311,1.5675 2.4789,2.3168 0.8042,0.8068 1.6433,1.5811 2.4974,2.3354 0.8002,0.8023 1.6346,1.5691 2.4843,2.3195 0.8042,0.8068 1.6406,1.5812 2.4948,2.3354 0.8084,0.8111 1.649,1.5856 2.5081,2.3435 0.8068,0.8091 1.6456,1.5846 2.5029,2.3407 0.808,0.8106 1.6491,1.586 2.508,2.3433 0.8062,0.8089 1.646,1.5852 2.5029,2.3407 0.8136,0.8169 1.664,1.5995 2.5293,2.3621 0.8079,0.8108 1.6465,1.5889 2.5055,2.3461 0.821,0.8246 1.6767,1.6141 2.5506,2.3831 0.8133,0.816 1.6589,1.598 2.5241,2.3594 0.8106,0.8136 1.6537,1.5947 2.5161,2.3541 0.8128,0.8164 1.6617,1.5974 2.5266,2.3592 0.8211,0.8256 1.6763,1.6165 2.5507,2.3859 0.8186,0.823 1.6709,1.6109 2.5427,2.378 0.8242,0.8288 1.683,1.6191 2.5613,2.3912 0.8186,0.823 1.6706,1.611 2.5426,2.378 0.8249,0.8298 1.6847,1.6237 2.5639,2.3965 0.829,0.8339 1.6906,1.6335 2.5746,2.4098 0.8252,0.8297 1.6841,1.624 2.5638,2.3965 0.8263,0.8309 1.6883,1.6258 2.5693,2.3991 0.8291,0.8342 1.6929,1.6338 2.5771,2.4099 0.8288,0.8338 1.6907,1.6314 2.5746,2.4072 0.8279,0.8335 1.6913,1.6317 2.5746,2.4071 0.8341,0.8404 1.7052,1.6418 2.5958,2.423 0.8389,0.8452 1.7105,1.6539 2.6064,2.4391 0.8333,0.8391 1.7008,1.6434 2.5905,2.4232 0.8341,0.8401 1.7024,1.6423 2.5932,2.423 0.8389,0.8457 1.7152,1.6536 2.6117,2.4391 0.8397,0.8464 1.7143,1.6585 2.6117,2.4444 0.8399,0.8465 1.7141,1.6558 2.6117,2.4417 0.8408,0.8477 1.7184,1.6575 2.6171,2.4443 0.8448,0.8522 1.7241,1.6671 2.6277,2.4576 0.8447,0.852 1.7241,1.6674 2.6276,2.4576 0.8449,0.8523 1.7265,1.6675 2.6303,2.4577 0.8468,0.8545 1.7297,1.6709 2.6357,2.4629 0.8502,0.858 1.7362,1.6787 2.6462,2.4737 0.8462,0.8537 1.7275,1.6717 2.6331,2.4628 0.8513,0.8598 1.7399,1.6828 2.6516,2.479 0.8525,0.8609 1.7438,1.6843 2.6569,2.4815 0.8525,0.8611 1.7409,1.6845 2.6542,2.4815 0.8534,0.8622 1.7425,1.689 2.6569,2.487 0.8561,0.8652 1.7499,1.6917 2.6676,2.4921 0.8561,0.8655 1.7497,1.6917 2.6675,2.4922 0.8616,0.8714 1.7592,1.7053 2.6835,2.5107 0.8568,0.8662 1.7513,1.6941 2.6702,2.4949 0.8591,0.8692 1.7564,1.6996 2.6781,2.5027 0.8652,0.8758 1.7679,1.7127 2.6968,2.5216 0.8619,0.8719 1.7611,1.7053 2.6861,2.5107 0.8668,0.8774 1.7711,1.7168 2.7022,2.5267 0.8625,0.8732 1.7623,1.7072 2.6887,2.5134 0.8683,0.8796 1.7744,1.7205 2.7074,2.5321 0.8709,0.8823 1.7818,1.7263 2.718,2.54 0.8669,0.878 1.773,1.7168 2.7047,2.5267 0.8734,0.885 1.7841,1.7323 2.7233,2.5479 0.8742,0.8857 1.7858,1.732 2.726,2.5481 0.8739,0.8854 1.786,1.7321 2.7261,2.5479 0.8726,0.8845 1.7816,1.7306 2.7207,2.5453 0.879,0.8916 1.7981,1.7433 2.7444,2.5639 0.8762,0.8882 1.7909,1.7383 2.734,2.556 0.877,0.8896 1.7923,1.74 2.7366,2.5585 0.8821,0.8954 1.8023,1.7513 2.7527,2.5746 0.8779,0.891 1.796,1.7416 2.7419,2.5612 0.8798,0.8938 1.7989,1.7475 2.7472,2.5693 0.8834,0.8978 1.808,1.7547 2.7605,2.5799 0.8886,0.9032 1.8178,1.7662 2.7764,2.5957 0.8872,0.9015 1.814,1.7626 2.7712,2.5905 0.8888,0.9033 1.8174,1.7667 2.7764,2.5958 0.1306,0.1333 0.2687,0.2593 0.4013,0.3906 h 1041.3156 c 0.9795,0 1.7669,-0.7874 1.7669,-1.7668 V 8326.9777 c -0.7618,-0.7781 -1.5418,-1.5375 -2.3541,-2.2637 -0.8713,-0.906 -1.7728,-1.7815 -2.71,-2.6197 -0.8687,-0.903 -1.7679,-1.7759 -2.7021,-2.6117 -0.8684,-0.9027 -1.7657,-1.7788 -2.6994,-2.6145 -0.8716,-0.9055 -1.7731,-1.7815 -2.7101,-2.6196 -0.8639,-0.897 -1.7552,-1.765 -2.6834,-2.5958 -0.8657,-0.8989 -1.7589,-1.7685 -2.6888,-2.601 -0.8684,-0.9017 -1.7664,-1.7743 -2.6995,-2.6092 -0.8574,-0.889 -1.742,-1.7502 -2.6621,-2.5745 -0.8634,-0.8958 -1.7539,-1.7629 -2.6808,-2.5931 -0.8611,-0.8929 -1.7488,-1.76 -2.6728,-2.5879 -0.8588,-0.8898 -1.7464,-1.7517 -2.6677,-2.5772 -0.8555,-0.8864 -1.7367,-1.7466 -2.6542,-2.5692 -0.8553,-0.8862 -1.7372,-1.7467 -2.6542,-2.5693 -0.8551,-0.8857 -1.7377,-1.7442 -2.6543,-2.5665 -0.8569,-0.8874 -1.7409,-1.7482 -2.6596,-2.5719 -0.8514,-0.881 -1.7287,-1.7376 -2.6409,-2.5559 -0.8512,-0.8806 -1.7291,-1.7353 -2.641,-2.5534 -0.852,-0.8811 -1.731,-1.7371 -2.6435,-2.5559 -0.8468,-0.8751 -1.7187,-1.7263 -2.6251,-2.54 -0.8469,-0.8753 -1.7186,-1.7234 -2.625,-2.5373 -0.8422,-0.8702 -1.7082,-1.7171 -2.6091,-2.5267 -0.8498,-0.8785 -1.726,-1.7311 -2.6357,-2.5481 -0.8392,-0.8665 -1.7037,-1.7068 -2.6011,-2.5133 -0.8449,-0.873 -1.7132,-1.7225 -2.617,-2.5347 -0.8416,-0.8687 -1.7067,-1.7127 -2.6064,-2.5214 -0.8404,-0.8671 -1.7056,-1.7087 -2.6038,-2.5161 -0.837,-0.8634 -1.6962,-1.7038 -2.5905,-2.5082 -0.8378,-0.8641 -1.7005,-1.703 -2.5958,-2.508 -0.8362,-0.8622 -1.6944,-1.7021 -2.5879,-2.5055 -0.8348,-0.8605 -1.6935,-1.6954 -2.585,-2.4976 -0.8313,-0.8564 -1.6845,-1.6907 -2.572,-2.4894 -0.8345,-0.8599 -1.6916,-1.6958 -2.5825,-2.4976 -0.8325,-0.8572 -1.6886,-1.6926 -2.5771,-2.4921 -0.8256,-0.8495 -1.673,-1.6781 -2.5534,-2.4709 -0.8282,-0.8525 -1.6778,-1.6807 -2.5612,-2.4762 -0.8278,-0.852 -1.6758,-1.6811 -2.5587,-2.4763 -0.8254,-0.8493 -1.6731,-1.6753 -2.5532,-2.4683 -0.8207,-0.8441 -1.6627,-1.6664 -2.5373,-2.455 -0.823,-0.8467 -1.6683,-1.672 -2.5453,-2.4629 -0.8242,-0.8476 -1.6723,-1.6739 -2.5506,-2.4656 -0.8213,-0.8438 -1.6626,-1.6665 -2.5375,-2.455 -0.8155,-0.8377 -1.6531,-1.6531 -2.5214,-2.4363 -0.8228,-0.8455 -1.6661,-1.6703 -2.5426,-2.4603 -0.8087,-0.83 -1.6371,-1.6386 -2.4975,-2.4152 -0.8153,-0.8375 -1.6509,-1.6555 -2.5187,-2.4391 -0.8166,-0.8385 -1.655,-1.6545 -2.5241,-2.439 -0.8129,-0.8342 -1.6459,-1.6504 -2.5108,-2.4311 -0.8116,-0.8325 -1.6448,-1.6437 -2.5082,-2.423 -0.8066,-0.8272 -1.6317,-1.6351 -2.4894,-2.4099 -0.8086,-0.8291 -1.638,-1.6385 -2.4976,-2.4151 -0.8069,-0.8275 -1.6343,-1.6347 -2.4921,-2.4098 -0.8052,-0.8252 -1.6286,-1.6311 -2.4842,-2.4046 -0.8048,-0.8247 -1.629,-1.6288 -2.4841,-2.4018 -0.8044,-0.8239 -1.6273,-1.6295 -2.4817,-2.4018 -0.7978,-0.8171 -1.6131,-1.6142 -2.4603,-2.3806 -0.8051,-0.8247 -1.6317,-1.6287 -2.4868,-2.4018 -0.7986,-0.8173 -1.6152,-1.6167 -2.4629,-2.3833 -0.7949,-0.8132 -1.609,-1.6067 -2.4524,-2.37 -0.7976,-0.8163 -1.6138,-1.6173 -2.4603,-2.3831 -0.7939,-0.8122 -1.6074,-1.6051 -2.4496,-2.3674 -0.7954,-0.8135 -1.6086,-1.6063 -2.4524,-2.3699 -0.7923,-0.81 -1.6014,-1.6041 -2.4417,-2.3646 -0.7921,-0.8097 -1.6018,-1.6016 -2.4416,-2.3621 -0.7888,-0.8059 -1.5952,-1.5916 -2.4311,-2.3486 -0.7893,-0.8066 -1.5944,-1.5964 -2.4311,-2.3541 -0.7847,-0.8015 -1.5864,-1.5847 -2.4178,-2.338 -0.7862,-0.8032 -1.5901,-1.5886 -2.423,-2.3435 -0.7852,-0.8017 -1.5862,-1.5869 -2.4179,-2.3407 -0.7871,-0.8035 -1.5919,-1.5906 -2.4258,-2.346 -0.7774,-0.7931 -1.5709,-1.5681 -2.3937,-2.3142 -0.7859,-0.8019 -1.5884,-1.5867 -2.4205,-2.3408 -0.7754,-0.7903 -1.5656,-1.5648 -2.3859,-2.3087 -0.7746,-0.79 -1.5664,-1.5628 -2.386,-2.3063 -0.7849,-0.8007 -1.5867,-1.5848 -2.4177,-2.338 -0.7685,-0.7828 -1.5522,-1.553 -2.3647,-2.2903 -0.7774,-0.7925 -1.5713,-1.5681 -2.3938,-2.3142 -0.772,-0.7861 -1.5618,-1.5576 -2.378,-2.2982 -0.7688,-0.783 -1.5519,-1.5525 -2.3647,-2.2902 -0.769,-0.7832 -1.5544,-1.5496 -2.3672,-2.2877 -0.7685,-0.7823 -1.5526,-1.5501 -2.3647,-2.2875 -0.7679,-0.782 -1.5505,-1.548 -2.3619,-2.285 -0.766,-0.7796 -1.5476,-1.5445 -2.3567,-2.2796 -0.7637,-0.7769 -1.5422,-1.539 -2.3487,-2.2717 -0.769,-0.7823 -1.5523,-1.5501 -2.3647,-2.2875 -0.7581,-0.7705 -1.5326,-1.5313 -2.3327,-2.2584 -0.7599,-0.7723 -1.5387,-1.5323 -2.3407,-2.261 -0.7628,-0.7752 -1.5383,-1.5378 -2.3435,-2.2691 -0.7565,-0.768 -1.5266,-1.5226 -2.3248,-2.2477 -0.7364,-0.7477 -1.4878,-1.4796 -2.2636,-2.1866 -0.7631,-0.777 -1.5406,-1.5382 -2.346,-2.2717 -0.7445,-0.7568 -1.5057,-1.4978 -2.2903,-2.2132 -0.7527,-0.7661 -1.5203,-1.5161 -2.3142,-2.2398 -0.7486,-0.7616 -1.5143,-1.5065 -2.3036,-2.2264 -0.7554,-0.7686 -1.5281,-1.5218 -2.3247,-2.2477 -0.7414,-0.7535 -1.4959,-1.4928 -2.277,-2.2052 -0.7543,-0.7673 -1.5242,-1.5176 -2.3195,-2.2426 -0.7443,-0.7559 -1.5034,-1.4956 -2.2876,-2.2105 -0.7347,-0.7461 -1.4849,-1.4777 -2.2583,-2.1839 -0.7424,-0.755 -1.5004,-1.494 -2.2823,-2.2079 -0.7399,-0.752 -1.4952,-1.4884 -2.2744,-2.2 -0.7304,-0.7422 -1.4791,-1.4678 -2.2477,-2.1707 -0.7454,-0.7582 -1.5051,-1.5011 -2.2902,-2.2184 -0.7297,-0.7414 -1.4774,-1.4659 -2.2451,-2.1681 -0.7431,-0.7555 -1.4998,-1.4956 -2.2823,-2.2105 -0.7339,-0.7452 -1.4808,-1.4756 -2.2531,-2.1813 -0.7222,-0.7333 -1.4618,-1.4492 -2.2211,-2.1442 -0.7393,-0.7515 -1.4936,-1.4858 -2.2717,-2.1972 -0.7223,-0.7332 -1.4592,-1.4491 -2.2185,-2.1442 -0.7274,-0.7389 -1.4696,-1.4622 -2.2344,-2.1626 -0.7261,-0.7378 -1.4685,-1.4582 -2.2319,-2.1575 -0.7257,-0.7372 -1.4662,-1.4612 -2.229,-2.1601 -0.7229,-0.7339 -1.4616,-1.4507 -2.2213,-2.1468 -0.7216,-0.7326 -1.4602,-1.4491 -2.2185,-2.1441 -0.7141,-0.7251 -1.4445,-1.4319 -2.1946,-2.1202 -0.7202,-0.7318 -1.4565,-1.4472 -2.2131,-2.1415 -0.7252,-0.7366 -1.4646,-1.4587 -2.2266,-2.1573 -0.7085,-0.7188 -1.435,-1.4216 -2.1786,-2.1043 -0.7146,-0.7258 -1.4444,-1.434 -2.1946,-2.1228 -0.722,-0.7331 -1.4602,-1.4512 -2.2186,-2.1469 -0.7051,-0.715 -1.4255,-1.4141 -2.1654,-2.0936 -0.704,-0.7146 -1.4241,-1.4119 -2.1627,-2.091 -0.7094,-0.7207 -1.4369,-1.4222 -2.1812,-2.107 -0.7145,-0.7256 -1.4449,-1.4362 -2.1947,-2.1255 -0.6988,-0.709 -1.414,-1.4007 -2.1467,-2.0749 -0.7064,-0.7176 -1.4297,-1.4171 -2.1707,-2.099 -0.7102,-0.7211 -1.4361,-1.427 -2.1814,-2.1123 -0.6934,-0.7032 -1.4042,-1.39 -2.1309,-2.0591 -0.6965,-0.7071 -1.4087,-1.397 -2.1387,-2.0697 -0.707,-0.718 -1.4293,-1.419 -2.1707,-2.1016 -0.6987,-0.7087 -1.4147,-1.3981 -2.1467,-2.0725 -0.7037,-0.7136 -1.4225,-1.4121 -2.1601,-2.0909 -0.6802,-0.6892 -1.3765,-1.3625 -2.0884,-2.0193 -0.6949,-0.7053 -1.4082,-1.3929 -2.1361,-2.0643 -0.6926,-0.7029 -1.4029,-1.3901 -2.1283,-2.0592 -0.6976,-0.7079 -1.4105,-1.3987 -2.1414,-2.0723 -0.6897,-0.6992 -1.3954,-1.3828 -2.1175,-2.0485 -0.6889,-0.6983 -1.3937,-1.3808 -2.1149,-2.0458 -0.6716,-0.6806 -1.3595,-1.3436 -2.0617,-1.9927 -0.6945,-0.705 -1.4064,-1.3931 -2.1336,-2.0644 -0.6823,-0.692 -1.3822,-1.3651 -2.0963,-2.0246 -0.6826,-0.6923 -1.3821,-1.3701 -2.0963,-2.0299 -0.6796,-0.689 -1.3774,-1.3624 -2.0883,-2.0193 -0.6741,-0.6834 -1.3649,-1.3486 -2.0698,-2.0006 -0.6778,-0.6878 -1.3739,-1.358 -2.0829,-2.0138 -0.6784,-0.6884 -1.3736,-1.3604 -2.0831,-2.0167 -0.6739,-0.6835 -1.3653,-1.3485 -2.0696,-2.0007 -0.6758,-0.6853 -1.3687,-1.3547 -2.0751,-2.0085 -0.6712,-0.6805 -1.3603,-1.3435 -2.0619,-1.9928 -0.6713,-0.6807 -1.3599,-1.343 -2.0617,-1.9926 -0.6708,-0.6802 -1.358,-1.3409 -2.0591,-1.99 -0.6679,-0.6771 -1.3506,-1.3385 -2.0484,-1.9848 -0.6598,-0.6686 -1.3383,-1.3194 -2.0273,-1.958 -0.666,-0.6757 -1.35,-1.3344 -2.0458,-1.9795 -0.6714,-0.6808 -1.3602,-1.3455 -2.0618,-1.9953 -0.6613,-0.67 -1.3392,-1.3235 -2.0298,-1.9635 -0.6632,-0.6717 -1.3428,-1.327 -2.0352,-1.9687 -0.6529,-0.6611 -1.3247,-1.305 -2.006,-1.937 -0.6588,-0.6676 -1.3342,-1.3173 -2.0219,-1.9554 -0.6574,-0.6662 -1.3304,-1.316 -2.0165,-1.9528 -0.656,-0.6645 -1.3296,-1.3096 -2.014,-1.9449 -0.655,-0.6636 -1.3252,-1.3104 -2.0087,-1.9449 -0.6438,-0.6522 -1.3052,-1.286 -1.9767,-1.9103 -0.6607,-0.6699 -1.3376,-1.323 -2.0271,-1.9635 -0.6501,-0.6582 -1.3174,-1.2991 -1.9954,-1.9288 -0.6414,-0.6494 -1.3003,-1.2808 -1.9688,-1.9024 -0.6564,-0.6652 -1.329,-1.3138 -2.014,-1.9502 -0.6369,-0.6445 -1.2918,-1.2716 -1.9553,-1.889 -0.653,-0.6615 -1.3224,-1.3067 -2.0034,-1.9395 -0.6346,-0.6422 -1.2865,-1.266 -1.9474,-1.8811 -0.6412,-0.6493 -1.3009,-1.2806 -1.9689,-1.9024 -0.6401,-0.6484 -1.2965,-1.2815 -1.9635,-1.9023 -0.6392,-0.6475 -1.2946,-1.277 -1.9608,-1.897 -0.6394,-0.6477 -1.297,-1.2768 -1.9633,-1.8971 -0.6263,-0.634 -1.2691,-1.2494 -1.921,-1.8572 -0.6382,-0.6467 -1.2934,-1.2775 -1.9582,-1.897 -0.6401,-0.6483 -1.2992,-1.2787 -1.9661,-1.8997 -0.6223,-0.6295 -1.2602,-1.2428 -1.9077,-1.8465 -0.6249,-0.633 -1.2678,-1.2476 -1.9182,-1.8545 -0.6292,-0.6376 -1.2767,-1.2566 -1.9315,-1.8679 -0.6338,-0.6421 -1.2851,-1.2655 -1.9449,-1.8811 -0.6247,-0.6323 -1.2684,-1.248 -1.9184,-1.8544 -0.6171,-0.6249 -1.2524,-1.231 -1.8944,-1.8307 -0.6322,-0.6406 -1.2811,-1.2642 -1.9394,-1.8784 -0.6218,-0.629 -1.261,-1.2403 -1.9077,-1.8439 -0.6124,-0.6195 -1.2419,-1.2224 -1.8784,-1.8173 -0.6192,-0.627 -1.2558,-1.2369 -1.8997,-1.8386 -0.6199,-0.6275 -1.2577,-1.2363 -1.9024,-1.8385 -0.6145,-0.622 -1.245,-1.2257 -1.8837,-1.8227 -0.6163,-0.6239 -1.2511,-1.2291 -1.8918,-1.8279 -0.6044,-0.6118 -1.2265,-1.2058 -1.8544,-1.7935 -0.613,-0.6207 -1.2442,-1.2237 -1.8811,-1.82 -0.6167,-0.6244 -1.2507,-1.2311 -1.8918,-1.8306 -0.603,-0.6101 -1.2228,-1.2017 -1.8491,-1.788 -0.6096,-0.617 -1.2372,-1.214 -1.8705,-1.8068 -0.605,-0.6123 -1.2262,-1.2076 -1.8545,-1.796 -0.6055,-0.6127 -1.2284,-1.2072 -1.8573,-1.7961 -0.6027,-0.61 -1.2232,-1.2019 -1.8491,-1.788 -0.6014,-0.6086 -1.2195,-1.2005 -1.8439,-1.7855 -0.6018,-0.6089 -1.2217,-1.2001 -1.8465,-1.7854 -0.6047,-0.6117 -1.2268,-1.2055 -1.8546,-1.7935 -0.5919,-0.5982 -1.2005,-1.1779 -1.8147,-1.7536 -0.5948,-0.6017 -1.2079,-1.1854 -1.8253,-1.7641 -0.5943,-0.6012 -1.2059,-1.1859 -1.8225,-1.7642 -0.596,-0.6027 -1.2096,-1.187 -1.8281,-1.7668 -0.5841,-0.5905 -1.1851,-1.1639 -1.7907,-1.7324 -0.5941,-0.6011 -1.2062,-1.1831 -1.8226,-1.7615 -0.5924,-0.5991 -1.2002,-1.1822 -1.8147,-1.7589 -0.585,-0.5913 -1.1894,-1.1628 -1.796,-1.7322 -0.5897,-0.5964 -1.1952,-1.177 -1.8068,-1.7509 -0.5794,-0.5856 -1.1768,-1.1524 -1.7774,-1.7164 -0.5836,-0.5902 -1.1831,-1.164 -1.7881,-1.7323 -0.5826,-0.5892 -1.1841,-1.1596 -1.7881,-1.727 -0.5745,-0.5809 -1.1664,-1.1434 -1.7615,-1.7031 -0.5865,-0.5931 -1.1908,-1.1691 -1.7988,-1.7403 -0.5773,-0.5835 -1.1712,-1.1488 -1.7695,-1.711 -0.5768,-0.5829 -1.1692,-1.1493 -1.7668,-1.7111 -0.5675,-0.5735 -1.1526,-1.1288 -1.7403,-1.6818 -0.5851,-0.5917 -1.1869,-1.1649 -1.7935,-1.7349 -0.5672,-0.573 -1.1501,-1.1294 -1.7375,-1.6818 -0.5675,-0.5735 -1.1528,-1.1288 -1.7403,-1.6819 -0.5603,-0.5663 -1.1391,-1.1141 -1.719,-1.6606 -0.5771,-0.5838 -1.1718,-1.1508 -1.7694,-1.7136 -0.5646,-0.5704 -1.1456,-1.1238 -1.7297,-1.6739 -0.5689,-0.575 -1.1567,-1.13 -1.7456,-1.6845 -0.5604,-0.566 -1.1365,-1.117 -1.7165,-1.6631 -0.5712,-0.5774 -1.1594,-1.1359 -1.7508,-1.6926 -0.5517,-0.5568 -1.1193,-1.0963 -1.6899,-1.6339 -0.56,-0.5659 -1.1368,-1.1145 -1.7163,-1.6605 -0.5536,-0.5594 -1.1251,-1.0993 -1.6977,-1.6394 -0.557,-0.563 -1.1296,-1.1092 -1.7057,-1.6527 -0.5552,-0.561 -1.129,-1.1029 -1.7032,-1.6446 -0.554,-0.5599 -1.1247,-1.1039 -1.6976,-1.6445 -0.544,-0.5496 -1.1064,-1.0817 -1.6686,-1.6128 -0.5545,-0.5606 -1.1271,-1.1033 -1.7005,-1.6447 -0.5551,-0.561 -1.1262,-1.1054 -1.7004,-1.6472 -0.5478,-0.5532 -1.1129,-1.0888 -1.6792,-1.6234 -0.5413,-0.5466 -1.1012,-1.0737 -1.6605,-1.6021 -0.551,-0.5568 -1.1176,-1.0961 -1.6871,-1.634 -0.5496,-0.5549 -1.1165,-1.0926 -1.6845,-1.6286 -0.5284,-0.5331 -1.0727,-1.0494 -1.618,-1.5649 -0.5365,-0.5421 -1.0907,-1.0648 -1.6447,-1.5889 -0.5401,-0.5461 -1.0973,-1.0741 -1.6552,-1.6021 -0.5471,-0.5531 -1.1111,-1.0889 -1.6765,-1.6234 -0.5365,-0.5416 -1.0907,-1.0652 -1.6446,-1.5889 -0.5317,-0.5366 -1.0799,-1.0563 -1.6288,-1.5755 -0.529,-0.5342 -1.0746,-1.0506 -1.6207,-1.5675 -0.5391,-0.5449 -1.0957,-1.0701 -1.6525,-1.5968 -0.5263,-0.5313 -1.0698,-1.0454 -1.6128,-1.5596 -0.5296,-0.5349 -1.0741,-1.0527 -1.6207,-1.5703 -0.5285,-0.5339 -1.0752,-1.0482 -1.6207,-1.5649 -0.5267,-0.532 -1.0693,-1.0474 -1.6127,-1.5622 -0.5258,-0.5309 -1.0703,-1.0431 -1.6128,-1.557 -0.5231,-0.5281 -1.0624,-1.0403 -1.6021,-1.5516 -0.5239,-0.5289 -1.0643,-1.0396 -1.6048,-1.5516 -0.5123,-0.5172 -1.042,-1.0161 -1.5702,-1.5172 -0.5324,-0.538 -1.0817,-1.0575 -1.6313,-1.5781 -0.5116,-0.5162 -1.0403,-1.0144 -1.5677,-1.5145 -0.5207,-0.5258 -1.057,-1.0345 -1.594,-1.5437 -0.5039,-0.5084 -1.0246,-1.0003 -1.5437,-1.4931 -0.522,-0.5274 -1.0611,-1.0356 -1.5995,-1.5463 -0.5171,-0.5218 -1.0505,-1.0276 -1.5836,-1.5331 -0.5117,-0.5163 -1.04,-1.0141 -1.5675,-1.5145 -0.5011,-0.5053 -1.0196,-0.9923 -1.5357,-1.4825 -0.5086,-0.5135 -1.0327,-1.0114 -1.5569,-1.5091 -0.5078,-0.5125 -1.0338,-1.0071 -1.557,-1.5039 -0.505,-0.5096 -1.0261,-1.0016 -1.5463,-1.4958 -0.5052,-0.5099 -1.0257,-1.0041 -1.5463,-1.4984 -0.5022,-0.5067 -1.0212,-0.9966 -1.5384,-1.4879 -0.496,-0.5005 -1.009,-0.9837 -1.5198,-1.4693 -0.5002,-0.505 -1.0178,-0.9927 -1.5329,-1.4825 -0.5031,-0.5077 -1.023,-0.9982 -1.541,-1.4906 -0.4927,-0.4969 -1.002,-0.9764 -1.5092,-1.4586 -0.496,-0.5005 -1.0091,-0.9834 -1.5197,-1.4693 -0.4992,-0.5036 -1.0138,-0.9912 -1.5277,-1.4798 -0.4847,-0.4888 -0.9867,-0.9603 -1.4852,-1.4348 -0.4952,-0.4997 -1.0075,-0.9817 -1.5172,-1.4667 -0.486,-0.4902 -0.9877,-0.9639 -1.4878,-1.4399 -0.4935,-0.4981 -1.0038,-0.9779 -1.5117,-1.4614 -0.4826,-0.4863 -0.9811,-0.957 -1.4774,-1.4293 -0.4949,-0.4994 -1.005,-0.9822 -1.5144,-1.4667 -0.4677,-0.4712 -0.9514,-0.926 -1.4321,-1.3843 -0.4955,-0.5002 -1.007,-0.9837 -1.517,-1.4692 -0.4724,-0.4762 -0.9624,-0.9346 -1.4481,-1.3976 -0.4883,-0.4927 -0.9933,-0.9695 -1.4958,-1.4479 -0.4658,-0.4695 -0.9482,-0.9225 -1.4267,-1.379 -0.4908,-0.4953 -0.9989,-0.9725 -1.5039,-1.4534 -0.4633,-0.4668 -0.9427,-0.9168 -1.4188,-1.3709 -0.4744,-0.4787 -0.9656,-0.9403 -1.4532,-1.4055 -0.4777,-0.4818 -0.9704,-0.9479 -1.4613,-1.4161 -0.4715,-0.4753 -0.9582,-0.9355 -1.4428,-1.3975 -0.4696,-0.4734 -0.9548,-0.9294 -1.4373,-1.3896 -0.4681,-0.4719 -0.9539,-0.9254 -1.4348,-1.3842 -0.4679,-0.4718 -0.9513,-0.9282 -1.432,-1.3869 -0.4616,-0.4652 -0.9396,-0.9132 -1.4135,-1.3657 -0.461,-0.4649 -0.9374,-0.9134 -1.4108,-1.3656 -0.4677,-0.4718 -0.9517,-0.9256 -1.432,-1.3843 -0.4611,-0.4647 -0.9375,-0.9136 -1.411,-1.3656 -0.4561,-0.4599 -0.9291,-0.9022 -1.3975,-1.3497 -0.4583,-0.4621 -0.9322,-0.9081 -1.4029,-1.3578 -0.4536,-0.4576 -0.9236,-0.8989 -1.3894,-1.3443 -0.4639,-0.4678 -0.9452,-0.9186 -1.4216,-1.3736 -0.4462,-0.4496 -0.9077,-0.8826 -1.3656,-1.3205 -0.4575,-0.4614 -0.9303,-0.906 -1.4002,-1.355 -0.4476,-0.4511 -0.909,-0.8866 -1.3682,-1.3258 -0.4544,-0.4581 -0.926,-0.8987 -1.3923,-1.3444 -0.453,-0.4566 -0.9218,-0.8973 -1.3869,-1.3417 -0.4348,-0.4379 -0.8854,-0.8592 -1.3311,-1.286 -0.4504,-0.4542 -0.9167,-0.8915 -1.379,-1.3338 -0.4362,-0.4396 -0.8891,-0.8627 -1.3364,-1.2912 -0.4559,-0.4599 -0.9267,-0.9046 -1.3948,-1.3525 -0.4319,-0.4349 -0.8805,-0.8538 -1.3231,-1.2779 -0.4367,-0.4402 -0.8888,-0.8649 -1.3365,-1.2939 -0.4432,-0.4469 -0.903,-0.877 -1.3576,-1.3125 -0.4417,-0.4451 -0.8995,-0.8734 -1.3525,-1.3072 -0.435,-0.4382 -0.885,-0.8614 -1.3311,-1.2886 -0.4259,-0.429 -0.868,-0.8409 -1.3045,-1.2594 -0.442,-0.4456 -0.8991,-0.8756 -1.3524,-1.3098 -0.4272,-0.4303 -0.8693,-0.8451 -1.3071,-1.2647 -0.4263,-0.4295 -0.8678,-0.8432 -1.3046,-1.262 -0.4291,-0.4326 -0.8753,-0.8482 -1.3151,-1.27 -0.4325,-0.4357 -0.88,-0.8558 -1.3232,-1.2806 -0.4211,-0.4241 -0.8573,-0.8324 -1.2885,-1.2461 -0.429,-0.4322 -0.8731,-0.8486 -1.3126,-1.27 -0.4106,-0.4136 -0.8365,-0.8106 -1.2567,-1.2142 -0.4306,-0.4341 -0.8767,-0.8522 -1.3179,-1.2754 -0.4254,-0.4285 -0.866,-0.8413 -1.3018,-1.2594 -0.4053,-0.4079 -0.826,-0.7998 -1.2408,-1.1983 -0.4257,-0.4289 -0.8659,-0.8434 -1.3018,-1.262 -0.416,-0.4188 -0.8496,-0.8212 -1.2754,-1.2301 -0.4145,-0.4172 -0.8431,-0.8202 -1.2674,-1.2274 -0.4054,-0.4083 -0.826,-0.7997 -1.2407,-1.1984 -0.4083,-0.4113 -0.8309,-0.8071 -1.2487,-1.2089 -0.4193,-0.4225 -0.8542,-0.8283 -1.2833,-1.2408 -0.4129,-0.4155 -0.8395,-0.8163 -1.262,-1.2221 -0.3979,-0.4003 -0.8101,-0.7858 -1.217,-1.1769 -0.407,-0.4101 -0.8296,-0.8032 -1.246,-1.2037 -0.4091,-0.4119 -0.833,-0.8092 -1.2514,-1.2115 -0.3981,-0.4006 -0.81,-0.7856 -1.2168,-1.1771 -0.399,-0.4017 -0.8143,-0.7871 -1.2223,-1.1797 -0.3999,-0.4028 -0.8131,-0.7913 -1.2221,-1.1848 -0.3994,-0.4023 -0.8138,-0.7893 -1.2223,-1.1824 -0.3976,-0.4006 -0.8101,-0.7855 -1.2168,-1.177 -0.3963,-0.3991 -0.809,-0.7815 -1.2142,-1.1718 -0.3945,-0.3971 -0.8029,-0.7807 -1.2063,-1.1689 -0.3932,-0.396 -0.8015,-0.7766 -1.2034,-1.1638 -0.3915,-0.3941 -0.7983,-0.7731 -1.1984,-1.1584 -0.3932,-0.3959 -0.8015,-0.7767 -1.2036,-1.1637 -0.3775,-0.3798 -0.7702,-0.7442 -1.1557,-1.1159 -0.3964,-0.3994 -0.8063,-0.7839 -1.2115,-1.1743 -0.3816,-0.3841 -0.7767,-0.7535 -1.1664,-1.1293 -0.3956,-0.3981 -0.8072,-0.7797 -1.2116,-1.169 -0.3684,-0.3704 -0.7504,-0.7266 -1.1265,-1.0894 -0.3822,-0.3847 -0.7787,-0.7552 -1.1691,-1.1318 -0.3809,-0.3836 -0.7772,-0.7512 -1.1664,-1.1265 -0.384,-0.3867 -0.7819,-0.7588 -1.1743,-1.1371 -0.3718,-0.3742 -0.7575,-0.7337 -1.1371,-1.0999 -0.3773,-0.3799 -0.7681,-0.7443 -1.1531,-1.1161 -0.3745,-0.3768 -0.7628,-0.7389 -1.1451,-1.1078 -0.3727,-0.3751 -0.7595,-0.7356 -1.1398,-1.1027 -0.3779,-0.3802 -0.77,-0.7463 -1.1558,-1.1185 -0.3564,-0.3584 -0.7286,-0.701 -1.092,-1.0522 -0.3831,-0.3858 -0.7805,-0.7569 -1.1717,-1.1344 -0.3538,-0.3558 -0.7206,-0.6982 -1.0813,-1.0469 -0.3805,-0.3831 -0.7753,-0.7516 -1.1638,-1.1265 -0.3499,-0.3518 -0.714,-0.6887 -1.0707,-1.0336 -0.3639,-0.3663 -0.7419,-0.717 -1.1133,-1.076 -0.3678,-0.3703 -0.7483,-0.7266 -1.1238,-1.0894 -0.3605,-0.3625 -0.735,-0.71 -1.1027,-1.0654 -0.3621,-0.3643 -0.7384,-0.7137 -1.1078,-1.0707 -0.3615,-0.3633 -0.7367,-0.712 -1.1053,-1.068 -0.3435,-0.3451 -0.6996,-0.6765 -1.0495,-1.0149 -0.3545,-0.3567 -0.7226,-0.6999 -1.0841,-1.0495 -0.3509,-0.3532 -0.7155,-0.6927 -1.0734,-1.0389 -0.3608,-0.3631 -0.7346,-0.7123 -1.1025,-1.068 -0.3456,-0.3475 -0.7054,-0.6796 -1.0576,-1.0203 -0.3482,-0.3504 -0.7102,-0.6874 -1.0654,-1.0308 -0.3448,-0.3469 -0.7033,-0.6802 -1.0547,-1.0203 -0.3493,-0.3514 -0.7121,-0.6891 -1.0681,-1.0336 -0.3417,-0.3437 -0.6959,-0.6751 -1.0442,-1.0123 -0.352,-0.3541 -0.7197,-0.6916 -1.0787,-1.0388 -0.3271,-0.3286 -0.6661,-0.6445 -0.9989,-0.9672 -0.3417,-0.3437 -0.6961,-0.6748 -1.0442,-1.0122 -0.3502,-0.3525 -0.7138,-0.6907 -1.0707,-1.0362 -0.3316,-0.3331 -0.6775,-0.6508 -1.015,-0.9778 -0.3314,-0.3331 -0.6748,-0.6534 -1.0122,-0.9804 -0.3322,-0.3341 -0.6768,-0.655 -1.015,-0.983 -0.3387,-0.3409 -0.6911,-0.6672 -1.0363,-1.0017 -0.3269,-0.3287 -0.6661,-0.6443 -0.9989,-0.9671 -0.3361,-0.3382 -0.6858,-0.6618 -1.0282,-0.9937 -0.3314,-0.333 -0.6749,-0.6534 -1.0123,-0.9804 -0.3221,-0.3236 -0.658,-0.6332 -0.9857,-0.9511 -0.3322,-0.334 -0.6767,-0.6552 -1.0149,-0.983 -0.319,-0.3206 -0.6505,-0.6284 -0.9751,-0.9433 -0.3202,-0.322 -0.6546,-0.6295 -0.9804,-0.9458 -0.3224,-0.3242 -0.6577,-0.6356 -0.9857,-0.9539 -0.3212,-0.3228 -0.6536,-0.634 -0.9805,-0.9511 -0.319,-0.3208 -0.6504,-0.6282 -0.975,-0.9433 -0.3172,-0.3187 -0.6471,-0.6247 -0.9698,-0.9378 -0.3168,-0.3186 -0.6475,-0.6224 -0.9697,-0.9352 -0.315,-0.3166 -0.6414,-0.6216 -0.9619,-0.9327 -0.3049,-0.3063 -0.6225,-0.5993 -0.9325,-0.9007 -0.3269,-0.3287 -0.6663,-0.6442 -0.9991,-0.967 -0.2952,-0.2966 -0.6033,-0.5798 -0.9032,-0.8714 -0.315,-0.3169 -0.6416,-0.6214 -0.9619,-0.9327 -0.3022,-0.3036 -0.6173,-0.5941 -0.9246,-0.8926 -0.3122,-0.3141 -0.6363,-0.6161 -0.9538,-0.9247 -0.305,-0.3065 -0.6226,-0.5993 -0.9326,-0.9006 -0.2974,-0.2989 -0.6062,-0.5855 -0.9087,-0.8795 -0.3079,-0.3096 -0.63,-0.6043 -0.9431,-0.9087 -0.2944,-0.2957 -0.599,-0.5805 -0.8981,-0.8714 -0.2992,-0.3008 -0.6099,-0.5889 -0.9139,-0.8848 -0.3066,-0.3081 -0.6262,-0.603 -0.938,-0.906 -0.2874,-0.2886 -0.5875,-0.5634 -0.8794,-0.8476 -0.2947,-0.2962 -0.6013,-0.5801 -0.9007,-0.8714 -0.2915,-0.2931 -0.5938,-0.5752 -0.8901,-0.8636 -0.2912,-0.2926 -0.5942,-0.5727 -0.89,-0.8608 -0.2939,-0.2953 -0.5995,-0.5781 -0.898,-0.8687 -0.2808,-0.2821 -0.5732,-0.5514 -0.8582,-0.829 -0.3,-0.3016 -0.6118,-0.5908 -0.9166,-0.8875 -0.2737,-0.2748 -0.5593,-0.5369 -0.837,-0.8076 -0.2916,-0.2932 -0.5938,-0.575 -0.8901,-0.8636 -0.2859,-0.2871 -0.5837,-0.562 -0.874,-0.8449 -0.279,-0.2801 -0.5697,-0.5478 -0.853,-0.8235 -0.2749,-0.2762 -0.5605,-0.5411 -0.8396,-0.8131 -0.2885,-0.29 -0.5888,-0.5674 -0.882,-0.8528 -0.2771,-0.2783 -0.5663,-0.5444 -0.8476,-0.8184 -0.2671,-0.2681 -0.5447,-0.5249 -0.8157,-0.7891 -0.2722,-0.2734 -0.5553,-0.5355 -0.8315,-0.805 -0.285,-0.2864 -0.5821,-0.5604 -0.8715,-0.8422 -0.2632,-0.2642 -0.5381,-0.5154 -0.805,-0.7758 -0.2709,-0.2721 -0.5515,-0.5344 -0.8263,-0.8025 -0.2669,-0.268 -0.5449,-0.5249 -0.8158,-0.7891 -0.2677,-0.2689 -0.5466,-0.5266 -0.8182,-0.7917 -0.2687,-0.2699 -0.5484,-0.5285 -0.821,-0.7945 -0.2621,-0.2632 -0.5366,-0.5136 -0.8025,-0.773 -0.2571,-0.2584 -0.523,-0.508 -0.7836,-0.7626 -0.2754,-0.2767 -0.563,-0.5405 -0.8424,-0.813 -0.2538,-0.2548 -0.5185,-0.4981 -0.7758,-0.7492 -0.2523,-0.2535 -0.5147,-0.4967 -0.7705,-0.7466 -0.2625,-0.2638 -0.5361,-0.5158 -0.8023,-0.7759 -0.2591,-0.2601 -0.5292,-0.5087 -0.7918,-0.7652 -0.2454,-0.2464 -0.5006,-0.4823 -0.7493,-0.7254 -0.2606,-0.262 -0.5326,-0.5121 -0.797,-0.7704 -0.2537,-0.2547 -0.5186,-0.4979 -0.7758,-0.7492 -0.2437,-0.2446 -0.4971,-0.4788 -0.744,-0.72 -0.2563,-0.2575 -0.5239,-0.5035 -0.7838,-0.7573 -0.2409,-0.2417 -0.4919,-0.4734 -0.736,-0.712 -0.2462,-0.2473 -0.5023,-0.4842 -0.7518,-0.7281 -0.2427,-0.2436 -0.4955,-0.4769 -0.7413,-0.7173 -0.2436,-0.2447 -0.4972,-0.4787 -0.7439,-0.72 -0.249,-0.2499 -0.5077,-0.4894 -0.7599,-0.7359 -0.2252,-0.2258 -0.4604,-0.4412 -0.6882,-0.6643 -0.2544,-0.2557 -0.5205,-0.4998 -0.7784,-0.7518 -0.2243,-0.225 -0.4586,-0.4394 -0.6855,-0.6617 -0.2414,-0.2424 -0.4915,-0.4753 -0.7359,-0.7147 -0.2371,-0.238 -0.4827,-0.4665 -0.7228,-0.7014 -0.2334,-0.2343 -0.4784,-0.4568 -0.7147,-0.6882 -0.232,-0.2329 -0.4743,-0.4553 -0.7094,-0.6855 -0.221,-0.2219 -0.4511,-0.4342 -0.6749,-0.6535 -0.2364,-0.2375 -0.483,-0.4643 -0.7226,-0.6988 -0.2278,-0.2287 -0.4655,-0.4463 -0.696,-0.6721 -0.2195,-0.2203 -0.4476,-0.4309 -0.6696,-0.6484 -0.2317,-0.2326 -0.472,-0.4557 -0.7068,-0.6854 -0.2166,-0.2174 -0.445,-0.4228 -0.6642,-0.6378 -0.222,-0.2228 -0.4502,-0.4387 -0.6748,-0.6588 -0.2273,-0.2281 -0.4661,-0.4443 -0.6961,-0.6695 -0.2123,-0.2131 -0.4337,-0.4166 -0.6483,-0.6272 -0.2246,-0.2254 -0.4582,-0.4414 -0.6855,-0.6641 -0.2114,-0.212 -0.4318,-0.4147 -0.6456,-0.6244 -0.2128,-0.2134 -0.4359,-0.4161 -0.6509,-0.6271 -0.2049,-0.2054 -0.4174,-0.4025 -0.6244,-0.6057 -0.2193,-0.2201 -0.4479,-0.4307 -0.6696,-0.6482 -0.2106,-0.2114 -0.4301,-0.4129 -0.643,-0.6218 -0.2095,-0.2102 -0.4284,-0.4111 -0.6403,-0.619 -0.2069,-0.2077 -0.4231,-0.4058 -0.6323,-0.6112 -0.2065,-0.2072 -0.4209,-0.4061 -0.6297,-0.6111 -0.2047,-0.2052 -0.4201,-0.3999 -0.627,-0.603 -0.197,-0.1975 -0.4016,-0.3865 -0.6004,-0.5819 -0.2089,-0.2095 -0.4268,-0.4092 -0.6378,-0.6164 -0.2021,-0.2027 -0.412,-0.3972 -0.6163,-0.5979 -0.1904,-0.1907 -0.3898,-0.3718 -0.582,-0.5606 -0.1957,-0.1965 -0.3998,-0.3847 -0.5977,-0.5791 -0.2038,-0.2046 -0.4157,-0.4009 -0.6217,-0.6031 -0.187,-0.1876 -0.3824,-0.3671 -0.5713,-0.5528 -0.2025,-0.203 -0.4144,-0.3968 -0.619,-0.5977 -0.1849,-0.1854 -0.3793,-0.3612 -0.566,-0.5447 -0.1906,-0.1912 -0.3894,-0.3739 -0.5818,-0.5633 -0.1889,-0.1893 -0.3858,-0.3703 -0.5766,-0.5578 -0.1874,-0.188 -0.3819,-0.3692 -0.5712,-0.5553 -0.1866,-0.1872 -0.3828,-0.3647 -0.5713,-0.55 -0.1831,-0.1838 -0.373,-0.3601 -0.5579,-0.5421 -0.1835,-0.1841 -0.3753,-0.3597 -0.5606,-0.542 -0.1818,-0.1823 -0.3717,-0.3561 -0.5553,-0.5366 -0.172,-0.1727 -0.3523,-0.3366 -0.5261,-0.5076 -0.1861,-0.1867 -0.3805,-0.3649 -0.5685,-0.55 -0.1796,-0.1799 -0.3661,-0.353 -0.5474,-0.5313 -0.1686,-0.1691 -0.3453,-0.3293 -0.5154,-0.4968 -0.1822,-0.1828 -0.3713,-0.3583 -0.5553,-0.5394 -0.1733,-0.1738 -0.3564,-0.3379 -0.5314,-0.5101 -0.1734,-0.1738 -0.3537,-0.3405 -0.5287,-0.5128 -0.1598,-0.16 -0.3278,-0.3116 -0.4888,-0.4703 -0.1695,-0.1699 -0.3445,-0.3337 -0.5156,-0.5021 -0.1674,-0.1681 -0.3436,-0.3276 -0.5127,-0.4942 -0.1662,-0.1668 -0.3395,-0.3262 -0.5075,-0.4915 -0.1742,-0.1748 -0.3555,-0.3423 -0.5314,-0.5154 -0.154,-0.1544 -0.3149,-0.3014 -0.4702,-0.4544 -0.1619,-0.1624 -0.3309,-0.3172 -0.4943,-0.4783 -0.1605,-0.1609 -0.3296,-0.3133 -0.4914,-0.4728 -0.1607,-0.1611 -0.3269,-0.316 -0.489,-0.4756 -0.1561,-0.1566 -0.3207,-0.3045 -0.4781,-0.4597 -0.1563,-0.1567 -0.3181,-0.307 -0.4756,-0.4623 -0.1549,-0.1553 -0.3168,-0.303 -0.473,-0.457 -0.1455,-0.1459 -0.2969,-0.2857 -0.4437,-0.4304 -0.1601,-0.1606 -0.3273,-0.3137 -0.4888,-0.473 -0.1496,-0.1499 -0.3063,-0.2923 -0.4571,-0.441 -0.1402,-0.1407 -0.2863,-0.2749 -0.4276,-0.4145 -0.1558,-0.1562 -0.3186,-0.3047 -0.4756,-0.4597 -0.1381,-0.1383 -0.2835,-0.2692 -0.4225,-0.4064 -0.1544,-0.1548 -0.3147,-0.3034 -0.4703,-0.457 -0.143,-0.1432 -0.2917,-0.2803 -0.4357,-0.4225 -0.1333,-0.1333 -0.2745,-0.2602 -0.4092,-0.3931 -0.1403,-0.1407 -0.2865,-0.2749 -0.4277,-0.4145 -0.1381,-0.1384 -0.2835,-0.2692 -0.4225,-0.4066 -0.1376,-0.138 -0.2812,-0.2695 -0.4198,-0.4065 -0.1347,-0.136 -0.2755,-0.2665 -0.4118,-0.4011 -0.1347,-0.1347 -0.2759,-0.2644 -0.4118,-0.3986 -0.1333,-0.1333 -0.2724,-0.2607 -0.4066,-0.3932 -0.1333,-0.1333 -0.2723,-0.2607 -0.4064,-0.3932 -0.1306,-0.1306 -0.2671,-0.2554 -0.3986,-0.3853 -0.1293,-0.1292 -0.2635,-0.2518 -0.3932,-0.3799 -0.1265,-0.1265 -0.2601,-0.2483 -0.3879,-0.3747 -0.117,-0.1169 -0.2407,-0.2286 -0.3587,-0.3453 -0.1495,-0.15 -0.3035,-0.295 -0.4543,-0.4438 -0.099,-0.099 -0.2036,-0.1913 -0.3029,-0.2896 -0.1306,-0.1306 -0.2668,-0.2575 -0.3986,-0.3878 -0.1115,-0.1116 -0.2282,-0.2162 -0.3401,-0.3269 -0.1265,-0.1265 -0.2601,-0.2481 -0.3878,-0.3745 -0.1088,-0.1102 -0.2249,-0.2128 -0.3348,-0.3216 -0.1251,-0.1252 -0.254,-0.2473 -0.3799,-0.3719 -0.1061,-0.1061 -0.2178,-0.2056 -0.3242,-0.3109 -0.1129,-0.1142 -0.2314,-0.222 -0.3454,-0.3347 -0.1115,-0.1116 -0.2278,-0.2184 -0.3401,-0.3295 -0.1278,-0.1292 -0.2613,-0.2522 -0.3905,-0.38 -0.083,-0.083 -0.1718,-0.1592 -0.2551,-0.2417 -0.1319,-0.1319 -0.268,-0.2616 -0.4011,-0.3933 -0.09,-0.09 -0.186,-0.1735 -0.2765,-0.263 -0.095,-0.095 -0.1961,-0.1863 -0.2922,-0.2816 -0.1129,-0.1129 -0.227,-0.2229 -0.34,-0.3348 -0.1021,-0.102 -0.2086,-0.1988 -0.3109,-0.3002 -0.09,-0.09 -0.1861,-0.1735 -0.2763,-0.263 -0.1088,-0.1088 -0.2205,-0.2134 -0.3294,-0.3216 -0.098,-0.098 -0.1997,-0.1899 -0.2977,-0.2869 -0.097,-0.097 -0.1975,-0.1906 -0.2949,-0.2869 -0.095,-0.095 -0.1944,-0.1847 -0.2896,-0.279 -0.084,-0.084 -0.1732,-0.1632 -0.2577,-0.2471 -0.092,-0.092 -0.1886,-0.1814 -0.2817,-0.2736 -0.1061,-0.1075 -0.2168,-0.21 -0.324,-0.3163 -0.072,-0.072 -0.1486,-0.1383 -0.2205,-0.2099 -0.087,-0.087 -0.1765,-0.1689 -0.2631,-0.255 -0.087,-0.087 -0.1781,-0.1708 -0.2657,-0.2577 -0.083,-0.083 -0.1688,-0.1641 -0.2525,-0.2472 -0.1477,-0.148 -0.3052,-0.286 -0.4542,-0.433 -0.1659,-0.1665 -0.3375,-0.3266 -0.5048,-0.4915 -0.099,-0.099 -0.2028,-0.1957 -0.303,-0.2949 -0.057,-0.057 -0.1183,-0.1102 -0.1753,-0.1674 -0.091,-0.092 -0.1869,-0.1796 -0.279,-0.271 -0.054,-0.054 -0.1129,-0.1048 -0.1673,-0.1594 -0.072,-0.072 -0.1478,-0.1427 -0.2205,-0.2152 -0.086,-0.086 -0.1743,-0.1695 -0.2604,-0.2551 -0.069,-0.068 -0.1411,-0.1333 -0.2099,-0.2019 -0.052,-0.052 -0.1075,-0.099 -0.1594,-0.1515 -0.065,-0.065 -0.1334,-0.1293 -0.1993,-0.1939 -0.078,-0.078 -0.1588,-0.1512 -0.2365,-0.2285 -0.05,-0.05 -0.1033,-0.097 -0.1541,-0.1461 -0.063,-0.063 -0.1265,-0.1211 -0.1887,-0.1834 -0.072,-0.072 -0.1481,-0.1405 -0.2205,-0.2125 -0.028,-0.028 -0.061,-0.056 -0.09,-0.084 -0.084,-0.084 -0.1729,-0.1707 -0.2577,-0.2551 -0.054,-0.054 -0.1129,-0.1074 -0.1674,-0.1621 -0.054,-0.054 -0.1129,-0.1048 -0.1674,-0.1595 -0.02,-0.02 -0.041,-0.038 -0.061,-0.058 0,0 -0.014,-0.014 -0.019,-0.019 -0.076,-0.076 -0.1548,-0.1499 -0.2312,-0.2258 -0.034,-0.034 -0.069,-0.065 -0.1034,-0.098 -0.063,-0.062 -0.1279,-0.1237 -0.1914,-0.1859 -0.024,-0.024 -0.05,-0.045 -0.075,-0.069 -0.056,-0.056 -0.1116,-0.1115 -0.1674,-0.1673 -0.057,-0.057 -0.1156,-0.1116 -0.1727,-0.1675 -0.071,-0.071 -0.1467,-0.1365 -0.2178,-0.2071 -0.05,-0.05 -0.1061,-0.1034 -0.1567,-0.1542 -0.037,-0.037 -0.08,-0.075 -0.117,-0.1115 -0.018,-0.018 -0.038,-0.035 -0.056,-0.053 -0.053,-0.053 -0.1088,-0.1061 -0.162,-0.1594 -0.034,-0.034 -0.069,-0.067 -0.1034,-0.1007 -0.031,-0.031 -0.064,-0.061 -0.095,-0.092 -0.033,-0.031 -0.067,-0.061 -0.098,-0.092 -0.015,-0.015 -0.033,-0.03 -0.048,-0.045 -0.069,-0.068 -0.141,-0.1333 -0.2099,-0.202 -0.024,-0.025 -0.052,-0.046 -0.078,-0.072 0,0 0,0 -0.014,0 -0.1917,-0.1938 -0.3805,-0.39 -0.5739,-0.5818 -4.5925,-4.5926 -9.7381,-8.63 -15.3277,-12.0146 -1.1,-0.667 -2.2166,-1.3082 -3.3504,-1.9235 -0.015,-0.014 -0.03,-0.016 -0.045,-0.024 -1.1343,-0.6147 -2.2875,-1.2028 -3.454,-1.7642 -10.6517,-5.1262 -22.6085,-7.9972 -35.2624,-7.9973 h -370.6889 c -44.9267,0 -81.0961,36.1675 -81.0966,81.0941 v 0 44.3305 c -0.1333,-0.1306 -0.2726,-0.2551 -0.4065,-0.3853 -0.3136,-0.3153 -0.6402,-0.6173 -0.9592,-0.9272 -0.3142,-0.3159 -0.6395,-0.6196 -0.9591,-0.9299 -0.2901,-0.2913 -0.5927,-0.569 -0.8874,-0.8555 -0.3089,-0.3106 -0.632,-0.6062 -0.9458,-0.9113 -0.3103,-0.3117 -0.6333,-0.6104 -0.9486,-0.9167 -0.2888,-0.2898 -0.5887,-0.5677 -0.8822,-0.8528 -0.3022,-0.3039 -0.6172,-0.594 -0.9245,-0.8928 -0.3005,-0.3017 -0.614,-0.5907 -0.9193,-0.8874 -0.2873,-0.2885 -0.5876,-0.5637 -0.8794,-0.8476 -0.3037,-0.3051 -0.6186,-0.5979 -0.9272,-0.898 -0.2939,-0.2949 -0.5997,-0.5761 -0.8981,-0.8661 -0.2835,-0.2846 -0.5783,-0.5569 -0.8662,-0.837 -0.2911,-0.2925 -0.5943,-0.573 -0.89,-0.8608 -0.2895,-0.2909 -0.5908,-0.5693 -0.8848,-0.8555 -0.2944,-0.2958 -0.6017,-0.5779 -0.9007,-0.8689 -0.2798,-0.2809 -0.5714,-0.5497 -0.8555,-0.8262 -0.2856,-0.2869 -0.5841,-0.56 -0.8741,-0.8422 -0.2838,-0.285 -0.578,-0.5591 -0.8662,-0.8396 -0.2825,-0.2838 -0.5766,-0.555 -0.8635,-0.8343 -0.279,-0.2801 -0.5697,-0.5478 -0.8528,-0.8237 -0.2799,-0.281 -0.5713,-0.5494 -0.8555,-0.8263 -0.2869,-0.2881 -0.5855,-0.564 -0.8769,-0.8475 -0.2617,-0.2626 -0.5368,-0.5116 -0.8023,-0.7705 -0.2847,-0.286 -0.5798,-0.5607 -0.8688,-0.8423 -0.2742,-0.275 -0.5589,-0.5393 -0.8369,-0.8103 -0.2641,-0.265 -0.5399,-0.5174 -0.8078,-0.7784 -0.2789,-0.2802 -0.5697,-0.5478 -0.8528,-0.8237 -0.2703,-0.2712 -0.5521,-0.5298 -0.8264,-0.7972 -0.2617,-0.2626 -0.5341,-0.514 -0.7996,-0.773 -0.2737,-0.275 -0.5592,-0.537 -0.837,-0.8078 -0.2592,-0.26 -0.5289,-0.5088 -0.7917,-0.7652 -0.2626,-0.2636 -0.5361,-0.5158 -0.8025,-0.7758 -0.2722,-0.2735 -0.5551,-0.5355 -0.8316,-0.805 -0.2533,-0.2541 -0.5189,-0.4959 -0.7758,-0.7466 -0.2599,-0.261 -0.5308,-0.5105 -0.7944,-0.7679 -0.2683,-0.2693 -0.5488,-0.5263 -0.821,-0.7917 -0.2511,-0.2519 -0.5132,-0.4929 -0.7677,-0.7413 -0.2565,-0.2573 -0.5239,-0.5034 -0.7839,-0.7571 -0.2455,-0.2464 -0.5006,-0.4823 -0.7492,-0.7255 -0.2612,-0.2624 -0.5322,-0.5143 -0.7971,-0.7731 -0.2607,-0.2617 -0.5352,-0.5098 -0.7997,-0.7679 -0.2416,-0.2421 -0.4939,-0.473 -0.7387,-0.712 -0.243,-0.244 -0.4976,-0.4765 -0.7439,-0.7173 -0.248,-0.2491 -0.5059,-0.4877 -0.7572,-0.7333 -0.2533,-0.2544 -0.5164,-0.4985 -0.7732,-0.7493 -0.2457,-0.2466 -0.5028,-0.482 -0.7519,-0.7253 -0.244,-0.2449 -0.4993,-0.4785 -0.7465,-0.7201 -0.2358,-0.2364 -0.4814,-0.4626 -0.72,-0.696 -0.2392,-0.24 -0.4885,-0.4699 -0.7307,-0.7067 -0.2467,-0.2479 -0.5045,-0.4836 -0.7545,-0.7281 -0.2314,-0.2321 -0.4726,-0.4537 -0.7069,-0.6827 -0.2467,-0.2479 -0.5044,-0.4836 -0.7544,-0.7281 -0.2261,-0.2266 -0.4621,-0.4431 -0.6909,-0.6668 -0.2365,-0.2374 -0.4831,-0.4645 -0.7226,-0.6988 -0.2331,-0.2339 -0.4762,-0.4572 -0.712,-0.6882 -0.2301,-0.2307 -0.4687,-0.4523 -0.7016,-0.6802 -0.2303,-0.2311 -0.4708,-0.4518 -0.7039,-0.6802 -0.229,-0.2295 -0.4673,-0.4481 -0.6988,-0.6748 -0.2274,-0.228 -0.4661,-0.4443 -0.6961,-0.6695 -0.2261,-0.2269 -0.462,-0.4429 -0.6909,-0.6669 -0.2246,-0.2253 -0.4581,-0.4416 -0.6855,-0.6643 -0.2144,-0.215 -0.4393,-0.4196 -0.6562,-0.6323 -0.2294,-0.2303 -0.4692,-0.45 -0.7014,-0.6775 -0.2133,-0.2139 -0.4352,-0.4182 -0.651,-0.6296 -0.2267,-0.2277 -0.464,-0.4448 -0.6935,-0.6696 -0.2194,-0.2201 -0.4475,-0.4308 -0.6695,-0.6483 -0.2076,-0.2081 -0.4251,-0.4052 -0.635,-0.6111 -0.2132,-0.2139 -0.4353,-0.4181 -0.6509,-0.6297 -0.2229,-0.2236 -0.4548,-0.438 -0.6802,-0.6589 -0.2051,-0.2057 -0.4195,-0.4023 -0.627,-0.6058 -0.218,-0.2187 -0.4463,-0.4266 -0.667,-0.643 -0.2025,-0.2031 -0.414,-0.3968 -0.6189,-0.5977 -0.2083,-0.209 -0.4272,-0.4072 -0.6377,-0.6138 -0.2053,-0.206 -0.4196,-0.4021 -0.627,-0.6058 -0.2071,-0.2076 -0.4231,-0.4056 -0.6324,-0.611 -0.2016,-0.2023 -0.4125,-0.3951 -0.6164,-0.5952 -0.2047,-0.2054 -0.4174,-0.4026 -0.6244,-0.6057 -0.1994,-0.2 -0.4095,-0.3894 -0.6111,-0.5873 -0.1915,-0.1921 -0.3911,-0.3757 -0.5845,-0.5659 -0.2162,-0.217 -0.4402,-0.4258 -0.6589,-0.6403 -0.181,-0.1813 -0.3725,-0.3518 -0.5553,-0.5313 -0.2048,-0.2056 -0.4174,-0.4026 -0.6243,-0.6058 -0.1854,-0.1858 -0.3788,-0.3635 -0.566,-0.5474 -0.2004,-0.2009 -0.4113,-0.391 -0.6137,-0.5898 -0.1915,-0.192 -0.3911,-0.3759 -0.5845,-0.5659 -0.1831,-0.1836 -0.3757,-0.3577 -0.5606,-0.5394 -0.1872,-0.1876 -0.3823,-0.3668 -0.5713,-0.5526 -0.1879,-0.1885 -0.3841,-0.3686 -0.5738,-0.5553 -0.1951,-0.1956 -0.3982,-0.3829 -0.5952,-0.5765 -0.1775,-0.1779 -0.3628,-0.3473 -0.5421,-0.5234 -0.1831,-0.1837 -0.3757,-0.3575 -0.5606,-0.5394 -0.1896,-0.1902 -0.3875,-0.3723 -0.5792,-0.5606 -0.1729,-0.1733 -0.3541,-0.3385 -0.5286,-0.5101 -0.1703,-0.1708 -0.3489,-0.333 -0.5208,-0.5021 -0.184,-0.1846 -0.3749,-0.362 -0.5607,-0.5447 -0.1763,-0.177 -0.3612,-0.3454 -0.5392,-0.5208 -0.1766,-0.1769 -0.3613,-0.3456 -0.5394,-0.5207 -0.1744,-0.1748 -0.3582,-0.3397 -0.5341,-0.5128 -0.1716,-0.1721 -0.3501,-0.3371 -0.5234,-0.5074 -0.1623,-0.1629 -0.333,-0.317 -0.4968,-0.4783 -0.1786,-0.1793 -0.3643,-0.3513 -0.5447,-0.5288 -0.1676,-0.1679 -0.3436,-0.3277 -0.5127,-0.4942 -0.1598,-0.16 -0.3278,-0.3115 -0.4889,-0.4703 -0.1735,-0.1738 -0.3538,-0.3405 -0.5288,-0.5127 -0.1642,-0.1644 -0.3365,-0.3205 -0.5021,-0.4836 -0.1549,-0.1551 -0.3168,-0.3031 -0.473,-0.4569 -0.1614,-0.1619 -0.3313,-0.3152 -0.4942,-0.4756 -0.1601,-0.1607 -0.3273,-0.3137 -0.4887,-0.473 -0.1572,-0.1574 -0.32,-0.3088 -0.4783,-0.4649 -0.1557,-0.1561 -0.3186,-0.3049 -0.4756,-0.4597 -0.1662,-0.1666 -0.3398,-0.3263 -0.5076,-0.4915 -0.1469,-0.1472 -0.3034,-0.2844 -0.4516,-0.4304 -0.1536,-0.154 -0.3127,-0.3017 -0.4675,-0.4544 -0.142,-0.1422 -0.2901,-0.2786 -0.4332,-0.4198 -0.1658,-0.1663 -0.3402,-0.324 -0.5074,-0.4889 -0.1333,-0.1333 -0.2745,-0.2602 -0.4092,-0.3931 -0.1552,-0.1558 -0.3164,-0.3053 -0.4729,-0.4597 -0.1372,-0.1375 -0.2816,-0.2674 -0.4198,-0.4038 -0.1544,-0.1548 -0.3147,-0.3034 -0.4703,-0.457 -0.1426,-0.1428 -0.2921,-0.278 -0.4357,-0.4198 -0.1425,-0.1427 -0.2922,-0.2782 -0.4357,-0.4198 -0.1334,-0.1333 -0.2728,-0.2584 -0.4065,-0.3905 -0.139,-0.1393 -0.2826,-0.2736 -0.4225,-0.4119 -0.1464,-0.1468 -0.2988,-0.2873 -0.4464,-0.433 -0.1278,-0.1293 -0.264,-0.2497 -0.3932,-0.3774 -0.1433,-0.1436 -0.294,-0.2798 -0.4383,-0.4224 -0.1265,-0.1265 -0.2582,-0.2465 -0.3853,-0.372 -0.1306,-0.1306 -0.2693,-0.2548 -0.4013,-0.3853 -0.1319,-0.1319 -0.2684,-0.2592 -0.4011,-0.3905 -0.1293,-0.1306 -0.2653,-0.2536 -0.3959,-0.3825 -0.1265,-0.1266 -0.2583,-0.2465 -0.3852,-0.3721 -0.1293,-0.1292 -0.2637,-0.2519 -0.3933,-0.3798 -0.1156,-0.1156 -0.2367,-0.2273 -0.3533,-0.3428 -0.1319,-0.132 -0.2707,-0.2589 -0.4039,-0.3906 -0.1385,-0.1387 -0.2829,-0.2713 -0.4224,-0.4092 -0.1074,-0.1074 -0.2235,-0.2086 -0.3322,-0.3161 -0.1101,-0.1115 -0.226,-0.2164 -0.3373,-0.3269 -0.117,-0.1183 -0.2404,-0.2307 -0.3587,-0.348 -0.1252,-0.1251 -0.2566,-0.2447 -0.3827,-0.3693 -0.1156,-0.1156 -0.2371,-0.2251 -0.3533,-0.3401 -0.1074,-0.1074 -0.2209,-0.2112 -0.3295,-0.3188 -0.121,-0.1211 -0.2473,-0.238 -0.3693,-0.3586 -0.094,-0.094 -0.193,-0.1807 -0.2869,-0.2737 -0.1279,-0.1279 -0.2597,-0.2505 -0.388,-0.3774 -0.1006,-0.1006 -0.205,-0.1952 -0.3055,-0.2949 -0.1251,-0.1251 -0.2542,-0.245 -0.3799,-0.3692 -0.082,-0.082 -0.1701,-0.1575 -0.2524,-0.2391 -0.1278,-0.1279 -0.2592,-0.2527 -0.3879,-0.38 -0.088,-0.088 -0.182,-0.1722 -0.271,-0.2603 -0.102,-0.1021 -0.2107,-0.1985 -0.3136,-0.3003 -0.1006,-0.1006 -0.2067,-0.1971 -0.3082,-0.2976 -0.099,-0.099 -0.2031,-0.1935 -0.3028,-0.2922 -0.098,-0.098 -0.1993,-0.1922 -0.2977,-0.2896 -0.088,-0.088 -0.182,-0.1722 -0.271,-0.2604 -0.1033,-0.1034 -0.2103,-0.2006 -0.3134,-0.3029 -0.094,-0.094 -0.1926,-0.1827 -0.287,-0.2763 -0.083,-0.084 -0.171,-0.1637 -0.2551,-0.2471 -0.1088,-0.1088 -0.2203,-0.2135 -0.3294,-0.3216 -0.072,-0.072 -0.1485,-0.1383 -0.2206,-0.2099 -0.1061,-0.1061 -0.2168,-0.2098 -0.3241,-0.3161 -0.069,-0.069 -0.1431,-0.1333 -0.2125,-0.2019 -0.1007,-0.1006 -0.2046,-0.1975 -0.3055,-0.2976 -0.069,-0.069 -0.1433,-0.1333 -0.2127,-0.2019 -0.075,-0.075 -0.1511,-0.1464 -0.2258,-0.2205 -0.09,-0.09 -0.1812,-0.1766 -0.271,-0.2657 -0.1473,-0.1476 -0.3032,-0.2867 -0.4516,-0.4331 -0.1632,-0.1636 -0.3349,-0.3187 -0.4995,-0.4809 -0.076,-0.076 -0.1547,-0.1499 -0.2311,-0.2258 -0.082,-0.082 -0.1676,-0.1601 -0.2498,-0.2419 -0.071,-0.071 -0.1463,-0.1387 -0.2179,-0.2099 -0.069,-0.069 -0.1427,-0.1346 -0.2125,-0.2044 -0.053,-0.053 -0.1088,-0.102 -0.1621,-0.1541 -0.082,-0.083 -0.1671,-0.1625 -0.2498,-0.2445 -0.067,-0.065 -0.136,-0.1279 -0.2019,-0.194 -0.042,-0.042 -0.086,-0.08 -0.1278,-0.1224 -0.086,-0.086 -0.1742,-0.1695 -0.2604,-0.2551 -0.06,-0.06 -0.1252,-0.1156 -0.186,-0.1753 -0.039,-0.039 -0.082,-0.078 -0.1224,-0.117 -0.079,-0.079 -0.1601,-0.1552 -0.2391,-0.2338 -0.058,-0.059 -0.1211,-0.1143 -0.1807,-0.1727 -0.027,-0.027 -0.056,-0.05 -0.083,-0.078 -0.084,-0.084 -0.1706,-0.1658 -0.255,-0.2498 -0.035,-0.035 -0.073,-0.068 -0.1089,-0.1034 -0.069,-0.069 -0.1423,-0.1375 -0.2125,-0.2073 -0.024,-0.025 -0.05,-0.048 -0.075,-0.072 -0.073,-0.073 -0.1495,-0.1444 -0.2232,-0.2178 -0.046,-0.048 -0.097,-0.091 -0.1434,-0.1382 -0.046,-0.046 -0.095,-0.09 -0.1408,-0.136 -0.023,-0.023 -0.046,-0.043 -0.069,-0.067 -0.054,-0.054 -0.1074,-0.1088 -0.1621,-0.1621 -0.054,-0.054 -0.1102,-0.1061 -0.1647,-0.1594 -0.1184,-0.1184 -0.245,-0.2279 -0.3639,-0.3454 -0.037,-0.037 -0.075,-0.072 -0.1116,-0.1089 -0.035,-0.035 -0.071,-0.069 -0.1061,-0.1033 -0.034,-0.034 -0.069,-0.067 -0.1034,-0.1007 -0.033,-0.033 -0.065,-0.064 -0.098,-0.095 -0.031,-0.031 -0.064,-0.061 -0.095,-0.093 -0.03,-0.03 -0.063,-0.057 -0.093,-0.088 -0.029,-0.027 -0.057,-0.054 -0.084,-0.082 -0.026,-0.026 -0.053,-0.052 -0.08,-0.078 -0.027,-0.027 -0.056,-0.05 -0.082,-0.078 -0.014,-0.014 -0.019,-0.019 -0.03,-0.029 -0.014,-0.014 -0.031,-0.026 -0.045,-0.039 -0.014,-0.014 -0.014,-0.014 -0.022,-0.022 0,0 -0.014,-0.014 -0.016,-0.016 -0.1142,-0.1156 -0.2229,-0.2338 -0.3373,-0.3481 -0.9349,-0.9362 -1.8924,-1.8496 -2.8721,-2.7393 -4.8391,-4.4151 -10.2153,-8.2503 -16.0265,-11.3954 0,0 -0.014,0 -0.014,-0.014 -11.4926,-6.2276 -24.6768,-9.7588 -38.7164,-9.7588 z"
         id="path35383-0"
         clip-path="url(#clipPath39439-5)"
         transform="translate(1906.4055,-5184.7548)" />
      <path
         id="rect35006-8"
         style="fill:#eaeef1;fill-opacity:1;fill-rule:evenodd;stroke:none;stroke-width:4.8;stroke-linecap:round;stroke-linejoin:bevel;stroke-miterlimit:4;stroke-dasharray:none;stroke-dashoffset:0;stroke-opacity:1;paint-order:fill markers stroke"
         d="m -6407.9316,2304.9043 c -33.0265,0 -59.6153,26.5887 -59.6153,59.6152 v 413.6504 c 0,33.0265 26.5888,59.6153 59.6153,59.6153 h 413.6523 c 33.0265,0 59.6133,-26.5888 59.6133,-59.6153 v -413.6504 c 0,-33.0265 -26.5868,-59.6152 -59.6133,-59.6152 z m 44.082,210.4238 h 325.4883 c 12.3842,0 22.3535,9.9693 22.3535,22.3535 v 67.3262 c 0,12.3842 -9.9693,22.3535 -22.3535,22.3535 h -325.4883 c -12.3842,0 -22.3555,-9.9693 -22.3555,-22.3535 v -67.3262 c 0,-12.3842 9.9713,-22.3535 22.3555,-22.3535 z" />
      <path
         id="rect35006-7-5"
         style="fill:#eaeef1;fill-opacity:1;fill-rule:evenodd;stroke:none;stroke-width:4.8;stroke-linecap:round;stroke-linejoin:bevel;stroke-miterlimit:4;stroke-dasharray:none;stroke-dashoffset:0;stroke-opacity:1;paint-order:fill markers stroke"
         d="m -7022.4316,2304.9043 c -33.0265,0 -59.6153,26.5887 -59.6153,59.6152 v 413.6504 c 0,33.0265 26.5888,59.6153 59.6153,59.6153 h 413.6504 c 33.0264,0 59.6152,-26.5888 59.6152,-59.6153 v -413.6504 c 0,-33.0265 -26.5887,-59.6152 -59.6152,-59.6152 z m 173.164,81.3418 h 67.3242 c 12.3842,0 22.3536,9.9714 22.3536,22.3555 v 106.7265 h 106.7265 c 12.3842,0 22.3555,9.9693 22.3555,22.3535 v 67.3262 c 0,12.3842 -9.9713,22.3535 -22.3555,22.3535 h -106.7265 v 106.7285 c 0,12.3841 -9.9694,22.3536 -22.3536,22.3536 h -67.3242 c -12.3841,0 -22.3554,-9.9695 -22.3554,-22.3536 v -106.7285 h -106.7286 c -12.3842,0 -22.3535,-9.9693 -22.3535,-22.3535 v -67.3262 c 0,-12.3842 9.9693,-22.3535 22.3535,-22.3535 h 106.7286 v -106.7265 c 0,-12.3841 9.9713,-22.3555 22.3554,-22.3555 z" />
      <path
         id="rect35121-0"
         style="fill:#eaeef1;fill-opacity:1;fill-rule:evenodd;stroke:none;stroke-width:4.8;stroke-linecap:round;stroke-linejoin:bevel;stroke-miterlimit:4;stroke-dasharray:none;stroke-dashoffset:0;stroke-opacity:1;paint-order:fill markers stroke"
         d="m -6411.4375,2919.4043 c -33.0264,0 -59.6152,26.5888 -59.6152,59.6152 v 413.6504 c 0,33.0265 26.5888,59.6153 59.6152,59.6153 h 413.6523 c 33.0265,0 59.6133,-26.5888 59.6133,-59.6153 v -413.6504 c 0,-33.0264 -26.5868,-59.6152 -59.6133,-59.6152 z m 206.8262,83.873 a 56.016579,56.016579 0 0 1 56.0156,56.0176 56.016579,56.016579 0 0 1 -56.0156,56.0156 56.016579,56.016579 0 0 1 -56.0176,-56.0156 56.016579,56.016579 0 0 1 56.0176,-56.0176 z m -162.7442,129.8125 h 325.4883 c 12.3841,0 22.3535,9.9695 22.3535,22.3536 v 67.3261 c 0,12.3842 -9.9694,22.3535 -22.3535,22.3535 h -325.4883 c -12.3841,0 -22.3554,-9.9693 -22.3554,-22.3535 v -67.3261 c 0,-12.3841 9.9713,-22.3536 22.3554,-22.3536 z m 162.7442,129.8125 a 56.016579,56.016579 0 0 1 56.0156,56.0176 56.016579,56.016579 0 0 1 -56.0156,56.0156 56.016579,56.016579 0 0 1 -56.0176,-56.0156 56.016579,56.016579 0 0 1 56.0176,-56.0176 z" />
      <path
         id="rect35123-6"
         style="fill:#eaeef1;fill-opacity:1;fill-rule:evenodd;stroke:none;stroke-width:4.8;stroke-linecap:round;stroke-linejoin:bevel;stroke-miterlimit:4;stroke-dasharray:none;stroke-dashoffset:0;stroke-opacity:1;paint-order:fill markers stroke"
         d="m -7025.9375,2919.4043 c -33.0264,0 -59.6152,26.5888 -59.6152,59.6152 v 413.6504 c 0,33.0265 26.5888,59.6153 59.6152,59.6153 h 413.6504 c 33.0265,0 59.6152,-26.5888 59.6152,-59.6153 v -413.6504 c 0,-33.0264 -26.5887,-59.6152 -59.6152,-59.6152 z m 115.5508,105.1855 c 5.7141,0 11.4281,2.1899 15.8066,6.5684 l 75.4688,75.4688 75.4668,-75.4688 c 4.3784,-4.3785 10.0944,-6.5683 15.8086,-6.5684 5.7141,0 11.4282,2.19 15.8066,6.5684 l 47.6055,47.6055 c 8.7569,8.7569 8.7569,22.8563 0,31.6133 l -75.4688,75.4687 75.4668,75.4668 c 8.757,8.757 8.7569,22.8564 0,31.6133 l -47.6054,47.6074 c -8.757,8.757 -22.8564,8.757 -31.6133,0 l -75.4668,-75.4687 -75.4688,75.4687 c -8.7569,8.757 -22.8563,8.757 -31.6133,0 l -47.6054,-47.6055 c -8.7569,-8.7568 -8.757,-22.8563 0,-31.6132 l 75.4687,-75.4688 -75.4687,-75.4687 c -8.757,-8.757 -8.757,-22.8564 0,-31.6133 l 47.6054,-47.6055 c 4.3785,-4.3784 10.0925,-6.5683 15.8067,-6.5684 z" />
    </g>
  </g>
</svg>
