<?xml version="1.0" encoding="UTF-8" standalone="no"?>
<svg
   xmlns:dc="http://purl.org/dc/elements/1.1/"
   xmlns:cc="http://creativecommons.org/ns#"
   xmlns:rdf="http://www.w3.org/1999/02/22-rdf-syntax-ns#"
   xmlns:svg="http://www.w3.org/2000/svg"
   xmlns="http://www.w3.org/2000/svg"
   xmlns:sodipodi="http://sodipodi.sourceforge.net/DTD/sodipodi-0.dtd"
   xmlns:inkscape="http://www.inkscape.org/namespaces/inkscape"
   sodipodi:docname="chimica_scalable.svg"
   inkscape:version="1.0 (4035a4fb49, 2020-05-01)"
   id="svg27864"
   version="1.1"
   viewBox="0 0 67.73333 67.73333"
   height="67.73333mm"
   width="67.73333mm">
  <defs
     id="defs27858" />
  <sodipodi:namedview
     inkscape:window-maximized="0"
     inkscape:window-y="24"
     inkscape:window-x="960"
     inkscape:window-height="1029"
     inkscape:window-width="956"
     fit-margin-bottom="0"
     fit-margin-right="0"
     fit-margin-left="0"
     fit-margin-top="0"
     showgrid="false"
     inkscape:document-rotation="0"
     inkscape:current-layer="layer1"
     inkscape:document-units="mm"
     inkscape:cy="425.00183"
     inkscape:cx="165.60543"
     inkscape:zoom="0.7"
     inkscape:pageshadow="2"
     inkscape:pageopacity="0.0"
     borderopacity="1.0"
     bordercolor="#666666"
     pagecolor="#ffffff"
     id="base" />
  <metadata
     id="metadata27861">
    <rdf:RDF>
      <cc:Work
         rdf:about="">
        <dc:format>image/svg+xml</dc:format>
        <dc:type
           rdf:resource="http://purl.org/dc/dcmitype/StillImage" />
        <dc:title></dc:title>
        <cc:license
           rdf:resource="http://creativecommons.org/licenses/by-sa/4.0/" />
      </cc:Work>
      <cc:License
         rdf:about="http://creativecommons.org/licenses/by-sa/4.0/">
        <cc:permits
           rdf:resource="http://creativecommons.org/ns#Reproduction" />
        <cc:permits
           rdf:resource="http://creativecommons.org/ns#Distribution" />
        <cc:requires
           rdf:resource="http://creativecommons.org/ns#Notice" />
        <cc:requires
           rdf:resource="http://creativecommons.org/ns#Attribution" />
        <cc:permits
           rdf:resource="http://creativecommons.org/ns#DerivativeWorks" />
        <cc:requires
           rdf:resource="http://creativecommons.org/ns#ShareAlike" />
      </cc:License>
    </rdf:RDF>
  </metadata>
  <g
     transform="translate(643.73121,560.95446)"
     id="layer1"
     inkscape:groupmode="layer"
     inkscape:label="Livello 1">
    <g
       transform="matrix(0.03307292,0,0,0.03307292,-462.28959,-622.29132)"
       id="g28520">
      <rect
         y="1854.5947"
         x="-5486.1084"
         height="2047.9998"
         width="2047.9998"
         id="rect7827"
         style="fill:#455a64;fill-opacity:1;stroke:none;stroke-width:18.4195;stroke-linecap:round;stroke-linejoin:round;stroke-miterlimit:4;stroke-dasharray:none;stroke-opacity:1;paint-order:normal" />
      <path
         inkscape:connector-curvature="0"
         id="path8838"
         d="m -4675.4997,2309.5422 c -26.8841,0 -48.5273,21.6416 -48.5273,48.5254 0,16.1105 7.7751,30.3382 19.791,39.1543 1.0128,0.8812 2.058,1.7278 3.1426,2.5234 1.0098,0.8783 2.0536,1.7185 3.1347,2.5117 1.0079,0.8766 2.0481,1.7179 3.127,2.5098 1.0052,0.8744 2.0433,1.7118 3.1191,2.5019 1.0134,0.8819 2.0594,1.7272 3.1445,2.5235 1.0062,0.8747 2.0443,1.7136 3.1211,2.5039 1.0039,0.8727 2.039,1.7093 3.1133,2.498 1.0033,0.8724 2.0397,1.7076 3.1133,2.4961 1.0083,0.877 2.0495,1.7176 3.1289,2.5098 0.7374,0.6408 1.4938,1.2597 2.2695,1.8554 h -11.3847 v 194.3555 150.0723 l -85.2539,147.5058 -165.7188,287.2735 c -29.3824,50.8869 -29.3932,113.5829 -0.029,164.4805 10.7557,18.6431 24.8653,34.6511 41.3027,47.4746 0.9969,0.8165 2.0124,1.6081 3.0274,2.4004 1.023,0.8382 2.0653,1.6521 3.1074,2.4648 0.01,0.01 0.019,0.017 0.029,0.025 0.3716,0.2897 0.7354,0.5906 1.1094,0.8769 0.6236,0.5015 1.2502,0.9982 1.8809,1.4903 1.0132,0.8301 2.0441,1.6365 3.0761,2.4414 0.9856,0.8072 1.9908,1.5878 2.9942,2.3711 1.02,0.8362 2.0584,1.6466 3.0976,2.457 1.0062,0.8242 2.0298,1.6247 3.0547,2.4238 0.01,0.01 0.021,0.017 0.031,0.025 0.3626,0.2826 0.7171,0.5761 1.082,0.8555 0.6217,0.5001 1.2463,0.9957 1.875,1.4863 1.0185,0.8347 2.0561,1.6442 3.0938,2.4531 0.01,0.01 0.017,0.014 0.025,0.021 0.3593,0.28 0.7107,0.5708 1.0722,0.8477 0.6208,0.4994 1.2453,0.9945 1.8731,1.4844 1.0053,0.824 2.0286,1.623 3.0527,2.4218 0.9972,0.817 2.0137,1.6083 3.0293,2.4004 1.0031,0.8219 2.025,1.6194 3.0469,2.416 0.9922,0.8127 2.003,1.6008 3.0137,2.3887 0.9955,0.8155 2.0093,1.6059 3.0234,2.3965 0.9969,0.8165 2.0118,1.6089 3.0274,2.4004 0.011,0.01 0.021,0.019 0.031,0.027 0.3469,0.2703 0.686,0.5511 1.0351,0.8184 0.6278,0.5052 1.2595,1.0047 1.8945,1.5 0.9995,0.8191 2.017,1.6144 3.0352,2.4082 0.9934,0.8138 2.0055,1.6038 3.0176,2.3926 0.9843,0.8062 1.9876,1.5875 2.9902,2.3691 0.9792,0.8023 1.9752,1.5816 2.9727,2.3594 0.9962,0.8165 2.0122,1.6073 3.0273,2.3984 0.9872,0.8087 1.9923,1.5932 2.9981,2.377 0.9866,0.8082 1.9908,1.5917 2.9961,2.375 0.9779,0.801 1.9725,1.579 2.9687,2.3554 0.9824,0.8049 1.9835,1.5853 2.9844,2.3653 0.9854,0.8074 1.99,1.5907 2.9941,2.373 0.9825,0.8048 1.9833,1.5854 2.9844,2.3653 0.9737,0.7976 1.965,1.5726 2.957,2.3457 0.9857,0.8075 1.9897,1.5907 2.9942,2.373 0.9716,0.7958 1.9612,1.5686 2.9511,2.3399 0.9808,0.8035 1.981,1.5828 2.9805,2.3613 0.9771,0.8003 1.9712,1.5781 2.9668,2.3535 0.9568,0.7837 1.9316,1.543 2.9063,2.3027 0.9841,0.8068 1.9852,1.5897 2.9882,2.3711 0.9668,0.7921 1.9506,1.5606 2.9356,2.3282 0.9873,0.8092 1.9935,1.5934 3,2.3769 0.01,0.01 0.019,0.017 0.029,0.025 0.3116,0.2425 0.6163,0.4944 0.9297,0.7344 0.6378,0.5138 1.28,1.0221 1.9258,1.5254 0.9883,0.8103 1.9942,1.5983 3.0019,2.3828 0.9704,0.7947 1.9583,1.5661 2.9473,2.3359 0.01,0.01 0.019,0.017 0.029,0.025 0.3065,0.2384 0.6058,0.4866 0.914,0.7227 0.6438,0.5186 1.2916,1.0312 1.9434,1.539 0.9773,0.8011 1.9725,1.5799 2.9687,2.3555 0.9579,0.7846 1.9342,1.5465 2.9102,2.3066 0.9692,0.7943 1.9555,1.5649 2.9434,2.334 0.9581,0.785 1.9337,1.5463 2.9101,2.3067 0.9689,0.794 1.9557,1.5631 2.9434,2.332 0.9729,0.797 1.9613,1.5721 2.9531,2.3437 0.01,0.01 0.013,0.01 0.019,0.016 0.2949,0.2293 0.5824,0.4682 0.8789,0.6953 0.6609,0.5327 1.3247,1.061 1.9942,1.582 0.955,0.7823 1.9289,1.5412 2.9023,2.2988 0.9569,0.784 1.931,1.5456 2.9063,2.3047 0.9609,0.7874 1.9383,1.5521 2.9179,2.3145 0.9629,0.7888 1.9442,1.5547 2.9258,2.3183 0.9475,0.7759 1.9113,1.5298 2.877,2.2813 0.9425,0.7722 1.9027,1.5216 2.8633,2.2695 0.9687,0.7942 1.9555,1.5655 2.9433,2.334 0.9539,0.7813 1.9241,1.5405 2.8965,2.2969 0.946,0.7748 1.9088,1.5271 2.873,2.2773 0.9386,0.769 1.895,1.5151 2.8516,2.2598 0.9626,0.7891 1.9422,1.5548 2.9238,2.3183 0.9446,0.7738 1.9062,1.5263 2.8692,2.2754 0.949,0.7777 1.9152,1.5325 2.8828,2.2852 0.9508,0.779 1.9172,1.5372 2.8867,2.291 0.9426,0.7721 1.9023,1.5203 2.8633,2.2676 0.9388,0.7691 1.8944,1.5152 2.8516,2.2598 0.9398,0.77 1.8972,1.5182 2.8554,2.2636 0.9536,0.7816 1.9239,1.5408 2.8965,2.2969 0.9293,0.7612 1.8749,1.4993 2.8223,2.2363 0.9531,0.7813 1.9224,1.5412 2.8945,2.2969 0.9324,0.7637 1.8834,1.505 2.834,2.2441 0.9435,0.7731 1.903,1.5255 2.8652,2.2735 0.9228,0.7558 1.8621,1.4889 2.8028,2.2207 0.9355,0.767 1.8877,1.5117 2.8418,2.2539 0.9478,0.7771 1.9139,1.5317 2.8808,2.2832 0.9289,0.761 1.8731,1.4999 2.8203,2.2363 0.9372,0.768 1.8918,1.5149 2.8477,2.2578 0.9267,0.7593 1.8694,1.4958 2.8144,2.2305 0.9278,0.7603 1.8723,1.4988 2.8184,2.2344 0.9341,0.7656 1.8851,1.5094 2.8379,2.25 0.9434,0.7731 1.9027,1.524 2.8652,2.2715 0.01,0.01 0.014,0.013 0.021,0.019 0.2438,0.1893 0.4815,0.3866 0.7266,0.5742 0.6659,0.5377 1.3363,1.0687 2.0117,1.5938 0.9285,0.7611 1.8732,1.5001 2.8203,2.2363 0.9207,0.7546 1.8579,1.4867 2.7969,2.2168 0.9409,0.7715 1.8973,1.5218 2.8574,2.2676 0.9278,0.76 1.8719,1.4994 2.8184,2.2343 0.9174,0.7515 1.8513,1.4822 2.7871,2.209 0.9259,0.7586 1.8679,1.497 2.8125,2.2305 0.9134,0.7482 1.8437,1.4735 2.7754,2.1973 0.9196,0.7536 1.8548,1.486 2.7929,2.2148 0.9252,0.7581 1.8667,1.4956 2.8106,2.2285 0.9101,0.7456 1.8353,1.4703 2.7636,2.1914 0.9137,0.7488 1.8435,1.4771 2.7754,2.2012 0.9228,0.7564 1.8612,1.4916 2.8028,2.2226 0.9187,0.7529 1.8536,1.4852 2.791,2.2129 0.9084,0.7443 1.833,1.4679 2.7597,2.1875 0.9174,0.7518 1.8511,1.4824 2.7872,2.209 0.9087,0.7445 1.8326,1.4677 2.7597,2.1875 0.9077,0.7438 1.8318,1.4665 2.7578,2.1856 0.904,0.7409 1.8239,1.4614 2.7461,2.1777 0.9133,0.7488 1.8435,1.4756 2.7754,2.1992 0.9137,0.749 1.843,1.4775 2.7754,2.2012 0.9017,0.7388 1.8183,1.4577 2.7383,2.1719 0.9103,0.746 1.8367,1.4704 2.7656,2.1914 0.8992,0.7368 1.813,1.4537 2.7305,2.166 0.9121,0.7476 1.8405,1.4749 2.7715,2.1973 0.8973,0.7351 1.8109,1.4495 2.7265,2.1601 0.9059,0.7424 1.8275,1.4644 2.752,2.1817 0.8956,0.7337 1.8068,1.447 2.7207,2.1562 0.8944,0.7331 1.8041,1.4458 2.7168,2.1543 0.9151,0.7503 1.845,1.4806 2.7793,2.2051 0.8916,0.7303 1.7991,1.4407 2.709,2.1465 0.8921,0.731 1.7985,1.442 2.7089,2.1484 0.8946,0.7332 1.8038,1.4459 2.7168,2.1543 0.9087,0.7448 1.8321,1.4703 2.7598,2.1895 0.01,0.01 0.02,0.015 0.029,0.023 0.1927,0.1493 0.3807,0.305 0.5742,0.4531 0.6913,0.5593 1.3877,1.1117 2.0899,1.6563 0.8992,0.7368 1.8124,1.4544 2.7304,2.166 0.8773,0.7185 1.769,1.4169 2.6641,2.1113 0.8988,0.7369 1.8128,1.4526 2.7305,2.1641 0.8945,0.7329 1.8036,1.4465 2.7168,2.1543 0.8835,0.7238 1.7817,1.4277 2.6836,2.1269 0.8942,0.7328 1.8018,1.4468 2.7148,2.1543 0.8691,0.7119 1.7538,1.4038 2.6406,2.0918 0.8945,0.7335 1.8035,1.4462 2.7168,2.1543 0.901,0.7384 1.8162,1.4574 2.7364,2.1699 0.01,0 0.01,0.01 0.014,0.012 0.1784,0.1381 0.3521,0.2827 0.5312,0.4199 0.6887,0.5575 1.3822,1.1078 2.082,1.6504 0.8922,0.7313 1.7999,1.4425 2.711,2.1484 0.8763,0.7179 1.7675,1.416 2.6621,2.1094 0.8949,0.7334 1.8027,1.4505 2.7168,2.1582 0.01,0 0.011,0.01 0.016,0.012 0.1725,0.1336 0.3404,0.2737 0.5136,0.4062 0.6931,0.5613 1.3914,1.1143 2.0957,1.6602 0.8877,0.7275 1.7908,1.4346 2.6973,2.1367 0.8625,0.7065 1.7389,1.3938 2.6192,2.0762 0.8924,0.7317 1.7993,1.4464 2.7109,2.1523 0.8785,0.7196 1.7708,1.4207 2.668,2.1153 0.01,0.01 0.017,0.014 0.025,0.022 0.1653,0.1278 0.3263,0.2616 0.4922,0.3886 0.6946,0.5627 1.3953,1.117 2.1015,1.6641 0.8889,0.7285 1.7912,1.4398 2.6992,2.1426 0.01,0 0.012,0.01 0.018,0.014 0.1627,0.1259 0.3211,0.2578 0.4844,0.3829 0.7039,0.5702 1.4131,1.1332 2.1289,1.6875 0.8679,0.7109 1.7486,1.4036 2.6348,2.0898 0.879,0.7203 1.772,1.4223 2.6699,2.1172 0.01,0.01 0.016,0.013 0.023,0.019 0.1587,0.1228 0.3134,0.2511 0.4727,0.3731 0.6925,0.5611 1.3916,1.1147 2.0957,1.6601 0.8761,0.7183 1.7652,1.4165 2.6601,2.1094 0.8719,0.7144 1.7579,1.4103 2.6485,2.0996 0.852,0.698 1.7179,1.3768 2.5878,2.0508 0.8835,0.7243 1.781,1.4305 2.6836,2.1289 0.01,0.01 0.019,0.017 0.029,0.025 0.1513,0.117 0.2992,0.2391 0.4511,0.3555 0.692,0.5608 1.3901,1.1131 2.0938,1.6582 0.8819,0.723 1.7766,1.4278 2.6777,2.125 0.01,0.01 0.017,0.014 0.025,0.021 0.1489,0.1151 0.294,0.2354 0.4434,0.3496 0.7035,0.5704 1.4132,1.1337 2.1289,1.6876 0.8502,0.6965 1.7138,1.3744 2.582,2.0468 0.876,0.7183 1.767,1.4189 2.6621,2.1114 0.8529,0.6985 1.7189,1.3786 2.5899,2.0527 0.8765,0.7183 1.7663,1.419 2.6621,2.1113 v 0 c 0.1418,0.1096 0.2795,0.225 0.4218,0.334 0.6937,0.5625 1.394,1.1157 2.0997,1.6621 0.8647,0.7091 1.7433,1.4002 2.6269,2.0839 0.8716,0.7143 1.7558,1.4112 2.6465,2.0997 0,0 0.01,0.01 0.01,0.01 0.1379,0.1065 0.2718,0.2183 0.4102,0.3242 0.7114,0.5771 1.4282,1.1471 2.1523,1.707 0.011,0.01 0.022,0.018 0.033,0.027 0.1364,0.1054 0.2694,0.2155 0.4062,0.3203 0.7076,0.5739 1.4206,1.1383 2.1407,1.6953 0.8604,0.705 1.734,1.3926 2.6132,2.0723 0.01,0.01 0.014,0.013 0.022,0.019 0.1338,0.1034 0.2641,0.2116 0.3984,0.3144 0.7094,0.5756 1.4244,1.1428 2.1465,1.7012 0.8386,0.687 1.6903,1.3567 2.5468,2.0195 0.8568,0.7025 1.728,1.3873 2.6036,2.0645 0.8525,0.6986 1.7186,1.3792 2.5898,2.0527 0.8424,0.6902 1.6979,1.3618 2.5586,2.0274 0.8532,0.6992 1.7179,1.3807 2.5898,2.0547 0.8404,0.6884 1.6942,1.3596 2.5528,2.0234 0.8511,0.6975 1.7141,1.3786 2.584,2.0508 0.8376,0.6861 1.6891,1.3541 2.5449,2.0156 0.8508,0.6972 1.7143,1.377 2.584,2.0488 0.01,0.01 0.017,0.015 0.025,0.022 0.1207,0.093 0.2383,0.1905 0.3593,0.2832 0.7006,0.5688 1.4079,1.1301 2.1211,1.6817 0.8393,0.6881 1.6931,1.3581 2.5508,2.0214 0.8434,0.6916 1.7005,1.3649 2.5625,2.0313 0.8347,0.6842 1.6821,1.3502 2.5352,2.0098 0.8418,0.6902 1.6981,1.3623 2.5586,2.0273 0.8334,0.6832 1.6794,1.3494 2.5312,2.0078 0.8307,0.6811 1.6744,1.3455 2.5235,2.002 0.8505,0.6975 1.7141,1.3771 2.5839,2.0488 0.8269,0.6773 1.6667,1.3374 2.5118,1.9902 0.8301,0.6804 1.6729,1.3445 2.5214,2 0.8272,0.678 1.6683,1.3389 2.5137,1.9922 0.8252,0.6765 1.6644,1.3344 2.5078,1.9863 0.8364,0.686 1.6859,1.3551 2.541,2.0157 0.8333,0.683 1.6794,1.35 2.5313,2.0078 0.8314,0.6813 1.6753,1.3458 2.5254,2.0019 0.8322,0.6818 1.6764,1.3475 2.5273,2.0039 0.01,0 0.011,0.011 0.018,0.016 0.1,0.077 0.1968,0.1577 0.2969,0.2343 0.7105,0.5775 1.4283,1.1441 2.1523,1.7032 0.8197,0.6718 1.6524,1.3274 2.4903,1.9746 0.8297,0.6803 1.671,1.345 2.5195,2 0.8299,0.6801 1.6728,1.3433 2.5215,1.998 0.01,0.01 0.018,0.016 0.027,0.023 0.095,0.073 0.1879,0.1497 0.2832,0.2226 0.7133,0.5799 1.433,1.1517 2.1601,1.7129 0.8294,0.6797 1.6714,1.3439 2.5196,1.9981 0.01,0.01 0.016,0.013 0.023,0.02 0.092,0.071 0.1827,0.1458 0.2754,0.2168 0.7166,0.5827 1.4393,1.157 2.1699,1.7207 0.8142,0.6671 1.6402,1.3165 2.4726,1.959 0.8136,0.6668 1.6389,1.3168 2.4708,1.959 0.814,0.6674 1.6401,1.3182 2.4726,1.9609 0.8213,0.6734 1.6561,1.3304 2.4961,1.9785 0.8095,0.6634 1.6313,1.3104 2.459,1.9492 0.82,0.6724 1.6533,1.3276 2.4922,1.9746 0.8058,0.6603 1.6232,1.3056 2.4472,1.9414 0.8182,0.6708 1.6475,1.3254 2.4844,1.9707 0.8175,0.6699 1.6461,1.3243 2.4824,1.9688 0.01,0.01 0.014,0.012 0.021,0.018 0.08,0.062 0.1581,0.1261 0.2383,0.1875 0.7198,0.5857 1.4474,1.1624 2.1817,1.7285 0.8056,0.6601 1.6232,1.3041 2.4472,1.9394 0.8127,0.666 1.6374,1.3164 2.4688,1.9571 0.802,0.6569 1.6152,1.2993 2.4355,1.9316 0.8012,0.6565 1.6142,1.2979 2.4336,1.9297 0.8114,0.665 1.6347,1.3154 2.4649,1.9551 0.8087,0.6625 1.6295,1.31 2.457,1.9472 0,0 0.01,0.01 0.014,0.012 0.072,0.055 0.1412,0.113 0.2129,0.1679 0.7235,0.5891 1.4529,1.1694 2.1914,1.7383 0.01,0.01 0.021,0.017 0.031,0.025 0.07,0.054 0.1387,0.1102 0.209,0.1641 0.7195,0.5858 1.4454,1.1626 2.1797,1.7285 0.7988,0.6546 1.6105,1.2921 2.4277,1.9219 0.803,0.658 1.6158,1.3026 2.4375,1.9355 0.7966,0.6527 1.6049,1.2882 2.4199,1.916 0.8023,0.6574 1.6145,1.3014 2.4356,1.9336 0.01,0.01 0.017,0.014 0.025,0.021 0.064,0.05 0.127,0.1011 0.1914,0.1504 0.7122,0.5801 1.4332,1.1507 2.1601,1.7109 0.7916,0.6491 1.5944,1.2819 2.4043,1.9063 0.8002,0.6562 1.6127,1.2968 2.4317,1.9277 0.8003,0.656 1.6125,1.2971 2.4316,1.9277 0.7855,0.6435 1.5812,1.2717 2.3848,1.8907 0.7895,0.6472 1.5905,1.2799 2.3984,1.9023 0.8057,0.6605 1.6224,1.3069 2.4473,1.9414 0,0 0.01,0.01 0.012,0.01 0.056,0.043 0.1101,0.088 0.166,0.1308 0.7173,0.5847 1.4433,1.1586 2.1758,1.7227 0.7949,0.6516 1.6003,1.2878 2.414,1.9141 0.7841,0.6423 1.5805,1.271 2.3829,1.8886 0.7807,0.6398 1.5721,1.2657 2.371,1.8809 0.7915,0.6488 1.5961,1.2828 2.4063,1.9062 0.779,0.6383 1.568,1.2634 2.3652,1.877 0.7904,0.6478 1.5913,1.2819 2.4004,1.9043 0.01,0.01 0.02,0.015 0.029,0.023 0.048,0.037 0.095,0.075 0.1426,0.1114 0.7211,0.588 1.4488,1.1655 2.1855,1.7324 0.7787,0.6381 1.5683,1.2616 2.3653,1.875 0.7875,0.6455 1.5862,1.2763 2.3925,1.8965 0.01,0.01 0.019,0.017 0.029,0.025 0.044,0.034 0.088,0.069 0.1328,0.1035 0.4364,0.3559 0.8817,0.7004 1.3242,1.0488 h 839.0078 v -956.5234 c -0.013,-0.01 -0.026,-0.021 -0.039,-0.031 -0.7237,-0.612 -1.4594,-1.2099 -2.2188,-1.7793 -0.7292,-0.6172 -1.4709,-1.2211 -2.2363,-1.7949 -0.7221,-0.6112 -1.4573,-1.2067 -2.2149,-1.7754 -0.7404,-0.6276 -1.4936,-1.2394 -2.2714,-1.8223 -0.7285,-0.6165 -1.4698,-1.2178 -2.2344,-1.791 -0.733,-0.6207 -1.4785,-1.2278 -2.2481,-1.8047 -0.7328,-0.6206 -1.4785,-1.2259 -2.248,-1.8027 -0.7386,-0.6256 -1.4899,-1.2354 -2.2656,-1.8164 -0.7287,-0.6169 -1.4695,-1.2194 -2.2344,-1.793 -0.7418,-0.6288 -1.496,-1.2423 -2.2754,-1.8261 -0.741,-0.6277 -1.495,-1.2395 -2.2734,-1.8223 -0.7375,-0.6244 -1.4872,-1.2344 -2.2618,-1.8145 -0.7448,-0.6308 -1.5024,-1.2484 -2.2851,-1.8339 -0.7317,-0.6192 -1.476,-1.2234 -2.2442,-1.7989 -0.7466,-0.6329 -1.5063,-1.2505 -2.291,-1.8379 -0.7405,-0.6272 -1.4935,-1.2397 -2.2715,-1.8222 -0.7421,-0.629 -1.4976,-1.2422 -2.2773,-1.8262 -0.7501,-0.6359 -1.5123,-1.2577 -2.3008,-1.8477 -0.7441,-0.6302 -1.5013,-1.245 -2.2832,-1.83 -0.7574,-0.6418 -1.5277,-1.2703 -2.3242,-1.8653 -0.7403,-0.6262 -1.492,-1.2388 -2.2695,-1.8203 -0.7455,-0.6315 -1.5038,-1.2478 -2.2871,-1.834 -0.7599,-0.6441 -1.5329,-1.2741 -2.3321,-1.8711 -0.7391,-0.6255 -1.4913,-1.2354 -2.2676,-1.8164 -0.7627,-0.6468 -1.5374,-1.2795 -2.3398,-1.8789 -0.7527,-0.6373 -1.5173,-1.2605 -2.3086,-1.8515 -0.7538,-0.6384 -1.52,-1.2636 -2.3125,-1.8555 -0.7555,-0.6398 -1.524,-1.2662 -2.3184,-1.8594 -0.7543,-0.639 -1.5211,-1.2649 -2.3144,-1.8574 -0.7565,-0.6409 -1.5248,-1.2672 -2.3203,-1.8613 -0.7579,-0.6422 -1.5292,-1.27 -2.3262,-1.8653 -0.7635,-0.647 -1.5405,-1.2795 -2.3437,-1.8789 -0.7545,-0.6389 -1.5212,-1.2649 -2.3145,-1.8574 -0.7601,-0.6444 -1.5325,-1.2739 -2.332,-1.8711 -0.7618,-0.6459 -1.5385,-1.2765 -2.3399,-1.875 -0.762,-0.6462 -1.5362,-1.2782 -2.3379,-1.8769 -0.7658,-0.6497 -1.5456,-1.2851 -2.3515,-1.8868 -0.7618,-0.6459 -1.5366,-1.2764 -2.3379,-1.875 -0.7697,-0.653 -1.5532,-1.2898 -2.3633,-1.8945 -0.7624,-0.6466 -1.5378,-1.2779 -2.3398,-1.8769 -0.7731,-0.6562 -1.5592,-1.297 -2.3731,-1.9043 -0.7678,-0.6512 -1.5494,-1.2876 -2.3574,-1.8907 -0.7695,-0.6528 -1.5533,-1.2901 -2.3633,-1.8945 -0.7693,-0.6527 -1.5516,-1.2902 -2.3613,-1.8945 -0.7741,-0.657 -1.562,-1.2983 -2.377,-1.9063 -0.7699,-0.6534 -1.5528,-1.2916 -2.3632,-1.8965 -0.777,-0.6596 -1.5666,-1.3038 -2.3848,-1.914 -0.775,-0.6578 -1.5648,-1.2996 -2.3809,-1.9082 -0.771,-0.6544 -1.5556,-1.2927 -2.3672,-1.8985 -0.7822,-0.6645 -1.5783,-1.3133 -2.4023,-1.9277 -0.7741,-0.6571 -1.5619,-1.2982 -2.377,-1.9063 -0.7829,-0.6649 -1.5794,-1.3148 -2.4043,-1.9296 -0.7763,-0.6591 -1.5672,-1.3024 -2.3847,-1.9121 -0.782,-0.6643 -1.5786,-1.3116 -2.4024,-1.9258 -0.7821,-0.6644 -1.5784,-1.3135 -2.4023,-1.9278 -0.7796,-0.6621 -1.5734,-1.3075 -2.3945,-1.9199 -0.7841,-0.6663 -1.5822,-1.3175 -2.4082,-1.9336 -0.7868,-0.6687 -1.5889,-1.3195 -2.418,-1.9375 -0.7871,-0.6688 -1.5885,-1.3213 -2.418,-1.9394 -0.7841,-0.6662 -1.582,-1.3178 -2.4082,-1.9336 -0.7876,-0.6695 -1.5899,-1.3208 -2.4199,-1.9395 -0.7914,-0.6728 -1.5974,-1.3297 -2.4316,-1.9512 -0.7888,-0.6701 -1.5926,-1.324 -2.4239,-1.9433 -0.79,-0.6715 -1.595,-1.3268 -2.4277,-1.9473 -0.787,-0.6691 -1.5886,-1.321 -2.418,-1.9394 -0.7948,-0.6764 -1.6052,-1.3344 -2.4433,-1.959 -0.7935,-0.675 -1.601,-1.3336 -2.4375,-1.957 -0.7957,-0.677 -1.6063,-1.3359 -2.4453,-1.961 -0.7925,-0.6741 -1.6002,-1.3304 -2.4356,-1.9531 -0.8008,-0.6817 -1.6162,-1.3455 -2.4609,-1.9746 -0.7974,-0.6784 -1.6103,-1.3386 -2.4512,-1.9649 -0.7974,-0.6784 -1.6103,-1.3404 -2.4512,-1.9668 -0.7986,-0.6796 -1.6127,-1.3413 -2.4551,-1.9687 -0.7979,-0.6792 -1.6096,-1.3417 -2.4511,-1.9688 -0.8076,-0.6878 -1.6321,-1.3558 -2.4844,-1.9902 -0.798,-0.6791 -1.6115,-1.3399 -2.4531,-1.9668 -0.8026,-0.6835 -1.6201,-1.3497 -2.4668,-1.9805 -0.8076,-0.6879 -1.6321,-1.3577 -2.4844,-1.9921 -0.8028,-0.6836 -1.6198,-1.3498 -2.4668,-1.9805 -0.8089,-0.6891 -1.6345,-1.3587 -2.4883,-1.9942 -0.8065,-0.6869 -1.6293,-1.3547 -2.4804,-1.9882 -0.805,-0.6858 -1.6252,-1.3538 -2.4747,-1.9864 -0.8134,-0.6934 -1.6431,-1.3667 -2.5019,-2.0058 -0.8079,-0.6883 -1.6318,-1.3575 -2.4844,-1.9922 -0.8144,-0.6942 -1.644,-1.37 -2.5039,-2.0098 -0.8128,-0.6925 -1.6419,-1.3675 -2.5,-2.0058 -0.8138,-0.6934 -1.6447,-1.3688 -2.5039,-2.0078 -0.8111,-0.6911 -1.638,-1.3649 -2.4941,-2.002 -0.8164,-0.696 -1.6497,-1.3724 -2.5118,-2.0137 -0.8162,-0.6958 -1.6498,-1.3725 -2.5117,-2.0136 -0.8191,-0.6984 -1.6544,-1.3783 -2.5195,-2.0215 -0.8143,-0.6941 -1.6442,-1.3701 -2.5039,-2.0098 -0.825,-0.7037 -1.6674,-1.3873 -2.5391,-2.0352 -0.8194,-0.6982 -1.656,-1.3782 -2.5215,-2.0214 -0.8164,-0.6961 -1.6495,-1.3743 -2.5117,-2.0157 -0.8228,-0.702 -1.662,-1.3848 -2.5313,-2.0312 -0.8254,-0.7043 -1.6688,-1.3888 -2.541,-2.0371 -0.822,-0.7012 -1.6609,-1.3837 -2.5293,-2.0293 -0.826,-0.7049 -1.6681,-1.3902 -2.541,-2.0391 -0.8276,-0.7062 -1.6723,-1.393 -2.5469,-2.0429 -0.8261,-0.7049 -1.67,-1.3903 -2.5429,-2.0391 -0.8279,-0.7065 -1.674,-1.3928 -2.5489,-2.043 -0.8258,-0.7049 -1.6683,-1.3902 -2.541,-2.039 -0.8321,-0.7107 -1.6809,-1.4009 -2.5605,-2.0547 -0.8326,-0.7109 -1.6824,-1.4008 -2.5625,-2.0547 -0.8275,-0.7065 -1.6724,-1.3927 -2.5469,-2.043 -0.8374,-0.7156 -1.6925,-1.4104 -2.5781,-2.0683 -0.8318,-0.7104 -1.6813,-1.4013 -2.5606,-2.0547 -0.8373,-0.7154 -1.6926,-1.4087 -2.5781,-2.0664 -0.8334,-0.7119 -1.6833,-1.4039 -2.5644,-2.0586 -0.8378,-0.7159 -1.6942,-1.4102 -2.5801,-2.0684 -0.8375,-0.7157 -1.6924,-1.4103 -2.5782,-2.0684 -0.8427,-0.7202 -1.7041,-1.4201 -2.5957,-2.082 -0.8354,-0.7136 -1.6888,-1.4062 -2.5722,-2.0625 -0.8411,-0.7191 -1.7002,-1.4172 -2.5899,-2.0781 -0.8447,-0.7223 -1.7077,-1.4224 -2.6015,-2.0859 -0.8421,-0.7198 -1.7029,-1.4187 -2.5938,-2.0801 -0.8405,-0.7186 -1.6987,-1.4177 -2.5879,-2.0781 -0.8476,-0.7251 -1.7143,-1.4279 -2.6113,-2.0938 -0.8461,-0.7235 -1.7102,-1.4253 -2.6055,-2.0898 -0.8468,-0.7242 -1.7132,-1.4267 -2.6093,-2.0918 -0.8476,-0.7249 -1.7125,-1.43 -2.6094,-2.0957 -0.85,-0.727 -1.7195,-1.4301 -2.6192,-2.0977 -0.849,-0.7262 -1.7166,-1.4327 -2.6152,-2.0996 -0.8493,-0.7266 -1.7182,-1.4305 -2.6172,-2.0977 -0.8495,-0.727 -1.7179,-1.432 -2.6172,-2.0996 -0.8555,-0.7324 -1.7307,-1.443 -2.6367,-2.1152 -0.8524,-0.7294 -1.7245,-1.4359 -2.6269,-2.1055 -0.8565,-0.7331 -1.7317,-1.4463 -2.6387,-2.1191 -0.855,-0.7317 -1.7295,-1.4418 -2.6348,-2.1133 -0.8523,-0.7296 -1.7246,-1.4357 -2.6269,-2.1055 -0.8594,-0.7361 -1.7382,-1.4496 -2.6485,-2.125 -0.8594,-0.736 -1.7381,-1.4497 -2.6484,-2.125 -0.8604,-0.7368 -1.741,-1.451 -2.6523,-2.1269 -0.8588,-0.7354 -1.737,-1.4484 -2.6465,-2.1231 -0.8594,-0.7362 -1.7383,-1.4496 -2.6485,-2.125 -0.8657,-0.7419 -1.7525,-1.4604 -2.6699,-2.1406 -0.8622,-0.7386 -1.7448,-1.4536 -2.6582,-2.1308 -0.8638,-0.7403 -1.7469,-1.458 -2.6621,-2.1368 -0.8659,-0.7421 -1.7524,-1.4602 -2.6699,-2.1406 -0.8681,-0.744 -1.7558,-1.4665 -2.6758,-2.1484 -0.8679,-0.7437 -1.756,-1.4629 -2.6758,-2.1446 -0.8635,-0.74 -1.7472,-1.4562 -2.6621,-2.1347 -0.8759,-0.7514 -1.7723,-1.4799 -2.7012,-2.168 -0.8642,-0.7405 -1.7484,-1.4577 -2.664,-2.1367 -0.8752,-0.7508 -1.7712,-1.4765 -2.6992,-2.1641 -0.8675,-0.7437 -1.7546,-1.4648 -2.6739,-2.1465 -0.8776,-0.7532 -1.7762,-1.4822 -2.707,-2.1718 -0.8736,-0.7493 -1.7691,-1.4739 -2.6953,-2.1602 -0.8748,-0.7504 -1.7697,-1.4787 -2.6973,-2.166 -0.8768,-0.7522 -1.7752,-1.4792 -2.7051,-2.168 -0.8787,-0.7539 -1.7789,-1.4836 -2.7109,-2.1738 -0.8765,-0.7518 -1.7736,-1.4815 -2.7031,-2.1699 -0.8806,-0.7556 -1.7828,-1.4862 -2.7168,-2.1778 -0.876,-0.7515 -1.7723,-1.4797 -2.7012,-2.1679 -0.881,-0.7565 -1.7841,-1.4873 -2.7187,-2.1797 -0.8868,-0.7615 -1.7953,-1.4968 -2.7364,-2.1934 -0.8802,-0.7553 -1.7812,-1.4882 -2.7148,-2.1797 -0.8846,-0.7595 -1.7899,-1.4945 -2.7285,-2.1894 -0.8842,-0.7592 -1.7904,-1.4928 -2.7285,-2.1875 -0.8849,-0.7599 -1.7917,-1.4942 -2.7305,-2.1895 -0.8924,-0.7666 -1.8065,-1.5081 -2.7539,-2.209 -0.8844,-0.7591 -1.7902,-1.4948 -2.7285,-2.1894 -0.8904,-0.7648 -1.803,-1.5038 -2.7481,-2.2031 -0.8875,-0.7623 -1.7963,-1.5 -2.7383,-2.1973 -0.8932,-0.7675 -1.8095,-1.5093 -2.7578,-2.2109 -0.8891,-0.7638 -1.8004,-1.5027 -2.7441,-2.2012 -0.8947,-0.769 -1.8117,-1.512 -2.7617,-2.2149 -0.8931,-0.7674 -1.8078,-1.5113 -2.7559,-2.2128 -0.8933,-0.7678 -1.8094,-1.5091 -2.7578,-2.211 -0.8963,-0.7706 -1.8157,-1.5145 -2.7676,-2.2187 -0.8971,-0.7714 -1.8167,-1.5178 -2.7695,-2.2227 -0.8999,-0.7737 -1.8235,-1.5217 -2.7793,-2.2285 -0.896,-0.7702 -1.8141,-1.5149 -2.7656,-2.2188 -0.9007,-0.7745 -1.8246,-1.5229 -2.7813,-2.2304 -0.8972,-0.7716 -1.8166,-1.5176 -2.7695,-2.2227 -0.9056,-0.7793 -1.8346,-1.5307 -2.7969,-2.2422 -0.9003,-0.7743 -1.8229,-1.5231 -2.7793,-2.2304 -0.9053,-0.7791 -1.8348,-1.5309 -2.7969,-2.2422 -0.9064,-0.7798 -1.8355,-1.5342 -2.7988,-2.2461 -0.9051,-0.7785 -1.8331,-1.5314 -2.7949,-2.2422 -0.9068,-0.7801 -1.8371,-1.534 -2.8008,-2.2461 -0.9038,-0.7776 -1.8307,-1.5282 -2.791,-2.2383 -0.9074,-0.7812 -1.8384,-1.5349 -2.8028,-2.248 -0.911,-0.7846 -1.8459,-1.5419 -2.8144,-2.2578 -0.9108,-0.7842 -1.8443,-1.5423 -2.8125,-2.2579 -0.9121,-0.7852 -1.8487,-1.5432 -2.8184,-2.2597 -0.9125,-0.7857 -1.8481,-1.5449 -2.8183,-2.2617 -0.9142,-0.7872 -1.8522,-1.5457 -2.8242,-2.2637 -0.9151,-0.788 -1.8551,-1.5489 -2.8282,-2.2676 -0.9113,-0.7847 -1.8456,-1.5418 -2.8144,-2.2578 -0.9198,-0.7926 -1.8635,-1.5587 -2.8418,-2.2812 -0.9135,-0.7869 -1.851,-1.5459 -2.8223,-2.2637 -0.9182,-0.7915 -1.8613,-1.5538 -2.8379,-2.2754 -0.9232,-0.7959 -1.8712,-1.5618 -2.8535,-2.2871 -0.9144,-0.7878 -1.8519,-1.549 -2.8242,-2.2676 -0.9244,-0.7973 -1.8738,-1.5645 -2.8574,-2.291 -0.9216,-0.7945 -1.8673,-1.561 -2.8477,-2.2852 -0.926,-0.7985 -1.8778,-1.5674 -2.8633,-2.2949 -0.9227,-0.7953 -1.8698,-1.5642 -2.8515,-2.2891 -0.9237,-0.7963 -1.8727,-1.5633 -2.8555,-2.289 -0.926,-0.7987 -1.8778,-1.5693 -2.8633,-2.2969 -0.9296,-0.8018 -1.8835,-1.5744 -2.873,-2.3047 -0.9288,-0.8008 -1.8826,-1.5733 -2.8711,-2.3027 -0.9293,-0.8013 -1.8839,-1.575 -2.8731,-2.3047 -0.9262,-0.7987 -1.8775,-1.5692 -2.8632,-2.2969 -0.9308,-0.8031 -1.8861,-1.5772 -2.877,-2.3086 -0.931,-0.8034 -1.8878,-1.5769 -2.8789,-2.3086 -0.9354,-0.8074 -1.8965,-1.5854 -2.8926,-2.3203 -0.9339,-0.8058 -1.8943,-1.5828 -2.8887,-2.3164 -0.9321,-0.8044 -1.8884,-1.5801 -2.8808,-2.3125 -0.9381,-0.81 -1.9032,-1.5891 -2.9024,-2.3262 -0.9358,-0.8078 -1.8979,-1.587 -2.8945,-2.3222 -0.936,-0.8082 -1.8977,-1.5867 -2.8945,-2.3223 -0.9377,-0.8099 -1.9017,-1.5892 -2.9004,-2.3262 -0.9418,-0.8136 -1.9107,-1.5958 -2.9141,-2.3359 -0.9397,-0.8116 -1.9052,-1.5936 -2.9062,-2.332 -0.9407,-0.8127 -1.9081,-1.5947 -2.9102,-2.334 -0.9448,-0.8165 -1.917,-1.6013 -2.9238,-2.3438 -0.9403,-0.8123 -1.9065,-1.5949 -2.9082,-2.3339 -0.9466,-0.8183 -1.9189,-1.6057 -2.9277,-2.3497 -0.9464,-0.8179 -1.9192,-1.604 -2.9278,-2.3476 -0.9458,-0.8174 -1.9178,-1.6045 -2.9258,-2.3477 -0.946,-0.8178 -1.9195,-1.6041 -2.9277,-2.3476 -0.9509,-0.8222 -1.9297,-1.6122 -2.9434,-2.3594 -0.9492,-0.8206 -1.9256,-1.6096 -2.9375,-2.3555 -0.9506,-0.8218 -1.9279,-1.6144 -2.9414,-2.3613 -0.9514,-0.8226 -1.929,-1.6139 -2.9433,-2.3613 -0.9517,-0.8229 -1.9308,-1.6136 -2.9453,-2.3614 -0.9512,-0.8225 -1.9294,-1.6137 -2.9434,-2.3613 -0.9571,-0.8281 -1.9421,-1.6249 -2.9629,-2.3769 -0.9542,-0.8253 -1.9356,-1.6195 -2.9531,-2.3692 -0.9534,-0.8248 -1.9346,-1.6178 -2.9512,-2.3672 -0.9607,-0.8316 -1.9496,-1.6317 -2.9746,-2.3867 -0.9569,-0.8279 -1.9423,-1.6231 -2.9629,-2.375 -0.9589,-0.8299 -1.9459,-1.6273 -2.9687,-2.3808 -0.9614,-0.8321 -1.951,-1.6334 -2.9766,-2.3887 -0.959,-0.83 -1.9458,-1.6273 -2.9687,-2.3809 -0.9621,-0.8329 -1.9521,-1.6345 -2.9786,-2.3906 -0.9649,-0.8356 -1.9585,-1.6383 -2.9882,-2.3965 -0.9606,-0.8316 -1.9499,-1.6298 -2.9747,-2.3847 -0.9651,-0.8362 -1.9582,-1.6398 -2.9882,-2.3985 -0.9689,-0.8393 -1.9659,-1.6449 -3,-2.4062 -0.9667,-0.8372 -1.9624,-1.6409 -2.9942,-2.4004 -0.9698,-0.84 -1.9686,-1.6484 -3.0039,-2.4102 -0.9654,-0.8359 -1.96,-1.638 -2.9902,-2.3965 -0.9682,-0.8389 -1.9646,-1.6452 -2.9981,-2.4062 -0.9729,-0.8434 -1.9747,-1.6533 -3.0136,-2.418 -0.9735,-0.8435 -1.9763,-1.6552 -3.0157,-2.4199 -0.9732,-0.8432 -1.9764,-1.6536 -3.0156,-2.418 -0.9716,-0.8418 -1.9724,-1.6507 -3.0097,-2.414 -0.9729,-0.8433 -1.9749,-1.6534 -3.0137,-2.418 -0.9763,-0.8465 -1.9827,-1.6585 -3.0254,-2.4258 -0.9772,-0.8473 -1.9836,-1.6599 -3.0274,-2.4277 -0.9798,-0.8496 -1.9884,-1.6658 -3.0351,-2.4356 -0.976,-0.846 -1.9811,-1.6589 -3.0234,-2.4257 -0.9785,-0.8487 -1.9862,-1.6627 -3.0313,-2.4317 -0.984,-0.8537 -1.9993,-1.6722 -3.0508,-2.4453 -0.978,-0.8481 -1.9846,-1.6631 -3.0293,-2.4316 -0.9836,-0.8536 -1.9977,-1.6723 -3.0488,-2.4454 -0.9834,-0.8532 -1.998,-1.6705 -3.0488,-2.4433 -0.9855,-0.8551 -2.0015,-1.6769 -3.0547,-2.4512 -0.983,-0.8529 -1.9965,-1.6709 -3.0469,-2.4433 -0.9882,-0.8579 -2.0061,-1.6806 -3.0625,-2.4571 -0.987,-0.8566 -2.0037,-1.6796 -3.0586,-2.4551 -0.9879,-0.8575 -2.0065,-1.6788 -3.0625,-2.455 -0.9891,-0.8587 -2.009,-1.6818 -3.0664,-2.459 -0.9873,-0.8572 -2.0052,-1.679 -3.0605,-2.4551 -0.996,-0.8652 -2.0228,-1.6959 -3.0879,-2.4785 -0.9897,-0.8591 -2.0104,-1.6814 -3.0684,-2.459 -0.9934,-0.8628 -2.0178,-1.6901 -3.0801,-2.4707 -0.9953,-0.8646 -2.0214,-1.6945 -3.0859,-2.4766 -0.9907,-0.8604 -2.0131,-1.6842 -3.0723,-2.4629 -0.9993,-0.8685 -2.0305,-1.7009 -3.0996,-2.4863 -0.9938,-0.8634 -2.0174,-1.6915 -3.0801,-2.4726 -1.0021,-0.8712 -2.0371,-1.7048 -3.1093,-2.4922 -0.9985,-0.8675 -2.0277,-1.7 -3.0957,-2.4844 -0.9988,-0.8679 -2.0293,-1.6996 -3.0977,-2.4844 -1.0009,-0.87 -2.0326,-1.7037 -3.1035,-2.4902 -1.0011,-0.8704 -2.0343,-1.7034 -3.1055,-2.4902 -1.0045,-0.8735 -2.0402,-1.7107 -3.1152,-2.5 -1.0028,-0.8719 -2.0383,-1.7062 -3.1113,-2.4942 -1.0037,-0.8727 -2.0393,-1.7093 -3.1133,-2.498 -1.0054,-0.8745 -2.0432,-1.7118 -3.1192,-2.502 -1.0063,-0.8754 -2.0459,-1.7129 -3.123,-2.5039 -1.0096,-0.8784 -2.0519,-1.7203 -3.1328,-2.5137 -1.0094,-0.8779 -2.0503,-1.7187 -3.1309,-2.5117 -1.006,-0.8751 -2.0443,-1.7132 -3.1211,-2.5039 -1.0146,-0.8831 -2.0638,-1.7282 -3.1504,-2.5254 -1.0081,-0.8769 -2.0478,-1.7176 -3.1269,-2.5097 -8.5167,-7.4135 -19.6523,-11.9004 -31.8809,-11.9004 z"
         style="fill:#000001;fill-opacity:0.145098;stroke:#1a1a1a;stroke-width:0;stroke-linecap:round;stroke-linejoin:miter;stroke-miterlimit:4;stroke-dasharray:none;stroke-opacity:1;paint-order:normal" />
      <path
         d="m -4675.4998,2309.5415 c -26.884,0 -48.5271,21.6435 -48.5271,48.5273 0,19.8406 11.7899,36.8254 28.774,44.3637 h 466.2903 c 16.9837,-7.5383 28.775,-24.5235 28.775,-44.3637 0,-26.8838 -21.6452,-48.5273 -48.5271,-48.5273 z m -9.7067,112.1152 v 194.3554 150.0718 l -85.2532,147.5055 -165.7195,287.2739 a 164.51889,164.51889 0 0 0 142.3753,246.7842 h 331.7808 331.6126 a 164.51889,164.51889 0 0 0 142.3753,-246.7842 l -165.7217,-287.2739 -85.2543,-147.5055 v -344.4272 z"
         style="fill:#e6e6e6;fill-opacity:0.995455;stroke:#1a1a1a;stroke-width:0;stroke-linecap:round;stroke-linejoin:miter;stroke-miterlimit:4;stroke-dasharray:none;stroke-opacity:1;paint-order:normal"
         id="path7765"
         inkscape:connector-curvature="0" />
      <path
         id="path7714"
         d="m -4700.2593,2972.4476 -149.3839,258.7293 a 88.679922,88.679922 0 0 0 76.7888,133.012 h 310.7456 310.7456 a 88.679922,88.679922 0 0 0 76.7888,-133.012 l -149.3839,-258.7293 z"
         style="color:#000000;font-style:normal;font-variant:normal;font-weight:normal;font-stretch:normal;font-size:medium;line-height:normal;font-family:sans-serif;font-variant-ligatures:normal;font-variant-position:normal;font-variant-caps:normal;font-variant-numeric:normal;font-variant-alternates:normal;font-feature-settings:normal;text-indent:0;text-align:start;text-decoration:none;text-decoration-line:none;text-decoration-style:solid;text-decoration-color:#000000;letter-spacing:normal;word-spacing:normal;text-transform:none;writing-mode:lr-tb;direction:ltr;text-orientation:mixed;dominant-baseline:auto;baseline-shift:baseline;text-anchor:start;white-space:normal;shape-padding:0;clip-rule:nonzero;display:inline;overflow:visible;visibility:visible;isolation:auto;mix-blend-mode:normal;color-interpolation:sRGB;color-interpolation-filters:linearRGB;solid-color:#000000;solid-opacity:1;vector-effect:none;fill:#3949ab;fill-opacity:1;fill-rule:nonzero;stroke:none;stroke-width:177.342;stroke-linecap:round;stroke-linejoin:round;stroke-miterlimit:4;stroke-dasharray:none;stroke-dashoffset:0;stroke-opacity:1;paint-order:normal;color-rendering:auto;image-rendering:auto;shape-rendering:auto;text-rendering:auto;enable-background:accumulate"
         inkscape:connector-curvature="0" />
      <circle
         transform="scale(-1,1)"
         r="64.084236"
         cy="2771.9639"
         cx="4488.0332"
         id="path7806"
         style="fill:#3949ab;fill-opacity:1;stroke:none;stroke-width:6.57059;stroke-linecap:round;stroke-linejoin:round;stroke-miterlimit:4;stroke-dasharray:none;stroke-opacity:1;paint-order:normal" />
      <circle
         transform="scale(-1,1)"
         style="fill:#3949ab;fill-opacity:1;stroke:none;stroke-width:4.27087;stroke-linecap:round;stroke-linejoin:round;stroke-miterlimit:4;stroke-dasharray:none;stroke-opacity:1;paint-order:normal"
         id="circle7808"
         cx="4366.2734"
         cy="2875.283"
         r="41.654743" />
      <circle
         transform="scale(-1,1)"
         r="73.696869"
         cy="2532.2361"
         cx="4513.6016"
         id="circle7810"
         style="fill:#3949ab;fill-opacity:1;stroke:none;stroke-width:7.55618;stroke-linecap:round;stroke-linejoin:round;stroke-miterlimit:4;stroke-dasharray:none;stroke-opacity:1;paint-order:normal" />
      <circle
         r="41.654743"
         cy="2646.999"
         cx="4404.0049"
         id="circle7820"
         style="fill:#3949ab;fill-opacity:1;stroke:none;stroke-width:4.27087;stroke-linecap:round;stroke-linejoin:round;stroke-miterlimit:4;stroke-dasharray:none;stroke-opacity:1;paint-order:normal"
         transform="scale(-1,1)" />
      <path
         inkscape:connector-curvature="0"
         id="rect7640"
         d="m -4605.8082,2425.821 v 386.6237 l -71.1888,119.7437 6.6263,-11.0808 h 116.2094 184.0619 116.2531 l -64.604,-108.6629 V 2425.821 Z"
         style="fill:none;fill-opacity:1;stroke:none;stroke-width:191.919;stroke-linecap:round;stroke-linejoin:round;stroke-miterlimit:4;stroke-dasharray:none;stroke-opacity:1;paint-order:normal" />
    </g>
  </g>
</svg>
