<?xml version="1.0" encoding="UTF-8" standalone="no"?>
<svg
   xmlns:dc="http://purl.org/dc/elements/1.1/"
   xmlns:cc="http://creativecommons.org/ns#"
   xmlns:rdf="http://www.w3.org/1999/02/22-rdf-syntax-ns#"
   xmlns:svg="http://www.w3.org/2000/svg"
   xmlns="http://www.w3.org/2000/svg"
   xmlns:sodipodi="http://sodipodi.sourceforge.net/DTD/sodipodi-0.dtd"
   xmlns:inkscape="http://www.inkscape.org/namespaces/inkscape"
   sodipodi:docname="fisica1_scalable.svg"
   inkscape:version="1.0 (4035a4fb49, 2020-05-01)"
   id="svg27864"
   version="1.1"
   viewBox="0 0 67.733322 67.733315"
   height="67.733315mm"
   width="67.733322mm">
  <defs
     id="defs27858" />
  <sodipodi:namedview
     inkscape:window-maximized="0"
     inkscape:window-y="24"
     inkscape:window-x="960"
     inkscape:window-height="1029"
     inkscape:window-width="956"
     fit-margin-bottom="0"
     fit-margin-right="0"
     fit-margin-left="0"
     fit-margin-top="0"
     showgrid="false"
     inkscape:document-rotation="0"
     inkscape:current-layer="layer1"
     inkscape:document-units="mm"
     inkscape:cy="210.69944"
     inkscape:cx="153.57282"
     inkscape:zoom="1.4"
     inkscape:pageshadow="2"
     inkscape:pageopacity="0.0"
     borderopacity="1.0"
     bordercolor="#666666"
     pagecolor="#ffffff"
     id="base" />
  <metadata
     id="metadata27861">
    <rdf:RDF>
      <cc:Work
         rdf:about="">
        <dc:format>image/svg+xml</dc:format>
        <dc:type
           rdf:resource="http://purl.org/dc/dcmitype/StillImage" />
        <dc:title></dc:title>
        <cc:license
           rdf:resource="http://creativecommons.org/licenses/by-sa/4.0/" />
      </cc:Work>
      <cc:License
         rdf:about="http://creativecommons.org/licenses/by-sa/4.0/">
        <cc:permits
           rdf:resource="http://creativecommons.org/ns#Reproduction" />
        <cc:permits
           rdf:resource="http://creativecommons.org/ns#Distribution" />
        <cc:requires
           rdf:resource="http://creativecommons.org/ns#Notice" />
        <cc:requires
           rdf:resource="http://creativecommons.org/ns#Attribution" />
        <cc:permits
           rdf:resource="http://creativecommons.org/ns#DerivativeWorks" />
        <cc:requires
           rdf:resource="http://creativecommons.org/ns#ShareAlike" />
      </cc:License>
    </rdf:RDF>
  </metadata>
  <g
     transform="translate(170.39167,109.1595)"
     id="layer1"
     inkscape:groupmode="layer"
     inkscape:label="Livello 1">
    <g
       id="g1698"
       inkscape:export-filename="/home/fjall/Icone/PNG/I anno/fisica1.png"
       inkscape:export-xdpi="96"
       inkscape:export-ydpi="96"
       transform="matrix(0.03307291,0,0,0.03307291,-124.41672,-170.49634)">
      <rect
         style="fill:#4d4d4d;fill-opacity:1;fill-rule:evenodd;stroke:none;stroke-width:101.303;stroke-linecap:square;stroke-linejoin:miter;stroke-miterlimit:4;stroke-dasharray:none;stroke-dashoffset:0;stroke-opacity:0.989899;paint-order:markers fill stroke"
         id="rect857-5"
         width="2047.9979"
         height="2047.9998"
         x="-1390.1091"
         y="1854.5947"
         inkscape:export-xdpi="96"
         inkscape:export-ydpi="96" />
      <path
         inkscape:connector-curvature="0"
         style="color:#000000;font-style:normal;font-variant:normal;font-weight:normal;font-stretch:normal;font-size:medium;line-height:normal;font-family:sans-serif;font-variant-ligatures:normal;font-variant-position:normal;font-variant-caps:normal;font-variant-numeric:normal;font-variant-alternates:normal;font-feature-settings:normal;text-indent:0;text-align:start;text-decoration:none;text-decoration-line:none;text-decoration-style:solid;text-decoration-color:#000000;letter-spacing:normal;word-spacing:normal;text-transform:none;writing-mode:lr-tb;direction:ltr;text-orientation:mixed;dominant-baseline:auto;baseline-shift:baseline;text-anchor:start;white-space:normal;shape-padding:0;clip-rule:nonzero;display:inline;overflow:visible;visibility:visible;isolation:auto;mix-blend-mode:normal;color-interpolation:sRGB;color-interpolation-filters:linearRGB;solid-color:#000000;solid-opacity:1;vector-effect:none;fill:#000001;fill-opacity:0.145098;fill-rule:nonzero;stroke:none;stroke-width:15.6;stroke-linecap:round;stroke-linejoin:bevel;stroke-miterlimit:4;stroke-dasharray:none;stroke-dashoffset:0;stroke-opacity:1;paint-order:normal;color-rendering:auto;image-rendering:auto;shape-rendering:auto;text-rendering:auto;enable-background:accumulate"
         d="m -364.319,1981.5475 c -27.187,-2e-4 -53.26,10.8072 -72.484,30.0312 -19.224,19.224 -30.024,45.2898 -30.024,72.4764 0,5.66 0.488,11.3096 1.43,16.8908 -11.085,9.8046 -21.626,20.9982 -31.531,33.3828 -36.287,45.3693 -66.802,107.6325 -92.399,183.2967 v 0 c -7.667,22.666 -14.813,46.6762 -21.531,71.6562 -27.659,-11.4934 -54.63,-21.71 -80.641,-30.3828 -75.773,-25.2652 -143.839,-38.5204 -201.913,-36.9766 -15.346,0.4082 -30.165,1.9596 -44.258,4.7032 -0.07,-0.062 -0.152,-0.126 -0.227,-0.188 -45.134,-34.1742 -109.426,-25.2898 -143.601,19.8438 -34.172,45.1362 -25.285,109.4288 19.852,143.6016 0.939,0.6852 1.889,1.3546 2.851,2.0078 1.322,12.816 3.689,25.9118 7.047,39.164 14.268,56.3164 45.486,118.2324 90.359,184.3124 36.476,53.7142 82.234,110.1434 135.68,167.3828 -59.269,59.146 -109.875,117.7346 -150.078,173.5704 -46.673,64.822 -79.588,125.8547 -95.398,181.7577 -6.391,22.5968 -9.896,44.8166 -9.954,66 -29.692,35.8092 -31.549,87.1226 -4.523,124.9844 6.972,9.7544 15.352,17.9056 24.648,24.4062 5.497,6.2786 11.639,11.7352 18.243,16.3594 5.469,6.2412 11.576,11.6608 18.14,16.2656 5.452,6.2156 11.532,11.612 18.07,16.2032 5.421,6.1712 11.46,11.534 17.954,16.1016 5.394,6.1374 11.41,11.4732 17.867,16.0234 5.377,6.1114 11.373,11.4328 17.804,15.9688 5.345,6.065 11.303,11.3408 17.688,15.8514 5.326,6.0384 11.259,11.3008 17.617,15.797 5.298,5.997 11.19,11.2296 17.508,15.703 5.281,5.9728 11.151,11.1808 17.445,15.6408 5.247,5.923 11.076,11.091 17.32,15.5234 5.229,5.8964 11.033,11.051 17.25,15.4686 5.201,5.8562 10.971,10.972 17.149,15.3672 5.179,5.8256 10.907,10.9344 17.055,15.3126 5.152,5.7876 10.866,10.8464 16.976,15.2032 5.125,5.7496 10.788,10.7894 16.859,15.125 5.107,5.7232 10.752,10.7418 16.797,15.0624 5.078,5.681 10.684,10.6644 16.688,14.961 5.059,5.6538 10.647,10.6254 16.625,14.9062 5.024,5.6044 10.563,10.5366 16.492,14.789 5.002,5.5748 10.516,10.475 16.414,14.711 4.983,5.5466 10.466,10.4288 16.336,14.6484 4.956,5.5084 10.409,10.3652 16.242,14.5626 4.922,5.4622 10.331,10.2898 16.117,14.4608 4.902,5.4362 10.297,10.2268 16.055,14.3828 4.879,5.4038 10.235,10.1752 15.961,14.3126 4.849,5.363 10.167,10.105 15.851,14.2186 4.826,5.3318 10.122,10.045 15.774,14.1406 4.807,5.3046 10.077,10.0066 15.703,14.086 2.571,2.8324 5.282,5.4778 8.101,7.961 H 657.891 V 2588.5624 c -3.125,-2.8674 -6.381,-5.5354 -9.782,-7.961 -5.151,-5.7806 -10.853,-10.8438 -16.96,-15.1954 -5.179,-5.8194 -10.918,-10.9078 -17.063,-15.2812 -5.204,-5.8554 -10.975,-10.9738 -17.156,-15.3672 -5.23,-5.892 -11.032,-11.0394 -17.25,-15.4532 -5.252,-5.9236 -11.086,-11.0922 -17.336,-15.5234 -5.28,-5.963 -11.14,-11.1642 -17.43,-15.6172 -5.295,-5.9876 -11.187,-11.205 -17.5,-15.6718 -5.33,-6.0374 -11.263,-11.2948 -17.625,-15.789 -5.349,-6.0642 -11.306,-11.343 -17.695,-15.8516 -5.381,-6.1104 -11.392,-11.4274 -17.828,-15.961 -5.401,-6.1364 -11.419,-11.4684 -17.883,-16.0156 -5.429,-6.1768 -11.488,-11.5404 -17.992,-16.1094 -5.453,-6.2098 -11.54,-11.6012 -18.078,-16.1874 -5.478,-6.246 -11.589,-11.6678 -18.164,-16.2736 -5.504,-6.2824 -11.654,-11.7344 -18.266,-16.3592 -34.299,-39.1912 -93.404,-46.7158 -136.664,-15.797 -9.431,6.7888 -17.639,15.1316 -24.273,24.672 -14.722,-3.4572 -30.299,-5.5994 -46.508,-6.4766 -27.408,-1.4834 -57.162,0.3196 -88.961,5.0312 -3.338,-3.1578 -6.854,-6.0768 -10.547,-8.7344 -1.217,-1.3552 -2.463,-2.6818 -3.758,-3.9766 -3.944,-3.9442 -8.192,-7.512 -12.664,-10.7264 -1.23,-1.371 -2.495,-2.722 -3.804,-4.0314 -3.959,-3.9584 -8.222,-7.5344 -12.711,-10.7578 -1.243,-1.3868 -2.52,-2.7544 -3.844,-4.078 -3.972,-3.972 -8.252,-7.5574 -12.758,-10.7892 -1.258,-1.4054 -2.55,-2.7842 -3.89,-4.125 -3.993,-3.992 -8.297,-7.5994 -12.828,-10.8436 -1.267,-1.4158 -2.557,-2.8062 -3.907,-4.1564 -4.01,-4.0102 -8.336,-7.635 -12.89,-10.8906 -1.276,-1.4272 -2.585,-2.8348 -3.946,-4.1952 -4.019,-4.0198 -8.348,-7.645 -12.914,-10.9064 -1.294,-1.4516 -2.625,-2.8748 -4.008,-4.2578 -4.038,-4.0384 -8.394,-7.6802 -12.984,-10.953 -1.303,-1.4618 -2.639,-2.9048 -4.031,-4.297 -4.059,-4.0584 -8.432,-7.7148 -13.047,-11 -1.312,-1.4732 -2.652,-2.9254 -4.054,-4.328 -4.068,-4.0678 -8.46,-7.7326 -13.086,-11.0236 -1.329,-1.4948 -2.695,-2.9604 -4.118,-4.3828 v 0 c -4.088,-4.0878 -8.496,-7.767 -13.148,-11.0702 -1.337,-1.5052 -2.709,-2.9904 -4.141,-4.422 -4.101,-4.1014 -8.526,-7.79 -13.195,-11.1014 -1.352,-1.524 -2.731,-3.0202 -4.18,-4.4688 -4.114,-4.115 -8.563,-7.821 -13.25,-11.1406 -1.364,-1.54 -2.763,-3.0604 -4.226,-4.5234 -4.133,-4.1328 -8.596,-7.8494 -13.305,-11.1797 -1.376,-1.5542 -2.781,-3.0784 -4.258,-4.5546 v 0 c -4.149,-4.1496 -8.637,-7.8782 -13.367,-11.2188 -1.386,-1.5674 -2.801,-3.1136 -4.289,-4.6016 -4.159,-4.159 -8.656,-7.8958 -13.398,-11.2422 -1.403,-1.5892 -2.844,-3.1562 -4.352,-4.664 -4.18,-4.1798 -8.7,-7.9302 -13.469,-11.2892 -1.411,-1.5998 -2.849,-3.1778 -4.367,-4.6952 -4.194,-4.1946 -8.736,-7.9604 -13.523,-11.3282 -1.424,-1.6154 -2.883,-3.2106 -4.414,-4.7422 -4.207,-4.207 -8.752,-7.984 -13.555,-11.3594 -1.439,-1.6358 -2.919,-3.2392 -4.469,-4.789 -4.227,-4.2272 -8.796,-8.0266 -13.625,-11.414 -1.447,-1.646 -2.925,-3.2612 -4.484,-4.8204 -4.241,-4.2406 -8.834,-8.0498 -13.68,-11.4452 -1.459,-1.6622 -2.957,-3.3016 -4.531,-4.875 -4.252,-4.2524 -8.858,-8.0586 -13.719,-11.461 -1.475,-1.6826 -2.986,-3.3376 -4.578,-4.9296 -19.224,-19.224 -45.297,-30.0314 -72.484,-30.0312 z"
         id="path997-3"
         inkscape:export-xdpi="96"
         inkscape:export-ydpi="96" />
      <path
         style="color:#000000;font-style:normal;font-variant:normal;font-weight:normal;font-stretch:normal;font-size:medium;line-height:normal;font-family:sans-serif;font-variant-ligatures:normal;font-variant-position:normal;font-variant-caps:normal;font-variant-numeric:normal;font-variant-alternates:normal;font-feature-settings:normal;text-indent:0;text-align:start;text-decoration:none;text-decoration-line:none;text-decoration-style:solid;text-decoration-color:#000000;letter-spacing:normal;word-spacing:normal;text-transform:none;writing-mode:lr-tb;direction:ltr;text-orientation:mixed;dominant-baseline:auto;baseline-shift:baseline;text-anchor:start;white-space:normal;shape-padding:0;clip-rule:nonzero;display:inline;overflow:visible;visibility:visible;opacity:0.618;isolation:auto;mix-blend-mode:normal;color-interpolation:sRGB;color-interpolation-filters:linearRGB;solid-color:#000000;solid-opacity:1;vector-effect:none;fill:#ff80b2;fill-opacity:1;fill-rule:nonzero;stroke:none;stroke-width:15.6;stroke-linecap:round;stroke-linejoin:bevel;stroke-miterlimit:4;stroke-dasharray:none;stroke-dashoffset:0;stroke-opacity:1;paint-order:normal;color-rendering:auto;image-rendering:auto;shape-rendering:auto;text-rendering:auto;enable-background:accumulate"
         d="m -384.155,2042.4067 c -50.342,0 -94.877,30.076 -131.164,75.4454 -36.287,45.3693 -66.802,107.6325 -92.398,183.2967 -51.193,151.3284 -82,356.6686 -82,583.4766 0,226.808 30.807,432.1403 82,583.4687 25.596,75.664 56.111,137.9274 92.398,183.2968 36.287,45.3694 80.822,75.4532 131.164,75.4532 50.342,0 94.869,-30.0838 131.156,-75.4532 36.287,-45.3694 66.802,-107.6328 92.398,-183.2968 51.193,-151.3284 82,-356.6607 82,-583.4687 0,-226.808 -30.807,-432.1482 -82,-583.4766 -25.596,-75.6642 -56.111,-137.9274 -92.398,-183.2967 -36.287,-45.3694 -80.814,-75.4454 -131.156,-75.4454 z m 0,62.3984 c 25.42,0 53.061,15.3136 82.422,52.0235 29.361,36.7098 57.97,93.2194 82.023,164.3202 48.105,142.2018 78.711,342.3728 78.711,563.4766 0,221.1038 -30.606,421.2747 -78.711,563.4765 -24.053,71.1008 -52.662,127.6104 -82.023,164.3202 -29.361,36.71 -57.002,52.0158 -82.422,52.0158 -25.42,0 -53.069,-15.3058 -82.43,-52.0158 -29.36,-36.7098 -57.97,-93.2194 -82.023,-164.3202 -48.105,-142.2018 -78.711,-342.3727 -78.711,-563.4765 0,-221.1038 30.606,-421.2748 78.711,-563.4766 24.053,-71.1008 52.663,-127.6104 82.023,-164.3202 29.361,-36.7099 57.01,-52.0235 82.43,-52.0235 z"
         id="path5576-5"
         inkscape:connector-curvature="0"
         inkscape:export-xdpi="96"
         inkscape:export-ydpi="96" />
      <path
         style="color:#000000;font-style:normal;font-variant:normal;font-weight:normal;font-stretch:normal;font-size:medium;line-height:normal;font-family:sans-serif;font-variant-ligatures:normal;font-variant-position:normal;font-variant-caps:normal;font-variant-numeric:normal;font-variant-alternates:normal;font-feature-settings:normal;text-indent:0;text-align:start;text-decoration:none;text-decoration-line:none;text-decoration-style:solid;text-decoration-color:#000000;letter-spacing:normal;word-spacing:normal;text-transform:none;writing-mode:lr-tb;direction:ltr;text-orientation:mixed;dominant-baseline:auto;baseline-shift:baseline;text-anchor:start;white-space:normal;shape-padding:0;clip-rule:nonzero;display:inline;overflow:visible;visibility:visible;opacity:0.618;isolation:auto;mix-blend-mode:normal;color-interpolation:sRGB;color-interpolation-filters:linearRGB;solid-color:#000000;solid-opacity:1;vector-effect:none;fill:#80b3ff;fill-opacity:1;fill-rule:nonzero;stroke:none;stroke-width:15.6;stroke-linecap:round;stroke-linejoin:bevel;stroke-miterlimit:4;stroke-dasharray:none;stroke-dashoffset:0;stroke-opacity:1;paint-order:normal;color-rendering:auto;image-rendering:auto;shape-rendering:auto;text-rendering:auto;enable-background:accumulate"
         d="m 295.689,2392.7072 c -29.273,-40.956 -79.634,-59.6926 -137.645,-62.8322 -58.011,-3.1396 -126.409,8.24 -202.85,31.4138 -152.882,46.3474 -337.856,140.6806 -522.376,272.5666 -184.521,131.8862 -333.651,276.3542 -426.997,405.998 -46.673,64.822 -79.583,125.8529 -95.394,181.7561 -15.81,55.903 -14.386,109.6174 14.887,150.5734 29.273,40.956 79.634,59.6926 137.645,62.8322 58.011,3.1396 126.409,-8.24 202.85,-31.4136 152.882,-46.3474 337.845,-140.6826 522.366,-272.5685 184.52,-131.8862 333.662,-276.3524 427.007,-405.9962 46.673,-64.822 79.584,-125.853 95.394,-181.7562 15.81,-55.903 14.386,-109.6174 -14.887,-150.5734 z m -50.765,36.284 c 14.782,20.6806 18.396,52.0728 5.604,97.3058 -12.793,45.2328 -42.13,101.3682 -85.988,162.2808 -87.716,121.825 -232.769,263.1214 -412.649,391.6906 -179.88,128.5691 -360.527,220.0669 -504.188,263.6191 -71.831,21.776 -134.441,31.36 -181.379,28.8196 -46.939,-2.5402 -75.464,-16.1276 -90.245,-36.8082 -14.782,-20.6806 -18.407,-52.0746 -5.615,-97.3076 12.793,-45.2328 42.135,-101.3619 85.993,-162.2743 87.716,-121.825 232.765,-263.1278 412.645,-391.697 179.88,-128.5692 360.531,-220.0606 504.192,-263.6128 71.831,-21.7762 134.436,-31.3664 181.375,-28.826 46.938,2.5402 75.474,16.1294 90.255,36.81 z"
         id="ellipse5612-6"
         inkscape:connector-curvature="0"
         inkscape:export-xdpi="96"
         inkscape:export-ydpi="96" />
      <path
         style="color:#000000;font-style:normal;font-variant:normal;font-weight:normal;font-stretch:normal;font-size:medium;line-height:normal;font-family:sans-serif;font-variant-ligatures:normal;font-variant-position:normal;font-variant-caps:normal;font-variant-numeric:normal;font-variant-alternates:normal;font-feature-settings:normal;text-indent:0;text-align:start;text-decoration:none;text-decoration-line:none;text-decoration-style:solid;text-decoration-color:#000000;letter-spacing:normal;word-spacing:normal;text-transform:none;writing-mode:lr-tb;direction:ltr;text-orientation:mixed;dominant-baseline:auto;baseline-shift:baseline;text-anchor:start;white-space:normal;shape-padding:0;clip-rule:nonzero;display:inline;overflow:visible;visibility:visible;opacity:0.618;isolation:auto;mix-blend-mode:normal;color-interpolation:sRGB;color-interpolation-filters:linearRGB;solid-color:#000000;solid-opacity:1;vector-effect:none;fill:#cd87de;fill-opacity:1;fill-rule:nonzero;stroke:none;stroke-width:15.6;stroke-linecap:round;stroke-linejoin:bevel;stroke-miterlimit:4;stroke-dasharray:none;stroke-dashoffset:0;stroke-opacity:1;paint-order:normal;color-rendering:auto;image-rendering:auto;shape-rendering:auto;text-rendering:auto;enable-background:accumulate"
         d="m -1051.122,2364.4806 c -30.388,40.1358 -33.288,93.7908 -19.02,150.1072 14.268,56.3166 45.488,118.2292 90.362,184.3094 89.747,132.1604 234.851,280.6726 415.677,417.5802 180.826,136.9077 363.138,236.2893 514.688,286.8209 75.775,25.266 143.835,38.5212 201.91,36.9772 58.075,-1.544 108.932,-18.8896 139.32,-59.0254 30.387,-40.136 33.287,-93.791 19.019,-150.1074 -14.268,-56.3166 -45.488,-118.2291 -90.362,-184.3093 -89.747,-132.1602 -234.862,-280.671 -415.688,-417.5788 -180.826,-136.9076 -363.126,-236.2908 -514.676,-286.8224 -75.775,-25.266 -143.836,-38.521 -201.911,-36.9772 -58.075,1.544 -108.931,18.8896 -139.319,59.0256 z m 49.748,37.6654 c 15.344,-20.2666 44.243,-33.0664 91.233,-34.3156 46.991,-1.2492 109.303,10.0534 180.508,33.7954 142.41,47.4842 320.474,143.9124 496.752,277.377 176.278,133.4646 317.393,278.6942 401.728,402.884 42.167,62.0948 69.955,119.0091 81.5,164.5765 11.544,45.5674 7.064,76.8548 -8.281,97.1212 -15.344,20.2666 -44.242,33.0664 -91.233,34.3156 -46.99,1.2492 -109.308,-10.058 -180.514,-33.8002 -142.41,-47.4842 -320.473,-143.9124 -496.752,-277.3767 -176.278,-133.4646 -317.393,-278.6942 -401.728,-402.884 -42.167,-62.095 -69.949,-119.0046 -81.494,-164.572 -11.544,-45.5674 -7.063,-76.8548 8.281,-97.1212 z"
         id="ellipse5623-2"
         inkscape:connector-curvature="0"
         inkscape:export-xdpi="96"
         inkscape:export-ydpi="96" />
      <path
         id="circle5625-3-9"
         style="opacity:0.911;fill:#afe9c6;fill-opacity:1;stroke:none;stroke-width:15.6;stroke-linecap:round;stroke-linejoin:bevel;stroke-miterlimit:4;stroke-dasharray:none;stroke-dashoffset:0;stroke-opacity:0.839216;paint-order:normal"
         d="m -374.8125,2656.6992 a 217.61778,217.61784 37.130182 0 0 -173.64844,86.2578 217.61778,217.61784 37.130182 0 0 42.13867,304.8594 217.61778,217.61784 37.130182 0 0 304.85938,-42.1387 217.61778,217.61784 37.130182 0 0 -42.13867,-304.8593 217.61778,217.61784 37.130182 0 0 -131.21094,-44.1192 z m -4.94922,88.0254 h 53.81836 v 209.002 h 58.0918 v 58.1484 h -202.46289 v -58.1484 h 70.90429 v -138.211 h -59.79882 v -44.666 c 38.44227,-5.8993 57.23618,-12.641 79.44726,-26.125 z" />
      <ellipse
         style="fill:#deaa87;fill-opacity:1;stroke:none;stroke-width:15.6;stroke-linecap:round;stroke-linejoin:bevel;stroke-miterlimit:4;stroke-dasharray:none;stroke-dashoffset:0;stroke-opacity:0.839216;paint-order:normal"
         id="path5578-9"
         cx="-382.71072"
         cy="2067.5791"
         rx="102.50748"
         ry="102.50758"
         inkscape:export-xdpi="96"
         inkscape:export-ydpi="96" />
      <ellipse
         style="fill:#deaa87;fill-opacity:1;stroke:none;stroke-width:15.6;stroke-linecap:round;stroke-linejoin:bevel;stroke-miterlimit:4;stroke-dasharray:none;stroke-dashoffset:0;stroke-opacity:0.839216;paint-order:normal"
         id="path5578-6-3"
         cx="-375.64627"
         cy="3689.6113"
         rx="102.50748"
         ry="102.50758"
         inkscape:export-xdpi="96"
         inkscape:export-ydpi="96" />
      <ellipse
         cy="1158.0507"
         cx="2116.251"
         id="circle5614-6"
         style="fill:#deaa87;fill-opacity:1;stroke:none;stroke-width:15.6;stroke-linecap:round;stroke-linejoin:bevel;stroke-miterlimit:4;stroke-dasharray:none;stroke-dashoffset:0;stroke-opacity:0.839216;paint-order:normal"
         transform="rotate(54.444753)"
         rx="102.50755"
         ry="102.50751"
         inkscape:export-xdpi="96"
         inkscape:export-ydpi="96" />
      <ellipse
         cy="2780.082"
         cx="2134.3408"
         id="circle5616-0"
         style="fill:#deaa87;fill-opacity:1;stroke:none;stroke-width:15.6;stroke-linecap:round;stroke-linejoin:bevel;stroke-miterlimit:4;stroke-dasharray:none;stroke-dashoffset:0;stroke-opacity:0.839216;paint-order:normal"
         transform="rotate(54.444753)"
         rx="102.50755"
         ry="102.50751"
         inkscape:export-xdpi="96"
         inkscape:export-ydpi="96" />
      <ellipse
         style="fill:#deaa87;fill-opacity:1;stroke:none;stroke-width:15.6;stroke-linecap:round;stroke-linejoin:bevel;stroke-miterlimit:4;stroke-dasharray:none;stroke-dashoffset:0;stroke-opacity:0.839216;paint-order:normal"
         id="circle5625-6"
         cx="-2521.4094"
         cy="631.9447"
         transform="rotate(-52.869818)"
         rx="102.50755"
         ry="102.50751"
         inkscape:export-xdpi="96"
         inkscape:export-ydpi="96" />
      <ellipse
         style="fill:#deaa87;fill-opacity:1;stroke:none;stroke-width:15.6;stroke-linecap:round;stroke-linejoin:bevel;stroke-miterlimit:4;stroke-dasharray:none;stroke-dashoffset:0;stroke-opacity:0.839216;paint-order:normal"
         id="circle5627-2"
         cx="-2503.3196"
         cy="2253.9761"
         transform="rotate(-52.869818)"
         rx="102.50755"
         ry="102.50751"
         inkscape:export-xdpi="96"
         inkscape:export-ydpi="96" />
    </g>
  </g>
</svg>
