<?xml version="1.0" encoding="UTF-8" standalone="no"?>
<svg
   xmlns:dc="http://purl.org/dc/elements/1.1/"
   xmlns:cc="http://creativecommons.org/ns#"
   xmlns:rdf="http://www.w3.org/1999/02/22-rdf-syntax-ns#"
   xmlns:svg="http://www.w3.org/2000/svg"
   xmlns="http://www.w3.org/2000/svg"
   xmlns:sodipodi="http://sodipodi.sourceforge.net/DTD/sodipodi-0.dtd"
   xmlns:inkscape="http://www.inkscape.org/namespaces/inkscape"
   sodipodi:docname="geometria_scalable.svg"
   inkscape:version="1.0 (4035a4fb49, 2020-05-01)"
   id="svg27864"
   version="1.1"
   viewBox="0 0 67.733346 67.733338"
   height="67.733337mm"
   width="67.733345mm">
  <defs
     id="defs27858" />
  <sodipodi:namedview
     inkscape:window-maximized="0"
     inkscape:window-y="24"
     inkscape:window-x="960"
     inkscape:window-height="1029"
     inkscape:window-width="956"
     fit-margin-bottom="0"
     fit-margin-right="0"
     fit-margin-left="0"
     fit-margin-top="0"
     showgrid="false"
     inkscape:document-rotation="0"
     inkscape:current-layer="layer1"
     inkscape:document-units="mm"
     inkscape:cy="1141.4398"
     inkscape:cx="1039.232"
     inkscape:zoom="1.4"
     inkscape:pageshadow="2"
     inkscape:pageopacity="0.0"
     borderopacity="1.0"
     bordercolor="#666666"
     pagecolor="#ffffff"
     id="base" />
  <metadata
     id="metadata27861">
    <rdf:RDF>
      <cc:Work
         rdf:about="">
        <dc:format>image/svg+xml</dc:format>
        <dc:type
           rdf:resource="http://purl.org/dc/dcmitype/StillImage" />
        <dc:title></dc:title>
        <cc:license
           rdf:resource="http://creativecommons.org/licenses/by-sa/4.0/" />
      </cc:Work>
      <cc:License
         rdf:about="http://creativecommons.org/licenses/by-sa/4.0/">
        <cc:permits
           rdf:resource="http://creativecommons.org/ns#Reproduction" />
        <cc:permits
           rdf:resource="http://creativecommons.org/ns#Distribution" />
        <cc:requires
           rdf:resource="http://creativecommons.org/ns#Notice" />
        <cc:requires
           rdf:resource="http://creativecommons.org/ns#Attribution" />
        <cc:permits
           rdf:resource="http://creativecommons.org/ns#DerivativeWorks" />
        <cc:requires
           rdf:resource="http://creativecommons.org/ns#ShareAlike" />
      </cc:License>
    </rdf:RDF>
  </metadata>
  <g
     transform="translate(1104.8999,943.69304)"
     id="layer1"
     inkscape:groupmode="layer"
     inkscape:label="Livello 1">
    <g
       id="g26759"
       inkscape:export-filename="/home/fjall/Icone/PNG/I anno/geometria.png"
       inkscape:export-xdpi="96"
       inkscape:export-ydpi="96"
       transform="matrix(0.03307292,0,0,0.03307292,-991.1916,-1005.0299)">
      <rect
         style="fill:#1565c0;fill-opacity:1;stroke:none;stroke-width:1.88976;stroke-linecap:round;stroke-linejoin:bevel;stroke-miterlimit:4;stroke-dasharray:none;stroke-dashoffset:0;stroke-opacity:0.42;paint-order:fill markers stroke"
         id="rect3861"
         width="2048"
         height="2048"
         x="-3438.1089"
         y="1854.5946"
         rx="0"
         ry="0" />
      <path
         inkscape:connector-curvature="0"
         style="fill:#000001;fill-opacity:0.145098;stroke:none;stroke-width:0.623622;stroke-linecap:round;stroke-linejoin:bevel;stroke-miterlimit:4;stroke-dasharray:none;stroke-dashoffset:0;stroke-opacity:0.42;paint-order:fill markers stroke"
         d="m -2664.3998,2576.2431 -351.4786,608.7812 c -6e-4,0 -0.7031,1.2188 -0.7031,1.2188 h 4.5996 l -0.1211,0.2109 -1.4062,2.4336 h 4.5957 l -1.5254,2.6445 h 4.5898 l -1.5234,2.6387 h 4.5859 c -0.7483,1.2948 -1.5234,2.6387 -1.5234,2.6387 h 4.582 c -0.7021,1.215 -1.5214,2.6347 -1.5214,2.6347 h 4.5781 c -0.6498,1.1245 -1.5196,2.6328 -1.5196,2.6328 h 4.5723 c -0.5985,1.0373 -1.5176,2.6289 -1.5176,2.6289 h 4.5684 c -0.5536,0.9593 -1.5176,2.627 -1.5176,2.627 h 4.5625 c -0.5134,0.8897 -1.5156,2.625 -1.5156,2.625 h 4.5605 c -0.4775,0.8274 -1.5136,2.6211 -1.5136,2.6211 h 4.5527 c -0.4462,0.773 -1.5117,2.6191 -1.5117,2.6191 h 4.5508 c -0.4186,0.7251 -1.5118,2.6172 -1.5118,2.6172 h 4.545 c -0.3934,0.6814 -1.5098,2.6133 -1.5098,2.6133 h 4.541 c -0.3712,0.6429 -1.5078,2.6113 -1.5078,2.6113 h 4.5352 c -0.3509,0.6077 -1.5059,2.6075 -1.5059,2.6075 h 4.5312 c -0.3327,0.5764 -1.5039,2.6054 -1.5039,2.6054 h 4.5274 c -0.3167,0.5486 -1.5039,2.6035 -1.5039,2.6035 h 4.5234 c -0.3018,0.5228 -1.5019,2.6016 -1.5019,2.6016 h 4.5156 c -0.2879,0.4986 -1.5,2.5977 -1.5,2.5977 h 4.5137 c -0.2755,0.477 -1.4981,2.5957 -1.4981,2.5957 h 4.5078 c -0.2636,0.4566 -1.4961,2.5918 -1.4961,2.5918 h 4.5039 c -0.2532,0.4386 -1.4961,2.5898 -1.4961,2.5898 h 4.4981 c -0.2434,0.4216 -1.4941,2.5879 -1.4941,2.5879 h 4.4941 c -0.234,0.4053 -1.4922,2.584 -1.4922,2.584 h 4.4902 c -0.2255,0.3907 -1.4902,2.582 -1.4902,2.582 h 4.4863 c -0.2178,0.3772 -1.4902,2.5801 -1.4902,2.5801 h 4.4805 c -0.2102,0.364 -1.4883,2.5762 -1.4883,2.5762 h 4.4766 c -0.2034,0.352 -1.4864,2.5742 -1.4864,2.5742 h 4.4707 c -0.1965,0.3404 -1.4843,2.5703 -1.4843,2.5703 h 4.4687 c -0.1908,0.3304 -1.4844,2.5703 -1.4844,2.5703 h 4.4629 c -0.1848,0.3201 -1.4824,2.5664 -1.4824,2.5664 h 4.4551 c -0.1791,0.3101 -1.4785,2.5625 -1.4785,2.5625 h 4.4531 c -0.174,0.3014 -1.4785,2.5606 -1.4785,2.5606 h 4.4472 c -0.1691,0.2929 -1.4765,2.5586 -1.4765,2.5585 h 4.4433 c -0.1643,0.2847 -1.4746,2.5547 -1.4746,2.5547 h 4.4395 c -0.1601,0.2773 -1.4746,2.5528 -1.4746,2.5528 h 4.4355 c -0.1559,0.2701 -1.4726,2.5508 -1.4726,2.5508 h 4.4296 c -0.1519,0.2632 -1.4707,2.5488 -1.4707,2.5488 h 4.4239 c -0.1481,0.2564 -1.4688,2.5449 -1.4688,2.5449 h 4.4199 c -0.1442,0.2499 -1.4668,2.541 -1.4668,2.541 h 4.4161 c -0.1411,0.2444 -1.4668,2.541 -1.4668,2.541 h 4.4101 c -0.1374,0.238 -1.4629,2.5352 -1.4629,2.5352 h 4.4063 c -0.1345,0.2329 -1.4629,2.5351 -1.4629,2.5351 h 4.4023 c -0.1313,0.2275 -1.4609,2.5313 -1.4609,2.5313 h 4.3984 c -0.1285,0.2226 -1.4609,2.5293 -1.4609,2.5293 h 4.3926 c -0.1258,0.2178 -1.459,2.5273 -1.459,2.5273 h 4.3887 c -0.123,0.213 -1.4571,2.5235 -1.4571,2.5235 h 4.3828 c -0.1204,0.2085 -1.455,2.5215 -1.455,2.5215 h 4.3789 c -0.1179,0.204 -1.4532,2.5175 -1.4532,2.5175 h 4.375 c -0.1155,0.2002 -1.4531,2.5157 -1.4531,2.5157 h 4.3711 c -0.1133,0.1962 -1.4512,2.5136 -1.4512,2.5136 h 4.3653 c -0.111,0.1922 -1.4492,2.5098 -1.4492,2.5098 h 4.3593 c -0.1088,0.1885 -1.4472,2.5078 -1.4472,2.5078 h 4.3574 c -0.1069,0.1851 -1.4473,2.5059 -1.4473,2.5059 h 4.3516 c -0.1048,0.1814 -1.4453,2.5019 -1.4453,2.5019 h 4.3476 c -0.1028,0.1782 -1.4433,2.5 -1.4433,2.5 h 4.3418 c -0.1011,0.175 -1.4414,2.4981 -1.4414,2.4981 h 4.3359 c -0.099,0.1717 -1.4395,2.4941 -1.4395,2.4941 h 4.334 c -0.098,0.1688 -1.4394,2.4922 -1.4394,2.4922 h 4.3301 c -0.096,0.166 -1.4376,2.4902 -1.4376,2.4902 h 4.3243 c -0.094,0.163 -1.4356,2.4864 -1.4356,2.4864 h 4.3184 c -0.093,0.1602 -1.4336,2.4843 -1.4336,2.4843 h 4.3144 l -1.4316,2.4805 h 4.3105 c -0.089,0.155 -1.4316,2.4785 -1.4316,2.4785 h 4.3047 c -0.088,0.1525 -1.4297,2.4766 -1.4297,2.4766 h 4.3027 c -0.087,0.1502 -1.4296,2.4746 -1.4296,2.4746 h 4.2949 c -0.085,0.1476 -1.4258,2.4707 -1.4258,2.4707 h 4.291 c -0.084,0.1452 -1.4238,2.4668 -1.4238,2.4668 h 4.2871 c -0.083,0.1432 -1.4238,2.4668 -1.4238,2.4668 h 4.2832 c -0.081,0.1409 -1.4219,2.4629 -1.4219,2.4629 h 4.2773 c -0.08,0.1387 -1.4199,2.459 -1.4199,2.459 h 4.2754 c -0.079,0.1369 -1.4199,2.4589 -1.4199,2.4589 h 4.2695 c -0.078,0.1348 -1.418,2.4551 -1.418,2.4551 h 4.2637 c -0.077,0.1327 -1.416,2.4512 -1.416,2.4512 h 4.2617 c -0.076,0.1311 -1.416,2.4512 -1.416,2.4512 h 4.2539 c -0.074,0.1288 -1.4121,2.4453 -1.4121,2.4453 h 4.252 c -0.073,0.1273 -1.4122,2.4453 -1.4122,2.4453 h 4.2461 c -0.072,0.1254 -1.4101,2.4414 -1.4101,2.4414 h 4.2402 c -0.071,0.1237 -1.4082,2.4395 -1.4082,2.4395 h 4.2363 c -0.07,0.1219 -1.4062,2.4355 -1.4062,2.4355 h 4.2305 c -0.07,0.1203 -1.4043,2.4336 -1.4043,2.4336 h 4.2285 c -0.069,0.1188 -1.4043,2.4316 -1.4043,2.4316 h 4.2226 l -1.4023,2.4297 h 4.2187 c -0.067,0.1156 -1.4003,2.4258 -1.4003,2.4258 h 4.2128 c -0.066,0.114 -1.3984,2.4219 -1.3984,2.4219 h 4.209 c -0.065,0.1128 -1.3984,2.4219 -1.3984,2.4219 h 4.205 c -0.064,0.1112 -1.3965,2.4179 -1.3965,2.4179 h 4.1993 c -0.063,0.1098 -1.3946,2.4141 -1.3946,2.4141 h 4.1953 c -0.062,0.1084 -1.3925,2.4121 -1.3925,2.4121 h 4.1894 c -0.062,0.1071 -1.3906,2.4102 -1.3906,2.4102 h 4.1875 c -0.061,0.1058 -1.3906,2.4082 -1.3906,2.4082 h 4.1816 c -0.06,0.1045 -1.3887,2.4043 -1.3887,2.4043 h 4.1758 c -0.06,0.1032 -1.3867,2.4023 -1.3867,2.4023 h 4.1719 c -0.059,0.1019 -1.3848,2.3984 -1.3848,2.3984 h 4.168 c -0.058,0.1008 -1.3828,2.3965 -1.3828,2.3965 h 4.1621 c -0.058,0.1 -1.3828,2.3946 -1.3828,2.3946 h 4.1582 c -0.057,0.099 -1.3809,2.3925 -1.3809,2.3925 h 4.1543 c -0.056,0.097 -1.3789,2.3887 -1.3789,2.3887 h 4.1484 c -0.055,0.096 -1.3769,2.3848 -1.3769,2.3848 h 4.1445 c -0.055,0.095 -1.3769,2.3847 -1.3769,2.3847 h 4.1406 c -0.054,0.094 -1.375,2.3809 -1.375,2.3809 h 4.1367 c -0.054,0.093 -1.373,2.3769 -1.373,2.3769 h 4.1308 c -0.053,0.092 -1.373,2.377 -1.373,2.377 h 4.125 c -0.052,0.091 -1.3692,2.373 -1.3692,2.373 h 4.1211 c -0.052,0.09 -1.3672,2.3692 -1.3672,2.3692 h 4.1172 c -0.051,0.089 -1.3672,2.3672 -1.3672,2.3672 h 4.1114 c -0.051,0.088 -1.3653,2.3652 -1.3653,2.3652 h 4.1094 c -0.05,0.087 -1.3652,2.3633 -1.3652,2.3633 h 4.1015 c -0.05,0.086 -1.3613,2.3594 -1.3613,2.3594 h 4.0996 c -0.049,0.085 -1.3613,2.3574 -1.3613,2.3574 h 4.0937 c -0.049,0.084 -1.3593,2.3535 -1.3593,2.3535 h 4.0898 c -0.048,0.083 -1.3574,2.3516 -1.3574,2.3516 h 4.0859 c -0.048,0.083 -1.3574,2.3496 -1.3574,2.3496 h 4.0781 c -0.047,0.082 -1.3535,2.3457 -1.3535,2.3457 h 4.0762 c -0.047,0.081 -1.3535,2.3437 -1.3535,2.3437 h 4.0703 c -0.046,0.08 -1.3516,2.3418 -1.3516,2.3418 h 4.0664 c -0.046,0.079 -1.3496,2.3379 -1.3496,2.3379 h 4.0625 c -0.045,0.079 -1.3496,2.3359 -1.3496,2.336 h 4.0566 c -0.045,0.078 -1.3476,2.3339 -1.3476,2.3339 h 4.0527 c -0.044,0.077 -1.3457,2.3301 -1.3457,2.3301 h 4.0488 c -0.044,0.076 -1.3437,2.3281 -1.3437,2.3281 h 4.041 c -0.043,0.075 -1.3418,2.3243 -1.3418,2.3243 h 4.041 c -0.043,0.075 -1.3418,2.3242 -1.3418,2.3242 h 4.0313 c -0.043,0.074 -1.3379,2.3183 -1.3379,2.3183 h 4.0293 c -0.042,0.073 -1.3379,2.3184 -1.3379,2.3184 h 4.0254 c -0.042,0.073 -1.3359,2.3144 -1.3359,2.3144 h 4.0214 c -0.042,0.072 -1.3359,2.3125 -1.3359,2.3125 h 4.0137 c -0.041,0.071 -1.3321,2.3086 -1.3321,2.3086 h 4.0118 c -0.041,0.071 -1.3321,2.3067 -1.3321,2.3067 h 4.0059 c -0.04,0.07 -1.3301,2.3047 -1.3301,2.3047 h 4.002 c -0.04,0.069 -1.3282,2.3008 -1.3282,2.3008 h 3.9981 c -0.04,0.069 -1.3281,2.2988 -1.3281,2.2988 h 3.9921 c -0.039,0.068 -1.3261,2.2969 -1.3261,2.2969 h 3.9883 c -0.039,0.067 -1.3243,2.2929 -1.3243,2.2929 h 3.9844 c -0.039,0.067 -1.3223,2.291 -1.3223,2.291 h 3.9786 c -0.038,0.066 -1.3223,2.2891 -1.3223,2.2891 h 3.9746 c -0.038,0.066 -1.3203,2.2852 -1.3203,2.2852 h 3.9707 c -0.038,0.065 -1.3184,2.2832 -1.3184,2.2832 h 3.9649 c -0.037,0.064 -1.3164,2.2793 -1.3164,2.2793 h 3.9609 c -0.037,0.064 -1.3144,2.2773 -1.3144,2.2773 h 3.955 c -0.037,0.063 -1.3144,2.2754 -1.3144,2.2754 h 3.9531 c -0.036,0.063 -1.3125,2.2734 -1.3125,2.2734 h 3.9473 c -0.036,0.062 -1.3106,2.2696 -1.3106,2.2696 h 3.9414 c -0.036,0.062 -1.3086,2.2656 -1.3086,2.2656 h 3.9375 c -0.035,0.061 -1.3086,2.2656 -1.3086,2.2656 h 3.9336 c -0.035,0.061 -1.3066,2.2617 -1.3066,2.2617 h 3.9277 c -0.035,0.06 -1.3027,2.2578 -1.3027,2.2578 h 3.9238 c -0.035,0.06 -1.3027,2.2579 -1.3027,2.2579 h 3.918 c -0.034,0.059 -1.3008,2.2539 -1.3008,2.2539 h 3.914 c -0.034,0.059 -1.2988,2.25 -1.2988,2.25 h 3.9102 c -0.034,0.058 -1.2989,2.248 -1.2989,2.248 h 3.9043 c -0.033,0.058 -1.2968,2.2461 -1.2968,2.2461 h 3.9004 c -0.033,0.057 -1.295,2.2441 -1.295,2.2441 h 3.8965 c -0.033,0.057 -1.2929,2.2403 -1.2929,2.2403 h 3.8925 c -0.033,0.056 -1.2929,2.2383 -1.2929,2.2383 h 3.8847 c -0.032,0.056 -1.289,2.2343 -1.289,2.2343 h 3.8828 c -0.032,0.056 -1.2891,2.2325 -1.2891,2.2325 h 3.877 c -0.032,0.055 -1.2871,2.2304 -1.2871,2.2304 h 3.873 c -0.032,0.055 -1.2871,2.2285 -1.2871,2.2285 h 3.8691 c -0.031,0.054 -1.2851,2.2246 -1.2851,2.2246 h 3.8633 c -0.031,0.054 -1.2813,2.2207 -1.2813,2.2207 h 3.8574 c -0.031,0.053 -1.2812,2.2208 -1.2812,2.2208 h 3.8554 c -0.03,0.053 -1.2792,2.2168 -1.2792,2.2168 h 3.8476 c -0.03,0.052 -1.2773,2.2128 -1.2773,2.2128 h 3.8457 l -1.2774,2.211 h 3.8418 c -0.03,0.052 -1.2754,2.209 -1.2754,2.209 h 3.836 c -0.03,0.051 -1.2735,2.207 -1.2735,2.207 h 3.8301 c -0.029,0.051 -1.2715,2.2031 -1.2715,2.2031 h 3.8281 c -0.029,0.051 -1.2714,2.2012 -1.2714,2.2012 h 3.8222 c -0.029,0.05 -1.2695,2.1973 -1.2695,2.1973 h 3.8184 c -0.029,0.05 -1.2676,2.1953 -1.2676,2.1953 h 3.8125 c -0.028,0.049 -1.2656,2.1933 -1.2656,2.1933 h 3.8105 l -1.2656,2.1914 h 3.8047 c -0.028,0.049 -1.2637,2.1875 -1.2637,2.1875 h 3.7969 c -0.028,0.048 -1.2598,2.1836 -1.2598,2.1836 h 3.7949 c -0.028,0.048 -1.2597,2.1836 -1.2597,2.1836 h 3.789 c -0.027,0.047 -1.2578,2.1797 -1.2578,2.1797 h 3.7852 c -0.027,0.047 -1.2559,2.1758 -1.2559,2.1758 h 3.7813 c -0.027,0.047 -1.2559,2.1758 -1.2559,2.1758 h 3.7754 c -0.027,0.046 -1.2539,2.1718 -1.2539,2.1718 h 3.7715 c -0.027,0.046 -1.252,2.168 -1.252,2.168 h 3.7676 c -0.026,0.046 -1.25,2.166 -1.25,2.166 h 3.7617 c -0.026,0.046 -1.25,2.1641 -1.25,2.1641 h 3.7598 c -0.026,0.045 -1.2481,2.1621 -1.2481,2.1621 h 3.752 c -0.026,0.045 -1.2461,2.1582 -1.2461,2.1582 h 3.748 c -0.026,0.044 -1.2441,2.1563 -1.2441,2.1563 h 3.7441 c -0.025,0.044 -1.2422,2.1523 -1.2422,2.1523 h 3.7403 c -0.025,0.044 -1.2422,2.1504 -1.2422,2.1504 h 3.7344 c -0.025,0.043 -1.2403,2.1484 -1.2403,2.1484 h 3.7305 c -0.025,0.043 -1.2383,2.1446 -1.2383,2.1446 h 3.7246 c -0.025,0.043 -1.2363,2.1425 -1.2363,2.1425 h 3.7207 c -0.025,0.043 -1.2363,2.1407 -1.2363,2.1407 h 3.7187 c -0.024,0.042 -1.2343,2.1367 -1.2343,2.1367 h 3.7109 c -0.024,0.042 -1.2324,2.1347 -1.2324,2.1347 h 3.707 c -0.024,0.042 -1.2305,2.1329 -1.2305,2.1329 h 3.7012 c -0.024,0.041 -1.2285,2.1289 -1.2285,2.1289 h 3.6992 c -0.024,0.041 -1.2285,2.1269 -1.2285,2.1269 h 3.6933 c -0.023,0.041 -1.2265,2.125 -1.2265,2.125 h 3.6894 c -0.023,0.041 -1.2246,2.1211 -1.2246,2.1211 h 3.6836 c -0.023,0.04 -1.2226,2.1192 -1.2226,2.1192 h 3.6777 c -0.023,0.04 -1.2207,2.1152 -1.2207,2.1152 h 3.6758 c -0.023,0.04 -1.2207,2.1133 -1.2207,2.1133 h 3.6699 l -1.2187,2.1113 h 3.666 c -0.023,0.039 -1.2168,2.1074 -1.2168,2.1074 h 3.6621 c -0.023,0.039 -1.2168,2.1074 -1.2168,2.1074 h 3.6562 c -0.022,0.039 -1.2129,2.1016 -1.2129,2.1016 h 3.6524 c -0.022,0.039 -1.2129,2.1016 -1.2129,2.1016 h 3.6465 c -0.022,0.038 -1.211,2.0976 -1.211,2.0976 h 3.6426 c -0.022,0.038 -1.209,2.0938 -1.209,2.0938 h 3.6368 c -0.022,0.038 -1.2071,2.0918 -1.2071,2.0918 h 3.6348 l -1.207,2.0898 h 3.6289 c -0.021,0.037 -1.2051,2.0879 -1.2051,2.0879 h 3.625 c -0.021,0.037 -1.2031,2.084 -1.2031,2.084 h 3.6191 c -0.021,0.037 -1.2012,2.082 -1.2012,2.082 h 3.6133 c -0.021,0.036 -1.1992,2.0781 -1.1992,2.0781 h 3.6113 c -0.021,0.036 -1.1992,2.0782 -1.1992,2.0782 h 3.6055 c -0.021,0.036 -1.1973,2.0722 -1.1973,2.0722 h 3.6035 c -0.021,0.036 -1.1972,2.0723 -1.1972,2.0723 h 3.5957 c -0.02,0.035 -1.1934,2.0684 -1.1934,2.0684 h 3.5918 c -0.02,0.035 -1.1934,2.0664 -1.1934,2.0664 h 3.5879 c -0.02,0.035 -1.1914,2.0625 -1.1914,2.0625 h 3.584 c -0.02,0.035 -1.1894,2.0605 -1.1894,2.0605 h 3.58 c -0.02,0.035 -1.1894,2.0586 -1.1894,2.0586 h 3.5722 c -0.02,0.034 -1.1855,2.0547 -1.1855,2.0547 h 3.5703 c -0.02,0.034 -1.1855,2.0527 -1.1855,2.0527 h 3.5644 c -0.02,0.034 -1.1836,2.0508 -1.1836,2.0508 h 3.5586 c -0.019,0.034 -1.1816,2.0469 -1.1816,2.0469 h 3.5547 c -0.019,0.033 -1.1797,2.0449 -1.1797,2.0449 h 3.5488 c -0.019,0.033 -1.1777,2.041 -1.1777,2.041 h 3.5468 c -0.019,0.033 -1.1777,2.0391 -1.1777,2.0391 h 3.541 c -0.019,0.033 -1.1758,2.0371 -1.1758,2.0371 h 3.5391 c -0.019,0.033 -1.1758,2.0351 -1.1758,2.0351 h 3.5313 c -0.019,0.033 -1.1719,2.0313 -1.1719,2.0313 h 3.5293 c -0.019,0.032 -1.1719,2.0293 -1.1719,2.0293 h 3.5235 c -0.019,0.032 -1.17,2.0254 -1.17,2.0254 h 3.5176 c -0.018,0.032 -1.168,2.0234 -1.168,2.0234 h 3.5157 c -0.018,0.032 -1.168,2.0215 -1.168,2.0215 h 3.5078 c -0.018,0.032 -1.164,2.0176 -1.164,2.0176 h 3.5058 c -0.018,0.031 -1.1641,2.0156 -1.1641,2.0156 h 3.5 c -0.018,0.031 -1.1621,2.0137 -1.1621,2.0137 h 3.4942 c -0.018,0.031 -1.1602,2.0098 -1.1602,2.0098 h 3.4922 c -0.018,0.031 -1.1601,2.0078 -1.1601,2.0078 h 3.4843 c -0.018,0.03 -1.1562,2.0039 -1.1562,2.0039 h 3.4824 c -0.017,0.03 -1.1562,2.0039 -1.1562,2.0039 h 3.4765 c -0.017,0.03 -1.1543,1.998 -1.1543,1.998 h 3.4746 c -0.017,0.03 -1.1543,1.9981 -1.1543,1.9981 h 3.4668 c -0.017,0.03 -1.1504,1.9941 -1.1504,1.9941 h 3.4629 c -0.017,0.03 -1.1504,1.9922 -1.1504,1.9922 h 3.459 c -0.017,0.029 -1.1484,1.9883 -1.1484,1.9883 h 3.4551 c -0.017,0.029 -1.1465,1.9863 -1.1465,1.9863 h 3.4492 c -0.017,0.029 -1.1465,1.9844 -1.1465,1.9844 h 3.4453 c -0.017,0.029 -1.1426,1.9804 -1.1426,1.9804 h 3.4395 c -0.017,0.029 -1.1426,1.9786 -1.1426,1.9786 h 3.4356 c -0.016,0.029 -1.1407,1.9765 -1.1407,1.9765 h 3.4317 c -0.016,0.028 -1.1387,1.9727 -1.1387,1.9727 h 3.4277 c -0.016,0.028 -1.1386,1.9707 -1.1386,1.9707 h 3.4218 c -0.016,0.028 -1.1367,1.9687 -1.1367,1.9687 h 3.418 c -0.016,0.028 -1.1348,1.9649 -1.1348,1.9649 h 3.4121 c -0.016,0.028 -1.1328,1.9629 -1.1328,1.9629 h 3.4063 c -0.016,0.028 -1.1309,1.959 -1.1309,1.959 h 3.4043 c -0.016,0.027 -1.1308,1.9589 -1.1308,1.9589 h 3.3984 c -0.016,0.027 -1.127,1.9532 -1.127,1.9532 h 3.3946 c -0.016,0.027 -1.127,1.9531 -1.127,1.9531 h 3.3887 c -0.015,0.027 -1.125,1.9492 -1.125,1.9492 h 3.3867 c -0.015,0.027 -1.125,1.9473 -1.125,1.9473 h 3.3789 c -0.015,0.026 -1.1211,1.9433 -1.1211,1.9433 h 3.375 c -0.015,0.026 -1.1211,1.9414 -1.1211,1.9414 h 3.3711 c -0.015,0.026 -1.1191,1.9395 -1.1191,1.9395 h 3.3672 c -0.015,0.026 -1.1172,1.9355 -1.1172,1.9355 h 3.3613 c -0.015,0.026 -1.1172,1.9336 -1.1172,1.9336 h 3.3594 c -0.015,0.026 -1.1152,1.9317 -1.1152,1.9317 h 3.3515 c -0.015,0.026 -1.1133,1.9277 -1.1133,1.9277 h 3.3497 c -0.015,0.025 -1.1114,1.9258 -1.1114,1.9258 h 3.3418 c -0.015,0.025 -1.1094,1.9219 -1.1094,1.9219 h 3.3399 c -0.015,0.025 -1.1094,1.9218 -1.1094,1.9218 h 3.332 c -0.014,0.025 -1.1054,1.9161 -1.1054,1.9161 h 3.3301 c -0.014,0.025 -1.1055,1.916 -1.1055,1.916 h 3.3242 c -0.014,0.025 -1.1035,1.9121 -1.1035,1.9121 h 3.3223 c -0.014,0.025 -1.1036,1.9101 -1.1036,1.9101 h 3.3145 c -0.014,0.024 -1.0996,1.9063 -1.0996,1.9063 h 3.3125 c -0.014,0.024 -1.0996,1.9043 -1.0996,1.9043 h 3.3066 c -0.014,0.024 -1.0976,1.9023 -1.0976,1.9023 h 3.3007 c -0.014,0.024 -1.0957,1.8985 -1.0957,1.8985 h 3.2989 c -0.014,0.024 -1.0957,1.8964 -1.0957,1.8964 h 3.2929 c -0.014,0.024 -1.0937,1.8946 -1.0937,1.8946 h 3.289 c -0.014,0.024 -1.0918,1.8906 -1.0918,1.8906 h 3.2832 c -0.014,0.024 -1.0898,1.8887 -1.0898,1.8887 h 3.2793 c -0.014,0.023 -1.0898,1.8867 -1.0898,1.8867 h 3.2753 c -0.013,0.023 -1.0878,1.8828 -1.0878,1.8828 h 3.2714 c -0.013,0.023 -1.0859,1.8809 -1.0859,1.8809 h 3.2637 c -0.013,0.023 -1.084,1.8769 -1.084,1.8769 h 3.2617 c -0.013,0.023 -1.082,1.875 -1.082,1.875 h 3.2558 c -0.013,0.023 -1.082,1.8731 -1.082,1.8731 h 3.252 c -0.013,0.023 -1.0801,1.8711 -1.0801,1.8711 h 3.248 c -0.013,0.023 -1.0781,1.8672 -1.0781,1.8672 h 3.2422 c -0.013,0.022 -1.0762,1.8632 -1.0762,1.8632 h 3.2383 c -0.013,0.022 -1.0762,1.8633 -1.0762,1.8633 h 3.2344 c -0.013,0.022 -1.0742,1.8594 -1.0742,1.8594 h 3.2266 c -0.013,0.022 -1.0704,1.8555 -1.0704,1.8555 h 3.2246 c -0.013,0.022 -1.0703,1.8554 -1.0703,1.8554 h 3.2188 c -0.013,0.022 -1.0684,1.8516 -1.0684,1.8516 h 3.2129 c -0.013,0.022 -1.0664,1.8476 -1.0664,1.8476 h 3.2109 c -0.012,0.022 -1.0664,1.8477 -1.0664,1.8477 h 3.2051 c -0.012,0.021 -1.0644,1.8437 -1.0644,1.8437 h 3.2011 l -1.0625,1.8399 h 3.1954 l -1.0606,1.8379 h 3.1934 c -0.012,0.021 -1.0606,1.8359 -1.0606,1.8359 h 3.1875 c -0.012,0.021 -1.0586,1.8321 -1.0586,1.8321 h 3.1836 c -0.012,0.021 -1.0586,1.832 -1.0586,1.832 h 3.1778 c -0.012,0.021 -1.0547,1.8262 -1.0547,1.8262 h 3.1738 c -0.012,0.021 -1.0547,1.8261 -1.0547,1.8261 h 3.1699 c -0.012,0.02 -1.0527,1.8223 -1.0527,1.8223 h 3.1641 c -0.012,0.02 -1.0508,1.8184 -1.0508,1.8184 h 3.1621 c -0.012,0.02 -1.0508,1.8183 -1.0508,1.8183 h 3.1543 c -0.012,0.02 -1.0469,1.8145 -1.0469,1.8145 h 3.1485 c -0.012,0.02 -1.045,1.8105 -1.045,1.8105 h 3.1465 c -0.012,0.02 -1.0449,1.8106 -1.0449,1.8106 h 3.1406 c -0.011,0.02 -1.0429,1.8066 -1.0429,1.8066 h 3.1367 c -0.011,0.02 -1.041,1.8027 -1.041,1.8027 h 3.1308 c -0.011,0.02 -1.039,1.8008 -1.039,1.8008 h 3.1289 c -0.011,0.02 -1.0391,1.7988 -1.0391,1.7988 h 3.1231 c -0.011,0.02 -1.0372,1.7969 -1.0372,1.7969 h 3.1172 c -0.01,0.014 -0.4413,0.7655 -0.7402,1.2832 h 793.5508 v -968.1211 h -1.9219 v -2.2617 h -2.6289 v -2.2656 h -2.6328 v -2.2656 h -2.6367 v -2.2696 h -2.6407 v -2.2734 h -2.6406 v -2.2754 h -2.6465 v -2.2773 h -2.6484 v -2.2793 h -2.6524 v -2.2832 h -2.6542 v -2.2852 h -2.6563 v -2.2891 h -2.6621 v -2.291 h -2.6641 v -2.2929 h -2.666 v -2.2969 h -2.6699 v -2.2988 h -2.6738 v -2.3008 h -2.6758 v -2.3047 h -2.6797 v -2.3067 h -2.6816 v -2.3086 h -2.6856 v -2.3125 h -2.6894 v -2.3144 h -2.6915 v -2.3184 h -2.6933 v -2.3183 h -2.6973 v -2.3242 h -2.7011 v -2.3243 h -2.7051 v -2.3281 h -2.7071 v -2.3301 h -2.7089 v -2.3339 h -2.7129 v -2.336 h -2.7168 v -2.3379 h -2.7188 v -2.3418 h -2.7226 v -2.3437 h -2.7246 v -2.3457 h -2.7286 v -2.3496 h -2.7324 v -2.3516 h -2.7344 v -2.3535 h -2.7382 v -2.3574 h -2.7403 v -2.3594 h -2.7441 v -2.3633 h -2.7461 v -2.3652 h -2.75 v -2.3672 h -2.7539 v -2.3692 h -2.7559 v -2.373 h -2.7578 v -2.377 h -2.7637 v -2.3769 h -2.7656 v -2.3809 h -2.7676 v -2.3847 h -2.7714 v -2.3848 h -2.7754 v -2.3887 h -2.7774 v -2.3925 h -2.7793 v -2.3946 h -2.7851 v -2.3965 h -2.7871 v -2.3984 h -2.7891 v -2.4023 h -2.793 v -2.4043 h -2.7968 v -2.4082 h -2.7989 v -2.4102 h -2.8008 v -2.4121 h -2.8066 v -2.4141 h -2.8086 v -2.4179 h -2.8105 v -2.4219 h -2.8145 v -2.4219 h -2.8184 v -2.4258 h -2.8203 v -2.4297 h -2.8242 v -2.4316 h -2.8262 v -2.4336 h -2.83 v -2.4355 h -2.8321 v -2.4395 h -2.8359 v -2.4414 h -2.8398 v -2.4453 h -2.8418 v -2.4453 h -2.8457 v -2.4512 h -2.8477 v -2.4512 h -2.8516 v -2.4551 h -2.8554 v -2.4589 h -2.8575 v -2.459 h -2.8613 v -2.4629 h -2.8633 v -2.4668 h -2.8672 v -2.4668 h -2.8691 v -2.4707 h -2.873 v -2.4746 h -2.875 v -2.4766 h -2.8789 v -2.4785 h -2.8829 v -2.4805 h -2.8847 v -2.4843 h -2.8887 v -2.4864 h -2.8926 v -2.4902 h -2.8925 v -2.4922 h -2.8985 v -2.4941 h -2.9004 v -2.4981 h -2.9043 v -2.5 h -2.9062 v -2.5019 h -2.9102 v -2.5059 h -2.9121 v -2.5078 h -2.916 v -2.5098 h -2.9199 v -2.5136 h -2.9219 v -2.5157 h -2.9258 v -2.5175 h -2.9277 v -2.5215 h -2.9317 v -2.5235 h -2.9336 v -2.5273 h -2.9375 v -2.5293 h -2.9414 v -2.5313 h -2.9433 v -2.5351 h -2.9473 v -2.5352 h -2.9492 v -2.541 h -2.9531 v -2.541 h -2.9551 v -2.5449 h -2.959 v -2.5488 h -2.9629 v -2.5508 h -2.9648 v -2.5528 h -2.9688 v -2.5547 h -2.9707 v -2.5585 h -2.9746 v -2.5606 h -2.9766 v -2.5625 h -2.9804 v -2.5664 h -2.9844 v -2.5703 h -2.9863 v -2.5703 h -2.9903 v -2.5742 h -2.9921 v -2.5762 h -2.9961 v -2.5801 h -3 v -2.582 h -3.002 v -2.584 h -3.0039 v -2.5879 h -3.0078 v -2.5898 h -3.0117 v -2.5918 h -3.0157 v -2.5957 h -3.0156 v -2.5977 h -3.0215 v -2.6016 h -3.0234 v -2.6035 h -3.0273 v -2.6054 h -3.0293 v -2.6075 h -3.0332 v -2.6113 h -3.0352 v -2.6133 h -3.0391 v -2.6172 h -3.041 v -2.6191 h -3.0469 v -2.6211 h -3.0468 v -2.625 h -3.0508 v -2.627 h -3.0547 v -2.6289 h -3.0586 v -2.6328 h -3.0605 v -2.6347 h -3.0625 v -2.6387 h -3.0664 v -2.6387 h -3.0704 v -0.209 -2.4355 h -3.0722 v -1.4258 -1.2187 h -304.3906 -0.6094 -304.3906 -0.6094 v 215.6328 c -0.079,-0.1362 -1.5215,-2.6348 -1.5215,-2.6348 l -0.709,1.2285 c -0.1512,-0.2619 -2.1094,-3.6543 -2.1094,-3.6543 0,0 -0.7056,1.2227 -0.709,1.2285 -0.153,-0.2653 -2.1113,-3.6582 -2.1113,-3.6582 l -0.7109,1.2305 c -0.1552,-0.2688 -2.1133,-3.6621 -2.1133,-3.6621 l -0.7109,1.2305 c -0.1572,-0.2722 -2.1153,-3.6641 -2.1153,-3.6641 0,0 -0.7095,1.2265 -0.7129,1.2324 -0.1593,-0.2759 -2.1171,-3.6679 -2.1171,-3.6679 l -0.711,1.2324 c -0.1615,-0.2798 -2.1211,-3.6719 -2.1211,-3.6719 0,0 -0.7095,1.2285 -0.7129,1.2344 -0.1637,-0.2837 -2.123,-3.6758 -2.123,-3.6758 l -0.7149,1.2363 c -0.1661,-0.2878 -2.125,-3.6816 -2.125,-3.6816 0,0 -0.7114,1.2324 -0.7148,1.2383 -0.1684,-0.2917 -2.127,-3.6836 -2.127,-3.6836 l -0.7148,1.2383 c -0.171,-0.2963 -2.1309,-3.6895 -2.1309,-3.6895 0,0 -0.7134,1.2344 -0.7168,1.2402 -0.1732,-0.3001 -2.1308,-3.6914 -2.1308,-3.6914 0,0 -0.7134,1.2363 -0.7168,1.2422 -0.176,-0.3049 -2.1348,-3.6973 -2.1348,-3.6973 0,0 -0.7153,1.2383 -0.7187,1.2442 -0.1788,-0.3096 -2.1367,-3.7031 -2.1367,-3.7031 l -0.7188,1.2461 c -0.1813,-0.3141 -2.1387,-3.7051 -2.1387,-3.7051 0,0 -0.7153,1.2402 -0.7187,1.2461 -0.1841,-0.3189 -2.1426,-3.709 -2.1426,-3.709 0,0 -0.7154,1.2402 -0.7187,1.2461 -0.187,-0.3238 -2.1446,-3.7129 -2.1446,-3.7129 0,0 -0.7173,1.2441 -0.7207,1.25 -0.1898,-0.3288 -2.1465,-3.7168 -2.1465,-3.7168 0,0 -0.7173,1.2441 -0.7207,1.25 -0.1928,-0.334 -2.1484,-3.7207 -2.1484,-3.7207 0,0 -0.7193,1.2441 -0.7227,1.25 -0.1958,-0.3393 -2.1504,-3.7246 -2.1504,-3.7246 0,0 -0.7192,1.2461 -0.7226,1.2519 -0.199,-0.3447 -2.1524,-3.7285 -2.1524,-3.7285 l -0.7246,1.2539 c -0.2022,-0.3503 -2.1543,-3.7324 -2.1543,-3.7324 0,0 -0.7212,1.25 -0.7246,1.2559 -0.2057,-0.3564 -2.1582,-3.7364 -2.1582,-3.7364 l -0.7246,1.2559 c -0.2092,-0.3623 -2.1601,-3.7402 -2.1601,-3.7402 l -0.7266,1.2578 c -0.2127,-0.3685 -2.1621,-3.7442 -2.1621,-3.7442 l -0.7266,1.2598 c -0.2166,-0.3752 -2.166,-3.75 -2.166,-3.75 0,0 -0.7232,1.2539 -0.7265,1.2598 -0.2203,-0.3814 -2.1661,-3.752 -2.1661,-3.752 l -0.7285,1.2637 c -0.2243,-0.3886 -2.1699,-3.7578 -2.1699,-3.7578 0,0 -0.7251,1.2578 -0.7285,1.2636 -0.2284,-0.3955 -2.1719,-3.7617 -2.1719,-3.7617 0,0 -0.7271,1.2599 -0.7305,1.2656 -0.2325,-0.4027 -2.1738,-3.7656 -2.1738,-3.7656 l -0.7305,1.2656 c -0.2367,-0.4099 -2.1757,-3.7675 -2.1757,-3.7675 l -0.7325,1.2675 c -0.2413,-0.418 -2.1777,-3.7734 -2.1777,-3.7734 0,0 -0.729,1.2617 -0.7324,1.2676 -0.2458,-0.4257 -2.1797,-3.7754 -2.1797,-3.7754 l -0.7344,1.2715 c -0.2507,-0.4343 -2.1816,-3.7813 -2.1816,-3.7813 l -0.7344,1.2715 c -0.2558,-0.4431 -2.1855,-3.7851 -2.1855,-3.7851 l -0.7344,1.2734 c -0.261,-0.452 -2.1875,-3.7891 -2.1875,-3.7891 l -0.7363,1.2754 c -0.2664,-0.4612 -2.1895,-3.7929 -2.1895,-3.7929 0,0 -0.7329,1.2694 -0.7363,1.2754 -0.2719,-0.4709 -2.1914,-3.7969 -2.1914,-3.7969 l -0.7383,1.2773 c -0.2776,-0.4808 -2.1934,-3.8008 -2.1934,-3.8008 l -0.7363,1.2774 c -0.2837,-0.4915 -2.1973,-3.8047 -2.1973,-3.8047 l -0.7383,1.2793 c -0.2898,-0.5022 -2.1992,-3.8086 -2.1992,-3.8086 0,0 -0.7368,1.2754 -0.7402,1.2812 -0.2965,-0.5135 -2.2012,-3.8125 -2.2012,-3.8125 l -0.7402,1.2813 c -0.3032,-0.5252 -2.2031,-3.8164 -2.2031,-3.8164 l -0.7422,1.2851 c -0.3104,-0.5375 -2.2051,-3.8203 -2.2051,-3.8203 l -0.7402,1.2832 c -0.3179,-0.5504 -2.209,-3.8242 -2.209,-3.8242 l -0.7422,1.2871 c -0.3256,-0.5639 -2.2109,-3.8281 -2.2109,-3.8281 l -0.7422,1.2871 c -0.3337,-0.5779 -2.2129,-3.832 -2.2129,-3.832 l -0.7442,1.289 c -0.3423,-0.5929 -2.2148,-3.8378 -2.2148,-3.8378 l -0.7441,1.291 c -0.3514,-0.6086 -2.2188,-3.8418 -2.2188,-3.8418 l -0.7461,1.291 c -0.3602,-0.624 -2.2187,-3.8438 -2.2187,-3.8438 l -0.7461,1.293 c -0.3702,-0.6412 -2.2227,-3.8476 -2.2227,-3.8477 l -0.7461,1.293 c -0.3805,-0.659 -2.2246,-3.8515 -2.2246,-3.8515 l -0.748,1.2949 c -0.3914,-0.6778 -2.2266,-3.8555 -2.2266,-3.8555 0,0 -0.7447,1.291 -0.748,1.2969 -0.4029,-0.6976 -2.2286,-3.8594 -2.2286,-3.8594 l -0.75,1.2988 c -0.4151,-0.719 -2.2304,-3.8652 -2.2304,-3.8652 l -0.75,1.2988 c -0.4281,-0.7414 -2.2344,-3.8691 -2.2344,-3.8691 0,0 -0.7486,1.2949 -0.752,1.3008 -0.4411,-0.7641 -2.2343,-3.8711 -2.2343,-3.8711 l -0.752,1.3027 c -0.4559,-0.7897 -2.2383,-3.8769 -2.2383,-3.8769 l -0.7519,1.3027 c -0.4709,-0.8156 -2.2403,-3.8789 -2.2403,-3.8789 l -0.7539,1.3047 c -0.4874,-0.8443 -2.2422,-3.8848 -2.2422,-3.8848 l -0.7539,1.3067 c -0.5049,-0.8747 -2.2461,-3.8887 -2.2461,-3.8887 l -0.7558,1.3086 c -0.5233,-0.9063 -2.2461,-3.8926 -2.2461,-3.8926 l -0.7559,1.3086 c -0.543,-0.9406 -2.248,-3.8965 -2.248,-3.8965 l -0.7559,1.3106 c -0.5645,-0.9779 -2.2519,-3.9004 -2.2519,-3.9004 l -0.7578,1.3125 c -0.5874,-1.0174 -2.2539,-3.9043 -2.2539,-3.9043 l -0.7579,1.3144 c -0.6125,-1.061 -2.2578,-3.9101 -2.2578,-3.9101 l -0.7578,1.3125 c -0.638,-1.1052 -2.2578,-3.9102 -2.2578,-3.9102 0,0 -0.7564,1.3105 -0.7598,1.3164 -0.6676,-1.1564 -2.2617,-3.918 -2.2617,-3.918 l -0.7597,1.3164 c -0.6983,-1.2094 -2.2637,-3.9199 -2.2637,-3.9199 0,0 -0.7583,1.3125 -0.7617,1.3184 -0.7319,-1.2677 -2.2657,-3.9238 -2.2657,-3.9238 0,0 -0.7583,1.3144 -0.7617,1.3203 -0.7686,-1.3312 -2.2676,-3.9278 -2.2676,-3.9278 l -0.7617,1.3203 c -0.8085,-1.4004 -2.2715,-3.9316 -2.2715,-3.9316 l -0.7636,1.3223 c -0.8513,-1.4747 -2.2715,-3.9356 -2.2715,-3.9356 l -0.7637,1.3242 c -0.8985,-1.5566 -2.2754,-3.9414 -2.2754,-3.9414 l -0.7637,1.3243 c -0.9475,-1.6418 -2.2773,-3.9434 -2.2773,-3.9434 l -0.7676,1.3281 c -1.0001,-1.7329 -2.2793,-3.9492 -2.2793,-3.9492 l -0.7656,1.3262 c -1.0523,-1.8234 -2.2812,-3.9512 -2.2812,-3.9512 l -0.7676,1.3281 c -1.1013,-1.9083 -2.2832,-3.9551 -2.2832,-3.9551 l -0.7676,1.3301 c -1.1378,-1.9695 -2.2871,-3.959 -2.2871,-3.959 l -0.7695,1.3321 c -1.1357,-1.9659 -2.2891,-3.9649 -2.2891,-3.9649 l -0.7695,1.3321 c -1.0385,-1.7986 -2.2911,-3.9668 -2.2911,-3.9668 l -0.7695,1.334 -2.293,-3.9727 -0.7714,1.3359 -0.1875,-0.3242 -2.1075,-3.6504 -0.7714,1.336 -0.8926,-1.545 -1.4063,-2.4355 -0.7734,1.3379 -1.5957,-2.7637 c -6e-4,0 -0.7031,-1.2187 -0.7031,-1.2187 z"
         id="path2415" />
      <path
         style="fill:#ffc107;fill-opacity:0.985;stroke:none;stroke-width:0.623622;stroke-linecap:butt;stroke-linejoin:miter;stroke-miterlimit:4;stroke-dasharray:none;stroke-opacity:1"
         d="m -2667.476,2573.5946 -352.1817,610 h 352.1817 z"
         id="path3863"
         inkscape:connector-curvature="0" />
      <path
         style="fill:#ff5722;fill-opacity:1;stroke:none;stroke-width:0.623622;stroke-linecap:round;stroke-linejoin:bevel;stroke-miterlimit:4;stroke-dasharray:none;stroke-dashoffset:0;stroke-opacity:0.42;paint-order:fill markers stroke"
         d="m -2418.56,2573.5946 v 610 h 305 v -610 z"
         id="rect3875"
         inkscape:connector-curvature="0" />
      <path
         style="fill:#ffa000;fill-opacity:1;stroke:none;stroke-width:0.623622;stroke-linecap:round;stroke-linejoin:bevel;stroke-miterlimit:4;stroke-dasharray:none;stroke-dashoffset:0;stroke-opacity:0.42;paint-order:fill markers stroke"
         d="m -2667.476,2573.5946 v 610 h 352.1816 z"
         id="path3939"
         inkscape:connector-curvature="0" />
      <path
         style="fill:#d84315;fill-opacity:1;stroke:none;stroke-width:0.623622;stroke-linecap:round;stroke-linejoin:bevel;stroke-miterlimit:4;stroke-dasharray:none;stroke-dashoffset:0;stroke-opacity:0.42;paint-order:fill markers stroke"
         d="m -2113.56,2573.5946 v 610 h 305 v -610 z"
         id="rect3922"
         inkscape:connector-curvature="0" />
      <path
         inkscape:connector-curvature="0"
         style="fill:#26c6da;fill-opacity:1;stroke:none;stroke-width:0.623622;stroke-linecap:round;stroke-linejoin:bevel;stroke-miterlimit:4;stroke-dasharray:none;stroke-dashoffset:0;stroke-opacity:0.42;paint-order:fill markers stroke"
         d="m -2392.4428,2851.9872 a 305,305 0 0 0 -305,305 305,305 0 0 0 305,305 z"
         id="path1085" />
      <path
         inkscape:connector-curvature="0"
         style="fill:#0097a7;fill-opacity:0.99;stroke:none;stroke-width:0.623622;stroke-linecap:round;stroke-linejoin:bevel;stroke-miterlimit:4;stroke-dasharray:none;stroke-dashoffset:0;stroke-opacity:0.42;paint-order:fill markers stroke"
         d="m -2392.4428,2851.9872 v 610 a 305,305 0 0 0 25.9746,-1.2988 305,305 0 0 0 15.2031,-1.8457 305,305 0 0 0 14.9942,-2.2676 305,305 0 0 0 14.8867,-3.3399 305,305 0 0 0 14.7656,-3.7714 305,305 0 0 0 14.4453,-4.7989 305,305 0 0 0 14.3086,-5.2226 305,305 0 0 0 13.9492,-6.2442 305,305 0 0 0 13.6778,-6.6074 305,305 0 0 0 13.2187,-7.5801 305,305 0 0 0 13,-7.9707 305,305 0 0 0 12.3867,-8.8593 305,305 0 0 0 12.125,-9.2168 305,305 0 0 0 11.4571,-10.0645 305,305 0 0 0 11.1406,-10.3789 305,305 0 0 0 10.3789,-11.1406 305,305 0 0 0 10.0645,-11.4571 305,305 0 0 0 9.2128,-12.1191 305,305 0 0 0 8.8692,-12.4023 305,305 0 0 0 7.9531,-12.9707 305,305 0 0 0 7.5938,-13.2364 305,305 0 0 0 6.623,-13.7129 305,305 0 0 0 6.2246,-13.9082 305,305 0 0 0 5.2149,-14.2851 305,305 0 0 0 4.8164,-14.4981 305,305 0 0 0 3.7636,-14.7441 305,305 0 0 0 3.336,-14.8633 305,305 0 0 0 2.2812,-15.0879 305,305 0 0 0 1.834,-15.1074 305,305 0 0 0 1.3008,-26 305,305 0 0 0 -1.3008,-26.002 305,305 0 0 0 -1.834,-15.1035 305,305 0 0 0 -2.2812,-15.0957 305,305 0 0 0 -3.3301,-14.8301 305,305 0 0 0 -3.7773,-14.7929 305,305 0 0 0 -4.7989,-14.4453 305,305 0 0 0 -5.2246,-14.3125 305,305 0 0 0 -6.2246,-13.9102 305,305 0 0 0 -6.6328,-13.7305 305,305 0 0 0 -7.5625,-13.1836 305,305 0 0 0 -7.9824,-13.0195 305,305 0 0 0 -8.836,-12.3555 305,305 0 0 0 -9.2519,-12.1718 305,305 0 0 0 -10.0156,-11.4024 305,305 0 0 0 -10.4258,-11.1894 305,305 0 0 0 -11.1172,-10.3574 305,305 0 0 0 -11.4707,-10.0762 305,305 0 0 0 -12.0957,-9.1953 305,305 0 0 0 -12.4336,-8.8926 305,305 0 0 0 -12.9492,-7.9395 305,305 0 0 0 -13.25,-7.5996 305,305 0 0 0 -13.6934,-6.6152 305,305 0 0 0 -13.9355,-6.2344 305,305 0 0 0 -14.2539,-5.2051 305,305 0 0 0 -14.5293,-4.8281 305,305 0 0 0 -14.6875,-3.75 305,305 0 0 0 -14.9336,-3.3515 305,305 0 0 0 -15.0352,-2.2715 305,305 0 0 0 -15.1367,-1.8379 305,305 0 0 0 -26,-1.3008 z"
         id="circle1081" />
    </g>
  </g>
</svg>
