<?xml version="1.0" encoding="UTF-8" standalone="no"?>
<svg
   xmlns:dc="http://purl.org/dc/elements/1.1/"
   xmlns:cc="http://creativecommons.org/ns#"
   xmlns:rdf="http://www.w3.org/1999/02/22-rdf-syntax-ns#"
   xmlns:svg="http://www.w3.org/2000/svg"
   xmlns="http://www.w3.org/2000/svg"
   xmlns:sodipodi="http://sodipodi.sourceforge.net/DTD/sodipodi-0.dtd"
   xmlns:inkscape="http://www.inkscape.org/namespaces/inkscape"
   sodipodi:docname="informatica_scalable.svg"
   inkscape:version="1.0 (4035a4fb49, 2020-05-01)"
   id="svg27864"
   version="1.1"
   viewBox="0 0 67.733338 67.733338"
   height="67.733337mm"
   width="67.733337mm">
  <defs
     id="defs27858" />
  <sodipodi:namedview
     inkscape:snap-global="false"
     id="base"
     pagecolor="#ffffff"
     bordercolor="#666666"
     borderopacity="1.0"
     inkscape:pageopacity="0.0"
     inkscape:pageshadow="2"
     inkscape:zoom="2"
     inkscape:cx="147.59912"
     inkscape:cy="160.84738"
     inkscape:document-units="mm"
     inkscape:current-layer="layer1"
     inkscape:document-rotation="0"
     showgrid="false"
     fit-margin-top="0"
     fit-margin-left="0"
     fit-margin-right="0"
     fit-margin-bottom="0"
     inkscape:window-width="1920"
     inkscape:window-height="1056"
     inkscape:window-x="0"
     inkscape:window-y="24"
     inkscape:window-maximized="1" />
  <metadata
     id="metadata27861">
    <rdf:RDF>
      <cc:Work
         rdf:about="">
        <dc:format>image/svg+xml</dc:format>
        <dc:type
           rdf:resource="http://purl.org/dc/dcmitype/StillImage" />
        <dc:title />
        <cc:license
           rdf:resource="http://creativecommons.org/licenses/by-sa/4.0/" />
      </cc:Work>
      <cc:License
         rdf:about="http://creativecommons.org/licenses/by-sa/4.0/">
        <cc:permits
           rdf:resource="http://creativecommons.org/ns#Reproduction" />
        <cc:permits
           rdf:resource="http://creativecommons.org/ns#Distribution" />
        <cc:requires
           rdf:resource="http://creativecommons.org/ns#Notice" />
        <cc:requires
           rdf:resource="http://creativecommons.org/ns#Attribution" />
        <cc:permits
           rdf:resource="http://creativecommons.org/ns#DerivativeWorks" />
        <cc:requires
           rdf:resource="http://creativecommons.org/ns#ShareAlike" />
      </cc:License>
    </rdf:RDF>
  </metadata>
  <g
     inkscape:label="Livello 1"
     inkscape:groupmode="layer"
     id="layer1"
     transform="translate(876.86684,734.74788)">
    <g
       transform="matrix(0.03307292,0,0,0.03307292,-1169.5586,-796.08474)"
       inkscape:export-ydpi="96"
       inkscape:export-xdpi="96"
       inkscape:export-filename="/home/fjall/Icone/PNG/I anno/informatica.png"
       id="g26867">
      <rect
         style="font-style:normal;font-weight:normal;font-size:40px;line-height:1.25;font-family:sans-serif;letter-spacing:0px;word-spacing:0px;fill:#388e3c;fill-opacity:1;stroke:none;stroke-width:3.5;stroke-linecap:round;stroke-linejoin:bevel;stroke-miterlimit:4;stroke-dasharray:none;stroke-dashoffset:0;stroke-opacity:1;paint-order:fill markers stroke"
         id="rect1018"
         width="2048"
         height="2048"
         x="8849.8916"
         y="1854.5946"
         rx="0"
         ry="0" />
      <path
         inkscape:connector-curvature="0"
         style="font-style:normal;font-weight:normal;font-size:40px;line-height:1.25;font-family:sans-serif;letter-spacing:0px;word-spacing:0px;fill:#000001;fill-opacity:0.145098;stroke:none;stroke-width:1.88976;stroke-linecap:round;stroke-linejoin:bevel;stroke-miterlimit:4;stroke-dasharray:none;stroke-dashoffset:0;stroke-opacity:0.42;paint-order:fill markers stroke"
         d="m 9366.409,2463.7821 c -0.308,0 -0.555,0.247 -0.555,0.5547 -30.696,0 -55.408,24.7111 -55.408,55.4062 v 6.1446 612.9998 c 0,0.308 0.25,0.557 0.557,0.557 0,20.54 11.071,38.387 27.59,47.957 4.441,5.974 10.079,10.995 16.556,14.74 4.417,5.956 10.033,10.958 16.489,14.68 4.386,5.926 9.969,10.902 16.392,14.597 4.359,5.903 9.916,10.857 16.313,14.528 4.333,5.882 9.866,10.814 16.24,14.461 4.302,5.85 9.803,10.754 16.142,14.373 4.276,5.828 9.749,10.712 16.063,14.306 4.25,5.808 9.702,10.67 15.994,14.241 4.22,5.776 9.639,10.609 15.897,14.152 4.191,5.752 9.581,10.562 15.812,14.08 4.164,5.729 9.529,10.518 15.732,14.012 4.137,5.704 9.475,10.47 15.653,13.937 4.109,5.678 9.419,10.42 15.568,13.862 4.079,5.649 9.359,10.366 15.477,13.781 4.053,5.63 9.309,10.327 15.404,13.719 4.023,5.599 9.245,10.27 15.307,13.634 3.998,5.581 9.2,10.232 15.242,13.573 3.968,5.549 9.138,10.173 15.146,13.486 3.94,5.525 9.083,10.126 15.063,13.414 3.912,5.502 9.029,10.08 14.982,13.344 3.885,5.479 8.976,10.035 14.905,13.273 3.856,5.449 8.917,9.979 14.814,13.19 3.827,5.425 8.86,9.932 14.729,13.119 3.802,5.406 8.815,9.893 14.664,13.054 3.769,5.369 8.743,9.824 14.55,12.957 3.741,5.35 8.692,9.781 14.473,12.891 3.714,5.329 8.645,9.739 14.404,12.826 3.683,5.298 8.582,9.68 14.307,12.741 3.658,5.281 8.539,9.644 14.244,12.681 3.626,5.247 8.473,9.577 14.141,12.586 3.595,5.224 8.414,9.533 14.052,12.52 3.571,5.208 8.373,9.497 13.993,12.461 3.538,5.174 8.308,9.43 13.89,12.367 3.512,5.153 8.257,9.388 13.815,12.301 3.483,5.13 8.201,9.344 13.732,12.232 3.455,5.105 8.149,9.292 13.652,12.154 3.425,5.078 8.09,9.236 13.561,12.073 3.397,5.055 8.038,9.195 13.484,12.007 3.371,5.035 7.987,9.153 13.411,11.94 3.34,5.003 7.925,9.095 13.314,11.855 3.313,4.981 7.871,9.05 13.234,11.785 3.286,4.957 7.819,9.004 13.157,11.713 3.255,4.928 7.757,8.95 13.062,11.633 3.228,4.907 7.706,8.908 12.986,11.567 3.202,4.883 7.653,8.862 12.909,11.494 3.172,4.855 7.596,8.808 12.822,11.414 3.143,4.827 7.534,8.756 12.728,11.336 3.117,4.807 7.485,8.716 12.657,11.271 3.088,4.779 7.428,8.662 12.57,11.19 3.058,4.752 7.369,8.613 12.48,11.115 3.031,4.73 7.318,8.57 12.405,11.047 3.001,4.702 7.259,8.515 12.314,10.967 2.976,4.682 7.212,8.478 12.246,10.904 2.944,4.648 7.146,8.414 12.143,10.812 2.917,4.63 7.096,8.374 12.07,10.748 2.887,4.603 7.041,8.322 11.985,10.67 0.742,1.19 1.574,2.317 2.48,3.379 h 757.443 V 2887.4403 c -3.366,-4.5478 -7.664,-8.3575 -12.632,-11.1328 -3.506,-5.1154 -8.157,-9.3734 -13.59,-12.4199 -3.535,-5.1467 -8.218,-9.434 -13.684,-12.5079 -3.558,-5.1643 -8.259,-9.4697 -13.744,-12.5664 -3.589,-5.1975 -8.323,-9.5339 -13.844,-12.6582 -3.617,-5.2205 -8.375,-9.5791 -13.924,-12.7265 -3.639,-5.2357 -8.416,-9.6096 -13.98,-12.7793 -3.671,-5.2709 -8.482,-9.6771 -14.084,-12.875 -3.697,-5.292 -8.531,-9.72 -14.156,-12.9414 -3.724,-5.314 -8.582,-9.7629 -14.233,-13.0078 -3.749,-5.3379 -8.631,-9.8119 -14.306,-13.0821 -3.779,-5.3674 -8.693,-9.8677 -14.401,-13.164 -3.805,-5.389 -8.74,-9.9129 -14.472,-13.2325 -3.83,-5.4088 -8.789,-9.9499 -14.543,-13.2929 -3.86,-5.4411 -8.85,-10.0144 -14.639,-13.3848 -3.885,-5.459 -8.896,-10.0508 -14.705,-13.4434 -3.914,-5.4891 -8.955,-10.1101 -14.797,-13.5292 -3.94,-5.5101 -9.005,-10.1496 -14.871,-13.5918 -3.965,-5.5316 -9.052,-10.194 -14.941,-13.6602 -3.994,-5.5595 -9.111,-10.2499 -15.03,-13.7422 -4.021,-5.5852 -9.164,-10.2992 -15.111,-13.8164 -4.049,-5.6086 -9.219,-10.346 -15.193,-13.8867 -4.074,-5.629 -9.266,-10.387 -15.262,-13.9512 -4.101,-5.6564 -9.319,-10.4427 -15.344,-14.0332 -4.13,-5.6836 -9.379,-10.4938 -15.435,-14.1094 -4.156,-5.7024 -9.425,-10.5339 -15.502,-14.1718 -4.181,-5.7266 -9.476,-10.5832 -15.579,-14.2461 -4.21,-5.7549 -9.535,-10.6376 -15.669,-14.3262 -4.236,-5.7759 -9.583,-10.6786 -15.741,-14.3906 -4.266,-5.8058 -9.643,-10.7384 -15.834,-14.4766 -10.071,-13.6699 -26.282,-22.5117 -44.638,-22.5117 h -10.399 z"
         id="path2995" />
      <path
         style="font-style:normal;font-weight:normal;font-size:40px;line-height:1.25;font-family:sans-serif;letter-spacing:0px;word-spacing:0px;fill:#93aca7;fill-opacity:0.95;stroke:none;stroke-width:10;stroke-linecap:round;stroke-linejoin:bevel;stroke-miterlimit:4;stroke-dasharray:none;stroke-dashoffset:0;stroke-opacity:1;paint-order:fill markers stroke"
         d="m 9750.529,3032.5882 h 246.724 v 282.7292 h -246.724 z"
         id="rect1035"
         inkscape:connector-curvature="0" />
      <path
         inkscape:connector-curvature="0"
         style="font-style:normal;font-weight:normal;font-size:40px;line-height:1.25;font-family:sans-serif;letter-spacing:0px;word-spacing:0px;fill:#e8f5e9;fill-opacity:0.95;stroke:none;stroke-width:1.88976;stroke-linecap:round;stroke-linejoin:bevel;stroke-miterlimit:4;stroke-dasharray:none;stroke-dashoffset:0;stroke-opacity:0.42;paint-order:fill markers stroke"
         d="m 9350.092,2449.0604 h 1047.598 c 31.003,0 55.962,24.959 55.962,55.9618 v 619.1452 c 0,31.003 -24.959,55.961 -55.962,55.961 H 9350.092 c -31.003,0 -55.962,-24.958 -55.962,-55.961 v -619.1452 c 0,-31.0028 24.959,-55.9618 55.962,-55.9618 z"
         id="rect2488" />
      <path
         inkscape:connector-curvature="0"
         style="font-style:normal;font-weight:normal;font-size:40px;line-height:1.25;font-family:sans-serif;letter-spacing:0px;word-spacing:0px;fill:#272822;fill-opacity:1;stroke:none;stroke-width:2.00022;stroke-linecap:round;stroke-linejoin:bevel;stroke-miterlimit:4;stroke-dasharray:none;stroke-dashoffset:0;stroke-opacity:0.42;paint-order:fill markers stroke"
         d="m 9395.5867,2513.319 h 956.6093 c 18.76,0 33.862,15.1029 33.862,33.863 v 534.8244 c 0,18.7601 -15.102,33.8629 -33.862,33.8629 h -956.6093 c -18.7611,0 -33.8631,-15.1028 -33.8631,-33.8629 V 2547.182 c 0,-18.7601 15.102,-33.863 33.8631,-33.863 z"
         id="rect2486" />
      <path
         d="m 9361.7246,2731.3223 v 350.7597 c 0.041,18.7246 15.1258,33.7871 33.8613,33.7871 h 956.6091 c 18.76,0 33.864,-15.1031 33.864,-33.8632 v -204.2032 z"
         style="font-style:normal;font-weight:normal;font-size:40px;line-height:1.25;font-family:sans-serif;letter-spacing:0px;word-spacing:0px;fill:#3e3d32;fill-opacity:0.501961;stroke:none;stroke-width:2.00022;stroke-linecap:round;stroke-linejoin:bevel;stroke-miterlimit:4;stroke-dasharray:none;stroke-dashoffset:0;stroke-opacity:0.42;paint-order:fill markers stroke"
         id="path2378" />
      <path
         style="font-style:normal;font-weight:normal;font-size:40px;line-height:1.25;font-family:sans-serif;letter-spacing:0px;word-spacing:0px;fill:#e8f5e9;fill-opacity:0.95;stroke:none;stroke-width:1.88976;stroke-linecap:round;stroke-linejoin:bevel;stroke-miterlimit:4;stroke-dasharray:none;stroke-dashoffset:0;stroke-opacity:0.42;paint-order:fill markers stroke"
         d="m 10154.481,3300.9514 v 29.268 c 0,6.633 -5.34,11.973 -11.973,11.973 h -537.233 c -6.633,0 -11.973,-5.34 -11.973,-11.973 v -29.268 c 0,-6.634 5.34,-11.974 11.973,-11.974 h 537.233 c 6.633,0 11.973,5.34 11.973,11.974 z"
         id="rect1037"
         inkscape:connector-curvature="0" />
      <path
         inkscape:connector-curvature="0"
         id="path2636"
         style="font-style:normal;font-variant:normal;font-weight:bold;font-stretch:normal;font-size:85.3333px;line-height:1.7;font-family:Hack;-inkscape-font-specification:'Hack Bold';letter-spacing:0px;word-spacing:0px;fill:#f92672;fill-opacity:1;stroke:none"
         d="m 9486.475,2643.5903 q -1.25,0 -1.25,-1.25 v -11.75 q 0,-1.25 1.25,-1.25 h 9.708 q 1.25,0 1.25,1.25 v 11.75 q 0,1.25 -1.25,1.25 z m 15.041,52.7083 q -8.666,0 -12.5,-4.5417 -3.791,-4.5833 -3.791,-14.9166 v -18.3334 h -9.875 v -9.375 h 22.083 v 27.7084 q 0,5.4166 1.708,7.75 1.75,2.3333 5.792,2.3333 h 9.75 v 9.375 z" />
      <path
         inkscape:connector-curvature="0"
         id="path2638"
         style="font-style:normal;font-variant:normal;font-weight:bold;font-stretch:normal;font-size:85.3333px;line-height:1.7;font-family:Hack;-inkscape-font-specification:'Hack Bold';letter-spacing:0px;word-spacing:0px;fill:#f92672;fill-opacity:1;stroke:none"
         d="m 9526.225,2649.1319 h 10.916 l 1.209,7 q 1.291,-3.9166 4.416,-6 3.167,-2.125 7.667,-2.125 6.5,0 9.875,4.4584 3.375,4.4583 3.375,13.0416 v 30.2917 h -12.125 v -28.4167 q 0,-4.9166 -1.417,-7.1666 -1.375,-2.2917 -4.291,-2.2917 -3.542,0 -5.542,3 -1.958,3 -1.958,8.1667 v 26.7083 h -12.125 z" />
      <path
         inkscape:connector-curvature="0"
         id="path2640"
         style="font-style:normal;font-variant:normal;font-weight:bold;font-stretch:normal;font-size:85.3333px;line-height:1.7;font-family:Hack;-inkscape-font-specification:'Hack Bold';letter-spacing:0px;word-spacing:0px;fill:#f92672;fill-opacity:1;stroke:none"
         d="m 9604.891,2695.9653 q -6.875,0 -10.791,-1.4167 -3.917,-1.4167 -5.542,-4.875 -1.583,-3.4583 -1.583,-9.5 v -21.6667 h -11.917 v -9.375 h 11.917 v -12.75 l 12.208,-5.4166 v 18.1666 h 15.958 v 9.375 h -15.958 v 22.25 q 0,3.0834 1.542,4.4584 1.583,1.375 5.041,1.375 h 9.375 v 9.375 z" />
      <path
         inkscape:connector-curvature="0"
         id="path2642"
         style="font-style:normal;font-weight:normal;font-size:85.3333px;line-height:1.25;font-family:sans-serif;letter-spacing:0px;word-spacing:0px;fill:#66d9ef;fill-opacity:1;stroke:none"
         d="M 9690.933,2658.5069 H 9679.6 v -9.375 h 11.333 v -3.25 q 0,-5.625 1.5,-8.875 1.542,-3.2916 5.125,-4.6666 3.625,-1.375 9.875,-1.375 h 10.042 v 9.375 h -9.542 q -2.667,0 -3.75,1.0416 -1.042,1.0417 -1.042,3.6667 v 4.0833 h 14.334 v 9.375 h -14.334 v 37.2917 h -12.208 z" />
      <path
         inkscape:connector-curvature="0"
         id="path2644"
         style="font-style:normal;font-weight:normal;font-size:85.3333px;line-height:1.25;font-family:sans-serif;letter-spacing:0px;word-spacing:0px;fill:#66d9ef;fill-opacity:1;stroke:none"
         d="m 9744.558,2697.0069 q -6.5,0 -9.917,-4.4583 -3.416,-4.5 -3.416,-13.0417 v -30.375 h 12.208 v 28.5 q 0,9.375 5.75,9.375 3.5,0 5.417,-2.9166 1.958,-2.9167 1.958,-8.1667 v -26.7917 h 12.208 v 46.6667 h -11 l -1.208,-6.9167 q -2.792,8.125 -12,8.125 z" />
      <path
         inkscape:connector-curvature="0"
         id="path2646"
         style="font-style:normal;font-weight:normal;font-size:85.3333px;line-height:1.25;font-family:sans-serif;letter-spacing:0px;word-spacing:0px;fill:#66d9ef;fill-opacity:1;stroke:none"
         d="m 9783.1,2649.1319 h 10.916 l 1.209,7 q 1.291,-3.9166 4.416,-6 3.167,-2.125 7.667,-2.125 6.5,0 9.875,4.4584 3.375,4.4583 3.375,13.0416 v 30.2917 h -12.125 v -28.4167 q 0,-4.9166 -1.417,-7.1666 -1.375,-2.2917 -4.291,-2.2917 -3.542,0 -5.542,3 -1.958,3 -1.958,8.1667 v 26.7083 H 9783.1 Z" />
      <path
         inkscape:connector-curvature="0"
         id="path2648"
         style="font-style:normal;font-weight:normal;font-size:85.3333px;line-height:1.25;font-family:sans-serif;letter-spacing:0px;word-spacing:0px;fill:#66d9ef;fill-opacity:1;stroke:none"
         d="m 9856.85,2697.0069 q -11.084,0 -17.25,-6.4583 -6.125,-6.4583 -6.125,-18 0,-11.5833 6.083,-18.0833 6.083,-6.5417 16.917,-6.5417 7.416,0 14.208,3.5833 v 11.1667 q -5.417,-4.75 -12.208,-4.75 -6.125,0 -9.375,3.7917 -3.25,3.7916 -3.25,10.7916 0,6.9584 3.208,10.75 3.25,3.75 9.25,3.75 7.125,0 12.375,-4.7916 v 11.2083 q -6.208,3.5833 -13.833,3.5833 z" />
      <path
         inkscape:connector-curvature="0"
         id="path2650"
         style="font-style:normal;font-weight:normal;font-size:85.3333px;line-height:1.25;font-family:sans-serif;letter-spacing:0px;word-spacing:0px;fill:#66d9ef;fill-opacity:1;stroke:none"
         d="m 9913.141,2695.9653 q -6.875,0 -10.791,-1.4167 -3.917,-1.4167 -5.542,-4.875 -1.583,-3.4583 -1.583,-9.5 v -21.6667 h -11.917 v -9.375 h 11.917 v -12.75 l 12.208,-5.4166 v 18.1666 h 15.958 v 9.375 h -15.958 v 22.25 q 0,3.0834 1.542,4.4584 1.583,1.375 5.041,1.375 h 9.375 v 9.375 z" />
      <path
         inkscape:connector-curvature="0"
         id="path2652"
         style="font-style:normal;font-weight:normal;font-size:85.3333px;line-height:1.25;font-family:sans-serif;letter-spacing:0px;word-spacing:0px;fill:#66d9ef;fill-opacity:1;stroke:none"
         d="m 9948.85,2643.5903 q -1.25,0 -1.25,-1.25 v -11.75 q 0,-1.25 1.25,-1.25 h 9.708 q 1.25,0 1.25,1.25 v 11.75 q 0,1.25 -1.25,1.25 z m 15.041,52.7083 q -8.666,0 -12.5,-4.5417 -3.791,-4.5833 -3.791,-14.9166 v -18.3334 h -9.875 v -9.375 h 22.083 v 27.7084 q 0,5.4166 1.708,7.75 1.75,2.3333 5.792,2.3333 h 9.75 v 9.375 z" />
      <path
         inkscape:connector-curvature="0"
         id="path2654"
         style="font-style:normal;font-weight:normal;font-size:85.3333px;line-height:1.25;font-family:sans-serif;letter-spacing:0px;word-spacing:0px;fill:#66d9ef;fill-opacity:1;stroke:none"
         d="m 10007.1,2697.0069 q -6.625,0 -11.5,-2.9583 -4.834,-3 -7.459,-8.5 -2.625,-5.5 -2.625,-13 0,-7.5 2.625,-13 2.667,-5.5417 7.542,-8.5417 4.917,-3 11.625,-3 6.625,0 11.417,2.9584 4.791,2.9166 7.375,8.375 2.625,5.4583 2.625,12.9583 0,7.625 -2.667,13.1667 -2.625,5.5416 -7.458,8.5416 -4.834,3 -11.5,3 z m 0.04,-9.9166 q 4.292,0 6.834,-3.9167 2.541,-3.9583 2.541,-10.6667 0,-6.75 -2.541,-10.6666 -2.542,-3.9167 -6.834,-3.9167 -4.333,0 -6.875,3.9583 -2.541,3.9167 -2.541,10.625 0,6.7084 2.541,10.6667 2.542,3.9167 6.875,3.9167 z" />
      <path
         inkscape:connector-curvature="0"
         id="path2656"
         style="font-style:normal;font-weight:normal;font-size:85.3333px;line-height:1.25;font-family:sans-serif;letter-spacing:0px;word-spacing:0px;fill:#66d9ef;fill-opacity:1;stroke:none"
         d="m 10039.975,2649.1319 h 10.916 l 1.209,7 q 1.291,-3.9166 4.416,-6 3.167,-2.125 7.667,-2.125 6.5,0 9.875,4.4584 3.375,4.4583 3.375,13.0416 v 30.2917 h -12.125 v -28.4167 q 0,-4.9166 -1.417,-7.1666 -1.375,-2.2917 -4.291,-2.2917 -3.542,0 -5.542,3 -1.958,3 -1.958,8.1667 v 26.7083 h -12.125 z" />
      <path
         inkscape:connector-curvature="0"
         id="path2658"
         style="font-style:normal;font-weight:normal;font-size:85.3333px;line-height:1.25;font-family:sans-serif;letter-spacing:0px;word-spacing:0px;fill:#e8f5e9;fill-opacity:0.975;stroke:none"
         d="m 10109.016,2707.0486 q -3.083,-4.4583 -5.583,-9.2083 -2.5,-4.7084 -4.25,-9.7917 -3.208,-9.4167 -3.208,-19.0417 0,-9.625 3.25,-19.0833 1.583,-4.5833 3.916,-9.2083 2.375,-4.625 5.875,-9.6667 h 9.5 q -2.666,4.8333 -4.75,9.6667 -2.041,4.8333 -3.416,9.625 -2.667,9.1666 -2.667,18.6666 0,9.375 2.667,18.625 2.666,9.375 8.166,19.4167 z" />
      <path
         inkscape:connector-curvature="0"
         id="path2660"
         style="font-style:normal;font-weight:normal;font-size:85.3333px;line-height:1.25;font-family:sans-serif;letter-spacing:0px;word-spacing:0px;fill:#e8f5e9;fill-opacity:0.975;stroke:none"
         d="m 10152.6,2707.0486 q 5.5,-10.0417 8.166,-19.4167 2.667,-9.25 2.667,-18.625 0,-9.5 -2.667,-18.6666 -1.333,-4.5834 -3.375,-9.4167 -2,-4.8333 -4.791,-9.875 h 9.5 q 6.666,9.625 9.833,18.875 1.625,4.75 2.417,9.625 0.791,4.8333 0.791,9.5417 0,9.5416 -3.208,18.9583 -1.667,4.875 -4.125,9.5417 -2.417,4.6666 -5.708,9.4583 z" />
      <path
         inkscape:connector-curvature="0"
         id="path2662"
         style="font-style:normal;font-weight:normal;font-size:85.3333px;line-height:1.25;font-family:sans-serif;letter-spacing:0px;word-spacing:0px;fill:#e8f5e9;fill-opacity:0.975;stroke:none"
         d="m 10273.85,2709.7153 q -10.292,0 -13.875,-3.0834 -3.542,-3.0416 -3.542,-12.2916 v -8.9584 q 0,-2.9166 -0.542,-5.1666 -0.5,-2.2917 -1.666,-3.5417 -1.125,-1.2083 -3.209,-1.7917 -2.083,-0.5833 -4.875,-0.5833 h -3.833 v -7.9583 h 3.833 q 5.834,0 8.084,-2.375 2.208,-2.4584 2.208,-8.7084 v -8.9583 q 0,-9.25 3.542,-12.2917 3.416,-3.0416 13.875,-3.0416 h 6.25 v 7.9166 h -5.125 q -4.334,0 -5.792,1.75 -1.458,1.8334 -1.458,7.7084 v 8.7083 q 0,6.875 -2.042,9.6667 -2.083,2.7916 -7.292,3.5833 5.209,0.875 7.292,3.7083 2.042,2.7917 2.042,9.6667 v 8.5417 q 0,5.9583 1.458,7.7916 1.458,1.75 5.792,1.75 h 5.125 v 7.9584 z" />
      <path
         inkscape:connector-curvature="0"
         id="path2664"
         style="font-style:normal;font-variant:normal;font-weight:bold;font-stretch:normal;font-size:85.3333px;line-height:1.7;font-family:Hack;-inkscape-font-specification:'Hack Bold';letter-spacing:0px;word-spacing:0px;fill:#f92672;fill-opacity:1;stroke:none"
         d="m 9580.475,2794.1983 h 11 l 1.208,7.25 q 1.792,-3.9583 5.458,-6.1666 3.709,-2.2084 8.667,-2.2084 5.125,0 9.5,2.375 v 11.625 q -4.042,-3.6666 -10.583,-3.6666 -5.292,0 -8.584,2.4166 -3.291,2.4167 -4.083,6.9584 -0.208,1.0833 -0.292,2.625 -0.08,1.5416 -0.08,3.9583 v 21.5 h -12.208 z" />
      <path
         inkscape:connector-curvature="0"
         id="path2666"
         style="font-style:normal;font-variant:normal;font-weight:bold;font-stretch:normal;font-size:85.3333px;line-height:1.7;font-family:Hack;-inkscape-font-specification:'Hack Bold';letter-spacing:0px;word-spacing:0px;fill:#f92672;fill-opacity:1;stroke:none"
         d="m 9649.808,2842.0733 q -12.042,0 -18.333,-6.2083 -6.25,-6.25 -6.25,-18.0417 0,-7.4583 2.583,-13 2.583,-5.5833 7.708,-8.6666 5.167,-3.0834 12.917,-3.0834 6.375,0 11.042,2.9584 4.666,2.9583 7.208,8.25 2.583,5.25 2.583,12.25 v 4.9583 h -31.625 q 0,10.9167 12.75,10.9167 8.375,0 16.917,-5.0417 v 11.2083 q -8.5,3.5 -17.5,3.5 z m 7.167,-29.75 q 0,-4.8333 -2.375,-7.2916 -2.375,-2.5 -6.792,-2.5 -4.5,0 -7.042,2.5416 -2.541,2.5417 -3,7.25 z" />
      <path
         inkscape:connector-curvature="0"
         id="path2668"
         style="font-style:normal;font-variant:normal;font-weight:bold;font-stretch:normal;font-size:85.3333px;line-height:1.7;font-family:Hack;-inkscape-font-specification:'Hack Bold';letter-spacing:0px;word-spacing:0px;fill:#f92672;fill-opacity:1;stroke:none"
         d="m 9707.641,2841.0317 q -6.875,0 -10.791,-1.4167 -3.917,-1.4167 -5.542,-4.875 -1.583,-3.4583 -1.583,-9.5 v -21.6667 h -11.917 v -9.375 h 11.917 v -12.75 l 12.208,-5.4166 v 18.1666 h 15.958 v 9.375 h -15.958 v 22.25 q 0,3.0834 1.542,4.4584 1.583,1.375 5.041,1.375 h 9.375 v 9.375 z" />
      <path
         inkscape:connector-curvature="0"
         id="path2670"
         style="font-style:normal;font-variant:normal;font-weight:bold;font-stretch:normal;font-size:85.3333px;line-height:1.7;font-family:Hack;-inkscape-font-specification:'Hack Bold';letter-spacing:0px;word-spacing:0px;fill:#f92672;fill-opacity:1;stroke:none"
         d="m 9744.558,2842.0733 q -6.5,0 -9.917,-4.4583 -3.416,-4.5 -3.416,-13.0417 v -30.375 h 12.208 v 28.5 q 0,9.375 5.75,9.375 3.5,0 5.417,-2.9166 1.958,-2.9167 1.958,-8.1667 v -26.7917 h 12.208 v 46.6667 h -11 l -1.208,-6.9167 q -2.792,8.125 -12,8.125 z" />
      <path
         inkscape:connector-curvature="0"
         id="path2672"
         style="font-style:normal;font-variant:normal;font-weight:bold;font-stretch:normal;font-size:85.3333px;line-height:1.7;font-family:Hack;-inkscape-font-specification:'Hack Bold';letter-spacing:0px;word-spacing:0px;fill:#f92672;fill-opacity:1;stroke:none"
         d="m 9785.975,2794.1983 h 11 l 1.208,7.25 q 1.792,-3.9583 5.458,-6.1666 3.709,-2.2084 8.667,-2.2084 5.125,0 9.5,2.375 v 11.625 q -4.042,-3.6666 -10.583,-3.6666 -5.292,0 -8.584,2.4166 -3.291,2.4167 -4.083,6.9584 -0.208,1.0833 -0.292,2.625 -0.08,1.5416 -0.08,3.9583 v 21.5 h -12.208 z" />
      <path
         inkscape:connector-curvature="0"
         id="path2674"
         style="font-style:normal;font-variant:normal;font-weight:bold;font-stretch:normal;font-size:85.3333px;line-height:1.7;font-family:Hack;-inkscape-font-specification:'Hack Bold';letter-spacing:0px;word-spacing:0px;fill:#f92672;fill-opacity:1;stroke:none"
         d="m 9834.475,2794.1983 h 10.916 l 1.209,7 q 1.291,-3.9166 4.416,-6 3.167,-2.125 7.667,-2.125 6.5,0 9.875,4.4584 3.375,4.4583 3.375,13.0416 v 30.2917 h -12.125 v -28.4167 q 0,-4.9166 -1.417,-7.1666 -1.375,-2.2917 -4.291,-2.2917 -3.542,0 -5.542,3 -1.958,3 -1.958,8.1667 v 26.7083 h -12.125 z" />
      <path
         inkscape:connector-curvature="0"
         id="path2676"
         style="font-style:normal;font-weight:normal;font-size:85.3333px;line-height:1.25;font-family:sans-serif;letter-spacing:0px;word-spacing:0px;fill:#fd971f;fill-opacity:1;stroke:none"
         d="m 9937.891,2830.0317 h 13.75 v -38.7084 l -9.333,10.125 -5.833,-6.0833 15.25,-16.7083 h 11.875 v 51.375 h 13.75 v 10.8333 h -39.459 z" />
      <path
         inkscape:connector-curvature="0"
         id="path2678"
         style="font-style:normal;font-weight:normal;font-size:85.3333px;line-height:1.25;font-family:sans-serif;letter-spacing:0px;word-spacing:0px;fill:#e8f5e9;fill-opacity:0.975;stroke:none"
         d="m 10006.808,2811.9067 q -1.708,0 -3.083,-0.625 -1.375,-0.625 -2.334,-1.5834 -1.208,-1.2083 -1.75,-2.7083 -0.5,-1.5 -0.5,-3.125 0,-1.875 0.625,-3.3333 0.625,-1.5 1.584,-2.5 2.291,-2.2084 5.583,-2.2084 3.125,0 5.458,2.2084 1,1.0416 1.584,2.5 0.625,1.4166 0.625,3.2916 0,1.875 -0.625,3.375 -0.584,1.4584 -1.584,2.5 -1.041,1 -2.5,1.625 -1.416,0.5834 -3.083,0.5834 z m -9.833,43.375 0.625,-0.2917 q 4.833,-2.0417 7.625,-5.5 1.208,-1.5 2,-3.5 0.791,-1.9583 0.958,-4.25 -0.583,0.083 -0.542,0.083 h -0.416 q -1.459,0 -2.917,-0.4583 -1.417,-0.4583 -2.458,-1.4167 -2.125,-1.875 -2.125,-5.3333 0,-3.4167 2.25,-5.3333 1.166,-0.9584 2.5,-1.5 1.25,-0.4584 2.958,-0.4584 0.958,0 1.875,0.2084 0.917,0.1666 1.75,0.625 1.667,0.7916 2.708,2.4166 1.167,1.7084 1.625,3.75 0.542,2.125 0.542,4.8334 0,7.6666 -4.125,13.2916 -3.875,5.375 -11.708,8.3334 l -0.584,0.2083 z" />
      <path
         inkscape:connector-curvature="0"
         id="path2680"
         style="font-style:normal;font-variant:normal;font-weight:bold;font-stretch:normal;font-size:85.3333px;line-height:1.7;font-family:Hack;-inkscape-font-specification:'Hack Bold';letter-spacing:0px;word-spacing:0px;fill:#e8f5e9;fill-opacity:0.975;stroke:none"
         d="m 9477.266,2991.8898 h 5.042 q 4.333,0 5.833,-1.7917 1.5,-1.8333 1.5,-7.75 v -8.5417 q 0,-6.875 2.042,-9.6666 2.125,-2.8751 7.25,-3.7084 -5.292,-0.7917 -7.25,-3.5833 -2.042,-2.7917 -2.042,-9.6667 v -8.7083 q 0,-5.8334 -1.458,-7.6667 -0.792,-0.9583 -2.333,-1.375 -1.542,-0.4167 -3.542,-0.4167 h -5.042 v -7.9166 h 6.25 q 10.417,0 13.834,3.0416 3.458,3.0834 3.458,12.2917 v 8.9583 q 0.208,4.4167 1.042,6.75 0.875,2.3334 3.041,3.25 2.209,0.875 6.334,1.0834 h 3.833 v 7.9583 h -3.833 q -5.875,0 -8.125,2.4167 -2.292,2.4167 -2.292,8.6667 v 8.9583 q 0,9.2083 -3.458,12.2917 -3.584,3.0833 -13.834,3.0833 h -6.25 z" />
    </g>
  </g>
</svg>
