<?xml version="1.0" encoding="UTF-8" standalone="no"?>
<svg
   xmlns:dc="http://purl.org/dc/elements/1.1/"
   xmlns:cc="http://creativecommons.org/ns#"
   xmlns:rdf="http://www.w3.org/1999/02/22-rdf-syntax-ns#"
   xmlns:svg="http://www.w3.org/2000/svg"
   xmlns="http://www.w3.org/2000/svg"
   xmlns:sodipodi="http://sodipodi.sourceforge.net/DTD/sodipodi-0.dtd"
   xmlns:inkscape="http://www.inkscape.org/namespaces/inkscape"
   sodipodi:docname="inglese_scalable.svg"
   inkscape:version="1.0 (4035a4fb49, 2020-05-01)"
   id="svg27864"
   version="1.1"
   viewBox="0 0 67.733338 67.733338"
   height="67.733337mm"
   width="67.733337mm">
  <defs
     id="defs27858">
    <clipPath
       clipPathUnits="userSpaceOnUse"
       id="clipPath1698-3">
      <rect
         style="opacity:0.604;fill:#26a10d;fill-opacity:0.985;stroke:#d32f2f;stroke-width:0;stroke-linecap:round;stroke-linejoin:bevel;stroke-miterlimit:4;stroke-dasharray:none;stroke-dashoffset:0;stroke-opacity:0.94;paint-order:fill markers stroke"
         id="rect1700-6"
         width="1200"
         height="772.966"
         x="-29147.879"
         y="19470.865"
         rx="64.06395"
         ry="64.06395" />
    </clipPath>
  </defs>
  <sodipodi:namedview
     inkscape:snap-global="false"
     inkscape:window-maximized="0"
     inkscape:window-y="24"
     inkscape:window-x="576"
     inkscape:window-height="1025"
     inkscape:window-width="1336"
     fit-margin-bottom="0"
     fit-margin-right="0"
     fit-margin-left="0"
     fit-margin-top="0"
     showgrid="false"
     inkscape:document-rotation="0"
     inkscape:current-layer="layer1"
     inkscape:document-units="mm"
     inkscape:cy="1090.0304"
     inkscape:cx="445.06892"
     inkscape:zoom="0.28173784"
     inkscape:pageshadow="2"
     inkscape:pageopacity="0.0"
     borderopacity="1.0"
     bordercolor="#666666"
     pagecolor="#ffffff"
     id="base" />
  <metadata
     id="metadata27861">
    <rdf:RDF>
      <cc:Work
         rdf:about="">
        <dc:format>image/svg+xml</dc:format>
        <dc:type
           rdf:resource="http://purl.org/dc/dcmitype/StillImage" />
        <dc:title></dc:title>
        <cc:license
           rdf:resource="http://creativecommons.org/licenses/by-sa/4.0/" />
      </cc:Work>
      <cc:License
         rdf:about="http://creativecommons.org/licenses/by-sa/4.0/">
        <cc:permits
           rdf:resource="http://creativecommons.org/ns#Reproduction" />
        <cc:permits
           rdf:resource="http://creativecommons.org/ns#Distribution" />
        <cc:requires
           rdf:resource="http://creativecommons.org/ns#Notice" />
        <cc:requires
           rdf:resource="http://creativecommons.org/ns#Attribution" />
        <cc:permits
           rdf:resource="http://creativecommons.org/ns#DerivativeWorks" />
        <cc:requires
           rdf:resource="http://creativecommons.org/ns#ShareAlike" />
      </cc:License>
    </rdf:RDF>
  </metadata>
  <g
     transform="translate(1449.0385,1408.5987)"
     id="layer1"
     inkscape:groupmode="layer"
     inkscape:label="Livello 1">
    <g
       transform="matrix(0.03307292,0,0,0.03307292,-962.79677,-1499.0397)"
       id="g29244">
      <rect
         style="font-style:normal;font-weight:normal;font-size:40px;line-height:1.25;font-family:sans-serif;letter-spacing:0px;word-spacing:0px;fill:#80b3ff;fill-opacity:1;stroke:#222d32;stroke-width:0;stroke-linecap:round;stroke-linejoin:bevel;stroke-miterlimit:4;stroke-dasharray:none;stroke-dashoffset:0;stroke-opacity:1;paint-order:fill markers stroke"
         id="rect1584-7-7"
         width="2048"
         height="2048"
         x="-14702.111"
         y="2734.5952" />
      <path
         inkscape:connector-curvature="0"
         style="font-style:normal;font-weight:normal;font-size:40px;line-height:1.25;font-family:sans-serif;letter-spacing:0px;word-spacing:0px;opacity:0.604;fill:#000001;fill-opacity:0.145098;stroke:#222d32;stroke-width:0;stroke-linecap:round;stroke-linejoin:bevel;stroke-miterlimit:4;stroke-dasharray:none;stroke-dashoffset:0;stroke-opacity:1;paint-order:fill markers stroke"
         d="m -14211.843,3375.0554 c -34.794,0 -62.803,28.01 -62.803,62.803 v 647.36 c 0,20.016 9.28,37.775 23.779,49.259 1.112,1.02 2.267,1.994 3.451,2.932 1.111,1.019 2.267,1.99 3.449,2.928 1.117,1.024 2.278,1.999 3.467,2.941 1.109,1.017 2.263,1.988 3.444,2.924 1.112,1.021 2.268,1.993 3.453,2.932 1.108,1.016 2.259,1.986 3.439,2.921 1.104,1.012 2.252,1.975 3.426,2.907 1.111,1.019 2.265,1.99 3.447,2.927 1.107,1.015 2.258,1.982 3.436,2.916 1.102,1.011 2.247,1.974 3.42,2.905 1.108,1.017 2.259,1.986 3.439,2.922 1.098,1.006 2.24,1.965 3.408,2.892 1.102,1.01 2.246,1.972 3.418,2.902 1.101,1.012 2.246,1.973 3.418,2.903 1.102,1.011 2.247,1.974 3.42,2.904 1.098,1.006 2.239,1.964 3.406,2.891 1.095,1.004 2.232,1.96 3.397,2.885 1.098,1.006 2.238,1.965 3.406,2.892 1.096,1.005 2.235,1.962 3.401,2.887 1.094,1.003 2.232,1.957 3.396,2.881 1.091,1 2.222,1.953 3.383,2.875 1.093,1.002 2.23,1.957 3.392,2.881 1.091,0.999 2.225,1.951 3.385,2.873 1.091,0.999 2.223,1.952 3.383,2.873 1.09,0.998 2.222,1.949 3.381,2.869 1.085,0.994 2.211,1.941 3.365,2.857 1.088,0.997 2.219,1.945 3.375,2.863 1.086,0.996 2.214,1.946 3.369,2.864 1.086,0.994 2.212,1.941 3.365,2.857 1.078,0.987 2.199,1.928 3.344,2.838 1.086,0.995 2.213,1.943 3.367,2.859 1.083,0.992 2.207,1.938 3.358,2.852 1.074,0.983 2.191,1.919 3.332,2.826 1.082,0.992 2.207,1.939 3.357,2.854 1.079,0.988 2.201,1.928 3.348,2.84 1.077,0.986 2.195,1.926 3.34,2.835 1.076,0.986 2.194,1.925 3.338,2.834 1.072,0.982 2.184,1.919 3.324,2.825 1.071,0.98 2.185,1.913 3.322,2.818 1.077,0.986 2.194,1.926 3.338,2.836 1.073,0.981 2.187,1.918 3.326,2.824 1.068,0.977 2.177,1.909 3.311,2.811 1.066,0.976 2.174,1.905 3.306,2.806 1.069,0.979 2.18,1.912 3.315,2.815 1.068,0.977 2.178,1.908 3.312,2.81 1.063,0.973 2.167,1.901 3.295,2.799 1.069,0.978 2.178,1.91 3.313,2.813 1.061,0.971 2.164,1.896 3.291,2.793 1.064,0.973 2.167,1.901 3.297,2.8 1.059,0.969 2.159,1.893 3.283,2.788 1.064,0.973 2.169,1.901 3.299,2.8 1.054,0.964 2.149,1.883 3.267,2.774 1.062,0.972 2.166,1.899 3.293,2.797 1.058,0.967 2.157,1.891 3.28,2.785 1.053,0.963 2.148,1.881 3.265,2.771 1.055,0.966 2.152,1.886 3.272,2.778 1.055,0.965 2.152,1.883 3.271,2.775 1.05,0.961 2.14,1.876 3.254,2.764 1.053,0.963 2.145,1.881 3.262,2.771 1.051,0.961 2.143,1.877 3.258,2.766 1.047,0.957 2.135,1.87 3.246,2.756 1.052,0.962 2.146,1.881 3.263,2.771 1.045,0.955 2.129,1.865 3.237,2.748 1.046,0.957 2.134,1.869 3.244,2.754 1.046,0.957 2.132,1.868 3.242,2.752 1.041,0.952 2.122,1.86 3.227,2.74 1.044,0.955 2.129,1.864 3.236,2.746 1.043,0.954 2.124,1.863 3.23,2.745 1.042,0.952 2.124,1.859 3.229,2.74 1.041,0.951 2.121,1.858 3.225,2.738 1.035,0.946 2.111,1.849 3.209,2.725 1.039,0.95 2.118,1.855 3.22,2.734 1.034,0.945 2.107,1.847 3.203,2.721 1.038,0.948 2.117,1.853 3.217,2.73 1.033,0.943 2.105,1.842 3.199,2.715 1.037,0.947 2.112,1.852 3.211,2.729 1.03,0.94 2.098,1.836 3.19,2.707 1.025,0.936 2.09,1.828 3.176,2.695 1.033,0.945 2.107,1.846 3.203,2.721 1.026,0.937 2.092,1.831 3.179,2.699 1.03,0.941 2.099,1.838 3.19,2.709 1.026,0.937 2.092,1.831 3.18,2.699 1.024,0.936 2.088,1.829 3.173,2.695 1.03,0.941 2.098,1.838 3.19,2.709 1.018,0.93 2.077,1.815 3.156,2.676 1.02,0.931 2.078,1.819 3.158,2.682 1.028,0.938 2.093,1.834 3.182,2.703 1.018,0.929 2.074,1.815 3.152,2.676 1.016,0.927 2.071,1.815 3.147,2.673 1.018,0.932 2.077,1.816 3.156,2.678 1.017,0.929 2.073,1.814 3.15,2.674 1.014,0.925 2.064,1.808 3.137,2.666 1.015,0.927 2.07,1.811 3.145,2.67 1.014,0.926 2.068,1.808 3.142,2.666 1.013,0.924 2.065,1.805 3.137,2.662 1.009,0.921 2.055,1.799 3.123,2.652 1.011,0.923 2.06,1.805 3.131,2.661 1.013,0.924 2.064,1.805 3.137,2.662 1.005,0.917 2.048,1.791 3.113,2.642 1.011,0.923 2.06,1.805 3.131,2.66 1,0.912 2.037,1.781 3.095,2.627 1.006,0.918 2.051,1.794 3.116,2.645 1.004,0.916 2.044,1.789 3.107,2.639 0.997,0.909 2.031,1.777 3.086,2.621 1.005,0.917 2.049,1.791 3.113,2.642 1.002,0.914 2.042,1.785 3.102,2.633 1.003,0.915 2.043,1.79 3.105,2.639 0.996,0.907 2.029,1.773 3.082,2.615 0.995,0.907 2.025,1.772 3.076,2.613 0.998,0.91 2.033,1.777 3.088,2.621 0.993,0.905 2.023,1.768 3.073,2.608 0.994,0.906 2.026,1.771 3.078,2.613 0.993,0.906 2.025,1.771 3.076,2.611 0.988,0.901 2.014,1.761 3.059,2.598 0.991,0.904 2.021,1.766 3.07,2.606 0.99,0.902 2.017,1.765 3.064,2.603 0.989,0.901 2.014,1.761 3.059,2.598 0.985,0.897 2.008,1.754 3.049,2.588 0.994,0.906 2.025,1.77 3.076,2.611 0.976,0.888 1.987,1.736 3.017,2.562 0.989,0.901 2.014,1.761 3.059,2.598 0.984,0.897 2.005,1.751 3.045,2.584 0.983,0.895 2,1.75 3.039,2.582 0.982,0.895 2.001,1.747 3.039,2.578 0.974,0.887 1.983,1.732 3.012,2.557 0.982,0.895 2.002,1.75 3.041,2.582 0.971,0.884 1.978,1.728 3.004,2.551 0.981,0.894 1.998,1.749 3.035,2.58 0.976,0.889 1.99,1.736 3.021,2.562 0.975,0.888 1.987,1.736 3.016,2.561 0.97,0.883 1.975,1.727 3,2.549 0.973,0.886 1.982,1.73 3.01,2.554 0.968,0.882 1.973,1.723 2.996,2.543 0.97,0.884 1.977,1.727 3.002,2.549 0.969,0.883 1.976,1.726 3,2.547 0.972,0.885 1.979,1.728 3.006,2.551 0.961,0.874 1.956,1.709 2.97,2.523 0.966,0.88 1.969,1.719 2.989,2.537 0.965,0.879 1.967,1.72 2.986,2.537 0.963,0.877 1.963,1.714 2.98,2.53 0.96,0.873 1.954,1.706 2.967,2.519 0.966,0.879 1.967,1.718 2.987,2.535 0.957,0.871 1.948,1.701 2.959,2.512 0.96,0.874 1.955,1.708 2.968,2.522 0.956,0.869 1.947,1.698 2.955,2.507 0.961,0.875 1.957,1.708 2.971,2.522 0.957,0.87 1.947,1.703 2.957,2.514 0.952,0.865 1.939,1.691 2.943,2.498 0.948,0.861 1.931,1.683 2.93,2.486 0.956,0.87 1.948,1.701 2.957,2.512 0.949,0.863 1.933,1.686 2.934,2.49 0.95,0.865 1.936,1.69 2.939,2.496 0.95,0.864 1.936,1.687 2.938,2.492 0.949,0.863 1.932,1.688 2.933,2.492 0.948,0.862 1.93,1.684 2.93,2.487 0.943,0.857 1.92,1.677 2.914,2.476 0.949,0.863 1.935,1.686 2.936,2.491 0.94,0.854 1.914,1.673 2.906,2.47 0.943,0.858 1.923,1.675 2.918,2.475 0.938,0.853 1.911,1.667 2.9,2.463 0.941,0.855 1.918,1.673 2.91,2.47 0.94,0.854 1.914,1.669 2.905,2.465 0.935,0.851 1.904,1.662 2.89,2.455 0.938,0.853 1.91,1.668 2.899,2.463 0.936,0.852 1.909,1.663 2.896,2.457 0.935,0.85 1.905,1.663 2.891,2.455 0.935,0.85 1.905,1.661 2.891,2.453 0.925,0.842 1.885,1.645 2.861,2.43 0.936,0.851 1.906,1.664 2.892,2.457 0.928,0.843 1.89,1.647 2.868,2.434 0.929,0.844 1.893,1.651 2.873,2.439 0.936,0.851 1.906,1.662 2.892,2.455 0.924,0.839 1.879,1.64 2.852,2.422 0.928,0.843 1.89,1.648 2.867,2.434 0.928,0.842 1.888,1.648 2.865,2.433 0.919,0.834 1.872,1.632 2.84,2.411 0.918,0.833 1.868,1.629 2.834,2.408 0.931,0.845 1.896,1.652 2.877,2.441 0.924,0.839 1.88,1.639 2.854,2.422 0.908,0.824 1.849,1.611 2.804,2.381 0.92,0.835 1.872,1.634 2.84,2.414 0.92,0.835 1.875,1.632 2.844,2.412 0.911,0.827 1.855,1.618 2.814,2.391 0.932,0.846 1.898,1.654 2.879,2.443 0.903,0.818 1.838,1.602 2.787,2.367 0.915,0.83 1.862,1.624 2.824,2.399 0.914,0.828 1.861,1.62 2.823,2.394 0.921,0.836 1.873,1.634 2.843,2.414 0.9,0.815 1.83,1.594 2.776,2.356 0.91,0.825 1.851,1.615 2.808,2.386 0.91,0.825 1.853,1.614 2.811,2.385 0.908,0.823 1.848,1.61 2.803,2.379 0.907,0.822 1.846,1.611 2.801,2.379 0.901,0.817 1.835,1.598 2.783,2.361 0.906,0.821 1.843,1.608 2.797,2.375 0.898,0.814 1.828,1.594 2.773,2.356 0.909,0.823 1.848,1.611 2.805,2.381 0.887,0.803 1.805,1.574 2.738,2.326 0.909,0.824 1.852,1.612 2.809,2.383 0.893,0.808 1.815,1.583 2.754,2.34 0.905,0.819 1.843,1.605 2.796,2.373 0.885,0.8 1.799,1.568 2.729,2.318 0.896,0.812 1.823,1.588 2.766,2.348 0.896,0.811 1.823,1.59 2.765,2.349 0.895,0.811 1.823,1.586 2.764,2.344 0.893,0.808 1.815,1.584 2.754,2.34 0.887,0.802 1.804,1.571 2.736,2.322 0.891,0.806 1.812,1.578 2.748,2.332 0.89,0.806 1.81,1.578 2.746,2.332 0.891,0.806 1.81,1.58 2.746,2.334 0.88,0.796 1.791,1.558 2.715,2.303 0.895,0.81 1.821,1.586 2.762,2.344 0.879,0.794 1.787,1.558 2.711,2.302 0.885,0.801 1.8,1.568 2.73,2.317 0.878,0.793 1.784,1.556 2.705,2.299 0.888,0.802 1.806,1.572 2.739,2.324 0.877,0.792 1.781,1.552 2.703,2.295 0.88,0.795 1.788,1.558 2.713,2.302 0.874,0.79 1.775,1.548 2.693,2.288 0.878,0.793 1.785,1.555 2.707,2.298 0.878,0.793 1.783,1.555 2.705,2.297 0.877,0.793 1.784,1.555 2.705,2.297 0.868,0.784 1.765,1.537 2.676,2.272 0.873,0.789 1.776,1.545 2.693,2.285 0.867,0.782 1.761,1.534 2.67,2.267 0.875,0.791 1.778,1.55 2.698,2.291 0.866,0.783 1.761,1.534 2.671,2.268 0.879,0.794 1.786,1.555 2.709,2.299 0.854,0.77 1.734,1.512 2.629,2.234 0.883,0.797 1.794,1.56 2.721,2.307 0.86,0.775 1.746,1.521 2.648,2.248 0.86,0.774 1.744,1.519 2.645,2.246 0.866,0.781 1.759,1.535 2.668,2.267 0.863,0.779 1.754,1.528 2.66,2.258 0.855,0.771 1.736,1.512 2.633,2.235 0.862,0.777 1.751,1.528 2.656,2.257 0.86,0.775 1.747,1.52 2.649,2.247 0.851,0.767 1.729,1.506 2.623,2.226 0.859,0.775 1.743,1.52 2.644,2.246 0.85,0.766 1.726,1.504 2.617,2.223 0.863,0.778 1.752,1.526 2.657,2.256 0.848,0.764 1.721,1.499 2.611,2.217 0.855,0.77 1.736,1.511 2.633,2.234 0.845,0.761 1.715,1.496 2.601,2.211 0.852,0.768 1.732,1.506 2.625,2.226 0.857,0.773 1.74,1.516 2.639,2.241 0.851,0.765 1.727,1.504 2.619,2.222 0.842,0.757 1.706,1.489 2.588,2.2 0.846,0.761 1.717,1.494 2.604,2.209 0.848,0.762 1.72,1.5 2.609,2.216 0.838,0.754 1.701,1.481 2.58,2.19 0.832,0.748 1.687,1.47 2.559,2.174 0.268,0.241 0.543,0.476 0.816,0.712 h 833.416 v -1016.824 c -0.634,-0.546 -1.274,-1.083 -1.928,-1.607 -0.963,-0.877 -1.963,-1.713 -2.98,-2.529 -0.971,-0.885 -1.979,-1.729 -3.004,-2.551 -0.969,-0.883 -1.975,-1.724 -2.998,-2.545 -0.974,-0.887 -1.984,-1.732 -3.012,-2.557 -0.968,-0.881 -1.972,-1.721 -2.994,-2.541 -0.979,-0.892 -1.995,-1.743 -3.029,-2.572 -0.968,-0.881 -1.971,-1.722 -2.993,-2.541 -0.979,-0.893 -1.997,-1.744 -3.033,-2.574 -0.975,-0.889 -1.987,-1.737 -3.017,-2.563 -0.977,-0.89 -1.992,-1.741 -3.024,-2.568 -0.977,-0.891 -1.993,-1.739 -3.025,-2.567 -0.982,-0.895 -2.001,-1.75 -3.039,-2.582 -0.983,-0.895 -2.004,-1.749 -3.043,-2.582 -0.978,-0.89 -1.993,-1.74 -3.026,-2.568 -0.981,-0.895 -2.001,-1.747 -3.039,-2.578 -0.986,-0.899 -2.009,-1.758 -3.052,-2.594 -0.988,-0.9 -2.013,-1.76 -3.057,-2.596 -0.979,-0.891 -1.995,-1.741 -3.029,-2.57 -0.997,-0.908 -2.03,-1.776 -3.084,-2.619 -0.981,-0.893 -1.999,-1.744 -3.035,-2.574 -0.993,-0.905 -2.021,-1.769 -3.071,-2.61 -0.993,-0.905 -2.024,-1.768 -3.074,-2.609 -0.994,-0.906 -2.027,-1.772 -3.078,-2.613 -0.989,-0.901 -2.014,-1.759 -3.059,-2.596 -0.996,-0.909 -2.029,-1.776 -3.084,-2.619 -0.994,-0.906 -2.026,-1.772 -3.078,-2.613 -0.995,-0.907 -2.028,-1.772 -3.08,-2.614 -0.997,-0.909 -2.032,-1.775 -3.086,-2.619 -0.997,-0.909 -2.033,-1.777 -3.088,-2.621 -0.998,-0.91 -2.034,-1.778 -3.09,-2.623 -1.003,-0.916 -2.043,-1.789 -3.105,-2.639 -1.004,-0.915 -2.047,-1.789 -3.109,-2.638 -1.002,-0.913 -2.04,-1.786 -3.1,-2.633 -1.003,-0.915 -2.046,-1.788 -3.107,-2.637 -1.004,-0.915 -2.044,-1.789 -3.106,-2.639 -1.009,-0.92 -2.057,-1.796 -3.125,-2.65 -1.002,-0.914 -2.043,-1.786 -3.103,-2.635 -1.011,-0.922 -2.061,-1.803 -3.131,-2.658 -1.005,-0.917 -2.048,-1.792 -3.112,-2.642 -1.012,-0.924 -2.063,-1.804 -3.134,-2.661 -1.018,-0.929 -2.075,-1.815 -3.153,-2.675 -1.011,-0.923 -2.06,-1.805 -3.131,-2.661 -1.009,-0.92 -2.056,-1.798 -3.125,-2.652 -1.017,-0.929 -2.074,-1.813 -3.152,-2.674 -1.015,-0.926 -2.068,-1.811 -3.143,-2.67 -1.018,-0.929 -2.077,-1.818 -3.156,-2.679 -1.017,-0.929 -2.073,-1.812 -3.15,-2.672 -1.015,-0.927 -2.068,-1.809 -3.143,-2.668 -1.023,-0.934 -2.084,-1.826 -3.168,-2.692 -1.02,-0.931 -2.081,-1.818 -3.162,-2.681 -1.017,-0.929 -2.073,-1.817 -3.15,-2.678 -1.029,-0.94 -2.099,-1.836 -3.19,-2.707 -1.023,-0.935 -2.087,-1.826 -3.172,-2.691 -1.025,-0.936 -2.087,-1.829 -3.173,-2.696 -1.03,-0.94 -2.097,-1.836 -3.188,-2.707 -1.024,-0.934 -2.087,-1.825 -3.172,-2.691 -1.035,-0.946 -2.108,-1.848 -3.205,-2.723 -1.025,-0.936 -2.091,-1.83 -3.178,-2.697 -1.033,-0.944 -2.105,-1.845 -3.201,-2.719 -1.031,-0.942 -2.102,-1.839 -3.195,-2.711 -1.032,-0.943 -2.105,-1.842 -3.199,-2.715 -1.032,-0.942 -2.102,-1.84 -3.196,-2.712 -1.04,-0.952 -2.119,-1.857 -3.222,-2.737 -1.033,-0.944 -2.106,-1.843 -3.201,-2.717 -1.037,-0.947 -2.113,-1.85 -3.211,-2.726 -1.045,-0.955 -2.129,-1.865 -3.237,-2.748 -1.038,-0.949 -2.117,-1.855 -3.218,-2.733 -1.039,-0.948 -2.117,-1.852 -3.217,-2.73 -1.043,-0.954 -2.126,-1.864 -3.233,-2.746 -1.043,-0.954 -2.126,-1.863 -3.232,-2.744 -1.046,-0.956 -2.131,-1.866 -3.24,-2.75 -1.042,-0.952 -2.123,-1.86 -3.227,-2.741 -1.049,-0.959 -2.139,-1.873 -3.252,-2.759 -1.05,-0.96 -2.14,-1.875 -3.254,-2.762 -1.047,-0.957 -2.135,-1.869 -3.246,-2.754 -1.048,-0.959 -2.135,-1.873 -3.248,-2.76 -1.051,-0.961 -2.143,-1.877 -3.258,-2.765 -1.054,-0.964 -2.149,-1.883 -3.267,-2.774 -1.052,-0.961 -2.144,-1.881 -3.26,-2.769 -1.056,-0.966 -2.152,-1.887 -3.273,-2.78 -1.055,-0.963 -2.151,-1.882 -3.27,-2.773 -1.059,-0.968 -2.157,-1.891 -3.281,-2.785 -1.05,-0.96 -2.14,-1.875 -3.254,-2.762 -1.061,-0.971 -2.163,-1.896 -3.289,-2.793 -1.066,-0.975 -2.171,-1.904 -3.303,-2.805 -1.059,-0.968 -2.161,-1.892 -3.285,-2.787 -1.058,-0.967 -2.155,-1.891 -3.277,-2.785 -1.062,-0.971 -2.166,-1.896 -3.293,-2.793 -1.067,-0.976 -2.172,-1.907 -3.305,-2.808 -1.061,-0.971 -2.163,-1.895 -3.289,-2.791 -1.071,-0.981 -2.184,-1.916 -3.322,-2.821 -1.064,-0.973 -2.168,-1.9 -3.297,-2.799 -1.07,-0.979 -2.182,-1.912 -3.319,-2.816 -1.068,-0.978 -2.177,-1.91 -3.312,-2.813 -1.07,-0.978 -2.181,-1.912 -3.319,-2.816 -1.069,-0.98 -2.183,-1.914 -3.32,-2.818 -1.074,-0.984 -2.19,-1.923 -3.332,-2.83 -1.076,-0.986 -2.194,-1.925 -3.338,-2.834 -1.069,-0.979 -2.181,-1.912 -3.316,-2.815 -1.076,-0.985 -2.195,-1.925 -3.338,-2.834 -1.079,-0.988 -2.199,-1.93 -3.346,-2.842 -1.077,-0.986 -2.195,-1.927 -3.34,-2.835 -1.078,-0.988 -2.199,-1.928 -3.345,-2.838 -1.087,-0.996 -2.214,-1.944 -3.369,-2.862 -1.074,-0.982 -2.188,-1.919 -3.329,-2.826 -1.084,-0.994 -2.212,-1.941 -3.365,-2.857 -1.084,-0.993 -2.211,-1.938 -3.363,-2.854 -1.085,-0.994 -2.213,-1.941 -3.367,-2.857 -1.086,-0.994 -2.212,-1.941 -3.365,-2.858 -1.089,-0.997 -2.221,-1.949 -3.379,-2.869 -1.081,-0.989 -2.204,-1.931 -3.352,-2.844 -1.094,-1.003 -2.23,-1.96 -3.394,-2.884 -1.089,-0.998 -2.222,-1.948 -3.379,-2.868 -1.094,-1.002 -2.23,-1.955 -3.393,-2.878 -1.089,-0.998 -2.217,-1.948 -3.375,-2.868 -1.096,-1.004 -2.235,-1.961 -3.4,-2.886 -1.094,-1.003 -2.23,-1.958 -3.393,-2.881 -1.094,-1.003 -2.231,-1.957 -3.394,-2.881 -1.096,-1.005 -2.235,-1.961 -3.401,-2.887 -1.1,-1.008 -2.243,-1.969 -3.414,-2.898 -1.097,-1.006 -2.237,-1.963 -3.404,-2.889 -1.101,-1.009 -2.245,-1.971 -3.416,-2.9 -1.097,-1.006 -2.237,-1.964 -3.405,-2.891 -1.105,-1.014 -2.254,-1.98 -3.431,-2.914 -1.102,-1.01 -2.247,-1.974 -3.42,-2.904 -1.103,-1.012 -2.25,-1.975 -3.424,-2.906 -1.106,-1.015 -2.256,-1.983 -3.434,-2.917 -1.107,-1.015 -2.257,-1.981 -3.435,-2.916 -1.109,-1.017 -2.263,-1.985 -3.443,-2.921 -1.108,-1.016 -2.259,-1.984 -3.438,-2.918 -1.108,-1.017 -2.261,-1.987 -3.441,-2.922 -1.11,-1.018 -2.264,-1.987 -3.446,-2.924 -1.114,-1.023 -2.271,-1.997 -3.459,-2.938 -1.108,-1.016 -2.259,-1.984 -3.439,-2.92 -1.12,-1.027 -2.284,-2.006 -3.477,-2.951 -1.111,-1.019 -2.264,-1.99 -3.447,-2.927 -11.168,-10.248 -26.076,-16.493 -42.498,-16.493 z"
         id="path10000-5" />
      <path
         d="m -14213.435,3372.1321 h 1070.644 c 35.815,0 64.646,28.8311 64.646,64.6459 v 643.6425 c 0,35.8068 -28.831,64.6459 -64.646,64.6459 h -1070.644 c -35.815,0 -64.654,-28.8391 -64.654,-64.6459 V 3436.778 c 0,-35.8148 28.839,-64.6459 64.654,-64.6459 z"
         style="fill:#0d48a2;fill-opacity:1;stroke-width:348.512;stroke-linejoin:round;stroke-miterlimit:0.22;stroke-dashoffset:830"
         id="path29160-5" />
      <path
         id="rect29079-3"
         style="fill:#ffffff;stroke-width:348.512;stroke-linejoin:round;stroke-miterlimit:0.22;stroke-dashoffset:830"
         d="m -14213.427,3372.1401 c -35.815,0 -64.662,28.8231 -64.662,64.6379 v 6.7198 l 489.176,315.1095 -489.176,315.0694 v 6.7518 c 0,35.8148 28.847,64.6379 64.662,64.6379 h 1070.652 c 35.815,0 64.63,-28.8231 64.63,-64.6379 v -6.6718 l -489.2,-315.1175 489.2,-315.1414 v -6.7198 c 0,-35.8148 -28.815,-64.6379 -64.63,-64.6379 z m 46.102,0 h 978.376 l -489.192,315.1015 z m 489.184,457.7848 489.224,315.1175 h -978.44 z" />
      <path
         id="rect29073-5"
         style="fill:#d63b3b;fill-opacity:1;stroke-width:348.512;stroke-linejoin:round;stroke-miterlimit:0.22;stroke-dashoffset:830"
         d="m -14213.435,3372.1401 c -30.367,0 -55.63,20.7433 -62.638,48.8864 l 524.078,337.5968 -524.078,337.5807 c 7.024,28.1191 32.287,48.8624 62.638,48.8624 h 9.295 l 526.031,-338.8367 526.03,338.8367 h 9.296 c 30.343,0 55.614,-20.7353 62.638,-48.8464 l -524.095,-337.5967 524.111,-337.5968 c -7.008,-28.1431 -32.287,-48.8864 -62.654,-48.8864 h -9.184 l -526.142,338.8927 -526.143,-338.8927 z m 1133.306,48.8864 c 0.64,2.4479 1.088,4.9438 1.416,7.4798 -0.32,-2.536 -0.816,-5.0399 -1.416,-7.4798 z m -1195.944,0 c -0.64,2.4479 -1.088,4.9358 -1.424,7.4798 0.32,-2.536 0.816,-5.0399 1.424,-7.4798 z m -1.48,7.8397 c -0.32,2.6 -0.56,5.2239 -0.56,7.9118 0,-2.6959 0.32,-5.3198 0.56,-7.9118 z m 1198.88,0 c 0.32,2.6 0.56,5.2239 0.56,7.9118 0,-2.6959 -0.32,-5.3118 -0.56,-7.9118 z m -1199.416,651.5623 c 0,2.6559 0.32,5.2878 0.48,7.8718 -0.32,-2.568 -0.48,-5.2079 -0.48,-7.8718 z m 1199.944,0 c 0,2.6559 -0.32,5.2958 -0.48,7.8718 0.32,-2.568 0.48,-5.1999 0.48,-7.8718 z m -1199.328,8.4477 c 0.32,2.48 0.8,4.8719 1.36,7.2398 -0.56,-2.3599 -1.032,-4.7838 -1.36,-7.2398 z m 1198.72,0 c -0.32,2.448 -0.8,4.8399 -1.36,7.1918 0.56,-2.3599 1.032,-4.7438 1.36,-7.1918 z" />
      <path
         id="rect29087-6"
         style="fill:#ffffff;fill-opacity:1;stroke-width:348.512;stroke-linejoin:round;stroke-miterlimit:0.22;stroke-dashoffset:830"
         d="m -13780.386,3372.1401 v 284.2226 h -497.703 v 204.5211 h 497.703 v 284.1826 h 204.529 v -284.1826 h 497.712 v -204.5211 h -497.712 v -284.2226 z" />
      <path
         id="rect29083-2"
         style="fill:#d63b3b;fill-opacity:1;stroke-width:348.512;stroke-linejoin:round;stroke-miterlimit:0.22;stroke-dashoffset:830"
         d="m -13738.107,3372.1401 v 326.5012 h -539.982 v 119.9959 h 539.982 v 326.4292 h 119.996 v -326.4292 h 539.966 v -119.9959 h -539.966 v -326.5012 z m -521.087,18.8874 c -1.456,1.448 -2.84,2.9919 -4.16,4.5919 1.304,-1.6 2.72,-3.1279 4.176,-4.5919 0,0 0,0 0,0 z m -4.16,730.5676 c 1.328,1.608 2.72,3.1199 4.176,4.5839 -1.456,-1.456 -2.848,-2.9999 -4.176,-4.5839 z" />
      <path
         id="rect1177-9-6"
         style="font-style:normal;font-weight:normal;font-size:40px;line-height:1.25;font-family:sans-serif;letter-spacing:0px;word-spacing:0px;opacity:0.604;fill:#373737;fill-opacity:0.462745;stroke:#222d32;stroke-width:0;stroke-linecap:round;stroke-linejoin:bevel;stroke-miterlimit:4;stroke-dasharray:none;stroke-dashoffset:0;stroke-opacity:1;paint-order:fill markers stroke"
         d="m -13678.101,3372.1241 v 772.9423 h 535.326 c 35.807,0 64.63,-28.8391 64.63,-64.6539 V 3436.778 c 0,-35.8148 -28.823,-64.6539 -64.63,-64.6539 z" />
    </g>
  </g>
</svg>
