<?xml version="1.0" encoding="UTF-8" standalone="no"?>
<svg
   xmlns:dc="http://purl.org/dc/elements/1.1/"
   xmlns:cc="http://creativecommons.org/ns#"
   xmlns:rdf="http://www.w3.org/1999/02/22-rdf-syntax-ns#"
   xmlns:svg="http://www.w3.org/2000/svg"
   xmlns="http://www.w3.org/2000/svg"
   xmlns:sodipodi="http://sodipodi.sourceforge.net/DTD/sodipodi-0.dtd"
   xmlns:inkscape="http://www.inkscape.org/namespaces/inkscape"
   inkscape:export-ydpi="767.97998"
   inkscape:export-xdpi="767.97998"
   inkscape:export-filename="/home/fjall/Projects/telegram-icons/2048x2048/I anno/italiano.png"
   width="67.733337mm"
   height="67.733337mm"
   viewBox="0 0 67.733338 67.733338"
   version="1.1"
   id="svg27864"
   inkscape:version="1.0 (4035a4fb49, 2020-05-01)"
   sodipodi:docname="italiano_scalable.svg">
  <defs
     id="defs27858">
    <clipPath
       id="clipPath1698-3"
       clipPathUnits="userSpaceOnUse">
      <rect
         ry="64.06395"
         rx="64.06395"
         y="19470.865"
         x="-29147.879"
         height="772.966"
         width="1200"
         id="rect1700-6"
         style="opacity:0.604;fill:#26a10d;fill-opacity:0.985;stroke:#d32f2f;stroke-width:0;stroke-linecap:round;stroke-linejoin:bevel;stroke-miterlimit:4;stroke-dasharray:none;stroke-dashoffset:0;stroke-opacity:0.94;paint-order:fill markers stroke" />
    </clipPath>
    <clipPath
       id="clipPath882"
       clipPathUnits="userSpaceOnUse">
      <path
         clip-path="none"
         mask="none"
         d="m -1432.8765,-1387.5133 h 35.4094 c 1.1845,0 2.138,0.9536 2.138,2.138 v 21.2871 c 0,1.1843 -0.9535,2.138 -2.138,2.138 h -35.4094 c -1.1845,0 -2.1383,-0.9537 -2.1383,-2.138 v -21.2871 c 0,-1.1845 0.9538,-2.138 2.1383,-2.138 z"
         style="fill:#0d48a2;fill-opacity:1;stroke-width:11.5263;stroke-linejoin:round;stroke-miterlimit:0.22;stroke-dashoffset:830"
         id="path884" />
    </clipPath>
    <clipPath
       clipPathUnits="userSpaceOnUse"
       id="clipPath1698-3-7">
      <rect
         style="opacity:0.604;fill:#26a10d;fill-opacity:0.985;stroke:#d32f2f;stroke-width:0;stroke-linecap:round;stroke-linejoin:bevel;stroke-miterlimit:4;stroke-dasharray:none;stroke-dashoffset:0;stroke-opacity:0.94;paint-order:fill markers stroke"
         id="rect1700-6-5"
         width="1200"
         height="772.966"
         x="-29147.879"
         y="19470.865"
         rx="64.06395"
         ry="64.06395" />
    </clipPath>
    <clipPath
       clipPathUnits="userSpaceOnUse"
       id="clipPath1698-3-0">
      <rect
         style="opacity:0.604;fill:#26a10d;fill-opacity:0.985;stroke:#d32f2f;stroke-width:0;stroke-linecap:round;stroke-linejoin:bevel;stroke-miterlimit:4;stroke-dasharray:none;stroke-dashoffset:0;stroke-opacity:0.94;paint-order:fill markers stroke"
         id="rect1700-6-9"
         width="1200"
         height="772.966"
         x="-29147.879"
         y="19470.865"
         rx="64.06395"
         ry="64.06395" />
    </clipPath>
  </defs>
  <sodipodi:namedview
     id="base"
     pagecolor="#ffffff"
     bordercolor="#666666"
     borderopacity="1.0"
     inkscape:pageopacity="0.0"
     inkscape:pageshadow="2"
     inkscape:zoom="2.2539027"
     inkscape:cx="201.18197"
     inkscape:cy="116.30085"
     inkscape:document-units="mm"
     inkscape:current-layer="layer1"
     inkscape:document-rotation="0"
     showgrid="false"
     fit-margin-top="0"
     fit-margin-left="0"
     fit-margin-right="0"
     fit-margin-bottom="0"
     inkscape:window-width="1920"
     inkscape:window-height="1056"
     inkscape:window-x="0"
     inkscape:window-y="24"
     inkscape:window-maximized="1"
     inkscape:snap-global="false" />
  <metadata
     id="metadata27861">
    <rdf:RDF>
      <cc:Work
         rdf:about="">
        <dc:format>image/svg+xml</dc:format>
        <dc:type
           rdf:resource="http://purl.org/dc/dcmitype/StillImage" />
        <dc:title />
        <cc:license
           rdf:resource="http://creativecommons.org/licenses/by-sa/4.0/" />
      </cc:Work>
      <cc:License
         rdf:about="http://creativecommons.org/licenses/by-sa/4.0/">
        <cc:permits
           rdf:resource="http://creativecommons.org/ns#Reproduction" />
        <cc:permits
           rdf:resource="http://creativecommons.org/ns#Distribution" />
        <cc:requires
           rdf:resource="http://creativecommons.org/ns#Notice" />
        <cc:requires
           rdf:resource="http://creativecommons.org/ns#Attribution" />
        <cc:permits
           rdf:resource="http://creativecommons.org/ns#DerivativeWorks" />
        <cc:requires
           rdf:resource="http://creativecommons.org/ns#ShareAlike" />
      </cc:License>
    </rdf:RDF>
  </metadata>
  <g
     inkscape:label="Livello 1"
     inkscape:groupmode="layer"
     id="layer1"
     transform="translate(1449.0385,1408.5987)">
    <g
       id="g1056">
      <rect
         y="-1408.5986"
         x="-1449.0386"
         height="67.733337"
         width="67.733337"
         id="rect1584-7-7"
         style="font-style:normal;font-weight:normal;font-size:40px;line-height:1.25;font-family:sans-serif;letter-spacing:0px;word-spacing:0px;fill:#ffecb3;fill-opacity:1;stroke:#222d32;stroke-width:0;stroke-linecap:round;stroke-linejoin:bevel;stroke-miterlimit:4;stroke-dasharray:none;stroke-dashoffset:0;stroke-opacity:1;paint-order:fill markers stroke" />
      <path
         id="path10000-5"
         d="m -1432.8239,-1387.4168 c -1.1508,0 -2.0771,0.9264 -2.0771,2.0771 v 21.4101 c 0,0.662 0.3069,1.2493 0.7864,1.6291 0.037,0.034 0.075,0.066 0.1142,0.097 0.037,0.034 0.075,0.066 0.114,0.097 0.037,0.034 0.075,0.066 0.1147,0.097 0.037,0.034 0.075,0.066 0.1139,0.097 0.037,0.034 0.075,0.066 0.1142,0.097 0.037,0.034 0.075,0.066 0.1138,0.097 0.036,0.034 0.074,0.065 0.1133,0.096 0.037,0.034 0.075,0.066 0.114,0.097 0.037,0.034 0.075,0.066 0.1136,0.097 0.036,0.033 0.074,0.065 0.1131,0.096 0.037,0.034 0.075,0.066 0.1138,0.097 0.036,0.033 0.074,0.065 0.1127,0.096 0.036,0.034 0.074,0.065 0.113,0.096 0.036,0.034 0.074,0.065 0.113,0.096 0.037,0.034 0.074,0.065 0.1132,0.096 0.036,0.033 0.074,0.065 0.1126,0.096 0.036,0.033 0.074,0.065 0.1124,0.095 0.036,0.033 0.074,0.065 0.1126,0.096 0.036,0.033 0.074,0.065 0.1125,0.095 0.036,0.033 0.074,0.065 0.1123,0.095 0.036,0.033 0.073,0.065 0.1119,0.095 0.036,0.033 0.074,0.065 0.1122,0.095 0.036,0.033 0.074,0.064 0.1119,0.095 0.036,0.033 0.073,0.065 0.1119,0.095 0.036,0.033 0.073,0.064 0.1118,0.095 0.036,0.033 0.073,0.064 0.1113,0.094 0.036,0.033 0.073,0.064 0.1116,0.095 0.036,0.033 0.073,0.064 0.1115,0.095 0.036,0.033 0.073,0.064 0.1112,0.094 0.036,0.033 0.073,0.064 0.1106,0.094 0.036,0.033 0.073,0.064 0.1114,0.094 0.036,0.033 0.073,0.064 0.1111,0.094 0.035,0.032 0.072,0.063 0.1102,0.093 0.036,0.033 0.073,0.064 0.111,0.094 0.036,0.033 0.073,0.064 0.1107,0.094 0.036,0.033 0.073,0.064 0.1105,0.094 0.036,0.033 0.072,0.064 0.1104,0.094 0.035,0.033 0.072,0.063 0.1099,0.093 0.035,0.033 0.072,0.063 0.1099,0.093 0.036,0.033 0.072,0.064 0.1104,0.094 0.035,0.033 0.072,0.063 0.11,0.093 0.035,0.032 0.072,0.063 0.1095,0.093 0.035,0.032 0.072,0.063 0.1093,0.093 0.035,0.032 0.072,0.063 0.1097,0.093 0.035,0.032 0.072,0.063 0.1095,0.093 0.035,0.032 0.072,0.063 0.109,0.093 0.035,0.032 0.072,0.063 0.1095,0.093 0.035,0.032 0.072,0.063 0.1089,0.092 0.035,0.032 0.072,0.063 0.109,0.093 0.035,0.032 0.071,0.063 0.1086,0.092 0.035,0.032 0.072,0.063 0.1091,0.093 0.035,0.032 0.071,0.062 0.1081,0.092 0.035,0.032 0.072,0.063 0.1089,0.092 0.035,0.032 0.071,0.062 0.1084,0.092 0.035,0.032 0.071,0.062 0.108,0.092 0.035,0.032 0.071,0.062 0.1082,0.092 0.035,0.032 0.071,0.062 0.1082,0.092 0.035,0.032 0.071,0.062 0.1076,0.091 0.035,0.032 0.071,0.062 0.1079,0.092 0.035,0.032 0.071,0.062 0.1078,0.091 0.035,0.032 0.071,0.062 0.1073,0.091 0.035,0.032 0.071,0.062 0.108,0.092 0.034,0.032 0.07,0.062 0.107,0.091 0.035,0.032 0.071,0.062 0.1073,0.091 0.035,0.032 0.071,0.062 0.1072,0.091 0.034,0.032 0.07,0.062 0.1067,0.091 0.035,0.032 0.071,0.062 0.1071,0.091 0.034,0.032 0.07,0.062 0.1068,0.091 0.034,0.032 0.07,0.062 0.1068,0.091 0.034,0.032 0.07,0.062 0.1066,0.091 0.034,0.031 0.07,0.061 0.1062,0.09 0.034,0.031 0.07,0.061 0.1065,0.09 0.034,0.031 0.07,0.061 0.1059,0.09 0.034,0.031 0.07,0.061 0.1064,0.09 0.034,0.031 0.07,0.061 0.1058,0.09 0.034,0.031 0.07,0.061 0.1062,0.09 0.034,0.031 0.069,0.061 0.1055,0.09 0.034,0.031 0.069,0.061 0.105,0.089 0.034,0.031 0.07,0.061 0.106,0.09 0.034,0.031 0.069,0.061 0.1051,0.089 0.034,0.031 0.069,0.061 0.1055,0.09 0.034,0.031 0.069,0.061 0.1052,0.089 0.034,0.031 0.069,0.06 0.1049,0.089 0.034,0.031 0.069,0.061 0.1055,0.09 0.034,0.031 0.069,0.06 0.1044,0.089 0.034,0.031 0.069,0.06 0.1045,0.089 0.034,0.031 0.069,0.061 0.1052,0.089 0.034,0.031 0.069,0.06 0.1042,0.089 0.034,0.031 0.068,0.06 0.1041,0.088 0.034,0.031 0.069,0.06 0.1044,0.089 0.034,0.031 0.069,0.06 0.1042,0.088 0.034,0.031 0.068,0.06 0.1037,0.088 0.034,0.031 0.069,0.06 0.104,0.088 0.034,0.031 0.068,0.06 0.104,0.088 0.034,0.031 0.068,0.06 0.1037,0.088 0.033,0.03 0.068,0.06 0.1033,0.088 0.033,0.031 0.068,0.06 0.1035,0.088 0.034,0.031 0.068,0.06 0.1038,0.088 0.033,0.03 0.068,0.059 0.1029,0.087 0.034,0.031 0.068,0.06 0.1036,0.088 0.033,0.03 0.067,0.059 0.1024,0.087 0.033,0.03 0.068,0.059 0.103,0.087 0.033,0.03 0.068,0.059 0.1028,0.087 0.033,0.03 0.067,0.059 0.102,0.087 0.033,0.03 0.068,0.059 0.103,0.087 0.033,0.03 0.067,0.059 0.1026,0.087 0.033,0.03 0.068,0.059 0.1027,0.087 0.033,0.03 0.067,0.059 0.1019,0.086 0.033,0.03 0.067,0.059 0.1017,0.087 0.033,0.03 0.067,0.059 0.1022,0.087 0.033,0.03 0.067,0.059 0.1016,0.086 0.033,0.03 0.067,0.059 0.1018,0.086 0.033,0.03 0.067,0.059 0.1017,0.086 0.033,0.03 0.067,0.058 0.1012,0.086 0.033,0.03 0.067,0.058 0.1015,0.086 0.033,0.03 0.067,0.058 0.1014,0.086 0.033,0.03 0.067,0.058 0.1011,0.086 0.033,0.03 0.066,0.058 0.1009,0.086 0.033,0.03 0.067,0.058 0.1017,0.086 0.032,0.029 0.066,0.057 0.1,0.085 0.033,0.03 0.067,0.058 0.1012,0.086 0.033,0.03 0.066,0.058 0.1007,0.086 0.033,0.03 0.066,0.058 0.1005,0.085 0.033,0.03 0.066,0.058 0.1005,0.085 0.032,0.029 0.066,0.057 0.1,0.085 0.033,0.03 0.066,0.058 0.1006,0.085 0.032,0.029 0.065,0.057 0.099,0.084 0.032,0.03 0.066,0.058 0.1004,0.085 0.032,0.029 0.066,0.057 0.1,0.085 0.032,0.029 0.066,0.057 0.1,0.085 0.032,0.029 0.065,0.057 0.099,0.084 0.032,0.029 0.066,0.057 0.1,0.084 0.032,0.029 0.065,0.057 0.099,0.084 0.032,0.029 0.065,0.057 0.099,0.084 0.032,0.029 0.065,0.057 0.099,0.084 0.032,0.029 0.065,0.057 0.099,0.084 0.032,0.029 0.065,0.056 0.098,0.083 0.032,0.029 0.065,0.057 0.099,0.084 0.032,0.029 0.065,0.057 0.099,0.084 0.032,0.029 0.065,0.057 0.099,0.084 0.032,0.029 0.065,0.056 0.098,0.083 0.032,0.029 0.065,0.057 0.099,0.084 0.032,0.029 0.064,0.056 0.098,0.083 0.032,0.029 0.065,0.057 0.098,0.084 0.032,0.029 0.064,0.056 0.098,0.083 0.032,0.029 0.065,0.057 0.098,0.083 0.032,0.029 0.064,0.056 0.098,0.083 0.031,0.029 0.064,0.056 0.097,0.083 0.031,0.029 0.064,0.056 0.097,0.082 0.032,0.029 0.064,0.056 0.098,0.083 0.031,0.029 0.064,0.056 0.097,0.082 0.031,0.029 0.064,0.056 0.097,0.082 0.032,0.029 0.064,0.056 0.097,0.082 0.031,0.028 0.064,0.056 0.097,0.082 0.031,0.028 0.064,0.056 0.097,0.082 0.031,0.028 0.063,0.055 0.096,0.082 0.031,0.029 0.064,0.056 0.097,0.082 0.031,0.028 0.063,0.055 0.096,0.082 0.031,0.028 0.064,0.055 0.097,0.082 0.031,0.028 0.063,0.055 0.096,0.082 0.031,0.028 0.063,0.055 0.096,0.082 0.031,0.028 0.063,0.055 0.096,0.082 0.031,0.028 0.063,0.055 0.096,0.081 0.031,0.028 0.063,0.055 0.096,0.082 0.031,0.028 0.063,0.055 0.096,0.081 0.031,0.028 0.063,0.055 0.096,0.081 0.031,0.028 0.063,0.055 0.096,0.081 0.031,0.028 0.062,0.054 0.095,0.08 0.031,0.028 0.063,0.055 0.096,0.081 0.031,0.028 0.062,0.054 0.095,0.08 0.031,0.028 0.063,0.055 0.095,0.081 0.031,0.028 0.063,0.055 0.096,0.081 0.031,0.028 0.062,0.054 0.094,0.08 0.031,0.028 0.062,0.055 0.095,0.081 0.031,0.028 0.062,0.054 0.095,0.081 0.03,0.028 0.062,0.054 0.094,0.08 0.03,0.028 0.062,0.054 0.094,0.08 0.031,0.028 0.063,0.055 0.095,0.081 0.031,0.028 0.062,0.054 0.094,0.08 0.03,0.027 0.061,0.053 0.093,0.079 0.03,0.028 0.062,0.054 0.094,0.08 0.031,0.028 0.062,0.054 0.094,0.08 0.03,0.027 0.061,0.053 0.093,0.079 0.031,0.028 0.063,0.055 0.095,0.081 0.03,0.027 0.061,0.053 0.092,0.078 0.03,0.027 0.062,0.054 0.093,0.079 0.03,0.027 0.062,0.054 0.093,0.079 0.03,0.028 0.062,0.054 0.094,0.08 0.03,0.027 0.061,0.053 0.092,0.078 0.03,0.027 0.061,0.053 0.093,0.079 0.03,0.027 0.061,0.053 0.093,0.079 0.03,0.027 0.061,0.053 0.093,0.079 0.03,0.027 0.061,0.053 0.093,0.079 0.03,0.027 0.061,0.053 0.092,0.078 0.03,0.027 0.061,0.053 0.093,0.079 0.03,0.027 0.06,0.053 0.092,0.078 0.03,0.027 0.061,0.053 0.093,0.079 0.029,0.026 0.06,0.052 0.091,0.077 0.03,0.027 0.061,0.053 0.093,0.079 0.03,0.027 0.06,0.052 0.091,0.077 0.03,0.027 0.061,0.053 0.092,0.079 0.029,0.026 0.06,0.052 0.09,0.077 0.03,0.027 0.06,0.053 0.091,0.078 0.03,0.027 0.06,0.053 0.091,0.078 0.03,0.027 0.06,0.052 0.091,0.078 0.029,0.027 0.06,0.052 0.091,0.077 0.029,0.026 0.06,0.052 0.09,0.077 0.03,0.027 0.06,0.052 0.091,0.077 0.029,0.027 0.06,0.052 0.091,0.077 0.029,0.027 0.06,0.052 0.091,0.077 0.029,0.026 0.059,0.052 0.09,0.076 0.03,0.027 0.06,0.053 0.091,0.078 0.029,0.026 0.059,0.052 0.09,0.076 0.029,0.026 0.06,0.052 0.09,0.077 0.029,0.026 0.059,0.051 0.089,0.076 0.029,0.027 0.06,0.052 0.091,0.077 0.029,0.026 0.059,0.051 0.089,0.076 0.029,0.026 0.059,0.052 0.09,0.076 0.029,0.026 0.059,0.051 0.089,0.076 0.029,0.026 0.059,0.051 0.089,0.076 0.029,0.026 0.059,0.051 0.09,0.076 0.029,0.026 0.059,0.051 0.089,0.076 0.029,0.026 0.058,0.051 0.089,0.075 0.029,0.026 0.059,0.051 0.089,0.076 0.029,0.026 0.058,0.051 0.088,0.075 0.029,0.026 0.059,0.051 0.089,0.076 0.029,0.026 0.058,0.051 0.088,0.075 0.029,0.026 0.059,0.051 0.09,0.076 0.028,0.025 0.057,0.05 0.087,0.074 0.029,0.026 0.059,0.052 0.09,0.076 0.028,0.026 0.058,0.05 0.088,0.074 0.028,0.026 0.058,0.05 0.087,0.074 0.029,0.026 0.058,0.051 0.088,0.075 0.029,0.026 0.058,0.051 0.088,0.075 0.028,0.025 0.057,0.05 0.087,0.074 0.028,0.026 0.058,0.051 0.088,0.075 0.028,0.026 0.058,0.05 0.088,0.074 0.028,0.025 0.057,0.05 0.087,0.074 0.028,0.026 0.058,0.05 0.087,0.074 0.028,0.025 0.057,0.05 0.087,0.074 0.029,0.026 0.058,0.05 0.088,0.075 0.028,0.025 0.057,0.05 0.086,0.073 0.028,0.025 0.057,0.05 0.087,0.074 0.028,0.025 0.057,0.05 0.086,0.073 0.028,0.025 0.057,0.05 0.087,0.074 0.028,0.025 0.058,0.05 0.087,0.074 0.028,0.025 0.057,0.05 0.087,0.073 0.028,0.025 0.056,0.049 0.086,0.073 0.028,0.025 0.057,0.049 0.086,0.073 0.028,0.025 0.057,0.05 0.086,0.073 0.028,0.025 0.056,0.049 0.085,0.072 0.028,0.025 0.056,0.049 0.085,0.072 0.01,0.01 0.018,0.016 0.027,0.024 h 27.5635 v -33.6294 c -0.021,-0.018 -0.042,-0.036 -0.064,-0.053 -0.032,-0.029 -0.065,-0.057 -0.099,-0.084 -0.032,-0.029 -0.065,-0.057 -0.099,-0.084 -0.032,-0.029 -0.065,-0.057 -0.099,-0.084 -0.032,-0.029 -0.066,-0.057 -0.1,-0.085 -0.032,-0.029 -0.065,-0.057 -0.099,-0.084 -0.032,-0.03 -0.066,-0.058 -0.1002,-0.085 -0.032,-0.029 -0.065,-0.057 -0.099,-0.084 -0.032,-0.03 -0.066,-0.058 -0.1003,-0.085 -0.032,-0.029 -0.066,-0.057 -0.1,-0.085 -0.032,-0.029 -0.066,-0.058 -0.1,-0.085 -0.032,-0.03 -0.066,-0.058 -0.1,-0.085 -0.033,-0.03 -0.066,-0.058 -0.1005,-0.085 -0.033,-0.03 -0.066,-0.058 -0.1007,-0.085 -0.032,-0.029 -0.066,-0.058 -0.1,-0.085 -0.033,-0.03 -0.066,-0.058 -0.1005,-0.085 -0.033,-0.03 -0.066,-0.058 -0.101,-0.086 -0.033,-0.03 -0.067,-0.058 -0.1011,-0.086 -0.032,-0.029 -0.066,-0.058 -0.1002,-0.085 -0.033,-0.03 -0.067,-0.059 -0.102,-0.087 -0.032,-0.029 -0.066,-0.058 -0.1003,-0.085 -0.033,-0.03 -0.067,-0.059 -0.1016,-0.086 -0.033,-0.03 -0.067,-0.058 -0.1017,-0.086 -0.033,-0.03 -0.067,-0.059 -0.1018,-0.086 -0.033,-0.03 -0.067,-0.058 -0.1011,-0.086 -0.033,-0.03 -0.067,-0.059 -0.102,-0.087 -0.033,-0.03 -0.067,-0.059 -0.1018,-0.086 -0.033,-0.03 -0.067,-0.059 -0.1019,-0.087 -0.033,-0.03 -0.067,-0.059 -0.1021,-0.087 -0.033,-0.03 -0.067,-0.059 -0.1021,-0.087 -0.033,-0.03 -0.067,-0.059 -0.1022,-0.087 -0.033,-0.03 -0.068,-0.059 -0.1027,-0.087 -0.033,-0.03 -0.068,-0.059 -0.1028,-0.087 -0.033,-0.03 -0.067,-0.059 -0.1025,-0.087 -0.033,-0.03 -0.068,-0.059 -0.1028,-0.087 -0.033,-0.03 -0.068,-0.059 -0.1027,-0.087 -0.033,-0.031 -0.068,-0.059 -0.1034,-0.088 -0.033,-0.03 -0.068,-0.059 -0.1026,-0.087 -0.033,-0.031 -0.068,-0.06 -0.1035,-0.088 -0.033,-0.03 -0.068,-0.059 -0.103,-0.087 -0.033,-0.031 -0.068,-0.06 -0.1036,-0.088 -0.034,-0.031 -0.069,-0.06 -0.1043,-0.089 -0.033,-0.03 -0.068,-0.06 -0.1035,-0.088 -0.033,-0.03 -0.068,-0.059 -0.1034,-0.088 -0.034,-0.031 -0.069,-0.06 -0.1042,-0.088 -0.034,-0.031 -0.068,-0.06 -0.104,-0.088 -0.034,-0.031 -0.069,-0.06 -0.1044,-0.089 -0.034,-0.031 -0.069,-0.06 -0.1042,-0.088 -0.034,-0.031 -0.068,-0.06 -0.1039,-0.088 -0.034,-0.031 -0.069,-0.06 -0.1048,-0.089 -0.034,-0.031 -0.069,-0.06 -0.1046,-0.089 -0.034,-0.031 -0.069,-0.06 -0.1041,-0.088 -0.034,-0.031 -0.07,-0.061 -0.1055,-0.09 -0.034,-0.031 -0.069,-0.06 -0.1049,-0.089 -0.034,-0.031 -0.069,-0.06 -0.105,-0.089 -0.034,-0.031 -0.069,-0.061 -0.1054,-0.09 -0.034,-0.031 -0.069,-0.06 -0.1049,-0.089 -0.034,-0.031 -0.07,-0.061 -0.106,-0.09 -0.034,-0.031 -0.069,-0.061 -0.1051,-0.089 -0.034,-0.031 -0.07,-0.061 -0.1059,-0.09 -0.034,-0.031 -0.069,-0.061 -0.1057,-0.09 -0.034,-0.031 -0.07,-0.061 -0.1058,-0.09 -0.034,-0.031 -0.07,-0.061 -0.1057,-0.09 -0.034,-0.032 -0.07,-0.061 -0.1065,-0.091 -0.034,-0.031 -0.07,-0.061 -0.1059,-0.09 -0.034,-0.031 -0.07,-0.061 -0.1062,-0.09 -0.035,-0.032 -0.07,-0.062 -0.107,-0.091 -0.034,-0.031 -0.07,-0.061 -0.1065,-0.09 -0.034,-0.031 -0.07,-0.061 -0.1064,-0.09 -0.034,-0.032 -0.07,-0.062 -0.1069,-0.091 -0.034,-0.032 -0.07,-0.062 -0.1069,-0.091 -0.035,-0.032 -0.071,-0.062 -0.1071,-0.091 -0.034,-0.032 -0.07,-0.062 -0.1068,-0.091 -0.035,-0.032 -0.071,-0.062 -0.1075,-0.091 -0.035,-0.032 -0.071,-0.062 -0.1076,-0.091 -0.035,-0.032 -0.071,-0.062 -0.1074,-0.091 -0.035,-0.032 -0.071,-0.062 -0.1074,-0.091 -0.035,-0.032 -0.071,-0.062 -0.1078,-0.091 -0.035,-0.032 -0.071,-0.062 -0.108,-0.092 -0.035,-0.032 -0.071,-0.062 -0.1078,-0.092 -0.035,-0.032 -0.071,-0.062 -0.1083,-0.092 -0.035,-0.032 -0.071,-0.062 -0.1081,-0.092 -0.035,-0.032 -0.071,-0.063 -0.1085,-0.092 -0.035,-0.032 -0.071,-0.062 -0.1077,-0.091 -0.035,-0.032 -0.072,-0.063 -0.1087,-0.092 -0.035,-0.032 -0.072,-0.063 -0.1093,-0.093 -0.035,-0.032 -0.072,-0.063 -0.1086,-0.092 -0.035,-0.032 -0.071,-0.063 -0.1084,-0.092 -0.035,-0.032 -0.072,-0.063 -0.1089,-0.092 -0.035,-0.032 -0.072,-0.063 -0.1093,-0.093 -0.035,-0.032 -0.072,-0.063 -0.1088,-0.092 -0.035,-0.032 -0.072,-0.063 -0.1099,-0.093 -0.035,-0.032 -0.072,-0.063 -0.109,-0.092 -0.035,-0.032 -0.072,-0.063 -0.1098,-0.093 -0.035,-0.032 -0.072,-0.063 -0.1095,-0.093 -0.035,-0.032 -0.072,-0.063 -0.1098,-0.093 -0.035,-0.032 -0.072,-0.063 -0.1098,-0.093 -0.035,-0.033 -0.072,-0.064 -0.1102,-0.094 -0.036,-0.033 -0.072,-0.064 -0.1104,-0.094 -0.035,-0.032 -0.072,-0.063 -0.1097,-0.093 -0.036,-0.033 -0.072,-0.064 -0.1103,-0.094 -0.036,-0.033 -0.073,-0.064 -0.1107,-0.094 -0.036,-0.033 -0.073,-0.064 -0.1105,-0.094 -0.036,-0.033 -0.073,-0.064 -0.1106,-0.094 -0.036,-0.033 -0.073,-0.064 -0.1114,-0.095 -0.036,-0.032 -0.072,-0.063 -0.1101,-0.093 -0.036,-0.033 -0.073,-0.064 -0.1113,-0.094 -0.036,-0.033 -0.073,-0.064 -0.1112,-0.094 -0.036,-0.033 -0.073,-0.064 -0.1114,-0.095 -0.036,-0.033 -0.073,-0.064 -0.1113,-0.094 -0.036,-0.033 -0.073,-0.064 -0.1117,-0.095 -0.036,-0.033 -0.073,-0.064 -0.1109,-0.094 -0.036,-0.033 -0.074,-0.065 -0.1123,-0.095 -0.036,-0.033 -0.073,-0.064 -0.1117,-0.095 -0.036,-0.033 -0.074,-0.065 -0.1122,-0.095 -0.036,-0.033 -0.073,-0.064 -0.1116,-0.095 -0.036,-0.033 -0.074,-0.065 -0.1125,-0.096 -0.036,-0.033 -0.074,-0.065 -0.1122,-0.095 -0.036,-0.033 -0.074,-0.065 -0.1123,-0.095 -0.036,-0.033 -0.074,-0.065 -0.1124,-0.095 -0.036,-0.033 -0.074,-0.065 -0.1129,-0.096 -0.036,-0.033 -0.074,-0.065 -0.1126,-0.096 -0.036,-0.033 -0.074,-0.065 -0.113,-0.096 -0.036,-0.033 -0.074,-0.065 -0.1126,-0.096 -0.037,-0.034 -0.075,-0.065 -0.1135,-0.096 -0.036,-0.033 -0.074,-0.065 -0.1131,-0.096 -0.036,-0.033 -0.074,-0.065 -0.1132,-0.096 -0.037,-0.034 -0.075,-0.066 -0.1136,-0.096 -0.037,-0.034 -0.075,-0.066 -0.1136,-0.097 -0.037,-0.034 -0.075,-0.066 -0.1139,-0.097 -0.037,-0.034 -0.075,-0.066 -0.1137,-0.097 -0.037,-0.034 -0.075,-0.066 -0.1138,-0.097 -0.037,-0.034 -0.075,-0.066 -0.114,-0.097 -0.037,-0.034 -0.075,-0.066 -0.1144,-0.097 -0.037,-0.034 -0.075,-0.066 -0.1137,-0.097 -0.037,-0.034 -0.076,-0.066 -0.115,-0.098 -0.037,-0.034 -0.075,-0.066 -0.114,-0.097 -0.3694,-0.3389 -0.8624,-0.5455 -1.4055,-0.5455 z"
         style="font-style:normal;font-weight:normal;font-size:40px;line-height:1.25;font-family:sans-serif;letter-spacing:0px;word-spacing:0px;opacity:0.604;fill:#000001;fill-opacity:0.145098;stroke:#222d32;stroke-width:0;stroke-linecap:round;stroke-linejoin:bevel;stroke-miterlimit:4;stroke-dasharray:none;stroke-dashoffset:0;stroke-opacity:1;paint-order:fill markers stroke"
         inkscape:connector-curvature="0" />
      <path
         id="path1041"
         style="fill:#ce2b37;fill-opacity:1;stroke-width:85.1225"
         d="M 152.99805 79.693359 L 152.99805 176.30859 L 194.94922 176.30859 C 199.40868 176.28818 202.99414 172.69214 202.99414 168.22852 L 202.99414 87.773438 C 202.99414 83.296587 199.38896 79.693359 194.91211 79.693359 L 152.99805 79.693359 z "
         transform="matrix(0.26458333,0,0,0.26458333,-1449.0385,-1408.5987)" />
      <path
         id="rect843"
         style="fill:#ffffff;stroke-width:85.1225"
         d="M 103 79.693359 L 103 176.30859 L 152.99805 176.30859 L 152.99805 79.693359 L 103 79.693359 z "
         transform="matrix(0.26458333,0,0,0.26458333,-1449.0385,-1408.5987)" />
      <path
         id="path29160-5"
         style="fill:#00803e;fill-opacity:1;stroke-width:11.5263;stroke-linejoin:round;stroke-miterlimit:0.22;stroke-dashoffset:830"
         d="m -1432.8762,-1387.5132 c -1.1845,0 -2.1384,0.9533 -2.1384,2.1378 v 21.2871 c 0,1.181 0.9487,2.1325 2.1286,2.1379 h 11.0996 v -25.5628 z" />
      <path
         d="m -1415.1716,-1387.5135 v 25.5634 h 17.7048 c 1.1842,0 2.1375,-0.9537 2.1375,-2.1382 v -21.2869 c 0,-1.1845 -0.9533,-2.1383 -2.1375,-2.1383 z"
         style="font-style:normal;font-weight:normal;font-size:40px;line-height:1.25;font-family:sans-serif;letter-spacing:0px;word-spacing:0px;opacity:0.604;fill:#000001;fill-opacity:0.168627;stroke:#222d32;stroke-width:0;stroke-linecap:round;stroke-linejoin:bevel;stroke-miterlimit:4;stroke-dasharray:none;stroke-dashoffset:0;stroke-opacity:1;paint-order:fill markers stroke"
         id="rect1177-9-6" />
    </g>
  </g>
</svg>
