<?xml version="1.0" encoding="UTF-8" standalone="no"?>
<svg
   xmlns:dc="http://purl.org/dc/elements/1.1/"
   xmlns:cc="http://creativecommons.org/ns#"
   xmlns:rdf="http://www.w3.org/1999/02/22-rdf-syntax-ns#"
   xmlns:svg="http://www.w3.org/2000/svg"
   xmlns="http://www.w3.org/2000/svg"
   xmlns:sodipodi="http://sodipodi.sourceforge.net/DTD/sodipodi-0.dtd"
   xmlns:inkscape="http://www.inkscape.org/namespaces/inkscape"
   sodipodi:docname="controlli_scalable.svg"
   inkscape:version="1.0 (4035a4fb49, 2020-05-01)"
   id="svg27864"
   version="1.1"
   viewBox="0 0 67.733338 67.733361"
   height="67.73336mm"
   width="67.733337mm">
  <defs
     id="defs27858">
    <clipPath
       clipPathUnits="userSpaceOnUse"
       id="clipPath1698-3">
      <rect
         style="opacity:0.604;fill:#26a10d;fill-opacity:0.985;stroke:#d32f2f;stroke-width:0;stroke-linecap:round;stroke-linejoin:bevel;stroke-miterlimit:4;stroke-dasharray:none;stroke-dashoffset:0;stroke-opacity:0.94;paint-order:fill markers stroke"
         id="rect1700-6"
         width="1200"
         height="772.966"
         x="-29147.879"
         y="19470.865"
         rx="64.06395"
         ry="64.06395" />
    </clipPath>
    <clipPath
       id="clipPath29374"
       clipPathUnits="userSpaceOnUse">
      <rect
         style="opacity:1;fill:#014c77;fill-opacity:1;stroke:none;stroke-width:4.4;stroke-linecap:round;stroke-linejoin:bevel;stroke-miterlimit:4;stroke-dasharray:none;stroke-dashoffset:0;stroke-opacity:1;paint-order:fill markers stroke"
         id="rect29376"
         width="2048"
         height="2048"
         x="-18040.27"
         y="7264.1074" />
    </clipPath>
    <clipPath
       id="clipPath1237"
       clipPathUnits="userSpaceOnUse">
      <g
         id="g1245">
        <rect
           ry="28.853754"
           rx="28.853754"
           y="8911.8291"
           x="-17557.889"
           height="98.791946"
           width="1083.2383"
           id="rect1239"
           style="opacity:1;fill:#e1f5fe;fill-opacity:1;stroke:none;stroke-width:4.4;stroke-linecap:round;stroke-linejoin:bevel;stroke-miterlimit:4;stroke-dasharray:none;stroke-dashoffset:0;stroke-opacity:1;paint-order:fill markers stroke" />
        <rect
           ry="28.8538"
           rx="28.853802"
           y="8984.541"
           x="-17372.984"
           height="66.819221"
           width="713.43213"
           id="rect1241"
           style="opacity:1;fill:#e1f5fe;fill-opacity:1;stroke:none;stroke-width:4.4;stroke-linecap:round;stroke-linejoin:bevel;stroke-miterlimit:4;stroke-dasharray:none;stroke-dashoffset:0;stroke-opacity:1;paint-order:fill markers stroke" />
        <path
           id="path1243"
           d="m -17324.329,8432.3038 c -18.32,0 -33.343,14.4272 -35.635,33.2188 h -0.312 v 5.0019 30.5742 132.9981 c 0,163.6929 123.952,295.4765 277.918,295.4765 h 132.179 c 122.164,0 225.42,-82.9726 262.867,-199.0156 a 129.26388,129.26388 0 0 0 15.041,1.0391 129.26388,129.26388 0 0 0 129.264,-129.2637 129.26388,129.26388 0 0 0 -129.256,-129.2637 v -2.5449 -5.0019 h -0.314 c -2.292,-18.7916 -17.314,-33.2188 -35.633,-33.2188 z m 652.066,103.461 a 66.567536,66.567536 0 0 1 66.561,66.5683 66.567536,66.567536 0 0 1 -66.569,66.5664 66.567536,66.567536 0 0 1 -1.892,-0.094 c 1.242,-11.3827 1.9,-22.9607 1.9,-34.709 z"
           style="opacity:1;fill:#e1f5fe;fill-opacity:1;stroke:none;stroke-width:4.4;stroke-linecap:round;stroke-linejoin:bevel;stroke-miterlimit:4;stroke-dasharray:none;stroke-dashoffset:0;stroke-opacity:1;paint-order:fill markers stroke"
           inkscape:connector-curvature="0" />
      </g>
    </clipPath>
  </defs>
  <sodipodi:namedview
     inkscape:snap-global="false"
     inkscape:window-maximized="0"
     inkscape:window-y="24"
     inkscape:window-x="576"
     inkscape:window-height="1025"
     inkscape:window-width="1336"
     fit-margin-bottom="0"
     fit-margin-right="0"
     fit-margin-left="0"
     fit-margin-top="0"
     showgrid="false"
     inkscape:document-rotation="0"
     inkscape:current-layer="layer1"
     inkscape:document-units="mm"
     inkscape:cy="588.31706"
     inkscape:cx="1004.4634"
     inkscape:zoom="0.19921874"
     inkscape:pageshadow="2"
     inkscape:pageopacity="0.0"
     borderopacity="1.0"
     bordercolor="#666666"
     pagecolor="#ffffff"
     id="base" />
  <metadata
     id="metadata27861">
    <rdf:RDF>
      <cc:Work
         rdf:about="">
        <dc:format>image/svg+xml</dc:format>
        <dc:type
           rdf:resource="http://purl.org/dc/dcmitype/StillImage" />
        <dc:title></dc:title>
        <cc:license
           rdf:resource="http://creativecommons.org/licenses/by-sa/4.0/" />
      </cc:Work>
      <cc:License
         rdf:about="http://creativecommons.org/licenses/by-sa/4.0/">
        <cc:permits
           rdf:resource="http://creativecommons.org/ns#Reproduction" />
        <cc:permits
           rdf:resource="http://creativecommons.org/ns#Distribution" />
        <cc:requires
           rdf:resource="http://creativecommons.org/ns#Notice" />
        <cc:requires
           rdf:resource="http://creativecommons.org/ns#Attribution" />
        <cc:permits
           rdf:resource="http://creativecommons.org/ns#DerivativeWorks" />
        <cc:requires
           rdf:resource="http://creativecommons.org/ns#ShareAlike" />
      </cc:License>
    </rdf:RDF>
  </metadata>
  <g
     transform="translate(2647.9228,2731.6246)"
     id="layer1"
     inkscape:groupmode="layer"
     inkscape:label="Livello 1">
    <g
       transform="matrix(0.03307292,0,0,0.03307292,-1850.1343,-2653.9229)"
       id="g29431">
      <rect
         style="fill:#009688;fill-opacity:1;stroke:none;stroke-width:155.05;stroke-linecap:round;stroke-linejoin:round;stroke-miterlimit:4;stroke-dasharray:none;stroke-dashoffset:0;stroke-opacity:1;paint-order:stroke markers fill"
         id="rect6550"
         width="2048"
         height="2048"
         x="-24122.105"
         y="-2349.4045"
         rx="0"
         ry="0" />
      <path
         inkscape:connector-curvature="0"
         style="fill:#000001;fill-opacity:0.145098;stroke:none;stroke-width:68.7686;stroke-linecap:round;stroke-linejoin:miter;stroke-miterlimit:4;stroke-dasharray:none;stroke-opacity:0.188235;paint-order:markers fill stroke"
         d="m -23160.782,-2067.845 v 111.885 c 1.112,-0.167 2.222,-0.337 3.338,-0.498 v 3.662 c 1.108,-0.166 2.214,-0.333 3.326,-0.494 v 3.621 c 1.108,-0.166 2.214,-0.335 3.326,-0.496 v 3.638 c 1.106,-0.165 2.21,-0.333 3.321,-0.494 v 3.621 c 1.106,-0.165 2.209,-0.333 3.32,-0.494 v 3.627 c 1.104,-0.165 2.206,-0.332 3.314,-0.492 v 3.623 c 1.104,-0.165 2.206,-0.332 3.315,-0.492 v 3.619 c 1.103,-0.165 2.203,-0.334 3.31,-0.494 v 3.615 c 1.101,-0.165 2.2,-0.33 3.305,-0.49 v 3.611 c 1.099,-0.164 2.197,-0.33 3.301,-0.49 v 3.605 c 1.098,-0.164 2.194,-0.33 3.297,-0.49 v 3.605 c 1.099,-0.164 2.195,-0.332 3.299,-0.492 v 3.604 c 1.096,-0.164 2.191,-0.331 3.292,-0.49 v 3.595 c 1.096,-0.164 2.189,-0.329 3.29,-0.488 v 3.594 c 1.095,-0.164 2.187,-0.329 3.287,-0.489 v 3.59 c 1.092,-0.163 2.184,-0.327 3.281,-0.486 v 3.584 c 1.093,-0.164 2.184,-0.329 3.281,-0.488 v 3.584 c 1.091,-0.164 2.179,-0.328 3.274,-0.487 v 3.578 c 1.089,-0.163 2.177,-0.327 3.271,-0.486 v 2.818 c -1.092,0.07 -2.184,0.149 -3.271,0.227 v -2.559 c -1.092,0.164 -2.187,0.325 -3.274,0.493 v -3.584 c -1.094,0.163 -2.191,0.326 -3.281,0.494 v -3.59 c -1.094,0.164 -2.192,0.324 -3.281,0.492 v -3.59 c -1.097,0.164 -2.196,0.326 -3.287,0.494 v -3.595 c -1.098,0.164 -2.197,0.327 -3.29,0.496 v -3.602 c -1.098,0.165 -2.199,0.326 -3.292,0.494 v -3.599 c -1.101,0.164 -2.204,0.325 -3.299,0.494 v -3.606 c -1.1,0.165 -2.202,0.328 -3.297,0.497 v -3.612 c -1.101,0.165 -2.205,0.327 -3.301,0.496 v -3.611 c -1.102,0.165 -2.207,0.327 -3.305,0.496 v -3.617 c -1.104,0.165 -2.211,0.328 -3.31,0.498 v -3.619 c -1.106,0.165 -2.214,0.328 -3.315,0.498 v -3.625 c -1.105,0.165 -2.213,0.33 -3.314,0.5 v -3.631 c -1.107,0.166 -2.218,0.328 -3.32,0.498 v -3.631 c -1.108,0.166 -2.218,0.328 -3.321,0.498 v -3.625 c -1.109,0.166 -2.221,0.33 -3.326,0.5 v -3.642 c -1.109,0.166 -2.221,0.327 -3.326,0.498 v -3.625 c -1.113,0.166 -2.23,0.331 -3.338,0.502 v -3.666 c -236.436,35.377 -365.596,174.621 -429.885,311.966 -46.004,98.285 -61.298,195.668 -66.277,255.748 l 4.281,-7.416 c -0.353,3.647 -0.66,7.145 -0.943,10.557 l 4.26,-7.377 c -0.353,3.639 -0.662,7.132 -0.944,10.537 l 4.276,-7.406 c -0.353,3.637 -0.66,7.129 -0.942,10.533 l 4.27,-7.392 c -0.352,3.63 -0.66,7.116 -0.942,10.513 2.1,-3.637 2.128,-3.684 4.254,-7.367 -0.351,3.629 -0.658,7.115 -0.939,10.512 l 4.25,-7.361 c -0.351,3.624 -0.657,7.105 -0.938,10.498 l 4.256,-7.372 c -0.35,3.619 -0.655,7.095 -0.935,10.483 l 4.242,-7.35 c -0.35,3.618 -0.655,7.094 -0.936,10.481 l 4.235,-7.336 c -0.35,3.612 -0.654,7.083 -0.934,10.465 l 4.24,-7.346 c -0.348,3.606 -0.652,7.071 -0.931,10.447 l 4.222,-7.316 c -0.348,3.603 -0.65,7.064 -0.929,10.437 l 4.224,-7.318 c -0.348,3.604 -0.654,7.067 -0.933,10.441 l 4.234,-7.334 c -0.348,3.598 -0.652,7.057 -0.932,10.426 l 4.213,-7.297 c -0.347,3.592 -0.649,7.044 -0.928,10.408 l 4.223,-7.314 c -0.347,3.59 -0.651,7.04 -0.93,10.402 l 4.206,-7.285 c -0.347,3.585 -0.65,7.033 -0.928,10.391 l 4.211,-7.295 c -0.347,3.585 -0.65,7.032 -0.928,10.391 l 4.199,-7.276 c -0.345,3.575 -0.648,7.014 -0.926,10.363 l 3.389,-5.869 c -0.02,3.665 -0.01,6.099 0.01,7.301 -0.05,0.57 -0.09,1.101 -0.133,1.664 l 0.164,-0.283 0.03,0.896 -0.04,1.114 c 0,0 -0.07,2.421 -0.06,6.849 l -0.864,1.494 c 0.224,-3.234 0.474,-6.576 0.764,-10.07 l -4.033,6.985 c 0.224,-3.238 0.473,-6.583 0.763,-10.081 l -4.039,6.997 c 0.224,-3.239 0.476,-6.585 0.766,-10.084 l -4.051,7.015 c 0.225,-3.247 0.477,-6.602 0.768,-10.111 l -4.043,7.002 c 0.224,-3.246 0.475,-6.6 0.765,-10.108 l -4.062,7.036 c 0.225,-3.251 0.478,-6.61 0.769,-10.124 l -4.054,7.022 c 0.225,-3.254 0.478,-6.616 0.769,-10.133 l -4.07,7.049 c 0.225,-3.256 0.476,-6.621 0.768,-10.141 l -4.063,7.036 c 0.225,-3.262 0.479,-6.633 0.772,-10.159 l -4.065,7.039 c 0.225,-3.262 0.479,-6.633 0.772,-10.16 l -4.079,7.065 c 0.226,-3.264 0.478,-6.637 0.77,-10.166 l -4.072,7.05 c 0.225,-3.268 0.478,-6.645 0.771,-10.179 l -4.08,7.066 c 0.226,-3.273 0.48,-6.657 0.774,-10.197 l -4.092,7.088 c 0.226,-3.274 0.478,-6.659 0.771,-10.199 l -4.086,7.078 c 0.227,-3.279 0.48,-6.668 0.774,-10.215 l -4.09,7.082 c 0.226,-3.283 0.481,-6.676 0.775,-10.227 -2.024,3.507 -2.16,3.742 -4.101,7.104 0.226,-3.282 0.479,-6.674 0.773,-10.225 l -4.109,7.117 c 0.226,-3.288 0.48,-6.686 0.775,-10.244 l -4.092,7.088 c 0.227,-3.289 0.481,-6.689 0.776,-10.248 l -4.115,7.125 c 0.227,-3.294 0.481,-6.701 0.777,-10.266 l -30.649,53.084 c 0,0 -68.964,119.454 -69.099,119.688 h 5.15 c -0.1,0.166 -1.813,3.138 -1.816,3.144 h 5.14 c -0.1,0.166 -1.808,3.135 -1.812,3.141 h 5.139 c -0.1,0.166 -1.809,3.135 -1.813,3.141 h 5.131 c -0.09,0.165 -1.807,3.128 -1.811,3.135 h 5.131 c -0.09,0.165 -1.807,3.128 -1.81,3.134 h 5.121 c -0.1,0.165 -1.803,3.123 -1.807,3.129 h 5.119 c -0.09,0.165 -1.801,3.121 -1.804,3.127 h 5.113 c -0.1,0.164 -1.799,3.115 -1.803,3.121 h 5.108 c -0.1,0.164 -1.8,3.115 -1.803,3.121 h 5.1 c -0.09,0.164 -1.796,3.112 -1.799,3.118 h 5.095 c -0.09,0.163 -1.793,3.107 -1.796,3.113 h 5.093 c -0.09,0.163 -1.793,3.105 -1.797,3.111 h 5.088 c -0.09,0.163 -1.791,3.102 -1.795,3.108 h 5.082 c -0.09,0.162 -1.789,3.099 -1.793,3.105 h 5.079 c -0.09,0.162 -1.788,3.096 -1.791,3.102 h 5.068 c -0.09,0.161 -1.784,3.089 -1.787,3.095 h 5.07 c -0.09,0.162 -1.786,3.092 -1.789,3.098 h 5.059 c -0.09,0.161 -1.782,3.086 -1.786,3.092 h 5.057 c -0.09,0.16 -1.78,3.082 -1.783,3.088 h 5.049 c -0.09,0.16 -1.779,3.078 -1.781,3.084 h 5.046 c -0.09,0.16 -1.778,3.078 -1.781,3.084 h 5.041 c -0.09,0.159 -1.774,3.074 -1.777,3.08 h 5.035 c -0.09,0.159 -1.772,3.07 -1.775,3.076 h 5.029 c -0.09,0.159 -1.77,3.066 -1.774,3.072 h 5.026 c -0.09,0.159 -1.77,3.065 -1.774,3.07 h 5.02 c -0.09,0.159 -1.766,3.061 -1.77,3.067 h 5.012 c -0.09,0.158 -1.764,3.057 -1.767,3.062 h 5.011 c -0.09,0.158 -1.764,3.057 -1.767,3.063 h 5.004 c -0.09,0.157 -1.763,3.051 -1.766,3.056 h 4.998 c -0.09,0.157 -1.758,3.048 -1.762,3.053 h 4.996 c -0.09,0.157 -1.758,3.047 -1.761,3.053 h 4.986 c -0.09,0.156 -1.757,3.041 -1.76,3.047 h 4.985 c -0.09,0.156 -1.753,3.037 -1.756,3.043 h 4.974 c -0.09,0.156 -1.752,3.037 -1.756,3.043 h 4.975 c -0.09,0.155 -1.751,3.031 -1.754,3.037 h 4.973 c -0.09,0.155 -1.751,3.031 -1.754,3.037 h 4.961 c -0.09,0.155 -1.747,3.026 -1.75,3.031 h 4.957 c -0.09,0.155 -1.745,3.024 -1.748,3.03 h 4.951 c -0.09,0.153 -1.743,3.019 -1.746,3.025 h 4.949 c -0.09,0.154 -1.743,3.018 -1.746,3.023 h 3.473 c 0.174,0.55 0.341,1.098 0.517,1.649 -0.02,0.03 -0.789,1.368 -0.791,1.371 h 1.235 c 8.324,25.848 18.468,52.475 30.839,79.168 27.937,60.279 68.152,120.943 124.131,173.197 1.348,1.28 2.695,2.56 4.061,3.83 1.073,1.015 2.142,2.032 3.226,3.041 1.203,1.139 2.406,2.277 3.624,3.408 0.907,0.859 1.809,1.72 2.726,2.575 1.121,1.063 2.235,2.129 3.369,3.185 1.211,1.148 2.421,2.296 3.647,3.436 1.039,0.983 2.073,1.969 3.123,2.947 1.047,0.992 2.088,1.987 3.146,2.973 1.199,1.137 2.396,2.275 3.61,3.404 0.996,0.943 1.985,1.89 2.992,2.828 1.12,1.062 2.234,2.127 3.367,3.182 1.214,1.15 2.427,2.301 3.656,3.443 0.96,0.908 1.912,1.818 2.881,2.721 1.202,1.139 2.401,2.28 3.617,3.412 0.995,0.941 1.984,1.884 2.989,2.82 1.159,1.099 2.315,2.2 3.488,3.291 1.034,0.979 2.062,1.961 3.107,2.934 1.073,1.016 2.139,2.035 3.223,3.045 1.128,1.069 2.251,2.142 3.392,3.205 1.139,1.078 2.275,2.157 3.426,3.228 0.984,0.931 1.962,1.865 2.955,2.791 1.109,1.051 2.211,2.105 3.332,3.149 1.184,1.121 2.365,2.243 3.563,3.357 0.966,0.914 1.925,1.832 2.9,2.74 1.142,1.083 2.281,2.165 3.436,3.241 1.056,1 2.106,2.004 3.174,2.998 1.081,1.024 2.158,2.05 3.252,3.068 1.098,1.041 2.192,2.083 3.302,3.117 1.067,1.011 2.131,2.023 3.209,3.028 1.096,1.037 2.188,2.076 3.295,3.107 1.022,0.968 2.038,1.939 3.071,2.9 1.14,1.081 2.277,2.165 3.431,3.239 1.003,0.949 2.001,1.901 3.014,2.845 1.13,1.071 2.255,2.144 3.398,3.207 1.039,0.984 2.073,1.97 3.123,2.948 1.048,0.992 2.091,1.988 3.151,2.974 1.088,1.031 2.171,2.065 3.271,3.09 1.162,1.101 2.323,2.202 3.498,3.295 0.916,0.866 1.826,1.736 2.75,2.598 1.114,1.055 2.222,2.113 3.348,3.162 1.096,1.038 2.188,2.079 3.297,3.111 1.045,0.99 2.086,1.981 3.142,2.965 1.089,1.031 2.175,2.063 3.276,3.088 1.018,0.964 2.031,1.932 3.06,2.891 1.08,1.022 2.155,2.046 3.246,3.062 1.025,0.97 2.043,1.944 3.079,2.908 1.094,1.038 2.186,2.077 3.292,3.108 0.992,0.939 1.977,1.881 2.979,2.814 1.162,1.101 2.321,2.203 3.496,3.297 1.016,0.961 2.027,1.925 3.053,2.881 1.002,0.948 1.998,1.899 3.01,2.842 1.11,1.052 2.216,2.106 3.339,3.152 0.975,0.922 1.942,1.848 2.926,2.766 1.15,1.09 2.298,2.18 3.461,3.263 1.117,1.057 2.234,2.114 3.363,3.164 0.849,0.803 1.691,1.608 2.547,2.407 1.088,1.031 2.17,2.066 3.27,3.091 1.051,0.996 2.094,1.995 3.156,2.985 1.024,0.97 2.042,1.944 3.076,2.908 1.204,1.141 2.408,2.283 3.627,3.416 0.917,0.866 1.827,1.736 2.752,2.598 1.064,1.007 2.122,2.016 3.197,3.017 1.075,1.018 2.146,2.036 3.233,3.047 0.994,0.941 1.984,1.885 2.988,2.82 1.014,0.96 2.021,1.923 3.045,2.877 1.089,1.032 2.174,2.065 3.275,3.09 0.969,0.917 1.931,1.837 2.909,2.748 1.091,1.034 2.177,2.07 3.281,3.098 1.049,0.992 2.094,1.986 3.154,2.973 0.973,0.92 1.94,1.844 2.922,2.759 1.075,1.018 2.146,2.039 3.233,3.051 1.032,0.977 2.058,1.957 3.101,2.928 0.978,0.925 1.95,1.853 2.938,2.773 1.073,1.017 2.141,2.035 3.226,3.045 1.036,0.98 2.067,1.963 3.113,2.938 1.101,1.042 2.201,2.084 3.315,3.119 0.905,0.856 1.805,1.715 2.719,2.566 1.078,1.022 2.153,2.044 3.244,3.059 0.962,0.91 1.917,1.823 2.888,2.728 1.01,0.956 2.012,1.915 3.032,2.866 1.023,0.968 2.038,1.941 3.072,2.904 1.085,1.028 2.166,2.057 3.264,3.078 0.972,0.92 1.938,1.843 2.922,2.758 0.99,0.938 1.975,1.879 2.976,2.812 1.097,1.039 2.19,2.079 3.299,3.112 0.963,0.91 1.92,1.824 2.892,2.73 1.013,0.959 2.02,1.92 3.043,2.873 1.044,0.988 2.084,1.979 3.139,2.961 0.965,0.913 1.923,1.829 2.897,2.736 1.067,1.012 2.131,2.025 3.211,3.03 0.991,0.938 1.978,1.878 2.98,2.81 1.014,0.96 2.023,1.922 3.047,2.875 0.968,0.916 1.93,1.835 2.908,2.746 0.974,0.923 1.942,1.847 2.926,2.764 1.04,0.985 2.074,1.974 3.125,2.953 1.062,1.005 2.12,2.011 3.193,3.01 0.909,0.859 1.81,1.723 2.727,2.578 1.098,1.04 2.194,2.081 3.304,3.115 0.91,0.861 1.813,1.725 2.731,2.58 1.07,1.014 2.137,2.028 3.219,3.036 1.078,1.019 2.154,2.039 3.244,3.052 0.798,0.754 1.588,1.513 2.392,2.264 0.999,0.947 1.989,1.899 2.998,2.84 1.175,1.113 2.347,2.227 3.536,3.332 0.891,0.842 1.778,1.687 2.677,2.525 1.005,0.951 2.005,1.904 3.02,2.85 0.96,0.909 1.915,1.821 2.885,2.724 1.042,0.987 2.079,1.975 3.132,2.955 1.054,0.997 2.105,1.994 3.17,2.985 0.837,0.791 1.666,1.586 2.51,2.373 1.08,1.023 2.156,2.048 3.248,3.064 0.974,0.921 1.943,1.844 2.926,2.76 0.989,0.936 1.974,1.873 2.973,2.803 0.902,0.854 1.798,1.711 2.709,2.56 0.986,0.934 1.965,1.871 2.961,2.799 1.142,1.082 2.283,2.165 3.439,3.24 0.776,0.733 1.542,1.47 2.324,2.2 1.189,1.126 2.377,2.252 3.58,3.371 0.715,0.675 1.419,1.355 2.139,2.027 1.18,1.119 2.357,2.24 3.551,3.352 0.88,0.832 1.754,1.668 2.642,2.496 1.089,1.031 2.175,2.063 3.276,3.088 0.881,0.832 1.755,1.668 2.644,2.496 1.14,1.079 2.281,2.157 3.434,3.228 0.662,0.625 1.312,1.257 1.978,1.879 1.211,1.149 2.421,2.297 3.647,3.438 0.832,0.786 1.657,1.577 2.496,2.359 1.034,0.979 2.062,1.962 3.107,2.936 0.877,0.829 1.746,1.662 2.631,2.488 1.082,1.024 2.158,2.052 3.252,3.07 0.974,0.921 1.946,1.842 2.93,2.758 0.886,0.838 1.765,1.68 2.66,2.514 1.035,0.979 2.065,1.961 3.111,2.935 0.923,0.873 1.84,1.748 2.772,2.615 0.98,0.928 1.957,1.857 2.947,2.78 0.861,0.814 1.713,1.633 2.582,2.443 1.165,1.103 2.329,2.207 3.508,3.303 0.836,0.789 1.668,1.581 2.512,2.367 0.888,0.84 1.768,1.684 2.664,2.52 1.027,0.972 2.05,1.947 3.088,2.914 0.941,0.89 1.877,1.784 2.828,2.67 1.018,0.962 2.032,1.927 3.06,2.884 0.834,0.788 1.66,1.578 2.5,2.362 1.097,1.038 2.192,2.077 3.301,3.109 0.745,0.704 1.481,1.412 2.232,2.113 1.046,0.991 2.085,1.985 3.141,2.969 1.022,0.966 2.04,1.934 3.072,2.895 0.91,0.859 1.815,1.721 2.733,2.576 0.861,0.814 1.715,1.633 2.584,2.443 1.002,0.949 1.997,1.901 3.01,2.844 0.845,0.8 1.682,1.604 2.535,2.4 1.186,1.124 2.371,2.248 3.572,3.364 0.723,0.681 1.438,1.367 2.166,2.046 1.153,1.092 2.306,2.184 3.473,3.268 0.778,0.734 1.551,1.47 2.336,2.201 0.9,0.851 1.791,1.708 2.699,2.555 0.994,0.941 1.984,1.884 2.988,2.82 0.818,0.773 1.625,1.551 2.449,2.32 1.135,1.076 2.268,2.153 3.416,3.221 0.874,0.825 1.742,1.652 2.623,2.473 1.021,0.964 2.04,1.93 3.071,2.889 0.848,0.8 1.693,1.601 2.549,2.398 0.747,0.707 1.484,1.421 2.238,2.125 1.036,0.982 2.065,1.969 3.113,2.945 0.893,0.845 1.777,1.695 2.678,2.535 1.096,1.038 2.19,2.077 3.299,3.108 0.853,0.805 1.702,1.612 2.562,2.414 0.978,0.924 1.954,1.85 2.942,2.769 0.85,0.804 1.696,1.609 2.554,2.409 0.851,0.804 1.694,1.613 2.553,2.414 0.949,0.898 1.891,1.801 2.85,2.695 0.864,0.818 1.719,1.641 2.591,2.455 1.152,1.09 2.302,2.181 3.467,3.264 0.832,0.785 1.661,1.57 2.5,2.351 0.849,0.802 1.691,1.607 2.547,2.405 0.897,0.848 1.788,1.7 2.693,2.545 0.89,0.841 1.772,1.687 2.67,2.525 0.977,0.924 1.948,1.851 2.934,2.769 1.018,0.963 2.035,1.926 3.064,2.883 0.699,0.66 1.39,1.324 2.094,1.981 1.02,0.966 2.034,1.936 3.065,2.896 0.926,0.876 1.849,1.754 2.785,2.625 0.87,0.822 1.733,1.647 2.611,2.465 0.909,0.859 1.811,1.722 2.729,2.576 0.872,0.825 1.738,1.654 2.619,2.475 1.033,0.977 2.063,1.956 3.107,2.928 0.754,0.711 1.5,1.426 2.26,2.134 0.588,0.558 1.178,1.114 1.767,1.67 h 825.278 v -982.789 c -0.328,-0.309 -0.652,-0.619 -0.981,-0.928 -1.329,-1.271 -2.669,-2.536 -4.021,-3.794 -0.526,-0.499 -1.051,-0.997 -1.58,-1.493 -0.831,-0.793 -1.672,-1.582 -2.512,-2.371 -0.885,-0.846 -1.78,-1.686 -2.676,-2.527 -1.363,-1.304 -2.739,-2.602 -4.127,-3.893 -0.461,-0.437 -0.924,-0.873 -1.388,-1.308 -0.947,-0.906 -1.903,-1.806 -2.862,-2.705 -0.9,-0.861 -1.811,-1.716 -2.722,-2.571 -1.242,-1.185 -2.495,-2.366 -3.756,-3.541 -0.565,-0.536 -1.132,-1.071 -1.701,-1.605 -0.284,-0.271 -0.573,-0.54 -0.858,-0.811 -0.02,-0.01 -0.03,-0.03 -0.05,-0.05 -0.452,-0.429 -0.906,-0.857 -1.361,-1.285 -1.489,-1.426 -2.992,-2.845 -4.51,-4.256 -0.823,-0.779 -1.646,-1.561 -2.478,-2.336 -0.469,-0.444 -0.939,-0.887 -1.41,-1.33 -0.926,-0.886 -1.862,-1.768 -2.799,-2.648 -0.946,-0.905 -1.901,-1.803 -2.858,-2.701 -1.286,-1.23 -2.584,-2.454 -3.892,-3.672 -1.12,-1.063 -2.249,-2.12 -3.385,-3.174 -0.127,-0.12 -0.254,-0.24 -0.381,-0.359 -1.119,-1.075 -2.249,-2.145 -3.385,-3.211 -0.835,-0.799 -1.679,-1.592 -2.523,-2.385 -1.034,-0.99 -2.077,-1.977 -3.125,-2.959 -1.255,-1.199 -2.523,-2.391 -3.799,-3.578 -0.921,-0.874 -1.845,-1.747 -2.777,-2.615 -1.007,-0.955 -2.017,-1.908 -3.037,-2.856 -0.343,-0.324 -0.686,-0.647 -1.03,-0.971 -0.976,-0.935 -1.961,-1.864 -2.949,-2.792 -0.828,-0.793 -1.665,-1.582 -2.502,-2.37 -1.402,-1.344 -2.814,-2.683 -4.242,-4.013 -1.129,-1.072 -2.265,-2.141 -3.41,-3.203 -0.415,-0.393 -0.829,-0.785 -1.246,-1.176 -1.414,-1.351 -2.844,-2.695 -4.283,-4.031 -0.241,-0.228 -0.482,-0.455 -0.723,-0.682 -1.158,-1.111 -2.323,-2.217 -3.498,-3.318 -0.832,-0.795 -1.675,-1.583 -2.516,-2.374 -0.987,-0.943 -1.983,-1.882 -2.982,-2.82 -1.453,-1.389 -2.922,-2.767 -4.403,-4.14 -0.305,-0.289 -0.609,-0.578 -0.916,-0.866 -1.618,-1.55 -3.255,-3.091 -4.908,-4.623 -0.171,-0.161 -0.342,-0.323 -0.513,-0.484 -1.165,-1.118 -2.339,-2.232 -3.522,-3.34 -0.842,-0.804 -1.694,-1.603 -2.545,-2.402 -1.036,-0.992 -2.082,-1.977 -3.133,-2.961 -0.247,-0.236 -0.498,-0.47 -0.746,-0.705 l -0.05,-0.05 c -1,-0.949 -2.002,-1.896 -3.014,-2.838 -0.583,-0.553 -1.167,-1.104 -1.754,-1.654 -0.797,-0.762 -1.603,-1.518 -2.408,-2.276 -1.501,-1.439 -3.016,-2.872 -4.547,-4.295 -0.496,-0.47 -0.995,-0.939 -1.494,-1.408 -1.329,-1.271 -2.668,-2.536 -4.02,-3.795 -0.641,-0.608 -1.285,-1.216 -1.931,-1.822 -0.24,-0.229 -0.485,-0.455 -0.725,-0.684 v 0 c -0.71,-0.674 -1.422,-1.346 -2.139,-2.017 -0.856,-0.818 -1.723,-1.632 -2.589,-2.445 -1.043,-0.998 -2.094,-1.989 -3.151,-2.979 -1.414,-1.351 -2.845,-2.691 -4.285,-4.027 -0.334,-0.316 -0.668,-0.632 -1.004,-0.948 -1.109,-1.062 -2.226,-2.121 -3.351,-3.175 -0.955,-0.912 -1.921,-1.818 -2.887,-2.723 -0.232,-0.222 -0.469,-0.441 -0.701,-0.662 0,0 0,0 -0.01,-0.01 -1.035,-0.984 -2.074,-1.967 -3.123,-2.943 -0.576,-0.546 -1.153,-1.091 -1.733,-1.635 -1.297,-1.241 -2.606,-2.476 -3.925,-3.705 -0.99,-0.94 -1.982,-1.88 -2.985,-2.813 -0.495,-0.47 -0.993,-0.937 -1.492,-1.406 -1.13,-1.083 -2.269,-2.162 -3.416,-3.236 -0.866,-0.828 -1.743,-1.651 -2.619,-2.473 -1.399,-1.339 -2.812,-2.671 -4.236,-3.996 -0.382,-0.362 -0.765,-0.723 -1.149,-1.084 -1.626,-1.561 -3.267,-3.113 -4.928,-4.654 -0.5,-0.474 -1,-0.946 -1.503,-1.418 -1.35,-1.29 -2.713,-2.571 -4.086,-3.848 -0.53,-0.502 -1.059,-1.004 -1.592,-1.504 -1.369,-1.31 -2.75,-2.615 -4.143,-3.912 -0.446,-0.423 -0.895,-0.845 -1.344,-1.267 -1.621,-1.557 -3.259,-3.106 -4.916,-4.643 -0.379,-0.359 -0.759,-0.718 -1.14,-1.076 -1.497,-1.435 -3.009,-2.862 -4.535,-4.281 -0.555,-0.527 -1.111,-1.053 -1.67,-1.577 -0.901,-0.861 -1.812,-1.716 -2.723,-2.572 -1.399,-1.34 -2.808,-2.674 -4.232,-4 -0.707,-0.671 -1.416,-1.342 -2.129,-2.01 -1.216,-1.16 -2.442,-2.314 -3.676,-3.464 -0.647,-0.615 -1.297,-1.229 -1.949,-1.84 -1.397,-1.337 -2.808,-2.667 -4.231,-3.991 -0.979,-0.929 -1.961,-1.856 -2.953,-2.779 -0.587,-0.557 -1.176,-1.113 -1.767,-1.668 -1.042,-0.996 -2.092,-1.988 -3.147,-2.976 -1.023,-0.978 -2.057,-1.952 -3.094,-2.922 -0.199,-0.191 -0.403,-0.38 -0.603,-0.571 -0.01,-0.01 -0.03,-0.03 -0.04,-0.04 -1.121,-1.065 -2.248,-2.127 -3.385,-3.183 -0.454,-0.431 -0.91,-0.862 -1.367,-1.291 -1.041,-0.998 -2.091,-1.992 -3.147,-2.983 -1.473,-1.411 -2.961,-2.815 -4.462,-4.211 -0.866,-0.82 -1.731,-1.641 -2.606,-2.457 -0.748,-0.711 -1.5,-1.421 -2.256,-2.128 -1.33,-1.272 -2.674,-2.537 -4.027,-3.795 -0.549,-0.521 -1.1,-1.04 -1.652,-1.559 -1.43,-1.369 -2.871,-2.732 -4.327,-4.086 -0.645,-0.612 -1.293,-1.222 -1.943,-1.832 -0.968,-0.926 -1.945,-1.846 -2.926,-2.766 -1.049,-1.004 -2.108,-2.001 -3.172,-2.998 -1.046,-1 -2.101,-1.994 -3.162,-2.986 -0.186,-0.178 -0.376,-0.354 -0.562,-0.531 -0.01,0 -0.02,-0.02 -0.03,-0.03 -0.808,-0.768 -1.62,-1.534 -2.437,-2.298 -0.185,-0.177 -0.373,-0.351 -0.559,-0.528 0,0 -0.01,-0.01 -0.02,-0.02 -0.815,-0.775 -1.634,-1.547 -2.457,-2.317 -0.184,-0.175 -0.371,-0.348 -0.555,-0.523 0,0 -0.01,-0.01 -0.02,-0.02 -0.761,-0.724 -1.527,-1.444 -2.295,-2.164 -1.298,-1.24 -2.605,-2.477 -3.924,-3.705 -0.708,-0.673 -1.42,-1.344 -2.135,-2.013 -1.07,-1.024 -2.149,-2.042 -3.234,-3.057 -1.281,-1.223 -2.574,-2.438 -3.875,-3.649 -0.616,-0.584 -1.234,-1.168 -1.854,-1.75 -1.09,-1.043 -2.189,-2.082 -3.295,-3.117 -1.271,-1.215 -2.551,-2.423 -3.844,-3.627 -0.725,-0.69 -1.456,-1.377 -2.189,-2.064 -0.983,-0.94 -1.973,-1.876 -2.969,-2.809 -1.089,-1.042 -2.188,-2.079 -3.293,-3.113 -1.271,-1.215 -2.553,-2.422 -3.845,-3.625 -0.735,-0.698 -1.472,-1.396 -2.213,-2.09 -1.373,-1.313 -2.759,-2.617 -4.157,-3.916 -0.937,-0.89 -1.875,-1.778 -2.824,-2.662 -0.815,-0.776 -1.635,-1.55 -2.459,-2.32 -0.167,-0.16 -0.336,-0.318 -0.504,-0.477 -0.01,-0.01 -0.02,-0.02 -0.03,-0.03 -0.771,-0.734 -1.547,-1.466 -2.326,-2.195 -1.096,-1.049 -2.203,-2.091 -3.314,-3.131 -0.164,-0.156 -0.331,-0.311 -0.495,-0.467 0,0 -0.01,-0.01 -0.02,-0.02 -0.857,-0.815 -1.718,-1.629 -2.584,-2.439 -0.163,-0.156 -0.329,-0.31 -0.492,-0.465 0,0 -0.01,0 -0.02,-0.01 -0.859,-0.817 -1.721,-1.635 -2.59,-2.447 -1.241,-1.186 -2.494,-2.364 -3.756,-3.539 -0.815,-0.776 -1.634,-1.55 -2.459,-2.32 -0.159,-0.152 -0.321,-0.303 -0.48,-0.455 -0.03,-0.02 -0.05,-0.05 -0.07,-0.07 -0.736,-0.7 -1.476,-1.397 -2.219,-2.093 -1.139,-1.091 -2.289,-2.175 -3.445,-3.256 -0.157,-0.15 -0.316,-0.298 -0.473,-0.448 -0.01,-0.01 -0.02,-0.02 -0.04,-0.03 -0.824,-0.784 -1.652,-1.566 -2.485,-2.346 -1.071,-1.024 -2.153,-2.044 -3.24,-3.06 -1.223,-1.168 -2.457,-2.329 -3.699,-3.486 -1.036,-0.986 -2.077,-1.971 -3.127,-2.95 -0.773,-0.736 -1.551,-1.469 -2.332,-2.201 -1.465,-1.401 -2.946,-2.793 -4.439,-4.179 -0.544,-0.515 -1.088,-1.029 -1.635,-1.541 -1.092,-1.046 -2.192,-2.088 -3.299,-3.125 -1.042,-0.997 -2.093,-1.988 -3.148,-2.977 -0.979,-0.937 -1.968,-1.867 -2.959,-2.797 -1.487,-1.424 -2.987,-2.838 -4.502,-4.246 -0.991,-0.941 -1.985,-1.879 -2.989,-2.813 -0.622,-0.591 -1.249,-1.18 -1.877,-1.769 -1.392,-1.335 -2.795,-2.666 -4.213,-3.986 -0.873,-0.831 -1.749,-1.661 -2.632,-2.487 -1.048,-1 -2.105,-1.996 -3.166,-2.988 -0.14,-0.133 -0.282,-0.265 -0.422,-0.398 0,0 0,0 -0.01,0 -1.154,-1.1 -2.317,-2.196 -3.488,-3.285 -0.696,-0.661 -1.394,-1.321 -2.096,-1.979 -1.16,-1.11 -2.329,-2.214 -3.506,-3.314 -0.136,-0.13 -0.274,-0.259 -0.41,-0.389 -0.03,-0.02 -0.05,-0.05 -0.08,-0.07 -0.834,-0.794 -1.673,-1.585 -2.516,-2.373 -1.111,-1.063 -2.232,-2.12 -3.359,-3.174 -1.017,-0.972 -2.044,-1.937 -3.074,-2.901 -1.266,-1.21 -2.544,-2.414 -3.83,-3.613 -0.884,-0.841 -1.771,-1.68 -2.665,-2.516 -1.056,-1.009 -2.123,-2.012 -3.195,-3.013 -0.13,-0.124 -0.262,-0.247 -0.392,-0.371 0,0 -0.02,-0.02 -0.03,-0.02 -0.922,-0.878 -1.848,-1.755 -2.781,-2.627 -0.953,-0.91 -1.916,-1.813 -2.881,-2.716 -1.435,-1.374 -2.884,-2.741 -4.346,-4.1 -0.739,-0.702 -1.48,-1.403 -2.226,-2.102 -1.087,-1.039 -2.183,-2.072 -3.285,-3.103 -1.095,-1.046 -2.199,-2.088 -3.309,-3.125 -1.065,-1.018 -2.141,-2.028 -3.221,-3.037 -0.121,-0.116 -0.245,-0.232 -0.367,-0.348 -0.02,-0.02 -0.04,-0.03 -0.05,-0.05 -0.836,-0.796 -1.678,-1.589 -2.523,-2.381 -1.344,-1.286 -2.701,-2.564 -4.068,-3.837 -0.837,-0.798 -1.678,-1.592 -2.524,-2.383 -1.264,-1.209 -2.539,-2.414 -3.824,-3.612 -0.923,-0.879 -1.851,-1.756 -2.785,-2.629 -0.117,-0.111 -0.235,-0.221 -0.352,-0.332 0,0 -0.01,-0.01 -0.02,-0.02 -0.951,-0.906 -1.905,-1.808 -2.867,-2.707 -1.074,-1.025 -2.157,-2.044 -3.245,-3.061 -1.073,-1.025 -2.157,-2.045 -3.246,-3.062 -0.113,-0.108 -0.228,-0.216 -0.341,-0.324 -0.02,-0.02 -0.05,-0.05 -0.07,-0.07 -0.94,-0.895 -1.884,-1.789 -2.836,-2.678 -0.987,-0.943 -1.986,-1.88 -2.986,-2.816 -1.34,-1.282 -2.691,-2.559 -4.055,-3.828 -0.861,-0.82 -1.728,-1.638 -2.599,-2.453 -1.075,-1.028 -2.16,-2.051 -3.25,-3.071 -1.293,-1.236 -2.598,-2.465 -3.912,-3.689 -0.871,-0.829 -1.747,-1.655 -2.627,-2.479 -1.076,-1.028 -2.161,-2.052 -3.252,-3.072 -1.134,-1.083 -2.276,-2.164 -3.426,-3.238 -1.235,-1.179 -2.48,-2.353 -3.734,-3.522 -0.878,-0.835 -1.761,-1.669 -2.649,-2.5 -1.317,-1.259 -2.645,-2.511 -3.984,-3.757 -0.83,-0.79 -1.664,-1.577 -2.502,-2.362 -1.393,-1.332 -2.799,-2.656 -4.217,-3.974 -0.806,-0.767 -1.615,-1.533 -2.43,-2.295 -1.066,-1.02 -2.142,-2.034 -3.222,-3.045 -1.343,-1.285 -2.695,-2.563 -4.061,-3.834 -0.888,-0.846 -1.783,-1.689 -2.682,-2.529 -1.145,-1.096 -2.298,-2.188 -3.461,-3.274 -1.29,-1.232 -2.594,-2.457 -3.906,-3.678 -0.821,-0.781 -1.645,-1.559 -2.474,-2.336 -1.068,-1.021 -2.145,-2.035 -3.227,-3.048 -1.486,-1.423 -2.987,-2.836 -4.502,-4.243 -0.952,-0.903 -1.906,-1.805 -2.869,-2.703 -1.172,-1.116 -2.352,-2.229 -3.541,-3.336 -0.615,-0.585 -1.235,-1.167 -1.856,-1.75 -73.772,-70.894 -183.134,-122.213 -327.031,-133.869 l 5.846,3.375 c -0.821,-0.07 -1.642,-0.138 -2.465,-0.205 l 5.764,3.328 c -0.823,-0.07 -1.646,-0.14 -2.471,-0.207 l 5.801,3.35 c -0.823,-0.07 -1.646,-0.14 -2.471,-0.207 l 5.77,3.33 c -0.821,-0.07 -1.642,-0.137 -2.465,-0.203 l 5.783,3.34 c -0.82,-0.07 -1.639,-0.139 -2.461,-0.205 l 5.777,3.335 c -0.819,-0.07 -1.638,-0.138 -2.461,-0.205 l 5.764,3.329 c -0.817,-0.07 -1.634,-0.137 -2.453,-0.204 l 5.758,3.325 c -0.815,-0.07 -1.63,-0.138 -2.447,-0.203 l 5.759,3.324 c -0.817,-0.07 -1.635,-0.137 -2.455,-0.203 l 5.75,3.32 c -0.815,-0.07 -1.63,-0.137 -2.447,-0.203 l 5.744,3.316 c -0.815,-0.07 -1.63,-0.137 -2.447,-0.203 l 5.74,3.315 c -0.813,-0.07 -1.626,-0.138 -2.441,-0.204 l 3.703,2.139 -1.045,0.604 -5.072,-2.93 c 0.804,0.06 1.611,0.122 2.414,0.187 l -5.715,-3.298 c 0.805,0.06 1.613,0.122 2.416,0.187 l -5.719,-3.301 c 0.808,0.06 1.617,0.123 2.422,0.188 l -5.725,-3.305 c 0.808,0.06 1.617,0.122 2.422,0.188 l -5.732,-3.311 c 0.809,0.06 1.621,0.124 2.428,0.19 l -5.733,-3.311 c 0.808,0.06 1.617,0.124 2.422,0.189 l -5.74,-3.314 c 0.81,0.06 1.623,0.124 2.429,0.189 l -5.75,-3.32 c 0.813,0.06 1.625,0.124 2.434,0.19 l -5.758,-3.325 c 0.812,0.06 1.626,0.124 2.436,0.19 l -5.744,-3.317 c 0.813,0.06 1.628,0.124 2.439,0.19 l -5.771,-3.332 c 0.813,0.06 1.63,0.123 2.441,0.189 l -5.734,-3.31 c 0.813,0.06 1.63,0.123 2.441,0.189 l -5.818,-3.359 c 0.812,0.06 1.627,0.124 2.437,0.189 l -63.594,-36.717 z m 223.93,146.271 c 0.433,0.03 0.868,0.07 1.3,0.102 l -0.562,0.326 z"
         id="path10544" />
      <path
         inkscape:connector-curvature="0"
         id="path6548"
         style="color:#000000;font-style:normal;font-variant:normal;font-weight:normal;font-stretch:normal;font-size:medium;line-height:normal;font-family:sans-serif;font-variant-ligatures:normal;font-variant-position:normal;font-variant-caps:normal;font-variant-numeric:normal;font-variant-alternates:normal;font-feature-settings:normal;text-indent:0;text-align:start;text-decoration:none;text-decoration-line:none;text-decoration-style:solid;text-decoration-color:#000000;letter-spacing:normal;word-spacing:normal;text-transform:none;writing-mode:lr-tb;direction:ltr;text-orientation:mixed;dominant-baseline:auto;baseline-shift:baseline;text-anchor:start;white-space:normal;shape-padding:0;clip-rule:nonzero;display:inline;overflow:visible;visibility:visible;isolation:auto;mix-blend-mode:normal;color-interpolation:sRGB;color-interpolation-filters:linearRGB;solid-color:#000000;solid-opacity:1;vector-effect:none;fill:#002620;fill-opacity:0.975;fill-rule:nonzero;stroke:none;stroke-width:65.1537;stroke-linecap:butt;stroke-linejoin:miter;stroke-miterlimit:4;stroke-dasharray:none;stroke-dashoffset:0;stroke-opacity:1;color-rendering:auto;image-rendering:auto;shape-rendering:auto;text-rendering:auto;enable-background:accumulate"
         d="m -22919.544,-1353.517 c 59.724,0 110.728,10.315 153.362,28.113 -42.633,17.799 -93.639,28.112 -153.362,28.112 -24.882,0 -40.445,-6.279 -48.654,-12.442 -8.209,-6.162 -9.719,-11.348 -9.719,-15.672 0,-4.323 1.51,-9.507 9.719,-15.67 8.209,-6.162 23.772,-12.441 48.654,-12.441 z m -121.265,-545.869 c 291.334,0 424.071,154.735 437.634,303.996 7.965,87.644 -24.051,175.101 -97.894,232.406 -58.593,-34.734 -131.878,-55.687 -218.475,-55.687 -35.751,0 -65.662,8.894 -87.769,25.49 -22.108,16.596 -35.756,41.754 -35.756,67.775 0,26.022 13.648,51.181 35.756,67.778 22.107,16.596 52.018,25.49 87.769,25.49 86.597,0 159.882,-20.954 218.475,-55.688 73.843,57.305 105.859,144.762 97.894,232.407 -13.563,149.26 -146.3,303.996 -437.634,303.996 -292.367,0 -423.91,-141.581 -490.797,-285.901 -66.887,-144.319 -62.434,-289.972 -62.434,-289.972 l 0.04,-1.114 -0.04,-1.115 c 0,0 -4.45,-144.065 62.383,-286.847 66.833,-142.782 198.376,-283.014 490.85,-283.014 z m 0,-65.154 c -314.085,0 -475.437,161.549 -549.86,320.546 -72.966,155.887 -68.701,309.608 -68.506,315.6 -0.195,6.045 -4.457,161.146 68.456,318.467 74.367,160.46 235.718,323.658 549.91,323.658 315.225,0 485.766,-178.891 502.519,-363.254 9.309,-102.437 -29.976,-204.952 -110.851,-275.881 80.875,-70.928 120.16,-173.445 110.851,-275.883 -16.753,-184.363 -187.294,-363.253 -502.519,-363.253 z" />
      <path
         inkscape:connector-curvature="0"
         style="fill:#002620;fill-opacity:0.975;stroke:none;stroke-width:68.7686;stroke-linecap:round;stroke-linejoin:miter;stroke-miterlimit:4;stroke-dasharray:none;stroke-opacity:0.188235;paint-order:markers fill stroke"
         inkscape:transform-center-x="-39.895797"
         d="m -22921.406,-1929.642 -119.687,69.102 -119.688,69.101 v -138.203 -138.203 l 119.688,69.101 z"
         id="path8080" />
      <path
         inkscape:connector-curvature="0"
         style="fill:#002620;fill-opacity:0.975;stroke:none;stroke-width:68.7686;stroke-linecap:round;stroke-linejoin:miter;stroke-miterlimit:4;stroke-dasharray:none;stroke-opacity:0.188235;paint-order:markers fill stroke"
         inkscape:transform-center-x="39.895798"
         d="m -23240.572,-726.517 119.687,-69.102 119.688,-69.101 v 138.203 138.203 l -119.688,-69.101 z"
         id="path8082" />
      <path
         inkscape:connector-curvature="0"
         style="fill:#002620;fill-opacity:0.975;stroke:none;stroke-width:68.7686;stroke-linecap:round;stroke-linejoin:miter;stroke-miterlimit:4;stroke-dasharray:none;stroke-opacity:0.188235;paint-order:markers fill stroke"
         inkscape:transform-center-y="-86.770798"
         d="m -23618.49,-1454.849 69.102,119.687 69.101,119.688 h -138.203 -138.203 l 69.101,-119.688 z"
         id="path8084" />
    </g>
  </g>
</svg>
