<?xml version="1.0" encoding="UTF-8" standalone="no"?>
<svg
   xmlns:dc="http://purl.org/dc/elements/1.1/"
   xmlns:cc="http://creativecommons.org/ns#"
   xmlns:rdf="http://www.w3.org/1999/02/22-rdf-syntax-ns#"
   xmlns:svg="http://www.w3.org/2000/svg"
   xmlns="http://www.w3.org/2000/svg"
   xmlns:sodipodi="http://sodipodi.sourceforge.net/DTD/sodipodi-0.dtd"
   xmlns:inkscape="http://www.inkscape.org/namespaces/inkscape"
   sodipodi:docname="elettronica_scalable.svg"
   inkscape:version="1.0 (4035a4fb49, 2020-05-01)"
   id="svg27864"
   version="1.1"
   viewBox="0 0 67.733331 67.733224"
   height="67.733223mm"
   width="67.73333mm">
  <defs
     id="defs27858">
    <clipPath
       clipPathUnits="userSpaceOnUse"
       id="clipPath1698-3">
      <rect
         style="opacity:0.604;fill:#26a10d;fill-opacity:0.985;stroke:#d32f2f;stroke-width:0;stroke-linecap:round;stroke-linejoin:bevel;stroke-miterlimit:4;stroke-dasharray:none;stroke-dashoffset:0;stroke-opacity:0.94;paint-order:fill markers stroke"
         id="rect1700-6"
         width="1200"
         height="772.966"
         x="-29147.879"
         y="19470.865"
         rx="64.06395"
         ry="64.06395" />
    </clipPath>
    <clipPath
       id="clipPath29374"
       clipPathUnits="userSpaceOnUse">
      <rect
         style="opacity:1;fill:#014c77;fill-opacity:1;stroke:none;stroke-width:4.4;stroke-linecap:round;stroke-linejoin:bevel;stroke-miterlimit:4;stroke-dasharray:none;stroke-dashoffset:0;stroke-opacity:1;paint-order:fill markers stroke"
         id="rect29376"
         width="2048"
         height="2048"
         x="-18040.27"
         y="7264.1074" />
    </clipPath>
    <clipPath
       id="clipPath1237"
       clipPathUnits="userSpaceOnUse">
      <g
         id="g1245">
        <rect
           ry="28.853754"
           rx="28.853754"
           y="8911.8291"
           x="-17557.889"
           height="98.791946"
           width="1083.2383"
           id="rect1239"
           style="opacity:1;fill:#e1f5fe;fill-opacity:1;stroke:none;stroke-width:4.4;stroke-linecap:round;stroke-linejoin:bevel;stroke-miterlimit:4;stroke-dasharray:none;stroke-dashoffset:0;stroke-opacity:1;paint-order:fill markers stroke" />
        <rect
           ry="28.8538"
           rx="28.853802"
           y="8984.541"
           x="-17372.984"
           height="66.819221"
           width="713.43213"
           id="rect1241"
           style="opacity:1;fill:#e1f5fe;fill-opacity:1;stroke:none;stroke-width:4.4;stroke-linecap:round;stroke-linejoin:bevel;stroke-miterlimit:4;stroke-dasharray:none;stroke-dashoffset:0;stroke-opacity:1;paint-order:fill markers stroke" />
        <path
           id="path1243"
           d="m -17324.329,8432.3038 c -18.32,0 -33.343,14.4272 -35.635,33.2188 h -0.312 v 5.0019 30.5742 132.9981 c 0,163.6929 123.952,295.4765 277.918,295.4765 h 132.179 c 122.164,0 225.42,-82.9726 262.867,-199.0156 a 129.26388,129.26388 0 0 0 15.041,1.0391 129.26388,129.26388 0 0 0 129.264,-129.2637 129.26388,129.26388 0 0 0 -129.256,-129.2637 v -2.5449 -5.0019 h -0.314 c -2.292,-18.7916 -17.314,-33.2188 -35.633,-33.2188 z m 652.066,103.461 a 66.567536,66.567536 0 0 1 66.561,66.5683 66.567536,66.567536 0 0 1 -66.569,66.5664 66.567536,66.567536 0 0 1 -1.892,-0.094 c 1.242,-11.3827 1.9,-22.9607 1.9,-34.709 z"
           style="opacity:1;fill:#e1f5fe;fill-opacity:1;stroke:none;stroke-width:4.4;stroke-linecap:round;stroke-linejoin:bevel;stroke-miterlimit:4;stroke-dasharray:none;stroke-dashoffset:0;stroke-opacity:1;paint-order:fill markers stroke"
           inkscape:connector-curvature="0" />
      </g>
    </clipPath>
  </defs>
  <sodipodi:namedview
     showguides="false"
     inkscape:snap-global="false"
     inkscape:window-maximized="0"
     inkscape:window-y="24"
     inkscape:window-x="576"
     inkscape:window-height="1025"
     inkscape:window-width="1336"
     fit-margin-bottom="0"
     fit-margin-right="0"
     fit-margin-left="0"
     fit-margin-top="0"
     showgrid="false"
     inkscape:document-rotation="0"
     inkscape:current-layer="layer1"
     inkscape:document-units="mm"
     inkscape:cy="467.84763"
     inkscape:cx="1084.7793"
     inkscape:zoom="0.19921874"
     inkscape:pageshadow="2"
     inkscape:pageopacity="0.0"
     borderopacity="1.0"
     bordercolor="#666666"
     pagecolor="#ffffff"
     id="base" />
  <metadata
     id="metadata27861">
    <rdf:RDF>
      <cc:Work
         rdf:about="">
        <dc:format>image/svg+xml</dc:format>
        <dc:type
           rdf:resource="http://purl.org/dc/dcmitype/StillImage" />
        <dc:title></dc:title>
        <cc:license
           rdf:resource="http://creativecommons.org/licenses/by-sa/4.0/" />
      </cc:Work>
      <cc:License
         rdf:about="http://creativecommons.org/licenses/by-sa/4.0/">
        <cc:permits
           rdf:resource="http://creativecommons.org/ns#Reproduction" />
        <cc:permits
           rdf:resource="http://creativecommons.org/ns#Distribution" />
        <cc:requires
           rdf:resource="http://creativecommons.org/ns#Notice" />
        <cc:requires
           rdf:resource="http://creativecommons.org/ns#Attribution" />
        <cc:permits
           rdf:resource="http://creativecommons.org/ns#DerivativeWorks" />
        <cc:requires
           rdf:resource="http://creativecommons.org/ns#ShareAlike" />
      </cc:License>
    </rdf:RDF>
  </metadata>
  <g
     transform="translate(2669.1731,2699.7504)"
     id="layer1"
     inkscape:groupmode="layer"
     inkscape:label="Livello 1">
    <g
       id="g27038"
       inkscape:export-filename="/home/fjall/Icone/PNG/III anno/elettronica.png"
       inkscape:export-xdpi="96"
       inkscape:export-ydpi="96"
       transform="matrix(0.03307284,0,0,0.03307284,-2758.6646,-2896.5534)">
      <rect
         style="fill:#607d8b;fill-opacity:1;stroke:none;stroke-width:155.05;stroke-linecap:round;stroke-linejoin:round;stroke-miterlimit:4;stroke-dasharray:none;stroke-dashoffset:0;stroke-opacity:1;paint-order:stroke markers fill"
         id="rect30811"
         width="2048"
         height="2048"
         x="2705.8923"
         y="5950.5938"
         rx="0"
         ry="0" />
      <path
         d="m 4127.822,6931.1769 a 43.420842,43.420842 0 1 0 0,86.834 h 229.867 a 43.420842,43.420842 0 1 0 0,-86.834 z m -724.949,-278.0723 a 44.273195,44.273195 0 0 0 -44.537,55.6036 c 48.711,194.4463 34.447,365.2917 -0.407,533.5429 a 44.273195,44.273195 0 1 0 86.696,17.961 c 36.322,-175.3386 52.304,-362.6101 -0.406,-573.0196 a 44.273195,44.273195 0 0 0 -41.346,-34.0879 z m -300.778,390.2559 a 43.420594,43.420594 0 1 0 0,86.832 h 300.999 a 43.420594,43.420594 0 1 0 0,-86.832 z m 0,-224.3672 a 43.420842,43.420842 0 1 0 0,86.834 h 300.999 a 43.420842,43.420842 0 1 0 0,-86.834 z m 462.512,-165.9238 a 43.420594,43.420594 0 0 0 -0.217,0 c -9.767,0.049 -19.53,0.2214 -29.281,0.5176 a 43.420594,43.420594 0 0 0 -40.381,55.4844 c 23.147,79.842 35.678,171.8346 35.799,265.5273 -0.09,93.5954 -12.557,185.5168 -35.631,265.3418 a 43.420594,43.420594 0 0 0 40.073,55.4414 c 9.686,0.3657 19.388,0.6094 29.097,0.7305 a 43.420594,43.420594 0 0 0 0.541,0 c 153.267,-1e-4 300.184,-29.7716 412.721,-86.041 112.537,-56.2694 186.91,-138.7314 186.908,-235.4863 0,-96.7533 -74.376,-179.2143 -186.912,-235.4824 -112.537,-56.2686 -259.451,-86.039 -412.717,-86.0391 z m 27.512,87.207 c 131.738,3.461 256.525,31.5741 346.373,76.4981 96.082,48.0412 138.91,107.0562 138.91,157.8183 0,50.7626 -42.826,109.7765 -138.908,157.8184 -89.827,44.914 -214.578,73.0263 -346.283,76.498 16.468,-74.0054 25.078,-153.5094 25.148,-234.2793 a 43.420594,43.420594 0 0 0 0,-0.092 c -0.1,-80.7764 -8.742,-160.275 -25.24,-234.2617 z"
         style="color:#000000;font-style:normal;font-variant:normal;font-weight:normal;font-stretch:normal;font-size:medium;line-height:normal;font-family:sans-serif;font-variant-ligatures:normal;font-variant-position:normal;font-variant-caps:normal;font-variant-numeric:normal;font-variant-alternates:normal;font-feature-settings:normal;text-indent:0;text-align:start;text-decoration:none;text-decoration-line:none;text-decoration-style:solid;text-decoration-color:#000000;letter-spacing:normal;word-spacing:normal;text-transform:none;writing-mode:lr-tb;direction:ltr;text-orientation:mixed;dominant-baseline:auto;baseline-shift:baseline;text-anchor:start;white-space:normal;shape-padding:0;clip-rule:nonzero;display:inline;overflow:visible;visibility:visible;isolation:auto;mix-blend-mode:normal;color-interpolation:sRGB;color-interpolation-filters:linearRGB;solid-color:#000000;solid-opacity:1;vector-effect:none;fill:#2a2622;fill-opacity:0.996078;fill-rule:nonzero;stroke:none;stroke-width:86.833;stroke-linecap:round;stroke-linejoin:miter;stroke-miterlimit:4;stroke-dasharray:none;stroke-dashoffset:0;stroke-opacity:1;color-rendering:auto;image-rendering:auto;shape-rendering:auto;text-rendering:auto;enable-background:accumulate"
         id="path31038"
         inkscape:connector-curvature="0" />
      <path
         style="color:#000000;font-style:normal;font-variant:normal;font-weight:normal;font-stretch:normal;font-size:medium;line-height:normal;font-family:sans-serif;font-variant-ligatures:normal;font-variant-position:normal;font-variant-caps:normal;font-variant-numeric:normal;font-variant-alternates:normal;font-feature-settings:normal;text-indent:0;text-align:start;text-decoration:none;text-decoration-line:none;text-decoration-style:solid;text-decoration-color:#000000;letter-spacing:normal;word-spacing:normal;text-transform:none;writing-mode:lr-tb;direction:ltr;text-orientation:mixed;dominant-baseline:auto;baseline-shift:baseline;text-anchor:start;white-space:normal;shape-padding:0;clip-rule:nonzero;display:inline;overflow:visible;visibility:visible;isolation:auto;mix-blend-mode:normal;color-interpolation:sRGB;color-interpolation-filters:linearRGB;solid-color:#000000;solid-opacity:1;vector-effect:none;fill:#000001;fill-opacity:0.145098;fill-rule:nonzero;stroke:none;stroke-width:86.833;stroke-linecap:round;stroke-linejoin:miter;stroke-miterlimit:4;stroke-dasharray:none;stroke-dashoffset:0;stroke-opacity:1;color-rendering:auto;image-rendering:auto;shape-rendering:auto;text-rendering:auto;enable-background:accumulate"
         d="m 3564.609,6653.0636 v 0.01 c -0.07,-2e-4 -0.145,-2e-4 -0.217,0 -9.767,0.049 -19.528,0.2214 -29.279,0.5176 -13.414,0.4095 -25.884,6.9986 -33.781,17.8496 -7.897,10.8511 -10.335,24.7445 -6.6,37.6347 2.096,7.2294 4.103,14.5616 6.024,21.9825 -0.159,-0.1423 -0.324,-0.2782 -0.485,-0.418 -0.921,-0.9671 -1.893,-1.8852 -2.9,-2.7598 -0.925,-0.9697 -1.899,-1.8907 -2.91,-2.7675 -0.906,-0.9488 -1.86,-1.8472 -2.848,-2.7071 -0.905,-0.951 -1.858,-1.8545 -2.846,-2.7168 -0.937,-0.9868 -1.925,-1.9209 -2.951,-2.8125 -0.921,-0.9664 -1.892,-1.8848 -2.898,-2.7597 -0.923,-0.9679 -1.897,-1.8836 -2.904,-2.7598 -0.928,-0.9727 -1.905,-1.8951 -2.918,-2.7754 -0.929,-0.9732 -1.908,-1.8965 -2.922,-2.7773 -0.925,-0.9682 -1.897,-1.8869 -2.907,-2.7637 -0.921,-0.965 -1.891,-1.8814 -2.896,-2.7559 -0.906,-0.9504 -1.86,-1.8537 -2.848,-2.7168 -0.954,-1.0042 -1.959,-1.958 -3.004,-2.8652 -0.92,-0.963 -1.889,-1.8766 -2.892,-2.75 -0.936,-0.9809 -1.922,-1.9105 -2.944,-2.7988 -0.931,-0.9754 -1.91,-1.9013 -2.925,-2.7852 -0.95,-0.9949 -1.949,-1.938 -2.987,-2.8379 -0.913,-0.9538 -1.875,-1.8621 -2.869,-2.7285 -0.956,-1.0024 -1.963,-1.9509 -3.008,-2.8574 -0.915,-0.9561 -1.876,-1.8658 -2.873,-2.7344 -0.953,-0.9995 -1.957,-1.9471 -2.998,-2.8516 -0.913,-0.9548 -1.873,-1.8624 -2.867,-2.7304 -0.977,-1.0256 -2.007,-1.9959 -3.076,-2.9219 -7.739,-8.066 -18.452,-13.1333 -30.205,-13.5977 -14.043,-0.5545 -27.517,5.5912 -36.303,16.5606 -8.786,10.9694 -11.84,25.4597 -8.232,39.043 9.418,37.5943 16.472,74.3034 21.488,110.2851 h -277.731 c -15.648,-0.2079 -30.197,8.0205 -38.083,21.5391 v 0 c -7.885,13.5187 -7.885,30.2352 0,43.7539 2.561,4.3921 5.835,8.2134 9.613,11.3809 0.954,0.9723 1.944,1.9016 2.98,2.7754 0.994,1.0179 2.03,1.9861 3.114,2.8965 0.973,0.994 1.985,1.943 3.044,2.834 0.984,1.0058 2.009,1.9631 3.081,2.8632 0.971,0.992 1.982,1.9373 3.039,2.8262 0.985,1.0072 2.01,1.9664 3.084,2.8672 0.963,0.9839 1.967,1.9207 3.015,2.8027 0.978,1.0008 1.997,1.9542 3.063,2.8496 0.971,0.9927 1.981,1.9394 3.039,2.8282 0.977,0.9991 1.994,1.952 3.058,2.8457 0.946,0.9665 1.929,1.8902 2.957,2.7578 0.983,1.0085 2.007,1.97 3.079,2.8711 0.971,0.9947 1.985,1.9404 3.044,2.8301 0.968,0.9897 1.975,1.9329 3.03,2.8183 0.965,0.9879 1.973,1.9288 3.025,2.8125 0.966,0.988 1.971,1.9289 3.024,2.8125 0.964,0.9867 1.968,1.9262 3.019,2.8086 0.964,0.9861 1.967,1.925 3.018,2.8066 0.94,0.9626 1.918,1.8813 2.941,2.7442 0.972,0.9992 1.985,1.9516 3.047,2.8437 0.969,0.9927 1.98,1.9359 3.037,2.8223 0.956,0.9775 1.951,1.9072 2.992,2.7813 0.954,0.977 1.949,1.9076 2.989,2.7812 0.964,0.9882 1.969,1.9283 3.021,2.8106 0.958,0.9802 1.956,1.9115 3,2.7871 0.947,0.9689 1.931,1.8932 2.963,2.7597 0.965,0.99 1.973,1.9294 3.027,2.8125 0.947,0.9688 1.933,1.8919 2.965,2.7578 0.953,0.9766 1.947,1.9053 2.986,2.7774 0.939,0.962 1.918,1.8779 2.942,2.7383 0.945,0.9706 1.928,1.8964 2.959,2.7636 0.96,0.9867 1.962,1.9251 3.012,2.8047 0.949,0.9735 1.939,1.8988 2.976,2.7676 0.944,0.9676 1.929,1.8881 2.959,2.752 0.947,0.9715 1.937,1.8948 2.971,2.7617 0.942,0.9662 1.926,1.8836 2.955,2.7461 0.948,0.9725 1.935,1.8983 2.971,2.7656 0.943,0.9671 1.927,1.8873 2.957,2.75 0.944,0.9682 1.929,1.8886 2.961,2.7519 0.933,0.9571 1.906,1.8683 2.925,2.7227 0.942,0.9669 1.926,1.886 2.955,2.748 0.941,0.9651 1.922,1.882 2.95,2.7422 0.927,0.9516 1.894,1.8575 2.906,2.7071 0.93,0.9561 1.9,1.8675 2.916,2.7207 0.945,0.9723 1.931,1.896 2.965,2.7617 0.932,0.9571 1.905,1.8654 2.924,2.7187 0.937,0.9634 1.916,1.8783 2.941,2.7364 0.93,0.9547 1.902,1.8619 2.918,2.7129 0.936,0.9617 1.914,1.8761 2.937,2.7324 0.93,0.9544 1.9,1.8607 2.916,2.7109 0.93,0.9546 1.9,1.8608 2.916,2.711 0.922,0.9463 1.884,1.8477 2.891,2.6914 0.936,0.9623 1.915,1.8744 2.94,2.7304 0.115,0.1184 0.225,0.2426 0.341,0.3594 h -130.215 v 0 c -15.661,-0.2273 -30.23,7.9972 -38.127,21.5234 -7.897,13.5265 -7.896,30.2588 0,43.7852 2.559,4.3838 5.828,8.1985 9.599,11.3613 0.959,0.977 1.953,1.9116 2.994,2.7891 0.991,1.0142 2.024,1.9794 3.104,2.8867 0.975,0.9965 1.989,1.947 3.051,2.8399 0.985,1.0075 2.014,1.9677 3.088,2.8691 0.969,0.99 1.978,1.935 3.033,2.8223 0.983,1.0054 2.008,1.9639 3.08,2.8632 0.965,0.9858 1.971,1.9252 3.021,2.8086 0.978,0.9996 1.996,1.9514 3.061,2.8457 0.97,0.9911 1.979,1.9369 3.035,2.8243 0.976,0.9985 1.993,1.9506 3.057,2.8437 0.947,0.9684 1.932,1.8947 2.963,2.7637 0.983,1.0091 2.007,1.9716 3.08,2.873 0.97,0.993 1.981,1.938 3.039,2.8262 0.97,0.9919 1.98,1.9372 3.037,2.8242 0.965,0.9865 1.97,1.9241 3.021,2.8067 0.965,0.9873 1.97,1.9294 3.022,2.8125 0.963,0.985 1.966,1.9236 3.015,2.8046 0.965,0.9876 1.97,1.9277 3.022,2.8106 0.945,0.9668 1.927,1.8896 2.955,2.7558 0.971,0.9966 1.981,1.9461 3.041,2.836 0.964,0.9872 1.968,1.9265 3.019,2.8086 0.958,0.9806 1.956,1.9144 3,2.791 0.958,0.9809 1.956,1.9144 3,2.791 0.964,0.9867 1.969,1.9257 3.02,2.8067 0.955,0.9768 1.949,1.9083 2.99,2.7812 0.948,0.9699 1.936,1.8945 2.969,2.7617 0.964,0.9878 1.969,1.9273 3.021,2.8086 0.948,0.9697 1.936,1.8932 2.969,2.7598 0.954,0.9772 1.95,1.9068 2.99,2.7793 0.939,0.9617 1.917,1.8801 2.94,2.7402 0.942,0.9675 1.923,1.8893 2.951,2.7539 0.962,0.9886 1.965,1.9294 3.016,2.8106 0.952,0.9756 1.945,1.903 2.984,2.7734 0.945,0.9684 1.931,1.8895 2.963,2.7539 0.946,0.9694 1.932,1.8908 2.965,2.7559 0.941,0.9645 1.922,1.883 2.949,2.7441 0.945,0.9691 1.93,1.8913 2.961,2.7559 0.947,0.9711 1.935,1.8938 2.969,2.7597 0.941,0.9648 1.923,1.8816 2.951,2.7422 0.938,0.9623 1.917,1.8778 2.941,2.7363 0.94,0.9649 1.923,1.882 2.95,2.7422 0.944,0.9691 1.928,1.8905 2.96,2.7539 0.92,0.9425 1.879,1.8395 2.881,2.6817 0.935,0.9622 1.91,1.8783 2.932,2.7363 0.947,0.9747 1.936,1.9021 2.973,2.7695 0.93,0.9545 1.9,1.8618 2.916,2.7129 0.94,0.966 1.922,1.8822 2.951,2.7422 0.925,0.9495 1.891,1.8525 2.902,2.6992 0.938,0.9639 1.917,1.8804 2.944,2.7383 0.929,0.9538 1.9,1.8593 2.916,2.709 0.927,0.9516 1.893,1.8572 2.906,2.7051 0.927,0.9523 1.895,1.8568 2.908,2.7051 0.933,0.9584 1.907,1.8678 2.928,2.7207 0.92,0.9445 1.879,1.8438 2.884,2.6855 0.929,0.9545 1.899,1.8596 2.915,2.709 0.924,0.9504 1.89,1.8533 2.902,2.6992 0.918,0.9437 1.877,1.8412 2.881,2.6817 0.904,0.9298 1.847,1.8149 2.834,2.6445 0.943,0.9738 1.93,1.8977 2.965,2.7617 0.914,0.9389 1.869,1.83 2.869,2.666 0.923,0.9496 1.887,1.853 2.898,2.6973 0.913,0.9386 1.868,1.8305 2.867,2.666 0.921,0.9469 1.881,1.8477 2.889,2.6895 0.919,0.9452 1.88,1.8414 2.887,2.6816 0.54,0.5554 1.096,1.0919 1.668,1.6113 0.188,0.1981 0.387,0.3824 0.599,0.5508 0.195,0.1693 0.394,0.331 0.592,0.4961 0.445,0.4573 0.898,0.903 1.363,1.3359 0.339,0.4041 0.728,0.7548 1.155,1.0508 0.118,0.1013 0.243,0.1932 0.363,0.293 0.372,0.382 0.748,0.758 1.135,1.123 0.428,0.5556 0.953,1.0149 1.535,1.3828 0.06,0.052 0.126,0.099 0.187,0.1504 0.338,0.3477 0.678,0.6919 1.028,1.0254 0.486,0.6524 1.093,1.1906 1.781,1.5938 0.02,0.013 0.03,0.026 0.05,0.039 0.303,0.3119 0.605,0.6234 0.918,0.9239 0.518,0.7188 1.174,1.3141 1.928,1.7422 0.274,0.2822 0.545,0.5668 0.828,0.8398 0.55,0.7786 1.257,1.4124 2.074,1.8594 0.223,0.2292 0.439,0.4664 0.668,0.6894 0.576,0.8424 1.333,1.5213 2.211,1.9903 0.171,0.1755 0.333,0.3612 0.508,0.5332 0.603,0.9198 1.42,1.652 2.369,2.1464 0.107,0.1099 0.209,0.2256 0.318,0.334 0.629,1.0184 1.518,1.8177 2.553,2.3438 0.05,0.055 0.106,0.1131 0.16,0.168 0.652,1.103 1.605,1.9557 2.715,2.5058 0.01,0.025 0.03,0.051 0.04,0.076 0.656,1.1241 1.621,1.9941 2.746,2.5566 0.01,0.017 0.02,0.036 0.03,0.053 0.66,1.1295 1.628,2.0062 2.756,2.5761 0,0.01 0.01,0.02 0.02,0.029 0.661,1.1336 1.63,2.0166 2.76,2.5938 0,0 0,0.01 0,0.01 0.664,1.1369 1.633,2.0249 2.762,2.6094 0.67,1.143 1.644,2.039 2.779,2.6289 0.671,1.1305 1.636,2.0198 2.76,2.6114 0.677,1.1356 1.648,2.0315 2.779,2.6269 0.682,1.1257 1.645,2.0175 2.77,2.6133 0.683,1.1202 1.643,2.0111 2.764,2.6094 0.685,1.1155 1.642,2.0067 2.759,2.6074 0.689,1.1121 1.646,2.0024 2.762,2.6055 0.692,1.1071 1.644,1.9964 2.756,2.6015 0.695,1.1039 1.645,1.9943 2.756,2.6016 0.697,1.0976 1.642,1.9851 2.748,2.5937 0.7,1.0966 1.646,1.9843 2.752,2.5957 0.7,1.086 1.636,1.9718 2.732,2.584 0.706,1.0903 1.649,1.9778 2.75,2.5938 0.703,1.0757 1.632,1.9586 2.719,2.5742 0.706,1.0783 1.639,1.9624 2.729,2.582 0.708,1.0743 1.641,1.9572 2.728,2.5781 0.713,1.0738 1.646,1.957 2.734,2.5801 0.713,1.0653 1.64,1.943 2.721,2.5664 0.713,1.0623 1.641,1.9365 2.719,2.5625 0.713,1.0587 1.638,1.9322 2.711,2.5606 0.717,1.0614 1.646,1.9347 2.723,2.5664 0.716,1.0528 1.64,1.9229 2.709,2.5547 0.717,1.0499 1.637,1.9167 2.703,2.5507 0.72,1.0519 1.643,1.9215 2.711,2.5586 0.72,1.0453 1.641,1.9114 2.703,2.5489 0.719,1.04 1.635,1.9021 2.691,2.541 0.722,1.0403 1.641,1.9033 2.697,2.5449 0.72,1.0322 1.631,1.8893 2.678,2.5313 0.721,1.0327 1.632,1.8898 2.678,2.5351 0.726,1.0373 1.643,1.8983 2.695,2.5469 0.727,1.0305 1.642,1.8854 2.69,2.5332 0.724,1.0229 1.632,1.8757 2.671,2.5234 0.728,1.0256 1.64,1.8782 2.682,2.5293 0.727,1.0202 1.635,1.8702 2.672,2.5215 0.728,1.0188 1.637,1.8683 2.672,2.5215 0.729,1.0173 1.637,1.8649 2.672,2.5195 0.728,1.0111 1.632,1.8552 2.66,2.5098 0.731,1.0133 1.64,1.8581 2.67,2.5156 0.73,1.0074 1.632,1.8506 2.656,2.5078 0.731,1.0054 1.634,1.8453 2.656,2.5039 0.731,1.0036 1.632,1.8439 2.653,2.5039 0.723,0.9903 1.612,1.8208 2.617,2.4786 0.733,1.006 1.636,1.8495 2.656,2.5156 0.736,1.0011 1.638,1.8412 2.656,2.5058 0.731,0.9898 1.626,1.8226 2.633,2.4844 0.735,0.9939 1.635,1.8268 2.647,2.4922 0.731,0.9849 1.621,1.8147 2.623,2.4785 0.735,0.9907 1.634,1.8243 2.642,2.4922 0.732,0.9808 1.623,1.8072 2.621,2.4727 0.736,0.985 1.631,1.8154 2.633,2.4843 0.732,0.9763 1.62,1.7998 2.613,2.4668 0.737,0.9811 1.629,1.8097 2.627,2.4805 0.732,0.9708 1.618,1.791 2.606,2.459 0.733,0.972 1.619,1.7943 2.607,2.4648 0.733,0.9705 1.622,1.7872 2.608,2.459 0.735,0.9718 1.624,1.7909 2.611,2.4649 0.733,0.9654 1.619,1.7804 2.6,2.4531 0.734,0.9659 1.618,1.7826 2.599,2.457 0.737,0.9669 1.627,1.783 2.61,2.459 0.731,0.9566 1.611,1.7666 2.584,2.4395 0.736,0.9628 1.622,1.7779 2.601,2.455 0.734,0.9549 1.615,1.7649 2.586,2.4395 0.734,0.9535 1.615,1.7639 2.584,2.4394 0.745,0.9657 1.629,1.7969 2.613,2.4786 v 0 c 0.736,0.9426 1.606,1.7529 2.571,2.4238 0.739,0.9476 1.615,1.7647 2.584,2.4395 0.739,0.9438 1.613,1.7578 2.58,2.4316 0.737,0.9392 1.606,1.751 2.568,2.4239 0.739,0.9391 1.609,1.7516 2.57,2.4257 0.741,0.9398 1.613,1.7524 2.577,2.4278 0.737,0.9316 1.601,1.7396 2.556,2.4121 0.737,0.9302 1.6,1.7368 2.553,2.4101 0.741,0.9354 1.609,1.7469 2.568,2.4239 0.74,0.9283 1.602,1.734 2.555,2.4082 0.738,0.9256 1.599,1.7322 2.549,2.4062 0.74,0.926 1.601,1.733 2.553,2.4082 0.739,0.9219 1.597,1.7243 2.544,2.3985 0.739,0.9192 1.595,1.7224 2.54,2.3964 0.74,0.9209 1.6,1.7246 2.546,2.4004 0.738,0.9145 1.589,1.7152 2.53,2.3887 0.739,0.916 1.593,1.7191 2.535,2.3945 0.74,0.9148 1.595,1.7171 2.537,2.3926 0.738,0.9095 1.589,1.7073 2.525,2.3809 0.738,0.9076 1.587,1.7071 2.522,2.3808 0.738,0.9059 1.587,1.7012 2.519,2.375 0.739,0.9062 1.587,1.7039 2.52,2.3789 0.74,0.9058 1.59,1.7034 2.523,2.3789 0.738,0.8991 1.581,1.6926 2.508,2.3653 0.739,0.9005 1.583,1.6965 2.512,2.3711 0.737,0.8962 1.579,1.6882 2.504,2.3613 0.738,0.8967 1.58,1.6891 2.506,2.3633 0.736,0.892 1.573,1.6829 2.494,2.3555 0.741,0.8968 1.583,1.6912 2.51,2.3671 0.734,0.8854 1.567,1.6714 2.482,2.3418 0.739,0.8921 1.578,1.6843 2.5,2.3594 0.736,0.8852 1.569,1.6718 2.484,2.3438 0.735,0.8828 1.568,1.6661 2.481,2.3379 0.738,0.8858 1.572,1.6734 2.488,2.3476 0.738,0.8836 1.57,1.6723 2.484,2.3457 0.734,0.8754 1.561,1.6545 2.467,2.3242 0.736,0.8793 1.565,1.6651 2.475,2.3379 0.737,0.8785 1.567,1.663 2.476,2.336 0.733,0.8704 1.556,1.6511 2.457,2.3203 0.738,0.8761 1.568,1.6588 2.475,2.332 0.734,0.8699 1.557,1.6501 2.459,2.3203 0.734,0.8681 1.555,1.6484 2.455,2.3184 0.735,0.8679 1.557,1.6458 2.457,2.3164 0.734,0.8655 1.554,1.6426 2.451,2.3125 0.734,0.8646 1.554,1.6424 2.452,2.3125 0.731,0.8607 1.548,1.6342 2.441,2.3027 0.734,0.8628 1.552,1.6401 2.447,2.3106 0.733,0.8587 1.548,1.6321 2.44,2.3007 0.732,0.8573 1.547,1.6304 2.437,2.2989 0.732,0.8556 1.547,1.6287 2.436,2.2968 0.728,0.8506 1.538,1.6172 2.422,2.2833 0.733,0.8567 1.547,1.6304 2.437,2.3007 0.728,0.8477 1.536,1.6139 2.416,2.2793 0.73,0.8502 1.539,1.6175 2.422,2.2852 0.728,0.8468 1.537,1.6109 2.416,2.2773 0.728,0.8469 1.537,1.6122 2.416,2.2793 0.726,0.8434 1.533,1.6058 2.408,2.2715 0.727,0.844 1.534,1.6048 2.41,2.2715 0.729,0.8444 1.535,1.6098 2.412,2.2773 0.723,0.8357 1.523,1.5911 2.391,2.2539 0.727,0.8413 1.531,1.6025 2.404,2.2696 0.724,0.8356 1.526,1.5897 2.393,2.2539 0.724,0.8362 1.525,1.5925 2.393,2.2578 0.724,0.8358 1.525,1.5923 2.392,2.2578 0.723,0.8329 1.521,1.5857 2.385,2.25 0.721,0.8308 1.519,1.5824 2.381,2.2461 0.722,0.8316 1.52,1.5833 2.383,2.248 0.72,0.8283 1.517,1.577 2.377,2.2403 0.721,0.8293 1.518,1.5796 2.378,2.2441 0.722,0.8279 1.518,1.5781 2.377,2.2422 0.714,0.8174 1.502,1.5587 2.35,2.2168 0.724,0.8306 1.524,1.5829 2.385,2.25 0.716,0.8195 1.507,1.5603 2.357,2.2207 0.715,0.8178 1.504,1.5586 2.352,2.2188 0.719,0.8233 1.513,1.5701 2.367,2.2343 0.712,0.8131 1.497,1.5489 2.34,2.2071 0.718,0.8213 1.512,1.5644 2.363,2.2285 0.714,0.8145 1.501,1.5509 2.346,2.2109 0.714,0.8138 1.501,1.5508 2.343,2.211 0.714,0.8119 1.497,1.5475 2.338,2.207 0.715,0.8133 1.501,1.55 2.344,2.2109 0.714,0.8116 1.5,1.5469 2.342,2.2071 0.708,0.8035 1.485,1.5319 2.318,2.1875 0.714,0.8112 1.5,1.5459 2.34,2.207 0.712,0.8066 1.494,1.5389 2.33,2.1973 0.703,0.7961 1.476,1.5177 2.301,2.1699 0.716,0.8131 1.504,1.551 2.346,2.2148 0.707,0.7994 1.483,1.5247 2.312,2.1797 0.704,0.7955 1.477,1.5168 2.301,2.1699 0.71,0.8036 1.49,1.5344 2.322,2.1934 0.705,0.7951 1.479,1.5162 2.303,2.1699 0.704,0.795 1.478,1.5157 2.301,2.1699 0.707,0.799 1.485,1.5224 2.312,2.1797 0.701,0.7896 1.47,1.5068 2.287,2.1582 0.706,0.7963 1.481,1.5194 2.305,2.1758 0.704,0.7925 1.476,1.5118 2.297,2.166 0.701,0.7877 1.469,1.501 2.285,2.1524 0.702,0.7893 1.47,1.509 2.287,2.1621 0.698,0.784 1.464,1.4946 2.276,2.1445 0.702,0.7892 1.472,1.5063 2.289,2.1602 0.698,0.7836 1.464,1.4941 2.275,2.1445 0.701,0.7867 1.471,1.5033 2.285,2.1562 0.697,0.7799 1.458,1.4882 2.266,2.1368 0.7,0.7842 1.467,1.4965 2.279,2.1484 0.695,0.7769 1.455,1.4836 2.26,2.1309 0.697,0.7797 1.46,1.489 2.267,2.1386 0.698,0.7785 1.458,1.4877 2.264,2.1367 0.698,0.7781 1.459,1.4858 2.266,2.1348 0.69,0.7689 1.443,1.4702 2.24,2.1133 0.698,0.778 1.459,1.4869 2.266,2.1367 0.691,0.7688 1.445,1.4715 2.242,2.1152 0.696,0.7736 1.453,1.4817 2.256,2.129 0.69,0.7655 1.442,1.4653 2.236,2.1074 0.696,0.7722 1.452,1.4779 2.254,2.125 0.688,0.7615 1.434,1.4597 2.225,2.0996 0.693,0.7681 1.446,1.4704 2.244,2.1152 0.688,0.7611 1.436,1.4575 2.226,2.0977 0.689,0.7617 1.436,1.4605 2.227,2.1015 0.689,0.7613 1.436,1.4605 2.226,2.1016 0.688,0.7592 1.433,1.4558 2.221,2.0957 0.693,0.7644 1.444,1.4657 2.238,2.1094 0.684,0.7521 1.423,1.4428 2.205,2.0781 0.682,0.7503 1.42,1.4396 2.2,2.0742 0.69,0.7602 1.436,1.4578 2.226,2.0996 0.684,0.7514 1.422,1.4443 2.203,2.0801 0.681,0.7482 1.418,1.4364 2.196,2.0703 0.69,0.7581 1.436,1.4566 2.224,2.0977 0.679,0.7434 1.412,1.4296 2.186,2.0605 0.682,0.7473 1.418,1.4344 2.195,2.0684 0.683,0.748 1.419,1.4375 2.197,2.0722 0.68,0.7436 1.412,1.4305 2.186,2.0626 0.678,0.7414 1.408,1.4258 2.18,2.0566 0.682,0.7466 1.418,1.4356 2.195,2.0703 0.678,0.7398 1.407,1.4248 2.178,2.0547 0.676,0.737 1.402,1.4186 2.17,2.0469 0.678,0.7395 1.407,1.4242 2.177,2.0547 0.682,0.7428 1.415,1.4296 2.19,2.0625 0.671,0.7288 1.39,1.4043 2.15,2.0273 0.673,0.7326 1.393,1.4109 2.156,2.0371 0.68,0.74 1.411,1.4249 2.182,2.0566 0.672,0.729 1.392,1.4055 2.152,2.0293 0.672,0.7293 1.392,1.4049 2.153,2.0293 0.675,0.7323 1.398,1.4104 2.162,2.0371 0.667,0.7227 1.379,1.3956 2.133,2.0157 0.677,0.7342 1.404,1.4142 2.17,2.0429 0.668,0.7227 1.382,1.3952 2.136,2.0157 0.669,0.7231 1.384,1.3964 2.139,2.0175 0.668,0.7218 1.382,1.3933 2.135,2.0137 0.672,0.7261 1.39,1.3997 2.148,2.0235 0.664,0.7157 1.372,1.3836 2.119,2 0.669,0.7216 1.382,1.3946 2.135,2.0156 0.666,0.7179 1.377,1.3854 2.127,2.0039 0.667,0.7181 1.378,1.3871 2.129,2.0058 0.662,0.7122 1.367,1.3776 2.111,1.9922 0.665,0.7155 1.374,1.3827 2.121,2 0.661,0.7104 1.364,1.3746 2.106,1.9883 0.664,0.7137 1.371,1.3796 2.117,1.9961 0.661,0.7095 1.364,1.3728 2.105,1.9863 0.66,0.7079 1.362,1.3699 2.102,1.9825 0.661,0.7085 1.363,1.3711 2.104,1.9843 0.664,0.7117 1.37,1.3765 2.115,1.9922 0.658,0.7041 1.356,1.3644 2.094,1.9746 0.654,0.699 1.346,1.3543 2.078,1.961 0.658,0.7039 1.357,1.3639 2.093,1.9746 0.66,0.7053 1.36,1.3667 2.098,1.9785 0.652,0.6959 1.344,1.3482 2.072,1.9531 0.656,0.6999 1.35,1.3566 2.082,1.9649 0.655,0.6983 1.349,1.3517 2.08,1.9589 0.653,0.6958 1.344,1.3497 2.073,1.9551 0.654,0.6971 1.346,1.3524 2.076,1.959 0.651,0.6934 1.34,1.3452 2.066,1.9492 0.652,0.6939 1.342,1.3466 2.069,1.9512 0.648,0.6895 1.334,1.338 2.056,1.9395 0.652,0.693 1.34,1.3448 2.067,1.9492 0.647,0.6876 1.331,1.3351 2.052,1.9355 0.649,0.6882 1.332,1.3365 2.053,1.9375 0.647,0.6863 1.329,1.3319 2.049,1.9317 0.647,0.6864 1.329,1.3335 2.049,1.9336 0.645,0.6838 1.326,1.3275 2.043,1.9257 0.645,0.6837 1.326,1.3275 2.043,1.9258 0.647,0.6852 1.329,1.3321 2.049,1.9317 0.643,0.6796 1.319,1.3204 2.033,1.916 0.64,0.6763 1.311,1.3169 2.021,1.9101 0.644,0.6811 1.323,1.3229 2.037,1.92 0.641,0.6763 1.314,1.3146 2.024,1.9082 0.64,0.6754 1.314,1.3131 2.023,1.9062 0.64,0.6753 1.313,1.3132 2.022,1.9063 0.637,0.6716 1.303,1.308 2.01,1.8984 0.64,0.6767 1.316,1.3156 2.027,1.9101 0.632,0.6653 1.295,1.2951 1.994,1.8809 0.641,0.676 1.315,1.3158 2.025,1.9102 0.633,0.6655 1.297,1.2945 1.996,1.8808 0.634,0.6665 1.297,1.2995 1.997,1.8867 0.637,0.6701 1.305,1.3044 2.009,1.8946 0.634,0.6651 1.297,1.2963 1.996,1.8828 0.633,0.6636 1.295,1.2914 1.993,1.8769 0.631,0.6622 1.292,1.2905 1.988,1.875 0.629,0.6598 1.287,1.2863 1.98,1.8692 0.633,0.6639 1.296,1.2927 1.995,1.8789 0.625,0.6567 1.282,1.2806 1.972,1.8613 0.627,0.6568 1.283,1.2803 1.973,1.8613 0.631,0.6612 1.291,1.2885 1.986,1.8731 0.626,0.6549 1.282,1.2777 1.971,1.8574 0.625,0.6536 1.277,1.2747 1.965,1.8535 0.624,0.6531 1.278,1.2749 1.965,1.8535 0.626,0.6551 1.281,1.2791 1.97,1.8594 0.622,0.6496 1.272,1.2676 1.955,1.8438 0.623,0.6502 1.273,1.2689 1.957,1.8457 0.621,0.6477 1.27,1.2648 1.952,1.8398 0.623,0.6506 1.275,1.2703 1.96,1.8477 0.62,0.6454 1.266,1.2625 1.946,1.8359 0.618,0.6434 1.262,1.2581 1.939,1.8301 0.619,0.645 1.266,1.2606 1.946,1.834 0.614,0.64 1.255,1.2507 1.929,1.8203 0.621,0.6465 1.268,1.2631 1.949,1.8379 0.614,0.6373 1.253,1.2468 1.924,1.8144 0.617,0.641 1.259,1.2536 1.934,1.8242 0.611,0.6349 1.247,1.2407 1.916,1.8067 0.618,0.6421 1.261,1.2562 1.937,1.8281 0.61,0.6321 1.244,1.2368 1.911,1.8008 0.615,0.6388 1.256,1.249 1.929,1.8183 0.606,0.628 1.235,1.2301 1.897,1.7911 0.613,0.6368 1.252,1.2443 1.924,1.8125 0.607,0.6298 1.238,1.2321 1.902,1.7949 0.611,0.6328 1.245,1.2375 1.912,1.8027 0.607,0.628 1.236,1.2296 1.898,1.791 0.608,0.6287 1.238,1.2308 1.901,1.793 0.606,0.6275 1.236,1.2277 1.898,1.7891 0.603,0.6236 1.229,1.2209 1.887,1.7793 0.604,0.6242 1.23,1.2222 1.889,1.7812 0.607,0.6278 1.236,1.2291 1.898,1.791 0.602,0.6213 1.227,1.2186 1.883,1.7754 0.599,0.618 1.219,1.2114 1.871,1.7656 0.601,0.6206 1.224,1.215 1.879,1.7715 0.601,0.6208 1.226,1.2167 1.881,1.7735 0.603,0.6222 1.227,1.2193 1.885,1.7773 0.594,0.6122 1.21,1.2019 1.857,1.752 0.595,0.6129 1.21,1.2031 1.857,1.7539 0.603,0.6204 1.226,1.2165 1.881,1.7734 0.534,0.5491 1.088,1.0757 1.662,1.5762 h 746.123 V 7287.396 c -0.431,-0.4075 -0.87,-0.8056 -1.32,-1.1914 -0.847,-0.8596 -1.717,-1.6922 -2.629,-2.4747 -0.843,-0.8551 -1.71,-1.684 -2.617,-2.4628 -0.853,-0.8653 -1.729,-1.7031 -2.647,-2.4903 -0.845,-0.857 -1.713,-1.6884 -2.623,-2.4687 -0.849,-0.8613 -1.719,-1.6966 -2.632,-2.4805 -0.849,-0.861 -1.722,-1.6968 -2.635,-2.4805 -0.853,-0.8659 -1.73,-1.7044 -2.649,-2.4922 -0.849,-0.8621 -1.722,-1.6977 -2.636,-2.4824 -0.853,-0.8651 -1.727,-1.7031 -2.645,-2.4902 -0.853,-0.8663 -1.732,-1.7041 -2.65,-2.4922 -0.857,-0.8705 -1.737,-1.7143 -2.66,-2.5059 -0.853,-0.8651 -1.729,-1.7031 -2.647,-2.4902 -0.859,-0.8726 -1.743,-1.7164 -2.668,-2.5098 -0.857,-0.8702 -1.739,-1.7145 -2.662,-2.5058 -0.858,-0.8713 -1.738,-1.7157 -2.662,-2.5078 -0.864,-0.8777 -1.753,-1.728 -2.684,-2.5254 -0.853,-0.8661 -1.729,-1.7043 -2.648,-2.4922 -0.86,-0.8743 -1.745,-1.7209 -2.672,-2.5156 -0.867,-0.8811 -1.757,-1.733 -2.691,-2.5332 -0.86,-0.8738 -1.746,-1.7194 -2.672,-2.5137 -0.866,-0.8803 -1.756,-1.7336 -2.69,-2.5332 -0.862,-0.8762 -1.748,-1.7233 -2.677,-2.5195 -0.867,-0.8811 -1.758,-1.7349 -2.692,-2.5352 -0.865,-0.88 -1.756,-1.7318 -2.689,-2.5312 -0.87,-0.8849 -1.765,-1.7396 -2.703,-2.543 -0.871,-0.885 -1.765,-1.7415 -2.704,-2.5449 -0.866,-0.881 -1.757,-1.733 -2.691,-2.5332 -0.87,-0.8852 -1.765,-1.7413 -2.703,-2.545 -0.875,-0.8906 -1.776,-1.7524 -2.721,-2.5605 -0.868,-0.8829 -1.761,-1.7373 -2.697,-2.5391 -0.87,-0.8857 -1.767,-1.7427 -2.705,-2.5468 -0.878,-0.8939 -1.783,-1.7575 -2.731,-2.5684 -0.87,-0.886 -1.766,-1.7425 -2.705,-2.5469 -0.882,-0.8982 -1.79,-1.7656 -2.742,-2.5801 -0.867,-0.8826 -1.76,-1.7374 -2.695,-2.539 -0.884,-0.9005 -1.794,-1.7715 -2.748,-2.5879 -0.878,-0.8938 -1.781,-1.7576 -2.729,-2.5684 -0.877,-0.8932 -1.782,-1.756 -2.728,-2.5664 -0.882,-0.8988 -1.79,-1.767 -2.742,-2.582 -0.882,-0.8977 -1.789,-1.7661 -2.741,-2.5801 -0.886,-0.9031 -1.8,-1.7753 -2.757,-2.5937 -0.879,-0.8945 -1.783,-1.7589 -2.731,-2.5704 -0.885,-0.9014 -1.795,-1.7726 -2.75,-2.5898 -0.887,-0.9038 -1.8,-1.7767 -2.758,-2.5957 -0.881,-0.8982 -1.79,-1.7656 -2.742,-2.5801 -0.888,-0.9054 -1.803,-1.7811 -2.762,-2.6015 -0.89,-0.9075 -1.808,-1.7835 -2.769,-2.6055 -0.886,-0.903 -1.799,-1.7754 -2.756,-2.5938 -0.894,-0.9112 -1.814,-1.792 -2.779,-2.6171 -0.889,-0.9057 -1.804,-1.7791 -2.764,-2.5997 -0.889,-0.9065 -1.805,-1.7821 -2.766,-2.6035 -0.895,-0.9137 -1.819,-1.7958 -2.787,-2.623 -0.891,-0.9094 -1.81,-1.7877 -2.773,-2.6113 -0.897,-0.9147 -1.82,-1.799 -2.789,-2.627 -0.895,-0.9125 -1.818,-1.793 -2.785,-2.6191 -0.893,-0.911 -1.815,-1.7923 -2.78,-2.6172 -0.898,-0.9172 -1.825,-1.8009 -2.797,-2.6309 -0.896,-0.9144 -1.818,-1.7972 -2.787,-2.625 -0.901,-0.92 -1.828,-1.8083 -2.802,-2.6406 -0.902,-0.9206 -1.832,-1.8079 -2.807,-2.6406 -0.899,-0.9171 -1.826,-1.801 -2.797,-2.6309 -0.899,-0.918 -1.825,-1.804 -2.797,-2.6348 -0.907,-0.9269 -1.844,-1.8201 -2.826,-2.6582 -0.901,-0.9196 -1.829,-1.8086 -2.803,-2.6406 -0.906,-0.9262 -1.843,-1.8188 -2.824,-2.6562 -0.904,-0.9231 -1.835,-1.8156 -2.812,-2.6504 -0.907,-0.9265 -1.843,-1.8187 -2.825,-2.6563 -0.906,-0.9262 -1.841,-1.8189 -2.822,-2.6562 -0.905,-0.925 -1.839,-1.8179 -2.818,-2.6543 -0.914,-0.9338 -1.857,-1.8322 -2.846,-2.6758 -0.908,-0.9282 -1.845,-1.8231 -2.828,-2.6621 -0.906,-0.9258 -1.841,-1.8191 -2.82,-2.6563 -0.916,-0.9368 -1.862,-1.8393 -2.854,-2.6855 -0.916,-0.9366 -1.862,-1.8397 -2.853,-2.6856 -0.908,-0.9272 -1.843,-1.8219 -2.825,-2.6601 -0.921,-0.9423 -1.873,-1.8507 -2.871,-2.7012 -0.911,-0.931 -1.85,-1.8286 -2.836,-2.6699 -0.915,-0.9368 -1.86,-1.8395 -2.851,-2.6856 -0.92,-0.9412 -1.869,-1.8475 -2.866,-2.6972 -0.917,-0.9391 -1.867,-1.8435 -2.861,-2.6914 -0.916,-0.9375 -1.861,-1.8409 -2.853,-2.6875 -0.922,-0.9438 -1.876,-1.8514 -2.875,-2.7032 -0.923,-0.9446 -1.875,-1.8565 -2.875,-2.7089 -0.921,-0.9415 -1.871,-1.8474 -2.868,-2.6973 -0.919,-0.9413 -1.869,-1.8495 -2.865,-2.6992 -0.925,-0.9474 -1.882,-1.8582 -2.885,-2.7129 -0.926,-0.9483 -1.883,-1.8633 -2.886,-2.7188 -0.924,-0.9456 -1.878,-1.8556 -2.879,-2.7089 -0.928,-0.9507 -1.887,-1.8653 -2.893,-2.7227 -0.926,-0.9483 -1.882,-1.8614 -2.884,-2.7168 -0.934,-0.955 -1.896,-1.8735 -2.907,-2.7344 -0.925,-0.9468 -1.88,-1.8586 -2.883,-2.7129 -0.929,-0.9526 -1.89,-1.8695 -2.898,-2.7285 -0.933,-0.9563 -1.896,-1.8763 -2.908,-2.7383 -0.93,-0.9525 -1.891,-1.8695 -2.899,-2.7285 -0.936,-0.9598 -1.904,-1.8832 -2.92,-2.748 -0.932,-0.9551 -1.895,-1.8734 -2.906,-2.7344 -0.934,-0.9581 -1.9,-1.8787 -2.914,-2.7422 -0.937,-0.9612 -1.907,-1.888 -2.924,-2.7539 -0.937,-0.961 -1.906,-1.8862 -2.924,-2.7519 -0.933,-0.9573 -1.899,-1.8776 -2.912,-2.7403 -0.943,-0.9674 -1.917,-1.8966 -2.941,-2.7676 -0.932,-0.9557 -1.895,-1.8767 -2.906,-2.7382 -0.944,-0.9691 -1.921,-1.8992 -2.946,-2.7715 -0.941,-0.9654 -1.914,-1.8943 -2.935,-2.7637 -0.937,-0.9615 -1.907,-1.8857 -2.924,-2.7519 -0.947,-0.9723 -1.927,-1.9063 -2.955,-2.7813 -0.941,-0.9663 -1.916,-1.8955 -2.938,-2.7656 -0.946,-0.9722 -1.927,-1.9064 -2.955,-2.7813 -0.947,-0.9723 -1.926,-1.9062 -2.955,-2.7812 -0.942,-0.967 -1.917,-1.8969 -2.939,-2.7676 -0.95,-0.9764 -1.935,-1.9146 -2.967,-2.793 -0.947,-0.9727 -1.928,-1.9078 -2.957,-2.7832 -0.949,-0.9743 -1.931,-1.9105 -2.961,-2.7871 -0.954,-0.98 -1.941,-1.9215 -2.976,-2.8027 -0.951,-0.9753 -1.934,-1.9117 -2.965,-2.7891 -0.949,-0.9747 -1.933,-1.9121 -2.963,-2.789 -0.955,-0.9813 -1.943,-1.9244 -2.981,-2.8067 -0.956,-0.9825 -1.947,-1.9254 -2.986,-2.8086 -0.948,-0.9737 -1.93,-1.909 -2.959,-2.7851 -0.96,-0.9881 -1.954,-1.9365 -2.998,-2.8243 -0.957,-0.9841 -1.95,-1.9298 -2.99,-2.8144 -0.958,-0.9844 -1.949,-1.9297 -2.991,-2.8145 -0.953,-0.9803 -1.942,-1.9212 -2.978,-2.8027 -0.961,-0.9888 -1.957,-1.9378 -3.002,-2.8262 -0.962,-0.9896 -1.958,-1.9391 -3.004,-2.8281 -0.961,-0.9885 -1.957,-1.9381 -3.002,-2.8262 -0.961,-0.9889 -1.958,-1.9397 -3.004,-2.8281 -0.964,-0.9923 -1.966,-1.9448 -3.015,-2.8359 -8.21,-8.4434 -19.618,-13.3248 -31.696,-13.1641 h -148.685 c -0.564,-0.5446 -1.134,-1.0868 -1.703,-1.6289 -0.931,-0.907 -1.873,-1.8088 -2.821,-2.709 -0.799,-0.7781 -1.61,-1.5512 -2.422,-2.3242 -0.853,-0.8327 -1.718,-1.6613 -2.585,-2.4883 -0.966,-0.9418 -1.942,-1.878 -2.924,-2.8125 -0.894,-0.8704 -1.799,-1.7374 -2.707,-2.6015 -0.831,-0.809 -1.672,-1.6125 -2.516,-2.4161 -0.87,-0.848 -1.751,-1.6911 -2.635,-2.5332 -0.946,-0.9228 -1.902,-1.842 -2.865,-2.7578 -0.779,-0.7587 -1.567,-1.5136 -2.357,-2.2675 -0.98,-0.9573 -1.971,-1.9098 -2.969,-2.8594 -0.986,-0.9604 -1.983,-1.9163 -2.986,-2.8692 -0.658,-0.6394 -1.327,-1.274 -1.993,-1.9101 -0.949,-0.9291 -1.908,-1.8554 -2.875,-2.7774 -0.961,-0.9387 -1.933,-1.8712 -2.912,-2.8027 -0.878,-0.8558 -1.766,-1.7068 -2.658,-2.5566 -0.981,-0.9571 -1.973,-1.9098 -2.973,-2.8594 -0.76,-0.7399 -1.531,-1.4755 -2.302,-2.211 -0.957,-0.9338 -1.925,-1.8622 -2.899,-2.789 -0.902,-0.8798 -1.817,-1.7534 -2.734,-2.627 -0.876,-0.8536 -1.763,-1.703 -2.653,-2.5508 -1.046,-1.0202 -2.103,-2.0368 -3.169,-3.0488 -0.693,-0.673 -1.399,-1.3403 -2.1,-2.0097 -0.944,-0.9219 -1.897,-1.8408 -2.857,-2.7559 -0.772,-0.7534 -1.553,-1.5031 -2.336,-2.252 -1.073,-1.0499 -2.157,-2.0955 -3.25,-3.1367 -0.885,-0.8624 -1.781,-1.7197 -2.68,-2.5761 -0.923,-0.9 -1.857,-1.796 -2.795,-2.6895 -0.897,-0.8742 -1.805,-1.7432 -2.717,-2.6113 -0.908,-0.885 -1.827,-1.7657 -2.75,-2.6446 -1.06,-1.0331 -2.131,-2.0612 -3.211,-3.0859 -0.718,-0.6977 -1.451,-1.3901 -2.177,-2.084 -0.794,-0.7729 -1.594,-1.5423 -2.397,-2.3105 -1.072,-1.049 -2.156,-2.0925 -3.248,-3.1328 -0.915,-0.8915 -1.84,-1.7789 -2.77,-2.6641 -1.043,-1.0168 -2.099,-2.0284 -3.162,-3.0371 -0.694,-0.6745 -1.4,-1.3447 -2.103,-2.0156 -1.136,-1.1091 -2.283,-2.213 -3.442,-3.3125 -0.869,-0.8447 -1.751,-1.6844 -2.634,-2.5235 -0.687,-0.6676 -1.386,-1.33 -2.08,-1.9941 -0.913,-0.8926 -1.835,-1.7815 -2.762,-2.668 -1.117,-1.0921 -2.244,-2.1807 -3.383,-3.2637 -0.674,-0.6561 -1.359,-1.308 -2.041,-1.9609 -1.624,-1.5904 -3.267,-3.1732 -4.937,-4.7441 -29.988,-28.8466 -67.739,-54.4779 -111.186,-76.2012 -112.537,-56.2684 -259.451,-86.039 -412.717,-86.0391 z"
         id="path31954"
         inkscape:connector-curvature="0" />
    </g>
  </g>
</svg>
