<?xml version="1.0" encoding="UTF-8" standalone="no"?>
<svg
   xmlns:dc="http://purl.org/dc/elements/1.1/"
   xmlns:cc="http://creativecommons.org/ns#"
   xmlns:rdf="http://www.w3.org/1999/02/22-rdf-syntax-ns#"
   xmlns:svg="http://www.w3.org/2000/svg"
   xmlns="http://www.w3.org/2000/svg"
   xmlns:sodipodi="http://sodipodi.sourceforge.net/DTD/sodipodi-0.dtd"
   xmlns:inkscape="http://www.inkscape.org/namespaces/inkscape"
   sodipodi:docname="reti_scalable.svg"
   inkscape:version="1.0 (4035a4fb49, 2020-05-01)"
   id="svg27864"
   version="1.1"
   viewBox="0 0 67.733338 67.733338"
   height="67.733337mm"
   width="67.733337mm">
  <defs
     id="defs27858">
    <clipPath
       clipPathUnits="userSpaceOnUse"
       id="clipPath1698-3">
      <rect
         style="opacity:0.604;fill:#26a10d;fill-opacity:0.985;stroke:#d32f2f;stroke-width:0;stroke-linecap:round;stroke-linejoin:bevel;stroke-miterlimit:4;stroke-dasharray:none;stroke-dashoffset:0;stroke-opacity:0.94;paint-order:fill markers stroke"
         id="rect1700-6"
         width="1200"
         height="772.966"
         x="-29147.879"
         y="19470.865"
         rx="64.06395"
         ry="64.06395" />
    </clipPath>
    <clipPath
       id="clipPath29374"
       clipPathUnits="userSpaceOnUse">
      <rect
         style="opacity:1;fill:#014c77;fill-opacity:1;stroke:none;stroke-width:4.4;stroke-linecap:round;stroke-linejoin:bevel;stroke-miterlimit:4;stroke-dasharray:none;stroke-dashoffset:0;stroke-opacity:1;paint-order:fill markers stroke"
         id="rect29376"
         width="2048"
         height="2048"
         x="-18040.27"
         y="7264.1074" />
    </clipPath>
    <clipPath
       id="clipPath1237"
       clipPathUnits="userSpaceOnUse">
      <g
         id="g1245">
        <rect
           ry="28.853754"
           rx="28.853754"
           y="8911.8291"
           x="-17557.889"
           height="98.791946"
           width="1083.2383"
           id="rect1239"
           style="opacity:1;fill:#e1f5fe;fill-opacity:1;stroke:none;stroke-width:4.4;stroke-linecap:round;stroke-linejoin:bevel;stroke-miterlimit:4;stroke-dasharray:none;stroke-dashoffset:0;stroke-opacity:1;paint-order:fill markers stroke" />
        <rect
           ry="28.8538"
           rx="28.853802"
           y="8984.541"
           x="-17372.984"
           height="66.819221"
           width="713.43213"
           id="rect1241"
           style="opacity:1;fill:#e1f5fe;fill-opacity:1;stroke:none;stroke-width:4.4;stroke-linecap:round;stroke-linejoin:bevel;stroke-miterlimit:4;stroke-dasharray:none;stroke-dashoffset:0;stroke-opacity:1;paint-order:fill markers stroke" />
        <path
           id="path1243"
           d="m -17324.329,8432.3038 c -18.32,0 -33.343,14.4272 -35.635,33.2188 h -0.312 v 5.0019 30.5742 132.9981 c 0,163.6929 123.952,295.4765 277.918,295.4765 h 132.179 c 122.164,0 225.42,-82.9726 262.867,-199.0156 a 129.26388,129.26388 0 0 0 15.041,1.0391 129.26388,129.26388 0 0 0 129.264,-129.2637 129.26388,129.26388 0 0 0 -129.256,-129.2637 v -2.5449 -5.0019 h -0.314 c -2.292,-18.7916 -17.314,-33.2188 -35.633,-33.2188 z m 652.066,103.461 a 66.567536,66.567536 0 0 1 66.561,66.5683 66.567536,66.567536 0 0 1 -66.569,66.5664 66.567536,66.567536 0 0 1 -1.892,-0.094 c 1.242,-11.3827 1.9,-22.9607 1.9,-34.709 z"
           style="opacity:1;fill:#e1f5fe;fill-opacity:1;stroke:none;stroke-width:4.4;stroke-linecap:round;stroke-linejoin:bevel;stroke-miterlimit:4;stroke-dasharray:none;stroke-dashoffset:0;stroke-opacity:1;paint-order:fill markers stroke"
           inkscape:connector-curvature="0" />
      </g>
    </clipPath>
  </defs>
  <sodipodi:namedview
     inkscape:snap-global="false"
     inkscape:window-maximized="0"
     inkscape:window-y="24"
     inkscape:window-x="576"
     inkscape:window-height="1025"
     inkscape:window-width="1336"
     fit-margin-bottom="0"
     fit-margin-right="0"
     fit-margin-left="0"
     fit-margin-top="0"
     showgrid="false"
     inkscape:document-rotation="0"
     inkscape:current-layer="layer1"
     inkscape:document-units="mm"
     inkscape:cy="1045.101"
     inkscape:cx="1290.5809"
     inkscape:zoom="0.19921874"
     inkscape:pageshadow="2"
     inkscape:pageopacity="0.0"
     borderopacity="1.0"
     bordercolor="#666666"
     pagecolor="#ffffff"
     id="base" />
  <metadata
     id="metadata27861">
    <rdf:RDF>
      <cc:Work
         rdf:about="">
        <dc:format>image/svg+xml</dc:format>
        <dc:type
           rdf:resource="http://purl.org/dc/dcmitype/StillImage" />
        <dc:title></dc:title>
        <cc:license
           rdf:resource="http://creativecommons.org/licenses/by-sa/4.0/" />
      </cc:Work>
      <cc:License
         rdf:about="http://creativecommons.org/licenses/by-sa/4.0/">
        <cc:permits
           rdf:resource="http://creativecommons.org/ns#Reproduction" />
        <cc:permits
           rdf:resource="http://creativecommons.org/ns#Distribution" />
        <cc:requires
           rdf:resource="http://creativecommons.org/ns#Notice" />
        <cc:requires
           rdf:resource="http://creativecommons.org/ns#Attribution" />
        <cc:permits
           rdf:resource="http://creativecommons.org/ns#DerivativeWorks" />
        <cc:requires
           rdf:resource="http://creativecommons.org/ns#ShareAlike" />
      </cc:License>
    </rdf:RDF>
  </metadata>
  <g
     transform="translate(2723.6247,2852.482)"
     id="layer1"
     inkscape:groupmode="layer"
     inkscape:label="Livello 1">
    <g
       transform="matrix(0.12500001,0,0,0.12500001,-2383.1716,-2495.9217)"
       id="g30351">
      <rect
         style="fill:#b2dfdb;fill-opacity:1;stroke:none;stroke-width:1.85208;stroke-linecap:round;stroke-linejoin:bevel;stroke-miterlimit:4;stroke-dasharray:none;stroke-dashoffset:0;stroke-opacity:1;paint-order:normal"
         id="rect832-3"
         width="541.86664"
         height="541.86664"
         x="-2723.6248"
         y="-2852.4819"
         rx="0.34388688"
         ry="0.34388688"
         inkscape:export-xdpi="96"
         inkscape:export-ydpi="96" />
      <path
         inkscape:connector-curvature="0"
         style="color:#000000;font-style:normal;font-variant:normal;font-weight:normal;font-stretch:normal;font-size:medium;line-height:normal;font-family:sans-serif;font-variant-ligatures:normal;font-variant-position:normal;font-variant-caps:normal;font-variant-numeric:normal;font-variant-alternates:normal;font-feature-settings:normal;text-indent:0;text-align:start;text-decoration:none;text-decoration-line:none;text-decoration-style:solid;text-decoration-color:#000000;letter-spacing:normal;word-spacing:normal;text-transform:none;writing-mode:lr-tb;direction:ltr;text-orientation:mixed;dominant-baseline:auto;baseline-shift:baseline;text-anchor:start;white-space:normal;shape-padding:0;clip-rule:nonzero;display:inline;overflow:visible;visibility:visible;isolation:auto;mix-blend-mode:normal;color-interpolation:sRGB;color-interpolation-filters:linearRGB;solid-color:#000000;solid-opacity:1;vector-effect:none;fill:#000001;fill-opacity:0.145098;fill-rule:nonzero;stroke:none;stroke-width:0.0264583;stroke-linecap:round;stroke-linejoin:bevel;stroke-miterlimit:4;stroke-dasharray:none;stroke-dashoffset:0;stroke-opacity:1;paint-order:markers fill stroke;color-rendering:auto;image-rendering:auto;shape-rendering:auto;text-rendering:auto;enable-background:accumulate"
         d="m -2521.8122,-2769.9066 c -0.4797,-0.01 -0.9591,0 -1.4386,0.01 -13.4483,0.2121 -26.764,5.159 -36.6738,15.535 -24.4109,21.9949 -20.8202,62.6955 3.2918,82.4022 1.2862,1.3118 2.6434,2.5602 4.0762,3.732 1.28,1.3049 2.6305,2.5462 4.0556,3.7125 1.2742,1.2984 2.619,2.5337 4.037,3.6948 1.2686,1.2921 2.6062,2.5223 4.0173,3.6784 1.2607,1.2831 2.5903,2.5045 3.9915,3.6535 1.255,1.2771 2.5785,2.4929 3.9728,3.637 1.249,1.2703 2.5654,2.4806 3.9523,3.6194 1.243,1.2638 2.5531,2.4673 3.9325,3.6008 1.237,1.257 2.541,2.4531 3.913,3.5812 1.2306,1.25 2.527,2.4412 3.8912,3.5636 1.2242,1.2429 2.5153,2.4262 3.8716,3.5429 1.219,1.2371 2.5031,2.4154 3.853,3.5275 1.2116,1.2289 2.4872,2.4002 3.8282,3.5057 1.2063,1.223 2.4772,2.3885 3.8116,3.4892 1.1986,1.2146 2.4608,2.3715 3.7858,3.4654 1.1935,1.209 2.4506,2.3615 3.7694,3.451 1.1878,1.2027 2.4377,2.3489 3.7496,3.4334 1.1808,1.195 2.4236,2.3335 3.7269,3.4116 0.5125,0.5185 1.0341,1.0294 1.5699,1.5265 -0.8684,1.8178 -1.6066,3.6967 -2.2004,5.6245 -20.3407,-7.1255 -40.6817,-14.2518 -61.0226,-21.3775 -0.8866,-0.8833 -1.8407,-1.6985 -2.8505,-2.4422 -1.1907,-1.3493 -2.5252,-2.5705 -3.978,-3.6391 -1.1965,-1.3571 -2.5385,-2.5843 -3.9998,-3.6576 -1.2012,-1.3638 -2.5479,-2.5968 -4.0163,-3.6742 -1.207,-1.3721 -2.5618,-2.6123 -4.039,-3.6949 -1.213,-1.3803 -2.5756,-2.6269 -4.0618,-3.7145 -1.2183,-1.3876 -2.5862,-2.6411 -4.0803,-3.7331 -4.0687,-4.6383 -9.821,-7.7947 -16.2771,-8.3685 v 0 c -22.3416,-3.3079 -36.9534,26.8681 -20.5289,42.3478 1.1217,1.2573 2.3334,2.3455 3.6132,3.2732 0.1572,0.1568 0.3121,0.3153 0.4754,0.4692 1.1193,1.2545 2.3283,2.3396 3.605,3.266 0.1533,0.1527 0.3038,0.3068 0.463,0.4568 v 0 c 1.1182,1.2533 2.3255,2.3381 3.6008,3.2639 0.1479,0.147 0.2932,0.2958 0.4465,0.4403 v 0 c 1.1167,1.2517 2.3211,2.3358 3.5945,3.2607 0.1433,0.1421 0.2838,0.2851 0.4321,0.4248 1.1161,1.251 2.3209,2.3352 3.5936,3.2598 0.1374,0.136 0.2714,0.2733 0.4134,0.4072 1.1124,1.2468 2.3132,2.3278 3.5812,3.2504 0.1343,0.1329 0.2653,0.2672 0.4041,0.3979 v 0 c 1.1115,1.2459 2.3102,2.3263 3.577,3.2484 0.129,0.1273 0.2546,0.256 0.3876,0.3814 v 0 c 1.1112,1.2455 2.3095,2.3254 3.576,3.2473 0.123,0.1212 0.2423,0.2444 0.3689,0.3638 1.1071,1.2408 2.3014,2.3164 3.5627,3.236 0.1205,0.1186 0.2375,0.2386 0.3617,0.3556 1.1054,1.239 2.2982,2.314 3.5574,3.2328 0.1156,0.1135 0.2274,0.2291 0.3462,0.3411 v 0 c 1.1039,1.2373 2.2939,2.3098 3.5512,3.2277 0.1109,0.1088 0.2178,0.2192 0.3317,0.3266 1.1015,1.2346 2.2898,2.3049 3.544,3.2215 0.1069,0.1046 0.2098,0.2109 0.3194,0.3142 1.1006,1.2336 2.2878,2.3043 3.5408,3.2205 0.1012,0.099 0.1983,0.199 0.3018,0.2966 1.0988,1.2315 2.284,2.3002 3.5347,3.2153 0.096,0.094 0.1887,0.1902 0.2873,0.2832 v 0 c 1.0975,1.2301 2.2804,2.2968 3.5295,3.2112 0.091,0.089 0.1784,0.1797 0.2718,0.2677 v 0 c 1.0939,1.2259 2.2736,2.2894 3.5182,3.2018 0.088,0.086 0.1723,0.1735 0.2625,0.2584 1.0929,1.225 2.2715,2.2879 3.515,3.1998 0.083,0.08 0.1616,0.1623 0.246,0.2419 1.0921,1.224 2.2696,2.2873 3.5119,3.1987 0.077,0.075 0.1501,0.1505 0.2284,0.2243 v 0 c 1.0899,1.2215 2.2652,2.2814 3.5047,3.1915 0.073,0.07 0.1411,0.1423 0.215,0.2119 v 0 c 1.0878,1.2192 2.2606,2.2774 3.4974,3.1864 0.068,0.066 0.1324,0.1332 0.2016,0.1984 v 0 c 1.0865,1.2178 2.2579,2.275 3.4933,3.1833 0.063,0.061 0.1222,0.1228 0.186,0.1829 1.0837,1.2145 2.2513,2.2704 3.483,3.1771 0.059,0.057 0.1148,0.1151 0.1747,0.1716 0.7598,0.8516 1.5613,1.6242 2.3967,2.3233 -2.2097,1.6874 -4.4193,3.3748 -6.629,5.0622 -1.2424,-1.2472 -2.5377,-2.4237 -3.8788,-3.5305 -25.1323,-25.5139 -72.0029,-21.9535 -91.7267,9.0868 -18.6022,25.2734 -11.4218,61.7884 11.5011,80.7858 1.2962,1.3048 2.6526,2.5506 4.0721,3.7279 1.2914,1.2997 2.6429,2.5414 4.0566,3.7145 1.2862,1.2939 2.6326,2.5296 4.0401,3.698 1.2802,1.2871 2.619,2.5175 4.0193,3.6804 1.2718,1.2777 2.6024,2.4993 3.9926,3.6545 1.265,1.2706 2.5886,2.4855 3.9708,3.635 1.2589,1.264 2.5754,2.4732 3.9501,3.6173 1.2524,1.2571 2.5625,2.4582 3.9295,3.5967 1.2481,1.2527 2.5529,2.4494 3.915,3.5843 1.2399,1.2437 2.537,2.4319 3.8892,3.5594 1.2352,1.2388 2.5269,2.4236 3.8736,3.5471 1.2275,1.2303 2.5114,2.4068 3.8489,3.5233 1.2208,1.2232 2.4977,2.3929 3.8271,3.5037 1.2126,1.2146 2.4806,2.3751 3.8003,3.4788 1.2118,1.214 2.4793,2.3737 3.7982,3.4768 1.202,1.2032 2.4589,2.3536 3.7662,3.4478 1.1976,1.1986 2.4485,2.3441 3.7507,3.4345 1.1895,1.1897 2.4323,2.3264 3.7249,3.4096 1.183,1.183 2.4191,2.3134 3.7041,3.391 1.1767,1.1763 2.407,2.3003 3.6846,3.3724 1.172,1.1714 2.3969,2.292 3.6689,3.36 1.1637,1.1623 2.3801,2.2737 3.6422,3.3342 1.1578,1.1562 2.3672,2.2611 3.6226,3.3166 1.1543,1.1524 2.3608,2.2539 3.6121,3.3062 1.146,1.1433 2.3428,2.2358 3.5843,3.2804 1.1369,1.1339 2.3245,2.2178 3.5553,3.2546 1.1357,1.1326 2.3219,2.2157 3.5513,3.2515 1.1296,1.1258 2.3091,2.2028 3.5315,3.2329 1.1204,1.1156 2.2891,2.1834 3.5006,3.205 1.1177,1.1126 2.2839,2.1776 3.4923,3.1966 1.1083,1.1024 2.2638,2.1574 3.4613,3.1678 1.0993,1.0931 2.2453,2.1404 3.4323,3.143 1.0979,1.0915 2.243,2.1365 3.4282,3.1378 1.0919,1.0847 2.2304,2.1236 3.4086,3.1192 1.0833,1.0754 2.2114,2.1077 3.3796,3.0954 1.0764,1.0679 2.1979,2.0912 3.358,3.0727 1.0709,1.0623 2.1865,2.0815 3.3403,3.0582 1.0666,1.0574 2.1762,2.0722 3.3249,3.0447 0.515,0.5102 1.0405,1.0096 1.5751,1.4997 h 290.4753 c 0.381,0 0.6873,-0.3063 0.6873,-0.6873 v -300.9779 c -0.2197,-0.1782 -0.439,-0.3572 -0.6646,-0.5281 -1.0567,-1.1668 -2.2236,-2.2333 -3.4809,-3.1854 -1.0641,-1.1767 -2.241,-2.2504 -3.5088,-3.2091 -1.0681,-1.182 -2.2498,-2.2604 -3.5233,-3.2225 -1.0747,-1.1909 -2.2652,-2.2773 -3.5481,-3.2453 -1.0802,-1.1982 -2.2769,-2.2901 -3.5678,-3.2628 -1.0859,-1.2059 -2.2893,-2.3048 -3.5884,-3.2825 -1.0915,-1.2133 -2.302,-2.3186 -3.6091,-3.3011 -1.0965,-1.2201 -2.3133,-2.3308 -3.6277,-3.3176 -1.1022,-1.228 -2.3257,-2.3453 -3.6483,-3.3373 -1.1089,-1.2368 -2.341,-2.3623 -3.6732,-3.36 -1.1132,-1.2426 -2.3501,-2.3731 -3.6886,-3.3745 -1.1192,-1.2507 -2.3643,-2.3875 -3.7114,-3.3941 -1.1249,-1.2584 -2.3766,-2.4022 -3.7321,-3.4137 -1.1302,-1.2656 -2.3885,-2.4153 -3.7517,-3.4313 -1.1358,-1.2733 -2.4,-2.43 -3.7714,-3.451 -1.1414,-1.281 -2.4143,-2.4437 -3.794,-3.4696 -1.1465,-1.2879 -2.4246,-2.4568 -3.8117,-3.4871 -1.1527,-1.2966 -2.4391,-2.472 -3.8354,-3.5078 -1.1582,-1.3039 -2.4508,-2.4861 -3.8551,-3.5264 -1.1633,-1.311 -2.4627,-2.4992 -3.8747,-3.5439 -1.1689,-1.3188 -2.4752,-2.5141 -3.8954,-3.5637 -1.1737,-1.3255 -2.4865,-2.5262 -3.9139,-3.5801 -1.1798,-1.3341 -2.5013,-2.5416 -3.9378,-3.6008 -1.1851,-1.3415 -2.5119,-2.5556 -3.9563,-3.6194 -1.1904,-1.3489 -2.5238,-2.5697 -3.976,-3.6381 -1.196,-1.3567 -2.538,-2.5833 -3.9987,-3.6566 -1.2021,-1.3651 -2.5507,-2.5989 -4.0205,-3.6773 -1.2068,-1.3718 -2.561,-2.6114 -4.0379,-3.6938 -1.2124,-1.3795 -2.5735,-2.6263 -4.0587,-3.7135 -1.2176,-1.387 -2.5861,-2.6403 -4.0793,-3.732 -4.0706,-4.6422 -9.8283,-7.7996 -16.2895,-8.3716 -20.5818,-3.0404 -34.546,22.3138 -23.7774,38.4328 0,0 -18.9687,16.0944 -37.7186,32.0022 -0.4868,-0.4383 -0.9817,-0.8663 -1.4841,-1.2858 -1.1269,-1.1304 -2.3032,-2.2069 -3.5254,-3.2266 -1.1318,-1.1359 -2.314,-2.2159 -3.5419,-3.2402 -1.1392,-1.1442 -2.329,-2.2328 -3.5657,-3.2638 -1.146,-1.1518 -2.3437,-2.2465 -3.5884,-3.2836 -1.1512,-1.1574 -2.3552,-2.2573 -3.606,-3.299 -1.1592,-1.1663 -2.3714,-2.2749 -3.6318,-3.3238 -1.1627,-1.1701 -2.3787,-2.2812 -3.6432,-3.3331 -1.1722,-1.1807 -2.3985,-2.3016 -3.6742,-3.3621 -1.1751,-1.1839 -2.4043,-2.3083 -3.6835,-3.3714 -1.1836,-1.1934 -2.4232,-2.3254 -3.7124,-3.3961 -1.1899,-1.2004 -2.4354,-2.3396 -3.7321,-3.4159 -1.1954,-1.2063 -2.4474,-2.3512 -3.7507,-3.4323 -1.2003,-1.2121 -2.458,-2.3611 -3.7672,-3.4468 -1.2073,-1.22 -2.4735,-2.3764 -3.7909,-3.4685 -1.2149,-1.2285 -2.4883,-2.3925 -3.8148,-3.4913 -1.2197,-1.2337 -2.4991,-2.4016 -3.8313,-3.5047 -1.2271,-1.2421 -2.5139,-2.4187 -3.855,-3.5285 -1.233,-1.2485 -2.5268,-2.4301 -3.8748,-3.545 -1.2389,-1.2552 -2.5391,-2.4434 -3.8943,-3.5636 -1.2464,-1.2634 -2.555,-2.4596 -3.9191,-3.5863 -1.249,-1.2664 -2.5603,-2.4645 -3.9274,-3.5936 -1.2575,-1.2763 -2.5779,-2.4835 -3.9554,-3.6205 -1.2643,-1.2839 -2.5933,-2.497 -3.979,-3.6401 -1.2689,-1.2891 -2.6025,-2.5074 -3.9936,-3.6545 -1.2777,-1.299 -2.6207,-2.5266 -4.0225,-3.6815 -1.2823,-1.304 -2.6307,-2.536 -4.038,-3.6948 -1.288,-1.3105 -2.6434,-2.5485 -4.0576,-3.7124 -1.2936,-1.317 -2.6543,-2.561 -4.0752,-3.73 -10.4467,-10.6432 -25.3214,-16.5245 -40.1919,-16.6616 z"
         id="path40779"
         inkscape:export-xdpi="96"
         inkscape:export-ydpi="96" />
      <path
         style="fill:#fcea6e;fill-opacity:1;stroke:none;stroke-width:1.92063;stroke-linecap:round;stroke-linejoin:bevel;stroke-miterlimit:4;stroke-dasharray:none;stroke-dashoffset:0;stroke-opacity:1;paint-order:fill markers stroke"
         d="m -2461.0629,-2559.4456 c -11.9448,-4.1863 -19.3959,-12.6093 -21.9651,-24.8301 -2.4638,-11.7189 1.3005,-23.8104 9.7194,-31.221 11.7038,-10.3021 27.1642,-11.2488 40.5724,-2.4846 10.6581,6.9666 16.1399,19.7433 14.0468,32.74 -1.7835,11.0748 -11.2423,21.4375 -23.2208,25.4399 -5.4848,1.8327 -14.4629,1.9995 -19.1527,0.3558 z"
         id="path42090"
         inkscape:connector-curvature="0"
         inkscape:export-xdpi="96"
         inkscape:export-ydpi="96" />
      <path
         style="fill:#ee5041;fill-opacity:1;stroke:none;stroke-width:1.95839;stroke-linecap:round;stroke-linejoin:bevel;stroke-miterlimit:4;stroke-dasharray:none;stroke-dashoffset:0;stroke-opacity:1;paint-order:fill markers stroke"
         d="m -2530.1371,-2670.9952 c -4.9656,-0.4308 -9.0001,-1.5518 -14.9697,-4.1596 -6.4008,-2.7961 -9.9097,-5.2074 -14.4062,-9.8999 -14.9962,-15.6497 -17.7698,-41.7337 -6.3247,-59.4778 2.5397,-3.9376 7.8668,-9.5501 12.0271,-12.6717 5.3673,-4.0273 11.6092,-6.6901 18.8121,-8.0254 3.0935,-0.5735 10.3368,-0.777 13.7471,-0.3863 16.9299,1.9399 31.5702,11.5919 38.0084,25.0582 2.0329,4.252 3.6978,9.3863 4.5113,13.9119 0.6093,3.3907 0.8319,11.3956 0.4102,14.7565 -2.0858,16.6224 -14.7101,31.6026 -32.0718,38.0571 -6.2348,2.3179 -13.5735,3.3724 -19.7438,2.837 z"
         id="path42075"
         inkscape:connector-curvature="0"
         inkscape:export-xdpi="96"
         inkscape:export-ydpi="96" />
      <path
         style="fill:#ffab91;fill-opacity:1;stroke:none;stroke-width:2.26559;stroke-linecap:round;stroke-linejoin:bevel;stroke-miterlimit:4;stroke-dasharray:none;stroke-dashoffset:0;stroke-opacity:1;paint-order:fill markers stroke"
         d="m -2326.5663,-2687.506 c -3.7315,-1.695 -7.8217,-5.9482 -9.2256,-9.5932 -2.4443,-6.3462 0.1351,-15.7745 5.6371,-20.6053 11.0151,-9.6712 29.2029,-1.0864 29.2029,13.7841 0,5.6105 -1.5939,9.1373 -5.8756,13.0009 -5.6438,5.0926 -13.175,6.395 -19.7388,3.4135 z"
         id="path42079"
         inkscape:connector-curvature="0"
         inkscape:export-xdpi="96"
         inkscape:export-ydpi="96" />
      <path
         style="fill:#82c6fc;fill-opacity:1;stroke:none;stroke-width:2.01808;stroke-linecap:round;stroke-linejoin:bevel;stroke-miterlimit:4;stroke-dasharray:none;stroke-dashoffset:0;stroke-opacity:1;paint-order:fill markers stroke"
         d="m -2317.3484,-2526.8299 c -23.915,-6.2445 -39.4233,-25.6951 -40.7254,-51.0785 -0.544,-10.6042 0.5289,-16.14 4.8346,-24.9445 7.8796,-16.1128 20.1793,-25.7051 37.8217,-29.4965 7.8931,-1.6962 20.5472,-0.9949 28.5767,1.5839 22.0642,7.0861 36.7183,28.0242 36.6749,52.4019 -0.036,20.0997 -11.5961,37.6222 -31.2685,47.395 -11.6291,5.7772 -24.1243,7.2171 -35.914,4.1387 z"
         id="path42086"
         inkscape:connector-curvature="0"
         inkscape:export-xdpi="96"
         inkscape:export-ydpi="96" />
      <path
         inkscape:connector-curvature="0"
         style="fill:#e1bee7;fill-opacity:1;stroke:none;stroke-width:1.85208;stroke-linecap:round;stroke-linejoin:bevel;stroke-miterlimit:4;stroke-dasharray:none;stroke-dashoffset:0;stroke-opacity:1;paint-order:fill markers stroke"
         d="m -2366.877,-2427.3156 c -6.7587,0.1522 -12.8877,4.9745 -15.0461,12.3496 -2.3018,7.8654 1.9945,16.176 9.831,19.018 9.7597,3.5395 21.8183,-4.5907 21.796,-14.6947 -0.015,-7.0275 -5.9947,-14.6352 -12.7826,-16.2636 -1.2737,-0.3056 -2.5466,-0.4375 -3.7983,-0.4093 z"
         id="path42092"
         inkscape:export-xdpi="96"
         inkscape:export-ydpi="96" />
      <path
         style="fill:#7986cb;fill-opacity:1;stroke:none;stroke-width:2.00083;stroke-linecap:round;stroke-linejoin:bevel;stroke-miterlimit:4;stroke-dasharray:none;stroke-dashoffset:0;stroke-opacity:1;paint-order:fill markers stroke"
         d="m -2604.5231,-2619.0214 c -10.6359,-4.6123 -12.4619,-19.0984 -3.4093,-27.0467 6.7544,-5.9304 17.3386,-4.2668 22.8631,3.5937 3.204,4.5587 3.7144,11.6402 1.1658,16.1749 -3.9328,6.9974 -13.4888,10.3704 -20.6196,7.2781 z"
         id="path42103"
         inkscape:connector-curvature="0"
         inkscape:export-xdpi="96"
         inkscape:export-ydpi="96" />
      <path
         style="fill:#73c176;fill-opacity:1;stroke:none;stroke-width:1.88257;stroke-linecap:round;stroke-linejoin:bevel;stroke-miterlimit:4;stroke-dasharray:none;stroke-dashoffset:0;stroke-opacity:1;paint-order:fill markers stroke"
         d="m -2586.773,-2440.721 c -4.9247,-0.7594 -13.289,-3.4659 -18.0121,-5.8281 -6.7459,-3.3741 -16.2477,-12.9035 -19.9443,-20.0024 -7.3893,-14.1904 -8.7567,-29.4927 -3.8097,-42.6356 7.4439,-19.7765 25.7504,-32.1647 47.5299,-32.164 16.6905,0 30.0309,6.1255 39.194,17.995 17.7095,22.9399 14.5954,52.9726 -7.3507,70.8937 -5.1615,4.2149 -14.0888,8.7511 -20.3156,10.3229 -4.7315,1.1943 -13.8792,1.9448 -17.2915,1.4185 z"
         id="path42101"
         inkscape:connector-curvature="0"
         inkscape:export-xdpi="96"
         inkscape:export-ydpi="96" />
      <path
         style="color:#000000;font-style:normal;font-variant:normal;font-weight:normal;font-stretch:normal;font-size:medium;line-height:normal;font-family:sans-serif;font-variant-ligatures:normal;font-variant-position:normal;font-variant-caps:normal;font-variant-numeric:normal;font-variant-alternates:normal;font-feature-settings:normal;text-indent:0;text-align:start;text-decoration:none;text-decoration-line:none;text-decoration-style:solid;text-decoration-color:#000000;letter-spacing:normal;word-spacing:normal;text-transform:none;writing-mode:lr-tb;direction:ltr;text-orientation:mixed;dominant-baseline:auto;baseline-shift:baseline;text-anchor:start;white-space:normal;shape-padding:0;clip-rule:nonzero;display:inline;overflow:visible;visibility:visible;isolation:auto;mix-blend-mode:normal;color-interpolation:sRGB;color-interpolation-filters:linearRGB;solid-color:#000000;solid-opacity:1;vector-effect:none;fill:#2e3c43;fill-opacity:1;fill-rule:nonzero;stroke:none;stroke-width:0.79375;stroke-linecap:round;stroke-linejoin:bevel;stroke-miterlimit:4;stroke-dasharray:none;stroke-dashoffset:0;stroke-opacity:1;paint-order:fill markers stroke;color-rendering:auto;image-rendering:auto;shape-rendering:auto;text-rendering:auto;enable-background:accumulate"
         d="m -2527.3602,-2773.6624 c -13.4483,0.2121 -26.7639,5.159 -36.6737,15.535 -28.4596,25.6425 -18.861,76.7122 16.9457,90.2952 14.8705,6.942 31.3138,5.6044 45.1569,-1.1761 l 26.1607,43.7968 c -7.6877,5.1581 -12.8046,12.6197 -15.3664,20.9372 -27.2982,-9.5628 -54.5967,-19.1259 -81.8948,-28.6887 -0.01,-0.2632 0.038,-0.5111 0.026,-0.7772 0.1509,-12.697 -9.812,-23.7119 -22.4565,-24.8357 -22.342,-3.3085 -36.9546,26.8679 -20.53,42.3478 11.9049,13.3436 33.8912,7.6437 40.8409,-6.8812 27.3822,9.5923 54.7647,19.1853 82.1469,28.7775 -0.6372,9.2238 1.5705,18.6289 6.5143,26.4325 -16.3158,12.4594 -32.6309,24.9181 -48.9468,37.3776 -24.0389,-29.65 -74.511,-27.2945 -95.1777,5.2297 -23.3287,31.6944 -6.1091,81.069 31.8565,91.4021 37.1834,12.8783 79.3384,-18.1788 77.8856,-57.5737 1e-4,-10.896 -3.0874,-21.6548 -8.7043,-30.9501 l 49.4574,-37.7672 c 2.5513,2.3538 5.4648,4.4 8.756,6.0338 9.9963,5.9804 21.4299,6.649 31.7552,3.4954 19.2005,39.988 38.4012,79.9767 57.6017,119.9647 -10.3741,8.9227 -13.6715,26.3982 -2.4278,36.9952 14.4977,16.2496 43.9743,4.2618 42.9865,-17.5121 0.151,-12.697 -9.812,-23.7119 -22.4565,-24.8357 -3.2943,-0.4879 -6.3938,-0.1905 -9.278,0.6242 -19.0845,-39.7466 -38.1698,-79.4937 -57.2543,-119.2402 9.5806,-5.4747 17.1834,-14.4005 20.0856,-25.2264 l 45.9062,1.3477 c 0.8009,24.9649 16.8649,49.4895 42.3437,56.4297 37.1856,12.8865 79.3478,-18.1726 77.895,-57.5707 0,-13.4094 -4.6131,-26.6477 -12.9533,-37.1512 -23.3527,-31.7385 -75.678,-29.9136 -96.7941,3.33 -5.5707,7.5714 -8.7809,16.1554 -9.9942,24.9721 l -45.1994,-1.328 c 0,-0.4462 0.058,-0.875 0.039,-1.325 0.1866,-8.2889 -2.2028,-15.7999 -6.2725,-22.131 27.425,-23.2677 54.8502,-46.5357 82.2751,-69.8035 15.2751,10.9583 40.1827,-0.7442 39.272,-20.7977 0.151,-12.6998 -9.8163,-23.716 -22.4647,-24.8357 -20.5819,-3.0403 -34.546,22.3138 -23.7774,38.4328 l -81.6612,69.2826 c -8.127,-7.7341 -19.2377,-12.3218 -30.5521,-12.2049 -4.9589,0.051 -9.9639,1.1179 -14.7588,3.1233 -8.7759,-14.692 -17.5521,-29.3846 -26.3281,-44.0769 13.9863,-10.0867 23.6004,-26.189 22.8555,-44.5564 -0.016,-6.7237 -1.2723,-13.4232 -3.697,-19.697 -7.7995,-22.7099 -30.6439,-35.5755 -53.143,-35.2206 z m 0.2553,10.2175 c 18.4117,-0.1694 37.2733,10.2235 43.4527,28.3042 l 0.072,0.1974 c 2.0202,5.1884 3.0678,10.7776 3.0655,16.3452 l 0.01,0.2109 c 1.2772,30.5603 -34.8803,54.4779 -62.5068,41.4331 l -0.3813,-0.1602 c -28.6315,-10.7278 -36.6383,-53.3316 -13.8245,-73.7072 l 0.2997,-0.2904 c 7.8865,-8.3272 18.7713,-12.2315 29.8184,-12.333 z m 207.0737,44.4437 c 0.7779,-0.025 1.5749,0.022 2.3885,0.1499 l 0.3689,0.044 c 7.2156,0.5875 13.5886,7.629 13.4535,14.8704 l 0.01,0.3638 c 0.6838,12.5973 -17.3754,19.9355 -25.6646,10.4138 l -0.3856,-0.3958 c -9.098,-8.3767 -1.8358,-25.0738 9.833,-25.4466 z m -279.1726,70.1684 c 0.7778,-0.025 1.5759,0.023 2.3895,0.1509 l 0.3689,0.043 c 7.2157,0.5875 13.5876,7.63 13.4524,14.8714 l 0.01,0.3638 c 0.6838,12.5973 -17.3754,19.9356 -25.6646,10.4139 l -0.3844,-0.3959 c -9.0981,-8.3766 -1.8369,-25.0748 9.8319,-25.4475 z m 293.1087,19.5523 c 15.6036,-0.5526 31.4412,5.5105 40.9163,18.4237 l 0.123,0.1602 c 6.9679,8.7345 10.8819,19.9677 10.8541,31.1402 v 0.2025 c 1.2157,32.0175 -34.577,58.3452 -64.7743,47.7615 l -0.3566,-0.1106 c -30.9259,-8.3064 -45.5606,-50.2619 -26.4904,-75.9933 l 0.214,-0.3121 c 8.538,-13.551 23.9072,-20.7196 39.5107,-21.2721 z m -146.0904,6.0461 c 16.8381,-0.1739 33.6179,13.5824 33.0885,32.0187 v 0.3711 c 1.0406,22.9142 -27.6842,39.9284 -47.282,28.0458 l -0.3968,-0.217 c -20.6106,-10.0741 -21.7925,-43.4325 -1.9461,-54.9393 l 0.3141,-0.1984 c 5.0566,-3.4575 10.6064,-5.0229 16.2192,-5.0809 z m -130.576,82.1666 c 15.6036,-0.5526 31.4413,5.5106 40.9164,18.4236 l 0.123,0.1603 c 6.9679,8.7345 10.8819,19.9677 10.8541,31.1402 l 0.01,0.2015 c 1.2157,32.0175 -34.577,58.3462 -64.7743,47.7625 l -0.3566,-0.1106 c -30.9259,-8.3064 -45.5606,-50.2629 -26.4904,-75.9944 l 0.214,-0.3111 c 8.5379,-13.551 23.9071,-20.7194 39.5107,-21.272 z m 215.1156,114.7713 c 0.7779,-0.025 1.5749,0.023 2.3885,0.1509 l 0.369,0.043 c 7.2155,0.5875 13.5886,7.629 13.4534,14.8704 l 0.01,0.3648 c 0.6838,12.5973 -17.3764,19.9345 -25.6656,10.4128 l -0.3845,-0.3948 c -9.098,-8.3767 -1.8358,-25.0749 9.833,-25.4476 z"
         id="path2069-7-5-2"
         inkscape:connector-curvature="0"
         inkscape:export-xdpi="96"
         inkscape:export-ydpi="96" />
    </g>
  </g>
</svg>
