<?xml version="1.0" encoding="UTF-8" standalone="no"?>
<svg
   xmlns:dc="http://purl.org/dc/elements/1.1/"
   xmlns:cc="http://creativecommons.org/ns#"
   xmlns:rdf="http://www.w3.org/1999/02/22-rdf-syntax-ns#"
   xmlns:svg="http://www.w3.org/2000/svg"
   xmlns="http://www.w3.org/2000/svg"
   xmlns:sodipodi="http://sodipodi.sourceforge.net/DTD/sodipodi-0.dtd"
   xmlns:inkscape="http://www.inkscape.org/namespaces/inkscape"
   sodipodi:docname="sist_elt_scalable.svg"
   inkscape:version="1.0 (4035a4fb49, 2020-05-01)"
   id="svg27864"
   version="1.1"
   viewBox="0 0 67.733339 67.733338"
   height="67.733337mm"
   width="67.733337mm">
  <defs
     id="defs27858">
    <clipPath
       clipPathUnits="userSpaceOnUse"
       id="clipPath1698-3">
      <rect
         style="opacity:0.604;fill:#26a10d;fill-opacity:0.985;stroke:#d32f2f;stroke-width:0;stroke-linecap:round;stroke-linejoin:bevel;stroke-miterlimit:4;stroke-dasharray:none;stroke-dashoffset:0;stroke-opacity:0.94;paint-order:fill markers stroke"
         id="rect1700-6"
         width="1200"
         height="772.966"
         x="-29147.879"
         y="19470.865"
         rx="64.06395"
         ry="64.06395" />
    </clipPath>
    <clipPath
       id="clipPath29374"
       clipPathUnits="userSpaceOnUse">
      <rect
         style="opacity:1;fill:#014c77;fill-opacity:1;stroke:none;stroke-width:4.4;stroke-linecap:round;stroke-linejoin:bevel;stroke-miterlimit:4;stroke-dasharray:none;stroke-dashoffset:0;stroke-opacity:1;paint-order:fill markers stroke"
         id="rect29376"
         width="2048"
         height="2048"
         x="-18040.27"
         y="7264.1074" />
    </clipPath>
    <clipPath
       id="clipPath1237"
       clipPathUnits="userSpaceOnUse">
      <g
         id="g1245">
        <rect
           ry="28.853754"
           rx="28.853754"
           y="8911.8291"
           x="-17557.889"
           height="98.791946"
           width="1083.2383"
           id="rect1239"
           style="opacity:1;fill:#e1f5fe;fill-opacity:1;stroke:none;stroke-width:4.4;stroke-linecap:round;stroke-linejoin:bevel;stroke-miterlimit:4;stroke-dasharray:none;stroke-dashoffset:0;stroke-opacity:1;paint-order:fill markers stroke" />
        <rect
           ry="28.8538"
           rx="28.853802"
           y="8984.541"
           x="-17372.984"
           height="66.819221"
           width="713.43213"
           id="rect1241"
           style="opacity:1;fill:#e1f5fe;fill-opacity:1;stroke:none;stroke-width:4.4;stroke-linecap:round;stroke-linejoin:bevel;stroke-miterlimit:4;stroke-dasharray:none;stroke-dashoffset:0;stroke-opacity:1;paint-order:fill markers stroke" />
        <path
           id="path1243"
           d="m -17324.329,8432.3038 c -18.32,0 -33.343,14.4272 -35.635,33.2188 h -0.312 v 5.0019 30.5742 132.9981 c 0,163.6929 123.952,295.4765 277.918,295.4765 h 132.179 c 122.164,0 225.42,-82.9726 262.867,-199.0156 a 129.26388,129.26388 0 0 0 15.041,1.0391 129.26388,129.26388 0 0 0 129.264,-129.2637 129.26388,129.26388 0 0 0 -129.256,-129.2637 v -2.5449 -5.0019 h -0.314 c -2.292,-18.7916 -17.314,-33.2188 -35.633,-33.2188 z m 652.066,103.461 a 66.567536,66.567536 0 0 1 66.561,66.5683 66.567536,66.567536 0 0 1 -66.569,66.5664 66.567536,66.567536 0 0 1 -1.892,-0.094 c 1.242,-11.3827 1.9,-22.9607 1.9,-34.709 z"
           style="opacity:1;fill:#e1f5fe;fill-opacity:1;stroke:none;stroke-width:4.4;stroke-linecap:round;stroke-linejoin:bevel;stroke-miterlimit:4;stroke-dasharray:none;stroke-dashoffset:0;stroke-opacity:1;paint-order:fill markers stroke"
           inkscape:connector-curvature="0" />
      </g>
    </clipPath>
  </defs>
  <sodipodi:namedview
     showguides="false"
     inkscape:snap-global="false"
     inkscape:window-maximized="0"
     inkscape:window-y="24"
     inkscape:window-x="576"
     inkscape:window-height="1025"
     inkscape:window-width="1336"
     fit-margin-bottom="0"
     fit-margin-right="0"
     fit-margin-left="0"
     fit-margin-top="0"
     showgrid="false"
     inkscape:document-rotation="0"
     inkscape:current-layer="layer1"
     inkscape:document-units="mm"
     inkscape:cy="740.98571"
     inkscape:cx="748.78446"
     inkscape:zoom="0.39843748"
     inkscape:pageshadow="2"
     inkscape:pageopacity="0.0"
     borderopacity="1.0"
     bordercolor="#666666"
     pagecolor="#ffffff"
     id="base" />
  <metadata
     id="metadata27861">
    <rdf:RDF>
      <cc:Work
         rdf:about="">
        <dc:format>image/svg+xml</dc:format>
        <dc:type
           rdf:resource="http://purl.org/dc/dcmitype/StillImage" />
        <dc:title></dc:title>
        <cc:license
           rdf:resource="http://creativecommons.org/licenses/by-sa/4.0/" />
      </cc:Work>
      <cc:License
         rdf:about="http://creativecommons.org/licenses/by-sa/4.0/">
        <cc:permits
           rdf:resource="http://creativecommons.org/ns#Reproduction" />
        <cc:permits
           rdf:resource="http://creativecommons.org/ns#Distribution" />
        <cc:requires
           rdf:resource="http://creativecommons.org/ns#Notice" />
        <cc:requires
           rdf:resource="http://creativecommons.org/ns#Attribution" />
        <cc:permits
           rdf:resource="http://creativecommons.org/ns#DerivativeWorks" />
        <cc:requires
           rdf:resource="http://creativecommons.org/ns#ShareAlike" />
      </cc:License>
    </rdf:RDF>
  </metadata>
  <g
     transform="translate(2750.1874,2902.9505)"
     id="layer1"
     inkscape:groupmode="layer"
     inkscape:label="Livello 1">
    <g
       id="g27002"
       inkscape:export-filename="/home/fjall/Icone/PNG/III anno/sist_elt.png"
       inkscape:export-xdpi="96"
       inkscape:export-ydpi="96"
       transform="matrix(0.03307292,0,0,0.03307292,-2568.7458,-3099.754)">
      <rect
         style="fill:#b39ddb;fill-opacity:1;stroke:none;stroke-width:155.05;stroke-linecap:round;stroke-linejoin:round;stroke-miterlimit:4;stroke-dasharray:none;stroke-dashoffset:0;stroke-opacity:1;paint-order:stroke markers fill"
         id="rect1632-6"
         width="2048"
         height="2048"
         x="-5486.1089"
         y="5950.5947"
         rx="0"
         ry="0" />
      <path
         d="m -5060.9395,6526.6797 c -10.04,0 -19.85,1.0207 -29.33,2.9707 -4.74,0.97 -9.391,2.1796 -13.961,3.5996 -4.56,1.42 -9.0189,3.0702 -13.3789,4.9102 -4.36,1.85 -8.62,3.9101 -12.75,6.1601 -4.13,2.25 -8.1415,4.6906 -12.0215,7.3106 v 0.01 c -7.76,5.24 -14.9896,11.2203 -21.5996,17.8203 v 0.01 c -6.6,6.6 -12.5803,13.8298 -17.8203,21.5898 h -0.01 c -2.62,3.88 -5.0586,7.8896 -7.3086,12.0196 -4.5,8.27 -8.2204,17.0108 -11.0704,26.1308 -2.85,9.13 -4.8203,18.6282 -5.8203,28.4082 v 0.012 c -0.5,4.89 -0.7597,9.8491 -0.7597,14.8691 v 481.7207 c 0,4.95 0.27,9.8399 0.75,14.6699 0.14,1.38 0.4293,2.7199 0.6093,4.0899 0.44,3.43 0.8806,6.8492 1.5606,10.1992 0.31,1.52 0.7591,2.9707 1.1191,4.4707 0.74,3.14 1.4702,6.2896 2.4102,9.3496 0.46,1.49 1.0505,2.9206 1.5605,4.3906 1.03,3 2.0498,5.9885 3.2598,8.8985 0.59,1.38 1.2804,2.7103 1.9004,4.0703 1.32,2.91 2.6504,5.8015 4.1504,8.6015 h 0.01 c 0.67,1.26 1.4402,2.4593 2.1602,3.6993 1.61,2.81 3.2491,5.5993 5.0391,8.2793 0.76,1.14 1.6006,2.22 2.3906,3.33 1.9,2.68 3.8187,5.3214 5.8887,7.8614 0.85,1.05 1.7704,2.0286 2.6504,3.0586 2.14,2.48 4.3096,4.9297 6.5996,7.2597 0.97,0.98 1.9807,1.8899 2.9707,2.8399 2.2353,2.1401 4.5009,4.2424 6.8593,6.25 1.3783,1.2794 2.7745,2.5424 4.211,3.7636 1.3425,1.245 2.7016,2.4722 4.1035,3.6621 1.3823,1.2852 2.7819,2.5536 4.2226,3.7735 1.3351,1.2377 2.6864,2.4594 4.0801,3.6426 1.327,1.2308 2.6704,2.4438 4.0547,3.6171 1.3855,1.286 2.7853,2.5555 4.2266,3.7832 1.3815,1.2805 2.7793,2.5454 4.2168,3.7676 1.3198,1.2253 2.6561,2.4337 4.0332,3.5996 1.3589,1.2614 2.7337,2.5024 4.1465,3.7012 1.3631,1.2655 2.7407,2.5143 4.1582,3.7168 1.3506,1.2546 2.7186,2.4912 4.125,3.6836 1.3591,1.2625 2.7346,2.5057 4.1504,3.7051 1.3312,1.2326 2.6773,2.4483 4.0605,3.6269 1.3378,1.2415 2.6901,2.4656 4.0801,3.6465 1.2558,1.1675 2.5278,2.3165 3.834,3.4317 2.2162,31.1293 17.2047,58.8717 39.7207,77.9902 1.343,1.2583 2.7163,2.4833 4.1191,3.6758 1.3588,1.2745 2.7479,2.5174 4.168,3.7246 1.3291,1.2462 2.6885,2.4608 4.0761,3.6426 1.3744,1.2909 2.7816,2.5476 4.2188,3.7695 1.3352,1.2522 2.7013,2.471 4.0957,3.6582 1.3747,1.2907 2.7812,2.5478 4.2188,3.7695 1.3393,1.2554 2.7086,2.4781 4.1074,3.668 1.3252,1.2427 2.6809,2.4541 4.0644,3.6328 1.3855,1.3013 2.8028,2.5696 4.252,3.8008 1.3232,1.2391 2.6773,2.4458 4.0586,3.6211 1.3485,1.2651 2.7278,2.4965 4.1367,3.6953 1.3403,1.2569 2.7114,2.4805 4.1113,3.6719 1.3276,1.2448 2.6842,2.4581 4.0703,3.6386 1.381,1.2963 2.794,2.5585 4.2383,3.7852 1.2968,1.2133 2.6222,2.3967 3.9746,3.5488 1.3437,1.2612 2.7194,2.4884 4.1231,3.6836 1.3654,1.2808 2.7621,2.5275 4.1894,3.7403 1.3107,1.2268 2.6501,2.4216 4.0176,3.5859 1.3304,1.2473 2.689,2.4637 4.0781,3.6465 1.3567,1.2723 2.7463,2.5097 4.1641,3.7148 1.3026,1.2194 2.6314,2.4108 3.9902,3.5684 1.3416,1.2583 2.7139,2.4831 4.1153,3.6758 1.33,1.2462 2.6894,2.4608 4.0781,3.6425 1.3289,1.2451 2.6868,2.46 4.0742,3.6407 1.3235,1.2398 2.677,2.447 4.0586,3.623 1.3287,1.2448 2.687,2.4582 4.0742,3.6387 1.3121,1.2287 2.6524,2.4258 4.0215,3.5918 1.3103,1.2279 2.6503,2.4245 4.0176,3.5898 1.3465,1.2628 2.7222,2.4928 4.1289,3.6895 1.3014,1.218 2.6308,2.4062 3.9883,3.5625 1.336,1.2519 2.7024,2.4713 4.0976,3.6582 1.2776,1.1953 2.5824,2.3621 3.9141,3.498 1.3565,1.2729 2.7445,2.5111 4.1621,3.7168 1.2893,1.2058 2.6069,2.382 3.9512,3.5274 1.3136,1.2309 2.6565,2.4315 4.0273,3.5996 1.3219,1.2383 2.6729,2.4464 4.0527,3.6211 1.3043,1.2208 2.6356,2.4114 3.9961,3.5703 1.3262,1.2417 2.682,2.4513 4.0664,3.6289 1.2664,1.1841 2.5594,2.341 3.879,3.4668 1.3416,1.2582 2.7138,2.4852 4.1152,3.6777 1.289,1.2055 2.6052,2.3823 3.9492,3.5274 1.3174,1.2335 2.6641,2.4352 4.0391,3.6054 1.264,1.1822 2.5541,2.337 3.8711,3.461 1.3448,1.2609 2.7201,2.4886 4.125,3.6836 1.2783,1.1947 2.5836,2.3608 3.916,3.4961 1.2974,1.2143 2.6234,2.3977 3.9765,3.5507 1.2985,1.2152 2.6243,2.401 3.9786,3.5547 1.2869,1.2042 2.6016,2.3776 3.9433,3.5215 1.3064,1.2232 2.641,2.4171 4.0039,3.5781 1.274,1.1916 2.5746,2.3538 3.9024,3.4864 1.3053,1.2221 2.6401,2.4141 4.0019,3.5742 1.2867,1.2037 2.5999,2.378 3.9414,3.5215 1.2785,1.196 2.5854,2.3615 3.918,3.498 1.2951,1.2125 2.618,2.3974 3.9687,3.5488 1.3075,1.2232 2.6438,2.4152 4.0079,3.5762 1.2404,1.1584 2.5056,2.2901 3.7968,3.3926 1.3243,1.2408 2.6782,2.45 4.0606,3.6269 1.2461,1.1639 2.5189,2.3009 3.8164,3.4082 1.2768,1.1956 2.5812,2.3618 3.9121,3.4981 1.3178,1.2341 2.6656,2.4366 4.041,3.6074 1.2478,1.1653 2.5211,2.3034 3.8203,3.4121 1.2959,1.2126 2.6212,2.3955 3.9727,3.5469 1.2518,1.1696 2.5303,2.3112 3.834,3.4238 1.2826,1.2005 2.5925,2.3711 3.9296,3.5117 1.2789,1.196 2.583,2.3636 3.9161,3.5 1.2805,1.1971 2.589,2.3646 3.9238,3.502 1.252,1.1696 2.5301,2.3112 3.834,3.4238 1.2718,1.1896 2.5692,2.3517 3.8945,3.4824 1.2737,1.191 2.575,2.3525 3.9023,3.4844 1.2661,1.1831 2.558,2.3381 3.877,3.4629 1.2664,1.1833 2.5595,2.338 3.8789,3.4629 1.2456,1.1637 2.5156,2.3009 3.8125,3.4082 1.2882,1.205 2.6041,2.3808 3.9473,3.5254 1.2359,1.1537 2.4968,2.2807 3.7832,3.3789 1.283,1.2 2.5941,2.3697 3.9316,3.5098 1.2434,1.1606 2.5122,2.2959 3.8067,3.4004 1.2417,1.1603 2.508,2.2941 3.8007,3.3984 1.269,1.1868 2.5645,2.3445 3.8868,3.4727 1.2683,1.1848 2.5632,2.3404 3.8847,3.4668 1.2231,1.1414 2.4697,2.2565 3.7422,3.3437 1.271,1.1886 2.5681,2.3487 3.8926,3.4785 1.249,1.1663 2.5236,2.3045 3.8242,3.4141 1.2429,1.1608 2.5107,2.2957 3.8047,3.4004 1.2547,1.1722 2.535,2.3166 3.8418,3.4316 1.2332,1.1513 2.492,2.2751 3.7754,3.3711 1.2626,1.1797 2.5499,2.3314 3.8652,3.4531 1.2209,1.1391 2.4663,2.251 3.7363,3.336 1.2359,1.155 2.4968,2.2833 3.7832,3.3828 1.2741,1.1912 2.5746,2.3542 3.9024,3.4863 1.2247,1.1422 2.4739,2.258 3.748,3.3457 1.2427,1.1599 2.5092,2.2927 3.8028,3.3965 1.2286,1.1464 2.4832,2.2658 3.7617,3.3574 1.2424,1.1599 2.5093,2.2927 3.8027,3.3965 1.2191,1.1377 2.4623,2.2503 3.7305,3.334 1.2324,1.1511 2.4908,2.2751 3.7734,3.3711 1.2537,1.1709 2.5323,2.3139 3.8379,3.4277 1.2111,1.1293 2.4456,2.2326 3.7051,3.3086 1.2431,1.1607 2.5105,2.2959 3.8047,3.4004 1.2163,1.1345 2.4575,2.2415 3.7226,3.3223 1.2305,1.1484 2.4852,2.2717 3.7657,3.3652 1.2215,1.1396 2.4675,2.2544 3.7383,3.3398 1.2091,1.1283 2.4418,2.2315 3.6992,3.3067 1.2412,1.1594 2.5066,2.2911 3.7988,3.3945 1.2198,1.1375 2.4635,2.2486 3.7324,3.332 1.2123,1.1308 2.4482,2.2352 3.709,3.3125 1.2352,1.1527 2.4957,2.2778 3.7813,3.375 1.1901,1.109 2.4037,2.1925 3.6406,3.25 1.2261,1.1448 2.4762,2.2634 3.7519,3.3536 1.2185,1.1368 2.4609,2.2491 3.7286,3.332 1.2187,1.1364 2.4607,2.2476 3.7285,3.3301 1.2037,1.1218 2.4301,2.2178 3.6816,3.2871 1.2094,1.1276 2.4416,2.2301 3.6992,3.3047 1.1905,1.1101 2.4033,2.1971 3.6407,3.2558 1.228,1.1466 2.4818,2.2657 3.7597,3.3574 1.2058,1.1238 2.4338,2.224 3.6875,3.295 1.1897,1.1089 2.4024,2.1924 3.6387,3.25 1.2248,1.1428 2.4737,2.2612 3.748,3.3496 1.2018,1.1193 2.4284,2.2123 3.6778,3.2793 1.1825,1.1015 2.3866,2.1797 3.6152,3.2304 1.1927,1.1124 2.4088,2.1991 3.6484,3.2598 1.2062,1.1254 2.4353,2.2262 3.6895,3.2988 1.215,1.133 2.455,2.2391 3.7187,3.3184 1.1807,1.0992 2.3848,2.174 3.6114,3.2227 1.198,1.1168 2.4186,2.2106 3.664,3.2753 1.1967,1.1152 2.4163,2.2064 3.6602,3.2696 1.1685,1.0883 2.3587,2.1526 3.5723,3.1914 1.2314,1.1488 2.488,2.2714 3.7695,3.3652 1.1504,1.0698 2.3217,2.1168 3.5156,3.1387 1.1994,1.1185 2.4211,2.2129 3.668,3.2793 1.1736,1.0935 2.3688,2.1635 3.5879,3.207 1.194,1.1134 2.4113,2.202 3.6523,3.2637 1.1979,1.116 2.4188,2.2075 3.6641,3.2715 1.1634,1.0827 2.3487,2.1421 3.5566,3.1758 1.1954,1.114 2.4137,2.2033 3.6563,3.2656 1.1637,1.0832 2.3483,2.1435 3.5566,3.1777 1.186,1.1052 2.3946,2.1861 3.627,3.2402 1.1774,1.0964 2.3765,2.1688 3.5996,3.2149 1.1798,1.0987 2.3817,2.1724 3.6074,3.2207 1.1611,1.0807 2.3433,2.138 3.5488,3.1699 1.1879,1.1069 2.3984,2.1885 3.6328,3.2442 1.1806,1.0986 2.383,2.1745 3.6094,3.2226 1.1299,1.0507 2.2793,2.0795 3.4512,3.084 1.1863,1.1065 2.3941,2.1887 3.6269,3.2441 1.1878,1.1063 2.3986,2.1891 3.6328,3.2442 1.1504,1.0696 2.3218,2.1169 3.5157,3.1387 1.167,1.0863 2.3564,2.1485 3.5683,3.1855 1.1424,1.0633 2.3048,2.1051 3.4903,3.1211 1.1838,1.1035 2.391,2.1817 3.6211,3.2344 1.1729,1.0915 2.3657,2.1595 3.5839,3.2011 1.1429,1.0625 2.3064,2.1021 3.4922,3.1172 1.1679,1.0871 2.3576,2.1499 3.5703,3.1875 1.1581,1.0771 2.3369,2.1317 3.5391,3.1602 1.1294,1.0502 2.2779,2.0799 3.4492,3.084 1.1791,1.0984 2.3806,2.1727 3.6055,3.2207 1.1458,1.0654 2.313,2.109 3.5019,3.1269 1.1287,1.0499 2.2767,2.0783 3.4473,3.0821 1.1924,1.1111 2.4072,2.1962 3.6465,3.2558 1.1134,1.0341 2.2462,2.0479 3.4004,3.0371 1.1591,1.0794 2.3396,2.1353 3.543,3.166 1.1567,1.0762 2.3344,2.1306 3.5351,3.1582 1.1354,1.0554 2.291,2.089 3.4688,3.0977 1.1408,1.0611 2.3026,2.0993 3.4863,3.1133 1.1279,1.0491 2.2755,2.077 3.4453,3.0801 1.1763,1.0952 2.3738,2.1679 3.5957,3.2128 1.1335,1.0527 2.2872,2.0837 3.4629,3.0899 1.1212,1.0416 2.2613,2.0625 3.4238,3.0586 1.1372,1.0577 2.2949,2.0926 3.4746,3.1035 1.1461,1.0659 2.3127,2.1106 3.502,3.1289 1.1244,1.0447 2.2696,2.0674 3.4355,3.0664 1.1465,1.0661 2.3122,2.1104 3.502,3.1289 1.1175,1.0379 2.2555,2.0541 3.4141,3.0469 1.128,1.0489 2.2752,2.0772 3.4453,3.0801 1.1327,1.0532 2.2859,2.085 3.4609,3.0918 1.1255,1.0462 2.2704,2.0719 3.4375,3.0722 1.1216,1.0426 2.2628,2.0636 3.4258,3.0606 1.1446,1.0641 2.3103,2.1063 3.498,3.123 0.9671,0.8979 1.9554,1.7726 2.9532,2.6368 h 943.7011 v -1141.67 c -0.8023,-0.724 -1.5985,-1.4545 -2.4179,-2.1601 -1.2828,-1.185 -2.5844,-2.3492 -3.9102,-3.4883 -1.2189,-1.1227 -2.4519,-2.2301 -3.707,-3.3125 -1.2655,-1.1702 -2.5481,-2.3218 -3.8555,-3.4473 -1.2792,-1.1811 -2.5784,-2.3418 -3.9004,-3.4785 -1.2544,-1.1589 -2.5263,-2.2981 -3.8203,-3.4121 -1.2743,-1.1779 -2.5658,-2.3371 -3.8809,-3.4688 -1.2471,-1.1516 -2.511,-2.2853 -3.7988,-3.3925 -1.2739,-1.1771 -2.5662,-2.3339 -3.8808,-3.4668 -1.2878,-1.1894 -2.5945,-2.3597 -3.9239,-3.5039 -1.2604,-1.1642 -2.5376,-2.309 -3.8379,-3.4278 -1.2594,-1.1627 -2.5347,-2.3081 -3.834,-3.4277 -1.2919,-1.1936 -2.6035,-2.3655 -3.9375,-3.5137 -1.2575,-1.1618 -2.5307,-2.3052 -3.8281,-3.4218 -1.2864,-1.189 -2.5902,-2.3583 -3.9199,-3.5 -1.2662,-1.1703 -2.5508,-2.3209 -3.8574,-3.4454 -1.2928,-1.1956 -2.6046,-2.3705 -3.9395,-3.5195 -1.2604,-1.1646 -2.5384,-2.3094 -3.8398,-3.4297 -1.2905,-1.1919 -2.5995,-2.3631 -3.9336,-3.5097 -1.2783,-1.182 -2.5751,-2.3441 -3.8945,-3.4805 -1.2911,-1.1938 -2.5995,-2.3683 -3.9336,-3.5156 -1.2669,-1.1699 -2.5513,-2.3212 -3.8575,-3.4454 -1.2894,-1.1913 -2.5986,-2.3636 -3.9316,-3.5097 -1.3017,-1.2025 -2.6226,-2.3866 -3.9688,-3.543 -1.2844,-1.188 -2.588,-2.3555 -3.914,-3.498 -1.2826,-1.1858 -2.5851,-2.3515 -3.9102,-3.4903 -1.2993,-1.202 -2.6171,-2.3841 -3.959,-3.539 -1.2789,-1.1824 -2.5752,-2.3448 -3.8964,-3.4805 -1.3001,-1.2029 -2.6191,-2.3844 -3.9629,-3.5391 -1.3139,-1.2155 -2.6466,-2.4107 -4.0039,-3.5781 -1.2713,-1.1748 -2.5612,-2.3284 -3.8731,-3.457 -1.3073,-1.2099 -2.6343,-2.3997 -3.9863,-3.5625 -1.289,-1.1911 -2.5969,-2.3619 -3.9277,-3.5078 -1.2994,-1.2009 -2.6174,-2.3822 -3.961,-3.5371 -1.3221,-1.224 -2.665,-2.4257 -4.0312,-3.5996 -1.2859,-1.1891 -2.5906,-2.3571 -3.918,-3.5 -1.2967,-1.1998 -2.6124,-2.3803 -3.9531,-3.5333 -1.3186,-1.221 -2.6571,-2.4205 -4.0196,-3.5917 -1.3017,-1.2028 -2.6226,-2.3844 -3.9687,-3.5411 -1.3201,-1.2208 -2.6594,-2.4204 -4.0234,-3.5937 -1.2985,-1.2013 -2.6161,-2.3821 -3.9571,-3.5352 -1.3204,-1.2223 -2.6617,-2.4232 -4.0273,-3.5957 -1.3079,-1.2101 -2.6361,-2.3993 -3.9883,-3.5605 -1.3074,-1.2089 -2.6339,-2.3982 -3.9844,-3.5606 -1.3191,-1.2201 -2.6573,-2.419 -4.0215,-3.5918 -1.3089,-1.2106 -2.6354,-2.4007 -3.9863,-3.5625 -1.3238,-1.2244 -2.6673,-2.4287 -4.0371,-3.6054 -1.3212,-1.2216 -2.6624,-2.4236 -4.0293,-3.5977 -1.3284,-1.2294 -2.6772,-2.4364 -4.0488,-3.6172 -1.3327,-1.2333 -2.6859,-2.4444 -4.0645,-3.6269 -1.302,-1.2051 -2.6221,-2.3905 -3.9668,-3.5489 -1.3245,-1.2249 -2.6685,-2.4283 -4.039,-3.6054 -1.3297,-1.2303 -2.6793,-2.4391 -4.0547,-3.6211 -1.3357,-1.2369 -2.6917,-2.4509 -4.0723,-3.6367 -1.3103,-1.2118 -2.6386,-2.4034 -3.9922,-3.5684 -1.3406,-1.2405 -2.7021,-2.4588 -4.0898,-3.6504 -1.329,-1.2308 -2.6773,-2.4408 -4.0508,-3.6211 -1.3481,-1.2488 -2.7174,-2.4751 -4.1113,-3.6719 -1.3156,-1.2164 -2.6499,-2.411 -4.0078,-3.5781 -1.3304,-1.2303 -2.679,-2.4389 -4.0528,-3.6211 -1.3578,-1.2574 -2.7363,-2.494 -4.1406,-3.7011 -1.3339,-1.2351 -2.6877,-2.4487 -4.0664,-3.6329 -1.3573,-1.2572 -2.7369,-2.4895 -4.1406,-3.6953 -1.3236,-1.2248 -2.6675,-2.4276 -4.0352,-3.6035 -1.3326,-1.2343 -2.6851,-2.4473 -4.0625,-3.6308 -1.3323,-1.2329 -2.6856,-2.4464 -4.0644,-3.6309 -1.3588,-1.2594 -2.7394,-2.4965 -4.1465,-3.7031 -1.346,-1.2461 -2.7132,-2.4686 -4.1035,-3.6641 -1.3594,-1.2598 -2.7406,-2.4963 -4.1485,-3.7051 -1.3514,-1.2515 -2.7224,-2.4811 -4.1211,-3.6816 -1.3362,-1.2373 -2.693,-2.4525 -4.0742,-3.6387 -1.3538,-1.2546 -2.7289,-2.4853 -4.1289,-3.6875 -1.3457,-1.2471 -2.7128,-2.4715 -4.1055,-3.668 -1.3744,-1.2741 -2.7713,-2.524 -4.1953,-3.746 -1.343,-1.2442 -2.7079,-2.4659 -4.0976,-3.6602 -1.3288,-1.2295 -2.6777,-2.4377 -4.0528,-3.6191 -1.3827,-1.2816 -2.7877,-2.5402 -4.2207,-3.7696 -1.3628,-1.2632 -2.7466,-2.5028 -4.1562,-3.7129 -1.3544,-1.254 -2.7296,-2.4846 -4.1289,-3.6875 -1.3789,-1.2786 -2.7803,-2.5323 -4.2071,-3.7578 -1.351,-1.2489 -2.7214,-2.4765 -4.1171,-3.6758 -1.3551,-1.2564 -2.7295,-2.4901 -4.1309,-3.6953 -2.0649,-1.9126 -4.1794,-3.7759 -6.3555,-5.5722 -18.01,-14.88 -39.6398,-25.5187 -63.3398,-30.3887 -9.48,-1.95 -19.2901,-2.9707 -29.3301,-2.9707 z"
         style="color:#000000;font-style:normal;font-variant:normal;font-weight:normal;font-stretch:normal;font-size:medium;line-height:normal;font-family:sans-serif;font-variant-ligatures:normal;font-variant-position:normal;font-variant-caps:normal;font-variant-numeric:normal;font-variant-alternates:normal;font-variant-east-asian:normal;font-feature-settings:normal;font-variation-settings:normal;text-indent:0;text-align:start;text-decoration:none;text-decoration-line:none;text-decoration-style:solid;text-decoration-color:#000000;letter-spacing:normal;word-spacing:normal;text-transform:none;writing-mode:lr-tb;direction:ltr;text-orientation:mixed;dominant-baseline:auto;baseline-shift:baseline;text-anchor:start;white-space:normal;shape-padding:0;shape-margin:0;inline-size:0;clip-rule:nonzero;display:inline;overflow:visible;visibility:visible;isolation:auto;mix-blend-mode:normal;color-interpolation:sRGB;color-interpolation-filters:linearRGB;solid-color:#000000;solid-opacity:1;vector-effect:none;fill:#000001;fill-opacity:0.184314;fill-rule:nonzero;stroke:none;stroke-width:53;stroke-linecap:round;stroke-linejoin:round;stroke-miterlimit:4.32143;stroke-dasharray:none;stroke-dashoffset:0;stroke-opacity:1;paint-order:stroke fill markers;color-rendering:auto;image-rendering:auto;shape-rendering:auto;text-rendering:auto;enable-background:accumulate;stop-color:#000000"
         id="path12761" />
      <path
         id="path11870"
         d="m -5060.9395,6526.6758 c -10.0404,0 -19.85,1.0231 -29.3281,2.9707 -4.7399,0.974 -9.3968,2.1796 -13.959,3.6035 -4.5616,1.4237 -9.0275,3.0652 -13.3867,4.9141 -4.3591,1.8488 -8.6122,3.905 -12.7441,6.1543 -4.1315,2.2489 -8.1439,4.6918 -12.0235,7.3164 -7.7599,5.2496 -14.9919,11.2263 -21.5957,17.83 -6.6038,6.6038 -12.5784,13.8339 -17.8281,21.5938 -2.6255,3.8807 -5.0687,7.8927 -7.3183,12.0254 -4.4986,8.2638 -8.2209,17.0057 -11.0684,26.1289 -2.8475,9.1231 -4.8197,18.6275 -5.8184,28.4121 -0.4993,4.8923 -0.7558,9.8545 -0.7558,14.875 v 481.7168 c 0,4.953 0.2607,9.8471 0.7461,14.6758 0.1391,1.3816 0.4278,2.7157 0.6054,4.0859 0.4437,3.4278 0.8879,6.855 1.5664,10.2051 0.3069,1.5125 0.7598,2.9675 1.1133,4.4629 0.7422,3.1448 1.4713,6.2919 2.4141,9.3555 0.4594,1.4904 1.051,2.9187 1.5566,4.3886 1.0289,2.9957 2.0523,5.9916 3.2676,8.8965 0.581,1.3868 1.2742,2.7094 1.8965,4.0742 1.3224,2.9043 2.6506,5.8021 4.1543,8.6016 0.6775,1.2598 1.449,2.4559 2.1621,3.6933 1.6164,2.8083 3.2509,5.5999 5.0449,8.2872 0.761,1.1387 1.6007,2.214 2.3926,3.33 1.8946,2.6728 3.8152,5.3193 5.8809,7.8555 0.8546,1.0485 1.7753,2.0344 2.6582,3.0586 2.1374,2.4813 4.3025,4.9295 6.5996,7.2617 0.9618,0.9761 1.9801,1.889 2.9687,2.8379 2.347,2.2535 4.724,4.4664 7.2168,6.5606 1.0744,0.9024 2.1966,1.7414 3.2969,2.6132 2.5068,1.9864 5.0417,3.9268 7.6777,5.7481 1.2349,0.8534 2.5096,1.643 3.7715,2.459 2.6129,1.6889 5.2509,3.3287 7.9746,4.8515 1.3943,0.7801 2.8224,1.4953 4.2442,2.2305 2.6841,1.3867 5.3903,2.7219 8.1679,3.9434 1.5738,0.6929 3.1753,1.3207 4.7774,1.9589 2.703,1.0754 5.4237,2.0986 8.2031,3.0137 1.7869,0.5896 3.5958,1.1134 5.4121,1.6348 2.4903,0.7131 4.9867,1.3949 7.5293,1.9765 v 16.3477 c 0,62.0811 50.8072,112.8867 112.8887,112.8867 h 146.3144 c 62.0808,0 112.8848,-50.8066 112.8848,-112.8867 v -12.584 h 518.5371 v 12.584 c 0,62.0811 50.8072,112.8867 112.8887,112.8867 h 146.3144 c 62.0808,0 112.8848,-50.8066 112.8848,-112.8867 v -16.3457 c 2.5539,-0.5841 5.0614,-1.2695 7.5625,-1.9863 1.7984,-0.5167 3.5898,-1.0356 5.3594,-1.6192 2.796,-0.9201 5.533,-1.9489 8.2519,-3.0312 1.5875,-0.6329 3.1747,-1.2549 4.7344,-1.9414 2.791,-1.2269 5.5104,-2.5672 8.207,-3.961 1.4105,-0.7296 2.8276,-1.439 4.211,-2.2129 2.7375,-1.5302 5.3881,-3.1808 8.0136,-4.8789 1.2456,-0.8058 2.5054,-1.5834 3.7246,-2.4257 2.6444,-1.8264 5.1869,-3.7732 7.7012,-5.7657 1.1009,-0.8723 2.2219,-1.7141 3.2969,-2.6172 2.4844,-2.0874 4.8538,-4.2914 7.1934,-6.5371 0.9951,-0.9548 2.0203,-1.8731 2.9882,-2.8554 2.2951,-2.3304 4.46,-4.7767 6.5957,-7.2559 0.8838,-1.0252 1.8047,-2.0129 2.6602,-3.0625 2.0656,-2.5361 3.9863,-5.1827 5.8809,-7.8555 0.7918,-1.116 1.6315,-2.1913 2.3925,-3.33 1.7941,-2.6873 3.4285,-5.4789 5.045,-8.2872 0.7131,-1.2374 1.4845,-2.4335 2.1621,-3.6933 1.5093,-2.81 2.8432,-5.7172 4.1699,-8.6328 0.6158,-1.3515 1.3036,-2.6603 1.8789,-4.0332 1.2244,-2.9263 2.2538,-5.9446 3.2891,-8.9629 0.4976,-1.4488 1.0823,-2.8555 1.5351,-4.3242 0.9456,-3.0722 1.678,-6.2289 2.4219,-9.3828 0.3517,-1.4889 0.8019,-2.9376 1.1074,-4.4434 0.6785,-3.3501 1.1227,-6.7773 1.5664,-10.2051 0.1777,-1.3702 0.4664,-2.7043 0.6055,-4.0859 0.4853,-4.8288 0.7461,-9.7227 0.7461,-14.6758 V 6672.5 c 0,-5.0205 -0.2566,-9.9827 -0.7559,-14.875 -0.9986,-9.7846 -2.9708,-19.289 -5.8183,-28.4121 -2.8475,-9.1231 -6.57,-17.8651 -11.0684,-26.1289 -2.2488,-4.1311 -4.6921,-8.1442 -7.3164,-12.0235 -5e-4,-7e-4 0,0 0,0 -5.2496,-7.7599 -11.2243,-14.99 -17.8281,-21.5938 -3.3025,-3.3025 -6.7612,-6.4475 -10.3652,-9.4238 -18.0165,-14.8786 -39.6455,-25.525 -63.3418,-30.3945 -9.4786,-1.9478 -19.2872,-2.9707 -29.3281,-2.9707 z m 0,53 h 1197.6622 c 3.2426,0 6.4419,0.1601 9.5918,0.4726 8.6144,0.8548 16.8155,2.9283 24.5312,5.9161 6.3899,2.4744 12.4612,5.5512 18.0469,9.3007 4.9322,3.3109 9.5171,7.0874 13.6972,11.2676 2.0901,2.0901 4.0789,4.281 5.959,6.5664 3.7602,4.5709 7.0856,9.5169 9.918,14.7813 2.8323,5.2643 5.1717,10.8468 6.959,16.6875 1.7873,5.8406 3.0234,11.9385 3.6484,18.2382 1e-4,7e-4 0,0 0,0 0.3124,3.1493 0.4727,6.3498 0.4727,9.5918 v 481.7168 c 0,3.1911 -0.1621,6.3381 -0.4649,9.4394 -0.1217,1.2434 -0.3642,2.4446 -0.5332,3.6719 -0.2499,1.8209 -0.4613,3.6563 -0.8125,5.4395 -0.3122,1.5812 -0.7527,3.1088 -1.1425,4.6582 -0.3438,1.3698 -0.6344,2.762 -1.0372,4.1054 -0.5071,1.6876 -1.1345,3.3157 -1.7324,4.959 -0.4154,1.1446 -0.782,2.3136 -1.2402,3.4356 -0.711,1.7369 -1.535,3.4099 -2.3457,5.0898 -0.459,0.9531 -0.8751,1.9314 -1.3653,2.8653 -0.9403,1.788 -1.9858,3.5065 -3.0371,5.2207 -0.4582,0.7485 -0.8806,1.522 -1.3593,2.2558 -1.1609,1.7763 -2.42,3.4777 -3.6973,5.1641 -0.462,0.6107 -0.8963,1.2433 -1.3731,1.8418 -1.3341,1.6725 -2.7572,3.2669 -4.2031,4.8398 -0.5101,0.5556 -0.9959,1.1332 -1.5195,1.6758 -1.4877,1.5403 -3.0561,2.999 -4.6484,4.4316 -0.5535,0.4982 -1.0887,1.0153 -1.6543,1.5 -1.6092,1.3784 -3.2901,2.6736 -4.9942,3.9395 -0.6341,0.471 -1.2536,0.9592 -1.9004,1.4141 -1.6828,1.1838 -3.4285,2.2838 -5.1933,3.3554 -0.7478,0.4537 -1.4861,0.9206 -2.2481,1.3535 -1.7203,0.9784 -3.4921,1.8748 -5.2812,2.7442 -0.8853,0.4295 -1.7646,0.8675 -2.666,1.2695 -1.7211,0.769 -3.485,1.4608 -5.2618,2.127 -1.0491,0.3923 -2.0963,0.7871 -3.164,1.1425 -1.6832,0.5621 -3.3985,1.0554 -5.125,1.5235 -1.2428,0.3356 -2.4897,0.6616 -3.7539,0.9473 -1.614,0.3664 -3.2501,0.6741 -4.8965,0.957 -1.4339,0.2448 -2.8749,0.4684 -4.332,0.6484 -1.5576,0.194 -3.1309,0.339 -4.7129,0.4571 -2.3598,0.1736 -4.7189,0.3515 -7.1289,0.3515 h -312.9981 -571.6035 -313.0606 c -2.4082,0 -4.7668,-0.1781 -7.125,-0.3515 -1.5941,-0.1189 -3.1787,-0.265 -4.748,-0.461 -1.4335,-0.1775 -2.8508,-0.3984 -4.2617,-0.6387 -1.67,-0.2862 -3.3303,-0.5986 -4.9668,-0.9707 -1.2477,-0.2823 -2.4783,-0.6045 -3.7051,-0.9355 -1.7318,-0.4691 -3.4525,-0.9618 -5.1406,-1.5254 -1.0737,-0.3574 -2.1268,-0.7538 -3.1817,-1.1484 -1.7725,-0.6649 -3.5309,-1.3558 -5.248,-2.1231 -0.9001,-0.4014 -1.7781,-0.8387 -2.6621,-1.2676 -1.7934,-0.8713 -3.5707,-1.7711 -5.2949,-2.7519 -0.7541,-0.4285 -1.4845,-0.891 -2.2246,-1.3399 -1.7702,-1.0743 -3.5195,-2.176 -5.2071,-3.3632 -0.6468,-0.4549 -1.2663,-0.9431 -1.9004,-1.4141 -1.7041,-1.2659 -3.385,-2.5611 -4.9941,-3.9395 -0.5625,-0.482 -1.0941,-0.9968 -1.6445,-1.4921 -1.5999,-1.4391 -3.1758,-2.9056 -4.67,-4.4532 -0.5117,-0.5304 -0.9875,-1.0939 -1.4863,-1.6367 -1.4499,-1.5761 -2.8772,-3.1734 -4.2148,-4.8496 -0.4947,-0.6207 -0.9432,-1.2782 -1.4219,-1.9121 -1.2626,-1.6694 -2.5077,-3.352 -3.6563,-5.1094 -0.4759,-0.7294 -0.8959,-1.4982 -1.3515,-2.2422 -1.0563,-1.7215 -2.1084,-3.4479 -3.0528,-5.2441 -0.4812,-0.9173 -0.8886,-1.8787 -1.3398,-2.8145 -0.8182,-1.6933 -1.6484,-3.3795 -2.3652,-5.1308 -0.4582,-1.122 -0.8248,-2.291 -1.2403,-3.4356 -0.5978,-1.6433 -1.2252,-3.2714 -1.7324,-4.959 -0.4027,-1.3434 -0.6934,-2.7356 -1.0371,-4.1054 -0.3898,-1.5493 -0.8303,-3.077 -1.1426,-4.6582 -0.3511,-1.7832 -0.5625,-3.6186 -0.8125,-5.4395 -0.1689,-1.2272 -0.4114,-2.4285 -0.5332,-3.6719 -0.3028,-3.1013 -0.4648,-6.2483 -0.4648,-9.4394 V 6672.5 c 0,-3.242 0.1602,-6.4425 0.4726,-9.5918 10e-5,-6e-4 0,0 0,0 0.6251,-6.2997 1.8612,-12.3976 3.6485,-18.2382 1.7873,-5.8407 4.1266,-11.4232 6.959,-16.6875 4.2483,-7.8961 9.607,-15.0777 15.8769,-21.3477 4.1803,-4.1802 8.7649,-7.9566 13.6973,-11.2676 4.9323,-3.3109 10.212,-6.1579 15.7793,-8.4824 8.3503,-3.4865 17.3498,-5.7966 26.7988,-6.7344 3.1499,-0.3125 6.351,-0.4726 9.5937,-0.4726 z m 112.67,62.6113 c -83.5928,0 -151.7168,68.1256 -151.7168,151.7188 v 238.705 c 0,83.5928 68.124,151.7168 151.7168,151.7168 h 415.4824 c 83.5935,0 151.7168,-68.124 151.7168,-151.7168 v -238.705 c 0,-83.5932 -68.1233,-151.7188 -151.7168,-151.7188 z m 925.3359,30.1191 c -48.6055,9e-4 -88.5762,39.9705 -88.5762,88.5762 1e-4,48.6064 39.9718,88.5784 88.5782,88.5781 48.6054,-8e-4 88.5761,-39.9724 88.5761,-88.5781 1e-4,-48.6057 -39.9706,-88.5753 -88.5761,-88.5762 z m -925.3359,22.8809 h 415.4824 c 55.1484,0 98.7168,43.5708 98.7168,98.7188 v 238.705 c 0,55.1473 -43.5683,98.7168 -98.7168,98.7168 h -415.4824 c -55.1473,0 -98.7168,-43.5695 -98.7168,-98.7168 v -238.705 c 0,-55.148 43.5695,-98.7188 98.7168,-98.7188 z m 925.3359,30.1191 c 19.9629,-1e-4 35.5761,15.6132 35.5761,35.5762 0,19.963 -15.6132,35.5783 -35.5761,35.5781 -19.9629,2e-4 -35.5761,-15.6151 -35.5762,-35.5781 0,-19.963 15.6132,-35.5763 35.5762,-35.5762 z m -687.5176,45.6368 a 26.50265,26.50265 0 0 0 -23.0117,13.5097 l -103.2793,183.6856 -16.3066,-29.002 a 26.50265,26.50265 0 0 0 -23.0996,-13.5117 h -123.5996 a 26.5,26.5 0 0 0 -26.5,26.5 26.5,26.5 0 0 0 26.5,26.5 h 108.0976 l 31.8086,56.5723 a 26.50265,26.50265 0 0 0 46.1992,0 l 103.2793,-183.6875 67.1738,119.4746 a 26.50265,26.50265 0 0 0 23.0997,13.5117 h 118.1777 a 26.5,26.5 0 0 0 26.5,-26.5 26.5,26.5 0 0 0 -26.5,-26.5 h -102.6758 l -82.6777,-147.043 a 26.50265,26.50265 0 0 0 -23.1856,-13.5097 z m 687.5176,206.1132 c -48.6051,9e-4 -88.5756,39.9708 -88.5762,88.5762 -2e-4,48.6066 39.9716,88.5784 88.5782,88.5781 48.6056,-8e-4 88.5764,-39.9722 88.5761,-88.5781 -5e-4,-48.6054 -39.971,-88.5753 -88.5761,-88.5762 z m 0,53 c 19.9628,-1e-4 35.5759,15.6134 35.5761,35.5762 1e-4,19.9631 -15.6131,35.5783 -35.5761,35.5781 -19.963,2e-4 -35.5763,-15.615 -35.5762,-35.5781 2e-4,-19.9628 15.6134,-35.5763 35.5762,-35.5762 z m -1017.5332,269.8848 h 266.0879 v 12.584 c 0,33.6359 -26.2495,59.8867 -59.8848,59.8867 h -146.3144 c -33.6365,0 -59.8887,-26.2518 -59.8887,-59.8867 z m 890.625,0 h 266.0879 v 12.584 c 0,33.6359 -26.2495,59.8867 -59.8848,59.8867 h -146.3144 c -33.6365,0 -59.8887,-26.2518 -59.8887,-59.8867 z"
         style="color:#000000;font-style:normal;font-variant:normal;font-weight:normal;font-stretch:normal;font-size:medium;line-height:normal;font-family:sans-serif;font-variant-ligatures:normal;font-variant-position:normal;font-variant-caps:normal;font-variant-numeric:normal;font-variant-alternates:normal;font-variant-east-asian:normal;font-feature-settings:normal;font-variation-settings:normal;text-indent:0;text-align:start;text-decoration:none;text-decoration-line:none;text-decoration-style:solid;text-decoration-color:#000000;letter-spacing:normal;word-spacing:normal;text-transform:none;writing-mode:lr-tb;direction:ltr;text-orientation:mixed;dominant-baseline:auto;baseline-shift:baseline;text-anchor:start;white-space:normal;shape-padding:0;shape-margin:0;inline-size:0;clip-rule:nonzero;display:inline;overflow:visible;visibility:visible;opacity:1;isolation:auto;mix-blend-mode:normal;color-interpolation:sRGB;color-interpolation-filters:linearRGB;solid-color:#000000;solid-opacity:1;vector-effect:none;fill:#263238;fill-opacity:1;fill-rule:nonzero;stroke:none;stroke-width:53;stroke-linecap:round;stroke-linejoin:round;stroke-miterlimit:4.32143;stroke-dasharray:none;stroke-dashoffset:0;stroke-opacity:1;paint-order:stroke fill markers;color-rendering:auto;image-rendering:auto;shape-rendering:auto;text-rendering:auto;enable-background:accumulate;stop-color:#000000;stop-opacity:1" />
    </g>
  </g>
</svg>
