<?xml version="1.0" encoding="UTF-8" standalone="no"?>
<svg
   xmlns:dc="http://purl.org/dc/elements/1.1/"
   xmlns:cc="http://creativecommons.org/ns#"
   xmlns:rdf="http://www.w3.org/1999/02/22-rdf-syntax-ns#"
   xmlns:svg="http://www.w3.org/2000/svg"
   xmlns="http://www.w3.org/2000/svg"
   xmlns:sodipodi="http://sodipodi.sourceforge.net/DTD/sodipodi-0.dtd"
   xmlns:inkscape="http://www.inkscape.org/namespaces/inkscape"
   width="67.733337mm"
   height="67.733337mm"
   viewBox="0 0 67.733338 67.733338"
   version="1.1"
   id="svg27864"
   inkscape:version="1.0 (4035a4fb49, 2020-05-01)"
   sodipodi:docname="sist_op_scalable.svg">
  <defs
     id="defs27858">
    <clipPath
       id="clipPath1698-3"
       clipPathUnits="userSpaceOnUse">
      <rect
         ry="64.06395"
         rx="64.06395"
         y="19470.865"
         x="-29147.879"
         height="772.966"
         width="1200"
         id="rect1700-6"
         style="opacity:0.604;fill:#26a10d;fill-opacity:0.985;stroke:#d32f2f;stroke-width:0;stroke-linecap:round;stroke-linejoin:bevel;stroke-miterlimit:4;stroke-dasharray:none;stroke-dashoffset:0;stroke-opacity:0.94;paint-order:fill markers stroke" />
    </clipPath>
    <clipPath
       clipPathUnits="userSpaceOnUse"
       id="clipPath29374">
      <rect
         y="7264.1074"
         x="-18040.27"
         height="2048"
         width="2048"
         id="rect29376"
         style="opacity:1;fill:#014c77;fill-opacity:1;stroke:none;stroke-width:4.4;stroke-linecap:round;stroke-linejoin:bevel;stroke-miterlimit:4;stroke-dasharray:none;stroke-dashoffset:0;stroke-opacity:1;paint-order:fill markers stroke" />
    </clipPath>
    <clipPath
       clipPathUnits="userSpaceOnUse"
       id="clipPath1237">
      <g
         id="g1245">
        <rect
           style="opacity:1;fill:#e1f5fe;fill-opacity:1;stroke:none;stroke-width:4.4;stroke-linecap:round;stroke-linejoin:bevel;stroke-miterlimit:4;stroke-dasharray:none;stroke-dashoffset:0;stroke-opacity:1;paint-order:fill markers stroke"
           id="rect1239"
           width="1083.2383"
           height="98.791946"
           x="-17557.889"
           y="8911.8291"
           rx="28.853754"
           ry="28.853754" />
        <rect
           style="opacity:1;fill:#e1f5fe;fill-opacity:1;stroke:none;stroke-width:4.4;stroke-linecap:round;stroke-linejoin:bevel;stroke-miterlimit:4;stroke-dasharray:none;stroke-dashoffset:0;stroke-opacity:1;paint-order:fill markers stroke"
           id="rect1241"
           width="713.43213"
           height="66.819221"
           x="-17372.984"
           y="8984.541"
           rx="28.853802"
           ry="28.8538" />
        <path
           inkscape:connector-curvature="0"
           style="opacity:1;fill:#e1f5fe;fill-opacity:1;stroke:none;stroke-width:4.4;stroke-linecap:round;stroke-linejoin:bevel;stroke-miterlimit:4;stroke-dasharray:none;stroke-dashoffset:0;stroke-opacity:1;paint-order:fill markers stroke"
           d="m -17324.329,8432.3038 c -18.32,0 -33.343,14.4272 -35.635,33.2188 h -0.312 v 5.0019 30.5742 132.9981 c 0,163.6929 123.952,295.4765 277.918,295.4765 h 132.179 c 122.164,0 225.42,-82.9726 262.867,-199.0156 a 129.26388,129.26388 0 0 0 15.041,1.0391 129.26388,129.26388 0 0 0 129.264,-129.2637 129.26388,129.26388 0 0 0 -129.256,-129.2637 v -2.5449 -5.0019 h -0.314 c -2.292,-18.7916 -17.314,-33.2188 -35.633,-33.2188 z m 652.066,103.461 a 66.567536,66.567536 0 0 1 66.561,66.5683 66.567536,66.567536 0 0 1 -66.569,66.5664 66.567536,66.567536 0 0 1 -1.892,-0.094 c 1.242,-11.3827 1.9,-22.9607 1.9,-34.709 z"
           id="path1243" />
      </g>
    </clipPath>
  </defs>
  <sodipodi:namedview
     id="base"
     pagecolor="#ffffff"
     bordercolor="#666666"
     borderopacity="1.0"
     inkscape:pageopacity="0.0"
     inkscape:pageshadow="2"
     inkscape:zoom="0.79687496"
     inkscape:cx="153.67886"
     inkscape:cy="280.54631"
     inkscape:document-units="mm"
     inkscape:current-layer="layer1"
     inkscape:document-rotation="0"
     showgrid="false"
     fit-margin-top="0"
     fit-margin-left="0"
     fit-margin-right="0"
     fit-margin-bottom="0"
     inkscape:window-width="1336"
     inkscape:window-height="1029"
     inkscape:window-x="576"
     inkscape:window-y="24"
     inkscape:window-maximized="0"
     inkscape:snap-global="false" />
  <metadata
     id="metadata27861">
    <rdf:RDF>
      <cc:Work
         rdf:about="">
        <dc:format>image/svg+xml</dc:format>
        <dc:type
           rdf:resource="http://purl.org/dc/dcmitype/StillImage" />
        <dc:title />
        <cc:license
           rdf:resource="http://creativecommons.org/licenses/by-sa/4.0/" />
      </cc:Work>
      <cc:License
         rdf:about="http://creativecommons.org/licenses/by-sa/4.0/">
        <cc:permits
           rdf:resource="http://creativecommons.org/ns#Reproduction" />
        <cc:permits
           rdf:resource="http://creativecommons.org/ns#Distribution" />
        <cc:requires
           rdf:resource="http://creativecommons.org/ns#Notice" />
        <cc:requires
           rdf:resource="http://creativecommons.org/ns#Attribution" />
        <cc:permits
           rdf:resource="http://creativecommons.org/ns#DerivativeWorks" />
        <cc:requires
           rdf:resource="http://creativecommons.org/ns#ShareAlike" />
      </cc:License>
    </rdf:RDF>
  </metadata>
  <g
     inkscape:label="Livello 1"
     inkscape:groupmode="layer"
     id="layer1"
     transform="translate(2698.3908,2807.3265)">
    <g
       inkscape:export-ydpi="768"
       inkscape:export-xdpi="768"
       inkscape:export-filename="/home/fjall/Icone/PNG/III anno/sist_op.png"
       id="g30242"
       transform="matrix(0.03307292,0,0,0.03307292,-2330.8147,-2728.798)">
      <rect
         y="-2374.4041"
         x="-11114.109"
         height="2048"
         width="2048"
         id="rect1152"
         style="fill:#f44336;fill-opacity:1;stroke:none;stroke-width:0;stroke-linecap:round;stroke-linejoin:bevel;stroke-miterlimit:4;stroke-dasharray:none;stroke-dashoffset:0;stroke-opacity:1;paint-order:fill markers stroke" />
      <path
         id="path1472"
         d="m -10681.818,-1902.9557 c -67.304,4e-4 -121.49,54.1853 -121.49,121.4903 v 868.6484 c 0,36.6286 16.052,69.3674 41.529,91.6055 1.174,1.1095 2.367,2.1974 3.584,3.2598 1.165,1.1016 2.353,2.1793 3.561,3.2343 1.171,1.1076 2.364,2.1914 3.578,3.252 1.181,1.1174 2.386,2.2098 3.611,3.2793 1.151,1.088 2.323,2.1546 3.516,3.1972 1.178,1.1148 2.379,2.2044 3.602,3.2715 1.16,1.0972 2.341,2.1717 3.544,3.2227 1.164,1.1008 2.35,2.178 3.557,3.2324 1.166,1.1034 2.355,2.1835 3.565,3.2402 1.176,1.1125 2.375,2.2007 3.595,3.2657 1.15,1.0868 2.32,2.1519 3.512,3.1933 1.155,1.0921 2.332,2.1607 3.529,3.2071 1.158,1.0951 2.339,2.1657 3.539,3.2148 1.173,1.1091 2.366,2.1959 3.582,3.2578 1.148,1.0848 2.318,2.146 3.508,3.1856 1.149,1.086 2.319,2.1486 3.51,3.1894 1.175,1.1116 2.373,2.1994 3.592,3.2637 1.136,1.0731 2.291,2.1254 3.468,3.1543 1.152,1.0886 2.325,2.1541 3.518,3.1972 1.166,1.1023 2.354,2.1807 3.563,3.2364 1.141,1.0782 2.303,2.1343 3.486,3.1679 1.139,1.077 2.3,2.1316 3.48,3.1641 1.161,1.0983 2.345,2.1726 3.549,3.2246 1.146,1.0828 2.313,2.1439 3.5,3.1817 1.128,1.0657 2.277,2.1087 3.445,3.1308 1.167,1.1034 2.355,2.1835 3.565,3.2403 1.134,1.0711 2.29,2.1193 3.465,3.1464 1.132,1.0703 2.286,2.1183 3.459,3.1446 1.163,1.1 2.348,2.1768 3.554,3.2304 1.123,1.0602 2.267,2.0982 3.43,3.1153 1.137,1.0747 2.295,2.1278 3.473,3.1582 1.152,1.0887 2.325,2.154 3.519,3.1972 1.128,1.0647 2.276,2.1078 3.444,3.1289 1.137,1.0749 2.296,2.1278 3.474,3.1582 1.133,1.0704 2.287,2.1202 3.461,3.1465 1.127,1.0643 2.275,2.1062 3.442,3.127 1.141,1.079 2.305,2.1356 3.488,3.1699 1.121,1.059 2.262,2.0974 3.424,3.1133 1.131,1.0691 2.285,2.1154 3.457,3.1406 1.13,1.0681 2.282,2.1144 3.453,3.1387 1.118,1.0559 2.256,2.0904 3.414,3.1035 1.139,1.0759 2.299,2.1287 3.478,3.1602 1.112,1.049 2.243,2.0772 3.393,3.0839 1.131,1.0683 2.282,2.1143 3.453,3.1387 1.134,1.0705 2.289,2.1181 3.463,3.1445 1.113,1.0499 2.245,2.0805 3.397,3.0879 1.119,1.0568 2.259,2.0917 3.418,3.1055 1.112,1.0507 2.246,2.0796 3.398,3.0879 1.116,1.0544 2.252,2.0879 3.408,3.0996 1.131,1.0677 2.282,2.1128 3.453,3.1367 1.108,1.045 2.235,2.0693 3.381,3.0723 1.117,1.0542 2.254,2.0862 3.41,3.0976 1.105,1.0424 2.228,2.0639 3.371,3.0645 1.114,1.0518 2.248,2.0824 3.401,3.0918 1.118,1.0558 2.256,2.0905 3.414,3.1035 1.107,1.0448 2.235,2.0675 3.381,3.0703 1.108,1.0465 2.237,2.0718 3.384,3.0762 1.098,1.0356 2.215,2.0505 3.35,3.0449 1.127,1.0648 2.276,2.1077 3.443,3.1289 1.087,1.0248 2.193,2.0293 3.317,3.0137 1.109,1.0469 2.237,2.0733 3.385,3.0781 1.104,1.042 2.228,2.0623 3.371,3.0625 1.098,1.0362 2.215,2.052 3.351,3.0469 1.106,1.0439 2.232,2.0663 3.377,3.0684 1.102,1.0395 2.223,2.0586 3.364,3.0566 1.086,1.0249 2.192,2.0292 3.316,3.0137 1.109,1.0474 2.24,2.0728 3.389,3.0781 1.098,1.0363 2.216,2.0539 3.353,3.0488 1.079,1.0171 2.176,2.0149 3.291,2.9922 1.1,1.0379 2.22,2.0543 3.358,3.0508 1.097,1.0351 2.214,2.049 3.349,3.043 1.092,1.0298 2.202,2.0402 3.332,3.0293 1.073,1.0118 2.166,2.0021 3.276,2.9746 1.106,1.0443 2.232,2.0678 3.377,3.0703 1.086,1.024 2.191,2.028 3.314,3.0117 1.083,1.0209 2.185,2.0211 3.305,3.0019 1.08,1.0189 2.179,2.0172 3.297,2.9961 1.094,1.0327 2.207,2.0455 3.339,3.0371 1.088,1.0256 2.195,2.0306 3.321,3.0157 1.068,1.0065 2.153,1.9954 3.258,2.9629 1.088,1.0271 2.197,2.0329 3.324,3.0195 1.075,1.0138 2.169,2.0081 3.281,2.9824 1.085,1.0229 2.189,2.0252 3.311,3.0078 1.065,1.0043 2.148,1.9897 3.25,2.9551 1.091,1.0296 2.202,2.0385 3.332,3.0274 1.053,0.993 2.125,1.9668 3.214,2.9218 1.086,1.0245 2.192,2.0276 3.315,3.0117 1.075,1.0139 2.169,2.0082 3.281,2.9825 1.071,1.0093 2.161,1.9986 3.268,2.9687 1.062,1.0011 2.142,1.9828 3.24,2.9453 1.074,1.0134 2.168,2.0066 3.279,2.9805 1.078,1.0157 2.173,2.0123 3.287,2.9883 1.07,1.0075 2.158,1.9964 3.264,2.9648 1.058,0.9963 2.133,1.9737 3.227,2.9317 1.056,0.9952 2.131,1.9706 3.222,2.9277 1.062,1.0012 2.143,1.9826 3.24,2.9453 1.068,1.0069 2.154,1.995 3.258,2.9629 1.067,1.0055 2.153,1.9905 3.256,2.957 1.049,0.9882 2.116,1.9577 3.199,2.9082 1.064,1.0025 2.145,1.9855 3.244,2.9493 1.065,1.0031 2.148,1.9867 3.249,2.9511 1.044,0.9837 2.106,1.9482 3.185,2.8946 1.068,1.0064 2.154,1.9934 3.258,2.9609 1.039,0.9788 2.096,1.9389 3.17,2.8809 1.069,1.0077 2.156,1.9961 3.262,2.9648 1.047,0.9863 2.113,1.9535 3.195,2.9023 1.042,0.9821 2.103,1.9458 3.18,2.8907 1.058,0.9978 2.136,1.976 3.23,2.9355 1.044,0.9829 2.105,1.9469 3.184,2.8926 1.052,0.9913 2.123,1.9645 3.211,2.918 1.035,0.9749 2.087,1.9328 3.156,2.8711 1.05,0.9892 2.118,1.9586 3.203,2.9101 1.046,0.9855 2.11,1.9523 3.191,2.9004 1.042,0.9807 2.1,1.9431 3.176,2.8867 1.036,0.9757 2.09,1.9321 3.16,2.8711 1.05,0.9885 2.117,1.9574 3.202,2.9082 1.038,0.978 2.094,1.9378 3.167,2.8789 1.027,0.9666 2.071,1.9151 3.131,2.8457 1.045,0.9844 2.108,1.9495 3.188,2.8965 1.028,0.9679 2.073,1.9178 3.135,2.8496 1.046,0.9856 2.11,1.9523 3.191,2.9004 1.027,0.9665 2.07,1.9153 3.131,2.8457 1.033,0.973 2.085,1.9268 3.152,2.8633 1.024,0.9638 2.064,1.9099 3.121,2.8379 1.042,0.981 2.102,1.9427 3.178,2.8867 1.017,0.9569 2.05,1.8968 3.1,2.8184 1.04,0.9794 2.097,1.9403 3.172,2.8828 1.019,0.9594 2.056,1.9003 3.109,2.8242 1.026,0.9659 2.069,1.9138 3.129,2.8437 1.017,0.9574 2.051,1.8964 3.101,2.8184 1.035,0.9746 2.088,1.9311 3.157,2.8691 1.013,0.9534 2.043,1.8884 3.089,2.8067 1.019,0.9589 2.054,1.9007 3.106,2.8242 1.028,0.9675 2.073,1.9162 3.135,2.8477 1.008,0.9488 2.033,1.8807 3.074,2.7949 1.021,0.9615 2.061,1.9042 3.115,2.8301 1.019,0.9585 2.054,1.8991 3.106,2.8222 1.011,0.9511 2.038,1.8846 3.082,2.8008 1.011,0.9522 2.039,1.8875 3.084,2.8047 1.014,0.9548 2.046,1.8909 3.093,2.8105 1.014,0.9537 2.044,1.89 3.09,2.8086 1.023,0.9622 2.063,1.9056 3.119,2.8321 1.002,0.9412 2.018,1.8683 3.051,2.7754 1.016,0.9555 2.049,1.8922 3.098,2.8125 0.999,0.9391 2.012,1.8625 3.043,2.7675 0.989,0.9297 1.994,1.842 3.013,2.7383 1.017,0.9568 2.051,1.8949 3.1,2.8164 1.001,0.9415 2.018,1.8662 3.051,2.7735 1.008,0.9484 2.033,1.8792 3.074,2.7929 0.99,0.9303 1.995,1.8434 3.016,2.7403 1.006,0.9466 2.028,1.8769 3.066,2.789 0.997,0.937 2.009,1.8567 3.037,2.7598 1,0.9399 2.016,1.8618 3.047,2.7676 0.989,0.93 1.994,1.8436 3.014,2.7402 1.007,0.9473 2.031,1.8764 3.07,2.7891 0.992,0.9326 2,1.849 3.023,2.748 0.986,0.926 1.986,1.8356 3.002,2.7285 0.994,0.9342 2.003,1.8515 3.028,2.752 0.99,0.9306 1.997,1.843 3.017,2.7402 0.995,0.9354 2.005,1.8543 3.032,2.7559 0.981,0.9228 1.979,1.8288 2.992,2.7187 0.988,0.9287 1.991,1.841 3.009,2.7364 0.984,0.9248 1.984,1.8327 2.999,2.7246 0.997,0.9375 2.01,1.8581 3.039,2.7617 0.972,0.9134 1.96,1.8102 2.962,2.6914 0.483,0.4536 0.981,0.8904 1.471,1.3359 h 1151.2033 v -1233.0039 c -0.264,-0.2357 -0.5189,-0.4815 -0.7851,-0.7148 -1.0462,-0.9857 -2.1105,-1.9522 -3.1914,-2.9004 -1.0783,-1.0168 -2.1758,-2.0132 -3.291,-2.9902 -1.0521,-0.9909 -2.1218,-1.963 -3.209,-2.9161 -1.0558,-0.9949 -2.1296,-1.9708 -3.2207,-2.9277 -1.0639,-1.0031 -2.1463,-1.9868 -3.2461,-2.9512 -1.0727,-1.0113 -2.1643,-2.0026 -3.2734,-2.9746 -1.0713,-1.0095 -2.1619,-1.9984 -3.2696,-2.9687 -1.0675,-1.0056 -2.1523,-1.9943 -3.2558,-2.961 -1.0564,-0.9951 -2.131,-1.9707 -3.2227,-2.9277 -1.0727,-1.0114 -2.1643,-2.0026 -3.2734,-2.9746 -1.0721,-1.0106 -2.163,-2.0014 -3.2715,-2.9727 -1.0722,-1.0105 -2.1629,-2.0014 -3.2715,-2.9726 -1.0671,-1.0058 -2.1527,-1.9921 -3.2559,-2.959 -1.0675,-1.0067 -2.1541,-1.9932 -3.2578,-2.9609 -1.0898,-1.0282 -2.1987,-2.036 -3.3261,-3.0235 -1.0639,-1.0026 -2.1464,-1.9853 -3.2461,-2.9492 -1.0886,-1.0268 -2.1962,-2.0333 -3.3223,-3.0195 -1.0765,-1.0147 -2.1719,-2.0093 -3.2852,-2.9844 -1.074,-1.0126 -2.1667,-2.0054 -3.2773,-2.9785 -1.0956,-1.0334 -2.2101,-2.0468 -3.3438,-3.0391 -1.0763,-1.0142 -2.1701,-2.0098 -3.2832,-2.9844 -1.0848,-1.0226 -2.1884,-2.0254 -3.3105,-3.0078 -1.0671,-1.0058 -2.1527,-1.992 -3.2559,-2.959 -1.0973,-1.0355 -2.2141,-2.0505 -3.3496,-3.0449 -1.0809,-1.0193 -2.1808,-2.0186 -3.2988,-2.998 -1.1022,-1.0399 -2.2245,-2.0584 -3.3652,-3.0567 -1.0652,-1.0039 -2.1489,-1.988 -3.25,-2.9531 -1.1062,-1.0443 -2.232,-2.0679 -3.377,-3.0703 -1.088,-1.026 -2.1948,-2.0321 -3.3203,-3.0176 -1.0942,-1.0322 -2.2077,-2.0439 -3.3398,-3.0351 -1.0809,-1.0195 -2.181,-2.0186 -3.2989,-2.9981 -1.1129,-1.0506 -2.2462,-2.0796 -3.3984,-3.0879 -1.0965,-1.0339 -2.213,-2.0482 -3.3477,-3.041 -1.081,-1.0193 -2.1807,-2.0187 -3.2988,-2.998 -1.1069,-1.045 -2.2331,-2.0693 -3.3789,-3.0723 -1.0998,-1.0376 -2.2192,-2.0545 -3.3574,-3.0508 -1.0978,-1.0357 -2.2155,-2.0504 -3.3516,-3.0449 -1.1017,-1.0397 -2.223,-2.0585 -3.3633,-3.0566 -1.0953,-1.0337 -2.2103,-2.0465 -3.3437,-3.0391 -1.1098,-1.0479 -2.2398,-2.0744 -3.3887,-3.0801 -1.118,-1.0553 -2.2564,-2.0892 -3.414,-3.1015 -1.0857,-1.0238 -2.1895,-2.0283 -3.3126,-3.0118 -1.1163,-1.0543 -2.2541,-2.0859 -3.4101,-3.0976 -1.105,-1.0429 -2.2294,-2.0653 -3.3731,-3.0664 -1.1185,-1.0561 -2.2577,-2.0903 -3.416,-3.1035 -1.0984,-1.0365 -2.2168,-2.0518 -3.3535,-3.0469 -1.1143,-1.0524 -2.2485,-2.0839 -3.4023,-3.0938 -1.1155,-1.0533 -2.2513,-2.085 -3.4063,-3.0957 -1.1178,-1.0554 -2.2565,-2.0889 -3.414,-3.1015 -1.1187,-1.056 -2.2577,-2.0904 -3.4161,-3.1036 -1.1086,-1.0463 -2.237,-2.0718 -3.3847,-3.0761 -1.1237,-1.0612 -2.2659,-2.1012 -3.4297,-3.1192 -1.1203,-1.0576 -2.2617,-2.0928 -3.4219,-3.1074 -1.1176,-1.055 -2.2548,-2.0893 -3.4121,-3.1015 -1.1185,-1.0561 -2.2578,-2.0903 -3.416,-3.1036 -1.1174,-1.0552 -2.2551,-2.089 -3.4121,-3.1015 -1.1269,-1.0647 -2.2742,-2.1078 -3.4414,-3.1289 -1.1297,-1.0671 -2.2809,-2.1115 -3.4512,-3.1348 -1.1181,-1.0558 -2.2562,-2.0905 -3.4141,-3.1035 -1.1299,-1.0675 -2.2807,-2.113 -3.4511,-3.1367 -1.1287,-1.0662 -2.2782,-2.1103 -3.4473,-3.1328 -1.1266,-1.0643 -2.2744,-2.1062 -3.4414,-3.127 -1.1393,-1.0764 -2.3,-2.1302 -3.4805,-3.1621 -1.1218,-1.0593 -2.264,-2.0971 -3.4258,-3.1133 -1.1408,-1.0781 -2.3021,-2.1345 -3.4843,-3.168 -1.1312,-1.0683 -2.2833,-2.1161 -3.4551,-3.1406 -1.1323,-1.0697 -2.2859,-2.1168 -3.459,-3.1426 -1.1456,-1.0824 -2.3127,-2.1422 -3.5,-3.1796 -1.1231,-1.0606 -2.2665,-2.0999 -3.4297,-3.1172 -1.1393,-1.077 -2.2998,-2.1316 -3.4804,-3.1641 -1.1568,-1.0935 -2.3359,-2.1634 -3.5352,-3.2109 -1.1192,-1.0568 -2.259,-2.0917 -3.418,-3.1055 -1.1505,-1.088 -2.323,-2.1527 -3.5156,-3.1953 -1.1522,-1.0889 -2.3252,-2.1558 -3.5195,-3.1992 -1.1217,-1.0595 -2.2642,-2.097 -3.4258,-3.1133 -1.1624,-1.0996 -2.3474,-2.1753 -3.5527,-3.2285 -1.1453,-1.0822 -2.3112,-2.1425 -3.4981,-3.1797 -1.1385,-1.076 -2.2989,-2.1287 -3.4785,-3.1602 -1.1548,-1.0921 -2.3321,-2.1606 -3.5293,-3.207 -1.1597,-1.0964 -2.3405,-2.1705 -3.543,-3.2207 -1.1369,-1.0742 -2.2946,-2.1264 -3.4726,-3.1563 -1.1529,-1.0902 -2.3284,-2.1564 -3.5235,-3.2011 -1.1712,-1.1077 -2.3652,-2.1914 -3.58,-3.252 -1.1321,-1.0693 -2.2844,-2.1172 -3.4571,-3.1426 -1.165,-1.1022 -2.3524,-2.1806 -3.5605,-3.2363 -1.166,-1.1025 -2.3533,-2.1824 -3.5625,-3.2383 -1.1466,-1.0835 -2.3156,-2.1432 -3.5039,-3.1816 -1.1548,-1.0922 -2.3302,-2.1626 -3.5274,-3.209 -1.1827,-1.119 -2.3899,-2.2122 -3.6172,-3.2832 -1.1484,-1.0849 -2.3174,-2.1497 -3.5078,-3.1895 -1.1576,-1.0946 -2.3369,-2.1662 -3.5371,-3.2148 -1.1664,-1.1034 -2.3548,-2.1835 -3.5644,-3.2402 -1.1605,-1.0976 -2.3436,-2.1713 -3.5469,-3.2227 -1.1744,-1.1111 -2.3716,-2.1979 -3.5899,-3.2617 -1.1585,-1.0956 -2.3378,-2.1692 -3.539,-3.2188 -1.184,-1.1203 -2.3925,-2.2148 -3.6211,-3.2871 -1.1591,-1.0956 -2.3392,-2.1691 -3.541,-3.2187 -1.1681,-1.105 -2.3589,-2.186 -3.5703,-3.2442 -1.1723,-1.1092 -2.3661,-2.1957 -3.5821,-3.2578 -1.1786,-1.1152 -2.3806,-2.2058 -3.6035,-3.2734 -21.7444,-20.5674 -51.1273,-33.1524 -83.5586,-33.1524 z"
         style="fill:#000001;fill-opacity:0.145098;stroke:none;stroke-width:0;stroke-linecap:round;stroke-linejoin:bevel;stroke-miterlimit:4;stroke-dasharray:none;stroke-dashoffset:0;stroke-opacity:1;paint-order:fill markers stroke"
         inkscape:connector-curvature="0" />
      <path
         id="rect1144"
         style="fill:#263238;fill-opacity:1;stroke:none;stroke-width:0;stroke-linecap:round;stroke-linejoin:bevel;stroke-miterlimit:4;stroke-dasharray:none;stroke-dashoffset:0;stroke-opacity:1;paint-order:fill markers stroke"
         d="m -10032.659,-1278.8007 h 229.1343 c 49.0453,0 88.5293,39.4841 88.5293,88.5293 0,49.0452 -39.484,88.5293 -88.5293,88.5293 h -229.1343 c -49.045,0 -88.529,-39.4841 -88.529,-88.5293 0,-49.0452 39.484,-88.5293 88.529,-88.5293 z m -347.337,-320.2658 c -21.766,0 -43.533,8.3383 -60.211,25.0167 -33.357,33.3568 -33.357,87.065 0,120.4218 l 103.229,103.229 -103.217,103.2175 c -33.357,33.3566 -33.357,87.0648 0,120.4217 33.356,33.3567 87.065,33.3567 120.422,0 l 162.307,-162.3088 c 17.083,-17.0831 25.412,-39.504 24.998,-61.7957 0.172,-21.9877 -8.161,-44.0294 -25.01,-60.878 l -162.307,-162.3075 c -16.679,-16.6784 -38.444,-25.0167 -60.211,-25.0167 z m -305.412,-307.1523 c -67.305,0 -121.49,54.185 -121.49,121.4902 v 868.6485 c 0,67.3051 54.185,121.4902 121.49,121.4902 h 1190.5961 c 67.3052,0 121.4903,-54.1851 121.4903,-121.4902 v -868.6485 c 0,-67.3052 -54.1851,-121.4902 -121.4903,-121.4902 z m 69.243,176.1601 h 1052.1109 v 759.3086 h -1052.1109 z" />
    </g>
  </g>
</svg>
