<?xml version="1.0" encoding="UTF-8" standalone="no"?>
<svg
   xmlns:dc="http://purl.org/dc/elements/1.1/"
   xmlns:cc="http://creativecommons.org/ns#"
   xmlns:rdf="http://www.w3.org/1999/02/22-rdf-syntax-ns#"
   xmlns:svg="http://www.w3.org/2000/svg"
   xmlns="http://www.w3.org/2000/svg"
   xmlns:sodipodi="http://sodipodi.sourceforge.net/DTD/sodipodi-0.dtd"
   xmlns:inkscape="http://www.inkscape.org/namespaces/inkscape"
   sodipodi:docname="teoria_segnali_scalable.svg"
   inkscape:version="1.0 (4035a4fb49, 2020-05-01)"
   id="svg27864"
   version="1.1"
   viewBox="0 0 67.733323 67.733346"
   height="67.733345mm"
   width="67.733322mm">
  <defs
     id="defs27858">
    <clipPath
       clipPathUnits="userSpaceOnUse"
       id="clipPath1698-3">
      <rect
         style="opacity:0.604;fill:#26a10d;fill-opacity:0.985;stroke:#d32f2f;stroke-width:0;stroke-linecap:round;stroke-linejoin:bevel;stroke-miterlimit:4;stroke-dasharray:none;stroke-dashoffset:0;stroke-opacity:0.94;paint-order:fill markers stroke"
         id="rect1700-6"
         width="1200"
         height="772.966"
         x="-29147.879"
         y="19470.865"
         rx="64.06395"
         ry="64.06395" />
    </clipPath>
    <clipPath
       id="clipPath29374"
       clipPathUnits="userSpaceOnUse">
      <rect
         style="opacity:1;fill:#014c77;fill-opacity:1;stroke:none;stroke-width:4.4;stroke-linecap:round;stroke-linejoin:bevel;stroke-miterlimit:4;stroke-dasharray:none;stroke-dashoffset:0;stroke-opacity:1;paint-order:fill markers stroke"
         id="rect29376"
         width="2048"
         height="2048"
         x="-18040.27"
         y="7264.1074" />
    </clipPath>
    <clipPath
       id="clipPath1237"
       clipPathUnits="userSpaceOnUse">
      <g
         id="g1245">
        <rect
           ry="28.853754"
           rx="28.853754"
           y="8911.8291"
           x="-17557.889"
           height="98.791946"
           width="1083.2383"
           id="rect1239"
           style="opacity:1;fill:#e1f5fe;fill-opacity:1;stroke:none;stroke-width:4.4;stroke-linecap:round;stroke-linejoin:bevel;stroke-miterlimit:4;stroke-dasharray:none;stroke-dashoffset:0;stroke-opacity:1;paint-order:fill markers stroke" />
        <rect
           ry="28.8538"
           rx="28.853802"
           y="8984.541"
           x="-17372.984"
           height="66.819221"
           width="713.43213"
           id="rect1241"
           style="opacity:1;fill:#e1f5fe;fill-opacity:1;stroke:none;stroke-width:4.4;stroke-linecap:round;stroke-linejoin:bevel;stroke-miterlimit:4;stroke-dasharray:none;stroke-dashoffset:0;stroke-opacity:1;paint-order:fill markers stroke" />
        <path
           id="path1243"
           d="m -17324.329,8432.3038 c -18.32,0 -33.343,14.4272 -35.635,33.2188 h -0.312 v 5.0019 30.5742 132.9981 c 0,163.6929 123.952,295.4765 277.918,295.4765 h 132.179 c 122.164,0 225.42,-82.9726 262.867,-199.0156 a 129.26388,129.26388 0 0 0 15.041,1.0391 129.26388,129.26388 0 0 0 129.264,-129.2637 129.26388,129.26388 0 0 0 -129.256,-129.2637 v -2.5449 -5.0019 h -0.314 c -2.292,-18.7916 -17.314,-33.2188 -35.633,-33.2188 z m 652.066,103.461 a 66.567536,66.567536 0 0 1 66.561,66.5683 66.567536,66.567536 0 0 1 -66.569,66.5664 66.567536,66.567536 0 0 1 -1.892,-0.094 c 1.242,-11.3827 1.9,-22.9607 1.9,-34.709 z"
           style="opacity:1;fill:#e1f5fe;fill-opacity:1;stroke:none;stroke-width:4.4;stroke-linecap:round;stroke-linejoin:bevel;stroke-miterlimit:4;stroke-dasharray:none;stroke-dashoffset:0;stroke-opacity:1;paint-order:fill markers stroke"
           inkscape:connector-curvature="0" />
      </g>
    </clipPath>
  </defs>
  <sodipodi:namedview
     showguides="false"
     inkscape:snap-global="false"
     inkscape:window-maximized="0"
     inkscape:window-y="24"
     inkscape:window-x="576"
     inkscape:window-height="1025"
     inkscape:window-width="1336"
     fit-margin-bottom="0"
     fit-margin-right="0"
     fit-margin-left="0"
     fit-margin-top="0"
     showgrid="false"
     inkscape:document-rotation="0"
     inkscape:current-layer="layer1"
     inkscape:document-units="mm"
     inkscape:cy="748.94521"
     inkscape:cx="1134.9731"
     inkscape:zoom="0.19921874"
     inkscape:pageshadow="2"
     inkscape:pageopacity="0.0"
     borderopacity="1.0"
     bordercolor="#666666"
     pagecolor="#ffffff"
     id="base" />
  <metadata
     id="metadata27861">
    <rdf:RDF>
      <cc:Work
         rdf:about="">
        <dc:format>image/svg+xml</dc:format>
        <dc:type
           rdf:resource="http://purl.org/dc/dcmitype/StillImage" />
        <dc:title></dc:title>
        <cc:license
           rdf:resource="http://creativecommons.org/licenses/by-sa/4.0/" />
      </cc:Work>
      <cc:License
         rdf:about="http://creativecommons.org/licenses/by-sa/4.0/">
        <cc:permits
           rdf:resource="http://creativecommons.org/ns#Reproduction" />
        <cc:permits
           rdf:resource="http://creativecommons.org/ns#Distribution" />
        <cc:requires
           rdf:resource="http://creativecommons.org/ns#Notice" />
        <cc:requires
           rdf:resource="http://creativecommons.org/ns#Attribution" />
        <cc:permits
           rdf:resource="http://creativecommons.org/ns#DerivativeWorks" />
        <cc:requires
           rdf:resource="http://creativecommons.org/ns#ShareAlike" />
      </cc:License>
    </rdf:RDF>
  </metadata>
  <g
     transform="translate(2682.4535,2774.1241)"
     id="layer1"
     inkscape:groupmode="layer"
     inkscape:label="Livello 1">
    <g
       id="g27025"
       inkscape:export-filename="/home/fjall/Icone/PNG/III anno/teoria_segn.png"
       inkscape:export-xdpi="96"
       inkscape:export-ydpi="96"
       transform="matrix(0.03307291,0,0,0.03307291,-2636.4786,-2970.9276)">
      <rect
         ry="0"
         rx="0"
         y="5950.5942"
         x="-1390.1072"
         height="2048"
         width="2048"
         id="rect19740"
         style="fill:#2196f3;fill-opacity:1;stroke:none;stroke-width:155.05;stroke-linecap:round;stroke-linejoin:round;stroke-miterlimit:4;stroke-dasharray:none;stroke-dashoffset:0;stroke-opacity:1;paint-order:stroke markers fill" />
      <path
         inkscape:connector-curvature="0"
         style="color:#000000;font-style:normal;font-variant:normal;font-weight:normal;font-stretch:normal;font-size:medium;line-height:normal;font-family:sans-serif;font-variant-ligatures:normal;font-variant-position:normal;font-variant-caps:normal;font-variant-numeric:normal;font-variant-alternates:normal;font-feature-settings:normal;text-indent:0;text-align:start;text-decoration:none;text-decoration-line:none;text-decoration-style:solid;text-decoration-color:#000000;letter-spacing:normal;word-spacing:normal;text-transform:none;writing-mode:lr-tb;direction:ltr;text-orientation:mixed;dominant-baseline:auto;baseline-shift:baseline;text-anchor:start;white-space:normal;shape-padding:0;clip-rule:nonzero;display:inline;overflow:visible;visibility:visible;isolation:auto;mix-blend-mode:normal;color-interpolation:sRGB;color-interpolation-filters:linearRGB;solid-color:#000000;solid-opacity:1;vector-effect:none;fill:#000001;fill-opacity:0.145098;fill-rule:nonzero;stroke:none;stroke-width:43.8;stroke-linecap:butt;stroke-linejoin:miter;stroke-miterlimit:4;stroke-dasharray:none;stroke-dashoffset:0;stroke-opacity:1;color-rendering:auto;image-rendering:auto;shape-rendering:auto;text-rendering:auto;enable-background:accumulate"
         d="m -847.857,6430.6536 c -8.044,0.1172 -15.007,4.4202 -18.717,10.7304 l -71.521,82 c -5.274,5.8787 -6.976,14.1414 -4.452,21.625 1.274,3.7764 3.527,7.0579 6.44,9.5743 0.9,1.1665 1.915,2.2342 3.025,3.1933 0.898,1.1639 1.911,2.2302 3.018,3.1875 0.898,1.1636 1.911,2.2303 3.017,3.1875 0.9,1.1657 1.915,2.2329 3.024,3.1914 0.895,1.159 1.907,2.2219 3.01,3.1758 0.896,1.1603 1.905,2.2229 3.009,3.1777 0.897,1.1609 1.907,2.2246 3.012,3.1797 0.893,1.1553 1.899,2.2146 2.998,3.166 0.894,1.1567 1.902,2.2156 3.002,3.168 0.895,1.1573 1.901,2.2191 3.002,3.1719 0.892,1.1535 1.898,2.21 2.996,3.1601 0.892,1.1524 1.895,2.2088 2.992,3.1582 0.89,1.1494 1.889,2.205 2.983,3.1524 0.889,1.1498 1.892,2.2045 2.986,3.1523 0.889,1.1483 1.89,2.2017 2.982,3.1485 0.892,1.1515 1.895,2.2074 2.991,3.1562 0.885,1.142 1.879,2.1905 2.967,3.1328 0.889,1.1487 1.888,2.2035 2.982,3.1504 0.885,1.1414 1.88,2.189 2.967,3.1309 0.886,1.1438 1.883,2.1932 2.972,3.1367 0.884,1.1387 1.875,2.1849 2.959,3.125 0.886,1.1419 1.88,2.1906 2.967,3.1328 0.264,0.3395 0.536,0.6695 0.819,0.9922 v 612.5625 h -89.196 c -7.891,-0.1009 -15.226,4.0516 -19.201,10.8691 -3.975,6.8174 -3.975,15.2471 0,22.0645 1.228,2.1059 2.78,3.9535 4.566,5.5039 0.927,1.2056 1.969,2.3026 3.106,3.2774 0.892,1.1478 1.887,2.1966 2.973,3.1328 0.905,1.1725 1.918,2.243 3.025,3.1953 0.907,1.1736 1.926,2.2432 3.035,3.1953 0.89,1.1481 1.885,2.1954 2.969,3.1308 0.901,1.1687 1.912,2.2367 3.014,3.1856 0.902,1.1685 1.913,2.2337 3.017,3.1816 0.894,1.1562 1.896,2.2109 2.988,3.1504 0.897,1.1618 1.903,2.2212 3,3.1641 0.887,1.1486 1.88,2.1985 2.963,3.1328 0.903,1.1726 1.917,2.2421 3.024,3.1914 0.89,1.1513 1.888,2.2 2.976,3.1348 0.893,1.1563 1.893,2.2105 2.985,3.1484 0.889,1.1533 1.887,2.205 2.976,3.1406 0.891,1.1547 1.889,2.2065 2.979,3.1426 0.89,1.1546 1.888,2.207 2.978,3.1426 0.885,1.1474 1.878,2.1924 2.961,3.123 0.888,1.153 1.883,2.2028 2.971,3.1368 0.888,1.1523 1.884,2.2017 2.973,3.1347 0.883,1.1454 1.873,2.1891 2.955,3.1172 0.886,1.151 1.88,2.1995 2.966,3.1309 0.88,1.1417 1.868,2.1824 2.946,3.1074 0.882,1.1468 1.873,2.191 2.955,3.1191 0.882,1.146 1.873,2.1902 2.955,3.1172 0.88,1.1428 1.866,2.1829 2.945,3.1074 0.878,1.1407 1.865,2.1807 2.942,3.1036 0.876,1.1391 1.86,2.1761 2.935,3.0976 0.879,1.144 1.867,2.1851 2.947,3.1094 0.873,1.1345 1.853,2.1661 2.924,3.084 0.877,1.1409 1.861,2.1779 2.938,3.0996 0.874,1.1373 1.856,2.173 2.929,3.0918 0.873,1.1358 1.854,2.1685 2.926,3.0859 0.871,1.1337 1.85,2.1663 2.92,3.082 0.872,1.1351 1.851,2.1678 2.922,3.084 0.867,1.1294 1.844,2.1561 2.91,3.0684 0.87,1.1333 1.847,2.1636 2.916,3.0781 0.869,1.1325 1.847,2.1628 2.916,3.0762 0.867,1.1293 1.842,2.1555 2.908,3.0664 0.866,1.1283 1.839,2.1545 2.905,3.0644 0.862,1.1244 1.833,2.1476 2.894,3.0547 0.865,1.1279 1.838,2.1535 2.903,3.0625 0.862,1.1256 1.834,2.1477 2.896,3.0547 0.861,1.123 1.829,2.1436 2.889,3.0489 0.861,1.1244 1.831,2.1451 2.892,3.0507 0.861,1.1237 1.83,2.1461 2.891,3.0508 0.857,1.1179 1.822,2.1345 2.877,3.0352 0.857,1.1199 1.822,2.1374 2.879,3.039 0.857,1.1209 1.823,2.1393 2.881,3.041 0.855,1.1177 1.819,2.132 2.875,3.0313 0.854,1.1167 1.816,2.131 2.871,3.0293 0.852,1.1143 1.811,2.127 2.863,3.0234 0.853,1.115 1.815,2.1269 2.867,3.0235 0.853,1.1152 1.815,2.1272 2.867,3.0234 0.85,1.111 1.807,2.1205 2.856,3.0137 0.849,1.1113 1.807,2.1205 2.855,3.0137 0.849,1.1103 1.806,2.1177 2.854,3.0097 0.848,1.1107 1.805,2.118 2.853,3.0098 0.848,1.109 1.803,2.1156 2.85,3.0058 0.844,1.1051 1.795,2.1087 2.838,2.9961 0.844,1.1062 1.796,2.1103 2.84,2.9981 0.843,1.1048 1.795,2.1076 2.838,2.9941 0.841,1.1032 1.793,2.1032 2.834,2.9883 0.842,1.1042 1.792,2.1048 2.834,2.9902 0.84,1.1025 1.789,2.1025 2.83,2.9864 0.839,1.101 1.787,2.0999 2.826,2.9824 0.839,1.1004 1.785,2.0968 2.824,2.9785 0.837,1.0988 1.785,2.0943 2.822,2.9746 0.837,1.0979 1.78,2.0933 2.817,2.9727 0.834,1.0953 1.775,2.0894 2.808,2.9668 0.835,1.096 1.779,2.0873 2.813,2.9648 0.834,1.096 1.776,2.0898 2.81,2.9668 0.834,1.0951 1.777,2.087 2.811,2.9629 0.828,1.0873 1.763,2.0726 2.789,2.9434 0.831,1.0931 1.771,2.0828 2.803,2.957 0.829,1.0908 1.767,2.079 2.797,2.9512 0.827,1.0887 1.763,2.0748 2.791,2.9453 0.828,1.0897 1.764,2.0785 2.793,2.9492 0.825,1.0855 1.758,2.068 2.783,2.9355 0.824,1.0849 1.758,2.0667 2.781,2.9336 0.825,1.0872 1.759,2.0715 2.785,2.9395 0.82,1.0796 1.748,2.057 2.766,2.9199 0.825,1.0887 1.76,2.0733 2.787,2.9414 0.822,1.0821 1.752,2.0604 2.773,2.9238 0.819,1.0779 1.745,2.0536 2.762,2.9141 0.82,1.0814 1.749,2.0595 2.77,2.9219 0.817,1.0777 1.744,2.0525 2.761,2.9121 0.817,1.0778 1.743,2.0528 2.76,2.9121 0.816,1.0765 1.74,2.0501 2.756,2.9082 0.815,1.0755 1.737,2.0472 2.752,2.9043 0.815,1.0759 1.739,2.0494 2.754,2.9062 0.815,1.0751 1.739,2.0466 2.754,2.9024 0.808,1.0668 1.724,2.0324 2.73,2.8828 0.816,1.0789 1.742,2.0527 2.76,2.9102 0.805,1.0625 1.718,2.0242 2.721,2.8711 0.809,1.0703 1.727,2.039 2.736,2.8906 0.808,1.0688 1.724,2.0346 2.732,2.8847 0.811,1.0721 1.733,2.0392 2.747,2.8907 0.801,1.0603 1.712,2.0194 2.712,2.8632 0.806,1.0668 1.721,2.0314 2.727,2.879 0.803,1.0619 1.713,2.021 2.715,2.8652 0.806,1.0675 1.723,2.0298 2.73,2.8769 0.799,1.0567 1.704,2.0136 2.701,2.8536 0.803,1.0635 1.716,2.0252 2.719,2.8691 0.8,1.0585 1.708,2.0132 2.707,2.8535 0.799,1.0579 1.705,2.0139 2.703,2.8535 0.797,1.056 1.703,2.0097 2.7,2.8477 0.797,1.0574 1.703,2.011 2.701,2.8496 0.795,1.0554 1.7,2.0068 2.695,2.8437 0.795,1.0543 1.697,2.006 2.691,2.8418 0.794,1.0536 1.698,2.003 2.692,2.8379 0.794,1.0535 1.695,2.0035 2.689,2.8379 0.792,1.0502 1.691,1.9981 2.682,2.8301 0.792,1.0514 1.693,1.9997 2.686,2.832 0.788,1.0474 1.685,1.9929 2.673,2.8223 0.789,1.0477 1.686,1.993 2.674,2.8223 0.788,1.0473 1.686,1.9916 2.674,2.8203 0.786,1.0453 1.682,1.9875 2.668,2.8144 0.787,1.0462 1.683,1.9894 2.67,2.8164 0.784,1.042 1.675,1.9826 2.658,2.8067 0.785,1.0437 1.679,1.9838 2.664,2.8086 0.782,1.0397 1.672,1.9769 2.652,2.7988 0.783,1.0419 1.674,1.9799 2.657,2.8027 0.781,1.0395 1.67,1.978 2.65,2.7989 0.779,1.0372 1.668,1.9699 2.647,2.789 0.78,1.0403 1.67,1.9784 2.652,2.7989 0.774,1.0298 1.654,1.9576 2.625,2.7714 0.779,1.0403 1.67,1.977 2.65,2.7969 0.772,1.029 1.653,1.9551 2.623,2.7676 0.78,1.0416 1.67,1.9791 2.653,2.7988 0.771,1.0275 1.651,1.9532 2.621,2.7637 0.774,1.0336 1.657,1.9634 2.633,2.7773 0.769,1.026 1.647,1.949 2.615,2.7578 0.774,1.0345 1.659,1.9658 2.635,2.7793 0.764,1.0194 1.636,1.9382 2.597,2.7422 0.771,1.0309 1.652,1.9587 2.623,2.7696 0.767,1.0239 1.642,1.9459 2.608,2.7519 0.765,1.0237 1.64,1.9444 2.605,2.75 0.768,1.0282 1.648,1.9521 2.617,2.7598 0.764,1.0197 1.634,1.9361 2.596,2.7383 0.763,1.0209 1.635,1.9394 2.598,2.7422 0.763,1.0213 1.634,1.9397 2.597,2.7421 0.763,1.0202 1.636,1.9371 2.598,2.7383 0.759,1.0166 1.627,1.9319 2.586,2.7305 0.76,1.0184 1.631,1.9331 2.592,2.7324 0.758,1.0156 1.626,1.9294 2.584,2.7266 0.757,1.0145 1.623,1.9265 2.58,2.7226 0.757,1.0149 1.623,1.9268 2.58,2.7227 0.754,1.0112 1.619,1.9196 2.572,2.7129 0.757,1.0151 1.623,1.9275 2.58,2.7226 0.751,1.0065 1.612,1.9096 2.561,2.6993 0.752,1.0107 1.614,1.919 2.566,2.7109 0.755,1.0142 1.621,1.9236 2.578,2.7168 0.745,0.9981 1.595,1.8964 2.538,2.6797 0.752,1.0121 1.616,1.9194 2.57,2.7109 0.749,1.0058 1.606,1.9084 2.554,2.6953 0.75,1.0054 1.607,1.9091 2.555,2.6953 0.744,0.9988 1.596,1.8958 2.537,2.6778 0.747,1.0055 1.605,1.9077 2.553,2.6933 0.743,0.9987 1.594,1.8947 2.535,2.6758 0.745,1.0027 1.6,1.9005 2.545,2.6836 0.74,0.9957 1.589,1.8894 2.527,2.668 0.744,1.0019 1.597,1.8998 2.541,2.6816 0.743,0.9999 1.596,1.8959 2.54,2.6758 0.734,0.9888 1.577,1.8773 2.509,2.6504 0.738,0.9957 1.588,1.887 2.526,2.664 0.738,0.9966 1.588,1.8891 2.527,2.6661 0.735,0.9916 1.579,1.8827 2.514,2.6562 0.736,0.9933 1.583,1.8823 2.519,2.6563 0.734,0.9903 1.578,1.8786 2.512,2.6504 0.733,0.9891 1.575,1.8739 2.508,2.6445 0.732,0.9895 1.575,1.876 2.508,2.6465 0.73,0.9858 1.568,1.8689 2.498,2.6367 0.73,0.9874 1.571,1.8703 2.502,2.6387 0.726,0.9821 1.561,1.8619 2.486,2.6269 0.732,0.991 1.575,1.8769 2.51,2.6465 0.725,0.9794 1.559,1.8549 2.482,2.6172 0.726,0.9829 1.562,1.8628 2.488,2.6269 0.727,0.9832 1.564,1.8634 2.491,2.627 0.724,0.9797 1.558,1.8561 2.482,2.6172 0.722,0.9767 1.552,1.8524 2.473,2.6113 0.723,0.9804 1.558,1.8585 2.482,2.6191 0.72,0.9746 1.55,1.8449 2.469,2.6016 0.72,0.9766 1.55,1.8518 2.471,2.6094 0.717,0.9726 1.544,1.8427 2.46,2.5976 0.721,0.9765 1.551,1.8489 2.471,2.6055 0.716,0.9711 1.542,1.8408 2.457,2.5938 0.715,0.9702 1.541,1.8376 2.455,2.5898 0.716,0.9726 1.543,1.8426 2.459,2.5957 0.712,0.9662 1.535,1.8292 2.446,2.5781 0.715,0.9729 1.542,1.8415 2.459,2.5938 0.71,0.9646 1.53,1.8273 2.439,2.5742 0.712,0.9677 1.533,1.8317 2.445,2.5801 0.709,0.9636 1.528,1.8247 2.436,2.5703 0.709,0.9646 1.529,1.8265 2.437,2.5723 0.708,0.9629 1.527,1.822 2.434,2.5664 0.708,0.9635 1.525,1.8241 2.434,2.5683 0.703,0.9577 1.517,1.8123 2.42,2.5528 0.706,0.9631 1.524,1.8232 2.431,2.5664 0.703,0.9576 1.516,1.8133 2.418,2.5527 0.702,0.957 1.516,1.8102 2.418,2.5488 0.702,0.958 1.515,1.814 2.418,2.5528 0.7,0.9552 1.512,1.8063 2.412,2.5429 0.699,0.9535 1.508,1.8038 2.406,2.5391 0.703,0.9595 1.518,1.8147 2.422,2.5527 0.694,0.9448 1.495,1.7884 2.385,2.5176 0.698,0.9552 1.509,1.806 2.408,2.541 0.694,0.948 1.498,1.7951 2.391,2.5254 0.697,0.9528 1.504,1.8026 2.402,2.5352 0.691,0.9442 1.493,1.7845 2.383,2.5117 0.694,0.9503 1.499,1.797 2.395,2.5273 0.69,0.9443 1.49,1.7874 2.38,2.5137 0.69,0.9435 1.491,1.7842 2.379,2.5098 0.691,0.9459 1.492,1.7872 2.383,2.5136 0.69,0.9444 1.491,1.7868 2.381,2.5118 0.687,0.9401 1.483,1.7799 2.369,2.5019 0.686,0.94 1.484,1.7765 2.369,2.4981 0.687,0.9412 1.485,1.7782 2.371,2.5 0.686,0.9396 1.482,1.7757 2.368,2.4961 0.682,0.9356 1.475,1.7706 2.357,2.4882 0.682,0.935 1.473,1.7675 2.354,2.4844 0.681,0.9362 1.473,1.7692 2.355,2.4863 0.679,0.9332 1.471,1.7636 2.35,2.4785 0.679,0.9336 1.47,1.7637 2.349,2.4786 0.681,0.9359 1.472,1.7688 2.354,2.4843 0.674,0.927 1.461,1.751 2.334,2.461 0.674,0.9292 1.459,1.7556 2.334,2.4668 0.679,0.9356 1.472,1.7664 2.353,2.4804 0.673,0.9243 1.455,1.7462 2.326,2.4532 0.675,0.9292 1.461,1.7554 2.336,2.4648 0.669,0.9213 1.449,1.7407 2.317,2.4453 0.672,0.927 1.455,1.7496 2.328,2.4571 0.67,0.9249 1.453,1.7474 2.324,2.4531 0.67,0.9235 1.452,1.7429 2.322,2.4472 0.668,0.921 1.445,1.741 2.313,2.4434 0.667,0.9199 1.446,1.7361 2.312,2.4375 0.666,0.9193 1.441,1.7369 2.307,2.4375 0.666,0.9202 1.446,1.7369 2.312,2.4375 0.664,0.9154 1.437,1.7283 2.299,2.4258 0.663,0.9165 1.438,1.73 2.301,2.4277 0.662,0.9162 1.436,1.7288 2.299,2.4258 0.662,0.9155 1.436,1.7278 2.299,2.4238 0.658,0.9103 1.428,1.7194 2.285,2.4121 0.66,0.9143 1.432,1.7255 2.293,2.42 0.658,0.9105 1.429,1.7183 2.287,2.4101 0.655,0.9073 1.421,1.7127 2.275,2.4024 0.658,0.912 1.429,1.7202 2.287,2.4121 0.652,0.9031 1.414,1.7041 2.264,2.3906 0.656,0.9115 1.426,1.7194 2.283,2.4102 0.653,0.9049 1.418,1.7061 2.27,2.3925 0.651,0.9045 1.413,1.7069 2.266,2.3926 0.65,0.9045 1.415,1.7054 2.267,2.3906 0.65,0.902 1.41,1.7014 2.26,2.3848 0.65,0.9035 1.412,1.7031 2.264,2.3867 0.646,0.8976 1.402,1.6931 2.248,2.3731 0.646,0.8988 1.404,1.6946 2.25,2.375 0.647,0.9014 1.407,1.6996 2.255,2.3808 0.645,0.8968 1.402,1.6912 2.247,2.3692 0.643,0.8945 1.397,1.6869 2.24,2.3632 0.643,0.896 1.398,1.6886 2.242,2.3653 0.641,0.8928 1.394,1.6828 2.234,2.3574 0.375,0.5227 0.793,1.0053 1.241,1.4551 h 946.529 v -400.2481 c -0.3,-0.3418 -0.633,-0.6461 -0.994,-0.9082 l -1.528,-1.7519 c -0.31,-0.3663 -0.662,-0.6861 -1.043,-0.9629 -0.08,-0.098 -1.541,-1.7676 -1.541,-1.7676 -0.311,-0.3674 -0.663,-0.6881 -1.047,-0.9648 -0.08,-0.098 -1.541,-1.7657 -1.541,-1.7657 -0.31,-0.366 -0.663,-0.6854 -1.044,-0.9609 l -1.547,-1.7754 c -0.308,-0.3634 -0.659,-0.6795 -1.037,-0.9531 -0.09,-0.099 -1.557,-1.7852 -1.557,-1.7852 -0.308,-0.3637 -0.66,-0.6799 -1.039,-0.9531 l -1.561,-1.7891 c -0.306,-0.3609 -0.655,-0.6741 -1.031,-0.9453 l -1.568,-1.7988 c -0.305,-0.3594 -0.651,-0.6716 -1.026,-0.9414 -0.09,-0.1009 -1.576,-1.8066 -1.576,-1.8066 -0.304,-0.3596 -0.652,-0.6721 -1.027,-0.9415 -0.09,-0.101 -1.578,-1.8105 -1.578,-1.8105 -0.306,-0.3609 -0.656,-0.6721 -1.034,-0.9414 -0.09,-0.1011 -1.58,-1.8125 -1.58,-1.8125 -0.301,-0.3554 -0.644,-0.6657 -1.015,-0.9316 -0.09,-0.1025 -1.594,-1.8262 -1.594,-1.8262 -0.3,-0.3544 -0.643,-0.661 -1.014,-0.9258 -0.09,-0.1032 -1.601,-1.8359 -1.601,-1.8359 -0.301,-0.3544 -0.643,-0.6597 -1.014,-0.9239 -0.09,-0.1033 -1.603,-1.8398 -1.603,-1.8398 -0.296,-0.3488 -0.634,-0.6513 -0.998,-0.9121 -0.09,-0.105 -1.62,-1.8555 -1.62,-1.8555 -0.301,-0.3558 -0.646,-0.6622 -1.019,-0.9258 -0.09,-0.1034 -1.609,-1.8437 -1.609,-1.8437 -0.299,-0.3518 -0.64,-0.657 -1.008,-0.918 l -1.619,-1.8555 c -0.297,-0.35 -0.637,-0.6525 -1.004,-0.9121 -0.09,-0.1053 -1.627,-1.8652 -1.627,-1.8652 -0.296,-0.3491 -0.634,-0.6498 -1,-0.9082 l -1.633,-1.8711 c -0.298,-0.3517 -0.64,-0.6551 -1.01,-0.9141 l -1.631,-1.8691 c -0.292,-0.3447 -0.626,-0.6434 -0.988,-0.8984 -0.09,-0.1073 -1.648,-1.8887 -1.648,-1.8887 -0.294,-0.3466 -0.632,-0.6433 -0.997,-0.8984 -0.09,-0.1072 -1.648,-1.8907 -1.648,-1.8907 -0.29,-0.3419 -0.623,-0.6363 -0.982,-0.8886 -0.1,-0.1085 -1.661,-1.9043 -1.661,-1.9043 -0.292,-0.3447 -0.627,-0.6417 -0.99,-0.8946 -0.09,-0.1081 -1.66,-1.9023 -1.66,-1.9023 -0.289,-0.3406 -0.62,-0.6325 -0.978,-0.8828 -0.1,-0.1094 -1.672,-1.916 -1.672,-1.916 -0.289,-0.3407 -0.622,-0.6313 -0.981,-0.8809 -0.1,-0.1097 -1.676,-1.9219 -1.676,-1.9219 -0.289,-0.3407 -0.62,-0.6319 -0.98,-0.8808 -0.1,-0.1097 -1.678,-1.9239 -1.678,-1.9239 -0.284,-0.3357 -0.611,-0.6231 -0.965,-0.8691 l -1.691,-1.9395 c -0.286,-0.337 -0.617,-0.6251 -0.973,-0.8711 l -1.693,-1.9414 c -0.283,-0.3334 -0.609,-0.6178 -0.961,-0.8613 -0.1,-0.1123 -1.703,-1.9531 -1.703,-1.9531 -0.284,-0.3356 -0.614,-0.6215 -0.969,-0.8652 -0.1,-0.1121 -1.703,-1.9532 -1.703,-1.9532 -0.281,-0.3315 -0.606,-0.6143 -0.957,-0.8554 -0.1,-0.1134 -1.715,-1.9668 -1.715,-1.9668 -0.283,-0.3339 -0.611,-0.618 -0.965,-0.8594 l -1.713,-1.9649 c -0.279,-0.3298 -0.603,-0.6107 -0.953,-0.8496 -0.1,-0.1141 -1.724,-1.9785 -1.724,-1.9785 -0.279,-0.3283 -0.601,-0.6082 -0.95,-0.8457 l -1.732,-1.9863 c -0.279,-0.3292 -0.602,-0.6087 -0.951,-0.8457 l -1.735,-1.9883 c -0.276,-0.3265 -0.596,-0.6047 -0.943,-0.8398 -0.101,-0.1158 -1.744,-1.9981 -1.744,-1.9981 -0.276,-0.3259 -0.597,-0.6019 -0.943,-0.8359 -0.102,-0.1161 -1.748,-2.0039 -1.748,-2.0039 -0.275,-0.3243 -0.595,-0.5995 -0.94,-0.8321 -0.102,-0.1166 -1.754,-2.0117 -1.754,-2.0117 -0.272,-0.3215 -0.589,-0.5956 -0.931,-0.8261 -0.103,-0.1177 -1.764,-2.0215 -1.764,-2.0215 -0.273,-0.3219 -0.591,-0.5944 -0.934,-0.8243 -0.102,-0.1178 -1.767,-2.0253 -1.767,-2.0253 -0.272,-0.3211 -0.589,-0.5936 -0.932,-0.8223 -0.103,-0.1182 -1.771,-2.0313 -1.771,-2.0313 -0.271,-0.3189 -0.586,-0.5894 -0.926,-0.8164 -0.104,-0.1191 -1.781,-2.041 -1.781,-2.041 -0.269,-0.3172 -0.582,-0.5851 -0.92,-0.8105 l -1.787,-2.0489 c -0.27,-0.3174 -0.583,-0.5859 -0.922,-0.8105 l -1.791,-2.0527 c -0.269,-0.3163 -0.582,-0.5834 -0.92,-0.8067 -0.105,-0.1205 -1.797,-2.0605 -1.797,-2.0605 -0.265,-0.3122 -0.574,-0.5742 -0.908,-0.7949 l -1.809,-2.0743 c -0.266,-0.3138 -0.575,-0.5763 -0.912,-0.7968 -0.106,-0.1218 -1.811,-2.0762 -1.811,-2.0762 -0.263,-0.3111 -0.57,-0.5725 -0.904,-0.791 l -1.818,-2.084 c -0.264,-0.3118 -0.573,-0.5731 -0.908,-0.791 -0.107,-0.1226 -1.821,-2.0879 -1.821,-2.0879 -0.26,-0.3065 -0.563,-0.5644 -0.892,-0.7793 l -1.834,-2.1035 c -0.265,-0.3117 -0.573,-0.5732 -0.911,-0.7891 l -1.828,-2.0957 c -0.26,-0.3067 -0.564,-0.5642 -0.894,-0.7773 l -1.842,-2.1114 c -0.259,-0.3052 -0.56,-0.5618 -0.889,-0.7734 l -1.847,-2.1191 c -0.246,-0.29 -0.54,-0.5218 -0.85,-0.7266 -0.114,-0.1306 -1.891,-2.168 -1.891,-2.168 -0.249,-0.294 -0.547,-0.5289 -0.863,-0.7344 -0.113,-0.1298 -1.887,-2.164 -1.887,-2.164 -0.243,-0.2873 -0.533,-0.5168 -0.841,-0.7188 l -1.903,-2.1816 c -0.244,-0.2884 -0.537,-0.5193 -0.847,-0.7207 l -1.907,-2.1856 c -0.242,-0.2861 -0.534,-0.5132 -0.841,-0.7128 -0.116,-0.1325 -1.912,-2.1934 -1.912,-2.1934 -0.242,-0.2856 -0.533,-0.5125 -0.84,-0.7109 l -1.92,-2.2012 c -0.24,-0.2826 -0.526,-0.5068 -0.83,-0.7031 -0.117,-0.1341 -1.928,-2.211 -1.928,-2.211 -0.24,-0.2825 -0.527,-0.5059 -0.832,-0.7011 -0.117,-0.1343 -1.932,-2.2149 -1.932,-2.2149 -0.238,-0.2809 -0.524,-0.5035 -0.828,-0.6973 -0.118,-0.135 -1.939,-2.2246 -1.939,-2.2246 -0.237,-0.2791 -0.521,-0.4993 -0.823,-0.6914 l -1.947,-2.2324 c -0.235,-0.2773 -0.518,-0.4951 -0.818,-0.6855 -0.119,-0.1364 -1.953,-2.2403 -1.953,-2.2403 -0.235,-0.2763 -0.517,-0.4945 -0.817,-0.6836 l -1.961,-2.248 c -0.235,-0.2771 -0.517,-0.4934 -0.818,-0.6817 -0.12,-0.137 -1.963,-2.25 -1.963,-2.25 -0.23,-0.271 -0.507,-0.4848 -0.801,-0.6699 l -1.976,-2.2676 c -0.231,-0.2726 -0.51,-0.4853 -0.807,-0.6699 -0.121,-0.1387 -1.978,-2.2695 -1.978,-2.2695 -0.23,-0.2712 -0.508,-0.4831 -0.803,-0.666 -0.122,-0.1395 -1.986,-2.2774 -1.986,-2.2774 -0.228,-0.2684 -0.503,-0.4792 -0.795,-0.6601 l -1.995,-2.2852 c -0.227,-0.2677 -0.502,-0.4767 -0.794,-0.6562 -0.123,-0.1408 -2,-2.293 -2,-2.293 -0.226,-0.2653 -0.498,-0.4728 -0.788,-0.6504 -0.123,-0.1416 -2.007,-2.3027 -2.007,-2.3027 -0.225,-0.2648 -0.498,-0.4702 -0.787,-0.6465 -0.124,-0.142 -2.014,-2.3086 -2.014,-2.3086 -0.224,-0.2643 -0.497,-0.4715 -0.787,-0.6465 l -2.018,-2.3125 c -0.22,-0.2599 -0.487,-0.4624 -0.771,-0.6348 -0.126,-0.1438 -2.032,-2.3281 -2.032,-2.3281 -0.221,-0.2619 -0.491,-0.4649 -0.779,-0.6367 -0.125,-0.1435 -2.031,-2.3281 -2.031,-2.3281 -0.22,-0.2586 -0.487,-0.4594 -0.772,-0.6289 l -2.041,-2.3399 c -0.218,-0.2573 -0.484,-0.4551 -0.767,-0.623 l -2.047,-2.3477 c -0.217,-0.255 -0.481,-0.4532 -0.762,-0.6191 l -2.054,-2.3555 c -0.215,-0.2532 -0.479,-0.4491 -0.758,-0.6133 -0.128,-0.1467 -2.063,-2.3652 -2.063,-2.3652 -0.214,-0.2527 -0.476,-0.4487 -0.756,-0.6113 l -2.068,-2.3711 c -0.214,-0.252 -0.474,-0.4464 -0.754,-0.6074 l -2.074,-2.377 c -0.212,-0.2499 -0.473,-0.4405 -0.75,-0.5996 -0.13,-0.1484 -2.08,-2.3867 -2.08,-2.3867 -0.21,-0.2479 -0.469,-0.4385 -0.744,-0.5957 -0.131,-0.1494 -2.09,-2.3965 -2.09,-2.3965 -0.209,-0.2459 -0.465,-0.4346 -0.738,-0.5899 l -2.098,-2.4043 c -0.209,-0.247 -0.466,-0.4357 -0.742,-0.5898 l -2.1,-2.4063 c -0.207,-0.2445 -0.461,-0.4319 -0.734,-0.5839 L 422,7349.3254 c -0.205,-0.242 -0.457,-0.4281 -0.728,-0.5781 -0.133,-0.1517 -2.115,-2.4258 -2.115,-2.4258 -0.203,-0.2392 -0.453,-0.4225 -0.721,-0.5703 l -2.125,-2.4375 c -0.205,-0.241 -0.455,-0.4257 -0.727,-0.5722 l -2.127,-2.4375 c -0.201,-0.2373 -0.448,-0.4184 -0.717,-0.5625 -0.133,-0.1538 -2.136,-2.4493 -2.136,-2.4493 -0.199,-0.2348 -0.446,-0.4146 -0.711,-0.5566 -0.135,-0.1548 -2.147,-2.4609 -2.147,-2.4609 -0.199,-0.2352 -0.444,-0.4144 -0.711,-0.5547 -0.135,-0.1549 -2.148,-2.4649 -2.148,-2.4649 -0.199,-0.2341 -0.443,-0.4124 -0.709,-0.5507 -0.136,-0.1557 -2.156,-2.4727 -2.156,-2.4727 -0.197,-0.2314 -0.439,-0.4068 -0.701,-0.543 l -2.164,-2.4824 c -0.196,-0.231 -0.438,-0.4088 -0.702,-0.543 l -2.17,-2.4863 c -0.193,-0.2285 -0.432,-0.4032 -0.693,-0.5351 l -2.178,-2.4961 c -0.192,-0.2274 -0.431,-0.4034 -0.691,-0.5332 l -2.184,-2.502 c -0.192,-0.2271 -0.43,-0.4035 -0.691,-0.5312 -0.138,-0.1585 -2.188,-2.5079 -2.188,-2.5079 -0.19,-0.2244 -0.425,-0.3979 -0.683,-0.5234 l -2.197,-2.5195 c -0.189,-0.2222 -0.422,-0.3926 -0.678,-0.5156 l -2.207,-2.5293 c -0.186,-0.2197 -0.419,-0.3891 -0.672,-0.5098 l -2.215,-2.5391 c -0.187,-0.2207 -0.42,-0.3912 -0.676,-0.5097 l -2.216,-2.5411 c -0.186,-0.2169 -0.413,-0.3839 -0.665,-0.5 l -2.228,-2.5546 c -0.183,-0.2158 -0.409,-0.3845 -0.66,-0.4981 l -2.235,-2.5605 c -0.183,-0.2159 -0.411,-0.3831 -0.664,-0.4942 l -2.238,-2.5664 c -0.179,-0.2115 -0.403,-0.3738 -0.65,-0.4824 l -2.252,-2.582 c -0.176,-0.2083 -0.399,-0.3667 -0.643,-0.4727 l -2.262,-2.5937 c -0.175,-0.2071 -0.397,-0.3635 -0.64,-0.4668 -0.146,-0.1671 -2.27,-2.6036 -2.27,-2.6036 -0.172,-0.2037 -0.39,-0.3582 -0.631,-0.4589 l -2.281,-2.6153 c -0.171,-0.2016 -0.387,-0.3531 -0.625,-0.4511 -0.148,-0.1694 -2.291,-2.627 -2.291,-2.627 -0.167,-0.1972 -0.38,-0.3421 -0.613,-0.4375 l -2.305,-2.6426 c -0.165,-0.1939 -0.373,-0.337 -0.603,-0.4297 l -2.315,-2.6543 c -0.164,-0.1933 -0.373,-0.3341 -0.603,-0.4238 l -2.323,-2.6621 c -0.16,-0.1889 -0.364,-0.325 -0.589,-0.4121 l -2.336,-2.6777 c -0.158,-0.1861 -0.362,-0.3182 -0.584,-0.4024 -0.154,-0.1756 -2.346,-2.6894 -2.346,-2.6894 -0.156,-0.1838 -0.358,-0.3154 -0.578,-0.3965 -0.154,-0.1768 -2.356,-2.7012 -2.356,-2.7012 -0.153,-0.181 -0.352,-0.3086 -0.57,-0.3867 -0.155,-0.1779 -2.365,-2.7129 -2.365,-2.7129 -0.151,-0.1777 -0.348,-0.3018 -0.563,-0.377 l -2.377,-2.7246 c -0.148,-0.1756 -0.341,-0.2972 -0.554,-0.3691 l -2.387,-2.7363 c -0.146,-0.1721 -0.338,-0.2906 -0.547,-0.3594 l -2.398,-2.75 c -0.144,-0.1688 -0.332,-0.2859 -0.537,-0.3516 l -2.411,-2.7617 c -0.14,-0.1663 -0.327,-0.2777 -0.531,-0.3398 l -2.42,-2.7754 c -0.139,-0.1645 -0.325,-0.2758 -0.527,-0.334 l -2.428,-2.7832 c -0.136,-0.1603 -0.318,-0.2672 -0.516,-0.3223 l -2.441,-2.8008 c -0.133,-0.157 -0.311,-0.261 -0.506,-0.3125 l -2.453,-2.8125 c -0.127,-0.1493 -0.299,-0.2335 -0.484,-0.2832 l -2.481,-2.8437 c -0.123,-0.1452 -0.292,-0.2252 -0.472,-0.2715 l -2.493,-2.8594 c -0.12,-0.1424 -0.288,-0.2214 -0.466,-0.2636 l -2.504,-2.8711 c -0.117,-0.1384 -0.282,-0.2133 -0.455,-0.252 l -2.518,-2.8867 c -0.114,-0.135 -0.273,-0.2077 -0.443,-0.2422 l -2.53,-2.8984 c -0.112,-0.1327 -0.271,-0.201 -0.439,-0.2305 l -2.541,-2.9141 c -0.109,-0.1285 -0.264,-0.1953 -0.428,-0.2207 l -2.553,-2.9258 c -0.106,-0.1257 -0.258,-0.191 -0.419,-0.2109 -0.177,-0.2019 -2.565,-2.9394 -2.565,-2.9394 -0.104,-0.1225 -0.252,-0.1868 -0.41,-0.2012 l -2.576,-2.9531 c -0.102,-0.1202 -0.251,-0.1841 -0.406,-0.1914 l -2.586,-2.9649 c -0.101,-0.1189 -0.251,-0.1855 -0.407,-0.1836 l -2.595,-2.9765 c -0.09,-0.1105 -0.231,-0.1734 -0.375,-0.17 l -2.612,-2.9941 c -0.09,-0.1013 -0.212,-0.1567 -0.345,-0.1524 -0.272,-0.3201 -0.553,-0.6317 -0.84,-0.9335 l -1.815,-2.0801 c -0.08,-0.091 -0.191,-0.1425 -0.31,-0.1387 -0.318,-0.3746 -0.651,-0.7325 -0.991,-1.082 l -1.701,-1.9492 c -0.07,-0.081 -0.171,-0.1266 -0.277,-0.1231 -0.385,-0.4546 -0.793,-0.8831 -1.211,-1.3008 l -1.523,-1.748 c -0.06,-0.071 -0.15,-0.1124 -0.243,-0.1094 -0.409,-0.4825 -0.841,-0.938 -1.287,-1.3789 l -1.474,-1.6895 c -0.05,-0.061 -0.129,-0.095 -0.209,-0.092 -0.451,-0.5316 -0.93,-1.0325 -1.424,-1.5136 l -1.373,-1.5742 c -0.04,-0.051 -0.106,-0.078 -0.172,-0.076 -0.538,-0.6349 -1.111,-1.2341 -1.711,-1.7969 l -1.141,-1.3086 c -0.03,-0.041 -0.09,-0.061 -0.138,-0.061 -0.555,-0.6544 -1.148,-1.2699 -1.768,-1.8477 l -1.113,-1.2773 c -0.03,-0.03 -0.06,-0.046 -0.106,-0.045 -0.57,-0.6727 -1.179,-1.3044 -1.818,-1.8964 l -1.088,-1.2461 c -0.02,-0.02 -0.04,-0.032 -0.07,-0.031 -0.63,-0.7426 -1.309,-1.432 -2.022,-2.0762 l -0.945,-1.0839 c 0,-0.01 -0.02,-0.015 -0.04,-0.014 -0.62,-0.7316 -1.287,-1.4126 -1.988,-2.0488 l -0.991,-1.1348 c -4.322,-5.0987 -10.736,-7.9447 -17.416,-7.7285 v 0 c -8.509,0.2752 -16.089,5.4597 -19.433,13.291 -3.344,7.8316 -1.846,16.8908 3.842,23.2285 0.08,0.095 24.275,27.8323 42.408,48.6211 H -73.55 c -0.329,-0.4356 -0.682,-0.8558 -1.082,-1.2422 -0.267,-0.2587 -0.548,-0.5019 -0.839,-0.7305 -0.383,-0.5446 -0.816,-1.0607 -1.305,-1.5332 -0.269,-0.26 -0.551,-0.5046 -0.844,-0.7343 -0.382,-0.5439 -0.813,-1.0596 -1.301,-1.5313 -0.269,-0.2607 -0.552,-0.506 -0.845,-0.7363 -0.383,-0.5452 -0.814,-1.0607 -1.303,-1.5332 -0.271,-0.2619 -0.557,-0.507 -0.852,-0.7383 -0.381,-0.5448 -0.814,-1.061 -1.302,-1.5332 -0.272,-0.2626 -0.556,-0.5083 -0.852,-0.7402 -0.382,-0.5461 -0.815,-1.0622 -1.305,-1.5352 -0.27,-0.2616 -0.553,-0.507 -0.847,-0.7383 -0.383,-0.5482 -0.818,-1.0665 -1.309,-1.541 -0.274,-0.2646 -0.561,-0.5124 -0.859,-0.7461 -0.382,-0.5465 -0.815,-1.0621 -1.305,-1.5351 -0.273,-0.2638 -0.559,-0.5111 -0.855,-0.7442 -0.382,-0.5486 -0.818,-1.0664 -1.309,-1.541 -0.274,-0.2651 -0.561,-0.5139 -0.859,-0.748 -0.382,-0.5487 -0.818,-1.0665 -1.309,-1.5411 -0.277,-0.2678 -0.568,-0.5175 -0.869,-0.7539 -0.38,-0.5466 -0.812,-1.0644 -1.301,-1.5371 -0.275,-0.2659 -0.564,-0.515 -0.863,-0.75 -0.382,-0.5504 -0.819,-1.0694 -1.311,-1.5449 -0.277,-0.2676 -0.568,-0.5175 -0.869,-0.7539 -0.381,-0.5501 -0.815,-1.0679 -1.306,-1.543 -0.28,-0.2706 -0.575,-0.5229 -0.879,-0.7617 -0.38,-0.5484 -0.813,-1.0655 -1.303,-1.539 -0.28,-0.2704 -0.573,-0.5251 -0.877,-0.7637 -0.38,-0.5492 -0.814,-1.067 -1.305,-1.541 -0.278,-0.2688 -0.57,-0.5203 -0.873,-0.7578 -0.381,-0.5527 -0.819,-1.0723 -1.312,-1.5489 -0.28,-0.2705 -0.575,-0.5247 -0.879,-0.7636 -0.38,-0.5523 -0.818,-1.0708 -1.311,-1.5469 -0.279,-0.2697 -0.571,-0.5234 -0.875,-0.7617 -0.38,-0.5544 -0.818,-1.0752 -1.312,-1.5528 -0.287,-0.2772 -0.588,-0.537 -0.901,-0.7812 -0.377,-0.5476 -0.81,-1.063 -1.298,-1.5352 -0.284,-0.274 -0.581,-0.5316 -0.889,-0.7734 -0.379,-0.5527 -0.816,-1.071 -1.309,-1.5469 -0.283,-0.2741 -0.58,-0.5314 -0.888,-0.7734 v 0 c -0.379,-0.5535 -0.82,-1.0724 -1.313,-1.5488 -0.285,-0.2759 -0.584,-0.5359 -0.894,-0.7793 -0.378,-0.5523 -0.816,-1.0716 -1.307,-1.5469 -0.287,-0.2772 -0.588,-0.5366 -0.9,-0.7812 -0.378,-0.5533 -0.813,-1.073 -1.305,-1.5489 -0.288,-0.2779 -0.591,-0.5379 -0.904,-0.7832 -0.378,-0.5537 -0.813,-1.0727 -1.305,-1.5488 -0.289,-0.279 -0.592,-0.541 -0.906,-0.7871 -0.378,-0.5537 -0.813,-1.0729 -1.305,-1.5488 -0.293,-0.2827 -0.601,-0.5458 -0.92,-0.795 -0.376,-0.5516 -0.81,-1.0707 -1.301,-1.5449 -0.291,-0.2818 -0.598,-0.5445 -0.916,-0.7929 -0.376,-0.5535 -0.809,-1.0735 -1.301,-1.5489 -0.292,-0.2825 -0.599,-0.5477 -0.918,-0.7968 -0.376,-0.5539 -0.808,-1.0733 -1.3,-1.5489 -0.296,-0.2862 -0.609,-0.5546 -0.932,-0.8066 -0.375,-0.5517 -0.807,-1.0693 -1.297,-1.543 -0.298,-0.2886 -0.614,-0.5566 -0.939,-0.8105 -0.374,-0.5513 -0.806,-1.0678 -1.295,-1.541 -0.296,-0.2861 -0.608,-0.5546 -0.93,-0.8067 -0.375,-0.5539 -0.807,-1.0737 -1.299,-1.5488 -0.298,-0.2881 -0.611,-0.5588 -0.935,-0.8125 -0.374,-0.553 -0.807,-1.0726 -1.297,-1.5469 -0.3,-0.2895 -0.617,-0.5576 -0.944,-0.8125 -0.373,-0.5537 -0.803,-1.0742 -1.294,-1.5488 -0.3,-0.29 -0.617,-0.5611 -0.944,-0.8164 -0.373,-0.5537 -0.804,-1.0744 -1.295,-1.5489 -0.304,-0.2939 -0.625,-0.5677 -0.957,-0.8261 -0.371,-0.5511 -0.8,-1.0688 -1.289,-1.541 -0.304,-0.2938 -0.624,-0.5678 -0.955,-0.8262 -0.371,-0.5524 -0.801,-1.0719 -1.291,-1.5449 -0.304,-0.2941 -0.623,-0.5694 -0.955,-0.8282 -0.372,-0.5536 -0.803,-1.073 -1.293,-1.5468 -0.306,-0.2963 -0.631,-0.5716 -0.965,-0.8321 -0.371,-0.5529 -0.799,-1.0718 -1.289,-1.5449 -0.307,-0.2966 -0.63,-0.5751 -0.965,-0.8359 -0.37,-0.5529 -0.8,-1.072 -1.289,-1.5449 -0.308,-0.2984 -0.634,-0.5776 -0.97,-0.8399 -0.37,-0.5524 -0.797,-1.0725 -1.286,-1.5449 -0.312,-0.3018 -0.641,-0.5808 -0.982,-0.8457 -0.369,-0.5512 -0.794,-1.0697 -1.281,-1.541 -0.312,-0.3016 -0.642,-0.5828 -0.983,-0.8477 -0.368,-0.5517 -0.795,-1.0714 -1.283,-1.543 -0.314,-0.3039 -0.645,-0.5867 -0.988,-0.8535 -0.368,-0.5508 -0.793,-1.0704 -1.28,-1.541 -0.313,-0.3037 -0.645,-0.5849 -0.988,-0.8515 -0.368,-0.5527 -0.793,-1.0732 -1.281,-1.545 -0.317,-0.306 -0.65,-0.5908 -0.996,-0.8593 -0.367,-0.5509 -0.791,-1.0708 -1.277,-1.5411 -0.319,-0.3074 -0.653,-0.5916 -1,-0.8613 -0.367,-0.5513 -0.791,-1.0705 -1.278,-1.541 -0.316,-0.306 -0.651,-0.5907 -0.996,-0.8594 -0.367,-0.5539 -0.791,-1.0746 -1.279,-1.5469 -0.321,-0.31 -0.662,-0.5973 -1.012,-0.8691 -0.365,-0.5513 -0.787,-1.0709 -1.273,-1.541 -0.321,-0.3101 -0.662,-0.5971 -1.012,-0.8691 -0.365,-0.5523 -0.787,-1.0724 -1.274,-1.543 -0.322,-0.3122 -0.662,-0.6014 -1.015,-0.875 -0.365,-0.5522 -0.787,-1.0707 -1.274,-1.541 -0.325,-0.3146 -0.669,-0.6053 -1.025,-0.8809 -0.362,-0.5509 -0.782,-1.0698 -1.268,-1.5391 -0.324,-0.3137 -0.667,-0.6039 -1.021,-0.8789 -0.364,-0.5526 -0.785,-1.0726 -1.272,-1.5429 -0.327,-0.3168 -0.673,-0.6113 -1.031,-0.8887 -0.362,-0.5504 -0.781,-1.0686 -1.265,-1.5371 -0.33,-0.3185 -0.679,-0.6138 -1.039,-0.8926 -0.361,-0.5501 -0.78,-1.0671 -1.264,-1.5351 -0.33,-0.3189 -0.679,-0.6154 -1.039,-0.8946 -0.361,-0.5513 -0.779,-1.0703 -1.264,-1.539 -0.331,-0.3201 -0.681,-0.6144 -1.043,-0.8946 -0.361,-0.5514 -0.779,-1.0704 -1.264,-1.539 -0.331,-0.3219 -0.684,-0.6188 -1.048,-0.9004 -0.36,-0.551 -0.778,-1.071 -1.262,-1.5391 -0.334,-0.3232 -0.689,-0.6215 -1.055,-0.9043 -0.358,-0.5506 -0.774,-1.0695 -1.258,-1.5371 -0.335,-0.324 -0.69,-0.6228 -1.056,-0.9062 -0.358,-0.5512 -0.776,-1.0693 -1.26,-1.5372 -0.337,-0.3258 -0.694,-0.6271 -1.062,-0.9121 -0.358,-0.5506 -0.773,-1.0699 -1.256,-1.5371 -0.339,-0.3278 -0.698,-0.6294 -1.069,-0.916 -0.356,-0.5497 -0.769,-1.0688 -1.252,-1.5351 -0.339,-0.328 -0.699,-0.6293 -1.07,-0.9161 -0.356,-0.5515 -0.772,-1.0696 -1.256,-1.5371 -0.342,-0.3306 -0.704,-0.6369 -1.078,-0.9257 -0.355,-0.5493 -0.768,-1.0676 -1.25,-1.5333 -0.34,-0.3291 -0.702,-0.632 -1.074,-0.9199 -0.356,-0.5524 -0.77,-1.0713 -1.254,-1.539 -0.345,-0.3333 -0.711,-0.6407 -1.088,-0.9317 -0.354,-0.5497 -0.766,-1.0677 -1.248,-1.5332 -0.344,-0.333 -0.709,-0.6407 -1.086,-0.9316 -0.354,-0.5511 -0.767,-1.0688 -1.25,-1.5352 -0.349,-0.3377 -0.719,-0.6488 -1.101,-0.9433 -0.353,-0.5478 -0.763,-1.0637 -1.243,-1.5274 -0.346,-0.3345 -0.713,-0.6432 -1.091,-0.9355 -0.354,-0.5519 -0.766,-1.0706 -1.249,-1.5371 -0.347,-0.3364 -0.716,-0.6477 -1.097,-0.9414 -0.353,-0.5514 -0.764,-1.0692 -1.246,-1.5352 -0.352,-0.3404 -0.728,-0.6542 -1.114,-0.9512 -0.35,-0.5488 -0.76,-1.0654 -1.24,-1.5293 -0.352,-0.3402 -0.724,-0.6543 -1.109,-0.9511 -0.351,-0.55 -0.76,-1.0668 -1.24,-1.5313 -0.354,-0.3416 -0.729,-0.657 -1.116,-0.9551 -0.35,-0.5503 -0.76,-1.0667 -1.24,-1.5312 -0.354,-0.3424 -0.729,-0.6584 -1.117,-0.957 -0.35,-0.5509 -0.759,-1.0686 -1.24,-1.5333 -0.356,-0.3435 -0.734,-0.6592 -1.123,-0.9589 -0.35,-0.5509 -0.758,-1.0687 -1.239,-1.5332 -0.356,-0.3444 -0.735,-0.6606 -1.125,-0.961 -0.348,-0.5514 -0.757,-1.0705 -1.238,-1.5351 -0.359,-0.3474 -0.741,-0.666 -1.135,-0.9688 -0.347,-0.5495 -0.753,-1.0662 -1.232,-1.5293 -0.36,-0.3482 -0.744,-0.6691 -1.139,-0.9726 -0.347,-0.5501 -0.753,-1.0681 -1.232,-1.5313 -0.363,-0.3502 -0.748,-0.6714 -1.145,-0.9765 -0.346,-0.5489 -0.752,-1.0653 -1.23,-1.5274 -0.363,-0.3504 -0.748,-0.6731 -1.145,-0.9785 -0.345,-0.5501 -0.751,-1.0685 -1.23,-1.5313 -0.365,-0.3522 -0.753,-0.6755 -1.153,-0.9824 -0.344,-0.5495 -0.75,-1.0671 -1.228,-1.5293 -0.365,-0.353 -0.754,-0.6768 -1.154,-0.9844 -0.345,-0.55 -0.75,-1.0668 -1.229,-1.5293 -0.367,-0.3544 -0.756,-0.6815 -1.158,-0.9902 -0.344,-0.5495 -0.749,-1.0676 -1.227,-1.5293 -0.368,-0.3556 -0.758,-0.6805 -1.162,-0.9902 -0.343,-0.5503 -0.747,-1.0692 -1.224,-1.5313 -0.37,-0.3573 -0.763,-0.685 -1.168,-0.9961 -0.343,-0.5497 -0.748,-1.0659 -1.225,-1.5273 -0.371,-0.3584 -0.765,-0.688 -1.172,-1 -0.341,-0.5498 -0.743,-1.0662 -1.22,-1.5273 -0.373,-0.3599 -0.77,-0.6907 -1.178,-1.004 -0.341,-0.55 -0.746,-1.0661 -1.223,-1.5273 -0.373,-0.3611 -0.77,-0.6916 -1.18,-1.0059 -0.34,-0.5503 -0.741,-1.0681 -1.218,-1.5293 -0.376,-0.3631 -0.776,-0.6958 -1.188,-1.0117 -0.339,-0.5489 -0.741,-1.0655 -1.217,-1.5254 -0.373,-0.3612 -0.77,-0.6932 -1.179,-1.0078 -0.34,-0.5522 -0.745,-1.0712 -1.223,-1.5332 -0.381,-0.368 -0.785,-0.7037 -1.203,-1.0234 -0.337,-0.5474 -0.737,-1.0613 -1.211,-1.5195 -0.379,-0.366 -0.782,-0.7013 -1.197,-1.0196 -0.338,-0.5503 -0.737,-1.0672 -1.213,-1.5273 -0.381,-0.3681 -0.787,-0.7055 -1.205,-1.0254 -0.337,-0.5497 -0.738,-1.066 -1.213,-1.5254 -0.382,-0.3695 -0.79,-0.7082 -1.209,-1.0293 -0.336,-0.5491 -0.734,-1.0647 -1.209,-1.5234 -0.384,-0.3709 -0.792,-0.711 -1.213,-1.0332 -0.335,-0.5494 -0.735,-1.0648 -1.209,-1.5235 -0.386,-0.3727 -0.795,-0.7133 -1.219,-1.0371 -0.334,-0.5491 -0.733,-1.0632 -1.207,-1.5215 -0.387,-0.3738 -0.798,-0.7163 -1.222,-1.041 -0.334,-0.549 -0.731,-1.0655 -1.206,-1.5234 -0.385,-0.3733 -0.796,-0.7146 -1.22,-1.0391 -0.333,-0.5506 -0.733,-1.0665 -1.207,-1.5254 -0.391,-0.3774 -0.806,-0.7232 -1.235,-1.0508 -0.331,-0.5482 -0.728,-1.0626 -1.201,-1.5195 -0.391,-0.3776 -0.807,-0.7229 -1.236,-1.0508 -0.331,-0.549 -0.728,-1.0642 -1.201,-1.5215 -0.392,-0.3784 -0.809,-0.7241 -1.239,-1.0527 -0.33,-0.5499 -0.727,-1.0659 -1.201,-1.5234 -0.392,-0.3793 -0.811,-0.7254 -1.242,-1.0547 -0.33,-0.5505 -0.727,-1.0658 -1.201,-1.5235 -0.395,-0.3817 -0.816,-0.7312 -1.25,-1.0625 -0.329,-0.5487 -0.723,-1.0633 -1.195,-1.5195 -0.396,-0.3825 -0.818,-0.7325 -1.252,-1.0644 -0.328,-0.5497 -0.724,-1.0649 -1.196,-1.5215 -0.399,-0.386 -0.826,-0.7377 -1.265,-1.0723 -0.327,-0.5473 -0.719,-1.061 -1.19,-1.5156 -0.397,-0.3842 -0.821,-0.7349 -1.258,-1.0684 -0.327,-0.5509 -0.722,-1.0664 -1.195,-1.5234 -0.401,-0.3872 -0.827,-0.7404 -1.267,-1.0762 -0.326,-0.549 -0.721,-1.0622 -1.192,-1.5176 -0.401,-0.3874 -0.829,-0.742 -1.269,-1.0781 -0.325,-0.5502 -0.72,-1.0656 -1.192,-1.5215 -0.402,-0.3888 -0.831,-0.7428 -1.273,-1.08 -0.324,-0.5503 -0.718,-1.0639 -1.19,-1.5196 -0.404,-0.391 -0.836,-0.749 -1.281,-1.0879 -0.323,-0.5494 -0.717,-1.0627 -1.187,-1.5175 -0.405,-0.3912 -0.837,-0.7487 -1.282,-1.0879 -0.322,-0.5503 -0.716,-1.0644 -1.187,-1.5196 -0.407,-0.3936 -0.842,-0.7526 -1.289,-1.0937 -0.322,-0.5496 -0.716,-1.0632 -1.186,-1.5176 -0.408,-0.3944 -0.842,-0.7539 -1.291,-1.0957 -0.321,-0.5496 -0.713,-1.0635 -1.183,-1.5176 -0.411,-0.3969 -0.848,-0.7597 -1.299,-1.1035 -0.32,-0.5488 -0.713,-1.0605 -1.182,-1.5137 -0.411,-0.3971 -0.849,-0.7594 -1.301,-1.1035 -0.319,-0.5499 -0.71,-1.0638 -1.179,-1.5176 -0.413,-0.3992 -0.855,-0.7636 -1.309,-1.1093 -0.318,-0.5488 -0.709,-1.0611 -1.178,-1.5137 -0.414,-0.4007 -0.856,-0.7664 -1.312,-1.1133 -0.317,-0.5488 -0.708,-1.0613 -1.176,-1.5137 -0.416,-0.4019 -0.859,-0.7672 -1.316,-1.1152 -0.317,-0.5492 -0.706,-1.0613 -1.174,-1.5137 -0.417,-0.4027 -0.861,-0.7704 -1.321,-1.1191 -0.314,-0.5499 -0.705,-1.0611 -1.173,-1.5137 -0.421,-0.4061 -0.87,-0.7756 -1.332,-1.1269 -0.315,-0.5482 -0.704,-1.0588 -1.17,-1.5098 -0.417,-0.4027 -0.861,-0.7702 -1.319,-1.1191 -0.314,-0.5531 -0.707,-1.0673 -1.177,-1.5215 -0.423,-0.4085 -0.873,-0.7796 -1.338,-1.1328 -0.313,-0.5482 -0.7,-1.0594 -1.166,-1.5098 -0.423,-0.4083 -0.874,-0.7795 -1.338,-1.1328 -0.312,-0.5498 -0.7,-1.0604 -1.166,-1.5117 -0.424,-0.4099 -0.877,-0.7842 -1.344,-1.1387 -0.311,-0.5499 -0.701,-1.0607 -1.168,-1.5117 -0.426,-0.4123 -0.88,-0.7881 -1.35,-1.1446 -0.309,-0.5483 -0.698,-1.0581 -1.164,-1.5078 -0.426,-0.4121 -0.88,-0.788 -1.349,-1.1445 -0.309,-0.5499 -0.698,-1.0593 -1.164,-1.5098 -0.429,-0.4143 -0.888,-0.7921 -1.36,-1.1504 -0.307,-0.5488 -0.695,-1.0604 -1.16,-1.5097 -0.429,-0.4148 -0.887,-0.7917 -1.359,-1.1504 -0.307,-0.5504 -0.697,-1.0596 -1.162,-1.5098 -0.433,-0.4182 -0.895,-0.7988 -1.371,-1.1601 -0.305,-0.5487 -0.691,-1.0572 -1.155,-1.5059 -0.432,-0.4177 -0.893,-0.799 -1.369,-1.1601 -0.304,-0.5498 -0.691,-1.0588 -1.156,-1.5079 -0.432,-0.4179 -0.893,-0.8006 -1.369,-1.1621 -0.304,-0.5504 -0.694,-1.0605 -1.158,-1.5097 -0.438,-0.4228 -0.905,-0.8088 -1.387,-1.1739 -0.303,-0.5473 -0.688,-1.0533 -1.15,-1.5 -0.439,-0.4229 -0.906,-0.8085 -1.387,-1.1738 -0.302,-0.5486 -0.688,-1.0566 -1.151,-1.5039 -0.436,-0.422 -0.904,-0.8072 -1.384,-1.1719 v 0 c -0.301,-0.5507 -0.689,-1.0594 -1.153,-1.5078 -0.441,-0.4264 -0.912,-0.8136 -1.398,-1.1817 -0.299,-0.5485 -0.683,-1.0553 -1.145,-1.5019 -0.441,-0.4265 -0.912,-0.8154 -1.398,-1.1836 -0.299,-0.5498 -0.684,-1.0568 -1.147,-1.5039 -0.445,-0.4307 -0.923,-0.8219 -1.414,-1.1934 -0.296,-0.5472 -0.676,-1.053 -1.136,-1.498 -0.446,-0.4306 -0.922,-0.8219 -1.412,-1.1934 -0.295,-0.5479 -0.677,-1.0548 -1.137,-1.5 -0.45,-0.4346 -0.93,-0.8286 -1.426,-1.2031 -0.294,-0.5455 -0.672,-1.0511 -1.131,-1.4942 -0.45,-0.4355 -0.934,-0.8316 -1.429,-1.207 -0.294,-0.5452 -0.671,-1.0516 -1.129,-1.4941 -0.453,-0.4376 -0.937,-0.834 -1.436,-1.211 -0.291,-0.545 -0.668,-1.0501 -1.125,-1.4922 -0.452,-0.4366 -0.936,-0.8325 -1.434,-1.2089 -0.29,-0.547 -0.666,-1.0531 -1.125,-1.4961 -0.459,-0.4437 -0.95,-0.8469 -1.457,-1.2286 -0.288,-0.5417 -0.661,-1.0434 -1.115,-1.4824 -0.458,-0.4428 -0.95,-0.8434 -1.455,-1.2246 -0.287,-0.5436 -0.658,-1.0483 -1.113,-1.4883 -0.459,-0.4434 -0.951,-0.8467 -1.457,-1.2285 -0.287,-0.5442 -0.66,-1.0481 -1.115,-1.4883 -0.464,-0.4481 -0.96,-0.8549 -1.471,-1.2402 -0.285,-0.5405 -0.655,-1.0414 -1.108,-1.4785 -0.463,-0.4477 -0.959,-0.8531 -1.47,-1.2383 -0.284,-0.5429 -0.654,-1.0459 -1.108,-1.4844 -0.466,-0.4508 -0.965,-0.8585 -1.48,-1.2461 -0.283,-0.5413 -0.65,-1.0415 -1.102,-1.4785 -0.468,-0.4523 -0.97,-0.8631 -1.486,-1.2519 -0.281,-0.5406 -0.648,-1.0425 -1.1,-1.4785 -0.47,-0.4543 -0.973,-0.8656 -1.492,-1.2559 -0.28,-0.54 -0.645,-1.0413 -1.096,-1.4766 -0.472,-0.4566 -0.978,-0.8695 -1.5,-1.2617 -0.278,-0.5392 -0.642,-1.0382 -1.091,-1.4726 -0.474,-0.4575 -0.982,-0.8708 -1.504,-1.2637 -0.278,-0.5397 -0.639,-1.0403 -1.088,-1.4746 -0.476,-0.4598 -0.987,-0.8768 -1.512,-1.2715 -0.276,-0.5388 -0.639,-1.0373 -1.088,-1.4707 -0.477,-0.4617 -0.99,-0.8791 -1.517,-1.2754 -0.275,-0.5377 -0.636,-1.0365 -1.082,-1.4688 -0.479,-0.463 -0.993,-0.8818 -1.522,-1.2793 -0.273,-0.5384 -0.634,-1.0363 -1.082,-1.4687 -0.481,-0.4656 -0.997,-0.8878 -1.529,-1.2871 -0.272,-0.5368 -0.63,-1.034 -1.076,-1.4649 -0.485,-0.4687 -1.005,-0.8931 -1.541,-1.2949 -0.271,-0.5349 -0.627,-1.0298 -1.071,-1.459 -0.484,-0.4677 -1.004,-0.8898 -1.539,-1.291 -0.269,-0.5375 -0.625,-1.0362 -1.07,-1.4668 -0.487,-0.471 -1.01,-0.8971 -1.549,-1.3008 -0.268,-0.5353 -0.623,-1.0323 -1.066,-1.4609 -0.489,-0.4723 -1.015,-0.8979 -1.555,-1.3027 -0.266,-0.5356 -0.621,-1.0325 -1.064,-1.461 -0.489,-0.4723 -1.013,-0.8997 -1.553,-1.3046 -0.265,-0.5368 -0.619,-1.0341 -1.063,-1.4629 -0.494,-0.4781 -1.027,-0.9092 -1.574,-1.3184 -0.263,-0.5329 -0.614,-1.0254 -1.055,-1.4512 -0.494,-0.4783 -1.026,-0.9108 -1.574,-1.3203 -0.262,-0.5334 -0.612,-1.0274 -1.053,-1.4531 -0.497,-0.4811 -1.031,-0.9165 -1.582,-1.3281 -0.26,-0.5318 -0.61,-1.0251 -1.048,-1.4493 -0.499,-0.4823 -1.036,-0.9174 -1.588,-1.33 -0.26,-0.5323 -0.607,-1.0271 -1.045,-1.4512 -0.503,-0.4855 -1.044,-0.9228 -1.6,-1.3379 -0.257,-0.5304 -0.604,-1.0229 -1.041,-1.4453 -0.501,-0.4847 -1.041,-0.9212 -1.596,-1.3359 -0.256,-0.5326 -0.602,-1.0258 -1.041,-1.4493 -0.505,-0.4885 -1.048,-0.9301 -1.607,-1.3476 -0.255,-0.5304 -0.601,-1.0199 -1.037,-1.4414 -0.505,-0.4878 -1.047,-0.9286 -1.606,-1.3457 -0.253,-0.5325 -0.6,-1.0247 -1.037,-1.4473 -0.509,-0.4923 -1.057,-0.9369 -1.621,-1.3574 -0.251,-0.5296 -0.593,-1.0192 -1.027,-1.4395 -0.511,-0.4937 -1.061,-0.9376 -1.627,-1.3593 -0.25,-0.5296 -0.591,-1.0198 -1.025,-1.4395 -0.519,-0.5015 -1.078,-0.9535 -1.653,-1.3809 -0.248,-0.5209 -0.576,-1.0085 -1.004,-1.4218 -0.519,-0.5024 -1.078,-0.9547 -1.654,-1.3828 -0.247,-0.5219 -0.576,-1.0084 -1.004,-1.4219 -0.52,-0.5031 -1.081,-0.956 -1.658,-1.3848 -0.245,-0.5225 -0.572,-1.0122 -1,-1.4258 -0.524,-0.5059 -1.088,-0.9596 -1.668,-1.3906 -0.244,-0.5217 -0.569,-1.0073 -0.996,-1.4199 -0.524,-0.506 -1.088,-0.9614 -1.668,-1.3926 -0.242,-0.5228 -0.569,-1.0109 -0.996,-1.4238 -0.527,-0.5087 -1.094,-0.9652 -1.678,-1.3985 -0.24,-0.5221 -0.568,-1.0078 -0.994,-1.4199 -0.528,-0.5107 -1.098,-0.9694 -1.684,-1.4043 -0.238,-0.5206 -0.565,-1.0054 -0.99,-1.416 -0.529,-0.5117 -1.098,-0.9725 -1.685,-1.4082 -0.238,-0.5216 -0.566,-1.0072 -0.991,-1.418 -0.53,-0.5129 -1.103,-0.9733 -1.691,-1.4101 -0.235,-0.5216 -0.562,-1.0057 -0.986,-1.416 -0.533,-0.5145 -1.107,-0.9779 -1.698,-1.4161 -0.233,-0.5216 -0.56,-1.0061 -0.984,-1.416 -0.535,-0.517 -1.112,-0.9819 -1.705,-1.4218 -0.232,-0.521 -0.558,-1.0031 -0.981,-1.4122 -0.535,-0.5173 -1.113,-0.9814 -1.707,-1.4218 -0.23,-0.5226 -0.556,-1.0065 -0.98,-1.416 -0.538,-0.5204 -1.119,-0.987 -1.717,-1.4297 -0.228,-0.521 -0.552,-1.0022 -0.975,-1.4102 -0.539,-0.5211 -1.12,-0.9902 -1.718,-1.4336 -0.227,-0.5213 -0.555,-1.0024 -0.977,-1.4101 -0.541,-0.5228 -1.122,-0.9928 -1.722,-1.4375 -0.226,-0.5214 -0.552,-1.0029 -0.973,-1.4102 -0.543,-0.5248 -1.128,-0.9951 -1.731,-1.4414 -0.223,-0.5214 -0.548,-1.0034 -0.968,-1.4102 -0.544,-0.5256 -1.131,-0.9962 -1.735,-1.4433 -0.221,-0.5224 -0.549,-1.0032 -0.97,-1.4102 -0.546,-0.5272 -1.133,-1.0008 -1.739,-1.4492 -0.219,-0.5217 -0.547,-1.0002 -0.967,-1.4062 -0.547,-0.5294 -1.138,-1.0051 -1.746,-1.4551 -0.217,-0.5209 -0.542,-0.9994 -0.963,-1.4043 -0.55,-0.5327 -1.143,-1.0123 -1.755,-1.4649 -0.216,-0.519 -0.538,-0.9952 -0.955,-1.3984 -0.555,-0.5361 -1.154,-1.0175 -1.77,-1.4727 -0.214,-0.5172 -0.534,-0.9929 -0.949,-1.3945 -0.555,-0.5363 -1.153,-1.0172 -1.77,-1.4726 -0.211,-0.5178 -0.528,-0.9952 -0.943,-1.3965 -0.56,-0.5414 -1.165,-1.0272 -1.787,-1.4864 -0.21,-0.5138 -0.526,-0.9884 -0.938,-1.3867 -0.562,-0.5432 -1.168,-1.0296 -1.793,-1.4902 -0.207,-0.5135 -0.518,-0.9873 -0.929,-1.3848 -0.567,-0.5476 -1.179,-1.0381 -1.809,-1.5019 -0.205,-0.511 -0.511,-0.9817 -0.92,-1.377 -0.567,-0.5486 -1.179,-1.0412 -1.81,-1.5058 -0.203,-0.5109 -0.508,-0.9824 -0.916,-1.377 -0.572,-0.5527 -1.19,-1.0479 -1.827,-1.5156 -0.201,-0.5083 -0.506,-0.9768 -0.912,-1.3692 -0.572,-0.5532 -1.191,-1.0492 -1.828,-1.5175 -0.199,-0.5089 -0.502,-0.9789 -0.908,-1.3711 -0.576,-0.557 -1.199,-1.0564 -1.84,-1.5274 -0.196,-0.5063 -0.495,-0.9751 -0.898,-1.3652 -0.578,-0.5588 -1.202,-1.0588 -1.846,-1.5313 -0.194,-0.5061 -0.49,-0.9739 -0.893,-1.3632 -0.583,-0.5642 -1.215,-1.0686 -1.865,-1.545 -0.192,-0.5021 -0.485,-0.9673 -0.885,-1.3535 -0.583,-0.5637 -1.213,-1.0687 -1.863,-1.5449 -0.19,-0.504 -0.482,-0.9705 -0.883,-1.3574 -0.588,-0.5684 -1.223,-1.0751 -1.879,-1.5547 -0.187,-0.5007 -0.475,-0.9655 -0.873,-1.3496 -0.59,-0.5704 -1.229,-1.0794 -1.886,-1.5606 -0.186,-0.4998 -0.473,-0.9627 -0.87,-1.3457 -0.593,-0.5735 -1.235,-1.0867 -1.896,-1.5703 -0.183,-0.498 -0.467,-0.9606 -0.861,-1.3418 -0.595,-0.5752 -1.239,-1.0893 -1.903,-1.5742 -0.181,-0.4977 -0.462,-0.9594 -0.855,-1.3398 -0.598,-0.5777 -1.246,-1.0934 -1.912,-1.5801 -0.179,-0.4968 -0.46,-0.9587 -0.852,-1.3379 -0.601,-0.5814 -1.253,-1.1003 -1.924,-1.5898 -0.176,-0.4944 -0.453,-0.9531 -0.843,-1.3301 -0.604,-0.584 -1.258,-1.1062 -1.932,-1.5977 -0.174,-0.4931 -0.449,-0.9505 -0.838,-1.3262 -0.607,-0.5866 -1.264,-1.11 -1.941,-1.6035 -0.172,-0.492 -0.445,-0.9499 -0.832,-1.3242 -0.61,-0.5893 -1.269,-1.1158 -1.95,-1.6113 -0.169,-0.4904 -0.44,-0.9457 -0.826,-1.3184 -0.613,-0.5924 -1.276,-1.1193 -1.961,-1.6172 -0.167,-0.4894 -0.436,-0.9449 -0.82,-1.3164 -0.614,-0.5933 -1.278,-1.1224 -1.963,-1.6211 -0.164,-0.4892 -0.431,-0.9437 -0.814,-1.3144 -0.618,-0.5968 -1.287,-1.1277 -1.977,-1.6289 -0.162,-0.4882 -0.426,-0.9412 -0.808,-1.3106 -0.621,-0.6001 -1.295,-1.1349 -1.989,-1.6386 -0.159,-0.4857 -0.421,-0.9375 -0.801,-1.3047 -0.623,-0.6023 -1.297,-1.1392 -1.994,-1.6446 -0.157,-0.4848 -0.418,-0.9347 -0.797,-1.3007 -0.626,-0.6052 -1.304,-1.1449 -2.003,-1.6524 -0.155,-0.4834 -0.412,-0.9324 -0.79,-1.2969 -0.628,-0.6073 -1.309,-1.149 -2.011,-1.6582 -0.152,-0.4825 -0.409,-0.9316 -0.785,-1.2949 -0.633,-0.611 -1.317,-1.1541 -2.024,-1.666 -0.149,-0.4808 -0.403,-0.9275 -0.777,-1.2891 -0.635,-0.6133 -1.322,-1.1601 -2.031,-1.6738 -0.147,-0.4795 -0.4,-0.9251 -0.772,-1.2851 -0.636,-0.6151 -1.325,-1.1628 -2.037,-1.6778 -0.143,-0.4793 -0.394,-0.9258 -0.766,-1.2851 -0.641,-0.6197 -1.335,-1.1712 -2.052,-1.6895 -0.141,-0.4761 -0.389,-0.9188 -0.758,-1.2754 -0.642,-0.6205 -1.338,-1.1742 -2.057,-1.6933 -0.138,-0.4761 -0.388,-0.9196 -0.756,-1.2754 -0.645,-0.6239 -1.344,-1.1796 -2.066,-1.7012 -0.135,-0.4747 -0.382,-0.9172 -0.748,-1.2715 -0.648,-0.6258 -1.35,-1.1819 -2.074,-1.7051 -0.132,-0.4741 -0.377,-0.9162 -0.743,-1.2695 -0.65,-0.6289 -1.357,-1.1875 -2.085,-1.7129 -0.13,-0.4726 -0.373,-0.912 -0.737,-1.2637 -0.653,-0.6312 -1.36,-1.1935 -2.092,-1.7207 -0.125,-0.4718 -0.367,-0.9112 -0.73,-1.2617 -0.657,-0.6348 -1.37,-1.1987 -2.106,-1.7285 -0.122,-0.47 -0.364,-0.9072 -0.724,-1.2559 -0.659,-0.6367 -1.373,-1.203 -2.111,-1.7343 -0.121,-0.4691 -0.36,-0.9065 -0.719,-1.2539 -0.663,-0.6401 -1.381,-1.2084 -2.123,-1.7422 -0.116,-0.4673 -0.354,-0.9025 -0.711,-1.2481 -0.665,-0.6421 -1.384,-1.2126 -2.129,-1.748 -0.112,-0.4672 -0.349,-0.9014 -0.705,-1.2461 -0.67,-0.6469 -1.396,-1.221 -2.147,-1.7598 -0.11,-0.4639 -0.34,-0.8943 -0.693,-1.2363 -0.67,-0.6473 -1.397,-1.2225 -2.149,-1.7617 -0.103,-0.4654 -0.341,-0.8981 -0.695,-1.2403 -0.672,-0.65 -1.402,-1.2262 -2.156,-1.7675 -0.101,-0.4637 -0.335,-0.894 -0.688,-1.2344 -0.675,-0.6531 -1.41,-1.2338 -2.168,-1.7774 -0.1,-0.462 -0.327,-0.8918 -0.677,-1.2304 -0.679,-0.6565 -1.418,-1.2391 -2.18,-1.7852 -0.09,-0.4602 -0.326,-0.8877 -0.674,-1.2246 -0.683,-0.6602 -1.425,-1.2462 -2.191,-1.7949 -0.09,-0.4578 -0.318,-0.8842 -0.664,-1.2188 -0.686,-0.6628 -1.43,-1.252 -2.199,-1.8027 -0.09,-0.4559 -0.312,-0.8802 -0.657,-1.2129 -0.69,-0.6675 -1.441,-1.2604 -2.217,-1.8144 -0.08,-0.4532 -0.301,-0.8749 -0.642,-1.2051 -0.695,-0.6713 -1.45,-1.2675 -2.231,-1.8242 -0.08,-0.4505 -0.295,-0.8715 -0.634,-1.1993 -0.692,-0.6687 -1.444,-1.261 -2.221,-1.8164 0,-0.01 -0.01,-0.019 -0.02,-0.027 -0.08,-0.4441 -0.289,-0.8587 -0.624,-1.1816 -0.695,-0.6721 -1.449,-1.2685 -2.23,-1.8262 0,-0.01 -0.02,-0.018 -0.02,-0.027 -0.08,-0.4419 -0.282,-0.8549 -0.614,-1.1757 -0.692,-0.6688 -1.444,-1.2626 -2.22,-1.8184 -0.02,-0.018 -0.03,-0.035 -0.05,-0.053 -0.07,-0.4364 -0.276,-0.8455 -0.604,-1.1621 -0.693,-0.6706 -1.446,-1.2651 -2.224,-1.8223 -0.02,-0.02 -0.04,-0.04 -0.06,-0.061 -0.07,-0.4328 -0.269,-0.8387 -0.594,-1.1523 -0.693,-0.6705 -1.446,-1.2648 -2.224,-1.8223 -0.02,-0.025 -0.05,-0.051 -0.07,-0.076 -0.07,-0.4286 -0.261,-0.8306 -0.582,-1.1407 -0.694,-0.6713 -1.449,-1.2659 -2.228,-1.8242 -0.03,-0.03 -0.06,-0.06 -0.08,-0.09 -0.06,-0.4236 -0.256,-0.8208 -0.572,-1.127 -0.698,-0.6739 -1.454,-1.2718 -2.237,-1.832 -0.03,-0.032 -0.06,-0.064 -0.09,-0.096 -0.06,-0.42 -0.247,-0.814 -0.56,-1.1172 -0.695,-0.6719 -1.449,-1.269 -2.229,-1.8281 -0.04,-0.038 -0.07,-0.076 -0.105,-0.1133 -0.06,-0.416 -0.243,-0.8075 -0.553,-1.1074 -0.699,-0.6754 -1.456,-1.2743 -2.24,-1.836 -0.04,-0.04 -0.07,-0.081 -0.112,-0.1211 -0.05,-0.4113 -0.232,-0.7975 -0.539,-1.0937 -0.697,-0.6745 -1.455,-1.2748 -2.238,-1.8359 -0.04,-0.045 -0.08,-0.09 -0.125,-0.1348 -0.05,-0.4073 -0.226,-0.791 -0.529,-1.084 -0.698,-0.6741 -1.454,-1.2727 -2.236,-1.834 -0.05,-0.051 -0.09,-0.1018 -0.141,-0.1523 -0.05,-0.4027 -0.221,-0.783 -0.52,-1.0723 -0.7,-0.6773 -1.46,-1.2781 -2.246,-1.8418 -0.05,-0.053 -0.1,-0.1058 -0.146,-0.1582 -0.04,-0.3986 -0.212,-0.7746 -0.508,-1.0605 -0.697,-0.6741 -1.456,-1.2722 -2.238,-1.834 -0.06,-0.061 -0.112,-0.1231 -0.168,-0.1836 -0.04,-0.3935 -0.205,-0.7649 -0.496,-1.0469 -0.699,-0.6752 -1.457,-1.2751 -2.241,-1.8379 -0.06,-0.064 -0.118,-0.1279 -0.177,-0.1914 -0.04,-0.3898 -0.2,-0.7601 -0.489,-1.0391 -0.699,-0.6763 -1.457,-1.2761 -2.242,-1.8398 -0.06,-0.069 -0.126,-0.1373 -0.189,-0.2051 -0.03,-0.3846 -0.194,-0.7504 -0.479,-1.0254 -0.701,-0.6776 -1.462,-1.2789 -2.248,-1.8437 -0.07,-0.071 -0.129,-0.1428 -0.195,-0.2129 -0.03,-0.3817 -0.187,-0.7433 -0.469,-1.0156 -0.701,-0.6776 -1.46,-1.2807 -2.246,-1.8457 -0.07,-0.077 -0.141,-0.1545 -0.213,-0.2305 -0.03,-0.3762 -0.178,-0.7338 -0.455,-1.002 -0.702,-0.6785 -1.463,-1.2817 -2.25,-1.8476 -0.07,-0.081 -0.149,-0.1622 -0.225,-0.2422 -0.02,-0.3717 -0.169,-0.7257 -0.443,-0.9902 -0.729,-0.7048 -1.51,-1.3522 -2.33,-1.9356 -0.05,-0.056 -0.102,-0.1127 -0.154,-0.1679 -0.02,-0.368 -0.165,-0.7191 -0.436,-0.9805 -0.732,-0.7081 -1.514,-1.3575 -2.338,-1.9434 -0.05,-0.059 -0.109,-0.1176 -0.164,-0.1758 -0.01,-0.3626 -0.155,-0.7094 -0.422,-0.9668 -0.732,-0.7083 -1.515,-1.3571 -2.34,-1.9433 -0.06,-0.063 -0.114,-0.1274 -0.173,-0.1895 0,-0.3587 -0.149,-0.7027 -0.412,-0.957 -0.732,-0.7075 -1.515,-1.3554 -2.338,-1.9414 -0.06,-0.069 -0.127,-0.1373 -0.192,-0.2051 0,-0.3547 -0.142,-0.6963 -0.402,-0.9472 -0.717,-0.6931 -1.483,-1.3276 -2.287,-1.9043 -0.09,-0.086 -0.167,-0.1737 -0.254,-0.2579 v 0 c 0,-0.3486 -0.137,-0.6851 -0.393,-0.9317 -0.696,-0.6733 -1.439,-1.2896 -2.218,-1.8535 -0.113,-0.1139 -0.221,-0.2301 -0.336,-0.3418 0,-0.3382 -0.133,-0.6651 -0.381,-0.9043 -0.677,-0.6546 -1.399,-1.2552 -2.155,-1.8066 -0.138,-0.1415 -0.273,-0.284 -0.416,-0.4219 0,-0.3272 -0.128,-0.6417 -0.367,-0.873 -0.662,-0.6405 -1.368,-1.2295 -2.105,-1.7715 -0.16,-0.1648 -0.317,-0.3302 -0.483,-0.4902 0,-0.316 -0.122,-0.6222 -0.353,-0.8457 -0.642,-0.6203 -1.325,-1.1887 -2.037,-1.7168 -0.186,-0.1945 -0.372,-0.3903 -0.567,-0.5782 0,-0.3049 -0.12,-0.597 -0.343,-0.8125 -0.623,-0.6018 -1.285,-1.1565 -1.973,-1.6718 -0.21,-0.2222 -0.424,-0.4426 -0.645,-0.6563 0,-0.2938 -0.115,-0.5775 -0.33,-0.7851 -0.603,-0.5833 -1.242,-1.1208 -1.908,-1.6231 -0.235,-0.2511 -0.476,-0.4958 -0.724,-0.7363 0,-0.2827 -0.112,-0.5561 -0.319,-0.7559 -0.591,-0.5719 -1.218,-1.0996 -1.869,-1.5937 -0.252,-0.2722 -0.511,-0.539 -0.779,-0.7989 0,-0.2715 -0.108,-0.5346 -0.307,-0.7265 -0.579,-0.5596 -1.19,-1.0772 -1.826,-1.5625 -0.271,-0.2943 -0.548,-0.5833 -0.838,-0.8633 0,-0.2603 -0.103,-0.5113 -0.293,-0.6953 -0.565,-0.5462 -1.162,-1.0537 -1.781,-1.5293 -0.289,-0.3169 -0.586,-0.6291 -0.897,-0.9297 0,-0.2491 -0.1,-0.4899 -0.279,-0.666 -0.556,-0.5374 -1.143,-1.0366 -1.752,-1.5059 -0.305,-0.3365 -0.616,-0.668 -0.945,-0.9863 0,-0.2379 -0.09,-0.4666 -0.268,-0.6348 -0.542,-0.5243 -1.112,-1.0149 -1.705,-1.4746 -0.323,-0.3599 -0.655,-0.7135 -1.006,-1.0527 0,-0.2267 -0.09,-0.4452 -0.254,-0.6055 -0.533,-0.5156 -1.094,-0.9979 -1.675,-1.4512 -0.339,-0.379 -0.686,-0.751 -1.055,-1.1074 0,-0.2155 -0.08,-0.4238 -0.242,-0.5761 -0.517,-0.4997 -1.057,-0.969 -1.619,-1.4102 -0.359,-0.4056 -0.73,-0.8018 -1.124,-1.1816 0,-0.2042 -0.08,-0.4006 -0.228,-0.545 -0.504,-0.4873 -1.033,-0.9489 -1.58,-1.3808 -0.375,-0.4273 -0.765,-0.8451 -1.178,-1.2442 0,-0.193 -0.07,-0.3791 -0.215,-0.5156 -0.493,-0.4764 -1.009,-0.9261 -1.543,-1.3496 -0.392,-0.4506 -0.8,-0.8909 -1.234,-1.3106 0,-0.1817 -0.07,-0.3558 -0.203,-0.4843 -0.472,-0.4558 -0.966,-0.8855 -1.475,-1.293 -0.415,-0.4828 -0.851,-0.9508 -1.314,-1.3984 0,-0.1705 -0.07,-0.3346 -0.194,-0.4551 -0.455,-0.44 -0.931,-0.8548 -1.421,-1.25 -0.435,-0.5105 -0.893,-1.005 -1.381,-1.4766 0,-0.1592 -0.06,-0.3132 -0.18,-0.4258 -0.44,-0.425 -0.9,-0.8237 -1.373,-1.207 -0.454,-0.5379 -0.937,-1.0555 -1.449,-1.5508 0,-0.1479 -0.06,-0.2899 -0.166,-0.3945 -0.432,-0.417 -0.883,-0.8086 -1.346,-1.1855 -0.467,-0.5574 -0.963,-1.0955 -1.492,-1.6075 0,-0.1366 -0.05,-0.2686 -0.154,-0.3652 -0.425,-0.4106 -0.869,-0.7961 -1.325,-1.168 -0.479,-0.5753 -0.989,-1.1289 -1.535,-1.6562 0,-0.1253 -0.05,-0.2454 -0.14,-0.334 -0.399,-0.3856 -0.817,-0.7501 -1.243,-1.1016 -0.503,-0.6111 -1.04,-1.2001 -1.617,-1.7578 0,-0.114 -0.04,-0.2241 -0.127,-0.3047 -0.398,-0.385 -0.815,-0.7485 -1.24,-1.0996 -0.511,-0.6235 -1.057,-1.2247 -1.645,-1.7929 0,-0.1026 -0.04,-0.2009 -0.115,-0.2735 -0.386,-0.3732 -0.79,-0.725 -1.201,-1.0664 -0.527,-0.6475 -1.09,-1.2709 -1.699,-1.8594 0,-0.091 -0.04,-0.1796 -0.104,-0.2441 -0.382,-0.3691 -0.779,-0.7186 -1.185,-1.0566 -0.537,-0.6632 -1.112,-1.3008 -1.735,-1.9024 0,-0.08 -0.03,-0.1582 -0.09,-0.2148 -0.362,-0.3495 -0.74,-0.6802 -1.124,-1.002 -0.556,-0.6947 -1.154,-1.3622 -1.804,-1.9902 0,-0.069 -0.03,-0.1351 -0.08,-0.1836 -0.346,-0.3338 -0.705,-0.6504 -1.071,-0.959 -0.573,-0.7228 -1.193,-1.417 -1.867,-2.0684 0,-0.057 -0.02,-0.1118 -0.07,-0.1523 -0.342,-0.3309 -0.699,-0.6451 -1.061,-0.9512 -0.583,-0.738 -1.213,-1.4453 -1.9,-2.1093 0,-0.046 -0.02,-0.089 -0.05,-0.1211 -0.332,-0.3214 -0.678,-0.6277 -1.029,-0.9258 -0.596,-0.7594 -1.244,-1.4863 -1.949,-2.168 0,-0.034 0,-0.068 -0.04,-0.092 -0.329,-0.3173 -0.67,-0.6194 -1.016,-0.914 -0.606,-0.7762 -1.265,-1.5174 -1.984,-2.2129 0,-0.023 -0.01,-0.045 -0.03,-0.061 -0.325,-0.3146 -0.661,-0.6158 -1.006,-0.9082 -0.614,-0.7906 -1.285,-1.5444 -2.017,-2.2519 0,-0.011 0,-0.023 -0.01,-0.031 -0.282,-0.2732 -0.573,-0.5365 -0.869,-0.793 -0.646,-0.8466 -1.36,-1.6511 -2.139,-2.4043 -4.188,-4.048 -9.891,-6.2838 -15.81,-6.1972 z"
         id="path26744" />
      <path
         inkscape:connector-curvature="0"
         id="path19744"
         d="m -847.857,6430.6541 a 21.90219,21.192085 0 0 0 -21.57,21.489 v 903.8013 a 21.90219,21.192085 0 1 0 43.801,0 v -903.8013 a 21.90219,21.192085 0 0 0 -22.231,-21.489 z"
         style="color:#000000;font-style:normal;font-variant:normal;font-weight:normal;font-stretch:normal;font-size:medium;line-height:normal;font-family:sans-serif;font-variant-ligatures:normal;font-variant-position:normal;font-variant-caps:normal;font-variant-numeric:normal;font-variant-alternates:normal;font-feature-settings:normal;text-indent:0;text-align:start;text-decoration:none;text-decoration-line:none;text-decoration-style:solid;text-decoration-color:#000000;letter-spacing:normal;word-spacing:normal;text-transform:none;writing-mode:lr-tb;direction:ltr;text-orientation:mixed;dominant-baseline:auto;baseline-shift:baseline;text-anchor:start;white-space:normal;shape-padding:0;clip-rule:nonzero;display:inline;overflow:visible;visibility:visible;isolation:auto;mix-blend-mode:normal;color-interpolation:sRGB;color-interpolation-filters:linearRGB;solid-color:#000000;solid-opacity:1;vector-effect:none;fill:#2b2723;fill-opacity:1;fill-rule:nonzero;stroke:none;stroke-width:43.8;stroke-linecap:round;stroke-linejoin:round;stroke-miterlimit:4;stroke-dasharray:none;stroke-dashoffset:0;stroke-opacity:1;color-rendering:auto;image-rendering:auto;shape-rendering:auto;text-rendering:auto;enable-background:accumulate" />
      <path
         inkscape:connector-curvature="0"
         id="path19746"
         d="m -958.622,7237.6737 a 21.90219,21.90219 0 1 0 0,43.8008 H 263.436 a 21.90219,21.90219 0 1 0 0,-43.8008 z"
         style="color:#000000;font-style:normal;font-variant:normal;font-weight:normal;font-stretch:normal;font-size:medium;line-height:normal;font-family:sans-serif;font-variant-ligatures:normal;font-variant-position:normal;font-variant-caps:normal;font-variant-numeric:normal;font-variant-alternates:normal;font-feature-settings:normal;text-indent:0;text-align:start;text-decoration:none;text-decoration-line:none;text-decoration-style:solid;text-decoration-color:#000000;letter-spacing:normal;word-spacing:normal;text-transform:none;writing-mode:lr-tb;direction:ltr;text-orientation:mixed;dominant-baseline:auto;baseline-shift:baseline;text-anchor:start;white-space:normal;shape-padding:0;clip-rule:nonzero;display:inline;overflow:visible;visibility:visible;isolation:auto;mix-blend-mode:normal;color-interpolation:sRGB;color-interpolation-filters:linearRGB;solid-color:#000000;solid-opacity:1;vector-effect:none;fill:#2b2723;fill-opacity:1;fill-rule:nonzero;stroke:none;stroke-width:43.8;stroke-linecap:round;stroke-linejoin:round;stroke-miterlimit:4;stroke-dasharray:none;stroke-dashoffset:0;stroke-opacity:1;color-rendering:auto;image-rendering:auto;shape-rendering:auto;text-rendering:auto;enable-background:accumulate" />
      <path
         inkscape:connector-curvature="0"
         id="path19748"
         d="m 225.493,7152.5331 a 21.90219,21.90219 0 0 0 -15.594,36.5195 l 61.51,70.5215 -61.51,70.5215 a 21.90219,21.90219 0 1 0 33.01,28.791 l 74.064,-84.918 a 21.90219,21.90219 0 0 0 0,-28.789 l -74.064,-84.918 a 21.90219,21.90219 0 0 0 -17.416,-7.7285 z"
         style="color:#000000;font-style:normal;font-variant:normal;font-weight:normal;font-stretch:normal;font-size:medium;line-height:normal;font-family:sans-serif;font-variant-ligatures:normal;font-variant-position:normal;font-variant-caps:normal;font-variant-numeric:normal;font-variant-alternates:normal;font-feature-settings:normal;text-indent:0;text-align:start;text-decoration:none;text-decoration-line:none;text-decoration-style:solid;text-decoration-color:#000000;letter-spacing:normal;word-spacing:normal;text-transform:none;writing-mode:lr-tb;direction:ltr;text-orientation:mixed;dominant-baseline:auto;baseline-shift:baseline;text-anchor:start;white-space:normal;shape-padding:0;clip-rule:nonzero;display:inline;overflow:visible;visibility:visible;isolation:auto;mix-blend-mode:normal;color-interpolation:sRGB;color-interpolation-filters:linearRGB;solid-color:#000000;solid-opacity:1;vector-effect:none;fill:#2b2723;fill-opacity:1;fill-rule:nonzero;stroke:none;stroke-width:43.8;stroke-linecap:round;stroke-linejoin:round;stroke-miterlimit:4;stroke-dasharray:none;stroke-dashoffset:0;stroke-opacity:1;color-rendering:auto;image-rendering:auto;shape-rendering:auto;text-rendering:auto;enable-background:accumulate" />
      <path
         inkscape:connector-curvature="0"
         style="color:#000000;font-style:normal;font-variant:normal;font-weight:normal;font-stretch:normal;font-size:medium;line-height:normal;font-family:sans-serif;font-variant-ligatures:normal;font-variant-position:normal;font-variant-caps:normal;font-variant-numeric:normal;font-variant-alternates:normal;font-feature-settings:normal;text-indent:0;text-align:start;text-decoration:none;text-decoration-line:none;text-decoration-style:solid;text-decoration-color:#000000;letter-spacing:normal;word-spacing:normal;text-transform:none;writing-mode:lr-tb;direction:ltr;text-orientation:mixed;dominant-baseline:auto;baseline-shift:baseline;text-anchor:start;white-space:normal;shape-padding:0;clip-rule:nonzero;display:inline;overflow:visible;visibility:visible;isolation:auto;mix-blend-mode:normal;color-interpolation:sRGB;color-interpolation-filters:linearRGB;solid-color:#000000;solid-opacity:1;vector-effect:none;fill:#2b2723;fill-opacity:1;fill-rule:nonzero;stroke:none;stroke-width:43.8;stroke-linecap:butt;stroke-linejoin:miter;stroke-miterlimit:4;stroke-dasharray:none;stroke-dashoffset:0;stroke-opacity:1;color-rendering:auto;image-rendering:auto;shape-rendering:auto;text-rendering:auto;enable-background:accumulate"
         d="m -848.546,6430.9882 a 21.90219,21.90219 0 0 0 -15.485,7.4804 l -74.064,84.9161 a 21.90219,21.90219 0 1 0 33.008,28.791 l 57.56,-65.9942 57.559,65.9942 a 21.90219,21.90219 0 1 0 33.01,-28.791 l -74.065,-84.9161 a 21.90219,21.90219 0 0 0 -17.523,-7.4804 z"
         id="path19798" />
      <path
         d="m 48189.52,6132.7434 -244.207,0 -244.208,0 122.104,-211.4901 122.104,-211.4902 122.103,211.4902 z"
         sodipodi:type="star"
         style="fill:#ffeb3b;fill-opacity:0.975;stroke:#2b2723;stroke-width:24.7999;stroke-linecap:round;stroke-linejoin:round;stroke-miterlimit:4;stroke-dasharray:none;stroke-dashoffset:62;stroke-opacity:0.995;paint-order:normal"
         id="path19838"
         sodipodi:sides="3"
         sodipodi:cx="47945.312"
         sodipodi:cy="5991.75"
         sodipodi:r1="281.98688"
         sodipodi:r2="140.99344"
         sodipodi:arg1="0.52359878"
         sodipodi:arg2="1.5707963"
         inkscape:flatsided="false"
         inkscape:rounded="0"
         inkscape:randomized="0"
         inkscape:transform-center-y="-67.180665"
         transform="matrix(1.6745985,0,0,0.95296064,-80728.877,1404.5941)"
         inkscape:transform-center-x="-0.00063759421" />
      <path
         style="fill:#000001;fill-opacity:0.188235;stroke:none;stroke-width:28.4793;stroke-linecap:round;stroke-linejoin:round;stroke-miterlimit:4;stroke-dasharray:none;stroke-dashoffset:62;stroke-opacity:1;paint-order:normal"
         d="m -439.737,6870.321 185.877,183.2109 185.876,183.2093 h -371.753 v 0 -366.4182 z"
         id="path19846"
         inkscape:connector-curvature="0" />
      <rect
         style="fill:none;fill-opacity:0.975;stroke:#2b2723;stroke-width:24.8;stroke-linecap:butt;stroke-linejoin:miter;stroke-miterlimit:4;stroke-dasharray:49.6, 24.8;stroke-dashoffset:52.08;stroke-opacity:1;paint-order:normal"
         id="rect19836"
         width="409.375"
         height="409.375"
         x="-849.00952"
         y="6848.7319"
         rx="0"
         ry="0" />
    </g>
  </g>
</svg>
