<?xml version="1.0" encoding="UTF-8" standalone="no"?>
<svg
   xmlns:dc="http://purl.org/dc/elements/1.1/"
   xmlns:cc="http://creativecommons.org/ns#"
   xmlns:rdf="http://www.w3.org/1999/02/22-rdf-syntax-ns#"
   xmlns:svg="http://www.w3.org/2000/svg"
   xmlns="http://www.w3.org/2000/svg"
   xmlns:sodipodi="http://sodipodi.sourceforge.net/DTD/sodipodi-0.dtd"
   xmlns:inkscape="http://www.inkscape.org/namespaces/inkscape"
   width="67.733337mm"
   height="67.733337mm"
   viewBox="0 0 67.733338 67.733338"
   version="1.1"
   id="svg27864"
   inkscape:version="1.0 (4035a4fb49, 2020-05-01)"
   sodipodi:docname="algoritmi_scalable.svg">
  <defs
     id="defs27858">
    <clipPath
       clipPathUnits="userSpaceOnUse"
       id="clipPath1698-3">
      <rect
         style="opacity:0.604;fill:#26a10d;fill-opacity:0.985;stroke:#d32f2f;stroke-width:0;stroke-linecap:round;stroke-linejoin:bevel;stroke-miterlimit:4;stroke-dasharray:none;stroke-dashoffset:0;stroke-opacity:0.94;paint-order:fill markers stroke"
         id="rect1700-6"
         width="1200"
         height="772.966"
         x="-29147.879"
         y="19470.865"
         rx="64.06395"
         ry="64.06395" />
    </clipPath>
  </defs>
  <sodipodi:namedview
     inkscape:snap-global="false"
     inkscape:window-maximized="1"
     inkscape:window-y="24"
     inkscape:window-x="0"
     inkscape:window-height="1056"
     inkscape:window-width="1920"
     fit-margin-bottom="0"
     fit-margin-right="0"
     fit-margin-left="0"
     fit-margin-top="0"
     showgrid="false"
     inkscape:document-rotation="0"
     inkscape:current-layer="layer1"
     inkscape:document-units="mm"
     inkscape:cy="106.56205"
     inkscape:cx="225.38607"
     inkscape:zoom="2.2539028"
     inkscape:pageshadow="2"
     inkscape:pageopacity="0.0"
     borderopacity="1.0"
     bordercolor="#666666"
     pagecolor="#ffffff"
     id="base" />
  <metadata
     id="metadata27861">
    <rdf:RDF>
      <cc:Work
         rdf:about="">
        <dc:format>image/svg+xml</dc:format>
        <dc:type
           rdf:resource="http://purl.org/dc/dcmitype/StillImage" />
        <dc:title></dc:title>
        <cc:license
           rdf:resource="http://creativecommons.org/licenses/by-sa/4.0/" />
      </cc:Work>
      <cc:License
         rdf:about="http://creativecommons.org/licenses/by-sa/4.0/">
        <cc:permits
           rdf:resource="http://creativecommons.org/ns#Reproduction" />
        <cc:permits
           rdf:resource="http://creativecommons.org/ns#Distribution" />
        <cc:requires
           rdf:resource="http://creativecommons.org/ns#Notice" />
        <cc:requires
           rdf:resource="http://creativecommons.org/ns#Attribution" />
        <cc:permits
           rdf:resource="http://creativecommons.org/ns#DerivativeWorks" />
        <cc:requires
           rdf:resource="http://creativecommons.org/ns#ShareAlike" />
      </cc:License>
    </rdf:RDF>
  </metadata>
  <g
     transform="translate(1688.0421,1559.3257)"
     id="layer1"
     inkscape:groupmode="layer"
     inkscape:label="Livello 1">
    <g
       id="g914">
      <path
         id="rect832"
         style="fill:#8bdfac;fill-opacity:0.823529;stroke:none;stroke-width:0.23151;stroke-linecap:round;stroke-linejoin:bevel;stroke-miterlimit:4;stroke-dasharray:none;stroke-dashoffset:0;stroke-opacity:1;paint-order:normal"
         d="m -1687.9991,-1559.3257 h 67.6474 c 0.024,0 0.043,0.019 0.043,0.043 v 67.6474 c 0,0.024 -0.019,0.043 -0.043,0.043 h -67.6474 c -0.024,0 -0.043,-0.019 -0.043,-0.043 v -67.6474 c 0,-0.024 0.019,-0.043 0.043,-0.043 z" />
      <path
         style="fill:#000001;fill-opacity:0.145098;stroke:none;stroke-width:0.0330729px;stroke-linecap:butt;stroke-linejoin:miter;stroke-opacity:1"
         d="m -1660.1746,-1550.5085 c 0,0 2.2731,2.4548 -0.409,4.9096 0,0 -1.2274,1.2729 -3.7277,0.3183 l -3.6367,9.6826 c 0,0 4.1824,0.9546 2.7278,4.9095 0,0 -1.9095,3.6823 -5.5917,1.1821 l 14.7743,14.8647 -2.5458,6.6826 c 0,0 4.1822,1.1366 2.273,5.2733 0,0 -2.1367,3.091 -5.3188,0.7726 l 10.2296,10.3208 h 30.919 c 0.095,0 0.1718,-0.077 0.1718,-0.1718 v -18.8637 z"
         id="path840"
         inkscape:connector-curvature="0"
         inkscape:export-xdpi="96"
         inkscape:export-ydpi="96" />
      <path
         id="path868"
         d="M -1649.623 -1534.5156 C -1651.4324 -1534.5157 -1652.914 -1533.0339 -1652.9141 -1531.2246 C -1652.9141 -1529.4152 -1651.4324 -1527.9336 -1649.623 -1527.9336 C -1647.8137 -1527.9336 -1646.332 -1529.4153 -1646.332 -1531.2246 C -1646.3321 -1533.0339 -1647.8138 -1534.5156 -1649.623 -1534.5156 z M -1649.623 -1533.125 C -1648.5644 -1533.125 -1647.7207 -1532.2832 -1647.7207 -1531.2246 C -1647.7207 -1530.166 -1648.5644 -1529.3223 -1649.623 -1529.3223 C -1650.6817 -1529.3222 -1651.5235 -1530.166 -1651.5234 -1531.2246 C -1651.5234 -1532.2832 -1650.6817 -1533.125 -1649.623 -1533.125 z "
         style="color:#000000;font-style:normal;font-variant:normal;font-weight:normal;font-stretch:normal;font-size:medium;line-height:normal;font-family:sans-serif;font-variant-ligatures:normal;font-variant-position:normal;font-variant-caps:normal;font-variant-numeric:normal;font-variant-alternates:normal;font-variant-east-asian:normal;font-feature-settings:normal;font-variation-settings:normal;text-indent:0;text-align:start;text-decoration:none;text-decoration-line:none;text-decoration-style:solid;text-decoration-color:#000000;letter-spacing:normal;word-spacing:normal;text-transform:none;writing-mode:lr-tb;direction:ltr;text-orientation:mixed;dominant-baseline:auto;baseline-shift:baseline;text-anchor:start;white-space:normal;shape-padding:0;shape-margin:0;inline-size:0;clip-rule:nonzero;display:inline;overflow:visible;visibility:visible;isolation:auto;mix-blend-mode:normal;color-interpolation:sRGB;color-interpolation-filters:linearRGB;solid-color:#000000;solid-opacity:1;vector-effect:none;fill:#205d20;fill-opacity:1;fill-rule:nonzero;stroke:none;stroke-width:1.38906;stroke-linecap:butt;stroke-linejoin:miter;stroke-miterlimit:4;stroke-dasharray:none;stroke-dashoffset:0;stroke-opacity:1;color-rendering:auto;image-rendering:auto;shape-rendering:auto;text-rendering:auto;enable-background:accumulate;stop-color:#000000;stop-opacity:1;opacity:1" />
      <path
         id="path872"
         d="M -1662.6055 -1551.5039 C -1664.4148 -1551.5039 -1665.8946 -1550.0222 -1665.8945 -1548.2129 C -1665.8945 -1546.4036 -1664.4148 -1544.9239 -1662.6055 -1544.9238 C -1660.7961 -1544.9238 -1659.3125 -1546.4036 -1659.3125 -1548.2129 C -1659.3125 -1550.0223 -1660.7961 -1551.5039 -1662.6055 -1551.5039 z M -1662.6035 -1550.1152 C -1661.5449 -1550.1153 -1660.7031 -1549.2715 -1660.7031 -1548.2129 C -1660.7031 -1547.1543 -1661.5449 -1546.3125 -1662.6035 -1546.3125 C -1663.6621 -1546.3125 -1664.5058 -1547.1543 -1664.5059 -1548.2129 C -1664.5059 -1549.2715 -1663.6621 -1550.1152 -1662.6035 -1550.1152 z "
         style="color:#000000;font-style:normal;font-variant:normal;font-weight:normal;font-stretch:normal;font-size:medium;line-height:normal;font-family:sans-serif;font-variant-ligatures:normal;font-variant-position:normal;font-variant-caps:normal;font-variant-numeric:normal;font-variant-alternates:normal;font-variant-east-asian:normal;font-feature-settings:normal;font-variation-settings:normal;text-indent:0;text-align:start;text-decoration:none;text-decoration-line:none;text-decoration-style:solid;text-decoration-color:#000000;letter-spacing:normal;word-spacing:normal;text-transform:none;writing-mode:lr-tb;direction:ltr;text-orientation:mixed;dominant-baseline:auto;baseline-shift:baseline;text-anchor:start;white-space:normal;shape-padding:0;shape-margin:0;inline-size:0;clip-rule:nonzero;display:inline;overflow:visible;visibility:visible;isolation:auto;mix-blend-mode:normal;color-interpolation:sRGB;color-interpolation-filters:linearRGB;solid-color:#000000;solid-opacity:1;vector-effect:none;fill:#205d20;fill-opacity:1;fill-rule:nonzero;stroke:none;stroke-width:1.38906;stroke-linecap:butt;stroke-linejoin:miter;stroke-miterlimit:4;stroke-dasharray:none;stroke-dashoffset:0;stroke-opacity:1;color-rendering:auto;image-rendering:auto;shape-rendering:auto;text-rendering:auto;enable-background:accumulate;stop-color:#000000;stop-opacity:1;opacity:1" />
      <path
         id="path876"
         d="M -1633.0625 -1517.7812 C -1634.8718 -1517.7813 -1636.3535 -1516.2996 -1636.3535 -1514.4902 C -1636.3535 -1512.6809 -1634.8718 -1511.1992 -1633.0625 -1511.1992 C -1631.2532 -1511.1992 -1629.7715 -1512.6809 -1629.7715 -1514.4902 C -1629.7715 -1516.2995 -1631.2532 -1517.7812 -1633.0625 -1517.7812 z M -1633.0625 -1516.3926 C -1632.0039 -1516.3926 -1631.1602 -1515.5488 -1631.1602 -1514.4902 C -1631.1602 -1513.4316 -1632.0039 -1512.5879 -1633.0625 -1512.5879 C -1634.1211 -1512.5879 -1634.9629 -1513.4316 -1634.9629 -1514.4902 C -1634.9629 -1515.5489 -1634.1211 -1516.3926 -1633.0625 -1516.3926 z "
         style="color:#000000;font-style:normal;font-variant:normal;font-weight:normal;font-stretch:normal;font-size:medium;line-height:normal;font-family:sans-serif;font-variant-ligatures:normal;font-variant-position:normal;font-variant-caps:normal;font-variant-numeric:normal;font-variant-alternates:normal;font-variant-east-asian:normal;font-feature-settings:normal;font-variation-settings:normal;text-indent:0;text-align:start;text-decoration:none;text-decoration-line:none;text-decoration-style:solid;text-decoration-color:#000000;letter-spacing:normal;word-spacing:normal;text-transform:none;writing-mode:lr-tb;direction:ltr;text-orientation:mixed;dominant-baseline:auto;baseline-shift:baseline;text-anchor:start;white-space:normal;shape-padding:0;shape-margin:0;inline-size:0;clip-rule:nonzero;display:inline;overflow:visible;visibility:visible;isolation:auto;mix-blend-mode:normal;color-interpolation:sRGB;color-interpolation-filters:linearRGB;solid-color:#000000;solid-opacity:1;vector-effect:none;fill:#205d20;fill-opacity:1;fill-rule:nonzero;stroke:none;stroke-width:1.38906;stroke-linecap:butt;stroke-linejoin:miter;stroke-miterlimit:4;stroke-dasharray:none;stroke-dashoffset:0;stroke-opacity:1;color-rendering:auto;image-rendering:auto;shape-rendering:auto;text-rendering:auto;enable-background:accumulate;stop-color:#000000;stop-opacity:1;opacity:1" />
      <path
         id="path880"
         d="M -1668.4746 -1535.5879 C -1670.4011 -1535.5879 -1671.9921 -1534.0374 -1671.9922 -1532.127 C -1671.9922 -1530.2164 -1670.4011 -1528.666 -1668.4746 -1528.666 C -1666.5481 -1528.666 -1664.957 -1530.2164 -1664.957 -1532.127 C -1664.9571 -1534.0374 -1666.5481 -1535.5879 -1668.4746 -1535.5879 z M -1668.4746 -1534.1992 C -1667.2838 -1534.1992 -1666.3477 -1533.2714 -1666.3477 -1532.127 C -1666.3476 -1530.9825 -1667.2838 -1530.0566 -1668.4746 -1530.0566 C -1669.6654 -1530.0566 -1670.6016 -1530.9825 -1670.6016 -1532.127 C -1670.6015 -1533.2714 -1669.6654 -1534.1992 -1668.4746 -1534.1992 z "
         style="color:#000000;font-style:normal;font-variant:normal;font-weight:normal;font-stretch:normal;font-size:medium;line-height:normal;font-family:sans-serif;font-variant-ligatures:normal;font-variant-position:normal;font-variant-caps:normal;font-variant-numeric:normal;font-variant-alternates:normal;font-variant-east-asian:normal;font-feature-settings:normal;font-variation-settings:normal;text-indent:0;text-align:start;text-decoration:none;text-decoration-line:none;text-decoration-style:solid;text-decoration-color:#000000;letter-spacing:normal;word-spacing:normal;text-transform:none;writing-mode:lr-tb;direction:ltr;text-orientation:mixed;dominant-baseline:auto;baseline-shift:baseline;text-anchor:start;white-space:normal;shape-padding:0;shape-margin:0;inline-size:0;clip-rule:nonzero;display:inline;overflow:visible;visibility:visible;isolation:auto;mix-blend-mode:normal;color-interpolation:sRGB;color-interpolation-filters:linearRGB;solid-color:#000000;solid-opacity:1;vector-effect:none;fill:#205d20;fill-opacity:1;fill-rule:nonzero;stroke:none;stroke-width:1.38906;stroke-linecap:butt;stroke-linejoin:miter;stroke-miterlimit:4;stroke-dasharray:none;stroke-dashoffset:0;stroke-opacity:1;color-rendering:auto;image-rendering:auto;shape-rendering:auto;text-rendering:auto;enable-background:accumulate;stop-color:#000000;stop-opacity:1;opacity:1" />
      <path
         id="path884"
         d="M -1659.3301 -1507.9863 C -1661.2566 -1507.9863 -1662.8477 -1506.4359 -1662.8477 -1504.5254 C -1662.8476 -1502.6149 -1661.2565 -1501.0664 -1659.3301 -1501.0664 C -1657.4036 -1501.0664 -1655.8145 -1502.6149 -1655.8145 -1504.5254 C -1655.8144 -1506.4359 -1657.4036 -1507.9863 -1659.3301 -1507.9863 z M -1659.3301 -1506.5977 C -1658.1393 -1506.5976 -1657.2031 -1505.6699 -1657.2031 -1504.5254 C -1657.2032 -1503.3809 -1658.1393 -1502.4551 -1659.3301 -1502.4551 C -1660.5209 -1502.4551 -1661.459 -1503.3809 -1661.459 -1504.5254 C -1661.459 -1505.6699 -1660.5209 -1506.5976 -1659.3301 -1506.5977 z "
         style="color:#000000;font-style:normal;font-variant:normal;font-weight:normal;font-stretch:normal;font-size:medium;line-height:normal;font-family:sans-serif;font-variant-ligatures:normal;font-variant-position:normal;font-variant-caps:normal;font-variant-numeric:normal;font-variant-alternates:normal;font-variant-east-asian:normal;font-feature-settings:normal;font-variation-settings:normal;text-indent:0;text-align:start;text-decoration:none;text-decoration-line:none;text-decoration-style:solid;text-decoration-color:#000000;letter-spacing:normal;word-spacing:normal;text-transform:none;writing-mode:lr-tb;direction:ltr;text-orientation:mixed;dominant-baseline:auto;baseline-shift:baseline;text-anchor:start;white-space:normal;shape-padding:0;shape-margin:0;inline-size:0;clip-rule:nonzero;display:inline;overflow:visible;visibility:visible;isolation:auto;mix-blend-mode:normal;color-interpolation:sRGB;color-interpolation-filters:linearRGB;solid-color:#000000;solid-opacity:1;vector-effect:none;fill:#205d20;fill-opacity:1;fill-rule:nonzero;stroke:none;stroke-width:1.38906;stroke-linecap:butt;stroke-linejoin:miter;stroke-miterlimit:4;stroke-dasharray:none;stroke-dashoffset:0;stroke-opacity:1;color-rendering:auto;image-rendering:auto;shape-rendering:auto;text-rendering:auto;enable-background:accumulate;stop-color:#000000;stop-opacity:1;opacity:1" />
      <path
         id="path888"
         d="M -1659.8359 -1545.168 A 0.69453001 0.69453001 0 0 0 -1660.2637 -1545.0234 A 0.69453001 0.69453001 0 0 0 -1660.3926 -1544.0508 L -1653.082 -1534.5254 A 0.69453001 0.69453001 0 0 0 -1652.1074 -1534.3965 A 0.69453001 0.69453001 0 0 0 -1651.9785 -1535.3711 L -1659.2891 -1544.8965 A 0.69453001 0.69453001 0 0 0 -1659.8359 -1545.168 z "
         style="color:#000000;font-style:normal;font-variant:normal;font-weight:normal;font-stretch:normal;font-size:medium;line-height:normal;font-family:sans-serif;font-variant-ligatures:normal;font-variant-position:normal;font-variant-caps:normal;font-variant-numeric:normal;font-variant-alternates:normal;font-variant-east-asian:normal;font-feature-settings:normal;font-variation-settings:normal;text-indent:0;text-align:start;text-decoration:none;text-decoration-line:none;text-decoration-style:solid;text-decoration-color:#000000;letter-spacing:normal;word-spacing:normal;text-transform:none;writing-mode:lr-tb;direction:ltr;text-orientation:mixed;dominant-baseline:auto;baseline-shift:baseline;text-anchor:start;white-space:normal;shape-padding:0;shape-margin:0;inline-size:0;clip-rule:nonzero;display:inline;overflow:visible;visibility:visible;isolation:auto;mix-blend-mode:normal;color-interpolation:sRGB;color-interpolation-filters:linearRGB;solid-color:#000000;solid-opacity:1;vector-effect:none;fill:#474747;fill-opacity:1;fill-rule:nonzero;stroke:none;stroke-width:1.38906;stroke-linecap:round;stroke-linejoin:bevel;stroke-miterlimit:4;stroke-dasharray:none;stroke-dashoffset:0;stroke-opacity:1;color-rendering:auto;image-rendering:auto;shape-rendering:auto;text-rendering:auto;enable-background:accumulate;stop-color:#000000;stop-opacity:1;opacity:0.833" />
      <path
         id="path892"
         d="M -1664.0605 -1544.6328 A 0.69453001 0.69453001 0 0 0 -1664.6816 -1544.1855 L -1667.3184 -1537.2109 A 0.69453001 0.69453001 0 0 0 -1666.9141 -1536.3164 A 0.69453001 0.69453001 0 0 0 -1666.0195 -1536.7188 L -1663.3809 -1543.6934 A 0.69453001 0.69453001 0 0 0 -1663.7852 -1544.5898 A 0.69453001 0.69453001 0 0 0 -1664.0605 -1544.6328 z "
         style="color:#000000;font-style:normal;font-variant:normal;font-weight:normal;font-stretch:normal;font-size:medium;line-height:normal;font-family:sans-serif;font-variant-ligatures:normal;font-variant-position:normal;font-variant-caps:normal;font-variant-numeric:normal;font-variant-alternates:normal;font-variant-east-asian:normal;font-feature-settings:normal;font-variation-settings:normal;text-indent:0;text-align:start;text-decoration:none;text-decoration-line:none;text-decoration-style:solid;text-decoration-color:#000000;letter-spacing:normal;word-spacing:normal;text-transform:none;writing-mode:lr-tb;direction:ltr;text-orientation:mixed;dominant-baseline:auto;baseline-shift:baseline;text-anchor:start;white-space:normal;shape-padding:0;shape-margin:0;inline-size:0;clip-rule:nonzero;display:inline;overflow:visible;visibility:visible;isolation:auto;mix-blend-mode:normal;color-interpolation:sRGB;color-interpolation-filters:linearRGB;solid-color:#000000;solid-opacity:1;vector-effect:none;fill:#474747;fill-opacity:1;fill-rule:nonzero;stroke:none;stroke-width:1.38906;stroke-linecap:round;stroke-linejoin:miter;stroke-miterlimit:4;stroke-dasharray:none;stroke-dashoffset:0;stroke-opacity:1;color-rendering:auto;image-rendering:auto;shape-rendering:auto;text-rendering:auto;enable-background:accumulate;stop-color:#000000;stop-opacity:1;opacity:0.833" />
      <path
         id="path896"
         d="M -1646.7949 -1528.0059 A 0.69453001 0.69453001 0 0 0 -1647.2656 -1527.7891 A 0.69453001 0.69453001 0 0 0 -1647.2363 -1526.8066 L -1637.0176 -1517.1523 A 0.69453001 0.69453001 0 0 0 -1636.0352 -1517.1797 A 0.69453001 0.69453001 0 0 0 -1636.0625 -1518.1621 L -1646.2832 -1527.8164 A 0.69453001 0.69453001 0 0 0 -1646.7949 -1528.0059 z "
         style="color:#000000;font-style:normal;font-variant:normal;font-weight:normal;font-stretch:normal;font-size:medium;line-height:normal;font-family:sans-serif;font-variant-ligatures:normal;font-variant-position:normal;font-variant-caps:normal;font-variant-numeric:normal;font-variant-alternates:normal;font-variant-east-asian:normal;font-feature-settings:normal;font-variation-settings:normal;text-indent:0;text-align:start;text-decoration:none;text-decoration-line:none;text-decoration-style:solid;text-decoration-color:#000000;letter-spacing:normal;word-spacing:normal;text-transform:none;writing-mode:lr-tb;direction:ltr;text-orientation:mixed;dominant-baseline:auto;baseline-shift:baseline;text-anchor:start;white-space:normal;shape-padding:0;shape-margin:0;inline-size:0;clip-rule:nonzero;display:inline;overflow:visible;visibility:visible;isolation:auto;mix-blend-mode:normal;color-interpolation:sRGB;color-interpolation-filters:linearRGB;solid-color:#000000;solid-opacity:1;vector-effect:none;fill:#474747;fill-opacity:1;fill-rule:nonzero;stroke:none;stroke-width:1.38906;stroke-linecap:round;stroke-linejoin:miter;stroke-miterlimit:4;stroke-dasharray:none;stroke-dashoffset:0;stroke-opacity:1;color-rendering:auto;image-rendering:auto;shape-rendering:auto;text-rendering:auto;enable-background:accumulate;stop-color:#000000;stop-opacity:1;opacity:0.833" />
      <path
         id="path900"
         d="M -1650.9961 -1527.2637 A 0.69453001 0.69453001 0 0 0 -1651.6191 -1526.8203 L -1658.1855 -1509.8633 A 0.69453001 0.69453001 0 0 0 -1657.7891 -1508.9648 A 0.69453001 0.69453001 0 0 0 -1656.8906 -1509.3613 L -1650.3242 -1526.3184 A 0.69453001 0.69453001 0 0 0 -1650.7207 -1527.2168 A 0.69453001 0.69453001 0 0 0 -1650.9961 -1527.2637 z "
         style="color:#000000;font-style:normal;font-variant:normal;font-weight:normal;font-stretch:normal;font-size:medium;line-height:normal;font-family:sans-serif;font-variant-ligatures:normal;font-variant-position:normal;font-variant-caps:normal;font-variant-numeric:normal;font-variant-alternates:normal;font-variant-east-asian:normal;font-feature-settings:normal;font-variation-settings:normal;text-indent:0;text-align:start;text-decoration:none;text-decoration-line:none;text-decoration-style:solid;text-decoration-color:#000000;letter-spacing:normal;word-spacing:normal;text-transform:none;writing-mode:lr-tb;direction:ltr;text-orientation:mixed;dominant-baseline:auto;baseline-shift:baseline;text-anchor:start;white-space:normal;shape-padding:0;shape-margin:0;inline-size:0;clip-rule:nonzero;display:inline;overflow:visible;visibility:visible;isolation:auto;mix-blend-mode:normal;color-interpolation:sRGB;color-interpolation-filters:linearRGB;solid-color:#000000;solid-opacity:1;vector-effect:none;fill:#474747;fill-opacity:1;fill-rule:nonzero;stroke:none;stroke-width:1.38906;stroke-linecap:round;stroke-linejoin:miter;stroke-miterlimit:4;stroke-dasharray:none;stroke-dashoffset:0;stroke-opacity:1;color-rendering:auto;image-rendering:auto;shape-rendering:auto;text-rendering:auto;enable-background:accumulate;stop-color:#000000;stop-opacity:1;opacity:0.833" />
      <path
         id="path849"
         style="font-style:normal;font-variant:normal;font-weight:bold;font-stretch:normal;font-size:102.841px;line-height:1.25;font-family:'Noto Sans';-inkscape-font-specification:'Noto Sans Bold';letter-spacing:0px;word-spacing:0px;opacity:0.91;fill:#c74c00;fill-opacity:1;stroke:none;stroke-width:0.0198437;stroke-miterlimit:4;stroke-dasharray:none"
         d="m -1644.3632,-1513.0683 q -2.0282,0 -3.1006,1.4208 -1.0724,1.4208 -1.0724,3.8909 0,2.4919 0.9791,3.8691 1.0025,1.3552 3.1939,1.3552 1.0258,0 2.0282,-0.2186 1.0258,-0.2186 2.2147,-0.612 v 2.7761 q -1.0957,0.4153 -2.1681,0.612 -1.0723,0.1967 -2.4012,0.1967 -2.5644,0 -4.2429,-0.9836 -1.6552,-1.0055 -2.4479,-2.798 -0.7926,-1.8143 -0.7926,-4.2188 0,-2.3607 0.9092,-4.175 0.9092,-1.8143 2.6344,-2.8417 1.7484,-1.0274 4.2662,-1.0274 1.2356,0 2.4712,0.3061 1.2589,0.2841 2.4012,0.7869 l -1.1423,2.6886 q -0.9326,-0.4153 -1.8884,-0.7213 -0.9325,-0.306 -1.8417,-0.306 z" />
    </g>
  </g>
</svg>
