<?xml version="1.0" encoding="UTF-8" standalone="no"?>
<svg
   xmlns:dc="http://purl.org/dc/elements/1.1/"
   xmlns:cc="http://creativecommons.org/ns#"
   xmlns:rdf="http://www.w3.org/1999/02/22-rdf-syntax-ns#"
   xmlns:svg="http://www.w3.org/2000/svg"
   xmlns="http://www.w3.org/2000/svg"
   xmlns:sodipodi="http://sodipodi.sourceforge.net/DTD/sodipodi-0.dtd"
   xmlns:inkscape="http://www.inkscape.org/namespaces/inkscape"
   sodipodi:docname="analisi2_scalable.svg"
   inkscape:version="1.0 (4035a4fb49, 2020-05-01)"
   id="svg27864"
   version="1.1"
   viewBox="0 0 67.733338 67.733338"
   height="67.733337mm"
   width="67.733337mm">
  <defs
     id="defs27858">
    <clipPath
       clipPathUnits="userSpaceOnUse"
       id="clipPath1698-3">
      <rect
         style="opacity:0.604;fill:#26a10d;fill-opacity:0.985;stroke:#d32f2f;stroke-width:0;stroke-linecap:round;stroke-linejoin:bevel;stroke-miterlimit:4;stroke-dasharray:none;stroke-dashoffset:0;stroke-opacity:0.94;paint-order:fill markers stroke"
         id="rect1700-6"
         width="1200"
         height="772.966"
         x="-29147.879"
         y="19470.865"
         rx="64.06395"
         ry="64.06395" />
    </clipPath>
  </defs>
  <sodipodi:namedview
     inkscape:snap-global="false"
     inkscape:window-maximized="0"
     inkscape:window-y="24"
     inkscape:window-x="576"
     inkscape:window-height="1025"
     inkscape:window-width="1336"
     fit-margin-bottom="0"
     fit-margin-right="0"
     fit-margin-left="0"
     fit-margin-top="0"
     showgrid="false"
     inkscape:document-rotation="0"
     inkscape:current-layer="layer1"
     inkscape:document-units="mm"
     inkscape:cy="122.57784"
     inkscape:cx="135.73591"
     inkscape:zoom="1.5937499"
     inkscape:pageshadow="2"
     inkscape:pageopacity="0.0"
     borderopacity="1.0"
     bordercolor="#666666"
     pagecolor="#ffffff"
     id="base" />
  <metadata
     id="metadata27861">
    <rdf:RDF>
      <cc:Work
         rdf:about="">
        <dc:format>image/svg+xml</dc:format>
        <dc:type
           rdf:resource="http://purl.org/dc/dcmitype/StillImage" />
        <dc:title></dc:title>
        <cc:license
           rdf:resource="http://creativecommons.org/licenses/by-sa/4.0/" />
      </cc:Work>
      <cc:License
         rdf:about="http://creativecommons.org/licenses/by-sa/4.0/">
        <cc:permits
           rdf:resource="http://creativecommons.org/ns#Reproduction" />
        <cc:permits
           rdf:resource="http://creativecommons.org/ns#Distribution" />
        <cc:requires
           rdf:resource="http://creativecommons.org/ns#Notice" />
        <cc:requires
           rdf:resource="http://creativecommons.org/ns#Attribution" />
        <cc:permits
           rdf:resource="http://creativecommons.org/ns#DerivativeWorks" />
        <cc:requires
           rdf:resource="http://creativecommons.org/ns#ShareAlike" />
      </cc:License>
    </rdf:RDF>
  </metadata>
  <g
     transform="translate(2136.9349,1977.5939)"
     id="layer1"
     inkscape:groupmode="layer"
     inkscape:label="Livello 1">
    <g
       id="g26975"
       transform="matrix(0.03307292,0,0,0.03307292,-1955.4933,-2106.6641)">
      <rect
         style="opacity:0.849;fill:#01579b;fill-opacity:1;stroke:none;stroke-width:15.6001;stroke-linecap:round;stroke-linejoin:bevel;stroke-miterlimit:4;stroke-dasharray:none;stroke-dashoffset:0;stroke-opacity:0.839216;paint-order:normal"
         id="rect894"
         width="2048"
         height="2048"
         x="-5486.1089"
         y="3902.5945"
         inkscape:export-xdpi="25.399994"
         inkscape:export-ydpi="25.399994" />
      <path
         d="m -5145.5508,4444.5605 c -41.97,0 -75.75,33.78 -75.75,75.75 v 838.0704 c 0,24.9873 11.9828,47.0731 30.5371,60.8554 1.3146,1.1233 2.6582,2.2119 4.0489,3.2442 1.3019,1.1116 2.6332,2.1924 4.0097,3.2148 1.2975,1.1086 2.6206,2.1871 3.9922,3.207 1.3249,1.1333 2.6798,2.2328 4.082,3.2735 1.292,1.1026 2.6112,2.1727 3.9766,3.1875 1.3046,1.1148 2.638,2.1974 4.0176,3.2226 1.3035,1.1138 2.6354,2.1945 4.0137,3.2188 1.3045,1.1143 2.6362,2.196 4.0156,3.2207 1.3054,1.1146 2.6391,2.1958 4.0195,3.2207 1.277,1.0893 2.5791,2.1508 3.9277,3.1543 1.3063,1.1169 2.642,2.2015 4.0235,3.2285 1.3043,1.114 2.6364,2.1963 4.0156,3.2207 1.2981,1.1072 2.624,2.1807 3.9961,3.1992 1.2787,1.0903 2.583,2.1501 3.9336,3.1543 1.2917,1.1029 2.6095,2.1744 3.9746,3.1895 1.3043,1.1138 2.6364,2.1945 4.0156,3.2187 1.2799,1.0911 2.5857,2.1533 3.9375,3.1582 1.2822,1.0941 2.5908,2.1565 3.9453,3.1641 1.2875,1.0992 2.6005,2.1696 3.961,3.1816 1.291,1.1023 2.6083,2.173 3.9726,3.1875 1.2898,1.1004 2.6059,2.1688 3.9688,3.1817 1.269,1.0816 2.5646,2.1338 3.9043,3.1308 1.2916,1.1029 2.6095,2.1764 3.9746,3.1914 1.2858,1.0965 2.5986,2.1625 3.957,3.1719 1.2701,1.0825 2.5654,2.1351 3.9063,3.1328 1.2853,1.0963 2.5991,2.1626 3.957,3.1719 1.2632,1.0764 2.5515,2.1227 3.8848,3.1152 1.2928,1.1032 2.6122,2.1743 3.9785,3.1895 1.2653,1.0776 2.5569,2.1256 3.8926,3.1191 1.2689,1.0815 2.5626,2.134 3.9023,3.1309 1.2652,1.0788 2.5551,2.1284 3.8906,3.123 1.2837,1.0953 2.5931,2.1614 3.9492,3.17 1.2567,1.0704 2.5393,2.1121 3.8653,3.0996 1.2933,1.1031 2.6137,2.1743 3.9805,3.1894 1.2392,1.0539 2.502,2.0814 3.8085,3.0547 1.2856,1.0967 2.5969,2.1621 3.9551,3.1719 1.2463,1.0605 2.5177,2.0953 3.8321,3.0742 1.2749,1.0869 2.5754,2.145 3.9218,3.1465 1.2589,1.0717 2.5427,2.113 3.8711,3.1016 1.2533,1.0672 2.5294,2.107 3.8516,3.0917 1.2663,1.0792 2.5578,2.1282 3.8945,3.1231 1.2553,1.0687 2.535,2.1098 3.8594,3.0957 1.2671,1.0791 2.5609,2.1284 3.8984,3.123 1.2254,1.0421 2.4725,2.0583 3.7637,3.0215 1.2844,1.0958 2.5943,2.161 3.9512,3.17 1.2415,1.0557 2.5073,2.0837 3.8164,3.0585 1.2498,1.0636 2.5254,2.1005 3.8437,3.0821 1.2525,1.0662 2.5284,2.1059 3.8496,3.0898 1.2613,1.0734 2.548,2.1176 3.8789,3.1074 1.228,1.0434 2.4775,2.0631 3.7715,3.0274 1.258,1.0713 2.5417,2.1134 3.8692,3.1015 1.2474,1.0609 2.5183,2.0951 3.834,3.0743 1.2225,1.039 2.4659,2.053 3.7539,3.0136 1.2555,1.0697 2.5365,2.1129 3.8613,3.0996 1.2384,1.0535 2.5009,2.0779 3.8066,3.0508 1.2518,1.0651 2.5272,2.1032 3.8477,3.086 1.2302,1.0452 2.4828,2.0654 3.7793,3.0312 1.2308,1.0466 2.4859,2.0661 3.7832,3.0332 1.2492,1.0629 2.5222,2.0991 3.8398,3.0801 1.2246,1.0402 2.4734,2.056 3.7637,3.0176 1.2332,1.0486 2.4891,2.0702 3.7891,3.039 1.2283,1.0445 2.4809,2.0621 3.7754,3.0274 1.2315,1.0477 2.4851,2.069 3.7832,3.0371 1.2388,1.0536 2.5005,2.0797 3.8066,3.0527 1.2271,1.0426 2.4785,2.0598 3.7715,3.0235 1.2306,1.0455 2.4843,2.0651 3.7812,3.0312 1.2167,1.0332 2.4549,2.0406 3.7364,2.9961 1.2264,1.0425 2.4752,2.0579 3.7675,3.0215 1.222,1.0385 2.4666,2.0535 3.7539,3.0137 1.2283,1.0438 2.4791,2.0626 3.7735,3.0273 1.2237,1.0393 2.4706,2.051 3.7597,3.0117 1.2117,1.0285 2.4449,2.0309 3.7208,2.9824 1.2179,1.0346 2.4573,2.0433 3.7402,3 1.2186,1.0352 2.4585,2.0447 3.7422,3.002 1.2226,1.0385 2.4678,2.0516 3.7558,3.0117 1.2022,1.0201 2.4241,2.0165 3.6895,2.961 1.2121,1.0298 2.4462,2.0355 3.7226,2.9882 1.2259,1.0417 2.474,2.0567 3.7657,3.0196 1.2016,1.0194 2.4246,2.0132 3.6894,2.957 1.2026,1.0211 2.4275,2.0195 3.6934,2.9648 1.2278,1.0432 2.4777,2.0614 3.7715,3.0254 1.1883,1.0074 2.3984,1.9905 3.6484,2.9239 1.213,1.0302 2.4472,2.0352 3.7246,2.9882 1.205,1.0227 2.4307,2.0203 3.6992,2.9668 1.2015,1.0195 2.4248,2.0152 3.6895,2.959 1.2019,1.0198 2.4244,2.0168 3.6894,2.961 1.2108,1.0273 2.4439,2.0279 3.7188,2.9785 1.1828,1.0023 2.3889,1.9849 3.6328,2.914 1.2003,1.0187 2.4222,2.0139 3.6855,2.9571 1.2097,1.0264 2.4413,2.0268 3.7149,2.9765 1.1839,1.0031 2.3876,1.9825 3.6328,2.9121 1.1976,1.0157 2.4155,2.0067 3.6758,2.9473 1.1884,1.0076 2.3963,1.9921 3.6465,2.9258 1.1917,1.011 2.4024,2.0008 3.6562,2.9375 1.2043,1.0214 2.4296,2.0194 3.6973,2.9648 1.1839,1.0026 2.3878,1.9809 3.6328,2.9102 1.1928,1.0106 2.4052,1.9994 3.6602,2.9355 1.1652,0.9866 2.3497,1.9516 3.5742,2.8672 1.1951,1.0142 2.4103,2.006 3.6679,2.9453 1.188,1.007 2.3949,1.9907 3.6446,2.9239 1.1863,1.0051 2.3928,1.9884 3.6406,2.9199 1.1764,0.9962 2.3725,1.9687 3.6094,2.8926 1.1865,1.0051 2.3946,1.9884 3.6425,2.9199 1.1729,0.9926 2.3649,1.964 3.5977,2.8848 1.1594,0.9819 2.3386,1.9398 3.5566,2.8515 1.196,1.015 2.4114,2.0072 3.67,2.9473 1.1773,0.9967 2.3735,1.9722 3.6113,2.8965 1.1653,0.9864 2.3496,1.9498 3.5742,2.8652 1.155,0.9786 2.3297,1.9329 3.543,2.8418 1.2,1.0184 2.4205,2.0141 3.6836,2.957 1.1677,0.9879 2.3568,1.9546 3.584,2.8711 1.133,0.9585 2.2874,1.8937 3.4765,2.7852 1.1913,1.0116 2.4048,2.0002 3.6582,2.9375 1.1679,0.989 2.3566,1.9553 3.584,2.873 1.1431,0.9675 2.3076,1.9114 3.5078,2.8106 1.1819,1.0027 2.384,1.9825 3.627,2.9121 1.1754,0.9952 2.3697,1.9677 3.6054,2.8906 1.1226,0.9488 2.2639,1.8748 3.4415,2.7578 1.183,1.0042 2.3884,1.9852 3.6328,2.916 1.1736,0.9934 2.3659,1.9654 3.5996,2.8868 1.115,0.9419 2.2487,1.8631 3.4179,2.7402 1.1965,1.0154 2.4128,2.0088 3.6719,2.9492 1.1307,0.9552 2.2805,1.8888 3.4668,2.7774 1.166,0.9876 2.3508,1.9525 3.5762,2.8691 1.1482,0.971 2.3158,1.9201 3.5215,2.8223 1.137,0.9618 2.2928,1.9025 3.4863,2.7968 1.1794,0.9991 2.379,1.978 3.6191,2.9043 1.1249,0.9496 2.2693,1.8762 3.4493,2.7598 1.1392,0.9641 2.2981,1.9064 3.4941,2.8027 1.1319,0.9585 2.2828,1.8956 3.4707,2.7871 1.1704,0.9925 2.3596,1.9619 3.5898,2.8829 1.1224,0.949 2.2641,1.8765 3.4415,2.7597 1.1726,0.9935 2.3649,1.9632 3.5976,2.8848 1.1213,0.9467 2.2614,1.8708 3.4375,2.7519 1.1338,0.9592 2.2867,1.8952 3.4766,2.7871 1.1322,0.9583 2.2845,1.8939 3.4726,2.7852 1.141,0.9663 2.3002,1.9123 3.4981,2.8105 1.1347,0.9603 2.2915,1.8961 3.4824,2.7891 1.1223,0.9498 2.2641,1.8778 3.4414,2.7617 1.1408,0.9666 2.3002,1.9121 3.4981,2.8106 1.1347,0.9602 2.2914,1.898 3.4824,2.791 1.1648,0.9851 2.3483,1.949 3.5722,2.8633 1.0636,0.896 2.1451,1.7722 3.2578,2.6093 1.1613,0.9853 2.3422,1.9467 3.5626,2.8614 1.1257,0.9516 2.2701,1.8801 3.4511,2.7656 1.1186,0.9454 2.2565,1.8679 3.4297,2.748 1.1097,0.9383 2.2409,1.8526 3.4043,2.7266 1.115,0.944 2.2486,1.8671 3.418,2.7461 1.1454,0.9704 2.3109,1.9165 3.5136,2.8184 1.1137,0.9407 2.2464,1.8602 3.4141,2.7363 1.1053,0.9342 2.2301,1.8464 3.3887,2.7168 1.1289,0.9555 2.2764,1.8884 3.4609,2.7773 1.0926,0.9234 2.205,1.8245 3.3496,2.6856 1.1432,0.9687 2.3055,1.916 3.5059,2.8164 1.089,0.9195 2.1972,1.8161 3.3379,2.6738 1.1174,0.9462 2.2537,1.8691 3.4258,2.75 1.126,0.9526 2.2717,1.8812 3.4531,2.7676 1.0719,0.9049 2.1632,1.7878 3.2851,2.6328 1.1338,0.9611 2.2866,1.8991 3.4766,2.793 1.093,0.9237 2.2065,1.8261 3.3516,2.6875 1.1379,0.963 2.2958,1.9015 3.4902,2.7968 1.0773,0.9085 2.1729,1.7966 3.3008,2.6446 1.0965,0.9271 2.2123,1.8328 3.3613,2.6972 1.1087,0.938 2.2361,1.8548 3.3984,2.7286 1.1032,0.9325 2.2266,1.8418 3.3829,2.7109 1.0823,0.9146 2.1829,1.8087 3.3164,2.6621 1.1252,0.9523 2.2706,1.8814 3.4511,2.7676 1.0712,0.9036 2.1621,1.7851 3.2832,2.6289 1.0819,0.915 2.1834,1.8062 3.3164,2.6601 1.0926,0.9253 2.2048,1.8266 3.3497,2.6895 1.1113,0.9411 2.2428,1.8578 3.4082,2.7344 1.0771,0.91 2.173,1.7969 3.3007,2.6465 1.1084,0.9377 2.2384,1.853 3.4004,2.7265 1.0645,0.8985 2.148,1.7739 3.2617,2.6133 1.0779,0.9122 2.1762,1.8008 3.3047,2.6523 1.1152,0.9446 2.2504,1.8646 3.42,2.7442 1.0684,0.9018 2.1552,1.7827 3.2734,2.625 1.1053,0.9348 2.23,1.8458 3.3887,2.7168 1.0443,0.8807 2.1073,1.7385 3.1992,2.5625 1.1132,0.9425 2.2467,1.8624 3.414,2.7402 0.5592,0.4717 1.1244,0.9367 1.6954,1.3946 h 1090.164 V 4655.252 c -0.5424,-0.4319 -1.0877,-0.8607 -1.6445,-1.2754 -1.2212,-1.0377 -2.4634,-2.0503 -3.75,-3.0098 -1.2431,-1.058 -2.5094,-2.0876 -3.8203,-3.0645 -1.2344,-1.0495 -2.4938,-2.0714 -3.7949,-3.041 -1.2435,-1.0576 -2.511,-2.0879 -3.8223,-3.0644 -1.2292,-1.0448 -2.48,-2.0637 -3.7754,-3.0293 -1.2404,-1.0554 -2.5046,-2.0821 -3.8125,-3.0567 -1.2477,-1.0615 -2.518,-2.0963 -3.834,-3.0761 -1.2482,-1.0614 -2.5214,-2.0946 -3.8379,-3.0743 -1.2265,-1.0423 -2.4751,-2.058 -3.7676,-3.0214 -1.2543,-1.0682 -2.5319,-2.1083 -3.8554,-3.0938 -1.2334,-1.0492 -2.489,-2.0716 -3.7891,-3.041 -1.2692,-1.0814 -2.5643,-2.1341 -3.9043,-3.1309 -1.2385,-1.0526 -2.5009,-2.0786 -3.8066,-3.0507 -1.2523,-1.0657 -2.5285,-2.1047 -3.8496,-3.0879 -1.2448,-1.0589 -2.5135,-2.0889 -3.8262,-3.0664 -1.2598,-1.0727 -2.5436,-2.1182 -3.873,-3.1075 -1.2516,-1.0649 -2.5275,-2.1012 -3.8477,-3.0839 -1.2425,-1.0576 -2.5081,-2.0881 -3.8184,-3.0645 -1.2737,-1.0856 -2.573,-2.1403 -3.9179,-3.1406 -1.2553,-1.0681 -2.5351,-2.1084 -3.8594,-3.0938 -1.2479,-1.0621 -2.5197,-2.0977 -3.8359,-3.0781 -1.2642,-1.0774 -2.5524,-2.1257 -3.8868,-3.1191 -1.2722,-1.0839 -2.5708,-2.1379 -3.914,-3.1368 -1.258,-1.0705 -2.5418,-2.1102 -3.8692,-3.0976 -1.2501,-1.0644 -2.523,-2.1017 -3.8418,-3.084 -1.2616,-1.0758 -2.5491,-2.1231 -3.8808,-3.1152 -1.2806,-1.0926 -2.5868,-2.1539 -3.9395,-3.1602 -1.2658,-1.0783 -2.5564,-2.127 -3.8926,-3.1211 -1.2632,-1.0764 -2.5514,-2.1226 -3.8847,-3.1152 -1.2707,-1.0834 -2.5666,-2.1363 -3.9082,-3.1348 -1.2907,-1.1006 -2.6088,-2.1706 -3.9727,-3.1836 -1.2534,-1.0666 -2.5331,-2.1058 -3.8554,-3.0898 -1.2728,-1.0851 -2.5722,-2.1427 -3.9161,-3.1426 -1.2778,-1.0899 -2.582,-2.1503 -3.9316,-3.1543 -1.2805,-1.092 -2.5869,-2.1525 -3.9395,-3.1582 -1.2787,-1.0901 -2.5829,-2.1501 -3.9336,-3.1543 -1.27,-1.0826 -2.5652,-2.137 -3.9062,-3.1348 -1.2949,-1.1049 -2.6176,-2.1786 -3.9863,-3.1953 -1.2679,-1.0801 -2.562,-2.1293 -3.9004,-3.125 -1.2966,-1.1066 -2.6198,-2.183 -3.9903,-3.2011 -1.2716,-1.0837 -2.5694,-2.1362 -3.9121,-3.1348 -1.2831,-1.095 -2.5917,-2.1596 -3.9472,-3.168 -1.3006,-1.1104 -2.629,-2.1876 -4.0039,-3.209 -1.2786,-1.0898 -2.5832,-2.1504 -3.9336,-3.1543 -1.2826,-1.0943 -2.5924,-2.1601 -3.9473,-3.1679 -1.3111,-1.1198 -2.6504,-2.2071 -4.0371,-3.2364 -1.2695,-1.0818 -2.564,-2.1337 -3.9043,-3.1308 -1.2897,-1.1016 -2.6078,-2.1735 -3.9707,-3.1875 -1.3107,-1.1201 -2.6489,-2.2068 -4.0352,-3.2363 -1.2894,-1.1 -2.6062,-2.1673 -3.9687,-3.1797 -1.2917,-1.1028 -2.6095,-2.1765 -3.9746,-3.1914 -1.3159,-1.1242 -2.6607,-2.2151 -4.0528,-3.2481 -1.2834,-1.0943 -2.5934,-2.1583 -3.9492,-3.166 -1.3099,-1.1189 -2.6478,-2.2039 -4.0332,-3.2324 -1.2958,-1.106 -2.6185,-2.1817 -3.9883,-3.1992 -1.3018,-1.112 -2.6314,-2.1922 -4.0078,-3.2149 -1.2996,-1.1102 -2.626,-2.1877 -4,-3.209 -1.3136,-1.1228 -2.6552,-2.2122 -4.0449,-3.2441 -1.3188,-1.1265 -2.6671,-2.219 -4.0625,-3.2539 -1.2842,-1.0954 -2.5945,-2.1613 -3.9512,-3.1699 -1.3253,-1.1339 -2.6792,-2.2342 -4.082,-3.2754 -13.2235,-11.2913 -30.3923,-18.1075 -49.2207,-18.1075 z"
         style="font-style:normal;font-weight:normal;font-size:40px;line-height:1.25;font-family:sans-serif;letter-spacing:0px;word-spacing:0px;fill:#000001;fill-opacity:0.133333;stroke:none;stroke-width:2.55797;stroke-linecap:round;stroke-linejoin:bevel;stroke-miterlimit:4;stroke-dasharray:none;stroke-dashoffset:0;stroke-opacity:0.42;paint-order:fill markers stroke"
         id="path2757" />
      <path
         style="fill:none;stroke:#000000;stroke-width:2.64536;stroke-linecap:butt;stroke-linejoin:miter;stroke-miterlimit:4;stroke-dasharray:none;stroke-opacity:1"
         d="M -5311.054,5834.3075 Z"
         id="path848"
         inkscape:connector-curvature="0"
         inkscape:export-xdpi="25.399994"
         inkscape:export-ydpi="25.399994" />
      <path
         d="m -5145.5527,4444.5586 c -41.9655,0 -75.75,33.7847 -75.75,75.75 v 838.0703 c 0,41.9655 33.7845,75.7481 75.75,75.7481 h 1418.0215 c 41.9655,0 75.75,-33.7826 75.75,-75.7481 v -838.0703 c -1e-4,-41.9653 -33.7846,-75.75 -75.75,-75.75 z m 61.582,86.9805 h 1294.8594 c 25.3934,0 45.8359,20.4423 45.8359,45.8359 v 723.9355 c 0,25.3935 -20.4425,45.836 -45.8359,45.836 h -1294.8594 c -25.395,0 -45.8379,-20.4425 -45.8379,-45.836 V 4577.375 c 0,-25.3936 20.4429,-45.8359 45.8379,-45.8359 z"
         style="font-style:normal;font-weight:normal;font-size:40px;line-height:1.25;font-family:sans-serif;letter-spacing:0px;word-spacing:0px;fill:#956156;fill-opacity:0.95;stroke:none;stroke-width:2.55797;stroke-linecap:round;stroke-linejoin:bevel;stroke-miterlimit:4;stroke-dasharray:none;stroke-dashoffset:0;stroke-opacity:0.42;paint-order:fill markers stroke"
         id="path1826" />
      <path
         d="m -5145.5527,4444.5586 c -41.9655,0 -75.75,33.7847 -75.75,75.75 v 316.1289 l 91.4941,14.0098 V 4577.375 c 0,-25.3936 20.4429,-45.8359 45.8379,-45.8359 h 1294.8594 c 25.3934,0 45.8359,20.4423 45.8359,45.8359 v 485.3809 l 91.4942,14.0097 v -556.457 c -2e-4,-41.9653 -33.7846,-75.75 -75.75,-75.75 z"
         style="font-style:normal;font-weight:normal;font-size:40px;line-height:1.25;font-family:sans-serif;letter-spacing:0px;word-spacing:0px;fill:#80534a;fill-opacity:0.95;stroke:none;stroke-width:2.55797;stroke-linecap:round;stroke-linejoin:bevel;stroke-miterlimit:4;stroke-dasharray:none;stroke-dashoffset:0;stroke-opacity:0.42;paint-order:fill markers stroke"
         id="path1887" />
      <path
         inkscape:connector-curvature="0"
         style="font-style:normal;font-weight:normal;font-size:40px;line-height:1.25;font-family:sans-serif;letter-spacing:0px;word-spacing:0px;fill:#3d3d3d;fill-opacity:1;stroke:none;stroke-width:2.70749;stroke-linecap:round;stroke-linejoin:bevel;stroke-miterlimit:4;stroke-dasharray:none;stroke-dashoffset:0;stroke-opacity:0.42;paint-order:fill markers stroke"
         d="m -5083.9716,4531.5385 h 1294.8601 c 25.3934,0 45.8354,20.4432 45.8354,45.8368 v 723.9351 c 0,25.3935 -20.442,45.8366 -45.8354,45.8366 h -1294.8601 c -25.395,0 -45.8369,-20.4431 -45.8369,-45.8366 v -723.9351 c 0,-25.3936 20.4419,-45.8368 45.8369,-45.8368 z"
         id="path1828" />
      <path
         d="m -5083.9707,4531.5391 c -25.395,0 -45.8379,20.4423 -45.8379,45.8359 v 273.0723 l 1386.5332,212.3086 V 4577.375 c 0,-25.3936 -20.4425,-45.8359 -45.8359,-45.8359 z"
         style="font-style:normal;font-weight:normal;font-size:40px;line-height:1.25;font-family:sans-serif;letter-spacing:0px;word-spacing:0px;fill:#363636;fill-opacity:1;stroke:none;stroke-width:2.70749;stroke-linecap:round;stroke-linejoin:bevel;stroke-miterlimit:4;stroke-dasharray:none;stroke-dashoffset:0;stroke-opacity:0.42;paint-order:fill markers stroke"
         id="path1894" />
      <path
         inkscape:connector-curvature="0"
         style="color:#000000;font-style:normal;font-variant:normal;font-weight:normal;font-stretch:normal;font-size:medium;line-height:normal;font-family:sans-serif;font-variant-ligatures:normal;font-variant-position:normal;font-variant-caps:normal;font-variant-numeric:normal;font-variant-alternates:normal;font-feature-settings:normal;text-indent:0;text-align:start;text-decoration:none;text-decoration-line:none;text-decoration-style:solid;text-decoration-color:#000000;letter-spacing:normal;word-spacing:normal;text-transform:none;writing-mode:lr-tb;direction:ltr;text-orientation:mixed;dominant-baseline:auto;baseline-shift:baseline;text-anchor:start;white-space:normal;shape-padding:0;clip-rule:nonzero;display:inline;overflow:visible;visibility:visible;isolation:auto;mix-blend-mode:normal;color-interpolation:sRGB;color-interpolation-filters:linearRGB;solid-color:#000000;solid-opacity:1;vector-effect:none;fill:#e1f5fe;fill-opacity:1;fill-rule:nonzero;stroke:none;stroke-width:50.6963;stroke-linecap:round;stroke-linejoin:miter;stroke-miterlimit:4;stroke-dasharray:none;stroke-dashoffset:0;stroke-opacity:1;color-rendering:auto;image-rendering:auto;shape-rendering:auto;text-rendering:auto;enable-background:accumulate"
         d="m -4628.5306,4627.3575 c -23.2596,-0.067 -42.4908,10.4191 -53.8402,27.3668 -11.9078,17.7811 -16.6059,40.9717 -18.113,67.5589 -1.6363,28.8802 0.7562,62.1832 4.9625,97.2697 -30.6622,10.1493 -52.738,38.8801 -51.9551,72.2835 0.9292,39.6504 33.7245,71.2113 73.4476,72.5718 6.888,46.7783 11.9093,89.8586 10.3235,121.2703 -1.092,21.6305 -5.7648,37.0532 -11.6614,44.001 -5.8965,6.9478 -12.5823,9.6054 -30.2681,4.7105 a 13.416296,13.416296 0 1 0 -7.1558,25.8572 c 23.628,6.5396 45.2319,1.696 57.8798,-13.2067 12.648,-14.9026 16.7722,-35.6781 18.0007,-60.0101 1.7792,-35.2516 -3.4612,-79.3871 -10.4711,-126.3621 30.8556,-10.0391 53.1145,-38.8651 52.3282,-72.4035 -0.9317,-39.7681 -33.9184,-71.4012 -73.8009,-72.586 -4.0488,-34.1437 -6.3174,-65.8395 -4.8419,-91.879 1.3651,-24.0933 6.1526,-43.0006 13.617,-54.1469 7.4643,-11.1462 16.1388,-16.237 33.7459,-15.4074 a 13.416296,13.416296 0 1 0 1.2631,-26.8011 c -1.1631,-0.055 -2.3167,-0.084 -3.4608,-0.087 z m 156.5354,104.303 c -0.4582,0.01 -0.9156,0.013 -1.371,0.028 -7.2845,0.2478 -14.1409,2.0372 -20.1877,5.4167 -12.0929,6.7591 -19.9203,18.4082 -25.2803,31.677 -10.4099,25.7685 -12.8822,59.771 -12.5119,94.9327 l -24.9367,2.2752 a 13.416296,13.416296 0 1 0 2.4381,26.7192 l 23.3306,-2.1284 c 3.2445,64.5227 14.5657,125.0494 14.5657,125.0494 a 13.416296,13.416296 0 1 0 26.3778,-4.9059 c 0,0 -11.1253,-60.2069 -14.194,-122.584 l 22.3601,-2.04 a 13.416296,13.416296 0 0 0 -1.5022,-26.784 13.416296,13.416296 0 0 0 -0.9336,0.064 l -20.6873,1.8874 c -0.1516,-32.7592 3.0283,-63.7645 10.5709,-82.4364 3.9701,-9.8279 8.7858,-15.6762 13.4921,-18.3066 4.7059,-2.6302 10.3254,-3.512 20.7729,0.2447 a 13.416296,13.416296 0 1 0 9.0768,-25.2459 c -7.2704,-2.6143 -14.502,-3.9153 -21.3803,-3.8636 z m 204.4884,8.5324 a 13.416296,13.416296 0 0 0 -13.2925,12.1281 c -4.6086,41.5875 -3.8548,82.6944 -1.2815,123.3941 -5.4903,-2.3623 -11.744,-4.4225 -18.6655,-5.3259 -11.2386,-1.4666 -24.9976,0.7502 -36.0893,10.2374 -11.0919,9.4872 -18.8872,24.7525 -23.3511,46.9838 -4.6174,22.9959 -0.7742,41.8947 9.37,54.8989 10.1436,13.0042 24.8785,19.133 38.7298,22.0676 27.7025,5.8688 55.3982,-0.01 55.3982,-0.01 a 13.416296,13.416296 0 0 0 10.7881,-14.1219 c -5.7235,-79.7674 -16.7915,-157.9171 -8.2307,-235.1736 a 13.416296,13.416296 0 0 0 -13.3755,-15.0824 z m -397.8577,102.597 c 24.3031,2.6836 42.9287,22.1504 43.4901,46.1033 0.4665,19.9049 -11.6731,37.2995 -29.6481,44.8027 -1.4307,-9.1364 -2.8867,-18.3277 -4.3379,-27.5457 -3.3441,-21.2472 -6.645,-42.5846 -9.5041,-63.3603 z m -26.6061,4.0293 c 2.9208,20.9625 6.2693,42.3044 9.6056,63.502 1.4166,9.0007 2.827,17.9702 4.2077,26.8716 -23.8156,-3.0971 -41.9436,-22.359 -42.4976,-45.9848 -0.4578,-19.5472 11.2405,-36.6735 28.6843,-44.3888 z m 521.6312,21.8571 c -14.066,-0.059 -25.0903,3.7038 -33.1078,9.9836 -6.8418,5.3588 -11.0359,12.0941 -13.2597,18.3386 -2.2244,6.2445 -3.1347,11.4065 -1.4114,17.9347 0.7105,2.6942 1.459,11.2562 7.944,19.379 6.4861,8.1239 18.0805,13.26 33.6949,13.8979 10.1159,0.4133 19.5082,5.2201 22.4801,8.8956 1.4857,1.8378 1.6971,2.7558 1.5702,4.1518 -0.1112,1.2249 -0.8724,3.53 -3.712,6.845 l -8.7736,4.6231 c -2.374,0.418 -12.0896,2.0766 -23.2902,2.3806 -6.3228,0.1716 -12.6451,-0.2601 -16.5048,-1.2132 -2.3138,-0.5713 -3.0798,-1.1245 -3.175,-1.088 a 13.416296,13.416296 0 0 0 -24.5889,10.6839 c 3.9701,10.3047 13.4543,14.5064 21.3307,16.4512 7.8765,1.9451 15.9752,2.195 23.6651,1.9863 15.3801,-0.4173 29.3432,-3.1139 29.3432,-3.1139 a 13.416296,13.416296 0 0 0 3.7553,-1.3117 l 12.9527,-6.8259 a 13.416296,13.416296 0 0 0 3.3985,-2.5514 c 7.0157,-7.2688 11.5171,-15.6179 12.3184,-24.4376 0.801,-8.8197 -2.4304,-17.2721 -7.426,-23.45 -9.99,-12.3556 -25.7192,-18.1571 -42.2502,-18.8324 -11.0335,-0.4508 -12.9235,-2.7064 -13.8216,-3.8315 -0.8982,-1.1249 -1.4328,-3.6642 -2.9675,-9.4837 0.5905,2.2348 0.029,-0.078 0.7426,-2.0862 0.7173,-2.015 2.0717,-4.2946 4.5299,-6.2201 4.9169,-3.851 16.0889,-8.108 42.4947,0.6666 a 13.416296,13.416296 0 1 0 8.4622,-25.4629 c -11.7679,-3.9104 -22.2775,-5.8784 -31.5395,-6.2462 -0.9652,-0.039 -1.9162,-0.059 -2.8543,-0.064 z m -243.7711,11.8899 a 16.210463,16.208595 0 0 0 -16.2108,16.2083 16.210463,16.208595 0 0 0 16.2108,16.2086 16.210463,16.208595 0 0 0 16.2103,-16.2086 16.210463,16.208595 0 0 0 -16.2103,-16.2083 z m 105.7073,16.1475 c 1.3214,-0.017 2.7061,0.088 4.1845,0.2813 11.1545,1.4559 23.1021,10.0995 24.5149,11.1335 1.9576,23.9756 4.1129,47.7774 5.9807,71.4888 -8.9448,0.7642 -21.2919,1.1495 -32.8026,-1.289 -10.1364,-2.1475 -18.3643,-6.2038 -23.1367,-12.3221 -4.7729,-6.1182 -7.7997,-15.2808 -4.2189,-33.1141 3.7343,-18.5979 9.6387,-27.7309 14.4845,-31.8758 3.6347,-3.1087 7.0294,-4.2515 10.9936,-4.3026 z m 100.7352,76.5931 c 0.069,0.1435 0.1483,0.3185 0.2319,0.535 a 13.416296,13.416296 0 0 0 -0.2319,-0.535 z m -289.4534,106.9132 a 13.416296,13.416296 0 0 0 -11.7792,6.9566 c -8.5364,15.0276 -15.9201,28.5991 -22.377,40.9742 -1.4205,-4.2052 -3.0827,-8.3451 -4.9916,-12.3315 -6.1177,-12.7747 -14.7999,-25.1181 -29.6607,-29.3506 -1.8574,-0.529 -3.7878,-0.8803 -5.756,-1.0519 v 0 c -5.9058,-0.5147 -12.163,0.5716 -17.8792,3.2085 -7.6223,3.5159 -14.484,9.3705 -21.1907,17.4354 a 13.416296,13.416296 0 1 0 20.6284,17.1541 c 4.9542,-5.9571 9.1157,-8.988 11.8004,-10.2262 2.6841,-1.2383 3.6906,-1.1047 5.0484,-0.7179 2.7158,0.7735 8.4077,5.9398 12.8118,15.1362 4.4041,9.1964 7.4911,21.2789 8.4184,31.0936 0.4636,4.9074 0.3771,9.2756 -0.034,12.0981 -0.01,0.042 -0.015,0.081 -0.02,0.1235 -0.7256,1.6047 -1.4337,3.1845 -2.1215,4.7381 a 13.416296,13.416296 0 0 0 -1.3083,2.9724 c -9.8724,22.604 -15.8243,39.8519 -20.8291,55.1073 a 13.416296,13.416296 0 1 0 25.4927,8.3636 c 4.8819,-14.8817 10.4353,-31.1149 19.7581,-52.4971 2.7731,-3.5238 4.0789,-7.185 4.8697,-10.8788 9.4482,-20.5764 22.2725,-45.7096 40.6717,-78.1002 a 13.416296,13.416296 0 0 0 -11.5511,-20.2074 z"
         id="path1162"
         inkscape:export-xdpi="25.399994"
         inkscape:export-ydpi="25.399994" />
    </g>
  </g>
</svg>
