<?xml version="1.0" encoding="UTF-8" standalone="no"?>
<svg
   xmlns:dc="http://purl.org/dc/elements/1.1/"
   xmlns:cc="http://creativecommons.org/ns#"
   xmlns:rdf="http://www.w3.org/1999/02/22-rdf-syntax-ns#"
   xmlns:svg="http://www.w3.org/2000/svg"
   xmlns="http://www.w3.org/2000/svg"
   xmlns:sodipodi="http://sodipodi.sourceforge.net/DTD/sodipodi-0.dtd"
   xmlns:inkscape="http://www.inkscape.org/namespaces/inkscape"
   sodipodi:docname="calcolatori_scalable.svg"
   inkscape:version="1.0 (4035a4fb49, 2020-05-01)"
   id="svg27864"
   version="1.1"
   viewBox="0 0 67.733338 67.733338"
   height="67.733337mm"
   width="67.733337mm">
  <defs
     id="defs27858">
    <clipPath
       clipPathUnits="userSpaceOnUse"
       id="clipPath1698-3">
      <rect
         style="opacity:0.604;fill:#26a10d;fill-opacity:0.985;stroke:#d32f2f;stroke-width:0;stroke-linecap:round;stroke-linejoin:bevel;stroke-miterlimit:4;stroke-dasharray:none;stroke-dashoffset:0;stroke-opacity:0.94;paint-order:fill markers stroke"
         id="rect1700-6"
         width="1200"
         height="772.966"
         x="-29147.879"
         y="19470.865"
         rx="64.06395"
         ry="64.06395" />
    </clipPath>
  </defs>
  <sodipodi:namedview
     inkscape:snap-global="false"
     inkscape:window-maximized="0"
     inkscape:window-y="24"
     inkscape:window-x="576"
     inkscape:window-height="1025"
     inkscape:window-width="1336"
     fit-margin-bottom="0"
     fit-margin-right="0"
     fit-margin-left="0"
     fit-margin-top="0"
     showgrid="false"
     inkscape:document-rotation="0"
     inkscape:current-layer="layer1"
     inkscape:document-units="mm"
     inkscape:cy="1917.0369"
     inkscape:cx="1435.348"
     inkscape:zoom="0.28173784"
     inkscape:pageshadow="2"
     inkscape:pageopacity="0.0"
     borderopacity="1.0"
     bordercolor="#666666"
     pagecolor="#ffffff"
     id="base" />
  <metadata
     id="metadata27861">
    <rdf:RDF>
      <cc:Work
         rdf:about="">
        <dc:format>image/svg+xml</dc:format>
        <dc:type
           rdf:resource="http://purl.org/dc/dcmitype/StillImage" />
        <dc:title></dc:title>
        <cc:license
           rdf:resource="http://creativecommons.org/licenses/by-sa/4.0/" />
      </cc:Work>
      <cc:License
         rdf:about="http://creativecommons.org/licenses/by-sa/4.0/">
        <cc:permits
           rdf:resource="http://creativecommons.org/ns#Reproduction" />
        <cc:permits
           rdf:resource="http://creativecommons.org/ns#Distribution" />
        <cc:requires
           rdf:resource="http://creativecommons.org/ns#Notice" />
        <cc:requires
           rdf:resource="http://creativecommons.org/ns#Attribution" />
        <cc:permits
           rdf:resource="http://creativecommons.org/ns#DerivativeWorks" />
        <cc:requires
           rdf:resource="http://creativecommons.org/ns#ShareAlike" />
      </cc:License>
    </rdf:RDF>
  </metadata>
  <g
     transform="translate(1898.8722,1815.2332)"
     id="layer1"
     inkscape:groupmode="layer"
     inkscape:label="Livello 1">
    <g
       id="g29417"
       transform="matrix(0.03307292,0,0,0.03307292,-1751.9845,-1893.3489)">
      <rect
         style="fill:#388e3c;fill-opacity:0.95;stroke:none;stroke-width:3.5;stroke-linecap:round;stroke-linejoin:bevel;stroke-miterlimit:4;stroke-dasharray:none;stroke-dashoffset:0;stroke-opacity:1;paint-order:fill markers stroke"
         id="rect8071"
         width="2048"
         height="2048"
         x="-4441.3296"
         y="2361.9231"
         rx="1.2997299"
         ry="1.2997299" />
      <path
         inkscape:connector-curvature="0"
         style="fill:#000001;fill-opacity:0.145098;stroke:none;stroke-width:3.5;stroke-linecap:round;stroke-linejoin:bevel;stroke-miterlimit:4;stroke-dasharray:none;stroke-dashoffset:0;stroke-opacity:1;paint-order:fill markers stroke"
         d="m -3653.0477,2808.7924 c -0.143,0 -0.276,0.04 -0.386,0.118 -0.03,0.02 -0.07,0.05 -0.101,0.08 -0.03,0.03 -0.06,0.07 -0.08,0.102 -0.02,0.03 -0.05,0.07 -0.06,0.117 -0.04,0.08 -0.05,0.172 -0.05,0.267 -1.187,0 -2.368,0.03 -3.541,0.09 -0.585,0.03 -1.169,0.06 -1.752,0.11 -1.746,0.132 -3.474,0.329 -5.18,0.587 -1.707,0.26 -3.393,0.581 -5.054,0.963 -0.555,0.127 -1.106,0.259 -1.655,0.4 -1.097,0.281 -2.184,0.589 -3.259,0.921 -2.151,0.665 -4.255,1.433 -6.308,2.297 -0.513,0.216 -1.023,0.438 -1.53,0.667 -1.52,0.684 -3.01,1.422 -4.469,2.211 -0.972,0.526 -1.929,1.074 -2.872,1.646 -1.886,1.142 -3.712,2.372 -5.471,3.685 -0.44,0.328 -0.876,0.662 -1.307,1 -2.158,1.692 -4.211,3.511 -6.149,5.445 -0.775,0.774 -1.531,1.567 -2.269,2.377 -0.368,0.405 -0.732,0.815 -1.091,1.229 -0.358,0.414 -0.712,0.833 -1.061,1.255 -1.047,1.269 -2.049,2.575 -3.003,3.917 -0.318,0.448 -0.632,0.899 -0.939,1.354 -3.691,5.465 -6.612,11.497 -8.61,17.94 -0.334,1.074 -0.64,2.158 -0.922,3.254 -0.421,1.645 -0.783,3.314 -1.084,5.004 -0.201,1.127 -0.374,2.263 -0.519,3.408 -0.07,0.573 -0.138,1.149 -0.196,1.726 -0.06,0.576 -0.11,1.156 -0.153,1.737 -0.133,1.745 -0.2,3.507 -0.2,5.287 v 0.859 85.635 c 0,0.09 0.02,0.185 0.05,0.268 0.02,0.04 0.04,0.08 0.06,0.116 0.05,0.07 0.112,0.135 0.186,0.186 0.03,0.02 0.07,0.05 0.116,0.06 v 0 c 0.08,0.04 0.173,0.05 0.268,0.05 0,0.593 0,1.184 0.02,1.773 0.02,0.59 0.04,1.177 0.07,1.762 0.09,1.757 0.243,3.495 0.461,5.213 0.07,0.573 0.151,1.144 0.238,1.713 0.778,5.113 2.118,10.037 3.956,14.708 0.204,0.519 0.414,1.034 0.631,1.547 1.297,3.076 2.813,6.035 4.529,8.86 0.571,0.942 1.165,1.867 1.781,2.778 0.307,0.456 0.62,0.908 0.938,1.355 0.319,0.448 0.641,0.891 0.97,1.33 0.986,1.318 2.018,2.6 3.095,3.842 0.717,0.828 1.454,1.638 2.211,2.431 0.755,0.792 1.531,1.565 2.324,2.321 v 0 c 0.793,0.756 1.604,1.492 2.433,2.208 0.414,0.359 0.833,0.712 1.256,1.061 0.424,0.348 0.852,0.692 1.282,1.03 0.432,0.338 0.868,0.672 1.308,1 0.44,0.328 0.884,0.651 1.332,0.97 0.221,0.156 0.445,0.307 0.668,0.46 0.26,0.363 0.52,0.724 0.787,1.081 0.326,0.434 0.657,0.866 0.993,1.293 2.012,2.561 4.206,4.972 6.561,7.214 1.179,1.122 2.397,2.202 3.654,3.236 0.419,0.346 0.842,0.685 1.27,1.021 0.427,0.335 0.858,0.664 1.294,0.99 0.436,0.325 0.875,0.645 1.319,0.959 0.235,0.167 0.473,0.328 0.711,0.492 1.521,2.123 3.161,4.156 4.915,6.083 0.722,0.795 1.465,1.571 2.224,2.329 0.379,0.38 0.764,0.755 1.152,1.124 1.166,1.111 2.373,2.18 3.618,3.204 0.414,0.342 0.833,0.678 1.256,1.01 0.846,0.663 1.709,1.307 2.587,1.93 0.248,0.175 0.499,0.346 0.749,0.518 0.277,0.389 0.557,0.774 0.843,1.155 1.912,2.559 4.006,4.973 6.262,7.226 0.244,0.244 0.492,0.482 0.74,0.723 h -25.884 c -0.04,0 -0.09,0 -0.131,0.01 -0.04,0 -0.08,0.02 -0.119,0.03 -0.08,0.03 -0.147,0.08 -0.204,0.138 -0.117,0.116 -0.189,0.276 -0.189,0.454 -1.109,0 -2.211,0.03 -3.307,0.08 -1.095,0.05 -2.183,0.137 -3.263,0.245 -0.54,0.05 -1.077,0.117 -1.613,0.184 -1.608,0.203 -3.196,0.465 -4.764,0.783 -1.045,0.213 -2.079,0.451 -3.105,0.713 -1.025,0.262 -2.041,0.549 -3.046,0.86 -1.506,0.465 -2.989,0.987 -4.445,1.557 -0.485,0.191 -0.968,0.387 -1.447,0.589 -1.439,0.605 -2.85,1.263 -4.233,1.968 -0.46,0.235 -0.917,0.476 -1.372,0.721 -1.362,0.738 -2.694,1.521 -3.995,2.353 -0.866,0.553 -1.718,1.128 -2.556,1.721 -0.418,0.297 -0.832,0.599 -1.244,0.906 -0.822,0.613 -1.629,1.246 -2.42,1.897 -0.394,0.325 -0.786,0.655 -1.173,0.99 -0.387,0.335 -0.771,0.674 -1.149,1.018 -1.516,1.376 -2.965,2.823 -4.343,4.337 -0.688,0.757 -1.359,1.532 -2.011,2.32 -0.326,0.395 -0.648,0.794 -0.964,1.197 -0.317,0.403 -0.628,0.809 -0.936,1.22 -0.92,1.231 -1.797,2.498 -2.629,3.796 -1.109,1.731 -2.137,3.519 -3.079,5.36 -0.706,1.38 -1.363,2.789 -1.97,4.226 -0.404,0.958 -0.786,1.928 -1.144,2.909 -0.179,0.491 -0.353,0.984 -0.52,1.48 -0.335,0.992 -0.646,1.996 -0.933,3.01 -0.431,1.52 -0.806,3.065 -1.126,4.63 v 0 c -0.106,0.522 -0.206,1.045 -0.3,1.571 -0.187,1.054 -0.349,2.114 -0.484,3.185 -0.07,0.535 -0.129,1.073 -0.183,1.611 -0.05,0.541 -0.103,1.081 -0.144,1.624 -0.123,1.63 -0.186,3.276 -0.186,4.939 v 0 5.24 19.248 c -1.104,-1.285 -2.254,-2.529 -3.453,-3.726 -0.376,-0.376 -0.755,-0.746 -1.141,-1.112 -0.384,-0.367 -0.774,-0.728 -1.168,-1.086 -0.393,-0.357 -0.791,-0.709 -1.193,-1.057 -0.402,-0.348 -0.808,-0.69 -1.219,-1.029 -0.411,-0.337 -0.825,-0.671 -1.244,-1 -0.656,-0.514 -1.326,-1.013 -2.001,-1.503 -2.252,-3.213 -4.775,-6.219 -7.541,-8.983 -0.38,-0.379 -0.764,-0.755 -1.153,-1.125 v 0 c -1.166,-1.11 -2.372,-2.178 -3.616,-3.203 -0.414,-0.342 -0.834,-0.678 -1.257,-1.01 -0.423,-0.331 -0.85,-0.658 -1.281,-0.981 v 0 c -0.23,-0.171 -0.464,-0.337 -0.696,-0.506 -0.08,-0.111 -0.154,-0.224 -0.231,-0.334 -0.631,-0.886 -1.282,-1.756 -1.952,-2.61 -1.342,-1.707 -2.765,-3.347 -4.262,-4.916 -0.374,-0.393 -0.754,-0.78 -1.137,-1.163 -1.534,-1.532 -3.142,-2.992 -4.818,-4.372 -1.046,-0.862 -2.122,-1.688 -3.219,-2.487 -0.385,-0.547 -0.774,-1.089 -1.174,-1.625 -0.657,-0.878 -1.334,-1.74 -2.032,-2.585 -0.349,-0.423 -0.704,-0.842 -1.062,-1.256 -0.359,-0.414 -0.723,-0.822 -1.091,-1.228 -1.843,-2.025 -3.806,-3.941 -5.878,-5.732 -0.415,-0.359 -0.834,-0.713 -1.258,-1.061 -0.845,-0.697 -1.709,-1.373 -2.589,-2.029 -0.44,-0.329 -0.884,-0.652 -1.332,-0.97 v 0 c -0.896,-0.635 -1.808,-1.251 -2.735,-1.842 v 0 c -0.464,-0.297 -0.931,-0.588 -1.402,-0.874 v 0 c -0.471,-0.285 -0.946,-0.566 -1.424,-0.84 -0.958,-0.548 -1.931,-1.074 -2.918,-1.577 -0.491,-0.252 -0.988,-0.498 -1.488,-0.738 v 0 c -0.5,-0.24 -1.004,-0.473 -1.51,-0.702 -1.014,-0.456 -2.04,-0.889 -3.079,-1.297 -1.04,-0.407 -2.091,-0.791 -3.154,-1.148 v 0 c -1.063,-0.359 -2.138,-0.691 -3.225,-0.998 v 0 c -1.087,-0.307 -2.183,-0.588 -3.292,-0.842 v 0 c -0.554,-0.127 -1.11,-0.248 -1.669,-0.362 -0.56,-0.113 -1.121,-0.22 -1.685,-0.32 -0.565,-0.101 -1.131,-0.193 -1.699,-0.28 -0.57,-0.09 -1.141,-0.166 -1.714,-0.238 -0.573,-0.07 -1.15,-0.138 -1.727,-0.196 v 0 c -0.577,-0.06 -1.157,-0.11 -1.74,-0.153 v 0 c -0.581,-0.04 -1.165,-0.08 -1.751,-0.111 v 0 c -1.172,-0.06 -2.352,-0.09 -3.539,-0.09 v 0 h -0.86 -85.742 c -0.05,0 -0.09,0 -0.139,0.01 -0.04,0 -0.09,0.02 -0.129,0.04 -0.04,0.02 -0.08,0.04 -0.117,0.06 -0.04,0.02 -0.07,0.05 -0.102,0.08 -0.03,0.03 -0.06,0.06 -0.08,0.101 -0.05,0.07 -0.08,0.156 -0.103,0.246 0,0.04 -0.02,0.09 -0.02,0.139 -0.594,0 -1.186,0 -1.776,0.02 -2.361,0.06 -4.691,0.236 -6.984,0.526 -1.147,0.145 -2.285,0.318 -3.413,0.518 -1.128,0.2 -2.247,0.429 -3.355,0.682 -1.662,0.382 -3.302,0.822 -4.915,1.321 -1.612,0.499 -3.199,1.057 -4.758,1.668 -0.519,0.204 -1.036,0.414 -1.548,0.63 -0.514,0.217 -1.024,0.439 -1.531,0.666 -1.013,0.457 -2.013,0.936 -3,1.44 -0.493,0.252 -0.982,0.508 -1.469,0.772 -0.485,0.263 -0.968,0.532 -1.447,0.806 -0.957,0.549 -1.9,1.119 -2.828,1.712 -0.464,0.297 -0.924,0.598 -1.38,0.906 -0.912,0.614 -1.809,1.25 -2.688,1.906 -2.64,1.97 -5.131,4.125 -7.455,6.447 -0.388,0.387 -0.771,0.779 -1.149,1.175 -0.757,0.791 -1.493,1.603 -2.211,2.43 -0.359,0.414 -0.713,0.832 -1.062,1.255 -1.047,1.268 -2.049,2.574 -3.004,3.918 -0.954,1.341 -1.86,2.72 -2.718,4.133 -1.714,2.824 -3.231,5.785 -4.529,8.859 -1.082,2.564 -2.013,5.207 -2.78,7.92 -0.155,0.543 -0.302,1.087 -0.442,1.636 -0.141,0.548 -0.275,1.099 -0.403,1.652 -0.126,0.554 -0.246,1.109 -0.361,1.668 -0.113,0.559 -0.221,1.12 -0.321,1.683 -0.201,1.127 -0.373,2.262 -0.518,3.408 -0.145,1.146 -0.262,2.301 -0.35,3.464 -0.04,0.581 -0.08,1.164 -0.11,1.75 -0.06,1.171 -0.09,2.349 -0.09,3.536 0,0.05 0,0.09 0.01,0.138 0,0.05 0.02,0.09 0.04,0.129 0.04,0.08 0.08,0.157 0.148,0.219 0.03,0.03 0.06,0.06 0.101,0.08 0.04,0.02 0.08,0.05 0.117,0.06 0.08,0.04 0.173,0.05 0.268,0.05 0,0.594 0,1.185 0.02,1.775 0.06,2.356 0.235,4.683 0.526,6.975 0.07,0.572 0.152,1.142 0.238,1.711 0.433,2.84 1.038,5.623 1.806,8.336 0.308,1.085 0.641,2.159 1,3.221 0.179,0.531 0.364,1.06 0.555,1.585 0.192,0.525 0.39,1.046 0.595,1.566 0.203,0.519 0.414,1.035 0.631,1.548 1.298,3.075 2.813,6.034 4.529,8.859 0.572,0.942 1.166,1.869 1.781,2.779 0.307,0.456 0.62,0.907 0.938,1.355 0.318,0.447 0.641,0.891 0.97,1.33 1.314,1.758 2.711,3.45 4.186,5.07 0.368,0.405 0.741,0.806 1.12,1.202 0.756,0.793 1.531,1.567 2.324,2.322 0.397,0.378 0.798,0.751 1.203,1.118 0.406,0.369 0.816,0.733 1.231,1.09 0.415,0.359 0.833,0.712 1.256,1.061 1.479,1.217 3.012,2.369 4.591,3.461 0.26,0.362 0.52,0.724 0.786,1.079 0.326,0.435 0.657,0.866 0.993,1.293 0.334,0.427 0.675,0.85 1.02,1.269 1.382,1.672 2.843,3.278 4.377,4.811 1.919,1.916 3.951,3.716 6.088,5.392 0.426,0.335 0.858,0.664 1.293,0.99 0.436,0.325 0.876,0.644 1.32,0.958 0.235,0.168 0.474,0.329 0.712,0.493 0.268,0.374 0.537,0.747 0.812,1.114 0.322,0.431 0.648,0.858 0.981,1.28 0.332,0.422 0.67,0.84 1.011,1.255 0.684,0.829 1.388,1.64 2.11,2.434 1.084,1.192 2.21,2.343 3.377,3.453 0.777,0.741 1.572,1.462 2.384,2.164 0.813,0.703 1.643,1.387 2.489,2.049 0.846,0.665 1.708,1.308 2.587,1.931 0.247,0.175 0.497,0.344 0.746,0.516 0.588,0.822 1.193,1.631 1.817,2.424 0.184,0.236 0.374,0.466 0.561,0.697 -1.376,0.06 -2.741,0.151 -4.094,0.287 -0.578,0.06 -1.154,0.124 -1.728,0.197 -0.573,0.07 -1.144,0.15 -1.713,0.237 -1.138,0.173 -2.266,0.374 -3.385,0.601 -0.558,0.113 -1.115,0.234 -1.669,0.361 -0.554,0.127 -1.105,0.262 -1.654,0.401 -0.548,0.141 -1.095,0.288 -1.638,0.441 -0.544,0.154 -1.085,0.313 -1.622,0.48 -1.076,0.332 -2.14,0.69 -3.191,1.074 -1.051,0.383 -2.09,0.791 -3.117,1.222 -0.513,0.217 -1.023,0.438 -1.53,0.667 -1.013,0.456 -2.013,0.936 -2.999,1.439 -0.494,0.252 -0.983,0.509 -1.469,0.773 -0.486,0.262 -0.969,0.532 -1.447,0.806 -2.394,1.372 -4.697,2.883 -6.898,4.524 -1.759,1.313 -3.452,2.708 -5.076,4.181 -0.405,0.368 -0.806,0.741 -1.202,1.119 -0.794,0.755 -1.569,1.529 -2.325,2.321 -0.756,0.792 -1.493,1.602 -2.211,2.431 -1.076,1.241 -2.109,2.523 -3.095,3.841 -0.986,1.318 -1.924,2.674 -2.815,4.063 -2.078,3.242 -3.889,6.673 -5.403,10.261 -0.216,0.513 -0.427,1.028 -0.631,1.548 -0.409,1.038 -0.792,2.087 -1.15,3.15 -0.18,0.531 -0.353,1.065 -0.519,1.602 -0.334,1.074 -0.641,2.159 -0.922,3.256 -0.141,0.547 -0.274,1.099 -0.402,1.652 -0.509,2.213 -0.911,4.468 -1.201,6.76 -0.07,0.571 -0.138,1.147 -0.196,1.724 -0.06,0.578 -0.11,1.157 -0.154,1.738 -0.132,1.745 -0.199,3.507 -0.199,5.286 0,0.05 0,0.09 0.01,0.138 0.02,0.09 0.05,0.174 0.103,0.247 0.02,0.04 0.05,0.07 0.08,0.102 0.09,0.09 0.212,0.159 0.347,0.186 0.05,0 0.09,0.01 0.139,0.01 0,0.594 0,1.184 0.02,1.774 0.02,0.588 0.04,1.176 0.07,1.762 0.03,0.586 0.07,1.169 0.111,1.751 0.131,1.743 0.328,3.468 0.587,5.173 0.173,1.136 0.373,2.263 0.602,3.38 0.113,0.559 0.234,1.114 0.361,1.668 0.127,0.553 0.261,1.104 0.402,1.652 0.141,0.549 0.288,1.094 0.441,1.637 0.154,0.542 0.314,1.082 0.481,1.619 0.166,0.537 0.339,1.071 0.519,1.602 0.358,1.062 0.741,2.112 1.15,3.15 0.204,0.52 0.414,1.036 0.631,1.548 1.298,3.076 2.814,6.035 4.529,8.859 0.286,0.471 0.577,0.939 0.873,1.401 0.298,0.464 0.6,0.924 0.907,1.379 0.923,1.367 1.894,2.698 2.91,3.991 1.355,1.724 2.792,3.381 4.305,4.966 1.512,1.585 3.1,3.097 4.759,4.53 0.828,0.717 1.675,1.413 2.538,2.09 0.432,0.339 0.867,0.673 1.307,1.001 0.657,0.49 1.326,0.964 2.001,1.431 0.259,0.362 0.52,0.723 0.787,1.079 1.302,1.74 2.684,3.415 4.144,5.019 0.365,0.401 0.734,0.798 1.108,1.19 0.375,0.392 0.754,0.781 1.138,1.164 0.767,0.765 1.553,1.514 2.356,2.242 0.401,0.365 0.808,0.724 1.217,1.08 1.231,1.064 2.501,2.085 3.808,3.059 0.435,0.326 0.875,0.645 1.319,0.959 0.234,0.167 0.474,0.328 0.712,0.492 0.268,0.375 0.537,0.747 0.812,1.115 0.322,0.43 0.649,0.858 0.981,1.28 1.661,2.112 3.446,4.122 5.344,6.018 0.38,0.38 0.765,0.754 1.154,1.124 1.166,1.11 2.372,2.179 3.616,3.203 0.829,0.684 1.675,1.348 2.538,1.991 0.431,0.321 0.866,0.637 1.306,0.95 0.246,0.174 0.497,0.344 0.747,0.516 0.278,0.389 0.558,0.775 0.845,1.157 0.318,0.427 0.642,0.849 0.97,1.267 0.658,0.836 1.335,1.656 2.031,2.461 0.349,0.401 0.701,0.799 1.059,1.191 0.358,0.393 0.72,0.782 1.087,1.166 0.734,0.769 1.486,1.52 2.256,2.253 0.384,0.366 0.773,0.728 1.167,1.085 0.393,0.358 0.792,0.711 1.193,1.058 0.403,0.347 0.809,0.69 1.22,1.028 0.821,0.676 1.658,1.333 2.512,1.97 0.427,0.318 0.858,0.632 1.293,0.94 0.261,0.186 0.525,0.365 0.789,0.547 0.592,0.829 1.202,1.645 1.83,2.445 0.977,1.242 1.996,2.448 3.058,3.615 0.355,0.389 0.713,0.774 1.076,1.155 0.727,0.761 1.471,1.504 2.232,2.229 0.763,0.726 1.542,1.433 2.339,2.121 0.397,0.345 0.8,0.684 1.206,1.019 0.406,0.334 0.816,0.664 1.231,0.988 0.415,0.326 0.833,0.646 1.256,0.961 0.692,0.516 1.398,1.016 2.11,1.505 1.074,1.509 2.215,2.968 3.411,4.376 0,0.02 0,0.04 0,0.06 -1.745,0 -3.475,0.06 -5.187,0.195 -0.57,0.04 -1.139,0.09 -1.705,0.151 -0.567,0.06 -1.132,0.121 -1.693,0.192 -2.811,0.354 -5.566,0.881 -8.255,1.568 -1.613,0.414 -3.203,0.884 -4.766,1.412 -2.607,0.876 -5.14,1.909 -7.591,3.084 -0.489,0.235 -0.976,0.475 -1.459,0.722 -0.483,0.247 -0.964,0.5 -1.44,0.757 -1.429,0.774 -2.827,1.597 -4.19,2.469 -0.455,0.291 -0.906,0.587 -1.353,0.887 -0.893,0.603 -1.771,1.225 -2.634,1.868 -0.432,0.323 -0.859,0.649 -1.281,0.981 -0.424,0.331 -0.843,0.668 -1.257,1.01 -1.659,1.366 -3.251,2.81 -4.769,4.328 -1.899,1.895 -3.684,3.906 -5.345,6.018 -0.665,0.845 -1.309,1.707 -1.933,2.583 -0.311,0.44 -0.619,0.882 -0.919,1.329 -0.604,0.892 -1.185,1.801 -1.746,2.723 -0.28,0.462 -0.555,0.926 -0.824,1.395 -0.538,0.937 -1.054,1.889 -1.548,2.854 -0.247,0.483 -0.489,0.969 -0.723,1.459 -0.472,0.979 -0.92,1.972 -1.344,2.976 -0.212,0.503 -0.418,1.008 -0.618,1.517 -0.401,1.017 -0.776,2.046 -1.128,3.087 -0.175,0.52 -0.345,1.044 -0.509,1.57 -0.163,0.527 -0.319,1.056 -0.469,1.587 -0.301,1.064 -0.578,2.139 -0.827,3.224 -0.749,3.254 -1.262,6.599 -1.52,10.018 -0.04,0.57 -0.08,1.142 -0.109,1.717 -0.06,1.147 -0.09,2.302 -0.09,3.464 0,0.214 0.03,0.419 0.09,0.612 0.101,0.321 0.275,0.609 0.508,0.84 0.09,0.09 0.195,0.177 0.304,0.25 0.11,0.07 0.225,0.137 0.348,0.188 0.06,0.03 0.126,0.05 0.189,0.07 0.06,0.02 0.13,0.03 0.197,0.05 0.07,0.01 0.136,0.02 0.205,0.03 0.07,0 0.14,0.01 0.21,0.01 0,1.743 0.07,3.471 0.196,5.181 0.04,0.569 0.09,1.137 0.15,1.703 0.06,0.565 0.121,1.128 0.192,1.69 0.07,0.561 0.149,1.121 0.234,1.677 0.17,1.113 0.366,2.219 0.589,3.313 0.447,2.189 0.999,4.34 1.651,6.445 0.164,0.526 0.333,1.049 0.509,1.571 0.528,1.561 1.11,3.096 1.746,4.604 0.213,0.502 0.429,1.002 0.654,1.498 1.118,2.479 2.385,4.878 3.784,7.185 0.841,1.384 1.731,2.736 2.666,4.052 0.312,0.438 0.629,0.873 0.951,1.304 0.323,0.43 0.649,0.856 0.981,1.279 1.992,2.535 4.166,4.922 6.498,7.142 0.388,0.371 0.781,0.737 1.179,1.098 0.795,0.721 1.607,1.423 2.436,2.106 0.415,0.342 0.835,0.679 1.259,1.011 0.422,0.331 0.849,0.658 1.28,0.98 0.431,0.321 0.867,0.637 1.306,0.949 0.246,0.175 0.497,0.345 0.747,0.517 0.588,0.822 1.192,1.631 1.815,2.424 0.186,0.235 0.375,0.465 0.563,0.698 -0.788,0.03 -1.574,0.07 -2.355,0.132 -0.582,0.04 -1.162,0.09 -1.739,0.154 -1.156,0.116 -2.304,0.261 -3.442,0.434 -1.138,0.173 -2.265,0.373 -3.384,0.6 -0.559,0.114 -1.115,0.234 -1.67,0.362 -0.554,0.127 -1.105,0.26 -1.653,0.401 -1.647,0.421 -3.269,0.901 -4.865,1.438 -1.064,0.358 -2.115,0.741 -3.154,1.149 -0.52,0.204 -1.036,0.415 -1.55,0.631 -1.539,0.647 -3.05,1.35 -4.529,2.105 -0.987,0.503 -1.958,1.029 -2.916,1.578 -0.479,0.274 -0.955,0.554 -1.425,0.84 -0.944,0.571 -1.871,1.164 -2.783,1.779 -2.281,1.535 -4.462,3.205 -6.534,4.997 -0.414,0.358 -0.825,0.721 -1.231,1.09 -0.405,0.367 -0.807,0.74 -1.203,1.118 -0.397,0.377 -0.789,0.759 -1.176,1.147 -0.388,0.387 -0.77,0.778 -1.148,1.174 -0.757,0.792 -1.494,1.603 -2.212,2.431 -0.358,0.414 -0.712,0.833 -1.061,1.255 -0.349,0.422 -0.693,0.849 -1.033,1.281 -0.338,0.431 -0.672,0.866 -1.001,1.306 -0.986,1.318 -1.924,2.672 -2.814,4.062 -0.298,0.463 -0.589,0.929 -0.874,1.401 -0.572,0.942 -1.122,1.898 -1.649,2.869 -1.054,1.942 -2.015,3.941 -2.881,5.992 -0.217,0.512 -0.427,1.028 -0.631,1.546 -0.817,2.076 -1.534,4.202 -2.149,6.373 -0.462,1.627 -0.863,3.28 -1.205,4.955 -0.114,0.559 -0.221,1.12 -0.321,1.683 -0.102,0.564 -0.194,1.129 -0.28,1.697 -0.174,1.138 -0.318,2.283 -0.436,3.437 -0.116,1.155 -0.204,2.318 -0.262,3.488 -0.03,0.585 -0.05,1.173 -0.07,1.762 -0.02,0.59 -0.02,1.182 -0.02,1.775 0,0.05 0,0.09 0.01,0.138 0.03,0.134 0.09,0.254 0.187,0.348 0.09,0.09 0.213,0.158 0.348,0.186 0.04,0 0.09,0.01 0.139,0.01 0,1.778 0.07,3.541 0.199,5.285 0.04,0.582 0.09,1.161 0.154,1.738 0.116,1.154 0.262,2.301 0.435,3.436 0.08,0.569 0.18,1.134 0.28,1.698 0.101,0.564 0.207,1.124 0.321,1.683 0.113,0.558 0.233,1.114 0.361,1.667 0.255,1.108 0.536,2.203 0.843,3.288 0.154,0.543 0.314,1.083 0.481,1.621 0.666,2.147 1.434,4.249 2.3,6.299 0.216,0.513 0.438,1.023 0.666,1.529 0.457,1.012 0.939,2.011 1.442,2.996 0.252,0.492 0.509,0.98 0.773,1.466 0.263,0.485 0.532,0.968 0.807,1.446 0.275,0.478 0.555,0.952 0.841,1.424 0.857,1.412 1.764,2.791 2.719,4.133 1.591,2.238 3.313,4.375 5.156,6.4 2.58,2.837 5.396,5.454 8.417,7.822 0.432,0.339 0.868,0.673 1.308,1.001 0.439,0.329 0.883,0.651 1.331,0.969 0.221,0.157 0.447,0.308 0.669,0.463 1.211,1.687 2.494,3.316 3.851,4.882 1.066,1.229 2.175,2.42 3.326,3.569 0.767,0.766 1.552,1.514 2.356,2.243 0.401,0.364 0.808,0.723 1.218,1.078 2.872,2.484 5.956,4.731 9.224,6.708 0.932,0.566 1.881,1.109 2.843,1.63 0.481,0.26 0.967,0.516 1.455,0.764 0.487,0.25 0.979,0.493 1.475,0.731 0.436,0.21 0.878,0.413 1.321,0.614 0.303,0.641 0.611,1.28 0.934,1.91 0.245,0.478 0.494,0.952 0.75,1.424 0.767,1.413 1.583,2.795 2.447,4.143 0.575,0.898 1.172,1.783 1.79,2.651 0.308,0.434 0.623,0.865 0.941,1.291 0.319,0.426 0.643,0.848 0.971,1.267 0.659,0.836 1.335,1.656 2.031,2.459 1.045,1.205 2.132,2.373 3.26,3.499 1.127,1.126 2.297,2.212 3.503,3.256 0.804,0.695 1.625,1.371 2.463,2.028 0.837,0.656 1.691,1.293 2.561,1.91 0.26,0.185 0.525,0.365 0.788,0.545 0.287,0.401 0.576,0.799 0.87,1.192 0.316,0.423 0.636,0.841 0.962,1.255 0.326,0.414 0.655,0.823 0.991,1.229 0.335,0.406 0.675,0.807 1.02,1.205 0.344,0.398 0.692,0.792 1.047,1.181 0.707,0.778 1.434,1.539 2.179,2.283 1.488,1.486 3.048,2.902 4.673,4.24 0.407,0.336 0.817,0.664 1.231,0.989 0.415,0.325 0.833,0.646 1.256,0.961 0.423,0.315 0.849,0.625 1.28,0.93 0.274,0.195 0.553,0.385 0.83,0.575 0.294,0.412 0.591,0.821 0.895,1.226 0.624,0.835 1.269,1.656 1.932,2.459 0.663,0.804 1.346,1.59 2.047,2.36 0.7,0.771 1.419,1.524 2.156,2.26 1.105,1.104 2.249,2.168 3.431,3.19 0.788,0.681 1.592,1.344 2.413,1.987 1.098,0.861 2.226,1.683 3.379,2.473 0,0 0,0 0,0.01 0.3,0.421 0.604,0.839 0.913,1.252 0.928,1.24 1.899,2.445 2.912,3.614 1.013,1.169 2.067,2.3 3.161,3.392 0.729,0.728 1.476,1.439 2.239,2.132 0.382,0.346 0.768,0.688 1.157,1.025 1.839,1.589 3.77,3.074 5.783,4.45 0.02,0.02 0.03,0.04 0.04,0.06 0.297,0.418 0.598,0.831 0.904,1.24 0.306,0.409 0.616,0.814 0.932,1.216 0.315,0.401 0.636,0.799 0.961,1.192 1.299,1.575 2.674,3.085 4.117,4.526 0.721,0.721 1.46,1.424 2.216,2.11 0.755,0.685 1.528,1.354 2.316,2.003 0.394,0.324 0.792,0.644 1.194,0.959 0.402,0.315 0.807,0.625 1.217,0.931 0.718,0.535 1.45,1.055 2.192,1.561 0.317,0.447 0.639,0.891 0.966,1.329 0.606,0.81 1.231,1.605 1.874,2.384 0.322,0.389 0.649,0.775 0.979,1.156 0.331,0.381 0.666,0.76 1.006,1.133 1.018,1.12 2.077,2.203 3.173,3.247 0.366,0.348 0.737,0.692 1.11,1.031 1.869,1.696 3.842,3.281 5.906,4.746 0.329,0.233 0.661,0.46 0.994,0.687 0.04,0.05 0.07,0.101 0.102,0.147 0.291,0.408 0.585,0.813 0.885,1.213 1.498,2.004 3.115,3.914 4.839,5.72 0.345,0.362 0.693,0.719 1.047,1.072 1.06,1.059 2.158,2.079 3.292,3.06 1.134,0.981 2.304,1.921 3.508,2.819 0.737,0.549 1.487,1.082 2.249,1.599 0.331,0.469 0.666,0.934 1.01,1.393 0.593,0.793 1.205,1.572 1.835,2.334 0.314,0.381 0.633,0.76 0.958,1.133 0.323,0.374 0.651,0.743 0.985,1.109 0.331,0.365 0.668,0.727 1.01,1.084 1.706,1.788 3.519,3.473 5.428,5.046 1.481,1.22 3.021,2.369 4.613,3.449 0.06,0.08 0.109,0.16 0.166,0.239 1.135,1.598 2.347,3.139 3.628,4.617 1.282,1.48 2.634,2.895 4.051,4.244 0.708,0.675 1.433,1.332 2.173,1.973 0.37,0.319 0.745,0.635 1.122,0.946 1.134,0.934 2.303,1.828 3.503,2.679 0.368,0.261 0.74,0.516 1.113,0.77 1.46,2.079 3.046,4.062 4.751,5.936 0.326,0.359 0.655,0.712 0.99,1.062 1.001,1.05 2.041,2.064 3.116,3.04 0.717,0.651 1.45,1.284 2.198,1.9 0.374,0.308 0.751,0.611 1.133,0.91 1.129,0.886 2.291,1.732 3.484,2.536 0.08,0.109 0.148,0.219 0.225,0.327 0.278,0.391 0.562,0.78 0.849,1.163 0.574,0.768 1.167,1.523 1.777,2.261 0.305,0.37 0.615,0.735 0.928,1.098 0.627,0.723 1.272,1.431 1.933,2.124 0.331,0.347 0.665,0.689 1.004,1.026 0.678,0.677 1.372,1.339 2.08,1.981 1.418,1.288 2.899,2.507 4.438,3.656 0.385,0.287 0.773,0.568 1.165,0.846 0.392,0.278 0.786,0.552 1.186,0.82 0,0 0,0 0,0 0.359,0.512 0.721,1.019 1.094,1.519 0.284,0.379 0.573,0.755 0.866,1.128 0.293,0.374 0.591,0.743 0.893,1.109 0.302,0.365 0.608,0.726 0.918,1.085 0.931,1.074 1.9,2.114 2.906,3.117 1.005,1.005 2.047,1.973 3.122,2.903 0.717,0.619 1.449,1.222 2.195,1.808 0.747,0.585 1.508,1.154 2.283,1.703 0.776,0.551 1.564,1.082 2.366,1.594 2.006,1.282 4.095,2.446 6.257,3.484 0.838,0.402 1.688,0.785 2.548,1.147 0.07,0.171 0.147,0.343 0.223,0.512 1.546,3.428 3.416,6.674 5.571,9.704 1.346,1.894 2.804,3.703 4.364,5.418 0.311,0.343 0.628,0.682 0.947,1.018 1.281,1.341 2.625,2.621 4.027,3.834 0.249,0.214 0.502,0.424 0.754,0.635 2.52,4.927 5.618,9.505 9.207,13.647 0.717,0.827 1.455,1.638 2.211,2.431 0.378,0.396 0.762,0.787 1.149,1.174 0.387,0.387 0.779,0.769 1.175,1.147 0.398,0.377 0.798,0.751 1.204,1.118 0.406,0.369 0.816,0.732 1.23,1.09 1.658,1.434 3.385,2.789 5.179,4.06 v 0 c 0.22,0.157 0.445,0.308 0.667,0.462 1.845,2.57 3.862,5.006 6.041,7.289 1.497,1.569 3.068,3.065 4.71,4.485 0.821,0.708 1.658,1.399 2.513,2.07 v 0 c 1.081,0.847 2.192,1.659 3.324,2.441 1.208,1.686 2.49,3.315 3.846,4.879 0.703,0.812 1.426,1.605 2.167,2.382 0.37,0.389 0.746,0.772 1.126,1.152 0.38,0.379 0.763,0.754 1.152,1.123 0.389,0.37 0.781,0.736 1.179,1.096 0.398,0.362 0.8,0.718 1.206,1.069 0.407,0.352 0.817,0.698 1.232,1.04 0.415,0.341 0.833,0.678 1.256,1.01 0.847,0.663 1.708,1.306 2.587,1.929 0.247,0.175 0.498,0.344 0.748,0.515 2.136,2.99 4.513,5.795 7.106,8.384 0.377,0.376 0.756,0.746 1.141,1.113 0.385,0.367 0.774,0.728 1.167,1.086 v 0 c 1.181,1.07 2.4,2.101 3.656,3.085 0.419,0.328 0.843,0.651 1.27,0.969 0.426,0.319 0.856,0.633 1.291,0.941 v 0 c 0.26,0.185 0.525,0.363 0.788,0.544 0.593,0.83 1.201,1.647 1.832,2.448 0.325,0.414 0.656,0.824 0.991,1.23 1.675,2.029 3.471,3.955 5.375,5.769 0.763,0.725 1.541,1.432 2.337,2.121 0.399,0.344 0.8,0.684 1.207,1.018 v 0 c 0.406,0.335 0.816,0.665 1.231,0.99 v 0 c 0.413,0.325 0.832,0.645 1.255,0.96 v 0 c 0.421,0.316 0.847,0.626 1.278,0.931 v 0 c 0.274,0.194 0.552,0.383 0.828,0.573 0.295,0.413 0.593,0.822 0.896,1.227 2.187,2.924 4.614,5.657 7.254,8.169 0.376,0.36 0.757,0.714 1.144,1.064 0.77,0.7 1.559,1.382 2.363,2.044 0.403,0.332 0.809,0.658 1.22,0.979 1.097,0.861 2.225,1.684 3.378,2.474 1.499,2.108 3.122,4.122 4.858,6.031 0.347,0.381 0.698,0.759 1.054,1.131 0.712,0.746 1.44,1.474 2.187,2.184 0.373,0.356 0.751,0.706 1.133,1.053 0.763,0.693 1.543,1.367 2.339,2.023 v 0 c 0.398,0.328 0.8,0.652 1.205,0.97 0.407,0.319 0.818,0.632 1.231,0.94 0.415,0.309 0.833,0.613 1.254,0.912 0.301,0.213 0.605,0.42 0.909,0.628 0.01,0.02 0.03,0.04 0.04,0.06 1.483,2.084 3.086,4.074 4.802,5.961 1.373,1.509 2.816,2.951 4.327,4.322 0.379,0.343 0.76,0.682 1.146,1.015 v 0 c 0.387,0.333 0.776,0.663 1.17,0.987 0.788,0.649 1.592,1.28 2.411,1.891 0.719,0.536 1.451,1.054 2.192,1.559 1.193,1.687 2.469,3.312 3.819,4.871 0.331,0.382 0.666,0.76 1.006,1.133 1.019,1.121 2.078,2.203 3.174,3.247 1.096,1.044 2.231,2.049 3.401,3.013 0.389,0.321 0.784,0.637 1.182,0.949 0.398,0.312 0.799,0.62 1.205,0.922 0.728,0.543 1.469,1.068 2.222,1.58 0.323,0.458 0.651,0.912 0.986,1.361 0.3,0.4 0.604,0.798 0.913,1.191 0.31,0.393 0.623,0.782 0.942,1.167 0.318,0.385 0.64,0.767 0.968,1.145 0.326,0.378 0.658,0.75 0.995,1.12 0.336,0.37 0.676,0.736 1.021,1.097 0.69,0.722 1.397,1.428 2.121,2.117 0.723,0.689 1.464,1.36 2.219,2.014 0.756,0.654 1.528,1.289 2.315,1.906 1.117,0.876 2.265,1.713 3.442,2.513 0.05,0.06 0.09,0.128 0.134,0.191 0.861,1.213 1.765,2.391 2.71,3.535 0.63,0.763 1.277,1.511 1.942,2.242 0.333,0.366 0.67,0.727 1.011,1.085 0.682,0.715 1.381,1.414 2.098,2.095 v 0 c 0.715,0.682 1.448,1.346 2.196,1.993 0.374,0.323 0.751,0.642 1.134,0.957 0.381,0.315 0.767,0.625 1.157,0.93 v 0 c 0.389,0.305 0.781,0.607 1.179,0.903 v 0 c 0.745,0.555 1.505,1.094 2.275,1.617 0.338,0.48 0.68,0.957 1.031,1.425 0.293,0.392 0.592,0.781 0.894,1.166 1.211,1.54 2.494,3.02 3.844,4.435 0.338,0.355 0.68,0.703 1.026,1.05 0.346,0.344 0.696,0.687 1.05,1.024 v 0 c 0.708,0.674 1.433,1.331 2.172,1.972 v 0 c 0.37,0.32 0.743,0.636 1.122,0.947 v 0 c 0.755,0.622 1.526,1.226 2.311,1.812 v 0 c 0.393,0.293 0.789,0.582 1.19,0.866 0.367,0.26 0.738,0.516 1.112,0.769 0.07,0.09 0.13,0.189 0.196,0.282 0.281,0.396 0.567,0.787 0.857,1.176 0.581,0.776 1.18,1.538 1.796,2.285 0.926,1.12 1.891,2.206 2.893,3.256 0.334,0.35 0.671,0.696 1.014,1.039 0.342,0.342 0.689,0.68 1.039,1.013 0.351,0.334 0.705,0.664 1.063,0.989 0.359,0.325 0.721,0.645 1.088,0.962 1.098,0.951 2.231,1.861 3.397,2.731 0.39,0.291 0.782,0.575 1.178,0.857 0.381,0.269 0.764,0.535 1.151,0.795 1.454,2.075 3.034,4.054 4.734,5.922 0.322,0.355 0.648,0.705 0.979,1.052 0.661,0.692 1.337,1.369 2.031,2.028 v 0 c 0.347,0.33 0.698,0.657 1.052,0.979 0.355,0.322 0.714,0.639 1.076,0.952 0.724,0.628 1.465,1.237 2.219,1.829 0.756,0.591 1.524,1.165 2.308,1.721 0.391,0.278 0.787,0.55 1.185,0.819 0,0 0,0 0,0 0.08,0.122 0.168,0.247 0.255,0.369 1.926,2.709 4.075,5.248 6.421,7.591 0.335,0.334 0.674,0.665 1.017,0.992 0.686,0.653 1.388,1.289 2.105,1.91 0.359,0.31 0.721,0.616 1.087,0.917 0.732,0.603 1.478,1.188 2.239,1.755 v 0 c 0.381,0.284 0.764,0.565 1.152,0.84 0.388,0.275 0.778,0.544 1.173,0.81 0.02,0.01 0.04,0.02 0.05,0.03 0.09,0.138 0.189,0.276 0.287,0.412 0.544,0.766 1.106,1.518 1.685,2.256 2.61,3.32 5.571,6.349 8.83,9.032 0.362,0.299 0.728,0.592 1.098,0.882 0.369,0.29 0.741,0.575 1.117,0.855 v 0 c 0.377,0.281 0.756,0.558 1.14,0.83 0.384,0.271 0.77,0.539 1.16,0.802 0.03,0.02 0.07,0.04 0.101,0.07 0.373,0.536 0.751,1.066 1.141,1.587 1.669,2.232 3.494,4.339 5.463,6.303 0.655,0.656 1.326,1.295 2.013,1.918 0.687,0.623 1.389,1.23 2.105,1.82 0.358,0.295 0.72,0.586 1.086,0.871 0.365,0.287 0.733,0.569 1.105,0.848 0.374,0.277 0.749,0.55 1.128,0.82 0.428,0.303 0.862,0.599 1.299,0.891 0.378,0.544 0.762,1.085 1.159,1.615 1.65,2.208 3.457,4.291 5.403,6.235 0.325,0.325 0.654,0.645 0.985,0.96 0.333,0.317 0.668,0.628 1.008,0.936 0.678,0.617 1.374,1.217 2.082,1.801 0.354,0.292 0.712,0.579 1.074,0.863 1.144,0.897 2.325,1.749 3.538,2.56 0.127,0.183 0.252,0.369 0.381,0.551 0.791,1.112 1.62,2.193 2.487,3.242 0.289,0.351 0.583,0.697 0.88,1.04 2.08,2.4 4.359,4.623 6.811,6.643 1.051,0.866 2.134,1.694 3.248,2.483 0.371,0.264 0.745,0.522 1.123,0.777 0.08,0.05 0.163,0.106 0.243,0.159 2.441,3.527 5.271,6.76 8.438,9.634 0.333,0.301 0.667,0.599 1.007,0.893 0.34,0.294 0.684,0.582 1.03,0.868 0.694,0.571 1.401,1.124 2.122,1.663 0.36,0.269 0.723,0.533 1.09,0.793 0.367,0.26 0.737,0.516 1.11,0.767 0.09,0.06 0.193,0.126 0.288,0.189 2.168,3.142 4.65,6.049 7.406,8.673 1.285,1.223 2.629,2.386 4.028,3.483 0.699,0.547 1.412,1.08 2.138,1.595 0.363,0.257 0.729,0.51 1.098,0.758 0.11,0.07 0.22,0.144 0.33,0.216 0.655,0.953 1.338,1.886 2.052,2.794 0.542,0.69 1.101,1.368 1.677,2.031 0.287,0.331 0.578,0.659 0.874,0.984 0.295,0.325 0.593,0.646 0.897,0.963 0.606,0.634 1.227,1.255 1.862,1.86 0.317,0.303 0.639,0.601 0.964,0.896 0.324,0.295 0.653,0.585 0.985,0.872 0.332,0.287 0.667,0.57 1.007,0.85 1.355,1.116 2.766,2.17 4.226,3.153 0.126,0.08 0.252,0.164 0.378,0.247 0.165,0.241 0.33,0.483 0.499,0.721 2.016,2.835 4.298,5.468 6.813,7.861 v 0 c 0.628,0.598 1.27,1.181 1.926,1.748 v 0 c 0.328,0.284 0.661,0.565 0.995,0.841 0.335,0.275 0.674,0.547 1.016,0.816 0.342,0.267 0.687,0.532 1.035,0.792 0.348,0.259 0.7,0.515 1.055,0.766 0.355,0.253 0.713,0.501 1.074,0.744 0.14,0.09 0.282,0.185 0.422,0.276 1.635,2.385 3.454,4.632 5.443,6.716 0.593,0.621 1.2,1.227 1.821,1.818 0.932,0.888 1.896,1.741 2.89,2.56 0.331,0.273 0.667,0.543 1.004,0.807 0.338,0.265 0.679,0.527 1.024,0.783 0.837,0.625 1.697,1.222 2.572,1.799 0.183,0.269 0.367,0.537 0.555,0.801 1.232,1.733 2.566,3.388 3.993,4.957 0.285,0.314 0.574,0.625 0.867,0.932 0.878,0.92 1.79,1.808 2.732,2.664 0.943,0.854 1.916,1.676 2.918,2.462 0.335,0.263 0.673,0.52 1.012,0.775 v 0 c 0.682,0.508 1.376,1.001 2.082,1.477 0.168,0.113 0.34,0.222 0.51,0.333 0.428,0.63 0.869,1.251 1.325,1.861 0.252,0.336 0.508,0.67 0.767,1 2.335,2.97 4.985,5.68 7.901,8.081 0.323,0.268 0.651,0.531 0.982,0.79 0.991,0.777 2.011,1.52 3.058,2.226 0.183,0.123 0.369,0.242 0.554,0.363 1.604,2.358 3.397,4.577 5.359,6.632 0.287,0.3 0.577,0.596 0.87,0.889 0.88,0.879 1.79,1.727 2.732,2.541 1.569,1.355 3.22,2.619 4.946,3.782 0.196,0.132 0.395,0.259 0.592,0.388 0.21,0.31 0.424,0.619 0.64,0.924 0.238,0.335 0.481,0.666 0.726,0.996 1.23,1.643 2.556,3.211 3.97,4.692 0.283,0.297 0.569,0.59 0.86,0.879 0.289,0.29 0.582,0.576 0.88,0.859 0.593,0.564 1.201,1.115 1.821,1.651 0.62,0.537 1.253,1.058 1.898,1.565 0.324,0.254 0.65,0.503 0.979,0.748 0.33,0.246 0.662,0.487 0.998,0.726 0.334,0.237 0.673,0.47 1.014,0.701 0.209,0.14 0.422,0.277 0.633,0.415 2.725,4.027 6.015,7.638 9.758,10.721 0.313,0.258 0.63,0.512 0.948,0.763 0.32,0.25 0.641,0.497 0.967,0.739 0.65,0.486 1.314,0.956 1.988,1.41 0.225,0.152 0.452,0.298 0.679,0.446 1.799,2.665 3.85,5.147 6.118,7.411 0.283,0.282 0.569,0.562 0.859,0.839 0.291,0.276 0.584,0.547 0.88,0.817 0.594,0.539 1.199,1.063 1.818,1.572 0.309,0.254 0.622,0.506 0.937,0.753 v 0 c 0.316,0.248 0.634,0.491 0.955,0.731 0.322,0.24 0.647,0.476 0.975,0.709 0.56,0.398 1.131,0.782 1.708,1.156 0.9,1.338 1.864,2.63 2.887,3.869 0.757,0.916 1.547,1.804 2.366,2.663 0.273,0.286 0.549,0.569 0.829,0.848 0.301,0.3 0.605,0.595 0.913,0.888 H -2393.9 c 0.289,0 0.52,-0.233 0.52,-0.521 v -851.975 c -0.09,-0.07 -0.185,-0.143 -0.279,-0.213 -3.917,-5.2 -8.551,-9.827 -13.761,-13.735 -3.938,-5.238 -8.605,-9.895 -13.852,-13.824 -3.955,-5.268 -8.646,-9.95 -13.924,-13.895 -3.974,-5.305 -8.695,-10.016 -14.008,-13.981 -3.994,-5.341 -8.746,-10.082 -14.0967,-14.067 -4.012,-5.371 -8.788,-10.138 -14.171,-14.14 -4.03,-5.407 -8.834,-10.2 -14.252,-14.221 -4.048,-5.441 -8.88,-10.264 -14.333,-14.303 -4.067,-5.477 -8.929,-10.327 -14.417,-14.386 -4.085,-5.51 -8.972,-10.387 -14.493,-14.462 -4.105,-5.548 -9.023,-10.455 -14.58,-14.551 -4.123,-5.579 -9.068,-10.512 -14.658,-14.625 -4.141,-5.614 -9.112,-10.575 -14.737,-14.707 -4.161,-5.651 -9.161,-10.641 -14.823,-14.792 -4.177,-5.682 -9.205,-10.699 -14.899,-14.866 -4.196,-5.72 -9.253,-10.766 -14.984,-14.953 -4.213,-5.752 -9.295,-10.825 -15.059,-15.029 -4.233,-5.788 -9.345,-10.89 -15.144,-15.112 -4.251,-5.823 -9.391,-10.952 -15.225,-15.193 -4.269,-5.859 -9.436,-11.017 -15.307,-15.275 -4.286,-5.893 -9.481,-11.079 -15.386,-15.355 -4.304,-5.928 -9.528,-11.141 -15.468,-15.435 -4.322,-5.964 -9.573,-11.205 -15.548,-15.516 -4.339,-5.998 -9.619,-11.267 -15.629,-15.596 -4.356,-6.034 -9.665,-11.332 -15.711,-15.68 -4.374,-6.067 -9.71,-11.393 -15.79,-15.757 -4.392,-6.103 -9.756,-11.455 -15.87,-15.837 -4.41,-6.14 -9.803,-11.522 -15.955,-15.922 -4.427,-6.175 -9.849,-11.586 -16.036,-16.004 -4.445,-6.208 -9.893,-11.646 -16.113,-16.08 -5.744,-8.039 -13.171,-14.789 -21.778,-19.744 -1.075,-1.151 -2.196,-2.259 -3.362,-3.317 -0.34,-0.308 -0.682,-0.613 -1.029,-0.913 -0.347,-0.3 -0.698,-0.595 -1.053,-0.887 -0.708,-0.584 -1.431,-1.151 -2.168,-1.7 -0.369,-0.275 -0.741,-0.546 -1.115,-0.811 -0.04,-0.03 -0.08,-0.06 -0.125,-0.09 -0.213,-0.311 -0.424,-0.622 -0.643,-0.929 -0.269,-0.377 -0.543,-0.753 -0.821,-1.125 -0.556,-0.744 -1.13,-1.474 -1.72,-2.189 -1.772,-2.146 -3.696,-4.162 -5.756,-6.031 -1.03,-0.935 -2.094,-1.833 -3.191,-2.693 -0.365,-0.286 -0.734,-0.568 -1.106,-0.845 -0.398,-0.297 -0.799,-0.587 -1.205,-0.873 -0.204,-0.3 -0.409,-0.599 -0.619,-0.894 -0.272,-0.383 -0.549,-0.763 -0.83,-1.139 -0.562,-0.752 -1.143,-1.489 -1.739,-2.213 -1.493,-1.808 -3.093,-3.525 -4.79,-5.14 -0.339,-0.323 -0.682,-0.642 -1.03,-0.957 -0.347,-0.315 -0.698,-0.626 -1.053,-0.932 -0.355,-0.307 -0.713,-0.609 -1.075,-0.908 -0.362,-0.298 -0.727,-0.592 -1.096,-0.881 -0.739,-0.578 -1.492,-1.141 -2.258,-1.685 -0.01,0 -0.02,-0.02 -0.04,-0.02 -0.194,-0.284 -0.388,-0.568 -0.587,-0.848 -1.101,-1.549 -2.275,-3.042 -3.517,-4.474 -0.309,-0.358 -0.624,-0.712 -0.943,-1.063 -0.319,-0.35 -0.642,-0.696 -0.968,-1.039 -0.981,-1.028 -2,-2.02 -3.052,-2.976 -0.351,-0.318 -0.706,-0.632 -1.064,-0.942 -1.431,-1.236 -2.922,-2.406 -4.469,-3.504 -0.187,-0.272 -0.372,-0.544 -0.562,-0.812 -0.556,-0.783 -1.132,-1.551 -1.724,-2.305 -0.296,-0.377 -0.597,-0.75 -0.902,-1.119 -0.305,-0.37 -0.614,-0.736 -0.928,-1.097 -0.313,-0.362 -0.632,-0.721 -0.955,-1.075 -0.321,-0.355 -0.648,-0.704 -0.978,-1.05 -0.661,-0.693 -1.339,-1.37 -2.032,-2.03 v 0 c -1.387,-1.321 -2.837,-2.576 -4.347,-3.758 -0.377,-0.296 -0.759,-0.587 -1.143,-0.874 -0.365,-0.273 -0.733,-0.54 -1.104,-0.803 -0.18,-0.261 -0.356,-0.521 -0.54,-0.779 -0.281,-0.395 -0.567,-0.788 -0.857,-1.176 -1.451,-1.941 -3.018,-3.792 -4.688,-5.542 -0.335,-0.35 -0.672,-0.696 -1.015,-1.037 -0.342,-0.343 -0.689,-0.68 -1.039,-1.014 v 0 c -0.701,-0.667 -1.418,-1.319 -2.15,-1.952 -1.098,-0.95 -2.232,-1.861 -3.398,-2.73 -0.354,-0.265 -0.712,-0.524 -1.072,-0.78 -0.726,-1.055 -1.482,-2.087 -2.272,-3.092 -0.302,-0.385 -0.61,-0.766 -0.921,-1.143 -0.935,-1.132 -1.911,-2.231 -2.923,-3.291 -0.675,-0.708 -1.367,-1.399 -2.076,-2.074 -0.354,-0.337 -0.712,-0.67 -1.075,-0.998 -0.362,-0.329 -0.728,-0.655 -1.099,-0.974 -0.37,-0.32 -0.743,-0.635 -1.121,-0.946 -0.377,-0.311 -0.76,-0.619 -1.145,-0.921 v 0 c -0.721,-0.565 -1.456,-1.113 -2.203,-1.646 -0.162,-0.234 -0.32,-0.47 -0.485,-0.701 -0.287,-0.404 -0.579,-0.803 -0.875,-1.2 -0.297,-0.396 -0.599,-0.789 -0.904,-1.178 -0.612,-0.778 -1.242,-1.541 -1.889,-2.289 -0.324,-0.373 -0.652,-0.743 -0.984,-1.109 -0.666,-0.731 -1.349,-1.446 -2.048,-2.145 -1.049,-1.048 -2.135,-2.058 -3.258,-3.027 -0.374,-0.324 -0.752,-0.644 -1.134,-0.958 v 0 c -1.082,-0.891 -2.195,-1.743 -3.337,-2.56 -1.008,-1.456 -2.071,-2.87 -3.196,-4.232 -0.955,-1.157 -1.951,-2.278 -2.986,-3.362 -0.344,-0.361 -0.693,-0.719 -1.046,-1.071 -0.354,-0.354 -0.711,-0.701 -1.073,-1.046 -0.724,-0.688 -1.464,-1.36 -2.22,-2.015 -0.756,-0.653 -1.528,-1.289 -2.315,-1.906 -0.706,-0.554 -1.427,-1.091 -2.159,-1.615 -0.142,-0.205 -0.283,-0.413 -0.428,-0.618 -1.174,-1.65 -2.424,-3.24 -3.746,-4.767 -0.331,-0.381 -0.666,-0.758 -1.006,-1.132 -0.679,-0.746 -1.376,-1.477 -2.09,-2.19 -0.714,-0.713 -1.445,-1.41 -2.193,-2.088 -0.374,-0.339 -0.752,-0.674 -1.135,-1.005 -0.382,-0.33 -0.767,-0.655 -1.158,-0.977 -0.39,-0.321 -0.783,-0.637 -1.181,-0.949 -0.698,-0.547 -1.411,-1.078 -2.132,-1.596 -0.427,-0.614 -0.859,-1.223 -1.306,-1.821 -0.919,-1.227 -1.88,-2.421 -2.882,-3.578 -0.335,-0.385 -0.673,-0.766 -1.016,-1.143 -0.343,-0.377 -0.691,-0.751 -1.043,-1.121 -1.409,-1.474 -2.887,-2.882 -4.432,-4.217 -0.385,-0.334 -0.775,-0.663 -1.169,-0.988 -0.394,-0.325 -0.792,-0.644 -1.194,-0.959 -0.402,-0.315 -0.808,-0.625 -1.218,-0.93 -0.292,-0.22 -0.59,-0.432 -0.886,-0.646 -0.126,-0.182 -0.251,-0.366 -0.378,-0.546 -1.199,-1.684 -2.475,-3.308 -3.826,-4.866 -0.337,-0.39 -0.68,-0.775 -1.027,-1.156 -0.345,-0.381 -0.697,-0.758 -1.053,-1.131 -0.355,-0.373 -0.715,-0.741 -1.081,-1.105 -0.364,-0.365 -0.733,-0.724 -1.106,-1.08 -0.373,-0.355 -0.751,-0.706 -1.133,-1.052 -0.381,-0.347 -0.766,-0.688 -1.157,-1.025 -1.17,-1.012 -2.377,-1.982 -3.619,-2.908 -0.281,-0.211 -0.568,-0.416 -0.853,-0.621 -0.415,-0.595 -0.834,-1.185 -1.268,-1.764 -0.313,-0.418 -0.63,-0.832 -0.952,-1.242 -0.644,-0.819 -1.308,-1.623 -1.99,-2.41 -1.023,-1.181 -2.089,-2.323 -3.193,-3.427 -1.105,-1.104 -2.25,-2.168 -3.433,-3.19 -0.787,-0.681 -1.591,-1.343 -2.413,-1.987 -0.673,-0.528 -1.361,-1.041 -2.057,-1.543 -1.012,-1.451 -2.079,-2.86 -3.203,-4.221 -0.334,-0.406 -0.674,-0.808 -1.019,-1.206 -0.344,-0.397 -0.694,-0.791 -1.048,-1.18 -0.708,-0.778 -1.434,-1.539 -2.178,-2.282 -0.373,-0.372 -0.749,-0.739 -1.13,-1.102 -1.904,-1.813 -3.919,-3.513 -6.032,-5.09 -0.255,-0.19 -0.515,-0.375 -0.772,-0.562 -0.102,-0.139 -0.194,-0.282 -0.293,-0.421 -0.308,-0.434 -0.623,-0.864 -0.941,-1.291 -1.913,-2.558 -4.006,-4.972 -6.262,-7.225 -0.751,-0.75 -1.522,-1.484 -2.309,-2.198 -0.786,-0.714 -1.591,-1.409 -2.413,-2.086 -0.41,-0.338 -0.825,-0.671 -1.244,-1 -0.656,-0.514 -1.325,-1.013 -2,-1.503 -0.707,-1.009 -1.438,-1.999 -2.198,-2.964 -0.663,-0.846 -1.348,-1.674 -2.051,-2.485 -0.352,-0.406 -0.708,-0.807 -1.07,-1.205 -1.083,-1.191 -2.209,-2.344 -3.376,-3.454 -0.776,-0.74 -1.572,-1.461 -2.384,-2.164 -0.814,-0.702 -1.643,-1.385 -2.488,-2.049 -0.424,-0.331 -0.851,-0.658 -1.282,-0.981 -0.23,-0.171 -0.465,-0.338 -0.698,-0.507 -2.264,-3.226 -4.801,-6.245 -7.582,-9.023 -0.383,-0.383 -0.77,-0.761 -1.164,-1.135 -0.785,-0.748 -1.589,-1.476 -2.409,-2.186 -0.411,-0.355 -0.825,-0.705 -1.244,-1.05 v 0 c -1.046,-0.862 -2.121,-1.689 -3.218,-2.487 -0.7,-0.996 -1.424,-1.975 -2.175,-2.93 -0.339,-0.431 -0.683,-0.858 -1.032,-1.28 -0.349,-0.424 -0.703,-0.842 -1.062,-1.256 -1.076,-1.241 -2.197,-2.444 -3.36,-3.605 -1.549,-1.548 -3.173,-3.022 -4.865,-4.416 -1.271,-1.046 -2.578,-2.046 -3.922,-2.999 -0.448,-0.317 -0.9,-0.63 -1.357,-0.937 -0.912,-0.615 -1.839,-1.207 -2.782,-1.779 -0.942,-0.571 -1.9,-1.119 -2.873,-1.646 -0.972,-0.526 -1.958,-1.029 -2.957,-1.51 -0.501,-0.239 -1.004,-0.472 -1.511,-0.701 -0.507,-0.228 -1.017,-0.45 -1.53,-0.666 -0.513,-0.217 -1.03,-0.427 -1.549,-0.631 -2.598,-1.019 -5.275,-1.886 -8.019,-2.588 -1.097,-0.279 -2.206,-0.534 -3.324,-0.762 -0.559,-0.113 -1.121,-0.22 -1.684,-0.32 -0.564,-0.101 -1.132,-0.193 -1.7,-0.28 -0.57,-0.08 -1.141,-0.166 -1.714,-0.239 -1.147,-0.144 -2.302,-0.261 -3.466,-0.349 -1.747,-0.131 -3.512,-0.199 -5.294,-0.199 -0.09,0 -0.186,0.02 -0.268,0.05 -0.04,0.02 -0.08,0.04 -0.116,0.06 -0.11,0.07 -0.197,0.179 -0.249,0.302 -0.03,0.08 -0.05,0.173 -0.05,0.268 -3.562,0 -7.061,0.268 -10.474,0.787 -1.706,0.259 -3.392,0.58 -5.054,0.961 -1.108,0.255 -2.206,0.536 -3.292,0.843 -0.544,0.152 -1.084,0.313 -1.622,0.479 -0.538,0.166 -1.072,0.339 -1.604,0.519 -0.532,0.178 -1.061,0.364 -1.587,0.556 -0.526,0.191 -1.048,0.389 -1.567,0.593 -0.52,0.204 -1.036,0.413 -1.55,0.629 -2.566,1.081 -5.052,2.312 -7.445,3.684 -1.437,0.823 -2.841,1.697 -4.209,2.618 -0.456,0.307 -0.908,0.621 -1.356,0.938 -0.896,0.635 -1.776,1.293 -2.64,1.969 -2.59,2.031 -5.027,4.244 -7.295,6.622 -0.757,0.791 -1.494,1.601 -2.212,2.429 -0.717,0.828 -1.416,1.674 -2.094,2.536 -0.339,0.431 -0.672,0.866 -1.001,1.305 -0.329,0.44 -0.652,0.884 -0.97,1.332 -0.636,0.894 -1.251,1.806 -1.845,2.732 -0.891,1.39 -1.732,2.813 -2.522,4.27 -0.527,0.97 -1.031,1.956 -1.511,2.954 -1.921,3.996 -3.468,8.208 -4.591,12.592 -0.703,2.74 -1.241,5.548 -1.603,8.412 -0.07,0.573 -0.139,1.148 -0.198,1.725 -0.08,0.817 -0.145,1.641 -0.2,2.466 -0.92,-0.808 -1.861,-1.595 -2.827,-2.352 -0.656,-0.514 -1.325,-1.013 -2.001,-1.503 -0.09,-0.127 -0.174,-0.255 -0.264,-0.382 -0.312,-0.438 -0.628,-0.872 -0.951,-1.303 -1.288,-1.723 -2.658,-3.38 -4.103,-4.969 -0.722,-0.794 -1.463,-1.571 -2.223,-2.329 -0.759,-0.759 -1.536,-1.499 -2.331,-2.221 v 0 c -0.398,-0.361 -0.8,-0.717 -1.207,-1.068 -1.435,-1.242 -2.927,-2.42 -4.467,-3.538 -0.389,-0.555 -0.785,-1.106 -1.19,-1.649 -0.326,-0.436 -0.656,-0.866 -0.991,-1.293 -1.006,-1.281 -2.059,-2.523 -3.154,-3.726 -0.729,-0.803 -1.478,-1.587 -2.245,-2.354 -0.383,-0.383 -0.772,-0.761 -1.165,-1.135 -1.571,-1.495 -3.213,-2.916 -4.922,-4.256 -0.428,-0.335 -0.859,-0.664 -1.295,-0.991 -0.216,-0.16 -0.437,-0.317 -0.655,-0.475 -0.07,-0.101 -0.135,-0.197 -0.203,-0.294 -0.319,-0.448 -0.643,-0.892 -0.971,-1.332 -0.328,-0.439 -0.663,-0.874 -1.001,-1.305 -2.033,-2.587 -4.249,-5.023 -6.629,-7.288 -1.587,-1.511 -3.246,-2.945 -4.973,-4.298 -0.432,-0.339 -0.866,-0.673 -1.306,-1 v 0 c -0.88,-0.657 -1.776,-1.293 -2.688,-1.907 -0.912,-0.615 -1.84,-1.208 -2.783,-1.779 -0.471,-0.285 -0.946,-0.566 -1.426,-0.84 -0.958,-0.548 -1.93,-1.074 -2.916,-1.577 -0.492,-0.252 -0.989,-0.498 -1.489,-0.739 -2,-0.959 -4.054,-1.825 -6.157,-2.591 -1.051,-0.384 -2.116,-0.741 -3.191,-1.073 v 0 c -2.15,-0.666 -4.346,-1.229 -6.583,-1.684 -1.677,-0.341 -3.377,-0.621 -5.097,-0.839 -1.148,-0.144 -2.303,-0.261 -3.468,-0.349 -0.582,-0.04 -1.166,-0.08 -1.753,-0.11 -0.586,-0.03 -1.174,-0.05 -1.764,-0.06 -0.59,-0.02 -1.182,-0.02 -1.776,-0.02 -0.05,0 -0.09,0 -0.139,0.02 -0.04,0 -0.09,0.02 -0.13,0.04 -0.08,0.04 -0.156,0.08 -0.217,0.147 -0.06,0.06 -0.114,0.135 -0.148,0.218 -0.03,0.08 -0.05,0.173 -0.05,0.268 -3.563,0 -7.061,0.269 -10.474,0.787 -0.569,0.09 -1.136,0.18 -1.7,0.28 -0.563,0.101 -1.126,0.207 -1.685,0.32 -0.558,0.114 -1.116,0.235 -1.67,0.361 -0.553,0.128 -1.104,0.261 -1.653,0.401 -0.55,0.141 -1.096,0.287 -1.639,0.442 -0.543,0.152 -1.083,0.313 -1.621,0.479 -0.537,0.166 -1.073,0.339 -1.604,0.518 -1.064,0.358 -2.116,0.742 -3.155,1.149 -0.519,0.204 -1.036,0.414 -1.549,0.631 -1.026,0.432 -2.041,0.887 -3.04,1.367 -0.501,0.241 -0.997,0.487 -1.49,0.739 -0.987,0.503 -1.959,1.029 -2.916,1.577 -0.479,0.275 -0.954,0.554 -1.425,0.84 -0.943,0.57 -1.871,1.164 -2.784,1.779 -0.455,0.307 -0.907,0.62 -1.355,0.937 -2.24,1.589 -4.38,3.309 -6.409,5.149 -2.839,2.577 -5.46,5.389 -7.832,8.407 -0.339,0.431 -0.673,0.866 -1.001,1.305 -0.329,0.44 -0.652,0.883 -0.971,1.332 -0.636,0.895 -1.251,1.806 -1.845,2.732 -1.483,2.316 -2.831,4.727 -4.033,7.224 -1.441,2.996 -2.671,6.115 -3.67,9.336 -0.333,1.074 -0.64,2.16 -0.922,3.256 -1.041,4.065 -1.717,8.279 -1.998,12.603 -0.122,-0.107 -0.243,-0.217 -0.365,-0.323 -0.804,-0.696 -1.625,-1.372 -2.463,-2.029 -0.656,-0.515 -1.326,-1.014 -2.001,-1.504 -2.251,-3.212 -4.774,-6.22 -7.541,-8.983 -0.759,-0.759 -1.537,-1.498 -2.332,-2.22 -0.795,-0.722 -1.608,-1.425 -2.437,-2.108 -0.416,-0.341 -0.835,-0.677 -1.258,-1.009 -0.422,-0.332 -0.85,-0.659 -1.281,-0.98 -0.23,-0.172 -0.464,-0.339 -0.696,-0.508 -1.015,-1.446 -2.083,-2.851 -3.206,-4.211 -0.69,-0.837 -1.401,-1.656 -2.131,-2.458 -0.365,-0.402 -0.734,-0.799 -1.108,-1.191 -0.748,-0.784 -1.516,-1.551 -2.301,-2.298 v 0 c -0.393,-0.374 -0.79,-0.743 -1.191,-1.108 -0.402,-0.365 -0.808,-0.723 -1.218,-1.078 -0.411,-0.355 -0.825,-0.706 -1.244,-1.05 -0.42,-0.345 -0.842,-0.685 -1.27,-1.021 -0.639,-0.501 -1.292,-0.987 -1.95,-1.466 -0.384,-0.547 -0.774,-1.09 -1.173,-1.624 -0.329,-0.44 -0.663,-0.875 -1.001,-1.307 -1.017,-1.292 -2.08,-2.548 -3.185,-3.763 -0.368,-0.405 -0.743,-0.806 -1.121,-1.202 -0.377,-0.397 -0.759,-0.788 -1.147,-1.175 -0.388,-0.387 -0.78,-0.77 -1.177,-1.147 -3.173,-3.022 -6.637,-5.74 -10.348,-8.111 -0.463,-0.296 -0.931,-0.587 -1.403,-0.873 -0.471,-0.286 -0.945,-0.566 -1.424,-0.841 -0.958,-0.548 -1.931,-1.073 -2.917,-1.576 -0.493,-0.253 -0.99,-0.498 -1.489,-0.739 -1.001,-0.479 -2.014,-0.936 -3.039,-1.367 v 0 c -0.514,-0.216 -1.03,-0.427 -1.55,-0.631 -0.52,-0.204 -1.043,-0.402 -1.568,-0.594 -2.103,-0.765 -4.255,-1.432 -6.45,-1.993 -0.549,-0.141 -1.1,-0.274 -1.654,-0.401 -0.555,-0.127 -1.111,-0.248 -1.67,-0.362 -1.119,-0.227 -2.247,-0.427 -3.384,-0.6 -1.707,-0.259 -3.435,-0.456 -5.181,-0.588 -1.747,-0.131 -3.512,-0.199 -5.294,-0.199 -0.05,0 -0.09,0 -0.137,0.02 -0.05,0 -0.09,0.02 -0.13,0.04 -0.04,0.02 -0.08,0.04 -0.117,0.06 -0.07,0.05 -0.137,0.112 -0.186,0.185 -0.02,0.04 -0.05,0.08 -0.06,0.117 -0.02,0.04 -0.03,0.08 -0.04,0.13 0,0.04 -0.02,0.09 -0.02,0.138 -0.593,0 -1.184,0 -1.775,0.02 -1.18,0.03 -2.353,0.09 -3.517,0.176 -0.583,0.04 -1.162,0.09 -1.74,0.153 -0.578,0.06 -1.154,0.124 -1.727,0.196 -0.573,0.07 -1.144,0.153 -1.713,0.239 -1.138,0.173 -2.266,0.373 -3.384,0.6 -1.119,0.227 -2.227,0.483 -3.325,0.762 -1.646,0.422 -3.268,0.902 -4.864,1.44 -1.595,0.536 -3.164,1.13 -4.704,1.779 -1.025,0.432 -2.04,0.888 -3.04,1.367 -0.999,0.48 -1.986,0.984 -2.958,1.51 -0.971,0.527 -1.93,1.075 -2.873,1.646 -0.471,0.286 -0.939,0.577 -1.402,0.872 -0.465,0.297 -0.925,0.599 -1.381,0.907 -2.736,1.843 -5.331,3.878 -7.764,6.086 -3.651,3.313 -6.94,7.016 -9.804,11.044 -0.636,0.895 -1.251,1.806 -1.845,2.732 -0.296,0.463 -0.588,0.93 -0.874,1.401 -0.571,0.941 -1.121,1.898 -1.648,2.869 -0.79,1.456 -1.529,2.945 -2.215,4.463 -0.228,0.506 -0.45,1.014 -0.666,1.528 -0.216,0.512 -0.427,1.029 -0.632,1.547 -0.204,0.519 -0.401,1.041 -0.593,1.567 -0.192,0.525 -0.377,1.053 -0.556,1.583 -0.538,1.594 -1.019,3.214 -1.441,4.858 -0.281,1.096 -0.536,2.203 -0.763,3.32 -0.617,3.024 -1.03,6.124 -1.236,9.283 -0.121,-0.107 -0.241,-0.217 -0.363,-0.323 -1.207,-1.044 -2.452,-2.043 -3.733,-2.998 -0.242,-0.181 -0.488,-0.357 -0.732,-0.535 -0.707,-1.008 -1.437,-1.998 -2.197,-2.963 -1.66,-2.113 -3.446,-4.123 -5.344,-6.019 -1.14,-1.139 -2.32,-2.236 -3.538,-3.289 -1.218,-1.054 -2.476,-2.065 -3.769,-3.029 -0.231,-0.172 -0.465,-0.339 -0.698,-0.508 -0.39,-0.555 -0.786,-1.107 -1.192,-1.65 -0.976,-1.305 -1.998,-2.574 -3.064,-3.803 -0.355,-0.41 -0.716,-0.815 -1.081,-1.216 -0.364,-0.401 -0.734,-0.798 -1.108,-1.191 -0.374,-0.392 -0.753,-0.779 -1.137,-1.163 -0.383,-0.383 -0.771,-0.761 -1.164,-1.135 -1.177,-1.121 -2.397,-2.201 -3.653,-3.236 -0.838,-0.69 -1.693,-1.36 -2.565,-2.01 -0.215,-0.161 -0.437,-0.318 -0.655,-0.477 -1.332,-1.894 -2.755,-3.72 -4.269,-5.466 -0.717,-0.827 -1.454,-1.638 -2.211,-2.43 -0.755,-0.793 -1.531,-1.567 -2.324,-2.322 -0.397,-0.378 -0.798,-0.75 -1.204,-1.119 -0.405,-0.367 -0.815,-0.731 -1.229,-1.089 -2.487,-2.151 -5.132,-4.125 -7.914,-5.902 -3.248,-2.076 -6.681,-3.885 -10.275,-5.397 -1.025,-0.433 -2.066,-0.841 -3.117,-1.224 -0.526,-0.191 -1.054,-0.376 -1.586,-0.556 -0.532,-0.179 -1.066,-0.352 -1.604,-0.517 -2.689,-0.832 -5.449,-1.504 -8.269,-2.004 -1.692,-0.3 -3.407,-0.54 -5.14,-0.714 -1.156,-0.117 -2.321,-0.204 -3.493,-0.264 -0.586,-0.03 -1.174,-0.05 -1.764,-0.07 -0.591,-0.02 -1.182,-0.02 -1.776,-0.02 z"
         id="path8630" />
      <path
         id="rect8212"
         style="fill:#e8f5e9;fill-opacity:1;stroke:none;stroke-width:3.5;stroke-linecap:round;stroke-linejoin:bevel;stroke-miterlimit:4;stroke-dasharray:none;stroke-dashoffset:0;stroke-opacity:1;paint-order:fill markers stroke"
         d="m -3665.9922,3060.5294 c -42.5089,0 -76.7305,34.222 -76.7305,76.731 v 497.326 c 0,42.509 34.2216,76.73 76.7305,76.73 h 497.3262 c 42.509,0 76.7305,-34.221 76.7305,-76.73 v -497.326 c 0,-42.509 -34.2215,-76.731 -76.7305,-76.731 z m 76.4199,100 h 344.4864 c 29.4452,0 53.1504,23.705 53.1504,53.151 v 344.486 c 0,29.445 -23.7052,53.15 -53.1504,53.15 h -344.4864 c -29.4451,0 -53.1504,-23.705 -53.1504,-53.15 v -344.486 c 0,-29.446 23.7053,-53.151 53.1504,-53.151 z" />
      <rect
         ry="68.503906"
         rx="68.503906"
         y="2808.7454"
         x="-3723.4563"
         height="222.63771"
         width="137.00781"
         id="rect8202"
         style="fill:#e8f5e9;fill-opacity:1;stroke:none;stroke-width:3.5;stroke-linecap:round;stroke-linejoin:bevel;stroke-miterlimit:4;stroke-dasharray:none;stroke-dashoffset:0;stroke-opacity:1;paint-order:fill markers stroke" />
      <rect
         ry="68.503906"
         rx="68.503906"
         y="2808.7454"
         x="-3244.9993"
         height="222.63771"
         width="137.00781"
         id="rect8204"
         style="fill:#e8f5e9;fill-opacity:1;stroke:none;stroke-width:3.5;stroke-linecap:round;stroke-linejoin:bevel;stroke-miterlimit:4;stroke-dasharray:none;stroke-dashoffset:0;stroke-opacity:1;paint-order:fill markers stroke" />
      <rect
         ry="68.503906"
         rx="68.503906"
         y="2808.7454"
         x="-3404.4846"
         height="222.63771"
         width="137.00781"
         id="rect8206"
         style="fill:#e8f5e9;fill-opacity:1;stroke:none;stroke-width:3.5;stroke-linecap:round;stroke-linejoin:bevel;stroke-miterlimit:4;stroke-dasharray:none;stroke-dashoffset:0;stroke-opacity:1;paint-order:fill markers stroke" />
      <rect
         ry="68.503906"
         rx="68.503906"
         y="2808.7454"
         x="-3563.97"
         height="222.63771"
         width="137.00781"
         id="rect8208"
         style="fill:#e8f5e9;fill-opacity:1;stroke:none;stroke-width:3.5;stroke-linecap:round;stroke-linejoin:bevel;stroke-miterlimit:4;stroke-dasharray:none;stroke-dashoffset:0;stroke-opacity:1;paint-order:fill markers stroke" />
      <rect
         style="fill:#e8f5e9;fill-opacity:1;stroke:none;stroke-width:3.49999;stroke-linecap:round;stroke-linejoin:bevel;stroke-miterlimit:4;stroke-dasharray:none;stroke-dashoffset:0;stroke-opacity:1;paint-order:fill markers stroke"
         id="rect8214"
         width="137.00781"
         height="222.63771"
         x="-3725.0618"
         y="3740.4631"
         rx="68.503906"
         ry="68.503906" />
      <rect
         style="fill:#e8f5e9;fill-opacity:1;stroke:none;stroke-width:3.49999;stroke-linecap:round;stroke-linejoin:bevel;stroke-miterlimit:4;stroke-dasharray:none;stroke-dashoffset:0;stroke-opacity:1;paint-order:fill markers stroke"
         id="rect8216"
         width="137.00781"
         height="222.63771"
         x="-3246.6047"
         y="3740.4631"
         rx="68.503906"
         ry="68.503906" />
      <rect
         style="fill:#e8f5e9;fill-opacity:1;stroke:none;stroke-width:3.49999;stroke-linecap:round;stroke-linejoin:bevel;stroke-miterlimit:4;stroke-dasharray:none;stroke-dashoffset:0;stroke-opacity:1;paint-order:fill markers stroke"
         id="rect8218"
         width="137.00781"
         height="222.63771"
         x="-3406.0911"
         y="3740.4631"
         rx="68.503906"
         ry="68.503906" />
      <rect
         style="fill:#e8f5e9;fill-opacity:1;stroke:none;stroke-width:3.49999;stroke-linecap:round;stroke-linejoin:bevel;stroke-miterlimit:4;stroke-dasharray:none;stroke-dashoffset:0;stroke-opacity:1;paint-order:fill markers stroke"
         id="rect8220"
         width="137.00781"
         height="222.63771"
         x="-3565.5764"
         y="3740.4631"
         rx="68.503906"
         ry="68.503906" />
      <rect
         transform="rotate(-90)"
         ry="68.503906"
         rx="68.503906"
         y="-3994.5068"
         x="-3693.6558"
         height="222.63771"
         width="137.00781"
         id="rect8224"
         style="fill:#e8f5e9;fill-opacity:1;stroke:none;stroke-width:3.49999;stroke-linecap:round;stroke-linejoin:bevel;stroke-miterlimit:4;stroke-dasharray:none;stroke-dashoffset:0;stroke-opacity:1;paint-order:fill markers stroke" />
      <rect
         transform="rotate(-90)"
         ry="68.503906"
         rx="68.503906"
         y="-3994.5068"
         x="-3215.1987"
         height="222.63771"
         width="137.00781"
         id="rect8226"
         style="fill:#e8f5e9;fill-opacity:1;stroke:none;stroke-width:3.49999;stroke-linecap:round;stroke-linejoin:bevel;stroke-miterlimit:4;stroke-dasharray:none;stroke-dashoffset:0;stroke-opacity:1;paint-order:fill markers stroke" />
      <rect
         transform="rotate(-90)"
         ry="68.503906"
         rx="68.503906"
         y="-3994.5068"
         x="-3374.6851"
         height="222.63771"
         width="137.00781"
         id="rect8228"
         style="fill:#e8f5e9;fill-opacity:1;stroke:none;stroke-width:3.49999;stroke-linecap:round;stroke-linejoin:bevel;stroke-miterlimit:4;stroke-dasharray:none;stroke-dashoffset:0;stroke-opacity:1;paint-order:fill markers stroke" />
      <rect
         transform="rotate(-90)"
         ry="68.503906"
         rx="68.503906"
         y="-3994.5068"
         x="-3534.1704"
         height="222.63771"
         width="137.00781"
         id="rect8230"
         style="fill:#e8f5e9;fill-opacity:1;stroke:none;stroke-width:3.49999;stroke-linecap:round;stroke-linejoin:bevel;stroke-miterlimit:4;stroke-dasharray:none;stroke-dashoffset:0;stroke-opacity:1;paint-order:fill markers stroke" />
      <rect
         style="fill:#e8f5e9;fill-opacity:1;stroke:none;stroke-width:3.49999;stroke-linecap:round;stroke-linejoin:bevel;stroke-miterlimit:4;stroke-dasharray:none;stroke-dashoffset:0;stroke-opacity:1;paint-order:fill markers stroke"
         id="rect8234"
         width="137.00781"
         height="222.63771"
         x="-3693.6558"
         y="-3062.7891"
         rx="68.503906"
         ry="68.503906"
         transform="rotate(-90)" />
      <rect
         style="fill:#e8f5e9;fill-opacity:1;stroke:none;stroke-width:3.49999;stroke-linecap:round;stroke-linejoin:bevel;stroke-miterlimit:4;stroke-dasharray:none;stroke-dashoffset:0;stroke-opacity:1;paint-order:fill markers stroke"
         id="rect8236"
         width="137.00781"
         height="222.63771"
         x="-3215.1987"
         y="-3062.7891"
         rx="68.503906"
         ry="68.503906"
         transform="rotate(-90)" />
      <rect
         style="fill:#e8f5e9;fill-opacity:1;stroke:none;stroke-width:3.49999;stroke-linecap:round;stroke-linejoin:bevel;stroke-miterlimit:4;stroke-dasharray:none;stroke-dashoffset:0;stroke-opacity:1;paint-order:fill markers stroke"
         id="rect8238"
         width="137.00781"
         height="222.63771"
         x="-3374.6841"
         y="-3062.7891"
         rx="68.503906"
         ry="68.503906"
         transform="rotate(-90)" />
      <rect
         style="fill:#e8f5e9;fill-opacity:1;stroke:none;stroke-width:3.49999;stroke-linecap:round;stroke-linejoin:bevel;stroke-miterlimit:4;stroke-dasharray:none;stroke-dashoffset:0;stroke-opacity:1;paint-order:fill markers stroke"
         id="rect8240"
         width="137.00781"
         height="222.63771"
         x="-3534.1704"
         y="-3062.7891"
         rx="68.503906"
         ry="68.503906"
         transform="rotate(-90)" />
    </g>
  </g>
</svg>
