<?xml version="1.0" encoding="UTF-8" standalone="no"?>
<svg
   xmlns:dc="http://purl.org/dc/elements/1.1/"
   xmlns:cc="http://creativecommons.org/ns#"
   xmlns:rdf="http://www.w3.org/1999/02/22-rdf-syntax-ns#"
   xmlns:svg="http://www.w3.org/2000/svg"
   xmlns="http://www.w3.org/2000/svg"
   xmlns:sodipodi="http://sodipodi.sourceforge.net/DTD/sodipodi-0.dtd"
   xmlns:inkscape="http://www.inkscape.org/namespaces/inkscape"
   sodipodi:docname="fisica2_scalable.svg"
   inkscape:version="1.0 (4035a4fb49, 2020-05-01)"
   id="svg18935"
   version="1.1"
   viewBox="0 0 67.73333 67.73333"
   height="67.73333mm"
   width="67.73333mm">
  <defs
     id="defs18929" />
  <sodipodi:namedview
     inkscape:window-maximized="1"
     inkscape:window-y="24"
     inkscape:window-x="0"
     inkscape:window-height="1056"
     inkscape:window-width="1920"
     fit-margin-bottom="0"
     fit-margin-right="0"
     fit-margin-left="0"
     fit-margin-top="0"
     showgrid="false"
     inkscape:document-rotation="0"
     inkscape:current-layer="layer1"
     inkscape:document-units="mm"
     inkscape:cy="92.385514"
     inkscape:cx="93.319927"
     inkscape:zoom="1.4"
     inkscape:pageshadow="2"
     inkscape:pageopacity="0.0"
     borderopacity="1.0"
     bordercolor="#666666"
     pagecolor="#ffffff"
     id="base" />
  <metadata
     id="metadata18932">
    <rdf:RDF>
      <cc:Work
         rdf:about="">
        <dc:format>image/svg+xml</dc:format>
        <dc:type
           rdf:resource="http://purl.org/dc/dcmitype/StillImage" />
        <dc:title></dc:title>
        <cc:license
           rdf:resource="http://creativecommons.org/licenses/by-sa/4.0/" />
      </cc:Work>
      <cc:License
         rdf:about="http://creativecommons.org/licenses/by-sa/4.0/">
        <cc:permits
           rdf:resource="http://creativecommons.org/ns#Reproduction" />
        <cc:permits
           rdf:resource="http://creativecommons.org/ns#Distribution" />
        <cc:requires
           rdf:resource="http://creativecommons.org/ns#Notice" />
        <cc:requires
           rdf:resource="http://creativecommons.org/ns#Attribution" />
        <cc:permits
           rdf:resource="http://creativecommons.org/ns#DerivativeWorks" />
        <cc:requires
           rdf:resource="http://creativecommons.org/ns#ShareAlike" />
      </cc:License>
    </rdf:RDF>
  </metadata>
  <g
     transform="translate(-47.789957,-39.472086)"
     id="layer1"
     inkscape:groupmode="layer"
     inkscape:label="Livello 1">
    <g
       transform="matrix(0.03801803,0,0,0.03801765,1913.2291,-532.26518)"
       id="g18927">
      <rect
         style="fill:#0d47a1;fill-opacity:1;fill-rule:evenodd;stroke:none;stroke-width:88.1253;stroke-linecap:square;stroke-linejoin:miter;stroke-miterlimit:4;stroke-dasharray:none;stroke-dashoffset:0;stroke-opacity:0.989899;paint-order:markers fill stroke"
         id="rect857-5-3"
         width="1781.5875"
         height="1781.5891"
         x="-49067.223"
         y="15038.732"
         inkscape:export-xdpi="96"
         inkscape:export-ydpi="96" />
      <path
         id="path39414"
         style="fill:#000001;fill-opacity:0.184314;stroke:none;stroke-width:13.5707;stroke-linecap:round;stroke-linejoin:bevel;stroke-miterlimit:4;stroke-dasharray:none;stroke-dashoffset:0;stroke-opacity:0.839216;paint-order:normal"
         d="m -48175.068,15134.798 -0.1,0.04 c -23.646,0 -46.326,9.382 -63.055,26.111 -16.729,16.729 -26.111,39.409 -26.111,63.055 0,3.385 0.238,6.718 0.598,10.004 0.768,-0.684 1.535,-1.357 2.31,-2.025 0.106,1.702 0.159,3.41 0.34,5.084 0.768,-0.684 1.537,-1.357 2.311,-2.026 0.105,1.689 0.158,3.381 0.353,5.043 0.766,-0.681 1.538,-1.346 2.311,-2.011 0.105,1.686 0.159,3.37 0.354,5.029 0.762,-0.679 1.529,-1.349 2.297,-2.012 0.105,1.689 0.158,3.38 0.353,5.043 0.758,-0.674 1.521,-1.338 2.284,-1.998 0.105,1.683 0.158,3.371 0.353,5.029 0.763,-0.679 1.529,-1.349 2.297,-2.012 0.106,1.684 0.186,3.372 0.367,5.03 0.763,-0.676 1.529,-1.338 2.297,-1.999 0.105,1.676 0.146,3.353 0.34,5.002 0.755,-0.67 1.521,-1.329 2.284,-1.984 0.105,1.673 0.158,3.355 0.353,5.002 -0.634,0.56 -1.272,1.098 -1.903,1.672 -0.263,-1.557 -0.552,-3.107 -0.734,-4.69 -0.644,0.571 -1.291,1.118 -1.93,1.699 -0.263,-1.559 -0.539,-3.115 -0.72,-4.702 -0.648,0.573 -1.302,1.112 -1.944,1.699 -0.266,-1.565 -0.539,-3.126 -0.72,-4.717 -0.637,0.566 -1.286,1.096 -1.917,1.672 -0.263,-1.56 -0.542,-3.116 -0.72,-4.703 -0.642,0.571 -1.291,1.118 -1.931,1.699 -0.263,-1.568 -0.541,-3.135 -0.72,-4.73 -0.644,0.573 -1.305,1.115 -1.944,1.699 -0.263,-1.565 -0.541,-3.125 -0.72,-4.717 -0.645,0.574 -1.302,1.113 -1.944,1.699 -0.263,-1.565 -0.541,-3.124 -0.72,-4.716 -0.642,0.57 -1.294,1.115 -1.93,1.699 -0.263,-1.581 -0.542,-3.151 -0.721,-4.758 -9.411,8.393 -18.376,17.942 -26.804,28.477 v 0.03 c -31.564,39.455 -58.094,93.643 -80.372,159.453 v 0.03 c -8.735,25.817 -16.757,53.49 -24.059,82.71 1.058,0.419 2.133,0.871 3.194,1.292 -0.158,0.589 -0.287,1.205 -0.435,1.794 1.053,0.415 2.126,0.857 3.181,1.278 -0.158,0.583 -0.29,1.194 -0.435,1.78 1.057,0.418 2.133,0.868 3.194,1.291 -0.158,0.587 -0.287,1.192 -0.435,1.781 1.058,0.418 2.133,0.868 3.195,1.291 -0.158,0.59 -0.299,1.176 -0.449,1.767 1.07,0.423 2.159,0.876 3.235,1.305 -0.158,0.592 -0.31,1.157 -0.462,1.754 1.068,0.423 2.151,0.878 3.221,1.305 -0.158,0.597 -0.323,1.167 -0.476,1.767 1.071,0.423 2.16,0.876 3.235,1.304 -0.158,0.598 -0.323,1.168 -0.476,1.767 1.068,0.424 2.152,0.877 3.221,1.305 -0.157,0.592 -0.309,1.159 -0.462,1.754 1.068,0.423 2.152,0.876 3.222,1.305 -0.158,0.586 -0.313,1.153 -0.462,1.739 1.065,0.424 2.141,0.879 3.207,1.305 -0.158,0.59 -0.309,1.162 -0.462,1.754 1.068,0.423 2.149,0.876 3.222,1.305 -0.158,0.589 -0.31,1.161 -0.462,1.753 1.06,0.421 2.133,0.865 3.194,1.291 -0.158,0.59 -0.31,1.162 -0.462,1.754 1.07,0.426 2.149,0.876 3.221,1.305 -0.158,0.584 -0.309,1.156 -0.462,1.739 1.063,0.424 2.141,0.863 3.208,1.292 -0.158,0.586 -0.307,1.164 -0.462,1.753 1.06,0.424 2.13,0.865 3.194,1.291 -0.158,0.582 -0.31,1.156 -0.462,1.74 1.057,0.421 2.12,0.865 3.181,1.292 -0.158,0.586 -0.307,1.164 -0.462,1.753 0.131,0.06 0.262,0.111 0.38,0.163 -0.131,0.589 -0.262,1.178 -0.38,1.767 -0.158,-0.06 -0.31,-0.124 -0.463,-0.177 0.158,-0.581 0.31,-1.147 0.463,-1.726 -1.058,-0.421 -2.126,-0.873 -3.181,-1.291 0.158,-0.59 0.307,-1.165 0.462,-1.754 -1.06,-0.423 -2.136,-0.873 -3.194,-1.291 0.158,-0.587 0.31,-1.156 0.462,-1.74 -1.065,-0.423 -2.146,-0.873 -3.208,-1.291 0.158,-0.592 0.307,-1.165 0.462,-1.754 -1.068,-0.426 -2.154,-0.884 -3.221,-1.305 0.158,-0.586 0.309,-1.156 0.462,-1.739 -1.06,-0.421 -2.136,-0.873 -3.194,-1.292 0.158,-0.591 0.309,-1.161 0.462,-1.753 -1.068,-0.426 -2.154,-0.884 -3.222,-1.305 0.158,-0.592 0.31,-1.162 0.462,-1.753 -1.067,-0.424 -2.154,-0.884 -3.221,-1.305 0.158,-0.595 0.323,-1.173 0.476,-1.767 -1.068,-0.423 -2.154,-0.887 -3.221,-1.305 0.158,-0.59 0.312,-1.14 0.462,-1.726 -1.068,-0.424 -2.154,-0.887 -3.222,-1.305 0.158,-0.595 0.31,-1.159 0.462,-1.754 -1.062,-0.421 -2.146,-0.873 -3.207,-1.291 0.158,-0.594 0.295,-1.202 0.449,-1.794 -1.055,-0.418 -2.128,-0.879 -3.181,-1.292 0.158,-0.586 0.287,-1.194 0.435,-1.78 -1.06,-0.418 -2.139,-0.876 -3.194,-1.291 0.158,-0.581 0.277,-1.189 0.421,-1.767 -1.05,-0.416 -2.12,-0.868 -3.167,-1.278 0.158,-0.584 0.274,-1.197 0.421,-1.781 -1.058,-0.418 -2.139,-0.878 -3.194,-1.291 0.158,-0.587 0.29,-1.194 0.435,-1.781 -1.05,-0.415 -2.12,-0.881 -3.168,-1.291 0.158,-0.584 0.277,-1.186 0.422,-1.767 -1.058,-0.418 -2.139,-0.878 -3.195,-1.291 0.158,-0.592 0.288,-1.203 0.435,-1.794 -28.027,-11.054 -55.219,-20.62 -81.31,-28.531 -66.494,-20.174 -125.995,-30.07 -176.471,-27.334 -12.184,0.66 -23.972,2.135 -35.218,4.458 -0.06,-0.06 -0.137,-0.1 -0.19,-0.177 -0.805,-0.991 -1.564,-2.041 -2.406,-2.99 -29.473,-36.284 -82.419,-43.923 -120.959,-16.365 -40.059,28.643 -49.319,84.339 -20.701,124.425 2.567,3.589 5.403,6.847 8.373,9.936 0.85,0.97 1.781,1.833 2.664,2.759 1,1.152 2.065,2.215 3.113,3.303 0.452,0.519 0.937,0.99 1.4,1.495 0.131,0.184 0.236,0.404 0.38,0.598 0.132,0.185 0.328,0.263 0.517,0.327 0.158,0.158 0.326,0.334 0.489,0.503 0.274,0.313 0.553,0.602 0.829,0.91 0.284,0.411 0.51,0.843 0.802,1.251 0.21,0.318 0.547,0.461 0.897,0.489 0.08,0.08 0.139,0.165 0.217,0.217 0.105,0.132 0.211,0.288 0.34,0.422 0.424,0.624 0.768,1.274 1.21,1.889 0.263,0.358 0.65,0.517 1.06,0.544 0.542,0.813 0.992,1.661 1.563,2.46 0.279,0.376 0.686,0.573 1.115,0.625 0.523,0.784 0.97,1.594 1.522,2.365 0.29,0.395 0.722,0.647 1.169,0.721 0.505,0.754 0.937,1.539 1.468,2.283 0.3,0.411 0.733,0.65 1.196,0.748 0.495,0.736 0.906,1.503 1.427,2.229 0.3,0.426 0.747,0.64 1.21,0.761 0.495,0.736 0.906,1.49 1.427,2.216 0.311,0.434 0.758,0.703 1.237,0.842 0.479,0.716 0.884,1.457 1.386,2.161 0.321,0.453 0.795,0.726 1.292,0.884 0.465,0.692 0.856,1.409 1.345,2.093 0.158,0.21 0.347,0.35 0.544,0.503 1.481,10.105 3.674,20.367 6.606,30.733 13.73,48.634 42.383,101.714 82.968,158.107 25.699,35.686 56.275,72.67 91.124,110.181 0.973,1.055 1.915,2.112 2.895,3.167 0.989,1.073 1.954,2.136 2.95,3.208 1.162,1.26 2.294,2.517 3.466,3.778 0.989,1.074 1.954,2.134 2.949,3.208 1.255,1.363 2.486,2.727 3.752,4.091 0.784,0.85 1.535,1.693 2.324,2.542 1.381,1.5 2.737,2.997 4.132,4.499 0.86,0.934 1.688,1.868 2.556,2.8 -45.362,46.479 -84.481,92.428 -116.148,136.401 -40.585,56.393 -69.238,109.473 -82.968,158.107 -4.404,15.57 -7.25,30.931 -8.278,45.807 1.005,-0.416 2.018,-0.793 3.031,-1.169 -0.131,1.396 -0.264,2.798 -0.353,4.186 1.002,-0.413 2.007,-0.782 3.017,-1.155 -0.131,1.396 -0.264,2.797 -0.353,4.186 0.999,-0.412 2.009,-0.782 3.017,-1.155 -0.131,1.399 -0.262,2.796 -0.353,4.186 0.994,-0.41 1.999,-0.784 3.004,-1.155 -0.131,1.392 -0.238,2.788 -0.34,4.173 -0.96,0.394 -1.931,0.751 -2.882,1.182 0.06,-1.402 0.126,-2.802 0.204,-4.213 -0.962,0.397 -1.93,0.762 -2.881,1.196 0.06,-1.407 0.138,-2.811 0.217,-4.227 -0.963,0.397 -1.928,0.775 -2.882,1.209 0.06,-1.404 0.125,-2.812 0.204,-4.227 -0.965,0.4 -1.938,0.76 -2.895,1.196 0.06,-1.402 0.125,-2.802 0.204,-4.213 -6.162,2.551 -12.149,5.758 -17.806,9.8 -40.06,28.644 -49.319,84.352 -20.702,124.411 2.533,3.544 5.337,6.758 8.265,9.814 0.917,1.055 1.909,2.028 2.868,3.031 0.967,1.11 2.006,2.115 3.017,3.167 0.455,0.521 0.951,0.99 1.414,1.496 0.131,0.184 0.238,0.395 0.366,0.584 0.132,0.185 0.333,0.283 0.531,0.354 0.131,0.131 0.284,0.277 0.421,0.421 0.297,0.342 0.594,0.68 0.897,1.02 0.279,0.405 0.499,0.834 0.788,1.237 0.21,0.297 0.529,0.436 0.87,0.476 l 0.34,0.339 c 0.08,0.105 0.165,0.211 0.244,0.313 0.418,0.615 0.762,1.254 1.196,1.862 0.263,0.358 0.65,0.517 1.06,0.544 0.543,0.812 1.006,1.658 1.577,2.46 0.281,0.378 0.684,0.586 1.115,0.639 0.52,0.778 0.959,1.583 1.509,2.351 0.289,0.395 0.721,0.645 1.169,0.721 0.505,0.754 0.936,1.539 1.467,2.283 0.293,0.402 0.72,0.631 1.169,0.734 0.503,0.75 0.926,1.531 1.455,2.27 0.297,0.413 0.749,0.616 1.21,0.734 0.494,0.737 0.906,1.503 1.427,2.229 0.313,0.447 0.766,0.714 1.25,0.857 0.476,0.707 0.873,1.45 1.373,2.147 0.324,0.453 0.794,0.712 1.291,0.87 0.469,0.695 0.857,1.42 1.346,2.107 0.329,0.471 0.789,0.751 1.291,0.924 0.46,0.684 0.851,1.393 1.332,2.066 0.332,0.469 0.803,0.762 1.305,0.952 0.453,0.671 0.832,1.365 1.305,2.025 0.35,0.482 0.83,0.773 1.346,0.979 0.444,0.657 0.812,1.348 1.277,1.998 0.348,0.492 0.839,0.796 1.36,1.019 0.434,0.642 0.798,1.31 1.25,1.944 0.361,0.5 0.85,0.829 1.373,1.06 0.429,0.634 0.79,1.291 1.237,1.917 0.371,0.518 0.869,0.853 1.414,1.101 0.412,0.61 0.751,1.246 1.182,1.848 0.377,0.537 0.891,0.882 1.441,1.142 0.408,0.6 0.745,1.241 1.169,1.835 0.387,0.531 0.888,0.906 1.441,1.183 0.399,0.591 0.737,1.21 1.155,1.794 0.397,0.549 0.93,0.912 1.495,1.196 0.392,0.576 0.707,1.182 1.115,1.753 0.402,0.558 0.935,0.94 1.509,1.237 0.381,0.56 0.69,1.144 1.087,1.699 0.4,0.566 0.933,0.981 1.509,1.292 0.373,0.547 0.687,1.113 1.073,1.658 0.424,0.597 0.975,1.019 1.577,1.345 0.361,0.529 0.657,1.081 1.033,1.604 0.421,0.595 0.961,1.026 1.55,1.36 0.355,0.523 0.648,1.072 1.019,1.59 0.442,0.615 1.008,1.069 1.631,1.414 0.342,0.499 0.624,1.025 0.979,1.522 0.434,0.61 0.994,1.075 1.604,1.427 0.342,0.5 0.623,1.025 0.979,1.522 0.441,0.624 0.999,1.105 1.617,1.468 0.334,0.49 0.604,0.998 0.952,1.482 0.452,0.628 1.029,1.111 1.658,1.482 0.323,0.473 0.59,0.97 0.924,1.44 0.466,0.655 1.047,1.163 1.699,1.55 0.308,0.447 0.552,0.915 0.87,1.359 0.468,0.663 1.058,1.193 1.713,1.591 0.305,0.447 0.552,0.917 0.87,1.359 0.462,0.647 1.046,1.163 1.685,1.563 0.306,0.447 0.555,0.917 0.87,1.359 0.482,0.668 1.08,1.205 1.74,1.618 0.294,0.428 0.527,0.881 0.829,1.304 0.466,0.648 1.057,1.151 1.685,1.564 0.305,0.446 0.554,0.917 0.87,1.359 0.5,0.697 1.124,1.238 1.808,1.672 0.274,0.397 0.491,0.815 0.775,1.209 0.468,0.661 1.068,1.159 1.699,1.591 0.3,0.439 0.546,0.898 0.856,1.332 0.466,0.649 1.065,1.145 1.686,1.577 0.305,0.444 0.554,0.906 0.87,1.345 0.478,0.663 1.092,1.162 1.726,1.604 0.292,0.423 0.53,0.871 0.829,1.291 0.482,0.666 1.076,1.155 1.713,1.604 0.291,0.424 0.529,0.871 0.829,1.292 0.46,0.638 1.056,1.105 1.658,1.549 0.308,0.453 0.562,0.926 0.884,1.373 0.481,0.671 1.108,1.157 1.739,1.618 0.287,0.415 0.521,0.851 0.816,1.264 0.482,0.67 1.111,1.152 1.74,1.617 0.287,0.418 0.518,0.862 0.815,1.278 0.476,0.66 1.092,1.152 1.713,1.617 0.287,0.416 0.521,0.851 0.816,1.264 0.476,0.663 1.097,1.131 1.712,1.604 0.292,0.426 0.53,0.871 0.829,1.292 0.46,0.647 1.078,1.081 1.672,1.549 0.303,0.442 0.544,0.907 0.857,1.346 0.494,0.686 1.141,1.169 1.78,1.658 0.274,0.397 0.491,0.815 0.775,1.21 0.521,0.734 1.167,1.308 1.849,1.821 0.236,0.35 0.43,0.727 0.679,1.074 0.529,0.739 1.171,1.33 1.863,1.849 0.236,0.334 0.415,0.685 0.652,1.019 0.539,0.755 1.2,1.361 1.903,1.889 0.21,0.321 0.396,0.661 0.625,0.979 0.547,0.765 1.215,1.377 1.93,1.916 0.211,0.308 0.38,0.633 0.598,0.938 0.55,0.771 1.215,1.4 1.93,1.944 0.21,0.303 0.382,0.624 0.598,0.924 0.539,0.755 1.181,1.372 1.876,1.917 0.21,0.313 0.388,0.641 0.612,0.951 0.549,0.766 1.222,1.394 1.93,1.944 0.21,0.305 0.382,0.624 0.597,0.924 0.553,0.771 1.218,1.4 1.931,1.958 0.21,0.292 0.365,0.594 0.57,0.883 0.566,0.789 1.245,1.428 1.971,1.998 0.21,0.284 0.355,0.586 0.558,0.87 0.565,0.792 1.245,1.439 1.97,2.012 0.185,0.271 0.336,0.561 0.531,0.829 0.56,0.779 1.228,1.414 1.944,1.985 0.184,0.281 0.343,0.577 0.543,0.856 0.56,0.786 1.245,1.433 1.957,2.012 0.185,0.279 0.344,0.577 0.544,0.856 0.571,0.797 1.269,1.452 1.998,2.039 0.184,0.263 0.33,0.538 0.516,0.802 0.571,0.794 1.245,1.449 1.971,2.039 0.185,0.263 0.33,0.538 0.517,0.802 0.586,0.815 1.292,1.477 2.039,2.079 0.157,0.237 0.29,0.498 0.462,0.734 0.584,0.818 1.283,1.499 2.025,2.107 0.158,0.237 0.305,0.495 0.476,0.734 0.576,0.807 1.267,1.472 1.998,2.08 0.184,0.263 0.31,0.513 0.489,0.761 0.595,0.828 1.289,1.516 2.039,2.134 0.158,0.21 0.277,0.458 0.435,0.68 0.59,0.828 1.295,1.513 2.039,2.134 0.158,0.21 0.277,0.458 0.435,0.68 0.581,0.812 1.28,1.491 2.012,2.107 0.158,0.236 0.291,0.494 0.462,0.734 0.594,0.831 1.303,1.532 2.052,2.161 0.158,0.21 0.269,0.439 0.422,0.652 0.597,0.836 1.314,1.541 2.066,2.175 0.158,0.21 0.263,0.43 0.408,0.639 0.604,0.844 1.319,1.562 2.079,2.202 0.132,0.21 0.263,0.412 0.394,0.611 0.613,0.855 1.339,1.58 2.107,2.229 0.132,0.185 0.238,0.385 0.367,0.571 0.61,0.855 1.328,1.566 2.093,2.216 0.132,0.184 0.236,0.403 0.381,0.597 0.623,0.871 1.353,1.608 2.134,2.27 0.131,0.158 0.211,0.348 0.339,0.517 0.611,0.855 1.32,1.574 2.08,2.229 0.132,0.184 0.238,0.395 0.367,0.584 0.623,0.871 1.355,1.602 2.134,2.27 0.105,0.158 0.21,0.351 0.326,0.517 0.615,0.86 1.342,1.591 2.107,2.256 0.132,0.184 0.211,0.356 0.34,0.53 0.62,0.866 1.352,1.6 2.12,2.27 0.105,0.158 0.21,0.348 0.327,0.517 0.644,0.899 1.399,1.673 2.202,2.365 0.105,0.131 0.185,0.284 0.272,0.422 0.634,0.886 1.374,1.651 2.161,2.337 0.105,0.158 0.183,0.302 0.285,0.449 0.637,0.891 1.372,1.673 2.161,2.365 0.105,0.131 0.183,0.293 0.286,0.435 0.621,0.868 1.341,1.616 2.107,2.297 0.105,0.158 0.21,0.329 0.312,0.489 0.647,0.905 1.402,1.676 2.202,2.379 0.08,0.131 0.166,0.262 0.245,0.38 0.652,0.913 1.408,1.693 2.216,2.406 0.08,0.105 0.152,0.238 0.231,0.354 0.634,0.886 1.369,1.652 2.147,2.351 0.105,0.132 0.185,0.296 0.272,0.435 0.655,0.916 1.422,1.718 2.23,2.433 0.08,0.105 0.125,0.211 0.203,0.327 0.648,0.904 1.395,1.693 2.189,2.406 0.08,0.131 0.165,0.238 0.245,0.366 0.65,0.908 1.405,1.688 2.202,2.406 0.08,0.105 0.125,0.238 0.204,0.354 0.671,0.939 1.441,1.751 2.27,2.487 0.06,0.08 0.111,0.182 0.19,0.272 0.668,0.931 1.435,1.751 2.256,2.488 l 0.15,0.231 c 0.671,0.939 1.433,1.773 2.256,2.514 l 0.163,0.245 c 0.657,0.923 1.413,1.74 2.215,2.473 0.06,0.08 0.1,0.186 0.177,0.273 0.671,0.939 1.436,1.77 2.256,2.514 l 0.163,0.231 c 0.679,0.944 1.455,1.779 2.284,2.528 0.06,0.08 0.08,0.139 0.136,0.218 0.678,0.946 1.454,1.786 2.283,2.541 0.06,0.06 0.07,0.124 0.123,0.177 0.689,0.963 1.466,1.817 2.31,2.583 0.06,0.06 0.08,0.11 0.109,0.162 0.689,0.963 1.458,1.815 2.297,2.583 0.03,0.06 0.06,0.1 0.109,0.15 0.686,0.955 1.449,1.803 2.283,2.569 0.06,0.06 0.08,0.11 0.109,0.163 0.71,0.989 1.499,1.864 2.365,2.65 0.01,0.02 0.03,0.03 0.06,0.06 0.695,0.973 1.478,1.845 2.325,2.623 0.03,0.06 0.06,0.08 0.08,0.136 0.689,0.968 1.469,1.834 2.311,2.61 0.02,0.03 0.03,0.04 0.06,0.09 0.708,0.989 1.505,1.873 2.366,2.664 0,0.01 0.02,0.03 0.03,0.06 0.708,0.989 1.508,1.883 2.365,2.677 0.01,0.01 0.01,0.03 0.03,0.06 0.716,0.997 1.514,1.904 2.379,2.705 l 0.01,0.01 c 0.71,0.997 1.516,1.902 2.379,2.705 0.718,0.999 1.521,1.912 2.392,2.718 0.01,0.01 0.03,0.01 0.06,0.03 0.72,1.002 1.519,1.912 2.392,2.719 0.686,0.952 1.446,1.82 2.27,2.596 0,0.01 0.02,0.03 0.03,0.06 l 0.08,0.08 c 0.731,1.015 1.536,1.941 2.419,2.759 0.671,0.921 1.405,1.755 2.202,2.515 0.01,0.02 0.03,0.03 0.06,0.06 0.755,1.058 1.61,2.005 2.528,2.855 0.718,0.981 1.505,1.907 2.365,2.705 0.747,1.015 1.553,1.949 2.447,2.773 0.628,0.844 1.319,1.614 2.052,2.324 0.01,0.02 0.03,0.04 0.06,0.07 0.784,1.097 1.658,2.097 2.61,2.977 0.623,0.839 1.313,1.603 2.039,2.311 0.02,0.03 0.03,0.06 0.06,0.08 0.8,1.118 1.705,2.136 2.678,3.031 0.615,0.821 1.296,1.573 2.012,2.27 0,0.01 0.02,0.03 0.03,0.06 0.105,0.105 0.183,0.237 0.299,0.327 0.736,0.983 1.519,1.912 2.392,2.718 0.721,0.957 1.486,1.889 2.338,2.678 0.737,0.976 1.522,1.901 2.392,2.705 0.732,0.962 1.505,1.883 2.365,2.677 0.577,0.758 1.194,1.452 1.849,2.107 0.01,0.02 0.03,0.06 0.06,0.08 0.699,0.975 1.498,1.833 2.324,2.65 l 0.01,0.01 c 0.158,0.158 0.28,0.342 0.435,0.489 0.734,0.963 1.518,1.907 2.379,2.705 0.725,0.947 1.488,1.862 2.337,2.651 0.558,0.723 1.152,1.394 1.781,2.025 0.01,0.02 0.03,0.06 0.06,0.08 0.876,1.221 1.857,2.323 2.922,3.303 0.718,0.924 1.452,1.823 2.284,2.596 h 0.01 c 0.744,0.961 1.513,1.905 2.378,2.705 0.732,0.937 1.475,1.852 2.325,2.637 0.492,0.632 1.018,1.218 1.563,1.781 0.03,0.06 0.06,0.1 0.08,0.122 0.894,1.252 1.904,2.365 2.99,3.371 0.513,0.652 1.05,1.268 1.618,1.849 0,0.01 0.02,0.03 0.03,0.06 0.236,0.236 0.426,0.524 0.666,0.747 0.747,0.952 1.502,1.891 2.365,2.691 0.723,0.913 1.455,1.826 2.283,2.597 0.737,0.936 1.489,1.875 2.338,2.664 0.474,0.597 0.975,1.16 1.496,1.699 0,0.01 0,0.03 0.01,0.06 0.268,0.277 0.507,0.61 0.789,0.87 0.744,0.939 1.496,1.873 2.351,2.665 0.46,0.576 0.939,1.126 1.441,1.644 0,0 0,0.02 0.01,0.03 0.284,0.292 0.518,0.651 0.815,0.924 0.453,0.568 0.931,1.102 1.428,1.618 0.01,0.02 0.03,0.06 0.06,0.08 0.952,1.329 2.025,2.52 3.181,3.589 0.411,0.513 0.847,0.999 1.291,1.468 0.03,0.06 0.04,0.07 0.07,0.122 0.957,1.339 2.049,2.552 3.208,3.629 0.734,0.91 1.485,1.848 2.324,2.624 0.413,0.51 0.844,0.999 1.291,1.468 0,0.01 0,0.03 0.01,0.06 0.334,0.35 0.615,0.764 0.965,1.088 0.616,0.764 1.269,1.499 1.944,2.188 h 1181.075 v -1099.279 c -0.327,-0.371 -0.643,-0.75 -0.978,-1.114 -0.81,-0.955 -1.638,-1.892 -2.488,-2.814 -0.776,-0.913 -1.552,-1.823 -2.365,-2.705 -0.799,-0.944 -1.621,-1.873 -2.46,-2.786 -0.789,-0.932 -1.591,-1.847 -2.419,-2.746 -0.779,-0.918 -1.564,-1.831 -2.379,-2.719 -0.779,-0.92 -1.563,-1.83 -2.379,-2.718 -0.849,-1.005 -1.715,-1.994 -2.61,-2.963 -0.747,-0.879 -1.502,-1.747 -2.283,-2.596 -0.842,-0.995 -1.696,-1.978 -2.583,-2.936 -0.712,-0.837 -1.43,-1.662 -2.175,-2.474 -0.878,-1.042 -1.764,-2.07 -2.691,-3.072 -0.742,-0.871 -1.494,-1.725 -2.27,-2.569 -0.834,-0.986 -1.677,-1.957 -2.555,-2.909 -0.794,-0.934 -1.599,-1.857 -2.433,-2.759 -0.781,-0.921 -1.572,-1.828 -2.392,-2.719 -0.805,-0.949 -1.63,-1.883 -2.474,-2.8 -0.821,-0.97 -1.649,-1.93 -2.515,-2.868 -0.755,-0.889 -1.519,-1.763 -2.311,-2.623 -0.87,-1.031 -1.746,-2.052 -2.664,-3.045 -0.726,-0.852 -1.471,-1.688 -2.229,-2.514 -0.86,-1.021 -1.728,-2.034 -2.637,-3.018 -0.789,-0.931 -1.591,-1.846 -2.419,-2.746 -0.808,-0.952 -1.624,-1.893 -2.474,-2.813 -0.792,-0.934 -1.588,-1.857 -2.419,-2.759 -0.821,-0.971 -1.652,-1.931 -2.515,-2.868 -0.829,-0.979 -1.671,-1.939 -2.542,-2.882 -0.776,-0.915 -1.566,-1.82 -2.379,-2.705 -0.823,-0.976 -1.66,-1.939 -2.528,-2.882 -0.82,-0.967 -1.652,-1.92 -2.514,-2.854 -0.845,-0.997 -1.707,-1.975 -2.597,-2.936 -0.733,-0.863 -1.472,-1.716 -2.242,-2.555 -0.839,-0.995 -1.685,-1.978 -2.569,-2.936 -0.829,-0.981 -1.669,-1.949 -2.542,-2.895 -0.815,-0.963 -1.644,-1.913 -2.501,-2.841 -0.823,-0.974 -1.663,-1.931 -2.528,-2.868 -0.816,-0.966 -1.644,-1.91 -2.501,-2.841 -0.795,-0.939 -1.6,-1.868 -2.433,-2.773 -0.847,-1.002 -1.705,-1.986 -2.597,-2.95 -0.791,-0.933 -1.588,-1.857 -2.419,-2.759 -0.844,-0.999 -1.707,-1.986 -2.596,-2.949 -0.839,-0.992 -1.699,-1.968 -2.583,-2.923 -0.789,-0.931 -1.591,-1.846 -2.419,-2.745 -0.818,-0.968 -1.652,-1.921 -2.515,-2.855 -0.844,-0.999 -1.693,-1.988 -2.582,-2.949 -0.824,-0.974 -1.663,-1.931 -2.528,-2.868 -0.769,-0.908 -1.547,-1.802 -2.352,-2.678 -0.886,-1.055 -1.781,-2.099 -2.718,-3.113 -0.821,-0.968 -1.652,-1.92 -2.515,-2.854 -0.837,-0.987 -1.688,-1.957 -2.569,-2.909 -0.787,-0.929 -1.58,-1.847 -2.406,-2.746 -0.868,-1.028 -1.749,-2.041 -2.664,-3.031 -0.831,-0.984 -1.68,-1.949 -2.555,-2.895 -0.811,-0.957 -1.633,-1.902 -2.488,-2.827 -0.818,-0.968 -1.641,-1.92 -2.501,-2.855 -0.855,-1.015 -1.724,-2.012 -2.623,-2.99 -0.876,-1.036 -1.768,-2.049 -2.691,-3.045 -0.774,-0.91 -1.555,-1.809 -2.366,-2.691 -0.86,-1.018 -1.73,-2.023 -2.637,-3.004 -0.833,-0.986 -1.679,-1.957 -2.555,-2.909 -0.842,-0.997 -1.696,-1.975 -2.582,-2.936 -0.858,-1.015 -1.731,-2.012 -2.637,-2.99 -0.816,-0.963 -1.644,-1.912 -2.501,-2.841 -0.85,-1.007 -1.716,-1.994 -2.61,-2.963 -0.813,-0.963 -1.63,-1.912 -2.488,-2.841 -0.868,-1.028 -1.749,-2.041 -2.664,-3.031 -0.834,-0.986 -1.679,-1.957 -2.555,-2.909 -0.868,-1.028 -1.749,-2.041 -2.664,-3.031 -0.784,-0.926 -1.583,-1.838 -2.406,-2.732 -0.889,-1.057 -1.791,-2.096 -2.732,-3.113 -0.837,-0.989 -1.688,-1.967 -2.569,-2.922 -0.834,-0.989 -1.677,-1.967 -2.556,-2.922 -0.86,-1.021 -1.741,-2.021 -2.65,-3.004 -0.847,-1 -1.705,-1.986 -2.596,-2.95 -0.837,-0.991 -1.685,-1.967 -2.569,-2.922 -0.871,-1.034 -1.757,-2.049 -2.678,-3.045 -0.842,-0.997 -1.696,-1.975 -2.582,-2.936 -0.834,-0.986 -1.68,-1.957 -2.556,-2.909 -0.876,-1.039 -1.767,-2.059 -2.691,-3.058 -0.868,-1.028 -1.763,-2.028 -2.678,-3.018 -0.781,-0.923 -1.561,-1.841 -2.379,-2.732 -0.936,-1.112 -1.891,-2.206 -2.881,-3.275 -0.81,-0.955 -1.635,-1.892 -2.487,-2.814 -0.866,-1.026 -1.739,-2.044 -2.651,-3.031 -0.871,-1.034 -1.757,-2.049 -2.678,-3.045 -0.863,-1.02 -1.741,-2.023 -2.65,-3.004 -0.821,-0.97 -1.652,-1.93 -2.515,-2.868 -0.894,-1.062 -1.802,-2.104 -2.746,-3.126 -0.865,-1.026 -1.752,-2.031 -2.664,-3.018 -0.807,-0.957 -1.621,-1.904 -2.474,-2.827 -0.931,-1.107 -1.883,-2.199 -2.868,-3.262 -0.836,-0.986 -1.687,-1.957 -2.568,-2.909 -0.861,-1.018 -1.731,-2.023 -2.637,-3.004 -0.853,-1.007 -1.713,-2.004 -2.61,-2.976 -0.894,-1.063 -1.802,-2.105 -2.746,-3.127 -4.218,-4.994 -8.936,-9.596 -14.231,-13.606 -39.27,-29.722 -95.192,-21.994 -124.915,17.276 -0.21,0.266 -0.36,0.55 -0.557,0.816 1.439,0.297 2.849,0.625 4.268,0.951 -0.342,0.435 -0.726,0.82 -1.06,1.264 -0.211,0.284 -0.388,0.584 -0.598,0.87 1.436,0.295 2.85,0.626 4.268,0.952 -0.324,0.412 -0.688,0.775 -1.006,1.196 -0.237,0.3 -0.402,0.624 -0.625,0.924 1.431,0.293 2.843,0.615 4.254,0.938 -0.315,0.402 -0.668,0.761 -0.978,1.169 -0.237,0.318 -0.43,0.658 -0.666,0.979 1.425,0.289 2.833,0.606 4.241,0.924 -0.298,0.379 -0.633,0.714 -0.925,1.101 -0.263,0.344 -0.465,0.713 -0.72,1.06 1.423,0.287 2.836,0.582 4.241,0.897 -0.287,0.366 -0.602,0.69 -0.884,1.061 -0.27,0.357 -0.484,0.737 -0.747,1.1 1.423,0.287 2.835,0.595 4.241,0.911 -0.269,0.345 -0.58,0.643 -0.843,0.992 -0.29,0.382 -0.521,0.785 -0.802,1.169 1.431,0.287 2.854,0.581 4.268,0.897 -0.263,0.329 -0.547,0.615 -0.802,0.952 -0.305,0.402 -0.546,0.832 -0.843,1.237 1.41,0.281 2.82,0.559 4.214,0.87 -0.237,0.31 -0.511,0.584 -0.748,0.897 -0.315,0.415 -0.562,0.857 -0.87,1.278 1.413,0.279 2.82,0.562 4.214,0.87 -0.237,0.291 -0.483,0.548 -0.707,0.842 -0.331,0.437 -0.589,0.904 -0.91,1.346 1.415,0.279 2.829,0.548 4.227,0.856 -0.21,0.277 -0.453,0.521 -0.666,0.802 -0.345,0.455 -0.615,0.943 -0.952,1.4 1.41,0.276 2.822,0.554 4.214,0.856 -0.21,0.264 -0.428,0.488 -0.625,0.748 -0.358,0.473 -0.645,0.976 -0.992,1.455 1.404,0.273 2.813,0.542 4.2,0.842 -0.184,0.237 -0.4,0.451 -0.585,0.693 -0.376,0.495 -0.67,1.023 -1.033,1.523 1.402,0.27 2.814,0.515 4.2,0.815 -0.158,0.21 -0.359,0.416 -0.53,0.639 -0.395,0.521 -0.706,1.078 -1.088,1.604 1.392,0.269 2.8,0.507 4.173,0.802 -0.158,0.21 -0.334,0.379 -0.489,0.585 -0.405,0.533 -0.723,1.105 -1.114,1.644 1.396,0.268 2.806,0.522 4.186,0.816 -0.132,0.184 -0.298,0.321 -0.435,0.503 -0.421,0.558 -0.764,1.15 -1.169,1.713 1.399,0.266 2.818,0.507 4.2,0.802 -0.131,0.158 -0.279,0.318 -0.408,0.489 -0.431,0.568 -0.767,1.191 -1.182,1.767 1.381,0.263 2.78,0.499 4.146,0.788 -0.106,0.158 -0.238,0.275 -0.354,0.422 -0.447,0.592 -0.808,1.222 -1.237,1.821 1.394,0.264 2.797,0.499 4.173,0.789 -0.105,0.131 -0.209,0.235 -0.299,0.367 -0.463,0.61 -0.833,1.257 -1.278,1.875 1.381,0.263 2.769,0.502 4.132,0.789 -0.08,0.105 -0.179,0.21 -0.258,0.312 -0.476,0.629 -0.863,1.294 -1.319,1.93 1.381,0.263 2.768,0.505 4.133,0.789 -0.06,0.08 -0.139,0.152 -0.218,0.231 -0.492,0.65 -0.888,1.338 -1.359,1.998 1.371,0.263 2.738,0.506 4.092,0.788 -0.06,0.06 -0.1,0.111 -0.123,0.163 -0.51,0.674 -0.938,1.385 -1.427,2.066 1.383,0.263 2.765,0.507 4.132,0.788 -0.03,0.06 -0.07,0.08 -0.1,0.136 -0.521,0.687 -0.944,1.41 -1.441,2.107 1.37,0.263 2.737,0.509 4.091,0.788 -0.02,0.02 -0.03,0.06 -0.06,0.08 -0.533,0.705 -0.957,1.459 -1.468,2.175 1.366,0.236 2.729,0.501 4.078,0.774 -0.547,0.726 -0.999,1.493 -1.522,2.229 1.37,0.237 2.737,0.499 4.091,0.775 -0.55,0.729 -0.996,1.501 -1.522,2.243 1.368,0.237 2.726,0.501 4.078,0.775 -0.548,0.725 -1,1.49 -1.523,2.229 -1.37,-0.237 -2.746,-0.477 -4.132,-0.693 0.516,-0.779 1.019,-1.556 1.563,-2.324 -1.375,-0.237 -2.755,-0.473 -4.145,-0.694 0.518,-0.778 1.032,-1.57 1.576,-2.338 -1.365,-0.236 -2.737,-0.485 -4.118,-0.706 0.513,-0.771 1.024,-1.54 1.563,-2.297 -1.371,-0.237 -2.745,-0.497 -4.132,-0.721 0.515,-0.773 1.021,-1.548 1.563,-2.311 -1.376,-0.263 -2.754,-0.494 -4.146,-0.72 0.516,-0.768 1.024,-1.54 1.563,-2.297 -1.365,-0.263 -2.724,-0.511 -4.105,-0.734 0.513,-0.766 1.024,-1.531 1.564,-2.284 -1.373,-0.263 -2.743,-0.505 -4.133,-0.734 0.516,-0.768 1.022,-1.539 1.564,-2.297 -1.366,-0.263 -2.724,-0.505 -4.105,-0.734 0.513,-0.763 1.01,-1.531 1.549,-2.283 -1.381,-0.263 -2.749,-0.53 -4.145,-0.761 0.51,-0.758 1.012,-1.523 1.549,-2.27 -1.365,-0.263 -2.711,-0.546 -4.091,-0.775 0.51,-0.755 0.999,-1.512 1.536,-2.257 -1.381,-0.263 -2.748,-0.551 -4.146,-0.788 0.51,-0.752 0.999,-1.512 1.536,-2.256 -1.373,-0.263 -2.73,-0.552 -4.119,-0.789 0.511,-0.752 1,-1.514 1.536,-2.256 -1.367,-0.263 -2.721,-0.552 -4.105,-0.788 0.511,-0.753 1,-1.515 1.536,-2.257 -1.375,-0.265 -2.741,-0.549 -4.132,-0.788 0.516,-0.758 1.008,-1.523 1.55,-2.27 -1.376,-0.266 -2.74,-0.546 -4.132,-0.788 0.515,-0.758 1.007,-1.523 1.549,-2.27 -1.378,-0.268 -2.751,-0.544 -4.145,-0.789 0.518,-0.757 1.005,-1.523 1.549,-2.27 -1.383,-0.27 -2.76,-0.543 -4.159,-0.788 0.515,-0.757 1.007,-1.525 1.549,-2.27 -1.373,-0.271 -2.742,-0.543 -4.132,-0.788 0.518,-0.755 0.992,-1.526 1.536,-2.27 -1.37,-0.271 -2.745,-0.542 -4.132,-0.789 0.516,-0.749 0.994,-1.514 1.536,-2.256 -1.384,-0.276 -2.772,-0.552 -4.173,-0.802 0.521,-0.76 1.003,-1.534 1.55,-2.283 -1.376,-0.277 -2.755,-0.539 -4.146,-0.789 0.521,-0.76 1,-1.536 1.549,-2.283 -1.378,-0.279 -2.763,-0.536 -4.159,-0.789 0.521,-0.755 1.003,-1.525 1.55,-2.27 -1.378,-0.279 -2.766,-0.533 -4.16,-0.788 0.527,-0.763 1.011,-1.547 1.564,-2.297 -1.381,-0.281 -2.776,-0.533 -4.173,-0.788 0.526,-0.763 1.011,-1.548 1.563,-2.297 -1.386,-0.284 -2.785,-0.531 -4.187,-0.789 0.524,-0.757 0.998,-1.536 1.55,-2.283 -1.376,-0.284 -2.768,-0.545 -4.159,-0.802 0.526,-0.758 0.997,-1.54 1.549,-2.284 -11.262,-2.33 -23.068,-3.81 -35.272,-4.472 -41.865,-2.27 -90.02,4.271 -143.142,18.037 -0.519,-0.694 -1.038,-1.393 -1.659,-2.011 -0.184,-0.185 -0.406,-0.355 -0.597,-0.544 -0.55,-0.757 -1.124,-1.509 -1.795,-2.175 -0.184,-0.184 -0.406,-0.354 -0.597,-0.543 -0.545,-0.752 -1.105,-1.496 -1.767,-2.161 -0.211,-0.211 -0.451,-0.401 -0.666,-0.612 -0.531,-0.729 -1.082,-1.449 -1.727,-2.093 -0.184,-0.185 -0.378,-0.327 -0.557,-0.503 -0.557,-0.782 -1.149,-1.541 -1.835,-2.23 -0.21,-0.21 -0.442,-0.379 -0.652,-0.584 -0.537,-0.742 -1.082,-1.479 -1.74,-2.134 -0.184,-0.185 -0.397,-0.343 -0.585,-0.531 -0.547,-0.77 -1.129,-1.523 -1.807,-2.202 -0.21,-0.21 -0.442,-0.393 -0.652,-0.597 -0.532,-0.742 -1.099,-1.457 -1.754,-2.107 -0.158,-0.158 -0.359,-0.31 -0.53,-0.476 -0.555,-0.8 -1.165,-1.573 -1.862,-2.27 -0.184,-0.184 -0.396,-0.343 -0.585,-0.53 -0.544,-0.776 -1.132,-1.526 -1.808,-2.202 -0.21,-0.211 -0.45,-0.391 -0.666,-0.598 -0.531,-0.75 -1.096,-1.477 -1.753,-2.134 -0.185,-0.185 -0.387,-0.338 -0.571,-0.517 -0.544,-0.783 -1.135,-1.531 -1.821,-2.215 -0.21,-0.21 -0.431,-0.382 -0.639,-0.585 -0.534,-0.76 -1.113,-1.493 -1.781,-2.161 -0.184,-0.184 -0.406,-0.354 -0.597,-0.543 -0.54,-0.782 -1.143,-1.535 -1.822,-2.216 -0.21,-0.21 -0.453,-0.39 -0.666,-0.598 -0.526,-0.752 -1.093,-1.481 -1.753,-2.134 -0.185,-0.184 -0.398,-0.343 -0.585,-0.53 -0.542,-0.792 -1.146,-1.543 -1.835,-2.229 -0.184,-0.185 -0.414,-0.363 -0.612,-0.558 -0.531,-0.773 -1.131,-1.504 -1.807,-2.174 -0.185,-0.184 -0.407,-0.355 -0.598,-0.544 -0.537,-0.792 -1.138,-1.543 -1.821,-2.229 -0.185,-0.185 -0.407,-0.354 -0.598,-0.544 -0.531,-0.789 -1.14,-1.534 -1.822,-2.215 -0.183,-0.185 -0.412,-0.363 -0.611,-0.558 -0.527,-0.786 -1.135,-1.52 -1.808,-2.202 -0.21,-0.21 -0.47,-0.407 -0.693,-0.625 -0.519,-0.758 -1.094,-1.482 -1.754,-2.134 -0.184,-0.184 -0.406,-0.355 -0.598,-0.544 -0.528,-0.799 -1.134,-1.551 -1.821,-2.243 -0.21,-0.21 -0.442,-0.379 -0.652,-0.584 -0.521,-0.779 -1.124,-1.504 -1.794,-2.175 -0.21,-0.21 -0.459,-0.396 -0.68,-0.612 l -0.01,-0.01 c -0.513,-0.765 -1.093,-1.49 -1.754,-2.147 -0.21,-0.21 -0.453,-0.391 -0.666,-0.598 -0.518,-0.781 -1.107,-1.515 -1.78,-2.188 -0.21,-0.211 -0.459,-0.399 -0.68,-0.612 -0.513,-0.773 -1.102,-1.509 -1.767,-2.175 -0.237,-0.236 -0.478,-0.415 -0.707,-0.639 -0.505,-0.765 -1.082,-1.49 -1.74,-2.147 -0.236,-0.237 -0.478,-0.416 -0.707,-0.639 -0.505,-0.766 -1.082,-1.49 -1.739,-2.148 -0.237,-0.236 -0.498,-0.435 -0.734,-0.666 -0.497,-0.757 -1.066,-1.468 -1.713,-2.12 -0.237,-0.237 -0.498,-0.435 -0.734,-0.666 -0.497,-0.763 -1.063,-1.468 -1.713,-2.121 -0.263,-0.263 -0.541,-0.467 -0.802,-0.72 -0.483,-0.736 -1.038,-1.446 -1.672,-2.08 -0.236,-0.236 -0.521,-0.462 -0.774,-0.706 -0.482,-0.742 -1.038,-1.449 -1.672,-2.08 -0.263,-0.263 -0.53,-0.471 -0.788,-0.72 -0.485,-0.747 -1.047,-1.455 -1.686,-2.094 -0.263,-0.263 -0.553,-0.478 -0.816,-0.734 -0.478,-0.741 -1.01,-1.443 -1.644,-2.079 -0.274,-0.274 -0.581,-0.507 -0.856,-0.775 -0.469,-0.716 -1,-1.399 -1.618,-2.012 -0.274,-0.273 -0.58,-0.506 -0.856,-0.775 -0.469,-0.726 -0.997,-1.418 -1.618,-2.038 -0.273,-0.274 -0.577,-0.507 -0.856,-0.775 -0.469,-0.729 -0.997,-1.418 -1.618,-2.039 -0.279,-0.279 -0.588,-0.515 -0.87,-0.788 -0.462,-0.726 -0.98,-1.41 -1.603,-2.026 -0.287,-0.286 -0.606,-0.534 -0.898,-0.815 -0.455,-0.721 -0.969,-1.41 -1.576,-2.026 -0.297,-0.297 -0.625,-0.553 -0.925,-0.842 -0.449,-0.708 -0.971,-1.374 -1.576,-1.971 -0.287,-0.287 -0.606,-0.535 -0.897,-0.816 -0.453,-0.715 -0.97,-1.39 -1.577,-1.998 -0.3,-0.3 -0.631,-0.559 -0.938,-0.856 -0.445,-0.71 -0.963,-1.385 -1.563,-1.985 -0.292,-0.292 -0.616,-0.542 -0.911,-0.829 -0.445,-0.72 -0.942,-1.401 -1.549,-2.011 -0.321,-0.321 -0.682,-0.595 -1.006,-0.911 -0.429,-0.684 -0.914,-1.324 -1.495,-1.903 -0.324,-0.324 -0.691,-0.592 -1.02,-0.911 -0.429,-0.689 -0.903,-1.349 -1.481,-1.93 -0.321,-0.321 -0.68,-0.595 -1.006,-0.911 -0.429,-0.689 -0.914,-1.346 -1.495,-1.93 -0.324,-0.323 -0.68,-0.609 -1.006,-0.924 -0.424,-0.686 -0.917,-1.335 -1.495,-1.917 -0.327,-0.326 -0.691,-0.606 -1.02,-0.924 -0.421,-0.694 -0.884,-1.36 -1.468,-1.944 -0.342,-0.341 -0.726,-0.628 -1.074,-0.965 -0.412,-0.668 -0.875,-1.31 -1.44,-1.875 -0.334,-0.334 -0.721,-0.612 -1.061,-0.938 -0.412,-0.689 -0.873,-1.349 -1.454,-1.93 -0.352,-0.35 -0.743,-0.65 -1.101,-0.993 -0.4,-0.66 -0.848,-1.293 -1.4,-1.848 -0.361,-0.361 -0.763,-0.667 -1.128,-1.02 -0.398,-0.662 -0.848,-1.293 -1.4,-1.848 -0.355,-0.355 -0.752,-0.659 -1.115,-1.006 -0.397,-0.668 -0.842,-1.305 -1.4,-1.862 -0.362,-0.363 -0.76,-0.678 -1.128,-1.033 -0.387,-0.655 -0.831,-1.285 -1.373,-1.835 -0.505,-0.503 -1.058,-0.938 -1.577,-1.427 -0.32,-0.482 -0.538,-1.02 -0.951,-1.441 -0.492,-0.489 -1.034,-0.911 -1.536,-1.387 -0.329,-0.497 -0.567,-1.055 -0.992,-1.481 -0.495,-0.495 -1.045,-0.922 -1.55,-1.4 -0.323,-0.492 -0.555,-1.045 -0.979,-1.468 -0.494,-0.495 -1.041,-0.922 -1.549,-1.4 -0.326,-0.503 -0.564,-1.056 -0.992,-1.482 -0.495,-0.495 -1.045,-0.921 -1.55,-1.4 -0.321,-0.497 -0.55,-1.039 -0.978,-1.468 -0.49,-0.486 -1.023,-0.913 -1.523,-1.386 -0.321,-0.516 -0.561,-1.067 -0.992,-1.509 -0.505,-0.502 -1.061,-0.938 -1.577,-1.427 -0.316,-0.492 -0.56,-1.023 -0.978,-1.441 -0.479,-0.479 -1.009,-0.894 -1.496,-1.359 -0.32,-0.529 -0.574,-1.092 -1.019,-1.536 -0.5,-0.5 -1.053,-0.93 -1.563,-1.414 -0.313,-0.507 -0.561,-1.053 -0.992,-1.481 -0.49,-0.49 -1.034,-0.911 -1.536,-1.387 -0.316,-0.52 -0.578,-1.075 -1.02,-1.509 -0.492,-0.492 -1.033,-0.91 -1.536,-1.386 -0.313,-0.526 -0.575,-1.091 -1.019,-1.536 -0.5,-0.5 -1.053,-0.93 -1.563,-1.414 -0.303,-0.51 -0.556,-1.044 -0.979,-1.468 -0.497,-0.496 -1.042,-0.929 -1.55,-1.413 -0.302,-0.518 -0.572,-1.05 -1.005,-1.482 -0.487,-0.486 -1.023,-0.913 -1.523,-1.386 -0.302,-0.54 -0.583,-1.089 -1.033,-1.536 -0.486,-0.487 -1.025,-0.9 -1.522,-1.373 -0.3,-0.544 -0.578,-1.097 -1.02,-1.55 -0.52,-0.518 -1.099,-0.965 -1.631,-1.468 -0.286,-0.496 -0.541,-1.016 -0.951,-1.427 -0.487,-0.489 -1.023,-0.913 -1.522,-1.386 -0.29,-0.544 -0.589,-1.092 -1.033,-1.536 -0.506,-0.505 -1.064,-0.935 -1.577,-1.427 -0.284,-0.526 -0.561,-1.05 -0.992,-1.482 -0.5,-0.5 -1.053,-0.93 -1.564,-1.413 -0.281,-0.54 -0.58,-1.078 -1.019,-1.509 -0.484,-0.484 -1.014,-0.902 -1.509,-1.373 -0.276,-0.568 -0.597,-1.117 -1.046,-1.577 -0.508,-0.507 -1.07,-0.946 -1.591,-1.441 -0.266,-0.529 -0.552,-1.058 -0.978,-1.481 -0.508,-0.51 -1.07,-0.947 -1.591,-1.441 -0.263,-0.531 -0.563,-1.039 -0.992,-1.468 -0.5,-0.5 -1.053,-0.93 -1.563,-1.414 -0.263,-0.56 -0.585,-1.088 -1.019,-1.536 -0.511,-0.507 -1.07,-0.946 -1.591,-1.44 -0.263,-0.545 -0.566,-1.07 -1.006,-1.509 -0.497,-0.497 -1.055,-0.93 -1.563,-1.414 -0.236,-0.557 -0.582,-1.086 -1.019,-1.536 -0.508,-0.508 -1.07,-0.946 -1.591,-1.44 -0.236,-0.545 -0.566,-1.04 -0.992,-1.468 -0.513,-0.513 -1.078,-0.971 -1.604,-1.468 -0.236,-0.553 -0.558,-1.061 -0.992,-1.482 -0.516,-0.518 -1.089,-0.966 -1.617,-1.468 -0.237,-0.553 -0.559,-1.072 -0.993,-1.509 -0.526,-0.523 -1.108,-0.974 -1.644,-1.481 -0.211,-0.545 -0.509,-1.05 -0.925,-1.468 -0.544,-0.545 -1.155,-1.008 -1.712,-1.536 -0.211,-0.521 -0.492,-0.998 -0.897,-1.4 -0.553,-0.553 -1.161,-1.029 -1.727,-1.563 -0.184,-0.521 -0.481,-1.014 -0.883,-1.414 -0.56,-0.56 -1.178,-1.046 -1.754,-1.59 -0.184,-0.508 -0.448,-0.978 -0.842,-1.36 -0.579,-0.579 -1.216,-1.084 -1.808,-1.644 -0.185,-0.49 -0.431,-0.948 -0.802,-1.319 -0.587,-0.586 -1.233,-1.09 -1.835,-1.658 -0.158,-0.489 -0.393,-0.95 -0.761,-1.318 -0.605,-0.605 -1.271,-1.129 -1.89,-1.713 -0.158,-0.466 -0.392,-0.907 -0.747,-1.264 -0.605,-0.605 -1.271,-1.129 -1.89,-1.713 -0.158,-0.471 -0.362,-0.906 -0.706,-1.25 -0.624,-0.624 -1.316,-1.165 -1.958,-1.767 -0.131,-0.448 -0.33,-0.876 -0.68,-1.21 -0.623,-0.624 -1.304,-1.165 -1.943,-1.767 -0.132,-0.458 -0.313,-0.898 -0.653,-1.237 -0.647,-0.647 -1.36,-1.209 -2.025,-1.835 -0.105,-0.421 -0.294,-0.81 -0.612,-1.128 -0.652,-0.652 -1.371,-1.22 -2.039,-1.849 -0.105,-0.428 -0.264,-0.834 -0.584,-1.155 -0.669,-0.668 -1.407,-1.248 -2.094,-1.89 -0.08,-0.402 -0.236,-0.795 -0.543,-1.087 -0.584,-0.584 -1.225,-1.079 -1.822,-1.645 -0.131,-0.158 -0.306,-0.32 -0.449,-0.489 -0.105,-0.297 -0.132,-0.619 -0.353,-0.843 -0.507,-0.507 -1.07,-0.946 -1.59,-1.44 -0.237,-0.287 -0.495,-0.559 -0.734,-0.843 -0.08,-0.263 -0.106,-0.523 -0.313,-0.721 -0.479,-0.478 -1.006,-0.891 -1.495,-1.359 -0.287,-0.353 -0.606,-0.683 -0.897,-1.033 -0.08,-0.21 -0.07,-0.438 -0.231,-0.598 -0.418,-0.415 -0.882,-0.774 -1.305,-1.182 -0.379,-0.471 -0.78,-0.924 -1.169,-1.387 -0.08,-0.131 -0.08,-0.324 -0.191,-0.435 -0.35,-0.35 -0.743,-0.648 -1.101,-0.992 l -0.06,-0.06 c -0.445,-0.555 -0.902,-1.101 -1.36,-1.645 -0.06,-0.105 -0.04,-0.237 -0.122,-0.313 -0.271,-0.27 -0.594,-0.495 -0.87,-0.761 -0.105,-0.131 -0.211,-0.237 -0.326,-0.353 -0.453,-0.568 -0.905,-1.139 -1.373,-1.699 -0.06,-0.06 -0.01,-0.151 -0.07,-0.204 -0.184,-0.185 -0.406,-0.368 -0.598,-0.558 -0.236,-0.27 -0.483,-0.531 -0.72,-0.802 -0.424,-0.531 -0.855,-1.042 -1.291,-1.563 -0.02,-0.02 -0.02,-0.05 -0.06,-0.08 -0.08,-0.08 -0.166,-0.139 -0.245,-0.217 -0.326,-0.387 -0.685,-0.747 -1.019,-1.128 -0.879,-1.103 -1.826,-2.147 -2.76,-3.208 -0.852,-1.066 -1.762,-2.083 -2.664,-3.113 -2.057,-2.58 -4.238,-5.091 -6.592,-7.449 h -0.03 c -16.702,-16.728 -39.394,-26.111 -63.014,-26.111 z m -65.19,121.422 c 0.105,1.675 0.186,3.353 0.367,5.002 -0.634,0.56 -1.274,1.098 -1.903,1.671 -0.263,-1.554 -0.538,-3.107 -0.72,-4.689 0.752,-0.666 1.499,-1.332 2.256,-1.984 z m 2.651,3.003 c 0.105,1.673 0.183,3.343 0.381,4.989 -0.645,0.568 -1.291,1.117 -1.931,1.699 -0.265,-1.555 -0.538,-3.108 -0.72,-4.689 0.755,-0.671 1.507,-1.343 2.27,-1.999 z m 2.637,3.018 c 0.105,1.67 0.186,3.345 0.367,4.988 -0.634,0.561 -1.272,1.098 -1.903,1.672 -0.266,-1.554 -0.526,-3.107 -0.707,-4.689 0.747,-0.661 1.49,-1.326 2.243,-1.971 z m 2.637,3.004 c 0.105,1.667 0.186,3.335 0.367,4.975 -0.637,0.563 -1.283,1.095 -1.917,1.672 -0.263,-1.547 -0.525,-3.09 -0.707,-4.663 0.753,-0.666 1.499,-1.334 2.257,-1.984 z m 2.623,3.004 c 0.105,1.662 0.183,3.326 0.381,4.961 -0.634,0.56 -1.274,1.101 -1.903,1.672 -0.263,-1.547 -0.539,-3.09 -0.721,-4.662 0.748,-0.661 1.488,-1.326 2.243,-1.971 z m 2.637,2.99 c 0.06,0.879 0.06,1.768 0.136,2.637 -0.676,0.597 -1.333,1.089 -2.012,1.713 -0.105,-0.797 -0.275,-1.577 -0.367,-2.379 0.747,-0.66 1.491,-1.329 2.243,-1.971 z m 629.602,261.288 c 1.36,0.236 2.708,0.495 4.051,0.761 -0.542,0.72 -0.991,1.482 -1.509,2.216 -1.362,-0.237 -2.739,-0.465 -4.118,-0.68 0.513,-0.773 1.037,-1.535 1.576,-2.297 z m 2.542,2.99 c 1.36,0.237 2.707,0.507 4.051,0.775 -0.545,0.726 -1.002,1.482 -1.523,2.216 -1.362,-0.237 -2.74,-0.454 -4.118,-0.666 0.516,-0.781 1.045,-1.554 1.59,-2.325 z m 2.528,3.004 c 1.376,0.237 2.733,0.507 4.092,0.775 -0.548,0.728 -1.016,1.49 -1.536,2.229 -1.376,-0.237 -2.769,-0.453 -4.16,-0.666 0.519,-0.786 1.057,-1.565 1.604,-2.338 z m 2.556,3.018 c 1.367,0.236 2.713,0.511 4.064,0.774 -0.537,0.718 -0.996,1.46 -1.509,2.189 -1.37,-0.237 -2.761,-0.439 -4.146,-0.652 0.514,-0.778 1.049,-1.543 1.591,-2.311 z m 2.555,2.976 c 1.357,0.237 2.695,0.515 4.037,0.775 -0.542,0.726 -1.007,1.479 -1.522,2.216 -1.36,-0.237 -2.743,-0.429 -4.119,-0.639 0.519,-0.791 1.057,-1.573 1.604,-2.352 z m 2.515,3.004 c 1.37,0.237 2.71,0.512 4.064,0.775 -0.542,0.726 -1.007,1.479 -1.522,2.216 -1.368,-0.237 -2.762,-0.431 -4.146,-0.639 0.518,-0.791 1.056,-1.574 1.604,-2.352 z m 2.542,3.004 c 1.365,0.237 2.701,0.503 4.05,0.761 -0.536,0.721 -0.996,1.471 -1.509,2.202 -1.367,-0.236 -2.763,-0.417 -4.145,-0.625 0.516,-0.788 1.059,-1.559 1.604,-2.338 z m 2.541,2.977 c 1.365,0.237 2.701,0.514 4.051,0.775 -0.535,0.715 -0.99,1.462 -1.495,2.188 -1.373,-0.236 -2.772,-0.403 -4.16,-0.612 0.517,-0.791 1.057,-1.57 1.604,-2.351 z m 2.556,2.977 c 1.36,0.236 2.692,0.506 4.037,0.761 -0.538,0.72 -0.996,1.471 -1.509,2.202 -1.365,-0.237 -2.764,-0.407 -4.146,-0.612 0.519,-0.794 1.07,-1.571 1.618,-2.351 z m 2.528,2.976 c 1.36,0.237 2.68,0.52 4.023,0.775 -0.539,0.726 -1.009,1.48 -1.522,2.216 -1.357,-0.237 -2.746,-0.409 -4.119,-0.612 0.522,-0.799 1.068,-1.593 1.618,-2.379 z m 2.501,3.004 c 1.365,0.237 2.701,0.493 4.05,0.748 -0.539,0.726 -1.009,1.479 -1.522,2.216 -1.365,-0.237 -2.752,-0.41 -4.132,-0.612 0.516,-0.791 1.059,-1.571 1.604,-2.352 z m 2.528,2.977 c 1.355,0.237 2.685,0.498 4.023,0.748 -0.539,0.731 -1.009,1.487 -1.522,2.229 -1.36,-0.237 -2.743,-0.412 -4.118,-0.612 0.518,-0.796 1.07,-1.579 1.617,-2.365 z m 2.501,2.991 c 1.357,0.236 2.695,0.484 4.037,0.733 -0.573,0.779 -1.073,1.576 -1.617,2.366 1.367,0.236 2.738,0.457 4.091,0.706 -0.545,0.742 -1.031,1.505 -1.55,2.257 -1.37,-0.21 -2.706,-0.496 -4.091,-0.693 0.495,-0.766 1.029,-1.515 1.55,-2.27 -1.366,-0.211 -2.699,-0.494 -4.078,-0.694 0.527,-0.814 1.1,-1.604 1.658,-2.405 z m 4.961,6.075 c 1.155,0.185 2.31,0.38 3.453,0.585 0,0.331 0,0.65 0,0.978 -0.329,0.46 -0.631,0.935 -0.952,1.4 0.318,0.06 0.634,0.111 0.952,0.163 0,0.845 0.02,1.682 0,2.529 -0.842,-0.132 -1.654,-0.303 -2.501,-0.422 0.492,-0.765 1.031,-1.515 1.549,-2.27 -1.362,-0.21 -2.687,-0.498 -4.064,-0.693 0.495,-0.767 1.042,-1.513 1.563,-2.27 z m 96.779,118.69 c 0,0.08 0,0.179 -0.01,0.258 -0.06,0 -0.08,0 -0.136,-0.01 0.06,-0.08 0.08,-0.153 0.136,-0.231 z m 2.582,2.541 c 0,0.211 -0.02,0.401 -0.03,0.598 -0.105,0 -0.183,-0.02 -0.285,-0.03 0.105,-0.184 0.21,-0.384 0.312,-0.57 z m 2.542,2.556 0.01,0.01 c 0,0.297 -0.03,0.6 -0.06,0.897 -0.131,-0.01 -0.282,-0.03 -0.421,-0.06 0.158,-0.281 0.291,-0.575 0.462,-0.856 z m 2.583,2.555 c -0.01,0.4 -0.06,0.807 -0.06,1.21 -0.184,-0.02 -0.382,-0.03 -0.571,-0.06 0.237,-0.378 0.394,-0.779 0.626,-1.155 z m 2.528,2.651 c -0.01,0.473 -0.06,0.951 -0.06,1.427 -0.237,-0.02 -0.47,-0.06 -0.707,-0.08 0.264,-0.446 0.494,-0.901 0.761,-1.345 z m 2.541,2.895 h 0.01 c -0.01,0.46 -0.03,0.923 -0.06,1.386 l -0.884,-0.08 c 0.237,-0.392 0.402,-0.804 0.639,-1.196 0.105,-0.06 0.183,-0.08 0.285,-0.109 z m 2.542,2.909 v 0.01 c 0,0.439 -0.01,0.879 -0.03,1.318 -0.339,-0.03 -0.677,-0.06 -1.019,-0.109 0.184,-0.336 0.355,-0.682 0.558,-1.019 0.157,-0.08 0.329,-0.125 0.489,-0.204 z m 2.515,2.922 c 0,0.421 -0.01,0.841 -0.03,1.264 -0.384,-0.03 -0.771,-0.08 -1.155,-0.108 0.158,-0.282 0.293,-0.575 0.462,-0.857 0.236,-0.105 0.483,-0.183 0.72,-0.299 z m 2.542,2.882 v 0.01 c 0,0.407 -0.01,0.813 -0.03,1.223 -0.434,-0.06 -0.868,-0.08 -1.305,-0.136 0.132,-0.236 0.263,-0.484 0.394,-0.72 0.31,-0.132 0.63,-0.236 0.938,-0.381 z m 2.528,2.908 c 0,0.387 0,0.769 -0.01,1.156 -0.479,-0.06 -0.96,-0.11 -1.441,-0.136 0.105,-0.184 0.183,-0.365 0.299,-0.543 0.382,-0.158 0.777,-0.308 1.156,-0.477 z m 2.528,2.882 0.01,0.01 c 0,0.374 0,0.741 0,1.115 -0.539,-0.06 -1.076,-0.111 -1.618,-0.163 0.08,-0.132 0.126,-0.263 0.204,-0.394 0.463,-0.185 0.94,-0.366 1.4,-0.571 z m 2.501,2.922 h 0.01 c 0,0.35 0,0.694 0,1.047 -0.578,-0.06 -1.158,-0.111 -1.74,-0.163 0.06,-0.08 0.07,-0.152 0.123,-0.231 0.531,-0.237 1.078,-0.418 1.604,-0.652 z m 2.528,2.909 c 0,0.324 0,0.642 0,0.965 -0.62,-0.06 -1.239,-0.11 -1.862,-0.163 0.01,-0.02 0.03,-0.04 0.06,-0.07 0.601,-0.261 1.211,-0.471 1.808,-0.734 z m 2.528,2.882 c 0,0.305 0,0.605 0,0.91 -0.62,-0.05 -1.238,-0.11 -1.862,-0.162 0.618,-0.263 1.252,-0.477 1.862,-0.748 z m 2.515,2.881 v 0.01 c 0,0.281 0,0.561 0,0.843 -0.571,-0.06 -1.139,-0.111 -1.713,-0.163 0.568,-0.237 1.15,-0.443 1.713,-0.693 z m 2.515,2.868 v 0.01 c 0,0.274 0,0.542 0,0.816 -0.547,-0.06 -1.095,-0.111 -1.645,-0.163 0.544,-0.237 1.105,-0.427 1.645,-0.666 z m 2.501,2.909 c 0,0.263 0,0.498 0,0.748 -0.508,-0.06 -1.012,-0.11 -1.523,-0.136 0.506,-0.21 1.023,-0.388 1.523,-0.612 z m 2.514,2.855 v 0.01 c 0,0.237 0,0.454 0,0.68 -0.455,-0.06 -0.904,-0.08 -1.359,-0.135 0.45,-0.185 0.912,-0.358 1.359,-0.558 z m 2.501,2.895 c 0,0.21 0,0.414 0,0.625 -0.421,-0.03 -0.84,-0.08 -1.264,-0.109 0.418,-0.184 0.846,-0.333 1.264,-0.516 z m -2.569,0.05 h 0.01 c 0,0 0,0.02 -0.01,0.03 0,0.1 0,0.219 -0.01,0.313 -0.06,0 -0.11,0 -0.162,-0.01 0.05,-0.1 0.107,-0.194 0.176,-0.299 10e-4,0 0,-0.02 0,-0.03 z m 2.528,2.556 c 0,0.21 -0.02,0.401 -0.03,0.598 -0.105,0 -0.186,-0.02 -0.286,-0.03 0.105,-0.185 0.21,-0.382 0.313,-0.571 z m 2.529,0.272 v 0.01 c 0,0.184 0,0.36 0,0.543 -0.368,-0.03 -0.747,-0.05 -1.115,-0.108 0.366,-0.158 0.752,-0.291 1.115,-0.448 z m -0.04,2.202 0.01,0.01 c 0,0.31 -0.03,0.625 -0.06,0.938 -0.158,-0.01 -0.29,-0.03 -0.435,-0.06 0.158,-0.295 0.305,-0.603 0.476,-0.897 z m 2.542,0.666 v 0.01 c 0,0.158 0,0.321 0,0.489 -0.345,-0.03 -0.687,-0.07 -1.033,-0.09 0.339,-0.158 0.693,-0.263 1.033,-0.408 z m -0.01,1.835 h 0.01 c -0.01,0.412 -0.06,0.837 -0.08,1.25 -0.184,-0.01 -0.387,-0.06 -0.584,-0.06 0.236,-0.398 0.421,-0.802 0.652,-1.197 z m 2.514,1.019 c 0,0.158 0,0.307 0,0.462 -0.318,-0.03 -0.633,-0.06 -0.951,-0.08 0.313,-0.132 0.638,-0.236 0.951,-0.381 z m 0,1.482 c -0.01,0.515 -0.03,1.034 -0.06,1.549 -0.263,-0.02 -0.498,-0.04 -0.748,-0.07 0.276,-0.492 0.515,-0.995 0.802,-1.482 z m 2.488,1.373 c 0,0.131 0,0.262 0,0.393 -0.263,-0.02 -0.523,-0.04 -0.789,-0.07 0.263,-0.105 0.529,-0.21 0.789,-0.327 z m 0,1.155 c -0.01,0.605 -0.02,1.214 -0.06,1.821 -0.303,-0.02 -0.594,-0.06 -0.897,-0.08 0.324,-0.576 0.599,-1.158 0.938,-1.726 z m 2.487,1.726 c 0,0.101 0,0.202 0,0.313 -0.21,-0.02 -0.434,-0.03 -0.652,-0.06 0.21,-0.105 0.437,-0.171 0.652,-0.258 z m -0.01,0.816 h 0.01 c -0.01,0.697 -0.02,1.391 -0.06,2.093 -0.353,-0.03 -0.694,-0.07 -1.047,-0.1 0.374,-0.663 0.695,-1.341 1.087,-1.998 z m 2.501,2.052 c 0,0.08 0,0.176 0,0.258 -0.184,-0.01 -0.37,-0.05 -0.557,-0.05 0.184,-0.08 0.376,-0.126 0.557,-0.204 z m 0,0.476 c -0.01,0.785 0,1.565 -0.03,2.352 -0.397,-0.03 -0.782,-0.07 -1.182,-0.1 0.421,-0.747 0.765,-1.517 1.21,-2.256 z m 2.488,2.324 v 0.03 c 0,0.06 0,0.08 0,0.136 -0.01,0.02 -0.02,0.05 -0.04,0.07 -0.132,-0.01 -0.262,-0.03 -0.394,-0.06 0.132,-0.06 0.293,-0.1 0.435,-0.177 z m -0.06,0.245 c 0.01,0 0.03,0 0.06,0 -0.01,0.863 0,1.718 -0.03,2.583 -0.453,-0.03 -0.891,-0.11 -1.346,-0.136 0.455,-0.81 0.839,-1.646 1.319,-2.446 z m 2.419,2.678 c -0.02,0.03 -0.03,0.08 -0.06,0.109 0.06,0 0.1,0 0.177,0.01 0,0.852 0.01,1.698 -0.01,2.555 -0.497,-0.03 -0.969,-0.11 -1.468,-0.136 0.452,-0.807 0.826,-1.636 1.305,-2.433 -0.06,0 -0.1,0 -0.15,-0.01 0.08,-0.03 0.151,-0.04 0.204,-0.1 z m 2.379,2.895 c 0.08,0 0.151,0 0.204,0.01 0,0.86 0,1.704 -0.01,2.569 -0.555,-0.06 -1.09,-0.1 -1.645,-0.149 0.442,-0.789 0.823,-1.6 1.292,-2.379 0.05,-0.02 0.11,-0.03 0.163,-0.06 z m 2.596,2.787 c 0.03,0 0.04,0.01 0.1,0.01 0,0.86 0.02,1.703 0,2.569 -0.608,-0.06 -1.184,-0.124 -1.795,-0.15 0.408,-0.731 0.765,-1.479 1.197,-2.202 0.184,-0.08 0.347,-0.138 0.516,-0.217 z m 2.583,2.813 c 0,0.85 0.02,1.69 0,2.542 -0.655,-0.06 -1.286,-0.124 -1.944,-0.177 0.374,-0.673 0.707,-1.359 1.101,-2.025 0.279,-0.131 0.567,-0.211 0.843,-0.339 z m 2.447,2.882 c 0,0.816 0.02,1.628 0,2.447 -0.689,-0.06 -1.359,-0.151 -2.053,-0.177 0.342,-0.615 0.651,-1.238 1.006,-1.849 0.344,-0.158 0.702,-0.271 1.047,-0.421 z m 2.487,2.786 c 0,0.813 0.02,1.616 0,2.434 -0.747,-0.06 -1.466,-0.151 -2.216,-0.204 0.314,-0.566 0.599,-1.139 0.925,-1.7 0.428,-0.183 0.865,-0.34 1.291,-0.53 z m 2.46,2.868 c 0,0.776 0.01,1.544 0,2.325 -0.802,-0.06 -1.574,-0.151 -2.379,-0.204 0.274,-0.497 0.532,-1.003 0.816,-1.495 0.518,-0.21 1.05,-0.399 1.563,-0.625 z m 2.474,2.801 c 0,0.77 0.01,1.534 0,2.31 -0.852,-0.05 -1.671,-0.179 -2.528,-0.231 0.236,-0.447 0.479,-0.898 0.734,-1.345 0.6,-0.237 1.202,-0.474 1.794,-0.734 z m 2.46,2.827 c 0,0.744 0.01,1.482 0,2.229 -0.86,-0.06 -1.69,-0.178 -2.555,-0.231 0,-0.06 0.01,-0.138 0.01,-0.19 0.184,-0.334 0.354,-0.674 0.543,-1.006 0.666,-0.273 1.341,-0.513 1.998,-0.802 z m 2.447,2.827 c 0,0.726 0.01,1.446 0,2.175 -0.858,-0.06 -1.682,-0.179 -2.542,-0.231 0,-0.184 0.03,-0.362 0.06,-0.544 0.105,-0.158 0.185,-0.348 0.272,-0.516 0.738,-0.299 1.488,-0.565 2.215,-0.884 z m 2.474,2.814 c 0,0.702 -10e-4,1.402 -0.01,2.106 -0.837,-0.06 -1.643,-0.151 -2.488,-0.203 l -0.06,-0.06 c 0,-0.263 0.03,-0.517 0.06,-0.775 0.01,-0.02 0.01,-0.06 0.03,-0.08 0.823,-0.332 1.659,-0.637 2.474,-0.993 z m 2.446,2.827 c 0,0.676 0,1.347 -0.01,2.025 -0.807,-0.06 -1.582,-0.151 -2.392,-0.204 l -0.136,-0.135 c 0,-0.237 0.03,-0.473 0.06,-0.707 -0.08,0.03 -0.151,0.06 -0.204,0.08 0.08,-0.131 0.153,-0.293 0.231,-0.435 0,0.105 0,0.238 -0.01,0.354 0.823,-0.332 1.661,-0.625 2.474,-0.979 z m 2.447,2.814 c 0,0.662 0.01,1.319 0,1.984 -0.773,-0.06 -1.519,-0.151 -2.297,-0.204 l -0.217,-0.217 c 0,-0.184 0.02,-0.373 0.03,-0.557 -0.158,0.06 -0.299,0.137 -0.449,0.19 l -0.01,-0.01 c 0.158,-0.303 0.318,-0.611 0.49,-0.911 0,0.237 -0.02,0.489 -0.03,0.734 0.831,-0.334 1.667,-0.648 2.487,-1.006 z m 0,2.718 c 0,0.368 0,0.733 -0.01,1.101 0.821,-0.329 1.653,-0.64 2.46,-0.992 -10e-4,0.634 0,1.277 0,1.916 -0.739,-0.06 -1.446,-0.164 -2.188,-0.19 l -0.299,-0.299 c 0,-0.132 0.02,-0.282 0.03,-0.422 -0.105,0.06 -0.21,0.11 -0.326,0.136 -0.08,-0.08 -0.165,-0.138 -0.217,-0.217 0.184,-0.342 0.362,-0.691 0.557,-1.033 z m 2.447,2.474 c 0,0.476 0,0.948 -0.01,1.427 0.82,-0.328 1.652,-0.64 2.46,-0.992 -10e-4,0.615 0,1.23 0,1.848 -0.697,-0.06 -1.364,-0.124 -2.066,-0.176 l -0.408,-0.408 c 0,-0.08 0.01,-0.185 0.01,-0.272 -0.08,0.03 -0.165,0.05 -0.217,0.08 -0.132,-0.131 -0.265,-0.237 -0.394,-0.353 0.21,-0.385 0.404,-0.774 0.626,-1.156 z m 2.446,2.474 c 0,0.589 0.01,1.172 0,1.767 0.81,-0.327 1.634,-0.629 2.433,-0.979 0,0.566 0,1.131 0,1.699 0,0.02 -0.01,0.03 -0.03,0.06 0,0 0.02,0 0.03,0 0,0.668 0.02,1.341 0,2.011 -0.184,-0.184 -0.387,-0.329 -0.57,-0.503 -0.06,-0.08 -0.111,-0.125 -0.163,-0.204 0.236,-0.434 0.457,-0.876 0.707,-1.305 -0.655,-0.06 -1.284,-0.137 -1.944,-0.19 -0.158,-0.158 -0.318,-0.304 -0.476,-0.462 0,-0.06 0.01,-0.07 0.01,-0.123 -0.03,0.01 -0.08,0.01 -0.109,0.04 -0.184,-0.158 -0.367,-0.31 -0.543,-0.476 -0.01,-0.02 -0.03,-0.01 -0.06,-0.04 0.237,-0.423 0.462,-0.87 0.707,-1.291 z m 4.88,3.574 h 0.01 c 0,0.45 0,0.894 -0.01,1.346 -0.08,0.105 -0.138,0.238 -0.19,0.354 0.06,0 0.138,0 0.19,0.01 0,0.647 0.01,1.28 0,1.93 -0.158,-0.158 -0.354,-0.313 -0.53,-0.476 -0.08,-0.105 -0.186,-0.211 -0.273,-0.327 0.211,-0.378 0.396,-0.765 0.612,-1.142 -0.568,-0.03 -1.125,-0.1 -1.699,-0.149 l -0.557,-0.558 c 0.818,-0.328 1.642,-0.642 2.446,-0.992 z m 2.433,2.787 0.01,0.01 c 0,0.326 -0.01,0.653 -0.01,0.978 -0.132,0.211 -0.211,0.429 -0.34,0.639 0.105,0 0.238,0.02 0.34,0.03 0,0.618 0.01,1.228 0,1.849 -0.132,-0.132 -0.265,-0.238 -0.394,-0.354 -0.158,-0.184 -0.304,-0.373 -0.462,-0.557 0.184,-0.318 0.335,-0.647 0.516,-0.965 -0.481,-0.03 -0.956,-0.1 -1.44,-0.123 l -0.544,-0.543 c 0.779,-0.314 1.556,-0.629 2.324,-0.965 z m 2.433,2.827 c 0,0.232 0,0.453 0,0.68 -0.158,0.284 -0.296,0.583 -0.462,0.87 0.158,0 0.304,0.03 0.462,0.06 0,0.581 0.01,1.158 0,1.739 -0.105,-0.105 -0.237,-0.21 -0.354,-0.312 -0.184,-0.21 -0.357,-0.45 -0.543,-0.666 0.158,-0.266 0.285,-0.537 0.435,-0.802 -0.405,-0.03 -0.789,-0.08 -1.196,-0.109 l -0.558,-0.557 c 0.74,-0.3 1.487,-0.579 2.216,-0.897 z m 2.447,2.773 c 0,0.105 0,0.183 0,0.285 -0.237,0.392 -0.426,0.802 -0.652,1.196 0.21,0.01 0.423,0.06 0.638,0.06 0,0.55 0.01,1.095 0,1.645 -0.105,-0.105 -0.21,-0.183 -0.312,-0.286 -0.21,-0.268 -0.44,-0.53 -0.666,-0.788 0.105,-0.21 0.211,-0.418 0.34,-0.626 -0.314,-0.02 -0.611,-0.06 -0.925,-0.08 -0.184,-0.184 -0.351,-0.365 -0.53,-0.544 0.705,-0.283 1.412,-0.551 2.107,-0.856 z m 2.419,2.786 v 0.01 c -0.276,0.46 -0.495,0.937 -0.761,1.4 0.263,0.01 0.506,0.06 0.761,0.08 0,0.52 0,1.039 0,1.563 l -0.163,-0.163 c -0.276,-0.344 -0.55,-0.693 -0.842,-1.019 0.08,-0.158 0.165,-0.31 0.244,-0.462 -0.237,-0.01 -0.457,-0.04 -0.693,-0.07 -0.184,-0.185 -0.341,-0.365 -0.517,-0.544 0.658,-0.268 1.321,-0.517 1.971,-0.802 z m 2.175,2.868 v 0.03 c -0.235,0.402 -0.435,0.819 -0.666,1.224 -0.158,0 -0.288,-0.03 -0.435,-0.06 -0.184,-0.184 -0.34,-0.365 -0.516,-0.544 0.539,-0.21 1.083,-0.423 1.617,-0.652 z m -0.666,1.265 c 0.313,0.02 0.614,0.06 0.924,0.08 0,0.489 0,0.976 0,1.468 l -0.136,-0.136 c -0.313,-0.384 -0.62,-0.776 -0.951,-1.141 0.05,-0.102 0.113,-0.175 0.163,-0.273 z m 2.841,1.631 0.01,0.01 c -0.208,0.346 -0.387,0.697 -0.585,1.046 -0.06,0 -0.111,0 -0.191,-0.01 -0.158,-0.184 -0.329,-0.367 -0.503,-0.543 0.421,-0.184 0.846,-0.325 1.264,-0.503 z m -0.571,1.073 c 0.363,0.02 0.711,0.08 1.074,0.109 0,0.463 0,0.923 0,1.386 l -0.06,-0.05 c -0.36,-0.448 -0.714,-0.901 -1.101,-1.319 0.02,-0.05 0.06,-0.08 0.08,-0.122 z m 2.746,1.849 c -0.158,0.268 -0.296,0.545 -0.448,0.816 -0.158,-0.158 -0.275,-0.323 -0.422,-0.476 0.289,-0.132 0.583,-0.211 0.87,-0.34 z m -0.408,0.843 c 0.392,0.02 0.766,0.08 1.155,0.108 0,0.429 0,0.86 0,1.292 -0.381,-0.472 -0.745,-0.961 -1.155,-1.4 z m 2.569,2.025 c -0.1,0.153 -0.157,0.321 -0.258,0.476 -0.08,-0.08 -0.153,-0.185 -0.258,-0.272 0.183,-0.08 0.345,-0.151 0.516,-0.204 z m -0.07,0.707 c 0.361,0.02 0.703,0.08 1.061,0.108 0,0.389 0,0.78 0,1.169 -0.351,-0.423 -0.687,-0.864 -1.061,-1.264 z m 2.27,2.134 c -0.03,0.06 -0.06,0.138 -0.108,0.19 -0.03,-0.03 -0.07,-0.06 -0.1,-0.109 0.08,-0.03 0.126,-0.06 0.204,-0.08 z m 0.231,0.584 c 0.327,0.02 0.639,0.06 0.965,0.08 0,0.363 0,0.724 0,1.087 -0.323,-0.389 -0.623,-0.803 -0.965,-1.169 z m 2.515,2.732 c 0.289,0.01 0.578,0.06 0.87,0.08 0,0.313 0,0.625 0,0.938 -0.287,-0.34 -0.567,-0.693 -0.87,-1.02 z m 2.514,2.705 c 0.264,0.01 0.506,0.06 0.762,0.08 0,0.284 10e-4,0.572 0,0.856 -0.263,-0.303 -0.493,-0.635 -0.762,-0.924 z m 2.529,2.719 c 0.21,0.01 0.423,0.06 0.639,0.06 0,0.236 0,0.478 0,0.72 -0.211,-0.263 -0.413,-0.53 -0.639,-0.775 z m 2.487,2.705 c 0.184,0 0.381,0.05 0.571,0.05 0,0.211 0,0.41 0,0.612 -0.185,-0.21 -0.377,-0.456 -0.571,-0.666 z m 2.501,2.705 c 0.158,0 0.315,0.03 0.476,0.05 10e-4,0.184 0,0.345 0,0.517 -0.158,-0.185 -0.31,-0.379 -0.476,-0.558 z m 2.515,2.718 h 0.01 c 0.131,0 0.224,0.02 0.339,0.03 10e-4,0.132 -0.01,0.262 -0.01,0.394 -0.131,-0.132 -0.211,-0.29 -0.339,-0.422 z m 2.501,2.678 c 0.08,0 0.153,0.02 0.258,0.03 0,0.105 0,0.183 0,0.285 -0.08,-0.105 -0.153,-0.21 -0.258,-0.312 z m 2.487,2.705 c 0.06,0 0.1,0.01 0.15,0.01 0,0.06 -10e-4,0.111 0,0.19 -0.06,-0.06 -0.1,-0.138 -0.15,-0.19 z m 2.501,2.691 c 0.02,0 0.03,0 0.06,0 0,0.02 0,0.06 0,0.08 -0.02,-0.02 -0.03,-0.06 -0.06,-0.08 z m 11.975,13.253 c 0,0.02 0,0.05 0,0.08 0,0 -0.02,-0.02 -0.03,-0.03 0,-0.01 0.02,-0.03 0.03,-0.06 z m -1474.903,405.435 c -0.131,1.39 -0.237,2.779 -0.34,4.16 -0.954,0.391 -1.922,0.742 -2.868,1.169 0.06,-1.387 0.139,-2.777 0.217,-4.173 0.989,-0.408 1.992,-0.787 2.991,-1.156 z m 2.664,3.018 c -0.131,1.384 -0.237,2.769 -0.34,4.146 -0.954,0.391 -1.922,0.742 -2.868,1.168 0.06,-1.384 0.1,-2.766 0.204,-4.159 0.995,-0.408 1.999,-0.787 3.004,-1.155 z m 2.651,3.004 c -0.131,1.389 -0.237,2.778 -0.327,4.159 -0.96,0.392 -1.933,0.727 -2.881,1.155 0.06,-1.384 0.138,-2.766 0.217,-4.159 0.991,-0.405 1.991,-0.787 2.99,-1.155 z m 2.636,3.017 c -0.131,1.384 -0.21,2.77 -0.312,4.146 -0.951,0.388 -1.913,0.717 -2.854,1.142 0.06,-1.374 0.125,-2.75 0.203,-4.132 0.984,-0.403 1.971,-0.79 2.964,-1.156 z m 2.651,2.991 c -0.132,1.399 -0.21,2.795 -0.312,4.186 0.981,-0.402 1.972,-0.779 2.963,-1.142 -0.132,1.381 -0.237,2.759 -0.313,4.132 -0.948,0.387 -1.915,0.72 -2.854,1.142 0.06,-1.375 0.125,-2.748 0.204,-4.132 -0.95,0.389 -1.915,0.718 -2.855,1.142 0.06,-1.386 0.112,-2.777 0.217,-4.173 0.98,-0.401 1.961,-0.794 2.95,-1.155 z m 5.288,6.035 c -0.132,1.375 -0.237,2.75 -0.313,4.118 -0.946,0.385 -1.905,0.707 -2.841,1.128 0.06,-1.365 0.139,-2.731 0.217,-4.105 0.975,-0.398 1.953,-0.782 2.936,-1.141 z m 2.65,2.976 c -0.132,1.384 -0.237,2.759 -0.312,4.133 -0.949,0.384 -1.903,0.722 -2.841,1.141 0.06,-1.373 0.1,-2.75 0.204,-4.132 0.979,-0.398 1.96,-0.783 2.949,-1.142 z m 2.637,2.991 c -0.132,1.386 -0.21,2.768 -0.299,4.145 -0.949,0.385 -1.916,0.707 -2.855,1.129 0.06,-1.376 0.139,-2.749 0.217,-4.132 0.975,-0.396 1.953,-0.783 2.936,-1.142 z m 2.623,3.004 c -0.105,1.378 -0.209,2.75 -0.299,4.118 -0.935,0.377 -1.889,0.701 -2.814,1.115 0.06,-1.357 0.126,-2.725 0.204,-4.092 0.967,-0.393 1.932,-0.788 2.909,-1.141 z m 2.624,2.99 c -0.105,1.379 -0.21,2.749 -0.286,4.119 0,0 0.01,0 0.01,0 0.965,-0.39 1.933,-0.762 2.909,-1.115 -0.105,1.376 -0.209,2.738 -0.299,4.105 -0.935,0.376 -1.889,0.674 -2.814,1.087 0.06,-1.35 0.125,-2.706 0.204,-4.064 0,0 -0.01,0 -0.01,0 -0.939,0.379 -1.899,0.672 -2.827,1.088 0.06,-1.363 0.138,-2.733 0.217,-4.105 0.961,-0.388 1.926,-0.763 2.895,-1.115 z m 5.246,5.981 c -0.105,1.371 -0.209,2.73 -0.285,4.091 0,0 0.01,0 0.01,0 0.962,-0.387 1.925,-0.764 2.895,-1.115 -0.105,1.366 -0.185,2.722 -0.272,4.078 0,0 0.01,0 0.01,0 0.962,-0.387 1.922,-0.764 2.895,-1.114 -0.105,1.376 -0.185,2.738 -0.272,4.105 -0.944,0.378 -1.907,0.674 -2.841,1.087 0.06,-1.35 0.139,-2.706 0.217,-4.064 0,0 -0.01,0 -0.01,0 -0.939,0.376 -1.896,0.674 -2.827,1.087 0.06,-1.345 0.125,-2.696 0.204,-4.05 0,0 -0.01,0 -0.01,0 -0.934,0.375 -1.888,0.676 -2.814,1.087 0.06,-1.355 0.139,-2.714 0.218,-4.078 0.958,-0.385 1.915,-0.765 2.881,-1.114 z m 7.87,8.944 c -0.105,1.365 -0.185,2.721 -0.272,4.077 0.952,-0.381 1.907,-0.756 2.868,-1.101 -0.105,1.36 -0.193,2.713 -0.272,4.064 -0.935,0.374 -1.889,0.679 -2.814,1.088 0.06,-1.344 0.139,-2.698 0.218,-4.051 -0.934,0.374 -1.889,0.666 -2.814,1.074 0.06,-1.342 0.125,-2.687 0.204,-4.037 0.957,-0.384 1.915,-0.765 2.881,-1.114 z m 5.22,5.939 c -0.105,1.368 -0.193,2.721 -0.272,4.078 -0.936,0.374 -1.887,0.679 -2.814,1.088 0.06,-1.347 0.125,-2.709 0.204,-4.065 0.951,-0.38 1.921,-0.755 2.882,-1.101 z m 2.596,2.964 c -0.105,1.367 -0.18,2.719 -0.258,4.077 0.955,-0.381 1.904,-0.77 2.868,-1.114 -0.105,1.357 -0.166,2.702 -0.245,4.05 0.949,-0.375 1.896,-0.759 2.854,-1.101 -0.105,1.363 -0.152,2.697 -0.231,4.051 0.939,-0.374 1.878,-0.737 2.827,-1.074 -0.105,1.352 -0.152,2.693 -0.231,4.037 0.947,-0.376 1.886,-0.775 2.841,-1.115 -0.105,1.36 -0.165,2.714 -0.245,4.065 0.937,-0.371 1.871,-0.754 2.814,-1.088 -0.105,1.355 -0.125,2.691 -0.204,4.037 0.942,-0.371 1.878,-0.753 2.827,-1.087 -0.105,1.349 -0.165,2.682 -0.217,4.023 0.931,-0.368 1.86,-0.756 2.8,-1.087 -0.105,1.354 -0.151,2.691 -0.204,4.037 0.931,-0.366 1.86,-0.756 2.8,-1.088 -0.105,1.35 -0.165,2.683 -0.217,4.024 0.937,-0.369 1.868,-0.756 2.814,-1.088 -0.105,1.344 -0.151,2.674 -0.204,4.01 0.931,-0.365 1.86,-0.745 2.8,-1.074 -0.105,1.352 -0.139,2.681 -0.217,4.024 0.926,-0.363 1.851,-0.748 2.786,-1.074 -0.105,1.336 -0.125,2.654 -0.204,3.982 0.924,-0.36 1.842,-0.747 2.773,-1.073 -0.105,1.341 -0.138,2.664 -0.217,3.996 0.929,-0.363 1.852,-0.748 2.787,-1.074 -0.105,1.339 -0.126,2.665 -0.204,3.996 0.933,-0.363 1.857,-0.761 2.8,-1.087 -0.105,1.344 -0.165,2.675 -0.217,4.01 0.925,-0.361 1.838,-0.751 2.772,-1.074 -0.105,1.339 -0.125,2.667 -0.203,3.996 0.925,-0.358 1.841,-0.75 2.772,-1.074 -0.105,1.336 -0.138,2.656 -0.217,3.983 0.929,-0.361 1.849,-0.751 2.787,-1.074 -0.105,1.331 -0.125,2.648 -0.204,3.969 0.92,-0.355 1.83,-0.739 2.759,-1.06 -0.105,1.333 -0.138,2.657 -0.217,3.982 0.926,-0.357 1.839,-0.753 2.773,-1.074 -0.105,1.334 -0.125,2.659 -0.204,3.983 0.921,-0.352 1.83,-0.756 2.759,-1.074 -0.02,0.274 -0.02,0.542 -0.06,0.816 -0.699,1.315 -1.382,2.633 -2.147,3.914 -0.237,0.105 -0.492,0.183 -0.734,0.286 0.03,-1.305 0.111,-2.628 0.163,-3.942 -0.913,0.35 -1.831,0.676 -2.732,1.06 0.03,-1.315 0.1,-2.645 0.149,-3.969 -0.912,0.352 -1.828,0.674 -2.732,1.06 0.03,-1.32 0.112,-2.653 0.191,-3.982 -0.921,0.355 -1.849,0.671 -2.759,1.06 0.03,-1.31 0.1,-2.636 0.176,-3.955 -0.918,0.354 -1.838,0.684 -2.745,1.073 0.03,-1.317 0.111,-2.655 0.19,-3.982 -0.92,0.357 -1.846,0.682 -2.759,1.074 0.03,-1.323 0.138,-2.665 0.19,-3.997 -0.926,0.358 -1.857,0.68 -2.773,1.074 0.03,-1.323 0.124,-2.664 0.177,-3.996 -0.926,0.361 -1.857,0.679 -2.773,1.074 0.03,-1.323 0.138,-2.664 0.191,-3.996 -0.924,0.36 -1.857,0.679 -2.773,1.073 0.03,-1.323 0.125,-2.663 0.204,-3.996 -0.934,0.363 -1.876,0.688 -2.8,1.088 0.03,-1.326 0.165,-2.663 0.217,-3.997 -0.931,0.364 -1.878,0.675 -2.8,1.074 0.03,-1.331 0.125,-2.683 0.204,-4.023 -0.934,0.365 -1.876,0.688 -2.8,1.087 0.03,-1.328 0.138,-2.673 0.217,-4.01 -0.934,0.366 -1.876,0.685 -2.8,1.088 0.06,-1.334 0.151,-2.681 0.204,-4.023 -0.926,0.365 -1.87,0.674 -2.787,1.073 0.06,-1.333 0.139,-2.68 0.217,-4.023 -0.941,0.371 -1.896,0.682 -2.827,1.087 0.06,-1.333 0.151,-2.679 0.204,-4.023 -0.931,0.368 -1.878,0.672 -2.8,1.074 0.06,-1.336 0.125,-2.679 0.204,-4.024 -0.936,0.371 -1.889,0.68 -2.814,1.088 0.06,-1.339 0.139,-2.69 0.217,-4.037 -0.933,0.368 -1.875,0.682 -2.8,1.087 0.06,-1.339 0.126,-2.688 0.204,-4.037 -0.936,0.371 -1.886,0.682 -2.813,1.088 0.06,-1.342 0.138,-2.699 0.217,-4.051 -0.942,0.374 -1.897,0.691 -2.828,1.101 0.06,-1.341 0.126,-2.687 0.204,-4.037 -0.936,0.374 -1.888,0.68 -2.813,1.088 0.06,-1.344 0.138,-2.698 0.217,-4.051 0.951,-0.38 1.895,-0.771 2.854,-1.115 z" />
      <path
         style="color:#000000;font-style:normal;font-variant:normal;font-weight:normal;font-stretch:normal;font-size:medium;line-height:normal;font-family:sans-serif;font-variant-ligatures:normal;font-variant-position:normal;font-variant-caps:normal;font-variant-numeric:normal;font-variant-alternates:normal;font-feature-settings:normal;text-indent:0;text-align:start;text-decoration:none;text-decoration-line:none;text-decoration-style:solid;text-decoration-color:#000000;letter-spacing:normal;word-spacing:normal;text-transform:none;writing-mode:lr-tb;direction:ltr;text-orientation:mixed;dominant-baseline:auto;baseline-shift:baseline;text-anchor:start;white-space:normal;shape-padding:0;clip-rule:nonzero;display:inline;overflow:visible;visibility:visible;opacity:0.618;isolation:auto;mix-blend-mode:normal;color-interpolation:sRGB;color-interpolation-filters:linearRGB;solid-color:#000000;solid-opacity:1;vector-effect:none;fill:#9fa8da;fill-opacity:1;fill-rule:nonzero;stroke:none;stroke-width:13.5707;stroke-linecap:round;stroke-linejoin:bevel;stroke-miterlimit:4;stroke-dasharray:none;stroke-dashoffset:0;stroke-opacity:1;paint-order:normal;color-rendering:auto;image-rendering:auto;shape-rendering:auto;text-rendering:auto;enable-background:accumulate"
         d="m -48176.424,15196.867 c -43.793,0 -82.535,26.164 -114.102,65.631 -31.566,39.468 -58.112,93.632 -80.378,159.453 -44.534,131.643 -71.333,310.272 -71.333,507.576 0,197.304 26.799,375.926 71.333,507.569 22.266,65.822 48.812,119.986 80.378,159.453 31.567,39.468 70.309,65.638 114.102,65.638 43.793,0 82.528,-26.17 114.095,-65.638 31.567,-39.467 58.112,-93.631 80.379,-159.453 44.533,-131.643 71.333,-310.265 71.333,-507.569 0,-197.304 -26.8,-375.933 -71.333,-507.576 -22.267,-65.821 -48.812,-119.985 -80.379,-159.453 -31.567,-39.467 -70.302,-65.631 -114.095,-65.631 z m 0,54.282 c 22.113,0 46.159,13.321 71.7,45.256 25.542,31.934 50.43,81.093 71.354,142.944 41.847,123.704 68.472,297.836 68.472,490.178 0,192.342 -26.625,366.474 -68.472,490.178 -20.924,61.851 -45.812,111.01 -71.354,142.945 -25.541,31.934 -49.587,45.249 -71.7,45.249 -22.113,0 -46.165,-13.315 -71.707,-45.249 -25.541,-31.935 -50.429,-81.094 -71.353,-142.945 -41.848,-123.704 -68.472,-297.836 -68.472,-490.178 0,-192.342 26.624,-366.474 68.472,-490.178 20.924,-61.851 45.812,-111.01 71.353,-142.944 25.542,-31.935 49.594,-45.256 71.707,-45.256 z"
         id="path5576-5-6"
         inkscape:connector-curvature="0"
         inkscape:export-xdpi="96"
         inkscape:export-ydpi="96" />
      <path
         d="m -48085.995,15224.011 a 89.172962,89.173052 0 0 1 -89.172,89.173 89.172962,89.173052 0 0 1 -89.173,-89.173 89.172962,89.173052 0 0 1 89.173,-89.173 89.172962,89.173052 0 0 1 89.172,89.173"
         style="fill:#ffecb3;fill-opacity:1;stroke:none;stroke-width:13.5707;stroke-linecap:round;stroke-linejoin:bevel;stroke-miterlimit:4;stroke-dasharray:none;stroke-dashoffset:0;stroke-opacity:0.839216;paint-order:normal"
         id="path5578-9-7" />
      <path
         d="m -48079.849,16635.044 a 89.172962,89.173052 0 0 1 -89.173,89.173 89.172962,89.173052 0 0 1 -89.173,-89.173 89.172962,89.173052 0 0 1 89.173,-89.173 89.172962,89.173052 0 0 1 89.173,89.173"
         style="fill:#ffecb3;fill-opacity:1;stroke:none;stroke-width:13.5707;stroke-linecap:round;stroke-linejoin:bevel;stroke-miterlimit:4;stroke-dasharray:none;stroke-dashoffset:0;stroke-opacity:0.839216;paint-order:normal"
         id="path5578-6-3-5" />
      <path
         style="color:#000000;font-style:normal;font-variant:normal;font-weight:normal;font-stretch:normal;font-size:medium;line-height:normal;font-family:sans-serif;font-variant-ligatures:normal;font-variant-position:normal;font-variant-caps:normal;font-variant-numeric:normal;font-variant-alternates:normal;font-feature-settings:normal;text-indent:0;text-align:start;text-decoration:none;text-decoration-line:none;text-decoration-style:solid;text-decoration-color:#000000;letter-spacing:normal;word-spacing:normal;text-transform:none;writing-mode:lr-tb;direction:ltr;text-orientation:mixed;dominant-baseline:auto;baseline-shift:baseline;text-anchor:start;white-space:normal;shape-padding:0;clip-rule:nonzero;display:inline;overflow:visible;visibility:visible;opacity:0.618;isolation:auto;mix-blend-mode:normal;color-interpolation:sRGB;color-interpolation-filters:linearRGB;solid-color:#000000;solid-opacity:1;vector-effect:none;fill:#80deea;fill-opacity:1;fill-rule:nonzero;stroke:none;stroke-width:13.5707;stroke-linecap:round;stroke-linejoin:bevel;stroke-miterlimit:4;stroke-dasharray:none;stroke-dashoffset:0;stroke-opacity:1;paint-order:normal;color-rendering:auto;image-rendering:auto;shape-rendering:auto;text-rendering:auto;enable-background:accumulate"
         d="m -47580.371,15503.496 c -25.465,-35.628 -69.275,-51.928 -119.74,-54.659 -50.465,-2.731 -109.965,7.169 -176.462,27.328 -132.995,40.318 -293.907,122.38 -454.424,237.11 -160.518,114.73 -290.249,240.405 -371.452,353.184 -40.601,56.39 -69.23,109.482 -82.985,158.113 -13.753,48.631 -12.514,95.358 12.951,130.986 25.465,35.628 69.275,51.928 119.74,54.659 50.464,2.731 109.965,-7.168 176.462,-27.327 132.995,-40.319 293.897,-122.382 454.415,-237.112 160.517,-114.73 290.258,-240.403 371.46,-353.183 40.602,-56.39 69.232,-109.482 82.985,-158.113 13.754,-48.63 12.515,-95.358 -12.95,-130.986 z m -44.162,31.564 c 12.859,17.99 16.004,45.299 4.875,84.648 -11.128,39.349 -36.649,88.182 -74.802,141.171 -76.306,105.978 -202.49,228.894 -358.97,340.738 -156.481,111.844 -313.628,191.44 -438.602,229.327 -62.487,18.943 -116.952,27.28 -157.784,25.07 -40.833,-2.209 -65.648,-14.029 -78.506,-32.02 -12.859,-17.99 -16.012,-45.3 -4.884,-84.649 11.128,-39.349 36.654,-88.177 74.806,-141.165 76.306,-105.978 202.486,-228.9 358.967,-340.744 156.481,-111.845 313.632,-191.434 438.605,-229.321 62.487,-18.944 116.948,-27.287 157.781,-25.077 40.832,2.21 65.656,14.032 78.514,32.022 z"
         id="ellipse5612-6-3"
         inkscape:connector-curvature="0"
         inkscape:export-xdpi="96"
         inkscape:export-ydpi="96" />
      <path
         inkscape:export-ydpi="96"
         inkscape:export-xdpi="96"
         inkscape:connector-curvature="0"
         id="path855"
         d="m -48772.483,15503.496 c 25.465,-35.628 69.274,-51.928 119.74,-54.659 50.464,-2.731 109.965,7.169 176.462,27.328 132.995,40.318 293.907,122.38 454.424,237.11 160.518,114.73 290.248,240.405 371.451,353.184 40.602,56.39 69.231,109.482 82.985,158.113 13.754,48.631 12.515,95.358 -12.95,130.986 -25.465,35.628 -69.275,51.928 -119.74,54.659 -50.465,2.731 -109.965,-7.168 -176.462,-27.327 -132.995,-40.319 -293.897,-122.382 -454.415,-237.112 -160.517,-114.73 -290.258,-240.403 -371.461,-353.183 -40.602,-56.39 -69.232,-109.482 -82.985,-158.113 -13.753,-48.63 -12.514,-95.358 12.951,-130.986 z m 44.161,31.564 c -12.859,17.99 -16.003,45.299 -4.875,84.648 11.129,39.349 36.649,88.182 74.802,141.171 76.306,105.978 202.49,228.894 358.971,340.738 156.48,111.844 313.628,191.44 438.601,229.327 62.487,18.943 116.953,27.28 157.785,25.07 40.833,-2.209 65.647,-14.029 78.505,-32.02 12.859,-17.99 16.013,-45.3 4.885,-84.649 -11.129,-39.349 -36.654,-88.177 -74.807,-141.165 -76.305,-105.978 -202.486,-228.9 -358.967,-340.744 -156.48,-111.845 -313.632,-191.434 -438.605,-229.321 -62.487,-18.944 -116.948,-27.287 -157.781,-25.077 -40.832,2.21 -65.656,14.032 -78.514,32.022 z"
         style="color:#000000;font-style:normal;font-variant:normal;font-weight:normal;font-stretch:normal;font-size:medium;line-height:normal;font-family:sans-serif;font-variant-ligatures:normal;font-variant-position:normal;font-variant-caps:normal;font-variant-numeric:normal;font-variant-alternates:normal;font-feature-settings:normal;text-indent:0;text-align:start;text-decoration:none;text-decoration-line:none;text-decoration-style:solid;text-decoration-color:#000000;letter-spacing:normal;word-spacing:normal;text-transform:none;writing-mode:lr-tb;direction:ltr;text-orientation:mixed;dominant-baseline:auto;baseline-shift:baseline;text-anchor:start;white-space:normal;shape-padding:0;clip-rule:nonzero;display:inline;overflow:visible;visibility:visible;opacity:0.618;isolation:auto;mix-blend-mode:normal;color-interpolation:sRGB;color-interpolation-filters:linearRGB;solid-color:#000000;solid-opacity:1;vector-effect:none;fill:#c5e1a5;fill-opacity:1;fill-rule:nonzero;stroke:none;stroke-width:13.5707;stroke-linecap:round;stroke-linejoin:bevel;stroke-miterlimit:4;stroke-dasharray:none;stroke-dashoffset:0;stroke-opacity:1;paint-order:normal;color-rendering:auto;image-rendering:auto;shape-rendering:auto;text-rendering:auto;enable-background:accumulate" />
      <path
         d="m -48707.804,16425.279 a 89.173033,89.172994 54.444755 0 1 -124.4,-20.694 89.173033,89.172994 54.444755 0 1 20.694,-124.4 89.173033,89.172994 54.444755 0 1 124.4,20.694 89.173033,89.172994 54.444755 0 1 -20.694,124.4"
         style="fill:#ffecb3;fill-opacity:1;stroke:none;stroke-width:13.5707;stroke-linecap:round;stroke-linejoin:bevel;stroke-miterlimit:4;stroke-dasharray:none;stroke-dashoffset:0;stroke-opacity:0.839216;paint-order:normal"
         id="circle5616-0-5" />
      <path
         d="m -47539.37,16281.637 a 89.172994,89.173039 37.130186 0 1 17.268,124.923 89.172994,89.173039 37.130186 0 1 -124.923,17.267 89.172994,89.173039 37.130186 0 1 -17.267,-124.922 89.172994,89.173039 37.130186 0 1 124.922,-17.268"
         style="fill:#ffecb3;fill-opacity:1;stroke:none;stroke-width:13.5707;stroke-linecap:round;stroke-linejoin:bevel;stroke-miterlimit:4;stroke-dasharray:none;stroke-dashoffset:0;stroke-opacity:0.839216;paint-order:normal"
         id="circle5627-2-6" />
      <path
         id="path39361"
         style="fill:#ffecb3;fill-opacity:1;stroke:none;stroke-width:13.5707;stroke-linecap:round;stroke-linejoin:bevel;stroke-miterlimit:4;stroke-dasharray:none;stroke-dashoffset:0;stroke-opacity:0.839216;paint-order:normal"
         d="m -48707.804,15578.868 a 89.173033,89.172994 54.444755 0 1 -124.4,-20.694 89.173033,89.172994 54.444755 0 1 20.694,-124.4 89.173033,89.172994 54.444755 0 1 124.4,20.694 89.173033,89.172994 54.444755 0 1 -20.694,124.4" />
      <path
         id="path39363"
         style="fill:#ffecb3;fill-opacity:1;stroke:none;stroke-width:13.5707;stroke-linecap:round;stroke-linejoin:bevel;stroke-miterlimit:4;stroke-dasharray:none;stroke-dashoffset:0;stroke-opacity:0.839216;paint-order:normal"
         d="m -47539.37,15435.227 a 89.172994,89.173039 37.130186 0 1 17.268,124.922 89.172994,89.173039 37.130186 0 1 -124.923,17.267 89.172994,89.173039 37.130186 0 1 -17.267,-124.922 89.172994,89.173039 37.130186 0 1 124.922,-17.267" />
      <path
         id="path18913"
         style="opacity:0.911;fill:#ffb74d;fill-opacity:1;stroke:none;stroke-width:13.5707;stroke-linecap:round;stroke-linejoin:bevel;stroke-miterlimit:4;stroke-dasharray:none;stroke-dashoffset:0;stroke-opacity:0.839216;paint-order:normal"
         d="m -48176.298,15740.218 a 189.30974,189.30979 37.130178 0 0 -151.061,75.037 189.30974,189.30979 37.130178 0 0 36.658,265.203 189.30974,189.30979 37.130178 0 0 265.202,-36.658 189.30974,189.30979 37.130178 0 0 -36.658,-265.204 189.30974,189.30979 37.130178 0 0 -114.141,-38.378 z m -6.909,72.175 c 50.533,0 85.833,30.058 85.833,76.244 0,37.39 -39.386,78.445 -78.029,110.703 13.004,-1.466 30.84,-2.933 42.359,-2.933 h 47.561 v 52.785 h -181.328 v -35.923 c 62.796,-50.586 108.87,-89.442 108.87,-120.967 0,-20.893 -13.376,-30.79 -34.185,-30.79 -17.463,0 -31.212,10.998 -43.845,21.995 l -33.813,-33.725 c 25.638,-25.66 49.419,-37.389 86.577,-37.389 z" />
    </g>
  </g>
</svg>
