<?xml version="1.0" encoding="UTF-8" standalone="no"?>
<svg
   xmlns:dc="http://purl.org/dc/elements/1.1/"
   xmlns:cc="http://creativecommons.org/ns#"
   xmlns:rdf="http://www.w3.org/1999/02/22-rdf-syntax-ns#"
   xmlns:svg="http://www.w3.org/2000/svg"
   xmlns="http://www.w3.org/2000/svg"
   xmlns:sodipodi="http://sodipodi.sourceforge.net/DTD/sodipodi-0.dtd"
   xmlns:inkscape="http://www.inkscape.org/namespaces/inkscape"
   sodipodi:docname="metodi_scalable.svg"
   inkscape:version="1.0 (4035a4fb49, 2020-05-01)"
   id="svg27864"
   version="1.1"
   viewBox="0 0 67.733338 67.733338"
   height="67.733337mm"
   width="67.733337mm">
  <defs
     id="defs27858">
    <clipPath
       clipPathUnits="userSpaceOnUse"
       id="clipPath1698-3">
      <rect
         style="opacity:0.604;fill:#26a10d;fill-opacity:0.985;stroke:#d32f2f;stroke-width:0;stroke-linecap:round;stroke-linejoin:bevel;stroke-miterlimit:4;stroke-dasharray:none;stroke-dashoffset:0;stroke-opacity:0.94;paint-order:fill markers stroke"
         id="rect1700-6"
         width="1200"
         height="772.966"
         x="-29147.879"
         y="19470.865"
         rx="64.06395"
         ry="64.06395" />
    </clipPath>
    <clipPath
       id="clipPath29374"
       clipPathUnits="userSpaceOnUse">
      <rect
         style="opacity:1;fill:#014c77;fill-opacity:1;stroke:none;stroke-width:4.4;stroke-linecap:round;stroke-linejoin:bevel;stroke-miterlimit:4;stroke-dasharray:none;stroke-dashoffset:0;stroke-opacity:1;paint-order:fill markers stroke"
         id="rect29376"
         width="2048"
         height="2048"
         x="-18040.27"
         y="7264.1074" />
    </clipPath>
    <clipPath
       id="clipPath1237"
       clipPathUnits="userSpaceOnUse">
      <g
         id="g1245">
        <rect
           ry="28.853754"
           rx="28.853754"
           y="8911.8291"
           x="-17557.889"
           height="98.791946"
           width="1083.2383"
           id="rect1239"
           style="opacity:1;fill:#e1f5fe;fill-opacity:1;stroke:none;stroke-width:4.4;stroke-linecap:round;stroke-linejoin:bevel;stroke-miterlimit:4;stroke-dasharray:none;stroke-dashoffset:0;stroke-opacity:1;paint-order:fill markers stroke" />
        <rect
           ry="28.8538"
           rx="28.853802"
           y="8984.541"
           x="-17372.984"
           height="66.819221"
           width="713.43213"
           id="rect1241"
           style="opacity:1;fill:#e1f5fe;fill-opacity:1;stroke:none;stroke-width:4.4;stroke-linecap:round;stroke-linejoin:bevel;stroke-miterlimit:4;stroke-dasharray:none;stroke-dashoffset:0;stroke-opacity:1;paint-order:fill markers stroke" />
        <path
           id="path1243"
           d="m -17324.329,8432.3038 c -18.32,0 -33.343,14.4272 -35.635,33.2188 h -0.312 v 5.0019 30.5742 132.9981 c 0,163.6929 123.952,295.4765 277.918,295.4765 h 132.179 c 122.164,0 225.42,-82.9726 262.867,-199.0156 a 129.26388,129.26388 0 0 0 15.041,1.0391 129.26388,129.26388 0 0 0 129.264,-129.2637 129.26388,129.26388 0 0 0 -129.256,-129.2637 v -2.5449 -5.0019 h -0.314 c -2.292,-18.7916 -17.314,-33.2188 -35.633,-33.2188 z m 652.066,103.461 a 66.567536,66.567536 0 0 1 66.561,66.5683 66.567536,66.567536 0 0 1 -66.569,66.5664 66.567536,66.567536 0 0 1 -1.892,-0.094 c 1.242,-11.3827 1.9,-22.9607 1.9,-34.709 z"
           style="opacity:1;fill:#e1f5fe;fill-opacity:1;stroke:none;stroke-width:4.4;stroke-linecap:round;stroke-linejoin:bevel;stroke-miterlimit:4;stroke-dasharray:none;stroke-dashoffset:0;stroke-opacity:1;paint-order:fill markers stroke"
           inkscape:connector-curvature="0" />
      </g>
    </clipPath>
  </defs>
  <sodipodi:namedview
     inkscape:snap-global="false"
     inkscape:window-maximized="0"
     inkscape:window-y="24"
     inkscape:window-x="576"
     inkscape:window-height="1025"
     inkscape:window-width="1336"
     fit-margin-bottom="0"
     fit-margin-right="0"
     fit-margin-left="0"
     fit-margin-top="0"
     showgrid="false"
     inkscape:document-rotation="0"
     inkscape:current-layer="layer1"
     inkscape:document-units="mm"
     inkscape:cy="1808.084"
     inkscape:cx="1611.8365"
     inkscape:zoom="0.19921874"
     inkscape:pageshadow="2"
     inkscape:pageopacity="0.0"
     borderopacity="1.0"
     bordercolor="#666666"
     pagecolor="#ffffff"
     id="base" />
  <metadata
     id="metadata27861">
    <rdf:RDF>
      <cc:Work
         rdf:about="">
        <dc:format>image/svg+xml</dc:format>
        <dc:type
           rdf:resource="http://purl.org/dc/dcmitype/StillImage" />
        <dc:title></dc:title>
        <cc:license
           rdf:resource="http://creativecommons.org/licenses/by-sa/4.0/" />
      </cc:Work>
      <cc:License
         rdf:about="http://creativecommons.org/licenses/by-sa/4.0/">
        <cc:permits
           rdf:resource="http://creativecommons.org/ns#Reproduction" />
        <cc:permits
           rdf:resource="http://creativecommons.org/ns#Distribution" />
        <cc:requires
           rdf:resource="http://creativecommons.org/ns#Notice" />
        <cc:requires
           rdf:resource="http://creativecommons.org/ns#Attribution" />
        <cc:permits
           rdf:resource="http://creativecommons.org/ns#DerivativeWorks" />
        <cc:requires
           rdf:resource="http://creativecommons.org/ns#ShareAlike" />
      </cc:License>
    </rdf:RDF>
  </metadata>
  <g
     transform="translate(2489.8784,2576.2368)"
     id="layer1"
     inkscape:groupmode="layer"
     inkscape:label="Livello 1">
    <g
       id="g27136"
       inkscape:export-filename="/home/fjall/Icone/PNG/II anno/metodi.png"
       inkscape:export-xdpi="96"
       inkscape:export-ydpi="96"
       transform="matrix(0.03307292,0,0,0.03307292,-2958.2535,-2959.307)">
      <rect
         style="fill:#37474f;fill-opacity:1;stroke:none;stroke-width:155.05;stroke-linecap:round;stroke-linejoin:round;stroke-miterlimit:4;stroke-dasharray:none;stroke-dashoffset:0;stroke-opacity:1;paint-order:stroke markers fill"
         id="rect1632"
         width="2048"
         height="2048"
         x="14161.892"
         y="11582.595"
         rx="0"
         ry="0" />
      <path
         d="m 15270.039,12104.109 -173.396,0.442 2.412,4.291 v 0.01 l -2.416,-4.301 h 0.01 l -0.03,-0.06 c -0.46,0.83 -465.27,846.779 -465.27,846.779 l 85.301,153.541 0.736,-1.333 v 0 c 0,0 -0.698,1.267 -0.699,1.268 0,0 1.402,0 1.406,0 l 1.725,3.103 0.03,-0.06 v 0 c 0,0 0.696,-1.26 0.699,-1.266 l -0.695,1.266 c 0,0 1.398,0 1.402,0 l 1.725,3.103 0.03,-0.06 v 0 c 0,0 0.694,-1.256 0.698,-1.262 v 0 l -0.694,1.258 c 0,0 1.393,0 1.397,0 l 1.718,3.094 0.735,-1.326 v 0 c 0,0 -0.697,1.26 -0.698,1.262 v 0 c 0,0 1.402,0 1.407,0 l 1.713,3.084 0.728,-1.32 v 0 c 0,0 -0.699,1.264 -0.699,1.265 0,0 1.402,0 1.406,0 l 1.713,3.084 0.03,-0.06 c 0,0 0.539,-0.977 0.541,-0.981 l -0.539,0.981 c 0,0 1.394,0 1.399,0 l 1.718,3.093 0.03,-0.06 v 0 c 0,0 0.692,-1.254 0.695,-1.26 v 0 l -0.693,1.256 c 0,0 1.39,0 1.394,0 l 1.713,3.084 0.03,-0.06 v 0 c 0,0 0.69,-1.25 0.694,-1.256 v 0 l -0.692,1.254 c 0,0 1.387,0 1.391,0 l 1.715,3.086 0.728,-1.321 v 0 c 0,0 -0.691,1.253 -0.691,1.254 0,0 1.388,0 1.392,0 l 1.707,3.074 0.03,-0.05 c 0,0 1.396,0 1.4,0 l 1.701,3.065 0.725,-1.311 v 0.01 c 0,0 -0.689,1.249 -0.69,1.25 0,0 1.385,0 1.389,0 l 1.701,3.064 0.725,-1.31 v 0.01 c 0,0 -0.688,1.248 -0.689,1.25 0,0 1.383,0 1.387,0 l 1.703,3.065 0.726,-1.317 v 0 c 0,0 -0.688,1.249 -0.689,1.25 0,0 1.383,0 1.387,0 l 1.703,3.065 0.722,-1.309 v 0 c 0,0 -0.692,1.253 -0.693,1.254 0,0 1.389,0 1.393,0 l 1.697,3.054 0.723,-1.304 v 0 c 0,0 -0.686,1.244 -0.687,1.246 0,0 1.379,0 1.383,0 l 1.697,3.055 0.03,-0.05 c 0,0 1.379,0 1.383,0 l 1.697,3.055 0.725,-1.313 v 0 c 0,0 -0.687,1.245 -0.688,1.246 0,0 1.379,0 1.383,0 l 1.697,3.055 0.03,-0.06 v 0 c 0,0 0.684,-1.24 0.687,-1.246 v 0 l -0.685,1.242 c 0,0 1.375,0 1.379,0 l 1.697,3.055 0.03,-0.06 v 0 c 0,0 0.683,-1.232 0.686,-1.238 l -0.684,1.238 c 0,0 1.371,0 1.375,0 l 1.691,3.045 0.723,-1.308 v 0 c 0,0 -0.685,1.241 -0.686,1.243 v 0 c 0,0 1.381,0 1.385,0 l 1.686,3.035 0.03,-0.05 c 0,0 1.381,0 1.385,0 l 1.685,3.036 0.03,-0.05 c 0,0 1.371,0 1.375,0 l 1.685,3.035 0.721,-1.305 v 0 c 0,0 -0.683,1.237 -0.684,1.238 0,0 1.371,0 1.375,0 l 1.686,3.033 0.715,-1.295 v 0 c 0,0 -0.685,1.241 -0.686,1.243 0,0 1.375,0 1.379,0 l 1.68,3.024 0.709,-1.287 v 0 c 0,0 -0.679,1.231 -0.68,1.232 0,0 1.365,0 1.369,0 l 1.68,3.025 0.719,-1.3 v 0 c 0,0 -0.681,1.232 -0.681,1.233 0,0 1.365,0 1.369,0 l 1.68,3.023 0.713,-1.291 v 0 c 0,0 -0.682,1.237 -0.683,1.238 0,0 1.371,0 1.375,0 l 1.674,3.014 0.713,-1.291 v 0 c 0,0 -0.683,1.235 -0.684,1.236 0,0 1.369,0 1.373,0 l 1.676,3.015 0.03,-0.06 v 0 c 0,0 0.673,-1.219 0.676,-1.225 v 0 l -0.678,1.227 v 0 c 0,0 1.361,0 1.365,0 l 1.674,3.013 0.711,-1.287 v 0 c 0,0 -0.673,1.22 -0.674,1.221 0,0 1.352,0 1.356,0 l 1.673,3.013 0.711,-1.289 v 0 c 0,0 -0.673,1.222 -0.674,1.223 0,0 1.354,0 1.358,0 l 1.674,3.014 0.713,-1.291 v 0 c 0,0 -0.678,1.225 -0.678,1.227 0,0 1.359,0 1.363,0 l 1.668,3.004 0.03,-0.05 c 0,0 1.362,0 1.366,0 l 1.664,2.995 0.709,-1.284 v 0 c 0,0 -0.68,1.23 -0.68,1.231 0,0 1.361,0 1.365,0 l 1.664,2.994 0.03,-0.05 c 0,0 1.354,0 1.358,0 l 1.664,2.994 0.705,-1.279 v 0 c 0,0 -0.669,1.211 -0.67,1.212 0,0 1.342,0 1.346,0 l 1.664,2.994 0.707,-1.279 v 0.01 c 0,0 -0.672,1.215 -0.672,1.217 0,0 1.347,0 1.351,0 l 1.659,2.985 0.705,-1.278 v 0.01 c 0,0 -0.671,1.216 -0.671,1.217 0,0 1.347,0 1.351,0 l 1.658,2.984 0.702,-1.271 v 0 c 0,0 -0.672,1.215 -0.672,1.216 0,0 1.347,0 1.351,0 l 1.658,2.985 0.704,-1.276 v 0 c 0,0 -0.667,1.208 -0.668,1.209 0,0 1.338,0 1.342,0 l 1.658,2.984 0.706,-1.277 v 0.01 c 0,0 -0.667,1.208 -0.668,1.209 0,0 1.34,0 1.344,0 l 1.656,2.982 0.03,-0.06 v 0 c 0,0 0.667,-1.209 0.67,-1.214 v 0 l -0.668,1.21 c 0,0 1.342,0 1.345,0 l 1.651,2.973 0.701,-1.271 v 0 c 0,0 -0.666,1.204 -0.666,1.205 0,0 1.334,0 1.338,0 l 1.652,2.975 0.701,-1.272 v 0.01 c 0,0 -0.667,1.208 -0.668,1.209 0,0 1.34,0 1.344,0 l 1.646,2.965 0.03,-0.05 c 0,0 1.34,0 1.343,0 l 1.647,2.965 0.699,-1.268 v 0 c 0,0 -0.662,1.198 -0.662,1.199 0,0 1.328,0 1.332,0 l 1.646,2.965 0.702,-1.27 v 0 c 0,0 -0.663,1.2 -0.664,1.201 0,0 1.331,0 1.334,0 l 1.647,2.963 0.699,-1.266 v 0 c 0,0 -0.663,1.2 -0.664,1.201 0,0 1.33,0 1.334,0 l 1.646,2.963 0.03,-0.06 v 0 c 0,0 0.663,-1.202 0.666,-1.207 v 0 l -0.664,1.203 c 0,0 1.332,0 1.336,0 l 1.64,2.953 0.03,-0.05 v 0 c 0,0 0.664,-1.2 0.666,-1.205 v 0 l -0.668,1.209 v 0 c 0,0 1.342,0 1.346,0 l 1.635,2.943 0.691,-1.254 v 0 c 0,0 -0.661,1.198 -0.662,1.199 0,0 1.328,0 1.332,0 l 1.637,2.945 0.695,-1.259 v 0 c 0,0 -0.657,1.191 -0.658,1.192 0,0 1.32,0 1.324,0 l 1.635,2.943 0.691,-1.254 v 0.01 c 0,0 -0.657,1.19 -0.658,1.191 0,0 1.32,0 1.324,0 l 1.635,2.943 0.697,-1.263 v 0 c 0,0 -0.659,1.196 -0.66,1.197 0,0 1.326,0 1.33,0 l 1.629,2.933 0.689,-1.25 v 0 c 0,0 -0.659,1.197 -0.66,1.198 0,0 1.327,0 1.33,0 l 1.629,2.934 0.03,-0.06 v 0 c 0,0 0.66,-1.194 0.663,-1.199 v 0 l -0.661,1.195 c 0,0 1.325,0 1.328,0 l 1.629,2.934 0.03,-0.05 c 0,0 1.332,0 1.336,0 l 1.625,2.926 0.03,-0.05 c 0,0 1.322,0 1.326,0 l 1.625,2.924 0.03,-0.06 v 0 c 0,0 0.656,-1.186 0.659,-1.191 v 0 l -0.657,1.189 c 0,0 1.317,0 1.321,0 l 1.625,2.926 0.685,-1.244 v 0 c 0,0 -0.656,1.189 -0.656,1.19 0,0 1.316,0 1.32,0 l 1.619,2.914 0.692,-1.252 v 0.01 c 0,0 -0.658,1.19 -0.659,1.191 0,0 1.319,0 1.323,0 l 1.619,2.914 0.03,-0.06 v 0 c 0,0 0.654,-1.184 0.656,-1.189 v 0 l -0.654,1.185 c 0,0 1.313,0 1.316,0 l 1.62,2.914 0.689,-1.248 v 0 c 0,0 -0.658,1.193 -0.658,1.194 0,0 1.322,0 1.326,0 l 1.613,2.905 c 0,0 0.664,-1.204 0.684,-1.241 v 0 c 0,0 -0.656,1.187 -0.656,1.188 0,0 1.314,0 1.318,0 l 1.613,2.902 c 0,0 0.662,-1.2 0.682,-1.236 v 0 c 0,0 -0.654,1.184 -0.655,1.185 0,0 1.313,0 1.317,0 l 1.613,2.904 c 0,0 0.03,-0.06 0.03,-0.06 v 0 c 0,0 0.652,-1.183 0.655,-1.188 v 0 c -0.02,0.03 -0.651,1.181 -0.653,1.184 0,0 1.311,0 1.315,0 l 1.613,2.904 c 0,0 0.03,-0.06 0.03,-0.06 v 0 c 0,0 0.648,-1.17 0.651,-1.175 v 0 c -0.02,0.03 -0.647,1.171 -0.649,1.173 0,0 1.299,0 1.303,0 l 1.613,2.905 c 0,0 0.665,-1.204 0.684,-1.239 v 0 c 0,0 -0.646,1.171 -0.647,1.172 0,0 1.3,0 1.303,0 l 1.608,2.894 c 0,0 0.662,-1.2 0.681,-1.234 v 0.01 c 0,0 -0.648,1.173 -0.648,1.174 0,0 1.299,0 1.302,0 l 1.608,2.892 c 0,0 0.665,-1.205 0.683,-1.238 v 0 c 0,0 -0.646,1.171 -0.646,1.171 0,0 1.299,0 1.303,0 l 1.607,2.895 c 0,0 0.03,-0.06 0.03,-0.06 v 0 c 0,0 0.648,-1.171 0.651,-1.175 -0.02,0.03 -0.647,1.173 -0.649,1.175 0,0 1.301,0 1.305,0 l 1.601,2.883 c 0,0 0.662,-1.198 0.68,-1.23 v 0 c 0,0 -0.65,1.177 -0.65,1.178 0,0 1.303,0 1.306,0 l 1.604,2.885 c 0,0 0.03,-0.06 0.03,-0.06 v 0 c 0,0 0.642,-1.163 0.645,-1.168 v 0 c -0.02,0.03 -0.642,1.164 -0.643,1.166 0,0 1.291,0 1.295,0 l 1.601,2.885 c 0,0 0.661,-1.195 0.678,-1.227 v 0 c 0,0 -0.64,1.159 -0.64,1.16 0,0 1.285,0 1.289,0 l 1.601,2.883 c 0,0 0.663,-1.199 0.68,-1.23 v 0 c 0,0 -0.642,1.163 -0.643,1.164 0,0 1.29,0 1.293,0 l 1.596,2.873 c 0,0 0.662,-1.199 0.68,-1.23 v 0 c 0,0 -0.642,1.163 -0.642,1.164 0,0 1.289,0 1.293,0 l 1.596,2.873 c 0,0 0.03,-0.06 0.03,-0.06 v 0 c 0,0 0.64,-1.157 0.642,-1.162 -0.01,0.03 -0.641,1.164 -0.642,1.166 v 0 c 0,0 1.295,0 1.299,0 l 1.589,2.863 c 0,0 0.658,-1.193 0.674,-1.223 v 0 c 0,0 -0.636,1.153 -0.637,1.154 0,0 1.278,0 1.282,0 l 1.597,2.875 c 0,0 0.662,-1.197 0.678,-1.226 v 0 c 0,0 -0.64,1.159 -0.641,1.16 0,0 1.284,0 1.288,0 l 1.591,2.865 c 0,0 0.03,-0.06 0.03,-0.06 v 0 c 0,0 0.638,-1.153 0.64,-1.158 -0.01,0.03 -0.637,1.156 -0.638,1.158 0,0 1.283,0 1.287,0 l 1.589,2.863 c 0,0 0.66,-1.193 0.676,-1.222 v 0 c 0,0 -0.638,1.155 -0.639,1.156 0,0 1.28,0 1.284,0 l 1.586,2.853 c 0,0 0.656,-1.19 0.671,-1.219 v 0.01 c 0,0 -0.638,1.153 -0.638,1.154 0,0 1.279,0 1.283,0 l 1.586,2.856 c 0,0 0.03,-0.06 0.03,-0.06 v 0 c 0,0 0.636,-1.149 0.639,-1.154 -0.02,0.03 -0.636,1.152 -0.637,1.154 0,0 1.278,0 1.281,0 l 1.586,2.854 c 0,0 0.657,-1.192 0.672,-1.219 v 0 c 0,0 -0.634,1.151 -0.635,1.152 0,0 1.276,0 1.279,0 l 1.581,2.846 c 0,0 0.655,-1.188 0.669,-1.215 v 0 c 0,0 -0.636,1.154 -0.636,1.155 0,0 1.277,0 1.281,0 l 1.58,2.843 c 0,0 0.657,-1.19 0.672,-1.216 v 0 c 0,0 -0.636,1.152 -0.637,1.153 0,0 1.276,0 1.279,0 l 1.58,2.843 c 0,0 0.03,-0.06 0.03,-0.06 v 0 c 0,0 0.634,-1.146 0.636,-1.151 -0.01,0.02 -0.633,1.149 -0.634,1.151 0,0 1.273,0 1.277,0 l 1.58,2.843 c 0,0 0.03,-0.06 0.03,-0.06 v 0 c 0,0 0.632,-1.146 0.635,-1.151 v 0 c -0.01,0.02 -0.632,1.145 -0.633,1.147 0,0 1.27,0 1.274,0 l 1.574,2.834 c 0,0 0.655,-1.189 0.67,-1.215 v 0 c 0,0 -0.635,1.147 -0.635,1.148 v 0.01 c 0,0 1.278,0 1.281,0 l 1.569,2.824 c 0,0 0.652,-1.182 0.666,-1.207 v 0 c 0,0 -0.637,1.151 -0.637,1.152 0,0 1.278,0 1.281,0 l 1.568,2.824 c 0,0 0.651,-1.18 0.664,-1.205 v 0.01 c 0,0 -0.63,1.144 -0.631,1.144 0,0 1.269,0 1.272,0 l 1.568,2.825 c 0,0 0.03,-0.06 0.03,-0.06 v 0 c 0,0 0.634,-1.148 0.636,-1.152 -0.01,0.02 -0.633,1.15 -0.634,1.152 0,0 1.275,0 1.279,0 l 1.568,2.824 c 0,0 0.03,-0.06 0.03,-0.06 v 0 c 0,0 0.629,-1.14 0.631,-1.145 v 0 c -0.01,0.02 -0.627,1.138 -0.629,1.141 0,0 1.265,0 1.268,0 l 1.568,2.825 c 0,0 0.03,-0.06 0.03,-0.06 v 0 c 0,0 0.628,-1.14 0.63,-1.144 v 0 c -0.01,0.02 -0.629,1.14 -0.63,1.142 0,0 1.266,0 1.269,0 l 1.568,2.824 c 0,0 0.03,-0.06 0.03,-0.06 v 0 c 0,0 0.626,-1.136 0.629,-1.141 v 0 c -0.01,0.02 -0.626,1.134 -0.627,1.137 0,0 1.258,0 1.261,0 l 1.565,2.815 c 0,0 0.653,-1.183 0.666,-1.207 v 0 c 0,0 -0.629,1.139 -0.629,1.14 0,0 1.262,0 1.265,0 l 1.565,2.815 c 0,0 0.03,-0.06 0.03,-0.06 v 0 c 0,0 0.623,-1.126 0.625,-1.131 v 0 c -0.01,0.02 -0.622,1.127 -0.623,1.129 0,0 1.249,0 1.252,0 l 1.564,2.814 c 0,0 0.652,-1.179 0.665,-1.203 v 0 c 0,0 -0.626,1.136 -0.626,1.137 0,0 1.258,0 1.261,0 l 1.559,2.804 c 0,0 0.645,-1.17 0.658,-1.193 v 0.01 c 0,0 -0.625,1.13 -0.625,1.131 0,0 1.252,0 1.256,0 l 1.552,2.795 c 0,0 0.648,-1.172 0.661,-1.195 v 0.01 c 0,0 -0.624,1.132 -0.625,1.133 0,0 1.255,0 1.258,0 l 1.553,2.795 c 0,0 0.646,-1.171 0.658,-1.193 v 0.01 c 0,0 -0.624,1.132 -0.625,1.133 0,0 1.255,0 1.258,0 l 1.553,2.795 c 0,0 0.649,-1.176 0.662,-1.199 v 0 c 0,0 -0.625,1.132 -0.625,1.133 0,0 1.254,0 1.258,0 l 1.552,2.795 c 0,0 0.03,-0.06 0.03,-0.06 v 0 c 0,0 0.622,-1.128 0.625,-1.133 v 0 c -0.01,0.02 -0.621,1.127 -0.623,1.129 0,0 1.251,0 1.254,0 l 1.553,2.795 c 0,0 0.03,-0.06 0.03,-0.06 v 0 c 0,0 0.621,-1.124 0.623,-1.129 v 0 c -0.01,0.02 -0.62,1.125 -0.621,1.127 0,0 1.247,0 1.25,0 l 1.547,2.783 c 0,0 0.645,-1.168 0.656,-1.189 v 0.01 c 0,0 -0.622,1.126 -0.623,1.127 0,0 1.249,0 1.252,0 l 1.547,2.784 c 0,0 0.03,-0.06 0.03,-0.06 v 0 c 0,0 0.621,-1.124 0.623,-1.129 v 0 c -0.01,0.02 -0.62,1.123 -0.621,1.125 0,0 1.247,0 1.25,0 l 1.547,2.785 c 0,0 0.03,-0.06 0.03,-0.06 v 0 c 0,0 0.621,-1.125 0.623,-1.129 v 0 c -0.01,0.02 -0.62,1.122 -0.621,1.125 0,0 1.247,0 1.25,0 l 1.547,2.786 c 0,0 0.03,-0.06 0.03,-0.06 v 0 c 0,0 0.619,-1.12 0.622,-1.125 v 0 c -0.01,0.02 -0.619,1.121 -0.62,1.123 0,0 1.243,0 1.246,0 l 1.541,2.773 c 0,0 0.641,-1.161 0.653,-1.181 v 0 c 0,0 -0.617,1.116 -0.617,1.117 0,0 1.237,0 1.24,0 l 1.541,2.773 c 0,0 0.641,-1.161 0.652,-1.182 v 0 c 0,0 -0.615,1.115 -0.615,1.115 0,0 1.237,0 1.24,0 l 1.541,2.776 c 0,0 0.643,-1.166 0.654,-1.186 v 0 c 0,0 -0.618,1.118 -0.619,1.119 0,0 1.241,0 1.244,0 l 1.535,2.764 c 0,0 0.64,-1.158 0.651,-1.178 v 0 c 0,0 -0.621,1.124 -0.621,1.125 0,0 1.246,0 1.25,0 l 1.529,2.754 c 0,0 0.03,-0.05 0.03,-0.05 0,0 1.249,0 1.252,0 l 1.53,2.754 c 0,0 0.633,-1.149 0.644,-1.168 v 0 c 0,0 -0.617,1.116 -0.617,1.117 0,0 1.237,0 1.24,0 l 1.529,2.754 c 0,0 0.642,-1.164 0.653,-1.184 v 0 c 0,0 -0.615,1.114 -0.616,1.115 0,0 1.237,0 1.241,0 l 1.529,2.754 c 0,0 0.03,-0.06 0.03,-0.06 v 0 c 0,0 0.613,-1.111 0.615,-1.115 v 0 c -0.01,0.02 -0.616,1.117 -0.617,1.119 v 0 c 0,0 1.241,0 1.244,0 l 1.526,2.744 c 0,0 0.03,-0.06 0.03,-0.06 v 0 c 0,0 0.609,-1.103 0.611,-1.107 v 0 c 0,0.02 -0.608,1.103 -0.609,1.105 0,0 1.223,0 1.226,0 l 1.53,2.754 c 0,0 0.64,-1.16 0.65,-1.18 v 0 c 0,0 -0.613,1.111 -0.613,1.112 0,0 1.231,0 1.234,0 l 1.526,2.745 c 0,0 0.03,-0.06 0.03,-0.06 v 0 c 0,0 0.611,-1.107 0.613,-1.111 v 0 c -0.01,0.02 -0.61,1.107 -0.611,1.109 0,0 1.227,0 1.23,0 l 1.526,2.744 c 0,0 0.03,-0.06 0.03,-0.06 0,0 0.607,-1.097 0.609,-1.101 0,0.02 -0.606,1.1 -0.607,1.101 0,0 1.219,0 1.222,0 l 1.526,2.744 c 0,0 0.638,-1.155 0.648,-1.173 v 0 c 0,0 -0.611,1.106 -0.611,1.107 0,0 1.227,0 1.23,0 l 1.52,2.734 c 0,0 0.635,-1.148 0.644,-1.166 v 0 c 0,0 -0.614,1.113 -0.615,1.113 0,0 1.233,0 1.237,0 l 1.513,2.725 c 0,0 0.03,-0.05 0.03,-0.05 0,0 1.224,0 1.227,0 l 1.514,2.725 c 0,0 0.632,-1.149 0.642,-1.166 v 0.01 c 0,0 -0.609,1.105 -0.609,1.106 0,0 1.223,0 1.226,0 l 1.514,2.722 c 0,0 0.03,-0.06 0.03,-0.06 v 0 c 0,0 0.607,-1.102 0.61,-1.106 v 0 c -0.01,0.02 -0.607,1.1 -0.608,1.102 0,0 1.22,0 1.223,0 l 1.514,2.722 c 0,0 0.03,-0.06 0.03,-0.06 0,0 0.607,-1.102 0.609,-1.106 v 0 c 0,0.02 -0.608,1.102 -0.609,1.104 0,0 1.221,0 1.224,0 l 1.514,2.723 c 0,0 0.03,-0.06 0.03,-0.06 v 0 c 0,0 0.605,-1.097 0.608,-1.101 v 0 c 0,0.02 -0.605,1.096 -0.606,1.097 0,0 1.216,0 1.219,0 l 1.508,2.713 c 0,0 0.627,-1.135 0.637,-1.152 v 0.01 c 0,0 -0.603,1.091 -0.603,1.091 0,0 1.21,0 1.213,0 l 1.508,2.713 c 0,0 0.629,-1.141 0.638,-1.158 v 0 c 0,0 -0.603,1.093 -0.603,1.094 0,0 1.209,0 1.213,0 l 1.507,2.713 c 0,0 0.632,-1.145 0.641,-1.162 v 0 c 0,0 -0.605,1.097 -0.606,1.098 0,0 1.216,0 1.219,0 l 1.502,2.703 c 0,0 0.626,-1.13 0.635,-1.147 0,0 -0.605,1.097 -0.606,1.098 0,0 1.216,0 1.219,0 l 1.502,2.703 c 0,0 0.03,-0.06 0.03,-0.06 v 0 c 0,0 0.604,-1.091 0.606,-1.095 v 0 c 0,0.02 -0.603,1.091 -0.604,1.093 0,0 1.21,0 1.213,0 l 1.504,2.705 c 0,0 0.03,-0.06 0.03,-0.06 v 0 c 0,0 0.6,-1.084 0.602,-1.088 v 0 c 0,0.02 -0.597,1.082 -0.598,1.084 0,0 1.202,0 1.205,0 l 1.502,2.705 c 0,0 0.632,-1.144 0.641,-1.161 v 0 c 0,0 -0.603,1.093 -0.604,1.094 0,0 1.212,0 1.215,0 l 1.496,2.693 c 0,0 0.03,-0.06 0.03,-0.06 v 0 c 0,0 0.601,-1.09 0.603,-1.094 v 0 c 0,0.02 -0.601,1.088 -0.601,1.09 0,0 1.207,0 1.21,0 l 1.497,2.693 c 0,0 0.03,-0.05 0.03,-0.05 0,0 1.206,0 1.209,0 l 1.492,2.686 c 0,0 0.626,-1.133 0.635,-1.149 v 0 c 0,0 -0.597,1.083 -0.598,1.084 v 0.01 c 0,0 1.206,0 1.209,0 l 1.49,2.683 c 0,0 0.03,-0.06 0.03,-0.06 0,0 0.597,-1.084 0.599,-1.088 v 0 c 0,0.01 -0.599,1.084 -0.599,1.086 0,0 1.203,0 1.207,0 l 1.49,2.683 c 0,0 0.03,-0.06 0.03,-0.06 v 0 c 0,0 0.593,-1.076 0.596,-1.081 v 0 c 0,0.01 -0.595,1.077 -0.596,1.079 0,0 1.194,0 1.197,0 l 1.49,2.684 c 0,0 0.627,-1.135 0.635,-1.15 v 0 c 0,0 -0.599,1.086 -0.599,1.086 0,0 1.202,0 1.205,0 l 1.486,2.674 c 0,0 0.03,-0.05 0.03,-0.05 0,0 1.2,0 1.203,0 l 1.487,2.674 c 0,0 0.03,-0.06 0.03,-0.06 0,0 0.591,-1.07 0.594,-1.074 0,0.01 -0.591,1.073 -0.592,1.074 0,0 1.188,0 1.191,0 l 1.487,2.674 c 0,0 0.62,-1.125 0.629,-1.141 v 0 c 0,0 -0.593,1.076 -0.593,1.077 0,0 1.19,0 1.193,0 l 1.486,2.674 c 0,0 0.03,-0.06 0.03,-0.06 0,0 0.593,-1.076 0.595,-1.08 v 0 c 0,0.01 -0.594,1.076 -0.595,1.078 0,0 1.194,0 1.197,0 l 1.48,2.664 c 0,0 0.03,-0.06 0.03,-0.06 v 0 c 0,0 0.593,-1.076 0.595,-1.08 v 0 c 0,0.01 -0.593,1.074 -0.593,1.076 0,0 1.192,0 1.195,0 l 1.48,2.664 c 0,0 0.03,-0.06 0.03,-0.06 v 0 c 0,0 0.589,-1.066 0.591,-1.07 0,0.01 -0.589,1.069 -0.589,1.07 0,0 1.184,0 1.187,0 l 1.48,2.664 c 0,0 0.617,-1.118 0.625,-1.132 v 0 c 0,0 -0.589,1.068 -0.589,1.069 0,0 1.182,0 1.185,0 l 1.475,2.654 c 0,0 0.615,-1.117 0.623,-1.131 v 0.01 c 0,0 -0.59,1.067 -0.59,1.068 0,0 1.182,0 1.185,0 l 1.475,2.654 c 0,0 0.621,-1.124 0.629,-1.138 v 0 c 0,0 -0.592,1.072 -0.592,1.073 0,0 1.188,0 1.191,0 l 1.469,2.644 c 0,0 0.03,-0.05 0.03,-0.05 0,0 1.189,0 1.192,0 l 1.469,2.645 c 0,0 0.03,-0.06 0.03,-0.06 v 0 c 0,0 0.589,-1.066 0.592,-1.07 0,0.01 -0.589,1.068 -0.59,1.07 0,0 1.186,0 1.189,0 l 1.469,2.645 c 0,0 0.611,-1.106 0.619,-1.12 0,0 -0.589,1.07 -0.59,1.071 0,0 1.185,0 1.188,0 l 1.463,2.632 c 0,0 0.615,-1.115 0.623,-1.129 v 0.01 c 0,0 -0.59,1.068 -0.59,1.069 0,0 1.184,0 1.187,0 l 1.463,2.633 c 0,0 0.03,-0.06 0.03,-0.06 v 0 c 0,0 0.588,-1.065 0.59,-1.069 v 0 c 0,0.01 -0.587,1.065 -0.588,1.067 0,0 1.181,0 1.184,0 l 1.463,2.632 c 0,0 0.608,-1.103 0.615,-1.117 v 0 c 0,0 -0.588,1.064 -0.588,1.064 0,0 1.179,0 1.182,0 l 1.457,2.623 c 0,0 0.609,-1.103 0.617,-1.117 v 0.01 c 0,0 -0.582,1.054 -0.582,1.055 0,0 1.169,0 1.172,0 l 1.457,2.623 c 0,0 0.609,-1.103 0.617,-1.117 v 0.01 c 0,0 -0.582,1.054 -0.582,1.055 0,0 1.169,0 1.172,0 l 1.457,2.623 c 0,0 0.611,-1.108 0.619,-1.122 v 0 c 0,0 -0.582,1.054 -0.582,1.055 0,0 1.167,0 1.169,0 l 1.459,2.625 c 0,0 0.606,-1.1 0.614,-1.113 v 0 c 0,0 -0.576,1.045 -0.577,1.045 0,0 1.158,0 1.161,0 l 1.459,2.625 c 0,0 0.613,-1.113 0.621,-1.127 v 0 c 0,0 -0.584,1.058 -0.584,1.059 0,0 1.172,0 1.175,0 l 1.454,2.616 c 0,0 0.606,-1.095 0.613,-1.108 0,0 -0.582,1.056 -0.582,1.057 0,0 1.169,0 1.172,0 l 1.447,2.603 c 0,0 0.61,-1.104 0.617,-1.117 v 0.01 c 0,0 -0.582,1.054 -0.582,1.054 0,0 1.169,0 1.172,0 l 1.447,2.604 c 0,0 0.03,-0.05 0.03,-0.05 0,0 1.171,0 1.174,0 l 1.447,2.605 c 0,0 0.03,-0.06 0.03,-0.06 v 0 c 0,0 0.582,-1.053 0.584,-1.057 v 0 c 0,0.01 -0.581,1.053 -0.582,1.055 0,0 1.167,0 1.17,0 l 1.447,2.603 c 0,0 0.602,-1.089 0.609,-1.101 0,0 -0.579,1.052 -0.58,1.052 0,0 1.165,0 1.168,0 l 1.442,2.594 c 0,0 0.602,-1.093 0.609,-1.105 v 0 c 0,0 -0.58,1.051 -0.58,1.051 0,0 1.165,0 1.168,0 l 1.441,2.596 c 0,0 0.606,-1.099 0.613,-1.112 v 0 c 0,0 -0.575,1.043 -0.576,1.043 0,0 1.156,0 1.158,0 l 1.442,2.594 c 0,0 0.03,-0.05 0.03,-0.05 0,0 1.155,0 1.158,0 l 1.442,2.596 c 0,0 0.608,-1.103 0.615,-1.116 v 0 c 0,0 -0.578,1.048 -0.578,1.049 0,0 1.161,0 1.164,0 l 1.435,2.584 c 0,0 0.03,-0.05 0.03,-0.05 0,0 1.163,0 1.166,0 l 1.435,2.584 c 0,0 0.03,-0.06 0.03,-0.06 v 0 c 0,0 0.573,-1.035 0.575,-1.039 v 0 c 0,0.01 -0.572,1.034 -0.573,1.035 0,0 1.148,0 1.151,0 l 1.435,2.584 c 0,0 0.599,-1.083 0.606,-1.095 v 0 c 0,0 -0.568,1.031 -0.569,1.032 0,0 1.142,0 1.145,0 l 1.435,2.584 c 0,0 0.603,-1.092 0.61,-1.104 v 0 c 0,0 -0.572,1.034 -0.573,1.035 0,0 1.148,0 1.151,0 l 1.43,2.574 c 0,0 0.597,-1.084 0.603,-1.096 v 0.01 c 0,0 -0.572,1.035 -0.572,1.035 0,0 1.147,0 1.15,0 l 1.43,2.574 c 0,0 0.03,-0.06 0.03,-0.06 v 0 c 0,0 0.57,-1.03 0.572,-1.033 0,0.01 -0.569,1.031 -0.57,1.033 0,0 1.146,0 1.148,0 l 1.43,2.574 c 0,0 0.599,-1.086 0.605,-1.098 v 0 c 0,0 -0.57,1.031 -0.57,1.031 0,0 1.142,0 1.145,0 l 1.425,2.565 c 0,0 0.598,-1.081 0.604,-1.092 v 0.01 c 0,0 -0.57,1.032 -0.571,1.033 0,0 1.144,0 1.147,0 l 1.424,2.562 c 0,0 0.03,-0.06 0.03,-0.06 0,0 0.566,-1.026 0.568,-1.03 0,0.01 -0.565,1.028 -0.566,1.03 0,0 1.138,0 1.141,0 l 1.425,2.565 c 0,0 0.596,-1.078 0.602,-1.09 v 0 c 0,0 -0.564,1.023 -0.565,1.023 0,0 1.132,0 1.135,0 l 1.426,2.565 c 0,0 0.597,-1.083 0.603,-1.094 v 0 c 0,0 -0.566,1.026 -0.566,1.027 0,0 1.138,0 1.141,0 l 1.42,2.555 c 0,0 0.03,-0.06 0.03,-0.06 v 0 c 0,0 0.564,-1.024 0.566,-1.027 v 0 c 0,0.01 -0.563,1.022 -0.564,1.023 0,0 1.134,0 1.136,0 l 1.42,2.555 c 0,0 0.592,-1.073 0.598,-1.084 v 0 c 0,0 -0.562,1.018 -0.563,1.019 v 0.01 c 0,0 1.134,0 1.137,0 l 1.414,2.545 c 0,0 0.596,-1.079 0.602,-1.09 v 0 c 0,0 -0.564,1.022 -0.565,1.023 0,0 1.134,0 1.137,0 l 1.414,2.545 c 0,0 0.592,-1.073 0.598,-1.084 v 0.01 c 0,0 -0.565,1.02 -0.565,1.021 0,0 1.132,0 1.135,0 l 1.414,2.545 c 0,0 0.03,-0.06 0.03,-0.06 v 0 c 0,0 0.563,-1.019 0.565,-1.023 v 0 c 0,0.01 -0.564,1.02 -0.565,1.021 0,0 1.13,0 1.133,0 l 1.414,2.543 c 0,0 0.03,-0.06 0.03,-0.06 v 0 c 0,0 0.567,-1.026 0.569,-1.03 v 0 c 0,0.01 -0.566,1.024 -0.567,1.026 0,0 1.136,0 1.139,0 l 1.408,2.534 c 0,0 0.586,-1.06 0.592,-1.071 0,0 -0.562,1.021 -0.563,1.022 0,0 1.13,0 1.133,0 l 1.408,2.533 c 0,0 0.588,-1.066 0.594,-1.076 v 0 c 0,0 -0.558,1.011 -0.559,1.011 0,0 1.121,0 1.124,0 l 1.408,2.535 c 0,0 0.591,-1.071 0.597,-1.082 v 0 c 0,0 -0.56,1.015 -0.56,1.016 0,0 1.126,0 1.129,0 l 1.402,2.523 c 0,0 0.588,-1.064 0.594,-1.074 v 0.01 c 0,0 -0.561,1.015 -0.561,1.015 0,0 1.124,0 1.127,0 l 1.402,2.524 c 0,0 0.03,-0.06 0.03,-0.06 v 0 c 0,0 0.558,-1.008 0.56,-1.012 0,0.01 -0.558,1.01 -0.558,1.012 0,0 1.122,0 1.125,0 l 0.582,1.049 h 947.281 v -619.582 h -0.307 c 0,-0.02 -1.084,-1.952 -1.084,-1.952 h -0.935 c 0,-0.01 -1.084,-1.953 -1.084,-1.953 h -0.948 c 0,-0.02 -1.084,-1.951 -1.084,-1.951 h -0.929 c 0,-0.01 -1.09,-1.963 -1.09,-1.963 h -0.951 c 0,-0.01 -1.088,-1.961 -1.088,-1.961 h -0.942 c 0,-0.01 -1.089,-1.963 -1.089,-1.963 h -0.952 c 0,-0.02 -1.087,-1.961 -1.087,-1.961 h -0.946 c 0,-0.01 -1.095,-1.972 -1.095,-1.972 h -0.946 c 0,-0.02 -1.094,-1.971 -1.094,-1.971 h -0.949 c 0,-0.02 -1.101,-1.983 -1.101,-1.983 h -0.953 c 0,-0.01 -1.096,-1.972 -1.096,-1.972 h -0.949 c 0,-0.02 -1.102,-1.983 -1.102,-1.983 h -0.955 c 0,-0.02 -1.105,-1.99 -1.105,-1.99 h -0.957 c 0,-0.02 -1.102,-1.983 -1.102,-1.983 h -0.955 c 0,-0.02 -1.106,-1.992 -1.106,-1.992 h -0.964 c 0,-0.02 -1.106,-1.992 -1.106,-1.992 h -0.959 c 0,-0.02 -1.111,-2.002 -1.111,-2.002 h -0.959 c 0,-0.02 -1.112,-2.002 -1.112,-2.002 h -0.968 c 0,-0.02 -1.112,-2.002 -1.112,-2.002 h -0.957 c 0,-0.02 -1.111,-2.002 -1.111,-2.002 h -0.973 c 0,-0.02 -1.117,-2.012 -1.117,-2.012 h -0.963 c 0,-0.02 -1.117,-2.012 -1.117,-2.012 h -0.975 c 0,-0.02 -1.117,-2.011 -1.117,-2.011 h -0.966 c -0.01,-0.02 -1.124,-2.024 -1.124,-2.024 h -0.966 l -1.123,-2.021 h -0.977 l -1.123,-2.022 h -0.973 c 0,-0.02 -1.127,-2.031 -1.127,-2.031 h -0.98 c -0.01,-0.02 -1.129,-2.033 -1.129,-2.033 h -0.975 c 0,-0.02 -1.127,-2.032 -1.127,-2.032 h -0.98 c -0.01,-0.02 -1.129,-2.033 -1.129,-2.033 h -0.986 c -0.01,-0.02 -1.133,-2.041 -1.133,-2.041 h -0.988 c -0.01,-0.02 -1.133,-2.041 -1.133,-2.041 h -0.969 c -0.01,-0.02 -1.141,-2.053 -1.141,-2.053 h -0.99 c -0.01,-0.02 -1.14,-2.053 -1.14,-2.053 h -0.981 c -0.01,-0.02 -1.139,-2.051 -1.139,-2.051 h -0.99 c -0.01,-0.02 -1.14,-2.052 -1.14,-2.052 h -1 c -0.01,-0.02 -1.139,-2.051 -1.139,-2.051 h -0.986 c -0.01,-0.02 -1.145,-2.063 -1.145,-2.063 h -0.99 c -0.01,-0.02 -1.151,-2.072 -1.151,-2.072 h -0.994 c -0.01,-0.02 -1.144,-2.063 -1.144,-2.063 h -1 c -0.01,-0.02 -1.151,-2.072 -1.151,-2.072 h -1 c -0.01,-0.02 -1.15,-2.07 -1.15,-2.07 h -0.994 c -0.01,-0.02 -1.156,-2.082 -1.156,-2.082 h -0.998 c -0.01,-0.02 -1.151,-2.073 -1.151,-2.073 h -1.004 c -0.01,-0.02 -1.156,-2.082 -1.156,-2.082 h -0.998 c -0.01,-0.02 -1.162,-2.092 -1.162,-2.092 h -0.998 c -0.01,-0.02 -1.162,-2.091 -1.162,-2.091 h -1.008 c -0.01,-0.02 -1.162,-2.092 -1.162,-2.092 h -1.008 c -0.01,-0.02 -1.162,-2.094 -1.162,-2.094 h -1.018 c -0.01,-0.02 -1.162,-2.092 -1.162,-2.092 h -1.006 c -0.01,-0.02 -1.166,-2.101 -1.166,-2.101 h -1.008 c -0.01,-0.02 -1.171,-2.112 -1.171,-2.112 h -1.014 c -0.01,-0.02 -1.166,-2.101 -1.166,-2.101 h -1.016 c -0.01,-0.02 -1.174,-2.114 -1.174,-2.114 h -1.017 c -0.01,-0.02 -1.172,-2.111 -1.172,-2.111 h -1.02 c -0.01,-0.02 -1.171,-2.112 -1.171,-2.112 h -1.02 c -0.01,-0.02 -1.18,-2.123 -1.18,-2.123 h -1.021 c -0.01,-0.02 -1.178,-2.121 -1.178,-2.121 h -1.021 c -0.01,-0.02 -1.18,-2.123 -1.18,-2.123 h -1.016 c -0.01,-0.02 -1.183,-2.131 -1.183,-2.131 h -1.028 c -0.01,-0.02 -1.183,-2.133 -1.183,-2.133 h -1.026 c -0.01,-0.02 -1.183,-2.131 -1.183,-2.131 h -1.031 c -0.01,-0.02 -1.19,-2.142 -1.19,-2.142 h -1.031 c -0.01,-0.02 -1.19,-2.143 -1.19,-2.143 h -1.029 c -0.01,-0.02 -1.189,-2.14 -1.189,-2.14 h -1.032 c -0.01,-0.02 -1.189,-2.143 -1.189,-2.143 h -1.035 c -0.01,-0.02 -1.195,-2.152 -1.195,-2.152 h -1.034 c -0.01,-0.02 -1.195,-2.153 -1.195,-2.153 h -1.029 c -0.01,-0.02 -1.201,-2.162 -1.201,-2.162 h -1.047 c -0.01,-0.02 -1.194,-2.15 -1.194,-2.15 h -1.039 c -0.01,-0.02 -1.201,-2.163 -1.201,-2.163 h -1.035 c -0.01,-0.02 -1.205,-2.172 -1.205,-2.172 h -1.049 c -0.01,-0.02 -1.201,-2.162 -1.201,-2.162 h -1.045 c -0.01,-0.02 -1.205,-2.172 -1.205,-2.172 h -1.045 c -0.01,-0.02 -1.205,-2.172 -1.205,-2.172 h -1.049 l -1.211,-2.181 h -1.047 c -0.01,-0.02 -1.213,-2.184 -1.213,-2.184 h -1.049 c -0.01,-0.02 -1.21,-2.182 -1.21,-2.182 h -1.049 c -0.01,-0.02 -1.211,-2.181 -1.211,-2.181 h -1.055 c -0.01,-0.02 -1.217,-2.192 -1.217,-2.192 h -1.052 c -0.01,-0.02 -1.217,-2.191 -1.217,-2.191 h -1.061 c -0.01,-0.02 -1.219,-2.194 -1.219,-2.194 h -1.056 c -0.01,-0.02 -1.223,-2.201 -1.223,-2.201 h -1.058 c -0.01,-0.02 -1.223,-2.203 -1.223,-2.203 h -1.057 c -0.01,-0.02 -1.222,-2.201 -1.222,-2.201 h -1.063 c -0.01,-0.02 -1.228,-2.211 -1.228,-2.211 h -1.061 c -0.01,-0.02 -1.228,-2.213 -1.228,-2.213 h -1.063 c -0.01,-0.02 -1.228,-2.213 -1.228,-2.213 h -1.071 c -0.01,-0.02 -1.228,-2.211 -1.228,-2.211 h -1.067 c -0.01,-0.02 -1.234,-2.223 -1.234,-2.223 h -1.066 c -0.01,-0.02 -1.233,-2.22 -1.233,-2.22 h -1.07 c -0.01,-0.02 -1.24,-2.233 -1.24,-2.233 h -1.077 c -0.01,-0.02 -1.234,-2.223 -1.234,-2.223 h -1.072 c -0.01,-0.03 -1.239,-2.23 -1.239,-2.23 h -1.072 c -0.01,-0.03 -1.246,-2.242 -1.246,-2.242 h -1.08 c -0.01,-0.03 -1.24,-2.233 -1.24,-2.233 h -1.076 c -0.02,-0.02 -1.245,-2.242 -1.245,-2.242 h -1.076 c -0.01,-0.03 -1.244,-2.242 -1.244,-2.242 h -1.08 c -0.01,-0.03 -1.25,-2.252 -1.25,-2.252 h -1.08 c -0.01,-0.03 -1.25,-2.252 -1.25,-2.252 h -1.09 c -0.01,-0.03 -1.25,-2.252 -1.25,-2.252 h -1.09 c -0.01,-0.03 -1.25,-2.252 -1.25,-2.252 h -1.084 c -0.01,-0.03 -1.256,-2.262 -1.256,-2.262 h -1.084 c -0.01,-0.03 -1.255,-2.262 -1.255,-2.262 h -1.094 c -0.02,-0.03 -1.256,-2.262 -1.256,-2.262 h -1.09 c -0.01,-0.03 -1.262,-2.271 -1.262,-2.271 h -1.087 c -0.01,-0.03 -1.262,-2.274 -1.262,-2.274 h -1.098 c -0.02,-0.03 -1.262,-2.271 -1.262,-2.271 h -1.091 c -0.02,-0.03 -1.268,-2.281 -1.268,-2.281 h -1.094 c -0.01,-0.03 -1.267,-2.284 -1.267,-2.284 h -1.102 c -0.01,-0.03 -1.267,-2.281 -1.267,-2.281 h -1.104 c -0.02,-0.03 -1.267,-2.281 -1.267,-2.281 h -1.096 c -0.02,-0.03 -1.274,-2.293 -1.274,-2.293 h -1.109 c -0.02,-0.03 -1.271,-2.291 -1.271,-2.291 h -1.1 c -0.02,-0.03 -1.279,-2.303 -1.279,-2.303 h -1.11 c -0.02,-0.03 -1.271,-2.291 -1.271,-2.291 h -1.1 l -1.279,-2.303 h -1.108 c -0.02,-0.03 -1.283,-2.313 -1.283,-2.313 h -1.113 l -1.277,-2.3 h -1.116 c -0.02,-0.03 -1.283,-2.313 -1.283,-2.313 h -1.111 c -0.02,-0.03 -1.289,-2.322 -1.289,-2.322 h -1.115 c -0.02,-0.03 -1.286,-2.313 -1.286,-2.313 h -1.111 c -0.02,-0.03 -1.289,-2.32 -1.289,-2.32 h -1.121 c -0.02,-0.03 -1.289,-2.322 -1.289,-2.322 h -1.115 c -0.02,-0.03 -1.295,-2.333 -1.295,-2.333 h -1.121 c -0.02,-0.03 -1.289,-2.322 -1.289,-2.322 h -1.125 c -0.02,-0.03 -1.295,-2.332 -1.295,-2.332 h -1.12 c -0.02,-0.03 -1.3,-2.342 -1.3,-2.342 h -1.135 c -0.02,-0.03 -1.295,-2.332 -1.295,-2.332 h -1.119 c -0.02,-0.03 -1.301,-2.342 -1.301,-2.342 h -1.123 c -0.02,-0.03 -1.307,-2.351 -1.307,-2.351 h -1.129 c -0.02,-0.03 -1.3,-2.342 -1.3,-2.342 h -1.135 c -0.02,-0.03 -1.307,-2.354 -1.307,-2.354 h -1.133 c -0.02,-0.03 -1.306,-2.351 -1.306,-2.351 h -1.129 c -0.02,-0.03 -1.311,-2.362 -1.311,-2.362 h -1.136 c -0.02,-0.03 -1.313,-2.363 -1.313,-2.363 h -1.14 c -0.02,-0.03 -1.311,-2.361 -1.311,-2.361 h -1.139 c -0.02,-0.03 -1.31,-2.362 -1.31,-2.362 h -1.133 c -0.02,-0.03 -1.318,-2.373 -1.318,-2.373 h -1.143 c -0.02,-0.03 -1.316,-2.371 -1.316,-2.371 h -1.145 c -0.02,-0.03 -1.316,-2.371 -1.316,-2.371 h -1.145 c -0.02,-0.03 -1.324,-2.383 -1.324,-2.383 h -1.139 c -0.02,-0.03 -1.322,-2.383 -1.322,-2.383 h -1.148 c -0.02,-0.03 -1.323,-2.383 -1.323,-2.383 h -1.15 c -0.02,-0.03 -1.328,-2.392 -1.328,-2.392 h -1.143 c -0.02,-0.03 -1.328,-2.393 -1.328,-2.393 h -1.162 c -0.02,-0.03 -1.328,-2.393 -1.328,-2.393 h -1.152 c -0.02,-0.03 -1.329,-2.392 -1.329,-2.392 h -1.144 c -0.02,-0.04 -1.334,-2.403 -1.334,-2.403 h -1.156 c -0.02,-0.03 -1.334,-2.402 -1.334,-2.402 h -1.166 c -0.02,-0.04 -1.334,-2.403 -1.334,-2.403 h -1.151 c -0.02,-0.04 -1.34,-2.412 -1.34,-2.412 h -1.16 c -0.02,-0.04 -1.34,-2.412 -1.34,-2.412 h -1.16 c -0.02,-0.04 -1.34,-2.412 -1.34,-2.412 h -1.164 c -0.02,-0.04 -1.345,-2.422 -1.345,-2.422 h -1.164 c -0.02,-0.04 -1.346,-2.422 -1.346,-2.422 h -1.164 c -0.02,-0.04 -1.346,-2.422 -1.346,-2.422 h -1.172 c -0.02,-0.04 -1.349,-2.431 -1.349,-2.431 h -1.164 c -0.02,-0.04 -1.346,-2.423 -1.346,-2.423 h -1.172 c -0.02,-0.04 -1.357,-2.444 -1.357,-2.444 h -1.17 c -0.02,-0.04 -1.35,-2.433 -1.35,-2.433 h -1.176 c -0.02,-0.04 -1.355,-2.443 -1.355,-2.443 h -1.174 c -0.02,-0.04 -1.356,-2.443 -1.356,-2.443 h -1.171 c -0.02,-0.04 -1.358,-2.446 -1.358,-2.446 h -1.18 c -0.02,-0.04 -1.361,-2.453 -1.361,-2.453 h -1.178 c -0.02,-0.04 -1.361,-2.453 -1.361,-2.453 h -1.178 c -0.02,-0.04 -1.363,-2.455 -1.363,-2.455 h -1.184 c -0.02,-0.04 -1.367,-2.463 -1.367,-2.463 h -1.185 c -0.02,-0.04 -1.364,-2.456 -1.364,-2.456 h -1.177 c -0.02,-0.04 -1.373,-2.472 -1.373,-2.472 h -1.192 c -0.02,-0.04 -1.367,-2.465 -1.367,-2.465 h -1.187 c -0.02,-0.04 -1.373,-2.473 -1.373,-2.473 h -1.188 l -1.373,-2.473 h -1.197 c -0.02,-0.04 -1.373,-2.474 -1.373,-2.474 h -1.18 c -0.02,-0.04 -1.379,-2.483 -1.379,-2.483 h -1.203 c -0.02,-0.04 -1.377,-2.482 -1.377,-2.482 h -1.191 c -0.02,-0.04 -1.379,-2.485 -1.379,-2.485 h -1.196 c -0.02,-0.04 -1.384,-2.492 -1.384,-2.492 h -1.196 c -0.02,-0.04 -1.384,-2.494 -1.384,-2.494 h -1.206 c -0.02,-0.04 -1.384,-2.495 -1.384,-2.495 h -1.192 c -0.02,-0.04 -1.388,-2.504 -1.388,-2.504 h -1.202 c -0.02,-0.04 -1.388,-2.504 -1.388,-2.504 h -1.211 c -0.02,-0.04 -1.389,-2.504 -1.389,-2.504 h -1.213 l -1.388,-2.504 h -1.205 c -0.03,-0.05 -1.395,-2.513 -1.395,-2.513 h -1.205 c -0.02,-0.05 -1.395,-2.514 -1.395,-2.514 h -1.214 c -0.03,-0.05 -1.395,-2.514 -1.395,-2.514 h -1.211 c -0.03,-0.05 -1.4,-2.523 -1.4,-2.523 h -1.207 c -0.03,-0.05 -1.403,-2.526 -1.403,-2.526 h -1.209 c -0.03,-0.05 -1.4,-2.523 -1.4,-2.523 h -1.215 c -0.03,-0.05 -1.406,-2.534 -1.406,-2.534 h -1.223 c -0.03,-0.05 -1.406,-2.535 -1.406,-2.535 h -1.215 c -0.03,-0.05 -1.406,-2.533 -1.406,-2.533 h -1.223 c -0.03,-0.05 -1.406,-2.534 -1.406,-2.534 h -1.219 l -1.412,-2.545 h -1.228 c -0.03,-0.05 -1.413,-2.543 -1.413,-2.543 h -1.22 c -0.03,-0.05 -1.418,-2.554 -1.418,-2.554 h -1.229 c -0.03,-0.05 -1.412,-2.543 -1.412,-2.543 h -1.222 c -0.03,-0.05 -1.418,-2.554 -1.418,-2.554 h -1.225 c -0.03,-0.05 -1.424,-2.565 -1.424,-2.565 h -1.234 c -0.03,-0.05 -1.416,-2.553 -1.416,-2.553 h -1.237 c -0.03,-0.05 -1.423,-2.564 -1.423,-2.564 h -1.227 c -0.03,-0.05 -1.424,-2.565 -1.424,-2.565 h -1.232 c -0.03,-0.05 -1.428,-2.574 -1.428,-2.574 h -1.242 c -0.03,-0.05 -1.428,-2.572 -1.428,-2.572 h -1.232 c -0.03,-0.05 -1.428,-2.575 -1.428,-2.575 h -1.242 c -0.03,-0.05 -1.428,-2.574 -1.428,-2.574 h -1.246 c -0.03,-0.06 -1.434,-2.584 -1.434,-2.584 h -1.236 c -0.03,-0.06 -1.434,-2.584 -1.434,-2.584 h -1.24 l -1.439,-2.594 h -1.246 c -0.03,-0.06 -1.434,-2.584 -1.434,-2.584 h -1.252 c -0.03,-0.06 -1.439,-2.594 -1.439,-2.594 h -1.245 c -0.03,-0.06 -1.445,-2.604 -1.445,-2.604 h -1.25 c -0.03,-0.06 -1.439,-2.593 -1.439,-2.593 h -1.256 c -0.03,-0.06 -1.445,-2.606 -1.445,-2.606 h -1.245 c -0.03,-0.06 -1.445,-2.604 -1.445,-2.604 h -1.258 c -0.03,-0.06 -1.451,-2.613 -1.451,-2.613 h -1.25 c -0.03,-0.06 -1.451,-2.613 -1.451,-2.613 h -1.258 c -0.03,-0.06 -1.451,-2.616 -1.451,-2.616 h -1.26 c -0.03,-0.06 -1.451,-2.613 -1.451,-2.613 h -1.254 c -0.03,-0.06 -1.455,-2.623 -1.455,-2.623 h -1.264 c -0.03,-0.06 -1.457,-2.625 -1.457,-2.625 h -1.265 c -0.03,-0.06 -1.455,-2.623 -1.455,-2.623 h -1.256 c -0.03,-0.06 -1.463,-2.635 -1.463,-2.635 h -1.27 l -1.461,-2.633 h -1.267 c -0.03,-0.06 -1.463,-2.635 -1.463,-2.635 h -1.264 c -0.03,-0.06 -1.467,-2.645 -1.467,-2.645 h -1.277 c -0.03,-0.06 -1.461,-2.633 -1.461,-2.633 h -1.267 c -0.04,-0.07 -1.473,-2.654 -1.473,-2.654 h -1.273 c -0.04,-0.07 -1.467,-2.645 -1.467,-2.645 h -1.278 c -0.04,-0.07 -1.472,-2.654 -1.472,-2.654 h -1.278 c -0.04,-0.07 -1.472,-2.652 -1.472,-2.652 h -1.278 c -0.04,-0.07 -1.472,-2.655 -1.472,-2.655 h -1.282 c -0.04,-0.07 -1.478,-2.664 -1.478,-2.664 h -1.272 c -0.04,-0.07 -1.478,-2.664 -1.478,-2.664 h -1.293 c -0.04,-0.07 -1.479,-2.664 -1.479,-2.664 h -1.275 c -0.04,-0.07 -1.484,-2.674 -1.484,-2.674 h -1.285 c -0.04,-0.07 -1.485,-2.674 -1.485,-2.674 h -1.285 c -0.04,-0.07 -1.484,-2.674 -1.484,-2.674 h -1.286 c -0.04,-0.07 -1.484,-2.674 -1.484,-2.674 h -1.291 c -0.04,-0.07 -1.49,-2.684 -1.49,-2.684 h -1.289 c -0.04,-0.07 -1.49,-2.683 -1.49,-2.683 h -1.286 c -0.04,-0.08 -1.496,-2.696 -1.496,-2.696 h -1.295 c -0.04,-0.07 -1.494,-2.693 -1.494,-2.693 h -1.295 c -0.04,-0.08 -1.494,-2.694 -1.494,-2.694 h -1.295 c -0.04,-0.08 -1.496,-2.695 -1.496,-2.695 h -1.301 c -0.04,-0.08 -1.5,-2.703 -1.5,-2.703 h -1.298 c -0.04,-0.08 -1.5,-2.703 -1.5,-2.703 h -1.299 c -0.04,-0.08 -1.502,-2.705 -1.502,-2.705 h -1.309 c -0.04,-0.08 -1.5,-2.703 -1.5,-2.703 h -1.305 c -0.04,-0.08 -1.505,-2.715 -1.505,-2.715 h -1.305 c -0.05,-0.08 -1.506,-2.713 -1.506,-2.713 h -1.309 c -0.05,-0.08 -1.511,-2.724 -1.511,-2.724 h -1.297 c -0.05,-0.08 -1.512,-2.722 -1.512,-2.722 h -1.318 c -0.05,-0.09 -1.512,-2.725 -1.512,-2.725 h -1.308 c -0.05,-0.09 -1.512,-2.725 -1.512,-2.725 h -1.315 c -0.05,-0.09 -1.515,-2.732 -1.515,-2.732 h -1.313 c -0.05,-0.09 -1.517,-2.735 -1.517,-2.735 h -1.313 c -0.05,-0.09 -1.517,-2.734 -1.517,-2.734 h -1.317 c -0.05,-0.09 -1.523,-2.744 -1.523,-2.744 h -1.317 c -0.05,-0.09 -1.523,-2.745 -1.523,-2.745 h -1.328 c -0.05,-0.09 -1.524,-2.744 -1.524,-2.744 h -1.316 c -0.05,-0.09 -1.524,-2.744 -1.524,-2.744 h -1.322 c -0.05,-0.09 -1.527,-2.754 -1.527,-2.754 h -1.33 c -0.05,-0.09 -1.53,-2.754 -1.53,-2.754 h -1.316 c -0.05,-0.1 -1.533,-2.764 -1.533,-2.764 h -1.328 c -0.05,-0.1 -1.533,-2.764 -1.533,-2.764 h -1.336 c -0.06,-0.1 -1.534,-2.763 -1.534,-2.763 h -1.326 c -0.06,-0.1 -1.533,-2.764 -1.533,-2.764 h -1.332 c -0.06,-0.101 -1.539,-2.774 -1.539,-2.774 h -1.33 c -0.06,-0.101 -1.539,-2.773 -1.539,-2.773 h -1.34 c -0.06,-0.103 -1.541,-2.776 -1.541,-2.776 h -1.34 c -0.06,-0.103 -1.539,-2.773 -1.539,-2.773 h -1.336 c -0.06,-0.106 -1.545,-2.783 -1.545,-2.783 h -1.33 c -0.06,-0.107 -1.551,-2.794 -1.551,-2.794 h -1.343 c -0.06,-0.107 -1.545,-2.783 -1.545,-2.783 h -1.34 c -0.06,-0.11 -1.551,-2.795 -1.551,-2.795 h -1.35 c -0.06,-0.111 -1.55,-2.793 -1.55,-2.793 h -1.338 c -0.06,-0.112 -1.551,-2.795 -1.551,-2.795 h -1.346 c -0.06,-0.114 -1.554,-2.803 -1.554,-2.803 h -1.354 c -0.06,-0.115 -1.557,-2.804 -1.557,-2.804 h -1.353 c -0.07,-0.116 -1.557,-2.802 -1.557,-2.802 h -1.347 c -0.07,-0.119 -1.563,-2.815 -1.563,-2.815 h -1.348 l -1.562,-2.814 h -1.357 c -0.07,-0.122 -1.563,-2.815 -1.563,-2.815 h -1.354 c -0.07,-0.124 -1.566,-2.822 -1.566,-2.822 h -1.351 c -0.07,-0.126 -1.569,-2.825 -1.569,-2.825 h -1.351 c -0.07,-0.127 -1.569,-2.824 -1.569,-2.824 h -1.361 c -0.07,-0.129 -1.568,-2.824 -1.568,-2.824 h -1.368 c -0.07,-0.132 -1.572,-2.834 -1.572,-2.834 h -1.359 c -0.07,-0.134 -1.573,-2.834 -1.573,-2.834 h -1.367 c -0.08,-0.135 -1.572,-2.834 -1.572,-2.834 h -1.361 c -0.08,-0.137 -1.578,-2.843 -1.578,-2.843 h -1.373 c -0.08,-0.14 -1.579,-2.844 -1.579,-2.844 h -1.361 c -0.08,-0.142 -1.578,-2.844 -1.578,-2.844 h -1.375 c -0.08,-0.145 -1.584,-2.854 -1.584,-2.854 h -1.367 c -0.08,-0.146 -1.584,-2.853 -1.584,-2.853 h -1.375 c -0.08,-0.149 -1.584,-2.856 -1.584,-2.856 h -1.377 c -0.08,-0.151 -1.584,-2.853 -1.584,-2.853 h -1.369 c -0.09,-0.155 -1.59,-2.864 -1.59,-2.864 h -1.381 l -1.59,-2.863 h -1.375 c -0.09,-0.16 -1.596,-2.875 -1.596,-2.875 h -1.378 c -0.09,-0.162 -1.59,-2.864 -1.59,-2.864 h -1.385 c -0.09,-0.165 -1.596,-2.875 -1.596,-2.875 h -1.381 c -0.09,-0.169 -1.599,-2.883 -1.599,-2.883 h -1.385 c -0.09,-0.17 -1.596,-2.875 -1.596,-2.875 h -1.388 c -0.1,-0.174 -1.6,-2.883 -1.6,-2.883 h -1.383 c -0.1,-0.179 -1.607,-2.894 -1.607,-2.894 h -1.391 c -0.1,-0.181 -1.599,-2.883 -1.599,-2.883 h -1.393 c -0.103,-0.186 -1.607,-2.895 -1.607,-2.895 h -1.385 c -0.105,-0.188 -1.606,-2.894 -1.606,-2.894 h -1.398 c -0.107,-0.194 -1.611,-2.905 -1.611,-2.905 h -1.395 l -1.605,-2.892 h -1.393 l -1.617,-2.914 h -1.399 l -1.611,-2.904 h -1.395 l -1.617,-2.914 h -1.402 l -1.617,-2.914 h -1.403 l -1.617,-2.914 h -1.412 l -1.617,-2.914 h -1.398 l -1.624,-2.924 h -1.4 l -1.629,-2.933 h -1.416 l -1.623,-2.924 h -1.402 l -1.629,-2.934 h -1.412 l -1.627,-2.934 h -1.422 l -1.629,-2.933 h -1.404 l -1.635,-2.946 h -1.418 l -1.633,-2.943 h -1.422 l -1.638,-2.953 h -1.414 l -1.635,-2.946 h -1.422 l -1.639,-2.953 h -1.422 l -1.638,-2.953 h -1.424 l -1.647,-2.965 h -1.421 l -1.647,-2.965 h -1.426 l -1.644,-2.963 h -1.42 l -1.651,-2.975 h -1.435 l -1.645,-2.963 h -1.427 l -1.653,-2.974 h -1.424 l -1.656,-2.985 h -1.439 l -1.651,-2.973 h -1.433 l -1.657,-2.984 h -1.429 l -1.66,-2.994 h -1.444 l -1.656,-2.985 h -1.439 l -1.663,-2.994 h -1.433 l -1.666,-3.004 h -1.449 l -1.661,-2.992 h -1.441 l -1.668,-3.004 h -1.445 l -1.666,-3.004 h -1.451 l -1.668,-3.004 h -1.446 l -1.675,-3.016 h -1.446 l -1.674,-3.014 h -1.443 l -1.678,-3.023 h -1.457 l -1.672,-3.014 h -1.451 l -1.679,-3.024 h -1.459 l -1.68,-3.023 h -1.455 l -1.686,-3.035 h -1.455 l -1.685,-3.034 h -1.455 l -1.684,-3.035 h -1.461 l -1.689,-3.043 h -1.465 l -1.686,-3.033 h -1.463 l -1.687,-3.045 h -1.461 l -1.699,-3.053 h -1.467 l -0.752,-1.356 -0.942,-1.699 h -1.464 z"
         style="fill:#000001;fill-opacity:0.184314;fill-rule:evenodd;stroke:none;stroke-width:2.1111;stroke-linecap:butt;stroke-linejoin:round;stroke-opacity:1"
         id="path22675" />
      <g
         transform="translate(7360.0003,7680)"
         id="g26722">
        <path
           d="m 7736.6301,4424.5498 391.7219,697.2091 -435.4456,0.2426 -83.523,149.2836 771.0115,0.1203 -470.3581,-847.2913 z"
           style="fill:#218bea;fill-opacity:1;fill-rule:evenodd;stroke:none;stroke-width:2.1111px;stroke-linecap:butt;stroke-linejoin:round;stroke-opacity:1"
           id="path3214" />
        <path
           d="m 7736.6086,4424.4925 -465.2653,846.7754 85.3013,153.5424 385.9884,-699.4707 215.3858,396.6511 h 170.6026 z"
           style="fill:#9fdaf5;fill-opacity:1;fill-rule:evenodd;stroke:none;stroke-width:2.1111px;stroke-linecap:butt;stroke-linejoin:round;stroke-opacity:1"
           id="path4185" />
        <path
           d="m 7742.7221,4725.4715 85.0588,156.6842 -218.7697,389.2428 771.4277,0.4002 -81.2148,157.2767 -942.5449,-4.3212 z"
           style="fill:#134290;fill-opacity:1;fill-rule:evenodd;stroke:none;stroke-width:2.1111px;stroke-linecap:butt;stroke-linejoin:round;stroke-opacity:1"
           id="path5156" />
      </g>
    </g>
  </g>
</svg>
