<?xml version="1.0" encoding="UTF-8" standalone="no"?>
<svg
   xmlns:dc="http://purl.org/dc/elements/1.1/"
   xmlns:cc="http://creativecommons.org/ns#"
   xmlns:rdf="http://www.w3.org/1999/02/22-rdf-syntax-ns#"
   xmlns:svg="http://www.w3.org/2000/svg"
   xmlns="http://www.w3.org/2000/svg"
   xmlns:sodipodi="http://sodipodi.sourceforge.net/DTD/sodipodi-0.dtd"
   xmlns:inkscape="http://www.inkscape.org/namespaces/inkscape"
   inkscape:version="1.0 (4035a4fb49, 2020-05-01)"
   inkscape:export-ydpi="96"
   inkscape:export-xdpi="96"
   inkscape:export-filename="C:\Users\linos\Desktop\Icone gruppi telegram\ENGarchitetture.png"
   version="1.1"
   id="Capa_1"
   x="0px"
   y="0px"
   width="256"
   height="256"
   viewBox="0 0 256 255.99999"
   xml:space="preserve"
   sodipodi:docname="ENGarchitetture_scalable.svg"><metadata
   id="metadata67"><rdf:RDF><cc:Work
       rdf:about=""><dc:format>image/svg+xml</dc:format><dc:type
         rdf:resource="http://purl.org/dc/dcmitype/StillImage" /><dc:title /><cc:license
         rdf:resource="http://creativecommons.org/licenses/by-sa/4.0/" /></cc:Work><cc:License
       rdf:about="http://creativecommons.org/licenses/by-sa/4.0/"><cc:permits
         rdf:resource="http://creativecommons.org/ns#Reproduction" /><cc:permits
         rdf:resource="http://creativecommons.org/ns#Distribution" /><cc:requires
         rdf:resource="http://creativecommons.org/ns#Notice" /><cc:requires
         rdf:resource="http://creativecommons.org/ns#Attribution" /><cc:permits
         rdf:resource="http://creativecommons.org/ns#DerivativeWorks" /><cc:requires
         rdf:resource="http://creativecommons.org/ns#ShareAlike" /></cc:License></rdf:RDF></metadata><defs
   id="defs65">
	

		
		
		
		
		
		
		
		
		
		
		
		
		
	</defs><sodipodi:namedview
   inkscape:document-rotation="0"
   inkscape:current-layer="Capa_1"
   inkscape:window-maximized="1"
   inkscape:window-y="-9"
   inkscape:window-x="-9"
   inkscape:cy="904.75351"
   inkscape:cx="865.96742"
   inkscape:zoom="0.31602118"
   showgrid="false"
   id="namedview63"
   inkscape:window-height="1013"
   inkscape:window-width="1920"
   inkscape:pageshadow="2"
   inkscape:pageopacity="0"
   guidetolerance="10"
   gridtolerance="10"
   objecttolerance="10"
   borderopacity="1"
   bordercolor="#666666"
   pagecolor="#ffffff" />

<g
   transform="translate(1792.616,1738.9153)"
   id="g32">
</g>
<g
   transform="translate(1792.616,1738.9153)"
   id="g34">
</g>
<g
   transform="translate(1792.616,1738.9153)"
   id="g36">
</g>
<g
   transform="translate(1792.616,1738.9153)"
   id="g38">
</g>
<g
   transform="translate(1792.616,1738.9153)"
   id="g40">
</g>
<g
   transform="translate(1792.616,1738.9153)"
   id="g42">
</g>
<g
   transform="translate(1792.616,1738.9153)"
   id="g44">
</g>
<g
   transform="translate(1792.616,1738.9153)"
   id="g46">
</g>
<g
   transform="translate(1792.616,1738.9153)"
   id="g48">
</g>
<g
   transform="translate(1792.616,1738.9153)"
   id="g50">
</g>
<g
   transform="translate(1792.616,1738.9153)"
   id="g52">
</g>
<g
   transform="translate(1792.616,1738.9153)"
   id="g54">
</g>
<g
   transform="translate(1792.616,1738.9153)"
   id="g56">
</g>
<g
   transform="translate(1792.616,1738.9153)"
   id="g58">
</g>
<g
   transform="translate(1792.616,1738.9153)"
   id="g60">
</g>
<g
   transform="scale(0.125)"
   id="g890"><rect
     style="fill:#f50057;fill-opacity:1"
     id="rect69"
     width="2048"
     height="2048"
     x="0"
     y="0"
     rx="4.0409999"
     ry="4.0406098" /><path
     id="path1065"
     style="fill:#000001;fill-opacity:0.247059;stroke-width:1.49044"
     d="m 837.99977,314.9612 c -39.496,0 -71.39258,32.04501 -71.39258,71.54101 v 115.50781 h 3.35547 v 3.23047 0.23047 h 3.34961 v 2.99609 0.46094 h 3.34765 v 2.76367 0.69141 h 3.34375 v 2.52929 0.91993 h 3.33985 v 2.29687 1.15039 h 3.33593 v 2.06445 1.37891 h 3.33399 v 1.83203 1.60938 h 3.33008 v 1.59765 1.83789 h 3.32617 v 1.36719 2.06641 h 3.32422 v 1.13281 2.29687 h 3.32031 v 0.90235 2.52344 h 3.31641 v 0.67187 2.75195 h 3.3125 v 0.43946 2.98047 h 3.31054 v 0.20703 3.20898 h 3.30664 v 3.41211 h 3.30274 v 3.4082 h 3.30078 v 3.40625 h 3.29687 v 3.40235 h 3.29297 v 3.39844 h 3.29102 v 3.39453 h 3.28711 V 570.719 H 698.94312 c -41.1361,0 -74.52343,33.38734 -74.52343,74.52344 v 139.61719 h -2.27344 c -5e-5,-1.62795 1.2e-4,-3.39062 0,-3.39062 h -3.28906 c -5e-5,-1.58057 1.2e-4,-3.39649 0,-3.39649 h -3.29297 c -5e-5,-1.5111 1.3e-4,-3.39843 0,-3.39843 h -3.29688 c -4e-5,-1.41308 2.2e-4,-3.40235 0,-3.40235 h -3.30078 c -4e-5,-1.27685 1.7e-4,-3.40625 0,-3.40625 h -3.30273 c -4e-5,-1.08934 1.7e-4,-3.4082 0,-3.4082 h -3.30664 c -3e-5,-0.83237 1.9e-4,-3.41211 0,-3.41211 h -3.31055 c -10e-6,-0.47639 2e-4,-3.41602 0,-3.41601 h -3.3125 v -0.01 c 0,-0.007 2.1e-4,-3.4082 0,-3.4082 h -3.31641 v -0.29688 c 0,-0.006 -0.002,-3.12695 -0.002,-3.12695 h -3.31835 v -0.58203 c 0,-0.006 -0.002,-2.84571 -0.002,-2.84571 h -3.32227 v -0.86718 c 0,-0.005 2e-4,-2.56055 0,-2.56055 h -3.32617 v -1.15625 c 0,-0.004 -0.002,-2.27734 -0.002,-2.27734 h -3.32813 v -1.44336 c 0,-0.004 -0.002,-1.99414 -0.002,-1.99414 h -3.33189 v -1.73047 c 0,-0.003 2e-4,-1.70899 0,-1.70899 h -3.33789 v -2.01758 c 0,-0.003 2e-4,-1.42578 0,-1.42578 h -3.33985 v -2.30664 c 0,-0.002 2e-4,-1.14062 0,-1.14062 h -3.34375 v -2.59375 -0.85742 h -3.3457 v -2.88282 l -0.002,-0.57031 h -3.34961 v -3.17187 -0.28711 h -3.35351 v -3.46094 h -115.50782 -0.002 c -39.496,10e-4 -71.53906,32.04501 -71.53906,71.54101 0,20.34552 8.51595,38.70108 22.16015,51.73047 1.06123,1.15558 2.16832,2.26606 3.30274,3.34961 1.05975,1.15444 2.16591,2.26326 3.29882,3.34571 1.06805,1.16404 2.18167,2.28231 3.32422,3.37304 1.05826,1.1525 2.16149,2.26137 3.29297,3.3418 1.04965,1.14355 2.14569,2.24196 3.26758,3.31445 1.06113,1.15752 2.16947,2.2708 3.30469,3.35547 1.04968,1.14461 2.14723,2.24319 3.26953,3.31641 1.07095,1.16892 2.19113,2.2904 3.33789,3.38476 1.04922,1.14299 2.14367,2.24305 3.26562,3.31446 1.05361,1.1487 2.15408,2.25179 3.28126,3.32812 1.04895,1.14374 2.14553,2.2426 3.26757,3.31445 1.05789,1.15404 2.16252,2.26302 3.29493,3.34375 1.0442,1.13826 2.13505,2.23209 3.25195,3.29883 1.0554,1.15148 2.15723,2.25773 3.28711,3.33594 1.04828,1.14285 2.14378,2.24203 3.26562,3.3125 1.04453,1.13882 2.13424,2.23398 3.25196,3.30078 1.04635,1.14132 2.13978,2.23581 3.25976,3.30469 1.03848,1.13276 2.1232,2.22193 3.23438,3.2832 1.04583,1.14177 2.13998,2.23759 3.25976,3.30664 1.05196,1.14816 2.15241,2.24978 3.2793,3.32422 1.03601,1.12948 2.11782,2.21553 3.22656,3.27344 1.04043,1.13522 2.12623,2.22621 3.24024,3.28906 1.0334,1.12767 2.11259,2.2095 3.21875,3.26563 1.04737,1.14387 2.14331,2.24234 3.26562,3.3125 1.03707,1.13125 2.11988,2.21843 3.23047,3.27734 1.03657,1.13086 2.11834,2.21696 3.22852,3.27539 1.02634,1.11981 2.09858,2.19548 3.19726,3.24414 1.03662,1.13242 2.1198,2.21969 3.23047,3.2793 1.03273,1.12775 2.11436,2.21027 3.2207,3.26562 1.02753,1.1221 2.10257,2.19972 3.20313,3.25 1.03351,1.12925 2.11506,2.21313 3.22265,3.26953 1.02957,1.12455 2.10579,2.20374 3.20899,3.25586 1.02442,1.11891 2.09588,2.19317 3.19336,3.24024 0.0594,0.0649 0.12201,0.12675 0.18164,0.1914 h -58.28516 c -39.497,0 -71.54101,32.04402 -71.54101,71.54096 0,20.3456 8.51595,38.6994 22.16015,51.7286 1.06388,1.1584 2.17313,2.2733 3.31055,3.3593 1.06278,1.1574 2.17226,2.2705 3.30859,3.3555 1.06584,1.1608 2.17645,2.2774 3.31641,3.3652 1.05444,1.1479 2.15415,2.2518 3.28125,3.3282 1.05026,1.1443 2.14694,2.2452 3.26953,3.3183 1.06378,1.1604 2.17622,2.2741 3.31445,3.3614 1.05335,1.1482 2.15287,2.2537 3.2793,3.33 1.05897,1.1549 2.16581,2.2637 3.29883,3.3457 1.05793,1.1534 2.16297,2.2613 3.29492,3.3418 1.04808,1.1423 2.14282,2.2399 3.26367,3.3106 1.04858,1.1437 2.14398,2.2425 3.26563,3.3144 1.06139,1.1584 2.1702,2.271 3.30664,3.3555 1.04657,1.1407 2.14019,2.2358 3.25976,3.3047 1.04692,1.1418 2.13959,2.2389 3.25977,3.3086 1.04753,1.1428 2.14261,2.24 3.26367,3.3105 1.05388,1.15 2.15476,2.2535 3.2832,3.3301 1.03727,1.1309 2.11893,2.2176 3.22852,3.2773 1.04393,1.1397 2.13645,2.2316 3.25391,3.2989 1.04972,1.146 2.14726,2.2475 3.27148,3.3203 1.04258,1.1373 2.1319,2.2299 3.24805,3.2949 1.04176,1.1367 2.13072,2.2268 3.24609,3.291 1.04307,1.1381 2.13104,2.2335 3.24805,3.2989 1.03736,1.1315 2.1218,2.2178 3.23242,3.2773 1.03449,1.1288 2.11512,2.2145 3.22266,3.2715 1.04341,1.1392 2.13404,2.2329 3.25195,3.2988 1.03657,1.1309 2.11834,2.217 3.22852,3.2754 1.03256,1.1266 2.11102,2.2091 3.21679,3.2637 1.02435,1.118 2.09483,2.1912 3.19141,3.2383 1.03223,1.1281 2.11289,2.2098 3.21875,3.2656 1.03122,1.1271 2.11193,2.207 3.21679,3.2617 1.03611,1.1325 2.1199,2.2181 3.23047,3.2773 1.02304,1.1175 2.09175,2.1904 3.1875,3.2364 1.03108,1.1272 2.11164,2.2073 3.2168,3.2617 0.10573,0.1155 0.21769,0.225 0.32422,0.3398 h -58.42969 c -39.497,0 -71.54101,31.8956 -71.54101,71.3926 0,20.3351 8.5081,38.6789 22.14062,51.707 1.06731,1.1632 2.18085,2.2809 3.32227,3.3711 1.06535,1.1606 2.1771,2.2755 3.3164,3.3633 1.06257,1.1572 2.17039,2.2708 3.30664,3.3555 1.05437,1.1482 2.1542,2.2514 3.28125,3.3281 1.05671,1.1518 2.15911,2.2601 3.28907,3.3399 1.06386,1.16 2.17617,2.2745 3.31445,3.3613 1.05016,1.1442 2.14677,2.2455 3.26953,3.3183 1.06131,1.1575 2.17095,2.2693 3.30664,3.3536 1.05269,1.1473 2.1514,2.2509 3.27734,3.3261 1.05361,1.1488 2.15408,2.2518 3.28126,3.3282 1.04895,1.1437 2.14553,2.2425 3.26757,3.3144 1.05851,1.1547 2.16377,2.2644 3.29688,3.3457 1.04657,1.1407 2.14019,2.2358 3.25976,3.3047 1.04926,1.1443 2.14474,2.2445 3.26758,3.3164 1.05147,1.1468 2.14988,2.2503 3.27539,3.3242 1.05045,1.1453 2.14703,2.246 3.27149,3.3184 1.0406,1.1341 2.12687,2.2245 3.24023,3.2871 1.03848,1.1328 2.1232,2.2219 3.23438,3.2832 1.04583,1.1418 2.13998,2.2376 3.25976,3.3066 1.05196,1.1482 2.15241,2.2498 3.2793,3.3243 1.03273,1.1258 2.10984,2.2088 3.21484,3.2636 1.0436,1.1392 2.1343,2.2325 3.25196,3.2989 1.0334,1.1276 2.11259,2.2095 3.21875,3.2656 1.04737,1.1438 2.14331,2.2423 3.26562,3.3125 1.03707,1.1312 2.11988,2.2184 3.23047,3.2773 1.03657,1.1309 2.11834,2.217 3.22852,3.2754 1.02634,1.1198 2.09858,2.1955 3.19726,3.2442 1.03662,1.1324 2.1198,2.2196 3.23047,3.2793 1.02977,1.1245 2.10797,2.2033 3.21094,3.2558 1.03041,1.1257 2.109,2.2063 3.21289,3.2598 1.03351,1.1292 2.11506,2.2131 3.22265,3.2695 1.02957,1.1246 2.10579,2.2037 3.20899,3.2559 1.02474,1.1192 2.09747,2.1928 3.19531,3.2402 1.03043,1.1261 2.10836,2.2066 3.21289,3.2598 1.0197,1.1139 2.08534,2.1841 3.17774,3.2265 1.02381,1.1194 2.09603,2.1931 3.19336,3.2403 1.03346,1.1301 2.11608,2.2132 3.22461,3.2695 1.01666,1.1103 2.07862,2.176 3.16796,3.2148 1.01788,1.1127 2.08481,2.1799 3.17579,3.2207 1.01703,1.1124 2.08164,2.1783 3.17187,3.2188 1.02808,1.125 2.10594,2.2026 3.20899,3.2539 1.02169,1.1167 2.08977,2.1886 3.18554,3.2324 1.01396,1.1078 2.07507,2.1711 3.16211,3.2071 1.01609,1.1107 2.07829,2.1765 3.16797,3.2148 1.01836,1.1133 2.08335,2.1822 3.17578,3.2227 1.0047,1.0978 2.05589,2.1508 3.13281,3.1777 1.01589,1.1117 2.07991,2.178 3.16993,3.2168 1.01435,1.1095 2.07569,2.1742 3.16406,3.2109 0.99804,1.0913 2.04344,2.1375 3.11328,3.1582 1.02128,1.1187 2.09269,2.1899 3.18945,3.2344 1.00524,1.0993 2.0564,2.1543 3.13477,3.1816 1.00418,1.0987 2.05545,2.153 3.13281,3.1797 1.0087,1.1042 2.0657,2.162 3.14844,3.1934 1.00516,1.0999 2.05792,2.1541 3.13672,3.1816 0.99732,1.0915 2.04134,2.1363 3.11133,3.1563 1.00859,1.1048 2.06529,2.1637 3.14843,3.1953 1.00158,1.0963 2.05178,2.148 3.12696,3.1719 0.99406,1.0881 2.03482,2.1298 3.10156,3.1464 1.00595,1.1023 2.06001,2.1587 3.14062,3.1875 0.9889,1.0826 2.02481,2.1194 3.08594,3.1309 1.00273,1.0992 2.05554,2.1498 3.13281,3.1758 0.99929,1.0946 2.04575,2.1443 3.11914,3.166 0.98925,1.0832 2.02589,2.1212 3.0879,3.1328 0.9928,1.0881 2.03327,2.1287 3.0996,3.1445 0.99569,1.0915 2.03957,2.1377 3.10938,3.1563 0.99481,1.09 2.03851,2.1332 3.10742,3.1504 0.98094,1.0744 2.00938,2.104 3.0625,3.1074 0.99864,1.0954 2.04542,2.1445 3.11914,3.166 0.98168,1.0753 2.01212,2.1055 3.06641,3.1094 0.98349,1.0784 2.01564,2.1107 3.07226,3.1172 0.99578,1.0925 2.04039,2.1376 3.11133,3.1562 0.9815,1.0753 2.0099,2.1059 3.06445,3.1094 0.97747,1.0716 2.00259,2.0975 3.05274,3.0977 0.98905,1.0854 2.02614,2.1246 3.08984,3.1367 0.97827,1.0725 2.00526,2.0989 3.05664,3.0996 0.99025,1.0863 2.02839,2.1262 3.09375,3.1386 0.96001,1.0515 1.96739,2.059 2.99805,3.041 0.98093,1.0779 2.01126,2.1083 3.06641,3.1133 0.99902,1.0973 2.04893,2.1465 3.125,3.168 0.95058,1.0405 1.94655,2.0378 2.96679,3.0098 0.98997,1.0877 2.03163,2.1276 3.09766,3.1406 0.95199,1.0437 1.95034,2.0429 2.97266,3.0176 0.99116,1.0904 2.0337,2.1313 3.10156,3.1464 0.96514,1.0588 1.97786,2.0713 3.01562,3.0586 0.96695,1.0619 1.98138,2.0784 3.02149,3.0684 0.98486,1.0823 2.02108,2.1155 3.08203,3.123 0.95281,1.0446 1.95257,2.045 2.97656,3.0196 0.96383,1.0592 1.97465,2.0732 3.01172,3.0605 0.97489,1.0721 2.00076,2.0955 3.05078,3.0938 0.95864,1.0527 1.96477,2.0577 2.9961,3.039 0.96992,1.0663 1.98862,2.0853 3.0332,3.0782 0.96273,1.0574 1.9734,2.0695 3.00976,3.0546 0.95833,1.0527 1.9666,2.0583 2.99805,3.0391 0.96972,1.0658 1.98841,2.0842 3.0332,3.0762 0.94371,1.0355 1.93436,2.0266 2.94922,2.9922 0.95486,1.0506 1.96017,2.0544 2.98828,3.0332 0.96228,1.0593 1.97485,2.0705 3.01172,3.0566 0.94686,1.0413 1.94371,2.0356 2.96289,3.0059 0.97869,1.078 2.00825,2.1075 3.06445,3.1093 0.94142,1.0332 1.93039,2.0217 2.94336,2.9844 0.94505,1.0391 1.93754,2.0321 2.95508,3 0.9527,1.049 1.95577,2.0509 2.98242,3.0274 0.97244,1.0705 1.99534,2.0932 3.04493,3.0879 0.93122,1.0214 1.9083,1.9971 2.91015,2.9492 0.94837,1.0434 1.94668,2.0387 2.96875,3.0097 0.9438,1.0385 1.93616,2.0315 2.95313,2.9981 0.95447,1.0508 1.95877,2.0541 2.98828,3.0312 0.93895,1.0323 1.92393,2.0196 2.93555,2.9805 0.94176,1.0366 1.93408,2.0257 2.94921,2.9902 0.94576,1.0414 1.94295,2.0354 2.9629,3.0039 0.93561,1.0297 1.91939,2.0126 2.92773,2.9707 0.94975,1.0464 1.94965,2.0472 2.97461,3.0196 0.93945,1.0335 1.92837,2.0232 2.9414,2.9844 0.93214,1.0253 1.91127,2.0049 2.91602,2.9589 0.93899,1.034 1.92845,2.0211 2.94141,2.9825 0.93921,1.0341 1.92609,2.023 2.93945,2.9843 0.93247,1.0262 1.91424,2.0048 2.91992,2.959 0.93416,1.0287 1.91598,2.0125 2.92383,2.9688 0.9358,1.0305 1.91977,2.0149 2.92969,2.9726 0.92739,1.0207 1.90398,1.9963 2.90429,2.9453 0.93253,1.0273 1.91343,2.0084 2.91993,2.9629 0.93445,1.0293 1.91692,2.0127 2.92578,2.9688 0.92088,1.0134 1.88955,1.9815 2.88281,2.9238 0.93087,1.0258 1.9109,2.0062 2.91602,2.959 0.92834,1.0226 1.90394,1.9993 2.90625,2.9492 0.92071,1.0138 1.88919,1.9816 2.88281,2.9238 0.92309,1.0174 1.89401,1.9885 2.89062,2.9336 0.92898,1.0241 1.90654,2.0024 2.91016,2.9532 0.92083,1.014 1.89051,1.9819 2.88477,2.9238 0.91325,1.006 1.87369,1.9674 2.85937,2.9023 0.92599,1.0216 1.89965,1.9972 2.90039,2.9453 0.91895,1.013 1.88627,1.9794 2.87891,2.92 0.92944,1.0245 1.90714,2.0028 2.91211,2.9531 0.90461,0.9951 1.85587,1.9464 2.83203,2.8711 0.91679,1.0109 1.88042,1.9777 2.87109,2.916 0.92249,1.017 1.8932,1.9883 2.89063,2.9316 0.90164,0.9926 1.84897,1.9393 2.82226,2.8614 0.9201,1.0152 1.88773,1.9862 2.88281,2.9277 0.90962,1.0023 1.86667,1.9585 2.84961,2.8887 0.90269,0.9947 1.853,1.9455 2.82813,2.8691 0.9149,1.0098 1.8776,1.9757 2.86719,2.9121 0.90987,1.0032 1.86774,1.9602 2.85156,2.8907 0.90711,1 1.86105,1.9571 2.8418,2.8847 0.90091,0.9931 1.84853,1.9398 2.82226,2.8613 0.90297,0.9963 1.8537,1.947 2.83008,2.8711 0.90978,1.0043 1.86707,1.9637 2.85156,2.8946 0.90249,0.995 1.85205,1.9445 2.82813,2.8672 0.90001,0.9923 1.84693,1.9411 2.82031,2.8613 0.90241,0.9954 1.85176,1.9464 2.82812,2.8691 0.88945,0.9806 1.82566,1.9184 2.78711,2.8281 0.90425,0.9988 1.85694,1.9518 2.83594,2.877 0.89894,0.9919 1.84352,1.9382 2.81641,2.8574 0.89929,0.992 1.84491,1.9404 2.81836,2.8594 0.8889,0.98 1.82367,1.9156 2.78515,2.8242 0.88765,0.9799 1.82289,1.9158 2.78321,2.8242 0.90078,0.9956 1.84833,1.9474 2.82421,2.8692 0.90241,0.9959 1.8523,1.9474 2.83008,2.8691 0.8763,0.9652 1.79673,1.888 2.74414,2.7832 0.89359,0.9872 1.83281,1.9298 2.80078,2.8438 0.88556,0.9775 1.81863,1.9108 2.77735,2.8164 0.89629,0.99 1.8391,1.9354 2.81055,2.8515 0.88338,0.9741 1.81311,1.9045 2.76953,2.8067 0.87902,0.9699 1.80428,1.8964 2.75586,2.7949 0.89043,0.9837 1.82584,1.9257 2.79101,2.8359 0.87899,0.9699 1.80398,1.8948 2.75586,2.793 0.87711,0.9686 1.80004,1.8941 2.75,2.791 0.88677,0.9802 1.81976,1.9175 2.78125,2.8242 0.87875,0.9706 1.80366,1.8966 2.75586,2.795 0.88474,0.9774 1.81601,1.9105 2.77539,2.8144 0.86854,0.9581 1.7821,1.8745 2.72266,2.7617 0.8858,0.9792 1.81825,1.9151 2.77929,2.8204 0.86824,0.9579 1.78015,1.8747 2.72071,2.7617 0.87734,0.9696 1.80045,1.8943 2.75195,2.791 0.87459,0.9659 1.79574,1.8879 2.74414,2.7812 0.87084,0.9616 1.78629,1.8821 2.73047,2.7715 0.86814,0.9591 1.78141,1.8746 2.72266,2.7617 0.87922,0.9717 1.80338,1.9012 2.75781,2.7989 0.85992,0.9488 1.76538,1.8544 2.69726,2.7324 0.86209,0.953 1.76835,1.8645 2.70313,2.7461 0.87875,0.9727 1.80326,1.9026 2.75781,2.8008 0.86284,0.9528 1.77116,1.8631 2.70703,2.7441 0.86364,0.9545 1.77194,1.8659 2.70899,2.748 0.8645,0.9556 1.77461,1.8673 2.71289,2.75 0.85625,0.9464 1.75676,1.8498 2.68554,2.7247 0.86733,0.9597 1.78063,1.8754 2.72266,2.7617 0.86323,0.9539 1.77168,1.867 2.70899,2.748 0.85219,0.9413 1.74734,1.8409 2.67187,2.711 0.85347,0.9441 1.75333,1.8462 2.67969,2.7187 0.86424,0.9571 1.77366,1.8725 2.71289,2.7559 0.85236,0.9424 1.75043,1.8422 2.67578,2.7129 0.86093,0.9528 1.76554,1.863 2.70117,2.7421 0.85294,0.9428 1.74946,1.8445 2.67578,2.7149 0.85086,0.9406 1.74582,1.8386 2.66993,2.707 0.85182,0.9423 1.74836,1.8412 2.67382,2.711 0.84139,0.9305 1.72721,1.8199 2.64063,2.6797 0.86367,0.957 1.77298,1.8717 2.71289,2.7539 0.83587,0.9234 1.71583,1.8049 2.62305,2.6582 0.85646,0.9489 1.7557,1.8557 2.6875,2.7304 0.84174,0.9308 1.7261,1.8205 2.64062,2.6797 0.849,0.9399 1.7427,1.8364 2.66602,2.7031 0.84823,0.9382 1.73959,1.8342 2.66211,2.6993 0.8349,0.9228 1.71213,1.8044 2.61914,2.6562 0.84613,0.9369 1.73571,1.8336 2.65625,2.6973 0.83554,0.9246 1.71484,1.809 2.62304,2.6621 0.84863,0.94 1.74216,1.8391 2.66593,2.7051 0.8355,0.9237 1.7148,1.8063 2.6231,2.6582 0.8396,0.9288 1.7214,1.8177 2.6347,2.6738 0.8308,0.9189 1.7061,1.7971 2.6094,2.6445 0.8328,0.9222 1.7075,1.8042 2.6133,2.6543 0.8369,0.9277 1.7159,1.8152 2.627,2.6699 0.8318,0.9215 1.708,1.8012 2.6132,2.6504 0.8442,0.9354 1.7325,1.8288 2.6524,2.6895 0.8181,0.9041 1.6791,1.7675 2.5684,2.6015 0.8378,0.9287 1.7179,1.8173 2.6308,2.6719 0.8193,0.9066 1.6813,1.7736 2.5724,2.6094 0.8344,0.9255 1.7137,1.8103 2.623,2.6621 0.8244,0.913 1.6923,1.7861 2.5899,2.627 0.8349,0.9252 1.7128,1.809 2.623,2.6601 0.8136,0.8997 1.6677,1.7606 2.5527,2.5899 0.8291,0.919 1.7018,1.7971 2.6055,2.6425 0.8124,0.8995 1.6667,1.7611 2.5508,2.5899 0.8289,0.92 1.7032,1.7984 2.6074,2.6445 0.8153,0.9033 1.6726,1.766 2.5606,2.5977 0.8255,0.9156 1.6954,1.7908 2.5957,2.6328 0.8089,0.8958 1.6601,1.7511 2.541,2.5762 0.8254,0.9158 1.6931,1.7911 2.5937,2.6328 0.8072,0.894 1.656,1.7491 2.5352,2.5722 0.8205,0.9109 1.6848,1.78 2.58,2.6172 0.8107,0.8987 1.6631,1.7573 2.5469,2.584 0.8208,0.9105 1.6842,1.7827 2.58,2.6191 0.8016,0.8875 1.6446,1.734 2.5176,2.5508 0.817,0.9071 1.6765,1.774 2.5683,2.6075 0.8005,0.887 1.6433,1.7345 2.5157,2.5507 0.8172,0.9076 1.6758,1.776 2.5683,2.6094 0.8093,0.897 1.6598,1.756 2.543,2.5801 0.7987,0.8849 1.6389,1.731 2.5098,2.5449 0.8101,0.8994 1.6602,1.76 2.5449,2.5859 0.7977,0.8847 1.6377,1.7297 2.5078,2.543 0.8124,0.9023 1.6688,1.7639 2.5566,2.5918 0.8011,0.8877 1.6433,1.7355 2.5176,2.5508 0.7946,0.8807 1.6292,1.7239 2.4961,2.5332 0.8003,0.8884 1.6435,1.737 2.5176,2.5527 0.7996,0.8877 1.6403,1.7378 2.5137,2.5528 0.7959,0.8831 1.6328,1.7261 2.5019,2.5371 0.8023,0.8907 1.6446,1.7414 2.5215,2.5586 0.783,0.8679 1.6068,1.6983 2.4609,2.4961 0.8004,0.89 1.6424,1.7403 2.5176,2.5566 0.7971,0.8853 1.6345,1.7329 2.5059,2.5449 0.7896,0.8761 1.6217,1.7136 2.4844,2.5176 0.7904,0.8775 1.6224,1.7165 2.4863,2.5215 0.7823,0.8684 1.6065,1.6987 2.4609,2.4961 0.7983,0.888 1.6379,1.7371 2.5117,2.5508 0.7863,0.8725 1.6133,1.7075 2.4727,2.5078 0.7853,0.8719 1.6121,1.7042 2.4707,2.5039 0.4513,0.5011 0.92,0.9864 1.3965,1.4629 h 917.0723 c 2.2388,0 4.041,-1.8025 4.041,-4.041 v -999.3533 c -0.5724,-0.6063 -1.1539,-1.2036 -1.752,-1.7851 -0.9842,-1.1132 -2.0077,-2.1905 -3.0722,-3.2266 -0.9973,-1.1284 -2.0356,-2.2181 -3.1153,-3.2676 -0.9958,-1.1256 -2.0335,-2.2146 -3.1113,-3.2617 -0.9866,-1.1146 -2.0134,-2.1927 -3.0801,-3.2305 -0.9925,-1.1219 -2.0262,-2.2056 -3.0996,-3.25 -0.9919,-1.1215 -2.0231,-2.2058 -3.0957,-3.25 -1.0111,-1.1436 -2.0634,-2.2492 -3.1582,-3.3125 -0.9905,-1.1176 -2.0214,-2.1973 -3.0918,-3.2383 -0.9938,-1.1225 -2.0274,-2.2084 -3.1015,-3.2539 -0.9931,-1.1225 -2.0264,-2.2082 -3.0996,-3.2539 -1.0128,-1.1454 -2.0662,-2.2527 -3.1622,-3.3183 -0.9931,-1.1211 -2.0248,-2.2054 -3.0976,-3.25 -1.0071,-1.1383 -2.0556,-2.2392 -3.1445,-3.2989 -1.0058,-1.13593 -2.0516,-2.23506 -3.1387,-3.29291 -1.0015,-1.13086 -2.0431,-2.22376 -3.125,-3.27734 -1.0161,-1.14788 -2.0731,-2.25773 -3.1719,-3.32617 -1.0042,-1.13287 -2.0481,-2.22766 -3.1328,-3.28321 -1.0062,-1.13569 -2.0518,-2.23476 -3.1387,-3.29296 -1.0026,-1.13194 -2.0443,-2.22804 -3.1269,-3.28321 -1.0174,-1.14948 -2.0742,-2.26149 -3.1739,-3.33203 -1.008,-1.1377 -2.056,-2.23641 -3.1445,-3.29687 -1.0232,-1.15545 -2.0874,-2.27364 -3.1933,-3.34961 -1.0095,-1.13816 -2.0589,-2.2397 -3.1485,-3.30078 -1.0111,-1.14091 -2.0608,-2.24489 -3.1523,-3.3086 -1.0278,-1.16029 -2.0964,-2.28068 -3.2071,-3.36133 -1.0074,-1.13548 -2.0538,-2.23566 -3.1406,-3.29492 -1.0224,-1.1542 -2.0853,-2.26998 -3.1894,-3.3457 -1.0192,-1.14967 -2.0796,-2.26207 -3.1797,-3.33399 -1.0131,-1.14304 -2.0652,-2.25003 -3.1582,-3.3164 -1.0431,-1.17777 -2.1264,-2.31553 -3.2539,-3.41211 -1.0036,-1.12983 -2.0456,-2.22423 -3.127,-3.2793 -1.0342,-1.16747 -2.1077,-2.29867 -3.2246,-3.38672 -1.0223,-1.15245 -2.0846,-2.26669 -3.1875,-3.34179 -1.0307,-1.16225 -2.1005,-2.28733 -3.2129,-3.3711 -1.0309,-1.16186 -2.1024,-2.28559 -3.2148,-3.36914 -1.0179,-1.14664 -2.0728,-2.2576 -3.17,-3.32812 -1.0385,-1.17175 -2.1192,-2.30395 -3.2402,-3.39649 -1.0306,-1.16149 -2.1013,-2.28541 -3.2129,-3.36914 -1.0263,-1.15662 -2.0928,-2.27578 -3.1992,-3.35547 -1.0428,-1.17605 -2.1246,-2.31538 -3.25,-3.41211 -1.0294,-1.15939 -2.0994,-2.28092 -3.209,-3.36328 -1.0353,-1.16696 -2.1102,-2.29758 -3.2265,-3.38672 -1.0374,-1.16916 -2.1139,-2.30137 -3.2325,-3.39257 -1.0397,-1.17138 -2.1172,-2.30517 -3.2382,-3.39844 -1.047,-1.17932 -2.1345,-2.31965 -3.2637,-3.41992 -1.022,-1.15019 -2.0834,-2.26277 -3.1836,-3.33789 -1.0529,-1.18772 -2.1454,-2.33925 -3.2813,-3.44727 -1.0497,-1.1821 -2.1395,-2.32654 -3.2714,-3.42969 -1.0339,-1.16325 -2.1075,-2.28809 -3.2207,-3.375 -1.0486,-1.18107 -2.1356,-2.32508 -3.2657,-3.42773 -1.0401,-1.17109 -2.1199,-2.30432 -3.2402,-3.39844 -1.0564,-1.19015 -2.1541,-2.34227 -3.293,-3.45312 -1.043,-1.17361 -2.1229,-2.31165 -3.2461,-3.40821 -1.0476,-1.17972 -2.1352,-2.32173 -3.2636,-3.42383 -1.0585,-1.19194 -2.1581,-2.34808 -3.2989,-3.46093 -1.047,-1.17779 -2.1343,-2.31927 -3.2617,-3.41993 -1.0539,-1.18626 -2.148,-2.33514 -3.2832,-3.44335 -1.0568,-1.18912 -2.1527,-2.34034 -3.291,-3.45118 -1.0497,-1.18074 -2.1396,-2.32403 -3.2695,-3.42773 -1.0522,-1.18438 -2.1427,-2.33237 -3.2754,-3.43945 -1.0688,-1.20353 -2.1784,-2.3683 -3.3301,-3.49219 -1.0555,-1.1867 -2.1492,-2.33797 -3.2852,-3.44727 -1.0555,-1.18722 -2.1511,-2.33731 -3.2871,-3.44726 -1.0693,-1.20326 -2.1803,-2.36811 -3.332,-3.49219 -1.0552,-1.18598 -2.148,-2.33618 -3.2832,-3.44531 -1.0642,-1.19714 -2.1671,-2.35748 -3.3125,-3.47657 -1.0689,-1.20204 -2.1794,-2.36675 -3.3301,-3.49023 -1.0584,-1.18949 -2.1546,-2.34241 -3.293,-3.45508 -1.0648,-1.19791 -2.1686,-2.35827 -3.3144,-3.47851 -1.0727,-1.20681 -2.1852,-2.37579 -3.3399,-3.50391 -1.0725,-1.20574 -2.1856,-2.3727 -3.3398,-3.5 -1.0561,-1.18655 -2.1501,-2.33654 -3.2852,-3.44727 -1.0818,-1.21766 -2.2044,-2.39706 -3.3691,-3.53515 -1.0699,-1.20235 -2.1795,-2.36738 -3.3301,-3.49219 -1.0727,-1.20586 -2.1841,-2.37587 -3.3379,-3.5039 -1.0804,-1.21445 -2.2008,-2.39169 -3.3632,-3.52735 -1.0693,-1.20084 -2.1769,-2.36633 -3.3262,-3.49023 -1.076,-1.20947 -2.1926,-2.38202 -3.3496,-3.51368 -1.0811,-1.21491 -2.2026,-2.3908 -3.3653,-3.52734 -1.0771,-1.21014 -2.1935,-2.38311 -3.3515,-3.51562 -1.078,-1.21123 -2.1947,-2.3859 -3.3535,-3.51954 -1.0851,-1.21925 -2.2103,-2.40022 -3.377,-3.54101 -1.0824,-1.21576 -2.2056,-2.39339 -3.369,-3.53125 -1.0719,-1.20371 -2.181,-2.37247 -3.3322,-3.5 -1.0983,-1.23514 -2.2382,-2.43076 -3.4199,-3.58594 -1.0856,-1.21862 -2.2103,-2.40219 -3.3769,-3.54297 -1.0742,-1.2057 -2.1865,-2.37617 -3.3399,-3.50586 -1.1033,-1.24028 -2.2487,-2.44147 -3.4355,-3.60156 -1.0804,-1.21203 -2.1993,-2.38798 -3.3594,-3.52344 -1.0874,-1.22122 -2.2147,-2.40509 -3.3828,-3.54882 -10.3342,-11.60801 -24.4015,-19.81085 -40.3223,-22.76758 -0.6292,-0.67409 -1.2743,-1.33201 -1.9355,-1.97461 -0.967,-1.09633 -1.9735,-2.15549 -3.0215,-3.17383 -0.973,-1.10259 -1.9881,-2.16561 -3.043,-3.18945 -0.9622,-1.08917 -1.9639,-2.14188 -3.0058,-3.1543 -0.9729,-1.10216 -1.9887,-2.16565 -3.043,-3.18945 -0.9644,-1.09192 -1.9695,-2.14697 -3.0137,-3.16211 -0.972,-1.10156 -1.986,-2.16384 -3.039,-3.1875 -0.9708,-1.09976 -1.9819,-2.16132 -3.0332,-3.1836 -0.974,-1.10329 -1.9882,-2.16786 -3.043,-3.19336 -0.9752,-1.10457 -1.9908,-2.1705 -3.0469,-3.19726 -0.979,-1.10867 -1.9982,-2.17856 -3.0586,-3.20899 -0.981,-1.11055 -2.0039,-2.18268 -3.0664,-3.21484 -0.9719,-1.09934 -1.9855,-2.16095 -3.0371,-3.18359 -0.9726,-1.10112 -1.9848,-2.16501 -3.0371,-3.18946 -0.9894,-1.12101 -2.02,-2.20237 -3.0918,-3.24414 -0.9893,-1.11929 -2.0204,-2.19796 -3.0917,-3.23828 -0.9693,-1.09551 -1.9776,-2.15386 -3.0254,-3.17383 -0.9893,-1.12017 -2.0207,-2.20066 -3.0918,-3.24218 -0.9832,-1.11226 -2.0066,-2.18786 -3.0703,-3.22266 -0.9856,-1.115 -2.0118,-2.19312 -3.0781,-3.23047 -0.9843,-1.11377 -2.0096,-2.18814 -3.0742,-3.22461 -0.998,-1.12919 -2.0369,-2.21963 -3.1172,-3.26953 -0.9763,-1.10334 -1.992,-2.1676 -3.0469,-3.19532 -1.0009,-1.13314 -2.0434,-2.22754 -3.127,-3.28125 -0.9837,-1.11184 -2.0071,-2.18529 -3.0703,-3.2207 -0.9984,-1.12967 -2.037,-2.22046 -3.1172,-3.27148 -0.995,-1.12498 -2.0333,-2.21075 -3.1093,-3.25782 -0.9884,-1.11714 -2.0159,-2.1978 -3.084,-3.23828 -0.9966,-1.12741 -2.0338,-2.21604 -3.1114,-3.26562 -0.9963,-1.12672 -2.0343,-2.21454 -3.1113,-3.26367 -1.009,-1.14098 -2.0589,-2.24313 -3.1504,-3.30469 -0.9909,-1.11899 -2.0235,-2.19954 -3.0937,-3.24219 -1.006,-1.13727 -2.0529,-2.23623 -3.1406,-3.29492 -0.9937,-1.12226 -2.0266,-2.20805 -3.0997,-3.25391 -1.0116,-1.1439 -2.0662,-2.24773 -3.1601,-3.3125 -1.0035,-1.13324 -2.0467,-2.22952 -3.1309,-3.28515 -1.0024,-1.132 -2.0462,-2.22652 -3.1289,-3.28125 -1.0024,-1.13231 -2.0444,-2.22801 -3.127,-3.28321 -1.0088,-1.13987 -2.0586,-2.24079 -3.1484,-3.30273 -1.0168,-1.1486 -2.075,-2.25853 -3.1738,-3.32813 -0.9974,-1.12561 -2.0351,-2.21383 -3.1114,-3.26367 -1.0187,-1.15138 -2.0788,-2.26355 -3.1796,-3.33594 -1.0087,-1.13862 -2.0576,-2.23934 -3.1465,-3.30078 -1.0126,-1.14356 -2.0668,-2.24853 -3.1602,-3.31445 -1.0161,-1.14732 -2.0728,-2.25685 -3.17,-3.32617 -1.0143,-1.14504 -2.069,-2.25087 -3.1641,-3.31836 -1.0192,-1.15087 -2.079,-2.26324 -3.1796,-3.33594 -1.0147,-1.14506 -2.0709,-2.2525 -3.166,-3.32031 -1.0192,-1.15048 -2.0796,-2.26325 -3.1797,-3.33594 -1.0195,-1.15065 -2.0794,-2.26294 -3.1796,-3.33594 -1.021,-1.15226 -2.0838,-2.26529 -3.1856,-3.33984 -1.0224,-1.15379 -2.0843,-2.26967 -3.1875,-3.3457 -1.0224,-1.15362 -2.0845,-2.26967 -3.1875,-3.34571 -1.0273,-1.15922 -2.0965,-2.27832 -3.2051,-3.35937 -1.0242,-1.15532 -2.0885,-2.27181 -3.1933,-3.34961 -1.0256,-1.15695 -2.0911,-2.27607 -3.1973,-3.35547 -1.0272,-1.15886 -2.0952,-2.2801 -3.2031,-3.36133 -1.0294,-1.16127 -2.1007,-2.28371 -3.211,-3.36719 -1.0323,-1.1644 -2.1052,-2.28866 -3.2187,-3.375 -1.0286,-1.15975 -2.0981,-2.28083 -3.207,-3.36328 -1.0329,-1.16494 -2.105,-2.29176 -3.2188,-3.3789 -1.0347,-1.16684 -2.1108,-2.29584 -3.2266,-3.38477 -1.035,-1.16689 -2.1106,-2.29565 -3.2265,-3.38476 -1.0337,-1.16521 -2.1085,-2.29306 -3.2227,-3.38086 -1.0364,-1.16853 -2.1152,-2.29781 -3.2324,-3.38868 -1.0376,-1.16977 -2.116,-2.30046 -3.2344,-3.39257 -1.0409,-1.1735 -2.1221,-2.30881 -3.2441,-3.4043 -1.0399,-1.17196 -2.1215,-2.30609 -3.2422,-3.40039 -1.0385,-1.17024 -2.1175,-2.30352 -3.2363,-3.39649 -1.0475,-1.18076 -2.1366,-2.3235 -3.2657,-3.42578 -1.0404,-1.17196 -2.1214,-2.30564 -3.2421,-3.40039 -1.0453,-1.17771 -2.1317,-2.31804 -3.2579,-3.41797 -1.0457,-1.17811 -2.1312,-2.31754 -3.2578,-3.41796 -1.0468,-1.17934 -2.1341,-2.32023 -3.2617,-3.42188 -1.0511,-1.18411 -2.143,-2.3296 -3.2754,-3.43555 -1.0464,-1.17824 -2.133,-2.31894 -3.2597,-3.41992 -1.0503,-1.18292 -2.1424,-2.32836 -3.2735,-3.43359 -1.0535,-1.18649 -2.1466,-2.33488 -3.2812,-3.44336 -1.0485,-1.18043 -2.139,-2.32047 -3.2676,-3.42383 -1.0549,-1.18831 -2.1512,-2.33881 -3.2871,-3.44922 -1.0528,-1.18565 -2.146,-2.33316 -3.2793,-3.4414 -1.0612,-1.1953 -2.1639,-2.35196 -3.3067,-3.46875 -1.0521,-1.18415 -2.1451,-2.3303 -3.2773,-3.4375 -1.0578,-1.19121 -2.1564,-2.34347 -3.2949,-3.45703 -1.0612,-1.19497 -2.1644,-2.35177 -3.3067,-3.46875 -1.0605,-1.19382 -2.1614,-2.34873 -3.3027,-3.46484 -1.0621,-1.1956 -2.1656,-2.35289 -3.3086,-3.47071 -1.062,-1.19532 -2.1658,-2.35298 -3.3086,-3.4707 -1.0671,-1.20102 -2.1738,-2.3635 -3.3222,-3.48633 -1.0641,-1.19697 -2.1698,-2.35518 -3.3145,-3.47461 -1.0678,-1.20128 -2.1754,-2.36493 -3.3242,-3.48828 -1.0664,-1.19941 -2.1733,-2.36056 -3.3203,-3.48242 -1.0667,-1.19973 -2.1732,-2.36208 -3.3204,-3.48438 -1.071,-1.20493 -2.182,-2.37103 -3.334,-3.49804 -1.0694,-1.20275 -2.1802,-2.36694 -3.33,-3.49219 -1.0742,-1.20825 -2.1885,-2.37761 -3.3439,-3.50781 -1.0724,-1.206 -2.1847,-2.37359 -3.3378,-3.50196 -1.0721,-1.20553 -2.1854,-2.37186 -3.3379,-3.5 -1.0752,-1.20932 -2.1898,-2.3801 -3.3457,-3.51172 -1.0782,-1.21254 -2.1983,-2.38691 -3.3575,-3.52148 -1.0763,-1.21017 -2.1926,-2.38299 -3.3496,-3.51563 -1.0784,-1.21256 -2.1982,-2.38659 -3.3574,-3.52148 -1.081,-1.21544 -2.2033,-2.39175 -3.3652,-3.5293 -1.0815,-1.21566 -2.2048,-2.39337 -3.3672,-3.53125 -1.0842,-1.2185 -2.2078,-2.39857 -3.3731,-3.53906 -1.0788,-1.21219 -2.1984,-2.38636 -3.3574,-3.52148 -1.0886,-1.2238 -2.2185,-2.40925 -3.3887,-3.55469 -1.0831,-1.21683 -2.2074,-2.39569 -3.371,-3.53516 -1.0887,-1.22322 -2.2171,-2.40946 -3.3868,-3.55468 -1.0849,-1.21873 -2.2096,-2.39959 -3.375,-3.54102 -1.0921,-1.22712 -2.225,-2.41552 -3.3984,-3.56445 -1.0894,-1.22347 -2.2186,-2.40883 -3.3887,-3.55469 -13.1057,-14.71941 -32.1857,-24.00195 -53.4336,-24.00195 -39.497,0 -71.3925,32.04401 -71.3925,71.54101 v 65.36914 c -0.2729,-0.27614 -0.5525,-0.54502 -0.8301,-0.81641 -1.0553,-1.1884 -2.151,-2.33858 -3.2871,-3.44922 -1.0589,-1.19236 -2.1587,-2.34671 -3.2989,-3.46093 -1.0529,-1.18509 -2.1462,-2.33143 -3.2793,-3.43945 -1.0596,-1.19324 -2.1601,-2.34758 -3.3007,-3.46289 -1.0601,-1.19343 -2.1618,-2.34728 -3.3028,-3.46289 -1.0579,-1.19086 -2.1565,-2.34351 -3.2949,-3.45704 -1.0661,-1.20028 -2.1727,-2.36247 -3.3203,-3.48437 -1.06,-1.19267 -2.1604,-2.34751 -3.3008,-3.46289 -1.0634,-1.19689 -2.1683,-2.35536 -3.3125,-3.47461 -1.0671,-1.20093 -2.176,-2.36342 -3.3242,-3.48633 -1.0649,-1.198 -2.171,-2.35801 -3.3164,-3.47851 -1.0696,-1.20341 -2.1794,-2.36878 -3.3301,-3.49414 -1.0661,-1.19908 -2.1718,-2.3607 -3.3184,-3.48243 -1.0692,-1.20294 -2.18,-2.3669 -3.33,-3.49218 -1.0726,-1.20666 -2.1862,-2.37524 -3.3399,-3.50391 -1.0702,-1.20365 -2.1812,-2.36796 -3.332,-3.49414 -1.072,-1.20582 -2.1852,-2.37371 -3.3379,-3.50195 -1.0741,-1.2082 -2.1888,-2.37734 -3.3437,-3.50782 -1.0761,-1.21036 -2.1926,-2.38115 -3.3497,-3.51367 -1.08,-1.21458 -2.2018,-2.39101 -3.3632,-3.52734 -1.0733,-1.20624 -2.1865,-2.37473 -3.3399,-3.50391 -1.0782,-1.21251 -2.1964,-2.38663 -3.3554,-3.52148 -1.0846,-1.21966 -2.2108,-2.39979 -3.3769,-3.54102 -1.0786,-1.21191 -2.1966,-2.38691 -3.3555,-3.52148 -1.0822,-1.21648 -2.206,-2.39447 -3.3691,-3.53321 -1.083,-1.21717 -2.2073,-2.39565 -3.3711,-3.53515 -1.0869,-1.22153 -2.2128,-2.40538 -3.3809,-3.54883 -1.0832,-1.21683 -2.2075,-2.39569 -3.3711,-3.53516 -1.0886,-1.22315 -2.2171,-2.40953 -3.3868,-3.55468 -1.085,-1.2188 -2.2114,-2.39952 -3.3768,-3.54102 -1.0895,-1.22409 -2.2184,-2.41034 -3.3887,-3.55664 -1.0896,-1.22404 -2.2203,-2.41025 -3.3906,-3.55664 -13.1057,-14.72312 -32.1899,-24.00781 -53.4414,-24.00781 -39.497,0 -71.5411,32.04401 -71.5411,71.54101 v 65.36914 c -0.27289,-0.27614 -0.55245,-0.54503 -0.83007,-0.81641 -1.0578,-1.19123 -2.15588,-2.34591 -3.29493,-3.45898 -1.05634,-1.18904 -2.15385,-2.33988 -3.29101,-3.45117 -1.05487,-1.18722 -2.14987,-2.33739 -3.28516,-3.44727 -1.06024,-1.19356 -2.1614,-2.34928 -3.30273,-3.46484 -1.05661,-1.18907 -2.15407,-2.33938 -3.29102,-3.45117 -1.06374,-1.19751 -2.16745,-2.35725 -3.3125,-3.47656 -1.05906,-1.19163 -2.15939,-2.34466 -3.29883,-3.45899 -1.06249,-1.19586 -2.16533,-2.35251 -3.30859,-3.4707 -1.06283,-1.19619 -2.16707,-2.35402 -3.31055,-3.47266 -1.0661,-1.19992 -2.17322,-2.36233 -3.32031,-3.48437 -1.07167,-1.20594 -2.18459,-2.37259 -3.33789,-3.5 -1.06414,-1.19648 -2.16811,-2.35533 -3.3125,-3.47461 -1.06599,-1.19903 -2.17196,-2.36073 -3.31836,-3.48242 -1.07041,-1.20436 -2.18263,-2.36958 -3.33398,-3.4961 -1.07201,-1.2059 -2.18489,-2.37395 -3.33789,-3.50195 -1.07248,-1.20613 -2.1865,-2.37362 -3.33985,-3.50195 -1.07101,-1.20427 -2.18249,-2.37119 -3.33398,-3.49805 -1.07297,-1.20672 -2.18624,-2.37473 -3.33985,-3.50391 -1.07797,-1.21249 -2.19625,-2.38711 -3.35546,-3.52148 -1.07291,-1.20621 -2.18668,-2.37489 -3.33985,-3.50391 -1.08047,-1.21517 -2.20349,-2.39228 -3.36523,-3.52929 -1.07666,-1.21031 -2.19247,-2.38273 -3.34961,-3.51563 -1.0846,-1.21947 -2.21084,-2.39997 -3.37695,-3.54102 -1.07766,-1.21077 -2.19562,-2.384 -3.35352,-3.51757 -1.08227,-1.21647 -2.20604,-2.39448 -3.36914,-3.53321 -1.08208,-1.21612 -2.20449,-2.39462 -3.36719,-3.5332 -1.08535,-1.21991 -2.21064,-2.40092 -3.37695,-3.54297 -1.0833,-1.21736 -2.20732,-2.39519 -3.3711,-3.53515 -1.09042,-1.22567 -2.22076,-2.41317 -3.39257,-3.56055 -1.08377,-1.21745 -2.20909,-2.39679 -3.37305,-3.53711 -1.0909,-1.226 -2.2225,-2.41452 -3.39453,-3.5625 -1.09225,-1.22705 -2.22507,-2.41543 -3.39844,-3.56445 -13.1055,-14.71819 -32.18605,-24 -53.43359,-24 z" /><g
     id="g30"
     transform="matrix(1.4904399,0,0,1.4904399,368.6608,314.96012)"
     style="fill:#f0c518;fill-opacity:1">
	<g
   id="g28"
   style="fill:#f0c518;fill-opacity:1">
		<path
   d="m 579.1,894 c 0,26.5 21.5,48 48,48 26.5,0 48,-21.5 48,-48 V 816.5 H 579.2 V 894 Z"
   id="path2"
   style="fill:#f0c518;fill-opacity:1" />
		<path
   d="m 579.1,48 v 77.5 H 675 V 48 C 675,21.5 653.5,0 627,0 600.5,0 579.1,21.5 579.1,48 Z"
   id="path4"
   style="fill:#f0c518;fill-opacity:1" />
		<path
   d="m 423,48 v 77.5 h 96 V 48 C 519,21.5 497.5,0 471,0 444.5,0 423,21.5 423,48 Z"
   id="path6"
   style="fill:#f0c518;fill-opacity:1" />
		<path
   d="m 423,894 c 0,26.5 21.5,48 48,48 26.5,0 48,-21.5 48,-48 v -77.5 h -96 z"
   id="path8"
   style="fill:#f0c518;fill-opacity:1" />
		<path
   d="m 267,48 v 77.5 h 95.9 V 48 C 362.9,21.5 341.4,0 314.9,0 288.4,0 267,21.5 267,48 Z"
   id="path10"
   style="fill:#f0c518;fill-opacity:1" />
		<path
   d="m 267,894 c 0,26.5 21.5,48 48,48 26.5,0 48,-21.5 48,-48 v -77.5 h -96 z"
   id="path12"
   style="fill:#f0c518;fill-opacity:1" />
		<path
   d="m 0,627 c 0,26.5 21.5,48 48,48 h 77.5 V 579.1 H 48 C 21.5,579.1 0,600.5 0,627 Z"
   id="path14"
   style="fill:#f0c518;fill-opacity:1" />
		<path
   d="M 894,579.1 H 816.5 V 675 H 894 c 26.5,0 48,-21.5 48,-48 0,-26.5 -21.5,-47.9 -48,-47.9 z"
   id="path16"
   style="fill:#f0c518;fill-opacity:1" />
		<path
   d="m 0,471 c 0,26.5 21.5,48 48,48 h 77.5 V 423 H 48 C 21.5,423 0,444.5 0,471 Z"
   id="path18"
   style="fill:#f0c518;fill-opacity:1" />
		<path
   d="m 894,423 h -77.5 v 96 H 894 c 26.5,0 48,-21.5 48,-48 0,-26.5 -21.5,-48 -48,-48 z"
   id="path20"
   style="fill:#f0c518;fill-opacity:1" />
		<path
   d="m 0,315 c 0,26.5 21.5,48 48,48 h 77.5 V 267 H 48 C 21.5,267 0,288.5 0,315 Z"
   id="path22"
   style="fill:#f0c518;fill-opacity:1" />
		<path
   d="m 894,267 h -77.5 v 95.9 H 894 c 26.5,0 48,-21.5 48,-48 0,-26.5 -21.5,-47.9 -48,-47.9 z"
   id="path24"
   style="fill:#f0c518;fill-opacity:1" />
		<path
   d="m 171.6,720.4 c 0,27.6 22.4,50 50,50 h 498.8 c 27.6,0 50,-22.4 50,-50 V 221.6 c 0,-27.6 -22.4,-50 -50,-50 H 221.6 c -27.6,0 -50,22.4 -50,50 z"
   id="path26"
   style="fill:#f0c518;fill-opacity:1" />
	</g>
</g><text
     id="text58"
     y="1097.1569"
     x="877.37482"
     style="font-style:normal;font-variant:normal;font-weight:normal;font-stretch:normal;font-size:225.616px;line-height:1.25;font-family:'Roboto Condensed';-inkscape-font-specification:'Roboto Condensed, Normal';font-variant-ligatures:normal;font-variant-caps:normal;font-variant-numeric:normal;font-variant-east-asian:normal;letter-spacing:0px;word-spacing:0px;fill:#f2f2f2;fill-opacity:1;stroke:#000000;stroke-width:4;stroke-miterlimit:4;stroke-dasharray:none;stroke-opacity:1"
     xml:space="preserve"><tspan
       style="font-style:normal;font-variant:normal;font-weight:normal;font-stretch:normal;font-size:225.616px;font-family:'Roboto Condensed';-inkscape-font-specification:'Roboto Condensed, Normal';font-variant-ligatures:normal;font-variant-caps:normal;font-variant-numeric:normal;font-variant-east-asian:normal;fill:#f2f2f2;stroke:#000000;stroke-width:4;stroke-miterlimit:4;stroke-dasharray:none;stroke-opacity:1"
       y="1097.1569"
       x="877.37482"
       id="tspan56"
       sodipodi:role="line">ENG</tspan></text></g></svg>
