<?xml version="1.0" encoding="UTF-8" standalone="no"?>
<svg
   xmlns:dc="http://purl.org/dc/elements/1.1/"
   xmlns:cc="http://creativecommons.org/ns#"
   xmlns:rdf="http://www.w3.org/1999/02/22-rdf-syntax-ns#"
   xmlns:svg="http://www.w3.org/2000/svg"
   xmlns="http://www.w3.org/2000/svg"
   xmlns:sodipodi="http://sodipodi.sourceforge.net/DTD/sodipodi-0.dtd"
   xmlns:inkscape="http://www.inkscape.org/namespaces/inkscape"
   sodipodi:docname="microelectronics_systems_scalable.svg"
   inkscape:version="1.0 (4035a4fb49, 2020-05-01)"
   inkscape:export-ydpi="96"
   inkscape:export-xdpi="96"
   inkscape:export-filename="C:\Users\linos\Desktop\Icone gruppi telegram\electronic_systems.png"
   id="svg27"
   version="1.1"
   viewBox="0 0 67.733338 67.733338"
   height="67.733337mm"
   width="67.733337mm">
  <defs
     id="defs21" />
  <sodipodi:namedview
     inkscape:window-maximized="1"
     inkscape:window-y="-9"
     inkscape:window-x="-9"
     inkscape:window-height="1013"
     inkscape:window-width="1920"
     showgrid="false"
     inkscape:document-rotation="0"
     inkscape:current-layer="layer1"
     inkscape:document-units="mm"
     inkscape:cy="999.36804"
     inkscape:cx="1429.7073"
     inkscape:zoom="0.35"
     inkscape:pageshadow="2"
     inkscape:pageopacity="0.0"
     borderopacity="1.0"
     bordercolor="#666666"
     pagecolor="#ffffff"
     id="base" />
  <metadata
     id="metadata24">
    <rdf:RDF>
      <cc:Work
         rdf:about="">
        <dc:format>image/svg+xml</dc:format>
        <dc:type
           rdf:resource="http://purl.org/dc/dcmitype/StillImage" />
        <dc:title></dc:title>
      </cc:Work>
    </rdf:RDF>
  </metadata>
  <g
     transform="translate(365.56061,157.07645)"
     id="layer1"
     inkscape:groupmode="layer"
     inkscape:label="Livello 1">
    <g
       transform="matrix(0.12500001,0,0,0.12500001,-319.86553,-137.44189)"
       id="g98520">
      <rect
         style="fill:#cddc39;fill-opacity:1;stroke-width:3.33438"
         id="rect29"
         width="541.86664"
         height="541.86664"
         x="-365.56061"
         y="-157.07645"
         rx="1.1923313"
         ry="1.5806329" />
      <path
         id="path94492"
         style="fill:#000001;fill-opacity:0.247059;stroke:none;stroke-width:5.22387"
         d="m -240.81836,-134.20898 v 0.002 153.609374 c -3.55784,-0.272551 -7.12838,-0.500011 -10.71094,-0.681641 h -0.002 c -7.02456,-0.356101 -14.09594,-0.537081 -21.20898,-0.537109 h -0.004 c -0.12926,-7.6e-5 -0.25746,-7.6e-5 -0.38672,0 h -0.002 c -117.28655,0.111803 -223.09218,49.207229 -298.07422,127.925786 v 0.002 c -4.54402,4.77049 -8.97575,9.64904 -13.28906,14.63281 v 0.002 c -2.15648,2.4917 -4.28562,5.00935 -6.38282,7.55274 v 0.002 c -1.04843,1.2715 -2.08963,2.54781 -3.12304,3.83203 v 0.002 c -1.03341,1.28421 -2.05988,2.57429 -3.07813,3.87109 v 0.002 c -1.01824,1.2968 -2.03024,2.59896 -3.0332,3.90821 v 0.002 c -1.00295,1.30925 -1.9988,2.62375 -2.98633,3.94531 v 0.002 c -3.95103,5.28752 -7.77973,10.67311 -11.47851,16.15235 v 0.002 c -0.92447,1.36947 -1.84165,2.74389 -2.75,4.125 v 0.002 c -0.90837,1.38112 -1.80904,2.76754 -2.70118,4.16016 v 0.002 c -2.67698,4.17879 -5.28209,8.40755 -7.81054,12.6875 v 0.002 c -3.37134,5.70677 -6.60925,11.50175 -9.70899,17.38086 v 0.002 c -5.42468,10.28882 -10.42779,20.83491 -14.98437,31.61523 v 0.002 c -1.95267,4.61982 -3.82415,9.2823 -5.61133,13.98633 v 0.002 c -15.55969,40.95499 -24.77676,85.0329 -26.45703,131.0332 H -854.6955 v 30.61328 h 0.004 0.004 v 0.008 h 0.008 v 0.008 h 0.0117 v 0.0117 h 0.0117 v 0.01 h 0.004 0.0137 v 0.0195 h 0.0195 v 0.0234 h 0.0234 v 0.0215 h 0.0254 v 0.0273 h 0.0312 v 0.0293 h 0.0293 v 0.0351 h 0.0332 v 0.0332 h 0.004 0.0352 v 0.041 h 0.004 0.0371 v 0.043 h 0.0449 v 0.0449 h 0.0469 v 0.0488 h 0.0488 v 0.0527 h 0.004 0.0527 v 0.0566 h 0.0527 v 0.0566 h 0.004 0.0566 v 0.0645 h 0.0645 v 0.0644 h 0.0644 v 0.0684 h 0.0664 v 0.0723 h 0.0723 v 0.0742 h 0.0723 v 0.0762 h 0.004 0.0762 v 0.084 h 0.0781 v 0.082 h 0.084 v 0.0879 h 0.004 0.082 v 0.0898 h 0.0918 v 0.0937 h 0.0898 v 0.0957 h 0.004 0.0957 v 0.10156 h 0.0977 v 0.10157 h 0.10156 v 0.10742 h 0.10156 v 0.10937 h 0.004 0.10547 v 0.11328 h 0.11133 v 0.11328 h 0.004 0.10938 v 0.1211 h 0.004 0.11328 v 0.12109 h 0.004 0.11719 v 0.12305 h 0.12305 v 0.12891 h 0.125 v 0.13281 h 0.1289 v 0.13672 h 0.13281 v 0.13476 h 0.13477 v 0.14063 h 0.13672 v 0.14648 h 0.004 0.14063 v 0.14844 h 0.14258 v 0.14648 h 0.14843 v 0.15625 h 0.14649 v 0.15821 h 0.004 0.15039 v 0.1582 h 0.15625 v 0.16211 h 0.004 0.15821 v 0.16797 h 0.16211 v 0.16992 h 0.1621 v 0.17383 h 0.004 0.16797 v 0.17383 h 0.16992 v 0.18164 h 0.004 0.16992 v 0.17968 h 0.004 0.17382 v 0.18555 h 0.002 0.17773 v 0.18945 h 0.004 0.18164 v 0.19336 h 0.18554 v 0.19141 h 0.004 0.18555 v 0.20117 h 0.004 0.18946 v 0.20117 h 0.002 0.19336 v 0.20313 h 0.004 0.19726 v 0.20703 h 0.19922 V 452.75 h 0.004 0.20507 v 0.21484 h 0.20704 v 0.21485 h 0.20898 v 0.2207 h 0.004 0.21093 v 0.22656 h 0.21485 v 0.22266 h 0.004 0.21875 v 0.23047 h 0.22461 v 0.23437 h 0.22657 v 0.23438 h 0.22656 v 0.24219 h 0.004 0.23047 v 0.24218 h 0.23438 v 0.24414 h 0.23828 v 0.25 h 0.24023 v 0.25391 h 0.2461 v 0.25195 h 0.24609 v 0.25782 h 0.25 v 0.26367 h 0.004 0.24804 v 0.26562 h 0.004 0.25391 v 0.26758 h 0.004 0.25586 v 0.26953 h 0.26172 v 0.27539 h 0.004 0.26367 v 0.27539 h 0.26953 v 0.28321 h 0.27149 v 0.28515 h 0.27148 v 0.28711 h 0.004 0.27734 v 0.28711 h 0.2793 v 0.29492 h 0.2832 v 0.29492 h 0.004 0.2832 v 0.30079 h 0.29102 v 0.30273 h 0.29101 v 0.30664 h 0.004 0.29492 v 0.31055 h 0.29883 v 0.30859 h 0.30273 v 0.31836 h 0.30469 v 0.31641 h 0.30664 v 0.32226 h 0.31055 v 0.32422 h 0.004 0.3125 v 0.33008 h 0.31446 v 0.33203 h 0.004 0.31641 v 0.33203 h 0.004 0.32227 v 0.33594 h 0.32422 v 0.3457 h 0.33008 v 0.34375 h 0.004 0.32813 v 0.34375 h 0.004 0.33204 v 0.35157 h 0.33984 v 0.35546 h 0.33984 v 0.35352 h 0.34571 v 0.35938 h 0.34765 v 0.36328 h 0.35157 v 0.36718 h 0.35156 v 0.36914 h 0.002 0.35547 v 0.375 h 0.35937 v 0.375 h 0.36329 v 0.37696 h 0.36718 v 0.38281 h 0.36524 v 0.38477 h 0.004 0.3711 v 0.38867 h 0.375 v 0.39258 h 0.37695 v 0.39453 h 0.38281 v 0.39648 h 0.38086 v 0.40039 h 0.004 0.38476 v 0.4043 h 0.39063 v 0.4082 h 0.39258 v 0.41211 h 0.39648 v 0.41211 h 0.40039 v 0.41992 h 0.40039 v 0.41992 h 0.4043 v 0.42188 h 0.004 0.40429 v 0.42773 h 0.004 0.4082 v 0.42774 h 0.41602 v 0.43359 h 0.41601 v 0.43555 h 0.004 0.41602 v 0.4375 h 0.004 0.42188 v 0.44336 h 0.42383 v 0.44531 h 0.004 0.42774 v 0.44922 h 0.43359 v 0.45312 h 0.43555 v 0.45508 h 0.4375 v 0.45703 h 0.44336 v 0.46094 h 0.4414 v 0.46484 h 0.004 0.44531 v 0.46876 h 0.45117 v 0.46874 h 0.45313 v 0.47657 h 0.004 0.45313 v 0.47461 h 0.46094 v 0.48047 h 0.46093 v 0.48437 h 0.004 0.46484 v 0.48828 h 0.46875 v 0.49024 h 0.47266 v 0.49218 h 0.47266 v 0.49414 h 0.004 0.47656 v 0.5 h 0.47852 v 0.50196 h 0.004 0.48047 v 0.50586 h 0.004 0.48438 v 0.51172 h 0.004 0.48633 v 0.50976 h 0.49609 v 0.51758 h 0.49415 v 0.51758 h 0.5 v 0.52148 h 0.50195 v 0.52539 h 0.50586 v 0.52539 h 0.50781 v 0.53321 h 0.004 0.50976 v 0.5332 h 0.51367 v 0.53516 h 0.51758 v 0.54101 h 0.51758 v 0.54492 h 0.004 0.52148 v 0.54688 h 0.52539 v 0.55273 h 0.004 0.5293 v 0.55078 h 0.5332 v 0.55664 h 0.5332 v 0.5586 h 0.004 0.53711 v 0.56445 h 0.53906 v 0.56641 h 0.004 0.54492 V 497 h 0.54687 v 0.57031 h 0.54883 v 0.57617 h 0.004 0.55273 v 0.57813 h 0.55469 v 0.58203 h 0.004 0.5586 v 0.58594 h 0.56445 v 0.58789 h 0.5625 v 0.58984 h 0.004 0.5664 v 0.59375 h 0.57032 v 0.60156 h 0.004 0.57422 v 0.59961 h 0.58008 v 0.60157 h 0.57812 v 0.60937 h 0.004 0.58203 v 0.60742 h 0.58789 v 0.61719 h 0.58985 v 0.61524 h 0.59375 v 0.61914 h 0.59765 v 0.625 h 0.59766 v 0.62695 h 0.004 0.59961 v 0.62695 h 0.60546 v 0.63086 h 0.60743 v 0.63867 h 0.61328 v 0.63868 h 0.61523 v 0.64257 h 0.61719 v 0.64258 h 0.61914 v 0.65039 h 0.004 0.61914 v 0.65039 h 0.004 0.625 v 0.6543 h 0.004 0.62695 v 0.66016 h 0.63086 v 0.6582 h 0.004 0.63476 v 0.66602 h 0.63867 v 0.66796 h 0.64258 v 0.66993 h 0.64258 v 0.67578 h 0.004 0.64648 v 0.67773 h 0.65039 v 0.67969 h 0.65235 v 0.67969 h 0.004 0.6543 v 0.6875 h 0.66211 v 0.68945 h 0.66016 v 0.69531 h 0.004 0.66602 v 0.69531 h 0.66797 v 0.69922 h 0.67382 v 0.70313 h 0.67579 v 0.70312 h 0.67773 v 0.70899 h 0.67969 v 0.71093 h 0.004 0.6836 v 0.71485 h 0.68359 v 0.71875 h 0.004 0.68945 v 0.7207 h 0.004 0.6914 v 0.72656 h 0.69532 v 0.72461 h 0.69921 v 0.73438 h 0.004 0.69922 v 0.73242 h 0.004 0.70313 v 0.73633 h 0.70898 v 0.74219 h 0.71094 v 0.74414 h 0.71485 v 0.74414 h 0.71875 v 0.75195 h 0.7207 v 0.75195 h 0.72265 v 0.75586 h 0.004 0.72461 v 0.75977 h 0.73047 v 0.76367 h 0.73242 v 0.76367 h 0.73633 v 0.77149 h 0.73828 v 0.77148 h 0.004 0.74023 v 0.77344 h 0.74414 v 0.7793 h 0.74805 v 0.7832 h 0.75195 v 0.78125 h 0.75391 v 0.79101 h 0.004 0.75586 v 0.78907 h 0.75782 v 0.79297 h 0.76367 v 0.79882 h 0.76758 v 0.80079 h 0.77148 v 0.80468 h 0.77148 v 0.80469 h 0.77344 v 0.8125 h 0.004 0.77539 v 0.8125 h 0.004 0.77929 v 0.81641 h 0.78516 v 0.82031 h 0.78711 v 0.82422 h 0.004 0.78516 v 0.82422 h 0.004 0.79297 v 0.82812 h 0.79492 v 0.83399 h 0.004 0.79688 v 0.83593 h 0.80469 v 0.83985 h 0.80468 v 0.83789 h 0.8086 v 0.84765 h 0.81445 v 0.84571 h 0.8125 v 0.85547 h 0.004 0.8164 v 0.85351 h 0.81836 v 0.85742 h 0.82422 v 0.85743 h 0.004 0.82422 v 0.86718 h 0.83203 v 0.86524 h 0.83203 v 0.87304 h 0.002 0.83594 v 0.87305 h 0.83984 v 0.87695 h 0.8418 v 0.88086 h 0.84375 v 0.88086 h 0.004 0.8457 v 0.88672 h 0.85156 v 0.88867 h 0.004 0.84961 v 0.89258 h 0.004 0.85352 v 0.89453 h 0.004 0.85742 v 0.90039 h 0.86719 v 0.90235 h 0.86523 v 0.90429 h 0.86914 v 0.91016 h 0.87305 v 0.91211 h 0.87695 v 0.91406 h 0.87695 v 0.91797 h 0.004 0.87891 v 0.91797 h 0.88476 v 0.92578 h 0.88867 v 0.92774 h 0.89258 v 0.92968 h 0.89063 v 0.9375 h 0.89648 v 0.93164 h 0.004 0.90039 v 0.94141 h 0.90234 v 0.94531 h 0.9043 v 0.94531 h 0.002 0.9082 v 0.94922 h 0.91016 v 0.95508 h 0.004 0.91601 v 0.95313 h 0.91797 v 0.95898 h 0.91797 v 0.96484 h 0.004 0.92187 v 0.9629 h 0.92578 v 0.97265 h 0.004 0.92969 v 0.9707 h 0.93359 v 0.97461 h 0.93359 v 0.97461 h 0.004 0.9375 v 0.98438 h 0.94141 v 0.98633 h 0.004 0.94531 v 0.98632 h 0.94727 v 0.99024 h 0.94922 v 0.99414 h 0.004 0.95312 v 0.99805 h 0.95898 v 1 h 0.96094 v 1.00195 h 0.96289 v 1.00976 h 0.9668 v 1.00782 h 0.96875 v 1.01367 h 0.004 0.9707 v 1.01758 h 0.97461 v 1.01562 h 0.98047 v 1.02539 h 0.98242 v 1.02344 h 0.98633 v 1.03125 h 0.98633 v 1.0332 h 0.99023 v 1.03125 h 0.004 0.99023 v 1.03907 h 0.004 0.99414 v 1.04297 h 0.004 0.9961 v 1.04296 h 1.00195 v 1.05078 h 0.004 1.00586 v 1.05079 h 1.00976 v 1.05468 h 1.01172 v 1.05469 h 1.01367 v 1.0625 h 0.004 1.01562 v 1.06055 h 1.02149 v 1.07031 h 1.02344 v 1.07031 h 0.004 1.02539 v 1.07227 h 0.002 1.02929 v 1.07812 h 1.03125 v 1.07618 h 0.004 1.03516 v 1.08593 h 1.03906 v 1.08399 h 1.04297 v 1.08789 h 1.04882 v 1.09375 h 1.04688 v 1.0957 h 1.05078 v 1.09961 h 0.002 1.05469 v 1.09961 h 1.05859 v 1.10742 h 1.0586 v 1.10742 h 0.004 1.0625 v 1.11133 h 1.06446 v 1.11524 h 1.07031 v 1.11914 h 0.004 1.07031 v 1.11718 h 0.004 1.07226 v 1.12305 h 1.08203 v 1.13086 h 1.08008 v 1.12891 h 1.08399 v 1.13476 h 1.08984 v 1.13281 h 1.0918 v 1.14258 h 1.0957 v 1.14063 h 1.0957 v 1.15039 h 1.09961 v 1.14844 h 1.10547 v 1.15234 h 1.10547 v 1.15625 h 1.10742 V 658 h 0.004 1.11132 v 1.16406 h 1.11524 v 1.16406 H -648 v 1.16797 h 1.12305 v 1.17188 h 1.125 v 1.17578 h 1.12695 v 1.17969 h 1.13086 v 1.17968 h 1.13281 v 1.18165 h 1.13867 v 1.1914 h 1.14063 v 1.18945 h 1.14062 v 1.19141 h 1.14649 v 1.19727 h 0.004 1.14454 v 1.20312 h 0.004 1.14844 v 1.20117 h 1.15625 v 1.20508 h 1.1582 v 1.21094 h 0.004 1.16016 v 1.21289 h 1.16406 v 1.2168 h 1.16406 v 1.2207 h 0.004 1.16797 v 1.2207 h 1.17382 v 1.22461 h 1.17578 v 1.22852 h 1.17969 v 1.23242 h 1.1836 v 1.23633 h 1.18554 v 1.23828 h 1.1875 v 1.24023 h 1.18946 v 1.24414 h 0.004 1.19141 v 1.2461 h 0.004 1.19336 v 1.25195 h 0.004 1.19922 v 1.25391 h 1.20117 v 1.25976 h 0.004 1.20507 v 1.25782 h 1.21094 v 1.26562 h 1.21289 v 1.26563 h 1.21289 v 1.27148 h 0.004 1.2168 v 1.26953 h 1.2207 v 1.27735 h 0.004 1.2207 v 1.28124 h 0.004 1.22461 v 1.28126 h 0.004 1.22852 v 1.28515 h 1.23632 v 1.28906 H -602 v 1.29297 h 1.24023 v 1.29492 h 1.24415 v 1.29688 h 1.24609 v 1.30469 h 1.24805 v 1.30273 h 0.004 1.25 v 1.3086 h 1.25586 v 1.31054 h 1.25781 v 1.31641 h 1.26368 v 1.31445 h 1.26171 v 1.32227 h 1.26954 v 1.32422 h 1.26953 v 1.32617 h 1.27343 v 1.33008 h 1.2754 v 1.33398 h 0.002 1.27929 v 1.33398 h 1.28126 v 1.3418 h 0.002 1.28515 v 1.3418 h 1.28907 v 1.3457 h 1.28906 v 1.34961 h 0.004 1.29296 v 1.35352 h 1.29688 v 1.35351 h 0.004 1.29882 v 1.35938 h 1.30469 v 1.36132 h 1.30274 v 1.36329 h 0.004 1.3086 v 1.36914 h 1.31054 v 1.37109 h 0.004 1.31641 v 1.37695 h 1.31835 v 1.375 h 1.32227 v 1.38282 h 1.32422 v 1.38476 h 1.33008 v 1.38672 h 1.33008 v 1.39063 h 1.33398 v 1.39453 h 1.33789 v 1.39453 h 1.33789 v 1.39844 h 0.004 1.34179 v 1.40625 h 1.34571 v 1.40625 h 1.34961 v 1.41015 h 1.35351 v 1.40821 h 1.35547 v 1.41796 h 1.35742 v 1.41797 h 1.36133 v 1.42383 h 0.004 1.35937 v 1.42578 h 0.004 1.36523 v 1.42774 h 0.004 1.36719 v 1.42968 h 1.37695 v 1.43555 h 1.375 v 1.43555 h 1.37891 v 1.44531 h 1.38476 v 1.44336 h 1.38281 v 1.44727 h 0.004 1.38672 v 1.45117 h 1.39062 v 1.45117 h 0.004 1.39062 v 1.45898 h 0.004 1.39453 v 1.45899 h 0.004 1.39844 v 1.46289 h 1.40625 v 1.4668 h 1.40625 v 1.4707 h 1.41015 v 1.47265 h 1.41211 v 1.47461 h 1.41797 v 1.48243 h 1.41797 v 1.48046 h 1.42383 v 1.48633 h 1.42578 v 1.48828 h 1.42773 v 1.49219 h 1.42969 v 1.49414 h 0.004 1.43164 v 1.4961 h 1.43554 v 1.5039 h 1.44141 v 1.50391 h 0.004 1.43945 v 1.50976 h 0.004 1.44336 v 1.50782 h 1.45117 v 1.51562 h 1.45117 v 1.51563 h 1.45508 v 1.52343 h 1.45898 v 1.52149 h 1.46289 v 1.52734 h 1.4668 v 1.52735 h 1.4668 v 1.53515 h 1.46875 v 1.53711 h 1.47461 v 1.53906 h 1.47851 v 1.54102 h 1.48047 v 1.54687 h 1.48242 v 1.54883 h 1.48438 v 1.55078 h 1.49023 v 1.55664 h 1.49219 v 1.55664 h 1.49805 v 1.56055 h 1.49609 v 1.56445 h 1.5 v 1.57032 h 1.50391 v 1.57226 h 1.50781 v 1.57227 h 1.51172 v 1.57812 h 1.51172 v 1.58008 h 1.51562 v 1.58399 h 0.004 1.51562 v 1.58789 h 0.004 1.51953 v 1.59179 h 1.52734 v 1.58985 h 1.52735 v 1.59961 h 0.004 1.5293 v 1.59765 h 1.53516 v 1.60352 h 1.53906 v 1.60547 h 1.53711 v 1.61133 h 1.54687 v 1.60937 h 1.54492 v 1.61719 h 1.55079 v 1.61719 h 1.55273 v 1.62304 h 1.55664 v 1.625 h 1.5586 v 1.62891 h 1.56054 v 1.62891 h 0.004 1.56055 v 1.63671 h 0.004 1.56445 v 1.63672 h 0.004 1.56836 v 1.63867 h 1.57617 v 1.64454 h 1.57617 v 1.64843 h 1.58008 v 1.65235 h 1.58399 v 1.65039 h 1.58593 v 1.66015 h 1.58789 v 1.65821 h 1.5918 v 1.66406 h 0.004 1.59375 v 1.66601 h 1.5957 v 1.66602 h 0.004 1.59765 v 1.67578 h 1.60743 v 1.67383 h 1.60546 v 1.67773 h 1.61133 v 1.68164 h 1.61328 v 1.68555 h 1.61719 v 1.68945 h 1.61719 v 1.69336 h 0.004 1.6211 v 1.69336 h 1.62695 v 1.69727 h 1.62891 v 1.70117 h 1.63281 v 1.70508 h 1.63281 v 1.70703 h 1.63867 v 1.71289 h 1.64063 v 1.71289 h 1.64453 v 1.71485 h 1.64844 v 1.7207 h 1.64648 v 1.72266 h 1.65235 v 1.72656 h 0.004 1.65625 v 1.73242 h 1.65821 v 1.73047 h 1.66015 v 1.73828 h 0.004 1.66211 v 1.73828 h 1.66601 v 1.74219 h 0.004 1.67187 v 1.74609 h 1.67383 v 1.7461 h 1.67383 v 1.7539 h 0.004 1.67773 v 1.75391 h 1.68555 v 1.75781 h 1.68554 v 1.76172 h 1.68946 v 1.76367 h 1.69336 v 1.76953 h 1.69336 v 1.76953 h 1.70117 v 1.77539 h 1.70117 v 1.77735 h 1.70508 v 1.7793 h 1.70703 v 1.78515 h 1.71094 v 1.78711 h 1.71289 v 1.78711 h 0.002 1.71485 v 1.79492 h 0.002 1.71875 v 1.79688 h 1.72265 v 1.79883 h 0.002 1.72461 v 1.80273 h 1.72851 v 1.80664 h 1.73242 v 1.80664 h 1.73438 v 1.81445 h 0.002 1.73633 v 1.8125 h 1.74219 v 1.81836 h 1.74414 v 1.82227 h 1.74609 v 1.82617 h 0.002 1.74804 v 1.82813 h 0.002 1.75195 v 1.83007 h 1.75586 v 1.83204 h 0.002 1.75781 v 1.83789 h 0.002 1.75976 v 1.83984 h 0.002 1.76367 v 1.84375 h 0.002 1.76758 v 1.84961 h 1.77148 v 1.84765 h 1.77344 v 1.85547 h 0.002 1.77539 v 1.85547 h 0.002 1.77929 v 1.85938 h 0.002 1.78125 v 1.86328 h 0.002 1.78516 v 1.86719 h 0.002 1.78906 v 1.86718 h 1.79102 v 1.875 h 0.002 1.79492 v 1.87501 h 1.79883 v 1.8789 h 1.80078 v 1.8809 h 0.002 1.80468 v 1.8828 h 1.80664 v 1.8906 h 0.002 1.81054 v 1.8887 h 1.8125 v 1.8984 h 0.002 1.8164 v 1.8965 h 1.82032 v 1.9004 h 1.82226 v 1.9023 h 1.82617 v 1.9082 h 1.82813 v 1.9121 h 0.002 1.83203 v 1.9121 h 1.83399 v 1.9161 h 0.002 1.83594 v 1.9199 h 0.002 1.83984 v 1.9238 h 0.002 1.84375 v 1.9238 h 1.8457 v 1.9317 h 0.002 1.84961 v 1.9316 h 1.85352 v 1.9356 h 1.85547 v 1.9394 h 0.002 1.85742 v 1.9414 h 0.002 1.86132 v 1.9473 h 1.86524 v 1.9453 h 0.002 1.86719 v 1.9551 h 0.002 1.86914 v 1.9531 h 0.002 1.87304 v 1.959 h 0.002 1.87695 v 1.9609 h 1.88086 v 1.9649 h 1.88281 v 1.9668 h 0.002 1.88477 v 1.9687 h 0.002 1.88867 v 1.9766 h 1.89258 v 1.9765 h 1.89649 v 1.9805 h 1.89843 v 1.9805 h 1.90235 v 1.9883 h 1.90625 v 1.9882 h 1.90625 v 1.9942 h 0.002 1.91016 v 1.9961 h 1.91406 v 2 h 1.91797 v 2.0019 h 1.91992 v 2.0039 h 1.92383 v 2.0118 h 1.92578 v 2.0097 h 1.92969 v 2.0137 h 1.93164 v 2.0195 h 1.93554 v 2.0215 h 1.93946 v 2.0215 h 1.9414 v 2.0312 h 1.94336 v 2.0293 h 0.002 1.94531 v 2.0332 h 0.002 1.94922 v 2.0372 h 1.95313 v 2.041 h 0.002 1.95508 v 2.0449 h 0.002 1.95899 v 2.0488 h 1.96289 v 2.0469 h 1.96484 v 2.0527 h 1.96875 v 2.0567 h 1.97266 v 2.0586 h 1.9746 v 2.0644 h 1.97852 v 2.0645 h 1.98047 v 2.0703 h 1.98437 v 2.0723 h 1.98633 v 2.0742 h 1.99024 v 2.0781 h 1.99414 v 2.082 h 1.99609 v 2.084 h 1.99805 v 2.0899 h 0.002 2 v 2.0898 h 0.002 2.00391 v 2.0937 h 2.00781 v 2.0977 h 0.002 2.00976 v 2.1016 h 2.01367 v 2.1015 h 0.002 2.01562 v 2.1094 h 0.002 2.01953 v 2.1074 h 2.02343 v 2.1133 h 2.02735 v 2.1172 h 2.02929 v 2.1191 h 2.03125 v 2.125 h 0.002 2.03515 v 2.125 h 2.03907 v 2.1309 h 2.04101 v 2.1309 h 2.04492 v 2.1367 h 2.04688 v 2.1386 h 0.002 H -161 v 2.1387 h 0.002 2.05274 v 2.1465 h 2.05664 v 2.1484 h 2.06055 v 2.1504 h 2.0625 v 2.1543 h 2.0664 v 2.1582 h 2.06836 v 2.1602 h 2.07227 v 2.166 h 2.07421 v 2.166 h 0.002 2.07617 v 2.1699 h 0.002 2.08008 v 2.1739 h 2.08399 v 2.1757 h 0.002 2.08594 v 2.1817 h 2.08984 v 2.1836 h 2.09375 v 2.1855 h 2.0957 v 2.1875 h 2.09961 v 2.1934 h 2.10352 V 1207 h 2.10351 v 2.1992 h 0.002 2.10742 v 2.2031 h 2.11133 v 2.2032 h 0.002 2.11328 v 2.2109 h 2.11719 v 2.2129 h 2.12109 v 2.2129 h 2.12305 v 2.2187 h 2.12695 v 2.2188 h 2.13086 v 2.2265 h 2.13281 v 2.2266 h 2.13477 v 2.2305 h 2.13867 v 2.2324 h 2.14258 v 2.2383 h 2.144531 v 2.2402 h 2.148438 v 2.2422 h 2.15039 v 2.2481 h 2.154297 v 2.25 h 2.15625 v 2.2519 h 0.002 2.158203 v 2.2559 h 0.002 2.162109 v 2.2597 h 2.166016 v 2.2618 h 2.169921 v 2.2675 h 2.171876 v 2.2676 h 2.175781 v 2.2715 h 2.177734 v 2.2754 h 2.181641 v 2.2793 h 2.183594 v 2.2793 h 0.002 2.185547 v 2.2851 h 2.191406 v 2.2871 h 2.193359 v 2.2911 h 2.195313 v 2.2929 h 0.002 2.199219 v 2.2989 h 2.201171 v 2.2968 h 0.002 2.205079 v 2.3067 h 2.208984 v 2.3047 h 2.210937 v 2.3105 h 2.214844 v 2.3125 h 2.216797 v 2.3164 h 0.002 2.220703 v 2.3203 h 2.222657 v 2.3203 h 0.002 2.224609 v 2.3301 h 0.002 2.228516 v 2.3281 h 2.232422 v 2.3321 h 0.002 2.234375 v 2.334 h 2.240234 v 2.3398 h 2.242188 v 2.3398 h 2.24414 v 2.3438 h 2.248047 v 2.3516 h 2.251953 v 2.3496 h 2.253907 v 2.3554 h 2.257812 v 2.3535 h 2.259766 v 2.3633 h 2.2636716 v 2.3614 h 2.265625 v 2.371 h 2.2695313 v 2.3692 h 2.2734375 v 2.373 H -0.8125 v 2.3731 h 2.2773438 v 2.3808 h 0.00195 2.2792969 v 2.3829 h 0.00195 2.2832031 v 2.3886 h 2.2871094 v 2.3887 h 0.00195 2.2890628 v 2.3926 h 0.002 2.292969 v 2.3945 h 2.296875 v 2.3965 H 17.5 v 2.4043 h 2.302734 v 2.4043 h 2.306641 v 2.4062 h 2.308594 v 2.4121 h 2.3125 v 2.4161 h 2.314453 v 2.4179 h 2.318359 V 1371 h 2.320313 v 2.4277 h 2.324218 v 2.4258 h 2.328126 v 2.4297 h 2.330078 v 2.4356 h 2.332031 v 2.4335 h 2.335937 v 2.4415 h 2.339844 v 2.4414 h 2.341797 v 2.4492 h 2.345703 v 2.4492 h 2.347656 v 2.4531 h 0.002 2.349609 v 2.4531 h 2.355469 v 2.461 h 2.357422 v 2.459 h 2.359374 v 2.4687 h 2.363282 v 2.4688 h 0.002 2.365234 v 2.4707 h 2.369141 v 2.4726 h 0.002 2.371094 v 2.4785 h 2.375 v 2.4825 h 0.002 2.376953 v 2.4843 h 0.002 2.38086 v 2.4864 h 2.384765 v 2.4902 h 2.386719 v 2.4961 h 0.002 2.390625 v 2.4941 h 2.392578 v 2.502 h 2.398438 v 2.5019 h 2.398437 v 2.5059 h 0.002 H 97.5 v 2.5098 h 2.40625 v 2.5136 h 2.4082 v 2.5157 h 2.41211 v 2.5175 h 2.41602 v 2.5254 h 2.41797 v 2.5254 h 2.41992 v 1.6543 h 549.86719 c 2.49656,0 4.50586,-2.663 4.50586,-5.9726 V 781.49609 h -2.06446 v -2.40625 h -2.30078 v -2.4082 h -2.29883 v -2.40039 h -2.29687 v -2.40039 h -2.29492 v -2.39453 h -2.29102 v -2.39258 h -2.28516 v -2.38867 h -2.2871 v -2.38477 h -2.2793 v -2.38281 h -2.2793 v -2.38086 h -2.27539 v -2.37695 H 639.125 v -2.37305 h -2.26758 v -2.36914 h -2.26758 v -2.36719 h -2.26367 v -2.36523 h -2.25976 v -2.35938 h -2.25586 v -2.35742 h -2.25391 v -2.35547 h -2.25195 v -2.35156 h -2.24805 v -2.3457 h -2.24609 v -2.34375 h -2.24024 v -2.34375 h -2.23828 v -2.33985 h -2.23828 v -2.33203 h -2.23242 v -2.33398 h -2.23047 v -2.33008 h -2.22656 v -2.32422 h -2.22266 v -2.32422 h -2.2207 v -2.3164 h -2.21875 v -2.31641 h -2.21485 v -2.3125 h -2.21093 v -2.31055 h -2.20899 v -2.30859 h -2.20703 v -2.30274 h -2.20312 v -2.30078 h -2.19922 v -2.29492 h -2.19532 v -2.29297 h -2.19335 v -2.29492 h -2.19141 v -2.28711 h -2.18945 v -2.2832 h -2.1836 v -2.28125 h -2.18164 v -2.2793 h -2.17578 v -2.27539 h -2.17773 v -2.27148 h -2.16993 v -2.26758 h -2.16796 v -2.26367 h -2.16602 v -2.26563 h -2.16602 v -2.25976 h -2.1582 v -2.25196 h -2.1582 v -2.25586 h -2.1543 v -2.25 h -2.15039 v -2.24414 h -2.14648 v -2.24609 h -2.14649 v -2.23633 h -2.14453 v -2.23828 h -2.13867 v -2.23242 h -2.13477 v -2.23047 H 537.875 v -2.23047 h -2.12695 v -2.22266 h -2.12696 v -2.22265 h -2.125 v -2.21875 H 529.375 v -2.21485 h -2.11523 v -2.21093 h -2.11719 v -2.20704 h -2.11328 v -2.20703 h -2.10547 v -2.19921 h -2.10742 v -2.19922 h -2.10157 v -2.19727 h -2.09765 v -2.19141 h -2.09766 v -2.1875 h -2.09375 v -2.18945 h -2.08984 v -2.17969 h -2.08789 v -2.18164 h -2.08594 v -2.17773 h -2.07813 v -2.17188 h -2.07812 v -2.16992 h -2.07617 v -2.16992 h -2.07031 v -2.16211 h -2.07227 v -2.16211 h -2.0625 v -2.15625 h -2.06445 v -2.1543 h -2.0586 v -2.15234 h -2.06054 v -2.15039 h -2.05274 v -2.14258 h -2.05273 v -2.14258 h -2.04493 v -2.13867 h -2.04296 v -2.13672 h -2.04493 v -2.13086 h -2.03711 v -2.1289 h -2.0371 v -2.12696 h -2.03125 v -2.12109 h -2.0293 v -2.11914 h -2.0293 v -2.11719 h -2.02148 v -2.11328 h -2.02149 v -2.11133 h -2.01562 v -2.10547 h -2.01367 v -2.10546 h -2.01172 v -2.09766 h -2.00977 v -2.09766 h -2.0039 v -2.09765 h -2.00196 v -2.08985 h -2 v -2.08593 h -1.99609 v -2.08789 h -1.99609 v -2.08204 h -1.98829 v -2.07422 h -1.98632 v -2.08007 h -1.98438 v -2.07032 h -1.98047 v -2.0664 h -1.97656 v -2.06836 h -1.97656 v -2.06055 h -1.97461 v -2.05859 h -1.96875 v -2.05664 h -1.96485 v -2.05664 h -1.96093 v -2.04688 h -1.95899 v -2.04492 h -1.95703 v -2.04492 h -1.95508 v -2.04102 h -1.94922 v -2.03711 h -1.95117 v -2.0332 h -1.9414 v -2.0332 h -1.94336 v -2.02735 h -1.93946 v -2.02539 h -1.93359 v -2.01758 h -1.93164 v -2.01953 h -1.92774 v -2.01757 h -1.92773 v -2.00977 h -1.92383 V 501.0293 H 396.125 v -2.00782 h -1.91602 v -2.00195 h -1.91601 v -2 h -1.91406 v -1.99609 h -1.9043 v -1.99024 h -1.9043 v -1.98828 h -1.90429 v -1.98828 h -1.89844 v -1.98437 h -1.89649 v -1.98047 h -1.89453 v -1.97657 h -1.88867 v -1.97265 h -1.88672 v -1.96875 h -1.88281 v -1.97071 h -1.88086 v -1.96484 h -1.87891 v -1.95703 h -1.875 v -1.96289 h -1.87109 v -1.95313 h -1.86914 v -1.95117 h -1.86524 v -1.94922 h -1.86328 v -1.94336 h -1.85937 v -1.9414 H 356.5 v -1.93946 h -1.85352 v -1.93554 h -1.85156 v -1.93555 h -1.8457 v -1.92773 h -1.8457 v -1.92774 h -1.8418 v -1.92383 h -1.83789 v -1.91601 h -1.83399 v -1.91992 h -1.83398 v -1.91211 h -1.82813 v -1.90821 h -1.82617 v -1.9082 h -1.82422 v -1.90625 h -1.81836 v -1.90039 h -1.81836 v -1.89648 h -1.81445 v -1.89454 h -1.81055 v -1.88867 h -1.80664 v -1.89062 h -1.80468 v -1.88672 h -1.80274 v -1.88086 h -1.79883 v -1.87891 h -1.79687 v -1.875 h -1.79102 v -1.87109 h -1.79101 v -1.87109 h -1.78711 v -1.86719 h -1.7832 v -1.85938 h -1.7793 v -1.85937 h -1.7793 v -1.85938 h -1.77344 v -1.85156 H 305.75 v -1.85156 h -1.76953 v -1.8457 h -1.76563 v -1.84375 h -1.76172 v -1.83985 h -1.75976 v -1.83789 h -1.75586 v -1.83203 h -1.75391 v -1.83398 h -1.75 v -1.82813 h -1.74609 v -1.82227 h -1.74414 v -1.82226 h -1.74219 v -1.81836 h -1.73828 v -1.81641 h -1.73437 v -1.81054 h -1.73243 V 380.875 h -1.72851 v -1.80664 h -1.72656 v -1.80078 h -1.72266 v -1.80078 h -1.7207 v -1.79492 h -1.7168 v -1.79297 h -1.71289 v -1.79102 h -1.71094 v -1.78711 h -1.70898 v -1.7832 h -1.70313 v -1.7793 h -1.70312 v -1.77734 h -1.69727 v -1.77539 h -1.69531 v -1.76953 h -1.69336 v -1.76758 h -1.68945 v -1.76563 h -1.6875 v -1.75976 h -1.68164 v -1.75977 h -1.68165 v -1.7539 h -1.67773 v -1.75196 h -1.67383 v -1.74804 h -1.67187 v -1.7461 h -1.66797 v -1.74219 h -1.66602 v -1.74023 h -1.66211 v -1.73633 h -1.6582 v -1.73242 h -1.65625 v -1.72852 h -1.65234 v -1.72656 h -1.65039 v -1.72461 h -1.64844 v -1.71875 h -1.64258 v -1.71679 h -1.64062 v -1.71485 h -1.63868 v -1.71094 h -1.63476 v -1.70703 h -1.63281 v -1.70312 h -1.62891 v -1.70117 h -1.625 v -1.69922 h -1.62305 v -1.69336 h -1.61914 v -1.69141 h -1.61719 v -1.68945 h -1.61328 v -1.68555 h -1.61133 v -1.68164 h -1.60742 v -1.67969 h -1.60351 v -1.67383 h -1.60157 v -1.67382 h -1.5996 v -1.66992 h -1.59375 v -1.66602 h -1.59375 v -1.66211 h -1.58985 v -1.66016 h -1.58594 v -1.65625 h -1.58203 v -1.65429 h -1.58008 v -1.65039 h -1.57812 v -1.64649 h -1.57422 v -1.64453 h -1.57031 v -1.64062 h -1.56836 v -1.63868 h -1.56641 v -1.63281 h -1.56054 v -1.63281 h -1.56055 v -1.62695 h -1.55469 v -1.625 h -1.55273 v -1.62305 h -1.55078 v -1.61719 h -1.54688 v -1.61719 h -1.54297 v -1.61132 h -1.54101 v -1.60938 h -1.53907 v -1.60547 h -1.5332 v -1.60351 h -1.5332 v -1.59961 h -1.52735 v -1.59571 h -1.52539 v -1.59375 h -1.52343 v -1.58984 h -1.51953 v -1.58789 h -1.51563 v -1.58398 h -1.51367 v -1.58008 h -1.51172 v -1.57813 H 163.25 v -1.57226 h -1.50391 v -1.57227 h -1.50195 v -1.56836 h -1.49805 v -1.56445 H 157.25 v -1.56055 h -1.49219 v -1.55859 h -1.48828 v -1.55469 h -1.48633 v -1.55273 h -1.48437 v -1.54883 h -1.47852 v -1.54688 h -1.47851 v -1.54101 h -1.47266 v -1.54102 h -1.4707 v -1.53515 h -1.46875 v -1.53321 h -1.46485 v -1.52929 h -1.46093 v -1.52735 h -1.45899 v -1.52344 h -1.45703 v -1.52148 h -1.45312 v -1.51563 h -1.44922 v -1.51562 h -1.44532 v -1.50977 h -1.44335 v -1.50781 h -1.44141 v -1.5039 h -1.4375 v -1.50196 h -1.43555 v -1.49804 h -1.42969 v -1.4961 h -1.42968 v -1.49023 h -1.42578 v -1.48828 h -1.42188 v -1.48633 h -1.41992 v -1.48242 h -1.41602 v -1.47852 h -1.41406 v -1.47656 h -1.41016 v -1.47266 h -1.40625 v -1.4707 h -1.40429 v -1.46485 h -1.40039 v -1.46484 h -1.39844 v -1.45898 h -1.39453 v -1.45703 h -1.39258 v -1.45313 h -1.38867 v -1.45117 h -1.38672 v -1.44727 h -1.38281 V 194 h -1.37891 v -1.44141 h -1.37695 v -1.4375 h -1.375002 v -1.43359 h -1.371094 v -1.43164 h -1.367188 v -1.42969 h -1.363281 v -1.42383 h -1.363281 v -1.42382 h -1.357422 v -1.41797 h -1.355469 v -1.41602 h -1.353515 v -1.41211 h -1.34961 v -1.41015 h -1.345703 v -1.40625 h -1.34375 v -1.40235 h -1.339844 v -1.40039 h -1.33789 v -1.39648 h -1.333985 v -1.39258 h -1.332031 v -1.39063 H 79.6875 v -1.38671 h -1.324219 v -1.38477 h -1.322265 v -1.38086 h -1.320313 v -1.37695 h -1.316406 v -1.375 h -1.3125 v -1.3711 H 71.78125 v -1.36914 h -1.306641 v -1.36523 h -1.302734 v -1.36133 h -1.302734 v -1.35938 h -1.296875 v -1.35546 h -1.294922 v -1.35157 h -1.291016 v -1.34961 h -1.289062 v -1.3457 h -1.28711 v -1.3418 h -1.28125 v -1.33984 h -1.28125 v -1.33789 h -1.27539 v -1.33203 h -1.273438 v -1.33008 h -1.271484 v -1.32812 h -1.267578 v -1.32227 h -1.263672 v -1.32031 h -1.261719 v -1.31836 h -1.259766 v -1.31446 h -1.253906 v -1.31054 H 47.46875 v -1.3086 h -1.25 v -1.30468 h -1.246094 v -1.30078 h -1.24414 v -1.29883 h -1.240235 v -1.29492 h -1.236328 v -1.29297 h -1.234375 v -1.28907 h -1.230469 v -1.28515 h -1.228515 v -1.2832 h -1.22461 v -1.2793 h -1.222656 v -1.27539 h -1.21875 v -1.27344 h -1.216797 v -1.26953 h -1.21289 v -1.26758 h -1.208985 v -1.26367 H 29.046875 V 115.6582 H 27.84375 v -1.25781 h -1.201172 v -1.25391 h -1.197266 v -1.25 H 24.25 v -1.24804 h -1.191406 v -1.24414 h -1.189453 v -1.24219 h -1.185547 v -1.23828 h -1.181641 v -1.23438 h -1.179687 v -1.23242 h -1.175782 v -1.22851 h -1.173828 v -1.22461 h -1.169922 v -1.22266 H 13.634766 V 99.5625 H 12.470703 V 98.345703 H 11.308594 V 97.132812 H 10.150391 V 95.923828 H 8.9960938 V 94.716797 H 7.84375 V 93.513672 H 6.6933594 V 92.314453 H 5.5488281 V 91.117188 H 4.4042969 v -1.19336 H 3.265625 V 88.732422 H 2.1289062 v -1.1875 H 0.99414062 v -1.183594 h -1.13085937 v -1.18164 H -1.265625 V 84.001953 H -2.3886719 V 82.828125 H -3.5117188 V 81.65625 H -4.6308594 V 80.486328 H -5.7460938 V 79.322266 H -6.859375 v -1.16211 H -7.96875 V 77 h -1.1054688 v -1.154297 h -1.1035152 v -1.152344 h -1.101563 v -1.15039 h -1.097656 v -1.146485 h -1.09375 V 71.253906 H -14.5625 v -1.140625 h -1.087891 v -1.136719 h -1.085937 V 67.84375 h -1.082031 v -1.130859 h -1.080079 v -1.126953 h -1.076171 v -1.123047 h -1.072266 v -1.121094 h -1.070313 v -1.117188 h -1.068359 v -1.115234 h -1.0625 v -1.111328 h -1.0625 v -1.109375 h -1.056641 v -1.103516 h -1.05664 v -1.101562 h -1.050781 v -1.09961 h -1.048829 v -1.095703 h -1.046874 v -1.091797 h -1.042969 v -1.089843 h -1.039063 v -1.085938 h -1.037109 v -1.082031 h -1.033203 v -1.080078 h -1.03125 v -1.076172 h -1.027344 v -1.072266 h -1.025391 v -1.072265 h -1.021484 v -1.066407 h -1.017578 v -1.0625 h -1.015625 V 42.648438 H -41.875 v -1.058594 h -1.009766 v -1.054688 h -1.005859 v -1.050781 h -1.003906 V 38.4375 h -1 v -1.044922 h -0.996094 v -1.041016 h -0.996094 V 35.3125 h -0.990234 v -1.035156 h -0.988281 v -1.033203 h -0.984375 v -1.027344 h -0.982422 V 31.189453 H -52.8125 v -1.021484 h -0.974609 v -1.019531 h -0.97461 v -1.015626 h -0.96875 v -1.013671 h -0.966797 v -1.009766 h -0.964843 v -1.007813 h -0.960938 v -1.001953 h -0.957031 v -1.001953 h -0.955078 v -0.996094 h -0.951172 v -0.99414 h -0.949219 v -0.990234 h -0.945312 v -0.988282 h -0.94336 v -0.984375 h -0.939453 v -0.982422 h -0.9375 v -0.976562 h -0.933594 v -0.976563 h -0.929687 v -0.970703 h -0.927735 v -0.96875 h -0.923828 v -0.964843 h -0.921875 v -0.962891 h -0.917968 v -0.958985 h -0.916016 V 9.4257812 h -0.912109 v -0.953125 h -0.910157 V 7.5234375 h -0.90625 V 6.578125 h -0.902343 V 5.6347656 h -0.900391 V 4.6933594 h -0.896484 V 3.7578125 h -0.894532 V 2.8242188 h -0.890625 V 1.8925781 h -0.888672 V 0.96484375 h -0.884765 V 0.04101562 h -0.882813 v -0.921875 h -0.878906 V -1.7988281 h -0.875 v -0.9140625 h -0.873047 V -3.625 h -0.86914 v -0.9082031 h -0.867188 V -5.4375 h -0.865234 v -0.9023438 h -0.859375 v -0.8984374 h -0.857422 v -0.8964844 h -0.855469 v -0.8925782 h -0.851562 v -0.8886718 h -0.847657 v -0.8867184 h -0.845703 v -0.882813 h -0.84375 v -0.880859 h -0.83789 v -0.876953 h -0.837891 v -0.873047 h -0.832031 v -0.869141 h -0.830078 v -0.867187 h -0.828125 v -0.865235 h -0.824219 v -0.861328 h -0.822266 v -0.857422 h -0.818361 v -0.853515 h -0.81445 v -0.851563 h -0.8125 v -0.847656 h -0.8086 v -0.845703 h -0.80664 v -0.841797 h -0.80273 v -0.837891 h -0.79883 v -0.835937 h -0.79687 v -0.832031 h -0.79493 v -0.830079 h -0.79101 v -0.826171 h -0.78711 v -0.822266 h -0.78516 v -0.820313 h -0.78125 v -0.816406 h -0.77929 v -0.8125 h -0.77539 v -0.810547 h -0.77344 v -0.80664 h -0.76953 v -0.804688 h -0.76563 v -0.798828 h -0.76367 v -0.798828 h -0.76172 v -0.792969 h -0.75781 v -0.791015 h -0.75391 v -0.789063 h -0.75195 v -0.785156 h -0.74805 v -0.78125 h -0.74414 v -0.777344 h -0.74218 v -0.775391 h -0.74024 v -0.773437 h -0.73633 v -0.767578 h -0.73242 v -0.765625 h -0.73047 v -0.763672 h -0.72656 v -0.759766 h -0.72461 v -0.755859 h -0.7207 v -0.751953 h -0.71875 v -0.75 h -0.71485 v -0.748047 h -0.71289 v -0.742188 h -0.70703 v -0.740234 H -128.5 v -0.738281 h -0.70312 v -0.734375 h -0.69922 v -0.730469 h -0.69727 v -0.726562 h -0.69336 v -0.72461 h -0.69141 v -0.722656 h -0.6875 v -0.716797 h -0.68359 v -0.714844 h -0.68164 v -0.71289 h -0.67969 v -0.708985 h -0.67382 v -0.705078 h -0.67383 v -0.703125 h -0.66993 v -0.699219 h -0.66601 v -0.695312 h -0.66211 v -0.691406 h -0.66016 v -0.691407 h -0.6582 v -0.685547 h -0.6543 v -0.683593 h -0.65039 v -0.679688 h -0.64843 v -0.677734 h -0.64649 v -0.673828 h -0.64062 v -0.669922 h -0.63868 v -0.667969 h -0.63671 v -0.664062 h -0.63282 v -0.660157 h -0.63086 v -0.658203 h -0.62695 v -0.654297 h -0.62305 v -0.652343 h -0.62109 v -0.648438 h -0.61914 v -0.644531 h -0.61328 v -0.642578 h -0.61133 v -0.638672 h -0.60938 v -0.636719 h -0.60546 v -0.632812 h -0.60352 v -0.628907 h -0.59961 v -0.625 h -0.5957 v -0.625 h -0.59375 v -0.61914 h -0.58985 v -0.617188 h -0.58789 v -0.613281 h -0.58593 v -0.609375 h -0.58008 v -0.607422 h -0.57813 v -0.603515 h -0.57617 v -0.601563 h -0.57226 v -0.597656 h -0.56836 v -0.595703 h -0.56641 v -0.589844 h -0.56445 v -0.587891 h -0.5586 v -0.585937 h -0.55859 v -0.582032 h -0.55274 v -0.578124 h -0.55078 v -0.576172 h -0.54882 v -0.572266 h -0.54493 v -0.568359 h -0.54297 v -0.566407 h -0.5371 v -0.5625 h -0.53711 v -0.560546 h -0.53321 v -0.556641 h -0.52929 v -0.552735 h -0.52735 v -0.548828 h -0.52344 v -0.546875 h -0.51953 v -0.544921 h -0.51757 v -0.541016 h -0.51563 v -0.53711 h -0.51172 v -0.533203 h -0.50781 v -0.53125 h -0.50586 v -0.529297 h -0.50195 v -0.523437 h -0.5 v -0.521484 h -0.4961 v -0.519532 h -0.49414 v -0.515625 h -0.49023 v -0.511718 h -0.48633 v -0.507813 h -0.48437 v -0.505859 h -0.48047 v -0.503906 h -0.47852 v -0.498047 h -0.47461 v -0.496094 h -0.47266 v -0.494141 h -0.46874 v -0.490234 h -0.4668 v -0.486328 h -0.46289 v -0.482422 h -0.46094 v -0.480469 h -0.45703 v -0.478515 h -0.45313 v -0.472657 h -0.45117 v -0.470703 h -0.44726 v -0.46875 h -0.44532 v -0.464848 h -0.4414 v -0.46093 h -0.43946 v -0.45703 h -0.43554 v -0.45508 h -0.43164 v -0.45313 h -0.42969 v -0.44922 h -0.42578 v -0.44531 h -0.42383 v -0.4414 h -0.42188 v -0.43946 h -0.41601 v -0.43554 h -0.41406 v -0.4336 h -0.41211 v -0.42969 h -0.40821 v -0.42578 h -0.40625 v -0.42383 h -0.40234 v -0.41992 h -0.39844 v -0.41601 h -0.39648 v -0.41407 h -0.39258 v -0.41015 h -0.39062 v -0.40821 h -0.38672 v -0.40429 h -0.38477 v -0.40039 h -0.38086 v -0.39844 h -0.37695 v -0.39453 h -0.375 v -0.39258 h -0.37305 v -0.38867 h -0.36914 v -0.38477 h -0.36523 v -0.38086 h -0.36328 v -0.3789 h -0.35938 v -0.37696 h -0.35742 v -0.37304 h -0.35352 v -0.36914 h -0.34961 v -0.36524 h -0.34765 v -0.36328 h -0.34571 v -0.35937 h -0.34179 v -0.35743 h -0.33789 v -0.35351 h -0.33594 v -0.34961 h -0.33203 v -0.34766 h -0.32813 v -0.34375 h -0.32812 v -0.34179 h -0.32227 v -0.33789 h -0.32031 v -0.33399 h -0.31836 v -0.33203 h -0.31445 v -0.32812 h -0.31055 v -0.32422 h -0.30859 v -0.32227 h -0.30469 v -0.31836 h -0.30078 v -0.31445 h -0.30078 v -0.3125 h -0.29297 -0.002 v -0.31055 h -0.28906 -0.004 v -0.30469 h -0.28321 -0.008 v -0.30273 h -0.27734 -0.01 v -0.30078 h -0.26953 -0.0137 v -0.29492 h -0.26563 -0.0156 v -0.29493 h -0.25977 -0.0176 v -0.28906 h -0.2539 -0.0215 v -0.28711 h -0.24804 -0.0234 v -0.2832 h -0.24219 -0.0254 v -0.28125 h -0.23828 -0.0273 v -0.27734 h -0.23243 -0.0312 v -0.2754 h -0.22656 -0.0332 v -0.27148 h -0.2207 -0.0352 v -0.26758 h -0.2168 -0.0371 v -0.26367 h -0.21093 -0.0391 v -0.26172 h -0.20703 -0.041 v -0.25781 h -0.20118 -0.043 v -0.25586 h -0.19727 -0.043 v -0.25195 h -0.19336 -0.0449 v -0.25 h -0.1875 -0.0488 v -0.24414 h -0.18164 -0.0508 v -0.24414 h -0.17773 -0.0508 v -0.23829 h -0.17382 -0.0527 v -0.23632 h -0.16797 -0.0547 v -0.23438 h -0.16407 -0.0566 v -0.22851 h -0.16015 -0.0566 v -0.22657 h -0.15625 -0.0586 v -0.22461 h -0.15039 -0.0606 v -0.21875 h -0.14648 -0.0606 v -0.21875 h -0.14257 -0.0625 v -0.21289 h -0.13868 -0.0625 v -0.21093 h -0.13476 -0.0645 v -0.20704 h -0.13086 -0.0645 v -0.20507 h -0.12695 -0.0664 v -0.20118 h -0.12304 -0.0664 v -0.19921 h -0.11914 -0.0684 v -0.19532 h -0.11524 -0.0684 v -0.1914 h -0.11133 -0.0703 v -0.1875 h -0.10742 -0.0684 v -0.18555 h -0.10546 -0.0703 v -0.18359 h -0.0996 -0.0723 v -0.17774 h -0.0957 -0.0723 v -0.17773 h -0.0937 -0.0723 v -0.17188 h -0.0898 -0.0723 v -0.16992 h -0.0859 -0.0723 v -0.16602 h -0.084 -0.0723 v -0.16406 h -0.082 -0.0723 v -0.16015 h -0.0781 -0.0723 v -0.15625 h -0.0742 -0.0723 v -0.1543 h -0.0723 -0.0723 v -0.15039 h -0.0684 -0.0723 v -0.14649 h -0.0664 -0.0723 v -0.14453 h -0.0644 -0.0703 v -0.14257 h -0.0605 -0.0723 v -0.13672 h -0.0566 -0.0723 v -0.13477 h -0.0547 -0.0703 v -0.13086 h -0.0547 -0.0684 v -0.12891 h -0.0508 -0.0703 v -0.125 h -0.0469 -0.0703 v -0.12304 h -0.0449 -0.0684 v -0.11914 h -0.043 -0.0684 v -0.11524 h -0.041 -0.0664 v -0.11328 h -0.0391 -0.0664 v -0.10937 h -0.0352 -0.0664 v -0.10547 h -0.0332 -0.0644 v -0.10352 h -0.0332 -0.0625 v -0.0996 h -0.0312 -0.0625 v -0.0957 h -0.0273 -0.0605 v -0.0937 h -0.0274 -0.0605 v -0.0918 h -0.0254 -0.0566 v -0.0859 h -0.0234 -0.0586 v -0.084 h -0.0215 -0.0547 v -0.082 h -0.0215 -0.0527 v -0.0762 h -0.0195 -0.0527 v -0.0762 h -0.0176 -0.0508 v -0.0703 h -0.0156 -0.0488 v -0.0684 h -0.0156 -0.0469 v -0.0644 h -0.0137 -0.0449 v -0.0625 h -0.0137 -0.043 v -0.0586 h -0.0117 -0.041 v -0.0547 h -0.0117 -0.0391 v -0.0527 h -0.01 -0.0371 v -0.0488 h -0.008 -0.0371 v -0.0469 h -0.006 -0.0352 v -0.043 h -0.006 -0.0312 v -0.0391 h -0.006 -0.0293 v -0.0371 h -0.006 -0.0254 v -0.0332 h -0.006 -0.0234 v -0.0293 h -0.004 -0.0215 v -0.0273 h -0.004 -0.0195 v -0.0234 h -0.002 -0.0176 v -0.0215 h -0.002 -0.0156 v -0.0176 h -0.002 -0.01 v -0.0137 h -0.002 -0.01 v -0.0117 h -0.002 -0.006 v -0.008 h -0.002 -0.002 v -0.004 h -0.002 v -0.002 h -0.002 z"
         transform="scale(0.26458333)" />
      <g
         id="g94465">
        <path
           transform="scale(0.26458333)"
           d="M -273.13086,18.183594 A 412.14225,412.14225 0 0 0 -684.88281,430.32422 412.14225,412.14225 0 0 0 -272.74023,842.4668 412.14225,412.14225 0 0 0 139.40039,430.32422 412.14225,412.14225 0 0 0 -272.74023,18.183594 a 412.14225,412.14225 0 0 0 -0.39063,0 z m 0.39063,26.263672 A 385.87827,385.87827 0 0 1 113.13672,430.32422 385.87827,385.87827 0 0 1 -272.74023,816.20312 385.87827,385.87827 0 0 1 -658.61914,430.32422 385.87827,385.87827 0 0 1 -272.74023,44.447266 Z"
           style="fill:#000000;fill-opacity:1;stroke:none;stroke-width:10.5222"
           id="path94424" />
        <path
           transform="scale(0.26458333)"
           d="m -240.81836,-134.20898 v 383.76562 h -120.49219 v -47.81055 h -30.86133 v 47.81055 30.61328 300.31055 30.61328 47.81055 h 30.86133 v -47.81055 h 120.49219 v 383.76563 h 30.61328 V 611.09375 580.48047 h -30.61328 -120.49219 V 280.16992 h 120.49219 30.61328 v -30.61328 -383.76562 z"
           style="fill:#000000;fill-opacity:1;stroke:none;stroke-width:7.21746"
           id="rect94431" />
        <path
           transform="scale(0.26458333)"
           d="m -462.04883,309.60938 v 105.4082 h -392.64453 v 30.61523 h 392.64453 v 105.40821 h 30.61524 V 445.63281 415.01758 309.60938 Z"
           style="fill:#000000;fill-opacity:1;stroke:none;stroke-width:5.22387"
           id="rect94433" />
      </g>
    </g>
  </g>
</svg>
