<?xml version="1.0" encoding="UTF-8" standalone="no"?>
<svg
   xmlns:dc="http://purl.org/dc/elements/1.1/"
   xmlns:cc="http://creativecommons.org/ns#"
   xmlns:rdf="http://www.w3.org/1999/02/22-rdf-syntax-ns#"
   xmlns:svg="http://www.w3.org/2000/svg"
   xmlns="http://www.w3.org/2000/svg"
   xmlns:sodipodi="http://sodipodi.sourceforge.net/DTD/sodipodi-0.dtd"
   xmlns:inkscape="http://www.inkscape.org/namespaces/inkscape"
   sodipodi:docname="Synthesis and Optimization of Digital Systems_scalable.svg"
   inkscape:version="1.0 (4035a4fb49, 2020-05-01)"
   width="67.73333mm"
   height="67.733337mm"
   viewBox="0 0 67.73333 67.733338"
   version="1.1"
   id="svg8">
  <defs
     id="defs2" />
  <sodipodi:namedview
     inkscape:window-maximized="1"
     inkscape:window-y="-9"
     inkscape:window-x="-9"
     inkscape:window-height="1013"
     inkscape:window-width="1920"
     showgrid="false"
     inkscape:document-rotation="0"
     inkscape:current-layer="layer1"
     inkscape:document-units="mm"
     inkscape:cy="1060.7876"
     inkscape:cx="919.04383"
     inkscape:zoom="0.35"
     inkscape:pageshadow="2"
     inkscape:pageopacity="0.0"
     borderopacity="1.0"
     bordercolor="#666666"
     pagecolor="#ffffff"
     id="base" />
  <metadata
     id="metadata5">
    <rdf:RDF>
      <cc:Work
         rdf:about="">
        <dc:format>image/svg+xml</dc:format>
        <dc:type
           rdf:resource="http://purl.org/dc/dcmitype/StillImage" />
        <dc:title></dc:title>
        <cc:license
           rdf:resource="http://creativecommons.org/licenses/by-sa/4.0/" />
      </cc:Work>
      <cc:License
         rdf:about="http://creativecommons.org/licenses/by-sa/4.0/">
        <cc:permits
           rdf:resource="http://creativecommons.org/ns#Reproduction" />
        <cc:permits
           rdf:resource="http://creativecommons.org/ns#Distribution" />
        <cc:requires
           rdf:resource="http://creativecommons.org/ns#Notice" />
        <cc:requires
           rdf:resource="http://creativecommons.org/ns#Attribution" />
        <cc:permits
           rdf:resource="http://creativecommons.org/ns#DerivativeWorks" />
        <cc:requires
           rdf:resource="http://creativecommons.org/ns#ShareAlike" />
      </cc:License>
    </rdf:RDF>
  </metadata>
  <g
     transform="translate(125.48809,60.476189)"
     id="layer1"
     inkscape:groupmode="layer"
     inkscape:label="Livello 1">
    <g
       transform="matrix(0.1249739,0,0,0.12500001,-109.80535,-52.916665)"
       id="g5127">
      <rect
         style="fill:#c2185b;fill-opacity:1;stroke-width:3.36264"
         id="rect10"
         width="541.86664"
         height="541.86664"
         x="-125.48809"
         y="-60.476189"
         rx="1.1962992"
         ry="1.6022115" />
      <path
         id="path1045"
         style="fill:#000001;fill-opacity:0.247059;stroke-width:10.953"
         d="m 1609.0781,439.69141 c -0.3628,0.17763 -46.7949,22.92187 -46.7949,22.92187 v 0.004 c 0.097,0.0971 1.6383,1.63749 3.2051,3.20312 0,10e-6 -0.012,0.006 -0.012,0.006 l 0.02,0.0156 c 0.082,0.0833 1.4007,1.40131 2.752,2.75195 -0.2792,0.16501 -0.5459,0.365 -0.795,0.61328 v 0.002 c -0.3826,0.3829 -105.7825,105.78093 -196.4609,196.45899 1.7357,0.19073 3.3503,0.7724 4.7676,1.64453 -0.7283,0.72831 -0.8551,0.85502 -1.586,1.58594 1.7356,0.18535 3.3491,0.76464 4.7676,1.63281 -0.7298,0.72986 -0.8593,0.85929 -1.5918,1.5918 1.09,0.11263 2.1312,0.38407 3.1094,0.77929 0.245,0.61805 0.4478,1.25688 0.584,1.92188 -0.2393,0.23932 -0.2819,0.28188 -0.5215,0.52148 0.2079,0.0208 0.4107,0.0621 0.6152,0.0937 0.084,0.5625 0.1407,1.1348 0.1406,1.72071 v 0.008 c 0,0.45067 -0.034,0.89286 -0.084,1.33008 -0.051,0.006 -0.1,0.0171 -0.1504,0.0234 -0.6016,-0.63034 -1.2096,-1.25369 -1.8145,-1.88086 0.5963,-0.59617 0.6985,-0.70039 1.293,-1.29492 -0.3794,-0.0378 -0.763,-0.0566 -1.1524,-0.0566 0,-0.0378 -0.035,-0.0723 -0.076,-0.0723 -0.4585,0 -0.9072,0.0356 -1.3516,0.0879 -0.6199,-0.63794 -1.2419,-1.27361 -1.8652,-1.90821 0.5876,-0.58766 0.6874,-0.68743 1.2734,-1.27343 -0.3935,-0.0407 -0.793,-0.0625 -1.1973,-0.0625 0,-0.0265 -0.022,-0.0488 -0.049,-0.0488 -0.4458,0 -0.8837,0.0327 -1.3164,0.082 -0.6313,-0.63804 -1.2578,-1.28141 -1.8926,-1.91602 0.5913,-0.59125 0.6897,-0.6897 1.2793,-1.27929 -0.4071,-0.0435 -0.8196,-0.0684 -1.2382,-0.0684 0,-0.0151 -0.01,-0.0273 -0.025,-0.0273 -0.4482,0 -0.8894,0.0324 -1.3243,0.082 -0.6374,-0.63258 -1.2751,-1.26542 -1.916,-1.89454 -0.1148,0.11482 -0.1331,0.13317 -0.248,0.24805 -0.5129,-0.49571 -1.026,-0.99087 -1.541,-1.48437 0.152,-0.0242 0.303,-0.0521 0.457,-0.0703 -30.6486,-29.86233 -65.1652,-55.77312 -102.7266,-76.91211 v -0.96289 c 0,-2.74262 -1.6908,-4.95117 -3.791,-4.95117 h -7.041 c -68.9131,-36.54139 -147.5112,-57.24414 -230.9473,-57.24414 v 0 c -132.53227,0.002 -252.86219,52.22825 -341.54489,137.21875 -0.23271,-0.11395 -0.29756,-0.145 -0.5,-0.24414 0.31925,-0.31927 1.03711,-1.03711 1.03711,-1.03711 0,0 -2.44822,-1.20101 -4.04297,-1.98242 0.31869,-0.31873 1.03711,-1.03711 1.03711,-1.03711 0,0 -2.50015,-1.22414 -4.04883,-1.98242 0.31939,-0.31922 1.03906,-1.03906 1.03906,-1.03906 0,0 -2.55423,-1.25273 -4.05273,-1.98633 0.31976,-0.31966 1.04102,-1.04102 1.04102,-1.04102 0,0 -2.61527,-1.27842 -4.0586,-1.98437 0.32025,-0.32017 1.04297,-1.04297 1.04297,-1.04297 0,0 -2.67905,-1.31121 -4.0625,-1.98828 0.32043,-0.32034 1.04492,-1.04297 1.04492,-1.04297 0,0 -2.74502,-1.34402 -4.06445,-1.99024 0.31944,-0.31916 1.04297,-1.04297 1.04297,-1.04297 0,0 -2.8237,-1.38505 -4.07031,-1.99609 0.31939,-0.31926 1.04492,-1.04297 1.04492,-1.04297 0,0 -2.91006,-1.42686 -4.07618,-1.99804 0.31999,-0.31978 1.04688,-1.04493 1.04688,-1.04493 0,0 -2.99699,-1.46989 -4.07812,-2 0.31978,-0.31989 1.04687,-1.04687 1.04687,-1.04687 0,0 -3.08921,-1.51249 -4.08008,-1.99805 0.31952,-0.31933 1.04688,-1.04687 1.04688,-1.04687 0,0 -3.20059,-1.56864 -4.08789,-2.00391 0.31959,-0.31942 1.04882,-1.04687 1.04882,-1.04687 0,0 -3.32292,-1.62986 -4.09375,-2.00586 0.32136,-0.32124 1.05274,-1.05274 1.05274,-1.05274 0,0 -3.44357,-1.6839 -4.0957,-2.0039 0.3209,-0.32081 1.05273,-1.05274 1.05273,-1.05274 0,0 -3.58337,-1.75289 -4.10156,-2.00781 0.32142,-0.32132 1.0547,-1.05469 1.05468,-1.05469 0,0 -3.72664,-1.82186 -4.10351,-2.00781 0.32,-0.31991 1.05273,-1.05274 1.05273,-1.05274 0,0 -3.89673,-1.91068 -4.10937,-2.01367 0.32052,-0.32045 1.05469,-1.05469 1.05469,-1.05468 0,0 -4.07552,-1.99631 -4.11328,-2.01368 0.32102,-0.32084 1.05664,-1.05664 1.05664,-1.05664 0,0 -3.99327,-1.95754 -4.0254,-1.97265 -6.3e-4,-3.6e-4 -0.0927,-0.0444 -0.0937,-0.0449 l 1.05859,-1.05859 c 0,0 -3.9038,-1.91028 -3.93555,-1.92578 -10e-4,-7e-4 -0.18263,-0.0884 -0.18554,-0.0898 0.32099,-0.32097 1.05859,-1.0586 1.05859,-1.0586 0,0 -3.81629,-1.86965 -3.84766,-1.88476 -0.002,-10e-4 -0.27358,-0.13392 -0.27929,-0.13672 0.32116,-0.32105 1.06054,-1.0586 1.06054,-1.0586 0,0 -3.72757,-1.82705 -3.75781,-1.84179 -0.003,-10e-4 -0.36386,-0.17715 -0.37305,-0.18164 0.32106,-0.32092 1.06055,-1.06055 1.06055,-1.06055 0,0 -3.63811,-1.78214 -3.66797,-1.79688 -0.004,-0.002 -0.45334,-0.22192 -0.4668,-0.22851 0.32113,-0.32102 1.0625,-1.06055 1.0625,-1.06055 0,0 -3.5494,-1.73954 -3.57812,-1.7539 -0.004,-0.002 -0.54205,-0.26643 -0.56055,-0.27539 0.32059,-0.3205 1.0625,-1.06055 1.0625,-1.06055 0,0 -3.45993,-1.695 -3.48828,-1.70899 -0.005,-0.002 -0.63191,-0.30839 -0.65625,-0.32031 0.32173,-0.32159 1.06445,-1.06445 1.06445,-1.06445 0,0 -3.36889,-1.65046 -3.39648,-1.66406 -0.006,-0.003 -0.71912,-0.35206 -0.75,-0.36719 0.32118,-0.32109 1.06445,-1.06445 1.06445,-1.06445 0,0 -3.2798,-1.60787 -3.30664,-1.6211 -0.007,-0.003 -0.80558,-0.39536 -0.84375,-0.41406 0.32066,-0.32055 1.06446,-1.06445 1.06446,-1.06445 0,0 -3.19034,-1.56333 -3.2168,-1.57618 -0.007,-0.004 -0.89313,-0.43824 -0.93945,-0.46093 0.32115,-0.32105 1.0664,-1.06641 1.0664,-1.06641 0,0 -3.10125,-1.51878 -3.12695,-1.53125 -0.008,-0.004 -0.97822,-0.47892 -1.0332,-0.50586 0.32167,-0.32156 1.06837,-1.06836 1.06835,-1.06836 0,0 -3.01021,-1.47423 -3.03515,-1.48633 -0.009,-0.004 -1.06432,-0.52109 -1.12891,-0.55273 0.3222,-0.32208 1.07032,-1.07031 1.07032,-1.07031 0,0 -2.92308,-1.43165 -2.94727,-1.44336 -0.009,-0.005 -1.1479,-0.56299 -1.22266,-0.59961 0.32116,-0.32105 1.07032,-1.06836 1.07032,-1.06836 0,0 -2.83204,-1.3871 -2.85547,-1.39844 -0.0102,-0.005 -1.23256,-0.60445 -1.31836,-0.64648 0.32217,-0.32207 1.07226,-1.07227 1.07226,-1.07227 0,0 -2.74099,-1.34264 -2.76367,-1.35351 -0.011,-0.005 -1.31663,-0.64368 -1.41406,-0.69141 0.32183,-0.32172 1.07226,-1.07227 1.07226,-1.07227 0,0 -2.6519,-1.29958 -2.67382,-1.31054 -0.0117,-0.006 -1.39817,-0.68467 -1.50782,-0.73828 0.32218,-0.32205 1.07422,-1.07422 1.07422,-1.07422 0,0 -2.56282,-1.25347 -2.58398,-1.26368 -0.0124,-0.006 -1.48076,-0.72501 -1.60352,-0.78515 0.32278,-0.32266 1.07617,-1.07617 1.07617,-1.07617 0,0 -2.47177,-1.2105 -2.49218,-1.22071 -0.0132,-0.006 -1.56096,-0.76526 -1.69727,-0.83203 0.32174,-0.32163 1.07617,-1.07422 1.07617,-1.07422 0,0 -2.38231,-1.1679 -2.40234,-1.17773 -0.0139,-0.007 -1.64223,-0.80507 -1.79297,-0.87891 0.32175,-0.32161 1.07617,-1.07617 1.07617,-1.07617 0,0 -2.29127,-1.12141 -2.31054,-1.13086 -0.0146,-0.007 -1.72284,-0.84454 -1.88868,-0.92578 0.32225,-0.32216 1.07813,-1.07812 1.07813,-1.07813 0,0 -2.20023,-1.07686 -2.21875,-1.08593 -0.0154,-0.008 -1.80279,-0.8837 -1.98438,-0.97266 0.32237,-0.32225 1.08008,-1.07812 1.08008,-1.07812 0,0 -2.11114,-1.03428 -2.1289,-1.04297 -0.0161,-0.008 -1.88225,-0.92067 -2.08008,-1.01758 0.3233,-0.32318 1.08203,-1.08203 1.08203,-1.08203 0,0 -2.0201,-0.98778 -2.03711,-0.9961 -0.0169,-0.008 -1.96079,-0.96108 -2.17578,-1.0664 0.32277,-0.32269 1.08203,-1.08203 1.08203,-1.08203 0,0 -1.92868,-0.94324 -1.94531,-0.95118 -0.0176,-0.009 -2.03883,-0.9993 -2.27149,-1.11328 0.32278,-0.32269 1.08399,-1.08203 1.08399,-1.08203 0,0 -1.83802,-0.90026 -1.85352,-0.9082 -0.0184,-0.009 -2.11628,-1.03726 -2.36719,-1.16016 0.32185,-0.32174 1.08205,-1.08203 1.08203,-1.08203 0,0 -1.74502,-0.8561 -1.75976,-0.86328 -0.0191,-0.009 -2.19311,-1.07487 -2.46289,-1.20703 0.32237,-0.32226 1.08398,-1.08399 1.08398,-1.08399 0,0 -1.65556,-0.81155 -1.66992,-0.81835 -0.0198,-0.01 -2.27097,-1.11204 -2.56055,-1.25391 0.32292,-0.32281 1.08594,-1.08594 1.08594,-1.08594 0,0 -1.56256,-0.76663 -1.57617,-0.77344 -0.0206,-0.0101 -2.34657,-1.14909 -2.65625,-1.30078 0.32241,-0.3223 1.08594,-1.08593 1.08594,-1.08593 0,0 -1.47153,-0.72209 -1.48438,-0.72852 -0.0213,-0.0104 -2.42162,-1.18585 -2.75195,-1.34766 0.32283,-0.32272 1.08789,-1.08789 1.08789,-1.08789 0,0 -1.38244,-0.67559 -1.39453,-0.68164 -0.0221,-0.0108 -2.49605,-1.2223 -2.84766,-1.39453 0.32336,-0.32324 1.08985,-1.08984 1.08985,-1.08984 0,0 -1.2914,-0.63301 -1.30274,-0.63867 -0.0228,-0.0112 -2.56996,-1.25851 -2.94336,-1.44141 0.32297,-0.32286 1.08985,-1.08984 1.08985,-1.08984 0,0 -1.19998,-0.58846 -1.21094,-0.59375 -0.0236,-0.0116 -2.6447,-1.2961 -3.04102,-1.49024 0.32296,-0.32287 1.0918,-1.08984 1.0918,-1.08984 0,0 -1.10736,-0.54196 -1.11719,-0.54688 -0.0243,-0.0119 -2.71745,-1.33173 -3.13672,-1.53711 0.32299,-0.32287 1.0918,-1.09179 1.0918,-1.09179 0,0 -1.01594,-0.49742 -1.02539,-0.50196 -0.0251,-0.0123 -2.79132,-1.3669 -3.23437,-1.58398 0.32341,-0.3234 1.09374,-1.09375 1.09374,-1.09375 0,0 -0.92294,-0.45288 -0.93164,-0.45703 -0.0258,-0.0127 -2.86427,-1.40367 -3.33203,-1.63282 0.32342,-0.32322 1.09571,-1.09375 1.09571,-1.09374 0,0 -0.83191,-0.40833 -0.83985,-0.41211 -0.0266,-0.013 -2.93539,-1.4385 -3.42773,-1.67969 0.32294,-0.32281 1.0957,-1.09375 1.0957,-1.09375 0,0 -0.74086,-0.36341 -0.74805,-0.36719 -0.0273,-0.0134 -3.00599,-1.47311 -3.52343,-1.72656 0.32305,-0.32294 1.0957,-1.09571 1.0957,-1.0957 0,0 -0.64787,-0.31692 -0.6543,-0.32032 -0.0281,-0.0137 -3.07888,-1.50885 -3.62304,-1.77539 0.32389,-0.3238 1.09961,-1.09765 1.09961,-1.09765 0,0 -0.55684,-0.2708 -0.5625,-0.27344 -0.0288,-0.0141 -3.14847,-1.5429 -3.71875,-1.82227 0.32392,-0.32381 1.0996,-1.09961 1.0996,-1.09961 0,0 -0.46381,-0.22624 -0.46874,-0.22851 -0.0296,-0.0145 -3.22029,-1.57811 -3.81836,-1.8711 0.32394,-0.32382 1.10156,-1.09961 1.10156,-1.09961 0,0 -0.37069,-0.1817 -0.375,-0.18359 -0.0303,-0.0149 -3.28884,-1.61168 -3.91406,-1.91797 0.32345,-0.32333 1.10156,-1.09961 1.10156,-1.09961 0,0 -0.27766,-0.13678 -0.28125,-0.13867 -0.0311,-0.0152 -3.35838,-1.64481 -4.01172,-1.96484 0.32357,-0.32346 1.10156,-1.10157 1.10156,-1.10157 0,0 -0.18662,-0.0922 -0.18945,-0.0937 -0.0318,-0.0156 -3.4259,-1.67787 -4.10742,-2.01171 0.32401,-0.32391 1.10351,-1.10352 1.10351,-1.10352 l -0.0957,-0.0469 c -0.0326,-0.016 -3.49574,-1.71213 -4.20703,-2.06055 0.32445,-0.32436 1.10547,-1.10547 1.10547,-1.10547 h -0.004 c -0.36274,-0.17763 -46.78636,-22.91764 -46.79102,-22.91992 0.17768,0.36283 22.91993,46.79297 22.91993,46.79297 0,0 10e-4,-0.001 0.004,-0.004 0.0329,-0.0329 0.7505,-0.75061 1.08594,-1.08594 0.34974,0.71403 2.10742,4.30078 2.10742,4.30078 0,0 0.0124,-0.0122 0.0156,-0.0156 0.0325,-0.0325 0.74353,-0.74365 1.07226,-1.07227 0.34977,0.7141 2.10547,4.29688 2.10547,4.29688 0,0 0.0257,-0.0236 0.0293,-0.0274 0.0321,-0.0321 0.73797,-0.73612 1.06055,-1.05859 0.34941,0.71335 2.10156,4.29102 2.10156,4.29102 0,0 0.0371,-0.0349 0.041,-0.0391 0.0317,-0.0316 0.73092,-0.72911 1.04688,-1.04492 0.34945,0.71343 2.09961,4.28711 2.09961,4.28711 0,0 0.0485,-0.0482 0.0527,-0.0527 0.0313,-0.0313 0.72325,-0.72336 1.03321,-1.03321 0.34981,0.71419 2.0996,4.28516 2.0996,4.28516 0,0 0.0598,-0.0599 0.0645,-0.0645 0.031,-0.031 0.71708,-0.71719 1.02148,-1.02149 0.34973,0.714 2.09571,4.28125 2.09571,4.28125 0,0 0.0712,-0.0713 0.0762,-0.0762 0.0305,-0.0305 0.71033,-0.70849 1.00781,-1.00586 0.3495,0.71354 2.09375,4.27539 2.09375,4.27539 0,0 0.0825,-0.0826 0.0879,-0.0879 0.0302,-0.0302 0.70427,-0.7024 0.99609,-0.99414 0.34953,0.7136 2.0918,4.27149 2.0918,4.27149 0,0 0.0939,-0.0939 0.0996,-0.0996 0.0298,-0.0298 0.69646,-0.69654 0.98242,-0.98243 0.34954,0.71362 2.08985,4.26758 2.08985,4.26758 0,0 0.10528,-0.10528 0.11132,-0.11133 0.0294,-0.0294 0.69017,-0.69028 0.97071,-0.9707 0.34957,0.71369 2.08789,4.26367 2.08789,4.26367 0,0 0.11671,-0.11467 0.12304,-0.12109 0.029,-0.029 0.68186,-0.68192 0.95508,-0.95508 0.34935,0.71324 2.08594,4.25781 2.08594,4.25781 0,0 0.128,-0.12991 0.13477,-0.13672 0.0286,-0.0286 0.67549,-0.67559 0.94336,-0.94336 0.34963,0.71381 2.08398,4.25586 2.08398,4.25586 0,0 0.14129,-0.13968 0.14844,-0.14648 0.0282,-0.0282 0.668,-0.66808 0.92969,-0.92969 0.34929,0.7133 2.08203,4.25 2.08203,4.25 0,0 0.15075,-0.15259 0.1582,-0.16015 0.0278,-0.0278 0.66157,-0.66168 0.91797,-0.91797 0.34966,0.71388 2.08008,4.24804 2.08008,4.24804 0,0 0.16198,-0.16236 0.16992,-0.16992 0.0274,-0.0274 0.65414,-0.65421 0.9043,-0.90429 0.3491,0.71291 2.07812,4.24023 2.07812,4.24023 0,0 0.17333,-0.1737 0.18164,-0.18164 0.0271,-0.0271 0.64762,-0.6477 0.89258,-0.89258 0.34946,0.71345 2.07617,4.23828 2.07617,4.23828 0,0 0.18505,-0.18466 0.19336,-0.19336 0.0267,-0.0267 0.63997,-0.64006 0.87891,-0.8789 0.34925,0.71303 2.07421,4.23242 2.07422,4.23242 0,0 0.19638,-0.19601 0.20507,-0.20508 0.0262,-0.0262 0.63234,-0.63243 0.86524,-0.86523 0.34925,0.71303 2.07226,4.22851 2.07226,4.22851 0,0 0.20735,-0.20968 0.2168,-0.21875 0.0259,-0.0259 0.62572,-0.62578 0.85352,-0.85351 0.34929,0.71313 2.07031,4.22461 2.07031,4.22461 0,0 0.21869,-0.21907 0.22851,-0.22852 0.0255,-0.0255 0.618,-0.61806 0.83985,-0.83984 0.3493,0.71313 2.06836,4.2207 2.06836,4.2207 l 0.24023,-0.24219 c 0.0251,-0.0251 0.61128,-0.61136 0.82813,-0.82812 0.3492,0.71294 2.06445,4.21679 2.06445,4.21679 l 0.25195,-0.25195 c 0.0247,-0.0247 0.60504,-0.60316 0.81641,-0.81445 0.34898,0.71249 2.0625,4.21094 2.0625,4.21094 l 0.26367,-0.26368 c 0.0244,-0.0243 0.59664,-0.59673 0.80274,-0.80273 0.34892,0.71255 2.06054,4.20703 2.06054,4.20703 l 0.27539,-0.27539 c 0.024,-0.0239 0.59029,-0.58844 0.79102,-0.78906 0.34904,0.7126 2.05859,4.20312 2.05859,4.20312 l 0.28711,-0.28711 c 0.0236,-0.0236 0.58188,-0.58191 0.77735,-0.77734 0.34895,0.7126 2.05664,4.19922 2.05664,4.19922 l 0.29687,-0.29883 c 0.0232,-0.0232 0.57499,-0.57508 0.76563,-0.76563 0.34907,0.71267 2.05468,4.19532 2.05468,4.19532 0,0 0.29883,-0.29846 0.31055,-0.31055 0.0228,-0.0228 0.56574,-0.56579 0.75,-0.75 0.34887,0.71226 2.05273,4.18945 2.05273,4.18945 l 0.32227,-0.32226 c 0.0224,-0.0224 0.55881,-0.55887 0.73828,-0.73828 0.34889,0.71227 2.05078,4.18554 2.05078,4.18554 l 0.33399,-0.33398 c 0.022,-0.022 0.55173,-0.55178 0.72656,-0.72656 0.34913,0.71279 2.04883,4.18359 2.04883,4.18359 l 0.34375,-0.3457 c 0.0216,-0.0217 0.54508,-0.54318 0.71484,-0.71289 0.34858,0.71164 2.04492,4.17578 2.04492,4.17578 0,0 0.34391,-0.34224 0.35742,-0.35547 0.0213,-0.0213 0.53639,-0.53644 0.70118,-0.70117 0.34859,0.71168 2.04297,4.17187 2.04297,4.17187 0,0 0.35553,-0.35358 0.36914,-0.36719 0.0209,-0.0209 0.52959,-0.52768 0.68945,-0.6875 0.34859,0.7117 2.04102,4.16797 2.04102,4.16797 l 0.3789,-0.38086 c 0.0205,-0.0205 0.52071,-0.52078 0.67578,-0.67578 0.34897,0.71247 2.04102,4.16602 2.04102,4.16602 0,0 0.37588,-0.37822 0.39062,-0.39258 0.0201,-0.0201 0.51231,-0.51235 0.66211,-0.66211 0.34877,0.71204 2.03906,4.16016 2.03907,4.16016 l 0.40234,-0.40235 c 0.0198,-0.0197 0.50493,-0.505 0.65039,-0.65039 0.34864,0.7118 2.03516,4.15625 2.03516,4.15625 0,0 0.39894,-0.4009 0.41406,-0.41601 0.0194,-0.0194 0.49758,-0.49766 0.63867,-0.63868 0.34869,0.71189 2.0332,4.15235 2.0332,4.15235 0,0 0.41029,-0.40688 0.42578,-0.42578 0.019,-0.0187 0.4889,-0.48913 0.625,-0.625 0.3485,0.71145 2.03125,4.14648 2.03125,4.14648 0,0 0.42163,-0.41847 0.4375,-0.43359 0.0186,-0.0188 0.48152,-0.48141 0.61329,-0.61328 0.34845,0.71142 2.02929,4.14257 2.02929,4.14258 0,0 0.43297,-0.43411 0.44922,-0.44922 0.0182,-0.0181 0.47262,-0.47278 0.59961,-0.59961 0.34824,0.71096 2.02734,4.13672 2.02734,4.13672 0,0 0.44431,-0.44204 0.46094,-0.46094 0.0178,-0.0177 0.46382,-0.46394 0.58594,-0.58594 0.34852,0.71155 2.02539,4.13477 2.02539,4.13477 0,0 0.45565,-0.45376 0.47266,-0.47266 0.0174,-0.0173 0.45628,-0.45628 0.57421,-0.57422 0.34853,0.71158 2.02344,4.13086 2.02344,4.13086 0,0 0.46542,-0.46926 0.48242,-0.48437 0.0171,-0.017 0.44844,-0.4485 0.5625,-0.5625 0.34855,0.71161 2.02149,4.12695 2.02149,4.12695 0,0 0.47638,-0.47902 0.49414,-0.49414 0.0167,-0.0167 0.4407,-0.44074 0.55078,-0.55078 0.34823,0.71096 2.01758,4.12109 2.01758,4.12109 0,0 0.49005,-0.48696 0.50781,-0.50586 0.0163,-0.0163 0.43159,-0.43161 0.53711,-0.53711 0.34822,0.71095 2.01563,4.11719 2.01563,4.11719 0,0 0.49943,-0.50063 0.51757,-0.51953 0.0159,-0.016 0.42371,-0.4237 0.52539,-0.52539 0.34829,0.71104 2.01368,4.11328 2.01368,4.11328 0,0 0.51077,-0.51027 0.52929,-0.52539 0.0156,-0.0157 0.41598,-0.41579 0.51367,-0.51367 0.34803,0.71052 2.01172,4.10742 2.01172,4.10742 l 0.53907,-0.54102 c 0.0151,-0.0153 0.40649,-0.40642 0.5,-0.5 0.34866,0.71186 2.01171,4.10742 2.01171,4.10742 0,0 0.53151,-0.53383 0.55079,-0.55273 0.0148,-0.015 0.39843,-0.39837 0.48828,-0.48828 0.34832,0.71115 2.00781,4.10156 2.00781,4.10156 0,0 0.54285,-0.5436 0.5625,-0.5625 0.0145,-0.0146 0.39031,-0.39022 0.47656,-0.47656 0.34808,0.71065 2.00586,4.0957 2.00586,4.0957 0,0 0.55457,-0.55532 0.57422,-0.57422 0.014,-0.0142 0.37944,-0.37933 0.46094,-0.46093 0.34786,0.71017 2.0039,4.08984 2.0039,4.08984 0,0 0.56591,-0.56704 0.58594,-0.58594 0.0137,-0.0136 0.37256,-0.37265 0.45117,-0.45117 0.34815,0.71078 2.00196,4.08789 2.00196,4.08789 0,0 0.57529,-0.57498 0.5957,-0.59766 0.0133,-0.0132 0.36456,-0.36267 0.43945,-0.4375 0.34816,0.71082 2,4.08399 2,4.08399 0,0 0.58673,-0.58853 0.60742,-0.60742 0.0129,-0.0129 0.35452,-0.35457 0.42579,-0.42578 0.3477,0.70985 1.99804,4.07617 1.99804,4.07617 0,0 0.5976,-0.59647 0.61914,-0.61914 0.0125,-0.0125 0.34469,-0.34471 0.41211,-0.41211 0.34796,0.71039 1.9961,4.07422 1.9961,4.07422 0,0 0.60893,-0.60819 0.63086,-0.63086 0.0121,-0.0122 0.33619,-0.33619 0.40039,-0.40039 0.34795,0.71038 1.99414,4.07031 1.99414,4.07031 0,0 0.62065,-0.6199 0.64258,-0.64258 0.0117,-0.0118 0.32618,-0.32617 0.38671,-0.38672 0.34776,0.71 1.99219,4.06446 1.99219,4.06446 0,0 0.632,-0.63162 0.6543,-0.6543 0.0114,-0.0114 0.31753,-0.31749 0.375,-0.375 0.34763,0.7097 1.98828,4.06054 1.98828,4.06054 l 0.66602,-0.66601 c 0.011,-0.0108 0.30736,-0.30751 0.36132,-0.36133 0.34802,0.71054 1.98828,4.0586 1.98829,4.0586 0,0 0.6531,-0.65506 0.67578,-0.67774 0.0107,-0.0108 0.30003,-0.29998 0.35156,-0.35156 0.3477,0.70984 1.98437,4.05273 1.98437,4.05273 0,0 0.66407,-0.66677 0.6875,-0.68945 0.0103,-0.0101 0.28971,-0.28981 0.33789,-0.33789 0.34811,0.71067 1.98438,4.05078 1.98438,4.05078 0,0 0.67541,-0.67654 0.69922,-0.69922 0.01,-0.01 0.28078,-0.28087 0.32617,-0.32617 0.34772,0.70995 1.98047,4.04492 1.98047,4.04492 0,0 0.68517,-0.68826 0.70898,-0.71094 0.01,-0.009 0.27177,-0.27184 0.31446,-0.31445 0.0697,0.14239 0.33952,0.69424 0.39648,0.81055 -80.8573,87.91773 -130.2342,205.24302 -130.23437,334.10541 v 0.01 c 0.002,146.6978 63.98884,278.4473 165.57031,368.8731 0.014,0.013 0.0271,0.026 0.041,0.039 0.18286,0.1628 0.36378,0.3278 0.54688,0.4903 1.08069,0.9793 2.16451,1.954 3.25391,2.9238 0.018,0.016 0.0366,0.032 0.0547,0.049 0.18155,0.1616 0.36118,0.325 0.54297,0.4863 1.27738,1.1576 2.55811,2.3128 3.84766,3.4571 1.06163,0.962 2.1272,1.9202 3.19726,2.873 1.30116,1.1834 2.61189,2.356 3.92578,3.5254 0.0113,0.01 0.022,0.021 0.0332,0.031 0.17635,0.1569 0.35076,0.3159 0.52734,0.4726 1.27948,1.1595 2.56176,2.315 3.85352,3.461 1.0943,0.9917 2.19356,1.9791 3.29687,2.961 0.0461,0.042 0.0926,0.083 0.13867,0.125 0.12952,0.1151 0.25708,0.2326 0.38672,0.3477 1.06391,0.964 2.13264,1.922 3.20508,2.8769 1.28791,1.1712 2.58427,2.3347 3.88477,3.4921 0.0164,0.015 0.0325,0.03 0.0488,0.045 0.16979,0.1512 0.33782,0.3044 0.50782,0.4551 1.27294,1.1537 2.54878,2.3031 3.83398,3.4435 1.06523,0.9653 2.13515,1.9267 3.20899,2.8828 1.29181,1.1747 2.59193,2.3391 3.89648,3.5 0.006,0.01 0.0114,0.012 0.0176,0.017 0.16536,0.1472 0.32857,0.2965 0.49414,0.4434 1.08465,0.9831 2.17396,1.9631 3.26758,2.9355 0.0177,0.016 0.035,0.033 0.0527,0.049 0.16325,0.1452 0.32483,0.2924 0.48828,0.4375 1.08444,0.9829 2.17417,1.9604 3.26758,2.9336 0.0184,0.017 0.0363,0.034 0.0547,0.051 0.16189,0.144 0.32228,0.2897 0.48437,0.4335 1.1,0.9971 2.20325,1.9916 3.3125,2.9786 0.003,0 0.007,0.01 0.01,0.01 0.16015,0.1425 0.31818,0.2874 0.47851,0.4297 1.06976,0.9696 2.14414,1.9344 3.22266,2.8945 1.24945,1.1362 2.50805,2.2616 3.76953,3.3848 1.46236,1.3301 2.93324,2.6508 4.41211,3.9629 1.09329,0.99 2.19047,1.978 3.29297,2.9589 0.10847,0.099 0.21761,0.1965 0.32617,0.295 0.0503,0.045 0.10004,0.09 0.15039,0.1347 1.06745,0.9677 2.14054,1.9287 3.2168,2.8867 1.45078,1.3194 2.90787,2.6321 4.375,3.9336 1.24353,1.1271 2.49058,2.2513 3.74609,3.3653 1.09778,0.9952 2.1995,1.9857 3.30664,2.9707 0.13001,0.1181 0.26245,0.2335 0.39258,0.3515 0.021,0.019 0.0435,0.04 0.0644,0.059 1.06958,0.9697 2.14418,1.9327 3.22266,2.8926 1.24459,1.1319 2.49718,2.2544 3.75391,3.3731 1.26871,1.1539 2.54678,2.2993 3.82812,3.4394 0.0191,0.017 0.0376,0.035 0.0566,0.053 0.14294,0.1272 0.28464,0.2559 0.42774,0.3829 1.24617,1.1298 2.49751,2.2564 3.75586,3.373 1.09572,0.9935 2.19562,1.9817 3.30078,2.9648 0.0113,0.01 0.022,0.021 0.0332,0.031 0.1392,0.1238 0.27667,0.2494 0.41602,0.373 1.09185,0.99 2.18782,1.9754 3.28906,2.9551 0.0157,0.014 0.0312,0.029 0.0469,0.043 0.13782,0.1226 0.27416,0.2467 0.41211,0.3691 1.08699,0.9856 2.17909,1.966 3.27539,2.9414 0.0204,0.019 0.0401,0.038 0.0606,0.057 0.13643,0.1213 0.27163,0.244 0.4082,0.3652 1.26613,1.1481 2.53567,2.2916 3.81446,3.4258 1.0473,0.9492 2.0983,1.8942 3.15429,2.834 1.26114,1.1469 2.53089,2.2848 3.80469,3.4179 0.0143,0.013 0.0286,0.026 0.043,0.039 0.13126,0.1167 0.26118,0.235 0.39258,0.3516 1.24631,1.1301 2.49534,2.2564 3.7539,3.373 1.07052,0.9706 2.14692,1.9358 3.22657,2.8965 1.20567,1.0964 2.41939,2.1839 3.63672,3.2676 1.43237,1.3032 2.87341,2.5976 4.32226,3.8828 1.07025,0.9703 2.14518,1.9362 3.22461,2.8965 0.0235,0.021 0.0468,0.043 0.0703,0.064 0.12335,0.1097 0.24568,0.2206 0.36914,0.3301 1.10956,1.0063 2.22235,2.0084 3.3418,3.0039 0.0409,0.037 0.0821,0.074 0.12305,0.1113 0.0817,0.073 0.16435,0.1482 0.24609,0.2207 1.10132,0.9988 2.20728,1.9924 3.31836,2.9805 0.009,0.01 0.0169,0.017 0.0254,0.023 0.12025,0.107 0.23901,0.2155 0.35938,0.3223 1.09986,0.9975 2.20482,1.9897 3.31445,2.9766 0.0106,0.01 0.0207,0.02 0.0312,0.029 0.11956,0.1063 0.23775,0.2141 0.35742,0.3203 1.23499,1.1201 2.47348,2.2352 3.7207,3.3418 1.07617,0.9759 2.15664,1.9464 3.24219,2.9121 0.0269,0.024 0.0532,0.05 0.0801,0.074 0.11614,0.1033 0.23141,0.2074 0.34766,0.3106 1.1071,1.0041 2.21888,2.0028 3.33593,2.9961 0.004,0 0.008,0.01 0.0117,0.012 0.1144,0.1017 0.2273,0.205 0.3418,0.3066 1.26381,1.1463 2.53179,2.2878 3.80859,3.4199 1.05201,0.9536 2.10695,1.904 3.16797,2.8477 0.0194,0.018 0.0392,0.035 0.0586,0.053 0.11164,0.099 0.22224,0.1997 0.33398,0.2989 1.22506,1.1112 2.45409,2.2185 3.69141,3.3164 1.04852,0.951 2.10262,1.8975 3.16015,2.8378 1.24061,1.1288 2.48891,2.2503 3.74219,3.3653 1.23841,1.1263 2.48526,2.2429 3.73633,3.3555 0.0147,0.013 0.0283,0.028 0.043,0.041 0.1058,0.094 0.21051,0.1892 0.3164,0.2832 1.2487,1.1327 2.50214,2.2602 3.76368,3.3789 1.04639,0.9487 2.0969,1.8912 3.15234,2.8301 1.23898,1.1267 2.4846,2.2464 3.73633,3.3593 0.008,0.01 0.0156,0.014 0.0234,0.021 0.10121,0.09 0.20134,0.1815 0.30273,0.2715 1.09964,0.9976 2.20478,1.9879 3.31445,2.9746 0.0133,0.012 0.0259,0.025 0.0391,0.037 0.0993,0.088 0.19753,0.1775 0.29688,0.2656 1.09248,0.9912 2.19057,1.9768 3.29297,2.9571 0.0211,0.019 0.0414,0.039 0.0625,0.059 0.0979,0.087 0.19502,0.1748 0.29297,0.2617 1.08731,0.9865 2.18018,1.9676 3.27734,2.9433 0.0262,0.024 0.0519,0.048 0.0781,0.072 0.0965,0.086 0.19249,0.1721 0.28906,0.2578 1.10735,1.0047 2.21835,2.0046 3.33594,2.9981 0.006,0.01 0.0131,0.013 0.0195,0.017 0.0948,0.084 0.18835,0.1698 0.2832,0.254 1.09987,0.9979 2.20446,1.9916 3.31445,2.9785 0.0143,0.013 0.0286,0.026 0.043,0.039 0.0934,0.083 0.18585,0.167 0.2793,0.25 1.21489,1.1023 2.43484,2.2002 3.66211,3.289 1.19583,1.0849 2.39568,2.1647 3.60351,3.2364 1.07927,0.9792 2.16289,1.9532 3.25196,2.9219 1.22578,1.1148 2.45877,2.2212 3.69726,3.3223 0.01,0.01 0.0194,0.018 0.0293,0.027 0.0875,0.078 0.17411,0.1566 0.26172,0.2344 1.20961,1.0976 2.42255,2.1893 3.64453,3.2734 0.60024,0.5446 1.20529,1.0838 1.80859,1.625 0.0131,0.013 0.0259,0.026 0.0391,0.039 0.274,0.2831 0.53538,0.5764 0.81445,0.8555 0.70679,0.7067 1.41938,1.4044 2.13086,2.1054 0.27345,0.2825 0.53407,0.575 0.8125,0.8534 0.7415,0.7416 1.48966,1.474 2.23633,2.2091 0.23855,0.2452 0.46475,0.5 0.70703,0.7421 0.71296,0.713 1.43263,1.4179 2.15039,2.125 0.26505,0.2734 0.5175,0.5566 0.78711,0.8262 0.70649,0.7065 1.41965,1.4048 2.13086,2.1055 0.27164,0.2793 0.53026,0.5712 0.80664,0.8476 0.72249,0.7225 1.45225,1.436 2.17969,2.1524 0.25387,0.2603 0.49399,0.533 0.75195,0.791 0.71256,0.7125 1.43301,1.4164 2.15039,2.123 0.26269,0.2704 0.51229,0.5514 0.7793,0.8184 0.70852,0.7085 1.4235,1.4086 2.13671,2.1113 0.26591,0.2738 0.51878,0.5578 0.78907,0.8281 0.69749,0.6976 1.40138,1.3864 2.10351,2.0782 0.27576,0.2832 0.53795,0.5789 0.81836,0.8593 0.7181,0.7181 1.443,1.4267 2.16602,2.1387 0.25464,0.2617 0.49534,0.5344 0.7539,0.793 0.69914,0.6991 1.40557,1.3906 2.10938,2.084 0.27148,0.2786 0.52879,0.5697 0.80469,0.8457 0.55656,0.5565 1.12014,1.1053 1.67968,1.6582 0.40777,0.4258 0.81658,0.8497 1.23438,1.2675 0.55236,0.5524 1.11081,1.0978 1.66601,1.6465 0.41055,0.4286 0.82353,0.8549 1.24415,1.2754 0.53155,0.5316 1.06924,1.0559 1.60351,1.584 0.42998,0.4499 0.86376,0.8969 1.30469,1.3379 0.55193,0.5519 1.10918,1.0962 1.66406,1.6446 0.40858,0.4261 0.81996,0.8512 1.23828,1.2695 0.54041,0.5405 1.08762,1.0725 1.63086,1.6094 0.41944,0.4378 0.84187,0.8751 1.27149,1.3047 0.50102,0.5011 1.00825,0.9942 1.51172,1.4922 0.45542,0.477 0.91537,0.9504 1.38281,1.4179 0.54701,0.547 1.10046,1.0855 1.65039,1.6289 0.41141,0.4286 0.82315,0.8563 1.24414,1.2773 0.5521,0.5521 1.11094,1.0961 1.66601,1.6445 0.40548,0.4221 0.81189,0.8433 1.22657,1.258 0.49675,0.4966 0.99887,0.9865 1.49804,1.4803 0.45761,0.4785 0.91939,0.9528 1.38868,1.422 0.53803,0.538 1.08218,1.0689 1.62304,1.6034 0.41651,0.4337 0.83569,0.8651 1.26172,1.291 0.49442,0.4945 0.99342,0.9832 1.49024,1.4746 0.45767,0.4783 0.91955,0.9528 1.38867,1.4219 0.54561,0.5456 1.09794,1.0831 1.64648,1.625 0.40822,0.4245 0.8172,0.8486 1.23438,1.2656 0.49599,0.4961 0.99768,0.9855 1.49609,1.4786 0.45384,0.4737 0.91209,0.9452 1.37695,1.4101 0.52,0.52 1.04569,1.0322 1.56836,1.5488 0.43032,0.448 0.86254,0.8939 1.30279,1.334 0.5518,0.5518 1.1092,1.0966 1.6641,1.6447 0.3981,0.4139 0.7976,0.8289 1.205,1.2363 0.5174,0.5173 1.0406,1.027 1.5606,1.541 0.4314,0.4487 0.8636,0.8968 1.3047,1.3378 0.531,0.5311 1.0676,1.0544 1.6015,1.5821 0.4166,0.4326 0.8343,0.8656 1.2598,1.291 0.5416,0.5416 1.0883,1.0753 1.6328,1.6133 0.4068,0.4219 0.8134,0.8445 1.2285,1.2598 0.5061,0.5061 1.0168,1.0048 1.5254,1.5078 0.3762,0.3912 0.7553,0.7805 1.1387,1.166 v 103.2304 0.01 c 0,0.3515 0.053,0.6843 0.1328,0.9981 v 0 h -8.4473 v 0 c 0.1285,0.3818 16.8789,49.2969 16.8789,49.2969 v 0 c 0.01,-0.024 0.9205,-2.686 1.0489,-3.0605 0.475,1.3873 2.1484,6.2772 2.1484,6.2772 l 0.033,-0.1034 c 0.01,-0.023 0.8929,-2.6084 1.0137,-2.9609 0.4748,1.3867 2.1465,6.2695 2.1465,6.2695 l 0.068,-0.1973 c 0.01,-0.022 0.8651,-2.5285 0.9785,-2.8593 0.4752,1.3875 2.1465,6.2655 2.1465,6.2655 l 0.1,-0.2989 c 0.01,-0.02 0.8392,-2.4478 0.9453,-2.7578 0.4748,1.3865 2.1426,6.2579 2.1426,6.2578 l 0.1348,-0.3984 c 0.01,-0.021 0.8112,-2.3671 0.9101,-2.6561 0.4749,1.3865 2.1407,6.2518 2.1407,6.2518 l 0.166,-0.4921 c 0.01,-0.02 0.7828,-2.2838 0.875,-2.5527 0.4741,1.3849 2.1367,6.2422 2.1367,6.2422 l 0.2051,-0.5939 c 0.01,-0.019 0.7544,-2.2014 0.8398,-2.4511 0.4739,1.3841 2.1348,6.2344 2.1348,6.2344 l 0.2383,-0.6875 c 0.01,-0.018 0.7257,-2.1169 0.8047,-2.3477 0.4724,1.3825 2.1308,6.2246 2.1308,6.2246 l 0.2734,-0.7852 c 0.01,-0.017 0.6984,-2.0382 0.7715,-2.2519 0.4742,1.3849 2.1309,6.2246 2.1309,6.2246 l 0.3027,-0.8848 c 0.01,-0.017 0.6692,-1.9523 0.7364,-2.1484 0.4735,1.383 2.1269,6.2148 2.1269,6.2148 l 0.3379,-0.9785 c 0.01,-0.016 0.6414,-1.8723 0.7031,-2.0527 0.4742,1.3847 2.127,6.2129 2.127,6.2129 l 0.3711,-1.08 c 0.01,-0.015 0.6102,-1.782 0.666,-1.9454 0.4733,1.3822 2.123,6.2011 2.123,6.2011 l 0.4043,-1.1757 c 0,-0.014 0.5818,-1.7007 0.6328,-1.8496 0.4739,1.3839 2.1231,6.1992 2.1231,6.1992 l 0.4375,-1.2735 c 0,-0.013 0.5519,-1.6103 0.5976,-1.744 0.4733,1.3822 2.1192,6.1895 2.1192,6.1895 l 0.4726,-1.3712 c 0,-0.013 0.5215,-1.5245 0.5625,-1.6446 0.4727,1.3806 2.1172,6.1797 2.1172,6.1797 l 0.5078,-1.4668 c 0,-0.012 0.4927,-1.4396 0.5293,-1.5469 0.4731,1.3815 2.1153,6.1758 2.1153,6.1758 l 0.5371,-1.5644 c 0,-0.011 0.4618,-1.3489 0.4941,-1.4434 0.4732,1.3821 2.1133,6.1719 2.1133,6.1719 l 0.5703,-1.6621 c 0,-0.01 0.4343,-1.266 0.4629,-1.3496 0.4735,1.3828 2.1113,6.1679 2.1113,6.1679 l 0.6016,-1.7578 c 0,-0.01 0.4047,-1.1789 0.4297,-1.2519 0.4735,1.3828 2.1094,6.1621 2.1094,6.1621 l 0.6347,-1.8555 c 0,-0.01 0.3732,-1.0861 0.3946,-1.1484 0.4735,1.3826 2.1074,6.1562 2.1074,6.1562 L 1087,1898.752 c 0,-0.01 0.3413,-0.9959 0.3594,-1.0489 0.4732,1.3819 2.1054,6.1485 2.1054,6.1485 0,0 0.6955,-2.0337 0.6993,-2.0489 0,-0.01 0.3109,-0.9068 0.3261,-0.9511 0.4735,1.3825 2.1036,6.1445 2.1036,6.1445 0,0 0.7286,-2.1295 0.7324,-2.1484 0,-0.01 0.2785,-0.8135 0.291,-0.8497 0.4734,1.3827 2.1016,6.1387 2.1016,6.1387 0,0 0.7639,-2.2233 0.7714,-2.2422 0,-0.01 0.246,-0.721 0.2559,-0.75 0.473,1.3811 2.0996,6.1289 2.0996,6.1289 0,0 0.7932,-2.317 0.8008,-2.3359 0,-0.01 0.2149,-0.6297 0.2226,-0.6523 0.4732,1.3818 2.0977,6.125 2.0977,6.125 0,0 0.8245,-2.4147 0.832,-2.4336 0,0 0.1855,-0.5414 0.1914,-0.5586 0.4735,1.3825 2.0957,6.1211 2.0957,6.1211 0,0 0.8577,-2.5085 0.8653,-2.5274 0,0 0.1501,-0.441 0.1543,-0.4531 0.4729,1.3809 2.0937,6.1113 2.0937,6.1113 0,0 0.8929,-2.6043 0.9004,-2.6269 9e-4,0 0.1184,-0.3437 0.1211,-0.3516 0.4725,1.38 2.0898,6.1035 2.0898,6.1035 0,0 0.9222,-2.698 0.9297,-2.7207 7e-4,0 0.086,-0.2511 0.088,-0.2558 0.4725,1.38 2.0879,6.0976 2.0879,6.0976 0,0 0.9573,-2.7919 0.9649,-2.8183 4e-4,0 0.054,-0.1579 0.055,-0.1602 0.4734,1.3824 2.0879,6.0977 2.0879,6.0977 0,0 0.9867,-2.8876 0.9981,-2.9141 10e-5,-4e-4 0.019,-0.054 0.019,-0.055 0.472,1.3783 2.082,6.082 2.082,6.082 0,0 0.9833,-2.8625 1.0176,-2.9668 0.4728,1.3806 2.0821,6.0821 2.0821,6.0821 0,0 0.9221,-2.6989 1.0136,-2.9668 0.4725,1.3798 2.0801,6.0742 2.0801,6.0742 0,0 0.8699,-2.5308 1.0156,-2.959 0.4719,1.3782 2.0762,6.0645 2.0762,6.0645 0,0 0.824,-2.4026 1.0156,-2.9571 0.4723,1.379 2.0762,6.0606 2.0762,6.0606 0,0 0.7801,-2.2796 1.0117,-2.9551 0.4722,1.3787 2.0723,6.0547 2.0723,6.0547 0,0 0.745,-2.1742 1.0117,-2.9512 0.4719,1.3783 2.0723,6.0469 2.0723,6.0469 0,0 0.7133,-2.0838 1.0097,-2.9492 0.4721,1.3787 2.0684,6.0429 2.0684,6.0429 0,0 0.6868,-2.0062 1.0098,-2.9472 0.4718,1.378 2.0664,6.0351 2.0664,6.0351 0,0 0.6595,-1.9247 1.0078,-2.9394 0.4715,1.377 2.0644,6.0273 2.0644,6.0273 0,0 0.638,-1.8655 1.0059,-2.9394 0.4718,1.3779 2.0625,6.0234 2.0625,6.0234 0,0 0.6212,-1.8126 1.0078,-2.9414 0.4726,1.3801 2.0625,6.0234 2.0625,6.0234 0,0 0.5993,-1.7562 1.002,-2.9336 0.4714,1.377 2.0585,6.0098 2.0586,6.0098 0,0 0.589,-1.7174 1.0058,-2.9336 0.4718,1.3777 2.0567,6.0059 2.0566,6.0059 0,0 0.5733,-1.6771 1.002,-2.9297 0.4715,1.377 2.0547,5.998 2.0547,5.998 0,0 0.5631,-1.6435 1.0019,-2.9277 0.4723,1.3791 2.0528,5.998 2.0528,5.998 0,0 0.5512,-1.6083 1,-2.9199 0.4711,1.3759 2.0488,5.9844 2.0488,5.9844 0,0 0.5427,-1.5827 1,-2.918 0.4711,1.3759 2.0469,5.9785 2.0469,5.9785 0,0 0.5342,-1.5601 0.998,-2.916 0.4713,1.3765 2.0449,5.9746 2.0449,5.9746 0,0 0.5276,-1.5422 0.9981,-2.916 0.4716,1.3774 2.0449,5.9707 2.0449,5.9707 0,0 0.5211,-1.5243 0.9961,-2.9121 0.4711,1.3757 2.041,5.961 2.041,5.961 0,0 0.5155,-1.5085 0.9942,-2.9082 0.4716,1.3773 2.041,5.9589 2.041,5.9589 0,0 0.5118,-1.4944 0.9941,-2.9043 0.4709,1.375 2.0371,5.9473 2.0371,5.9473 0,0 0.507,-1.4844 0.9922,-2.9023 0.471,1.3756 2.0352,5.9433 2.0352,5.9433 0,0 0.5051,-1.4715 0.9922,-2.8945 0.4704,1.3739 2.0312,5.9336 2.0312,5.9336 0,0 0.5024,-1.467 0.9922,-2.8965 0.471,1.3754 2.0313,5.9316 2.0313,5.9316 0,0 0.5001,-1.4575 0.9902,-2.8886 0.4701,1.373 2.0273,5.9199 2.0273,5.9199 0,0 0.4988,-1.4532 0.9903,-2.8867 0.4706,1.3744 2.0254,5.9179 2.0254,5.9179 0,0 0.4966,-1.4511 0.9882,-2.8867 0.4704,1.3737 2.0235,5.9102 2.0235,5.9102 0,0 0.4966,-1.4485 0.9883,-2.8848 0.4708,1.3751 2.0214,5.9082 2.0214,5.9082 0,0 0.4948,-1.4464 0.9864,-2.8808 0.4707,1.3746 2.0215,5.9003 2.0215,5.9003 0,0 0.4952,-1.4414 0.9843,-2.871 0.4696,1.3716 2.0157,5.8886 2.0157,5.8886 0,0 0.4944,-1.4473 0.9843,-2.8789 0.471,1.3752 2.0176,5.8906 2.0176,5.8906 0,0 0.4949,-1.4438 0.9824,-2.8691 0.4697,1.3716 2.0117,5.877 2.0117,5.877 0,0 0.4938,-1.4444 0.9805,-2.8653 0.4697,1.3718 2.0117,5.8711 2.0117,5.8711 0,0 0.4969,-1.4464 0.9825,-2.8633 0.4698,1.3724 2.0078,5.8672 2.0078,5.8672 0,0 0.4963,-1.4486 0.9804,-2.8613 0.4703,1.3732 2.0079,5.8633 2.0078,5.8633 0,0 0.4973,-1.451 0.9786,-2.8574 0.456,1.332 1.8639,5.4421 1.9472,5.6855 h 0.1133 c 0.053,-0.1559 0.4689,-1.3681 0.9199,-2.6855 0.2157,0.6298 0.5073,1.4802 0.92,2.6855 h 808.4433 c 2.5049,0 4.5215,-2.7019 4.5215,-6.0566 V 1390.154 c 0.2649,-0.6765 0.4277,-1.4333 0.4277,-2.2481 v -50.8124 c 0,-0.8149 -0.1628,-1.5716 -0.4277,-2.2481 V 888.03516 c -0.1664,0.0815 -0.1782,0.0869 -0.3438,0.16796 0.091,-0.185 0.2177,-0.44384 0.3438,-0.70117 v -3.5332 c -1.0452,0.51191 -1.5874,0.77761 -3.0703,1.50391 0.6918,-1.41219 2.623,-5.35547 2.623,-5.35547 0,0 -2.7638,1.35446 -5.3574,2.625 0.6926,-1.41387 2.627,-5.36524 2.627,-5.36524 0,0 -2.7604,1.35159 -5.3594,2.625 0.6922,-1.41329 2.6308,-5.36914 2.6309,-5.36914 0,0 -2.7588,1.35191 -5.3692,2.63086 0.6923,-1.41347 2.6328,-5.375 2.6328,-5.375 0,0 -2.756,1.35078 -5.373,2.63281 0.6932,-1.41525 2.6367,-5.38476 2.6367,-5.38476 0,0 -2.7549,1.35009 -5.3809,2.63672 0.693,-1.41455 2.6407,-5.38867 2.6407,-5.38867 0,0 -2.7525,1.3495 -5.3848,2.63867 0.6924,-1.41354 2.6406,-5.39258 2.6406,-5.39258 0,0 -2.7516,1.34727 -5.3926,2.64062 0.6929,-1.41464 2.6446,-5.40039 2.6446,-5.40039 0,0 -2.7479,1.34522 -5.3926,2.64063 0.6921,-1.41302 2.6465,-5.40234 2.6465,-5.40234 0,0 -2.7503,1.34708 -5.4082,2.64843 0.6939,-1.41674 2.6523,-5.41601 2.6523,-5.41601 0,0 -2.748,1.34732 -5.4121,2.65234 0.6941,-1.41703 2.6563,-5.42187 2.6563,-5.42187 0,0 -2.7457,1.34494 -5.4141,2.65234 0.693,-1.41486 2.6562,-5.42383 2.6562,-5.42383 0,0 -2.7466,1.34661 -5.4238,2.6582 0.6937,-1.41598 2.6602,-5.43164 2.6602,-5.43164 0,0 -2.7463,1.34418 -5.4297,2.65821 0.6938,-1.41631 2.664,-5.4375 2.6641,-5.4375 0,0 -2.7465,1.3448 -5.4376,2.66211 0.6937,-1.41624 2.6661,-5.44336 2.6661,-5.44336 0,0 -2.746,1.34685 -5.4434,2.66797 0.6946,-1.41811 2.6699,-5.45313 2.6699,-5.45313 0,0 -2.7467,1.34564 -5.4492,2.66992 0.6948,-1.41853 2.6738,-5.45898 2.6738,-5.45898 0,0 -2.7454,1.34416 -5.4511,2.66992 0.6935,-1.41565 2.6738,-5.45898 2.6738,-5.45898 0,0 -2.7478,1.3451 -5.4609,2.67382 0.6948,-1.41843 2.6796,-5.4707 2.6796,-5.4707 0,0 -2.7493,1.3447 -5.4668,2.67578 0.6943,-1.41717 2.6817,-5.47265 2.6817,-5.47265 0,0 -2.752,1.34904 -5.4766,2.68359 0.6954,-1.41952 2.6856,-5.48438 2.6856,-5.48438 0,0 -2.7533,1.34849 -5.4825,2.68555 0.6954,-1.41964 2.6895,-5.49023 2.6895,-5.49023 0,0 -2.7548,1.34902 -5.4863,2.6875 0.6956,-1.42018 2.6933,-5.4961 2.6933,-5.4961 0,0 -2.7559,1.3498 -5.4902,2.68946 0.6947,-1.41805 2.6934,-5.49805 2.6934,-5.49805 0,0 -2.7605,1.35183 -5.5,2.69336 0.6953,-1.4199 2.6972,-5.50781 2.6972,-5.50781 0,0 -2.764,1.3536 -5.5058,2.69726 0.6956,-1.42025 2.7011,-5.51367 2.7011,-5.51367 0,0 -2.7679,1.35505 -5.5117,2.69922 0.6952,-1.41948 2.7031,-5.51758 2.7031,-5.51758 0,0 -2.7704,1.35484 -5.5156,2.69922 0.6955,-1.41978 2.707,-5.52344 2.707,-5.52344 0,0 -2.7767,1.35922 -5.5253,2.70508 0.6958,-1.4206 2.7089,-5.53125 2.7089,-5.53125 0,0 -2.7794,1.36124 -5.5273,2.70703 0.6963,-1.4215 2.7129,-5.53906 2.7129,-5.53906 0,0 -2.7862,1.36602 -5.5352,2.71289 0.6959,-1.4205 2.7149,-5.54297 2.7149,-5.54297 0,0 -2.7926,1.36539 -5.541,2.71094 0.6962,-1.42147 2.7187,-5.55078 2.7187,-5.55078 0,0 -2.8009,1.37193 -5.5508,2.71875 0.6965,-1.42168 2.7227,-5.55664 2.7227,-5.55664 0,0 -2.8067,1.37504 -5.5547,2.7207 0.6964,-1.42181 2.7246,-5.5625 2.7246,-5.5625 0,0 -2.8173,1.3796 -5.5644,2.72461 0.697,-1.4229 2.7285,-5.57031 2.7285,-5.57031 0,0 -2.822,1.38344 -5.5645,2.72656 0.697,-1.42278 2.7305,-5.57617 2.7305,-5.57617 0,0 -2.8354,1.38801 -5.5762,2.73047 0.6973,-1.42371 2.7344,-5.58399 2.7344,-5.58399 0,0 -2.8426,1.3937 -5.5781,2.73438 0.697,-1.42294 2.7363,-5.58789 2.7363,-5.58789 0,0 -2.8549,1.39717 -5.5859,2.73437 0.6973,-1.424 2.7402,-5.5957 2.7402,-5.5957 0,0 -2.868,1.40479 -5.5938,2.74023 0.6974,-1.42381 2.7422,-5.60156 2.7422,-5.60156 0,0 -2.8774,1.40837 -5.5957,2.74023 0.6972,-1.42322 2.7461,-5.60546 2.7461,-5.60547 0,0 -2.8946,1.41736 -5.6074,2.7461 0.6979,-1.42499 2.75,-5.61524 2.75,-5.61524 0,0 -2.9074,1.42509 -5.6113,2.75 0.6983,-1.42546 2.7539,-5.62109 2.7539,-5.62109 0,0 -2.921,1.43172 -5.6153,2.75195 0.6979,-1.42458 2.7559,-5.625 2.7559,-5.625 0,0 -2.945,1.44233 -5.6309,2.75782 0.6995,-1.42823 2.7618,-5.63868 2.7618,-5.63868 0,0 -2.9553,1.44872 -5.627,2.75782 0.698,-1.42487 2.7617,-5.63672 2.7617,-5.63672 0,0 -2.9777,1.45867 -5.6386,2.76172 0.6988,-1.42659 2.7656,-5.64649 2.7656,-5.64649 0,0 -2.9966,1.46766 -5.6426,2.76367 0.6983,-1.42582 2.7676,-5.65039 2.7676,-5.65039 0,0 -3.016,1.47748 -5.6465,2.76563 0.6983,-1.42564 2.7695,-5.65625 2.7695,-5.65625 0,0 -3.045,1.49213 -5.6601,2.77344 0.7,-1.42947 2.7773,-5.66993 2.7773,-5.66993 0,0 -3.0662,1.50313 -5.6621,2.7754 0.6989,-1.42697 2.7773,-5.66993 2.7773,-5.66993 0,0 -3.0915,1.51393 -5.6679,2.77539 0.6993,-1.42789 2.7812,-5.67773 2.7812,-5.67773 0,0 -3.1213,1.52918 -5.6758,2.78125 0.6994,-1.42803 2.7833,-5.68359 2.7833,-5.68359 0,0 -3.1461,1.54059 -5.6778,2.78125 0.6992,-1.42734 2.7871,-5.6875 2.7871,-5.6875 0,0 -3.1821,1.55871 -5.6894,2.7871 0.7002,-1.42958 2.791,-5.69921 2.791,-5.69921 0,0 -3.2155,1.57567 -5.6953,2.79101 0.7003,-1.43 2.7949,-5.70508 2.7949,-5.70508 0,0 -3.2455,1.59173 -5.6973,2.79297 0.6993,-1.42759 2.795,-5.70508 2.795,-5.70508 0,0 -3.2859,1.60874 -5.7071,2.79493 0.7006,-1.43028 2.8008,-5.7168 2.8008,-5.7168 0,0 -3.3219,1.62687 -5.7109,2.79687 0.6996,-1.42833 2.8007,-5.71875 2.8007,-5.71875 0,0 -3.366,1.64802 -5.7187,2.80079 0.7002,-1.42935 2.8047,-5.72657 2.8047,-5.72657 0,0 -3.4133,1.67025 -5.7266,2.80274 0.7004,-1.42964 2.8086,-5.73242 2.8086,-5.73242 0,0 -3.4556,1.69165 -5.7285,2.80468 0.6999,-1.42885 2.8105,-5.73633 2.8105,-5.73632 0,0 -3.5065,1.71692 -5.7363,2.80859 0.7007,-1.43042 2.8145,-5.7461 2.8145,-5.74609 0,0 -3.563,1.74674 -5.7461,2.8164 0.7013,-1.43224 2.8183,-5.75586 2.8183,-5.75586 0,0 -3.621,1.77513 -5.7519,2.82031 0.7015,-1.43254 2.8222,-5.76171 2.8222,-5.76171 0,0 -3.6694,1.79714 -5.7519,2.8164 0.7,-1.42909 2.8223,-5.75976 2.8223,-5.75976 0,0 -3.7359,1.82837 -5.7618,2.82031 0.7009,-1.43078 2.8262,-5.76953 2.8262,-5.76953 0,0 -3.8088,1.86449 -5.7715,2.82617 0.7015,-1.43199 2.8301,-5.77734 2.8301,-5.77734 0,0 -3.8708,1.89644 -5.7715,2.82812 0.7013,-1.43161 2.8321,-5.7832 2.8321,-5.7832 0,0 -3.9543,1.93516 -5.7832,2.83203 0.7022,-1.43363 2.8378,-5.79297 2.8378,-5.79297 0,0 -4.0276,1.97327 -5.7871,2.83594 0.7022,-1.43358 2.8399,-5.79883 2.8399,-5.79883 0,0 -4.1107,2.01395 -5.793,2.83789 0.7015,-1.43225 2.8418,-5.80078 2.8418,-5.80078 0,0 -4.2037,2.05768 -5.8008,2.83984 0.7015,-1.43213 2.8438,-5.80664 2.8438,-5.80664 0,0 -4.3003,2.10771 -5.8067,2.84571 0.7023,-1.43382 2.8477,-5.81641 2.8477,-5.81641 0,0 -4.3951,2.15201 -5.8106,2.8457 0.702,-1.43318 2.8516,-5.82031 2.8516,-5.82031 0,0 -4.5043,2.20734 -5.8184,2.85156 0.7029,-1.43486 2.8555,-5.83008 2.8555,-5.83008 0,0 -4.617,2.26276 -5.8262,2.85547 0.7033,-1.43585 2.8594,-5.83789 2.8594,-5.83789 0,0 -4.7348,2.32131 -5.832,2.85938 0.7026,-1.43439 2.8613,-5.83985 2.8613,-5.83985 0,0 -4.8621,2.38125 -5.8379,2.85938 0.7026,-1.43438 2.8633,-5.84571 2.8633,-5.84571 0,0 -4.9986,2.44708 -5.8457,2.85938 0.703,-1.43528 2.8672,-5.85352 2.8672,-5.85352 0,0 -5.1459,2.52524 -5.8496,2.86914 l 2.8711,-5.86132 c 0,0 -5.2993,2.5947 -5.8594,2.87109 0.7033,-1.43565 2.873,-5.86523 2.873,-5.86523 0,0 -5.4472,2.6676 -5.8574,2.86718 0.7022,-1.43357 2.8731,-5.86718 2.8731,-5.86718 0,0 -5.6348,2.75594 -5.8692,2.87109 0.7032,-1.43561 2.8789,-5.87695 2.8789,-5.87695 0,0 -5.8188,2.85096 -5.875,2.8789 0.7032,-1.43554 2.8809,-5.88281 2.8809,-5.88281 0,0 -5.7476,2.81521 -5.793,2.83789 -7e-4,3.5e-4 -0.091,0.0444 -0.092,0.0449 0.7048,-1.43921 2.8887,-5.89648 2.8887,-5.89648 0,0 -5.6617,2.7742 -5.707,2.79687 0,6.8e-4 -0.1768,0.0865 -0.1797,0.0879 0.7037,-1.43669 2.8887,-5.89648 2.8887,-5.89648 0,0 -5.5738,2.73318 -5.6192,2.75586 0,10e-4 -0.2715,0.13388 -0.2773,0.13672 0.7048,-1.43919 2.8926,-5.9082 2.8925,-5.9082 0,0 -5.4877,2.69008 -5.5292,2.70898 0,10e-4 -0.3599,0.17706 -0.3692,0.18164 0.7034,-1.43586 2.8926,-5.90625 2.8926,-5.90625 0,0 -5.3998,2.64139 -5.4414,2.66406 0,0.002 -0.4511,0.21981 -0.4649,0.22657 0.704,-1.43715 2.8985,-5.91407 2.8985,-5.91407 0,0 -5.3139,2.60037 -5.3555,2.62305 0,0.002 -0.5396,0.26414 -0.5586,0.27344 0.7047,-1.43878 2.9024,-5.92383 2.9024,-5.92383 0,0 -5.228,2.56118 -5.2696,2.58008 -0.01,0.002 -0.6256,0.3062 -0.6504,0.31836 0.7038,-1.43708 2.9024,-5.92579 2.9024,-5.92579 0,0 -5.1362,2.51626 -5.1778,2.53516 -0.01,0.003 -0.7162,0.34967 -0.748,0.36524 0.7039,-1.43738 2.9063,-5.93164 2.9063,-5.93164 0,0 -5.0483,2.47146 -5.0899,2.49414 -0.01,0.003 -0.8007,0.393 -0.8398,0.4121 0.7048,-1.43893 2.9101,-5.9414 2.9101,-5.9414 0,0 -4.9623,2.43032 -5.0039,2.44922 -0.01,0.004 -0.8844,0.43389 -0.9316,0.45703 0.7044,-1.438 2.9121,-5.94531 2.9121,-5.94531 0,0 -4.8764,2.3893 -4.918,2.4082 -0.01,0.004 -0.9745,0.47613 -1.0312,0.50391 0.7053,-1.44004 2.9179,-5.95508 2.9179,-5.95508 0,0 -4.7846,2.34438 -4.8261,2.36328 -0.01,0.004 -1.0568,0.51822 -1.1231,0.55078 0.7048,-1.43904 2.918,-5.95898 2.918,-5.95898 0,0 -4.6986,2.30141 -4.7363,2.32031 -0.01,0.005 -1.1436,0.55986 -1.2208,0.59765 0.7052,-1.43991 2.9219,-5.96679 2.9219,-5.96679 0,0 -4.6106,2.2592 -4.6484,2.27734 -0.01,0.005 -1.2244,0.59941 -1.3125,0.64258 0.7051,-1.43941 2.9258,-5.9707 2.9258,-5.9707 0,0 -4.5228,2.21623 -4.5606,2.23437 -0.011,0.005 -1.3114,0.64205 -1.4121,0.69141 0.7059,-1.44096 2.9297,-5.98047 2.9297,-5.98047 0,0 -4.4329,2.17364 -4.4707,2.19141 -0.012,0.006 -1.389,0.68103 -1.502,0.73632 0.7055,-1.44018 2.9317,-5.98437 2.9317,-5.98437 0,0 -4.347,2.12947 -4.3848,2.14648 -0.012,0.006 -1.4729,0.72115 -1.5996,0.78321 0.7054,-1.44018 2.9336,-5.99024 2.9336,-5.99024 0,0 -4.255,2.08456 -4.2891,2.10156 -0.013,0.006 -1.5575,0.76271 -1.6992,0.83204 0.7059,-1.44102 2.9375,-5.99805 2.9375,-5.99805 0,0 -4.1671,2.04234 -4.2012,2.05859 -0.013,0.007 -1.6367,0.80234 -1.7929,0.87891 0.7062,-1.44196 2.9414,-6.00586 2.9414,-6.00586 0,0 -4.0831,1.99937 -4.1133,2.01562 -0.015,0.007 -1.7167,0.84156 -1.8887,0.92579 0.7062,-1.44199 2.9434,-6.01172 2.9434,-6.01172 0,0 -3.9914,1.95678 -4.0254,1.97265 -0.015,0.008 -1.7915,0.87706 -1.9785,0.96875 0.706,-1.44134 2.9473,-6.01562 2.9473,-6.01562 0,0 -3.9055,1.9139 -3.9395,1.92968 -0.016,0.008 -1.8718,0.9174 -2.0762,1.01758 0.7064,-1.44208 2.9492,-6.02343 2.9492,-6.02343 0,0 -3.8135,1.86964 -3.8437,1.88476 -0.017,0.008 -1.9514,0.95548 -2.1738,1.06445 0.7063,-1.44228 2.9531,-6.02929 2.9531,-6.02929 0,0 -3.7256,1.82472 -3.7559,1.83984 -0.017,0.009 -2.0288,0.99341 -2.2695,1.11133 0.7065,-1.44227 2.957,-6.03516 2.957,-6.03516 0,0 -3.6395,1.78252 -3.666,1.79688 -0.018,0.009 -2.1055,1.03102 -2.3652,1.1582 0.7065,-1.44236 2.959,-6.04101 2.959,-6.04101 0,0 -3.5499,1.73796 -3.5801,1.75195 -0.019,0.009 -2.1803,1.06847 -2.459,1.20508 0.7065,-1.44229 2.9609,-6.04688 2.9609,-6.04688 0,0 -3.458,1.695 -3.4882,1.70899 -0.02,0.01 -2.2589,1.10515 -2.5586,1.25195 0.7071,-1.44359 2.9668,-6.05469 2.9668,-6.05469 0,0 -3.3663,1.65046 -3.3965,1.66406 -0.021,0.0101 -2.3307,1.14219 -2.6504,1.29883 0.7066,-1.44245 2.9668,-6.05859 2.9668,-6.05859 0,0 -3.2803,1.60591 -3.3106,1.61914 -0.021,0.0104 -2.4066,1.17842 -2.748,1.3457 0.7067,-1.44269 2.9707,-6.06445 2.9707,-6.06445 0,0 -3.1903,1.56332 -3.2168,1.57617 -0.022,0.0108 -2.4818,1.21621 -2.8457,1.39453 0.7075,-1.44426 2.9746,-6.07422 2.9746,-6.07422 0,0 -3.1023,1.52073 -3.125,1.53321 -0.023,0.0112 -2.5577,1.25354 -2.9453,1.44336 0.7079,-1.4452 2.9785,-6.08203 2.9785,-6.08203 0,0 -3.0126,1.47618 -3.0391,1.48828 -0.023,0.0115 -2.6275,1.28756 -3.0371,1.48828 0.7072,-1.44373 2.9805,-6.08399 2.9805,-6.08399 0,0 -2.9208,1.42931 -2.9473,1.44141 -0.024,0.0119 -2.6993,1.32285 -3.1328,1.53516 0.7071,-1.4436 2.9824,-6.08985 2.9825,-6.08985 0,0 -2.831,1.38672 -2.8575,1.39844 -0.025,0.0123 -2.7737,1.35926 -3.2324,1.58398 0.7076,-1.44454 2.9863,-6.09765 2.9863,-6.09765 0,0 -2.741,1.34255 -2.7636,1.35351 -0.026,0.0127 -2.846,1.39376 -3.3301,1.63086 0.7077,-1.44482 2.9902,-6.10351 2.9902,-6.10351 0,0 -2.6531,1.29996 -2.6758,1.31054 -0.026,0.013 -2.9177,1.42983 -3.4277,1.67969 0.708,-1.44553 2.9922,-6.11133 2.9922,-6.11133 0,0 -2.5574,1.25347 -2.5801,1.26368 -0.027,0.0133 -2.9888,1.46375 -3.5254,1.72656 0.7078,-1.44497 2.9961,-6.11524 2.9961,-6.11524 0,0 -2.4713,1.2105 -2.4902,1.22071 -0.028,0.0138 -3.0609,1.49907 -3.625,1.77539 0.7084,-1.44657 3,-6.125 3,-6.125 0,0 -2.3796,1.16595 -2.3985,1.17578 -0.029,0.0141 -3.131,1.53246 -3.7226,1.82226 0.7086,-1.44672 3.0039,-6.13086 3.0039,-6.13086 0,0 -2.2917,1.12337 -2.3106,1.13282 -0.029,0.0145 -3.195,1.56468 -3.8125,1.86718 0.7079,-1.44497 3.004,-6.13281 3.004,-6.13281 0,0 -2.2037,1.07687 -2.2188,1.08594 -0.031,0.0149 -3.2665,1.60082 -3.9141,1.91797 0.7086,-1.44653 3.0079,-6.14258 3.0079,-6.14258 0,0 -2.1081,1.03232 -2.127,1.04102 -0.031,0.0152 -3.3327,1.63209 -4.0078,1.96289 0.7079,-1.44509 3.0098,-6.14453 3.0098,-6.14453 0,0 -2.022,0.98777 -2.0372,0.99609 -0.032,0.0156 -3.4044,1.66747 -4.1113,2.01367 0.7086,-1.44681 3.0137,-6.1543 3.0137,-6.1543 0,0 -1.9263,0.94481 -1.9414,0.95313 -0.033,0.016 -3.4733,1.70115 -4.211,2.0625 0.7096,-1.44858 3.0196,-6.16406 3.0196,-6.16406 0,0 -1.8365,0.90064 -1.8516,0.9082 -0.033,0.0164 -3.5389,1.73326 -4.3066,2.10937 0.7092,-1.44788 3.0215,-6.16796 3.0215,-6.16796 0,0 -1.7466,0.85572 -1.7618,0.86328 -0.034,0.0167 -3.6015,1.76388 -4.3984,2.15429 0.7088,-1.44696 3.0234,-6.17187 3.0234,-6.17187 0,0 -1.6548,0.81118 -1.6699,0.81836 -0.035,0.0171 -3.6713,1.79824 -4.5019,2.20508 0.7092,-1.44796 3.0273,-6.17969 3.0273,-6.17969 0,0 -1.565,0.76506 -1.5801,0.77148 -0.035,0.0174 -3.7357,1.82961 -4.5976,2.25196 0.7091,-1.44777 3.0293,-6.18555 3.0293,-6.18555 0,0 -1.4712,0.72209 -1.4864,0.72852 -0.036,0.0177 -3.7992,1.86086 -4.6933,2.29882 0.7088,-1.44709 3.0312,-6.18945 3.0312,-6.18945 0,0 -1.3832,0.67559 -1.3945,0.68164 -0.037,0.0182 -3.8652,1.89315 -4.793,2.34766 0.7092,-1.44792 3.0352,-6.19727 3.0352,-6.19727 0,0 -1.2914,0.633 -1.3027,0.63867 -0.038,0.0186 -3.9307,1.92519 -4.8926,2.39649 0.7096,-1.44886 3.039,-6.20508 3.039,-6.20508 l -1.2089,0.59375 c -0.039,0.019 -3.9953,1.957 -4.9922,2.44531 0.71,-1.44965 3.0429,-6.21289 3.0429,-6.21289 l -1.1191,0.54883 c -0.039,0.0193 -4.0586,1.98886 -5.0899,2.49414 0.71,-1.44967 3.045,-6.21875 3.045,-6.21875 l -1.0254,0.50195 c -0.04,0.0197 -4.1214,2.01876 -5.1875,2.54102 0.7098,-1.44918 3.0488,-6.22266 3.0488,-6.22266 l -0.9336,0.45703 c -0.041,0.0201 -4.1849,2.04994 -5.2871,2.58985 0.71,-1.44975 3.0508,-6.23047 3.0508,-6.23047 l -0.8399,0.41211 c -0.042,0.0204 -4.248,2.08089 -5.3867,2.63867 0.7102,-1.44994 3.0547,-6.23633 3.0547,-6.23633 l -0.748,0.36719 c -0.042,0.0208 -4.3098,2.1101 -5.4844,2.68555 0.7103,-1.45022 3.0586,-6.24219 3.0586,-6.24219 l -0.6543,0.32031 c -0.043,0.0212 -4.3729,2.14215 -5.586,2.73633 0.7103,-1.45017 3.0606,-6.24805 3.0606,-6.24805 l -0.5625,0.27344 c -0.044,0.0216 -4.434,2.17095 -5.6836,2.7832 0.7103,-1.45022 3.0645,-6.2539 3.0645,-6.2539 l -0.4688,0.23047 c -0.045,0.0219 -4.4939,2.20139 -5.7812,2.83203 0.7104,-1.45024 3.0664,-6.25977 3.0664,-6.25977 l -0.377,0.18359 c -0.045,0.0223 -4.5562,2.231 -5.8828,2.88086 0.7107,-1.45108 3.0703,-6.26757 3.0703,-6.26757 l -0.2832,0.13867 c -0.046,0.0227 -4.6143,2.26134 -5.9785,2.92969 0.7107,-1.45107 3.0723,-6.27344 3.0723,-6.27344 l -0.1895,0.0918 c -0.047,0.0231 -4.6756,2.29064 -6.0801,2.97852 0.7109,-1.45106 3.0762,-6.2793 3.0762,-6.2793 l -0.1,0.0469 c -0.047,0.0234 -4.7335,2.31877 -6.1758,3.02539 0.7105,-1.45037 3.0781,-6.2832 3.0781,-6.2832 z m -240.7363,225.99218 c 0.4455,0.43404 0.8882,0.87094 1.332,1.30664 0.6121,-0.61206 0.712,-0.71196 1.3223,-1.32226 -0.4195,-0.0461 -0.8436,-0.0742 -1.2754,-0.0742 v 0 c -0.4658,0 -0.9237,0.0364 -1.375,0.0898 z m 15.6133,11.24024 c 0.1125,0.36012 0.2059,0.72721 0.2832,1.10156 -0.2488,0.24878 -0.2939,0.29388 -0.543,0.54297 0.2174,0.0211 0.4289,0.0607 0.6426,0.0937 0.083,0.55932 0.1406,1.12841 0.1406,1.71094 0,0.0151 -0.01,0.0293 -0.021,0.0293 -2e-4,0.4383 -0.03,0.86936 -0.078,1.29493 -0.098,0.011 -0.1937,0.0314 -0.291,0.0449 -0.5752,-0.61354 -1.1522,-1.22535 -1.7305,-1.83594 0.6157,-0.61565 0.7241,-0.72412 1.3379,-1.33789 -0.3664,-0.0355 -0.7376,-0.0545 -1.1133,-0.0547 0,-0.0491 -0.043,-0.0918 -0.096,-0.0918 -0.011,0 -0.021,0.002 -0.031,0.002 0.6925,-0.69252 0.8098,-0.80978 1.5,-1.5 z m 3.1933,3.21679 c 0.1101,0.35233 0.203,0.71218 0.2793,1.07813 -0.2608,0.26088 -0.309,0.30908 -0.5703,0.57031 0.2285,0.0211 0.4515,0.0594 0.6758,0.0937 0.082,0.55587 0.1387,1.12048 0.1387,1.69922 0,0.0265 -0.019,0.0527 -0.045,0.0527 -3e-4,0.42682 -0.029,0.84697 -0.074,1.26171 -0.1584,0.018 -0.3123,0.0479 -0.4687,0.0723 -0.5441,-0.59081 -1.0839,-1.1853 -1.6309,-1.77344 0.6458,-0.64577 0.7606,-0.76257 1.4043,-1.40625 -0.3517,-0.0325 -0.7062,-0.0527 -1.0664,-0.0527 0,-0.0642 -0.053,-0.11719 -0.1211,-0.11719 0.6832,-0.68317 0.7976,-0.79757 1.4785,-1.47852 z m 3.1954,3.20704 c 0.1075,0.34646 0.1977,0.70083 0.2734,1.06054 -0.2729,0.27293 -0.3243,0.32434 -0.5977,0.59766 0.2398,0.0215 0.4738,0.0577 0.709,0.0937 0.081,0.55199 0.1387,1.1129 0.1387,1.6875 0,0.0416 -0.034,0.0743 -0.072,0.0781 -2e-4,0.41337 -0.026,0.82057 -0.068,1.22266 -0.2338,0.0267 -0.4641,0.0649 -0.6934,0.10547 -0.5068,-0.56012 -1.0161,-1.118 -1.5254,-1.67578 0.6938,-0.69378 0.8204,-0.82039 1.5117,-1.51172 -0.3376,-0.0302 -0.6779,-0.0525 -1.0234,-0.0527 0,-0.0691 -0.057,-0.1218 -0.127,-0.13085 0.682,-0.68194 0.7949,-0.79488 1.4747,-1.47461 z m 3.1874,3.20898 c 0.1062,0.33937 0.1949,0.68695 0.2696,1.03906 -0.2841,0.28405 -0.3386,0.33858 -0.6231,0.62305 0.2502,0.0215 0.495,0.0584 0.7403,0.0957 0.08,0.5475 0.1347,1.10409 0.1347,1.67383 0,0.0529 -0.041,0.0978 -0.09,0.10156 -5e-4,0.40108 -0.022,0.79705 -0.062,1.1875 -0.3264,0.0373 -0.6494,0.0822 -0.9668,0.14649 -0.4643,-0.5223 -0.9339,-1.04024 -1.4004,-1.56055 0.7538,-0.75378 0.8937,-0.89367 1.6445,-1.64453 -0.3237,-0.0278 -0.6495,-0.0486 -0.9804,-0.0488 0,-0.0772 -0.059,-0.13119 -0.1309,-0.14844 0.678,-0.67799 0.7899,-0.78902 1.4648,-1.46484 z m 3.1856,3.20508 c 0.1042,0.33297 0.1898,0.67228 0.2637,1.01758 -0.296,0.296 -0.3539,0.35392 -0.6504,0.65039 0.2619,0.0215 0.5188,0.0568 0.7754,0.0957 0.079,0.543 0.1328,1.09523 0.1328,1.66016 0,0.068 -0.053,0.125 -0.1172,0.125 -2e-4,0.38993 -0.02,0.77442 -0.059,1.15429 -0.4285,0.0494 -0.8472,0.12688 -1.2598,0.22266 -0.4243,-0.48576 -0.8492,-0.971 -1.2754,-1.45508 0.8254,-0.8253 0.981,-0.98098 1.8028,-1.80273 -0.3092,-0.0254 -0.6199,-0.0467 -0.9356,-0.0469 0,-0.0814 -0.06,-0.13935 -0.1347,-0.16406 0.6749,-0.67494 0.7842,-0.78423 1.457,-1.45703 z m 3.1836,3.19922 c 0.1023,0.32644 0.1847,0.66166 0.2578,1 -0.307,0.30702 -0.3682,0.36824 -0.6758,0.67578 0.2724,0.0214 0.54,0.0554 0.8067,0.0957 0.078,0.54039 0.1328,1.08824 0.1328,1.65039 0,0.0794 -0.065,0.14271 -0.1407,0.14649 0,0.37778 -0.022,0.75079 -0.058,1.11914 -0.5437,0.0634 -1.0725,0.17097 -1.5899,0.30859 -0.3808,-0.44367 -0.7583,-0.88973 -1.1406,-1.33203 0.9096,-0.90964 1.0849,-1.083 1.9902,-1.98828 -0.2959,-0.0233 -0.5927,-0.0447 -0.8945,-0.0449 0,-0.0859 -0.061,-0.14838 -0.1387,-0.17969 z m 3.1758,3.20117 c 0.1,0.31953 0.1819,0.64763 0.2539,0.97851 -0.3171,0.31712 -0.3816,0.38155 -0.6992,0.69922 0.2813,0.0211 0.5587,0.0545 0.8339,0.0957 0.078,0.5372 0.1309,1.08185 0.1309,1.64062 0,0.0907 -0.071,0.16614 -0.1582,0.16992 0,0.0857 -0.011,0.16872 -0.014,0.25391 h -2.9531 c 0.9523,-0.95236 1.1787,-1.17874 2.1602,-2.16016 -0.2812,-0.021 -0.5632,-0.0429 -0.8497,-0.043 10e-5,-0.0916 -0.065,-0.15658 -0.1464,-0.19336 0.6688,-0.66883 0.7746,-0.77466 1.4414,-1.44141 z m 3.1777,3.19336 c 0.066,0.21044 0.1158,0.42808 0.168,0.64453 h -0.8125 c 0.1741,-0.1741 0.3461,-0.34613 0.6445,-0.64453 z M 600.12305,1097.5957 c 0.0225,0.02 0.0438,0.042 0.0664,0.06 0.18126,0.2648 0.38312,0.514 0.57617,0.7696 0.007,0.4362 0.0226,0.8707 0.0313,1.3066 -0.19243,0.3636 -0.33825,0.7675 -0.45118,1.1934 -0.074,-1.11 -0.15672,-2.2188 -0.22265,-3.3301 z m 45.16015,133.832 h 0.78907 c 0.11226,0.4746 0.22856,0.9477 0.34179,1.4219 -0.16695,0.2145 -0.31501,0.4512 -0.44922,0.7031 -0.22651,-0.7086 -0.4582,-1.4152 -0.68164,-2.125 z m 2.1875,0 h 1.60352 c -0.52596,0 -1.02599,0.14 -1.48047,0.3907 -0.0402,-0.1305 -0.0829,-0.2602 -0.12305,-0.3907 z m 121.88282,177.0391 0.44921,0.4492 c 0.11875,0.2485 0.23229,0.4999 0.35157,0.7481 -0.27024,-0.3972 -0.53188,-0.7993 -0.80078,-1.1973 z m 3.62695,3.627 1.00195,1.0019 c 0.25394,0.5276 0.50042,1.0593 0.75586,1.5859 -0.5929,-0.8585 -1.17123,-1.7258 -1.75781,-2.5878 z m 3.58594,3.5859 1.58789,1.5879 c 0.38094,0.7906 0.75511,1.5851 1.14062,2.373 -0.92043,-1.3135 -1.82423,-2.6377 -2.72851,-3.9609 z m 3.58593,3.5859 2.16211,2.1621 c 0.48417,1.0012 0.96356,2.0051 1.45508,3.002 -1.21773,-1.7141 -2.42409,-3.4347 -3.61719,-5.1641 z m 3.67969,3.6797 2.62305,2.6231 c 0.58203,1.1998 1.1631,2.4003 1.75586,3.5937 -1.48177,-2.0581 -2.93672,-4.1339 -4.37891,-6.2168 z m 3.65625,3.6563 3.12891,3.1289 c 0.66696,1.3684 1.33704,2.735 2.01758,4.0957 -1.74356,-2.3903 -3.45388,-4.8021 -5.14649,-7.2246 z m 3.67774,3.6777 3.60156,3.6016 c 0.42238,0.8638 0.8416,1.7292 1.26953,2.5898 -0.24775,-0.1353 -0.49663,-0.2686 -0.74414,-0.4043 -1.39581,-1.9167 -2.76444,-3.8497 -4.12695,-5.7871 z m 3.61523,3.6152 1.45898,1.459 c 0.33084,0.3308 0.73011,0.5549 1.16407,0.7051 0.43878,0.6212 0.87225,1.2461 1.31445,1.8652 -0.57894,-0.3113 -1.15676,-0.6257 -1.73437,-0.9394 -0.74002,-1.0262 -1.47272,-2.0575 -2.20313,-3.0899 z m 3.25391,2.3106 c 0.19426,0.028 0.391,0.043 0.59375,0.041 0.60622,0.8681 1.20492,1.7409 1.8164,2.6055 -0.50926,-0.2712 -1.01708,-0.5454 -1.52539,-0.8184 -0.29826,-0.6075 -0.58917,-1.2192 -0.88476,-1.8281 z m 3.18945,2.2011 c 0.31197,0.4492 0.62177,0.8997 0.93555,1.3477 -0.12548,-0.066 -0.25154,-0.131 -0.37696,-0.1973 -0.18588,-0.3836 -0.37379,-0.7661 -0.55859,-1.1504 z"
         transform="matrix(0.26458333,0,0,0.26458333,-125.48809,-60.476189)" />
      <g
         id="g972"
         transform="matrix(1.0409428,0,0,1.0409428,-5.9977653,-9.8558099)">
        <path
           transform="matrix(0.26458333,0,0,0.26458333,-125.48809,-60.476189)"
           d="M 1024,549.71484 A 474.28569,474.28569 0 0 0 549.71484,1024 474.28569,474.28569 0 0 0 1024,1498.2852 474.28569,474.28569 0 0 0 1498.2852,1024 474.28569,474.28569 0 0 0 1024,549.71484 Z m -0.293,17.67383 a 456.61047,456.61047 0 0 1 0.1,0 456.61047,456.61047 0 0 1 0.1934,0 A 456.61047,456.61047 0 0 1 1480.6094,1024 456.61047,456.61047 0 0 1 1024,1480.6113 456.61047,456.61047 0 0 1 567.38867,1024 456.61047,456.61047 0 0 1 1023.707,567.38867 Z M 1024,635.42773 A 388.57141,388.57141 0 0 0 635.42773,1024 388.57141,388.57141 0 0 0 1024,1412.5723 388.57141,388.57141 0 0 0 1412.5723,1024 388.57141,388.57141 0 0 0 1024,635.42773 Z m -0.4844,14.48243 a 374.09049,374.09049 0 0 1 0.3262,0 374.09049,374.09049 0 0 1 0.1582,0 A 374.09049,374.09049 0 0 1 1398.0898,1024 374.09049,374.09049 0 0 1 1024,1398.0898 374.09049,374.09049 0 0 1 649.9082,1024 374.09049,374.09049 0 0 1 1023.5156,649.91016 Z M 1024,709.71484 A 314.28569,314.28569 0 0 0 709.71484,1024 314.28569,314.28569 0 0 0 1024,1338.2852 314.28569,314.28569 0 0 0 1338.2852,1024 314.28569,314.28569 0 0 0 1024,709.71484 Z m -0.1289,11.71094 a 302.57319,302.57319 0 0 1 0.1289,0 A 302.57319,302.57319 0 0 1 1326.5723,1024 302.57319,302.57319 0 0 1 1024,1326.5742 302.57319,302.57319 0 0 1 721.42578,1024 302.57319,302.57319 0 0 1 1023.8711,721.42578 Z M 1024,801.14258 A 222.85713,222.85713 0 0 0 801.14258,1024 222.85713,222.85713 0 0 0 1024,1246.8574 222.85713,222.85713 0 0 0 1246.8574,1024 222.85713,222.85713 0 0 0 1024,801.14258 Z m -0.092,8.30469 v 0 a 214.5519,214.5519 0 0 1 0.09,0 A 214.5519,214.5519 0 0 1 1238.5508,1024 214.5519,214.5519 0 0 1 1024,1238.5527 214.5519,214.5519 0 0 1 809.44727,1024 214.5519,214.5519 0 0 1 1023.9082,809.44727 Z M 1024,884 a 139.99999,139.99999 0 0 0 -140,140 139.99999,139.99999 0 0 0 140,140 139.99999,139.99999 0 0 0 140,-140 139.99999,139.99999 0 0 0 -140,-140 z m -0.057,5.2168 a 134.7826,134.7826 0 0 1 0.057,0 A 134.7826,134.7826 0 0 1 1158.7812,1024 134.7826,134.7826 0 0 1 1024,1158.7832 134.7826,134.7826 0 0 1 889.2168,1024 134.7826,134.7826 0 0 1 1023.9434,889.2168 Z"
           style="fill:#ffffff;fill-opacity:1;stroke-width:3.20241"
           id="path835" />
        <g
           id="g937">
          <path
             id="rect859"
             style="fill:#000000;fill-opacity:1;stroke-width:6.17786"
             d="m 1586.2227,467.17188 -44.9551,22.02148 5.7422,5.74023 c -0.2695,0.15961 -0.5313,0.35318 -0.7715,0.59375 l -522.0039,522.00196 c -0.1926,0.1926 -0.3507,0.4009 -0.4922,0.6133 L 509.66797,504.07031 c -0.24049,-0.24038 -0.50462,-0.43132 -0.77344,-0.59179 l 5.74414,-5.74219 -44.95508,-22.02149 22.01953,44.95508 5.74219,-5.74023 c 0.15957,0.26948 0.35118,0.53126 0.5918,0.77148 L 1014.957,1032.6211 v 728.6504 c 0,0.34 0.052,0.6612 0.1289,0.9648 h -8.1211 l 16.2168,47.3594 16.2168,-47.3594 h -8.1191 c 0.077,-0.3036 0.1269,-0.6248 0.1269,-0.9648 v -730.7403 l 0.8184,-0.8183 c 0.855,0.8549 2.4793,0.6105 3.6406,-0.5508 l 522.0039,-522.0039 c 0.2404,-0.24045 0.4314,-0.50463 0.5918,-0.77343 l 5.7422,5.74218 z"
             transform="matrix(0.26458333,0,0,0.26458333,-125.48809,-60.476189)" />
          <path
             d="m 148.37283,333.74634 a 2.9399648,2.9399648 0 0 1 -2.93997,2.93996 2.9399648,2.9399648 0 0 1 -2.93996,-2.93996 2.9399648,2.9399648 0 0 1 2.93996,-2.93997 2.9399648,2.9399648 0 0 1 2.93997,2.93997"
             style="fill:#666666;fill-opacity:1;stroke-width:2.784"
             id="path891" />
          <path
             d="m 148.37283,311.521 a 2.9399648,2.9399648 0 0 1 -2.93997,2.93996 2.9399648,2.9399648 0 0 1 -2.93996,-2.93996 2.9399648,2.9399648 0 0 1 2.93996,-2.93997 2.9399648,2.9399648 0 0 1 2.93997,2.93997"
             style="fill:#666666;fill-opacity:1;stroke-width:2.784"
             id="circle893" />
          <path
             d="m 148.37283,292.4707 a 2.9399648,2.9399648 0 0 1 -2.93997,2.93997 2.9399648,2.9399648 0 0 1 -2.93996,-2.93997 2.9399648,2.9399648 0 0 1 2.93996,-2.93996 2.9399648,2.9399648 0 0 1 2.93997,2.93996"
             style="fill:#666666;fill-opacity:1;stroke-width:2.784"
             id="circle895" />
          <path
             d="m 148.37283,268.65784 a 2.9399648,2.9399648 0 0 1 -2.93997,2.93996 2.9399648,2.9399648 0 0 1 -2.93996,-2.93996 2.9399648,2.9399648 0 0 1 2.93996,-2.93997 2.9399648,2.9399648 0 0 1 2.93997,2.93997"
             style="fill:#666666;fill-opacity:1;stroke-width:2.784"
             id="circle897" />
          <path
             d="m 148.37283,246.96194 a 2.9399648,2.9399648 0 0 1 -2.93997,2.93997 2.9399648,2.9399648 0 0 1 -2.93996,-2.93997 2.9399648,2.9399648 0 0 1 2.93996,-2.93996 2.9399648,2.9399648 0 0 1 2.93997,2.93996"
             style="fill:#666666;fill-opacity:1;stroke-width:2.784"
             id="circle899" />
          <path
             d="m 174.82713,185.75185 a 2.9399648,2.9399648 0 0 1 -2.93997,2.93996 2.9399648,2.9399648 0 0 1 -2.93996,-2.93996 2.9399648,2.9399648 0 0 1 2.93996,-2.93997 2.9399648,2.9399648 0 0 1 2.93997,2.93997"
             style="fill:#666666;fill-opacity:1;stroke-width:2.784"
             id="circle901" />
          <path
             d="m 190.32876,170.25021 a 2.9399648,2.9399648 0 0 1 -2.93997,2.93997 2.9399648,2.9399648 0 0 1 -2.93996,-2.93997 2.9399648,2.9399648 0 0 1 2.93996,-2.93996 2.9399648,2.9399648 0 0 1 2.93997,2.93996"
             style="fill:#666666;fill-opacity:1;stroke-width:2.784"
             id="circle903" />
          <path
             d="m 206.89947,153.41762 a 2.9399648,2.9399648 0 0 1 -2.93997,2.93996 2.9399648,2.9399648 0 0 1 -2.93996,-2.93996 2.9399648,2.9399648 0 0 1 2.93996,-2.93997 2.9399648,2.9399648 0 0 1 2.93997,2.93997"
             style="fill:#666666;fill-opacity:1;stroke-width:2.784"
             id="circle905" />
          <path
             d="m 220.79748,139.51961 a 2.9399648,2.9399648 0 0 1 -2.93997,2.93996 2.9399648,2.9399648 0 0 1 -2.93996,-2.93996 2.9399648,2.9399648 0 0 1 2.93996,-2.93997 2.9399648,2.9399648 0 0 1 2.93997,2.93997"
             style="fill:#666666;fill-opacity:1;stroke-width:2.784"
             id="circle907" />
          <path
             d="m 236.29911,123.4888 a 2.9399648,2.9399648 0 0 1 -2.93996,2.93996 2.9399648,2.9399648 0 0 1 -2.93997,-2.93996 2.9399648,2.9399648 0 0 1 2.93997,-2.93996 2.9399648,2.9399648 0 0 1 2.93996,2.93996"
             style="fill:#666666;fill-opacity:1;stroke-width:2.784"
             id="circle909" />
          <path
             d="m 122.44229,186.01912 a 2.9399648,2.9399648 0 0 1 -2.93996,2.93996 2.9399648,2.9399648 0 0 1 -2.93997,-2.93996 2.9399648,2.9399648 0 0 1 2.93997,-2.93997 2.9399648,2.9399648 0 0 1 2.93996,2.93997"
             style="fill:#666666;fill-opacity:1;stroke-width:2.784"
             id="circle911" />
          <path
             d="m 106.41148,169.98833 a 2.9399648,2.9399648 0 0 1 -2.93996,2.93996 2.9399648,2.9399648 0 0 1 -2.93997,-2.93996 2.9399648,2.9399648 0 0 1 2.93997,-2.93997 2.9399648,2.9399648 0 0 1 2.93996,2.93997"
             style="fill:#666666;fill-opacity:1;stroke-width:2.784"
             id="circle913" />
          <path
             d="m 89.840775,153.68489 a 2.9399648,2.9399648 0 0 1 -2.939965,2.93997 2.9399648,2.9399648 0 0 1 -2.939965,-2.93997 2.9399648,2.9399648 0 0 1 2.939965,-2.93996 2.9399648,2.9399648 0 0 1 2.939965,2.93996"
             style="fill:#666666;fill-opacity:1;stroke-width:2.784"
             id="circle915" />
          <path
             d="m 76.21003,139.52498 a 2.9399648,2.9399648 0 0 1 -2.939965,2.93996 2.9399648,2.9399648 0 0 1 -2.939964,-2.93996 2.9399648,2.9399648 0 0 1 2.939964,-2.93997 2.9399648,2.9399648 0 0 1 2.939965,2.93997"
             style="fill:#666666;fill-opacity:1;stroke-width:2.784"
             id="circle917" />
          <path
             d="m 60.441128,123.75607 a 2.9399648,2.9399648 0 0 1 -2.939965,2.93997 2.9399648,2.9399648 0 0 1 -2.939964,-2.93997 2.9399648,2.9399648 0 0 1 2.939964,-2.93996 2.9399648,2.9399648 0 0 1 2.939965,2.93996"
             style="fill:#666666;fill-opacity:1;stroke-width:2.784"
             id="circle919" />
        </g>
      </g>
    </g>
  </g>
</svg>
