<?xml version="1.0" encoding="UTF-8" standalone="no"?>
<svg
   xmlns:dc="http://purl.org/dc/elements/1.1/"
   xmlns:cc="http://creativecommons.org/ns#"
   xmlns:rdf="http://www.w3.org/1999/02/22-rdf-syntax-ns#"
   xmlns:svg="http://www.w3.org/2000/svg"
   xmlns="http://www.w3.org/2000/svg"
   xmlns:sodipodi="http://sodipodi.sourceforge.net/DTD/sodipodi-0.dtd"
   xmlns:inkscape="http://www.inkscape.org/namespaces/inkscape"
   width="67.733337mm"
   height="67.733337mm"
   viewBox="0 0 67.733339 67.733338"
   version="1.1"
   id="svg27864"
   inkscape:version="1.0 (4035a4fb49, 2020-05-01)"
   sodipodi:docname="annunci_scalable.svg">
  <defs
     id="defs27858">
    <clipPath
       id="clipPath1698-3"
       clipPathUnits="userSpaceOnUse">
      <rect
         ry="64.06395"
         rx="64.06395"
         y="19470.865"
         x="-29147.879"
         height="772.966"
         width="1200"
         id="rect1700-6"
         style="opacity:0.604;fill:#26a10d;fill-opacity:0.985;stroke:#d32f2f;stroke-width:0;stroke-linecap:round;stroke-linejoin:bevel;stroke-miterlimit:4;stroke-dasharray:none;stroke-dashoffset:0;stroke-opacity:0.94;paint-order:fill markers stroke" />
    </clipPath>
    <clipPath
       clipPathUnits="userSpaceOnUse"
       id="clipPath29374">
      <rect
         y="7264.1074"
         x="-18040.27"
         height="2048"
         width="2048"
         id="rect29376"
         style="opacity:1;fill:#014c77;fill-opacity:1;stroke:none;stroke-width:4.4;stroke-linecap:round;stroke-linejoin:bevel;stroke-miterlimit:4;stroke-dasharray:none;stroke-dashoffset:0;stroke-opacity:1;paint-order:fill markers stroke" />
    </clipPath>
    <clipPath
       clipPathUnits="userSpaceOnUse"
       id="clipPath1237">
      <g
         id="g1245">
        <rect
           style="opacity:1;fill:#e1f5fe;fill-opacity:1;stroke:none;stroke-width:4.4;stroke-linecap:round;stroke-linejoin:bevel;stroke-miterlimit:4;stroke-dasharray:none;stroke-dashoffset:0;stroke-opacity:1;paint-order:fill markers stroke"
           id="rect1239"
           width="1083.2383"
           height="98.791946"
           x="-17557.889"
           y="8911.8291"
           rx="28.853754"
           ry="28.853754" />
        <rect
           style="opacity:1;fill:#e1f5fe;fill-opacity:1;stroke:none;stroke-width:4.4;stroke-linecap:round;stroke-linejoin:bevel;stroke-miterlimit:4;stroke-dasharray:none;stroke-dashoffset:0;stroke-opacity:1;paint-order:fill markers stroke"
           id="rect1241"
           width="713.43213"
           height="66.819221"
           x="-17372.984"
           y="8984.541"
           rx="28.853802"
           ry="28.8538" />
        <path
           inkscape:connector-curvature="0"
           style="opacity:1;fill:#e1f5fe;fill-opacity:1;stroke:none;stroke-width:4.4;stroke-linecap:round;stroke-linejoin:bevel;stroke-miterlimit:4;stroke-dasharray:none;stroke-dashoffset:0;stroke-opacity:1;paint-order:fill markers stroke"
           d="m -17324.329,8432.3038 c -18.32,0 -33.343,14.4272 -35.635,33.2188 h -0.312 v 5.0019 30.5742 132.9981 c 0,163.6929 123.952,295.4765 277.918,295.4765 h 132.179 c 122.164,0 225.42,-82.9726 262.867,-199.0156 a 129.26388,129.26388 0 0 0 15.041,1.0391 129.26388,129.26388 0 0 0 129.264,-129.2637 129.26388,129.26388 0 0 0 -129.256,-129.2637 v -2.5449 -5.0019 h -0.314 c -2.292,-18.7916 -17.314,-33.2188 -35.633,-33.2188 z m 652.066,103.461 a 66.567536,66.567536 0 0 1 66.561,66.5683 66.567536,66.567536 0 0 1 -66.569,66.5664 66.567536,66.567536 0 0 1 -1.892,-0.094 c 1.242,-11.3827 1.9,-22.9607 1.9,-34.709 z"
           id="path1243" />
      </g>
    </clipPath>
  </defs>
  <sodipodi:namedview
     id="base"
     pagecolor="#ffffff"
     bordercolor="#666666"
     borderopacity="1.0"
     inkscape:pageopacity="0.0"
     inkscape:pageshadow="2"
     inkscape:zoom="0.32"
     inkscape:cx="816.48709"
     inkscape:cy="635.19234"
     inkscape:document-units="mm"
     inkscape:current-layer="layer1"
     inkscape:document-rotation="0"
     showgrid="false"
     fit-margin-top="0"
     fit-margin-left="0"
     fit-margin-right="0"
     fit-margin-bottom="0"
     inkscape:window-width="1336"
     inkscape:window-height="1029"
     inkscape:window-x="576"
     inkscape:window-y="24"
     inkscape:window-maximized="0"
     inkscape:snap-global="false" />
  <metadata
     id="metadata27861">
    <rdf:RDF>
      <cc:Work
         rdf:about="">
        <dc:format>image/svg+xml</dc:format>
        <dc:type
           rdf:resource="http://purl.org/dc/dcmitype/StillImage" />
        <dc:title></dc:title>
        <cc:license
           rdf:resource="http://creativecommons.org/licenses/by-sa/4.0/" />
      </cc:Work>
      <cc:License
         rdf:about="http://creativecommons.org/licenses/by-sa/4.0/">
        <cc:permits
           rdf:resource="http://creativecommons.org/ns#Reproduction" />
        <cc:permits
           rdf:resource="http://creativecommons.org/ns#Distribution" />
        <cc:requires
           rdf:resource="http://creativecommons.org/ns#Notice" />
        <cc:requires
           rdf:resource="http://creativecommons.org/ns#Attribution" />
        <cc:permits
           rdf:resource="http://creativecommons.org/ns#DerivativeWorks" />
        <cc:requires
           rdf:resource="http://creativecommons.org/ns#ShareAlike" />
      </cc:License>
    </rdf:RDF>
  </metadata>
  <g
     inkscape:label="Livello 1"
     inkscape:groupmode="layer"
     id="layer1"
     transform="translate(3830.9482,3900.7603)">
    <g
       id="g29309"
       transform="matrix(0.03307292,0,0,0.03307292,-4055.9067,-4097.5638)">
      <rect
         style="fill:#45b29b;fill-opacity:1;stroke:none;stroke-width:4.8;stroke-linecap:round;stroke-linejoin:bevel;stroke-miterlimit:4;stroke-dasharray:none;stroke-dashoffset:0;stroke-opacity:1;paint-order:fill markers stroke"
         id="rect5572-7-5-7"
         width="2048"
         height="2048"
         x="6801.8955"
         y="5950.5947"
         rx="1.2997301"
         ry="1.2997299" />
      <path
         inkscape:connector-curvature="0"
         style="fill:#000001;fill-opacity:0.145098;stroke:none;stroke-width:4.8;stroke-linecap:round;stroke-linejoin:bevel;stroke-miterlimit:4;stroke-dasharray:none;stroke-dashoffset:0;stroke-opacity:1;paint-order:fill markers stroke"
         d="m 8305.099,6346.135 c -0.04,9e-4 -0.07,0.032 -0.07,0.07 -20.671,0 -37.31,15.8388 -37.31,35.5118 v -1.5801 -0.8184 c 0,-0.1076 -0.05,-0.1699 -0.11,-0.1679 v 0 c -0.02,0 -0.05,0.01 -0.07,0.025 l -378.668,241.209 c 0,6e-4 -0.758,0.4823 -0.758,0.4824 -0.101,0.06 -0.179,0.2316 -0.179,0.375 v 2.625 h -0.202 v -1.6484 -0.8164 c 0,-0.7185 -0.578,-1.2967 -1.296,-1.2969 h -340.854 -0.684 v 0 c -0.415,0 -0.766,0.2047 -1.003,0.5058 v 5.0235 c -0.02,0.01 -0.269,0.1054 -0.293,0.1152 v -4.3476 c 0,-0.3039 0.119,-0.5704 0.293,-0.7911 v -0.5468 l -0.206,0.082 c -0.2,0.079 -102.5,40.5644 -102.5,40.5644 v 0.1915 16.8535 h -0.07 -32.408 v 0 c -0.05,0 -0.09,0.025 -0.09,0.055 -24.74,2e-4 -44.656,12.372 -44.656,27.7402 v 0.2129 h -0.03 -19.084 c -0.03,0 -0.05,0.02 -0.05,0.045 -14.569,3e-4 -26.299,10.036 -26.299,22.5019 v 0.3906 195.125 c 0,0.025 0.02,0.044 0.05,0.045 0,7.3969 4.129,13.9385 10.531,18.0351 1.369,1.4328 2.942,2.7182 4.682,3.8223 1.339,1.3933 2.871,2.6461 4.562,3.7265 1.35,1.4134 2.898,2.6827 4.61,3.7754 1.356,1.4187 2.913,2.6928 4.634,3.7871 1.337,1.3941 2.868,2.645 4.559,3.7246 1.355,1.4225 2.909,2.6987 4.633,3.795 1.345,1.4053 2.889,2.6652 4.595,3.75 1.342,1.4019 2.881,2.6598 4.583,3.7422 1.335,1.3972 2.869,2.653 4.564,3.7324 1.343,1.4055 2.884,2.6664 4.59,3.75 1.346,1.4069 2.892,2.6688 4.601,3.7519 1.343,1.3999 2.886,2.6528 4.59,3.7305 1.327,1.3806 2.85,2.6174 4.529,3.6836 1.325,1.3837 2.841,2.6246 4.52,3.6934 1.339,1.4051 2.878,2.6632 4.582,3.7441 1.326,1.3881 2.849,2.6328 4.533,3.7031 1.334,1.3991 2.867,2.6524 4.565,3.7285 1.321,1.3838 2.839,2.6227 4.517,3.6895 1.331,1.3969 2.861,2.6487 4.555,3.7226 1.323,1.3871 2.844,2.6299 4.527,3.6973 1.318,1.3822 2.832,2.623 4.508,3.6875 1.323,1.3904 2.846,2.6364 4.531,3.7051 1.324,1.3897 2.849,2.6339 4.536,3.7012 1.309,1.3731 2.813,2.6045 4.478,3.6621 1.339,1.4088 2.885,2.6657 4.598,3.7422 1.295,1.3526 2.779,2.5672 4.422,3.6113 1.323,1.395 2.849,2.6423 4.541,3.7109 1.307,1.3721 2.809,2.6018 4.474,3.6563 1.306,1.3733 2.809,2.6029 4.473,3.6582 1.316,1.386 2.834,2.626 4.516,3.6875 1.297,1.3633 2.79,2.5846 4.443,3.6328 1.311,1.3823 2.824,2.6171 4.5,3.6758 1.311,1.3783 2.821,2.6112 4.496,3.666 1.302,1.3671 2.802,2.5888 4.463,3.6367 1.291,1.3583 2.777,2.5759 4.424,3.6191 1.306,1.3788 2.812,2.6118 4.484,3.6661 1.299,1.3667 2.796,2.5885 4.455,3.6347 1.292,1.3607 2.782,2.5764 4.432,3.6192 1.292,1.3635 2.781,2.5847 4.433,3.6289 1.293,1.3646 2.784,2.5847 4.438,3.6289 1.293,1.3648 2.788,2.5854 4.443,3.6289 1.299,1.37 2.799,2.5935 4.463,3.6387 1.281,1.348 2.76,2.5536 4.397,3.5859 1.288,1.361 2.776,2.5776 4.427,3.6172 1.27,1.3397 2.746,2.521 4.368,3.5488 1.272,1.3531 2.754,2.5491 4.384,3.5859 1.284,1.369 2.783,2.576 4.434,3.6211 1.27,1.35 2.751,2.5424 4.379,3.5762 1.273,1.3581 2.76,2.5575 4.396,3.5957 1.28,1.365 2.775,2.5684 4.422,3.6094 1.266,1.3459 2.743,2.533 4.367,3.5625 1.269,1.3531 2.75,2.5464 4.381,3.5801 1.269,1.3534 2.751,2.547 4.383,3.58 1.267,1.3517 2.747,2.5447 4.377,3.5762 1.265,1.3485 2.741,2.5394 4.367,3.5684 1.259,1.3434 2.731,2.5288 4.35,3.5547 1.27,1.3577 2.756,2.5549 4.394,3.5879 1.257,1.3383 2.724,2.5199 4.34,3.541 1.257,1.3419 2.724,2.5255 4.342,3.5488 1.257,1.3432 2.725,2.5292 4.344,3.5527 1.258,1.345 2.73,2.5312 4.353,3.5547 1.252,1.3366 2.714,2.5149 4.326,3.5332 1.255,1.3422 2.723,2.5239 4.342,3.545 1.148,1.2272 2.476,2.319 3.932,3.2792 6.441,39.2186 12.892,78.4354 19.33,117.6543 13.166,80.103 26.309,160.2086 39.492,240.3086 4.238,25.723 8.488,51.4441 12.756,77.1621 h 3.963 c 0.208,1.2545 0.415,2.5093 0.623,3.7637 h 3.959 c 0.208,1.2525 0.413,2.5054 0.621,3.7578 h 3.953 c 0.208,1.2512 0.414,2.5027 0.621,3.7539 h 3.951 c 0.208,1.2506 0.414,2.5014 0.621,3.752 h 3.948 c 0.207,1.2486 0.412,2.4975 0.619,3.7461 h 3.943 c 0.207,1.2479 0.412,2.4962 0.619,3.7441 h 3.938 c 0.207,1.2467 0.412,2.4936 0.619,3.7403 h 3.936 c 0.206,1.2446 0.41,2.4897 0.617,3.7343 h 3.931 c 0.207,1.2441 0.411,2.4884 0.618,3.7325 h 3.925 c 0.206,1.2427 0.41,2.4857 0.618,3.7285 h 3.923 c 0.206,1.2414 0.41,2.4832 0.616,3.7246 h 3.919 c 0.206,1.2401 0.41,2.4806 0.616,3.7207 h 3.914 c 0.205,1.2388 0.409,2.4779 0.615,3.7168 h 3.912 c 0.205,1.2375 0.408,2.4754 0.613,3.7129 h 3.907 c 0.205,1.2368 0.408,2.4741 0.613,3.7109 h 3.902 c 0.205,1.235 0.409,2.4701 0.614,3.7051 h 3.9 c 0.205,1.2336 0.407,2.4676 0.611,3.7012 h 3.897 c 0.204,1.2329 0.406,2.4663 0.611,3.6992 h 3.891 c 0.204,1.2311 0.407,2.4623 0.611,3.6933 h 3.889 c 0.204,1.2303 0.405,2.4612 0.609,3.6914 h 3.883 c 0.204,1.2291 0.405,2.4585 0.609,3.6875 h 3.879 c 0.204,1.2278 0.406,2.4559 0.61,3.6836 h 3.877 c 0.203,1.2258 0.404,2.452 0.607,3.6778 h 3.873 c 0.203,1.2251 0.404,2.4506 0.607,3.6758 h 3.866 c 0.203,1.2238 0.404,2.448 0.607,3.6718 h 3.867 c 0.203,1.2226 0.403,2.4455 0.606,3.668 h 3.859 c 0.203,1.2219 0.403,2.4442 0.606,3.666 h 3.855 c 0.202,1.22 0.403,2.4402 0.606,3.6602 h 3.853 c 0.202,1.2186 0.401,2.4376 0.604,3.6562 h 3.847 c 0.202,1.2174 0.402,2.435 0.604,3.6524 h 3.843 c 0.202,1.2166 0.402,2.4337 0.604,3.6504 h 3.84 c 0.201,1.2146 0.4,2.4298 0.601,3.6445 h 3.838 c 0.202,1.214 0.4,2.4285 0.602,3.6426 h 3.832 c 0.201,1.2127 0.4,2.4259 0.601,3.6386 h 3.829 c 0.2,1.2108 0.398,2.4221 0.599,3.6328 h 3.826 c 0.201,1.2102 0.399,2.4208 0.6,3.6309 h 3.82 c 0.201,1.2089 0.399,2.4181 0.6,3.627 h 3.814 c 0.201,1.2076 0.4,2.4154 0.6,3.623 h 3.812 c 0.201,1.2062 0.398,2.4129 0.598,3.6191 h 3.809 c 0.2,1.205 0.397,2.4103 0.597,3.6153 h 3.805 c 0.2,1.2037 0.398,2.4076 0.598,3.6113 h 3.798 c 0.201,1.2024 0.397,2.4051 0.596,3.6074 h 3.799 c 0.199,1.2017 0.396,2.4038 0.596,3.6055 h 3.791 c 0.199,1.1998 0.396,2.3998 0.595,3.5996 h 3.788 c 0.198,1.1992 0.396,2.3985 0.595,3.5977 h 3.785 c 0.199,1.1971 0.396,2.3946 0.594,3.5918 h 3.779 c 0.199,1.1965 0.396,2.3933 0.594,3.5898 h 3.778 c 0.198,1.1945 0.393,2.3895 0.591,3.584 h 3.774 c 0.198,1.1939 0.393,2.3882 0.592,3.582 h 3.767 c 0.198,1.1926 0.394,2.3855 0.592,3.5781 h 3.764 c 0.197,1.1914 0.394,2.3829 0.591,3.5743 h 3.762 c 0.198,1.1899 0.393,2.3803 0.59,3.5703 h 3.756 c 0.197,1.1887 0.392,2.3777 0.59,3.5664 h 3.752 c 0.197,1.1874 0.392,2.3751 0.589,3.5625 h 3.75 c 0.198,1.186 0.392,2.3725 0.588,3.5586 h 3.745 c 0.196,1.1848 0.391,2.3699 0.587,3.5547 h 3.741 c 0.196,1.1841 0.391,2.3686 0.588,3.5527 h 3.738 c 0.196,1.1822 0.39,2.3647 0.586,3.5469 h 3.732 c 0.196,1.1815 0.39,2.3634 0.586,3.5449 h 3.729 c 0.195,1.1796 0.39,2.3594 0.586,3.5391 h 3.724 c 0.196,1.1788 0.389,2.3582 0.584,3.5371 h 3.721 c 0.195,1.177 0.389,2.3542 0.584,3.5312 h 3.717 c 0.195,1.1764 0.388,2.353 0.584,3.5293 h 3.714 c 0.195,1.175 0.388,2.3504 0.583,3.5254 h 3.709 c 0.193,1.1737 0.387,2.3478 0.582,3.5215 h 3.705 c 0.194,1.1724 0.387,2.3451 0.582,3.5176 h 3.701 c 0.194,1.171 0.386,2.3426 0.58,3.5136 h 3.697 c 0.194,1.1698 0.386,2.34 0.58,3.5098 h 3.694 c 0.193,1.1685 0.386,2.3373 0.58,3.5059 h 3.687 c 0.194,1.1679 0.386,2.336 0.58,3.5039 h 3.686 c 0.193,1.1659 0.384,2.3321 0.578,3.498 h 3.682 c 0.193,1.1646 0.384,2.3295 0.578,3.4942 h 3.675 c 0.194,1.164 0.385,2.3282 0.579,3.4921 h 3.673 c 0.193,1.162 0.384,2.3244 0.577,3.4864 h 3.67 c 0.192,1.1613 0.383,2.3229 0.576,3.4844 h 3.664 c 0.192,1.1599 0.383,2.3203 0.576,3.4804 h 3.662 c 0.192,1.1581 0.382,2.3165 0.574,3.4746 h 3.658 c 0.192,1.1575 0.383,2.3152 0.575,3.4727 h 3.652 c 0.192,1.1562 0.382,2.3126 0.574,3.4687 h 3.651 c 0.191,1.1548 0.38,2.3101 0.572,3.4649 h 3.644 c 0.192,1.1535 0.381,2.3074 0.573,3.4609 h 3.642 c 0.191,1.1523 0.381,2.3048 0.573,3.457 h 3.636 c 0.191,1.1516 0.379,2.3036 0.571,3.4551 v 0 h 3.632 c 0.191,1.1497 0.38,2.2996 0.571,3.4492 h 3.629 c 0.19,1.1484 0.379,2.297 0.57,3.4454 h 3.627 c 0.19,1.1476 0.378,2.2957 0.568,3.4433 h 3.621 c 0.19,1.1457 0.378,2.2918 0.569,3.4375 h 3.617 c 0.19,1.1451 0.378,2.2905 0.568,3.4356 h 3.615 c 0.19,1.1431 0.377,2.2865 0.567,3.4297 h 3.611 c 0.19,1.1423 0.377,2.2852 0.567,3.4277 h 3.605 c 0.189,1.1412 0.377,2.2826 0.566,3.4238 h 3.602 c 0.189,1.1398 0.375,2.2801 0.564,3.4199 h 3.6 c 0.189,1.1386 0.376,2.2775 0.564,3.416 h 3.594 c 0.189,1.1374 0.376,2.2749 0.565,3.4122 h 3.59 c 0.188,1.1359 0.374,2.2723 0.562,3.4082 h 3.588 c 0.188,1.1346 0.374,2.2696 0.562,3.4043 h 3.582 c 0.188,1.1333 0.375,2.267 0.563,3.4003 h 3.576 c 0.188,1.1329 0.375,2.2658 0.563,3.3985 h 3.576 c 0.187,1.1307 0.373,2.2618 0.56,3.3926 h 3.569 c 0.187,1.1295 0.373,2.2592 0.56,3.3886 h 3.567 c 0.187,1.1289 0.373,2.2579 0.56,3.3868 h 3.563 c 0.187,1.1274 0.371,2.2553 0.558,3.3828 h 3.559 c 0.187,1.1255 0.372,2.2514 0.559,3.3769 h 3.554 c 0.187,1.125 0.372,2.2501 0.559,3.375 h 3.551 c 0.186,1.1236 0.37,2.2476 0.556,3.3711 h 3.547 c 0.186,1.1223 0.37,2.2449 0.557,3.3672 h 3.541 c 0.186,1.121 0.37,2.2423 0.556,3.3633 h 3.539 c 0.186,1.1196 0.369,2.2397 0.555,3.3594 h 3.531 c 0.186,1.1183 0.369,2.2371 0.555,3.3554 h 3.535 c 0,0.028 0,0.056 0.01,0.084 h 685.762 c 0.72,0 1.298,-0.5788 1.298,-1.2988 V 6784.4065 c -0.802,-0.6909 -1.641,-1.3452 -2.523,-1.9473 -1.22,-1.2094 -2.555,-2.311 -3.99,-3.291 -1.212,-1.2015 -2.537,-2.2977 -3.961,-3.2734 -1.233,-1.225 -2.583,-2.3408 -4.035,-3.332 -1.219,-1.2066 -2.551,-2.3076 -3.983,-3.2871 -1.231,-1.2207 -2.577,-2.3331 -4.025,-3.3223 -1.22,-1.2077 -2.553,-2.3077 -3.985,-3.2891 -1.232,-1.2225 -2.58,-2.3365 -4.029,-3.3281 -1.237,-1.2256 -2.59,-2.3424 -4.045,-3.3359 -1.226,-1.2128 -2.566,-2.319 -4.006,-3.3047 -1.225,-1.2143 -2.563,-2.3229 -4.002,-3.3106 -1.248,-1.2386 -2.614,-2.3675 -4.084,-3.3711 -1.23,-1.2156 -2.574,-2.3256 -4.017,-3.3144 -1.24,-1.2269 -2.593,-2.347 -4.049,-3.3438 -1.237,-1.2235 -2.589,-2.3389 -4.041,-3.334 -1.241,-1.228 -2.594,-2.349 -4.051,-3.3476 -1.246,-1.2326 -2.608,-2.3557 -4.07,-3.3574 -1.238,-1.2233 -2.59,-2.3417 -4.041,-3.3379 -1.251,-1.2379 -2.618,-2.3669 -4.086,-3.3731 -1.245,-1.2299 -2.605,-2.3522 -4.064,-3.3535 -1.241,-1.2265 -2.595,-2.3478 -4.049,-3.3476 -1.261,-1.2476 -2.638,-2.3866 -4.117,-3.4004 -1.247,-1.2292 -2.606,-2.3534 -4.065,-3.3555 -1.255,-1.2404 -2.626,-2.3729 -4.098,-3.3828 -1.248,-1.2323 -2.61,-2.3581 -4.072,-3.3633 -1.265,-1.2506 -2.649,-2.3907 -4.133,-3.4082 -1.252,-1.2341 -2.617,-2.3621 -4.082,-3.3691 -1.263,-1.2471 -2.641,-2.3863 -4.121,-3.4024 -1.257,-1.2395 -2.628,-2.3713 -4.099,-3.3828 -1.264,-1.2472 -2.642,-2.3871 -4.121,-3.4043 -1.261,-1.2436 -2.637,-2.3793 -4.112,-3.3945 -1.266,-1.2494 -2.647,-2.3907 -4.129,-3.4102 -1.27,-1.2528 -2.657,-2.3979 -4.144,-3.4199 -1.266,-1.2467 -2.647,-2.386 -4.127,-3.4043 -1.27,-1.2515 -2.654,-2.396 -4.139,-3.418 -1.268,-1.2496 -2.65,-2.3927 -4.133,-3.414 -1.275,-1.2568 -2.665,-2.4052 -4.156,-3.4317 -1.268,-1.2489 -2.648,-2.3922 -4.129,-3.414 -1.291,-1.2735 -2.7,-2.4367 -4.213,-3.4746 -1.263,-1.24 -2.637,-2.3743 -4.109,-3.3907 -1.29,-1.2716 -2.696,-2.4348 -4.205,-3.4726 -1.268,-1.2458 -2.647,-2.387 -4.125,-3.4082 -1.295,-1.2762 -2.706,-2.4427 -4.221,-3.4844 -1.276,-1.2533 -2.666,-2.3989 -4.154,-3.4258 -1.29,-1.2692 -2.697,-2.4308 -4.203,-3.4687 -1.283,-1.2605 -2.679,-2.4148 -4.176,-3.4473 -1.29,-1.2683 -2.692,-2.4306 -4.197,-3.4687 -1.286,-1.2635 -2.686,-2.4196 -4.186,-3.4551 -1.292,-1.2707 -2.699,-2.4339 -4.207,-3.4746 -1.291,-1.2687 -2.696,-2.4309 -4.201,-3.4707 -1.298,-1.276 -2.714,-2.4434 -4.229,-3.4883 -1.286,-1.263 -2.684,-2.4201 -4.183,-3.4571 -1.311,-1.2894 -2.739,-2.4687 -4.27,-3.5234 -1.292,-1.2665 -2.698,-2.4271 -4.203,-3.4668 -1.295,-1.2711 -2.702,-2.4368 -4.211,-3.4805 -1.305,-1.2827 -2.727,-2.456 -4.25,-3.5078 -1.305,-1.2803 -2.723,-2.4535 -4.244,-3.5039 -1.301,-1.276 -2.715,-2.4461 -4.23,-3.4941 -1.309,-1.2837 -2.732,-2.4582 -4.256,-3.5117 -1.307,-1.2813 -2.727,-2.4555 -4.248,-3.5078 -1.315,-1.2892 -2.744,-2.4695 -4.276,-3.5274 -1.299,-1.2725 -2.71,-2.4389 -4.22,-3.4863 -1.314,-1.2906 -2.743,-2.473 -4.274,-3.5332 -1.32,-1.2955 -2.756,-2.4815 -4.295,-3.5449 -1.32,-1.2932 -2.755,-2.4772 -4.293,-3.5391 -1.306,-1.2778 -2.724,-2.4496 -4.242,-3.502 -1.324,-1.2979 -2.762,-2.4882 -4.303,-3.5546 -1.315,-1.2878 -2.744,-2.4694 -4.273,-3.5293 -1.325,-1.2977 -2.764,-2.4857 -4.305,-3.5528 -1.319,-1.2914 -2.752,-2.4757 -4.285,-3.539 -1.327,-1.3 -2.769,-2.4912 -4.312,-3.5606 -1.33,-1.3009 -2.775,-2.4942 -4.321,-3.5644 -1.325,-1.2953 -2.762,-2.4839 -4.303,-3.5508 -1.319,-1.2918 -2.753,-2.4776 -4.287,-3.543 -1.344,-1.3168 -2.805,-2.5232 -4.369,-3.6055 -1.315,-1.2843 -2.742,-2.4644 -4.267,-3.5253 -1.346,-1.3192 -2.809,-2.5284 -4.375,-3.6133 -1.332,-1.3008 -2.778,-2.4939 -4.325,-3.5664 -1.329,-1.2995 -2.771,-2.494 -4.314,-3.5664 -1.348,-1.3193 -2.814,-2.5293 -4.381,-3.6153 -1.327,-1.2951 -2.766,-2.4844 -4.305,-3.5547 -1.354,-1.3253 -2.824,-2.5399 -4.398,-3.6308 -1.337,-1.3041 -2.787,-2.5013 -4.338,-3.5781 -1.338,-1.3068 -2.79,-2.5065 -4.342,-3.586 -1.343,-1.3135 -2.8,-2.5208 -4.359,-3.6055 -1.36,-1.3288 -2.837,-2.5477 -4.416,-3.6425 -1.336,-1.3013 -2.782,-2.4975 -4.328,-3.5742 -1.359,-1.3283 -2.835,-2.5472 -4.412,-3.6426 -1.357,-1.3225 -2.828,-2.5374 -4.401,-3.6289 -1.349,-1.3142 -2.81,-2.523 -4.373,-3.6094 -1.34,-1.3062 -2.791,-2.5078 -4.342,-3.5899 -1.376,-1.3465 -2.873,-2.58 -4.472,-3.6894 -1.338,-1.3018 -2.785,-2.4986 -4.332,-3.5781 -1.368,-1.3366 -2.852,-2.5642 -4.438,-3.668 -1.366,-1.3317 -2.848,-2.5558 -4.431,-3.6563 -1.351,-1.3146 -2.813,-2.5236 -4.375,-3.6132 -1.381,-1.3475 -2.881,-2.5834 -4.483,-3.6953 -1.347,-1.3095 -2.805,-2.515 -4.361,-3.6016 -1.382,-1.3482 -2.881,-2.5859 -4.483,-3.6992 -1.362,-1.3249 -2.838,-2.5428 -4.414,-3.6407 -1.363,-1.3275 -2.839,-2.55 -4.416,-3.6503 -1.375,-1.3402 -2.863,-2.5724 -4.455,-3.6817 -1.376,-1.3401 -2.868,-2.5722 -4.461,-3.6816 -1.37,-1.3329 -2.855,-2.5591 -4.439,-3.6641 -1.377,-1.3403 -2.868,-2.5731 -4.461,-3.6836 -1.377,-1.3394 -2.867,-2.5713 -4.459,-3.6816 -1.386,-1.3484 -2.888,-2.5886 -4.492,-3.7051 -1.365,-1.3247 -2.84,-2.5453 -4.414,-3.6465 -1.387,-1.3513 -2.888,-2.5948 -4.492,-3.7148 -1.388,-1.3493 -2.889,-2.5905 -4.493,-3.709 -1.39,-1.3511 -2.896,-2.591 -4.504,-3.7109 -1.382,-1.3416 -2.877,-2.5756 -4.472,-3.6895 -1.38,-1.3411 -2.872,-2.5749 -4.465,-3.6895 -1.395,-1.3573 -2.904,-2.6064 -4.516,-3.7324 -1.396,-1.3564 -2.906,-2.6052 -4.519,-3.7304 -1.385,-1.3433 -2.882,-2.5805 -4.479,-3.6973 -1.403,-1.3641 -2.923,-2.6186 -4.545,-3.75 -1.396,-1.3545 -2.906,-2.6016 -4.517,-3.7266 -1.385,-1.3429 -2.881,-2.5813 -4.477,-3.6992 -1.395,-1.3563 -2.904,-2.6045 -4.513,-3.7324 -1.427,-1.3873 -2.973,-2.662 -4.623,-3.8106 -1.38,-1.3336 -2.868,-2.5655 -4.456,-3.6777 -6.763,-6.5708 -16.197,-10.6421 -26.669,-10.6426 z"
         id="path30970" />
      <path
         style="fill:#637a8a;fill-opacity:1;stroke:none;stroke-width:4.8;stroke-linecap:round;stroke-linejoin:bevel;stroke-miterlimit:4;stroke-dasharray:none;stroke-dashoffset:0;stroke-opacity:1;paint-order:fill markers stroke"
         d="m 7340.246,6701.9999 c -14.599,0 -26.351,10.056 -26.351,22.547 v 195.515 c 0,12.491 11.752,22.547 26.351,22.547 h 19.123 v -65.171 -117.691 -57.747 z"
         id="rect5572-6"
         inkscape:connector-curvature="0" />
      <path
         style="fill:#d05341;fill-opacity:1;stroke:none;stroke-width:4.8;stroke-linecap:round;stroke-linejoin:bevel;stroke-miterlimit:4;stroke-dasharray:none;stroke-dashoffset:0;stroke-opacity:1;paint-order:fill markers stroke"
         d="m 7539.294,6616.2989 -102.705,40.647 v 94.887 140.943 94.887 l 102.705,40.647 v -135.534 -140.943 z"
         id="rect5576"
         inkscape:connector-curvature="0" />
      <path
         style="fill:#ebf0f3;fill-opacity:1;stroke:none;stroke-width:4.8;stroke-linecap:round;stroke-linejoin:bevel;stroke-miterlimit:4;stroke-dasharray:none;stroke-dashoffset:0;stroke-opacity:1;paint-order:fill markers stroke"
         d="m 8263.013,6375.3853 c -0.02,0 -0.05,0.01 -0.07,0.025 l -379.426,241.6916 c -0.101,0.06 -0.181,0.232 -0.181,0.376 v 409.099 0.569 c 0,0.144 0.08,0.312 0.181,0.376 l 379.426,241.692 c 0.101,0.06 0.182,0 0.182,-0.145 v -409.099 c 0,-0.05 -0.01,-0.108 -0.03,-0.161 v -74.995 c 0.02,-0.05 0.03,-0.107 0.03,-0.16 v -409.0988 c 0,-0.1082 -0.05,-0.1715 -0.111,-0.1695 z"
         id="rect5572"
         inkscape:connector-curvature="0" />
      <rect
         style="fill:#637a8a;fill-opacity:1;stroke:none;stroke-width:4.8;stroke-linecap:round;stroke-linejoin:bevel;stroke-miterlimit:4;stroke-dasharray:none;stroke-dashoffset:0;stroke-opacity:1;paint-order:fill markers stroke"
         id="rect5572-7-6"
         width="74.771416"
         height="959.86755"
         x="8263.124"
         y="6342.3706"
         rx="155.66713"
         ry="35.581787" />
      <rect
         style="fill:#e56353;fill-opacity:1;stroke:none;stroke-width:4.8;stroke-linecap:round;stroke-linejoin:bevel;stroke-miterlimit:4;stroke-dasharray:none;stroke-dashoffset:0;stroke-opacity:1;paint-order:fill markers stroke"
         id="rect5572-7-5"
         width="344.13727"
         height="411.93002"
         x="7539.0059"
         y="6616.3394"
         rx="1.2997301"
         ry="1.2997299" />
      <path
         style="fill:#fdd363;fill-opacity:1;stroke:none;stroke-width:4.8;stroke-linecap:round;stroke-linejoin:bevel;stroke-miterlimit:4;stroke-dasharray:none;stroke-dashoffset:0;stroke-opacity:1;paint-order:fill markers stroke"
         d="m 7404.115,6673.9889 c -24.789,0 -44.746,12.398 -44.746,27.797 v 241.037 c 0,15.399 19.957,27.796 44.746,27.796 h 32.474 v -80.345 -145.092 -71.193 z"
         id="rect5572-6-3"
         inkscape:connector-curvature="0" />
      <path
         style="fill:#2c495b;fill-opacity:1;stroke:none;stroke-width:4.8;stroke-linecap:round;stroke-linejoin:bevel;stroke-miterlimit:4;stroke-dasharray:none;stroke-dashoffset:0;stroke-opacity:1;paint-order:fill markers stroke"
         d="m 7863.03,7168.9689 c 7.912,48.144 15.816,96.289 23.73,144.432 2.747,16.737 5.499,33.473 8.249,50.209 15.109,-1.961 26.653,-13.724 26.653,-28.033 v -138.285 c 0,-15.69 -13.881,-28.323 -31.124,-28.323 z"
         id="rect5572-7-2"
         inkscape:connector-curvature="0" />
      <path
         inkscape:connector-curvature="0"
         id="path6051"
         d="m 7586.886,7027.9809 2.051,12.648 c 13.482,82.924 27.16,165.816 40.768,248.719 13.166,80.103 26.309,160.209 39.492,240.309 4.238,25.723 8.488,51.444 12.756,77.162 h 253.405 c 0.932,-0.09 1.996,-0.104 2.976,-0.217 10.069,-0.939 19.824,-5.389 26.933,-12.614 6.057,-6.089 10.115,-14.185 11.12,-22.734 1.029,-8.295 -0.763,-16.903 -5.026,-24.094 -5.095,-8.717 -13.561,-15.287 -23.12,-18.438 -4.263,-1.433 -8.74,-2.163 -13.231,-2.293 -7.752,-3.217 -13.295,-8.22 -15.039,-14.042 -11.041,-67.431 -22.142,-134.852 -33.211,-202.278 -11.982,-72.89 -23.938,-145.785 -35.941,-218.672 -3.485,-21.154 -6.982,-42.305 -10.486,-63.456 z"
         style="fill:#ebf0f3;fill-opacity:1;stroke:none;stroke-width:4.8;stroke-linecap:round;stroke-linejoin:bevel;stroke-miterlimit:4;stroke-dasharray:none;stroke-dashoffset:0;stroke-opacity:1;paint-order:fill markers stroke" />
    </g>
  </g>
</svg>
