<?xml version="1.0" encoding="UTF-8" standalone="no"?>
<!-- Created with Inkscape (http://www.inkscape.org/) -->

<svg
   width="67.73333mm"
   height="67.73333mm"
   viewBox="0 0 67.73333 67.73333"
   version="1.1"
   id="svg1"
   xml:space="preserve"
   inkscape:version="1.3 (0e150ed6c4, 2023-07-21)"
   sodipodi:docname="architettura_scalable.svg"
   inkscape:export-filename="..\..\Documenti\Da caricare TG\architettura_scalable.png"
   inkscape:export-xdpi="1536.0001"
   inkscape:export-ydpi="1536.0001"
   xmlns:inkscape="http://www.inkscape.org/namespaces/inkscape"
   xmlns:sodipodi="http://sodipodi.sourceforge.net/DTD/sodipodi-0.dtd"
   xmlns="http://www.w3.org/2000/svg"
   xmlns:svg="http://www.w3.org/2000/svg"><sodipodi:namedview
     id="namedview1"
     pagecolor="#ffffff"
     bordercolor="#000000"
     borderopacity="0.25"
     inkscape:showpageshadow="2"
     inkscape:pageopacity="0.0"
     inkscape:pagecheckerboard="0"
     inkscape:deskcolor="#d1d1d1"
     inkscape:document-units="mm"
     inkscape:zoom="2.6100262"
     inkscape:cx="132.75729"
     inkscape:cy="132.37415"
     inkscape:window-width="1901"
     inkscape:window-height="983"
     inkscape:window-x="-87"
     inkscape:window-y="0"
     inkscape:window-maximized="0"
     inkscape:current-layer="layer1" /><defs
     id="defs1"><clipPath
       id="clip0_901_1471"><rect
         width="32"
         height="32"
         fill="white"
         id="rect1-5" /></clipPath><defs
       id="defs1-4"><clipPath
         id="clipPath2"><rect
           width="32"
           height="32"
           fill="#ffffff"
           id="rect2"
           x="0"
           y="0" /></clipPath></defs><clipPath
       clipPathUnits="userSpaceOnUse"
       id="clipPath4"><g
         id="g5"><rect
           width="20.607777"
           height="20.607777"
           fill="#ffffff"
           id="rect4"
           x="46.746925"
           y="49.765987"
           style="stroke-width:0.643993" /></g></clipPath></defs><g
     inkscape:label="Livello 1"
     inkscape:groupmode="layer"
     id="layer1"
     transform="translate(-23.184149,-26.203209)"><path
       id="rect1"
       style="fill:#00c5c5;stroke-width:0.39752;fill-opacity:1"
       d="m 23.184149,26.203209 h 67.73333 v 67.73333 h -67.73333 z" /><path
       id="path433"
       style="font-size:7.05556px;font-family:PRIMETIME;-inkscape-font-specification:PRIMETIME;text-align:center;text-anchor:middle;fill:#000001;fill-opacity:0.24705882;stroke-width:0.805412"
       d="M 32.772711 40.90102 L 30.747512 46.376138 L 48.655462 64.283572 L 48.655462 64.284089 L 47.12584 66.932506 C 46.928729 67.273928 46.799654 67.635285 46.727932 68.001691 C 46.724932 68.017009 46.722968 68.031831 46.72018 68.047167 C 46.658375 68.387037 46.65608 68.728798 46.695375 69.065709 C 46.702585 69.127711 46.715353 69.186159 46.725864 69.24761 C 46.78212 69.577113 46.870569 69.900173 47.018353 70.20104 C 47.02001 70.204413 47.021853 70.207491 47.023521 70.210859 C 47.18486 70.536692 47.399896 70.837432 47.661725 71.102794 C 47.6672 71.108344 47.669643 71.11588 47.675161 71.121397 L 51.221714 74.667951 C 50.988033 74.694851 50.76046 74.74353 50.545786 74.83745 C 50.244752 74.96445 49.980914 75.140842 49.755137 75.366616 C 49.656046 75.465707 49.568589 75.575015 49.487453 75.690111 L 48.350572 74.553229 C 48.317072 74.519729 48.282168 74.487594 48.245668 74.456594 C 48.062227 74.296672 47.847923 74.171828 47.60333 74.082457 C 47.363444 73.993087 47.111742 73.948098 46.848338 73.948098 L 44.385956 73.948098 L 44.385956 79.423216 L 58.899282 93.936542 L 90.917482 93.936542 L 90.917482 50.990843 L 81.653448 41.726809 L 80.524835 41.726809 L 79.683543 44.027961 L 77.844378 42.188797 C 77.81118 42.155597 77.775725 42.123912 77.737925 42.093712 C 77.648555 42.018452 77.549488 41.954766 77.441302 41.903026 C 77.333117 41.846576 77.220414 41.804126 77.102822 41.775902 C 76.989932 41.742972 76.879244 41.726809 76.771059 41.726809 L 74.343817 41.726809 L 74.343817 42.291116 L 73.77951 41.726809 L 72.403884 41.726809 L 72.403884 42.855939 L 71.274754 41.726809 L 69.899127 41.726809 L 69.899127 42.114899 L 69.511037 41.726809 L 65.559857 41.726809 L 65.559857 42.220836 L 65.06583 41.726809 L 61.11465 41.726809 L 61.11465 42.234789 L 60.606671 41.726809 L 56.916974 41.726809 L 56.916974 42.178461 L 56.465322 41.726809 L 52.514142 41.726809 L 52.514142 42.34796 L 51.892991 41.726809 L 50.531317 41.726809 L 50.531317 42.45338 L 49.804746 41.726809 L 48.41465 41.726809 L 48.41465 43.201138 L 46.940322 41.726809 L 45.550226 41.726809 L 45.550226 42.834752 L 45.013824 42.298351 C 44.750419 42.058462 44.475475 41.882072 44.188552 41.769184 C 43.901626 41.651591 43.602927 41.592451 43.292482 41.592451 C 42.953818 41.592451 42.636417 41.658151 42.340086 41.789855 C 42.043753 41.921556 41.784977 42.100478 41.563906 42.326256 C 41.347535 42.54733 41.175692 42.808634 41.048692 43.109671 C 41.041171 43.127893 41.038696 43.147636 41.031638 43.165998 L 40.055987 42.190347 C 40.022287 42.156647 39.986284 42.124312 39.947984 42.093712 C 39.858614 42.018452 39.760063 41.954766 39.651878 41.903026 C 39.543692 41.846576 39.43099 41.804126 39.313397 41.775902 C 39.200508 41.742972 39.08982 41.726809 38.981634 41.726809 L 36.554392 41.726809 L 36.554392 43.391824 L 34.063588 40.90102 L 32.772711 40.90102 z " /><text
       xml:space="preserve"
       style="font-size:7.05556px;font-family:PRIMETIME;-inkscape-font-specification:PRIMETIME;text-align:center;text-anchor:middle;fill:#552200;fill-opacity:1;stroke:none;stroke-width:0.805413;-inkscape-stroke:none"
       x="10.484159"
       y="38.189716"
       id="text3"><tspan
         sodipodi:role="line"
         id="tspan3"
         style="stroke-width:0.805412"
         x="10.484159"
         y="38.189716" /></text><path
       id="path19"
       style="font-size:7.05556px;font-family:PRIMETIME;-inkscape-font-specification:PRIMETIME;text-align:center;text-anchor:middle;fill:#003636;stroke-width:0.805412;fill-opacity:1"
       d="M 80.524835 41.726809 L 78.824164 46.376138 L 80.193072 46.376138 L 80.425616 45.748269 L 81.75215 45.748269 L 81.985211 46.376138 L 83.35412 46.376138 L 81.653448 41.726809 L 80.524835 41.726809 z M 81.089142 43.695165 L 81.385248 44.598469 L 80.792519 44.598469 L 81.089142 43.695165 z " /><path
       id="path17"
       style="font-size:7.05556px;font-family:PRIMETIME;-inkscape-font-specification:PRIMETIME;text-align:center;text-anchor:middle;fill:#003636;stroke-width:0.805412;fill-opacity:1"
       d="M 74.343817 41.726809 L 74.343817 46.376138 L 75.705491 46.376138 L 75.705491 44.958137 L 76.53128 44.958137 L 77.265086 46.376138 L 78.732696 46.376138 L 77.645941 44.287893 C 77.824681 44.151486 77.965689 43.984188 78.069171 43.786632 C 78.172652 43.584373 78.224717 43.370588 78.224717 43.144811 C 78.224717 43.003699 78.203488 42.864706 78.161155 42.728299 C 78.118822 42.591891 78.057667 42.465036 77.977704 42.347443 C 77.911852 42.253369 77.831999 42.168971 77.737925 42.093712 C 77.648555 42.018452 77.549488 41.954766 77.441302 41.903026 C 77.333117 41.846579 77.220414 41.804122 77.102822 41.775902 C 76.989932 41.742975 76.879244 41.726809 76.771059 41.726809 L 74.343817 41.726809 z M 75.705491 42.813048 L 76.390204 42.813048 C 76.5125 42.813048 76.618127 42.855505 76.707497 42.940172 C 76.796868 43.024838 76.841856 43.128451 76.841856 43.250747 C 76.841856 43.373043 76.796868 43.47867 76.707497 43.568041 C 76.618127 43.652707 76.5125 43.695165 76.390204 43.695165 L 75.705491 43.695165 L 75.705491 42.813048 z " /><path
       style="font-size:7.05556px;font-family:PRIMETIME;-inkscape-font-specification:PRIMETIME;text-align:center;text-anchor:middle;fill:#003636;stroke-width:0.805412;fill-opacity:1"
       d="m 73.779534,44.654664 q 0,0.324556 -0.105833,0.613834 -0.105834,0.282222 -0.296334,0.515056 -0.183444,0.225778 -0.4445,0.395111 -0.254,0.169333 -0.550334,0.254 -0.127,0.03528 -0.268111,0.05644 -0.134056,0.02822 -0.275167,0.02822 -0.141111,0 -0.282222,-0.02822 -0.134056,-0.02117 -0.261056,-0.05644 -0.296334,-0.08467 -0.550334,-0.254 -0.254,-0.169333 -0.4445,-0.395111 -0.1905,-0.232834 -0.296334,-0.515056 -0.105833,-0.289278 -0.105833,-0.613834 v -2.928057 h 1.375834 v 2.857501 q 0,0.112889 0.04233,0.211667 0.04939,0.09172 0.127,0.162278 0.07761,0.07056 0.176389,0.112889 0.105833,0.04233 0.218722,0.04233 0.112889,0 0.211667,-0.04233 0.105833,-0.04233 0.183444,-0.112889 0.07761,-0.07055 0.119945,-0.162278 0.04939,-0.09878 0.04939,-0.211667 v -2.857501 h 1.375834 z"
       id="path16" /><path
       style="font-size:7.05556px;font-family:PRIMETIME;-inkscape-font-specification:PRIMETIME;text-align:center;text-anchor:middle;fill:#003636;stroke-width:0.805412;fill-opacity:1"
       d="m 69.398037,42.933107 h -1.199445 v 3.443114 h -1.326445 v -3.443114 h -1.199446 l -0.112889,-0.112889 v -1.093611 h 3.951114 v 1.093611 z"
       id="path15" /><path
       style="font-size:7.05556px;font-family:PRIMETIME;-inkscape-font-specification:PRIMETIME;text-align:center;text-anchor:middle;fill:#003636;stroke-width:0.805412;fill-opacity:1"
       d="m 64.953039,42.933107 h -1.199445 v 3.443114 h -1.326445 v -3.443114 h -1.199445 l -0.112889,-0.112889 v -1.093611 h 3.951113 v 1.093611 z"
       id="path14" /><path
       style="font-size:7.05556px;font-family:PRIMETIME;-inkscape-font-specification:PRIMETIME;text-align:center;text-anchor:middle;fill:#003636;stroke-width:0.805412;fill-opacity:1"
       d="m 56.916761,46.376221 v -4.649614 h 3.690058 v 1.164167 h -2.46239 v 0.5715 h 2.328335 v 1.171223 h -2.328335 v 0.571501 h 2.46239 v 1.171223 z"
       id="path13" /><path
       style="font-size:7.05556px;font-family:PRIMETIME;-inkscape-font-specification:PRIMETIME;text-align:center;text-anchor:middle;fill:#003636;stroke-width:0.805412;fill-opacity:1"
       d="M 56.352326,42.933107 H 55.15288 v 3.443114 H 53.826435 V 42.933107 H 52.62699 l -0.112889,-0.112889 v -1.093611 h 3.951113 v 1.093611 z"
       id="path12" /><path
       style="font-size:7.05556px;font-family:PRIMETIME;-inkscape-font-specification:PRIMETIME;text-align:center;text-anchor:middle;fill:#003636;stroke-width:0.805412;fill-opacity:1"
       d="m 50.531489,46.376221 v -4.649614 h 1.361723 v 4.649614 z"
       id="path11" /><path
       style="font-size:7.05556px;font-family:PRIMETIME;-inkscape-font-specification:PRIMETIME;text-align:center;text-anchor:middle;fill:#003636;stroke-width:0.805412;fill-opacity:1"
       d="m 48.414824,46.376221 v -1.679224 h -1.474612 v 1.679224 h -1.389945 v -4.649614 h 1.389945 v 1.714501 h 1.474612 v -1.714501 h 1.389946 v 4.649614 z"
       id="path10" /><path
       style="font-size:7.05556px;font-family:PRIMETIME;-inkscape-font-specification:PRIMETIME;text-align:center;text-anchor:middle;fill:#003636;stroke-width:0.805412;fill-opacity:1"
       d="m 43.29249,46.517332 q -0.508,0 -0.952501,-0.197556 -0.4445,-0.197555 -0.776111,-0.529167 -0.324556,-0.338667 -0.515056,-0.783167 -0.183445,-0.451556 -0.183445,-0.952501 0,-0.500944 0.183445,-0.945445 0.1905,-0.451555 0.515056,-0.783167 0.331611,-0.338667 0.776111,-0.536222 0.444501,-0.197556 0.952501,-0.197556 0.465667,0 0.896056,0.176389 0.430389,0.169333 0.825501,0.529167 l -1.008946,0.889001 q -0.366889,-0.261056 -0.705556,-0.261056 -0.232833,0 -0.430389,0.09172 -0.197555,0.09172 -0.345722,0.246945 -0.141111,0.155222 -0.225778,0.359833 -0.08467,0.204612 -0.08467,0.430389 0,0.225778 0.07761,0.437445 0.08467,0.204611 0.225778,0.359834 0.148167,0.155222 0.345723,0.246944 0.197555,0.09172 0.430389,0.09172 0.536222,0 0.931334,-0.522112 l 1.037167,0.860778 q -0.395111,0.486834 -0.896056,0.740834 -0.500945,0.246945 -1.072445,0.246945 z"
       id="path7" /><path
       id="path5"
       style="font-size:7.05556px;font-family:PRIMETIME;-inkscape-font-specification:PRIMETIME;text-align:center;text-anchor:middle;fill:#003636;stroke-width:0.805412;fill-opacity:1"
       d="M 36.554392 41.726809 L 36.554392 46.376138 L 37.916066 46.376138 L 37.916066 44.958137 L 38.741856 44.958137 L 39.475661 46.376138 L 40.942755 46.376138 L 39.856516 44.287893 C 40.035258 44.151486 40.176265 43.984188 40.279746 43.786632 C 40.383228 43.584373 40.434776 43.370588 40.434776 43.144811 C 40.434776 43.003699 40.414064 42.864706 40.37173 42.728299 C 40.329397 42.591891 40.268242 42.465036 40.188279 42.347443 C 40.122427 42.253369 40.042058 42.168971 39.947984 42.093712 C 39.858613 42.018452 39.760063 41.954766 39.651878 41.903026 C 39.543692 41.846579 39.43099 41.804122 39.313397 41.775902 C 39.200508 41.742975 39.08982 41.726809 38.981634 41.726809 L 36.554392 41.726809 z M 37.916066 42.813048 L 38.600779 42.813048 C 38.723075 42.813048 38.828702 42.855505 38.918072 42.940172 C 39.007443 43.024838 39.051914 43.128451 39.051914 43.250747 C 39.051914 43.373043 39.007443 43.47867 38.918072 43.568041 C 38.828702 43.652707 38.723075 43.695165 38.600779 43.695165 L 37.916066 43.695165 L 37.916066 42.813048 z " /><path
       id="text2"
       style="font-size:7.05556px;font-family:PRIMETIME;-inkscape-font-specification:PRIMETIME;text-align:center;text-anchor:middle;fill:#003636;stroke-width:0.805412;fill-opacity:1"
       d="M 32.772711 40.90102 L 30.747512 46.376138 L 32.292637 46.376138 L 32.575307 45.621145 L 34.261509 45.621145 L 34.543662 46.376138 L 36.088788 46.376138 L 34.063588 40.90102 L 32.772711 40.90102 z M 33.421767 42.905032 L 33.852232 44.351455 L 32.984068 44.351455 L 33.421767 42.905032 z " /><path
       id="path26"
       style="font-size:7.05556px;font-family:PRIMETIME;-inkscape-font-specification:PRIMETIME;text-align:center;text-anchor:middle;fill:#003636;stroke-width:0.805412;fill-opacity:1"
       d="M 67.246059 74.640046 C 66.907393 74.640046 66.587465 74.705746 66.286428 74.83745 C 65.985391 74.96445 65.722073 75.140839 65.496295 75.366616 C 65.275221 75.58769 65.098832 75.848477 64.967128 76.149514 C 64.840128 76.445847 64.776442 76.763761 64.776442 77.102428 C 64.776442 77.441094 64.840128 77.760505 64.967128 78.061542 C 65.098832 78.362579 65.275221 78.623883 65.496295 78.844957 C 65.722073 79.066031 65.985391 79.24242 66.286428 79.374124 C 66.587465 79.501124 66.907393 79.56481 67.246059 79.56481 C 67.584726 79.56481 67.904654 79.501124 68.20569 79.374124 C 68.506727 79.24242 68.767514 79.066031 68.988588 78.844957 C 69.214365 78.623883 69.390754 78.362579 69.517755 78.061542 C 69.649458 77.760505 69.715676 77.441094 69.715676 77.102428 C 69.715676 76.763761 69.649458 76.443833 69.517755 76.142796 C 69.390754 75.84176 69.214365 75.580456 68.988588 75.359382 C 68.767514 75.138308 68.506727 74.96445 68.20569 74.83745 C 67.904654 74.705746 67.584726 74.640046 67.246059 74.640046 z M 67.246059 75.91697 C 67.405985 75.91697 67.554069 75.949819 67.690476 76.015672 C 67.831588 76.076821 67.951883 76.161218 68.050661 76.269404 C 68.15414 76.377588 68.233993 76.504961 68.29044 76.650776 C 68.346886 76.791887 68.375189 76.942502 68.375189 77.102428 C 68.375189 77.262354 68.346886 77.414983 68.29044 77.560798 C 68.233995 77.701909 68.154142 77.828764 68.050661 77.941653 C 67.951883 78.049837 67.831588 78.136766 67.690476 78.202619 C 67.554069 78.263766 67.405985 78.294603 67.246059 78.294603 C 67.086133 78.294603 66.935518 78.263766 66.794407 78.202619 C 66.658 78.136767 66.53822 78.049838 66.434739 77.941653 C 66.33596 77.828764 66.256107 77.701909 66.19496 77.560798 C 66.138514 77.414983 66.110211 77.262354 66.110211 77.102428 C 66.110211 76.942502 66.138514 76.791887 66.19496 76.650776 C 66.256108 76.504961 66.335961 76.377588 66.434739 76.269404 C 66.53822 76.161216 66.658 76.076819 66.794407 76.015672 C 66.935518 75.949819 67.086133 75.91697 67.246059 75.91697 z " /><path
       style="font-size:7.05556px;font-family:PRIMETIME;-inkscape-font-specification:PRIMETIME;text-align:center;text-anchor:middle;fill:#003636;stroke-width:0.805412;fill-opacity:1"
       d="m 64.536764,75.980349 h -1.199445 v 3.443113 H 62.010873 V 75.980349 H 60.811428 L 60.698539,75.86746 v -1.093612 h 3.951114 v 1.093612 z"
       id="path25" /><path
       style="font-size:7.05556px;font-family:PRIMETIME;-inkscape-font-specification:PRIMETIME;text-align:center;text-anchor:middle;fill:#003636;stroke-width:0.805412;fill-opacity:1"
       d="m 58.715928,79.423462 v -4.649614 h 1.361723 v 4.649614 z"
       id="path24" /><path
       style="font-size:7.05556px;font-family:PRIMETIME;-inkscape-font-specification:PRIMETIME;text-align:center;text-anchor:middle;fill:#003636;stroke-width:0.805412;fill-opacity:1"
       d="m 54.404984,79.423462 v -4.649614 h 1.305279 v 3.471335 h 2.413002 v 1.178279 z"
       id="path23" /><path
       id="path21"
       style="font-size:7.05556px;font-family:PRIMETIME;-inkscape-font-specification:PRIMETIME;text-align:center;text-anchor:middle;fill:#003636;stroke-width:0.805412;fill-opacity:1"
       d="M 51.504901 74.640046 C 51.166234 74.640046 50.846823 74.705746 50.545786 74.83745 C 50.244749 74.96445 49.980914 75.140839 49.755137 75.366616 C 49.534063 75.58769 49.357673 75.848477 49.22597 76.149514 C 49.09897 76.445847 49.035801 76.763761 49.035801 77.102428 C 49.035801 77.441094 49.09897 77.760505 49.22597 78.061542 C 49.357673 78.362579 49.534063 78.623883 49.755137 78.844957 C 49.980914 79.066031 50.244749 79.24242 50.545786 79.374124 C 50.846823 79.501124 51.166234 79.56481 51.504901 79.56481 C 51.843567 79.56481 52.163495 79.501124 52.464532 79.374124 C 52.765569 79.24242 53.026873 79.066031 53.247947 78.844957 C 53.473725 78.623883 53.650114 78.362579 53.777114 78.061542 C 53.908818 77.760505 53.974518 77.441094 53.974518 77.102428 C 53.974518 76.763761 53.908818 76.443833 53.777114 76.142796 C 53.650114 75.84176 53.473725 75.580456 53.247947 75.359382 C 53.026873 75.138308 52.765569 74.96445 52.464532 74.83745 C 52.163495 74.705746 51.843567 74.640046 51.504901 74.640046 z M 51.504901 75.91697 C 51.664827 75.91697 51.813428 75.949819 51.949835 76.015672 C 52.090946 76.076821 52.210726 76.161218 52.309503 76.269404 C 52.412982 76.377588 52.492835 76.504961 52.549282 76.650776 C 52.605728 76.791887 52.634031 76.942502 52.634031 77.102428 C 52.634031 77.262354 52.605728 77.414983 52.549282 77.560798 C 52.492838 77.701909 52.412985 77.828764 52.309503 77.941653 C 52.210726 78.049837 52.090946 78.136766 51.949835 78.202619 C 51.813428 78.263766 51.664827 78.294603 51.504901 78.294603 C 51.344974 78.294603 51.194876 78.263766 51.053766 78.202619 C 50.917358 78.136767 50.797062 78.049838 50.693581 77.941653 C 50.594802 77.828764 50.514949 77.701909 50.453802 77.560798 C 50.397356 77.414983 50.369053 77.262354 50.369053 77.102428 C 50.369053 76.942502 50.397356 76.791887 50.453802 76.650776 C 50.51495 76.504961 50.594803 76.377588 50.693581 76.269404 C 50.797062 76.161216 50.917358 76.076819 51.053766 76.015672 C 51.194876 75.949819 51.344974 75.91697 51.504901 75.91697 z " /><path
       id="text4"
       style="font-size:7.05556px;font-family:PRIMETIME;-inkscape-font-specification:PRIMETIME;text-align:center;text-anchor:middle;fill:#003636;stroke-width:0.805412;fill-opacity:1"
       d="M 44.385956 73.948098 L 44.385956 79.423216 L 45.853566 79.423216 L 45.853566 77.723062 L 46.848338 77.723062 C 47.111745 77.723062 47.363441 77.673528 47.60333 77.57475 C 47.847923 77.471269 48.062224 77.332792 48.245668 77.158755 C 48.433816 76.980015 48.5819 76.772789 48.690086 76.537604 C 48.802974 76.302419 48.859068 76.048709 48.859068 75.775894 C 48.859068 75.507783 48.802974 75.260631 48.690086 75.034854 C 48.5819 74.809076 48.433816 74.61652 48.245668 74.456594 C 48.062224 74.296669 47.847923 74.171828 47.60333 74.082457 C 47.363441 73.993086 47.111745 73.948098 46.848338 73.948098 L 44.385956 73.948098 z M 45.888706 75.161978 L 46.742401 75.161978 C 46.827068 75.161978 46.907437 75.178144 46.982696 75.21107 C 47.057954 75.23929 47.123654 75.281748 47.1801 75.338194 C 47.236544 75.389935 47.281016 75.45109 47.313942 75.521646 C 47.346869 75.592202 47.363552 75.67004 47.363552 75.754706 C 47.363552 75.839373 47.346869 75.916695 47.313942 75.98725 C 47.281018 76.057804 47.236547 76.12149 47.1801 76.177936 C 47.123656 76.229676 47.057956 76.272134 46.982696 76.30506 C 46.907437 76.33328 46.827068 76.347435 46.742401 76.347435 L 45.888706 76.347435 L 45.888706 75.161978 z " /><path
       d="m 57.052047,48.410172 c -0.357811,0 -0.647874,0.290063 -0.647874,0.647874 v 1.997389 c -1.838496,0.308441 -3.239395,1.907384 -3.239395,3.833514 0,0.432094 0.07049,0.847715 0.20062,1.236005 l -6.23977,10.807566 c -0.958418,1.660106 -0.38965,3.782798 1.270396,4.741252 0.19921,0.114918 0.453935,0.04665 0.568938,-0.152454 l 3.617832,-6.266276 h 3.821379 v 1.295675 c 0,0.357872 0.290063,0.647959 0.647874,0.647959 0.357811,0 0.647837,-0.290087 0.647837,-0.647959 v -1.295675 h 3.818877 l 3.617832,6.266276 c 0.115039,0.199101 0.369777,0.267372 0.568999,0.152454 1.659985,-0.958454 2.228863,-3.081146 1.270409,-4.741252 L 60.737785,56.127687 c 0.130709,-0.389066 0.20153,-0.805625 0.20153,-1.238738 0,-1.92613 -1.400874,-3.525073 -3.239431,-3.833514 v -1.997389 c 0,-0.357811 -0.290026,-0.647874 -0.647837,-0.647874 z m 0,3.887268 c -1.431256,0 -2.591508,1.160265 -2.591508,2.591509 0,1.431255 1.160252,2.591519 2.591508,2.591519 1.431243,0 2.591471,-1.160264 2.591471,-2.591519 0,-1.431244 -1.160228,-2.591509 -2.591471,-2.591509 z m 0,6.478777 c 0.235787,0 0.466678,-0.02099 0.69084,-0.06121 l 3.027818,5.244241 h -3.070821 v -1.295796 c 0,-0.357751 -0.290026,-0.647839 -0.647837,-0.647839 -0.357811,0 -0.647874,0.290088 -0.647874,0.647839 v 1.295796 h -3.073275 l 3.028,-5.244641 a 3.9101303,3.9101303 0 0 0 0.693149,0.06161 z M 65.726608,69.951712 58.979646,58.26543 c 0.383746,-0.219595 0.726555,-0.502758 1.01397,-0.835132 l 5.860178,10.150181 c 0.444121,0.769192 0.364917,1.697036 -0.127186,2.371233 z M 48.247785,67.580479 54.108972,57.428561 c 0.287245,0.332593 0.629919,0.615975 1.013666,0.835799 L 48.374959,69.951712 C 47.882855,69.277515 47.80364,68.349671 48.247785,67.580479 Z"
       fill-rule="evenodd"
       id="path1"
       style="fill:#003636;fill-opacity:1;stroke:none;stroke-width:0.0121477;stroke-opacity:1" /></g></svg>
