<?xml version="1.0" encoding="UTF-8" standalone="no"?>
<!-- Created with Inkscape (http://www.inkscape.org/) -->

<svg
   width="67.733337mm"
   height="67.73333mm"
   viewBox="0 0 67.733338 67.73333"
   version="1.1"
   id="svg1"
   inkscape:version="1.3 (0e150ed6c4, 2023-07-21)"
   sodipodi:docname="architettura_scalable.svg"
   xml:space="preserve"
   inkscape:export-filename="disegno.png"
   inkscape:export-xdpi="96"
   inkscape:export-ydpi="96"
   xmlns:inkscape="http://www.inkscape.org/namespaces/inkscape"
   xmlns:sodipodi="http://sodipodi.sourceforge.net/DTD/sodipodi-0.dtd"
   xmlns="http://www.w3.org/2000/svg"
   xmlns:svg="http://www.w3.org/2000/svg"><sodipodi:namedview
     id="namedview1"
     pagecolor="#ffffff"
     bordercolor="#000000"
     borderopacity="0.25"
     inkscape:showpageshadow="2"
     inkscape:pageopacity="0.0"
     inkscape:pagecheckerboard="0"
     inkscape:deskcolor="#d1d1d1"
     inkscape:document-units="mm"
     inkscape:zoom="2.5550709"
     inkscape:cx="75.536065"
     inkscape:cy="155.18161"
     inkscape:window-width="1920"
     inkscape:window-height="1054"
     inkscape:window-x="0"
     inkscape:window-y="26"
     inkscape:window-maximized="1"
     inkscape:current-layer="layer1"
     inkscape:export-bgcolor="#ffffff00" /><defs
     id="defs1"><clipPath
       clipPathUnits="userSpaceOnUse"
       id="clipPath2"><g
         inkscape:label="Clip"
         id="use2"><rect
           style="fill:#800080;stroke-width:0.264583"
           id="rect2"
           width="166.42566"
           height="163.40662"
           x="33.20966"
           y="74.344345" /></g></clipPath><clipPath
       clipPathUnits="userSpaceOnUse"
       id="clipPath29"><g
         id="g30"
         transform="translate(-0.60823632,-18.247127)"><g
           inkscape:label="Clip"
           id="use29"
           transform="translate(0.60823755,18.247126)"
           clip-path="url(#clipPath29)"><g
             id="g31"
             transform="translate(0.60823755,18.247126)"><path
               id="path30"
               style="fill:#ffff00;stroke-width:0.264583"
               d="M 27.54892,66.419312 H 179.25667 V 218.12706 H 27.54892 Z" /></g></g></g></clipPath></defs><g
     inkscape:label="Livello 1"
     inkscape:groupmode="layer"
     id="layer1"
     transform="translate(133.63403,-38.136266)"><g
       id="g397"
       transform="matrix(0.44647247,0,0,0.44647247,-73.970115,21.109473)"><path
         id="rect3"
         style="fill:#ffff00;stroke-width:0.264583"
         d="M -133.63403,38.136266 H 18.07372 V 189.84401 h -151.70775 z" /><path
         id="path1"
         style="font-size:12.7px;font-family:PRIMETIME;-inkscape-font-specification:PRIMETIME;text-align:center;text-anchor:middle;white-space:pre;inline-size:99.4852;fill:#000001;fill-opacity:0.247059;stroke-width:0.264583"
         d="m -101.48095,77.185562 -3.64526,9.855212 37.605457,37.605456 v 9.90896 c 0,0.302 0.122711,0.57559 0.320911,0.77359 l 6.842993,6.843 h -2.27428 v 3.13624 l -2.083077,-2.08308 c -0.397898,-0.398 -0.867833,-0.71096 -1.409733,-0.93896 -0.541898,-0.237 -1.117428,-0.35605 -1.727026,-0.35605 -0.6096,0 -1.185645,0.11905 -1.727543,0.35605 -0.5418,0.228 -1.015736,0.54588 -1.422136,0.95188 -0.178524,0.17857 -0.334975,0.3769 -0.481107,0.58446 l -2.048454,-2.04845 c -0.0601,-0.06 -0.122502,-0.11764 -0.188102,-0.17364 -0.3302,-0.28798 -0.715704,-0.51234 -1.156002,-0.67334 -0.4318,-0.161 -0.884474,-0.24184 -1.358574,-0.24184 h -4.432287 v 9.85572 l 39.303027,39.30303 H 18.073506 V 110.24039 L -13.49511,78.671776 h -2.031917 l -1.515153,4.141866 -3.309359,-3.309358 c -0.0601,-0.0601 -0.123936,-0.117383 -0.192236,-0.172083 -0.1609,-0.1354 -0.338601,-0.250033 -0.533301,-0.343131 -0.1948,-0.1016 -0.397565,-0.17761 -0.609265,-0.22841 -0.2032,-0.0593 -0.40258,-0.08888 -0.59738,-0.08888 h -4.368725 v 1.015959 l -1.015959,-1.015959 h -2.476335 v 2.031918 l -2.031917,-2.031918 h -2.476851 v 0.698149 l -0.698149,-0.698149 h -7.112227 v 0.888835 l -0.888835,-0.888835 h -7.112227 v 0.914156 l -0.914156,-0.914156 h -6.641972 v 0.812871 l -0.812871,-0.812871 h -7.112227 v 1.117245 l -1.117244,-1.117245 h -2.45153 v 1.307931 l -1.307931,-1.307931 h -2.501656 v 2.654619 l -2.654618,-2.654619 h -2.501656 v 1.993677 l -0.965316,-0.965316 c -0.4741,-0.431798 -0.969198,-0.749198 -1.485698,-0.952396 -0.516398,-0.2117 -1.054538,-0.317294 -1.613338,-0.317294 -0.609598,0 -1.180709,0.118534 -1.714107,0.355534 -0.533398,0.2371 -0.999331,0.558916 -1.397331,0.965316 -0.389398,0.398 -0.698475,0.867318 -0.927075,1.409216 -0.01363,0.03302 -0.0177,0.06903 -0.03049,0.10232 l -1.758549,-1.758549 c -0.0601,-0.0601 -0.123936,-0.117383 -0.192236,-0.172083 -0.1609,-0.1354 -0.338601,-0.250033 -0.533301,-0.343131 -0.1947,-0.1016 -0.397565,-0.17761 -0.609265,-0.22841 -0.2032,-0.0593 -0.402163,-0.08888 -0.596863,-0.08888 h -4.369242 v 2.996717 l -4.482931,-4.482931 z" /><path
         id="text1"
         style="font-size:12.7px;font-family:PRIMETIME;-inkscape-font-specification:PRIMETIME;text-align:center;text-anchor:middle;white-space:pre;inline-size:99.4852;stroke-width:0.264583"
         d="m -101.48059,77.185406 -3.64525,9.855213 h 2.78122 l 0.50798,-1.358574 h 3.035471 l 0.50798,1.358574 h 2.781226 l -3.644738,-9.855213 z m 18.935277,1.244885 c -0.6096,0 -1.180708,0.118468 -1.714108,0.355535 -0.533399,0.237066 -0.999397,0.558916 -1.39733,0.965316 -0.389466,0.397932 -0.698476,0.86735 -0.927076,1.409216 -0.220133,0.533393 -0.330212,1.101089 -0.330212,1.702222 0,0.601133 0.110079,1.172241 0.330212,1.714107 0.2286,0.5334 0.53761,1.003334 0.927076,1.409733 0.397933,0.397933 0.863931,0.715847 1.39733,0.952914 0.5334,0.237066 1.104508,0.355534 1.714108,0.355534 0.685799,0 1.329498,-0.148085 1.930631,-0.444418 0.601133,-0.304799 1.138689,-0.749569 1.612822,-1.333768 l -1.86707,-1.54926 c -0.474133,0.626533 -1.032917,0.939478 -1.676383,0.939478 -0.2794,0 -0.537564,-0.05478 -0.77463,-0.164848 -0.237066,-0.110067 -0.444384,-0.258151 -0.622184,-0.444418 -0.169333,-0.186267 -0.304577,-0.40249 -0.406177,-0.648022 -0.09313,-0.254001 -0.140043,-0.516099 -0.140043,-0.787032 0,-0.270933 0.05084,-0.529097 0.152445,-0.77463 0.1016,-0.245533 0.237361,-0.461756 0.406694,-0.648022 0.1778,-0.18626 0.385118,-0.334351 0.622184,-0.444417 0.237066,-0.110067 0.49523,-0.164848 0.77463,-0.164848 0.406399,0 0.82994,0.156479 1.270206,0.469739 l 1.81591,-1.60042 c -0.474133,-0.431799 -0.969231,-0.749196 -1.485697,-0.952396 -0.516466,-0.211667 -1.054539,-0.317294 -1.613338,-0.317295 z m -12.128459,0.241329 v 8.368999 h 2.45153 v -2.552816 h 1.485697 l 1.32085,2.552816 h 2.6417 l -1.955953,-3.758944 c 0.321733,-0.245533 0.575444,-0.546154 0.761711,-0.901754 0.186266,-0.364066 0.279569,-0.749602 0.279569,-1.156002 0,-0.253993 -0.03801,-0.503775 -0.114205,-0.749308 -0.0762,-0.245533 -0.186279,-0.47408 -0.330212,-0.685746 -0.118533,-0.169332 -0.262682,-0.321353 -0.432016,-0.456819 -0.160865,-0.135466 -0.338567,-0.249998 -0.5333,-0.343131 -0.194733,-0.1016 -0.397598,-0.17761 -0.609265,-0.22841 -0.2032,-0.05927 -0.40213,-0.08888 -0.596863,-0.08888 z m 16.19281,0 v 8.368999 h 2.501656 v -3.022555 h 2.654618 v 3.022555 h 2.501657 V 78.67162 h -2.501657 v 3.086117 h -2.654618 V 78.67162 Z m 8.965861,0 v 8.368999 h 2.451531 V 78.67162 Z m 3.568775,0 v 1.968356 l 0.203089,0.203087 h 2.159041 v 6.197555 h 2.387968 v -6.197555 h 2.159041 l 0.203089,-0.203087 V 78.67162 Z m 7.925097,0 v 8.368999 h 6.641973 v -2.107882 h -4.432288 v -1.028878 h 4.190959 v -2.108397 h -4.190959 V 80.7671 h 4.432288 v -2.095479 z m 7.556129,0 v 1.968356 l 0.203605,0.203087 h 2.158525 v 6.197555 h 2.387968 v -6.197555 h 2.159041 l 0.203088,-0.203087 V 78.67162 Z m 8.001061,0 v 1.968356 l 0.203088,0.203087 h 2.159042 v 6.197555 h 2.387968 v -6.197555 h 2.159042 l 0.203088,-0.203087 V 78.67162 Z m 7.810376,0 v 5.27048 c 0,0.389466 0.06369,0.757709 0.190686,1.104842 0.127,0.338667 0.304701,0.647676 0.533301,0.927076 0.2286,0.270933 0.495668,0.507868 0.800468,0.711067 0.3048,0.2032 0.634521,0.355736 0.99012,0.457336 0.1524,0.04233 0.309389,0.07589 0.470256,0.101286 0.169333,0.03387 0.338646,0.05116 0.507979,0.05116 0.169333,0 0.334194,-0.01729 0.49506,-0.05116 0.169334,-0.0254 0.330258,-0.05895 0.482658,-0.101286 0.3556,-0.1016 0.685838,-0.254136 0.990637,-0.457336 0.313267,-0.203199 0.579818,-0.440134 0.799952,-0.711067 0.228599,-0.2794 0.406817,-0.588409 0.533817,-0.927076 0.127,-0.347133 0.190169,-0.715376 0.190169,-1.104842 v -5.27048 h -2.476334 v 5.143355 c 0,0.135466 -0.02962,0.262322 -0.08888,0.380855 -0.0508,0.110067 -0.122874,0.207306 -0.216007,0.291972 -0.09313,0.08467 -0.203213,0.152805 -0.330213,0.203605 -0.118533,0.0508 -0.245388,0.07596 -0.380855,0.07596 -0.135466,0 -0.266774,-0.02516 -0.393774,-0.07596 -0.118534,-0.0508 -0.22416,-0.118939 -0.317294,-0.203605 -0.09313,-0.08467 -0.16966,-0.181905 -0.228926,-0.291972 -0.0508,-0.118533 -0.07597,-0.245389 -0.07597,-0.380855 V 78.67162 Z m 8.001062,0 v 8.368999 h 2.451013 v -2.552816 h 1.486214 l 1.32085,2.552816 h 2.641699 l -1.955953,-3.758944 c 0.321733,-0.245533 0.575444,-0.546154 0.761711,-0.901754 0.186266,-0.364066 0.279569,-0.749602 0.279569,-1.156002 0,-0.253993 -0.03801,-0.503775 -0.114204,-0.749308 -0.0762,-0.245533 -0.18628,-0.47408 -0.330213,-0.685746 -0.118533,-0.169332 -0.262682,-0.321353 -0.432015,-0.456819 -0.160866,-0.135466 -0.338568,-0.249998 -0.533301,-0.343131 -0.194733,-0.1016 -0.397598,-0.17761 -0.609265,-0.22841 -0.2032,-0.05927 -0.402646,-0.08888 -0.597379,-0.08888 z m 11.125419,0 -3.060795,8.368999 h 2.463932 l 0.419096,-1.130164 h 2.387451 l 0.419096,1.130164 h 2.463933 l -3.060796,-8.368999 z m -76.695059,1.955437 h 1.231449 c 0.220133,0 0.410674,0.07653 0.571541,0.228926 0.160866,0.1524 0.241329,0.338496 0.241329,0.558622 0,0.220134 -0.08046,0.410675 -0.241329,0.571542 -0.160867,0.1524 -0.351409,0.228409 -0.571541,0.228409 h -1.231449 z m 68.020653,0 h 1.231966 c 0.220134,0 0.410675,0.07653 0.571542,0.228926 0.160866,0.1524 0.241329,0.338496 0.241329,0.558622 0,0.220134 -0.08046,0.410675 -0.241329,0.571542 -0.160867,0.1524 -0.351408,0.228409 -0.571542,0.228409 h -1.231966 z m -76.110592,0.165364 0.774622,2.603459 h -1.562172 z m 85.800957,1.422135 0.533301,1.62574 h -1.066602 z m -51.062,9.841776 c -1.020493,0.0443 -1.907826,0.881904 -1.947683,1.943034 a 1.0951085,1.0951085 0 0 0 0,0.04082 v 4.818311 l -7.029545,2.575043 c -1.060013,0.35826 -1.767915,1.37976 -1.730127,2.49804 v 1.16737 l 0.0021,-0.0661 c -0.07556,1.25653 0.997594,2.32966 2.254126,2.25413 l -0.06615,0.002 h 6.569625 v 27.26603 a 1.0951085,1.0951085 0 0 0 1.095023,1.09503 h 6.474024 a 1.0951085,1.0951085 0 0 0 0.09612,0.094 1.0951085,1.0951085 0 0 0 1.095023,-1.08004 v -0.10904 -27.26603 h 18.614885 v 12.54548 c -0.05628,1.28278 0.676602,2.47818 1.843815,3.01326 a 1.0951085,1.0951085 0 0 0 0.03824,0.0176 c 1.06875,0.4403 1.430286,1.33205 1.334802,2.23914 -0.09494,0.90171 -0.63275,1.68943 -1.755965,1.90324 -1.364872,0.20394 -2.557363,-0.81363 -2.555917,-2.19625 a 1.094999,1.094999 0 0 0 -1.092956,-1.09709 1.094999,1.094999 0 0 0 -1.097091,1.09244 c -0.0033,2.69131 2.437633,4.78363 5.096847,4.36924 a 1.0951085,1.0951085 0 0 0 0.02739,-0.004 c 2.073225,-0.37946 3.372054,-2.08307 3.556889,-3.83904 0.184847,-1.75598 -0.731161,-3.69041 -2.67994,-4.49326 l 0.04082,0.0171 c -0.363024,-0.16643 -0.584398,-0.52915 -0.56689,-0.92811 a 1.0951085,1.0951085 0 0 0 0,-0.047 v -12.59252 a 1.094999,1.094999 0 0 0 0,-5.1e-4 h 3.285071 c 1.196526,0 2.190047,-0.99352 2.190047,-2.19005 v -1.20406 a 1.0951085,1.0951085 0 0 0 -0.0021,-0.0491 c -0.05114,-1.13199 -0.911974,-2.08065 -2.033984,-2.23915 a 1.0951085,1.0951085 0 0 0 -0.0217,-0.004 l -24.222295,-2.947106 v -3.411678 a 1.0951085,1.0951085 0 0 0 0,-0.04703 c -0.0473,-1.123375 -0.851757,-2.086197 -1.948201,-2.335258 a 1.0951085,1.0951085 0 0 0 -0.05374,-0.01085 l -4.367175,-0.763261 c -0.149141,-0.02772 -0.297599,-0.03733 -0.443384,-0.03101 z m 0.242363,2.218986 4.140832,0.725021 c 0.141003,0.03347 0.233152,0.145686 0.239262,0.290938 v 3.238045 h -4.380094 z m 0,6.444052 h 4.380094 v 4.37958 h -4.380094 z m 6.570141,0.14108 23.936007,2.91507 c 0.09121,0.0129 0.148455,0.0751 0.153996,0.16639 v 1.15704 h -24.090003 z m -8.760187,0.33124 v 3.90726 h -6.569625 v -1.20406 a 1.0951085,1.0951085 0 0 0 0,-0.0362 c -0.0055,-0.16169 0.08803,-0.29908 0.241328,-0.35088 a 1.0951085,1.0951085 0 0 0 0.02584,-0.009 z m 2.190046,6.09731 h 4.380094 v 26.17101 h -4.380094 z m -15.334464,33.39641 v 9.85521 h 2.641182 v -3.0608 h 1.791106 c 0.474132,0 0.926773,-0.0889 1.358573,-0.26665 0.440267,-0.18626 0.825802,-0.43604 1.156002,-0.7493 0.338666,-0.32174 0.605218,-0.69392 0.799951,-1.11725 0.203199,-0.42333 0.304891,-0.88094 0.304891,-1.37201 0,-0.4826 -0.101692,-0.92685 -0.304891,-1.33325 -0.194733,-0.4064 -0.461286,-0.75341 -0.799951,-1.04128 -0.3302,-0.28787 -0.715735,-0.51248 -1.156002,-0.67334 -0.431799,-0.16087 -0.88444,-0.24133 -1.358573,-0.24133 z m 12.814205,1.24488 c -0.609599,0 -1.185677,0.11847 -1.727543,0.35554 -0.541866,0.2286 -1.015736,0.54599 -1.422135,0.95239 -0.397933,0.39794 -0.715331,0.86787 -0.952397,1.40974 -0.2286,0.5334 -0.343132,1.10502 -0.343132,1.71462 0,0.6096 0.114532,1.18516 0.343132,1.72703 0.237066,0.54186 0.554463,1.0118 0.952397,1.40973 0.406399,0.39793 0.880269,0.71533 1.422135,0.9524 0.541866,0.2286 1.117944,0.34313 1.727543,0.34313 0.6096,0 1.185159,-0.11453 1.727027,-0.34313 0.541866,-0.23707 1.0118,-0.55447 1.409733,-0.9524 0.406399,-0.39793 0.723797,-0.86787 0.952396,-1.40973 0.237067,-0.54187 0.355534,-1.11743 0.355534,-1.72703 0,-0.6096 -0.118467,-1.18568 -0.355534,-1.72754 -0.228599,-0.54187 -0.545997,-1.0118 -0.952396,-1.40974 -0.397933,-0.39793 -0.867867,-0.71087 -1.409733,-0.93947 -0.541867,-0.23707 -1.117427,-0.35554 -1.727027,-0.35554 z m 28.33367,0 c -0.609599,0 -1.18516,0.11847 -1.727026,0.35554 -0.541866,0.2286 -1.016253,0.54599 -1.422652,0.95239 -0.397933,0.39794 -0.715331,0.86787 -0.952397,1.40974 -0.2286,0.5334 -0.343131,1.10502 -0.343131,1.71462 0,0.6096 0.114531,1.18516 0.343131,1.72703 0.237066,0.54186 0.554465,1.0118 0.952397,1.40973 0.406399,0.39793 0.880786,0.71533 1.422652,0.9524 0.541866,0.2286 1.117427,0.34313 1.727026,0.34313 0.6096,0 1.185161,-0.11453 1.727027,-0.34313 0.541866,-0.23707 1.0118,-0.55447 1.409734,-0.9524 0.406399,-0.39793 0.723796,-0.86787 0.952396,-1.40973 0.237067,-0.54187 0.355533,-1.11743 0.355533,-1.72703 0,-0.6096 -0.118467,-1.18568 -0.355533,-1.72754 -0.2286,-0.54187 -0.545997,-1.0118 -0.952396,-1.40974 -0.397934,-0.39793 -0.867867,-0.71087 -1.409734,-0.93947 -0.541867,-0.23707 -1.117427,-0.35554 -1.727027,-0.35554 z m -23.113833,0.24133 v 8.369 h 6.692614 v -2.1208 h -4.343404 v -6.2482 z m 7.759732,0 v 8.369 h 2.451014 v -8.369 z m 3.568258,0 v 1.96836 l 0.203605,0.20309 h 2.158525 v 6.19755 h 2.387968 v -6.19755 h 2.159041 l 0.203089,-0.20309 v -1.96836 z m -26.657287,0.69815 h 1.536857 c 0.1524,0 0.296548,0.0296 0.432015,0.0889 0.135466,0.0508 0.253934,0.12733 0.355534,0.22893 0.1016,0.0931 0.182062,0.20321 0.241329,0.33021 0.05927,0.127 0.08888,0.2667 0.08888,0.4191 0,0.1524 -0.02962,0.29209 -0.08888,0.41909 -0.05927,0.127 -0.139729,0.24102 -0.241329,0.34262 -0.1016,0.0931 -0.220068,0.16966 -0.355534,0.22893 -0.135467,0.0508 -0.279615,0.076 -0.432015,0.076 h -1.536857 z m 10.10946,1.35909 c 0.287867,0 0.554418,0.0592 0.79995,0.17777 0.254001,0.11006 0.469706,0.2626 0.647507,0.45733 0.186267,0.19474 0.330415,0.42328 0.432015,0.68575 0.1016,0.254 0.152446,0.525 0.152446,0.81287 0,0.28787 -0.05085,0.56281 -0.152446,0.82527 -0.1016,0.254 -0.245748,0.48255 -0.432015,0.68575 -0.177801,0.19473 -0.393506,0.35172 -0.647507,0.47025 -0.245532,0.11007 -0.512084,0.16485 -0.79995,0.16485 -0.287866,0 -0.55887,-0.0548 -0.812871,-0.16485 -0.245532,-0.11853 -0.461239,-0.27552 -0.647506,-0.47025 -0.1778,-0.2032 -0.321948,-0.43175 -0.432015,-0.68575 -0.1016,-0.26246 -0.152445,-0.5374 -0.152445,-0.82527 0,-0.28787 0.05084,-0.55887 0.152445,-0.81287 0.110067,-0.26247 0.254215,-0.49101 0.432015,-0.68575 0.186267,-0.19473 0.401973,-0.34727 0.647506,-0.45733 0.254001,-0.11854 0.525004,-0.17777 0.812871,-0.17777 z m 28.33367,0 c 0.287867,0 0.554418,0.0592 0.799951,0.17777 0.254,0.11006 0.470223,0.2626 0.648024,0.45733 0.186266,0.19474 0.329898,0.42328 0.431497,0.68575 0.1016,0.254 0.152446,0.525 0.152446,0.81287 0,0.28787 -0.05085,0.56281 -0.152446,0.82527 -0.101599,0.254 -0.245232,0.48255 -0.431497,0.68575 -0.1778,0.19473 -0.394023,0.35172 -0.648024,0.47025 -0.245533,0.11007 -0.512084,0.16485 -0.799951,0.16485 -0.287866,0 -0.55887,-0.0548 -0.812869,-0.16485 -0.245534,-0.11853 -0.461239,-0.27552 -0.647506,-0.47025 -0.1778,-0.2032 -0.321948,-0.43175 -0.432015,-0.68575 -0.1016,-0.26246 -0.152445,-0.5374 -0.152445,-0.82527 0,-0.28787 0.05085,-0.55887 0.152445,-0.81287 0.110067,-0.26247 0.254215,-0.49101 0.432015,-0.68575 0.186267,-0.19473 0.401972,-0.34727 0.647506,-0.45733 0.253999,-0.11854 0.525004,-0.17777 0.812869,-0.17777 z" /></g></g></svg>
