<?xml version="1.0" encoding="UTF-8" standalone="no"?>
<!-- Created with Inkscape (http://www.inkscape.org/) -->

<svg
   width="151.70775mm"
   height="151.70799mm"
   viewBox="0 0 151.70775 151.70799"
   version="1.1"
   id="svg1"
   inkscape:version="1.3 (0e150ed6c4, 2023-07-21)"
   sodipodi:docname="disegno.svg"
   xml:space="preserve"
   inkscape:export-filename="disegno.png"
   inkscape:export-xdpi="96"
   inkscape:export-ydpi="96"
   xmlns:inkscape="http://www.inkscape.org/namespaces/inkscape"
   xmlns:sodipodi="http://sodipodi.sourceforge.net/DTD/sodipodi-0.dtd"
   xmlns="http://www.w3.org/2000/svg"
   xmlns:svg="http://www.w3.org/2000/svg"><sodipodi:namedview
     id="namedview1"
     pagecolor="#ffffff"
     bordercolor="#000000"
     borderopacity="0.25"
     inkscape:showpageshadow="2"
     inkscape:pageopacity="0.0"
     inkscape:pagecheckerboard="0"
     inkscape:deskcolor="#d1d1d1"
     inkscape:document-units="mm"
     inkscape:zoom="0.88"
     inkscape:cx="31.818182"
     inkscape:cy="211.93182"
     inkscape:window-width="1920"
     inkscape:window-height="1001"
     inkscape:window-x="-9"
     inkscape:window-y="-9"
     inkscape:window-maximized="1"
     inkscape:current-layer="layer1"
     inkscape:export-bgcolor="#ffffff00" /><defs
     id="defs1"><clipPath
       clipPathUnits="userSpaceOnUse"
       id="clipPath2"><g
         inkscape:label="Clip"
         id="use2"><rect
           style="fill:#800080;stroke-width:0.264583"
           id="rect2"
           width="166.42566"
           height="163.40662"
           x="33.20966"
           y="74.344345" /></g></clipPath><clipPath
       clipPathUnits="userSpaceOnUse"
       id="clipPath29"><g
         id="g30"
         transform="translate(-0.60823632,-18.247127)"><g
           inkscape:label="Clip"
           id="use29"
           transform="translate(0.60823755,18.247126)"
           clip-path="url(#clipPath29)"><g
             id="g31"
             transform="translate(0.60823755,18.247126)"><path
               id="path30"
               style="fill:#ffff00;stroke-width:0.264583"
               d="M 27.54892,66.419312 H 179.25667 V 218.12706 H 27.54892 Z" /></g></g></g></clipPath></defs><g
     inkscape:label="Livello 1"
     inkscape:groupmode="layer"
     id="layer1"
     transform="translate(-28.157158,-84.666438)"><path
       id="rect3"
       style="fill:#ffff00;stroke-width:0.264583"
       d="M -133.63403,38.136266 H 18.07372 V 189.84401 h -151.70775 z" /><path
       id="text1"
       style="font-size:12.7px;font-family:PRIMETIME;-inkscape-font-specification:PRIMETIME;text-align:center;text-anchor:middle;white-space:pre;inline-size:99.4852;stroke-width:0.264583"
       d="M -101.53622 74.184907 L -105.18147 84.04012 L -102.40025 84.04012 L -101.89227 82.681546 L -98.856795 82.681546 L -98.348815 84.04012 L -95.56759 84.04012 L -99.212328 74.184907 L -101.53622 74.184907 z M -82.600939 75.429792 C -83.210539 75.429792 -83.781647 75.54826 -84.315047 75.785326 C -84.848446 76.022393 -85.314444 76.344243 -85.712377 76.750642 C -86.101844 77.148575 -86.410853 77.617992 -86.639453 78.159858 C -86.859586 78.693251 -86.969665 79.260947 -86.969665 79.86208 C -86.969665 80.463213 -86.859586 81.034321 -86.639453 81.576187 C -86.410853 82.109587 -86.101844 82.579521 -85.712377 82.98592 C -85.314444 83.383853 -84.848446 83.701767 -84.315047 83.938834 C -83.781647 84.1759 -83.210539 84.294368 -82.600939 84.294368 C -81.91514 84.294368 -81.271441 84.146283 -80.670308 83.84995 C -80.069175 83.545151 -79.531619 83.100381 -79.057486 82.516182 L -80.924556 80.966922 C -81.398689 81.593455 -81.957473 81.9064 -82.600939 81.9064 C -82.880339 81.9064 -83.138503 81.851618 -83.375569 81.741552 C -83.612635 81.631485 -83.819953 81.483401 -83.997753 81.297135 C -84.167086 81.110868 -84.30233 80.894645 -84.40393 80.649112 C -84.497063 80.395112 -84.543973 80.133013 -84.543973 79.86208 C -84.543973 79.591147 -84.493128 79.332983 -84.391528 79.08745 C -84.289928 78.841917 -84.154167 78.625694 -83.984834 78.439428 C -83.807034 78.253168 -83.599716 78.105077 -83.36265 77.995011 C -83.125584 77.884944 -82.86742 77.830163 -82.58802 77.830163 C -82.181621 77.830163 -81.75808 77.986642 -81.317814 78.299902 L -79.501904 76.699482 C -79.976037 76.267683 -80.471135 75.950286 -80.987601 75.747086 C -81.504067 75.535419 -82.04214 75.429792 -82.600939 75.429792 z M -94.729398 75.671121 L -94.729398 84.04012 L -92.277868 84.04012 L -92.277868 81.487304 L -90.792171 81.487304 L -89.471321 84.04012 L -86.829622 84.04012 L -88.785575 80.281176 C -88.463842 80.035643 -88.210131 79.735022 -88.023864 79.379422 C -87.837598 79.015356 -87.744295 78.62982 -87.744295 78.22342 C -87.744295 77.969427 -87.7823 77.719645 -87.8585 77.474112 C -87.934699 77.228579 -88.044779 77.000032 -88.188712 76.788366 C -88.307245 76.619033 -88.451394 76.467013 -88.620727 76.331546 C -88.781593 76.19608 -88.959295 76.081548 -89.154028 75.988415 C -89.348761 75.886815 -89.551626 75.810805 -89.763293 75.760005 C -89.966493 75.700738 -90.165423 75.671121 -90.360156 75.671121 L -94.729398 75.671121 z M -78.536588 75.671121 L -78.536588 84.04012 L -76.034932 84.04012 L -76.034932 81.017565 L -73.380314 81.017565 L -73.380314 84.04012 L -70.878657 84.04012 L -70.878657 75.671121 L -73.380314 75.671121 L -73.380314 78.757238 L -76.034932 78.757238 L -76.034932 75.671121 L -78.536588 75.671121 z M -69.570727 75.671121 L -69.570727 84.04012 L -67.119197 84.04012 L -67.119197 75.671121 L -69.570727 75.671121 z M -66.001953 75.671121 L -66.001953 77.639477 L -65.798864 77.842565 L -63.639823 77.842565 L -63.639823 84.04012 L -61.251855 84.04012 L -61.251855 77.842565 L -59.092814 77.842565 L -58.889725 77.639477 L -58.889725 75.671121 L -66.001953 75.671121 z M -58.076855 75.671121 L -58.076855 84.04012 L -51.434883 84.04012 L -51.434883 81.932238 L -55.867171 81.932238 L -55.867171 80.90336 L -51.676212 80.90336 L -51.676212 78.794962 L -55.867171 78.794962 L -55.867171 77.766601 L -51.434883 77.766601 L -51.434883 75.671121 L -58.076855 75.671121 z M -50.520727 75.671121 L -50.520727 77.639477 L -50.317122 77.842565 L -48.158597 77.842565 L -48.158597 84.04012 L -45.770629 84.04012 L -45.770629 77.842565 L -43.611588 77.842565 L -43.4085 77.639477 L -43.4085 75.671121 L -50.520727 75.671121 z M -42.519665 75.671121 L -42.519665 77.639477 L -42.316577 77.842565 L -40.157535 77.842565 L -40.157535 84.04012 L -37.769567 84.04012 L -37.769567 77.842565 L -35.610526 77.842565 L -35.407438 77.639477 L -35.407438 75.671121 L -42.519665 75.671121 z M -34.709289 75.671121 L -34.709289 80.941601 C -34.709289 81.331067 -34.645603 81.69931 -34.518603 82.046443 C -34.391603 82.385109 -34.213902 82.694118 -33.985302 82.973518 C -33.756702 83.244451 -33.489634 83.481386 -33.184834 83.684586 C -32.880034 83.887786 -32.550313 84.040322 -32.194714 84.141922 C -32.042314 84.184256 -31.885325 84.217808 -31.724458 84.243208 C -31.555125 84.277075 -31.385812 84.294368 -31.216479 84.294368 C -31.047146 84.294368 -30.882285 84.277075 -30.721419 84.243208 C -30.552085 84.217808 -30.391161 84.184256 -30.238761 84.141922 C -29.883161 84.040322 -29.552923 83.887786 -29.248124 83.684586 C -28.934857 83.481386 -28.668306 83.244451 -28.448172 82.973518 C -28.219573 82.694118 -28.041355 82.385109 -27.914355 82.046443 C -27.787355 81.69931 -27.724186 81.331067 -27.724186 80.941601 L -27.724186 75.671121 L -30.20052 75.671121 L -30.20052 80.814477 C -30.20052 80.949943 -30.230137 81.076799 -30.289404 81.195332 C -30.340204 81.305399 -30.412278 81.402637 -30.505411 81.487304 C -30.598544 81.57197 -30.708624 81.640109 -30.835624 81.690909 C -30.954157 81.741709 -31.081012 81.766873 -31.216479 81.766873 C -31.351945 81.766873 -31.483253 81.741709 -31.610253 81.690909 C -31.728787 81.640109 -31.834413 81.57197 -31.927547 81.487304 C -32.02068 81.402637 -32.097207 81.305399 -32.156473 81.195332 C -32.207273 81.076799 -32.232438 80.949943 -32.232438 80.814477 L -32.232438 75.671121 L -34.709289 75.671121 z M -26.708227 75.671121 L -26.708227 84.04012 L -24.257214 84.04012 L -24.257214 81.487304 L -22.771 81.487304 L -21.45015 84.04012 L -18.808451 84.04012 L -20.764404 80.281176 C -20.442671 80.035643 -20.18896 79.735022 -20.002693 79.379422 C -19.816427 79.015356 -19.723124 78.62982 -19.723124 78.22342 C -19.723124 77.969427 -19.761129 77.719645 -19.837328 77.474112 C -19.913528 77.228579 -20.023608 77.000032 -20.167541 76.788366 C -20.286074 76.619033 -20.430223 76.467013 -20.599556 76.331546 C -20.760422 76.19608 -20.938124 76.081548 -21.132857 75.988415 C -21.32759 75.886815 -21.530455 75.810805 -21.742122 75.760005 C -21.945322 75.700738 -22.144768 75.671121 -22.339501 75.671121 L -26.708227 75.671121 z M -15.582808 75.671121 L -18.643603 84.04012 L -16.179671 84.04012 L -15.760575 82.909956 L -13.373124 82.909956 L -12.954028 84.04012 L -10.490095 84.04012 L -13.550891 75.671121 L -15.582808 75.671121 z M -92.277868 77.626558 L -91.046419 77.626558 C -90.826286 77.626558 -90.635744 77.703084 -90.474877 77.855484 C -90.314011 78.007884 -90.233548 78.19398 -90.233548 78.414106 C -90.233548 78.63424 -90.314011 78.824781 -90.474877 78.985648 C -90.635744 79.138048 -90.826286 79.214058 -91.046419 79.214058 L -92.277868 79.214058 L -92.277868 77.626558 z M -24.257214 77.626558 L -23.025248 77.626558 C -22.805114 77.626558 -22.614573 77.703084 -22.453706 77.855484 C -22.29284 78.007884 -22.212377 78.19398 -22.212377 78.414106 C -22.212377 78.63424 -22.29284 78.824781 -22.453706 78.985648 C -22.614573 79.138048 -22.805114 79.214058 -23.025248 79.214058 L -24.257214 79.214058 L -24.257214 77.626558 z M -100.36781 77.791922 L -99.593184 80.395381 L -101.15536 80.395381 L -100.36781 77.791922 z M -14.566849 79.214058 L -14.033548 80.839798 L -15.10015 80.839798 L -14.566849 79.214058 z M -65.628849 89.055834 C -66.649342 89.100137 -67.536675 89.937738 -67.576533 90.998868 A 1.0951085 1.0951085 0 0 0 -67.576533 91.039692 L -67.576533 95.858003 L -74.606078 98.43304 C -75.666091 98.7913 -76.373993 99.812805 -76.336205 100.93108 L -76.336205 102.09845 L -76.334138 102.0323 C -76.409698 103.28883 -75.336544 104.36196 -74.080012 104.28643 L -74.146158 104.2885 L -67.576533 104.2885 L -67.576533 131.55453 A 1.0951085 1.0951085 0 0 0 -66.48151 132.64956 L -60.007486 132.64956 A 1.0951085 1.0951085 0 0 0 -59.911368 132.74361 A 1.0951085 1.0951085 0 0 0 -58.816345 131.66357 L -58.816345 131.55453 L -58.816345 104.2885 L -40.20146 104.2885 L -40.20146 116.83398 C -40.25774 118.11676 -39.524858 119.31216 -38.357645 119.84724 A 1.0951085 1.0951085 0 0 0 -38.319404 119.86481 C -37.250654 120.30511 -36.889118 121.19686 -36.984602 122.10395 C -37.079542 123.00566 -37.617352 123.79338 -38.740567 124.00719 C -40.105439 124.21113 -41.29793 123.19356 -41.296484 121.81094 A 1.094999 1.094999 0 0 0 -42.38944 120.71385 A 1.094999 1.094999 0 0 0 -43.486531 121.80629 C -43.489831 124.4976 -41.048898 126.58992 -38.389684 126.17553 A 1.0951085 1.0951085 0 0 0 -38.362296 126.17191 C -36.289071 125.79245 -34.990242 124.08884 -34.805407 122.33287 C -34.62056 120.57689 -35.536568 118.64246 -37.485347 117.83961 L -37.444523 117.85666 C -37.807547 117.69023 -38.028922 117.32751 -38.011413 116.92855 A 1.0951085 1.0951085 0 0 0 -38.011413 116.88153 L -38.011413 104.28901 A 1.094999 1.094999 0 0 0 -38.011413 104.2885 L -34.726342 104.2885 C -33.529816 104.2885 -32.536295 103.29498 -32.536295 102.09845 L -32.536295 100.89439 A 1.0951085 1.0951085 0 0 0 -32.538362 100.8453 C -32.589502 99.713312 -33.450335 98.764652 -34.572346 98.606156 A 1.0951085 1.0951085 0 0 0 -34.59405 98.602021 L -58.816345 95.654915 L -58.816345 92.243237 A 1.0951085 1.0951085 0 0 0 -58.816345 92.196211 C -58.863645 91.072836 -59.668102 90.110014 -60.764546 89.860953 A 1.0951085 1.0951085 0 0 0 -60.81829 89.850101 L -65.185465 89.08684 C -65.334606 89.059119 -65.483064 89.049505 -65.628849 89.055834 z M -65.386486 91.27482 L -61.245654 91.999841 C -61.104651 92.03331 -61.012502 92.145527 -61.006392 92.290779 L -61.006392 95.528824 L -65.386486 95.528824 L -65.386486 91.27482 z M -65.386486 97.718871 L -61.006392 97.718871 L -61.006392 102.09845 L -65.386486 102.09845 L -65.386486 97.718871 z M -58.816345 97.859948 L -34.880338 100.77502 C -34.789128 100.78792 -34.731883 100.85009 -34.726342 100.94141 L -34.726342 102.09845 L -58.816345 102.09845 L -58.816345 97.859948 z M -67.576533 98.191194 L -67.576533 102.09845 L -74.146158 102.09845 L -74.146158 100.89439 A 1.0951085 1.0951085 0 0 0 -74.146158 100.85821 C -74.151658 100.69652 -74.058125 100.55913 -73.904829 100.50733 A 1.0951085 1.0951085 0 0 0 -73.878991 100.49855 L -67.576533 98.191194 z M -65.386486 104.2885 L -61.006392 104.2885 L -61.006392 130.45951 L -65.386486 130.45951 L -65.386486 104.2885 z M -80.720951 137.68491 L -80.720951 147.54012 L -78.079768 147.54012 L -78.079768 144.47932 L -76.288663 144.47932 C -75.81453 144.47932 -75.361889 144.39047 -74.93009 144.21267 C -74.489823 144.02641 -74.104288 143.77663 -73.774088 143.46337 C -73.435422 143.14163 -73.16887 142.76945 -72.974137 142.34612 C -72.770937 141.92279 -72.669246 141.46518 -72.669246 140.97411 C -72.669246 140.49151 -72.770937 140.04726 -72.974137 139.64086 C -73.16887 139.23446 -73.435422 138.88745 -73.774088 138.59958 C -74.104288 138.31171 -74.489823 138.0871 -74.93009 137.92624 C -75.361889 137.76537 -75.81453 137.68491 -76.288663 137.68491 L -80.720951 137.68491 z M -67.906746 138.92979 C -68.516345 138.92979 -69.092423 139.04826 -69.634289 139.28533 C -70.176155 139.51393 -70.650025 139.83132 -71.056424 140.23772 C -71.454357 140.63566 -71.771755 141.10559 -72.008821 141.64746 C -72.237421 142.18086 -72.351953 142.75248 -72.351953 143.36208 C -72.351953 143.97168 -72.237421 144.54724 -72.008821 145.08911 C -71.771755 145.63097 -71.454357 146.10091 -71.056424 146.49884 C -70.650025 146.89677 -70.176155 147.21417 -69.634289 147.45124 C -69.092423 147.67984 -68.516345 147.79437 -67.906746 147.79437 C -67.297146 147.79437 -66.721586 147.67984 -66.179719 147.45124 C -65.637853 147.21417 -65.167919 146.89677 -64.769986 146.49884 C -64.363587 146.10091 -64.046189 145.63097 -63.81759 145.08911 C -63.580523 144.54724 -63.462056 143.97168 -63.462056 143.36208 C -63.462056 142.75248 -63.580523 142.1764 -63.81759 141.63454 C -64.046189 141.09267 -64.363587 140.62274 -64.769986 140.2248 C -65.167919 139.82687 -65.637853 139.51393 -66.179719 139.28533 C -66.721586 139.04826 -67.297146 138.92979 -67.906746 138.92979 z M -39.573075 138.92979 C -40.182674 138.92979 -40.758235 139.04826 -41.300101 139.28533 C -41.841967 139.51393 -42.316354 139.83132 -42.722753 140.23772 C -43.120686 140.63566 -43.438084 141.10559 -43.67515 141.64746 C -43.90375 142.18086 -44.018281 142.75248 -44.018281 143.36208 C -44.018281 143.97168 -43.90375 144.54724 -43.67515 145.08911 C -43.438084 145.63097 -43.120686 146.10091 -42.722753 146.49884 C -42.316354 146.89677 -41.841967 147.21417 -41.300101 147.45124 C -40.758235 147.67984 -40.182674 147.79437 -39.573075 147.79437 C -38.963475 147.79437 -38.387915 147.67984 -37.846048 147.45124 C -37.304182 147.21417 -36.834248 146.89677 -36.436315 146.49884 C -36.029916 146.10091 -35.712518 145.63097 -35.483919 145.08911 C -35.246852 144.54724 -35.128385 143.97168 -35.128385 143.36208 C -35.128385 142.75248 -35.246852 142.1764 -35.483919 141.63454 C -35.712518 141.09267 -36.029916 140.62274 -36.436315 140.2248 C -36.834248 139.82687 -37.304182 139.51393 -37.846048 139.28533 C -38.387915 139.04826 -38.963475 138.92979 -39.573075 138.92979 z M -62.686909 139.17112 L -62.686909 147.54012 L -55.994295 147.54012 L -55.994295 145.41932 L -60.337699 145.41932 L -60.337699 139.17112 L -62.686909 139.17112 z M -54.927176 139.17112 L -54.927176 147.54012 L -52.476163 147.54012 L -52.476163 139.17112 L -54.927176 139.17112 z M -51.358919 139.17112 L -51.358919 141.13948 L -51.155314 141.34257 L -48.996789 141.34257 L -48.996789 147.54012 L -46.608821 147.54012 L -46.608821 141.34257 L -44.44978 141.34257 L -44.246691 141.13948 L -44.246691 139.17112 L -51.358919 139.17112 z M -78.016206 139.86927 L -76.479349 139.86927 C -76.326949 139.86927 -76.182801 139.89889 -76.047334 139.95815 C -75.911868 140.00895 -75.7934 140.08548 -75.6918 140.18708 C -75.5902 140.28021 -75.509738 140.39029 -75.450471 140.51729 C -75.391205 140.64429 -75.361588 140.78399 -75.361588 140.93639 C -75.361588 141.08879 -75.391205 141.22848 -75.450471 141.35548 C -75.509738 141.48248 -75.5902 141.5965 -75.6918 141.6981 C -75.7934 141.79123 -75.911868 141.86776 -76.047334 141.92703 C -76.182801 141.97783 -76.326949 142.00299 -76.479349 142.00299 L -78.016206 142.00299 L -78.016206 139.86927 z M -67.906746 141.22836 C -67.618879 141.22836 -67.352328 141.28759 -67.106795 141.40613 C -66.852795 141.51619 -66.637089 141.66873 -66.459289 141.86346 C -66.273022 142.0582 -66.128874 142.28674 -66.027274 142.54921 C -65.925674 142.80321 -65.874828 143.07421 -65.874828 143.36208 C -65.874828 143.64995 -65.925674 143.92489 -66.027274 144.18735 C -66.128874 144.44135 -66.273022 144.6699 -66.459289 144.8731 C -66.637089 145.06783 -66.852795 145.22482 -67.106795 145.34335 C -67.352328 145.45342 -67.618879 145.5082 -67.906746 145.5082 C -68.194612 145.5082 -68.465616 145.45342 -68.719616 145.34335 C -68.965149 145.22482 -69.180855 145.06783 -69.367122 144.8731 C -69.544922 144.6699 -69.68907 144.44135 -69.799137 144.18735 C -69.900737 143.92489 -69.951582 143.64995 -69.951582 143.36208 C -69.951582 143.07421 -69.900737 142.80321 -69.799137 142.54921 C -69.68907 142.28674 -69.544922 142.0582 -69.367122 141.86346 C -69.180855 141.66873 -68.965149 141.51619 -68.719616 141.40613 C -68.465616 141.28759 -68.194612 141.22836 -67.906746 141.22836 z M -39.573075 141.22836 C -39.285208 141.22836 -39.018657 141.28759 -38.773124 141.40613 C -38.519124 141.51619 -38.302901 141.66873 -38.125101 141.86346 C -37.938835 142.0582 -37.795203 142.28674 -37.693603 142.54921 C -37.592003 142.80321 -37.541157 143.07421 -37.541157 143.36208 C -37.541157 143.64995 -37.592003 143.92489 -37.693603 144.18735 C -37.795203 144.44135 -37.938835 144.6699 -38.125101 144.8731 C -38.302901 145.06783 -38.519124 145.22482 -38.773124 145.34335 C -39.018657 145.45342 -39.285208 145.5082 -39.573075 145.5082 C -39.860941 145.5082 -40.131945 145.45342 -40.385945 145.34335 C -40.631478 145.22482 -40.847184 145.06783 -41.033451 144.8731 C -41.211251 144.6699 -41.355399 144.44135 -41.465466 144.18735 C -41.567066 143.92489 -41.617911 143.64995 -41.617911 143.36208 C -41.617911 143.07421 -41.567066 142.80321 -41.465466 142.54921 C -41.355399 142.28674 -41.211251 142.0582 -41.033451 141.86346 C -40.847184 141.66873 -40.631478 141.51619 -40.385945 141.40613 C -40.131945 141.28759 -39.860941 141.22836 -39.573075 141.22836 z " /><g
       id="SVGRepo_tracerCarrier"
       stroke-linecap="round"
       stroke-linejoin="round"
       transform="matrix(1.094999,0,0,1.094999,85.454842,135.57643)"
       style="fill:#000000;stroke:#000000" /><path
       id="path3402"
       style="font-size:12.7px;font-family:PRIMETIME;-inkscape-font-specification:PRIMETIME;text-align:center;text-anchor:middle;white-space:pre;inline-size:99.4852;stroke-width:0.264583;fill:#000001;fill-opacity:0.24705882"
       d="M -101.53622 74.184907 L -105.18096 84.04012 L -67.576533 121.64454 L -67.576533 131.55505 C -67.576533 131.85705 -67.453723 132.13116 -67.255623 132.32916 L -60.413663 139.17112 L -62.686909 139.17112 L -62.686909 142.30685 L -64.737947 140.25581 C -64.748547 140.24581 -64.759286 140.2348 -64.769986 140.2248 C -65.167886 139.8268 -65.637921 139.51381 -66.179719 139.28481 C -66.721619 139.04781 -67.297146 138.92979 -67.906746 138.92979 C -68.516344 138.92979 -69.092389 139.04781 -69.634289 139.28481 C -70.176187 139.51381 -70.650026 139.83124 -71.056424 140.23824 C -71.234813 140.41663 -71.390993 140.61444 -71.537015 140.82167 L -73.585469 138.77321 C -73.645569 138.71321 -73.708588 138.6551 -73.774088 138.6001 C -74.104288 138.3121 -74.48979 138.08724 -74.93009 137.92624 C -75.361888 137.76524 -75.814465 137.68491 -76.288663 137.68491 L -80.720951 137.68491 L -80.720951 147.54012 L -38.417073 189.844 L 18.073536 189.844 L 18.073536 107.29555 L -13.550891 75.671121 L -15.582808 75.671121 L -17.097444 79.812987 L -20.406803 76.503629 C -20.466803 76.443529 -20.531156 76.386246 -20.599556 76.331546 C -20.760356 76.196146 -20.938057 76.081515 -21.132857 75.988415 C -21.327555 75.886815 -21.530522 75.810805 -21.742122 75.760005 C -21.945322 75.700705 -22.144803 75.671121 -22.339501 75.671121 L -26.708227 75.671121 L -26.708227 76.68708 L -27.724186 75.671121 L -30.20052 75.671121 L -30.20052 77.703039 L -32.232438 75.671121 L -34.709289 75.671121 L -34.709289 76.36927 L -35.407438 75.671121 L -42.519665 75.671121 L -42.519665 76.559956 L -43.4085 75.671121 L -50.520727 75.671121 L -50.520727 76.585278 L -51.434883 75.671121 L -58.076855 75.671121 L -58.076855 76.483992 L -58.889725 75.671121 L -66.001953 75.671121 L -66.001953 76.788366 L -67.119197 75.671121 L -69.570727 75.671121 L -69.570727 76.979052 L -70.878657 75.671121 L -73.380314 75.671121 L -73.380314 78.32574 L -76.034932 75.671121 L -78.536588 75.671121 L -78.536588 77.664798 L -79.501904 76.699482 C -79.976002 76.267684 -80.471103 75.950286 -80.987601 75.747086 C -81.504101 75.535386 -82.042141 75.429792 -82.600939 75.429792 C -83.210539 75.429792 -83.781647 75.548328 -84.315047 75.785326 C -84.848445 76.022426 -85.314379 76.344244 -85.712377 76.750642 C -86.101777 77.148642 -86.410853 77.61796 -86.639453 78.159858 C -86.653018 78.192735 -86.657211 78.228525 -86.669942 78.261661 L -88.427974 76.503629 C -88.488074 76.443529 -88.552427 76.386246 -88.620727 76.331546 C -88.781627 76.196146 -88.959328 76.081515 -89.154028 75.988415 C -89.348828 75.886815 -89.551593 75.810805 -89.763293 75.760005 C -89.966493 75.700705 -90.165356 75.671121 -90.360156 75.671121 L -94.729398 75.671121 L -94.729398 78.667838 L -99.212328 74.184907 L -101.53622 74.184907 z " /><path
       id="path2560"
       style="font-size:12.7px;font-family:PRIMETIME;-inkscape-font-specification:PRIMETIME;text-align:center;text-anchor:middle;white-space:pre;inline-size:99.4852;stroke-width:0.264583"
       d="m -101.53622,74.184907 -3.64525,9.855213 h 2.78122 l 0.50798,-1.358574 h 3.035475 l 0.50798,1.358574 h 2.781225 l -3.644738,-9.855213 z m 18.935281,1.244885 c -0.6096,0 -1.180708,0.118468 -1.714108,0.355534 -0.533399,0.237067 -0.999397,0.558917 -1.39733,0.965316 -0.389467,0.397933 -0.698476,0.86735 -0.927076,1.409216 -0.220133,0.533393 -0.330212,1.101089 -0.330212,1.702222 0,0.601133 0.110079,1.172241 0.330212,1.714107 0.2286,0.5334 0.537609,1.003334 0.927076,1.409733 0.397933,0.397933 0.863931,0.715847 1.39733,0.952914 0.5334,0.237066 1.104508,0.355534 1.714108,0.355534 0.685799,0 1.329498,-0.148085 1.930631,-0.444418 0.601133,-0.304799 1.138689,-0.749569 1.612822,-1.333768 l -1.86707,-1.54926 c -0.474133,0.626533 -1.032917,0.939478 -1.676383,0.939478 -0.2794,0 -0.537564,-0.05478 -0.77463,-0.164848 -0.237066,-0.110067 -0.444384,-0.258151 -0.622184,-0.444417 -0.169333,-0.186267 -0.304577,-0.40249 -0.406177,-0.648023 -0.09313,-0.254 -0.140043,-0.516099 -0.140043,-0.787032 0,-0.270933 0.05084,-0.529097 0.152445,-0.77463 0.1016,-0.245533 0.237361,-0.461756 0.406694,-0.648022 0.1778,-0.18626 0.385118,-0.334351 0.622184,-0.444417 0.237066,-0.110067 0.49523,-0.164848 0.77463,-0.164848 0.406399,0 0.82994,0.156479 1.270206,0.469739 l 1.81591,-1.60042 c -0.474133,-0.431799 -0.969231,-0.749196 -1.485697,-0.952396 -0.516466,-0.211667 -1.054539,-0.317294 -1.613338,-0.317294 z m -12.128459,0.241329 v 8.368999 h 2.45153 v -2.552816 h 1.485697 l 1.32085,2.552816 h 2.641699 l -1.955953,-3.758944 c 0.321733,-0.245533 0.575444,-0.546154 0.761711,-0.901754 0.186266,-0.364066 0.279569,-0.749602 0.279569,-1.156002 0,-0.253993 -0.03801,-0.503775 -0.114205,-0.749308 -0.0762,-0.245533 -0.186279,-0.47408 -0.330212,-0.685746 -0.118533,-0.169333 -0.262682,-0.321353 -0.432015,-0.45682 -0.160866,-0.135466 -0.338568,-0.249998 -0.533301,-0.343131 -0.194733,-0.1016 -0.397598,-0.17761 -0.609265,-0.22841 -0.2032,-0.05927 -0.40213,-0.08888 -0.596863,-0.08888 z m 16.19281,0 v 8.368999 h 2.501656 v -3.022555 h 2.654618 v 3.022555 h 2.501657 v -8.368999 h -2.501657 v 3.086117 h -2.654618 v -3.086117 z m 8.965861,0 v 8.368999 h 2.45153 v -8.368999 z m 3.568774,0 v 1.968356 l 0.203089,0.203088 h 2.159041 v 6.197555 h 2.387968 v -6.197555 h 2.159041 l 0.203089,-0.203088 v -1.968356 z m 7.925098,0 v 8.368999 h 6.641972 v -2.107882 h -4.432288 V 80.90336 h 4.190959 v -2.108398 h -4.190959 v -1.028361 h 4.432288 v -2.09548 z m 7.556128,0 v 1.968356 l 0.203605,0.203088 h 2.158525 v 6.197555 h 2.387968 v -6.197555 h 2.159041 l 0.203088,-0.203088 v -1.968356 z m 8.001062,0 v 1.968356 l 0.203088,0.203088 h 2.159042 v 6.197555 h 2.387968 v -6.197555 h 2.159041 l 0.203088,-0.203088 v -1.968356 z m 7.810376,0 v 5.27048 c 0,0.389466 0.06369,0.757709 0.190686,1.104842 0.127,0.338666 0.304701,0.647675 0.533301,0.927075 0.2286,0.270933 0.495668,0.507868 0.800468,0.711068 0.3048,0.2032 0.634521,0.355736 0.99012,0.457336 0.1524,0.04233 0.309389,0.07589 0.470256,0.101286 0.169333,0.03387 0.338646,0.05116 0.507979,0.05116 0.169333,0 0.334194,-0.01729 0.49506,-0.05116 0.169334,-0.0254 0.330258,-0.05895 0.482658,-0.101286 0.3556,-0.1016 0.685838,-0.254136 0.990637,-0.457336 0.313267,-0.2032 0.579818,-0.440135 0.799952,-0.711068 0.228599,-0.2794 0.406817,-0.588409 0.533817,-0.927075 0.127,-0.347133 0.190169,-0.715376 0.190169,-1.104842 v -5.27048 h -2.476334 v 5.143356 c 0,0.135466 -0.02962,0.262322 -0.08888,0.380855 -0.0508,0.110067 -0.122874,0.207305 -0.216007,0.291972 -0.09313,0.08467 -0.203213,0.152805 -0.330213,0.203605 -0.118533,0.0508 -0.245388,0.07596 -0.380855,0.07596 -0.135466,0 -0.266774,-0.02516 -0.393774,-0.07596 -0.118534,-0.0508 -0.22416,-0.118939 -0.317294,-0.203605 -0.09313,-0.08467 -0.16966,-0.181905 -0.228926,-0.291972 -0.0508,-0.118533 -0.07597,-0.245389 -0.07597,-0.380855 v -5.143356 z m 8.001062,0 v 8.368999 h 2.451013 V 81.487304 H -22.771 l 1.32085,2.552816 h 2.641699 l -1.955953,-3.758944 c 0.321733,-0.245533 0.575444,-0.546154 0.761711,-0.901754 0.186266,-0.364066 0.279569,-0.749602 0.279569,-1.156002 0,-0.253993 -0.03801,-0.503775 -0.114204,-0.749308 -0.0762,-0.245533 -0.18628,-0.47408 -0.330213,-0.685746 -0.118533,-0.169333 -0.262682,-0.321353 -0.432015,-0.45682 -0.160866,-0.135466 -0.338568,-0.249998 -0.533301,-0.343131 -0.194733,-0.1016 -0.397598,-0.17761 -0.609265,-0.22841 -0.2032,-0.05927 -0.402646,-0.08888 -0.597379,-0.08888 z m 11.125419,0 -3.060795,8.368999 h 2.463932 l 0.419096,-1.130164 h 2.387451 l 0.419096,1.130164 h 2.463933 l -3.060796,-8.368999 z m -76.69506,1.955437 h 1.231449 c 0.220133,0 0.410675,0.07653 0.571542,0.228926 0.160866,0.1524 0.241329,0.338496 0.241329,0.558622 0,0.220134 -0.08046,0.410675 -0.241329,0.571542 -0.160867,0.1524 -0.351409,0.22841 -0.571542,0.22841 h -1.231449 z m 68.020654,0 h 1.231966 c 0.220134,0 0.410675,0.07653 0.571542,0.228926 0.160866,0.1524 0.241329,0.338496 0.241329,0.558622 0,0.220134 -0.08046,0.410675 -0.241329,0.571542 -0.160867,0.1524 -0.351408,0.22841 -0.571542,0.22841 h -1.231966 z m -76.110596,0.165364 0.774626,2.603459 h -1.562176 z m 85.800961,1.422136 0.533301,1.62574 h -1.066602 z m -51.062,9.841776 c -1.020493,0.0443 -1.907826,0.881904 -1.947684,1.943034 a 1.0951085,1.0951085 0 0 0 0,0.04082 v 4.818311 l -7.029545,2.575037 c -1.060013,0.35826 -1.767915,1.379765 -1.730127,2.498044 v 1.16737 l 0.0021,-0.0661 c -0.07556,1.25653 0.997594,2.32966 2.254126,2.25413 l -0.06615,0.002 h 6.569625 v 27.26603 a 1.0951085,1.0951085 0 0 0 1.095023,1.09503 h 6.474024 a 1.0951085,1.0951085 0 0 0 0.09612,0.094 1.0951085,1.0951085 0 0 0 1.095023,-1.08004 v -0.10904 -27.26603 h 18.614885 v 12.54548 c -0.05628,1.28278 0.676602,2.47818 1.843815,3.01326 a 1.0951085,1.0951085 0 0 0 0.03824,0.0176 c 1.06875,0.4403 1.430286,1.33205 1.334802,2.23914 -0.09494,0.90171 -0.63275,1.68943 -1.755965,1.90324 -1.364872,0.20394 -2.557363,-0.81363 -2.555917,-2.19625 a 1.094999,1.094999 0 0 0 -1.092956,-1.09709 1.094999,1.094999 0 0 0 -1.097091,1.09244 c -0.0033,2.69131 2.437633,4.78363 5.096847,4.36924 a 1.0951085,1.0951085 0 0 0 0.02739,-0.004 c 2.073225,-0.37946 3.372054,-2.08307 3.556889,-3.83904 0.184847,-1.75598 -0.731161,-3.69041 -2.67994,-4.49326 l 0.04082,0.0171 c -0.363024,-0.16643 -0.584399,-0.52915 -0.56689,-0.92811 a 1.0951085,1.0951085 0 0 0 0,-0.047 v -12.59252 a 1.094999,1.094999 0 0 0 0,-5.1e-4 h 3.285071 c 1.196526,0 2.190047,-0.99352 2.190047,-2.19005 v -1.20406 a 1.0951085,1.0951085 0 0 0 -0.0021,-0.0491 c -0.05114,-1.131992 -0.911973,-2.080652 -2.033984,-2.239148 a 1.0951085,1.0951085 0 0 0 -0.0217,-0.0041 l -24.222295,-2.947106 v -3.411678 a 1.0951085,1.0951085 0 0 0 0,-0.04703 c -0.0473,-1.123375 -0.851757,-2.086197 -1.948201,-2.335258 a 1.0951085,1.0951085 0 0 0 -0.05374,-0.01085 l -4.367175,-0.763261 c -0.149141,-0.02772 -0.297599,-0.03733 -0.443384,-0.03101 z m 0.242363,2.218986 4.140832,0.725021 c 0.141003,0.03347 0.233152,0.145686 0.239262,0.290938 v 3.238045 h -4.380094 z m 0,6.444051 h 4.380094 v 4.379579 h -4.380094 z m 6.570141,0.141077 23.936007,2.915072 c 0.09121,0.0129 0.148455,0.0751 0.153996,0.16639 v 1.15704 h -24.090003 z m -8.760188,0.331246 v 3.907256 h -6.569625 v -1.20406 a 1.0951085,1.0951085 0 0 0 0,-0.0362 c -0.0055,-0.16169 0.08803,-0.29908 0.241329,-0.35088 a 1.0951085,1.0951085 0 0 0 0.02584,-0.009 z m 2.190047,6.097306 h 4.380094 v 26.17101 h -4.380094 z m -15.334465,33.39641 v 9.85521 h 2.641183 v -3.0608 h 1.791105 c 0.474133,0 0.926774,-0.0889 1.358573,-0.26665 0.440267,-0.18626 0.825802,-0.43604 1.156002,-0.7493 0.338666,-0.32174 0.605218,-0.69392 0.799951,-1.11725 0.2032,-0.42333 0.304891,-0.88094 0.304891,-1.37201 0,-0.4826 -0.101691,-0.92685 -0.304891,-1.33325 -0.194733,-0.4064 -0.461285,-0.75341 -0.799951,-1.04128 -0.3302,-0.28787 -0.715735,-0.51248 -1.156002,-0.67334 -0.431799,-0.16087 -0.88444,-0.24133 -1.358573,-0.24133 z m 12.814205,1.24488 c -0.609599,0 -1.185677,0.11847 -1.727543,0.35554 -0.541866,0.2286 -1.015736,0.54599 -1.422135,0.95239 -0.397933,0.39794 -0.715331,0.86787 -0.952397,1.40974 -0.2286,0.5334 -0.343132,1.10502 -0.343132,1.71462 0,0.6096 0.114532,1.18516 0.343132,1.72703 0.237066,0.54186 0.554464,1.0118 0.952397,1.40973 0.406399,0.39793 0.880269,0.71533 1.422135,0.9524 0.541866,0.2286 1.117944,0.34313 1.727543,0.34313 0.6096,0 1.18516,-0.11453 1.727027,-0.34313 0.541866,-0.23707 1.0118,-0.55447 1.409733,-0.9524 0.406399,-0.39793 0.723797,-0.86787 0.952396,-1.40973 0.237067,-0.54187 0.355534,-1.11743 0.355534,-1.72703 0,-0.6096 -0.118467,-1.18568 -0.355534,-1.72754 -0.228599,-0.54187 -0.545997,-1.0118 -0.952396,-1.40974 -0.397933,-0.39793 -0.867867,-0.71087 -1.409733,-0.93947 -0.541867,-0.23707 -1.117427,-0.35554 -1.727027,-0.35554 z m 28.333671,0 c -0.609599,0 -1.18516,0.11847 -1.727026,0.35554 -0.541866,0.2286 -1.016253,0.54599 -1.422652,0.95239 -0.397933,0.39794 -0.715331,0.86787 -0.952397,1.40974 -0.2286,0.5334 -0.343131,1.10502 -0.343131,1.71462 0,0.6096 0.114531,1.18516 0.343131,1.72703 0.237066,0.54186 0.554464,1.0118 0.952397,1.40973 0.406399,0.39793 0.880786,0.71533 1.422652,0.9524 0.541866,0.2286 1.117427,0.34313 1.727026,0.34313 0.6096,0 1.18516,-0.11453 1.727027,-0.34313 0.541866,-0.23707 1.0118,-0.55447 1.409733,-0.9524 0.406399,-0.39793 0.723797,-0.86787 0.952396,-1.40973 0.237067,-0.54187 0.355534,-1.11743 0.355534,-1.72703 0,-0.6096 -0.118467,-1.18568 -0.355534,-1.72754 -0.228599,-0.54187 -0.545997,-1.0118 -0.952396,-1.40974 -0.397933,-0.39793 -0.867867,-0.71087 -1.409733,-0.93947 -0.541867,-0.23707 -1.117427,-0.35554 -1.727027,-0.35554 z m -23.113834,0.24133 v 8.369 h 6.692614 v -2.1208 h -4.343404 v -6.2482 z m 7.759733,0 v 8.369 h 2.451013 v -8.369 z m 3.568257,0 v 1.96836 l 0.203605,0.20309 h 2.158525 v 6.19755 h 2.387968 v -6.19755 h 2.159041 l 0.203089,-0.20309 v -1.96836 z m -26.657287,0.69815 h 1.536857 c 0.1524,0 0.296548,0.0296 0.432015,0.0889 0.135466,0.0508 0.253934,0.12733 0.355534,0.22893 0.1016,0.0931 0.182062,0.20321 0.241329,0.33021 0.05927,0.127 0.08888,0.2667 0.08888,0.4191 0,0.1524 -0.02962,0.29209 -0.08888,0.41909 -0.05927,0.127 -0.139729,0.24102 -0.241329,0.34262 -0.1016,0.0931 -0.220068,0.16966 -0.355534,0.22893 -0.135467,0.0508 -0.279615,0.076 -0.432015,0.076 h -1.536857 z m 10.10946,1.35909 c 0.287867,0 0.554418,0.0592 0.799951,0.17777 0.254,0.11006 0.469706,0.2626 0.647506,0.45733 0.186267,0.19474 0.330415,0.42328 0.432015,0.68575 0.1016,0.254 0.152446,0.525 0.152446,0.81287 0,0.28787 -0.05085,0.56281 -0.152446,0.82527 -0.1016,0.254 -0.245748,0.48255 -0.432015,0.68575 -0.1778,0.19473 -0.393506,0.35172 -0.647506,0.47025 -0.245533,0.11007 -0.512084,0.16485 -0.799951,0.16485 -0.287866,0 -0.55887,-0.0548 -0.81287,-0.16485 -0.245533,-0.11853 -0.461239,-0.27552 -0.647506,-0.47025 -0.1778,-0.2032 -0.321948,-0.43175 -0.432015,-0.68575 -0.1016,-0.26246 -0.152445,-0.5374 -0.152445,-0.82527 0,-0.28787 0.05084,-0.55887 0.152445,-0.81287 0.110067,-0.26247 0.254215,-0.49101 0.432015,-0.68575 0.186267,-0.19473 0.401973,-0.34727 0.647506,-0.45733 0.254,-0.11854 0.525004,-0.17777 0.81287,-0.17777 z m 28.333671,0 c 0.287867,0 0.554418,0.0592 0.799951,0.17777 0.254,0.11006 0.470223,0.2626 0.648023,0.45733 0.186266,0.19474 0.329898,0.42328 0.431498,0.68575 0.1016,0.254 0.152446,0.525 0.152446,0.81287 0,0.28787 -0.05085,0.56281 -0.152446,0.82527 -0.1016,0.254 -0.245232,0.48255 -0.431498,0.68575 -0.1778,0.19473 -0.394023,0.35172 -0.648023,0.47025 -0.245533,0.11007 -0.512084,0.16485 -0.799951,0.16485 -0.287866,0 -0.55887,-0.0548 -0.81287,-0.16485 -0.245533,-0.11853 -0.461239,-0.27552 -0.647506,-0.47025 -0.1778,-0.2032 -0.321948,-0.43175 -0.432015,-0.68575 -0.1016,-0.26246 -0.152445,-0.5374 -0.152445,-0.82527 0,-0.28787 0.05085,-0.55887 0.152445,-0.81287 0.110067,-0.26247 0.254215,-0.49101 0.432015,-0.68575 0.186267,-0.19473 0.401973,-0.34727 0.647506,-0.45733 0.254,-0.11854 0.525004,-0.17777 0.81287,-0.17777 z" /></g></svg>
