<?xml version="1.0" encoding="UTF-8" standalone="no"?>
<svg
   xmlns:dc="http://purl.org/dc/elements/1.1/"
   xmlns:cc="http://creativecommons.org/ns#"
   xmlns:rdf="http://www.w3.org/1999/02/22-rdf-syntax-ns#"
   xmlns:svg="http://www.w3.org/2000/svg"
   xmlns="http://www.w3.org/2000/svg"
   xmlns:sodipodi="http://sodipodi.sourceforge.net/DTD/sodipodi-0.dtd"
   xmlns:inkscape="http://www.inkscape.org/namespaces/inkscape"
   width="67.733322mm"
   height="67.733322mm"
   viewBox="0 0 67.733324 67.733323"
   version="1.1"
   id="svg27864"
   inkscape:version="1.0 (4035a4fb49, 2020-05-01)"
   sodipodi:docname="case_scalable.svg">
  <defs
     id="defs27858">
    <clipPath
       id="clipPath1698-3"
       clipPathUnits="userSpaceOnUse">
      <rect
         ry="64.06395"
         rx="64.06395"
         y="19470.865"
         x="-29147.879"
         height="772.966"
         width="1200"
         id="rect1700-6"
         style="opacity:0.604;fill:#26a10d;fill-opacity:0.985;stroke:#d32f2f;stroke-width:0;stroke-linecap:round;stroke-linejoin:bevel;stroke-miterlimit:4;stroke-dasharray:none;stroke-dashoffset:0;stroke-opacity:0.94;paint-order:fill markers stroke" />
    </clipPath>
    <clipPath
       clipPathUnits="userSpaceOnUse"
       id="clipPath29374">
      <rect
         y="7264.1074"
         x="-18040.27"
         height="2048"
         width="2048"
         id="rect29376"
         style="opacity:1;fill:#014c77;fill-opacity:1;stroke:none;stroke-width:4.4;stroke-linecap:round;stroke-linejoin:bevel;stroke-miterlimit:4;stroke-dasharray:none;stroke-dashoffset:0;stroke-opacity:1;paint-order:fill markers stroke" />
    </clipPath>
    <clipPath
       clipPathUnits="userSpaceOnUse"
       id="clipPath1237">
      <g
         id="g1245">
        <rect
           style="opacity:1;fill:#e1f5fe;fill-opacity:1;stroke:none;stroke-width:4.4;stroke-linecap:round;stroke-linejoin:bevel;stroke-miterlimit:4;stroke-dasharray:none;stroke-dashoffset:0;stroke-opacity:1;paint-order:fill markers stroke"
           id="rect1239"
           width="1083.2383"
           height="98.791946"
           x="-17557.889"
           y="8911.8291"
           rx="28.853754"
           ry="28.853754" />
        <rect
           style="opacity:1;fill:#e1f5fe;fill-opacity:1;stroke:none;stroke-width:4.4;stroke-linecap:round;stroke-linejoin:bevel;stroke-miterlimit:4;stroke-dasharray:none;stroke-dashoffset:0;stroke-opacity:1;paint-order:fill markers stroke"
           id="rect1241"
           width="713.43213"
           height="66.819221"
           x="-17372.984"
           y="8984.541"
           rx="28.853802"
           ry="28.8538" />
        <path
           inkscape:connector-curvature="0"
           style="opacity:1;fill:#e1f5fe;fill-opacity:1;stroke:none;stroke-width:4.4;stroke-linecap:round;stroke-linejoin:bevel;stroke-miterlimit:4;stroke-dasharray:none;stroke-dashoffset:0;stroke-opacity:1;paint-order:fill markers stroke"
           d="m -17324.329,8432.3038 c -18.32,0 -33.343,14.4272 -35.635,33.2188 h -0.312 v 5.0019 30.5742 132.9981 c 0,163.6929 123.952,295.4765 277.918,295.4765 h 132.179 c 122.164,0 225.42,-82.9726 262.867,-199.0156 a 129.26388,129.26388 0 0 0 15.041,1.0391 129.26388,129.26388 0 0 0 129.264,-129.2637 129.26388,129.26388 0 0 0 -129.256,-129.2637 v -2.5449 -5.0019 h -0.314 c -2.292,-18.7916 -17.314,-33.2188 -35.633,-33.2188 z m 652.066,103.461 a 66.567536,66.567536 0 0 1 66.561,66.5683 66.567536,66.567536 0 0 1 -66.569,66.5664 66.567536,66.567536 0 0 1 -1.892,-0.094 c 1.242,-11.3827 1.9,-22.9607 1.9,-34.709 z"
           id="path1243" />
      </g>
    </clipPath>
  </defs>
  <sodipodi:namedview
     id="base"
     pagecolor="#ffffff"
     bordercolor="#666666"
     borderopacity="1.0"
     inkscape:pageopacity="0.0"
     inkscape:pageshadow="2"
     inkscape:zoom="0.32"
     inkscape:cx="874.86181"
     inkscape:cy="759.19205"
     inkscape:document-units="mm"
     inkscape:current-layer="layer1"
     inkscape:document-rotation="0"
     showgrid="false"
     fit-margin-top="0"
     fit-margin-left="0"
     fit-margin-right="0"
     fit-margin-bottom="0"
     inkscape:window-width="1336"
     inkscape:window-height="1029"
     inkscape:window-x="576"
     inkscape:window-y="24"
     inkscape:window-maximized="0"
     inkscape:snap-global="false" />
  <metadata
     id="metadata27861">
    <rdf:RDF>
      <cc:Work
         rdf:about="">
        <dc:format>image/svg+xml</dc:format>
        <dc:type
           rdf:resource="http://purl.org/dc/dcmitype/StillImage" />
        <dc:title></dc:title>
        <cc:license
           rdf:resource="http://creativecommons.org/licenses/by-sa/4.0/" />
      </cc:Work>
      <cc:License
         rdf:about="http://creativecommons.org/licenses/by-sa/4.0/">
        <cc:permits
           rdf:resource="http://creativecommons.org/ns#Reproduction" />
        <cc:permits
           rdf:resource="http://creativecommons.org/ns#Distribution" />
        <cc:requires
           rdf:resource="http://creativecommons.org/ns#Notice" />
        <cc:requires
           rdf:resource="http://creativecommons.org/ns#Attribution" />
        <cc:permits
           rdf:resource="http://creativecommons.org/ns#DerivativeWorks" />
        <cc:requires
           rdf:resource="http://creativecommons.org/ns#ShareAlike" />
      </cc:License>
    </rdf:RDF>
  </metadata>
  <g
     inkscape:label="Livello 1"
     inkscape:groupmode="layer"
     id="layer1"
     transform="translate(3846.3932,3933.5686)">
    <g
       id="g27049"
       transform="matrix(0.03307292,0,0,0.03307292,-4003.6184,-4130.3721)">
      <rect
         inkscape:export-ydpi="96"
         inkscape:export-xdpi="96"
         inkscape:export-filename="/home/fjall/Icone/PNG/Altro/case.png"
         style="fill:#50c1e9;fill-opacity:1;stroke:none;stroke-width:37.5;stroke-linecap:round;stroke-linejoin:bevel;stroke-miterlimit:4;stroke-dasharray:none;stroke-dashoffset:0;stroke-opacity:0.0745098;paint-order:stroke markers fill"
         id="rect1128"
         width="2047.9995"
         height="2047.9995"
         x="4753.896"
         y="5950.5947" />
      <path
         inkscape:export-ydpi="96"
         inkscape:export-xdpi="96"
         inkscape:export-filename="/home/fjall/Icone/PNG/Altro/case.png"
         style="fill:#000001;fill-opacity:0.145098;stroke:none;stroke-width:37.5;stroke-linecap:round;stroke-linejoin:bevel;stroke-miterlimit:4;stroke-dasharray:none;stroke-dashoffset:0;stroke-opacity:0.0745098;paint-order:stroke markers fill"
         d="m 5780.9968,6549.0756 v 0 c 0,0 -1.1169,0.6805 -1.1172,0.6807 -0.5442,0.3316 -557.7936,339.8974 -557.7936,339.8974 0,0 0.05,0.073 0.05,0.073 0.106,0.1431 27.232,36.7724 27.232,36.7724 0,0 0.583,-0.3562 0.852,-0.5205 0.356,0.4802 2.302,3.1084 2.302,3.1084 0,0 0.442,-0.2701 0.852,-0.5195 0.355,0.4799 2.299,3.1045 2.299,3.1045 0,0 0.517,-0.3152 0.851,-0.5186 0.355,0.4796 2.296,3.1006 2.296,3.1006 0,0 0.578,-0.3523 0.851,-0.5185 0.355,0.4796 2.294,3.0976 2.294,3.0976 0,0 0.62,-0.3782 0.849,-0.5176 0.355,0.4797 2.292,3.0948 2.292,3.0948 0,0 0.652,-0.3972 0.848,-0.5166 0.355,0.4797 2.29,3.0918 2.29,3.0918 0,0 0.676,-0.412 0.848,-0.5166 0.355,0.4794 2.287,3.0879 2.287,3.0879 0,0 0.694,-0.4228 0.846,-0.5157 0.355,0.4795 2.286,3.085 2.286,3.085 0,0 0.708,-0.4322 0.845,-0.5156 0.355,0.4797 2.283,3.083 2.283,3.083 0,0 0.722,-0.4398 0.846,-0.5156 0.355,0.4794 2.28,3.0791 2.28,3.0791 0,0 0.73,-0.4454 0.844,-0.5147 0.355,0.4795 2.278,3.0762 2.278,3.0762 0,0 0.739,-0.4499 0.843,-0.5137 0.355,0.4795 2.277,3.0732 2.277,3.0732 0,0 0.745,-0.4544 0.842,-0.5136 0.355,0.4792 2.274,3.0693 2.274,3.0693 0,0 0.751,-0.4576 0.842,-0.5127 0.354,0.4793 2.271,3.0664 2.271,3.0664 0,0 0.756,-0.4601 0.841,-0.5117 0.355,0.4791 2.268,3.0635 2.268,3.0635 0,0 0.761,-0.4633 0.84,-0.5117 0.355,0.4791 2.267,3.0605 2.267,3.0605 0,0 0.765,-0.466 0.84,-0.5117 0.354,0.4791 2.263,3.0576 2.263,3.0576 0,0 0.768,-0.4675 0.839,-0.5107 0.355,0.4789 2.262,3.0537 2.262,3.0537 0,0 0.771,-0.4698 0.838,-0.5108 l 2.26,3.0518 c 0,0 0.773,-0.4708 0.837,-0.5098 0.354,0.4789 2.256,3.0479 2.256,3.0479 0,0 0.775,-0.4717 0.836,-0.5088 0.355,0.4789 2.255,3.0449 2.255,3.0449 0,0 0.777,-0.4733 0.835,-0.5088 0.355,0.479 2.253,3.042 2.253,3.042 0,0 0.778,-0.4739 0.834,-0.5078 0.355,0.4787 2.25,3.0381 2.25,3.0381 0,0 0.781,-0.4753 0.834,-0.5078 0.355,0.4787 2.248,3.0351 2.248,3.0351 0,0 0.781,-0.4757 0.832,-0.5068 0.355,0.4787 2.246,3.0322 2.246,3.0322 0,0 0.782,-0.4769 0.831,-0.5068 0.355,0.4789 2.244,3.0303 2.244,3.0303 0,0 0.783,-0.4771 0.83,-0.5059 0.355,0.4787 2.242,3.0264 2.242,3.0264 0,0 0.785,-0.478 0.831,-0.5059 0.354,0.4784 2.238,3.0225 2.238,3.0225 0,0 0.784,-0.4781 0.828,-0.5049 0.305,0.4114 1.877,2.5331 1.923,2.5957 v 403.9512 h 0.883 2.271 v 2.587 h 1.765 1.386 v 2.585 h 2.644 0.503 v 2.582 h 3.145 v 2.58 h 3.141 v 2.577 h 3.138 v 2.574 h 3.1348 v 2.573 h 3.1318 v 2.569 h 3.1289 v 2.566 h 3.125 v 2.565 h 3.1231 v 2.561 h 3.1191 v 2.559 h 3.1152 v 2.557 h 3.1133 v 2.553 h 3.1094 v 2.551 h 3.1064 v 2.549 h 3.1035 v 2.546 h 3.0997 v 2.544 h 3.0976 v 2.54 h 3.0938 v 2.539 h 3.0908 v 2.535 h 3.0879 v 2.533 h 3.084 v 2.531 h 3.081 v 2.528 h 3.0781 v 2.525 h 3.0801 v 2.523 h 3.0723 v 2.52 h 3.0683 v 2.518 h 3.0655 v 2.514 h 3.0625 v 2.513 h 3.0586 v 2.51 h 3.0566 v 2.507 h 3.0527 v 2.505 h 3.0498 v 2.502 h 3.0459 v 2.499 h 3.044 v 2.497 h 3.04 v 2.494 h 3.0371 v 2.492 h 3.0342 v 2.488 h 3.0303 v 2.487 h 3.0283 v 2.484 h 3.0244 v 2.481 h 3.0205 v 2.479 h 3.0186 v 2.476 h 3.0146 v 2.474 h 3.0117 v 2.471 h 3.0088 v 2.468 h 3.0059 v 2.465 h 3.0029 v 2.463 h 2.9991 v 2.461 h 2.996 v 2.458 h 2.9932 v 2.455 h 2.9893 v 2.453 h 2.9873 v 2.451 h 2.9834 v 2.447 h 2.9804 v 2.445 h 2.9766 v 2.443 h 2.9746 v 2.44 h 2.9707 v 2.437 h 2.9677 v 2.434 h 2.9649 v 2.433 h 2.9609 v 2.429 h 2.959 v 2.427 h 2.9551 v 2.424 h 2.9521 v 2.422 h 2.9483 v 2.42 h 2.9463 v 2.416 h 2.9423 v 2.414 h 2.9395 v 2.411 h 2.9355 v 2.409 h 2.9336 v 2.406 h 2.9297 v 2.404 h 2.9268 v 2.401 h 2.9238 v 2.399 h 2.9209 v 2.395 h 2.917 v 2.394 h 2.9131 v 2.39 h 2.9111 v 2.388 h 2.9082 v 2.386 h 2.9043 v 2.384 h 2.9014 v 2.379 h 2.8984 v 2.378 h 2.8955 v 2.375 h 2.8926 v 2.372 h 2.8887 v 2.371 h 2.8857 v 2.368 h 2.8819 v 2.364 h 2.8798 v 2.362 h 2.876 v 2.36 h 2.8731 v 2.357 h 2.8701 v 2.355 h 2.8672 v 2.351 h 2.8633 v 2.35 h 2.8603 v 2.346 h 2.8574 v 2.344 h 2.8545 v 2.342 h 2.8506 v 2.339 h 2.8486 v 2.336 h 2.8448 v 2.334 h 2.8408 v 2.331 h 2.8389 v 2.328 h 2.8349 v 2.326 h 2.832 v 2.323 h 2.8291 v 2.322 h 2.8262 v 2.318 h 2.8223 v 2.315 h 2.8193 v 2.313 h 2.8164 v 2.31 h 2.8135 v 2.309 h 2.8096 v 2.305 h 2.8066 v 2.302 h 2.8037 v 2.3 h 2.8008 v 2.298 h 2.7969 v 2.295 h 2.7949 v 2.292 h 2.791 v 2.29 h 2.7871 v 2.287 h 2.7852 v 2.284 h 2.7812 v 2.283 h 2.7793 v 2.279 h 2.7744 v 2.276 h 2.7725 v 2.276 h 2.7695 v 2.271 h 2.7657 v 2.269 h 2.7627 v 2.266 h 2.7597 v 2.264 h 2.7559 v 2.262 h 2.7529 v 2.257 h 2.75 v 2.257 h 2.7471 v 2.253 h 2.7441 v 2.251 h 2.7403 v 2.248 h 2.7373 v 2.246 h 2.7343 v 2.245 h 2.7315 v 2.24 h 2.7284 v 2.238 h 2.7247 v 2.234 h 2.7207 v 2.233 h 2.7187 v 2.23 h 2.7158 v 2.228 h 2.7119 v 2.225 h 2.709 v 2.222 h 2.7051 v 2.221 h 2.7031 v 2.217 h 2.6992 v 2.214 h 2.6963 v 2.212 h 2.6934 v 2.209 h 2.6904 v 2.207 h 2.6866 v 2.205 h 2.6845 v 2.202 h 2.6807 v 2.199 h 2.6767 v 2.197 h 2.6748 v 2.193 h 2.6709 v 2.192 h 2.668 v 2.188 h 2.6651 v 2.187 h 2.6611 v 2.183 h 2.664 v 2.182 h 2.6504 v 2.178 h 2.6524 v 2.176 h 2.6543 v 2.172 h 2.6455 v 2.171 h 2.6426 v 2.168 h 2.6396 v 2.166 h 2.6367 v 2.162 h 2.6328 v 2.161 h 2.6309 v 2.158 h 2.627 v 2.155 h 2.624 v 2.152 h 2.6201 v 2.15 h 2.6172 v 2.147 h 2.6152 v 2.146 h 2.6104 v 2.141 h 2.6084 v 2.14 h 2.6045 v 2.137 h 2.6025 v 2.135 h 2.5977 v 2.131 h 2.5957 v 2.129 h 2.5918 v 2.127 h 2.5898 v 2.124 h 2.5859 v 2.121 h 2.5821 v 2.12 h 2.58 v 2.117 h 2.5762 v 2.113 h 2.5733 v 2.11 h 2.5703 v 2.11 h 2.5674 v 2.105 h 2.5634 v 2.104 h 2.5616 v 2.1 h 2.5566 v 2.099 h 2.5547 v 2.095 h 2.5517 v 2.092 h 2.5479 v 2.092 h 2.5449 v 2.087 h 2.542 v 2.086 h 2.5381 v 2.082 h 2.5361 v 2.08 h 2.5323 v 2.077 h 2.5283 v 2.076 h 2.5263 v 2.072 h 2.5235 v 2.07 h 2.5195 v 2.067 h 2.5166 v 2.064 h 2.5127 v 2.062 h 2.5098 v 2.059 h 2.5078 v 2.057 h 2.5039 v 2.054 h 2.501 v 2.052 h 2.497 v 2.049 h 2.4952 v 2.046 h 2.4912 v 2.044 h 2.4882 v 2.041 h 2.4844 v 2.039 h 2.4815 v 2.036 h 2.4785 v 2.033 h 2.4756 v 2.03 h 2.4726 v 2.029 h 2.4698 v 2.026 h 2.4658 v 2.024 h 2.4629 v 2.02 h 2.4599 v 2.018 h 2.4561 v 2.015 h 2.4531 v 2.012 h 2.4511 v 2.011 h 2.4463 v 2.008 h 2.4444 v 2.004 h 2.4404 v 2.002 h 2.4385 v 2 h 2.4336 v 1.998 h 2.4316 v 1.995 h 2.4287 v 1.991 h 2.4238 v 1.99 h 2.4229 v 1.986 h 2.4189 v 1.985 h 2.4151 v 1.981 h 2.4131 v 1.98 h 2.4091 v 1.975 h 2.4053 v 1.975 h 2.4033 v 1.972 h 2.3994 v 1.967 h 2.3975 v 1.967 h 2.3936 v 1.964 h 2.3896 v 1.961 h 2.3877 v 1.958 h 2.3838 v 1.956 h 2.3809 v 1.953 h 2.3779 v 1.95 h 2.374 v 1.949 h 2.3711 v 1.945 h 2.3691 v 1.943 h 2.3643 v 1.941 h 2.3623 v 1.937 h 2.3584 v 1.936 h 2.3564 v 1.932 h 2.3516 v 1.929 h 2.3496 v 1.927 h 2.3467 v 1.926 h 2.3428 v 1.921 h 2.3398 v 1.92 h 2.3369 v 1.917 h 2.333 v 1.914 h 2.3301 v 1.912 h 2.3272 v 1.909 h 2.3242 v 1.908 h 2.3213 v 1.366 h 737.2342 v -729.408 c -0.069,-0.04 -0.3101,-0.189 -0.3213,-0.195 0.01,-0.01 0.2861,-0.386 0.2861,-0.386 0,0 -2.838,-1.729 -2.9414,-1.792 0.01,-0.01 0.2852,-0.386 0.2852,-0.386 0,0 -2.8411,-1.731 -2.9453,-1.795 0.01,-0.01 0.2871,-0.387 0.2871,-0.387 0,0 -2.8432,-1.732 -2.9483,-1.796 0.01,-0.01 0.2862,-0.387 0.2862,-0.387 0,0 -2.8454,-1.734 -2.9512,-1.799 0.01,-0.01 0.2871,-0.388 0.2871,-0.388 0,0 -2.8484,-1.735 -2.9551,-1.8 0.01,-0.01 0.2871,-0.388 0.2871,-0.388 0,0 -2.8513,-1.738 -2.9589,-1.804 0.01,-0.01 0.2871,-0.388 0.2871,-0.388 0,0 -2.8535,-1.738 -2.9619,-1.804 l 0.288,-0.389 c 0,0 -2.8573,-1.741 -2.9668,-1.807 0.01,-0.01 0.2891,-0.39 0.2891,-0.39 0,0 -2.8594,-1.743 -2.9697,-1.81 0.01,-0.01 0.289,-0.389 0.289,-0.389 0,0 -2.8614,-1.744 -2.9726,-1.812 0.01,-0.01 0.289,-0.39 0.289,-0.39 0,0 -2.8644,-1.746 -2.9765,-1.814 0.01,-0.01 0.289,-0.391 0.289,-0.391 0,0 -2.8655,-1.746 -2.9785,-1.815 0.01,-0.01 0.2891,-0.391 0.2891,-0.391 0,0 -2.8694,-1.749 -2.9834,-1.818 0.01,-0.01 0.29,-0.392 0.29,-0.392 0,0 -2.8713,-1.75 -2.9863,-1.82 0.01,-0.01 0.29,-0.392 0.29,-0.392 0,0 -2.8752,-1.751 -2.9912,-1.822 0.01,-0.01 0.2911,-0.392 0.2911,-0.392 0,0 -2.8763,-1.753 -2.9932,-1.825 0.01,-0.01 0.291,-0.392 0.291,-0.392 0,0 -2.88,-1.755 -2.998,-1.827 0.01,-0.01 0.2919,-0.394 0.2919,-0.394 0,0 -2.881,-1.756 -3,-1.828 0.01,-0.01 0.2911,-0.394 0.2911,-0.394 0,0 -2.8839,-1.758 -3.0039,-1.831 0.01,-0.01 0.292,-0.394 0.2919,-0.394 0,0 -2.8867,-1.759 -3.0078,-1.833 0.01,-0.01 0.292,-0.395 0.292,-0.395 0,0 -2.8887,-1.759 -3.0107,-1.834 0.01,-0.01 0.293,-0.395 0.293,-0.395 0,0 -2.8915,-1.762 -3.0147,-1.837 0.01,-0.01 0.293,-0.397 0.293,-0.397 0,0 -2.8943,-1.763 -3.0186,-1.838 0.01,-0.01 0.293,-0.396 0.293,-0.396 0,0 -2.8961,-1.764 -3.0215,-1.841 0.01,-0.01 0.294,-0.397 0.294,-0.397 0,0 -2.8989,-1.767 -3.0254,-1.844 0.01,-0.01 0.2939,-0.396 0.2939,-0.396 0,0 -2.9016,-1.768 -3.0293,-1.846 0.01,-0.01 0.2949,-0.399 0.2949,-0.399 0,0 -2.9034,-1.769 -3.0322,-1.847 0.01,-0.01 0.2949,-0.398 0.2949,-0.398 0,0 -2.9061,-1.77 -3.0361,-1.849 0.01,-0.01 0.2959,-0.4 0.2959,-0.4 0,0 -2.9079,-1.772 -3.0391,-1.852 0.01,-0.01 0.295,-0.399 0.295,-0.399 0,0 -2.9106,-1.773 -3.043,-1.853 0.01,-0.01 0.2959,-0.3999 0.2959,-0.3999 0,0 -2.9123,-1.775 -3.0459,-1.8564 0.01,-0.011 0.2959,-0.3994 0.2959,-0.3994 0,0 -2.9149,-1.7762 -3.0498,-1.8584 0.01,-0.011 0.2969,-0.4004 0.2969,-0.4004 0,0 -2.9167,-1.7774 -3.0528,-1.8604 0.01,-0.011 0.2969,-0.4013 0.2969,-0.4013 0,0 -2.9192,-1.7786 -3.0566,-1.8623 0.01,-0.011 0.2968,-0.4014 0.2968,-0.4014 0,0 -2.9218,-1.7807 -3.0605,-1.8652 0.01,-0.012 0.2978,-0.4014 0.2978,-0.4014 0,0 -2.9234,-1.7809 -3.0634,-1.8662 0.01,-0.011 0.2978,-0.4024 0.2978,-0.4024 0,0 -2.926,-1.7829 -3.0674,-1.8691 0.01,-0.012 0.2979,-0.4023 0.2979,-0.4023 0,0 -2.9276,-1.7842 -3.0703,-1.8711 0.01,-0.012 0.2988,-0.4034 0.2988,-0.4034 0,0 -2.9301,-1.7852 -3.0742,-1.873 l 0.2988,-0.4043 c 0,0 -2.9325,-1.7872 -3.0781,-1.876 0.01,-0.011 0.2988,-0.4033 0.2988,-0.4033 l -3.0811,-1.8769 c 0.01,-0.012 0.2999,-0.4053 0.2999,-0.4053 0,0 -2.9365,-1.7894 -3.085,-1.8799 0.01,-0.011 0.2998,-0.4043 0.2998,-0.4043 0,0 -2.938,-1.7905 -3.0879,-1.8818 0.01,-0.011 0.3008,-0.4053 0.3008,-0.4053 0,0 -2.9403,-1.7915 -3.0918,-1.8838 0.01,-0.011 0.3008,-0.4062 0.3008,-0.4062 0,0 -2.9427,-1.7925 -3.0957,-1.8858 0.01,-0.011 0.3008,-0.4062 0.3007,-0.4062 0,0 -2.9441,-1.7936 -3.0986,-1.8877 0.01,-0.012 0.3018,-0.4073 0.3018,-0.4073 0,0 -2.9455,-1.7955 -3.1016,-1.8906 0.01,-0.011 0.3008,-0.4062 0.3008,-0.4062 0,0 -2.9477,-1.7965 -3.1055,-1.8926 0.01,-0.011 0.3018,-0.4082 0.3018,-0.4082 0,0 -2.95,-1.7974 -3.1094,-1.8946 0.01,-0.011 0.3027,-0.4082 0.3027,-0.4082 0,0 -2.9512,-1.7983 -3.1123,-1.8964 0.01,-0.011 0.3018,-0.4082 0.3018,-0.4082 l -3.1162,-1.8985 c 0.01,-0.012 0.3037,-0.4101 0.3037,-0.4101 0,0 -2.9556,-1.8011 -3.1201,-1.9014 0.01,-0.011 0.3037,-0.4092 0.3037,-0.4092 0,0 -2.9568,-1.801 -3.1231,-1.9023 0.01,-0.012 0.3038,-0.4102 0.3038,-0.4102 0,0 -2.9589,-1.8028 -3.127,-1.9053 0.01,-0.011 0.3037,-0.4101 0.3037,-0.4101 0,0 -2.96,-1.8037 -3.1299,-1.9072 0.01,-0.011 0.3047,-0.4111 0.3047,-0.4111 0,0 -2.962,-1.8055 -3.1338,-1.9102 0.01,-0.012 0.3047,-0.4111 0.3047,-0.4111 0,0 -2.9631,-1.8054 -3.1367,-1.9111 0.01,-0.011 0.3047,-0.4122 0.3047,-0.4122 0,0 -2.965,-1.807 -3.1406,-1.914 0.01,-0.011 0.3047,-0.4121 0.3047,-0.4121 0,0 -2.9661,-1.8069 -3.1436,-1.9151 0.01,-0.012 0.3057,-0.4131 0.3057,-0.4131 0,0 -2.9679,-1.8085 -3.1475,-1.9179 0.01,-0.011 0.3057,-0.4131 0.3057,-0.4131 0,0 -2.9698,-1.8093 -3.1514,-1.9199 0.01,-0.011 0.3067,-0.4141 0.3067,-0.4141 0,0 -2.9707,-1.81 -3.1543,-1.9219 0.01,-0.011 0.3066,-0.414 0.3066,-0.414 0,0 -2.9715,-1.8107 -3.1572,-1.9239 0.01,-0.011 0.3066,-0.415 0.3066,-0.415 0,0 -2.974,-1.8122 -3.1621,-1.9268 0.01,-0.011 0.3076,-0.415 0.3076,-0.415 0,0 -2.9748,-1.8128 -3.165,-1.9287 0.01,-0.011 0.3076,-0.415 0.3076,-0.415 0,0 -2.9756,-1.8135 -3.1679,-1.9307 0.01,-0.011 0.3076,-0.416 0.3076,-0.416 0,0 -2.978,-1.8149 -3.1729,-1.9336 0.01,-0.011 0.3086,-0.416 0.3086,-0.416 0,0 -2.9778,-1.8146 -3.1748,-1.9346 0.01,-0.011 0.3086,-0.417 0.3086,-0.417 0,0 -2.9792,-1.8159 -3.1787,-1.9375 0.01,-0.011 0.3086,-0.417 0.3086,-0.417 0,0 -2.9807,-1.8164 -3.1826,-1.9394 0.01,-0.011 0.3095,-0.418 0.3095,-0.418 0,0 -2.9811,-1.8169 -3.1855,-1.9414 0.01,-0.011 0.3096,-0.418 0.3096,-0.418 0,0 -2.9825,-1.8172 -3.1895,-1.9433 0.01,-0.011 0.3096,-0.419 0.3096,-0.419 0,0 -2.9837,-1.8185 -3.1934,-1.9463 0.01,-0.011 0.3106,-0.4189 0.3106,-0.4189 0,0 -2.9841,-1.818 -3.1963,-1.9473 0.01,-0.011 0.3105,-0.4199 0.3105,-0.4199 0,0 -2.9851,-1.8192 -3.2002,-1.9502 l 0.3116,-0.4199 c 0,0 -2.9854,-1.8195 -3.2032,-1.9522 0.01,-0.011 0.3116,-0.4199 0.3116,-0.4199 0,0 -2.9864,-1.8196 -3.2071,-1.9541 0.01,-0.012 0.3115,-0.4209 0.3115,-0.4209 0,0 -2.9873,-1.8198 -3.2109,-1.9561 0.01,-0.011 0.3125,-0.4218 0.3125,-0.4218 0,0 -2.9872,-1.8209 -3.2139,-1.959 0.01,-0.011 0.3125,-0.4219 0.3125,-0.4219 0,0 -2.988,-1.8209 -3.2177,-1.9609 0.01,-0.011 0.3125,-0.4219 0.3125,-0.4219 0,0 -2.9871,-1.8202 -3.2198,-1.9619 0.01,-0.011 0.3125,-0.4229 0.3125,-0.4229 0,0 -2.9885,-1.821 -3.2246,-1.9648 0.01,-0.011 0.3135,-0.4238 0.3135,-0.4238 0,0 -2.9883,-1.821 -3.2275,-1.9668 0.01,-0.012 0.3134,-0.4239 0.3134,-0.4239 0,0 -2.9887,-1.8208 -3.2314,-1.9687 0.01,-0.011 0.3145,-0.4248 0.3145,-0.4248 0,0 -2.9892,-1.8217 -3.2354,-1.9717 0.01,-0.011 0.3145,-0.4238 0.3145,-0.4238 0,0 -2.9886,-1.8215 -3.2383,-1.9737 0.01,-0.011 0.3144,-0.4248 0.3144,-0.4248 0,0 -2.9888,-1.8212 -3.2422,-1.9755 0.01,-0.012 0.3155,-0.4258 0.3155,-0.4258 0,0 -2.9881,-1.8209 -3.2451,-1.9776 0.01,-0.011 0.3154,-0.4257 0.3154,-0.4257 0,0 -2.9881,-1.8215 -3.249,-1.9805 0.01,-0.011 0.3154,-0.4258 0.3154,-0.4258 0,0 -2.9872,-1.8201 -3.252,-1.9814 0.01,-0.012 0.3164,-0.4278 0.3164,-0.4278 0,0 -2.9869,-1.8205 -3.2558,-1.9844 0.01,-0.011 0.3164,-0.4267 0.3164,-0.4267 0,0 -2.9867,-1.8199 -3.2598,-1.9863 0.01,-0.011 0.3174,-0.4278 0.3174,-0.4278 0,0 -2.9854,-1.8193 -3.2627,-1.9883 0.01,-0.011 0.3164,-0.4277 0.3164,-0.4277 0,0 -2.9849,-1.8186 -3.2666,-1.9902 0.01,-0.012 0.3184,-0.4297 0.3184,-0.4297 0,0 -2.9834,-1.8178 -3.2696,-1.9922 0.01,-0.012 0.3174,-0.4287 0.3174,-0.4287 0,0 -2.9825,-1.8179 -3.2734,-1.9951 0.01,-0.011 0.3183,-0.4297 0.3183,-0.4297 0,0 -2.9816,-1.8169 -3.2773,-1.9971 0.01,-0.011 0.3184,-0.4297 0.3184,-0.4297 0,0 -2.9797,-1.8158 -3.2803,-1.999 0.01,-0.011 0.3193,-0.4307 0.3193,-0.4307 0,0 -2.9785,-1.8147 -3.2842,-2.0009 0.01,-0.012 0.3194,-0.4307 0.3194,-0.4307 0,0 -2.977,-1.8144 -3.2881,-2.0039 l 0.3203,-0.4316 c 0,0 -2.9739,-1.8123 -3.29,-2.0049 0.01,-0.011 0.3193,-0.4317 0.3193,-0.4317 0,0 -2.9729,-1.8116 -3.2949,-2.0078 0.01,-0.012 0.3203,-0.4326 0.3203,-0.4326 0,0 -2.9694,-1.8093 -3.2969,-2.0088 0.01,-0.011 0.3203,-0.4336 0.3203,-0.4336 0,0 -2.9681,-1.8084 -3.3017,-2.0117 0.01,-0.011 0.3213,-0.4336 0.3213,-0.4336 0,0 -2.965,-1.8067 -3.3047,-2.0137 0.01,-0.011 0.3213,-0.4336 0.3213,-0.4336 0,0 -2.9624,-1.8056 -3.3086,-2.0166 0.01,-0.011 0.3213,-0.4336 0.3213,-0.4336 0,0 -2.959,-1.8027 -3.3116,-2.0175 0.01,-0.012 0.3223,-0.4356 0.3223,-0.4356 0,0 -2.9559,-1.8014 -3.3154,-2.0205 0.01,-0.011 0.3222,-0.4346 0.3222,-0.4346 0,0 -2.9518,-1.7991 -3.3183,-2.0224 0.01,-0.011 0.3222,-0.4346 0.3222,-0.4346 0,0 -2.9491,-1.7974 -3.3232,-2.0254 0.01,-0.012 0.3232,-0.4365 0.3232,-0.4365 0,0 -2.9438,-1.794 -3.3251,-2.0264 0.01,-0.011 0.3232,-0.4365 0.3232,-0.4365 0,0 -2.9398,-1.792 -3.3291,-2.0293 0.01,-0.011 0.3232,-0.4365 0.3232,-0.4365 0,0 -2.9354,-1.789 -3.333,-2.0313 0.01,-0.012 0.3242,-0.4375 0.3242,-0.4375 0,0 -2.9299,-1.7858 -3.3359,-2.0332 l 0.3242,-0.4375 c 0,0 -2.925,-1.7823 -3.3398,-2.0351 0.01,-0.011 0.3242,-0.4385 0.3242,-0.4385 0,0 -2.9188,-1.7788 -3.3428,-2.0371 0.01,-0.011 0.3242,-0.4385 0.3242,-0.4385 0,0 -2.9131,-1.7748 -3.3466,-2.039 0.01,-0.012 0.3252,-0.4395 0.3252,-0.4395 0,0 -2.9069,-1.7716 -3.3506,-2.042 l 0.3261,-0.4394 c 0,0 -2.8994,-1.7673 -3.3535,-2.044 0.01,-0.011 0.3262,-0.4404 0.3262,-0.4404 0,0 -2.8924,-1.7626 -3.3574,-2.0459 0.01,-0.011 0.3262,-0.4405 0.3262,-0.4405 0,0 -2.8849,-1.7575 -3.3614,-2.0478 0.01,-0.011 0.3272,-0.4414 0.3272,-0.4414 0,0 -2.8761,-1.7523 -3.3643,-2.0498 0.01,-0.012 0.3272,-0.4414 0.3272,-0.4414 0,0 -2.8667,-1.7468 -3.3672,-2.0518 0.01,-0.012 0.3271,-0.4424 0.3271,-0.4424 0,0 -2.858,-1.7414 -3.372,-2.0546 0.01,-0.011 0.3281,-0.4424 0.3281,-0.4424 0,0 -2.8468,-1.7344 -3.374,-2.0557 0.01,-0.012 0.3281,-0.4434 0.3281,-0.4434 0,0 -2.8368,-1.7282 -3.3789,-2.0585 0.01,-0.011 0.3291,-0.4444 0.3291,-0.4444 0,0 -2.8247,-1.721 -3.3819,-2.0605 0.01,-0.011 0.3282,-0.4434 0.3282,-0.4434 0,0 -2.8118,-1.7133 -3.3848,-2.0625 0.01,-0.011 0.3291,-0.4453 0.3291,-0.4453 0,0 -2.7985,-1.7058 -3.3887,-2.0654 0.01,-0.012 0.3291,-0.4444 0.3291,-0.4444 0,0 -2.7837,-1.697 -3.3916,-2.0674 0.01,-0.011 0.3291,-0.4443 0.3291,-0.4443 0,0 -2.7687,-1.6874 -3.3955,-2.0693 0.01,-0.011 0.3301,-0.4463 0.3301,-0.4463 0,0 -2.7518,-1.6773 -3.3984,-2.0713 0.01,-0.011 0.33,-0.4453 0.33,-0.4453 0,0 -2.7349,-1.667 -3.4033,-2.0742 0.01,-0.012 0.3311,-0.4463 0.3311,-0.4463 0,0 -2.7156,-1.6544 -3.4062,-2.0752 0.01,-0.011 0.331,-0.4473 0.331,-0.4473 0,0 -2.6945,-1.6426 -3.4091,-2.0781 0.01,-0.011 0.331,-0.4473 0.331,-0.4473 0,0 -2.6727,-1.6289 -3.4131,-2.0801 0.01,-0.011 0.3321,-0.4482 0.3321,-0.4482 0,0 -2.6491,-1.6141 -3.417,-2.082 0.01,-0.011 0.332,-0.4483 0.332,-0.4483 0,0 -2.6229,-1.5982 -3.4199,-2.084 0.01,-0.011 0.332,-0.4492 0.332,-0.4492 0,0 -2.5951,-1.5809 -3.4238,-2.0859 0.01,-0.011 0.333,-0.4492 0.333,-0.4492 0,0 -2.5648,-1.5631 -3.4278,-2.0889 0.01,-0.012 0.334,-0.4502 0.334,-0.4502 0,0 -2.5314,-1.5428 -3.4306,-2.0908 0.01,-0.011 0.333,-0.4502 0.333,-0.4502 0,0 -2.4952,-1.52 -3.4336,-2.0918 0.01,-0.011 0.334,-0.4512 0.334,-0.4512 0,0 -2.4561,-1.4966 -3.4375,-2.0947 0.01,-0.012 0.3339,-0.4512 0.3339,-0.4512 0,0 -2.4133,-1.4702 -3.4414,-2.0967 0.01,-0.011 0.335,-0.4521 0.335,-0.4521 0,0 -2.3666,-1.4413 -3.4453,-2.0986 0.01,-0.012 0.335,-0.4522 0.335,-0.4522 0,0 -2.3144,-1.4102 -3.4473,-2.1006 0.01,-0.011 0.3349,-0.4531 0.3349,-0.4531 0,0 -2.2585,-1.3762 -3.4521,-2.1035 0.01,-0.011 0.3359,-0.4531 0.3359,-0.4531 0,0 -2.1965,-1.3386 -3.455,-2.1054 0.01,-0.012 0.3359,-0.4532 0.3359,-0.4532 0,0 -2.1294,-1.2972 -3.459,-2.1074 0.01,-0.011 0.3359,-0.4541 0.3359,-0.4541 0,0 -2.0561,-1.2527 -3.4619,-2.1094 0.01,-0.011 0.3369,-0.4551 0.3369,-0.4551 0,0 -1.9785,-1.205 -3.4658,-2.1113 0.01,-0.011 0.3369,-0.4551 0.3369,-0.4551 0,0 -1.8975,-1.1568 -3.4687,-2.1142 0.01,-0.011 0.3369,-0.4551 0.3369,-0.4551 0,0 -1.8207,-1.109 -3.4736,-2.1162 0.01,-0.011 0.3379,-0.4561 0.3379,-0.4561 0,0 -1.7579,-1.0714 -3.4756,-2.1181 0.01,-0.011 0.3379,-0.4561 0.3379,-0.4561 0,0 -1.7427,-1.0627 -3.4795,-2.1211 0.01,-0.011 0.3379,-0.456 0.3379,-0.456 0,0 -1.8511,-1.1284 -3.4834,-2.1231 0.01,-0.011 0.3388,-0.457 0.3388,-0.457 0,0 -2.2969,-1.3993 -3.4863,-2.124 0.01,-0.011 0.3389,-0.458 0.3389,-0.458 0,0 -3.3455,-2.0389 -3.3457,-2.0391 -2e-4,-10e-5 -0.1434,-0.088 -0.1436,-0.088 0.01,-0.011 0.3389,-0.458 0.3389,-0.458 0,0 -2.2312,-1.3602 -2.2315,-1.3603 0,0 -1.2557,-0.7654 -1.2627,-0.7696 0.01,-0.011 0.3399,-0.458 0.3399,-0.458 0,0 -1.1169,-0.6795 -1.1172,-0.6797 -0.5443,-0.3316 -557.9032,-339.9648 -557.9032,-339.9648 z"
         id="path1746"
         inkscape:connector-curvature="0" />
      <path
         inkscape:export-ydpi="96"
         inkscape:export-xdpi="96"
         inkscape:export-filename="/home/fjall/Icone/PNG/Altro/case.png"
         inkscape:connector-curvature="0"
         style="fill:#ffd95a;fill-opacity:0.984925;stroke:none;stroke-width:37.5;stroke-linecap:round;stroke-linejoin:bevel;stroke-miterlimit:4;stroke-dasharray:none;stroke-dashoffset:0;stroke-opacity:0.0745098;paint-order:stroke markers fill"
         d="M 5777.8984,6550.423 5260.15,6867.1718 h 75.937 v 534.2541 h 441.8114 z"
         id="rect1256" />
      <path
         inkscape:export-ydpi="96"
         inkscape:export-xdpi="96"
         inkscape:export-filename="/home/fjall/Icone/PNG/Altro/case.png"
         style="fill:#f9a825;fill-opacity:1;stroke:none;stroke-width:37.5;stroke-linecap:round;stroke-linejoin:bevel;stroke-miterlimit:4;stroke-dasharray:none;stroke-dashoffset:0;stroke-opacity:0.0745098;paint-order:stroke markers fill"
         d="m 5777.8504,6550.4229 v 469.8858 h 119.4123 v 381.1172 h 322.3996 v -534.2542 h 75.9363 z"
         id="path1292"
         inkscape:connector-curvature="0" />
      <path
         inkscape:export-ydpi="96"
         inkscape:export-xdpi="96"
         inkscape:export-filename="/home/fjall/Icone/PNG/Altro/case.png"
         style="fill:#5d4037;fill-opacity:1;stroke:none;stroke-width:37.5;stroke-linecap:round;stroke-linejoin:bevel;stroke-miterlimit:4;stroke-dasharray:none;stroke-dashoffset:0;stroke-opacity:0.0745098;paint-order:stroke markers fill"
         d="m 5777.8417,6546.4908 -558.9107,340.578 27.286,36.846 531.6247,-323.9512 z"
         id="rect1296"
         inkscape:connector-curvature="0" />
      <path
         inkscape:export-ydpi="96"
         inkscape:export-xdpi="96"
         inkscape:export-filename="/home/fjall/Icone/PNG/Altro/case.png"
         style="fill:#321911;fill-opacity:1;stroke:none;stroke-width:37.5;stroke-linecap:round;stroke-linejoin:bevel;stroke-miterlimit:4;stroke-dasharray:none;stroke-dashoffset:0;stroke-opacity:0.0745098;paint-order:stroke markers fill"
         d="m 5777.8393,6546.4861 v 53.4738 l 531.7347,324.0183 27.2861,-36.8469 z"
         id="rect1306"
         inkscape:connector-curvature="0" />
      <path
         inkscape:export-ydpi="96"
         inkscape:export-xdpi="96"
         inkscape:export-filename="/home/fjall/Icone/PNG/Altro/case.png"
         style="fill:#d32f2f;fill-opacity:1;stroke:none;stroke-width:37.5;stroke-linecap:round;stroke-linejoin:bevel;stroke-miterlimit:4;stroke-dasharray:none;stroke-dashoffset:0;stroke-opacity:0.0745098;paint-order:stroke markers fill"
         d="m 5643.0111,6980.8402 v 420.5857 h 134.8874 v -420.5857 z"
         id="rect1351"
         inkscape:connector-curvature="0" />
      <path
         inkscape:export-ydpi="96"
         inkscape:export-xdpi="96"
         inkscape:export-filename="/home/fjall/Icone/PNG/Altro/case.png"
         id="path1379"
         d="m 5777.8602,6980.8402 v 420.5857 h 134.8874 v -420.5857 z"
         style="fill:#9a0007;fill-opacity:1;stroke:none;stroke-width:37.5;stroke-linecap:round;stroke-linejoin:bevel;stroke-miterlimit:4;stroke-dasharray:none;stroke-dashoffset:0;stroke-opacity:0.0745098;paint-order:stroke markers fill"
         inkscape:connector-curvature="0" />
      <rect
         inkscape:export-ydpi="96"
         inkscape:export-xdpi="96"
         inkscape:export-filename="/home/fjall/Icone/PNG/Altro/case.png"
         style="fill:#f9a825;fill-opacity:1;stroke:none;stroke-width:37.5;stroke-linecap:round;stroke-linejoin:bevel;stroke-miterlimit:4;stroke-dasharray:none;stroke-dashoffset:0;stroke-opacity:0.0745098;paint-order:stroke markers fill"
         id="rect1397"
         width="38.145687"
         height="28.079464"
         x="5850.8198"
         y="7211.7861"
         ry="28.07947"
         rx="28.07947" />
    </g>
  </g>
</svg>
