<?xml version="1.0" encoding="UTF-8" standalone="no"?>
<!-- Created with Inkscape (http://www.inkscape.org/) -->

<svg
   width="255.99998"
   height="255.99998"
   viewBox="0 0 67.733328 67.733329"
   version="1.1"
   id="svg1"
   xml:space="preserve"
   inkscape:export-filename="fistut3.png"
   inkscape:export-xdpi="96"
   inkscape:export-ydpi="96"
   inkscape:version="1.3.2 (091e20e, 2023-11-25, custom)"
   sodipodi:docname="fistut2.svg"
   xmlns:inkscape="http://www.inkscape.org/namespaces/inkscape"
   xmlns:sodipodi="http://sodipodi.sourceforge.net/DTD/sodipodi-0.dtd"
   xmlns="http://www.w3.org/2000/svg"
   xmlns:svg="http://www.w3.org/2000/svg"><sodipodi:namedview
     id="namedview1"
     pagecolor="#ffffff"
     bordercolor="#000000"
     borderopacity="0.25"
     inkscape:showpageshadow="2"
     inkscape:pageopacity="0.0"
     inkscape:pagecheckerboard="0"
     inkscape:deskcolor="#d1d1d1"
     inkscape:document-units="mm"
     inkscape:zoom="2.5751711"
     inkscape:cx="122.51613"
     inkscape:cy="140.37902"
     inkscape:window-width="1920"
     inkscape:window-height="991"
     inkscape:window-x="-9"
     inkscape:window-y="-9"
     inkscape:window-maximized="1"
     inkscape:current-layer="layer1" /><defs
     id="defs1" /><g
     inkscape:label="Livello 1"
     inkscape:groupmode="layer"
     id="layer1"
     transform="translate(-7.3731756,-16.507109)"><rect
       style="fill:#6e6eff;fill-opacity:1;stroke-width:1.27141;-inkscape-stroke:none"
       id="rect1"
       width="67.73333"
       height="67.73333"
       x="7.3731756"
       y="16.507109" /><path
       id="path19"
       style="font-size:6.70278px;font-family:PRIMETIME;-inkscape-font-specification:PRIMETIME;fill:#000000;stroke-width:1.90345;fill-opacity:0.12156863"
       d="M 38.990884 26.016606 C 38.816612 26.016606 38.642708 26.029587 38.468435 26.056397 C 38.294163 26.078737 38.126488 26.123727 37.965624 26.190756 C 37.804757 26.257786 37.657329 26.349492 37.523273 26.465674 C 37.393687 26.577387 37.286231 26.722566 37.201329 26.901307 C 37.186693 26.932891 37.175191 26.964938 37.163089 26.996908 L 36.309911 26.14373 L 35.01645 26.14373 L 35.01645 26.713721 L 34.446458 26.14373 L 31.108678 26.14373 L 30.994473 26.257935 L 30.994473 30.561032 L 34.827831 34.394389 C 33.831095 34.171334 32.937473 34.257993 32.186648 34.692046 C 30.35895 35.743444 29.831135 38.388435 30.65961 42.344808 C 30.78911 42.963002 30.952249 43.607634 31.144851 44.271823 C 26.525299 45.387181 23.12932 47.323196 23.12932 50.004806 C 23.12932 50.215922 23.157409 50.423291 23.1996 50.62854 C 23.206815 50.663672 23.212348 50.699011 23.220787 50.73396 C 23.26815 50.929983 23.335324 51.123288 23.420775 51.313253 C 23.436925 51.349162 23.455471 51.384543 23.472968 51.420223 C 23.567939 51.613865 23.677234 51.805186 23.811449 51.991765 C 23.819084 52.002379 23.828492 52.012697 23.836253 52.023287 C 23.96951 52.205123 24.124642 52.382594 24.294623 52.557105 C 24.312072 52.575015 24.323817 52.594052 24.341649 52.611882 L 31.209447 59.47968 C 31.141344 59.918428 31.09197 60.338695 31.061652 60.739551 C 31.059396 60.76939 31.057499 60.798809 31.055451 60.828435 C 31.006681 61.533823 31.014805 62.181194 31.083873 62.7632 C 31.085129 62.773783 31.085679 62.785216 31.086974 62.795756 C 31.119704 63.062246 31.168 63.311686 31.225466 63.551266 C 31.235304 63.592279 31.244362 63.63404 31.254922 63.674256 C 31.31484 63.902423 31.386751 64.117474 31.469896 64.319694 C 31.48565 64.358018 31.502402 64.394967 31.518989 64.432349 C 31.607818 64.632526 31.706074 64.82223 31.818712 64.995105 C 31.831136 65.014172 31.845273 65.031151 31.857986 65.049882 C 31.96886 65.213257 32.091564 65.362885 32.224372 65.500501 C 32.237726 65.514341 32.247486 65.532399 32.261062 65.545976 L 36.6949 69.979814 L 33.876984 69.979814 L 33.876984 70.288322 L 33.568476 69.979814 L 32.261579 69.979814 L 32.261579 71.052617 L 31.188776 69.979814 L 29.881879 69.979814 L 29.881879 70.348267 L 29.513426 69.979814 L 25.75965 69.979814 L 25.75965 71.019027 L 25.867137 71.125997 L 27.006603 72.265463 L 27.006603 72.265979 L 27.006603 74.397116 L 36.849929 84.240442 L 75.106509 84.240442 L 75.106509 51.380433 L 49.869806 26.14373 L 48.797004 26.14373 L 48.163451 27.876441 L 46.973859 26.686849 C 46.723622 26.458958 46.462505 26.291282 46.189928 26.184038 C 45.917348 26.072325 45.633739 26.016606 45.338817 26.016606 C 45.017084 26.016606 44.715477 26.079076 44.433963 26.204192 C 44.152446 26.329308 43.90656 26.499232 43.69654 26.713721 C 43.614295 26.797754 43.540931 26.889418 43.472264 26.985539 L 42.630455 26.14373 L 41.336994 26.14373 L 41.336994 27.142636 L 40.680187 26.485828 C 40.407607 26.316024 40.128495 26.195072 39.842512 26.123576 C 39.560995 26.052076 39.276869 26.016606 38.990884 26.016606 z " /><path
       d="m 41.46885,43.160302 c 3.383897,-4.431708 6.437497,-6.477023 7.869505,-6.477023 0.196914,0 0.360337,0.03708 0.486679,0.111393 0.765232,0.442122 0.910115,2.388693 0.397564,4.959494 0.817264,0.156094 1.601182,0.334322 2.347873,0.534973 0.802459,-3.874744 0.267486,-6.556939 -1.530609,-7.597131 -1.827704,-1.054998 -4.383558,-0.18944 -7.392744,2.503822 -1.727378,1.545701 -3.538985,3.653109 -5.2231,6.045681 -1.679803,0.09716 -3.339915,0.28071 -4.913931,0.548053 -1.137357,-3.823288 -1.055429,-6.451583 -0.112543,-6.995036 0.126342,-0.07431 0.289765,-0.111393 0.486679,-0.111393 1.047667,0 2.767572,1.040194 4.60275,2.786257 0.520025,-0.642628 1.04393,-1.255648 1.567692,-1.831441 -3.17606,-2.997831 -5.966055,-4.045498 -7.868068,-2.945943 -1.827704,1.051404 -2.355347,3.696371 -1.526872,7.652756 0.129503,0.618194 0.29264,1.263122 0.485242,1.927311 -4.619567,1.115364 -8.015394,3.0513 -8.015394,5.732919 0,2.210321 2.332924,4.116071 6.568006,5.36439 l 0.178372,0.05203 0.05203,-0.174635 c 0.193176,-0.635298 0.412369,-1.281664 0.650103,-1.924293 l 0.06683,-0.185702 -0.18944,-0.05577 c -2.930996,-0.858084 -4.896252,-2.095191 -4.896252,-3.075878 0,-1.10976 2.319701,-2.528833 6.336309,-3.45562 0.549202,1.499131 1.224027,3.054893 1.996878,4.604331 -1.16136,2.552835 -2.031949,5.066862 -2.489594,7.254617 -0.828474,3.952647 -0.300976,6.597758 1.526872,7.649019 0.497747,0.289764 1.058735,0.434647 1.668017,0.434647 1.519398,0 3.373118,-0.917589 5.40521,-2.663653 -0.553515,-0.564725 -1.095961,-1.15906 -1.62346,-1.77941 -1.511924,1.277927 -2.871634,2.020881 -3.752141,2.020881 -0.193176,0 -0.3566,-0.03723 -0.486678,-0.111536 -1.180476,-0.682874 -1.015327,-4.626754 1.207785,-10.096355 3.531799,6.096707 9.178622,12.629929 13.276727,12.629929 0.609283,0 1.170127,-0.144882 1.668017,-0.434647 h 0.0038 c 3.778012,-2.176974 1.445087,-10.635927 -2.373888,-17.749973 -0.906379,-0.144883 -1.898277,-0.26375 -2.979434,-0.349271 l 0.122604,0.207981 c 4.788596,8.291792 5.576107,14.889551 4.01589,15.792192 -0.130079,0.07431 -0.293503,0.111536 -0.486679,0.111536 -1.88721,0 -6.608827,-3.562701 -11.181967,-11.482943 -0.289622,-0.501915 -0.564007,-0.997361 -0.824739,-1.485908 0.466126,-0.948779 0.986869,-1.929036 1.567692,-2.934877 0.525918,-0.910977 1.053704,-1.761587 1.579047,-2.55844 0.491997,-0.01451 0.992186,-0.02343 1.504306,-0.02343 9.573455,0 15.684391,2.619096 15.684391,4.420784 0,0.925063 -1.753394,2.076649 -4.417047,2.927402 0.293502,0.765233 0.560989,1.526872 0.794986,2.277157 3.904353,-1.248175 6.047981,-3.083353 6.047981,-5.204559 1.44e-4,-4.408136 -9.170141,-6.80344 -17.881201,-6.844692 z m -5.414983,3.790949 c -0.275248,0.477192 -0.542016,0.958696 -0.800016,1.4425 -0.360194,-0.794841 -0.681867,-1.564816 -0.96229,-2.302165 0.775438,-0.120304 1.595288,-0.222354 2.456966,-0.302845 -0.236009,0.38391 -0.468569,0.770838 -0.69466,1.16251 z m 2.855105,3.472724 c 0,1.470528 1.19643,2.666959 2.666959,2.666959 1.470529,0 2.666959,-1.196431 2.666959,-2.666959 0,-1.470529 -1.19643,-2.666959 -2.666959,-2.666959 -1.470529,-1.44e-4 -2.666959,1.196287 -2.666959,2.666959 z"
       id="path1"
       style="fill:#00009f;fill-opacity:1;stroke-width:0.143732" /><path
       id="path6"
       style="font-size:6.70278px;font-family:PRIMETIME;-inkscape-font-specification:PRIMETIME;fill:#00009f;stroke-width:2.57813"
       d="M 38.990884 26.016606 C 38.816612 26.016606 38.642708 26.029584 38.468435 26.056397 C 38.294163 26.07874 38.12649 26.123728 37.965624 26.190756 C 37.804757 26.257783 37.657329 26.349492 37.523273 26.465674 C 37.393687 26.577387 37.286231 26.722566 37.201329 26.901307 C 37.116427 27.084516 37.074205 27.274166 37.074205 27.470781 C 37.074205 27.747829 37.123176 27.97122 37.221483 28.141024 C 37.31979 28.306359 37.451472 28.440808 37.616808 28.543584 C 37.697241 28.592734 37.782202 28.637206 37.871572 28.677426 C 37.960942 28.713174 38.057151 28.746398 38.159927 28.777678 C 38.258234 28.804484 38.358941 28.83148 38.461717 28.858293 C 38.564493 28.88064 38.669182 28.903132 38.776427 28.925472 C 38.85686 28.943346 38.935073 28.961343 39.011038 28.979216 C 39.091471 28.992623 39.169683 29.014599 39.245649 29.045879 C 39.272462 29.054812 39.301702 29.066062 39.332982 29.079468 C 39.382134 29.101815 39.428855 29.131055 39.473542 29.166801 C 39.518228 29.198079 39.540721 29.24255 39.540721 29.300643 C 39.540721 29.381073 39.520473 29.441291 39.48026 29.481511 C 39.444509 29.521731 39.400038 29.553222 39.346418 29.575562 C 39.292796 29.593435 39.232578 29.602434 39.16555 29.602434 C 39.13427 29.6069 39.102779 29.609152 39.071499 29.609152 L 38.984166 29.609152 C 38.769678 29.609152 38.564281 29.582156 38.367666 29.528536 C 38.171052 29.474914 37.974653 29.398951 37.778038 29.300643 C 37.755698 29.287237 37.730954 29.275987 37.704141 29.267054 C 37.681798 29.253647 37.645807 29.236167 37.596654 29.213827 C 37.560903 29.271918 37.516432 29.350131 37.462812 29.448438 C 37.409191 29.542277 37.351222 29.640218 37.288662 29.742994 C 37.221634 29.859175 37.163666 29.964381 37.114513 30.05822 C 37.065359 30.147592 37.040615 30.194313 37.040615 30.19878 C 37.040615 30.20772 37.045111 30.221214 37.054051 30.239087 C 37.067458 30.252494 37.085455 30.265988 37.107795 30.279395 C 37.121195 30.283868 37.131928 30.288364 37.140868 30.292831 C 37.149808 30.297298 37.156555 30.299549 37.161021 30.299549 C 37.420195 30.424667 37.690825 30.523125 37.972341 30.594621 C 38.258327 30.666118 38.546434 30.701591 38.836888 30.701591 C 39.069251 30.701591 39.301641 30.679099 39.534003 30.634412 C 39.770834 30.594195 39.982979 30.518232 40.170657 30.406519 C 40.362803 30.294806 40.51698 30.145129 40.633161 29.957451 C 40.753811 29.769773 40.814028 29.528386 40.814028 29.233464 C 40.814028 29.135157 40.80503 29.034966 40.787157 28.93219 C 40.77375 28.829414 40.747272 28.733206 40.707058 28.643836 C 40.653436 28.523186 40.579722 28.42023 40.485883 28.335328 C 40.396513 28.245958 40.293556 28.169994 40.177375 28.107435 C 40.065662 28.04041 39.945227 27.986941 39.81564 27.946721 C 39.686053 27.902036 39.558353 27.864313 39.433234 27.833033 C 39.308116 27.797279 39.185431 27.768039 39.064781 27.745699 C 38.948599 27.718893 38.841144 27.691898 38.742837 27.665084 C 38.640062 27.638271 38.55735 27.614044 38.49479 27.591704 C 38.436699 27.56489 38.398975 27.533399 38.381102 27.497653 C 38.358762 27.461901 38.347512 27.424178 38.347512 27.383964 C 38.347512 27.316935 38.363258 27.265199 38.394538 27.229452 C 38.430285 27.193705 38.470257 27.167227 38.514944 27.149353 C 38.5641 27.13148 38.615837 27.122482 38.669457 27.122482 C 38.727546 27.118015 38.778766 27.115764 38.823452 27.115764 C 39.051346 27.115764 39.263491 27.148988 39.460106 27.216016 C 39.661189 27.278575 39.875584 27.368036 40.103478 27.484217 C 40.206253 27.309945 40.302461 27.144521 40.391832 26.988123 C 40.481203 26.827256 40.577411 26.660101 40.680187 26.485828 C 40.407607 26.316024 40.128497 26.195072 39.842512 26.123576 C 39.560995 26.05208 39.276869 26.016606 38.990884 26.016606 z M 45.338817 26.016606 C 45.017084 26.016606 44.715479 26.079074 44.433963 26.204192 C 44.152446 26.32931 43.90656 26.499232 43.69654 26.713721 C 43.490989 26.923741 43.327814 27.17136 43.207164 27.457345 C 43.090982 27.738861 43.033014 28.038216 43.033014 28.355481 C 43.033014 28.672746 43.090982 28.974351 43.207164 29.260336 C 43.327814 29.541852 43.490989 29.789988 43.69654 30.004476 C 43.90656 30.214497 44.152446 30.382169 44.433963 30.507288 C 44.715479 30.632407 45.017084 30.694873 45.338817 30.694873 C 45.700767 30.694873 46.040095 30.61666 46.357359 30.460262 C 46.674624 30.299395 46.958233 30.064757 47.20847 29.756429 L 46.223517 28.938908 C 45.973281 29.269579 45.678425 29.435002 45.338817 29.435002 C 45.191356 29.435002 45.054658 29.405762 44.92954 29.347669 C 44.804421 29.289578 44.695233 29.211365 44.601394 29.113058 C 44.512022 29.014751 44.440557 28.901064 44.386937 28.771477 C 44.337784 28.637421 44.31304 28.498474 44.31304 28.355481 C 44.31304 28.212489 44.340035 28.076308 44.393655 27.946721 C 44.447277 27.817134 44.518742 27.703447 44.608112 27.60514 C 44.701951 27.506835 44.811139 27.428622 44.936257 27.370529 C 45.061376 27.312435 45.198074 27.283195 45.345535 27.283195 C 45.560024 27.283195 45.783416 27.365907 46.015778 27.531242 L 46.973859 26.686849 C 46.723622 26.458956 46.462507 26.291282 46.189928 26.184038 C 45.917348 26.072325 45.633739 26.016606 45.338817 26.016606 z M 31.108678 26.14373 L 30.994473 26.257935 L 30.994473 30.561032 L 32.227989 30.561032 L 32.227989 29.019007 L 34.232001 29.019007 L 34.232001 27.853186 L 32.227989 27.853186 L 32.227989 27.296631 L 34.446458 27.296631 L 34.446458 26.14373 L 31.108678 26.14373 z M 35.01645 26.14373 L 35.01645 30.561032 L 36.309911 30.561032 L 36.309911 26.14373 L 35.01645 26.14373 z M 41.336994 26.14373 L 41.336994 30.561032 L 42.630455 30.561032 L 42.630455 26.14373 L 41.336994 26.14373 z M 48.797004 26.14373 L 47.182115 30.561032 L 48.482294 30.561032 L 48.703469 29.964169 L 49.963341 29.964169 L 50.184516 30.561032 L 51.485212 30.561032 L 49.869806 26.14373 L 48.797004 26.14373 z M 49.333405 28.0139 L 49.615042 28.871729 L 49.051769 28.871729 L 49.333405 28.0139 z " /><path
       id="path16"
       style="font-size:6.70278px;font-family:PRIMETIME;-inkscape-font-specification:PRIMETIME;fill:#00009f;stroke-width:1.90345"
       d="M 40.09676 69.85269 C 39.775027 69.85269 39.471172 69.915157 39.185187 70.040276 C 38.899203 70.160924 38.649333 70.328599 38.434846 70.543087 C 38.224825 70.753108 38.057152 71.000726 37.932034 71.286711 C 37.811384 71.568227 37.751166 71.869833 37.751166 72.191565 C 37.751166 72.513298 37.811384 72.817153 37.932034 73.103138 C 38.057152 73.389122 38.224825 73.637258 38.434846 73.847278 C 38.649333 74.057299 38.899203 74.224971 39.185187 74.35009 C 39.471172 74.47074 39.775027 74.530957 40.09676 74.530957 C 40.418492 74.530957 40.722347 74.47074 41.008332 74.35009 C 41.294317 74.224971 41.542453 74.057299 41.752472 73.847278 C 41.966961 73.637258 42.134634 73.389122 42.255284 73.103138 C 42.380403 72.817153 42.44287 72.513298 42.44287 72.191565 C 42.44287 71.869833 42.380403 71.565978 42.255284 71.279993 C 42.134634 70.994008 41.966961 70.74639 41.752472 70.536369 C 41.542453 70.326349 41.294317 70.160924 41.008332 70.040276 C 40.722347 69.915157 40.418492 69.85269 40.09676 69.85269 z M 25.75965 69.979814 L 25.75965 71.019027 L 25.867137 71.125997 L 27.006603 71.125997 L 27.006603 74.397116 L 28.266474 74.397116 L 28.266474 71.125997 L 29.405939 71.125997 L 29.513426 71.019027 L 29.513426 69.979814 L 25.75965 69.979814 z M 29.881879 69.979814 L 29.881879 72.761556 C 29.881879 72.967108 29.91562 73.161257 29.982648 73.344467 C 30.049676 73.523207 30.143634 73.686381 30.264285 73.833842 C 30.384935 73.976835 30.525615 74.102286 30.686481 74.20953 C 30.847348 74.316777 31.021253 74.397239 31.20893 74.450859 C 31.289364 74.473199 31.372076 74.490679 31.456977 74.504086 C 31.546347 74.521959 31.635807 74.530957 31.725178 74.530957 C 31.814547 74.530957 31.901758 74.521959 31.98666 74.504086 C 32.076031 74.490679 32.160992 74.473199 32.241425 74.450859 C 32.429102 74.397236 32.603524 74.316774 32.764391 74.20953 C 32.929726 74.102286 33.070405 73.976835 33.186587 73.833842 C 33.307237 73.686381 33.401196 73.523207 33.468224 73.344467 C 33.535252 73.161257 33.568476 72.967108 33.568476 72.761556 L 33.568476 69.979814 L 32.261579 69.979814 L 32.261579 72.694377 C 32.261579 72.765873 32.245833 72.832838 32.214553 72.895398 C 32.187742 72.953488 32.150019 73.005224 32.100865 73.049911 C 32.051712 73.094594 31.993227 73.130068 31.926199 73.156881 C 31.86364 73.183694 31.796673 73.197189 31.725178 73.197189 C 31.653681 73.197189 31.584466 73.183694 31.517438 73.156881 C 31.454879 73.130072 31.39916 73.094598 31.350007 73.049911 C 31.300853 73.005228 31.260364 72.953492 31.229084 72.895398 C 31.20227 72.832839 31.188776 72.765874 31.188776 72.694377 L 31.188776 69.979814 L 29.881879 69.979814 z M 33.876984 69.979814 L 33.876984 71.019027 L 33.983954 71.125997 L 35.12342 71.125997 L 35.12342 74.397116 L 36.383808 74.397116 L 36.383808 71.125997 L 37.523273 71.125997 L 37.630243 71.019027 L 37.630243 69.979814 L 33.876984 69.979814 z M 42.818557 69.979814 L 42.818557 74.397116 L 44.112018 74.397116 L 44.112018 73.049911 L 44.89595 73.049911 L 45.593065 74.397116 L 46.987295 74.397116 L 45.955317 72.412741 C 46.12512 72.283153 46.259052 72.124995 46.357359 71.937317 C 46.455667 71.745173 46.504637 71.541507 46.504637 71.327019 C 46.504637 71.192963 46.484905 71.061281 46.444693 70.931694 C 46.404476 70.802107 46.345991 70.681672 46.270026 70.569959 C 46.207467 70.480589 46.131503 70.400127 46.042133 70.32863 C 45.957231 70.257133 45.863789 70.196399 45.761013 70.147246 C 45.658237 70.093626 45.550782 70.053653 45.439069 70.02684 C 45.331825 69.99556 45.226619 69.979814 45.123843 69.979814 L 42.818557 69.979814 z M 48.690034 69.979814 L 47.074628 74.397116 L 48.374807 74.397116 L 48.595982 73.800253 L 49.856371 73.800253 L 50.077546 74.397116 L 51.377725 74.397116 L 49.762319 69.979814 L 48.690034 69.979814 z M 51.022708 69.979814 L 51.022708 71.019027 L 51.129678 71.125997 L 52.269143 71.125997 L 52.269143 74.397116 L 53.529531 74.397116 L 53.529531 71.125997 L 54.668997 71.125997 L 54.775967 71.019027 L 54.775967 69.979814 L 51.022708 69.979814 z M 55.426056 69.979814 L 55.426056 74.397116 L 56.720034 74.397116 L 56.720034 69.979814 L 55.426056 69.979814 z M 44.112018 71.012309 L 44.762108 71.012309 C 44.878289 71.012309 44.978996 71.052282 45.063898 71.132715 C 45.1488 71.213149 45.191022 71.311606 45.191022 71.427788 C 45.191022 71.543969 45.1488 71.644159 45.063898 71.729061 C 44.978996 71.809495 44.878289 71.849984 44.762108 71.849984 L 44.112018 71.849984 L 44.112018 71.012309 z M 40.09676 71.065536 C 40.248688 71.065536 40.389886 71.097027 40.519473 71.159587 C 40.653529 71.217678 40.767215 71.29814 40.861054 71.400916 C 40.959364 71.503692 41.035327 71.624127 41.088947 71.762651 C 41.142567 71.896706 41.169562 72.039637 41.169562 72.191565 C 41.169562 72.343495 41.142567 72.489191 41.088947 72.627714 C 41.035324 72.76177 40.959361 72.882206 40.861054 72.989449 C 40.767215 73.092225 40.653529 73.174936 40.519473 73.237496 C 40.389886 73.29559 40.248688 73.32483 40.09676 73.32483 C 39.94483 73.32483 39.801901 73.29559 39.667845 73.237496 C 39.538259 73.174937 39.424571 73.092225 39.326264 72.989449 C 39.232427 72.882206 39.156464 72.76177 39.098371 72.627714 C 39.044751 72.489191 39.017756 72.343495 39.017756 72.191565 C 39.017756 72.039637 39.044751 71.896706 39.098371 71.762651 C 39.156462 71.624127 39.232425 71.503692 39.326264 71.400916 C 39.424571 71.298143 39.538259 71.21768 39.667845 71.159587 C 39.801901 71.097027 39.94483 71.065536 40.09676 71.065536 z M 49.226435 71.849984 L 49.507555 72.707813 L 48.944798 72.707813 L 49.226435 71.849984 z " /></g></svg>
