<?xml version="1.0" encoding="UTF-8" standalone="no"?>
<svg
   xmlns:dc="http://purl.org/dc/elements/1.1/"
   xmlns:cc="http://creativecommons.org/ns#"
   xmlns:rdf="http://www.w3.org/1999/02/22-rdf-syntax-ns#"
   xmlns:svg="http://www.w3.org/2000/svg"
   xmlns="http://www.w3.org/2000/svg"
   xmlns:sodipodi="http://sodipodi.sourceforge.net/DTD/sodipodi-0.dtd"
   xmlns:inkscape="http://www.inkscape.org/namespaces/inkscape"
   width="67.73333mm"
   height="67.73336mm"
   viewBox="0 0 67.73333 67.73336"
   version="1.1"
   id="svg8"
   sodipodi:docname="giochi.svg"
   inkscape:version="1.0.2 (e86c870879, 2021-01-15)">
  <defs
     id="defs2">
    <inkscape:path-effect
       effect="fillet_chamfer"
       id="path-effect1503"
       is_visible="true"
       lpeversion="1"
       satellites_param="F,0,1,1,0,5.7646355,0,1 @ F,0,0,1,0,0,0,1 @ F,0,0,1,0,0,0,1 @ F,0,0,1,0,5.7646355,0,1"
       unit="px"
       method="auto"
       mode="F"
       radius="0"
       chamfer_steps="1"
       flexible="false"
       use_knot_distance="true"
       apply_no_radius="true"
       apply_with_radius="true"
       only_selected="false"
       hide_knots="false" />
    <inkscape:path-effect
       effect="fillet_chamfer"
       id="path-effect1496"
       is_visible="true"
       lpeversion="1"
       satellites_param="F,0,0,1,0,0,0,1 @ F,0,0,1,0,0,0,1 @ F,0,0,1,0,0,0,1 @ F,0,0,1,0,0,0,1 @ F,0,0,1,0,0,0,1 @ F,0,0,1,0,0,0,1 @ F,0,0,1,0,0,0,1 @ F,0,0,1,0,0,0,1 @ F,0,0,1,0,0,0,1"
       unit="px"
       method="auto"
       mode="F"
       radius="0"
       chamfer_steps="1"
       flexible="false"
       use_knot_distance="true"
       apply_no_radius="true"
       apply_with_radius="true"
       only_selected="false"
       hide_knots="false" />
  </defs>
  <sodipodi:namedview
     id="base"
     pagecolor="#ffffff"
     bordercolor="#666666"
     borderopacity="1.0"
     inkscape:pageopacity="0.0"
     inkscape:pageshadow="2"
     inkscape:zoom="2.1754786"
     inkscape:cx="237.44186"
     inkscape:cy="160.13476"
     inkscape:document-units="mm"
     inkscape:current-layer="layer1"
     inkscape:document-rotation="0"
     showgrid="false"
     inkscape:snap-midpoints="false"
     inkscape:snap-object-midpoints="true"
     inkscape:snap-center="false"
     inkscape:snap-smooth-nodes="true"
     inkscape:snap-intersection-paths="true"
     inkscape:object-paths="true"
     inkscape:snap-tangential="true"
     inkscape:snap-nodes="true"
     inkscape:snap-global="false"
     inkscape:object-nodes="true"
     inkscape:window-width="1920"
     inkscape:window-height="1052"
     inkscape:window-x="0"
     inkscape:window-y="28"
     inkscape:window-maximized="1"
     fit-margin-top="0"
     fit-margin-left="0"
     fit-margin-right="0"
     fit-margin-bottom="0" />
  <metadata
     id="metadata5">
    <rdf:RDF>
      <cc:Work
         rdf:about="">
        <dc:format>image/svg+xml</dc:format>
        <dc:type
           rdf:resource="http://purl.org/dc/dcmitype/StillImage" />
        <dc:title></dc:title>
        <cc:license
           rdf:resource="http://creativecommons.org/licenses/by-sa/4.0/" />
      </cc:Work>
      <cc:License
         rdf:about="http://creativecommons.org/licenses/by-sa/4.0/">
        <cc:permits
           rdf:resource="http://creativecommons.org/ns#Reproduction" />
        <cc:permits
           rdf:resource="http://creativecommons.org/ns#Distribution" />
        <cc:requires
           rdf:resource="http://creativecommons.org/ns#Notice" />
        <cc:requires
           rdf:resource="http://creativecommons.org/ns#Attribution" />
        <cc:permits
           rdf:resource="http://creativecommons.org/ns#DerivativeWorks" />
        <cc:requires
           rdf:resource="http://creativecommons.org/ns#ShareAlike" />
      </cc:License>
    </rdf:RDF>
  </metadata>
  <g
     inkscape:label="Livello 1"
     inkscape:groupmode="layer"
     id="layer1"
     transform="translate(221.06648,-38.943214)">
    <g
       id="g5656"
       inkscape:export-xdpi="768"
       inkscape:export-ydpi="768">
      <rect
         style="fill:#a5d6a7;fill-opacity:1;stroke:none;stroke-width:1.00012;stroke-linejoin:round;paint-order:markers stroke fill"
         id="rect833"
         width="67.73333"
         height="67.73333"
         x="-221.06648"
         y="38.943214" />
      <path
         id="path1588"
         style="fill:#000001;fill-opacity:0.172549;stroke:none;stroke-width:0.264583px;stroke-linejoin:round;stroke-miterlimit:4;stroke-dasharray:none;paint-order:markers stroke fill"
         d="m -201.94981,59.828362 c -1.00444,0 -1.87757,0.689621 -2.11003,1.667011 l -0.61645,2.594835 c -1.46935,1.128399 -2.4836,2.820319 -2.71665,4.753102 l -1.45963,11.601488 10e-4,3.14e-4 c -0.0247,0.198868 -0.0389,0.400906 -0.0389,0.606312 0,1.440964 0.62745,2.735395 1.62354,3.626041 0.016,0.01473 0.0322,0.02926 0.0484,0.04378 0.0182,0.01678 0.0367,0.03326 0.0551,0.04977 0.016,0.01475 0.0322,0.02939 0.0484,0.04393 0.018,0.01656 0.0362,0.03286 0.0544,0.04916 0.0159,0.01466 0.0321,0.02902 0.0482,0.04347 0.0161,0.01479 0.0321,0.02951 0.0484,0.04409 0.0188,0.01739 0.0377,0.03467 0.0568,0.05177 0.017,0.01562 0.0341,0.03101 0.0513,0.04639 0.0174,0.01607 0.0352,0.03181 0.0528,0.04762 0.0161,0.01481 0.0323,0.0295 0.0485,0.04409 0.0177,0.01634 0.0356,0.03246 0.0536,0.04854 0.0165,0.01515 0.0331,0.03008 0.0498,0.04501 0.0174,0.01607 0.035,0.03196 0.0527,0.04777 0.0173,0.01592 0.0347,0.03165 0.0522,0.04731 0.0163,0.01503 0.0328,0.02989 0.0493,0.0447 0.0182,0.01679 0.0367,0.03326 0.0551,0.04977 0.0159,0.01465 0.032,0.02918 0.0481,0.04363 0.0182,0.01681 0.0367,0.03339 0.0551,0.04993 0.0159,0.01465 0.0321,0.02903 0.0482,0.04347 0.017,0.01563 0.034,0.03116 0.0511,0.04655 0.017,0.01565 0.0341,0.03113 0.0513,0.04654 0.0168,0.01551 0.0338,0.03081 0.0509,0.04608 0.019,0.01755 0.0383,0.03482 0.0576,0.05207 0.0155,0.01426 0.0312,0.02834 0.0469,0.0424 0.0169,0.01556 0.0339,0.03092 0.051,0.04624 0.0178,0.01637 0.0356,0.03259 0.0536,0.04869 0.0165,0.01521 0.0332,0.03018 0.0499,0.04516 0.0181,0.01671 0.0365,0.03318 0.0548,0.04962 0.0164,0.0151 0.033,0.02998 0.0496,0.04486 0.0173,0.01592 0.0347,0.03164 0.0522,0.04731 0.0163,0.01503 0.0328,0.02989 0.0493,0.0447 0.0171,0.01578 0.0344,0.03132 0.0518,0.04685 0.0181,0.01663 0.0362,0.0331 0.0545,0.04946 0.0161,0.01483 0.0324,0.02947 0.0487,0.04409 0.018,0.01663 0.0364,0.03295 0.0547,0.04931 0.0149,0.01367 0.0298,0.02722 0.0448,0.04071 0.0192,0.01776 0.0385,0.03539 0.0581,0.05284 0.0156,0.01439 0.0315,0.02852 0.0473,0.0427 0.018,0.01656 0.036,0.03301 0.0542,0.04931 0.0176,0.01621 0.0355,0.03213 0.0533,0.04808 0.0159,0.01459 0.0319,0.02894 0.0479,0.04332 0.0178,0.01642 0.0357,0.0327 0.0538,0.04885 0.0165,0.01515 0.0331,0.03008 0.0498,0.04501 0.0186,0.01715 0.0375,0.03398 0.0564,0.05085 0.0154,0.01421 0.0311,0.02823 0.0467,0.04224 0.0166,0.01526 0.0332,0.03044 0.0499,0.04547 0.0186,0.01711 0.0373,0.03402 0.0561,0.05085 0.0161,0.01481 0.0324,0.02934 0.0487,0.04393 0.018,0.01663 0.0362,0.0331 0.0545,0.04946 0.015,0.01377 0.03,0.02743 0.0452,0.04102 0.0192,0.01769 0.0385,0.03516 0.0579,0.05254 0.016,0.01473 0.0322,0.02926 0.0484,0.04378 0.017,0.0157 0.0342,0.03124 0.0515,0.0467 0.0177,0.01634 0.0356,0.03246 0.0536,0.04854 0.017,0.01562 0.0341,0.03101 0.0513,0.04639 0.0175,0.01616 0.0354,0.03202 0.0531,0.04793 0.0159,0.01463 0.032,0.02905 0.0481,0.04347 0.0178,0.01642 0.0357,0.0327 0.0538,0.04885 0.0164,0.01515 0.0331,0.03008 0.0498,0.04501 0.0175,0.01617 0.0352,0.03217 0.053,0.04808 0.0175,0.01616 0.0354,0.03202 0.0532,0.04793 0.0155,0.01429 0.0311,0.02846 0.0468,0.04255 0.0186,0.01711 0.0373,0.03402 0.0561,0.05085 0.016,0.01473 0.0322,0.02926 0.0484,0.04378 0.017,0.01567 0.0342,0.03111 0.0515,0.04654 0.0172,0.01585 0.0345,0.03156 0.0519,0.04716 0.017,0.01563 0.034,0.03116 0.0512,0.04654 0.018,0.01664 0.0364,0.03294 0.0547,0.04931 0.0162,0.01488 0.0325,0.02957 0.0489,0.04424 0.0177,0.01627 0.0354,0.03238 0.0533,0.04839 0.017,0.01562 0.0341,0.03101 0.0513,0.04639 0.0164,0.01513 0.033,0.0301 0.0496,0.04501 0.0181,0.01664 0.0364,0.03294 0.0547,0.04931 0.0157,0.01446 0.0315,0.02875 0.0475,0.04301 0.0186,0.01711 0.0373,0.03403 0.0561,0.05085 0.0164,0.0151 0.033,0.02998 0.0496,0.04485 0.0177,0.01626 0.0356,0.03224 0.0535,0.04823 0.0155,0.01429 0.0311,0.02846 0.0469,0.04255 0.0175,0.01618 0.0352,0.03216 0.053,0.04808 0.0169,0.01558 0.0339,0.03105 0.051,0.04639 0.0178,0.01639 0.0357,0.03257 0.0538,0.0487 0.0172,0.01582 0.0345,0.03144 0.0519,0.047 0.0163,0.01503 0.0328,0.02989 0.0493,0.0447 0.0181,0.01671 0.0365,0.03318 0.0548,0.04962 0.0161,0.0148 0.0324,0.02934 0.0487,0.04393 0.0171,0.01572 0.0342,0.03137 0.0515,0.04685 0.0181,0.01663 0.0364,0.03295 0.0547,0.04931 0.0159,0.01459 0.0319,0.02894 0.0479,0.04332 0.0182,0.01679 0.0365,0.03341 0.055,0.04993 0.0156,0.01439 0.0315,0.02852 0.0473,0.0427 0.0186,0.01711 0.0373,0.03402 0.0561,0.05085 0.0164,0.0151 0.033,0.02998 0.0496,0.04485 0.0166,0.01533 0.0334,0.03053 0.0502,0.04562 0.0176,0.0162 0.0353,0.03214 0.0531,0.04808 0.0154,0.01417 0.0308,0.02827 0.0464,0.04224 0.0192,0.01773 0.0386,0.03526 0.0581,0.05269 0.0166,0.01527 0.0334,0.03027 0.0502,0.04532 0.0172,0.01582 0.0345,0.03144 0.0519,0.04701 0.0163,0.01503 0.0328,0.02989 0.0493,0.0447 0.017,0.0157 0.0342,0.03124 0.0515,0.0467 0.0182,0.01678 0.0367,0.03326 0.0551,0.04977 0.016,0.01475 0.0322,0.02939 0.0484,0.04393 0.018,0.01663 0.0364,0.03295 0.0547,0.04931 0.0159,0.01459 0.0319,0.02894 0.0479,0.04332 0.0178,0.01642 0.0357,0.0327 0.0538,0.04885 0.0164,0.01515 0.0331,0.03008 0.0498,0.04501 0.0175,0.01617 0.0352,0.03217 0.053,0.04808 0.0176,0.01616 0.0354,0.03202 0.0531,0.04793 0.016,0.01471 0.0321,0.02928 0.0482,0.04378 0.0166,0.01531 0.0334,0.03039 0.0502,0.04547 0.0176,0.01625 0.0353,0.0324 0.0531,0.04839 0.0174,0.01607 0.035,0.03196 0.0527,0.04777 0.0178,0.01636 0.0358,0.03244 0.0538,0.04854 0.0154,0.01419 0.0309,0.02825 0.0465,0.04224 0.0186,0.01711 0.0373,0.03402 0.0561,0.05085 0.016,0.01473 0.0322,0.02926 0.0484,0.04378 0.0182,0.01678 0.0367,0.03326 0.0551,0.04977 0.016,0.01475 0.0322,0.02939 0.0484,0.04393 0.017,0.01563 0.0341,0.031 0.0513,0.04639 0.018,0.01656 0.0362,0.03286 0.0544,0.04916 0.0162,0.01488 0.0325,0.02958 0.0489,0.04424 0.0176,0.01626 0.0354,0.03238 0.0533,0.04839 0.017,0.01562 0.0341,0.03101 0.0513,0.04639 0.0175,0.01616 0.0354,0.03202 0.0532,0.04793 0.0149,0.01372 0.0299,0.02732 0.045,0.04086 0.0178,0.01641 0.0356,0.0327 0.0536,0.04885 0.0186,0.01711 0.0373,0.03402 0.0561,0.05085 0.0164,0.0151 0.033,0.02998 0.0496,0.04485 0.0173,0.01592 0.0347,0.03165 0.0522,0.04731 0.0163,0.01503 0.0328,0.02989 0.0493,0.0447 0.0181,0.01671 0.0365,0.03318 0.0548,0.04962 0.016,0.01473 0.0322,0.02926 0.0484,0.04378 0.0176,0.01624 0.0354,0.03225 0.0533,0.04823 0.0172,0.01582 0.0345,0.03144 0.0519,0.04701 0.0163,0.01503 0.0328,0.02989 0.0493,0.0447 0.0181,0.01664 0.0364,0.03294 0.0547,0.04931 0.0157,0.01446 0.0316,0.02875 0.0475,0.04301 0.0185,0.01711 0.0372,0.03402 0.0561,0.05084 0.0155,0.01422 0.0311,0.02823 0.0467,0.04224 0.0174,0.0161 0.035,0.03208 0.0527,0.04793 0.0178,0.01637 0.0356,0.03259 0.0536,0.0487 0.0165,0.01521 0.0332,0.03018 0.0499,0.04516 0.0181,0.01671 0.0365,0.03318 0.0548,0.04962 0.0164,0.0151 0.033,0.02998 0.0496,0.04485 0.0173,0.01591 0.0347,0.03164 0.0522,0.04731 0.0163,0.01503 0.0328,0.02989 0.0493,0.0447 0.0171,0.01578 0.0344,0.03132 0.0518,0.04685 0.0181,0.01663 0.0362,0.0331 0.0545,0.04946 0.0161,0.01483 0.0324,0.02948 0.0487,0.04409 0.018,0.01663 0.0364,0.03295 0.0547,0.04931 0.0159,0.01466 0.0319,0.02918 0.0481,0.04363 0.0176,0.0162 0.0353,0.03214 0.0531,0.04808 0.0166,0.01531 0.0334,0.03039 0.0502,0.04547 0.0164,0.01511 0.0329,0.03012 0.0495,0.04501 0.0188,0.01733 0.0378,0.03442 0.0568,0.05146 0.0159,0.01458 0.0319,0.02894 0.0479,0.04332 0.0178,0.01637 0.0356,0.03259 0.0536,0.04869 0.0165,0.01521 0.0332,0.03018 0.0499,0.04516 0.017,0.0157 0.0342,0.03124 0.0515,0.0467 0.0185,0.01708 0.0373,0.0339 0.0561,0.05069 0.0151,0.01391 0.0305,0.0276 0.0458,0.04132 0.0185,0.01704 0.037,0.03394 0.0558,0.05069 0.0161,0.01481 0.0324,0.02934 0.0487,0.04393 0.018,0.01663 0.0362,0.0331 0.0545,0.04946 0.0161,0.01483 0.0324,0.02948 0.0487,0.04409 0.017,0.01563 0.0341,0.03101 0.0513,0.04639 0.018,0.01664 0.0362,0.0331 0.0545,0.04946 0.0159,0.01466 0.0321,0.02902 0.0482,0.04347 0.0167,0.01539 0.0335,0.03062 0.0504,0.04578 0.0181,0.01672 0.0363,0.03333 0.0547,0.04977 0.0175,0.01616 0.0354,0.03202 0.0531,0.04793 0.0159,0.01463 0.032,0.02905 0.0481,0.04347 0.0168,0.01544 0.0336,0.03073 0.0505,0.04593 0.0186,0.01711 0.0373,0.03403 0.0561,0.05085 0.0165,0.01519 0.0332,0.03019 0.0499,0.04516 0.0175,0.01616 0.0354,0.03202 0.0532,0.04793 0.0155,0.01429 0.0311,0.02846 0.0469,0.04255 0.0186,0.01711 0.0373,0.03402 0.0561,0.05085 0.016,0.01473 0.0322,0.02926 0.0484,0.04378 0.017,0.0157 0.0342,0.03124 0.0515,0.0467 0.0182,0.01681 0.0367,0.03339 0.0551,0.04993 0.0159,0.01465 0.0321,0.02903 0.0482,0.04347 0.018,0.01656 0.0362,0.03286 0.0544,0.04916 0.015,0.01382 0.0301,0.02753 0.0453,0.04117 0.0188,0.01739 0.0377,0.03467 0.0568,0.05177 0.017,0.01562 0.0341,0.03101 0.0513,0.04639 0.0165,0.0152 0.0332,0.03019 0.0499,0.04516 0.018,0.01656 0.0361,0.03286 0.0544,0.04916 0.0157,0.01447 0.0316,0.02875 0.0475,0.04301 0.0186,0.01711 0.0373,0.03402 0.0561,0.05085 0.0164,0.0151 0.033,0.02998 0.0496,0.04485 0.0173,0.01592 0.0347,0.03165 0.0522,0.04731 0.0163,0.01503 0.0328,0.02989 0.0493,0.0447 0.0171,0.01578 0.0344,0.03132 0.0518,0.04685 0.018,0.01663 0.0362,0.0331 0.0545,0.04946 0.0166,0.01527 0.0334,0.03027 0.0502,0.04532 0.0172,0.01582 0.0345,0.03144 0.0519,0.04701 0.0163,0.01503 0.0328,0.02989 0.0493,0.0447 0.017,0.01565 0.0341,0.03113 0.0513,0.04654 0.0173,0.01593 0.0347,0.03164 0.0522,0.04731 0.0171,0.01572 0.0342,0.03137 0.0515,0.04685 0.0181,0.01663 0.0364,0.03295 0.0547,0.04931 0.0159,0.01459 0.0319,0.02894 0.0479,0.04332 0.0182,0.01679 0.0365,0.03341 0.055,0.04993 0.0156,0.01439 0.0315,0.02852 0.0473,0.0427 0.0174,0.0161 0.035,0.03208 0.0527,0.04793 0.0185,0.01708 0.0373,0.0339 0.0561,0.05069 0.0156,0.01436 0.0314,0.02855 0.0472,0.0427 0.0176,0.0162 0.0353,0.03214 0.0531,0.04808 0.0165,0.01521 0.0332,0.03018 0.0499,0.04516 0.0181,0.01663 0.0362,0.0331 0.0545,0.04946 0.0166,0.01527 0.0334,0.03027 0.0502,0.04532 0.0161,0.01479 0.0323,0.02936 0.0485,0.04393 0.0174,0.01605 0.0349,0.03198 0.0525,0.04777 0.0171,0.01578 0.0343,0.03147 0.0516,0.04701 0.0182,0.01678 0.0367,0.03326 0.0551,0.04977 0.016,0.01475 0.0322,0.0294 0.0484,0.04393 0.018,0.01663 0.0364,0.03295 0.0547,0.04931 0.0159,0.01459 0.0319,0.02894 0.0479,0.04332 0.0171,0.01578 0.0343,0.03147 0.0516,0.04701 0.0177,0.01634 0.0356,0.03246 0.0536,0.04854 0.0165,0.01515 0.0331,0.03008 0.0498,0.04501 0.0185,0.01708 0.0373,0.0339 0.0561,0.05069 0.0155,0.01426 0.0311,0.02834 0.0469,0.0424 0.0177,0.0163 0.0355,0.03235 0.0535,0.04839 0.0165,0.0152 0.0332,0.03018 0.0499,0.04516 0.017,0.01563 0.034,0.03116 0.0512,0.04654 0.0176,0.01624 0.0354,0.03225 0.0533,0.04824 0.0161,0.01481 0.0323,0.02949 0.0485,0.04409 0.0186,0.01711 0.0373,0.03402 0.0561,0.05085 0.016,0.01473 0.0322,0.02926 0.0484,0.04378 0.0177,0.01634 0.0356,0.03246 0.0536,0.04854 0.017,0.01562 0.0341,0.03101 0.0513,0.04639 0.0165,0.0152 0.0332,0.03019 0.0499,0.04516 0.018,0.01656 0.0362,0.03286 0.0544,0.04916 0.0162,0.01488 0.0325,0.02957 0.0489,0.04424 0.0176,0.01627 0.0354,0.03238 0.0533,0.04839 0.017,0.01562 0.0341,0.03101 0.0513,0.04639 0.0171,0.01572 0.0343,0.03122 0.0516,0.0467 0.0169,0.01557 0.034,0.0309 0.0512,0.04624 0.0161,0.01486 0.0323,0.02959 0.0487,0.04424 0.0186,0.01711 0.0373,0.03402 0.0561,0.05085 0.0154,0.01422 0.0311,0.02823 0.0467,0.04224 0.0182,0.01684 0.0366,0.03351 0.0551,0.05008 0.0164,0.01513 0.033,0.0301 0.0496,0.04501 0.0181,0.01664 0.0364,0.03294 0.0547,0.04931 0.0162,0.01488 0.0325,0.02957 0.0489,0.04424 0.017,0.0157 0.0342,0.03124 0.0515,0.0467 0.0181,0.01673 0.0364,0.03331 0.0548,0.04977 0.0159,0.01466 0.0321,0.02903 0.0482,0.04347 0.018,0.01657 0.0362,0.03286 0.0544,0.04916 0.0157,0.01447 0.0316,0.02875 0.0475,0.04301 0.0175,0.0161 0.035,0.03208 0.0527,0.04793 0.0186,0.01715 0.0375,0.03398 0.0564,0.05085 0.0155,0.01421 0.0311,0.02823 0.0467,0.04224 0.0177,0.01627 0.0354,0.03238 0.0533,0.04839 0.0164,0.01513 0.033,0.0301 0.0496,0.04501 0.0171,0.01573 0.0343,0.03121 0.0516,0.0467 0.0176,0.01622 0.0353,0.03227 0.0531,0.04823 0.0162,0.01489 0.0325,0.02957 0.0489,0.04424 0.0185,0.01704 0.037,0.03394 0.0558,0.05069 0.0161,0.01481 0.0324,0.02934 0.0487,0.04393 0.0181,0.01663 0.0362,0.0331 0.0545,0.04946 0.0161,0.01483 0.0324,0.02947 0.0487,0.04409 0.018,0.01663 0.0364,0.03295 0.0547,0.04931 0.016,0.01474 0.0322,0.02926 0.0484,0.04378 0.0169,0.01556 0.0339,0.03092 0.051,0.04624 0.0178,0.01642 0.0357,0.0327 0.0538,0.04885 0.0165,0.01515 0.0331,0.03008 0.0498,0.04501 0.0186,0.01715 0.0375,0.03398 0.0564,0.05085 0.0154,0.01421 0.0311,0.02824 0.0467,0.04224 0.0177,0.01627 0.0354,0.03238 0.0533,0.04839 0.0154,0.01417 0.0308,0.02827 0.0464,0.04224 0.0182,0.0168 0.0366,0.0334 0.055,0.04992 0.0185,0.01708 0.0373,0.0339 0.0561,0.05069 0.0151,0.01391 0.0305,0.0276 0.0458,0.04132 0.0185,0.01704 0.037,0.03394 0.0558,0.05069 0.0161,0.01481 0.0324,0.02934 0.0487,0.04393 0.0176,0.01619 0.0353,0.03214 0.0531,0.04808 0.017,0.01569 0.0342,0.03125 0.0515,0.0467 0.0165,0.0152 0.0332,0.03019 0.0499,0.04516 0.018,0.01664 0.0362,0.0331 0.0545,0.04946 0.0159,0.01466 0.0321,0.02902 0.0482,0.04347 0.0178,0.01642 0.0357,0.0327 0.0538,0.04885 0.0165,0.01515 0.0331,0.03008 0.0498,0.04501 0.0185,0.01708 0.0373,0.0339 0.0561,0.05069 0.0155,0.01426 0.0312,0.02834 0.0469,0.0424 0.0154,0.01423 0.0309,0.02837 0.0465,0.0424 0.0198,0.01831 0.0398,0.03639 0.0599,0.05438 0.016,0.01473 0.0322,0.02926 0.0484,0.04378 0.0185,0.01708 0.0373,0.0339 0.0561,0.05069 0.0151,0.01384 0.0302,0.02752 0.0455,0.04117 0.0174,0.0161 0.035,0.03208 0.0527,0.04793 0.0181,0.01671 0.0365,0.03318 0.0548,0.04962 0.016,0.01473 0.0322,0.02927 0.0484,0.04378 0.0182,0.01681 0.0367,0.03339 0.0551,0.04992 0.0159,0.01465 0.0321,0.02903 0.0482,0.04347 0.018,0.01656 0.0362,0.03286 0.0544,0.04916 0.0162,0.01488 0.0325,0.02958 0.0489,0.04424 0.0166,0.01528 0.0333,0.03042 0.0501,0.04547 0.0186,0.01711 0.0373,0.03402 0.0561,0.05085 0.0164,0.0151 0.033,0.02998 0.0496,0.04486 0.0165,0.01517 0.0331,0.03021 0.0498,0.04516 0.0168,0.01551 0.0338,0.03081 0.0508,0.04608 0.0185,0.01703 0.037,0.03394 0.0558,0.05069 0.0166,0.01527 0.0334,0.03027 0.0502,0.04532 0.0165,0.01523 0.0332,0.03032 0.0499,0.04532 0.0176,0.0162 0.0353,0.03214 0.0532,0.04808 0.0164,0.01513 0.033,0.0301 0.0496,0.04501 0.0181,0.01671 0.0365,0.03318 0.0548,0.04962 0.0161,0.0148 0.0324,0.02934 0.0487,0.04393 0.0182,0.01673 0.0364,0.03331 0.0548,0.04977 0.0159,0.01465 0.0321,0.02903 0.0482,0.04347 0.0169,0.01556 0.0339,0.03092 0.051,0.04624 0.0182,0.01678 0.0365,0.03342 0.055,0.04992 0.0156,0.01439 0.0315,0.02852 0.0473,0.04271 0.018,0.01656 0.036,0.03301 0.0542,0.04931 0.0165,0.01516 0.0331,0.03008 0.0498,0.04501 0.0178,0.01637 0.0356,0.03259 0.0536,0.04869 0.0165,0.0152 0.0332,0.03018 0.0499,0.04516 0.017,0.0157 0.0342,0.03124 0.0515,0.0467 0.0185,0.01708 0.0373,0.0339 0.0561,0.05069 0.0156,0.01435 0.0314,0.02855 0.0472,0.0427 0.0176,0.0162 0.0353,0.03214 0.0531,0.04808 0.0165,0.0152 0.0332,0.03018 0.0499,0.04516 0.0181,0.01663 0.0362,0.0331 0.0545,0.04946 0.0166,0.01527 0.0334,0.03027 0.0502,0.04532 0.0161,0.01479 0.0323,0.02936 0.0485,0.04393 0.0185,0.01702 0.037,0.03393 0.0558,0.05068 0.0159,0.0147 0.0321,0.029 0.0482,0.0435 0.0182,0.0168 0.0365,0.0334 0.055,0.0499 0.0151,0.0138 0.0302,0.0275 0.0455,0.0412 0.019,0.0175 0.0382,0.0348 0.0574,0.0521 0.0161,0.0148 0.0323,0.0295 0.0486,0.0441 0.017,0.0157 0.0342,0.0312 0.0515,0.0467 0.0177,0.0163 0.0356,0.0325 0.0536,0.0485 0.0165,0.0152 0.0331,0.0301 0.0498,0.045 0.0185,0.0171 0.0373,0.0339 0.0561,0.0507 0.0156,0.0144 0.0314,0.0286 0.0472,0.0427 0.0165,0.0152 0.0331,0.0302 0.0498,0.0452 0.0186,0.0172 0.0375,0.0341 0.0564,0.051 0.0159,0.0146 0.032,0.0292 0.0481,0.0436 0.0187,0.0173 0.0377,0.0342 0.0567,0.0512 0.015,0.0138 0.0303,0.0274 0.0455,0.041 0.0184,0.017 0.0369,0.0337 0.0556,0.0504 0.0161,0.0148 0.0323,0.0295 0.0485,0.0441 0.0165,0.0152 0.0331,0.0302 0.0498,0.0452 0.0182,0.0168 0.0366,0.0335 0.0551,0.0501 0.0165,0.0152 0.0332,0.0302 0.0499,0.0452 0.018,0.0166 0.0362,0.0329 0.0544,0.0492 0.0161,0.0148 0.0323,0.0295 0.0485,0.0441 0.0177,0.0163 0.0356,0.0325 0.0536,0.0485 0.0165,0.0151 0.0331,0.0301 0.0498,0.045 0.0174,0.0161 0.035,0.032 0.0527,0.0478 0.0176,0.0162 0.0354,0.0323 0.0533,0.0482 0.0155,0.0143 0.0313,0.0284 0.047,0.0425 0.0186,0.0172 0.0375,0.0341 0.0564,0.051 0.0159,0.0147 0.0319,0.0292 0.0481,0.0436 0.0182,0.0168 0.0367,0.0334 0.0551,0.0499 0.0159,0.0146 0.0321,0.029 0.0482,0.0435 0.017,0.0157 0.0342,0.0312 0.0515,0.0467 0.0169,0.0156 0.0339,0.031 0.051,0.0464 0.0173,0.0159 0.0347,0.0316 0.0522,0.0473 0.0181,0.0167 0.0364,0.0333 0.0548,0.0498 0.0159,0.0147 0.0321,0.029 0.0482,0.0435 0.0175,0.0161 0.0351,0.0321 0.0529,0.0479 0.0166,0.0153 0.0334,0.0304 0.0502,0.0455 0.017,0.0157 0.0342,0.0312 0.0515,0.0467 0.0185,0.0171 0.0373,0.0339 0.0561,0.0507 0.0156,0.0144 0.0314,0.0286 0.0472,0.0427 0.0176,0.0162 0.0353,0.0321 0.0532,0.0481 0.0164,0.0151 0.033,0.0301 0.0496,0.045 0.0181,0.0167 0.0365,0.0332 0.0548,0.0496 0.0161,0.0148 0.0324,0.0294 0.0487,0.0439 0.017,0.0157 0.0342,0.0312 0.0515,0.0467 0.0182,0.0167 0.0364,0.0333 0.0548,0.0498 0.0147,0.0135 0.0297,0.0269 0.0445,0.0402 0.0193,0.0178 0.0386,0.0355 0.0582,0.053 0.0156,0.0144 0.0315,0.0285 0.0473,0.0427 0.019,0.0176 0.0383,0.0348 0.0576,0.0521 0.0155,0.0142 0.0312,0.0283 0.0469,0.0424 0.0169,0.0156 0.0339,0.0309 0.051,0.0462 0.0178,0.0164 0.0357,0.0327 0.0538,0.0489 0.0165,0.0152 0.0331,0.0301 0.0498,0.045 0.0185,0.0171 0.0373,0.0339 0.0561,0.0507 0.0156,0.0144 0.0314,0.0286 0.0472,0.0427 0.0169,0.0156 0.034,0.031 0.0511,0.0464 0.0177,0.0163 0.0356,0.0325 0.0536,0.0485 0.0165,0.0151 0.0331,0.0301 0.0498,0.045 0.018,0.0166 0.0362,0.0331 0.0545,0.0495 0.015,0.0138 0.0302,0.0275 0.0455,0.0412 0.0191,0.0176 0.0383,0.0351 0.0576,0.0524 0.0161,0.0148 0.0324,0.0294 0.0487,0.0439 0.0169,0.0156 0.034,0.0312 0.0512,0.0465 0.0182,0.0168 0.0367,0.0334 0.0551,0.0499 0.0159,0.0147 0.0321,0.029 0.0482,0.0435 0.018,0.0166 0.0362,0.0329 0.0544,0.0492 0.0161,0.0148 0.0322,0.0295 0.0485,0.0441 0.0177,0.0163 0.0356,0.0325 0.0536,0.0485 0.0165,0.0152 0.0331,0.0301 0.0498,0.045 0.0175,0.0162 0.0352,0.0322 0.053,0.0481 0.0175,0.0162 0.0354,0.032 0.0532,0.0479 0.0155,0.0143 0.0311,0.0285 0.0468,0.0425 0.0186,0.0172 0.0375,0.0341 0.0564,0.051 0.016,0.0147 0.0322,0.0293 0.0484,0.0438 0.017,0.0157 0.0341,0.0313 0.0513,0.0467 0.017,0.0157 0.0342,0.0312 0.0515,0.0467 0.017,0.0157 0.0342,0.0312 0.0515,0.0467 0.0181,0.0167 0.0365,0.0332 0.0548,0.0496 0.0161,0.0148 0.0324,0.0293 0.0487,0.0439 0.0182,0.0167 0.0364,0.0333 0.0548,0.0498 0.0159,0.0146 0.0321,0.029 0.0482,0.0435 0.018,0.0166 0.0362,0.0329 0.0544,0.0492 0.0161,0.0148 0.0323,0.0295 0.0486,0.0441 0.0167,0.0154 0.0335,0.0305 0.0504,0.0456 0.019,0.0175 0.0383,0.0348 0.0576,0.0521 0.0155,0.0143 0.0311,0.0283 0.0469,0.0424 0.0175,0.0161 0.0351,0.0321 0.0528,0.0479 0.0165,0.0152 0.0332,0.0303 0.0499,0.0453 0.018,0.0166 0.0364,0.0329 0.0547,0.0493 0.0156,0.0143 0.0312,0.0286 0.047,0.0427 0.0176,0.0163 0.0354,0.0324 0.0533,0.0484 0.0175,0.0161 0.0351,0.0321 0.0528,0.0479 0.0165,0.0152 0.0332,0.0303 0.0499,0.0453 0.0177,0.0163 0.0356,0.0322 0.0535,0.0482 0.017,0.0157 0.0341,0.0311 0.0513,0.0465 0.0171,0.0158 0.0344,0.0313 0.0518,0.0469 0.0171,0.0157 0.0343,0.0312 0.0516,0.0467 0.0164,0.0151 0.033,0.0301 0.0496,0.045 0.0177,0.0163 0.0356,0.0322 0.0535,0.0482 0.017,0.0157 0.0341,0.0311 0.0513,0.0466 0.0176,0.0163 0.0356,0.0322 0.0534,0.0482 0.016,0.0148 0.0322,0.0294 0.0484,0.0439 0.0169,0.0156 0.034,0.031 0.0512,0.0464 0.0176,0.0162 0.0353,0.0321 0.0531,0.0481 0.016,0.0147 0.0321,0.0293 0.0482,0.0438 0.0186,0.0172 0.0375,0.0341 0.0564,0.051 0.0162,0.0149 0.0325,0.0297 0.0488,0.0444 0.0175,0.0161 0.0351,0.0319 0.0528,0.0478 0.0166,0.0153 0.0334,0.0304 0.0502,0.0455 0.017,0.0157 0.0342,0.0312 0.0515,0.0467 0.0176,0.0162 0.0353,0.0321 0.0531,0.0481 0.0175,0.0161 0.0351,0.0321 0.0528,0.0479 0.0166,0.0153 0.0335,0.0304 0.0504,0.0455 0.0165,0.0152 0.0332,0.0302 0.0499,0.0452 0.0176,0.0162 0.0353,0.0321 0.0531,0.0481 0.0165,0.0152 0.0332,0.0303 0.0499,0.0453 0.0175,0.0162 0.0352,0.0322 0.053,0.0481 0.0175,0.0162 0.0354,0.032 0.0531,0.0479 0.0161,0.0148 0.0323,0.0295 0.0485,0.0441 0.0165,0.0152 0.0332,0.0302 0.0499,0.0452 0.0176,0.0162 0.0353,0.0324 0.0532,0.0484 0.0181,0.0167 0.0364,0.0331 0.0547,0.0495 0.016,0.0147 0.0322,0.0293 0.0484,0.0438 0.0174,0.0161 0.035,0.0319 0.0527,0.0478 0.0172,0.0159 0.0346,0.0315 0.0521,0.0472 0.0166,0.0153 0.0334,0.0304 0.0502,0.0455 0.018,0.0166 0.0362,0.0329 0.0544,0.0492 0.016,0.0147 0.0322,0.0293 0.0484,0.0438 0.0175,0.0161 0.0351,0.0321 0.0528,0.0479 0.017,0.0157 0.0342,0.0311 0.0515,0.0465 0.0168,0.0155 0.0337,0.0307 0.0507,0.0459 0.0174,0.016 0.0349,0.0319 0.0525,0.0476 0.0167,0.0154 0.0336,0.0306 0.0505,0.0458 0.018,0.0165 0.0362,0.0329 0.0544,0.0491 0.0153,0.014 0.0306,0.0279 0.0461,0.0418 0.018,0.0166 0.036,0.033 0.0542,0.0493 0.0174,0.016 0.0349,0.0319 0.0525,0.0476 0.0177,0.0162 0.0356,0.0322 0.0535,0.0482 0.0161,0.0148 0.0324,0.0295 0.0487,0.0441 0.0173,0.016 0.0348,0.0317 0.0524,0.0475 0.004,0.003 0.007,0.007 0.0109,0.01 h 29.64306 V 76.170048 c -0.003,-0.0026 -0.006,-0.0052 -0.009,-0.0078 -0.017,-0.01623 -0.0347,-0.03166 -0.0522,-0.04731 -0.0168,-0.01597 -0.0342,-0.03113 -0.0515,-0.04654 -0.0166,-0.01579 -0.0338,-0.03083 -0.0508,-0.04608 -0.0171,-0.01632 -0.0349,-0.03187 -0.0525,-0.04762 -0.0164,-0.01564 -0.0335,-0.03051 -0.0504,-0.04562 -0.0175,-0.01665 -0.0356,-0.03249 -0.0536,-0.04854 -0.0162,-0.01538 -0.033,-0.02998 -0.0496,-0.04485 -0.0171,-0.01633 -0.0349,-0.03187 -0.0525,-0.04762 -0.0168,-0.01596 -0.0342,-0.03113 -0.0515,-0.04654 -0.0166,-0.01579 -0.0338,-0.03084 -0.0508,-0.04608 -0.0171,-0.0163 -0.0349,-0.03174 -0.0525,-0.04747 -0.0165,-0.01571 -0.0335,-0.03075 -0.0505,-0.04593 -0.017,-0.01618 -0.0346,-0.03155 -0.0521,-0.04716 -0.0169,-0.01607 -0.0344,-0.03134 -0.0518,-0.04685 -0.0166,-0.01579 -0.0338,-0.03084 -0.0509,-0.04608 -0.0171,-0.0163 -0.0349,-0.03175 -0.0525,-0.04747 -0.0167,-0.01589 -0.034,-0.03105 -0.0512,-0.04639 -0.0166,-0.01579 -0.0338,-0.03083 -0.0508,-0.04608 -0.0171,-0.01632 -0.0349,-0.03187 -0.0525,-0.04762 -0.0165,-0.01573 -0.0337,-0.03073 -0.0507,-0.04593 -0.0171,-0.0163 -0.0349,-0.03174 -0.0525,-0.04747 -0.0164,-0.01562 -0.0334,-0.03053 -0.0502,-0.04562 -0.0175,-0.01665 -0.0356,-0.03249 -0.0536,-0.04854 -0.0165,-0.01566 -0.0336,-0.0305 -0.0505,-0.04562 -0.0165,-0.01574 -0.0337,-0.03073 -0.0507,-0.04593 -0.0172,-0.01635 -0.035,-0.03185 -0.0527,-0.04762 -0.0162,-0.01541 -0.033,-0.03011 -0.0496,-0.04501 -0.0176,-0.01681 -0.0359,-0.0328 -0.0541,-0.049 -0.0166,-0.01573 -0.0337,-0.03073 -0.0507,-0.04593 -0.0166,-0.01579 -0.0338,-0.03084 -0.0508,-0.04609 -0.0171,-0.01629 -0.0349,-0.03174 -0.0525,-0.04747 -0.0165,-0.01571 -0.0336,-0.03075 -0.0505,-0.04593 -0.017,-0.01623 -0.0347,-0.03166 -0.0522,-0.04731 -0.0169,-0.01606 -0.0344,-0.03135 -0.0518,-0.04685 -0.0165,-0.01573 -0.0337,-0.03073 -0.0507,-0.04593 -0.0171,-0.0163 -0.0349,-0.03174 -0.0525,-0.04747 -0.0165,-0.01571 -0.0335,-0.03075 -0.0505,-0.04593 -0.0171,-0.0163 -0.0349,-0.03174 -0.0525,-0.04747 -0.017,-0.01617 -0.0346,-0.03156 -0.0521,-0.04716 -0.0163,-0.01548 -0.0332,-0.0302 -0.0499,-0.04516 -0.0171,-0.01633 -0.0349,-0.03187 -0.0525,-0.04762 -0.0162,-0.01544 -0.0331,-0.03008 -0.0498,-0.04501 -0.0176,-0.01681 -0.0359,-0.0328 -0.0541,-0.049 -0.0165,-0.01573 -0.0337,-0.03074 -0.0507,-0.04593 -0.0165,-0.01574 -0.0337,-0.03073 -0.0507,-0.04593 -0.0172,-0.01635 -0.035,-0.03185 -0.0527,-0.04762 -0.0165,-0.01571 -0.0336,-0.03075 -0.0505,-0.04593 -0.0171,-0.01627 -0.0348,-0.03177 -0.0524,-0.04747 -0.0168,-0.01602 -0.0343,-0.03124 -0.0516,-0.0467 -0.0165,-0.01573 -0.0337,-0.03073 -0.0507,-0.04593 -0.0171,-0.0163 -0.0349,-0.03174 -0.0525,-0.04747 -0.0165,-0.01571 -0.0335,-0.03075 -0.0505,-0.04593 -0.0171,-0.0163 -0.0349,-0.03174 -0.0525,-0.04747 -0.0168,-0.01599 -0.0342,-0.03127 -0.0515,-0.0467 -0.0168,-0.01597 -0.0342,-0.03112 -0.0515,-0.04654 -0.0168,-0.01597 -0.0342,-0.03113 -0.0515,-0.04655 -0.0163,-0.01549 -0.0332,-0.03019 -0.0499,-0.04516 -0.0174,-0.01663 -0.0355,-0.03251 -0.0534,-0.04854 -0.017,-0.01617 -0.0346,-0.03156 -0.0521,-0.04716 -0.0164,-0.01556 -0.0334,-0.03028 -0.0502,-0.04532 -0.017,-0.0162 -0.0346,-0.03168 -0.0521,-0.04731 -0.0163,-0.01549 -0.0332,-0.03019 -0.0499,-0.04516 -0.0176,-0.01682 -0.0359,-0.0328 -0.0541,-0.049 -0.0165,-0.01573 -0.0337,-0.03073 -0.0507,-0.04593 -0.0167,-0.01587 -0.034,-0.03091 -0.0512,-0.04624 -0.017,-0.01615 -0.0345,-0.03158 -0.0519,-0.04716 -0.0165,-0.01574 -0.0337,-0.03073 -0.0507,-0.04593 -0.0172,-0.01635 -0.035,-0.03185 -0.0527,-0.04762 -0.0165,-0.01571 -0.0335,-0.03075 -0.0505,-0.04593 -0.0171,-0.0163 -0.0349,-0.03174 -0.0525,-0.04747 -0.017,-0.01617 -0.0346,-0.03156 -0.0521,-0.04716 -0.016,-0.01523 -0.0327,-0.02966 -0.0492,-0.04439 -0.0174,-0.01663 -0.0355,-0.03251 -0.0534,-0.04854 -0.0165,-0.01571 -0.0335,-0.03075 -0.0505,-0.04593 -0.0173,-0.01648 -0.0353,-0.03204 -0.0531,-0.04793 -0.0165,-0.01573 -0.0337,-0.03073 -0.0507,-0.04593 -0.0163,-0.01549 -0.0332,-0.03019 -0.0499,-0.04516 -0.0177,-0.01688 -0.036,-0.03304 -0.0542,-0.04931 -0.0162,-0.01538 -0.033,-0.02999 -0.0496,-0.04485 -0.0171,-0.01633 -0.0349,-0.03187 -0.0525,-0.04762 -0.0168,-0.01597 -0.0342,-0.03113 -0.0515,-0.04654 -0.0165,-0.01574 -0.0337,-0.03073 -0.0507,-0.04593 -0.0172,-0.01635 -0.035,-0.03185 -0.0527,-0.04762 -0.0165,-0.01571 -0.0335,-0.03075 -0.0505,-0.04593 -0.0171,-0.0163 -0.0349,-0.03174 -0.0525,-0.04747 -0.0167,-0.01594 -0.0341,-0.03116 -0.0513,-0.04654 -0.0165,-0.01574 -0.0337,-0.03073 -0.0507,-0.04593 -0.0172,-0.01635 -0.035,-0.03185 -0.0527,-0.04762 -0.0165,-0.01571 -0.0335,-0.03076 -0.0505,-0.04593 -0.0171,-0.0163 -0.0349,-0.03175 -0.0525,-0.04747 -0.017,-0.01617 -0.0346,-0.03156 -0.0521,-0.04716 -0.016,-0.01523 -0.0327,-0.02967 -0.0492,-0.0444 -0.0174,-0.01663 -0.0355,-0.03251 -0.0534,-0.04854 -0.0164,-0.01562 -0.0334,-0.03053 -0.0502,-0.04562 -0.0175,-0.01665 -0.0356,-0.03249 -0.0536,-0.04854 -0.0162,-0.01538 -0.033,-0.02998 -0.0496,-0.04485 -0.0171,-0.01628 -0.0348,-0.03176 -0.0524,-0.04747 -0.0169,-0.01607 -0.0344,-0.03134 -0.0518,-0.04685 -0.0165,-0.01574 -0.0337,-0.03073 -0.0507,-0.04593 -0.0171,-0.0163 -0.0349,-0.03174 -0.0525,-0.04747 -0.0168,-0.01594 -0.0341,-0.03116 -0.0513,-0.04654 -0.0165,-0.01574 -0.0337,-0.03073 -0.0507,-0.04593 -0.0171,-0.01632 -0.0349,-0.03187 -0.0525,-0.04762 -0.0165,-0.01574 -0.0337,-0.03073 -0.0507,-0.04593 -0.0171,-0.0163 -0.0349,-0.03175 -0.0525,-0.04747 -0.017,-0.01617 -0.0346,-0.03156 -0.0521,-0.04716 -0.016,-0.01523 -0.0327,-0.02967 -0.0492,-0.04439 -0.0174,-0.01663 -0.0355,-0.03251 -0.0534,-0.04854 -0.0165,-0.01571 -0.0336,-0.03075 -0.0505,-0.04593 -0.0171,-0.0163 -0.0349,-0.03174 -0.0525,-0.04747 -0.0168,-0.01599 -0.0342,-0.03127 -0.0515,-0.0467 -0.0165,-0.01573 -0.0337,-0.03073 -0.0507,-0.04593 -0.0173,-0.01648 -0.0353,-0.03204 -0.0532,-0.04793 -0.0163,-0.01546 -0.0331,-0.03022 -0.0498,-0.04516 -0.0172,-0.01635 -0.035,-0.03185 -0.0527,-0.04762 -0.0165,-0.01566 -0.0335,-0.03065 -0.0504,-0.04578 -0.0171,-0.01628 -0.0348,-0.03176 -0.0524,-0.04747 -0.0169,-0.01607 -0.0344,-0.03135 -0.0518,-0.04685 -0.0165,-0.01574 -0.0337,-0.03073 -0.0507,-0.04593 -0.0171,-0.0163 -0.0349,-0.03174 -0.0525,-0.04747 -0.0168,-0.01599 -0.0342,-0.03127 -0.0515,-0.0467 -0.0164,-0.01564 -0.0335,-0.03051 -0.0504,-0.04562 -0.0172,-0.0164 -0.0351,-0.03195 -0.0528,-0.04777 -0.0165,-0.01571 -0.0336,-0.03075 -0.0505,-0.04593 -0.0171,-0.0163 -0.0349,-0.03174 -0.0525,-0.04747 -0.0168,-0.01599 -0.0342,-0.03126 -0.0515,-0.0467 -0.0165,-0.01573 -0.0337,-0.03073 -0.0507,-0.04593 -0.0174,-0.01655 -0.0354,-0.03228 -0.0533,-0.04823 -0.0162,-0.01538 -0.033,-0.02999 -0.0496,-0.04486 -0.0168,-0.01605 -0.0343,-0.03136 -0.0516,-0.04685 -0.0171,-0.01632 -0.0349,-0.03187 -0.0525,-0.04762 -0.0164,-0.01564 -0.0335,-0.03051 -0.0504,-0.04562 -0.0174,-0.01658 -0.0355,-0.03225 -0.0534,-0.04824 -0.0163,-0.01546 -0.0331,-0.03022 -0.0498,-0.04516 -0.0172,-0.01635 -0.035,-0.03185 -0.0527,-0.04762 -0.0168,-0.01594 -0.0341,-0.03116 -0.0513,-0.04654 -0.0165,-0.01574 -0.0337,-0.03073 -0.0507,-0.04593 -0.0172,-0.01635 -0.035,-0.03184 -0.0527,-0.04762 -0.0165,-0.01571 -0.0335,-0.03075 -0.0505,-0.04593 -0.0171,-0.01627 -0.0348,-0.03177 -0.0524,-0.04747 -0.0168,-0.01601 -0.0343,-0.03124 -0.0516,-0.0467 -0.0165,-0.01573 -0.0337,-0.03073 -0.0507,-0.04593 -0.0171,-0.0163 -0.0349,-0.03174 -0.0525,-0.04747 -0.0167,-0.01589 -0.034,-0.03105 -0.0512,-0.04639 -0.0165,-0.01574 -0.0337,-0.03072 -0.0507,-0.04593 -0.0172,-0.01638 -0.035,-0.03198 -0.0527,-0.04777 -0.0165,-0.01573 -0.0337,-0.03074 -0.0507,-0.04593 -0.0173,-0.01648 -0.0353,-0.03204 -0.0532,-0.04793 -0.0163,-0.01546 -0.0331,-0.03022 -0.0498,-0.04516 -0.0171,-0.01632 -0.0349,-0.03187 -0.0525,-0.04762 -0.0165,-0.01569 -0.0336,-0.03062 -0.0505,-0.04578 -0.0171,-0.01628 -0.0348,-0.03176 -0.0524,-0.04747 -0.0169,-0.01607 -0.0344,-0.03134 -0.0518,-0.04685 -0.0165,-0.01574 -0.0337,-0.03072 -0.0507,-0.04593 -0.0171,-0.01627 -0.0348,-0.03177 -0.0524,-0.04747 -0.0168,-0.01597 -0.0342,-0.03113 -0.0515,-0.04654 -0.0166,-0.01579 -0.0338,-0.03083 -0.0508,-0.04608 -0.0171,-0.0163 -0.0349,-0.03174 -0.0525,-0.04747 -0.0165,-0.01571 -0.0336,-0.03075 -0.0505,-0.04593 -0.017,-0.01618 -0.0346,-0.03155 -0.0521,-0.04716 -0.0169,-0.01612 -0.0345,-0.03145 -0.0519,-0.04701 -0.0165,-0.01573 -0.0337,-0.03073 -0.0507,-0.04593 -0.0171,-0.0163 -0.0349,-0.03175 -0.0525,-0.04747 -0.0167,-0.01589 -0.034,-0.03105 -0.0512,-0.04639 -0.0169,-0.01607 -0.0344,-0.03135 -0.0518,-0.04685 -0.0165,-0.01569 -0.0336,-0.03062 -0.0505,-0.04578 -0.0172,-0.01637 -0.035,-0.03198 -0.0527,-0.04777 -0.0168,-0.01597 -0.0342,-0.03113 -0.0515,-0.04655 -0.0162,-0.01544 -0.0331,-0.03008 -0.0498,-0.04501 -0.0176,-0.01682 -0.0359,-0.0328 -0.0541,-0.049 -0.0165,-0.01573 -0.0337,-0.03073 -0.0507,-0.04593 -0.0166,-0.01579 -0.0338,-0.03084 -0.0508,-0.04608 -0.0171,-0.01627 -0.0348,-0.03177 -0.0524,-0.04747 -0.0165,-0.01573 -0.0337,-0.03073 -0.0507,-0.04593 -0.0171,-0.01627 -0.0348,-0.03177 -0.0524,-0.04747 -0.0168,-0.01597 -0.0342,-0.03113 -0.0515,-0.04655 -0.0166,-0.01579 -0.0338,-0.03084 -0.0508,-0.04608 -0.0171,-0.0163 -0.0349,-0.03174 -0.0525,-0.04747 -0.0165,-0.01571 -0.0336,-0.03075 -0.0505,-0.04593 -0.0173,-0.01648 -0.0353,-0.03204 -0.0531,-0.04793 -0.016,-0.01521 -0.0326,-0.02969 -0.049,-0.04439 -0.0174,-0.01664 -0.0355,-0.03251 -0.0535,-0.04854 -0.0168,-0.01601 -0.0343,-0.03124 -0.0516,-0.0467 -0.0165,-0.01571 -0.0335,-0.03075 -0.0505,-0.04593 -0.0171,-0.0163 -0.0349,-0.03174 -0.0525,-0.04747 -0.017,-0.01617 -0.0346,-0.03155 -0.0521,-0.04716 -0.0163,-0.01548 -0.0332,-0.0302 -0.0499,-0.04516 -0.0171,-0.01633 -0.0349,-0.03187 -0.0525,-0.04762 -0.0162,-0.01543 -0.0331,-0.03009 -0.0498,-0.04501 -0.0176,-0.01681 -0.0359,-0.0328 -0.0541,-0.049 -0.0163,-0.01546 -0.0331,-0.03022 -0.0498,-0.04516 -0.0171,-0.01632 -0.0349,-0.03187 -0.0525,-0.04762 -0.0169,-0.01604 -0.0344,-0.03122 -0.0518,-0.0467 -0.0165,-0.01571 -0.0336,-0.03075 -0.0505,-0.04593 -0.017,-0.01618 -0.0346,-0.03155 -0.0521,-0.04716 -0.0169,-0.01612 -0.0345,-0.03145 -0.0519,-0.047 -0.0166,-0.01582 -0.0339,-0.03081 -0.051,-0.04608 -0.017,-0.01622 -0.0347,-0.03166 -0.0522,-0.04731 -0.0165,-0.01571 -0.0335,-0.03075 -0.0505,-0.04593 -0.0171,-0.0163 -0.0349,-0.03174 -0.0525,-0.04747 -0.0168,-0.01599 -0.0342,-0.03126 -0.0515,-0.0467 -0.0167,-0.01591 -0.0341,-0.03102 -0.0513,-0.04639 -0.0168,-0.01602 -0.0343,-0.03124 -0.0516,-0.0467 -0.0163,-0.01549 -0.0332,-0.03019 -0.0499,-0.04516 -0.0174,-0.01663 -0.0355,-0.03251 -0.0535,-0.04854 -0.017,-0.01617 -0.0346,-0.03156 -0.0521,-0.04716 -0.0164,-0.01556 -0.0334,-0.03028 -0.0502,-0.04532 -0.017,-0.0162 -0.0346,-0.03168 -0.0521,-0.04731 -0.0166,-0.01579 -0.0338,-0.03084 -0.0508,-0.04608 -0.0171,-0.01627 -0.0348,-0.03177 -0.0524,-0.04747 -0.0165,-0.01574 -0.0337,-0.03073 -0.0507,-0.04593 -0.0171,-0.0163 -0.0349,-0.03174 -0.0525,-0.04747 -0.0168,-0.01594 -0.0341,-0.03116 -0.0513,-0.04654 -0.0166,-0.01579 -0.0338,-0.03083 -0.0508,-0.04608 -0.0171,-0.0163 -0.0349,-0.03174 -0.0525,-0.04747 -0.0165,-0.01571 -0.0336,-0.03075 -0.0505,-0.04593 -0.0174,-0.01655 -0.0354,-0.03228 -0.0533,-0.04823 -0.0165,-0.01566 -0.0336,-0.0305 -0.0505,-0.04562 -0.0163,-0.01549 -0.0332,-0.03019 -0.0499,-0.04516 -0.0174,-0.01663 -0.0355,-0.03251 -0.0535,-0.04854 -0.0164,-0.01562 -0.0333,-0.03054 -0.0502,-0.04562 -0.0174,-0.01658 -0.0355,-0.03225 -0.0534,-0.04824 -0.0165,-0.01573 -0.0337,-0.03074 -0.0507,-0.04593 -0.0166,-0.01579 -0.0338,-0.03084 -0.0508,-0.04608 -0.0171,-0.01627 -0.0348,-0.03177 -0.0524,-0.04747 -0.0165,-0.01569 -0.0336,-0.03062 -0.0505,-0.04578 -0.0171,-0.01633 -0.0349,-0.03187 -0.0525,-0.04762 -0.0168,-0.01597 -0.0342,-0.03113 -0.0515,-0.04654 -0.0165,-0.01574 -0.0337,-0.03073 -0.0507,-0.04593 -0.0172,-0.01635 -0.035,-0.03184 -0.0527,-0.04762 -0.0165,-0.01571 -0.0336,-0.03075 -0.0505,-0.04593 -0.0171,-0.0163 -0.0349,-0.03174 -0.0525,-0.04747 -0.017,-0.01617 -0.0346,-0.03156 -0.0521,-0.04716 -0.016,-0.01518 -0.0326,-0.02956 -0.049,-0.04424 -0.0175,-0.01669 -0.0356,-0.03261 -0.0536,-0.04869 -0.0165,-0.01571 -0.0335,-0.03076 -0.0505,-0.04593 -0.0173,-0.01648 -0.0353,-0.03204 -0.0532,-0.04793 -0.0165,-0.01573 -0.0337,-0.03073 -0.0507,-0.04593 -0.0165,-0.01574 -0.0337,-0.03073 -0.0507,-0.04593 -0.0168,-0.01605 -0.0343,-0.03136 -0.0516,-0.04685 -0.017,-0.01623 -0.0347,-0.03165 -0.0522,-0.04731 -0.0169,-0.01607 -0.0344,-0.03134 -0.0518,-0.04685 -0.0168,-0.01597 -0.0342,-0.03113 -0.0515,-0.04654 -0.0165,-0.01574 -0.0337,-0.03073 -0.0507,-0.04593 -0.0171,-0.01632 -0.0349,-0.03187 -0.0525,-0.04762 -0.0165,-0.01574 -0.0337,-0.03073 -0.0507,-0.04593 -0.0171,-0.0163 -0.0349,-0.03174 -0.0525,-0.04747 -0.0167,-0.01594 -0.0341,-0.03116 -0.0513,-0.04654 -0.0165,-0.01574 -0.0337,-0.03073 -0.0507,-0.04593 -0.0172,-0.01635 -0.035,-0.03185 -0.0527,-0.04762 -0.0165,-0.01571 -0.0336,-0.03075 -0.0505,-0.04593 -0.0171,-0.0163 -0.0349,-0.03175 -0.0525,-0.04747 -0.017,-0.01617 -0.0346,-0.03156 -0.0521,-0.04716 -0.0163,-0.01548 -0.0332,-0.0302 -0.0499,-0.04516 -0.0168,-0.01605 -0.0343,-0.03136 -0.0516,-0.04685 -0.0171,-0.01632 -0.0349,-0.03187 -0.0525,-0.04762 -0.0168,-0.01596 -0.0342,-0.03113 -0.0515,-0.04654 -0.0165,-0.01569 -0.0336,-0.03062 -0.0505,-0.04578 -0.0171,-0.01628 -0.0348,-0.03176 -0.0524,-0.04747 -0.0169,-0.01607 -0.0344,-0.03134 -0.0518,-0.04685 -0.0165,-0.01569 -0.0336,-0.03062 -0.0505,-0.04578 -0.0172,-0.01635 -0.035,-0.03185 -0.0527,-0.04762 -0.0165,-0.01566 -0.0335,-0.03065 -0.0504,-0.04578 -0.0171,-0.01628 -0.0348,-0.03176 -0.0524,-0.04747 -0.0169,-0.01607 -0.0344,-0.03134 -0.0518,-0.04685 -0.0165,-0.01574 -0.0337,-0.03073 -0.0507,-0.04593 -0.0171,-0.0163 -0.0349,-0.03175 -0.0525,-0.04747 -0.0168,-0.01599 -0.0342,-0.03127 -0.0515,-0.0467 -0.0164,-0.01564 -0.0335,-0.03051 -0.0504,-0.04562 -0.0172,-0.0164 -0.0351,-0.03195 -0.0529,-0.04777 -0.0165,-0.01571 -0.0335,-0.03075 -0.0505,-0.04593 -0.0171,-0.0163 -0.0349,-0.03174 -0.0525,-0.04747 -0.0168,-0.01599 -0.0342,-0.03126 -0.0515,-0.0467 -0.0165,-0.01573 -0.0337,-0.03073 -0.0507,-0.04593 -0.0173,-0.01648 -0.0353,-0.03203 -0.0531,-0.04793 -0.0163,-0.01546 -0.0331,-0.03022 -0.0498,-0.04516 -0.0172,-0.01635 -0.035,-0.03185 -0.0527,-0.04762 -0.0165,-0.01566 -0.0335,-0.03065 -0.0504,-0.04578 -0.0171,-0.01628 -0.0348,-0.03176 -0.0524,-0.04747 -0.0169,-0.01607 -0.0344,-0.03134 -0.0518,-0.04685 -0.0165,-0.01569 -0.0336,-0.03062 -0.0505,-0.04578 -0.0172,-0.01635 -0.035,-0.03185 -0.0527,-0.04762 -0.0168,-0.01599 -0.0342,-0.03127 -0.0515,-0.0467 -0.0164,-0.01561 -0.0335,-0.03038 -0.0504,-0.04547 -0.0172,-0.01643 -0.0351,-0.03208 -0.0529,-0.04793 -0.0165,-0.01571 -0.0335,-0.03075 -0.0505,-0.04593 -0.0171,-0.01627 -0.0348,-0.03177 -0.0524,-0.04747 -0.0168,-0.01602 -0.0343,-0.03124 -0.0516,-0.0467 -0.0165,-0.01573 -0.0337,-0.03073 -0.0507,-0.04593 -0.0171,-0.0163 -0.0349,-0.03174 -0.0525,-0.04747 -0.0167,-0.01589 -0.034,-0.03104 -0.0512,-0.04639 -0.0169,-0.01607 -0.0344,-0.03134 -0.0518,-0.04685 -0.0165,-0.01569 -0.0336,-0.03062 -0.0505,-0.04578 -0.0169,-0.01609 -0.0344,-0.03147 -0.0518,-0.04701 -0.0173,-0.01648 -0.0353,-0.03204 -0.0531,-0.04793 -0.0163,-0.01546 -0.0331,-0.03022 -0.0498,-0.04516 -0.0171,-0.01632 -0.0349,-0.03187 -0.0525,-0.04762 -0.0168,-0.01601 -0.0343,-0.03124 -0.0516,-0.0467 -0.0165,-0.01568 -0.0336,-0.03063 -0.0505,-0.04578 -0.0172,-0.01635 -0.035,-0.03184 -0.0527,-0.04762 -0.0165,-0.01571 -0.0336,-0.03075 -0.0505,-0.04593 -0.0171,-0.01627 -0.0348,-0.03177 -0.0524,-0.04747 -0.0168,-0.01602 -0.0343,-0.03124 -0.0516,-0.0467 -0.0165,-0.01573 -0.0337,-0.03073 -0.0507,-0.04593 -0.0171,-0.0163 -0.0349,-0.03174 -0.0525,-0.04747 -0.0168,-0.01599 -0.0342,-0.03126 -0.0515,-0.0467 -0.0164,-0.01564 -0.0335,-0.03051 -0.0504,-0.04562 -0.0172,-0.01638 -0.035,-0.03198 -0.0527,-0.04777 -0.0165,-0.01573 -0.0337,-0.03073 -0.0507,-0.04593 -0.0171,-0.0163 -0.0349,-0.03174 -0.0525,-0.04747 -0.0167,-0.01589 -0.034,-0.03105 -0.0512,-0.04639 -0.0169,-0.01607 -0.0344,-0.03135 -0.0518,-0.04685 -0.0168,-0.01602 -0.0343,-0.03124 -0.0516,-0.0467 -0.0165,-0.01568 -0.0336,-0.03063 -0.0505,-0.04578 -0.0171,-0.01633 -0.0349,-0.03187 -0.0525,-0.04762 -0.0162,-0.01544 -0.0331,-0.03008 -0.0498,-0.04501 -0.0176,-0.01682 -0.0359,-0.0328 -0.0541,-0.049 -0.0166,-0.01573 -0.0337,-0.03073 -0.0507,-0.04593 -0.0166,-0.01579 -0.0338,-0.03084 -0.0508,-0.04608 -0.0171,-0.01627 -0.0348,-0.03177 -0.0524,-0.04747 -0.0165,-0.01573 -0.0337,-0.03073 -0.0507,-0.04593 -0.017,-0.01618 -0.0346,-0.03155 -0.0521,-0.04716 -0.0169,-0.01607 -0.0344,-0.03134 -0.0518,-0.04685 -0.0166,-0.01579 -0.0338,-0.03084 -0.0508,-0.04609 -0.0171,-0.01627 -0.0348,-0.03177 -0.0524,-0.04747 -0.0167,-0.01591 -0.0341,-0.03102 -0.0513,-0.04639 -0.0169,-0.01607 -0.0344,-0.03135 -0.0518,-0.04685 -0.0168,-0.01596 -0.0342,-0.03113 -0.0515,-0.04654 -0.0164,-0.01557 -0.0333,-0.03043 -0.0501,-0.04547 -0.0175,-0.01671 -0.0357,-0.03259 -0.0538,-0.0487 -0.016,-0.01523 -0.0327,-0.02966 -0.0492,-0.04439 -0.0174,-0.01663 -0.0355,-0.03251 -0.0535,-0.04854 -0.0167,-0.01589 -0.034,-0.03104 -0.0512,-0.04639 -0.0169,-0.01607 -0.0344,-0.03134 -0.0518,-0.04685 -0.0169,-0.01604 -0.0344,-0.03121 -0.0518,-0.0467 -0.0165,-0.01571 -0.0335,-0.03075 -0.0505,-0.04593 -0.0171,-0.01627 -0.0348,-0.03177 -0.0524,-0.04747 -0.39286,-0.37388 -0.92238,-0.598632 -1.49511,-0.598632 h -3.14585 c -1.00447,0 -1.87754,0.689919 -2.10988,1.667011 l -0.51798,2.178544 h -8.38974 v -3.15e-4 h -7.34825 c -0.009,-0.0084 -0.019,-0.016 -0.0283,-0.02427 -0.0167,-0.0159 -0.034,-0.03104 -0.0512,-0.04639 -0.0175,-0.01665 -0.0356,-0.03249 -0.0536,-0.04854 -0.0159,-0.01515 -0.0325,-0.02959 -0.0489,-0.04424 -0.0177,-0.01691 -0.0361,-0.03302 -0.0544,-0.04931 -0.0162,-0.01543 -0.0331,-0.0301 -0.0498,-0.04501 -0.0168,-0.01599 -0.0342,-0.03126 -0.0515,-0.0467 -0.0173,-0.01648 -0.0353,-0.03203 -0.0531,-0.04793 -0.0165,-0.01573 -0.0337,-0.03073 -0.0507,-0.04593 -0.0169,-0.01609 -0.0345,-0.03132 -0.0519,-0.04685 -0.0161,-0.01536 -0.0329,-0.03 -0.0495,-0.04485 -0.0177,-0.01686 -0.036,-0.03291 -0.0542,-0.04916 -0.0163,-0.01546 -0.0331,-0.03022 -0.0498,-0.04516 -0.0168,-0.016 -0.0342,-0.03125 -0.0515,-0.0467 -0.0174,-0.0166 -0.0355,-0.03238 -0.0535,-0.04839 -0.0163,-0.01548 -0.0332,-0.03021 -0.0499,-0.04516 -0.017,-0.01617 -0.0346,-0.03155 -0.0521,-0.04716 -0.0166,-0.01584 -0.0339,-0.03094 -0.051,-0.04624 -0.0171,-0.01627 -0.0348,-0.03177 -0.0524,-0.04747 -0.0165,-0.01569 -0.0336,-0.03063 -0.0505,-0.04578 -0.0171,-0.01633 -0.0349,-0.03187 -0.0525,-0.04762 -0.0169,-0.01604 -0.0344,-0.03122 -0.0518,-0.0467 -0.0165,-0.01571 -0.0335,-0.03075 -0.0505,-0.04593 -0.0173,-0.01648 -0.0353,-0.03203 -0.0531,-0.04793 -0.016,-0.01521 -0.0326,-0.02969 -0.049,-0.04439 -0.0174,-0.01663 -0.0355,-0.03251 -0.0535,-0.04854 -0.0168,-0.01599 -0.0342,-0.03127 -0.0515,-0.0467 -0.0167,-0.01591 -0.0341,-0.03102 -0.0513,-0.04639 -0.0169,-0.01606 -0.0344,-0.03135 -0.0518,-0.04685 -0.0165,-0.01569 -0.0336,-0.03062 -0.0505,-0.04578 -0.0174,-0.0166 -0.0355,-0.03238 -0.0535,-0.04839 -0.0159,-0.01513 -0.0325,-0.02946 -0.0489,-0.04409 -0.0174,-0.01664 -0.0355,-0.0325 -0.0535,-0.04854 -0.0168,-0.01601 -0.0343,-0.03124 -0.0516,-0.0467 -0.0165,-0.01566 -0.0335,-0.03064 -0.0504,-0.04578 -0.0172,-0.01635 -0.035,-0.03184 -0.0527,-0.04762 -0.0168,-0.01599 -0.0342,-0.03126 -0.0515,-0.0467 -0.0168,-0.01601 -0.0343,-0.03124 -0.0516,-0.0467 -0.0168,-0.01596 -0.0342,-0.03114 -0.0515,-0.04654 -0.0162,-0.01539 -0.033,-0.02998 -0.0496,-0.04486 -0.0174,-0.0166 -0.0354,-0.03253 -0.0533,-0.04854 -0.0166,-0.01579 -0.0338,-0.03084 -0.0508,-0.04608 -0.0171,-0.0163 -0.0349,-0.03175 -0.0525,-0.04747 -0.017,-0.0162 -0.0347,-0.03153 -0.0522,-0.04716 -0.0166,-0.01578 -0.0338,-0.03084 -0.0508,-0.04608 -0.0165,-0.01569 -0.0336,-0.03062 -0.0505,-0.04578 -0.0171,-0.01627 -0.0348,-0.03177 -0.0524,-0.04747 -0.0165,-0.01574 -0.0337,-0.03073 -0.0507,-0.04593 -0.0168,-0.016 -0.0342,-0.03125 -0.0515,-0.0467 -0.0174,-0.01655 -0.0354,-0.03227 -0.0533,-0.04823 -0.0162,-0.01543 -0.0331,-0.03009 -0.0498,-0.04501 -0.0172,-0.0164 -0.0351,-0.03195 -0.0528,-0.04777 -0.0165,-0.01571 -0.0335,-0.03075 -0.0505,-0.04593 -0.0168,-0.01599 -0.0342,-0.03126 -0.0515,-0.0467 -0.017,-0.01618 -0.0346,-0.03155 -0.0521,-0.04716 -0.0169,-0.01612 -0.0345,-0.03145 -0.0519,-0.047 -0.0169,-0.01604 -0.0344,-0.03121 -0.0518,-0.0467 -0.0165,-0.01566 -0.0335,-0.03065 -0.0504,-0.04578 -0.0173,-0.01653 -0.0354,-0.03214 -0.0533,-0.04808 -0.0163,-0.01546 -0.0331,-0.03022 -0.0498,-0.04516 -0.0168,-0.016 -0.0342,-0.03125 -0.0515,-0.0467 -0.0172,-0.01643 -0.0351,-0.03208 -0.0528,-0.04793 -0.0167,-0.01586 -0.034,-0.03092 -0.0512,-0.04624 -0.0166,-0.01579 -0.0338,-0.03083 -0.0508,-0.04608 -0.0169,-0.01605 -0.0343,-0.03136 -0.0516,-0.04685 -0.0176,-0.01673 -0.0358,-0.03257 -0.0539,-0.04869 -0.0157,-0.01492 -0.0321,-0.02903 -0.0482,-0.04347 -0.0174,-0.01664 -0.0355,-0.0325 -0.0535,-0.04854 -0.0168,-0.01601 -0.0343,-0.03124 -0.0516,-0.0467 -0.0165,-0.01566 -0.0335,-0.03065 -0.0504,-0.04578 -0.39295,-0.374419 -0.92288,-0.599552 -1.49619,-0.599552 z" />
      <path
         id="path1510"
         style="fill:#383e42;fill-opacity:1;stroke:none;stroke-width:0.264583;stroke-linejoin:round;stroke-miterlimit:4;stroke-dasharray:none;paint-order:markers stroke fill"
         d="m -202.00127,59.78151 a 2.1685771,2.1685771 0 0 0 -2.10988,1.667164 l -0.6166,2.594682 c -1.46936,1.128626 -2.48368,2.820442 -2.71665,4.753409 l -1.45948,11.601488 10e-4,1.57e-4 c -0.0248,0.198852 -0.039,0.400914 -0.039,0.606465 0,2.685039 2.17743,4.863089 4.86247,4.863089 1.85771,0 3.47203,-1.04297 4.29088,-2.574712 l 2.1724,-4.00439 c 0.89726,0.996415 2.19707,1.623231 3.64371,1.623231 1.82449,0 3.41587,-0.996625 4.25985,-2.475017 l 0.047,-0.08664 0.002,4.72e-4 c 0.17639,-0.324014 0.31656,-0.670316 0.41675,-1.033356 h 1.40909 v 1.57e-4 h 2.82142 c 0.10019,0.363041 0.24036,0.709344 0.41675,1.033356 l 0.002,-6.29e-4 0.047,0.08664 c 0.84398,1.478392 2.43536,2.475017 4.25985,2.475017 1.44664,0 2.74645,-0.626816 3.64371,-1.623231 l 2.1724,4.00439 c 0.81885,1.531742 2.43317,2.574712 4.29087,2.574712 2.68505,0 4.86248,-2.17805 4.86248,-4.863089 0,-0.205551 -0.0143,-0.407613 -0.039,-0.606465 l 0.001,-1.57e-4 -1.45948,-11.601488 c -0.23298,-1.932967 -1.24729,-3.624781 -2.71665,-4.753409 l -0.61661,-2.594682 a 2.1685771,2.1685771 0 0 0 -2.10987,-1.667164 l -3.146,1.57e-4 a 2.168645,2.168645 0 0 0 -2.10988,1.667165 l -0.51783,2.17839 h -8.38959 v -1.58e-4 h -9.80191 l -0.51783,-2.17839 a 2.168645,2.168645 0 0 0 -2.10988,-1.667164 z" />
      <g
         id="g1557"
         style="stroke-width:3.36406"
         transform="matrix(0.29725982,0,0,0.29725982,-155.3523,27.366961)">
        <circle
           style="fill:#e65756;fill-opacity:1;stroke:none;stroke-width:0.890073;stroke-linejoin:round;stroke-miterlimit:4;stroke-dasharray:none;paint-order:markers stroke fill"
           id="circle1519"
           cx="143.17909"
           cy="51.16478"
           r="4.9394369"
           transform="rotate(90)" />
        <circle
           style="fill:#6bc1e5;fill-opacity:1;stroke:none;stroke-width:0.890073;stroke-linejoin:round;stroke-miterlimit:4;stroke-dasharray:none;paint-order:markers stroke fill"
           id="circle1517"
           cx="143.17909"
           cy="72.523529"
           r="4.9394369"
           transform="rotate(90)" />
        <circle
           style="fill:#74db9e;fill-opacity:1;stroke:none;stroke-width:0.890073;stroke-linejoin:round;stroke-miterlimit:4;stroke-dasharray:none;paint-order:markers stroke fill"
           id="circle1515"
           cx="-61.844154"
           cy="153.85847"
           r="4.9394369" />
        <circle
           style="fill:#fbec7a;fill-opacity:1;stroke:none;stroke-width:0.890073;stroke-linejoin:round;stroke-miterlimit:4;stroke-dasharray:none;paint-order:markers stroke fill"
           id="path1513"
           cx="-61.844154"
           cy="132.49973"
           r="4.9394369" />
      </g>
      <g
         id="g1494"
         transform="matrix(0.29725982,0,0,0.29725982,-155.3523,27.447207)"
         style="stroke-width:3.36406">
        <rect
           style="fill:#bcbcbc;fill-opacity:1;stroke:none;stroke-width:0.890073;stroke-linejoin:round;stroke-miterlimit:4;stroke-dasharray:none;paint-order:markers stroke fill"
           id="rect1447"
           width="7.8648696"
           height="25.207914"
           x="-155.5705"
           y="129.3712"
           rx="1.4116441"
           ry="1.4116441" />
        <rect
           style="fill:#bcbcbc;fill-opacity:1;stroke:none;stroke-width:0.890073;stroke-linejoin:round;stroke-miterlimit:4;stroke-dasharray:none;paint-order:markers stroke fill"
           id="rect1449"
           width="7.8648696"
           height="25.207914"
           x="138.04272"
           y="139.0341"
           rx="1.4116441"
           ry="1.4116441"
           transform="rotate(90)" />
      </g>
      <g
         id="g1541"
         transform="matrix(0.29725982,0,0,0.29725982,-154.84371,27.366961)"
         style="stroke-width:3.36406">
        <rect
           style="fill:#e65756;fill-opacity:1;stroke:none;stroke-width:0.890073;stroke-linejoin:round;stroke-miterlimit:4;stroke-dasharray:none;paint-order:markers stroke fill"
           id="rect1527"
           width="8.2421026"
           height="2.7964287"
           x="-112.7402"
           y="152.63622" />
        <g
           id="g1535"
           transform="translate(-0.95666504)"
           style="fill:#bcbcbc;fill-opacity:1;stroke-width:3.36406">
          <rect
             style="fill:#bcbcbc;fill-opacity:1;stroke:none;stroke-width:0.890073;stroke-linejoin:round;stroke-miterlimit:4;stroke-dasharray:none;paint-order:markers stroke fill"
             id="rect1529"
             width="8.2421026"
             height="3.8266895"
             x="-122.01257"
             y="141.30333" />
          <rect
             style="fill:#bcbcbc;fill-opacity:1;stroke:none;stroke-width:0.890073;stroke-linejoin:round;stroke-miterlimit:4;stroke-dasharray:none;paint-order:markers stroke fill"
             id="rect1531"
             width="8.2421026"
             height="3.8266895"
             x="-101.55449"
             y="141.30333" />
        </g>
      </g>
      <g
         id="g1551"
         transform="matrix(0.29725982,0,0,0.29725982,-155.26262,27.366961)"
         style="stroke-width:3.36406">
        <path
           style="color:#000000;font-style:normal;font-variant:normal;font-weight:normal;font-stretch:normal;font-size:medium;line-height:normal;font-family:sans-serif;font-variant-ligatures:normal;font-variant-position:normal;font-variant-caps:normal;font-variant-numeric:normal;font-variant-alternates:normal;font-variant-east-asian:normal;font-feature-settings:normal;font-variation-settings:normal;text-indent:0;text-align:start;text-decoration:none;text-decoration-line:none;text-decoration-style:solid;text-decoration-color:#000000;letter-spacing:normal;word-spacing:normal;text-transform:none;writing-mode:lr-tb;direction:ltr;text-orientation:mixed;dominant-baseline:auto;baseline-shift:baseline;text-anchor:start;white-space:normal;shape-padding:0;shape-margin:0;inline-size:0;clip-rule:nonzero;display:inline;overflow:visible;visibility:visible;opacity:1;isolation:auto;mix-blend-mode:normal;color-interpolation:sRGB;color-interpolation-filters:linearRGB;solid-color:#000000;solid-opacity:1;vector-effect:none;fill:#bcbcbc;fill-opacity:1;fill-rule:nonzero;stroke:none;stroke-width:3.36404;stroke-linecap:butt;stroke-linejoin:round;stroke-miterlimit:4;stroke-dasharray:none;stroke-dashoffset:0;stroke-opacity:1;paint-order:markers stroke fill;color-rendering:auto;image-rendering:auto;shape-rendering:auto;text-rendering:auto;enable-background:accumulate;stop-color:#000000;stop-opacity:1"
           d="m -129.91911,153.15389 c 5.79078,0 10.48372,4.69387 10.48372,10.48467 0,1.81318 -0.46001,3.51878 -1.26985,5.00636 l -0.003,-0.001 -0.10065,0.18548 c -1.80508,3.16194 -5.20847,5.29327 -9.11065,5.29327 -5.79078,0 -10.48441,-4.69295 -10.48441,-10.48374 0,-0.39255 0.022,-0.77997 0.0641,-1.16133 l 0.0187,-0.14772 -0.001,-2.2e-4 c 0.64427,-5.17281 5.0559,-9.17539 10.40332,-9.17539 z"
           id="path1451" />
        <path
           style="color:#000000;font-style:normal;font-variant:normal;font-weight:normal;font-stretch:normal;font-size:medium;line-height:normal;font-family:sans-serif;font-variant-ligatures:normal;font-variant-position:normal;font-variant-caps:normal;font-variant-numeric:normal;font-variant-alternates:normal;font-variant-east-asian:normal;font-feature-settings:normal;font-variation-settings:normal;text-indent:0;text-align:start;text-decoration:none;text-decoration-line:none;text-decoration-style:solid;text-decoration-color:#000000;letter-spacing:normal;word-spacing:normal;text-transform:none;writing-mode:lr-tb;direction:ltr;text-orientation:mixed;dominant-baseline:auto;baseline-shift:baseline;text-anchor:start;white-space:normal;shape-padding:0;shape-margin:0;inline-size:0;clip-rule:nonzero;display:inline;overflow:visible;visibility:visible;opacity:1;isolation:auto;mix-blend-mode:normal;color-interpolation:sRGB;color-interpolation-filters:linearRGB;solid-color:#000000;solid-opacity:1;vector-effect:none;fill:#bcbcbc;fill-opacity:1;fill-rule:nonzero;stroke:none;stroke-width:3.36404;stroke-linecap:butt;stroke-linejoin:round;stroke-miterlimit:4;stroke-dasharray:none;stroke-dashoffset:0;stroke-opacity:1;paint-order:markers stroke fill;color-rendering:auto;image-rendering:auto;shape-rendering:auto;text-rendering:auto;enable-background:accumulate;stop-color:#000000;stop-opacity:1"
           d="m -84.499577,153.15389 c 5.79078,0 10.48372,4.69387 10.48372,10.48467 0,1.81318 -0.46001,3.51878 -1.26985,5.00636 l -0.003,-0.001 -0.10065,0.18548 c -1.80508,3.16194 -5.20847,5.29327 -9.11065,5.29327 -5.79078,0 -10.48441,-4.69295 -10.48441,-10.48374 0,-0.39255 0.022,-0.77997 0.0641,-1.16133 l 0.0187,-0.14772 -0.001,-2.2e-4 c 0.64427,-5.17281 5.0559,-9.17539 10.40332,-9.17539 z"
           id="path1547" />
      </g>
    </g>
  </g>
</svg>
