<?xml version="1.0" encoding="UTF-8" standalone="no"?>
<svg
   xmlns:dc="http://purl.org/dc/elements/1.1/"
   xmlns:cc="http://creativecommons.org/ns#"
   xmlns:rdf="http://www.w3.org/1999/02/22-rdf-syntax-ns#"
   xmlns:svg="http://www.w3.org/2000/svg"
   xmlns="http://www.w3.org/2000/svg"
   xmlns:sodipodi="http://sodipodi.sourceforge.net/DTD/sodipodi-0.dtd"
   xmlns:inkscape="http://www.inkscape.org/namespaces/inkscape"
   width="67.733337mm"
   height="67.733322mm"
   viewBox="0 0 67.733339 67.733323"
   version="1.1"
   id="svg27864"
   inkscape:version="1.0 (4035a4fb49, 2020-05-01)"
   sodipodi:docname="libri_scalable.svg">
  <defs
     id="defs27858">
    <clipPath
       id="clipPath1698-3"
       clipPathUnits="userSpaceOnUse">
      <rect
         ry="64.06395"
         rx="64.06395"
         y="19470.865"
         x="-29147.879"
         height="772.966"
         width="1200"
         id="rect1700-6"
         style="opacity:0.604;fill:#26a10d;fill-opacity:0.985;stroke:#d32f2f;stroke-width:0;stroke-linecap:round;stroke-linejoin:bevel;stroke-miterlimit:4;stroke-dasharray:none;stroke-dashoffset:0;stroke-opacity:0.94;paint-order:fill markers stroke" />
    </clipPath>
    <clipPath
       clipPathUnits="userSpaceOnUse"
       id="clipPath29374">
      <rect
         y="7264.1074"
         x="-18040.27"
         height="2048"
         width="2048"
         id="rect29376"
         style="opacity:1;fill:#014c77;fill-opacity:1;stroke:none;stroke-width:4.4;stroke-linecap:round;stroke-linejoin:bevel;stroke-miterlimit:4;stroke-dasharray:none;stroke-dashoffset:0;stroke-opacity:1;paint-order:fill markers stroke" />
    </clipPath>
    <clipPath
       clipPathUnits="userSpaceOnUse"
       id="clipPath1237">
      <g
         id="g1245">
        <rect
           style="opacity:1;fill:#e1f5fe;fill-opacity:1;stroke:none;stroke-width:4.4;stroke-linecap:round;stroke-linejoin:bevel;stroke-miterlimit:4;stroke-dasharray:none;stroke-dashoffset:0;stroke-opacity:1;paint-order:fill markers stroke"
           id="rect1239"
           width="1083.2383"
           height="98.791946"
           x="-17557.889"
           y="8911.8291"
           rx="28.853754"
           ry="28.853754" />
        <rect
           style="opacity:1;fill:#e1f5fe;fill-opacity:1;stroke:none;stroke-width:4.4;stroke-linecap:round;stroke-linejoin:bevel;stroke-miterlimit:4;stroke-dasharray:none;stroke-dashoffset:0;stroke-opacity:1;paint-order:fill markers stroke"
           id="rect1241"
           width="713.43213"
           height="66.819221"
           x="-17372.984"
           y="8984.541"
           rx="28.853802"
           ry="28.8538" />
        <path
           inkscape:connector-curvature="0"
           style="opacity:1;fill:#e1f5fe;fill-opacity:1;stroke:none;stroke-width:4.4;stroke-linecap:round;stroke-linejoin:bevel;stroke-miterlimit:4;stroke-dasharray:none;stroke-dashoffset:0;stroke-opacity:1;paint-order:fill markers stroke"
           d="m -17324.329,8432.3038 c -18.32,0 -33.343,14.4272 -35.635,33.2188 h -0.312 v 5.0019 30.5742 132.9981 c 0,163.6929 123.952,295.4765 277.918,295.4765 h 132.179 c 122.164,0 225.42,-82.9726 262.867,-199.0156 a 129.26388,129.26388 0 0 0 15.041,1.0391 129.26388,129.26388 0 0 0 129.264,-129.2637 129.26388,129.26388 0 0 0 -129.256,-129.2637 v -2.5449 -5.0019 h -0.314 c -2.292,-18.7916 -17.314,-33.2188 -35.633,-33.2188 z m 652.066,103.461 a 66.567536,66.567536 0 0 1 66.561,66.5683 66.567536,66.567536 0 0 1 -66.569,66.5664 66.567536,66.567536 0 0 1 -1.892,-0.094 c 1.242,-11.3827 1.9,-22.9607 1.9,-34.709 z"
           id="path1243" />
      </g>
    </clipPath>
  </defs>
  <sodipodi:namedview
     id="base"
     pagecolor="#ffffff"
     bordercolor="#666666"
     borderopacity="1.0"
     inkscape:pageopacity="0.0"
     inkscape:pageshadow="2"
     inkscape:zoom="0.79687496"
     inkscape:cx="310.79627"
     inkscape:cy="494.89497"
     inkscape:document-units="mm"
     inkscape:current-layer="layer1"
     inkscape:document-rotation="0"
     showgrid="false"
     fit-margin-top="0"
     fit-margin-left="0"
     fit-margin-right="0"
     fit-margin-bottom="0"
     inkscape:window-width="1336"
     inkscape:window-height="1029"
     inkscape:window-x="576"
     inkscape:window-y="24"
     inkscape:window-maximized="0"
     inkscape:snap-global="false" />
  <metadata
     id="metadata27861">
    <rdf:RDF>
      <cc:Work
         rdf:about="">
        <dc:format>image/svg+xml</dc:format>
        <dc:type
           rdf:resource="http://purl.org/dc/dcmitype/StillImage" />
        <dc:title></dc:title>
        <cc:license
           rdf:resource="http://creativecommons.org/licenses/by-sa/4.0/" />
      </cc:Work>
      <cc:License
         rdf:about="http://creativecommons.org/licenses/by-sa/4.0/">
        <cc:permits
           rdf:resource="http://creativecommons.org/ns#Reproduction" />
        <cc:permits
           rdf:resource="http://creativecommons.org/ns#Distribution" />
        <cc:requires
           rdf:resource="http://creativecommons.org/ns#Notice" />
        <cc:requires
           rdf:resource="http://creativecommons.org/ns#Attribution" />
        <cc:permits
           rdf:resource="http://creativecommons.org/ns#DerivativeWorks" />
        <cc:requires
           rdf:resource="http://creativecommons.org/ns#ShareAlike" />
      </cc:License>
    </rdf:RDF>
  </metadata>
  <g
     inkscape:label="Livello 1"
     inkscape:groupmode="layer"
     id="layer1"
     transform="translate(3553.3743,3626.1746)">
    <g
       id="g26835"
       inkscape:export-filename="/home/fjall/Icone/PNG/Altro/libri.png"
       inkscape:export-xdpi="96"
       inkscape:export-ydpi="96"
       transform="matrix(0.03307292,0,0,0.03307311,-3778.3327,-3687.5118)">
      <rect
         style="fill:#a1887f;fill-opacity:1;stroke:none;stroke-width:6.99998;stroke-linecap:round;stroke-linejoin:bevel;stroke-miterlimit:4;stroke-dasharray:none;stroke-dashoffset:0;stroke-opacity:1;paint-order:normal"
         id="rect832-36"
         width="2048"
         height="2047.9878"
         x="6801.8916"
         y="1854.5946"
         rx="1.2997299"
         ry="1.2997222"
         inkscape:export-xdpi="96"
         inkscape:export-ydpi="96" />
      <path
         style="fill:#000001;fill-opacity:0.145098;stroke:none;stroke-width:24.9999;stroke-linecap:round;stroke-linejoin:bevel;stroke-miterlimit:4;stroke-dasharray:none;stroke-dashoffset:0;stroke-opacity:1;paint-order:fill markers stroke"
         d="m 7284.2785,2242.1967 c -0.076,0 -0.148,0.018 -0.2228,0.023 h -114.2344 c -1.4394,6e-4 -2.5976,1.1579 -2.5976,2.5976 v 0 243.8619 h -3.5194 v 0 34.738 h -1.504 v 0 19.3437 c 0,0 0,0 0,0 v 0 0 0 c 0,0 0.02,0 0.02,0 v 0.01 c 0,0 0.02,0 0.02,0 v 0.012 c 0,0 0.02,0.01 0.02,0.01 v 0.012 c 0,0 0.024,0.01 0.024,0.01 v 0.012 c 0,0 0.024,0.01 0.024,0.01 v 0.02 c 0,0 0.03,0.012 0.032,0.012 v 0.016 c 0,0 0.03,0.012 0.032,0.012 v 0.02 c 0,0 0.038,0.016 0.04,0.016 v 0.02 c 0,0 0.038,0.016 0.04,0.016 v 0.023 c 0,0 0.042,0.016 0.042,0.016 v 0.027 c 0,0 0.046,0.016 0.046,0.016 v 0.031 c 0,0 0.05,0.02 0.05,0.02 v 0.027 c 0,0 0.054,0.02 0.054,0.02 v 0.035 c 0,0 0.058,0.02 0.058,0.02 v 0.035 c 0,0 0.058,0.02 0.058,0.02 v 0.039 c 0,0 0.064,0.023 0.066,0.023 v 0.039 c 0,0 0.064,0.023 0.066,0.023 v 0.043 c 0,0 0.068,0.023 0.07,0.023 v 0.047 c 0,0 0.072,0.027 0.074,0.027 v 0.043 c 0,0 0.076,0.027 0.078,0.027 v 0.051 c 0,0 0.08,0.027 0.082,0.027 v 0.051 c 0,0 0.084,0.03 0.086,0.031 v 0.051 c 0,0 0.086,0.03 0.09,0.031 v 0.055 c 0,0 0.09,0.034 0.094,0.035 v 0.055 c 0,0 0.09,0.034 0.094,0.035 v 0.059 c 0,0 0.094,0.034 0.098,0.035 v 0.059 c 0,0 0.102,0.038 0.106,0.039 v 0.062 c 0,0 0.102,0.038 0.106,0.039 v 0.062 c 0,0 0.104,0.038 0.11,0.039 v 0.066 c 0,0 0.108,0.038 0.114,0.039 v 0.074 c 0,0 0.112,0.042 0.118,0.043 v 0.07 c 0,0 0.112,0.042 0.116,0.043 v 0.07 c 2e-4,0 0.12,0.041 0.126,0.043 v 0.078 c 0,0 0.12,0.041 0.124,0.043 v 0.082 c 2e-4,0 0.126,0.045 0.134,0.047 v 0.078 c 0,0 0.126,0.045 0.132,0.047 v 0.082 c 0,0 0.13,0.045 0.136,0.047 v 0.086 c 0,0 0.134,0.049 0.14,0.051 v 0.086 c 0,0 0.136,0.049 0.144,0.051 v 0.09 c 0,10e-5 0.14,0.049 0.148,0.051 v 0.094 c 0,0 0.144,0.052 0.152,0.055 v 0.094 c 0,0 0.144,0.052 0.152,0.055 v 0.094 c 0,0 0.15,0.056 0.16,0.059 v 0.094 c 0,0 0.15,0.056 0.16,0.059 v 0.1016 c 0,0 0.158,0.056 0.168,0.059 v 0.1016 c 0,0 0.158,0.056 0.168,0.059 v 0.1054 c 0,0 0.16,0.059 0.172,0.062 V 2547 c 0,0 0.164,0.059 0.176,0.062 v 0.1094 c 0,0 0.168,0.059 0.18,0.062 v 0.1094 c 0,0 0.168,0.059 0.18,0.062 v 0.1172 c 0,0 0.174,0.063 0.188,0.066 v 0.1132 c 0,0 0.178,0.063 0.192,0.066 v 0.1172 c 0,0 0.178,0.063 0.192,0.066 v 0.1212 c 0,0 0.18,0.066 0.196,0.07 v 0.121 c 0,0 0.184,0.066 0.2,0.07 v 0.125 c 0,0 0.19,0.07 0.207,0.074 v 0.121 c 0,0 0.19,0.07 0.2072,0.074 v 0.129 c 0,0 0.19,0.07 0.207,0.074 v 0.1288 c 0,0 0.198,0.069 0.2148,0.074 v 0.1328 c 0,0 0.2006,0.073 0.2188,0.078 v 0.1328 c 0,0 0.2006,0.073 0.2186,0.078 v 0.1368 c 0,0 0.2072,0.077 0.2266,0.082 v 0.1368 c 0,0 0.2072,0.077 0.2266,0.082 v 0.1368 c 0,0 0.2104,0.076 0.2304,0.082 v 0.1446 c 0,0 0.2138,0.076 0.2344,0.082 v 0.1446 c 0,0 0.217,0.08 0.2384,0.086 v 0.1446 c 0,0 0.22,0.08 0.2422,0.086 v 0.1484 c 0,0 0.2234,0.08 0.246,0.086 v 0.1524 c 0,0 0.2264,0.083 0.25,0.09 v 0.1524 c 0,0 0.2264,0.083 0.25,0.09 v 0.1562 c 0,0 0.233,0.083 0.2578,0.09 v 0.1562 c 0,0 0.2328,0.083 0.2578,0.09 v 0.164 c 0,0 0.2358,0.087 0.2618,0.094 v 0.1602 c 0,0 0.2392,0.086 0.2656,0.094 v 0.164 c 0,0 0.2422,0.09 0.2696,0.098 v 0.164 c 0,0 0.2452,0.09 0.2734,0.098 v 0.168 c 0,0 0.2486,0.09 0.2772,0.098 v 0.1718 c 2e-4,0 0.2516,0.089 0.2814,0.098 v 0.1718 c 0,0 0.2514,0.093 0.2812,0.1016 v 0.1758 c 0,0 0.2578,0.093 0.289,0.1016 v 0.1758 c 0,0 0.2578,0.093 0.2892,0.1016 v 0.1796 c 0,0 0.2606,0.096 0.2928,0.1054 v 0.1796 c 2e-4,0 0.264,0.096 0.297,0.1054 v 0.1836 c 0,0 0.267,0.096 0.3008,0.1054 v 0.1874 c 0,0 0.2698,0.099 0.3046,0.1094 v 0.1836 c 0,0 0.273,0.099 0.3086,0.1094 v 0.1914 c 0,0 0.276,0.099 0.3126,0.1094 v 0.1914 c 0,0 0.2758,0.099 0.3124,0.1094 v 0.1954 c 0,0 0.282,0.1024 0.3204,0.1132 v 0.1992 c 0,0 0.2818,0.1024 0.3202,0.1132 v 0.1992 c 0,0 0.285,0.1022 0.3242,0.1132 v 0.1992 c 2e-4,0 0.288,0.1056 0.3282,0.1172 v 0.2031 c 0,0 0.2908,0.1054 0.332,0.1172 v 0.207 c 0,10e-5 0.294,0.1052 0.336,0.1172 v 0.2071 c 0,0 0.2966,0.1088 0.3398,0.121 v 0.207 c 0,0 0.2998,0.1086 0.3438,0.121 v 0.2109 c 0,0 0.2996,0.1084 0.3438,0.121 v 0.2149 c 0,0 0.3054,0.1118 0.3514,0.125 v 0.2148 c 2e-4,0 0.3054,0.1118 0.3516,0.125 v 0.2187 c 0,10e-5 0.3084,0.1116 0.3556,0.125 v 0.2188 c 0,0 0.314,0.1148 0.3632,0.129 v 0.2227 c 0,0 0.3138,0.1148 0.3632,0.1288 v 0.2226 c 0,0 0.317,0.1144 0.3672,0.129 v 0.2266 c 0,0 0.317,0.1144 0.3672,0.1288 v 0.2304 c 0,10e-5 0.3228,0.1178 0.375,0.1328 v 0.2305 c 0,0 0.3256,0.1174 0.379,0.1328 v 0.2344 c 0,0 0.325,0.1212 0.3788,0.1368 v 0.2343 c 0,10e-5 0.3312,0.1206 0.3868,0.1368 v 0.2344 c 0,0 0.331,0.1206 0.3866,0.1368 v 0.2422 c 0,0 0.3338,0.1202 0.3908,0.1368 v 0.2422 c 0,0 0.3362,0.1238 0.3944,0.1406 v 0.2422 c 0,0 0.3394,0.1234 0.3984,0.1406 v 0.2461 c 0,0 0.3418,0.1269 0.4024,0.1445 v 0.2461 c 0,0 0.3446,0.1266 0.4062,0.1446 v 0.2461 c 0,1e-4 0.3448,0.1266 0.4064,0.1446 v 0.254 c 0,0 0.3502,0.1298 0.414,0.1484 v 0.25 c 0,0 0.35,0.1298 0.414,0.1484 v 0.2578 c 0,0 0.3528,0.1294 0.418,0.1484 v 0.2578 c 0,0 0.356,0.1292 0.4218,0.1484 v 0.2617 c 0,0 0.3612,0.1324 0.4298,0.1524 v 0.2617 c 0,0 0.358,0.1326 0.4258,0.1524 v 0.2617 c 0,10e-5 0.364,0.132 0.4336,0.1524 v 0.2696 c 0,0 0.3664,0.1354 0.4374,0.1562 v 0.2695 c 0,0 0.369,0.135 0.4414,0.1562 v 0.2695 c 0,0 0.369,0.135 0.4414,0.1562 v 0.2734 c 0,10e-5 0.3744,0.1382 0.4492,0.1602 v 0.2735 c 0,0 0.3256,0.1174 0.379,0.1328 0.024,0.043 0.048,0.086 0.07,0.129 0,0 0,0 0,0 v 0.1718 c 0,0 0.108,0.038 0.114,0.039 0.2412,0.453 0.4882,0.8767 0.7266,1.3437 0,0 0,0 0,0 1.9422,3.8061 3.7858,8.08 5.461,12.8788 0,0 0,0 0,0.01 1.6746,4.7987 3.179,10.1221 4.4414,16.0235 2.5258,11.8089 4.078,25.9348 4.078,42.8199 v 0 c -4e-4,90.0529 -38.9648,106.9834 -38.9648,106.9838 v 0 19.2967 0 0 0.01 0 0.01 h 0.02 v 0.012 h 0.02 v 0.016 h 0.02 v 0.02 h 0.024 v 0.02 h 0.024 v 0.027 0 h 0.028 v 0.027 h 0.032 v 0.031 0 h 0.036 v 0.035 h 0.04 v 0.039 h 0.042 v 0.043 h 0.046 v 0.047 0 h 0.046 v 0.047 h 0.054 v 0.055 h 0.058 v 0.055 h 0.058 v 0.059 h 0.066 v 0.062 h 0.066 v 0.066 h 0.07 v 0.07 0 h 0.07 v 0.07 0 h 0.074 v 0.078 0 h 0.078 v 0.078 0 h 0.082 v 0.082 h 0.09 v 0.086 h 0.094 v 0.09 h 0.094 v 0.094 h 0.036 v 32.703 h -2.6172 c -1.4396,6e-4 -2.6016,1.1618 -2.6016,2.6015 v 0 307.4084 0 c 2e-4,0.367 0.078,0.7116 0.215,1.0272 0.03,0.072 0.092,0.1232 0.128,0.1916 0.058,0.1102 0.134,0.2086 0.207,0.3084 0.076,0.1004 0.122,0.2206 0.211,0.3086 0,0 0,0.01 0,0.012 v 0 c 0,0 0,0 0,0 0,0 0,0.01 0.02,0.016 0,0.01 0.02,0.012 0.024,0.02 v 0 c 0,0 0.02,0 0.02,0.01 0,0.01 0,0.016 0.02,0.023 0.02,0.012 0.026,0.023 0.04,0.035 0,0.01 0.02,0.014 0.028,0.024 0.02,0.014 0.026,0.026 0.04,0.039 0.02,0.012 0.024,0.02 0.034,0.031 0.02,0.014 0.028,0.025 0.042,0.039 0.02,0.016 0.028,0.032 0.042,0.047 0.02,0.018 0.036,0.033 0.054,0.051 0.02,0.018 0.038,0.03 0.054,0.047 0.02,0.018 0.034,0.034 0.05,0.051 0.02,0.02 0.038,0.039 0.058,0.059 0.022,0.023 0.044,0.044 0.066,0.066 0.02,0.021 0.042,0.039 0.062,0.059 0.024,0.025 0.05,0.046 0.074,0.07 0.024,0.025 0.048,0.046 0.074,0.07 0.024,0.024 0.046,0.047 0.07,0.07 0.028,0.029 0.056,0.054 0.086,0.082 0.026,0.027 0.054,0.048 0.082,0.074 0.03,0.031 0.058,0.06 0.09,0.09 0.028,0.029 0.056,0.054 0.086,0.082 0.032,0.034 0.064,0.066 0.098,0.098 0.034,0.035 0.07,0.064 0.106,0.098 0.03,0.031 0.06,0.057 0.09,0.086 0.036,0.038 0.07,0.073 0.11,0.1094 0.034,0.036 0.072,0.067 0.11,0.1014 0.036,0.038 0.072,0.07 0.11,0.1056 0.036,0.038 0.072,0.073 0.11,0.1094 0.04,0.042 0.082,0.078 0.124,0.117 0.04,0.042 0.078,0.082 0.122,0.1212 0.04,0.043 0.082,0.081 0.124,0.121 0.04,0.044 0.084,0.08 0.128,0.1212 0.044,0.047 0.088,0.089 0.136,0.1328 0.044,0.048 0.092,0.088 0.14,0.1328 0.042,0.045 0.084,0.083 0.128,0.125 0.048,0.051 0.094,0.098 0.144,0.1446 0.048,0.051 0.098,0.094 0.148,0.1406 0.05,0.053 0.1,0.1 0.152,0.1484 0.048,0.052 0.1,0.097 0.152,0.1446 0.05,0.054 0.102,0.1024 0.156,0.1522 0.052,0.055 0.104,0.1018 0.16,0.1524 0.052,0.057 0.104,0.1084 0.16,0.1602 0.056,0.06 0.116,0.1094 0.176,0.164 0.052,0.057 0.106,0.1078 0.164,0.1602 0.056,0.062 0.114,0.1158 0.176,0.1718 0.058,0.064 0.12,0.1182 0.184,0.1758 0.056,0.06 0.11,0.1132 0.172,0.168 0.062,0.067 0.124,0.127 0.192,0.1876 0.06,0.066 0.124,0.1202 0.192,0.1796 0.058,0.065 0.118,0.1214 0.184,0.1796 0.062,0.069 0.126,0.1296 0.196,0.1914 0.062,0.07 0.128,0.1288 0.2,0.1916 0.064,0.072 0.13,0.135 0.203,0.1992 0.064,0.071 0.132,0.1316 0.2032,0.1952 0.068,0.075 0.138,0.14 0.2148,0.207 0.068,0.074 0.136,0.1372 0.211,0.2032 0.068,0.077 0.14,0.1428 0.2188,0.211 0.068,0.076 0.138,0.1398 0.2148,0.207 0.072,0.081 0.144,0.1516 0.2266,0.2226 0.072,0.08 0.146,0.1484 0.2264,0.2188 0.07,0.079 0.146,0.1448 0.2266,0.2148 0.076,0.086 0.154,0.1628 0.2422,0.2382 0.074,0.082 0.152,0.1506 0.2344,0.2228 0.074,0.082 0.148,0.1542 0.2304,0.2266 0.078,0.089 0.16,0.1648 0.25,0.242 0.078,0.087 0.158,0.1622 0.2462,0.2384 0.076,0.087 0.158,0.162 0.246,0.2382 0.082,0.092 0.164,0.174 0.2578,0.254 0.08,0.091 0.166,0.1672 0.2578,0.246 0.082,0.093 0.168,0.1732 0.2618,0.254 0.084,0.096 0.172,0.179 0.2696,0.2616 0.082,0.093 0.168,0.1699 0.2616,0.2499 0.086,0.098 0.174,0.1816 0.2734,0.2658 0.086,0.099 0.176,0.1844 0.2774,0.2694 0.086,0.099 0.176,0.1846 0.2774,0.2696 0.088,0.1006 0.18,0.1872 0.2812,0.2734 0.088,0.102 0.182,0.1902 0.2852,0.2774 0.09,0.1044 0.188,0.1924 0.293,0.2812 0.09,0.1036 0.184,0.193 0.289,0.2812 0.092,0.106 0.19,0.1954 0.2968,0.2852 0.094,0.1084 0.192,0.2014 0.3008,0.293 0.096,0.1116 0.198,0.2068 0.3126,0.3008 0.09,0.1036 0.184,0.193 0.289,0.2812 0.098,0.1154 0.2038,0.212 0.3204,0.3086 0.094,0.1106 0.196,0.2036 0.3086,0.2968 0.098,0.116 0.2028,0.2156 0.3202,0.3126 0.098,0.115 0.2038,0.2122 0.3204,0.3086 0.1,0.118 0.2082,0.218 0.328,0.3164 0.1,0.116 0.2028,0.2154 0.3204,0.3124 0.102,0.1202 0.2106,0.2204 0.332,0.3204 0.102,0.1206 0.2098,0.224 0.332,0.3242 0.104,0.1238 0.2146,0.2296 0.34,0.332 0.104,0.1236 0.2182,0.226 0.3436,0.3282 0.106,0.1252 0.2168,0.2326 0.3438,0.3358 0.104,0.1248 0.2178,0.2292 0.3438,0.3322 0.108,0.1284 0.2216,0.2382 0.3516,0.3436 0.11,0.1306 0.2268,0.2408 0.3594,0.3478 0.106,0.1276 0.2222,0.2348 0.3514,0.3398 0.112,0.1354 0.2338,0.2492 0.3712,0.3594 0.11,0.132 0.229,0.2438 0.3632,0.3516 0.11,0.132 0.2296,0.2436 0.3634,0.3514 0.112,0.1372 0.2362,0.2522 0.375,0.3634 0.114,0.1382 0.2386,0.2552 0.3788,0.3672 0.114,0.1376 0.2356,0.2556 0.375,0.3672 0.116,0.1418 0.2466,0.2606 0.3906,0.375 0.114,0.139 0.2416,0.2546 0.3828,0.3672 0.118,0.144 0.2448,0.267 0.3906,0.3828 0.118,0.1432 0.2454,0.2636 0.3908,0.3788 0.12,0.1462 0.2502,0.2698 0.3984,0.3868 0.12,0.1478 0.252,0.2726 0.4022,0.3906 0.12,0.1476 0.2524,0.2728 0.4024,0.3906 0.122,0.1486 0.2552,0.2722 0.4062,0.3906 0.122,0.1512 0.257,0.2784 0.4102,0.3984 0.124,0.1528 0.259,0.2814 0.4142,0.4024 0.124,0.1548 0.2648,0.284 0.4218,0.4062 0.126,0.1548 0.2606,0.2878 0.418,0.4102 0.126,0.1564 0.2668,0.287 0.4258,0.4102 0.128,0.1588 0.2682,0.2932 0.4296,0.418 0.128,0.158 0.2688,0.2898 0.4298,0.414 0.13,0.1622 0.2726,0.299 0.4374,0.4258 0.13,0.1608 0.274,0.2959 0.4376,0.4217 0.13,0.1636 0.275,0.302 0.4414,0.4298 0.132,0.1644 0.278,0.3014 0.4452,0.4296 0.134,0.1672 0.2794,0.3078 0.4492,0.4376 0.134,0.1678 0.2826,0.3072 0.4532,0.4374 0.134,0.1698 0.2844,0.3142 0.457,0.4454 0.134,0.1676 0.2828,0.3074 0.4532,0.4374 0.138,0.1744 0.2918,0.3192 0.4686,0.4532 0.138,0.1744 0.2914,0.3192 0.4688,0.4532 0.136,0.1732 0.2886,0.3198 0.4648,0.453 0.14,0.1782 0.2956,0.3288 0.4766,0.4648 0.142,0.1794 0.3012,0.3282 0.4844,0.465 0.138,0.174 0.2916,0.3192 0.4688,0.453 0.144,0.1844 0.3046,0.337 0.4922,0.4766 0.142,0.1814 0.2996,0.3348 0.4844,0.4726 0.142,0.1824 0.3026,0.3342 0.4882,0.4728 0.144,0.1854 0.3074,0.3402 0.496,0.4804 0.144,0.1864 0.3066,0.3436 0.4962,0.4844 0.148,0.19 0.3138,0.3496 0.5078,0.4922 0.146,0.1858 0.3102,0.3402 0.5,0.4804 0.146,0.1882 0.309,0.3464 0.5,0.4882 0.15,0.1956 0.321,0.3582 0.5196,0.504 0.148,0.1916 0.3166,0.3486 0.5116,0.4922 0.152,0.198 0.322,0.3646 0.5234,0.5118 0.15,0.1944 0.3216,0.3548 0.5196,0.5 0.15,0.1964 0.3202,0.3612 0.5196,0.5078 0.154,0.2036 0.3316,0.3734 0.539,0.5234 0.152,0.199 0.328,0.3642 0.5312,0.5116 0.152,0.199 0.325,0.3642 0.5274,0.5118 0.156,0.2074 0.336,0.3792 0.5468,0.5312 0.156,0.2038 0.3314,0.3734 0.5392,0.5234 0.158,0.208 0.3392,0.379 0.5508,0.5314 0.156,0.2076 0.335,0.383 0.5468,0.535 0.16,0.2108 0.3434,0.3856 0.5586,0.5392 0.158,0.209 0.341,0.3826 0.5546,0.5352 0.16,0.2129 0.345,0.3881 0.5626,0.5427 0.16,0.2134 0.3414,0.392 0.5586,0.547 0.16,0.2148 0.3476,0.391 0.5664,0.5468 0.164,0.2194 0.3506,0.4044 0.5742,0.5626 0.162,0.2172 0.3522,0.3978 0.5742,0.5546 0.164,0.2184 0.3516,0.4012 0.5742,0.5586 0.166,0.2232 0.3616,0.4066 0.5898,0.5664 0.164,0.22 0.3534,0.4044 0.5782,0.5626 0.166,0.2232 0.3586,0.4062 0.586,0.5664 0.168,0.2286 0.3642,0.4194 0.5976,0.582 0.168,0.2262 0.3624,0.413 0.5938,0.5742 0.166,0.2264 0.3628,0.4126 0.5938,0.5742 0.062,0.085 0.104,0.1848 0.176,0.2618 -39.1512,27.646 -70.5742,70.7682 -70.5742,138.0108 2e-4,13.9407 1.354,26.739 3.8438,38.4882 0.9954,4.6973 2.1734,9.2295 3.5196,13.5975 0.6728,2.183 1.3852,4.3228 2.1406,6.4257 0,0 0,0.01 0,0.01 0.755,2.1016 1.5488,4.1644 2.3828,6.1874 0,0 0,0.01 0,0.01 0.8342,2.023 1.7074,4.0072 2.6172,5.9532 0,0 0,0.01 0,0.01 0.91,1.9458 1.8576,3.8561 2.84,5.7265 0,0 0,0 0,0 0.983,1.8714 1.9988,3.7068 3.0508,5.504 0,0 0,0 0,0 1.0518,1.7972 2.1362,3.5568 3.2538,5.2814 0,0 0,0 0,0 1.1176,1.7246 2.2652,3.4129 3.4452,5.0663 0,0 0,0 0,0.01 0.7928,1.1106 1.618,2.1828 2.4376,3.2618 0.3994,0.5258 0.7818,1.0714 1.1874,1.5898 0,0 0,0.01 0,0.01 1.2384,1.5828 2.5068,3.1298 3.8008,4.6446 0.5368,0.6286 1.0984,1.2266 1.6444,1.8438 0.7964,0.8998 1.5834,1.8118 2.3986,2.6874 0.02,0.014 0.026,0.029 0.038,0.043 0,0 0,0 0,0 2.8082,3.0207 5.7336,5.8911 8.7462,8.6327 0.032,0.029 0.066,0.057 0.098,0.086 0.02,0.01 0.02,0.021 0.032,0.031 0.02,0.018 0.04,0.037 0.058,0.055 0,0.01 0.02,0.012 0.024,0.02 0.04,0.037 0.08,0.073 0.12,0.1092 0.024,0.023 0.05,0.044 0.074,0.067 0.02,0.01 0.02,0.021 0.032,0.031 0.058,0.054 0.118,0.1066 0.176,0.1602 0.03,0.028 0.064,0.054 0.094,0.082 0.02,0.014 0.032,0.025 0.046,0.039 0,0.01 0.02,0.016 0.024,0.023 v 0 c 0,0.01 0.02,0.016 0.024,0.023 0.064,0.059 0.128,0.1172 0.192,0.1758 0.034,0.031 0.068,0.059 0.102,0.09 0.022,0.02 0.042,0.039 0.062,0.059 0.034,0.031 0.068,0.063 0.102,0.094 0.056,0.052 0.112,0.1046 0.168,0.1562 0.04,0.037 0.082,0.073 0.122,0.1094 0.022,0.021 0.048,0.041 0.07,0.062 0.076,0.069 0.15,0.138 0.2266,0.2072 0.026,0.024 0.052,0.047 0.078,0.07 0.044,0.041 0.088,0.081 0.132,0.1212 0.046,0.043 0.094,0.086 0.14,0.1288 0.078,0.071 0.156,0.14 0.2344,0.211 0.068,0.062 0.136,0.1254 0.203,0.1874 0.066,0.061 0.134,0.1194 0.2,0.1798 0.052,0.048 0.104,0.097 0.156,0.1444 0.036,0.034 0.072,0.068 0.11,0.1016 0.088,0.082 0.18,0.1608 0.2694,0.2422 0.022,0.02 0.042,0.039 0.062,0.059 0.092,0.084 0.186,0.166 0.2774,0.25 0.04,0.037 0.08,0.073 0.12,0.1094 0.078,0.072 0.156,0.1434 0.2344,0.2148 0.044,0.041 0.088,0.081 0.132,0.1212 0.062,0.057 0.126,0.1112 0.188,0.1678 0.064,0.058 0.124,0.118 0.188,0.1758 0.08,0.074 0.162,0.1454 0.2422,0.2188 0.05,0.046 0.102,0.091 0.152,0.1368 0.084,0.077 0.166,0.154 0.25,0.2304 0.07,0.064 0.14,0.1274 0.2108,0.1914 0.052,0.047 0.104,0.093 0.156,0.1406 0.106,0.097 0.2108,0.1928 0.3164,0.2892 0.056,0.051 0.112,0.1012 0.168,0.1522 0.074,0.067 0.146,0.136 0.2188,0.2032 0.074,0.069 0.152,0.1346 0.2266,0.2032 0.092,0.085 0.184,0.1692 0.2774,0.2538 0.062,0.057 0.126,0.1114 0.188,0.168 0.096,0.089 0.192,0.1774 0.2892,0.2656 0.06,0.056 0.122,0.112 0.184,0.168 0.098,0.09 0.198,0.1794 0.2968,0.2696 0.068,0.062 0.136,0.1252 0.2032,0.1874 0.116,0.106 0.2318,0.2108 0.3476,0.3164 0.07,0.064 0.142,0.124 0.211,0.1876 0.086,0.079 0.172,0.156 0.2578,0.2342 0.088,0.081 0.176,0.1614 0.2656,0.2422 0.088,0.082 0.176,0.1648 0.2656,0.2462 0.09,0.082 0.18,0.164 0.2694,0.246 0.108,0.1 0.2192,0.1974 0.3282,0.297 0.076,0.069 0.15,0.1379 0.2266,0.2069 0.112,0.1022 0.2242,0.2028 0.336,0.3046 0.096,0.088 0.192,0.174 0.289,0.2618 0.06,0.055 0.12,0.1126 0.18,0.168 0.132,0.1216 0.2658,0.242 0.3986,0.3632 0.116,0.1062 0.2318,0.2108 0.3476,0.3164 0.086,0.079 0.172,0.156 0.2578,0.2344 0.1,0.092 0.2006,0.182 0.3008,0.2734 0.102,0.094 0.2058,0.1874 0.3086,0.2812 0.106,0.097 0.214,0.1922 0.3202,0.2892 0.104,0.095 0.2052,0.1906 0.3086,0.2852 0.124,0.1142 0.2504,0.226 0.375,0.3398 0.108,0.1 0.2192,0.1974 0.3282,0.2968 0.11,0.1018 0.221,0.2034 0.332,0.3048 0.092,0.084 0.186,0.166 0.2774,0.25 0.128,0.1184 0.2574,0.2374 0.3866,0.3554 0.098,0.089 0.196,0.1768 0.293,0.2656 0.13,0.1192 0.2606,0.2368 0.3906,0.3554 0.132,0.1218 0.2656,0.2422 0.3986,0.3634 0.084,0.077 0.166,0.154 0.25,0.2304 0.152,0.1392 0.305,0.2756 0.457,0.414 0.102,0.094 0.2056,0.1874 0.3086,0.2814 0.138,0.126 0.2764,0.2494 0.414,0.375 0.124,0.1136 0.247,0.2266 0.371,0.3398 0.09,0.082 0.18,0.164 0.2696,0.246 0.156,0.1436 0.3122,0.287 0.4688,0.4298 0.11,0.1004 0.2186,0.2008 0.328,0.3008 0.16,0.1474 0.3236,0.2908 0.4844,0.4374 0.096,0.087 0.19,0.1748 0.2852,0.2618 0.164,0.1498 0.3286,0.2962 0.4922,0.4452 0.114,0.105 0.2292,0.2082 0.3438,0.3126 0.13,0.1204 0.263,0.2394 0.3944,0.3594 0.118,0.1092 0.2366,0.2194 0.3556,0.328 0.166,0.153 0.3332,0.305 0.5,0.4572 0.138,0.126 0.2764,0.2494 0.414,0.375 0.12,0.1104 0.2428,0.218 0.3634,0.328 0.154,0.1424 0.3094,0.2842 0.4648,0.4258 0.142,0.1298 0.284,0.2574 0.4258,0.3868 0.124,0.1134 0.2472,0.2268 0.371,0.3398 0.16,0.1468 0.3204,0.2916 0.4804,0.4374 0.142,0.1312 0.2868,0.2602 0.4298,0.3908 0.144,0.1322 0.2892,0.2628 0.4336,0.3944 0.148,0.1362 0.2968,0.2708 0.4452,0.4062 0.146,0.1342 0.2912,0.2688 0.4376,0.4024 0.148,0.136 0.297,0.271 0.4452,0.4062 0.168,0.1548 0.339,0.307 0.508,0.461 0.132,0.1216 0.2656,0.2422 0.3984,0.3634 0.17,0.1558 0.3412,0.3094 0.5116,0.4648 0.136,0.1254 0.2734,0.25 0.4102,0.375 0.172,0.1577 0.3434,0.3155 0.5156,0.4725 0.158,0.1448 0.3184,0.2856 0.4766,0.4296 0.158,0.1444 0.3152,0.2862 0.4726,0.4298 0.158,0.1448 0.3146,0.2896 0.4728,0.4336 0.16,0.148 0.323,0.2942 0.4842,0.4414 0.178,0.163 0.3574,0.3222 0.5352,0.4844 0.148,0.1354 0.2974,0.2674 0.4454,0.4022 0.164,0.1512 0.3274,0.303 0.4922,0.4532 0.164,0.1504 0.328,0.2996 0.4922,0.4492 0.184,0.1694 0.3698,0.3356 0.5546,0.504 0.168,0.1536 0.3362,0.3042 0.504,0.457 0.154,0.141 0.3068,0.2814 0.4608,0.4218 0.186,0.1712 0.372,0.3418 0.5586,0.5118 0.172,0.158 0.3472,0.3116 0.5196,0.4688 0.174,0.1592 0.3458,0.3182 0.5196,0.4764 0.174,0.16 0.349,0.3178 0.5234,0.4766 0.174,0.1606 0.3522,0.317 0.5274,0.4766 0.194,0.178 0.3876,0.3544 0.582,0.5312 0.162,0.148 0.3228,0.2942 0.4844,0.4414 0.162,0.1486 0.3224,0.2976 0.4842,0.4454 0.2138,0.1968 0.43,0.3904 0.6446,0.586 0.184,0.1686 0.3668,0.3362 0.5508,0.5038 0.184,0.1692 0.37,0.3358 0.5546,0.504 0.164,0.151 0.3314,0.2988 0.4962,0.4492 0.2042,0.188 0.4082,0.3758 0.6132,0.5624 0.186,0.1718 0.3752,0.3412 0.5626,0.5118 0.186,0.1716 0.375,0.341 0.5624,0.5116 0.2058,0.1894 0.4144,0.3746 0.6212,0.5626 0.158,0.146 0.317,0.2922 0.4766,0.4374 0.2224,0.205 0.4482,0.406 0.6718,0.6094 0.194,0.1794 0.3902,0.3572 0.586,0.5352 0.162,0.1492 0.3254,0.297 0.4882,0.4454 0.2258,0.208 0.4528,0.4146 0.6798,0.621 0.182,0.1674 0.3642,0.3338 0.5468,0.5 0.2138,0.1968 0.4298,0.3905 0.6446,0.5859 0.182,0.168 0.3674,0.333 0.5506,0.5 0.2348,0.2162 0.4712,0.43 0.7072,0.6444 0.186,0.1718 0.3748,0.3412 0.5624,0.5118 0.186,0.1704 0.3726,0.3384 0.5586,0.5078 0.2198,0.2026 0.4394,0.4046 0.6602,0.6054 0.2232,0.2056 0.4476,0.4094 0.6718,0.6134 0.192,0.1762 0.3858,0.3484 0.5782,0.5234 0.2076,0.1912 0.4164,0.3806 0.625,0.5704 0.209,0.1924 0.419,0.3832 0.6288,0.5742 0.2288,0.2106 0.4578,0.4198 0.6876,0.6288 0.2112,0.1944 0.4248,0.3852 0.6366,0.5782 0.194,0.1792 0.3904,0.357 0.586,0.5352 0.2334,0.215 0.4686,0.4272 0.7032,0.6406 0.2152,0.198 0.4322,0.3932 0.6484,0.5898 0.2144,0.1974 0.4292,0.3938 0.6446,0.5898 0.2212,0.2038 0.4456,0.4034 0.6678,0.6056 0.2526,0.2324 0.508,0.4608 0.7618,0.6914 0.172,0.1572 0.3438,0.3122 0.5156,0.4686 0.2374,0.2188 0.4764,0.4354 0.7148,0.6524 0.2416,0.2226 0.4838,0.4434 0.7266,0.664 0.2256,0.2076 0.4532,0.4112 0.6798,0.6172 0.209,0.1924 0.4188,0.3832 0.6288,0.5742 0.2272,0.2094 0.4552,0.4174 0.6836,0.625 0.2436,0.2244 0.4896,0.4456 0.7344,0.668 0.249,0.2294 0.4996,0.4562 0.75,0.6836 0.198,0.1818 0.3954,0.3624 0.5938,0.543 0.2468,0.2276 0.4978,0.4502 0.746,0.6758 0.2518,0.232 0.5048,0.4614 0.7578,0.6913 0.203,0.1868 0.4056,0.3732 0.6094,0.5586 0.268,0.247 0.5392,0.4896 0.8086,0.7344 0.2234,0.2056 0.4474,0.4092 0.672,0.6132 0.2516,0.232 0.5046,0.4616 0.7578,0.6914 0.2252,0.2076 0.4532,0.4114 0.6796,0.6172 0.2584,0.2382 0.5174,0.4748 0.7774,0.711 0.2408,0.2218 0.4844,0.4402 0.7266,0.6602 0.2266,0.2088 0.4558,0.4138 0.6836,0.621 0.2766,0.2552 0.5536,0.509 0.832,0.7618 0.2158,0.1986 0.4354,0.3926 0.6522,0.5898 0.2808,0.2588 0.5614,0.517 0.8438,0.7734 0.2166,0.1994 0.4348,0.396 0.6524,0.5938 0.2658,0.2452 0.5334,0.4876 0.8008,0.7304 0.2666,0.2458 0.5364,0.487 0.8046,0.7306 0.2376,0.2188 0.4762,0.4352 0.7148,0.6522 0.253,0.2332 0.5076,0.4642 0.7618,0.6954 0.2862,0.264 0.5752,0.5238 0.8632,0.7852 0.2254,0.2074 0.4532,0.4112 0.6798,0.6172 0.2738,0.2526 0.5486,0.5036 0.8242,0.7538 0.2436,0.2244 0.4896,0.4454 0.7344,0.668 0.293,0.2702 0.588,0.5372 0.8828,0.8046 0.243,0.2238 0.4862,0.4462 0.7304,0.668 0.2808,0.259 0.5652,0.5132 0.8478,0.7696 0.232,0.2138 0.4658,0.4246 0.6992,0.6366 0.2792,0.2577 0.5588,0.5143 0.8398,0.7695 0.2834,0.2614 0.5702,0.5186 0.8554,0.7774 0.2532,0.2332 0.5072,0.464 0.7618,0.6952 0.2868,0.2646 0.5784,0.5232 0.8672,0.7852 0.253,0.2332 0.5072,0.4642 0.7616,0.6954 0.2882,0.2658 0.5772,0.5298 0.8672,0.793 0.272,0.2506 0.5468,0.4976 0.8204,0.746 0.274,0.2528 0.5484,0.5036 0.8242,0.754 0.274,0.2526 0.5524,0.4996 0.8282,0.75 0.2792,0.2576 0.5586,0.5144 0.8398,0.7694 0.276,0.2546 0.5542,0.5058 0.832,0.7578 0.2786,0.2572 0.5594,0.5112 0.8398,0.7656 0.2964,0.2734 0.5962,0.542 0.8946,0.8126 0.2516,0.232 0.5048,0.4614 0.7578,0.6914 0.315,0.291 0.6318,0.5794 0.9492,0.8672 0.2822,0.2602 0.5676,0.5158 0.8516,0.7734 0.2842,0.262 0.5694,0.5218 0.8554,0.7812 0.2898,0.2672 0.5834,0.5286 0.875,0.793 0.2868,0.2646 0.5746,0.527 0.8634,0.7892 0.2732,0.2518 0.5492,0.5 0.8242,0.75 0.309,0.285 0.6184,0.5692 0.9296,0.8514 0.308,0.2842 0.6198,0.5628 0.9296,0.8438 0.2592,0.2387 0.5208,0.4741 0.7814,0.7109 0.3252,0.3004 0.6528,0.5974 0.9804,0.8944 0.2802,0.2584 0.562,0.5138 0.8438,0.7696 0.2996,0.2766 0.6006,0.5506 0.9024,0.8242 0.3098,0.286 0.6216,0.5688 0.9336,0.8516 0.303,0.2796 0.6088,0.5554 0.914,0.832 0.2862,0.264 0.5752,0.5238 0.8632,0.7852 0.333,0.3074 0.6686,0.6102 1.004,0.914 0.2714,0.2502 0.5434,0.4984 0.8164,0.7462 0.3186,0.2942 0.6402,0.584 0.9608,0.875 0.3074,0.2834 0.6166,0.5632 0.9258,0.8436 0.3216,0.2968 0.645,0.5898 0.9688,0.8828 0.2938,0.2712 0.591,0.5366 0.8868,0.8048 0.3098,0.286 0.6216,0.5686 0.9336,0.8516 0.3098,0.286 0.6216,0.5686 0.9336,0.8516 0.3288,0.3036 0.6608,0.6022 0.9922,0.9022 0.312,0.288 0.6272,0.5708 0.9414,0.8556 0.301,0.2778 0.603,0.5532 0.9062,0.828 0.3308,0.3056 0.6628,0.6082 0.996,0.9102 0.316,0.2916 0.635,0.5788 0.9532,0.8672 0.3214,0.2965 0.645,0.5895 0.9688,0.8827 0.3212,0.2966 0.6448,0.5896 0.9688,0.8828 0.3016,0.2786 0.6062,0.5526 0.91,0.8282 0.3524,0.3256 0.7074,0.647 1.0626,0.9686 0.3112,0.2872 0.624,0.5716 0.9374,0.8556 0.3404,0.3142 0.6844,0.623 1.0274,0.9336 0.3098,0.286 0.6216,0.5686 0.9336,0.8516 0.3246,0.2998 0.6496,0.598 0.9766,0.8944 0.3454,0.3194 0.6946,0.6338 1.043,0.9492 0.3336,0.308 0.6716,0.6098 1.0078,0.9142 0.3254,0.3004 0.6526,0.5976 0.9804,0.8944 0.337,0.3112 0.6762,0.6184 1.0156,0.9258 0.3308,0.3054 0.6628,0.6084 0.9962,0.9102 0.3362,0.3106 0.6768,0.615 1.0156,0.9218 0.3354,0.31 0.6736,0.6158 1.0116,0.922 0.354,0.3268 0.7098,0.6498 1.0664,0.9726 0.3242,0.2992 0.6502,0.5948 0.9766,0.8906 0.3226,0.298 0.6478,0.5922 0.9726,0.8868 0.372,0.344 0.7462,0.6839 1.1212,1.0233 0.343,0.3168 0.6894,0.6284 1.0352,0.9414 0.3272,0.3024 0.6584,0.5996 0.9882,0.8984 0.3632,0.3358 0.7276,0.6686 1.0938,1 0.3436,0.3174 0.6888,0.6318 1.0352,0.9454 0.368,0.34 0.742,0.6722 1.1132,1.0078 0.3154,0.291 0.6316,0.5794 0.9492,0.8672 0.363,0.3356 0.7278,0.6686 1.0938,1 0.3674,0.3394 0.739,0.6726 1.1094,1.0078 0.3368,0.311 0.676,0.6184 1.0156,0.9258 0.3564,0.3294 0.715,0.6552 1.0742,0.9804 0.3692,0.3414 0.7408,0.6788 1.1132,1.0156 0.343,0.3168 0.6896,0.6286 1.0352,0.9414 0.3564,0.3294 0.715,0.6552 1.0742,0.9806 0.3908,0.3614 0.7854,0.7178 1.1798,1.0742 0.3288,0.3036 0.6608,0.6022 0.9922,0.9022 0.3752,0.3472 0.7542,0.6888 1.1328,1.0314 0.378,0.3494 0.7592,0.6942 1.1406,1.0389 0.334,0.3086 0.671,0.613 1.0078,0.918 0.396,0.3666 0.7956,0.7284 1.1952,1.0898 0.3368,0.3112 0.6762,0.6184 1.0158,0.9258 0.3994,0.3698 0.7998,0.737 1.203,1.1016 0.3518,0.325 0.7078,0.6438 1.0626,0.9648 0.3718,0.344 0.746,0.684 1.121,1.0234 0.3828,0.354 0.7702,0.7016 1.1562,1.0508 0.3734,0.3452 0.7484,0.6868 1.125,1.0274 0.3756,0.347 0.754,0.6888 1.133,1.0312 0.376,0.3478 0.7572,0.6882 1.1366,1.0312 0.3604,0.3332 0.7226,0.6634 1.086,0.9922 0.4096,0.3792 0.8208,0.7554 1.2344,1.129 0.3646,0.3368 0.7338,0.6674 1.1014,1 0.3768,0.3484 0.7568,0.6914 1.1368,1.035 0.386,0.3574 0.7746,0.7104 1.164,1.0626 0.3944,0.3648 0.7936,0.7226 1.1914,1.082 0.3734,0.3451 0.7484,0.6867 1.125,1.0273 0.3846,0.3558 0.7722,0.7076 1.1602,1.0586 0.4016,0.3716 0.8056,0.7392 1.211,1.1054 0.3868,0.3578 0.7776,0.7098 1.168,1.0626 0.3726,0.3446 0.749,0.6834 1.125,1.0234 0.4198,0.3886 0.8416,0.7734 1.2656,1.1562 0.3816,0.3528 0.7672,0.699 1.1524,1.0468 0.3922,0.363 0.7876,0.7206 1.1836,1.0782 0.396,0.3666 0.7954,0.7286 1.1952,1.0898 0.3922,0.363 0.7878,0.7206 1.1836,1.0782 0.4146,0.3836 0.8314,0.7628 1.25,1.1406 0.3814,0.3528 0.7676,0.699 1.1524,1.0468 0.3968,0.3674 0.7948,0.7318 1.1952,1.0938 0.4178,0.387 0.8398,0.7674 1.2618,1.1484 0.3922,0.363 0.7876,0.7204 1.1836,1.0782 0.4102,0.3798 0.824,0.7547 1.2382,1.1289 0.4064,0.376 0.8164,0.7468 1.2266,1.117 0.403,0.373 0.808,0.742 1.2148,1.1094 0.4092,0.3788 0.8214,0.752 1.2344,1.125 0.411,0.3806 0.8272,0.7542 1.2422,1.129 0.4246,0.393 0.8524,0.781 1.2812,1.168 0.3808,0.3522 0.7644,0.6996 1.1486,1.0468 0.4426,0.4102 0.8886,0.8152 1.3358,1.2188 0.41,0.3792 0.8244,0.7514 1.2384,1.125 0.3874,0.3584 0.777,0.713 1.168,1.0664 0.4412,0.4092 0.886,0.8122 1.332,1.2148 0.4198,0.3888 0.8414,0.7736 1.2656,1.1562 0.4036,0.3736 0.8112,0.7414 1.2188,1.1094 0.4474,0.4148 0.8992,0.8226 1.3514,1.2306 0.4078,0.3772 0.8188,0.7494 1.2306,1.121 0.4204,0.3894 0.8448,0.7727 1.2694,1.1561 0.4212,0.3902 0.8482,0.7722 1.2736,1.1564 0.4284,0.397 0.86,0.7888 1.2928,1.1796 0.4414,0.4088 0.886,0.8126 1.3322,1.2148 0.4124,0.382 0.8294,0.7568 1.246,1.1328 0.4426,0.4102 0.8886,0.8154 1.336,1.2188 0.4144,0.3838 0.8314,0.7628 1.25,1.1406 0.444,0.4116 0.891,0.818 1.3398,1.2226 0.4176,0.387 0.8398,0.7676 1.2618,1.1486 0.4644,0.4306 0.9326,0.854 1.4022,1.2772 0.4064,0.3762 0.8162,0.7468 1.2266,1.1172 0.4492,0.4166 0.9014,0.8288 1.3554,1.2384 0.4542,0.4208 0.912,0.8362 1.3712,1.25 0.4212,0.39 0.8478,0.7724 1.2734,1.1562 0.4388,0.4066 0.8808,0.8069 1.3242,1.2069 0.4568,0.4234 0.917,0.8416 1.379,1.2578 0.4278,0.3964 0.8606,0.7858 1.293,1.1758 0.4424,0.4104 0.8886,0.8152 1.3358,1.2188 0.4588,0.4254 0.9228,0.8434 1.3868,1.2616 0.4298,0.3984 0.8626,0.7918 1.2968,1.1836 0.479,0.4444 0.9608,0.884 1.4454,1.3204 0.4226,0.3912 0.8504,0.775 1.2772,1.1602 0.4608,0.4274 0.9248,0.8494 1.3908,1.2694 0.4534,0.4206 0.9126,0.833 1.371,1.2462 0.4542,0.4212 0.9118,0.836 1.3712,1.25 0.4492,0.4166 0.901,0.8288 1.3554,1.2382 0.469,0.4352 0.9434,0.8618 1.418,1.2892 0.4412,0.4088 0.8858,0.8126 1.332,1.2148 0.4736,0.4393 0.9504,0.8729 1.4296,1.3045 0.4434,0.411 0.8918,0.8148 1.34,1.2188 0.4748,0.4406 0.953,0.876 1.4336,1.3086 0.46,0.4266 0.9252,0.8464 1.3906,1.2656 0.4642,0.4304 0.9328,0.8546 1.4022,1.2774 0.463,0.4292 0.9304,0.8516 1.3986,1.2734 0.465,0.4312 0.932,0.8576 1.4022,1.2812 0.465,0.4312 0.936,0.8538 1.4064,1.2774 0.456,0.4232 0.9138,0.842 1.3748,1.2578 0.4926,0.4572 0.99,0.9068 1.4884,1.3554 0.4582,0.425 0.9194,0.8444 1.3828,1.2618 0.4858,0.4508 0.977,0.8934 1.4688,1.336 0.4718,0.4374 0.9484,0.8672 1.4258,1.2968 0.4628,0.4293 0.9302,0.8517 1.3984,1.2733 0.4838,0.449 0.9712,0.8914 1.461,1.332 0.4822,0.4476 0.9688,0.889 1.457,1.3282 0.4606,0.4274 0.9246,0.8498 1.3906,1.2696 0.4936,0.4584 0.9926,0.9096 1.4922,1.3592 0.4952,0.4598 0.9946,0.9126 1.496,1.3634 0.4554,0.4222 0.9144,0.839 1.375,1.2538 0.5054,0.4694 1.0158,0.9306 1.5274,1.3908 0.4702,0.436 0.9462,0.8646 1.4218,1.2928 0.4856,0.451 0.9736,0.8974 1.4648,1.34 0.5014,0.4654 1.0082,0.9224 1.5158,1.3788 0.4694,0.4356 0.9428,0.8652 1.4178,1.293 0.508,0.4718 1.0208,0.9358 1.5352,1.3983 0.4858,0.4508 0.9772,0.8936 1.4688,1.336 0.4804,0.446 0.9632,0.8866 1.4492,1.3242 0.5192,0.4824 1.0442,0.957 1.5704,1.4296 0.4668,0.4332 0.9378,0.86 1.41,1.2852 0.5208,0.484 1.0468,0.9594 1.5744,1.4336 0.4836,0.4488 0.9712,0.8916 1.4608,1.332 0.4992,0.4636 1.0024,0.9204 1.5078,1.375 0.512,0.4756 1.0284,0.9442 1.547,1.4102 0.4898,0.4548 0.9846,0.9016 1.4804,1.3476 0.5004,0.465 1.005,0.9232 1.5118,1.379 0.5152,0.4788 1.0366,0.9488 1.5586,1.418 0.503,0.4672 1.01,0.9286 1.5194,1.3866 0.5054,0.4693 1.0154,0.9305 1.5274,1.3905 0.491,0.456 0.9874,0.9044 1.4844,1.3516 0.5244,0.4878 1.0542,0.9678 1.586,1.4454 0.507,0.4712 1.0174,0.9366 1.5312,1.3984 0.5192,0.4824 1.0442,0.957 1.5702,1.4296 0.5024,0.4668 1.0108,0.9256 1.5196,1.3828 0.5144,0.4784 1.0334,0.9496 1.5546,1.418 0.528,0.4908 1.0626,0.9726 1.5978,1.4532 0.4992,0.4636 1.0022,0.9204 1.5078,1.375 0.5298,0.4926 1.0644,0.9786 1.6016,1.461 0.5022,0.4666 1.0108,0.9254 1.5194,1.3828 0.5314,0.4942 1.067,0.981 1.6056,1.4647 0.5246,0.4876 1.0542,0.9678 1.5858,1.4452 0.5194,0.483 1.0442,0.957 1.5704,1.4298 0.526,0.489 1.0566,0.9704 1.5898,1.4492 0.5194,0.4828 1.044,0.957 1.5704,1.4296 0.5386,0.5012 1.0826,0.9942 1.6288,1.4844 0.5018,0.4662 1.0074,0.926 1.5156,1.3828 0.5424,0.505 1.0906,1.0022 1.6406,1.4962 0.54,0.5022 1.0854,0.9968 1.6328,1.4882 0.5336,0.496 1.0724,0.9834 1.6134,1.4688 0.5348,0.4972 1.075,0.9862 1.6172,1.4726 0.518,0.4816 1.0414,0.9544 1.5664,1.4258 0.542,0.5044 1.087,1.0027 1.6366,1.4961 0.5382,0.5004 1.0834,0.9908 1.629,1.4804 0.536,0.4984 1.0776,0.9888 1.621,1.4766 0.524,0.4874 1.051,0.9682 1.5822,1.4452 0.5682,0.5292 1.142,1.0494 1.7186,1.5664 0.5268,0.4896 1.0598,0.9702 1.5938,1.4494 0.5448,0.5068 1.092,1.008 1.6446,1.5038 0.5514,0.513 1.1086,1.018 1.668,1.5196 0.5298,0.4928 1.068,0.9746 1.6054,1.457 0.561,0.5222 1.126,1.0364 1.6952,1.5468 0.5372,0.4996 1.0804,0.9918 1.625,1.4806 0.5596,0.5206 1.1238,1.034 1.6916,1.5427 0.5474,0.5094 1.1008,1.0098 1.6562,1.5078 0.5502,0.5122 1.1058,1.0152 1.664,1.5158 0.5554,0.5168 1.116,1.0258 1.6798,1.5312 0.5514,0.5132 1.1084,1.0178 1.6678,1.5196 0.5494,0.5112 1.1028,1.0156 1.6602,1.5156 0.5718,0.5324 1.1502,1.0542 1.7304,1.5742 0.5442,0.506 1.0928,1.005 1.6446,1.5 0.5594,0.5208 1.1238,1.034 1.6914,1.543 0.5748,0.5352 1.1548,1.0632 1.7384,1.5858 0.5432,0.5056 1.0932,1.0018 1.6444,1.4962 0.5782,0.5386 1.163,1.0676 1.75,1.5937 0.557,0.518 1.1184,1.0286 1.6836,1.535 0.5682,0.529 1.142,1.0498 1.7188,1.5664 0.5642,0.5254 1.1342,1.0416 1.707,1.5548 0.5702,0.531 1.1478,1.0518 1.7266,1.5702 0.5662,0.5272 1.1362,1.0478 1.711,1.5626 0.5816,0.5418 1.1708,1.0728 1.7616,1.6016 0.5528,0.5144 1.111,1.0208 1.672,1.5234 0.5738,0.5348 1.1516,1.0638 1.7342,1.586 0.5756,0.5362 1.1578,1.0622 1.7422,1.5858 0.5876,0.5476 1.1806,1.0868 1.7774,1.6212 0.5602,0.5216 1.1266,1.0333 1.6954,1.5429 0.5928,0.5524 1.1904,1.0974 1.793,1.6366 0.577,0.5374 1.16,1.0654 1.746,1.5898 0.5776,0.5382 1.1634,1.0646 1.75,1.59 0.5848,0.5448 1.1754,1.0816 1.7696,1.6132 0.58,0.5404 1.1646,1.0742 1.7538,1.6016 0.5822,0.5424 1.1704,1.0762 1.7618,1.6054 0.601,0.5602 1.2094,1.1102 1.8202,1.6562 0.5622,0.5234 1.1286,1.0398 1.6992,1.5508 0.609,0.5682 1.2248,1.1262 1.8438,1.6798 0.5554,0.5172 1.116,1.026 1.6798,1.5311 0.6166,0.5758 1.24,1.1422 1.8672,1.7032 0.5896,0.5494 1.186,1.089 1.785,1.625 0.591,0.5508 1.1886,1.0916 1.7892,1.6288 0.5964,0.5562 1.1984,1.1024 1.8046,1.6446 0.577,0.5378 1.1602,1.065 1.7462,1.5898 0.6228,0.5816 1.253,1.1524 1.8866,1.7188 0.589,0.5488 1.1828,1.0898 1.7812,1.625 0.6146,0.573 1.2346,1.1372 1.8594,1.6952 0.5634,0.5248 1.1312,1.0424 1.7032,1.5548 0.6342,0.5924 1.2766,1.1734 1.9218,1.75 0.587,0.5469 1.181,1.0837 1.7774,1.6171 0.6144,0.5732 1.2344,1.1368 1.8594,1.6952 0.6036,0.563 1.2144,1.1156 1.828,1.6642 0.5924,0.5524 1.191,1.0942 1.793,1.6328 0.6208,0.5796 1.2474,1.1504 1.879,1.7148 0.613,0.5718 1.232,1.1344 1.8554,1.6914 0.5976,0.5574 1.201,1.1052 1.8086,1.6484 0.6204,0.5792 1.2478,1.1472 1.879,1.711 0.617,0.5758 1.2394,1.1426 1.8672,1.703 0.5966,0.5568 1.2018,1.1022 1.8086,1.6446 0.6336,0.5919 1.273,1.1741 1.9178,1.7499 0.6064,0.5656 1.2194,1.121 1.836,1.6718 0.6148,0.574 1.234,1.1406 1.8594,1.6992 0.6466,0.604 1.3026,1.1944 1.961,1.7814 0.5902,0.55 1.1852,1.0928 1.785,1.6288 0.6304,0.5888 1.2688,1.1656 1.9102,1.7384 0.6248,0.5832 1.255,1.159 1.8906,1.7264 0.6232,0.582 1.2526,1.1528 1.8868,1.7188 0.6282,0.5868 1.263,1.1638 1.9024,1.7344 0.6276,0.586 1.2634,1.1606 1.9022,1.7303 0.6282,0.5866 1.263,1.164 1.9024,1.7344 0.6202,0.5792 1.2478,1.1476 1.879,1.711 0.6278,0.5868 1.2632,1.1638 1.9022,1.7344 0.6332,0.5918 1.2734,1.1746 1.918,1.75 0.637,0.5952 1.2812,1.1792 1.9298,1.7578 0.624,0.583 1.2554,1.1556 1.8906,1.7226 0.6448,0.603 1.2964,1.1954 1.953,1.7812 0.6482,0.6058 1.3048,1.2008 1.965,1.7892 0.6146,0.574 1.2376,1.1368 1.8632,1.6952 0.6488,0.607 1.304,1.2035 1.9648,1.7929 0.6432,0.6012 1.2942,1.1894 1.9492,1.7734 0.6526,0.61 1.3118,1.2086 1.9766,1.8008 0.6284,0.587 1.2626,1.164 1.9024,1.7344 0.6346,0.5934 1.2756,1.1772 1.9218,1.754 0.6594,0.617 1.328,1.2214 2,1.8202 0.6502,0.6078 1.3064,1.2068 1.9688,1.797 0.6328,0.5914 1.2736,1.1714 1.918,1.746 0.6588,0.6166 1.3246,1.222 1.996,1.8204 0.647,0.6048 1.302,1.1976 1.961,1.7849 0.655,0.6128 1.3168,1.214 1.9844,1.8086 0.6382,0.5968 1.2836,1.182 1.9336,1.7618 0.6626,0.6204 1.3324,1.23 2.0078,1.832 0.6758,0.6324 1.3576,1.254 2.0468,1.8672 0.643,0.6008 1.2942,1.1902 1.9492,1.7734 0.6512,0.609 1.3092,1.2058 1.9728,1.797 0.6662,0.6234 1.3402,1.235 2.0194,1.8398 0.652,0.6098 1.3122,1.2088 1.9766,1.8008 0.664,0.6216 1.3348,1.233 2.0118,1.8358 0.67,0.6271 1.348,1.2435 2.0312,1.8515 0.5516,0.5162 1.1108,1.021 1.6718,1.5234 h 1124.547 c 1.44,0 2.5976,-1.1574 2.5976,-2.5976 V 2590.4955 c -0.13,-0.073 -0.2624,-0.1454 -0.4062,-0.1954 -0.2694,-0.7184 -0.8478,-1.274 -1.5742,-1.5274 -0.2694,-0.7178 -0.8444,-1.2737 -1.5704,-1.5273 -0.27,-0.7167 -0.8448,-1.2744 -1.5702,-1.5273 -0.2708,-0.7114 -0.842,-1.2668 -1.5626,-1.5195 -0.2704,-0.7107 -0.843,-1.2624 -1.5624,-1.5157 -0.2706,-0.7077 -0.8382,-1.2622 -1.5548,-1.5156 -0.2714,-0.707 -0.842,-1.2553 -1.5586,-1.5078 -0.2706,-0.7042 -0.8338,-1.2542 -1.5468,-1.5078 -0.2712,-0.7022 -0.8356,-1.2506 -1.547,-1.5039 -0.2712,-0.6997 -0.834,-1.2467 -1.5428,-1.5 -0.2708,-0.6984 -0.832,-1.2422 -1.5392,-1.496 -0.2708,-0.6955 -0.8312,-1.2381 -1.5352,-1.4922 -0.2706,-0.6954 -0.8312,-1.2341 -1.535,-1.4883 -0.271,-0.6921 -0.8266,-1.2341 -1.5274,-1.4883 -0.2714,-0.6902 -0.828,-1.2305 -1.5274,-1.4843 -0.2708,-0.6862 -0.8246,-1.2221 -1.5194,-1.4766 -0.271,-0.6862 -0.8248,-1.222 -1.5196,-1.4765 -0.2704,-0.685 -0.8226,-1.2176 -1.5156,-1.4727 -0.2706,-0.6817 -0.8218,-1.2136 -1.5118,-1.4687 -0.271,-0.6799 -0.8194,-1.214 -1.5078,-1.4688 -0.2708,-0.6767 -0.8186,-1.2059 -1.5038,-1.4609 -0.2706,-0.6756 -0.8166,-1.2015 -1.5,-1.457 -0.2706,-0.6759 -0.8202,-1.2016 -1.504,-1.4571 -0.2706,-0.6725 -0.8116,-1.1977 -1.4922,-1.4531 -0.2712,-0.6709 -0.8126,-1.1982 -1.4922,-1.4531 -0.271,-0.665 -0.811,-1.1862 -1.4844,-1.4414 -0.2704,-0.6666 -0.8098,-1.1857 -1.4844,-1.4414 -0.2704,-0.6666 -0.8096,-1.1858 -1.4842,-1.4414 -0.2712,-0.6618 -0.8062,-1.1824 -1.4766,-1.4375 -0.271,-0.6587 -0.8056,-1.1744 -1.4728,-1.4296 -0.2708,-0.6587 -0.8054,-1.1745 -1.4726,-1.4297 -0.2706,-0.6543 -0.7984,-1.1702 -1.461,-1.4258 -0.2704,-0.6547 -0.802,-1.1661 -1.4648,-1.4219 -0.2704,-0.6512 -0.8018,-1.1621 -1.4608,-1.4179 -0.27,-0.65 -0.7958,-1.1578 -1.4532,-1.4141 -0.2698,-0.6473 -0.7984,-1.1578 -1.4532,-1.414 -0.2708,-0.6469 -0.798,-1.1548 -1.453,-1.4102 v 0 c -0.2712,-0.642 -0.7944,-1.1475 -1.4454,-1.4023 -0.2706,-0.6405 -0.7926,-1.1431 -1.4414,-1.3985 v 0 c -0.2704,-0.6378 -0.7914,-1.1391 -1.4374,-1.3945 -0.2702,-0.6393 -0.7904,-1.1387 -1.4376,-1.3945 -0.2712,-0.638 -0.7906,-1.1398 -1.4374,-1.3945 -0.2704,-0.6323 -0.7814,-1.1314 -1.422,-1.3867 -0.2706,-0.6344 -0.7868,-1.1316 -1.4296,-1.3867 -0.2702,-0.6297 -0.7802,-1.1275 -1.418,-1.3828 -0.2704,-0.628 -0.7856,-1.12 -1.4218,-1.375 -0.2714,-0.6285 -0.7804,-1.1247 -1.418,-1.3789 -0.2716,-0.6233 -0.7772,-1.1174 -1.4102,-1.3711 -0.2714,-0.6232 -0.7772,-1.1135 -1.4102,-1.3672 -0.272,-0.6209 -0.775,-1.1142 -1.4062,-1.3672 -0.2722,-0.6173 -0.7744,-1.1106 -1.4024,-1.3633 -0.2718,-0.6147 -0.7692,-1.1027 -1.3944,-1.3554 -0.2724,-0.6159 -0.7716,-1.1032 -1.3986,-1.3555 -0.2724,-0.6123 -0.767,-1.1035 -1.3906,-1.3554 -0.2726,-0.6073 -0.7678,-1.0923 -1.3866,-1.3438 -0.273,-0.61 -0.765,-1.0963 -1.3868,-1.3476 -0.273,-0.6049 -0.7618,-1.0891 -1.3788,-1.3399 -0.2726,-0.6036 -0.7596,-1.0848 -1.375,-1.3359 -0.2726,-0.6036 -0.7596,-1.0848 -1.375,-1.3359 -0.2726,-0.6002 -0.759,-1.0812 -1.3712,-1.332 -0.2728,-0.5987 -0.756,-1.0778 -1.3672,-1.3282 -0.2738,-0.5975 -0.756,-1.0788 -1.3672,-1.3281 -0.2734,-0.5912 -0.7506,-1.0673 -1.3554,-1.3164 -0.2732,-0.5929 -0.7496,-1.0709 -1.3554,-1.3203 -0.2736,-0.5915 -0.7504,-1.0675 -1.3556,-1.3164 -0.274,-0.5875 -0.7494,-1.0606 -1.3516,-1.3086 -0.2736,-0.5854 -0.7438,-1.0606 -1.3436,-1.3086 -0.274,-0.5841 -0.745,-1.057 -1.3438,-1.3046 -0.2744,-0.5818 -0.7428,-1.0539 -1.3398,-1.3008 -0.2734,-0.5793 -0.7384,-1.0494 -1.3322,-1.2969 -0.274,-0.5791 -0.7414,-1.05 -1.3358,-1.2968 -0.2738,-0.5753 -0.7376,-1.0387 -1.3282,-1.2852 -0.274,-0.5749 -0.7336,-1.0468 -1.3242,-1.2929 -0.2746,-0.5721 -0.7358,-1.0399 -1.3242,-1.2852 -0.2738,-0.5671 -0.7332,-1.032 -1.3164,-1.2773 -0.2736,-0.5672 -0.7294,-1.032 -1.3126,-1.2774 -0.2736,-0.5669 -0.7294,-1.0281 -1.3124,-1.2734 -0.2736,-0.5638 -0.7246,-1.0285 -1.3048,-1.2734 v 0 c -0.2744,-0.5625 -0.725,-1.0217 -1.3046,-1.2656 -0.2734,-0.5585 -0.7218,-1.0175 -1.297,-1.2618 -0.2738,-0.5594 -0.7282,-1.0216 -1.3046,-1.2656 -0.2746,-0.5546 -0.724,-1.0153 -1.297,-1.2578 -0.2726,-0.5481 -0.712,-0.9993 -1.2772,-1.2422 -0.2712,-0.5514 -0.7186,-1.0011 -1.2852,-1.246 -0.2706,-0.5516 -0.7152,-1.0006 -1.2812,-1.2461 -0.2716,-0.5519 -0.718,-1.0054 -1.2852,-1.25 -0.2706,-0.5448 -0.7098,-0.9862 -1.2696,-1.2305 -0.2708,-0.5501 -0.7124,-0.9971 -1.2774,-1.2422 -0.2706,-0.5428 -0.711,-0.9867 -1.2694,-1.2304 -0.27,-0.5411 -0.7056,-0.9825 -1.2618,-1.2266 -0.2692,-0.5414 -0.706,-0.9818 -1.2616,-1.2266 -0.2704,-0.5415 -0.7048,-0.9826 -1.2618,-1.2265 -0.2704,-0.5375 -0.7044,-0.9758 -1.2578,-1.2187 -0.2692,-0.5338 -0.6972,-0.9678 -1.2462,-1.211 -0.2688,-0.536 -0.6992,-0.9709 -1.25,-1.2148 -0.2692,-0.5326 -0.6978,-0.9681 -1.246,-1.2109 -0.2682,-0.5278 -0.6954,-0.9605 -1.2382,-1.2031 -0.2682,-0.5297 -0.6942,-0.9599 -1.2384,-1.2032 -0.2674,-0.5259 -0.694,-0.9524 -1.2344,-1.1953 -0.2682,-0.5274 -0.6918,-0.9606 -1.2344,-1.2031 -0.267,-0.5205 -0.6872,-0.9416 -1.2226,-1.1836 -0.2664,-0.5213 -0.6874,-0.9486 -1.2226,-1.1914 -0.266,-0.5187 -0.686,-0.945 -1.2188,-1.1875 -0.2666,-0.5183 -0.6896,-0.9417 -1.2226,-1.1836 -0.2664,-0.5149 -0.681,-0.9385 -1.211,-1.1796 -0.2656,-0.5123 -0.6802,-0.9308 -1.207,-1.1719 -0.266,-0.5144 -0.682,-0.9305 -1.211,-1.1719 -0.2648,-0.5094 -0.6754,-0.9269 -1.1992,-1.1679 -0.2644,-0.5086 -0.6768,-0.9228 -1.1992,-1.1641 -0.265,-0.5084 -0.6762,-0.9233 -1.1992,-1.1641 -0.2652,-0.506 -0.674,-0.9202 -1.1954,-1.1601 -0.2644,-0.5022 -0.6702,-0.9129 -1.1874,-1.1523 -0.2632,-0.4997 -0.666,-0.9086 -1.1796,-1.1485 -0.2632,-0.5016 -0.6686,-0.9078 -1.1836,-1.1484 -0.2638,-0.5005 -0.6688,-0.9087 -1.1836,-1.1484 -0.2626,-0.4955 -0.6624,-0.8974 -1.172,-1.1367 -0.2632,-0.4975 -0.6636,-0.9054 -1.1758,-1.1446 -0.2618,-0.4906 -0.6592,-0.8905 -1.164,-1.1289 -0.2626,-0.4936 -0.6598,-0.898 -1.168,-1.1367 -0.2614,-0.4875 -0.6544,-0.8871 -1.1562,-1.125 -0.2614,-0.4894 -0.657,-0.8864 -1.1602,-1.125 -0.2606,-0.4856 -0.653,-0.8792 -1.1524,-1.1171 -0.26,-0.485 -0.65,-0.8829 -1.1484,-1.1211 -0.2594,-0.4819 -0.6532,-0.8754 -1.1484,-1.1133 -0.2584,-0.48 -0.648,-0.8675 -1.1406,-1.1055 -0.2592,-0.483 -0.6488,-0.8749 -1.1446,-1.1133 -0.258,-0.4767 -0.6432,-0.8642 -1.1328,-1.1015 -0.2572,-0.4754 -0.6452,-0.86 -1.1328,-1.0977 -0.258,-0.4772 -0.643,-0.8679 -1.1328,-1.1054 -0.2578,-0.4727 -0.6428,-0.8536 -1.1288,-1.0898 -0.2574,-0.4712 -0.6368,-0.8577 -1.1212,-1.0938 -0.2566,-0.468 -0.6362,-0.8502 -1.1172,-1.0859 -0.2552,-0.4655 -0.6358,-0.8422 -1.1132,-1.0781 -0.2552,-0.4675 -0.6344,-0.8454 -1.1134,-1.0821 -0.2564,-0.468 -0.6362,-0.8502 -1.1172,-1.0859 -0.2544,-0.4583 -0.6264,-0.8323 -1.0976,-1.0664 -0.2538,-0.4608 -0.6292,-0.8349 -1.1016,-1.0703 -0.2552,-0.4622 -0.6304,-0.8394 -1.1054,-1.0742 -0.2536,-0.4543 -0.6228,-0.8213 -1.0898,-1.0547 -0.253,-0.4568 -0.6216,-0.8277 -1.09,-1.0625 -0.2528,-0.4555 -0.6224,-0.8243 -1.0898,-1.0586 -0.2522,-0.4519 -0.6222,-0.8172 -1.0858,-1.0507 -0.2524,-0.4518 -0.6184,-0.8213 -1.0822,-1.0547 -0.252,-0.4487 -0.617,-0.8145 -1.078,-1.0469 -0.25,-0.4441 -0.6112,-0.8027 -1.0664,-1.0351 -0.2508,-0.4494 -0.618,-0.8132 -1.0782,-1.0469 -0.2512,-0.4449 -0.613,-0.8074 -1.0702,-1.0391 -0.2508,-0.4417 -0.6082,-0.8042 -1.0626,-1.0351 -0.25,-0.4386 -0.6074,-0.797 -1.0586,-1.0274 -0.249,-0.4372 -0.6056,-0.7928 -1.0546,-1.0234 -0.25,-0.4398 -0.6068,-0.7965 -1.0586,-1.0273 -0.2482,-0.4332 -0.6018,-0.7861 -1.047,-1.0156 -0.2484,-0.4351 -0.6,-0.7894 -1.0468,-1.0196 -0.247,-0.4303 -0.5974,-0.7824 -1.039,-1.0117 -0.2476,-0.4313 -0.6002,-0.7823 -1.043,-1.0117 -0.247,-0.4281 -0.5952,-0.7793 -1.0352,-1.0078 -0.246,-0.4253 -0.5942,-0.772 -1.0312,-1 -0.2452,-0.4246 -0.592,-0.7677 -1.0274,-0.9961 -0.2446,-0.4236 -0.5892,-0.7676 -1.0234,-0.9961 -0.2446,-0.4237 -0.5894,-0.7675 -1.0234,-0.9961 -0.2442,-0.4202 -0.5924,-0.7609 -1.0234,-0.9883 -0.2428,-0.4161 -0.5812,-0.7536 -1.008,-0.9804 -0.2434,-0.42 -0.5852,-0.7606 -1.0156,-0.9883 -0.2426,-0.4149 -0.5822,-0.7503 -1.0078,-0.9765 -0.2418,-0.4138 -0.58,-0.7502 -1.0038,-0.9766 -0.2412,-0.4118 -0.5782,-0.7466 -1,-0.9726 -0.2404,-0.4092 -0.5772,-0.7433 -0.9962,-0.9688 -0.241,-0.4106 -0.5792,-0.7432 -1,-0.9687 -0.24,-0.4058 -0.572,-0.7368 -0.9882,-0.961 -0.24,-0.4057 -0.572,-0.7367 -0.9884,-0.9609 -0.239,-0.4024 -0.5716,-0.7297 -0.9842,-0.9531 -0.2386,-0.4012 -0.5654,-0.7299 -0.9766,-0.9531 -0.2376,-0.3995 -0.5676,-0.7222 -0.9766,-0.9453 -0.2384,-0.401 -0.5656,-0.73 -0.9766,-0.9532 -0.2372,-0.3958 -0.5626,-0.7157 -0.9688,-0.9375 -0.2372,-0.3962 -0.5622,-0.7194 -0.9686,-0.9414 -0.2362,-0.3926 -0.5584,-0.7125 -0.961,-0.9335 -0.2362,-0.3927 -0.5582,-0.7126 -0.961,-0.9336 -0.2346,-0.3883 -0.555,-0.7058 -0.953,-0.9258 -0.2348,-0.3896 -0.5542,-0.7052 -0.9532,-0.9258 -0.2332,-0.3853 -0.551,-0.6982 -0.9454,-0.918 -0.2346,-0.3888 -0.5546,-0.7054 -0.953,-0.9257 -0.2326,-0.3813 -0.5466,-0.692 -0.9376,-0.9102 -0.2314,-0.3807 -0.5442,-0.6914 -0.9336,-0.9101 -0.231,-0.381 -0.5482,-0.6872 -0.9374,-0.9063 -0.2314,-0.3807 -0.5442,-0.6914 -0.9336,-0.9101 -0.231,-0.3775 -0.543,-0.6849 -0.9298,-0.9024 -0.2306,-0.3757 -0.5406,-0.6816 -0.9256,-0.8984 -0.2306,-0.3744 -0.538,-0.6782 -0.922,-0.8945 -0.229,-0.3712 -0.5338,-0.675 -0.914,-0.8906 -0.2304,-0.3737 -0.5384,-0.6786 -0.922,-0.8946 -0.2284,-0.3668 -0.5294,-0.669 -0.9062,-0.8828 -0.2278,-0.366 -0.5306,-0.665 -0.9062,-0.8789 -0.2272,-0.3654 -0.528,-0.6648 -0.9024,-0.8789 -0.2266,-0.3643 -0.5292,-0.6573 -0.9022,-0.8711 -0.2262,-0.3625 -0.5234,-0.6577 -0.8946,-0.8711 -0.2258,-0.3618 -0.524,-0.6579 -0.8946,-0.871 -0.2242,-0.3574 -0.5206,-0.6515 -0.8866,-0.8633 -0.2248,-0.3586 -0.5232,-0.6473 -0.8908,-0.8594 -0.2228,-0.3552 -0.5154,-0.644 -0.8788,-0.8555 -0.2238,-0.3564 -0.518,-0.6477 -0.8828,-0.8593 -0.2228,-0.3526 -0.5138,-0.6413 -0.875,-0.8516 -0.2222,-0.351 -0.5114,-0.6378 -0.8712,-0.8476 -0.2216,-0.3495 -0.5128,-0.6345 -0.871,-0.8438 -0.2198,-0.346 -0.5056,-0.6273 -0.8594,-0.8359 -0.2216,-0.3505 -0.5124,-0.6338 -0.871,-0.8437 -0.2196,-0.3433 -0.5036,-0.6248 -0.8556,-0.8321 -0.2194,-0.3433 -0.5036,-0.6246 -0.8554,-0.832 -0.218,-0.3403 -0.4994,-0.6175 -0.8476,-0.8242 -0.2172,-0.3391 -0.5012,-0.6137 -0.8478,-0.8203 -0.2184,-0.3418 -0.5018,-0.6209 -0.8514,-0.8281 -0.2164,-0.3348 -0.4932,-0.6078 -0.836,-0.8125 -0.2156,-0.3353 -0.4936,-0.6071 -0.836,-0.8125 -0.2156,-0.3353 -0.4938,-0.6071 -0.8358,-0.8125 -0.2146,-0.332 -0.4928,-0.6004 -0.8322,-0.8047 -0.2148,-0.3323 -0.4882,-0.6044 -0.828,-0.8086 -0.2132,-0.3276 -0.4852,-0.5943 -0.8204,-0.7969 -0.2136,-0.3289 -0.4878,-0.5976 -0.8242,-0.8007 -0.2114,-0.3235 -0.4818,-0.5878 -0.8124,-0.7891 -0.2122,-0.326 -0.4834,-0.5906 -0.8164,-0.793 -0.2118,-0.3234 -0.4816,-0.5879 -0.8126,-0.789 -0.2108,-0.3205 -0.4764,-0.5852 -0.8046,-0.7852 -0.2096,-0.3178 -0.4756,-0.5782 -0.8008,-0.7773 -0.2098,-0.3184 -0.475,-0.5779 -0.8008,-0.7774 -0.2088,-0.3157 -0.4738,-0.571 -0.797,-0.7695 -0.2084,-0.3155 -0.4702,-0.575 -0.7928,-0.7734 -0.207,-0.3116 -0.4666,-0.5685 -0.7852,-0.7656 -0.2066,-0.3113 -0.467,-0.5646 -0.7852,-0.7617 -0.2062,-0.3104 -0.4642,-0.5649 -0.7812,-0.7618 -0.2056,-0.3086 -0.466,-0.5577 -0.7814,-0.7539 -0.2046,-0.3069 -0.4598,-0.5583 -0.7734,-0.7539 -0.2042,-0.3053 -0.4612,-0.5551 -0.7734,-0.75 -0.2038,-0.3043 -0.4584,-0.5515 -0.7696,-0.7461 -0.202,-0.3006 -0.4544,-0.5489 -0.7616,-0.7421 -0.2022,-0.3008 -0.4546,-0.545 -0.7618,-0.7383 -0.2014,-0.2995 -0.4522,-0.5453 -0.7578,-0.7383 -0.2004,-0.2973 -0.4504,-0.5383 -0.7538,-0.7305 -0.2008,-0.2972 -0.4504,-0.5384 -0.754,-0.7304 -0.2,-0.2947 -0.4448,-0.5396 -0.746,-0.7305 -0.198,-0.2918 -0.4438,-0.5329 -0.7422,-0.7226 -0.198,-0.2891 -0.4432,-0.522 -0.7384,-0.711 -0.198,-0.2929 -0.4432,-0.5321 -0.7422,-0.7226 -0.198,-0.2885 -0.439,-0.5265 -0.7342,-0.7149 -0.196,-0.284 -0.4326,-0.5202 -0.7228,-0.707 -0.196,-0.2857 -0.4384,-0.5196 -0.7304,-0.707 -0.194,-0.2828 -0.4338,-0.5129 -0.7226,-0.6992 -0.194,-0.2801 -0.4294,-0.5098 -0.715,-0.6953 -0.194,-0.2835 -0.4334,-0.5164 -0.7226,-0.7032 -0.192,-0.2777 -0.4268,-0.5072 -0.711,-0.6914 -0.19,-0.2751 -0.4224,-0.5001 -0.703,-0.6835 -0.192,-0.2786 -0.4266,-0.5067 -0.711,-0.6914 -0.19,-0.274 -0.423,-0.497 -0.7032,-0.6797 -0.19,-0.2732 -0.42,-0.4973 -0.6992,-0.6797 -0.188,-0.2694 -0.4164,-0.491 -0.6914,-0.6719 -0.188,-0.2708 -0.4152,-0.4941 -0.6914,-0.6758 -0.188,-0.2682 -0.4172,-0.4876 -0.6914,-0.6679 -0.186,-0.2654 -0.4088,-0.4848 -0.6796,-0.6641 -0.186,-0.2656 -0.413,-0.4806 -0.6836,-0.6601 -0.186,-0.264 -0.407,-0.4813 -0.6758,-0.6602 -0.186,-0.2637 -0.4106,-0.4777 -0.6796,-0.6562 -0.184,-0.2596 -0.4032,-0.4717 -0.668,-0.6485 -0.184,-0.2591 -0.4002,-0.4755 -0.6642,-0.6523 -0.184,-0.2583 -0.4042,-0.4684 -0.6678,-0.6445 -0.182,-0.2547 -0.3968,-0.4659 -0.6564,-0.6407 -0.182,-0.256 -0.403,-0.4653 -0.664,-0.6406 -0.18,-0.2526 -0.394,-0.4633 -0.6524,-0.6367 -0.178,-0.2491 -0.3902,-0.4568 -0.6444,-0.6289 -0.178,-0.2487 -0.3914,-0.4528 -0.6446,-0.625 -0.18,-0.2522 -0.3948,-0.4594 -0.6524,-0.6328 -0.176,-0.2432 -0.3844,-0.444 -0.6328,-0.6133 -0.178,-0.2464 -0.3856,-0.45 -0.6366,-0.6211 -0.176,-0.2437 -0.3844,-0.4474 -0.6328,-0.6172 -0.176,-0.2415 -0.3828,-0.4406 -0.629,-0.6093 -0.174,-0.2407 -0.3796,-0.4411 -0.625,-0.6094 -0.174,-0.2388 -0.3774,-0.4381 -0.621,-0.6055 -0.172,-0.2363 -0.3766,-0.4313 -0.6172,-0.5976 -0.172,-0.236 -0.3768,-0.4314 -0.6172,-0.5977 -0.17,-0.2338 -0.3716,-0.4245 -0.6094,-0.5898 -0.172,-0.2375 -0.3748,-0.4348 -0.6172,-0.6016 -0.17,-0.2294 -0.367,-0.4193 -0.6016,-0.582 -0.168,-0.229 -0.3642,-0.4192 -0.5976,-0.582 -0.168,-0.2299 -0.3636,-0.4226 -0.5978,-0.586 -0.168,-0.2277 -0.365,-0.416 -0.5976,-0.5781 -0.166,-0.224 -0.3576,-0.4099 -0.5858,-0.5703 -0.166,-0.2254 -0.3604,-0.4131 -0.59,-0.5742 -0.164,-0.2215 -0.3564,-0.4034 -0.582,-0.5625 -0.164,-0.2211 -0.3534,-0.4034 -0.578,-0.5625 -0.164,-0.2226 -0.3556,-0.4066 -0.5822,-0.5664 -0.162,-0.2174 -0.3488,-0.3975 -0.5702,-0.5547 -0.162,-0.2173 -0.349,-0.3975 -0.5704,-0.5547 -0.16,-0.2137 -0.345,-0.3914 -0.5624,-0.5468 -0.162,-0.2171 -0.3494,-0.3978 -0.5704,-0.5547 -0.158,-0.211 -0.3432,-0.3854 -0.5586,-0.5391 -0.158,-0.2099 -0.3372,-0.3856 -0.5508,-0.539 -0.158,-0.2107 -0.3404,-0.3852 -0.5546,-0.5391 -0.158,-0.2089 -0.3382,-0.3823 -0.5508,-0.5352 -0.156,-0.2056 -0.3338,-0.3761 -0.543,-0.5273 -0.156,-0.2054 -0.334,-0.3763 -0.543,-0.5273 -0.154,-0.203 -0.3288,-0.3736 -0.5352,-0.5235 -0.154,-0.2017 -0.3302,-0.3664 -0.535,-0.5156 -0.154,-0.2031 -0.3288,-0.3735 -0.5352,-0.5234 -0.152,-0.1986 -0.3252,-0.3642 -0.5274,-0.5117 -0.152,-0.1988 -0.325,-0.3642 -0.5274,-0.5118 -0.15,-0.1962 -0.3196,-0.3617 -0.5194,-0.5078 -0.15,-0.194 -0.3184,-0.355 -0.5156,-0.5 -0.148,-0.194 -0.3184,-0.355 -0.5156,-0.5 -0.148,-0.1922 -0.3164,-0.352 -0.5118,-0.496 -0.146,-0.1898 -0.311,-0.3495 -0.504,-0.4922 -0.146,-0.1908 -0.3138,-0.349 -0.5078,-0.4922 -0.146,-0.1876 -0.3092,-0.343 -0.5,-0.4844 -0.144,-0.1866 -0.3064,-0.3433 -0.496,-0.4844 -0.142,-0.1816 -0.3004,-0.3342 -0.4844,-0.4726 -0.146,-0.189 -0.3118,-0.346 -0.504,-0.4883 -0.142,-0.18 -0.297,-0.3316 -0.4804,-0.4687 -0.142,-0.1808 -0.3008,-0.3311 -0.4844,-0.4688 -0.14,-0.179 -0.2982,-0.3282 -0.4804,-0.4648 -0.138,-0.1768 -0.2932,-0.3255 -0.4726,-0.461 -0.14,-0.1784 -0.2952,-0.3284 -0.4766,-0.4648 -0.138,-0.1742 -0.2914,-0.3192 -0.4688,-0.4531 -0.136,-0.1734 -0.2886,-0.3198 -0.4648,-0.4532 -0.136,-0.1726 -0.2894,-0.3162 -0.4648,-0.4492 -0.134,-0.169 -0.2816,-0.3105 -0.4532,-0.4414 -0.134,-0.1706 -0.284,-0.3133 -0.457,-0.4453 -0.134,-0.1684 -0.2822,-0.3108 -0.4532,-0.4414 -0.132,-0.1668 -0.2794,-0.3079 -0.4492,-0.4375 -0.13,-0.1636 -0.2752,-0.3019 -0.4414,-0.4297 -0.132,-0.1648 -0.278,-0.3013 -0.4452,-0.4297 -0.128,-0.16 -0.2674,-0.2962 -0.4298,-0.4218 -0.13,-0.1636 -0.2754,-0.302 -0.4414,-0.4297 -0.126,-0.1566 -0.2666,-0.2867 -0.4258,-0.4102 -0.128,-0.1594 -0.2682,-0.2927 -0.4296,-0.4179 -0.126,-0.1568 -0.263,-0.2904 -0.422,-0.4141 -0.126,-0.1566 -0.2666,-0.2867 -0.4258,-0.4102 -0.124,-0.1528 -0.2588,-0.2812 -0.414,-0.4023 -0.124,-0.1526 -0.2592,-0.2813 -0.414,-0.4023 -0.122,-0.1512 -0.257,-0.2783 -0.4102,-0.3985 -0.122,-0.1488 -0.2514,-0.2758 -0.4024,-0.3945 -0.12,-0.1488 -0.2556,-0.2719 -0.4062,-0.3906 -0.12,-0.148 -0.2522,-0.2724 -0.4024,-0.3906 -0.118,-0.1434 -0.2416,-0.2675 -0.3866,-0.3829 -0.118,-0.145 -0.2478,-0.2664 -0.3946,-0.3828 -0.118,-0.1448 -0.2476,-0.2667 -0.3946,-0.3828 -0.116,-0.1412 -0.243,-0.2613 -0.3866,-0.375 -0.114,-0.1386 -0.2384,-0.255 -0.379,-0.3672 -0.116,-0.1406 -0.24,-0.2615 -0.3828,-0.375 -0.112,-0.1344 -0.2346,-0.246 -0.371,-0.3554 -0.112,-0.1364 -0.233,-0.2525 -0.3712,-0.3633 -0.112,-0.1356 -0.2336,-0.2492 -0.371,-0.3594 -0.11,-0.1314 -0.2264,-0.244 -0.3594,-0.3515 -0.11,-0.133 -0.2288,-0.2469 -0.3632,-0.3555 -0.108,-0.1306 -0.227,-0.2407 -0.3594,-0.3477 -0.108,-0.1284 -0.2216,-0.2381 -0.3516,-0.3437 -0.106,-0.128 -0.2222,-0.2385 -0.3516,-0.3438 -0.106,-0.1272 -0.2224,-0.2353 -0.3516,-0.3398 -0.102,-0.1212 -0.2132,-0.2236 -0.3358,-0.3242 -0.106,-0.1262 -0.2164,-0.2358 -0.3438,-0.3398 -0.104,-0.1228 -0.2154,-0.2265 -0.3398,-0.3282 -0.1,-0.1184 -0.2082,-0.2176 -0.3282,-0.3164 -0.102,-0.1212 -0.2096,-0.2274 -0.332,-0.3281 -0.1,-0.1164 -0.2064,-0.2152 -0.3242,-0.3125 -0.1,-0.119 -0.2076,-0.2212 -0.3282,-0.3203 -0.098,-0.1152 -0.2036,-0.2122 -0.3202,-0.3086 -0.096,-0.113 -0.198,-0.2098 -0.3126,-0.3047 -0.096,-0.1128 -0.198,-0.2098 -0.3124,-0.3047 -0.096,-0.1116 -0.196,-0.2068 -0.3086,-0.3008 -0.094,-0.1098 -0.194,-0.2041 -0.3048,-0.2968 -0.094,-0.1108 -0.196,-0.2035 -0.3086,-0.2969 -0.092,-0.1068 -0.188,-0.1984 -0.2968,-0.2891 -0.092,-0.106 -0.186,-0.199 -0.293,-0.289 -0.09,-0.1044 -0.188,-0.1924 -0.293,-0.2813 -0.09,-0.1044 -0.184,-0.1964 -0.289,-0.2851 -0.088,-0.1 -0.18,-0.1838 -0.2812,-0.2696 -0.088,-0.1016 -0.178,-0.1904 -0.2814,-0.2773 -0.088,-0.1008 -0.18,-0.1872 -0.2812,-0.2734 -0.086,-0.098 -0.174,-0.1816 -0.2734,-0.2657 -0.082,-0.095 -0.17,-0.176 -0.2656,-0.2578 -0.086,-0.099 -0.178,-0.1846 -0.2774,-0.2695 -0.08,-0.092 -0.164,-0.1704 -0.2578,-0.25 -0.082,-0.093 -0.168,-0.173 -0.2618,-0.2539 -0.08,-0.092 -0.164,-0.1704 -0.2578,-0.25 -0.078,-0.089 -0.156,-0.1686 -0.246,-0.2461 -0.082,-0.092 -0.168,-0.17 -0.2618,-0.25 -0.076,-0.086 -0.156,-0.1594 -0.2422,-0.2344 -0.074,-0.084 -0.15,-0.157 -0.2344,-0.2304 -0.076,-0.086 -0.156,-0.1592 -0.242,-0.2344 -0.078,-0.088 -0.158,-0.1656 -0.2462,-0.2422 -0.07,-0.079 -0.144,-0.1454 -0.2226,-0.2148 -0.074,-0.083 -0.15,-0.1536 -0.2344,-0.2266 -0.07,-0.078 -0.14,-0.1494 -0.2188,-0.2187 -0.072,-0.08 -0.146,-0.1482 -0.2266,-0.2188 -0.07,-0.078 -0.144,-0.1456 -0.2226,-0.2148 -0.068,-0.075 -0.136,-0.1406 -0.211,-0.2071 -0.068,-0.075 -0.138,-0.14 -0.2148,-0.207 -0.064,-0.072 -0.13,-0.135 -0.203,-0.1992 -0.066,-0.073 -0.134,-0.1378 -0.2072,-0.2031 -0.064,-0.071 -0.132,-0.1318 -0.203,-0.1954 -0.06,-0.067 -0.12,-0.1274 -0.188,-0.1874 -0.064,-0.072 -0.132,-0.1352 -0.203,-0.1992 -0.062,-0.067 -0.128,-0.123 -0.196,-0.1836 -0.058,-0.064 -0.116,-0.122 -0.18,-0.1796 -0.06,-0.065 -0.122,-0.1208 -0.188,-0.1796 -0.058,-0.062 -0.116,-0.1152 -0.18,-0.1718 -0.058,-0.063 -0.116,-0.1186 -0.18,-0.1758 -0.052,-0.057 -0.106,-0.1076 -0.164,-0.1602 -0.058,-0.063 -0.116,-0.1184 -0.18,-0.1758 -0.052,-0.057 -0.104,-0.1084 -0.16,-0.1602 -0.054,-0.058 -0.11,-0.1072 -0.168,-0.1602 -0.048,-0.053 -0.1,-0.1 -0.152,-0.1484 -0.054,-0.058 -0.106,-0.1112 -0.164,-0.164 -0.046,-0.049 -0.094,-0.091 -0.144,-0.1368 -0.052,-0.057 -0.106,-0.1078 -0.164,-0.1602 -0.042,-0.046 -0.086,-0.086 -0.132,-0.129 -0.046,-0.05 -0.094,-0.094 -0.144,-0.1406 -0.044,-0.048 -0.088,-0.092 -0.136,-0.1368 -0.044,-0.047 -0.09,-0.089 -0.136,-0.1328 -0.042,-0.046 -0.086,-0.086 -0.132,-0.129 -0.04,-0.042 -0.078,-0.081 -0.122,-0.121 -0.044,-0.047 -0.09,-0.086 -0.136,-0.129 -0.038,-0.04 -0.076,-0.075 -0.118,-0.1132 -0.036,-0.039 -0.07,-0.077 -0.11,-0.1132 -0.038,-0.04 -0.076,-0.075 -0.118,-0.1132 -0.038,-0.041 -0.08,-0.075 -0.122,-0.1132 -0.032,-0.034 -0.064,-0.066 -0.098,-0.098 -0.036,-0.038 -0.072,-0.07 -0.11,-0.1054 -0.032,-0.035 -0.066,-0.065 -0.102,-0.098 -0.03,-0.032 -0.058,-0.063 -0.09,-0.094 -0.032,-0.033 -0.064,-0.062 -0.098,-0.094 -0.03,-0.032 -0.062,-0.06 -0.094,-0.09 -0.026,-0.027 -0.05,-0.052 -0.078,-0.078 -0.03,-0.031 -0.06,-0.057 -0.09,-0.086 -0.026,-0.026 -0.048,-0.049 -0.074,-0.074 -0.026,-0.028 -0.054,-0.051 -0.082,-0.078 -0.024,-0.024 -0.046,-0.047 -0.07,-0.07 -0.022,-0.023 -0.044,-0.044 -0.066,-0.066 -0.024,-0.024 -0.046,-0.047 -0.07,-0.07 -0.02,-0.02 -0.038,-0.036 -0.058,-0.055 -0.02,-0.02 -0.036,-0.04 -0.054,-0.059 -0.02,-0.021 -0.042,-0.039 -0.062,-0.059 -0.02,-0.018 -0.036,-0.033 -0.054,-0.051 -0.02,-0.014 -0.028,-0.029 -0.042,-0.043 -0.02,-0.016 -0.032,-0.028 -0.046,-0.043 -0.02,-0.014 -0.022,-0.03 -0.036,-0.043 -0.02,-0.012 -0.026,-0.023 -0.04,-0.035 -0.02,-0.014 -0.028,-0.025 -0.042,-0.039 0,-0.01 -0.02,-0.018 -0.024,-0.027 0,-0.01 -0.02,-0.018 -0.028,-0.027 0,-0.01 -0.02,-0.016 -0.024,-0.023 0,-0.01 -0.02,-0.014 -0.028,-0.023 0,0 0,-0.012 -0.02,-0.016 0,0 0,-0.01 -0.02,-0.01 v 0 c 0,0 0,-0.01 0,-0.01 0,0 0,-0.01 -0.02,-0.012 -0.034,-0.033 -0.082,-0.047 -0.118,-0.078 -0.3344,-0.2993 -0.734,-0.5304 -1.1914,-0.625 -0.172,-0.036 -0.3482,-0.059 -0.5312,-0.059 H 7357.3143 c -0.074,-0.01 -0.146,-0.023 -0.2228,-0.023 h -72.914 z"
         id="path38873"
         inkscape:export-xdpi="96"
         inkscape:export-ydpi="96"
         inkscape:connector-curvature="0" />
      <path
         inkscape:connector-curvature="0"
         id="rect1095"
         d="m 7169.8213,2242.2188 h 1320.4118 c 1.44,0 2.5992,1.1593 2.5992,2.5994 v 245.1927 c 0,1.4402 -1.1592,2.5994 -2.5992,2.5994 H 7169.8213 c -1.44,0 -2.5994,-1.1592 -2.5994,-2.5994 v -245.1927 c 0,-1.4401 1.1594,-2.5994 2.5994,-2.5994 z"
         style="fill:#ea971d;fill-opacity:1;stroke:none;stroke-width:24.9999;stroke-linecap:round;stroke-linejoin:bevel;stroke-miterlimit:4;stroke-dasharray:none;stroke-dashoffset:0;stroke-opacity:1;paint-order:fill markers stroke"
         inkscape:export-xdpi="96"
         inkscape:export-ydpi="96" />
      <path
         inkscape:connector-curvature="0"
         id="rect1097"
         d="m 7284.5447,2242.1982 h 80.3812 c 1.5874,0 2.8656,1.1594 2.8656,2.5995 v 245.0568 c 0,1.4402 -1.2784,2.5994 -2.8656,2.5994 h -80.3812 c -1.5874,0 -2.8656,-1.1592 -2.8656,-2.5994 v -245.0568 c 0,-1.4401 1.2782,-2.5995 2.8656,-2.5995 z"
         style="fill:#f8ec9d;fill-opacity:1;stroke:none;stroke-width:24.9999;stroke-linecap:round;stroke-linejoin:bevel;stroke-miterlimit:4;stroke-dasharray:none;stroke-dashoffset:0;stroke-opacity:1;paint-order:fill markers stroke"
         inkscape:export-xdpi="96"
         inkscape:export-ydpi="96" />
      <path
         style="fill:#5d9346;fill-opacity:1;stroke:none;stroke-width:0.999997px;stroke-linecap:butt;stroke-linejoin:miter;stroke-opacity:1"
         d="m 7158.0477,2488.6825 h 1121.1346 c 0,0 221.141,7.7272 221.141,166.132 0,158.4052 -221.141,150.6781 -221.141,150.6781 H 7163.1905 v -54.0895 c 0,0 38.1592,-16.9329 38.1592,-106.9866 0,-90.0537 -43.302,-101.6445 -43.302,-101.6445 z"
         id="path1104"
         inkscape:connector-curvature="0"
         inkscape:export-xdpi="96"
         inkscape:export-ydpi="96" />
      <path
         style="fill:#f9ec9d;fill-opacity:1;stroke:none;stroke-width:0.999997px;stroke-linecap:butt;stroke-linejoin:miter;stroke-opacity:1"
         d="m 7156.9645,2534.7372 v 17.5776 c 0,0 43.907,10.5301 43.907,92.3453 0,81.8152 -38.6928,97.2003 -38.6928,97.2003 v 17.5339 h 1037.3422 c 0,0 252.2254,5.4789 252.2254,-106.8496 0,-112.3285 -252.2254,-117.8075 -252.2254,-117.8075 z"
         id="path1104-7"
         inkscape:connector-curvature="0"
         inkscape:export-xdpi="96"
         inkscape:export-ydpi="96" />
      <path
         inkscape:connector-curvature="0"
         id="rect1095-5"
         d="m 7166.2267,2804.7338 h 1320.4118 c 1.44,0 2.5992,1.1594 2.5992,2.5996 v 307.4125 c 0,1.4402 -1.1594,2.5996 -2.5992,2.5996 H 7166.2267 c -1.4402,0 -2.5996,-1.1594 -2.5996,-2.5996 v -307.4125 c 0,-1.4402 1.1594,-2.5996 2.5996,-2.5996 z"
         style="fill:#e47653;fill-opacity:1;stroke:none;stroke-width:24.9999;stroke-linecap:round;stroke-linejoin:bevel;stroke-miterlimit:4;stroke-dasharray:none;stroke-dashoffset:0;stroke-opacity:1;paint-order:fill markers stroke"
         inkscape:export-xdpi="96"
         inkscape:export-ydpi="96" />
      <path
         inkscape:connector-curvature="0"
         id="rect1097-3"
         d="m 7281.2455,2804.7082 h 88.6782 c 1.7514,0 3.1612,1.1594 3.1612,2.5996 v 307.2429 c 0,1.44 -1.41,2.5994 -3.1612,2.5994 h -88.6782 c -1.7516,0 -3.1616,-1.1594 -3.1616,-2.5994 v -307.2429 c 0,-1.4402 1.41,-2.5996 3.1616,-2.5996 z"
         style="fill:#f5c478;fill-opacity:1;stroke:none;stroke-width:24.9999;stroke-linecap:round;stroke-linejoin:bevel;stroke-miterlimit:4;stroke-dasharray:none;stroke-dashoffset:0;stroke-opacity:1;paint-order:fill markers stroke"
         inkscape:export-xdpi="96"
         inkscape:export-ydpi="96" />
      <path
         inkscape:connector-curvature="0"
         id="rect1097-3-5"
         d="m 7422.4973,2803.9774 h 88.6782 c 1.7516,0 3.1614,1.1592 3.1614,2.5994 v 307.2429 c 0,1.4402 -1.4098,2.5994 -3.1614,2.5994 h -88.6782 c -1.7516,0 -3.1614,-1.1592 -3.1614,-2.5994 v -307.2429 c 0,-1.4402 1.4098,-2.5994 3.1614,-2.5994 z"
         style="fill:#efa53a;fill-opacity:1;stroke:none;stroke-width:24.9999;stroke-linecap:round;stroke-linejoin:bevel;stroke-miterlimit:4;stroke-dasharray:none;stroke-dashoffset:0;stroke-opacity:1;paint-order:fill markers stroke"
         inkscape:export-xdpi="96"
         inkscape:export-ydpi="96" />
      <path
         style="fill:#4f68b3;fill-opacity:1;stroke:none;stroke-width:0.999997px;stroke-linecap:butt;stroke-linejoin:miter;stroke-opacity:1"
         d="M 8488.0791,3117.9409 H 7366.9445 c 0,0 -221.141,8.7026 -221.141,187.1035 0,178.4011 221.141,169.6986 221.141,169.6986 h 1115.9918 v -60.9172 c 0,0 -38.1592,-19.0705 -38.1592,-120.4919 0,-101.4218 43.302,-114.4755 43.302,-114.4755 z"
         id="path1104-6"
         inkscape:connector-curvature="0"
         inkscape:export-xdpi="96"
         inkscape:export-ydpi="96" />
      <path
         style="fill:#f9ec9d;fill-opacity:1;stroke:none;stroke-width:0.999997px;stroke-linecap:butt;stroke-linejoin:miter;stroke-opacity:1"
         d="m 8488.8603,3161.0673 v 21.1642 c 0,0 -43.897,12.6788 -43.897,111.1878 0,98.509 38.6842,117.0331 38.6842,117.0331 v 21.1117 H 7446.5397 c 0,0 -252.1682,6.5969 -252.1682,-128.6515 0,-135.2482 252.1682,-141.8453 252.1682,-141.8453 z"
         id="path1104-7-2"
         inkscape:connector-curvature="0"
         inkscape:export-xdpi="96"
         inkscape:export-ydpi="96" />
      <path
         style="fill:#e9971f;fill-opacity:1;stroke:none;stroke-width:24.9999;stroke-linecap:round;stroke-linejoin:bevel;stroke-miterlimit:4;stroke-dasharray:none;stroke-dashoffset:0;stroke-opacity:1;paint-order:fill markers stroke"
         d="m 7369.6121,3233.7686 c -0.8728,0 -1.5744,0.7018 -1.5744,1.5744 v 262.4437 l 79.2022,-58.5081 c 0.17,-0.126 0.3546,-0.198 0.542,-0.2346 0.132,-0.03 0.2696,-0.024 0.4072,-0.022 0.03,0 0.06,0 0.088,0 0.192,0.036 0.3834,0.108 0.5586,0.2366 l 79.202,58.5081 v -262.4411 c 0,-0.8728 -0.7018,-1.5744 -1.5742,-1.5744 z m 78.428,279.4346 -2.4032,1.7756 h 4.8062 z"
         id="rect1176"
         inkscape:connector-curvature="0"
         inkscape:export-xdpi="96"
         inkscape:export-ydpi="96" />
    </g>
  </g>
</svg>
