<?xml version="1.0" encoding="UTF-8" standalone="no"?>
<!-- Created with Inkscape (http://www.inkscape.org/) -->

<svg
   width="67.73333mm"
   height="67.73333mm"
   viewBox="0 0 67.73333 67.73333"
   version="1.1"
   id="svg1"
   xml:space="preserve"
   inkscape:export-filename="bitmap.png"
   inkscape:export-xdpi="1536.0001"
   inkscape:export-ydpi="1536.0001"
   inkscape:version="1.3.2 (091e20e, 2023-11-25, custom)"
   sodipodi:docname="lm_architettura_pianificazione_scalable.svg"
   xmlns:inkscape="http://www.inkscape.org/namespaces/inkscape"
   xmlns:sodipodi="http://sodipodi.sourceforge.net/DTD/sodipodi-0.dtd"
   xmlns="http://www.w3.org/2000/svg"
   xmlns:svg="http://www.w3.org/2000/svg"><sodipodi:namedview
     id="namedview1"
     pagecolor="#ffffff"
     bordercolor="#000000"
     borderopacity="0.25"
     inkscape:showpageshadow="2"
     inkscape:pageopacity="0.0"
     inkscape:pagecheckerboard="0"
     inkscape:deskcolor="#d1d1d1"
     inkscape:document-units="mm"
     inkscape:zoom="2.9763752"
     inkscape:cx="137.07949"
     inkscape:cy="117.42471"
     inkscape:window-width="1920"
     inkscape:window-height="991"
     inkscape:window-x="-9"
     inkscape:window-y="-9"
     inkscape:window-maximized="1"
     inkscape:current-layer="layer1" /><defs
     id="defs1">
	

		
	
			
			
		</defs><g
     inkscape:label="Livello 1"
     inkscape:groupmode="layer"
     id="layer1"
     transform="translate(-61.158302,-32.108109)"><path
       id="rect1"
       style="fill:#49dcbc;stroke-width:0.486779"
       d="M 61.158302,32.108109 H 128.89163 V 99.841438 H 61.158302 Z" /><path
       id="path39"
       style="font-size:3.68856px;font-family:PRIMETIME;-inkscape-font-specification:PRIMETIME;fill:#000000;stroke-width:0.873896;fill-opacity:0.12156863"
       d="M 89.873862 43.793701 C 89.768123 43.793701 89.665856 43.803974 89.566904 43.82419 C 89.467941 43.844402 89.3723 43.87459 89.2801 43.91514 C 89.098131 43.99383 88.938248 44.10312 88.800542 44.243286 C 88.665297 44.380989 88.558321 44.542549 88.479632 44.726977 C 88.470343 44.748446 88.467147 44.771835 88.458961 44.79364 L 87.849179 44.184374 L 87.826958 44.162154 C 87.770398 44.108054 87.708864 44.0603 87.642474 44.018493 C 87.576084 43.974233 87.50708 43.939733 87.435768 43.91514 C 87.364458 43.88809 87.294298 43.874833 87.225445 43.874833 L 85.790907 43.874833 L 85.790907 45.287666 L 84.378073 43.874833 L 83.703179 43.874833 L 82.98591 45.813732 L 81.04701 43.874833 L 80.342661 43.874833 C 80.320531 43.874833 80.30096 43.885776 80.28375 43.907906 L 79.772153 44.755916 L 78.913807 43.89757 C 78.898407 43.88227 78.880464 43.874833 78.860064 43.874833 L 78.158815 43.874833 L 78.158815 45.778076 L 76.255572 43.874833 L 75.462855 43.874833 L 75.462855 46.73719 L 81.236146 52.510481 C 81.234831 52.540486 81.231495 52.570084 81.231495 52.600398 L 81.231495 53.629276 L 81.231495 55.687032 L 81.231495 75.235192 L 81.231495 76.778767 C 81.231495 76.830187 81.231235 76.881593 81.282655 76.98444 L 82.82623 81.099951 C 82.841644 81.146213 82.874047 81.190654 82.913046 81.232759 C 82.917679 81.237794 82.91848 81.243866 82.923382 81.248779 L 88.04865 86.374047 L 88.02798 86.374047 L 88.02798 86.824149 L 87.577878 86.374047 L 86.810483 86.374047 L 86.810483 87.369852 L 85.814678 86.374047 L 85.055035 86.374047 L 85.055035 87.661824 L 83.767258 86.374047 L 83.092364 86.374047 L 82.758017 87.278902 L 81.853163 86.374047 L 81.08215 86.374047 L 81.08215 87.262365 L 80.509576 86.68979 C 80.492176 86.67239 80.474315 86.655764 80.455315 86.639664 C 80.359415 86.556054 80.247285 86.491047 80.119419 86.444327 C 79.994007 86.397607 79.862313 86.374047 79.724611 86.374047 L 78.437351 86.374047 L 78.437351 89.236405 L 89.042388 99.841442 L 128.89164 99.841442 L 128.89164 59.237719 L 113.52875 43.874833 L 112.85385 43.874833 L 112.30247 45.365698 L 111.11804 44.181274 C 111.11315 44.176052 111.10719 44.170938 111.10151 44.165771 L 111.10047 44.164737 C 111.09965 44.163991 111.09923 44.162897 111.09841 44.162154 L 111.09789 44.162154 C 111.04189 44.108054 110.97992 44.060293 110.91392 44.018493 C 110.84752 43.974233 110.77853 43.939733 110.70722 43.91514 C 110.63592 43.88809 110.56575 43.874833 110.49689 43.874833 L 109.06235 43.874833 L 109.06184 43.874833 L 109.06184 44.273775 L 108.66341 43.874833 L 108.6629 43.874833 L 107.86656 43.874833 L 107.86656 44.675301 L 107.06609 43.874833 L 106.26976 43.874833 L 106.26976 44.09239 L 106.0522 43.874833 L 103.59912 43.874833 L 103.59912 44.154919 L 103.31904 43.874833 L 103.31852 43.874833 L 100.86596 43.874833 L 100.86596 44.174039 L 100.56727 43.874833 L 100.56675 43.874833 L 98.283684 43.874833 L 98.283684 44.173522 L 97.984995 43.874833 L 95.531914 43.874833 L 95.531914 44.28411 L 95.122637 43.874833 L 94.351625 43.874833 L 94.351625 44.35439 L 93.872067 43.874833 L 93.072116 43.874833 L 93.072116 44.889241 L 92.057708 43.874833 L 91.264475 43.874833 L 91.264475 44.549727 L 90.917726 44.202978 C 90.767725 44.07019 90.604367 43.969524 90.427316 43.900671 C 90.250267 43.829361 90.065666 43.793701 89.873862 43.793701 z " /><path
       d="m 112.09736,62.940467 c 0,-0.154329 -0.0514,-0.257236 -0.15433,-0.360082 l -3.65249,-3.652492 c -0.091,-0.09097 -0.18212,-0.14155 -0.30866,-0.1521 v -4.089559 c 0.005,-0.05902 -0.002,-0.116712 -0.0189,-0.171872 -0.0198,-0.06933 -0.0554,-0.128528 -0.10689,-0.18592 -0.009,-0.01037 -0.0186,-0.0205 -0.0285,-0.03044 l -3.60101,-3.601008 c -0.01,-0.0099 -0.0201,-0.01941 -0.0305,-0.02851 -0.0574,-0.05148 -0.11659,-0.08711 -0.18586,-0.106886 -0.0552,-0.01742 -0.11286,-0.02417 -0.17188,-0.01893 H 87.919065 c -0.30866,0 -0.514413,0.205753 -0.514413,0.514412 v 29.837076 c 0,0.30866 0.205753,0.514413 0.514413,0.514413 h 5.658779 13.889686 c 0.30866,0 0.51441,-0.205753 0.51441,-0.514413 v -13.64378 l 3.96115,-3.949818 c 0.10285,-0.102846 0.15427,-0.205753 0.15427,-0.360083 z m -19.033988,6.636182 v -7.202078 h 8.230898 v 2.82936 l -1.87878,1.90115 -0.693339,0.695449 v -0.796064 c 0,-0.30866 -0.205753,-0.514413 -0.514412,-0.514413 h -2.572184 c -0.30866,0 -0.514413,0.205753 -0.514413,0.514413 v 2.572183 z m 0,-10.803086 v -2.057711 h 1.028885 v 1.131732 z m 8.745378,2.572183 h -9.259791 -0.30866 l 4.938554,-4.938554 4.938557,4.938554 z m -5.658782,6.173192 h 1.543298 V 68.805 l -0.401318,0.430014 -0.340671,0.341635 H 96.149968 Z M 106.23283,54.143669 h -1.85196 V 52.291711 Z M 88.433477,51.571485 h 14.918573 v 3.086596 c 0,0.30866 0.20575,0.514413 0.51441,0.514413 h 3.08659 v 4.372657 l -4.62989,4.64364 v -1.81428 h 1.02889 c 0.20575,0 0.41156,-0.102907 0.46298,-0.308659 0.10291,-0.205753 0.0514,-0.411567 -0.1029,-0.565897 l -6.173194,-6.173192 c -0.205753,-0.205753 -0.514413,-0.205753 -0.720226,0 l -1.697628,1.697628 v -0.823012 c 0,-0.308659 -0.205753,-0.514412 -0.514412,-0.514412 h -2.057711 c -0.30866,0 -0.514413,0.205753 -0.514413,0.514412 v 3.601009 c 0,0.09513 0.01965,0.180373 0.05576,0.252896 l -1.444732,1.444732 c -0.15433,0.15433 -0.205753,0.360083 -0.102906,0.565896 0.05142,0.205753 0.257236,0.308659 0.462989,0.308659 h 1.028885 v 7.716491 c 0,0.308659 0.205753,0.514412 0.514413,0.514412 h 3.086596 0.289911 l -2.769557,2.777756 c -0.0513,0.0252 -0.100073,0.05914 -0.144021,0.103027 -0.04431,0.04431 -0.07849,0.09362 -0.103751,0.145408 l -1.542574,1.547156 c -0.05504,0.0255 -0.107368,0.06113 -0.154209,0.107971 -0.04726,0.04726 -0.08313,0.100073 -0.108694,0.155716 l -1.486028,1.490488 c -0.205753,0.205753 -0.205753,0.514413 0,0.720226 l 2.726514,2.726513 H 88.433477 Z M 106.95305,68.290587 V 80.379735 H 94.814955 l 1.810602,-1.805417 z m -13.375266,11.883395 -2.880843,-2.880843 0.898911,-0.901623 1.055953,1.055953 c 0.102907,0.102907 0.205753,0.15433 0.360083,0.15433 0.15433,0 0.257237,0 0.360083,-0.15433 0.205753,-0.205753 0.205753,-0.514412 0,-0.720226 l -1.056978,-1.056978 1.083202,-1.086397 1.825794,1.783292 c 0.102906,0.102907 0.205753,0.15433 0.360083,0.15433 0.102906,0 0.257236,-0.05142 0.308659,-0.15433 0.205753,-0.205753 0.205753,-0.514412 0,-0.720225 l -1.779917,-1.779917 1.104363,-1.107678 1.08706,1.08706 c 0.102907,0.102907 0.205753,0.15433 0.360083,0.15433 0.15433,0 0.257236,-0.05142 0.360083,-0.15433 0.205753,-0.205753 0.205753,-0.514412 0,-0.720226 l -1.088146,-1.088145 1.104362,-1.107678 1.835681,1.83568 c 0.102907,0.102907 0.205753,0.15433 0.360083,0.15433 0.102907,0 0.257236,-0.05142 0.30866,-0.205753 0.205752,-0.205753 0.205752,-0.514413 0,-0.720226 l -1.774793,-1.774793 1.10605,-1.10605 1.080309,1.080309 c 0.102911,0.102906 0.205751,0.15433 0.360081,0.15433 0.10291,0 0.25724,-0.05142 0.36008,-0.15433 0.20576,-0.205753 0.20576,-0.514413 0,-0.720226 l -1.080304,-1.080309 1.080304,-1.080308 1.80054,1.800534 c 0.10291,0.102907 0.20575,0.15433 0.36008,0.15433 0.15433,0 0.25724,-0.05142 0.36008,-0.15433 0.20576,-0.205753 0.20576,-0.514413 0,-0.720226 l -1.80053,-1.800534 0.77165,-0.771649 c 0.0449,-0.04491 0.0794,-0.09013 0.10471,-0.139319 l 0.23777,-0.238428 1.09797,1.097973 c 0.10291,0.102906 0.20575,0.154329 0.36008,0.154329 0.10291,0 0.25724,-0.05142 0.36009,-0.154329 0.20575,-0.205753 0.20575,-0.514413 0,-0.720226 l -1.099,-1.098997 1.07868,-1.081937 1.82085,1.820851 c 0.10291,0.102907 0.20575,0.15433 0.36008,0.15433 0.15433,0 0.25724,-0.05142 0.36009,-0.15433 0.20575,-0.205753 0.20575,-0.514413 0,-0.720226 l -1.82188,-1.821875 1.07868,-1.081937 1.10334,1.103338 c 0.10291,0.102907 0.20575,0.15433 0.36008,0.15433 0.15433,0 0.25724,-0.05142 0.36008,-0.15433 0.20576,-0.205753 0.20576,-0.514413 0,-0.720226 l -1.10436,-1.104362 1.10436,-1.107678 2.93227,2.932266 z"
       id="path1"
       style="fill:#156856;fill-opacity:1;stroke-width:0.0602851" /><path
       d="m 83.289171,50.54266 c -1.131732,0 -2.057711,0.925979 -2.057711,2.057711 v 1.028885 2.057711 19.548462 1.543298 c 0,0.05142 0,0.102906 0.05142,0.205753 l 1.543298,4.115481 c 0.05142,0.15433 0.257237,0.30866 0.46299,0.30866 0.205753,0 0.411566,-0.15433 0.462989,-0.30866 l 1.543298,-4.115481 c 0.05142,-0.102907 0.05142,-0.15433 0.05142,-0.205753 V 75.235429 55.686967 53.629256 52.600371 c 0,-1.131732 -0.925979,-2.057711 -2.05771,-2.057711 z m -1.028886,5.658719 h 2.057711 v 18.519577 h -2.057711 z m 0,-2.05771 h 2.057711 v 1.028885 h -2.057711 z m 1.028886,-2.572184 c 0.565896,0 1.028885,0.462989 1.028885,1.028886 v 0.514412 h -2.057771 v -0.514412 c 0,-0.565897 0.46299,-1.028886 1.028886,-1.028886 z M 84.317996,76.67582 83.28911,79.402333 82.260225,76.67582 v -0.925979 h 2.057711 v 0.925979 z"
       id="path2"
       style="fill:#156856;fill-opacity:1;stroke-width:0.0602851" /><path
       id="path18"
       style="font-size:3.68856px;font-family:PRIMETIME;-inkscape-font-specification:PRIMETIME;fill:#156856;stroke-width:0.873896"
       d="M 89.873862 43.793701 C 89.662384 43.793701 89.464528 43.833992 89.2801 43.91514 C 89.098131 43.99383 88.938248 44.10312 88.800542 44.243286 C 88.665295 44.380991 88.558321 44.542549 88.479632 44.726977 C 88.400942 44.908946 88.361809 45.102811 88.361809 45.30937 C 88.361809 45.51593 88.400942 45.71147 88.479632 45.895898 C 88.558321 46.077866 88.665295 46.238907 88.800542 46.379073 C 88.938248 46.516779 89.098131 46.626587 89.2801 46.707735 C 89.464528 46.786424 89.662384 46.825557 89.873862 46.825557 C 90.109929 46.825557 90.331345 46.774966 90.537904 46.674145 C 90.746923 46.570866 90.927529 46.425917 91.07999 46.239029 L 90.471241 45.745003 C 90.395012 45.843363 90.305287 45.919313 90.202007 45.973413 C 90.101187 46.027512 89.991895 46.054545 89.873862 46.054545 C 89.770582 46.054545 89.674549 46.03498 89.586024 45.995633 C 89.499956 45.953829 89.425165 45.899763 89.361232 45.833369 C 89.297298 45.764517 89.246706 45.685733 89.20982 45.597208 C 89.172933 45.506224 89.154526 45.410191 89.154526 45.30937 C 89.154526 45.211009 89.172933 45.11781 89.20982 45.029284 C 89.246707 44.9383 89.297298 44.858359 89.361232 44.789505 C 89.425166 44.720654 89.501116 44.666588 89.589642 44.627241 C 89.678167 44.587895 89.7742 44.56833 89.877479 44.56833 C 90.034858 44.56833 90.184957 44.618405 90.327581 44.719226 L 90.917726 44.202978 C 90.767725 44.07019 90.604367 43.969524 90.427316 43.900671 C 90.250265 43.829359 90.065666 43.793701 89.873862 43.793701 z M 75.462855 43.874833 L 75.462855 46.73719 L 77.760906 46.73719 L 77.760906 46.028706 L 76.255572 46.028706 L 76.255572 43.874833 L 75.462855 43.874833 z M 78.158815 43.874833 L 78.158815 46.73719 L 78.907606 46.73719 L 78.907606 45.265445 L 79.519972 46.27572 C 79.527352 46.29046 79.539966 46.300759 79.557179 46.305692 C 79.574392 46.310625 79.589968 46.312927 79.604721 46.312927 C 79.617015 46.312927 79.63195 46.310625 79.649163 46.305692 C 79.666376 46.300772 79.67848 46.290473 79.685853 46.27572 L 80.298219 45.265445 L 80.298219 46.73719 L 81.04701 46.73719 L 81.04701 43.874833 L 80.342661 43.874833 C 80.320527 43.874833 80.300963 43.885772 80.28375 43.907906 L 79.601104 45.040136 L 78.922592 43.907906 C 78.905386 43.885772 78.884657 43.874833 78.860064 43.874833 L 78.158815 43.874833 z M 83.703179 43.874833 L 82.644329 46.73719 L 83.452032 46.73719 L 83.599826 46.342382 L 84.481426 46.342382 L 84.628704 46.73719 L 85.436407 46.73719 L 84.378073 43.874833 L 83.703179 43.874833 z M 85.790907 43.874833 L 85.790907 46.73719 L 86.580006 46.73719 L 86.576389 45.851973 L 87.059563 45.851973 L 87.557724 46.73719 L 88.417103 46.73719 L 87.745826 45.556901 C 87.863861 45.473293 87.955902 45.369794 88.022295 45.246842 C 88.088689 45.12389 88.122031 44.991039 88.122031 44.848417 C 88.122031 44.76235 88.108253 44.672626 88.081206 44.579182 C 88.056615 44.483281 88.019799 44.399864 87.970619 44.328552 C 87.931276 44.271995 87.883518 44.216254 87.826958 44.162154 C 87.7704 44.108058 87.708866 44.0603 87.642474 44.018493 C 87.57608 43.974233 87.50708 43.939734 87.435768 43.91514 C 87.364456 43.888094 87.294298 43.874833 87.225445 43.874833 L 85.790907 43.874833 z M 91.264475 43.874833 L 91.264475 46.73719 L 92.057708 46.73719 L 92.057708 45.656119 L 93.072116 45.656119 L 93.072116 46.73719 L 93.872067 46.73719 L 93.872067 43.874833 L 93.072116 43.874833 L 93.072116 44.966239 L 92.057708 44.966239 L 92.057708 43.874833 L 91.264475 43.874833 z M 94.351625 43.874833 L 94.351625 46.73719 L 95.122637 46.73719 L 95.122637 43.874833 L 94.351625 43.874833 z M 95.531914 43.874833 L 95.531914 44.531123 L 95.583591 44.5828 L 96.369589 44.5828 L 96.369589 46.73719 L 97.147837 46.73719 L 97.147837 44.5828 L 97.933318 44.5828 L 97.984995 44.531123 L 97.984995 43.874833 L 95.531914 43.874833 z M 98.283684 43.874833 L 98.283684 46.73719 L 100.56727 46.73719 L 100.56727 46.058162 L 99.028859 46.058162 L 99.028859 45.648885 L 100.47838 45.648885 L 100.47838 44.966239 L 99.028859 44.966239 L 99.028859 44.556962 L 100.56727 44.556962 L 100.56727 43.874833 L 98.283684 43.874833 z M 100.86596 43.874833 L 100.86596 44.531123 L 100.91763 44.5828 L 101.70311 44.5828 L 101.70311 46.73719 L 102.48136 46.73719 L 102.48136 44.5828 L 103.26684 44.5828 L 103.31852 44.531123 L 103.31852 43.874833 L 100.86596 43.874833 z M 103.59912 43.874833 L 103.59912 44.531123 L 103.6508 44.5828 L 104.43628 44.5828 L 104.43628 46.73719 L 105.21453 46.73719 L 105.21453 44.5828 L 106.00053 44.5828 L 106.0522 44.531123 L 106.0522 43.874833 L 103.59912 43.874833 z M 106.26976 43.874833 L 106.26976 45.689192 C 106.26976 45.819521 106.29049 45.942587 106.33229 46.058162 C 106.37655 46.173736 106.43692 46.278395 106.51316 46.371838 C 106.59184 46.465282 106.68389 46.546381 106.78963 46.615234 C 106.89537 46.681627 107.0098 46.733377 107.13276 46.770263 C 107.18688 46.787476 107.24095 46.800737 107.29502 46.810571 C 107.35161 46.820404 107.40799 46.825557 107.46452 46.825557 C 107.5211 46.825557 107.578 46.820404 107.63453 46.810571 C 107.69113 46.800737 107.74635 46.787476 107.80042 46.770263 C 107.92337 46.733377 108.03781 46.681627 108.14355 46.615234 C 108.24929 46.546381 108.34017 46.465282 108.4164 46.371838 C 108.49509 46.278395 108.55547 46.173736 108.59727 46.058162 C 108.64153 45.942587 108.66341 45.819521 108.66341 45.689192 L 108.66341 43.874833 L 107.86656 43.874833 L 107.86656 45.64165 C 107.86656 45.69575 107.85562 45.745825 107.83349 45.792545 C 107.81136 45.836808 107.78199 45.876457 107.74512 45.910884 C 107.70826 45.942851 107.66513 45.968725 107.61593 45.988399 C 107.56918 46.005612 107.51859 46.014237 107.46452 46.014237 C 107.4129 46.014237 107.36282 46.005612 107.31362 45.988399 C 107.26688 45.968725 107.22492 45.942851 107.18805 45.910884 C 107.15118 45.876455 107.12182 45.836805 107.09968 45.792545 C 107.07755 45.745824 107.06609 45.69575 107.06609 45.64165 L 107.06609 43.874833 L 106.26976 43.874833 z M 109.06235 43.874833 L 109.06235 46.73719 L 109.85145 46.73719 L 109.84732 45.851973 L 110.33049 45.851973 L 110.82866 46.73719 L 111.68855 46.73719 L 111.01727 45.556901 C 111.13531 45.473293 111.22734 45.369794 111.29374 45.246842 C 111.36014 45.12389 111.39348 44.991039 111.39348 44.848417 C 111.39348 44.76235 111.37972 44.672626 111.35265 44.579182 C 111.32809 44.483281 111.29127 44.399864 111.24207 44.328552 C 111.20269 44.271995 111.15494 44.216254 111.09841 44.162154 C 111.04185 44.108058 110.98032 44.0603 110.91392 44.018493 C 110.84753 43.974233 110.77853 43.939734 110.70722 43.91514 C 110.63591 43.888094 110.56575 43.874833 110.49689 43.874833 L 109.06235 43.874833 z M 112.85385 43.874833 L 111.795 46.73719 L 112.60271 46.73719 L 112.7505 46.342382 L 113.6321 46.342382 L 113.77938 46.73719 L 114.58708 46.73719 L 113.52875 43.874833 L 112.85385 43.874833 z M 86.554168 44.508902 L 87.000652 44.508902 C 87.044913 44.508902 87.086363 44.517527 87.125709 44.534741 C 87.165056 44.549494 87.199555 44.571897 87.229062 44.601403 C 87.258569 44.62845 87.282129 44.660118 87.299342 44.697005 C 87.316555 44.733893 87.32518 44.774701 87.32518 44.818961 C 87.32518 44.863223 87.316555 44.904031 87.299342 44.940917 C 87.282129 44.977804 87.258569 45.01063 87.229062 45.040136 C 87.199555 45.067183 87.165056 45.089585 87.125709 45.106799 C 87.086362 45.121552 87.044912 45.12902 87.000652 45.12902 L 86.554168 45.12902 L 86.554168 44.508902 z M 109.8251 44.508902 L 110.27158 44.508902 C 110.31586 44.508902 110.35782 44.517527 110.39716 44.534741 C 110.43648 44.549494 110.47098 44.571897 110.50051 44.601403 C 110.53004 44.62845 110.55307 44.660118 110.57027 44.697005 C 110.58747 44.733893 110.59611 44.774701 110.59611 44.818961 C 110.59611 44.863223 110.58747 44.904031 110.57027 44.940917 C 110.55307 44.977804 110.53004 45.01063 110.50051 45.040136 C 110.47099 45.067183 110.43649 45.089585 110.39716 45.106799 C 110.35781 45.121552 110.31585 45.12902 110.27158 45.12902 L 109.8251 45.12902 L 109.8251 44.508902 z M 84.042177 44.922314 L 84.267486 45.67834 L 83.813767 45.67834 L 84.042177 44.922314 z M 113.19285 44.922314 L 113.41816 45.67834 L 112.96444 45.67834 L 113.19285 44.922314 z " /><path
       id="path35"
       style="font-size:3.68856px;font-family:PRIMETIME;-inkscape-font-specification:PRIMETIME;fill:#156856;stroke-width:0.873896"
       d="M 94.545411 86.292915 C 94.333934 86.292915 94.136077 86.333724 93.951649 86.414872 C 93.76968 86.493561 93.609798 86.602852 93.472092 86.743017 C 93.336845 86.880723 93.22987 87.041764 93.151181 87.226192 C 93.072492 87.408161 93.033359 87.602543 93.033359 87.809102 C 93.033359 88.015661 93.072492 88.211202 93.151181 88.395629 C 93.22987 88.577598 93.336845 88.738639 93.472092 88.878804 C 93.609798 89.016511 93.76968 89.125801 93.951649 89.206949 C 94.136077 89.285639 94.333934 89.324772 94.545411 89.324772 C 94.781479 89.324772 95.002894 89.274697 95.209454 89.173876 C 95.418471 89.070597 95.599079 88.925131 95.751539 88.738244 L 95.142791 88.244217 C 95.06656 88.342578 94.976836 88.419044 94.873557 88.473144 C 94.772736 88.527244 94.663445 88.554276 94.545411 88.554276 C 94.442131 88.554276 94.346099 88.534195 94.257574 88.494848 C 94.171506 88.453043 94.096714 88.398977 94.032781 88.332584 C 93.968847 88.263731 93.918256 88.184948 93.881369 88.096423 C 93.844483 88.005438 93.826075 87.909922 93.826075 87.809102 C 93.826075 87.71074 93.844483 87.617024 93.881369 87.528499 C 93.918257 87.437515 93.968848 87.357573 94.032781 87.28872 C 94.096716 87.219869 94.172666 87.165803 94.261191 87.126456 C 94.349716 87.08711 94.445749 87.067545 94.549029 87.067545 C 94.706407 87.067545 94.856506 87.118136 94.99913 87.218957 L 95.589275 86.702193 C 95.439274 86.569405 95.275916 86.468739 95.098866 86.399886 C 94.921815 86.328574 94.737217 86.292915 94.545411 86.292915 z M 104.58201 86.296533 C 104.37053 86.296533 104.17267 86.33734 103.98825 86.418489 C 103.80382 86.497178 103.64278 86.605311 103.50507 86.743017 C 103.36736 86.878264 103.25808 87.038148 103.17693 87.222574 C 103.09824 87.407002 103.05859 87.603701 103.05859 87.812719 C 103.05859 88.021738 103.09824 88.218436 103.17693 88.402864 C 103.25808 88.587292 103.36736 88.748333 103.50507 88.886039 C 103.64278 89.021286 103.80382 89.12826 103.98825 89.206949 C 104.17267 89.285639 104.37053 89.324772 104.58201 89.324772 C 104.79102 89.324772 104.98772 89.285639 105.17215 89.206949 C 105.35904 89.12826 105.52125 89.021286 105.65894 88.886039 C 105.79665 88.748333 105.90479 88.587292 105.98347 88.402864 C 106.06462 88.218436 106.10543 88.021738 106.10543 87.812719 C 106.10543 87.603701 106.06462 87.407002 105.98347 87.222574 C 105.90479 87.038148 105.79665 86.878264 105.65894 86.743017 C 105.52125 86.605311 105.35904 86.497178 105.17215 86.418489 C 104.98772 86.33734 104.79102 86.296533 104.58201 86.296533 z M 78.437351 86.374047 L 78.437351 89.236405 L 79.204746 89.236405 L 79.204746 88.34757 L 79.724611 88.34757 C 79.862315 88.34757 79.994007 88.321696 80.119419 88.270056 C 80.247287 88.215957 80.359413 88.143482 80.455315 88.052498 C 80.553675 87.959055 80.630783 87.850922 80.687343 87.72797 C 80.746361 87.605018 80.776226 87.472168 80.776226 87.329545 C 80.776226 87.189379 80.746361 87.060005 80.687343 86.941971 C 80.630785 86.823937 80.553677 86.723271 80.455315 86.639664 C 80.359413 86.556056 80.247287 86.491047 80.119419 86.444327 C 79.994007 86.397607 79.862315 86.374047 79.724611 86.374047 L 78.437351 86.374047 z M 81.08215 86.374047 L 81.08215 89.236405 L 81.853163 89.236405 L 81.853163 86.374047 L 81.08215 86.374047 z M 83.092364 86.374047 L 82.03403 89.236405 L 82.841733 89.236405 L 82.989011 88.841597 L 83.870611 88.841597 L 84.018405 89.236405 L 84.826108 89.236405 L 83.767258 86.374047 L 83.092364 86.374047 z M 85.055035 86.374047 L 85.055035 89.232788 L 85.818295 89.232788 L 85.818295 87.705749 L 86.810483 89.232788 L 87.577878 89.232788 L 87.577878 86.374047 L 86.810483 86.374047 L 86.810483 87.916072 L 85.814678 86.374047 L 85.055035 86.374047 z M 88.02798 86.374047 L 88.02798 89.236405 L 88.798475 89.236405 L 88.798475 86.374047 L 88.02798 86.374047 z M 89.392754 86.374047 L 89.333326 86.432958 L 89.333326 89.236405 L 90.097104 89.236405 L 90.097104 88.166703 L 91.410202 88.166703 L 91.410202 87.469588 L 90.097104 87.469588 L 90.097104 87.078397 L 91.587452 87.078397 L 91.587452 86.374047 L 89.392754 86.374047 z M 91.963657 86.374047 L 91.963657 89.236405 L 92.734152 89.236405 L 92.734152 86.374047 L 91.963657 86.374047 z M 96.905991 86.374047 L 95.847657 89.236405 L 96.65536 89.236405 L 96.802638 88.841597 L 97.684238 88.841597 L 97.832032 89.236405 L 98.639735 89.236405 L 97.580885 86.374047 L 96.905991 86.374047 z M 98.960646 86.374047 L 98.960646 87.108369 L 100.15954 87.108369 L 99.045395 89.107214 L 99.045395 89.236405 L 101.36567 89.236405 L 101.36567 88.5026 L 100.22568 88.5026 L 101.33983 86.503238 L 101.33983 86.374047 L 98.960646 86.374047 z M 101.82662 86.374047 L 101.82662 89.236405 L 102.59763 89.236405 L 102.59763 86.374047 L 101.82662 86.374047 z M 106.39688 86.374047 L 106.39688 89.232788 L 107.16015 89.232788 L 107.16015 87.705749 L 108.15233 89.232788 L 108.91973 89.232788 L 108.91973 86.374047 L 108.15233 86.374047 L 108.15233 87.916072 L 107.15653 86.374047 L 106.39688 86.374047 z M 109.32901 86.374047 L 109.32901 89.236405 L 111.61259 89.236405 L 111.61259 88.557893 L 110.07418 88.557893 L 110.07418 88.148099 L 111.5237 88.148099 L 111.5237 87.46597 L 110.07418 87.46597 L 110.07418 87.056693 L 111.61259 87.056693 L 111.61259 86.374047 L 109.32901 86.374047 z M 79.223349 87.008634 L 79.669317 87.008634 C 79.713577 87.008634 79.755544 87.017259 79.794891 87.034472 C 79.834237 87.049225 79.868737 87.071111 79.898243 87.100618 C 79.92775 87.127665 79.950793 87.159849 79.968007 87.196736 C 79.98522 87.233624 79.993845 87.273916 79.993845 87.318176 C 79.993845 87.362438 79.98522 87.403245 79.968007 87.440132 C 79.950793 87.477019 79.92775 87.510361 79.898243 87.539868 C 79.868737 87.566914 79.834237 87.5888 79.794891 87.606013 C 79.755543 87.620767 79.713577 87.628234 79.669317 87.628234 L 79.223349 87.628234 L 79.223349 87.008634 z M 104.58201 87.027237 C 104.6902 87.027237 104.78971 87.049123 104.8807 87.093383 C 104.97414 87.135187 105.05408 87.19157 105.12048 87.262882 C 105.18689 87.334194 105.23864 87.418128 105.27551 87.514029 C 105.31484 87.607473 105.33442 87.706981 105.33442 87.812719 C 105.33442 87.915999 105.31484 88.015506 105.27551 88.111409 C 105.23863 88.207312 105.18688 88.290728 105.12048 88.36204 C 105.05408 88.433354 104.97414 88.491414 104.8807 88.535672 C 104.78971 88.577479 104.6902 88.598201 104.58201 88.598201 C 104.47381 88.598201 104.37315 88.577479 104.2797 88.535672 C 104.18873 88.491411 104.10994 88.433352 104.04354 88.36204 C 103.97713 88.290728 103.92423 88.207312 103.88489 88.111409 C 103.84803 88.015506 103.8296 87.915999 103.8296 87.812719 C 103.8296 87.706981 103.84803 87.607473 103.88489 87.514029 C 103.92423 87.418128 103.97714 87.334194 104.04354 87.262882 C 104.10993 87.191573 104.18872 87.13519 104.2797 87.093383 C 104.37315 87.049123 104.47381 87.027237 104.58201 87.027237 z M 83.431878 87.421529 L 83.65667 88.178072 L 83.202951 88.178072 L 83.431878 87.421529 z M 97.245505 87.421529 L 97.470297 88.178072 L 97.016578 88.178072 L 97.245505 87.421529 z " /></g></svg>
