<?xml version="1.0" encoding="UTF-8" standalone="no"?>
<!-- Created with Inkscape (http://www.inkscape.org/) -->

<svg
   width="67.73333mm"
   height="67.73333mm"
   viewBox="0 0 67.73333 67.73333"
   version="1.1"
   id="svg1"
   xml:space="preserve"
   inkscape:export-filename="matricole.png"
   inkscape:export-xdpi="1536.0001"
   inkscape:export-ydpi="1536.0001"
   inkscape:version="1.3.2 (091e20e, 2023-11-25, custom)"
   sodipodi:docname="matricole.svg"
   xmlns:inkscape="http://www.inkscape.org/namespaces/inkscape"
   xmlns:sodipodi="http://sodipodi.sourceforge.net/DTD/sodipodi-0.dtd"
   xmlns="http://www.w3.org/2000/svg"
   xmlns:svg="http://www.w3.org/2000/svg"><sodipodi:namedview
     id="namedview1"
     pagecolor="#ffffff"
     bordercolor="#000000"
     borderopacity="0.25"
     inkscape:showpageshadow="2"
     inkscape:pageopacity="0.0"
     inkscape:pagecheckerboard="0"
     inkscape:deskcolor="#d1d1d1"
     inkscape:document-units="mm"
     inkscape:zoom="2.2486095"
     inkscape:cx="104.73139"
     inkscape:cy="141.19837"
     inkscape:window-width="1920"
     inkscape:window-height="991"
     inkscape:window-x="-9"
     inkscape:window-y="-9"
     inkscape:window-maximized="1"
     inkscape:current-layer="layer1" /><defs
     id="defs1">
	
	
	
	
	
	
	
	
	
	
	
	
	
	
	
	
	
	
	
	
</defs><g
     inkscape:label="Livello 1"
     inkscape:groupmode="layer"
     id="layer1"
     transform="translate(-29.050192,-77.594589)"><path
       id="rect1"
       style="fill:#ff7f2a;stroke-width:0.418344"
       d="m 29.050192,77.594589 h 67.73333 v 67.733331 h -67.73333 z" /><path
       id="path42"
       style="font-size:6.70277px;font-family:PRIMETIME;-inkscape-font-specification:PRIMETIME;fill:#000000;fill-opacity:0.12156863;stroke-width:0.873896"
       d="M 66.51974 89.513241 C 66.198007 89.513241 65.896402 89.575711 65.614885 89.700827 C 65.33337 89.825945 65.087481 89.99587 64.877463 90.210356 C 64.795314 90.294291 64.721789 90.385664 64.653187 90.481658 L 63.811894 89.640365 L 62.517917 89.640365 L 62.517917 91.251637 L 61.345378 90.079098 C 61.313978 90.047698 61.280309 90.017781 61.244609 89.989181 C 61.159709 89.917681 61.065749 89.85695 60.962973 89.807797 C 60.860198 89.754177 60.753257 89.714207 60.641545 89.687391 C 60.534301 89.656111 60.429095 89.640365 60.326319 89.640365 L 58.020517 89.640365 L 58.020517 90.37107 L 57.289812 89.640365 L 53.536553 89.640365 L 53.536553 90.679578 L 53.643523 90.786549 L 54.782988 91.926014 L 54.782988 92.147189 L 52.276164 89.640365 L 51.203879 89.640365 L 50.679879 91.07387 L 49.246375 89.640365 L 48.133782 89.640365 C 48.071222 89.640365 48.024502 89.667361 47.993222 89.720981 L 47.264584 90.926075 L 46.032101 89.693592 C 46.028397 89.689887 46.023015 89.691224 46.019182 89.687908 C 45.986459 89.659534 45.950808 89.640365 45.908595 89.640365 L 44.796001 89.640365 L 44.796001 94.057667 L 55.508009 104.76967 L 55.502841 104.79241 L 55.374683 105.37067 L 54.178891 104.17488 C 54.178447 104.17444 54.177787 104.17428 54.17734 104.17385 C 54.151627 104.14847 54.119899 104.13044 54.085356 104.11958 C 54.083721 104.11907 54.082354 104.11851 54.080706 104.11803 C 54.045294 104.10775 54.007094 104.10482 53.968568 104.11338 C 53.84613 104.14055 53.769315 104.26181 53.796485 104.38417 L 54.276042 106.54218 L 53.987171 106.54218 C 53.928493 106.54218 53.878445 106.57607 53.853329 106.62486 L 51.474663 104.24619 C 51.474386 104.24592 51.473909 104.24595 51.473629 104.24568 C 51.436038 104.20875 51.38065 104.19196 51.326352 104.20743 L 50.216342 104.52473 L 50.008086 104.31699 L 50.007569 104.31647 L 50.007569 104.31596 C 50.007296 104.31569 50.006811 104.31571 50.006536 104.31544 C 49.979236 104.28866 49.941884 104.27203 49.900599 104.27203 L 48.68982 104.27203 C 48.606375 104.27203 48.538691 104.34008 48.538408 104.42344 L 48.538408 105.02909 L 48.538408 105.78563 L 48.538408 105.78615 L 48.538408 108.05578 L 47.933277 108.05578 C 47.849656 108.05578 47.781865 108.12359 47.781865 108.20719 L 47.781865 110.32592 L 45.51172 110.32592 L 45.51172 111.83953 L 45.51172 111.84004 L 45.51172 125.46092 L 51.046265 130.99546 L 51.046265 133.68626 L 62.687932 145.32792 L 96.783525 145.32792 L 96.783525 105.38617 L 81.037716 89.640365 L 77.532504 89.640365 L 77.532504 92.590056 L 74.582813 89.640365 L 73.343096 89.640365 L 73.343096 91.295561 L 72.260991 90.213457 L 72.243938 90.196921 C 72.033918 89.986901 71.785781 89.821477 71.499797 89.700827 C 71.213814 89.575708 70.909958 89.513241 70.588225 89.513241 C 70.266493 89.513241 69.962635 89.575711 69.676653 89.700827 C 69.390669 89.821477 69.140283 89.989153 68.925794 90.203638 C 68.799857 90.329576 68.691021 90.470625 68.595582 90.623768 L 68.155299 90.183485 C 67.90507 89.955585 67.643429 89.787917 67.37085 89.680673 C 67.098273 89.56896 66.814659 89.513241 66.51974 89.513241 z " /><path
       id="XMLID_1324_"
       style="fill:#cbb57a;stroke-width:0.0756752"
       d="m 67.078991,116.38014 h 3.783759 l -6.810766,9.08102 h -0.756752 z" /><path
       id="XMLID_1325_"
       style="fill:#9e8e60;stroke-width:0.0756752"
       d="m 74.646509,125.46116 h -0.756751 l -6.810767,-9.08102 h 3.783759 z" /><path
       id="XMLID_1298_"
       style="fill:#4d4337;stroke-width:0.0756752"
       d="m 76.538389,115.62339 v 0 c 0,0.83591 -0.677596,1.5135 -1.513504,1.5135 H 62.916856 c -0.835908,0 -1.513503,-0.67759 -1.513503,-1.5135 v 0 c 0,-0.83591 0.677595,-1.51351 1.513503,-1.51351 h 0.06584 l 1.054382,-12.12513 c 0.222485,-2.55918 2.364925,-4.523405 4.933795,-4.523405 v 0 c 2.568869,0 4.711309,1.964225 4.93387,4.523405 l 1.054307,12.12513 h 0.06584 c 0.835908,0 1.513504,0.6776 1.513504,1.51351 z" /><path
       id="XMLID_1295_"
       style="fill:#635547;stroke-width:0.0756752"
       d="m 73.511382,114.48826 c 0,0.20894 -0.169437,0.37838 -0.378376,0.37838 h -8.32427 c -0.208939,0 -0.378376,-0.16944 -0.378376,-0.37838 0,-0.20894 0.169437,-0.37838 0.378376,-0.37838 h 0.756752 l 0.630071,-7.24605 c 0.125167,-1.43956 1.330294,-2.54442 2.775312,-2.54442 v 0 c 1.445017,0 2.650145,1.10486 2.775311,2.54442 l 0.630072,7.24605 h 0.756752 c 0.208939,0 0.378376,0.16944 0.378376,0.37838 z" /><path
       id="XMLID_1136_"
       style="fill:#9e8e60;stroke-width:0.0756752"
       d="m 54.592587,125.46116 h -9.081022 v -14.37828 h 9.081022 z m 25.729561,-14.37828 h -1.513504 v 14.37828 h 1.513504 z" /><path
       id="XMLID_338_"
       style="fill:#766a54;stroke-width:0.0756752"
       d="m 53.079083,117.89364 h -6.054014 v -4.54051 h 6.054014 z m 0,1.51351 h -6.054014 v 4.54051 h 6.054014 z" /><path
       id="XMLID_337_"
       style="fill:#d6cfba;stroke-width:0.0756752"
       d="m 53.079083,113.35313 v 4.54051 h -6.054014 v -4.54051 h 1.513503 v 0.75675 c 0,0.41796 0.338798,0.75676 0.756752,0.75676 h 1.513504 c 0.417954,0 0.756751,-0.3388 0.756751,-0.75676 v -0.75675 z m -1.513504,6.05402 v 0.75675 c 0,0.41795 -0.338797,0.75675 -0.756751,0.75675 h -1.513504 c -0.417954,0 -0.756752,-0.3388 -0.756752,-0.75675 v -0.75675 h -1.513503 v 4.54051 h 6.054014 v -4.54051 z" /><path
       id="XMLID_307_"
       style="fill:#833428;stroke-width:0.0756752"
       d="m 50.052076,104.42346 v 4.99456 c 0,0.0836 -0.06773,0.15135 -0.151351,0.15135 h -1.210802 c -0.08362,0 -0.151351,-0.0677 -0.151351,-0.15135 v -4.99456 c 0,-0.0836 0.06773,-0.15135 0.151351,-0.15135 h 1.210802 c 0.08362,0 0.151351,0.0677 0.151351,0.15135 z" /><path
       id="XMLID_334_"
       style="fill:#374145;stroke-width:0.0756752"
       d="m 51.513212,104.31161 1.372143,4.80243 c 0.02293,0.0804 -0.02361,0.16414 -0.103978,0.18707 l -1.164187,0.33266 c -0.08037,0.0229 -0.16414,-0.0236 -0.187069,-0.10397 l -1.372143,-4.80243 c -0.02293,-0.0804 0.02361,-0.16414 0.103978,-0.18707 l 1.164187,-0.33266 c 0.08037,-0.0229 0.164064,0.0236 0.187069,0.10397 z" /><path
       id="XMLID_308_"
       style="fill:#64757c;stroke-width:0.0756752"
       d="m 52.303185,107.07663 -1.455233,0.41576 -0.623715,-2.18292 1.455234,-0.41576 z" /><path
       id="XMLID_245_"
       style="fill:#ac8428;stroke-width:0.0756752"
       d="m 50.052076,105.78561 h -1.513504 v -0.75675 h 1.513504 z" /><path
       id="XMLID_1276_"
       style="fill:#374145;stroke-width:0.0756752"
       d="m 55.216377,109.72791 c -0.122367,0.0272 -0.243674,-0.05 -0.270841,-0.17238 l -1.149128,-5.17112 c -0.02717,-0.12236 0.04995,-0.24367 0.172388,-0.27084 0.122367,-0.0272 0.243674,0.05 0.270842,0.17239 l 1.149127,5.17111 c 0.02724,0.12237 -0.04995,0.24368 -0.172388,0.27084 z" /><path
       id="XMLID_1297_"
       style="fill:#dda333;stroke-width:0.0756752"
       d="m 56.190392,103.79165 -1.149127,5.17111 c -0.02717,0.12237 -0.148475,0.19956 -0.270842,0.17239 -0.122366,-0.0272 -0.199555,-0.14847 -0.172388,-0.27084 l 1.149128,-5.17111 c 0.02717,-0.12237 0.148475,-0.19956 0.270841,-0.17239 0.122367,0.0272 0.199631,0.14847 0.172388,0.27084 z" /><path
       id="XMLID_1817_"
       style="fill:#e0cfa6;stroke-width:0.0756752"
       d="m 55.349338,108.20722 v 2.72431 c 0,0.0836 -0.06773,0.15135 -0.15135,0.15135 h -7.264817 c -0.08362,0 -0.151351,-0.0677 -0.151351,-0.15135 v -2.72431 c 0,-0.0836 0.06773,-0.15135 0.151351,-0.15135 h 7.264817 c 0.08362,0 0.15135,0.0677 0.15135,0.15135 z" /><path
       id="XMLID_1816_"
       style="fill:#d66a40;stroke-width:0.0756752"
       d="m 56.10609,106.69372 v 4.23781 c 0,0.0836 -0.06773,0.15135 -0.15135,0.15135 h -1.967555 c -0.08362,0 -0.15135,-0.0677 -0.15135,-0.15135 v -4.23781 c 0,-0.0836 0.06773,-0.15135 0.15135,-0.15135 h 1.967555 c 0.08362,0 0.15135,0.0677 0.15135,0.15135 z" /><path
       id="XMLID_1808_"
       style="fill:#cbb175;stroke-width:0.0756752"
       d="m 64.43036,109.94775 v 0.75675 h -3.027007 -3.027007 v -0.75675 c 0,-0.41795 0.338797,-0.75675 0.756751,-0.75675 h 1.513504 c 0.417954,0 0.756752,0.3388 0.756752,0.75675 0,-0.41795 0.338798,-0.75675 0.756752,-0.75675 h 1.513503 c 0.417954,0 0.756752,0.3388 0.756752,0.75675 z" /><path
       id="XMLID_1813_"
       style="fill:#e9cc85;stroke-width:0.0756752"
       d="m 64.43036,109.94775 v 0.75675 h -3.027007 v -0.75675 c 0,-0.41795 0.338798,-0.75675 0.756752,-0.75675 h 1.513503 c 0.417954,0 0.756752,0.3388 0.756752,0.75675 z" /><path
       id="XMLID_1807_"
       style="fill:#833428;stroke-width:0.0756752"
       d="m 64.796098,110.02342 v 0.45406 c 0,0.0836 -0.06773,0.15135 -0.15135,0.15135 h -6.482866 c -0.08362,0 -0.15135,-0.0677 -0.15135,-0.15135 v -0.45406 c 0,-0.0836 0.06773,-0.15135 0.15135,-0.15135 h 6.482866 c 0.08362,0 0.15135,0.0677 0.15135,0.15135 z" /><path
       id="XMLID_1805_"
       style="fill:#3f0900;stroke-width:0.0756752"
       d="m 61.857404,110.32613 v 0.15135 c 0,0.0836 -0.06773,0.15135 -0.15135,0.15135 h -0.605402 c -0.08362,0 -0.15135,-0.0677 -0.15135,-0.15135 v -0.15135 c 0,-0.25079 0.203263,-0.45406 0.454051,-0.45406 v 0 c 0.250787,0 0.454051,0.20327 0.454051,0.45406 z" /><path
       id="XMLID_1747_"
       style="fill:#cbb57a;stroke-width:0.0756752"
       d="M 80.322148,111.83963 H 45.511565 v -1.5135 h 34.810583 z" /><path
       id="path13"
       style="font-size:6.70277px;font-family:PRIMETIME;-inkscape-font-specification:PRIMETIME;fill:#662900;fill-opacity:1;stroke-width:0.873896"
       d="m 66.519738,89.513241 c -0.321733,0 -0.623338,0.06247 -0.904855,0.187586 -0.281515,0.125118 -0.527402,0.295041 -0.737422,0.509529 -0.205552,0.210021 -0.368726,0.45764 -0.489376,0.743624 -0.116181,0.281516 -0.17415,0.580872 -0.17415,0.898137 0,0.317264 0.05797,0.61887 0.17415,0.904854 0.12065,0.281516 0.283824,0.529652 0.489376,0.744141 0.21002,0.210019 0.455907,0.377693 0.737422,0.502811 0.281517,0.125119 0.583122,0.187586 0.904855,0.187586 0.361949,0 0.701279,-0.07821 1.018542,-0.234611 0.317265,-0.160867 0.601391,-0.395506 0.851628,-0.703833 l -0.98547,-0.817521 c -0.250236,0.330669 -0.545093,0.496093 -0.8847,0.496093 -0.147461,0 -0.283642,-0.02924 -0.408761,-0.08733 -0.125118,-0.05809 -0.234823,-0.136304 -0.328662,-0.234611 -0.08937,-0.09831 -0.160837,-0.211995 -0.214457,-0.341581 -0.04915,-0.134055 -0.0739,-0.273003 -0.0739,-0.415995 0,-0.142993 0.02699,-0.279174 0.08061,-0.408761 0.05362,-0.129586 0.125087,-0.243274 0.214457,-0.341581 0.09384,-0.09831 0.203544,-0.176518 0.328662,-0.234611 0.125119,-0.05809 0.2613,-0.08733 0.408761,-0.08733 0.214488,0 0.437881,0.08271 0.670243,0.248047 l 0.958598,-0.844393 C 67.90506,89.955591 67.643428,89.787917 67.370849,89.680673 67.09827,89.56896 66.814659,89.513241 66.519738,89.513241 Z m 4.068485,0 c -0.321732,0 -0.625588,0.06247 -0.911572,0.187586 -0.285984,0.12065 -0.53637,0.288324 -0.750859,0.502811 -0.210019,0.21002 -0.377693,0.457641 -0.502811,0.743624 -0.12065,0.281517 -0.180868,0.583122 -0.180868,0.904855 0,0.321732 0.06022,0.625588 0.180868,0.911572 0.125118,0.285984 0.292792,0.534121 0.502811,0.744141 0.214489,0.210019 0.464875,0.377693 0.750859,0.502811 0.285984,0.12065 0.58984,0.180868 0.911572,0.180868 0.321733,0 0.625588,-0.06022 0.911573,-0.180868 0.285984,-0.125118 0.53412,-0.292792 0.74414,-0.502811 0.214489,-0.21002 0.382162,-0.458157 0.502812,-0.744141 0.125118,-0.285984 0.187585,-0.58984 0.187585,-0.911572 0,-0.321733 -0.06247,-0.625588 -0.187585,-0.911573 -0.12065,-0.285983 -0.288323,-0.533605 -0.502812,-0.743623 -0.21002,-0.21002 -0.458156,-0.375444 -0.74414,-0.496094 -0.285985,-0.125119 -0.58984,-0.187586 -0.911573,-0.187586 z m -25.792224,0.127124 v 4.417302 h 1.246436 v -2.064474 l 0.804602,1.327051 c 0.02235,0.03575 0.05159,0.06049 0.08733,0.0739 0.03575,0.0089 0.06448,0.01344 0.08682,0.01344 0.02681,0 0.0583,-0.0045 0.09405,-0.01344 0.03575,-0.01341 0.06448,-0.03815 0.08682,-0.0739 l 0.804602,-1.327051 v 2.064474 h 1.239717 V 89.640365 H 48.13378 c -0.06256,0 -0.10928,0.027 -0.14056,0.08062 l -0.972034,1.608687 -0.965315,-1.608687 c -0.04021,-0.05362 -0.08919,-0.08062 -0.147278,-0.08062 z m 6.407878,0 -1.615406,4.417302 h 1.30018 l 0.221175,-0.596863 h 1.260388 l 0.221175,0.596863 h 1.300179 l -1.615405,-4.417302 z m 2.332674,0 v 1.039213 l 0.10697,0.106971 h 1.139465 v 3.271118 h 1.260389 v -3.271118 h 1.139465 l 0.10697,-0.106971 v -1.039213 z m 4.483964,0 v 4.417302 h 1.293461 v -1.347205 h 0.784448 l 0.697115,1.347205 h 1.39423 l -1.032495,-1.984375 c 0.169804,-0.129587 0.304253,-0.287747 0.40256,-0.475423 0.09831,-0.192146 0.147278,-0.395811 0.147278,-0.610299 0,-0.134055 -0.02024,-0.265738 -0.06046,-0.395325 -0.04022,-0.129586 -0.09819,-0.250022 -0.174149,-0.361735 -0.06256,-0.08937 -0.138525,-0.169833 -0.227893,-0.241329 -0.0849,-0.0715 -0.178861,-0.132231 -0.281637,-0.181384 -0.102775,-0.05362 -0.209715,-0.09359 -0.321427,-0.120406 -0.107244,-0.03128 -0.212451,-0.04703 -0.315227,-0.04703 z m 4.4974,0 v 4.417302 h 1.293978 v -4.417302 z m 10.825179,0 v 4.417302 h 3.532084 v -1.119312 h -2.292367 v -3.29799 z m 4.189408,0 v 4.417302 h 3.505213 v -1.112594 h -2.339392 v -0.543119 h 2.212268 V 91.28936 h -2.212268 v -0.543119 h 2.339392 V 89.640365 Z M 59.313976,90.67286 h 0.65009 c 0.11618,0 0.216888,0.03997 0.30179,0.120407 0.0849,0.08043 0.127641,0.178891 0.127641,0.295072 0,0.116181 -0.04274,0.216372 -0.127641,0.301274 -0.0849,0.08043 -0.18561,0.120922 -0.30179,0.120922 h -0.65009 z m 11.274247,0.05323 c 0.151929,0 0.29261,0.03149 0.422197,0.09405 0.134055,0.05809 0.248259,0.138554 0.342098,0.241329 0.09831,0.102776 0.174273,0.223211 0.227893,0.361735 0.05362,0.134055 0.0801,0.276985 0.0801,0.428915 0,0.151929 -0.02648,0.297625 -0.0801,0.436149 -0.05362,0.134055 -0.129586,0.25449 -0.227893,0.361735 -0.09384,0.102774 -0.208043,0.185487 -0.342098,0.248047 -0.129587,0.05809 -0.270268,0.08682 -0.422197,0.08682 -0.15193,0 -0.294859,-0.02872 -0.428914,-0.08682 -0.129587,-0.06256 -0.243791,-0.145272 -0.342098,-0.248047 -0.09384,-0.107245 -0.1698,-0.22768 -0.227893,-0.361735 -0.05362,-0.138524 -0.0801,-0.28422 -0.0801,-0.436149 0,-0.15193 0.02648,-0.29486 0.0801,-0.428915 0.05809,-0.138524 0.134054,-0.258959 0.227893,-0.361735 0.09831,-0.102772 0.212511,-0.183235 0.342098,-0.241329 0.134055,-0.06256 0.276984,-0.09405 0.428914,-0.09405 z m -18.847945,0.784448 0.28112,0.857829 h -0.562756 z" /><path
       id="path20"
       style="font-size:6.70277px;font-family:PRIMETIME;-inkscape-font-specification:PRIMETIME;fill:#662900;fill-opacity:1;stroke-width:0.873896"
       d="m 57.487731,129.14183 c -0.321733,0 -0.625588,0.0625 -0.911573,0.18759 -0.285983,0.12065 -0.53637,0.28832 -0.750858,0.50281 -0.21002,0.21002 -0.377177,0.45815 -0.502295,0.74414 -0.12065,0.28151 -0.181384,0.58312 -0.181384,0.90485 0,0.32174 0.06073,0.62559 0.181384,0.91157 0.125118,0.28599 0.292275,0.53361 0.502295,0.74363 0.214488,0.21002 0.464875,0.3777 0.750858,0.50281 0.285985,0.12065 0.58984,0.18087 0.911573,0.18087 0.321731,0 0.625587,-0.0602 0.911572,-0.18087 0.285984,-0.12511 0.534122,-0.29279 0.74414,-0.50281 0.214489,-0.21002 0.382162,-0.45764 0.502812,-0.74363 0.125119,-0.28598 0.187586,-0.58983 0.187586,-0.91157 0,-0.32173 -0.06247,-0.62559 -0.187586,-0.91157 -0.12065,-0.28599 -0.288323,-0.53412 -0.502812,-0.74414 -0.210018,-0.21002 -0.458156,-0.37544 -0.74414,-0.49609 -0.285985,-0.12512 -0.589841,-0.18759 -0.911572,-0.18759 z m 14.954126,0 c -0.321733,0 -0.625588,0.0625 -0.911573,0.18759 -0.285983,0.12065 -0.536371,0.28832 -0.750858,0.50281 -0.21002,0.21002 -0.377693,0.45815 -0.502812,0.74414 -0.12065,0.28151 -0.180868,0.58312 -0.180868,0.90485 0,0.32174 0.06022,0.62559 0.180868,0.91157 0.125119,0.28599 0.292792,0.53361 0.502812,0.74363 0.214487,0.21002 0.464875,0.3777 0.750858,0.50281 0.285985,0.12065 0.58984,0.18087 0.911573,0.18087 0.321731,0 0.625587,-0.0602 0.911572,-0.18087 0.285984,-0.12511 0.533604,-0.29279 0.743624,-0.50281 0.214487,-0.21002 0.382161,-0.45764 0.502811,-0.74363 0.125118,-0.28598 0.187586,-0.58983 0.187586,-0.91157 0,-0.32173 -0.06247,-0.62559 -0.187586,-0.91157 -0.12065,-0.28599 -0.288324,-0.53412 -0.502811,-0.74414 -0.21002,-0.21002 -0.45764,-0.37544 -0.743624,-0.49609 -0.285985,-0.12512 -0.589841,-0.18759 -0.911572,-0.18759 z m -21.395594,0.12712 v 4.41731 h 1.267106 v -1.32034 h 0.777214 c 0.218956,0 0.43162,-0.0382 0.63717,-0.1142 0.205551,-0.0804 0.383956,-0.18738 0.535885,-0.32143 0.156398,-0.13853 0.281849,-0.3017 0.375688,-0.48938 0.09384,-0.18768 0.140559,-0.39307 0.140559,-0.6165 0,-0.21894 -0.04672,-0.42261 -0.140559,-0.61029 -0.09384,-0.19215 -0.21929,-0.35757 -0.375688,-0.4961 -0.156398,-0.14298 -0.337051,-0.25218 -0.542603,-0.32814 -0.201082,-0.0804 -0.411496,-0.12093 -0.630452,-0.12093 z m 9.196338,0 v 4.41731 h 3.532601 v -1.11932 h -2.292366 v -3.29799 z m 4.095357,0 v 4.41731 h 1.293462 v -4.41731 z m 1.883606,0 v 1.03922 l 0.106971,0.10697 H 67.468 v 3.27112 h 1.260388 v -3.27112 h 1.139465 l 0.106971,-0.10697 v -1.03922 z m -13.888041,1.07281 h 0.717269 c 0.111713,0 0.207405,0.0467 0.287838,0.14056 0.0849,0.0894 0.127641,0.19008 0.127641,0.30179 0,0.10724 -0.04049,0.20295 -0.120923,0.28783 -0.08043,0.0804 -0.178375,0.12093 -0.294556,0.12093 h -0.717269 z m 5.154208,0.0134 c 0.151928,0 0.292609,0.031 0.422196,0.0935 0.134055,0.0581 0.248259,0.13855 0.342098,0.24133 0.09831,0.10277 0.174273,0.2232 0.227893,0.36173 0.05362,0.13405 0.0801,0.27751 0.0801,0.42943 0,0.15194 -0.02648,0.29711 -0.0801,0.43563 -0.05362,0.13406 -0.129586,0.2545 -0.227893,0.36174 -0.09384,0.1028 -0.208043,0.18551 -0.342098,0.24805 -0.129587,0.0581 -0.270268,0.0873 -0.422196,0.0873 -0.15193,0 -0.29486,-0.0293 -0.428915,-0.0873 -0.129587,-0.0626 -0.243791,-0.14527 -0.342098,-0.24805 -0.09384,-0.10724 -0.1698,-0.22768 -0.227893,-0.36174 -0.05362,-0.13852 -0.0801,-0.28369 -0.0801,-0.43563 0,-0.15192 0.02648,-0.29538 0.0801,-0.42943 0.05809,-0.13853 0.134055,-0.25896 0.227893,-0.36173 0.09831,-0.1028 0.212511,-0.18327 0.342098,-0.24133 0.134055,-0.0625 0.276985,-0.0935 0.428915,-0.0935 z m 14.954126,0 c 0.151928,0 0.292609,0.031 0.422196,0.0935 0.134055,0.0581 0.247742,0.13855 0.341581,0.24133 0.09831,0.10277 0.174273,0.2232 0.227893,0.36173 0.05362,0.13405 0.08062,0.27751 0.08062,0.42943 0,0.15194 -0.027,0.29711 -0.08062,0.43563 -0.05362,0.13406 -0.129586,0.2545 -0.227893,0.36174 -0.09384,0.1028 -0.207526,0.18551 -0.341581,0.24805 -0.129587,0.0581 -0.270268,0.0873 -0.422196,0.0873 -0.15193,0 -0.295376,-0.0293 -0.429432,-0.0873 -0.129587,-0.0626 -0.243274,-0.14527 -0.341581,-0.24805 -0.09384,-0.10724 -0.1698,-0.22768 -0.227893,-0.36174 -0.05362,-0.13852 -0.08061,-0.28369 -0.08061,-0.43563 0,-0.15192 0.02699,-0.29538 0.08061,-0.42943 0.05809,-0.13853 0.134055,-0.25896 0.227893,-0.36173 0.09831,-0.1028 0.211994,-0.18327 0.341581,-0.24133 0.134056,-0.0625 0.277502,-0.0935 0.429432,-0.0935 z" /></g></svg>
