<?xml version="1.0" encoding="UTF-8" standalone="no"?>
<svg
   xmlns:dc="http://purl.org/dc/elements/1.1/"
   xmlns:cc="http://creativecommons.org/ns#"
   xmlns:rdf="http://www.w3.org/1999/02/22-rdf-syntax-ns#"
   xmlns:svg="http://www.w3.org/2000/svg"
   xmlns="http://www.w3.org/2000/svg"
   xmlns:sodipodi="http://sodipodi.sourceforge.net/DTD/sodipodi-0.dtd"
   xmlns:inkscape="http://www.inkscape.org/namespaces/inkscape"
   id="svg8"
   version="1.1"
   viewBox="0 0 67.73333 67.733338"
   height="67.733337mm"
   width="67.73333mm"
   inkscape:export-filename="C:\Users\linos\Desktop\Icone gruppi telegram\matricole.png"
   inkscape:export-xdpi="96"
   inkscape:export-ydpi="96"
   inkscape:version="1.0 (4035a4fb49, 2020-05-01)"
   sodipodi:docname="matricole_scalable.svg">
  <defs
     id="defs2" />
  <sodipodi:namedview
     inkscape:window-maximized="1"
     inkscape:window-y="-9"
     inkscape:window-x="-9"
     inkscape:window-height="1013"
     inkscape:window-width="1920"
     showgrid="false"
     inkscape:document-rotation="0"
     inkscape:current-layer="layer1"
     inkscape:document-units="mm"
     inkscape:cy="914.28572"
     inkscape:cx="1020"
     inkscape:zoom="0.35"
     inkscape:pageshadow="2"
     inkscape:pageopacity="0.0"
     borderopacity="1.0"
     bordercolor="#666666"
     pagecolor="#ffffff"
     id="base">
    <inkscape:grid
       originy="37.797615"
       originx="164.04165"
       id="grid1537"
       type="xygrid" />
  </sodipodi:namedview>
  <metadata
     id="metadata5">
    <rdf:RDF>
      <cc:Work
         rdf:about="">
        <dc:format>image/svg+xml</dc:format>
        <dc:type
           rdf:resource="http://purl.org/dc/dcmitype/StillImage" />
        <dc:title></dc:title>
        <cc:license
           rdf:resource="http://creativecommons.org/licenses/by-sa/4.0/" />
      </cc:Work>
      <cc:License
         rdf:about="http://creativecommons.org/licenses/by-sa/4.0/">
        <cc:permits
           rdf:resource="http://creativecommons.org/ns#Reproduction" />
        <cc:permits
           rdf:resource="http://creativecommons.org/ns#Distribution" />
        <cc:requires
           rdf:resource="http://creativecommons.org/ns#Notice" />
        <cc:requires
           rdf:resource="http://creativecommons.org/ns#Attribution" />
        <cc:permits
           rdf:resource="http://creativecommons.org/ns#DerivativeWorks" />
        <cc:requires
           rdf:resource="http://creativecommons.org/ns#ShareAlike" />
      </cc:License>
    </rdf:RDF>
  </metadata>
  <g
     transform="translate(164.04167,37.797619)"
     id="layer1"
     inkscape:groupmode="layer"
     inkscape:label="Livello 1">
    <g
       transform="matrix(0.125,0,0,0.125,-143.53646,-33.072917)"
       id="g382">
      <rect
         style="fill:#d4e157;fill-opacity:1;stroke-width:3.5588"
         id="rect10"
         width="541.86664"
         height="541.86664"
         x="-164.04167"
         y="-37.797619"
         rx="0.84031862"
         ry="1.9438839"
         inkscape:export-xdpi="96"
         inkscape:export-ydpi="96" />
      <path
         transform="matrix(0.26458333,0,0,0.26458333,-164.04167,-37.797619)"
         d="m 1024.002,409.05273 c -14.5701,0 -26.35791,11.78571 -26.35942,26.35352 v 0.004 26.35546 c 0,-4.94879 1.363,-9.57522 3.73042,-13.52929 v 16.80273 c 0,-4.93898 1.3603,-9.5558 3.7227,-13.50195 v 16.77148 c 0,-4.93308 1.3608,-9.544 3.7227,-13.48437 v 16.75195 c 0,-4.92612 1.3594,-9.53076 3.7187,-13.46484 v 16.72656 c 0,-4.92038 1.3586,-9.51896 3.7168,-13.44727 v 16.70704 c 0,-4.91038 1.354,-9.49956 3.707,-13.41993 v 16.67774 c 0,-4.90447 1.3546,-9.48973 3.7071,-13.4043 v 16.65821 c 0,-4.89848 1.3542,-9.47793 3.705,-13.38672 v 16.63672 c 0,-4.8902 1.3517,-9.46161 3.6993,-13.36329 v 16.60938 c 0,-4.88436 1.3509,-9.44974 3.6972,-13.3457 v 16.58984 c 0,-4.87295 1.3477,-9.42718 3.6875,-13.31445 v 16.55468 c 0,-4.86916 1.3483,-9.42009 3.6895,-13.30273 v 16.53906 c 0,-4.86179 1.3468,-9.4052 3.6855,-13.28125 v 16.51563 c 0,-4.85603 1.3445,-9.39531 3.6817,-13.26563 v 16.4961 c 0,-2.26063 0.2935,-4.45177 0.8418,-6.53907 v 86.79883 h -1.1153 c -1.5979,0 -2.8847,2.20856 -2.8847,4.95117 v 1.04883 h -18.8828 c -0.059,-0.0729 -0.1,-0.16374 -0.1,-0.26562 v 0.26562 h -3.1406 c -0.1245,-1.03168 -0.197,-2.07904 -0.1972,-3.14453 -0.2004,0 -0.3672,-0.167 -0.3672,-0.37109 v 3.50781 c -0.8856,-0.011 -1.7607,-0.0661 -2.6231,-0.16211 -0.4972,-2.01114 -0.7656,-4.11143 -0.7656,-6.27734 -0.1739,-0.004 -0.3184,-0.14451 -0.3184,-0.31836 v 6.45898 c -0.6137,-0.0942 -1.2174,-0.21787 -1.8164,-0.35352 -1.0528,-2.83298 -1.6308,-5.89782 -1.6308,-9.0996 -0.1437,0 -0.2598,-0.11627 -0.2598,-0.26368 v 8.86719 c -0.2578,-0.079 -0.5112,-0.16728 -0.7656,-0.25391 -1.751,-3.50995 -2.7411,-7.46803 -2.7422,-11.66015 -0.1134,-0.004 -0.209,-0.0977 -0.209,-0.21485 v 10.0879 c -2.2597,-3.87372 -3.5586,-8.37798 -3.5586,-13.19141 -0.087,0 -0.1601,-0.0713 -0.1601,-0.1582 v 10.13867 c -2.2944,-3.89937 -3.616,-8.4425 -3.6172,-13.29883 -0.057,0 -0.1055,-0.0488 -0.1055,-0.10547 v 10.19141 c -2.3287,-3.92541 -3.6699,-8.50771 -3.6699,-13.40821 -0.03,0 -0.053,-0.0225 -0.053,-0.0527 v 10.25391 c -2.36622,-3.95309 -3.72991,-8.57927 -3.73042,-13.52735 v 63.24219 l -381.4082,203.41602 c -10.65489,5.71464 -16.08787,17.94141 -13.15235,29.65039 1.55435,6.21589 5.25074,11.43262 10.16797,14.98242 1.14663,1.21658 2.41129,2.30928 3.76367,3.28515 1.14536,1.21512 2.40873,2.30867 3.75977,3.28321 1.14517,1.21494 2.40861,2.30742 3.75976,3.28125 1.13805,1.20698 2.3925,2.29121 3.73438,3.25976 1.14521,1.21698 2.40928,2.31057 3.76172,3.28516 1.13698,1.20649 2.39106,2.29043 3.73242,3.25781 1.13764,1.20861 2.39334,2.29511 3.73633,3.26367 1.14026,1.21217 2.39903,2.29929 3.74609,3.26954 1.13695,1.20744 2.39167,2.29305 3.73438,3.25976 0.63469,0.67409 1.31018,1.30335 2.01171,1.9043 H 259.64258 c -14.56895,0 -26.35547,11.78929 -26.35547,26.35937 0,8.83008 4.33219,16.63217 10.98633,21.41407 1.14732,1.21102 2.40723,2.31158 3.76562,3.2871 1.14409,1.20751 2.40147,2.30449 3.75586,3.27735 1.14469,1.20877 2.40205,2.30802 3.75781,3.28125 1.13908,1.20247 2.39178,2.29478 3.74024,3.26367 0.11616,0.1228 0.2311,0.24667 0.34961,0.36719 v 334.10744 h -52.71485 c -14.57007,0 -26.35742,11.7893 -26.35742,26.3593 0,8.8336 4.33699,16.6386 10.9961,21.42 1.14322,1.2055 2.39932,2.3015 3.75195,3.2734 1.14445,1.209 2.40261,2.3072 3.75781,3.2812 1.14679,1.2114 2.40697,2.3122 3.76563,3.2872 1.14004,1.2032 2.39248,2.2963 3.74218,3.2656 1.1411,1.2058 2.39619,2.3027 3.74805,3.2734 1.13896,1.2032 2.39091,2.2971 3.74024,3.2656 1.1422,1.2076 2.3976,2.3046 3.75195,3.2754 1.1337,1.1974 2.3798,2.2861 3.72266,3.25 1.13907,1.2046 2.39316,2.2995 3.74414,3.2676 1.12972,1.1936 2.37063,2.2794 3.70898,3.2402 1.1392,1.2061 2.39388,2.3012 3.74609,3.2696 1.1293,1.1931 2.37046,2.2787 3.70899,3.2383 1.13127,1.1971 2.37663,2.2843 3.71875,3.246 1.12873,1.1941 2.37002,2.2788 3.70898,3.2383 1.12947,1.1958 2.37229,2.28 3.71289,3.2403 1.12651,1.1924 2.36626,2.2747 3.70313,3.2324 1.12512,1.1914 2.36367,2.2737 3.69922,3.2305 1.1284,1.1956 2.37037,2.2813 3.71093,3.2402 1.12007,1.1854 2.3504,2.2628 3.67969,3.2148 1.12422,1.1918 2.36342,2.273 3.69922,3.2285 1.11936,1.1857 2.35227,2.2617 3.68164,3.2129 1.11983,1.1871 2.35295,2.2649 3.68359,3.2168 1.11936,1.1869 2.3512,2.2636 3.68165,3.2149 1.11563,1.1826 2.34614,2.2548 3.67187,3.2031 1.11406,1.1818 2.34182,2.2537 3.66602,3.2012 1.11811,1.1872 2.3493,2.2644 3.67968,3.2148 1.11128,1.1784 2.33715,2.2471 3.65821,3.1914 1.11436,1.1829 2.34198,2.2563 3.66797,3.2032 1.11009,1.1774 2.33395,2.2447 3.65429,3.1875 1.10746,1.1753 2.32724,2.2422 3.64453,3.1835 1.11096,1.1803 2.3354,2.2515 3.65821,3.1954 1.10548,1.1732 2.32516,2.2367 3.64062,3.1757 1.10691,1.1763 2.32644,2.243 3.64453,3.1836 1.10144,1.1701 2.31601,2.2299 3.62696,3.166 1.10582,1.1764 2.32677,2.2417 3.64453,3.1817 1.10003,1.1689 2.31309,2.2293 3.62304,3.1641 1.10277,1.1729 2.32037,2.2349 3.63477,3.1718 1.09738,1.1666 2.308,2.2237 3.61523,3.1563 1.09931,1.1698 2.31247,2.2299 3.62305,3.164 1.09633,1.1663 2.30646,2.2229 3.61328,3.1543 1.09647,1.167 2.30772,2.2248 3.61524,3.1563 1.09398,1.164 2.30096,2.2192 3.60547,3.1484 1.09207,1.1626 2.29915,2.2146 3.60156,3.1426 1.09291,1.1642 2.29939,2.2198 3.60351,3.1484 1.09082,1.1617 2.29609,2.2141 3.59766,3.1407 1.08868,1.1596 2.29074,2.2099 3.58984,3.1347 1.08922,1.1606 2.29339,2.2119 3.59375,3.1367 1.08521,1.156 2.28491,2.2014 3.58008,3.1231 1.0865,1.1586 2.28631,2.2077 3.58399,3.1309 1.08234,1.1536 2.27802,2.1976 3.57031,3.1171 1.08447,1.1573 2.28413,2.2036 3.58008,3.125 1.08104,1.1531 2.27688,2.1969 3.56836,3.1153 1.08141,1.1539 2.27779,2.1987 3.57031,3.1172 1.07913,1.1512 2.27278,2.193 3.5625,3.1093 1.07709,1.1493 2.26728,2.1908 3.55469,3.1055 1.07485,1.1474 2.26393,2.1845 3.54882,3.0977 1.07852,1.1526 2.2738,2.1933 3.56446,3.1093 1.07263,1.1448 2.25841,2.1813 3.54101,3.0918 1.07259,1.1459 2.25976,2.1828 3.54297,3.0938 1.07035,1.1439 2.25449,2.1785 3.53516,3.0879 1.07182,1.1461 2.25968,2.1815 3.54297,3.0918 1.06805,1.1415 2.25094,2.1731 3.52929,3.0801 1.06964,1.1442 2.25399,2.1795 3.53516,3.0878 1.06402,1.1374 2.24197,2.1648 3.51563,3.0684 1.06821,1.1437 2.25095,2.1769 3.53124,3.084 1.06074,1.1342 2.23582,2.1578 3.50586,3.0586 1.06263,1.1382 2.2401,2.1653 3.51368,3.0683 1.06187,1.1376 2.23868,2.1642 3.51172,3.0664 1.05849,1.1339 2.23121,2.1572 3.5,3.0567 1.06255,1.1395 2.24054,2.1677 3.51562,3.0703 1.05586,1.1305 2.22639,2.1504 3.49219,3.0469 1.05932,1.1357 2.23453,2.1613 3.50586,3.0605 1.0521,1.1265 2.21707,2.1441 3.47851,3.0371 1.05438,1.131 2.22475,2.1513 3.49024,3.0469 1.05396,1.1305 2.22295,2.1502 3.48828,3.0449 1.05091,1.1268 2.21514,2.1452 3.47656,3.0371 1.04851,1.1247 2.21206,2.139 3.4707,3.0293 1.05083,1.1285 2.2179,2.1468 3.48047,3.0391 1.04681,1.123 2.20767,2.137 3.46485,3.0254 1.04713,1.1243 2.21051,2.1385 3.46875,3.0273 1.04466,1.1211 2.20384,2.1333 3.45898,3.0196 1.0413,1.1181 2.19818,2.1254 3.44922,3.0097 1.04319,1.1216 2.20256,2.1335 3.45703,3.0196 1.04089,1.1188 2.19562,2.1278 3.44727,3.0117 1.04226,1.1209 2.20097,2.1291 3.45507,3.0136 1.03705,1.1146 2.18652,2.1199 3.4336,3 1.03962,1.1187 2.19586,2.1254 3.44726,3.0079 1.03602,1.1137 2.18503,2.1192 3.43164,2.998 1.03376,1.1119 2.18373,2.1128 3.42774,2.9902 1.05428,1.1348 2.22867,2.1552 3.50195,3.045 1.03796,1.1083 2.1773,2.1182 3.42578,2.9902 1.03385,1.1037 2.16893,2.1097 3.41211,2.9785 1.03717,1.1089 2.17524,2.1206 3.42383,2.9922 1.02015,1.0894 2.146,2.0757 3.37109,2.9356 1.0355,1.112 2.17916,2.1203 3.42774,2.9941 1.02447,1.0977 2.15573,2.0907 3.38867,2.9551 1.02999,1.1063 2.16836,2.1072 3.41016,2.9765 1.02451,1.0996 2.15436,2.0961 3.38867,2.961 1.02726,1.1038 2.16346,2.1036 3.40234,2.9707 1.02475,1.1 2.15703,2.0968 3.39258,2.9609 1.02094,1.0958 2.14825,2.0882 3.37891,2.9492 1.02398,1.1005 2.15496,2.0975 3.39062,2.961 1.01856,1.0933 2.1429,2.0847 3.3711,2.9433 1.01946,1.0957 2.14669,2.0876 3.37695,2.9473 1.0166,1.0926 2.13853,2.082 3.36523,2.9394 1.01597,1.0928 2.13875,2.0803 3.36524,2.9375 1.01819,1.096 2.14283,2.0886 3.37304,2.9473 1.01316,1.0891 2.13421,2.0739 3.35743,2.9277 1.01221,1.0887 2.12901,2.0745 3.35156,2.9278 1.0119,1.0891 2.13079,2.0745 3.35351,2.9277 1.01076,1.0881 2.12805,2.0737 3.34961,2.9258 1.00993,1.0871 2.12683,2.0709 3.34766,2.9219 1.00827,1.0852 2.12287,2.0666 3.3418,2.916 1.00799,1.0851 2.12084,2.0693 3.33984,2.918 1.00313,1.0793 2.11168,2.0555 3.32422,2.9003 1.00553,1.0839 2.11716,2.0649 3.33398,2.9122 1.00244,1.0797 2.11147,2.0561 3.32422,2.9003 1.00205,1.0799 2.1095,2.0585 3.32227,2.9024 1.00034,1.0781 2.10754,2.054 3.31836,2.8965 1.0017,1.08 2.10899,2.0574 3.32226,2.9004 0.99682,1.0739 2.09809,2.0459 3.30469,2.8847 0.99497,1.0729 2.09603,2.0429 3.30078,2.8809 0.99926,1.0788 2.10488,2.0554 3.31641,2.8965 0.99315,1.0704 2.09003,2.0396 3.29297,2.875 0.9944,1.073 2.09341,2.0443 3.29882,2.8808 0.9906,1.0682 2.08674,2.0361 3.28711,2.8692 0.99215,1.0708 2.08967,2.0407 3.29297,2.875 0.98683,1.0647 2.07927,2.0291 3.27539,2.8593 0.98859,1.0684 2.0837,2.0351 3.28321,2.8672 0.98874,1.0683 2.0831,2.0358 3.2832,2.8672 0.98377,1.062 2.07428,2.0224 3.26758,2.8496 0.98342,1.0631 2.07201,2.0239 3.26562,2.8516 0.98634,1.0669 2.077,2.034 3.27539,2.8633 0.98198,1.0608 2.06946,2.0206 3.26172,2.8457 0.98024,1.0594 2.0655,2.0179 3.25586,2.8418 0.98051,1.0603 2.06643,2.0199 3.25781,2.8437 0.97776,1.0569 2.05827,2.0146 3.2461,2.836 0.97685,1.0565 2.05888,2.0113 3.24609,2.832 0.976,1.0562 2.05558,2.0118 3.24219,2.832 0.97665,1.0574 2.05999,2.0137 3.24805,2.834 0.97133,1.0503 2.04587,2.0028 3.22656,2.8184 0.97135,1.0517 2.04893,2.0022 3.23047,2.8183 0.97132,1.0523 2.04638,2.0043 3.22851,2.8203 0.97007,1.0513 2.04575,2.0014 3.22657,2.8164 0.96966,1.0507 2.04397,2.0005 3.2246,2.8145 0.96522,1.0452 2.03427,1.9924 3.20899,2.8027 0.96715,1.0488 2.03851,1.9965 3.2168,2.8086 0.96362,1.0447 2.03143,1.9896 3.20507,2.7989 0.96474,1.0466 2.03505,1.9927 3.21094,2.8027 0.96137,1.0425 2.02784,1.9859 3.19922,2.793 0.96297,1.0449 2.03075,1.991 3.20508,2.7988 0.95844,1.039 2.02141,1.9794 3.18945,2.7832 0.95683,1.0381 2.01707,1.9763 3.1836,2.7793 0.95911,1.0419 2.0228,1.9862 3.19335,2.791 0.95641,1.0381 2.01668,1.9774 3.1836,2.7793 0.95667,1.0386 2.01779,1.9777 3.18555,2.7793 0.9497,1.03 2.00203,1.9635 3.16015,2.7598 0.95556,1.0391 2.01595,1.978 3.1836,2.7793 0.95038,1.0318 2.00379,1.9673 3.16406,2.7636 0.95,1.032 2.00369,1.9658 3.16406,2.7618 0.94946,1.0317 2.00196,1.9661 3.16211,2.7617 0.94552,1.0273 1.99547,1.9557 3.15039,2.748 0.94745,1.0307 1.99968,1.9619 3.1582,2.7559 0.94442,1.027 1.99199,1.9567 3.14649,2.748 0.94263,1.0257 1.98804,1.954 3.14062,2.7442 0.94324,1.0268 1.99239,1.9538 3.14649,2.7441 0.93944,1.0224 1.98179,1.9471 3.13086,2.7344 0.94211,1.0266 1.98889,1.9549 3.14258,2.7441 0.93836,1.0213 1.97843,1.947 3.12695,2.7324 0.93794,1.0215 1.98039,1.9454 3.1289,2.7305 0.93669,1.0201 1.97592,1.9448 3.12305,2.7285 0.93421,1.0174 1.97311,1.937 3.11719,2.7188 0.93572,1.0197 1.97419,1.942 3.12109,2.7246 0.92917,1.0119 1.95987,1.9273 3.09766,2.7051 0.93226,1.0177 1.96993,1.9359 3.11328,2.7168 0.93047,1.0151 1.96437,1.9323 3.10547,2.7109 0.92763,1.0123 1.95819,1.9264 3.0957,2.7031 0.93099,1.0167 1.96634,1.9362 3.10938,2.7149 0.92355,1.0064 1.94977,1.9174 3.08203,2.6894 0.92562,1.0111 1.95354,1.9266 3.08984,2.7012 0.92598,1.0112 1.95455,1.9253 3.0918,2.6992 0.92175,1.0056 1.94478,1.9154 3.07617,2.6856 0.92035,1.0048 1.94408,1.9123 3.07422,2.6816 0.91992,1.0056 1.94201,1.9141 3.07227,2.6836 0.91926,1.0053 1.94231,1.9128 3.07226,2.6816 0.91967,1.0057 1.94133,1.9152 3.07227,2.6836 0.91729,1.0025 1.93669,1.908 3.06445,2.6739 0.91452,0.9992 1.93047,1.9043 3.05469,2.6679 0.91445,1 1.93178,1.9045 3.05664,2.668 0.90986,0.9947 1.92232,1.8941 3.04101,2.6543 0.91232,0.9994 1.92751,1.9035 3.05078,2.666 0.91186,0.9986 1.92784,1.9006 3.05079,2.6621 0.90734,0.9925 1.91655,1.8913 3.0332,2.6484 0.90849,0.9951 1.91992,1.894 3.03906,2.6524 0.905,0.9911 1.91084,1.8868 3.02539,2.6426 0.90554,0.9933 1.91507,1.8897 3.03125,2.6465 0.90596,0.9934 1.91402,1.8904 3.03125,2.6464 0.90022,0.9862 1.90257,1.8775 3.01172,2.6289 0.90255,0.9906 1.908,1.8852 3.02148,2.6387 0.90141,0.989 1.90536,1.8828 3.01758,2.6348 0.89785,0.9847 1.89847,1.8738 3.00586,2.623 0.89966,0.9876 1.90097,1.8806 3.01172,2.6309 0.89574,0.9824 1.89465,1.8723 3,2.6191 0.89587,0.9831 1.89381,1.8707 3,2.6172 0.89289,0.9798 1.88589,1.8651 2.98828,2.6094 0.89343,0.9818 1.89008,1.8682 2.99414,2.6133 0.89184,0.9799 1.88615,1.8658 2.98828,2.6094 0.88922,0.9765 1.8797,1.8604 2.97852,2.6015 0.88919,0.9776 1.88092,1.8604 2.98047,2.6016 0.88633,0.9747 1.87474,1.8545 2.9707,2.5937 0.88862,0.9787 1.88037,1.8606 2.98047,2.6016 0.8837,0.972 1.86982,1.8493 2.96289,2.5859 0.88328,0.9726 1.86953,1.8494 2.96289,2.586 0.8827,0.9727 1.86779,1.8497 2.96094,2.5859 0.88105,0.9711 1.86376,1.8472 2.95508,2.582 0.88146,0.9721 1.86645,1.8473 2.95898,2.5821 0.87821,0.9678 1.85922,1.8403 2.94727,2.5722 0.8769,0.967 1.85651,1.8392 2.94336,2.5703 0.87596,0.9665 1.85522,1.8362 2.9414,2.5664 0.87507,0.9663 1.85394,1.8367 2.93946,2.5665 0.87176,0.9623 1.84657,1.8294 2.92773,2.5566 0.87231,0.9644 1.84876,1.8326 2.93164,2.5605 0.87121,0.9633 1.8479,1.83 2.92969,2.5567 0.86938,0.9611 1.84233,1.8257 2.92187,2.5508 0.86728,0.9592 1.83888,1.8212 2.91602,2.5449 0.86707,0.9597 1.83845,1.8215 2.91602,2.5449 0.86602,0.9589 1.83541,1.8206 2.9121,2.543 0.86492,0.9579 1.83458,1.8196 2.91016,2.541 0.8619,0.9542 1.82878,1.8105 2.90039,2.5293 0.86094,0.9545 1.82541,1.8126 2.89649,2.5312 0.86193,0.9563 1.82907,1.8161 2.90234,2.5352 0.85898,0.9524 1.8234,1.8071 2.89258,2.5234 0.85711,0.9508 1.81767,1.8045 2.88476,2.5196 0.85655,0.9513 1.81967,1.8044 2.88672,2.5195 0.85472,0.9493 1.81395,1.8003 2.87891,2.5137 0.85549,0.9508 1.81601,1.8038 2.88281,2.5175 0.85086,0.945 1.80693,1.792 2.86719,2.502 0.85253,0.9484 1.8113,1.7984 2.875,2.5098 0.84984,0.9448 1.80513,1.793 2.86523,2.5019 0.84894,0.9443 1.80384,1.792 2.86328,2.5 0.30012,0.334 0.61869,0.6513 0.94532,0.959 H 2044.8242 c 1.7595,0 3.1758,-3.2774 3.1758,-7.3477 v -910.0839 c -0.4036,-0.3334 -0.8142,-0.6589 -1.2402,-0.9649 -1.0573,-1.1463 -2.2306,-2.1816 -3.5,-3.0937 -1.0581,-1.1466 -2.232,-2.1831 -3.502,-3.0957 -1.0582,-1.1473 -2.234,-2.184 -3.5039,-3.0977 -1.0638,-1.1534 -2.2442,-2.1955 -3.5215,-3.1133 -1.0613,-1.1497 -2.2386,-2.1875 -3.5117,-3.1035 -1.0645,-1.1536 -2.2462,-2.1964 -3.5234,-3.1152 -1.0671,-1.1556 -2.2511,-2.2008 -3.5313,-3.1211 -1.0639,-1.1512 -2.2444,-2.1933 -3.5195,-3.1113 -1.0682,-1.1566 -2.2524,-2.2031 -3.5332,-3.125 -1.0681,-1.1561 -2.253,-2.2011 -3.5332,-3.1231 -1.0738,-1.1622 -2.2652,-2.2144 -3.5528,-3.1406 -1.0673,-1.1533 -2.2495,-2.1982 -3.5273,-3.1192 -1.0735,-1.1615 -2.2644,-2.2119 -3.5508,-3.1386 -1.0744,-1.1617 -2.2658,-2.2115 -3.5527,-3.1387 -1.074,-1.1609 -2.263,-2.2136 -3.5488,-3.1406 -1.0798,-1.1673 -2.2769,-2.2229 -3.5704,-3.1543 -1.0754,-1.1612 -2.266,-2.2127 -3.5527,-3.1407 -1.0814,-1.1682 -2.2794,-2.2272 -3.5742,-3.1601 -1.0781,-1.1631 -2.2712,-2.2166 -3.5606,-3.1465 -1.0811,-1.1677 -2.2788,-2.2248 -3.5722,-3.1582 -1.0828,-1.169 -2.281,-2.2275 -3.5762,-3.1621 -1.0852,-1.1716 -2.2859,-2.2313 -3.584,-3.168 -1.0852,-1.1709 -2.2864,-2.2313 -3.584,-3.1679 -1.087,-1.1726 -2.2904,-2.2339 -3.5898,-3.1719 -1.0859,-1.1709 -2.2866,-2.2325 -3.584,-3.1699 -1.0907,-1.1766 -2.2978,-2.2422 -3.6016,-3.1836 -1.093,-1.1787 -2.3009,-2.2465 -3.6074,-3.1895 -1.0886,-1.1721 -2.2923,-2.2346 -3.5918,-3.1738 -1.0949,-1.1804 -2.3052,-2.2503 -3.6133,-3.1953 -1.0934,-1.1773 -2.3021,-2.2461 -3.6074,-3.1895 -1.0951,-1.1794 -2.3058,-2.2482 -3.6133,-3.1933 -1.097,-1.1813 -2.3095,-2.2526 -3.6191,-3.1993 -1.0981,-1.182 -2.3106,-2.2535 -3.6211,-3.2011 -1.0996,-1.1834 -2.3149,-2.2563 -3.6269,-3.2051 -1.1009,-1.1843 -2.316,-2.2611 -3.6289,-3.2109 -1.104,-1.1873 -2.3237,-2.2648 -3.6407,-3.2168 -1.0999,-1.1822 -2.3141,-2.2539 -3.625,-3.2032 -1.108,-1.1922 -2.3305,-2.2744 -3.6523,-3.2304 -1.1036,-1.1854 -2.3219,-2.2609 -3.6367,-3.2129 -1.1065,-1.1893 -2.328,-2.2696 -3.6465,-3.2246 -1.1088,-1.1916 -2.333,-2.2736 -3.6543,-3.23048 -1.1076,-1.18972 -2.3293,-2.27044 -3.6485,-3.22657 -1.1139,-1.19708 -2.3443,-2.28298 -3.6718,-3.24414 -1.1094,-1.19033 -2.3318,-2.27132 -3.6524,-3.22851 -1.1151,-1.19772 -2.3455,-2.28568 -3.6738,-3.24805 -1.1128,-1.19392 -2.3397,-2.27799 -3.6641,-3.23828 -1.1172,-1.19943 -2.3495,-2.28959 -3.6797,-3.25391 -1.1176,-1.19888 -2.3496,-2.28769 -3.6796,-3.25195 -1.1174,-1.19814 -2.3486,-2.28775 -3.6778,-3.25195 -1.1174,-1.19828 -2.3508,-2.28715 -3.6797,-3.25196 -1.123,-1.2051 -2.3609,-2.29998 -3.6972,-3.26953 -1.1208,-1.20137 -2.3551,-2.29417 -3.6875,-3.26172 -1.1227,-1.20318 -2.3607,-2.29656 -3.6953,-3.26562 -1.1275,-1.2085 -2.3702,-2.30646 -3.711,-3.2793 -1.1241,-1.20349 -2.3617,-2.29762 -3.6972,-3.26758 -1.1274,-1.20751 -2.3694,-2.30628 -3.709,-3.27929 -1.1286,-1.2083 -2.3721,-2.30741 -3.7129,-3.28125 -1.1286,-1.20817 -2.3705,-2.30704 -3.711,-3.28125 -1.1313,-1.21155 -2.3768,-2.31227 -3.7207,-3.28906 -1.1316,-1.21107 -2.377,-2.3141 -3.7207,-3.29102 -1.1357,-1.21565 -2.3855,-2.32257 -3.7343,-3.30274 -1.1351,-1.21341 -2.3853,-2.31593 -3.7325,-3.29492 -1.1311,-1.20895 -2.3753,-2.31041 -3.7168,-3.28711 -1.1412,-1.22161 -2.3967,-2.33301 -3.7519,-3.31836 -1.1383,-1.2163 -2.39,-2.32454 -3.7402,-3.30664 -1.1393,-1.21741 -2.393,-2.32533 -3.7442,-3.30859 -4.8077,-5.13821 -11.6467,-8.35156 -19.2461,-8.35156 h -57.1445 c -0.7142,-0.87068 -1.6154,-1.55009 -2.6191,-2.01758 -0.7734,-1.22805 -1.8779,-2.16997 -3.1524,-2.76172 -0.7724,-1.23199 -1.8807,-2.17699 -3.1602,-2.76758 -0.7709,-1.23623 -1.881,-2.18417 -3.164,-2.77344 -0.7712,-1.24301 -1.8861,-2.19096 -3.1738,-2.77734 v -0.002 c -0.7664,-1.2421 -1.8799,-2.18782 -3.166,-2.77149 0,-0.007 -0.01,-0.0145 -0.012,-0.0215 -0.7674,-1.2384 -1.8808,-2.18166 -3.166,-2.76172 -0.01,-0.0114 -0.013,-0.0237 -0.02,-0.0352 -0.7651,-1.23673 -1.8797,-2.17735 -3.166,-2.75195 -0.01,-0.0147 -0.016,-0.0303 -0.025,-0.0449 -0.7624,-1.23286 -1.8705,-2.17128 -3.1523,-2.74219 -0.013,-0.0207 -0.024,-0.0418 -0.037,-0.0625 -0.7626,-1.23137 -1.8744,-2.16632 -3.1582,-2.73242 -0.014,-0.023 -0.025,-0.0474 -0.039,-0.0703 -0.7615,-1.23008 -1.8715,-2.1649 -3.1543,-2.72657 -0.017,-0.027 -0.03,-0.0551 -0.047,-0.082 -0.7572,-1.22511 -1.8649,-2.15721 -3.1445,-2.71484 -0.02,-0.0322 -0.037,-0.0655 -0.057,-0.0977 -0.7584,-1.22378 -1.8657,-2.15274 -3.1446,-2.70507 -0.022,-0.0367 -0.042,-0.0747 -0.064,-0.11133 -0.7564,-1.22255 -1.8639,-2.14997 -3.1446,-2.69727 -0.024,-0.0387 -0.044,-0.0786 -0.068,-0.11719 -0.7537,-1.21876 -1.8565,-2.14403 -3.1328,-2.6875 -0.027,-0.0453 -0.052,-0.0916 -0.08,-0.13671 -0.7533,-1.21629 -1.8577,-2.13916 -3.1348,-2.67774 -0.029,-0.0478 -0.054,-0.0969 -0.084,-0.14453 -0.7492,-1.214 -1.8517,-2.13356 -3.1269,-2.66797 -0.033,-0.054 -0.06,-0.11028 -0.094,-0.16406 -0.7504,-1.21047 -1.8531,-2.12575 -3.1269,-2.6543 -0.035,-0.0581 -0.066,-0.118 -0.1016,-0.17578 -0.7477,-1.20799 -1.849,-2.12382 -3.123,-2.64844 -0.037,-0.0618 -0.069,-0.12605 -0.1074,-0.1875 -0.7458,-1.20545 -1.844,-2.11741 -3.1153,-2.63672 -0.04,-0.0666 -0.076,-0.13493 -0.1172,-0.20117 -0.7456,-1.20344 -1.8446,-2.11287 -3.1172,-2.62695 -0.042,-0.0697 -0.078,-0.14165 -0.121,-0.21094 -0.7413,-1.20071 -1.8382,-2.10734 -3.1075,-2.61719 -0.045,-0.0756 -0.086,-0.15333 -0.1328,-0.22851 -0.7405,-1.19773 -1.838,-2.09877 -3.1074,-2.60352 -0.048,-0.0799 -0.089,-0.16276 -0.1387,-0.24218 -0.738,-1.19427 -1.8313,-2.09116 -3.0957,-2.5918 -0.052,-0.0867 -0.097,-0.17565 -0.1504,-0.26172 -0.7363,-1.18969 -1.8304,-2.08142 -3.0937,-2.57617 -0.055,-0.0919 -0.1037,-0.18616 -0.1602,-0.27735 -0.7325,-1.18557 -1.8245,-2.07351 -3.0859,-2.56445 -0.058,-0.097 -0.1084,-0.19676 -0.168,-0.29297 -0.7325,-1.18215 -1.8214,-2.06514 -3.0781,-2.55078 -0.061,-0.10306 -0.1164,-0.20835 -0.1797,-0.31055 -0.7315,-1.17863 -1.822,-2.05662 -3.0781,-2.53711 -0.064,-0.10856 -0.1209,-0.22048 -0.1875,-0.32812 -0.7271,-1.17358 -1.8153,-2.04773 -3.0684,-2.52344 -0.067,-0.11342 -0.1277,-0.22941 -0.1972,-0.34179 -0.726,-1.17239 -1.8143,-2.04092 -3.0665,-2.51172 -0.071,-0.11965 -0.1336,-0.24283 -0.207,-0.36133 -0.7222,-1.16833 -1.8081,-2.03238 -3.0586,-2.49805 -0.073,-0.12387 -0.1388,-0.2504 -0.2148,-0.37305 -0.7198,-1.16491 -1.8041,-2.02415 -3.0508,-2.48437 -0.077,-0.13037 -0.1467,-0.26355 -0.2266,-0.39258 -0.7216,-1.16463 -1.8045,-2.02166 -3.0507,-2.47656 -0.079,-0.13377 -0.1504,-0.27 -0.2325,-0.40234 -0.717,-1.15932 -1.7981,-2.01091 -3.041,-2.46094 -0.083,-0.14077 -0.1579,-0.28462 -0.2441,-0.42383 -0.7149,-1.15634 -1.7937,-2.00096 -3.0332,-2.44531 -0.086,-0.1468 -0.1641,-0.2963 -0.2539,-0.44141 -0.7144,-1.15354 -1.7933,-1.99697 -3.0332,-2.43555 -0.089,-0.15192 -0.1708,-0.3069 -0.2637,-0.45703 -0.7097,-1.14821 -1.7849,-1.98436 -3.0215,-2.41797 -0.092,-0.15846 -0.1766,-0.32004 -0.2734,-0.47656 -0.7092,-1.14541 -1.7856,-1.98049 -3.0215,-2.4082 -0.094,-0.16177 -0.1805,-0.32659 -0.2793,-0.48633 -0.7071,-1.14263 -1.7828,-1.97077 -3.0156,-2.39258 -0.098,-0.16868 -0.1879,-0.34133 -0.2911,-0.50781 -0.7027,-1.13778 -1.7756,-1.96321 -3.0058,-2.38086 -0.1007,-0.17364 -0.1947,-0.35017 -0.3008,-0.52148 -0.7005,-1.13474 -1.7712,-1.95542 -2.998,-2.36719 -0.1046,-0.18078 -0.2022,-0.3647 -0.3125,-0.54297 -0.6994,-1.12835 -1.7695,-1.94385 -2.9942,-2.34961 -0.107,-0.18536 -0.2072,-0.37391 -0.3203,-0.55664 -0.6981,-1.12956 -1.7686,-1.94239 -2.9922,-2.3418 -0.11,-0.19083 -0.2136,-0.3842 -0.3301,-0.57226 -0.6937,-1.12477 -1.7613,-1.93225 -2.9824,-2.32617 -0.1133,-0.19706 -0.2196,-0.39769 -0.3398,-0.5918 -0.6925,-1.12068 -1.76,-1.92441 -2.9785,-2.3125 -0.1159,-0.20165 -0.2246,-0.4069 -0.3477,-0.60547 -0.6904,-1.11533 -1.7551,-1.91478 -2.9707,-2.29883 -0.1196,-0.20868 -0.2321,-0.4196 -0.3594,-0.625 -0.6896,-1.11196 -1.7511,-1.91064 -2.9668,-2.28711 -0.1219,-0.21328 -0.2372,-0.4288 -0.3672,-0.63867 -0.681,-1.09864 -1.727,-1.88503 -2.9238,-2.25977 -0.018,-0.0136 -0.035,-0.0274 -0.053,-0.041 -0.1201,-0.20965 -0.2336,-0.42256 -0.3614,-0.62891 -0.6698,-1.07898 -1.6948,-1.85383 -2.8691,-2.23047 -0.042,-0.033 -0.084,-0.067 -0.1269,-0.0996 -0.1158,-0.20125 -0.2249,-0.40527 -0.3477,-0.60351 -0.6546,-1.06037 -1.6619,-1.82255 -2.8145,-2.19922 -0.065,-0.051 -0.1292,-0.10415 -0.1953,-0.1543 -0.1119,-0.19419 -0.2174,-0.39066 -0.3359,-0.58203 -0.6447,-1.04511 -1.6332,-1.79764 -2.7656,-2.17187 -0.087,-0.0677 -0.1719,-0.13875 -0.2598,-0.20508 -0.1079,-0.18662 -0.2083,-0.37654 -0.3223,-0.56055 -0.6341,-1.02855 -1.6035,-1.76998 -2.7129,-2.14453 -0.1105,-0.0864 -0.2177,-0.17756 -0.33,-0.26172 -0.1038,-0.17892 -0.2012,-0.36059 -0.3106,-0.53711 -0.624,-1.00765 -1.5714,-1.74214 -2.6601,-2.11718 -0.1333,-0.10433 -0.2628,-0.21343 -0.3985,-0.31446 -0.1,-0.1711 -0.1922,-0.34477 -0.2968,-0.51367 -0.6137,-0.99152 -1.5431,-1.71208 -2.6094,-2.08594 -0.1549,-0.12143 -0.3048,-0.24825 -0.4629,-0.36523 -0.097,-0.1663 -0.1854,-0.33577 -0.2871,-0.5 -0.6006,-0.97247 -1.5112,-1.68314 -2.5567,-2.05664 -0.1776,-0.13959 -0.3513,-0.28424 -0.5332,-0.41797 -0.093,-0.15853 -0.1784,-0.31992 -0.2754,-0.47656 -0.5907,-0.9547 -1.4815,-1.65862 -2.5058,-2.03125 -0.1971,-0.15508 -0.3916,-0.31308 -0.5938,-0.46094 -0.09,-0.15442 -0.1731,-0.31221 -0.2675,-0.46484 -0.5812,-0.93977 -1.4534,-1.63124 -2.4571,-2.00196 -0.2163,-0.17048 -0.4319,-0.34209 -0.6543,-0.5039 -0.088,-0.1504 -0.1676,-0.30442 -0.2597,-0.45313 -0.5706,-0.92072 -1.4223,-1.60267 -2.4043,-1.97265 -0.2371,-0.18726 -0.4743,-0.37396 -0.7188,-0.55079 -0.085,-0.1457 -0.1627,-0.29533 -0.2519,-0.43945 -0.5575,-0.90161 -1.3896,-1.57237 -2.3496,-1.94141 -0.2585,-0.20448 -0.5181,-0.40748 -0.7852,-0.59961 -0.082,-0.1401 -0.1583,-0.28321 -0.2441,-0.42187 -0.5479,-0.88663 -1.3614,-1.54909 -2.3008,-1.91602 -0.2764,-0.21905 -0.5555,-0.43375 -0.8418,-0.63867 -0.081,-0.13814 -0.1556,-0.27929 -0.2403,-0.41601 -0.5365,-0.86417 -1.3287,-1.51795 -2.2441,-1.88477 -0.2837,-0.22534 -0.573,-0.44386 -0.8672,-0.6543 -0.025,-0.0275 -0.049,-0.0566 -0.074,-0.084 -0.069,-0.11544 -0.1303,-0.23321 -0.2012,-0.34766 -0.5225,-0.84585 -1.2932,-1.48647 -2.1855,-1.85156 -0.2917,-0.23231 -0.5879,-0.45921 -0.8906,-0.67578 -0.048,-0.0516 -0.097,-0.10126 -0.1446,-0.15234 -0.058,-0.0976 -0.1099,-0.19807 -0.1699,-0.29493 -0.5083,-0.82107 -1.2534,-1.44387 -2.1152,-1.80859 -0.3034,-0.24256 -0.6104,-0.47952 -0.9258,-0.70508 -0.067,-0.073 -0.139,-0.1409 -0.207,-0.21289 -0.05,-0.0832 -0.093,-0.16926 -0.1446,-0.25195 -0.4941,-0.79877 -1.215,-1.40442 -2.0468,-1.76758 -0.3136,-0.25173 -0.6326,-0.49497 -0.959,-0.72852 -0.091,-0.0988 -0.1867,-0.19206 -0.2793,-0.28906 -0.039,-0.065 -0.073,-0.13259 -0.1133,-0.19726 -0.48,-0.77781 -1.1788,-1.36909 -1.9863,-1.73047 -0.3193,-0.25692 -0.6441,-0.50607 -0.9766,-0.74414 -0.1165,-0.12673 -0.2401,-0.24543 -0.3594,-0.36914 -0.028,-0.0462 -0.052,-0.0945 -0.08,-0.14063 -0.4662,-0.75378 -1.1393,-1.33168 -1.9179,-1.6914 -0.3288,-0.26555 -0.6649,-0.52203 -1.0078,-0.76758 -0.1376,-0.14953 -0.2825,-0.29022 -0.4239,-0.43555 -0.019,-0.0315 -0.035,-0.0643 -0.055,-0.0957 -0.4504,-0.73017 -1.1009,-1.29122 -1.8515,-1.64844 -0.3402,-0.27572 -0.6857,-0.54258 -1.041,-0.79687 -0.1613,-0.17511 -0.3316,-0.34041 -0.4981,-0.50977 -0.01,-0.0114 -0.012,-0.0237 -0.02,-0.0352 -0.4359,-0.70695 -1.059,-1.25289 -1.7793,-1.60742 -0.3486,-0.28366 -0.7038,-0.55717 -1.0684,-0.81836 -0.1836,-0.19942 -0.376,-0.38808 -0.5664,-0.58008 -0.4239,-0.67672 -1.0219,-1.20661 -1.7109,-1.55664 -0.3578,-0.29206 -0.725,-0.57142 -1.0996,-0.83984 -0.2134,-0.23172 -0.4358,-0.45411 -0.6582,-0.67578 -0.4055,-0.62081 -0.9597,-1.11263 -1.5977,-1.44531 -0.3631,-0.29727 -0.7347,-0.58259 -1.1152,-0.85547 -0.2508,-0.27244 -0.5123,-0.53244 -0.7754,-0.79102 -0.3818,-0.55027 -0.8782,-0.99788 -1.4512,-1.30859 -0.3758,-0.30904 -0.7618,-0.60378 -1.1562,-0.88672 -0.2803,-0.30437 -0.5716,-0.59575 -0.8672,-0.88281 -0.3608,-0.49885 -0.8168,-0.90979 -1.3418,-1.20118 -0.3841,-0.31666 -0.7781,-0.61684 -1.1817,-0.90625 -0.3106,-0.33733 -0.6313,-0.66439 -0.9609,-0.98046 -0.3191,-0.41835 -0.7109,-0.76467 -1.1523,-1.0293 -0.4141,-0.34509 -0.8425,-0.66918 -1.2793,-0.98242 -0.3367,-0.36515 -0.6844,-0.71833 -1.043,-1.0586 -0.2824,-0.35656 -0.6216,-0.65472 -0.998,-0.89453 -0.4347,-0.36529 -0.8858,-0.707 -1.3457,-1.03711 -0.3702,-0.40178 -0.7558,-0.78652 -1.1524,-1.1582 -0.2452,-0.2926 -0.5302,-0.54236 -0.8418,-0.75195 -0.456,-0.38596 -0.928,-0.7486 -1.4121,-1.09571 -0.4005,-0.43412 -0.8227,-0.84516 -1.2539,-1.24414 -0.2114,-0.23866 -0.4465,-0.45143 -0.7051,-0.63086 -0.4646,-0.39479 -0.9456,-0.76662 -1.4394,-1.12109 -0.4462,-0.4837 -0.9165,-0.93888 -1.4004,-1.37891 -0.1565,-0.1633 -0.3213,-0.31659 -0.502,-0.44922 -0.4843,-0.4144 -0.9858,-0.80729 -1.5019,-1.17773 -0.4925,-0.53397 -1.0165,-1.03487 -1.5547,-1.51563 0,-0.002 -0.01,-0.004 -0.01,-0.006 -0.5912,-0.52743 -1.205,-1.02622 -1.8457,-1.48633 -1.0369,-1.124 -2.1834,-2.12728 -3.4121,-3.00977 -1.0374,-1.12451 -2.185,-2.12854 -3.4141,-3.01172 -1.0394,-1.12581 -2.1872,-2.13101 -3.418,-3.01562 -1.0403,-1.12707 -2.1903,-2.13375 -3.4218,-3.01953 -1.0441,-1.13112 -2.1971,-2.14272 -3.4336,-3.03125 -1.0412,-1.12725 -2.1917,-2.13477 -3.4239,-3.02149 -1.0444,-1.13056 -2.1975,-2.14009 -3.4336,-3.02929 -1.0452,-1.13146 -2.2005,-2.14311 -3.4375,-3.03321 -1.0471,-1.13314 -2.2064,-2.14739 -3.4453,-3.03906 -1.0477,-1.1332 -2.2042,-2.14704 -3.4433,-3.03906 -1.0484,-1.13417 -2.2074,-2.14798 -3.4473,-3.04102 -1.0532,-1.13884 -2.2151,-2.15832 -3.4609,-3.05469 -1.0467,-1.13057 -2.2031,-2.14145 -3.4395,-3.0332 -1.0589,-1.14593 -2.2272,-2.17078 -3.4805,-3.07226 -1.0501,-1.13361 -2.2088,-2.14883 -3.4492,-3.04297 -1.0572,-1.14282 -2.2248,-2.16593 -3.4746,-3.06641 -1.0554,-1.14003 -2.22,-2.15952 -3.4668,-3.05859 -1.0561,-1.14053 -2.2215,-2.16045 -3.4687,-3.06055 -1.061,-1.14652 -2.2328,-2.17213 -3.4864,-3.07617 -1.0602,-1.14463 -2.2302,-2.16891 -3.4824,-3.07227 -1.0605,-1.14465 -2.2306,-2.16872 -3.4824,-3.07226 -1.065,-1.14921 -2.2388,-2.17906 -3.4961,-3.08594 -1.0646,-1.14826 -2.2374,-2.17552 -3.4941,-3.08203 -1.0666,-1.14981 -2.2413,-2.18012 -3.5,-3.08789 -1.0673,-1.14968 -2.2432,-2.18147 -3.502,-3.08985 -1.0667,-1.14902 -2.2402,-2.17957 -3.498,-3.08789 -1.0698,-1.1521 -2.2484,-2.18503 -3.5098,-3.0957 -1.0706,-1.15363 -2.2491,-2.18967 -3.5117,-3.10156 -1.073,-1.15533 -2.2564,-2.19006 -3.5215,-3.10352 -1.0743,-1.1561 -2.255,-2.19527 -3.5215,-3.10937 -1.0719,-1.15257 -2.2511,-2.18726 -3.5137,-3.09961 -1.0793,-1.16172 -2.2666,-2.20454 -3.539,-3.12305 -1.0728,-1.15269 -2.253,-2.1881 -3.5157,-3.10156 -1.0815,-1.16379 -2.2722,-2.20839 -3.5468,-3.12891 -1.0782,-1.1582 -2.2641,-2.19778 -3.5332,-3.11523 -1.0802,-1.16082 -2.2654,-2.20521 -3.5371,-3.125 -1.0829,-1.16377 -2.2738,-2.20896 -3.5489,-3.13086 -1.081,-1.16043 -2.2695,-2.20458 -3.541,-3.125 -1.0866,-1.16726 -2.2816,-2.21366 -3.5605,-3.13867 -1.0879,-1.16809 -2.2824,-2.21696 -3.5625,-3.14258 -1.0876,-1.16658 -2.2812,-2.21745 -3.5606,-3.14258 -1.089,-1.16809 -2.2839,-2.22015 -3.5644,-3.14648 -1.0858,-1.16394 -2.2767,-2.21047 -3.5528,-3.13477 -1.0939,-1.17395 -2.2953,-2.22907 -3.582,-3.16016 -1.0911,-1.16935 -2.288,-2.21998 -3.5703,-3.14843 -1.0938,-1.17313 -2.2942,-2.22877 -3.5801,-3.16016 -1.0962,-1.17488 -2.2996,-2.23337 -3.5879,-3.16602 -1.0917,-1.1689 -2.2887,-2.22275 -3.5703,-3.15234 -1.1022,-1.18124 -2.3121,-2.24406 -3.6074,-3.18164 -1.0979,-1.17448 -2.3009,-2.23058 -3.5899,-3.16406 -1.1003,-1.17784 -2.3055,-2.23964 -3.5976,-3.17578 -1.0987,-1.17522 -2.3026,-2.2349 -3.5918,-3.16993 -1.1021,-1.18005 -2.3117,-2.24314 -3.6055,-3.18164 -1.1067,-1.18419 -2.3199,-2.25208 -3.6191,-3.19336 -1.1019,-1.17789 -2.3093,-2.24001 -3.6016,-3.17773 -1.1076,-1.18475 -2.3231,-2.25286 -3.623,-3.19531 -1.108,-1.18377 -2.3196,-2.2532 -3.6192,-3.19532 -1.1072,-1.18296 -2.3208,-2.24933 -3.6191,-3.1914 -1.109,-1.18488 -2.3228,-2.25347 -3.6231,-3.19727 -1.1113,-1.18726 -2.328,-2.25742 -3.6308,-3.20312 -1.1112,-1.18721 -2.3285,-2.25701 -3.6309,-3.20313 -1.1145,-1.19093 -2.3339,-2.266 -3.6406,-3.21484 -1.1151,-1.19052 -2.3359,-2.26599 -3.6426,-3.21484 -1.1199,-1.19484 -2.3458,-2.27284 -3.6582,-3.22461 -1.1139,-1.18726 -2.3308,-2.26153 -3.6348,-3.20899 -1.1199,-1.19534 -2.3457,-2.27351 -3.6582,-3.22656 -1.1173,-1.19117 -2.3386,-2.26788 -3.6464,-3.21875 -1.1243,-1.19943 -2.3529,-2.28187 -3.67,-3.23828 -1.1219,-1.19541 -2.3469,-2.27628 -3.6601,-3.23047 -1.1227,-1.19614 -2.3505,-2.27729 -3.6641,-3.23242 -1.1274,-1.20134 -2.3599,-2.28738 -3.6797,-3.2461 -1.124,-1.19627 -2.3516,-2.27846 -3.666,-3.23437 -1.1283,-1.20179 -2.3596,-2.28817 -3.6797,-3.24805 -1.1273,-1.20021 -2.3595,-2.28482 -3.6777,-3.24414 -1.1333,-1.20694 -2.3713,-2.29783 -3.6973,-3.26172 -1.1305,-1.20218 -2.3641,-2.29082 -3.6855,-3.25195 -1.1328,-1.20495 -2.3691,-2.29641 -3.6934,-3.25977 -4.9281,-5.24123 -11.8376,-8.30468 -19.1836,-8.30468 v 0 h -118.3457 c -0.597,-0.52328 -1.2159,-1.02066 -1.8594,-1.48828 -1.1348,-1.21375 -2.3833,-2.31756 -3.7304,-3.29688 -1.136,-1.21489 -2.3862,-2.32032 -3.7344,-3.30078 -1.1367,-1.2154 -2.3876,-2.32156 -3.7363,-3.30274 -1.1408,-1.21958 -2.3942,-2.33029 -3.7481,-3.31445 -1.1393,-1.21686 -2.391,-2.32585 -3.7422,-3.30859 -4.8069,-5.13515 -11.6431,-8.34492 -19.2421,-8.34571 z"
         style="font-style:normal;font-variant:normal;font-weight:normal;font-stretch:normal;font-size:16.2192px;line-height:1.25;font-family:'Roboto Condensed';-inkscape-font-specification:'Roboto Condensed, Normal';font-variant-ligatures:normal;font-variant-caps:normal;font-variant-numeric:normal;font-variant-east-asian:normal;text-align:center;letter-spacing:0px;word-spacing:0px;text-anchor:middle;fill:#000001;fill-opacity:0.247059;stroke:none;stroke-width:1.97039"
         id="path2145" />
      <g
         id="g1187"
         transform="matrix(0.8717076,0,0,0.8717076,-116.2655,-27.200541)">
        <g
           id="g1033">
          <g
             id="g837">
            <path
               id="path835"
               d="m 304.945,144 6.211,-12.422 c 1.242,-2.477 1.109,-5.422 -0.352,-7.781 C 309.344,121.437 306.773,120 304,120 h -48 c -4.422,0 -8,3.578 -8,8 v 32 c 0,4.422 3.578,8 8,8 h 48 c 2.773,0 5.344,-1.438 6.805,-3.797 1.461,-2.359 1.594,-5.305 0.352,-7.781 z"
               style="fill:#ff4f19" />
          </g>
          <g
             id="g843">
            <g
               id="g841">
              <path
                 id="path839"
                 d="m 256,192 c -4.422,0 -8,-3.578 -8,-8 v -64 c 0,-4.422 3.578,-8 8,-8 4.422,0 8,3.578 8,8 v 64 c 0,4.422 -3.578,8 -8,8 z"
                 style="fill:#5c546a" />
            </g>
          </g>
          <g
             id="g847">
            <rect
               id="rect845"
               height="112"
               width="128"
               style="fill:#868491"
               y="272"
               x="360" />
          </g>
          <g
             id="g851">
            <rect
               id="rect849"
               height="112"
               width="128"
               style="fill:#868491"
               y="272"
               x="24" />
          </g>
          <g
             id="g857">
            <g
               id="g855">
              <path
                 id="path853"
                 d="m 344,280 h 144 c 4.422,0 8,-3.578 8,-8 0,-4.422 -3.578,-8 -8,-8 H 344 c -4.422,0 -8,3.578 -8,8 0,4.422 3.578,8 8,8 z"
                 style="fill:#b4b6bc" />
            </g>
          </g>
          <g
             id="g863">
            <g
               id="g861">
              <path
                 id="path859"
                 d="M 168,280 H 24 c -4.422,0 -8,-3.578 -8,-8 0,-4.422 3.578,-8 8,-8 h 144 c 4.422,0 8,3.578 8,8 0,4.422 -3.578,8 -8,8 z"
                 style="fill:#b4b6bc" />
            </g>
          </g>
          <g
             id="g913">
            <g
               id="g869">
              <g
                 id="g867">
                <path
                   id="path865"
                   d="m 384,368 c 4.422,0 8,-3.578 8,-8 v -8 c 0,-4.422 -3.578,-8 -8,-8 -4.422,0 -8,3.578 -8,8 v 8 c 0,4.422 3.578,8 8,8 z"
                   style="fill:#5c546a" />
              </g>
            </g>
            <g
               id="g875">
              <g
                 id="g873">
                <path
                   id="path871"
                   d="m 408,368 c 4.422,0 8,-3.578 8,-8 v -8 c 0,-4.422 -3.578,-8 -8,-8 -4.422,0 -8,3.578 -8,8 v 8 c 0,4.422 3.578,8 8,8 z"
                   style="fill:#5c546a" />
              </g>
            </g>
            <g
               id="g881">
              <g
                 id="g879">
                <path
                   id="path877"
                   d="m 432,368 c 4.422,0 8,-3.578 8,-8 v -8 c 0,-4.422 -3.578,-8 -8,-8 -4.422,0 -8,3.578 -8,8 v 8 c 0,4.422 3.578,8 8,8 z"
                   style="fill:#5c546a" />
              </g>
            </g>
            <g
               id="g887">
              <g
                 id="g885">
                <path
                   id="path883"
                   d="m 456,368 c 4.422,0 8,-3.578 8,-8 v -8 c 0,-4.422 -3.578,-8 -8,-8 -4.422,0 -8,3.578 -8,8 v 8 c 0,4.422 3.578,8 8,8 z"
                   style="fill:#5c546a" />
              </g>
            </g>
            <g
               id="g893">
              <g
                 id="g891">
                <path
                   id="path889"
                   d="m 384,336 c 4.422,0 8,-3.578 8,-8 v -24 c 0,-4.422 -3.578,-8 -8,-8 -4.422,0 -8,3.578 -8,8 v 24 c 0,4.422 3.578,8 8,8 z"
                   style="fill:#5c546a" />
              </g>
            </g>
            <g
               id="g899">
              <g
                 id="g897">
                <path
                   id="path895"
                   d="m 408,336 c 4.422,0 8,-3.578 8,-8 v -24 c 0,-4.422 -3.578,-8 -8,-8 -4.422,0 -8,3.578 -8,8 v 24 c 0,4.422 3.578,8 8,8 z"
                   style="fill:#5c546a" />
              </g>
            </g>
            <g
               id="g905">
              <g
                 id="g903">
                <path
                   id="path901"
                   d="m 432,336 c 4.422,0 8,-3.578 8,-8 v -24 c 0,-4.422 -3.578,-8 -8,-8 -4.422,0 -8,3.578 -8,8 v 24 c 0,4.422 3.578,8 8,8 z"
                   style="fill:#5c546a" />
              </g>
            </g>
            <g
               id="g911">
              <g
                 id="g909">
                <path
                   id="path907"
                   d="m 456,336 c 4.422,0 8,-3.578 8,-8 v -24 c 0,-4.422 -3.578,-8 -8,-8 -4.422,0 -8,3.578 -8,8 v 24 c 0,4.422 3.578,8 8,8 z"
                   style="fill:#5c546a" />
              </g>
            </g>
          </g>
          <g
             id="g917">
            <polygon
               id="polygon915"
               points="256,188.804 152,244.266 360,244.266 "
               style="fill:#b4b6bc" />
          </g>
          <g
             id="g921">
            <rect
               id="rect919"
               height="144"
               width="192"
               style="fill:#868491"
               y="248"
               x="159.78101" />
          </g>
          <g
             id="g927">
            <g
               id="g925">
              <path
                 id="path923"
                 d="m 256,400 c -4.422,0 -8,-3.578 -8,-8 V 248 c 0,-4.422 3.578,-8 8,-8 4.422,0 8,3.578 8,8 v 144 c 0,4.422 -3.578,8 -8,8 z"
                 style="fill:#b4b6bc" />
            </g>
          </g>
          <g
             id="g933">
            <g
               id="g931">
              <path
                 id="path929"
                 d="m 224,400 c -4.422,0 -8,-3.578 -8,-8 V 248 c 0,-4.422 3.578,-8 8,-8 4.422,0 8,3.578 8,8 v 144 c 0,4.422 -3.578,8 -8,8 z"
                 style="fill:#b4b6bc" />
            </g>
          </g>
          <g
             id="g939">
            <g
               id="g937">
              <path
                 id="path935"
                 d="m 192,400 c -4.422,0 -8,-3.578 -8,-8 V 248 c 0,-4.422 3.578,-8 8,-8 4.422,0 8,3.578 8,8 v 144 c 0,4.422 -3.578,8 -8,8 z"
                 style="fill:#b4b6bc" />
            </g>
          </g>
          <g
             id="g945">
            <g
               id="g943">
              <path
                 id="path941"
                 d="m 320,400 c -4.422,0 -8,-3.578 -8,-8 V 248 c 0,-4.422 3.578,-8 8,-8 4.422,0 8,3.578 8,8 v 144 c 0,4.422 -3.578,8 -8,8 z"
                 style="fill:#b4b6bc" />
            </g>
          </g>
          <g
             id="g951">
            <g
               id="g949">
              <path
                 id="path947"
                 d="m 288,400 c -4.422,0 -8,-3.578 -8,-8 V 248 c 0,-4.422 3.578,-8 8,-8 4.422,0 8,3.578 8,8 v 144 c 0,4.422 -3.578,8 -8,8 z"
                 style="fill:#b4b6bc" />
            </g>
          </g>
          <g
             id="g957">
            <g
               id="g955">
              <path
                 id="path953"
                 d="m 352,400 c -4.422,0 -8,-3.578 -8,-8 V 248 c 0,-4.422 3.578,-8 8,-8 4.422,0 8,3.578 8,8 v 144 c 0,4.422 -3.578,8 -8,8 z"
                 style="fill:#b4b6bc" />
            </g>
          </g>
          <g
             id="g963">
            <g
               id="g961">
              <path
                 id="path959"
                 d="m 160,400 c -4.422,0 -8,-3.578 -8,-8 V 248 c 0,-4.422 3.578,-8 8,-8 4.422,0 8,3.578 8,8 v 144 c 0,4.422 -3.578,8 -8,8 z"
                 style="fill:#b4b6bc" />
            </g>
          </g>
          <g
             id="g969">
            <g
               id="g967">
              <path
                 id="path965"
                 d="M 376,256 H 136 c -3.672,0 -6.867,-2.5 -7.758,-6.063 -0.891,-3.555 0.758,-7.266 3.992,-9 l 120,-64 c 2.359,-1.25 5.172,-1.25 7.531,0 l 120,64 c 3.234,1.734 4.883,5.445 3.992,9 C 382.867,253.5 379.672,256 376,256 Z M 168,240 h 176 l -88,-46.93 z"
                 style="fill:#868491" />
            </g>
          </g>
          <g
             id="g1019">
            <g
               id="g975">
              <g
                 id="g973">
                <path
                   id="path971"
                   d="m 128,368 c -4.422,0 -8,-3.578 -8,-8 v -8 c 0,-4.422 3.578,-8 8,-8 4.422,0 8,3.578 8,8 v 8 c 0,4.422 -3.578,8 -8,8 z"
                   style="fill:#5c546a" />
              </g>
            </g>
            <g
               id="g981">
              <g
                 id="g979">
                <path
                   id="path977"
                   d="m 104,368 c -4.422,0 -8,-3.578 -8,-8 v -8 c 0,-4.422 3.578,-8 8,-8 4.422,0 8,3.578 8,8 v 8 c 0,4.422 -3.578,8 -8,8 z"
                   style="fill:#5c546a" />
              </g>
            </g>
            <g
               id="g987">
              <g
                 id="g985">
                <path
                   id="path983"
                   d="m 80,368 c -4.422,0 -8,-3.578 -8,-8 v -8 c 0,-4.422 3.578,-8 8,-8 4.422,0 8,3.578 8,8 v 8 c 0,4.422 -3.578,8 -8,8 z"
                   style="fill:#5c546a" />
              </g>
            </g>
            <g
               id="g993">
              <g
                 id="g991">
                <path
                   id="path989"
                   d="m 56,368 c -4.422,0 -8,-3.578 -8,-8 v -8 c 0,-4.422 3.578,-8 8,-8 4.422,0 8,3.578 8,8 v 8 c 0,4.422 -3.578,8 -8,8 z"
                   style="fill:#5c546a" />
              </g>
            </g>
            <g
               id="g999">
              <g
                 id="g997">
                <path
                   id="path995"
                   d="m 128,336 c -4.422,0 -8,-3.578 -8,-8 v -24 c 0,-4.422 3.578,-8 8,-8 4.422,0 8,3.578 8,8 v 24 c 0,4.422 -3.578,8 -8,8 z"
                   style="fill:#5c546a" />
              </g>
            </g>
            <g
               id="g1005">
              <g
                 id="g1003">
                <path
                   id="path1001"
                   d="m 104,336 c -4.422,0 -8,-3.578 -8,-8 v -24 c 0,-4.422 3.578,-8 8,-8 4.422,0 8,3.578 8,8 v 24 c 0,4.422 -3.578,8 -8,8 z"
                   style="fill:#5c546a" />
              </g>
            </g>
            <g
               id="g1011">
              <g
                 id="g1009">
                <path
                   id="path1007"
                   d="m 80,336 c -4.422,0 -8,-3.578 -8,-8 v -24 c 0,-4.422 3.578,-8 8,-8 4.422,0 8,3.578 8,8 v 24 c 0,4.422 -3.578,8 -8,8 z"
                   style="fill:#5c546a" />
              </g>
            </g>
            <g
               id="g1017">
              <g
                 id="g1015">
                <path
                   id="path1013"
                   d="m 56,336 c -4.422,0 -8,-3.578 -8,-8 v -24 c 0,-4.422 3.578,-8 8,-8 4.422,0 8,3.578 8,8 v 24 c 0,4.422 -3.578,8 -8,8 z"
                   style="fill:#5c546a" />
              </g>
            </g>
          </g>
          <g
             id="g1025">
            <g
               id="g1023">
              <path
                 id="path1021"
                 d="m 271.781,232 h -31.562 c -4.422,0 -8,-3.578 -8,-8 0,-4.422 3.578,-8 8,-8 h 31.562 c 4.422,0 8,3.578 8,8 0,4.422 -3.578,8 -8,8 z"
                 style="fill:#868491" />
            </g>
          </g>
          <g
             id="g1031">
            <g
               id="g1029">
              <path
                 id="path1027"
                 d="M 504,400 H 8 c -4.422,0 -8,-3.578 -8,-8 0,-4.422 3.578,-8 8,-8 h 496 c 4.422,0 8,3.578 8,8 0,4.422 -3.578,8 -8,8 z"
                 style="fill:#5c546a" />
            </g>
          </g>
        </g>
        <g
           id="g1035" />
        <g
           id="g1037" />
        <g
           id="g1039" />
        <g
           id="g1041" />
        <g
           id="g1043" />
        <g
           id="g1045" />
        <g
           id="g1047" />
        <g
           id="g1049" />
        <g
           id="g1051" />
        <g
           id="g1053" />
        <g
           id="g1055" />
        <g
           id="g1057" />
        <g
           id="g1059" />
        <g
           id="g1061" />
        <g
           id="g1063" />
      </g>
      <text
         xml:space="preserve"
         style="font-style:normal;font-weight:normal;font-size:61.7308px;line-height:1.25;font-family:sans-serif;letter-spacing:0px;word-spacing:0px;fill:#5c546a;fill-opacity:1;stroke:none;stroke-width:1.54327"
         x="106.10593"
         y="371.47626"
         id="text1529"><tspan
           sodipodi:role="line"
           x="106.10593"
           y="371.47626"
           style="font-style:normal;font-variant:normal;font-weight:normal;font-stretch:normal;font-size:61.7308px;font-family:'Roboto Condensed';-inkscape-font-specification:'Roboto Condensed, Normal';font-variant-ligatures:normal;font-variant-caps:normal;font-variant-numeric:normal;font-variant-east-asian:normal;text-align:center;text-anchor:middle;fill:#5c546a;fill-opacity:1;stroke-width:1.54327"
           id="tspan1535">MATRICOLE</tspan></text>
      <text
         id="text1543"
         y="398.07162"
         x="106.46643"
         style="font-style:normal;font-weight:normal;font-size:23.9031px;line-height:1.25;font-family:sans-serif;letter-spacing:0px;word-spacing:0px;fill:#5c546a;fill-opacity:1;stroke:none;stroke-width:0.597579"
         xml:space="preserve"><tspan
           id="tspan1541"
           style="font-style:normal;font-variant:normal;font-weight:normal;font-stretch:normal;font-size:23.9031px;font-family:'Roboto Condensed';-inkscape-font-specification:'Roboto Condensed, Normal';font-variant-ligatures:normal;font-variant-caps:normal;font-variant-numeric:normal;font-variant-east-asian:normal;text-align:center;text-anchor:middle;fill:#5c546a;fill-opacity:1;stroke-width:0.597579"
           y="398.07162"
           x="106.46644"
           sodipodi:role="line">@primoanno_bot</tspan></text>
    </g>
    <g
       id="g958"
       transform="matrix(0.8717076,0,0,0.8717076,-116.2655,-27.200541)">
      <g
         id="g926">
        <g
           id="g729" />
        <g
           id="g735">
          <g
             id="g733" />
        </g>
        <g
           id="g739" />
        <g
           id="g743" />
        <g
           id="g749">
          <g
             id="g747" />
        </g>
        <g
           id="g755">
          <g
             id="g753" />
        </g>
        <g
           id="g805">
          <g
             id="g761">
            <g
               id="g759" />
          </g>
          <g
             id="g767">
            <g
               id="g765" />
          </g>
          <g
             id="g773">
            <g
               id="g771" />
          </g>
          <g
             id="g779">
            <g
               id="g777" />
          </g>
          <g
             id="g785">
            <g
               id="g783" />
          </g>
          <g
             id="g791">
            <g
               id="g789" />
          </g>
          <g
             id="g797">
            <g
               id="g795" />
          </g>
          <g
             id="g803">
            <g
               id="g801" />
          </g>
        </g>
        <g
           id="g809" />
        <g
           id="g813" />
        <g
           id="g819">
          <g
             id="g817" />
        </g>
        <g
           id="g825">
          <g
             id="g823" />
        </g>
        <g
           id="g831">
          <g
             id="g829" />
        </g>
        <g
           id="g838">
          <g
             id="g835" />
        </g>
        <g
           id="g844">
          <g
             id="g842" />
        </g>
        <g
           id="g850">
          <g
             id="g848" />
        </g>
        <g
           id="g856">
          <g
             id="g854" />
        </g>
        <g
           id="g862">
          <g
             id="g860" />
        </g>
        <g
           id="g912">
          <g
             id="g868">
            <g
               id="g866" />
          </g>
          <g
             id="g874">
            <g
               id="g872" />
          </g>
          <g
             id="g880">
            <g
               id="g878" />
          </g>
          <g
             id="g886">
            <g
               id="g884" />
          </g>
          <g
             id="g892">
            <g
               id="g890" />
          </g>
          <g
             id="g898">
            <g
               id="g896" />
          </g>
          <g
             id="g904">
            <g
               id="g902" />
          </g>
          <g
             id="g910">
            <g
               id="g908" />
          </g>
        </g>
        <g
           id="g918">
          <g
             id="g916" />
        </g>
        <g
           id="g924">
          <g
             id="g922" />
        </g>
      </g>
      <g
         id="g928" />
      <g
         id="g930" />
      <g
         id="g932" />
      <g
         id="g934" />
      <g
         id="g936" />
      <g
         id="g938" />
      <g
         id="g940" />
      <g
         id="g942" />
      <g
         id="g944" />
      <g
         id="g946" />
      <g
         id="g948" />
      <g
         id="g950" />
      <g
         id="g952" />
      <g
         id="g954" />
      <g
         id="g956" />
    </g>
    <g
       style="font-style:normal;font-weight:normal;font-size:41.8868px;line-height:1.25;font-family:sans-serif;letter-spacing:0px;word-spacing:0px;fill:#5c546a;fill-opacity:1;stroke:none;stroke-width:1.04717"
       id="text962"
       aria-label="MATRICOLE"
       transform="matrix(1.2857143,0,0,1.2857143,-30.540472,-103.7893)" />
    <g
       id="g1307"
       transform="matrix(0.8717076,0,0,0.8717076,-116.2655,-27.200541)" />
    <g
       id="g1327"
       transform="matrix(0.8717076,0,0,0.8717076,-116.2655,-27.200541)" />
    <g
       id="g1335"
       transform="matrix(0.8717076,0,0,0.8717076,-116.2655,-27.200541)">
      <g
         id="g1333" />
    </g>
    <g
       id="g1341"
       transform="matrix(0.8717076,0,0,0.8717076,-116.2655,-27.200541)">
      <g
         id="g1339" />
    </g>
    <g
       id="g1347"
       transform="matrix(0.8717076,0,0,0.8717076,-116.2655,-27.200541)">
      <g
         id="g1345" />
    </g>
    <g
       id="g1353"
       transform="matrix(0.8717076,0,0,0.8717076,-116.2655,-27.200541)">
      <g
         id="g1351" />
    </g>
    <g
       id="g1359"
       transform="matrix(0.8717076,0,0,0.8717076,-116.2655,-27.200541)">
      <g
         id="g1357" />
    </g>
    <g
       id="g1365"
       transform="matrix(0.8717076,0,0,0.8717076,-116.2655,-27.200541)">
      <g
         id="g1363" />
    </g>
    <g
       id="g1371"
       transform="matrix(0.8717076,0,0,0.8717076,-116.2655,-27.200541)">
      <g
         id="g1369" />
    </g>
    <g
       id="g1377"
       transform="matrix(0.8717076,0,0,0.8717076,-116.2655,-27.200541)">
      <g
         id="g1375" />
    </g>
    <g
       id="g1321"
       transform="matrix(0.8717076,0,0,0.8717076,-116.2655,-27.200541)" />
    <g
       id="g1397"
       transform="matrix(0.8717076,0,0,0.8717076,-116.2655,-27.200541)" />
    <g
       id="g1403"
       transform="matrix(0.8717076,0,0,0.8717076,-116.2655,-27.200541)" />
    <g
       id="g1391"
       transform="matrix(0.8717076,0,0,0.8717076,-116.2655,-27.200541)" />
    <g
       id="g1409"
       transform="matrix(0.8717076,0,0,0.8717076,-116.2655,-27.200541)" />
    <g
       id="g1415"
       transform="matrix(0.8717076,0,0,0.8717076,-116.2655,-27.200541)" />
    <g
       id="g1421"
       transform="matrix(0.8717076,0,0,0.8717076,-116.2655,-27.200541)" />
    <g
       id="g1427"
       transform="matrix(0.8717076,0,0,0.8717076,-116.2655,-27.200541)" />
    <g
       id="g1433"
       transform="matrix(0.8717076,0,0,0.8717076,-116.2655,-27.200541)" />
    <g
       id="g1441"
       transform="matrix(0.8717076,0,0,0.8717076,-116.2655,-27.200541)">
      <g
         id="g1439" />
    </g>
    <g
       id="g1447"
       transform="matrix(0.8717076,0,0,0.8717076,-116.2655,-27.200541)">
      <g
         id="g1445" />
    </g>
    <g
       id="g1453"
       transform="matrix(0.8717076,0,0,0.8717076,-116.2655,-27.200541)">
      <g
         id="g1451" />
    </g>
    <g
       id="g1459"
       transform="matrix(0.8717076,0,0,0.8717076,-116.2655,-27.200541)">
      <g
         id="g1457" />
    </g>
    <g
       id="g1465"
       transform="matrix(0.8717076,0,0,0.8717076,-116.2655,-27.200541)">
      <g
         id="g1463" />
    </g>
    <g
       id="g1471"
       transform="matrix(0.8717076,0,0,0.8717076,-116.2655,-27.200541)">
      <g
         id="g1469" />
    </g>
    <g
       id="g1477"
       transform="matrix(0.8717076,0,0,0.8717076,-116.2655,-27.200541)">
      <g
         id="g1475" />
    </g>
    <g
       id="g1483"
       transform="matrix(0.8717076,0,0,0.8717076,-116.2655,-27.200541)">
      <g
         id="g1481" />
    </g>
    <g
       id="g1489"
       transform="matrix(0.8717076,0,0,0.8717076,-116.2655,-27.200541)" />
    <g
       id="g1495"
       transform="matrix(0.8717076,0,0,0.8717076,-116.2655,-27.200541)" />
  </g>
</svg>
