<?xml version="1.0" encoding="UTF-8" standalone="no"?>
<!-- Created with Inkscape (http://www.inkscape.org/) -->

<svg
   width="257"
   height="257"
   viewBox="0 0 67.997915 67.997916"
   version="1.1"
   id="svg1"
   xml:space="preserve"
   inkscape:version="1.3.2 (091e20e, 2023-11-25, custom)"
   sodipodi:docname="music_scalable.svg"
   inkscape:export-filename="..\..\..\music_scalable.png"
   inkscape:export-xdpi="1530.0233"
   inkscape:export-ydpi="1530.0233"
   xmlns:inkscape="http://www.inkscape.org/namespaces/inkscape"
   xmlns:sodipodi="http://sodipodi.sourceforge.net/DTD/sodipodi-0.dtd"
   xmlns="http://www.w3.org/2000/svg"
   xmlns:svg="http://www.w3.org/2000/svg"><sodipodi:namedview
     id="namedview1"
     pagecolor="#ffffff"
     bordercolor="#000000"
     borderopacity="0.25"
     inkscape:showpageshadow="2"
     inkscape:pageopacity="0.0"
     inkscape:pagecheckerboard="0"
     inkscape:deskcolor="#d1d1d1"
     inkscape:document-units="mm"
     inkscape:zoom="1.4790474"
     inkscape:cx="100.06441"
     inkscape:cy="88.232466"
     inkscape:window-width="1920"
     inkscape:window-height="991"
     inkscape:window-x="-9"
     inkscape:window-y="-9"
     inkscape:window-maximized="1"
     inkscape:current-layer="layer1" /><defs
     id="defs1" /><g
     inkscape:label="Livello 1"
     inkscape:groupmode="layer"
     id="layer1"
     transform="translate(-69.812784,-20.97645)"><rect
       style="fill:#ffffff;fill-opacity:1;stroke:none;stroke-width:0.264583"
       id="rect1"
       width="67.73333"
       height="67.73333"
       x="69.945076"
       y="21.108742" /><path
       fill-rule="evenodd"
       clip-rule="evenodd"
       d="m 97.017545,38.076882 c 0.88559,0.73136 2.01393,1.07435 2.89881,1.07435 0.806695,0 1.460695,0.653982 1.460695,1.460694 0,0.806711 -0.654,1.460693 -1.460695,1.460693 -1.40314,0 -3.02165,-0.469116 -4.38208,-1.451929 v 11.676783 c 0,0.310641 -0.097,0.598689 -0.26234,0.835516 -0.77839,2.614057 -3.20024,4.52036 -6.06733,4.52036 -3.49579,0 -6.32967,-2.83394 -6.32967,-6.329672 0,-3.49579 2.83388,-6.329671 6.32967,-6.329671 1.25487,0 2.42446,0.365173 3.40829,0.995044 V 34.769152 h 2.92138 c 0,1.553886 0.63959,2.61096 1.48327,3.30773 z m -4.40465,13.246795 c 0,-1.882347 -1.52594,-3.408284 -3.40829,-3.408284 -1.88234,0 -3.40828,1.525937 -3.40828,3.408284 0,1.882347 1.52594,3.408285 3.40828,3.408285 1.88235,0 3.40829,-1.525938 3.40829,-3.408285 z M 118.56006,38.549602 c -1.3082,0.333369 -3.02111,1.04609 -5.50682,2.086493 l -3.89518,1.630329 c -1.18842,0.497434 -1.97174,0.827434 -2.54764,1.145417 -0.54455,0.300747 -0.7804,0.526921 -0.93037,0.752374 -0.15015,0.225434 -0.26759,0.530349 -0.33479,1.148787 -0.0711,0.653904 -0.073,1.503891 -0.073,2.792281 v 3.982239 l 16.55394,-6.621517 c -0.004,-2.159256 -0.029,-3.714505 -0.2008,-4.876438 -0.19339,-1.307184 -0.52468,-1.754818 -0.8844,-1.994197 -0.35952,-0.239398 -0.90037,-0.372087 -2.18091,-0.04577 z m 6.18808,7.871053 v -0.06807 c 0,-2.542405 1.9e-4,-4.615733 -0.23293,-6.190555 -0.24092,-1.628342 -0.77826,-3.082024 -2.1556,-3.998697 -1.37733,-0.916692 -2.92586,-0.851136 -4.52094,-0.444654 -1.54269,0.393101 -3.45522,1.193639 -5.80051,2.175303 l -4.07826,1.707005 c -1.09941,0.46006 -2.03075,0.849832 -2.76168,1.253548 -0.77787,0.429541 -1.44784,0.936168 -1.95032,1.691113 -0.50228,0.754964 -0.71106,1.56857 -0.80688,2.451881 -0.0902,0.830219 -0.0902,1.83985 -0.0902,3.031523 v 6.182901 c -5.9e-4,0.0224 -5.9e-4,0.0448 0,0.06719 v 9.238204 c -0.98373,-0.629851 -2.15346,-0.995024 -3.408285,-0.995024 -3.49579,0 -6.32967,2.83394 -6.32967,6.329671 0,3.495731 2.83388,6.329671 6.32967,6.329671 3.495725,0 6.329665,-2.83394 6.329665,-6.329671 0,-0.331091 -0.0255,-0.656338 -0.0744,-0.973796 h 0.0744 V 55.234051 l 16.55452,-6.621849 v 11.009967 c -0.98373,-0.629851 -2.15345,-0.995025 -3.40828,-0.995025 -3.49573,0 -6.32967,2.83394 -6.32967,6.329672 0,3.495731 2.83394,6.329671 6.32967,6.329671 3.49573,0 6.32967,-2.83394 6.32967,-6.329671 0,-0.227674 -0.0121,-0.452621 -0.0354,-0.674256 h 0.0354 V 46.487847 c 5.8e-4,-0.02236 5.8e-4,-0.04476 0,-0.06719 z m -6.32967,15.127876 c -1.88235,0 -3.40829,1.525938 -3.40829,3.408285 0,1.882346 1.52594,3.408284 3.40829,3.408284 1.88234,0 3.40828,-1.525938 3.40828,-3.408284 0,-1.882347 -1.52594,-3.408285 -3.40828,-3.408285 z m -19.475905,3.895182 c -1.88235,0 -3.40829,1.525938 -3.40829,3.408285 0,1.882347 1.52594,3.408285 3.40829,3.408285 1.882335,0 3.408275,-1.525938 3.408275,-3.408285 0,-1.882347 -1.52594,-3.408285 -3.408275,-3.408285 z"
       fill="#1c274c"
       id="path1"
       style="fill:#000000;fill-opacity:1;stroke-width:1.94759" /></g></svg>
