<?xml version="1.0" encoding="UTF-8" standalone="no"?>
<!-- Created with Inkscape (http://www.inkscape.org/) -->

<svg
   width="67.73333mm"
   height="67.73333mm"
   viewBox="0 0 67.73333 67.73333"
   version="1.1"
   id="svg1"
   xml:space="preserve"
   inkscape:version="1.3.2 (091e20e, 2023-11-25, custom)"
   sodipodi:docname="propostanotasingola1.svg"
   inkscape:export-filename="propostanotasingola1.png"
   inkscape:export-xdpi="1536.0001"
   inkscape:export-ydpi="1536.0001"
   xmlns:inkscape="http://www.inkscape.org/namespaces/inkscape"
   xmlns:sodipodi="http://sodipodi.sourceforge.net/DTD/sodipodi-0.dtd"
   xmlns="http://www.w3.org/2000/svg"
   xmlns:svg="http://www.w3.org/2000/svg"><sodipodi:namedview
     id="namedview1"
     pagecolor="#ffffff"
     bordercolor="#000000"
     borderopacity="0.25"
     inkscape:showpageshadow="2"
     inkscape:pageopacity="0.0"
     inkscape:pagecheckerboard="0"
     inkscape:deskcolor="#d1d1d1"
     inkscape:document-units="mm"
     inkscape:zoom="1.5862247"
     inkscape:cx="258.79057"
     inkscape:cy="175.57412"
     inkscape:window-width="1920"
     inkscape:window-height="991"
     inkscape:window-x="-9"
     inkscape:window-y="-9"
     inkscape:window-maximized="1"
     inkscape:current-layer="layer1" /><defs
     id="defs1" /><g
     inkscape:label="Livello 1"
     inkscape:groupmode="layer"
     id="layer1"
     transform="translate(-36.694981,-67.73333)"><path
       id="rect1"
       style="fill:#ffffff;stroke-width:0.206174"
       d="m 36.694981,67.73333 h 67.733329 v 67.73333 H 36.694981 Z" /><path
       d="m 70.559123,112.81827 c 0,4.60487 -3.733127,8.338 -8.337992,8.338 -4.604947,0 -8.337991,-3.73313 -8.337991,-8.338 0,-4.60486 3.733044,-8.33799 8.337991,-8.33799 4.604865,0 8.337992,3.73313 8.337992,8.33799 z"
       stroke="#1c274c"
       stroke-width="3.12675"
       id="path1"
       style="fill:none;stroke:#000000;stroke-opacity:1" /><path
       d="M 70.559123,112.81827 V 87.804299"
       stroke="#1c274c"
       stroke-width="3.12675"
       id="path2"
       style="fill:none;stroke:#000000;stroke-opacity:1" /><path
       d="m 79.140375,96.264651 -5.489316,-2.744679 c -0.760634,-0.380317 -1.141055,-0.570486 -1.455188,-0.810661 -0.81358,-0.62214 -1.369932,-1.522059 -1.562332,-2.5281 -0.07442,-0.388363 -0.07442,-0.81358 -0.07442,-1.664034 0,-2.024235 0,-3.036342 0.249306,-3.724393 0.658701,-1.818516 2.481594,-2.945167 4.402668,-2.721083 0.726864,0.0848 1.632162,0.537425 3.442756,1.442681 l 5.489317,2.7447 c 0.760634,0.380337 1.141054,0.570506 1.455188,0.810661 0.81358,0.62216 1.369932,1.52208 1.562331,2.528121 0.07442,0.388342 0.07442,0.813579 0.07442,1.664013 0,2.024235 0,3.036363 -0.249306,3.724414 -0.658701,1.818453 -2.481595,2.945125 -4.402668,2.721041 -0.726864,-0.08484 -1.632162,-0.537384 -3.442756,-1.442681 z"
       stroke="#1c274c"
       stroke-width="3.12675"
       stroke-linecap="round"
       id="path3"
       style="fill:none;stroke:#000000;stroke-opacity:1" /></g></svg>
