<?xml version="1.0" encoding="UTF-8" standalone="no"?>
<svg
   xmlns:dc="http://purl.org/dc/elements/1.1/"
   xmlns:cc="http://creativecommons.org/ns#"
   xmlns:rdf="http://www.w3.org/1999/02/22-rdf-syntax-ns#"
   xmlns:svg="http://www.w3.org/2000/svg"
   xmlns="http://www.w3.org/2000/svg"
   xmlns:sodipodi="http://sodipodi.sourceforge.net/DTD/sodipodi-0.dtd"
   xmlns:inkscape="http://www.inkscape.org/namespaces/inkscape"
   id="svg8"
   version="1.1"
   viewBox="0 0 541.86664 541.86664"
   height="541.86664mm"
   width="541.86664mm"
   inkscape:export-filename="C:\Users\linos\Desktop\Icone gruppi telegram\ripetizioni.png"
   inkscape:export-xdpi="96"
   inkscape:export-ydpi="96"
   inkscape:version="1.0 (4035a4fb49, 2020-05-01)"
   sodipodi:docname="ripetizioni.svg">
  <defs
     id="defs2" />
  <sodipodi:namedview
     id="base"
     pagecolor="#ffffff"
     bordercolor="#666666"
     borderopacity="1.0"
     inkscape:pageopacity="0.0"
     inkscape:pageshadow="2"
     inkscape:zoom="0.35"
     inkscape:cx="561.67275"
     inkscape:cy="993.27039"
     inkscape:document-units="mm"
     inkscape:current-layer="layer1"
     inkscape:document-rotation="0"
     showgrid="false"
     inkscape:window-width="1920"
     inkscape:window-height="1013"
     inkscape:window-x="-9"
     inkscape:window-y="-9"
     inkscape:window-maximized="1" />
  <metadata
     id="metadata5">
    <rdf:RDF>
      <cc:Work
         rdf:about="">
        <dc:format>image/svg+xml</dc:format>
        <dc:type
           rdf:resource="http://purl.org/dc/dcmitype/StillImage" />
        <dc:title></dc:title>
        <cc:license
           rdf:resource="http://creativecommons.org/licenses/by-sa/4.0/" />
      </cc:Work>
      <cc:License
         rdf:about="http://creativecommons.org/licenses/by-sa/4.0/">
        <cc:permits
           rdf:resource="http://creativecommons.org/ns#Reproduction" />
        <cc:permits
           rdf:resource="http://creativecommons.org/ns#Distribution" />
        <cc:requires
           rdf:resource="http://creativecommons.org/ns#Notice" />
        <cc:requires
           rdf:resource="http://creativecommons.org/ns#Attribution" />
        <cc:permits
           rdf:resource="http://creativecommons.org/ns#DerivativeWorks" />
        <cc:requires
           rdf:resource="http://creativecommons.org/ns#ShareAlike" />
      </cc:License>
    </rdf:RDF>
  </metadata>
  <g
     inkscape:label="Livello 1"
     inkscape:groupmode="layer"
     id="layer1"
     transform="translate(211.66666,34.017857)">
    <rect
       style="fill:#d50000;stroke-width:0.264583"
       id="rect835"
       width="541.86664"
       height="541.86664"
       x="-211.66666"
       y="-34.017857"
       rx="1.069"
       ry="1.0689987" />
    <path
       id="path915"
       style="fill:#000001;fill-opacity:0.247059;stroke-width:0.753846"
       d="m -303.1875,464.00195 c -41.17909,0 -74.33008,33.15408 -74.33008,74.33203 v 0.004 295.4668 h 0.002 v 0.004 c 10e-4,-3e-4 0.003,3.1e-4 0.004,0 v 0.004 h 0.002 l 0.008,-0.002 v 0.01 h 0.002 c 0.004,-9.5e-4 0.008,-9.9e-4 0.0117,-0.002 v 0.01 h 0.002 c 0.005,-0.001 0.009,-0.003 0.0137,-0.004 v 0.0195 h 0.004 c 0.006,-10e-4 0.0118,-0.002 0.0176,-0.004 v 0.0176 h 0.004 c 0.006,-0.002 0.0131,-0.002 0.0195,-0.004 v 0.0234 h 0.004 c 0.008,-0.002 0.0156,-0.004 0.0234,-0.006 v 0.0293 h 0.006 c 0.009,-0.002 0.0183,-0.004 0.0273,-0.006 v 0.0273 h 0.004 c 0.0104,-0.003 0.0208,-0.005 0.0312,-0.008 v 0.0391 l 0.004,-0.004 c 0.0116,-0.003 0.0235,-0.005 0.0351,-0.008 v 0.041 h 0.006 c 0.0123,-0.003 0.0248,-0.005 0.0371,-0.008 v 0.043 l 0.006,-0.004 c 0.013,-0.003 0.026,-0.007 0.0391,-0.01 v 0.0469 h 0.008 c 0.0143,-0.004 0.0287,-0.006 0.043,-0.01 v 0.0508 l 0.01,-0.004 c 0.0149,-0.004 0.03,-0.006 0.0449,-0.01 v 0.0566 l 0.01,-0.004 c 0.0156,-0.004 0.0312,-0.008 0.0469,-0.0117 v 0.0606 l 0.0117,-0.004 c 0.0169,-0.004 0.0339,-0.008 0.0508,-0.0117 v 0.0606 h 0.0117 c 0.0175,-0.004 0.0353,-0.007 0.0527,-0.0117 v 0.0644 l 0.0137,-0.004 c 0.0182,-0.005 0.0364,-0.009 0.0547,-0.0137 v 0.0703 h 0.0137 c 0.0195,-0.005 0.0391,-0.009 0.0586,-0.0137 v 0.0703 l 0.0156,-0.004 c 0.0201,-0.005 0.0405,-0.009 0.0605,-0.0137 v 0.0781 l 0.0176,-0.004 c 0.0207,-0.005 0.0418,-0.009 0.0625,-0.0137 v 0.0781 h 0.0195 c 0.0215,-0.005 0.043,-0.0103 0.0644,-0.0156 v 0.084 l 0.0195,-0.004 c 0.0227,-0.006 0.0457,-0.01 0.0684,-0.0156 v 0.0879 l 0.0215,-0.004 c 0.0227,-0.006 0.0457,-0.01 0.0684,-0.0156 v 0.0879 h 0.0234 c 0.0241,-0.006 0.0482,-0.0116 0.0723,-0.0176 v 0.0918 l 0.0254,-0.002 c 0.0241,-0.006 0.0482,-0.0116 0.0723,-0.0176 v 0.0957 h 0.0273 c 0.0253,-0.006 0.0509,-0.0113 0.0762,-0.0176 v 0.10157 c 0.009,-0.004 0.0179,-0.004 0.0273,-0.004 0.0259,-0.006 0.0522,-0.0111 0.0781,-0.0176 v 0.10352 c 0.01,-0.004 0.0191,-0.008 0.0293,-0.008 0.0267,-0.007 0.0534,-0.0129 0.0801,-0.0195 v 0.11133 c 0.0106,-0.004 0.0222,-0.004 0.0332,-0.004 0.0267,-0.007 0.0534,-0.0129 0.0801,-0.0195 v 0.11328 c 0.0113,-0.004 0.0238,-0.008 0.0351,-0.008 0.0273,-0.007 0.0547,-0.0127 0.082,-0.0195 v 0.11914 c 0.0121,-0.004 0.0246,-0.004 0.0371,-0.004 0.0279,-0.007 0.0561,-0.0126 0.084,-0.0195 v 0.11719 c 0.0125,-0.004 0.0262,-0.004 0.0391,-0.008 0.0285,-0.007 0.0574,-0.0125 0.0859,-0.0195 v 0.125 c 0.0136,-0.004 0.027,-0.006 0.041,-0.006 0.0285,-0.007 0.0574,-0.0124 0.0859,-0.0195 v 0.125 c 0.0144,-0.004 0.0306,-0.004 0.0449,-0.004 0.0291,-0.007 0.0588,-0.0123 0.0879,-0.0195 v 0.125 c 0.0147,-0.004 0.0294,-0.004 0.0449,-0.004 0.0299,-0.007 0.06,-0.0141 0.0898,-0.0215 v 0.13086 c 0.0155,-0.004 0.0326,-0.004 0.0488,-0.004 0.0305,-0.008 0.0613,-0.0139 0.0918,-0.0215 v 0.13476 c 0.0163,-0.004 0.0338,-0.004 0.0508,-0.004 0.0305,-0.008 0.0613,-0.0139 0.0918,-0.0215 v 0.13867 c 0.0174,-0.004 0.035,-0.006 0.0527,-0.006 0.0311,-0.008 0.0626,-0.0138 0.0937,-0.0215 v 0.14063 c 0.0181,-0.004 0.0377,-0.006 0.0566,-0.006 0.0311,-0.008 0.0626,-0.0138 0.0937,-0.0215 v 0.14453 c 0.0193,-0.004 0.0386,-0.006 0.0586,-0.006 0.0317,-0.008 0.064,-0.0136 0.0957,-0.0215 v 0.14844 c 0.0204,-0.004 0.0417,-0.008 0.0625,-0.008 0.0317,-0.008 0.0639,-0.0136 0.0957,-0.0215 v 0.1543 c 0.0212,-0.004 0.0425,-0.008 0.0644,-0.008 0.0325,-0.008 0.0652,-0.0154 0.0977,-0.0234 v 0.15625 c 0.0219,-0.004 0.0437,-0.008 0.0664,-0.008 0.0331,-0.008 0.0665,-0.0152 0.0996,-0.0234 V 836.75 c 0.0231,-0.008 0.0465,-0.0117 0.0703,-0.0117 0.0325,-0.008 0.0651,-0.0154 0.0976,-0.0234 v 0.16797 c 0.0242,-0.008 0.0493,-0.0117 0.0742,-0.0117 0.0331,-0.008 0.0665,-0.0152 0.0996,-0.0234 v 0.16601 c 0.0249,-0.004 0.0505,-0.008 0.0762,-0.008 0.0331,-0.008 0.0665,-0.0152 0.0996,-0.0234 v 0.17188 c 0.0261,-0.008 0.0532,-0.0117 0.0801,-0.0117 0.0337,-0.008 0.0678,-0.0151 0.10156,-0.0234 v 0.17383 c 0.0272,-0.008 0.0541,-0.01 0.082,-0.01 0.0337,-0.008 0.0678,-0.0151 0.10157,-0.0234 v 0.17773 c 0.0283,-0.008 0.0568,-0.0117 0.0859,-0.0117 0.0337,-0.008 0.0678,-0.0151 0.10157,-0.0234 v 0.18164 c 0.0291,-0.008 0.0596,-0.01 0.0898,-0.01 0.0337,-0.008 0.0678,-0.0151 0.10156,-0.0234 v 0.18164 c 0.0306,-0.008 0.0624,-0.0117 0.0937,-0.0117 0.0337,-0.008 0.0678,-0.0151 0.10156,-0.0234 v 0.18945 c 0.0314,-0.008 0.0628,-0.0117 0.0957,-0.0117 0.0343,-0.009 0.0692,-0.0149 0.10351,-0.0234 v 0.19141 c 0.0329,-0.008 0.066,-0.0117 0.0996,-0.0117 0.0337,-0.008 0.0678,-0.0151 0.10157,-0.0234 v 0.19336 c 0.034,-0.008 0.0703,-0.0156 0.10546,-0.0156 0.0337,-0.008 0.0678,-0.0151 0.10157,-0.0234 v 0.20117 c 0.0352,-0.0113 0.0711,-0.0156 0.10742,-0.0156 0.0337,-0.008 0.0678,-0.0151 0.10156,-0.0234 v 0.20117 c 0.0367,-0.008 0.0755,-0.0137 0.11328,-0.0137 0.0337,-0.008 0.0678,-0.0151 0.10157,-0.0234 v 0.20313 c 0.0378,-0.008 0.0763,-0.0137 0.11523,-0.0137 0.0337,-0.008 0.0678,-0.0151 0.10156,-0.0234 v 0.20898 c 0.0393,-0.008 0.0806,-0.0156 0.1211,-0.0156 0.0337,-0.008 0.0678,-0.0151 0.10156,-0.0234 v 0.21289 c 0.0404,-0.0113 0.0815,-0.0156 0.12305,-0.0156 0.0337,-0.008 0.0678,-0.0151 0.10156,-0.0234 v 0.21289 c 0.0416,-0.008 0.0842,-0.0156 0.12695,-0.0156 0.0337,-0.008 0.0678,-0.0151 0.10156,-0.0234 v 0.21874 c 0.0431,-0.0113 0.0866,-0.0176 0.13086,-0.0176 0.0337,-0.008 0.0678,-0.0151 0.10157,-0.0234 v 0.22266 c 0.0446,-0.0113 0.089,-0.0176 0.13476,-0.0176 0.0337,-0.008 0.0678,-0.0151 0.10156,-0.0234 v 0.22266 c 0.0457,-0.0113 0.0914,-0.0156 0.13868,-0.0156 0.0331,-0.008 0.0665,-0.0152 0.0996,-0.0234 v 0.22852 c 0.0476,-0.0113 0.0958,-0.0195 0.14454,-0.0195 0.0331,-0.008 0.0665,-0.0152 0.0996,-0.0234 v 0.23242 c 0.0488,-0.0113 0.0982,-0.0157 0.14844,-0.0195 0.0331,-0.008 0.0665,-0.0152 0.0996,-0.0234 v 0.23438 c 0.0503,-0.0113 0.10057,-0.0176 0.15235,-0.0176 0.0325,-0.008 0.0652,-0.0154 0.0976,-0.0234 v 0.23828 c 0.0514,-0.0113 0.10491,-0.0195 0.15821,-0.0195 0.0317,-0.008 0.064,-0.0136 0.0957,-0.0215 v 0.24219 c 0.0533,-0.0113 0.10926,-0.0195 0.16406,-0.0195 0.0317,-0.008 0.064,-0.0136 0.0957,-0.0215 v 0.24024 c 0.0548,-0.0113 0.11166,-0.0195 0.16797,-0.0195 0.0311,-0.008 0.0626,-0.0137 0.0937,-0.0215 v 0.25 c 0.0563,-0.0151 0.11367,-0.0234 0.17188,-0.0234 0.0311,-0.008 0.0626,-0.0138 0.0937,-0.0215 v 0.25195 c 0.0578,-0.0151 0.11802,-0.0234 0.17773,-0.0234 0.0305,-0.008 0.0613,-0.0139 0.0918,-0.0215 v 0.25195 c 0.0593,-0.0151 0.12041,-0.0215 0.18164,-0.0215 0.0305,-0.008 0.0613,-0.0139 0.0918,-0.0215 v 0.25977 c 0.0608,-0.0151 0.12438,-0.0234 0.1875,-0.0234 0.0299,-0.007 0.0599,-0.014 0.0898,-0.0215 v 0.25976 c 0.0627,-0.0151 0.12678,-0.0234 0.19141,-0.0234 0.0291,-0.007 0.0587,-0.0123 0.0879,-0.0195 v 0.26172 c 0.0646,-0.0151 0.13112,-0.0215 0.19726,-0.0215 0.0291,-0.007 0.0588,-0.0123 0.0879,-0.0195 v 0.26367 c 0.0661,-0.0151 0.13315,-0.0254 0.20117,-0.0254 0.0291,-0.007 0.0588,-0.0123 0.0879,-0.0195 v 0.26953 c 0.0677,-0.0151 0.13748,-0.0234 0.20703,-0.0234 0.0279,-0.007 0.0561,-0.0126 0.084,-0.0195 v 0.27344 c 0.0695,-0.0189 0.14108,-0.0274 0.21289,-0.0274 0.0273,-0.007 0.0547,-0.0127 0.082,-0.0195 v 0.27735 c 0.0714,-0.0189 0.14505,-0.0273 0.21875,-0.0273 0.0273,-0.007 0.0547,-0.0128 0.082,-0.0195 v 0.28125 c 0.0729,-0.0189 0.14745,-0.0275 0.22266,-0.0312 0.0267,-0.007 0.0534,-0.0129 0.0801,-0.0195 v 0.28516 c 0.0752,-0.0189 0.15141,-0.0273 0.22851,-0.0273 0.0259,-0.006 0.0522,-0.0111 0.0781,-0.0176 v 0.28711 c 0.0767,-0.0189 0.15538,-0.0312 0.23437,-0.0312 0.0253,-0.006 0.0509,-0.0113 0.0762,-0.0176 v 0.28907 c 0.0786,-0.0189 0.1574,-0.0293 0.23828,-0.0293 0.0247,-0.006 0.0495,-0.0114 0.0742,-0.0176 v 0.29297 c 0.0805,-0.0189 0.16332,-0.0293 0.24609,-0.0293 0.0241,-0.006 0.0482,-0.0116 0.0723,-0.0176 v 0.29687 c 0.0824,-0.0227 0.16729,-0.0352 0.25195,-0.0352 0.0233,-0.006 0.047,-0.01 0.0703,-0.0156 v 0.30078 c 0.0843,-0.0189 0.17126,-0.0312 0.25781,-0.0312 0.0221,-0.005 0.0443,-0.0101 0.0664,-0.0156 v 0.29882 c 0.0862,-0.0189 0.17523,-0.0293 0.26367,-0.0293 0.0221,-0.006 0.0443,-0.0101 0.0664,-0.0156 v 0.30274 c 0.0881,-0.0189 0.17882,-0.0312 0.26953,-0.0312 0.0207,-0.005 0.0418,-0.009 0.0625,-0.0137 v 0.30469 c 0.0899,-0.0227 0.18279,-0.0332 0.27539,-0.0332 0.0201,-0.005 0.0405,-0.009 0.0605,-0.0137 v 0.3125 c 0.0918,-0.0227 0.18638,-0.0352 0.28125,-0.0352 0.0201,-0.005 0.0405,-0.009 0.0605,-0.0137 v 0.3125 c 0.0941,-0.0227 0.18998,-0.0332 0.28711,-0.0332 0.0189,-0.005 0.0378,-0.009 0.0566,-0.0137 v 0.31641 c 0.096,-0.0227 0.19395,-0.0352 0.29297,-0.0352 0.0182,-0.005 0.0365,-0.009 0.0547,-0.0137 v 0.32031 c 0.0983,-0.0227 0.19791,-0.0371 0.29883,-0.0371 0.0175,-0.004 0.0353,-0.007 0.0527,-0.0117 v 0.32422 c 0.10016,-0.0265 0.20113,-0.0371 0.30469,-0.0371 0.0163,-0.004 0.0326,-0.008 0.0488,-0.0117 v 0.32617 c 0.10242,-0.0265 0.20705,-0.0391 0.3125,-0.0391 0.0156,-0.004 0.0312,-0.008 0.0469,-0.0117 v 0.33008 c 0.1047,-0.0265 0.2126,-0.0391 0.32032,-0.0391 0.0136,-0.003 0.0274,-0.006 0.041,-0.01 v 0.33203 c 0.10658,-0.0265 0.21619,-0.0371 0.32617,-0.0371 0.0136,-0.003 0.0274,-0.006 0.041,-0.01 v 0.33399 c 0.10885,-0.0265 0.22016,-0.041 0.33203,-0.041 0.0123,-0.003 0.0248,-0.005 0.0371,-0.008 v 0.33594 c 0.11112,-0.0265 0.22532,-0.041 0.33984,-0.041 0.0117,-0.003 0.0235,-0.005 0.0352,-0.008 v 0.34375 c 0.11339,-0.0302 0.22929,-0.0449 0.3457,-0.0449 0.0104,-0.003 0.0208,-0.005 0.0312,-0.008 v 0.34765 c 0.11528,-0.0302 0.23446,-0.0449 0.35352,-0.0449 0.009,-0.002 0.0183,-0.004 0.0273,-0.006 v 0.3457 c 0.11755,-0.0264 0.23805,-0.041 0.35938,-0.041 0.008,-0.002 0.017,-0.004 0.0254,-0.006 v 0.34961 c 0.11981,-0.0302 0.24323,-0.0469 0.36718,-0.0469 0.007,-0.002 0.0143,-0.004 0.0215,-0.006 v 0.35352 c 0.12208,-0.0302 0.24719,-0.0449 0.37305,-0.0449 0.006,-0.002 0.0131,-0.002 0.0195,-0.004 v 0.35547 c 0.12472,-0.0302 0.25235,-0.0449 0.38086,-0.0449 0.005,-10e-4 0.009,-0.003 0.0137,-0.004 v 0.35938 c 0.12699,-0.0302 0.2579,-0.0449 0.38867,-0.0449 0.004,-9.4e-4 0.008,-9.9e-4 0.0117,-0.002 v 0.35938 c 0.12964,-0.034 0.26307,-0.0488 0.39648,-0.0488 0.002,-5e-4 0.004,-10e-4 0.006,-0.002 v 0.36523 c 0.13191,-0.0302 0.26861,-0.0488 0.4043,-0.0488 10e-4,-3e-4 0.003,3.1e-4 0.004,0 v 0.36719 c 0.13455,-0.0302 0.27182,-0.0508 0.41015,-0.0508 v 0.37109 c 0.13556,-0.0337 0.2744,-0.0486 0.41407,-0.0488 v 0.375 c 0.13719,-0.0335 0.27862,-0.0542 0.41992,-0.0547 v 0.38281 c 0.13812,-0.0369 0.27933,-0.0505 0.42187,-0.0547 v 0.38281 c 0.13951,-0.0366 0.2819,-0.0503 0.42578,-0.0547 v 0.38867 c 0.14027,-0.0361 0.2832,-0.0531 0.42774,-0.0547 v 0.39063 c 0.14167,-0.0359 0.28769,-0.0529 0.43359,-0.0547 v 0.39062 c 0.14298,-0.0356 0.29035,-0.0506 0.4375,-0.0527 v 0.39258 c 0.14396,-0.0353 0.29101,-0.0504 0.43945,-0.0527 v 0.40039 c 0.14575,-0.0385 0.29548,-0.0541 0.44532,-0.0566 v 0.40039 c 0.14606,-0.0346 0.29678,-0.0489 0.44726,-0.0547 v 0.40625 c 0.14745,-0.0378 0.29907,-0.0516 0.45117,-0.0547 v 0.40625 c 0.14923,-0.0341 0.30381,-0.0508 0.45704,-0.0547 v 0.41406 c 0.15054,-0.0373 0.30419,-0.0544 0.45898,-0.0586 v 0.41406 c 0.1519,-0.0371 0.30653,-0.051 0.46289,-0.0547 v 0.41797 c 0.15265,-0.0367 0.30961,-0.052 0.4668,-0.0566 v 0.42188 c 0.1534,-0.0396 0.31087,-0.0536 0.46875,-0.0586 v 0.42579 c 0.15512,-0.0394 0.31513,-0.0534 0.47461,-0.0586 v 0.42969 c 0.15649,-0.0391 0.31738,-0.0532 0.47851,-0.0586 v 0.43164 c 0.15757,-0.0388 0.31841,-0.0541 0.48047,-0.0606 v 0.43555 c 0.15838,-0.0384 0.32139,-0.0527 0.48438,-0.0586 v 0.43555 c 0.16015,-0.0382 0.32551,-0.0506 0.49023,-0.0566 v 0.44336 c 0.16088,-0.041 0.32649,-0.0572 0.49219,-0.0645 v 0.44532 c 0.16199,-0.0375 0.32921,-0.0512 0.49609,-0.0586 v 0.44922 c 0.16364,-0.0404 0.33151,-0.0549 0.5,-0.0625 v 0.45117 c 0.1648,-0.0401 0.33432,-0.0547 0.50391,-0.0625 v 0.45899 c 0.16641,-0.043 0.33684,-0.0564 0.50781,-0.0644 v 0.45703 c 0.16698,-0.0395 0.33822,-0.0523 0.50977,-0.0606 v 0.46094 c 0.16871,-0.0423 0.34236,-0.054 0.51562,-0.0625 v 0.46875 c 0.16985,-0.042 0.345,-0.0568 0.51953,-0.0664 v 0.4707 c 0.17088,-0.0417 0.34588,-0.0566 0.52149,-0.0664 v 0.47461 c 0.17184,-0.0442 0.3489,-0.0572 0.52539,-0.0664 v 0.47852 c 0.17359,-0.0441 0.35294,-0.058 0.53125,-0.0684 v 0.47851 c 0.17456,-0.0437 0.3538,-0.053 0.5332,-0.0625 v 0.47852 c 0.17573,-0.0434 0.35639,-0.0529 0.53711,-0.0625 v 0.48242 c 0.17714,-0.0431 0.35904,-0.0536 0.54102,-0.0644 v 0.48828 c 0.17768,-0.0427 0.36041,-0.0553 0.54296,-0.0664 v 0.49219 c 0.17924,-0.0453 0.36477,-0.055 0.54883,-0.0664 v 0.49414 c 0.18069,-0.045 0.36737,-0.0549 0.55274,-0.0664 v 0.49804 c 0.18171,-0.0447 0.36808,-0.0567 0.55468,-0.0684 v 0.50195 c 0.18331,-0.0445 0.37229,-0.0547 0.56055,-0.0664 v 0.50586 c 0.18383,-0.0469 0.37353,-0.0582 0.5625,-0.0703 v 0.50781 c 0.18588,-0.044 0.37735,-0.0553 0.56836,-0.0684 v 0.51563 c 0.18668,-0.0463 0.37857,-0.0588 0.57031,-0.0723 v 0.29297 c -3.39755,-0.24917 -6.81446,-0.37695 -10.24414,-0.37695 h -0.002 -0.0234 c -39.86231,0.008 -75.82987,16.67492 -101.32226,43.41797 v 0.002 c -23.94682,25.12215 -38.65039,59.13545 -38.65039,96.582 v 0 c 0,11.6031 1.44109,23.0563 4.22265,34.123 0.0582,0.2315 0.12424,0.4603 0.1836,0.6914 1.35948,5.2942 3.01899,10.5003 4.98242,15.5879 0.11718,0.3036 0.24398,0.6034 0.36328,0.9063 1.13234,2.8741 2.34962,5.714 3.66992,8.5078 h 0.002 c 0.4861,1.0286 0.98489,2.0516 1.4961,3.0684 h 0.002 c 1.02283,2.0343 2.09464,4.0452 3.2168,6.0293 h 0.002 c 0.56088,0.9916 1.13336,1.9766 1.71875,2.9551 h 0.002 c 0.58541,0.9784 1.18325,1.9513 1.79297,2.916 h 0.002 c 0.60974,0.9647 1.23137,1.9225 1.86523,2.873 0.4342,0.6512 0.88073,1.2951 1.32617,1.9395 0.20519,0.2967 0.40377,0.5973 0.61133,0.8926 h 0.002 c 0.65782,0.9358 1.32822,1.8645 2.00977,2.7852 h 0.002 c 0.002,0 0.004,0 0.006,0.01 0.0915,0.1236 0.18541,0.2458 0.27734,0.3691 4.0178,5.3904 8.43808,10.5174 13.24805,15.3281 h 0.004 0.002 0.002 0.004 0.002 0.002 0.004 c 0.8153,0.815 1.63956,1.6193 2.47266,2.4121 0.003,0 0.005,0.01 0.008,0.01 0.3394,0.323 0.687,0.6358 1.0293,0.9551 0.50085,0.467 0.99889,0.9394 1.50586,1.3984 0.002,0 0.004,0 0.006,0.01 0.003,0 0.007,0 0.01,0.01 0.003,0 0.007,0.01 0.01,0.01 0.84802,0.7675 1.7036,1.5246 2.56836,2.2695 0.002,0 0.004,0 0.006,0.01 0.003,0 0.007,0.01 0.01,0.01 0.28144,0.2424 0.56839,0.4768 0.85157,0.7168 0.18872,0.1599 0.37888,0.3177 0.56835,0.4766 0.40269,0.3375 0.80092,0.6809 1.20704,1.0136 0.002,0 0.004,0 0.006,0 h 0.002 c 0.007,0.01 0.0146,0.01 0.0215,0.016 h 0.002 c 0.005,0 0.0103,0.01 0.0156,0.014 0.0334,0.027 0.0681,0.053 0.10156,0.08 0.005,0 0.0103,0.01 0.0156,0.014 0.83644,0.6832 1.67865,1.3569 2.5293,2.0195 h 0.002 c 0.002,0 0.004,0 0.006,0.01 0.003,0 0.006,0.01 0.01,0.01 0.004,0 0.008,0.01 0.0117,0.01 0.002,0 0.004,0 0.006,0 0.004,0 0.007,0.01 0.0117,0.012 0.007,0.01 0.013,0.011 0.0195,0.016 0.008,0.01 0.0173,0.011 0.0254,0.018 0.0274,0.021 0.0565,0.045 0.084,0.066 0.003,0 0.006,0.01 0.01,0.01 0.0223,0.017 0.0441,0.035 0.0664,0.053 0.005,0 0.0105,0.01 0.0156,0.012 0.0154,0.012 0.0315,0.023 0.0469,0.035 0.0658,0.051 0.13135,0.1031 0.19726,0.1543 0.007,0.01 0.0129,0.011 0.0195,0.016 0.002,0 0.004,0 0.006,0 0.045,0.035 0.0897,0.071 0.13477,0.1055 0.011,0.01 0.0222,0.017 0.0332,0.025 0.0149,0.012 0.0281,0.025 0.043,0.037 0.0714,0.056 0.14335,0.1105 0.21485,0.166 0.007,0.01 0.0145,0.01 0.0215,0.016 0.003,0 0.005,0 0.008,0.01 0.0354,0.028 0.07,0.056 0.10547,0.084 0.07,0.054 0.14089,0.1077 0.21094,0.1621 0.0157,0.012 0.0312,0.025 0.0469,0.037 0.0523,0.041 0.10394,0.082 0.15625,0.1231 0.0293,0.023 0.0586,0.045 0.0879,0.068 0.0464,0.036 0.0922,0.073 0.13868,0.1094 0.0157,0.012 0.0312,0.025 0.0469,0.037 0.064,0.05 0.12738,0.1006 0.19141,0.1504 0.0505,0.039 0.10176,0.078 0.15234,0.1172 0.007,0.01 0.013,0.011 0.0195,0.016 0.0117,0.01 0.0234,0.018 0.0352,0.027 0.0688,0.054 0.13813,0.1066 0.20703,0.1602 0.0246,0.019 0.0496,0.037 0.0742,0.057 0.0387,0.03 0.0765,0.062 0.11523,0.092 0.0527,0.041 0.10549,0.082 0.15821,0.1231 0.0131,0.01 0.0259,0.021 0.0391,0.031 0.0193,0.015 0.0373,0.032 0.0566,0.047 0.0709,0.055 0.14188,0.1108 0.21289,0.166 0.0721,0.056 0.14459,0.1119 0.2168,0.168 0.004,0 0.0112,0.01 0.0156,0.012 0.10303,0.081 0.20536,0.162 0.3086,0.2422 0.005,0 0.0105,0.01 0.0156,0.012 0.0943,0.074 0.18872,0.1473 0.2832,0.2207 0.0501,0.039 0.10022,0.078 0.15039,0.1172 0.0234,0.018 0.0469,0.036 0.0703,0.055 0.0997,0.078 0.19889,0.1567 0.29883,0.2344 0.0373,0.029 0.074,0.059 0.11132,0.088 0.0702,0.055 0.14065,0.1094 0.21094,0.164 0.0567,0.044 0.11319,0.089 0.16992,0.1328 0.0731,0.057 0.14555,0.115 0.21875,0.1719 0.0592,0.046 0.11843,0.093 0.17774,0.1387 0.0753,0.059 0.15111,0.1171 0.22656,0.1758 0.0658,0.051 0.13136,0.103 0.19727,0.1543 0.0607,0.047 0.1209,0.095 0.18164,0.1425 0.0896,0.07 0.17975,0.1393 0.26953,0.209 0.0581,0.045 0.11562,0.091 0.17383,0.1367 0.0599,0.047 0.11967,0.094 0.17968,0.1407 0.11516,0.09 0.23029,0.1799 0.34571,0.2695 0.0436,0.034 0.0872,0.068 0.13086,0.1016 0.0819,0.064 0.16407,0.1276 0.24609,0.1914 0.0878,0.069 0.17576,0.1367 0.26367,0.2051 0.008,0.01 0.0154,0.013 0.0234,0.019 0.0347,0.027 0.0688,0.055 0.10351,0.082 0.11909,0.093 0.23806,0.1866 0.35743,0.2793 0.0742,0.058 0.14832,0.1161 0.22265,0.1738 0.0936,0.073 0.18744,0.1459 0.28125,0.2188 0.0475,0.037 0.095,0.074 0.14258,0.1113 0.12528,0.098 0.24942,0.1974 0.375,0.2949 0.0772,0.06 0.15507,0.1196 0.23242,0.1797 0.0688,0.054 0.13816,0.1066 0.20703,0.1602 0.0858,0.067 0.16994,0.1363 0.25586,0.2031 0.10743,0.084 0.21462,0.1683 0.32227,0.252 0.10462,0.082 0.20962,0.1627 0.31445,0.2441 0.0731,0.057 0.14555,0.115 0.21875,0.1719 0.0866,0.068 0.173,0.1356 0.25977,0.2031 0.11844,0.093 0.23675,0.1852 0.35547,0.2773 0.0595,0.046 0.11814,0.094 0.17773,0.1407 0.13549,0.106 0.27041,0.2128 0.40625,0.3183 0.0805,0.063 0.16157,0.1249 0.24219,0.1875 0.12543,0.098 0.25121,0.1954 0.37695,0.293 0.0757,0.059 0.15077,0.1188 0.22656,0.1777 0.1173,0.092 0.234,0.1841 0.35157,0.2754 0.0943,0.074 0.18871,0.1473 0.2832,0.2207 0.1023,0.08 0.20414,0.1606 0.30664,0.2403 0.1221,0.095 0.2448,0.1901 0.36719,0.2851 0.10861,0.085 0.21733,0.1694 0.32617,0.2539 0.087,0.068 0.17266,0.1374 0.25977,0.2051 0.13046,0.102 0.26177,0.2031 0.39257,0.3047 0.0771,0.06 0.15327,0.1216 0.23047,0.1816 0.15305,0.1198 0.30548,0.2403 0.45899,0.3594 0.0918,0.072 0.18344,0.1434 0.27539,0.2148 0.12381,0.097 0.24698,0.1947 0.37109,0.2911 0.12537,0.098 0.25128,0.1954 0.37695,0.2929 0.0943,0.074 0.18874,0.1473 0.28321,0.2207 0.13152,0.1029 0.26267,0.2062 0.39453,0.3086 0.12567,0.098 0.25097,0.1972 0.37695,0.2949 0.11545,0.09 0.23,0.1817 0.3457,0.2715 0.13564,0.1061 0.27222,0.2109 0.40821,0.3164 0.099,0.077 0.19767,0.1554 0.29687,0.2325 0.13479,0.1054 0.26916,0.2114 0.4043,0.3164 0.12968,0.1014 0.25866,0.2037 0.38867,0.3047 0.11324,0.089 0.22636,0.1774 0.33984,0.2656 0.16185,0.1267 0.32398,0.253 0.48633,0.3789 0.11375,0.089 0.2278,0.1771 0.3418,0.2656 0.12243,0.096 0.24446,0.1918 0.36719,0.2871 0.1274,0.1 0.25314,0.2016 0.38086,0.3008 0.1564,0.1224 0.31382,0.2435 0.4707,0.3652 0.11357,0.089 0.22602,0.1792 0.33984,0.2676 0.1597,0.125 0.32028,0.2488 0.48047,0.3731 0.1019,0.08 0.20259,0.1608 0.30469,0.2402 0.16325,0.1279 0.32647,0.2557 0.49023,0.3828 0.13266,0.1038 0.26545,0.2073 0.39844,0.3106 0.13479,0.1054 0.26916,0.2114 0.4043,0.3164 0.16614,0.13 0.33137,0.2613 0.49805,0.3906 0.13783,0.1078 0.27585,0.215 0.41406,0.3223 0.14219,0.1112 0.28515,0.2213 0.42773,0.332 0.13553,0.106 0.27037,0.2129 0.40625,0.3183 0.15856,0.1242 0.31753,0.2477 0.47656,0.3711 0.13772,0.1078 0.27403,0.2171 0.41211,0.3243 0.14977,0.1172 0.29902,0.2349 0.44922,0.3515 0.15343,0.1201 0.30705,0.24 0.46094,0.3594 0.14787,0.1158 0.29507,0.2325 0.44336,0.3477 0.16507,0.1291 0.33049,0.2582 0.49609,0.3867 0.1626,0.1272 0.32519,0.2543 0.48828,0.3808 0.13334,0.1043 0.26671,0.2087 0.4004,0.3125 0.15369,0.1204 0.30678,0.2417 0.46093,0.3614 0.19432,0.1522 0.38894,0.3039 0.58399,0.455 0.13809,0.108 0.2756,0.2168 0.41406,0.3243 0.15671,0.1226 0.31352,0.2452 0.4707,0.3671 0.15625,0.1224 0.31204,0.2456 0.46875,0.3672 0.19759,0.1548 0.39541,0.3092 0.59375,0.4629 0.10303,0.081 0.20536,0.162 0.3086,0.2422 0.23067,0.181 0.46164,0.3616 0.69336,0.541 0.12097,0.095 0.24202,0.1891 0.36328,0.2832 0.20406,0.16 0.4084,0.3198 0.61328,0.4785 0.11869,0.093 0.2365,0.1869 0.35547,0.2793 0.23613,0.1853 0.47177,0.3711 0.70898,0.5547 0.10958,0.086 0.21831,0.1725 0.32813,0.2578 0.2106,0.1653 0.42134,0.3302 0.63281,0.4942 0.18712,0.1465 0.3747,0.292 0.5625,0.4375 0.13736,0.1075 0.27438,0.2153 0.41211,0.3222 0.21469,0.1684 0.42894,0.337 0.64453,0.5039 0.15531,0.1216 0.31102,0.2425 0.4668,0.3633 0.17962,0.1408 0.35881,0.2821 0.53906,0.4219 0.18287,0.1433 0.3653,0.2874 0.54883,0.4297 0.19317,0.1513 0.38618,0.3028 0.58008,0.4531 0.16438,0.1287 0.32923,0.2568 0.49414,0.3848 0.20366,0.1596 0.40685,0.32 0.61132,0.4785 0.15191,0.1189 0.30273,0.2391 0.45508,0.3574 0.23693,0.1859 0.47487,0.3704 0.71289,0.5547 0.15463,0.121 0.30975,0.241 0.46485,0.3613 0.18435,0.1446 0.36772,0.2901 0.55273,0.4336 0.21276,0.1669 0.42503,0.3345 0.63867,0.5 0.16838,0.1319 0.33694,0.2635 0.50586,0.3946 0.20438,0.1602 0.40809,0.3213 0.61328,0.4804 0.20336,0.1594 0.40717,0.3184 0.61133,0.4766 0.1899,0.1488 0.37971,0.2976 0.57031,0.4453 0.20629,0.1617 0.41204,0.3239 0.61914,0.4844 0.16466,0.129 0.32896,0.2585 0.49415,0.3867 0.23277,0.1827 0.46538,0.3658 0.69921,0.5469 0.1815,0.1422 0.36279,0.2845 0.54493,0.4258 0.20365,0.1597 0.40687,0.32 0.61132,0.4785 0.21831,0.1712 0.43702,0.3419 0.65625,0.5117 0.21116,0.1655 0.42274,0.33 0.63477,0.4941 0.1724,0.1351 0.3446,0.2701 0.51758,0.4043 0.21116,0.1657 0.42078,0.3337 0.63281,0.4981 0.2318,0.1818 0.46442,0.3626 0.69727,0.5429 0.17446,0.1368 0.34838,0.2744 0.52343,0.4102 0.24703,0.1939 0.49398,0.3879 0.74219,0.5801 0.19133,0.1499 0.38218,0.3003 0.57422,0.4492 0.24028,0.1885 0.48126,0.3757 0.72266,0.5625 0.17192,0.1347 0.34312,0.2705 0.51562,0.4043 0.22841,0.1793 0.45612,0.3593 0.68555,0.5371 0.22267,0.1747 0.44629,0.3482 0.66992,0.5215 0.24643,0.1933 0.49262,0.3866 0.74023,0.5781 0.18847,0.1476 0.37726,0.2949 0.56641,0.4414 0.22161,0.1739 0.44345,0.3471 0.66602,0.5196 0.22706,0.178 0.45357,0.3565 0.68164,0.5332 0.20256,0.1588 0.40405,0.3188 0.60742,0.4765 0.26317,0.2066 0.5265,0.4126 0.79101,0.6172 0.17711,0.1388 0.35354,0.2782 0.53125,0.416 0.26004,0.2043 0.5199,0.409 0.78125,0.6113 0.22413,0.1758 0.44873,0.3511 0.67383,0.5254 0.21975,0.1724 0.43947,0.3447 0.66016,0.5157 0.24238,0.1902 0.48499,0.3798 0.72851,0.5683 0.22304,0.1749 0.44592,0.35 0.66993,0.5235 0.2255,0.1769 0.45123,0.3538 0.67773,0.5293 0.24267,0.1905 0.4847,0.3815 0.72852,0.5703 0.23324,0.183 0.46687,0.3654 0.70117,0.5468 0.24047,0.1888 0.48106,0.3774 0.72265,0.5645 0.23542,0.1847 0.47055,0.3696 0.70704,0.5527 0.24119,0.1893 0.48228,0.3788 0.72461,0.5664 0.22323,0.1752 0.44571,0.3517 0.66992,0.5254 0.2645,0.2078 0.52905,0.4154 0.79492,0.6211 0.2209,0.1733 0.44221,0.3457 0.66406,0.5176 0.25174,0.1977 0.50289,0.3959 0.75586,0.5918 0.25404,0.1994 0.50837,0.3981 0.76367,0.5957 0.2263,0.1776 0.4524,0.3551 0.67969,0.5313 0.26915,0.2113 0.53803,0.4234 0.80859,0.6328 0.23027,0.1806 0.46011,0.3618 0.69141,0.541 0.2875,0.2258 0.57612,0.4503 0.86523,0.6738 0.19858,0.1557 0.39637,0.3123 0.59571,0.4668 0.2903,0.2282 0.5811,0.4558 0.87304,0.6816 0.10236,0.08 0.20213,0.1642 0.30469,0.2442 h -113.10937 -0.004 c -81.61134,0 -147.56744,64.6346 -149.69531,145.7168 h 0.004 0.002 c -4e-5,0 3e-5,0 0,0 h 0.004 0.008 c -6e-5,0 5e-5,0 0,0.01 h 0.008 0.004 c -1.1e-4,0 9e-5,0.01 0,0.012 h 0.0117 0.008 c -1.1e-4,0 10e-5,0.01 0,0.012 h 0.0156 0.002 c -1.3e-4,0.01 1.4e-4,0.01 0,0.016 h 0.0234 0.004 c -1.6e-4,0.01 1.5e-4,0.012 0,0.018 h 0.0273 c -2e-4,0.01 2.1e-4,0.016 0,0.023 h 0.0312 c -2.4e-4,0.01 -0.002,0.018 -0.002,0.027 h 0.0391 c -2.2e-4,0.01 -0.002,0.017 -0.002,0.025 h 0.041 c -2.7e-4,0.01 -0.002,0.021 -0.002,0.031 h 0.043 c -2.9e-4,0.011 -0.002,0.022 -0.002,0.033 h 0.0508 c -3.3e-4,0.012 -0.002,0.025 -0.002,0.037 h 0.0508 c -3.5e-4,0.013 -0.002,0.026 -0.002,0.039 h 0.0547 c -3.6e-4,0.014 -0.002,0.027 -0.002,0.041 h 0.0586 c -4e-4,0.015 -0.002,0.03 -0.002,0.045 h 0.0664 c -4.3e-4,0.016 -0.002,0.032 -0.002,0.049 h 0.0664 c -4.5e-4,0.017 -0.002,0.034 -0.002,0.051 h 0.0703 c -4.7e-4,0.018 -0.001,0.035 -0.002,0.053 h 0.0742 c -5e-4,0.019 -10e-4,0.038 -0.002,0.057 h 0.0781 c -5.4e-4,0.02 -10e-4,0.04 -0.002,0.061 h 0.0801 c -5.8e-4,0.022 -0.001,0.043 -0.002,0.064 h 0.0898 c -5.6e-4,0.021 -10e-4,0.042 -0.002,0.062 h 0.0879 c -6.1e-4,0.023 -10e-4,0.046 -0.002,0.068 h 0.0937 c -6.4e-4,0.024 -0.001,0.048 -0.002,0.072 h 0.0957 c -6.4e-4,0.024 -10e-4,0.048 -0.002,0.072 h 0.10156 c -7e-4,0.026 -0.003,0.052 -0.004,0.078 h 0.10742 c -7.2e-4,0.027 -0.003,0.053 -0.004,0.08 h 0.10938 c -7.5e-4,0.028 -0.003,0.056 -0.004,0.084 h 0.11328 c -7.7e-4,0.029 -0.003,0.057 -0.004,0.086 h 0.11718 c -7.8e-4,0.029 -0.003,0.058 -0.004,0.088 h 0.12109 c -8e-4,0.03 -0.003,0.06 -0.004,0.09 h 0.125 c -8.5e-4,0.031 -0.003,0.062 -0.004,0.094 h 0.12891 c -9e-4,0.033 -0.003,0.066 -0.004,0.1 h 0.13281 c -8.8e-4,0.033 -0.003,0.065 -0.004,0.098 h 0.13476 c -9.5e-4,0.035 -0.003,0.07 -0.004,0.1054 h 0.14063 c -9.5e-4,0.035 -0.003,0.07 -0.004,0.1055 h 0.14258 c -10e-4,0.037 -0.003,0.074 -0.004,0.1113 h 0.14454 c -9.9e-4,0.037 -0.003,0.073 -0.004,0.1094 h 0.15234 c -10e-4,0.039 -0.003,0.078 -0.004,0.1172 h 0.15429 c -10e-4,0.039 -0.003,0.078 -0.004,0.1172 h 0.1582 c -10e-4,0.04 -0.003,0.081 -0.004,0.1211 h 0.16406 c -10e-4,0.04 -0.003,0.081 -0.004,0.1211 h 0.16602 c -10e-4,0.042 -0.003,0.084 -0.004,0.1269 h 0.16797 c -0.001,0.043 -0.005,0.086 -0.006,0.1289 h 0.17578 c -10e-4,0.044 -0.005,0.088 -0.006,0.1328 h 0.17969 c -10e-4,0.046 -0.005,0.091 -0.006,0.1368 h 0.18359 c -10e-4,0.045 -0.005,0.09 -0.006,0.1347 h 0.1836 c -10e-4,0.047 -0.005,0.094 -0.006,0.1407 h 0.19141 c -10e-4,0.048 -0.005,0.095 -0.006,0.1425 h 0.19531 c -10e-4,0.05 -0.005,0.099 -0.006,0.1485 h 0.19336 c -10e-4,0.05 -0.005,0.1001 -0.006,0.1504 h 0.20312 c -0.001,0.051 -0.005,0.1014 -0.006,0.1523 h 0.20704 c -10e-4,0.052 -0.005,0.1027 -0.006,0.1543 h 0.20507 c -10e-4,0.053 -0.004,0.1053 -0.006,0.1582 h 0.21485 c -10e-4,0.054 -0.004,0.1079 -0.006,0.1621 h 0.21289 c -10e-4,0.055 -0.004,0.1092 -0.006,0.1641 h 0.2207 c -0.002,0.056 -0.004,0.1105 -0.006,0.166 h 0.22266 c -0.002,0.057 -0.004,0.1131 -0.006,0.1699 h 0.22852 c -0.002,0.058 -0.004,0.1157 -0.006,0.1738 h 0.23047 c -0.002,0.06 -0.006,0.1183 -0.008,0.1778 h 0.23633 c -0.002,0.059 -0.004,0.1183 -0.006,0.1777 h 0.23828 c -0.002,0.061 -0.006,0.1209 -0.008,0.1817 h 0.24609 c -0.002,0.061 -0.006,0.1221 -0.008,0.1835 h 0.2461 c -0.002,0.062 -0.006,0.1235 -0.008,0.1856 h 0.25391 c -0.002,0.065 -0.006,0.1287 -0.008,0.1934 h 0.25195 c -0.002,0.065 -0.006,0.1286 -0.008,0.1933 h 0.26172 c -0.002,0.065 -0.006,0.13 -0.008,0.1953 h 0.26172 c -0.002,0.066 -0.006,0.1313 -0.008,0.1973 h 0.26367 c -0.002,0.068 -0.006,0.1352 -0.008,0.2031 h 0.27344 c -0.002,0.069 -0.006,0.1365 -0.008,0.2051 h 0.27149 c -0.002,0.069 -0.006,0.1378 -0.008,0.207 h 0.27734 c -0.002,0.071 -0.006,0.1417 -0.008,0.2129 h 0.2832 c -0.002,0.071 -0.006,0.1404 -0.008,0.211 h 0.2832 c -0.002,0.072 -0.006,0.1429 -0.008,0.2148 h 0.28711 c -0.002,0.074 -0.006,0.1469 -0.008,0.2207 h 0.29101 c -0.002,0.074 -0.006,0.1482 -0.008,0.2227 h 0.30078 c -0.002,0.076 -0.008,0.1507 -0.01,0.2265 h 0.30079 c -0.002,0.076 -0.008,0.1508 -0.01,0.2266 h 0.30469 c -0.002,0.077 -0.008,0.1534 -0.01,0.2305 h 0.3086 c -0.002,0.078 -0.008,0.1559 -0.01,0.2343 h 0.3125 c -0.002,0.08 -0.008,0.1586 -0.01,0.2383 h 0.31641 c -0.002,0.08 -0.008,0.1586 -0.01,0.2383 h 0.32226 c -0.002,0.081 -0.008,0.1612 -0.01,0.2422 h 0.32421 c -0.002,0.082 -0.008,0.1624 -0.01,0.2441 h 0.32812 c -0.002,0.084 -0.008,0.1664 -0.01,0.25 h 0.33008 c -0.002,0.085 -0.008,0.169 -0.01,0.2539 h 0.33399 c -0.002,0.085 -0.008,0.169 -0.01,0.2539 h 0.33984 c -0.002,0.086 -0.008,0.1703 -0.01,0.2559 h 0.34179 c -0.002,0.088 -0.007,0.1742 -0.01,0.2617 h 0.3457 c -0.002,0.087 -0.007,0.1729 -0.01,0.2598 h 0.35156 c -0.002,0.089 -0.007,0.1768 -0.01,0.2656 h 0.35352 c -0.003,0.091 -0.007,0.1807 -0.01,0.2715 h 0.35742 c -0.002,0.089 -0.007,0.1781 -0.01,0.2676 h 0.36133 c -0.003,0.093 -0.007,0.1846 -0.01,0.2773 h 0.36524 c -0.003,0.092 -0.007,0.1833 -0.01,0.2754 h 0.36914 c -0.003,0.095 -0.009,0.1885 -0.0117,0.2832 h 0.375 c -0.003,0.095 -0.009,0.1885 -0.0117,0.2832 h 0.37891 c -0.003,0.095 -0.009,0.1885 -0.0117,0.2832 h 0.37891 c -0.003,0.097 -0.009,0.1937 -0.0117,0.291 h 0.38476 c -0.003,0.097 -0.009,0.1937 -0.0117,0.291 h 0.39062 c -0.003,0.099 -0.009,0.1963 -0.0117,0.295 h 0.39258 c -0.003,0.1 -0.009,0.1988 -0.0117,0.2988 h 0.39649 c -0.003,0.1 -0.009,0.1989 -0.0117,0.2988 h 0.40234 c -0.003,0.1025 -0.009,0.2041 -0.0117,0.3067 h 0.40039 c -0.003,0.1018 -0.009,0.2027 -0.0117,0.3046 h 0.40821 c -0.003,0.1039 -0.009,0.2067 -0.0117,0.3106 h 0.41211 c -0.003,0.1038 -0.009,0.2067 -0.0117,0.3105 h 0.41406 c -0.003,0.1058 -0.009,0.2106 -0.0117,0.3164 h 0.41992 c -0.003,0.1065 -0.009,0.2119 -0.0117,0.3184 h 0.42187 c -0.003,0.1071 -0.009,0.2132 -0.0117,0.3203 h 0.42774 c -0.003,0.1077 -0.009,0.2146 -0.0117,0.3223 h 0.42773 c -0.003,0.1096 -0.009,0.2184 -0.0117,0.3281 h 0.4375 c -0.003,0.1103 -0.0108,0.2197 -0.0137,0.3301 h 0.4375 c -0.003,0.111 -0.0108,0.221 -0.0137,0.332 h 0.44336 c -0.003,0.1123 -0.0107,0.2236 -0.0137,0.336 h 0.44922 c -0.003,0.1135 -0.0107,0.2261 -0.0137,0.3398 h 0.44727 c -0.003,0.1136 -0.0107,0.2261 -0.0137,0.3398 h 0.45703 c -0.003,0.1155 -0.0106,0.2302 -0.0137,0.3457 h 0.45508 c -0.003,0.1162 -0.0106,0.2314 -0.0137,0.3477 h 0.46289 c -0.003,0.1161 -0.0106,0.2314 -0.0137,0.3477 h 0.46485 c -0.003,0.1182 -0.0106,0.2352 -0.0137,0.3535 h 0.47071 c -0.003,0.1188 -0.0106,0.2365 -0.0137,0.3554 h 0.47071 c -0.003,0.1201 -0.0105,0.2392 -0.0137,0.3594 h 0.47851 c -0.003,0.1214 -0.0105,0.2418 -0.0137,0.3633 h 0.47852 c -0.003,0.1214 -0.0105,0.2418 -0.0137,0.3633 h 0.48633 c -0.003,0.1221 -0.0105,0.2431 -0.0137,0.3652 h 0.48633 c -0.004,0.124 -0.0104,0.247 -0.0137,0.3711 h 0.49023 c -0.004,0.1253 -0.0104,0.2496 -0.0137,0.375 h 0.49609 c -0.004,0.126 -0.0104,0.2509 -0.0137,0.377 h 0.5 c -0.004,0.1266 -0.0123,0.2522 -0.0156,0.3789 h 0.50586 c -0.004,0.1272 -0.0103,0.2535 -0.0137,0.3808 h 0.50586 c -0.004,0.1292 -0.0122,0.2574 -0.0156,0.3867 h 0.51172 c -0.004,0.1286 -0.0122,0.2561 -0.0156,0.3848 h 0.51367 c -0.004,0.1312 -0.0122,0.2613 -0.0156,0.3926 h 0.52148 c -0.004,0.1312 -0.0122,0.2612 -0.0156,0.3926 h 0.52344 c -0.004,0.1331 -0.0121,0.2652 -0.0156,0.3984 h 0.52539 c -0.004,0.1325 -0.0122,0.2639 -0.0156,0.3965 h 0.52929 c -0.004,0.1351 -0.0121,0.2691 -0.0156,0.4043 h 0.53711 c -0.004,0.1351 -0.0121,0.2691 -0.0156,0.4043 h 0.53711 c -0.004,0.1364 -0.0121,0.2717 -0.0156,0.4082 h 0.54101 c -0.004,0.1377 -0.012,0.2743 -0.0156,0.4121 h 0.54492 c -0.004,0.1377 -0.012,0.2743 -0.0156,0.4121 h 0.54883 c -0.004,0.1403 -0.0119,0.2795 -0.0156,0.4199 h 0.55273 c -0.004,0.1397 -0.012,0.2782 -0.0156,0.418 h 0.55859 c -0.004,0.1416 -0.0119,0.2821 -0.0156,0.4238 h 0.56055 c -0.004,0.1416 -0.0119,0.2821 -0.0156,0.4238 h 0.56445 c -0.004,0.1436 -0.0119,0.286 -0.0156,0.4297 h 0.56835 c -0.004,0.1443 -0.0138,0.2873 -0.0176,0.4317 h 0.57422 c -0.004,0.1455 -0.0138,0.2899 -0.0176,0.4355 h 0.57617 c -0.004,0.145 -0.0138,0.2886 -0.0176,0.4336 h 0.58008 c -0.004,0.1482 -0.0137,0.2951 -0.0176,0.4434 h 0.58594 c -0.004,0.1475 -0.0137,0.2937 -0.0176,0.4414 h 0.58789 c -0.004,0.1488 -0.0137,0.2964 -0.0176,0.4453 h 0.5918 c -0.004,0.1507 -0.0136,0.3004 -0.0176,0.4512 h 0.5957 c -0.004,0.15 -0.0136,0.299 -0.0176,0.4492 h 0.59961 c -0.004,0.1527 -0.0136,0.3042 -0.0176,0.457 h 0.60351 c -0.004,0.1528 -0.0136,0.3042 -0.0176,0.457 h 0.60742 c -0.004,0.1528 -0.0136,0.3042 -0.0176,0.4571 h 0.60742 c -0.005,0.1553 -0.0135,0.3094 -0.0176,0.4648 h 0.61524 c -0.005,0.1554 -0.0135,0.3094 -0.0176,0.4649 h 0.61719 c -0.005,0.1579 -0.0134,0.3146 -0.0176,0.4726 h 0.62305 c -0.005,0.1567 -0.0135,0.312 -0.0176,0.4688 h 0.625 c -0.005,0.1592 -0.0134,0.3172 -0.0176,0.4765 h 0.63281 c -0.005,0.1606 -0.0153,0.3198 -0.0195,0.4805 h 0.63086 c -0.005,0.1605 -0.0153,0.3198 -0.0195,0.4805 h 0.64062 c -0.005,0.1612 -0.0153,0.3211 -0.0195,0.4824 H -562 c -0.005,0.1618 -0.0153,0.3224 -0.0195,0.4844 h 0.64648 c -0.005,0.1638 -0.0152,0.3262 -0.0195,0.4902 h 0.64649 c -0.005,0.1644 -0.0152,0.3276 -0.0195,0.4922 h 0.65624 c -0.005,0.1658 -0.0152,0.3302 -0.0195,0.4961 h 0.65821 c -0.005,0.1664 -0.0152,0.3314 -0.0195,0.498 h 0.6582 c -0.005,0.1678 -0.0151,0.3341 -0.0195,0.502 h 0.66601 c -0.005,0.1684 -0.0151,0.3354 -0.0195,0.5039 h 0.66797 c -0.005,0.169 -0.0151,0.3368 -0.0195,0.5058 h 0.66992 c -0.005,0.1704 -0.0151,0.3393 -0.0195,0.5098 h 0.67773 c -0.005,0.1716 -0.015,0.3419 -0.0195,0.5137 h 0.68164 c -0.005,0.1722 -0.015,0.3432 -0.0195,0.5156 h 0.67969 c -0.005,0.1729 -0.015,0.3446 -0.0195,0.5176 h 0.68945 c -0.005,0.1742 -0.015,0.3471 -0.0195,0.5215 h 0.6875 c -0.005,0.1754 -0.0149,0.3498 -0.0195,0.5254 h 0.69727 c -0.005,0.1768 -0.0149,0.3523 -0.0195,0.5293 h 0.69532 c -0.005,0.1768 -0.0149,0.3523 -0.0195,0.5293 h 0.70508 c -0.005,0.1775 -0.0168,0.3535 -0.0215,0.5312 h 0.70703 c -0.005,0.1795 -0.0168,0.3575 -0.0215,0.5371 h 0.71289 c -0.005,0.1794 -0.0168,0.3575 -0.0215,0.5371 h 0.71289 c -0.005,0.1821 -0.0167,0.3627 -0.0215,0.545 h 0.7207 c -0.005,0.1813 -0.0167,0.3613 -0.0215,0.5429 h 0.7207 c -0.005,0.1833 -0.0167,0.3654 -0.0215,0.5488 h 0.7246 c -0.005,0.1828 -0.0167,0.364 -0.0215,0.5469 h 0.73242 c -0.006,0.186 -0.0166,0.3705 -0.0215,0.5567 h 0.73047 c -0.006,0.1853 -0.0166,0.3691 -0.0215,0.5547 h 0.73633 c -0.006,0.1871 -0.0166,0.3731 -0.0215,0.5605 h 0.74414 c -0.006,0.1879 -0.0166,0.3744 -0.0215,0.5625 h 0.74219 c -0.006,0.1879 -0.0166,0.3744 -0.0215,0.5625 h 0.74804 c -0.006,0.1898 -0.0165,0.3784 -0.0215,0.5684 h 0.7539 c -0.006,0.1904 -0.0165,0.3796 -0.0215,0.5703 h 0.75586 c -0.006,0.1918 -0.0165,0.3822 -0.0215,0.5742 h 0.75782 c -0.006,0.1931 -0.0164,0.3848 -0.0215,0.5781 h 0.76172 c -0.006,0.1932 -0.0164,0.3848 -0.0215,0.5781 h 0.77148 c -0.006,0.1945 -0.0183,0.3874 -0.0234,0.5821 h 0.77149 c -0.006,0.1958 -0.0163,0.3899 -0.0215,0.5859 h 0.77539 c -0.006,0.1971 -0.0183,0.3927 -0.0234,0.5898 h 0.77929 c -0.006,0.1971 -0.0183,0.3926 -0.0234,0.5899 h 0.7832 c -0.006,0.1984 -0.0182,0.3952 -0.0234,0.5937 h 0.78711 c -0.006,0.1997 -0.0182,0.3979 -0.0234,0.5977 h 0.78907 c -0.006,0.2003 -0.0182,0.3991 -0.0234,0.5996 h 0.79883 c -0.006,0.2023 -0.0181,0.403 -0.0234,0.6055 h 0.79883 c -0.006,0.2016 -0.0181,0.4016 -0.0234,0.6035 h 0.80078 c -0.006,0.2036 -0.0181,0.4056 -0.0234,0.6094 h 0.80665 c -0.006,0.2042 -0.0181,0.4068 -0.0234,0.6113 h 0.80859 c -0.006,0.2048 -0.0181,0.4082 -0.0234,0.6133 h 0.81446 c -0.006,0.2068 -0.018,0.4121 -0.0234,0.6191 h 0.81641 c -0.006,0.2075 -0.018,0.4134 -0.0234,0.6211 h 0.82226 c -0.006,0.2082 -0.018,0.4147 -0.0234,0.6231 h 0.82421 c -0.006,0.2081 -0.018,0.4146 -0.0234,0.623 h 0.82812 c -0.006,0.2108 -0.0179,0.4198 -0.0234,0.6309 h 0.83203 c -0.006,0.2113 -0.0179,0.4212 -0.0234,0.6328 h 0.83594 c -0.006,0.212 -0.0179,0.4225 -0.0234,0.6347 h 0.83789 c -0.006,0.2121 -0.0198,0.4225 -0.0254,0.6348 h 0.8457 c -0.007,0.2147 -0.0197,0.4277 -0.0254,0.6426 h 0.84961 c -0.007,0.2147 -0.0198,0.4276 -0.0254,0.6426 h 0.85352 c -0.007,0.2158 -0.0197,0.4304 -0.0254,0.6464 h 0.85743 c -0.007,0.2167 -0.0197,0.4316 -0.0254,0.6485 h 0.85937 c -0.007,0.2173 -0.0197,0.4328 -0.0254,0.6504 h 0.86133 c -0.007,0.2198 -0.0196,0.4381 -0.0254,0.6582 h 0.86719 c -0.007,0.2198 -0.0196,0.4381 -0.0254,0.6582 h 0.87304 c -0.007,0.2205 -0.0196,0.4394 -0.0254,0.6601 h 0.875 c -0.007,0.2212 -0.0196,0.4407 -0.0254,0.6622 h 0.88086 c -0.007,0.2235 -0.0195,0.4459 -0.0254,0.6699 h 0.87891 c -0.007,0.2231 -0.0195,0.4445 -0.0254,0.6679 h 0.88672 c -0.007,0.225 -0.0195,0.4486 -0.0254,0.6739 h 0.89063 c -0.007,0.2256 -0.0195,0.4499 -0.0254,0.6757 h 0.89062 c -0.007,0.2258 -0.0195,0.4498 -0.0254,0.6758 h 0.90039 c -0.007,0.2277 -0.0214,0.4537 -0.0273,0.6817 h 0.9043 c -0.007,0.2283 -0.0214,0.455 -0.0274,0.6836 h 0.9043 c -0.007,0.2296 -0.0213,0.4576 -0.0273,0.6875 h 0.9121 c -0.007,0.2309 -0.0213,0.4601 -0.0273,0.6914 h 0.91211 c -0.007,0.2309 -0.0213,0.4601 -0.0273,0.6914 h 0.91992 c -0.007,0.2322 -0.0213,0.4627 -0.0274,0.6953 h 0.92188 c -0.007,0.2336 -0.0212,0.4654 -0.0273,0.6992 h 0.92382 c -0.007,0.2349 -0.0212,0.468 -0.0273,0.7031 h 0.92969 c -0.007,0.2349 -0.0212,0.468 -0.0274,0.7032 h 0.93164 c -0.007,0.2362 -0.0211,0.4705 -0.0273,0.707 h 0.9375 c -0.007,0.2374 -0.0211,0.4733 -0.0273,0.7109 h 0.93945 c -0.007,0.2387 -0.0211,0.4759 -0.0273,0.7149 h 0.94531 c -0.007,0.2381 -0.0211,0.4744 -0.0273,0.7129 h 0.94531 c -0.007,0.2401 -0.021,0.4783 -0.0274,0.7187 h 0.94922 c -0.008,0.2413 -0.021,0.4811 -0.0273,0.7227 h 0.95703 c -0.008,0.242 -0.021,0.4822 -0.0273,0.7246 h 0.95703 c -0.008,0.2439 -0.0209,0.4862 -0.0274,0.7304 h 0.96485 c -0.008,0.2433 -0.021,0.485 -0.0274,0.7286 h 0.96485 c -0.008,0.2452 -0.0209,0.4888 -0.0274,0.7343 h 0.97071 c -0.008,0.2459 -0.0228,0.4902 -0.0293,0.7364 h 0.97852 c -0.008,0.2472 -0.0228,0.4927 -0.0293,0.7402 h 0.97656 c -0.008,0.2473 -0.0228,0.4926 -0.0293,0.7402 h 0.98243 c -0.008,0.2492 -0.0228,0.4967 -0.0293,0.7461 h 0.98633 c -0.008,0.2498 -0.0227,0.4979 -0.0293,0.7481 h 0.99219 c -0.008,0.2511 -0.0227,0.5005 -0.0293,0.7519 h 0.99414 c -0.008,0.2511 -0.0227,0.5005 -0.0293,0.752 h 0.99609 c -0.008,0.2524 -0.0227,0.5031 -0.0293,0.7558 h 1 c -0.008,0.2537 -0.0226,0.5058 -0.0293,0.7598 h 1.00781 c -0.008,0.255 -0.0226,0.5083 -0.0293,0.7637 h 1.00977 c -0.008,0.2563 -0.0226,0.5109 -0.0293,0.7676 h 1.01172 c -0.008,0.2562 -0.0226,0.5109 -0.0293,0.7675 h 1.01563 c -0.008,0.2571 -0.0226,0.5121 -0.0293,0.7696 h 1.01953 c -0.008,0.2588 -0.0225,0.5161 -0.0293,0.7754 h 1.02344 c -0.008,0.2601 -0.0224,0.5187 -0.0293,0.7793 h 1.02735 c -0.008,0.2596 -0.0225,0.5173 -0.0293,0.7773 h 1.03125 c -0.008,0.2615 -0.0244,0.5213 -0.0312,0.7832 h 1.04102 c -0.008,0.2623 -0.0244,0.5225 -0.0312,0.7852 h 1.04101 c -0.008,0.264 -0.0243,0.5265 -0.0312,0.791 h 1.04297 c -0.008,0.2635 -0.0243,0.5251 -0.0312,0.789 h 1.04883 c -0.008,0.2654 -0.0243,0.5292 -0.0312,0.795 h 1.05078 c -0.008,0.2661 -0.0243,0.5303 -0.0312,0.7968 h 1.05664 c -0.009,0.2675 -0.0242,0.533 -0.0312,0.8008 h 1.0586 c -0.009,0.2687 -0.0242,0.5356 -0.0313,0.8047 h 1.06446 c -0.009,0.2692 -0.0242,0.537 -0.0312,0.8066 h 1.0625 c -0.009,0.27 -0.0242,0.5382 -0.0312,0.8086 h 1.07031 c -0.009,0.2713 -0.0241,0.5408 -0.0312,0.8125 h 1.07422 c -0.009,0.2713 -0.0241,0.5409 -0.0312,0.8125 h 1.07812 c -0.009,0.2739 -0.024,0.5461 -0.0312,0.8203 h 1.08204 c -0.009,0.2739 -0.0241,0.5461 -0.0312,0.8204 h 1.08593 c -0.009,0.2746 -0.024,0.5472 -0.0312,0.8222 h 1.08985 c -0.009,0.2753 -0.024,0.5486 -0.0312,0.8242 h 1.09375 c -0.009,0.2779 -0.024,0.5538 -0.0312,0.8321 h 1.09375 c -0.009,0.2778 -0.0259,0.5537 -0.0332,0.832 h 1.10352 c -0.009,0.2785 -0.0259,0.5551 -0.0332,0.834 h 1.10547 c -0.009,0.2804 -0.0239,0.559 -0.0313,0.8398 h 1.10938 c -0.009,0.2804 -0.0258,0.559 -0.0332,0.8399 h 1.11132 c -0.009,0.2823 -0.0258,0.5629 -0.0332,0.8457 h 1.11719 c -0.009,0.283 -0.0258,0.5642 -0.0332,0.8476 h 1.12109 c -0.009,0.2836 -0.0258,0.5656 -0.0332,0.8496 h 1.12304 c -0.009,0.2838 -0.0257,0.5655 -0.0332,0.8497 h 1.12891 c -0.009,0.2856 -0.0257,0.5693 -0.0332,0.8554 h 1.13282 c -0.009,0.2876 -0.0257,0.5733 -0.0332,0.8614 h 1.13282 c -0.009,0.2875 -0.0257,0.5732 -0.0332,0.8613 h 1.14063 c -0.009,0.2877 -0.0256,0.5732 -0.0332,0.8613 h 1.14454 c -0.009,0.2903 -0.0256,0.5785 -0.0332,0.8691 h 1.14453 c -0.009,0.2903 -0.0256,0.5785 -0.0332,0.8692 h 1.15234 c -0.009,0.2915 -0.0255,0.581 -0.0332,0.873 h 1.15234 c -0.01,0.2929 -0.0274,0.5837 -0.0351,0.877 h 1.16015 c -0.01,0.2928 -0.0255,0.5837 -0.0332,0.8769 h 1.16016 c -0.01,0.2941 -0.0255,0.5864 -0.0332,0.8809 h 1.16796 c -0.01,0.2953 -0.0274,0.5889 -0.0351,0.8848 h 1.16992 c -0.01,0.2966 -0.0274,0.5915 -0.0352,0.8886 h 1.17578 c -0.01,0.2979 -0.0273,0.5943 -0.0351,0.8926 h 1.17578 c -0.01,0.2973 -0.0254,0.5928 -0.0332,0.8906 h 1.18359 c -0.01,0.2993 -0.0273,0.5968 -0.0352,0.8965 h 1.1836 c -0.01,0.3001 -0.0273,0.5979 -0.0352,0.8985 h 1.19141 c -0.01,0.3018 -0.0272,0.6019 -0.0352,0.9043 h 1.19141 c -0.01,0.3012 -0.0272,0.6005 -0.0352,0.9023 h 1.19727 c -0.01,0.3032 -0.0272,0.6045 -0.0352,0.9082 h 1.20313 c -0.01,0.3038 -0.0272,0.6058 -0.0352,0.9102 h 1.20117 c -0.01,0.3052 -0.0271,0.6083 -0.0352,0.914 h 1.20704 c -0.0101,0.307 -0.0271,0.6124 -0.0352,0.92 h 1.21484 c -0.0101,0.3063 -0.0271,0.6109 -0.0351,0.9179 h 1.21484 c -0.0101,0.3078 -0.0271,0.6136 -0.0351,0.9219 h 1.21874 c -0.0102,0.3092 -0.027,0.6161 -0.0351,0.9258 h 1.22461 c -0.0102,0.3091 -0.027,0.6161 -0.0352,0.9258 h 1.22656 c -0.0103,0.3116 -0.027,0.6213 -0.0351,0.9336 h 1.22851 c -0.0103,0.3115 -0.027,0.6214 -0.0351,0.9335 h 1.23633 c -0.0104,0.313 -0.0289,0.6241 -0.0371,0.9375 h 1.23828 c -0.0104,0.3131 -0.0289,0.6239 -0.0371,0.9375 h 1.24609 c -0.0104,0.3156 -0.0288,0.6292 -0.0371,0.9454 h 1.2461 c -0.0105,0.3155 -0.0288,0.6292 -0.0371,0.9453 h 1.25 c -0.0105,0.3163 -0.0269,0.6304 -0.0352,0.9472 h 1.25391 c -0.0106,0.3183 -0.0288,0.6343 -0.0371,0.9532 h 1.25781 c -0.0106,0.3181 -0.0288,0.6343 -0.0371,0.9531 h 1.26172 c -0.0106,0.3188 -0.0287,0.6357 -0.0371,0.9551 h 1.26562 c -0.0107,0.3207 -0.0287,0.6396 -0.0371,0.9609 h 1.26953 c -0.0107,0.3215 -0.0287,0.6408 -0.0371,0.9629 h 1.27148 c -0.0108,0.3234 -0.0286,0.6448 -0.0371,0.9687 h 1.27735 c -0.0108,0.3227 -0.0286,0.6436 -0.0371,0.9668 h 1.28125 c -0.0108,0.3241 -0.0286,0.646 -0.0371,0.9707 h 1.2832 c -0.0109,0.3258 -0.0285,0.6502 -0.0371,0.9766 h 1.28906 c -0.0109,0.3266 -0.0285,0.6513 -0.0371,0.9785 h 1.29297 c -0.0109,0.3266 -0.0305,0.6514 -0.0391,0.9785 h 1.29688 c -0.011,0.328 -0.0285,0.6539 -0.0371,0.9825 h 1.29882 c -0.011,0.3291 -0.0285,0.6565 -0.0371,0.9863 h 1.30469 c -0.0111,0.3306 -0.0304,0.659 -0.0391,0.9902 h 1.30859 c -0.0111,0.3306 -0.0304,0.6591 -0.0391,0.9903 h 1.31445 c -0.0112,0.3331 -0.0303,0.6642 -0.0391,0.998 h 1.31641 c -0.0112,0.333 -0.0303,0.6644 -0.0391,0.998 h 1.32031 c -0.0112,0.3343 -0.0303,0.6671 -0.0391,1.002 h 1.32031 c -0.0113,0.3344 -0.0303,0.6669 -0.0391,1.002 h 1.32812 c -0.0113,0.3351 -0.0303,0.668 -0.0391,1.0039 h 1.33008 c -0.0114,0.337 -0.0302,0.672 -0.0391,1.0097 h 1.33594 c -0.0114,0.3383 -0.0302,0.6748 -0.0391,1.0137 h 1.33984 c -0.0114,0.3391 -0.0302,0.6759 -0.0391,1.0156 h 1.33789 c -0.0115,0.3397 -0.0301,0.6773 -0.0391,1.0176 h 1.34765 c -0.0116,0.3415 -0.0301,0.6812 -0.0391,1.0234 h 1.34961 c -0.0116,0.3417 -0.0301,0.6811 -0.0391,1.0235 h 1.35547 c -0.0116,0.3422 -0.0301,0.6825 -0.0391,1.0254 h 1.35547 c -0.0117,0.3441 -0.032,0.6864 -0.041,1.0312 h 1.36328 c -0.0117,0.3442 -0.03,0.6863 -0.0391,1.0313 h 1.36328 c -0.0118,0.3461 -0.03,0.6903 -0.0391,1.0371 h 1.36914 c -0.0118,0.3467 -0.0319,0.6916 -0.041,1.039 h 1.37305 c -0.0118,0.3468 -0.0299,0.6916 -0.0391,1.0391 h 1.37696 c -0.0119,0.3493 -0.0318,0.6968 -0.041,1.0469 h 1.38086 c -0.0119,0.3495 -0.0318,0.6967 -0.041,1.0469 h 1.38476 c -0.012,0.3505 -0.0318,0.6993 -0.041,1.0507 h 1.38867 c -0.012,0.3506 -0.0318,0.6995 -0.041,1.0508 h 1.39258 c -0.0121,0.3533 -0.0317,0.7046 -0.041,1.0586 h 1.39648 c -0.0121,0.3532 -0.0317,0.7046 -0.041,1.0586 h 1.40039 c -0.0121,0.354 -0.0317,0.7058 -0.041,1.0605 h 1.40234 c -0.0121,0.3546 -0.0317,0.7072 -0.041,1.0625 h 1.4082 c -0.0122,0.3571 -0.0316,0.7125 -0.041,1.0704 h 1.41016 c -0.0122,0.3565 -0.0317,0.711 -0.041,1.0683 h 1.41406 c -0.0123,0.3584 -0.0316,0.7151 -0.041,1.0742 h 1.41797 c -0.0124,0.3596 -0.0316,0.7178 -0.041,1.0782 h 1.42382 c -0.0124,0.359 -0.0316,0.7163 -0.041,1.0761 h 1.42578 c -0.0125,0.3618 -0.0315,0.7215 -0.041,1.084 h 1.42969 c -0.0125,0.3624 -0.0315,0.7228 -0.041,1.086 h 1.4336 c -0.0125,0.3631 -0.0334,0.7239 -0.043,1.0878 h 1.4375 c -0.0125,0.3633 -0.0315,0.7239 -0.041,1.0879 h 1.44336 c -0.0127,0.3662 -0.0333,0.7307 -0.043,1.0977 h 1.44532 c -0.0127,0.3657 -0.0334,0.7292 -0.043,1.0957 h 1.45117 c -0.0127,0.3668 -0.0333,0.732 -0.043,1.0996 h 1.45313 c -0.0127,0.367 -0.0333,0.7319 -0.043,1.0996 h 1.45703 c -0.0128,0.3695 -0.0333,0.7372 -0.043,1.1074 h 1.46094 c -0.0128,0.3696 -0.0333,0.7371 -0.043,1.1075 h 1.46484 c -0.0129,0.3707 -0.0332,0.7397 -0.043,1.1113 h 1.46875 c -0.0129,0.3722 -0.0332,0.7422 -0.043,1.1152 h 1.47265 c -0.0129,0.3721 -0.0332,0.7424 -0.043,1.1153 h 1.47657 c -0.013,0.3741 -0.0331,0.7461 -0.043,1.1211 h 1.48047 c -0.0131,0.3745 -0.0331,0.7475 -0.043,1.123 h 1.48242 c -0.0131,0.3758 -0.0331,0.7503 -0.043,1.127 h 1.48828 c -0.0131,0.3754 -0.0331,0.7486 -0.043,1.125 h 1.49024 c -0.0132,0.3785 -0.033,0.7552 -0.043,1.1347 h 1.49609 c -0.0132,0.3786 -0.035,0.7553 -0.0449,1.1348 h 1.5 c -0.0133,0.3793 -0.0349,0.7565 -0.0449,1.1367 h 1.5039 c -0.0133,0.3794 -0.033,0.7565 -0.043,1.1367 h 1.50586 c -0.0134,0.3826 -0.0349,0.7631 -0.0449,1.1465 h 1.51172 c -0.0134,0.382 -0.0349,0.7616 -0.0449,1.1445 h 1.51563 c -0.0135,0.3832 -0.0349,0.7644 -0.0449,1.1485 h 1.51953 c -0.0135,0.385 -0.0348,0.7684 -0.0449,1.1543 h 1.52149 c -0.0135,0.3844 -0.0348,0.7669 -0.0449,1.1523 h 1.52735 c -0.0136,0.387 -0.0348,0.7723 -0.0449,1.1602 h 1.52929 c -0.0136,0.387 -0.0347,0.7722 -0.0449,1.1601 h 1.53516 c -0.0137,0.3885 -0.0347,0.7747 -0.0449,1.1641 h 1.53711 c -0.0137,0.3883 -0.0347,0.7749 -0.0449,1.164 h 1.54102 c -0.0138,0.3911 -0.0346,0.78 -0.0449,1.1719 h 1.54492 c -0.0138,0.3909 -0.0346,0.7801 -0.0449,1.1719 h 1.54883 c -0.0139,0.3921 -0.0346,0.7828 -0.0449,1.1758 h 1.55274 c -0.0139,0.3917 -0.0346,0.7811 -0.0449,1.1738 h 1.55664 c -0.014,0.3949 -0.0365,0.7878 -0.0469,1.1836 h 1.56055 c -0.014,0.3947 -0.0346,0.7879 -0.0449,1.1836 H -303.5 c -0.0141,0.3957 -0.0365,0.7889 -0.0469,1.1855 h 1.56836 c -0.0141,0.3976 -0.0345,0.793 -0.0449,1.1915 h 1.57227 c -0.0142,0.3972 -0.0364,0.793 -0.0469,1.1914 h 1.57617 c -0.0142,0.3981 -0.0364,0.7942 -0.0469,1.1933 h 1.58203 c -0.0143,0.4009 -0.0363,0.7994 -0.0469,1.2012 h 1.58398 c -0.0143,0.4 -0.0364,0.7982 -0.0469,1.1992 h 1.58789 c -0.0144,0.4021 -0.0363,0.802 -0.0469,1.2051 h 1.58985 c -0.0144,0.4025 -0.0363,0.8035 -0.0469,1.207 h 1.5957 c -0.0144,0.4033 -0.0363,0.8047 -0.0469,1.209 h 1.59961 c -0.0145,0.4047 -0.0362,0.8072 -0.0469,1.2129 h 1.60156 c -0.0145,0.4058 -0.0362,0.8099 -0.0469,1.2168 h 1.60742 c -0.0146,0.4059 -0.0362,0.8099 -0.0469,1.2168 h 1.60937 c -0.0147,0.4086 -0.0361,0.8149 -0.0469,1.2246 h 1.61523 c -0.0147,0.4085 -0.0361,0.8151 -0.0469,1.2246 h 1.61718 c -0.0147,0.4086 -0.0361,0.815 -0.0469,1.2246 h 1.62109 c -0.0148,0.411 -0.0361,0.8204 -0.0469,1.2324 h 1.625 c -0.0148,0.4111 -0.0361,0.8203 -0.0469,1.2325 h 1.62891 c -0.0149,0.4122 -0.036,0.823 -0.0469,1.2363 h 1.63282 c -0.0149,0.4132 -0.036,0.824 -0.0469,1.2383 h 1.63672 c -0.015,0.415 -0.0379,0.828 -0.0488,1.2441 h 1.64258 c -0.015,0.4148 -0.0379,0.8282 -0.0488,1.2441 h 1.64453 c -0.0151,0.4156 -0.0379,0.8295 -0.0488,1.2461 h 1.6504 c -0.0152,0.4176 -0.0378,0.8333 -0.0488,1.252 h 1.65234 c -0.0152,0.4183 -0.0378,0.8345 -0.0488,1.2539 h 1.65625 c -0.0152,0.4188 -0.0378,0.836 -0.0488,1.2559 h 1.66016 c -0.0152,0.4195 -0.0378,0.8371 -0.0488,1.2578 h 1.66407 c -0.0153,0.4209 -0.0378,0.8397 -0.0488,1.2617 h 1.66797 c -0.0154,0.4227 -0.0377,0.8438 -0.0488,1.2676 h 1.67187 c -0.0154,0.4234 -0.0377,0.845 -0.0488,1.2695 h 1.67578 c -0.0155,0.4235 -0.0377,0.8449 -0.0488,1.2695 h 1.67773 c -0.0155,0.4246 -0.0377,0.8477 -0.0488,1.2735 h 1.6836 c -0.0156,0.426 -0.0376,0.8502 -0.0488,1.2773 h 1.6875 c -0.0156,0.4261 -0.0396,0.8501 -0.0508,1.2774 h 1.6914 c -0.0157,0.4287 -0.0376,0.8552 -0.0488,1.2851 h 1.69336 c -0.0157,0.4286 -0.0376,0.8555 -0.0488,1.2852 h 1.69726 c -0.0158,0.4299 -0.0375,0.8579 -0.0488,1.289 h 1.70117 c -0.0158,0.43 -0.0375,0.8579 -0.0488,1.2891 h 1.70703 c -0.0159,0.4324 -0.0394,0.8633 -0.0508,1.2969 h 1.71094 c -0.0159,0.4318 -0.0394,0.8619 -0.0508,1.2949 h 1.71484 c -0.016,0.4338 -0.0394,0.8657 -0.0508,1.3008 h 1.7168 c -0.0161,0.4349 -0.0393,0.8685 -0.0508,1.3047 h 1.72266 c -0.016,0.4346 -0.0394,0.8669 -0.0508,1.3027 h 1.72461 c -0.0161,0.4363 -0.0393,0.871 -0.0508,1.3086 h 1.73047 c -0.0162,0.4371 -0.0393,0.8722 -0.0508,1.3105 h 1.73243 c -0.0163,0.4389 -0.0392,0.8764 -0.0508,1.3164 h 1.73633 c -0.0163,0.4396 -0.0392,0.8776 -0.0508,1.3184 h 1.74024 c -0.0163,0.4399 -0.0392,0.8772 -0.0508,1.3184 h 1.74415 c -0.0164,0.4416 -0.0392,0.8813 -0.0508,1.3242 h 1.74805 c -0.0164,0.4423 -0.0391,0.8827 -0.0508,1.3261 h 1.75195 c -0.0165,0.4435 -0.0391,0.8854 -0.0508,1.3301 h 1.75586 c -0.0165,0.4435 -0.0391,0.8854 -0.0508,1.3301 h 1.75781 c -0.0166,0.4448 -0.0391,0.8879 -0.0508,1.334 h 1.76367 c -0.0166,0.4462 -0.039,0.8904 -0.0508,1.3379 h 1.76758 c -0.0167,0.4476 -0.041,0.8929 -0.0527,1.3418 h 1.77148 c -0.0167,0.4476 -0.039,0.8929 -0.0508,1.3418 h 1.77539 c -0.0169,0.45 -0.0409,0.8983 -0.0527,1.3496 h 1.77735 c -0.0169,0.45 -0.0389,0.8982 -0.0508,1.3496 h 1.78125 c -0.0169,0.4511 -0.0389,0.9011 -0.0508,1.3535 h 1.78515 c -0.0169,0.4511 -0.0389,0.9011 -0.0508,1.3535 h 1.79102 c -0.017,0.4522 -0.0409,0.902 -0.0527,1.3555 h 1.79297 c -0.0171,0.4552 -0.0408,0.9087 -0.0527,1.3652 h 1.79883 c -0.0171,0.4536 -0.0408,0.9064 -0.0527,1.3614 h 1.80274 c -0.0172,0.4559 -0.0407,0.9099 -0.0527,1.3671 h 1.80469 c -0.0172,0.4563 -0.0407,0.9115 -0.0527,1.3692 h 1.8086 c -0.0173,0.4583 -0.0407,0.9153 -0.0527,1.375 h 1.81446 c -0.0173,0.4587 -0.0426,0.9149 -0.0547,1.375 h 1.81836 c -0.0174,0.459 -0.0407,0.9165 -0.0527,1.3769 h 1.82032 c -0.0175,0.4611 -0.0406,0.9205 -0.0527,1.3828 h 1.82422 c -0.0175,0.4611 -0.0406,0.9204 -0.0527,1.3829 h 1.82812 c -0.0176,0.4624 -0.0406,0.9228 -0.0527,1.3867 h 1.83203 c -0.0177,0.4641 -0.0425,0.927 -0.0547,1.3926 h 1.83789 c -0.0176,0.4635 -0.0425,0.9257 -0.0547,1.3906 h 1.83985 c -0.0178,0.4661 -0.0405,0.9308 -0.0527,1.3984 h 1.84375 c -0.0178,0.4662 -0.0424,0.9308 -0.0547,1.3985 h 1.84765 c -0.0178,0.4672 -0.0424,0.9336 -0.0547,1.4023 H -179 c -0.0178,0.4669 -0.0424,0.932 -0.0547,1.4004 h 1.85547 c -0.018,0.4702 -0.0423,0.9385 -0.0547,1.4102 h 1.85938 c -0.018,0.4701 -0.0423,0.9384 -0.0547,1.4101 h 1.86328 c -0.0181,0.4713 -0.0423,0.9413 -0.0547,1.4141 h 1.86718 c -0.0181,0.4722 -0.0423,0.9422 -0.0547,1.416 h 1.87109 c -0.0181,0.4726 -0.0422,0.9438 -0.0547,1.418 h 1.87305 c -0.0182,0.4739 -0.0422,0.9464 -0.0547,1.4218 h 1.87891 c -0.0183,0.4746 -0.0422,0.9477 -0.0547,1.4239 h 1.88086 c -0.0184,0.4765 -0.0421,0.9515 -0.0547,1.4296 h 1.88672 c -0.0184,0.4773 -0.0421,0.9529 -0.0547,1.4317 h 1.89063 c -0.0185,0.4776 -0.0441,0.9544 -0.0566,1.4336 h 1.89453 c -0.0185,0.4786 -0.044,0.9553 -0.0566,1.4355 h 1.89844 c -0.0186,0.48 -0.0421,0.958 -0.0547,1.4395 h 1.90039 c -0.0186,0.48 -0.044,0.9579 -0.0566,1.4394 h 1.90625 c -0.0187,0.4829 -0.042,0.9649 -0.0547,1.4492 h 1.9082 c -0.0187,0.4824 -0.0439,0.9634 -0.0566,1.4473 h 1.91406 c -0.0188,0.4836 -0.0439,0.966 -0.0566,1.4512 h 1.91797 c -0.0189,0.4849 -0.0439,0.9685 -0.0566,1.4551 h 1.91992 c -0.0189,0.4849 -0.0439,0.9685 -0.0566,1.455 h 1.92579 c -0.019,0.4863 -0.0438,0.9712 -0.0566,1.459 h 1.92774 c -0.019,0.4876 -0.0438,0.9737 -0.0566,1.4629 h 1.93164 c -0.0191,0.4889 -0.0438,0.9763 -0.0566,1.4668 h 1.93555 c -0.0192,0.4896 -0.0438,0.9776 -0.0566,1.4688 h 1.93946 c -0.0192,0.4901 -0.0437,0.9788 -0.0566,1.4707 h 1.94336 c -0.0193,0.4914 -0.0437,0.9814 -0.0566,1.4746 h 1.94726 c -0.0193,0.4921 -0.0437,0.9827 -0.0566,1.4765 h 1.95313 c -0.0194,0.4928 -0.0456,0.9841 -0.0586,1.4786 h 1.95508 c -0.0195,0.495 -0.0436,0.9895 -0.0566,1.4863 h 1.95898 c -0.0195,0.4948 -0.0456,0.9879 -0.0586,1.4844 h 1.96289 c -0.0196,0.4963 -0.0436,0.9921 -0.0566,1.4902 h 1.96484 c -0.0196,0.4974 -0.0435,0.9931 -0.0566,1.4922 h 1.96875 c -0.0196,0.4973 -0.0435,0.9931 -0.0566,1.4922 h 1.97657 c -0.0198,0.4989 -0.0455,0.9973 -0.0586,1.498 h 1.97852 c -0.0198,0.5 -0.0454,0.9983 -0.0586,1.5 h 1.98242 c -0.0199,0.5013 -0.0454,1.0009 -0.0586,1.5039 h 1.98438 c -0.02,0.5026 -0.0434,1.0035 -0.0566,1.5078 h 1.98828 c -0.02,0.5026 -0.0454,1.0035 -0.0586,1.5078 h 1.99414 c -0.02,0.5039 -0.0453,1.0062 -0.0586,1.5118 h 1.99805 c -0.0201,0.5051 -0.0453,1.0087 -0.0586,1.5156 h 2 c -0.0201,0.5051 -0.0453,1.0087 -0.0586,1.5156 h 2.00586 c -0.0203,0.5077 -0.0452,1.0139 -0.0586,1.5235 h 2.00782 c -0.0203,0.5076 -0.0452,1.0139 -0.0586,1.5234 h 2.01172 c -0.0204,0.509 -0.0452,1.0165 -0.0586,1.5273 h 2.017577 c -0.02041,0.5097 -0.04714,1.0179 -0.06055,1.5293 h 2.019531 c -0.02046,0.5103 -0.04516,1.0192 -0.05859,1.5313 h 2.023437 c -0.02054,0.5115 -0.04513,1.0218 -0.05859,1.5351 h 2.027344 c -0.0206,0.5125 -0.0451,1.0228 -0.05859,1.5371 h 2.033203 c -0.0207,0.5141 -0.04702,1.0271 -0.06055,1.543 h 2.035156 c -0.0207,0.5138 -0.04702,1.0254 -0.06055,1.541 h 2.041015 c -0.02086,0.5167 -0.04695,1.0323 -0.06055,1.5508 h 2.042968 c -0.02085,0.5163 -0.04696,1.0306 -0.06055,1.5488 h 2.046874 c -0.02095,0.5179 -0.04496,1.035 -0.05859,1.5547 h 2.050781 c -0.02092,0.5172 -0.04693,1.0337 -0.06055,1.5528 h 2.054688 c -0.0211,0.5201 -0.04686,1.0385 -0.06055,1.5605 h 2.058594 c -0.02111,0.5201 -0.04686,1.0386 -0.06055,1.5606 h 2.0625 c -0.02119,0.5213 -0.04682,1.0411 -0.06055,1.5644 h 2.066406 c -0.02121,0.5215 -0.04682,1.0429 -0.06055,1.5664 h 2.070313 c -0.02133,0.5235 -0.04677,1.0468 -0.06055,1.5723 h 2.074219 c -0.02136,0.5238 -0.04676,1.0465 -0.06055,1.5722 h 2.076171 c -0.02144,0.5251 -0.04672,1.0492 -0.06055,1.5762 h 2.082031 c -0.02151,0.5261 -0.0467,1.0501 -0.06055,1.5781 h 2.083984 c -0.02155,0.5267 -0.04668,1.0515 -0.06055,1.5801 h 2.089843 c -0.02171,0.5292 -0.04857,1.0567 -0.0625,1.5879 h 2.09375 c -0.02169,0.5288 -0.04663,1.0571 -0.06055,1.5879 h 2.095704 c -0.0217,0.5287 -0.04663,1.0572 -0.06055,1.5879 h 2.099609 c -0.02184,0.531 -0.04657,1.0607 -0.06055,1.5937 h 2.103516 c -0.02189,0.5316 -0.04655,1.0621 -0.06055,1.5957 h 2.105469 c -0.02194,0.5322 -0.04653,1.0635 -0.06055,1.5977 h 2.113281 c -0.02205,0.5341 -0.04844,1.0673 -0.0625,1.6035 h 2.117187 c -0.02212,0.5351 -0.04841,1.0683 -0.0625,1.6055 h 2.119141 c -0.02214,0.5352 -0.04841,1.0701 -0.0625,1.6074 h 2.125 c -0.02229,0.5375 -0.04835,1.0736 -0.0625,1.6133 h 2.126953 c -0.0223,0.5374 -0.04835,1.0737 -0.0625,1.6133 h 2.13086 c -0.02235,0.538 -0.04833,1.075 -0.0625,1.6152 h 2.134765 c -0.02246,0.5399 -0.04828,1.079 -0.0625,1.6211 h 2.138672 c -0.02247,0.5398 -0.04828,1.0791 -0.0625,1.6211 h 2.142578 c -0.02256,0.541 -0.04825,1.0818 -0.0625,1.625 h 2.146485 c -0.02267,0.5427 -0.04821,1.084 -0.0625,1.6289 h 2.15039 c -0.02275,0.5439 -0.04818,1.0867 -0.0625,1.6328 h 2.154297 c -0.02276,0.5439 -0.05013,1.0868 -0.06445,1.6328 h 2.158203 c -0.02284,0.5451 -0.04815,1.0895 -0.0625,1.6367 h 2.162109 c -0.02293,0.5463 -0.04811,1.0922 -0.0625,1.6407 h 2.166016 c -0.02301,0.5475 -0.05004,1.0947 -0.06445,1.6445 h 2.169922 c -0.02301,0.5472 -0.05004,1.0932 -0.06445,1.6426 h 2.173828 c -0.02313,0.549 -0.04999,1.0971 -0.06445,1.6484 h 2.177734 c -0.02322,0.5503 -0.04996,1.0998 -0.06445,1.6524 h 2.181641 c -0.02326,0.5508 -0.04995,1.1011 -0.06445,1.6543 h 2.1855464 c -0.023311,0.5513 -0.049933,1.1025 -0.064453,1.6562 h 2.1894532 c -0.023459,0.5537 -0.049873,1.1061 -0.064453,1.6621 h 2.1933594 c -0.023507,0.5542 -0.049858,1.1076 -0.064453,1.6641 H -2 c -0.023554,0.5547 -0.049843,1.1089 -0.064453,1.666 h 2.20117185 c -0.0236019,0.5553 -0.04982861,1.1103 -0.06445313,1.668 H 2.2753906 c -0.023726,0.5571 -0.04978,1.1143 -0.064453,1.6738 h 2.2070313 c -0.02376,0.5574 -0.049772,1.114 -0.064453,1.6738 h 2.2128906 c -0.023847,0.5586 -0.04974,1.1167 -0.064453,1.6778 h 2.2148438 c -0.023882,0.5589 -0.049731,1.1163 -0.064453,1.6777 h 2.2187507 c -0.02405,0.5615 -0.04967,1.1216 -0.06445,1.6855 h 2.222657 c -0.02407,0.5616 -0.04966,1.1235 -0.06445,1.6875 h 2.226562 c -0.02414,0.5626 -0.05159,1.1245 -0.06641,1.6895 h 2.232422 c -0.02415,0.5624 -0.05159,1.1246 -0.06641,1.6894 h 2.234375 c -0.0243,0.5647 -0.04958,1.1282 -0.06445,1.6954 h 2.238281 c -0.02435,0.5651 -0.05152,1.1296 -0.06641,1.6972 H 23.875 c -0.02444,0.5663 -0.04953,1.1324 -0.06445,1.7012 h 2.246094 c -0.02453,0.5675 -0.05146,1.135 -0.06641,1.7051 h 2.25 c -0.0246,0.5685 -0.05143,1.1359 -0.06641,1.707 h 2.253906 c -0.02465,0.569 -0.05142,1.1374 -0.06641,1.709 h 2.257813 c -0.02474,0.5702 -0.05139,1.1401 -0.06641,1.7129 h 2.261719 c -0.02482,0.5711 -0.05136,1.1411 -0.06641,1.7148 h 2.265625 c -0.02492,0.5725 -0.05132,1.1456 -0.06641,1.7207 h 2.269531 c -0.02492,0.5722 -0.05133,1.144 -0.06641,1.7188 h 2.273437 c -0.02504,0.5739 -0.05129,1.148 -0.06641,1.7246 h 2.277344 c -0.02512,0.5749 -0.05321,1.149 -0.06836,1.7265 h 2.28125 c -0.02521,0.5761 -0.05123,1.1518 -0.06641,1.7305 h 2.283203 c -0.02526,0.5766 -0.05121,1.1532 -0.06641,1.7324 h 2.287109 c -0.02539,0.5784 -0.05117,1.1573 -0.06641,1.7383 h 2.292969 c -0.02542,0.5787 -0.05116,1.1569 -0.06641,1.7383 h 2.292969 c -0.02544,0.5785 -0.05116,1.1571 -0.06641,1.7383 h 2.300781 c -0.02564,0.5814 -0.05109,1.162 -0.06641,1.7461 h 2.302734 c -0.02565,0.5812 -0.05305,1.1621 -0.06836,1.7461 h 2.308594 c -0.02574,0.5823 -0.05301,1.1649 -0.06836,1.75 h 2.310547 c -0.02583,0.5835 -0.05103,1.1676 -0.06641,1.7539 h 2.314453 c -0.02595,0.5851 -0.05294,1.1699 -0.06836,1.7578 h 2.318359 c -0.02595,0.5849 -0.05099,1.1701 -0.06641,1.7578 h 2.322265 c -0.02604,0.5859 -0.05292,1.1711 -0.06836,1.7598 h 2.328125 c -0.02617,0.5876 -0.05288,1.1751 -0.06836,1.7656 h 2.330078 c -0.02626,0.5888 -0.05285,1.1779 -0.06836,1.7695 h 2.333984 c -0.02634,0.5898 -0.05282,1.1789 -0.06836,1.7715 h 2.337891 c -0.02639,0.5902 -0.05281,1.1804 -0.06836,1.7734 h 2.341797 c -0.02647,0.5912 -0.05278,1.1814 -0.06836,1.7754 h 2.345703 c -0.02661,0.593 -0.05273,1.1855 -0.06836,1.7813 h 2.347656 c -0.02657,0.592 -0.05276,1.1843 -0.06836,1.7793 h 2.355469 c -0.02671,0.5938 -0.05466,1.1884 -0.07031,1.7851 h 2.357422 c -0.02688,0.5961 -0.0546,1.192 -0.07031,1.7911 h 2.361328 c -0.0268,0.5944 -0.05269,1.1896 -0.06836,1.7871 h 2.365235 c -0.02701,0.5974 -0.05456,1.1945 -0.07031,1.7949 h 2.369141 c -0.02706,0.5979 -0.05455,1.196 -0.07031,1.7969 h 2.375009 c -0.0272,0.5996 -0.0545,1.2 -0.0703,1.8027 h 2.37696 c -0.0272,0.5995 -0.0545,1.2003 -0.0703,1.8027 h 2.38086 c -0.0272,0.5997 -0.0545,1.2001 -0.0703,1.8028 h 2.38281 c -0.0274,0.6021 -0.0544,1.2054 -0.0703,1.8105 h 2.38867 c -0.0275,0.6024 -0.0544,1.2051 -0.0703,1.8106 h 2.39258 c -0.0275,0.6032 -0.0544,1.2061 -0.0703,1.8125 h 2.39453 c -0.0277,0.605 -0.0524,1.2102 -0.0684,1.8183 h 2.39843 c -0.0277,0.6048 -0.0544,1.2105 -0.0703,1.8184 h 2.40431 c -0.0279,0.6071 -0.0563,1.2158 -0.0723,1.8261 h 2.40821 c -0.0279,0.6074 -0.0543,1.2138 -0.0703,1.8243 h 2.41015 c -0.028,0.6085 -0.0543,1.2183 -0.0703,1.83 h 2.41407 c -0.0281,0.6088 -0.0543,1.2182 -0.0703,1.8301 h 2.41796 c -0.0282,0.611 -0.0542,1.2218 -0.0703,1.836 h 2.42187 c -0.0282,0.6107 -0.0542,1.2219 -0.0703,1.8359 h 2.42578 c -0.0284,0.6125 -0.0561,1.2261 -0.0723,1.8418 h 2.43164 c -0.0284,0.6121 -0.0561,1.2245 -0.0723,1.8398 h 2.43359 c -0.0286,0.6151 -0.0541,1.2313 -0.0703,1.8496 h 2.4375 c -0.0286,0.6147 -0.0561,1.2297 -0.0723,1.8477 h 2.44141 c -0.0287,0.6157 -0.0541,1.2325 -0.0703,1.8516 h 2.44336 c -0.0288,0.6173 -0.054,1.2348 -0.0703,1.8554 h 2.44727 c -0.0239,0.5104 -0.0427,1.0212 -0.0586,1.5332 H 1243.959 c 2.2383,0 4.041,-1.8007 4.041,-4.039 V 649.35938 c -0.1728,-0.13494 -0.3434,-0.2724 -0.5156,-0.40821 -0.4031,-0.33404 -0.8193,-0.65209 -1.2305,-0.97656 -0.4142,-0.34325 -0.8429,-0.6688 -1.2656,-1.00195 -0.399,-0.33029 -0.8119,-0.64392 -1.2188,-0.96485 -0.3985,-0.33001 -0.8104,-0.64416 -1.2168,-0.96484 -0.4041,-0.33478 -0.8221,-0.65332 -1.2343,-0.97852 -0.3983,-0.32976 -0.8107,-0.64243 -1.2168,-0.96289 -0.3987,-0.33017 -0.8103,-0.64398 -1.2168,-0.96484 -0.3903,-0.32318 -0.7936,-0.63105 -1.1914,-0.94531 -0.3986,-0.33034 -0.8104,-0.64381 -1.2168,-0.96485 -0.3946,-0.32685 -0.8029,-0.63732 -1.2051,-0.95508 -0.3977,-0.32949 -0.8093,-0.64264 -1.2149,-0.96289 -0.3803,-0.3149 -0.7746,-0.61345 -1.1621,-0.91992 -0.414,-0.34328 -0.8412,-0.67064 -1.2636,-1.0039 -0.371,-0.30677 -0.757,-0.59578 -1.1348,-0.89454 -0.3874,-0.32102 -0.7869,-0.62717 -1.1816,-0.93945 -0.4025,-0.33359 -0.8181,-0.65045 -1.2286,-0.97461 -0.375,-0.31026 -0.7645,-0.60416 -1.1464,-0.90625 -0.3856,-0.31939 -0.7849,-0.62284 -1.1778,-0.93359 -0.3907,-0.32365 -0.7951,-0.63054 -1.1933,-0.94531 -0.3709,-0.3069 -0.7553,-0.59757 -1.1329,-0.89649 -0.3898,-0.32312 -0.7921,-0.63101 -1.1894,-0.94531 -0.3747,-0.31024 -0.763,-0.60415 -1.1445,-0.90625 -0.3917,-0.32448 -0.7962,-0.63363 -1.1954,-0.94922 -0.3671,-0.30383 -0.7491,-0.59069 -1.123,-0.88672 -0.378,-0.31314 -0.7693,-0.61114 -1.1543,-0.91601 -0.3855,-0.31928 -0.783,-0.62291 -1.1758,-0.9336 -0.3656,-0.30244 -0.745,-0.58808 -1.1172,-0.88281 -0.3666,-0.30359 -0.7459,-0.59284 -1.1191,-0.88867 -0.3791,-0.31417 -0.7721,-0.61209 -1.1582,-0.91797 -0.3606,-0.29862 -0.7346,-0.58192 -1.1016,-0.87305 -0.3844,-0.31865 -0.7822,-0.6215 -1.1738,-0.93164 -0.3595,-0.29744 -0.7319,-0.57912 -1.0977,-0.86914 -0.371,-0.30733 -0.7551,-0.59902 -1.1328,-0.89844 -0.3733,-0.30913 -0.7605,-0.60122 -1.1406,-0.90234 -0.3544,-0.29324 -0.7215,-0.57139 -1.082,-0.85742 -0.3664,-0.30344 -0.7463,-0.59098 -1.1192,-0.88672 -0.3591,-0.29736 -0.7303,-0.57917 -1.0957,-0.86914 -0.3756,-0.31115 -0.7641,-0.60709 -1.1464,-0.91016 -0.3502,-0.28958 -0.7143,-0.56313 -1.0704,-0.8457 -0.3575,-0.29603 -0.728,-0.57652 -1.0918,-0.86524 -0.3651,-0.3023 -0.7436,-0.58813 -1.1152,-0.88281 -0.3462,-0.28644 -0.7046,-0.55829 -1.0566,-0.83789 -0.3589,-0.29722 -0.7307,-0.57927 -1.0957,-0.86914 -0.3492,-0.28913 -0.7113,-0.56353 -1.0664,-0.8457 -0.3699,-0.30641 -0.7526,-0.59788 -1.1289,-0.89649 -0.3394,-0.2806 -0.6922,-0.54431 -1.0372,-0.81836 -0.3506,-0.29034 -0.7137,-0.56626 -1.0703,-0.84961 -0.3497,-0.28959 -0.7127,-0.56306 -1.0683,-0.8457 -0.3454,-0.28597 -0.7036,-0.55674 -1.0547,-0.83594 -0.3597,-0.29784 -0.7318,-0.58059 -1.0977,-0.87109 -0.3369,-0.27869 -0.6869,-0.5422 -1.0293,-0.81445 -0.3314,-0.27434 -0.675,-0.53462 -1.0117,-0.80274 -0.3747,-0.31073 -0.763,-0.60544 -1.1445,-0.9082 -0.3122,-0.25791 -0.6363,-0.50151 -0.9531,-0.75391 -0.3553,-0.29451 -0.7227,-0.57396 -1.084,-0.86133 -0.3545,-0.29341 -0.7215,-0.57111 -1.0821,-0.85742 -0.3126,-0.25831 -0.6378,-0.50111 -0.955,-0.7539 -0.3542,-0.29363 -0.7199,-0.57285 -1.0801,-0.85938 -0.3284,-0.27163 -0.6704,-0.52742 -1.0039,-0.79297 -0.3411,-0.28242 -0.6944,-0.55032 -1.041,-0.82617 -0.3294,-0.27252 -0.6713,-0.53047 -1.0059,-0.79687 -0.35,-0.28978 -0.7125,-0.56479 -1.0684,-0.84766 -0.315,-0.26033 -0.6432,-0.50502 -0.9628,-0.75977 -0.3269,-0.27058 -0.6661,-0.52644 -0.9981,-0.79101 -0.3344,-0.27693 -0.6798,-0.53991 -1.0195,-0.81055 -0.3241,-0.26827 -0.6611,-0.52084 -0.9903,-0.7832 -0.3343,-0.2769 -0.6798,-0.53993 -1.0195,-0.81055 -0.3165,-0.2619 -0.6455,-0.50935 -0.9668,-0.76562 -0.3375,-0.27957 -0.6864,-0.54519 -1.0293,-0.81836 -0.326,-0.2696 -0.6651,-0.52347 -0.9961,-0.78711 -0.3106,-0.25678 -0.634,-0.49862 -0.9492,-0.75 -0.318,-0.26331 -0.6478,-0.51189 -0.9707,-0.76953 -0.3329,-0.27568 -0.6775,-0.53717 -1.0156,-0.80664 -0.3117,-0.25769 -0.635,-0.50165 -0.9512,-0.75391 -0.3177,-0.26289 -0.6482,-0.51033 -0.9707,-0.76758 -0.321,-0.26562 -0.6527,-0.51747 -0.9785,-0.77734 -0.3134,-0.25924 -0.639,-0.50406 -0.9571,-0.75781 -0.3137,-0.25963 -0.6405,-0.50369 -0.9589,-0.75782 -0.3087,-0.25535 -0.6283,-0.498 -0.9414,-0.74804 -0.3156,-0.26119 -0.6427,-0.50804 -0.9629,-0.76368 -0.304,-0.2515 -0.6194,-0.48996 -0.9278,-0.73632 -0.3205,-0.26535 -0.6531,-0.51576 -0.9785,-0.77539 -0.3038,-0.25121 -0.6195,-0.4883 -0.9277,-0.73438 -0.3094,-0.25595 -0.6314,-0.49742 -0.9453,-0.74805 -0.3007,-0.24865 -0.6131,-0.48293 -0.918,-0.72656 -0.3023,-0.2501 -0.6153,-0.48739 -0.9219,-0.73242 -0.3108,-0.25729 -0.6338,-0.50003 -0.9492,-0.75195 -0.2966,-0.24529 -0.6055,-0.47639 -0.9062,-0.7168 -0.3009,-0.24893 -0.6129,-0.4846 -0.918,-0.72852 -0.3009,-0.24896 -0.6128,-0.48457 -0.918,-0.72851 -0.3012,-0.24919 -0.6144,-0.48435 -0.9199,-0.72852 -0.2915,-0.24103 -0.5932,-0.46874 -0.8887,-0.70508 -0.3008,-0.24896 -0.6129,-0.48455 -0.9179,-0.72851 -0.2821,-0.23331 -0.5756,-0.45273 -0.8614,-0.68164 -0.3228,-0.26743 -0.6566,-0.52155 -0.9843,-0.7832 -0.2774,-0.229 -0.5667,-0.44322 -0.8477,-0.66797 -0.2877,-0.23798 -0.5873,-0.46191 -0.8789,-0.69532 -0.2902,-0.24008 -0.5907,-0.46768 -0.8848,-0.70312 -0.2816,-0.23304 -0.574,-0.45297 -0.8593,-0.68164 -0.3076,-0.25467 -0.6275,-0.49469 -0.9395,-0.74414 -0.2822,-0.23311 -0.5755,-0.45292 -0.8613,-0.68164 -0.2701,-0.22326 -0.5508,-0.4331 -0.8242,-0.65235 -0.294,-0.24348 -0.5985,-0.47416 -0.8965,-0.71289 -0.2917,-0.24131 -0.595,-0.46845 -0.8907,-0.70508 -0.2729,-0.22558 -0.5575,-0.43671 -0.8339,-0.6582 -0.2831,-0.23418 -0.5765,-0.45577 -0.8633,-0.68555 -0.2759,-0.22817 -0.5624,-0.44397 -0.8418,-0.66796 -0.2875,-0.23787 -0.5857,-0.46199 -0.877,-0.69532 -0.2788,-0.23049 -0.5691,-0.4476 -0.8515,-0.67382 -0.2598,-0.21465 -0.5301,-0.41601 -0.793,-0.62696 -0.289,-0.23926 -0.588,-0.46648 -0.8809,-0.70117 -0.2646,-0.21877 -0.5406,-0.42374 -0.8086,-0.63867 -0.273,-0.22591 -0.5555,-0.44028 -0.832,-0.66211 -0.283,-0.23421 -0.5785,-0.45378 -0.8652,-0.68359 -0.2597,-0.21455 -0.5302,-0.4161 -0.793,-0.62696 -0.2773,-0.22941 -0.5648,-0.44666 -0.8457,-0.67187 -0.2497,-0.20638 -0.5091,-0.40055 -0.7617,-0.60352 -0.2851,-0.23608 -0.5803,-0.45976 -0.8692,-0.69141 -0.2596,-0.21451 -0.5302,-0.4161 -0.7929,-0.62695 -0.2656,-0.21961 -0.5417,-0.42681 -0.8106,-0.64258 -0.2617,-0.21636 -0.5339,-0.42018 -0.7988,-0.63281 -0.2606,-0.21547 -0.5312,-0.41908 -0.7949,-0.63086 -0.2749,-0.22738 -0.5614,-0.4408 -0.8399,-0.66406 -0.2315,-0.19116 -0.473,-0.37035 -0.707,-0.55859 -0.2811,-0.23284 -0.5726,-0.45311 -0.8574,-0.68165 -0.2401,-0.19828 -0.4897,-0.3849 -0.7324,-0.58007 -0.272,-0.22513 -0.5547,-0.43711 -0.8301,-0.65821 -0.2444,-0.20189 -0.499,-0.39119 -0.7461,-0.58984 -0.2632,-0.21766 -0.5364,-0.42282 -0.8027,-0.63672 -0.24,-0.19828 -0.4898,-0.38492 -0.7325,-0.58008 -0.2614,-0.21635 -0.5322,-0.42212 -0.7968,-0.63476 -0.2468,-0.20393 -0.5044,-0.39508 -0.7539,-0.59571 -0.2529,-0.20899 -0.5158,-0.40579 -0.7715,-0.61132 -0.2418,-0.19981 -0.4938,-0.38735 -0.7383,-0.58399 -0.2478,-0.20487 -0.5053,-0.39806 -0.7559,-0.59961 -0.2431,-0.20105 -0.4963,-0.39004 -0.7422,-0.58789 -0.2452,-0.20283 -0.5,-0.39417 -0.748,-0.59375 -0.2407,-0.199 -0.491,-0.38615 -0.7344,-0.58203 -0.2574,-0.21289 -0.5247,-0.41373 -0.7851,-0.62305 -0.2155,-0.1779 -0.4406,-0.34413 -0.6582,-0.51953 -0.2523,-0.20888 -0.5143,-0.40589 -0.7696,-0.61133 -0.2432,-0.20105 -0.4962,-0.39003 -0.7422,-0.58789 -0.2265,-0.18713 -0.4625,-0.3625 -0.6914,-0.54687 -0.2377,-0.19665 -0.4842,-0.38257 -0.7246,-0.57617 -0.2377,-0.19656 -0.4843,-0.38266 -0.7246,-0.57618 -0.2354,-0.19456 -0.4808,-0.37676 -0.7187,-0.56835 -0.2292,-0.18944 -0.4676,-0.36809 -0.6993,-0.55469 -0.2334,-0.19295 -0.4769,-0.37444 -0.7128,-0.56446 -0.2379,-0.19659 -0.4861,-0.38065 -0.7266,-0.57421 -0.2119,-0.17496 -0.4326,-0.33918 -0.6465,-0.51172 -0.2467,-0.20413 -0.5024,-0.3968 -0.7519,-0.59766 -0.2052,-0.16935 -0.4199,-0.32704 -0.627,-0.49414 -0.2352,-0.19464 -0.479,-0.37865 -0.7168,-0.57031 -0.226,-0.18676 -0.4611,-0.36286 -0.6894,-0.54688 -0.2183,-0.18032 -0.4456,-0.34957 -0.6661,-0.52734 -0.2157,-0.1783 -0.4403,-0.34569 -0.6582,-0.52148 -0.2402,-0.19874 -0.4895,-0.3864 -0.7324,-0.58204 -0.1994,-0.16459 -0.4081,-0.31801 -0.6094,-0.48046 -0.2266,-0.18744 -0.4624,-0.36415 -0.6914,-0.54883 -0.2139,-0.17677 -0.4363,-0.34326 -0.6523,-0.51758 -0.2176,-0.17983 -0.4444,-0.3481 -0.6641,-0.52539 -0.2035,-0.16824 -0.4156,-0.32617 -0.6211,-0.49219 -0.228,-0.18869 -0.4649,-0.36682 -0.6953,-0.55273 -0.2107,-0.17406 -0.4298,-0.33808 -0.6426,-0.50977 -0.2128,-0.17586 -0.4354,-0.34023 -0.6504,-0.51367 -0.2048,-0.1693 -0.4181,-0.32904 -0.625,-0.4961 -0.1974,-0.16325 -0.4041,-0.31538 -0.6035,-0.47656 -0.2237,-0.18515 -0.4555,-0.36048 -0.6816,-0.54297 -0.2112,-0.17438 -0.4314,-0.33775 -0.6445,-0.50976 -0.1847,-0.15245 -0.3782,-0.29468 -0.5645,-0.44531 -0.2135,-0.17663 -0.4348,-0.34339 -0.6504,-0.51758 -0.206,-0.1703 -0.4209,-0.33002 -0.6289,-0.49805 -0.2047,-0.16908 -0.4184,-0.32729 -0.625,-0.49414 -0.1875,-0.15485 -0.3831,-0.30015 -0.5723,-0.45313 -0.2094,-0.17319 -0.4272,-0.33694 -0.6386,-0.50781 -0.1919,-0.15846 -0.3924,-0.30638 -0.586,-0.46289 -0.1996,-0.16494 -0.4079,-0.3196 -0.6093,-0.48242 -0.1923,-0.1588 -0.3921,-0.30801 -0.586,-0.46484 -0.1967,-0.1626 -0.4011,-0.31603 -0.5996,-0.47657 -0.1964,-0.16229 -0.4014,-0.31436 -0.5996,-0.47461 -0.179,-0.14785 -0.3664,-0.28548 -0.5469,-0.43164 -0.2009,-0.16615 -0.4086,-0.32427 -0.6113,-0.48828 -0.1835,-0.15162 -0.3755,-0.29352 -0.5605,-0.44336 -0.1928,-0.15938 -0.3934,-0.30938 -0.5879,-0.46679 -0.1972,-0.16287 -0.4027,-0.31576 -0.6016,-0.47657 -0.1591,-0.13128 -0.3261,-0.25286 -0.4863,-0.38281 -0.2195,-0.18164 -0.4464,-0.35412 -0.668,-0.5332 -0.1706,-0.14065 -0.3496,-0.27105 -0.5215,-0.41016 -0.1632,-0.13476 -0.3336,-0.26117 -0.498,-0.39453 -0.2057,-0.17016 -0.4194,-0.33013 -0.627,-0.49805 -0.1597,-0.13182 -0.3274,-0.25428 -0.4883,-0.38476 -0.1969,-0.16291 -0.4009,-0.31766 -0.5996,-0.47852 -0.1655,-0.13663 -0.3391,-0.26326 -0.5058,-0.39843 -0.1867,-0.15432 -0.3801,-0.30066 -0.5684,-0.45313 -0.163,-0.13455 -0.3339,-0.25943 -0.498,-0.39258 -0.1857,-0.15352 -0.3792,-0.29752 -0.5664,-0.44922 -0.1669,-0.13773 -0.3417,-0.26608 -0.5098,-0.40234 -0.1749,-0.14452 -0.3569,-0.28092 -0.5332,-0.42383 -0.1676,-0.13836 -0.3429,-0.26741 -0.5117,-0.4043 -0.1725,-0.14252 -0.3516,-0.27701 -0.5254,-0.41796 -0.1543,-0.12745 -0.3153,-0.24686 -0.4707,-0.37305 -0.185,-0.153 -0.3779,-0.29607 -0.5645,-0.44727 -0.1626,-0.13424 -0.3323,-0.25973 -0.4961,-0.39258 -0.1586,-0.131 -0.3245,-0.25312 -0.4843,-0.38281 -0.1818,-0.15016 -0.3696,-0.29298 -0.5528,-0.4414 -0.1348,-0.11113 -0.2765,-0.21405 -0.4121,-0.32422 -0.1724,-0.1426 -0.3516,-0.27694 -0.5254,-0.41797 -0.1607,-0.13276 -0.3283,-0.25727 -0.4902,-0.38867 -0.1647,-0.13599 -0.3361,-0.26388 -0.502,-0.39844 -0.1579,-0.13038 -0.3233,-0.25179 -0.4824,-0.38086 -0.1451,-0.11976 -0.2973,-0.23096 -0.4433,-0.34961 -0.1582,-0.13072 -0.3231,-0.25341 -0.4825,-0.38281 -0.1481,-0.12239 -0.302,-0.23814 -0.4511,-0.35938 -0.1629,-0.13456 -0.3321,-0.26135 -0.4961,-0.39453 -0.1404,-0.11591 -0.2884,-0.22301 -0.4297,-0.33789 -0.1728,-0.14283 -0.3513,-0.27866 -0.5254,-0.41992 -0.1398,-0.11529 -0.2871,-0.22168 -0.4277,-0.33594 -0.1369,-0.11296 -0.2803,-0.2181 -0.418,-0.33008 -0.1493,-0.12337 -0.3048,-0.23912 -0.4551,-0.36132 -0.1539,-0.12712 -0.3138,-0.24718 -0.4687,-0.37305 -0.1323,-0.10913 -0.2713,-0.21014 -0.4043,-0.31836 -0.1572,-0.12991 -0.3203,-0.25225 -0.4786,-0.38086 -0.1357,-0.11205 -0.2774,-0.21705 -0.414,-0.32812 -0.1447,-0.1195 -0.2958,-0.23122 -0.4414,-0.34961 -0.128,-0.10564 -0.262,-0.20382 -0.3906,-0.3086 -0.1599,-0.13212 -0.3254,-0.25788 -0.4864,-0.38867 -0.1212,-0.1 -0.2492,-0.19181 -0.3711,-0.29102 -0.1385,-0.11444 -0.2824,-0.22249 -0.4218,-0.33593 -0.1369,-0.11302 -0.2803,-0.21804 -0.418,-0.33008 -0.1236,-0.10206 -0.2527,-0.19757 -0.377,-0.29883 -0.1535,-0.12685 -0.3122,-0.24742 -0.4668,-0.37305 -0.1136,-0.0937 -0.2334,-0.18039 -0.3476,-0.27343 -0.1475,-0.12187 -0.3007,-0.23669 -0.4492,-0.35743 -0.1098,-0.0905 -0.2257,-0.1738 -0.336,-0.26367 -0.147,-0.12153 -0.2992,-0.23702 -0.4472,-0.35742 -0.1266,-0.10437 -0.2595,-0.20115 -0.3868,-0.30469 -0.1019,-0.084 -0.2101,-0.16066 -0.3125,-0.24414 -0.1399,-0.11571 -0.2849,-0.22516 -0.4257,-0.33984 -0.1143,-0.0943 -0.2328,-0.18369 -0.3477,-0.27735 -0.1236,-0.10209 -0.2527,-0.19752 -0.377,-0.29882 -0.1232,-0.10176 -0.2511,-0.19787 -0.375,-0.29883 -0.1311,-0.10824 -0.2685,-0.20907 -0.4003,-0.31641 -0.1041,-0.0858 -0.2139,-0.1648 -0.3184,-0.25 -0.1218,-0.10057 -0.2487,-0.19512 -0.3711,-0.29492 -0.1094,-0.0903 -0.2241,-0.17403 -0.334,-0.26367 -0.1182,-0.0976 -0.2405,-0.1902 -0.3594,-0.28711 -0.1171,-0.0967 -0.2396,-0.18719 -0.3574,-0.2832 -0.1061,-0.0876 -0.2176,-0.16886 -0.3242,-0.25586 -0.1257,-0.10384 -0.2564,-0.20168 -0.3828,-0.30469 -0.094,-0.0772 -0.193,-0.14782 -0.2871,-0.22461 -0.1254,-0.10356 -0.2548,-0.20194 -0.3809,-0.30469 -0.1068,-0.0881 -0.2188,-0.17029 -0.3262,-0.25781 -0.099,-0.0816 -0.2033,-0.15717 -0.3027,-0.23828 -0.088,-0.0729 -0.1809,-0.14044 -0.2695,-0.21289 -0.1196,-0.0988 -0.2431,-0.19292 -0.3633,-0.29102 -0.1007,-0.0831 -0.2055,-0.16154 -0.3066,-0.24414 -0.103,-0.085 -0.2111,-0.16362 -0.3145,-0.24805 -0.1104,-0.0911 -0.225,-0.17706 -0.3359,-0.26757 -0.09,-0.0743 -0.1849,-0.14291 -0.2754,-0.2168 -0.1064,-0.0878 -0.2173,-0.17057 -0.3242,-0.25781 -0.097,-0.0802 -0.1993,-0.15471 -0.2969,-0.23438 -0.08,-0.0658 -0.1641,-0.12598 -0.2442,-0.1914 -0.1103,-0.0912 -0.225,-0.17705 -0.3359,-0.26758 -0.084,-0.069 -0.1718,-0.13252 -0.2559,-0.20117 0,-0.001 0,-0.003 0,-0.004 -0.01,-0.006 -0.015,-0.0131 -0.023,-0.0195 -0.076,-0.0631 -0.1576,-0.1208 -0.2344,-0.18359 -0.088,-0.0723 -0.1778,-0.14103 -0.2656,-0.2129 -0.1092,-0.0902 -0.2223,-0.17598 -0.332,-0.26562 -0.088,-0.0728 -0.1809,-0.14049 -0.2696,-0.21289 -0.087,-0.0716 -0.1784,-0.13775 -0.2656,-0.20899 -0.078,-0.0643 -0.16,-0.12354 -0.2383,-0.1875 -0.082,-0.0675 -0.1678,-0.13005 -0.25,-0.19726 -0.086,-0.071 -0.1753,-0.13833 -0.2617,-0.20899 -0.084,-0.0696 -0.1731,-0.13387 -0.2578,-0.20312 -0.08,-0.0657 -0.1622,-0.12794 -0.2422,-0.19336 -0.089,-0.0737 -0.1818,-0.14352 -0.2715,-0.2168 -0.079,-0.0648 -0.1613,-0.12494 -0.2402,-0.18945 -0.068,-0.0557 -0.1392,-0.10662 -0.207,-0.16211 -0.087,-0.0722 -0.1779,-0.14109 -0.2657,-0.21289 -0.064,-0.0531 -0.1327,-0.10142 -0.1972,-0.1543 -0.078,-0.0643 -0.1583,-0.12549 -0.2363,-0.18945 -0.081,-0.0666 -0.1651,-0.129 -0.2461,-0.19531 -0.063,-0.0516 -0.1287,-0.099 -0.1915,-0.15039 -0.066,-0.0549 -0.1364,-0.10552 -0.2031,-0.16016 -0.073,-0.0601 -0.1476,-0.11787 -0.2207,-0.17773 -0.079,-0.0649 -0.1613,-0.12487 -0.2402,-0.18946 -0.066,-0.0548 -0.1364,-0.10554 -0.2031,-0.16015 -0.049,-0.0401 -0.101,-0.0772 -0.1504,-0.11719 -0.082,-0.0681 -0.1672,-0.13338 -0.25,-0.20117 -0.054,-0.0446 -0.1119,-0.0845 -0.166,-0.12891 -0.071,-0.0584 -0.1459,-0.11572 -0.2168,-0.17383 -0.049,-0.0407 -0.101,-0.0786 -0.1504,-0.11914 -0.062,-0.0513 -0.1272,-0.0993 -0.1895,-0.15039 -0.069,-0.0566 -0.1402,-0.10962 -0.209,-0.16601 -0.015,-0.0127 -0.032,-0.0245 -0.047,-0.0371 -0.032,-0.0258 -0.064,-0.0504 -0.096,-0.0762 -0.067,-0.0554 -0.1378,-0.10689 -0.2051,-0.1621 -0.055,-0.0457 -0.1144,-0.0873 -0.1699,-0.13282 -0.045,-0.0369 -0.092,-0.0707 -0.1368,-0.10742 v -0.002 -0.002 c -0.01,-0.006 -0.015,-0.0131 -0.023,-0.0195 -0.053,-0.0436 -0.1091,-0.0835 -0.1621,-0.12695 -0.015,-0.0127 -0.032,-0.0245 -0.047,-0.0371 -0.019,-0.0152 -0.038,-0.0297 -0.057,-0.0449 -0.068,-0.0563 -0.1387,-0.10992 -0.2071,-0.16602 -0.041,-0.0339 -0.084,-0.0658 -0.125,-0.0996 0,-0.003 -0.01,-0.005 -0.012,-0.008 0,-0.004 -0.01,-0.008 -0.014,-0.0117 -0.047,-0.0389 -0.099,-0.0764 -0.1464,-0.11523 -0.033,-0.0274 -0.068,-0.0527 -0.1016,-0.0801 -0.06,-0.0493 -0.1218,-0.0955 -0.1816,-0.14453 -0.042,-0.0348 -0.087,-0.0669 -0.1289,-0.10156 0,-0.002 0,-0.004 -0.01,-0.006 -0.044,-0.0359 -0.089,-0.0696 -0.1328,-0.10547 -0.033,-0.0268 -0.067,-0.0513 -0.1,-0.0781 -0.051,-0.0419 -0.1035,-0.0813 -0.1543,-0.12304 -0.03,-0.0248 -0.062,-0.0476 -0.092,-0.0723 -0.04,-0.0327 -0.081,-0.063 -0.1211,-0.0957 -0.082,-0.0678 -0.1676,-0.13175 -0.25,-0.19922 -0.035,-0.0289 -0.072,-0.0551 -0.1074,-0.084 -0.01,-0.005 -0.012,-0.009 -0.018,-0.0137 0,-10e-4 0,-0.003 0,-0.004 -0.01,-0.007 -0.018,-0.0141 -0.027,-0.0215 -0.1279,-0.10564 -0.262,-0.20379 -0.3906,-0.30859 -0.01,-0.004 -0.012,-0.0112 -0.018,-0.0156 -0.01,-0.006 -0.015,-0.0131 -0.023,-0.0195 -0.027,-0.0227 -0.056,-0.0437 -0.084,-0.0664 -0.039,-0.0325 -0.082,-0.0614 -0.1211,-0.0937 0,-0.002 -0.01,-0.004 -0.01,-0.006 0,-0.003 -0.01,-0.008 -0.012,-0.0117 -0.01,-0.005 -0.013,-0.0103 -0.02,-0.0156 -0.024,-0.02 -0.05,-0.0386 -0.074,-0.0586 -0.023,-0.0191 -0.047,-0.0375 -0.07,-0.0566 -0.022,-0.018 -0.045,-0.0348 -0.066,-0.0527 -0.039,-0.0319 -0.08,-0.06 -0.1191,-0.0918 0,-0.002 0,-0.004 -0.01,-0.006 -0.01,-0.006 -0.016,-0.0131 -0.023,-0.0195 0,-0.001 0,-0.002 -0.01,-0.004 -0.026,-0.0212 -0.052,-0.0413 -0.078,-0.0625 -0.016,-0.013 -0.033,-0.0241 -0.049,-0.0371 -0.015,-0.0126 -0.032,-0.0245 -0.047,-0.0371 -0.013,-0.0106 -0.026,-0.0206 -0.039,-0.0312 v -0.002 -0.002 c 0,-0.002 -0.01,-0.003 -0.01,-0.006 0,-0.003 -0.01,-0.005 -0.01,-0.008 -0.027,-0.0221 -0.053,-0.0444 -0.08,-0.0664 v -0.002 c -0.01,-0.007 -0.019,-0.0124 -0.027,-0.0195 -0.01,-0.005 -0.012,-0.009 -0.018,-0.0137 0,-0.002 0,-0.004 -0.01,-0.006 0,-0.004 -0.011,-0.008 -0.016,-0.0117 0,-10e-4 0,-0.003 0,-0.004 0,-0.004 -0.011,-0.008 -0.016,-0.0117 v -0.002 -0.002 c -0.8701,-0.71765 -1.7592,-1.41181 -2.6621,-2.08984 -0.018,-0.0134 -0.035,-0.0277 -0.053,-0.041 -0.01,-0.007 -0.02,-0.0142 -0.029,-0.0215 -0.02,-0.015 -0.039,-0.0319 -0.059,-0.0469 0,-0.002 0,-0.004 -0.01,-0.006 0,-10e-4 0,-0.002 -0.01,-0.004 0,-0.002 -0.01,-0.005 -0.01,-0.008 0,-10e-4 0,-0.003 -0.01,-0.004 v 0 c -0.042,-0.0316 -0.087,-0.0603 -0.1289,-0.0918 -0.2806,-0.20829 -0.5719,-0.40302 -0.8555,-0.60742 -0.2441,-0.17612 -0.49,-0.35023 -0.7363,-0.52344 -0.3885,-0.27322 -0.7682,-0.55831 -1.1621,-0.82422 0,-0.003 -0.01,-0.007 -0.014,-0.01 0,-0.002 -0.01,-0.005 -0.01,-0.008 0,-10e-4 0,-0.003 0,-0.004 v 0 c -0.986,-0.66494 -1.9888,-1.30772 -3.0078,-1.92578 0,-0.001 -0.01,-0.003 -0.01,-0.004 -0.523,-0.31712 -1.0622,-0.60959 -1.5937,-0.91406 -0.5009,-0.28688 -0.9938,-0.58587 -1.502,-0.86133 0,-0.002 -0.01,-0.004 -0.01,-0.006 0,-10e-4 -0.01,-0.003 -0.01,-0.004 -0.091,-0.049 -0.1848,-0.092 -0.2754,-0.14063 -0.9629,-0.51643 -1.9359,-1.01948 -2.9239,-1.49414 0,-10e-4 0,-0.003 -0.01,-0.004 v 0 c -1.0831,-0.52036 -2.1792,-1.01567 -3.291,-1.48437 v 0 c -1.1119,-0.46867 -2.238,-0.9107 -3.377,-1.32617 v 0 c -1.139,-0.41545 -2.2905,-0.80529 -3.4551,-1.16602 v 0 c -1.1646,-0.36069 -2.3425,-0.69361 -3.5312,-0.99805 v 0 c -1.1887,-0.3044 -2.3883,-0.5815 -3.5996,-0.82812 v 0 c -1.2113,-0.24659 -2.4337,-0.46312 -3.66605,-0.65039 h -0.002 c -1.2317,-0.18715 -2.47343,-0.3463 -3.72461,-0.47266 -10e-4,-1.3e-4 -0.003,1.3e-4 -0.004,0 -1.25121,-0.12629 -2.5121,-0.22117 -3.78125,-0.28515 -10e-4,-7e-5 -0.003,6e-5 -0.004,0 -1.27047,-0.064 -2.54901,-0.0957 -3.83594,-0.0957 h -0.004 -1291.32617 -0.002 z"
       transform="scale(0.26458333)" />
    <g
       id="g893"
       style="fill:#f57f17"
       transform="translate(31.348226,-4.4729675e-5)">
      <path
         transform="scale(0.26458333)"
         d="M -421.66602,464 C -462.84692,464 -496,497.15308 -496,538.33398 v 295.47266 a 139.99999,139.99999 0 0 1 33.8125,-4.15039 h 0.002 a 139.99999,139.99999 0 0 1 0.0254,0 139.99999,139.99999 0 0 1 37.74024,5.18359 V 538.28516 H 872.41992 V 1252.5723 H -29.896484 l -94.332036,74.2851 h 993.89454 c 41.1809,0 74.33398,-33.1531 74.33398,-74.334 V 538.33398 C 944,497.15308 910.84692,464 869.66602,464 Z"
         style="fill:#f57f17;stroke-width:0.918036"
         id="rect837" />
      <path
         d="m -122.28662,229.56738 a 37.041664,37.041664 0 0 0 -37.03495,37.04167 37.041664,37.041664 0 0 0 37.04167,37.04167 37.041664,37.041664 0 0 0 37.041692,-37.04167 37.041664,37.041664 0 0 0 -37.041692,-37.04167 37.041664,37.041664 0 0 0 -0.007,0 z m 164.443212,24.77317 c -2.27473,0.0476 -4.5541,0.81044 -6.48384,2.33009 l -91.1412,71.77236 c -7.17952,-9.99127 -18.90331,-16.47703 -32.19959,-16.47703 h -66.653832 c -21.59349,0 -39.0453,17.10081 -39.60792,38.55371 h 145.869672 c -10e-4,-0.0416 -0.003,-0.0829 -0.005,-0.12454 2.41449,0.0441 4.8596,-0.71567 6.90966,-2.33008 l 91.91686,-72.38318 c 4.704888,-3.70506 5.49546,-10.46443 1.77251,-15.15515 l -1.649,-2.07687 c -2.09416,-2.63853 -5.15728,-4.04401 -8.27391,-4.10931 -0.15151,-0.003 -0.30311,-0.003 -0.45476,0 z"
         style="fill:#f57f17;stroke-width:0.199455"
         id="path847" />
    </g>
  </g>
</svg>
