<?xml version="1.0" encoding="UTF-8" standalone="no"?>
<svg
   xmlns:dc="http://purl.org/dc/elements/1.1/"
   xmlns:cc="http://creativecommons.org/ns#"
   xmlns:rdf="http://www.w3.org/1999/02/22-rdf-syntax-ns#"
   xmlns:svg="http://www.w3.org/2000/svg"
   xmlns="http://www.w3.org/2000/svg"
   xmlns:sodipodi="http://sodipodi.sourceforge.net/DTD/sodipodi-0.dtd"
   xmlns:inkscape="http://www.inkscape.org/namespaces/inkscape"
   sodipodi:docname="tesi_scalable.svg"
   inkscape:version="1.0 (4035a4fb49, 2020-05-01)"
   width="67.73333mm"
   height="67.733337mm"
   viewBox="0 0 67.73333 67.733337"
   version="1.1"
   id="svg8">
  <defs
     id="defs2" />
  <sodipodi:namedview
     fit-margin-bottom="0"
     fit-margin-right="0"
     fit-margin-left="0"
     fit-margin-top="0"
     inkscape:window-maximized="1"
     inkscape:window-y="24"
     inkscape:window-x="0"
     inkscape:window-height="1056"
     inkscape:window-width="1920"
     showgrid="false"
     inkscape:document-rotation="0"
     inkscape:current-layer="layer1"
     inkscape:document-units="mm"
     inkscape:cy="183.36893"
     inkscape:cx="173.56187"
     inkscape:zoom="1.979899"
     inkscape:pageshadow="2"
     inkscape:pageopacity="0.0"
     borderopacity="1.0"
     bordercolor="#666666"
     pagecolor="#ffffff"
     id="base" />
  <metadata
     id="metadata5">
    <rdf:RDF>
      <cc:Work
         rdf:about="">
        <dc:format>image/svg+xml</dc:format>
        <dc:type
           rdf:resource="http://purl.org/dc/dcmitype/StillImage" />
        <dc:title></dc:title>
        <cc:license
           rdf:resource="http://creativecommons.org/licenses/by-sa/4.0/" />
      </cc:Work>
      <cc:License
         rdf:about="http://creativecommons.org/licenses/by-sa/4.0/">
        <cc:permits
           rdf:resource="http://creativecommons.org/ns#Reproduction" />
        <cc:permits
           rdf:resource="http://creativecommons.org/ns#Distribution" />
        <cc:requires
           rdf:resource="http://creativecommons.org/ns#Notice" />
        <cc:requires
           rdf:resource="http://creativecommons.org/ns#Attribution" />
        <cc:permits
           rdf:resource="http://creativecommons.org/ns#DerivativeWorks" />
        <cc:requires
           rdf:resource="http://creativecommons.org/ns#ShareAlike" />
      </cc:License>
    </rdf:RDF>
  </metadata>
  <g
     transform="translate(289.73099,350.96313)"
     id="layer1"
     inkscape:groupmode="layer"
     inkscape:label="Livello 1">
    <g
       transform="matrix(0.06754451,0,0,0.06754451,-270.16125,-327.2575)"
       id="g4906">
      <rect
         ry="0"
         rx="0"
         y="-350.96313"
         x="-289.73099"
         height="1002.7953"
         width="1002.7953"
         id="rect7541"
         style="opacity:1;fill:#81c784;fill-opacity:1;stroke-width:8.86354;stroke-linejoin:round;stroke-miterlimit:0.22;stroke-dashoffset:830" />
      <path
         id="path880"
         style="fill:#000001;fill-opacity:0.184314;stroke:none;stroke-width:28.488;stroke-linejoin:round;stroke-miterlimit:0.22;stroke-dashoffset:830"
         d="M 799.99805,-297.15625 12.472656,-5.5 l 9.666016,3.5800781 -2.425781,0.8984375 c -0.0046,0.0017 -1.574219,0.58203126 -1.574219,0.58203128 l 9.65625,3.57617192 -0.84961,0.3144531 c -0.0092,0.0034 -3.144531,1.1660156 -3.144531,1.1660156 l 9.646485,3.5722656 c -1.042987,0.3862626 -3.988282,1.4785157 -3.988282,1.4785157 l 9.636719,3.5683592 c -1.847943,0.684384 -3.986328,1.476563 -3.986328,1.476563 l 9.628906,3.566406 c -1.98877,0.736526 -3.984375,1.474609 -3.984375,1.474609 l 9.617188,3.5625 c -1.93754,0.717562 -3.978516,1.472656 -3.978516,1.472656 l 9.609375,3.558594 c -1.832762,0.678757 -3.974609,1.472656 -3.974609,1.472656 L 61.626953,33.375 c -1.715611,0.63537 -3.972656,1.470703 -3.972656,1.470703 l 9.587891,3.550781 c -1.599274,0.592297 -3.964844,1.46875 -3.964844,1.46875 l 9.580078,3.548828 c -1.494599,0.553549 -3.962891,1.466797 -3.962891,1.466797 l 9.572266,3.544922 c -1.39995,0.518452 -3.960938,1.466797 -3.960938,1.466797 l 9.558594,3.541016 c -1.311127,0.48557 -3.953125,1.46289 -3.953125,1.46289 l 9.550781,3.53711 c -1.234471,0.457181 -3.951171,1.46289 -3.951171,1.46289 l 9.542968,3.533204 c -1.165492,0.431644 -3.949218,1.46289 -3.949218,1.46289 l 9.531252,3.529297 c -1.101282,0.40786 -3.943362,1.460937 -3.943362,1.460937 l 9.521482,3.525391 c -1.04319,0.386338 -3.9375,1.458985 -3.9375,1.458985 l 9.51172,3.523437 c -0.99197,0.367368 -3.93555,1.457031 -3.93555,1.457031 l 9.50196,3.519532 c -0.94382,0.349541 -3.92969,1.455078 -3.92969,1.455078 l 9.49414,3.515625 c -0.90205,0.334061 -3.92969,1.455078 -3.92969,1.455078 l 9.48243,3.511719 C 127.8111,93.623473 124.75,94.757813 124.75,94.757812 l 9.47266,3.507813 c -0.82418,0.305235 -3.91797,1.451172 -3.91797,1.451172 l 9.46484,3.505863 c -0.79106,0.29295 -3.91601,1.44921 -3.91601,1.44922 l 9.45312,3.50195 c -0.75919,0.28115 -3.91016,1.44726 -3.91016,1.44726 l 9.44532,3.49805 c -0.73096,0.27071 -3.90821,1.44727 -3.90821,1.44727 l 9.4336,3.49414 c -0.70334,0.26047 -3.90235,1.44531 -3.90235,1.44531 l 9.42383,3.49023 c -0.6776,0.25095 -3.89648,1.44336 -3.89648,1.44336 l 9.41601,3.48633 c -0.65533,0.2427 -3.89648,1.44336 -3.89648,1.44336 l 9.40625,3.48242 c -0.63277,0.23434 -3.89063,1.44141 -3.89063,1.44141 l 9.39649,3.48047 c -0.61211,0.22669 -3.88672,1.43945 -3.88672,1.43945 l 9.38672,3.47656 c -0.59265,0.21949 -3.88281,1.4375 -3.88281,1.4375 l 9.37695,3.47266 c -0.57495,0.21293 -3.88086,1.4375 -3.88086,1.4375 l 9.36719,3.46875 c -0.55719,0.20635 -3.875,1.43555 -3.875,1.43555 l 9.35742,3.46484 c -0.54088,0.20031 -3.8711,1.43359 -3.8711,1.43359 l 9.34961,3.46289 c -0.52542,0.1946 -3.86718,1.43165 -3.86718,1.43165 l 9.33789,3.45898 c -0.51077,0.18916 -3.86328,1.42969 -3.86328,1.42969 l 9.32617,3.45507 c -0.49642,0.18385 -3.85742,1.42774 -3.85742,1.42774 l 9.32226,3.45312 c -0.48419,0.17932 -3.85742,1.42774 -3.85742,1.42774 l 9.30859,3.44726 c -0.47122,0.17452 -3.85156,1.42579 -3.85156,1.42579 l 9.30078,3.44335 c -0.45937,0.17013 -3.84765,1.42579 -3.84765,1.42579 l 9.28906,3.43945 c -0.44759,0.16576 -3.8418,1.42383 -3.8418,1.42383 l 9.27735,3.43554 c -0.43667,0.16172 -3.83789,1.42188 -3.8379,1.42188 l 9.27149,3.43359 c -0.42661,0.158 -3.83594,1.41992 -3.83594,1.41992 l 9.26367,3.42969 c -0.4168,0.15436 -3.83203,1.41992 -3.83203,1.41992 l 9.25196,3.42579 c -0.40725,0.15082 -3.82813,1.41796 -3.82813,1.41796 l 9.24024,3.42188 c -0.39775,0.1473 -3.82227,1.41601 -3.82227,1.41602 l 9.23242,3.41992 c -0.38931,0.14418 -3.82031,1.41406 -3.82031,1.41406 l 9.22266,3.41602 c -0.38055,0.14092 -3.81446,1.4121 -3.81446,1.4121 l 9.21094,3.41016 c -0.37257,0.13798 -3.81055,1.41211 -3.81055,1.41211 l 9.20313,3.4082 c -0.3648,0.13511 -3.80664,1.41016 -3.80664,1.41016 l 9.19336,3.4043 c -0.35732,0.13233 -3.80274,1.4082 -3.80274,1.4082 l 9.1836,3.40234 c -0.35012,0.12967 -3.79883,1.40625 -3.79883,1.40625 l 9.17383,3.39649 c -0.3433,0.12713 -3.79493,1.40625 -3.79493,1.40625 l 9.16602,3.39453 c -0.33688,0.12475 -3.79297,1.4043 -3.79297,1.4043 l 9.1543,3.39062 c -0.33012,0.12226 -3.78711,1.40234 -3.78711,1.40234 l 9.14453,3.38672 c -0.32386,0.11994 -3.7832,1.40039 -3.7832,1.40039 l 9.13476,3.38282 c -0.31793,0.11774 -3.7793,1.40039 -3.7793,1.40039 l 9.125,3.3789 c -0.31181,0.11549 -3.77343,1.39844 -3.77343,1.39844 l 9.11719,3.37695 c -0.30675,0.1136 -3.77344,1.39649 -3.77344,1.39649 l 9.10742,3.37305 c -0.301,0.11146 -3.76758,1.39453 -3.76758,1.39453 l 9.0957,3.36914 c -0.29546,0.10942 -3.76171,1.39257 -3.76171,1.39257 l 9.08789,3.36524 c -0.29072,0.10767 -3.75977,1.39258 -3.75977,1.39258 l 9.07617,3.36133 c -0.28549,0.10573 -3.7539,1.39062 -3.7539,1.39062 l 9.06836,3.35938 c -0.28095,0.10404 -3.75196,1.38867 -3.75196,1.38867 l 9.0586,3.35351 c -0.27637,0.10235 -3.74805,1.38867 -3.74805,1.38867 l 9.04687,3.34961 c -0.2716,0.10059 -3.74218,1.38672 -3.74218,1.38672 l 9.03906,3.34766 c -0.2672,0.099 -3.73828,1.38476 -3.73828,1.38477 l 9.02734,3.34374 c -0.26316,0.0975 -3.73633,1.38282 -3.73633,1.38282 l 9.02149,3.34179 c -0.2588,0.0958 -3.73047,1.38086 -3.73047,1.38086 l 9.00781,3.33594 c -0.25483,0.0944 -3.72656,1.38086 -3.72656,1.38086 l 9,3.33399 c -0.25114,0.093 -3.72461,1.3789 -3.72461,1.3789 l 8.48828,3.14258 v 0.37109 c -0.1856,0.0687 -3.21484,1.19141 -3.21484,1.19141 l 3.21484,1.18945 v 35.6543 0.004 c 0.002,20.34512 12.53679,39.63245 35.06445,56.98437 2.05011,1.77164 4.18479,3.52798 6.4375,5.26172 2.02878,1.75181 4.13792,3.4904 6.36524,5.20508 2.03442,1.75739 4.15212,3.4988 6.38672,5.21875 2.02225,1.7468 4.12527,3.47971 6.3457,5.18945 2.03371,1.75765 4.15199,3.50065 6.38672,5.2207 2.02299,1.7478 4.12938,3.48087 6.35156,5.19141 2.0239,1.74899 4.12976,3.4837 6.35352,5.19531 2.02775,1.75244 4.14035,3.49025 6.36914,5.20508 2.00803,1.73476 4.09532,3.45451 6.30078,5.15234 2.02683,1.75238 4.13855,3.4885 6.36719,5.20313 2.00838,1.73549 4.09989,3.45591 6.30664,5.1543 2.0149,1.74194 4.11299,3.46932 6.32812,5.17382 2.01136,1.73883 4.10513,3.46263 6.31641,5.16407 2.00403,1.73254 4.09202,3.44918 6.29492,5.14453 2.00847,1.73694 4.09985,3.45871 6.30859,5.1582 2.00618,1.73482 4.09637,3.45497 6.30274,5.15234 2.00187,1.73099 4.08943,3.447 6.29101,5.14063 1.99147,1.72214 4.06631,3.43013 6.25586,5.11523 1.9999,1.73043 4.08488,3.44572 6.28516,5.13868 1.99892,1.72928 4.08375,3.44297 6.2832,5.13476 1.99563,1.72619 4.07564,3.4382 6.27149,5.12696 1.98751,1.71904 4.05961,3.42361 6.24609,5.10546 1.9882,1.72008 4.06219,3.42663 6.25,5.10938 1.98878,1.72073 4.06302,3.42803 6.25195,5.11133 1.98062,1.71353 4.0451,3.41155 6.22461,5.08789 1.97916,1.71283 4.04242,3.41033 6.22071,5.08594 1.97675,1.71127 4.03891,3.40798 6.21484,5.08203 1.98432,1.71824 4.05475,3.42093 6.24023,5.10156 1.97487,1.70948 4.03652,3.40206 6.21094,5.07422 1.97091,1.70634 4.02713,3.39731 6.19727,5.0664 1.96883,1.7049 4.02327,3.39487 6.1914,5.0625 1.97337,1.70919 4.03491,3.40256 6.20899,5.07422 1.96494,1.70153 4.01542,3.38847 6.17969,5.05274 1.95984,1.69748 4.00541,3.37874 6.16406,5.03906 1.97207,1.70871 4.03119,3.40324 6.20508,5.07422 1.95439,1.69252 3.99559,3.36802 6.14843,5.02344 1.95771,1.69618 4.00276,3.37825 6.16016,5.03711 1.95766,1.69627 4.00238,3.37628 6.16016,5.03515 0.24819,0.21505 0.5005,0.43007 0.75195,0.64453 -5.34447,5.46742 -11.06815,13.40197 -16.56445,20.89844 -377.49224,-5.25452 -720.471027,-31.80076 -932.5,-73.02148 h -6.19532 c -50.65276,0 -91.84118,124.79836 -95.22851,283.79492 l -32.83203,0.008 C -434.79353,861.76345 -435,909.33137 -435,933.48633 c 0,153.65787 33.42896,281.41577 78.41016,313.47067 1.81894,1.648 3.66335,3.1166 5.52343,4.4414 1.81526,1.6442 3.65347,3.1118 5.50977,4.4336 1.80516,1.6352 3.63267,3.0945 5.47852,4.4102 1.80958,1.6408 3.64356,3.1028 5.49414,4.4219 1.81744,1.6483 3.65871,3.1163 5.51757,4.4394 1.80089,1.6318 3.62518,3.0865 5.4668,4.3985 1.80761,1.6394 3.63954,3.0995 5.48828,4.416 1.8026,1.6346 3.62907,3.0915 5.47266,4.4043 1.80301,1.6353 3.6305,3.0916 5.47461,4.4043 1.79899,1.6316 3.62095,3.0867 5.46094,4.3964 1.79946,1.6324 3.62232,3.0869 5.46289,4.3965 1.7927,1.6261 3.60979,3.0738 5.44335,4.3789 1.79588,1.6299 3.61419,3.0815 5.45118,4.3887 1.79396,1.628 3.6122,3.0775 5.44726,4.3828 1.78676,1.6213 3.59817,3.0647 5.42578,4.3653 1.79063,1.6258 3.60575,3.072 5.4375,4.375 1.78611,1.6213 3.59673,3.0637 5.42383,4.3632 1.7856,1.6214 3.59522,3.0643 5.42188,4.3633 1.78365,1.6196 3.59131,3.0602 5.41601,4.3574 1.16479,1.0577 2.34088,2.0266 3.52344,2.9473 0.45672,0.8912 0.98857,1.4343 1.56055,1.4922 0.11397,-0.023 0.23165,-0.046 0.3457,-0.068 1.07951,0.9796 2.16884,1.8805 3.26367,2.7422 0.54739,1.3642 1.22155,2.2287 1.9668,2.3028 0.26263,-0.053 0.53382,-0.1038 0.79687,-0.1563 0.81534,0.721 1.63497,1.4067 2.45899,2.0606 0.61262,1.8155 1.41823,2.9828 2.3164,3.0742 0.41205,-0.082 0.83694,-0.1638 1.25,-0.2461 0.55861,0.4809 1.11901,0.9489 1.68164,1.3984 0.66315,2.259 1.59073,3.7081 2.63282,3.8125 0.56064,-0.1122 1.13863,-0.222 1.70117,-0.334 0.31957,0.2677 0.64005,0.5258 0.96094,0.7832 0.70293,2.6539 1.72935,4.4001 2.89843,4.5176 0.71773,-0.1436 1.4569,-0.2845 2.17774,-0.4277 0.0713,0.058 0.14343,0.1104 0.21484,0.1679 0.73667,3.0563 1.86653,5.0904 3.16211,5.2188 0.74292,-0.1487 1.50765,-0.2951 2.25391,-0.4434 0.77183,3.1615 1.94764,5.2645 3.29492,5.3985 0.7075,-0.1416 1.43595,-0.2807 2.14648,-0.4219 0.80749,3.1724 2.02208,5.2359 3.39649,5.373 0.67989,-0.136 1.3798,-0.2705 2.0625,-0.4062 0.84174,3.1609 2.07895,5.2099 3.47461,5.3496 0.65331,-0.1307 1.32651,-0.2582 1.98242,-0.3887 0.87451,3.1519 2.13389,5.1859 3.55078,5.3282 0.62581,-0.1253 1.27024,-0.2481 1.89844,-0.3731 0.90608,3.1458 2.1887,5.1658 3.62695,5.3106 0.59934,-0.12 1.21683,-0.2378 1.81836,-0.3575 0.93652,3.1385 2.24207,5.1379 3.70117,5.2852 0.57421,-0.1149 1.16596,-0.2271 1.74219,-0.3418 0.96594,3.1316 2.29389,5.1198 3.77344,5.2676 0.55044,-0.1102 1.11762,-0.2182 1.66992,-0.3282 0.99402,3.1187 2.34203,5.0942 3.83984,5.2442 0.52732,-0.1055 1.07059,-0.2091 1.59961,-0.3145 1.02135,3.111 2.38534,5.0801 3.90235,5.2325 0.50469,-0.101 1.02498,-0.2 1.53125,-0.3008 1.04769,3.0995 2.43177,5.0523 3.96679,5.2051 0.48157,-0.096 0.97794,-0.191 1.46094,-0.2872 1.07368,3.095 2.47691,5.0383 4.03125,5.1934 0.45834,-0.092 0.93098,-0.1819 1.39063,-0.2734 1.09862,3.0864 2.52333,5.0146 4.0957,5.1718 0.4352,-0.087 0.88394,-0.1728 1.32031,-0.2597 1.12321,3.0814 2.57132,4.9948 4.16211,5.1543 0.41393,-0.083 0.84087,-0.1634 1.25586,-0.2461 1.14658,3.0707 2.61138,4.9752 4.21875,5.1367 0.39536,-0.079 0.80288,-0.1573 1.19922,-0.2363 1.16909,3.0576 2.64664,4.9557 4.26953,5.1191 0.37537,-0.075 0.76242,-0.1496 1.13867,-0.2246 1.19131,3.0473 2.68752,4.9401 4.32617,5.1055 0.35607,-0.071 0.72323,-0.1418 1.08008,-0.2129 1.21278,3.0358 2.72278,4.9182 4.37696,5.084 0.3367,-0.067 0.68406,-0.1339 1.02148,-0.2012 1.23414,3.0282 2.76139,4.9022 4.43164,5.0684 0.31678,-0.063 0.64352,-0.1262 0.96094,-0.1895 1.25494,3.0209 2.80026,4.8865 4.48633,5.0547 0.29809,-0.06 0.60564,-0.1182 0.90429,-0.1777 1.27511,3.0114 2.83619,4.8656 4.53711,5.0371 0.27875,-0.056 0.56647,-0.1103 0.84571,-0.1661 1.29515,3.0052 2.87327,4.8476 4.58984,5.0196 0.25882,-0.052 0.52591,-0.1026 0.78516,-0.1543 1.31494,2.9997 2.9123,4.83 4.644527,5.0039 0.239508,-0.048 0.486691,-0.095 0.726562,-0.1426 1.334335,2.994 2.94956,4.81 4.697266,4.9844 0.223997,-0.045 0.455372,-0.088 0.679687,-0.1328 1.352199,2.9809 2.977977,4.7947 4.738282,4.9707 0.207992,-0.042 0.422591,-0.083 0.630859,-0.125 1.370057,2.9701 3.009661,4.7813 4.783203,4.959 0.19191,-0.038 0.389887,-0.077 0.582032,-0.1153 1.387293,2.9586 3.038082,4.766 4.824218,4.9453 0.177027,-0.035 0.359883,-0.07 0.53711,-0.1054 1.404049,2.9463 3.066979,4.7468 4.865234,4.9277 0.160315,-0.032 0.325848,-0.064 0.486328,-0.096 1.420809,2.9367 3.097204,4.7316 4.908203,4.9141 0.145441,-0.029 0.29583,-0.057 0.441407,-0.086 1.437284,2.9265 3.125886,4.7157 4.949218,4.8985 0.129347,-0.026 0.263123,-0.05 0.392578,-0.076 1.453672,2.9181 3.156022,4.6997 4.992188,4.8828 0.113353,-0.023 0.230314,-0.046 0.34375,-0.068 1.470059,2.9118 3.18584,4.6883 5.035156,4.8731 0.09788,-0.02 0.198936,-0.039 0.296875,-0.059 1.485735,2.9029 3.214706,4.6698 5.076172,4.8574 0.08177,-0.016 0.166237,-0.033 0.248047,-0.049 1.501466,2.8957 3.245024,4.6538 5.11914,4.8418 0.06628,-0.013 0.134868,-0.026 0.201172,-0.039 1.516754,2.8875 3.274028,4.6359 5.160157,4.8242 0.05092,-0.01 0.103361,-0.021 0.154297,-0.031 1.532641,2.8842 3.303575,4.6252 5.203124,4.8164 0.03482,-0.01 0.07064,-0.014 0.105469,-0.022 1.547592,2.8772 3.332542,4.6073 5.244141,4.7988 0.01995,0 0.0406,-0.01 0.06055,-0.012 1.562549,2.8715 3.361261,4.592 5.285156,4.7852 0.0045,-9e-4 0.0092,0 0.01367,0 1.568166,2.8485 3.36762,4.552 5.291015,4.7617 1.569625,2.8221 3.3654213,4.5165 5.2832036,4.752 1.5722117,2.8006 3.3650715,4.4926 5.2792969,4.752 1.57275347,2.7744 3.36162068,4.4572 5.2695313,4.7402 1.5750877,2.7541 3.3630191,4.433 5.2675781,4.7383 1.5776218,2.7349 3.3620371,4.4084 5.2636721,4.7343 1.578266,2.7117 3.357651,4.382 5.253906,4.7286 1.580129,2.693 3.359117,4.3573 5.251953,4.7246 1.580353,2.67 3.354879,4.3303 5.242188,4.7168 1.582272,2.6537 3.355727,4.3094 5.240234,4.7148 1.583237,2.6341 3.352044,4.2858 5.232422,4.709 1.583508,2.614 3.351072,4.2589 5.226562,4.6992 1.585896,2.6003 3.350745,4.2444 5.22461,4.7012 1.585689,2.5799 3.348145,4.2199 5.216797,4.6933 1.585948,2.5609 3.346707,4.1934 5.210937,4.6817 1.587962,2.5475 3.346568,4.1789 5.208985,4.6816 1.58769,2.5284 3.34364,4.1547 5.201171,4.6719 1.587389,2.5108 3.33848,4.1304 5.191407,4.6621 1.589348,2.5 3.339837,4.1203 5.191406,4.666 1.588706,2.4824 3.334914,4.0966 5.18164,4.6563 1.588317,2.4663 3.333416,4.0757 5.175782,4.6484 1.589671,2.4553 3.333322,4.0627 5.173828,4.6485 1.590039,2.4406 3.330687,4.0449 5.167967,4.6425 1.589,2.4244 3.32579,4.0253 5.1582,4.6348 1.59029,2.4142 3.3255,4.0115 5.15625,4.6328 1.58998,2.4001 3.3234,3.9942 5.15039,4.627 1.58904,2.3851 3.31806,3.9754 5.14063,4.6191 1.58993,2.3748 3.31998,3.9613 5.14062,4.6152 1.58936,2.3614 3.31397,3.9467 5.13086,4.6114 1.58996,2.3507 3.31424,3.9327 5.12891,4.6074 1.5888,2.3368 3.30885,3.9153 5.11914,4.5996 1.588,2.3248 3.30673,3.9007 5.11328,4.5957 1.58929,2.3163 3.30779,3.8899 5.11328,4.5937 1.58826,2.3031 3.30401,3.8738 5.10547,4.586 1.58797,2.292 3.3011,3.8609 5.09961,4.582 1.58663,2.2792 3.29751,3.8427 5.0918,4.5723 1.58876,2.2733 3.29924,3.8387 5.09375,4.5762 1.58795,2.2598 3.29692,3.8225 5.08789,4.5664 1.58558,2.2447 3.28868,3.8057 5.07422,4.5566 1.58634,2.2369 3.28995,3.7947 5.07422,4.5527 1.58567,2.2262 3.28525,3.7816 5.0664,4.5469 1.58451,2.2159 3.28102,3.7677 5.0586,4.541 1.58384,2.2062 3.28002,3.7569 5.05468,4.5371 1.58353,2.197 3.27666,3.7441 5.04883,4.5313 1.58202,2.1861 3.2727,3.7295 5.04102,4.5234 1.58294,2.1807 3.27348,3.722 5.04101,4.5235 1.57946,2.1663 3.26408,3.7022 5.02539,4.5097 1.58193,2.1639 3.26869,3.7013 5.03125,4.5157 1.57889,2.1506 3.26066,3.6833 5.01758,4.5039 1.57925,2.1444 3.26001,3.6753 5.01563,4.5019 1.57894,2.1368 3.25824,3.6652 5.01172,4.4981 1.57763,2.1272 3.25376,3.6521 5.0039,4.4902 1.57474,2.1156 3.2472,3.6366 4.99219,4.4805 1.57616,2.1122 3.25097,3.6322 4.99609,4.4824 1.57464,2.1027 3.2447,3.6216 4.98633,4.4765 1.57341,2.0945 3.24187,3.6103 4.98047,4.4707 1.57171,2.0853 3.23765,3.5976 4.97266,4.4629 1.57338,2.0823 3.23905,3.596 4.97461,4.4668 1.56962,2.0693 3.23144,3.5745 4.96093,4.4493 1.57115,2.0665 3.23298,3.5728 4.96289,4.4531 1.56829,2.0559 3.22418,3.5585 4.94922,4.4433 1.56897,2.0517 3.22668,3.5538 4.95117,4.4434 1.56643,2.0413 3.21939,3.5403 4.93946,4.4336 1.56525,2.0344 3.21817,3.5297 4.93554,4.4277 1.56504,2.0288 3.21582,3.5232 4.93165,4.4258 1.56339,2.0209 3.21125,3.5135 4.92382,4.4199 1.56327,2.0153 3.21072,3.5078 4.92188,4.418 1.56049,2.006 3.20353,3.494 4.91015,4.4082 1.56023,2.0012 3.20307,3.4876 4.90821,4.4062 1.56007,1.9957 3.2025,3.4803 4.90625,4.4024 1.5558,1.9839 3.19309,3.4636 4.89062,4.3887 1.559,1.9848 3.19824,3.4665 4.89844,4.3965 1.55401,1.9719 3.18769,3.4463 4.88086,4.3789 1.55554,1.9704 3.18891,3.4457 4.88281,4.3828 1.55295,1.9615 3.18331,3.4354 4.87305,4.375 1.55245,1.9563 3.18298,3.4263 4.87109,4.3691 1.55055,1.9493 3.1765,3.4192 4.86133,4.3652 1.55008,1.9439 3.17611,3.4125 4.85938,4.3614 1.5482,1.9365 3.17343,3.4001 4.85351,4.3515 1.55024,1.935 3.17404,3.4028 4.85547,4.3575 1.54747,1.9248 3.16855,3.3902 4.8457,4.3457 1.54631,1.9182 3.16514,3.3824 4.83985,4.3398 1.54526,1.9122 3.1595,3.3779 4.83203,4.3379 1.54498,1.9065 3.16066,3.3707 4.83203,4.332 1.54085,1.8964 3.15091,3.3612 4.81641,4.3242 1.54487,1.897 3.15884,3.3628 4.82812,4.3282 1.53697,1.8808 3.13972,3.3391 4.79883,4.3047 1.5379,1.8793 3.14328,3.3372 4.80273,4.3066 1.53515,1.8726 3.13564,3.3268 4.79102,4.2988 1.53529,1.8696 3.13807,3.3219 4.79297,4.2969 1.53311,1.8632 3.13171,3.312 4.7832,4.2891 1.53393,1.8612 3.13163,3.3109 4.7832,4.291 1.53191,1.854 3.1269,3.2999 4.77539,4.2812 1.5292,1.8472 3.12103,3.2901 4.76563,4.2735 1.52808,1.8427 3.11726,3.2839 4.75976,4.2695 1.5276,1.8395 3.11657,3.279 4.75782,4.2676 1.52599,1.8337 3.11324,3.2734 4.75195,4.2636 1.52435,1.8282 3.10999,3.2622 4.74609,4.254 1.5226,1.8227 3.10497,3.2563 4.73829,4.25 1.52091,1.8177 3.10171,3.2483 4.73242,4.2441 1.52003,1.8142 3.09948,3.2421 4.72851,4.2402 1.51886,1.8096 3.09761,3.2364 4.72461,4.2364 1.51671,1.8038 3.09101,3.2289 4.71485,4.2304 1.516,1.8003 3.0905,3.2229 4.71289,4.2266 1.51485,1.7958 3.0866,3.2154 4.70703,4.2207 1.51419,1.792 3.08409,3.2118 4.70312,4.2187 1.50852,1.7816 3.07359,3.1961 4.68555,4.2032 1.5225,1.7969 3.10132,3.2355 4.72852,4.248 1.50811,1.7696 3.06964,3.1922 4.67968,4.1973 1.50998,1.7699 3.07196,3.1933 4.6836,4.2011 1.5079,1.7637 3.06712,3.1852 4.67578,4.1934 1.50507,1.7572 3.06126,3.1765 4.66601,4.1856 1.50346,1.753 3.0578,3.1707 4.66016,4.1816 1.50351,1.7502 3.05824,3.1655 4.66016,4.1777 1.50311,1.7469 3.05546,3.1625 4.65625,4.1758 1.49662,1.7354 3.04176,3.1455 4.63476,4.1582 1.49989,1.7379 3.05036,3.1503 4.64649,4.166 1.49464,1.7284 3.03924,3.1349 4.6289,4.1504 1.49867,1.7317 3.04498,3.1435 4.63867,4.1621 1.49281,1.7205 3.0326,3.1254 4.61915,4.1426 1.49165,1.7171 3.03047,3.1217 4.61523,4.1406 1.49251,1.7157 3.03202,3.1204 4.61719,4.1407 1.48709,1.7061 3.02098,3.1053 4.59961,4.125 1.48846,1.7062 3.02386,3.1068 4.60351,4.1289 1.48436,1.6985 3.01329,3.0954 4.58789,4.1172 1.48987,1.7035 3.0252,3.1037 4.60547,4.1289 1.47916,1.6865 3.00259,3.0779 4.57031,4.0996 1.48239,1.69 3.0092,3.0838 4.58008,4.1093 1.47949,1.6837 3.0031,3.0742 4.57031,4.0997 1.47983,1.6822 3.00512,3.0726 4.57227,4.0996 1.47445,1.6731 2.99402,3.058 4.55469,4.0839 1.4779,1.6758 2.99844,3.0651 4.5625,4.0938 1.47453,1.6689 2.99092,3.054 4.55078,4.082 1.47218,1.6636 2.98621,3.0443 4.54297,4.0723 1.4691,1.6582 2.98019,3.0359 4.5332,4.0644 1.46691,1.6546 2.97529,3.0306 4.52539,4.0606 1.47138,1.6586 2.98433,3.0372 4.53906,4.0703 1.46423,1.6471 2.96931,3.018 4.51563,4.0488 1.46243,1.6434 2.96579,3.0112 4.50976,4.043 1.46389,1.6442 2.96852,3.0166 4.51368,4.0508 1.46105,1.6385 2.96423,3.0053 4.50586,4.039 1.4569,1.6317 2.95357,2.9922 4.49023,4.0254 1.45723,1.6318 2.95355,2.9935 4.49023,4.0293 1.45652,1.6291 2.95275,2.9888 4.48829,4.0254 1.45454,1.6251 2.94943,2.9826 4.48242,4.0196 1.45314,1.6215 2.94555,2.9764 4.47656,4.0136 1.4481,1.6142 2.93584,2.9633 4.46094,4 1.45239,1.6185 2.94314,2.9736 4.47265,4.0137 1.44638,1.6087 2.93062,2.9562 4.45313,3.9941 1.44511,1.6064 2.93037,2.9512 4.45117,3.9903 1.44797,1.6085 2.93344,2.9546 4.45703,3.9961 1.44143,1.5984 2.91951,2.9393 4.43555,3.9785 1.44093,1.5969 2.92037,2.936 4.43555,3.9765 1.43974,1.5944 2.91811,2.9333 4.43164,3.9747 1.43604,1.5884 2.90883,2.9221 4.41796,3.9628 1.43739,1.5893 2.91353,2.9241 4.42383,3.9668 1.43168,1.5807 2.9006,2.9082 4.4043,3.9493 1.4271,1.5756 2.89028,2.8996 4.38867,3.9414 1.43204,1.5822 2.90269,2.9044 4.40625,3.9511 1.42522,1.5723 2.88895,2.8873 4.38477,3.9317 1.43157,1.5796 2.90185,2.9001 4.40429,3.9492 1.42493,1.5691 2.88795,2.882 4.38282,3.9277 1.42522,1.5685 2.88595,2.8844 4.38086,3.9317 1.42076,1.5617 2.8794,2.872 4.36914,3.9179 1.42039,1.5607 2.88009,2.8688 4.36914,3.9161 1.42025,1.5593 2.87664,2.8679 4.36523,3.916 1.41853,1.5556 2.87297,2.8624 4.35938,3.9101 1.4155,1.5507 2.86682,2.8553 4.34961,3.9024 1.41457,1.5486 2.86616,2.8507 4.34765,3.8984 1.41508,1.5478 2.86588,2.8501 4.34766,3.8984 1.41071,1.5409 2.85728,2.8381 4.33398,3.8848 1.40918,1.5379 2.85332,2.8341 4.32813,3.8809 1.40861,1.536 2.85226,2.8316 4.32617,3.8789 1.40377,1.5292 2.84216,2.8193 4.31055,3.8652 1.40446,1.5298 2.84361,2.8213 4.3125,3.8692 1.40351,1.5271 2.84294,2.8175 4.31054,3.8652 1.40252,1.5246 2.84037,2.8136 4.30664,3.8613 1.3958,1.5155 2.8265,2.7969 4.28516,3.8418 1.40045,1.5207 2.83533,2.8086 4.29883,3.8574 1.39346,1.5106 2.82168,2.7905 4.27734,3.836 1.39743,1.5144 2.82933,2.7974 4.28906,3.8457 1.39282,1.5071 2.82095,2.7841 4.2754,3.8301 1.38668,1.4994 2.80438,2.7742 4.25195,3.8183 1.3939,1.5076 2.8221,2.7849 4.27734,3.834 1.38428,1.4944 2.80163,2.7645 4.2461,3.8086 1.39069,1.5013 2.81435,2.7759 4.26562,3.8242 1.38173,1.4888 2.79703,2.7554 4.23828,3.7988 1.38179,1.4885 2.79519,2.7561 4.23633,3.8008 1.38519,1.4915 2.80348,2.7596 4.24805,3.8067 1.37827,1.4811 2.78774,2.7461 4.22461,3.789 1.38085,1.4836 2.79299,2.7477 4.23242,3.793 1.37424,1.4742 2.77892,2.7356 4.21094,3.7773 1.37587,1.4756 2.7832,2.7377 4.21679,3.7813 1.37321,1.471 2.77655,2.7312 4.20703,3.7734 1.37372,1.4704 2.77813,2.7307 4.20899,3.7735 1.36778,1.4619 2.76718,2.7161 4.19141,3.7558 1.36849,1.4622 2.76663,2.7189 4.1914,3.7598 1.36881,1.4611 2.76846,2.7166 4.19336,3.7578 1.36158,1.4515 2.75305,2.7008 4.16992,3.7383 1.36293,1.4528 2.75568,2.7048 4.17383,3.7441 1.36161,1.4501 2.75141,2.7014 4.16797,3.7403 1.36284,1.4502 2.75419,2.7024 4.17187,3.7421 1.3602,1.4452 2.74947,2.6928 4.16407,3.7305 1.35175,1.4342 2.73337,2.6757 4.13867,3.709 1.357,1.4404 2.74154,2.687 4.15234,3.7246 1.35425,1.4355 2.73689,2.6811 4.14453,3.7168 1.35185,1.4315 2.72992,2.6744 4.13477,3.709 1.34976,1.4281 2.72653,2.6675 4.12891,3.7012 1.34809,1.4251 2.72454,2.6642 4.125,3.6972 1.34912,1.4252 2.72364,2.6655 4.125,3.6992 1.3433,1.4172 2.71251,2.6532 4.10742,3.6836 1.34325,1.4164 2.71273,2.6507 4.10742,3.6817 1.34212,1.4141 2.71021,2.6509 4.10352,3.6816 1.33853,1.409 2.70448,2.6392 4.09374,3.668 1.3388,1.4085 2.70243,2.6405 4.0918,3.6699 1.33648,1.4047 2.69921,2.6338 4.08594,3.6621 1.33339,1.4005 2.691,2.6294 4.07422,3.6563 1.33187,1.398 2.69082,2.6219 4.07222,3.6484 1.332,1.3974 2.6889,2.6214 4.0704,3.6484 1.3259,1.3898 2.676,2.6089 4.0507,3.6329 0.2728,0.2859 0.5474,0.5607 0.8223,0.832 H 2695.0469 V 987.2832 c -0.018,-0.007 -0.204,-0.0756 -0.211,-0.0781 l 0.211,-0.0781 v -2.15625 c -2.1464,-0.79489 -4.4827,-1.66048 -4.6348,-1.71679 l 3.1172,-1.1543 c -0.015,-0.005 -7.3163,-2.70886 -7.5645,-2.80078 l 3.1309,-1.16016 c -0.015,-0.005 -7.3187,-2.71099 -7.5664,-2.80273 l 3.1289,-1.15821 c -0.015,-0.006 -7.3321,-2.71475 -7.5801,-2.80664 l 3.1367,-1.16211 c -0.015,-0.006 -7.3454,-2.72052 -7.5937,-2.8125 l 3.1445,-1.16406 c -0.015,-0.005 -7.3478,-2.72077 -7.5957,-2.8125 l 3.1406,-1.16406 c -0.015,-0.005 -7.3594,-2.72458 -7.6074,-2.81641 l 3.1465,-1.16601 c -0.015,-0.005 -7.3747,-2.73031 -7.623,-2.82227 l 3.1562,-1.16992 c -0.015,-0.005 -7.3753,-2.73053 -7.623,-2.82227 l 3.1523,-1.16796 c -0.015,-0.006 -7.3923,-2.73811 -7.6406,-2.83008 l 3.1601,-1.16992 c -0.015,-0.006 -7.3983,-2.74015 -7.6464,-2.83204 l 3.1601,-1.16992 c -0.015,-0.006 -7.4081,-2.74399 -7.6562,-2.83594 l 3.1699,-1.17382 c -0.015,-0.006 -7.4179,-2.74791 -7.666,-2.83985 l 3.1699,-1.17383 c -0.015,-0.006 -7.4277,-2.74987 -7.6758,-2.84179 l 3.1738,-1.17578 c -0.015,-0.006 -7.4391,-2.75568 -7.6875,-2.84766 l 3.1817,-1.17773 c -0.015,-0.006 -7.4471,-2.75769 -7.6953,-2.84961 l 3.1836,-1.17969 c -0.015,-0.006 -7.4605,-2.7634 -7.709,-2.85547 l 3.1914,-1.18164 c -0.015,-0.006 -7.4611,-2.76368 -7.709,-2.85547 l 3.1855,-1.17969 c -0.015,-0.006 -7.4762,-2.76935 -7.7246,-2.86132 l 3.1973,-1.1836 c -0.015,-0.006 -7.4878,-2.77321 -7.7363,-2.86523 l 3.2011,-1.18555 c -0.015,-0.006 -7.4939,-2.77526 -7.7421,-2.86719 l 3.2011,-1.18554 c -0.015,-0.006 -7.5055,-2.77908 -7.7539,-2.8711 l 3.2071,-1.1875 c -0.015,-0.006 -7.5171,-2.78488 -7.7657,-2.87695 l 3.2129,-1.18945 c -0.015,-0.006 -7.5213,-2.78503 -7.7695,-2.87696 l 3.2148,-1.1914 c -0.015,-0.006 -7.5402,-2.79256 -7.789,-2.88477 l 3.2226,-1.19336 c -0.015,-0.006 -7.5389,-2.79288 -7.7871,-2.88476 l 3.2227,-1.19336 c -0.015,-0.006 -7.5542,-2.79856 -7.8028,-2.89063 l 3.2246,-1.19336 c -0.015,-0.006 -7.5621,-2.80056 -7.8105,-2.89258 l 3.2305,-1.19726 c -0.015,-0.006 -7.57,-2.80451 -7.8184,-2.89649 l 3.2344,-1.19726 c -0.015,-0.006 -7.5852,-2.80824 -7.834,-2.90039 l 3.2402,-1.20117 c -0.015,-0.006 -7.5895,-2.81033 -7.8379,-2.90235 l 3.2422,-1.20117 c -0.015,-0.006 -7.601,-2.81419 -7.8496,-2.90625 l 3.2461,-1.20312 c -0.015,-0.006 -7.6108,-2.81805 -7.8594,-2.91016 l 3.252,-1.20508 c -0.015,-0.006 -7.6205,-2.82195 -7.8691,-2.91406 l 3.2558,-1.20508 c -0.015,-0.006 -7.6321,-2.82582 -7.8808,-2.91797 l 3.2617,-1.20898 c -0.015,-0.006 -7.6418,-2.82973 -7.8907,-2.92188 l 3.2637,-1.20898 c -0.015,-0.006 -7.6478,-2.83177 -7.8965,-2.92383 l 3.2676,-1.21094 c -0.015,-0.006 -7.6576,-2.83567 -7.9062,-2.92773 l 3.2675,-1.21094 c -0.015,-0.006 -7.671,-2.84139 -7.9199,-2.93359 l 3.2754,-1.21289 c -0.015,-0.006 -7.6771,-2.84344 -7.9258,-2.93555 l 3.2813,-1.21484 c -0.015,-0.006 -7.6886,-2.84731 -7.9375,-2.93946 l 3.2812,-1.21484 c -0.015,-0.006 -7.6966,-2.8512 -7.9453,-2.94336 l 3.2891,-1.2168 c -0.016,-0.006 -7.71,-2.85502 -7.959,-2.94726 l 3.291,-1.21875 c -0.015,-0.006 -7.7178,-2.85898 -7.9668,-2.95117 l 3.2988,-1.22071 c -0.015,-0.006 -7.7275,-2.86288 -7.9765,-2.95508 l 3.2969,-1.2207 c -0.016,-0.006 -7.7374,-2.86484 -7.9864,-2.95703 l 3.3047,-1.22461 c -0.016,-0.006 -7.7434,-2.86684 -7.9922,-2.95898 l 3.3047,-1.22461 c -0.016,-0.006 -7.7568,-2.87261 -8.0058,-2.96485 l 3.3125,-1.22656 c -0.016,-0.006 -7.7648,-2.87461 -8.0137,-2.9668 l 3.3144,-1.22851 c -0.016,-0.006 -7.7781,-2.88033 -8.0273,-2.97266 l 3.3223,-1.23047 c -0.016,-0.006 -7.7824,-2.88241 -8.0313,-2.97461 l 3.3223,-1.23047 c -0.016,-0.006 -7.7939,-2.88627 -8.043,-2.97851 l 3.3262,-1.23242 c -0.016,-0.006 -7.8055,-2.89016 -8.0547,-2.98242 l 3.334,-1.23633 c -0.016,-0.006 -7.8079,-2.89227 -8.0567,-2.98438 l 3.3282,-1.23242 c -0.016,-0.006 -7.8268,-2.89981 -8.0762,-2.99219 l 3.3437,-1.23828 c -0.016,-0.006 -7.8292,-2.89999 -8.0781,-2.99219 l 3.3399,-1.23632 c -0.016,-0.006 -7.8427,-2.90382 -8.0918,-2.9961 l 3.3476,-1.24023 c -0.016,-0.006 -7.8524,-2.90768 -8.1015,-3 l 3.3515,-1.24219 c -0.016,-0.006 -7.8639,-2.91154 -8.1133,-3.00391 l 3.3575,-1.24414 c -0.016,-0.006 -7.8719,-2.91548 -8.1211,-3.00781 l 3.3593,-1.24414 c -0.016,-0.006 -7.8797,-2.91749 -8.1289,-3.00977 l 3.3633,-1.24609 c -0.016,-0.006 -7.8913,-2.92136 -8.1406,-3.01367 l 3.3672,-1.24805 c -0.016,-0.006 -7.9011,-2.92527 -8.1504,-3.01758 l 3.373,-1.25 c -0.016,-0.006 -7.9107,-2.92917 -8.1601,-3.02148 l 3.375,-1.25 c -0.016,-0.006 -7.9168,-2.9331 -8.166,-3.02539 l 3.3769,-1.25 c -0.016,-0.006 -7.9283,-2.93692 -8.1777,-3.0293 l 3.3828,-1.25195 c -0.016,-0.006 -7.9418,-2.94076 -8.1914,-3.0332 l 3.3906,-1.25586 c -0.016,-0.006 -7.9479,-2.9428 -8.1973,-3.03516 l 3.3907,-1.25586 c -0.016,-0.006 -7.9595,-2.94861 -8.209,-3.04101 l 3.3926,-1.25586 c -0.016,-0.006 -7.9638,-2.9487 -8.2129,-3.04102 l 3.3984,-1.25977 c -0.016,-0.006 -7.9807,-2.95632 -8.2305,-3.04882 l 3.4043,-1.25977 c -0.016,-0.006 -7.9849,-2.95841 -8.2343,-3.05078 l 3.4082,-1.26172 c -0.016,-0.006 -7.9966,-2.96228 -8.2461,-3.05469 l 3.4082,-1.26172 c -0.016,-0.006 -8.0082,-2.96609 -8.2578,-3.05859 l 3.4199,-1.26562 c -0.016,-0.006 -8.0178,-2.97001 -8.2676,-3.0625 l 3.418,-1.26563 c -0.016,-0.006 -8.0221,-2.97014 -8.2715,-3.0625 l 3.4219,-1.26758 c -0.016,-0.006 -8.0392,-2.97773 -8.2891,-3.07031 l 3.4297,-1.26953 c -0.016,-0.006 -8.0434,-2.97792 -8.293,-3.07031 l 3.4317,-1.27149 c -0.016,-0.006 -8.055,-2.98368 -8.3047,-3.07617 l 3.4336,-1.27148 c -0.016,-0.006 -8.0648,-2.98565 -8.3145,-3.07813 l 3.4414,-1.27539 c -0.016,-0.006 -8.0744,-2.98955 -8.3242,-3.08203 l 3.4414,-1.27539 c -0.016,-0.006 -8.0805,-2.99159 -8.3301,-3.08399 l 3.4473,-1.27734 c -0.016,-0.006 -8.0958,-2.99728 -8.3457,-3.08984 l 3.4512,-1.2793 c -0.016,-0.006 -8.1019,-2.99932 -8.3516,-3.0918 l 3.457,-1.28125 c -0.016,-0.006 -8.1115,-3.00516 -8.3613,-3.09765 l 3.4551,-1.2793 c -0.016,-0.006 -8.1231,-3.00898 -8.3731,-3.10156 l 3.4668,-1.28321 c -0.016,-0.006 -8.131,-3.01098 -8.3808,-3.10351 l 3.4648,-1.28321 c -0.016,-0.006 -8.1389,-3.01493 -8.3887,-3.10742 l 3.4707,-1.28515 c -0.016,-0.006 -8.1523,-3.01872 -8.4023,-3.11133 l 3.4746,-1.28711 c -0.016,-0.006 -8.1603,-3.02267 -8.4101,-3.11523 l 3.4804,-1.28907 c -0.016,-0.006 -8.1736,-3.02649 -8.4238,-3.11914 l 3.4844,-1.29101 c -0.016,-0.006 -8.1742,-3.02671 -8.4239,-3.11914 l 3.4844,-1.29102 c -0.016,-0.006 -8.1931,-3.03426 -8.4433,-3.12695 l 3.4921,-1.29297 c -0.016,-0.006 -8.201,-3.03626 -8.4511,-3.12891 l 3.5,-1.29687 c -0.017,-0.006 -8.2108,-3.04017 -8.461,-3.13282 l 3.4981,-1.29687 c -0.016,-0.006 -8.215,-3.04224 -8.4649,-3.13477 l 3.502,-1.29687 c -0.016,-0.006 -8.2266,-3.04611 -8.4766,-3.13867 l 3.5039,-1.29883 c -0.017,-0.006 -8.2381,-3.05187 -8.4882,-3.14453 l 3.5136,-1.30078 c -0.017,-0.006 -8.246,-3.05388 -8.4961,-3.14649 l 3.5157,-1.30273 c -0.017,-0.006 -8.254,-3.05782 -8.5039,-3.15039 l 3.5136,-1.30078 c -0.017,-0.006 -8.2692,-3.06157 -8.5195,-3.1543 l 3.5273,-1.30664 c -0.017,-0.006 -8.2752,-3.06555 -8.5254,-3.15821 l 3.5254,-1.30468 c -0.017,-0.006 -8.2868,-3.06942 -8.5371,-3.16211 l 3.5332,-1.3086 c -0.017,-0.006 -8.2965,-3.07332 -8.5468,-3.16601 l 3.5351,-1.3086 c -0.017,-0.006 -8.3026,-3.07536 -8.5527,-3.16796 l 3.5371,-1.31055 c -0.017,-0.006 -8.316,-3.0792 -8.5664,-3.17188 l 3.5429,-1.3125 c -0.017,-0.006 -8.322,-3.08313 -8.5722,-3.17578 l 3.5449,-1.3125 c -0.017,-0.006 -8.3336,-3.087 -8.584,-3.17968 l 3.5508,-1.31446 c -0.017,-0.006 -8.3471,-3.09079 -8.5977,-3.18359 l 3.5586,-1.31836 c -0.017,-0.006 -8.3494,-3.09295 -8.5996,-3.18555 l 3.5547,-1.3164 c -0.017,-0.006 -8.3647,-3.09859 -8.6152,-3.19141 l 3.5664,-1.32031 c -0.017,-0.006 -8.3726,-3.10064 -8.6231,-3.19336 l 3.5645,-1.32031 c -0.017,-0.006 -8.3824,-3.1045 -8.6328,-3.19727 l 3.5723,-1.32227 c -0.017,-0.006 -8.3921,-3.1084 -8.6426,-3.20117 l 3.5742,-1.32422 c -0.017,-0.006 -8.4018,-3.11231 -8.6524,-3.20507 l 3.5801,-1.32618 c -0.017,-0.006 -8.4061,-3.11244 -8.6562,-3.20507 l 3.5781,-1.32618 c -0.017,-0.006 -8.425,-3.12 -8.6758,-3.21289 l 3.5918,-1.33008 c -0.017,-0.006 -8.4292,-3.12208 -8.6797,-3.21484 l 3.5879,-1.32812 c -0.017,-0.006 -8.4408,-3.12596 -8.6914,-3.21875 l 3.5977,-1.33203 c -0.017,-0.006 -8.4506,-3.12982 -8.7012,-3.22266 l 3.5977,-1.33203 c -0.017,-0.006 -8.4585,-3.13181 -8.709,-3.22461 l 3.6035,-1.33594 c -0.017,-0.006 -8.47,-3.13762 -8.7207,-3.23047 l 3.6074,-1.33594 c -0.017,-0.006 -8.4779,-3.13962 -8.7285,-3.23242 l 3.6113,-1.33789 c -0.017,-0.006 -8.4839,-3.14161 -8.7344,-3.23437 l 3.6133,-1.33789 c -0.017,-0.006 -8.4992,-3.14736 -8.75,-3.24024 l 3.6172,-1.33984 c -0.017,-0.006 -8.5108,-3.15118 -8.7617,-3.24414 l 3.6289,-1.34571 c -0.017,-0.006 -8.515,-3.1533 -8.7656,-3.24609 l 3.6211,-1.3418 c -0.017,-0.006 -8.5266,-3.15712 -8.7774,-3.25 l 3.6328,-1.3457 c -0.017,-0.006 -8.5344,-3.16107 -8.7851,-3.25391 l 3.6347,-1.3457 c -0.017,-0.006 -8.5478,-3.1668 -8.7988,-3.25976 l 3.6387,-1.34766 c -0.017,-0.006 -8.5558,-3.16885 -8.8067,-3.26172 l 3.6446,-1.34961 c -0.017,-0.006 -8.5656,-3.17271 -8.8164,-3.26562 l 3.6465,-1.34961 c -0.017,-0.006 -8.5753,-3.17468 -8.8262,-3.26758 l 3.6523,-1.35352 c -0.017,-0.006 -8.5849,-3.18052 -8.8359,-3.27343 l 3.6543,-1.35352 c -0.017,-0.006 -8.5911,-3.18062 -8.8418,-3.27344 l 3.6562,-1.35547 c -0.017,-0.006 -8.6063,-3.18825 -8.8574,-3.28125 l 3.6641,-1.35742 c -0.017,-0.006 -8.6068,-3.18845 -8.8574,-3.28125 l 3.6601,-1.35547 c -0.017,-0.006 -8.6258,-3.19408 -8.8769,-3.28711 l 3.6718,-1.36132 c -0.017,-0.006 -8.6281,-3.19619 -8.8789,-3.28907 l 3.6719,-1.35937 c -0.017,-0.006 -8.6453,-3.2019 -8.8965,-3.29492 l 3.6797,-1.36329 c -0.017,-0.006 -8.6532,-3.20384 -8.9043,-3.29687 l 3.6856,-1.36523 c -0.017,-0.006 -8.6593,-3.20788 -8.9102,-3.30079 l 3.6856,-1.36523 c -0.018,-0.006 -8.6727,-3.21167 -8.9239,-3.30469 l 3.6895,-1.36719 c -0.017,-0.006 -8.6787,-3.21368 -8.9297,-3.30664 l 3.6953,-1.36914 c -0.017,-0.006 -8.6903,-3.21755 -8.9414,-3.31054 l 3.6992,-1.3711 c -0.018,-0.006 -8.7018,-3.22335 -8.9531,-3.3164 l 3.7031,-1.3711 c -0.017,-0.006 -8.7079,-3.22537 -8.959,-3.31836 l 3.7051,-1.37304 c -0.017,-0.006 -8.7195,-3.22923 -8.9707,-3.32227 l 3.7109,-1.375 c -0.017,-0.006 -8.7273,-3.23316 -8.9785,-3.32617 l 3.7129,-1.375 c -0.017,-0.006 -8.7389,-3.23702 -8.9902,-3.33008 l 3.7187,-1.37695 c -0.018,-0.007 -8.7469,-3.23901 -8.998,-3.33203 l 3.7207,-1.37891 c -0.018,-0.007 -8.7603,-3.24477 -9.0117,-3.33789 l 3.7285,-1.38086 c -0.018,-0.007 -8.7645,-3.24683 -9.0156,-3.33984 l 3.7285,-1.38086 c -0.018,-0.007 -8.7761,-3.25069 -9.0274,-3.34375 l 3.7364,-1.38281 c -0.018,-0.007 -8.7877,-3.25455 -9.0391,-3.34766 l 3.7363,-1.38477 c -0.018,-0.007 -8.7974,-3.25844 -9.0488,-3.35156 l 3.7461,-1.38672 c -0.018,-0.007 -8.8053,-3.26043 -9.0567,-3.35351 l 3.7461,-1.38868 c -0.018,-0.007 -8.815,-3.26432 -9.0664,-3.35742 l 3.7481,-1.38867 c -0.018,-0.007 -8.8266,-3.26819 -9.0781,-3.36133 l 3.7558,-1.39258 c -0.018,-0.007 -8.8326,-3.27215 -9.084,-3.36523 l 3.7559,-1.39063 c -0.018,-0.007 -8.8461,-3.27597 -9.0977,-3.36914 l 3.7637,-1.39453 c -0.018,-0.007 -8.8539,-3.2799 -9.1055,-3.37304 l 3.7657,-1.39453 c -0.018,-0.007 -8.8638,-3.2838 -9.1153,-3.37696 l 3.7715,-1.39648 c -0.018,-0.007 -8.8716,-3.28579 -9.123,-3.37891 l 3.7715,-1.39648 c -0.018,-0.007 -8.8832,-3.28965 -9.1348,-3.38282 l 3.7793,-1.40039 c -0.018,-0.007 -8.8929,-3.29354 -9.1445,-3.38672 l 3.7851,-1.40234 c -0.018,-0.007 -8.9026,-3.29744 -9.1543,-3.39062 l 3.7832,-1.40235 c -0.018,-0.007 -8.9106,-3.29942 -9.1621,-3.39258 l 3.791,-1.40429 c -0.018,-0.007 -8.9221,-3.30329 -9.1738,-3.39649 l 3.7949,-1.40625 c -0.018,-0.007 -8.9319,-3.30717 -9.1836,-3.40039 l 3.7989,-1.4082 c -0.018,-0.007 -8.9398,-3.3111 -9.1915,-3.4043 l 3.8008,-1.4082 c -0.018,-0.007 -8.9513,-3.31497 -9.2031,-3.4082 l 3.8066,-1.41016 c -0.018,-0.007 -8.9612,-3.31886 -9.2128,-3.41211 l 3.8124,-1.41211 c -0.018,-0.007 -8.9689,-3.32278 -9.2207,-3.41601 l 3.8125,-1.41211 c -0.018,-0.007 -8.9769,-3.32478 -9.2285,-3.41797 l 3.8164,-1.41406 c -0.018,-0.007 -8.9904,-3.32861 -9.2421,-3.42188 l 3.8242,-1.41797 c -0.018,-0.007 -8.9982,-3.33253 -9.25,-3.42578 l 3.8242,-1.41797 c -0.018,-0.007 -9.0061,-3.33452 -9.2578,-3.42773 l 3.8301,-1.41993 c -0.018,-0.007 -9.0177,-3.34031 -9.2696,-3.43359 l 3.834,-1.41992 c -0.018,-0.007 -9.0292,-3.34418 -9.2812,-3.4375 l 3.8398,-1.42188 c -0.018,-0.007 -9.0372,-3.34616 -9.2891,-3.43945 l 3.8418,-1.42383 c -0.018,-0.007 -9.0469,-3.35006 -9.2988,-3.44336 l 3.8457,-1.42578 c -0.018,-0.007 -9.0566,-3.35395 -9.3086,-3.44726 l 3.8496,-1.42578 c -0.018,-0.007 -9.0645,-3.35789 -9.3164,-3.45118 l 3.8555,-1.42773 c -0.018,-0.007 -9.0761,-3.36175 -9.3281,-3.45508 l 3.8554,-1.42773 c -0.018,-0.007 -9.0858,-3.36564 -9.3379,-3.45899 l 3.8653,-1.43164 c -0.018,-0.007 -9.0938,-3.36762 -9.3457,-3.46094 l 3.8652,-1.43164 c -0.018,-0.007 -9.1072,-3.37339 -9.3594,-3.46679 l 3.8711,-1.4336 c -0.018,-0.007 -9.1132,-3.37541 -9.3652,-3.46875 l 3.875,-1.43554 c -0.018,-0.007 -9.1229,-3.37931 -9.375,-3.47266 l 3.875,-1.43555 c -0.018,-0.007 -9.1327,-3.3832 -9.3848,-3.47656 l 3.8809,-1.4375 c -0.018,-0.007 -9.1443,-3.38706 -9.3965,-3.48047 l 3.8867,-1.43945 c -0.018,-0.007 -9.1503,-3.38908 -9.4023,-3.48242 l 3.8886,-1.44141 c -0.018,-0.007 -9.1619,-3.39294 -9.414,-3.48633 l 3.8945,-1.44336 c -0.018,-0.007 -9.1716,-3.39684 -9.4238,-3.49023 l 3.8984,-1.44531 c -0.018,-0.007 -9.1813,-3.40074 -9.4336,-3.49414 l 3.9004,-1.44532 c -0.018,-0.007 -9.1893,-3.40272 -9.4414,-3.49609 l 3.9043,-1.44727 c -0.018,-0.007 -9.2009,-3.40658 -9.4531,-3.5 l 3.9101,-1.44921 c -0.018,-0.007 -9.2124,-3.41239 -9.4648,-3.50586 l 3.916,-1.449223 c -0.018,-0.0068 -9.2203,-3.414369 -9.4726,-3.507813 l 3.9199,-1.453125 c -0.018,-0.0068 -9.2301,-3.418264 -9.4824,-3.511718 l 3.9199,-1.453125 c -0.018,-0.0069 -9.2362,-3.420282 -9.4883,-3.513672 v -0.002 l 3.9199,-1.453125 c -0.019,-0.0069 -9.2477,-3.424149 -9.5,-3.517578 10e-4,-3.51e-4 0.2246,-0.08398 0.2246,-0.08398 l 3.7051,-1.373047 c -0.019,-0.0069 -9.2592,-3.429946 -9.5117,-3.523437 0,-0.0014 0.4434,-0.164063 0.4434,-0.164063 l 3.4882,-1.292968 c -0.019,-0.0069 -9.2653,-3.431969 -9.5175,-3.525391 0.01,-0.003 0.666,-0.246094 0.666,-0.246094 l 3.2695,-1.212891 c -0.019,-0.0069 -9.2788,-3.435793 -9.5312,-3.529296 0.015,-0.0054 0.8886,-0.330079 0.8886,-0.330078 l 3.0528,-1.132813 c -0.019,-0.0069 -9.283,-3.437847 -9.5352,-3.53125 0.023,-0.0084 1.1074,-0.410156 1.1074,-0.410156 l 2.834,-1.052735 c -0.019,-0.0069 -9.2946,-3.441709 -9.5469,-3.535156 0.032,-0.01194 1.3262,-0.492187 1.3262,-0.492187 l 2.6231,-0.972657 c -0.019,-0.0069 -9.3043,-3.445605 -9.5567,-3.539062 0.044,-0.01621 1.5488,-0.574219 1.5488,-0.574219 l 2.4043,-0.892578 c -0.019,-0.0069 -9.3158,-3.449468 -9.5683,-3.542969 0.057,-0.02108 1.7695,-0.65625 1.7695,-0.65625 l 2.1856,-0.810547 c -0.019,-0.0069 -9.3257,-3.453361 -9.5782,-3.546875 0.072,-0.0266 1.9922,-0.738281 1.9922,-0.738281 l 1.9688,-0.730469 c -0.019,-0.0069 -9.3354,-3.457255 -9.5879,-3.550781 0.088,-0.03274 2.2148,-0.820312 2.2148,-0.820312 l 1.75,-0.650391 c -0.019,-0.0069 -9.3414,-3.459271 -9.5937,-3.552734 0.1065,-0.03944 2.4355,-0.902344 2.4355,-0.902344 l 1.5313,-0.570313 c -0.019,-0.0069 -9.355,-3.465043 -9.6074,-3.558593 0.1263,-0.04684 2.6601,-0.984375 2.6601,-0.984375 l 1.3145,-0.486329 c -0.019,-0.0069 -9.3646,-3.466996 -9.6172,-3.560546 0.148,-0.05481 2.8828,-1.06836 2.8828,-1.06836 l 1.0918,-0.408203 c -0.019,-0.0069 -9.3725,-3.470923 -9.625,-3.564453 0.171,-0.06334 3.1054,-1.150391 3.1054,-1.150391 l 0.877,-0.324218 c -0.019,-0.007 -9.3859,-3.476696 -9.6387,-3.570313 0.1959,-0.07252 3.3301,-1.2324218 3.3301,-1.2324218 l 0.6582,-0.2441406 c -0.019,-0.00696 -9.39,-3.478745 -9.6426,-3.5722656 0.2218,-0.082124 3.5508,-1.3144531 3.5508,-1.3144531 l 0.4336,-0.1640625 c -0.019,-0.00697 -9.3998,-3.4806967 -9.6523,-3.5742188 0.2497,-0.0924813 3.7754,-1.39843748 3.7754,-1.39843748 l 0.2148,-0.0820312 c -0.019,-0.006977 -9.4114,-3.48650152 -9.6641,-3.58007812 0.2792,-0.1033791 4,-1.4804688 4,-1.4804688 v -0.00195 C 1585.985,-6.0704697 799.99805,-297.15625 799.99805,-297.15625 Z"
         transform="scale(0.26458333)" />
      <path
         style="color:#000000;font-style:normal;font-variant:normal;font-weight:normal;font-stretch:normal;font-size:medium;line-height:normal;font-family:sans-serif;font-variant-ligatures:normal;font-variant-position:normal;font-variant-caps:normal;font-variant-numeric:normal;font-variant-alternates:normal;font-variant-east-asian:normal;font-feature-settings:normal;font-variation-settings:normal;text-indent:0;text-align:start;text-decoration:none;text-decoration-line:none;text-decoration-style:solid;text-decoration-color:#000000;letter-spacing:normal;word-spacing:normal;text-transform:none;writing-mode:lr-tb;direction:ltr;text-orientation:mixed;dominant-baseline:auto;baseline-shift:baseline;text-anchor:start;white-space:normal;shape-padding:0;shape-margin:0;inline-size:0;clip-rule:nonzero;display:inline;overflow:visible;visibility:visible;isolation:auto;mix-blend-mode:normal;color-interpolation:sRGB;color-interpolation-filters:linearRGB;solid-color:#000000;solid-opacity:1;vector-effect:none;fill:#eceff1;fill-opacity:1;fill-rule:nonzero;stroke:none;stroke-width:8.86354;stroke-linecap:butt;stroke-linejoin:round;stroke-miterlimit:0.22;stroke-dasharray:none;stroke-dashoffset:830;stroke-opacity:1;color-rendering:auto;image-rendering:auto;shape-rendering:auto;text-rendering:auto;enable-background:accumulate;stop-color:#000000"
         d="m -73.300447,153.05649 c -13.99249,0 -25.25686,35.99127 -25.25686,80.69791 0,43.83564 10.83019,79.28769 24.44274,80.65241 62.46417,-12.49891 170.09137,-20.05753 285.669577,-20.06229 0,0 0.11165,0 0.11165,0 115.61763,0 223.2951,7.55914 285.78043,20.06229 13.61255,-1.36472 24.44353,-36.81677 24.44353,-80.65241 0,-44.70664 -11.2649,-80.69791 -25.25739,-80.69791 h -1.63883 c -62.88749,12.22507 -169.3037,19.57864 -283.32774,19.57864 -114.024297,0 -220.4405074,-7.35357 -283.328007,-19.57864 z"
         id="path7713" />
      <path
         style="color:#000000;font-style:normal;font-variant:normal;font-weight:normal;font-stretch:normal;font-size:medium;line-height:normal;font-family:sans-serif;font-variant-ligatures:normal;font-variant-position:normal;font-variant-caps:normal;font-variant-numeric:normal;font-variant-alternates:normal;font-variant-east-asian:normal;font-feature-settings:normal;font-variation-settings:normal;text-indent:0;text-align:start;text-decoration:none;text-decoration-line:none;text-decoration-style:solid;text-decoration-color:#000000;letter-spacing:normal;word-spacing:normal;text-transform:none;writing-mode:lr-tb;direction:ltr;text-orientation:mixed;dominant-baseline:auto;baseline-shift:baseline;text-anchor:start;white-space:normal;shape-padding:0;shape-margin:0;inline-size:0;clip-rule:nonzero;display:inline;overflow:visible;visibility:visible;isolation:auto;mix-blend-mode:normal;color-interpolation:sRGB;color-interpolation-filters:linearRGB;solid-color:#000000;solid-opacity:1;vector-effect:none;fill:#cfd8dc;fill-opacity:1;fill-rule:nonzero;stroke:none;stroke-width:9.33603;stroke-linecap:butt;stroke-linejoin:round;stroke-miterlimit:0.22;stroke-dasharray:none;stroke-dashoffset:830;stroke-opacity:1;color-rendering:auto;image-rendering:auto;shape-rendering:auto;text-rendering:auto;enable-background:accumulate;stop-color:#000000"
         d="m -107.18273,228.14524 c -7.856,-0.13759 -7.91104,12.44891 -7.91104,18.83992 0,46.17244 11.40751,83.51388 25.745553,84.95136 65.79315,-13.1654 179.15732,-21.12698 300.896877,-21.13201 h 0.118 c 121.78109,0 235.19844,7.96211 301.01408,21.13201 14.33803,-1.43748 25.74634,-38.77892 25.74634,-84.95136 0,-6.39101 0.11006,-18.97751 -8.15922,-19.00529 z"
         id="path7719" />
      <path
         d="m 248.88507,282.46552 -24.20012,18.66768 0.91626,-3.41842 -35.53857,-9.52394 -21.91544,81.77847 23.51749,-16.68489 12.02108,26.20725 18.97089,-70.79007 48.80769,63.27325 1.00462,-28.81735 28.12653,6.34391 z"
         style="fill:#12324c;fill-opacity:1;stroke:none;stroke-width:8.51085;stroke-linejoin:round;stroke-miterlimit:0.22;stroke-dashoffset:830"
         id="rect7607" />
      <path
         d="m 212.49586,158.9776 c -3.56605,-0.0362 -11.25775,6.0071 -14.75316,6.71433 -3.49488,0.7067 -12.93098,-1.87299 -16.20309,-0.45482 -3.27183,1.4179 -7.84198,10.0674 -10.74764,12.13406 -2.90538,2.06772 -12.57485,3.54859 -14.98732,6.17511 -2.41194,2.62652 -3.0689,12.3862 -4.88262,15.45669 -1.81345,3.07076 -10.04385,8.3566 -11.17944,11.73718 -1.13559,3.38111 2.23388,12.56374 1.82589,16.10625 -0.40772,3.5425 -5.77744,11.71919 -5.4401,15.2691 0.33761,3.54992 7.15222,10.56931 8.22061,13.97159 1.06812,3.40228 -0.51091,13.05534 1.24116,16.16154 1.75233,3.10568 10.83151,6.74635 13.19186,9.42023 2.35929,2.67388 4.8432,12.13538 7.70731,14.25998 2.86412,2.12408 12.63915,1.7571 15.88294,3.24009 3.24326,1.48246 9.3599,9.11542 12.84076,9.89145 3.48033,0.77655 12.26132,-3.53536 15.82711,-3.49991 3.56579,0.0365 12.25841,4.52067 15.75408,3.8137 3.49515,-0.70723 9.76366,-8.2169 13.03549,-9.63453 3.27211,-1.4187 13.03814,-0.85725 15.9438,-2.92391 2.90618,-2.06746 5.57715,-11.47763 7.98935,-14.10415 2.41247,-2.62599 11.56203,-6.08541 13.37601,-9.1559 1.81346,-3.07049 0.42731,-12.75319 1.5629,-16.1343 1.13533,-3.38031 8.08699,-10.26186 8.4955,-13.8049 0.40773,-3.5425 -4.79769,-11.82423 -5.13556,-15.37414 -0.33761,-3.55071 3.21442,-12.66455 2.14577,-16.06709 -1.06786,-3.40201 -9.19268,-8.8511 -10.94475,-11.95678 -1.75234,-3.10568 -2.21483,-12.87701 -4.57438,-15.55062 -2.35982,-2.67388 -11.9978,-4.34684 -14.86191,-6.47145 -2.86359,-2.12487 -7.2607,-10.86299 -10.50396,-12.34546 -3.243,-1.48325 -12.72884,0.90832 -16.20891,0.13283 -3.48138,-0.77603 -11.05164,-6.97151 -14.6177,-7.00617 z m -1.0152,22.36179 a 52.87455,52.87455 0 0 1 0.0823,0 52.87455,52.87455 0 0 1 0.10451,0 52.87455,52.87455 0 0 1 52.87407,52.87407 52.87455,52.87455 0 0 1 -52.87407,52.87433 52.87455,52.87455 0 0 1 -52.87486,-52.87433 52.87455,52.87455 0 0 1 52.68807,-52.87407 z m 0.18441,7.87453 a 44.999643,44.999643 0 0 0 -44.99927,44.99954 44.999643,44.999643 0 0 0 44.99927,44.9998 44.999643,44.999643 0 0 0 44.99981,-44.9998 44.999643,44.999643 0 0 0 -44.99981,-44.99954 z"
         inkscape:transform-center-y="26.573341"
         inkscape:transform-center-x="0.88063879"
         style="fill:#ff7043;fill-opacity:1;stroke:none;stroke-width:7.53745;stroke-linejoin:round;stroke-miterlimit:0.22;stroke-dashoffset:830"
         id="path7596" />
      <path
         d="M 211.66608,-78.62271 3.2998226,-1.4553402 211.66608,75.71153 381.56483,12.79084 v 29.29173 a 9.095051,9.095051 0 0 0 -4.41907,7.80004 9.095051,9.095051 0 0 0 3.21706,6.94016 l -0.29315,0.89347 -6.17062,18.83246 h 12.34123 12.34255 l -6.17115,-18.83246 -0.29262,-0.89297 a 9.095051,9.095051 0 0 0 3.2168,-6.94066 9.095051,9.095051 0 0 0 -4.41669,-7.79952 V 9.3264298 l 29.1129,-10.78177 z M 106.89716,45.57126 v 54.46799 c 0,20.21126 46.72727,36.48253 104.76945,36.48253 58.04244,0 104.76971,-16.27127 104.76971,-36.48253 V 45.57126 L 211.66661,84.37198 Z"
         style="fill:#12324c;fill-opacity:1;stroke:none;stroke-width:7.62685;stroke-linejoin:round;stroke-miterlimit:0.22;stroke-dashoffset:830"
         id="rect7622" />
      <path
         id="path14747"
         d="m 211.66507,189.21392 a 44.999643,44.999643 0 0 0 -44.99927,44.99954 44.999643,44.999643 0 0 0 44.99927,44.9998 44.999643,44.999643 0 0 0 44.99981,-44.9998 44.999643,44.999643 0 0 0 -44.99981,-44.99954 z"
         style="fill:#ff7043;fill-opacity:1;stroke:none;stroke-width:7.53745;stroke-linejoin:round;stroke-miterlimit:0.22;stroke-dashoffset:830" />
    </g>
  </g>
</svg>
