<?xml version="1.0" encoding="UTF-8" standalone="no"?>
<svg
   id="svg8"
   version="1.1"
   viewBox="0 0 67.73333 67.733338"
   height="67.733337mm"
   width="67.73333mm"
   inkscape:export-filename="C:\Users\linos\Desktop\Icone gruppi telegram\matricole.png"
   inkscape:export-xdpi="96"
   inkscape:export-ydpi="96"
   inkscape:version="1.3 (0e150ed6c4, 2023-07-21)"
   sodipodi:docname="til_scalable.svg"
   xmlns:inkscape="http://www.inkscape.org/namespaces/inkscape"
   xmlns:sodipodi="http://sodipodi.sourceforge.net/DTD/sodipodi-0.dtd"
   xmlns="http://www.w3.org/2000/svg"
   xmlns:svg="http://www.w3.org/2000/svg"
   xmlns:rdf="http://www.w3.org/1999/02/22-rdf-syntax-ns#"
   xmlns:cc="http://creativecommons.org/ns#"
   xmlns:dc="http://purl.org/dc/elements/1.1/">
  <sodipodi:namedview
     inkscape:window-maximized="1"
     inkscape:window-y="-9"
     inkscape:window-x="-9"
     inkscape:window-height="1001"
     inkscape:window-width="1920"
     showgrid="false"
     inkscape:document-rotation="0"
     inkscape:current-layer="layer1"
     inkscape:document-units="mm"
     inkscape:cy="168.26574"
     inkscape:cx="184.69483"
     inkscape:zoom="1.8868963"
     inkscape:pageshadow="2"
     inkscape:pageopacity="0.0"
     borderopacity="1.0"
     bordercolor="#666666"
     pagecolor="#ffffff"
     id="base"
     inkscape:showpageshadow="2"
     inkscape:pagecheckerboard="0"
     inkscape:deskcolor="#d1d1d1">
    <inkscape:grid
       originy="37.797615"
       originx="164.04165"
       id="grid1537"
       type="xygrid"
       spacingy="1"
       spacingx="1"
       units="mm"
       visible="false" />
  </sodipodi:namedview>
  <defs
     id="defs2" />
  <metadata
     id="metadata5">
    <rdf:RDF>
      <cc:Work
         rdf:about="">
        <dc:format>image/svg+xml</dc:format>
        <dc:type
           rdf:resource="http://purl.org/dc/dcmitype/StillImage" />
        <dc:title />
        <cc:license
           rdf:resource="http://creativecommons.org/licenses/by-sa/4.0/" />
      </cc:Work>
      <cc:License
         rdf:about="http://creativecommons.org/licenses/by-sa/4.0/">
        <cc:permits
           rdf:resource="http://creativecommons.org/ns#Reproduction" />
        <cc:permits
           rdf:resource="http://creativecommons.org/ns#Distribution" />
        <cc:requires
           rdf:resource="http://creativecommons.org/ns#Notice" />
        <cc:requires
           rdf:resource="http://creativecommons.org/ns#Attribution" />
        <cc:permits
           rdf:resource="http://creativecommons.org/ns#DerivativeWorks" />
        <cc:requires
           rdf:resource="http://creativecommons.org/ns#ShareAlike" />
      </cc:License>
    </rdf:RDF>
  </metadata>
  <g
     transform="translate(164.04167,37.797619)"
     id="layer1"
     inkscape:groupmode="layer"
     inkscape:label="Livello 1">
    <path
       id="rect10"
       style="fill:#d4e157;stroke-width:0.44485"
       d="m -163.93663,-37.797619 h 67.523248 c 0.05819,0 0.10504,0.108372 0.10504,0.242986 v 67.247358 c 0,0.134614 -0.04685,0.242986 -0.10504,0.242986 h -67.523248 c -0.0582,0 -0.10504,-0.108372 -0.10504,-0.242986 v -67.247358 c 0,-0.134614 0.0469,-0.242986 0.10504,-0.242986 z" />
    <path
       id="path53"
       style="fill:#000001;stroke-width:0.108963;fill-opacity:0.24705882"
       d="M -130.175 -24.269246 C -130.41592 -24.269246 -130.63379 -24.17168 -130.7915 -24.013964 C -130.87036 -23.935106 -130.93449 -23.841293 -130.97857 -23.736979 C -131.02266 -23.632663 -131.04678 -23.517923 -131.04678 -23.397464 L -131.04678 -22.525683 L -131.04678 -19.039074 L -131.04678 -16.947212 L -143.661 -10.219457 C -144.01338 -10.030518 -144.19322 -9.6265194 -144.09612 -9.2391555 C -144.06077 -9.0978227 -143.98377 -8.9800325 -143.89148 -8.8769037 C -143.88049 -8.8645921 -143.87883 -8.8451437 -143.86719 -8.8334955 L -142.74013 -7.7064325 L -155.4546 -7.7064325 L -155.45511 -7.7064325 L -155.45563 -7.7064325 C -155.93698 -7.705866 -156.32638 -7.316652 -156.32638 -6.8351678 C -156.32638 -6.5942504 -156.22881 -6.3763835 -156.0711 -6.218668 L -155.45511 -5.6026849 L -155.45511 5.3687384 L -157.19816 5.3687384 C -157.43893 5.3687384 -157.6571 5.4664827 -157.81466 5.62402 C -157.97224 5.7817355 -158.06942 5.9996024 -158.06942 6.2405198 C -158.06942 6.4814374 -157.97173 6.6998209 -157.81414 6.8575364 L -154.71304 9.9586391 L -156.78061 9.9586391 L -156.78113 9.9586391 L -156.78113 11.489812 L -156.623 11.647942 L -154.94403 13.326909 L -154.94403 16.468319 L -154.94352 16.468319 L -141.47612 29.935714 L -96.41324 29.935714 C -96.35505 29.935714 -96.308337 29.827449 -96.308337 29.692835 L -96.308337 0.51942202 L -104.27891 -7.4511509 L -104.27891 -7.4516677 C -104.35767 -7.5303597 -104.45122 -7.594188 -104.55538 -7.6382196 L -104.5559 -7.6382196 C -104.66006 -7.682193 -104.77462 -7.7063617 -104.89489 -7.7064325 L -108.8931 -7.7064325 L -124.32885 -23.142183 C -124.3309 -23.14424 -124.33401 -23.144799 -124.33608 -23.146834 C -124.40756 -23.216914 -124.49145 -23.269954 -124.58155 -23.311681 C -124.60298 -23.321623 -124.62391 -23.329338 -124.64614 -23.33752 C -124.74122 -23.37262 -124.84044 -23.397464 -124.94483 -23.397464 L -128.94149 -23.397464 L -129.55799 -24.013964 L -129.5585 -24.013964 C -129.71622 -24.17168 -129.93408 -24.269246 -130.175 -24.269246 z " />
    <path
       id="path835"
       d="m -124.84179,-20.782248 0.67677,-1.353544 c 0.13533,-0.269903 0.12084,-0.5908 -0.0384,-0.847845 -0.15909,-0.257154 -0.43924,-0.413734 -0.74139,-0.413734 h -5.23025 c -0.48183,0 -0.8717,0.389871 -0.8717,0.871708 v 3.48683 c 0,0.481836 0.38987,0.871708 0.8717,0.871708 h 5.23025 c 0.30215,0 0.5823,-0.15669 0.7415,-0.413735 0.15919,-0.257044 0.17368,-0.578051 0.0383,-0.847844 z"
       style="fill:#ff4f19;stroke-width:0.108963" />
    <path
       id="path839"
       d="m -130.17501,-15.552003 c -0.48183,0 -0.8717,-0.389871 -0.8717,-0.871707 v -6.973661 c 0,-0.481836 0.38987,-0.871708 0.8717,-0.871708 0.48184,0 0.87171,0.389872 0.87171,0.871708 v 6.973661 c 0,0.481836 -0.38987,0.871707 -0.87171,0.871707 z"
       style="fill:#5c546a;stroke-width:0.108963" />
    <path
       id="rect845"
       style="fill:#868491;stroke-width:0.108963"
       d="m -118.84281,-6.8349266 h 13.94732 V 5.3689795 h -13.94732 z" />
    <path
       id="rect849"
       style="fill:#868491;stroke-width:0.108963"
       d="m -155.45453,-6.8349266 h 13.94732 V 5.3689795 h -13.94732 z" />
    <path
       id="path853"
       d="m -120.58622,-5.963219 h 15.69073 c 0.48184,0 0.87171,-0.3898712 0.87171,-0.8717076 0,-0.4818364 -0.38987,-0.8717076 -0.87171,-0.8717076 h -15.69073 c -0.48184,0 -0.87171,0.3898712 -0.87171,0.8717076 0,0.4818364 0.38987,0.8717076 0.87171,0.8717076 z"
       style="fill:#b4b6bc;stroke-width:0.108963" />
    <path
       id="path859"
       d="m -139.76379,-5.963219 h -15.69074 c -0.48183,0 -0.8717,-0.3898712 -0.8717,-0.8717076 0,-0.4818364 0.38987,-0.8717076 0.8717,-0.8717076 h 15.69074 c 0.48184,0 0.87171,0.3898712 0.87171,0.8717076 0,0.4818364 -0.38987,0.8717076 -0.87171,0.8717076 z"
       style="fill:#b4b6bc;stroke-width:0.108963" />
    <path
       id="path865"
       d="m -116.22769,3.6255646 c 0.48184,0 0.87171,-0.3898712 0.87171,-0.8717076 V 1.8821494 c 0,-0.4818364 -0.38987,-0.8717076 -0.87171,-0.8717076 -0.48183,0 -0.8717,0.3898712 -0.8717,0.8717076 V 2.753857 c 0,0.4818364 0.38987,0.8717076 0.8717,0.8717076 z"
       style="fill:#5c546a;stroke-width:0.108963" />
    <path
       id="path871"
       d="m -113.61256,3.6255646 c 0.48183,0 0.87171,-0.3898712 0.87171,-0.8717076 V 1.8821494 c 0,-0.4818364 -0.38988,-0.8717076 -0.87171,-0.8717076 -0.48184,0 -0.87171,0.3898712 -0.87171,0.8717076 V 2.753857 c 0,0.4818364 0.38987,0.8717076 0.87171,0.8717076 z"
       style="fill:#5c546a;stroke-width:0.108963" />
    <path
       id="path877"
       d="m -110.99744,3.6255646 c 0.48184,0 0.87171,-0.3898712 0.87171,-0.8717076 V 1.8821494 c 0,-0.4818364 -0.38987,-0.8717076 -0.87171,-0.8717076 -0.48184,0 -0.87171,0.3898712 -0.87171,0.8717076 V 2.753857 c 0,0.4818364 0.38987,0.8717076 0.87171,0.8717076 z"
       style="fill:#5c546a;stroke-width:0.108963" />
    <path
       id="path883"
       d="m -108.38232,3.6255646 c 0.48184,0 0.87171,-0.3898712 0.87171,-0.8717076 V 1.8821494 c 0,-0.4818364 -0.38987,-0.8717076 -0.87171,-0.8717076 -0.48183,0 -0.8717,0.3898712 -0.8717,0.8717076 V 2.753857 c 0,0.4818364 0.38987,0.8717076 0.8717,0.8717076 z"
       style="fill:#5c546a;stroke-width:0.108963" />
    <path
       id="path889"
       d="m -116.22769,0.1387342 c 0.48184,0 0.87171,-0.38987122 0.87171,-0.8717076 v -2.6151228 c 0,-0.4818364 -0.38987,-0.8717076 -0.87171,-0.8717076 -0.48183,0 -0.8717,0.3898712 -0.8717,0.8717076 v 2.6151228 c 0,0.48183638 0.38987,0.8717076 0.8717,0.8717076 z"
       style="fill:#5c546a;stroke-width:0.108963" />
    <path
       id="path895"
       d="m -113.61256,0.1387342 c 0.48183,0 0.87171,-0.38987122 0.87171,-0.8717076 v -2.6151228 c 0,-0.4818364 -0.38988,-0.8717076 -0.87171,-0.8717076 -0.48184,0 -0.87171,0.3898712 -0.87171,0.8717076 v 2.6151228 c 0,0.48183638 0.38987,0.8717076 0.87171,0.8717076 z"
       style="fill:#5c546a;stroke-width:0.108963" />
    <path
       id="path901"
       d="m -110.99744,0.1387342 c 0.48184,0 0.87171,-0.38987122 0.87171,-0.8717076 v -2.6151228 c 0,-0.4818364 -0.38987,-0.8717076 -0.87171,-0.8717076 -0.48184,0 -0.87171,0.3898712 -0.87171,0.8717076 v 2.6151228 c 0,0.48183638 0.38987,0.8717076 0.87171,0.8717076 z"
       style="fill:#5c546a;stroke-width:0.108963" />
    <path
       id="path907"
       d="m -108.38232,0.1387342 c 0.48184,0 0.87171,-0.38987122 0.87171,-0.8717076 v -2.6151228 c 0,-0.4818364 -0.38987,-0.8717076 -0.87171,-0.8717076 -0.48183,0 -0.8717,0.3898712 -0.8717,0.8717076 v 2.6151228 c 0,0.48183638 0.38987,0.8717076 0.8717,0.8717076 z"
       style="fill:#5c546a;stroke-width:0.108963" />
    <path
       id="polygon915"
       style="fill:#b4b6bc"
       transform="matrix(0.10896345,0,0,0.10896345,-158.06965,-36.472985)"
       d="M 360,244.266 256,188.804 152,244.266 Z" />
    <path
       id="rect919"
       style="fill:#868491;stroke-width:0.108963"
       d="m -140.65936,-9.4500494 h 20.92098 V 6.2406874 h -20.92098 z" />
    <path
       id="path923"
       d="m -130.17501,7.112395 c -0.48183,0 -0.8717,-0.3898712 -0.8717,-0.8717076 V -9.4500494 c 0,-0.4818364 0.38987,-0.8717076 0.8717,-0.8717076 0.48184,0 0.87171,0.3898712 0.87171,0.8717076 V 6.2406874 c 0,0.4818364 -0.38987,0.8717076 -0.87171,0.8717076 z"
       style="fill:#b4b6bc;stroke-width:0.108963" />
    <path
       id="path929"
       d="m -133.66184,7.112395 c -0.48183,0 -0.8717,-0.3898712 -0.8717,-0.8717076 V -9.4500494 c 0,-0.4818364 0.38987,-0.8717076 0.8717,-0.8717076 0.48184,0 0.87171,0.3898712 0.87171,0.8717076 V 6.2406874 c 0,0.4818364 -0.38987,0.8717076 -0.87171,0.8717076 z"
       style="fill:#b4b6bc;stroke-width:0.108963" />
    <path
       id="path935"
       d="m -137.14867,7.112395 c -0.48183,0 -0.87171,-0.3898712 -0.87171,-0.8717076 V -9.4500494 c 0,-0.4818364 0.38988,-0.8717076 0.87171,-0.8717076 0.48184,0 0.87171,0.3898712 0.87171,0.8717076 V 6.2406874 c 0,0.4818364 -0.38987,0.8717076 -0.87171,0.8717076 z"
       style="fill:#b4b6bc;stroke-width:0.108963" />
    <path
       id="path941"
       d="m -123.20135,7.112395 c -0.48183,0 -0.8717,-0.3898712 -0.8717,-0.8717076 V -9.4500494 c 0,-0.4818364 0.38987,-0.8717076 0.8717,-0.8717076 0.48184,0 0.87171,0.3898712 0.87171,0.8717076 V 6.2406874 c 0,0.4818364 -0.38987,0.8717076 -0.87171,0.8717076 z"
       style="fill:#b4b6bc;stroke-width:0.108963" />
    <path
       id="path947"
       d="m -126.68818,7.112395 c -0.48183,0 -0.8717,-0.3898712 -0.8717,-0.8717076 V -9.4500494 c 0,-0.4818364 0.38987,-0.8717076 0.8717,-0.8717076 0.48184,0 0.87171,0.3898712 0.87171,0.8717076 V 6.2406874 c 0,0.4818364 -0.38987,0.8717076 -0.87171,0.8717076 z"
       style="fill:#b4b6bc;stroke-width:0.108963" />
    <path
       id="path953"
       d="m -119.71452,7.112395 c -0.48183,0 -0.8717,-0.3898712 -0.8717,-0.8717076 V -9.4500494 c 0,-0.4818364 0.38987,-0.8717076 0.8717,-0.8717076 0.48184,0 0.87171,0.3898712 0.87171,0.8717076 V 6.2406874 c 0,0.4818364 -0.38987,0.8717076 -0.87171,0.8717076 z"
       style="fill:#b4b6bc;stroke-width:0.108963" />
    <path
       id="path959"
       d="m -140.6355,7.112395 c -0.48183,0 -0.87171,-0.3898712 -0.87171,-0.8717076 V -9.4500494 c 0,-0.4818364 0.38988,-0.8717076 0.87171,-0.8717076 0.48184,0 0.87171,0.3898712 0.87171,0.8717076 V 6.2406874 c 0,0.4818364 -0.38987,0.8717076 -0.87171,0.8717076 z"
       style="fill:#b4b6bc;stroke-width:0.108963" />
    <path
       id="path965"
       d="m -117.09939,-8.5783418 h -26.15123 c -0.40011,0 -0.74825,-0.2724086 -0.84534,-0.6606454 -0.0971,-0.3873651 0.0826,-0.7917288 0.43498,-0.9806708 l 13.07562,-6.973661 c 0.25704,-0.136204 0.56356,-0.136204 0.8206,0 l 13.07561,6.973661 c 0.35239,0.188942 0.53207,0.5933057 0.43499,0.9806708 -0.097,0.3882368 -0.44512,0.6606454 -0.84523,0.6606454 z m -22.6644,-1.7434152 h 19.17757 l -9.58879,-5.113655 z"
       style="fill:#868491;stroke-width:0.108963" />
    <path
       id="path971"
       d="m -144.12233,3.6255646 c -0.48183,0 -0.87171,-0.3898712 -0.87171,-0.8717076 V 1.8821494 c 0,-0.4818364 0.38988,-0.8717076 0.87171,-0.8717076 0.48184,0 0.87171,0.3898712 0.87171,0.8717076 V 2.753857 c 0,0.4818364 -0.38987,0.8717076 -0.87171,0.8717076 z"
       style="fill:#5c546a;stroke-width:0.108963" />
    <path
       id="path977"
       d="m -146.73745,3.6255646 c -0.48184,0 -0.87171,-0.3898712 -0.87171,-0.8717076 V 1.8821494 c 0,-0.4818364 0.38987,-0.8717076 0.87171,-0.8717076 0.48184,0 0.87171,0.3898712 0.87171,0.8717076 V 2.753857 c 0,0.4818364 -0.38987,0.8717076 -0.87171,0.8717076 z"
       style="fill:#5c546a;stroke-width:0.108963" />
    <path
       id="path983"
       d="m -149.35257,3.6255646 c -0.48184,0 -0.87171,-0.3898712 -0.87171,-0.8717076 V 1.8821494 c 0,-0.4818364 0.38987,-0.8717076 0.87171,-0.8717076 0.48183,0 0.8717,0.3898712 0.8717,0.8717076 V 2.753857 c 0,0.4818364 -0.38987,0.8717076 -0.8717,0.8717076 z"
       style="fill:#5c546a;stroke-width:0.108963" />
    <path
       id="path989"
       d="m -151.9677,3.6255646 c -0.48183,0 -0.8717,-0.3898712 -0.8717,-0.8717076 V 1.8821494 c 0,-0.4818364 0.38987,-0.8717076 0.8717,-0.8717076 0.48184,0 0.87171,0.3898712 0.87171,0.8717076 V 2.753857 c 0,0.4818364 -0.38987,0.8717076 -0.87171,0.8717076 z"
       style="fill:#5c546a;stroke-width:0.108963" />
    <path
       id="path995"
       d="m -144.12233,0.1387342 c -0.48183,0 -0.87171,-0.38987122 -0.87171,-0.8717076 v -2.6151228 c 0,-0.4818364 0.38988,-0.8717076 0.87171,-0.8717076 0.48184,0 0.87171,0.3898712 0.87171,0.8717076 v 2.6151228 c 0,0.48183638 -0.38987,0.8717076 -0.87171,0.8717076 z"
       style="fill:#5c546a;stroke-width:0.108963" />
    <path
       id="path1001"
       d="m -146.73745,0.1387342 c -0.48184,0 -0.87171,-0.38987122 -0.87171,-0.8717076 v -2.6151228 c 0,-0.4818364 0.38987,-0.8717076 0.87171,-0.8717076 0.48184,0 0.87171,0.3898712 0.87171,0.8717076 v 2.6151228 c 0,0.48183638 -0.38987,0.8717076 -0.87171,0.8717076 z"
       style="fill:#5c546a;stroke-width:0.108963" />
    <path
       id="path1007"
       d="m -149.35257,0.1387342 c -0.48184,0 -0.87171,-0.38987122 -0.87171,-0.8717076 v -2.6151228 c 0,-0.4818364 0.38987,-0.8717076 0.87171,-0.8717076 0.48183,0 0.8717,0.3898712 0.8717,0.8717076 v 2.6151228 c 0,0.48183638 -0.38987,0.8717076 -0.8717,0.8717076 z"
       style="fill:#5c546a;stroke-width:0.108963" />
    <path
       id="path1013"
       d="m -151.9677,0.1387342 c -0.48183,0 -0.8717,-0.38987122 -0.8717,-0.8717076 v -2.6151228 c 0,-0.4818364 0.38987,-0.8717076 0.8717,-0.8717076 0.48184,0 0.87171,0.3898712 0.87171,0.8717076 v 2.6151228 c 0,0.48183638 -0.38987,0.8717076 -0.87171,0.8717076 z"
       style="fill:#5c546a;stroke-width:0.108963" />
    <path
       id="path1021"
       d="m -128.45545,-11.193465 h -3.43911 c -0.48184,0 -0.87171,-0.389871 -0.87171,-0.871707 0,-0.481837 0.38987,-0.871708 0.87171,-0.871708 h 3.43911 c 0.48183,0 0.8717,0.389871 0.8717,0.871708 0,0.481836 -0.38987,0.871707 -0.8717,0.871707 z"
       style="fill:#868491;stroke-width:0.108963" />
    <path
       id="path1027"
       d="m -103.15207,7.112395 h -54.04587 c -0.48184,0 -0.87171,-0.3898712 -0.87171,-0.8717076 0,-0.4818364 0.38987,-0.8717076 0.87171,-0.8717076 h 54.04587 c 0.48184,0 0.87171,0.3898712 0.87171,0.8717076 0,0.4818364 -0.38987,0.8717076 -0.87171,0.8717076 z"
       style="fill:#5c546a;stroke-width:0.108963" />
    <g
       id="g958"
       transform="matrix(0.8717076,0,0,0.8717076,-116.2655,-27.200541)">
      <g
         id="g926">
        <g
           id="g729" />
        <g
           id="g735">
          <g
             id="g733" />
        </g>
        <g
           id="g739" />
        <g
           id="g743" />
        <g
           id="g749">
          <g
             id="g747" />
        </g>
        <g
           id="g755">
          <g
             id="g753" />
        </g>
        <g
           id="g805">
          <g
             id="g761">
            <g
               id="g759" />
          </g>
          <g
             id="g767">
            <g
               id="g765" />
          </g>
          <g
             id="g773">
            <g
               id="g771" />
          </g>
          <g
             id="g779">
            <g
               id="g777" />
          </g>
          <g
             id="g785">
            <g
               id="g783" />
          </g>
          <g
             id="g791">
            <g
               id="g789" />
          </g>
          <g
             id="g797">
            <g
               id="g795" />
          </g>
          <g
             id="g803">
            <g
               id="g801" />
          </g>
        </g>
        <g
           id="g809" />
        <g
           id="g813" />
        <g
           id="g819">
          <g
             id="g817" />
        </g>
        <g
           id="g825">
          <g
             id="g823" />
        </g>
        <g
           id="g831">
          <g
             id="g829" />
        </g>
        <g
           id="g838">
          <g
             id="g835" />
        </g>
        <g
           id="g844">
          <g
             id="g842" />
        </g>
        <g
           id="g850">
          <g
             id="g848" />
        </g>
        <g
           id="g856">
          <g
             id="g854" />
        </g>
        <g
           id="g862">
          <g
             id="g860" />
        </g>
        <g
           id="g912">
          <g
             id="g868">
            <g
               id="g866" />
          </g>
          <g
             id="g874">
            <g
               id="g872" />
          </g>
          <g
             id="g880">
            <g
               id="g878" />
          </g>
          <g
             id="g886">
            <g
               id="g884" />
          </g>
          <g
             id="g892">
            <g
               id="g890" />
          </g>
          <g
             id="g898">
            <g
               id="g896" />
          </g>
          <g
             id="g904">
            <g
               id="g902" />
          </g>
          <g
             id="g910">
            <g
               id="g908" />
          </g>
        </g>
        <g
           id="g918">
          <g
             id="g916" />
        </g>
        <g
           id="g924">
          <g
             id="g922" />
        </g>
      </g>
      <g
         id="g928" />
      <g
         id="g930" />
      <g
         id="g932" />
      <g
         id="g934" />
      <g
         id="g936" />
      <g
         id="g938" />
      <g
         id="g940" />
      <g
         id="g942" />
      <g
         id="g944" />
      <g
         id="g946" />
      <g
         id="g948" />
      <g
         id="g950" />
      <g
         id="g952" />
      <g
         id="g954" />
      <g
         id="g956" />
    </g>
    <g
       style="font-style:normal;font-weight:normal;font-size:41.8868px;line-height:1.25;font-family:sans-serif;letter-spacing:0px;word-spacing:0px;fill:#5c546a;fill-opacity:1;stroke:none;stroke-width:1.04717"
       id="text962"
       aria-label="MATRICOLE"
       transform="matrix(1.2857143,0,0,1.2857143,-30.540472,-103.7893)" />
    <g
       id="g1307"
       transform="matrix(0.8717076,0,0,0.8717076,-116.2655,-27.200541)" />
    <g
       id="g1327"
       transform="matrix(0.8717076,0,0,0.8717076,-116.2655,-27.200541)" />
    <g
       id="g1335"
       transform="matrix(0.8717076,0,0,0.8717076,-116.2655,-27.200541)">
      <g
         id="g1333" />
    </g>
    <g
       id="g1341"
       transform="matrix(0.8717076,0,0,0.8717076,-116.2655,-27.200541)">
      <g
         id="g1339" />
    </g>
    <g
       id="g1347"
       transform="matrix(0.8717076,0,0,0.8717076,-116.2655,-27.200541)">
      <g
         id="g1345" />
    </g>
    <g
       id="g1353"
       transform="matrix(0.8717076,0,0,0.8717076,-116.2655,-27.200541)">
      <g
         id="g1351" />
    </g>
    <g
       id="g1359"
       transform="matrix(0.8717076,0,0,0.8717076,-116.2655,-27.200541)">
      <g
         id="g1357" />
    </g>
    <g
       id="g1365"
       transform="matrix(0.8717076,0,0,0.8717076,-116.2655,-27.200541)">
      <g
         id="g1363" />
    </g>
    <g
       id="g1371"
       transform="matrix(0.8717076,0,0,0.8717076,-116.2655,-27.200541)">
      <g
         id="g1369" />
    </g>
    <g
       id="g1377"
       transform="matrix(0.8717076,0,0,0.8717076,-116.2655,-27.200541)">
      <g
         id="g1375" />
    </g>
    <g
       id="g1321"
       transform="matrix(0.8717076,0,0,0.8717076,-116.2655,-27.200541)" />
    <g
       id="g1397"
       transform="matrix(0.8717076,0,0,0.8717076,-116.2655,-27.200541)" />
    <g
       id="g1403"
       transform="matrix(0.8717076,0,0,0.8717076,-116.2655,-27.200541)" />
    <g
       id="g1391"
       transform="matrix(0.8717076,0,0,0.8717076,-116.2655,-27.200541)" />
    <g
       id="g1409"
       transform="matrix(0.8717076,0,0,0.8717076,-116.2655,-27.200541)" />
    <g
       id="g1415"
       transform="matrix(0.8717076,0,0,0.8717076,-116.2655,-27.200541)" />
    <g
       id="g1421"
       transform="matrix(0.8717076,0,0,0.8717076,-116.2655,-27.200541)" />
    <g
       id="g1427"
       transform="matrix(0.8717076,0,0,0.8717076,-116.2655,-27.200541)" />
    <g
       id="g1433"
       transform="matrix(0.8717076,0,0,0.8717076,-116.2655,-27.200541)" />
    <g
       id="g1441"
       transform="matrix(0.8717076,0,0,0.8717076,-116.2655,-27.200541)">
      <g
         id="g1439" />
    </g>
    <g
       id="g1447"
       transform="matrix(0.8717076,0,0,0.8717076,-116.2655,-27.200541)">
      <g
         id="g1445" />
    </g>
    <g
       id="g1453"
       transform="matrix(0.8717076,0,0,0.8717076,-116.2655,-27.200541)">
      <g
         id="g1451" />
    </g>
    <g
       id="g1459"
       transform="matrix(0.8717076,0,0,0.8717076,-116.2655,-27.200541)">
      <g
         id="g1457" />
    </g>
    <g
       id="g1465"
       transform="matrix(0.8717076,0,0,0.8717076,-116.2655,-27.200541)">
      <g
         id="g1463" />
    </g>
    <g
       id="g1471"
       transform="matrix(0.8717076,0,0,0.8717076,-116.2655,-27.200541)">
      <g
         id="g1469" />
    </g>
    <g
       id="g1477"
       transform="matrix(0.8717076,0,0,0.8717076,-116.2655,-27.200541)">
      <g
         id="g1475" />
    </g>
    <g
       id="g1483"
       transform="matrix(0.8717076,0,0,0.8717076,-116.2655,-27.200541)">
      <g
         id="g1481" />
    </g>
    <g
       id="g1489"
       transform="matrix(0.8717076,0,0,0.8717076,-116.2655,-27.200541)" />
    <g
       id="g1495"
       transform="matrix(0.8717076,0,0,0.8717076,-116.2655,-27.200541)" />
    <path
       id="path10"
       style="font-size:9.87778px;font-family:PRIMETIME;-inkscape-font-specification:PRIMETIME;text-align:center;text-anchor:middle;fill:#ff4f19;stroke-width:0.805412"
       d="M -107.02655 9.7710537 C -107.50068 9.7710537 -107.94816 9.8631373 -108.36962 10.047523 C -108.79107 10.225322 -109.15992 10.472474 -109.47601 10.788563 C -109.78551 11.098066 -110.03266 11.463168 -110.21705 11.88462 C -110.39485 12.299486 -110.4837 12.744256 -110.4837 13.218388 C -110.4837 13.692521 -110.39485 14.140007 -110.21705 14.561459 C -110.03266 14.982911 -109.78551 15.348529 -109.47601 15.658033 C -109.15992 15.967536 -108.79107 16.214688 -108.36962 16.399073 C -107.94816 16.576873 -107.50068 16.665723 -107.02655 16.665723 C -106.55241 16.665723 -106.10441 16.576873 -105.68296 16.399073 C -105.26151 16.214688 -104.8964 15.967536 -104.5869 15.658033 C -104.27081 15.348529 -104.02366 14.982911 -103.84586 14.561459 C -103.66148 14.140007 -103.56939 13.692521 -103.56939 13.218388 C -103.56939 12.744256 -103.66148 12.296253 -103.84586 11.874801 C -104.02366 11.45335 -104.27081 11.087731 -104.5869 10.778227 C -104.8964 10.468724 -105.26151 10.225322 -105.68296 10.047523 C -106.10441 9.8631373 -106.55241 9.7710537 -107.02655 9.7710537 z M -107.02655 11.559058 C -106.80265 11.559058 -106.59533 11.604842 -106.40436 11.697034 C -106.20681 11.782642 -106.03881 11.901109 -105.90052 12.052568 C -105.75564 12.204027 -105.64364 12.381728 -105.56462 12.585869 C -105.48559 12.783424 -105.44628 12.994492 -105.44628 13.218388 C -105.44628 13.442285 -105.48559 13.656069 -105.56462 13.86021 C -105.64364 14.057765 -105.75564 14.235466 -105.90052 14.393511 C -106.03881 14.54497 -106.20681 14.667187 -106.40436 14.75938 C -106.59533 14.844987 -106.80265 14.887537 -107.02655 14.887537 C -107.25044 14.887537 -107.46099 14.844987 -107.65855 14.75938 C -107.84951 14.667187 -108.01752 14.54497 -108.16239 14.393511 C -108.30069 14.235466 -108.41268 14.057765 -108.49829 13.86021 C -108.57731 13.656069 -108.61663 13.442285 -108.61663 13.218388 C -108.61663 12.994492 -108.57731 12.783424 -108.49829 12.585869 C -108.41268 12.381728 -108.30069 12.204027 -108.16239 12.052568 C -108.01752 11.901109 -107.84951 11.782642 -107.65855 11.697034 C -107.46099 11.604842 -107.25044 11.559058 -107.02655 11.559058 z " />
    <path
       style="font-size:9.87778px;font-family:PRIMETIME;-inkscape-font-specification:PRIMETIME;text-align:center;text-anchor:middle;fill:#ff4f19;stroke-width:0.805412"
       d="m -110.81954,11.647722 h -1.67922 v 4.820357 h -1.85702 v -4.820357 h -1.67923 l -0.15804,-0.158044 V 9.9586216 h 5.53156 v 1.5310564 z"
       id="path9" />
    <path
       style="font-size:9.87778px;font-family:PRIMETIME;-inkscape-font-specification:PRIMETIME;text-align:center;text-anchor:middle;fill:#ff4f19;stroke-width:0.805412"
       d="M -118.96871,16.468079 V 9.9586216 h 1.90642 v 6.5094574 z"
       id="path8" />
    <path
       style="font-size:9.87778px;font-family:PRIMETIME;-inkscape-font-specification:PRIMETIME;text-align:center;text-anchor:middle;fill:#ff4f19;stroke-width:0.805412"
       d="M -125.00402,16.468079 V 9.9586216 h 1.82738 v 4.8598674 h 3.37821 v 1.64959 z"
       id="path7" />
    <path
       id="path5"
       style="font-size:9.87778px;font-family:PRIMETIME;-inkscape-font-specification:PRIMETIME;text-align:center;text-anchor:middle;fill:#ff4f19;stroke-width:0.805412"
       d="M -129.06396 9.7710537 C -129.53809 9.7710537 -129.98558 9.8631373 -130.40703 10.047523 C -130.82848 10.225322 -131.19734 10.472474 -131.51342 10.788563 C -131.82293 11.098066 -132.07008 11.463168 -132.25446 11.88462 C -132.43226 12.299486 -132.52111 12.744256 -132.52111 13.218388 C -132.52111 13.692521 -132.43226 14.140007 -132.25446 14.561459 C -132.07008 14.982911 -131.82293 15.348529 -131.51342 15.658033 C -131.19734 15.967536 -130.82848 16.214688 -130.40703 16.399073 C -129.98558 16.576873 -129.53809 16.665723 -129.06396 16.665723 C -128.58983 16.665723 -128.14182 16.576873 -127.72037 16.399073 C -127.29892 16.214688 -126.93331 15.967536 -126.6238 15.658033 C -126.30771 15.348529 -126.06108 14.982911 -125.88328 14.561459 C -125.69889 14.140007 -125.60681 13.692521 -125.60681 13.218388 C -125.60681 12.744256 -125.69889 12.296253 -125.88328 11.874801 C -126.06108 11.45335 -126.30771 11.087731 -126.6238 10.778227 C -126.93331 10.468724 -127.29892 10.225322 -127.72037 10.047523 C -128.14182 9.8631373 -128.58983 9.7710537 -129.06396 9.7710537 z M -129.06396 11.559058 C -128.84007 11.559058 -128.63223 11.604842 -128.44126 11.697034 C -128.24371 11.782642 -128.07622 11.901109 -127.93793 12.052568 C -127.79306 12.204027 -127.68106 12.381728 -127.60203 12.585869 C -127.52301 12.783424 -127.48318 12.994492 -127.48318 13.218388 C -127.48318 13.442285 -127.52301 13.656069 -127.60203 13.86021 C -127.68106 14.057765 -127.79306 14.235466 -127.93793 14.393511 C -128.07622 14.54497 -128.24371 14.667187 -128.44126 14.75938 C -128.63223 14.844987 -128.84007 14.887537 -129.06396 14.887537 C -129.28786 14.887537 -129.49841 14.844987 -129.69596 14.75938 C -129.88694 14.667187 -130.05493 14.54497 -130.19981 14.393511 C -130.33809 14.235466 -130.4501 14.057765 -130.5357 13.86021 C -130.61473 13.656069 -130.65404 13.442285 -130.65404 13.218388 C -130.65404 12.994492 -130.61473 12.783424 -130.5357 12.585869 C -130.4501 12.381728 -130.33809 12.204027 -130.19981 12.052568 C -130.05493 11.901109 -129.88694 11.782642 -129.69596 11.697034 C -129.49841 11.604842 -129.28786 11.559058 -129.06396 11.559058 z " />
    <path
       id="path3"
       style="font-size:9.87778px;font-family:PRIMETIME;-inkscape-font-specification:PRIMETIME;text-align:center;text-anchor:middle;fill:#ff4f19;stroke-width:0.805412"
       d="M -138.5564 9.9586391 L -138.5564 16.468319 L -136.68933 16.468319 L -136.68933 14.522185 L -135.54367 14.522185 C -135.22099 14.522185 -134.90814 14.466184 -134.60522 14.354236 C -134.3023 14.235703 -134.03899 14.077403 -133.81509 13.879847 C -133.58461 13.675706 -133.39992 13.435538 -133.26164 13.158961 C -133.12335 12.882384 -133.05441 12.579748 -133.05441 12.250489 C -133.05441 11.927815 -133.12335 11.627896 -133.26164 11.351319 C -133.39992 11.068156 -133.58461 10.824755 -133.81509 10.620614 C -134.04558 10.409888 -134.31213 10.248354 -134.61504 10.136406 C -134.91138 10.017873 -135.22099 9.9586391 -135.54367 9.9586391 L -138.5564 9.9586391 z M -136.65988 11.538904 L -135.6031 11.538904 C -135.43847 11.538904 -135.29685 11.608355 -135.17832 11.746644 C -135.0532 11.878347 -134.99021 12.026431 -134.99021 12.191061 C -134.99021 12.349106 -135.04996 12.490723 -135.1685 12.615841 C -135.28703 12.734375 -135.43188 12.793608 -135.6031 12.793608 L -136.65988 12.793608 L -136.65988 11.538904 z " />
    <path
       style="font-size:9.87778px;font-family:PRIMETIME;-inkscape-font-specification:PRIMETIME;text-align:center;text-anchor:middle;fill:#ff4f19;stroke-width:0.805412"
       d="M -147.13021,16.468079 V 9.9586216 h 1.82739 v 4.8598674 h 3.3782 v 1.64959 z"
       id="path2" />
    <path
       style="font-size:9.87778px;font-family:PRIMETIME;-inkscape-font-specification:PRIMETIME;text-align:center;text-anchor:middle;fill:#ff4f19;stroke-width:0.805412"
       d="M -150.2911,16.468079 V 9.9586216 h 1.90641 v 6.5094574 z"
       id="path1" />
    <path
       style="font-size:9.87778px;font-family:PRIMETIME;-inkscape-font-specification:PRIMETIME;text-align:center;text-anchor:middle;fill:#ff4f19;stroke-width:0.805412"
       d="m -151.40729,11.647722 h -1.67922 v 4.820357 h -1.85702 v -4.820357 h -1.67923 l -0.15804,-0.158044 V 9.9586216 h 5.53155 v 1.5310564 z"
       id="text1" />
  </g>
</svg>
